<?xml version="1.0" encoding="UTF-8" standalone="no"?>
<svg
   xmlns:dc="http://purl.org/dc/elements/1.1/"
   xmlns:cc="http://creativecommons.org/ns#"
   xmlns:rdf="http://www.w3.org/1999/02/22-rdf-syntax-ns#"
   xmlns:svg="http://www.w3.org/2000/svg"
   xmlns="http://www.w3.org/2000/svg"
   viewBox="0 0 302.66666 118.66667"
   height="118.66667"
   width="302.66666"
   xml:space="preserve"
   id="svg2"
   version="1.1"><metadata
     id="metadata8"><rdf:RDF><cc:Work
         rdf:about=""><dc:format>image/svg+xml</dc:format><dc:type
           rdf:resource="http://purl.org/dc/dcmitype/StillImage" /></cc:Work></rdf:RDF></metadata><defs
     id="defs6"><clipPath
       id="clipPath24"
       clipPathUnits="userSpaceOnUse"><path
         id="path22"
         d="M 0,0 H 227 V 89 H 0 Z" /></clipPath><clipPath
       id="clipPath126"
       clipPathUnits="userSpaceOnUse"><path
         id="path124"
         d="M 0,0.06000519 H 226.80301 V 88.712005 H 0 Z" /></clipPath></defs><g
     transform="matrix(1.3333333,0,0,-1.3333333,0,118.66667)"
     id="g10"><g
       id="g12" /><g
       id="g14" /><g
       id="g16"><g
         id="g18"><g
           clip-path="url(#clipPath24)"
           id="g20"><g
             id="g26" /><g
             id="g28"><path
               id="path30"
               style="fill:none;stroke:#231f20;stroke-width:1;stroke-linecap:butt;stroke-linejoin:miter;stroke-miterlimit:4;stroke-dasharray:none;stroke-opacity:1"
               d="M 38.27,3.2990003 V 77.731003" /><path
               id="path32"
               style="fill:#231f20;fill-opacity:1;fill-rule:nonzero;stroke:none"
               d="m 38.273003,76.357002 -2.774002,-1.693001 -0.064,0.095 1.798001,4.540001 c 0.346996,1.582 0.694,3.163002 1.040001,4.745002 0.346996,-1.582 0.694,-3.163002 1.041,-4.745002 l 1.796997,-4.540001 -0.047,-0.095 -2.791,1.693001" /><path
               id="path34"
               style="fill:none;stroke:#231f20;stroke-width:0.5;stroke-linecap:butt;stroke-linejoin:miter;stroke-miterlimit:4;stroke-dasharray:none;stroke-opacity:1"
               d="m 38.273003,76.357002 -2.774002,-1.693001 -0.064,0.095 1.798001,4.540001 c 0.346996,1.582 0.694,3.163002 1.040001,4.745002 0.346996,-1.582 0.694,-3.163002 1.041,-4.745002 l 1.796997,-4.540001 -0.047,-0.095 -2.791,1.693001 z" /><path
               id="path36"
               style="fill:none;stroke:#231f20;stroke-width:1;stroke-linecap:butt;stroke-linejoin:miter;stroke-miterlimit:4;stroke-dasharray:none;stroke-opacity:1"
               d="m 191.32501,50.011002 c -6.54501,-1.901001 -15.98001,-1.512001 -27.16,0.038 m -127.948007,12.235 c -7.145002,-2.373001 -13.230002,-6.076 -17.838001,-11.518001" /><text
               id="text40"
               style="font-variant:normal;font-weight:normal;font-size:12px;font-family:CMMI10;-inkscape-font-specification:CMMI10;writing-mode:lr-tb;fill:#231f20;fill-opacity:1;fill-rule:nonzero;stroke:none"
               transform="matrix(0.99680825,0,0,-1,70.4189,3.9888999)"><tspan
                 id="tspan38"
                 y="0"
                 x="0">a</tspan></text>
<text
               id="text44"
               style="font-variant:normal;font-weight:normal;font-size:12px;font-family:CMMI10;-inkscape-font-specification:CMMI10;writing-mode:lr-tb;fill:#231f20;fill-opacity:1;fill-rule:nonzero;stroke:none"
               transform="matrix(0.99680825,0,0,-1,187.08495,3.9888999)"><tspan
                 id="tspan42"
                 y="0"
                 x="0">x</tspan></text>
<text
               id="text48"
               style="font-variant:normal;font-weight:normal;font-size:11.95500088px;font-family:CMR12;-inkscape-font-specification:CMR12;writing-mode:lr-tb;fill:#231f20;fill-opacity:1;fill-rule:nonzero;stroke:none"
               transform="matrix(1,0,0,-1,95.263695,75.493698)"><tspan
                 id="tspan46"
                 y="0"
                 x="0 5.8459954 10.388896 15.589321">area</tspan></text>
<text
               id="text52"
               style="font-variant:normal;font-weight:normal;font-size:11.95500088px;font-family:CMR12;-inkscape-font-specification:CMR12;writing-mode:lr-tb;fill:#231f20;fill-opacity:1;fill-rule:nonzero;stroke:none"
               transform="matrix(1,0,0,-1,120.62742,75.493698)"><tspan
                 id="tspan50"
                 y="0"
                 x="0 3.2398052">is</tspan></text>
<text
               id="text56"
               style="font-variant:normal;font-weight:normal;font-size:11.95500088px;font-family:CMMI12;-inkscape-font-specification:CMMI12;writing-mode:lr-tb;fill:#231f20;fill-opacity:1;fill-rule:nonzero;stroke:none"
               transform="matrix(1,0,0,-1,132.39832,75.493698)"><tspan
                 id="tspan54"
                 y="0"
                 x="0">A</tspan></text>
<text
               id="text60"
               style="font-variant:normal;font-weight:normal;font-size:11.95500088px;font-family:CMR12;-inkscape-font-specification:CMR12;writing-mode:lr-tb;fill:#231f20;fill-opacity:1;fill-rule:nonzero;stroke:none"
               transform="matrix(1,0,0,-1,141.17328,75.493698)"><tspan
                 id="tspan58"
                 y="0"
                 x="0">(</tspan></text>
<text
               id="text64"
               style="font-variant:normal;font-weight:normal;font-size:11.95500088px;font-family:CMMI12;-inkscape-font-specification:CMMI12;writing-mode:lr-tb;fill:#231f20;fill-opacity:1;fill-rule:nonzero;stroke:none"
               transform="matrix(1,0,0,-1,145.72574,75.493698)"><tspan
                 id="tspan62"
                 y="0"
                 x="0">x</tspan></text>
<text
               id="text68"
               style="font-variant:normal;font-weight:normal;font-size:11.95500088px;font-family:CMR12;-inkscape-font-specification:CMR12;writing-mode:lr-tb;fill:#231f20;fill-opacity:1;fill-rule:nonzero;stroke:none"
               transform="matrix(1,0,0,-1,152.3775,75.493698)"><tspan
                 id="tspan66"
                 y="0"
                 x="0">)</tspan></text>
<text
               id="text72"
               style="font-variant:normal;font-weight:normal;font-size:11.95500088px;font-family:CMMI12;-inkscape-font-specification:CMMI12;writing-mode:lr-tb;fill:#231f20;fill-opacity:1;fill-rule:nonzero;stroke:none"
               transform="matrix(1,0,0,-1,131.08446,2.9890113)"><tspan
                 id="tspan70"
                 y="0"
                 x="0">x</tspan></text>
<text
               id="text76"
               style="font-variant:normal;font-weight:normal;font-size:11.95500088px;font-family:CMMI12;-inkscape-font-specification:CMMI12;writing-mode:lr-tb;fill:#231f20;fill-opacity:1;fill-rule:nonzero;stroke:none"
               transform="matrix(1,0,0,-1,182.12514,64.047981)"><tspan
                 id="tspan74"
                 y="0"
                 x="0">y</tspan></text>
<text
               id="text80"
               style="font-variant:normal;font-weight:normal;font-size:11.95500088px;font-family:CMR12;-inkscape-font-specification:CMR12;writing-mode:lr-tb;fill:#231f20;fill-opacity:1;fill-rule:nonzero;stroke:none"
               transform="matrix(1,0,0,-1,191.58154,64.047981)"><tspan
                 id="tspan78"
                 y="0"
                 x="0">=</tspan></text>
<text
               id="text84"
               style="font-variant:normal;font-weight:normal;font-size:11.95500088px;font-family:CMMI12;-inkscape-font-specification:CMMI12;writing-mode:lr-tb;fill:#231f20;fill-opacity:1;fill-rule:nonzero;stroke:none"
               transform="matrix(1,0,0,-1,204.00757,64.047981)"><tspan
                 id="tspan82"
                 y="0"
                 x="0">f</tspan></text>
<text
               id="text88"
               style="font-variant:normal;font-weight:normal;font-size:11.95500088px;font-family:CMR12;-inkscape-font-specification:CMR12;writing-mode:lr-tb;fill:#231f20;fill-opacity:1;fill-rule:nonzero;stroke:none"
               transform="matrix(1,0,0,-1,211.05385,64.047981)"><tspan
                 id="tspan86"
                 y="0"
                 x="0">(</tspan></text>
<text
               id="text92"
               style="font-variant:normal;font-weight:normal;font-size:11.95500088px;font-family:CMMI12;-inkscape-font-specification:CMMI12;writing-mode:lr-tb;fill:#231f20;fill-opacity:1;fill-rule:nonzero;stroke:none"
               transform="matrix(1,0,0,-1,215.60631,64.047981)"><tspan
                 id="tspan90"
                 y="0"
                 x="0">x</tspan></text>
<text
               id="text96"
               style="font-variant:normal;font-weight:normal;font-size:11.95500088px;font-family:CMR12;-inkscape-font-specification:CMR12;writing-mode:lr-tb;fill:#231f20;fill-opacity:1;fill-rule:nonzero;stroke:none"
               transform="matrix(1,0,0,-1,222.25807,64.047981)"><tspan
                 id="tspan94"
                 y="0"
                 x="0">)</tspan></text>
<text
               id="text100"
               style="font-variant:normal;font-weight:normal;font-size:11.95500088px;font-family:CMMI12;-inkscape-font-specification:CMMI12;writing-mode:lr-tb;fill:#231f20;fill-opacity:1;fill-rule:nonzero;stroke:none"
               transform="matrix(1,0,0,-1,25.105768,79.746094)"><tspan
                 id="tspan98"
                 y="0"
                 x="0">y</tspan></text>
<path
               id="path102"
               style="fill:#c8c7c7;fill-opacity:1;fill-rule:nonzero;stroke:none"
               d="m 134.08601,12.989 v 43.000002 l -3,0.333 -2.667,0.334 -2.333,1 -3,0.333 -2.334,0.333 -3,0.667 h -3.333 l -3.667,1.667 -3,0.333 -3,0.667 -3.333,0.666 -2.667003,0.334 -3.666001,0.333 -3,0.667 -3,0.333 -2.667,0.333004 -3,0.334 -3.666999,0.333 -6,0.667 V 13.322001" /><path
               id="path104"
               style="fill:none;stroke:#231f20;stroke-width:1;stroke-linecap:butt;stroke-linejoin:miter;stroke-miterlimit:4;stroke-dasharray:none;stroke-opacity:1"
               d="M 164.16501,50.049004 C 126.744,55.237003 69.776001,73.429001 36.217003,62.284004" /><path
               id="path106"
               style="fill:#c8c7c7;fill-opacity:1;fill-rule:nonzero;stroke:none"
               d="M 73.419006,12.635 V 64.968002" /><path
               id="path108"
               style="fill:none;stroke:#231f20;stroke-width:0.5;stroke-linecap:butt;stroke-linejoin:miter;stroke-miterlimit:4;stroke-dasharray:none;stroke-opacity:1"
               d="M 73.419006,12.635 V 64.968002" /><path
               id="path110"
               style="fill:#c8c7c7;fill-opacity:1;fill-rule:nonzero;stroke:none"
               d="M 134.44,12.635 V 54.635002" /><path
               id="path112"
               style="fill:none;stroke:#231f20;stroke-width:0.5;stroke-linecap:butt;stroke-linejoin:miter;stroke-miterlimit:4;stroke-dasharray:none;stroke-opacity:1"
               d="M 134.44,12.635 V 54.635002" /><path
               id="path114"
               style="fill:#231f20;fill-opacity:1;fill-rule:nonzero;stroke:none"
               d="m 96.523003,40.679001 29.001007,30" /><path
               id="path116"
               style="fill:none;stroke:#231f20;stroke-width:0.5;stroke-linecap:butt;stroke-linejoin:miter;stroke-miterlimit:4;stroke-dasharray:none;stroke-opacity:1"
               d="m 96.523003,40.679001 29.001007,30" /><path
               id="path118"
               style="fill:#231f20;fill-opacity:1;fill-rule:nonzero;stroke:none"
               d="m 179.71101,60.364002 -11,-11" /></g><g
             id="g120"><g
               clip-path="url(#clipPath126)"
               id="g122"><path
                 id="path128"
                 style="fill:none;stroke:#231f20;stroke-width:0.5;stroke-linecap:butt;stroke-linejoin:miter;stroke-miterlimit:4;stroke-dasharray:none;stroke-opacity:1"
                 d="m 179.71101,60.364002 -11,-11" /><path
                 id="path130"
                 style="fill:none;stroke:#231f20;stroke-width:1;stroke-linecap:butt;stroke-linejoin:miter;stroke-miterlimit:4;stroke-dasharray:none;stroke-opacity:1"
                 d="M 0,12.748 H 179.47301" /></g></g><g
             id="g132"><path
               id="path134"
               style="fill:#231f20;fill-opacity:1;fill-rule:nonzero;stroke:none"
               d="m 178.688,12.748 -1.688,1.856001 0.095,0.042 4.525,-1.202001 c 1.57701,-0.231999 3.15301,-0.464 4.72999,-0.696 -1.57698,-0.231999 -3.15298,-0.464 -4.72999,-0.695999 l -4.525,-1.202002 -0.095,0.032 1.688,1.865999" /></g></g></g></g></g></svg>