<?xml version="1.0" encoding="UTF-8" standalone="no"?>
<svg
   xmlns:dc="http://purl.org/dc/elements/1.1/"
   xmlns:cc="http://creativecommons.org/ns#"
   xmlns:rdf="http://www.w3.org/1999/02/22-rdf-syntax-ns#"
   xmlns:svg="http://www.w3.org/2000/svg"
   xmlns="http://www.w3.org/2000/svg"
   viewBox="0 0 294.66666 122.66667"
   height="122.66667"
   width="294.66666"
   xml:space="preserve"
   id="svg2"
   version="1.1"><metadata
     id="metadata8"><rdf:RDF><cc:Work
         rdf:about=""><dc:format>image/svg+xml</dc:format><dc:type
           rdf:resource="http://purl.org/dc/dcmitype/StillImage" /></cc:Work></rdf:RDF></metadata><defs
     id="defs6"><clipPath
       id="clipPath24"
       clipPathUnits="userSpaceOnUse"><path
         id="path22"
         d="M 0,0 H 221 V 92 H 0 Z" /></clipPath><clipPath
       id="clipPath50"
       clipPathUnits="userSpaceOnUse"><path
         id="path48"
         d="M 0,0 H 220.30402 V 91.396004 H 0 Z" /></clipPath></defs><g
     transform="matrix(1.3333333,0,0,-1.3333333,0,122.66667)"
     id="g10"><g
       id="g12" /><g
       id="g14" /><g
       id="g16"><g
         id="g18"><g
           clip-path="url(#clipPath24)"
           id="g20"><g
             id="g26" /><g
             id="g28"><path
               id="path30"
               style="fill:#c8c7c7;fill-opacity:1;fill-rule:nonzero;stroke:none"
               d="M 66.564003,12.75 V 70.5 l 2.75,-0.5 2.25,-0.25 2.25,-0.5 3,-0.25 2.25,-0.5 5,-1 2.25,-0.75 c 0,0 2.25,0 2.25,-0.25 0,-0.25 1.75,-0.75 1.75,-0.75 l 1.25,-0.25 1.5,-0.5 1.75,-0.25 3.5,-1 1.5,-0.25 2.499997,-0.75 5.5,-1.5 4,-1.25 3.5,-1 3.5,-1.25 3,-0.75 2,-0.75 3,-0.75 2.75001,-0.75 2.25,-0.75 V 13.25" /><path
               id="path32"
               style="fill:none;stroke:#231f20;stroke-width:0.75;stroke-linecap:butt;stroke-linejoin:miter;stroke-miterlimit:4;stroke-dasharray:none;stroke-opacity:1"
               d="M 66.564003,12.75 V 70.5 l 2.75,-0.5 2.25,-0.25 2.25,-0.5 3,-0.25 2.25,-0.5 5,-1 2.25,-0.75 c 0,0 2.25,0 2.25,-0.25 0,-0.25 1.75,-0.75 1.75,-0.75 l 1.25,-0.25 1.5,-0.5 1.75,-0.25 3.5,-1 1.5,-0.25 2.499997,-0.75 5.5,-1.5 4,-1.25 3.5,-1 3.5,-1.25 3,-0.75 2,-0.75 3,-0.75 2.75001,-0.75 2.25,-0.75 V 13.25" /><path
               id="path34"
               style="fill:none;stroke:#231f20;stroke-width:1;stroke-linecap:butt;stroke-linejoin:miter;stroke-miterlimit:4;stroke-dasharray:none;stroke-opacity:1"
               d="M 16.229,12.947001 H 195.70201" /><path
               id="path36"
               style="fill:#231f20;fill-opacity:1;fill-rule:nonzero;stroke:none"
               d="M 194.91602,12.947001 193.229,14.803 l 0.094,0.042 4.526,-1.201999 c 1.57599,-0.232001 3.153,-0.464 4.73,-0.696 -1.577,-0.232001 -3.15401,-0.464 -4.73,-0.696001 l -4.526,-1.201999 -0.094,0.031 1.68702,1.867001" /><path
               id="path38"
               style="fill:none;stroke:#231f20;stroke-width:1;stroke-linecap:butt;stroke-linejoin:miter;stroke-miterlimit:4;stroke-dasharray:none;stroke-opacity:1"
               d="M 30.668001,6.2740002 V 80.245003" /><path
               id="path40"
               style="fill:#231f20;fill-opacity:1;fill-rule:nonzero;stroke:none"
               d="m 30.671001,78.871002 -2.774999,-1.693001 -0.063,0.095 1.796997,4.540001 c 0.348002,1.582 0.694002,3.164001 1.041002,4.745002 0.347001,-1.581001 0.694001,-3.163002 1.041001,-4.745002 l 1.797001,-4.540001 -0.047,-0.095 -2.791001,1.693001" /><path
               id="path42"
               style="fill:none;stroke:#231f20;stroke-width:0.5;stroke-linecap:butt;stroke-linejoin:miter;stroke-miterlimit:4;stroke-dasharray:none;stroke-opacity:1"
               d="m 30.671001,78.871002 -2.774999,-1.693001 -0.063,0.095 1.796997,4.540001 c 0.348002,1.582 0.694002,3.164001 1.041002,4.745002 0.347001,-1.581001 0.694001,-3.163002 1.041001,-4.745002 l 1.797001,-4.540001 -0.047,-0.095 -2.791001,1.693001 z" /></g><g
             id="g44"><g
               clip-path="url(#clipPath50)"
               id="g46"><path
                 id="path52"
                 style="fill:none;stroke:#231f20;stroke-width:0.75;stroke-linecap:butt;stroke-linejoin:miter;stroke-miterlimit:4;stroke-dasharray:none;stroke-opacity:1"
                 d="m 194.89,45.021004 c -7.36398,-3.206002 -17.978,-2.549004 -30.55599,0.065 m 0,0 C 122.23501,53.841003 58.147003,84.540001 20.393002,65.733002 12.354001,61.729004 5.5090003,55.479004 0.32500002,46.296001" /></g></g><g
             id="g54"><text
               id="text58"
               style="font-variant:normal;font-weight:normal;font-size:12px;font-family:CMMI10;-inkscape-font-specification:CMMI10;writing-mode:lr-tb;fill:#231f20;fill-opacity:1;fill-rule:nonzero;stroke:none"
               transform="matrix(0.99680825,0,0,-1,63.147499,4.0001001)"><tspan
                 id="tspan56"
                 y="0"
                 x="0">a</tspan></text>
<text
               id="text62"
               style="font-variant:normal;font-weight:normal;font-size:12px;font-family:CMMI10;-inkscape-font-specification:CMMI10;writing-mode:lr-tb;fill:#231f20;fill-opacity:1;fill-rule:nonzero;stroke:none"
               transform="matrix(0.99680825,0,0,-1,129.81364,3.0005002)"><tspan
                 id="tspan60"
                 y="0"
                 x="0">b</tspan></text>
<text
               id="text66"
               style="font-variant:normal;font-weight:normal;font-size:12px;font-family:CMMI10;-inkscape-font-specification:CMMI10;writing-mode:lr-tb;fill:#231f20;fill-opacity:1;fill-rule:nonzero;stroke:none"
               transform="matrix(0.99680825,0,0,-1,19.200218,82.396095)"><tspan
                 id="tspan64"
                 y="0"
                 x="0">y</tspan></text>
<text
               id="text70"
               style="font-variant:normal;font-weight:normal;font-size:12px;font-family:CMMI10;-inkscape-font-specification:CMMI10;writing-mode:lr-tb;fill:#231f20;fill-opacity:1;fill-rule:nonzero;stroke:none"
               transform="matrix(0.99680825,0,0,-1,202.81349,4.0000896)"><tspan
                 id="tspan68"
                 y="0"
                 x="0">x</tspan></text>
<text
               id="text74"
               style="font-variant:normal;font-weight:normal;font-size:12px;font-family:CMR7;-inkscape-font-specification:CMR7;writing-mode:lr-tb;fill:#231f20;fill-opacity:1;fill-rule:nonzero;stroke:none"
               transform="matrix(0.99680825,0,0,-1,83.813728,76.500488)"><tspan
                 id="tspan72"
                 y="0"
                 x="0 6.8280001 12.18 18.264 25.091999 29.700001 35.051998 41.136002 48.335999 55.896 59.771999 65.124001 71.208">area required</tspan></text>
<path
               id="path76"
               style="fill:#231f20;fill-opacity:1;fill-rule:nonzero;stroke:none"
               d="m 171.81401,59 -13.5,-13.5" /><path
               id="path78"
               style="fill:none;stroke:#231f20;stroke-width:0.5;stroke-linecap:butt;stroke-linejoin:miter;stroke-miterlimit:4;stroke-dasharray:none;stroke-opacity:1"
               d="m 171.81401,59 -13.5,-13.5" /><path
               id="path80"
               style="fill:#231f20;fill-opacity:1;fill-rule:nonzero;stroke:none"
               d="M 117.814,71 89.314003,42.5" /><text
               id="text84"
               style="font-variant:normal;font-weight:normal;font-size:11.95500088px;font-family:CMMI12;-inkscape-font-specification:CMMI12;writing-mode:lr-tb;fill:#231f20;fill-opacity:1;fill-rule:nonzero;stroke:none"
               transform="matrix(1,0,0,-1,175.62601,59.273499)"><tspan
                 id="tspan82"
                 y="0"
                 x="0">y</tspan></text>
<text
               id="text88"
               style="font-variant:normal;font-weight:normal;font-size:11.95500088px;font-family:CMR12;-inkscape-font-specification:CMR12;writing-mode:lr-tb;fill:#231f20;fill-opacity:1;fill-rule:nonzero;stroke:none"
               transform="matrix(1,0,0,-1,185.08241,59.273499)"><tspan
                 id="tspan86"
                 y="0"
                 x="0">=</tspan></text>
<text
               id="text92"
               style="font-variant:normal;font-weight:normal;font-size:11.95500088px;font-family:CMMI12;-inkscape-font-specification:CMMI12;writing-mode:lr-tb;fill:#231f20;fill-opacity:1;fill-rule:nonzero;stroke:none"
               transform="matrix(1,0,0,-1,197.50844,59.273499)"><tspan
                 id="tspan90"
                 y="0"
                 x="0">f</tspan></text>
<text
               id="text96"
               style="font-variant:normal;font-weight:normal;font-size:11.95500088px;font-family:CMR12;-inkscape-font-specification:CMR12;writing-mode:lr-tb;fill:#231f20;fill-opacity:1;fill-rule:nonzero;stroke:none"
               transform="matrix(1,0,0,-1,204.55472,59.273499)"><tspan
                 id="tspan94"
                 y="0"
                 x="0">(</tspan></text>
<text
               id="text100"
               style="font-variant:normal;font-weight:normal;font-size:11.95500088px;font-family:CMMI12;-inkscape-font-specification:CMMI12;writing-mode:lr-tb;fill:#231f20;fill-opacity:1;fill-rule:nonzero;stroke:none"
               transform="matrix(1,0,0,-1,209.10718,59.273499)"><tspan
                 id="tspan98"
                 y="0"
                 x="0">x</tspan></text>
<text
               id="text104"
               style="font-variant:normal;font-weight:normal;font-size:11.95500088px;font-family:CMR12;-inkscape-font-specification:CMR12;writing-mode:lr-tb;fill:#231f20;fill-opacity:1;fill-rule:nonzero;stroke:none"
               transform="matrix(1,0,0,-1,215.75894,59.273499)"><tspan
                 id="tspan102"
                 y="0"
                 x="0">)</tspan></text>
</g></g></g></g></g></svg>