<?xml version="1.0" encoding="UTF-8" standalone="no"?>
<svg
   xmlns:dc="http://purl.org/dc/elements/1.1/"
   xmlns:cc="http://creativecommons.org/ns#"
   xmlns:rdf="http://www.w3.org/1999/02/22-rdf-syntax-ns#"
   xmlns:svg="http://www.w3.org/2000/svg"
   xmlns="http://www.w3.org/2000/svg"
   viewBox="0 0 345.33334 114.66667"
   height="114.66667"
   width="345.33334"
   xml:space="preserve"
   id="svg2"
   version="1.1"><metadata
     id="metadata8"><rdf:RDF><cc:Work
         rdf:about=""><dc:format>image/svg+xml</dc:format><dc:type
           rdf:resource="http://purl.org/dc/dcmitype/StillImage" /></cc:Work></rdf:RDF></metadata><defs
     id="defs6"><clipPath
       id="clipPath24"
       clipPathUnits="userSpaceOnUse"><path
         id="path22"
         d="M 0,0 H 259 V 86 H 0 Z" /></clipPath></defs><g
     transform="matrix(1.3333333,0,0,-1.3333333,0,114.66667)"
     id="g10"><g
       id="g12" /><g
       id="g14" /><g
       id="g16"><g
         id="g18"><g
           clip-path="url(#clipPath24)"
           id="g20"><g
             id="g26" /><g
             id="g28"><path
               id="path30"
               style="fill:#c8c7c7;fill-opacity:1;fill-rule:nonzero;stroke:none"
               d="m 131.81,30.334002 24.66601,-2.668002 16,-0.666 h 6.668 V 18.334002 L 137.81,19" /><path
               id="path32"
               style="fill:#c8c7c7;fill-opacity:1;fill-rule:nonzero;stroke:none"
               d="m 77.143005,40.334003 16.666993,-4 L 110.47701,33 131.81,30.334002 137.81,19 95.809998,18.334002" /><path
               id="path34"
               style="fill:#c8c7c7;fill-opacity:1;fill-rule:nonzero;stroke:none"
               d="M 53.143002,52.334003 63.143002,47 77.143005,40.334003 95.809998,18.334002 h -42" /><path
               id="path36"
               style="fill:none;stroke:#231f20;stroke-width:1;stroke-linecap:butt;stroke-linejoin:round;stroke-miterlimit:4;stroke-dasharray:none;stroke-opacity:1"
               d="m 52.059998,18.476002 h 3 m -1.5,1.5 v -3 m 40.583007,1.5 h 3 m -1.5,1.5 v -3 m 40.626005,1.5 h 3 m -1.5,1.5 v -3 m 40.582,1.5 h 3 m -1.5,1.5 v -3 m 40.625,1.5 h 3 m -1.5,1.5 v -3 M 9.9350004,53.685001 H 12.935 m -1.5,1.5 v -3 M 7.2260003,18.476002 H 230.39401" /><path
               id="path38"
               style="fill:#231f20;fill-opacity:1;fill-rule:nonzero;stroke:none"
               d="m 229.37401,18.476002 -2.191,3.601999 0.12301,0.082 5.875,-2.332998 c 2.04699,-0.451001 4.09399,-0.901001 6.14099,-1.351 -2.047,-0.451 -4.094,-0.902001 -6.14099,-1.351002 l -5.875,-2.334 -0.12301,0.062 2.191,3.623001" /><path
               id="path40"
               style="fill:none;stroke:#231f20;stroke-width:1;stroke-linecap:butt;stroke-linejoin:round;stroke-miterlimit:4;stroke-dasharray:none;stroke-opacity:1"
               d="M 11.625001,5.5 V 71.567001" /><path
               id="path42"
               style="fill:#231f20;fill-opacity:1;fill-rule:nonzero;stroke:none"
               d="M 11.625001,71.567001 8.0220003,69.377007 7.9400001,69.5 10.274,75.375 c 0.451,2.047005 0.901,4.094002 1.351001,6.141006 0.45,-2.047004 0.901,-4.094001 1.351,-6.141006 l 2.333998,-5.875 -0.062,-0.122993 -3.623,2.189994" /><path
               id="path44"
               style="fill:none;stroke:#231f20;stroke-width:1;stroke-linecap:butt;stroke-linejoin:round;stroke-miterlimit:4;stroke-dasharray:none;stroke-opacity:1"
               d="m 180.26901,27.226002 h 0.457 l 0.418,-0.041 H 181.56 l 0.41601,-0.042 h 0.418 l 0.41599,-0.042 h 0.41601 l 0.417,-0.041 H 184.06 l 0.41601,-0.042 h 0.459 l 0.416,-0.042 h 0.417 l 0.417,-0.041 h 0.416 l 0.417,-0.042 h 0.417 l 0.416,-0.042 h 0.417 l 0.458,-0.041 H 189.56 l 0.41601,-0.042 h 0.417 l 0.41699,-0.042 h 0.41601 l 0.417,-0.041 H 192.06 l 0.41601,-0.042 h 0.459 l 0.416,-0.042 h 0.417 l 0.417,-0.041 h 0.833 l 0.417,-0.042 h 0.416 l 0.417,-0.042 h 0.458 l 0.417,-0.041 H 197.56 l 0.41601,-0.042 H 198.81 l 0.41601,-0.042 h 0.417 l 0.41699,-0.041 h 0.87501 l 0.416,-0.042 h 0.417 l 0.417,-0.042 h 0.416 l 0.417,-0.041 h 0.833 l 0.417,-0.042 h 0.458 l 0.417,-0.042 h 0.833 l 0.417,-0.041 H 206.81 l 0.41601,-0.042 H 208.06 l 0.45801,-0.042 h 0.833 l 0.417,-0.041 h 0.417 l 0.416,-0.042 h 0.834 l 0.416,-0.042 h 0.875 l 0.417,-0.041 H 213.56 l 0.41601,-0.042 H 214.81 l 0.41601,-0.042 H 216.06 l 0.45801,-0.041 h 0.833 l 0.417,-0.042 h 0.833 l 0.417,-0.042 h 0.417 l 0.416,-0.041 h 0.875 l 0.416,-0.042 h 0.834 m -83.375,4.625 0.418,-0.042 0.416,-0.041 0.416,-0.042 0.418,-0.042 0.416,-0.041 0.459,-0.042 0.41599,-0.042 0.41601,-0.041 0.417,-0.042 H 142.81 l 0.41601,-0.042 0.417,-0.041 0.41699,-0.042 0.41601,-0.042 0.459,-0.041 0.416,-0.042 h 0.417 l 0.417,-0.042 0.416,-0.041 0.417,-0.042 0.417,-0.042 h 0.416 l 0.417,-0.041 0.458,-0.042 0.417,-0.042 0.41699,-0.041 h 0.41601 l 0.83399,-0.084 0.41601,-0.041 0.417,-0.042 H 152.06 l 0.41601,-0.042 0.459,-0.041 0.416,-0.042 h 0.417 l 0.417,-0.042 0.416,-0.041 h 0.417 l 0.417,-0.042 0.416,-0.042 0.417,-0.041 h 0.458 l 0.417,-0.042 0.41699,-0.042 h 0.41601 l 0.417,-0.041 0.41699,-0.042 0.41601,-0.041 h 0.417 l 0.41699,-0.042 0.41601,-0.042 h 0.459 l 0.416,-0.041 0.417,-0.042 h 0.417 l 0.416,-0.042 0.417,-0.041 h 0.417 l 0.416,-0.042 h 0.417 l 0.458,-0.042 0.417,-0.041 H 165.56 l 0.41601,-0.042 0.417,-0.042 H 166.81 l 0.41601,-0.041 h 0.417 l 0.41699,-0.042 0.41601,-0.042 h 0.459 l 0.416,-0.041 0.417,-0.042 h 0.417 l 0.416,-0.042 h 0.417 l 0.417,-0.041 h 0.416 l 0.417,-0.042 0.458,-0.042 h 0.417 l 0.41699,-0.041 h 0.41601 l 0.417,-0.042 H 174.81 l 0.41601,-0.042 0.417,-0.041 H 176.06 l 0.41601,-0.042 h 0.459 l 0.416,-0.042 h 0.417 l 0.417,-0.041 h 0.416 l 0.417,-0.042 h 0.417 l 0.416,-0.042 0.416,-0.041" /><path
               id="path46"
               style="fill:none;stroke:#231f20;stroke-width:1;stroke-linecap:butt;stroke-linejoin:round;stroke-miterlimit:4;stroke-dasharray:none;stroke-opacity:1"
               d="m 96.935005,35.809998 0.416001,-0.084 0.416999,-0.083 0.417,-0.083 0.416001,-0.084 0.416999,-0.083 0.417,-0.083 0.416001,-0.084 0.417004,-0.083 0.417,-0.083 0.458,-0.084 0.41699,-0.041 0.41701,-0.084 0.416,-0.083 0.41699,-0.083 0.41701,-0.084 0.416,-0.041 0.41699,-0.084 0.41701,-0.083 0.458,-0.083 0.417,-0.042 0.416,-0.083 0.417,-0.084 0.417,-0.041 0.416,-0.084 0.417,-0.083 0.417,-0.042 0.416,-0.083 0.417,-0.042 0.458,-0.083 0.41699,-0.083 0.41701,-0.042 0.416,-0.083 0.41699,-0.042 0.41701,-0.083 0.416,-0.042 0.41699,-0.083 0.41701,-0.042 0.458,-0.083 0.417,-0.042 0.416,-0.083 0.834,-0.084 0.416,-0.083 0.417,-0.042 0.417,-0.083 0.416,-0.042 0.417,-0.041 0.458,-0.084 0.41699,-0.041 0.41701,-0.042 0.416,-0.083 0.834,-0.084 0.416,-0.041 0.41699,-0.084 0.41601,-0.041 0.459,-0.042 0.416,-0.083 0.417,-0.042 0.417,-0.042 0.416,-0.041 0.417,-0.042 0.417,-0.083 0.416,-0.042 0.417,-0.042 0.417,-0.041 0.458,-0.042 0.41699,-0.042 0.41601,-0.083 0.417,-0.042 0.41699,-0.041 0.41601,-0.042 0.417,-0.042 0.41699,-0.041 0.41601,-0.042 0.459,-0.042 0.416,-0.041 0.417,-0.084 0.417,-0.041 0.416,-0.042 0.417,-0.042 0.417,-0.041 0.416,-0.042 0.417,-0.042 0.417,-0.041 0.458,-0.042 0.41699,-0.041 0.41601,-0.042 0.417,-0.042 0.41699,-0.041 0.41601,-0.042 0.417,-0.042 0.41699,-0.041 0.41601,-0.042 0.459,-0.042 0.416,-0.041 0.834,-0.084 h 0.416 m -83.375008,22.166996 0.417,-0.333996 0.416996,-0.291001 0.416004,-0.333999 0.417,-0.291004 0.458,-0.291996 0.417,-0.292 0.416999,-0.291001 0.416001,-0.291999 0.417,-0.292 0.416999,-0.25 0.416001,-0.291004 0.417,-0.25 0.416999,-0.25 0.458001,-0.25 0.833,-0.5 0.417,-0.25 0.416996,-0.25 0.416004,-0.208996 0.417,-0.25 0.416996,-0.208 0.416008,-0.25 0.416999,-0.208001 0.458001,-0.208999 0.416999,-0.208 0.417,-0.208004 0.416001,-0.208996 0.416999,-0.208 0.417,-0.208001 0.416001,-0.208999 0.416999,-0.166004 0.417,-0.208996 0.458,-0.208 0.416993,-0.167 0.416008,-0.166004 0.416999,-0.208996 0.416993,-0.166001 0.416008,-0.166999 0.416999,-0.167 0.416993,-0.208 0.416008,-0.167 0.416999,-0.166004 0.458001,-0.166996 0.416999,-0.125 0.417,-0.167 0.416001,-0.166001 0.416999,-0.166999 0.417,-0.125 0.416001,-0.167 0.416999,-0.166004 0.417,-0.124997 0.458,-0.166999 0.416993,-0.125 0.416008,-0.167 0.416999,-0.125 0.833001,-0.25 0.416999,-0.166001 0.833001,-0.25 0.416999,-0.125003 0.458001,-0.124997 0.416999,-0.125003 0.833001,-0.25 0.416999,-0.124997 0.833001,-0.25 0.416999,-0.125003 0.417,-0.124997 0.458,-0.084 0.833001,-0.25 0.416999,-0.125 0.416993,-0.083 0.416008,-0.125 0.416999,-0.083 0.833001,-0.25 0.416999,-0.084 0.458001,-0.125 0.416999,-0.083 0.417,-0.083 0.416001,-0.124997 0.416999,-0.084 0.417,-0.125 0.416001,-0.083 0.416999,-0.083 0.417,-0.084 0.458,-0.125 0.833001,-0.166001 0.416999,-0.084 0.416993,-0.125 0.416008,-0.083 0.416999,-0.083 0.416993,-0.084 0.416008,-0.083 0.458999,-0.083" /><path
               id="path48"
               style="fill:none;stroke:#231f20;stroke-width:1;stroke-linecap:butt;stroke-linejoin:round;stroke-miterlimit:4;stroke-dasharray:none;stroke-opacity:1"
               d="m 35.435001,80.226006 0.416001,-1.084 0.417,-1 0.416999,-1 0.458001,-0.958 0.416996,-0.958 0.416004,-0.875 0.417,-0.875 0.416996,-0.875 1.25,-2.375 0.416004,-0.75 0.417,-0.709 0.458,-0.707008 0.417,-0.708992 0.416999,-0.666001 0.416001,-0.667 0.417,-0.625 0.416999,-0.625 1.25,-1.750003 0.458001,-0.542 0.416996,-0.541001 0.416004,-0.541999 0.417,-0.5 0.833,-1 0.417,-0.5 0.416996,-0.458001 0.416004,-0.458999 0.417,-0.458 0.875,-0.875 0.416999,-0.417 0.416001,-0.416004 0.417,-0.374997 0.416999,-0.416999 0.416001,-0.375 0.417,-0.375 0.416999,-0.375 0.458001,-0.375 0.416996,-0.333001 0.416004,-0.375003 0.417,-0.333996 0.833,-0.666004" /><text
               id="text52"
               style="font-variant:normal;font-weight:normal;font-size:12px;font-family:CMMI10;-inkscape-font-specification:CMMI10;writing-mode:lr-tb;fill:#231f20;fill-opacity:1;fill-rule:nonzero;stroke:none"
               transform="matrix(1,0,0,-1,67.7686,70.184196)"><tspan
                 id="tspan50"
                 y="0"
                 x="0">y</tspan></text>
<text
               id="text56"
               style="font-variant:normal;font-weight:normal;font-size:12px;font-family:CMR10;-inkscape-font-specification:CMR10;writing-mode:lr-tb;fill:#231f20;fill-opacity:1;fill-rule:nonzero;stroke:none"
               transform="matrix(1,0,0,-1,75.777397,70.184196)"><tspan
                 id="tspan54"
                 y="0"
                 x="0">=</tspan></text>
<text
               id="text60"
               style="font-variant:normal;font-weight:normal;font-size:12px;font-family:CMR10;-inkscape-font-specification:CMR10;writing-mode:lr-tb;fill:#231f20;fill-opacity:1;fill-rule:nonzero;stroke:none"
               transform="matrix(1,0,0,-1,87.845795,76.923393)"><tspan
                 id="tspan58"
                 y="0"
                 x="0">1</tspan></text>
<path
               id="path62"
               style="fill:#231f20;fill-opacity:1;fill-rule:nonzero;stroke:none"
               d="m 87.489998,72.874001 h 5.694 v -0.399002 h -5.694 z" /><text
               id="text66"
               style="font-variant:normal;font-weight:normal;font-size:12px;font-family:CMMI10;-inkscape-font-specification:CMMI10;writing-mode:lr-tb;fill:#231f20;fill-opacity:1;fill-rule:nonzero;stroke:none"
               transform="matrix(1,0,0,-1,87.4897,63.349697)"><tspan
                 id="tspan64"
                 y="0"
                 x="0">x</tspan></text>
<text
               id="text70"
               style="font-variant:normal;font-weight:normal;font-size:12px;font-family:CMMI10;-inkscape-font-specification:CMMI10;writing-mode:lr-tb;fill:#231f20;fill-opacity:1;fill-rule:nonzero;stroke:none"
               transform="matrix(1,0,0,-1,1.0490417e-4,74.7257)"><tspan
                 id="tspan68"
                 y="0"
                 x="0">y</tspan></text>
<text
               id="text74"
               style="font-variant:normal;font-weight:normal;font-size:12px;font-family:CMMI10;-inkscape-font-specification:CMMI10;writing-mode:lr-tb;fill:#231f20;fill-opacity:1;fill-rule:nonzero;stroke:none"
               transform="matrix(1,0,0,-1,241.85168,13.000103)"><tspan
                 id="tspan72"
                 y="0"
                 x="0">x</tspan></text>
<text
               id="text78"
               style="font-variant:normal;font-weight:normal;font-size:12px;font-family:CMR7;-inkscape-font-specification:CMR7;writing-mode:lr-tb;fill:#231f20;fill-opacity:1;fill-rule:nonzero;stroke:none"
               transform="matrix(1,0,0,-1,50.476887,3.0005031)"><tspan
                 id="tspan76"
                 y="0"
                 x="0">1</tspan></text>
<text
               id="text82"
               style="font-variant:normal;font-weight:normal;font-size:12px;font-family:CMR7;-inkscape-font-specification:CMR7;writing-mode:lr-tb;fill:#231f20;fill-opacity:1;fill-rule:nonzero;stroke:none"
               transform="matrix(1,0,0,-1,92.476891,3.0005031)"><tspan
                 id="tspan80"
                 y="0"
                 x="0">2</tspan></text>
<text
               id="text86"
               style="font-variant:normal;font-weight:normal;font-size:12px;font-family:CMR7;-inkscape-font-specification:CMR7;writing-mode:lr-tb;fill:#231f20;fill-opacity:1;fill-rule:nonzero;stroke:none"
               transform="matrix(1,0,0,-1,135.14529,3.0005031)"><tspan
                 id="tspan84"
                 y="0"
                 x="0">3</tspan></text>
<text
               id="text90"
               style="font-variant:normal;font-weight:normal;font-size:12px;font-family:CMR7;-inkscape-font-specification:CMR7;writing-mode:lr-tb;fill:#231f20;fill-opacity:1;fill-rule:nonzero;stroke:none"
               transform="matrix(1,0,0,-1,175.1449,3.0005031)"><tspan
                 id="tspan88"
                 y="0"
                 x="0">4</tspan></text>
<text
               id="text94"
               style="font-variant:normal;font-weight:normal;font-size:12px;font-family:CMR7;-inkscape-font-specification:CMR7;writing-mode:lr-tb;fill:#231f20;fill-opacity:1;fill-rule:nonzero;stroke:none"
               transform="matrix(1,0,0,-1,218.4769,3.0005031)"><tspan
                 id="tspan92"
                 y="0"
                 x="0">5</tspan></text>
<text
               id="text98"
               style="font-variant:normal;font-weight:normal;font-size:12px;font-family:CMR7;-inkscape-font-specification:CMR7;writing-mode:lr-tb;fill:#231f20;fill-opacity:1;fill-rule:nonzero;stroke:none"
               transform="matrix(1,0,0,-1,1.1436901,7.000103)"><tspan
                 id="tspan96"
                 y="0"
                 x="0">O</tspan></text>
<text
               id="text102"
               style="font-variant:normal;font-weight:normal;font-size:12px;font-family:CMR7;-inkscape-font-specification:CMR7;writing-mode:lr-tb;fill:#231f20;fill-opacity:1;fill-rule:nonzero;stroke:none"
               transform="matrix(1,0,0,-1,3.23049,51.666504)"><tspan
                 id="tspan100"
                 y="0"
                 x="0">1</tspan></text>
<path
               id="path104"
               style="fill:none;stroke:#231f20;stroke-width:1;stroke-linecap:butt;stroke-linejoin:miter;stroke-miterlimit:4;stroke-dasharray:none;stroke-opacity:1"
               d="M 53.505001,17.812 V 52.479004 M 179.505,18.261002 v 8" /><text
               id="text108"
               style="font-variant:normal;font-weight:normal;font-size:12px;font-family:CMR7;-inkscape-font-specification:CMR7;writing-mode:lr-tb;fill:#231f20;fill-opacity:1;fill-rule:nonzero;stroke:none"
               transform="matrix(1,0,0,-1,179.81,60.334099)"><tspan
                 id="tspan106"
                 y="0"
                 x="0 6.8280001 12.18 18.264 25.091999 29.700001 35.051998 41.136002 48.335999 55.896 59.771999 65.124001 71.208">area required</tspan></text>
<path
               id="path110"
               style="fill:#231f20;fill-opacity:1;fill-rule:nonzero;stroke:none"
               d="m 189.85101,55.625004 -69.999,-26.666002" /><path
               id="path112"
               style="fill:#231f20;fill-opacity:1;fill-rule:nonzero;stroke:none"
               d="m 69.809998,65 -24.75,-1.773998" /><path
               id="path114"
               style="fill:none;stroke:#231f20;stroke-width:0.5;stroke-linecap:butt;stroke-linejoin:miter;stroke-miterlimit:4;stroke-dasharray:none;stroke-opacity:1"
               d="m 69.809998,65 -24.75,-1.773998" /></g></g></g></g></g></svg>