<?xml version="1.0" encoding="UTF-8" standalone="no"?>
<svg
   xmlns:dc="http://purl.org/dc/elements/1.1/"
   xmlns:cc="http://creativecommons.org/ns#"
   xmlns:rdf="http://www.w3.org/1999/02/22-rdf-syntax-ns#"
   xmlns:svg="http://www.w3.org/2000/svg"
   xmlns="http://www.w3.org/2000/svg"
   viewBox="0 0 448 265.33334"
   height="265.33334"
   width="448"
   xml:space="preserve"
   id="svg2"
   version="1.1"><metadata
     id="metadata8"><rdf:RDF><cc:Work
         rdf:about=""><dc:format>image/svg+xml</dc:format><dc:type
           rdf:resource="http://purl.org/dc/dcmitype/StillImage" /></cc:Work></rdf:RDF></metadata><defs
     id="defs6"><clipPath
       id="clipPath24"
       clipPathUnits="userSpaceOnUse"><path
         id="path22"
         d="M 0,0 H 336 V 199 H 0 Z" /></clipPath></defs><g
     transform="matrix(1.3333333,0,0,-1.3333333,0,265.33333)"
     id="g10"><g
       id="g12" /><g
       id="g14" /><g
       id="g16"><g
         id="g18"><g
           clip-path="url(#clipPath24)"
           id="g20"><g
             id="g26" /><g
             id="g28"><path
               id="path30"
               style="fill:none;stroke:#000000;stroke-width:0.5;stroke-linecap:butt;stroke-linejoin:round;stroke-miterlimit:10;stroke-dasharray:3, 3, 3, 3, 3, 3;stroke-dashoffset:0;stroke-opacity:1"
               d="M 0.66600001,99 H 335.33301" /><path
               id="path32"
               style="fill:none;stroke:#000000;stroke-width:0.5;stroke-linecap:butt;stroke-linejoin:round;stroke-miterlimit:10;stroke-dasharray:none;stroke-opacity:1"
               d="m 218,99 c 0,-6.626999 -5.37299,-12 -12,-12 -6.62799,0 -12,5.373001 -12,12 0,6.62701 5.37201,12 12,12 6.62701,0 12,-5.37299 12,-12 z m 21.66701,0.166008 c 0,-14.451004 -11.715,-26.167007 -26.16701,-26.167007 -14.45099,0 -26.16599,11.716003 -26.16599,26.167007 0,14.451992 11.715,26.167002 26.16599,26.167002 14.45201,0 26.16701,-11.71501 26.16701,-26.167002 z" /><path
               id="path34"
               style="fill:none;stroke:#000000;stroke-width:0.5;stroke-linecap:butt;stroke-linejoin:round;stroke-miterlimit:10;stroke-dasharray:3, 3, 3, 3, 3, 3;stroke-dashoffset:0;stroke-opacity:1"
               d="m 212.66701,123 c 0,-25.404999 -20.595,-45.998993 -46.00101,-45.998993 -25.405,0 -45.99899,20.593994 -45.99899,45.998993 0,25.40601 20.59399,46 45.99899,46 25.40601,0 46.00101,-20.59399 46.00101,-46 z m 11.268,74.953 C 232.15999,186.45801 237,172.37801 237,157.16701 237,118.41501 205.58501,87 166.83301,87 c -38.752,0 -70.166003,31.41501 -70.166003,70.16701 0,15.145 4.796993,29.168 12.956003,40.63499 M 270.996,198 c 0.003,-0.33299 0.004,-0.66599 0.004,-0.99899 0,-58.174 -47.159,-105.334003 -105.33299,-105.334003 -58.17401,0 -105.334006,47.160003 -105.334006,105.334003 0,0.333 0.002,0.666 0.005,0.99899" /><path
               id="path36"
               style="fill:none;stroke:#000000;stroke-width:0.5;stroke-linecap:butt;stroke-linejoin:round;stroke-miterlimit:10;stroke-dasharray:none;stroke-opacity:1"
               d="m 327.66702,99 c 0,-41.604996 -33.72799,-75.332998 -75.33401,-75.332998 C 210.72801,23.667002 177,57.395004 177,99 c 0,41.606 33.72801,75.33401 75.33301,75.33401 41.60602,0 75.33401,-33.72801 75.33401,-75.33401 z m -42.33401,0.334007 C 285.33301,70.798004 262.20203,47.666 233.66701,47.666 205.132,47.666 182,70.798004 182,99.334007 182,127.868 205.132,151 233.66701,151 c 28.53502,0 51.666,-23.132 51.666,-51.665993 z M 115.16601,99 c 0,-6.626999 5.373,-12 12.001,-12 6.627,0 12,5.373001 12,12 0,6.62701 -5.373,12 -12,12 -6.628,0 -12.001,-5.37299 -12.001,-12 z m -21.667002,0.166008 c 0,-14.451004 11.714992,-26.167007 26.166002,-26.167007 14.45199,0 26.16699,11.716003 26.16699,26.167007 0,14.451992 -11.715,26.167002 -26.16699,26.167002 -14.45101,0 -26.166002,-11.71501 -26.166002,-26.167002 z M 5.4990001,99 c 0,-41.604996 33.7280009,-75.332998 75.3339999,-75.332998 41.605,0 75.333,33.728002 75.333,75.332998 0,41.606 -33.728,75.33401 -75.333,75.33401 C 39.227001,174.33401 5.4990001,140.606 5.4990001,99 Z M 47.833004,99.334007 C 47.833004,70.798004 70.964005,47.666 99.499008,47.666 128.03401,47.666 151.166,70.798004 151.166,99.334007 151.166,127.868 128.03401,151 99.499008,151 70.964005,151 47.833004,127.868 47.833004,99.334007 Z" /><path
               id="path38"
               style="fill:none;stroke:#000000;stroke-width:0.5;stroke-linecap:butt;stroke-linejoin:round;stroke-miterlimit:10;stroke-dasharray:3, 3, 3, 3, 3, 3;stroke-dashoffset:0;stroke-opacity:1"
               d="m 212.5,75.167 c 0,25.40501 -20.59499,46.00001 -46.00099,46.00001 -25.405,0 -46,-20.595 -46,-46.00001 0,-25.404999 20.595,-45.999998 46,-45.999998 25.406,0 46.00099,20.594999 46.00099,45.999998 z M 223.76801,0.215 c 8.225,11.494001 13.065,25.574999 13.065,40.786003 0,38.752003 -31.414,70.166007 -70.16701,70.166007 -38.75199,0 -70.166992,-31.414004 -70.166992,-70.166007 0,-15.145002 4.797992,-29.169002 12.957002,-40.63500297 m 161.373,-0.19800002 c 0.003,0.33300004 0.004,0.66500005 0.004,0.99900009 C 270.83301,59.341003 223.67401,106.5 165.5,106.5 107.326,106.5 60.167004,59.341003 60.167004,1.1670001 c 0,-0.33400004 9.99e-4,-0.6670001 0.004,-1.00000009" /></g></g></g></g></g></svg>