<?xml version="1.0" encoding="UTF-8" standalone="no"?>
<svg
   xmlns:dc="http://purl.org/dc/elements/1.1/"
   xmlns:cc="http://creativecommons.org/ns#"
   xmlns:rdf="http://www.w3.org/1999/02/22-rdf-syntax-ns#"
   xmlns:svg="http://www.w3.org/2000/svg"
   xmlns="http://www.w3.org/2000/svg"
   viewBox="0 0 244 101.07867"
   height="101.07867"
   width="244"
   xml:space="preserve"
   id="svg2"
   version="1.1"><metadata
     id="metadata8"><rdf:RDF><cc:Work
         rdf:about=""><dc:format>image/svg+xml</dc:format><dc:type
           rdf:resource="http://purl.org/dc/dcmitype/StillImage" /></cc:Work></rdf:RDF></metadata><defs
     id="defs6"><clipPath
       id="clipPath18"
       clipPathUnits="userSpaceOnUse"><path
         id="path16"
         d="M 0.059998,75.809 H 183 V 0.06 H 0.059998 Z" /></clipPath></defs><g
     transform="matrix(1.3333333,0,0,-1.3333333,0,101.07867)"
     id="g10"><g
       id="g12"><g
         clip-path="url(#clipPath18)"
         id="g14"><path
           id="path20"
           style="fill:#231f20;fill-opacity:1;fill-rule:nonzero;stroke:none"
           d="M 0,59.711 H 183" /><path
           id="path22"
           style="fill:#231f20;fill-opacity:1;fill-rule:nonzero;stroke:none"
           d="M 87.064,60 V 0" /></g></g><path
       id="path24"
       style="fill:#231f20;fill-opacity:1;fill-rule:nonzero;stroke:none"
       d="M 87.316,28.351 90.919,30.542 91,30.419 88.666,24.544 c -0.45,-2.047 -0.9,-4.094 -1.35,-6.141 -0.451,2.047 -0.901,4.094 -1.351,6.141 l -2.334,5.875 0.061,0.123 3.624,-2.191" /><text
       id="text30"
       style="font-style:italic;font-variant:normal;font-size:10px;font-family:Times;-inkscape-font-specification:Times-Italic;writing-mode:lr-tb;fill:#231f20;fill-opacity:1;fill-rule:nonzero;stroke:none"
       transform="matrix(1,0,0,-1,39.3335,65.877)"><tspan
         id="tspan26"
         y="0"
         x="0">I</tspan><tspan
         id="tspan28"
         y="0.667"
         x="89.999001">I</tspan></text>
<text
       id="text34"
       style="font-style:italic;font-variant:normal;font-size:7px;font-family:Times;-inkscape-font-specification:Times-Italic;writing-mode:lr-tb;fill:#231f20;fill-opacity:1;fill-rule:nonzero;stroke:none"
       transform="matrix(1,0,0,-1,132.664,63.2105)"><tspan
         id="tspan32"
         y="0"
         x="0">2</tspan></text>
<path
       id="path36"
       style="fill:#231f20;fill-opacity:1;fill-rule:nonzero;stroke:none"
       d="m 38,59.211 -2.295,3.536 0.12,0.086 5.941,-2.16 c 2.059,-0.39 4.119,-0.779 6.178,-1.17 -2.033,-0.51 -4.066,-1.02 -6.098,-1.531 L 36.042,55.466 35.917,55.524 38,59.211" /><text
       id="text42"
       style="font-style:italic;font-variant:normal;font-size:10px;font-family:Times;-inkscape-font-specification:Times-Italic;writing-mode:lr-tb;fill:#231f20;fill-opacity:1;fill-rule:nonzero;stroke:none"
       transform="matrix(1,0,0,-1,85.6562,67.5435)"><tspan
         id="tspan38"
         y="0"
         x="0">x</tspan><tspan
         id="tspan40"
         y="45.666"
         x="10.677">I</tspan></text>
<text
       id="text46"
       style="font-style:italic;font-variant:normal;font-size:7px;font-family:Times;-inkscape-font-specification:Times-Italic;writing-mode:lr-tb;fill:#231f20;fill-opacity:1;fill-rule:nonzero;stroke:none"
       transform="matrix(1,0,0,-1,99.6636,19.877)"><tspan
         id="tspan44"
         y="0"
         x="0">1</tspan></text>
</g></svg>