<?xml version="1.0" encoding="UTF-8" standalone="no"?>
<svg
   xmlns:dc="http://purl.org/dc/elements/1.1/"
   xmlns:cc="http://creativecommons.org/ns#"
   xmlns:rdf="http://www.w3.org/1999/02/22-rdf-syntax-ns#"
   xmlns:svg="http://www.w3.org/2000/svg"
   xmlns="http://www.w3.org/2000/svg"
   viewBox="0 0 113.33333 120"
   height="120"
   width="113.33333"
   xml:space="preserve"
   id="svg2"
   version="1.1"><metadata
     id="metadata8"><rdf:RDF><cc:Work
         rdf:about=""><dc:format>image/svg+xml</dc:format><dc:type
           rdf:resource="http://purl.org/dc/dcmitype/StillImage" /></cc:Work></rdf:RDF></metadata><defs
     id="defs6"><clipPath
       id="clipPath24"
       clipPathUnits="userSpaceOnUse"><path
         id="path22"
         d="M 0,0 H 85 V 90 H 0 Z" /></clipPath></defs><g
     transform="matrix(1.3333333,0,0,-1.3333333,0,120)"
     id="g10"><g
       id="g12" /><g
       id="g14" /><g
       id="g16"><g
         id="g18"><g
           clip-path="url(#clipPath24)"
           id="g20"><g
             id="g26" /><g
             id="g28"><path
               id="path30"
               style="fill:#bfbfbf;fill-opacity:1;fill-rule:nonzero;stroke:#000000;stroke-width:1;stroke-linecap:butt;stroke-linejoin:miter;stroke-miterlimit:4;stroke-dasharray:none;stroke-opacity:1"
               d="m 42.625004,46.689999 c -22.728003,0 -41.1540039,-2.658997 -41.1540039,-5.939999 0,-3.280003 18.4260009,-5.940002 41.1540039,-5.940002 22.728,0 41.154003,2.659999 41.154003,5.940002 0,3.281002 -18.426003,5.939999 -41.154003,5.939999 z" /><path
               id="path32"
               style="fill:#ffffff;fill-opacity:1;fill-rule:nonzero;stroke:#000000;stroke-width:1;stroke-linecap:butt;stroke-linejoin:miter;stroke-miterlimit:4;stroke-dasharray:none;stroke-opacity:1"
               d="m 42.526001,50.039997 c -22.728001,0 -41.1540009,-2.66 -41.1540009,-5.939995 C 1.3720001,40.82 19.798,38.16 42.526001,38.16 65.255005,38.16 83.68,40.82 83.68,44.100002 c 0,3.279995 -18.424995,5.939995 -41.153999,5.939995 z" /><path
               id="path34"
               style="fill:none;stroke:#000000;stroke-width:0.5;stroke-linecap:butt;stroke-linejoin:miter;stroke-miterlimit:4;stroke-dasharray:none;stroke-opacity:1"
               d="M 42.526001,0.29900002 V 37.799999" /><path
               id="path36"
               style="fill:none;stroke:#000000;stroke-width:0.5;stroke-linecap:butt;stroke-linejoin:miter;stroke-miterlimit:4;stroke-dasharray:none;stroke-opacity:1"
               d="M 42.526001,44.700001 V 89.700005" /><text
               id="text40"
               style="font-variant:normal;font-weight:normal;font-size:9px;font-family:Times;-inkscape-font-specification:Times-Roman;writing-mode:lr-tb;fill:#000000;fill-opacity:1;fill-rule:nonzero;stroke:none"
               transform="matrix(1,0,0,-1,34.612499,41.989899)"><tspan
                 id="tspan38"
                 y="0"
                 x="0">O</tspan></text>
<path
               id="path42"
               style="fill:none;stroke:#000000;stroke-width:0.5;stroke-linecap:butt;stroke-linejoin:miter;stroke-miterlimit:4;stroke-dasharray:none;stroke-opacity:1"
               d="m 34.782001,58.797005 c -2.212001,-0.355004 -3.596,-0.861 -3.596,-1.422001 0,-1.074001 5.066002,-1.945004 11.313999,-1.945004 6.248001,0 11.314003,0.871003 11.314003,1.945004 0,0.639999 -1.798,1.207001 -4.572002,1.562" /><path
               id="path44"
               style="fill:#000000;fill-opacity:1;fill-rule:nonzero;stroke:none"
               d="m 49.021004,58.821003 0.514999,-1.154999 -0.04,-0.02 -1.659,0.917999 c -0.591999,0.211998 -1.183998,0.424 -1.776001,0.635998 0.626003,0.056 1.252003,0.112003 1.878998,0.168003 l 1.836002,0.471001 0.035,-0.023 -0.789997,-0.994999" /><path
               id="path46"
               style="fill:#bfbfbf;fill-opacity:1;fill-rule:nonzero;stroke:#000000;stroke-width:1;stroke-linecap:butt;stroke-linejoin:miter;stroke-miterlimit:4;stroke-dasharray:none;stroke-opacity:1"
               d="M 1.3720001,44.100002 V 40.75" /><path
               id="path48"
               style="fill:#bfbfbf;fill-opacity:1;fill-rule:nonzero;stroke:#000000;stroke-width:1;stroke-linecap:butt;stroke-linejoin:miter;stroke-miterlimit:4;stroke-dasharray:none;stroke-opacity:1"
               d="M 83.625008,43.737003 V 40.388" /><path
               id="path50"
               style="fill:#bfbfbf;fill-opacity:1;fill-rule:nonzero;stroke:#bfbfbf;stroke-width:0.1;stroke-linecap:butt;stroke-linejoin:miter;stroke-miterlimit:4;stroke-dasharray:none;stroke-opacity:1"
               d="m 2.2710001,40.271004 -0.125,2.375 0.875,-0.625 -0.375,-1.625" /><path
               id="path52"
               style="fill:#bfbfbf;fill-opacity:1;fill-rule:nonzero;stroke:#bfbfbf;stroke-width:0.1;stroke-linecap:butt;stroke-linejoin:miter;stroke-miterlimit:4;stroke-dasharray:none;stroke-opacity:1"
               d="m 82.958,40.208 v 2.5 l -1.25,-1" /></g></g></g></g></g></svg>