<?xml version="1.0" encoding="UTF-8" standalone="no"?>
<svg
   xmlns:dc="http://purl.org/dc/elements/1.1/"
   xmlns:cc="http://creativecommons.org/ns#"
   xmlns:rdf="http://www.w3.org/1999/02/22-rdf-syntax-ns#"
   xmlns:svg="http://www.w3.org/2000/svg"
   xmlns="http://www.w3.org/2000/svg"
   viewBox="0 0 368 124"
   height="124"
   width="368"
   xml:space="preserve"
   id="svg2"
   version="1.1"><metadata
     id="metadata8"><rdf:RDF><cc:Work
         rdf:about=""><dc:format>image/svg+xml</dc:format><dc:type
           rdf:resource="http://purl.org/dc/dcmitype/StillImage" /></cc:Work></rdf:RDF></metadata><defs
     id="defs6"><clipPath
       id="clipPath24"
       clipPathUnits="userSpaceOnUse"><path
         id="path22"
         d="M 0,0 H 276 V 93 H 0 Z" /></clipPath></defs><g
     transform="matrix(1.3333333,0,0,-1.3333333,0,124)"
     id="g10"><g
       id="g12" /><g
       id="g14" /><g
       id="g16"><g
         id="g18"><g
           clip-path="url(#clipPath24)"
           id="g20"><g
             id="g26" /><g
             id="g28"><path
               id="path30"
               style="fill:none;stroke:#000000;stroke-width:1;stroke-linecap:butt;stroke-linejoin:miter;stroke-miterlimit:4;stroke-dasharray:none;stroke-opacity:1"
               d="m 138,0.625 v 29.000002 m -18.991,60.504003 c -8.56299,-1.261001 -14.182,-3.380004 -14.182,-5.781997 0,-3.866005 14.563,-7.000008 32.527,-7.000008 17.96401,0 32.52701,3.134003 32.52701,7.000008 0,1.932991 -3.64102,3.683998 -9.52701,4.949997" /><path
               id="path32"
               style="fill:#000000;fill-opacity:1;fill-rule:nonzero;stroke:none"
               d="m 160.96301,89.309998 1.021,-2.768998 -0.096,-0.03999 -3.722,2.392998 c -1.34601,0.583999 -2.69099,1.168999 -4.03699,1.752998 1.467,0.034 2.933,0.069 4.4,0.102997 l 4.35,0.813004 0.076,-0.058 L 160.96303,89.31" /><path
               id="path34"
               style="fill:#bfbfbf;fill-opacity:1;fill-rule:nonzero;stroke:#000000;stroke-width:1;stroke-linecap:butt;stroke-linejoin:miter;stroke-miterlimit:4;stroke-dasharray:none;stroke-opacity:1"
               d="M 138,64.487 C 62.239002,64.487 0.82100004,55.622002 0.82100004,44.688004 0.82100004,33.753002 62.239002,24.889002 138,24.889002 c 75.76102,0 137.17902,8.864 137.17902,19.799002 C 275.17902,55.622002 213.76102,64.487 138,64.487 Z" /><path
               id="path36"
               style="fill:#ffffff;fill-opacity:1;fill-rule:nonzero;stroke:#000000;stroke-width:1;stroke-linecap:butt;stroke-linejoin:miter;stroke-miterlimit:4;stroke-dasharray:none;stroke-opacity:1"
               d="m 138,70.424004 c -75.760998,0 -137.17899996,-8.864006 -137.17899996,-19.799 C 0.82100004,39.691002 62.239002,30.826002 138,30.826002 c 75.76102,0 137.17902,8.865 137.17902,19.799002 0,10.934994 -61.418,19.799 -137.17902,19.799 z" /><path
               id="path38"
               style="fill:#bfbfbf;fill-opacity:1;fill-rule:nonzero;stroke:#000000;stroke-width:1;stroke-linecap:butt;stroke-linejoin:miter;stroke-miterlimit:4;stroke-dasharray:none;stroke-opacity:1"
               d="m 0.82100004,50.625004 v -5.937" /><path
               id="path40"
               style="fill:#bfbfbf;fill-opacity:1;fill-rule:nonzero;stroke:#bfbfbf;stroke-width:0.1;stroke-linecap:butt;stroke-linejoin:miter;stroke-miterlimit:4;stroke-dasharray:none;stroke-opacity:1"
               d="M 1.1040001,48.167004 2.7710001,46 1.271,44 1.419,47.069004" /><path
               id="path42"
               style="fill:#bfbfbf;fill-opacity:1;fill-rule:nonzero;stroke:#000000;stroke-width:1;stroke-linecap:butt;stroke-linejoin:miter;stroke-miterlimit:4;stroke-dasharray:none;stroke-opacity:1"
               d="m 275.17902,50.625004 v -5.937" /><path
               id="path44"
               style="fill:#bfbfbf;fill-opacity:1;fill-rule:nonzero;stroke:#bfbfbf;stroke-width:0.1;stroke-linecap:butt;stroke-linejoin:miter;stroke-miterlimit:4;stroke-dasharray:none;stroke-opacity:1"
               d="m 274.5,47.958004 -1.16699,-1.333 1.33401,-2.333 z" /><path
               id="path46"
               style="fill:#000000;fill-opacity:1;fill-rule:nonzero;stroke:none"
               d="m 209.51801,36.556004 -1.319,3.104999 0.106,0.05 4.382,-2.522998 c 1.569,-0.593003 3.138,-1.185002 4.707,-1.777001 -1.673,-0.121002 -3.345,-0.242 -5.018,-0.363003 l -4.91899,-1.170997 -0.091,0.063 2.152,2.616005" /><path
               id="path48"
               style="fill:none;stroke:#000000;stroke-width:0.5;stroke-linecap:butt;stroke-linejoin:miter;stroke-miterlimit:4;stroke-dasharray:none;stroke-opacity:1"
               d="M 138.20401,92.625008 V 50.712002 l 78.799,-15.599999" /><text
               id="text52"
               style="font-variant:normal;font-weight:normal;font-size:11.95500088px;font-family:CMMI12;-inkscape-font-specification:CMMI12;writing-mode:lr-tb;fill:#231f20;fill-opacity:1;fill-rule:nonzero;stroke:none"
               transform="matrix(1,0,0,-1,126.8538,47.3927)"><tspan
                 id="tspan50"
                 y="0"
                 x="0">O</tspan></text>
<path
               id="path54"
               style="fill:none;stroke:#000000;stroke-width:1;stroke-linecap:butt;stroke-linejoin:miter;stroke-miterlimit:4;stroke-dasharray:3, 3, 3, 3, 3, 3;stroke-dashoffset:0;stroke-opacity:1"
               d="M 138,50.625004 V 33.625" /><text
               id="text58"
               style="font-variant:normal;font-weight:normal;font-size:11.95500088px;font-family:CMMI12;-inkscape-font-specification:CMMI12;writing-mode:lr-tb;fill:#231f20;fill-opacity:1;fill-rule:nonzero;stroke:none"
               transform="matrix(1,0,0,-1,178,45.625004)"><tspan
                 id="tspan56"
                 y="0"
                 x="0">a</tspan></text>
</g></g></g></g></g></svg>