<?xml version="1.0" encoding="UTF-8" standalone="no"?>
<svg
   xmlns:dc="http://purl.org/dc/elements/1.1/"
   xmlns:cc="http://creativecommons.org/ns#"
   xmlns:rdf="http://www.w3.org/1999/02/22-rdf-syntax-ns#"
   xmlns:svg="http://www.w3.org/2000/svg"
   xmlns="http://www.w3.org/2000/svg"
   viewBox="0 0 476 149.33333"
   height="149.33333"
   width="476"
   xml:space="preserve"
   id="svg2"
   version="1.1"><metadata
     id="metadata8"><rdf:RDF><cc:Work
         rdf:about=""><dc:format>image/svg+xml</dc:format><dc:type
           rdf:resource="http://purl.org/dc/dcmitype/StillImage" /></cc:Work></rdf:RDF></metadata><defs
     id="defs6"><clipPath
       id="clipPath24"
       clipPathUnits="userSpaceOnUse"><path
         id="path22"
         d="M 0,0 H 357 V 112 H 0 Z" /></clipPath><clipPath
       id="clipPath34"
       clipPathUnits="userSpaceOnUse"><path
         id="path32"
         d="M 0.06,0 H 356.5 V 111.17901 H 0.06 Z" /></clipPath><clipPath
       id="clipPath52"
       clipPathUnits="userSpaceOnUse"><path
         id="path50"
         d="M 0.06,0 H 356.5 V 111.17901 H 0.06 Z" /></clipPath><clipPath
       id="clipPath112"
       clipPathUnits="userSpaceOnUse"><path
         id="path110"
         d="M 0.06,0 H 356.5 V 111.17901 H 0.06 Z" /></clipPath></defs><g
     transform="matrix(1.3333333,0,0,-1.3333333,0,149.33333)"
     id="g10"><g
       id="g12" /><g
       id="g14" /><g
       id="g16"><g
         id="g18"><g
           clip-path="url(#clipPath24)"
           id="g20"><g
             id="g26" /><g
             id="g28"><g
               clip-path="url(#clipPath34)"
               id="g30"><path
                 id="path36"
                 style="fill:none;stroke:#231f20;stroke-width:1;stroke-linecap:butt;stroke-linejoin:miter;stroke-miterlimit:4;stroke-dasharray:none;stroke-opacity:1"
                 d="m 48.469002,64.349007 c 0,-13.243004 -3.883,-23.980004 -8.673001,-23.980004 -4.79,0 -8.673,10.737 -8.673,23.980004 0,13.243995 3.883,23.979995 8.673,23.979995 4.790001,0 8.673001,-10.736 8.673001,-23.979995 z M 82.666,64.485001 c 0,-13.244 -3.882995,-23.98 -8.672996,-23.98 -4.790001,0 -8.674004,10.736 -8.674004,23.98 0,13.244003 3.884003,23.980003 8.674004,23.980003 4.790001,0 8.672996,-10.736 8.672996,-23.980003 z m -8.666999,-0.666996 c 0,-13.243004 -3.882996,-23.979004 -8.672997,-23.979004 -4.790001,0 -8.674,10.736 -8.674,23.979004 0,13.243999 3.883999,23.979999 8.674,23.979999 4.790001,0 8.672997,-10.736 8.672997,-23.979999 z m -8.659996,0.313999 c 0,-13.244 -3.882,-23.980004 -8.672001,-23.980004 -4.791001,0 -8.674,10.736004 -8.674,23.980004 0,13.244003 3.882999,23.980003 8.674,23.980003 4.790001,0 8.672001,-10.736 8.672001,-23.980003 z m -8.673001,0.352997 c 0,-13.244 -3.883003,-23.98 -8.673,-23.98 -4.790001,0 -8.674004,10.736 -8.674004,23.98 0,13.244003 3.884003,23.980003 8.674004,23.980003 4.789997,0 8.673,-10.736 8.673,-23.980003 z m 34.135998,-0.135994 c 0,-13.243004 -3.882996,-23.980004 -8.672997,-23.980004 -4.79,0 -8.673004,10.737 -8.673004,23.980004 0,13.243995 3.883004,23.979995 8.673004,23.979995 4.790001,0 8.672997,-10.736 8.672997,-23.979995 z M 125,64.485001 c 0,-13.244 -3.883,-23.98 -8.673,-23.98 -4.79,0 -8.67399,10.736 -8.67399,23.98 0,13.244003 3.88399,23.980003 8.67399,23.980003 4.79,0 8.673,-10.736 8.673,-23.980003 z m -8.66699,-0.666996 c 0,-13.243004 -3.88301,-23.979004 -8.67301,-23.979004 -4.79,0 -8.674992,10.736 -8.674992,23.979004 0,13.243999 3.884992,23.979999 8.674992,23.979999 4.79,0 8.67301,-10.736 8.67301,-23.979999 z M 107.673,64.132004 C 107.673,50.888004 103.79,40.152 99,40.152 c -4.790993,0 -8.673996,10.736004 -8.673996,23.980004 0,13.244003 3.883003,23.980003 8.673996,23.980003 4.79,0 8.673,-10.736 8.673,-23.980003 z m -8.673992,0.352997 c 0,-13.244 -3.883003,-23.98 -8.673004,-23.98 -4.790001,0 -8.674004,10.736 -8.674004,23.98 0,13.244003 3.884003,23.980003 8.674004,23.980003 4.790001,0 8.673004,-10.736 8.673004,-23.980003 z M 125,64.819 h 29 m -154,0 h 31.123001" /></g></g><g
             id="g38"><path
               id="path40"
               style="fill:#231f20;fill-opacity:1;fill-rule:nonzero;stroke:none"
               d="m 15.193001,65.169998 -2.191,3.603005 0.123,0.081 L 19,66.521004 c 2.047001,-0.449997 4.094002,-0.901009 6.141001,-1.351006 C 23.094002,64.719002 21.047001,64.269005 19,63.819004 l -5.874999,-2.334 -0.123,0.062 2.191,3.622993" /><path
               id="path42"
               style="fill:#231f20;fill-opacity:1;fill-rule:nonzero;stroke:none"
               d="m 135.69301,64.669998 -2.19,3.603005 0.123,0.081 5.87399,-2.333 c 2.04701,-0.449997 4.095,-0.901009 6.14201,-1.351006 C 143.595,64.22 141.54701,63.769004 139.5,63.319003 l -5.87399,-2.334 -0.123,0.062 2.19,3.622993" /><path
               id="path44"
               style="fill:#231f20;fill-opacity:1;fill-rule:nonzero;stroke:none"
               d="m 296,66.319 h 60.5" /></g><g
             id="g46"><g
               clip-path="url(#clipPath52)"
               id="g48"><path
                 id="path54"
                 style="fill:none;stroke:#231f20;stroke-width:1;stroke-linecap:butt;stroke-linejoin:miter;stroke-miterlimit:4;stroke-dasharray:none;stroke-opacity:1"
                 d="m 296,66.319 h 60.5" /></g></g><g
             id="g56"><path
               id="path58"
               style="fill:#231f20;fill-opacity:1;fill-rule:nonzero;stroke:none"
               d="M 215.5,66.319 H 280" /><path
               id="path60"
               style="fill:none;stroke:#231f20;stroke-width:1;stroke-linecap:butt;stroke-linejoin:miter;stroke-miterlimit:4;stroke-dasharray:none;stroke-opacity:1"
               d="M 215.5,66.319 H 280" /><path
               id="path62"
               style="fill:#231f20;fill-opacity:1;fill-rule:nonzero;stroke:none"
               d="M 280,93.319008 V 41.319" /><path
               id="path64"
               style="fill:none;stroke:#231f20;stroke-width:2;stroke-linecap:butt;stroke-linejoin:miter;stroke-miterlimit:4;stroke-dasharray:none;stroke-opacity:1"
               d="M 280,93.319008 V 41.319" /><path
               id="path66"
               style="fill:#231f20;fill-opacity:1;fill-rule:nonzero;stroke:none"
               d="M 295.5,93.819008 V 41.819" /><path
               id="path68"
               style="fill:none;stroke:#231f20;stroke-width:2;stroke-linecap:butt;stroke-linejoin:miter;stroke-miterlimit:4;stroke-dasharray:none;stroke-opacity:1"
               d="M 295.5,93.819008 V 41.819" /><path
               id="path70"
               style="fill:#231f20;fill-opacity:1;fill-rule:nonzero;stroke:none"
               d="m 235.69402,66.669998 -2.19201,3.603005 0.124,0.081 5.87399,-2.333 c 2.04701,-0.449997 4.09401,-0.901009 6.14101,-1.351006 -2.047,-0.450996 -4.094,-0.900993 -6.14101,-1.350998 l -5.87399,-2.333996 -0.124,0.062 2.19201,3.622993" /><text
               id="text74"
               style="font-variant:normal;font-weight:normal;font-size:11.95500088px;font-family:CMMI12;-inkscape-font-specification:CMMI12;writing-mode:lr-tb;fill:#231f20;fill-opacity:1;fill-rule:nonzero;stroke:none"
               transform="matrix(1,0,0,-1,68.333,24.2127)"><tspan
                 id="tspan72"
                 y="0"
                 x="0">L</tspan></text>
<text
               id="text78"
               style="font-variant:normal;font-weight:normal;font-size:11.95500088px;font-family:CMMI12;-inkscape-font-specification:CMMI12;writing-mode:lr-tb;fill:#231f20;fill-opacity:1;fill-rule:nonzero;stroke:none"
               transform="matrix(1,0,0,-1,5.9996228,73.319061)"><tspan
                 id="tspan76"
                 y="0"
                 x="0">i</tspan></text>
<text
               id="text82"
               style="font-variant:normal;font-weight:normal;font-size:11.95500088px;font-family:CMMI12;-inkscape-font-specification:CMMI12;writing-mode:lr-tb;fill:#231f20;fill-opacity:1;fill-rule:nonzero;stroke:none"
               transform="matrix(1,0,0,-1,264.9234,36.213131)"><tspan
                 id="tspan80"
                 y="0"
                 x="0">C</tspan></text>
<text
               id="text86"
               style="font-variant:normal;font-weight:normal;font-size:11.95500088px;font-family:CMMI12;-inkscape-font-specification:CMMI12;writing-mode:lr-tb;fill:#231f20;fill-opacity:1;fill-rule:nonzero;stroke:none"
               transform="matrix(1,0,0,-1,235.69821,73.212662)"><tspan
                 id="tspan84"
                 y="0"
                 x="0">i</tspan></text>
<path
               id="path88"
               style="fill:#231f20;fill-opacity:1;fill-rule:nonzero;stroke:none"
               d="M 256.5,103.31901 H 314" /><path
               id="path90"
               style="fill:none;stroke:#231f20;stroke-width:1;stroke-linecap:butt;stroke-linejoin:miter;stroke-miterlimit:4;stroke-dasharray:none;stroke-opacity:1"
               d="M 256.5,103.31901 H 314" /><path
               id="path92"
               style="fill:#231f20;fill-opacity:1;fill-rule:nonzero;stroke:none"
               d="m 316.36203,104.344 c -1.65204,0.499 -2.72803,0.959 -4.05402,1.49101 v -5.044 c 0.47501,0.225 2.40198,0.99199 4.05402,1.49199 1.76898,0.534 3.375,0.90001 4.41498,1.03 -1.03998,0.13101 -2.646,0.49601 -4.41498,1.031" /><path
               id="path94"
               style="fill:#231f20;fill-opacity:1;fill-rule:nonzero;stroke:none"
               d="m 254.13901,102.29401 c 1.653,-0.5 2.72799,-0.96 4.05401,-1.49201 v 5.04401 c -0.475,-0.22501 -2.40101,-0.99201 -4.05401,-1.49101 -1.76901,-0.535 -3.374,-0.901 -4.415,-1.03099 1.041,-0.13 2.64599,-0.49601 4.415,-1.03" /><path
               id="path96"
               style="fill:#231f20;fill-opacity:1;fill-rule:nonzero;stroke:none"
               d="M 46.5,104.81901 H 104" /><path
               id="path98"
               style="fill:none;stroke:#231f20;stroke-width:1;stroke-linecap:butt;stroke-linejoin:miter;stroke-miterlimit:4;stroke-dasharray:none;stroke-opacity:1"
               d="M 46.5,104.81901 H 104" /><path
               id="path100"
               style="fill:#231f20;fill-opacity:1;fill-rule:nonzero;stroke:none"
               d="m 106.36201,105.844 c -1.653,0.499 -2.72801,0.959 -4.054,1.49101 v -5.044 c 0.47499,0.225 2.401,0.99199 4.054,1.49199 1.76899,0.534 3.375,0.90001 4.415,1.03 -1.04,0.13101 -2.64601,0.49601 -4.415,1.031" /><path
               id="path102"
               style="fill:#231f20;fill-opacity:1;fill-rule:nonzero;stroke:none"
               d="m 44.139004,103.79401 c 1.653,-0.5 2.726997,-0.96 4.052997,-1.49201 v 5.04401 C 47.718002,107.121 45.792004,106.354 44.139004,105.855 c -1.770001,-0.535 -3.374001,-0.901 -4.415001,-1.03099 1.041,-0.13 2.645,-0.49601 4.415001,-1.03" /><path
               id="path104"
               style="fill:#ffffff;fill-opacity:1;fill-rule:nonzero;stroke:none"
               d="m 65,110.31901 h 17.5 v -10 H 65 Z" /></g><g
             id="g106"><g
               clip-path="url(#clipPath112)"
               id="g108"><path
                 id="path114"
                 style="fill:none;stroke:#ffffff;stroke-width:1;stroke-linecap:butt;stroke-linejoin:miter;stroke-miterlimit:4;stroke-dasharray:none;stroke-opacity:1"
                 d="m 65,110.31901 h 17.5 v -10 H 65 Z" /></g></g><g
             id="g116"><path
               id="path118"
               style="fill:#ffffff;fill-opacity:1;fill-rule:nonzero;stroke:none"
               d="m 279,107.81901 h 17.5 v -10 H 279 Z" /><path
               id="path120"
               style="fill:none;stroke:#ffffff;stroke-width:1;stroke-linecap:butt;stroke-linejoin:miter;stroke-miterlimit:4;stroke-dasharray:none;stroke-opacity:1"
               d="m 279,107.81901 h 17.5 V 97.819008 H 279 Z" /><text
               id="text124"
               style="font-variant:normal;font-weight:normal;font-size:11.95500088px;font-family:CMMI12;-inkscape-font-specification:CMMI12;writing-mode:lr-tb;fill:#231f20;fill-opacity:1;fill-rule:nonzero;stroke:none"
               transform="matrix(1,0,0,-1,70.842796,102.2127)"><tspan
                 id="tspan122"
                 y="0"
                 x="0">v</tspan></text>
<text
               id="text128"
               style="font-variant:normal;font-weight:normal;font-size:11.95500088px;font-family:CMMI12;-inkscape-font-specification:CMMI12;writing-mode:lr-tb;fill:#231f20;fill-opacity:1;fill-rule:nonzero;stroke:none"
               transform="matrix(1,0,0,-1,284.84329,100.71235)"><tspan
                 id="tspan126"
                 y="0"
                 x="0">v</tspan></text>
<text
               id="text132"
               style="font-variant:normal;font-weight:normal;font-size:11.95500088px;font-family:CMSS12;-inkscape-font-specification:CMSS12;writing-mode:lr-tb;fill:#231f20;fill-opacity:1;fill-rule:nonzero;stroke:none"
               transform="matrix(1,0,0,-1,67.999901,3.00174)"><tspan
                 id="tspan130"
                 y="0"
                 x="0 4.5429006 10.137841">(a)</tspan></text>
<text
               id="text136"
               style="font-variant:normal;font-weight:normal;font-size:11.95500088px;font-family:CMSS12;-inkscape-font-specification:CMSS12;writing-mode:lr-tb;fill:#231f20;fill-opacity:1;fill-rule:nonzero;stroke:none"
               transform="matrix(1,0,0,-1,279.51257,3.00174)"><tspan
                 id="tspan134"
                 y="0"
                 x="0 4.5429006 10.544311">(b)</tspan></text>
</g></g></g></g></g></svg>