<?xml version="1.0" encoding="UTF-8" standalone="no"?>
<svg
   xmlns:dc="http://purl.org/dc/elements/1.1/"
   xmlns:cc="http://creativecommons.org/ns#"
   xmlns:rdf="http://www.w3.org/1999/02/22-rdf-syntax-ns#"
   xmlns:svg="http://www.w3.org/2000/svg"
   xmlns="http://www.w3.org/2000/svg"
   viewBox="0 0 317.33334 173.33333"
   height="173.33333"
   width="317.33334"
   xml:space="preserve"
   id="svg2"
   version="1.1"><metadata
     id="metadata8"><rdf:RDF><cc:Work
         rdf:about=""><dc:format>image/svg+xml</dc:format><dc:type
           rdf:resource="http://purl.org/dc/dcmitype/StillImage" /></cc:Work></rdf:RDF></metadata><defs
     id="defs6"><clipPath
       id="clipPath24"
       clipPathUnits="userSpaceOnUse"><path
         id="path22"
         d="M 0,0 H 238 V 130 H 0 Z" /></clipPath><clipPath
       id="clipPath82"
       clipPathUnits="userSpaceOnUse"><path
         id="path80"
         d="M 0.06,0 H 237.24999 V 129.65401 H 0.06 Z" /></clipPath><clipPath
       id="clipPath138"
       clipPathUnits="userSpaceOnUse"><path
         id="path136"
         d="M 0.06,0 H 237.24999 V 129.65401 H 0.06 Z" /></clipPath><clipPath
       id="clipPath156"
       clipPathUnits="userSpaceOnUse"><path
         id="path154"
         d="M 0.06,0 H 237.24999 V 129.65401 H 0.06 Z" /></clipPath></defs><g
     transform="matrix(1.3333333,0,0,-1.3333333,0,173.33333)"
     id="g10"><g
       id="g12" /><g
       id="g14" /><g
       id="g16"><g
         id="g18"><g
           clip-path="url(#clipPath24)"
           id="g20"><g
             id="g26" /><g
             id="g28"><path
               id="path30"
               style="fill:#ffffff;fill-opacity:1;fill-rule:nonzero;stroke:none"
               d="M 16.928001,118.6 H 232.52801 V 25.500002 H 16.928001 Z" /><path
               id="path32"
               style="fill:none;stroke:#231f20;stroke-width:1;stroke-linecap:butt;stroke-linejoin:miter;stroke-miterlimit:4;stroke-dasharray:none;stroke-opacity:1"
               d="M 16.928001,118.6 H 232.52802 V 25.5 H 16.928001 Z" /><path
               id="path34"
               style="fill:#ffffff;fill-opacity:1;fill-rule:nonzero;stroke:none"
               d="M 152.729,26.200001 V 118.6" /><path
               id="path36"
               style="fill:none;stroke:#231f20;stroke-width:1;stroke-linecap:butt;stroke-linejoin:miter;stroke-miterlimit:4;stroke-dasharray:none;stroke-opacity:1"
               d="M 152.729,26.200001 V 118.6" /><path
               id="path38"
               style="fill:#231f20;fill-opacity:1;fill-rule:nonzero;stroke:none"
               d="m 155.87801,118.95 c 0,-1.73899 -1.41001,-3.15 -3.14901,-3.15 -1.73999,0 -3.14999,1.41101 -3.14999,3.15 0,1.73999 1.41,3.15 3.14999,3.15 1.739,0 3.14901,-1.41001 3.14901,-3.15" /><path
               id="path40"
               style="fill:none;stroke:#231f20;stroke-width:1;stroke-linecap:butt;stroke-linejoin:miter;stroke-miterlimit:4;stroke-dasharray:none;stroke-opacity:1"
               d="m 155.87801,118.95 c 0,-1.73899 -1.41001,-3.15 -3.14901,-3.15 -1.73999,0 -3.14999,1.41101 -3.14999,3.15 0,1.73999 1.41,3.15 3.14999,3.15 1.739,0 3.14901,-1.41001 3.14901,-3.15 z" /><path
               id="path42"
               style="fill:#ffffff;fill-opacity:1;fill-rule:nonzero;stroke:none"
               d="m 234.979,25.849998 c 0,-1.739999 -1.40998,-3.149997 -3.14999,-3.149997 -1.741,0 -3.151,1.409998 -3.151,3.149997 0,1.740002 1.41,3.150002 3.151,3.150002 1.74001,0 3.14999,-1.41 3.14999,-3.150002" /><path
               id="path44"
               style="fill:none;stroke:#231f20;stroke-width:1;stroke-linecap:butt;stroke-linejoin:miter;stroke-miterlimit:4;stroke-dasharray:none;stroke-opacity:1"
               d="m 234.979,25.849998 c 0,-1.739999 -1.40998,-3.149997 -3.14999,-3.149997 -1.741,0 -3.151,1.409998 -3.151,3.149997 0,1.740002 1.41,3.150002 3.151,3.150002 1.74001,0 3.14999,-1.41 3.14999,-3.150002 z" /><path
               id="path46"
               style="fill:#ffffff;fill-opacity:1;fill-rule:nonzero;stroke:none"
               d="m 20.078001,26.549999 c 0,-1.74 -1.41,-3.149999 -3.15,-3.149999 -1.74,0 -3.151001,1.409999 -3.151001,3.149999 0,1.74 1.411001,3.150002 3.151001,3.150002 1.74,0 3.15,-1.410002 3.15,-3.150002" /><path
               id="path48"
               style="fill:none;stroke:#231f20;stroke-width:1;stroke-linecap:butt;stroke-linejoin:miter;stroke-miterlimit:4;stroke-dasharray:none;stroke-opacity:1"
               d="m 20.078001,26.549999 c 0,-1.74 -1.41,-3.149999 -3.15,-3.149999 -1.74,0 -3.151001,1.409999 -3.151001,3.149999 0,1.74 1.411001,3.150002 3.151001,3.150002 1.74,0 3.15,-1.410002 3.15,-3.150002 z" /><path
               id="path50"
               style="fill:#ffffff;fill-opacity:1;fill-rule:nonzero;stroke:none"
               d="m 234.979,118.25 c 0,-1.74001 -1.40998,-3.15 -3.14999,-3.15 -1.741,0 -3.151,1.40999 -3.151,3.15 0,1.74 1.41,3.15101 3.151,3.15101 1.74001,0 3.14999,-1.41101 3.14999,-3.15101" /><path
               id="path52"
               style="fill:none;stroke:#231f20;stroke-width:1;stroke-linecap:butt;stroke-linejoin:miter;stroke-miterlimit:4;stroke-dasharray:none;stroke-opacity:1"
               d="m 234.979,118.25 c 0,-1.74001 -1.40998,-3.15 -3.14999,-3.15 -1.741,0 -3.151,1.40999 -3.151,3.15 0,1.74 1.41,3.15101 3.151,3.15101 1.74001,0 3.14999,-1.41101 3.14999,-3.15101 z" /><path
               id="path54"
               style="fill:#ffffff;fill-opacity:1;fill-rule:nonzero;stroke:none"
               d="m 20.428001,118.25 c 0,-1.74001 -1.409999,-3.15 -3.151001,-3.15 -1.738999,0 -3.149,1.40999 -3.149,3.15 0,1.74 1.410001,3.15101 3.149,3.15101 1.741002,0 3.151001,-1.41101 3.151001,-3.15101" /><path
               id="path56"
               style="fill:none;stroke:#231f20;stroke-width:1;stroke-linecap:butt;stroke-linejoin:miter;stroke-miterlimit:4;stroke-dasharray:none;stroke-opacity:1"
               d="m 20.428001,118.25 c 0,-1.74001 -1.409999,-3.15 -3.151001,-3.15 -1.738999,0 -3.149,1.40999 -3.149,3.15 0,1.74 1.410001,3.15101 3.149,3.15101 1.741002,0 3.151001,-1.41101 3.151001,-3.15101 z" /><path
               id="path58"
               style="fill:#231f20;fill-opacity:1;fill-rule:nonzero;stroke:none"
               d="m 155.87801,26.549999 c 0,-1.74 -1.41001,-3.149999 -3.14901,-3.149999 -1.73999,0 -3.14999,1.409999 -3.14999,3.149999 0,1.74 1.41,3.150002 3.14999,3.150002 1.739,0 3.14901,-1.410002 3.14901,-3.150002" /><path
               id="path60"
               style="fill:none;stroke:#231f20;stroke-width:1;stroke-linecap:butt;stroke-linejoin:miter;stroke-miterlimit:4;stroke-dasharray:none;stroke-opacity:1"
               d="m 155.87801,26.549999 c 0,-1.74 -1.41001,-3.149999 -3.14901,-3.149999 -1.73999,0 -3.14999,1.409999 -3.14999,3.149999 0,1.74 1.41,3.150002 3.14999,3.150002 1.739,0 3.14901,-1.410002 3.14901,-3.150002 z" /><path
               id="path62"
               style="fill:#231f20;fill-opacity:1;fill-rule:nonzero;stroke:none"
               d="m 83.078003,26.200001 c 0,-1.740002 -1.409996,-3.150002 -3.150002,-3.150002 -1.739997,0 -3.151001,1.41 -3.151001,3.150002 0,1.739998 1.411004,3.149997 3.151001,3.149997 1.740006,0 3.150002,-1.409999 3.150002,-3.149997" /><path
               id="path64"
               style="fill:none;stroke:#231f20;stroke-width:1;stroke-linecap:butt;stroke-linejoin:miter;stroke-miterlimit:4;stroke-dasharray:none;stroke-opacity:1"
               d="m 83.078003,26.200001 c 0,-1.740002 -1.409996,-3.150002 -3.150002,-3.150002 -1.739997,0 -3.151001,1.41 -3.151001,3.150002 0,1.739998 1.411004,3.149997 3.151001,3.149997 1.740006,0 3.150002,-1.409999 3.150002,-3.149997 z" /><path
               id="path66"
               style="fill:#231f20;fill-opacity:1;fill-rule:nonzero;stroke:none"
               d="m 70.082001,8.5 h 20" /><path
               id="path68"
               style="fill:none;stroke:#231f20;stroke-width:1;stroke-linecap:butt;stroke-linejoin:miter;stroke-miterlimit:4;stroke-dasharray:none;stroke-opacity:1"
               d="m 70.082001,8.5 h 20" /><path
               id="path70"
               style="fill:#231f20;fill-opacity:1;fill-rule:nonzero;stroke:none"
               d="m 74.082001,4.5 h 12" /><path
               id="path72"
               style="fill:none;stroke:#231f20;stroke-width:1;stroke-linecap:butt;stroke-linejoin:miter;stroke-miterlimit:4;stroke-dasharray:none;stroke-opacity:1"
               d="m 74.082001,4.5 h 12" /><path
               id="path74"
               style="fill:#231f20;fill-opacity:1;fill-rule:nonzero;stroke:none"
               d="m 78.082001,0.5 h 3" /></g><g
             id="g76"><g
               clip-path="url(#clipPath82)"
               id="g78"><path
                 id="path84"
                 style="fill:none;stroke:#231f20;stroke-width:1;stroke-linecap:butt;stroke-linejoin:miter;stroke-miterlimit:4;stroke-dasharray:none;stroke-opacity:1"
                 d="m 78.082001,0.5 h 3" /></g></g><g
             id="g86"><path
               id="path88"
               style="fill:#231f20;fill-opacity:1;fill-rule:nonzero;stroke:none"
               d="M 79.928001,26.200001 V 9.5" /><path
               id="path90"
               style="fill:none;stroke:#231f20;stroke-width:1;stroke-linecap:butt;stroke-linejoin:miter;stroke-miterlimit:4;stroke-dasharray:none;stroke-opacity:1"
               d="M 79.928001,26.200001 V 9.5" /><text
               id="text94"
               style="font-variant:normal;font-weight:normal;font-size:11.95500088px;font-family:CMMI12;-inkscape-font-specification:CMMI12;writing-mode:lr-tb;fill:#231f20;fill-opacity:1;fill-rule:nonzero;stroke:none"
               transform="matrix(1,0,0,-1,0,74.500198)"><tspan
                 id="tspan92"
                 y="0"
                 x="0">v</tspan></text>
<text
               id="text98"
               style="font-variant:normal;font-weight:normal;font-size:7.96999979px;font-family:CMMI8;-inkscape-font-specification:CMMI8;writing-mode:lr-tb;fill:#231f20;fill-opacity:1;fill-rule:nonzero;stroke:none"
               transform="matrix(1,0,0,-1,5.6601996,72.707199)"><tspan
                 id="tspan96"
                 y="0"
                 x="0 2.8771698">in</tspan></text>
<path
               id="path100"
               style="fill:#231f20;fill-opacity:1;fill-rule:nonzero;stroke:none"
               d="m 24.082001,118.5 h 29" /><path
               id="path102"
               style="fill:none;stroke:#231f20;stroke-width:0.69999999;stroke-linecap:butt;stroke-linejoin:miter;stroke-miterlimit:4;stroke-dasharray:none;stroke-opacity:1"
               d="m 24.082001,118.5 h 29" /><path
               id="path104"
               style="fill:#231f20;fill-opacity:1;fill-rule:nonzero;stroke:none"
               d="m 28.363001,119.76701 c -1.504999,0.455 -2.482,0.874 -3.688999,1.359 V 116.535 c 0.430999,0.206 2.184,0.903 3.688999,1.35701 1.612001,0.487 3.072,0.82 4.018,0.93798 -0.946,0.11902 -2.405999,0.45202 -4.018,0.93702" /><path
               id="path106"
               style="fill:#231f20;fill-opacity:1;fill-rule:nonzero;stroke:none"
               d="m 132.08301,78.834007 h 43" /><path
               id="path108"
               style="fill:none;stroke:#231f20;stroke-width:2;stroke-linecap:butt;stroke-linejoin:miter;stroke-miterlimit:4;stroke-dasharray:none;stroke-opacity:1"
               d="m 132.08301,78.834007 h 43" /><path
               id="path110"
               style="fill:#231f20;fill-opacity:1;fill-rule:nonzero;stroke:none"
               d="m 132.41701,64.167 h 43" /><path
               id="path112"
               style="fill:none;stroke:#231f20;stroke-width:2;stroke-linecap:butt;stroke-linejoin:miter;stroke-miterlimit:4;stroke-dasharray:none;stroke-opacity:1"
               d="m 132.41701,64.167 h 43" /><path
               id="path114"
               style="fill:#ffffff;fill-opacity:1;fill-rule:nonzero;stroke:none"
               d="m 141.08301,76.5 h 22 v -10 h -22 z" /><path
               id="path116"
               style="fill:none;stroke:#ffffff;stroke-width:2;stroke-linecap:butt;stroke-linejoin:miter;stroke-miterlimit:4;stroke-dasharray:none;stroke-opacity:1"
               d="m 141.08301,76.5 h 22 v -10 h -22 z" /><text
               id="text120"
               style="font-variant:normal;font-weight:normal;font-size:11.95500088px;font-family:CMMI12;-inkscape-font-specification:CMMI12;writing-mode:lr-tb;fill:#231f20;fill-opacity:1;fill-rule:nonzero;stroke:none"
               transform="matrix(1,0,0,-1,117.245,65.500198)"><tspan
                 id="tspan118"
                 y="0"
                 x="0">C</tspan></text>
<path
               id="path122"
               style="fill:#ffffff;fill-opacity:1;fill-rule:nonzero;stroke:none"
               d="m 38.895,126.634 h 29.399006 v -16.8 H 38.895 Z" /><path
               id="path124"
               style="fill:none;stroke:#231f20;stroke-width:1;stroke-linecap:butt;stroke-linejoin:miter;stroke-miterlimit:4;stroke-dasharray:none;stroke-opacity:1"
               d="m 38.895,126.634 h 29.399006 v -16.8 H 38.895 Z" /><text
               id="text128"
               style="font-variant:normal;font-weight:normal;font-size:11.95500088px;font-family:CMMI12;-inkscape-font-specification:CMMI12;writing-mode:lr-tb;fill:#231f20;fill-opacity:1;fill-rule:nonzero;stroke:none"
               transform="matrix(1,0,0,-1,49.578098,113.83369)"><tspan
                 id="tspan126"
                 y="0"
                 x="0">R</tspan></text>
<path
               id="path130"
               style="fill:#ffffff;fill-opacity:1;fill-rule:nonzero;stroke:none"
               d="m 93.562004,126.967 h 29.399006 v -16.8 H 93.562004 Z" /></g><g
             id="g132"><g
               clip-path="url(#clipPath138)"
               id="g134"><path
                 id="path140"
                 style="fill:none;stroke:#ffffff;stroke-width:1;stroke-linecap:butt;stroke-linejoin:miter;stroke-miterlimit:4;stroke-dasharray:none;stroke-opacity:1"
                 d="m 93.562004,126.967 h 29.399006 v -16.8 H 93.562004 Z" /><path
                 id="path142"
                 style="fill:none;stroke:#231f20;stroke-width:1;stroke-linecap:butt;stroke-linejoin:miter;stroke-miterlimit:4;stroke-dasharray:none;stroke-opacity:1"
                 d="m 96.869003,119.51301 c 0,-5.29701 -1.553001,-9.592 -3.469001,-9.592 -1.915001,0 -3.467995,4.29499 -3.467995,9.592 0,5.29699 1.552994,9.592 3.467995,9.592 1.916,0 3.469001,-4.29501 3.469001,-9.592 z m 13.679997,0.054 c 0,-5.29701 -1.552,-9.592 -3.468,-9.592 -1.91599,0 -3.46999,4.29499 -3.46999,9.592 0,5.297 1.554,9.592 3.46999,9.592 1.916,0 3.468,-4.295 3.468,-9.592 z M 107.08301,119.3 c 0,-5.29699 -1.55301,-9.59099 -3.469,-9.59099 -1.916,0 -3.471,4.294 -3.471,9.59099 0,5.29801 1.555,9.59201 3.471,9.59201 1.91599,0 3.469,-4.294 3.469,-9.59201 z m -3.46401,0.126 c 0,-5.29799 -1.554,-9.59199 -3.469,-9.59199 -1.915999,0 -3.47,4.294 -3.47,9.59199 0,5.29801 1.554001,9.59201 3.47,9.59201 1.915,0 3.469,-4.294 3.469,-9.59201 z m -3.469,0.14101 c 0,-5.29701 -1.553992,-9.592 -3.47,-9.592 -1.915992,0 -3.468994,4.29499 -3.468994,9.592 0,5.297 1.553002,9.592 3.468994,9.592 1.916008,0 3.47,-4.295 3.47,-9.592 z m 13.65501,-0.054 c 0,-5.29701 -1.55501,-9.592 -3.471,-9.592 -1.916,0 -3.46801,4.29499 -3.46801,9.592 0,5.29699 1.55201,9.592 3.46801,9.592 1.91599,0 3.471,-4.29501 3.471,-9.592 z m 13.678,0.054 c 0,-5.29701 -1.55301,-9.592 -3.469,-9.592 -1.916,0 -3.471,4.29499 -3.471,9.592 0,5.297 1.555,9.592 3.471,9.592 1.91599,0 3.469,-4.295 3.469,-9.592 z m -3.467,-0.26701 c 0,-5.29699 -1.554,-9.59099 -3.46901,-9.59099 -1.916,0 -3.47,4.294 -3.47,9.59099 0,5.29801 1.554,9.59201 3.47,9.59201 1.91501,0 3.46901,-4.294 3.46901,-9.59201 z m -3.46501,0.126 c 0,-5.29799 -1.55199,-9.59199 -3.46799,-9.59199 -1.916,0 -3.469,4.294 -3.469,9.59199 0,5.29801 1.553,9.59201 3.469,9.59201 1.916,0 3.46799,-4.294 3.46799,-9.59201 z m -3.46799,0.14101 c 0,-5.29701 -1.55301,-9.592 -3.469,-9.592 -1.917,0 -3.471,4.29499 -3.471,9.592 0,5.297 1.554,9.592 3.471,9.592 1.91599,0 3.469,-4.295 3.469,-9.592 z" /></g></g><g
             id="g144"><text
               id="text148"
               style="font-variant:normal;font-weight:normal;font-size:11.95500088px;font-family:CMMI12;-inkscape-font-specification:CMMI12;writing-mode:lr-tb;fill:#231f20;fill-opacity:1;fill-rule:nonzero;stroke:none"
               transform="matrix(1,0,0,-1,105.578,98.167198)"><tspan
                 id="tspan146"
                 y="0"
                 x="0">L</tspan></text>
</g><g
             id="g150"><g
               clip-path="url(#clipPath156)"
               id="g152"><path
                 id="path158"
                 style="fill:#ffffff;fill-opacity:1;fill-rule:nonzero;stroke:none"
                 d="m 188.08301,124.5 h 48.66701 V 19.16599 h -48.66701 z" /><path
                 id="path160"
                 style="fill:none;stroke:#ffffff;stroke-width:1;stroke-linecap:butt;stroke-linejoin:miter;stroke-miterlimit:4;stroke-dasharray:none;stroke-opacity:1"
                 d="m 188.08301,124.5 h 48.66701 V 19.165993 h -48.66701 z" /></g></g><g
             id="g162"><path
               id="path164"
               style="fill:#231f20;fill-opacity:1;fill-rule:nonzero;stroke:none"
               d="M 193.59502,32.467003 V 111.56701" /><path
               id="path166"
               style="fill:none;stroke:#231f20;stroke-width:1;stroke-linecap:butt;stroke-linejoin:miter;stroke-miterlimit:4;stroke-dasharray:none;stroke-opacity:1"
               d="M 193.59502,32.467003 V 111.56701" /><path
               id="path168"
               style="fill:#231f20;fill-opacity:1;fill-rule:nonzero;stroke:none"
               d="m 192.56999,113.92901 c -0.49898,-1.653 -0.95898,-2.72801 -1.49098,-4.054 h 5.04401 c -0.22501,0.474 -0.99303,2.401 -1.49201,4.054 -0.53399,1.769 -0.90001,3.374 -1.03,4.41399 -0.13101,-1.03999 -0.496,-2.64499 -1.03102,-4.41399" /><path
               id="path170"
               style="fill:#231f20;fill-opacity:1;fill-rule:nonzero;stroke:none"
               d="m 194.621,30.105001 c 0.499,1.653 0.959,2.727999 1.49101,4.053999 h -5.044 c 0.224,-0.473999 0.99199,-2.400999 1.491,-4.053999 0.53399,-1.77 0.9,-3.374 1.02999,-4.415002 0.131,1.041002 0.49601,2.645002 1.032,4.415002" /><text
               id="text174"
               style="font-variant:normal;font-weight:normal;font-size:11.95500088px;font-family:CMMI12;-inkscape-font-specification:CMMI12;writing-mode:lr-tb;fill:#231f20;fill-opacity:1;fill-rule:nonzero;stroke:none"
               transform="matrix(1,0,0,-1,199.74901,71.166695)"><tspan
                 id="tspan172"
                 y="0"
                 x="0">v</tspan></text>
<text
               id="text178"
               style="font-variant:normal;font-weight:normal;font-size:7.96999979px;font-family:CMMI8;-inkscape-font-specification:CMMI8;writing-mode:lr-tb;fill:#231f20;fill-opacity:1;fill-rule:nonzero;stroke:none"
               transform="matrix(1,0,0,-1,205.40701,69.373695)"><tspan
                 id="tspan176"
                 y="0"
                 x="0 4.0886097 8.99016">out</tspan></text>
</g></g></g></g></g></svg>