<?xml version="1.0" encoding="UTF-8" standalone="no"?>
<svg
   xmlns:dc="http://purl.org/dc/elements/1.1/"
   xmlns:cc="http://creativecommons.org/ns#"
   xmlns:rdf="http://www.w3.org/1999/02/22-rdf-syntax-ns#"
   xmlns:svg="http://www.w3.org/2000/svg"
   xmlns="http://www.w3.org/2000/svg"
   viewBox="0 0 556 169.33333"
   height="169.33333"
   width="556"
   xml:space="preserve"
   id="svg2"
   version="1.1"><metadata
     id="metadata8"><rdf:RDF><cc:Work
         rdf:about=""><dc:format>image/svg+xml</dc:format><dc:type
           rdf:resource="http://purl.org/dc/dcmitype/StillImage" /></cc:Work></rdf:RDF></metadata><defs
     id="defs6"><clipPath
       id="clipPath24"
       clipPathUnits="userSpaceOnUse"><path
         id="path22"
         d="M 0,0 H 417 V 127 H 0 Z" /></clipPath><clipPath
       id="clipPath66"
       clipPathUnits="userSpaceOnUse"><path
         id="path64"
         d="M 0.06,0.05999756 H 416.78302 V 126.801 H 0.06 Z" /></clipPath><clipPath
       id="clipPath124"
       clipPathUnits="userSpaceOnUse"><path
         id="path122"
         d="M 0.06,0.05999756 H 416.78302 V 126.801 H 0.06 Z" /></clipPath></defs><g
     transform="matrix(1.3333333,0,0,-1.3333333,0,169.33333)"
     id="g10"><g
       id="g12" /><g
       id="g14" /><g
       id="g16"><g
         id="g18"><g
           clip-path="url(#clipPath24)"
           id="g20"><g
             id="g26" /><g
             id="g28"><path
               id="path30"
               style="fill:none;stroke:#231f20;stroke-width:1;stroke-linecap:butt;stroke-linejoin:miter;stroke-miterlimit:4;stroke-dasharray:none;stroke-opacity:1"
               d="M 16.928001,30.801001 V 109.90101" /><path
               id="path32"
               style="fill:#231f20;fill-opacity:1;fill-rule:nonzero;stroke:none"
               d="M 16.211,111.55401 C 15.861001,110.397 15.539001,109.645 15.167001,108.716 H 18.698 c -0.158001,0.332 -0.695,1.681 -1.044998,2.83801 -0.374001,1.239 -0.630001,2.362 -0.721001,3.09099 -0.092,-0.72899 -0.347,-1.85199 -0.721001,-3.09099" /><path
               id="path34"
               style="fill:#231f20;fill-opacity:1;fill-rule:nonzero;stroke:none"
               d="m 17.646,29.148001 c 0.349001,1.157001 0.671001,1.909 1.044001,2.838001 H 15.159 c 0.157001,-0.333 0.695001,-1.681 1.044001,-2.838001 0.374001,-1.239001 0.629999,-2.362 0.721001,-3.091 0.092,0.729 0.347999,1.851999 0.721998,3.091" /><path
               id="path36"
               style="fill:none;stroke:#231f20;stroke-width:1;stroke-linecap:butt;stroke-linejoin:miter;stroke-miterlimit:4;stroke-dasharray:none;stroke-opacity:1"
               d="M 16.928001,109.90101 V 118.301 H 57.528004 V 23.801001 H 16.928001 v 7" /><path
               id="path38"
               style="fill:#ffffff;fill-opacity:1;fill-rule:nonzero;stroke:none"
               d="M 48.428001,102.201 H 65.228004 V 72.800998 H 48.428001 Z" /><path
               id="path40"
               style="fill:none;stroke:#231f20;stroke-width:1;stroke-linecap:butt;stroke-linejoin:miter;stroke-miterlimit:4;stroke-dasharray:none;stroke-opacity:1"
               d="M 48.428001,102.201 H 65.228004 V 72.801003 H 48.428001 Z" /><path
               id="path42"
               style="fill:#ffffff;fill-opacity:1;fill-rule:nonzero;stroke:none"
               d="m 49.128002,60.901005 h 16.799999 v -29.4 H 49.128002 Z" /><path
               id="path44"
               style="fill:none;stroke:#231f20;stroke-width:1;stroke-linecap:butt;stroke-linejoin:miter;stroke-miterlimit:4;stroke-dasharray:none;stroke-opacity:1"
               d="m 49.128002,60.901005 h 16.799999 v -29.4 H 49.128002 Z" /><path
               id="path46"
               style="fill:#ffffff;fill-opacity:1;fill-rule:nonzero;stroke:none"
               d="M 168.92801,118.60101 H 384.52802 V 25.500004 H 168.92801 Z" /><path
               id="path48"
               style="fill:none;stroke:#231f20;stroke-width:1;stroke-linecap:butt;stroke-linejoin:miter;stroke-miterlimit:4;stroke-dasharray:none;stroke-opacity:1"
               d="M 168.92801,118.60101 H 384.52802 V 25.5 H 168.92801 Z" /><path
               id="path50"
               style="fill:#ffffff;fill-opacity:1;fill-rule:nonzero;stroke:none"
               d="M 304.729,26.200001 V 118.60101" /><path
               id="path52"
               style="fill:none;stroke:#231f20;stroke-width:1;stroke-linecap:butt;stroke-linejoin:miter;stroke-miterlimit:4;stroke-dasharray:none;stroke-opacity:1"
               d="M 304.729,26.200001 V 118.60101" /><path
               id="path54"
               style="fill:#ffffff;fill-opacity:1;fill-rule:nonzero;stroke:none"
               d="m 296.32901,85.001007 h 16.79901 V 55.601005 h -16.79901 z" /><path
               id="path56"
               style="fill:none;stroke:#231f20;stroke-width:1;stroke-linecap:butt;stroke-linejoin:miter;stroke-miterlimit:4;stroke-dasharray:none;stroke-opacity:1"
               d="m 296.32901,85.001007 h 16.79901 V 55.601006 h -16.79901 z" /><path
               id="path58"
               style="fill:#ffffff;fill-opacity:1;fill-rule:nonzero;stroke:none"
               d="m 217.229,126.301 h 29.399 v -16.8 h -29.399 z" /></g><g
             id="g60"><g
               clip-path="url(#clipPath66)"
               id="g62"><path
                 id="path68"
                 style="fill:none;stroke:#231f20;stroke-width:1;stroke-linecap:butt;stroke-linejoin:miter;stroke-miterlimit:4;stroke-dasharray:none;stroke-opacity:1"
                 d="m 217.229,126.301 h 29.39901 v -16.8 H 217.229 Z" /></g></g><g
             id="g70"><path
               id="path72"
               style="fill:#231f20;fill-opacity:1;fill-rule:nonzero;stroke:none"
               d="m 307.87802,118.951 c 0,-1.73999 -1.41,-3.15 -3.14902,-3.15 -1.73999,0 -3.14999,1.41001 -3.14999,3.15 0,1.74001 1.41,3.15001 3.14999,3.15001 1.73902,0 3.14902,-1.41 3.14902,-3.15001" /><path
               id="path74"
               style="fill:none;stroke:#231f20;stroke-width:1;stroke-linecap:butt;stroke-linejoin:miter;stroke-miterlimit:4;stroke-dasharray:none;stroke-opacity:1"
               d="m 307.87802,118.951 c 0,-1.73999 -1.41,-3.15 -3.14902,-3.15 -1.73999,0 -3.14999,1.41001 -3.14999,3.15 0,1.74001 1.41,3.15001 3.14999,3.15001 1.73902,0 3.14902,-1.41 3.14902,-3.15001 z" /><path
               id="path76"
               style="fill:#ffffff;fill-opacity:1;fill-rule:nonzero;stroke:none"
               d="m 386.979,25.849998 c 0,-1.738996 -1.40997,-3.149997 -3.14999,-3.149997 -1.741,0 -3.151,1.411001 -3.151,3.149997 0,1.740002 1.41,3.151003 3.151,3.151003 1.74002,0 3.14999,-1.411001 3.14999,-3.151003" /><path
               id="path78"
               style="fill:none;stroke:#231f20;stroke-width:1;stroke-linecap:butt;stroke-linejoin:miter;stroke-miterlimit:4;stroke-dasharray:none;stroke-opacity:1"
               d="m 386.979,25.849998 c 0,-1.738996 -1.40997,-3.149997 -3.14999,-3.149997 -1.741,0 -3.151,1.411001 -3.151,3.149997 0,1.740002 1.41,3.151003 3.151,3.151003 1.74002,0 3.14999,-1.411001 3.14999,-3.151003 z" /><path
               id="path80"
               style="fill:#ffffff;fill-opacity:1;fill-rule:nonzero;stroke:none"
               d="m 172.07901,26.551001 c 0,-1.74 -1.411,-3.15 -3.151,-3.15 -1.739,0 -3.14999,1.41 -3.14999,3.15 0,1.740001 1.41099,3.150001 3.14999,3.150001 1.74,0 3.151,-1.41 3.151,-3.150001" /><path
               id="path82"
               style="fill:none;stroke:#231f20;stroke-width:1;stroke-linecap:butt;stroke-linejoin:miter;stroke-miterlimit:4;stroke-dasharray:none;stroke-opacity:1"
               d="m 172.07901,26.551001 c 0,-1.74 -1.411,-3.15 -3.151,-3.15 -1.739,0 -3.14999,1.41 -3.14999,3.15 0,1.740001 1.41099,3.150001 3.14999,3.150001 1.74,0 3.151,-1.41 3.151,-3.150001 z" /><path
               id="path84"
               style="fill:#ffffff;fill-opacity:1;fill-rule:nonzero;stroke:none"
               d="m 386.979,118.25101 c 0,-1.74 -1.40997,-3.15 -3.14999,-3.15 -1.741,0 -3.151,1.41 -3.151,3.15 0,1.73899 1.41,3.15 3.151,3.15 1.74002,0 3.14999,-1.41101 3.14999,-3.15" /><path
               id="path86"
               style="fill:none;stroke:#231f20;stroke-width:1;stroke-linecap:butt;stroke-linejoin:miter;stroke-miterlimit:4;stroke-dasharray:none;stroke-opacity:1"
               d="m 386.979,118.25101 c 0,-1.74 -1.40997,-3.15 -3.14999,-3.15 -1.741,0 -3.151,1.41 -3.151,3.15 0,1.73899 1.41,3.15 3.151,3.15 1.74002,0 3.14999,-1.41101 3.14999,-3.15 z" /><path
               id="path88"
               style="fill:#ffffff;fill-opacity:1;fill-rule:nonzero;stroke:none"
               d="m 172.42801,118.25101 c 0,-1.74 -1.41,-3.15 -3.14999,-3.15 -1.73902,0 -3.15001,1.41 -3.15001,3.15 0,1.73899 1.41099,3.15 3.15001,3.15 1.73999,0 3.14999,-1.41101 3.14999,-3.15" /><path
               id="path90"
               style="fill:none;stroke:#231f20;stroke-width:1;stroke-linecap:butt;stroke-linejoin:miter;stroke-miterlimit:4;stroke-dasharray:none;stroke-opacity:1"
               d="m 172.42801,118.25101 c 0,-1.74 -1.41,-3.15 -3.14999,-3.15 -1.73902,0 -3.15001,1.41 -3.15001,3.15 0,1.73899 1.41099,3.15 3.15001,3.15 1.73999,0 3.14999,-1.41101 3.14999,-3.15 z" /><path
               id="path92"
               style="fill:#231f20;fill-opacity:1;fill-rule:nonzero;stroke:none"
               d="m 307.87802,26.551001 c 0,-1.74 -1.41,-3.15 -3.14902,-3.15 -1.73999,0 -3.14999,1.41 -3.14999,3.15 0,1.740001 1.41,3.150001 3.14999,3.150001 1.73902,0 3.14902,-1.41 3.14902,-3.150001" /><path
               id="path94"
               style="fill:none;stroke:#231f20;stroke-width:1;stroke-linecap:butt;stroke-linejoin:miter;stroke-miterlimit:4;stroke-dasharray:none;stroke-opacity:1"
               d="m 307.87802,26.551001 c 0,-1.74 -1.41,-3.15 -3.14902,-3.15 -1.73999,0 -3.14999,1.41 -3.14999,3.15 0,1.740001 1.41,3.150001 3.14999,3.150001 1.73902,0 3.14902,-1.41 3.14902,-3.150001 z" /><path
               id="path96"
               style="fill:#231f20;fill-opacity:1;fill-rule:nonzero;stroke:none"
               d="m 235.07901,26.200001 c 0,-1.739001 -1.411,-3.149 -3.151,-3.149 -1.739,0 -3.14999,1.409999 -3.14999,3.149 0,1.741001 1.41099,3.151001 3.14999,3.151001 1.74,0 3.151,-1.41 3.151,-3.151001" /><path
               id="path98"
               style="fill:none;stroke:#231f20;stroke-width:1;stroke-linecap:butt;stroke-linejoin:miter;stroke-miterlimit:4;stroke-dasharray:none;stroke-opacity:1"
               d="m 235.07901,26.200001 c 0,-1.739001 -1.411,-3.149 -3.151,-3.149 -1.739,0 -3.14999,1.409999 -3.14999,3.149 0,1.741001 1.41099,3.151001 3.14999,3.151001 1.74,0 3.151,-1.41 3.151,-3.151001 z" /><path
               id="path100"
               style="fill:#231f20;fill-opacity:1;fill-rule:nonzero;stroke:none"
               d="M 392.92801,32.801003 V 111.90101" /><path
               id="path102"
               style="fill:none;stroke:#231f20;stroke-width:1;stroke-linecap:butt;stroke-linejoin:miter;stroke-miterlimit:4;stroke-dasharray:none;stroke-opacity:1"
               d="M 392.92801,32.801003 V 111.90101" /><path
               id="path104"
               style="fill:#231f20;fill-opacity:1;fill-rule:nonzero;stroke:none"
               d="m 391.90302,114.26301 c -0.499,-1.654 -0.95899,-2.72801 -1.491,-4.054 h 5.044 c -0.225,0.474 -0.99301,2.4 -1.492,4.054 -0.53403,1.769 -0.89999,3.374 -1.03,4.41399 -0.13101,-1.03999 -0.496,-2.64499 -1.031,-4.41399" /><path
               id="path106"
               style="fill:#231f20;fill-opacity:1;fill-rule:nonzero;stroke:none"
               d="m 393.95401,30.439001 c 0.49902,1.653002 0.95901,2.727999 1.491,4.053999 h -5.04398 c 0.22498,-0.473999 0.99198,-2.400997 1.491,-4.053999 0.534,-1.769001 0.89999,-3.374 1.03,-4.414999 0.13098,1.040999 0.496,2.645998 1.03198,4.414999" /><path
               id="path108"
               style="fill:#231f20;fill-opacity:1;fill-rule:nonzero;stroke:none"
               d="m 222.08301,8.5 h 20" /><path
               id="path110"
               style="fill:none;stroke:#231f20;stroke-width:1;stroke-linecap:butt;stroke-linejoin:miter;stroke-miterlimit:4;stroke-dasharray:none;stroke-opacity:1"
               d="m 222.08301,8.5 h 20" /><path
               id="path112"
               style="fill:#231f20;fill-opacity:1;fill-rule:nonzero;stroke:none"
               d="m 226.08301,4.5 h 12" /><path
               id="path114"
               style="fill:none;stroke:#231f20;stroke-width:1;stroke-linecap:butt;stroke-linejoin:miter;stroke-miterlimit:4;stroke-dasharray:none;stroke-opacity:1"
               d="m 226.08301,4.5 h 12" /><path
               id="path116"
               style="fill:#231f20;fill-opacity:1;fill-rule:nonzero;stroke:none"
               d="m 230.08301,0.5 h 3" /></g><g
             id="g118"><g
               clip-path="url(#clipPath124)"
               id="g120"><path
                 id="path126"
                 style="fill:none;stroke:#231f20;stroke-width:1;stroke-linecap:butt;stroke-linejoin:miter;stroke-miterlimit:4;stroke-dasharray:none;stroke-opacity:1"
                 d="m 230.08301,0.5 h 3" /></g></g><g
             id="g128"><path
               id="path130"
               style="fill:#231f20;fill-opacity:1;fill-rule:nonzero;stroke:none"
               d="M 231.92801,26.200001 V 9.5" /><path
               id="path132"
               style="fill:none;stroke:#231f20;stroke-width:1;stroke-linecap:butt;stroke-linejoin:miter;stroke-miterlimit:4;stroke-dasharray:none;stroke-opacity:1"
               d="M 231.92801,26.200001 V 9.5" /><text
               id="text136"
               style="font-variant:normal;font-weight:normal;font-size:11.95500088px;font-family:CMMI12;-inkscape-font-specification:CMMI12;writing-mode:lr-tb;fill:#231f20;fill-opacity:1;fill-rule:nonzero;stroke:none"
               transform="matrix(1,0,0,-1,50.912098,84.500694)"><tspan
                 id="tspan134"
                 y="0"
                 x="0">R</tspan></text>
<text
               id="text140"
               style="font-variant:normal;font-weight:normal;font-size:7.96999979px;font-family:CMR8;-inkscape-font-specification:CMR8;writing-mode:lr-tb;fill:#231f20;fill-opacity:1;fill-rule:nonzero;stroke:none"
               transform="matrix(1,0,0,-1,59.8223,82.707695)"><tspan
                 id="tspan138"
                 y="0"
                 x="0">1</tspan></text>
<text
               id="text144"
               style="font-variant:normal;font-weight:normal;font-size:11.95500088px;font-family:CMMI12;-inkscape-font-specification:CMMI12;writing-mode:lr-tb;fill:#231f20;fill-opacity:1;fill-rule:nonzero;stroke:none"
               transform="matrix(1,0,0,-1,297.457,65.500702)"><tspan
                 id="tspan142"
                 y="0"
                 x="0">R</tspan></text>
<text
               id="text148"
               style="font-variant:normal;font-weight:normal;font-size:7.96999979px;font-family:CMR8;-inkscape-font-specification:CMR8;writing-mode:lr-tb;fill:#231f20;fill-opacity:1;fill-rule:nonzero;stroke:none"
               transform="matrix(1,0,0,-1,306.367,63.707699)"><tspan
                 id="tspan146"
                 y="0"
                 x="0">2</tspan></text>
<text
               id="text152"
               style="font-variant:normal;font-weight:normal;font-size:11.95500088px;font-family:CMMI12;-inkscape-font-specification:CMMI12;writing-mode:lr-tb;fill:#231f20;fill-opacity:1;fill-rule:nonzero;stroke:none"
               transform="matrix(1,0,0,-1,0,68.500702)"><tspan
                 id="tspan150"
                 y="0"
                 x="0">v</tspan></text>
<text
               id="text156"
               style="font-variant:normal;font-weight:normal;font-size:7.96999979px;font-family:CMMI8;-inkscape-font-specification:CMMI8;writing-mode:lr-tb;fill:#231f20;fill-opacity:1;fill-rule:nonzero;stroke:none"
               transform="matrix(1,0,0,-1,5.6601996,66.707695)"><tspan
                 id="tspan154"
                 y="0"
                 x="0 2.8771698">in</tspan></text>
<text
               id="text160"
               style="font-variant:normal;font-weight:normal;font-size:11.95500088px;font-family:CMMI12;-inkscape-font-specification:CMMI12;writing-mode:lr-tb;fill:#231f20;fill-opacity:1;fill-rule:nonzero;stroke:none"
               transform="matrix(1,0,0,-1,80.423798,44.293697)"><tspan
                 id="tspan158"
                 y="0"
                 x="0">v</tspan></text>
<text
               id="text164"
               style="font-variant:normal;font-weight:normal;font-size:7.96999979px;font-family:CMMI8;-inkscape-font-specification:CMMI8;writing-mode:lr-tb;fill:#231f20;fill-opacity:1;fill-rule:nonzero;stroke:none"
               transform="matrix(1,0,0,-1,86.082001,42.500698)"><tspan
                 id="tspan162"
                 y="0"
                 x="0 4.0886097 8.99016">out</tspan></text>
<text
               id="text168"
               style="font-variant:normal;font-weight:normal;font-size:11.95500088px;font-family:CMMI12;-inkscape-font-specification:CMMI12;writing-mode:lr-tb;fill:#231f20;fill-opacity:1;fill-rule:nonzero;stroke:none"
               transform="matrix(1,0,0,-1,399.08203,71.500702)"><tspan
                 id="tspan166"
                 y="0"
                 x="0">v</tspan></text>
<text
               id="text172"
               style="font-variant:normal;font-weight:normal;font-size:7.96999979px;font-family:CMMI8;-inkscape-font-specification:CMMI8;writing-mode:lr-tb;fill:#231f20;fill-opacity:1;fill-rule:nonzero;stroke:none"
               transform="matrix(1,0,0,-1,404.73999,69.707695)"><tspan
                 id="tspan170"
                 y="0"
                 x="0 4.0886097 8.99016">out</tspan></text>
<text
               id="text176"
               style="font-variant:normal;font-weight:normal;font-size:11.95500088px;font-family:CMMI12;-inkscape-font-specification:CMMI12;writing-mode:lr-tb;fill:#231f20;fill-opacity:1;fill-rule:nonzero;stroke:none"
               transform="matrix(1,0,0,-1,51.457001,43.500698)"><tspan
                 id="tspan174"
                 y="0"
                 x="0">R</tspan></text>
<text
               id="text180"
               style="font-variant:normal;font-weight:normal;font-size:7.96999979px;font-family:CMR8;-inkscape-font-specification:CMR8;writing-mode:lr-tb;fill:#231f20;fill-opacity:1;fill-rule:nonzero;stroke:none"
               transform="matrix(1,0,0,-1,60.367199,41.707699)"><tspan
                 id="tspan178"
                 y="0"
                 x="0">2</tspan></text>
<text
               id="text184"
               style="font-variant:normal;font-weight:normal;font-size:11.95500088px;font-family:CMMI12;-inkscape-font-specification:CMMI12;writing-mode:lr-tb;fill:#231f20;fill-opacity:1;fill-rule:nonzero;stroke:none"
               transform="matrix(1,0,0,-1,225.91202,115.50069)"><tspan
                 id="tspan182"
                 y="0"
                 x="0">R</tspan></text>
<text
               id="text188"
               style="font-variant:normal;font-weight:normal;font-size:7.96999979px;font-family:CMR8;-inkscape-font-specification:CMR8;writing-mode:lr-tb;fill:#231f20;fill-opacity:1;fill-rule:nonzero;stroke:none"
               transform="matrix(1,0,0,-1,234.82201,113.7077)"><tspan
                 id="tspan186"
                 y="0"
                 x="0">1</tspan></text>
<text
               id="text192"
               style="font-variant:normal;font-weight:normal;font-size:11.95500088px;font-family:CMMI12;-inkscape-font-specification:CMMI12;writing-mode:lr-tb;fill:#231f20;fill-opacity:1;fill-rule:nonzero;stroke:none"
               transform="matrix(1,0,0,-1,152,74.500702)"><tspan
                 id="tspan190"
                 y="0"
                 x="0">v</tspan></text>
<text
               id="text196"
               style="font-variant:normal;font-weight:normal;font-size:7.96999979px;font-family:CMMI8;-inkscape-font-specification:CMMI8;writing-mode:lr-tb;fill:#231f20;fill-opacity:1;fill-rule:nonzero;stroke:none"
               transform="matrix(1,0,0,-1,157.66,72.707695)"><tspan
                 id="tspan194"
                 y="0"
                 x="0 2.8771698">in</tspan></text>
<path
               id="path198"
               style="fill:#231f20;fill-opacity:1;fill-rule:nonzero;stroke:none"
               d="M 57.416004,67.834 H 85.416" /><path
               id="path200"
               style="fill:none;stroke:#231f20;stroke-width:0.80000001;stroke-linecap:butt;stroke-linejoin:miter;stroke-miterlimit:4;stroke-dasharray:none;stroke-opacity:1"
               d="M 57.416004,67.834 H 85.416" /><path
               id="path202"
               style="fill:#231f20;fill-opacity:1;fill-rule:nonzero;stroke:none"
               d="M 57.082005,27.501001 H 85.082001" /><path
               id="path204"
               style="fill:none;stroke:#231f20;stroke-width:0.80000001;stroke-linecap:butt;stroke-linejoin:miter;stroke-miterlimit:4;stroke-dasharray:none;stroke-opacity:1"
               d="M 57.082005,27.501001 H 85.082001" /><path
               id="path206"
               style="fill:#231f20;fill-opacity:1;fill-rule:nonzero;stroke:none"
               d="m 76.082001,34.168003 v 27" /><path
               id="path208"
               style="fill:none;stroke:#231f20;stroke-width:0.80000001;stroke-linecap:butt;stroke-linejoin:miter;stroke-miterlimit:4;stroke-dasharray:none;stroke-opacity:1"
               d="m 76.082001,34.168003 v 27" /><path
               id="path210"
               style="fill:#231f20;fill-opacity:1;fill-rule:nonzero;stroke:none"
               d="m 75.262001,63.057003 c -0.399994,-1.321999 -0.766998,-2.181999 -1.193001,-3.243 h 4.036003 c -0.180999,0.380001 -0.795005,1.921001 -1.194,3.243 C 76.483002,64.473 76.191002,65.756004 76.087006,66.589005 75.982002,65.756004 75.689995,64.473 75.262001,63.057003" /><path
               id="path212"
               style="fill:#231f20;fill-opacity:1;fill-rule:nonzero;stroke:none"
               d="m 76.902,32.278 c 0.400002,1.323002 0.767998,2.183002 1.193001,3.244003 h -4.035003 c 0.18,-0.380001 0.794006,-1.921001 1.193008,-3.244003 0.428001,-1.415999 0.721001,-2.699 0.824997,-3.531998 C 76.182007,29.579 76.475006,30.862001 76.902,32.278" /><path
               id="path214"
               style="fill:#231f20;fill-opacity:1;fill-rule:nonzero;stroke:none"
               d="m 176.08301,118.50101 h 29" /><path
               id="path216"
               style="fill:none;stroke:#231f20;stroke-width:0.69999999;stroke-linecap:butt;stroke-linejoin:miter;stroke-miterlimit:4;stroke-dasharray:none;stroke-opacity:1"
               d="m 176.08301,118.50101 h 29" /><path
               id="path218"
               style="fill:#231f20;fill-opacity:1;fill-rule:nonzero;stroke:none"
               d="m 206.69801,119.43401 c -1.505,0.455 -2.483,0.874 -3.69,1.359 V 116.202 c 0.43199,0.206 2.185,0.903 3.69,1.35701 1.611,0.487 3.071,0.82 4.017,0.938 -0.946,0.11899 -2.406,0.452 -4.017,0.937" /></g></g></g></g></g></svg>