<?xml version="1.0" encoding="UTF-8" standalone="no"?>
<svg
   xmlns:dc="http://purl.org/dc/elements/1.1/"
   xmlns:cc="http://creativecommons.org/ns#"
   xmlns:rdf="http://www.w3.org/1999/02/22-rdf-syntax-ns#"
   xmlns:svg="http://www.w3.org/2000/svg"
   xmlns="http://www.w3.org/2000/svg"
   viewBox="0 0 353.33334 169.33333"
   height="169.33333"
   width="353.33334"
   xml:space="preserve"
   id="svg2"
   version="1.1"><metadata
     id="metadata8"><rdf:RDF><cc:Work
         rdf:about=""><dc:format>image/svg+xml</dc:format><dc:type
           rdf:resource="http://purl.org/dc/dcmitype/StillImage" /></cc:Work></rdf:RDF></metadata><defs
     id="defs6"><clipPath
       id="clipPath24"
       clipPathUnits="userSpaceOnUse"><path
         id="path22"
         d="M 0,0 H 265 V 127 H 0 Z" /></clipPath><clipPath
       id="clipPath46"
       clipPathUnits="userSpaceOnUse"><path
         id="path44"
         d="M 0,0.05999756 H 264.78302 V 126.801 H 0 Z" /></clipPath><clipPath
       id="clipPath104"
       clipPathUnits="userSpaceOnUse"><path
         id="path102"
         d="M 0,0.05999756 H 264.78302 V 126.801 H 0 Z" /></clipPath></defs><g
     transform="matrix(1.3333333,0,0,-1.3333333,0,169.33333)"
     id="g10"><g
       id="g12" /><g
       id="g14" /><g
       id="g16"><g
         id="g18"><g
           clip-path="url(#clipPath24)"
           id="g20"><g
             id="g26" /><g
             id="g28"><path
               id="path30"
               style="fill:#ffffff;fill-opacity:1;fill-rule:nonzero;stroke:none"
               d="M 16.928001,118.60101 H 232.52801 V 25.500004 H 16.928001 Z" /><path
               id="path32"
               style="fill:none;stroke:#231f20;stroke-width:1;stroke-linecap:butt;stroke-linejoin:miter;stroke-miterlimit:4;stroke-dasharray:none;stroke-opacity:1"
               d="M 16.928001,118.60101 H 232.52802 V 25.5 H 16.928001 Z" /><path
               id="path34"
               style="fill:#ffffff;fill-opacity:1;fill-rule:nonzero;stroke:none"
               d="M 152.729,26.200001 V 118.60101" /><path
               id="path36"
               style="fill:none;stroke:#231f20;stroke-width:1;stroke-linecap:butt;stroke-linejoin:miter;stroke-miterlimit:4;stroke-dasharray:none;stroke-opacity:1"
               d="M 152.729,26.200001 V 118.60101" /><path
               id="path38"
               style="fill:#ffffff;fill-opacity:1;fill-rule:nonzero;stroke:none"
               d="m 65.229004,126.301 h 29.399002 v -16.8 H 65.229004 Z" /></g><g
             id="g40"><g
               clip-path="url(#clipPath46)"
               id="g42"><path
                 id="path48"
                 style="fill:none;stroke:#231f20;stroke-width:1;stroke-linecap:butt;stroke-linejoin:miter;stroke-miterlimit:4;stroke-dasharray:none;stroke-opacity:1"
                 d="m 65.229004,126.301 h 29.399002 v -16.8 H 65.229004 Z" /></g></g><g
             id="g50"><path
               id="path52"
               style="fill:#231f20;fill-opacity:1;fill-rule:nonzero;stroke:none"
               d="m 155.87801,118.951 c 0,-1.73999 -1.41001,-3.15 -3.14901,-3.15 -1.73999,0 -3.14999,1.41001 -3.14999,3.15 0,1.74001 1.41,3.15001 3.14999,3.15001 1.739,0 3.14901,-1.41 3.14901,-3.15001" /><path
               id="path54"
               style="fill:none;stroke:#231f20;stroke-width:1;stroke-linecap:butt;stroke-linejoin:miter;stroke-miterlimit:4;stroke-dasharray:none;stroke-opacity:1"
               d="m 155.87801,118.951 c 0,-1.73999 -1.41001,-3.15 -3.14901,-3.15 -1.73999,0 -3.14999,1.41001 -3.14999,3.15 0,1.74001 1.41,3.15001 3.14999,3.15001 1.739,0 3.14901,-1.41 3.14901,-3.15001 z" /><path
               id="path56"
               style="fill:#ffffff;fill-opacity:1;fill-rule:nonzero;stroke:none"
               d="m 234.979,25.849998 c 0,-1.738996 -1.40998,-3.149997 -3.14999,-3.149997 -1.741,0 -3.151,1.411001 -3.151,3.149997 0,1.740002 1.41,3.151003 3.151,3.151003 1.74001,0 3.14999,-1.411001 3.14999,-3.151003" /><path
               id="path58"
               style="fill:none;stroke:#231f20;stroke-width:1;stroke-linecap:butt;stroke-linejoin:miter;stroke-miterlimit:4;stroke-dasharray:none;stroke-opacity:1"
               d="m 234.979,25.849998 c 0,-1.738996 -1.40998,-3.149997 -3.14999,-3.149997 -1.741,0 -3.151,1.411001 -3.151,3.149997 0,1.740002 1.41,3.151003 3.151,3.151003 1.74001,0 3.14999,-1.411001 3.14999,-3.151003 z" /><path
               id="path60"
               style="fill:#ffffff;fill-opacity:1;fill-rule:nonzero;stroke:none"
               d="m 20.078001,26.551001 c 0,-1.74 -1.41,-3.15 -3.15,-3.15 -1.74,0 -3.151001,1.41 -3.151001,3.15 0,1.740001 1.411001,3.150001 3.151001,3.150001 1.74,0 3.15,-1.41 3.15,-3.150001" /><path
               id="path62"
               style="fill:none;stroke:#231f20;stroke-width:1;stroke-linecap:butt;stroke-linejoin:miter;stroke-miterlimit:4;stroke-dasharray:none;stroke-opacity:1"
               d="m 20.078001,26.551001 c 0,-1.74 -1.41,-3.15 -3.15,-3.15 -1.74,0 -3.151001,1.41 -3.151001,3.15 0,1.740001 1.411001,3.150001 3.151001,3.150001 1.74,0 3.15,-1.41 3.15,-3.150001 z" /><path
               id="path64"
               style="fill:#ffffff;fill-opacity:1;fill-rule:nonzero;stroke:none"
               d="m 234.979,118.25101 c 0,-1.74 -1.40998,-3.15 -3.14999,-3.15 -1.741,0 -3.151,1.41 -3.151,3.15 0,1.73899 1.41,3.15 3.151,3.15 1.74001,0 3.14999,-1.41101 3.14999,-3.15" /><path
               id="path66"
               style="fill:none;stroke:#231f20;stroke-width:1;stroke-linecap:butt;stroke-linejoin:miter;stroke-miterlimit:4;stroke-dasharray:none;stroke-opacity:1"
               d="m 234.979,118.25101 c 0,-1.74 -1.40998,-3.15 -3.14999,-3.15 -1.741,0 -3.151,1.41 -3.151,3.15 0,1.73899 1.41,3.15 3.151,3.15 1.74001,0 3.14999,-1.41101 3.14999,-3.15 z" /><path
               id="path68"
               style="fill:#ffffff;fill-opacity:1;fill-rule:nonzero;stroke:none"
               d="m 20.428001,118.25101 c 0,-1.74 -1.409999,-3.15 -3.151001,-3.15 -1.738999,0 -3.149,1.41 -3.149,3.15 0,1.73899 1.410001,3.15 3.149,3.15 1.741002,0 3.151001,-1.41101 3.151001,-3.15" /><path
               id="path70"
               style="fill:none;stroke:#231f20;stroke-width:1;stroke-linecap:butt;stroke-linejoin:miter;stroke-miterlimit:4;stroke-dasharray:none;stroke-opacity:1"
               d="m 20.428001,118.25101 c 0,-1.74 -1.409999,-3.15 -3.151001,-3.15 -1.738999,0 -3.149,1.41 -3.149,3.15 0,1.73899 1.410001,3.15 3.149,3.15 1.741002,0 3.151001,-1.41101 3.151001,-3.15 z" /><path
               id="path72"
               style="fill:#231f20;fill-opacity:1;fill-rule:nonzero;stroke:none"
               d="m 155.87801,26.551001 c 0,-1.74 -1.41001,-3.15 -3.14901,-3.15 -1.73999,0 -3.14999,1.41 -3.14999,3.15 0,1.740001 1.41,3.150001 3.14999,3.150001 1.739,0 3.14901,-1.41 3.14901,-3.150001" /><path
               id="path74"
               style="fill:none;stroke:#231f20;stroke-width:1;stroke-linecap:butt;stroke-linejoin:miter;stroke-miterlimit:4;stroke-dasharray:none;stroke-opacity:1"
               d="m 155.87801,26.551001 c 0,-1.74 -1.41001,-3.15 -3.14901,-3.15 -1.73999,0 -3.14999,1.41 -3.14999,3.15 0,1.740001 1.41,3.150001 3.14999,3.150001 1.739,0 3.14901,-1.41 3.14901,-3.150001 z" /><path
               id="path76"
               style="fill:#231f20;fill-opacity:1;fill-rule:nonzero;stroke:none"
               d="m 83.078003,26.200001 c 0,-1.739001 -1.409996,-3.149 -3.150002,-3.149 -1.738998,0 -3.151001,1.409999 -3.151001,3.149 0,1.741001 1.412003,3.151001 3.151001,3.151001 1.740006,0 3.150002,-1.41 3.150002,-3.151001" /><path
               id="path78"
               style="fill:none;stroke:#231f20;stroke-width:1;stroke-linecap:butt;stroke-linejoin:miter;stroke-miterlimit:4;stroke-dasharray:none;stroke-opacity:1"
               d="m 83.078003,26.200001 c 0,-1.739001 -1.409996,-3.149 -3.150002,-3.149 -1.738998,0 -3.151001,1.409999 -3.151001,3.149 0,1.741001 1.412003,3.151001 3.151001,3.151001 1.740006,0 3.150002,-1.41 3.150002,-3.151001 z" /><path
               id="path80"
               style="fill:#231f20;fill-opacity:1;fill-rule:nonzero;stroke:none"
               d="M 240.92801,32.801003 V 111.90101" /><path
               id="path82"
               style="fill:none;stroke:#231f20;stroke-width:1;stroke-linecap:butt;stroke-linejoin:miter;stroke-miterlimit:4;stroke-dasharray:none;stroke-opacity:1"
               d="M 240.92801,32.801003 V 111.90101" /><path
               id="path84"
               style="fill:#231f20;fill-opacity:1;fill-rule:nonzero;stroke:none"
               d="m 239.90302,114.26301 c -0.49901,-1.654 -0.959,-2.72801 -1.491,-4.054 h 5.04399 c -0.22499,0.474 -0.993,2.4 -1.49201,4.054 -0.53401,1.769 -0.89999,3.374 -1.02999,4.41399 -0.131,-1.03999 -0.49599,-2.64499 -1.03099,-4.41399" /><path
               id="path86"
               style="fill:#231f20;fill-opacity:1;fill-rule:nonzero;stroke:none"
               d="m 241.95401,30.439001 c 0.49901,1.653002 0.959,2.727999 1.491,4.053999 h -5.04399 c 0.22499,-0.473999 0.99199,-2.400997 1.49099,-4.053999 0.534,-1.769001 0.9,-3.374 1.03,-4.414999 0.131,1.040999 0.496,2.645998 1.032,4.414999" /><path
               id="path88"
               style="fill:#231f20;fill-opacity:1;fill-rule:nonzero;stroke:none"
               d="m 70.082001,8.5 h 20" /><path
               id="path90"
               style="fill:none;stroke:#231f20;stroke-width:1;stroke-linecap:butt;stroke-linejoin:miter;stroke-miterlimit:4;stroke-dasharray:none;stroke-opacity:1"
               d="m 70.082001,8.5 h 20" /><path
               id="path92"
               style="fill:#231f20;fill-opacity:1;fill-rule:nonzero;stroke:none"
               d="m 74.082001,4.5 h 12" /><path
               id="path94"
               style="fill:none;stroke:#231f20;stroke-width:1;stroke-linecap:butt;stroke-linejoin:miter;stroke-miterlimit:4;stroke-dasharray:none;stroke-opacity:1"
               d="m 74.082001,4.5 h 12" /><path
               id="path96"
               style="fill:#231f20;fill-opacity:1;fill-rule:nonzero;stroke:none"
               d="m 78.082001,0.5 h 3" /></g><g
             id="g98"><g
               clip-path="url(#clipPath104)"
               id="g100"><path
                 id="path106"
                 style="fill:none;stroke:#231f20;stroke-width:1;stroke-linecap:butt;stroke-linejoin:miter;stroke-miterlimit:4;stroke-dasharray:none;stroke-opacity:1"
                 d="m 78.082001,0.5 h 3" /></g></g><g
             id="g108"><path
               id="path110"
               style="fill:#231f20;fill-opacity:1;fill-rule:nonzero;stroke:none"
               d="M 79.928001,26.200001 V 9.5" /><path
               id="path112"
               style="fill:none;stroke:#231f20;stroke-width:1;stroke-linecap:butt;stroke-linejoin:miter;stroke-miterlimit:4;stroke-dasharray:none;stroke-opacity:1"
               d="M 79.928001,26.200001 V 9.5" /><text
               id="text116"
               style="font-variant:normal;font-weight:normal;font-size:11.95500088px;font-family:CMMI12;-inkscape-font-specification:CMMI12;writing-mode:lr-tb;fill:#231f20;fill-opacity:1;fill-rule:nonzero;stroke:none"
               transform="matrix(1,0,0,-1,247.08202,71.500702)"><tspan
                 id="tspan114"
                 y="0"
                 x="0">v</tspan></text>
<text
               id="text120"
               style="font-variant:normal;font-weight:normal;font-size:7.96999979px;font-family:CMMI8;-inkscape-font-specification:CMMI8;writing-mode:lr-tb;fill:#231f20;fill-opacity:1;fill-rule:nonzero;stroke:none"
               transform="matrix(1,0,0,-1,252.73999,69.707695)"><tspan
                 id="tspan118"
                 y="0"
                 x="0 4.0886097 8.99016">out</tspan></text>
<text
               id="text124"
               style="font-variant:normal;font-weight:normal;font-size:11.95500088px;font-family:CMMI12;-inkscape-font-specification:CMMI12;writing-mode:lr-tb;fill:#231f20;fill-opacity:1;fill-rule:nonzero;stroke:none"
               transform="matrix(1,0,0,-1,75.912102,113.50069)"><tspan
                 id="tspan122"
                 y="0"
                 x="0">R</tspan></text>
<text
               id="text128"
               style="font-variant:normal;font-weight:normal;font-size:11.95500088px;font-family:CMMI12;-inkscape-font-specification:CMMI12;writing-mode:lr-tb;fill:#231f20;fill-opacity:1;fill-rule:nonzero;stroke:none"
               transform="matrix(1,0,0,-1,2.4156159e-4,74.501091)"><tspan
                 id="tspan126"
                 y="0"
                 x="0">v</tspan></text>
<text
               id="text132"
               style="font-variant:normal;font-weight:normal;font-size:7.96999979px;font-family:CMMI8;-inkscape-font-specification:CMMI8;writing-mode:lr-tb;fill:#231f20;fill-opacity:1;fill-rule:nonzero;stroke:none"
               transform="matrix(1,0,0,-1,5.6601996,72.707695)"><tspan
                 id="tspan130"
                 y="0"
                 x="0 2.8771698">in</tspan></text>
<path
               id="path134"
               style="fill:#231f20;fill-opacity:1;fill-rule:nonzero;stroke:none"
               d="m 24.082001,118.50101 h 29" /><path
               id="path136"
               style="fill:none;stroke:#231f20;stroke-width:0.69999999;stroke-linecap:butt;stroke-linejoin:miter;stroke-miterlimit:4;stroke-dasharray:none;stroke-opacity:1"
               d="m 24.082001,118.50101 h 29" /><path
               id="path138"
               style="fill:#231f20;fill-opacity:1;fill-rule:nonzero;stroke:none"
               d="m 54.697002,119.43401 c -1.505001,0.455 -2.481998,0.874 -3.688999,1.359 V 116.202 c 0.431996,0.206 2.183998,0.903 3.688999,1.35701 1.612,0.487 3.071999,0.82 4.018002,0.938 -0.946003,0.11899 -2.406002,0.452 -4.018002,0.937" /><path
               id="path140"
               style="fill:#231f20;fill-opacity:1;fill-rule:nonzero;stroke:none"
               d="m 132.08301,78.834007 h 43" /><path
               id="path142"
               style="fill:none;stroke:#231f20;stroke-width:2;stroke-linecap:butt;stroke-linejoin:miter;stroke-miterlimit:4;stroke-dasharray:none;stroke-opacity:1"
               d="m 132.08301,78.834007 h 43" /><path
               id="path144"
               style="fill:#231f20;fill-opacity:1;fill-rule:nonzero;stroke:none"
               d="m 132.41701,64.167 h 43" /><path
               id="path146"
               style="fill:none;stroke:#231f20;stroke-width:2;stroke-linecap:butt;stroke-linejoin:miter;stroke-miterlimit:4;stroke-dasharray:none;stroke-opacity:1"
               d="m 132.41701,64.167 h 43" /><path
               id="path148"
               style="fill:#ffffff;fill-opacity:1;fill-rule:nonzero;stroke:none"
               d="m 141.08301,76.501007 h 22 v -10 h -22 z" /><path
               id="path150"
               style="fill:none;stroke:#ffffff;stroke-width:2;stroke-linecap:butt;stroke-linejoin:miter;stroke-miterlimit:4;stroke-dasharray:none;stroke-opacity:1"
               d="m 141.08301,76.501007 h 22 v -10 h -22 z" /><text
               id="text154"
               style="font-variant:normal;font-weight:normal;font-size:11.95500088px;font-family:CMMI12;-inkscape-font-specification:CMMI12;writing-mode:lr-tb;fill:#231f20;fill-opacity:1;fill-rule:nonzero;stroke:none"
               transform="matrix(1,0,0,-1,117.245,65.500702)"><tspan
                 id="tspan152"
                 y="0"
                 x="0">C</tspan></text>
</g></g></g></g></g></svg>