<?xml version="1.0" encoding="UTF-8" standalone="no"?>
<svg
   xmlns:dc="http://purl.org/dc/elements/1.1/"
   xmlns:cc="http://creativecommons.org/ns#"
   xmlns:rdf="http://www.w3.org/1999/02/22-rdf-syntax-ns#"
   xmlns:svg="http://www.w3.org/2000/svg"
   xmlns="http://www.w3.org/2000/svg"
   viewBox="0 0 318.66666 218.66667"
   height="218.66667"
   width="318.66666"
   xml:space="preserve"
   id="svg2"
   version="1.1"><metadata
     id="metadata8"><rdf:RDF><cc:Work
         rdf:about=""><dc:format>image/svg+xml</dc:format><dc:type
           rdf:resource="http://purl.org/dc/dcmitype/StillImage" /></cc:Work></rdf:RDF></metadata><defs
     id="defs6"><clipPath
       id="clipPath24"
       clipPathUnits="userSpaceOnUse"><path
         id="path22"
         d="M 0,0 H 239 V 164 H 0 Z" /></clipPath><clipPath
       id="clipPath34"
       clipPathUnits="userSpaceOnUse"><path
         id="path32"
         d="M 0,0 H 238.50902 V 163.54701 H 0 Z" /></clipPath></defs><g
     transform="matrix(1.3333333,0,0,-1.3333333,0,218.66667)"
     id="g10"><g
       id="g12" /><g
       id="g14" /><g
       id="g16"><g
         id="g18"><g
           clip-path="url(#clipPath24)"
           id="g20"><g
             id="g26" /><g
             id="g28"><g
               clip-path="url(#clipPath34)"
               id="g30"><path
                 id="path36"
                 style="fill:none;stroke:#231f20;stroke-width:0.5;stroke-linecap:butt;stroke-linejoin:round;stroke-miterlimit:10;stroke-dasharray:none;stroke-opacity:1"
                 d="m 26.384001,20.734001 h 3 m -1.5,1.5 v -3" /><path
                 id="path38"
                 style="fill:none;stroke:#231f20;stroke-width:1;stroke-linecap:butt;stroke-linejoin:round;stroke-miterlimit:10;stroke-dasharray:none;stroke-opacity:1"
                 d="M 238.50902,20.734001 H 27.884001 V 163.54701" /></g></g><g
             id="g40"><path
               id="path42"
               style="fill:none;stroke:#231f20;stroke-width:0.5;stroke-linecap:butt;stroke-linejoin:round;stroke-miterlimit:10;stroke-dasharray:none;stroke-opacity:1"
               d="m 126.217,59.526001 0.708,-0.667 1.375,-1.375 0.709,-0.667 2.08301,-2.083 0.70799,-0.667 0.709,-0.708 0.666,-0.667 0.709,-0.708 0.70801,-0.708 0.70799,-0.667 0.66701,-0.708 0.709,-0.667 0.70799,-0.708 0.70801,-0.709 0.66699,-0.708 0.70801,-0.667 0.709,-0.708 0.666,-0.708 0.709,-0.709 0.70799,-0.666 0.70801,-0.709 0.66699,-0.708 2.125,-2.125 0.66701,-0.708 0.70799,-0.667 1.41701,-1.417 0.666,-0.708 0.709,-0.708 0.70799,-0.709 0.70801,-0.708 0.66699,-0.708 0.70801,-0.75 0.709,-0.709 0.666,-0.708 0.709,-0.708 0.70799,-0.709 0.70801,-0.708 0.66699,-0.708 0.70801,-0.75 1.41699,-1.417 0.66701,-0.708 0.70799,-0.75 0.70801,-0.709 0.709,-0.708 0.666,-0.75 0.709,-0.708 0.70799,-0.709 0.70801,-0.75 M 57.175003,123.31801 l 0.709,-0.584 0.665996,-0.625 0.709004,-0.625 0.708,-0.583 0.708,-0.625 0.667,-0.625 0.707996,-0.583 0.709004,-0.625 0.708,-0.625 0.667,-0.584 0.708,-0.625 1.417,-1.25 0.666,-0.583 0.709,-0.625 0.708,-0.625 0.707992,-0.625 0.667008,-0.625 0.708,-0.625 0.709,-0.583 0.666,-0.625 0.709,-0.625 1.416,-1.25 0.667,-0.625 0.708,-0.625 0.709,-0.625 0.708,-0.625 0.667,-0.625 0.708,-0.667 0.708,-0.625 0.709,-0.625 0.666,-0.625 0.709,-0.625 1.416,-1.25 0.667,-0.66701 0.708,-0.624999 0.709,-0.625 0.665992,-0.625 0.709008,-0.665993 1.416,-1.250007 0.667,-0.667 0.707992,-0.625 0.709008,-0.667 0.708,-0.625 0.667,-0.625 0.708,-0.666 0.707992,-0.625 0.709008,-0.667 0.666,-0.625 0.709,-0.667 0.708,-0.625 0.707992,-0.666 0.667008,-0.625 0.708,-0.667 0.709,-0.667 0.666,-0.625 0.709,-0.666 0.708,-0.667 0.707997,-0.625 0.667,-0.667 0.708,-0.667 0.709,-0.625 0.708,-0.666 0.667,-0.667 0.708,-0.667 0.708,-0.666 0.709,-0.625 0.666,-0.667 1.417,-1.333 0.708,-0.667 0.667,-0.667 1.417,-1.333 0.666,-0.667 0.709,-0.666 1.416,-1.334 0.667,-0.666 0.708,-0.667 1.417,-1.333 0.667,-0.667 0.708,-0.667 0.708,-0.708 0.709,-0.667 0.666,-0.666 0.709,-0.667 0.708,-0.667 1.375,-1.375 0.708,-0.665996 0.709,-0.709004 0.708,-0.665996 1.375,-1.375004 m -98.332999,88.583009 0.708,-0.58301 0.667,-0.58299 0.708,-0.584 0.708,-0.58301 0.709,-0.58299 0.665998,-0.54201 0.709004,-0.58299 0.708,-0.584 0.708,-0.58301 0.667,-0.58299 2.125,-1.75 0.667,-0.584 0.708,-0.58301 0.707996,-0.58299 0.709004,-0.584 0.666,-0.58301 0.709,-0.58299 0.708,-0.584 0.667,-0.625 0.708,-0.58301 0.708,-0.58299 0.709,-0.584 0.665996,-0.58301 0.709004,-0.625 1.416,-1.16699 0.667,-0.58301 0.707996,-0.625 0.709004,-0.58299 0.708,-0.584 0.667,-0.625 0.708,-0.58301 0.707996,-0.62499 0.709004,-0.583 0.666,-0.584 0.709,-0.625 0.708,-0.583 0.667,-0.625 0.708,-0.583 0.708,-0.625" /><path
               id="path44"
               style="fill:none;stroke:#231f20;stroke-width:0.5;stroke-linecap:butt;stroke-linejoin:round;stroke-miterlimit:10;stroke-dasharray:3, 3, 3, 3, 3, 3;stroke-dashoffset:0;stroke-opacity:1"
               d="m 135.40501,53.588001 0.709,-0.625 1.41599,-1.25 0.66701,-0.625 0.708,-0.625 0.709,-0.666 0.66599,-0.626 0.70901,-0.624 0.708,-0.626 0.708,-0.624 0.667,-0.626 0.70799,-0.624 0.70901,-0.667004 0.708,-0.624996 0.667,-0.625004 0.708,-0.624996 0.70799,-0.667 0.70901,-0.625 0.666,-0.625 0.709,-0.667 0.708,-0.624 0.70799,-0.626 0.66701,-0.666 0.708,-0.625004 0.709,-0.666996 0.66599,-0.625 0.70901,-0.625 0.708,-0.666 0.708,-0.626 0.667,-0.666 0.70799,-0.625 1.41701,-1.333 0.667,-0.626 0.708,-0.666 0.70799,-0.625002 0.70901,-0.666998 0.666,-0.666 0.709,-0.626 1.41599,-1.332 0.66701,-0.626 1.417,-1.333002 0.66599,-0.624998 0.70901,-0.666 0.708,-0.668 0.708,-0.666 0.667,-0.666 0.70799,-0.626 M 66.363007,112.089 l 0.708,-0.542 0.708,-0.583 0.709,-0.542 0.666,-0.542 0.709,-0.583 0.708,-0.542 0.666,-0.583 0.709,-0.542 0.708,-0.583 0.708,-0.542 0.667,-0.583 0.708,-0.542 0.709,-0.583 0.708,-0.583 0.667,-0.542 0.708,-0.583 0.708,-0.542 0.709,-0.583 0.666,-0.584 0.709,-0.541 0.708,-0.584 0.708,-0.582995 0.667,-0.583 0.708,-0.542 0.709,-0.583 0.666,-0.584008 0.709,-0.582992 0.708,-0.542 0.708,-0.583 0.667,-0.583 0.708,-0.584 0.709,-0.583 0.708,-0.583 0.667,-0.584 0.708,-0.583 0.708,-0.583 0.709,-0.584 0.666,-0.583 0.709,-0.583 0.708,-0.584 0.708,-0.583 0.667,-0.583 0.708,-0.584 0.709,-0.583 0.666,-0.583 1.417,-1.167 0.708,-0.583 0.667993,-0.625 2.12501,-1.75 0.667,-0.583001 0.70799,-0.625 0.70801,-0.583999 0.709,-0.583 0.666,-0.583001 0.709,-0.625 0.70799,-0.583999 0.70801,-0.583 0.667,-0.625 0.708,-0.583001 0.709,-0.625 0.666,-0.583999 0.709,-0.583 0.708,-0.625 0.708,-0.583001 0.66699,-0.625 0.70801,-0.583999 0.709,-0.625 0.708,-0.583 0.667,-0.625 0.70799,-0.625 0.70801,-0.583001 0.709,-0.625 0.666,-0.583999 0.709,-0.625 0.70799,-0.625 0.70801,-0.583 0.667,-0.625 0.708,-0.625 0.709,-0.583001 0.70799,-0.625999 0.66701,-0.625008 0.708,-0.624996 0.708,-0.584 0.66699,-0.623996 0.70801,-0.626004 0.709,-0.623996 0.70799,-0.626004 0.66701,-0.624 0.70799,-0.626 0.70801,-0.583 0.709,-0.625 0.666,-0.625 0.709,-0.625 1.416,-1.25 0.667,-0.625" /><path
               id="path46"
               style="fill:none;stroke:#231f20;stroke-width:0.5;stroke-linecap:butt;stroke-linejoin:round;stroke-miterlimit:10;stroke-dasharray:3, 3, 3, 3, 3, 3;stroke-dashoffset:0;stroke-opacity:1"
               d="m 27.321001,142.17201 0.708,-0.5 0.667,-0.54202 0.708,-0.5 0.709,-0.54099 0.708,-0.5 0.667,-0.54199 0.708002,-0.5 0.708,-0.54201 0.709,-0.5 0.666,-0.541 0.709,-0.5 0.708,-0.54199 0.708,-0.54202 0.667,-0.5 0.708,-0.54099 0.709,-0.54199 0.708,-0.5 0.667,-0.54201 0.708,-0.541 0.708,-0.54199 0.667,-0.5 0.708,-0.54202 1.417,-1.08298 0.667,-0.54201 0.708,-0.541 0.708,-0.5 0.709,-0.542 0.666,-0.542 1.417,-1.083 0.708,-0.542 0.667,-0.541 1.417,-1.084 0.708,-0.541 0.667,-0.542 1.416,-1.083 0.667,-0.542 0.708,-0.542 0.709,-0.541 0.708,-0.584 0.667,-0.541 0.708,-0.542 0.708,-0.542 0.709,-0.541 0.666,-0.584 1.417,-1.083 0.708,-0.542 0.667,-0.583 0.707996,-0.542 0.709008,-0.541 0.708,-0.584 0.667,-0.541" /><path
               id="path48"
               style="fill:none;stroke:#231f20;stroke-width:1;stroke-linecap:butt;stroke-linejoin:round;stroke-miterlimit:10;stroke-dasharray:none;stroke-opacity:1"
               d="m 24.321001,140.214 h 5 m -4.667,-59.334003 h 5 M 165.15501,21.712002 V 16.712 M 95.487007,21.712002 V 16.712" /><text
               id="text52"
               style="font-variant:normal;font-weight:normal;font-size:11.95500088px;font-family:CMMI12;-inkscape-font-specification:CMMI12;writing-mode:lr-tb;fill:#231f20;fill-opacity:1;fill-rule:nonzero;stroke:none"
               transform="matrix(1,0,0,-1,40.2812,139.6559)"><tspan
                 id="tspan50"
                 y="0"
                 x="0">y</tspan></text>
<text
               id="text56"
               style="font-variant:normal;font-weight:normal;font-size:11.95500088px;font-family:CMR12;-inkscape-font-specification:CMR12;writing-mode:lr-tb;fill:#231f20;fill-opacity:1;fill-rule:nonzero;stroke:none"
               transform="matrix(1,0,0,-1,46.417702,139.6559)"><tspan
                 id="tspan54"
                 y="0"
                 x="0 5.8459954">1(</tspan></text>
<text
               id="text60"
               style="font-variant:normal;font-weight:normal;font-size:11.95500088px;font-family:CMMI12;-inkscape-font-specification:CMMI12;writing-mode:lr-tb;fill:#231f20;fill-opacity:1;fill-rule:nonzero;stroke:none"
               transform="matrix(1,0,0,-1,56.823334,139.6559)"><tspan
                 id="tspan58"
                 y="0"
                 x="0">x</tspan></text>
<text
               id="text64"
               style="font-variant:normal;font-weight:normal;font-size:11.95500088px;font-family:CMR12;-inkscape-font-specification:CMR12;writing-mode:lr-tb;fill:#231f20;fill-opacity:1;fill-rule:nonzero;stroke:none"
               transform="matrix(1,0,0,-1,63.476292,139.6559)"><tspan
                 id="tspan62"
                 y="0"
                 x="0">)</tspan></text>
<text
               id="text68"
               style="font-variant:normal;font-weight:normal;font-size:11.95500088px;font-family:CMMI12;-inkscape-font-specification:CMMI12;writing-mode:lr-tb;fill:#231f20;fill-opacity:1;fill-rule:nonzero;stroke:none"
               transform="matrix(1,0,0,-1,153.59668,40.988892)"><tspan
                 id="tspan66"
                 y="0"
                 x="0">y</tspan></text>
<text
               id="text72"
               style="font-variant:normal;font-weight:normal;font-size:11.95500088px;font-family:CMR12;-inkscape-font-specification:CMR12;writing-mode:lr-tb;fill:#231f20;fill-opacity:1;fill-rule:nonzero;stroke:none"
               transform="matrix(1,0,0,-1,159.73318,40.988892)"><tspan
                 id="tspan70"
                 y="0"
                 x="0 5.8459954">2(</tspan></text>
<text
               id="text76"
               style="font-variant:normal;font-weight:normal;font-size:11.95500088px;font-family:CMMI12;-inkscape-font-specification:CMMI12;writing-mode:lr-tb;fill:#231f20;fill-opacity:1;fill-rule:nonzero;stroke:none"
               transform="matrix(1,0,0,-1,170.13762,40.988892)"><tspan
                 id="tspan74"
                 y="0"
                 x="0">x</tspan></text>
<text
               id="text80"
               style="font-variant:normal;font-weight:normal;font-size:11.95500088px;font-family:CMR12;-inkscape-font-specification:CMR12;writing-mode:lr-tb;fill:#231f20;fill-opacity:1;fill-rule:nonzero;stroke:none"
               transform="matrix(1,0,0,-1,176.78938,40.988892)"><tspan
                 id="tspan78"
                 y="0"
                 x="0">)</tspan></text>
<text
               id="text84"
               style="font-variant:normal;font-weight:normal;font-size:11.95500088px;font-family:CMR12;-inkscape-font-specification:CMR12;writing-mode:lr-tb;fill:#231f20;fill-opacity:1;fill-rule:nonzero;stroke:none"
               transform="matrix(1,0,0,-1,18.910452,17.656317)"><tspan
                 id="tspan82"
                 y="0"
                 x="0">0</tspan></text>
<text
               id="text88"
               style="font-variant:normal;font-weight:normal;font-size:11.95500088px;font-family:CMR12;-inkscape-font-specification:CMR12;writing-mode:lr-tb;fill:#231f20;fill-opacity:1;fill-rule:nonzero;stroke:none"
               transform="matrix(1,0,0,-1,17.665936,78.656708)"><tspan
                 id="tspan86"
                 y="0"
                 x="0">1</tspan></text>
<text
               id="text92"
               style="font-variant:normal;font-weight:normal;font-size:11.95500088px;font-family:CMR12;-inkscape-font-specification:CMR12;writing-mode:lr-tb;fill:#231f20;fill-opacity:1;fill-rule:nonzero;stroke:none"
               transform="matrix(1,0,0,-1,17.422054,137.32349)"><tspan
                 id="tspan90"
                 y="0"
                 x="0">2</tspan></text>
<text
               id="text96"
               style="font-variant:normal;font-weight:normal;font-size:11.95500088px;font-family:CMR12;-inkscape-font-specification:CMR12;writing-mode:lr-tb;fill:#231f20;fill-opacity:1;fill-rule:nonzero;stroke:none"
               transform="matrix(1,0,0,-1,24.842524,8.3230534)"><tspan
                 id="tspan94"
                 y="0"
                 x="0 5.8459954">15</tspan></text>
<text
               id="text100"
               style="font-variant:normal;font-weight:normal;font-size:11.95500088px;font-family:CMR12;-inkscape-font-specification:CMR12;writing-mode:lr-tb;fill:#231f20;fill-opacity:1;fill-rule:nonzero;stroke:none"
               transform="matrix(1,0,0,-1,89.452126,7.3224196)"><tspan
                 id="tspan98"
                 y="0"
                 x="0 5.8459954">16</tspan></text>
<text
               id="text104"
               style="font-variant:normal;font-weight:normal;font-size:11.95500088px;font-family:CMR12;-inkscape-font-specification:CMR12;writing-mode:lr-tb;fill:#231f20;fill-opacity:1;fill-rule:nonzero;stroke:none"
               transform="matrix(1,0,0,-1,158.72658,7.3224196)"><tspan
                 id="tspan102"
                 y="0"
                 x="0 5.8459954">17</tspan></text>
<text
               id="text108"
               style="font-variant:normal;font-weight:normal;font-size:11.95500088px;font-family:CMMI12;-inkscape-font-specification:CMMI12;writing-mode:lr-tb;fill:#231f20;fill-opacity:1;fill-rule:nonzero;stroke:none"
               transform="matrix(1,0,0,-1,117.99947,2.9887321)"><tspan
                 id="tspan106"
                 y="0"
                 x="0">x</tspan></text>
<text
               id="text112"
               style="font-variant:normal;font-weight:normal;font-size:11.95500088px;font-family:CMMI12;-inkscape-font-specification:CMMI12;writing-mode:lr-tb;fill:#231f20;fill-opacity:1;fill-rule:nonzero;stroke:none"
               transform="matrix(1,0,0,-1,3.6e-5,115.98859)"><tspan
                 id="tspan110"
                 y="0"
                 x="0">y</tspan></text>
</g></g></g></g></g></svg>