<?xml version="1.0" encoding="UTF-8" standalone="no"?>
<svg
   xmlns:dc="http://purl.org/dc/elements/1.1/"
   xmlns:cc="http://creativecommons.org/ns#"
   xmlns:rdf="http://www.w3.org/1999/02/22-rdf-syntax-ns#"
   xmlns:svg="http://www.w3.org/2000/svg"
   xmlns="http://www.w3.org/2000/svg"
   viewBox="0 0 405.33334 192"
   height="192"
   width="405.33334"
   xml:space="preserve"
   id="svg2"
   version="1.1"><metadata
     id="metadata8"><rdf:RDF><cc:Work
         rdf:about=""><dc:format>image/svg+xml</dc:format><dc:type
           rdf:resource="http://purl.org/dc/dcmitype/StillImage" /></cc:Work></rdf:RDF></metadata><defs
     id="defs6"><clipPath
       id="clipPath24"
       clipPathUnits="userSpaceOnUse"><path
         id="path22"
         d="M 0,0 H 304 V 144 H 0 Z" /></clipPath><clipPath
       id="clipPath86"
       clipPathUnits="userSpaceOnUse"><path
         id="path84"
         d="M 0.06,0.06001282 H 303.27701 V 143.48901 H 0.06 Z" /></clipPath><clipPath
       id="clipPath104"
       clipPathUnits="userSpaceOnUse"><path
         id="path102"
         d="M 0.06,0.06001282 H 303.27701 V 143.48901 H 0.06 Z" /></clipPath></defs><g
     transform="matrix(1.3333333,0,0,-1.3333333,0,192)"
     id="g10"><g
       id="g12" /><g
       id="g14" /><g
       id="g16"><g
         id="g18"><g
           clip-path="url(#clipPath24)"
           id="g20"><g
             id="g26" /><g
             id="g28"><text
               id="text32"
               style="font-variant:normal;font-weight:normal;font-size:11.95500088px;font-family:CMMI12;-inkscape-font-specification:CMMI12;writing-mode:lr-tb;fill:#231f20;fill-opacity:1;fill-rule:nonzero;stroke:none"
               transform="matrix(1,0,0,-1,283.5,126.9016)"><tspan
                 id="tspan30"
                 y="0"
                 x="0">i</tspan></text>
<path
               id="path34"
               style="fill:#231f20;fill-opacity:1;fill-rule:nonzero;stroke:none"
               d="m 283.5,125.468 h 3.99399 v -0.479 H 283.5 Z" /><text
               id="text38"
               style="font-variant:normal;font-weight:normal;font-size:11.95500088px;font-family:CMMI12;-inkscape-font-specification:CMMI12;writing-mode:lr-tb;fill:#231f20;fill-opacity:1;fill-rule:nonzero;stroke:none"
               transform="matrix(1,0,0,-1,194.89801,60.4226)"><tspan
                 id="tspan36"
                 y="0"
                 x="0">r</tspan></text>
<path
               id="path40"
               style="fill:#231f20;fill-opacity:1;fill-rule:nonzero;stroke:none"
               d="m 194.899,58.989002 h 5.601 v -0.479 h -5.601 z" /><text
               id="text44"
               style="font-variant:normal;font-weight:normal;font-size:11.95500088px;font-family:CMMI12;-inkscape-font-specification:CMMI12;writing-mode:lr-tb;fill:#231f20;fill-opacity:1;fill-rule:nonzero;stroke:none"
               transform="matrix(1,0,0,-1,160.5,34.226002)"><tspan
                 id="tspan42"
                 y="0"
                 x="0">j</tspan></text>
<path
               id="path46"
               style="fill:#231f20;fill-opacity:1;fill-rule:nonzero;stroke:none"
               d="m 160.5,30.467001 h 5.515 V 29.989 H 160.5 Z" /><text
               id="text50"
               style="font-variant:normal;font-weight:normal;font-size:11.95500088px;font-family:CMMI12;-inkscape-font-specification:CMMI12;writing-mode:lr-tb;fill:#231f20;fill-opacity:1;fill-rule:nonzero;stroke:none"
               transform="matrix(1,0,0,-1,195.5,2.9890001)"><tspan
                 id="tspan48"
                 y="0"
                 x="0">x</tspan></text>
<text
               id="text54"
               style="font-variant:normal;font-weight:normal;font-size:11.95500088px;font-family:CMMI12;-inkscape-font-specification:CMMI12;writing-mode:lr-tb;fill:#231f20;fill-opacity:1;fill-rule:nonzero;stroke:none"
               transform="matrix(1,0,0,-1,257.49982,64.988831)"><tspan
                 id="tspan52"
                 y="0"
                 x="0">y</tspan></text>
<text
               id="text58"
               style="font-variant:normal;font-weight:normal;font-size:11.95500088px;font-family:CMMI12;-inkscape-font-specification:CMMI12;writing-mode:lr-tb;fill:#231f20;fill-opacity:1;fill-rule:nonzero;stroke:none"
               transform="matrix(1,0,0,-1,160.11319,126.33353)"><tspan
                 id="tspan56"
                 y="0"
                 x="0">O</tspan></text>
<text
               id="text62"
               style="font-variant:normal;font-weight:normal;font-size:11.95500088px;font-family:CMR12;-inkscape-font-specification:CMR12;writing-mode:lr-tb;fill:#231f20;fill-opacity:1;fill-rule:nonzero;stroke:none"
               transform="matrix(1,0,0,-1,100.8917,69.988411)"><tspan
                 id="tspan60"
                 y="0"
                 x="0 5.8459954">77</tspan></text>
<text
               id="text66"
               style="font-variant:normal;font-weight:normal;font-size:11.95500088px;font-family:CMR12;-inkscape-font-specification:CMR12;writing-mode:lr-tb;fill:#231f20;fill-opacity:1;fill-rule:nonzero;stroke:none"
               transform="matrix(1,0,0,-1,116.50014,69.988411)"><tspan
                 id="tspan64"
                 y="0"
                 x="0">m</tspan></text>
<text
               id="text70"
               style="font-variant:normal;font-weight:normal;font-size:11.95500088px;font-family:CMR12;-inkscape-font-specification:CMR12;writing-mode:lr-tb;fill:#231f20;fill-opacity:1;fill-rule:nonzero;stroke:none"
               transform="matrix(1,0,0,-1,59.453278,130.33366)"><tspan
                 id="tspan68"
                 y="0"
                 x="0 8.2848158 12.827716 16.067522 22.559088 28.405083">Bridge</tspan></text>
<text
               id="text74"
               style="font-variant:normal;font-weight:normal;font-size:11.95500088px;font-family:CMR12;-inkscape-font-specification:CMR12;writing-mode:lr-tb;fill:#231f20;fill-opacity:1;fill-rule:nonzero;stroke:none"
               transform="matrix(1,0,0,-1,36.008327,23.334015)"><tspan
                 id="tspan72"
                 y="0"
                 x="0 8.6076012 11.847406">Riv</tspan></text>
<text
               id="text78"
               style="font-variant:normal;font-weight:normal;font-size:11.95500088px;font-family:CMR12;-inkscape-font-specification:CMR12;writing-mode:lr-tb;fill:#231f20;fill-opacity:1;fill-rule:nonzero;stroke:none"
               transform="matrix(1,0,0,-1,53.726837,23.334015)"><tspan
                 id="tspan76"
                 y="0"
                 x="0 5.2004256">er</tspan></text>
</g><g
             id="g80"><g
               clip-path="url(#clipPath86)"
               id="g82"><path
                 id="path88"
                 style="fill:none;stroke:#231f20;stroke-width:1;stroke-linecap:butt;stroke-linejoin:miter;stroke-miterlimit:4;stroke-dasharray:none;stroke-opacity:1"
                 d="m 0.5,142.98901 h 154 v -19 H 0.5 Z m 296,-22 h -142 V 24.989" /></g></g><g
             id="g90"><path
               id="path92"
               style="fill:#231f20;fill-opacity:1;fill-rule:nonzero;stroke:none"
               d="m 155.52501,22.627001 c 0.5,1.652998 0.95999,2.728 1.492,4.054001 h -5.044 c 0.225,-0.475001 0.992,-2.401003 1.49099,-4.054001 0.53501,-1.770001 0.90101,-3.374001 1.03101,-4.414999 0.131,1.040998 0.496,2.644998 1.03,4.414999" /><path
               id="path94"
               style="fill:none;stroke:#231f20;stroke-width:1;stroke-linecap:butt;stroke-linejoin:miter;stroke-miterlimit:4;stroke-dasharray:none;stroke-opacity:1"
               d="m 155.52501,22.627001 c 0.5,1.652998 0.95999,2.728 1.492,4.054001 h -5.044 c 0.225,-0.475001 0.992,-2.401003 1.49099,-4.054001 0.53501,-1.770001 0.90101,-3.374001 1.03101,-4.414999 0.131,1.040998 0.496,2.644998 1.03,4.414999 z" /><path
               id="path96"
               style="fill:#231f20;fill-opacity:1;fill-rule:nonzero;stroke:none"
               d="m 298.862,122.01401 c -1.65201,0.499 -2.728,0.959 -4.05399,1.49199 v -5.04499 c 0.47501,0.22599 2.40198,0.99299 4.05399,1.49199 1.76901,0.53501 3.375,0.9 4.41501,1.03101 -1.04001,0.13 -2.646,0.49599 -4.41501,1.03" /></g><g
             id="g98"><g
               clip-path="url(#clipPath104)"
               id="g100"><path
                 id="path106"
                 style="fill:none;stroke:#231f20;stroke-width:1;stroke-linecap:butt;stroke-linejoin:miter;stroke-miterlimit:4;stroke-dasharray:none;stroke-opacity:1"
                 d="m 0.5,17.989 h 298" /></g></g><g
             id="g108"><path
               id="path110"
               style="fill:#231f20;fill-opacity:1;fill-rule:nonzero;stroke:none"
               d="M 112.5,57.989002 V 25.989" /><path
               id="path112"
               style="fill:none;stroke:#231f20;stroke-width:1;stroke-linecap:butt;stroke-linejoin:miter;stroke-miterlimit:4;stroke-dasharray:none;stroke-opacity:1"
               d="M 112.5,57.989002 V 25.989" /><path
               id="path114"
               style="fill:#231f20;fill-opacity:1;fill-rule:nonzero;stroke:none"
               d="M 112.5,114.98901 V 83.989006" /><path
               id="path116"
               style="fill:none;stroke:#231f20;stroke-width:1;stroke-linecap:butt;stroke-linejoin:miter;stroke-miterlimit:4;stroke-dasharray:none;stroke-opacity:1"
               d="M 112.5,114.98901 V 83.989006" /><path
               id="path118"
               style="fill:#231f20;fill-opacity:1;fill-rule:nonzero;stroke:none"
               d="m 113.52501,23.627001 c 0.5,1.652998 0.96,2.728 1.492,4.054001 h -5.044 c 0.225,-0.475001 0.99199,-2.401003 1.49099,-4.054001 0.53501,-1.770001 0.90101,-3.374001 1.031,-4.414999 0.13101,1.040998 0.496,2.644998 1.03001,4.414999" /><path
               id="path120"
               style="fill:none;stroke:#231f20;stroke-width:1;stroke-linecap:butt;stroke-linejoin:miter;stroke-miterlimit:4;stroke-dasharray:none;stroke-opacity:1"
               d="m 113.52501,23.627001 c 0.5,1.652998 0.96,2.728 1.492,4.054001 h -5.044 c 0.225,-0.475001 0.99199,-2.401003 1.49099,-4.054001 0.53501,-1.770001 0.90101,-3.374001 1.031,-4.414999 0.13101,1.040998 0.496,2.644998 1.03001,4.414999 z" /><path
               id="path122"
               style="fill:#231f20;fill-opacity:1;fill-rule:nonzero;stroke:none"
               d="m 111.47601,117.35101 c -0.5,-1.654 -0.96,-2.728 -1.492,-4.05401 h 5.044 c -0.225,0.474 -0.99201,2.40001 -1.49101,4.05401 -0.53499,1.76899 -0.901,3.374 -1.031,4.414 -0.12999,-1.04 -0.49601,-2.64501 -1.02999,-4.414" /><path
               id="path124"
               style="fill:none;stroke:#231f20;stroke-width:1;stroke-linecap:butt;stroke-linejoin:miter;stroke-miterlimit:4;stroke-dasharray:none;stroke-opacity:1"
               d="m 111.47601,117.35101 c -0.5,-1.654 -0.96,-2.728 -1.492,-4.05401 h 5.044 c -0.225,0.474 -0.99201,2.40001 -1.49101,4.05401 -0.53499,1.76899 -0.901,3.374 -1.031,4.414 -0.12999,-1.04 -0.49601,-2.64501 -1.02999,-4.414 z" /><path
               id="path126"
               style="fill:#231f20;fill-opacity:1;fill-rule:nonzero;stroke:none"
               d="M 154.5,120.98901 250.5,18.989" /><path
               id="path128"
               style="fill:none;stroke:#231f20;stroke-width:1;stroke-linecap:butt;stroke-linejoin:miter;stroke-miterlimit:4;stroke-dasharray:none;stroke-opacity:1"
               d="M 154.5,120.98901 250.5,18.989" /><path
               id="path130"
               style="fill:#231f20;fill-opacity:1;fill-rule:nonzero;stroke:none"
               d="m 248.61601,22.221001 c -0.77,1.545999 -1.171,2.644001 -1.69301,3.975 L 243.25,22.739 c 0.48999,-0.191 2.36801,-1.067999 3.86501,-1.930999 1.602,-0.921999 2.968,-1.840001 3.776,-2.508 -0.618,0.847 -1.452,2.267 -2.275,3.921" /><path
               id="path132"
               style="fill:none;stroke:#231f20;stroke-width:1;stroke-linecap:butt;stroke-linejoin:miter;stroke-miterlimit:4;stroke-dasharray:3, 3, 3, 3, 3, 3;stroke-dashoffset:0;stroke-opacity:1"
               d="m 154.5,14.989 h 96 v 103.00001" /></g></g></g></g></g></svg>