<?xml version="1.0" encoding="UTF-8" standalone="no"?>
<svg
   xmlns:dc="http://purl.org/dc/elements/1.1/"
   xmlns:cc="http://creativecommons.org/ns#"
   xmlns:rdf="http://www.w3.org/1999/02/22-rdf-syntax-ns#"
   xmlns:svg="http://www.w3.org/2000/svg"
   xmlns="http://www.w3.org/2000/svg"
   viewBox="0 0 284 77.333336"
   height="77.333336"
   width="284"
   xml:space="preserve"
   id="svg2"
   version="1.1"><metadata
     id="metadata8"><rdf:RDF><cc:Work
         rdf:about=""><dc:format>image/svg+xml</dc:format><dc:type
           rdf:resource="http://purl.org/dc/dcmitype/StillImage" /></cc:Work></rdf:RDF></metadata><defs
     id="defs6"><clipPath
       id="clipPath24"
       clipPathUnits="userSpaceOnUse"><path
         id="path22"
         d="M 0,0 H 213 V 58 H 0 Z" /></clipPath><clipPath
       id="clipPath34"
       clipPathUnits="userSpaceOnUse"><path
         id="path32"
         d="M 0.06,0 H 212.51502 V 57.067001 H 0.06 Z" /></clipPath><clipPath
       id="clipPath54"
       clipPathUnits="userSpaceOnUse"><path
         id="path52"
         d="M 0.06,0 H 212.51502 V 57.067001 H 0.06 Z" /></clipPath><clipPath
       id="clipPath72"
       clipPathUnits="userSpaceOnUse"><path
         id="path70"
         d="M 0.06,0 H 212.51502 V 57.067001 H 0.06 Z" /></clipPath></defs><g
     transform="matrix(1.3333333,0,0,-1.3333333,0,77.333333)"
     id="g10"><g
       id="g12" /><g
       id="g14" /><g
       id="g16"><g
         id="g18"><g
           clip-path="url(#clipPath24)"
           id="g20"><g
             id="g26" /><g
             id="g28"><g
               clip-path="url(#clipPath34)"
               id="g30"><path
                 id="path36"
                 style="fill:none;stroke:#231f20;stroke-width:1;stroke-linecap:butt;stroke-linejoin:round;stroke-miterlimit:10;stroke-dasharray:none;stroke-opacity:1"
                 d="M 19.577002,35.905003 C 38.324001,43.540001 71.145004,48.600002 108.5,48.600002 c 22.724,0 43.76999,-1.873001 60.98999,-5.057998 M 0,36.100002 H 172.75 M 19,31.601002 v 12.999" /></g></g><g
             id="g38"><path
               id="path40"
               style="fill:#231f20;fill-opacity:1;fill-rule:nonzero;stroke:none"
               d="m 17.975,46.962002 c -0.498998,-1.653 -0.958999,-2.728001 -1.491998,-4.054001 h 5.045 c -0.226,0.474003 -0.993,2.401001 -1.492001,4.054001 -0.535,1.77 -0.899999,3.374 -1.031,4.415001 C 18.875,50.336002 18.509001,48.732002 17.975,46.962002" /><path
               id="path42"
               style="fill:none;stroke:#231f20;stroke-width:1;stroke-linecap:butt;stroke-linejoin:round;stroke-miterlimit:10;stroke-dasharray:none;stroke-opacity:1"
               d="M 20.117001,36.494003 H 62.117004" /><path
               id="path44"
               style="fill:#231f20;fill-opacity:1;fill-rule:nonzero;stroke:none"
               d="m 64.479004,37.519001 c -1.653,0.5 -2.728001,0.959999 -4.054001,1.492001 v -5.044999 c 0.474999,0.225998 2.401001,0.993 4.054001,1.491997 1.769997,0.535 3.374,0.900002 4.415001,1.031002 -1.041001,0.130001 -2.645004,0.495999 -4.415001,1.029999" /><path
               id="path46"
               style="fill:#524e4f;fill-opacity:1;fill-rule:nonzero;stroke:none"
               d="m 178,43.349998 c 0,-4.555995 -2.35001,-8.249996 -5.25,-8.249996 -2.89899,0 -5.25,3.694001 -5.25,8.249996 0,4.556004 2.35101,8.250004 5.25,8.250004 2.89999,0 5.25,-3.694 5.25,-8.250004" /></g><g
             id="g48"><g
               clip-path="url(#clipPath54)"
               id="g50"><path
                 id="path56"
                 style="fill:none;stroke:#231f20;stroke-width:1;stroke-linecap:butt;stroke-linejoin:round;stroke-miterlimit:10;stroke-dasharray:none;stroke-opacity:1"
                 d="m 178,43.349998 c 0,-4.555995 -2.35001,-8.249996 -5.25,-8.249996 -2.89899,0 -5.25,3.694001 -5.25,8.249996 0,4.556004 2.35101,8.250004 5.25,8.250004 2.89999,0 5.25,-3.694 5.25,-8.250004 z M 172.5,32.700001 V 2.25" /><path
                 id="path58"
                 style="fill:#231f20;fill-opacity:1;fill-rule:nonzero;stroke:none"
                 d="M 172.5,5.75 165.75,1.0250001 H 178 L 172.5,5.75" /><path
                 id="path60"
                 style="fill:none;stroke:#231f20;stroke-width:1;stroke-linecap:butt;stroke-linejoin:round;stroke-miterlimit:10;stroke-dasharray:none;stroke-opacity:1"
                 d="M 172.5,5.75 165.75,1.0250001 H 178 Z" /></g></g><g
             id="g62"><path
               id="path64"
               style="fill:#231f20;fill-opacity:1;fill-rule:nonzero;stroke:none"
               d="M 22.5,0.5 H 192" /></g><g
             id="g66"><g
               clip-path="url(#clipPath72)"
               id="g68"><path
                 id="path74"
                 style="fill:none;stroke:#231f20;stroke-width:1;stroke-linecap:butt;stroke-linejoin:round;stroke-miterlimit:10;stroke-dasharray:none;stroke-opacity:1"
                 d="M 22.5,0.5 H 192" /></g></g><g
             id="g76"><text
               id="text80"
               style="font-variant:normal;font-weight:normal;font-size:11.95500088px;font-family:CMMI12;-inkscape-font-specification:CMMI12;writing-mode:lr-tb;fill:#231f20;fill-opacity:1;fill-rule:nonzero;stroke:none"
               transform="matrix(1,0,0,-1,56.4072,25.100199)"><tspan
                 id="tspan78"
                 y="0"
                 x="0">x</tspan></text>
<text
               id="text84"
               style="font-variant:normal;font-weight:normal;font-size:11.95500088px;font-family:CMMI12;-inkscape-font-specification:CMMI12;writing-mode:lr-tb;fill:#231f20;fill-opacity:1;fill-rule:nonzero;stroke:none"
               transform="matrix(1,0,0,-1,8.9613886,48.100426)"><tspan
                 id="tspan82"
                 y="0"
                 x="0">y</tspan></text>
<text
               id="text88"
               style="font-variant:normal;font-weight:normal;font-size:11.95500088px;font-family:CMR12;-inkscape-font-specification:CMR12;writing-mode:lr-tb;fill:#231f20;fill-opacity:1;fill-rule:nonzero;stroke:none"
               transform="matrix(1,0,0,-1,86.00061,21.100058)"><tspan
                 id="tspan86"
                 y="0"
                 x="0">4</tspan></text>
<text
               id="text92"
               style="font-variant:normal;font-weight:normal;font-size:11.95500088px;font-family:CMR12;-inkscape-font-specification:CMR12;writing-mode:lr-tb;fill:#231f20;fill-opacity:1;fill-rule:nonzero;stroke:none"
               transform="matrix(1,0,0,-1,95.75589,21.100058)"><tspan
                 id="tspan90"
                 y="0"
                 x="0">m</tspan></text>
<text
               id="text96"
               style="font-variant:normal;font-weight:normal;font-size:11.95500088px;font-family:CMR12;-inkscape-font-specification:CMR12;writing-mode:lr-tb;fill:#231f20;fill-opacity:1;fill-rule:nonzero;stroke:none"
               transform="matrix(1,0,0,-1,183.91206,38.599789)"><tspan
                 id="tspan94"
                 y="0"
                 x="0 5.8459954 9.0858011">0.1</tspan></text>
<text
               id="text100"
               style="font-variant:normal;font-weight:normal;font-size:11.95500088px;font-family:CMR12;-inkscape-font-specification:CMR12;writing-mode:lr-tb;fill:#231f20;fill-opacity:1;fill-rule:nonzero;stroke:none"
               transform="matrix(1,0,0,-1,202.77107,38.599789)"><tspan
                 id="tspan98"
                 y="0"
                 x="0">m</tspan></text>
<text
               id="text104"
               style="font-variant:normal;font-weight:normal;font-size:11.95500088px;font-family:CMR12;-inkscape-font-specification:CMR12;writing-mode:lr-tb;fill:#231f20;fill-opacity:1;fill-rule:nonzero;stroke:none"
               transform="matrix(1,0,0,-1,9.1443062,25.076292)"><tspan
                 id="tspan102"
                 y="0"
                 x="0">O</tspan></text>
</g></g></g></g></g></svg>