<?xml version="1.0" encoding="UTF-8" standalone="no"?>
<svg
   xmlns:dc="http://purl.org/dc/elements/1.1/"
   xmlns:cc="http://creativecommons.org/ns#"
   xmlns:rdf="http://www.w3.org/1999/02/22-rdf-syntax-ns#"
   xmlns:svg="http://www.w3.org/2000/svg"
   xmlns="http://www.w3.org/2000/svg"
   viewBox="0 0 260 177.33333"
   height="177.33333"
   width="260"
   xml:space="preserve"
   id="svg2"
   version="1.1"><metadata
     id="metadata8"><rdf:RDF><cc:Work
         rdf:about=""><dc:format>image/svg+xml</dc:format><dc:type
           rdf:resource="http://purl.org/dc/dcmitype/StillImage" /></cc:Work></rdf:RDF></metadata><defs
     id="defs6"><clipPath
       id="clipPath24"
       clipPathUnits="userSpaceOnUse"><path
         id="path22"
         d="M 0,0 H 195 V 133 H 0 Z" /></clipPath><clipPath
       id="clipPath34"
       clipPathUnits="userSpaceOnUse"><path
         id="path32"
         d="M 0.06,0.05999756 H 194.32801 V 132.97701 H 0.06 Z" /></clipPath><clipPath
       id="clipPath94"
       clipPathUnits="userSpaceOnUse"><path
         id="path92"
         d="M 0.06,0.05999756 H 194.32801 V 132.97701 H 0.06 Z" /></clipPath><clipPath
       id="clipPath112"
       clipPathUnits="userSpaceOnUse"><path
         id="path110"
         d="M 0.06,0.05999756 H 194.32801 V 132.97701 H 0.06 Z" /></clipPath></defs><g
     transform="matrix(1.3333333,0,0,-1.3333333,0,177.33333)"
     id="g10"><g
       id="g12" /><g
       id="g14" /><g
       id="g16"><g
         id="g18"><g
           clip-path="url(#clipPath24)"
           id="g20"><g
             id="g26" /><g
             id="g28"><g
               clip-path="url(#clipPath34)"
               id="g30"><path
                 id="path36"
                 style="fill:none;stroke:#231f20;stroke-width:0.5;stroke-linecap:butt;stroke-linejoin:round;stroke-miterlimit:10;stroke-dasharray:none;stroke-opacity:1"
                 d="m 52.499004,27.068001 h 1.8 M 53.400002,27.968 v -1.799999 m 32.399002,0.9 h 1.800994 M 86.699005,27.968 v -1.799999 m 32.426005,0.9 H 120.924 M 120.02501,27.968 v -1.799999 m 32.399,0.9 h 1.801 m -0.9,0.899999 v -1.799999 m -100.826006,0.9 h 1.8 M 53.400002,27.968 v -1.799999 m -0.900998,36.101004 h 1.8 m -1.642003,36.157997 v -1.799995 m -0.157997,0.866996 h 1.8 m -1.642003,-34.292 V 61.402004 M 52.499004,132.694 h 1.8 M 52.657001,28.001001 v -1.798999" /><path
                 id="path38"
                 style="fill:none;stroke:#231f20;stroke-width:1;stroke-linecap:butt;stroke-linejoin:round;stroke-miterlimit:10;stroke-dasharray:none;stroke-opacity:1"
                 d="M 53.400002,27.068001 H 187.29901 m -133.899008,0 V 132.694" /><path
                 id="path40"
                 style="fill:none;stroke:#231f20;stroke-width:0.5;stroke-linecap:butt;stroke-linejoin:round;stroke-miterlimit:10;stroke-dasharray:none;stroke-opacity:1"
                 d="m 165.80701,33.077 -0.024,0.074 -0.05,0.051 -0.025,0.05 -0.026,0.075 -0.049,0.05 -0.025,0.05 -0.025,0.075 -0.05,0.05 -0.026,0.05 -0.024,0.075 -0.051,0.05 -0.024,0.049 -0.026,0.076 -0.049,0.049 -0.026,0.051 -0.025,0.075 -0.049,0.05 -0.025,0.05 -0.026,0.075 -0.05,0.05 -0.024,0.05 -0.025,0.075 -0.05,0.05 -0.026,0.05 -0.024,0.075 -0.051,0.05 -0.025,0.049 -0.024,0.076 -0.05,0.05 -0.026,0.05 -0.024,0.074 -0.05,0.051 -0.025,0.05 -0.026,0.075 -0.05,0.05 -0.024,0.05 -0.025,0.075 -0.051,0.05 -0.024,0.05 -0.025,0.075 -0.051,0.05 -0.024,0.05 -0.026,0.075 -0.049,0.049 -0.026,0.051 -0.024,0.075 -0.05,0.05 -0.025,0.05 -0.026,0.05 -0.049,0.075 -0.025,0.05 -0.025,0.05 -0.05,0.075 -0.026,0.05 -0.024,0.05 -0.051,0.075 -0.024,0.049 -0.026,0.051 -0.049,0.075 -0.026,0.05 -0.025,0.05 -0.049,0.05 -0.025,0.075 -0.026,0.05 -0.05,0.05 -0.024,0.075 -0.025,0.05 -0.05,0.05 -0.026,0.075 -0.024,0.049 -0.051,0.051 -0.025,0.05 -0.024,0.075 -0.05,0.05 -0.026,0.05 -0.024,0.075 -0.05,0.05 -0.025,0.05 -0.026,0.075 -0.05,0.05 -0.024,0.05 -0.025,0.05 -0.051,0.074 -0.024,0.051 -0.025,0.05 -0.051,0.075 -0.024,0.05 -0.026,0.05 -0.049,0.05 -0.026,0.075 -0.024,0.05 -0.05,0.05 -0.025,0.075 -0.026,0.05 -0.049,0.05 -0.025,0.05 -0.025,0.075 -0.05,0.05 -0.026,0.05 m 0,0 -0.024,0.05 -0.051,0.075 -0.024,0.05 -0.026,0.049 -0.049,0.076 -0.026,0.049 -0.025,0.051 -0.049,0.05 -0.025,0.075 -0.026,0.05 -0.05,0.05 -0.024,0.075 -0.025,0.05 -0.05,0.05 -0.026,0.05 -0.024,0.075 -0.051,0.049 -0.025,0.051 -0.024,0.05 -0.05,0.075 -0.026,0.05 -0.024,0.05 -0.05,0.05 -0.025,0.075 -0.026,0.05 -0.05,0.049 -0.024,0.051 -0.025,0.075 -0.051,0.05 -0.024,0.05 -0.025,0.075 -0.051,0.05 -0.024,0.05 -0.026,0.05 -0.049,0.075 -0.026,0.05 -0.024,0.049 -0.05,0.051 -0.025,0.075 -0.026,0.05 -0.049,0.05 -0.025,0.05 -0.025,0.075 -0.05,0.05 -0.026,0.05 -0.024,0.05 -0.051,0.075 -0.024,0.05 -0.026,0.05 -0.049,0.05 -0.026,0.075 -0.025,0.05 -0.049,0.05 -0.025,0.05 -0.026,0.05 -0.05,0.075 -0.024,0.049 -0.025,0.051 -0.05,0.05 -0.026,0.075 -0.024,0.05 -0.051,0.05 -0.025,0.05 -0.024,0.075 -0.05,0.05 -0.026,0.05 -0.024,0.05 -0.05,0.075 -0.025,0.05 -0.026,0.05 -0.05,0.05 -0.024,0.05 -0.025,0.075 -0.051,0.05 -0.024,0.05 -0.025,0.05 -0.051,0.074 -0.024,0.051 -0.026,0.05 -0.049,0.05 -0.026,0.05 -0.024,0.075 -0.05,0.05 -0.025,0.049 -0.026,0.051 -0.049,0.075 -0.025,0.05 -0.025,0.05 -0.05,0.05 -0.026,0.05 -0.024,0.075 -0.051,0.05 -0.024,0.05 -0.026,0.05 -0.049,0.075 -0.026,0.05 -0.025,0.05 -0.049,0.05 -0.025,0.05 m 0,0 -0.026,0.075 -0.05,0.05 -0.024,0.05 -0.025,0.05 -0.05,0.05 -0.026,0.075 -0.024,0.05 -0.051,0.05 -0.025,0.05 -0.024,0.05 -0.05,0.075 -0.026,0.049 -0.024,0.051 -0.05,0.05 -0.025,0.05 -0.026,0.075 -0.024,0.05 -0.05,0.05 -0.025,0.049 -0.026,0.051 -0.049,0.075 -0.025,0.05 -0.025,0.05 -0.05,0.05 -0.026,0.05 -0.024,0.075 -0.051,0.05 -0.024,0.05 -0.026,0.05 -0.049,0.05 -0.026,0.075 -0.025,0.05 -0.049,0.05 -0.025,0.05 -0.026,0.05 -0.05,0.05 -0.024,0.075 -0.025,0.05 -0.05,0.05 -0.026,0.05 -0.024,0.05 -0.051,0.075 -0.025,0.05 -0.024,0.05 -0.05,0.05 -0.026,0.05 -0.024,0.05 -0.05,0.075 -0.025,0.05 -0.026,0.05 -0.05,0.05 -0.024,0.05 -0.025,0.074 -0.051,0.051 -0.024,0.05 -0.025,0.05 -0.051,0.05 -0.024,0.05 -0.026,0.075 -0.049,0.049 -0.026,0.051 -0.024,0.05 -0.05,0.05 -0.025,0.05 -0.026,0.075 -0.049,0.05 -0.025,0.049 -0.025,0.051 -0.05,0.05 -0.026,0.05 -0.024,0.075 -0.051,0.05 -0.024,0.05 -0.026,0.049 -0.049,0.051 -0.026,0.05 -0.025,0.05 -0.049,0.075 -0.025,0.05 -0.026,0.05 -0.05,0.049 -0.024,0.051 -0.025,0.05 -0.05,0.075 -0.026,0.05 -0.024,0.05 -0.051,0.05 -0.025,0.05 -0.024,0.05 -0.05,0.05 -0.026,0.075 -0.024,0.05 -0.05,0.05 -0.025,0.05 -0.026,0.05 -0.05,0.05 -0.024,0.05 -0.025,0.075 -0.051,0.05 m 0,0 -0.024,0.05 -0.025,0.05 -0.051,0.049 -0.024,0.051 -0.026,0.05 -0.049,0.075 -0.026,0.05 -0.024,0.05 -0.05,0.05 -0.025,0.049 -0.026,0.051 -0.049,0.05 -0.025,0.075 -0.025,0.05 -0.05,0.05 -0.026,0.05 -0.024,0.049 -0.051,0.051 -0.024,0.05 -0.026,0.05 -0.049,0.075 -0.026,0.05 -0.025,0.05 -0.049,0.049 -0.025,0.051 -0.026,0.05 -0.05,0.05 -0.024,0.05 -0.025,0.075 -0.05,0.05 -0.026,0.049 -0.024,0.051 -0.051,0.05 -0.025,0.05 -0.024,0.05 -0.05,0.05 -0.026,0.075 -0.024,0.049 -0.05,0.051 -0.025,0.05 -0.026,0.05 -0.05,0.05 -0.024,0.05 -0.025,0.05 -0.051,0.05 -0.024,0.075 -0.025,0.05 -0.051,0.05 -0.024,0.05 -0.026,0.05 -0.049,0.05 -0.026,0.05 -0.024,0.05 -0.05,0.05 -0.025,0.075 -0.026,0.05 -0.049,0.05 -0.025,0.05 -0.025,0.05 -0.05,0.05 -0.026,0.05 -0.024,0.05 -0.051,0.05 -0.024,0.05 -0.026,0.075 -0.049,0.05 -0.026,0.05 -0.025,0.05 -0.049,0.05 -0.025,0.05 -0.026,0.05 -0.05,0.05 -0.024,0.05 -0.025,0.049 -0.05,0.051 -0.026,0.075 -0.024,0.05 -0.051,0.05 -0.025,0.05 -0.024,0.05 -0.05,0.049 -0.026,0.051 -0.024,0.05 -0.05,0.05 -0.025,0.05 -0.026,0.05 -0.05,0.05 -0.024,0.074 -0.025,0.051 -0.051,0.05 -0.024,0.05 -0.025,0.05 -0.051,0.05 -0.024,0.05 -0.026,0.05 -0.049,0.05 -0.026,0.05 -0.024,0.05 -0.05,0.05 m 0,0 -0.025,0.05 -0.026,0.075 -0.049,0.05 -0.025,0.05 -0.025,0.05 -0.05,0.049 -0.026,0.051 -0.024,0.05 -0.051,0.05 -0.024,0.05 -0.026,0.049 -0.049,0.051 -0.026,0.05 -0.025,0.05 -0.049,0.05 -0.025,0.05 -0.026,0.075 -0.05,0.049 -0.024,0.051 -0.025,0.05 -0.05,0.05 -0.026,0.05 -0.024,0.05 -0.051,0.05 -0.025,0.05 -0.024,0.05 -0.05,0.05 -0.026,0.05 -0.024,0.05 -0.05,0.05 -0.025,0.05 -0.026,0.05 -0.05,0.049 -0.024,0.051 -0.025,0.075 -0.051,0.05 -0.024,0.05 -0.025,0.05 -0.051,0.05 -0.024,0.049 -0.026,0.051 -0.049,0.05 -0.026,0.05 -0.024,0.05 -0.05,0.05 -0.025,0.05 -0.026,0.05 -0.049,0.05 -0.025,0.05 -0.025,0.05 -0.05,0.05 -0.026,0.05 -0.024,0.05 -0.051,0.05 -0.024,0.049 -0.026,0.051 -0.049,0.05 -0.026,0.05 -0.025,0.05 -0.049,0.075 -0.025,0.05 -0.026,0.049 -0.05,0.051 -0.024,0.05 -0.025,0.05 -0.05,0.05 -0.026,0.05 -0.024,0.05 -0.051,0.05 -0.025,0.05 -0.024,0.05 -0.05,0.05 -0.026,0.05 -0.024,0.05 -0.05,0.05 -0.025,0.05 -0.026,0.049 -0.05,0.051 -0.024,0.05 -0.025,0.05 -0.051,0.05 -0.024,0.05 -0.025,0.05 -0.051,0.05 -0.024,0.05 -0.026,0.05 -0.049,0.05 -0.026,0.05 -0.024,0.05 -0.05,0.05 -0.025,0.05 -0.026,0.05 -0.049,0.05 -0.025,0.05 -0.025,0.05 -0.05,0.05 -0.026,0.05 -0.024,0.05 -0.051,0.05 m 0,0 -0.024,0.05 -0.026,0.05 -0.049,0.05 -0.026,0.05 -0.025,0.05 -0.049,0.05 -0.025,0.05 -0.026,0.049 -0.05,0.051 -0.024,0.05 -0.025,0.05 -0.05,0.05 -0.026,0.05 -0.024,0.05 -0.051,0.05 -0.025,0.05 -0.024,0.05 -0.05,0.05 -0.026,0.05 -0.024,0.05 -0.05,0.05 -0.025,0.05 -0.026,0.049 -0.05,0.051 -0.024,0.05 -0.025,0.05 -0.051,0.05 -0.024,0.05 -0.025,0.05 -0.051,0.05 -0.024,0.05 -0.026,0.05 -0.049,0.05 -0.026,0.05 -0.024,0.05 -0.05,0.05 -0.025,0.05 -0.026,0.049 -0.049,0.051 -0.025,0.05 -0.025,0.05 -0.05,0.05 -0.026,0.05 -0.024,0.05 -0.051,0.05 -0.024,0.05 -0.026,0.05 -0.049,0.05 -0.026,0.05 -0.025,0.05 -0.049,0.05 -0.025,0.05 -0.026,0.049 -0.05,0.026 -0.024,0.05 -0.025,0.05 -0.026,0.05 -0.05,0.05 -0.024,0.05 -0.025,0.05 -0.051,0.049 -0.024,0.051 -0.025,0.05 -0.051,0.05 -0.024,0.05 -0.026,0.05 -0.049,0.05 -0.026,0.05 -0.024,0.05 -0.05,0.05 -0.025,0.05 -0.026,0.05 -0.049,0.05 -0.025,0.05 -0.025,0.05 -0.05,0.05 -0.026,0.05 -0.024,0.025 -0.051,0.05 -0.024,0.05 -0.026,0.05 -0.049,0.04999 -0.026,0.05 -0.025,0.04999 -0.049,0.05 -0.025,0.05 -0.026,0.04999 -0.05,0.05 -0.024,0.04999 -0.025,0.05 -0.05,0.05 -0.026,0.04999 -0.024,0.05 -0.051,0.04999 -0.025,0.05 -0.024,0.025 -0.05,0.04999 -0.026,0.05 -0.024,0.05 m 0,0 -0.05,0.04999 -0.025,0.05 -0.026,0.04999 -0.05,0.05 -0.024,0.05 -0.025,0.04999 -0.051,0.05 -0.024,0.04999 -0.025,0.05 -0.051,0.05 -0.024,0.04999 -0.026,0.025 -0.049,0.05 -0.026,0.04999 -0.024,0.05 -0.05,0.04999 -0.025,0.05 -0.026,0.05 -0.049,0.04999 -0.025,0.05 -0.025,0.04999 -0.05,0.05 -0.026,0.05 -0.024,0.04999 -0.051,0.025 -0.024,0.05 -0.026,0.04999 -0.049,0.05 -0.026,0.04999 -0.025,0.05 -0.049,0.05 -0.025,0.04999 -0.026,0.05 -0.05,0.04999 -0.024,0.05 -0.025,0.05 -0.05,0.02499 -0.026,0.05 -0.024,0.05 -0.051,0.04999 -0.025,0.05 -0.024,0.04999 -0.05,0.05 -0.026,0.05 -0.024,0.04999 -0.05,0.05 -0.025,0.04999 -0.026,0.025 -0.05,0.05 -0.024,0.04999 -0.025,0.05 -0.051,0.05 -0.024,0.04999 -0.025,0.05 -0.051,0.04999 -0.024,0.05 -0.026,0.05 -0.049,0.02499 -0.026,0.05 -0.024,0.05 -0.05,0.04999 -0.025,0.05 -0.026,0.04999 -0.049,0.05 -0.025,0.05 -0.025,0.04999 -0.05,0.025 -0.026,0.05 -0.024,0.04999 -0.051,0.05 -0.024,0.04999 -0.026,0.05 -0.049,0.05 -0.026,0.04999 -0.025,0.05 -0.049,0.025 -0.025,0.04999 -0.026,0.05 -0.05,0.04999 -0.024,0.05 -0.025,0.05 -0.05,0.04999 -0.026,0.05 -0.024,0.04999 -0.051,0.025 -0.025,0.05 -0.024,0.04999 -0.05,0.05 -0.026,0.05 -0.024,0.04999 -0.05,0.05 -0.025,0.04999 -0.026,0.025 -0.05,0.05 -0.024,0.04999 -0.025,0.05 -0.051,0.05 -0.024,0.04999 -0.025,0.05 m 0,0 -0.051,0.025 -0.024,0.04999 -0.026,0.05 -0.049,0.04999 -0.026,0.05 -0.024,0.05 -0.05,0.04999 -0.025,0.05 -0.026,0.025 -0.049,0.04999 -0.025,0.05 -0.025,0.04999 -0.05,0.05 -0.026,0.05 -0.024,0.04999 -0.051,0.025 -0.024,0.05 -0.026,0.04999 -0.049,0.05 -0.026,0.04999 -0.025,0.05 -0.049,0.05 -0.025,0.02499 -0.026,0.05 -0.05,0.05 -0.024,0.04999 -0.025,0.05 -0.05,0.04999 -0.026,0.025 -0.024,0.05 -0.051,0.04999 -0.025,0.05 -0.024,0.05 -0.05,0.04999 -0.026,0.05 -0.024,0.025 -0.05,0.04999 -0.025,0.05 -0.026,0.04999 -0.05,0.05 -0.024,0.05 -0.025,0.02499 -0.051,0.05 -0.024,0.05 -0.025,0.04999 -0.051,0.05 -0.024,0.04999 -0.026,0.025 -0.049,0.05 -0.026,0.04999 -0.024,0.05 -0.05,0.05 -0.025,0.04999 -0.026,0.025 -0.049,0.05 -0.025,0.04999 -0.025,0.05 -0.05,0.04999 -0.026,0.05 -0.024,0.025 -0.051,0.04999 -0.024,0.05 -0.026,0.05 -0.049,0.04999 -0.026,0.05 -0.025,0.025 -0.049,0.04999 -0.025,0.05 -0.026,0.04999 -0.05,0.05 -0.024,0.025 -0.025,0.04999 -0.05,0.05 -0.026,0.05 -0.024,0.04999 -0.051,0.05 -0.025,0.025 -0.024,0.04999 -0.05,0.05 -0.026,0.04999 -0.024,0.05 -0.05,0.025 -0.025,0.04999 -0.026,0.05 -0.05,0.05 -0.024,0.04999 -0.025,0.05 -0.051,0.025 -0.024,0.04999 -0.025,0.05 -0.051,0.04999 -0.024,0.05 -0.026,0.025 -0.049,0.04999 -0.026,0.05 -0.024,0.05 -0.05,0.04999 -0.025,0.025 -0.026,0.05 m 0,0 -0.049,0.04999 -0.025,0.05 -0.025,0.04999 -0.05,0.025 -0.026,0.05 -0.024,0.04999 -0.051,0.05 -0.024,0.05 -0.026,0.02499 -0.049,0.05 -0.026,0.05 -0.025,0.04999 -0.049,0.025 -0.025,0.05 -0.026,0.04999 -0.05,0.05 -0.024,0.04999 -0.025,0.025 -0.05,0.05 -0.026,0.04999 -0.024,0.05 -0.051,0.05 -0.025,0.02499 -0.024,0.05 -0.05,0.05 -0.026,0.04999 -0.024,0.025 -0.05,0.05 -0.025,0.04999 -0.026,0.05 -0.05,0.04999 -0.024,0.025 -0.025,0.05 -0.051,0.04999 -0.024,0.05 -0.025,0.025 -0.051,0.04999 -0.024,0.05 -0.026,0.05 -0.049,0.04999 -0.026,0.025 -0.024,0.05 -0.05,0.04999 -0.025,0.05 -0.026,0.025 -0.049,0.04999 -0.025,0.05 -0.025,0.04999 -0.05,0.025 -0.026,0.05 -0.024,0.04999 -0.051,0.05 -0.024,0.05 -0.026,0.02499 -0.049,0.05 -0.026,0.05 -0.025,0.04999 -0.049,0.025 -0.025,0.05 -0.026,0.04999 -0.05,0.05 -0.024,0.025 -0.025,0.04999 -0.05,0.05 -0.026,0.04999 -0.024,0.025 -0.051,0.05 -0.025,0.04999 -0.024,0.05 -0.05,0.025 -0.026,0.04999 -0.024,0.05 -0.05,0.05 -0.025,0.02499 -0.026,0.05 -0.05,0.05 -0.024,0.04999 -0.025,0.025 -0.051,0.05 -0.024,0.04999 -0.025,0.05 -0.051,0.025 -0.024,0.04999 -0.026,0.05 -0.049,0.04999 -0.026,0.025 -0.024,0.05 -0.05,0.04999 -0.025,0.05 -0.026,0.025 -0.049,0.04999 -0.025,0.05 -0.025,0.05 -0.026,0.02499 -0.05,0.05 -0.024,0.05 -0.025,0.02499 -0.05,0.05 -0.026,0.05 m 0,0 -0.024,0.04999 -0.051,0.025 -0.025,0.05 -0.024,0.04999 -0.05,0.05 -0.026,0.025 -0.024,0.04999 -0.05,0.05 -0.025,0.025 -0.026,0.04999 -0.05,0.05 -0.024,0.04999 -0.025,0.025 -0.051,0.05 -0.024,0.04999 -0.025,0.05 -0.051,0.025 -0.024,0.04999 -0.026,0.05 -0.049,0.025 -0.026,0.04999 -0.024,0.05 -0.05,0.05 -0.025,0.02499 -0.026,0.05 -0.049,0.05 -0.025,0.02499 -0.025,0.05 -0.05,0.05 -0.026,0.04999 -0.024,0.025 -0.051,0.05 -0.024,0.04999 -0.026,0.025 -0.049,0.05 -0.026,0.04999 -0.025,0.025 -0.049,0.05 -0.025,0.04999 -0.026,0.05 -0.05,0.025 -0.024,0.04999 -0.025,0.05 -0.05,0.025 -0.026,0.04999 -0.024,0.05 -0.051,0.04999 -0.025,0.025 -0.024,0.05 -0.05,0.04999 -0.026,0.025 -0.024,0.05 -0.05,0.049 -0.025,0.026 -0.026,0.05 -0.05,0.04999 -0.024,0.025 -0.025,0.05 -0.051,0.04999 -0.024,0.05 -0.025,0.025 -0.051,0.049 -0.024,0.051 -0.026,0.025 -0.049,0.04999 -0.026,0.05 -0.024,0.025 -0.05,0.04999 -0.025,0.05 -0.026,0.025 -0.049,0.049 -0.025,0.051 -0.025,0.025 -0.05,0.04999 -0.026,0.05 -0.024,0.025 -0.051,0.04999 -0.024,0.05 -0.026,0.05 -0.049,0.02399 -0.026,0.051 -0.025,0.05 -0.049,0.02499 -0.025,0.05 -0.026,0.05 -0.05,0.02499 -0.024,0.05 -0.025,0.05 -0.05,0.02399 -0.026,0.051 -0.024,0.05 -0.051,0.02499 -0.025,0.05 -0.024,0.05 -0.05,0.02499 -0.026,0.05 -0.024,0.05 -0.05,0.02399 -0.025,0.051 m 0,0 -0.026,0.05 -0.05,0.02499 -0.024,0.05 -0.025,0.05 -0.051,0.02499 -0.024,0.05 -0.025,0.05 -0.051,0.02399 -0.024,0.051 -0.026,0.05 -0.049,0.02499 -0.026,0.05 -0.024,0.025 -0.05,0.04999 -0.025,0.05 -0.026,0.025 -0.049,0.049 -0.025,0.051 -0.025,0.025 -0.05,0.04999 -0.026,0.05 -0.024,0.025 -0.051,0.04999 -0.024,0.05 -0.026,0.025 -0.049,0.049 -0.026,0.051 -0.025,0.025 -0.049,0.04999 -0.025,0.025 -0.026,0.05 -0.05,0.04999 -0.024,0.025 -0.025,0.05 -0.05,0.049 -0.026,0.026 -0.024,0.05 -0.051,0.04999 -0.025,0.025 -0.024,0.05 -0.05,0.04999 -0.026,0.025 -0.024,0.05 -0.05,0.025 -0.025,0.04999 -0.026,0.05 -0.05,0.025 -0.024,0.04999 -0.025,0.05 -0.051,0.025 -0.024,0.04999 -0.025,0.025 -0.051,0.05 -0.024,0.04999 -0.026,0.025 -0.049,0.05 -0.026,0.04999 -0.024,0.025 -0.05,0.05 -0.025,0.02499 -0.026,0.05 -0.049,0.05 -0.025,0.02399 -0.025,0.051 -0.05,0.05 -0.026,0.02499 -0.024,0.05 -0.051,0.025 -0.024,0.04999 -0.026,0.05 -0.049,0.025 -0.026,0.049 -0.074,0.076 -0.025,0.04999 -0.026,0.025 -0.05,0.05 -0.024,0.04999 -0.025,0.025 -0.05,0.05 -0.026,0.025 -0.024,0.04999 -0.051,0.05 -0.025,0.025 -0.024,0.04999 -0.05,0.025 -0.026,0.05 -0.024,0.04999 -0.05,0.025 -0.025,0.05 -0.026,0.02399 -0.05,0.051 -0.024,0.05 -0.025,0.02499 -0.051,0.05 -0.024,0.025 -0.025,0.04999 -0.051,0.05 -0.024,0.025 m 0,0 -0.026,0.049 -0.049,0.026 -0.026,0.05 -0.024,0.04999 -0.05,0.025 -0.025,0.05 -0.026,0.025 -0.049,0.04999 -0.025,0.025 -0.025,0.05 -0.05,0.04999 -0.026,0.025 -0.024,0.05 -0.051,0.02499 -0.024,0.05 -0.026,0.05 -0.049,0.02499 -0.026,0.05 -0.025,0.025 -0.074,0.075 -0.026,0.05 -0.05,0.04999 -0.024,0.025 -0.025,0.05 -0.05,0.025 -0.026,0.04999 -0.024,0.05 -0.051,0.025 -0.025,0.04999 -0.024,0.025 -0.05,0.05 -0.026,0.02499 -0.024,0.05 -0.05,0.05 -0.025,0.02499 -0.026,0.05 -0.05,0.025 -0.024,0.049 -0.025,0.026 -0.051,0.05 -0.024,0.025 -0.025,0.04999 -0.051,0.05 -0.024,0.025 -0.026,0.04999 -0.049,0.025 -0.026,0.05 -0.024,0.02399 -0.05,0.051 -0.025,0.05 -0.026,0.02499 -0.049,0.05 -0.025,0.025 -0.025,0.04999 -0.05,0.025 -0.026,0.05 -0.024,0.025 -0.051,0.04999 -0.024,0.05 -0.026,0.025 -0.049,0.04999 -0.026,0.025 -0.025,0.05 -0.049,0.02499 -0.025,0.05 -0.026,0.025 -0.05,0.049 -0.024,0.026 -0.025,0.05 -0.05,0.05 -0.026,0.02499 -0.024,0.05 -0.051,0.025 -0.025,0.04999 -0.024,0.025 -0.05,0.05 -0.026,0.02399 -0.024,0.051 -0.05,0.025 -0.025,0.05 -0.026,0.05 -0.05,0.025 -0.024,0.05 -0.025,0.02499 -0.051,0.05 -0.024,0.025 -0.025,0.04999 -0.051,0.025 -0.024,0.05 -0.026,0.025 -0.049,0.05 -0.026,0.025 -0.024,0.05 -0.05,0.02499 -0.025,0.05 -0.026,0.049 -0.049,0.026 -0.025,0.05 m 0,0 -0.025,0.025 -0.05,0.04999 -0.026,0.025 -0.024,0.05 -0.051,0.025 -0.024,0.05 -0.026,0.025 -0.049,0.049 -0.026,0.026 -0.025,0.05 -0.049,0.025 -0.025,0.04999 -0.026,0.025 -0.05,0.05 -0.024,0.025 -0.025,0.05 -0.05,0.025 -0.026,0.049 -0.024,0.026 -0.051,0.05 -0.025,0.025 -0.024,0.04999 -0.05,0.05 -0.026,0.025 -0.024,0.04999 -0.05,0.025 -0.025,0.05 -0.026,0.02399 -0.05,0.051 -0.024,0.025 -0.025,0.05 -0.026,0.02499 -0.049,0.05 -0.025,0.025 -0.025,0.04999 -0.05,0.025 -0.026,0.05 -0.024,0.02399 -0.051,0.051 -0.024,0.025 -0.026,0.05 -0.049,0.02499 -0.026,0.05 -0.025,0.025 -0.049,0.04999 -0.025,0.025 -0.026,0.05 -0.05,0.02399 -0.024,0.051 -0.025,0.025 -0.05,0.05 -0.026,0.02499 -0.024,0.025 -0.051,0.05 -0.025,0.025 -0.024,0.05 -0.05,0.025 -0.026,0.049 -0.024,0.026 -0.05,0.05 -0.025,0.025 -0.026,0.04999 -0.05,0.025 -0.024,0.05 -0.025,0.025 -0.051,0.05 -0.024,0.025 -0.025,0.049 -0.051,0.026 -0.024,0.05 -0.026,0.025 -0.049,0.04999 -0.026,0.025 -0.024,0.05 -0.05,0.025 -0.025,0.05 -0.026,0.025 -0.049,0.049 -0.025,0.026 -0.025,0.025 -0.05,0.05 -0.026,0.025 -0.024,0.05 -0.051,0.025 -0.024,0.05 -0.026,0.02499 -0.049,0.05 -0.026,0.025 -0.025,0.04999 -0.049,0.025 -0.025,0.05 -0.026,0.025 -0.05,0.05 -0.024,0.025 -0.075,0.075 -0.026,0.025 -0.024,0.05 -0.051,0.02399 m 0,0 -0.025,0.051 -0.024,0.025 -0.05,0.05 -0.026,0.02499 -0.024,0.05 -0.05,0.025 -0.025,0.025 -0.026,0.05 -0.05,0.025 -0.024,0.049 -0.025,0.026 -0.051,0.05 -0.024,0.025 -0.025,0.04999 -0.051,0.025 -0.024,0.05 -0.026,0.025 -0.049,0.02499 -0.026,0.05 -0.024,0.025 -0.05,0.04999 -0.025,0.025 -0.026,0.05 -0.049,0.025 -0.025,0.02499 -0.025,0.05 -0.05,0.025 -0.026,0.04999 -0.024,0.025 -0.051,0.05 -0.024,0.02399 -0.026,0.051 -0.049,0.025 -0.026,0.025 -0.025,0.04999 -0.049,0.025 -0.025,0.05 -0.026,0.025 -0.05,0.05 -0.024,0.025 -0.025,0.025 -0.05,0.04999 -0.026,0.025 -0.024,0.05 -0.051,0.025 -0.025,0.05 -0.024,0.025 -0.05,0.025 -0.026,0.04999 -0.024,0.025 -0.05,0.05 -0.025,0.02399 -0.026,0.051 -0.05,0.025 -0.024,0.025 -0.025,0.04999 -0.051,0.025 -0.024,0.05 -0.025,0.025 -0.051,0.02499 -0.024,0.05 -0.026,0.025 -0.049,0.04999 -0.026,0.025 -0.024,0.05 -0.05,0.025 -0.025,0.02499 -0.026,0.05 -0.049,0.025 -0.025,0.04999 -0.025,0.025 -0.05,0.025 -0.026,0.049 -0.024,0.026 -0.051,0.05 -0.024,0.025 -0.026,0.025 -0.049,0.05 -0.026,0.025 -0.025,0.05 -0.049,0.02499 -0.025,0.025 -0.026,0.05 -0.05,0.02399 -0.024,0.051 -0.025,0.025 -0.05,0.025 -0.026,0.04999 -0.024,0.025 -0.051,0.05 -0.025,0.025 -0.024,0.02499 -0.05,0.05 -0.026,0.025 -0.024,0.04999 -0.05,0.025 -0.025,0.025 -0.026,0.05 -0.05,0.02499 m 0,0 -0.024,0.05 -0.025,0.025 -0.051,0.025 -0.024,0.05 -0.025,0.025 -0.051,0.049 -0.024,0.026 -0.026,0.025 -0.049,0.05 -0.026,0.025 -0.024,0.02499 -0.05,0.05 -0.025,0.025 -0.026,0.04999 -0.05,0.025 -0.024,0.025 -0.025,0.049 -0.05,0.026 -0.026,0.025 -0.024,0.05 -0.051,0.025 -0.024,0.05 -0.026,0.025 -0.049,0.025 -0.026,0.04999 -0.025,0.025 -0.049,0.025 -0.025,0.049 -0.026,0.026 -0.05,0.05 -0.024,0.025 -0.025,0.025 -0.05,0.05 -0.026,0.025 -0.024,0.025 -0.051,0.04999 -0.025,0.025 -0.025,0.025 -0.049,0.049 -0.026,0.026 -0.024,0.05 -0.05,0.025 -0.025,0.025 -0.026,0.05 -0.05,0.025 -0.024,0.025 -0.025,0.04999 -0.051,0.025 -0.025,0.025 -0.024,0.049 -0.051,0.026 -0.024,0.025 -0.026,0.05 -0.049,0.025 -0.026,0.05 -0.024,0.025 -0.05,0.025 -0.025,0.04999 -0.026,0.025 -0.05,0.025 -0.024,0.049 -0.025,0.026 -0.05,0.025 -0.026,0.05001 -0.024,0.025 -0.051,0.025 -0.024,0.05 -0.026,0.025 -0.049,0.025 -0.026,0.05 -0.025,0.025 -0.049,0.025 -0.025,0.05 -0.026,0.025 -0.05,0.025 -0.024,0.05 -0.025,0.025 -0.05,0.025 -0.026,0.05 -0.024,0.025 -0.051,0.025 -0.025,0.05 -0.025,0.025 -0.049,0.024 -0.026,0.051 -0.024,0.025 -0.05,0.025 -0.025,0.05 -0.026,0.025 -0.05,0.025 -0.024,0.05 -0.025,0.025 -0.051,0.025 -0.025,0.05 -0.024,0.024 -0.051,0.026 -0.024,0.05 -0.026,0.025 -0.049,0.025 m 0,-10e-4 -0.026,0.051 -0.024,0.025 -0.05,0.025 -0.025,0.05 -0.026,0.025 -0.05,0.025 -0.024,0.049 -0.025,0.026 -0.05,0.024 -0.026,0.051 -0.024,0.024 -0.051,0.026 -0.024,0.025 -0.026,0.05 -0.049,0.025 -0.026,0.025 -0.025,0.05 -0.049,0.024 -0.025,0.025 -0.026,0.05 -0.05,0.026 -0.024,0.025 -0.025,0.05 -0.05,0.025 -0.026,0.025 -0.024,0.025 -0.051,0.05 -0.025,0.025 -0.025,0.025 -0.049,0.049 -0.026,0.026 -0.074,0.075 -0.025,0.024 -0.026,0.026 -0.05,0.025 -0.024,0.05 -0.025,0.025 -0.051,0.025 -0.025,0.05 -0.024,0.024 -0.051,0.025 -0.024,0.026 -0.026,0.05 -0.049,0.025 -0.026,0.024 -0.024,0.051 -0.05,0.025 -0.025,0.025 -0.026,0.05 -0.05,0.025 -0.024,0.025 -0.025,0.025 -0.05,0.05 -0.026,0.025 -0.024,0.025 -0.051,0.025 -0.024,0.05 -0.026,0.025 -0.049,0.025 -0.026,0.05 -0.025,0.025 -0.049,0.025 -0.025,0.025 -0.026,0.049 -0.05,0.026 -0.024,0.025 -0.025,0.05 -0.05,0.025 -0.026,0.025 -0.024,0.025 -0.025,0.05 -0.051,0.025 -0.025,0.025 -0.024,0.025 -0.051,0.05 -0.024,0.024 -0.026,0.026 -0.049,0.05 -0.026,0.025 -0.024,0.025 -0.05,0.025 -0.025,0.05 -0.026,0.025 -0.05,0.025 -0.024,0.025 -0.025,0.05 -0.05,0.025 -0.026,0.024 -0.024,0.026 -0.051,0.05 -0.024,0.025 -0.026,0.025 -0.049,0.025 -0.026,0.05 -0.025,0.025 -0.049,0.025 -0.025,0.025 -0.026,0.05 m 0,0 -0.05,0.024 -0.024,0.025 -0.025,0.026 -0.05,0.05 -0.026,0.025 -0.024,0.024 -0.051,0.026 -0.025,0.05 -0.025,0.025 -0.049,0.025 -0.026,0.025 -0.024,0.05 -0.05,0.024 -0.025,0.025 -0.026,0.026 -0.05,0.05 -0.024,0.025 -0.025,0.024 -0.051,0.026 -0.025,0.05 -0.024,0.025 -0.051,0.025 -0.024,0.025 -0.026,0.05 -0.049,0.024 -0.026,0.025 -0.024,0.026 -0.05,0.024 -0.025,0.051 -0.026,0.024 -0.05,0.026 -0.024,0.025 -0.025,0.05 -0.05,0.025 -0.026,0.025 -0.024,0.025 -0.051,0.049 -0.024,0.025 -0.026,0.026 -0.049,0.025 -0.026,0.025 -0.025,0.05 -0.049,0.025 -0.025,0.025 -0.026,0.025 -0.05,0.05 -0.024,0.025 -0.025,0.025 -0.05,0.025 -0.026,0.025 -0.024,0.05 -0.051,0.025 -0.025,0.025 -0.025,0.025 -0.049,0.05 -0.026,0.025 -0.024,0.025 -0.05,0.025 -0.025,0.025 -0.026,0.05 -0.05,0.025 -0.024,0.025 -0.025,0.024 -0.051,0.026 -0.025,0.05 -0.024,0.025 -0.051,0.025 -0.024,0.025 -0.026,0.025 -0.049,0.05 -0.026,0.025 -0.024,0.025 -0.05,0.025 -0.025,0.025 -0.026,0.049 -0.05,0.026 -0.024,0.025 -0.025,0.025 -0.05,0.025 -0.026,0.05 -0.024,0.025 -0.051,0.025 -0.024,0.025 -0.026,0.025 -0.049,0.05 -0.026,0.025 -0.025,0.025 -0.049,0.024 -0.025,0.026 -0.026,0.05 -0.05,0.025 -0.024,0.025 -0.025,0.025 -0.05,0.025 -0.026,0.05 -0.024,0.025 -0.051,0.025 -0.05,0.05 m 0,0 -0.049,0.024 -0.026,0.051 -0.024,0.024 -0.05,0.026 -0.025,0.025 -0.026,0.024 -0.05,0.051 -0.024,0.025 -0.025,0.025 -0.051,0.025 -0.025,0.025 -0.024,0.025 -0.051,0.049 -0.024,0.025 -0.026,0.026 -0.049,0.024 -0.026,0.026 -0.024,0.049 -0.05,0.026 -0.025,0.025 -0.026,0.025 -0.05,0.025 -0.024,0.025 -0.025,0.05 -0.05,0.025 -0.026,0.024 -0.024,0.025 -0.051,0.026 -0.024,0.024 -0.026,0.051 -0.049,0.024 -0.026,0.026 -0.025,0.025 -0.049,0.025 -0.025,0.025 -0.026,0.025 -0.05,0.05 -0.024,0.025 -0.025,0.024 -0.05,0.025 -0.026,0.026 -0.024,0.024 -0.051,0.051 -0.025,0.024 -0.025,0.026 -0.049,0.025 -0.026,0.025 -0.024,0.025 -0.05,0.025 -0.025,0.05 -0.026,0.025 -0.05,0.025 -0.049,0.05 -0.051,0.025 -0.025,0.05 -0.024,0.025 -0.051,0.025 -0.024,0.025 -0.026,0.025 -0.049,0.025 -0.026,0.025 -0.024,0.05 -0.05,0.025 -0.025,0.025 -0.026,0.024 -0.05,0.026 -0.024,0.025 -0.025,0.025 -0.05,0.025 -0.026,0.05 -0.024,0.025 -0.051,0.025 -0.024,0.025 -0.026,0.025 -0.049,0.025 -0.026,0.025 -0.025,0.05 -0.049,0.024 -0.025,0.026 -0.026,0.025 -0.05,0.025 -0.024,0.025 -0.025,0.025 -0.05,0.025 -0.026,0.05 -0.024,0.025 -0.051,0.025 -0.05,0.05 -0.049,0.025 -0.026,0.025 -0.024,0.024 -0.05,0.051 -0.025,0.025 -0.026,0.025 -0.05,0.025 -0.024,0.025 -0.025,0.025 m 0,0 -0.051,0.025 -0.024,0.025 -0.025,0.025 -0.051,0.05 -0.024,0.025 -0.026,0.024 -0.049,0.025 -0.026,0.026 -0.024,0.024 -0.05,0.026 -0.025,0.025 -0.026,0.024 -0.049,0.051 -0.025,0.025 -0.025,0.025 -0.05,0.025 -0.026,0.025 -0.024,0.025 -0.051,0.025 -0.024,0.024 -0.026,0.025 -0.049,0.05 -0.026,0.026 -0.025,0.025 -0.049,0.024 -0.025,0.026 -0.026,0.025 -0.05,0.025 -0.024,0.025 -0.025,0.025 -0.05,0.025 -0.026,0.025 -0.024,0.049 -0.051,0.025 -0.025,0.026 -0.025,0.025 -0.049,0.025 -0.026,0.025 -0.024,0.025 -0.05,0.025 -0.025,0.025 -0.026,0.025 -0.05,0.025 -0.024,0.05 -0.025,0.025 -0.051,0.025 -0.025,0.025 -0.024,0.024 -0.051,0.026 -0.024,0.025 -0.026,0.025 -0.049,0.025 -0.026,0.025 -0.024,0.025 -0.05,0.025 -0.025,0.05 -0.026,0.025 -0.05,0.025 -0.024,0.025 -0.025,0.025 -0.05,0.025 -0.026,0.024 -0.024,0.026 -0.051,0.025 -0.024,0.025 -0.026,0.025 -0.049,0.025 -0.026,0.025 -0.025,0.025 -0.049,0.05 -0.025,0.025 -0.026,0.025 -0.05,0.025 -0.024,0.025 -0.025,0.025 -0.05,0.024 -0.026,0.026 -0.024,0.025 -0.051,0.025 -0.025,0.025 -0.025,0.025 -0.049,0.025 -0.026,0.025 -0.024,0.025 -0.05,0.025 -0.025,0.05 -0.026,0.025 -0.05,0.025 -0.024,0.025 -0.025,0.024 -0.051,0.026 -0.025,0.025 -0.024,0.025 -0.051,0.025 -0.024,0.025 -0.026,0.025 -0.049,0.025 -0.026,0.025 -0.024,0.025 m 0,0 -0.05,0.025 -0.025,0.025 -0.026,0.025 -0.049,0.025 -0.025,0.024 -0.025,0.025 -0.05,0.05 -0.026,0.026 -0.024,0.025 -0.025,0.024 -0.05,0.026 -0.026,0.025 -0.024,0.025 -0.051,0.025 -0.025,0.025 -0.024,0.025 -0.05,0.025 -0.026,0.025 -0.024,0.024 -0.05,0.025 -0.025,0.026 -0.026,0.024 -0.05,0.026 -0.024,0.025 -0.025,0.024 -0.051,0.026 -0.025,0.025 -0.024,0.025 -0.051,0.025 -0.024,0.025 -0.026,0.025 -0.049,0.025 -0.026,0.025 -0.024,0.024 -0.05,0.025 -0.025,0.026 -0.026,0.024 -0.05,0.026 -0.024,0.05 -0.025,0.025 -0.05,0.025 -0.026,0.025 -0.024,0.025 -0.051,0.025 -0.024,0.025 -0.026,0.025 -0.049,0.025 -0.026,0.025 -0.025,0.024 -0.049,0.026 -0.025,0.025 -0.026,0.025 -0.05,0.025 -0.024,0.025 -0.025,0.025 -0.05,0.025 -0.026,0.025 -0.024,0.025 -0.051,0.025 -0.05,0.05 -0.049,0.025 -0.026,0.025 -0.024,0.024 -0.05,0.026 -0.025,0.025 -0.026,0.025 -0.05,0.025 -0.024,0.025 -0.025,0.025 -0.05,0.025 -0.026,0.025 -0.024,0.025 -0.051,0.025 -0.024,0.025 -0.026,0.025 -0.049,0.025 -0.026,0.025 -0.024,0.024 -0.05,0.026 -0.025,0.025 -0.026,0.025 -0.05,0.025 -0.024,0.025 -0.025,0.025 -0.05,0.025 -0.026,0.025 -0.024,0.025 -0.051,0.025 -0.024,0.025 -0.026,0.025 -0.049,0.025 -0.026,0.025 -0.024,0.024 -0.051,0.026 -0.02499,0.025 -0.025,0.025 -0.05,0.025 h -0.024 m 0,0 -0.02599,0.024 -0.05,0.026 -0.025,0.025 -0.024,0.025 -0.051,0.025 -0.025,0.025 -0.025,0.025 -0.05,0.025 -0.025,0.025 -0.025,0.024 -0.049,0.025 -0.02599,0.026 -0.025,0.024 -0.05,0.026 -0.024,0.025 -0.02599,0.024 -0.05,0.026 -0.025,0.025 -0.025,0.025 -0.04999,0.025 -0.025,0.025 -0.025,0.025 -0.05,0.025 -0.025,0.025 -0.025,0.024 -0.049,0.025 -0.02599,0.026 -0.025,0.024 -0.05,0.026 -0.025,0.025 h -0.02499 l -0.05,0.025 -0.025,0.025 -0.024,0.025 -0.051,0.025 -0.025,0.025 -0.025,0.025 -0.05,0.025 -0.025,0.025 -0.025,0.025 -0.05,0.025 -0.02499,0.024 -0.025,0.026 -0.05,0.025 -0.024,0.025 -0.02599,0.025 -0.05,0.025 -0.025,0.025 -0.024,0.025 -0.051,0.025 -0.025,0.025 h -0.025 l -0.05,0.025 -0.025,0.025 -0.025,0.025 -0.049,0.025 -0.02599,0.025 -0.025,0.024 -0.05,0.026 -0.024,0.025 -0.02599,0.025 -0.05,0.025 -0.025,0.025 -0.025,0.025 -0.04999,0.025 -0.025,0.025 -0.025,0.025 h -0.05 l -0.025,0.025 -0.025,0.025 -0.049,0.025 -0.02599,0.025 -0.025,0.025 -0.05,0.024 -0.025,0.026 -0.02499,0.025 -0.05,0.025 -0.025,0.025 -0.024,0.025 -0.051,0.025 -0.025,0.025 h -0.025 l -0.05,0.025 -0.025,0.025 -0.025,0.025 -0.05,0.025 -0.02499,0.025 -0.025,0.025 -0.05,0.025 -0.05,0.05 -0.05,0.025 -0.025,0.025 h -0.024 l -0.051,0.025 -0.025,0.025 -0.025,0.025 -0.05,0.025 -0.025,0.025 m 0,0 -0.025,0.025 -0.049,0.025 -0.051,0.05 -0.05,0.025 h -0.024 l -0.02599,0.024 -0.05,0.025 -0.05,0.05 -0.04999,0.026 -0.025,0.025 -0.025,0.024 -0.05,0.026 -0.025,0.025 h -0.025 l -0.049,0.025 -0.02599,0.025 -0.025,0.025 -0.05,0.025 -0.025,0.025 -0.02499,0.025 -0.05,0.025 -0.025,0.024 -0.024,0.026 h -0.051 l -0.025,0.025 -0.025,0.025 -0.05,0.025 -0.02499,0.025 -0.025,0.025 -0.05,0.025 -0.025,0.025 -0.02499,0.025 h -0.05 l -0.024,0.025 -0.026,0.025 -0.05,0.025 -0.025,0.025 -0.024,0.025 -0.051,0.024 -0.025,0.026 -0.025,0.025 h -0.05 l -0.02499,0.025 -0.025,0.025 -0.049,0.025 -0.026,0.025 -0.02499,0.025 -0.05,0.025 -0.024,0.025 h -0.026 l -0.05,0.025 -0.025,0.025 -0.025,0.025 -0.04999,0.025 -0.025,0.025 -0.025,0.024 -0.05,0.026 h -0.02499 l -0.025,0.025 -0.049,0.025 -0.026,0.025 -0.02499,0.025 -0.05,0.025 -0.025,0.025 h -0.025 l -0.05,0.025 -0.025,0.025 -0.024,0.025 -0.051,0.025 -0.025,0.025 -0.025,0.025 h -0.05 l -0.02499,0.025 -0.025,0.024 -0.05,0.026 -0.025,0.025 -0.02499,0.025 -0.05,0.025 h -0.024 l -0.026,0.025 -0.05,0.025 -0.025,0.025 -0.024,0.025 -0.051,0.025 -0.025,0.025 h -0.025 l -0.05,0.025 -0.02499,0.025 -0.025,0.025 -0.049,0.025 -0.026,0.024 -0.02499,0.026 h -0.05 l -0.024,0.025 -0.026,0.025 -0.05,0.025 -0.025,0.025 m 0,-10e-4 -0.025,0.026 h -0.04999 l -0.025,0.025 -0.025,0.025 -0.05,0.025 -0.02499,0.025 -0.025,0.025 h -0.049 l -0.051,0.05 -0.05,0.024 -0.025,0.025 -0.025,0.026 h -0.05 l -0.025,0.024 -0.024,0.026 -0.051,0.025 -0.025,0.024 -0.025,0.026 h -0.05 l -0.02499,0.025 -0.025,0.025 -0.05,0.025 -0.04999,0.05 h -0.05 l -0.024,0.025 -0.026,0.025 -0.05,0.025 -0.025,0.024 -0.024,0.026 h -0.051 l -0.025,0.025 -0.025,0.025 -0.05,0.025 -0.02499,0.025 h -0.025 l -0.049,0.025 -0.026,0.025 -0.02499,0.025 -0.05,0.025 -0.024,0.025 h -0.026 l -0.05,0.025 -0.025,0.025 -0.025,0.025 -0.025,0.025 h -0.05 l -0.025,0.024 -0.024,0.026 -0.051,0.025 -0.025,0.025 h -0.025 l -0.05,0.025 -0.02499,0.025 -0.025,0.025 -0.05,0.025 h -0.025 l -0.02499,0.025 -0.05,0.025 -0.024,0.025 -0.026,0.025 h -0.05 l -0.025,0.025 -0.024,0.025 -0.051,0.025 -0.025,0.024 h -0.025 l -0.05,0.026 -0.02499,0.025 -0.025,0.025 -0.049,0.025 h -0.026 l -0.02499,0.025 -0.05,0.025 -0.024,0.025 -0.026,0.025 h -0.05 l -0.025,0.025 -0.025,0.025 -0.04999,0.025 h -0.025 l -0.025,0.025 -0.05,0.025 -0.02499,0.025 -0.025,0.024 h -0.049 l -0.026,0.026 -0.02499,0.025 -0.05,0.025 -0.025,0.025 h -0.025 l -0.05,0.025 -0.025,0.025 -0.024,0.025 h -0.051 l -0.025,0.025 -0.025,0.025 -0.05,0.025 m 0,0 -0.02499,0.025 h -0.025 l -0.05,0.025 -0.025,0.025 -0.02499,0.025 h -0.05 l -0.05,0.05 -0.05,0.025 h -0.025 l -0.024,0.025 -0.051,0.025 -0.025,0.025 -0.025,0.025 h -0.05 l -0.02499,0.025 -0.025,0.025 -0.049,0.025 h -0.026 l -0.02499,0.025 -0.05,0.025 -0.025,0.025 h -0.025 l -0.05,0.025 -0.05,0.049 h -0.04999 l -0.025,0.026 -0.025,0.025 -0.05,0.025 H 88.9325 l -0.025,0.025 -0.05,0.025 -0.025,0.025 h -0.02499 l -0.05,0.025 -0.025,0.025 -0.025,0.025 h -0.05 l -0.025,0.025 -0.024,0.025 -0.051,0.025 h -0.025 l -0.025,0.025 -0.05,0.025 -0.02499,0.024 h -0.025 l -0.05,0.026 -0.025,0.025 -0.02499,0.025 h -0.05 l -0.024,0.025 -0.026,0.025 -0.05,0.025 h -0.025 l -0.025,0.025 -0.04999,0.025 h -0.025 l -0.025,0.025 -0.05,0.025 -0.02499,0.025 h -0.025 l -0.049,0.025 -0.026,0.025 -0.02499,0.025 h -0.05 l -0.025,0.024 -0.025,0.026 h -0.05 l -0.025,0.025 -0.025,0.025 -0.04999,0.025 h -0.025 l -0.025,0.025 -0.05,0.025 -0.02499,0.025 h -0.025 l -0.05,0.025 -0.025,0.025 h -0.02499 l -0.05,0.025 -0.025,0.025 -0.025,0.025 h -0.05 l -0.025,0.025 -0.024,0.025 h -0.051 l -0.025,0.024 -0.025,0.026 -0.05,0.025 H 86.9326 l -0.025,0.025 -0.05,0.025 h -0.025 l -0.02499,0.025 -0.05,0.025 -0.024,0.025 h -0.026 l -0.05,0.025 m 0,0 -0.025,0.025 h -0.025 l -0.04999,0.025 -0.025,0.025 h -0.025 l -0.05,0.025 -0.02499,0.025 -0.025,0.025 h -0.049 l -0.026,0.024 -0.02499,0.026 h -0.05 l -0.025,0.025 -0.025,0.025 h -0.05 l -0.025,0.025 -0.025,0.025 -0.04999,0.025 h -0.025 l -0.025,0.025 -0.05,0.025 h -0.02499 l -0.025,0.025 -0.05,0.025 h -0.025 l -0.02499,0.025 -0.05,0.025 h -0.025 l -0.025,0.025 -0.05,0.025 h -0.025 l -0.024,0.024 -0.051,0.026 -0.025,0.025 h -0.025 l -0.05,0.025 -0.02499,0.025 h -0.025 l -0.05,0.025 -0.025,0.025 h -0.02499 l -0.05,0.025 -0.024,0.025 h -0.026 l -0.05,0.025 -0.025,0.025 h -0.025 l -0.04999,0.025 -0.025,0.025 h -0.025 l -0.05,0.025 -0.02499,0.025 h -0.025 l -0.049,0.024 -0.026,0.026 h -0.02499 l -0.05,0.025 -0.025,0.025 h -0.025 l -0.05,0.025 -0.025,0.025 h -0.025 l -0.04999,0.025 -0.025,0.025 h -0.025 l -0.05,0.025 -0.02499,0.025 h -0.025 l -0.05,0.025 -0.025,0.025 h -0.02499 l -0.05,0.025 -0.025,0.025 h -0.025 l -0.05,0.025 -0.025,0.024 h -0.024 l -0.051,0.026 -0.025,0.025 h -0.025 l -0.05,0.025 h -0.02499 l -0.025,0.025 -0.05,0.025 h -0.025 l -0.02499,0.025 -0.05,0.025 h -0.024 l -0.026,0.025 -0.05,0.025 h -0.025 l -0.025,0.025 -0.04999,0.025 h -0.025 l -0.025,0.025 h -0.05 l -0.02499,0.025 -0.025,0.025 h -0.049 m 0,0 -0.026,0.024 -0.02499,0.026 h -0.05 l -0.025,0.025 -0.025,0.025 h -0.05 l -0.025,0.025 h -0.025 l -0.04999,0.025 -0.025,0.025 h -0.025 l -0.05,0.025 -0.02499,0.025 h -0.025 l -0.05,0.025 h -0.025 l -0.02499,0.025 -0.05,0.025 h -0.025 l -0.025,0.025 -0.05,0.025 h -0.025 l -0.024,0.025 h -0.051 l -0.025,0.024 -0.025,0.026 h -0.05 l -0.05,0.05 h -0.05 l -0.025,0.025 h -0.02499 l -0.05,0.025 -0.024,0.025 h -0.026 l -0.05,0.025 h -0.025 l -0.025,0.025 -0.04999,0.025 h -0.025 l -0.025,0.025 -0.05,0.025 h -0.02499 l -0.025,0.025 h -0.049 l -0.026,0.025 -0.02499,0.025 h -0.05 l -0.025,0.024 h -0.025 l -0.05,0.026 -0.025,0.025 h -0.025 l -0.04999,0.025 h -0.025 l -0.025,0.025 -0.05,0.025 h -0.02499 l -0.025,0.025 h -0.05 l -0.025,0.025 -0.02499,0.025 h -0.05 l -0.025,0.025 h -0.025 l -0.05,0.025 -0.025,0.025 h -0.024 l -0.051,0.025 h -0.025 l -0.025,0.025 h -0.05 l -0.05,0.049 h -0.05 l -0.025,0.026 h -0.02499 l -0.05,0.025 -0.024,0.025 h -0.026 l -0.05,0.025 h -0.025 l -0.025,0.025 h -0.04999 l -0.025,0.025 -0.025,0.025 h -0.025 l -0.04999,0.025 h -0.025 l -0.025,0.025 h -0.05 l -0.02499,0.025 -0.025,0.025 h -0.05 l -0.025,0.025 h -0.02499 l -0.05,0.025 h -0.025 l -0.025,0.025 m 0,0 -0.05,0.024 h -0.025 l -0.024,0.026 h -0.051 l -0.025,0.025 h -0.025 l -0.05,0.025 -0.02499,0.025 h -0.025 l -0.05,0.025 h -0.025 l -0.02499,0.025 h -0.05 l -0.024,0.025 -0.026,0.025 h -0.05 l -0.025,0.025 h -0.025 l -0.04999,0.025 h -0.025 l -0.025,0.025 h -0.05 l -0.02499,0.025 -0.025,0.025 h -0.049 l -0.026,0.025 H 79.183 l -0.05,0.024 h -0.025 l -0.025,0.026 h -0.05 l -0.025,0.025 h -0.025 l -0.04999,0.025 -0.025,0.025 h -0.025 l -0.05,0.025 h -0.02499 l -0.025,0.025 h -0.05 l -0.025,0.025 h -0.02499 l -0.05,0.025 h -0.025 l -0.025,0.025 h -0.05 l -0.025,0.025 -0.024,0.025 h -0.051 l -0.025,0.025 h -0.025 l -0.05,0.025 h -0.02499 l -0.025,0.025 h -0.05 l -0.025,0.024 h -0.02499 l -0.05,0.026 h -0.024 l -0.026,0.025 h -0.05 l -0.025,0.025 -0.025,0.025 h -0.04999 l -0.025,0.025 h -0.025 l -0.05,0.025 h -0.02499 l -0.025,0.025 h -0.049 l -0.026,0.025 h -0.02499 l -0.05,0.025 h -0.025 l -0.025,0.025 h -0.05 l -0.025,0.025 h -0.025 l -0.04999,0.025 h -0.025 l -0.025,0.025 h -0.05 l -0.02499,0.025 h -0.025 l -0.05,0.024 h -0.025 l -0.02499,0.026 h -0.05 l -0.025,0.025 h -0.025 l -0.05,0.025 h -0.025 l -0.024,0.025 h -0.051 l -0.025,0.025 h -0.025 l -0.05,0.025 h -0.02499 l -0.025,0.025 m 0,0 h -0.05 l -0.025,0.025 h -0.02499 l -0.05,0.025 h -0.024 l -0.026,0.025 h -0.05 l -0.025,0.025 h -0.025 l -0.04999,0.025 h -0.025 l -0.025,0.025 h -0.05 l -0.02499,0.025 h -0.025 l -0.049,0.024 h -0.026 l -0.02499,0.026 h -0.05 l -0.025,0.025 h -0.025 l -0.05,0.025 h -0.025 l -0.025,0.025 h -0.04999 l -0.025,0.025 h -0.025 l -0.05,0.025 h -0.02499 l -0.025,0.025 h -0.05 l -0.025,0.025 h -0.02499 l -0.05,0.025 h -0.025 l -0.025,0.025 h -0.075 l -0.024,0.025 h -0.051 l -0.025,0.025 h -0.025 l -0.05,0.025 H 75.3082 l -0.025,0.025 h -0.05 l -0.025,0.024 h -0.02499 l -0.05,0.026 h -0.024 l -0.026,0.025 h -0.075 l -0.025,0.025 h -0.04999 l -0.025,0.025 h -0.025 l -0.05,0.025 h -0.02499 l -0.025,0.025 h -0.049 l -0.026,0.025 h -0.02499 l -0.05,0.025 h -0.05 l -0.05,0.025 h -0.025 l -0.025,0.025 h -0.04999 l -0.025,0.025 h -0.025 l -0.05,0.025 h -0.02499 l -0.025,0.025 h -0.075 l -0.02499,0.025 h -0.05 l -0.025,0.024 h -0.025 l -0.05,0.026 h -0.025 l -0.024,0.025 h -0.076 l -0.025,0.025 h -0.05 l -0.02499,0.025 h -0.025 l -0.05,0.025 h -0.04999 l -0.05,0.025 h -0.024 l -0.026,0.025 h -0.05 l -0.025,0.025 h -0.025 m 0,0 -0.04999,0.025 h -0.05 l -0.05,0.025 h -0.02499 l -0.025,0.025 h -0.049 l -0.026,0.025 h -0.075 l -0.025,0.025 h -0.025 l -0.05,0.025 h -0.05 l -0.04999,0.024 h -0.025 l -0.025,0.026 h -0.05 l -0.02499,0.025 h -0.07501 l -0.025,0.025 h -0.02499 l -0.05,0.025 h -0.05 l -0.05,0.025 h -0.025 l -0.024,0.025 h -0.051 l -0.025,0.025 h -0.075 l -0.02499,0.025 h -0.025 l -0.05,0.025 h -0.04999 l -0.05,0.025 h -0.024 l -0.026,0.025 h -0.075 l -0.025,0.025 h -0.04999 l -0.025,0.025 h -0.075 l -0.02499,0.025 h -0.025 l -0.049,0.024 h -0.051 l -0.05,0.026 h -0.025 l -0.025,0.025 h -0.075 l -0.025,0.025 h -0.04999 l -0.025,0.025 h -0.075 l -0.02499,0.025 h -0.07501 l -0.025,0.025 h -0.02499 l -0.05,0.025 h -0.05 l -0.05,0.025 h -0.025 l -0.024,0.025 h -0.076 l -0.025,0.025 h -0.075 l -0.025,0.025 h -0.05 l -0.025,0.025 h -0.075 l -0.024,0.025 h -0.076 l -0.025,0.025 h -0.025 l -0.04999,0.024 h -0.05 l -0.05,0.026 h -0.05 l -0.049,0.025 h -0.051 m 0,0 -0.05,0.025 h -0.025 l -0.025,0.025 h -0.075 l -0.025,0.025 h -0.075 l -0.025,0.025 h -0.075 l -0.025,0.025 h -0.075 l -0.02499,0.025 h -0.05 l -0.025,0.025 h -0.075 l -0.025,0.025 h -0.075 l -0.025,0.025 h -0.05 l -0.04999,0.025 h -0.05 l -0.05,0.025 h -0.05 l -0.049,0.025 h -0.051 l -0.05,0.024 h -0.05 l -0.05,0.026 h -0.05 l -0.04999,0.025 h -0.05 l -0.05,0.025 h -0.05 l -0.05,0.025 h -0.04999 l -0.05,0.025 h -0.05 l -0.05,0.025 h -0.049 l -0.051,0.025 h -0.05 l -0.05,0.025 h -0.05 l -0.05,0.025 h -0.04999 l -0.05,0.025 h -0.05 l -0.05,0.025 h -0.1 l -0.025,0.025 h -0.075 l -0.02499,0.025 h -0.074 l -0.026,0.025 h -0.075 l -0.025,0.024 h -0.075 l -0.025,0.026 h -0.1 l -0.025,0.025 h -0.075 l -0.025,0.025 h -0.075 l -0.02499,0.025 h -0.100006 l -0.05,0.025 h -0.049 l -0.051,0.025 h -0.100006 l -0.02499,0.025 h -0.07501 l -0.025,0.025 h -0.075 l -0.024,0.025 H 66.38346 l -0.025,0.025 h -0.075 l -0.025,0.025 h -0.1 l -0.049,0.025 h -0.100998 l -0.025,0.025 h -0.075 l -0.025,0.025 h -0.1 l -0.025,0.024 h -0.1 l -0.05,0.026 h -0.04999 l -0.05,0.025 h -0.1 l -0.025,0.025 h -0.1 l -0.025,0.025 h -0.1 l -0.05,0.025 h -0.1 l -0.024,0.025 h -0.100998 l -0.025,0.025 h -0.1 l -0.05,0.025 h -0.1 l -0.025,0.025 h -0.1 l -0.025,0.025 h -0.1 l -0.04999,0.025 h -0.100006 l -0.02499,0.025 h -0.100006 l -0.02499,0.025 H 63.95849 l -0.05,0.025 h -0.125 l -0.025,0.024 h -0.100003 l -0.05,0.026 h -0.1 l -0.024,0.025 h -0.125 l -0.051,0.025 h -0.1 l -0.025,0.025 h -0.125 l -0.05,0.025 h -0.125 l -0.025,0.025 H 62.70849 l -0.025,0.025 h -0.1 l -0.025,0.025 h -0.150002 l -0.025,0.025 h -0.125 l -0.05,0.025 h -0.125 l -0.025,0.025 h -0.174999 l -0.024,0.025 h -0.150997 l -0.025,0.025 h -0.125 l -0.05,0.025 H 61.35949 l -0.051,0.024 h -0.125 l -0.025,0.026 h -0.173999 l -0.026,0.025 h -0.175004 l -0.025,0.025 h -0.174999 l -0.025,0.025 h -0.174999 l -0.024,0.025 H 60.18349 l -0.025,0.025 h -0.199996 l -0.05,0.025 h -0.199996 l -0.025,0.025 h -0.199001 l -0.026,0.025 h -0.200001 l -0.05,0.025 h -0.200001 l -0.024,0.025 h -0.225998 l -0.05,0.025 h -0.225003 l -0.025,0.025 h -0.275002 l -0.025,0.025 h -0.274997 l -0.025,0.024 h -0.274997 l -0.025,0.026 h -0.299999 l -0.025,0.025 h -0.349998 l -0.025,0.025 h -0.375 l -0.025,0.025 h -0.425004 l -0.049,0.025 h -0.451001 l -0.05,0.025 h -0.625 l -0.025,0.025 h -0.875 l -0.025,0.025 h -0.25 M 53.401495,27.065561 h 1.024002" /></g></g><g
             id="g42"><text
               id="text46"
               style="font-variant:normal;font-weight:normal;font-size:11.95500088px;font-family:CMR12;-inkscape-font-specification:CMR12;writing-mode:lr-tb;fill:#231f20;fill-opacity:1;fill-rule:nonzero;stroke:none"
               transform="matrix(1,0,0,-1,81.061501,15.975)"><tspan
                 id="tspan44"
                 y="0"
                 x="0 5.8459954">10</tspan></text>
<text
               id="text50"
               style="font-variant:normal;font-weight:normal;font-size:11.95500088px;font-family:CMR12;-inkscape-font-specification:CMR12;writing-mode:lr-tb;fill:#231f20;fill-opacity:1;fill-rule:nonzero;stroke:none"
               transform="matrix(1,0,0,-1,114.6694,16.224859)"><tspan
                 id="tspan48"
                 y="0"
                 x="0 5.8459954">20</tspan></text>
<text
               id="text54"
               style="font-variant:normal;font-weight:normal;font-size:11.95500088px;font-family:CMR12;-inkscape-font-specification:CMR12;writing-mode:lr-tb;fill:#231f20;fill-opacity:1;fill-rule:nonzero;stroke:none"
               transform="matrix(1,0,0,-1,147.77638,16.224859)"><tspan
                 id="tspan52"
                 y="0"
                 x="0 5.8459954">30</tspan></text>
<text
               id="text58"
               style="font-variant:normal;font-weight:normal;font-size:11.95500088px;font-family:CMR12;-inkscape-font-specification:CMR12;writing-mode:lr-tb;fill:#231f20;fill-opacity:1;fill-rule:nonzero;stroke:none"
               transform="matrix(1,0,0,-1,182.63477,16.224859)"><tspan
                 id="tspan56"
                 y="0"
                 x="0 5.8459954">40</tspan></text>
<text
               id="text62"
               style="font-variant:normal;font-weight:normal;font-size:11.95500088px;font-family:CMR12;-inkscape-font-specification:CMR12;writing-mode:lr-tb;fill:#231f20;fill-opacity:1;fill-rule:nonzero;stroke:none"
               transform="matrix(1,0,0,-1,39.244102,26.475077)"><tspan
                 id="tspan60"
                 y="0"
                 x="0 5.8459954">60</tspan></text>
<text
               id="text66"
               style="font-variant:normal;font-weight:normal;font-size:11.95500088px;font-family:CMMI12;-inkscape-font-specification:CMMI12;writing-mode:lr-tb;fill:#231f20;fill-opacity:1;fill-rule:nonzero;stroke:none"
               transform="matrix(1,0,0,-1,-5.7679066e-4,71.252533)"><tspan
                 id="tspan64"
                 y="0"
                 x="0">y</tspan></text>
<text
               id="text70"
               style="font-variant:normal;font-weight:normal;font-size:11.95500088px;font-family:CMR12;-inkscape-font-specification:CMR12;writing-mode:lr-tb;fill:#231f20;fill-opacity:1;fill-rule:nonzero;stroke:none"
               transform="matrix(1,0,0,-1,6.1371202,71.252533)"><tspan
                 id="tspan68"
                 y="0"
                 x="0">(</tspan></text>
<text
               id="text74"
               style="font-variant:normal;font-weight:normal;font-size:11.95500088px;font-family:CMMI12;-inkscape-font-specification:CMMI12;writing-mode:lr-tb;fill:#231f20;fill-opacity:1;fill-rule:nonzero;stroke:none"
               transform="matrix(1,0,0,-1,10.688389,71.252533)"><tspan
                 id="tspan72"
                 y="0"
                 x="0">t</tspan></text>
<text
               id="text78"
               style="font-variant:normal;font-weight:normal;font-size:11.95500088px;font-family:CMR12;-inkscape-font-specification:CMR12;writing-mode:lr-tb;fill:#231f20;fill-opacity:1;fill-rule:nonzero;stroke:none"
               transform="matrix(1,0,0,-1,14.914481,71.252533)"><tspan
                 id="tspan76"
                 y="0"
                 x="0">)</tspan></text>
<text
               id="text82"
               style="font-variant:normal;font-weight:normal;font-size:11.95500088px;font-family:CMR12;-inkscape-font-specification:CMR12;writing-mode:lr-tb;fill:#231f20;fill-opacity:1;fill-rule:nonzero;stroke:none"
               transform="matrix(1,0,0,-1,23.369057,71.252533)"><tspan
                 id="tspan80"
                 y="0"
                 x="0">m</tspan></text>
<text
               id="text86"
               style="font-variant:normal;font-weight:normal;font-size:11.95500088px;font-family:CMMI12;-inkscape-font-specification:CMMI12;writing-mode:lr-tb;fill:#231f20;fill-opacity:1;fill-rule:nonzero;stroke:none"
               transform="matrix(1,0,0,-1,110.27593,3.0026288)"><tspan
                 id="tspan84"
                 y="0"
                 x="0">x</tspan></text>
</g><g
             id="g88"><g
               clip-path="url(#clipPath94)"
               id="g90"><text
                 id="text98"
                 style="font-variant:normal;font-weight:normal;font-size:11.95500088px;font-family:CMR12;-inkscape-font-specification:CMR12;writing-mode:lr-tb;fill:#231f20;fill-opacity:1;fill-rule:nonzero;stroke:none"
                 transform="matrix(1,0,0,-1,116.93,3.0020001)"><tspan
                   id="tspan96"
                   y="0"
                   x="0">(</tspan></text>
</g></g><g
             id="g100"><text
               id="text104"
               style="font-variant:normal;font-weight:normal;font-size:11.95500088px;font-family:CMMI12;-inkscape-font-specification:CMMI12;writing-mode:lr-tb;fill:#231f20;fill-opacity:1;fill-rule:nonzero;stroke:none"
               transform="matrix(1,0,0,-1,121.482,3.0020001)"><tspan
                 id="tspan102"
                 y="0"
                 x="0">t</tspan></text>
</g><g
             id="g106"><g
               clip-path="url(#clipPath112)"
               id="g108"><text
                 id="text116"
                 style="font-variant:normal;font-weight:normal;font-size:11.95500088px;font-family:CMR12;-inkscape-font-specification:CMR12;writing-mode:lr-tb;fill:#231f20;fill-opacity:1;fill-rule:nonzero;stroke:none"
                 transform="matrix(1,0,0,-1,125.70901,3.0020001)"><tspan
                   id="tspan114"
                   y="0"
                   x="0">)</tspan></text>
</g></g><g
             id="g118"><text
               id="text122"
               style="font-variant:normal;font-weight:normal;font-size:11.95500088px;font-family:CMR12;-inkscape-font-specification:CMR12;writing-mode:lr-tb;fill:#231f20;fill-opacity:1;fill-rule:nonzero;stroke:none"
               transform="matrix(1,0,0,-1,134.164,3.0020001)"><tspan
                 id="tspan120"
                 y="0"
                 x="0">m</tspan></text>
<text
               id="text126"
               style="font-variant:normal;font-weight:normal;font-size:11.95500088px;font-family:CMR12;-inkscape-font-specification:CMR12;writing-mode:lr-tb;fill:#231f20;fill-opacity:1;fill-rule:nonzero;stroke:none"
               transform="matrix(1,0,0,-1,38.49411,94.224632)"><tspan
                 id="tspan124"
                 y="0"
                 x="0 5.8459954">20</tspan></text>
<text
               id="text130"
               style="font-variant:normal;font-weight:normal;font-size:11.95500088px;font-family:CMR12;-inkscape-font-specification:CMR12;writing-mode:lr-tb;fill:#231f20;fill-opacity:1;fill-rule:nonzero;stroke:none"
               transform="matrix(1,0,0,-1,38.743969,59.724892)"><tspan
                 id="tspan128"
                 y="0"
                 x="0 5.8459954">40</tspan></text>
<text
               id="text134"
               style="font-variant:normal;font-weight:normal;font-size:11.95500088px;font-family:CMR12;-inkscape-font-specification:CMR12;writing-mode:lr-tb;fill:#231f20;fill-opacity:1;fill-rule:nonzero;stroke:none"
               transform="matrix(1,0,0,-1,51.244118,15.724513)"><tspan
                 id="tspan132"
                 y="0"
                 x="0">0</tspan></text>
</g></g></g></g></g></svg>