<?xml version="1.0" encoding="UTF-8" standalone="no"?>
<svg
   xmlns:dc="http://purl.org/dc/elements/1.1/"
   xmlns:cc="http://creativecommons.org/ns#"
   xmlns:rdf="http://www.w3.org/1999/02/22-rdf-syntax-ns#"
   xmlns:svg="http://www.w3.org/2000/svg"
   xmlns="http://www.w3.org/2000/svg"
   viewBox="0 0 412 160"
   height="160"
   width="412"
   xml:space="preserve"
   id="svg2"
   version="1.1"><metadata
     id="metadata8"><rdf:RDF><cc:Work
         rdf:about=""><dc:format>image/svg+xml</dc:format><dc:type
           rdf:resource="http://purl.org/dc/dcmitype/StillImage" /></cc:Work></rdf:RDF></metadata><defs
     id="defs6"><clipPath
       id="clipPath24"
       clipPathUnits="userSpaceOnUse"><path
         id="path22"
         d="M 0,0 H 309 V 120 H 0 Z" /></clipPath><clipPath
       id="clipPath34"
       clipPathUnits="userSpaceOnUse"><path
         id="path32"
         d="M 0.06,0.05999756 H 308.13999 V 119.54401 H 0.06 Z" /></clipPath></defs><g
     transform="matrix(1.3333333,0,0,-1.3333333,0,160)"
     id="g10"><g
       id="g12" /><g
       id="g14" /><g
       id="g16"><g
         id="g18"><g
           clip-path="url(#clipPath24)"
           id="g20"><g
             id="g26" /><g
             id="g28"><g
               clip-path="url(#clipPath34)"
               id="g30"><path
                 id="path36"
                 style="fill:none;stroke:#231f20;stroke-width:0.5;stroke-linecap:butt;stroke-linejoin:round;stroke-miterlimit:10;stroke-dasharray:none;stroke-opacity:1"
                 d="m 68.645004,14.391001 h 2.099999 m -1.050003,1.05 v -2.1 m 24.558006,1.05 h 2.099998 m -1.050003,2.1 v -4.199 m 24.559009,2.099 h 2.1 m -1.05001,2.1 v -4.199 m 24.55901,2.099 h 2.09898 m -1.04898,2.1 v -4.199 m 24.558,2.099 h 2.09999 m -1.05099,2.1 v -4.199 m 24.55999,2.099 h 2.10001 m -1.051,2.1 v -4.199 m 24.558,2.099 h 2.09999 m -1.04899,2.1 v -4.199 m -157.99901,9.9 h 4.200005 m -2.099999,1.05 V 21.142 M 65.347,52.992004 h 4.200005 m -2.099999,1.05 V 51.942001 M 65.347,83.821007 h 4.200005 m -2.099999,1.049995 V 82.771004 M 65.347,114.621 h 4.200005 m -2.099999,1.05001 v -2.1" /><path
                 id="path38"
                 style="fill:none;stroke:#231f20;stroke-width:1;stroke-linecap:butt;stroke-linejoin:round;stroke-miterlimit:10;stroke-dasharray:none;stroke-opacity:1"
                 d="M 69.695,14.391001 H 223.60802 M 67.695,13.341001 V 114.621" /></g></g><g
             id="g40"><path
               id="path42"
               style="fill:none;stroke:#231f20;stroke-width:0.5;stroke-linecap:butt;stroke-linejoin:round;stroke-miterlimit:10;stroke-dasharray:none;stroke-opacity:1"
               d="m 208.688,51.592003 0.11501,-0.116001 0.11699,-0.147 0.14601,-0.116001 0.117,-0.146 0.146,-0.115997 0.117,-0.118 0.11699,-0.145 0.14501,-0.117001 0.117,-0.145 0.116,-0.117001 0.146,-0.146 0.117,-0.117001 0.14598,-0.145999 0.11601,-0.115998 0.11701,-0.146004 0.14599,-0.116996 0.11701,-0.146 0.145,-0.146 0.11701,-0.116001 0.11699,-0.146 0.14601,-0.116001 0.11599,-0.147 0.146,-0.145 0.11699,-0.117001 0.11601,-0.146 0.146,-0.117 0.116,-0.145001 0.11801,-0.146 0.14499,-0.116996 0.117,-0.146 0.146,-0.146 0.11598,-0.116001 0.11702,-0.146 0.147,-0.146 0.11598,-0.145 0.14502,-0.117001 0.118,-0.146 0.116,-0.146 0.145,-0.117 0.118,-0.146 0.14599,-0.145001 0.11501,-0.146 0.11699,-0.146 0.14601,-0.115997 0.117,-0.147003 0.146,-0.145001 0.117,-0.146 L 214.813,45.117001 214.95801,45 l 0.117,-0.145996 0.116,-0.146 0.146,-0.145 0.117,-0.146 0.146,-0.146 0.11599,-0.146 0.11701,-0.146 0.14599,-0.116001 0.11701,-0.146 0.145,-0.146 0.11701,-0.145 0.11699,-0.147 0.14601,-0.145 0.11599,-0.146 0.146,-0.146 0.11699,-0.146 0.11601,-0.145 0.146,-0.147 0.116,-0.145 0.11801,-0.146 0.14499,-0.146 0.117,-0.146 0.146,-0.145 0.11598,-0.147 0.11702,-0.145 0.147,-0.146 0.116,-0.146 0.145,-0.146 0.118,-0.174999 0.116,-0.146 0.145,-0.146004 0.118,-0.146 0.14599,-0.144996 0.11501,-0.146 0.11699,-0.146 0.14601,-0.146004 0.117,-0.174 0.146,-0.146999 0.23399,-0.291001 0.14501,-0.145999 0.117,-0.175 0.116,-0.146 0.146,-0.145999 0.117,-0.146 0.14598,-0.145001 0.11601,-0.174999 0.11701,-0.146 0.14599,-0.146 0.11701,-0.146 M 196,63.083004 l 0.11601,-0.116001 0.146,-0.08701 0.116,-0.116993 0.147,-0.117 0.116,-0.087 0.117,-0.117001 0.146,-0.088 0.117,-0.116001 0.116,-0.117001 0.14599,-0.087 0.11701,-0.117 0.145,-0.08701 0.118,-0.116997 0.116,-0.116997 0.14599,-0.087 0.11602,-0.117001 0.14698,-0.117 0.11602,-0.087 0.11598,-0.117001 0.14601,-0.116001 0.117,-0.117001 0.146,-0.088 0.116,-0.115997 0.11799,-0.117001 0.14501,-0.117 0.117,-0.087 0.116,-0.117001 0.146,-0.116005 0.117,-0.116997 0.14598,-0.088 0.11601,-0.116001 0.11701,-0.117001 0.14599,-0.117 0.11701,-0.115998 0.145,-0.117 0.11701,-0.087 0.11699,-0.117001 0.14599,-0.116997 0.11601,-0.117 0.146,-0.116001 0.11699,-0.117001 0.11601,-0.116001 0.146,-0.116997 0.116,-0.117 0.147,-0.116001 0.116,-0.088 0.117,-0.117004 0.146,-0.116993 0.117,-0.116001 0.116,-0.117001 0.14599,-0.116001 0.11699,-0.116997 0.14502,-0.117004 0.118,-0.115997 0.116,-0.117001 0.14599,-0.117 0.11602,-0.115998 0.14698,-0.117 0.11602,-0.117005 0.11598,-0.144996 0.14601,-0.117001 0.117,-0.117001 0.146,-0.115997 0.117,-0.117 0.11699,-0.116002 0.14501,-0.117 0.117,-0.117001 0.116,-0.115997 0.146,-0.118 0.117,-0.145001 0.146,-0.117 0.11599,-0.117001 0.11701,-0.116001 0.14599,-0.116997 0.11701,-0.145 0.145,-0.118 0.11701,-0.116001 0.11699,-0.116001 0.14599,-0.117005 0.11601,-0.145996 0.146,-0.116997 L 206.5,53.75 l 0.11601,-0.115997 0.146,-0.146 0.116,-0.116001 0.11801,-0.117001 0.14499,-0.146 0.117,-0.116997 0.146,-0.117 0.11598,-0.116001 0.11702,-0.146 0.147,-0.117001 0.116,-0.145 0.145,-0.117001 0.118,-0.117 0.116,-0.146 0.145,-0.116997 0.118,-0.116001 0.14599,-0.146 m -25.375,20.445999 0.14501,-0.08801 0.117,-0.08699 0.116,-0.05801 0.146,-0.088 0.117,-0.08701 0.146,-0.05899 0.11599,-0.08701 0.11701,-0.088 0.14599,-0.087 0.11701,-0.058 0.145,-0.088 0.234,-0.174995 0.14599,-0.05801 0.11601,-0.088 0.146,-0.087 0.11699,-0.088 0.11601,-0.087 0.146,-0.059 0.116,-0.087 0.147,-0.088 0.116,-0.087 0.117,-0.088 0.146,-0.088 0.117,-0.087 0.116,-0.087 0.14599,-0.05901 0.11701,-0.087 0.145,-0.088 0.118,-0.087 0.116,-0.088 0.14599,-0.087 0.11602,-0.088 0.14698,-0.087 0.232,-0.175003 0.14601,-0.088 0.117,-0.08701 0.146,-0.088 0.116,-0.087 0.11799,-0.08701 0.14501,-0.088 0.117,-0.08801 0.116,-0.08699 0.146,-0.088 0.117,-0.087 0.14598,-0.08801 0.11601,-0.087 0.11701,-0.088 0.14599,-0.115997 0.11701,-0.088 0.145,-0.087 0.11699,-0.088 0.11701,-0.088 0.14599,-0.087 0.11601,-0.087 0.146,-0.117004 0.11699,-0.087 0.11601,-0.088 0.146,-0.087 0.116,-0.088 0.147,-0.088 0.116,-0.115997 0.117,-0.088 0.146,-0.087 0.117,-0.08801 0.116,-0.115997 0.14599,-0.088 0.11699,-0.087 0.14502,-0.088 0.118,-0.116997 0.116,-0.087 0.14599,-0.08701 0.11602,-0.116996 0.14698,-0.088 0.11602,-0.08701 0.11598,-0.116996 0.14601,-0.087 0.117,-0.088 0.146,-0.116997 0.116,-0.087 0.11799,-0.117004 0.14501,-0.087 0.117,-0.08801 0.116,-0.115997 0.146,-0.088 0.117,-0.116005 0.146,-0.088 0.11599,-0.088 0.11701,-0.116001 0.14599,-0.088 0.11701,-0.115998 0.145,-0.088 0.11699,-0.116005 0.11701,-0.08799 0.14599,-0.117 0.11601,-0.087 0.146,-0.117001 0.11699,-0.088 m -25.34599,15.400997 0.117,-0.059 0.116,-0.058 0.14599,-0.058 0.11699,-0.05901 0.14502,-0.029 0.118,-0.058 0.116,-0.059 0.14599,-0.058 0.11602,-0.058 0.14698,-0.05801 0.116,-0.059 0.116,-0.058 0.14601,-0.029 0.117,-0.059 0.146,-0.058 0.116,-0.05801 0.11799,-0.05901 0.14501,-0.05799 0.233,-0.115997 0.146,-0.05901 0.117,-0.058 0.146,-0.059 0.233,-0.117005 0.14599,-0.058 0.11701,-0.058 0.145,-0.058 0.11699,-0.05901 0.11701,-0.05799 0.14599,-0.05801 0.11601,-0.059 0.146,-0.058 0.11699,-0.058 0.11601,-0.088 0.146,-0.058 0.116,-0.059 0.147,-0.058 0.116,-0.058 0.117,-0.05801 0.146,-0.059 0.117,-0.087 0.116,-0.059 0.14599,-0.05801 0.11701,-0.058 0.145,-0.059 0.118,-0.058 0.116,-0.087 0.14599,-0.059 0.11602,-0.058 0.14698,-0.059 0.116,-0.087 0.116,-0.05901 0.14601,-0.058 0.117,-0.058 0.146,-0.08701 0.116,-0.05899 0.11799,-0.05801 0.14501,-0.088 0.117,-0.058 0.116,-0.058 0.146,-0.088 0.117,-0.058 0.14598,-0.059 0.11601,-0.087 0.11701,-0.058 0.14599,-0.059 0.11701,-0.087 0.145,-0.058 0.11699,-0.088 0.11701,-0.058 0.14599,-0.05901 0.11601,-0.08699 0.146,-0.058 0.11699,-0.088 0.11601,-0.058 0.146,-0.088 0.116,-0.058 0.147,-0.088 0.116,-0.058 0.117,-0.08701 0.146,-0.05899 0.117,-0.08701 0.116,-0.059 0.14599,-0.087 0.11699,-0.05801 0.14502,-0.088 0.118,-0.058 0.116,-0.088 0.14599,-0.088 0.11602,-0.058 0.14698,-0.087 0.11602,-0.058 0.11598,-0.088 0.14601,-0.087 0.117,-0.059 0.146,-0.087 0.116,-0.088 0.11799,-0.058 m -25.347,10.354004 0.11701,-0.029 0.14599,-0.03001 0.11701,-0.028 h 0.145 l 0.11699,-0.03 0.11701,-0.029 0.14599,-0.029 0.11601,-0.029 0.146,-0.029 0.11699,-0.02901 0.11601,-0.03 0.146,-0.02899 0.116,-0.029 0.147,-0.05801 0.116,-0.029 0.117,-0.03 0.146,-0.029 0.117,-0.029 0.116,-0.029 0.14599,-0.029 0.11699,-0.02901 0.14502,-0.02899 0.118,-0.03001 0.116,-0.029 0.14599,-0.058 0.116,-0.03 0.147,-0.029 0.116,-0.029 0.116,-0.029 0.14601,-0.029 0.117,-0.05801 0.146,-0.03 0.116,-0.029 0.11799,-0.029 0.14501,-0.029 0.117,-0.058 0.146,-0.03 0.116,-0.029 0.117,-0.029 0.146,-0.05801 0.11599,-0.029 0.11701,-0.03001 0.14599,-0.05799 0.11701,-0.029 0.145,-0.029 0.11699,-0.059 0.11701,-0.02901 0.14599,-0.029 0.11601,-0.058 0.146,-0.03 0.11699,-0.029 0.11601,-0.058 0.146,-0.029 0.116,-0.03001 0.147,-0.058 0.116,-0.029 0.117,-0.058 0.146,-0.029 0.117,-0.05901 0.116,-0.02899 0.14599,-0.029 0.11701,-0.05801 0.145,-0.029 0.118,-0.059 0.116,-0.029 0.14599,-0.058 0.116,-0.02901 0.147,-0.059 0.116,-0.029 0.116,-0.058 0.14601,-0.059 0.117,-0.029 0.146,-0.058 0.116,-0.03001 0.11799,-0.058 0.14501,-0.029 0.117,-0.058 0.116,-0.058 0.146,-0.03 0.117,-0.058 0.14598,-0.02901 0.23302,-0.116996 0.14599,-0.029 0.11701,-0.058 0.145,-0.058 0.11699,-0.03001 0.11701,-0.058 0.14599,-0.059 0.11601,-0.058 0.146,-0.029 0.233,-0.117004 0.146,-0.029 0.116,-0.058 0.147,-0.05801 0.116,-0.05899 0.117,-0.05801 0.146,-0.029 m -25.375,5.337006 h 0.26199 l 0.147,-0.029 h 1.02001 l 0.117,-0.02901 h 0.52498 l 0.11601,-0.029 h 0.52501 l 0.11699,-0.029 h 0.379 l 0.14601,-0.03 h 0.233 l 0.146,-0.029 h 0.263 l 0.116,-0.029 h 0.263 l 0.117,-0.029 h 0.26199 l 0.11699,-0.029 h 0.14502 l 0.118,-0.02901 h 0.26199 l 0.116,-0.03 h 0.147 l 0.116,-0.029 h 0.116 l 0.14601,-0.029 h 0.117 l 0.146,-0.029 h 0.116 l 0.11799,-0.029 h 0.14501 l 0.117,-0.03 h 0.146 l 0.116,-0.029 h 0.117 l 0.146,-0.029 h 0.11599 l 0.11701,-0.029 h 0.14599 l 0.11701,-0.029 0.145,-0.03001 h 0.11699 l 0.11701,-0.028 h 0.14599 l 0.11601,-0.03 0.146,-0.029 H 154 l 0.11601,-0.029 0.146,-0.029 h 0.116 l 0.147,-0.029 0.116,-0.029 h 0.117 l 0.146,-0.03 0.117,-0.029 0.116,-0.029 h 0.14599 l 0.11701,-0.02901 0.145,-0.029 0.118,-0.029 h 0.116 l 0.14599,-0.03 0.116,-0.029 0.147,-0.029 h 0.116 l 0.116,-0.029 0.14601,-0.029 0.117,-0.029 0.146,-0.029 0.116,-0.03001 h 0.11799 l 0.14501,-0.029 0.117,-0.029 0.146,-0.029 0.116,-0.03 0.117,-0.02901 0.14598,-0.02899 0.11601,-0.029 m -25.345,0.320999 0.116,0.029 h 0.14601 l 0.11699,0.029 0.11601,0.029 0.146,0.03 h 0.116 l 0.14599,0.029 0.11701,0.029 0.117,0.02901 h 0.146 l 0.117,0.029 0.116,0.029 0.14599,0.03 h 0.116 l 0.14601,0.029 0.11699,0.029 h 0.11701 l 0.14599,0.029 0.116,0.029 h 0.14601 l 0.11699,0.029 0.116,0.03 h 0.14601 l 0.117,0.028 h 0.146 l 0.116,0.03001 0.117,0.029 h 0.146 l 0.117,0.029 h 0.146 l 0.116,0.029 h 0.117 l 0.14598,0.029 h 0.11601 l 0.11701,0.03 h 0.14599 l 0.11701,0.029 h 0.145 l 0.11699,0.029 h 0.11701 l 0.14599,0.03001 h 0.116 l 0.14601,0.02799 H 138.25 l 0.11601,0.03 h 0.262 l 0.14599,0.02901 h 0.11701 l 0.117,0.029 h 0.263 l 0.116,0.029 h 0.26199 l 0.14601,0.029 h 0.234 l 0.14599,0.029 h 0.26201 l 0.11699,0.03 h 0.37901 l 0.146,0.029 h 0.496 l 0.146,0.029 h 0.49499 l 0.11701,0.02901 h 1.05 l 0.11699,0.03 h 1.77901 m -25.346,-4.726005 0.14599,0.03001 0.233,0.115997 0.14601,0.029 0.11699,0.059 0.14601,0.058 0.116,0.02901 0.11699,0.058 0.146,0.03 0.23301,0.116997 0.14599,0.028 0.11701,0.059 0.14499,0.029 0.11701,0.058 0.117,0.029 0.14599,0.059 0.11601,0.058 0.14599,0.03 0.117,0.058 0.116,0.02901 0.14601,0.058 0.116,0.029 0.14599,0.059 0.11701,0.029 0.11699,0.029 0.14601,0.05901 0.11699,0.02799 0.14501,0.05901 0.11699,0.029 0.116,0.059 0.14601,0.028 0.11699,0.059 0.11701,0.029 0.14599,0.029 0.11601,0.058 0.14599,0.029 0.11701,0.03 0.11599,0.058 0.14601,0.03 0.117,0.02801 0.14599,0.059 0.11601,0.029 0.11699,0.029 0.14601,0.05799 0.11699,0.03001 0.14601,0.029 0.116,0.05801 0.11699,0.03 0.146,0.028 0.116,0.03 0.11701,0.058 0.14599,0.029 0.11701,0.03 0.14499,0.028 0.11701,0.03 0.117,0.05801 0.146,0.029 0.116,0.029 0.14599,0.029 0.117,0.029 0.116,0.03 0.14601,0.058 0.116,0.03 0.14599,0.02901 0.11701,0.02899 0.117,0.02901 0.146,0.029 0.117,0.029 0.116,0.029 0.14599,0.029 0.116,0.03 0.14601,0.029 0.11699,0.029 0.11701,0.05901 0.14599,0.02799 0.116,0.03 0.14601,0.02901 0.11699,0.029 0.116,0.029 0.14601,0.03 0.11699,0.028 h 0.14601 l 0.116,0.03 0.117,0.02901 0.146,0.029 0.117,0.029 0.146,0.029 0.116,0.02899 0.117,0.02901 0.146,0.03 0.11599,0.029 0.11701,0.029 0.14599,0.03 h 0.11701 l 0.145,0.02901 0.11699,0.029 0.11701,0.029 0.14599,0.029 m -25.347,-9.771004 0.11701,0.088 0.11699,0.05801 0.14601,0.087 0.11699,0.059 0.14501,0.08701 0.11699,0.05899 0.116,0.08701 0.14601,0.058 0.11699,0.088 0.11701,0.058 0.14599,0.088 0.11601,0.058 0.14599,0.088 0.11701,0.058 0.11599,0.08699 0.146,0.05901 0.11701,0.058 0.14599,0.088 0.11601,0.058 0.11699,0.087 0.14601,0.059 0.11699,0.058 0.14601,0.087 0.23299,0.116997 0.146,0.088 0.116,0.058 0.11701,0.058 0.14599,0.088 0.11701,0.05801 0.14499,0.05899 0.117,0.08701 0.11701,0.058 0.14599,0.058 0.11601,0.05901 0.14599,0.087 0.117,0.059 0.116,0.059 0.14601,0.05801 0.116,0.058 0.14599,0.087 0.11701,0.059 0.11699,0.058 0.14601,0.05801 0.11699,0.059 0.14501,0.088 0.11699,0.058 0.116,0.05801 0.14601,0.058 0.234,0.116997 0.14599,0.059 0.11601,0.058 0.14599,0.087 0.11701,0.058 0.11599,0.059 0.146,0.05801 0.11701,0.05799 0.14599,0.05901 0.11601,0.058 0.11699,0.058 0.14601,0.059 0.11699,0.058 0.14601,0.058 0.116,0.059 0.11699,0.058 0.146,0.05901 0.116,0.058 0.11701,0.058 0.14599,0.05799 0.11701,0.05901 0.14499,0.05801 0.11701,0.058 0.117,0.059 0.14599,0.029 0.11601,0.059 0.14599,0.058 0.117,0.05801 0.116,0.058 0.14601,0.058 0.116,0.059 0.14599,0.059 0.11701,0.028 0.11699,0.05901 0.14601,0.058 0.11699,0.058 0.14501,0.059 0.11699,0.029 0.116,0.05901 0.14601,0.05799 0.11699,0.05801 0.11701,0.029 0.14599,0.058 0.11601,0.059 0.14599,0.058 0.11701,0.029 0.11599,0.058 0.146,0.059 0.11701,0.059 m -25.346004,-14.817001 0.115997,0.116005 0.146004,0.088 0.116996,0.115997 0.117005,0.08801 0.144996,0.087 0.116997,0.117004 0.146004,0.087 0.115997,0.116997 0.117005,0.088 0.145988,0.087 0.117012,0.116996 0.144997,0.08701 0.117004,0.088 0.116997,0.116996 0.145996,0.08701 0.116005,0.087 0.145996,0.088 0.117004,0.117005 0.115998,0.087 0.146004,0.088 0.116989,0.115997 0.146011,0.08801 0.116997,0.087 0.115997,0.088 0.146004,0.087 0.116997,0.116996 0.116005,0.088 0.145996,0.087 0.117004,0.088 0.145996,0.087 0.115997,0.117004 0.116997,0.087 0.145004,0.087 0.118004,0.088 0.144997,0.088 0.234001,0.175003 0.146004,0.087 0.115997,0.116996 0.145996,0.087 0.117005,0.08801 0.115997,0.087 0.146997,0.088 0.116,0.08699 0.11701,0.08801 0.14599,0.088 0.11701,0.08701 0.14499,0.087 0.23401,0.175003 0.14599,0.088 0.11601,0.087 0.14599,0.088 0.117,0.087 0.116,0.088 0.146,0.087 0.11601,0.088 0.14599,0.087 0.11701,0.088 0.11699,0.05901 0.14601,0.087 0.11699,0.088 0.14501,0.087 0.11699,0.087 0.116,0.088 0.14601,0.088 0.11699,0.08701 0.11701,0.058 0.14599,0.088 0.11601,0.087 0.14599,0.088 0.11701,0.087 0.11599,0.088 0.146,0.05801 0.11701,0.087 0.14599,0.088 0.11601,0.088 0.11699,0.058 0.14601,0.087 0.11699,0.088 0.14601,0.088 0.116,0.05799 0.11699,0.08701 0.146,0.088 0.116,0.05801 0.11701,0.08699 0.14599,0.08801 0.11701,0.059 0.14499,0.08701 0.117,0.087 0.11701,0.059 0.14599,0.087 0.11601,0.088 0.14599,0.058 0.117,0.087 0.116,0.059 0.14601,0.087 0.116,0.088 0.14599,0.058 m -25.374998,-19.833 0.146004,0.146 0.116997,0.116001 0.262001,0.263001 L 82.541,53.75 l 0.146004,0.117004 0.115997,0.116997 0.116997,0.145996 0.145004,0.116005 0.118004,0.117001 0.144997,0.116001 0.117004,0.117 0.116997,0.146 0.145996,0.116997 0.116005,0.116001 0.145996,0.117001 0.496002,0.495998 0.146004,0.117001 0.115997,0.116001 0.116997,0.117001 0.146004,0.117 0.115997,0.115997 0.117005,0.117001 0.145988,0.117001 0.117012,0.116001 0.144997,0.117 0.116997,0.146 0.117004,0.115998 0.145996,0.117 0.116005,0.117001 0.145996,0.115997 0.233002,0.234001 0.146004,0.116001 0.116989,0.117001 0.146003,0.116001 0.117005,0.088 0.115997,0.117001 0.146004,0.117001 0.116997,0.116001 0.116005,0.117 0.145996,0.116997 0.116996,0.116001 0.146004,0.117001 0.232994,0.233001 0.145004,0.116997 0.118004,0.087 0.144997,0.117001 0.234001,0.232998 0.146004,0.117 0.115997,0.117001 0.145996,0.087 0.116005,0.116997 0.116997,0.116997 0.146004,0.116005 0.116996,0.117001 0.117005,0.087 0.144996,0.117 0.116997,0.117001 0.146004,0.115997 0.115997,0.088 0.118004,0.117001 0.144989,0.116001 0.117012,0.088 0.144997,0.115998 0.117996,0.117 0.116005,0.087 0.145996,0.117 0.116005,0.116997 0.145996,0.087 0.117004,0.117005 0.115998,0.117 0.146004,0.087 0.116989,0.117001 0.146011,0.116001 0.116997,0.088 0.115997,0.117001 0.146004,0.087 0.116997,0.117 0.116005,0.08699 0.145996,0.117005 0.117004,0.116001 0.145996,0.088 0.115997,0.117001 0.116997,0.087 0.145004,0.117 0.118004,0.08799 0.144997,0.116005 0.117004,0.088 0.116997,0.115998 0.146004,0.088 0.115997,0.087 0.145996,0.116996 0.117005,0.088 M 69.241005,39.429001 69.357002,39.576 l 0.117005,0.145001 0.145988,0.175003 0.117005,0.146 0.145004,0.146 0.116997,0.144996 0.117004,0.146 0.145996,0.146004 0.116005,0.146 0.145996,0.146 0.117004,0.174999 0.115998,0.146 0.145996,0.146 0.116997,0.145 0.146003,0.147 0.117005,0.145 0.115997,0.146 0.146004,0.146 0.232994,0.291 0.146004,0.147 0.116996,0.145 0.146004,0.146 0.115997,0.146 0.116997,0.146 0.145004,0.145 0.118004,0.147 0.144997,0.145 0.116997,0.146 0.263,0.262001 0.116005,0.146 0.145996,0.146 0.116005,0.146 0.116997,0.146 0.146004,0.145 0.116996,0.146 0.146004,0.116997 0.115997,0.146 0.116997,0.145999 0.146004,0.146 0.115997,0.145001 0.117005,0.147003 0.145988,0.115997 0.117012,0.146 0.144997,0.146 0.116997,0.145001 0.117004,0.117 0.145996,0.146 0.116005,0.146 0.145996,0.146 0.117004,0.117001 0.115998,0.145 0.145996,0.146 0.116997,0.116001 0.146003,0.146 0.117005,0.146 0.115997,0.116997 0.146004,0.145999 0.116997,0.146 0.115997,0.115998 0.146004,0.146003 0.116996,0.146 0.146004,0.117001 0.115997,0.145 0.116997,0.147 0.145004,0.116001 0.118004,0.146 0.144997,0.116001 0.117004,0.146 0.116997,0.116997 0.145996,0.145999 0.116005,0.116002 0.145996,0.146 0.117005,0.145999 0.115997,0.117001 0.146995,0.146 0.116005,0.117001 0.146004,0.145 0.115997,0.117001 0.116997,0.115997 0.146004,0.147003 0.115997,0.115997 0.118004,0.146 0.144989,0.116001 0.117012,0.147 0.144997,0.116001 0.117996,0.116001 0.116005,0.146 0.145996,0.116997 0.116005,0.146 0.145996,0.117 0.117004,0.117001 0.115998,0.145 0.146004,0.117001 0.116989,0.116001 0.146003,0.146 0.117005,0.117 0.115997,0.116997" /><path
               id="path44"
               style="fill:none;stroke:#231f20;stroke-width:1;stroke-linecap:butt;stroke-linejoin:round;stroke-miterlimit:10;stroke-dasharray:3, 3, 3, 3, 3, 3;stroke-dashoffset:0;stroke-opacity:1"
               d="m 208.44,60.896004 0.11501,-0.204003 0.117,-0.203998 0.146,-0.203999 0.11799,-0.204006 0.14501,-0.204994 0.23399,-0.408001 0.14499,-0.203999 0.11702,-0.204002 0.116,-0.204998 0.14599,-0.204006 0.11701,-0.232994 0.146,-0.204003 0.115,-0.203998 0.118,-0.203999 0.14599,-0.205002 0.11701,-0.203998 0.145,-0.233002 0.11699,-0.203999 0.11701,-0.204002 0.147,-0.233997 0.115,-0.204003 0.146,-0.203998 0.117,-0.203999 0.116,-0.234001 0.146,-0.203999 0.11598,-0.204002 0.11902,-0.232998 0.144,-0.204006 0.11698,-0.233994 0.14502,-0.204002 0.118,-0.232998 0.116,-0.205002 0.147,-0.204002 0.116,-0.232998 0.145,-0.203998 0.118,-0.234002 0.11499,-0.203998 0.14601,-0.233002 0.117,-0.232998 0.14699,-0.205002 0.11501,-0.233001 0.117,-0.203999 0.146,-0.232998 0.11799,-0.233001 0.14501,-0.205002 0.117,-0.232998 0.11701,-0.234001 0.14497,-0.202999 0.11702,-0.234002 0.116,-0.233997 0.14599,-0.204002 0.11701,-0.232998 0.146,-0.233002 0.115,-0.234001 0.118,-0.202999 0.14599,-0.234001 0.11701,-0.232998 0.145,-0.234005 0.234,-0.465996 0.147,-0.204998 0.115,-0.233002 0.146,-0.233002 0.117,-0.233997 0.116,-0.233002 0.146,-0.232997 0.11598,-0.234002 0.11902,-0.233001 0.144,-0.232998 0.11698,-0.234001 0.14502,-0.232998 0.118,-0.233002 0.116,-0.234001 0.147,-0.232998 0.116,-0.233002 0.145,-0.233997 0.118,-0.262001 0.11499,-0.233002 0.14601,-0.234001 0.117,-0.232998 0.14699,-0.233002 0.11501,-0.232997 0.117,-0.263001 0.146,-0.234001 0.11799,-0.232998 0.14501,-0.233002 0.117,-0.262001 0.11701,-0.233997 0.14497,-0.233002 0.11702,-0.233997 0.116,-0.262001 0.14599,-0.234001 0.11701,-0.232998 0.146,-0.262001 0.115,-0.234001 0.118,-0.262002 0.14601,-0.233997 0.11699,-0.233002 m -25.346,40.250004 0.116,-0.175003 0.146,-0.146004 0.11598,-0.174995 0.14702,-0.145004 0.116,-0.175995 0.11801,-0.174004 0.14399,-0.145996 0.118,-0.175003 0.116,-0.145996 0.147,-0.175003 0.116,-0.174995 0.14599,-0.146004 0.11602,-0.174996 0.11598,-0.175003 0.147,-0.146003 0.11601,-0.174996 0.146,-0.175003 0.11701,-0.174995 0.11698,-0.175003 0.14501,-0.146004 0.11799,-0.175003 0.14501,-0.174995 0.117,-0.175004 0.116,-0.174995 0.14598,-0.175003 0.11702,-0.145996 0.116,-0.174004 0.14599,-0.174995 0.11701,-0.175003 0.146,-0.174996 0.11599,-0.176002 0.11701,-0.174004 0.14499,-0.175003 0.11801,-0.174995 0.145,-0.175003 0.11699,-0.175995 0.11701,-0.174004 0.14601,-0.174995 0.11599,-0.175003 0.14701,-0.174996 0.11599,-0.176002 0.116,-0.204002 0.146,-0.175004 0.11598,-0.174995 0.14702,-0.173996 0.116,-0.176002 0.11801,-0.175003 0.14399,-0.203995 0.118,-0.175003 0.116,-0.175003 0.147,-0.174996 0.116,-0.204002 0.14599,-0.175003 0.232,-0.349999 0.14702,-0.203994 0.11599,-0.175003 0.146,-0.175004 0.11701,-0.203994 0.11698,-0.175003 0.14501,-0.204003 0.11799,-0.175003 0.14501,-0.174995 0.117,-0.205002 0.11699,-0.174995 0.14499,-0.204003 0.11702,-0.174995 0.116,-0.204003 0.14599,-0.175003 0.11701,-0.203994 0.146,-0.175003 0.115,-0.204003 0.118,-0.204002 0.14599,-0.175995 0.11701,-0.204002 0.145,-0.174996 0.11699,-0.204002 0.11701,-0.204003 0.147,-0.174995 0.115,-0.204002 0.146,-0.204003 0.117,-0.174995 0.116,-0.205002 0.146,-0.204002 0.11598,-0.203999 0.11902,-0.174999 0.144,-0.204003 0.11698,-0.203998 0.14502,-0.203999 0.118,-0.204002 0.116,-0.205002 0.147,-0.174995 0.116,-0.204003 0.145,-0.203998 0.118,-0.204003 0.11499,-0.203998 0.14601,-0.203999 0.117,-0.205002 0.14699,-0.203998" /><path
               id="path46"
               style="fill:none;stroke:#231f20;stroke-width:1;stroke-linecap:butt;stroke-linejoin:round;stroke-miterlimit:10;stroke-dasharray:3, 3, 3, 3, 3, 3;stroke-dashoffset:0;stroke-opacity:1"
               d="m 183.06401,92.688004 0.14598,-0.116997 0.11702,-0.116005 0.116,-0.116997 0.14699,-0.117004 0.11601,-0.116997 0.146,-0.115997 0.11599,-0.117005 0.11701,-0.115997 0.14599,-0.146004 0.11701,-0.116997 0.145,-0.116996 0.234,-0.233002 0.14601,-0.146004 0.11599,-0.116005 0.14699,-0.116989 0.11601,-0.117004 0.116,-0.144997 0.146,-0.117004 0.11598,-0.116997 0.14702,-0.146004 0.116,-0.115997 0.11799,-0.117005 0.14401,-0.145996 0.118,-0.116996 0.116,-0.146004 0.147,-0.115997 0.116,-0.146004 0.14599,-0.117005 0.116,-0.115997 0.116,-0.145996 0.147,-0.117004 0.11601,-0.145996 0.146,-0.145005 0.11701,-0.116996 0.11698,-0.145997 0.14501,-0.117012 0.11799,-0.144989 0.14501,-0.117004 0.117,-0.145996 0.116,-0.146004 0.14598,-0.116005 0.11702,-0.145996 0.116,-0.145996 0.14599,-0.117004 0.11701,-0.145996 0.146,-0.145005 0.11599,-0.145996 0.11701,-0.116997 0.14499,-0.146003 0.11801,-0.145996 0.145,-0.146004 0.11699,-0.145996 0.11701,-0.116005 0.14601,-0.145996 0.11599,-0.146004 0.14699,-0.145004 0.23201,-0.291992 0.146,-0.146004 0.11598,-0.145996 0.14702,-0.146012 0.116,-0.144989 0.11799,-0.146003 0.14401,-0.145996 0.118,-0.146004 0.116,-0.145996 0.147,-0.146004 0.116,-0.145004 0.14599,-0.145996 0.11602,-0.145996 0.11598,-0.146004 0.147,-0.145996 0.11601,-0.146004 0.146,-0.144997 0.11701,-0.146003 0.11698,-0.176003 0.14501,-0.144996 0.11799,-0.145997 0.14501,-0.146003 0.117,-0.144997 0.116,-0.176002 0.14598,-0.145005 0.11702,-0.145996 0.116,-0.175003 0.14599,-0.145996 0.11701,-0.146004 0.146,-0.174995 0.11599,-0.146004 0.11701,-0.146004 0.14499,-0.174995 0.11801,-0.145004 0.145,-0.145996 0.11699,-0.176003 0.11701,-0.144996 0.14601,-0.175004 0.11599,-0.145996 0.14701,-0.175003 0.11599,-0.145996 m -25.346,23.333995 0.117,-0.059 0.11699,-0.087 0.145,-0.088 0.11701,-0.058 0.14599,-0.087 0.11701,-0.088 0.116,-0.059 0.14599,-0.087 0.11601,-0.087 0.146,-0.059 0.23399,-0.17499 0.14501,-0.087 0.117,-0.059 0.146,-0.087 0.117,-0.088 0.116,-0.087 0.14598,-0.088 0.11702,-0.087 0.116,-0.058 0.14699,-0.088 0.11601,-0.087 0.146,-0.088 0.11599,-0.087 0.11701,-0.088 0.14599,-0.087 0.11701,-0.088 0.145,-0.088 0.11699,-0.087 0.11701,-0.087 0.14599,-0.088 0.11699,-0.08701 0.14502,-0.08799 0.117,-0.08701 0.116,-0.088 0.147,-0.087 0.116,-0.088 0.146,-0.116996 0.117,-0.087 0.11598,-0.088 0.14602,-0.087 0.117,-0.088 0.11699,-0.087 0.145,-0.117004 0.11701,-0.087 0.14599,-0.088 0.11701,-0.087 0.116,-0.116997 0.14599,-0.087 0.11601,-0.088 0.146,-0.117005 0.23399,-0.174995 0.14501,-0.115997 0.117,-0.088 0.146,-0.087 0.117,-0.116997 0.116,-0.08701 0.14598,-0.116996 0.11702,-0.088 0.116,-0.116005 0.14699,-0.088 0.11601,-0.115998 0.146,-0.088 0.11599,-0.117004 0.11701,-0.08699 0.14599,-0.117005 0.11701,-0.087 0.145,-0.116997 0.11699,-0.117004 0.11701,-0.087 0.14599,-0.116997 0.11699,-0.087 0.14502,-0.116997 0.117,-0.117004 0.116,-0.115998 0.147,-0.088 0.116,-0.116013 0.146,-0.116989 0.117,-0.088 0.11598,-0.117005 0.14602,-0.115997 0.117,-0.117004 0.11699,-0.116997 0.145,-0.087 0.11701,-0.116005 0.14599,-0.116997 0.23301,-0.234001 0.14599,-0.115997 0.11601,-0.117005 0.146,-0.115997 0.11701,-0.116997 0.11698,-0.117004 0.14501,-0.115998 0.117,-0.117004 0.146,-0.116997 0.117,-0.115997 0.116,-0.117004" /><path
               id="path48"
               style="fill:none;stroke:#231f20;stroke-width:1;stroke-linecap:butt;stroke-linejoin:round;stroke-miterlimit:10;stroke-dasharray:3, 3, 3, 3, 3, 3;stroke-dashoffset:0;stroke-opacity:1"
               d="m 157.718,107.592 0.11701,-0.029 0.14599,-0.029 0.11701,-0.059 0.145,-0.029 0.11699,-0.029 0.11701,-0.029 0.14599,-0.029 0.11699,-0.059 0.14502,-0.029 0.117,-0.029 0.116,-0.029 0.147,-0.058 0.116,-0.029 0.146,-0.03 0.117,-0.058 0.11598,-0.029 0.14602,-0.03 0.117,-0.058 0.11699,-0.029 0.145,-0.029 0.11701,-0.058 0.14599,-0.03 0.11701,-0.058 0.116,-0.029 0.14599,-0.058 0.11601,-0.03 0.146,-0.058 0.11701,-0.029 0.11698,-0.058 0.14501,-0.03 0.117,-0.058 0.146,-0.029 0.117,-0.058 0.116,-0.059 0.14598,-0.029 0.11702,-0.058 0.146,-0.059 0.11699,-0.029 0.11601,-0.058 0.146,-0.058 0.11599,-0.03 0.11701,-0.058 0.14599,-0.058 0.11701,-0.059 0.145,-0.029 0.11699,-0.058 0.11701,-0.058 0.14599,-0.059 0.11699,-0.058 0.14502,-0.029 0.117,-0.059 0.116,-0.058 0.147,-0.058 0.116,-0.059 0.146,-0.058 0.23298,-0.11701 0.14602,-0.058 0.23399,-0.117 0.145,-0.058 0.11701,-0.058 0.14599,-0.059 0.11701,-0.058 0.116,-0.058 0.14599,-0.058 0.11601,-0.059 0.146,-0.058 0.11701,-0.059 0.11698,-0.058 0.14501,-0.087 0.117,-0.059 0.146,-0.058 0.117,-0.058 0.116,-0.059 0.14598,-0.087 0.11702,-0.059 0.116,-0.058 0.14699,-0.058 0.11601,-0.088 0.146,-0.058 0.11599,-0.059 0.11701,-0.087 0.14599,-0.059 0.11701,-0.058 0.145,-0.087 0.11699,-0.058 0.11701,-0.059 0.14599,-0.087 0.11699,-0.059 0.14502,-0.087 0.117,-0.058 0.116,-0.088 0.147,-0.058 0.116,-0.088 0.146,-0.058 0.117,-0.088 0.11598,-0.058 0.14602,-0.087 m -25.375,6.41601 0.14599,0.029 h 0.26201 l 0.11699,0.029 h 0.26201 l 0.117,0.03 h 0.52498 l 0.11702,0.029 h 0.90399 l 0.11701,0.029 h 1.02 l 0.147,-0.029 H 149.64 l 0.145,-0.029 h 0.38001 l 0.116,-0.03 h 0.408 L 150.806,108.7 h 0.26201 l 0.117,-0.029 h 0.263 l 0.116,-0.029 h 0.14598 l 0.11702,-0.029 h 0.146 l 0.11699,-0.03 h 0.11601 l 0.146,-0.028 h 0.11599 l 0.11701,-0.03 h 0.14599 l 0.11701,-0.029 h 0.145 l 0.11699,-0.029 h 0.11701 l 0.14599,-0.029 0.11699,-0.029 h 0.14502 l 0.117,-0.029 h 0.116 l 0.147,-0.03 0.116,-0.029 0.146,-0.029 h 0.117 l 0.11598,-0.029 0.14602,-0.029 0.117,-0.029 H 154.89 l 0.145,-0.03 0.11701,-0.029 0.14599,-0.029 0.11701,-0.029 h 0.116 l 0.14599,-0.029 0.11601,-0.029 0.146,-0.03 0.11701,-0.029 0.11698,-0.029 0.14501,-0.029 0.117,-0.029 0.146,-0.03 0.117,-0.029 0.116,-0.029 0.14598,-0.029 0.11702,-0.029 0.146,-0.03 0.11699,-0.028 0.11601,-0.03 0.146,-0.029 0.11599,-0.029" /><path
               id="path50"
               style="fill:none;stroke:#231f20;stroke-width:1;stroke-linecap:butt;stroke-linejoin:round;stroke-miterlimit:10;stroke-dasharray:3, 3, 3, 3, 3, 3;stroke-dashoffset:0;stroke-opacity:1"
               d="m 132.373,105.55 0.11601,0.059 0.146,0.058 0.11699,0.058 0.11601,0.03 0.146,0.058 0.117,0.059 0.146,0.058 0.117,0.029 0.11598,0.058 0.14602,0.058 0.117,0.029 0.116,0.059 0.14599,0.059 0.11701,0.028 0.14599,0.059 0.116,0.029 0.11701,0.058 0.14599,0.029 0.116,0.059 0.14601,0.058 0.11699,0.03 0.117,0.058 0.14501,0.029 0.117,0.058 0.146,0.03 0.117,0.028 0.116,0.059 0.14598,0.029 0.11702,0.058 0.146,0.029 0.11599,0.029 0.11701,0.059 0.146,0.029 0.11599,0.03 0.11701,0.058 0.14599,0.029 0.11701,0.029 0.145,0.058 0.11699,0.029 0.11701,0.03 0.14599,0.029 0.11601,0.029 0.146,0.059 0.117,0.028 0.116,0.03 0.146,0.029 0.117,0.029 0.146,0.029 0.117,0.03 0.11598,0.058 0.14602,0.029 0.117,0.029 0.116,0.029 0.14599,0.029 0.11701,0.029 0.14599,0.029 0.116,0.03 0.11701,0.029 0.14599,0.029 0.116,0.03 h 0.14601 l 0.11699,0.028 0.117,0.03 0.14501,0.029 0.117,0.029 0.146,0.029 0.117,0.029 h 0.116 l 0.14598,0.029 0.11702,0.03 0.146,0.029 0.11599,0.029 h 0.11701 l 0.146,0.029 0.11599,0.03 h 0.11701 l 0.14599,0.028 0.11701,0.03 h 0.145 l 0.11699,0.029 0.11701,0.029 h 0.14599 l 0.11601,0.029 0.146,0.03 h 0.117 l 0.116,0.028 h 0.146 l 0.117,0.03 h 0.146 l 0.117,0.029 h 0.11598 l 0.14602,0.029 h 0.117 l 0.116,0.029 h 0.263 l 0.14599,0.029 h 0.23301 m -25.346,-10.471005 0.146,0.088 0.117,0.08701 0.11599,0.116996 0.146,0.08799 0.117,0.08701 0.14601,0.088 0.11599,0.116997 0.11701,0.08701 0.146,0.087 0.11599,0.088 0.11701,0.088 0.14599,0.087 0.11701,0.087 0.14499,0.088 0.117,0.088 0.11701,0.115998 0.146,0.087 0.116,0.088 0.14599,0.08699 0.11701,0.088 0.11599,0.087 0.14601,0.088 0.11699,0.058 0.14601,0.088 0.11699,0.088 0.11599,0.087 0.14602,0.088 0.11699,0.087 0.14501,0.087 0.11699,0.088 0.11701,0.088 0.14599,0.058 0.11601,0.087 0.117,0.088 0.146,0.087 0.116,0.058 0.14599,0.088 0.234,0.17501 0.14501,0.058 0.117,0.088 0.146,0.088 0.117,0.058 0.11599,0.087 0.146,0.088 0.117,0.058 0.14601,0.087 0.11599,0.059 0.11701,0.088 0.146,0.058 0.11599,0.087 0.11701,0.087 0.14599,0.059 0.11701,0.087 0.14499,0.059 0.117,0.058 0.11701,0.088 0.146,0.058 0.116,0.088 0.146,0.058 0.117,0.088 0.11599,0.058 0.14601,0.058 0.11699,0.088 0.14601,0.058 0.117,0.058 0.11598,0.088 0.14602,0.058 0.117,0.058 0.116,0.059 0.14599,0.087 0.11701,0.059 0.14599,0.058 0.116,0.058 0.11701,0.058 0.14599,0.088 0.116,0.058 0.14601,0.058 0.11699,0.059 0.117,0.059 0.14501,0.058 0.117,0.058 0.146,0.058 0.117,0.059 0.116,0.058 0.14598,0.059 0.11702,0.058 0.146,0.058 0.11599,0.059 0.11701,0.058 0.146,0.058 0.11599,0.058 0.11701,0.058 0.14599,0.059 0.11701,0.059 0.145,0.058 0.11699,0.058 0.11701,0.029 0.14599,0.059" /><path
               id="path52"
               style="fill:none;stroke:#231f20;stroke-width:1;stroke-linecap:butt;stroke-linejoin:round;stroke-miterlimit:10;stroke-dasharray:3, 3, 3, 3, 3, 3;stroke-dashoffset:0;stroke-opacity:1"
               d="m 107.02701,86.621002 0.11699,0.117005 0.11599,0.145996 0.14602,0.145996 0.11699,0.145004 0.14501,0.117004 0.11699,0.145997 0.11701,0.145004 0.14599,0.116997 0.116,0.145996 0.11701,0.117004 0.14599,0.145996 0.11601,0.146004 0.14599,0.115997 0.11701,0.146004 0.11699,0.116997 0.14501,0.145996 0.117,0.116005 0.146,0.146003 0.117,0.116997 0.11599,0.146004 0.146,0.115997 0.117,0.116997 0.14601,0.146004 0.11599,0.115997 0.11701,0.146004 0.146,0.116997 0.11599,0.116996 0.11701,0.145005 0.14599,0.116996 0.11701,0.117005 0.14499,0.145996 0.23401,0.233002 0.146,0.117004 0.116,0.144997 0.14599,0.116996 0.11701,0.117005 0.11599,0.115989 0.14601,0.117012 0.11699,0.145997 0.14601,0.116996 0.11699,0.116005 0.11599,0.116997 0.14602,0.116997 0.11699,0.116005 0.14501,0.117004 0.11699,0.116989 0.11701,0.116005 0.14599,0.117005 0.11601,0.115997 0.117,0.116997 0.14599,0.117004 0.11601,0.116989 0.14599,0.116013 0.234,0.233993 0.14501,0.116005 0.117,0.116997 0.146,0.116997 0.117,0.116005 0.11599,0.117004 0.146,0.08699 0.117,0.117005 0.14601,0.116005 0.11599,0.116997 0.11701,0.116996 0.146,0.088 0.11599,0.115998 0.11701,0.117004 0.14599,0.116997 0.11701,0.087 0.14499,0.117004 0.117,0.115998 0.11701,0.088 0.146,0.116997 0.116,0.116005 0.14599,0.088 0.11701,0.115997 0.11599,0.08801 0.14601,0.117004 0.11699,0.087 0.14601,0.116997 0.11699,0.117004 0.11599,0.087 0.14602,0.116989 0.11699,0.08701 0.14501,0.088 0.11699,0.116997 0.11701,0.08701 0.14599,0.115998 0.11601,0.088 0.117,0.116997 0.14599,0.087 0.11601,0.088 0.14599,0.117004 0.234,0.174996 0.14501,0.116005 0.117,0.087 m -25.346005,-27.416001 0.116996,0.204003 0.145005,0.174995 0.116996,0.175003 0.117005,0.174995 0.144989,0.175004 0.117012,0.175003 0.145996,0.203994 0.116997,0.175003 0.116005,0.174996 0.145996,0.175003 0.117004,0.175003 0.145996,0.174995 0.116005,0.175003 0.116997,0.174996 0.146004,0.175003 0.115989,0.175003 0.146004,0.174995 0.233994,0.349999 0.145011,0.175003 0.116997,0.175003 0.146004,0.145996 0.116997,0.175003 0.115997,0.174995 0.146004,0.175004 0.116996,0.175003 0.115998,0.174995 0.146004,0.146004 0.117004,0.174995 0.145996,0.175003 0.116005,0.175003 0.116997,0.174996 0.146003,0.145996 0.116997,0.175003 0.145996,0.174995 0.116005,0.145005 0.116997,0.175003 0.145996,0.176002 0.116005,0.144997 0.146004,0.176002 0.116997,0.174996 0.116996,0.145004 0.145005,0.174995 0.116996,0.146004 0.117008,0.174995 0.14599,0.146004 0.11701,0.175003 0.14499,0.144997 0.117,0.176002 0.11701,0.144997 0.14599,0.175003 0.11601,0.146996 0.14599,0.174003 0.11701,0.145996 0.11599,0.175003 0.14601,0.145996 0.11699,0.146004 0.14601,0.175003 0.11699,0.144997 0.11599,0.146004 0.14602,0.174987 0.11699,0.147011 0.14501,0.144997 0.11699,0.175003 0.11701,0.145996 0.14599,0.146004 0.116,0.145996 0.11701,0.144996 0.14599,0.175004 0.11601,0.146003 0.14599,0.145996 0.11701,0.146004 0.11699,0.145996 0.14501,0.146004 0.117,0.174995 0.14599,0.145005 0.11701,0.147003 0.11599,0.144996 0.146,0.145996 0.117,0.146004 0.14601,0.145996 0.11599,0.145005 0.117,0.147003 0.14601,0.144996 0.11599,0.145996 0.11701,0.146004 0.14599,0.145996 0.11701,0.145005 0.14499,0.116996 0.117,0.146004 0.11701,0.145996 0.146,0.145996 0.116,0.145005 0.14599,0.146003 0.11701,0.145996 0.11599,0.117005 0.14601,0.145996 0.11699,0.145004 0.14601,0.146996" /><path
               id="path54"
               style="fill:none;stroke:#231f20;stroke-width:1;stroke-linecap:butt;stroke-linejoin:round;stroke-miterlimit:10;stroke-dasharray:3, 3, 3, 3, 3, 3;stroke-dashoffset:0;stroke-opacity:1"
               d="m 81.651001,50.746002 0.146004,0.233002 0.116996,0.233997 0.115998,0.204003 0.146004,0.232994 0.117004,0.204006 0.145996,0.233997 0.115997,0.233002 0.117005,0.203999 0.145996,0.234001 0.117004,0.203998 0.145996,0.233002 0.116005,0.203999 0.116997,0.234001 0.145996,0.203998 0.116005,0.234001 0.146004,0.203 0.116997,0.234001 0.116996,0.203998 0.145005,0.204003 0.116996,0.232994 0.146004,0.204006 0.11599,0.204998 0.117012,0.233002 0.145996,0.203998 0.116997,0.203999 0.116005,0.234001 0.145996,0.204002 0.117004,0.203999 0.145996,0.233002 0.116005,0.204994 0.116997,0.204002 0.146004,0.204003 0.115989,0.203998 0.146004,0.233002 0.233994,0.409 0.145011,0.203999 0.116997,0.203998 0.146004,0.204003 0.116997,0.203994 0.115997,0.205006 0.146004,0.203999 0.116996,0.203998 0.115998,0.233002 0.146004,0.203999 0.117004,0.204002 0.145996,0.204998 0.116005,0.204002 0.116997,0.175 0.145996,0.203998 0.117004,0.204002 0.145996,0.203995 0.116005,0.205002 0.116997,0.203003 0.145996,0.204998 0.116005,0.204002 0.146004,0.203999 0.116997,0.174999 0.116996,0.203999 0.145005,0.205002 0.116996,0.203998 0.117005,0.204003 0.144989,0.174999 0.117012,0.203998 0.145996,0.204003 0.116997,0.175003 0.117004,0.203995 0.144997,0.204002 0.117004,0.176002 0.145996,0.203995 0.116005,0.204003 0.116997,0.175003 0.146004,0.203994 0.115989,0.204003 0.147011,0.175003 0.115997,0.203995 0.11699,0.175003 0.145011,0.205001 0.116997,0.174996 0.146004,0.204002 0.116997,0.173996 0.117004,0.205002 0.144997,0.175003 0.116996,0.203995 0.115998,0.175003 0.147003,0.175003 0.116005,0.203995 0.145996,0.175003 0.116005,0.204002 0.116997,0.174996 0.145996,0.175003 0.117004,0.204994 0.145996,0.175003 0.116005,0.174995 0.116997,0.175003 0.145996,0.204003 0.117004,0.175003 0.145005,0.174995 0.116997,0.175003 m -25.346001,-44.305002 0.116997,0.262999 0.116005,0.262001 0.145996,0.263 0.117004,0.261999 0.145996,0.263001 0.116005,0.291 0.116997,0.262999 0.145996,0.263 0.115997,0.262001 0.146004,0.262999 0.117004,0.262001 0.116997,0.263 0.145004,0.261999 0.116997,0.233 0.146004,0.263001 0.116997,0.261999 0.115997,0.263 0.146004,0.262001 0.116996,0.262999 0.115998,0.262001 0.146004,0.262999 0.117004,0.234001 0.145996,0.262001 L 72.055,32.75 l 0.117005,0.263 0.145996,0.262002 0.117004,0.234001 0.145996,0.261997 0.116005,0.263 0.116997,0.233002 0.145996,0.262001 0.116005,0.262997 0.145996,0.233002 0.234001,0.526001 0.145005,0.232997 0.116996,0.262001 0.146004,0.263001 0.11599,0.233002 0.117004,0.261997 0.146004,0.234001 0.116997,0.263001 0.116005,0.232997 0.145996,0.262001 0.117004,0.233002 0.145996,0.263001 0.116005,0.232998 0.116997,0.263 0.145996,0.233002 0.115997,0.232998 0.146004,0.263 0.117004,0.232998 0.11699,0.263 0.145011,0.233002 0.116997,0.232998 0.146004,0.263001 0.116997,0.234001 0.116996,0.231998 0.145005,0.234001 0.116996,0.262001 0.115998,0.234002 0.147003,0.232997 0.116005,0.233002 0.145996,0.263001 0.115997,0.232998 0.117005,0.234001 0.145996,0.232998 0.117004,0.234001 0.145996,0.231998 0.116005,0.234001 0.116997,0.262001 0.145996,0.234002 0.117004,0.232997 0.144997,0.233002 0.117005,0.233997 0.116996,0.233002 0.146004,0.233002 0.115997,0.233997 0.146004,0.233002 0.232994,0.466999 0.146004,0.233002 0.116997,0.232998 0.117004,0.204002 0.144997,0.233997 0.117004,0.234002 0.145996,0.232997 0.116005,0.233002 0.116997,0.232998 0.146004,0.234001 0.115989,0.204003 0.147003,0.232997 0.232995,0.466999 0.145011,0.204003 0.116997,0.234001 0.146004,0.232998 0.116997,0.233002 0.116996,0.203998" /><path
               id="path56"
               style="fill:none;stroke:#231f20;stroke-width:1;stroke-linecap:butt;stroke-linejoin:round;stroke-miterlimit:10;stroke-dasharray:3, 3, 3, 3, 3, 3;stroke-dashoffset:0;stroke-opacity:1"
               d="m 67.447006,23.242001 0.116997,0.291999 0.145996,0.262001 0.116005,0.263001 0.145996,0.261999 0.117005,0.292 0.116996,0.262001 0.145005,0.262998 0.116996,0.262 0.146004,0.263002 0.11599,0.290998 0.117004,0.263001 0.146004,0.262001" /><text
               id="text60"
               style="font-variant:normal;font-weight:normal;font-size:11.95500088px;font-family:CMR12;-inkscape-font-specification:CMR12;writing-mode:lr-tb;fill:#231f20;fill-opacity:1;fill-rule:nonzero;stroke:none"
               transform="matrix(1,0,0,-1,0,60.503002)"><tspan
                 id="tspan58"
                 y="0"
                 x="0 8.774971 13.975396 17.215202 23.061197">Heigh</tspan></text>
<text
               id="text64"
               style="font-variant:normal;font-weight:normal;font-size:11.95500088px;font-family:CMR12;-inkscape-font-specification:CMR12;writing-mode:lr-tb;fill:#231f20;fill-opacity:1;fill-rule:nonzero;stroke:none"
               transform="matrix(1,0,0,-1,29.261063,60.503002)"><tspan
                 id="tspan62"
                 y="0"
                 x="0">t</tspan></text>
<text
               id="text68"
               style="font-variant:normal;font-weight:normal;font-size:11.95500088px;font-family:CMR12;-inkscape-font-specification:CMR12;writing-mode:lr-tb;fill:#231f20;fill-opacity:1;fill-rule:nonzero;stroke:none"
               transform="matrix(1,0,0,-1,37.715641,60.503002)"><tspan
                 id="tspan66"
                 y="0"
                 x="0">m</tspan></text>
<text
               id="text72"
               style="font-variant:normal;font-weight:normal;font-size:11.95500088px;font-family:CMR12;-inkscape-font-specification:CMR12;writing-mode:lr-tb;fill:#231f20;fill-opacity:1;fill-rule:nonzero;stroke:none"
               transform="matrix(1,0,0,-1,250.37239,8.8358822)"><tspan
                 id="tspan70"
                 y="0"
                 x="0 8.9303856 12.170191 16.784821 21.327723 27.173717 33.665283 38.865707">Distance</tspan></text>
<text
               id="text76"
               style="font-variant:normal;font-weight:normal;font-size:11.95500088px;font-family:CMR12;-inkscape-font-specification:CMR12;writing-mode:lr-tb;fill:#231f20;fill-opacity:1;fill-rule:nonzero;stroke:none"
               transform="matrix(1,0,0,-1,298.39688,8.8358822)"><tspan
                 id="tspan74"
                 y="0"
                 x="0">m</tspan></text>
<text
               id="text80"
               style="font-variant:normal;font-weight:normal;font-size:8.36849976px;font-family:CMR12;-inkscape-font-specification:CMR12;writing-mode:lr-tb;fill:#231f20;fill-opacity:1;fill-rule:nonzero;stroke:none"
               transform="matrix(1,0,0,-1,68.946297,2.335)"><tspan
                 id="tspan78"
                 y="0"
                 x="0">0</tspan></text>
<text
               id="text84"
               style="font-variant:normal;font-weight:normal;font-size:8.36849976px;font-family:CMR12;-inkscape-font-specification:CMR12;writing-mode:lr-tb;fill:#231f20;fill-opacity:1;fill-rule:nonzero;stroke:none"
               transform="matrix(1,0,0,-1,94.441765,2.100682)"><tspan
                 id="tspan82"
                 y="0"
                 x="0">2</tspan></text>
<text
               id="text88"
               style="font-variant:normal;font-weight:normal;font-size:8.36849976px;font-family:CMR12;-inkscape-font-specification:CMR12;writing-mode:lr-tb;fill:#231f20;fill-opacity:1;fill-rule:nonzero;stroke:none"
               transform="matrix(1,0,0,-1,119.70375,2.335)"><tspan
                 id="tspan86"
                 y="0"
                 x="0">4</tspan></text>
<text
               id="text92"
               style="font-variant:normal;font-weight:normal;font-size:8.36849976px;font-family:CMR12;-inkscape-font-specification:CMR12;writing-mode:lr-tb;fill:#231f20;fill-opacity:1;fill-rule:nonzero;stroke:none"
               transform="matrix(1,0,0,-1,146.13147,2.335)"><tspan
                 id="tspan90"
                 y="0"
                 x="0">6</tspan></text>
<text
               id="text96"
               style="font-variant:normal;font-weight:normal;font-size:8.36849976px;font-family:CMR12;-inkscape-font-specification:CMR12;writing-mode:lr-tb;fill:#231f20;fill-opacity:1;fill-rule:nonzero;stroke:none"
               transform="matrix(1,0,0,-1,171.16165,2.100682)"><tspan
                 id="tspan94"
                 y="0"
                 x="0">8</tspan></text>
<text
               id="text100"
               style="font-variant:normal;font-weight:normal;font-size:8.36849976px;font-family:CMR12;-inkscape-font-specification:CMR12;writing-mode:lr-tb;fill:#231f20;fill-opacity:1;fill-rule:nonzero;stroke:none"
               transform="matrix(1,0,0,-1,197.3559,2.335)"><tspan
                 id="tspan98"
                 y="0"
                 x="0 4.0921965">10</tspan></text>
<text
               id="text104"
               style="font-variant:normal;font-weight:normal;font-size:8.36849976px;font-family:CMR12;-inkscape-font-specification:CMR12;writing-mode:lr-tb;fill:#231f20;fill-opacity:1;fill-rule:nonzero;stroke:none"
               transform="matrix(1,0,0,-1,222.98192,2.335)"><tspan
                 id="tspan102"
                 y="0"
                 x="0 4.0921965">12</tspan></text>
<text
               id="text108"
               style="font-variant:normal;font-weight:normal;font-size:8.36849976px;font-family:CMR12;-inkscape-font-specification:CMR12;writing-mode:lr-tb;fill:#231f20;fill-opacity:1;fill-rule:nonzero;stroke:none"
               transform="matrix(1,0,0,-1,58.773544,21.334843)"><tspan
                 id="tspan106"
                 y="0"
                 x="0">2</tspan></text>
<text
               id="text112"
               style="font-variant:normal;font-weight:normal;font-size:8.36849976px;font-family:CMR12;-inkscape-font-specification:CMR12;writing-mode:lr-tb;fill:#231f20;fill-opacity:1;fill-rule:nonzero;stroke:none"
               transform="matrix(1,0,0,-1,59.068951,51.668144)"><tspan
                 id="tspan110"
                 y="0"
                 x="0">4</tspan></text>
<text
               id="text116"
               style="font-variant:normal;font-weight:normal;font-size:8.36849976px;font-family:CMR12;-inkscape-font-specification:CMR12;writing-mode:lr-tb;fill:#231f20;fill-opacity:1;fill-rule:nonzero;stroke:none"
               transform="matrix(1,0,0,-1,59.130878,81.534485)"><tspan
                 id="tspan114"
                 y="0"
                 x="0">6</tspan></text>
<text
               id="text120"
               style="font-variant:normal;font-weight:normal;font-size:8.36849976px;font-family:CMR12;-inkscape-font-specification:CMR12;writing-mode:lr-tb;fill:#231f20;fill-opacity:1;fill-rule:nonzero;stroke:none"
               transform="matrix(1,0,0,-1,58.959324,113.267)"><tspan
                 id="tspan118"
                 y="0"
                 x="0">8</tspan></text>
</g></g></g></g></g></svg>