<?xml version="1.0" encoding="UTF-8" standalone="no"?>
<svg
   xmlns:dc="http://purl.org/dc/elements/1.1/"
   xmlns:cc="http://creativecommons.org/ns#"
   xmlns:rdf="http://www.w3.org/1999/02/22-rdf-syntax-ns#"
   xmlns:svg="http://www.w3.org/2000/svg"
   xmlns="http://www.w3.org/2000/svg"
   viewBox="0 0 245.33333 90.666664"
   height="90.666664"
   width="245.33333"
   xml:space="preserve"
   id="svg2"
   version="1.1"><metadata
     id="metadata8"><rdf:RDF><cc:Work
         rdf:about=""><dc:format>image/svg+xml</dc:format><dc:type
           rdf:resource="http://purl.org/dc/dcmitype/StillImage" /></cc:Work></rdf:RDF></metadata><defs
     id="defs6"><clipPath
       id="clipPath24"
       clipPathUnits="userSpaceOnUse"><path
         id="path22"
         d="M 0,0 H 184 V 68 H 0 Z" /></clipPath><clipPath
       id="clipPath34"
       clipPathUnits="userSpaceOnUse"><path
         id="path32"
         d="M 0.06,0 H 183.99401 V 67.739998 H 0.06 Z" /></clipPath><clipPath
       id="clipPath48"
       clipPathUnits="userSpaceOnUse"><path
         id="path46"
         d="M 0.06,0 H 183.99401 V 67.739998 H 0.06 Z" /></clipPath><clipPath
       id="clipPath62"
       clipPathUnits="userSpaceOnUse"><path
         id="path60"
         d="M 0.06,0 H 183.99401 V 67.739998 H 0.06 Z" /></clipPath><clipPath
       id="clipPath76"
       clipPathUnits="userSpaceOnUse"><path
         id="path74"
         d="M 0.06,0 H 183.99401 V 67.739998 H 0.06 Z" /></clipPath></defs><g
     transform="matrix(1.3333333,0,0,-1.3333333,0,90.666667)"
     id="g10"><g
       id="g12" /><g
       id="g14" /><g
       id="g16"><g
         id="g18"><g
           clip-path="url(#clipPath24)"
           id="g20"><g
             id="g26" /><g
             id="g28"><g
               clip-path="url(#clipPath34)"
               id="g30"><path
                 id="path36"
                 style="fill:none;stroke:#231f20;stroke-width:1;stroke-linecap:butt;stroke-linejoin:round;stroke-miterlimit:10;stroke-dasharray:none;stroke-opacity:1"
                 d="M 0,15.076001 H 172.5" /></g></g><g
             id="g38"><path
               id="path40"
               style="fill:#231f20;fill-opacity:1;fill-rule:nonzero;stroke:none"
               d="m 176.04301,16.613001 c -2.48001,0.749 -4.091,1.438999 -6.082,2.238001 V 11.284 c 0.713,0.339 3.60199,1.489001 6.082,2.238 2.655,0.802 5.06099,1.350001 6.622,1.546001 -1.56101,0.194999 -3.967,0.743999 -6.622,1.545" /></g><g
             id="g42"><g
               clip-path="url(#clipPath48)"
               id="g44"><path
                 id="path50"
                 style="fill:none;stroke:#231f20;stroke-width:1;stroke-linecap:butt;stroke-linejoin:round;stroke-miterlimit:10;stroke-dasharray:none;stroke-opacity:1"
                 d="M 37.512001,4.0570002 123.5,51.576004" /></g></g><g
             id="g52"><path
               id="path54"
               style="fill:#231f20;fill-opacity:1;fill-rule:nonzero;stroke:none"
               d="M 125.85801,54.635002 C 123.325,54.091003 121.57999,53.915001 119.453,53.652004 l 3.66001,-6.623001 c 0.459,0.640995 2.431,3.044998 4.23999,4.899998 1.936,1.986 3.77601,3.630001 5.048,4.556003 -1.461,-0.584003 -3.832,-1.268001 -6.54299,-1.850002" /></g><g
             id="g56"><g
               clip-path="url(#clipPath62)"
               id="g58"><path
                 id="path64"
                 style="fill:none;stroke:#231f20;stroke-width:1;stroke-linecap:butt;stroke-linejoin:round;stroke-miterlimit:10;stroke-dasharray:none;stroke-opacity:1"
                 d="M 56.5,4.0760002 V 57.576004" /></g></g><g
             id="g66"><path
               id="path68"
               style="fill:#231f20;fill-opacity:1;fill-rule:nonzero;stroke:none"
               d="m 54.963001,61.119003 c -0.75,-2.480999 -1.439998,-4.093002 -2.237999,-6.082 h 7.567002 c -0.339001,0.712001 -1.489003,3.601001 -2.238003,6.082 -0.801998,2.654 -1.349999,5.059998 -1.545998,6.620995 -0.194999,-1.560997 -0.743999,-3.966995 -1.545002,-6.620995" /></g><g
             id="g70"><g
               clip-path="url(#clipPath76)"
               id="g72"><path
                 id="path78"
                 style="fill:none;stroke:#231f20;stroke-width:1;stroke-linecap:butt;stroke-linejoin:round;stroke-miterlimit:10;stroke-dasharray:none;stroke-opacity:1"
                 d="m 109,36.076 c 0,-5.522999 -23.504997,-9.999998 -52.5,-9.999998 -28.994999,0 -52.5,4.476999 -52.5,9.999998 0,5.523003 23.505001,10.000004 52.5,10.000004 28.995003,0 52.5,-4.477001 52.5,-10.000004 z" /></g></g><g
             id="g80"><path
               id="path82"
               style="fill:none;stroke:#231f20;stroke-width:0.80000001;stroke-linecap:butt;stroke-linejoin:round;stroke-miterlimit:10;stroke-dasharray:3, 3, 3, 3, 3, 3;stroke-dashoffset:0;stroke-opacity:1"
               d="M 56.5,36.076 H 109 V 15.076001" /><text
               id="text86"
               style="font-variant:normal;font-weight:normal;font-size:11.95500088px;font-family:CMMI12;-inkscape-font-specification:CMMI12;writing-mode:lr-tb;fill:#231f20;fill-opacity:1;fill-rule:nonzero;stroke:none"
               transform="matrix(1,0,0,-1,180,2.9887998)"><tspan
                 id="tspan84"
                 y="0"
                 x="0">i</tspan></text>
<path
               id="path88"
               style="fill:#231f20;fill-opacity:1;fill-rule:nonzero;stroke:none"
               d="m 180,1.554 h 3.994 V 1.076 H 180 Z" /><text
               id="text92"
               style="font-variant:normal;font-weight:normal;font-size:11.95500088px;font-family:CMMI12;-inkscape-font-specification:CMMI12;writing-mode:lr-tb;fill:#231f20;fill-opacity:1;fill-rule:nonzero;stroke:none"
               transform="matrix(1,0,0,-1,133.35501,49.747601)"><tspan
                 id="tspan90"
                 y="0"
                 x="0">j</tspan></text>
<path
               id="path94"
               style="fill:#231f20;fill-opacity:1;fill-rule:nonzero;stroke:none"
               d="m 133.356,45.989002 h 5.51601 V 45.511001 H 133.356 Z" /><text
               id="text98"
               style="font-variant:normal;font-weight:normal;font-size:11.95500088px;font-family:CMMI12;-inkscape-font-specification:CMMI12;writing-mode:lr-tb;fill:#231f20;fill-opacity:1;fill-rule:nonzero;stroke:none"
               transform="matrix(1,0,0,-1,64.772896,58.747597)"><tspan
                 id="tspan96"
                 y="0"
                 x="0">k</tspan></text>
<path
               id="path100"
               style="fill:#231f20;fill-opacity:1;fill-rule:nonzero;stroke:none"
               d="m 64.773003,57.313004 h 6.488998 v -0.478001 h -6.488998 z" /><text
               id="text104"
               style="font-variant:normal;font-weight:normal;font-size:11.95500088px;font-family:CMR12;-inkscape-font-specification:CMR12;writing-mode:lr-tb;fill:#231f20;fill-opacity:1;fill-rule:nonzero;stroke:none"
               transform="matrix(1,0,0,-1,47.664101,31.747599)"><tspan
                 id="tspan102"
                 y="0"
                 x="0">1</tspan></text>
<text
               id="text108"
               style="font-variant:normal;font-weight:normal;font-size:11.95500088px;font-family:CMR12;-inkscape-font-specification:CMR12;writing-mode:lr-tb;fill:#231f20;fill-opacity:1;fill-rule:nonzero;stroke:none"
               transform="matrix(1,0,0,-1,107.41879,4.2475114)"><tspan
                 id="tspan106"
                 y="0"
                 x="0">2</tspan></text>
</g></g></g></g></g></svg>