<?xml version="1.0" encoding="UTF-8" standalone="no"?>
<svg
   xmlns:dc="http://purl.org/dc/elements/1.1/"
   xmlns:cc="http://creativecommons.org/ns#"
   xmlns:rdf="http://www.w3.org/1999/02/22-rdf-syntax-ns#"
   xmlns:svg="http://www.w3.org/2000/svg"
   xmlns="http://www.w3.org/2000/svg"
   viewBox="0 0 292 137.33333"
   height="137.33333"
   width="292"
   xml:space="preserve"
   id="svg2"
   version="1.1"><metadata
     id="metadata8"><rdf:RDF><cc:Work
         rdf:about=""><dc:format>image/svg+xml</dc:format><dc:type
           rdf:resource="http://purl.org/dc/dcmitype/StillImage" /></cc:Work></rdf:RDF></metadata><defs
     id="defs6"><clipPath
       id="clipPath24"
       clipPathUnits="userSpaceOnUse"><path
         id="path22"
         d="M 0,0 H 219 V 103 H 0 Z" /></clipPath><clipPath
       id="clipPath34"
       clipPathUnits="userSpaceOnUse"><path
         id="path32"
         d="M 0.06,0.06000519 H 218.66701 V 102.52901 H 0.06 Z" /></clipPath></defs><g
     transform="matrix(1.3333333,0,0,-1.3333333,0,137.33333)"
     id="g10"><g
       id="g12" /><g
       id="g14" /><g
       id="g16"><g
         id="g18"><g
           clip-path="url(#clipPath24)"
           id="g20"><g
             id="g26" /><g
             id="g28"><g
               clip-path="url(#clipPath34)"
               id="g30"><path
                 id="path36"
                 style="fill:none;stroke:#231f20;stroke-width:0.5;stroke-linecap:butt;stroke-linejoin:round;stroke-miterlimit:10;stroke-dasharray:none;stroke-opacity:1"
                 d="m 41.267002,31.858002 h 3.601002 m -1.801003,0.721 v -1.44 m 132.100009,0.719 h 3.6 m -1.79901,0.721 v -1.44 m -135.700998,0.719 h 3.601002 m -1.801003,0.721 v -1.44 m 0,0.719 6.700001,13.381 6.700001,11.959999 6.700001,10.580006 6.701,9.139999 6.698997,7.759995 6.650002,6.340004 6.700004,4.919998 6.700997,3.520004 6.698996,2.119993 6.70101,0.70001 6.69999,-0.70001 6.69901,-2.119993 6.701,-3.520004 6.69899,-4.919998 6.70001,-6.340004 6.65,-7.759995 6.701,-9.139999 6.69899,-10.580006 6.70001,-11.959999 6.70099,-13.381" /><path
                 id="path38"
                 style="fill:none;stroke:#231f20;stroke-width:2;stroke-linecap:butt;stroke-linejoin:round;stroke-miterlimit:10;stroke-dasharray:none;stroke-opacity:1"
                 d="M 27.667002,79.001007 H 179.66701" /><path
                 id="path40"
                 style="fill:none;stroke:#231f20;stroke-width:1;stroke-linecap:butt;stroke-linejoin:round;stroke-miterlimit:10;stroke-dasharray:none;stroke-opacity:1"
                 d="M 0,31.667002 H 218.66701 M 72,77.667007 V 32.667 m 76.00101,45.000007 V 32.667 M 42.667004,47.667004 V 0 m 0,22.334002 H 67.333" /></g></g><g
             id="g42"><path
               id="path44"
               style="fill:#231f20;fill-opacity:1;fill-rule:nonzero;stroke:none"
               d="m 69.695,23.359001 c -1.653,0.5 -2.727997,0.959999 -4.053994,1.492001 v -5.045 c 0.473999,0.225999 2.400994,0.993 4.053994,1.491998 1.769005,0.535 3.374,0.900002 4.414001,1.031 C 73.069,22.459002 71.464005,22.825001 69.695,23.359001" /><text
               id="text48"
               style="font-variant:normal;font-weight:normal;font-size:11.95500088px;font-family:CMMI12;-inkscape-font-specification:CMMI12;writing-mode:lr-tb;fill:#231f20;fill-opacity:1;fill-rule:nonzero;stroke:none"
               transform="matrix(1,0,0,-1,107.88,52.626698)"><tspan
                 id="tspan46"
                 y="0"
                 x="0">H</tspan></text>
<text
               id="text52"
               style="font-variant:normal;font-weight:normal;font-size:11.95500088px;font-family:CMMI12;-inkscape-font-specification:CMMI12;writing-mode:lr-tb;fill:#231f20;fill-opacity:1;fill-rule:nonzero;stroke:none"
               transform="matrix(1,0,0,-1,74.298401,19.480263)"><tspan
                 id="tspan50"
                 y="0"
                 x="0">x</tspan></text>
<text
               id="text56"
               style="font-variant:normal;font-weight:normal;font-size:7.96999979px;font-family:CMR8;-inkscape-font-specification:CMR8;writing-mode:lr-tb;fill:#231f20;fill-opacity:1;fill-rule:nonzero;stroke:none"
               transform="matrix(1,0,0,-1,80.950699,17.686199)"><tspan
                 id="tspan54"
                 y="0"
                 x="0">1</tspan></text>
<text
               id="text60"
               style="font-variant:normal;font-weight:normal;font-size:11.95500088px;font-family:CMMI12;-inkscape-font-specification:CMMI12;writing-mode:lr-tb;fill:#231f20;fill-opacity:1;fill-rule:nonzero;stroke:none"
               transform="matrix(1,0,0,-1,147.25101,4.8136997)"><tspan
                 id="tspan58"
                 y="0"
                 x="0">x</tspan></text>
<text
               id="text64"
               style="font-variant:normal;font-weight:normal;font-size:7.96999979px;font-family:CMR8;-inkscape-font-specification:CMR8;writing-mode:lr-tb;fill:#231f20;fill-opacity:1;fill-rule:nonzero;stroke:none"
               transform="matrix(1,0,0,-1,153.90401,3.0196998)"><tspan
                 id="tspan62"
                 y="0"
                 x="0">2</tspan></text>
<path
               id="path66"
               style="fill:#231f20;fill-opacity:1;fill-rule:nonzero;stroke:none"
               d="m 43,7.6670003 h 97.334" /><path
               id="path68"
               style="fill:none;stroke:#231f20;stroke-width:1;stroke-linecap:butt;stroke-linejoin:miter;stroke-miterlimit:4;stroke-dasharray:none;stroke-opacity:1"
               d="m 43,7.6670003 h 97.334" /><path
               id="path70"
               style="fill:#231f20;fill-opacity:1;fill-rule:nonzero;stroke:none"
               d="m 142.69601,8.6920004 c -1.654,0.5 -2.72801,0.9589996 -4.054,1.4919996 V 5.1390004 c 0.474,0.2259998 2.4,0.993 4.054,1.4920001 1.76999,0.5349999 3.37299,0.8999996 4.41399,1.0309997 -1.041,0.1300001 -2.644,0.4959998 -4.41399,1.0300002" /><path
               id="path72"
               style="fill:#231f20;fill-opacity:1;fill-rule:nonzero;stroke:none"
               d="M 105.33401,71.667 V 39.001003" /><path
               id="path74"
               style="fill:none;stroke:#231f20;stroke-width:1;stroke-linecap:butt;stroke-linejoin:miter;stroke-miterlimit:4;stroke-dasharray:none;stroke-opacity:1"
               d="M 105.33401,71.667 V 39.001003" /><path
               id="path76"
               style="fill:#231f20;fill-opacity:1;fill-rule:nonzero;stroke:none"
               d="m 106.358,36.639 c 0.5,1.653004 0.96001,2.728001 1.492,4.054001 h -5.04399 c 0.225,-0.474999 0.99199,-2.400997 1.49099,-4.054001 0.53501,-1.769997 0.90101,-3.373997 1.031,-4.414997 0.13101,1.041 0.49601,2.645 1.03,4.414997" /><path
               id="path78"
               style="fill:#231f20;fill-opacity:1;fill-rule:nonzero;stroke:none"
               d="m 104.30901,74.029007 c -0.5,-1.653 -0.96,-2.728004 -1.49201,-4.054001 h 5.04401 c -0.22501,0.473999 -0.99201,2.401001 -1.49101,4.054001 -0.53499,1.769997 -0.901,3.373993 -1.031,4.414993 -0.12999,-1.041 -0.496,-2.644996 -1.02999,-4.414993" /></g></g></g></g></g></svg>