<?xml version="1.0" encoding="UTF-8" standalone="no"?>
<svg
   xmlns:dc="http://purl.org/dc/elements/1.1/"
   xmlns:cc="http://creativecommons.org/ns#"
   xmlns:rdf="http://www.w3.org/1999/02/22-rdf-syntax-ns#"
   xmlns:svg="http://www.w3.org/2000/svg"
   xmlns="http://www.w3.org/2000/svg"
   viewBox="0 0 142.66667 122.66667"
   height="122.66667"
   width="142.66667"
   xml:space="preserve"
   id="svg2"
   version="1.1"><metadata
     id="metadata8"><rdf:RDF><cc:Work
         rdf:about=""><dc:format>image/svg+xml</dc:format><dc:type
           rdf:resource="http://purl.org/dc/dcmitype/StillImage" /></cc:Work></rdf:RDF></metadata><defs
     id="defs6"><clipPath
       id="clipPath24"
       clipPathUnits="userSpaceOnUse"><path
         id="path22"
         d="M 0,0 H 107 V 92 H 0 Z" /></clipPath><clipPath
       id="clipPath38"
       clipPathUnits="userSpaceOnUse"><path
         id="path36"
         d="M 0,0 H 106.965 V 91.648003 H 0 Z" /></clipPath><clipPath
       id="clipPath52"
       clipPathUnits="userSpaceOnUse"><path
         id="path50"
         d="M 0,0 H 106.965 V 91.648003 H 0 Z" /></clipPath></defs><g
     transform="matrix(1.3333333,0,0,-1.3333333,0,122.66667)"
     id="g10"><g
       id="g12" /><g
       id="g14" /><g
       id="g16"><g
         id="g18"><g
           clip-path="url(#clipPath24)"
           id="g20"><g
             id="g26" /><g
             id="g28"><path
               id="path30"
               style="fill:#ffffff;fill-opacity:1;fill-rule:nonzero;stroke:none"
               d="M 72.799004,34.100002 C 72.799004,15.543001 57.756004,0.5 39.200001,0.5 20.643002,0.5 5.5999999,15.543001 5.5999999,34.100002 c 0,18.556999 15.0430021,33.600003 33.6000011,33.600003 18.556003,0 33.599003,-15.043004 33.599003,-33.600003" /></g><g
             id="g32"><g
               clip-path="url(#clipPath38)"
               id="g34"><path
                 id="path40"
                 style="fill:none;stroke:#231f20;stroke-width:1;stroke-linecap:butt;stroke-linejoin:miter;stroke-miterlimit:4;stroke-dasharray:none;stroke-opacity:1"
                 d="M 72.799004,34.100002 C 72.799004,15.543001 57.756004,0.5 39.200001,0.5 20.643002,0.5 5.5999999,15.543001 5.5999999,34.100002 c 0,18.556999 15.0430021,33.600003 33.6000011,33.600003 18.556003,0 33.599003,-15.043004 33.599003,-33.600003 z" /></g></g><g
             id="g42"><path
               id="path44"
               style="fill:#231f20;fill-opacity:1;fill-rule:nonzero;stroke:none"
               d="m 41.450001,34.604 c 0,-0.884003 -0.716999,-1.599998 -1.600003,-1.599998 -0.883995,0 -1.599998,0.715995 -1.599998,1.599998 0,0.883003 0.716003,1.600002 1.599998,1.600002 0.883004,0 1.600003,-0.716999 1.600003,-1.600002" /></g><g
             id="g46"><g
               clip-path="url(#clipPath52)"
               id="g48"><path
                 id="path54"
                 style="fill:none;stroke:#231f20;stroke-width:1;stroke-linecap:butt;stroke-linejoin:miter;stroke-miterlimit:4;stroke-dasharray:none;stroke-opacity:1"
                 d="m 41.450001,34.604 c 0,-0.884003 -0.716999,-1.599998 -1.600003,-1.599998 -0.883995,0 -1.599998,0.715995 -1.599998,1.599998 0,0.883003 0.716003,1.600002 1.599998,1.600002 0.883004,0 1.600003,-0.716999 1.600003,-1.600002 z M 0,34.100002 h 93.334007" /><path
                 id="path56"
                 style="fill:#231f20;fill-opacity:1;fill-rule:nonzero;stroke:none"
                 d="M 94.987007,34.817001 C 93.829994,35.167 93.077003,35.489002 92.149002,35.861 v -3.529999 c 0.332001,0.157002 1.680992,0.694001 2.838005,1.043999 1.237999,0.374001 2.361,0.630001 3.089996,0.721001 -0.728996,0.092 -1.851997,0.347 -3.089996,0.721" /><path
                 id="path58"
                 style="fill:none;stroke:#231f20;stroke-width:1;stroke-linecap:butt;stroke-linejoin:miter;stroke-miterlimit:4;stroke-dasharray:none;stroke-opacity:1"
                 d="M 39.947002,0.5 V 83.939995" /></g></g><g
             id="g60"><path
               id="path62"
               style="fill:#231f20;fill-opacity:1;fill-rule:nonzero;stroke:none"
               d="m 39.229,85.593002 c -0.349003,-1.157997 -0.670998,-1.909996 -1.043999,-2.837997 h 3.531002 c -0.157001,0.332001 -0.694999,1.68 -1.044002,2.837997 -0.374001,1.237999 -0.629997,2.362 -0.721001,3.090004 -0.092,-0.728004 -0.347,-1.852005 -0.722,-3.090004" /><path
               id="path64"
               style="fill:#ffffff;fill-opacity:1;fill-rule:nonzero;stroke:none"
               d="m 63.329998,62.213001 c -1.460995,-0.919998 -2.513996,-1.429996 -3.785995,-2.081997 l 3.807998,-3.309002 c 0.141003,0.507 0.825001,2.464001 1.533001,4.039002 0.758003,1.686001 1.534996,3.137001 2.119003,4.007999 -0.782005,-0.699997 -2.11,-1.671001 -3.674007,-2.656002" /><path
               id="path66"
               style="fill:none;stroke:#231f20;stroke-width:1;stroke-linecap:butt;stroke-linejoin:miter;stroke-miterlimit:4;stroke-dasharray:none;stroke-opacity:1"
               d="M 40.131001,34.072002 58.5,55.208004" /><path
               id="path68"
               style="fill:#231f20;fill-opacity:1;fill-rule:nonzero;stroke:none"
               d="m 59.042004,56.926003 c -1.022004,-0.644002 -1.759003,-1 -2.649002,-1.457001 l 2.665,-2.315998 c 0.099,0.354 0.577,1.723999 1.073002,2.826996 0.530999,1.181003 1.074997,2.196003 1.482998,2.806003 -0.547001,-0.490002 -1.477001,-1.170002 -2.571998,-1.86" /><path
               id="path70"
               style="fill:none;stroke:#231f20;stroke-width:1;stroke-linecap:butt;stroke-linejoin:miter;stroke-miterlimit:4;stroke-dasharray:3, 3, 3, 3, 3, 3;stroke-dashoffset:0;stroke-opacity:1"
               d="m 61.133003,34.380001 v 24.267002 h -21" /><text
               id="text74"
               style="font-variant:normal;font-weight:normal;font-size:11.95500088px;font-family:CMMI12;-inkscape-font-specification:CMMI12;writing-mode:lr-tb;fill:#231f20;fill-opacity:1;fill-rule:nonzero;stroke:none"
               transform="matrix(1,0,0,-1,29.095699,55.015198)"><tspan
                 id="tspan72"
                 y="0"
                 x="0">R</tspan></text>
<text
               id="text78"
               style="font-variant:normal;font-weight:normal;font-size:11.95500088px;font-family:CMMI12;-inkscape-font-specification:CMMI12;writing-mode:lr-tb;fill:#231f20;fill-opacity:1;fill-rule:nonzero;stroke:none"
               transform="matrix(1,0,0,-1,56.339951,24.681776)"><tspan
                 id="tspan76"
                 y="0"
                 x="0">Q</tspan></text>
<text
               id="text82"
               style="font-variant:normal;font-weight:normal;font-size:11.95500088px;font-family:CMMI12;-inkscape-font-specification:CMMI12;writing-mode:lr-tb;fill:#231f20;fill-opacity:1;fill-rule:nonzero;stroke:none"
               transform="matrix(1,0,0,-1,100.31761,31.00358)"><tspan
                 id="tspan80"
                 y="0"
                 x="0">x</tspan></text>
<text
               id="text86"
               style="font-variant:normal;font-weight:normal;font-size:11.95500088px;font-family:CMMI12;-inkscape-font-specification:CMMI12;writing-mode:lr-tb;fill:#231f20;fill-opacity:1;fill-rule:nonzero;stroke:none"
               transform="matrix(1,0,0,-1,43.074677,82.681465)"><tspan
                 id="tspan84"
                 y="0"
                 x="0">y</tspan></text>
<text
               id="text90"
               style="font-variant:normal;font-weight:normal;font-size:11.95500088px;font-family:CMMI12;-inkscape-font-specification:CMMI12;writing-mode:lr-tb;fill:#231f20;fill-opacity:1;fill-rule:nonzero;stroke:none"
               transform="matrix(1,0,0,-1,28.006594,23.682339)"><tspan
                 id="tspan88"
                 y="0"
                 x="0">O</tspan></text>
<text
               id="text94"
               style="font-variant:normal;font-weight:normal;font-size:11.95500088px;font-family:CMMI12;-inkscape-font-specification:CMMI12;writing-mode:lr-tb;fill:#231f20;fill-opacity:1;fill-rule:nonzero;stroke:none"
               transform="matrix(1,0,0,-1,63.006054,59.348888)"><tspan
                 id="tspan92"
                 y="0"
                 x="0">P</tspan></text>
</g></g></g></g></g></svg>