<?xml version="1.0" encoding="UTF-8" standalone="no"?>
<svg
   xmlns:dc="http://purl.org/dc/elements/1.1/"
   xmlns:cc="http://creativecommons.org/ns#"
   xmlns:rdf="http://www.w3.org/1999/02/22-rdf-syntax-ns#"
   xmlns:svg="http://www.w3.org/2000/svg"
   xmlns="http://www.w3.org/2000/svg"
   viewBox="0 0 466.66666 188"
   height="188"
   width="466.66666"
   xml:space="preserve"
   id="svg2"
   version="1.1"><metadata
     id="metadata8"><rdf:RDF><cc:Work
         rdf:about=""><dc:format>image/svg+xml</dc:format><dc:type
           rdf:resource="http://purl.org/dc/dcmitype/StillImage" /></cc:Work></rdf:RDF></metadata><defs
     id="defs6"><clipPath
       id="clipPath24"
       clipPathUnits="userSpaceOnUse"><path
         id="path22"
         d="M 0,0 H 350 V 141 H 0 Z" /></clipPath></defs><g
     transform="matrix(1.3333333,0,0,-1.3333333,0,188)"
     id="g10"><g
       id="g12" /><g
       id="g14" /><g
       id="g16"><g
         id="g18"><g
           clip-path="url(#clipPath24)"
           id="g20"><g
             id="g26" /><g
             id="g28"><text
               id="text32"
               style="font-variant:normal;font-weight:normal;font-size:12px;font-family:Times;-inkscape-font-specification:Times-Roman;writing-mode:lr-tb;fill:#000000;fill-opacity:1;fill-rule:nonzero;stroke:none"
               transform="matrix(1,0,0,-1,54.778099,112.31979)"><tspan
                 id="tspan30"
                 y="0"
                 x="0">O</tspan></text>
<path
               id="path34"
               style="fill:none;stroke:#000000;stroke-width:1;stroke-linecap:butt;stroke-linejoin:miter;stroke-miterlimit:4;stroke-dasharray:none;stroke-opacity:1"
               d="m 26,30.987001 300.03601,-0.045" /><path
               id="path36"
               style="fill:#000000;fill-opacity:1;fill-rule:nonzero;stroke:none"
               d="m 325.01602,30.942001 -2.19,3.603001 0.12299,0.082 5.87402,-2.334 C 330.87,31.842 332.91702,31.391 334.96402,30.941001 c -2.047,-0.450001 -4.09402,-0.9 -6.14099,-1.35 l -5.875,-2.333001 -0.12302,0.061 2.19101,3.622999" /><text
               id="text40"
               style="font-variant:normal;font-weight:normal;font-size:12px;font-family:Times;-inkscape-font-specification:Times-Roman;writing-mode:lr-tb;fill:#000000;fill-opacity:1;fill-rule:nonzero;stroke:none"
               transform="matrix(1,0,0,-1,53.278099,32.819798)"><tspan
                 id="tspan38"
                 y="0"
                 x="0">O</tspan></text>
<path
               id="path42"
               style="fill:#000000;fill-opacity:1;fill-rule:nonzero;stroke:#000000;stroke-width:1;stroke-linecap:butt;stroke-linejoin:miter;stroke-miterlimit:4;stroke-dasharray:none;stroke-opacity:1"
               d="M 56.058002,29.984001 V 24.4 h 4.5 z" /><path
               id="path44"
               style="fill:#000000;fill-opacity:1;fill-rule:nonzero;stroke:#000000;stroke-width:1;stroke-linecap:butt;stroke-linejoin:miter;stroke-miterlimit:4;stroke-dasharray:none;stroke-opacity:1"
               d="m 55.835003,30.032001 v -5.583 h -4.5 z" /><path
               id="path46"
               style="fill:none;stroke:#000000;stroke-width:0.60000002;stroke-linecap:butt;stroke-linejoin:miter;stroke-miterlimit:4;stroke-dasharray:none;stroke-opacity:1"
               d="M 341.091,85.825005 C 346.23801,91.661003 349.5,100.326 349.5,110 c 0,11.76801 -4.827,22.04401 -12.00299,27.54901" /><path
               id="path48"
               style="fill:#000000;fill-opacity:1;fill-rule:nonzero;stroke:none"
               d="m 341.49503,86.286003 2.48999,-0.444 -0.012,-0.088 -3.38202,-1.717002 c -1.01498,-0.741997 -2.03,-1.485001 -3.04498,-2.227005 0.60999,1.099998 1.22,2.199997 1.82999,3.299003 l 1.281,3.57 0.077,0.031 0.76102,-2.423996" /><path
               id="path50"
               style="fill:none;stroke:#000000;stroke-width:0.60000002;stroke-linecap:butt;stroke-linejoin:miter;stroke-miterlimit:4;stroke-dasharray:none;stroke-opacity:1"
               d="m 338.53,4.0450001 c 5.147,5.8360004 8.40903,14.5020009 8.40903,24.1749989 0,11.769003 -4.827,22.045004 -12.00303,27.550001" /><path
               id="path52"
               style="fill:#000000;fill-opacity:1;fill-rule:nonzero;stroke:none"
               d="m 338.93402,4.5070004 2.48999,-0.4440002 -0.012,-0.088 L 338.031,2.2570003 C 337.01602,1.5150001 336,0.77300006 334.98602,0.03 c 0.60898,1.1 1.219,2.2 1.82898,3.2999999 l 1.28101,3.5690003 0.077,0.031 0.76102,-2.4229994" /><path
               id="path54"
               style="fill:none;stroke:#000000;stroke-width:1;stroke-linecap:butt;stroke-linejoin:miter;stroke-miterlimit:4;stroke-dasharray:none;stroke-opacity:1"
               d="M 26,111 H 330" /><path
               id="path56"
               style="fill:#000000;fill-opacity:1;fill-rule:nonzero;stroke:none"
               d="m 328.97998,111 -2.19,3.603 0.12304,0.081 5.874,-2.333 c 2.04699,-0.45 4.09399,-0.90101 6.14099,-1.35101 -2.047,-0.45 -4.094,-0.90099 -6.14099,-1.351 l -5.874,-2.334 -0.12304,0.062 2.19,3.62299" /><path
               id="path58"
               style="fill:#000000;fill-opacity:1;fill-rule:nonzero;stroke:#000000;stroke-width:1;stroke-linecap:butt;stroke-linejoin:miter;stroke-miterlimit:4;stroke-dasharray:none;stroke-opacity:1"
               d="m 59.132004,110.247 v -5.583 h 4.5 z" /><path
               id="path60"
               style="fill:#000000;fill-opacity:1;fill-rule:nonzero;stroke:#000000;stroke-width:1;stroke-linecap:butt;stroke-linejoin:miter;stroke-miterlimit:4;stroke-dasharray:none;stroke-opacity:1"
               d="m 58.909004,110.29501 v -5.583 h -4.5 z" /><path
               id="path62"
               style="fill:none;stroke:#000000;stroke-width:0.60000002;stroke-linecap:butt;stroke-linejoin:miter;stroke-miterlimit:4;stroke-dasharray:none;stroke-opacity:1"
               d="M 55.561001,13.958001 H 207.561" /><path
               id="path64"
               style="fill:#000000;fill-opacity:1;fill-rule:nonzero;stroke:none"
               d="m 206.98,13.958001 -1.249,2.054 0.07,0.046 3.34898,-1.33 c 1.16703,-0.256 2.33303,-0.513 3.5,-0.77 -1.16697,-0.256 -2.33297,-0.513 -3.5,-0.77 l -3.34898,-1.33 -0.07,0.035 1.249,2.065" /><path
               id="path66"
               style="fill:#000000;fill-opacity:1;fill-rule:nonzero;stroke:none"
               d="m 59.034004,13.958001 1.249001,-2.053 -0.07,-0.047 -3.348999,1.33 c -1.167,0.257 -2.334003,0.514 -3.500999,0.77 1.166996,0.257 2.333999,0.514 3.500999,0.77 l 3.348999,1.33 0.07,-0.035 -1.249001,-2.065" /><path
               id="path68"
               style="fill:none;stroke:#000000;stroke-width:0.60000002;stroke-linecap:butt;stroke-linejoin:miter;stroke-miterlimit:4;stroke-dasharray:none;stroke-opacity:1"
               d="M 61.475002,94.308006 H 159.39601" /><path
               id="path70"
               style="fill:#000000;fill-opacity:1;fill-rule:nonzero;stroke:none"
               d="m 158.843,94.308006 -1.18599,1.950997 0.067,0.044 3.181,-1.263 c 1.10799,-0.243996 2.217,-0.487999 3.32499,-0.731995 -1.10799,-0.244003 -2.217,-0.488006 -3.32499,-0.731003 l -3.181,-1.263999 -0.067,0.033 1.18599,1.962005" /><path
               id="path72"
               style="fill:#000000;fill-opacity:1;fill-rule:nonzero;stroke:none"
               d="m 62.027004,94.308006 1.185997,-1.951004 -0.066,-0.044 -3.181,1.263999 c -1.109001,0.242997 -2.216999,0.487 -3.326004,0.731003 1.109005,0.243996 2.217003,0.487999 3.326004,0.731995 l 3.181,1.263 0.066,-0.033 -1.185997,-1.961991" /><path
               id="path74"
               style="fill:none;stroke:#000000;stroke-width:0.60000002;stroke-linecap:butt;stroke-linejoin:miter;stroke-miterlimit:4;stroke-dasharray:none;stroke-opacity:1"
               d="M 60.423004,87.483002 H 267.04703" /><path
               id="path76"
               style="fill:#000000;fill-opacity:1;fill-rule:nonzero;stroke:none"
               d="m 266.466,87.483002 -1.24899,2.054001 0.07,0.04601 3.349,-1.330002 c 1.16699,-0.256004 2.33398,-0.513008 3.501,-0.770004 -1.16702,-0.255997 -2.33401,-0.513001 -3.501,-0.769997 l -3.349,-1.330002 -0.07,0.035 1.24899,2.064995" /><path
               id="path78"
               style="fill:#000000;fill-opacity:1;fill-rule:nonzero;stroke:none"
               d="m 61.004002,87.483002 1.249,-2.053002 -0.07,-0.047 -3.348999,1.330002 c -1.166999,0.256996 -2.333,0.514 -3.5,0.769997 1.167,0.256996 2.333001,0.514 3.5,0.770004 l 3.348999,1.330002 0.07,-0.035 -1.249,-2.065002" /><path
               id="path80"
               style="fill:#ffffff;fill-opacity:1;fill-rule:nonzero;stroke:#ffffff;stroke-width:0.60000002;stroke-linecap:butt;stroke-linejoin:miter;stroke-miterlimit:4;stroke-dasharray:none;stroke-opacity:1"
               d="m 110.48501,10.458 h 24.50001 v 7.5 h -24.50001 z" /><text
               id="text84"
               style="font-variant:normal;font-weight:normal;font-size:12px;font-family:Times;-inkscape-font-specification:Times-Roman;writing-mode:lr-tb;fill:#000000;fill-opacity:1;fill-rule:nonzero;stroke:none"
               transform="matrix(1,0,0,-1,115.2351,10.278001)"><tspan
                 id="tspan82"
                 y="0"
                 x="0 6 9">1.5</tspan></text>
<path
               id="path86"
               style="fill:#ffffff;fill-opacity:1;fill-rule:nonzero;stroke:#ffffff;stroke-width:0.60000002;stroke-linecap:butt;stroke-linejoin:miter;stroke-miterlimit:4;stroke-dasharray:none;stroke-opacity:1"
               d="m 96.485008,89.333008 h 24.500002 v 7.5 H 96.485008 Z" /><path
               id="path88"
               style="fill:#ffffff;fill-opacity:1;fill-rule:nonzero;stroke:#ffffff;stroke-width:0.60000002;stroke-linecap:butt;stroke-linejoin:miter;stroke-miterlimit:4;stroke-dasharray:none;stroke-opacity:1"
               d="m 155.735,82.583 h 24.5 v 7.5 h -24.5 z" /><text
               id="text92"
               style="font-variant:normal;font-weight:normal;font-size:12px;font-family:Times;-inkscape-font-specification:Times-Roman;writing-mode:lr-tb;fill:#000000;fill-opacity:1;fill-rule:nonzero;stroke:none"
               transform="matrix(1,0,0,-1,106.9851,90.319695)"><tspan
                 id="tspan90"
                 y="0"
                 x="0">1</tspan></text>
<path
               id="path94"
               style="fill:#808080;fill-opacity:1;fill-rule:nonzero;stroke:#808080;stroke-width:1;stroke-linecap:butt;stroke-linejoin:miter;stroke-miterlimit:4;stroke-dasharray:none;stroke-opacity:1"
               d="m 165.87502,105.395 c 3.02699,0 5.47999,2.45401 5.47999,5.48001 0,3.027 -2.453,5.47999 -5.47999,5.47999 -3.02701,0 -5.48002,-2.45299 -5.48002,-5.47999 0,-3.026 2.45301,-5.48001 5.48002,-5.48001 z" /><path
               id="path96"
               style="fill:#808080;fill-opacity:1;fill-rule:nonzero;stroke:#808080;stroke-width:1;stroke-linecap:butt;stroke-linejoin:miter;stroke-miterlimit:4;stroke-dasharray:none;stroke-opacity:1"
               d="m 272.31201,105.45701 c 3.02701,0 5.48099,2.45399 5.48099,5.48099 0,3.026 -2.45398,5.48001 -5.48099,5.48001 -3.026,0 -5.48001,-2.45401 -5.48001,-5.48001 0,-3.027 2.45401,-5.48099 5.48001,-5.48099 z" /><path
               id="path98"
               style="fill:#808080;fill-opacity:1;fill-rule:nonzero;stroke:#808080;stroke-width:1;stroke-linecap:butt;stroke-linejoin:miter;stroke-miterlimit:4;stroke-dasharray:none;stroke-opacity:1"
               d="m 213.25,20.924002 c 5.56502,0 10.076,4.510999 10.076,10.075998 0,5.565002 -4.51098,10.076 -10.076,10.076 -5.56499,0 -10.07599,-4.510998 -10.07599,-10.076 0,-5.564999 4.511,-10.075998 10.07599,-10.075998 z" /><text
               id="text102"
               style="font-variant:normal;font-weight:normal;font-size:12px;font-family:Times;-inkscape-font-specification:Times-Roman;writing-mode:lr-tb;fill:#000000;fill-opacity:1;fill-rule:nonzero;stroke:none"
               transform="matrix(1,0,0,-1,165.5,82.923897)"><tspan
                 id="tspan100"
                 y="0"
                 x="0">2</tspan></text>
<text
               id="text106"
               style="font-variant:normal;font-weight:normal;font-size:11.95500088px;font-family:CMR12;-inkscape-font-specification:CMR12;writing-mode:lr-tb;fill:#231f20;fill-opacity:1;fill-rule:nonzero;stroke:none"
               transform="matrix(1,0,0,-1,1.0782,129.26959)"><tspan
                 id="tspan104"
                 y="0"
                 x="0 4.5548553 10.412806">(a)</tspan></text>
<text
               id="text110"
               style="font-variant:normal;font-weight:normal;font-size:11.95500088px;font-family:CMR12;-inkscape-font-specification:CMR12;writing-mode:lr-tb;fill:#231f20;fill-opacity:1;fill-rule:nonzero;stroke:none"
               transform="matrix(1,0,0,-1,0.93713099,43.935993)"><tspan
                 id="tspan108"
                 y="0"
                 x="0 4.5548553 11.058376">(b)</tspan></text>
<text
               id="text114"
               style="font-variant:normal;font-weight:normal;font-size:11.95500088px;font-family:CMMI12;-inkscape-font-specification:CMMI12;writing-mode:lr-tb;fill:#231f20;fill-opacity:1;fill-rule:nonzero;stroke:none"
               transform="matrix(1,0,0,-1,275.02704,116.53513)"><tspan
                 id="tspan112"
                 y="0"
                 x="0">m</tspan></text>
<text
               id="text118"
               style="font-variant:normal;font-weight:normal;font-size:11.95500088px;font-family:CMMI12;-inkscape-font-specification:CMMI12;writing-mode:lr-tb;fill:#231f20;fill-opacity:1;fill-rule:nonzero;stroke:none"
               transform="matrix(1,0,0,-1,167.61256,118.53519)"><tspan
                 id="tspan116"
                 y="0"
                 x="0">m</tspan></text>
<text
               id="text122"
               style="font-variant:normal;font-weight:normal;font-size:11.95500088px;font-family:CMR12;-inkscape-font-specification:CMR12;writing-mode:lr-tb;fill:#231f20;fill-opacity:1;fill-rule:nonzero;stroke:none"
               transform="matrix(1,0,0,-1,222.755,40.534794)"><tspan
                 id="tspan120"
                 y="0"
                 x="0">2</tspan></text>
<text
               id="text126"
               style="font-variant:normal;font-weight:normal;font-size:11.95500088px;font-family:CMMI12;-inkscape-font-specification:CMMI12;writing-mode:lr-tb;fill:#231f20;fill-opacity:1;fill-rule:nonzero;stroke:none"
               transform="matrix(1,0,0,-1,228.60817,40.534794)"><tspan
                 id="tspan124"
                 y="0"
                 x="0">m</tspan></text>
</g></g></g></g></g></svg>