<?xml version="1.0" encoding="UTF-8" standalone="no"?>
<svg
   xmlns:dc="http://purl.org/dc/elements/1.1/"
   xmlns:cc="http://creativecommons.org/ns#"
   xmlns:rdf="http://www.w3.org/1999/02/22-rdf-syntax-ns#"
   xmlns:svg="http://www.w3.org/2000/svg"
   xmlns="http://www.w3.org/2000/svg"
   viewBox="0 0 392 60"
   height="60"
   width="392"
   xml:space="preserve"
   id="svg2"
   version="1.1"><metadata
     id="metadata8"><rdf:RDF><cc:Work
         rdf:about=""><dc:format>image/svg+xml</dc:format><dc:type
           rdf:resource="http://purl.org/dc/dcmitype/StillImage" /></cc:Work></rdf:RDF></metadata><defs
     id="defs6"><clipPath
       id="clipPath24"
       clipPathUnits="userSpaceOnUse"><path
         id="path22"
         d="M 0,0 H 294 V 45 H 0 Z" /></clipPath></defs><g
     transform="matrix(1.3333333,0,0,-1.3333333,0,60)"
     id="g10"><g
       id="g12" /><g
       id="g14" /><g
       id="g16"><g
         id="g18"><g
           clip-path="url(#clipPath24)"
           id="g20"><g
             id="g26" /><g
             id="g28"><path
               id="path30"
               style="fill:none;stroke:#000000;stroke-width:1;stroke-linecap:butt;stroke-linejoin:miter;stroke-miterlimit:4;stroke-dasharray:none;stroke-opacity:1"
               d="M 0.036,26.942001 H 285.03601" /><path
               id="path32"
               style="fill:#000000;fill-opacity:1;fill-rule:nonzero;stroke:none"
               d="m 284.01602,26.942001 -2.19,3.603001 0.12201,0.082 5.875,-2.334 c 2.04697,-0.450001 4.09399,-0.900999 6.14099,-1.351 -2.047,-0.45 -4.09402,-0.901001 -6.14099,-1.350999 l -5.875,-2.333001 -0.12201,0.061 2.19,3.623001" /><path
               id="path34"
               style="fill:none;stroke:#000000;stroke-width:0.60000002;stroke-linecap:butt;stroke-linejoin:miter;stroke-miterlimit:4;stroke-dasharray:none;stroke-opacity:1"
               d="M 23.038002,6.9790006 H 228.67101" /><path
               id="path36"
               style="fill:#000000;fill-opacity:1;fill-rule:nonzero;stroke:none"
               d="m 228.09601,6.9790006 -1.234,2.0300002 0.069,0.045999 3.30999,-1.3150005 C 231.394,7.487 232.547,7.2329998 233.70099,6.9790001 232.547,6.7249999 231.394,6.4719996 230.241,6.2179999 l -3.30999,-1.315 -0.069,0.035 1.234,2.0410004" /><path
               id="path38"
               style="fill:#000000;fill-opacity:1;fill-rule:nonzero;stroke:none"
               d="m 23.612001,6.9790006 1.234,-2.0300002 -0.069,-0.046 -3.309999,1.315 c -1.153,0.2539997 -2.306,0.507 -3.459,0.7610002 1.153,0.2539997 2.306,0.5079999 3.459,0.7609992 l 3.309999,1.3150005 0.069,-0.035001 -1.234,-2.0409989" /><path
               id="path40"
               style="fill:#000000;fill-opacity:1;fill-rule:nonzero;stroke:none"
               d="m 23.612001,6.9790006 1.234,-2.0300002 -0.069,-0.046 -3.309999,1.315 c -1.153,0.2539997 -2.306,0.507 -3.459,0.7610002 1.153,0.2539997 2.306,0.5079999 3.459,0.7609992 l 3.309999,1.3150005 0.069,-0.035001 -1.234,-2.0409989" /><path
               id="path42"
               style="fill:#000000;fill-opacity:1;fill-rule:nonzero;stroke:#000000;stroke-width:1;stroke-linecap:butt;stroke-linejoin:miter;stroke-miterlimit:4;stroke-dasharray:none;stroke-opacity:1"
               d="m 15.652,26.43 v -8.932998 h 7.200001 z" /><path
               id="path44"
               style="fill:#000000;fill-opacity:1;fill-rule:nonzero;stroke:#000000;stroke-width:1;stroke-linecap:butt;stroke-linejoin:miter;stroke-miterlimit:4;stroke-dasharray:none;stroke-opacity:1"
               d="M 15.295001,26.507002 V 17.574001 H 8.0950003 Z" /><path
               id="path46"
               style="fill:#ffffff;fill-opacity:1;fill-rule:nonzero;stroke:#ffffff;stroke-width:1;stroke-linecap:butt;stroke-linejoin:miter;stroke-miterlimit:4;stroke-dasharray:none;stroke-opacity:1"
               d="m 97.333008,4 h 34.333012 v 7 H 97.333008 Z" /><path
               id="path48"
               style="fill:#808080;fill-opacity:1;fill-rule:nonzero;stroke:#808080;stroke-width:1;stroke-linecap:butt;stroke-linejoin:miter;stroke-miterlimit:4;stroke-dasharray:none;stroke-opacity:1"
               d="m 233.83301,16.836 c 5.33699,0 9.664,4.327 9.664,9.664 0,5.337002 -4.32701,9.664001 -9.664,9.664001 -5.33699,0 -9.66301,-4.326999 -9.66301,-9.664001 0,-5.337 4.32602,-9.664 9.66301,-9.664 z" /><text
               id="text52"
               style="font-variant:normal;font-weight:normal;font-size:11.95500088px;font-family:CMR12;-inkscape-font-specification:CMR12;writing-mode:lr-tb;fill:#231f20;fill-opacity:1;fill-rule:nonzero;stroke:none"
               transform="matrix(1,0,0,-1,245,33)"><tspan
                 id="tspan50"
                 y="0"
                 x="0">5</tspan></text>
<text
               id="text56"
               style="font-variant:normal;font-weight:normal;font-size:11.95500088px;font-family:CMMI12;-inkscape-font-specification:CMMI12;writing-mode:lr-tb;fill:#231f20;fill-opacity:1;fill-rule:nonzero;stroke:none"
               transform="matrix(1,0,0,-1,18.678696,31.035793)"><tspan
                 id="tspan54"
                 y="0"
                 x="0">O</tspan></text>
<text
               id="text60"
               style="font-variant:normal;font-weight:normal;font-size:11.95500088px;font-family:CMR12;-inkscape-font-specification:CMR12;writing-mode:lr-tb;fill:#231f20;fill-opacity:1;fill-rule:nonzero;stroke:none"
               transform="matrix(1,0,0,-1,106.7189,3.0359869)"><tspan
                 id="tspan58"
                 y="0"
                 x="0 5.8579507">10</tspan></text>
</g></g></g></g></g></svg>