<?xml version="1.0" encoding="UTF-8" standalone="no"?>
<svg
   xmlns:dc="http://purl.org/dc/elements/1.1/"
   xmlns:cc="http://creativecommons.org/ns#"
   xmlns:rdf="http://www.w3.org/1999/02/22-rdf-syntax-ns#"
   xmlns:svg="http://www.w3.org/2000/svg"
   xmlns="http://www.w3.org/2000/svg"
   viewBox="0 0 288 142.66667"
   height="142.66667"
   width="288"
   xml:space="preserve"
   id="svg2"
   version="1.1"><metadata
     id="metadata8"><rdf:RDF><cc:Work
         rdf:about=""><dc:format>image/svg+xml</dc:format><dc:type
           rdf:resource="http://purl.org/dc/dcmitype/StillImage" /></cc:Work></rdf:RDF></metadata><defs
     id="defs6"><clipPath
       id="clipPath24"
       clipPathUnits="userSpaceOnUse"><path
         id="path22"
         d="M 0,0 H 216 V 107 H 0 Z" /></clipPath></defs><g
     transform="matrix(1.3333333,0,0,-1.3333333,0,142.66667)"
     id="g10"><g
       id="g12" /><g
       id="g14" /><g
       id="g16"><g
         id="g18"><g
           clip-path="url(#clipPath24)"
           id="g20"><g
             id="g26" /><g
             id="g28"><path
               id="path30"
               style="fill:#ffffff;fill-opacity:1;fill-rule:nonzero;stroke:#000000;stroke-width:1;stroke-linecap:butt;stroke-linejoin:miter;stroke-miterlimit:4;stroke-dasharray:none;stroke-opacity:1"
               d="m 150.625,93.375008 c -4.49199,0.264 -9,0.5 -13.5,2 -14.99999,4 -29.99999,4.5 -44.999992,3 -17.500008,-2 -38.000004,-15 -33.500004,-35.500004 1,-5 6.499996,-8 10.999996,-10 10,-4.5 20.500008,-6 28.500008,-13.500004 9.500002,-20.5 33.999992,-21 53.499992,-18.499998 14.50002,1.5 27.50002,11 33.50002,24.000002 3,6 2,13.5 1,19.999996 -1,8.5 -4.5,16.500008 -11,22.000008 -7,6 -16.00002,6 -24.50002,6.5 z" /><path
               id="path32"
               style="fill:#000000;fill-opacity:1;fill-rule:nonzero;stroke:none"
               d="M 18,98.5 V 0" /><path
               id="path34"
               style="fill:#000000;fill-opacity:1;fill-rule:nonzero;stroke:none"
               d="m 18,98.256004 -2.881999,-1.751999 -0.066,0.098 1.867,4.699995 c 0.360998,1.637 0.720998,3.275 1.080999,4.912 0.359999,-1.637 0.721001,-3.275 1.081001,-4.912 l 1.867001,-4.699995 -0.049,-0.098 L 18,98.256004" /><path
               id="path36"
               style="fill:#000000;fill-opacity:1;fill-rule:nonzero;stroke:none"
               d="M 0,13 H 203" /><path
               id="path38"
               style="fill:#000000;fill-opacity:1;fill-rule:nonzero;stroke:none"
               d="m 202.75601,13 -1.752,2.882001 0.098,0.066 4.70001,-1.867001 c 1.63699,-0.359999 3.27499,-0.721 4.91299,-1.081 -1.638,-0.360001 -3.276,-0.721 -4.91299,-1.080999 l -4.70001,-1.867001 -0.098,0.049 1.752,2.898999" /><path
               id="path40"
               style="fill:#000000;fill-opacity:1;fill-rule:nonzero;stroke:none"
               d="m 96.333008,67.636002 c 0.937996,0 1.696991,0.760002 1.696991,1.696998 0,0.938004 -0.758995,1.696999 -1.696991,1.696999 -0.937004,0 -1.697006,-0.758995 -1.697006,-1.696999 0,-0.936996 0.760002,-1.696998 1.697006,-1.696998" /><text
               id="text44"
               style="font-variant:normal;font-weight:normal;font-size:11.95500088px;font-family:CMMI12;-inkscape-font-specification:CMMI12;writing-mode:lr-tb;fill:#231f20;fill-opacity:1;fill-rule:nonzero;stroke:none"
               transform="matrix(1,0,0,-1,100.5845,68.600601)"><tspan
                 id="tspan42"
                 y="0"
                 x="0">G</tspan></text>
<text
               id="text48"
               style="font-variant:normal;font-weight:normal;font-size:11.95500088px;font-family:CMR12;-inkscape-font-specification:CMR12;writing-mode:lr-tb;fill:#231f20;fill-opacity:1;fill-rule:nonzero;stroke:none"
               transform="matrix(1,0,0,-1,109.81853,68.600601)"><tspan
                 id="tspan46"
                 y="0"
                 x="0">(</tspan></text>
<text
               id="text52"
               style="font-variant:normal;font-weight:normal;font-size:11.95500088px;font-family:CMR12;-inkscape-font-specification:CMR12;writing-mode:lr-tb;fill:#231f20;fill-opacity:1;fill-rule:nonzero;stroke:none"
               transform="matrix(1,0,0,-1,115.09786,68.600601)"><tspan
                 id="tspan50"
                 y="0"
                 x="0">¯</tspan></text>
<text
               id="text56"
               style="font-variant:normal;font-weight:normal;font-size:11.95500088px;font-family:CMMI12;-inkscape-font-specification:CMMI12;writing-mode:lr-tb;fill:#231f20;fill-opacity:1;fill-rule:nonzero;stroke:none"
               transform="matrix(1,0,0,-1,114.371,68.600601)"><tspan
                 id="tspan54"
                 y="0"
                 x="0 6.6469808">x,</tspan></text>
<text
               id="text60"
               style="font-variant:normal;font-weight:normal;font-size:11.95500088px;font-family:CMR12;-inkscape-font-specification:CMR12;writing-mode:lr-tb;fill:#231f20;fill-opacity:1;fill-rule:nonzero;stroke:none"
               transform="matrix(1,0,0,-1,127.06004,68.600601)"><tspan
                 id="tspan58"
                 y="0"
                 x="0">¯</tspan></text>
<text
               id="text64"
               style="font-variant:normal;font-weight:normal;font-size:11.95500088px;font-family:CMMI12;-inkscape-font-specification:CMMI12;writing-mode:lr-tb;fill:#231f20;fill-opacity:1;fill-rule:nonzero;stroke:none"
               transform="matrix(1,0,0,-1,126.26742,68.600601)"><tspan
                 id="tspan62"
                 y="0"
                 x="0">y</tspan></text>
<text
               id="text68"
               style="font-variant:normal;font-weight:normal;font-size:11.95500088px;font-family:CMR12;-inkscape-font-specification:CMR12;writing-mode:lr-tb;fill:#231f20;fill-opacity:1;fill-rule:nonzero;stroke:none"
               transform="matrix(1,0,0,-1,132.40392,68.600601)"><tspan
                 id="tspan66"
                 y="0"
                 x="0">)</tspan></text>
<text
               id="text72"
               style="font-variant:normal;font-weight:normal;font-size:11.95500088px;font-family:CMMI12;-inkscape-font-specification:CMMI12;writing-mode:lr-tb;fill:#231f20;fill-opacity:1;fill-rule:nonzero;stroke:none"
               transform="matrix(1,0,0,-1,208.6302,3.7578762)"><tspan
                 id="tspan70"
                 y="0"
                 x="0">x</tspan></text>
<text
               id="text76"
               style="font-variant:normal;font-weight:normal;font-size:11.95500088px;font-family:CMMI12;-inkscape-font-specification:CMMI12;writing-mode:lr-tb;fill:#231f20;fill-opacity:1;fill-rule:nonzero;stroke:none"
               transform="matrix(1,0,0,-1,6.4878774,96.257301)"><tspan
                 id="tspan74"
                 y="0"
                 x="0">y</tspan></text>
</g></g></g></g></g></svg>