<?xml version="1.0" encoding="UTF-8" standalone="no"?>
<svg
   xmlns:dc="http://purl.org/dc/elements/1.1/"
   xmlns:cc="http://creativecommons.org/ns#"
   xmlns:rdf="http://www.w3.org/1999/02/22-rdf-syntax-ns#"
   xmlns:svg="http://www.w3.org/2000/svg"
   xmlns="http://www.w3.org/2000/svg"
   viewBox="0 0 392 61.333332"
   height="61.333332"
   width="392"
   xml:space="preserve"
   id="svg2"
   version="1.1"><metadata
     id="metadata8"><rdf:RDF><cc:Work
         rdf:about=""><dc:format>image/svg+xml</dc:format><dc:type
           rdf:resource="http://purl.org/dc/dcmitype/StillImage" /></cc:Work></rdf:RDF></metadata><defs
     id="defs6"><clipPath
       id="clipPath24"
       clipPathUnits="userSpaceOnUse"><path
         id="path22"
         d="M 0,0 H 294 V 46 H 0 Z" /></clipPath></defs><g
     transform="matrix(1.3333333,0,0,-1.3333333,0,61.333333)"
     id="g10"><g
       id="g12" /><g
       id="g14" /><g
       id="g16"><g
         id="g18"><g
           clip-path="url(#clipPath24)"
           id="g20"><g
             id="g26" /><g
             id="g28"><path
               id="path30"
               style="fill:none;stroke:#000000;stroke-width:1;stroke-linecap:butt;stroke-linejoin:miter;stroke-miterlimit:4;stroke-dasharray:none;stroke-opacity:1"
               d="M 0.036,29.255001 H 285.03601" /><path
               id="path32"
               style="fill:#000000;fill-opacity:1;fill-rule:nonzero;stroke:none"
               d="m 284.01602,29.255001 -2.19,3.602001 0.12201,0.082 5.875,-2.333002 c 2.04697,-0.451 4.09399,-0.900999 6.14099,-1.351 -2.047,-0.451 -4.09402,-0.900999 -6.14099,-1.351999 l -5.875,-2.333002 -0.12201,0.061 2.19,3.624" /><path
               id="path34"
               style="fill:none;stroke:#000000;stroke-width:0.60000002;stroke-linecap:butt;stroke-linejoin:miter;stroke-miterlimit:4;stroke-dasharray:none;stroke-opacity:1"
               d="M 22.800001,6 H 167.19901" /><path
               id="path36"
               style="fill:#000000;fill-opacity:1;fill-rule:nonzero;stroke:none"
               d="m 166.647,6 -1.18599,1.9510002 0.067,0.044 3.18099,-1.264 c 1.10799,-0.243 2.217,-0.487 3.325,-0.7310004 -1.108,-0.244 -2.21701,-0.4879999 -3.325,-0.7319999 l -3.18099,-1.263 -0.067,0.033 L 166.647,6" /><path
               id="path38"
               style="fill:#000000;fill-opacity:1;fill-rule:nonzero;stroke:none"
               d="m 23.353001,6 1.186,-1.9509997 -0.067,-0.044 -3.181002,1.263 C 20.183001,5.5120001 19.074001,5.756 17.966002,6 19.074001,6.2440004 20.183001,6.4880004 21.291,6.7310004 l 3.181002,1.264 0.067,-0.033 L 23.353001,6" /><path
               id="path40"
               style="fill:#000000;fill-opacity:1;fill-rule:nonzero;stroke:#000000;stroke-width:1;stroke-linecap:butt;stroke-linejoin:miter;stroke-miterlimit:4;stroke-dasharray:none;stroke-opacity:1"
               d="m 16.625,29.382002 v -8.934 h 7.200001 z" /><path
               id="path42"
               style="fill:#000000;fill-opacity:1;fill-rule:nonzero;stroke:#000000;stroke-width:1;stroke-linecap:butt;stroke-linejoin:miter;stroke-miterlimit:4;stroke-dasharray:none;stroke-opacity:1"
               d="M 16.268002,29.459002 V 20.526001 H 9.0680008 Z" /><path
               id="path44"
               style="fill:#808080;fill-opacity:1;fill-rule:nonzero;stroke:#808080;stroke-width:1;stroke-linecap:butt;stroke-linejoin:miter;stroke-miterlimit:4;stroke-dasharray:none;stroke-opacity:1"
               d="m 173.25,17.497002 c 5.66301,0 10.25301,4.59 10.25301,10.252998 0,5.662003 -4.59,10.253002 -10.25301,10.253002 -5.66299,0 -10.25299,-4.590999 -10.25299,-10.253002 0,-5.662998 4.59,-10.252998 10.25299,-10.252998 z" /><path
               id="path46"
               style="fill:#ffffff;fill-opacity:1;fill-rule:nonzero;stroke:#ffffff;stroke-width:0.60000002;stroke-linecap:butt;stroke-linejoin:miter;stroke-miterlimit:4;stroke-dasharray:none;stroke-opacity:1"
               d="m 79.5,1 h 25 v 9.5 h -25 z" /><text
               id="text50"
               style="font-variant:normal;font-weight:normal;font-size:11.95500088px;font-family:CMMI12;-inkscape-font-specification:CMMI12;writing-mode:lr-tb;fill:#231f20;fill-opacity:1;fill-rule:nonzero;stroke:none"
               transform="matrix(1,0,0,-1,16.429199,32.535297)"><tspan
                 id="tspan48"
                 y="0"
                 x="0">O</tspan></text>
<text
               id="text54"
               style="font-variant:normal;font-weight:normal;font-size:11.95500088px;font-family:CMMI12;-inkscape-font-specification:CMMI12;writing-mode:lr-tb;fill:#231f20;fill-opacity:1;fill-rule:nonzero;stroke:none"
               transform="matrix(1,0,0,-1,184.49977,36.035721)"><tspan
                 id="tspan52"
                 y="0"
                 x="0">M</tspan></text>
<text
               id="text58"
               style="font-variant:normal;font-weight:normal;font-size:11.95500088px;font-family:CMMI12;-inkscape-font-specification:CMMI12;writing-mode:lr-tb;fill:#231f20;fill-opacity:1;fill-rule:nonzero;stroke:none"
               transform="matrix(1,0,0,-1,89.475449,3.0351386)"><tspan
                 id="tspan56"
                 y="0"
                 x="0">d</tspan></text>
</g></g></g></g></g></svg>