<?xml version="1.0" encoding="UTF-8" standalone="no"?>
<svg
   xmlns:dc="http://purl.org/dc/elements/1.1/"
   xmlns:cc="http://creativecommons.org/ns#"
   xmlns:rdf="http://www.w3.org/1999/02/22-rdf-syntax-ns#"
   xmlns:svg="http://www.w3.org/2000/svg"
   xmlns="http://www.w3.org/2000/svg"
   viewBox="0 0 392 61.333332"
   height="61.333332"
   width="392"
   xml:space="preserve"
   id="svg2"
   version="1.1"><metadata
     id="metadata8"><rdf:RDF><cc:Work
         rdf:about=""><dc:format>image/svg+xml</dc:format><dc:type
           rdf:resource="http://purl.org/dc/dcmitype/StillImage" /></cc:Work></rdf:RDF></metadata><defs
     id="defs6"><clipPath
       id="clipPath24"
       clipPathUnits="userSpaceOnUse"><path
         id="path22"
         d="M 0,0 H 294 V 46 H 0 Z" /></clipPath></defs><g
     transform="matrix(1.3333333,0,0,-1.3333333,0,61.333333)"
     id="g10"><g
       id="g12" /><g
       id="g14" /><g
       id="g16"><g
         id="g18"><g
           clip-path="url(#clipPath24)"
           id="g20"><g
             id="g26" /><g
             id="g28"><path
               id="path30"
               style="fill:none;stroke:#000000;stroke-width:1;stroke-linecap:butt;stroke-linejoin:miter;stroke-miterlimit:4;stroke-dasharray:none;stroke-opacity:1"
               d="M 0.036,27.942001 H 285.03601" /><path
               id="path32"
               style="fill:#000000;fill-opacity:1;fill-rule:nonzero;stroke:none"
               d="m 284.01602,27.942001 -2.19,3.603001 0.12201,0.082 5.875,-2.334 c 2.04697,-0.449999 4.09399,-0.900999 6.14099,-1.351 -2.047,-0.45 -4.09402,-0.901001 -6.14099,-1.350999 l -5.875,-2.334 -0.12201,0.062 2.19,3.623001" /><path
               id="path34"
               style="fill:#808080;fill-opacity:1;fill-rule:nonzero;stroke:#808080;stroke-width:1;stroke-linecap:butt;stroke-linejoin:miter;stroke-miterlimit:4;stroke-dasharray:none;stroke-opacity:1"
               d="m 173,17.572001 c 5.72801,0 10.371,4.221 10.371,9.427999 0,5.207001 -4.64299,9.428001 -10.371,9.428001 -5.728,0 -10.37099,-4.221 -10.37099,-9.428001 0,-5.206999 4.64299,-9.427999 10.37099,-9.427999 z" /><path
               id="path36"
               style="fill:none;stroke:#000000;stroke-width:0.60000002;stroke-linecap:butt;stroke-linejoin:miter;stroke-miterlimit:4;stroke-dasharray:none;stroke-opacity:1"
               d="M 21.300001,9 H 165.69901" /><path
               id="path38"
               style="fill:#000000;fill-opacity:1;fill-rule:nonzero;stroke:none"
               d="m 165.147,9 -1.18599,1.951 0.067,0.044 3.18099,-1.2640001 c 1.10799,-0.243 2.217,-0.4870005 3.325,-0.7310009 -1.108,-0.2439995 -2.21701,-0.4879999 -3.325,-0.7319994 l -3.18099,-1.2630005 -0.067,0.033 L 165.147,9" /><path
               id="path40"
               style="fill:#000000;fill-opacity:1;fill-rule:nonzero;stroke:none"
               d="m 21.853001,9 1.186,-1.9509997 -0.067,-0.044 L 19.791,8.2680006 C 18.683001,8.5120001 17.574001,8.7560005 16.466002,9 17.574001,9.2440004 18.683001,9.4880009 19.791,9.7310009 l 3.181002,1.2640001 0.067,-0.033 L 21.853001,9" /><path
               id="path42"
               style="fill:#000000;fill-opacity:1;fill-rule:nonzero;stroke:#000000;stroke-width:1;stroke-linecap:butt;stroke-linejoin:miter;stroke-miterlimit:4;stroke-dasharray:none;stroke-opacity:1"
               d="M 15.089001,27.242001 V 18.309 h 7.2 z" /><path
               id="path44"
               style="fill:#000000;fill-opacity:1;fill-rule:nonzero;stroke:#000000;stroke-width:1;stroke-linecap:butt;stroke-linejoin:miter;stroke-miterlimit:4;stroke-dasharray:none;stroke-opacity:1"
               d="m 14.732,27.319002 v -8.933 H 7.5320005 Z" /><path
               id="path46"
               style="fill:#ffffff;fill-opacity:1;fill-rule:nonzero;stroke:#ffffff;stroke-width:0.60000002;stroke-linecap:butt;stroke-linejoin:miter;stroke-miterlimit:4;stroke-dasharray:none;stroke-opacity:1"
               d="M 79.5,4.5 H 101 v 8 H 79.5 Z" /><text
               id="text50"
               style="font-variant:normal;font-weight:normal;font-size:11.95500088px;font-family:CMR12;-inkscape-font-specification:CMR12;writing-mode:lr-tb;fill:#231f20;fill-opacity:1;fill-rule:nonzero;stroke:none"
               transform="matrix(1,0,0,-1,86,4)"><tspan
                 id="tspan48"
                 y="0"
                 x="0">8</tspan></text>
<text
               id="text54"
               style="font-variant:normal;font-weight:normal;font-size:11.95500088px;font-family:CMMI12;-inkscape-font-specification:CMMI12;writing-mode:lr-tb;fill:#231f20;fill-opacity:1;fill-rule:nonzero;stroke:none"
               transform="matrix(1,0,0,-1,14.678858,31.035038)"><tspan
                 id="tspan52"
                 y="0"
                 x="0">O</tspan></text>
<text
               id="text58"
               style="font-variant:normal;font-weight:normal;font-size:11.95500088px;font-family:CMR12;-inkscape-font-specification:CMR12;writing-mode:lr-tb;fill:#231f20;fill-opacity:1;fill-rule:nonzero;stroke:none"
               transform="matrix(1,0,0,-1,186,33.999878)"><tspan
                 id="tspan56"
                 y="0"
                 x="0">5</tspan></text>
</g></g></g></g></g></svg>