<?xml version="1.0" encoding="UTF-8" standalone="no"?>
<svg
   xmlns:dc="http://purl.org/dc/elements/1.1/"
   xmlns:cc="http://creativecommons.org/ns#"
   xmlns:rdf="http://www.w3.org/1999/02/22-rdf-syntax-ns#"
   xmlns:svg="http://www.w3.org/2000/svg"
   xmlns="http://www.w3.org/2000/svg"
   viewBox="0 0 416 149.33333"
   height="149.33333"
   width="416"
   xml:space="preserve"
   id="svg2"
   version="1.1"><metadata
     id="metadata8"><rdf:RDF><cc:Work
         rdf:about=""><dc:format>image/svg+xml</dc:format><dc:type
           rdf:resource="http://purl.org/dc/dcmitype/StillImage" /></cc:Work></rdf:RDF></metadata><defs
     id="defs6"><clipPath
       id="clipPath24"
       clipPathUnits="userSpaceOnUse"><path
         id="path22"
         d="M 0,0 H 312 V 112 H 0 Z" /></clipPath></defs><g
     transform="matrix(1.3333333,0,0,-1.3333333,0,149.33333)"
     id="g10"><g
       id="g12" /><g
       id="g14" /><g
       id="g16"><g
         id="g18"><g
           clip-path="url(#clipPath24)"
           id="g20"><g
             id="g26" /><g
             id="g28"><path
               id="path30"
               style="fill:none;stroke:#000000;stroke-width:1;stroke-linecap:butt;stroke-linejoin:miter;stroke-miterlimit:4;stroke-dasharray:none;stroke-opacity:1"
               d="M 17.542002,81.313004 H 302.54202" /><path
               id="path32"
               style="fill:#000000;fill-opacity:1;fill-rule:nonzero;stroke:none"
               d="m 301.522,81.313004 -2.19098,3.601997 0.12299,0.082 5.875,-2.333001 c 2.047,-0.450996 4.09399,-0.901001 6.14099,-1.350997 -2.047,-0.450997 -4.09399,-0.901001 -6.14099,-1.351998 l -5.875,-2.333 -0.12299,0.061 2.19098,3.624001" /><path
               id="path34"
               style="fill:none;stroke:#000000;stroke-width:1;stroke-linecap:butt;stroke-linejoin:miter;stroke-miterlimit:4;stroke-dasharray:none;stroke-opacity:1"
               d="m 29.375002,90.479004 v -15.333 M 16.036001,23.942001 H 301.03601" /><path
               id="path36"
               style="fill:#000000;fill-opacity:1;fill-rule:nonzero;stroke:none"
               d="m 300.01602,23.942001 -2.19,3.603001 0.12201,0.082 5.875,-2.334 c 2.04697,-0.450001 4.09399,-0.900999 6.14099,-1.351 -2.047,-0.45 -4.09402,-0.901001 -6.14099,-1.350999 l -5.875,-2.334 -0.12201,0.062 2.19,3.623001" /><path
               id="path38"
               style="fill:none;stroke:#000000;stroke-width:1;stroke-linecap:butt;stroke-linejoin:miter;stroke-miterlimit:4;stroke-dasharray:none;stroke-opacity:1"
               d="M 27.869001,33.109001 V 17.775002" /><path
               id="path40"
               style="fill:#808080;fill-opacity:1;fill-rule:nonzero;stroke:none"
               d="m 138,76.708 c 2.86401,0 5.18501,2.111 5.18501,4.714005 0,2.603996 -2.321,4.713997 -5.18501,4.713997 -2.864,0 -5.185,-2.110001 -5.185,-4.713997 C 132.815,78.819 135.136,76.708 138,76.708" /><path
               id="path42"
               style="fill:#808080;fill-opacity:1;fill-rule:nonzero;stroke:none"
               d="m 246,75.994003 c 2.86401,0 5.18501,2.111 5.18501,4.713997 0,2.604004 -2.321,4.714005 -5.18501,4.714005 -2.86398,0 -5.18498,-2.110001 -5.18498,-4.714005 0,-2.602997 2.321,-4.713997 5.18498,-4.713997" /><path
               id="path44"
               style="fill:#808080;fill-opacity:1;fill-rule:nonzero;stroke:none"
               d="m 189.813,14.204 c 5.27201,0 9.54502,4.274001 9.54502,9.546 0,5.272001 -4.27301,9.546001 -9.54502,9.546001 -5.27198,0 -9.54599,-4.274 -9.54599,-9.546001 0,-5.271999 4.27401,-9.546 9.54599,-9.546" /><path
               id="path46"
               style="fill:none;stroke:#000000;stroke-width:0.60000002;stroke-linecap:butt;stroke-linejoin:miter;stroke-miterlimit:4;stroke-dasharray:none;stroke-opacity:1"
               d="M 30.576002,7 H 182.576" /><path
               id="path48"
               style="fill:#000000;fill-opacity:1;fill-rule:nonzero;stroke:none"
               d="m 181.99501,7 -1.24901,2.0540009 0.07,0.046 3.349,-1.3300004 c 1.16701,-0.2569995 2.33301,-0.5129996 3.5,-0.77 -1.16699,-0.2569995 -2.33299,-0.5129995 -3.5,-0.77 l -3.349,-1.3299999 -0.07,0.035 L 181.99501,7" /><path
               id="path50"
               style="fill:#000000;fill-opacity:1;fill-rule:nonzero;stroke:none"
               d="m 34.049,7 1.249,-2.0539999 -0.07,-0.046 L 31.879002,6.23 c -1.167,0.2570005 -2.334,0.5130005 -3.501,0.77 1.167,0.2570004 2.334,0.5130005 3.501,0.77 l 3.348999,1.3300004 0.07,-0.035 L 34.049,7" /><path
               id="path52"
               style="fill:none;stroke:#000000;stroke-width:0.60000002;stroke-linecap:butt;stroke-linejoin:miter;stroke-miterlimit:4;stroke-dasharray:none;stroke-opacity:1"
               d="M 34.989998,70.975006 H 132.91101" /><path
               id="path54"
               style="fill:#000000;fill-opacity:1;fill-rule:nonzero;stroke:none"
               d="m 132.358,70.975006 -1.18599,1.950997 0.067,0.044 3.18099,-1.263 c 1.108,-0.243996 2.21701,-0.487999 3.32501,-0.731995 -1.108,-0.244003 -2.21701,-0.487999 -3.32501,-0.732002 l -3.18099,-1.263008 -0.067,0.033 1.18599,1.962006" /><path
               id="path56"
               style="fill:#000000;fill-opacity:1;fill-rule:nonzero;stroke:none"
               d="m 35.542,70.975006 1.186001,-1.951004 -0.066,-0.04401 -3.181,1.263008 C 32.372,70.487003 31.264,70.730999 30.154999,70.975002 31.264,71.218998 32.372,71.463001 33.481001,71.706997 l 3.181,1.263 0.066,-0.033 L 35.542,70.975006" /><path
               id="path58"
               style="fill:none;stroke:#000000;stroke-width:0.60000002;stroke-linecap:butt;stroke-linejoin:miter;stroke-miterlimit:4;stroke-dasharray:none;stroke-opacity:1"
               d="M 33.938,64.150002 H 240.56201" /><path
               id="path60"
               style="fill:#000000;fill-opacity:1;fill-rule:nonzero;stroke:none"
               d="m 239.98102,64.150002 -1.24901,2.054 0.07,0.046 3.349,-1.330002 c 1.16699,-0.256996 2.334,-0.512993 3.5,-0.769996 -1.166,-0.257 -2.33301,-0.512997 -3.5,-0.770005 l -3.349,-1.329998 -0.07,0.035 1.24901,2.064999" /><path
               id="path62"
               style="fill:#000000;fill-opacity:1;fill-rule:nonzero;stroke:none"
               d="m 34.519001,64.150002 1.249001,-2.053998 -0.07,-0.04601 -3.348999,1.329998 c -1.167002,0.257008 -2.334002,0.513005 -3.500002,0.770005 1.166,0.257003 2.333,0.513 3.500002,0.769996 l 3.348999,1.330002 0.07,-0.035 -1.249001,-2.065002" /><path
               id="path64"
               style="fill:#ffffff;fill-opacity:1;fill-rule:nonzero;stroke:#ffffff;stroke-width:0.60000002;stroke-linecap:butt;stroke-linejoin:miter;stroke-miterlimit:4;stroke-dasharray:none;stroke-opacity:1"
               d="M 85.5,3.5 H 110 V 11 H 85.5 Z" /><path
               id="path66"
               style="fill:#ffffff;fill-opacity:1;fill-rule:nonzero;stroke:#ffffff;stroke-width:0.60000002;stroke-linecap:butt;stroke-linejoin:miter;stroke-miterlimit:4;stroke-dasharray:none;stroke-opacity:1"
               d="m 70,66 h 24.5 v 7.5 H 70 Z" /><path
               id="path68"
               style="fill:#ffffff;fill-opacity:1;fill-rule:nonzero;stroke:#ffffff;stroke-width:0.60000002;stroke-linecap:butt;stroke-linejoin:miter;stroke-miterlimit:4;stroke-dasharray:none;stroke-opacity:1"
               d="m 129.25,59.25 h 24.5 v 7.5 h -24.5 z" /><text
               id="text72"
               style="font-variant:normal;font-weight:normal;font-size:11.95500088px;font-family:CMR12;-inkscape-font-specification:CMR12;writing-mode:lr-tb;fill:#231f20;fill-opacity:1;fill-rule:nonzero;stroke:none"
               transform="matrix(1,0,0,-1,1.3282,99.686295)"><tspan
                 id="tspan70"
                 y="0"
                 x="0 4.5548553 10.412806">(a)</tspan></text>
<text
               id="text76"
               style="font-variant:normal;font-weight:normal;font-size:11.95500088px;font-family:CMR12;-inkscape-font-specification:CMR12;writing-mode:lr-tb;fill:#231f20;fill-opacity:1;fill-rule:nonzero;stroke:none"
               transform="matrix(1,0,0,-1,0.68741196,37.686466)"><tspan
                 id="tspan74"
                 y="0"
                 x="0 4.5548553 11.058376">(b)</tspan></text>
<text
               id="text80"
               style="font-variant:normal;font-weight:normal;font-size:11.95500088px;font-family:CMMI12;-inkscape-font-specification:CMMI12;writing-mode:lr-tb;fill:#231f20;fill-opacity:1;fill-rule:nonzero;stroke:none"
               transform="matrix(1,0,0,-1,133.77765,88.785728)"><tspan
                 id="tspan78"
                 y="0"
                 x="0">m</tspan></text>
<text
               id="text84"
               style="font-variant:normal;font-weight:normal;font-size:11.95500088px;font-family:CMR12;-inkscape-font-specification:CMR12;writing-mode:lr-tb;fill:#231f20;fill-opacity:1;fill-rule:nonzero;stroke:none"
               transform="matrix(1,0,0,-1,78.919739,68.285294)"><tspan
                 id="tspan82"
                 y="0"
                 x="0">1</tspan></text>
<text
               id="text88"
               style="font-variant:normal;font-weight:normal;font-size:11.95500088px;font-family:CMR12;-inkscape-font-specification:CMR12;writing-mode:lr-tb;fill:#231f20;fill-opacity:1;fill-rule:nonzero;stroke:none"
               transform="matrix(1,0,0,-1,138.67442,60.285007)"><tspan
                 id="tspan86"
                 y="0"
                 x="0">2</tspan></text>
<text
               id="text92"
               style="font-variant:normal;font-weight:normal;font-size:11.95500088px;font-family:CMMI12;-inkscape-font-specification:CMMI12;writing-mode:lr-tb;fill:#231f20;fill-opacity:1;fill-rule:nonzero;stroke:none"
               transform="matrix(1,0,0,-1,15.429122,13.784839)"><tspan
                 id="tspan90"
                 y="0"
                 x="0">O</tspan></text>
<text
               id="text96"
               style="font-variant:normal;font-weight:normal;font-size:11.95500088px;font-family:CMR12;-inkscape-font-specification:CMR12;writing-mode:lr-tb;fill:#231f20;fill-opacity:1;fill-rule:nonzero;stroke:none"
               transform="matrix(1,0,0,-1,89.395905,3.4999514)"><tspan
                 id="tspan94"
                 y="0"
                 x="0">1</tspan></text>
<text
               id="text100"
               style="font-variant:normal;font-weight:normal;font-size:11.95500088px;font-family:CMMI12;-inkscape-font-specification:CMMI12;writing-mode:lr-tb;fill:#231f20;fill-opacity:1;fill-rule:nonzero;stroke:none"
               transform="matrix(1,0,0,-1,95.249069,3.4999514)"><tspan
                 id="tspan98"
                 y="0"
                 x="0">.</tspan></text>
<text
               id="text104"
               style="font-variant:normal;font-weight:normal;font-size:11.95500088px;font-family:CMR12;-inkscape-font-specification:CMR12;writing-mode:lr-tb;fill:#231f20;fill-opacity:1;fill-rule:nonzero;stroke:none"
               transform="matrix(1,0,0,-1,98.499634,3.4999514)"><tspan
                 id="tspan102"
                 y="0"
                 x="0">5</tspan></text>
<text
               id="text108"
               style="font-variant:normal;font-weight:normal;font-size:11.95500088px;font-family:CMMI12;-inkscape-font-specification:CMMI12;writing-mode:lr-tb;fill:#231f20;fill-opacity:1;fill-rule:nonzero;stroke:none"
               transform="matrix(1,0,0,-1,242.36253,87.285378)"><tspan
                 id="tspan106"
                 y="0"
                 x="0">m</tspan></text>
<text
               id="text112"
               style="font-variant:normal;font-weight:normal;font-size:11.95500088px;font-family:CMR12;-inkscape-font-specification:CMR12;writing-mode:lr-tb;fill:#231f20;fill-opacity:1;fill-rule:nonzero;stroke:none"
               transform="matrix(1,0,0,-1,183.00476,36.285339)"><tspan
                 id="tspan110"
                 y="0"
                 x="0">2</tspan></text>
<text
               id="text116"
               style="font-variant:normal;font-weight:normal;font-size:11.95500088px;font-family:CMMI12;-inkscape-font-specification:CMMI12;writing-mode:lr-tb;fill:#231f20;fill-opacity:1;fill-rule:nonzero;stroke:none"
               transform="matrix(1,0,0,-1,188.85793,36.285339)"><tspan
                 id="tspan114"
                 y="0"
                 x="0">m</tspan></text>
<text
               id="text120"
               style="font-variant:normal;font-weight:normal;font-size:11.95500088px;font-family:CMMI12;-inkscape-font-specification:CMMI12;writing-mode:lr-tb;fill:#231f20;fill-opacity:1;fill-rule:nonzero;stroke:none"
               transform="matrix(1,0,0,-1,17.433973,71.595627)"><tspan
                 id="tspan118"
                 y="0"
                 x="0">O</tspan></text>
</g></g></g></g></g></svg>