<?xml version="1.0" encoding="UTF-8" standalone="no"?>
<svg
   xmlns:dc="http://purl.org/dc/elements/1.1/"
   xmlns:cc="http://creativecommons.org/ns#"
   xmlns:rdf="http://www.w3.org/1999/02/22-rdf-syntax-ns#"
   xmlns:svg="http://www.w3.org/2000/svg"
   xmlns="http://www.w3.org/2000/svg"
   viewBox="0 0 564 84"
   height="84"
   width="564"
   xml:space="preserve"
   id="svg2"
   version="1.1"><metadata
     id="metadata8"><rdf:RDF><cc:Work
         rdf:about=""><dc:format>image/svg+xml</dc:format><dc:type
           rdf:resource="http://purl.org/dc/dcmitype/StillImage" /></cc:Work></rdf:RDF></metadata><defs
     id="defs6"><clipPath
       id="clipPath24"
       clipPathUnits="userSpaceOnUse"><path
         id="path22"
         d="M 0,0 H 423 V 63 H 0 Z" /></clipPath><clipPath
       id="clipPath34"
       clipPathUnits="userSpaceOnUse"><path
         id="path32"
         d="M 0.06,0 H 422.95801 V 62.466003 H 0.06 Z" /></clipPath></defs><g
     transform="matrix(1.3333333,0,0,-1.3333333,0,84)"
     id="g10"><g
       id="g12" /><g
       id="g14" /><g
       id="g16"><g
         id="g18"><g
           clip-path="url(#clipPath24)"
           id="g20"><g
             id="g26" /><g
             id="g28"><g
               clip-path="url(#clipPath34)"
               id="g30"><path
                 id="path36"
                 style="fill:none;stroke:#231f20;stroke-width:1;stroke-linecap:butt;stroke-linejoin:miter;stroke-miterlimit:4;stroke-dasharray:none;stroke-opacity:1"
                 d="M 0,39.487003 H 171.00201" /></g></g><g
             id="g38"><path
               id="path40"
               style="fill:#231f20;fill-opacity:1;fill-rule:nonzero;stroke:none"
               d="m 169.98201,39.487003 -2.19,3.602997 0.123,0.082 5.87498,-2.334 c 2.04702,-0.450001 4.09401,-0.899997 6.14103,-1.350998 -2.04702,-0.45 -4.09401,-0.900001 -6.14103,-1.351001 l -5.87498,-2.333001 -0.123,0.061 2.19,3.623001" /><path
               id="path42"
               style="fill:#918f90;fill-opacity:1;fill-rule:nonzero;stroke:none"
               d="m 140.606,32.853001 c 3.43601,0 6.222,2.532001 6.222,5.656997 0,3.124005 -2.78599,5.657006 -6.222,5.657006 -3.43699,0 -6.22299,-2.533001 -6.22299,-5.657006 0,-3.124996 2.786,-5.656997 6.22299,-5.656997" /><path
               id="path44"
               style="fill:none;stroke:#918f90;stroke-width:1;stroke-linecap:butt;stroke-linejoin:miter;stroke-miterlimit:4;stroke-dasharray:none;stroke-opacity:1"
               d="m 140.606,32.853001 c 3.43601,0 6.222,2.532001 6.222,5.656997 0,3.124005 -2.78599,5.657006 -6.222,5.657006 -3.43699,0 -6.22299,-2.533001 -6.22299,-5.657006 0,-3.124996 2.786,-5.656997 6.22299,-5.656997 z" /><path
               id="path46"
               style="fill:none;stroke:#231f20;stroke-width:0.60000002;stroke-linecap:butt;stroke-linejoin:miter;stroke-miterlimit:4;stroke-dasharray:none;stroke-opacity:1"
               d="M 13.867001,24.784 H 136.201" /><path
               id="path48"
               style="fill:#231f20;fill-opacity:1;fill-rule:nonzero;stroke:none"
               d="m 135.287,24.784 -1.057,1.739001 0.059,0.04 2.836,-1.126002 c 0.98801,-0.217998 1.97601,-0.434999 2.96301,-0.653 -0.987,-0.216999 -1.975,-0.434 -2.96301,-0.651998 l -2.836,-1.126001 -0.059,0.03 1.057,1.747999" /><path
               id="path50"
               style="fill:#231f20;fill-opacity:1;fill-rule:nonzero;stroke:none"
               d="m 14.209001,24.784 0.734,-1.206998 -0.041,-0.028 -1.968999,0.782999 c -0.686,0.151001 -1.372,0.301 -2.058,0.451999 0.686,0.151001 1.372,0.302 2.058,0.453001 l 1.968999,0.782998 0.041,-0.021 -0.734,-1.215001" /><path
               id="path52"
               style="fill:#231f20;fill-opacity:1;fill-rule:nonzero;stroke:none"
               d="m 14.781001,24.784 1.056999,-1.738998 -0.059,-0.039 -2.835999,1.126001 c -0.988,0.217998 -1.976,0.434999 -2.9630015,0.651998 0.9870015,0.218001 1.9750015,0.435002 2.9630015,0.653 l 2.835999,1.126002 0.059,-0.03 L 14.781001,24.784" /><path
               id="path54"
               style="fill:#231f20;fill-opacity:1;fill-rule:nonzero;stroke:none"
               d="M 9.6550007,38.652 V 31.952002 H 15.056001 L 9.6550007,38.652" /><path
               id="path56"
               style="fill:none;stroke:#231f20;stroke-width:1;stroke-linecap:butt;stroke-linejoin:miter;stroke-miterlimit:4;stroke-dasharray:none;stroke-opacity:1"
               d="M 9.6550007,38.652 V 31.952002 H 15.056001 Z" /><path
               id="path58"
               style="fill:#231f20;fill-opacity:1;fill-rule:nonzero;stroke:none"
               d="M 9.3880005,38.709999 V 32.009998 H 3.9880002 l 5.4000003,6.700001" /><path
               id="path60"
               style="fill:none;stroke:#231f20;stroke-width:1;stroke-linecap:butt;stroke-linejoin:miter;stroke-miterlimit:4;stroke-dasharray:none;stroke-opacity:1"
               d="M 9.3880005,38.709999 V 32.009998 H 3.9880002 Z" /><path
               id="path62"
               style="fill:#918f90;fill-opacity:1;fill-rule:nonzero;stroke:none"
               d="m 94.779999,36.094002 c 1.718002,0 3.111007,1.265999 3.111007,2.827999 0,1.562 -1.393005,2.829002 -3.111007,2.829002 -1.717995,0 -3.110993,-1.267002 -3.110993,-2.829002 0,-1.562 1.392998,-2.827999 3.110993,-2.827999" /><path
               id="path64"
               style="fill:none;stroke:#918f90;stroke-width:1;stroke-linecap:butt;stroke-linejoin:miter;stroke-miterlimit:4;stroke-dasharray:none;stroke-opacity:1"
               d="m 94.779999,36.094002 c 1.718002,0 3.111007,1.265999 3.111007,2.827999 0,1.562 -1.393005,2.829002 -3.111007,2.829002 -1.717995,0 -3.110993,-1.267002 -3.110993,-2.829002 0,-1.562 1.392998,-2.827999 3.110993,-2.827999 z" /><path
               id="path66"
               style="fill:none;stroke:#231f20;stroke-width:0.60000002;stroke-linecap:butt;stroke-linejoin:miter;stroke-miterlimit:4;stroke-dasharray:none;stroke-opacity:1"
               d="M 14.391001,55.801003 H 90.743004" /><path
               id="path68"
               style="fill:#231f20;fill-opacity:1;fill-rule:nonzero;stroke:none"
               d="m 15.277,55.801003 1.024001,-1.685002 -0.057,-0.038 -2.748001,1.091995 c -0.957999,0.209999 -1.916,0.421005 -2.873,0.631005 0.957,0.210998 1.915001,0.422 2.873,0.632999 l 2.748001,1.091 0.057,-0.028 L 15.277,55.801003" /><path
               id="path70"
               style="fill:#231f20;fill-opacity:1;fill-rule:nonzero;stroke:none"
               d="m 89.857002,55.801003 -1.025001,1.686 0.05701,0.038 2.749,-1.091 c 0.957993,-0.210999 1.915993,-0.422001 2.872994,-0.632999 -0.957001,-0.21 -1.915001,-0.421006 -2.872994,-0.632 l -2.749,-1.091 -0.05701,0.029 1.025001,1.694001" /><path
               id="path72"
               style="fill:none;stroke:#231f20;stroke-width:1;stroke-linecap:butt;stroke-linejoin:miter;stroke-miterlimit:4;stroke-dasharray:none;stroke-opacity:1"
               d="M 243.02701,40.138 H 414.02902" /><path
               id="path74"
               style="fill:#231f20;fill-opacity:1;fill-rule:nonzero;stroke:none"
               d="m 413.00903,40.138 -2.19,3.601998 0.12198,0.082 5.875,-2.333999 c 2.047,-0.450001 4.095,-0.900002 6.142,-1.350003 -2.047,-0.451 -4.095,-0.900997 -6.142,-1.351997 l -5.875,-2.333 -0.12198,0.061 2.19,3.624" /><path
               id="path76"
               style="fill:#231f20;fill-opacity:1;fill-rule:nonzero;stroke:none"
               d="m 252.30801,39.115002 v -6.700001 h 5.4 l -5.4,6.700001" /><path
               id="path78"
               style="fill:none;stroke:#231f20;stroke-width:1;stroke-linecap:butt;stroke-linejoin:miter;stroke-miterlimit:4;stroke-dasharray:none;stroke-opacity:1"
               d="m 252.30801,39.115002 v -6.700001 h 5.4 z" /><path
               id="path80"
               style="fill:#231f20;fill-opacity:1;fill-rule:nonzero;stroke:none"
               d="M 252.03999,39.172001 V 32.473003 H 246.64 l 5.39999,6.698998" /><path
               id="path82"
               style="fill:none;stroke:#231f20;stroke-width:1;stroke-linecap:butt;stroke-linejoin:miter;stroke-miterlimit:4;stroke-dasharray:none;stroke-opacity:1"
               d="M 252.03999,39.172001 V 32.473003 H 246.64 Z" /><path
               id="path84"
               style="fill:#918f90;fill-opacity:1;fill-rule:nonzero;stroke:none"
               d="m 345.59903,32.129002 c 5.15399,0 9.33298,3.798999 9.33298,8.485 0,4.685997 -4.17899,8.485001 -9.33298,8.485001 -5.155,0 -9.33402,-3.799004 -9.33402,-8.485001 0,-4.686001 4.17902,-8.485 9.33402,-8.485" /><path
               id="path86"
               style="fill:none;stroke:#918f90;stroke-width:1;stroke-linecap:butt;stroke-linejoin:miter;stroke-miterlimit:4;stroke-dasharray:none;stroke-opacity:1"
               d="m 345.59903,32.129002 c 5.15399,0 9.33298,3.798999 9.33298,8.485 0,4.685997 -4.17899,8.485001 -9.33298,8.485001 -5.155,0 -9.33402,-3.799004 -9.33402,-8.485001 0,-4.686001 4.17902,-8.485 9.33402,-8.485 z" /><path
               id="path88"
               style="fill:#ffffff;fill-opacity:1;fill-rule:nonzero;stroke:none"
               d="m 40.374001,58.104004 h 18.667 v -5 h -18.667 z" /><path
               id="path90"
               style="fill:none;stroke:#ffffff;stroke-width:0.60000002;stroke-linecap:butt;stroke-linejoin:miter;stroke-miterlimit:4;stroke-dasharray:none;stroke-opacity:1"
               d="M 40.374001,53.104004 H 59.041 v 5 H 40.374001 Z" /><path
               id="path92"
               style="fill:#ffffff;fill-opacity:1;fill-rule:nonzero;stroke:none"
               d="m 60.707005,27.834002 h 18.665997 v -5 H 60.707005 Z" /><path
               id="path94"
               style="fill:none;stroke:#ffffff;stroke-width:0.60000002;stroke-linecap:butt;stroke-linejoin:miter;stroke-miterlimit:4;stroke-dasharray:none;stroke-opacity:1"
               d="m 60.707005,22.834002 h 18.665996 v 5 H 60.707005 Z" /><path
               id="path96"
               style="fill:#231f20;fill-opacity:1;fill-rule:nonzero;stroke:none"
               d="m 257.50998,25.413002 h 80" /><path
               id="path98"
               style="fill:none;stroke:#231f20;stroke-width:1;stroke-linecap:butt;stroke-linejoin:miter;stroke-miterlimit:4;stroke-dasharray:none;stroke-opacity:1"
               d="m 257.50998,25.413002 h 80" /><path
               id="path100"
               style="fill:#231f20;fill-opacity:1;fill-rule:nonzero;stroke:none"
               d="m 338.42902,25.413002 -1.09501,1.800999 0.062,0.041 2.93698,-1.167 c 1.02301,-0.225 2.04699,-0.450001 3.07001,-0.674999 -1.02302,-0.225 -2.047,-0.451 -3.07001,-0.676001 L 337.39603,23.57 l -0.062,0.031 1.09501,1.812" /><path
               id="path102"
               style="fill:#231f20;fill-opacity:1;fill-rule:nonzero;stroke:none"
               d="m 256.59,25.413002 1.095,-1.802 -0.061,-0.041 -2.93701,1.167001 c -1.024,0.225001 -2.048,0.451001 -3.071,0.676001 1.023,0.224998 2.047,0.449999 3.071,0.674999 l 2.93701,1.167 0.061,-0.031 -1.095,-1.810999" /><path
               id="path104"
               style="fill:#ffffff;fill-opacity:1;fill-rule:nonzero;stroke:none"
               d="m 288.21802,26.454 h 13.33301 v -2.333 h -13.33301 z" /><path
               id="path106"
               style="fill:none;stroke:#ffffff;stroke-width:1;stroke-linecap:butt;stroke-linejoin:miter;stroke-miterlimit:4;stroke-dasharray:none;stroke-opacity:1"
               d="m 288.21802,24.121 h 13.33301 v 2.333 h -13.33301 z" /><text
               id="text110"
               style="font-variant:normal;font-weight:normal;font-size:11.95500088px;font-family:CMR12;-inkscape-font-specification:CMR12;writing-mode:lr-tb;fill:#231f20;fill-opacity:1;fill-rule:nonzero;stroke:none"
               transform="matrix(1,0,0,-1,45.686001,53.500099)"><tspan
                 id="tspan108"
                 y="0"
                 x="0">6</tspan></text>
<text
               id="text114"
               style="font-variant:normal;font-weight:normal;font-size:11.95500088px;font-family:CMMI12;-inkscape-font-specification:CMMI12;writing-mode:lr-tb;fill:#231f20;fill-opacity:1;fill-rule:nonzero;stroke:none"
               transform="matrix(1,0,0,-1,7.3654413,42.035252)"><tspan
                 id="tspan112"
                 y="0"
                 x="0">O</tspan></text>
<text
               id="text118"
               style="font-variant:normal;font-weight:normal;font-size:11.95500088px;font-family:CMR12;-inkscape-font-specification:CMR12;writing-mode:lr-tb;fill:#231f20;fill-opacity:1;fill-rule:nonzero;stroke:none"
               transform="matrix(1,0,0,-1,63.405701,21.035099)"><tspan
                 id="tspan116"
                 y="0"
                 x="0 5.8459954">10</tspan></text>
<text
               id="text122"
               style="font-variant:normal;font-weight:normal;font-size:11.95500088px;font-family:CMR12;-inkscape-font-specification:CMR12;writing-mode:lr-tb;fill:#231f20;fill-opacity:1;fill-rule:nonzero;stroke:none"
               transform="matrix(1,0,0,-1,148.32207,43.034691)"><tspan
                 id="tspan120"
                 y="0"
                 x="0">3</tspan></text>
<text
               id="text126"
               style="font-variant:normal;font-weight:normal;font-size:11.95500088px;font-family:CMMI12;-inkscape-font-specification:CMMI12;writing-mode:lr-tb;fill:#231f20;fill-opacity:1;fill-rule:nonzero;stroke:none"
               transform="matrix(1,0,0,-1,154.17523,43.034691)"><tspan
                 id="tspan124"
                 y="0"
                 x="0">m</tspan></text>
<text
               id="text130"
               style="font-variant:normal;font-weight:normal;font-size:11.95500088px;font-family:CMR12;-inkscape-font-specification:CMR12;writing-mode:lr-tb;fill:#231f20;fill-opacity:1;fill-rule:nonzero;stroke:none"
               transform="matrix(1,0,0,-1,358.97037,44.475269)"><tspan
                 id="tspan128"
                 y="0"
                 x="0">4</tspan></text>
<text
               id="text134"
               style="font-variant:normal;font-weight:normal;font-size:11.95500088px;font-family:CMMI12;-inkscape-font-specification:CMMI12;writing-mode:lr-tb;fill:#231f20;fill-opacity:1;fill-rule:nonzero;stroke:none"
               transform="matrix(1,0,0,-1,364.82233,44.475269)"><tspan
                 id="tspan132"
                 y="0"
                 x="0">m</tspan></text>
<text
               id="text138"
               style="font-variant:normal;font-weight:normal;font-size:11.95500088px;font-family:CMR12;-inkscape-font-specification:CMR12;writing-mode:lr-tb;fill:#231f20;fill-opacity:1;fill-rule:nonzero;stroke:none"
               transform="matrix(1,0,0,-1,291.56448,22.163651)"><tspan
                 id="tspan136"
                 y="0"
                 x="0">¯</tspan></text>
<text
               id="text142"
               style="font-variant:normal;font-weight:normal;font-size:11.95500088px;font-family:CMMI12;-inkscape-font-specification:CMMI12;writing-mode:lr-tb;fill:#231f20;fill-opacity:1;fill-rule:nonzero;stroke:none"
               transform="matrix(1,0,0,-1,290.83881,22.163651)"><tspan
                 id="tspan140"
                 y="0"
                 x="0">x</tspan></text>
<text
               id="text146"
               style="font-variant:normal;font-weight:normal;font-size:11.95500088px;font-family:CMMI12;-inkscape-font-specification:CMMI12;writing-mode:lr-tb;fill:#231f20;fill-opacity:1;fill-rule:nonzero;stroke:none"
               transform="matrix(1,0,0,-1,249.00587,44.321049)"><tspan
                 id="tspan144"
                 y="0"
                 x="0">O</tspan></text>
<text
               id="text150"
               style="font-variant:normal;font-weight:normal;font-size:11.95500088px;font-family:CMMI12;-inkscape-font-specification:CMMI12;writing-mode:lr-tb;fill:#231f20;fill-opacity:1;fill-rule:nonzero;stroke:none"
               transform="matrix(1,0,0,-1,102.56906,42.512257)"><tspan
                 id="tspan148"
                 y="0"
                 x="0">m</tspan></text>
<text
               id="text154"
               style="font-variant:normal;font-weight:normal;font-size:12px;font-family:Myriad;-inkscape-font-specification:Myriad-Roman;writing-mode:lr-tb;fill:#231f20;fill-opacity:1;fill-rule:nonzero;stroke:none"
               transform="matrix(1,0,0,-1,77.186005,3.0000999)"><tspan
                 id="tspan152"
                 y="0"
                 x="0 3.408 9.1920004">(a)</tspan></text>
<text
               id="text158"
               style="font-variant:normal;font-weight:normal;font-size:12px;font-family:Myriad;-inkscape-font-specification:Myriad-Roman;writing-mode:lr-tb;fill:#231f20;fill-opacity:1;fill-rule:nonzero;stroke:none"
               transform="matrix(1,0,0,-1,348.18561,3.5005)"><tspan
                 id="tspan156"
                 y="0"
                 x="0 3.408 10.236">(b)</tspan></text>
</g></g></g></g></g></svg>