<?xml version="1.0" encoding="UTF-8" standalone="no"?>
<svg
   xmlns:dc="http://purl.org/dc/elements/1.1/"
   xmlns:cc="http://creativecommons.org/ns#"
   xmlns:rdf="http://www.w3.org/1999/02/22-rdf-syntax-ns#"
   xmlns:svg="http://www.w3.org/2000/svg"
   xmlns="http://www.w3.org/2000/svg"
   viewBox="0 0 206.66667 125.33333"
   height="125.33333"
   width="206.66667"
   xml:space="preserve"
   id="svg2"
   version="1.1"><metadata
     id="metadata8"><rdf:RDF><cc:Work
         rdf:about=""><dc:format>image/svg+xml</dc:format><dc:type
           rdf:resource="http://purl.org/dc/dcmitype/StillImage" /></cc:Work></rdf:RDF></metadata><defs
     id="defs6"><clipPath
       id="clipPath24"
       clipPathUnits="userSpaceOnUse"><path
         id="path22"
         d="M 0,0 H 155 V 94 H 0 Z" /></clipPath></defs><g
     transform="matrix(1.3333333,0,0,-1.3333333,0,125.33333)"
     id="g10"><g
       id="g12" /><g
       id="g14" /><g
       id="g16"><g
         id="g18"><g
           clip-path="url(#clipPath24)"
           id="g20"><g
             id="g26" /><g
             id="g28"><path
               id="path30"
               style="fill:#000000;fill-opacity:1;fill-rule:nonzero;stroke:#000000;stroke-width:0.60000002;stroke-linecap:butt;stroke-linejoin:miter;stroke-miterlimit:4;stroke-dasharray:none;stroke-opacity:1"
               d="M 0.32900003,39.806004 H 143.53" /><path
               id="path32"
               style="fill:#000000;fill-opacity:1;fill-rule:nonzero;stroke:none"
               d="m 144.293,39.372002 -1.40199,2.305999 0.079,0.052 3.76,-1.492997 c 1.30999,-0.289001 2.61999,-0.577003 3.93,-0.865001 -1.31001,-0.287999 -2.62001,-0.577 -3.93,-0.865002 l -3.76,-1.493 -0.079,0.039 1.40199,2.319001" /><path
               id="path34"
               style="fill:#000000;fill-opacity:1;fill-rule:nonzero;stroke:#000000;stroke-width:0.47999999;stroke-linecap:butt;stroke-linejoin:miter;stroke-miterlimit:4;stroke-dasharray:none;stroke-opacity:1"
               d="M 24.555,20.219002 V 81.436005" /><path
               id="path36"
               style="fill:#000000;fill-opacity:1;fill-rule:nonzero;stroke:none"
               d="m 24.355001,81.984001 -2.305999,-1.402 -0.052,0.078 1.492998,3.760002 c 0.288002,1.311005 0.577001,2.621002 0.865001,3.931008 0.288001,-1.310006 0.576001,-2.620003 0.864998,-3.931008 l 1.493002,-3.760002 -0.039,-0.078 -2.319001,1.402" /><text
               id="text40"
               style="font-variant:normal;font-weight:normal;font-size:10.20160007px;font-family:CMMI10;-inkscape-font-specification:CMMI10;writing-mode:lr-tb;fill:#000000;fill-opacity:1;fill-rule:nonzero;stroke:none"
               transform="matrix(1,0,0,-1,149.1297,32.636497)"><tspan
                 id="tspan38"
                 y="0"
                 x="0">x</tspan></text>
<text
               id="text44"
               style="font-variant:normal;font-weight:normal;font-size:10.20160007px;font-family:CMMI10;-inkscape-font-specification:CMMI10;writing-mode:lr-tb;fill:#000000;fill-opacity:1;fill-rule:nonzero;stroke:none"
               transform="matrix(1,0,0,-1,16.029415,85.685837)"><tspan
                 id="tspan42"
                 y="0"
                 x="0">y</tspan></text>
<path
               id="path46"
               style="fill:none;stroke:#000000;stroke-width:1;stroke-linecap:butt;stroke-linejoin:miter;stroke-miterlimit:4;stroke-dasharray:none;stroke-opacity:1"
               d="m 99.93,41.036003 v -2.799 M 62.729004,41.437 v -2.800998" /><path
               id="path48"
               style="fill:none;stroke:#000000;stroke-width:0.64999998;stroke-linecap:butt;stroke-linejoin:round;stroke-miterlimit:10;stroke-dasharray:none;stroke-opacity:1"
               d="M 24.485001,39.807003 H 131.60701 m -40.141007,14.68 0.32,0.32 0.68,0.639999 0.340004,0.3 0.32,0.319999 0.339996,0.32 0.340004,0.300003 0.32,0.32 0.339996,0.319999 0.340004,0.3 0.339997,0.319999 0.319999,0.3 0.680001,0.639999 0.340004,0.300003 0.319999,0.299999 0.339997,0.32 0.340004,0.299999 0.339996,0.32 0.32,0.299999 0.340004,0.300003 0.339996,0.32 0.341003,0.299999 0.32,0.299999 0.339996,0.32 0.679997,0.600002 0.32,0.3 0.34001,0.299999 0.33999,0.32 0.34001,0.300003 0.32,0.299995 1.01999,0.900002 0.32,0.300003 1.02001,0.899994 0.32,0.300003 0.68,0.599998 0.32,0.300003 1.01999,0.900002 0.32,0.299995 0.34001,0.279999 0.68,0.600006 0.32,0.299995 0.33999,0.279999 0.68,0.600006 0.32,0.299996 0.34001,0.279998 0.68,0.600007 0.32,0.279998 0.68,0.599999 0.34,0.279999 0.31999,0.300003 0.34001,0.279998 0.34,0.299996 0.34,0.280006 0.32,0.299996 0.34,0.279998 0.34,0.300003 0.34,0.279999 0.32,0.300003 0.34,0.279999 0.34,0.300003 0.34,0.279999 0.32,0.299995 0.68,0.560006 0.32,0.299995 0.68,0.560005 0.34,0.299996 0.32,0.279998 0.34,0.279999 0.34,0.300003 0.33999,0.279999 0.32001,0.279999 0.34,0.280006 0.33999,0.299996 0.34001,0.279998 0.32,0.279999 0.34,0.280007 0.34,0.299995 0.33999,0.279999 0.32001,0.280006 0.34,0.279999 0.33999,0.279999 0.34001,0.279998 0.32,0.279999 0.33999,0.279999 m -66.300996,-64.74 0.68,0.84 0.32,0.42 0.34,0.420001 0.34,0.399999 0.32,0.42 0.68,0.8 0.34,0.42 0.32,0.399999 1.02,1.200001 0.32,0.380001 0.68,0.799999 0.34,0.379999 0.32,0.400002 0.68,0.76 0.339997,0.4 0.319999,0.379999 1.020005,1.140001 0.319999,0.379999 0.339997,0.38 0.340004,0.36 0.339996,0.380001 0.32,0.379999 0.340004,0.360001 0.339996,0.379999 0.340004,0.360001 0.32,0.380001 0.68,0.719997 0.32,0.380001 1.019996,1.080002 0.32,0.359997 1.020004,1.080002 0.32,0.36 0.339996,0.340001 0.680001,0.719997 0.319999,0.34 0.340004,0.360001 0.339997,0.36 0.340004,0.34 0.319999,0.340001 0.339997,0.36 0.68,0.680001 0.32,0.36 1.020004,1.020001 0.32,0.34 1.019996,1.019996 0.32,0.340001 1.020004,1.02 0.32,0.34 0.339996,0.34 0.340004,0.32 0.32,0.34 0.339996,0.34 0.340004,0.32 1,1 0.339997,0.32 1,1 0.340003,0.319999 0.339997,0.320004 0.660003,0.66 0.339997,0.319999 0.340004,0.32 0.319999,0.32 0.339997,0.32 0.340004,0.34 0.339996,0.319999 0.32,0.32 1.020004,0.959999 0.32,0.32 0.339996,0.300003 0.68,0.639999" /><path
               id="path50"
               style="fill:none;stroke:#000000;stroke-width:0.64999998;stroke-linecap:butt;stroke-linejoin:round;stroke-miterlimit:10;stroke-dasharray:none;stroke-opacity:1"
               d="m 45.586002,1.166 0.340001,0.5400001 0.319999,0.54 0.34,0.5399999 0.340001,0.5200002 0.34,0.54 0.319999,0.5 0.680001,1.04 0.319999,0.5 1.020001,1.5 0.32,0.4810004 0.34,0.4989996 0.68,0.96 0.32,0.481 0.34,0.4599998 0.34,0.480001 0.34,0.458999 0.32,0.46 1.02,1.38 0.32,0.460001 0.34,0.44 0.34,0.461 0.34,0.44 0.32,0.44 0.68,0.879999 0.340001,0.42 0.319999,0.44 0.34,0.440001 0.680001,0.84 0.319999,0.42 0.340001,0.42 m 33.159999,35.340002 0.32,0.32 0.68,0.639999 0.340004,0.3 0.32,0.319999 0.339996,0.32 0.340004,0.300003 0.32,0.32 0.339996,0.319999 0.340004,0.3 0.339997,0.319999 0.319999,0.3 0.680001,0.639999 0.340004,0.300003 0.319999,0.299999 0.339997,0.32 0.340004,0.299999 0.339996,0.32 0.32,0.299999 0.340004,0.300003 0.339996,0.32 0.341003,0.299999 0.32,0.299999 0.339996,0.32 0.679997,0.600002 0.32,0.3 0.34001,0.299999 0.33999,0.32 0.34001,0.300003 0.32,0.299995 1.01999,0.900002 0.32,0.300003 1.02001,0.899994 0.32,0.300003 0.68,0.599998 0.32,0.300003 1.01999,0.900002 0.32,0.299995 0.34001,0.279999 0.68,0.600006 0.32,0.299995 0.33999,0.279999 0.68,0.600006 0.32,0.299996 0.34001,0.279998 0.68,0.600007 0.32,0.279998 0.68,0.599999 0.34,0.279999 0.31999,0.300003 0.34001,0.279998 0.34,0.299996 0.34,0.280006 0.32,0.299996 0.34,0.279998 0.34,0.300003 0.34,0.279999 0.32,0.300003 0.34,0.279999 0.34,0.300003 0.34,0.279999 0.32,0.299995 0.68,0.560006 0.32,0.299995 0.68,0.560005 0.34,0.299996 0.32,0.279998 0.34,0.279999 0.34,0.300003 0.33999,0.279999 0.32001,0.279999 0.34,0.280006 0.33999,0.299996 0.34001,0.279998 0.32,0.279999 0.34,0.280007 0.34,0.299995 0.33999,0.279999 0.32001,0.280006 0.34,0.279999 0.33999,0.279999 0.34001,0.279998 0.32,0.279999 0.33999,0.279999 m -66.300996,-64.74 0.68,0.84 0.32,0.42 0.34,0.420001 0.34,0.399999 0.32,0.42 0.68,0.8 0.34,0.42 0.32,0.399999 1.02,1.200001 0.32,0.380001 0.68,0.799999 0.34,0.379999 0.32,0.400002 0.68,0.76 0.339997,0.4 0.319999,0.379999 1.020005,1.140001 0.319999,0.379999 0.339997,0.38 0.340004,0.36 0.339996,0.380001 0.32,0.379999 0.340004,0.360001 0.339996,0.379999 0.340004,0.360001 0.32,0.380001 0.68,0.719997 0.32,0.380001 1.019996,1.080002 0.32,0.359997 1.020004,1.080002 0.32,0.36 0.339996,0.340001 0.680001,0.719997 0.319999,0.34 0.340004,0.360001 0.339997,0.36 0.340004,0.34 0.319999,0.340001 0.339997,0.36 0.68,0.680001 0.32,0.36 1.020004,1.020001 0.32,0.34 1.019996,1.019996 0.32,0.340001 1.020004,1.02 0.32,0.34 0.339996,0.34 0.340004,0.32 0.32,0.34 0.339996,0.34 0.340004,0.32 1,1 0.339997,0.32 1,1 0.340003,0.319999 0.339997,0.320004 0.660003,0.66 0.339997,0.319999 0.340004,0.32 0.319999,0.32 0.339997,0.32 0.340004,0.34 0.339996,0.319999 0.32,0.32 1.020004,0.959999 0.32,0.32 0.339996,0.300003 0.68,0.639999" /><path
               id="path52"
               style="fill:none;stroke:#000000;stroke-width:0.64999998;stroke-linecap:butt;stroke-linejoin:round;stroke-miterlimit:10;stroke-dasharray:none;stroke-opacity:1"
               d="m 47.926003,4.8660002 0.34,0.52 0.319999,0.5 1.020001,1.5 0.32,0.4810004 0.34,0.4989996 0.68,0.96 0.32,0.481 0.34,0.4599998 0.34,0.480001 0.34,0.458999 0.32,0.46 1.02,1.38 0.32,0.460001 0.34,0.44 0.34,0.461 0.34,0.44 0.32,0.44 0.68,0.879999 0.340001,0.42 0.319999,0.44 0.34,0.440001 0.680001,0.84 0.319999,0.42 0.340001,0.42" /><text
               id="text56"
               style="font-variant:normal;font-weight:normal;font-size:10.20160007px;font-family:CMR10;-inkscape-font-specification:CMR10;writing-mode:lr-tb;fill:#000000;fill-opacity:1;fill-rule:nonzero;stroke:none"
               transform="matrix(1,0,0,-1,60.329399,30.2365)"><tspan
                 id="tspan54"
                 y="0"
                 x="0">1</tspan></text>
<text
               id="text60"
               style="font-variant:normal;font-weight:normal;font-size:10.20160007px;font-family:CMR10;-inkscape-font-specification:CMR10;writing-mode:lr-tb;fill:#000000;fill-opacity:1;fill-rule:nonzero;stroke:none"
               transform="matrix(1,0,0,-1,97.929436,29.436695)"><tspan
                 id="tspan58"
                 y="0"
                 x="0">2</tspan></text>
</g></g></g></g></g></svg>