<?xml version="1.0" encoding="UTF-8" standalone="no"?>
<svg
   xmlns:dc="http://purl.org/dc/elements/1.1/"
   xmlns:cc="http://creativecommons.org/ns#"
   xmlns:rdf="http://www.w3.org/1999/02/22-rdf-syntax-ns#"
   xmlns:svg="http://www.w3.org/2000/svg"
   xmlns="http://www.w3.org/2000/svg"
   viewBox="0 0 429.33334 313.33334"
   height="313.33334"
   width="429.33334"
   xml:space="preserve"
   id="svg2"
   version="1.1"><metadata
     id="metadata8"><rdf:RDF><cc:Work
         rdf:about=""><dc:format>image/svg+xml</dc:format><dc:type
           rdf:resource="http://purl.org/dc/dcmitype/StillImage" /></cc:Work></rdf:RDF></metadata><defs
     id="defs6"><clipPath
       id="clipPath24"
       clipPathUnits="userSpaceOnUse"><path
         id="path22"
         d="M 0,0 H 322 V 235 H 0 Z" /></clipPath></defs><g
     transform="matrix(1.3333333,0,0,-1.3333333,0,313.33333)"
     id="g10"><g
       id="g12" /><g
       id="g14" /><g
       id="g16"><g
         id="g18"><g
           clip-path="url(#clipPath24)"
           id="g20"><g
             id="g26" /><g
             id="g28"><path
               id="path30"
               style="fill:none;stroke:#000000;stroke-width:1;stroke-linecap:butt;stroke-linejoin:round;stroke-miterlimit:4;stroke-dasharray:none;stroke-opacity:1"
               d="m 248.00601,199.43102 1.14398,0.43299 0.44902,0.183 2.288,0.866 0.475,0.21001 0.572,0.21698 0.572,0.21602 0.57201,0.21699 0.47499,0.21001 1.144,0.433 0.54499,0.18899 0.57203,0.216 0.47598,0.211 0.57199,0.21601 0.59799,0.24398 0.57202,0.21701 0.47501,0.21 0.57199,0.21701 0.57199,0.21599 0.57202,0.216 0.47599,0.211 0.57202,0.216 1.14297,0.433 0.57202,0.21699 0.47599,0.21001 0.57202,0.217 0.57098,0.216 0.57199,0.21699 0.47602,0.21001 1.14401,0.433 0.57199,0.216 0.475,0.211 1.14399,0.433 0.57199,0.216 0.57202,0.21599 0.47501,0.21102 0.57199,0.21598 0.57199,0.21701 0.57199,0.21599 0.475,0.21102 0.572,0.21599 0.54501,0.18901 1.14401,0.43299 0.47598,0.21099 1.14301,0.432 0.54599,0.18902 0.47501,0.21099 1.14401,0.433 0.54599,0.18801 0.475,0.21099 0.57199,0.21599 0.54502,0.18999 0.57199,0.21602 0.54501,0.18899 0.47599,0.21001 0.57202,0.217 0.54498,0.18901 0.57199,0.21598 0.44901,0.18299 0.54501,0.18902 0.57199,0.21601 0.54599,0.18899 0.47501,0.211 1.091,0.37801 0.54501,0.18899 0.57199,0.21601 0.44901,0.18299 0.54498,0.18898 0.54602,0.18902 0.54499,0.18901 0.449,0.18299 0.54501,0.18799 0.54599,0.18901 0.54502,0.189 0.54498,0.18899 0.44901,0.18302 0.51901,0.16199 0.54498,0.18899 0.54599,0.188 0.44901,0.183 0.51901,0.16201 0.54498,0.18901 0.51901,0.16099 0.44901,0.183 0.51898,0.161 0.54501,0.18901 0.51902,0.16198 0.54498,0.18901 m -102.207,-35.65 0.43899,0.079 0.34301,0.072 0.466,0.10701 0.439,0.079 0.46501,0.10599 0.34298,0.073 0.46601,0.106 0.43899,0.079 0.46601,0.106 0.369,0.1 0.466,0.10701 0.439,0.079 0.46599,0.10602 0.46501,0.106 0.36999,0.101 0.49201,0.133 0.466,0.10701 0.466,0.10598 0.36899,0.10001 0.49199,0.134 0.46602,0.10698 0.492,0.13301 0.86199,0.235 0.492,0.13401 0.46601,0.106 0.49199,0.134 0.39601,0.12799 0.492,0.13401 0.49199,0.13301 0.49301,0.13398 0.39501,0.12801 0.49299,0.134 0.51799,0.161 0.49301,0.134 0.49199,0.134 0.42202,0.155 0.49299,0.134 0.49201,0.13399 0.51898,0.162 0.42201,0.155 0.492,0.13401 0.519,0.16101 0.519,0.16198 0.422,0.155 0.49301,0.13401 0.519,0.16101 1.037,0.32299 0.42299,0.155 0.518,0.16201 0.54599,0.18899 0.51901,0.161 0.422,0.156 0.51898,0.161 0.54502,0.18899 0.51899,0.16101 0.54502,0.189 0.42199,0.15601 0.54599,0.18898 0.51902,0.16101 0.545,0.18899 0.42199,0.15502 0.54601,0.18899 0.545,0.189 0.54597,0.18901 0.42203,0.155 0.545,0.18899 0.54599,0.189 0.54499,0.18901 0.54502,0.18899 0.44899,0.183 0.546,0.189 1.09,0.378 0.476,0.20999 0.545,0.18901 0.546,0.189 0.54498,0.18898 0.44902,0.18301 0.57199,0.21601 1.09002,0.378 0.57199,0.217 0.449,0.183 0.57201,0.216 0.54597,0.189 0.57102,0.216 0.44899,0.183 0.57202,0.21699 0.54599,0.18901 1.143,0.43299 0.44898,0.18301 0.57202,0.216 0.57201,0.21599 0.57199,0.21701 0.449,0.183 0.57201,0.21601" /><path
               id="path32"
               style="fill:none;stroke:#000000;stroke-width:1;stroke-linecap:butt;stroke-linejoin:round;stroke-miterlimit:4;stroke-dasharray:none;stroke-opacity:1"
               d="m 166.44801,185.19901 0.25299,-0.114 0.28,-0.087 0.28,-0.086 0.15701,-0.11999 0.28,-0.086 0.28,-0.086 0.28,-0.087 0.28,-0.086 0.18401,-0.093 0.27999,-0.086 0.56,-0.17301 0.209,-0.065 0.28,-0.086 0.28,-0.086 0.30699,-0.059 0.18301,-0.092 0.307,-0.059 0.306,-0.059 0.27999,-0.086 0.30701,-0.059 0.20999,-0.065 0.306,-0.059 0.30701,-0.059 0.30598,-0.059 0.21001,-0.064 0.30701,-0.059 0.306,-0.059 0.33301,-0.031 0.20999,-0.065 0.307,-0.059 0.333,-0.031 0.307,-0.059 0.333,-0.032 0.236,-0.037 0.30699,-0.059 0.33301,-0.031 0.33299,-0.031 0.23601,-0.038 0.333,-0.031 0.333,-0.031 0.33298,-0.032 0.33402,-0.031 0.263,-0.01 0.33299,-0.031 0.33301,-0.031 0.359,-0.004 0.237,-0.037 0.359,-0.004 0.36,-0.004 0.33299,-0.031 0.263,-0.01 0.36,-0.004 0.35901,-0.004 0.36,-0.003 0.359,-0.004 0.264,-0.01 0.386,0.024 0.359,-0.004 0.36,-0.004 0.28999,0.018 0.359,-0.004 0.38601,0.024 0.386,0.024 0.263,-0.01 0.387,0.024 0.386,0.024 0.386,0.023 0.38599,0.024 0.28999,0.018 0.38602,0.023 0.386,0.024 0.41299,0.051 0.289,0.018 0.41301,0.052 0.38601,0.023 0.41299,0.052 0.386,0.023 0.316,0.045 0.41301,0.052 0.41198,0.051 0.41301,0.051 0.316,0.046 0.41301,0.051 0.41198,0.051 0.413,0.052 0.31601,0.045 0.43899,0.079 0.41301,0.051 0.439,0.079 0.41299,0.051 0.343,0.073 0.41201,0.051 0.44,0.079 0.439,0.079 0.34201,0.072 0.43998,0.079 0.43901,0.079 0.439,0.079 m -52.418,15.994 0.2,-0.16901 0.10399,-0.17499 0.80201,-0.67601 0.10399,-0.17498 0.20001,-0.16901 0.2,-0.16901 0.201,-0.16899 0.10399,-0.175 0.2,-0.16901 0.20001,-0.168 0.20099,-0.16899 0.10301,-0.175 0.401,-0.338 0.40099,-0.338 0.104,-0.175 0.40001,-0.338 0.20099,-0.169 0.10401,-0.17502 0.4,-0.33798 0.20099,-0.16899 0.2,-0.16901 0.104,-0.175 0.2,-0.16901 0.20101,-0.16899 0.19999,-0.168 0.13001,-0.14799 0.60099,-0.50701 0.10401,-0.175 0.227,-0.14101 0.2,-0.16899 0.201,-0.16901 0.2,-0.16899 0.12999,-0.147 0.20101,-0.16901 0.19999,-0.169 0.22701,-0.14199 0.104,-0.175 0.2,-0.169 0.227,-0.141 0.20099,-0.169 0.22602,-0.142 0.10398,-0.174 0.22701,-0.14199 0.227,-0.14101 0.2,-0.16901 0.13098,-0.14799 0.2,-0.16899 0.22702,-0.14101 0.227,-0.142 0.12999,-0.147 0.20101,-0.16901 0.226,-0.14099 0.227,-0.142 0.22699,-0.141 0.13101,-0.148 0.226,-0.14101 0.22699,-0.14099 0.22701,-0.142 0.13099,-0.147 0.22701,-0.142 0.22598,-0.141 0.25401,-0.11402 0.13001,-0.14698 0.227,-0.142 0.22699,-0.14101 0.254,-0.114 0.22701,-0.142 0.156,-0.11999 0.22699,-0.14101 0.25401,-0.114 0.22699,-0.14099 0.15601,-0.12001 0.254,-0.114 0.22699,-0.14099 0.253,-0.114 0.254,-0.11399 0.15701,-0.12001 0.50599,-0.228 0.25401,-0.114 0.157,-0.11999 0.253,-0.11402 0.254,-0.114 0.25299,-0.11299 0.18301,-0.093 0.254,-0.114 0.25299,-0.11301 0.28,-0.087 0.25401,-0.11399 0.183,-0.092" /><path
               id="path34"
               style="fill:none;stroke:#000000;stroke-width:1;stroke-linecap:square;stroke-linejoin:round;stroke-miterlimit:4;stroke-dasharray:none;stroke-opacity:1"
               d="m 125.51201,213.009 0.184,-0.093 0.306,-0.058 0.307,-0.059 0.27999,-0.087 0.21,-0.064 0.28,-0.087 0.28001,-0.086 0.306,-0.059 0.184,-0.092 0.28,-0.087 0.28,-0.086 0.28,-0.087 0.28,-0.086 0.183,-0.092 0.28,-0.087 0.28,-0.086 0.27999,-0.086 0.157,-0.12001 0.28,-0.086 0.28,-0.087 0.25301,-0.11401 0.184,-0.092 0.25299,-0.114 0.28,-0.087 0.254,-0.11301 0.253,-0.11401 0.157,-0.12 0.28,-0.086 0.25301,-0.11401 0.25398,-0.11398 0.15701,-0.12 0.25299,-0.114 0.50702,-0.22799 0.25299,-0.11402 0.131,-0.14699 0.25301,-0.11399 0.25399,-0.11402 0.22701,-0.14099 0.15599,-0.11999 0.25401,-0.11402 0.22699,-0.142 0.25301,-0.11299 0.13099,-0.14801 0.226,-0.14099 0.254,-0.114 0.454,-0.283 0.13,-0.148 0.25301,-0.114 0.22699,-0.141 0.227,-0.14099 0.13101,-0.14801 0.22699,-0.14099 0.226,-0.14101 0.45401,-0.284 0.131,-0.147 0.19999,-0.16901 0.22701,-0.14099 0.22699,-0.142 0.13,-0.147 0.22701,-0.14101 0.2,-0.16899 0.227,-0.142 0.10399,-0.175 0.227,-0.141 0.22701,-0.142 0.2,-0.16899 0.227,-0.14101 0.10399,-0.175 0.22699,-0.141 0.20001,-0.16999 0.2,-0.16802 0.13101,-0.14799 0.2,-0.16899 0.227,-0.14101 0.2,-0.16901 0.104,-0.17498 0.20099,-0.16903 0.22699,-0.14198 0.20001,-0.16801 0.2,-0.16899 0.10401,-0.17501 0.19999,-0.16899 0.22701,-0.142 0.201,-0.169 0.103,-0.17501 0.201,-0.16899 0.2,-0.168 0.201,-0.17 0.2,-0.16799 0.104,-0.17501 0.2,-0.169 0.401,-0.338 0.10399,-0.175 0.40001,-0.338 m -57.699006,10.516 0.491997,0.13401 0.466004,0.10599 0.369003,0.1 0.465988,0.107 0.492012,0.134 0.465996,0.106 0.369003,0.10001 0.465996,0.10699 0.466003,0.106 0.438996,0.079 0.466003,0.106 0.368996,0.101 0.466003,0.106 0.439003,0.079 0.465996,0.106 0.342003,0.073 0.465996,0.106 0.439003,0.079 0.440002,0.079 0.438988,0.079 0.34301,0.072 0.439003,0.079 0.438995,0.079 0.438995,0.079 0.34301,0.072 0.438992,0.079 0.43901,0.079 0.41299,0.051 0.343,0.073 0.41201,0.052 0.44,0.078 0.41199,0.051 0.439,0.079 0.31701,0.046 0.41199,0.051 0.413,0.051 0.41201,0.051 0.317,0.046 0.41199,0.051 0.41301,0.051 0.386,0.024 0.41299,0.051 0.316,0.046 0.38601,0.023 0.41299,0.052 0.38601,0.023 0.28999,0.018 0.412,0.051 0.38601,0.024 0.38599,0.024 0.29,0.018 0.386,0.023 0.77201,0.048 0.36,-0.004 0.29,0.018 0.386,0.024 0.35899,-0.004 0.387,0.023 0.263,-0.009 0.38601,0.024 0.359,-0.004 0.36,-0.004 0.263,-0.01 0.36,-0.004 0.35898,-0.003 0.36,-0.004 0.35901,-0.004 0.264,-0.01 0.333,-0.031 0.359,-0.004 0.36001,-0.004 0.236,-0.037 0.36,-0.004 0.333,-0.031 0.333,-0.031 0.33299,-0.032 0.26301,-0.009 0.333,-0.032 0.333,-0.031 0.333,-0.031 0.237,-0.038 0.306,-0.058 0.333,-0.032 0.333,-0.031 0.237,-0.037 0.307,-0.059 0.333,-0.031 0.306,-0.059 0.307,-0.059 0.236,-0.038 0.30699,-0.058 0.306,-0.059 0.307,-0.059 0.21,-0.065 0.306,-0.059 0.61301,-0.117 0.307,-0.059" /><path
               id="path36"
               style="fill:#000000;fill-opacity:1;fill-rule:nonzero;stroke:none"
               d="M 20.481001,168.30701 H 304.884" /><path
               id="path38"
               style="fill:#000000;fill-opacity:1;fill-rule:nonzero;stroke:none"
               d="m 304.272,168.30701 -1.31399,2.16099 0.074,0.049 3.525,-1.40001 c 1.22799,-0.26998 2.45599,-0.53999 3.68402,-0.80999 -1.22803,-0.271 -2.45603,-0.541 -3.68402,-0.81101 l -3.525,-1.39999 -0.074,0.037 1.31399,2.174" /><path
               id="path40"
               style="fill:#000000;fill-opacity:1;fill-rule:nonzero;stroke:none"
               d="m 88.157005,228.283 -2.161003,-1.31399 -0.05,0.073 1.401001,3.52501 c 0.269996,1.22799 0.539993,2.45599 0.809997,3.68499 0.269997,-1.229 0.541001,-2.457 0.810997,-3.68499 l 1.400002,-3.52501 -0.037,-0.073 -2.173996,1.31399" /><path
               id="path42"
               style="fill:#000000;fill-opacity:1;fill-rule:nonzero;stroke:none"
               d="M 88.157005,228.283 V 168.64301" /><path
               id="path44"
               style="fill:none;stroke:#000000;stroke-width:1;stroke-linecap:butt;stroke-linejoin:round;stroke-miterlimit:4;stroke-dasharray:none;stroke-opacity:1"
               d="m 249.03702,119.21301 0.571,0.21699 0.57197,0.216 0.44902,0.183 0.57201,0.21701 0.57199,0.216 0.57201,0.21599 0.57199,0.21701 0.475,0.21 1.71601,0.65 0.47499,0.21 0.57199,0.21699 0.57202,0.21601 0.54599,0.189 0.57199,0.21599 0.47501,0.211 0.57199,0.216 0.59799,0.244 0.57202,0.217 0.47601,0.21 0.57197,0.21701 0.57202,0.21599 0.57101,0.21701 0.47598,0.20999 0.57203,0.21701 0.57199,0.21599 1.14398,0.43301 0.475,0.21 0.57203,0.21699 1.14398,0.433 0.475,0.21001 0.57199,0.21699 0.57203,0.216 0.57199,0.216 0.475,0.211 0.57199,0.21601 0.572,0.21699 0.57199,0.21601 0.57202,0.217 0.475,0.20999 0.57199,0.216 0.572,0.21701 0.57202,0.21599 0.47497,0.211 0.57199,0.216 0.54602,0.18901 0.572,0.217 0.57199,0.216 0.475,0.211 0.57202,0.21599 0.57199,0.216 0.54502,0.18901 0.47595,0.211 1.14304,0.433 0.54599,0.189 0.475,0.21 0.57199,0.217 0.54602,0.188 0.57099,0.217 0.54602,0.18899 0.47497,0.21001 0.57203,0.21699 0.54498,0.18901 0.573,0.21599 0.44799,0.183 0.54602,0.18901 0.57197,0.21599 0.54501,0.18901 0.475,0.211 0.54603,0.18899 0.54498,0.189 0.54602,0.18901 0.57098,0.21599 0.44901,0.18301 0.54599,0.189 1.08999,0.37799 0.44901,0.18301 0.54599,0.189 0.54501,0.18899 0.54502,0.18801 0.54599,0.18899 0.449,0.183 0.51898,0.162 0.54502,0.18901 0.54498,0.18799 0.449,0.183 0.51899,0.162 0.54501,0.18901 0.51901,0.161 0.44901,0.183 0.51898,0.16099 0.54501,0.18901 0.51902,0.16199 0.54599,0.18901 M 200.26401,103.759 l 0.43899,0.079 0.34301,0.073 0.466,0.10601 0.43899,0.079 0.46601,0.10599 0.34199,0.073 0.46601,0.106 0.43901,0.079 0.46597,0.106 0.36902,0.10101 0.466,0.10599 0.439,0.079 0.46599,0.106 0.46601,0.10599 0.36901,0.10101 0.49199,0.13399 0.466,0.10601 0.466,0.10599 0.86098,0.234 0.46602,0.10701 0.862,0.234 0.49199,0.13399 0.49202,0.134 0.46599,0.106 0.49198,0.134 0.39602,0.12801 0.492,0.13399 0.985,0.26701 0.396,0.128 0.492,0.13399 0.51898,0.16101 0.49202,0.13399 0.49201,0.134 0.42299,0.156 0.492,0.133 0.49201,0.13401 0.51898,0.16199 0.42201,0.15501 0.493,0.13399 1.037,0.323 0.423,0.15501 0.49201,0.13399 0.51899,0.16101 0.519,0.162 0.519,0.16099 0.422,0.15599 0.51901,0.16102 0.54498,0.18899 0.51901,0.161 0.422,0.156 0.51898,0.16101 0.54502,0.189 0.51901,0.16099 0.54597,0.18901 0.42202,0.156 0.54501,0.189 0.519,0.16099 0.54499,0.18901 0.42301,0.155 0.545,0.189 0.54499,0.18899 0.54598,0.18901 0.42203,0.15599 0.54599,0.18801 1.09001,0.378 0.54599,0.18899 0.449,0.18301 1.636,0.56699 0.475,0.21001 0.54499,0.18899 0.54601,0.18901 0.54498,0.18899 0.44902,0.18301 0.57201,0.21599 0.545,0.189 0.54599,0.189 0.572,0.21701 0.44901,0.18299 0.571,0.21601 0.54597,0.18899 0.57202,0.21701 0.44901,0.182 0.571,0.21699 0.54599,0.189 0.57199,0.21601 0.57201,0.21699 0.44799,0.18301 0.57201,0.21599 0.57201,0.21601 0.57199,0.21699 0.449,0.18301 0.57201,0.216" /><path
               id="path46"
               style="fill:none;stroke:#000000;stroke-width:1;stroke-linecap:butt;stroke-linejoin:round;stroke-miterlimit:4;stroke-dasharray:none;stroke-opacity:1"
               d="m 167.47801,104.981 0.254,-0.114 0.56,-0.17299 0.157,-0.12 0.279,-0.086 0.28,-0.086 0.28,-0.087 0.28,-0.086 0.184,-0.093 0.28,-0.086 0.28,-0.086 0.28,-0.087 0.20999,-0.064 0.56001,-0.173 0.306,-0.059 0.184,-0.092 0.30599,-0.059 0.30701,-0.059 0.28,-0.086 0.306,-0.059 0.20999,-0.065 0.30701,-0.059 0.306,-0.059 0.30701,-0.059 0.20999,-0.064 0.306,-0.059 0.307,-0.059 0.333,-0.031 0.21,-0.065 0.306,-0.059 0.33299,-0.031 0.30701,-0.059 0.33299,-0.031 0.237,-0.038 0.306,-0.059 0.33301,-0.031 0.33299,-0.031 0.237,-0.038 0.33301,-0.031 0.666,-0.063 0.33299,-0.031 0.263,-0.01 0.333,-0.031 0.333,-0.031 0.36001,-0.004 0.236,-0.037 0.36,-0.004 0.359,-0.004 0.33301,-0.031 0.263,-0.01 0.36,-0.004 0.35998,-0.004 0.35901,-0.003 0.36,-0.004 0.263,-0.01 0.386,0.024 0.36,-0.004 0.359,-0.004 0.29001,0.018 0.36,-0.004 0.38598,0.024 0.386,0.024 0.263,-0.01 0.38601,0.024 0.386,0.024 0.386,0.023 0.38599,0.024 0.28999,0.018 0.38602,0.024 0.386,0.023 0.41299,0.052 0.29001,0.017 0.412,0.052 0.386,0.023 0.413,0.052 0.386,0.023 0.31599,0.046 0.41301,0.051 0.413,0.051 0.412,0.051 0.316,0.046 0.41301,0.051 0.41299,0.051 0.41299,0.052 0.31601,0.045 0.439,0.079 0.412,0.051 0.44,0.079 0.41199,0.051 0.343,0.073 0.41301,0.051 0.87799,0.15799 0.34301,0.072 0.43901,0.079 0.43899,0.079 0.439,0.079 m -52.41701,15.99401 0.20001,-0.169 0.10399,-0.17501 0.80101,-0.67599 0.10399,-0.175 0.20001,-0.169 0.20099,-0.16902 0.20001,-0.16799 0.10399,-0.17499 0.40001,-0.338 0.201,-0.16901 0.10399,-0.17499 0.40001,-0.33801 0.20099,-0.169 0.20001,-0.169 0.10399,-0.175 0.401,-0.338 0.2,-0.16899 0.104,-0.17501 0.2,-0.169 0.20101,-0.16899 0.19999,-0.169 0.20001,-0.169 0.10399,-0.17501 0.601,-0.50599 0.13101,-0.148 0.2,-0.169 0.401,-0.33802 0.103,-0.17498 0.227,-0.141 0.20099,-0.169 0.40001,-0.33801 0.131,-0.147 0.19999,-0.169 0.2,-0.169 0.22701,-0.142 0.104,-0.175 0.201,-0.169 0.226,-0.141 0.20099,-0.16899 0.22701,-0.141 0.10299,-0.17501 0.22701,-0.14199 0.227,-0.141 0.20099,-0.169 0.12999,-0.14801 0.20001,-0.16899 0.22701,-0.14101 0.227,-0.14099 0.131,-0.148 0.2,-0.169 0.227,-0.141 0.22699,-0.14201 0.22701,-0.141 0.13,-0.14699 0.454,-0.28301 0.227,-0.142 0.12999,-0.147 0.22701,-0.142 0.227,-0.141 0.25299,-0.11399 0.13101,-0.14701 0.45299,-0.28299 0.25401,-0.114 0.22699,-0.14201 0.15601,-0.11899 0.227,-0.142 0.254,-0.11401 0.22699,-0.141 0.157,-0.12 0.25301,-0.114 0.22699,-0.141 0.253,-0.114 0.25401,-0.11399 0.157,-0.12001 0.25299,-0.114 0.254,-0.11399 0.25301,-0.114 0.15699,-0.12 0.50701,-0.227 0.253,-0.11401 0.18399,-0.093 0.25301,-0.114 0.254,-0.11301 0.28,-0.087 0.253,-0.11399 0.18399,-0.092" /><path
               id="path48"
               style="fill:none;stroke:#000000;stroke-width:1;stroke-linecap:square;stroke-linejoin:round;stroke-miterlimit:4;stroke-dasharray:none;stroke-opacity:1"
               d="m 126.54301,132.791 0.183,-0.092 0.30699,-0.059 0.306,-0.059 0.28,-0.087 0.21,-0.064 0.28001,-0.087 0.28,-0.086 0.30699,-0.059 0.18301,-0.092 0.28,-0.087 0.28,-0.086 0.28,-0.086 0.28,-0.087 0.183,-0.092 0.28,-0.087 0.27999,-0.086 0.28,-0.086 0.157,-0.12001 0.28,-0.087 0.28001,-0.086 0.254,-0.11401 0.183,-0.092 0.25299,-0.11399 0.28,-0.086 0.25401,-0.11398 0.25299,-0.114 0.157,-0.12001 0.28,-0.086 0.25401,-0.114 0.25299,-0.114 0.157,-0.11999 0.25299,-0.114 0.25402,-0.11401 0.253,-0.114 0.254,-0.114 0.13,-0.14699 0.254,-0.11401 0.25299,-0.114 0.22701,-0.14099 0.157,-0.12001 0.253,-0.114 0.22699,-0.142 0.25301,-0.11299 0.13099,-0.14801 0.22701,-0.14099 0.25299,-0.114 0.227,-0.14201 0.22699,-0.14099 0.13001,-0.14701 0.25401,-0.114 0.22699,-0.14199 0.22701,-0.141 0.13,-0.14801 0.22699,-0.14099 0.45401,-0.283 0.22699,-0.14201 0.13001,-0.14699 0.19999,-0.169 0.454,-0.28301 0.13,-0.14699 0.22701,-0.142 0.201,-0.16801 0.22699,-0.142 0.10301,-0.17501 0.454,-0.28299 0.201,-0.16899 0.226,-0.141 0.104,-0.17501 0.22699,-0.141 0.2,-0.16899 0.201,-0.169 0.13001,-0.14801 0.201,-0.16899 0.226,-0.141 0.20099,-0.169 0.104,-0.175 0.2,-0.169 0.22701,-0.141 0.19999,-0.169 0.20101,-0.16901 0.10299,-0.17499 0.20101,-0.169 0.227,-0.14201 0.2,-0.169 0.104,-0.17499 0.40099,-0.33801 0.40001,-0.33699 0.104,-0.17501 0.601,-0.50699 0.104,-0.17501 0.40099,-0.33799 m -57.699997,10.516 0.492996,0.13399 0.466004,0.106 0.369003,0.101 0.464989,0.106 0.493011,0.13399 0.464997,0.10602 0.370002,0.1 0.464997,0.10701 0.466003,0.106 0.439003,0.079 0.465996,0.106 0.369003,0.101 0.465996,0.106 0.439003,0.079 0.465996,0.10602 0.343002,0.073 0.465004,0.106 0.439995,0.079 0.439003,0.079 0.438995,0.078 0.343003,0.073 0.439003,0.079 0.438993,0.079 0.44,0.079 0.34201,0.073 0.43899,0.078 0.44001,0.079 0.412,0.051 0.34299,0.073 0.413,0.052 0.43901,0.078 0.41299,0.052 0.439,0.078 0.31601,0.046 0.41299,0.051 0.412,0.051 0.41301,0.051 0.316,0.046 0.41299,0.051 0.412,0.051 0.38601,0.024 0.413,0.051 0.31599,0.046 0.386,0.023 0.413,0.052 0.38601,0.023 0.29,0.018 0.41299,0.051 0.386,0.024 0.38601,0.024 0.28899,0.018 0.38701,0.023 0.38599,0.024 0.386,0.024 0.36,-0.004 0.28901,0.018 0.386,0.024 0.36,-0.004 0.38598,0.024 0.26301,-0.01 0.386,0.024 0.36,-0.004 0.35901,-0.004 0.263,-0.01 0.36,-0.004 0.35899,-0.003 0.35999,-0.004 0.36,-0.004 0.26301,-0.01 0.333,-0.031 0.359,-0.004 0.36,-0.004 0.237,-0.037 0.359,-0.004 0.33301,-0.031 0.333,-0.031 0.33299,-0.032 0.26301,-0.009 0.333,-0.032 0.33399,-0.031 0.33301,-0.031 0.236,-0.037 0.307,-0.059 0.333,-0.032 0.333,-0.031 0.236,-0.037 0.30699,-0.059 0.33301,-0.031 0.30599,-0.059 0.307,-0.059 0.236,-0.037 0.307,-0.059 0.306,-0.059 0.307,-0.059 0.21001,-0.065 0.306,-0.059 0.30699,-0.058 0.30701,-0.059 0.306,-0.059" /><path
               id="path50"
               style="fill:#000000;fill-opacity:1;fill-rule:nonzero;stroke:none"
               d="M 21.512001,88.089005 H 305.914" /><path
               id="path52"
               style="fill:#000000;fill-opacity:1;fill-rule:nonzero;stroke:none"
               d="m 305.302,88.089005 -1.31399,2.160995 0.074,0.049 3.525,-1.400002 c 1.22799,-0.269997 2.45602,-0.540001 3.68499,-0.809997 -1.22897,-0.271004 -2.457,-0.541001 -3.68499,-0.810997 l -3.525,-1.400002 -0.074,0.037 1.31399,2.174004" /><path
               id="path54"
               style="fill:#000000;fill-opacity:1;fill-rule:nonzero;stroke:none"
               d="m 89.188004,148.065 -2.162003,-1.31399 -0.049,0.073 1.400002,3.525 c 0.269996,1.228 0.54,2.45699 0.810997,3.685 0.270004,-1.22801 0.54,-2.457 0.809997,-3.685 l 1.400002,-3.525 -0.036,-0.073 -2.174003,1.31399" /><path
               id="path56"
               style="fill:none;stroke:#000000;stroke-width:0.12;stroke-linecap:butt;stroke-linejoin:miter;stroke-miterlimit:4;stroke-dasharray:1.8000001;stroke-dashoffset:0;stroke-opacity:1"
               d="M 147.748,119.62801 V 87.279007" /><path
               id="path58"
               style="fill:#000000;fill-opacity:1;fill-rule:nonzero;stroke:none"
               d="M 89.188004,148.065 V 88.425003" /><path
               id="path60"
               style="fill:none;stroke:#000000;stroke-width:1;stroke-linecap:butt;stroke-linejoin:round;stroke-miterlimit:4;stroke-dasharray:none;stroke-opacity:1"
               d="m 249.53702,44.213001 0.571,0.216999 0.57197,0.216004 0.44902,0.182998 0.57201,0.216999 1.71599,0.649003 0.475,0.209999 0.57199,0.216999 0.57201,0.215999 0.57201,0.216999 0.47499,0.210003 0.57199,0.216999 0.57202,0.216 0.54599,0.188999 0.57199,0.216 0.47501,0.211002 0.57199,0.215996 0.59799,0.244003 0.57202,0.216999 0.47601,0.210003 0.57197,0.216999 0.57101,0.216 0.57202,0.216999 0.47598,0.209999 0.57203,0.216003 0.57199,0.216999 0.57199,0.215996 0.57199,0.217003 0.475,0.209999 0.57203,0.217003 1.14398,0.432999 0.475,0.209999 0.57199,0.215999 0.57203,0.216999 0.57199,0.216004 0.475,0.210998 0.57199,0.216 0.572,0.216995 0.57199,0.216007 0.57202,0.216999 0.475,0.209999 0.57199,0.216 0.572,0.216999 0.57202,0.216 0.47497,0.211002 0.57199,0.216 0.54602,0.188999 0.572,0.216999 0.57199,0.216003 0.475,0.210999 0.57202,0.215999 0.57199,0.216 0.54502,0.188999 0.47595,0.211003 0.57202,0.215995 0.57102,0.217003 0.54599,0.188999 0.475,0.210003 0.57199,0.216999 0.54602,0.189 0.57099,0.215999 0.54602,0.188999 0.47497,0.210003 0.57203,0.216999 0.54498,0.188999 0.573,0.216 0.44799,0.183003 0.54602,0.188999 0.57197,0.215999 0.54501,0.189 0.475,0.210998 0.54603,0.189003 0.54498,0.188999 0.54602,0.188999 0.57098,0.215996 0.44901,0.183006 1.091,0.377999 0.54498,0.188995 0.44901,0.183006 0.54599,0.189 0.54501,0.188999 0.54502,0.188 0.54599,0.188999 0.449,0.183002 0.51898,0.161999 0.54502,0.188999 0.54498,0.187996 0.449,0.183006 0.51899,0.161999 0.54501,0.188999 0.51901,0.161 0.44901,0.183002 0.51898,0.161995 0.54501,0.188007 0.51902,0.161995 0.54498,0.189003 m -102.207,-35.650003 0.43899,0.079 0.34301,0.073 0.466,0.106001 0.43899,0.079 0.46601,0.106001 0.34199,0.073 0.46601,0.105999 0.43901,0.079 0.46597,0.106003 0.36902,0.101 0.466,0.105999 0.439,0.079 0.46599,0.106001 0.46601,0.105999 0.36901,0.101 0.49199,0.134001 0.466,0.105999 0.466,0.106001 0.36901,0.100999 0.49197,0.133 0.46602,0.107 0.492,0.133 0.37,0.101001 0.49199,0.133997 0.49202,0.134003 0.46599,0.105997 0.49198,0.134003 0.39602,0.128 0.492,0.133999 0.985,0.267 0.396,0.128002 0.492,0.133999 0.51898,0.160999 0.49202,0.133999 0.49201,0.134003 0.42299,0.155994 0.492,0.133004 0.49201,0.134002 0.51898,0.161999 0.42201,0.154999 0.493,0.133999 1.037,0.323002 0.423,0.154998 0.49201,0.133999 0.51899,0.161003 0.519,0.161999 0.519,0.160999 0.422,0.155999 0.51901,0.161003 0.54498,0.188999 0.51901,0.160999 0.422,0.156002 0.51898,0.161 0.54502,0.188999 0.51901,0.160999 0.54597,0.189003 0.42202,0.155998 0.54501,0.188999 0.519,0.161004 0.54499,0.188999 0.42301,0.154998 0.545,0.189 0.54499,0.189003 0.54598,0.188999 0.42203,0.155994 0.54599,0.188004 0.54499,0.188999 1.09101,0.378002 0.449,0.182999 1.09,0.378002 0.546,0.188999 0.475,0.209999 0.54499,0.188999 0.54601,0.189003 0.54498,0.189 0.44902,0.182998 0.57201,0.216 0.545,0.188999 0.54599,0.189003 0.572,0.216999 0.44901,0.182999 0.571,0.215999 0.54597,0.189003 0.57202,0.216999 0.44901,0.182 0.571,0.216999 0.54599,0.189003 0.57199,0.215999 0.57201,0.216999 0.44799,0.182999 0.57201,0.216 0.57201,0.216003 0.57199,0.216999 0.449,0.182999 0.57201,0.215999" /><path
               id="path62"
               style="fill:none;stroke:#000000;stroke-width:1;stroke-linecap:butt;stroke-linejoin:round;stroke-miterlimit:4;stroke-dasharray:none;stroke-opacity:1"
               d="m 167.97801,29.981001 0.254,-0.114 0.56,-0.172999 0.157,-0.120001 0.279,-0.086 0.28,-0.086 0.28,-0.087 0.28,-0.086 0.184,-0.093 0.56,-0.172001 0.28,-0.087 0.20999,-0.064 0.56001,-0.173003 0.306,-0.059 0.184,-0.092 0.30599,-0.059 0.30701,-0.059 0.28,-0.086 0.306,-0.059 0.20999,-0.065 0.30701,-0.059 0.306,-0.059 0.30701,-0.059 0.20999,-0.064 0.306,-0.059 0.307,-0.059 0.333,-0.031 0.21,-0.065 0.306,-0.059 0.33299,-0.031 0.30701,-0.059 0.33299,-0.031 0.237,-0.038 0.306,-0.059 0.33301,-0.031 0.33299,-0.031 0.237,-0.038 0.33301,-0.031 0.666,-0.063 0.33299,-0.031 0.263,-0.01 0.333,-0.031 0.333,-0.031 0.36001,-0.004 0.236,-0.037 0.36,-0.004 0.359,-0.004 0.33301,-0.031 0.263,-0.01 0.36,-0.004 0.35998,-0.003 0.35901,-0.004 0.36,-0.004 0.263,-0.01 0.386,0.024 0.36,-0.004 0.359,-0.004 0.29001,0.018 0.36,-0.004 0.38598,0.024 0.386,0.024 0.263,-0.01 0.38601,0.024 0.386,0.024 0.386,0.023 0.38599,0.024 0.28999,0.018 0.38602,0.024 0.386,0.023 0.41299,0.052 0.29001,0.017 0.412,0.052 0.386,0.023 0.413,0.052 0.386,0.023 0.31599,0.046 0.41301,0.051 0.413,0.051 0.412,0.051 0.316,0.046 0.41301,0.051 0.41299,0.051 0.41299,0.052 0.31601,0.045 0.439,0.079 0.412,0.051 0.44,0.079 0.41199,0.051 0.343,0.073 0.41301,0.051 0.87799,0.157997 0.34301,0.072 0.43901,0.079 0.43899,0.079 0.439,0.079 M 148.347,44.753002 148.54701,44.584003 148.651,44.409 l 0.80101,-0.675998 0.10399,-0.175 0.20001,-0.168998 0.20099,-0.169007 0.20001,-0.167995 0.10399,-0.174999 0.40001,-0.338002 0.201,-0.169002 0.10399,-0.174995 0.40001,-0.338002 0.20099,-0.168998 0.20001,-0.169003 0.10399,-0.174999 0.20001,-0.168999 0.20099,-0.169002 0.2,-0.168999 0.104,-0.174999 0.2,-0.169003 0.20101,-0.168999 0.19999,-0.168998 0.20001,-0.169003 0.10399,-0.174999 0.2,-0.167999 0.201,-0.169999 0.2,-0.168003 0.13101,-0.147999 0.2,-0.168998 0.401,-0.338005 0.103,-0.174996 0.227,-0.140999 0.20099,-0.169002 0.40001,-0.337998 0.131,-0.147003 0.19999,-0.168998 0.2,-0.168999 0.22701,-0.142002 0.104,-0.174999 0.201,-0.168999 0.226,-0.141003 0.20099,-0.168999 0.22701,-0.140998 0.10299,-0.175003 0.22701,-0.141999 0.227,-0.140999 L 158.22,35.778 158.34999,35.630001 158.55,35.461002 158.77701,35.32 l 0.227,-0.140999 0.131,-0.147999 0.2,-0.168999 0.227,-0.141002 0.22699,-0.141999 0.22701,-0.140998 0.13,-0.147004 0.22699,-0.141998 0.22701,-0.140999 0.227,-0.142002 0.12999,-0.146999 0.22701,-0.141999 0.227,-0.141002 0.25299,-0.113999 0.13101,-0.146999 0.45299,-0.283001 0.25401,-0.114002 0.22699,-0.141998 0.15601,-0.119 0.227,-0.142002 0.254,-0.113998 L 163.593,32.119999 163.75,32 l 0.25301,-0.113998 0.22699,-0.141001 0.25401,-0.113999 0.253,-0.114 0.157,-0.120001 0.25299,-0.114 0.254,-0.114 0.25301,-0.113999 0.15699,-0.120001 0.50701,-0.226999 0.253,-0.114 0.18399,-0.093 0.25301,-0.114 0.254,-0.112999 0.28,-0.087 0.253,-0.114 0.18399,-0.092" /><path
               id="path64"
               style="fill:none;stroke:#000000;stroke-width:1;stroke-linecap:square;stroke-linejoin:round;stroke-miterlimit:4;stroke-dasharray:none;stroke-opacity:1"
               d="m 127.04301,57.791004 0.183,-0.093 0.30699,-0.058 0.306,-0.059 0.28,-0.086 0.21001,-0.065 0.28,-0.087 0.28,-0.086 0.30699,-0.059 0.18301,-0.092 0.28,-0.087 0.28,-0.086 0.28,-0.086 0.28,-0.08701 0.183,-0.092 0.28,-0.087 0.27999,-0.086 0.28,-0.086 0.157,-0.120003 0.28,-0.086 0.28001,-0.087 0.254,-0.113998 0.183,-0.092 0.25299,-0.113999 0.28,-0.086 0.25401,-0.113995 0.25299,-0.114002 0.157,-0.119999 0.28,-0.086 0.25401,-0.113998 0.25299,-0.113999 0.157,-0.120003 0.25299,-0.113998 0.25402,-0.114002 0.253,-0.113999 0.254,-0.113998 0.13,-0.147003 0.254,-0.113999 0.25299,-0.113998 0.22701,-0.141003 0.157,-0.119999 0.253,-0.113998 0.22699,-0.142006 0.25301,-0.112995 0.13099,-0.147999 0.22701,-0.141003 0.25299,-0.113998 0.227,-0.142002 0.22699,-0.140999 0.13001,-0.146999 0.25401,-0.114003 0.22699,-0.141998 0.22701,-0.140999 0.13,-0.148002 0.22699,-0.140999 0.22701,-0.140999 0.227,-0.142002 0.22699,-0.141998 0.13001,-0.147 0.19999,-0.169002 0.454,-0.282997 0.13,-0.147 0.22701,-0.142002 0.201,-0.167999 0.22699,-0.142002 0.10301,-0.175003 0.22699,-0.140995 0.22701,-0.142002 0.201,-0.168999 0.226,-0.140999 0.104,-0.174999 0.22699,-0.141003 0.401,-0.337997 0.13001,-0.148003 0.201,-0.168999 0.226,-0.140998 0.20099,-0.169003 0.104,-0.174999 0.2,-0.168999 0.22701,-0.141003 0.19999,-0.168998 0.20101,-0.168999 0.10299,-0.174999 0.20101,-0.169003 0.227,-0.141998 0.2,-0.169003 0.104,-0.174999 0.801,-0.674999 0.104,-0.174999 0.601,-0.507 0.104,-0.175 0.40099,-0.338001 m -57.699997,10.515999 0.492996,0.134003 0.466004,0.105999 0.369003,0.100998 0.464989,0.106002 0.493011,0.133995 0.464997,0.106003 0.370002,0.100003 0.464997,0.106998 0.466003,0.105999 0.439003,0.079 0.465996,0.105999 0.369003,0.101002 0.465996,0.105999 0.439003,0.07899 0.465996,0.106006 0.343002,0.073 0.465004,0.105999 0.439995,0.079 0.439003,0.079 0.438995,0.078 0.343003,0.073 0.439006,0.079 0.43899,0.079 0.44,0.079 0.34201,0.073 0.879,0.157002 0.412,0.051 0.34299,0.073 0.413,0.052 0.43901,0.078 0.41299,0.052 0.439,0.078 0.31601,0.046 0.41299,0.051 0.412,0.051 0.41301,0.051 0.316,0.046 0.41299,0.051 0.412,0.051 0.38601,0.024 0.413,0.051 0.31599,0.046 0.386,0.023 0.413,0.052 0.38601,0.023 0.29,0.018 0.41299,0.051 0.386,0.024 0.38601,0.024 0.28899,0.018 0.38701,0.023 0.38599,0.024 0.386,0.024 0.36,-0.004 0.28901,0.018 0.386,0.024 0.36,-0.004 0.38598,0.024 0.26301,-0.01 0.386,0.024 0.36,-0.004 0.35901,-0.004 0.263,-0.01 0.36,-0.004 0.35899,-0.003 0.35999,-0.004 0.36,-0.004 0.26301,-0.01 0.333,-0.031 0.359,-0.004 0.36,-0.004 0.237,-0.037 0.359,-0.004 0.33301,-0.031 0.333,-0.031 0.33299,-0.032 0.26301,-0.009 0.333,-0.032 0.33399,-0.03101 0.33301,-0.03099 0.236,-0.037 0.307,-0.059 0.333,-0.032 0.333,-0.031 0.236,-0.03699 0.30699,-0.059 0.33301,-0.031 0.30599,-0.059 0.307,-0.059 0.236,-0.037 0.307,-0.059 0.306,-0.05901 0.307,-0.05899 0.21001,-0.065 0.306,-0.059 0.30699,-0.058 0.30701,-0.05901 0.306,-0.05899" /><path
               id="path66"
               style="fill:#000000;fill-opacity:1;fill-rule:nonzero;stroke:none"
               d="M 22.012001,13.089001 H 306.414" /><path
               id="path68"
               style="fill:#000000;fill-opacity:1;fill-rule:nonzero;stroke:none"
               d="m 305.802,13.089001 -1.31399,2.160999 0.074,0.049 3.525,-1.4 c 1.22799,-0.27 2.45602,-0.540001 3.68499,-0.81 -1.22897,-0.271 -2.457,-0.541001 -3.68499,-0.811 l -3.525,-1.400001 -0.074,0.037 1.31399,2.174" /><path
               id="path70"
               style="fill:#000000;fill-opacity:1;fill-rule:nonzero;stroke:none"
               d="m 89.688004,73.065002 -2.162003,-1.313995 -0.049,0.073 1.400002,3.525002 c 0.269996,1.227996 0.54,2.457 0.810997,3.684997 0.270004,-1.227997 0.54,-2.457001 0.809997,-3.684997 l 1.400002,-3.525002 -0.036,-0.073 -2.174003,1.313995" /><path
               id="path72"
               style="fill:none;stroke:#000000;stroke-width:0.12;stroke-linecap:butt;stroke-linejoin:miter;stroke-miterlimit:4;stroke-dasharray:1.8000001;stroke-dashoffset:0;stroke-opacity:1"
               d="M 148.248,44.628002 V 12.279 m 54.42601,16.802001 v -16.004" /><path
               id="path74"
               style="fill:#000000;fill-opacity:1;fill-rule:nonzero;stroke:none"
               d="M 89.688004,73.065002 V 13.425" /><path
               id="path76"
               style="fill:none;stroke:#000000;stroke-width:0.12;stroke-linecap:butt;stroke-linejoin:miter;stroke-miterlimit:4;stroke-dasharray:none;stroke-opacity:1"
               d="M 31.517002,176.12201 V 168.123 m 40.312,7.99901 V 168.123 m -40.625,-71.166999 v -8" /><text
               id="text80"
               style="font-variant:normal;font-weight:normal;font-size:11.95500088px;font-family:CMR12;-inkscape-font-specification:CMR12;writing-mode:lr-tb;fill:#231f20;fill-opacity:1;fill-rule:nonzero;stroke:none"
               transform="matrix(1,0,0,-1,0.0812,199.04419)"><tspan
                 id="tspan78"
                 y="0"
                 x="0 4.5548553 7.8066158">(i)</tspan></text>
<text
               id="text84"
               style="font-variant:normal;font-weight:normal;font-size:11.95500088px;font-family:CMR12;-inkscape-font-specification:CMR12;writing-mode:lr-tb;fill:#231f20;fill-opacity:1;fill-rule:nonzero;stroke:none"
               transform="matrix(1,0,0,-1,0.14336599,119.04372)"><tspan
                 id="tspan82"
                 y="0"
                 x="0 4.5548553 7.8066158 11.058376">(ii)</tspan></text>
<text
               id="text88"
               style="font-variant:normal;font-weight:normal;font-size:11.95500088px;font-family:CMR12;-inkscape-font-specification:CMR12;writing-mode:lr-tb;fill:#231f20;fill-opacity:1;fill-rule:nonzero;stroke:none"
               transform="matrix(1,0,0,-1,0.45778251,47.043533)"><tspan
                 id="tspan86"
                 y="0"
                 x="0 4.5548553 7.8066158 11.058376 14.310136">(iii)</tspan></text>
<text
               id="text92"
               style="font-variant:normal;font-weight:normal;font-size:11.95500088px;font-family:CMMI12;-inkscape-font-specification:CMMI12;writing-mode:lr-tb;fill:#231f20;fill-opacity:1;fill-rule:nonzero;stroke:none"
               transform="matrix(1,0,0,-1,144.00027,4.9989929)"><tspan
                 id="tspan90"
                 y="0"
                 x="0">a</tspan></text>
<text
               id="text96"
               style="font-variant:normal;font-weight:normal;font-size:11.95500088px;font-family:CMMI12;-inkscape-font-specification:CMMI12;writing-mode:lr-tb;fill:#231f20;fill-opacity:1;fill-rule:nonzero;stroke:none"
               transform="matrix(1,0,0,-1,201.99995,2.9989212)"><tspan
                 id="tspan94"
                 y="0"
                 x="0">b</tspan></text>
<text
               id="text100"
               style="font-variant:normal;font-weight:normal;font-size:11.95500088px;font-family:CMMI12;-inkscape-font-specification:CMMI12;writing-mode:lr-tb;fill:#231f20;fill-opacity:1;fill-rule:nonzero;stroke:none"
               transform="matrix(1,0,0,-1,316.99988,7.9985023)"><tspan
                 id="tspan98"
                 y="0"
                 x="0">t</tspan></text>
<text
               id="text104"
               style="font-variant:normal;font-weight:normal;font-size:11.95500088px;font-family:CMMI12;-inkscape-font-specification:CMMI12;writing-mode:lr-tb;fill:#231f20;fill-opacity:1;fill-rule:nonzero;stroke:none"
               transform="matrix(1,0,0,-1,27.999666,79.998688)"><tspan
                 id="tspan102"
                 y="0"
                 x="0">a</tspan></text>
<text
               id="text108"
               style="font-variant:normal;font-weight:normal;font-size:11.95500088px;font-family:CMMI12;-inkscape-font-specification:CMMI12;writing-mode:lr-tb;fill:#231f20;fill-opacity:1;fill-rule:nonzero;stroke:none"
               transform="matrix(1,0,0,-1,145.9991,76.999176)"><tspan
                 id="tspan106"
                 y="0"
                 x="0">b</tspan></text>
<text
               id="text112"
               style="font-variant:normal;font-weight:normal;font-size:11.95500088px;font-family:CMMI12;-inkscape-font-specification:CMMI12;writing-mode:lr-tb;fill:#231f20;fill-opacity:1;fill-rule:nonzero;stroke:none"
               transform="matrix(1,0,0,-1,314.99857,79.998688)"><tspan
                 id="tspan110"
                 y="0"
                 x="0">t</tspan></text>
<text
               id="text116"
               style="font-variant:normal;font-weight:normal;font-size:11.95500088px;font-family:CMMI12;-inkscape-font-specification:CMMI12;writing-mode:lr-tb;fill:#231f20;fill-opacity:1;fill-rule:nonzero;stroke:none"
               transform="matrix(1,0,0,-1,26.999012,160.9986)"><tspan
                 id="tspan114"
                 y="0"
                 x="0">a</tspan></text>
<text
               id="text120"
               style="font-variant:normal;font-weight:normal;font-size:11.95500088px;font-family:CMMI12;-inkscape-font-specification:CMMI12;writing-mode:lr-tb;fill:#231f20;fill-opacity:1;fill-rule:nonzero;stroke:none"
               transform="matrix(1,0,0,-1,69.998756,157.99908)"><tspan
                 id="tspan118"
                 y="0"
                 x="0">b</tspan></text>
<text
               id="text124"
               style="font-variant:normal;font-weight:normal;font-size:11.95500088px;font-family:CMMI12;-inkscape-font-specification:CMMI12;writing-mode:lr-tb;fill:#231f20;fill-opacity:1;fill-rule:nonzero;stroke:none"
               transform="matrix(1,0,0,-1,313.99554,157.99908)"><tspan
                 id="tspan122"
                 y="0"
                 x="0">t</tspan></text>
</g></g></g></g></g></svg>