<?xml version="1.0" encoding="UTF-8" standalone="no"?>
<svg
   xmlns:dc="http://purl.org/dc/elements/1.1/"
   xmlns:cc="http://creativecommons.org/ns#"
   xmlns:rdf="http://www.w3.org/1999/02/22-rdf-syntax-ns#"
   xmlns:svg="http://www.w3.org/2000/svg"
   xmlns="http://www.w3.org/2000/svg"
   viewBox="0 0 356 106.66667"
   height="106.66667"
   width="356"
   xml:space="preserve"
   id="svg2"
   version="1.1"><metadata
     id="metadata8"><rdf:RDF><cc:Work
         rdf:about=""><dc:format>image/svg+xml</dc:format><dc:type
           rdf:resource="http://purl.org/dc/dcmitype/StillImage" /></cc:Work></rdf:RDF></metadata><defs
     id="defs6"><clipPath
       id="clipPath24"
       clipPathUnits="userSpaceOnUse"><path
         id="path22"
         d="M 0,0 H 267 V 80 H 0 Z" /></clipPath></defs><g
     transform="matrix(1.3333333,0,0,-1.3333333,0,106.66667)"
     id="g10"><g
       id="g12" /><g
       id="g14" /><g
       id="g16"><g
         id="g18"><g
           clip-path="url(#clipPath24)"
           id="g20"><g
             id="g26" /><g
             id="g28"><path
               id="path30"
               style="fill:none;stroke:#000000;stroke-width:0.37500003;stroke-linecap:butt;stroke-linejoin:round;stroke-miterlimit:4;stroke-dasharray:none;stroke-opacity:1"
               d="m 224.20601,22.716002 0.175,0.305999 0.17501,0.306999 0.12998,0.262002 0.35102,0.612998 0.34999,0.612002 0.131,0.306 0.175,0.306999 0.175,0.306 0.175,0.305999 0.131,0.306002 0.17598,0.306999 0.17403,0.305998 0.17499,0.262003 0.175,0.306999 0.132,0.306 0.17501,0.306 0.17399,0.35 0.17499,0.306 0.13202,0.307001 0.52398,0.917999 0.13201,0.307001 0.52501,0.918 0.17499,0.306999 0.13101,0.305998 0.17499,0.306001 0.175,0.306 0.175,0.307003 0.13201,0.305 0.34899,0.612999 0.176,0.306 0.131,0.306996 0.175,0.306003 0.17399,0.306 0.17601,0.306 0.17501,0.306999 0.13099,0.306003 0.17501,0.306 0.17599,0.306999 0.174,0.305996 0.131,0.306004 0.17601,0.306 0.17498,0.263 0.34902,0.612 0.13199,0.306999 0.175,0.306 0.175,0.305999 0.17501,0.262001 0.13099,0.307 0.175,0.305999 0.17501,0.306 0.17499,0.263001 0.13101,0.305999 0.17599,0.306 0.174,0.263001 0.175,0.305999 0.175,0.262001 0.13201,0.307 0.17499,0.305999 0.17401,0.262001 0.17598,0.307 0.13101,0.262001 0.175,0.262996 0.17501,0.306004 0.175,0.263 0.13099,0.306 0.17501,0.262001 0.17499,0.262997 0.175,0.262001 0.175,0.307003 0.131,0.261997 0.175,0.262001 0.175,0.263001 0.17501,0.263 0.13199,0.261997 0.17401,0.263001 0.17599,0.262001 0.17499,0.263 0.17502,0.262001 0.131,0.263001 0.175,0.217998 0.17499,0.263001 0.175,0.262001 0.131,0.262997 0.175,0.219001 0.175,0.262001 0.175,0.218995 0.131,0.262004 0.175,0.219002 0.17501,0.262997 0.17599,0.218002 0.174,0.263001 m -32.681,-49.6130039 0.17399,0.088 0.13201,0.087 0.175,0.132 0.175,0.087 0.17499,0.131 0.13199,0.088 0.17403,0.131 0.17499,0.087 0.175,0.1320002 0.132,0.1309998 0.17501,0.1310001 0.17399,0.088 0.17499,0.1310001 0.17601,0.131 0.131,0.1310001 0.175,0.1759998 0.17399,0.1310001 0.17601,0.131 0.131,0.1310001 0.175,0.1749999 0.17501,0.1310001 0.17499,0.1760001 0.306,0.3059997 0.175,0.1749997 0.175,0.1310006 0.17598,0.1749997 0.13001,0.1750002 0.17501,0.1750002 0.351,0.3499999 0.131,0.1749997 0.17399,0.1750002 0.17601,0.2189998 0.17499,0.1749997 0.17501,0.1750007 0.13101,0.2189999 0.34999,0.3499999 0.175,0.2179999 0.131,0.2190004 0.175,0.1750001 0.176,0.2189999 0.17401,0.2189999 0.13098,0.2180004 0.17601,0.1749992 0.175,0.2189999 0.17501,0.2190008 0.17398,0.2179995 0.13201,0.2189998 0.17501,0.2190008 0.17499,0.262999 0.175,0.218001 0.131,0.219 0.175,0.218999 0.175,0.262001 0.175,0.219 0.17501,0.262999 0.13199,0.218001 0.17401,0.262 0.17499,0.22 0.175,0.262 0.132,0.219 0.17501,0.262 0.17399,0.262998 0.17499,0.262002 0.13202,0.218999 0.34999,0.525001 0.17399,0.262999 0.17601,0.262001 0.131,0.263 0.35001,0.524 0.17499,0.263 0.13101,0.306 0.34999,0.524999 0.175,0.263001 0.13201,0.262001 0.17398,0.306999 0.17501,0.261999 0.176,0.263 0.175,0.306 0.131,0.262001 0.17399,0.306999 0.17601,0.262002 0.17501,0.305999 0.13099,0.263001 0.17501,0.306 0.17499,0.262998 0.175,0.306 0.175,0.306002 0.131,0.262998 0.351,0.612002 0.17401,0.305999 0.13098,0.262999 0.17601,0.306002" /><path
               id="path32"
               style="fill:none;stroke:#000000;stroke-width:0.37500003;stroke-linecap:butt;stroke-linejoin:round;stroke-miterlimit:4;stroke-dasharray:none;stroke-opacity:1"
               d="m 191.524,7.1410003 0.17501,-0.2189999 0.175,-0.1750002 0.175,-0.1749997 0.13201,-0.2180004 0.34898,-0.3509998 0.17601,-0.1739998 0.175,-0.1750002 0.131,-0.1750002 L 193.186,5.3040004 193.36201,5.1280003 193.537,4.9540005 193.66801,4.822 193.843,4.6470003 l 0.17501,-0.1750002 0.175,-0.131 0.131,-0.1749997 0.175,-0.1310001 0.175,-0.131 0.17598,-0.1750002 0.17401,-0.132 0.13101,-0.131 0.176,-0.1309998 0.175,-0.1310001 0.17501,-0.1320002 0.12998,-0.1309998 0.17601,-0.1310003 0.17499,-0.1309998 0.17501,-0.088 L 196.468,2.46 l 0.17501,-0.131 0.175,-0.088 0.175,-0.1310003 0.175,-0.088 0.131,-0.087 0.176,-0.131 0.17399,-0.088 0.17501,-0.088 0.132,-0.087 0.175,-0.087 0.17501,-0.088 0.17398,-0.087 0.17501,-0.088 0.13199,-0.044 0.17501,-0.087 0.175,-0.0879998 0.17399,-0.043 0.13201,-0.088 0.175,-0.044 0.175,-0.044 0.17499,-0.087 0.13201,-0.044 0.17399,-0.043 0.17501,-0.044 0.175,-0.044 0.175,-0.044 0.13201,-0.043 h 0.17399 l 0.17499,-0.044 0.17601,-0.044 h 0.131 l 0.175,-0.044 h 0.35 l 0.131,-0.043 h 1.181 l 0.176,0.043 H 203.73 l 0.17501,0.044 h 0.176 l 0.175,0.044 h 0.17501 l 0.12998,0.044 0.17601,0.043 0.17499,0.044 0.17501,0.044 0.13099,0.044 0.17501,0.043 0.175,0.044 0.175,0.044 0.131,0.043 0.175,0.088 0.176,0.044 0.17401,0.087 0.17499,0.0439999 0.132,0.088 0.175,0.043 0.17501,0.088 0.17398,0.087 0.13201,0.088 0.17499,0.087 0.17501,0.088 0.175,0.087 m -32.681,32.4630022 0.175,-0.306 0.131,-0.306999 0.17399,-0.306 0.17601,-0.306003 0.17499,-0.306 0.17501,-0.306999 0.13099,-0.306 0.35001,-0.612999 0.175,-0.306 0.131,-0.306001 0.175,-0.306002 0.17598,-0.305998 0.17401,-0.306999 0.13101,-0.306 0.351,-0.612001 0.349,-0.612999 0.132,-0.306002 0.17499,-0.306 0.17501,-0.306999 0.175,-0.305999 0.131,-0.306 0.175,-0.306 0.52499,-0.919003 0.13201,-0.306999 0.524,-0.917999 0.132,-0.263 0.524,-0.918 0.13199,-0.306999 0.17501,-0.262001 0.34899,-0.613001 0.17601,-0.306 0.131,-0.261999 0.34999,-0.613001 0.17501,-0.261999 0.13099,-0.307001 0.17501,-0.306 0.175,-0.261999 0.175,-0.307001 0.176,-0.261999 0.13,-0.306 0.17499,-0.263 0.17601,-0.263001 0.175,-0.305999 0.131,-0.262 0.17399,-0.307001 0.351,-0.524 0.13101,-0.262998 0.17499,-0.306002 0.35001,-0.525001 0.175,-0.262998 0.131,-0.262 0.175,-0.263 0.176,-0.262001 0.17399,-0.262999 0.13101,-0.262001 0.176,-0.262999 0.175,-0.262001 0.17501,-0.218999 0.12998,-0.262 0.17601,-0.263001 0.17499,-0.262999 0.17501,-0.218001 0.175,-0.262999 0.131,-0.219 0.175,-0.262 0.175,-0.219001 0.175,-0.262 0.131,-0.219 0.176,-0.219 0.17399,-0.262 0.17501,-0.219 0.175,-0.218999 0.132,-0.2190007 0.17501,-0.2180004 0.34899,-0.4379997 L 190.037,8.9789998 190.561,8.3220002 190.69301,8.147 190.86801,7.9290001 191.04301,7.71 191.218,7.5350003 191.39301,7.3160005 191.524,7.1410003" /><path
               id="path34"
               style="fill:none;stroke:#000000;stroke-width:0.37500003;stroke-linecap:butt;stroke-linejoin:round;stroke-miterlimit:4;stroke-dasharray:none;stroke-opacity:1"
               d="m 158.88701,58.372002 0.131,-0.175 0.175,-0.131 0.175,-0.131001 0.306,-0.306999 0.17598,-0.174 0.17401,-0.174999 0.17501,-0.132 0.132,-0.174999 0.175,-0.175003 0.17501,-0.174999 0.17399,-0.175 0.17499,-0.174999 0.132,-0.174999 0.17501,-0.175003 0.175,-0.174999 0.17399,-0.175 0.13201,-0.217998 0.175,-0.175003 0.175,-0.175999 0.17499,-0.217998 0.13201,-0.175003 0.17399,-0.218998 0.17501,-0.175 0.175,-0.219001 0.175,-0.217999 0.13201,-0.219005 0.17398,-0.174996 0.17501,-0.218998 0.176,-0.219002 0.131,-0.217998 0.175,-0.219006 0.17399,-0.218994 0.351,-0.437 0.13101,-0.263001 0.17499,-0.219001 0.17501,-0.217999 0.175,-0.263 0.131,-0.219002 0.175,-0.217999 0.175,-0.263 0.176,-0.218998 0.13,-0.262005 0.17499,-0.262997 0.17601,-0.217998 0.175,-0.263001 0.17501,-0.262001 0.12998,-0.263 0.17601,-0.218998 0.17499,-0.262005 0.17501,-0.262997 0.13099,-0.262001 0.17501,-0.263 0.175,-0.262001 0.175,-0.262997 0.175,-0.262001 0.131,-0.263 0.176,-0.306 0.349,-0.525002 0.132,-0.262996 0.175,-0.262001 0.17501,-0.306004 0.17399,-0.262997 0.132,-0.305999 0.17499,-0.263001 0.17501,-0.262001 0.175,-0.306003 0.17399,-0.262997 0.13201,-0.306 0.175,-0.263 0.34999,-0.612 0.13201,-0.263 0.17399,-0.306 0.17501,-0.261997 0.175,-0.307003 0.132,-0.306 0.17501,-0.306 0.17398,-0.263 0.17501,-0.306 0.176,-0.306 0.131,-0.306 0.175,-0.306999 0.17399,-0.262001 0.17601,-0.306003 0.131,-0.306996 0.175,-0.306 0.17499,-0.305999 0.17501,-0.307 0.175,-0.306003 0.131,-0.306 0.175,-0.306 0.351,-0.612999 0.13,-0.305999 0.17499,-0.306 0.17601,-0.306 m -32.68201,23.756001 0.17501,0.174999 0.175,0.131 0.132,0.132 0.17499,0.130997 0.17401,0.175003 0.17499,0.131001 0.132,0.131 0.17501,0.132 0.175,0.130997 0.17399,0.087 0.176,0.131 0.13101,0.131996 0.17499,0.131005 0.175,0.087 0.17501,0.131993 0.13099,0.087 0.17501,0.132 0.175,0.087 0.175,0.087 0.17598,0.088 0.13001,0.088 0.35101,0.174999 0.175,0.087 0.131,0.087 0.17399,0.088 0.176,0.088 0.175,0.043 0.13101,0.088 0.17499,0.043 0.17501,0.088 0.175,0.044 0.175,0.08701 0.131,0.044 0.175,0.044 0.176,0.043 0.17399,0.044 0.131,0.044 0.17601,0.044 0.175,0.04301 h 0.17499 l 0.174,0.044 0.132,0.044 h 0.175 l 0.17501,0.044 h 0.306 l 0.175,0.043 h 1.006 l 0.175,-0.043 h 0.30699 l 0.17401,-0.044 H 152.28 l 0.132,-0.044 h 0.17501 l 0.34899,-0.087 0.13201,-0.044 0.175,-0.044 0.175,-0.044 0.17499,-0.043 0.17501,-0.044 0.13099,-0.044 0.17501,-0.08701 0.175,-0.044 0.175,-0.044 0.13199,-0.087 0.174,-0.044 0.17501,-0.087 0.176,-0.088 0.175,-0.088 0.131,-0.043 0.17399,-0.088 0.17601,-0.087 0.17499,-0.08799 0.13101,-0.087 0.17499,-0.132 0.17501,-0.087 0.175,-0.087 0.131,-0.088 0.175,-0.131004 0.175,-0.08799 0.176,-0.131 0.17399,-0.131005 0.131,-0.08799 0.17601,-0.131001 0.175,-0.131004 0.17501,-0.130997 0.12998,-0.132 0.17601,-0.131 0.17499,-0.131001 0.17501,-0.132 0.175,-0.131" /><path
               id="path36"
               style="fill:none;stroke:#000000;stroke-width:0.37500003;stroke-linecap:butt;stroke-linejoin:round;stroke-miterlimit:4;stroke-dasharray:none;stroke-opacity:1"
               d="m 126.20601,33.172001 0.131,0.306999 0.34899,0.612003 0.17601,0.306 0.17499,0.306999 0.13101,0.305996 0.17499,0.306004 0.35001,0.612999 0.131,0.306 0.175,0.305999 0.35098,0.613003 0.13001,0.305996 0.175,0.306004 0.17601,0.263 0.175,0.306 0.17499,0.306 0.13,0.305999 0.176,0.306 0.175,0.306996 0.17501,0.262004 0.13099,0.306 0.17501,0.306999 0.175,0.262001 0.34999,0.612996 0.13101,0.262004 0.176,0.306 0.17399,0.306999 0.17501,0.262001 0.132,0.306 0.175,0.263001 0.17499,0.305999 0.174,0.263001 0.132,0.262001 0.175,0.306999 0.17501,0.261997 0.175,0.306004 0.17399,0.262997 0.13201,0.262001 0.175,0.262996 0.17499,0.306004 0.175,0.263 0.13201,0.262001 0.524,0.786999 0.175,0.263001 0.13199,0.263 0.349,0.524998 0.17601,0.262001 0.131,0.218998 0.175,0.262001 0.17399,0.263 0.176,0.219002 0.13101,0.262001 0.17499,0.262997 0.175,0.218002 0.17501,0.262997 0.175,0.218002 0.131,0.263001 0.175,0.218998 0.351,0.437 0.12999,0.262997 0.17501,0.219005 0.351,0.437 0.131,0.218998 0.17399,0.219002 0.351,0.437 0.17501,0.218995 0.13099,0.219005 0.17501,0.174999 0.175,0.217999 0.175,0.219002 0.131,0.174999 0.175,0.219002 0.176,0.174995 0.17399,0.175003 0.17501,0.219002 0.132,0.174999 0.175,0.174999 0.17499,0.217999 0.174,0.175003 0.132,0.174999 0.175,0.174999 0.17501,0.175 0.175,0.174999 0.131,0.132 0.175,0.175003 0.175,0.174999 0.17499,0.174999 0.175,0.131001 0.13199,0.174995 0.17401,0.131005 m -32.681,-51.3620027 0.17501,0.1750002 0.175,0.2179999 0.17499,0.1749997 0.13101,0.1750002 0.17499,0.2189999 0.176,0.1750002 0.174,0.2189998 0.13101,0.2189999 0.176,0.1750002 0.17499,0.2180004 0.349,0.4379997 0.13201,0.2189999 0.17499,0.2180004 0.17501,0.2189999 0.175,0.2189989 0.131,0.2190005 0.175,0.218001 0.17499,0.262999 0.17501,0.219 0.13099,0.218001 0.17601,0.218999 0.17399,0.263001 0.17501,0.217999 0.175,0.263 0.13199,0.218 0.349,0.526 0.17501,0.218001 0.13199,0.262999 0.17501,0.262 0.175,0.219 0.17399,0.262 0.17601,0.263001 0.13099,0.262999 0.35,0.525001 0.17501,0.262 0.13099,0.262999 0.35001,0.525001 0.17499,0.262 0.13201,0.306 0.34899,0.525 0.17601,0.263 0.17499,0.306 0.13101,0.263 0.17399,0.305998 0.351,0.525002 0.13101,0.305999 0.17499,0.263001 0.17501,0.305998 0.175,0.262003 0.131,0.306999 0.175,0.306 0.17499,0.262001 0.176,0.306999 0.174,0.305998 0.13101,0.262003 0.35099,0.612999 0.17501,0.262001 0.12999,0.306999 0.17601,0.305998 0.17499,0.306001 0.35001,0.613001 0.131,0.261999 0.175,0.306002 0.17499,0.306999 0.17501,0.305998 0.13099,0.306002 0.17601,0.306 0.17399,0.306001 0.17501,0.306999 0.132,0.306 0.17499,0.306 0.52401,0.919001 0.13199,0.305999 0.524,0.919001 0.13201,0.306 0.52499,0.919 0.17501,0.306 0.131,0.306999 0.175,0.306 0.175,0.306 0.17499,0.306001 0.13201,0.306 0.34899,0.612999 0.17601,0.306" /><path
               id="path38"
               style="fill:none;stroke:#000000;stroke-width:0.37500003;stroke-linecap:butt;stroke-linejoin:round;stroke-miterlimit:4;stroke-dasharray:none;stroke-opacity:1"
               d="m 93.524002,1.9790001 0.175003,-0.088 0.131996,-0.087 0.175003,-0.132 0.175003,-0.087 0.173996,-0.088 0.132004,-0.087 0.174996,-0.088 0.175003,-0.043 0.174995,-0.088 0.174004,-0.087 0.131996,-0.088 0.175003,-0.0439999 0.175003,-0.087 0.174995,-0.044 0.132004,-0.044 0.173996,-0.0870001 0.350006,-0.0879999 0.174996,-0.043 0.132003,-0.044 0.173989,-0.044 0.17501,-0.044 0.175995,-0.043 0.131005,-0.044 h 0.174995 l 0.174004,-0.044 h 0.176002 l 0.130997,-0.044 h 0.349998 l 0.175003,-0.043 h 0.961998 l 0.174996,0.043 H 100.131 l 0.17501,0.044 h 0.12999 l 0.17601,0.044 0.17499,0.044 h 0.17501 l 0.13099,0.043 0.17501,0.044 0.175,0.044 0.17499,0.044 0.13101,0.043 0.17499,0.044 0.176,0.044 0.174,0.0870001 0.17501,0.044 0.13199,0.088 0.175,0.043 0.17501,0.0879998 0.17399,0.044 0.13201,0.087 0.17499,0.088 0.17501,0.087 0.175,0.088 0.131,0.087 0.175,0.087 0.17499,0.088 0.17501,0.088 0.17499,0.087 0.13201,0.088 0.17399,0.1309998 0.17501,0.087 0.175,0.132 0.13199,0.087 0.17501,0.1310001 0.17399,0.1319999 0.17501,0.1309998 0.17599,0.087 0.13101,0.1319999 0.175,0.1309998 0.17399,0.1310003 0.17601,0.1310001 0.13099,0.1749999 0.17501,0.132 0.17499,0.1309998 0.17501,0.1310003 0.13099,0.1750002 0.17501,0.131 0.175,0.1749997 0.17499,0.1310001 0.17601,0.1760001 0.12999,0.1750002 0.175,0.1739998 0.17601,0.1319995 0.17499,0.1750006 0.13101,0.1749993 0.17399,0.1750006 0.351,0.3499999 0.17501,0.2189999 0.13099,0.1750002 M 77.162003,23.679001 77.686005,22.76 77.862007,22.454 77.993004,22.191002 78.343002,21.579 78.518005,21.272001 78.649002,21.01 78.824005,20.704 78.999001,20.441002 79.174004,20.135 79.306007,19.829 79.479996,19.566 79.655006,19.26 79.831001,18.997002 80.006004,18.691 80.137001,18.429001 80.311005,18.166 80.487007,17.859999 80.662003,17.597 80.793007,17.291 80.968002,17.029001 81.318001,16.503 81.493004,16.241001 81.624001,15.935 81.799004,15.672001 81.975006,15.41 82.149002,15.147 82.279999,14.885001 82.631004,14.36 l 0.175003,-0.262999 0.129998,-0.262 0.176002,-0.219001 0.174996,-0.262999 0.349998,-0.525 L 83.768005,12.61 83.943001,12.347 84.118004,12.084001 84.293007,11.866 84.424004,11.603001 84.599998,11.385 84.774002,11.166 84.949005,10.903001 85.081001,10.685 85.256004,10.466001 85.431007,10.203 85.605003,9.9850006 85.779999,9.7660007 85.912003,9.5470009 86.436005,8.8910007 86.568001,8.6720009 86.743004,8.4970007 87.093002,8.0599995 87.268005,7.8410006 87.399002,7.6660004 87.574005,7.4470005 87.749001,7.2720003 87.925003,7.0540004 88.056007,6.8780003 88.229996,6.7030005 88.406006,6.4850001 88.581001,6.3099999 88.712006,6.1350002 88.887001,5.96 89.062004,5.7850003 89.237007,5.6099997 89.412003,5.4350004 89.543007,5.2599998 89.718002,5.0840001 89.894005,4.9099998 90.068001,4.7780004 90.200005,4.6030002 90.374001,4.428 l 0.175994,-0.1309996 0.175011,-0.1750002 0.173996,-0.131 0.132004,-0.1310003 0.174995,-0.1749997 0.175003,-0.132 0.175003,-0.131 0.130997,-0.1310001 0.175003,-0.1310003 0.349999,-0.2629997 0.130996,-0.1310001 0.176003,-0.1309998 0.173996,-0.088 0.175003,-0.1310001 0.176002,-0.131 0.130997,-0.088 0.174995,-0.131 0.174004,-0.088" /><path
               id="path40"
               style="fill:none;stroke:#000000;stroke-width:0.37500003;stroke-linecap:butt;stroke-linejoin:round;stroke-miterlimit:4;stroke-dasharray:none;stroke-opacity:1"
               d="m 60.843002,51.985001 0.175,-0.218998 0.175003,-0.219002 0.130996,-0.261997 0.175003,-0.219002 0.175,-0.218998 0.175994,-0.262001 0.130002,-0.219002 0.175003,-0.261997 0.175998,-0.219002 0.175003,-0.263 0.175,-0.217999 0.130001,-0.263 0.175998,-0.263001 0.175,-0.262001 0.174999,-0.218998 0.131,-0.262001 0.350003,-0.525001 0.174999,-0.262997 0.130997,-0.262001 0.351005,-0.525005 0.173996,-0.262997 0.175003,-0.261997 0.131996,-0.263001 0.175003,-0.306 0.348992,-0.525001 0.132004,-0.263001 0.175003,-0.305999 0.175003,-0.262001 0.174995,-0.307 0.174004,-0.262001 0.131996,-0.262996 0.175003,-0.306 0.175003,-0.262005 0.174995,-0.306995 0.131996,-0.262001 0.174004,-0.307 0.175003,-0.305999 0.174996,-0.262001 0.132003,-0.307 0.174996,-0.305999 0.174003,-0.262001 0.174996,-0.306 0.176002,-0.306999 L 68.587006,39.472 68.762001,39.209003 68.936005,38.903004 69.112,38.597 l 0.131004,-0.306 0.175003,-0.305999 0.174995,-0.263001 0.175003,-0.306 0.130997,-0.305999 0.349999,-0.612999 0.175003,-0.306 0.175994,-0.306 0.129998,-0.306999 0.17501,-0.306 0.350998,-0.612003 0.130997,-0.306999 0.174004,-0.306 0.176002,-0.306 0.174996,-0.306 0.175003,-0.306999 0.130996,-0.306 0.176003,-0.305999 0.173996,-0.306004 0.175003,-0.306997 0.130997,-0.306 0.175994,-0.306 0.349007,-0.612001 0.132004,-0.306999 0.174995,-0.306 L 73.881004,29.76 74.056,29.453001 l 0.175003,-0.306 0.131004,-0.305999 0.349999,-0.613001 0.174995,-0.306 0.132004,-0.306 0.348999,-0.612999 0.176002,-0.306001 0.173996,-0.306 0.131996,-0.306 0.174004,-0.306 0.176003,-0.306999 0.173996,-0.306002 0.132003,-0.306001 0.175003,-0.305998 0.174996,-0.306999 0.175003,-0.306 0.130997,-0.262001 m -32.638001,37.712002 0.131001,0.044 0.175998,0.044 0.175,0.043 0.175003,0.044 0.129997,0.044 0.176002,0.04401 0.175,0.043 h 0.174999 l 0.174999,0.044 h 0.131001 l 0.174999,0.044 h 0.175003 l 0.174999,0.043 h 1.138001 l 0.173996,-0.043 h 0.307003 l 0.174999,-0.044 h 0.174999 l 0.174,-0.044 0.132,-0.043 h 0.175003 l 0.174999,-0.04401 0.174999,-0.044 0.175,-0.044 0.131,-0.043 0.349999,-0.088 0.175003,-0.087 0.132,-0.04401 0.173999,-0.044 0.174996,-0.088 0.176002,-0.043 0.175003,-0.088 0.130997,-0.087 0.174,-0.044 0.176002,-0.087 0.175,-0.088 0.131,-0.087 0.349999,-0.174999 0.174999,-0.088 0.131,-0.088 0.175003,-0.131 0.175,-0.087 0.175998,-0.088 0.174,-0.131 0.131001,-0.087 0.175998,-0.132 0.175003,-0.131001 0.175,-0.088 0.129997,-0.131 0.176002,-0.131001 0.175,-0.130997 0.174999,-0.131 0.131,-0.132 0.175,-0.131001 0.174999,-0.131004 0.175003,-0.130997 0.306,-0.306999 0.175998,-0.131 0.174,-0.175 0.174999,-0.131 0.132,-0.175003 0.175003,-0.174996 0.175,-0.131 0.174999,-0.175003 0.174999,-0.175999 0.131001,-0.174 0.174999,-0.174999 0.174999,-0.174999 0.175003,-0.175003 0.131001,-0.175999 0.174999,-0.174 0.174999,-0.218998 0.174999,-0.175006 0.131996,-0.174996 0.174004,-0.218998 0.175999,-0.175003 0.174003,-0.218998 0.175995,-0.174999 0.131005,-0.219002 0.174999,-0.218002 0.174999,-0.174996 0.174999,-0.219001 0.131001,-0.219002 0.174999,-0.217999 0.175003,-0.219001 0.174999,-0.218998 0.131001,-0.219002 0.174999,-0.217999 0.174999,-0.219001" /><path
               id="path42"
               style="fill:none;stroke:#000000;stroke-width:0.37500003;stroke-linecap:butt;stroke-linejoin:round;stroke-miterlimit:4;stroke-dasharray:none;stroke-opacity:1"
               d="m 28.162001,43.41 0.175001,0.262001 0.174999,0.307003 0.175001,0.261997 0.130999,0.262001 0.175001,0.306996 0.174999,0.262004 0.175001,0.263001 0.130999,0.262001 0.175001,0.262997 0.174999,0.305999 0.175,0.263001 0.130998,0.262001 0.176003,0.263 0.523998,0.786999 0.132002,0.262001 0.174999,0.263001 0.175001,0.218998 0.174999,0.262001 0.131001,0.262996 0.174999,0.262005 0.175001,0.218998 0.175,0.262001 0.174999,0.219002 0.131,0.262997 0.175,0.219001 0.174999,0.262001 0.176002,0.218998 0.130001,0.262001 0.174996,0.219002 0.176002,0.218998 0.175,0.219002 0.131,0.261997 0.174999,0.219002 0.175003,0.218998 0.175,0.218002 0.174999,0.218998 0.131,0.218998 0.175,0.175003 0.174999,0.219002 0.174999,0.217998 0.131001,0.219002 0.174999,0.174999 0.176002,0.218998 0.174,0.219002 0.131001,0.174999 0.175998,0.174 0.175,0.219002 0.175003,0.174999 0.173999,0.174999 0.132,0.219002 0.175,0.174999 0.174999,0.175 0.174999,0.174999 0.131001,0.174999 0.174999,0.175003 0.174999,0.174999 0.175003,0.175 0.174999,0.131 0.132,0.174999 0.174,0.175 0.174999,0.131 0.175,0.175999 0.132,0.131 0.175003,0.174996 0.173996,0.131004 0.175003,0.131001 0.132,0.131 0.174999,0.176003 0.174999,0.130993 0.350002,0.262004 0.130997,0.088 0.176003,0.131004 0.173999,0.131001 0.175999,0.132 0.130001,0.087 0.175999,0.131 0.174,0.08799 0.175998,0.131004 0.175003,0.088 0.131001,0.130997 0.174999,0.08701 0.174999,0.088 0.175,0.087 0.131,0.08799 0.174999,0.087 0.175003,0.088 0.175,0.087 0.132,0.088 0.173999,0.044 0.175999,0.087 0.174,0.044 0.175003,0.087 0.130997,0.044 0.176002,0.088 0.174995,0.043 0.174004,0.044 M 11.843,14.229001 l 0.175001,0.262 0.130999,0.261999 0.525001,0.788 0.132,0.263001 L 12.98,16.066 l 0.175001,0.263 0.174999,0.306 0.175001,0.262001 0.132,0.262999 0.174,0.262001 0.175,0.306999 0.176,0.262001 0.130999,0.306 0.350001,0.525 0.175,0.305999 0.130999,0.263001 0.350001,0.611999 0.175,0.263001 0.175,0.306 0.130999,0.263 0.175001,0.306 0.174998,0.306 0.176003,0.262998 0.129999,0.306002 0.174999,0.306 0.176001,0.305999 0.174999,0.263001 0.175001,0.306 0.131001,0.305999 0.349998,0.613001 0.175001,0.306 0.131001,0.263 0.349998,0.612 0.175001,0.307001 L 18.58,25.91 l 0.175001,0.306002 0.176001,0.305999 0.348997,0.613001 0.132002,0.306 0.175001,0.306 0.349998,0.612997 0.131001,0.306003 0.174999,0.306 0.175001,0.306999 0.174999,0.306 0.131001,0.306 0.174999,0.306 0.175001,0.306001 0.350001,0.612999 0.132,0.306 0.523998,0.919002 0.132002,0.306 0.524,0.918999 0.175999,0.349998 0.131,0.306 0.174999,0.307003 0.175002,0.306 0.174999,0.261997 0.131,0.307003 0.175,0.305996 0.175001,0.306004 0.174999,0.305999 0.131,0.306 0.350001,0.612999 0.174997,0.306 0.176003,0.306999 0.130998,0.306 0.174002,0.306003 0.175999,0.262997 0.175001,0.306004 0.130998,0.305999 0.175002,0.306 0.174999,0.262997 0.175001,0.306003 0.130999,0.306 0.175001,0.306999 0.174999,0.262001 0.175001,0.306 0.174999,0.306999 0.130999,0.262001 0.175001,0.306 0.176001,0.263001 0.173999,0.305999 0.131001,0.263001 0.175999,0.305996" /><path
               id="path44"
               style="fill:none;stroke:#000000;stroke-width:0.37500003;stroke-linecap:butt;stroke-linejoin:round;stroke-miterlimit:4;stroke-dasharray:none;stroke-opacity:1"
               d="M 9.5240002,10.772 9.6990004,11.035001 9.8740005,11.253 10.005,11.516001 l 0.176001,0.219 0.173999,0.262 0.175,0.219 0.132001,0.263 0.175,0.218 L 11.012,12.96 l 0.174001,0.262001 0.132,0.263 0.175,0.218999 0.349999,0.525001" /><path
               id="path46"
               style="fill:#000000;fill-opacity:1;fill-rule:nonzero;stroke:none"
               d="M 0.42400002,33.304001 H 249.27402" /><path
               id="path48"
               style="fill:#000000;fill-opacity:1;fill-rule:nonzero;stroke:none"
               d="m 248.73901,33.304001 -1.15001,1.891003 0.064,0.043 3.08399,-1.225003 c 1.075,-0.236999 2.15,-0.472999 3.225,-0.708999 -1.075,-0.237 -2.15,-0.473 -3.225,-0.709999 l -3.08399,-1.225001 -0.064,0.032 1.15001,1.903" /><path
               id="path50"
               style="fill:#000000;fill-opacity:1;fill-rule:nonzero;stroke:none"
               d="M 126.08501,0 V 74.443001" /><path
               id="path52"
               style="fill:#000000;fill-opacity:1;fill-rule:nonzero;stroke:none"
               d="m 126.08501,73.907005 -1.892,-1.150001 -0.043,0.064 1.22602,3.084999 c 0.236,1.074997 0.473,2.148994 0.709,3.223991 0.237,-1.074997 0.473,-2.148994 0.709,-3.223991 l 1.225,-3.084999 -0.032,-0.064 -1.902,1.150001" /><text
               id="text56"
               style="font-variant:normal;font-weight:normal;font-size:11.95500088px;font-family:CMMI12;-inkscape-font-specification:CMMI12;writing-mode:lr-tb;fill:#231f20;fill-opacity:1;fill-rule:nonzero;stroke:none"
               transform="matrix(1,0,0,-1,128.40089,68)"><tspan
                 id="tspan54"
                 y="0"
                 x="0">f</tspan></text>
<text
               id="text60"
               style="font-variant:normal;font-weight:normal;font-size:11.95500088px;font-family:CMR12;-inkscape-font-specification:CMR12;writing-mode:lr-tb;fill:#231f20;fill-opacity:1;fill-rule:nonzero;stroke:none"
               transform="matrix(1,0,0,-1,135.44836,68)"><tspan
                 id="tspan58"
                 y="0"
                 x="0">(</tspan></text>
<text
               id="text64"
               style="font-variant:normal;font-weight:normal;font-size:11.95500088px;font-family:CMMI12;-inkscape-font-specification:CMMI12;writing-mode:lr-tb;fill:#231f20;fill-opacity:1;fill-rule:nonzero;stroke:none"
               transform="matrix(1,0,0,-1,139.99963,68)"><tspan
                 id="tspan62"
                 y="0"
                 x="0">t</tspan></text>
<text
               id="text68"
               style="font-variant:normal;font-weight:normal;font-size:11.95500088px;font-family:CMR12;-inkscape-font-specification:CMR12;writing-mode:lr-tb;fill:#231f20;fill-opacity:1;fill-rule:nonzero;stroke:none"
               transform="matrix(1,0,0,-1,144.22693,68)"><tspan
                 id="tspan66"
                 y="0"
                 x="0">)</tspan></text>
<text
               id="text72"
               style="font-variant:normal;font-weight:normal;font-size:11.95500088px;font-family:CMMI12;-inkscape-font-specification:CMMI12;writing-mode:lr-tb;fill:#231f20;fill-opacity:1;fill-rule:nonzero;stroke:none"
               transform="matrix(1,0,0,-1,262.42603,30.821142)"><tspan
                 id="tspan70"
                 y="0"
                 x="0">t</tspan></text>
<text
               id="text76"
               style="font-variant:normal;font-weight:normal;font-size:11.95500088px;font-family:CMR12;-inkscape-font-specification:CMR12;writing-mode:lr-tb;fill:#231f20;fill-opacity:1;fill-rule:nonzero;stroke:none"
               transform="matrix(1,0,0,-1,150.99945,68)"><tspan
                 id="tspan74"
                 y="0"
                 x="0">=</tspan></text>
<text
               id="text80"
               style="font-variant:normal;font-weight:normal;font-size:11.95500088px;font-family:CMR12;-inkscape-font-specification:CMR12;writing-mode:lr-tb;fill:#231f20;fill-opacity:1;fill-rule:nonzero;stroke:none"
               transform="matrix(1,0,0,-1,163.43027,68)"><tspan
                 id="tspan78"
                 y="0"
                 x="0 4.6146302 7.8663907">sin</tspan></text>
<text
               id="text84"
               style="font-variant:normal;font-weight:normal;font-size:11.95500088px;font-family:CMMI12;-inkscape-font-specification:CMMI12;writing-mode:lr-tb;fill:#231f20;fill-opacity:1;fill-rule:nonzero;stroke:none"
               transform="matrix(1,0,0,-1,179.79068,68)"><tspan
                 id="tspan82"
                 y="0"
                 x="0">t</tspan></text>
</g></g></g></g></g></svg>