<?xml version="1.0" encoding="UTF-8" standalone="no"?>
<svg
   xmlns:dc="http://purl.org/dc/elements/1.1/"
   xmlns:cc="http://creativecommons.org/ns#"
   xmlns:rdf="http://www.w3.org/1999/02/22-rdf-syntax-ns#"
   xmlns:svg="http://www.w3.org/2000/svg"
   xmlns="http://www.w3.org/2000/svg"
   viewBox="0 0 356 106.66667"
   height="106.66667"
   width="356"
   xml:space="preserve"
   id="svg2"
   version="1.1"><metadata
     id="metadata8"><rdf:RDF><cc:Work
         rdf:about=""><dc:format>image/svg+xml</dc:format><dc:type
           rdf:resource="http://purl.org/dc/dcmitype/StillImage" /></cc:Work></rdf:RDF></metadata><defs
     id="defs6"><clipPath
       id="clipPath24"
       clipPathUnits="userSpaceOnUse"><path
         id="path22"
         d="M 0,0 H 267 V 80 H 0 Z" /></clipPath><clipPath
       id="clipPath34"
       clipPathUnits="userSpaceOnUse"><path
         id="path32"
         d="M 0.06,0 H 266.22302 V 79.129997 H 0.06 Z" /></clipPath></defs><g
     transform="matrix(1.3333333,0,0,-1.3333333,0,106.66667)"
     id="g10"><g
       id="g12" /><g
       id="g14" /><g
       id="g16"><g
         id="g18"><g
           clip-path="url(#clipPath24)"
           id="g20"><g
             id="g26" /><g
             id="g28"><g
               clip-path="url(#clipPath34)"
               id="g30"><path
                 id="path36"
                 style="fill:none;stroke:#231f20;stroke-width:0.37500003;stroke-linecap:butt;stroke-linejoin:round;stroke-miterlimit:4;stroke-dasharray:none;stroke-opacity:1"
                 d="m 223.78201,22.716002 0.176,0.305999 0.17399,0.306 0.13102,0.263001 0.17498,0.305999 0.17601,0.306 0.17501,0.306 0.17399,0.307001 0.13201,0.306 0.17497,0.305999 0.35001,0.612999 0.13101,0.306002 0.35,0.612 0.17501,0.263 0.17498,0.306 0.13201,0.306 0.17399,0.306999 0.17501,0.35 0.175,0.306 0.132,0.306 0.17501,0.306001 0.17399,0.307 0.17501,0.305999 0.13198,0.306 0.35001,0.613001 0.174,0.306 0.17601,0.305999 0.13099,0.306998 0.17501,0.305002 0.34999,0.612999 0.13099,0.306003 0.52501,0.918999 0.13201,0.306 0.17399,0.306999 0.34999,0.612 0.17601,0.305999 0.13099,0.307003 0.17401,0.306 0.17599,0.306 0.175,0.306 0.13102,0.306999 0.17498,0.306 0.17501,0.262001 0.35,0.612999 0.131,0.305999 0.17599,0.306 0.17501,0.306999 0.17399,0.262001 0.13201,0.307 0.175,0.305 0.175,0.306999 0.17501,0.262001 0.13098,0.306999 0.17502,0.306 0.17497,0.262001 0.17502,0.306999 0.17499,0.262001 0.13101,0.307 0.175,0.305 0.175,0.263 0.17501,0.306 0.13198,0.263001 0.17501,0.262001 0.17399,0.306999 0.17601,0.262001 0.131,0.306 0.175,0.263 0.34999,0.524998 0.17501,0.306 0.13099,0.263 0.17499,0.262001 0.17502,0.263001 0.17499,0.262001 0.13101,0.262996 0.35001,0.525002 0.17498,0.262001 0.17501,0.263 0.13099,0.261998 0.17601,0.219001 0.174,0.262001 0.17599,0.263001 0.13102,0.262997 0.17498,0.218002 0.17501,0.263 0.175,0.218995 0.131,0.262004 0.17499,0.219002 0.17501,0.261997 0.17499,0.219002 0.175,0.262001 m -32.68199,-49.6120039 0.17501,0.087 0.13197,0.088 0.17502,0.1309999 0.17499,0.088 0.17401,0.131 0.132,0.087 0.175,0.1319999 0.17501,0.087 L 208.951,2.634 209.08301,2.7659999 209.257,2.897 l 0.17501,0.088 0.175,0.1310001 0.175,0.131 0.13201,0.1310001 0.17399,0.1749999 0.17501,0.1310001 0.17498,0.1319999 0.13199,0.1310001 0.17502,0.1749999 0.174,0.1310001 0.17601,0.1749997 0.13099,0.1319999 0.17501,0.1740003 0.17498,0.1750002 0.17501,0.1309996 0.175,0.1760001 0.131,0.1750002 0.35,0.3499999 0.176,0.1750002 0.13,0.1749997 0.17501,0.1750002 0.17498,0.2189998 0.17601,0.1740003 0.17501,0.1749997 0.12999,0.2190004 0.17599,0.1749997 0.175,0.1750002 0.17499,0.2189998 0.13101,0.2190004 0.17501,0.1750001 0.35,0.4369994 0.131,0.2190008 0.175,0.1749992 0.176,0.2189999 0.17399,0.2180004 0.17501,0.2189999 0.13099,0.2189998 0.17601,0.2190008 0.17501,0.2619992 0.17399,0.219001 0.13201,0.219 0.17497,0.218999 0.17502,0.262001 0.17499,0.219 0.17401,0.262 0.132,0.219 0.175,0.262 0.17501,0.218999 0.17498,0.263001 0.13201,0.217999 0.17399,0.263001 0.35001,0.525 0.132,0.218999 0.17501,0.262 0.17399,0.263001 0.17501,0.262 0.17498,0.263 0.13199,0.262 0.17502,0.263 0.174,0.262 0.17601,0.263 0.13099,0.306 0.34999,0.524999 0.17501,0.263001 0.13099,0.262001 0.17501,0.305999 0.175,0.262999 0.175,0.262001 0.176,0.306 0.13,0.263 0.17501,0.306 0.17498,0.263001 0.17601,0.305999 0.13099,0.261999 0.17401,0.307002 0.17599,0.261999 0.175,0.305999 0.17499,0.307002 0.13101,0.261999 0.17501,0.305999 0.35,0.613001 0.131,0.261999 0.175,0.307002" /><path
                 id="path38"
                 style="fill:none;stroke:#231f20;stroke-width:0.37500003;stroke-linecap:butt;stroke-linejoin:round;stroke-miterlimit:4;stroke-dasharray:none;stroke-opacity:1"
                 d="m 191.10101,7.1410003 0.17501,-0.2189999 0.34999,-0.3499999 0.13099,-0.2190003 0.35001,-0.3499999 0.175,-0.1750002 0.176,-0.1749997 0.13,-0.1750002 0.17501,-0.1749997 0.17498,-0.1750002 0.17601,-0.1750002 0.131,-0.1310001 0.174,-0.1749997 0.17601,-0.1750002 0.17497,-0.131 0.13103,-0.1749997 0.17498,-0.132 0.17501,-0.1310003 0.175,-0.1749999 0.175,-0.1310001 0.131,-0.131 0.175,-0.1309998 0.176,-0.1320002 L 195.257,3.072 l 0.13102,-0.1309998 0.17498,-0.1310003 0.17601,-0.1319997 0.17501,-0.087 L 196.04401,2.46 196.22,2.3280001 l 0.175,-0.087 0.17499,-0.1310003 0.17502,-0.088 0.131,-0.087 0.175,-0.132 0.175,-0.087 0.17501,-0.088 0.13099,-0.087 0.176,-0.088 0.17399,-0.087 0.17501,-0.088 0.175,-0.087 0.132,-0.044 0.17501,-0.087 0.17399,-0.0879998 0.17501,-0.044 0.13197,-0.087 0.17502,-0.044 0.17499,-0.044 0.17401,-0.087 0.132,-0.044 0.175,-0.044 0.17501,-0.044 0.34999,-0.087 0.13099,-0.044 h 0.17501 l 0.175,-0.0430001 0.175,-0.044 h 0.13201 l 0.17399,-0.044 h 0.34999 l 0.13199,-0.044 h 1.18102 l 0.175,0.044 h 0.131 l 0.175,0.044 h 0.175 l 0.176,0.044 h 0.17399 l 0.13102,0.0430001 0.17498,0.044 0.17601,0.044 0.17501,0.043 0.12999,0.044 0.17599,0.044 0.175,0.044 0.17499,0.044 0.13101,0.043 0.17501,0.088 0.175,0.043 0.175,0.088 0.17501,0.0439999 0.13099,0.087 0.176,0.044 0.17399,0.088 0.17501,0.087 0.13099,0.087 0.17601,0.088 0.17501,0.087 0.17399,0.088 m -32.681,32.4620031 0.176,-0.306 0.13,-0.306 0.34999,-0.613003 0.17601,-0.305999 0.17499,-0.306 0.13001,-0.306 0.17599,-0.306 0.35001,-0.612999 0.13099,-0.306001 0.52501,-0.918999 0.131,-0.306 0.175,-0.306001 0.176,-0.307 0.17399,-0.305999 0.17501,-0.306 0.13099,-0.307001 0.17601,-0.306 0.17499,-0.306 0.17401,-0.305999 0.13199,-0.307002 0.34999,-0.611999 0.17502,-0.306 0.174,-0.306002 0.132,-0.306999 0.34999,-0.611999 0.175,-0.306999 0.13201,-0.262001 0.17399,-0.306 0.35001,-0.612999 0.132,-0.306 0.17499,-0.263 0.17401,-0.306 0.17501,-0.306002 0.17498,-0.306 0.13201,-0.262998 0.17499,-0.306002 0.17401,-0.306 0.17599,-0.262998 0.13101,-0.306002 0.17501,-0.306 0.17498,-0.262998 0.17501,-0.306002 0.175,-0.262998 0.131,-0.306 0.175,-0.262001 0.175,-0.263001 0.176,-0.305999 0.13,-0.262 0.17501,-0.307001 0.17498,-0.261999 0.17601,-0.263 0.131,-0.261999 0.174,-0.307002 0.17599,-0.261999 0.35001,-0.525 0.13099,-0.262 0.17501,-0.263 0.35,-0.525 0.131,-0.262001 0.175,-0.262999 0.176,-0.263001 0.17399,-0.217999 0.13102,-0.263001 0.17498,-0.262999 0.17601,-0.262 0.17499,-0.218001 0.17401,-0.262999 0.13199,-0.219 0.175,-0.262 0.17499,-0.219001 0.17502,-0.262999 0.131,-0.218001 0.175,-0.219 0.175,-0.262999 0.17501,-0.219001 0.17498,-0.217999 0.13201,-0.2190006 0.17399,-0.2189998 0.17501,-0.2180004 0.175,-0.2189999 0.132,-0.2189999 0.17499,-0.2189998 0.17401,-0.2180004 0.17501,-0.2189999 0.13197,-0.1750002 L 190.62,7.71 190.79401,7.5340004 190.97,7.3160005 191.10101,7.1410003" /><path
                 id="path40"
                 style="fill:none;stroke:#231f20;stroke-width:0.37500003;stroke-linecap:butt;stroke-linejoin:round;stroke-miterlimit:4;stroke-dasharray:none;stroke-opacity:1"
                 d="m 158.46301,58.372002 0.13199,-0.175 0.17499,-0.131 0.17502,-0.131001 0.17499,-0.175998 0.13101,-0.131001 0.175,-0.174999 0.175,-0.174999 0.17499,-0.131001 0.13101,-0.174999 0.176,-0.175003 0.17399,-0.174999 0.35001,-0.349999 0.132,-0.174999 0.17499,-0.175003 0.17401,-0.174999 0.17499,-0.175 0.132,-0.218998 0.17499,-0.175003 0.17502,-0.174999 0.174,-0.218998 0.132,-0.174003 0.175,-0.218998 0.17499,-0.175 0.35001,-0.437999 0.13099,-0.218006 0.17501,-0.175995 0.35,-0.437001 0.13199,-0.219001 0.17401,-0.218998 0.34999,-0.437001 0.17601,-0.219001 0.13099,-0.261998 0.17401,-0.219001 0.17599,-0.218998 0.175,-0.262001 0.131,-0.219002 0.175,-0.218998 0.17501,-0.262001 0.175,-0.218998 0.131,-0.263001 0.175,-0.262001 0.175,-0.219001 0.176,-0.261998 0.17399,-0.263 0.131,-0.262001 0.175,-0.218998 0.17601,-0.263001 0.17499,-0.262001 0.13001,-0.262001 0.17599,-0.263 0.17499,-0.263001 0.17502,-0.261997 0.17499,-0.263 0.13101,-0.262001 0.175,-0.306 0.175,-0.263001 0.17499,-0.263004 0.13101,-0.261993 0.176,-0.262001 0.17399,-0.307 0.17501,-0.262001 0.13099,-0.305999 0.17601,-0.263001 0.17499,-0.262001 0.17401,-0.306999 0.17499,-0.262001 0.132,-0.306 0.17499,-0.263 0.17502,-0.306 0.174,-0.306999 0.132,-0.262001 0.175,-0.306 0.17499,-0.263001 0.175,-0.305999 0.13201,-0.306 0.17399,-0.306 0.17501,-0.263 0.175,-0.306 0.175,-0.307003 0.13199,-0.305996 0.17401,-0.306 0.17501,-0.262001 0.17498,-0.306999 0.13201,-0.306 0.17499,-0.306 0.17401,-0.305999 0.17599,-0.307 0.175,-0.306003 0.131,-0.306 0.175,-0.306999 0.17501,-0.306 0.175,-0.306 0.131,-0.305999 0.35,-0.612999 m -32.681,23.757 0.17499,0.174999 0.175,0.131 0.13201,0.131001 0.17399,0.131 0.17501,0.175 0.175,0.132 0.132,0.131 0.17499,0.131001 0.17401,0.131 0.17499,0.088 0.175,0.131 0.13199,0.131001 0.17502,0.132 0.174,0.087 0.17599,0.130997 0.13101,0.088 0.17499,0.131001 0.175,0.088 0.17501,0.087 0.175,0.088 0.131,0.087 0.175,0.088 0.175,0.087 0.176,0.088 0.13,0.087 0.17499,0.088 0.175,0.087 0.17601,0.044 0.13099,0.087 0.17401,0.044 0.17599,0.088 0.175,0.043 0.17499,0.088 0.13101,0.044 0.17501,0.043 0.175,0.044 0.175,0.044 0.131,0.044 0.175,0.043 0.176,0.044 h 0.17399 l 0.17501,0.044 0.13099,0.043 h 0.17601 l 0.17499,0.04401 h 0.306 l 0.175,0.044 h 1.006 l 0.175,-0.044 h 0.306 l 0.17501,-0.04401 h 0.175 l 0.132,-0.043 h 0.17499 l 0.17401,-0.044 0.17499,-0.044 0.132,-0.043 0.17499,-0.044 0.17502,-0.044 0.174,-0.044 0.17599,-0.043 0.13101,-0.044 0.17499,-0.088 0.175,-0.043 0.17501,-0.044 0.13099,-0.088 0.17501,-0.043 0.175,-0.088 0.175,-0.087 0.176,-0.088 0.13,-0.043 0.17499,-0.088 0.175,-0.087 0.17601,-0.08799 0.13099,-0.088 0.17401,-0.131001 0.17599,-0.087 0.175,-0.088 0.131,-0.087 0.175,-0.131004 0.17501,-0.08799 0.175,-0.131 0.175,-0.132 0.131,-0.087 0.175,-0.131001 0.176,-0.132 0.17399,-0.131 0.131,-0.131001 0.175,-0.131 0.17601,-0.132 0.17499,-0.131001 0.17401,-0.131" /><path
                 id="path42"
                 style="fill:none;stroke:#231f20;stroke-width:0.37500003;stroke-linecap:butt;stroke-linejoin:round;stroke-miterlimit:4;stroke-dasharray:none;stroke-opacity:1"
                 d="m 125.78201,33.172001 0.132,0.306 0.174,0.305999 0.34999,0.613003 0.17601,0.306 0.13099,0.306 0.17401,0.306999 0.176,0.306 0.17499,0.305999 0.13101,0.307 0.52499,0.917999 0.13101,0.306003 0.175,0.307 0.175,0.262001 0.176,0.305999 0.17399,0.307 0.131,0.305999 0.175,0.306 0.17601,0.306996 0.17499,0.262004 0.13001,0.306 0.17599,0.306999 0.175,0.262001 0.35001,0.612996 0.131,0.262004 0.35,0.612999 0.17499,0.262001 0.13101,0.306 0.176,0.263001 0.17399,0.305999 0.17501,0.262001 0.13099,0.263001 0.17601,0.306 0.17499,0.262996 0.17401,0.306004 0.17499,0.262997 0.132,0.262001 0.17501,0.262001 0.17499,0.306999 0.17401,0.262001 0.132,0.263 0.52499,0.786999 0.17501,0.263001 0.13099,0.262001 0.52501,0.787998 0.13199,0.218002 0.17401,0.262997 0.17499,0.263 0.175,0.218003 0.13199,0.263 0.17502,0.261997 0.174,0.219002 0.17599,0.262001 0.175,0.218998 0.131,0.263001 0.52501,0.655998 0.131,0.262997 0.35,0.437004 0.176,0.219001 0.13,0.218998 0.34999,0.437001 0.17601,0.219001 0.17499,0.218995 0.13001,0.218006 0.17599,0.174999 0.34999,0.438 0.13101,0.174999 0.17501,0.218002 0.175,0.174999 0.175,0.175 0.17499,0.219001 0.13101,0.175 0.176,0.174999 0.17399,0.218998 0.17501,0.175003 0.13099,0.174999 0.17601,0.174999 0.17499,0.175 0.17401,0.174999 0.13199,0.131 0.175,0.175003 0.17501,0.175 0.17499,0.174999 0.17401,0.131 0.132,0.175 0.175,0.132" /><path
                 id="path44"
                 style="fill:#231f20;fill-opacity:1;fill-rule:nonzero;stroke:none"
                 d="M 0,33.303001 H 248.85101" /></g></g><g
             id="g46"><path
               id="path48"
               style="fill:#231f20;fill-opacity:1;fill-rule:nonzero;stroke:none"
               d="m 248.31502,33.303001 -1.149,1.892003 0.064,0.043 3.08401,-1.226002 c 1.075,-0.236 2.149,-0.472 3.22501,-0.709 -1.07601,-0.236 -2.15001,-0.473003 -3.22501,-0.708999 l -3.08401,-1.225001 -0.064,0.032 1.149,1.902" /><path
               id="path50"
               style="fill:#231f20;fill-opacity:1;fill-rule:nonzero;stroke:none"
               d="M 125.662,0 V 74.442001" /><path
               id="path52"
               style="fill:#231f20;fill-opacity:1;fill-rule:nonzero;stroke:none"
               d="m 125.662,73.907005 -1.892,-1.150001 -0.043,0.064 1.22599,3.084999 c 0.236,1.07399 0.472,2.148994 0.709,3.223991 0.236,-1.074997 0.472,-2.150001 0.709,-3.223991 l 1.22501,-3.084999 -0.032,-0.064 -1.902,1.150001" /><text
               id="text56"
               style="font-variant:normal;font-weight:normal;font-size:11.95500088px;font-family:CMMI12;-inkscape-font-specification:CMMI12;writing-mode:lr-tb;fill:#231f20;fill-opacity:1;fill-rule:nonzero;stroke:none"
               transform="matrix(1,0,0,-1,262.00201,30.8209)"><tspan
                 id="tspan54"
                 y="0"
                 x="0">t</tspan></text>
<text
               id="text60"
               style="font-variant:normal;font-weight:normal;font-size:11.95500088px;font-family:CMMI12;-inkscape-font-specification:CMMI12;writing-mode:lr-tb;fill:#231f20;fill-opacity:1;fill-rule:nonzero;stroke:none"
               transform="matrix(1,0,0,-1,130.35474,69.999832)"><tspan
                 id="tspan58"
                 y="0"
                 x="0">h</tspan></text>
<text
               id="text64"
               style="font-variant:normal;font-weight:normal;font-size:11.95500088px;font-family:CMR12;-inkscape-font-specification:CMR12;writing-mode:lr-tb;fill:#231f20;fill-opacity:1;fill-rule:nonzero;stroke:none"
               transform="matrix(1,0,0,-1,137.09377,69.999832)"><tspan
                 id="tspan62"
                 y="0"
                 x="0">(</tspan></text>
<text
               id="text68"
               style="font-variant:normal;font-weight:normal;font-size:11.95500088px;font-family:CMMI12;-inkscape-font-specification:CMMI12;writing-mode:lr-tb;fill:#231f20;fill-opacity:1;fill-rule:nonzero;stroke:none"
               transform="matrix(1,0,0,-1,141.64622,69.999832)"><tspan
                 id="tspan66"
                 y="0"
                 x="0">t</tspan></text>
<text
               id="text72"
               style="font-variant:normal;font-weight:normal;font-size:11.95500088px;font-family:CMR12;-inkscape-font-specification:CMR12;writing-mode:lr-tb;fill:#231f20;fill-opacity:1;fill-rule:nonzero;stroke:none"
               transform="matrix(1,0,0,-1,145.87352,69.999832)"><tspan
                 id="tspan70"
                 y="0"
                 x="0">)</tspan></text>
<text
               id="text76"
               style="font-variant:normal;font-weight:normal;font-size:11.95500088px;font-family:CMR12;-inkscape-font-specification:CMR12;writing-mode:lr-tb;fill:#231f20;fill-opacity:1;fill-rule:nonzero;stroke:none"
               transform="matrix(1,0,0,-1,153.74709,69.999832)"><tspan
                 id="tspan74"
                 y="0"
                 x="0">=</tspan></text>
<text
               id="text80"
               style="font-variant:normal;font-weight:normal;font-size:11.95500088px;font-family:CMMI12;-inkscape-font-specification:CMMI12;writing-mode:lr-tb;fill:#231f20;fill-opacity:1;fill-rule:nonzero;stroke:none"
               transform="matrix(1,0,0,-1,166.17311,69.999832)"><tspan
                 id="tspan78"
                 y="0"
                 x="0">f</tspan></text>
<text
               id="text84"
               style="font-variant:normal;font-weight:normal;font-size:11.95500088px;font-family:CMR12;-inkscape-font-specification:CMR12;writing-mode:lr-tb;fill:#231f20;fill-opacity:1;fill-rule:nonzero;stroke:none"
               transform="matrix(1,0,0,-1,173.21939,69.999832)"><tspan
                 id="tspan82"
                 y="0"
                 x="0">(</tspan></text>
<text
               id="text88"
               style="font-variant:normal;font-weight:normal;font-size:11.95500088px;font-family:CMMI12;-inkscape-font-specification:CMMI12;writing-mode:lr-tb;fill:#231f20;fill-opacity:1;fill-rule:nonzero;stroke:none"
               transform="matrix(1,0,0,-1,177.77185,69.999832)"><tspan
                 id="tspan86"
                 y="0"
                 x="0">t</tspan></text>
<text
               id="text92"
               style="font-variant:normal;font-weight:normal;font-size:11.95500088px;font-family:CMR12;-inkscape-font-specification:CMR12;writing-mode:lr-tb;fill:#231f20;fill-opacity:1;fill-rule:nonzero;stroke:none"
               transform="matrix(1,0,0,-1,181.99915,69.999832)"><tspan
                 id="tspan90"
                 y="0"
                 x="0">)</tspan></text>
<text
               id="text96"
               style="font-variant:normal;font-weight:normal;font-size:11.95500088px;font-family:CMMI12;-inkscape-font-specification:CMMI12;writing-mode:lr-tb;fill:#231f20;fill-opacity:1;fill-rule:nonzero;stroke:none"
               transform="matrix(1,0,0,-1,186.55161,69.999832)"><tspan
                 id="tspan94"
                 y="0"
                 x="0">u</tspan></text>
<text
               id="text100"
               style="font-variant:normal;font-weight:normal;font-size:11.95500088px;font-family:CMR12;-inkscape-font-specification:CMR12;writing-mode:lr-tb;fill:#231f20;fill-opacity:1;fill-rule:nonzero;stroke:none"
               transform="matrix(1,0,0,-1,193.21413,69.999832)"><tspan
                 id="tspan98"
                 y="0"
                 x="0">(</tspan></text>
<text
               id="text104"
               style="font-variant:normal;font-weight:normal;font-size:11.95500088px;font-family:CMMI12;-inkscape-font-specification:CMMI12;writing-mode:lr-tb;fill:#231f20;fill-opacity:1;fill-rule:nonzero;stroke:none"
               transform="matrix(1,0,0,-1,197.76659,69.999832)"><tspan
                 id="tspan102"
                 y="0"
                 x="0">t</tspan></text>
<text
               id="text108"
               style="font-variant:normal;font-weight:normal;font-size:11.95500088px;font-family:CMR12;-inkscape-font-specification:CMR12;writing-mode:lr-tb;fill:#231f20;fill-opacity:1;fill-rule:nonzero;stroke:none"
               transform="matrix(1,0,0,-1,201.99388,69.999832)"><tspan
                 id="tspan106"
                 y="0"
                 x="0">)</tspan></text>
<text
               id="text112"
               style="font-variant:normal;font-weight:normal;font-size:11.95500088px;font-family:CMR12;-inkscape-font-specification:CMR12;writing-mode:lr-tb;fill:#231f20;fill-opacity:1;fill-rule:nonzero;stroke:none"
               transform="matrix(1,0,0,-1,209.86745,69.999832)"><tspan
                 id="tspan110"
                 y="0"
                 x="0">=</tspan></text>
<text
               id="text116"
               style="font-variant:normal;font-weight:normal;font-size:11.95500088px;font-family:CMR12;-inkscape-font-specification:CMR12;writing-mode:lr-tb;fill:#231f20;fill-opacity:1;fill-rule:nonzero;stroke:none"
               transform="matrix(1,0,0,-1,222.29349,69.999832)"><tspan
                 id="tspan114"
                 y="0"
                 x="0 4.6146302 7.8544354">sin</tspan></text>
<text
               id="text120"
               style="font-variant:normal;font-weight:normal;font-size:11.95500088px;font-family:CMMI12;-inkscape-font-specification:CMMI12;writing-mode:lr-tb;fill:#231f20;fill-opacity:1;fill-rule:nonzero;stroke:none"
               transform="matrix(1,0,0,-1,238.65747,69.999832)"><tspan
                 id="tspan118"
                 y="0"
                 x="0 4.2201152 7.4599204">t.u</tspan></text>
<text
               id="text124"
               style="font-variant:normal;font-weight:normal;font-size:11.95500088px;font-family:CMR12;-inkscape-font-specification:CMR12;writing-mode:lr-tb;fill:#231f20;fill-opacity:1;fill-rule:nonzero;stroke:none"
               transform="matrix(1,0,0,-1,252.79904,69.999832)"><tspan
                 id="tspan122"
                 y="0"
                 x="0">(</tspan></text>
<text
               id="text128"
               style="font-variant:normal;font-weight:normal;font-size:11.95500088px;font-family:CMMI12;-inkscape-font-specification:CMMI12;writing-mode:lr-tb;fill:#231f20;fill-opacity:1;fill-rule:nonzero;stroke:none"
               transform="matrix(1,0,0,-1,257.3515,69.999832)"><tspan
                 id="tspan126"
                 y="0"
                 x="0">t</tspan></text>
<text
               id="text132"
               style="font-variant:normal;font-weight:normal;font-size:11.95500088px;font-family:CMR12;-inkscape-font-specification:CMR12;writing-mode:lr-tb;fill:#231f20;fill-opacity:1;fill-rule:nonzero;stroke:none"
               transform="matrix(1,0,0,-1,261.57761,69.999832)"><tspan
                 id="tspan130"
                 y="0"
                 x="0">)</tspan></text>
</g></g></g></g></g></svg>