<?xml version="1.0" encoding="UTF-8" standalone="no"?>
<svg
   xmlns:dc="http://purl.org/dc/elements/1.1/"
   xmlns:cc="http://creativecommons.org/ns#"
   xmlns:rdf="http://www.w3.org/1999/02/22-rdf-syntax-ns#"
   xmlns:svg="http://www.w3.org/2000/svg"
   xmlns="http://www.w3.org/2000/svg"
   viewBox="0 0 550.66669 298.66666"
   height="298.66666"
   width="550.66669"
   xml:space="preserve"
   id="svg2"
   version="1.1"><metadata
     id="metadata8"><rdf:RDF><cc:Work
         rdf:about=""><dc:format>image/svg+xml</dc:format><dc:type
           rdf:resource="http://purl.org/dc/dcmitype/StillImage" /></cc:Work></rdf:RDF></metadata><defs
     id="defs6"><clipPath
       id="clipPath24"
       clipPathUnits="userSpaceOnUse"><path
         id="path22"
         d="M 0,0 H 413 V 224 H 0 Z" /></clipPath></defs><g
     transform="matrix(1.3333333,0,0,-1.3333333,0,298.66667)"
     id="g10"><g
       id="g12" /><g
       id="g14" /><g
       id="g16"><g
         id="g18"><g
           clip-path="url(#clipPath24)"
           id="g20"><g
             id="g26" /><g
             id="g28"><path
               id="path30"
               style="fill:none;stroke:#000000;stroke-width:1;stroke-linecap:butt;stroke-linejoin:round;stroke-miterlimit:4;stroke-dasharray:none;stroke-opacity:1"
               d="m 77.249001,153.121 h 1.200004 m -0.599998,0.60001 v -1.2 m -0.600006,26.99898 h 1.200004 M 77.849007,180.12 v -1.2 M 63.449001,144.32101 h 89.266009" /><path
               id="path32"
               style="fill:#000000;fill-opacity:1;fill-rule:nonzero;stroke:none"
               d="m 152.205,144.32101 -1.095,1.801 0.061,0.041 2.93699,-1.16701 c 1.024,-0.22499 2.04701,-0.44999 3.071,-0.67499 -1.02399,-0.225 -2.047,-0.45001 -3.071,-0.67601 l -2.93699,-1.166 -0.061,0.03 1.095,1.81201" /><path
               id="path34"
               style="fill:none;stroke:#000000;stroke-width:1;stroke-linecap:butt;stroke-linejoin:round;stroke-miterlimit:4;stroke-dasharray:none;stroke-opacity:1"
               d="m 77.849007,109.121 v 70.39899" /><path
               id="path36"
               style="fill:#000000;fill-opacity:1;fill-rule:nonzero;stroke:none"
               d="m 77.849007,179.00999 -1.801003,-1.09498 -0.041,0.062 1.167,2.93699 c 0.224998,1.024 0.449997,2.04701 0.675003,3.07102 0.224998,-1.02401 0.449997,-2.04702 0.675995,-3.07102 l 1.166,-2.93699 -0.03,-0.062 -1.811996,1.09498" /><path
               id="path38"
               style="fill:none;stroke:#000000;stroke-width:1;stroke-linecap:butt;stroke-linejoin:round;stroke-miterlimit:4;stroke-dasharray:none;stroke-opacity:1"
               d="m 132.565,146.438 0.13301,0.31601 0.15,0.317 0.134,0.316 0.14999,0.334 0.15001,0.31599 0.133,0.334 0.14999,0.317 0.15001,0.33301 0.133,0.33299 0.3,0.66701 0.134,0.33299 0.15,0.35001 0.14999,0.33299 0.13301,0.351 0.15,0.33301 0.13299,0.35 0.3,0.7 0.13401,0.34999 0.3,0.70001 0.133,0.366 0.14999,0.34999 0.15001,0.36701 0.13299,0.367 0.15001,0.34999 0.13399,0.36601 0.15001,0.36699 0.14999,0.36701 0.133,0.38299 0.3,0.73301 0.13301,0.384 0.15,0.38299 0.14999,0.36701 0.134,0.38299 0.15001,0.38301 0.133,0.38399 0.14999,0.40001 0.15001,0.383 0.133,0.38299 0.14999,0.40001 0.15001,0.384 0.134,0.4 0.29999,0.8 0.13301,0.4 0.29999,0.8 0.13301,0.39999 0.14999,0.416 0.13401,0.40001 0.3,0.834 0.133,0.416 0.3,0.834 0.13299,0.416 0.15001,0.41699 0.15,0.433 0.134,0.41701 0.14999,0.433 0.133,0.43298 0.15001,0.41702 0.14999,0.43299 0.13301,0.434 0.15,0.433 0.14999,0.45001 0.134,0.43299 0.15001,0.434 0.15,0.45 0.13299,0.45001 0.15001,0.433 0.133,0.45 0.3,0.89999 0.134,0.46701 0.29999,0.9 0.13301,0.46599 0.15,0.44999 0.14999,0.46701 0.13301,0.46701 0.3,0.933 0.13399,0.467 0.15001,0.46599 0.133,0.484 0.14999,0.46599 0.15001,0.48403 0.13299,0.46597 0.30001,0.96702 0.134,0.48299 0.3,0.96701 0.133,0.5 v 0.05 M 118.299,123.688 l 0.30001,0.30001 0.13299,0.15 0.15,0.13299 0.15001,0.167 0.133,0.15001 0.14999,0.15 0.13401,0.15 0.15,0.166 0.15,0.151 0.13299,0.16599 0.30001,0.33401 0.13299,0.16599 0.15,0.16701 0.15001,0.16599 0.133,0.167 0.14999,0.16701 0.13401,0.183 0.15,0.183 0.15,0.167 0.13299,0.183 0.30001,0.367 0.13299,0.183 0.15,0.20099 0.15001,0.183 0.134,0.183 0.29999,0.40001 0.13301,0.18399 0.15,0.19901 0.13299,0.19999 0.30001,0.40001 0.13399,0.217 0.15,0.2 0.15001,0.21699 0.133,0.20001 0.14999,0.21599 0.15,0.21701 0.13301,0.217 0.15,0.216 0.13399,0.217 0.15001,0.21699 0.15,0.233 0.13299,0.21701 0.15,0.23299 0.15001,0.21701 0.133,0.233 0.29999,0.467 0.13401,0.233 0.15,0.233 0.13299,0.25 0.15001,0.23399 0.15,0.25 0.13299,0.23301 0.30001,0.5 0.134,0.25 0.29999,0.5 0.13301,0.25 0.15,0.25 0.14999,0.26699 0.13301,0.26601 0.15,0.25 0.134,0.267 0.3,0.533 0.133,0.267 0.14999,0.267 0.15001,0.28299 0.133,0.26701 0.151,0.26599 0.149,0.284 0.134,0.28301 0.15,0.283 0.13299,0.284 0.30001,0.56599 0.134,0.28401 0.149,0.28299 0.14999,0.30001 0.13401,0.3 0.14999,0.283 0.15001,0.29999 0.133,0.3 0.14999,0.30001 0.13301,0.3 0.14999,0.3 0.15001,0.317 0.13399,0.29999 0.15001,0.317 0.14999,0.30001 0.133,0.31599 0.3,0.634" /><path
               id="path40"
               style="fill:none;stroke:#000000;stroke-width:1;stroke-linecap:butt;stroke-linejoin:round;stroke-miterlimit:4;stroke-dasharray:none;stroke-opacity:1"
               d="m 104.049,118.205 0.15001,-0.034 0.133,-0.016 0.14999,-0.034 0.15,-0.033 0.13301,-0.017 0.15,-0.016 0.14999,-0.034 0.13401,-0.016 0.15,-0.017 0.15,-0.017 h 0.13299 l 0.15001,-0.016 0.133,-0.017 h 0.14999 l 0.15,-0.017 h 0.86701 l 0.13299,0.017 h 0.15001 l 0.134,0.017 0.14999,0.016 h 0.15 l 0.13301,0.017 0.15,0.017 0.14999,0.016 0.13301,0.034 0.15,0.016 0.15,0.017 0.13399,0.033 0.15001,0.034 0.133,0.016 0.14999,0.034 0.15,0.033 0.13301,0.033 0.15,0.034 0.14999,0.05 0.13401,0.033 0.15,0.033 0.15,0.05 0.13299,0.05 0.15001,0.034 0.133,0.05 0.14999,0.05 0.15,0.066 0.13401,0.05 0.15,0.05 0.14999,0.05 0.13301,0.067 0.15,0.067 0.15,0.05 0.13299,0.066 0.15001,0.067 0.15,0.067 0.13399,0.066 0.15,0.084 0.13301,0.066 0.15,0.084 0.14999,0.066 0.13301,0.084 0.15,0.083 0.15,0.083 0.13399,0.084 0.15001,0.083 0.15,0.083 0.13299,0.084 0.15,0.1 0.13301,0.083 0.15,0.1 0.14999,0.1 0.13401,0.1 0.15,0.1 0.15,0.10001 0.13299,0.1 0.15001,0.1 0.15,0.1 0.13299,0.11701 0.15,0.116 0.13401,0.1 0.15,0.11701 0.14999,0.11699 0.13301,0.116 0.3,0.234 0.13299,0.13301 0.15001,0.11699 0.15,0.13301 0.13399,0.11699 0.15,0.13301 0.15001,0.13299 0.133,0.134 0.14999,0.13301 0.28301,0.283 0.15,0.134 0.13399,0.13299 m -28.499996,6.28301 0.150001,-0.21601 0.132996,-0.201 0.150001,-0.2 0.134003,-0.19999 0.150001,-0.19901 0.150002,-0.18399 0.132996,-0.20001 0.150001,-0.2 0.150002,-0.183 0.132995,-0.183 0.150002,-0.20099 0.150001,-0.183 0.134003,-0.18301 0.149994,-0.18399 0.133003,-0.183 0.150002,-0.167 0.150001,-0.183 0.132996,-0.183 0.300003,-0.33401 0.133995,-0.16599 0.300003,-0.333 0.133003,-0.167 0.149994,-0.16701 0.133003,-0.16599 0.150002,-0.15 0.149994,-0.167 0.134002,-0.15 0.300003,-0.30001 0.132996,-0.167 0.150002,-0.13299 0.150001,-0.15 0.132996,-0.15 0.150001,-0.15001 0.150002,-0.13299 0.284004,-0.28401 0.132996,-0.13299 0.300003,-0.26701 0.132995,-0.13299 0.150002,-0.13301 0.150001,-0.11699 0.134003,-0.13301 0.149994,-0.11699 0.150001,-0.13301 0.133004,-0.11699 0.150001,-0.11701 0.132996,-0.116 0.150001,-0.11699 0.150002,-0.11701 0.133995,-0.1 0.150001,-0.116 0.150002,-0.11701 0.133003,-0.1 0.149994,-0.1 0.150002,-0.1 0.133003,-0.10001 0.150001,-0.1 0.132996,-0.1 0.150001,-0.1 0.150002,-0.1 0.133995,-0.083 0.150002,-0.1 0.150001,-0.084 0.133003,-0.083 0.149994,-0.083 0.150002,-0.084 0.133006,-0.083 0.15,-0.083 0.15099,-0.084 0.13301,-0.066 0.15,-0.084 0.13299,-0.066 0.15,-0.084 0.15001,-0.066 0.133,-0.067 0.29999,-0.13299 0.13401,-0.05 0.15,-0.067 0.14999,-0.067 0.13301,-0.05 0.15,-0.05 0.13299,-0.05 0.15,-0.066 0.15001,-0.05 0.134,-0.05 0.14999,-0.034 0.15,-0.05 0.13301,-0.05 0.29999,-0.066 0.13301,-0.05 0.15,-0.034 0.13399,-0.033 0.15,-0.033" /><path
               id="path42"
               style="fill:none;stroke:#000000;stroke-width:1;stroke-linecap:butt;stroke-linejoin:round;stroke-miterlimit:4;stroke-dasharray:none;stroke-opacity:1"
               d="m 75.549004,158.97101 0.134002,-0.36701 0.299996,-0.76699 0.133003,-0.366 0.150001,-0.36701 0.132996,-0.38299 0.300003,-0.734 0.132996,-0.36601 0.150001,-0.34999 0.151001,-0.367 0.133003,-0.36701 0.149994,-0.34999 0.150002,-0.366 0.133003,-0.35 0.299996,-0.7 0.133003,-0.35 0.151001,-0.35 0.132995,-0.35 0.150002,-0.33301 0.150001,-0.351 0.133004,-0.33299 0.149994,-0.35001 0.150001,-0.33299 0.134003,-0.334 0.298996,-0.666 0.134002,-0.33301 0.150002,-0.317 0.132996,-0.334 0.150001,-0.31599 0.150002,-0.334 0.133003,-0.316 0.299995,-0.63301 0.134003,-0.317 0.299995,-0.63299 0.133004,-0.30001 0.150001,-0.317 0.132996,-0.29999 0.150001,-0.317 0.150002,-0.3 0.134002,-0.3 0.299996,-0.60001 0.133003,-0.29999 0.150002,-0.283 0.149994,-0.3 0.133003,-0.30001 0.300003,-0.567 0.133995,-0.28299 0.150001,-0.283 0.133004,-0.284 0.299995,-0.56601 0.133003,-0.284 0.299996,-0.533 0.134002,-0.28299 0.300003,-0.534 0.132996,-0.266 0.150002,-0.267 0.133003,-0.267 0.149994,-0.25 0.150001,-0.26601 0.134003,-0.26699 0.299995,-0.5 0.133004,-0.25 0.150001,-0.25 0.150002,-0.25 0.132995,-0.25 0.150002,-0.25 0.134002,-0.23301 0.149994,-0.25 0.150002,-0.23399 0.133003,-0.25 0.150002,-0.233 0.149994,-0.233 0.133003,-0.234 0.300003,-0.466 0.133995,-0.21701 0.150001,-0.23299 0.133004,-0.21701 0.149994,-0.233 0.150001,-0.21699 0.133003,-0.217 0.299996,-0.433 0.134002,-0.21701 0.150002,-0.21599 0.150001,-0.20001 0.132996,-0.21699 0.150002,-0.2 m -23.199997,56.016 0.017,-0.05 0.150001,-0.5 0.132996,-0.483 0.300003,-0.967 0.133995,-0.483 0.150002,-0.48402 0.150001,-0.46597 0.133003,-0.48403 0.149994,-0.46599 0.133004,-0.484 0.300003,-0.93299 0.133995,-0.46701 0.300003,-0.933 0.132995,-0.46701 0.150002,-0.44999 0.150001,-0.46599 0.133004,-0.45 0.149994,-0.45 0.134002,-0.46701 0.300003,-0.89999 0.132996,-0.45 0.150001,-0.433 0.150002,-0.45001 0.132996,-0.45 0.300003,-0.86699 0.134002,-0.45001 0.149994,-0.433 0.133003,-0.434 0.150002,-0.43299 0.150001,-0.41702 0.132996,-0.43298 0.150002,-0.433 0.150001,-0.41701 0.133995,-0.433 0.300003,-0.83299 0.133003,-0.41701 0.299996,-0.83299 0.133003,-0.41701 0.150002,-0.41699 0.133995,-0.40001 0.150001,-0.416 0.150002,-0.39999 0.132995,-0.4 0.300003,-0.8 0.133004,-0.40001 0.299995,-0.79999 0.134003,-0.384 0.150001,-0.40001 0.132996,-0.38299 0.150001,-0.383 0.150002,-0.40001 0.132996,-0.38399 0.300003,-0.766" /><text
               id="text46"
               style="font-variant:normal;font-weight:normal;font-size:11.95500088px;font-family:CMMI12;-inkscape-font-specification:CMMI12;writing-mode:lr-tb;fill:#231f20;fill-opacity:1;fill-rule:nonzero;stroke:none"
               transform="matrix(1,0,0,-1,82.666695,181.6667)"><tspan
                 id="tspan44"
                 y="0"
                 x="0">y</tspan></text>
<text
               id="text50"
               style="font-variant:normal;font-weight:normal;font-size:11.95500088px;font-family:CMMI12;-inkscape-font-specification:CMMI12;writing-mode:lr-tb;fill:#231f20;fill-opacity:1;fill-rule:nonzero;stroke:none"
               transform="matrix(1,0,0,-1,151.99973,136.33333)"><tspan
                 id="tspan48"
                 y="0"
                 x="0">x</tspan></text>
<path
               id="path52"
               style="fill:none;stroke:#000000;stroke-width:1;stroke-linecap:butt;stroke-linejoin:round;stroke-miterlimit:4;stroke-dasharray:none;stroke-opacity:1"
               d="m 200.70901,179.38301 h 1.2 m -0.6,0.59999 v -1.2 m 54.86601,-5.716 0.13299,0.31601 0.15,0.31699 0.134,0.31701 0.14999,0.33298 0.15,0.31702 0.13302,0.33299 0.15,0.317 0.14999,0.33299 0.133,0.33301 0.30002,0.66699 0.13397,0.33301 0.15002,0.35001 0.15,0.334 0.13299,0.35 0.15,0.33298 0.13299,0.35001 0.30002,0.70001 0.134,0.34999 0.29999,0.7 0.133,0.367 0.14999,0.35001 0.15002,0.36599 0.133,0.36701 0.14999,0.34999 0.13401,0.367 0.14999,0.366 0.14999,0.36699 0.133,0.38301 0.30002,0.73401 0.13299,0.38298 0.15,0.38301 0.14999,0.36701 0.134,0.38299 0.15,0.384 0.13302,0.383 0.15,0.39999 0.14999,0.38301 0.133,0.38302 0.14999,0.39999 m -20.44899,-37.99901 0.3,0.3 0.133,0.15001 0.14999,0.133 0.15001,0.16699 0.133,0.15001 0.15001,0.14999 0.13399,0.15001 0.15,0.167 0.14901,0.14999 0.13398,0.166 0.30001,0.334 0.13301,0.166 0.14999,0.16701 0.15,0.16699 0.13301,0.166 0.14999,0.16701 0.134,0.18298 0.15,0.18402 0.15001,0.16599 0.13299,0.184 0.30001,0.366 0.13299,0.18401 0.14999,0.19999 0.15001,0.183 0.13401,0.183 0.29998,0.40001 0.13302,0.184 0.14999,0.2 0.134,0.2 0.149,0.2 0.15,0.19999 0.134,0.21601 0.14999,0.19999 0.15001,0.21701 0.133,0.2 0.3,0.43298 0.133,0.21701 0.15001,0.21701 0.13398,0.21599 0.15001,0.21701 0.15,0.23299 0.13301,0.21701 0.14999,0.23299 0.15,0.21701 0.13301,0.23298 0.29998,0.46701 0.13401,0.23299 0.15001,0.23402 0.13299,0.25 0.15,0.23299 0.15001,0.25 0.134,0.233 0.29899,0.5 0.13401,0.25 0.29998,0.5 0.13302,0.25 0.14999,0.25 0.15001,0.267 0.13399,0.26601 0.149,0.25 0.134,0.26698 0.3,0.53302 0.133,0.26698 0.15001,0.26702 0.14999,0.28299 0.133,0.26701 0.15001,0.267 0.14999,0.283 0.134,0.28299 0.15,0.28301 0.13301,0.28399 0.29999,0.56601 0.13301,0.284 0.151,0.28299 0.14999,0.3 0.133,0.30001 0.15001,0.283 0.14999,0.3 0.133,0.301 0.15001,0.29899 0.13299,0.30001 0.151,0.3 0.149,0.31699 0.13401,0.3 0.14999,0.317 0.15001,0.3 0.133,0.31601 0.3,0.63399" /><path
               id="path54"
               style="fill:none;stroke:#000000;stroke-width:1;stroke-linecap:butt;stroke-linejoin:round;stroke-miterlimit:4;stroke-dasharray:none;stroke-opacity:1"
               d="m 227.65901,144.834 0.15,-0.034 0.13301,-0.016 0.14999,-0.034 0.14999,-0.033 0.13302,-0.016 0.14999,-0.017 0.15001,-0.033 0.13399,-0.017 0.15,-0.017 0.15,-0.016 h 0.13299 l 0.15001,-0.017 0.133,-0.017 h 0.15001 l 0.14999,-0.017 h 0.86701 l 0.13299,0.017 h 0.15 l 0.134,0.017 0.15001,0.017 h 0.14999 l 0.133,0.016 0.15001,0.017 0.14999,0.017 0.133,0.033 0.15001,0.017 0.14999,0.016 0.134,0.033 0.15,0.034 0.13301,0.016 0.14999,0.034 0.14999,0.033 0.13302,0.033 0.14999,0.034 0.15001,0.05 0.13399,0.033 0.15,0.033 0.15,0.051 0.13299,0.049 0.15001,0.034 0.133,0.05 0.15001,0.05 0.14999,0.067 0.134,0.05 0.15,0.05 0.15001,0.049 0.13299,0.067 0.15,0.067 0.15001,0.05 0.13299,0.066 0.15,0.067 0.15001,0.067 0.134,0.066 0.14999,0.084 0.133,0.067 0.15001,0.083 0.14999,0.066 0.133,0.084 0.15001,0.083 0.14999,0.083 0.134,0.084 0.15,0.083 0.15,0.083 0.133,0.084 0.14999,0.10001 0.13302,0.083 0.14999,0.1 0.15001,0.10001 0.13399,0.1 0.3,0.20001 0.13299,0.1 0.30001,0.2 0.13301,0.11701 0.14999,0.11599 0.134,0.1 0.15,0.11702 0.15001,0.11699 0.13299,0.116 0.30001,0.23401 0.13299,0.13299 0.15,0.11701 0.15001,0.13299 0.134,0.11701 0.29999,0.26599 0.13301,0.134 0.14999,0.13301 0.28301,0.28299 0.14999,0.13401 0.134,0.13299 m -28.5,6.28301 0.15,-0.21601 0.13301,-0.19999 0.14999,-0.2 0.134,-0.2 0.15,-0.2 0.15001,-0.184 0.13299,-0.20001 0.15,-0.2 0.15,-0.183 0.133,-0.183 0.14999,-0.19999 0.15001,-0.18401 0.13401,-0.183 0.14999,-0.183 0.133,-0.184 0.15,-0.16599 0.15,-0.18402 0.13299,-0.18298 0.30001,-0.33301 0.134,-0.16699 0.3,-0.33301 0.133,-0.16699 L 217.009,152 l 0.13301,-0.166 0.15,-0.14999 0.15001,-0.167 0.13398,-0.15001 0.30001,-0.3 0.13301,-0.16699 0.14999,-0.133 0.15,-0.15001 0.13301,-0.14999 0.14999,-0.15001 0.14999,-0.13299 0.28402,-0.28301 0.13299,-0.13399 0.3,-0.26701 0.133,-0.133 0.14999,-0.13299 0.15001,-0.11701 0.13401,-0.13299 0.14999,-0.11701 0.14999,-0.13299 0.13301,-0.11701 0.15,-0.117 0.13299,-0.116 0.15001,-0.11699 0.15,-0.11702 0.134,-0.1 0.3,-0.233 0.133,-0.1 0.15001,-0.10001 0.14999,-0.1 0.133,-0.1 0.15001,-0.10001 0.13398,-0.1 0.14901,-0.10001 0.15001,-0.1 0.134,-0.083 0.14999,-0.10001 0.15,-0.084 0.13301,-0.083 0.14999,-0.083 0.14999,-0.084 0.13302,-0.083 0.151,-0.083 0.14999,-0.084 0.133,-0.066 0.15,-0.083 0.133,-0.067 0.14999,-0.084 0.15001,-0.066 0.133,-0.067 0.151,-0.067 0.14999,-0.066 0.13301,-0.05 0.30001,-0.134 0.13299,-0.049 0.15,-0.05 0.13301,-0.05 0.15098,-0.067 0.14901,-0.05 0.134,-0.05 0.15001,-0.034 0.14999,-0.049 0.133,-0.051 0.15001,-0.033 0.14999,-0.033 0.133,-0.05 0.15001,-0.034 0.134,-0.033 0.14999,-0.033" /><path
               id="path56"
               style="fill:none;stroke:#000000;stroke-width:1;stroke-linecap:butt;stroke-linejoin:round;stroke-miterlimit:4;stroke-dasharray:none;stroke-opacity:1"
               d="m 199.15901,185.60001 0.134,-0.36701 0.29999,-0.76599 0.13301,-0.367 0.15,-0.36701 0.13299,-0.38301 0.30001,-0.73299 0.13301,-0.367 0.14999,-0.34999 0.14999,-0.36701 0.13401,-0.36599 0.15001,-0.35001 0.14999,-0.367 0.133,-0.34999 0.3,-0.7 0.13299,-0.35001 0.15001,-0.35 0.13401,-0.35001 0.14999,-0.33298 0.14999,-0.35 0.13301,-0.334 0.15,-0.35001 0.14999,-0.33301 0.13301,-0.33299 0.30001,-0.66701 0.13398,-0.33299 0.15001,-0.317 0.133,-0.33299 0.14999,-0.31702 0.15001,-0.33298 0.134,-0.31701 0.299,-0.633 0.134,-0.317 0.30001,-0.633 0.13299,-0.3 0.15,-0.317 0.134,-0.3 0.149,-0.31699 0.14999,-0.3 0.13401,-0.30001 0.3,-0.59999 0.133,-0.3 0.15,-0.283 0.15,-0.30001 0.13299,-0.3 0.30001,-0.56699 0.134,-0.28302 0.14999,-0.28299 0.13301,-0.28399 0.29999,-0.566 0.13301,-0.283 0.30001,-0.53401 0.13398,-0.28299 0.30001,-0.534 0.13299,-0.26601 0.15001,-0.26701 0.133,-0.26598 0.15001,-0.25 0.14999,-0.26701 0.134,-0.267 0.30001,-0.5 0.13299,-0.25 0.15,-0.25 0.15,-0.25 0.133,-0.25 0.14999,-0.25 0.13401,-0.233 0.15001,-0.25 0.14999,-0.23299 0.133,-0.25 0.3,-0.46701 0.13299,-0.233 0.30001,-0.46699 0.134,-0.21701 0.14999,-0.23299 0.13301,-0.21701 0.15,-0.23299 0.14999,-0.21701 0.13301,-0.21599 0.30001,-0.43402 0.13398,-0.21598 0.15001,-0.217 0.15,-0.2 0.13299,-0.21701 0.15001,-0.19999" /><text
               id="text60"
               style="font-variant:normal;font-weight:normal;font-size:11.95500088px;font-family:CMMI12;-inkscape-font-specification:CMMI12;writing-mode:lr-tb;fill:#231f20;fill-opacity:1;fill-rule:nonzero;stroke:none"
               transform="matrix(1,0,0,-1,208.841,181.4942)"><tspan
                 id="tspan58"
                 y="0"
                 x="0">y</tspan></text>
<text
               id="text64"
               style="font-variant:normal;font-weight:normal;font-size:11.95500088px;font-family:CMMI12;-inkscape-font-specification:CMMI12;writing-mode:lr-tb;fill:#231f20;fill-opacity:1;fill-rule:nonzero;stroke:none"
               transform="matrix(1,0,0,-1,278.17404,136.16083)"><tspan
                 id="tspan62"
                 y="0"
                 x="0">x</tspan></text>
<path
               id="path66"
               style="fill:none;stroke:#000000;stroke-width:1;stroke-linecap:butt;stroke-linejoin:round;stroke-miterlimit:4;stroke-dasharray:none;stroke-opacity:1"
               d="m 330.73602,152.636 h 1.19998 m -0.59997,0.60001 v -1.2 m -0.60001,26.99899 h 1.19998 m -0.59997,0.60001 v -1.2 m -21.358,-35.141 h 89.26498" /><path
               id="path68"
               style="fill:#000000;fill-opacity:1;fill-rule:nonzero;stroke:none"
               d="m 398.73303,143.29401 -1.095,1.802 0.061,0.04 2.93801,-1.166 c 1.02298,-0.22499 2.047,-0.45099 3.07001,-0.67599 -1.02301,-0.22501 -2.04703,-0.45 -3.07001,-0.67501 l -2.93801,-1.16699 -0.061,0.031 1.095,1.81101" /><path
               id="path70"
               style="fill:none;stroke:#000000;stroke-width:1;stroke-linecap:butt;stroke-linejoin:round;stroke-miterlimit:4;stroke-dasharray:none;stroke-opacity:1"
               d="m 331.35703,108.928 v 70.39901" /><path
               id="path72"
               style="fill:#000000;fill-opacity:1;fill-rule:nonzero;stroke:none"
               d="m 331.49103,177.7 -1.80103,-1.09499 -0.041,0.062 1.16598,2.93699 c 0.22602,1.02401 0.45102,2.04702 0.67603,3.071 0.22497,-1.02398 0.44998,-2.04699 0.67599,-3.071 l 1.16599,-2.93699 -0.03,-0.062 -1.81198,1.09499" /><path
               id="path74"
               style="fill:none;stroke:#000000;stroke-width:1;stroke-linecap:butt;stroke-linejoin:round;stroke-miterlimit:4;stroke-dasharray:none;stroke-opacity:1"
               d="m 386.07303,181.59801 0.13299,0.317 0.15,0.317 0.13299,0.31599 0.15,0.334 0.15002,0.31601 0.13397,0.334 0.15003,0.316 0.14999,0.334 0.133,0.333 0.29999,0.667 0.13302,0.333 0.15,0.35 0.14999,0.333 0.134,0.34999 0.15,0.334 0.13299,0.35001 0.15,0.35001 0.15002,0.34999 0.133,0.35 0.29998,0.7 0.13401,0.366 0.14999,0.35 0.14999,0.36699 0.13303,0.36701 0.14999,0.35 0.133,0.366 0.14999,0.367 0.15,0.36699 0.134,0.38301 0.30002,0.73301 0.13299,0.38398 m -19.14999,-34.53299 0.29999,0.29999 0.13397,0.15001 0.14902,0.133 0.15002,0.167 0.13397,0.15 0.15003,0.14999 0.13299,0.15001 0.15,0.166 0.14999,0.15 0.133,0.167 0.30099,0.333 0.13303,0.167 0.29999,0.333 0.13299,0.167 0.15,0.167 0.13302,0.18299 0.15097,0.183 0.14902,0.16701 0.134,0.183 0.29999,0.367 0.133,0.183 0.15002,0.2 0.14999,0.184 0.13398,0.183 0.29901,0.4 0.134,0.183 0.14999,0.19999 0.13303,0.20001 0.14999,0.2 0.15,0.2 0.13397,0.21699 0.14902,0.2 0.15002,0.21701 0.13397,0.2 0.15003,0.216 0.14999,0.217 0.133,0.21699 0.14999,0.21601 0.133,0.21699 0.15002,0.21701 0.15,0.233 0.134,0.217 0.14999,0.233 0.15,0.217 0.13299,0.233 0.15,0.233 0.15002,0.23399 0.133,0.233 0.15097,0.23301 0.13302,0.25 0.15,0.234 0.14999,0.25 0.133,0.23299 0.30001,0.5 0.13398,0.25 0.29901,0.5 0.134,0.25 0.14999,0.25 0.15003,0.26701 0.13299,0.266 0.15,0.25 0.13397,0.26699 0.14902,0.267 0.15002,0.26601 0.13397,0.267 0.15003,0.266 0.14999,0.284 0.133,0.26599 0.14999,0.26701 0.15,0.28299 0.13302,0.284 0.15,0.28301 0.134,0.283 0.29999,0.567 0.13299,0.28299 0.15,0.28401 0.15002,0.30001 0.133,0.29998 0.14999,0.28301 0.14999,0.3 0.13401,0.3 0.14999,0.29999 0.133,0.30001 0.15002,0.3 0.14999,0.317 0.133,0.3 0.14999,0.316 0.15,0.3 0.134,0.317 0.30002,0.633 m -28.517,-28.233 0.14999,-0.033 0.13398,-0.017 0.14999,-0.033 0.14999,-0.033 0.13303,-0.017 0.14999,-0.016 0.15003,-0.034 0.13299,-0.016 0.15,-0.017 0.14999,-0.017 h 0.13397 l 0.15,-0.016 0.13302,-0.017 h 0.15003 l 0.14999,-0.017 H 360.59 l 0.13302,0.017 h 0.15 l 0.13299,0.017 0.15,0.016 h 0.15002 l 0.13397,0.017 0.15,0.017 0.14999,0.016 0.13303,0.034 0.14999,0.016 0.14999,0.017 0.13303,0.033 0.14999,0.033 0.13398,0.017 0.14999,0.033 0.14999,0.034 0.13303,0.033 0.14999,0.033 0.15003,0.051 0.13299,0.033 0.15,0.033 0.14999,0.05 0.13397,0.05 0.15,0.033 0.13302,0.05 0.15003,0.05 0.14999,0.067 0.133,0.05 0.14999,0.05 0.15,0.05 0.13397,0.067 0.15002,0.066 0.15,0.05 0.13302,0.067 0.15,0.067 0.14999,0.067 0.133,0.066 0.15002,0.083 0.13397,0.067 0.15,0.084 0.14999,0.066 0.13303,0.083 0.14999,0.084 0.14999,0.083 0.13303,0.083 0.14999,0.084 0.15,0.083 0.13397,0.083 0.14999,0.10099 0.13303,0.083 0.30002,0.2 0.13299,0.1 0.29999,0.2 0.13397,0.1 0.15,0.10001 0.15002,0.1 0.13303,0.116 0.14999,0.11699 0.133,0.10001 0.29999,0.23399 0.13397,0.11601 0.30002,0.234 0.13302,0.13299 0.15,0.11601 0.14999,0.13399 0.133,0.11601 0.15002,0.13399 0.14999,0.13301 0.13398,0.13399 0.14999,0.13301 0.13303,0.133 0.14999,0.14999 0.14999,0.13301 0.13303,0.134" /><path
               id="path76"
               style="fill:none;stroke:#000000;stroke-width:1;stroke-linecap:butt;stroke-linejoin:round;stroke-miterlimit:4;stroke-dasharray:none;stroke-opacity:1"
               d="m 343.30701,165.132 0.15002,-0.21699 0.13297,-0.2 0.14999,-0.2 0.13303,-0.20001 0.14999,-0.19999 0.14999,-0.183 0.13401,-0.2 0.15002,-0.2 0.15,-0.183 0.13296,-0.184 0.14999,-0.2 0.15,-0.183 0.13302,-0.183 0.15003,-0.184 0.134,-0.183 0.15,-0.16701 0.14999,-0.183 0.13296,-0.18299 0.30002,-0.334 0.13303,-0.166 0.14999,-0.167 0.15,-0.167 0.134,-0.166 0.14999,-0.167 0.13297,-0.167 0.15002,-0.15 0.15,-0.166 0.13302,-0.15001 0.29999,-0.29999 0.134,-0.167 0.15,-0.133 0.15002,-0.15001 0.13297,-0.14999 0.14999,-0.15 0.14999,-0.134 0.13303,-0.13301 0.284,-0.28299 0.15002,-0.13301 0.15,-0.13399 0.13296,-0.13301 0.14999,-0.13399 0.15,-0.11601 0.13302,-0.13399 0.15003,-0.11601 0.14999,-0.13299 0.13401,-0.11701 0.14999,-0.11699 0.13296,-0.11601 0.30002,-0.23399 0.13303,-0.10001 0.14999,-0.11699 0.15,-0.116 0.134,-0.1 0.29901,-0.2 0.13397,-0.1 0.15,-0.1 0.13302,-0.1 0.15,-0.10001 0.14999,-0.1 0.133,-0.083 0.15002,-0.10099 0.151,-0.083 0.13297,-0.083 0.14999,-0.084 0.14999,-0.083 0.13303,-0.083 0.14999,-0.084 0.15003,-0.083 0.13299,-0.066 0.15101,-0.084 0.13296,-0.067 0.14999,-0.083 0.15,-0.066 0.13302,-0.067 0.30002,-0.134 0.13401,-0.05 0.14999,-0.066 0.14899,-0.067 0.13397,-0.05 0.15002,-0.05 0.13303,-0.05 0.14999,-0.067 0.15,-0.05 0.13299,-0.05 0.15,-0.033 0.15002,-0.05 0.13397,-0.05 0.15,-0.033 0.14999,-0.033 0.13303,-0.05 0.14999,-0.034 0.133,-0.033 0.15002,-0.033 m -28.49902,40.76599 0.13299,-0.36699 0.29999,-0.76699 0.13303,-0.36602 0.14999,-0.36699 0.134,-0.38301 0.29999,-0.73399 0.133,-0.366 0.14999,-0.35 0.14999,-0.36701 0.13303,-0.36699 0.14999,-0.35 0.15003,-0.366 0.13397,-0.35001 0.30002,-0.69999 0.13296,-0.34999 0.15,-0.35001 0.13302,-0.35001 0.15003,-0.334 0.14999,-0.34999 0.13401,-0.333 0.14999,-0.35 0.14999,-0.333 0.13297,-0.334 0.30002,-0.666 0.13302,-0.334 0.15,-0.316 0.134,-0.334 0.14999,-0.31601 0.15,-0.334 0.13299,-0.31599 0.29999,-0.633 0.13303,-0.317 0.29998,-0.634 0.13401,-0.3 0.14999,-0.316 0.133,-0.3 0.14999,-0.317 0.14999,-0.3 0.13303,-0.30001 0.30002,-0.59999 0.13397,-0.3 0.15003,-0.28301 0.14999,-0.29998 0.13296,-0.30001 0.30002,-0.567 0.13303,-0.283 0.14999,-0.28301 0.13401,-0.28399 0.14999,-0.28301 0.14999,-0.284 0.13297,-0.28299 0.30002,-0.533 0.13302,-0.283 0.15,-0.267 0.14999,-0.267 0.134,-0.26601 0.15,-0.267 0.13299,-0.26699 0.15,-0.25 0.14999,-0.266 0.13303,-0.26701 0.14999,-0.25 0.14999,-0.25 0.13401,-0.25 0.15002,-0.25 0.15,-0.25 0.13296,-0.25 0.14999,-0.25 0.13303,-0.23299 0.14999,-0.25 0.15003,-0.234 0.134,-0.25 0.15,-0.23301 0.14999,-0.233 0.13296,-0.23399 0.30002,-0.466 0.13303,-0.217 0.14999,-0.233 0.13401,-0.217 0.14999,-0.233 0.14999,-0.21701 0.13297,-0.21699 0.15002,-0.21601 0.15,-0.21699 0.13302,-0.217 0.15,-0.216 0.14999,-0.2 0.134,-0.21701 0.15,-0.2" /><text
               id="text80"
               style="font-variant:normal;font-weight:normal;font-size:11.95500088px;font-family:CMMI12;-inkscape-font-specification:CMMI12;writing-mode:lr-tb;fill:#231f20;fill-opacity:1;fill-rule:nonzero;stroke:none"
               transform="matrix(1,0,0,-1,336.1535,181.1817)"><tspan
                 id="tspan78"
                 y="0"
                 x="0">y</tspan></text>
<text
               id="text84"
               style="font-variant:normal;font-weight:normal;font-size:11.95500088px;font-family:CMMI12;-inkscape-font-specification:CMMI12;writing-mode:lr-tb;fill:#231f20;fill-opacity:1;fill-rule:nonzero;stroke:none"
               transform="matrix(1,0,0,-1,405.48654,135.84833)"><tspan
                 id="tspan82"
                 y="0"
                 x="0">x</tspan></text>
<path
               id="path86"
               style="fill:none;stroke:#000000;stroke-width:1;stroke-linecap:butt;stroke-linejoin:round;stroke-miterlimit:4;stroke-dasharray:none;stroke-opacity:1"
               d="m 77.926003,63.816002 h 1.200004 M 78.526001,64.416 v -1.199997 m -0.599998,26.999001 h 1.200004 m -0.600006,0.599998 V 89.615005 M 64.125999,55.016003 h 89.265011" /><path
               id="path88"
               style="fill:#000000;fill-opacity:1;fill-rule:nonzero;stroke:none"
               d="m 152.88101,55.016003 -1.095,1.800998 0.061,0.041 2.938,-1.167 c 1.02301,-0.224999 2.047,-0.450001 3.07001,-0.674999 -1.02302,-0.224998 -2.04701,-0.45 -3.07002,-0.676002 l -2.938,-1.165996 -0.061,0.03 1.095,1.812001" /><path
               id="path90"
               style="fill:none;stroke:#000000;stroke-width:1;stroke-linecap:butt;stroke-linejoin:round;stroke-miterlimit:4;stroke-dasharray:none;stroke-opacity:1"
               d="M 78.526001,19.816002 V 90.215004" /><path
               id="path92"
               style="fill:#000000;fill-opacity:1;fill-rule:nonzero;stroke:none"
               d="m 78.526001,89.705002 -1.801994,-1.095001 -0.041,0.062 1.166992,2.936996 c 0.225007,1.024002 0.450005,2.047005 0.676003,3.070999 0.225006,-1.023994 0.450005,-2.046997 0.675003,-3.070999 l 1.167,-2.936996 -0.031,-0.062 -1.811005,1.095001" /><path
               id="path94"
               style="fill:none;stroke:#000000;stroke-width:1;stroke-linecap:butt;stroke-linejoin:round;stroke-miterlimit:4;stroke-dasharray:none;stroke-opacity:1"
               d="m 133.24101,68.116005 0.13399,-0.317001 0.15001,-0.317002 0.13299,-0.316002 0.15001,-0.333999 0.15,-0.315995 0.134,-0.333999 0.149,-0.316002 0.15,-0.334 0.134,-0.333 0.3,-0.667 0.133,-0.333 0.14999,-0.350002 0.15001,-0.333 0.133,-0.349999 0.151,-0.333999 0.13299,-0.350003 0.30001,-0.700001 0.13299,-0.349998 0.3,-0.699001 0.133,-0.367001 0.15001,-0.349998 0.14999,-0.367001 0.13401,-0.366001 0.14999,-0.349999 0.13301,-0.367 0.3,-0.732998 0.133,-0.384003 0.3,-0.732998 0.13399,-0.382999 0.15001,-0.384003 0.14999,-0.365997 0.13301,-0.384003 0.15,-0.382999 0.13299,-0.383 0.15001,-0.400001 0.15,-0.383999 0.134,-0.382999 0.14999,-0.400002 0.15001,-0.382999 0.133,-0.399998 0.3,-0.800003 0.133,-0.399998 0.3,-0.799999 0.134,-0.400002 0.15,-0.416999 0.13299,-0.400002 0.3,-0.833 0.133,-0.417 0.3,-0.833 0.13401,-0.417 0.14999,-0.417 0.15001,-0.432998 0.13299,-0.417 0.15001,-0.433003 0.133,-0.432998 0.14999,-0.417 0.15001,-0.432999 0.13399,-0.434002 0.15001,-0.432998 0.14999,-0.450001 0.13301,-0.432999 0.15,-0.434002 0.14999,-0.45 0.13301,-0.449997 0.15,-0.433003 0.134,-0.450001 0.3,-0.899997 0.133,-0.466999 0.3,-0.900002 0.133,-0.466 0.14999,-0.45 0.15001,-0.466999 0.134,-0.467003 0.29999,-0.932999 0.13301,-0.465999 0.14999,-0.467 0.133,-0.483001 0.15001,-0.466999 L 146.341,32 l 0.13401,-0.466999 0.3,-0.966999 0.13299,-0.483 0.30001,-0.967001 0.13299,-0.5 v -0.05 m -28.36599,62.299003 0.3,-0.300003 0.13299,-0.150001 0.15001,-0.132996 0.15,-0.167 0.13399,-0.150001 0.15,-0.150002 0.13301,-0.150001 0.15,-0.166 0.14999,-0.149994 0.13301,-0.167 0.15,-0.167 0.15,-0.166 0.13399,-0.167 0.30001,-0.333 0.13299,-0.167 0.15,-0.167 0.13301,-0.183006 0.15,-0.182999 0.14999,-0.167 0.13401,-0.182998 0.15,-0.183999 0.15,-0.182998 0.13299,-0.183006 0.15001,-0.199997 0.15,-0.183999 0.13299,-0.182998 0.30001,-0.400002 0.134,-0.182998 0.14999,-0.200005 0.13301,-0.199997 0.3,-0.400001 0.13299,-0.217003 0.15001,-0.199997 0.15,-0.216004 0.13399,-0.200996 0.30001,-0.432999 0.133,-0.216003 0.14999,-0.216995 0.13301,-0.217003 0.15,-0.216004 0.15,-0.233993 0.13399,-0.216004 0.15001,-0.234001 0.15,-0.215996 0.13299,-0.234001 0.30001,-0.466003 0.133,-0.234001 0.14999,-0.232994 0.13401,-0.25 0.15,-0.233002 0.15,-0.25 0.13299,-0.234001 0.30001,-0.5 0.13299,-0.25 0.3,-0.5 0.134,-0.25 0.15001,-0.25 0.14999,-0.265999 0.133,-0.266998 0.15001,-0.25 0.13299,-0.267006 0.30001,-0.532997 0.134,-0.266999 0.14999,-0.265999 0.15001,-0.284004 0.133,-0.265999 0.14999,-0.266998 0.15001,-0.283005 0.133,-0.283996 0.14999,-0.282997 0.134,-0.283005 0.30001,-0.567001 0.13299,-0.282998 0.15001,-0.283996 0.15,-0.300003 0.13299,-0.300003 0.15001,-0.282997 0.14999,-0.300003 0.13401,-0.299996 0.14999,-0.300003 0.13301,-0.299995 0.15,-0.300003 0.14999,-0.317002 0.13301,-0.299995 0.14999,-0.316002 0.15001,-0.300003 0.13399,-0.317001 0.3,-0.632996" /><path
               id="path96"
               style="fill:none;stroke:#000000;stroke-width:1;stroke-linecap:butt;stroke-linejoin:round;stroke-miterlimit:4;stroke-dasharray:none;stroke-opacity:1"
               d="m 104.72501,96.349007 0.15,0.033 0.13399,0.017 0.15,0.03301 0.15001,0.033 0.13299,0.017 0.15,0.01701 0.15,0.033 0.13301,0.017 0.14999,0.016 0.15,0.01701 h 0.13401 l 0.15,0.017 0.13299,0.016 h 0.15 l 0.15001,0.017 h 0.86599 l 0.13401,-0.017 h 0.15 l 0.13299,-0.016 0.15,-0.017 h 0.15001 l 0.13299,-0.01701 0.15,-0.016 0.15,-0.017 0.13401,-0.033 0.15,-0.01701 0.14999,-0.017 0.13301,-0.033 0.15,-0.03301 0.13299,-0.017 0.15,-0.033 0.15101,-0.034 0.133,-0.033 0.14999,-0.033 0.15,-0.05 0.13301,-0.034 0.14999,-0.033 0.15,-0.05 0.13301,-0.05 0.15,-0.033 0.13399,-0.05 0.15,-0.05 0.15001,-0.06699 0.13299,-0.05 0.3,-0.1 0.13301,-0.067 0.14999,-0.066 0.15,-0.05 0.13401,-0.067 0.15,-0.067 0.15,-0.066 0.13299,-0.067 0.15001,-0.083 0.134,-0.067 0.14899,-0.08299 0.15,-0.067 0.13401,-0.083 0.15,-0.084 0.14999,-0.083 0.13301,-0.083 0.15,-0.084 0.15,-0.083 0.13299,-0.083 0.15001,-0.1 0.134,-0.08401 0.14999,-0.1 0.15,-0.1 0.13301,-0.1 0.15,-0.1 0.14999,-0.100006 0.13301,-0.1 0.15,-0.1 0.14999,-0.1 0.134,-0.115997 0.15001,-0.117004 0.133,-0.1 0.14999,-0.117004 0.15,-0.115997 0.13301,-0.116997 0.151,-0.117005 0.14899,-0.115997 0.13401,-0.134003 0.15,-0.115997 0.15,-0.134003 0.13299,-0.115997 0.15001,-0.134003 0.15,-0.132995 0.13299,-0.133003 0.15,-0.134003 0.28401,-0.282997 0.14999,-0.133003 0.13301,-0.133996 m -28.500004,-6.283004 0.150002,0.217003 0.133995,0.199997 0.150001,0.200004 0.133003,0.199997 0.149994,0.200005 0.150002,0.182998 0.133003,0.199997 0.150002,0.200005 0.149994,0.182998 0.134002,0.183999 0.150002,0.199997 0.150001,0.183006 0.132996,0.182998 0.150001,0.183999 0.133004,0.182998 0.149994,0.167 0.150001,0.182999 0.134003,0.183006 0.150001,0.167 0.149994,0.167 0.133003,0.166 0.150002,0.167 0.150001,0.167 0.132996,0.166 0.150002,0.167 0.134002,0.167 0.149994,0.149994 0.150002,0.166 0.133003,0.150001 0.150001,0.150002 0.149994,0.150001 0.133004,0.167 0.150001,0.132996 0.150002,0.150001 0.133995,0.150002 0.150001,0.150001 0.150002,0.133996 0.416,0.416 0.299996,0.267006 0.134002,0.132995 0.150002,0.134003 0.150001,0.115997 0.132996,0.134003 0.150001,0.115997 0.150002,0.134003 0.132996,0.115997 0.150001,0.117005 0.134003,0.116997 0.150001,0.115997 0.149994,0.117004 0.133003,0.1 0.300003,0.233001 0.132996,0.1 0.150002,0.1 0.150001,0.1 0.133995,0.100006 0.150002,0.1 0.133003,0.1 0.150001,0.1 0.149994,0.1 0.133004,0.08401 0.150001,0.1 0.150004,0.083 0.13399,0.083 0.15,0.084 0.15001,0.083 0.13299,0.083 0.15,0.084 0.15,0.083 0.13301,0.067 0.14999,0.08299 0.134,0.067 0.15001,0.083 0.15,0.067 0.13299,0.066 0.15,0.067 0.15001,0.067 0.13299,0.05 0.15,0.066 0.15,0.067 0.13401,0.04999 0.14999,0.05 0.133,0.05 0.15001,0.06699 0.15,0.05 0.13299,0.05 0.15,0.033 0.15001,0.05 0.13399,0.05 0.15,0.033 0.15,0.034 0.13301,0.05 0.14999,0.033 0.133,0.033 0.15001,0.034" /><path
               id="path98"
               style="fill:none;stroke:#000000;stroke-width:1;stroke-linecap:butt;stroke-linejoin:round;stroke-miterlimit:4;stroke-dasharray:none;stroke-opacity:1"
               d="m 76.226006,55.583004 0.132995,0.365997 0.300003,0.767002 0.133003,0.367001 0.149994,0.365997 0.134003,0.384003 0.300003,0.732998 0.132996,0.367 0.150001,0.349999 0.150002,0.366001 0.132995,0.367001 0.150002,0.349998 0.150001,0.366001 0.134003,0.351002 0.299996,0.698997 0.133003,0.350003 0.150001,0.349998 0.132996,0.350003 0.150001,0.333999 0.150002,0.349999 0.133995,0.333 0.150002,0.350002 0.150001,0.333 0.133003,0.334 0.299996,0.666 0.133003,0.334 0.150001,0.316002 0.133996,0.333999 0.150001,0.315995 0.150002,0.333999 0.132995,0.316002 0.300003,0.634003 0.133003,0.316002 0.299996,0.633995 0.134003,0.300003 0.150001,0.316002 0.132996,0.299995 0.150001,0.317002 0.150002,0.300003 0.132995,0.299995 0.300003,0.599999 0.134003,0.300003 0.149994,0.282997 0.150002,0.300003 0.133003,0.300003 0.299995,0.566994 0.133003,0.283004 0.150002,0.283997 0.132996,0.283005 0.300003,0.566993 0.134002,0.283005 0.299996,0.532997 0.133003,0.284004 0.299995,0.532998 0.134003,0.266998 0.149002,0.265999 0.133995,0.267006 0.150002,0.25 0.150001,0.266998 0.133003,0.265999 0.299996,0.5 0.133003,0.25 0.299996,0.5 0.134002,0.25 0.150002,0.25 0.132995,0.234001 0.150002,0.25 0.150001,0.233002 0.133004,0.25 0.299995,0.466995 0.134003,0.233002 0.299995,0.466003 0.133003,0.216995 0.150002,0.233002 0.132996,0.217003 0.150001,0.233993 0.151001,0.216004 0.133003,0.217003 0.299996,0.432998 0.133003,0.216996 0.150001,0.216003 0.149994,0.200996 0.133004,0.216004 0.150001,0.199997 m -23.199005,-56.015999 0.016,0.05 0.151001,0.5 0.133003,0.483999 L 67.876,30.566003 68.009004,31.05 68.159005,31.533002 68.309006,32 l 0.132995,0.483002 0.150002,0.466999 0.134003,0.483001 0.299995,0.932999 0.133003,0.466999 0.299996,0.933003 0.133003,0.466999 0.150001,0.45 0.150002,0.466 0.133995,0.450001 0.150002,0.450001 0.133003,0.466999 0.299995,0.899997 0.133003,0.450001 0.150002,0.433003 0.149994,0.449997 0.134003,0.45 0.300003,0.867001 0.132995,0.450001 0.150002,0.432998 0.133003,0.434002 0.149994,0.432999 0.150001,0.417 0.134003,0.432998 0.150002,0.433003 0.150001,0.417 0.132996,0.432998 0.300003,0.834 0.132995,0.416 0.300003,0.834 0.134003,0.416 0.149994,0.417 0.133003,0.400002 0.150002,0.416999 0.150001,0.400002 0.132996,0.399998 0.300003,0.799999 0.133995,0.400001 0.300003,0.8 0.133003,0.382999 0.149994,0.400002 0.133003,0.382999 0.150002,0.383999 0.149994,0.400001 0.134003,0.383 0.300003,0.767002" /><text
               id="text102"
               style="font-variant:normal;font-weight:normal;font-size:11.95500088px;font-family:CMMI12;-inkscape-font-specification:CMMI12;writing-mode:lr-tb;fill:#231f20;fill-opacity:1;fill-rule:nonzero;stroke:none"
               transform="matrix(1,0,0,-1,83.343102,92.361694)"><tspan
                 id="tspan100"
                 y="0"
                 x="0">y</tspan></text>
<text
               id="text106"
               style="font-variant:normal;font-weight:normal;font-size:11.95500088px;font-family:CMMI12;-inkscape-font-specification:CMMI12;writing-mode:lr-tb;fill:#231f20;fill-opacity:1;fill-rule:nonzero;stroke:none"
               transform="matrix(1,0,0,-1,152.67613,47.028328)"><tspan
                 id="tspan104"
                 y="0"
                 x="0">x</tspan></text>
<path
               id="path108"
               style="fill:none;stroke:#000000;stroke-width:1;stroke-linecap:butt;stroke-linejoin:round;stroke-miterlimit:4;stroke-dasharray:none;stroke-opacity:1"
               d="m 190.40201,54.487003 h 89.26501" /><path
               id="path110"
               style="fill:#000000;fill-opacity:1;fill-rule:nonzero;stroke:none"
               d="m 279.09601,54.512001 -1.095,1.801003 0.061,0.041 2.93799,-1.167 c 1.02301,-0.225002 2.04703,-0.450001 3.07001,-0.675003 -1.02298,-0.224998 -2.047,-0.449997 -3.07001,-0.675999 l -2.93799,-1.166004 -0.061,0.03 1.095,1.812" /><path
               id="path112"
               style="fill:none;stroke:#000000;stroke-width:1;stroke-linecap:butt;stroke-linejoin:round;stroke-miterlimit:4;stroke-dasharray:none;stroke-opacity:1"
               d="M 204.03401,22.204 V 92.603004" /><path
               id="path114"
               style="fill:#000000;fill-opacity:1;fill-rule:nonzero;stroke:none"
               d="m 204,91.187004 -1.80099,-1.095001 -0.041,0.062 1.16601,2.936996 c 0.22599,1.024002 0.451,2.047005 0.67599,3.071 0.22501,-1.023995 0.45,-2.046998 0.67601,-3.071 l 1.166,-2.936996 -0.03,-0.062 L 204,91.187004" /><path
               id="path116"
               style="fill:none;stroke:#000000;stroke-width:1;stroke-linecap:butt;stroke-linejoin:round;stroke-miterlimit:4;stroke-dasharray:none;stroke-opacity:1"
               d="m 259.5,25.504002 0.13303,-0.317002 0.14999,-0.317001 0.134,-0.315998 0.15,-0.334002 0.14999,-0.315998 0.133,-0.334001 0.14999,-0.315998 0.14999,-0.334002 0.13303,-0.332998 0.29999,-0.666001 0.134,-0.333999 0.14999,-0.350001 0.15,-0.333 0.13299,-0.35 0.15003,-0.334002 0.13299,-0.35 0.29999,-0.699999 0.134,-0.35 0.30002,-0.699 0.133,-0.366998 0.14996,-0.350001 0.15003,-0.367 0.13299,-0.366 0.15003,-0.35 0.13397,-0.367001 0.30002,-0.732999 0.13296,-0.384 0.30002,-0.733 0.13303,-0.383 0.14999,-0.384 0.14999,-0.366 0.13401,-0.384 0.14999,-0.383001 0.133,-0.383 0.14999,-0.4 0.14999,-0.383999 0.13303,-0.383001 0.14999,-0.399999 0.15,-0.3830007 0.134,-0.3999996 0.29999,-0.8000002 0.13299,-0.3999996 0.30002,-0.8000007 0.133,-0.4000001 m -21.599,41.1820019 0.15001,-0.150001 0.14999,-0.149998 0.133,-0.150002 0.15001,-0.133003 0.14999,-0.166996 0.133,-0.150001 0.14999,-0.149998 0.13402,-0.150002 0.14999,-0.166 0.15,-0.149998 0.13301,-0.167003 0.14999,-0.166996 0.14999,-0.166001 0.133,-0.167003 0.29999,-0.332997 0.13402,-0.167003 0.15,-0.166996 0.133,-0.183007 0.14999,-0.182994 0.15001,-0.167004 0.133,-0.182999 0.29999,-0.367 0.13401,-0.182999 0.15,-0.200001 0.15001,-0.183998 0.13299,-0.183002 0.15,-0.200001 0.15001,-0.200001 0.13298,-0.182995 0.14999,-0.2 0.13402,-0.200001 0.3,-0.400002 0.133,-0.217003 0.15001,-0.199997 0.14999,-0.215999 0.13298,-0.201 0.3,-0.433003 0.13402,-0.215996 0.15,-0.216999 L 251.56702,40.27 251.71701,40.054001 251.867,39.82 252,39.604 l 0.14999,-0.234001 0.15001,-0.215996 0.13401,-0.234005 0.29901,-0.465996 0.13398,-0.234005 0.15001,-0.232994 0.13298,-0.25 0.15001,-0.233001 0.15,-0.25 0.13401,-0.234002 0.14901,-0.25 0.14999,-0.25 0.134,-0.25 0.30001,-0.5 0.13298,-0.25 0.15001,-0.25 0.14999,-0.265998 0.13301,-0.266999 0.14999,-0.25 0.13401,-0.267006 0.3,-0.532997 0.133,-0.267002 0.14999,-0.265995 0.15001,-0.284004 0.13402,-0.265999 0.14898,-0.266998 0.151,-0.283001 0.133,-0.284002 0.14999,-0.282998 0.133,-0.282999 0.29999,-0.567001 0.13403,-0.282999 0.14999,-0.284002 0.14899,-0.300001 0.134,-0.3 0.15,-0.282997 0.15002,-0.300001 0.13297,-0.299999 0.15002,-0.300001 0.134,-0.3 0.14899,-0.299999 0.15003,-0.317003 0.13397,-0.299999 0.15002,-0.315998 0.15,-0.300002 0.13299,-0.316999 0.29999,-0.632999" /><path
               id="path118"
               style="fill:none;stroke:#000000;stroke-width:1;stroke-linecap:butt;stroke-linejoin:round;stroke-miterlimit:4;stroke-dasharray:none;stroke-opacity:1"
               d="m 230.98401,53.737003 0.15001,0.033 0.13299,0.017 0.15,0.033 0.15001,0.033 0.13398,0.017 0.14899,0.017 0.15001,0.033 0.13402,0.01701 0.14999,0.016 0.15,0.01699 h 0.13301 l 0.14999,0.01701 0.13298,0.016 H 233 l 0.15102,0.017 h 0.86599 l 0.13298,-0.017 h 0.15102 l 0.133,-0.016 0.15,-0.01701 h 0.15 l 0.13299,-0.01699 0.15001,-0.016 0.15,-0.01701 0.13299,-0.033 0.151,-0.017 0.14901,-0.017 0.134,-0.033 0.15001,-0.033 0.13299,-0.017 0.15,-0.033 0.15001,-0.034 0.13298,-0.03301 0.15001,-0.033 0.14999,-0.05 0.13402,-0.034 0.14999,-0.033 0.15,-0.05 0.13301,-0.05 0.14999,-0.033 0.133,-0.05 0.14999,-0.05 0.15001,-0.06701 0.134,-0.05 0.3,-0.1 0.133,-0.067 0.14999,-0.066 0.15001,-0.05 0.133,-0.067 0.14998,-0.067 0.15101,-0.066 0.13301,-0.06701 0.15,-0.083 0.13299,-0.06701 0.15001,-0.083 0.15,-0.067 0.13298,-0.083 0.15001,-0.084 0.14999,-0.083 0.13402,-0.083 0.15001,-0.084 0.14999,-0.083 0.133,-0.083 0.15001,-0.100002 0.13398,-0.084 0.14899,-0.1 0.15001,-0.100002 0.13402,-0.1 0.14999,-0.1 0.15,-0.100003 0.13301,-0.1 0.29998,-0.200001 0.133,-0.116001 0.14999,-0.117001 0.13402,-0.100002 0.3,-0.232994 0.133,-0.117004 0.14999,-0.116997 0.15001,-0.116001 0.13298,-0.133999 0.15001,-0.116001 0.15,-0.133999 0.13401,-0.116001 0.30001,-0.267002 0.13299,-0.132996 0.15,-0.134003 L 244.95,48.52 l 0.15001,-0.132999 0.134,-0.133999 m -28.5,-6.283005 0.14999,0.217003 0.13301,0.200001 0.15,0.200001 0.134,0.200001 0.14999,0.2 0.15001,0.182995 0.133,0.200001 0.15001,0.200001 0.14999,0.183002 0.133,0.183998 0.15001,0.200001 0.14999,0.182999 0.134,0.183002 0.15,0.183998 0.13301,0.182999 0.14999,0.167004 0.15,0.182994 0.13301,0.183007 0.14999,0.166996 0.14999,0.167003 0.13401,0.166001 0.15001,0.166996 0.14999,0.167003 0.133,0.166001 0.15,0.166996 0.133,0.167003 0.14999,0.149998 0.15001,0.166 0.13401,0.150002 0.14999,0.149998 0.14999,0.150001 0.13301,0.166996 0.15,0.133003 0.15001,0.150002 0.13299,0.149998 0.15,0.150001 0.15001,0.133999 0.41699,0.416 0.3,0.266999 0.133,0.133003 0.15001,0.133999 0.14999,0.116001 0.134,0.133999 0.15,0.116001 0.15001,0.133999 0.13299,0.116001 0.15,0.116997 0.13301,0.117004 0.14999,0.115997 0.14999,0.116997 0.13401,0.100002 0.15001,0.117001 0.14999,0.116001 0.133,0.1 0.15,0.100002 0.15,0.1 0.13299,0.100003 0.15001,0.1 0.13401,0.1 0.14999,0.100002 0.14999,0.1 0.13301,0.084 0.15,0.100002 0.15001,0.083 0.13299,0.083 0.15,0.084 0.15001,0.083 0.13398,0.083 0.15001,0.084 0.15,0.083 0.13301,0.067 0.14999,0.083 0.133,0.06701 0.15001,0.083 0.14999,0.06701 0.134,0.066 0.15,0.067 0.15001,0.067 0.13299,0.05 0.15,0.066 0.15,0.067 0.133,0.05 0.14999,0.05 0.13401,0.05 0.15001,0.06701 0.14999,0.05 0.133,0.05 0.15,0.033 0.15,0.05 0.13299,0.05 0.15001,0.033 0.15,0.034 0.134,0.05 0.14999,0.033 0.13301,0.03301 0.15,0.034" /><path
               id="path120"
               style="fill:none;stroke:#000000;stroke-width:1;stroke-linecap:butt;stroke-linejoin:round;stroke-miterlimit:4;stroke-dasharray:none;stroke-opacity:1"
               d="m 202.48401,12.971001 0.134,0.366 0.3,0.767 0.133,0.367 0.14999,0.366 0.13301,0.384 0.29999,0.732999 0.13401,0.367001 0.15,0.35 0.15,0.366 0.13299,0.367 0.15001,0.350001 0.15,0.365997 0.13299,0.35 0.15001,0.350001 0.15,0.35 0.134,0.35 0.14999,0.349999 0.13301,0.35 0.15,0.334002 0.15001,0.35 0.13299,0.333 0.15,0.350001 0.15,0.333999 0.133,0.333001 0.3,0.665998 0.13401,0.334002 0.14999,0.315998 0.133,0.334001 0.15,0.315998 0.15,0.334002 0.13299,0.315998 0.15001,0.317001 0.151,0.317002 0.133,0.315998 0.3,0.634 0.133,0.300002 0.14999,0.315998 0.13301,0.299999 0.151,0.317003 0.14901,0.299999 0.13398,0.3 0.30001,0.6 0.13299,0.300001 0.15001,0.282997 0.15,0.3 0.13301,0.300001 0.29998,0.567001 0.13401,0.282999 0.15001,0.284002 0.13299,0.282999 0.15,0.282998 0.15,0.284002 0.133,0.283001 0.3,0.532997 0.13401,0.284004 0.29998,0.532997 0.13301,0.267002 0.15,0.265995 0.13299,0.267006 0.15001,0.25 0.15,0.266999 0.134,0.265998 0.3,0.5 0.133,0.25 0.3,0.5 0.133,0.25 0.15001,0.25 0.13398,0.234002 0.15001,0.25 0.15,0.233001 0.13299,0.25 0.30001,0.466999 0.134,0.232998 0.149,0.232998 0.14999,0.233006 0.13401,0.216995 0.15001,0.233002 0.13299,0.216999 0.15,0.233001 0.15,0.216999 0.133,0.217003 0.3,0.432995 0.13401,0.217003 0.14999,0.216 0.14999,0.201 0.13301,0.215999 0.15,0.199997 m -18.58299,-41.19899697 0.14999,0.43300007 0.14999,0.417 0.13301,0.433 0.15,0.4330001 L 198.884,2.904 m 0,0 0.13401,0.4330001 0.3,0.8339999 0.13299,0.4160004 0.30001,0.8340001 0.13299,0.4159999 0.15001,0.4169998 0.134,0.4000001 0.15,0.4169998 0.14999,0.4000001 0.13301,0.4000001 0.30001,0.8000002 0.13299,0.3999996 0.3,0.8000002 0.13399,0.3830007 0.15001,0.399999 0.133,0.383001 0.15001,0.383999 0.14999,0.4 0.133,0.383 m 0,0 0.3,0.767001" /><text
               id="text124"
               style="font-variant:normal;font-weight:normal;font-size:11.95500088px;font-family:CMMI12;-inkscape-font-specification:CMMI12;writing-mode:lr-tb;fill:#231f20;fill-opacity:1;fill-rule:nonzero;stroke:none"
               transform="matrix(1,0,0,-1,209.5174,92.189201)"><tspan
                 id="tspan122"
                 y="0"
                 x="0">y</tspan></text>
<text
               id="text128"
               style="font-variant:normal;font-weight:normal;font-size:11.95500088px;font-family:CMMI12;-inkscape-font-specification:CMMI12;writing-mode:lr-tb;fill:#231f20;fill-opacity:1;fill-rule:nonzero;stroke:none"
               transform="matrix(1,0,0,-1,278.85043,46.855835)"><tspan
                 id="tspan126"
                 y="0"
                 x="0">x</tspan></text>
<path
               id="path130"
               style="fill:none;stroke:#000000;stroke-width:1;stroke-linecap:butt;stroke-linejoin:round;stroke-miterlimit:4;stroke-dasharray:none;stroke-opacity:1"
               d="m 316.46701,55.651001 h 89.26502" /><path
               id="path132"
               style="fill:#000000;fill-opacity:1;fill-rule:nonzero;stroke:none"
               d="m 405.09601,55.512001 -1.095,1.801003 0.062,0.041 2.93698,-1.167 c 1.02301,-0.225002 2.04703,-0.450001 3.06998,-0.675003 C 409.04703,55.287003 408.02301,55.062004 407,54.836002 l -2.93698,-1.166004 -0.062,0.03 1.095,1.812" /><path
               id="path134"
               style="fill:none;stroke:#000000;stroke-width:1;stroke-linecap:butt;stroke-linejoin:round;stroke-miterlimit:4;stroke-dasharray:none;stroke-opacity:1"
               d="M 332.05402,21.639002 V 92.037003" /><path
               id="path136"
               style="fill:#000000;fill-opacity:1;fill-rule:nonzero;stroke:none"
               d="m 332.15802,90.221001 -1.802,-1.094994 -0.041,0.061 1.16703,2.938004 c 0.22497,1.022995 0.44998,2.046997 0.67599,3.069999 0.22501,-1.023002 0.44998,-2.047004 0.67499,-3.069999 L 334,89.187004 l -0.031,-0.061 -1.811,1.094994" /><path
               id="path138"
               style="fill:none;stroke:#000000;stroke-width:1;stroke-linecap:butt;stroke-linejoin:round;stroke-miterlimit:4;stroke-dasharray:none;stroke-opacity:1"
               d="M 387.58301,18.938002 387.716,18.621 l 0.15003,-0.316999 0.13299,-0.316 0.15,-0.333 0.14999,-0.317 0.134,-0.333 0.15,-0.316999 0.15002,-0.333001 0.133,-0.334001 0.29999,-0.666 0.13299,-0.333999 0.15,-0.350001 0.15002,-0.333 0.134,-0.349999 0.15,-0.333 0.13299,-0.350001 0.15,-0.349999 0.14999,-0.350001 0.133,-0.35 0.30001,-0.7 0.13401,-0.366999 0.14999,-0.350001 0.14999,-0.366999 0.133,-0.366001 0.14999,-0.3499999 0.13303,-0.3669996 0.14999,-0.3669996 0.15,-0.3660002 0.134,-0.3839998 0.29999,-0.7330003 0.13299,-0.3830004 0.15003,-0.3839998 0.14999,-0.3660002 M 373.31601,41.688004 373.466,41.537003 373.61603,41.388 373.75,41.238003 373.89999,41.104 l 0.15,-0.165996 0.13302,-0.151001 0.15,-0.149003 0.13299,-0.149997 0.15003,-0.167 0.14999,-0.150002 0.13397,-0.166999 0.15,-0.166001 0.15002,-0.167 0.133,-0.166999 0.30002,-0.333001 0.13299,-0.166999 0.15,-0.166001 0.13397,-0.183998 0.15002,-0.183002 0.15,-0.167 0.13302,-0.182999 0.15,-0.182998 0.14999,-0.184002 0.133,-0.182999 0.14999,-0.200001 0.14999,-0.182998 0.13401,-0.184002 0.14999,-0.200001 0.14999,-0.200001 0.13303,-0.182999 0.14999,-0.2 0.133,-0.200001 0.30002,-0.399998 0.13397,-0.216999 0.14999,-0.200001 0.15003,-0.215999 0.13299,-0.200001 0.30002,-0.434002 0.133,-0.216 0.14999,-0.216999 0.133,-0.216999 0.14999,-0.215999 0.15,-0.234001 0.134,-0.216 0.15002,-0.234001 0.15,-0.216 0.13299,-0.234001 0.15,-0.232998 0.14999,-0.233 0.133,-0.234001 0.15002,-0.233 0.134,-0.25 0.15,-0.232999 0.14999,-0.25 0.133,-0.234 0.29998,-0.500002 0.13303,-0.25 0.29999,-0.5 0.134,-0.25 0.14999,-0.25 0.15,-0.265998 0.13299,-0.267001 0.15003,-0.25 0.13397,-0.267 0.29901,-0.532999 0.134,-0.267 0.15,-0.266001 0.15002,-0.284 0.133,-0.265999 0.14999,-0.267 0.15,-0.283001 0.13299,-0.284001 0.151,-0.282999 0.133,-0.283001 0.30002,-0.566999 0.13299,-0.282999 0.15,-0.284 0.14999,-0.300002 0.133,-0.299999 L 385.84903,22.621 386,22.321001 l 0.13303,-0.299999 0.14999,-0.300001 0.133,-0.3 0.14999,-0.300001 0.14999,-0.316999 0.13303,-0.299999 0.14999,-0.316 0.15,-0.300002 0.134,-0.316999 0.29999,-0.632999 m -28.517,28.232999 0.14999,0.033 0.13401,0.017 0.14999,0.033 0.14999,0.033 0.13303,0.017 0.14999,0.017 0.15,0.033 0.13299,0.017 0.15003,0.016 0.151,0.017 h 0.13296 l 0.15003,0.017 0.13299,0.016 h 0.15 l 0.15002,0.017 h 0.86698 l 0.13302,-0.017 h 0.15 l 0.13299,-0.016 0.151,-0.017 h 0.14899 l 0.13397,-0.017 0.15003,-0.016 0.14999,-0.017 0.13303,-0.033 0.14999,-0.017 0.14999,-0.017 0.133,-0.033 0.14999,-0.033 0.13401,-0.017 0.14999,-0.033 0.14999,-0.034 0.13303,-0.033 0.14999,-0.033 0.15,-0.05 0.13299,-0.034 0.15003,-0.033 0.14999,-0.05 0.13397,-0.05 0.15,-0.033 0.13302,-0.05 0.15,-0.05 0.15002,-0.067 0.133,-0.05 0.14999,-0.05 0.15,-0.05 0.13397,-0.067 0.15002,-0.066 0.15,-0.05 0.13302,-0.067 0.15,-0.067 0.14999,-0.066 0.133,-0.067 0.14999,-0.083 0.134,-0.067 0.15,-0.083 0.14999,-0.067 0.13303,-0.083 0.14999,-0.083 0.14999,-0.084 0.133,-0.083 0.14999,-0.083 0.15003,-0.084 0.13397,-0.083 0.14999,-0.1 0.13303,-0.084 0.14999,-0.100002 0.15,-0.1 0.13299,-0.100003 0.15003,-0.099 0.14999,-0.100998 0.13397,-0.099 0.15003,-0.100997 0.14996,-0.100003 0.13303,-0.115997 0.15002,-0.117001 0.133,-0.1 0.29999,-0.233002 0.134,-0.117 0.14996,-0.117001 0.15003,-0.115997 0.13302,-0.134003 0.15,-0.115997 0.14999,-0.133004 0.133,-0.116996 0.14999,-0.134003 0.14999,-0.132999 0.13401,-0.133 0.14999,-0.133999 0.28302,-0.283001 0.14999,-0.132999 0.133,-0.134003" /><path
               id="path140"
               style="fill:none;stroke:#000000;stroke-width:1;stroke-linecap:butt;stroke-linejoin:round;stroke-miterlimit:4;stroke-dasharray:none;stroke-opacity:1"
               d="m 344.81702,35.404003 0.14999,0.216999 0.133,0.200001 0.14999,0.199997 0.13303,0.200001 0.14999,0.2 0.14999,0.182999 0.13401,0.200001 0.14999,0.200001 0.14999,0.184002 0.133,0.182998 0.14999,0.200001 0.15,0.182999 0.13302,0.184002 0.15,0.182998 0.134,0.182999 0.14999,0.167 0.15003,0.183002 0.13296,0.183998 0.15,0.166001 0.15002,0.166999 0.133,0.167 0.30002,0.333 0.134,0.167 0.14999,0.166001 0.13297,0.166999 0.15002,0.150002 0.15,0.166 0.13299,0.150997 0.30002,0.299 0.134,0.167 0.15,0.133003 0.14999,0.150997 0.133,0.149003 L 350,41.687 l 0.14999,0.134003 0.41703,0.416 0.29998,0.266999 0.133,0.132999 0.14999,0.134003 0.15003,0.116996 0.13299,0.133004 0.15,0.115997 0.14999,0.134003 0.134,0.115997 0.15003,0.117001 0.13296,0.117 0.15003,0.116001 0.14996,0.117001 0.13303,0.1 0.14999,0.117001 0.15003,0.115997 0.134,0.100003 0.14999,0.100997 0.15,0.099 0.13296,0.100998 0.15003,0.099 0.13299,0.100003 0.30002,0.2 0.134,0.084 0.15,0.1 0.14999,0.083 0.133,0.084 0.14999,0.083 0.14999,0.083 0.13303,0.084 0.29999,0.166001 0.134,0.067 0.14999,0.083 0.133,0.067 0.14999,0.083 0.15,0.067 0.13302,0.066 0.15,0.067 0.14999,0.067 0.134,0.05 0.15003,0.066 0.14999,0.067 0.13297,0.05 0.15002,0.05 0.133,0.05 0.15002,0.067 0.15,0.05 0.134,0.05 0.14999,0.033 0.14899,0.05 0.134,0.05 0.15,0.033 0.14999,0.034 0.13303,0.05 0.14999,0.033 0.134,0.033 0.14899,0.034 M 330.56702,6.4050002 330.70001,6.7710004 331,7.5380006 l 0.134,0.3669996 0.15003,0.3660007 0.13299,0.3839998 0.29999,0.7329998 0.133,0.3669996 L 332,10.105 l 0.14999,0.366001 0.13404,0.366999 0.14999,0.350001 0.14999,0.366999 0.133,0.350001 0.30002,0.699999 0.13296,0.350001 0.15003,0.349999 0.13299,0.350001 0.15,0.333 0.14999,0.349999 0.134,0.333 0.15003,0.350001 0.14999,0.333999 0.133,0.333001 0.29999,0.667 0.13299,0.333001 0.15003,0.316999 0.134,0.333 0.14999,0.317 0.15,0.333 0.13296,0.316 0.30002,0.634001 0.13303,0.316 0.30099,0.633998 0.133,0.300002 0.14999,0.316 0.133,0.299999 0.14999,0.316999 0.14999,0.300001 0.13404,0.3 0.29898,0.6 0.134,0.299999 0.14999,0.283001 0.15003,0.299999 0.13296,0.300002 0.30002,0.566999 0.133,0.283001 0.14999,0.283998 0.134,0.283001 0.30002,0.567 0.13297,0.283001 0.30002,0.532999 0.13299,0.284 0.30002,0.533001 0.134,0.266998 0.15,0.266001 0.13299,0.267 0.15,0.25 0.14999,0.267001 0.13303,0.265998 0.29998,0.5 0.13401,0.25 0.14999,0.25 0.14999,0.25 0.133,0.250002 0.14999,0.25 0.13303,0.234 0.14999,0.25 0.15,0.232999 0.134,0.25 0.30002,0.467001 0.13296,0.233 0.29999,0.466999 0.13303,0.216 0.14999,0.234001 0.134,0.216 0.15003,0.234001 0.14999,0.215999 0.133,0.216999 0.29999,0.432999 0.13299,0.217003 0.15003,0.216999 0.14999,0.200001 0.134,0.215999 0.15,0.200001" /><text
               id="text144"
               style="font-variant:normal;font-weight:normal;font-size:11.95500088px;font-family:CMMI12;-inkscape-font-specification:CMMI12;writing-mode:lr-tb;fill:#231f20;fill-opacity:1;fill-rule:nonzero;stroke:none"
               transform="matrix(1,0,0,-1,336.8299,91.876801)"><tspan
                 id="tspan142"
                 y="0"
                 x="0">y</tspan></text>
<text
               id="text148"
               style="font-variant:normal;font-weight:normal;font-size:11.95500088px;font-family:CMMI12;-inkscape-font-specification:CMMI12;writing-mode:lr-tb;fill:#231f20;fill-opacity:1;fill-rule:nonzero;stroke:none"
               transform="matrix(1,0,0,-1,406.16293,46.543434)"><tspan
                 id="tspan146"
                 y="0"
                 x="0">x</tspan></text>
<path
               id="path150"
               style="fill:none;stroke:#000000;stroke-width:1;stroke-linecap:butt;stroke-linejoin:round;stroke-miterlimit:4;stroke-dasharray:none;stroke-opacity:1"
               d="m 183.57301,143.96301 h 89.26601" /><path
               id="path152"
               style="fill:#000000;fill-opacity:1;fill-rule:nonzero;stroke:none"
               d="m 272.32901,143.96301 -1.09601,1.801 0.062,0.041 2.93702,-1.166 c 1.02398,-0.226 2.04699,-0.45101 3.07098,-0.676 -1.02399,-0.225 -2.047,-0.45001 -3.07098,-0.67601 l -2.93702,-1.166 -0.062,0.03 1.09601,1.81201" /><path
               id="path154"
               style="fill:none;stroke:#000000;stroke-width:1;stroke-linecap:butt;stroke-linejoin:round;stroke-miterlimit:4;stroke-dasharray:none;stroke-opacity:1"
               d="m 204.68701,107.69301 v 70.399" /><path
               id="path156"
               style="fill:#000000;fill-opacity:1;fill-rule:nonzero;stroke:none"
               d="m 204.68701,178.09201 -1.80099,-1.095 -0.041,0.062 1.16699,2.93699 c 0.225,1.02301 0.45,2.04701 0.675,3.07001 0.226,-1.023 0.45101,-2.047 0.676,-3.07001 l 1.16699,-2.93699 -0.031,-0.062 -1.812,1.095" /><text
               id="text160"
               style="font-variant:normal;font-weight:normal;font-size:11.95500088px;font-family:CMR12;-inkscape-font-specification:CMR12;writing-mode:lr-tb;fill:#231f20;fill-opacity:1;fill-rule:nonzero;stroke:none"
               transform="matrix(1,0,0,-1,62.172005,211.9897)"><tspan
                 id="tspan158"
                 y="0"
                 x="0 4.5548553 9.7552805 15.613232 18.864992">real,</tspan></text>
<text
               id="text164"
               style="font-variant:normal;font-weight:normal;font-size:11.95500088px;font-family:CMR12;-inkscape-font-specification:CMR12;writing-mode:lr-tb;fill:#231f20;fill-opacity:1;fill-rule:nonzero;stroke:none"
               transform="matrix(1,0,0,-1,88.190872,211.9897)"><tspan
                 id="tspan162"
                 y="0"
                 x="0 6.5035205 9.7552805 14.369911 18.924767 22.176527 28.680048 33.880474">distinct</tspan></text>
<text
               id="text168"
               style="font-variant:normal;font-weight:normal;font-size:11.95500088px;font-family:CMR12;-inkscape-font-specification:CMR12;writing-mode:lr-tb;fill:#231f20;fill-opacity:1;fill-rule:nonzero;stroke:none"
               transform="matrix(1,0,0,-1,130.52951,211.9897)"><tspan
                 id="tspan166"
                 y="0"
                 x="0 4.5548553">ro</tspan></text>
<text
               id="text172"
               style="font-variant:normal;font-weight:normal;font-size:11.95500088px;font-family:CMR12;-inkscape-font-specification:CMR12;writing-mode:lr-tb;fill:#231f20;fill-opacity:1;fill-rule:nonzero;stroke:none"
               transform="matrix(1,0,0,-1,141.2675,211.9897)"><tspan
                 id="tspan170"
                 y="0"
                 x="0 5.8579507 10.412806">ots</tspan></text>
<text
               id="text176"
               style="font-variant:normal;font-weight:normal;font-size:11.95500088px;font-family:CMR12;-inkscape-font-specification:CMR12;writing-mode:lr-tb;fill:#231f20;fill-opacity:1;fill-rule:nonzero;stroke:none"
               transform="matrix(1,0,0,-1,199.17152,211.54378)"><tspan
                 id="tspan174"
                 y="0"
                 x="0 4.5548553 9.7552805 15.613232 18.864992">real,</tspan></text>
<text
               id="text180"
               style="font-variant:normal;font-weight:normal;font-size:11.95500088px;font-family:CMR12;-inkscape-font-specification:CMR12;writing-mode:lr-tb;fill:#231f20;fill-opacity:1;fill-rule:nonzero;stroke:none"
               transform="matrix(1,0,0,-1,225.19038,211.54378)"><tspan
                 id="tspan178"
                 y="0"
                 x="0 5.2004256 11.381161 17.884682 23.742632">equal</tspan></text>
<text
               id="text184"
               style="font-variant:normal;font-weight:normal;font-size:11.95500088px;font-family:CMR12;-inkscape-font-specification:CMR12;writing-mode:lr-tb;fill:#231f20;fill-opacity:1;fill-rule:nonzero;stroke:none"
               transform="matrix(1,0,0,-1,256.0881,211.54378)"><tspan
                 id="tspan182"
                 y="0"
                 x="0 4.5548553">ro</tspan></text>
<text
               id="text188"
               style="font-variant:normal;font-weight:normal;font-size:11.95500088px;font-family:CMR12;-inkscape-font-specification:CMR12;writing-mode:lr-tb;fill:#231f20;fill-opacity:1;fill-rule:nonzero;stroke:none"
               transform="matrix(1,0,0,-1,266.82727,211.54378)"><tspan
                 id="tspan186"
                 y="0"
                 x="0 5.8579507 10.412806">ots</tspan></text>
<text
               id="text192"
               style="font-variant:normal;font-weight:normal;font-size:11.95500088px;font-family:CMR12;-inkscape-font-specification:CMR12;writing-mode:lr-tb;fill:#231f20;fill-opacity:1;fill-rule:nonzero;stroke:none"
               transform="matrix(1,0,0,-1,335.17163,212.09729)"><tspan
                 id="tspan190"
                 y="0"
                 x="0 5.2004256 11.058376 20.813656 27.317177 30.568937 35.769363">complex</tspan></text>
<text
               id="text196"
               style="font-variant:normal;font-weight:normal;font-size:11.95500088px;font-family:CMR12;-inkscape-font-specification:CMR12;writing-mode:lr-tb;fill:#231f20;fill-opacity:1;fill-rule:nonzero;stroke:none"
               transform="matrix(1,0,0,-1,381.02383,212.09729)"><tspan
                 id="tspan194"
                 y="0"
                 x="0 4.5548553">ro</tspan></text>
<text
               id="text200"
               style="font-variant:normal;font-weight:normal;font-size:11.95500088px;font-family:CMR12;-inkscape-font-specification:CMR12;writing-mode:lr-tb;fill:#231f20;fill-opacity:1;fill-rule:nonzero;stroke:none"
               transform="matrix(1,0,0,-1,391.763,212.09729)"><tspan
                 id="tspan198"
                 y="0"
                 x="0 5.8579507 10.412806">ots</tspan></text>
<text
               id="text204"
               style="font-variant:normal;font-weight:normal;font-size:11.95500088px;font-family:CMMI12;-inkscape-font-specification:CMMI12;writing-mode:lr-tb;fill:#231f20;fill-opacity:1;fill-rule:nonzero;stroke:none"
               transform="matrix(1,0,0,-1,0.1721839,142.65189)"><tspan
                 id="tspan202"
                 y="0"
                 x="0">a</tspan></text>
<text
               id="text208"
               style="font-variant:normal;font-weight:normal;font-size:11.95500088px;font-family:CMMI12;-inkscape-font-specification:CMMI12;writing-mode:lr-tb;fill:#231f20;fill-opacity:1;fill-rule:nonzero;stroke:none"
               transform="matrix(1,0,0,-1,9.638154,142.65189)"><tspan
                 id="tspan206"
                 y="0"
                 x="0">&gt;</tspan></text>
<text
               id="text212"
               style="font-variant:normal;font-weight:normal;font-size:11.95500088px;font-family:CMR12;-inkscape-font-specification:CMR12;writing-mode:lr-tb;fill:#231f20;fill-opacity:1;fill-rule:nonzero;stroke:none"
               transform="matrix(1,0,0,-1,22.062986,142.65189)"><tspan
                 id="tspan210"
                 y="0"
                 x="0">0</tspan></text>
<text
               id="text216"
               style="font-variant:normal;font-weight:normal;font-size:11.95500088px;font-family:CMMI12;-inkscape-font-specification:CMMI12;writing-mode:lr-tb;fill:#231f20;fill-opacity:1;fill-rule:nonzero;stroke:none"
               transform="matrix(1,0,0,-1,0.81775469,60.339314)"><tspan
                 id="tspan214"
                 y="0"
                 x="0">a</tspan></text>
<text
               id="text220"
               style="font-variant:normal;font-weight:normal;font-size:11.95500088px;font-family:CMMI12;-inkscape-font-specification:CMMI12;writing-mode:lr-tb;fill:#231f20;fill-opacity:1;fill-rule:nonzero;stroke:none"
               transform="matrix(1,0,0,-1,10.283725,60.339314)"><tspan
                 id="tspan218"
                 y="0"
                 x="0">&lt;</tspan></text>
<text
               id="text224"
               style="font-variant:normal;font-weight:normal;font-size:11.95500088px;font-family:CMR12;-inkscape-font-specification:CMR12;writing-mode:lr-tb;fill:#231f20;fill-opacity:1;fill-rule:nonzero;stroke:none"
               transform="matrix(1,0,0,-1,22.708557,60.339314)"><tspan
                 id="tspan222"
                 y="0"
                 x="0">0</tspan></text>
</g></g></g></g></g></svg>