<?xml version="1.0" encoding="UTF-8" standalone="no"?>
<svg
   xmlns:dc="http://purl.org/dc/elements/1.1/"
   xmlns:cc="http://creativecommons.org/ns#"
   xmlns:rdf="http://www.w3.org/1999/02/22-rdf-syntax-ns#"
   xmlns:svg="http://www.w3.org/2000/svg"
   xmlns="http://www.w3.org/2000/svg"
   viewBox="0 0 364 148"
   height="148"
   width="364"
   xml:space="preserve"
   id="svg2"
   version="1.1"><metadata
     id="metadata8"><rdf:RDF><cc:Work
         rdf:about=""><dc:format>image/svg+xml</dc:format><dc:type
           rdf:resource="http://purl.org/dc/dcmitype/StillImage" /></cc:Work></rdf:RDF></metadata><defs
     id="defs6"><clipPath
       id="clipPath24"
       clipPathUnits="userSpaceOnUse"><path
         id="path22"
         d="M 0,0 H 273 V 111 H 0 Z" /></clipPath><clipPath
       id="clipPath38"
       clipPathUnits="userSpaceOnUse"><path
         id="path36"
         d="M 0.06,0 H 272.10001 V 110.468 H 0.06 Z" /></clipPath><clipPath
       id="clipPath52"
       clipPathUnits="userSpaceOnUse"><path
         id="path50"
         d="M 0.06,0 H 272.10001 V 110.468 H 0.06 Z" /></clipPath><clipPath
       id="clipPath78"
       clipPathUnits="userSpaceOnUse"><path
         id="path76"
         d="M 0.06,0 H 272.10001 V 110.468 H 0.06 Z" /></clipPath><clipPath
       id="clipPath92"
       clipPathUnits="userSpaceOnUse"><path
         id="path90"
         d="M 0.06,0 H 272.10001 V 110.468 H 0.06 Z" /></clipPath><clipPath
       id="clipPath106"
       clipPathUnits="userSpaceOnUse"><path
         id="path104"
         d="M 0.06,0 H 272.10001 V 110.468 H 0.06 Z" /></clipPath><clipPath
       id="clipPath128"
       clipPathUnits="userSpaceOnUse"><path
         id="path126"
         d="M 0.06,0 H 272.10001 V 110.468 H 0.06 Z" /></clipPath><clipPath
       id="clipPath142"
       clipPathUnits="userSpaceOnUse"><path
         id="path140"
         d="M 0.06,0 H 272.10001 V 110.468 H 0.06 Z" /></clipPath></defs><g
     transform="matrix(1.3333333,0,0,-1.3333333,0,148)"
     id="g10"><g
       id="g12" /><g
       id="g14" /><g
       id="g16"><g
         id="g18"><g
           clip-path="url(#clipPath24)"
           id="g20"><g
             id="g26" /><g
             id="g28"><path
               id="path30"
               style="fill:#ffffff;fill-opacity:1;fill-rule:nonzero;stroke:none"
               d="M 168.90001,5.9910002 V 109.895" /></g><g
             id="g32"><g
               clip-path="url(#clipPath38)"
               id="g34"><path
                 id="path40"
                 style="fill:none;stroke:#231f20;stroke-width:1;stroke-linecap:butt;stroke-linejoin:miter;stroke-miterlimit:4;stroke-dasharray:3, 3, 3, 3, 3, 3;stroke-dashoffset:0;stroke-opacity:1"
                 d="M 168.90001,5.9910002 V 109.895" /></g></g><g
             id="g42"><path
               id="path44"
               style="fill:#ffffff;fill-opacity:1;fill-rule:nonzero;stroke:none"
               d="m 12.900001,14.992001 c 0,-3.424 -2.776,-6.2010006 -6.2000007,-6.2010006 C 3.2750001,8.7910004 0.5,11.568001 0.5,14.992001 c 0,3.423999 2.7750001,6.2 6.2000003,6.2 3.4240007,0 6.2000007,-2.776001 6.2000007,-6.2" /></g><g
             id="g46"><g
               clip-path="url(#clipPath52)"
               id="g48"><path
                 id="path54"
                 style="fill:none;stroke:#231f20;stroke-width:1;stroke-linecap:butt;stroke-linejoin:miter;stroke-miterlimit:4;stroke-dasharray:none;stroke-opacity:1"
                 d="m 12.900001,14.992001 c 0,-3.424 -2.776,-6.2010006 -6.2000007,-6.2010006 C 3.2750001,8.7910004 0.5,11.568001 0.5,14.992001 c 0,3.423999 2.7750001,6.2 6.2000003,6.2 3.4240007,0 6.2000007,-2.776001 6.2000007,-6.2 z" /></g></g><g
             id="g56"><path
               id="path58"
               style="fill:#ffffff;fill-opacity:1;fill-rule:nonzero;stroke:none"
               d="m 174.90001,15.392001 c 0,-3.425 -2.77499,-6.2000006 -6.19901,-6.2000006 -3.425,0 -6.201,2.7750006 -6.201,6.2000006 0,3.423999 2.776,6.2 6.201,6.2 3.42402,0 6.19901,-2.776001 6.19901,-6.2" /><path
               id="path60"
               style="fill:none;stroke:#231f20;stroke-width:1;stroke-linecap:butt;stroke-linejoin:miter;stroke-miterlimit:4;stroke-dasharray:none;stroke-opacity:1"
               d="m 174.90001,15.392001 c 0,-3.425 -2.77499,-6.2000006 -6.19901,-6.2000006 -3.425,0 -6.201,2.7750006 -6.201,6.2000006 0,3.423999 2.776,6.2 6.201,6.2 3.42402,0 6.19901,-2.776001 6.19901,-6.2 z" /><path
               id="path62"
               style="fill:#ffffff;fill-opacity:1;fill-rule:nonzero;stroke:none"
               d="M 12.900001,14.992001 H 162.5" /><path
               id="path64"
               style="fill:none;stroke:#231f20;stroke-width:1;stroke-linecap:butt;stroke-linejoin:miter;stroke-miterlimit:4;stroke-dasharray:3, 3, 3, 3, 3, 3;stroke-dashoffset:0;stroke-opacity:1"
               d="M 12.900001,14.992001 H 162.5" /><path
               id="path66"
               style="fill:#ffffff;fill-opacity:1;fill-rule:nonzero;stroke:none"
               d="M 88.5,11.592001 V 94.895004" /><path
               id="path68"
               style="fill:none;stroke:#231f20;stroke-width:1;stroke-linecap:butt;stroke-linejoin:miter;stroke-miterlimit:4;stroke-dasharray:3, 3, 3, 3, 3, 3;stroke-dashoffset:0;stroke-opacity:1"
               d="M 88.5,11.592001 V 94.895004" /><path
               id="path70"
               style="fill:#ffffff;fill-opacity:1;fill-rule:nonzero;stroke:none"
               d="m 174.90001,15.392001 h 97.2" /></g><g
             id="g72"><g
               clip-path="url(#clipPath78)"
               id="g74"><path
                 id="path80"
                 style="fill:none;stroke:#231f20;stroke-width:1;stroke-linecap:butt;stroke-linejoin:miter;stroke-miterlimit:4;stroke-dasharray:3, 3, 3, 3, 3, 3;stroke-dashoffset:0;stroke-opacity:1"
                 d="m 174.90001,15.392001 h 97.2" /></g></g><g
             id="g82"><path
               id="path84"
               style="fill:#231f20;fill-opacity:1;fill-rule:nonzero;stroke:none"
               d="m 165.7,109.495 6.6,-6.6" /></g><g
             id="g86"><g
               clip-path="url(#clipPath92)"
               id="g88"><path
                 id="path94"
                 style="fill:none;stroke:#231f20;stroke-width:2;stroke-linecap:butt;stroke-linejoin:miter;stroke-miterlimit:4;stroke-dasharray:none;stroke-opacity:1"
                 d="m 165.7,109.495 6.6,-6.6" /></g></g><g
             id="g96"><path
               id="path98"
               style="fill:#231f20;fill-opacity:1;fill-rule:nonzero;stroke:none"
               d="m 165.83401,103.161 6.6,6.6" /></g><g
             id="g100"><g
               clip-path="url(#clipPath106)"
               id="g102"><path
                 id="path108"
                 style="fill:none;stroke:#231f20;stroke-width:2;stroke-linecap:butt;stroke-linejoin:miter;stroke-miterlimit:4;stroke-dasharray:none;stroke-opacity:1"
                 d="m 165.83401,103.161 6.6,6.6" /></g></g><g
             id="g110"><path
               id="path112"
               style="fill:#231f20;fill-opacity:1;fill-rule:nonzero;stroke:none"
               d="m 85.566002,94.526001 6.600006,-6.599998" /><path
               id="path114"
               style="fill:none;stroke:#231f20;stroke-width:2;stroke-linecap:butt;stroke-linejoin:miter;stroke-miterlimit:4;stroke-dasharray:none;stroke-opacity:1"
               d="m 85.566002,94.526001 6.600006,-6.599998" /><path
               id="path116"
               style="fill:#231f20;fill-opacity:1;fill-rule:nonzero;stroke:none"
               d="m 85.700005,88.192001 6.599998,6.600006" /><path
               id="path118"
               style="fill:none;stroke:#231f20;stroke-width:2;stroke-linecap:butt;stroke-linejoin:miter;stroke-miterlimit:4;stroke-dasharray:none;stroke-opacity:1"
               d="m 85.700005,88.192001 6.599998,6.600006" /><path
               id="path120"
               style="fill:#231f20;fill-opacity:1;fill-rule:nonzero;stroke:none"
               d="M 264.5,18.792002 271.10001,12.192" /></g><g
             id="g122"><g
               clip-path="url(#clipPath128)"
               id="g124"><path
                 id="path130"
                 style="fill:none;stroke:#231f20;stroke-width:2;stroke-linecap:butt;stroke-linejoin:miter;stroke-miterlimit:4;stroke-dasharray:none;stroke-opacity:1"
                 d="M 264.5,18.792002 271.10001,12.192" /></g></g><g
             id="g132"><path
               id="path134"
               style="fill:#231f20;fill-opacity:1;fill-rule:nonzero;stroke:none"
               d="m 264.634,12.458 6.60001,6.600001" /></g><g
             id="g136"><g
               clip-path="url(#clipPath142)"
               id="g138"><path
                 id="path144"
                 style="fill:none;stroke:#231f20;stroke-width:2;stroke-linecap:butt;stroke-linejoin:miter;stroke-miterlimit:4;stroke-dasharray:none;stroke-opacity:1"
                 d="m 264.634,12.458 6.60001,6.600001" /></g></g><g
             id="g146"><path
               id="path148"
               style="fill:#231f20;fill-opacity:1;fill-rule:nonzero;stroke:none"
               d="M 66.900002,84.792007 V 22.392" /><path
               id="path150"
               style="fill:none;stroke:#231f20;stroke-width:1;stroke-linecap:butt;stroke-linejoin:miter;stroke-miterlimit:4;stroke-dasharray:none;stroke-opacity:1"
               d="M 66.900002,84.792007 V 22.392" /><path
               id="path152"
               style="fill:#231f20;fill-opacity:1;fill-rule:nonzero;stroke:none"
               d="m 67.720001,20.503 c 0.399002,1.322001 0.766999,2.182001 1.193001,3.243 h -4.035995 c 0.180999,-0.379999 0.794998,-1.920999 1.194,-3.243 C 66.499001,19.087002 66.791,17.803001 66.896004,16.971001 67,17.803001 67.292,19.087002 67.720001,20.503" /><path
               id="path154"
               style="fill:#231f20;fill-opacity:1;fill-rule:nonzero;stroke:none"
               d="M 66.080002,86.681007 C 65.68,85.359001 65.313004,84.499001 64.887001,83.438004 h 4.035004 c -0.180001,0.379997 -0.793999,1.920997 -1.193001,3.243003 -0.428001,1.416001 -0.721001,2.699997 -0.824997,3.531998 -0.104004,-0.832001 -0.397003,-2.115997 -0.824005,-3.531998" /><path
               id="path156"
               style="fill:#231f20;fill-opacity:1;fill-rule:nonzero;stroke:none"
               d="M 184.3,22.303001 V 102.22301" /><path
               id="path158"
               style="fill:none;stroke:#231f20;stroke-width:1;stroke-linecap:butt;stroke-linejoin:miter;stroke-miterlimit:4;stroke-dasharray:none;stroke-opacity:1"
               d="M 184.3,22.303001 V 102.22301" /><path
               id="path160"
               style="fill:#231f20;fill-opacity:1;fill-rule:nonzero;stroke:none"
               d="m 183.48,103.924 c -0.39899,-1.191 -0.76799,-1.96499 -1.193,-2.919 h 4.03501 c -0.18,0.34101 -0.793,1.728 -1.193,2.919 -0.427,1.27301 -0.72,2.429 -0.824,3.17801 C 184.201,106.353 183.908,105.19701 183.48,103.924" /><path
               id="path162"
               style="fill:#231f20;fill-opacity:1;fill-rule:nonzero;stroke:none"
               d="m 185.121,19.369001 c 0.39899,1.323 0.76702,2.182 1.19301,3.243 h -4.035 c 0.179,-0.378999 0.793,-1.92 1.192,-3.243 0.42799,-1.416 0.72099,-2.699001 0.824,-3.532 0.105,0.832999 0.398,2.116 0.82599,3.532" /><path
               id="path164"
               style="fill:#231f20;fill-opacity:1;fill-rule:nonzero;stroke:none"
               d="M 14.5,4.3910003 H 161.701" /><path
               id="path166"
               style="fill:none;stroke:#231f20;stroke-width:1;stroke-linecap:butt;stroke-linejoin:miter;stroke-miterlimit:4;stroke-dasharray:none;stroke-opacity:1"
               d="M 14.5,4.3910003 H 161.701" /><path
               id="path168"
               style="fill:#231f20;fill-opacity:1;fill-rule:nonzero;stroke:none"
               d="m 163.589,5.2110004 c -1.32199,0.3999997 -2.181,0.7679997 -3.24299,1.1939998 v -4.036 c 0.38,0.1809998 1.921,0.7939999 3.24299,1.194 C 165.005,3.99 166.28999,4.283 167.12201,4.3870001 166.28999,4.4910002 165.005,4.7840004 163.589,5.2110004" /><path
               id="path170"
               style="fill:#231f20;fill-opacity:1;fill-rule:nonzero;stroke:none"
               d="M 12.61,3.5720003 C 13.933001,3.1720002 14.793001,2.8040001 15.854001,2.378 V 6.4140005 C 15.474001,6.2330003 13.933001,5.6190004 12.61,5.2199998 11.195001,4.7930002 9.9110003,4.5 9.0790005,4.3960004 9.9110003,4.2910004 11.195001,3.9990001 12.61,3.5720003" /><path
               id="path172"
               style="fill:#231f20;fill-opacity:1;fill-rule:nonzero;stroke:none"
               d="m 176.5,4.7910004 h 83.60001" /><path
               id="path174"
               style="fill:none;stroke:#231f20;stroke-width:1;stroke-linecap:butt;stroke-linejoin:miter;stroke-miterlimit:4;stroke-dasharray:none;stroke-opacity:1"
               d="m 176.5,4.7910004 h 83.60001" /><path
               id="path176"
               style="fill:#231f20;fill-opacity:1;fill-rule:nonzero;stroke:none"
               d="m 261.98999,5.6120005 c -1.32199,0.3989997 -2.18298,0.7669997 -3.24298,1.1929998 V 2.7690001 c 0.379,0.18 1.92099,0.7940001 3.24298,1.1940002 1.41501,0.4269996 2.69904,0.7199998 3.53104,0.8239999 -0.832,0.1040001 -2.11603,0.3969998 -3.53104,0.8250003" /><path
               id="path178"
               style="fill:#231f20;fill-opacity:1;fill-rule:nonzero;stroke:none"
               d="m 174.61101,3.9710002 c 1.322,-0.3989999 2.182,-0.767 3.24299,-1.1930001 v 4.036 C 177.47401,6.6330004 175.93301,6.02 174.61101,5.6199999 173.19601,5.1930003 171.912,4.9000001 171.08,4.796 c 0.832,-0.1039996 2.11601,-0.3969998 3.53101,-0.8249998" /><text
               id="text182"
               style="font-variant:normal;font-weight:normal;font-size:9.56400013px;font-family:CMMI12;-inkscape-font-specification:CMMI12;writing-mode:lr-tb;fill:#231f20;fill-opacity:1;fill-rule:nonzero;stroke:none"
               transform="matrix(1,0,0,-1,3.3295999,25.192099)"><tspan
                 id="tspan180"
                 y="0"
                 x="0">A</tspan></text>
<text
               id="text186"
               style="font-variant:normal;font-weight:normal;font-size:9.56400013px;font-family:CMMI12;-inkscape-font-specification:CMMI12;writing-mode:lr-tb;fill:#231f20;fill-opacity:1;fill-rule:nonzero;stroke:none"
               transform="matrix(1,0,0,-1,161.07057,24.791367)"><tspan
                 id="tspan184"
                 y="0"
                 x="0">B</tspan></text>
<text
               id="text190"
               style="font-variant:normal;font-weight:normal;font-size:9.56400013px;font-family:CMMI12;-inkscape-font-specification:CMMI12;writing-mode:lr-tb;fill:#231f20;fill-opacity:1;fill-rule:nonzero;stroke:none"
               transform="matrix(1,0,0,-1,98.299171,87.894646)"><tspan
                 id="tspan188"
                 y="0"
                 x="0">C</tspan></text>
<text
               id="text194"
               style="font-variant:normal;font-weight:normal;font-size:9.56400013px;font-family:CMMI12;-inkscape-font-specification:CMMI12;writing-mode:lr-tb;fill:#231f20;fill-opacity:1;fill-rule:nonzero;stroke:none"
               transform="matrix(1,0,0,-1,155.29965,102.89482)"><tspan
                 id="tspan192"
                 y="0"
                 x="0">D</tspan></text>
<text
               id="text198"
               style="font-variant:normal;font-weight:normal;font-size:9.56400013px;font-family:CMMI12;-inkscape-font-specification:CMMI12;writing-mode:lr-tb;fill:#231f20;fill-opacity:1;fill-rule:nonzero;stroke:none"
               transform="matrix(1,0,0,-1,263.85583,25.591879)"><tspan
                 id="tspan196"
                 y="0"
                 x="0">E</tspan></text>
<path
               id="path200"
               style="fill:#231f20;fill-opacity:1;fill-rule:nonzero;stroke:none"
               d="m 95.5,20.792002 h 64.40001" /><path
               id="path202"
               style="fill:none;stroke:#231f20;stroke-width:1;stroke-linecap:butt;stroke-linejoin:miter;stroke-miterlimit:4;stroke-dasharray:none;stroke-opacity:1"
               d="m 95.5,20.792002 h 64.40001" /><path
               id="path204"
               style="fill:#231f20;fill-opacity:1;fill-rule:nonzero;stroke:none"
               d="m 161.78999,21.612001 c -1.32298,0.399001 -2.18298,0.767998 -3.24398,1.192999 V 18.77 c 0.38,0.179999 1.921,0.794001 3.24398,1.193001 1.41501,0.428 2.7,0.72 3.53202,0.824999 -0.83202,0.104 -2.11701,0.396002 -3.53202,0.824001" /><path
               id="path206"
               style="fill:#231f20;fill-opacity:1;fill-rule:nonzero;stroke:none"
               d="m 93.610001,19.972 c 1.324005,-0.399999 2.183006,-0.768 3.244003,-1.192999 v 4.035 C 96.474007,22.633001 94.934006,22.02 93.610001,21.621 92.195007,21.193001 90.911003,20.901001 90.079002,20.796001 90.911003,20.692001 92.195007,20.399 93.610001,19.972" /><path
               id="path208"
               style="fill:#ffffff;fill-opacity:1;fill-rule:nonzero;stroke:none"
               d="M 73.099998,7.9910002 H 100.701 V 2.3910003 H 73.099998 Z" /><path
               id="path210"
               style="fill:none;stroke:#ffffff;stroke-width:1;stroke-linecap:butt;stroke-linejoin:miter;stroke-miterlimit:4;stroke-dasharray:none;stroke-opacity:1"
               d="M 73.099998,7.9910002 H 100.701 V 2.3910003 H 73.099998 Z" /><path
               id="path212"
               style="fill:#ffffff;fill-opacity:1;fill-rule:nonzero;stroke:none"
               d="m 209.10001,7.9910002 h 27.601 V 2.3910003 h -27.601 z" /><path
               id="path214"
               style="fill:none;stroke:#ffffff;stroke-width:1;stroke-linecap:butt;stroke-linejoin:miter;stroke-miterlimit:4;stroke-dasharray:none;stroke-opacity:1"
               d="M 209.10001,7.9910002 H 236.701 V 2.3910003 h -27.60099 z" /><path
               id="path216"
               style="fill:#ffffff;fill-opacity:1;fill-rule:nonzero;stroke:none"
               d="m 111.5,22.792002 h 27.60001 v -5.6 H 111.5 Z" /><path
               id="path218"
               style="fill:none;stroke:#ffffff;stroke-width:1;stroke-linecap:butt;stroke-linejoin:miter;stroke-miterlimit:4;stroke-dasharray:none;stroke-opacity:1"
               d="m 111.5,22.792002 h 27.60001 V 17.192001 H 111.5 Z" /><path
               id="path220"
               style="fill:#ffffff;fill-opacity:1;fill-rule:nonzero;stroke:none"
               d="m 65.700005,67.392006 h 5.599999 V 39.792008 h -5.599999 z" /><path
               id="path222"
               style="fill:none;stroke:#ffffff;stroke-width:1;stroke-linecap:butt;stroke-linejoin:miter;stroke-miterlimit:4;stroke-dasharray:none;stroke-opacity:1"
               d="m 65.700005,67.392006 h 5.599998 V 39.792007 h -5.599998 z" /><path
               id="path224"
               style="fill:#ffffff;fill-opacity:1;fill-rule:nonzero;stroke:none"
               d="m 182.5,76.992004 h 5.60001 V 49.392006 H 182.5 Z" /><path
               id="path226"
               style="fill:none;stroke:#ffffff;stroke-width:1;stroke-linecap:butt;stroke-linejoin:miter;stroke-miterlimit:4;stroke-dasharray:none;stroke-opacity:1"
               d="m 182.5,76.992004 h 5.60001 V 49.392006 H 182.5 Z" /><text
               id="text230"
               style="font-variant:normal;font-weight:normal;font-size:9.56400013px;font-family:CMMI12;-inkscape-font-specification:CMMI12;writing-mode:lr-tb;fill:#231f20;fill-opacity:1;fill-rule:nonzero;stroke:none"
               transform="matrix(1,0,0,-1,64.4702,51.192101)"><tspan
                 id="tspan228"
                 y="0"
                 x="0">p</tspan></text>
<text
               id="text234"
               style="font-variant:normal;font-weight:normal;font-size:9.56400013px;font-family:CMMI12;-inkscape-font-specification:CMMI12;writing-mode:lr-tb;fill:#231f20;fill-opacity:1;fill-rule:nonzero;stroke:none"
               transform="matrix(1,0,0,-1,183.48079,61.591995)"><tspan
                 id="tspan232"
                 y="0"
                 x="0">q</tspan></text>
<text
               id="text238"
               style="font-variant:normal;font-weight:normal;font-size:9.56400013px;font-family:CMMI12;-inkscape-font-specification:CMMI12;writing-mode:lr-tb;fill:#231f20;fill-opacity:1;fill-rule:nonzero;stroke:none"
               transform="matrix(1,0,0,-1,83.492043,2.3917916)"><tspan
                 id="tspan236"
                 y="0"
                 x="0">m</tspan></text>
<text
               id="text242"
               style="font-variant:normal;font-weight:normal;font-size:9.56400013px;font-family:CMMI12;-inkscape-font-specification:CMMI12;writing-mode:lr-tb;fill:#231f20;fill-opacity:1;fill-rule:nonzero;stroke:none"
               transform="matrix(1,0,0,-1,220.69528,2.3917916)"><tspan
                 id="tspan240"
                 y="0"
                 x="0">n</tspan></text>
<text
               id="text246"
               style="font-variant:normal;font-weight:normal;font-size:9.56400013px;font-family:CMMI12;-inkscape-font-specification:CMMI12;writing-mode:lr-tb;fill:#231f20;fill-opacity:1;fill-rule:nonzero;stroke:none"
               transform="matrix(1,0,0,-1,116.80441,18.391407)"><tspan
                 id="tspan244"
                 y="0"
                 x="0 8.1867838">m/</tspan></text>
<text
               id="text250"
               style="font-variant:normal;font-weight:normal;font-size:9.56400013px;font-family:CMR12;-inkscape-font-specification:CMR12;writing-mode:lr-tb;fill:#231f20;fill-opacity:1;fill-rule:nonzero;stroke:none"
               transform="matrix(1,0,0,-1,129.67755,18.391407)"><tspan
                 id="tspan248"
                 y="0"
                 x="0">2</tspan></text>
</g></g></g></g></g></svg>