<?xml version="1.0" encoding="UTF-8" standalone="no"?>
<svg
   xmlns:dc="http://purl.org/dc/elements/1.1/"
   xmlns:cc="http://creativecommons.org/ns#"
   xmlns:rdf="http://www.w3.org/1999/02/22-rdf-syntax-ns#"
   xmlns:svg="http://www.w3.org/2000/svg"
   xmlns="http://www.w3.org/2000/svg"
   viewBox="0 0 397.33334 84"
   height="84"
   width="397.33334"
   xml:space="preserve"
   id="svg2"
   version="1.1"><metadata
     id="metadata8"><rdf:RDF><cc:Work
         rdf:about=""><dc:format>image/svg+xml</dc:format><dc:type
           rdf:resource="http://purl.org/dc/dcmitype/StillImage" /></cc:Work></rdf:RDF></metadata><defs
     id="defs6"><clipPath
       id="clipPath24"
       clipPathUnits="userSpaceOnUse"><path
         id="path22"
         d="M 0,0 H 298 V 63 H 0 Z" /></clipPath></defs><g
     transform="matrix(1.3333333,0,0,-1.3333333,0,84)"
     id="g10"><g
       id="g12" /><g
       id="g14" /><g
       id="g16"><g
         id="g18"><g
           clip-path="url(#clipPath24)"
           id="g20"><g
             id="g26" /><g
             id="g28"><path
               id="path30"
               style="fill:none;stroke:#000000;stroke-width:0.5;stroke-linecap:butt;stroke-linejoin:round;stroke-miterlimit:10;stroke-dasharray:none;stroke-opacity:1"
               d="m 57.41,4.2210002 h 2.399998 M 58.609997,5.4210005 V 3.0220001 m 28.567005,1.1990001 h 2.400001 m 27.332997,0 h 2.4 m 27.367,0 h 2.40001 m 27.366,0 h 2.401 m 27.33301,0 h 2.39999 m 27.366,0 h 2.401 m -91.66701,0 h 2.40001" /><path
               id="path32"
               style="fill:none;stroke:#000000;stroke-width:1;stroke-linecap:butt;stroke-linejoin:round;stroke-miterlimit:10;stroke-dasharray:none;stroke-opacity:1"
               d="m 207.67702,11.688001 0.29999,-0.166001 0.29901,-0.134 0.30099,-0.166999 0.3,-0.133001 0.30001,-0.132999 0.29999,-0.134001 0.29901,-0.132999 0.60099,-0.267001 0.30001,-0.133 0.26599,-0.132999 0.3,-0.133001 0.3,-0.1009995 0.301,-0.1330004 0.3,-0.099999 0.299,-0.1330004 0.3,-0.099999 0.3,-0.1340008 0.301,-0.099999 0.3,-0.1000004 0.299,-0.1329994 0.3,-0.1000004 0.601,-0.1999998 0.26599,-0.1000004 0.29999,-0.099999 0.3,-0.1000004 0.3,-0.1000004 0.30001,-0.066999 0.3,-0.1000004 0.29999,-0.099 0.3,-0.067 0.3,-0.1 0.30001,-0.067 0.3,-0.1000004 0.29999,-0.067 0.3,-0.099 0.26702,-0.067 0.29901,-0.067 0.30099,-0.1 0.3,-0.067 0.30001,-0.066 0.29999,-0.067 0.29901,-0.066 0.30099,-0.067 0.3,-0.067 0.30001,-0.067 0.29999,-0.067 0.29901,-0.066 0.30099,-0.067 0.3,-0.066 0.267,-0.033 0.299,-0.067 0.3,-0.067 0.301,-0.034 0.3,-0.066 0.3,-0.067 0.299,-0.033 0.3,-0.067 0.301,-0.033 0.3,-0.066 0.3,-0.034 0.299,-0.033 0.3,-0.067 0.26698,-0.034 0.30001,-0.033 0.3,-0.067 0.29999,-0.033 0.3,-0.033 0.3,-0.034 0.30001,-0.033 0.3,-0.033 0.29999,-0.066 0.3,-0.034 0.3,-0.033 0.30001,-0.034 0.3,-0.033 0.29999,-0.033 0.26703,-0.034 h 0.29999 l 0.29901,-0.033 0.30099,-0.034 0.3,-0.033 0.30001,-0.033 0.29999,-0.034 0.29901,-0.033 h 0.30099 l 0.3,-0.033 0.30001,-0.033 0.29999,-0.033 h 0.29901 l 0.30099,-0.034 0.267,-0.033 h 0.3 l 0.299,-0.034 0.3,-0.033 h 0.301 l 0.3,-0.034 h 0.3 m -58.901,32.7670021 0.26698,-0.333 0.30001,-0.367001 0.3,-0.333 0.29999,-0.333 0.6,-0.667 0.30001,-0.333 0.3,-0.367001 0.29999,-0.333 0.3,-0.333999 0.3,-0.333001 0.30001,-0.333 0.3,-0.333999 0.26701,-0.333001 0.6,-0.666999 0.6,-0.665999 0.3,-0.300001 0.6,-0.667 0.29901,-0.333 0.30099,-0.299999 0.3,-0.334 0.29999,-0.333 0.30001,-0.300001 0.29901,-0.333 0.26799,-0.3 0.3,-0.299999 0.3,-0.334001 0.299,-0.3 0.3,-0.299999 0.301,-0.300001 0.3,-0.333 0.3,-0.299999 0.299,-0.300002 0.3,-0.299999 0.301,-0.267 0.3,-0.299 0.3,-0.301 0.86598,-0.866 0.30001,-0.267 0.3,-0.299999 0.29999,-0.266001 0.3,-0.301 0.3,-0.265999 0.30001,-0.267 0.59999,-0.533001 0.3,-0.267001 0.3,-0.267 0.30001,-0.265999 0.26701,-0.267 0.3,-0.233 0.29999,-0.267 0.30001,-0.233 0.29901,-0.267 0.30099,-0.233 0.3,-0.267 0.29999,-0.233 0.30001,-0.234001 0.29901,-0.233 0.60099,-0.466999 0.29999,-0.232999 0.30001,-0.233002 0.266,-0.199999 0.601,-0.467001 0.3,-0.199999 0.299,-0.200001 0.3,-0.232999 0.301,-0.2 0.3,-0.2 0.3,-0.200001 0.299,-0.2 0.3,-0.199999 0.301,-0.2 0.3,-0.2 0.3,-0.200001 0.26598,-0.2 0.3,-0.166999 0.3,-0.2 0.30001,-0.166 0.3,-0.167 0.29999,-0.2 0.3,-0.167 0.60001,-0.333 0.3,-0.167 0.29999,-0.166 0.3,-0.167 0.3,-0.167001 0.26603,-0.165999 0.30099,-0.134 0.3,-0.166 0.30001,-0.134 m -58.90102,48.700003 0.30101,-0.033 0.3,-0.034 0.29999,-0.033 0.26601,-0.033 0.3,-0.034 0.301,-0.033 0.3,-0.067 0.3,-0.066 0.299,-0.067 0.3,-0.067 0.301,-0.066 0.3,-0.067 0.3,-0.1 0.299,-0.100003 0.3,-0.1 0.301,-0.1 0.3,-0.100002 0.26599,-0.1 0.3,-0.133 0.29999,-0.100002 0.3,-0.133999 0.30001,-0.132999 0.3,-0.133 0.3,-0.167 0.29999,-0.133003 0.3,-0.167 0.30001,-0.167 0.3,-0.166 0.3,-0.167 0.59999,-0.333 0.26601,-0.199997 0.30101,-0.167 0.3,-0.2 0.29999,-0.200001 0.599,-0.400002 0.30101,-0.199997 0.3,-0.233001 0.29999,-0.200001 0.30001,-0.233998 0.9,-0.699001 0.267,-0.234001 0.299,-0.232998 0.3,-0.267002 0.301,-0.232998 0.3,-0.267002 0.3,-0.232998 0.599,-0.533001 0.601,-0.534 0.3,-0.267002 0.299,-0.3 0.3,-0.265998 0.301,-0.3 0.26599,-0.267002 0.6,-0.599998 0.29999,-0.267002 0.3,-0.3 0.30001,-0.299999 0.3,-0.299999 0.3,-0.333 0.29999,-0.299999 0.3,-0.300004 0.30001,-0.299999 0.3,-0.333 0.3,-0.299999 0.29999,-0.334 0.26702,-0.299999 0.6,-0.666 0.3,-0.3 0.6,-0.666999 1.19999,-1.333001 0.599,-0.666999 0.30101,-0.333001 0.267,-0.333 0.3,-0.333999 0.299,-0.333001 0.3,-0.333 0.3,-0.333999 0.301,-0.333001 0.3,-0.367 0.599,-0.667 0.3,-0.333 0.301,-0.333 0.3,-0.367001 0.299,-0.333 0.3,-0.334 M 119.31,39.655 l 0.3,0.333 0.3,0.367 0.3,0.333001 0.6,0.666999 0.3,0.333001 0.3,0.333999 0.26701,0.333 0.3,0.333001 0.299,0.333999 0.30099,0.333 0.30001,0.333001 0.6,0.666999 0.9,1 0.3,0.3 0.3,0.333 0.299,0.333 0.30099,0.299999 0.266,0.334 0.30001,0.299999 0.3,0.333 0.29999,0.299999 0.30001,0.300004 0.29999,0.299999 0.30001,0.333 0.3,0.299999 0.3,0.299999 0.29999,0.3 0.3,0.267002 0.60001,0.599998 0.26698,0.267002 0.3,0.3 0.30001,0.265998 0.3,0.3 1.2,1.067001 0.3,0.267002 0.3,0.232998 0.29999,0.267002 0.3,0.232998 0.30001,0.267002 0.3,0.232998 0.267,0.234001 0.60001,0.466 0.29899,0.233001 0.30101,0.233998 0.29999,0.200001 0.3,0.233001 0.30001,0.199997 0.29899,0.200001 0.30101,0.200001 0.29999,0.200001 0.3,0.2 0.30001,0.167 0.266,0.199997 0.59999,0.333 0.30001,0.167 0.3,0.166 0.3,0.167 0.29999,0.167 0.3,0.133003 0.30001,0.167 0.3,0.133 0.3,0.132999 0.29999,0.133999 0.3,0.100002 0.30001,0.133 0.26699,0.1 0.29999,0.100002 0.3,0.1 0.30001,0.1 0.6,0.200001 0.29999,0.067 0.3,0.066 0.30001,0.067 0.3,0.067 0.3,0.066 0.29999,0.067 0.3,0.033 0.30001,0.034 0.26701,0.033 0.3,0.033 0.29999,0.034 0.30001,0.033 h 0.6 l 0.3,0.033 0.29999,-0.033 h 0.599 M 89.843002,12.621 l 0.599999,0.334001 0.300003,0.165999 0.599998,0.334001 0.300003,0.2 0.299996,0.166 0.300003,0.167 0.300003,0.2 0.299995,0.166999 0.266999,0.2 0.299995,0.200001 0.300003,0.2 0.299996,0.2 0.300003,0.199999 0.300003,0.2 0.299995,0.200001 0.300003,0.2 0.299996,0.2 0.300003,0.232999 0.300003,0.200001 0.299995,0.199999 0.599999,0.467001 0.266006,0.199999 0.301002,0.233002 0.300004,0.232999 0.599998,0.466999 0.298996,0.233 0.301002,0.234001 0.300004,0.233 0.299995,0.267 0.300003,0.233 0.298995,0.267 0.301,0.233 0.30001,0.267 0.29999,0.233 0.26601,0.267 0.29999,0.265999 0.30001,0.267 0.29999,0.266001 0.30001,0.267 0.3,0.267001 0.6,0.532999 0.29999,0.301 0.30001,0.266001 0.3,0.299999 0.29999,0.266001 0.30001,0.299999 0.26699,0.267 0.3,0.3 0.6,0.6 0.29999,0.267 0.30001,0.299999 0.3,0.300002 0.3,0.299999 0.3,0.333 0.29999,0.300001 0.30001,0.299999 0.3,0.3 0.3,0.334001 0.3,0.299 0.26701,0.299999 0.299,0.334 0.30099,0.300001 0.30001,0.333 0.29999,0.334 0.30001,0.299 0.299,0.333999 0.30099,0.333 0.30001,0.333001 0.29999,0.301 0.30001,0.333 0.9,0.999998 0.266,0.333001 0.3,0.333999 0.29999,0.333 0.30001,0.333001 0.29999,0.333999 0.30001,0.333 0.3,0.367001 0.29999,0.333 0.6,0.667 0.30001,0.333 0.3,0.333 0.29999,0.367001 0.26699,0.333 0.30001,0.334 0.3,0.333 0.3,0.367001 0.3,0.333 0.29999,0.333 0.30001,0.334 m -58.9,-34.7000026 0.267002,0.033 0.299999,0.034 h 0.299004 l 0.300998,0.033 0.3,0.033 0.299999,0.033 h 0.299999 l 0.299004,0.034 0.300998,0.033 0.3,0.033 0.299999,0.034 0.299999,0.033 0.299,0.033 h 0.301002 l 0.265999,0.034 0.300003,0.033 0.299996,0.033 0.300003,0.034 0.300003,0.033 0.299995,0.034 0.300003,0.066 0.299996,0.033 0.300003,0.034 0.599998,0.066 0.300003,0.034 0.299996,0.066 0.300003,0.034 0.266998,0.033 0.299996,0.067 0.300003,0.033 0.299995,0.034 0.300003,0.066 0.300003,0.033 0.299996,0.067 0.300003,0.033 0.299995,0.067 0.300003,0.067 0.300003,0.033 0.299996,0.067 0.300003,0.067 0.267006,0.033 0.299995,0.066 0.300003,0.067 0.298996,0.067 0.301002,0.066 0.300004,0.067 0.299995,0.067 0.300003,0.067 0.298996,0.066 0.301002,0.067 0.300004,0.066 0.299995,0.067 0.300003,0.1 0.298996,0.067 0.267006,0.067 0.299995,0.1 0.300003,0.066 0.299996,0.1000004 0.300003,0.067 0.300003,0.1 0.299995,0.067 0.300003,0.1000004 0.299996,0.099999 0.300003,0.066 0.300003,0.1000004 0.299995,0.1000004 0.300003,0.099999 0.299996,0.1000004 0.266998,0.099999 0.599999,0.2000008 0.300003,0.1339998 0.299995,0.099999 0.300003,0.1000004 0.299996,0.1330004 0.300003,0.099999 0.300003,0.1330004 0.299995,0.099999 0.300003,0.1340008 0.299996,0.099999 0.300003,0.133001 0.267005,0.132999 0.300004,0.134001 0.299995,0.132999 0.300003,0.133001 0.298996,0.134 0.301002,0.133 0.300004,0.132999 0.299995,0.134 0.300003,0.166 0.298996,0.134 0.301002,0.166001 0.300004,0.134 0.299995,0.166 0.300003,0.134 0.265999,0.165999 0.300003,0.167001 0.299995,0.167 M 58.609997,4.855 H 58.91 l 0.299999,0.033 h 0.299999 l 0.3,0.033 0.299999,0.034 H 60.41" /><path
               id="path34"
               style="fill:none;stroke:#000000;stroke-width:1;stroke-linecap:butt;stroke-linejoin:round;stroke-miterlimit:10;stroke-dasharray:none;stroke-opacity:1"
               d="M 57.877003,4.2380004 V 56.772003" /><path
               id="path36"
               style="fill:#000000;fill-opacity:1;fill-rule:nonzero;stroke:none"
               d="m 57.877003,56.576004 -2.306,-1.402 -0.052,0.079 1.493,3.760002 c 0.287998,1.309998 0.576,2.619999 0.865002,3.930001 0.287998,-1.310002 0.576,-2.620003 0.863998,-3.930001 l 1.494003,-3.760002 -0.04,-0.079 -2.318001,1.402" /><path
               id="path38"
               style="fill:none;stroke:#000000;stroke-width:1;stroke-linecap:butt;stroke-linejoin:round;stroke-miterlimit:10;stroke-dasharray:none;stroke-opacity:1"
               d="M 56.543003,4.2380004 H 245.07701" /><path
               id="path40"
               style="fill:#000000;fill-opacity:1;fill-rule:nonzero;stroke:none"
               d="m 244.88101,4.2380004 -1.40199,2.3059997 0.079,0.052 3.75901,-1.493 c 1.31099,-0.2880001 2.621,-0.5770002 3.931,-0.8649998 -1.31,-0.2880006 -2.62001,-0.5760002 -3.931,-0.8650003 l -3.75902,-1.493 -0.079,0.039 1.40199,2.3190003" /><path
               id="path42"
               style="fill:none;stroke:#000000;stroke-width:1;stroke-linecap:butt;stroke-linejoin:round;stroke-miterlimit:10;stroke-dasharray:none;stroke-opacity:1"
               d="m 237.076,7.7050004 v -3.467 m -29.59899,3.1999998 v -3.467 m -29.86701,3.467 v -3.467 m -29.60001,3.7340002 v -3.467 m -30,3.467 v -3.467 m -29.733989,3.467 v -3.467" /><text
               id="text46"
               style="font-variant:normal;font-weight:normal;font-size:11.95500088px;font-family:CMR12;-inkscape-font-specification:CMR12;writing-mode:lr-tb;fill:#231f20;fill-opacity:1;fill-rule:nonzero;stroke:none"
               transform="matrix(1,0,0,-1,0.2471,54.017097)"><tspan
                 id="tspan44"
                 y="0"
                 x="0">F</tspan></text>
<text
               id="text50"
               style="font-variant:normal;font-weight:normal;font-size:11.95500088px;font-family:CMR12;-inkscape-font-specification:CMR12;writing-mode:lr-tb;fill:#231f20;fill-opacity:1;fill-rule:nonzero;stroke:none"
               transform="matrix(1,0,0,-1,6.9108176,54.017097)"><tspan
                 id="tspan48"
                 y="0"
                 x="0 4.5548553 9.7552805 15.936016 22.439537 27.639963 34.143482 39.343906">requency</tspan></text>
<text
               id="text54"
               style="font-variant:normal;font-weight:normal;font-size:11.95500088px;font-family:CMR12;-inkscape-font-specification:CMR12;writing-mode:lr-tb;fill:#231f20;fill-opacity:1;fill-rule:nonzero;stroke:none"
               transform="matrix(1,0,0,-1,261.14111,3.0170605)"><tspan
                 id="tspan52"
                 y="0"
                 x="0 8.4521856 11.703946 17.561897 22.176527 26.791157 31.991583">Classes</tspan></text>
</g></g></g></g></g></svg>