<?xml version="1.0" encoding="UTF-8" standalone="no"?>
<svg
   xmlns:dc="http://purl.org/dc/elements/1.1/"
   xmlns:cc="http://creativecommons.org/ns#"
   xmlns:rdf="http://www.w3.org/1999/02/22-rdf-syntax-ns#"
   xmlns:svg="http://www.w3.org/2000/svg"
   xmlns="http://www.w3.org/2000/svg"
   viewBox="0 0 662.66669 226.66667"
   height="226.66667"
   width="662.66669"
   xml:space="preserve"
   id="svg2"
   version="1.1"><metadata
     id="metadata8"><rdf:RDF><cc:Work
         rdf:about=""><dc:format>image/svg+xml</dc:format><dc:type
           rdf:resource="http://purl.org/dc/dcmitype/StillImage" /></cc:Work></rdf:RDF></metadata><defs
     id="defs6"><clipPath
       id="clipPath24"
       clipPathUnits="userSpaceOnUse"><path
         id="path22"
         d="M 0,0 H 497 V 170 H 0 Z" /></clipPath></defs><g
     transform="matrix(1.3333333,0,0,-1.3333333,0,226.66667)"
     id="g10"><g
       id="g12" /><g
       id="g14" /><g
       id="g16"><g
         id="g18"><g
           clip-path="url(#clipPath24)"
           id="g20"><g
             id="g26" /><g
             id="g28"><path
               id="path30"
               style="fill:#ffffff;fill-opacity:1;fill-rule:nonzero;stroke:#000000;stroke-width:1;stroke-linecap:butt;stroke-linejoin:miter;stroke-miterlimit:4;stroke-dasharray:none;stroke-opacity:1"
               d="M 161,22.195002 V 143.69501 h 33.66602 V 22.195002 98.395004 h 34.66699 V 22.195002" /><path
               id="path32"
               style="fill:#ffffff;fill-opacity:1;fill-rule:nonzero;stroke:#000000;stroke-width:1;stroke-linecap:butt;stroke-linejoin:miter;stroke-miterlimit:4;stroke-dasharray:none;stroke-opacity:1"
               d="M 229.33301,98.395004 V 128.696 h 34.33401 V 22.195002" /><path
               id="path34"
               style="fill:#ffffff;fill-opacity:1;fill-rule:nonzero;stroke:none"
               d="M 56,21.596001 H 420.66602" /><path
               id="path36"
               style="fill:#ffffff;fill-opacity:1;fill-rule:nonzero;stroke:none"
               d="m 419.64603,21.596001 -2.19001,3.242 0.12201,0.074 5.875,-2.100001 c 2.04697,-0.406 4.094,-0.810999 6.14099,-1.215999 -2.04699,-0.406002 -4.09402,-0.810999 -6.14099,-1.216002 l -5.875,-2.100998 -0.12201,0.056 2.19001,3.261" /><path
               id="path38"
               style="fill:none;stroke:#000000;stroke-width:1;stroke-linecap:butt;stroke-linejoin:miter;stroke-miterlimit:4;stroke-dasharray:none;stroke-opacity:1"
               d="M 56,21.596001 H 420.66602" /><path
               id="path40"
               style="fill:#000000;fill-opacity:1;fill-rule:nonzero;stroke:none"
               d="m 419.64603,21.596001 -2.19001,3.242 0.12201,0.074 5.875,-2.100001 c 2.04697,-0.406 4.094,-0.810999 6.14099,-1.215999 -2.04699,-0.406002 -4.09402,-0.810999 -6.14099,-1.216002 l -5.875,-2.100998 -0.12201,0.056 2.19001,3.261" /><path
               id="path42"
               style="fill:#ffffff;fill-opacity:1;fill-rule:nonzero;stroke:none"
               d="M 59.333004,6.1670003 V 170" /><path
               id="path44"
               style="fill:#ffffff;fill-opacity:1;fill-rule:nonzero;stroke:none"
               d="m 58.666004,156.00999 -3.603,-1.97099 -0.082,0.11 2.333999,5.28801 c 0.450001,1.842 0.900002,3.685 1.351002,5.52699 0.449997,-1.84199 0.899998,-3.68499 1.350998,-5.52699 l 2.334,-5.28801 -0.062,-0.11 -3.622997,1.97099" /><path
               id="path46"
               style="fill:none;stroke:#000000;stroke-width:1;stroke-linecap:butt;stroke-linejoin:miter;stroke-miterlimit:4;stroke-dasharray:none;stroke-opacity:1"
               d="M 58.666004,22 V 164.666" /><path
               id="path48"
               style="fill:#000000;fill-opacity:1;fill-rule:nonzero;stroke:none"
               d="m 58.666004,156.00999 -3.603,-1.97099 -0.082,0.11 2.333999,5.28801 c 0.450001,1.842 0.900002,3.685 1.351002,5.52699 0.449997,-1.84199 0.899998,-3.68499 1.350998,-5.52699 l 2.334,-5.28801 -0.062,-0.11 -3.622997,1.97099" /><path
               id="path50"
               style="fill:#ffffff;fill-opacity:1;fill-rule:nonzero;stroke:#000000;stroke-width:1;stroke-linecap:butt;stroke-linejoin:miter;stroke-miterlimit:4;stroke-dasharray:none;stroke-opacity:1"
               d="M 127.66701,82.796005 H 161 V 21.596004 h -33.33299 z" /><path
               id="path52"
               style="fill:#ffffff;fill-opacity:1;fill-rule:nonzero;stroke:#000000;stroke-width:1;stroke-linecap:butt;stroke-linejoin:miter;stroke-miterlimit:4;stroke-dasharray:none;stroke-opacity:1"
               d="M 59,52.495003 H 92.667007 V 21.895 H 127.66701 V 82.796005 H 161" /><path
               id="path54"
               style="fill:#ffffff;fill-opacity:1;fill-rule:nonzero;stroke:#000000;stroke-width:1;stroke-linecap:butt;stroke-linejoin:miter;stroke-miterlimit:4;stroke-dasharray:none;stroke-opacity:1"
               d="m 264.5,83.695007 h 33.332 V 22.495001" /><text
               id="text58"
               style="font-variant:normal;font-weight:normal;font-size:11.95500088px;font-family:CMR12;-inkscape-font-specification:CMR12;writing-mode:lr-tb;fill:#231f20;fill-opacity:1;fill-rule:nonzero;stroke:none"
               transform="matrix(1,0,0,-1,434.68948,18.507299)"><tspan
                 id="tspan56"
                 y="0"
                 x="0 8.774971 13.975396 17.227156 23.085108">Heigh</tspan></text>
<text
               id="text62"
               style="font-variant:normal;font-weight:normal;font-size:11.95500088px;font-family:CMR12;-inkscape-font-specification:CMR12;writing-mode:lr-tb;fill:#231f20;fill-opacity:1;fill-rule:nonzero;stroke:none"
               transform="matrix(1,0,0,-1,463.95294,18.507299)"><tspan
                 id="tspan60"
                 y="0"
                 x="0">t</tspan></text>
<text
               id="text66"
               style="font-variant:normal;font-weight:normal;font-size:11.95500088px;font-family:CMR12;-inkscape-font-specification:CMR12;writing-mode:lr-tb;fill:#231f20;fill-opacity:1;fill-rule:nonzero;stroke:none"
               transform="matrix(1,0,0,-1,472.40991,18.507299)"><tspan
                 id="tspan64"
                 y="0"
                 x="0 4.5548553 9.7552805 19.510561">(cm)</tspan></text>
<text
               id="text70"
               style="font-variant:normal;font-weight:normal;font-size:11.95500088px;font-family:CMR12;-inkscape-font-specification:CMR12;writing-mode:lr-tb;fill:#231f20;fill-opacity:1;fill-rule:nonzero;stroke:none"
               transform="matrix(1,0,0,-1,0.00564444,157.17337)"><tspan
                 id="tspan68"
                 y="0"
                 x="0">F</tspan></text>
<text
               id="text74"
               style="font-variant:normal;font-weight:normal;font-size:11.95500088px;font-family:CMR12;-inkscape-font-specification:CMR12;writing-mode:lr-tb;fill:#231f20;fill-opacity:1;fill-rule:nonzero;stroke:none"
               transform="matrix(1,0,0,-1,6.6693621,157.17337)"><tspan
                 id="tspan72"
                 y="0"
                 x="0 4.5548553 9.7552805 15.936016 22.439537 27.639963 34.143482 39.343906">requency</tspan></text>
<text
               id="text78"
               style="font-variant:normal;font-weight:normal;font-size:11.95500088px;font-family:CMR12;-inkscape-font-specification:CMR12;writing-mode:lr-tb;fill:#231f20;fill-opacity:1;fill-rule:nonzero;stroke:none"
               transform="matrix(1,0,0,-1,48.065945,13.34037)"><tspan
                 id="tspan76"
                 y="0"
                 x="0">0</tspan></text>
<text
               id="text82"
               style="font-variant:normal;font-weight:normal;font-size:11.95500088px;font-family:CMR12;-inkscape-font-specification:CMR12;writing-mode:lr-tb;fill:#231f20;fill-opacity:1;fill-rule:nonzero;stroke:none"
               transform="matrix(1,0,0,-1,48.389927,48.673374)"><tspan
                 id="tspan80"
                 y="0"
                 x="0">2</tspan></text>
<text
               id="text86"
               style="font-variant:normal;font-weight:normal;font-size:11.95500088px;font-family:CMR12;-inkscape-font-specification:CMR12;writing-mode:lr-tb;fill:#231f20;fill-opacity:1;fill-rule:nonzero;stroke:none"
               transform="matrix(1,0,0,-1,48.144848,79.34034)"><tspan
                 id="tspan84"
                 y="0"
                 x="0">4</tspan></text>
<text
               id="text90"
               style="font-variant:normal;font-weight:normal;font-size:11.95500088px;font-family:CMR12;-inkscape-font-specification:CMR12;writing-mode:lr-tb;fill:#231f20;fill-opacity:1;fill-rule:nonzero;stroke:none"
               transform="matrix(1,0,0,-1,48.56686,110.00731)"><tspan
                 id="tspan88"
                 y="0"
                 x="0">6</tspan></text>
<text
               id="text94"
               style="font-variant:normal;font-weight:normal;font-size:11.95500088px;font-family:CMR12;-inkscape-font-specification:CMR12;writing-mode:lr-tb;fill:#231f20;fill-opacity:1;fill-rule:nonzero;stroke:none"
               transform="matrix(1,0,0,-1,48.321781,143.34024)"><tspan
                 id="tspan92"
                 y="0"
                 x="0">8</tspan></text>
<text
               id="text98"
               style="font-variant:normal;font-weight:normal;font-size:11.95500088px;font-family:CMR12;-inkscape-font-specification:CMR12;writing-mode:lr-tb;fill:#231f20;fill-opacity:1;fill-rule:nonzero;stroke:none"
               transform="matrix(1,0,0,-1,44.02396,4.1947889)"><tspan
                 id="tspan96"
                 y="0"
                 x="0 5.8579507 11.715901 17.573851 20.825611">149.5</tspan></text>
<text
               id="text102"
               style="font-variant:normal;font-weight:normal;font-size:11.95500088px;font-family:CMR12;-inkscape-font-specification:CMR12;writing-mode:lr-tb;fill:#231f20;fill-opacity:1;fill-rule:nonzero;stroke:none"
               transform="matrix(1,0,0,-1,79.276871,4.1947889)"><tspan
                 id="tspan100"
                 y="0"
                 x="0 5.8579507 11.715901 17.573851 20.825611">154.5</tspan></text>
<text
               id="text106"
               style="font-variant:normal;font-weight:normal;font-size:11.95500088px;font-family:CMR12;-inkscape-font-specification:CMR12;writing-mode:lr-tb;fill:#231f20;fill-opacity:1;fill-rule:nonzero;stroke:none"
               transform="matrix(1,0,0,-1,115.15382,3.8612444)"><tspan
                 id="tspan104"
                 y="0"
                 x="0 5.8579507 11.715901 17.573851 20.825611">159.5</tspan></text>
<text
               id="text110"
               style="font-variant:normal;font-weight:normal;font-size:11.95500088px;font-family:CMR12;-inkscape-font-specification:CMR12;writing-mode:lr-tb;fill:#231f20;fill-opacity:1;fill-rule:nonzero;stroke:none"
               transform="matrix(1,0,0,-1,149.74084,3.8612444)"><tspan
                 id="tspan108"
                 y="0"
                 x="0 5.8579507 11.715901 17.573851 20.825611">164.5</tspan></text>
<text
               id="text114"
               style="font-variant:normal;font-weight:normal;font-size:11.95500088px;font-family:CMR12;-inkscape-font-specification:CMR12;writing-mode:lr-tb;fill:#231f20;fill-opacity:1;fill-rule:nonzero;stroke:none"
               transform="matrix(1,0,0,-1,183.32724,3.8612444)"><tspan
                 id="tspan112"
                 y="0"
                 x="0 5.8579507 11.715901 17.573851 20.825611">169.5</tspan></text>
<text
               id="text118"
               style="font-variant:normal;font-weight:normal;font-size:11.95500088px;font-family:CMR12;-inkscape-font-specification:CMR12;writing-mode:lr-tb;fill:#231f20;fill-opacity:1;fill-rule:nonzero;stroke:none"
               transform="matrix(1,0,0,-1,217.18498,3.5276999)"><tspan
                 id="tspan116"
                 y="0"
                 x="0 5.8579507 11.715901 17.573851 20.825611">174.5</tspan></text>
<text
               id="text122"
               style="font-variant:normal;font-weight:normal;font-size:11.95500088px;font-family:CMR12;-inkscape-font-specification:CMR12;writing-mode:lr-tb;fill:#231f20;fill-opacity:1;fill-rule:nonzero;stroke:none"
               transform="matrix(1,0,0,-1,253.4182,3.8612444)"><tspan
                 id="tspan120"
                 y="0"
                 x="0 5.8579507 11.715901 17.573851 20.825611">179.5</tspan></text>
<text
               id="text126"
               style="font-variant:normal;font-weight:normal;font-size:11.95500088px;font-family:CMR12;-inkscape-font-specification:CMR12;writing-mode:lr-tb;fill:#231f20;fill-opacity:1;fill-rule:nonzero;stroke:none"
               transform="matrix(1,0,0,-1,286.00394,3.8612444)"><tspan
                 id="tspan124"
                 y="0"
                 x="0 5.8579507 11.715901 17.573851 20.825611">184.5</tspan></text>
<path
               id="path128"
               style="fill:none;stroke:#231f20;stroke-width:1;stroke-linecap:butt;stroke-linejoin:miter;stroke-miterlimit:4;stroke-dasharray:3, 3, 3, 3, 3, 3;stroke-dashoffset:0;stroke-opacity:1"
               d="M 73.333,52.495003 108.66701,21.895 144,82.796005 l 33.33301,60.899005 35.33301,-45.300006 34.00099,30.300006 34.666,-45.000003" /></g></g></g></g></g></svg>