<?xml version="1.0" encoding="UTF-8" standalone="no"?>
<svg
   xmlns:dc="http://purl.org/dc/elements/1.1/"
   xmlns:cc="http://creativecommons.org/ns#"
   xmlns:rdf="http://www.w3.org/1999/02/22-rdf-syntax-ns#"
   xmlns:svg="http://www.w3.org/2000/svg"
   xmlns="http://www.w3.org/2000/svg"
   viewBox="0 0 324 248"
   height="248"
   width="324"
   xml:space="preserve"
   id="svg2"
   version="1.1"><metadata
     id="metadata8"><rdf:RDF><cc:Work
         rdf:about=""><dc:format>image/svg+xml</dc:format><dc:type
           rdf:resource="http://purl.org/dc/dcmitype/StillImage" /></cc:Work></rdf:RDF></metadata><defs
     id="defs6"><clipPath
       id="clipPath24"
       clipPathUnits="userSpaceOnUse"><path
         id="path22"
         d="M 0,0 H 243 V 186 H 0 Z" /></clipPath></defs><g
     transform="matrix(1.3333333,0,0,-1.3333333,0,248)"
     id="g10"><g
       id="g12" /><g
       id="g14" /><g
       id="g16"><g
         id="g18"><g
           clip-path="url(#clipPath24)"
           id="g20"><g
             id="g26" /><g
             id="g28"><path
               id="path30"
               style="fill:none;stroke:#231f20;stroke-width:1;stroke-linecap:butt;stroke-linejoin:miter;stroke-miterlimit:4;stroke-dasharray:none;stroke-opacity:1"
               d="m 168.511,101.00401 c 0,-41.753007 -33.847,-75.600009 -75.599997,-75.600009 -41.753002,0 -75.600002,33.847002 -75.600002,75.600009 0,41.75299 33.847,75.601 75.600002,75.601 41.752997,0 75.599997,-33.84801 75.599997,-75.601 z m -75.599997,0 V 176.871 M 92.221001,101.314 127.13501,33.959003" /><text
               id="text34"
               style="font-variant:normal;font-weight:normal;font-size:9.56400013px;font-family:CMR12;-inkscape-font-specification:CMR12;writing-mode:lr-tb;fill:#231f20;fill-opacity:1;fill-rule:nonzero;stroke:none"
               transform="matrix(1,0,0,-1,106.52,177.9352)"><tspan
                 id="tspan32"
                 y="0"
                 x="0">T</tspan></text>
<text
               id="text38"
               style="font-variant:normal;font-weight:normal;font-size:9.56400013px;font-family:CMR12;-inkscape-font-specification:CMR12;writing-mode:lr-tb;fill:#231f20;fill-opacity:1;fill-rule:nonzero;stroke:none"
               transform="matrix(1,0,0,-1,112.50323,177.9352)"><tspan
                 id="tspan36"
                 y="0"
                 x="0">r</tspan></text>
<text
               id="text42"
               style="font-variant:normal;font-weight:normal;font-size:9.56400013px;font-family:CMR12;-inkscape-font-specification:CMR12;writing-mode:lr-tb;fill:#231f20;fill-opacity:1;fill-rule:nonzero;stroke:none"
               transform="matrix(1,0,0,-1,116.13756,177.9352)"><tspan
                 id="tspan40"
                 y="0"
                 x="0">a</tspan></text>
<text
               id="text46"
               style="font-variant:normal;font-weight:normal;font-size:9.56400013px;font-family:CMR12;-inkscape-font-specification:CMR12;writing-mode:lr-tb;fill:#231f20;fill-opacity:1;fill-rule:nonzero;stroke:none"
               transform="matrix(1,0,0,-1,120.5676,177.9352)"><tspan
                 id="tspan44"
                 y="0"
                 x="0">v</tspan></text>
<text
               id="text50"
               style="font-variant:normal;font-weight:normal;font-size:9.56400013px;font-family:CMR12;-inkscape-font-specification:CMR12;writing-mode:lr-tb;fill:#231f20;fill-opacity:1;fill-rule:nonzero;stroke:none"
               transform="matrix(1,0,0,-1,125.25014,177.9352)"><tspan
                 id="tspan48"
                 y="0"
                 x="0 4.1603398">el</tspan></text>
<text
               id="text54"
               style="font-variant:normal;font-weight:normal;font-size:9.56400013px;font-family:CMR12;-inkscape-font-specification:CMR12;writing-mode:lr-tb;fill:#231f20;fill-opacity:1;fill-rule:nonzero;stroke:none"
               transform="matrix(1,0,0,-1,135.13548,177.9352)"><tspan
                 id="tspan52"
                 y="0"
                 x="0 3.63432">to</tspan></text>
<text
               id="text58"
               style="font-variant:normal;font-weight:normal;font-size:9.56400013px;font-family:CMR12;-inkscape-font-specification:CMR12;writing-mode:lr-tb;fill:#231f20;fill-opacity:1;fill-rule:nonzero;stroke:none"
               transform="matrix(1,0,0,-1,146.58168,177.9352)"><tspan
                 id="tspan56"
                 y="0"
                 x="0 4.676796 9.8700485">and</tspan></text>
<text
               id="text62"
               style="font-variant:normal;font-weight:normal;font-size:9.56400013px;font-family:CMR12;-inkscape-font-specification:CMR12;writing-mode:lr-tb;fill:#231f20;fill-opacity:1;fill-rule:nonzero;stroke:none"
               transform="matrix(1,0,0,-1,164.78963,177.9352)"><tspan
                 id="tspan60"
                 y="0"
                 x="0 2.8596361 6.4939561 11.170753">from</tspan></text>
<text
               id="text66"
               style="font-variant:normal;font-weight:normal;font-size:9.56400013px;font-family:CMR12;-inkscape-font-specification:CMR12;writing-mode:lr-tb;fill:#231f20;fill-opacity:1;fill-rule:nonzero;stroke:none"
               transform="matrix(1,0,0,-1,186.90256,177.9352)"><tspan
                 id="tspan64"
                 y="0"
                 x="0">w</tspan></text>
<text
               id="text70"
               style="font-variant:normal;font-weight:normal;font-size:9.56400013px;font-family:CMR12;-inkscape-font-specification:CMR12;writing-mode:lr-tb;fill:#231f20;fill-opacity:1;fill-rule:nonzero;stroke:none"
               transform="matrix(1,0,0,-1,193.74368,177.9352)"><tspan
                 id="tspan68"
                 y="0"
                 x="0 4.676796 8.3111162">ork</tspan></text>
<text
               id="text74"
               style="font-variant:normal;font-weight:normal;font-size:9.56400013px;font-family:CMR12;-inkscape-font-specification:CMR12;writing-mode:lr-tb;fill:#231f20;fill-opacity:1;fill-rule:nonzero;stroke:none"
               transform="matrix(1,0,0,-1,173.5732,113.93482)"><tspan
                 id="tspan72"
                 y="0"
                 x="0">P</tspan></text>
<text
               id="text78"
               style="font-variant:normal;font-weight:normal;font-size:9.56400013px;font-family:CMR12;-inkscape-font-specification:CMR12;writing-mode:lr-tb;fill:#231f20;fill-opacity:1;fill-rule:nonzero;stroke:none"
               transform="matrix(1,0,0,-1,179.68651,113.93482)"><tspan
                 id="tspan76"
                 y="0"
                 x="0 4.676796 7.26864">aid</tspan></text>
<text
               id="text82"
               style="font-variant:normal;font-weight:normal;font-size:9.56400013px;font-family:CMR12;-inkscape-font-specification:CMR12;writing-mode:lr-tb;fill:#231f20;fill-opacity:1;fill-rule:nonzero;stroke:none"
               transform="matrix(1,0,0,-1,195.29401,113.93482)"><tspan
                 id="tspan80"
                 y="0"
                 x="0 4.676796 8.8371363 12.471457 15.0633 19.998323 22.590168 26.224489 28.816332 32.976673">activities</tspan></text>
<text
               id="text86"
               style="font-variant:normal;font-weight:normal;font-size:9.56400013px;font-family:CMR12;-inkscape-font-specification:CMR12;writing-mode:lr-tb;fill:#231f20;fill-opacity:1;fill-rule:nonzero;stroke:none"
               transform="matrix(1,0,0,-1,235.14816,113.93482)"><tspan
                 id="tspan84"
                 y="0"
                 x="0 2.5918441">in</tspan></text>
<text
               id="text90"
               style="font-variant:normal;font-weight:normal;font-size:9.56400013px;font-family:CMR12;-inkscape-font-specification:CMR12;writing-mode:lr-tb;fill:#231f20;fill-opacity:1;fill-rule:nonzero;stroke:none"
               transform="matrix(1,0,0,-1,175.67154,102.73537)"><tspan
                 id="tspan88"
                 y="0"
                 x="0 4.1603398 11.955 17.148252 19.740097">emplo</tspan></text>
<text
               id="text94"
               style="font-variant:normal;font-weight:normal;font-size:9.56400013px;font-family:CMR12;-inkscape-font-specification:CMR12;writing-mode:lr-tb;fill:#231f20;fill-opacity:1;fill-rule:nonzero;stroke:none"
               transform="matrix(1,0,0,-1,199.86464,102.73537)"><tspan
                 id="tspan92"
                 y="0"
                 x="0 4.9350243 12.729684 16.890024">ymen</tspan></text>
<text
               id="text98"
               style="font-variant:normal;font-weight:normal;font-size:9.56400013px;font-family:CMR12;-inkscape-font-specification:CMR12;writing-mode:lr-tb;fill:#231f20;fill-opacity:1;fill-rule:nonzero;stroke:none"
               transform="matrix(1,0,0,-1,221.71742,102.73537)"><tspan
                 id="tspan96"
                 y="0"
                 x="0">t</tspan></text>
<text
               id="text102"
               style="font-variant:normal;font-weight:normal;font-size:9.56400013px;font-family:CMR12;-inkscape-font-specification:CMR12;writing-mode:lr-tb;fill:#231f20;fill-opacity:1;fill-rule:nonzero;stroke:none"
               transform="matrix(1,0,0,-1,154.22044,47.417194)"><tspan
                 id="tspan100"
                 y="0"
                 x="0">P</tspan></text>
<text
               id="text106"
               style="font-variant:normal;font-weight:normal;font-size:9.56400013px;font-family:CMR12;-inkscape-font-specification:CMR12;writing-mode:lr-tb;fill:#231f20;fill-opacity:1;fill-rule:nonzero;stroke:none"
               transform="matrix(1,0,0,-1,160.33185,47.417194)"><tspan
                 id="tspan104"
                 y="0"
                 x="0 4.1603398 7.7946601 11.486364 16.16316 21.356413 26.033209">ersonal</tspan></text>
<text
               id="text110"
               style="font-variant:normal;font-weight:normal;font-size:9.56400013px;font-family:CMR12;-inkscape-font-specification:CMR12;writing-mode:lr-tb;fill:#231f20;fill-opacity:1;fill-rule:nonzero;stroke:none"
               transform="matrix(1,0,0,-1,192.12166,47.417194)"><tspan
                 id="tspan108"
                 y="0"
                 x="0 3.691704">sp</tspan></text>
<text
               id="text114"
               style="font-variant:normal;font-weight:normal;font-size:9.56400013px;font-family:CMR12;-inkscape-font-specification:CMR12;writing-mode:lr-tb;fill:#231f20;fill-opacity:1;fill-rule:nonzero;stroke:none"
               transform="matrix(1,0,0,-1,201.27824,47.417194)"><tspan
                 id="tspan112"
                 y="0"
                 x="0 4.676796 8.3111162">ort</tspan></text>
<text
               id="text118"
               style="font-variant:normal;font-weight:normal;font-size:9.56400013px;font-family:CMR12;-inkscape-font-specification:CMR12;writing-mode:lr-tb;fill:#231f20;fill-opacity:1;fill-rule:nonzero;stroke:none"
               transform="matrix(1,0,0,-1,216.36642,47.417194)"><tspan
                 id="tspan116"
                 y="0"
                 x="0 4.676796 9.8700485">and</tspan></text>
<text
               id="text122"
               style="font-variant:normal;font-weight:normal;font-size:9.56400013px;font-family:CMR12;-inkscape-font-specification:CMR12;writing-mode:lr-tb;fill:#231f20;fill-opacity:1;fill-rule:nonzero;stroke:none"
               transform="matrix(1,0,0,-1,155.37386,37.0173)"><tspan
                 id="tspan120"
                 y="0"
                 x="0 2.5918441 6.7521839 9.3440285 13.035732 18.228985 21.863304">leisure</tspan></text>
<text
               id="text126"
               style="font-variant:normal;font-weight:normal;font-size:9.56400013px;font-family:CMR12;-inkscape-font-specification:CMR12;writing-mode:lr-tb;fill:#231f20;fill-opacity:1;fill-rule:nonzero;stroke:none"
               transform="matrix(1,0,0,-1,184.56224,37.0173)"><tspan
                 id="tspan124"
                 y="0"
                 x="0 4.676796 8.8371363 12.471457 15.0633 19.998323 22.590168 26.224489 28.816332 32.976673">activities</tspan></text>
<text
               id="text130"
               style="font-variant:normal;font-weight:normal;font-size:9.56400013px;font-family:CMR12;-inkscape-font-specification:CMR12;writing-mode:lr-tb;fill:#231f20;fill-opacity:1;fill-rule:nonzero;stroke:none"
               transform="matrix(1,0,0,-1,147.25688,21.217571)"><tspan
                 id="tspan128"
                 y="0"
                 x="0">P</tspan></text>
<text
               id="text134"
               style="font-variant:normal;font-weight:normal;font-size:9.56400013px;font-family:CMR12;-inkscape-font-specification:CMR12;writing-mode:lr-tb;fill:#231f20;fill-opacity:1;fill-rule:nonzero;stroke:none"
               transform="matrix(1,0,0,-1,153.36829,21.217571)"><tspan
                 id="tspan132"
                 y="0"
                 x="0 4.1603398 7.7946601 11.486364 16.16316 21.356413 26.033209">ersonal</tspan></text>
<text
               id="text138"
               style="font-variant:normal;font-weight:normal;font-size:9.56400013px;font-family:CMR12;-inkscape-font-specification:CMR12;writing-mode:lr-tb;fill:#231f20;fill-opacity:1;fill-rule:nonzero;stroke:none"
               transform="matrix(1,0,0,-1,147.55623,13.217285)"><tspan
                 id="tspan136"
                 y="0"
                 x="0 5.1932521 9.3535919">dev</tspan></text>
<text
               id="text142"
               style="font-variant:normal;font-weight:normal;font-size:9.56400013px;font-family:CMR12;-inkscape-font-specification:CMR12;writing-mode:lr-tb;fill:#231f20;fill-opacity:1;fill-rule:nonzero;stroke:none"
               transform="matrix(1,0,0,-1,161.6048,13.217285)"><tspan
                 id="tspan140"
                 y="0"
                 x="0 4.1603398 6.7521839 11.42898 16.622232 24.416893 28.577232">elopmen</tspan></text>
<text
               id="text146"
               style="font-variant:normal;font-weight:normal;font-size:9.56400013px;font-family:CMR12;-inkscape-font-specification:CMR12;writing-mode:lr-tb;fill:#231f20;fill-opacity:1;fill-rule:nonzero;stroke:none"
               transform="matrix(1,0,0,-1,195.16296,13.217285)"><tspan
                 id="tspan144"
                 y="0"
                 x="0">t</tspan></text>
<text
               id="text150"
               style="font-variant:normal;font-weight:normal;font-size:9.56400013px;font-family:CMR12;-inkscape-font-specification:CMR12;writing-mode:lr-tb;fill:#231f20;fill-opacity:1;fill-rule:nonzero;stroke:none"
               transform="matrix(1,0,0,-1,103.62112,12.801251)"><tspan
                 id="tspan148"
                 y="0"
                 x="0">F</tspan></text>
<text
               id="text154"
               style="font-variant:normal;font-weight:normal;font-size:9.56400013px;font-family:CMR12;-inkscape-font-specification:CMR12;writing-mode:lr-tb;fill:#231f20;fill-opacity:1;fill-rule:nonzero;stroke:none"
               transform="matrix(1,0,0,-1,108.9521,12.801251)"><tspan
                 id="tspan152"
                 y="0"
                 x="0 4.676796 12.471457 15.0633 17.655144">amily</tspan></text>
<text
               id="text158"
               style="font-variant:normal;font-weight:normal;font-size:9.56400013px;font-family:CMR12;-inkscape-font-specification:CMR12;writing-mode:lr-tb;fill:#231f20;fill-opacity:1;fill-rule:nonzero;stroke:none"
               transform="matrix(1,0,0,-1,104.30495,2.4004016)"><tspan
                 id="tspan156"
                 y="0"
                 x="0 4.676796 8.8371363 12.471457 15.0633 19.998323 22.590168 26.224489 28.816332 32.976673">activities</tspan></text>
<text
               id="text162"
               style="font-variant:normal;font-weight:normal;font-size:9.56400013px;font-family:CMR12;-inkscape-font-specification:CMR12;writing-mode:lr-tb;fill:#231f20;fill-opacity:1;fill-rule:nonzero;stroke:none"
               transform="matrix(1,0,0,-1,9.1787032e-4,61.501137)"><tspan
                 id="tspan160"
                 y="0"
                 x="0 5.1932521 7.7850962 11.945436 16.105776">Sleep</tspan></text>
<path
               id="path164"
               style="fill:#231f20;fill-opacity:1;fill-rule:nonzero;stroke:none"
               d="m 143.41101,18.104 -12.8,30.400002" /><path
               id="path166"
               style="fill:none;stroke:#231f20;stroke-width:0.80000001;stroke-linecap:butt;stroke-linejoin:miter;stroke-miterlimit:4;stroke-dasharray:none;stroke-opacity:1"
               d="m 143.41101,18.104 -12.8,30.400002" /><path
               id="path168"
               style="fill:none;stroke:#231f20;stroke-width:1;stroke-linecap:butt;stroke-linejoin:miter;stroke-miterlimit:4;stroke-dasharray:none;stroke-opacity:1"
               d="M 93.332001,100.536 105.201,25.603001 M 93.416008,100.857 122.45,170.94901 M 93.357002,101.007 156.84,59.464005 M 92.791008,101.132 140.74101,42.339001 M 92.894005,100.26601 21.972,127.20701" /><text
               id="text172"
               style="font-variant:normal;font-weight:normal;font-size:9.56400013px;font-family:CMR12;-inkscape-font-specification:CMR12;writing-mode:lr-tb;fill:#231f20;fill-opacity:1;fill-rule:nonzero;stroke:none"
               transform="matrix(1,0,0,-1,23.267599,165.85019)"><tspan
                 id="tspan170"
                 y="0"
                 x="0 7.278204 10.912524 16.105776 20.266117">Other</tspan></text>
</g></g></g></g></g></svg>