<?xml version="1.0" encoding="UTF-8" standalone="no"?>
<svg
   xmlns:dc="http://purl.org/dc/elements/1.1/"
   xmlns:cc="http://creativecommons.org/ns#"
   xmlns:rdf="http://www.w3.org/1999/02/22-rdf-syntax-ns#"
   xmlns:svg="http://www.w3.org/2000/svg"
   xmlns="http://www.w3.org/2000/svg"
   viewBox="0 0 482.66666 205.33333"
   height="205.33333"
   width="482.66666"
   xml:space="preserve"
   id="svg2"
   version="1.1"><metadata
     id="metadata8"><rdf:RDF><cc:Work
         rdf:about=""><dc:format>image/svg+xml</dc:format><dc:type
           rdf:resource="http://purl.org/dc/dcmitype/StillImage" /></cc:Work></rdf:RDF></metadata><defs
     id="defs6"><clipPath
       id="clipPath24"
       clipPathUnits="userSpaceOnUse"><path
         id="path22"
         d="M 0,0 H 362 V 154 H 0 Z" /></clipPath><clipPath
       id="clipPath62"
       clipPathUnits="userSpaceOnUse"><path
         id="path60"
         d="M 0.06,0 H 361.43503 V 153.03999 H 0.06 Z" /></clipPath><clipPath
       id="clipPath80"
       clipPathUnits="userSpaceOnUse"><path
         id="path78"
         d="M 0.06,0 H 361.43503 V 153.03999 H 0.06 Z" /></clipPath></defs><g
     transform="matrix(1.3333333,0,0,-1.3333333,0,205.33333)"
     id="g10"><g
       id="g12" /><g
       id="g14" /><g
       id="g16"><g
         id="g18"><g
           clip-path="url(#clipPath24)"
           id="g20"><g
             id="g26" /><g
             id="g28"><path
               id="path30"
               style="fill:none;stroke:#231f20;stroke-width:1;stroke-linecap:butt;stroke-linejoin:miter;stroke-miterlimit:4;stroke-dasharray:none;stroke-opacity:1"
               d="M 45.595001,72.794006 H 73.328003 V 18.127001 m 0.266998,40.667002 H 100.396 V 17.461 m 0.664,13.333001 h 25.87101 v -12.799 m 0,12.799 v 82.400009 h 27.197 V 17.995001 m 0.268,27.198999 h 27.399 V 17.995001 m 0,27.198999 v 13.600003 h 27.601 V 17.594002 m 0,41.200001 v 40.000003 h 27.19901 V 17.194 m 0.19999,12.400002 h 27.20002 v -12 m 0,12 v 28.401001 h 27.401 V 17.594002" /><path
               id="path32"
               style="fill:#ffffff;fill-opacity:1;fill-rule:nonzero;stroke:none"
               d="M 43.195004,17.461 H 334.92801" /><path
               id="path34"
               style="fill:#ffffff;fill-opacity:1;fill-rule:nonzero;stroke:none"
               d="m 334.11203,17.461 -1.75302,2.883002 0.099,0.065 4.70001,-1.866998 c 1.63699,-0.360001 3.27499,-0.720001 4.91199,-1.081002 -1.637,-0.359998 -3.275,-0.719999 -4.91199,-1.081001 l -4.70001,-1.865998 -0.099,0.049 1.75302,2.897999" /><path
               id="path36"
               style="fill:none;stroke:#231f20;stroke-width:1;stroke-linecap:butt;stroke-linejoin:miter;stroke-miterlimit:4;stroke-dasharray:none;stroke-opacity:1"
               d="M 43.195004,17.461 H 334.92801" /><path
               id="path38"
               style="fill:#231f20;fill-opacity:1;fill-rule:nonzero;stroke:none"
               d="m 334.11203,17.461 -1.75302,2.883002 0.099,0.065 4.70001,-1.866998 c 1.63699,-0.360001 3.27499,-0.720001 4.91199,-1.081002 -1.637,-0.359998 -3.275,-0.719999 -4.91199,-1.081001 l -4.70001,-1.865998 -0.099,0.049 1.75302,2.897999" /><path
               id="path40"
               style="fill:#ffffff;fill-opacity:1;fill-rule:nonzero;stroke:none"
               d="M 45.328003,14.394001 V 145.46101" /><path
               id="path42"
               style="fill:#ffffff;fill-opacity:1;fill-rule:nonzero;stroke:none"
               d="m 45.328003,144.645 -2.882999,-1.75299 -0.06501,0.099 1.867005,4.7 c 0.36,1.63699 0.721,3.27499 1.081001,4.912 0.361,-1.63701 0.719997,-3.27501 1.080997,-4.912 l 1.866002,-4.7 -0.048,-0.099 -2.898998,1.75299" /><path
               id="path44"
               style="fill:none;stroke:#231f20;stroke-width:1;stroke-linecap:butt;stroke-linejoin:miter;stroke-miterlimit:4;stroke-dasharray:none;stroke-opacity:1"
               d="M 45.328003,14.394001 V 145.46101" /><path
               id="path46"
               style="fill:#231f20;fill-opacity:1;fill-rule:nonzero;stroke:none"
               d="m 45.328003,144.645 -2.882999,-1.75299 -0.06501,0.099 1.867005,4.7 c 0.36,1.63699 0.721,3.27499 1.081001,4.912 0.361,-1.63701 0.719997,-3.27501 1.080997,-4.912 l 1.866002,-4.7 -0.048,-0.099 -2.898998,1.75299" /><text
               id="text50"
               style="font-variant:normal;font-weight:normal;font-size:9.56400013px;font-family:CMR12;-inkscape-font-specification:CMR12;writing-mode:lr-tb;fill:#231f20;fill-opacity:1;fill-rule:nonzero;stroke:none"
               transform="matrix(1,0,0,-1,312.01401,2.4000001)"><tspan
                 id="tspan48"
                 y="0"
                 x="0 7.0199761 11.180316 13.781724 18.468084">Heigh</tspan></text>
<text
               id="text54"
               style="font-variant:normal;font-weight:normal;font-size:9.56400013px;font-family:CMR12;-inkscape-font-specification:CMR12;writing-mode:lr-tb;fill:#231f20;fill-opacity:1;fill-rule:nonzero;stroke:none"
               transform="matrix(1,0,0,-1,335.42575,2.4000001)"><tspan
                 id="tspan52"
                 y="0"
                 x="0">t</tspan></text>
</g><g
             id="g56"><g
               clip-path="url(#clipPath62)"
               id="g58"><text
                 id="text66"
                 style="font-variant:normal;font-weight:normal;font-size:9.56400013px;font-family:CMR12;-inkscape-font-specification:CMR12;writing-mode:lr-tb;fill:#231f20;fill-opacity:1;fill-rule:nonzero;stroke:none"
                 transform="matrix(1,0,0,-1,342.186,2.4000001)"><tspan
                   id="tspan64"
                   y="0"
                   x="0">(</tspan></text>
</g></g><g
             id="g68"><text
               id="text72"
               style="font-variant:normal;font-weight:normal;font-size:9.56400013px;font-family:CMR12;-inkscape-font-specification:CMR12;writing-mode:lr-tb;fill:#231f20;fill-opacity:1;fill-rule:nonzero;stroke:none"
               transform="matrix(1,0,0,-1,345.82761,2.4000001)"><tspan
                 id="tspan70"
                 y="0"
                 x="0 4.1603398">cm</tspan></text>
</g><g
             id="g74"><g
               clip-path="url(#clipPath80)"
               id="g76"><text
                 id="text84"
                 style="font-variant:normal;font-weight:normal;font-size:9.56400013px;font-family:CMR12;-inkscape-font-specification:CMR12;writing-mode:lr-tb;fill:#231f20;fill-opacity:1;fill-rule:nonzero;stroke:none"
                 transform="matrix(1,0,0,-1,357.79309,2.4000001)"><tspan
                   id="tspan82"
                   y="0"
                   x="0">)</tspan></text>
</g></g><g
             id="g86"><text
               id="text90"
               style="font-variant:normal;font-weight:normal;font-size:9.56400013px;font-family:CMR12;-inkscape-font-specification:CMR12;writing-mode:lr-tb;fill:#231f20;fill-opacity:1;fill-rule:nonzero;stroke:none"
               transform="matrix(1,0,0,-1,0,145.8669)"><tspan
                 id="tspan88"
                 y="0"
                 x="0">F</tspan></text>
<text
               id="text94"
               style="font-variant:normal;font-weight:normal;font-size:9.56400013px;font-family:CMR12;-inkscape-font-specification:CMR12;writing-mode:lr-tb;fill:#231f20;fill-opacity:1;fill-rule:nonzero;stroke:none"
               transform="matrix(1,0,0,-1,5.3309741,145.8669)"><tspan
                 id="tspan92"
                 y="0"
                 x="0 3.6438839 7.804224 12.748812 17.951628 22.111969 27.314785 31.475124">requency</tspan></text>
<text
               id="text98"
               style="font-variant:normal;font-weight:normal;font-size:9.56400013px;font-family:CMR12;-inkscape-font-specification:CMR12;writing-mode:lr-tb;fill:#231f20;fill-opacity:1;fill-rule:nonzero;stroke:none"
               transform="matrix(1,0,0,-1,36.848179,17.467331)"><tspan
                 id="tspan96"
                 y="0"
                 x="0">0</tspan></text>
<text
               id="text102"
               style="font-variant:normal;font-weight:normal;font-size:9.56400013px;font-family:CMR12;-inkscape-font-specification:CMR12;writing-mode:lr-tb;fill:#231f20;fill-opacity:1;fill-rule:nonzero;stroke:none"
               transform="matrix(1,0,0,-1,37.107365,44.133675)"><tspan
                 id="tspan100"
                 y="0"
                 x="0">2</tspan></text>
<text
               id="text106"
               style="font-variant:normal;font-weight:normal;font-size:9.56400013px;font-family:CMR12;-inkscape-font-specification:CMR12;writing-mode:lr-tb;fill:#231f20;fill-opacity:1;fill-rule:nonzero;stroke:none"
               transform="matrix(1,0,0,-1,36.911304,70.267303)"><tspan
                 id="tspan104"
                 y="0"
                 x="0">4</tspan></text>
<text
               id="text110"
               style="font-variant:normal;font-weight:normal;font-size:9.56400013px;font-family:CMR12;-inkscape-font-specification:CMR12;writing-mode:lr-tb;fill:#231f20;fill-opacity:1;fill-rule:nonzero;stroke:none"
               transform="matrix(1,0,0,-1,37.247959,98.000992)"><tspan
                 id="tspan108"
                 y="0"
                 x="0">6</tspan></text>
<text
               id="text114"
               style="font-variant:normal;font-weight:normal;font-size:9.56400013px;font-family:CMR12;-inkscape-font-specification:CMR12;writing-mode:lr-tb;fill:#231f20;fill-opacity:1;fill-rule:nonzero;stroke:none"
               transform="matrix(1,0,0,-1,37.051899,124.6683)"><tspan
                 id="tspan112"
                 y="0"
                 x="0">8</tspan></text>
<text
               id="text118"
               style="font-variant:normal;font-weight:normal;font-size:9.56400013px;font-family:CMR12;-inkscape-font-specification:CMR12;writing-mode:lr-tb;fill:#231f20;fill-opacity:1;fill-rule:nonzero;stroke:none"
               transform="matrix(1,0,0,-1,33.079971,5.8843722)"><tspan
                 id="tspan116"
                 y="0"
                 x="0 4.6863599 9.3727198">145</tspan></text>
<text
               id="text122"
               style="font-variant:normal;font-weight:normal;font-size:9.56400013px;font-family:CMR12;-inkscape-font-specification:CMR12;writing-mode:lr-tb;fill:#231f20;fill-opacity:1;fill-rule:nonzero;stroke:none"
               transform="matrix(1,0,0,-1,61.279427,5.8843722)"><tspan
                 id="tspan120"
                 y="0"
                 x="0 4.6863599 9.3727198">150</tspan></text>
<text
               id="text126"
               style="font-variant:normal;font-weight:normal;font-size:9.56400013px;font-family:CMR12;-inkscape-font-specification:CMR12;writing-mode:lr-tb;fill:#231f20;fill-opacity:1;fill-rule:nonzero;stroke:none"
               transform="matrix(1,0,0,-1,89.983856,5.6184931)"><tspan
                 id="tspan124"
                 y="0"
                 x="0 4.6863599 9.3727198">155</tspan></text>
<text
               id="text130"
               style="font-variant:normal;font-weight:normal;font-size:9.56400013px;font-family:CMR12;-inkscape-font-specification:CMR12;writing-mode:lr-tb;fill:#231f20;fill-opacity:1;fill-rule:nonzero;stroke:none"
               transform="matrix(1,0,0,-1,117.64965,5.6184931)"><tspan
                 id="tspan128"
                 y="0"
                 x="0 4.6863599 9.3727198">160</tspan></text>
<text
               id="text134"
               style="font-variant:normal;font-weight:normal;font-size:9.56400013px;font-family:CMR12;-inkscape-font-specification:CMR12;writing-mode:lr-tb;fill:#231f20;fill-opacity:1;fill-rule:nonzero;stroke:none"
               transform="matrix(1,0,0,-1,144.51398,5.6184931)"><tspan
                 id="tspan132"
                 y="0"
                 x="0 4.6863599 9.3727198">165</tspan></text>
<text
               id="text138"
               style="font-variant:normal;font-weight:normal;font-size:9.56400013px;font-family:CMR12;-inkscape-font-specification:CMR12;writing-mode:lr-tb;fill:#231f20;fill-opacity:1;fill-rule:nonzero;stroke:none"
               transform="matrix(1,0,0,-1,171.60878,5.3516574)"><tspan
                 id="tspan136"
                 y="0"
                 x="0 4.6863599 9.3727198">170</tspan></text>
<text
               id="text142"
               style="font-variant:normal;font-weight:normal;font-size:9.56400013px;font-family:CMR12;-inkscape-font-specification:CMR12;writing-mode:lr-tb;fill:#231f20;fill-opacity:1;fill-rule:nonzero;stroke:none"
               transform="matrix(1,0,0,-1,200.59535,5.6184931)"><tspan
                 id="tspan140"
                 y="0"
                 x="0 4.6863599 9.3727198">175</tspan></text>
<text
               id="text146"
               style="font-variant:normal;font-weight:normal;font-size:9.56400013px;font-family:CMR12;-inkscape-font-specification:CMR12;writing-mode:lr-tb;fill:#231f20;fill-opacity:1;fill-rule:nonzero;stroke:none"
               transform="matrix(1,0,0,-1,226.65915,5.6184931)"><tspan
                 id="tspan144"
                 y="0"
                 x="0 4.6863599 9.3727198">180</tspan></text>
<text
               id="text150"
               style="font-variant:normal;font-weight:normal;font-size:9.56400013px;font-family:CMR12;-inkscape-font-specification:CMR12;writing-mode:lr-tb;fill:#231f20;fill-opacity:1;fill-rule:nonzero;stroke:none"
               transform="matrix(1,0,0,-1,256.37164,6.0096607)"><tspan
                 id="tspan148"
                 y="0"
                 x="0 4.6863599 9.3727198">185</tspan></text>
<text
               id="text154"
               style="font-variant:normal;font-weight:normal;font-size:9.56400013px;font-family:CMR12;-inkscape-font-specification:CMR12;writing-mode:lr-tb;fill:#231f20;fill-opacity:1;fill-rule:nonzero;stroke:none"
               transform="matrix(1,0,0,-1,282.37137,6.4094357)"><tspan
                 id="tspan152"
                 y="0"
                 x="0 4.6863599 9.3727198">190</tspan></text>
</g></g></g></g></g></svg>