<?xml version="1.0" encoding="UTF-8" standalone="no"?>
<svg
   xmlns:dc="http://purl.org/dc/elements/1.1/"
   xmlns:cc="http://creativecommons.org/ns#"
   xmlns:rdf="http://www.w3.org/1999/02/22-rdf-syntax-ns#"
   xmlns:svg="http://www.w3.org/2000/svg"
   xmlns="http://www.w3.org/2000/svg"
   viewBox="0 0 317.33334 137.33333"
   height="137.33333"
   width="317.33334"
   xml:space="preserve"
   id="svg2"
   version="1.1"><metadata
     id="metadata8"><rdf:RDF><cc:Work
         rdf:about=""><dc:format>image/svg+xml</dc:format><dc:type
           rdf:resource="http://purl.org/dc/dcmitype/StillImage" /></cc:Work></rdf:RDF></metadata><defs
     id="defs6"><clipPath
       id="clipPath24"
       clipPathUnits="userSpaceOnUse"><path
         id="path22"
         d="M 0,0 H 238 V 103 H 0 Z" /></clipPath><clipPath
       id="clipPath34"
       clipPathUnits="userSpaceOnUse"><path
         id="path32"
         d="M 0.06,0.06000519 H 237.66301 V 102.64101 H 0.06 Z" /></clipPath><clipPath
       id="clipPath62"
       clipPathUnits="userSpaceOnUse"><path
         id="path60"
         d="M 0.06,0.06000519 H 237.66301 V 102.64101 H 0.06 Z" /></clipPath></defs><g
     transform="matrix(1.3333333,0,0,-1.3333333,0,137.33333)"
     id="g10"><g
       id="g12" /><g
       id="g14" /><g
       id="g16"><g
         id="g18"><g
           clip-path="url(#clipPath24)"
           id="g20"><g
             id="g26" /><g
             id="g28"><g
               clip-path="url(#clipPath34)"
               id="g30"><path
                 id="path36"
                 style="fill:none;stroke:#231f20;stroke-width:1;stroke-linecap:butt;stroke-linejoin:round;stroke-miterlimit:10;stroke-dasharray:none;stroke-opacity:1"
                 d="M 44.207001,12.575001 H 205.67401 M 44.732002,99.141006 V 12.341001 m 0.174999,82.017001 h 2.975003 M 45.141003,67 h 2.973999 M 44.849003,39.524002 h 2.973999 M 70.836006,12.107 v 2.976001 m 25.112,-2.626 v 2.975 m 26.338994,-3.237 V 15.171 m 25.929,-2.991001 v 2.976002 M 200.22,12.487 v 2.976 m -25.72499,-3.151 v 2.975001" /></g></g><g
             id="g38"><text
               id="text42"
               style="font-variant:normal;font-weight:normal;font-size:11.95500088px;font-family:CMMI12;-inkscape-font-specification:CMMI12;writing-mode:lr-tb;fill:#231f20;fill-opacity:1;fill-rule:nonzero;stroke:none"
               transform="matrix(1,0,0,-1,0,76.589005)"><tspan
                 id="tspan40"
                 y="0"
                 x="0">s</tspan></text>
<text
               id="text46"
               style="font-variant:normal;font-weight:normal;font-size:11.95500088px;font-family:CMR12;-inkscape-font-specification:CMR12;writing-mode:lr-tb;fill:#231f20;fill-opacity:1;fill-rule:nonzero;stroke:none"
               transform="matrix(1,0,0,-1,9.4157581,76.589005)"><tspan
                 id="tspan44"
                 y="0"
                 x="0 4.5429006 14.286226">(m)</tspan></text>
<text
               id="text50"
               style="font-variant:normal;font-weight:normal;font-size:11.95500088px;font-family:CMMI12;-inkscape-font-specification:CMMI12;writing-mode:lr-tb;fill:#231f20;fill-opacity:1;fill-rule:nonzero;stroke:none"
               transform="matrix(1,0,0,-1,215.83319,8.5256004)"><tspan
                 id="tspan48"
                 y="0"
                 x="0">t</tspan></text>
<text
               id="text54"
               style="font-variant:normal;font-weight:normal;font-size:11.95500088px;font-family:CMR12;-inkscape-font-specification:CMR12;writing-mode:lr-tb;fill:#231f20;fill-opacity:1;fill-rule:nonzero;stroke:none"
               transform="matrix(1,0,0,-1,223.96259,8.5256004)"><tspan
                 id="tspan52"
                 y="0"
                 x="0 4.5429006 9.1575308">(s)</tspan></text>
</g><g
             id="g56"><g
               clip-path="url(#clipPath62)"
               id="g58"><path
                 id="path64"
                 style="fill:none;stroke:#231f20;stroke-width:1;stroke-linecap:butt;stroke-linejoin:round;stroke-miterlimit:10;stroke-dasharray:none;stroke-opacity:1"
                 d="M 44.265003,12.282001 H 45.84 m 133.555,0 v 0 m 0,0.03 v 0 m 0,0.029 v 0 m 0,0.029 v 0 m 0,0.029 v 0 m 0,0.029 v 0 m 0,0.03 v 0 m 0,0.029 v 0 m 0,0.029 v 0 m 0,0.029 v 0 m 0,0.029 v 0 m 0,0.058 v 0 m 0,0.03 v 0 m 0,0.058 v 0 m 0,0.058 v 0 m 0,0.029 v 0 m 0,0.059 v 0 m 0,0.058 v 0 m 0,0.058 v 0 m 0,0.059 v 0 m 0,0.088 v 0 m 0,0.058 v 0 m 0,0.087 v 0 m 0,0.059 v 0 m 0,0.087 v 0 m 0,0.058 v 0 m 0,0.088 v 0 m 0,0.087 v 0 m 0,0.088 v 0 m 0,0.088 v 0 m 0,0.087 v 0 m 0,0.116001 v 0 m 0,0.088 v 0 m 0,0.088 v 0 m 0,0.115999 v 0 m 0,0.117001 v 0 m 0,0.087 v 0 m 0,0.116999 v 0 m 0,0.117001 v 0 m 0,0.115999 v 0 m 0,0.117001 v 0 m 0,0.116999 v 0 m 0,0.145001 v 0" /><path
                 id="path66"
                 style="fill:none;stroke:#231f20;stroke-width:0.5;stroke-linecap:butt;stroke-linejoin:round;stroke-miterlimit:10;stroke-dasharray:none;stroke-opacity:1"
                 d="m 44.265003,102.64101 v 0 m 1.049999,0 v 0 m 0.524998,0 v 0 m 0.496002,0 v 0 m 0.525002,0 v 0 m 0.524998,0 v 0 m 0.525001,0 v 0 m 0.524998,0 v 0 m 0.525001,0 v 0" /></g></g><g
             id="g68"><text
               id="text72"
               style="font-variant:normal;font-weight:normal;font-size:8.36849976px;font-family:CMR12;-inkscape-font-specification:CMR12;writing-mode:lr-tb;fill:#231f20;fill-opacity:1;fill-rule:nonzero;stroke:none"
               transform="matrix(1,0,0,-1,37.666,12.1051)"><tspan
                 id="tspan70"
                 y="0"
                 x="0">0</tspan></text>
<text
               id="text76"
               style="font-variant:normal;font-weight:normal;font-size:8.36849976px;font-family:CMR12;-inkscape-font-specification:CMR12;writing-mode:lr-tb;fill:#231f20;fill-opacity:1;fill-rule:nonzero;stroke:none"
               transform="matrix(1,0,0,-1,33.857494,38.704376)"><tspan
                 id="tspan74"
                 y="0"
                 x="0 4.0921965">10</tspan></text>
<text
               id="text80"
               style="font-variant:normal;font-weight:normal;font-size:8.36849976px;font-family:CMR12;-inkscape-font-specification:CMR12;writing-mode:lr-tb;fill:#231f20;fill-opacity:1;fill-rule:nonzero;stroke:none"
               transform="matrix(1,0,0,-1,34.146206,65.654289)"><tspan
                 id="tspan78"
                 y="0"
                 x="0 4.0921965">20</tspan></text>
<text
               id="text84"
               style="font-variant:normal;font-weight:normal;font-size:8.36849976px;font-family:CMR12;-inkscape-font-specification:CMR12;writing-mode:lr-tb;fill:#231f20;fill-opacity:1;fill-rule:nonzero;stroke:none"
               transform="matrix(1,0,0,-1,34.434917,92.604202)"><tspan
                 id="tspan82"
                 y="0"
                 x="0 4.0921965">30</tspan></text>
<text
               id="text88"
               style="font-variant:normal;font-weight:normal;font-size:8.36849976px;font-family:CMR12;-inkscape-font-specification:CMR12;writing-mode:lr-tb;fill:#231f20;fill-opacity:1;fill-rule:nonzero;stroke:none"
               transform="matrix(1,0,0,-1,43.965801,2.7993259)"><tspan
                 id="tspan86"
                 y="0"
                 x="0">0</tspan></text>
<text
               id="text92"
               style="font-variant:normal;font-weight:normal;font-size:8.36849976px;font-family:CMR12;-inkscape-font-specification:CMR12;writing-mode:lr-tb;fill:#231f20;fill-opacity:1;fill-rule:nonzero;stroke:none"
               transform="matrix(1,0,0,-1,66.0578,2.4495227)"><tspan
                 id="tspan90"
                 y="0"
                 x="0">0</tspan></text>
<text
               id="text96"
               style="font-variant:normal;font-weight:normal;font-size:8.36849976px;font-family:CMMI12;-inkscape-font-specification:CMMI12;writing-mode:lr-tb;fill:#231f20;fill-opacity:1;fill-rule:nonzero;stroke:none"
               transform="matrix(1,0,0,-1,70.154182,2.4495227)"><tspan
                 id="tspan94"
                 y="0"
                 x="0">.</tspan></text>
<text
               id="text100"
               style="font-variant:normal;font-weight:normal;font-size:8.36849976px;font-family:CMR12;-inkscape-font-specification:CMR12;writing-mode:lr-tb;fill:#231f20;fill-opacity:1;fill-rule:nonzero;stroke:none"
               transform="matrix(1,0,0,-1,72.430412,2.4495227)"><tspan
                 id="tspan98"
                 y="0"
                 x="0">5</tspan></text>
<text
               id="text104"
               style="font-variant:normal;font-weight:normal;font-size:8.36849976px;font-family:CMR12;-inkscape-font-specification:CMR12;writing-mode:lr-tb;fill:#231f20;fill-opacity:1;fill-rule:nonzero;stroke:none"
               transform="matrix(1,0,0,-1,94.522415,2.0997195)"><tspan
                 id="tspan102"
                 y="0"
                 x="0">1</tspan></text>
<text
               id="text108"
               style="font-variant:normal;font-weight:normal;font-size:8.36849976px;font-family:CMR12;-inkscape-font-specification:CMR12;writing-mode:lr-tb;fill:#231f20;fill-opacity:1;fill-rule:nonzero;stroke:none"
               transform="matrix(1,0,0,-1,116.26378,2.0997195)"><tspan
                 id="tspan106"
                 y="0"
                 x="0">1</tspan></text>
<text
               id="text112"
               style="font-variant:normal;font-weight:normal;font-size:8.36849976px;font-family:CMMI12;-inkscape-font-specification:CMMI12;writing-mode:lr-tb;fill:#231f20;fill-opacity:1;fill-rule:nonzero;stroke:none"
               transform="matrix(1,0,0,-1,120.36099,2.0997195)"><tspan
                 id="tspan110"
                 y="0"
                 x="0">.</tspan></text>
<text
               id="text116"
               style="font-variant:normal;font-weight:normal;font-size:8.36849976px;font-family:CMR12;-inkscape-font-specification:CMR12;writing-mode:lr-tb;fill:#231f20;fill-opacity:1;fill-rule:nonzero;stroke:none"
               transform="matrix(1,0,0,-1,122.63722,2.0997195)"><tspan
                 id="tspan114"
                 y="0"
                 x="0">5</tspan></text>
<text
               id="text120"
               style="font-variant:normal;font-weight:normal;font-size:8.36849976px;font-family:CMR12;-inkscape-font-specification:CMR12;writing-mode:lr-tb;fill:#231f20;fill-opacity:1;fill-rule:nonzero;stroke:none"
               transform="matrix(1,0,0,-1,146.82805,2.0997195)"><tspan
                 id="tspan118"
                 y="0"
                 x="0">2</tspan></text>
<text
               id="text124"
               style="font-variant:normal;font-weight:normal;font-size:8.36849976px;font-family:CMR12;-inkscape-font-specification:CMR12;writing-mode:lr-tb;fill:#231f20;fill-opacity:1;fill-rule:nonzero;stroke:none"
               transform="matrix(1,0,0,-1,169.61882,2.0997195)"><tspan
                 id="tspan122"
                 y="0"
                 x="0">2</tspan></text>
<text
               id="text128"
               style="font-variant:normal;font-weight:normal;font-size:8.36849976px;font-family:CMMI12;-inkscape-font-specification:CMMI12;writing-mode:lr-tb;fill:#231f20;fill-opacity:1;fill-rule:nonzero;stroke:none"
               transform="matrix(1,0,0,-1,173.71603,2.0997195)"><tspan
                 id="tspan126"
                 y="0"
                 x="0">.</tspan></text>
<text
               id="text132"
               style="font-variant:normal;font-weight:normal;font-size:8.36849976px;font-family:CMR12;-inkscape-font-specification:CMR12;writing-mode:lr-tb;fill:#231f20;fill-opacity:1;fill-rule:nonzero;stroke:none"
               transform="matrix(1,0,0,-1,175.9931,2.0997195)"><tspan
                 id="tspan130"
                 y="0"
                 x="0">5</tspan></text>
<text
               id="text136"
               style="font-variant:normal;font-weight:normal;font-size:8.36849976px;font-family:CMR12;-inkscape-font-specification:CMR12;writing-mode:lr-tb;fill:#231f20;fill-opacity:1;fill-rule:nonzero;stroke:none"
               transform="matrix(1,0,0,-1,199.13452,2.4495227)"><tspan
                 id="tspan134"
                 y="0"
                 x="0">3</tspan></text>
<path
               id="path138"
               style="fill:none;stroke:#231f20;stroke-width:0.5;stroke-linecap:butt;stroke-linejoin:round;stroke-miterlimit:10;stroke-dasharray:none;stroke-opacity:1"
               d="m 199.14101,12.427001 h 2.1" /><path
               id="path140"
               style="fill:none;stroke:#231f20;stroke-width:1;stroke-linecap:butt;stroke-linejoin:round;stroke-miterlimit:10;stroke-dasharray:none;stroke-opacity:1"
               d="m 148.65401,38.821003 0.49499,0.404999 0.52501,0.403 0.525,0.404998 0.525,0.403 0.525,0.404003 0.52499,0.426999 1.02101,0.830001 0.52498,0.425999 0.52501,0.403999 0.525,0.427002 0.525,0.447998 0.525,0.426999 0.496,0.427001 0.52501,0.448002 0.52499,0.426998 1.05001,0.897999 0.52499,0.448002 0.52501,0.450001 0.496,0.447998 0.524,0.449001 0.526,0.449002 0.52399,0.470996 0.526,0.472001 0.52501,0.448001 0.524,0.472001 0.497,0.471 0.524,0.471001 0.52499,0.493999 1.05101,0.943001 0.525,0.493996 0.524,0.494003 0.49699,0.493 0.52401,0.494 0.526,0.493999 0.524,0.493 0.526,0.494999 0.52499,0.493 0.52401,0.516003 0.496,0.515999 0.52499,0.493999 1.57501,1.547997 0.525,0.539005 0.49599,0.516998 0.525,0.539002 0.525,0.514995 0.52501,0.538002 0.52499,0.539002 0.52501,0.539001 0.52498,0.539997 0.49602,0.538002 0.52501,0.539002 0.52499,0.559997 0.52499,0.539002 0.52501,0.560997 0.525,0.561004 0.52501,0.560997 0.49598,0.560997 0.52501,0.562005 0.524,0.560997 0.526,0.560997 0.52399,0.584007 0.526,0.559997 0.52501,0.584 0.496,0.584 0.525,0.583 0.524,0.583999 0.52499,0.583001 0.526,0.606002 0.52501,0.584 0.525,0.606003 0.496,0.583 0.52499,0.605995 0.52401,0.607003 0.526,0.604995 0.524,0.606003 0.526,0.606003 0.495,0.62899 0.525,0.605011 1.04999,1.256996 0.52501,0.606003 0.525,0.627998 0.525,0.652001 0.49599,0.627998 0.52501,0.628998 0.52498,0.650001 0.52502,0.629006 1.05001,1.300995 0.52498,0.628998 0.49601,0.673004 0.525,0.651001 1.05,1.301994 M 97.086006,12.405001 97.611008,12.54 l 0.524994,0.157001 0.525001,0.135 0.496002,0.134 0.525002,0.157 0.526003,0.156999 0.52399,0.135001 0.525,0.157 0.526,0.157999 0.52501,0.179 0.49499,0.157001 0.525,0.157 0.525,0.178999 0.52501,0.157001 0.525,0.179999 0.52499,0.179001 0.525,0.18 0.49601,0.18 0.525,0.18 0.525,0.200999 0.52499,0.179 0.525,0.203 0.52501,0.178999 0.525,0.202002 0.496,0.202999 0.52499,0.201 0.525,0.203001 0.525,0.223 0.52501,0.202999 0.52499,0.202001 0.495,0.224 0.526,0.225 0.52501,0.223999 0.525,0.224001 0.52499,0.225 0.524,0.223999 0.526,0.225001 0.49601,0.246 0.524,0.225 0.52599,0.247 0.525,0.247 0.52401,0.246998 0.526,0.247001 0.524,0.246001 0.49599,0.248001 0.526,0.268997 0.52501,0.247002 1.04899,0.538 0.525,0.269001 0.526,0.268999 0.49601,0.27 0.524,0.268999 0.52599,0.270001 1.04901,0.583999 0.526,0.269001 0.524,0.292 0.49599,0.291001 0.52501,0.291997 0.52499,0.292002 0.52501,0.313999 0.52499,0.292002 0.52501,0.313999 0.525,0.292 0.496,0.314001 0.52499,0.313999 0.52501,0.315001 0.52499,0.313999 0.52501,0.313 0.52498,0.337 0.49602,0.314001 0.52499,0.337 0.52501,0.337 0.525,0.313999 0.52499,0.336 0.52501,0.337 0.52499,0.360001 0.49501,0.336 0.52599,0.337 0.524,0.359999 0.526,0.358001 0.52501,0.336998 0.524,0.359002 0.52599,0.358001 0.49501,0.359997 0.52499,0.382 0.526,0.359001 0.52501,0.381001 0.525,0.36 0.524,0.381001 0.52499,0.382 0.49601,0.381 0.526,0.382 0.524,0.380997 0.526,0.381001 0.52499,0.405002 0.52401,0.382 0.526,0.403 M 45.549004,12.024 l 0.494999,-0.134999 0.525001,-0.113 0.525997,-0.134001 1.049999,-0.224 0.524003,-0.113 0.525001,-0.111999 0.495995,-0.111 0.525005,-0.091 0.524994,-0.111999 0.525005,-0.09 0.524994,-0.112001 0.525005,-0.09 0.524998,-0.089 0.496002,-0.09 0.525002,-0.091 0.524998,-0.066 0.525001,-0.09 0.524998,-0.09 0.525001,-0.067 0.496003,-0.068 0.524997,-0.067 0.525002,-0.068 0.524997,-0.067 0.525002,-0.066 0.525002,-0.068 0.524997,-0.045 0.496002,-0.068 0.524998,-0.045 0.524002,-0.045 0.525997,-0.044 0.525002,-0.046 0.525001,-0.044 0.524998,-0.045 0.496002,-0.023 0.523999,-0.045001 0.526001,-0.020999 0.524002,-0.023 0.526001,-0.045 L 66.374001,9.038 h 0.524002 l 0.497001,-0.021999 0.524994,-0.022 H 68.444 l 0.526001,-0.023 h 3.119995 l 0.525009,0.023 h 0.524994 l 0.525002,0.022 h 0.496002 L 74.686005,9.038 75.211006,9.061001 75.736,9.083 l 0.525002,0.046 0.525001,0.020999 0.525002,0.045001 0.496002,0.023 0.524994,0.045 0.525001,0.044 0.525002,0.046 0.525001,0.044 0.525002,0.045 0.524994,0.045 0.496002,0.068 0.525001,0.045 0.525002,0.068 0.523994,0.066 0.526001,0.067 0.525002,0.068 0.525001,0.067 0.496003,0.068 0.524994,0.067 0.524002,0.09 0.526001,0.067 0.524002,0.089 0.526001,0.091 0.524994,0.09 0.496002,0.089 0.524994,0.09 0.524009,0.089 0.525002,0.113 0.525993,0.089 0.524994,0.114001 0.525009,0.111 0.494995,0.111999 0.525002,0.113 0.524994,0.112 0.525009,0.112 0.524994,0.134001 0.525009,0.113 0.495995,0.134999 0.525001,0.111 1.050003,0.270001" /></g></g></g></g></g></svg>