<?xml version="1.0" encoding="UTF-8" standalone="no"?>
<svg
   xmlns:dc="http://purl.org/dc/elements/1.1/"
   xmlns:cc="http://creativecommons.org/ns#"
   xmlns:rdf="http://www.w3.org/1999/02/22-rdf-syntax-ns#"
   xmlns:svg="http://www.w3.org/2000/svg"
   xmlns="http://www.w3.org/2000/svg"
   viewBox="0 0 286.66666 188"
   height="188"
   width="286.66666"
   xml:space="preserve"
   id="svg2"
   version="1.1"><metadata
     id="metadata8"><rdf:RDF><cc:Work
         rdf:about=""><dc:format>image/svg+xml</dc:format><dc:type
           rdf:resource="http://purl.org/dc/dcmitype/StillImage" /></cc:Work></rdf:RDF></metadata><defs
     id="defs6"><clipPath
       id="clipPath24"
       clipPathUnits="userSpaceOnUse"><path
         id="path22"
         d="M 0,0 H 215 V 141 H 0 Z" /></clipPath><clipPath
       id="clipPath34"
       clipPathUnits="userSpaceOnUse"><path
         id="path32"
         d="M 0,0 H 214.85201 V 140.076 H 0 Z" /></clipPath><clipPath
       id="clipPath134"
       clipPathUnits="userSpaceOnUse"><path
         id="path132"
         d="M 0,0 H 214.85201 V 140.076 H 0 Z" /></clipPath></defs><g
     transform="matrix(1.3333333,0,0,-1.3333333,0,188)"
     id="g10"><g
       id="g12" /><g
       id="g14" /><g
       id="g16"><g
         id="g18"><g
           clip-path="url(#clipPath24)"
           id="g20"><g
             id="g26" /><g
             id="g28"><g
               clip-path="url(#clipPath34)"
               id="g30"><path
                 id="path36"
                 style="fill:none;stroke:#231f20;stroke-width:1;stroke-linecap:butt;stroke-linejoin:round;stroke-miterlimit:10;stroke-dasharray:none;stroke-opacity:1"
                 d="m 166.845,126.287 0.03,0.059 v 0.087 l 0.058,0.175 0.029,0.059 0.03,0.087 0.028,0.088 0.03,0.087 0.029,0.059 0.028,0.087 v 0.087 l 0.031,0.088 0.029,0.058 0.028,0.088 0.03,0.087 0.028,0.059 0.03,0.087 0.058,0.175 v 0.059 l 0.03,0.087 0.029,0.087 0.029,0.088 0.029,0.058 0.03,0.088 0.056,0.17499 0.032,0.058 0.028,0.088 v 0.087 l 0.028,0.087 0.031,0.059 0.028,0.087 0.029,0.088 0.03,0.088 0.029,0.058 0.058,0.17499 v 0.087 l 0.03,0.059 0.028,0.087 0.03,0.087 0.029,0.088 0.028,0.088 0.031,0.058 0.029,0.088 0.028,0.087 v 0.088 l 0.03,0.058 0.028,0.087 0.03,0.088 0.029,0.087 0.029,0.058 0.03,0.088 0.087,0.263 v 0.058 l 0.03,0.088 0.028,0.087 0.028,0.088 0.032,0.058 0.028,0.087 0.028,0.088 0.031,0.088 0.028,0.087 v 0.058 l 0.029,0.088 0.03,0.087 0.029,0.088 0.029,0.087 0.029,0.059 0.03,0.087 0.028,0.088 0.03,0.087 v 0.059 l 0.029,0.087 0.028,0.087 0.031,0.088 0.029,0.088 0.028,0.058 0.03,0.087 0.028,0.088 0.03,0.087 0.029,0.087 v 0.059 l 0.029,0.087 0.03,0.088 0.058,0.175 0.029,0.059 0.03,0.087 0.028,0.088 0.03,0.087 v 0.087 l 0.03,0.088 0.028,0.058 0.029,0.088 0.03,0.087 m -5.16301,-15.721 0.029,0.059 0.029,0.087 0.029,0.088 0.03,0.058 0.028,0.088 0.03,0.087 0.029,0.058 v 0.088 l 0.028,0.058 0.031,0.088 0.029,0.087 0.028,0.059 0.03,0.087 0.028,0.088 0.03,0.058 0.029,0.087 v 0.088 l 0.029,0.058 0.03,0.087 0.029,0.088 0.029,0.058 0.029,0.088 0.03,0.058 0.056,0.175 v 0.059 l 0.032,0.087 0.028,0.088 0.028,0.058 0.031,0.088 0.028,0.087 0.029,0.058 0.03,0.088 0.029,0.087 v 0.059 l 0.029,0.087 0.029,0.088 0.03,0.058 0.028,0.088 0.03,0.087 0.029,0.058 0.028,0.088 0.031,0.087 0.029,0.059 v 0.087 l 0.028,0.088 0.03,0.058 0.028,0.088 0.03,0.087 0.029,0.058 0.029,0.088 0.03,0.087 0.029,0.058 v 0.088 l 0.029,0.088 0.029,0.058 0.03,0.088 0.056,0.175 0.032,0.058 0.056,0.17499 v 0.058 l 0.031,0.087 0.028,0.088 0.029,0.058 0.03,0.088 0.029,0.088 0.029,0.058 0.029,0.088 0.03,0.087 0.028,0.088 v 0.058 l 0.03,0.087 0.029,0.087 0.028,0.059 0.031,0.087 0.029,0.088 0.028,0.058 0.03,0.088 0.028,0.088 v 0.087 l 0.03,0.058 0.058,0.175 0.03,0.059 0.058,0.17399 0.029,0.088 0.03,0.058 v 0.088 l 0.028,0.088 0.028,0.058 0.032,0.087 0.056,0.175 0.031,0.059 0.028,0.087 0.029,0.087 m -5.16199,-15.195 0.029,0.058 0.03,0.088 0.028,0.058 v 0.087 l 0.03,0.088 0.029,0.058 0.028,0.088 0.031,0.058 0.029,0.088 0.028,0.058 0.03,0.087 0.028,0.059 v 0.087 l 0.03,0.059 0.058,0.17399 0.03,0.059 0.029,0.087 0.029,0.059 0.029,0.087 0.03,0.059 0.028,0.087 v 0.058 l 0.028,0.088 0.032,0.087 0.028,0.058 0.028,0.088 0.031,0.058 0.028,0.088 0.029,0.058 0.03,0.088 v 0.087 l 0.029,0.059 0.029,0.087 0.029,0.059 0.03,0.087 0.028,0.058 0.03,0.088 0.029,0.087 0.028,0.059 v 0.087 l 0.031,0.059 0.029,0.087 0.028,0.058 0.03,0.088 0.028,0.087 0.03,0.059 0.029,0.087 0.029,0.059 0.03,0.087 v 0.087 l 0.029,0.059 0.029,0.087 0.029,0.059 0.03,0.087 0.028,0.059 0.028,0.087 0.032,0.088 0.028,0.058 v 0.087 l 0.028,0.058 0.031,0.088 0.028,0.088 0.029,0.058 0.03,0.088 0.029,0.058 0.058,0.17501 v 0.058 l 0.03,0.088 0.028,0.058 0.03,0.088 0.029,0.087 0.028,0.058 0.031,0.088 0.029,0.058 0.058,0.17499 v 0.059 l 0.028,0.087 0.03,0.088 0.029,0.058 0.029,0.087 0.03,0.058 0.029,0.088 0.029,0.088 0.029,0.058 v 0.088 l 0.03,0.058 0.028,0.088 0.03,0.087 0.03,0.058 0.028,0.088 0.029,0.087 0.03,0.059 0.028,0.087 v 0.059 l 0.029,0.087 0.03,0.087 m -5.133,-14.67 v 0.087 l 0.028,0.058 0.03,0.088 0.029,0.058 0.028,0.059 0.031,0.087 0.029,0.058 0.028,0.088 0.03,0.058 v 0.088 l 0.028,0.058 0.03,0.088 0.029,0.058 0.029,0.087 0.03,0.059 0.029,0.058 0.029,0.088 0.029,0.058 v 0.087 l 0.03,0.059 0.028,0.087 0.028,0.059 0.032,0.087 0.028,0.058 0.028,0.088 0.031,0.058 0.028,0.088 v 0.058 l 0.029,0.088 0.03,0.058 0.029,0.058 0.029,0.088 0.029,0.058 0.03,0.088 0.028,0.058 0.03,0.087 0.029,0.059 v 0.087 l 0.028,0.059 0.031,0.087 0.029,0.058 0.028,0.088 0.03,0.058 0.028,0.088 0.03,0.058 0.029,0.088 v 0.058 l 0.029,0.087 0.03,0.059 0.029,0.087 0.029,0.059 0.029,0.087 0.03,0.058 0.028,0.088 0.028,0.058 v 0.088 l 0.032,0.058 0.028,0.088 0.028,0.058 0.031,0.087 0.028,0.059 0.029,0.087 0.03,0.059 0.029,0.087 0.029,0.058 v 0.088 l 0.029,0.058 0.03,0.088 0.028,0.058 0.03,0.088 0.029,0.058 0.028,0.087 0.031,0.059 0.029,0.087 v 0.059 l 0.028,0.087 0.03,0.058 0.028,0.088 0.03,0.058 0.029,0.088 0.029,0.058 0.03,0.088 0.029,0.058 v 0.087 l 0.029,0.059 0.029,0.087 0.03,0.059 0.056,0.17501 0.032,0.058 0.028,0.087 0.028,0.059 0.031,0.087 v 0.059 l 0.028,0.087 0.029,0.058 0.03,0.088 0.029,0.058 0.029,0.088 m -5.16302,-14.116994 0.03,0.058 0.029,0.059 0.028,0.087 0.031,0.05901 0.029,0.087 v 0.058 l 0.028,0.059 0.03,0.08701 0.028,0.059 0.03,0.058 0.029,0.087 0.029,0.059 0.03,0.05799 0.029,0.08801 0.029,0.058 v 0.08701 l 0.029,0.058 0.03,0.059 0.028,0.087 0.028,0.059 0.032,0.058 0.028,0.088 0.028,0.05799 0.031,0.05801 v 0.088 l 0.028,0.058 0.029,0.088 0.03,0.058 0.029,0.05801 0.029,0.088 0.029,0.058 0.03,0.088 0.028,0.058 v 0.05801 l 0.03,0.088 0.029,0.058 0.028,0.05901 0.031,0.08699 0.029,0.05801 0.028,0.088 0.03,0.05801 0.028,0.059 0.03,0.08699 v 0.058 l 0.029,0.088 0.029,0.058 0.03,0.059 0.029,0.087 0.029,0.058 0.029,0.088 0.03,0.058 0.028,0.059 v 0.087 l 0.028,0.058 0.032,0.088 0.028,0.058 0.028,0.058 0.031,0.088 0.028,0.058 0.029,0.088 0.03,0.058 v 0.059 l 0.029,0.087 0.029,0.058 0.029,0.088 0.03,0.058 0.028,0.059 0.03,0.087 0.029,0.058 0.028,0.088 0.031,0.058 v 0.088 l 0.029,0.058 0.028,0.058 0.03,0.088 0.028,0.058 0.03,0.088 0.029,0.058 0.029,0.088 0.03,0.058 v 0.058 l 0.029,0.088 0.029,0.058 0.029,0.088 0.03,0.058 0.028,0.087 0.028,0.059 0.032,0.058 0.028,0.088 v 0.058 l 0.028,0.087 0.031,0.058 0.028,0.088 0.029,0.058 0.03,0.059 0.029,0.087 0.029,0.059 0.029,0.087 0.03,0.059 m -5.16299,-13.563009 0.028,0.058 0.031,0.059 v 0.058 l 0.029,0.088 0.028,0.058 0.03,0.058 0.028,0.05901 0.03,0.08699 0.029,0.05801 0.029,0.059 0.03,0.058 v 0.088 l 0.029,0.058 0.029,0.058 0.029,0.088 0.03,0.05801 0.056,0.116996 0.032,0.087 0.028,0.05901 0.028,0.058 v 0.058 l 0.031,0.088 0.028,0.058 0.029,0.05801 0.03,0.088 0.029,0.058 0.058,0.116997 0.03,0.08701 v 0.059 l 0.028,0.058 0.03,0.088 0.029,0.058 0.028,0.058 0.031,0.059 0.029,0.087 0.028,0.05801 0.03,0.058 v 0.088 l 0.028,0.058 0.03,0.059 0.029,0.08701 0.029,0.059 0.03,0.058 0.029,0.058 0.029,0.088 0.029,0.058 v 0.059 l 0.03,0.087 0.056,0.116004 0.032,0.088 0.056,0.116997 0.031,0.08701 0.028,0.059 0.029,0.058 v 0.058 l 0.03,0.088 0.058,0.116997 0.029,0.087 0.03,0.05801 0.028,0.058 0.03,0.088 0.029,0.058 v 0.059 l 0.028,0.087 0.031,0.059 0.029,0.05799 0.028,0.08801 0.03,0.058 0.028,0.058 0.03,0.088 0.029,0.058 v 0.05801 l 0.029,0.088 0.03,0.058 0.029,0.058 0.029,0.088 0.029,0.05801 0.03,0.059 0.028,0.087 0.028,0.05901 0.032,0.058 v 0.087 l 0.056,0.116997 0.031,0.088 0.028,0.058 0.029,0.058 0.03,0.088 0.029,0.05801 0.029,0.058 v 0.088 l 0.029,0.058 0.03,0.05901 0.028,0.087 m -5.16298,-13.037002 0.031,0.058 0.029,0.058 0.028,0.05901 0.03,0.058 0.028,0.058 0.03,0.088 0.029,0.05801 0.029,0.058 v 0.059 l 0.03,0.05799 0.029,0.05801 0.029,0.088 0.029,0.058 0.03,0.059 0.056,0.115997 0.032,0.05901 v 0.087 l 0.028,0.058 0.028,0.059 0.031,0.058 0.028,0.05801 0.029,0.088 0.03,0.058 0.029,0.059 0.029,0.05801 v 0.058 l 0.029,0.088 0.03,0.058 0.028,0.05801 0.03,0.058 0.029,0.05899 0.028,0.05801 0.031,0.088 0.029,0.05801 0.028,0.059 v 0.058 l 0.03,0.058 0.028,0.088 0.03,0.058 0.029,0.058 0.029,0.059 0.03,0.087 0.029,0.05901 0.029,0.058 v 0.058 l 0.029,0.058 0.03,0.088 0.056,0.117004 0.032,0.058 0.028,0.058 0.028,0.088 0.031,0.058 v 0.059 l 0.028,0.058 0.029,0.058 0.03,0.08701 0.029,0.059 0.029,0.058 0.029,0.059 0.03,0.08701 0.028,0.059 0.03,0.058 v 0.058 l 0.029,0.088 0.028,0.058 0.031,0.058 0.029,0.059 0.028,0.058 0.03,0.088 0.028,0.058 0.03,0.058 v 0.058 l 0.029,0.088 0.029,0.05801 0.03,0.059 0.029,0.058 0.029,0.088 0.029,0.05801 0.03,0.058 0.028,0.059 v 0.087 l 0.028,0.05801 0.032,0.058 0.028,0.05899 0.028,0.05801 0.031,0.088 0.028,0.05801 0.029,0.059 0.03,0.058 0.029,0.087 v 0.059 l 0.029,0.058 0.029,0.088 0.03,0.058 0.028,0.058 0.03,0.05901 0.029,0.087 m -5.162,-12.512001 0.028,0.058 0.03,0.058 0.028,0.05901 0.03,0.058 v 0.058 l 0.058,0.116997 0.03,0.05801 0.029,0.059 0.029,0.058 0.029,0.087 0.03,0.059 0.056,0.115998 v 0.059 l 0.032,0.058 0.056,0.116004 0.031,0.05899 0.028,0.05801 0.029,0.059 0.03,0.08701 0.029,0.059 v 0.058 l 0.029,0.058 0.029,0.059 0.03,0.05801 0.028,0.058 0.03,0.059 0.029,0.058 0.028,0.058 0.031,0.05901 v 0.087 l 0.029,0.058 0.028,0.059 0.03,0.058 0.028,0.05801 0.03,0.059 0.029,0.058 0.029,0.058 0.03,0.059 0.029,0.087 v 0.059 l 0.058,0.115997 0.03,0.05901 0.028,0.058 0.028,0.058 0.032,0.058 0.028,0.059 0.028,0.08701 v 0.059 l 0.031,0.05799 0.028,0.05801 0.029,0.059 0.03,0.058 0.029,0.058 0.029,0.059 0.029,0.087 0.03,0.05901 v 0.058 l 0.028,0.058 0.03,0.058 0.029,0.059 0.028,0.05801 0.031,0.088 0.029,0.058 0.028,0.058 0.03,0.059 v 0.05799 l 0.028,0.05801 0.03,0.059 0.029,0.087 0.029,0.05901 0.03,0.058 0.029,0.058 0.058,0.116997 0.03,0.05801 v 0.088 l 0.028,0.058 0.028,0.058 0.032,0.059 0.056,0.115998 0.031,0.059 0.028,0.087 0.029,0.05901 v 0.058 l 0.03,0.058 0.058,0.116997 0.029,0.08701 0.03,0.059 0.028,0.058 0.03,0.058 0.029,0.059 v 0.05799 l 0.03,0.08801 m -5.134,-11.988007 0.028,0.05801 v 0.059 l 0.03,0.058 0.029,0.05801 0.029,0.059 0.03,0.058 0.058,0.116997 0.029,0.05801 0.03,0.058 v 0.059 l 0.028,0.058 0.028,0.058 0.032,0.05801 0.028,0.059 0.028,0.058 0.031,0.059 0.028,0.058 0.029,0.05801 v 0.059 l 0.03,0.058 0.029,0.058 0.029,0.059 0.029,0.058 0.03,0.05801 0.028,0.059 0.03,0.058 0.029,0.058 0.028,0.05801 v 0.059 l 0.031,0.058 0.029,0.059 0.028,0.058 0.03,0.05801 0.028,0.059 0.03,0.05799 0.029,0.05801 0.029,0.059 v 0.05801 l 0.03,0.058 0.058,0.116997 0.029,0.058 0.03,0.05801 0.028,0.059 0.028,0.058 0.032,0.059 v 0.058 l 0.056,0.117004 0.031,0.058 0.028,0.058 0.029,0.059 0.03,0.058 0.029,0.05801 0.058,0.116997 v 0.058 l 0.03,0.05801 0.028,0.088 0.03,0.058 0.029,0.059 0.028,0.05801 0.031,0.059 0.029,0.058 0.028,0.058 v 0.059 l 0.03,0.05801 0.028,0.058 0.03,0.059 0.058,0.115997 0.03,0.05901 0.029,0.058 0.029,0.058 v 0.058 l 0.029,0.059 0.03,0.05801 0.028,0.059 0.028,0.058 0.032,0.087 0.028,0.059 0.028,0.05799 0.031,0.05801 0.028,0.059 v 0.058 l 0.029,0.058 0.03,0.05801 0.029,0.059 0.029,0.058 0.029,0.059 0.03,0.058 0.028,0.05801 0.03,0.059 v 0.05799 l 0.029,0.05801 0.03,0.088 0.058,0.116997 m -5.164,-11.433999 0.03,0.029 0.029,0.059 0.029,0.058 0.03,0.058 0.058,0.117005 0.029,0.058 v 0.059 l 0.03,0.058 0.028,0.05801 0.028,0.029 0.032,0.059 0.056,0.115997 0.031,0.05901 0.028,0.058 v 0.058 l 0.029,0.059 0.03,0.058 0.029,0.058 0.029,0.02901 0.029,0.059 0.03,0.058 0.028,0.059 0.03,0.058 v 0.05801 l 0.029,0.059 0.028,0.058 0.031,0.058 0.029,0.059 0.028,0.058 0.03,0.02901 0.028,0.058 0.03,0.059 0.029,0.058 v 0.058 l 0.029,0.059 0.03,0.058 0.058,0.116997 0.029,0.05801 0.03,0.058 0.028,0.059 0.028,0.058 v 0.029 l 0.032,0.059 0.056,0.116005 0.031,0.059 0.028,0.058 0.029,0.058 0.03,0.05801 0.029,0.059 v 0.058 l 0.029,0.059 0.029,0.058 0.03,0.05801 0.028,0.059 0.03,0.058 0.029,0.058 0.028,0.029 0.031,0.05901 v 0.058 l 0.029,0.058 0.028,0.059 0.03,0.058 0.028,0.05801 0.03,0.059 0.029,0.058 0.029,0.058 0.03,0.059 0.029,0.05801 v 0.058 l 0.029,0.059 0.029,0.058 0.03,0.058 0.056,0.117004 0.032,0.058 0.028,0.059 0.028,0.058 v 0.05801 l 0.031,0.029 0.028,0.059 0.029,0.058 0.03,0.059 0.029,0.058 0.029,0.05801 0.029,0.059 0.03,0.058 v 0.058 l 0.028,0.059 0.03,0.058 0.029,0.05801 0.028,0.059 0.031,0.058 0.029,0.058 0.028,0.05801 0.03,0.05899 m -5.163,-10.907993 0.029,0.058 0.03,0.058 0.029,0.059 v 0.058 l 0.029,0.029 0.029,0.058 0.03,0.059 0.028,0.058 0.028,0.058 0.032,0.03 0.028,0.058 0.028,0.058 v 0.059 l 0.031,0.05799 0.028,0.029 0.029,0.058 0.03,0.059 0.029,0.058 0.029,0.058 0.029,0.03 0.03,0.05799 0.028,0.05801 v 0.058 l 0.03,0.059 0.029,0.058 0.028,0.029 0.031,0.059 0.029,0.058 0.028,0.058 0.03,0.059 0.028,0.029 v 0.058 l 0.03,0.059 0.058,0.116001 0.03,0.059 0.029,0.029 0.058,0.116001 0.03,0.059 v 0.058 l 0.028,0.058 0.028,0.03 0.032,0.058 0.028,0.058 0.028,0.059 0.031,0.05799 0.028,0.058 0.029,0.029 0.03,0.059 v 0.058 l 0.029,0.058 0.029,0.059 0.029,0.058 0.03,0.029 0.028,0.058 0.03,0.059 0.029,0.058 0.028,0.059 v 0.058 l 0.031,0.05801 0.029,0.029 0.028,0.059 0.03,0.058 0.028,0.058 0.03,0.05901 0.029,0.058 0.029,0.058 v 0.03 l 0.03,0.058 0.029,0.058 0.058,0.116997 0.03,0.05801 0.028,0.059 0.028,0.029 0.032,0.058 0.028,0.05801 v 0.059 l 0.028,0.058 0.031,0.058 0.028,0.05901 0.029,0.058 0.03,0.029 0.029,0.059 0.029,0.058 0.029,0.058 v 0.05801 l 0.03,0.059 0.028,0.058 0.03,0.059 0.029,0.029 0.028,0.058 0.031,0.05801 0.029,0.059 0.028,0.058 v 0.058 l 0.03,0.05901 0.028,0.058 M 138.496,55.996799 v 0.058 l 0.029,0.058 0.029,0.029 0.029,0.059 0.03,0.058 0.028,0.059 0.028,0.029 0.032,0.058 0.028,0.058 v 0.03 l 0.028,0.05799 0.031,0.058 0.028,0.059 0.029,0.029 0.03,0.058 0.029,0.058 0.029,0.03 0.029,0.058 v 0.058 l 0.03,0.058 0.028,0.03 0.03,0.058 0.029,0.058 0.028,0.03 0.031,0.058 0.029,0.058 0.028,0.059 0.03,0.029 v 0.058 l 0.028,0.058 0.03,0.059 0.029,0.029 0.029,0.058 0.03,0.059 0.029,0.029 0.058,0.116001 v 0.059 l 0.03,0.029 0.056,0.117004 0.032,0.058 0.028,0.029 0.028,0.058 0.031,0.059 0.028,0.058 v 0.029 l 0.029,0.059 0.03,0.058 0.029,0.058 0.029,0.029 0.029,0.059 0.03,0.058 0.028,0.058 0.03,0.029 0.029,0.059 v 0.058 l 0.028,0.059 0.031,0.029 0.029,0.058 0.028,0.058 0.03,0.059 0.028,0.029 0.03,0.058 0.029,0.059 v 0.05799 l 0.029,0.029 0.03,0.058 0.029,0.059 0.058,0.116001 0.03,0.029 0.028,0.059 0.028,0.058 v 0.059 l 0.032,0.029 0.028,0.058 0.028,0.058 0.031,0.059 0.028,0.029 0.029,0.058 0.03,0.059 0.029,0.058 v 0.058 l 0.029,0.029 0.029,0.059 0.03,0.058 0.028,0.058 0.03,0.029 0.029,0.059 0.028,0.058 0.031,0.059 0.029,0.058 v 0.029 l 0.028,0.058 0.03,0.059 0.028,0.058 0.03,0.058 0.029,0.03 m -5.162,-9.800003 0.029,0.029 0.029,0.058 0.03,0.029 0.028,0.059 0.028,0.058 v 0.029 l 0.032,0.058 0.028,0.03 0.028,0.05799 0.031,0.05801 0.028,0.029 0.029,0.059 0.03,0.058 0.029,0.029 0.029,0.059 v 0.029 l 0.029,0.058 0.03,0.058 0.028,0.03 0.03,0.058 0.029,0.058 0.028,0.029 0.031,0.059 0.029,0.029 v 0.058 l 0.028,0.059 0.03,0.029 0.028,0.058 0.03,0.058 0.029,0.029 0.029,0.059 0.03,0.029 0.029,0.058 v 0.059 l 0.029,0.029 0.029,0.058 0.03,0.059 0.028,0.029 0.028,0.058 0.032,0.058 0.028,0.03 0.028,0.058 0.031,0.058 v 0.029 l 0.028,0.059 0.029,0.029 0.03,0.058 0.029,0.058 0.029,0.03 0.029,0.058 0.03,0.058 0.028,0.03 v 0.058 l 0.03,0.058 0.029,0.029 0.028,0.059 0.031,0.058 0.029,0.029 0.028,0.059 0.03,0.058 0.028,0.029 v 0.058 l 0.03,0.059 0.029,0.029 0.029,0.058 0.03,0.058 0.029,0.03 0.029,0.058 0.029,0.058 0.03,0.03 0.028,0.058 v 0.058 l 0.028,0.029 0.032,0.059 0.028,0.058 0.028,0.029 0.031,0.059 0.028,0.058 0.029,0.058 0.03,0.029 v 0.059 l 0.029,0.058 0.029,0.029 0.029,0.058 0.03,0.059 0.028,0.029 0.03,0.058 0.029,0.059 0.028,0.029 v 0.058 l 0.031,0.059 0.029,0.029 0.028,0.058 0.03,0.058 0.028,0.059 0.03,0.029 0.029,0.058 0.029,0.059 0.03,0.029 m -5.16299,-9.275001 0.03,0.029 0.028,0.058 v 0.029 l 0.028,0.059 0.032,0.029 0.056,0.117001 0.031,0.029 0.028,0.058 0.029,0.029 0.03,0.059 v 0.029 l 0.029,0.058 0.029,0.029 0.029,0.058 0.03,0.03 0.028,0.058 0.03,0.029 0.029,0.059 0.028,0.029 0.031,0.058 v 0.029 l 0.029,0.059 0.028,0.058 0.03,0.029 0.028,0.058 0.03,0.03 0.029,0.058 0.029,0.029 0.03,0.058 v 0.03 l 0.029,0.05799 0.029,0.029 0.029,0.058 0.03,0.059 0.028,0.029 0.028,0.058 0.032,0.029 0.028,0.059 v 0.029 l 0.028,0.058 0.031,0.029 0.028,0.059 0.029,0.029 0.03,0.058 0.029,0.059 0.029,0.029 0.029,0.058 0.03,0.029 v 0.059 l 0.028,0.029 0.03,0.058 0.029,0.059 0.028,0.028 0.031,0.059 0.029,0.029 0.028,0.058 0.03,0.03 v 0.058 l 0.028,0.058 0.03,0.03 0.029,0.058 0.029,0.029 0.03,0.058 0.029,0.03 0.029,0.058 0.029,0.058 v 0.029 l 0.03,0.059 0.028,0.029 0.028,0.058 0.032,0.029 0.028,0.058 0.028,0.059 0.031,0.029 0.028,0.058 v 0.03 l 0.029,0.058 0.03,0.058 0.029,0.03 0.029,0.058 0.029,0.029 0.03,0.058 0.028,0.059 0.03,0.029 0.029,0.058 v 0.029 l 0.028,0.059 0.031,0.029 0.029,0.058 0.028,0.059 0.03,0.028 0.028,0.059 0.03,0.029 0.029,0.058 v 0.059 l 0.029,0.029 0.03,0.058 0.029,0.059 m -5.162,-8.779999 0.028,0.059 0.028,0.029 0.032,0.058 0.028,0.029 0.028,0.059 0.031,0.029 0.028,0.029 0.029,0.058 v 0.03 l 0.03,0.058 0.029,0.029 0.029,0.058 0.029,0.029 0.03,0.03 0.028,0.058 0.03,0.029 0.029,0.059 v 0.029 l 0.028,0.058 0.031,0.029 0.029,0.059 0.028,0.029 0.03,0.029 0.028,0.058 0.03,0.029 0.029,0.059 v 0.029 l 0.029,0.058 0.03,0.029 0.029,0.059 0.029,0.029 0.029,0.029 0.03,0.058 0.028,0.029 0.028,0.059 0.032,0.029 v 0.058 l 0.028,0.03 0.028,0.058 0.031,0.029 0.028,0.058 0.029,0.03 0.03,0.058 0.029,0.029 0.029,0.029 v 0.059 l 0.029,0.029 0.03,0.058 0.028,0.029 0.03,0.059 0.029,0.029 0.028,0.058 0.031,0.029 0.029,0.058 v 0.03 l 0.028,0.058 0.03,0.029 0.028,0.059 0.03,0.029 0.029,0.058 0.029,0.029 0.03,0.03 0.029,0.058 0.029,0.029 v 0.058 l 0.029,0.03 0.03,0.058 0.028,0.029 0.028,0.058 0.032,0.03 0.028,0.058 0.028,0.029 0.031,0.058 v 0.03 l 0.028,0.058 0.029,0.029 0.03,0.058 0.029,0.029 0.029,0.059 0.029,0.029 0.03,0.058 0.028,0.03 v 0.058 l 0.03,0.029 0.029,0.058 0.028,0.03 0.031,0.058 0.029,0.029 0.028,0.058 0.03,0.03 0.028,0.058 0.03,0.029 v 0.058 l 0.029,0.03 0.029,0.058 0.03,0.029 0.029,0.058 0.029,0.029 0.03,0.059 m -5.16499,-8.225998 0.032,0.059 0.056,0.058 0.031,0.05799 v 0.029 l 0.028,0.03 0.029,0.058 0.03,0.029 0.029,0.029 0.029,0.059 0.029,0.029 0.03,0.029 0.028,0.058 0.03,0.029 v 0.029 l 0.029,0.059 0.028,0.029 0.031,0.029 0.029,0.059 0.028,0.029 0.03,0.029 0.028,0.058 0.03,0.029 v 0.03 l 0.029,0.058 0.029,0.029 0.03,0.058 0.029,0.03 0.029,0.029 0.029,0.058 0.03,0.029 0.028,0.029 v 0.059 l 0.028,0.029 0.032,0.029 0.028,0.058 0.028,0.029 0.031,0.03 0.028,0.058 0.029,0.029 0.03,0.059 0.029,0.029 v 0.029 l 0.029,0.059 0.029,0.029 0.03,0.029 0.028,0.058 0.03,0.029 0.029,0.059 0.028,0.029 0.031,0.029 v 0.059 l 0.029,0.029 0.028,0.029 0.03,0.058 0.028,0.03 0.03,0.058 0.029,0.029 0.029,0.029 0.03,0.059 v 0.029 l 0.029,0.029 0.029,0.058 0.029,0.029 0.03,0.059 0.056,0.05799 0.032,0.058 0.028,0.03 0.028,0.058 v 0.029 l 0.031,0.029 0.028,0.058 0.029,0.03 0.03,0.058 0.029,0.029 0.029,0.029 0.029,0.059 0.03,0.029 v 0.058 l 0.028,0.029 0.03,0.03 0.029,0.058 0.028,0.029 0.031,0.058 0.029,0.03 0.028,0.029 0.03,0.058 v 0.029 l 0.028,0.059 0.03,0.028 0.029,0.059 0.029,0.029 0.03,0.029 0.029,0.059 0.029,0.029 0.029,0.058 v 0.029 l 0.03,0.03 M 125.604,34.791 l 0.028,0.029 v 0.059 l 0.031,0.029 0.028,0.029 0.029,0.029 0.03,0.058 0.029,0.03 0.029,0.029 0.029,0.029 0.03,0.05799 v 0.029 l 0.028,0.03 0.03,0.029 0.029,0.058 0.028,0.029 0.031,0.029 0.029,0.03 0.028,0.058 0.03,0.029 v 0.029 l 0.028,0.029 0.03,0.059 0.029,0.029 0.029,0.029 0.03,0.029 0.029,0.059 0.058,0.058 0.03,0.058 v 0.029 l 0.028,0.03 0.028,0.029 0.032,0.058 0.028,0.029 0.028,0.029 0.031,0.03 0.028,0.058 0.029,0.029 v 0.029 l 0.03,0.029 0.029,0.059 0.029,0.029 0.029,0.029 0.03,0.058 0.028,0.029 0.059,0.059 v 0.058 l 0.028,0.029 0.031,0.03 0.029,0.058 0.028,0.029 0.03,0.029 0.028,0.03 0.03,0.058 0.058,0.058 v 0.059 l 0.03,0.029 0.029,0.029 0.029,0.029 0.029,0.058 0.03,0.03 0.028,0.029 0.028,0.058 0.032,0.029 v 0.029 l 0.028,0.058 0.028,0.03 0.031,0.029 0.028,0.029 0.029,0.058 0.03,0.03 0.029,0.029 0.029,0.058 v 0.029 l 0.029,0.03 0.03,0.058 0.028,0.029 0.03,0.029 0.029,0.029 0.028,0.059 0.031,0.029 0.029,0.029 0.028,0.05799 v 0.03 l 0.03,0.029 0.028,0.058 0.03,0.029 0.029,0.029 0.029,0.058 0.059,0.059 0.029,0.058 v 0.029 l 0.029,0.03 0.03,0.058 0.056,0.058 m -5.16201,-7.146002 0.031,0.059 0.028,0.029 0.029,0.029 0.03,0.029 0.029,0.029 0.029,0.03 0.029,0.029 v 0.058 l 0.03,0.029 0.028,0.029 0.03,0.03 0.029,0.029 0.028,0.029 0.031,0.058 0.029,0.029 0.028,0.03 v 0.029 l 0.03,0.029 0.028,0.029 0.03,0.029 0.029,0.058 0.029,0.03 0.03,0.029 0.029,0.029 0.029,0.029 v 0.029 l 0.029,0.059 0.03,0.029 0.056,0.058 0.032,0.029 0.028,0.059 0.028,0.029 0.031,0.029 0.028,0.029 v 0.029 l 0.029,0.03 0.03,0.058 0.029,0.029 0.088,0.088 0.028,0.029 0.03,0.058 v 0.029 l 0.029,0.029 0.028,0.029 0.031,0.03 0.029,0.058 0.028,0.029 0.03,0.029 0.028,0.03 0.03,0.029 v 0.058 l 0.029,0.029 0.029,0.03 0.03,0.029 0.029,0.029 0.029,0.058 0.029,0.029 0.03,0.03 0.028,0.029 0.028,0.029 v 0.058 l 0.032,0.029 0.028,0.03 0.028,0.029 0.031,0.029 0.028,0.058 0.059,0.059 0.029,0.028 v 0.03 l 0.029,0.058 0.029,0.029 0.03,0.029 0.028,0.03 0.03,0.029 0.029,0.058 0.028,0.029 0.031,0.03 v 0.029 l 0.029,0.058 0.028,0.029 0.03,0.029 0.028,0.03 0.03,0.029 0.029,0.058 0.029,0.029 0.03,0.029 0.029,0.03 v 0.058 l 0.029,0.029 0.029,0.029 0.03,0.029 0.028,0.058 0.028,0.03 0.032,0.029 0.028,0.029 m -5.16299,-6.591999 0.029,0.03 0.03,0.029 0.029,0.029 v 0.029 l 0.088,0.088 0.028,0.029 0.03,0.029 0.029,0.029 0.028,0.029 0.031,0.029 v 0.059 l 0.029,0.029 0.028,0.029 0.03,0.029 0.028,0.029 0.088,0.088 0.03,0.029 0.029,0.029 v 0.029 l 0.029,0.03 0.029,0.029 0.03,0.029 0.028,0.058 0.028,0.029 0.032,0.03 0.028,0.029 0.028,0.029 v 0.029 l 0.031,0.029 0.028,0.029 0.029,0.03 0.03,0.029 0.058,0.058 0.029,0.058 0.03,0.029 v 0.03 l 0.028,0.029 0.03,0.029 0.029,0.029 0.028,0.029 0.031,0.03 0.029,0.029 0.028,0.029 0.03,0.029 0.028,0.058 v 0.03 l 0.03,0.029 0.058,0.058 0.03,0.029 0.029,0.03 0.058,0.058 0.03,0.029 v 0.058 l 0.028,0.03 0.028,0.029 0.032,0.029 0.028,0.029 0.028,0.029 0.031,0.029 0.028,0.03 0.029,0.028 v 0.059 l 0.03,0.029 0.058,0.058 0.029,0.03 0.03,0.029 0.028,0.029 0.03,0.029 0.029,0.059 0.028,0.029 v 0.029 l 0.031,0.029 0.029,0.029 0.028,0.029 0.03,0.03 0.028,0.029 0.03,0.058 0.029,0.029 0.029,0.029 v 0.03 l 0.03,0.029 0.087,0.087 0.03,0.059 0.028,0.028 0.028,0.03 0.032,0.029 v 0.029 l 0.028,0.029 0.028,0.029 m -5.13199,-6.066 v 0.029 l 0.11699,0.117001 0.028,0.029 0.03,0.029 0.029,0.029 0.028,0.029 v 0.029 l 0.031,0.03 0.029,0.029 0.028,0.029 0.03,0.029 0.028,0.029 0.03,0.029 0.029,0.03 0.029,0.029 v 0.029 l 0.03,0.029 0.11701,0.117001 0.056,0.058 0.032,0.029 0.028,0.029 v 0.03 l 0.028,0.029 0.031,0.029 0.028,0.029 0.029,0.029 0.03,0.029 0.029,0.03 h 0.029 l 0.029,0.029 v 0.029 l 0.03,0.029 0.028,0.029 0.03,0.029 0.029,0.03 0.028,0.029 0.031,0.029 0.029,0.029 0.028,0.029 v 0.029 l 0.03,0.03 0.028,0.029 0.03,0.029 0.058,0.058 0.03,0.029 0.029,0.029 0.029,0.059 0.029,0.029 v 0.029 l 0.03,0.029 0.028,0.03 0.028,0.029 0.032,0.029 0.028,0.029 0.028,0.029 0.031,0.029 0.028,0.03 v 0.029 l 0.029,0.029 0.03,0.029 0.029,0.029 0.029,0.03 0.029,0.029 0.03,0.029 0.028,0.029 0.03,0.029 v 0.029 l 0.029,0.03 0.028,0.029 0.031,0.029 0.029,0.029 0.028,0.029 0.03,0.029 0.028,0.03 0.03,0.028 0.029,0.03 v 0.029 l 0.029,0.029 0.03,0.029 0.029,0.029 0.029,0.03 0.029,0.029 0.03,0.029 0.028,0.029 0.028,0.059 v 0.029 l 0.032,0.029 0.028,0.029 0.028,0.029 0.031,0.029 0.028,0.03 m -5.22101,-5.601 0.11701,0.117001 0.03,0.029 0.028,0.029 0.03,0.03 0.029,0.029 0.028,0.029 0.031,0.029 0.029,0.029 0.028,0.029 0.03,0.03 0.028,0.029 h 0.03 l 0.029,0.029 v 0.029 l 0.029,0.029 0.03,0.029 0.029,0.03 0.058,0.058 h 0.03 l 0.056,0.058 v 0.029 l 0.032,0.029 0.028,0.03 0.028,0.029 0.031,0.029 0.028,0.029 h 0.029 l 0.03,0.029 0.029,0.03 v 0.029 l 0.058,0.058 0.03,0.029 0.028,0.029 0.059,0.059 h 0.028 l 0.031,0.029 0.029,0.029 v 0.029 l 0.028,0.029 0.03,0.03 0.028,0.029 0.03,0.029 0.029,0.029 0.029,0.029 0.03,0.029 0.029,0.03 0.058,0.058 0.03,0.029 0.028,0.029 0.028,0.029 0.032,0.029 0.028,0.03 0.028,0.029 v 0.029 l 0.031,0.029 h 0.028 l 0.14601,0.146002 0.03,0.029 0.028,0.029 v 0.03 l 0.03,0.029 0.029,0.029 0.028,0.029 0.031,0.029 0.029,0.03 0.028,0.029 h 0.03 l 0.028,0.029 v 0.029 l 0.03,0.029 0.029,0.029 0.029,0.03 0.03,0.029 0.087,0.087 0.03,0.029 v 0.03 l 0.028,0.028 0.028,0.03 0.032,0.029 0.056,0.058 0.031,0.029 h 0.028 l 0.029,0.03 0.03,0.029 m -5.42401,-5.191999 h 0.028 l 0.028,0.029 0.031,0.029 0.028,0.03 0.029,0.029 0.03,0.029 0.029,0.029 h 0.029 l 0.029,0.029 0.03,0.029 0.028,0.03 0.03,0.029 0.029,0.029 0.028,0.029 0.031,0.029 h 0.029 l 0.028,0.029 0.03,0.03 0.028,0.029 0.03,0.029 0.029,0.029 0.029,0.029 0.03,0.029 h 0.029 l 0.029,0.029 0.029,0.03 0.03,0.029 0.056,0.058 0.032,0.029 0.028,0.03 0.028,0.029 h 0.031 l 0.028,0.029 0.029,0.029 0.03,0.029 0.029,0.029 0.029,0.03 0.029,0.029 0.03,0.029 0.028,0.029 h 0.03 l 0.029,0.029 0.028,0.029 v 0.03 l 0.031,0.029 h 0.029 l 0.028,0.029 0.03,0.029 0.028,0.029 0.03,0.029 0.029,0.03 h 0.029 l 0.03,0.029 v 0.029 l 0.058,0.058 h 0.029 l 0.03,0.029 0.028,0.029 0.028,0.03 0.032,0.029 0.056,0.058 0.031,0.029 0.028,0.03 0.029,0.029 0.03,0.029 h 0.029 l 0.029,0.029 0.029,0.029 v 0.029 l 0.03,0.03 0.028,0.029 h 0.03 l 0.029,0.029 0.028,0.029 0.031,0.029 0.029,0.03 0.028,0.029 0.03,0.029 0.028,0.029 0.03,0.029 0.029,0.029 0.029,0.03 h 0.03 l 0.087,0.087 v 0.029 l 0.03,0.029 0.028,0.03 h 0.028 l 0.032,0.028 0.028,0.03 0.028,0.029 0.031,0.029 0.028,0.029 0.029,0.029 m -5.629,-4.812 0.029,0.029 0.03,0.029 0.029,0.029 0.029,0.03 h 0.03 l 0.028,0.029 0.029,0.029 h 0.03 l 0.029,0.029 0.028,0.029 0.031,0.029 0.028,0.029 h 0.029 l 0.059,0.059 h 0.029 l 0.11699,0.117001 h 0.029 l 0.028,0.029 0.031,0.029 h 0.029 l 0.028,0.029 0.03,0.029 0.028,0.029 0.059,0.059 h 0.029 l 0.03,0.029 0.029,0.029 h 0.029 l 0.029,0.029 0.03,0.029 0.028,0.03 0.028,0.029 0.032,0.029 h 0.028 l 0.028,0.029 0.031,0.029 h 0.028 l 0.14601,0.146002 h 0.03 l 0.028,0.029 0.03,0.029 0.029,0.029 0.028,0.03 0.031,0.029 h 0.029 l 0.028,0.029 0.03,0.029 h 0.028 l 0.03,0.029 0.029,0.03 0.029,0.029 0.03,0.029 0.058,0.058 h 0.029 l 0.03,0.029 0.028,0.03 0.028,0.029 0.032,0.029 0.028,0.029 h 0.028 l 0.031,0.029 0.028,0.029 0.029,0.03 h 0.03 l 0.087,0.087 0.03,0.029 0.028,0.029 h 0.03 l 0.029,0.03 0.028,0.029 0.031,0.029 0.029,0.029 0.028,0.029 0.03,0.03 h 0.028 l 0.03,0.028 0.029,0.03 0.029,0.029 h 0.03 l 0.029,0.029 v 0.029 l 0.029,0.029 h 0.03 l 0.029,0.03 0.028,0.029 0.06,0.058 m -5.747,-4.258001 0.028,0.029 0.031,0.029 h 0.029 l 0.028,0.029 h 0.03 l 0.029,0.029 h 0.029 l 0.03,0.03 0.028,0.029 0.029,0.029 h 0.03 l 0.029,0.029 h 0.029 l 0.03,0.029 0.028,0.029 h 0.029 l 0.03,0.03 0.029,0.029 h 0.028 l 0.031,0.029 0.028,0.029 h 0.029 l 0.03,0.029 h 0.029 l 0.058,0.058 0.029,0.03 h 0.029 l 0.03,0.029 h 0.029 l 0.028,0.029 0.031,0.029 0.029,0.029 h 0.028 l 0.059,0.059 h 0.029 l 0.03,0.029 h 0.028 l 0.029,0.029 h 0.03 l 0.029,0.029 0.029,0.029 0.03,0.03 h 0.028 l 0.029,0.029 0.03,0.029 h 0.029 l 0.028,0.029 0.031,0.029 0.028,0.029 h 0.029 l 0.059,0.059 h 0.029 l 0.029,0.029 h 0.029 l 0.029,0.029 0.03,0.029 0.029,0.029 h 0.028 l 0.031,0.03 0.029,0.029 h 0.028 l 0.03,0.029 0.058,0.058 h 0.03 l 0.028,0.029 0.029,0.029 h 0.03 l 0.029,0.03 0.029,0.029 h 0.03 l 0.028,0.029 0.029,0.029 0.03,0.029 h 0.029 l 0.028,0.03 0.031,0.029 h 0.028 l 0.029,0.029 0.03,0.029 0.058,0.058 h 0.029 l 0.029,0.03 0.03,0.029 h 0.029 l 0.029,0.029 h 0.029 l 0.03,0.029 0.058,0.058 0.029,0.03 h 0.029 l 0.029,0.029 0.03,0.029 h 0.028 m -5.775,-3.558 h 0.029 l 0.03,0.029 h 0.058 l 0.029,0.029 h 0.029 l 0.029,0.029 0.03,0.029 h 0.029 l 0.028,0.029 h 0.031 l 0.029,0.03 h 0.058 l 0.029,0.029 0.029,0.029 h 0.03 l 0.028,0.029 h 0.029 l 0.03,0.029 h 0.029 l 0.029,0.029 h 0.03 l 0.028,0.029 0.029,0.03 h 0.03 l 0.029,0.029 h 0.028 l 0.031,0.029 h 0.028 l 0.029,0.029 h 0.03 l 0.029,0.029 h 0.029 l 0.029,0.03 h 0.029 l 0.029,0.029 h 0.03 l 0.029,0.029 h 0.028 l 0.031,0.029 0.029,0.029 h 0.028 l 0.03,0.029 h 0.029 l 0.029,0.03 h 0.03 l 0.028,0.029 0.029,0.029 h 0.03 l 0.029,0.029 h 0.029 l 0.03,0.029 h 0.028 l 0.029,0.029 h 0.03 l 0.029,0.03 0.028,0.029 h 0.031 l 0.028,0.029 h 0.029 l 0.03,0.029 0.029,0.029 h 0.029 l 0.029,0.029 0.029,0.03 h 0.029 l 0.03,0.029 h 0.029 l 0.028,0.029 h 0.031 l 0.029,0.029 h 0.028 l 0.03,0.029 0.029,0.029 h 0.029 l 0.03,0.029 h 0.028 l 0.029,0.03 0.03,0.029 h 0.029 l 0.029,0.029 0.03,0.029 h 0.028 l 0.029,0.029 h 0.03 l 0.029,0.03 h 0.028 l 0.031,0.029 h 0.028 l 0.03,0.029 0.029,0.029 0.029,0.029 h 0.029 l 0.029,0.029 h 0.029 l 0.03,0.03 h 0.029 l 0.029,0.029 m -5.77499,-2.917001 0.029,0.029 h 0.058 l 0.029,0.029 h 0.059 l 0.029,0.03 h 0.029 l 0.029,0.029 h 0.029 l 0.03,0.029 h 0.058 l 0.029,0.029 h 0.029 l 0.03,0.029 h 0.058 l 0.029,0.029 h 0.029 l 0.03,0.03 h 0.028 l 0.03,0.029 h 0.058 l 0.03,0.029 h 0.058 l 0.029,0.029 h 0.029 l 0.029,0.029 h 0.029 l 0.029,0.029 h 0.029 l 0.03,0.03 h 0.058 l 0.029,0.029 h 0.029 l 0.029,0.029 h 0.03 l 0.029,0.029 h 0.058 l 0.029,0.029 h 0.03 l 0.029,0.029 h 0.029 l 0.029,0.03 h 0.029 l 0.03,0.029 h 0.058 l 0.029,0.029 h 0.029 l 0.03,0.029 h 0.028 l 0.03,0.029 h 0.029 l 0.029,0.029 h 0.058 l 0.029,0.029 h 0.029 l 0.03,0.03 0.029,0.029 h 0.058 l 0.029,0.029 h 0.029 l 0.03,0.029 h 0.029 l 0.029,0.029 h 0.029 l 0.029,0.03 h 0.029 l 0.03,0.029 h 0.057 l 0.031,0.029 h 0.029 l 0.028,0.029 0.03,0.029 h 0.029 l 0.029,0.029 h 0.058 l 0.029,0.03 h 0.03 l 0.058,0.058 h 0.058 l 0.03,0.029 h 0.029 l 0.029,0.029 h 0.029 l 0.03,0.029 0.028,0.03 m -5.774992,-2.276 0.02899,0.03 h 0.08701 l 0.03,0.029 h 0.058 l 0.029,0.029 h 0.08801 l 0.029,0.029 h 0.02899 l 0.02901,0.029 h 0.088 l 0.029,0.03 h 0.08701 l 0.03,0.029 h 0.058 l 0.02899,0.029 h 0.087 l 0.03,0.029 h 0.02901 l 0.029,0.029 h 0.087 l 0.03,0.029 h 0.05799 l 0.02901,0.03 h 0.05901 l 0.029,0.029 h 0.058 l 0.029,0.029 h 0.088 l 0.029,0.029 h 0.029 l 0.03,0.029 h 0.08701 l 0.029,0.029 h 0.029 l 0.029,0.03 h 0.058 l 0.03,0.029 h 0.058 l 0.02901,0.029 h 0.058 l 0.03,0.029 h 0.058 l 0.03,0.029 h 0.058 l 0.029,0.029 h 0.029 l 0.029,0.03 h 0.059 l 0.029,0.029 h 0.058 l 0.029,0.029 h 0.03 l 0.029,0.029 h 0.087 l 0.03,0.029 h 0.058 l 0.058,0.058 h 0.058 l 0.03,0.03 h 0.058 l 0.03,0.029 h 0.058 l 0.029,0.029 h 0.029 m -5.776004,-1.574999 h 0.03 l 0.029,0.029 h 0.144996 l 0.03,0.029 h 0.145004 l 0.03,0.03 h 0.146004 l 0.029,0.029 h 0.116997 l 0.028,0.029 h 0.117996 l 0.02801,0.029 h 0.145996 l 0.029,0.029 h 0.116997 l 0.02901,0.029 h 0.116996 l 0.029,0.03 h 0.08801 l 0.029,0.029 h 0.116997 l 0.028,0.029 h 0.118004 l 0.028,0.029 h 0.059 l 0.029,0.029 h 0.115997 l 0.03,0.029 h 0.08701 l 0.03,0.03 h 0.11599 l 0.02901,0.029 h 0.05901 l 0.029,0.029 h 0.116997 l 0.028,0.029 h 0.059 l 0.029,0.029 h 0.08801 l 0.029,0.029 h 0.087 l 0.029,0.029 h 0.08801 M 92.266006,11.078 h 0.495995 l 0.02901,0.03 h 0.37899 l 0.02901,0.029 h 0.349999 l 0.029,0.029 h 0.234001 l 0.029,0.029 h 0.263001 l 0.028,0.029 h 0.205002 l 0.029,0.03 h 0.203995 l 0.02901,0.029 h 0.203994 l 0.03001,0.029 h 0.173996 l 0.03,0.029 h 0.116005 m -5.774019,-0.204 h 0.028 l 0.03,-0.029 h 0.378998 l 0.029,-0.03 h 0.583 l 0.03001,-0.029 H 92.12 l 0.02901,0.029 h 0.117004" /><path
                 id="path38"
                 style="fill:none;stroke:#231f20;stroke-width:1;stroke-linecap:butt;stroke-linejoin:round;stroke-miterlimit:10;stroke-dasharray:none;stroke-opacity:1"
                 d="M 11.211,10.831 H 172.679 M 91.129005,138.75601 V 10.656 m 0,25.083002 h 2.974999 M 91.303001,109.59 h 2.975007 M 91.479004,84.914001 h 2.973999 m -3.5,-24.849998 h 2.974998 m -2.798996,74.551007 h 2.974999 M 117.26301,10.612 v 2.975001 M 13.166,10.802 v 2.975 m 26.25,-3.326 v 2.976001 M 65.519997,10.612 v 2.975001 M 169.26601,10.626 v 2.975001 M 143.19101,10.451 v 2.976001" /></g></g><g
             id="g40"><text
               id="text44"
               style="font-variant:normal;font-weight:normal;font-size:11.95500088px;font-family:CMMI12;-inkscape-font-specification:CMMI12;writing-mode:lr-tb;fill:#231f20;fill-opacity:1;fill-rule:nonzero;stroke:none"
               transform="matrix(1,0,0,-1,99.522499,131.1097)"><tspan
                 id="tspan42"
                 y="0"
                 x="0">s</tspan></text>
<text
               id="text48"
               style="font-variant:normal;font-weight:normal;font-size:11.95500088px;font-family:CMR12;-inkscape-font-specification:CMR12;writing-mode:lr-tb;fill:#231f20;fill-opacity:1;fill-rule:nonzero;stroke:none"
               transform="matrix(1,0,0,-1,108.93826,131.1097)"><tspan
                 id="tspan46"
                 y="0"
                 x="0 4.5429006 14.286226">(m)</tspan></text>
<text
               id="text52"
               style="font-variant:normal;font-weight:normal;font-size:11.95500088px;font-family:CMMI12;-inkscape-font-specification:CMMI12;writing-mode:lr-tb;fill:#231f20;fill-opacity:1;fill-rule:nonzero;stroke:none"
               transform="matrix(1,0,0,-1,193.02255,7.2965355)"><tspan
                 id="tspan50"
                 y="0"
                 x="0">t</tspan></text>
<text
               id="text56"
               style="font-variant:normal;font-weight:normal;font-size:11.95500088px;font-family:CMR12;-inkscape-font-specification:CMR12;writing-mode:lr-tb;fill:#231f20;fill-opacity:1;fill-rule:nonzero;stroke:none"
               transform="matrix(1,0,0,-1,201.15195,7.2965355)"><tspan
                 id="tspan54"
                 y="0"
                 x="0 4.5429006 9.1575308">(s)</tspan></text>
<text
               id="text60"
               style="font-variant:normal;font-weight:normal;font-size:8.36849976px;font-family:CMR12;-inkscape-font-specification:CMR12;writing-mode:lr-tb;fill:#231f20;fill-opacity:1;fill-rule:nonzero;stroke:none"
               transform="matrix(1,0,0,-1,7.5762,2.4510002)"><tspan
                 id="tspan58"
                 y="0"
                 x="0 4.0921965">30</tspan></text>
<text
               id="text64"
               style="font-variant:normal;font-weight:normal;font-size:8.36849976px;font-family:CMR12;-inkscape-font-specification:CMR12;writing-mode:lr-tb;fill:#231f20;fill-opacity:1;fill-rule:nonzero;stroke:none"
               transform="matrix(1,0,0,-1,35.593941,2.4510002)"><tspan
                 id="tspan62"
                 y="0"
                 x="0 4.0921965">20</tspan></text>
<text
               id="text68"
               style="font-variant:normal;font-weight:normal;font-size:8.36849976px;font-family:CMR12;-inkscape-font-specification:CMR12;writing-mode:lr-tb;fill:#231f20;fill-opacity:1;fill-rule:nonzero;stroke:none"
               transform="matrix(1,0,0,-1,61.860149,2.101197)"><tspan
                 id="tspan66"
                 y="0"
                 x="0 4.0921965">10</tspan></text>
<text
               id="text72"
               style="font-variant:normal;font-weight:normal;font-size:8.36849976px;font-family:CMR12;-inkscape-font-specification:CMR12;writing-mode:lr-tb;fill:#231f20;fill-opacity:1;fill-rule:nonzero;stroke:none"
               transform="matrix(1,0,0,-1,88.748138,2.101197)"><tspan
                 id="tspan70"
                 y="0"
                 x="0">0</tspan></text>
<text
               id="text76"
               style="font-variant:normal;font-weight:normal;font-size:8.36849976px;font-family:CMR12;-inkscape-font-specification:CMR12;writing-mode:lr-tb;fill:#231f20;fill-opacity:1;fill-rule:nonzero;stroke:none"
               transform="matrix(1,0,0,-1,113.28876,2.101197)"><tspan
                 id="tspan74"
                 y="0"
                 x="0">1</tspan></text>
<text
               id="text80"
               style="font-variant:normal;font-weight:normal;font-size:8.36849976px;font-family:CMR12;-inkscape-font-specification:CMR12;writing-mode:lr-tb;fill:#231f20;fill-opacity:1;fill-rule:nonzero;stroke:none"
               transform="matrix(1,0,0,-1,117.38096,2.101197)"><tspan
                 id="tspan78"
                 y="0"
                 x="0">0</tspan></text>
<text
               id="text84"
               style="font-variant:normal;font-weight:normal;font-size:8.36849976px;font-family:CMR12;-inkscape-font-specification:CMR12;writing-mode:lr-tb;fill:#231f20;fill-opacity:1;fill-rule:nonzero;stroke:none"
               transform="matrix(1,0,0,-1,139.47798,2.101197)"><tspan
                 id="tspan82"
                 y="0"
                 x="0">2</tspan></text>
<text
               id="text88"
               style="font-variant:normal;font-weight:normal;font-size:8.36849976px;font-family:CMR12;-inkscape-font-specification:CMR12;writing-mode:lr-tb;fill:#231f20;fill-opacity:1;fill-rule:nonzero;stroke:none"
               transform="matrix(1,0,0,-1,143.57018,2.101197)"><tspan
                 id="tspan86"
                 y="0"
                 x="0">0</tspan></text>
<text
               id="text92"
               style="font-variant:normal;font-weight:normal;font-size:8.36849976px;font-family:CMR12;-inkscape-font-specification:CMR12;writing-mode:lr-tb;fill:#231f20;fill-opacity:1;fill-rule:nonzero;stroke:none"
               transform="matrix(1,0,0,-1,164.96591,2.101197)"><tspan
                 id="tspan90"
                 y="0"
                 x="0">3</tspan></text>
<text
               id="text96"
               style="font-variant:normal;font-weight:normal;font-size:8.36849976px;font-family:CMR12;-inkscape-font-specification:CMR12;writing-mode:lr-tb;fill:#231f20;fill-opacity:1;fill-rule:nonzero;stroke:none"
               transform="matrix(1,0,0,-1,169.05811,2.101197)"><tspan
                 id="tspan94"
                 y="0"
                 x="0">0</tspan></text>
<text
               id="text100"
               style="font-variant:normal;font-weight:normal;font-size:8.36849976px;font-family:CMR12;-inkscape-font-specification:CMR12;writing-mode:lr-tb;fill:#231f20;fill-opacity:1;fill-rule:nonzero;stroke:none"
               transform="matrix(1,0,0,-1,81.218163,33.148331)"><tspan
                 id="tspan98"
                 y="0"
                 x="0 4.0921965">20</tspan></text>
<text
               id="text104"
               style="font-variant:normal;font-weight:normal;font-size:8.36849976px;font-family:CMR12;-inkscape-font-specification:CMR12;writing-mode:lr-tb;fill:#231f20;fill-opacity:1;fill-rule:nonzero;stroke:none"
               transform="matrix(1,0,0,-1,81.156235,57.998589)"><tspan
                 id="tspan102"
                 y="0"
                 x="0 4.0921965">40</tspan></text>
<text
               id="text108"
               style="font-variant:normal;font-weight:normal;font-size:8.36849976px;font-family:CMR12;-inkscape-font-specification:CMR12;writing-mode:lr-tb;fill:#231f20;fill-opacity:1;fill-rule:nonzero;stroke:none"
               transform="matrix(1,0,0,-1,81.794754,82.848846)"><tspan
                 id="tspan106"
                 y="0"
                 x="0 4.0921965">60</tspan></text>
<text
               id="text112"
               style="font-variant:normal;font-weight:normal;font-size:8.36849976px;font-family:CMR12;-inkscape-font-specification:CMR12;writing-mode:lr-tb;fill:#231f20;fill-opacity:1;fill-rule:nonzero;stroke:none"
               transform="matrix(1,0,0,-1,81.733665,107.6991)"><tspan
                 id="tspan110"
                 y="0"
                 x="0 4.0921965">80</tspan></text>
<text
               id="text116"
               style="font-variant:normal;font-weight:normal;font-size:8.36849976px;font-family:CMR12;-inkscape-font-specification:CMR12;writing-mode:lr-tb;fill:#231f20;fill-opacity:1;fill-rule:nonzero;stroke:none"
               transform="matrix(1,0,0,-1,76.77198,132.54936)"><tspan
                 id="tspan114"
                 y="0"
                 x="0 4.0921965 8.1843929">100</tspan></text>
<path
               id="path118"
               style="fill:#ffffff;fill-opacity:1;fill-rule:nonzero;stroke:none"
               d="m 55.533001,4.763 h 5.156002" /><path
               id="path120"
               style="fill:none;stroke:#231f20;stroke-width:0.69999999;stroke-linecap:butt;stroke-linejoin:miter;stroke-miterlimit:4;stroke-dasharray:none;stroke-opacity:1"
               d="m 55.533001,4.763 h 5.156002" /><path
               id="path122"
               style="fill:#ffffff;fill-opacity:1;fill-rule:nonzero;stroke:none"
               d="m 30.334002,4.763 h 5.155996" /><path
               id="path124"
               style="fill:none;stroke:#231f20;stroke-width:0.69999999;stroke-linecap:butt;stroke-linejoin:miter;stroke-miterlimit:4;stroke-dasharray:none;stroke-opacity:1"
               d="m 30.334002,4.763 h 5.155996" /><path
               id="path126"
               style="fill:#ffffff;fill-opacity:1;fill-rule:nonzero;stroke:none"
               d="M 0,4.7640004 H 5.1560001" /></g><g
             id="g128"><g
               clip-path="url(#clipPath134)"
               id="g130"><path
                 id="path136"
                 style="fill:none;stroke:#231f20;stroke-width:0.69999999;stroke-linecap:butt;stroke-linejoin:miter;stroke-miterlimit:4;stroke-dasharray:none;stroke-opacity:1"
                 d="M 0,4.7640004 H 5.1560001" /></g></g><g
             id="g138"><path
               id="path140"
               style="fill:none;stroke:#231f20;stroke-width:1;stroke-linecap:butt;stroke-linejoin:round;stroke-miterlimit:10;stroke-dasharray:3, 3, 3, 3, 3, 3;stroke-dashoffset:0;stroke-opacity:1"
               d="m 87.395004,11.735001 h 0.058 l 0.03,-0.03 h 0.146003 l 0.029,-0.029 h 0.115997 l 0.029,-0.029 h 0.118004 l 0.028,-0.03 h 0.176003 l 0.028,-0.028 h 0.145996 l 0.029,-0.03 h 0.146004 l 0.03,-0.029 h 0.173996 l 0.03001,-0.029 h 0.203995 l 0.029,-0.029 h 0.204002 l 0.029,-0.029 h 0.205001 l 0.029,-0.03 h 0.233001 l 0.03,-0.028 h 0.262001 l 0.029,-0.03 h 0.320999 m -5.775002,1.109001 h 0.029 l 0.029,-0.03 h 0.05901 l 0.028,-0.029 h 0.088 l 0.02899,-0.029 h 0.05801 l 0.03,-0.029 h 0.08701 l 0.029,-0.029 h 0.059 l 0.029,-0.03 h 0.05799 l 0.02901,-0.028 h 0.08801 l 0.029,-0.03 h 0.058 l 0.03,-0.029 h 0.087 l 0.029,-0.029 h 0.08801 l 0.029,-0.029 h 0.087 l 0.029,-0.029 h 0.059 l 0.029,-0.029 h 0.08801 l 0.029,-0.03 h 0.087 l 0.029,-0.029 h 0.08801 l 0.029,-0.029 h 0.088 l 0.029,-0.029 h 0.117005 l 0.028,-0.029 h 0.088 l 0.02899,-0.03 h 0.088 l 0.029,-0.029 h 0.117004 l 0.029,-0.029 h 0.115997 l 0.029,-0.029 h 0.08801 l 0.03,-0.029 h 0.115998 l 0.029,-0.03 h 0.117004 l 0.029,-0.028 h 0.058 m -5.775009,1.807999 0.02901,-0.03 h 0.029 l 0.03,-0.028 h 0.02901 l 0.029,-0.03 h 0.058 l 0.03,-0.029 h 0.029 l 0.029,-0.029 h 0.058 l 0.03,-0.03 h 0.02801 l 0.03,-0.028 h 0.058 l 0.029,-0.03 h 0.029 l 0.029,-0.029 h 0.059 l 0.029,-0.029 h 0.029 l 0.02901,-0.029 h 0.03 l 0.029,-0.029 h 0.058 l 0.029,-0.03 h 0.058 l 0.03,-0.028 h 0.02901 l 0.029,-0.03 h 0.058 l 0.03,-0.029 h 0.058 l 0.029,-0.029 h 0.029 l 0.03001,-0.029 h 0.028 l 0.03,-0.029 h 0.058 l 0.02899,-0.029 h 0.05801 l 0.03,-0.03 h 0.058 l 0.02901,-0.029 h 0.059 l 0.029,-0.029 h 0.029 l 0.029,-0.029 h 0.058 l 0.029,-0.029 h 0.05901 l 0.029,-0.03 h 0.058 l 0.03,-0.029 h 0.058 l 0.029,-0.029 h 0.059 l 0.02801,-0.029 h 0.03 l 0.029,-0.029 h 0.058 l 0.029,-0.03 h 0.088 l 0.029,-0.028 h 0.029 l 0.02901,-0.03 h 0.088 l 0.029,-0.029 h 0.058 l 0.029,-0.029 h 0.05901 l 0.029,-0.03 h 0.058 l 0.03,-0.028 h 0.029" /><path
               id="path142"
               style="fill:none;stroke:#231f20;stroke-width:1;stroke-linecap:butt;stroke-linejoin:round;stroke-miterlimit:10;stroke-dasharray:3, 3, 3, 3, 3, 3;stroke-dashoffset:0;stroke-opacity:1"
               d="m 78.733002,14.913001 h 0.058 l 0.029,-0.028 h 0.02901 l 0.03,-0.03 h 0.029 l 0.029,-0.029 h 0.029 l 0.029,-0.029 0.029,-0.029 h 0.029 l 0.03,-0.029 h 0.02901 l 0.029,-0.029 h 0.03 l 0.028,-0.03 0.03,-0.029 h 0.029 l 0.029,-0.029 h 0.058 l 0.03,-0.029 h 0.02801 l 0.03,-0.029 0.029,-0.03 h 0.029 l 0.02899,-0.029 h 0.02901 l 0.029,-0.029 h 0.059 l 0.029,-0.029 h 0.02901 l 0.029,-0.029 0.03,-0.03 h 0.029 l 0.029,-0.028 h 0.029 l 0.02899,-0.03 h 0.05801 l 0.05901,-0.058 h 0.029 l 0.03,-0.03 h 0.058 l 0.029,-0.028 h 0.029 l 0.029,-0.03 0.029,-0.029 h 0.03 l 0.02801,-0.029 h 0.059 l 0.029,-0.029 h 0.029 l 0.029,-0.029 0.029,-0.03 h 0.059 l 0.029,-0.028 h 0.029 l 0.02901,-0.03 h 0.059 l 0.029,-0.029 0.029,-0.029 h 0.029 l 0.029,-0.029 h 0.059 l 0.02901,-0.029 h 0.029 l 0.03,-0.029 h 0.028 l 0.03,-0.03 h 0.029 l 0.029,-0.029 h 0.058 l 0.03001,-0.029 h 0.028 l 0.03,-0.029 h 0.029 l 0.029,-0.029 h 0.02899 l 0.02901,-0.03 h 0.059 l 0.029,-0.029 0.029,-0.029 h 0.05801 l 0.03,-0.029 h 0.058 l 0.029,-0.029 h 0.02899 m -5.774994,3.12 h 0.03 l 0.028,-0.028 0.03001,-0.03 h 0.029 l 0.029,-0.029 h 0.02899 l 0.02901,-0.029 0.029,-0.029 0.03,-0.029 h 0.029 l 0.029,-0.029 h 0.02901 l 0.029,-0.03 0.03,-0.029 h 0.029 l 0.029,-0.029 0.029,-0.029 h 0.02899 l 0.02901,-0.029 0.029,-0.03 h 0.03 l 0.02901,-0.029 h 0.029 l 0.03,-0.029 0.028,-0.029 0.03,-0.029 h 0.029 l 0.029,-0.03 h 0.029 l 0.029,-0.028 h 0.03 l 0.028,-0.03 0.05901,-0.058 h 0.029 l 0.029,-0.03 h 0.029 l 0.029,-0.028 h 0.03 l 0.029,-0.03 0.058,-0.058 h 0.02901 l 0.03,-0.029 h 0.029 l 0.029,-0.029 h 0.029 l 0.029,-0.03 h 0.029 l 0.03,-0.028 0.029,-0.03 h 0.02901 l 0.059,-0.058 h 0.028 l 0.03,-0.029 h 0.029 l 0.029,-0.029 0.029,-0.029 h 0.029 l 0.03,-0.03 h 0.02901 l 0.029,-0.029 h 0.029 l 0.029,-0.029 0.02899,-0.029 h 0.02901 l 0.03,-0.029 h 0.029 l 0.029,-0.03 0.029,-0.029 h 0.02901 l 0.029,-0.029 0.03,-0.029 h 0.029 l 0.029,-0.029 h 0.029 l 0.02899,-0.03 h 0.02901 l 0.03,-0.028 h 0.029 l 0.02901,-0.03 0.029,-0.029 h 0.03 l 0.028,-0.029 h 0.03 l 0.029,-0.03 h 0.029 l 0.029,-0.028 h 0.029 l 0.03,-0.03 0.02901,-0.029 h 0.029 l 0.029,-0.029 h 0.029 l 0.029,-0.029 h 0.029 l 0.03,-0.029 0.029,-0.03" /><path
               id="path144"
               style="fill:none;stroke:#231f20;stroke-width:1;stroke-linecap:butt;stroke-linejoin:round;stroke-miterlimit:10;stroke-dasharray:3, 3, 3, 3, 3, 3;stroke-dashoffset:0;stroke-opacity:1"
               d="m 72.958,18.735001 h 0.02901 l 0.029,-0.03 0.03,-0.029 h 0.028 l 0.03,-0.029 0.029,-0.03 0.029,-0.028 0.029,-0.03 0.029,-0.029 h 0.03 l 0.028,-0.029 0.03001,-0.029 h 0.029 l 0.029,-0.029 0.029,-0.03 0.029,-0.028 0.029,-0.03 h 0.03 l 0.029,-0.029 0.029,-0.029 h 0.029 l 0.02901,-0.029 0.059,-0.058 0.029,-0.03 h 0.029 l 0.029,-0.029 0.03,-0.029 h 0.028 l 0.03,-0.029 0.02901,-0.029 0.029,-0.03 0.03,-0.029 h 0.028 l 0.059,-0.058 h 0.029 l 0.029,-0.029 0.029,-0.03 0.03,-0.028 0.028,-0.03 h 0.03001 l 0.029,-0.029 h 0.029 l 0.02899,-0.029 0.02901,-0.03 h 0.029 l 0.03,-0.028 0.029,-0.03 0.05801,-0.058 h 0.029 l 0.03,-0.029 0.029,-0.029 h 0.029 l 0.029,-0.03 0.02899,-0.028 0.02901,-0.03 h 0.03 l 0.029,-0.029 0.02901,-0.029 h 0.029 l 0.03,-0.029 0.028,-0.029 0.03,-0.029 h 0.029 l 0.029,-0.03 0.029,-0.029 h 0.029 l 0.03,-0.029 0.02901,-0.029 h 0.029 l 0.029,-0.029 0.029,-0.03 0.029,-0.029 h 0.029 l 0.03,-0.029 h 0.029 l 0.029,-0.029 0.029,-0.029 h 0.029 l 0.02901,-0.03 0.03,-0.028 0.029,-0.03 h 0.029 l 0.029,-0.029 0.029,-0.029 h 0.029 l 0.03,-0.03 0.029,-0.028 0.02901,-0.03 h 0.029 l 0.03,-0.029 h 0.028 l 0.03,-0.029 h 0.029 l 0.029,-0.029 0.029,-0.029 0.029,-0.03 m -6.679001,5.338001 h 0.029 l 0.05901,-0.058 0.029,-0.03 0.029,-0.028 0.029,-0.03 0.02899,-0.029 0.05901,-0.058 h 0.029 l 0.029,-0.029 0.02901,-0.029 0.03,-0.03 0.029,-0.029 0.029,-0.029 0.058,-0.058 h 0.029 l 0.029,-0.03 0.03,-0.029 0.02901,-0.029 0.029,-0.029 0.029,-0.029 0.029,-0.03 0.029,-0.028 h 0.03 l 0.029,-0.03 0.029,-0.029 0.029,-0.029 0.029,-0.03 0.029,-0.028 0.03,-0.03 h 0.02901 l 0.029,-0.029 0.058,-0.058 0.029,-0.029 h 0.029 l 0.03,-0.03 v -0.028 l 0.029,-0.03 h 0.02901 l 0.029,-0.029 0.03,-0.029 0.02899,-0.029 h 0.02901 l 0.029,-0.029 0.029,-0.029 0.029,-0.03 0.03,-0.029 0.029,-0.029 0.02901,-0.029 h 0.029 l 0.029,-0.029 0.029,-0.03 0.059,-0.058 0.029,-0.029 h 0.029 l 0.029,-0.029 0.029,-0.03 0.03001,-0.028 h 0.029 l 0.029,-0.03 0.029,-0.029 0.029,-0.029 0.029,-0.03 0.03,-0.028 h 0.029 l 0.029,-0.03 0.05801,-0.058 0.029,-0.029 0.03,-0.029 0.029,-0.03 h 0.029 l 0.029,-0.028 0.029,-0.03 h 0.029 l 0.03,-0.029 0.029,-0.029 0.05801,-0.058 0.029,-0.029 h 0.029 l 0.03,-0.03 0.029,-0.029 0.029,-0.029 h 0.029 l 0.029,-0.029 0.029,-0.029 0.03001,-0.03 0.02899,-0.029 h 0.02901 l 0.029,-0.029 0.029,-0.029 0.029,-0.029 0.03,-0.03 0.028,-0.028" /><path
               id="path146"
               style="fill:none;stroke:#231f20;stroke-width:1;stroke-linecap:butt;stroke-linejoin:round;stroke-miterlimit:10;stroke-dasharray:3, 3, 3, 3, 3, 3;stroke-dashoffset:0;stroke-opacity:1"
               d="m 67.387001,23.693001 0.029,-0.03 h 0.029 l 0.02901,-0.028 0.03,-0.03 0.029,-0.029 0.029,-0.029 0.029,-0.029 v -0.029 l 0.02899,-0.029 0.02901,-0.03 h 0.029 l 0.059,-0.058 0.02901,-0.029 0.03,-0.029 0.028,-0.03 v -0.029 l 0.03,-0.029 h 0.029 l 0.029,-0.029 0.029,-0.029 0.029,-0.03 0.03,-0.028 0.028,-0.03 0.05901,-0.058 0.029,-0.03 0.029,-0.028 0.029,-0.03 0.029,-0.029 0.03,-0.029 0.029,-0.029 0.029,-0.029 0.029,-0.03 0.02901,-0.028 0.029,-0.03 0.059,-0.058 0.029,-0.029 h 0.029 l 0.029,-0.029 0.029,-0.029 v -0.03 l 0.03,-0.029 0.029,-0.029 0.02901,-0.029 h 0.03 l 0.028,-0.029 0.03,-0.03 0.029,-0.029 0.029,-0.029 0.029,-0.029 0.029,-0.029 0.03,-0.03 0.02901,-0.028 0.029,-0.03 0.029,-0.029 h 0.029 l 0.02899,-0.029 0.02901,-0.03 v -0.028 l 0.03,-0.03 0.029,-0.029 h 0.029 l 0.058,-0.058 0.05901,-0.059 0.029,-0.028 0.029,-0.03 0.029,-0.029 0.02899,-0.029 0.02901,-0.029 0.03,-0.029 h 0.029 l 0.029,-0.029 0.02901,-0.03 v -0.029 l 0.03,-0.029 h 0.028 l 0.059,-0.058 0.029,-0.03 0.029,-0.029 0.029,-0.029 h 0.03 l 0.02901,-0.029 v -0.029 l 0.029,-0.03 0.029,-0.028 h 0.029 l 0.029,-0.03 0.059,-0.058 0.029,-0.03 0.029,-0.028 0.029,-0.03 0.029,-0.029 0.02901,-0.029 m -5.308007,5.338 0.029,-0.03 0.02901,-0.029 0.059,-0.058 v -0.029 l 0.029,-0.03 0.029,-0.028 0.029,-0.03 0.029,-0.029 0.029,-0.029 0.059,-0.058 0.059,-0.059 v -0.029 l 0.028,-0.029 0.059,-0.058 0.029,-0.03 0.088,-0.087 0.028,-0.029 v -0.03 l 0.03001,-0.028 0.029,-0.03 0.029,-0.029 0.02899,-0.029 0.02901,-0.03 0.029,-0.028 0.059,-0.059 v -0.029 l 0.058,-0.058 h 0.02901 l 0.029,-0.03 0.03,-0.028 0.029,-0.03 0.029,-0.029 0.058,-0.058 v -0.029 l 0.029,-0.029 0.03,-0.03 0.029,-0.029 0.02901,-0.029 0.03,-0.029 0.028,-0.029 0.03,-0.03 0.029,-0.029 v -0.029 l 0.029,-0.029 h 0.029 l 0.029,-0.029 0.03,-0.03 0.02901,-0.028 0.029,-0.03 0.058,-0.058 v -0.03 l 0.029,-0.028 0.029,-0.03 0.03,-0.029 0.029,-0.029 0.029,-0.029 0.029,-0.029 0.029,-0.03 h 0.02901 l 0.03,-0.028 v -0.03 l 0.029,-0.029 0.058,-0.058 0.029,-0.029 0.029,-0.029 0.03,-0.03 0.029,-0.029 0.088,-0.087 0.028,-0.03 0.059,-0.058 0.029,-0.029 0.029,-0.029 0.029,-0.03 v -0.028 l 0.03,-0.03 0.02901,-0.029 h 0.029 l 0.029,-0.029 0.029,-0.03 0.02899,-0.028 0.02901,-0.03 0.059,-0.058 v -0.029 l 0.029,-0.029" /><path
               id="path148"
               style="fill:none;stroke:#231f20;stroke-width:1;stroke-linecap:butt;stroke-linejoin:round;stroke-miterlimit:10;stroke-dasharray:3, 3, 3, 3, 3, 3;stroke-dashoffset:0;stroke-opacity:1"
               d="m 62.224003,29.439001 0.03,-0.03 v -0.029 l 0.058,-0.058 0.029,-0.029 0.029,-0.03 0.03,-0.058 0.028,-0.029 0.03,-0.029 0.029,-0.03 v -0.028 l 0.029,-0.03 0.03,-0.029 0.028,-0.029 0.03,-0.029 0.029,-0.029 0.029,-0.03 0.029,-0.028 0.029,-0.03 0.03,-0.029 v -0.058 l 0.028,-0.029 0.03,-0.029 0.029,-0.03 0.029,-0.029 0.058,-0.058 0.059,-0.059 v -0.029 l 0.029,-0.029 0.05799,-0.058 0.029,-0.03 0.029,-0.028 0.03,-0.03 0.029,-0.029 0.029,-0.029 v -0.03 l 0.029,-0.058 0.029,-0.029 0.029,-0.029 0.03,-0.029 0.029,-0.029 0.029,-0.03 0.03,-0.028 0.028,-0.03 v -0.029 l 0.03,-0.029 0.029,-0.029 0.029,-0.029 0.029,-0.029 0.029,-0.03 0.03,-0.029 0.028,-0.029 0.059,-0.058 v -0.03 l 0.029,-0.029 0.088,-0.087 0.029,-0.03 0.029,-0.028 0.029,-0.03 0.029,-0.029 v -0.029 l 0.029,-0.03 0.03,-0.028 0.029,-0.03 0.058,-0.058 0.02899,-0.029 0.02901,-0.029 0.03,-0.03 v -0.028 l 0.029,-0.03 0.029,-0.058 0.02901,-0.029 0.03,-0.029 0.028,-0.029 0.03,-0.03 0.029,-0.029 0.029,-0.029 0.029,-0.029 v -0.029 l 0.029,-0.03 0.03,-0.029 0.029,-0.029 0.02901,-0.029 0.029,-0.029 0.029,-0.03 0.029,-0.028 0.029,-0.03 v -0.029 l 0.03,-0.029 h 0.029 l 0.029,-0.03 0.029,-0.028 m -5.161998,6.241001 0.029,-0.029 0.029,-0.059 0.029,-0.028 0.029,-0.03 0.03,-0.029 0.028,-0.029 0.03,-0.058 v -0.03 l 0.029,-0.028 0.029,-0.03 0.03,-0.029 0.028,-0.029 0.03,-0.058 0.029,-0.029 0.029,-0.03 0.029,-0.029 v -0.029 l 0.059,-0.058 0.028,-0.059 0.059,-0.058 0.029,-0.029 0.029,-0.03 0.029,-0.028 v -0.059 l 0.059,-0.059 0.029,-0.028 0.029,-0.03 0.029,-0.029 0.029,-0.029 0.03,-0.058 0.029,-0.03 0.029,-0.028 v -0.03 l 0.029,-0.029 0.05899,-0.058 0.028,-0.058 0.03,-0.03 0.029,-0.029 0.029,-0.029 0.03,-0.029 v -0.029 l 0.028,-0.03 0.03,-0.029 0.029,-0.058 0.029,-0.029 0.029,-0.03 0.029,-0.028 0.03,-0.03 0.028,-0.029 v -0.029 l 0.03,-0.03 0.029,-0.058 0.029,-0.029 0.088,-0.087 0.029,-0.03 0.029,-0.028 0.029,-0.03 v -0.058 l 0.029,-0.029 0.029,-0.029 0.03,-0.029 0.029,-0.03 0.058,-0.058 0.029,-0.029 0.03,-0.029 v -0.059 l 0.029,-0.029 0.029,-0.029 0.029,-0.029 0.029,-0.03 0.03,-0.028 0.028,-0.03 0.03,-0.029 0.029,-0.029 v -0.03 l 0.029,-0.058 0.03,-0.029 0.028,-0.029 0.059,-0.058 0.029,-0.03 0.029,-0.028 0.029,-0.03 0.029,-0.029 v -0.029 l 0.029,-0.029 0.03,-0.058 0.029,-0.03 0.029,-0.029 0.058,-0.058 0.029,-0.029" /><path
               id="path150"
               style="fill:none;stroke:#231f20;stroke-width:1;stroke-linecap:butt;stroke-linejoin:round;stroke-miterlimit:10;stroke-dasharray:3, 3, 3, 3, 3, 3;stroke-dashoffset:0;stroke-opacity:1"
               d="m 57.062004,36.235001 0.029,-0.059 0.029,-0.029 0.03,-0.03 v -0.028 l 0.028,-0.059 0.059,-0.058 0.029,-0.059 0.03,-0.028 0.028,-0.03 0.03,-0.029 0.029,-0.058 0.029,-0.029 v -0.029 l 0.029,-0.03 0.029,-0.058 0.03,-0.029 0.028,-0.029 0.03,-0.03 0.029,-0.058 0.029,-0.029 0.029,-0.029 v -0.03 l 0.029,-0.058 0.029,-0.029 0.03,-0.029 0.029,-0.03 0.029,-0.058 0.029,-0.029 0.029,-0.029 0.03,-0.029 v -0.059 l 0.029,-0.028 0.029,-0.03 0.029,-0.029 0.029,-0.029 0.03,-0.058 0.028,-0.029 0.03,-0.03 0.029,-0.029 v -0.058 l 0.087,-0.088 0.03,-0.058 0.029,-0.029 0.029,-0.03 0.029,-0.028 0.029,-0.03 0.03,-0.058 v -0.03 l 0.028,-0.028 0.03,-0.03 0.029,-0.058 0.029,-0.029 0.029,-0.029 0.029,-0.03 0.03,-0.028 0.029,-0.059 v -0.029 l 0.029,-0.029 0.058,-0.058 0.029,-0.059 0.03,-0.029 0.029,-0.029 0.029,-0.029 0.029,-0.03 v -0.058 l 0.029,-0.029 0.03,-0.029 0.029,-0.03 0.029,-0.028 0.029,-0.059 0.029,-0.029 0.03,-0.03 0.028,-0.028 0.03,-0.03 v -0.058 l 0.029,-0.029 0.059,-0.059 0.028,-0.028 0.03,-0.059 0.029,-0.029 0.029,-0.029 0.029,-0.029 v -0.029 l 0.029,-0.059 0.029,-0.029 0.059,-0.058 0.029,-0.03 0.029,-0.029 0.029,-0.058 0.029,-0.029 v -0.03 l 0.029,-0.029 0.03,-0.029 M 54.495005,40.026 v -0.058 l 0.03,-0.029 0.028,-0.03 0.03,-0.058 0.029,-0.029 0.029,-0.029 0.03,-0.058 0.028,-0.03 0.03,-0.058 v -0.03 l 0.029,-0.028 0.029,-0.059 0.058,-0.058 0.03,-0.059 0.028,-0.028 0.03,-0.03 0.029,-0.058 v -0.029 l 0.029,-0.029 0.029,-0.059 0.029,-0.029 0.029,-0.029 0.03,-0.058 0.029,-0.03 0.029,-0.029 0.029,-0.058 0.029,-0.029 v -0.03 l 0.03,-0.058 0.058,-0.058 0.029,-0.058 0.029,-0.03 0.03,-0.029 0.028,-0.058 0.03,-0.029 v -0.03 l 0.029,-0.058 0.029,-0.029 0.03,-0.029 0.028,-0.058 0.03,-0.029 0.029,-0.03 0.029,-0.058 0.029,-0.029 v -0.029 l 0.029,-0.05901 0.03,-0.029 0.028,-0.029 0.03,-0.059 0.029,-0.028 0.029,-0.03 0.029,-0.029 0.029,-0.059 0.03,-0.028 v -0.03 l 0.029,-0.058 0.029,-0.029 0.029,-0.029 0.029,-0.058 0.029,-0.03 0.03,-0.029 0.029,-0.029 0.029,-0.058 v -0.029 l 0.029,-0.03 0.029,-0.058 0.059,-0.058 0.029,-0.059 0.088,-0.087 v -0.058 l 0.028,-0.03 0.03,-0.029 0.029,-0.059 0.029,-0.028 0.058,-0.059 0.03,-0.059 0.029,-0.028 0.029,-0.03 v -0.058 l 0.058,-0.058 0.029,-0.029 0.029,-0.059 0.059,-0.058 0.029,-0.058 0.029,-0.029 v -0.03 l 0.029,-0.029 0.029,-0.058 0.03,-0.029 0.029,-0.03 0.029,-0.029" /><path
               id="path152"
               style="fill:none;stroke:#231f20;stroke-width:1;stroke-linecap:butt;stroke-linejoin:round;stroke-miterlimit:10;stroke-dasharray:3, 3, 3, 3, 3, 3;stroke-dashoffset:0;stroke-opacity:1"
               d="m 51.900002,44.081001 0.028,-0.058 0.03,-0.03 0.029,-0.029 0.029,-0.058 0.03,-0.029 0.028,-0.059 v -0.029 l 0.03,-0.058 0.029,-0.03 0.029,-0.058 0.029,-0.029 0.029,-0.029 0.03,-0.058 0.028,-0.03 0.03,-0.058 v -0.029 l 0.029,-0.059 0.029,-0.028 0.029,-0.059 0.029,-0.029 0.029,-0.029 0.03,-0.058 0.029,-0.03 0.029,-0.05801 v -0.029 l 0.029,-0.059 0.029,-0.029 0.03,-0.029 0.029,-0.058 0.029,-0.03 0.029,-0.058 0.029,-0.029 0.03,-0.059 0.028,-0.028 v -0.03 l 0.03,-0.058 0.029,-0.029 0.029,-0.059 0.03,-0.028 0.028,-0.03 0.03,-0.058 0.029,-0.029 0.029,-0.058 v -0.03 l 0.029,-0.058 0.029,-0.029 0.03,-0.029 0.028,-0.059 0.03,-0.029 0.029,-0.058 0.029,-0.03 0.029,-0.028 v -0.059 l 0.029,-0.029 0.03,-0.058 0.029,-0.03 0.029,-0.029 0.029,-0.058 0.029,-0.029 0.029,-0.058 0.03,-0.03 v -0.029 l 0.029,-0.058 0.029,-0.029 0.029,-0.059 0.05899,-0.05801 0.029,-0.05799 0.029,-0.03 0.029,-0.058 0.029,-0.029 v -0.029 l 0.03,-0.058 0.028,-0.03 0.03,-0.029 0.029,-0.059 0.029,-0.028 0.03,-0.059 0.028,-0.029 0.03,-0.03 v -0.058 l 0.058,-0.058 0.029,-0.058 0.029,-0.029 0.029,-0.059 0.029,-0.029 0.03,-0.029 0.029,-0.058 v -0.029 l 0.029,-0.03 0.029,-0.058 0.029,-0.029 0.029,-0.059 0.03,-0.029 0.029,-0.029 0.029,-0.058 0.029,-0.03 0.029,-0.029 m -5.161999,8.372002 0.029,-0.03 0.029,-0.05801 v -0.029 l 0.03,-0.059 0.028,-0.029 0.03,-0.058 0.029,-0.029 0.029,-0.058 0.029,-0.03 0.029,-0.058 0.03,-0.058 v -0.03 l 0.028,-0.058 0.03,-0.029 0.029,-0.059 0.029,-0.028 0.029,-0.059 0.029,-0.029 0.029,-0.058 0.03,-0.029 0.029,-0.059 v -0.029 l 0.029,-0.058 0.029,-0.03 0.029,-0.058 0.03,-0.029 0.029,-0.05899 0.029,-0.058 0.029,-0.029 0.029,-0.059 v -0.028 l 0.03,-0.059 0.028,-0.029 0.03,-0.058 0.029,-0.03 0.029,-0.058 0.03,-0.029 0.028,-0.058 0.03,-0.029 v -0.059 l 0.029,-0.029 0.029,-0.058 0.029,-0.029 0.029,-0.059 0.03,-0.029 0.028,-0.058 0.03,-0.03 0.029,-0.058 0.029,-0.029 v -0.059 l 0.029,-0.028 0.029,-0.059 0.03,-0.029 0.029,-0.058 0.029,-0.03 0.029,-0.058 0.029,-0.029 0.029,-0.058 v -0.029 l 0.03,-0.059 0.029,-0.029 0.029,-0.058 0.029,-0.029 0.029,-0.059 0.03,-0.029 0.029,-0.058 0.029,-0.03 v -0.058 l 0.029,-0.029 0.029,-0.059 0.03,-0.028 0.028,-0.03 0.03,-0.058 0.029,-0.03 0.029,-0.058 0.03,-0.029 0.028,-0.058 v -0.029 l 0.03,-0.058 0.029,-0.03 0.029,-0.058 0.029,-0.029 0.029,-0.05799 0.029,-0.03 0.029,-0.058 0.03,-0.029 v -0.059 l 0.058,-0.058 0.029,-0.058 0.029,-0.03 0.029,-0.058 0.03,-0.029 0.029,-0.059 0.029,-0.028 v -0.059 l 0.029,-0.029 0.029,-0.058 0.03,-0.029" /><path
               id="path154"
               style="fill:none;stroke:#231f20;stroke-width:1;stroke-linecap:butt;stroke-linejoin:round;stroke-miterlimit:10;stroke-dasharray:3, 3, 3, 3, 3, 3;stroke-dashoffset:0;stroke-opacity:1"
               d="m 46.737003,53.006004 0.029,-0.058 0.03,-0.03 0.028,-0.058 0.03,-0.029 0.029,-0.058 0.029,-0.059 0.029,-0.029 0.029,-0.058 v -0.059 l 0.03,-0.029 0.028,-0.058 0.03,-0.03 0.029,-0.058 0.029,-0.058 0.029,-0.03 0.029,-0.058 0.029,-0.058 v -0.029 l 0.03,-0.059 0.029,-0.028 0.029,-0.059 0.029,-0.058 0.029,-0.029 0.03,-0.059 0.029,-0.05801 0.029,-0.029 0.029,-0.059 v -0.029 l 0.029,-0.058 0.03,-0.059 0.028,-0.028 0.03,-0.059 0.029,-0.029 0.029,-0.058 0.03,-0.059 0.028,-0.029 v -0.058 l 0.03,-0.058 0.029,-0.03 0.029,-0.058 0.029,-0.029 0.029,-0.058 0.03,-0.059 0.028,-0.029 0.03,-0.058 v -0.03 l 0.029,-0.058 0.029,-0.029 0.029,-0.05899 0.029,-0.058 0.029,-0.029 0.03,-0.059 0.029,-0.028 0.029,-0.059 0.029,-0.058 v -0.029 l 0.029,-0.058 0.03,-0.03 0.029,-0.058 0.029,-0.058 0.029,-0.029 0.029,-0.059 0.03,-0.029 0.029,-0.05799 v -0.03 l 0.029,-0.058 0.029,-0.058 0.029,-0.03 0.03,-0.058 0.028,-0.029 0.03,-0.059 0.029,-0.028 0.029,-0.059 v -0.058 l 0.03,-0.029 0.028,-0.058 0.03,-0.03 0.029,-0.058 0.029,-0.029 0.029,-0.058 0.029,-0.059 0.029,-0.029 v -0.058 l 0.029,-0.03 0.03,-0.058 0.029,-0.029 0.029,-0.05899 0.029,-0.058 0.029,-0.029 0.029,-0.059 0.03,-0.028 0.029,-0.059 v -0.029 l 0.029,-0.058 0.029,-0.03 0.029,-0.058 0.03,-0.029 0.029,-0.058 0.029,-0.058 m -5.162003,9.479 0.028,-0.059 0.03,-0.029 0.029,-0.058 0.029,-0.058 v -0.059 l 0.029,-0.029 0.059,-0.117001 0.028,-0.058 0.03,-0.029 0.029,-0.058 0.029,-0.059 0.029,-0.029 0.029,-0.058 v -0.059 l 0.029,-0.05801 0.03,-0.029 0.029,-0.059 0.029,-0.058 0.029,-0.029 0.029,-0.059 0.059,-0.116005 v -0.03 l 0.029,-0.058 0.029,-0.058 0.029,-0.029 0.029,-0.059 0.029,-0.058 0.03,-0.058 0.029,-0.029 0.029,-0.058 v -0.059 l 0.03,-0.029 0.028,-0.058 0.03,-0.059 0.029,-0.029 0.029,-0.058 0.029,-0.058 0.029,-0.059 0.03,-0.029 0.028,-0.058 v -0.059 l 0.03,-0.029 0.029,-0.058 0.029,-0.058 0.029,-0.03 0.029,-0.058 0.029,-0.058 0.03,-0.029 0.029,-0.059 v -0.058 l 0.029,-0.029 0.029,-0.059 0.029,-0.058 0.03,-0.059 0.029,-0.028 0.058,-0.118004 0.029,-0.028 v -0.059 l 0.03,-0.058 0.029,-0.029 0.029,-0.058 0.029,-0.059 0.029,-0.029 0.03,-0.058 0.028,-0.059 0.03,-0.029 0.029,-0.058 v -0.059 l 0.029,-0.029 0.03,-0.058 0.028,-0.05899 0.03,-0.028 0.029,-0.059 0.029,-0.059 0.029,-0.028 0.029,-0.059 v -0.058 l 0.029,-0.029 0.029,-0.058 0.03,-0.059 0.029,-0.029 0.029,-0.058 0.029,-0.059 0.029,-0.029 0.029,-0.058 v -0.029 l 0.03,-0.059 0.029,-0.058 0.029,-0.029 0.029,-0.058 0.029,-0.059 0.03,-0.029 0.029,-0.058 0.029,-0.059 0.029,-0.029 v -0.058" /><path
               id="path156"
               style="fill:none;stroke:#231f20;stroke-width:1;stroke-linecap:butt;stroke-linejoin:round;stroke-miterlimit:10;stroke-dasharray:3, 3, 3, 3, 3, 3;stroke-dashoffset:0;stroke-opacity:1"
               d="m 41.604,63.009998 0.029,-0.05899 v -0.058 l 0.029,-0.029 0.029,-0.059 0.059,-0.116001 0.028,-0.058 0.03,-0.03 0.029,-0.058 0.029,-0.058 v -0.058 l 0.029,-0.059 0.029,-0.05801 0.029,-0.029 0.03,-0.059 0.029,-0.058 0.058,-0.115997 0.029,-0.03 0.029,-0.058 v -0.058 l 0.03,-0.059 0.029,-0.058 0.029,-0.029 0.029,-0.058 0.029,-0.059 0.029,-0.058 0.03,-0.058 0.029,-0.03 v -0.058 l 0.029,-0.058 0.03,-0.059 0.028,-0.05801 0.03,-0.029 0.029,-0.058 0.029,-0.059 0.029,-0.059 0.029,-0.058 v -0.029 l 0.03,-0.058 0.028,-0.059 0.059,-0.115998 0.029,-0.029 0.029,-0.058 0.029,-0.059 0.029,-0.058 0.03,-0.029 v -0.059 l 0.029,-0.058 0.029,-0.059 0.029,-0.058 0.029,-0.029 0.03,-0.059 0.058,-0.115997 0.029,-0.029 v -0.059 l 0.058,-0.116005 0.03,-0.029 0.029,-0.058 0.058,-0.117001 0.03,-0.059 0.028,-0.029 v -0.05801 l 0.03,-0.05899 0.029,-0.058 0.029,-0.029 0.03,-0.059 0.028,-0.058 0.03,-0.058 0.029,-0.029 0.029,-0.059 v -0.058 l 0.029,-0.058 0.029,-0.029 0.029,-0.058 0.059,-0.117001 0.029,-0.029 0.029,-0.059 0.029,-0.058 0.029,-0.059 v -0.028 l 0.029,-0.059 0.03,-0.059 0.029,-0.058 0.029,-0.029 0.029,-0.058 0.029,-0.059 0.03,-0.058 0.029,-0.029 v -0.058 l 0.029,-0.058 0.029,-0.059 0.029,-0.029 0.03,-0.058 m -5.162998,10.529003 0.029,-0.05901 0.029,-0.029 0.029,-0.058 0.03,-0.059 0.028,-0.058 0.03,-0.058 0.029,-0.05801 v -0.059 l 0.029,-0.05801 0.029,-0.05899 0.029,-0.058 0.029,-0.05801 0.03,-0.029 0.029,-0.058 0.058,-0.116997 v -0.05901 l 0.029,-0.058 0.059,-0.115997 0.029,-0.059 0.029,-0.05901 0.029,-0.028 0.029,-0.059 0.029,-0.058 v -0.059 l 0.059,-0.116005 0.029,-0.058 0.03,-0.059 0.028,-0.058 0.03,-0.058 0.029,-0.03001 0.029,-0.058 0.029,-0.058 v -0.058 L 40,66.305 l 0.028,-0.058 0.03,-0.058 0.029,-0.02901 0.029,-0.05899 0.058,-0.116005 v -0.058 l 0.029,-0.059 0.03,-0.05801 0.029,-0.05799 0.029,-0.03001 0.029,-0.058 0.029,-0.058 0.03,-0.058 0.029,-0.059 v -0.05901 l 0.029,-0.058 0.029,-0.058 0.029,-0.029 0.029,-0.059 0.03,-0.058 0.029,-0.05801 0.058,-0.116997 0.03,-0.058 v -0.029 l 0.028,-0.05901 0.03,-0.058 0.029,-0.058 0.029,-0.058 0.03,-0.059 0.028,-0.05901 0.03,-0.028 0.029,-0.059 v -0.05801 l 0.029,-0.05899 0.058,-0.116005 0.029,-0.058 0.029,-0.029 0.059,-0.116997 0.029,-0.059 v -0.058 l 0.029,-0.058 0.029,-0.03 0.029,-0.058 0.03,-0.058 0.029,-0.058 0.029,-0.059 0.029,-0.058 0.029,-0.029 0.03,-0.058 v -0.059 l 0.029,-0.058 0.029,-0.058 0.029,-0.059 0.029,-0.029 0.03,-0.058 0.028,-0.059 0.03,-0.05801" /><path
               id="path158"
               style="fill:none;stroke:#231f20;stroke-width:1;stroke-linecap:butt;stroke-linejoin:round;stroke-miterlimit:10;stroke-dasharray:3, 3, 3, 3, 3, 3;stroke-dashoffset:0;stroke-opacity:1"
               d="m 36.441002,74.094002 0.059,-0.117996 0.028,-0.058 v -0.05801 l 0.03,-0.058 0.029,-0.059 0.029,-0.058 0.058,-0.116005 0.029,-0.059 0.03,-0.059 0.029,-0.058 0.029,-0.058 v -0.05801 l 0.029,-0.058 0.029,-0.05901 0.029,-0.05899 0.059,-0.116005 0.029,-0.058 0.029,-0.059 0.029,-0.05801 v -0.05799 l 0.029,-0.05901 0.03,-0.058 0.029,-0.059 0.029,-0.058 0.03,-0.05801 0.028,-0.058 0.03,-0.059 0.029,-0.058 v -0.059 l 0.029,-0.058 0.029,-0.05801 0.059,-0.116997 0.028,-0.058 0.03,-0.058 0.029,-0.05901 0.029,-0.058 0.029,-0.059 v -0.058 l 0.029,-0.058 0.029,-0.05801 0.03,-0.059 0.029,-0.05801 0.029,-0.05899 0.029,-0.058 0.029,-0.05801 0.03,-0.029 v -0.058 l 0.058,-0.116997 0.029,-0.05901 0.029,-0.058 0.059,-0.115997 0.029,-0.059 0.029,-0.05901 v -0.058 l 0.029,-0.058 0.03,-0.058 0.028,-0.058 0.03,-0.05901 0.029,-0.058 0.029,-0.058 0.03,-0.059 0.028,-0.058 0.03,-0.05901 v -0.058 l 0.029,-0.058 0.029,-0.03 0.058,-0.115997 0.029,-0.05801 0.029,-0.059 0.03,-0.05801 0.029,-0.05899 v -0.058 l 0.029,-0.05801 0.058,-0.116997 0.029,-0.05801 0.03,-0.05799 0.029,-0.05901 0.029,-0.058 0.029,-0.059 v -0.028 l 0.029,-0.059 0.03,-0.05901 0.029,-0.058 0.029,-0.058 0.029,-0.058 0.029,-0.058 0.03,-0.05901 0.028,-0.058 v -0.058 l 0.059,-0.116997 M 33.875,80.043007 v -0.08701 l 0.028,-0.058 0.03,-0.059 0.029,-0.058 0.029,-0.05901 0.029,-0.058 0.029,-0.058 0.029,-0.058 0.03,-0.059 v -0.058 l 0.029,-0.059 0.029,-0.087 0.029,-0.059 0.029,-0.058 0.029,-0.05801 0.03,-0.058 0.029,-0.059 0.029,-0.058 v -0.058 l 0.029,-0.05801 0.029,-0.059 0.029,-0.05899 0.03,-0.087 0.029,-0.058 0.029,-0.059 0.03,-0.058 0.028,-0.058 0.03,-0.058 v -0.05901 l 0.029,-0.058 0.029,-0.058 0.029,-0.059 0.029,-0.058 0.03,-0.05901 0.028,-0.058 0.03,-0.088 0.029,-0.058 v -0.05801 l 0.029,-0.058 0.029,-0.058 0.029,-0.059 0.029,-0.059 0.03,-0.058 0.029,-0.05801 0.029,-0.058 0.029,-0.059 v -0.058 l 0.029,-0.058 0.03,-0.05801 0.058,-0.117996 0.029,-0.087 0.029,-0.058 0.029,-0.059 0.03,-0.058 0.029,-0.058 v -0.058 l 0.029,-0.05901 0.059,-0.115997 0.028,-0.059 0.03,-0.058 0.029,-0.05901 0.029,-0.058 0.03,-0.058 v -0.058 l 0.028,-0.059 0.03,-0.058 0.029,-0.059 0.029,-0.058 0.029,-0.058 0.029,-0.058 0.029,-0.08801 0.029,-0.058 v -0.059 l 0.03,-0.058 0.029,-0.058 0.029,-0.05801 0.058,-0.117996 0.029,-0.058 0.03,-0.058 0.029,-0.05801 0.029,-0.058 v -0.05901 l 0.029,-0.05899 0.029,-0.058 0.03,-0.05801 0.029,-0.058 0.029,-0.059 0.029,-0.05801 0.059,-0.115998 v -0.059 l 0.028,-0.059 0.059,-0.116005 0.029,-0.058 0.03,-0.058" /><path
               id="path160"
               style="fill:none;stroke:#231f20;stroke-width:1;stroke-linecap:butt;stroke-linejoin:round;stroke-miterlimit:10;stroke-dasharray:3, 3, 3, 3, 3, 3;stroke-dashoffset:0;stroke-opacity:1"
               d="m 31.278002,86.226006 0.059,-0.116005 0.029,-0.058 0.029,-0.059 0.029,-0.058 0.029,-0.088 v -0.05801 l 0.03,-0.058 0.029,-0.058 0.029,-0.059 0.029,-0.08701 0.029,-0.058 0.059,-0.117996 0.029,-0.058 v -0.08701 l 0.029,-0.058 0.029,-0.059 0.029,-0.058 0.029,-0.059 0.03,-0.05801 0.029,-0.088 0.029,-0.058 0.03,-0.05801 v -0.058 l 0.028,-0.058 0.03,-0.059 0.029,-0.087 0.029,-0.059 0.058,-0.116005 0.03,-0.059 0.028,-0.058 0.03,-0.08701 v -0.059 l 0.029,-0.05899 0.029,-0.058 0.029,-0.058 0.029,-0.05801 0.029,-0.088 0.03,-0.058 0.029,-0.058 0.029,-0.059 v -0.05801 l 0.029,-0.058 0.029,-0.08801 0.059,-0.115998 0.029,-0.059 0.029,-0.059 0.058,-0.116005 v -0.088 l 0.029,-0.058 0.03,-0.058 0.029,-0.058 0.029,-0.059 0.03,-0.05801 0.028,-0.058 0.03,-0.088 0.029,-0.058 0.029,-0.05801 v -0.059 l 0.03,-0.05899 0.028,-0.058 0.03,-0.058 0.029,-0.08801 0.029,-0.058 0.029,-0.058 0.029,-0.058 0.029,-0.059 v -0.05801 l 0.029,-0.058 0.03,-0.08801 0.029,-0.05799 0.029,-0.05801 0.058,-0.117996 0.029,-0.058 0.03,-0.05801 v -0.058 l 0.029,-0.088 0.029,-0.058 0.029,-0.058 0.029,-0.059 0.059,-0.116005 0.029,-0.059 0.029,-0.058 0.029,-0.05901 v -0.087 l 0.03,-0.05899 0.028,-0.058 0.03,-0.058 0.029,-0.05801 0.029,-0.058 0.03,-0.05901 0.028,-0.05899 0.03,-0.058 m -5.162998,12.687996 0.029,-0.088 0.029,-0.058 v -0.058 l 0.029,-0.088 0.029,-0.058 0.03,-0.058 0.029,-0.059 0.029,-0.08701 0.029,-0.059 0.029,-0.05801 0.029,-0.08799 v -0.05801 l 0.059,-0.115997 0.029,-0.08801 0.029,-0.05799 0.029,-0.05801 0.029,-0.059 0.03,-0.087 0.029,-0.059 0.029,-0.05801 v -0.088 l 0.03,-0.058 0.028,-0.058 0.03,-0.058 0.029,-0.088 0.029,-0.058 0.029,-0.059 0.029,-0.058 0.03,-0.087 v -0.05901 l 0.028,-0.05899 0.03,-0.058 0.029,-0.08701 0.029,-0.058 0.029,-0.059 0.029,-0.058 0.029,-0.087 0.03,-0.05901 v -0.059 l 0.029,-0.087 0.029,-0.058 0.029,-0.059 0.029,-0.058 0.03,-0.088 0.058,-0.116005 0.029,-0.058 0.029,-0.059 v -0.087 l 0.059,-0.117005 0.029,-0.058 0.029,-0.088 0.029,-0.058 0.03,-0.05801 0.028,-0.058 0.03,-0.088 v -0.058 l 0.029,-0.059 0.029,-0.05801 0.029,-0.088 0.029,-0.05801 0.059,-0.11599 0.029,-0.05901 0.029,-0.087 v -0.059 l 0.029,-0.058 0.029,-0.059 0.029,-0.087 0.03,-0.059 0.029,-0.058 0.029,-0.05801 0.029,-0.087 0.029,-0.059 0.029,-0.058 v -0.059 l 0.03,-0.05801 0.029,-0.088 0.058,-0.115997 0.029,-0.05801 0.03,-0.058 0.029,-0.088 0.029,-0.058 v -0.059 l 0.058,-0.116005 0.03,-0.08801 0.028,-0.05799 0.03,-0.058 0.029,-0.05901 0.029,-0.087 0.03,-0.059 v -0.058 l 0.028,-0.059 0.03,-0.058 0.029,-0.088" /><path
               id="path162"
               style="fill:none;stroke:#231f20;stroke-width:1;stroke-linecap:butt;stroke-linejoin:round;stroke-miterlimit:10;stroke-dasharray:3, 3, 3, 3, 3, 3;stroke-dashoffset:0;stroke-opacity:1"
               d="m 26.116001,99.469002 0.029,-0.05901 0.029,-0.08699 0.029,-0.059 0.03,-0.08701 0.029,-0.059 0.029,-0.05801 0.029,-0.08799 0.029,-0.05801 v -0.088 l 0.059,-0.116005 0.029,-0.088 0.029,-0.058 0.029,-0.058 0.029,-0.088 0.029,-0.05801 0.03,-0.058 v -0.088 l 0.029,-0.058 0.029,-0.087 0.03,-0.05901 0.028,-0.05899 0.03,-0.087 0.029,-0.058 0.029,-0.059 0.029,-0.08701 0.029,-0.05899 v -0.058 l 0.03,-0.08701 0.028,-0.058 0.03,-0.08801 0.029,-0.05799 0.029,-0.058 0.029,-0.088 0.029,-0.058 0.029,-0.059 v -0.087 l 0.03,-0.05801 0.029,-0.059 0.029,-0.087 0.029,-0.059 0.029,-0.05801 0.03,-0.088 0.029,-0.058 0.029,-0.058 v -0.08801 l 0.029,-0.058 0.029,-0.058 0.029,-0.088 0.029,-0.058 0.03,-0.05801 0.029,-0.088 0.029,-0.058 0.03,-0.059 0.028,-0.08701 v -0.059 l 0.03,-0.05801 0.029,-0.08799 0.029,-0.05801 0.029,-0.058 0.029,-0.088 0.03,-0.05801 0.029,-0.05799 0.029,-0.088 v -0.058 l 0.029,-0.058 0.029,-0.08801 0.029,-0.058 0.029,-0.059 0.03,-0.087 0.029,-0.059 0.029,-0.05801 0.029,-0.088 v -0.058 l 0.029,-0.058 0.029,-0.058 0.03,-0.088 0.029,-0.058 0.029,-0.058 0.029,-0.088 0.029,-0.05801 0.03,-0.059 0.029,-0.087 v -0.059 l 0.029,-0.05801 0.029,-0.088 0.059,-0.116005 0.028,-0.05799 0.03,-0.088 0.029,-0.058 0.029,-0.058 v -0.08801 l 0.029,-0.058 0.029,-0.059 0.03,-0.087 0.029,-0.059 0.029,-0.05801 0.029,-0.058 m -5.163,13.737998 0.029,-0.059 0.03,-0.087 0.029,-0.059 0.029,-0.058 0.029,-0.088 v -0.058 l 0.029,-0.088 0.029,-0.058 0.03,-0.088 0.029,-0.058 0.029,-0.087 0.029,-0.059 0.029,-0.087 0.029,-0.059 v -0.087 l 0.03,-0.058 0.029,-0.088 0.029,-0.058 0.03,-0.058 0.028,-0.088 0.03,-0.058 0.029,-0.088 0.029,-0.058 v -0.088 l 0.029,-0.058 0.029,-0.088 0.03,-0.058 0.028,-0.087 0.03,-0.058 0.029,-0.059 0.029,-0.087 0.029,-0.058 v -0.088 l 0.029,-0.058 0.029,-0.088 0.03,-0.058 0.029,-0.088 0.029,-0.058 0.029,-0.058 0.029,-0.088 0.03,-0.058 0.029,-0.088 v -0.058 l 0.029,-0.087 0.029,-0.059 0.029,-0.059 0.029,-0.087 0.029,-0.058 0.03,-0.087 0.029,-0.059 0.029,-0.087 v -0.059 l 0.03,-0.058 0.028,-0.088 0.03,-0.058 0.029,-0.088 0.029,-0.058 0.03,-0.088 0.028,-0.058 0.03,-0.058 v -0.088 l 0.029,-0.058 0.029,-0.088 0.029,-0.058 0.029,-0.087 0.029,-0.058 0.029,-0.059 0.03,-0.087 0.029,-0.058 0.029,-0.088 v -0.058 l 0.029,-0.059 0.029,-0.087 0.029,-0.058 0.03,-0.088 0.029,-0.058 0.029,-0.059 0.029,-0.087 0.029,-0.059 v -0.087 l 0.059,-0.11701 0.029,-0.088 0.029,-0.058 0.029,-0.087 0.03,-0.059 0.028,-0.058 0.03,-0.088 v -0.058 l 0.029,-0.087 0.029,-0.058 0.029,-0.05899 0.029,-0.087 0.03,-0.058 0.029,-0.088 0.029,-0.058 0.029,-0.059 0.029,-0.087 v -0.05801" /><path
               id="path164"
               style="fill:none;stroke:#231f20;stroke-width:1;stroke-linecap:butt;stroke-linejoin:round;stroke-miterlimit:10;stroke-dasharray:3, 3, 3, 3, 3, 3;stroke-dashoffset:0;stroke-opacity:1"
               d="m 20.983002,113.75999 0.029,-0.059 v -0.087 l 0.029,-0.087 0.029,-0.058 0.029,-0.088 0.029,-0.058 0.03,-0.088 0.029,-0.058 0.029,-0.088 0.029,-0.087 v -0.058 l 0.029,-0.088 0.029,-0.058 0.03,-0.088 0.029,-0.058 0.029,-0.088 0.03,-0.058 0.028,-0.088 0.03,-0.087 0.029,-0.058 v -0.088 l 0.029,-0.058 0.029,-0.088 0.029,-0.058 0.03,-0.088 0.028,-0.058 0.03,-0.088 0.029,-0.058 0.029,-0.088 v -0.087 l 0.029,-0.058 0.029,-0.088 0.029,-0.058 0.03,-0.088 0.029,-0.058 0.029,-0.088 0.029,-0.058 0.029,-0.087 v -0.059 l 0.03,-0.087 0.029,-0.059 0.029,-0.087 0.029,-0.058 0.058,-0.175 0.029,-0.059 0.03,-0.087 0.029,-0.059 v -0.087 l 0.029,-0.058 0.03,-0.087 0.028,-0.059 0.03,-0.087 0.029,-0.059 0.029,-0.087 0.03,-0.059 0.028,-0.087 v -0.059 l 0.03,-0.087 0.029,-0.059 0.029,-0.087 0.029,-0.058 0.029,-0.087 0.029,-0.059 0.029,-0.087 0.03,-0.059 v -0.087 l 0.029,-0.059 0.029,-0.087 0.029,-0.059 0.029,-0.087 0.029,-0.059 0.03,-0.087 0.029,-0.058 0.029,-0.087 0.029,-0.059 v -0.087 l 0.029,-0.059 0.03,-0.087 0.029,-0.059 0.029,-0.087 0.029,-0.059 0.029,-0.087 0.03,-0.059 0.028,-0.087 v -0.058 l 0.03,-0.087 0.029,-0.059 0.029,-0.087 0.029,-0.059 0.029,-0.087 0.03,-0.059 0.029,-0.087 0.029,-0.059 v -0.087 l 0.029,-0.059 0.029,-0.087 0.029,-0.058 0.029,-0.087 m -5.162001,14.845 0.029,-0.088 0.029,-0.058 0.029,-0.087 0.029,-0.088 0.03,-0.058 0.029,-0.088 0.029,-0.087 v -0.059 l 0.058,-0.17399 0.029,-0.058 0.03,-0.088 0.029,-0.058 0.029,-0.088 0.03,-0.087 0.028,-0.059 v -0.087 l 0.03,-0.088 0.029,-0.058 0.029,-0.088 0.029,-0.088 0.029,-0.058 0.03,-0.087 0.028,-0.087 0.03,-0.059 v -0.087 l 0.029,-0.059 0.029,-0.087 0.029,-0.088 0.029,-0.058 0.029,-0.087 0.03,-0.088 0.029,-0.058 0.029,-0.088 0.029,-0.088 v -0.058 l 0.029,-0.087 0.03,-0.058 0.029,-0.088 0.029,-0.088 0.029,-0.058 0.058,-0.175 0.029,-0.059 v -0.087 l 0.03,-0.058 0.029,-0.087 0.029,-0.088 0.03,-0.058 0.028,-0.088 0.03,-0.058 0.029,-0.088 0.029,-0.087 v -0.058 l 0.029,-0.088 0.029,-0.088 0.03,-0.058 0.028,-0.088 0.03,-0.058 0.029,-0.087 0.029,-0.088 0.029,-0.058 0.029,-0.088 v -0.058 l 0.029,-0.088 0.03,-0.087 0.029,-0.059 0.029,-0.087 0.029,-0.058 0.029,-0.087 0.03,-0.088 0.029,-0.058 v -0.088 l 0.029,-0.058 0.029,-0.088 0.029,-0.087 0.03,-0.058 0.029,-0.088 0.029,-0.058 0.029,-0.088 0.029,-0.058 v -0.088 l 0.03,-0.087 0.028,-0.058 0.03,-0.088 0.029,-0.058 0.029,-0.088 0.029,-0.088 0.029,-0.058 0.03,-0.088 0.029,-0.058 v -0.087 l 0.029,-0.059 0.058,-0.17401 0.029,-0.059 0.029,-0.087 0.03,-0.059 0.029,-0.087" /><path
               id="path166"
               style="fill:none;stroke:#231f20;stroke-width:1;stroke-linecap:butt;stroke-linejoin:round;stroke-miterlimit:10;stroke-dasharray:3, 3, 3, 3, 3, 3;stroke-dashoffset:0;stroke-opacity:1"
               d="m 15.82,129.13101 0.029,-0.088 0.029,-0.058 0.03,-0.087 v -0.088 l 0.029,-0.088 0.029,-0.058 0.058,-0.17499 0.029,-0.087 0.03,-0.058 0.029,-0.088 0.029,-0.088 0.03,-0.087 v -0.058 l 0.028,-0.088 0.059,-0.17502 0.029,-0.059 0.058,-0.17399 0.03,-0.059 0.028,-0.087 v -0.088 l 0.03,-0.087 0.029,-0.058 0.029,-0.088 0.058,-0.17499 0.029,-0.059 0.03,-0.087 0.029,-0.087 v -0.088 l 0.029,-0.058 0.029,-0.088 0.029,-0.087 0.03,-0.058 0.029,-0.088 0.029,-0.088 0.029,-0.087 0.029,-0.059 0.029,-0.087 v -0.087 l 0.029,-0.059 0.059,-0.17499 0.029,-0.087 0.03,-0.058 0.028,-0.088 0.03,-0.088 0.029,-0.058 v -0.088 l 0.029,-0.087 0.029,-0.087 0.029,-0.059 0.03,-0.087 0.028,-0.088 0.03,-0.058 0.029,-0.087 0.029,-0.088 v -0.058 l 0.029,-0.088 0.029,-0.088 0.029,-0.087 0.03,-0.059 0.029,-0.087 0.029,-0.087 0.029,-0.058 0.029,-0.088 0.03,-0.087 v -0.059 l 0.029,-0.087 0.029,-0.088 0.029,-0.058 0.029,-0.088 0.03,-0.088 0.029,-0.087 0.029,-0.058 0.029,-0.087 v -0.088 l 0.029,-0.058 0.03,-0.088 0.028,-0.087 0.03,-0.059 0.029,-0.087 0.029,-0.088 0.029,-0.058 0.029,-0.088 v -0.087 l 0.03,-0.059 0.029,-0.087 0.029,-0.087 0.029,-0.059 0.029,-0.087 0.029,-0.088 0.029,-0.058 0.059,-0.175 v -0.058 l 0.029,-0.088 m -4.288,13.18301 0.059,-0.174 0.029,-0.059 0.029,-0.087 v -0.088 l 0.029,-0.087 0.029,-0.088 0.029,-0.088 0.03,-0.058 0.029,-0.087 0.029,-0.087 0.03,-0.088 0.028,-0.088 v -0.058 l 0.03,-0.087 0.029,-0.088 0.029,-0.088 0.029,-0.087 0.029,-0.059 0.03,-0.087 0.028,-0.087 0.03,-0.088 0.029,-0.088 v -0.058 l 0.029,-0.087 0.029,-0.088 0.029,-0.087 0.029,-0.058 0.03,-0.088 0.029,-0.087 0.029,-0.088 0.029,-0.088 v -0.058 l 0.029,-0.088 0.088,-0.26201 0.029,-0.058 0.059,-0.17501 0.028,-0.088 v -0.058 l 0.03,-0.088 0.029,-0.087 0.029,-0.087 0.03,-0.088 0.028,-0.058 0.059,-0.175 0.029,-0.088 0.029,-0.058 v -0.088 l 0.029,-0.087 0.03,-0.088 0.028,-0.058 0.059,-0.175 0.029,-0.087 0.029,-0.088 0.029,-0.058 v -0.088 l 0.059,-0.17499 0.029,-0.059 0.058,-0.174" /></g></g></g></g></g></svg>