<?xml version="1.0" encoding="UTF-8" standalone="no"?>
<svg
   xmlns:dc="http://purl.org/dc/elements/1.1/"
   xmlns:cc="http://creativecommons.org/ns#"
   xmlns:rdf="http://www.w3.org/1999/02/22-rdf-syntax-ns#"
   xmlns:svg="http://www.w3.org/2000/svg"
   xmlns="http://www.w3.org/2000/svg"
   viewBox="0 0 233.33333 157.33333"
   height="157.33333"
   width="233.33333"
   xml:space="preserve"
   id="svg2"
   version="1.1"><metadata
     id="metadata8"><rdf:RDF><cc:Work
         rdf:about=""><dc:format>image/svg+xml</dc:format><dc:type
           rdf:resource="http://purl.org/dc/dcmitype/StillImage" /></cc:Work></rdf:RDF></metadata><defs
     id="defs6"><clipPath
       id="clipPath24"
       clipPathUnits="userSpaceOnUse"><path
         id="path22"
         d="M 0,0 H 175 V 118 H 0 Z" /></clipPath><clipPath
       id="clipPath40"
       clipPathUnits="userSpaceOnUse"><path
         id="path38"
         d="M 0,0 H 174.26401 V 117.86 H 0 Z" /></clipPath></defs><g
     transform="matrix(1.3333333,0,0,-1.3333333,0,157.33333)"
     id="g10"><g
       id="g12" /><g
       id="g14" /><g
       id="g16"><g
         id="g18"><g
           clip-path="url(#clipPath24)"
           id="g20"><g
             id="g26" /><g
             id="g28"><path
               id="path30"
               style="fill:none;stroke:#231f20;stroke-width:0.5;stroke-linecap:butt;stroke-linejoin:round;stroke-miterlimit:10;stroke-dasharray:none;stroke-opacity:1"
               d="m 53.955002,33 h 1.799 m -0.899998,0.900002 v -1.8" /><path
               id="path32"
               style="fill:#231f20;fill-opacity:1;fill-rule:nonzero;stroke:none"
               d="m 161.08601,33.513 c -0.82602,0.249001 -1.36401,0.479001 -2.02601,0.745003 v -2.522001 c 0.23601,0.112999 1.19999,0.496 2.02601,0.746 0.885,0.266999 1.687,0.450001 2.208,0.515 -0.521,0.066 -1.323,0.248001 -2.208,0.515998 z M 26.129002,33 H 159.90501 M 26.317001,106.80601 c -0.25,-0.82601 -0.479,-1.36401 -0.746,-2.027 H 28.093 c -0.111999,0.237 -0.495998,1.20099 -0.744999,2.027 -0.267,0.88398 -0.451,1.68699 -0.514999,2.207 -0.066,-0.52001 -0.249,-1.32302 -0.516001,-2.207 z M 26.83,0 v 105.62501" /></g><g
             id="g34"><g
               clip-path="url(#clipPath40)"
               id="g36"><path
                 id="path42"
                 style="fill:none;stroke:#231f20;stroke-width:1;stroke-linecap:butt;stroke-linejoin:miter;stroke-miterlimit:4;stroke-dasharray:none;stroke-opacity:1"
                 d="m 161.08601,33.513 c -0.82602,0.249001 -1.36401,0.479001 -2.02601,0.745003 v -2.522001 c 0.23601,0.112999 1.19999,0.496 2.02601,0.746 0.885,0.266999 1.687,0.450001 2.208,0.515 -0.521,0.066 -1.323,0.248001 -2.208,0.515998 z M 26.129002,33 H 159.90501 M 26.317001,106.80601 c -0.25,-0.82601 -0.479,-1.36401 -0.746,-2.027 H 28.093 c -0.111999,0.237 -0.495998,1.20099 -0.744999,2.027 -0.267,0.88398 -0.451,1.68699 -0.514999,2.207 -0.066,-0.52001 -0.249,-1.32302 -0.516001,-2.207 z M 26.83,0 v 105.62501" /><path
                 id="path44"
                 style="fill:none;stroke:#231f20;stroke-width:0.5;stroke-linecap:butt;stroke-linejoin:round;stroke-miterlimit:10;stroke-dasharray:none;stroke-opacity:1"
                 d="m 80.054001,68.650002 0.700004,-1.5 2.799996,-6.100003 0.700004,-1.549999 0.700997,-1.523998 0.700004,-1.550999 0.698998,-1.525001 0.699997,-1.550004 2.100006,-4.574996 2.099998,-4.5 0.700997,-1.475003 1.399002,-2.899997 0.699997,-1.425 0.700004,-1.400001 0.700997,-1.375 L 96.854004,33 l 0.701004,-1.299999 0.698997,-1.275 0.700997,-1.25 0.700004,-1.225002 0.698994,-1.174997 0.70101,-1.149001 0.69999,-1.125 0.7,-1.076 0.70001,-1.049999 1.4,-1.950001 0.69999,-0.899999 0.7,-0.875002 0.70001,-0.824999 0.69999,-0.75 0.70001,-0.725001 0.69999,-0.675999 0.7,-0.624002 L 110.18,14.5 110.88,14 111.57999,13.549999 112.28,13.175 l 0.7,-0.325001 0.7,-0.274998 0.7,-0.2 L 115.07999,12.25 115.78,12.175 h 0.7 l 0.7,0.100001 0.7,0.125 0.69999,0.225 0.70001,0.299999 0.7,0.375 0.7,0.45 0.7,0.55 0.69999,0.600001 L 122.78,15.6 l 0.7,0.8 0.7,0.85 0.7,0.975 0.69999,1.050002 L 126.28,20.4 l 0.7,1.25 0.7,1.325 0.69999,1.425 0.70001,1.525001 0.7,1.600001 0.7,1.724998 0.69999,1.825001 0.7,1.924999 0.70001,2.049999 0.7,2.125004 0.7,2.25 0.69999,2.374996 0.7,2.475003 0.70001,2.576 0.7,2.698997 0.7,2.825005 0.69999,2.924995 0.7,3.051003 0.70001,3.175003 0.7,3.299 0.7,3.424995 0.69999,3.550003 0.7,3.699997 0.70001,3.800003 0.7,3.926003 0.7,4.073997 0.701,4.224999 0.69899,4.326004 0.70001,4.473994 0.7,4.625 0.7,4.75 0.69999,4.90101 0.45,3.22399 M 26.129002,28.975002 26.83,33 l 0.699999,3.900002 0.699003,3.775001 0.699999,3.624996 0.700001,3.5 0.700998,3.400002 0.699001,3.249996 0.700001,3.151005 0.699999,3 0.700001,2.898998 0.700996,2.775002 0.700001,2.674995 L 35.229,71.5 l 0.700001,2.425003 0.700001,2.324997 0.700996,2.199997 0.700001,2.125008 0.699001,2 0.700001,1.874992 0.700001,1.800003 0.700996,1.675003 0.699005,1.599999 L 42.229004,91 l 0.699997,1.400002 0.700001,1.300003 0.700996,1.199997 L 45.029999,96 l 0.699005,1.025002 0.699997,0.924995 0.700001,0.850006 0.700996,0.749992 0.700001,0.675015 0.699005,0.57499 0.699997,0.525 0.700001,0.425 0.700996,0.35 0.699005,0.27501 0.700001,0.19999 0.699997,0.1 0.726002,0.075 0.699001,-0.024 0.699997,-0.101 0.700001,-0.15 0.701,-0.22501 0.699001,-0.27399 0.700001,-0.351 0.700001,-0.399 0.699997,-0.47601 0.701,-0.52499 0.700001,-0.575008 0.699001,-0.625 0.700001,-0.699997 0.699997,-0.725007 0.701,-0.799995 0.700004,-0.823997 0.698998,-0.875 0.699997,-0.926003 0.700004,-0.974998 0.700997,-1.025002 0.700004,-1.049995 0.698998,-1.075013 0.699997,-1.124992 0.700004,-1.175003 0.700997,-1.200005 0.700004,-1.22499 0.698998,-1.25 1.400001,-2.599999 0.700997,-1.350006 1.399002,-2.75 1.400001,-2.849998 1.401001,-2.900002 0.698998,-1.474998 0.699997,-1.5" /></g></g><g
             id="g46"><text
               id="text50"
               style="font-variant:normal;font-weight:normal;font-size:11.95500088px;font-family:CMMI12;-inkscape-font-specification:CMMI12;writing-mode:lr-tb;fill:#231f20;fill-opacity:1;fill-rule:nonzero;stroke:none"
               transform="matrix(1,0,0,-1,167.61601,28.514799)"><tspan
                 id="tspan48"
                 y="0"
                 x="0">x</tspan></text>
<text
               id="text54"
               style="font-variant:normal;font-weight:normal;font-size:11.95500088px;font-family:CMR12;-inkscape-font-specification:CMR12;writing-mode:lr-tb;fill:#231f20;fill-opacity:1;fill-rule:nonzero;stroke:none"
               transform="matrix(1,0,0,-1,79.039024,22.402208)"><tspan
                 id="tspan52"
                 y="0"
                 x="0 5.8459954 11.691991">100</tspan></text>
<text
               id="text58"
               style="font-variant:normal;font-weight:normal;font-size:11.95500088px;font-family:CMR12;-inkscape-font-specification:CMR12;writing-mode:lr-tb;fill:#231f20;fill-opacity:1;fill-rule:nonzero;stroke:none"
               transform="matrix(1,0,0,-1,130.16698,23.069298)"><tspan
                 id="tspan56"
                 y="0"
                 x="0 5.8459954 11.691991">150</tspan></text>
<text
               id="text62"
               style="font-variant:normal;font-weight:normal;font-size:11.95500088px;font-family:CMR12;-inkscape-font-specification:CMR12;writing-mode:lr-tb;fill:#231f20;fill-opacity:1;fill-rule:nonzero;stroke:none"
               transform="matrix(1,0,0,-1,48.294353,22.068665)"><tspan
                 id="tspan60"
                 y="0"
                 x="0 5.8459954">40</tspan></text>
<text
               id="text66"
               style="font-variant:normal;font-weight:normal;font-size:11.95500088px;font-family:CMR12;-inkscape-font-specification:CMR12;writing-mode:lr-tb;fill:#231f20;fill-opacity:1;fill-rule:nonzero;stroke:none"
               transform="matrix(1,0,0,-1,9.331904e-4,95.735382)"><tspan
                 id="tspan64"
                 y="0"
                 x="0 5.8459954 11.691991 17.537987">1056</tspan></text>
<text
               id="text70"
               style="font-variant:normal;font-weight:normal;font-size:11.95500088px;font-family:CMMI12;-inkscape-font-specification:CMMI12;writing-mode:lr-tb;fill:#231f20;fill-opacity:1;fill-rule:nonzero;stroke:none"
               transform="matrix(1,0,0,-1,31.617128,103.18095)"><tspan
                 id="tspan68"
                 y="0"
                 x="0">V</tspan></text>
</g></g></g></g></g></svg>