<?xml version="1.0" encoding="UTF-8" standalone="no"?>
<svg
   xmlns:dc="http://purl.org/dc/elements/1.1/"
   xmlns:cc="http://creativecommons.org/ns#"
   xmlns:rdf="http://www.w3.org/1999/02/22-rdf-syntax-ns#"
   xmlns:svg="http://www.w3.org/2000/svg"
   xmlns="http://www.w3.org/2000/svg"
   viewBox="0 0 489.33334 73.333336"
   height="73.333336"
   width="489.33334"
   xml:space="preserve"
   id="svg2"
   version="1.1"><metadata
     id="metadata8"><rdf:RDF><cc:Work
         rdf:about=""><dc:format>image/svg+xml</dc:format><dc:type
           rdf:resource="http://purl.org/dc/dcmitype/StillImage" /></cc:Work></rdf:RDF></metadata><defs
     id="defs6"><clipPath
       id="clipPath24"
       clipPathUnits="userSpaceOnUse"><path
         id="path22"
         d="M 0,0 H 367 V 55 H 0 Z" /></clipPath></defs><g
     transform="matrix(1.3333333,0,0,-1.3333333,0,73.333333)"
     id="g10"><g
       id="g12" /><g
       id="g14" /><g
       id="g16"><g
         id="g18"><g
           clip-path="url(#clipPath24)"
           id="g20"><g
             id="g26" /><g
             id="g28"><path
               id="path30"
               style="fill:none;stroke:#000000;stroke-width:1.20000005;stroke-linecap:butt;stroke-linejoin:miter;stroke-miterlimit:4;stroke-dasharray:none;stroke-opacity:1"
               d="M 51.552002,1.432 H 144.25201 V 39.231998 H 51.552002 Z" /><path
               id="path32"
               style="fill:#000000;fill-opacity:1;fill-rule:nonzero;stroke:none"
               d="M 14.052001,20.632002 H 51.252003" /><path
               id="path34"
               style="fill:#000000;fill-opacity:1;fill-rule:nonzero;stroke:none"
               d="m 35.052002,20.632002 -1.314999,2.160999 0.074,0.049 3.525001,-1.4 c 1.228001,-0.27 2.456002,-0.540001 3.685002,-0.809999 -1.229,-0.271002 -2.457001,-0.541 -3.685002,-0.811001 l -3.525001,-1.4 -0.074,0.037 1.314999,2.174002" /><path
               id="path36"
               style="fill:#000000;fill-opacity:1;fill-rule:nonzero;stroke:none"
               d="m 145.151,19.994001 h 37.20001" /><path
               id="path38"
               style="fill:#000000;fill-opacity:1;fill-rule:nonzero;stroke:none"
               d="m 166.151,19.994001 -1.31399,2.161999 0.074,0.049 3.52499,-1.4 c 1.228,-0.271 2.45601,-0.540998 3.684,-0.810999 -1.22799,-0.27 -2.456,-0.540001 -3.684,-0.811 l -3.52499,-1.4 -0.074,0.037 1.31399,2.174001" /><path
               id="path40"
               style="fill:none;stroke:#000000;stroke-width:1.20000005;stroke-linecap:butt;stroke-linejoin:miter;stroke-miterlimit:4;stroke-dasharray:none;stroke-opacity:1"
               d="m 184.15901,2.78 h 92.7 v 37.799998 h -92.7 z" /><path
               id="path42"
               style="fill:#000000;fill-opacity:1;fill-rule:nonzero;stroke:none"
               d="m 277.759,20.143002 h 37.19901" /><path
               id="path44"
               style="fill:#000000;fill-opacity:1;fill-rule:nonzero;stroke:none"
               d="m 298.759,20.143002 -1.315,2.160999 0.074,0.049 3.52499,-1.4 c 1.22803,-0.27 2.45602,-0.540001 3.68503,-0.809999 -1.22901,-0.271 -2.457,-0.541001 -3.68503,-0.811001 l -3.52499,-1.4 -0.074,0.037 1.315,2.174" /><text
               id="text48"
               style="font-variant:normal;font-weight:normal;font-size:11.95559978px;font-family:CMMI10;-inkscape-font-specification:CMMI10;writing-mode:lr-tb;fill:#000000;fill-opacity:1;fill-rule:nonzero;stroke:none"
               transform="matrix(1,0,0,-1,0.51800001,17.218399)"><tspan
                 id="tspan46"
                 y="0"
                 x="0">x</tspan></text>
<text
               id="text52"
               style="font-variant:normal;font-weight:normal;font-size:11.95559978px;font-family:CMMI10;-inkscape-font-specification:CMMI10;writing-mode:lr-tb;fill:#000000;fill-opacity:1;fill-rule:nonzero;stroke:none"
               transform="matrix(1,0,0,-1,226.71794,46.018242)"><tspan
                 id="tspan50"
                 y="0"
                 x="0">g</tspan></text>
<text
               id="text56"
               style="font-variant:normal;font-weight:normal;font-size:11.95559978px;font-family:CMMI10;-inkscape-font-specification:CMMI10;writing-mode:lr-tb;fill:#000000;fill-opacity:1;fill-rule:nonzero;stroke:none"
               transform="matrix(1,0,0,-1,89.918381,43.018581)"><tspan
                 id="tspan54"
                 y="0"
                 x="0">h</tspan></text>
<text
               id="text60"
               style="font-variant:normal;font-weight:normal;font-size:11.95559978px;font-family:CMR10;-inkscape-font-specification:CMR10;writing-mode:lr-tb;fill:#000000;fill-opacity:1;fill-rule:nonzero;stroke:none"
               transform="matrix(1,0,0,-1,318.84659,16.618227)"><tspan
                 id="tspan58"
                 y="0"
                 x="0 4.6507282">(3</tspan></text>
<text
               id="text64"
               style="font-variant:normal;font-weight:normal;font-size:11.95559978px;font-family:CMMI10;-inkscape-font-specification:CMMI10;writing-mode:lr-tb;fill:#000000;fill-opacity:1;fill-rule:nonzero;stroke:none"
               transform="matrix(1,0,0,-1,329.47391,16.618227)"><tspan
                 id="tspan62"
                 y="0"
                 x="0">x</tspan></text>
<text
               id="text68"
               style="font-variant:normal;font-weight:normal;font-size:11.95559978px;font-family:CMR10;-inkscape-font-specification:CMR10;writing-mode:lr-tb;fill:#000000;fill-opacity:1;fill-rule:nonzero;stroke:none"
               transform="matrix(1,0,0,-1,338.96188,16.618227)"><tspan
                 id="tspan66"
                 y="0"
                 x="0">+</tspan></text>
<text
               id="text72"
               style="font-variant:normal;font-weight:normal;font-size:11.95559978px;font-family:CMR10;-inkscape-font-specification:CMR10;writing-mode:lr-tb;fill:#000000;fill-opacity:1;fill-rule:nonzero;stroke:none"
               transform="matrix(1,0,0,-1,350.91986,16.618227)"><tspan
                 id="tspan70"
                 y="0"
                 x="0">5</tspan></text>
<text
               id="text76"
               style="font-variant:normal;font-weight:normal;font-size:11.95559978px;font-family:CMR10;-inkscape-font-specification:CMR10;writing-mode:lr-tb;fill:#000000;fill-opacity:1;fill-rule:nonzero;stroke:none"
               transform="matrix(1,0,0,-1,356.89767,16.618227)"><tspan
                 id="tspan74"
                 y="0"
                 x="0">)</tspan></text>
<text
               id="text80"
               style="font-variant:normal;font-weight:normal;font-size:8.36880016px;font-family:CMR7;-inkscape-font-specification:CMR7;writing-mode:lr-tb;fill:#000000;fill-opacity:1;fill-rule:nonzero;stroke:none"
               transform="matrix(1,0,0,-1,361.54428,21.555199)"><tspan
                 id="tspan78"
                 y="0"
                 x="0">2</tspan></text>
<text
               id="text84"
               style="font-variant:normal;font-weight:normal;font-size:11.95500088px;font-family:CMR12;-inkscape-font-specification:CMR12;writing-mode:lr-tb;fill:#000000;fill-opacity:1;fill-rule:nonzero;stroke:none"
               transform="matrix(1,0,0,-1,189.0376,17.707899)"><tspan
                 id="tspan82"
                 y="0"
                 x="0 4.6146302 10.795366 17.298887 23.156837 27.711693">square</tspan></text>
<text
               id="text88"
               style="font-variant:normal;font-weight:normal;font-size:11.95500088px;font-family:CMR12;-inkscape-font-specification:CMR12;writing-mode:lr-tb;fill:#000000;fill-opacity:1;fill-rule:nonzero;stroke:none"
               transform="matrix(1,0,0,-1,225.85303,17.707899)"><tspan
                 id="tspan86"
                 y="0"
                 x="0 4.5548553 11.058376">the</tspan></text>
<text
               id="text92"
               style="font-variant:normal;font-weight:normal;font-size:11.95500088px;font-family:CMR12;-inkscape-font-specification:CMR12;writing-mode:lr-tb;fill:#000000;fill-opacity:1;fill-rule:nonzero;stroke:none"
               transform="matrix(1,0,0,-1,246.01514,17.707899)"><tspan
                 id="tspan90"
                 y="0"
                 x="0 3.2517602 9.7552805 16.258801 22.762321">input</tspan></text>
<text
               id="text96"
               style="font-variant:normal;font-weight:normal;font-size:11.95500088px;font-family:CMR12;-inkscape-font-specification:CMR12;writing-mode:lr-tb;fill:#000000;fill-opacity:1;fill-rule:nonzero;stroke:none"
               transform="matrix(1,0,0,-1,58.03709,24.719507)"><tspan
                 id="tspan94"
                 y="0"
                 x="0 4.5548553 9.1097107 14.310136 20.813656 24.065416">treble</tspan></text>
<text
               id="text100"
               style="font-variant:normal;font-weight:normal;font-size:11.95500088px;font-family:CMR12;-inkscape-font-specification:CMR12;writing-mode:lr-tb;fill:#000000;fill-opacity:1;fill-rule:nonzero;stroke:none"
               transform="matrix(1,0,0,-1,91.205055,24.719507)"><tspan
                 id="tspan98"
                 y="0"
                 x="0 4.5548553 11.058376">the</tspan></text>
<text
               id="text104"
               style="font-variant:normal;font-weight:normal;font-size:11.95500088px;font-family:CMR12;-inkscape-font-specification:CMR12;writing-mode:lr-tb;fill:#000000;fill-opacity:1;fill-rule:nonzero;stroke:none"
               transform="matrix(1,0,0,-1,111.36716,24.719507)"><tspan
                 id="tspan102"
                 y="0"
                 x="0 3.2517602 9.7552805 16.258801 22.762321">input</tspan></text>
<text
               id="text108"
               style="font-variant:normal;font-weight:normal;font-size:11.95500088px;font-family:CMR12;-inkscape-font-specification:CMR12;writing-mode:lr-tb;fill:#000000;fill-opacity:1;fill-rule:nonzero;stroke:none"
               transform="matrix(1,0,0,-1,70.581474,13.219992)"><tspan
                 id="tspan106"
                 y="0"
                 x="0 5.8579507 12.361471">and</tspan></text>
<text
               id="text112"
               style="font-variant:normal;font-weight:normal;font-size:11.95500088px;font-family:CMR12;-inkscape-font-specification:CMR12;writing-mode:lr-tb;fill:#000000;fill-opacity:1;fill-rule:nonzero;stroke:none"
               transform="matrix(1,0,0,-1,93.348587,13.219992)"><tspan
                 id="tspan110"
                 y="0"
                 x="0 5.8579507 12.361471">add</tspan></text>
<text
               id="text116"
               style="font-variant:normal;font-weight:normal;font-size:11.95500088px;font-family:CMR12;-inkscape-font-specification:CMR12;writing-mode:lr-tb;fill:#000000;fill-opacity:1;fill-rule:nonzero;stroke:none"
               transform="matrix(1,0,0,-1,116.11688,13.219992)"><tspan
                 id="tspan114"
                 y="0"
                 x="0">5</tspan></text>
</g></g></g></g></g></svg>