<?xml version="1.0" encoding="UTF-8" standalone="no"?>
<svg
   xmlns:dc="http://purl.org/dc/elements/1.1/"
   xmlns:cc="http://creativecommons.org/ns#"
   xmlns:rdf="http://www.w3.org/1999/02/22-rdf-syntax-ns#"
   xmlns:svg="http://www.w3.org/2000/svg"
   xmlns="http://www.w3.org/2000/svg"
   viewBox="0 0 604 169.33333"
   height="169.33333"
   width="604"
   xml:space="preserve"
   id="svg2"
   version="1.1"><metadata
     id="metadata8"><rdf:RDF><cc:Work
         rdf:about=""><dc:format>image/svg+xml</dc:format><dc:type
           rdf:resource="http://purl.org/dc/dcmitype/StillImage" /></cc:Work></rdf:RDF></metadata><defs
     id="defs6"><clipPath
       id="clipPath24"
       clipPathUnits="userSpaceOnUse"><path
         id="path22"
         d="M 0,0 H 453 V 127 H 0 Z" /></clipPath></defs><g
     transform="matrix(1.3333333,0,0,-1.3333333,0,169.33333)"
     id="g10"><g
       id="g12" /><g
       id="g14" /><g
       id="g16"><g
         id="g18"><g
           clip-path="url(#clipPath24)"
           id="g20"><g
             id="g26" /><g
             id="g28"><path
               id="path30"
               style="fill:#e6e6e6;fill-opacity:1;fill-rule:nonzero;stroke:#000000;stroke-width:1;stroke-linecap:butt;stroke-linejoin:miter;stroke-miterlimit:4;stroke-dasharray:none;stroke-opacity:1"
               d="M 53.400002,67.731003 H 161.54999 V 111.83101 H 53.400002 Z" /><path
               id="path32"
               style="fill:none;stroke:#000000;stroke-width:1;stroke-linecap:butt;stroke-linejoin:miter;stroke-miterlimit:4;stroke-dasharray:none;stroke-opacity:1"
               d="M 9.6499996,90.129997 H 53.049999" /><path
               id="path34"
               style="fill:#000000;fill-opacity:1;fill-rule:nonzero;stroke:none"
               d="m 34.149998,90.129997 -1.532997,2.522011 0.086,0.05799 4.112999,-1.633995 c 1.431999,-0.315002 2.865002,-0.629997 4.298,-0.946007 -1.432998,-0.314995 -2.866001,-0.629997 -4.298,-0.944992 l -4.112999,-1.634002 -0.086,0.043 1.532997,2.535995" /><path
               id="path36"
               style="fill:none;stroke:#000000;stroke-width:1;stroke-linecap:butt;stroke-linejoin:miter;stroke-miterlimit:4;stroke-dasharray:none;stroke-opacity:1"
               d="M 162.60001,89.387001 H 206" /><path
               id="path38"
               style="fill:#000000;fill-opacity:1;fill-rule:nonzero;stroke:none"
               d="m 187.10001,89.387001 -1.534,2.522003 0.086,0.057 4.113,-1.634002 c 1.433,-0.314995 2.866,-0.629998 4.299,-0.945 -1.433,-0.315994 -2.866,-0.630997 -4.299,-0.945999 l -4.113,-1.633995 -0.086,0.044 1.534,2.535995" /><path
               id="path40"
               style="fill:#e6e6e6;fill-opacity:1;fill-rule:nonzero;stroke:#000000;stroke-width:1;stroke-linecap:butt;stroke-linejoin:miter;stroke-miterlimit:4;stroke-dasharray:none;stroke-opacity:1"
               d="M 53.081001,0.94400007 H 161.23099 V 45.044003 H 53.081001 Z" /><path
               id="path42"
               style="fill:none;stroke:#000000;stroke-width:1;stroke-linecap:butt;stroke-linejoin:miter;stroke-miterlimit:4;stroke-dasharray:none;stroke-opacity:1"
               d="M 9.3320007,23.344002 H 52.731003" /><path
               id="path44"
               style="fill:#000000;fill-opacity:1;fill-rule:nonzero;stroke:none"
               d="m 33.831001,23.344002 -1.533001,2.521999 0.086,0.057 4.112999,-1.633999 c 1.432998,-0.315 2.865001,-0.630001 4.298,-0.944999 -1.432999,-0.316 -2.865002,-0.631001 -4.298,-0.946001 L 32.384,20.764003 l -0.086,0.043 1.533001,2.537001" /><path
               id="path46"
               style="fill:none;stroke:#000000;stroke-width:1;stroke-linecap:butt;stroke-linejoin:miter;stroke-miterlimit:4;stroke-dasharray:none;stroke-opacity:1"
               d="m 162.28101,22.6 h 43.40001" /><path
               id="path48"
               style="fill:#000000;fill-opacity:1;fill-rule:nonzero;stroke:none"
               d="m 186.78101,22.6 -1.53299,2.522002 0.086,0.057 4.112,-1.633 c 1.433,-0.316001 2.866,-0.631 4.299,-0.946001 -1.433,-0.314998 -2.866,-0.630998 -4.299,-0.945999 l -4.112,-1.632999 -0.086,0.043 1.53299,2.535999" /><path
               id="path50"
               style="fill:none;stroke:#000000;stroke-width:1;stroke-linecap:butt;stroke-linejoin:miter;stroke-miterlimit:4;stroke-dasharray:none;stroke-opacity:1"
               d="m 310.5,23.772001 c 15.90601,0 28.80002,16.117998 28.80002,36.000002 0,19.882004 -13.26901,35.875 -29.17502,35.875 -15.90598,0 -28.42499,-15.992996 -28.42499,-35.875 0,-19.882004 12.89401,-36.000002 28.79999,-36.000002 z m 111.37503,-0.125 c 15.90598,0 28.79999,16.118002 28.79999,36.000002 0,19.882004 -12.89401,36 -28.79999,36 -15.90601,0 -28.80002,-16.117996 -28.80002,-36 0,-19.882 12.89401,-36.000002 28.80002,-36.000002 z M 329.21503,66.5 h 72.79998" /><path
               id="path52"
               style="fill:#000000;fill-opacity:1;fill-rule:nonzero;stroke:none"
               d="m 402.52203,66.5 -1.40203,2.306 0.079,0.052 3.76,-1.492997 c 1.31,-0.289001 2.62,-0.577003 3.93,-0.865005 -1.31,-0.287994 -2.62,-0.576996 -3.93,-0.864998 l -3.76,-1.492996 -0.079,0.03899 1.40203,2.319" /><path
               id="path54"
               style="fill:none;stroke:#000000;stroke-width:1;stroke-linecap:butt;stroke-linejoin:miter;stroke-miterlimit:4;stroke-dasharray:none;stroke-opacity:1"
               d="m 331.58301,45.479004 h 72.80002" /><path
               id="path56"
               style="fill:#000000;fill-opacity:1;fill-rule:nonzero;stroke:none"
               d="m 403,45 -1.40198,2.306004 0.079,0.052 3.75998,-1.493 c 1.31,-0.288998 2.62,-0.577 3.92999,-0.865002 -1.30999,-0.287998 -2.61999,-0.577 -3.92999,-0.864998 l -3.75998,-1.493 -0.079,0.039 L 403,45" /><text
               id="text60"
               style="font-variant:normal;font-weight:normal;font-size:12px;font-family:Times;-inkscape-font-specification:Times-Roman;writing-mode:lr-tb;fill:#000000;fill-opacity:1;fill-rule:nonzero;stroke:none"
               transform="matrix(1,0,0,-1,321.20828,63.833298)"><tspan
                 id="tspan58"
                 y="0"
                 x="0">4</tspan></text>
<text
               id="text64"
               style="font-variant:normal;font-weight:normal;font-size:12px;font-family:Times;-inkscape-font-specification:Times-Roman;writing-mode:lr-tb;fill:#000000;fill-opacity:1;fill-rule:nonzero;stroke:none"
               transform="matrix(1,0,0,-1,413.66708,64.289299)"><tspan
                 id="tspan62"
                 y="0"
                 x="0 6">12</tspan></text>
<text
               id="text68"
               style="font-style:italic;font-variant:normal;font-size:12px;font-family:Times;-inkscape-font-specification:Times-Italic;writing-mode:lr-tb;fill:#000000;fill-opacity:1;fill-rule:nonzero;stroke:none"
               transform="matrix(1,0,0,-1,321.92947,40.8605)"><tspan
                 id="tspan66"
                 y="0"
                 x="0">x</tspan></text>
<text
               id="text72"
               style="font-variant:normal;font-weight:normal;font-size:12px;font-family:Times;-inkscape-font-specification:Times-Roman;writing-mode:lr-tb;fill:#000000;fill-opacity:1;fill-rule:nonzero;stroke:none"
               transform="matrix(1,0,0,-1,415.66748,40.541302)"><tspan
                 id="tspan70"
                 y="0"
                 x="0">3</tspan></text>
<text
               id="text76"
               style="font-style:italic;font-variant:normal;font-size:12px;font-family:Times;-inkscape-font-specification:Times-Italic;writing-mode:lr-tb;fill:#000000;fill-opacity:1;fill-rule:nonzero;stroke:none"
               transform="matrix(1,0,0,-1,421.66748,40.541302)"><tspan
                 id="tspan74"
                 y="0"
                 x="0">x</tspan></text>
<text
               id="text80"
               style="font-variant:normal;font-weight:normal;font-size:12px;font-family:Times;-inkscape-font-specification:Times-Roman;writing-mode:lr-tb;fill:#000000;fill-opacity:1;fill-rule:nonzero;stroke:none"
               transform="matrix(1,0,0,-1,1.0002899,85.750099)"><tspan
                 id="tspan78"
                 y="0"
                 x="0">4</tspan></text>
<text
               id="text84"
               style="font-variant:normal;font-weight:normal;font-size:12px;font-family:Times;-inkscape-font-specification:Times-Roman;writing-mode:lr-tb;fill:#000000;fill-opacity:1;fill-rule:nonzero;stroke:none"
               transform="matrix(1,0,0,-1,209.33348,85.831696)"><tspan
                 id="tspan82"
                 y="0"
                 x="0 6">12</tspan></text>
<text
               id="text88"
               style="font-style:italic;font-variant:normal;font-size:12px;font-family:Times;-inkscape-font-specification:Times-Italic;writing-mode:lr-tb;fill:#000000;fill-opacity:1;fill-rule:nonzero;stroke:none"
               transform="matrix(1,0,0,-1,0.75188446,20.7953)"><tspan
                 id="tspan86"
                 y="0"
                 x="0">x</tspan></text>
<text
               id="text92"
               style="font-variant:normal;font-weight:normal;font-size:12px;font-family:Times;-inkscape-font-specification:Times-Roman;writing-mode:lr-tb;fill:#000000;fill-opacity:1;fill-rule:nonzero;stroke:none"
               transform="matrix(1,0,0,-1,210.36427,18.101299)"><tspan
                 id="tspan90"
                 y="0"
                 x="0">3</tspan></text>
<text
               id="text96"
               style="font-style:italic;font-variant:normal;font-size:12px;font-family:Times;-inkscape-font-specification:Times-Italic;writing-mode:lr-tb;fill:#000000;fill-opacity:1;fill-rule:nonzero;stroke:none"
               transform="matrix(1,0,0,-1,216.36427,18.101299)"><tspan
                 id="tspan94"
                 y="0"
                 x="0">x</tspan></text>
<text
               id="text100"
               style="font-variant:normal;font-weight:normal;font-size:11.95500088px;font-family:CMR12;-inkscape-font-specification:CMR12;writing-mode:lr-tb;fill:#000000;fill-opacity:1;fill-rule:nonzero;stroke:none"
               transform="matrix(1,0,0,-1,286.7149,98.4459)"><tspan
                 id="tspan98"
                 y="0"
                 x="0 3.2517602 9.7552805 16.258801 22.762321">input</tspan></text>
<text
               id="text104"
               style="font-variant:normal;font-weight:normal;font-size:11.95500088px;font-family:CMR12;-inkscape-font-specification:CMR12;writing-mode:lr-tb;fill:#000000;fill-opacity:1;fill-rule:nonzero;stroke:none"
               transform="matrix(1,0,0,-1,418.21512,97.45842)"><tspan
                 id="tspan102"
                 y="0"
                 x="0 5.8579507 12.361471 16.916327 23.419847 29.923367">output</tspan></text>
<text
               id="text108"
               style="font-variant:normal;font-weight:normal;font-size:11.95500088px;font-family:CMR12;-inkscape-font-specification:CMR12;writing-mode:lr-tb;fill:#000000;fill-opacity:1;fill-rule:nonzero;stroke:none"
               transform="matrix(1,0,0,-1,64.746399,19.750914)"><tspan
                 id="tspan106"
                 y="0"
                 x="0">T</tspan></text>
<text
               id="text112"
               style="font-variant:normal;font-weight:normal;font-size:11.95500088px;font-family:CMR12;-inkscape-font-specification:CMR12;writing-mode:lr-tb;fill:#000000;fill-opacity:1;fill-rule:nonzero;stroke:none"
               transform="matrix(1,0,0,-1,72.223061,19.750914)"><tspan
                 id="tspan110"
                 y="0"
                 x="0 4.5548553 9.7552805 16.258801 19.510561">reble</tspan></text>
<text
               id="text116"
               style="font-variant:normal;font-weight:normal;font-size:11.95500088px;font-family:CMR12;-inkscape-font-specification:CMR12;writing-mode:lr-tb;fill:#000000;fill-opacity:1;fill-rule:nonzero;stroke:none"
               transform="matrix(1,0,0,-1,100.83735,19.750914)"><tspan
                 id="tspan114"
                 y="0"
                 x="0 4.5548553 11.058376">the</tspan></text>
<text
               id="text120"
               style="font-variant:normal;font-weight:normal;font-size:11.95500088px;font-family:CMR12;-inkscape-font-specification:CMR12;writing-mode:lr-tb;fill:#000000;fill-opacity:1;fill-rule:nonzero;stroke:none"
               transform="matrix(1,0,0,-1,120.99826,19.750914)"><tspan
                 id="tspan118"
                 y="0"
                 x="0 3.2517602 9.7552805 16.258801 22.762321">input</tspan></text>
<text
               id="text124"
               style="font-variant:normal;font-weight:normal;font-size:11.95500088px;font-family:CMR12;-inkscape-font-specification:CMR12;writing-mode:lr-tb;fill:#000000;fill-opacity:1;fill-rule:nonzero;stroke:none"
               transform="matrix(1,0,0,-1,64.715317,85.465164)"><tspan
                 id="tspan122"
                 y="0"
                 x="0">T</tspan></text>
<text
               id="text128"
               style="font-variant:normal;font-weight:normal;font-size:11.95500088px;font-family:CMR12;-inkscape-font-specification:CMR12;writing-mode:lr-tb;fill:#000000;fill-opacity:1;fill-rule:nonzero;stroke:none"
               transform="matrix(1,0,0,-1,72.191978,85.465164)"><tspan
                 id="tspan126"
                 y="0"
                 x="0 4.5548553 9.7552805 16.258801 19.510561">reble</tspan></text>
<text
               id="text132"
               style="font-variant:normal;font-weight:normal;font-size:11.95500088px;font-family:CMR12;-inkscape-font-specification:CMR12;writing-mode:lr-tb;fill:#000000;fill-opacity:1;fill-rule:nonzero;stroke:none"
               transform="matrix(1,0,0,-1,100.80627,85.465164)"><tspan
                 id="tspan130"
                 y="0"
                 x="0 4.5548553 11.058376">the</tspan></text>
<text
               id="text136"
               style="font-variant:normal;font-weight:normal;font-size:11.95500088px;font-family:CMR12;-inkscape-font-specification:CMR12;writing-mode:lr-tb;fill:#000000;fill-opacity:1;fill-rule:nonzero;stroke:none"
               transform="matrix(1,0,0,-1,120.96718,85.465164)"><tspan
                 id="tspan134"
                 y="0"
                 x="0 3.2517602 9.7552805 16.258801 22.762321">input</tspan></text>
<text
               id="text140"
               style="font-style:italic;font-variant:normal;font-size:11px;font-family:Times;-inkscape-font-specification:Times-Italic;writing-mode:lr-tb;fill:#000000;fill-opacity:1;fill-rule:nonzero;stroke:none"
               transform="matrix(1,0,0,-1,104,116.75)"><tspan
                 id="tspan138"
                 y="0"
                 x="0">f</tspan></text>
<text
               id="text144"
               style="font-style:italic;font-variant:normal;font-size:11px;font-family:Times;-inkscape-font-specification:Times-Italic;writing-mode:lr-tb;fill:#000000;fill-opacity:1;fill-rule:nonzero;stroke:none"
               transform="matrix(1,0,0,-1,102.0002,49.750099)"><tspan
                 id="tspan142"
                 y="0"
                 x="0">f</tspan></text>
<text
               id="text148"
               style="font-variant:normal;font-weight:normal;font-size:10.99985981px;font-family:CMR12;-inkscape-font-specification:CMR12;writing-mode:lr-tb;fill:#000000;fill-opacity:1;fill-rule:nonzero;stroke:none"
               transform="matrix(0.95381211,0.30040384,0.30040384,-0.95381211,327.5892,94.494797)"><tspan
                 id="tspan146"
                 y="0"
                 x="0">t</tspan></text>
<text
               id="text152"
               style="font-variant:normal;font-weight:normal;font-size:11.00003338px;font-family:CMR12;-inkscape-font-specification:CMR12;writing-mode:lr-tb;fill:#000000;fill-opacity:1;fill-rule:nonzero;stroke:none"
               transform="matrix(0.96759709,0.25249923,0.25249923,-0.96759709,331.4967,95.7257)"><tspan
                 id="tspan150"
                 y="0"
                 x="0">r</tspan></text>
<text
               id="text156"
               style="font-variant:normal;font-weight:normal;font-size:11.00028992px;font-family:CMR12;-inkscape-font-specification:CMR12;writing-mode:lr-tb;fill:#000000;fill-opacity:1;fill-rule:nonzero;stroke:none"
               transform="matrix(0.97857418,0.20589457,0.20589457,-0.97857418,335.4639,96.7686)"><tspan
                 id="tspan154"
                 y="0"
                 x="0">e</tspan></text>
<text
               id="text160"
               style="font-variant:normal;font-weight:normal;font-size:10.99967098px;font-family:CMR12;-inkscape-font-specification:CMR12;writing-mode:lr-tb;fill:#000000;fill-opacity:1;fill-rule:nonzero;stroke:none"
               transform="matrix(0.98792943,0.15490463,0.15490463,-0.98792943,340.04718,97.749298)"><tspan
                 id="tspan158"
                 y="0"
                 x="0">b</tspan></text>
<text
               id="text164"
               style="font-variant:normal;font-weight:normal;font-size:10.99953747px;font-family:CMR12;-inkscape-font-specification:CMR12;writing-mode:lr-tb;fill:#000000;fill-opacity:1;fill-rule:nonzero;stroke:none"
               transform="matrix(0.99334176,0.11520484,0.11520484,-0.99334176,345.88669,98.635002)"><tspan
                 id="tspan162"
                 y="0"
                 x="0">l</tspan></text>
<text
               id="text168"
               style="font-variant:normal;font-weight:normal;font-size:10.99991703px;font-family:CMR12;-inkscape-font-specification:CMR12;writing-mode:lr-tb;fill:#000000;fill-opacity:1;fill-rule:nonzero;stroke:none"
               transform="matrix(0.99660755,0.08230062,0.08230062,-0.99660755,348.79529,98.987801)"><tspan
                 id="tspan166"
                 y="0"
                 x="0">e</tspan></text>
<text
               id="text172"
               style="font-variant:normal;font-weight:normal;font-size:11.00039673px;font-family:CMR12;-inkscape-font-specification:CMR12;writing-mode:lr-tb;fill:#000000;fill-opacity:1;fill-rule:nonzero;stroke:none"
               transform="matrix(0.99986388,0.01649941,0.01649941,-0.99986388,357.11908,99.545296)"><tspan
                 id="tspan170"
                 y="0"
                 x="0">t</tspan></text>
<text
               id="text176"
               style="font-variant:normal;font-weight:normal;font-size:10.99976254px;font-family:CMR12;-inkscape-font-specification:CMR12;writing-mode:lr-tb;fill:#000000;fill-opacity:1;fill-rule:nonzero;stroke:none"
               transform="matrix(0.99972147,-0.02360051,-0.02360051,-0.99972147,361.26208,99.632698)"><tspan
                 id="tspan174"
                 y="0"
                 x="0">h</tspan></text>
<text
               id="text180"
               style="font-variant:normal;font-weight:normal;font-size:11.0004425px;font-family:CMR12;-inkscape-font-specification:CMR12;writing-mode:lr-tb;fill:#000000;fill-opacity:1;fill-rule:nonzero;stroke:none"
               transform="matrix(0.99775987,-0.06689731,-0.06689731,-0.99775987,367.17609,99.482399)"><tspan
                 id="tspan178"
                 y="0"
                 x="0">e</tspan></text>
<text
               id="text184"
               style="font-variant:normal;font-weight:normal;font-size:11.00042057px;font-family:CMR12;-inkscape-font-specification:CMR12;writing-mode:lr-tb;fill:#000000;fill-opacity:1;fill-rule:nonzero;stroke:none"
               transform="matrix(0.99146212,-0.13039502,-0.13039502,-0.99146212,375.43579,98.7911)"><tspan
                 id="tspan182"
                 y="0"
                 x="0">i</tspan></text>
<text
               id="text188"
               style="font-variant:normal;font-weight:normal;font-size:11.00050259px;font-family:CMR12;-inkscape-font-specification:CMR12;writing-mode:lr-tb;fill:#000000;fill-opacity:1;fill-rule:nonzero;stroke:none"
               transform="matrix(0.98525502,-0.17109219,-0.17109219,-0.98525502,378.33902,98.442795)"><tspan
                 id="tspan186"
                 y="0"
                 x="0">n</tspan></text>
<text
               id="text192"
               style="font-variant:normal;font-weight:normal;font-size:11.00016022px;font-family:CMR12;-inkscape-font-specification:CMR12;writing-mode:lr-tb;fill:#000000;fill-opacity:1;fill-rule:nonzero;stroke:none"
               transform="matrix(0.97328586,-0.22959667,-0.22959667,-0.97328586,384.09558,97.450897)"><tspan
                 id="tspan190"
                 y="0"
                 x="0">p</tspan></text>
<text
               id="text196"
               style="font-variant:normal;font-weight:normal;font-size:10.99955082px;font-family:CMR12;-inkscape-font-specification:CMR12;writing-mode:lr-tb;fill:#000000;fill-opacity:1;fill-rule:nonzero;stroke:none"
               transform="matrix(0.95533901,-0.29551207,-0.29551207,-0.95533901,389.75479,96.127594)"><tspan
                 id="tspan194"
                 y="0"
                 x="0">u</tspan></text>
<text
               id="text200"
               style="font-variant:normal;font-weight:normal;font-size:11.00002098px;font-family:CMR12;-inkscape-font-specification:CMR12;writing-mode:lr-tb;fill:#000000;fill-opacity:1;fill-rule:nonzero;stroke:none"
               transform="matrix(0.93279813,-0.36039929,-0.36039929,-0.93279813,395.31848,94.385597)"><tspan
                 id="tspan198"
                 y="0"
                 x="0">t</tspan></text>
<path
               id="path202"
               style="fill:none;stroke:#000000;stroke-width:0.5;stroke-linecap:butt;stroke-linejoin:miter;stroke-miterlimit:4;stroke-dasharray:none;stroke-opacity:1"
               d="m 405.15402,87.942001 c -10.14001,5.007004 -25.906,8.225006 -43.612,8.225006 -13.88101,0 -26.57,-1.978004 -36.29001,-5.245002" /><path
               id="path204"
               style="fill:#000000;fill-opacity:1;fill-rule:nonzero;stroke:none"
               d="m 399.55701,90.072006 -0.50199,2.478997 0.086,0.021 2.84,-2.514 c 1.06299,-0.671005 2.12701,-1.342003 3.19,-2.014 -1.24701,0.162995 -2.49399,0.325989 -3.74103,0.489998 l -3.79098,-0.120003 -0.056,0.06001 1.974,1.597999" /><text
               id="text208"
               style="font-style:italic;font-variant:normal;font-size:11px;font-family:Times;-inkscape-font-specification:Times-Italic;writing-mode:lr-tb;fill:#000000;fill-opacity:1;fill-rule:nonzero;stroke:none"
               transform="matrix(1,0,0,-1,361,114)"><tspan
                 id="tspan206"
                 y="0"
                 x="0">f</tspan></text>
</g></g></g></g></g></svg>