<?xml version="1.0" encoding="UTF-8" standalone="no"?>
<svg
   xmlns:dc="http://purl.org/dc/elements/1.1/"
   xmlns:cc="http://creativecommons.org/ns#"
   xmlns:rdf="http://www.w3.org/1999/02/22-rdf-syntax-ns#"
   xmlns:svg="http://www.w3.org/2000/svg"
   xmlns="http://www.w3.org/2000/svg"
   viewBox="0 0 634.36133 118.16267"
   height="118.16267"
   width="634.36133"
   xml:space="preserve"
   id="svg2"
   version="1.1"><metadata
     id="metadata8"><rdf:RDF><cc:Work
         rdf:about=""><dc:format>image/svg+xml</dc:format><dc:type
           rdf:resource="http://purl.org/dc/dcmitype/StillImage" /></cc:Work></rdf:RDF></metadata><defs
     id="defs6" /><g
     transform="matrix(1.3333333,0,0,-1.3333333,0,118.16267)"
     id="g10"><path
       id="path12"
       style="fill:#e6e7e8;fill-opacity:1;fill-rule:nonzero;stroke:none"
       d="M 62.061,14.001 H 191.84 V 66.92 H 62.061 Z" /><path
       id="path14"
       style="fill:none;stroke:#231f20;stroke-width:1.20000005;stroke-linecap:butt;stroke-linejoin:miter;stroke-miterlimit:4;stroke-dasharray:none;stroke-opacity:1"
       d="M 62.061,14.001 H 191.84 V 66.92 H 62.061 Z m 129.779,0 z" /><path
       id="path16"
       style="fill:#ffffff;fill-opacity:1;fill-rule:nonzero;stroke:none"
       d="m 18.125,41.06 h 43.4" /><path
       id="path18"
       style="fill:none;stroke:#231f20;stroke-width:1;stroke-linecap:butt;stroke-linejoin:miter;stroke-miterlimit:4;stroke-dasharray:none;stroke-opacity:1"
       d="m 18.125,41.06 h 43.4" /><path
       id="path20"
       style="fill:#231f20;fill-opacity:1;fill-rule:nonzero;stroke:none"
       d="m 42.626,41.06 -1.534,2.522 0.086,0.057 4.113,-1.633 c 1.433,-0.316 2.865,-0.631 4.298,-0.946 -1.433,-0.315 -2.865,-0.63 -4.298,-0.946 l -4.113,-1.633 -0.086,0.043 1.534,2.536" /><path
       id="path22"
       style="fill:none;stroke:#231f20;stroke-width:1;stroke-linecap:butt;stroke-linejoin:miter;stroke-miterlimit:4;stroke-dasharray:none;stroke-opacity:1"
       d="m 192.491,40.092 h 43.4" /><path
       id="path24"
       style="fill:#231f20;fill-opacity:1;fill-rule:nonzero;stroke:none"
       d="m 214.991,40.029 -1.533,2.522 0.086,0.057 4.112,-1.633 c 1.433,-0.315 2.866,-0.63 4.299,-0.946 -1.433,-0.315 -2.866,-0.63 -4.299,-0.946 l -4.112,-1.633 -0.086,0.043 1.533,2.536" /><path
       id="path26"
       style="fill:none;stroke:#231f20;stroke-width:1;stroke-linecap:butt;stroke-linejoin:miter;stroke-miterlimit:4;stroke-dasharray:none;stroke-opacity:1"
       d="m 329.471,1 c 15.905,0 28.8,16.118 28.8,36 0,19.882 -12.895,36 -28.8,36 -15.906,0 -28.801,-16.118 -28.801,-36 0,-19.882 12.895,-36 28.801,-36 z m 117,-0.5 c 15.905,0 28.8,16.118 28.8,36 0,19.882 -12.895,36 -28.8,36 -15.906,0 -28.801,-16.118 -28.801,-36 0,-19.882 12.895,-36 28.801,-36 z" /><path
       id="path28"
       style="fill:none;stroke:#231f20;stroke-width:1.44000006;stroke-linecap:butt;stroke-linejoin:miter;stroke-miterlimit:4;stroke-dasharray:none;stroke-opacity:1"
       d="m 346.479,44.104 h 87.359" /><path
       id="path30"
       style="fill:#231f20;fill-opacity:1;fill-rule:nonzero;stroke:none"
       d="m 432.247,44.104 -1.752,2.882 0.098,0.065 4.7,-1.866 c 1.638,-0.361 3.275,-0.721 4.913,-1.081 -1.638,-0.361 -3.275,-0.721 -4.913,-1.081 l -4.7,-1.867 -0.098,0.049 1.752,2.899" /><text
       id="text50"
       style="font-variant:normal;font-weight:normal;font-size:11.95499992px;font-family:CMR12;-inkscape-font-specification:CMR12;writing-mode:lr-tb;fill:#231f20;fill-opacity:1;fill-rule:nonzero;stroke:none"
       transform="matrix(1,0,0,-1,88.9292,49.0493)"><tspan
         id="tspan32"
         y="0"
         x="0 9.7552795 14.36991 21.200996 26.401423 31.601847 34.841652 38.416199 41.656002 50.466839 55.009735 61.501301 64.741104">aspecificrule</tspan><tspan
         id="tspan34"
         y="10.999796"
         x="-16.121317 -7.6691327 -1.1775675 2.0622375 6.9661784 17.370615 21.913515 26.456415 32.30241 38.793976 43.408604 46.98315 52.829144 57.372044 67.115372 75.70623 80.24913 86.7407">whichtransformsthe</tspan><tspan
         id="tspan36"
         y="23.000225"
         x="-16.134468 -12.894663 -6.4030981 0.088467002 6.5800319 15.081232 18.321037 24.511337 29.054237 38.81908 43.36198 49.853546 58.978798 64.824791 71.31636 75.859261 82.350822 88.842384">inputintotheoutput</tspan><tspan
         id="tspan38"
         y="-29.512114"
         x="225.99971 229.23952 235.73108 242.22264 248.71422">input</tspan><tspan
         id="tspan40"
         y="-25.024206"
         x="342.00027 347.84625 354.33783 358.88074 365.37228 371.86386">output</tspan><tspan
         id="tspan42"
         y="-0.53677952"
         x="278.00037 281.57492 288.0665 294.55804 299.75848 304.30136 307.54117 313.38718">function</tspan><tspan
         id="tspan44"
         y="-23.269213"
         x="14.754861 18.329407 24.820971 31.312536 36.512962 41.055862 44.295666 50.141663">function</tspan><tspan
         id="tspan46"
         y="4.7305937"
         x="-88.928467 -85.68866 -79.19709 -72.705528 -66.213966">input</tspan><tspan
         id="tspan48"
         y="3.72996"
         x="133.49072 139.33672 145.82829 150.37119 156.86275 163.35431">output</tspan></text>
</g></svg>