<?xml version="1.0" encoding="UTF-8" standalone="no"?>
<svg
   xmlns:dc="http://purl.org/dc/elements/1.1/"
   xmlns:cc="http://creativecommons.org/ns#"
   xmlns:rdf="http://www.w3.org/1999/02/22-rdf-syntax-ns#"
   xmlns:svg="http://www.w3.org/2000/svg"
   xmlns="http://www.w3.org/2000/svg"
   viewBox="0 0 470.66666 74.666664"
   height="74.666664"
   width="470.66666"
   xml:space="preserve"
   id="svg2"
   version="1.1"><metadata
     id="metadata8"><rdf:RDF><cc:Work
         rdf:about=""><dc:format>image/svg+xml</dc:format><dc:type
           rdf:resource="http://purl.org/dc/dcmitype/StillImage" /></cc:Work></rdf:RDF></metadata><defs
     id="defs6"><clipPath
       id="clipPath24"
       clipPathUnits="userSpaceOnUse"><path
         id="path22"
         d="M 0,0 H 353 V 56 H 0 Z" /></clipPath></defs><g
     transform="matrix(1.3333333,0,0,-1.3333333,0,74.666667)"
     id="g10"><g
       id="g12" /><g
       id="g14" /><g
       id="g16"><g
         id="g18"><g
           clip-path="url(#clipPath24)"
           id="g20"><g
             id="g26" /><g
             id="g28"><path
               id="path30"
               style="fill:none;stroke:#000000;stroke-width:1.20000005;stroke-linecap:butt;stroke-linejoin:miter;stroke-miterlimit:4;stroke-dasharray:none;stroke-opacity:1"
               d="M 49.389999,1.3820001 H 142.09 V 39.181999 H 49.389999 Z" /><path
               id="path32"
               style="fill:#000000;fill-opacity:1;fill-rule:nonzero;stroke:none"
               d="M 11.889999,20.582001 H 49.09" /><path
               id="path34"
               style="fill:#000000;fill-opacity:1;fill-rule:nonzero;stroke:none"
               d="m 32.889999,20.582001 -1.314998,2.161001 0.074,0.049 L 35.174,21.392 c 1.228,-0.269998 2.457001,-0.539999 3.685001,-0.809999 C 37.631001,20.311001 36.402,20.041 35.174,19.771002 L 31.649002,18.371 l -0.074,0.037 1.314998,2.174" /><path
               id="path36"
               style="fill:#000000;fill-opacity:1;fill-rule:nonzero;stroke:none"
               d="m 142.98901,19.944 h 37.2" /><path
               id="path38"
               style="fill:#000000;fill-opacity:1;fill-rule:nonzero;stroke:none"
               d="m 163.98901,19.944 -1.31401,2.162001 0.074,0.049 3.52499,-1.4 c 1.22801,-0.271 2.456,-0.541 3.68401,-0.811001 -1.22801,-0.269998 -2.456,-0.539999 -3.68401,-0.810999 l -3.52499,-1.399999 -0.074,0.037 1.31401,2.174" /><path
               id="path40"
               style="fill:none;stroke:#000000;stroke-width:1.20000005;stroke-linecap:butt;stroke-linejoin:miter;stroke-miterlimit:4;stroke-dasharray:none;stroke-opacity:1"
               d="m 181.99701,1.53 h 92.70001 v 37.799998 h -92.70001 z" /><path
               id="path42"
               style="fill:#000000;fill-opacity:1;fill-rule:nonzero;stroke:none"
               d="m 275.59702,20.093 h 37.20001" /><path
               id="path44"
               style="fill:#000000;fill-opacity:1;fill-rule:nonzero;stroke:none"
               d="m 296.59601,20.093 -1.314,2.161002 0.074,0.049 3.52499,-1.399999 c 1.228,-0.270001 2.456,-0.540001 3.68399,-0.810002 -1.22799,-0.270999 -2.45599,-0.541 -3.68399,-0.810999 l -3.52499,-1.400001 -0.074,0.037 1.314,2.173999" /><text
               id="text48"
               style="font-variant:normal;font-weight:normal;font-size:11.95559978px;font-family:CMMI10;-inkscape-font-specification:CMMI10;writing-mode:lr-tb;fill:#000000;fill-opacity:1;fill-rule:nonzero;stroke:none"
               transform="matrix(1,0,0,-1,0.156,17.1684)"><tspan
                 id="tspan46"
                 y="0"
                 x="0">x</tspan></text>
<text
               id="text52"
               style="font-variant:normal;font-weight:normal;font-size:11.95559978px;font-family:CMMI10;-inkscape-font-specification:CMMI10;writing-mode:lr-tb;fill:#000000;fill-opacity:1;fill-rule:nonzero;stroke:none"
               transform="matrix(1,0,0,-1,93.755196,46.568417)"><tspan
                 id="tspan50"
                 y="0"
                 x="0">g</tspan></text>
<text
               id="text56"
               style="font-variant:normal;font-weight:normal;font-size:11.95559978px;font-family:CMMI10;-inkscape-font-specification:CMMI10;writing-mode:lr-tb;fill:#000000;fill-opacity:1;fill-rule:nonzero;stroke:none"
               transform="matrix(1,0,0,-1,156.52209,23.631599)"><tspan
                 id="tspan54"
                 y="0"
                 x="0">x</tspan></text>
<text
               id="text60"
               style="font-variant:normal;font-weight:normal;font-size:8.36880016px;font-family:CMR7;-inkscape-font-specification:CMR7;writing-mode:lr-tb;fill:#000000;fill-opacity:1;fill-rule:nonzero;stroke:none"
               transform="matrix(1,0,0,-1,163.35559,28.568298)"><tspan
                 id="tspan58"
                 y="0"
                 x="0">2</tspan></text>
<text
               id="text64"
               style="font-variant:normal;font-weight:normal;font-size:11.95559978px;font-family:CMMI10;-inkscape-font-specification:CMMI10;writing-mode:lr-tb;fill:#000000;fill-opacity:1;fill-rule:nonzero;stroke:none"
               transform="matrix(1,0,0,-1,222.7554,44.768299)"><tspan
                 id="tspan62"
                 y="0"
                 x="0">h</tspan></text>
<text
               id="text68"
               style="font-variant:normal;font-weight:normal;font-size:11.95559978px;font-family:CMR10;-inkscape-font-specification:CMR10;writing-mode:lr-tb;fill:#000000;fill-opacity:1;fill-rule:nonzero;stroke:none"
               transform="matrix(1,0,0,-1,313.52591,16.568624)"><tspan
                 id="tspan66"
                 y="0"
                 x="0">3</tspan></text>
<text
               id="text72"
               style="font-variant:normal;font-weight:normal;font-size:11.95559978px;font-family:CMMI10;-inkscape-font-specification:CMMI10;writing-mode:lr-tb;fill:#000000;fill-opacity:1;fill-rule:nonzero;stroke:none"
               transform="matrix(1,0,0,-1,319.5025,16.568624)"><tspan
                 id="tspan70"
                 y="0"
                 x="0">x</tspan></text>
<text
               id="text76"
               style="font-variant:normal;font-weight:normal;font-size:8.36880016px;font-family:CMR7;-inkscape-font-specification:CMR7;writing-mode:lr-tb;fill:#000000;fill-opacity:1;fill-rule:nonzero;stroke:none"
               transform="matrix(1,0,0,-1,326.3356,21.505199)"><tspan
                 id="tspan74"
                 y="0"
                 x="0">2</tspan></text>
<text
               id="text80"
               style="font-variant:normal;font-weight:normal;font-size:11.95559978px;font-family:CMR10;-inkscape-font-specification:CMR10;writing-mode:lr-tb;fill:#000000;fill-opacity:1;fill-rule:nonzero;stroke:none"
               transform="matrix(1,0,0,-1,334.3551,16.568399)"><tspan
                 id="tspan78"
                 y="0"
                 x="0">+</tspan></text>
<text
               id="text84"
               style="font-variant:normal;font-weight:normal;font-size:11.95559978px;font-family:CMR10;-inkscape-font-specification:CMR10;writing-mode:lr-tb;fill:#000000;fill-opacity:1;fill-rule:nonzero;stroke:none"
               transform="matrix(1,0,0,-1,346.31308,16.568399)"><tspan
                 id="tspan82"
                 y="0"
                 x="0">5</tspan></text>
<text
               id="text88"
               style="font-variant:normal;font-weight:normal;font-size:11.95500088px;font-family:CMR12;-inkscape-font-specification:CMR12;writing-mode:lr-tb;fill:#000000;fill-opacity:1;fill-rule:nonzero;stroke:none"
               transform="matrix(1,0,0,-1,51.537598,17.707899)"><tspan
                 id="tspan86"
                 y="0"
                 x="0 4.6146302 10.795366 17.298887 23.156837 27.711693">square</tspan></text>
<text
               id="text92"
               style="font-variant:normal;font-weight:normal;font-size:11.95500088px;font-family:CMR12;-inkscape-font-specification:CMR12;writing-mode:lr-tb;fill:#000000;fill-opacity:1;fill-rule:nonzero;stroke:none"
               transform="matrix(1,0,0,-1,88.35302,17.707899)"><tspan
                 id="tspan90"
                 y="0"
                 x="0 4.5548553 11.058376">the</tspan></text>
<text
               id="text96"
               style="font-variant:normal;font-weight:normal;font-size:11.95500088px;font-family:CMR12;-inkscape-font-specification:CMR12;writing-mode:lr-tb;fill:#000000;fill-opacity:1;fill-rule:nonzero;stroke:none"
               transform="matrix(1,0,0,-1,108.51512,17.707899)"><tspan
                 id="tspan94"
                 y="0"
                 x="0 3.2517602 9.7552805 16.258801 22.762321">input</tspan></text>
<text
               id="text100"
               style="font-variant:normal;font-weight:normal;font-size:11.95500088px;font-family:CMR12;-inkscape-font-specification:CMR12;writing-mode:lr-tb;fill:#000000;fill-opacity:1;fill-rule:nonzero;stroke:none"
               transform="matrix(1,0,0,-1,189.03804,23.22035)"><tspan
                 id="tspan98"
                 y="0"
                 x="0 4.5548553 9.1097107 14.310136 20.813656 24.065416">treble</tspan></text>
<text
               id="text104"
               style="font-variant:normal;font-weight:normal;font-size:11.95500088px;font-family:CMR12;-inkscape-font-specification:CMR12;writing-mode:lr-tb;fill:#000000;fill-opacity:1;fill-rule:nonzero;stroke:none"
               transform="matrix(1,0,0,-1,222.20599,23.22035)"><tspan
                 id="tspan102"
                 y="0"
                 x="0 4.5548553 11.058376">the</tspan></text>
<text
               id="text108"
               style="font-variant:normal;font-weight:normal;font-size:11.95500088px;font-family:CMR12;-inkscape-font-specification:CMR12;writing-mode:lr-tb;fill:#000000;fill-opacity:1;fill-rule:nonzero;stroke:none"
               transform="matrix(1,0,0,-1,242.3681,23.22035)"><tspan
                 id="tspan106"
                 y="0"
                 x="0 3.2517602 9.7552805 16.258801 22.762321">input</tspan></text>
<text
               id="text112"
               style="font-variant:normal;font-weight:normal;font-size:11.95500088px;font-family:CMR12;-inkscape-font-specification:CMR12;writing-mode:lr-tb;fill:#000000;fill-opacity:1;fill-rule:nonzero;stroke:none"
               transform="matrix(1,0,0,-1,202.08214,10.720202)"><tspan
                 id="tspan110"
                 y="0"
                 x="0 5.8579507 12.361471">and</tspan></text>
<text
               id="text116"
               style="font-variant:normal;font-weight:normal;font-size:11.95500088px;font-family:CMR12;-inkscape-font-specification:CMR12;writing-mode:lr-tb;fill:#000000;fill-opacity:1;fill-rule:nonzero;stroke:none"
               transform="matrix(1,0,0,-1,224.84926,10.720202)"><tspan
                 id="tspan114"
                 y="0"
                 x="0 5.8579507 12.361471">add</tspan></text>
<text
               id="text120"
               style="font-variant:normal;font-weight:normal;font-size:11.95500088px;font-family:CMR12;-inkscape-font-specification:CMR12;writing-mode:lr-tb;fill:#000000;fill-opacity:1;fill-rule:nonzero;stroke:none"
               transform="matrix(1,0,0,-1,247.61757,10.720202)"><tspan
                 id="tspan118"
                 y="0"
                 x="0">5</tspan></text>
</g></g></g></g></g></svg>