<?xml version="1.0" encoding="UTF-8" standalone="no"?>
<svg
   xmlns:dc="http://purl.org/dc/elements/1.1/"
   xmlns:cc="http://creativecommons.org/ns#"
   xmlns:rdf="http://www.w3.org/1999/02/22-rdf-syntax-ns#"
   xmlns:svg="http://www.w3.org/2000/svg"
   xmlns="http://www.w3.org/2000/svg"
   viewBox="0 0 290.66666 158.66667"
   height="158.66667"
   width="290.66666"
   xml:space="preserve"
   id="svg2"
   version="1.1"><metadata
     id="metadata8"><rdf:RDF><cc:Work
         rdf:about=""><dc:format>image/svg+xml</dc:format><dc:type
           rdf:resource="http://purl.org/dc/dcmitype/StillImage" /></cc:Work></rdf:RDF></metadata><defs
     id="defs6"><clipPath
       id="clipPath24"
       clipPathUnits="userSpaceOnUse"><path
         id="path22"
         d="M 0,0 H 218 V 119 H 0 Z" /></clipPath></defs><g
     transform="matrix(1.3333333,0,0,-1.3333333,0,158.66667)"
     id="g10"><g
       id="g12" /><g
       id="g14" /><g
       id="g16"><g
         id="g18"><g
           clip-path="url(#clipPath24)"
           id="g20"><g
             id="g26" /><g
             id="g28"><path
               id="path30"
               style="fill:none;stroke:#000000;stroke-width:1.20000005;stroke-linecap:butt;stroke-linejoin:miter;stroke-miterlimit:4;stroke-dasharray:none;stroke-opacity:1"
               d="M 49.636002,67.156006 H 142.336 V 104.95601 H 49.636002 Z" /><path
               id="path32"
               style="fill:#000000;fill-opacity:1;fill-rule:nonzero;stroke:none"
               d="M 12.136001,86.356003 H 49.336002" /><path
               id="path34"
               style="fill:#000000;fill-opacity:1;fill-rule:nonzero;stroke:none"
               d="m 33.136002,86.356003 -1.315001,2.161003 0.074,0.049 3.524996,-1.400002 c 1.228005,-0.269996 2.457005,-0.539993 3.685005,-0.809997 -1.228,-0.269997 -2.457,-0.541001 -3.685005,-0.810997 l -3.524996,-1.400002 -0.074,0.037 1.315001,2.173996" /><path
               id="path36"
               style="fill:#000000;fill-opacity:1;fill-rule:nonzero;stroke:none"
               d="m 164.235,85.718002 -1.31399,2.161995 0.074,0.049 3.52498,-1.399994 c 1.22801,-0.270004 2.45602,-0.541 3.68402,-0.811005 -1.228,-0.269996 -2.45601,-0.540001 -3.68402,-0.809997 l -3.52498,-1.400002 -0.074,0.036 1.31399,2.173996" /><path
               id="path38"
               style="fill:#000000;fill-opacity:1;fill-rule:nonzero;stroke:none"
               d="M 10.525001,19.279001 H 47.725002" /><path
               id="path40"
               style="fill:none;stroke:#000000;stroke-width:1.20000005;stroke-linecap:butt;stroke-linejoin:miter;stroke-miterlimit:4;stroke-dasharray:none;stroke-opacity:1"
               d="M 49.533001,0.86500007 H 142.233 V 38.665001 H 49.533001 Z" /><path
               id="path42"
               style="fill:#000000;fill-opacity:1;fill-rule:nonzero;stroke:none"
               d="m 143.13301,19.427 h 37.2" /><path
               id="path44"
               style="fill:#000000;fill-opacity:1;fill-rule:nonzero;stroke:none"
               d="m 164.13301,19.427 -1.31401,2.162001 0.073,0.049 3.525,-1.399999 c 1.22799,-0.270001 2.45599,-0.541 3.685,-0.811001 -1.22901,-0.269999 -2.45701,-0.539999 -3.685,-0.809999 l -3.525,-1.400999 -0.073,0.037 1.31401,2.174" /><text
               id="text48"
               style="font-style:italic;font-variant:normal;font-size:13.19999981px;font-family:Times;-inkscape-font-specification:Times-Italic;writing-mode:lr-tb;fill:#000000;fill-opacity:1;fill-rule:nonzero;stroke:none"
               transform="matrix(1,0,0,-1,92.691597,43.503002)"><tspan
                 id="tspan46"
                 y="0"
                 x="0">h</tspan></text>
<path
               id="path50"
               style="fill:#000000;fill-opacity:1;fill-rule:nonzero;stroke:none"
               d="m 143.431,85.943001 h 37.20001" /><text
               id="text54"
               style="font-variant:normal;font-weight:normal;font-size:11.95559978px;font-family:CMMI10;-inkscape-font-specification:CMMI10;writing-mode:lr-tb;fill:#000000;fill-opacity:1;fill-rule:nonzero;stroke:none"
               transform="matrix(1,0,0,-1,1.0021,84.142601)"><tspan
                 id="tspan52"
                 y="0"
                 x="0">x</tspan></text>
<text
               id="text58"
               style="font-variant:normal;font-weight:normal;font-size:11.95559978px;font-family:CMMI10;-inkscape-font-specification:CMMI10;writing-mode:lr-tb;fill:#000000;fill-opacity:1;fill-rule:nonzero;stroke:none"
               transform="matrix(1,0,0,-1,91.601639,109.34261)"><tspan
                 id="tspan56"
                 y="0"
                 x="0">g</tspan></text>
<text
               id="text62"
               style="font-variant:normal;font-weight:normal;font-size:11.95559978px;font-family:CMMI10;-inkscape-font-specification:CMMI10;writing-mode:lr-tb;fill:#000000;fill-opacity:1;fill-rule:nonzero;stroke:none"
               transform="matrix(1,0,0,-1,184.60185,82.942261)"><tspan
                 id="tspan60"
                 y="0"
                 x="0">x</tspan></text>
<text
               id="text66"
               style="font-variant:normal;font-weight:normal;font-size:8.36880016px;font-family:CMR7;-inkscape-font-specification:CMR7;writing-mode:lr-tb;fill:#000000;fill-opacity:1;fill-rule:nonzero;stroke:none"
               transform="matrix(1,0,0,-1,191.2016,87.7425)"><tspan
                 id="tspan64"
                 y="0"
                 x="0">2</tspan></text>
<text
               id="text70"
               style="font-variant:normal;font-weight:normal;font-size:11.95559978px;font-family:CMR10;-inkscape-font-specification:CMR10;writing-mode:lr-tb;fill:#000000;fill-opacity:1;fill-rule:nonzero;stroke:none"
               transform="matrix(1,0,0,-1,184.18039,16.942699)"><tspan
                 id="tspan68"
                 y="0"
                 x="0">3</tspan></text>
<text
               id="text74"
               style="font-variant:normal;font-weight:normal;font-size:11.95559978px;font-family:CMMI10;-inkscape-font-specification:CMMI10;writing-mode:lr-tb;fill:#000000;fill-opacity:1;fill-rule:nonzero;stroke:none"
               transform="matrix(1,0,0,-1,190.15819,16.942699)"><tspan
                 id="tspan72"
                 y="0"
                 x="0">x</tspan></text>
<text
               id="text78"
               style="font-variant:normal;font-weight:normal;font-size:11.95559978px;font-family:CMR10;-inkscape-font-specification:CMR10;writing-mode:lr-tb;fill:#000000;fill-opacity:1;fill-rule:nonzero;stroke:none"
               transform="matrix(1,0,0,-1,199.64735,16.942699)"><tspan
                 id="tspan76"
                 y="0"
                 x="0">+</tspan></text>
<text
               id="text82"
               style="font-variant:normal;font-weight:normal;font-size:11.95559978px;font-family:CMR10;-inkscape-font-specification:CMR10;writing-mode:lr-tb;fill:#000000;fill-opacity:1;fill-rule:nonzero;stroke:none"
               transform="matrix(1,0,0,-1,211.60416,16.942699)"><tspan
                 id="tspan80"
                 y="0"
                 x="0">5</tspan></text>
<text
               id="text86"
               style="font-variant:normal;font-weight:normal;font-size:11.95559978px;font-family:CMMI10;-inkscape-font-specification:CMMI10;writing-mode:lr-tb;fill:#000000;fill-opacity:1;fill-rule:nonzero;stroke:none"
               transform="matrix(1,0,0,-1,0.40250683,15.142186)"><tspan
                 id="tspan84"
                 y="0"
                 x="0">x</tspan></text>
<text
               id="text90"
               style="font-variant:normal;font-weight:normal;font-size:11.95500088px;font-family:CMR12;-inkscape-font-specification:CMR12;writing-mode:lr-tb;fill:#000000;fill-opacity:1;fill-rule:nonzero;stroke:none"
               transform="matrix(1,0,0,-1,54.537598,83.707901)"><tspan
                 id="tspan88"
                 y="0"
                 x="0 4.6146302 10.795366 17.298887 23.156837 27.711693">square</tspan></text>
<text
               id="text94"
               style="font-variant:normal;font-weight:normal;font-size:11.95500088px;font-family:CMR12;-inkscape-font-specification:CMR12;writing-mode:lr-tb;fill:#000000;fill-opacity:1;fill-rule:nonzero;stroke:none"
               transform="matrix(1,0,0,-1,91.35302,83.707901)"><tspan
                 id="tspan92"
                 y="0"
                 x="0 4.5548553 11.058376">the</tspan></text>
<text
               id="text98"
               style="font-variant:normal;font-weight:normal;font-size:11.95500088px;font-family:CMR12;-inkscape-font-specification:CMR12;writing-mode:lr-tb;fill:#000000;fill-opacity:1;fill-rule:nonzero;stroke:none"
               transform="matrix(1,0,0,-1,111.51512,83.707901)"><tspan
                 id="tspan96"
                 y="0"
                 x="0 3.2517602 9.7552805 16.258801 22.762321">input</tspan></text>
<text
               id="text102"
               style="font-variant:normal;font-weight:normal;font-size:11.95500088px;font-family:CMR12;-inkscape-font-specification:CMR12;writing-mode:lr-tb;fill:#000000;fill-opacity:1;fill-rule:nonzero;stroke:none"
               transform="matrix(1,0,0,-1,57.037388,22.719463)"><tspan
                 id="tspan100"
                 y="0"
                 x="0 4.5548553 9.1097107 14.310136 20.813656 24.065416">treble</tspan></text>
<text
               id="text106"
               style="font-variant:normal;font-weight:normal;font-size:11.95500088px;font-family:CMR12;-inkscape-font-specification:CMR12;writing-mode:lr-tb;fill:#000000;fill-opacity:1;fill-rule:nonzero;stroke:none"
               transform="matrix(1,0,0,-1,90.205345,22.719463)"><tspan
                 id="tspan104"
                 y="0"
                 x="0 4.5548553 11.058376">the</tspan></text>
<text
               id="text110"
               style="font-variant:normal;font-weight:normal;font-size:11.95500088px;font-family:CMR12;-inkscape-font-specification:CMR12;writing-mode:lr-tb;fill:#000000;fill-opacity:1;fill-rule:nonzero;stroke:none"
               transform="matrix(1,0,0,-1,110.36745,22.719463)"><tspan
                 id="tspan108"
                 y="0"
                 x="0 3.2517602 9.7552805 16.258801 22.762321">input</tspan></text>
<text
               id="text114"
               style="font-variant:normal;font-weight:normal;font-size:11.95500088px;font-family:CMR12;-inkscape-font-specification:CMR12;writing-mode:lr-tb;fill:#000000;fill-opacity:1;fill-rule:nonzero;stroke:none"
               transform="matrix(1,0,0,-1,67.581696,11.219948)"><tspan
                 id="tspan112"
                 y="0"
                 x="0 5.8579507 12.361471">and</tspan></text>
<text
               id="text118"
               style="font-variant:normal;font-weight:normal;font-size:11.95500088px;font-family:CMR12;-inkscape-font-specification:CMR12;writing-mode:lr-tb;fill:#000000;fill-opacity:1;fill-rule:nonzero;stroke:none"
               transform="matrix(1,0,0,-1,90.348801,11.219948)"><tspan
                 id="tspan116"
                 y="0"
                 x="0 5.8579507 12.361471">add</tspan></text>
<text
               id="text122"
               style="font-variant:normal;font-weight:normal;font-size:11.95500088px;font-family:CMR12;-inkscape-font-specification:CMR12;writing-mode:lr-tb;fill:#000000;fill-opacity:1;fill-rule:nonzero;stroke:none"
               transform="matrix(1,0,0,-1,113.1171,11.219948)"><tspan
                 id="tspan120"
                 y="0"
                 x="0">5</tspan></text>
<path
               id="path124"
               style="fill:#000000;fill-opacity:1;fill-rule:nonzero;stroke:none"
               d="m 33.216003,19.189999 -1.315002,2.161003 0.074,0.049 L 35.5,20 c 1.228001,-0.27 2.456001,-0.540001 3.685001,-0.810001 C 37.956001,18.919001 36.728001,18.649 35.5,18.379002 L 31.975002,16.979 l -0.074,0.037 1.315002,2.173998" /></g></g></g></g></g></svg>