<?xml version="1.0" encoding="UTF-8" standalone="no"?>
<svg
   xmlns:dc="http://purl.org/dc/elements/1.1/"
   xmlns:cc="http://creativecommons.org/ns#"
   xmlns:rdf="http://www.w3.org/1999/02/22-rdf-syntax-ns#"
   xmlns:svg="http://www.w3.org/2000/svg"
   xmlns="http://www.w3.org/2000/svg"
   viewBox="0 0 401.33334 188"
   height="188"
   width="401.33334"
   xml:space="preserve"
   id="svg2"
   version="1.1"><metadata
     id="metadata8"><rdf:RDF><cc:Work
         rdf:about=""><dc:format>image/svg+xml</dc:format><dc:type
           rdf:resource="http://purl.org/dc/dcmitype/StillImage" /></cc:Work></rdf:RDF></metadata><defs
     id="defs6"><clipPath
       id="clipPath24"
       clipPathUnits="userSpaceOnUse"><path
         id="path22"
         d="M 0,0 H 301 V 141 H 0 Z" /></clipPath></defs><g
     transform="matrix(1.3333333,0,0,-1.3333333,0,188)"
     id="g10"><g
       id="g12" /><g
       id="g14" /><g
       id="g16"><g
         id="g18"><g
           clip-path="url(#clipPath24)"
           id="g20"><g
             id="g26" /><g
             id="g28"><path
               id="path30"
               style="fill:none;stroke:#000000;stroke-width:0.5;stroke-linecap:butt;stroke-linejoin:round;stroke-miterlimit:10;stroke-dasharray:none;stroke-opacity:1"
               d="M 8.8630009,22.417002 H 12.463 m -1.8,1.799999 v -3.6 m 42.851004,1.800001 h 3.598999 m 41.000004,0 h 3.600003 m 41.051,0 h 3.599 m 41.05099,0 h 3.60001 m 41,0 h 3.599 m 41.05099,0 h 3.60001 m -137.5,0 h 3.599" /><path
               id="path32"
               style="fill:none;stroke:#000000;stroke-width:1;stroke-linecap:butt;stroke-linejoin:round;stroke-miterlimit:10;stroke-dasharray:none;stroke-opacity:1"
               d="m 234.26401,33.617001 0.449,-0.25 0.45101,-0.200001 0.44899,-0.25 0.451,-0.199997 0.45,-0.200001 0.449,-0.200001 0.45101,-0.2 0.44899,-0.199 0.451,-0.201 0.45,-0.199999 0.40001,-0.200001 0.44999,-0.2 0.45,-0.15 0.45,-0.199999 0.44999,-0.150001 0.45002,-0.199 0.44999,-0.150999 0.45,-0.200001 0.89999,-0.299999 0.45002,-0.200001 0.44999,-0.149999 0.45,-0.15 0.45,-0.150001 0.399,-0.15 0.45,-0.15 0.451,-0.149999 0.44901,-0.15 0.44999,-0.1 0.45,-0.15 0.45,-0.150001 0.451,-0.1 0.44901,-0.150001 0.44999,-0.1 0.45,-0.150001 0.45,-0.1 0.451,-0.150001 0.399,-0.1 0.45101,-0.1 0.44899,-0.15 0.451,-0.1 0.45,-0.100001 0.449,-0.1 0.45101,-0.1 0.44899,-0.1 0.451,-0.1 0.45,-0.100001 0.449,-0.1 0.45099,-0.1 0.44901,-0.1 0.45102,-0.1 0.39999,-0.05 0.44998,-0.1 0.45001,-0.1 0.45002,-0.05 0.44998,-0.1 0.45001,-0.1 0.44998,-0.05 0.45001,-0.1 0.45002,-0.05 0.44998,-0.1 0.45001,-0.05 0.44998,-0.05 0.45001,-0.1 0.39899,-0.05 0.45001,-0.05 0.45001,-0.1 0.44999,-0.05 0.45102,-0.05 0.44897,-0.05 0.45001,-0.05 0.45001,-0.05 0.44999,-0.1 0.45102,-0.05 0.44897,-0.05 0.45001,-0.05 0.45001,-0.05 0.44999,-0.05 0.401,-0.05 h 0.449 l 0.45099,-0.05 0.44901,-0.05 0.45102,-0.05 0.44998,-0.05 0.449,-0.05 0.45099,-0.05 h 0.44901 l 0.45102,-0.05 0.44998,-0.05 0.449,-0.05 h 0.45099 l 0.44901,-0.05 0.401,-0.05 h 0.45001 l 0.44998,-0.05 0.45001,-0.05 h 0.45002 l 0.44998,-0.05 h 0.45001 m -88.35001,49.150005 0.39901,-0.5 0.44999,-0.550003 0.9,-1 0.451,-0.5 0.899,-1 0.45,-0.550003 0.45,-0.498993 0.90001,-1.001007 0.44999,-0.498993 0.45,-0.501007 0.401,-0.5 0.45,-0.498993 0.449,-0.501007 0.9,-0.998997 0.451,-0.451 0.45,-0.5 0.90001,-1 0.44899,-0.450001 0.901,-1 0.449,-0.450001 0.45101,-0.5 0.39999,-0.449997 0.45,-0.449001 0.44999,-0.500999 0.45002,-0.450001 0.44999,-0.450001 0.45,-0.450001 0.45,-0.5 0.44999,-0.449997 0.45002,-0.45 0.44999,-0.450001 0.45,-0.400002 0.45,-0.449997 0.44999,-0.45 0.45002,-0.450001 0.39999,-0.400002 0.44901,-0.45 0.44999,-0.399998 0.45,-0.450001 0.45,-0.400001 0.451,-0.449997 0.44901,-0.400002 0.44999,-0.400001 0.45,-0.399998 0.45,-0.400002 0.90001,-0.799999 0.44999,-0.400001 0.4,-0.399998 0.451,-0.350002 0.45,-0.399998 0.449,-0.350002 0.45101,-0.399998 0.44899,-0.350002 0.451,-0.399998 0.45,-0.350002 0.449,-0.349999 0.45101,-0.349998 0.44899,-0.350003 0.451,-0.349998 0.45,-0.350002 0.449,-0.349999 0.401,-0.299999 0.45,-0.350002 0.45,-0.349999 0.44999,-0.299999 0.45002,-0.299999 0.44999,-0.350003 0.45,-0.299999 0.89999,-0.598999 0.45002,-0.301002 0.44999,-0.3 0.45,-0.299999 0.89999,-0.598999 0.39901,-0.301002 0.451,-0.25 0.44901,-0.3 0.44999,-0.25 0.45,-0.25 0.45,-0.299999 0.451,-0.25 0.44901,-0.249 0.44999,-0.251 0.45,-0.25 0.45,-0.249 0.451,-0.251 0.44901,-0.25 0.401,-0.249 0.44899,-0.201001 0.451,-0.25 0.45,-0.2 M 145.914,106.667 l 0.44901,-0.05 0.451,-0.05 0.45,-0.05 0.39999,-0.05 0.45001,-0.05 0.45,-0.05 0.45,-0.1 0.44999,-0.099 0.45,-0.10101 0.45001,-0.1 0.45,-0.1 0.45,-0.1 0.44999,-0.15001 0.45,-0.15 0.45001,-0.15 0.45,-0.14999 0.45,-0.15 0.399,-0.15001 0.45,-0.19899 0.451,-0.151 0.44899,-0.20001 0.45001,-0.2 0.45,-0.19899 0.45,-0.251 0.451,-0.20001 0.44899,-0.25 0.45001,-0.25 0.45,-0.25 0.45,-0.25 0.451,-0.25 0.44899,-0.25 0.401,-0.29899 0.44901,-0.251 0.451,-0.30001 0.45,-0.3 0.449,-0.29999 0.45099,-0.30001 0.44901,-0.299988 0.451,-0.350006 0.45,-0.299995 0.449,-0.349999 0.9,-0.700004 0.451,-0.349999 0.39999,-0.349998 0.45,-0.348999 0.45001,-0.401001 0.45,-0.348999 0.45,-0.401001 0.44999,-0.348999 0.45,-0.401001 0.45001,-0.400002 0.45,-0.400001 0.45,-0.400002 0.44999,-0.399994 0.45,-0.450004 0.45001,-0.400002 0.45,-0.449997 0.399,-0.400001 0.45,-0.449997 0.45,-0.450005 0.451,-0.399994 0.44901,-0.450004 0.44999,-0.449997 0.45,-0.450005 0.45,-0.5 0.451,-0.449997 0.44901,-0.449997 0.44999,-0.450004 0.45,-0.5 0.45,-0.449997 0.451,-0.5 0.399,-0.450005 0.9,-1 0.451,-0.449997 0.45,-0.5 0.89999,-1 0.44901,-0.5 0.451,-0.5 0.45,-0.5 0.449,-0.5 0.45099,-0.5 0.44901,-0.5 0.401,-0.5 0.44999,-0.5 0.90001,-1 0.9,-1 0.44999,-0.550003 0.45,-0.5 0.90001,-1 0.45,-0.5 0.44999,-0.549995 0.45,-0.5 0.45001,-0.5 m -88.401,3.049995 0.44999,0.5 0.45001,0.550003 0.9,1 0.89999,1 0.45001,0.5 0.401,0.5 0.449,0.5 0.45099,0.5 0.44901,0.5 0.45099,0.5 0.45001,0.5 0.449,0.5 0.9,1 0.45099,0.5 0.45001,0.449997 0.89999,1 0.44901,0.450005 0.4,0.5 0.45,0.449997 0.44999,0.5 0.45001,0.450004 0.44999,0.449997 0.45001,0.449997 0.45,0.5 0.44999,0.450005 0.45001,0.449997 0.44999,0.450004 0.45001,0.399994 0.45,0.450005 0.44999,0.449997 0.401,0.400001 0.44901,0.449997 0.45,0.400002 0.44999,0.450004 0.45001,0.399994 0.45099,0.400002 0.44901,0.400001 0.45,0.400002 0.44999,0.401001 0.45001,0.348999 0.45099,0.401001 0.44901,0.348999 0.45,0.401001 0.45,0.348999 0.40099,0.349998 0.45001,0.349999 0.9,0.700004 0.449,0.349999 0.45099,0.299995 0.45001,0.350006 0.449,0.299988 0.451,0.30001 0.449,0.29999 0.451,0.3 0.45,0.30001 0.449,0.251 0.4,0.29899 0.44999,0.25 0.45,0.25 0.45001,0.25 0.45,0.25 0.45,0.25 0.44999,0.25 0.45,0.20001 0.45001,0.251 0.9,0.39899 0.44999,0.20001 0.45,0.151 0.45001,0.19899 0.4,0.15001 0.451,0.15 0.44899,0.14999 0.45001,0.15 0.45,0.15 0.45,0.15001 0.451,0.1 0.44899,0.1 0.45001,0.1 0.45,0.10101 0.45,0.099 0.451,0.1 0.44899,0.05 0.45001,0.05 0.4,0.05 0.451,0.05 0.45,0.05 0.449,0.05 h 0.9 l 0.451,0.05 0.45,-0.05 h 0.89999 m -88.400996,-71.650003 0.449997,0.25 0.900002,0.5 0.450001,0.25 0.45,0.25 0.449997,0.299999 0.450001,0.25 0.450001,0.25 0.450001,0.3 0.45,0.25 0.399998,0.301002 0.901001,0.598999 0.449001,0.299999 0.450001,0.3 0.449997,0.301002 0.901001,0.598999 0.448997,0.299999 0.450005,0.350003 0.449997,0.299999 0.450005,0.299999 0.450996,0.349999 0.448997,0.350002 0.401001,0.299999 0.449006,0.349999 0.450996,0.350002 0.449997,0.349998 0.900001,0.700001 0.449006,0.349999 0.450996,0.350002 0.449997,0.399998 0.449005,0.350002 0.450996,0.399998 0.449006,0.350002 0.450996,0.399998 0.449997,0.350002 0.399002,0.399998 0.450005,0.400001 0.449997,0.400002 0.449996,0.399997 0.900002,0.8 0.450005,0.400001 0.449997,0.400002 0.449996,0.449997 0.450005,0.400001 0.449997,0.450001 0.450005,0.399998 0.449997,0.45 0.400001,0.400002 0.449997,0.450001 0.450005,0.45 0.450996,0.449997 0.448997,0.400002 0.450005,0.450001 0.449997,0.45 0.450005,0.449997 0.450996,0.5 0.448997,0.450001 0.450005,0.450001 0.449997,0.450001 0.450005,0.5 0.450996,0.45 0.399002,0.449997 0.450996,0.5 0.449006,0.450001 0.450996,0.5 0.450005,0.5 0.448997,0.450001 0.450996,0.5 0.900002,1 0.450005,0.450001 0.448997,0.5 0.450996,0.499996 0.449006,0.501007 0.450996,0.498993 0.399002,0.5 0.449997,0.501007 0.450005,0.498993 0.900001,1.001007 0.449997,0.498993 0.449997,0.550003 0.900002,1 0.900001,1 0.449997,0.5 0.450005,0.550003 0.400001,0.5 0.449997,0.5 0.449997,0.5 0.450008,0.549995 0.45099,0.5 0.89901,1 M 13.363001,23.517 l 0.401,0.05 0.448999,0.05 h 0.451001 l 0.449,0.051 0.451,0.049 0.449999,0.05 h 0.449001 l 0.451,0.05 0.449,0.05 0.451,0.05 0.449999,0.05 0.449001,0.05 0.451,0.05 h 0.449 l 0.399999,0.05 0.450001,0.05 0.449999,0.05 0.450001,0.05 0.450001,0.05 0.449998,0.05 0.450001,0.1 0.450001,0.05 0.449999,0.05 0.450001,0.05 0.449998,0.05 0.450001,0.05 0.450001,0.1 0.449999,0.05 0.399999,0.05 0.450001,0.1 0.450001,0.05 0.449999,0.05 0.451,0.1 0.448999,0.05 0.450001,0.1 0.450001,0.05 0.449999,0.1 0.451,0.1 0.449001,0.05 0.449999,0.1 0.450001,0.1 0.401001,0.051 0.449997,0.099 0.449001,0.1 0.451,0.1 0.449002,0.1 0.451,0.100001 0.449997,0.1 0.449001,0.1 0.451,0.1 0.449002,0.1 0.451,0.100001 0.449997,0.1 0.449001,0.15 0.451,0.1 0.399003,0.101 0.449996,0.15 0.450001,0.099 0.450001,0.150001 0.450001,0.1 0.450001,0.150001 0.449996,0.101 0.450001,0.15 0.450001,0.149999 0.450001,0.099 0.450001,0.15 0.449996,0.149999 0.450001,0.15 0.450001,0.15 0.401001,0.150001 0.448997,0.15 0.450001,0.149999 0.450001,0.201001 0.450001,0.149999 0.451,0.149 0.448997,0.200001 0.450001,0.150999 0.450001,0.199 0.450001,0.150001 0.451,0.199999 0.448997,0.151001 0.450001,0.198999 0.400002,0.200001 0.901001,0.400999 0.448997,0.199 0.451,0.2 0.449002,0.200001 0.451,0.200001 0.450001,0.201 0.448997,0.248997 0.451,0.201 0.449002,0.249001 0.451,0.2 0.450001,0.25 0.448997,0.201001 0.400002,0.249 0.450001,0.25 0.45,0.251 M 10.663,23.367001 h 0.450001 l 0.450999,0.05 h 0.449 l 0.45,0.05 0.450001,0.05 h 0.45" /><path
               id="path34"
               style="fill:none;stroke:#000000;stroke-width:1;stroke-linecap:butt;stroke-linejoin:round;stroke-miterlimit:10;stroke-dasharray:none;stroke-opacity:1"
               d="M 11.164001,24.842001 V 116.842 M 7.5630002,22.442001 H 290.36301" /><path
               id="path36"
               style="fill:#000000;fill-opacity:1;fill-rule:nonzero;stroke:none"
               d="m 290.07001,22.442001 -2.10199,3.459 0.117,0.078 5.63999,-2.240002 C 295.69,23.307001 297.65503,22.875002 299.621,22.442001 297.65503,22.01 295.69,21.577002 293.72501,21.145 l -5.63999,-2.239999 -0.117,0.059 2.10199,3.478" /><path
               id="path38"
               style="fill:none;stroke:#000000;stroke-width:1;stroke-linecap:butt;stroke-linejoin:round;stroke-miterlimit:10;stroke-dasharray:none;stroke-opacity:1"
               d="m 189.16301,27.242001 v -5.199999 m -44.40001,5.6 v -5.201 m -44.999992,5.201 v -5.201 m 0,0.002 V 114.44201 M 144.96301,21.642 v 92.00001 m 44.4,-91.199009 V 114.44201 M 278.56403,22.842001 V 114.842" /><text
               id="text42"
               style="font-variant:normal;font-weight:normal;font-size:11.47679996px;font-family:CMR12;-inkscape-font-specification:CMR12;writing-mode:lr-tb;fill:#231f20;fill-opacity:1;fill-rule:nonzero;stroke:none"
               transform="matrix(1,0,0,-1,0.74219996,131.7495)"><tspan
                 id="tspan40"
                 y="0"
                 x="0 7.0238018">Lo</tspan></text>
<text
               id="text46"
               style="font-variant:normal;font-weight:normal;font-size:11.47679996px;font-family:CMR12;-inkscape-font-specification:CMR12;writing-mode:lr-tb;fill:#231f20;fill-opacity:1;fill-rule:nonzero;stroke:none"
               transform="matrix(1,0,0,-1,13.078614,131.7495)"><tspan
                 id="tspan44"
                 y="0"
                 x="0">w</tspan></text>
<text
               id="text50"
               style="font-variant:normal;font-weight:normal;font-size:11.47679996px;font-family:CMR12;-inkscape-font-specification:CMR12;writing-mode:lr-tb;fill:#231f20;fill-opacity:1;fill-rule:nonzero;stroke:none"
               transform="matrix(1,0,0,-1,20.880545,131.7495)"><tspan
                 id="tspan48"
                 y="0"
                 x="0 4.9924078 9.4224529">est</tspan></text>
<text
               id="text54"
               style="font-variant:normal;font-weight:normal;font-size:11.47679996px;font-family:CMR12;-inkscape-font-specification:CMR12;writing-mode:lr-tb;fill:#231f20;fill-opacity:1;fill-rule:nonzero;stroke:none"
               transform="matrix(1,0,0,-1,1.0096093,121.18969)"><tspan
                 id="tspan52"
                 y="0"
                 x="0">V</tspan></text>
<text
               id="text58"
               style="font-variant:normal;font-weight:normal;font-size:11.47679996px;font-family:CMR12;-inkscape-font-specification:CMR12;writing-mode:lr-tb;fill:#231f20;fill-opacity:1;fill-rule:nonzero;stroke:none"
               transform="matrix(1,0,0,-1,8.4982224,121.18969)"><tspan
                 id="tspan56"
                 y="0"
                 x="0 5.623632 8.7453213 14.988701">alue</tspan></text>
<text
               id="text62"
               style="font-variant:normal;font-weight:normal;font-size:11.47679996px;font-family:CMR12;-inkscape-font-specification:CMR12;writing-mode:lr-tb;fill:#231f20;fill-opacity:1;fill-rule:nonzero;stroke:none"
               transform="matrix(1,0,0,-1,29.313692,86.708794)"><tspan
                 id="tspan60"
                 y="0"
                 x="0 8.4239712 11.545661 17.78904 23.412672">Hinge</tspan></text>
<text
               id="text66"
               style="font-variant:normal;font-weight:normal;font-size:11.47679996px;font-family:CMR12;-inkscape-font-specification:CMR12;writing-mode:lr-tb;fill:#231f20;fill-opacity:1;fill-rule:nonzero;stroke:none"
               transform="matrix(1,0,0,-1,60.217274,86.708794)"><tspan
                 id="tspan64"
                 y="0"
                 x="0 4.3726606">to</tspan></text>
<text
               id="text70"
               style="font-variant:normal;font-weight:normal;font-size:11.47679996px;font-family:CMR12;-inkscape-font-specification:CMR12;writing-mode:lr-tb;fill:#231f20;fill-opacity:1;fill-rule:nonzero;stroke:none"
               transform="matrix(1,0,0,-1,29.819818,72.629059)"><tspan
                 id="tspan68"
                 y="0"
                 x="0 7.643549 13.577054 17.949715 22.322376 27.314783 36.679852">Extreme</tspan></text>
<text
               id="text74"
               style="font-variant:normal;font-weight:normal;font-size:11.47679996px;font-family:CMR12;-inkscape-font-specification:CMR12;writing-mode:lr-tb;fill:#231f20;fill-opacity:1;fill-rule:nonzero;stroke:none"
               transform="matrix(1,0,0,-1,262.88953,131.58882)"><tspan
                 id="tspan72"
                 y="0"
                 x="0 8.4239712 11.545661 17.169292 23.412672 28.405081 32.835125">Highest</tspan></text>
<text
               id="text78"
               style="font-variant:normal;font-weight:normal;font-size:11.47679996px;font-family:CMR12;-inkscape-font-specification:CMR12;writing-mode:lr-tb;fill:#231f20;fill-opacity:1;fill-rule:nonzero;stroke:none"
               transform="matrix(1,0,0,-1,263.87195,120.06841)"><tspan
                 id="tspan76"
                 y="0"
                 x="0">V</tspan></text>
<text
               id="text82"
               style="font-variant:normal;font-weight:normal;font-size:11.47679996px;font-family:CMR12;-inkscape-font-specification:CMR12;writing-mode:lr-tb;fill:#231f20;fill-opacity:1;fill-rule:nonzero;stroke:none"
               transform="matrix(1,0,0,-1,271.36057,120.06841)"><tspan
                 id="tspan80"
                 y="0"
                 x="0 5.623632 8.7453213 14.988701">alue</tspan></text>
<text
               id="text86"
               style="font-variant:normal;font-weight:normal;font-size:11.47679996px;font-family:CMR12;-inkscape-font-specification:CMR12;writing-mode:lr-tb;fill:#231f20;fill-opacity:1;fill-rule:nonzero;stroke:none"
               transform="matrix(1,0,0,-1,104.25607,65.428513)"><tspan
                 id="tspan84"
                 y="0"
                 x="0 10.294689 15.287098 21.530478 24.652166 30.275799">Median</tspan></text>
<text
               id="text90"
               style="font-variant:normal;font-weight:normal;font-size:11.47679996px;font-family:CMR12;-inkscape-font-specification:CMR12;writing-mode:lr-tb;fill:#231f20;fill-opacity:1;fill-rule:nonzero;stroke:none"
               transform="matrix(1,0,0,-1,104.87237,49.829247)"><tspan
                 id="tspan88"
                 y="0"
                 x="0 4.3726606">to</tspan></text>
<text
               id="text94"
               style="font-variant:normal;font-weight:normal;font-size:11.47679996px;font-family:CMR12;-inkscape-font-specification:CMR12;writing-mode:lr-tb;fill:#231f20;fill-opacity:1;fill-rule:nonzero;stroke:none"
               transform="matrix(1,0,0,-1,104.55791,37.829105)"><tspan
                 id="tspan92"
                 y="0"
                 x="0 8.4239712 11.545661 17.78904 23.412672">Hinge</tspan></text>
<text
               id="text98"
               style="font-variant:normal;font-weight:normal;font-size:11.47679996px;font-family:CMR12;-inkscape-font-specification:CMR12;writing-mode:lr-tb;fill:#231f20;fill-opacity:1;fill-rule:nonzero;stroke:none"
               transform="matrix(1,0,0,-1,50.997978,4.627871)"><tspan
                 id="tspan96"
                 y="0"
                 x="0 7.0238018">Lo</tspan></text>
<text
               id="text102"
               style="font-variant:normal;font-weight:normal;font-size:11.47679996px;font-family:CMR12;-inkscape-font-specification:CMR12;writing-mode:lr-tb;fill:#231f20;fill-opacity:1;fill-rule:nonzero;stroke:none"
               transform="matrix(1,0,0,-1,63.333248,4.627871)"><tspan
                 id="tspan100"
                 y="0"
                 x="0 8.1140976 11.855535 18.098913 24.342293 28.714954 33.707363 39.330994">w-Spread</tspan></text>
<text
               id="text106"
               style="font-variant:normal;font-weight:normal;font-size:11.47679996px;font-family:CMR12;-inkscape-font-specification:CMR12;writing-mode:lr-tb;fill:#231f20;fill-opacity:1;fill-rule:nonzero;stroke:none"
               transform="matrix(1,0,0,-1,171.73965,3.8279381)"><tspan
                 id="tspan104"
                 y="0"
                 x="0 8.4239712 11.545661 17.169292 23.412672 27.154108 33.397488 39.640865 44.013527 49.005936 54.629566">High-Spread</tspan></text>
<text
               id="text110"
               style="font-variant:normal;font-weight:normal;font-size:11.47679996px;font-family:CMR12;-inkscape-font-specification:CMR12;writing-mode:lr-tb;fill:#231f20;fill-opacity:1;fill-rule:nonzero;stroke:none"
               transform="matrix(1,0,0,-1,215.29066,86.767326)"><tspan
                 id="tspan108"
                 y="0"
                 x="0 8.4239712 11.545661 17.78904 23.412672">Hinge</tspan></text>
<text
               id="text114"
               style="font-variant:normal;font-weight:normal;font-size:11.47679996px;font-family:CMR12;-inkscape-font-specification:CMR12;writing-mode:lr-tb;fill:#231f20;fill-opacity:1;fill-rule:nonzero;stroke:none"
               transform="matrix(1,0,0,-1,246.19307,86.767326)"><tspan
                 id="tspan112"
                 y="0"
                 x="0 4.3726606">to</tspan></text>
<text
               id="text118"
               style="font-variant:normal;font-weight:normal;font-size:11.47679996px;font-family:CMR12;-inkscape-font-specification:CMR12;writing-mode:lr-tb;fill:#231f20;fill-opacity:1;fill-rule:nonzero;stroke:none"
               transform="matrix(1,0,0,-1,215.7968,72.687592)"><tspan
                 id="tspan116"
                 y="0"
                 x="0 7.643549 13.577054 17.949715 22.322376 27.314783 36.679852">Extreme</tspan></text>
<text
               id="text122"
               style="font-variant:normal;font-weight:normal;font-size:11.47679996px;font-family:CMR12;-inkscape-font-specification:CMR12;writing-mode:lr-tb;fill:#231f20;fill-opacity:1;fill-rule:nonzero;stroke:none"
               transform="matrix(1,0,0,-1,149.50566,65.178322)"><tspan
                 id="tspan120"
                 y="0"
                 x="0 10.294689 15.287098 21.530478 24.652166 30.275799">Median</tspan></text>
<text
               id="text126"
               style="font-variant:normal;font-weight:normal;font-size:11.47679996px;font-family:CMR12;-inkscape-font-specification:CMR12;writing-mode:lr-tb;fill:#231f20;fill-opacity:1;fill-rule:nonzero;stroke:none"
               transform="matrix(1,0,0,-1,150.12196,52.378246)"><tspan
                 id="tspan124"
                 y="0"
                 x="0 4.3726606">to</tspan></text>
<text
               id="text130"
               style="font-variant:normal;font-weight:normal;font-size:11.47679996px;font-family:CMR12;-inkscape-font-specification:CMR12;writing-mode:lr-tb;fill:#231f20;fill-opacity:1;fill-rule:nonzero;stroke:none"
               transform="matrix(1,0,0,-1,149.8075,40.378105)"><tspan
                 id="tspan128"
                 y="0"
                 x="0 8.4239712 11.545661 17.78904 23.412672">Hinge</tspan></text>
<text
               id="text134"
               style="font-variant:normal;font-weight:normal;font-size:11.47679996px;font-family:CMR12;-inkscape-font-specification:CMR12;writing-mode:lr-tb;fill:#231f20;fill-opacity:1;fill-rule:nonzero;stroke:none"
               transform="matrix(1,0,0,-1,127.50463,118.77842)"><tspan
                 id="tspan132"
                 y="0"
                 x="0 10.294689 15.287098 21.530478 24.652166 30.275799">Median</tspan></text>
<text
               id="text138"
               style="font-variant:normal;font-weight:normal;font-size:11.47679996px;font-family:CMR12;-inkscape-font-specification:CMR12;writing-mode:lr-tb;fill:#231f20;fill-opacity:1;fill-rule:nonzero;stroke:none"
               transform="matrix(1,0,0,-1,178.24585,130.32294)"><tspan
                 id="tspan136"
                 y="0"
                 x="0 8.4239712 14.667351">Upp</tspan></text>
<text
               id="text142"
               style="font-variant:normal;font-weight:normal;font-size:11.47679996px;font-family:CMR12;-inkscape-font-specification:CMR12;writing-mode:lr-tb;fill:#231f20;fill-opacity:1;fill-rule:nonzero;stroke:none"
               transform="matrix(1,0,0,-1,199.46873,130.32294)"><tspan
                 id="tspan140"
                 y="0"
                 x="0 4.9924078">er</tspan></text>
<text
               id="text146"
               style="font-variant:normal;font-weight:normal;font-size:11.47679996px;font-family:CMR12;-inkscape-font-specification:CMR12;writing-mode:lr-tb;fill:#231f20;fill-opacity:1;fill-rule:nonzero;stroke:none"
               transform="matrix(1,0,0,-1,178.97807,119.76313)"><tspan
                 id="tspan144"
                 y="0"
                 x="0 8.4239712 11.545661 17.78904 23.412672">Hinge</tspan></text>
<text
               id="text150"
               style="font-variant:normal;font-weight:normal;font-size:11.47679996px;font-family:CMR12;-inkscape-font-specification:CMR12;writing-mode:lr-tb;fill:#231f20;fill-opacity:1;fill-rule:nonzero;stroke:none"
               transform="matrix(1,0,0,-1,80.314323,129.62285)"><tspan
                 id="tspan148"
                 y="0"
                 x="0 7.0238018">Lo</tspan></text>
<text
               id="text154"
               style="font-variant:normal;font-weight:normal;font-size:11.47679996px;font-family:CMR12;-inkscape-font-specification:CMR12;writing-mode:lr-tb;fill:#231f20;fill-opacity:1;fill-rule:nonzero;stroke:none"
               transform="matrix(1,0,0,-1,92.64959,129.62285)"><tspan
                 id="tspan152"
                 y="0"
                 x="0">w</tspan></text>
<text
               id="text158"
               style="font-variant:normal;font-weight:normal;font-size:11.47679996px;font-family:CMR12;-inkscape-font-specification:CMR12;writing-mode:lr-tb;fill:#231f20;fill-opacity:1;fill-rule:nonzero;stroke:none"
               transform="matrix(1,0,0,-1,100.45037,129.62285)"><tspan
                 id="tspan156"
                 y="0"
                 x="0">e</tspan></text>
<text
               id="text162"
               style="font-variant:normal;font-weight:normal;font-size:11.47679996px;font-family:CMR12;-inkscape-font-specification:CMR12;writing-mode:lr-tb;fill:#231f20;fill-opacity:1;fill-rule:nonzero;stroke:none"
               transform="matrix(1,0,0,-1,105.44278,129.62285)"><tspan
                 id="tspan160"
                 y="0"
                 x="0">r</tspan></text>
<text
               id="text166"
               style="font-variant:normal;font-weight:normal;font-size:11.47679996px;font-family:CMR12;-inkscape-font-specification:CMR12;writing-mode:lr-tb;fill:#231f20;fill-opacity:1;fill-rule:nonzero;stroke:none"
               transform="matrix(1,0,0,-1,80.596649,120.3427)"><tspan
                 id="tspan164"
                 y="0"
                 x="0 8.4239712 11.545661 17.78904 23.412672">Hinge</tspan></text>
<path
               id="path168"
               style="fill:#231f20;fill-opacity:1;fill-rule:nonzero;stroke:#000000;stroke-width:0.80000001;stroke-linecap:butt;stroke-linejoin:miter;stroke-miterlimit:4;stroke-dasharray:none;stroke-opacity:1"
               d="m 107.344,61.242004 h 32.03901" /><path
               id="path170"
               style="fill:#000000;fill-opacity:1;fill-rule:nonzero;stroke:none"
               d="m 138.67801,61.242004 -1.51401,2.490998 0.085,0.056 4.06099,-1.612998 c 1.41401,-0.311001 2.83,-0.621998 4.244,-0.933999 -1.414,-0.311 -2.82999,-0.622005 -4.244,-0.934002 l -4.06099,-1.611999 -0.085,0.042 1.51401,2.504001" /><path
               id="path172"
               style="fill:#000000;fill-opacity:1;fill-rule:nonzero;stroke:none"
               d="m 108.048,61.242004 1.515,-2.490001 -0.085,-0.056 -4.06099,1.611999 c -1.415,0.311997 -2.83,0.623002 -4.24501,0.934002 1.41501,0.310997 2.83001,0.622998 4.24501,0.933999 l 4.06099,1.613994 0.085,-0.04299 -1.515,-2.504998" /><path
               id="path174"
               style="fill:#231f20;fill-opacity:1;fill-rule:nonzero;stroke:#000000;stroke-width:0.80000001;stroke-linecap:butt;stroke-linejoin:miter;stroke-miterlimit:4;stroke-dasharray:none;stroke-opacity:1"
               d="m 152.14401,61.242004 h 32.04" /><path
               id="path176"
               style="fill:#000000;fill-opacity:1;fill-rule:nonzero;stroke:none"
               d="m 183.479,61.242004 -1.515,2.489998 0.085,0.056 4.06099,-1.611999 c 1.414,-0.311001 2.83,-0.623002 4.24501,-0.933999 -1.41501,-0.311 -2.83101,-0.622005 -4.24501,-0.934002 l -4.06099,-1.612998 -0.085,0.042 1.515,2.505001" /><path
               id="path178"
               style="fill:#000000;fill-opacity:1;fill-rule:nonzero;stroke:none"
               d="m 152.84901,61.242004 1.514,-2.490001 -0.085,-0.057 -4.06099,1.612998 c -1.41501,0.311001 -2.83,0.621998 -4.24501,0.934002 1.41501,0.310997 2.83,0.621998 4.24501,0.933999 l 4.06099,1.612998 0.085,-0.043 -1.514,-2.503998" /><path
               id="path180"
               style="fill:#231f20;fill-opacity:1;fill-rule:nonzero;stroke:#000000;stroke-width:0.80000001;stroke-linecap:butt;stroke-linejoin:miter;stroke-miterlimit:4;stroke-dasharray:none;stroke-opacity:1"
               d="M 18.364,82.442001 H 91.564003" /><path
               id="path182"
               style="fill:#000000;fill-opacity:1;fill-rule:nonzero;stroke:none"
               d="m 90.779999,82.442001 -1.681992,2.767998 0.09399,0.062 4.512001,-1.792007 c 1.571999,-0.345993 3.144005,-0.690995 4.715996,-1.037995 -1.571991,-0.346 -3.143997,-0.690994 -4.715996,-1.037994 l -4.512001,-1.791 -0.09399,0.04699 1.681992,2.782005" /><path
               id="path184"
               style="fill:#000000;fill-opacity:1;fill-rule:nonzero;stroke:none"
               d="m 19.147001,82.442001 1.681999,-2.766998 -0.094,-0.062 -4.512,1.791 c -1.572,0.345993 -3.144001,0.691994 -4.716,1.037994 1.571999,0.346001 3.144,0.691002 4.716,1.037995 l 4.512,1.792007 0.094,-0.047 -1.681999,-2.783005" /><path
               id="path186"
               style="fill:#231f20;fill-opacity:1;fill-rule:nonzero;stroke:#000000;stroke-width:0.80000001;stroke-linecap:butt;stroke-linejoin:miter;stroke-miterlimit:4;stroke-dasharray:none;stroke-opacity:1"
               d="m 197.16301,82.442001 h 73.2" /><path
               id="path188"
               style="fill:#000000;fill-opacity:1;fill-rule:nonzero;stroke:none"
               d="m 269.57999,82.442001 -1.68299,2.767998 0.095,0.062 4.51102,-1.792007 c 1.573,-0.345993 3.14499,-0.690995 4.71698,-1.037995 -1.57199,-0.346 -3.14398,-0.690994 -4.71698,-1.037994 l -4.51102,-1.791 -0.095,0.04699 1.68299,2.782005" /><path
               id="path190"
               style="fill:#000000;fill-opacity:1;fill-rule:nonzero;stroke:none"
               d="m 197.94601,82.442001 1.683,-2.766998 -0.095,-0.062 -4.511,1.791 c -1.57201,0.345993 -3.145,0.691994 -4.716,1.037994 1.571,0.346001 3.14399,0.691002 4.716,1.037995 l 4.511,1.792007 0.095,-0.047 -1.683,-2.783005" /><path
               id="path192"
               style="fill:#231f20;fill-opacity:1;fill-rule:nonzero;stroke:#000000;stroke-width:0.80000001;stroke-linecap:butt;stroke-linejoin:miter;stroke-miterlimit:4;stroke-dasharray:none;stroke-opacity:1"
               d="M 18.244001,14.042001 H 135.28401" /><path
               id="path194"
               style="fill:#000000;fill-opacity:1;fill-rule:nonzero;stroke:none"
               d="m 134.539,14.042001 -1.59799,2.629 0.09,0.06 4.28599,-1.703 c 1.494,-0.328001 2.987,-0.656 4.48001,-0.986 C 140.304,13.714001 138.811,13.385 137.317,13.057 l -4.28599,-1.703 -0.09,0.044 1.59799,2.644" /><path
               id="path196"
               style="fill:#000000;fill-opacity:1;fill-rule:nonzero;stroke:none"
               d="m 18.988001,14.042001 1.597,-2.628 -0.089,-0.06 -4.286001,1.703 c -1.493998,0.328 -2.987998,0.656 -4.480999,0.985001 1.493001,0.327999 2.987001,0.656999 4.480999,0.986 l 4.286001,1.703 0.089,-0.045 -1.597,-2.644" /><path
               id="path198"
               style="fill:#231f20;fill-opacity:1;fill-rule:nonzero;stroke:#000000;stroke-width:0.80000001;stroke-linecap:butt;stroke-linejoin:miter;stroke-miterlimit:4;stroke-dasharray:none;stroke-opacity:1"
               d="M 152.843,13.642 H 269.884" /><path
               id="path200"
               style="fill:#000000;fill-opacity:1;fill-rule:nonzero;stroke:none"
               d="m 269.13901,13.642 -1.59799,2.629 0.09,0.059 4.28601,-1.702999 c 1.49399,-0.328 2.987,-0.656 4.47998,-0.985001 -1.49298,-0.327999 -2.98599,-0.656999 -4.47998,-0.986 l -4.28601,-1.702 -0.09,0.044 1.59799,2.644" /><path
               id="path202"
               style="fill:#000000;fill-opacity:1;fill-rule:nonzero;stroke:none"
               d="m 153.58701,13.642 1.59899,-2.629 -0.09,-0.059 -4.28601,1.702 c -1.49399,0.328 -2.98799,0.657001 -4.48099,0.986 1.493,0.327999 2.987,0.657001 4.48099,0.985001 L 155.096,16.33 l 0.09,-0.044 -1.59899,-2.644001" /></g></g></g></g></g></svg>