<?xml version="1.0" encoding="UTF-8" standalone="no"?>
<svg
   xmlns:dc="http://purl.org/dc/elements/1.1/"
   xmlns:cc="http://creativecommons.org/ns#"
   xmlns:rdf="http://www.w3.org/1999/02/22-rdf-syntax-ns#"
   xmlns:svg="http://www.w3.org/2000/svg"
   xmlns="http://www.w3.org/2000/svg"
   viewBox="0 0 440 56"
   height="56"
   width="440"
   xml:space="preserve"
   id="svg2"
   version="1.1"><metadata
     id="metadata8"><rdf:RDF><cc:Work
         rdf:about=""><dc:format>image/svg+xml</dc:format><dc:type
           rdf:resource="http://purl.org/dc/dcmitype/StillImage" /></cc:Work></rdf:RDF></metadata><defs
     id="defs6"><clipPath
       id="clipPath24"
       clipPathUnits="userSpaceOnUse"><path
         id="path22"
         d="M 0,0 H 330 V 42 H 0 Z" /></clipPath><clipPath
       id="clipPath70"
       clipPathUnits="userSpaceOnUse"><path
         id="path68"
         d="M 0,0.06000137 H 329.07999 V 41.974002 H 0 Z" /></clipPath></defs><g
     transform="matrix(1.3333333,0,0,-1.3333333,0,56)"
     id="g10"><g
       id="g12" /><g
       id="g14" /><g
       id="g16"><g
         id="g18"><g
           clip-path="url(#clipPath24)"
           id="g20"><g
             id="g26" /><g
             id="g28"><path
               id="path30"
               style="fill:none;stroke:#231f20;stroke-width:1;stroke-linecap:butt;stroke-linejoin:miter;stroke-miterlimit:4;stroke-dasharray:none;stroke-opacity:1"
               d="m 130.40001,37.587002 h 112.8 V 12.787001 h -112.8 z m 112.79999,0 h 47.19999 V 12.787001 H 243.2 Z" /><path
               id="path32"
               style="fill:none;stroke:#231f20;stroke-width:1;stroke-linecap:butt;stroke-linejoin:miter;stroke-miterlimit:4;stroke-dasharray:3, 3, 3, 3, 3, 3;stroke-dashoffset:0;stroke-opacity:1"
               d="M 130,25.187 H 53.200001 m 236.801009,0.400002 h 29.199" /><path
               id="path34"
               style="fill:#231f20;fill-opacity:1;fill-rule:nonzero;stroke:none"
               d="m 17.9,25.587002 c 0,-1.16 -0.940001,-2.100001 -2.1,-2.100001 -1.160001,0 -2.1,0.940001 -2.1,2.100001 0,1.16 0.939999,2.1 2.1,2.1 1.159999,0 2.1,-0.94 2.1,-2.1" /><path
               id="path36"
               style="fill:none;stroke:#231f20;stroke-width:1;stroke-linecap:butt;stroke-linejoin:miter;stroke-miterlimit:4;stroke-dasharray:none;stroke-opacity:1"
               d="m 17.9,25.587002 c 0,-1.16 -0.940001,-2.100001 -2.1,-2.100001 -1.160001,0 -2.1,0.940001 -2.1,2.100001 0,1.16 0.939999,2.1 2.1,2.1 1.159999,0 2.1,-0.94 2.1,-2.1 z" /><path
               id="path38"
               style="fill:#231f20;fill-opacity:1;fill-rule:nonzero;stroke:none"
               d="m 24.200001,25.587002 c 0,-1.16 -0.940001,-2.100001 -2.100001,-2.100001 -1.160001,0 -2.1,0.940001 -2.1,2.100001 0,1.16 0.939999,2.1 2.1,2.1 1.16,0 2.100001,-0.94 2.100001,-2.1" /><path
               id="path40"
               style="fill:none;stroke:#231f20;stroke-width:1;stroke-linecap:butt;stroke-linejoin:miter;stroke-miterlimit:4;stroke-dasharray:none;stroke-opacity:1"
               d="m 24.200001,25.587002 c 0,-1.16 -0.940001,-2.100001 -2.100001,-2.100001 -1.160001,0 -2.1,0.940001 -2.1,2.100001 0,1.16 0.939999,2.1 2.1,2.1 1.16,0 2.100001,-0.94 2.100001,-2.1 z" /><path
               id="path42"
               style="fill:#231f20;fill-opacity:1;fill-rule:nonzero;stroke:none"
               d="m 30.800001,25.587002 c 0,-1.16 -0.940002,-2.100001 -2.1,-2.100001 -1.159001,0 -2.100001,0.940001 -2.100001,2.100001 0,1.16 0.941,2.1 2.100001,2.1 1.159998,0 2.1,-0.94 2.1,-2.1" /><path
               id="path44"
               style="fill:none;stroke:#231f20;stroke-width:1;stroke-linecap:butt;stroke-linejoin:miter;stroke-miterlimit:4;stroke-dasharray:none;stroke-opacity:1"
               d="m 30.800001,25.587002 c 0,-1.16 -0.940002,-2.100001 -2.1,-2.100001 -1.159001,0 -2.100001,0.940001 -2.100001,2.100001 0,1.16 0.941,2.1 2.100001,2.1 1.159998,0 2.1,-0.94 2.1,-2.1 z" /><path
               id="path46"
               style="fill:#231f20;fill-opacity:1;fill-rule:nonzero;stroke:none"
               d="m 38.100002,25.587002 c 0,-1.16 -0.940002,-2.100001 -2.100002,-2.100001 -1.16,0 -2.099998,0.940001 -2.099998,2.100001 0,1.16 0.939998,2.1 2.099998,2.1 1.16,0 2.100002,-0.94 2.100002,-2.1" /><path
               id="path48"
               style="fill:none;stroke:#231f20;stroke-width:1;stroke-linecap:butt;stroke-linejoin:miter;stroke-miterlimit:4;stroke-dasharray:none;stroke-opacity:1"
               d="m 38.100002,25.587002 c 0,-1.16 -0.940002,-2.100001 -2.100002,-2.100001 -1.16,0 -2.099998,0.940001 -2.099998,2.100001 0,1.16 0.939998,2.1 2.099998,2.1 1.16,0 2.100002,-0.94 2.100002,-2.1 z" /><path
               id="path50"
               style="fill:#231f20;fill-opacity:1;fill-rule:nonzero;stroke:none"
               d="m 45.700001,25.587002 c 0,-1.16 -0.940003,-2.100001 -2.099999,-2.100001 -1.160003,0 -2.100002,0.940001 -2.100002,2.100001 0,1.16 0.939999,2.1 2.100002,2.1 1.159996,0 2.099999,-0.94 2.099999,-2.1" /><path
               id="path52"
               style="fill:none;stroke:#231f20;stroke-width:1;stroke-linecap:butt;stroke-linejoin:miter;stroke-miterlimit:4;stroke-dasharray:none;stroke-opacity:1"
               d="m 45.700001,25.587002 c 0,-1.16 -0.940003,-2.100001 -2.099999,-2.100001 -1.160003,0 -2.100002,0.940001 -2.100002,2.100001 0,1.16 0.939999,2.1 2.100002,2.1 1.159996,0 2.099999,-0.94 2.099999,-2.1 z" /><path
               id="path54"
               style="fill:#231f20;fill-opacity:1;fill-rule:nonzero;stroke:none"
               d="m 52.100002,25.587002 c 0,-1.16 -0.940002,-2.100001 -2.100002,-2.100001 -1.16,0 -2.099998,0.940001 -2.099998,2.100001 0,1.16 0.939998,2.1 2.099998,2.1 1.16,0 2.100002,-0.94 2.100002,-2.1" /><path
               id="path56"
               style="fill:none;stroke:#231f20;stroke-width:1;stroke-linecap:butt;stroke-linejoin:miter;stroke-miterlimit:4;stroke-dasharray:none;stroke-opacity:1"
               d="m 52.100002,25.587002 c 0,-1.16 -0.940002,-2.100001 -2.100002,-2.100001 -1.16,0 -2.099998,0.940001 -2.099998,2.100001 0,1.16 0.939998,2.1 2.099998,2.1 1.16,0 2.100002,-0.94 2.100002,-2.1 z" /><path
               id="path58"
               style="fill:#231f20;fill-opacity:1;fill-rule:nonzero;stroke:none"
               d="m 58.299999,25.587002 c 0,-1.16 -0.939998,-2.100001 -2.099998,-2.100001 -1.158997,0 -2.099999,0.940001 -2.099999,2.100001 0,1.16 0.941002,2.1 2.099999,2.1 1.16,0 2.099998,-0.94 2.099998,-2.1" /><path
               id="path60"
               style="fill:none;stroke:#231f20;stroke-width:1;stroke-linecap:butt;stroke-linejoin:miter;stroke-miterlimit:4;stroke-dasharray:none;stroke-opacity:1"
               d="m 58.299999,25.587002 c 0,-1.16 -0.939998,-2.100001 -2.099998,-2.100001 -1.158997,0 -2.099999,0.940001 -2.099999,2.100001 0,1.16 0.941002,2.1 2.099999,2.1 1.16,0 2.099998,-0.94 2.099998,-2.1 z" /><path
               id="path62"
               style="fill:#231f20;fill-opacity:1;fill-rule:nonzero;stroke:none"
               d="M 0,25.187 H 57.200001" /></g><g
             id="g64"><g
               clip-path="url(#clipPath70)"
               id="g66"><path
                 id="path72"
                 style="fill:none;stroke:#231f20;stroke-width:1;stroke-linecap:butt;stroke-linejoin:miter;stroke-miterlimit:4;stroke-dasharray:none;stroke-opacity:1"
                 d="M 0,25.187 H 57.200001" /></g></g><g
             id="g74"><text
               id="text78"
               style="font-variant:normal;font-weight:normal;font-size:9.56400013px;font-family:CMR12;-inkscape-font-specification:CMR12;writing-mode:lr-tb;fill:#231f20;fill-opacity:1;fill-rule:nonzero;stroke:none"
               transform="matrix(1,0,0,-1,49.695297,33.6007)"><tspan
                 id="tspan76"
                 y="0"
                 x="0 4.676796 9.3535919 11.945436">33.4</tspan></text>
<text
               id="text82"
               style="font-variant:normal;font-weight:normal;font-size:9.56400013px;font-family:CMR12;-inkscape-font-specification:CMR12;writing-mode:lr-tb;fill:#231f20;fill-opacity:1;fill-rule:nonzero;stroke:none"
               transform="matrix(1,0,0,-1,125.86586,2.4010203)"><tspan
                 id="tspan80"
                 y="0"
                 x="0 4.676796">39</tspan></text>
<text
               id="text86"
               style="font-variant:normal;font-weight:normal;font-size:9.56400013px;font-family:CMR12;-inkscape-font-specification:CMR12;writing-mode:lr-tb;fill:#231f20;fill-opacity:1;fill-rule:nonzero;stroke:none"
               transform="matrix(1,0,0,-1,231.55188,2.8017519)"><tspan
                 id="tspan84"
                 y="0"
                 x="0 4.676796 9.3535919 11.945436 16.622232">45.05</tspan></text>
<text
               id="text90"
               style="font-variant:normal;font-weight:normal;font-size:9.56400013px;font-family:CMR12;-inkscape-font-specification:CMR12;writing-mode:lr-tb;fill:#231f20;fill-opacity:1;fill-rule:nonzero;stroke:none"
               transform="matrix(1,0,0,-1,279.20355,4.0010772)"><tspan
                 id="tspan88"
                 y="0"
                 x="0 4.676796 9.3535919 11.945436 16.622232">48.55</tspan></text>
<text
               id="text94"
               style="font-variant:normal;font-weight:normal;font-size:9.56400013px;font-family:CMR12;-inkscape-font-specification:CMR12;writing-mode:lr-tb;fill:#231f20;fill-opacity:1;fill-rule:nonzero;stroke:none"
               transform="matrix(1,0,0,-1,312.45758,34.800983)"><tspan
                 id="tspan92"
                 y="0"
                 x="0 4.676796 9.3535919 11.945436">50.4</tspan></text>
</g></g></g></g></g></svg>