<?xml version="1.0" encoding="UTF-8" standalone="no"?>
<svg
   xmlns:dc="http://purl.org/dc/elements/1.1/"
   xmlns:cc="http://creativecommons.org/ns#"
   xmlns:rdf="http://www.w3.org/1999/02/22-rdf-syntax-ns#"
   xmlns:svg="http://www.w3.org/2000/svg"
   xmlns="http://www.w3.org/2000/svg"
   viewBox="0 0 464 302.66666"
   height="302.66666"
   width="464"
   xml:space="preserve"
   id="svg2"
   version="1.1"><metadata
     id="metadata8"><rdf:RDF><cc:Work
         rdf:about=""><dc:format>image/svg+xml</dc:format><dc:type
           rdf:resource="http://purl.org/dc/dcmitype/StillImage" /></cc:Work></rdf:RDF></metadata><defs
     id="defs6"><clipPath
       id="clipPath24"
       clipPathUnits="userSpaceOnUse"><path
         id="path22"
         d="M 0,0 H 348 V 227 H 0 Z" /></clipPath><clipPath
       id="clipPath112"
       clipPathUnits="userSpaceOnUse"><path
         id="path110"
         d="M 0,0.05999756 H 347.39999 V 226.72101 H 0 Z" /></clipPath></defs><g
     transform="matrix(1.3333333,0,0,-1.3333333,0,302.66667)"
     id="g10"><g
       id="g12" /><g
       id="g14" /><g
       id="g16"><g
         id="g18"><g
           clip-path="url(#clipPath24)"
           id="g20"><g
             id="g26" /><g
             id="g28"><path
               id="path30"
               style="fill:none;stroke:#231f20;stroke-width:1;stroke-linecap:butt;stroke-linejoin:miter;stroke-miterlimit:4;stroke-dasharray:none;stroke-opacity:1"
               d="M 100.9,132.90001 V 144.5" /><path
               id="path32"
               style="fill:none;stroke:#231f20;stroke-width:1;stroke-linecap:butt;stroke-linejoin:miter;stroke-miterlimit:4;stroke-dasharray:3, 3, 3, 3, 3, 3;stroke-dashoffset:0;stroke-opacity:1"
               d="M 221.7,69.700005 V 90.5" /><text
               id="text36"
               style="font-variant:normal;font-weight:normal;font-size:9.56400013px;font-family:CMR12;-inkscape-font-specification:CMR12;writing-mode:lr-tb;fill:#231f20;fill-opacity:1;fill-rule:nonzero;stroke:none"
               transform="matrix(1,0,0,-1,5.0897999,212.85669)"><tspan
                 id="tspan34"
                 y="0"
                 x="0">W</tspan></text>
<text
               id="text40"
               style="font-variant:normal;font-weight:normal;font-size:9.56400013px;font-family:CMR12;-inkscape-font-specification:CMR12;writing-mode:lr-tb;fill:#231f20;fill-opacity:1;fill-rule:nonzero;stroke:none"
               transform="matrix(1,0,0,-1,13.930762,212.85669)"><tspan
                 id="tspan38"
                 y="0"
                 x="0 4.1603398 6.7617478 11.448108">eigh</tspan></text>
<text
               id="text44"
               style="font-variant:normal;font-weight:normal;font-size:9.56400013px;font-family:CMR12;-inkscape-font-specification:CMR12;writing-mode:lr-tb;fill:#231f20;fill-opacity:1;fill-rule:nonzero;stroke:none"
               transform="matrix(1,0,0,-1,30.322502,212.85669)"><tspan
                 id="tspan42"
                 y="0"
                 x="0">t</tspan></text>
<text
               id="text48"
               style="font-variant:normal;font-weight:normal;font-size:9.56400013px;font-family:CMR12;-inkscape-font-specification:CMR12;writing-mode:lr-tb;fill:#231f20;fill-opacity:1;fill-rule:nonzero;stroke:none"
               transform="matrix(1,0,0,-1,90.682823,5.2566776)"><tspan
                 id="tspan46"
                 y="0"
                 x="0 7.0199761 9.6213837">Air</tspan></text>
<text
               id="text52"
               style="font-variant:normal;font-weight:normal;font-size:9.56400013px;font-family:CMR12;-inkscape-font-specification:CMR12;writing-mode:lr-tb;fill:#231f20;fill-opacity:1;fill-rule:nonzero;stroke:none"
               transform="matrix(1,0,0,-1,208.67007,5.2566776)"><tspan
                 id="tspan50"
                 y="0"
                 x="0 7.2877679 10.931652 16.134468 20.294807">Other</tspan></text>
<text
               id="text56"
               style="font-variant:normal;font-weight:normal;font-size:9.33839989px;font-family:CMR12;-inkscape-font-specification:CMR12;writing-mode:lr-tb;fill:#231f20;fill-opacity:1;fill-rule:nonzero;stroke:none"
               transform="matrix(0.79828451,0,0,-1,312.12201,4.8570004)"><tspan
                 id="tspan54"
                 y="0"
                 x="0 5.0800896 9.6559057 14.735995 18.293926 22.356129">Source</tspan></text>
<text
               id="text60"
               style="font-variant:normal;font-weight:normal;font-size:9.56400013px;font-family:CMR12;-inkscape-font-specification:CMR12;writing-mode:lr-tb;fill:#231f20;fill-opacity:1;fill-rule:nonzero;stroke:none"
               transform="matrix(1,0,0,-1,4.6898999,44.900002)"><tspan
                 id="tspan58"
                 y="0"
                 x="0 4.6863599 7.2877679 11.974128 16.660488">2.295</tspan></text>
<text
               id="text64"
               style="font-variant:normal;font-weight:normal;font-size:9.56400013px;font-family:CMR12;-inkscape-font-specification:CMR12;writing-mode:lr-tb;fill:#231f20;fill-opacity:1;fill-rule:nonzero;stroke:none"
               transform="matrix(1,0,0,-1,4.3417702,75.300133)"><tspan
                 id="tspan62"
                 y="0"
                 x="0 4.6863599 7.2877679 11.974128 16.660488">2.300</tspan></text>
<text
               id="text68"
               style="font-variant:normal;font-weight:normal;font-size:9.56400013px;font-family:CMR12;-inkscape-font-specification:CMR12;writing-mode:lr-tb;fill:#231f20;fill-opacity:1;fill-rule:nonzero;stroke:none"
               transform="matrix(1,0,0,-1,4.7941475,103.2997)"><tspan
                 id="tspan66"
                 y="0"
                 x="0 4.6863599 7.2877679 11.974128 16.660488">2.305</tspan></text>
<text
               id="text72"
               style="font-variant:normal;font-weight:normal;font-size:9.56400013px;font-family:CMR12;-inkscape-font-specification:CMR12;writing-mode:lr-tb;fill:#231f20;fill-opacity:1;fill-rule:nonzero;stroke:none"
               transform="matrix(1,0,0,-1,4.4460177,132.09978)"><tspan
                 id="tspan70"
                 y="0"
                 x="0 4.6863599 7.2877679 11.974128 16.660488">2.310</tspan></text>
<text
               id="text76"
               style="font-variant:normal;font-weight:normal;font-size:9.56400013px;font-family:CMR12;-inkscape-font-specification:CMR12;writing-mode:lr-tb;fill:#231f20;fill-opacity:1;fill-rule:nonzero;stroke:none"
               transform="matrix(1,0,0,-1,4.4995761,160.50008)"><tspan
                 id="tspan74"
                 y="0"
                 x="0 4.6863599 7.2877679 11.974128 16.660488">2.315</tspan></text>
<path
               id="path78"
               style="fill:#231f20;fill-opacity:1;fill-rule:nonzero;stroke:none"
               d="M 41.299999,19.700001 V 46.100002" /><path
               id="path80"
               style="fill:none;stroke:#231f20;stroke-width:1;stroke-linecap:butt;stroke-linejoin:miter;stroke-miterlimit:4;stroke-dasharray:3, 3, 3, 3, 3, 3;stroke-dashoffset:0;stroke-opacity:1"
               d="M 41.299999,19.700001 V 46.100002" /><path
               id="path82"
               style="fill:#231f20;fill-opacity:1;fill-rule:nonzero;stroke:none"
               d="M 40.5,46.900002 V 221.3" /><path
               id="path84"
               style="fill:none;stroke:#231f20;stroke-width:1;stroke-linecap:butt;stroke-linejoin:miter;stroke-miterlimit:4;stroke-dasharray:none;stroke-opacity:1"
               d="M 40.5,46.900002 V 221.3" /><text
               id="text88"
               style="font-variant:normal;font-weight:normal;font-size:9.56400013px;font-family:CMR12;-inkscape-font-specification:CMR12;writing-mode:lr-tb;fill:#231f20;fill-opacity:1;fill-rule:nonzero;stroke:none"
               transform="matrix(1,0,0,-1,4.1522999,188.89969)"><tspan
                 id="tspan86"
                 y="0"
                 x="0 4.6863599 7.2877679 11.974128 16.660488">2.320</tspan></text>
<path
               id="path90"
               style="fill:#231f20;fill-opacity:1;fill-rule:nonzero;stroke:none"
               d="m 39.68,223.18901 c -0.400001,-1.32201 -0.766998,-2.18201 -1.192997,-3.243 h 4.035 c -0.18,0.379 -0.794002,1.92099 -1.193001,3.243 -0.428001,1.416 -0.721,2.69901 -0.825,3.532 -0.104,-0.83299 -0.397,-2.116 -0.824002,-3.532" /><path
               id="path92"
               style="fill:#231f20;fill-opacity:1;fill-rule:nonzero;stroke:none"
               d="M 40.5,18.9 H 329.29901" /><path
               id="path94"
               style="fill:#231f20;fill-opacity:1;fill-rule:nonzero;stroke:none"
               d="m 328.28,18.9 -2.19199,3.603 0.12302,0.081 5.875,-2.333001 c 2.047,-0.45 4.09396,-0.901001 6.14099,-1.351001 -2.04703,-0.450001 -4.09399,-0.900999 -6.14099,-1.350998 l -5.875,-2.334001 -0.12302,0.062 2.19199,3.623" /><path
               id="path96"
               style="fill:none;stroke:#231f20;stroke-width:1;stroke-linecap:butt;stroke-linejoin:miter;stroke-miterlimit:4;stroke-dasharray:none;stroke-opacity:1"
               d="M 40.5,18.9 H 329.29901" /><path
               id="path98"
               style="fill:#231f20;fill-opacity:1;fill-rule:nonzero;stroke:none"
               d="m 328.28,18.9 -2.19199,3.603 0.12302,0.081 5.875,-2.333001 c 2.047,-0.45 4.09396,-0.901001 6.14099,-1.351001 -2.04703,-0.450001 -4.09399,-0.900999 -6.14099,-1.350998 l -5.875,-2.334001 -0.12302,0.062 2.19199,3.623" /><path
               id="path100"
               style="fill:#ffffff;fill-opacity:1;fill-rule:nonzero;stroke:none"
               d="M 70.900002,140.90001 H 131.7 v -5.2 H 70.900002 Z" /><path
               id="path102"
               style="fill:none;stroke:#231f20;stroke-width:1;stroke-linecap:butt;stroke-linejoin:miter;stroke-miterlimit:4;stroke-dasharray:none;stroke-opacity:1"
               d="M 70.900002,140.90001 H 131.7 v -5.2 H 70.900002 Z" /><path
               id="path104"
               style="fill:#ffffff;fill-opacity:1;fill-rule:nonzero;stroke:none"
               d="m 192.10001,85.300003 h 58.8 v -8.400001 h -58.8 z" /></g><g
             id="g106"><g
               clip-path="url(#clipPath112)"
               id="g108"><path
                 id="path114"
                 style="fill:none;stroke:#231f20;stroke-width:1;stroke-linecap:butt;stroke-linejoin:miter;stroke-miterlimit:4;stroke-dasharray:none;stroke-opacity:1"
                 d="m 192.10001,85.300003 h 58.8 v -8.400001 h -58.8 z M 70.900002,138.5 H 131.3 m 60.80001,-56.799995 h 58.8 M 0.5,226.10001 H 346.89999 V 0.5 H 0.5 Z" /></g></g></g></g></g></g></svg>