<?xml version="1.0" encoding="UTF-8" standalone="no"?>
<svg
   xmlns:dc="http://purl.org/dc/elements/1.1/"
   xmlns:cc="http://creativecommons.org/ns#"
   xmlns:rdf="http://www.w3.org/1999/02/22-rdf-syntax-ns#"
   xmlns:svg="http://www.w3.org/2000/svg"
   xmlns="http://www.w3.org/2000/svg"
   viewBox="0 0 398.66666 189.33333"
   height="189.33333"
   width="398.66666"
   xml:space="preserve"
   id="svg2"
   version="1.1"><metadata
     id="metadata8"><rdf:RDF><cc:Work
         rdf:about=""><dc:format>image/svg+xml</dc:format><dc:type
           rdf:resource="http://purl.org/dc/dcmitype/StillImage" /></cc:Work></rdf:RDF></metadata><defs
     id="defs6"><clipPath
       id="clipPath24"
       clipPathUnits="userSpaceOnUse"><path
         id="path22"
         d="M 0,0 H 299 V 142 H 0 Z" /></clipPath></defs><g
     transform="matrix(1.3333333,0,0,-1.3333333,0,189.33333)"
     id="g10"><g
       id="g12" /><g
       id="g14" /><g
       id="g16"><g
         id="g18"><g
           clip-path="url(#clipPath24)"
           id="g20"><g
             id="g26" /><g
             id="g28"><path
               id="path30"
               style="fill:#231f20;fill-opacity:1;fill-rule:nonzero;stroke:none"
               d="M 106.899,135.05101 H 46.099003" /><path
               id="path32"
               style="fill:none;stroke:#231f20;stroke-width:1;stroke-linecap:butt;stroke-linejoin:miter;stroke-miterlimit:4;stroke-dasharray:none;stroke-opacity:1"
               d="M 106.899,135.05101 H 46.099003" /><path
               id="path34"
               style="fill:#231f20;fill-opacity:1;fill-rule:nonzero;stroke:none"
               d="m 46.752003,135.05101 1.401001,-2.306 -0.078,-0.053 -3.759999,1.494 c -1.310001,0.288 -2.619998,0.57601 -3.930999,0.86501 1.311001,0.28799 2.620998,0.57599 3.930999,0.864 l 3.759999,1.494 0.078,-0.04 -1.401001,-2.31799" /><path
               id="path36"
               style="fill:#231f20;fill-opacity:1;fill-rule:nonzero;stroke:none"
               d="M 106.07301,102.186 H 45.272003" /><path
               id="path38"
               style="fill:none;stroke:#231f20;stroke-width:1;stroke-linecap:butt;stroke-linejoin:miter;stroke-miterlimit:4;stroke-dasharray:none;stroke-opacity:1"
               d="M 106.07301,102.186 H 45.272003" /><path
               id="path40"
               style="fill:#231f20;fill-opacity:1;fill-rule:nonzero;stroke:none"
               d="m 45.925003,102.186 1.402,-2.306003 -0.079,-0.05199 -3.758999,1.493003 c -1.310001,0.28799 -2.619999,0.57599 -3.931,0.86499 1.311001,0.28801 2.620999,0.57601 3.931,0.864 l 3.758999,1.49401 0.079,-0.039 -1.402,-2.319" /><path
               id="path42"
               style="fill:#231f20;fill-opacity:1;fill-rule:nonzero;stroke:none"
               d="M 107.40601,69.652 H 46.606003" /><path
               id="path44"
               style="fill:none;stroke:#231f20;stroke-width:1;stroke-linecap:butt;stroke-linejoin:miter;stroke-miterlimit:4;stroke-dasharray:none;stroke-opacity:1"
               d="M 107.40601,69.652 H 46.606003" /><path
               id="path46"
               style="fill:#231f20;fill-opacity:1;fill-rule:nonzero;stroke:none"
               d="m 47.258003,69.652 1.403,-2.305999 -0.08,-0.051 -3.758999,1.492996 c -1.310001,0.288002 -2.619999,0.576004 -3.93,0.863998 1.310001,0.289002 2.619999,0.577004 3.93,0.865006 l 3.758999,1.492996 0.08,-0.039 -1.403,-2.319001" /><path
               id="path48"
               style="fill:#231f20;fill-opacity:1;fill-rule:nonzero;stroke:none"
               d="M 107.13801,35.786003 H 46.338001" /><path
               id="path50"
               style="fill:none;stroke:#231f20;stroke-width:1;stroke-linecap:butt;stroke-linejoin:miter;stroke-miterlimit:4;stroke-dasharray:none;stroke-opacity:1"
               d="M 107.13801,35.786003 H 46.338001" /><path
               id="path52"
               style="fill:#231f20;fill-opacity:1;fill-rule:nonzero;stroke:none"
               d="M 46.991001,35.786003 48.393002,33.479 48.315002,33.428 44.555,34.921 c -1.309997,0.288002 -2.619999,0.576001 -3.930999,0.865002 1.311,0.287998 2.621002,0.576 3.930999,0.863995 l 3.760002,1.494003 0.078,-0.04 -1.402001,-2.317997" /><path
               id="path54"
               style="fill:#231f20;fill-opacity:1;fill-rule:nonzero;stroke:none"
               d="M 106.87301,2.7190001 H 46.073002" /><path
               id="path56"
               style="fill:none;stroke:#231f20;stroke-width:1;stroke-linecap:butt;stroke-linejoin:miter;stroke-miterlimit:4;stroke-dasharray:none;stroke-opacity:1"
               d="M 106.87301,2.7190001 H 46.073002" /><path
               id="path58"
               style="fill:#231f20;fill-opacity:1;fill-rule:nonzero;stroke:none"
               d="m 46.725002,2.7190001 1.402001,-2.30600008 -0.079,-0.052 L 44.289,1.8540001 c -1.309997,0.289 -2.620998,0.5770001 -3.930999,0.865 1.310001,0.2880001 2.621002,0.576 3.930999,0.865 l 3.759003,1.493 0.079,-0.039 -1.402001,-2.319" /><path
               id="path60"
               style="fill:#231f20;fill-opacity:1;fill-rule:nonzero;stroke:none"
               d="M 40.384003,135.05101 V 2.4520001" /><path
               id="path62"
               style="fill:none;stroke:#231f20;stroke-width:1;stroke-linecap:butt;stroke-linejoin:miter;stroke-miterlimit:4;stroke-dasharray:none;stroke-opacity:1"
               d="M 40.384003,135.05101 V 2.4520001" /><text
               id="text66"
               style="font-variant:normal;font-weight:normal;font-size:9.56400013px;font-family:CMR12;-inkscape-font-specification:CMR12;writing-mode:lr-tb;fill:#231f20;fill-opacity:1;fill-rule:nonzero;stroke:none"
               transform="matrix(0,1,1,0,7.1728997,42.117699)"><tspan
                 id="tspan64"
                 y="0"
                 x="0 7.153872 9.7552805 13.446984 17.090868 20.734753 23.336161 28.538977 33.741791 37.385677 39.987083 44.673443">Distribution</tspan></text>
<text
               id="text70"
               style="font-variant:normal;font-weight:normal;font-size:9.56400013px;font-family:CMR12;-inkscape-font-specification:CMR12;writing-mode:lr-tb;fill:#231f20;fill-opacity:1;fill-rule:nonzero;stroke:none"
               transform="matrix(1,0,0,-1,108.803,134.11789)"><tspan
                 id="tspan68"
                 y="0"
                 x="0 7.0199761 9.6213837 14.307744 19.510561 23.6709 27.362604">Highest</tspan></text>
<text
               id="text74"
               style="font-variant:normal;font-weight:normal;font-size:9.56400013px;font-family:CMR12;-inkscape-font-specification:CMR12;writing-mode:lr-tb;fill:#231f20;fill-opacity:1;fill-rule:nonzero;stroke:none"
               transform="matrix(1,0,0,-1,142.93216,134.11789)"><tspan
                 id="tspan72"
                 y="0"
                 x="0">V</tspan></text>
<text
               id="text78"
               style="font-variant:normal;font-weight:normal;font-size:9.56400013px;font-family:CMR12;-inkscape-font-specification:CMR12;writing-mode:lr-tb;fill:#231f20;fill-opacity:1;fill-rule:nonzero;stroke:none"
               transform="matrix(1,0,0,-1,149.17171,134.11789)"><tspan
                 id="tspan76"
                 y="0"
                 x="0">a</tspan></text>
<text
               id="text82"
               style="font-variant:normal;font-weight:normal;font-size:9.56400013px;font-family:CMR12;-inkscape-font-specification:CMR12;writing-mode:lr-tb;fill:#231f20;fill-opacity:1;fill-rule:nonzero;stroke:none"
               transform="matrix(1,0,0,-1,153.85806,134.11789)"><tspan
                 id="tspan80"
                 y="0"
                 x="0 2.601408 7.804224">lue</tspan></text>
<text
               id="text86"
               style="font-variant:normal;font-weight:normal;font-size:9.56400013px;font-family:CMR12;-inkscape-font-specification:CMR12;writing-mode:lr-tb;fill:#231f20;fill-opacity:1;fill-rule:nonzero;stroke:none"
               transform="matrix(1,0,0,-1,110.38202,101.85087)"><tspan
                 id="tspan84"
                 y="0"
                 x="0 7.0199761 12.222792">Upp</tspan></text>
<text
               id="text90"
               style="font-variant:normal;font-weight:normal;font-size:9.56400013px;font-family:CMR12;-inkscape-font-specification:CMR12;writing-mode:lr-tb;fill:#231f20;fill-opacity:1;fill-rule:nonzero;stroke:none"
               transform="matrix(1,0,0,-1,128.06969,101.85087)"><tspan
                 id="tspan88"
                 y="0"
                 x="0 4.1603398">er</tspan></text>
<text
               id="text94"
               style="font-variant:normal;font-weight:normal;font-size:9.56400013px;font-family:CMR12;-inkscape-font-specification:CMR12;writing-mode:lr-tb;fill:#231f20;fill-opacity:1;fill-rule:nonzero;stroke:none"
               transform="matrix(1,0,0,-1,138.9937,101.85087)"><tspan
                 id="tspan92"
                 y="0"
                 x="0 7.0199761 9.6213837 14.8242 19.510561">Hinge</tspan></text>
<text
               id="text98"
               style="font-variant:normal;font-weight:normal;font-size:9.56400013px;font-family:CMR12;-inkscape-font-specification:CMR12;writing-mode:lr-tb;fill:#231f20;fill-opacity:1;fill-rule:nonzero;stroke:none"
               transform="matrix(1,0,0,-1,111.76019,69.317009)"><tspan
                 id="tspan96"
                 y="0"
                 x="0 8.578908 12.739248 17.942064 20.543472 25.229832">Median</tspan></text>
<text
               id="text102"
               style="font-variant:normal;font-weight:normal;font-size:9.56400013px;font-family:CMR12;-inkscape-font-specification:CMR12;writing-mode:lr-tb;fill:#231f20;fill-opacity:1;fill-rule:nonzero;stroke:none"
               transform="matrix(1,0,0,-1,110.90613,35.467144)"><tspan
                 id="tspan100"
                 y="0"
                 x="0 5.853168">Lo</tspan></text>
<text
               id="text106"
               style="font-variant:normal;font-weight:normal;font-size:9.56400013px;font-family:CMR12;-inkscape-font-specification:CMR12;writing-mode:lr-tb;fill:#231f20;fill-opacity:1;fill-rule:nonzero;stroke:none"
               transform="matrix(1,0,0,-1,121.18647,35.467144)"><tspan
                 id="tspan104"
                 y="0"
                 x="0">w</tspan></text>
<text
               id="text110"
               style="font-variant:normal;font-weight:normal;font-size:9.56400013px;font-family:CMR12;-inkscape-font-specification:CMR12;writing-mode:lr-tb;fill:#231f20;fill-opacity:1;fill-rule:nonzero;stroke:none"
               transform="matrix(1,0,0,-1,127.68808,35.467144)"><tspan
                 id="tspan108"
                 y="0"
                 x="0">e</tspan></text>
<text
               id="text114"
               style="font-variant:normal;font-weight:normal;font-size:9.56400013px;font-family:CMR12;-inkscape-font-specification:CMR12;writing-mode:lr-tb;fill:#231f20;fill-opacity:1;fill-rule:nonzero;stroke:none"
               transform="matrix(1,0,0,-1,131.84842,35.467144)"><tspan
                 id="tspan112"
                 y="0"
                 x="0">r</tspan></text>
<text
               id="text118"
               style="font-variant:normal;font-weight:normal;font-size:9.56400013px;font-family:CMR12;-inkscape-font-specification:CMR12;writing-mode:lr-tb;fill:#231f20;fill-opacity:1;fill-rule:nonzero;stroke:none"
               transform="matrix(1,0,0,-1,138.61304,35.467144)"><tspan
                 id="tspan116"
                 y="0"
                 x="0 7.0199761 9.6213837 14.8242 19.510561">Hinge</tspan></text>
<text
               id="text122"
               style="font-variant:normal;font-weight:normal;font-size:9.56400013px;font-family:CMR12;-inkscape-font-specification:CMR12;writing-mode:lr-tb;fill:#231f20;fill-opacity:1;fill-rule:nonzero;stroke:none"
               transform="matrix(1,0,0,-1,110.0425,2.4005713)"><tspan
                 id="tspan120"
                 y="0"
                 x="0 5.853168">Lo</tspan></text>
<text
               id="text126"
               style="font-variant:normal;font-weight:normal;font-size:9.56400013px;font-family:CMR12;-inkscape-font-specification:CMR12;writing-mode:lr-tb;fill:#231f20;fill-opacity:1;fill-rule:nonzero;stroke:none"
               transform="matrix(1,0,0,-1,120.32284,2.4005713)"><tspan
                 id="tspan124"
                 y="0"
                 x="0">w</tspan></text>
<text
               id="text130"
               style="font-variant:normal;font-weight:normal;font-size:9.56400013px;font-family:CMR12;-inkscape-font-specification:CMR12;writing-mode:lr-tb;fill:#231f20;fill-opacity:1;fill-rule:nonzero;stroke:none"
               transform="matrix(1,0,0,-1,126.82445,2.4005713)"><tspan
                 id="tspan128"
                 y="0"
                 x="0 4.1603398 7.8520441">est</tspan></text>
<text
               id="text134"
               style="font-variant:normal;font-weight:normal;font-size:9.56400013px;font-family:CMR12;-inkscape-font-specification:CMR12;writing-mode:lr-tb;fill:#231f20;fill-opacity:1;fill-rule:nonzero;stroke:none"
               transform="matrix(1,0,0,-1,141.44304,2.4005713)"><tspan
                 id="tspan132"
                 y="0"
                 x="0">V</tspan></text>
<text
               id="text138"
               style="font-variant:normal;font-weight:normal;font-size:9.56400013px;font-family:CMR12;-inkscape-font-specification:CMR12;writing-mode:lr-tb;fill:#231f20;fill-opacity:1;fill-rule:nonzero;stroke:none"
               transform="matrix(1,0,0,-1,147.68164,2.4005713)"><tspan
                 id="tspan136"
                 y="0"
                 x="0">a</tspan></text>
<text
               id="text142"
               style="font-variant:normal;font-weight:normal;font-size:9.56400013px;font-family:CMR12;-inkscape-font-specification:CMR12;writing-mode:lr-tb;fill:#231f20;fill-opacity:1;fill-rule:nonzero;stroke:none"
               transform="matrix(1,0,0,-1,152.368,2.4005713)"><tspan
                 id="tspan140"
                 y="0"
                 x="0 2.601408 7.804224">lue</tspan></text>
<text
               id="text146"
               style="font-variant:normal;font-weight:normal;font-size:9.56400013px;font-family:CMR12;-inkscape-font-specification:CMR12;writing-mode:lr-tb;fill:#231f20;fill-opacity:1;fill-rule:nonzero;stroke:none"
               transform="matrix(1,0,0,-1,18.364859,115.26534)"><tspan
                 id="tspan144"
                 y="0"
                 x="0 4.6863599 9.3727198">25%</tspan></text>
<text
               id="text150"
               style="font-variant:normal;font-weight:normal;font-size:9.56400013px;font-family:CMR12;-inkscape-font-specification:CMR12;writing-mode:lr-tb;fill:#231f20;fill-opacity:1;fill-rule:nonzero;stroke:none"
               transform="matrix(1,0,0,-1,18.631695,82.198769)"><tspan
                 id="tspan148"
                 y="0"
                 x="0 4.6863599 9.3727198">25%</tspan></text>
<text
               id="text154"
               style="font-variant:normal;font-weight:normal;font-size:9.56400013px;font-family:CMR12;-inkscape-font-specification:CMR12;writing-mode:lr-tb;fill:#231f20;fill-opacity:1;fill-rule:nonzero;stroke:none"
               transform="matrix(1,0,0,-1,18.631695,50.465416)"><tspan
                 id="tspan152"
                 y="0"
                 x="0 4.6863599 9.3727198">25%</tspan></text>
<text
               id="text158"
               style="font-variant:normal;font-weight:normal;font-size:9.56400013px;font-family:CMR12;-inkscape-font-specification:CMR12;writing-mode:lr-tb;fill:#231f20;fill-opacity:1;fill-rule:nonzero;stroke:none"
               transform="matrix(1,0,0,-1,18.898531,15.798786)"><tspan
                 id="tspan156"
                 y="0"
                 x="0 4.6863599">25</tspan></text>
<path
               id="path160"
               style="fill:#231f20;fill-opacity:1;fill-rule:nonzero;stroke:none"
               d="M 179.08301,96.649002 V 40.789001" /><path
               id="path162"
               style="fill:#231f20;fill-opacity:1;fill-rule:nonzero;stroke:none"
               d="m 179.08301,41.442001 2.30501,1.402001 0.052,-0.078 -1.49299,-3.761002 c -0.288,-1.309997 -0.57601,-2.619999 -0.864,-3.93 -0.289,1.310001 -0.577,2.620003 -0.866,3.93 l -1.493,3.761002 0.039,0.078 2.31999,-1.402001" /><path
               id="path164"
               style="fill:#231f20;fill-opacity:1;fill-rule:nonzero;stroke:none"
               d="m 179.08301,95.996002 -2.30701,-1.402 -0.052,0.079 1.493,3.760002 c 0.28799,1.309998 0.577,2.619996 0.866,3.930006 0.28799,-1.31001 0.576,-2.620008 0.864,-3.930006 l 1.49299,-3.760002 -0.039,-0.079 -2.31801,1.402" /><path
               id="path166"
               style="fill:none;stroke:#231f20;stroke-width:1;stroke-linecap:butt;stroke-linejoin:miter;stroke-miterlimit:4;stroke-dasharray:none;stroke-opacity:1"
               d="M 179.08301,96.649002 V 40.789001" /><path
               id="path168"
               style="fill:#231f20;fill-opacity:1;fill-rule:nonzero;stroke:none"
               d="m 179.08301,41.442001 2.30501,1.402001 0.052,-0.078 -1.49299,-3.761002 c -0.288,-1.309997 -0.57601,-2.619999 -0.864,-3.93 -0.289,1.310001 -0.577,2.620003 -0.866,3.93 l -1.493,3.761002 0.039,0.078 2.31999,-1.402001" /><path
               id="path170"
               style="fill:#231f20;fill-opacity:1;fill-rule:nonzero;stroke:none"
               d="m 179.08301,95.996002 -2.30701,-1.402 -0.052,0.079 1.493,3.760002 c 0.28799,1.309998 0.577,2.619996 0.866,3.930006 0.28799,-1.31001 0.576,-2.620008 0.864,-3.930006 l 1.49299,-3.760002 -0.039,-0.079 -2.31801,1.402" /><path
               id="path172"
               style="fill:#231f20;fill-opacity:1;fill-rule:nonzero;stroke:none"
               d="m 179.08301,41.397003 2.14599,1.305 0.049,-0.073 -1.39101,-3.5 c -0.26801,-1.220002 -0.536,-2.439999 -0.804,-3.66 -0.269,1.220001 -0.538,2.439998 -0.806,3.66 l -1.39,3.5 0.036,0.073 2.16001,-1.305" /><path
               id="path174"
               style="fill:#231f20;fill-opacity:1;fill-rule:nonzero;stroke:none"
               d="m 179.08301,96.041008 -2.148,-1.305 -0.048,0.073 1.39,3.500992 c 0.268,1.219009 0.537,2.43901 0.806,3.659 0.268,-1.21999 0.53599,-2.439991 0.804,-3.659 l 1.39101,-3.500992 -0.037,-0.073 -2.158,1.305" /><path
               id="path176"
               style="fill:#231f20;fill-opacity:1;fill-rule:nonzero;stroke:none"
               d="M 241.88202,130.916 V 75.055" /><path
               id="path178"
               style="fill:#231f20;fill-opacity:1;fill-rule:nonzero;stroke:none"
               d="m 241.88202,75.708 2.306,1.402001 0.052,-0.07899 -1.49298,-3.760002 c -0.289,-1.308998 -0.57701,-2.620003 -0.86499,-3.930001 -0.289,1.309998 -0.576,2.621003 -0.86501,3.930001 l -1.49299,3.760002 0.039,0.07899 2.319,-1.402001" /><path
               id="path180"
               style="fill:#231f20;fill-opacity:1;fill-rule:nonzero;stroke:none"
               d="m 241.88202,130.263 -2.30602,-1.40199 -0.052,0.078 1.49299,3.76 c 0.288,1.31098 0.57601,2.62098 0.86501,3.93098 0.28798,-1.31 0.57599,-2.62 0.86499,-3.93098 l 1.49298,-3.76 -0.039,-0.078 -2.31898,1.40199" /><path
               id="path182"
               style="fill:none;stroke:#231f20;stroke-width:1;stroke-linecap:butt;stroke-linejoin:miter;stroke-miterlimit:4;stroke-dasharray:none;stroke-opacity:1"
               d="M 241.88202,130.916 V 75.055" /><path
               id="path184"
               style="fill:#231f20;fill-opacity:1;fill-rule:nonzero;stroke:none"
               d="m 241.88202,75.708 2.306,1.402001 0.052,-0.07899 -1.49298,-3.760002 c -0.289,-1.308998 -0.57701,-2.620003 -0.86499,-3.930001 -0.289,1.309998 -0.576,2.621003 -0.86501,3.930001 l -1.49299,3.760002 0.039,0.07899 2.319,-1.402001" /><path
               id="path186"
               style="fill:#231f20;fill-opacity:1;fill-rule:nonzero;stroke:none"
               d="m 241.88202,130.263 -2.30602,-1.40199 -0.052,0.078 1.49299,3.76 c 0.288,1.31098 0.57601,2.62098 0.86501,3.93098 0.28798,-1.31 0.57599,-2.62 0.86499,-3.93098 l 1.49298,-3.76 -0.039,-0.078 -2.31898,1.40199" /><path
               id="path188"
               style="fill:#231f20;fill-opacity:1;fill-rule:nonzero;stroke:none"
               d="m 241.88202,75.664001 2.14699,1.304001 0.048,-0.073 -1.39,-3.5 c -0.269,-1.220001 -0.53702,-2.439003 -0.80499,-3.659004 -0.26801,1.220001 -0.537,2.439003 -0.80501,3.659004 l -1.39,3.5 0.036,0.073 2.15901,-1.304001" /><path
               id="path190"
               style="fill:#231f20;fill-opacity:1;fill-rule:nonzero;stroke:none"
               d="m 241.88202,130.308 -2.147,-1.30499 -0.048,0.073 1.39,3.5 c 0.26801,1.22001 0.537,2.44001 0.80501,3.659 0.26797,-1.21899 0.53599,-2.43899 0.80499,-3.659 l 1.39,-3.5 -0.036,-0.073 -2.159,1.30499" /><path
               id="path192"
               style="fill:#231f20;fill-opacity:1;fill-rule:nonzero;stroke:none"
               d="M 242.14902,64.249001 V 8.3889999" /><path
               id="path194"
               style="fill:#231f20;fill-opacity:1;fill-rule:nonzero;stroke:none"
               d="m 242.14902,9.0410004 2.306,1.4020006 0.052,-0.079 -1.494,-3.7599999 c -0.28801,-1.309 -0.57601,-2.6199999 -0.864,-3.9300001 -0.28902,1.3100002 -0.57601,2.6210001 -0.86501,3.9300001 l -1.49299,3.7599999 0.039,0.079 2.31902,-1.4020006" /><path
               id="path196"
               style="fill:#231f20;fill-opacity:1;fill-rule:nonzero;stroke:none"
               d="m 242.14902,63.596004 -2.306,-1.402 -0.052,0.079 1.49299,3.760002 c 0.288,1.308998 0.57599,2.619995 0.86501,3.93 0.28799,-1.310005 0.57599,-2.621002 0.864,-3.93 l 1.494,-3.760002 -0.04,-0.079 -2.31799,1.402" /><path
               id="path198"
               style="fill:none;stroke:#231f20;stroke-width:1;stroke-linecap:butt;stroke-linejoin:miter;stroke-miterlimit:4;stroke-dasharray:none;stroke-opacity:1"
               d="M 242.14902,64.249001 V 8.3889999" /><path
               id="path200"
               style="fill:#231f20;fill-opacity:1;fill-rule:nonzero;stroke:none"
               d="m 242.14902,9.0410004 2.306,1.4020006 0.052,-0.079 -1.494,-3.7599999 c -0.28801,-1.309 -0.57601,-2.6199999 -0.864,-3.9300001 -0.28902,1.3100002 -0.57601,2.6210001 -0.86501,3.9300001 l -1.49299,3.7599999 0.039,0.079 2.31902,-1.4020006" /><path
               id="path202"
               style="fill:#231f20;fill-opacity:1;fill-rule:nonzero;stroke:none"
               d="m 242.14902,63.596004 -2.306,-1.402 -0.052,0.079 1.49299,3.760002 c 0.288,1.308998 0.57599,2.619995 0.86501,3.93 0.28799,-1.310005 0.57599,-2.621002 0.864,-3.93 l 1.494,-3.760002 -0.04,-0.079 -2.31799,1.402" /><path
               id="path204"
               style="fill:#231f20;fill-opacity:1;fill-rule:nonzero;stroke:none"
               d="m 242.14902,8.9970007 2.14599,1.3049993 0.049,-0.073 -1.39,-3.4999999 c -0.269,-1.2199998 -0.537,-2.4400001 -0.80499,-3.6599999 -0.26903,1.2199998 -0.53701,2.4400001 -0.806,3.6599999 l -1.38901,3.4999999 0.036,0.073 2.15903,-1.3049993" /><path
               id="path206"
               style="fill:#231f20;fill-opacity:1;fill-rule:nonzero;stroke:none"
               d="m 242.14902,63.641003 -2.14801,-1.305001 -0.047,0.073 1.38901,3.5 c 0.26899,1.220001 0.53697,2.440003 0.806,3.659996 0.26799,-1.219993 0.53599,-2.439995 0.80499,-3.659996 l 1.39,-3.5 -0.037,-0.073 -2.15799,1.305001" /><text
               id="text210"
               style="font-variant:normal;font-weight:normal;font-size:9.56400013px;font-family:CMR12;-inkscape-font-specification:CMR12;writing-mode:lr-tb;fill:#231f20;fill-opacity:1;fill-rule:nonzero;stroke:none"
               transform="matrix(1,0,0,-1,28.262199,15.799001)"><tspan
                 id="tspan208"
                 y="0"
                 x="0">%</tspan></text>
<text
               id="text214"
               style="font-variant:normal;font-weight:normal;font-size:9.56400013px;font-family:CMR12;-inkscape-font-specification:CMR12;writing-mode:lr-tb;fill:#231f20;fill-opacity:1;fill-rule:nonzero;stroke:none"
               transform="matrix(1,0,0,-1,181.89638,65.13298)"><tspan
                 id="tspan212"
                 y="0"
                 x="0 8.578908 11.180316 16.383133 19.500996 24.703812 29.906628 33.550514 37.710854 42.397213">Mid-Spread</tspan></text>
<text
               id="text218"
               style="font-variant:normal;font-weight:normal;font-size:9.56400013px;font-family:CMR12;-inkscape-font-specification:CMR12;writing-mode:lr-tb;fill:#231f20;fill-opacity:1;fill-rule:nonzero;stroke:none"
               transform="matrix(1,0,0,-1,247.92911,101.13284)"><tspan
                 id="tspan216"
                 y="0"
                 x="0 7.0199761 9.6213837 14.307744 19.510561 22.628424 27.83124 33.034058 36.67794 40.83828 45.524639">High-Spread</tspan></text>
<text
               id="text222"
               style="font-variant:normal;font-weight:normal;font-size:9.56400013px;font-family:CMR12;-inkscape-font-specification:CMR12;writing-mode:lr-tb;fill:#231f20;fill-opacity:1;fill-rule:nonzero;stroke:none"
               transform="matrix(1,0,0,-1,248.81569,37.932968)"><tspan
                 id="tspan220"
                 y="0"
                 x="0 5.853168">Lo</tspan></text>
<text
               id="text226"
               style="font-variant:normal;font-weight:normal;font-size:9.56400013px;font-family:CMR12;-inkscape-font-specification:CMR12;writing-mode:lr-tb;fill:#231f20;fill-opacity:1;fill-rule:nonzero;stroke:none"
               transform="matrix(1,0,0,-1,259.09509,37.932968)"><tspan
                 id="tspan224"
                 y="0"
                 x="0 6.7617478 9.879612 15.082428 20.285244 23.929129 28.089468 32.775829">w-Spread</tspan></text>
</g></g></g></g></g></svg>