<?xml version="1.0" encoding="UTF-8" standalone="no"?>
<svg
   xmlns:dc="http://purl.org/dc/elements/1.1/"
   xmlns:cc="http://creativecommons.org/ns#"
   xmlns:rdf="http://www.w3.org/1999/02/22-rdf-syntax-ns#"
   xmlns:svg="http://www.w3.org/2000/svg"
   xmlns="http://www.w3.org/2000/svg"
   viewBox="0 0 478.66666 54.666668"
   height="54.666668"
   width="478.66666"
   xml:space="preserve"
   id="svg2"
   version="1.1"><metadata
     id="metadata8"><rdf:RDF><cc:Work
         rdf:about=""><dc:format>image/svg+xml</dc:format><dc:type
           rdf:resource="http://purl.org/dc/dcmitype/StillImage" /></cc:Work></rdf:RDF></metadata><defs
     id="defs6"><clipPath
       id="clipPath24"
       clipPathUnits="userSpaceOnUse"><path
         id="path22"
         d="M 0,0 H 359 V 41 H 0 Z" /></clipPath></defs><g
     transform="matrix(1.3333333,0,0,-1.3333333,0,54.666667)"
     id="g10"><g
       id="g12" /><g
       id="g14" /><g
       id="g16"><g
         id="g18"><g
           clip-path="url(#clipPath24)"
           id="g20"><g
             id="g26" /><g
             id="g28"><path
               id="path30"
               style="fill:none;stroke:#231f20;stroke-width:1;stroke-linecap:butt;stroke-linejoin:miter;stroke-miterlimit:4;stroke-dasharray:none;stroke-opacity:1"
               d="M 51.026001,35.915001 H 118.706 V 11.115 H 51.026001 Z m 67.680009,0 H 147.026 V 11.115 h -28.31999 z" /><path
               id="path32"
               style="fill:#231f20;fill-opacity:1;fill-rule:nonzero;stroke:none"
               d="m 188.692,25.105001 c 0,-1.159999 -0.93999,-2.1 -2.09999,-2.1 -1.16,0 -2.10001,0.940001 -2.10001,2.1 0,1.16 0.94001,2.100001 2.10001,2.100001 1.16,0 2.09999,-0.940001 2.09999,-2.100001" /><path
               id="path34"
               style="fill:none;stroke:#231f20;stroke-width:1;stroke-linecap:butt;stroke-linejoin:miter;stroke-miterlimit:4;stroke-dasharray:none;stroke-opacity:1"
               d="m 188.692,25.105001 c 0,-1.159999 -0.93999,-2.1 -2.09999,-2.1 -1.16,0 -2.10001,0.940001 -2.10001,2.1 0,1.16 0.94001,2.100001 2.10001,2.100001 1.16,0 2.09999,-0.940001 2.09999,-2.100001 z" /><path
               id="path36"
               style="fill:#231f20;fill-opacity:1;fill-rule:nonzero;stroke:none"
               d="m 349.492,24.705002 c 0,-1.16 -0.94,-2.100001 -2.09997,-2.100001 -1.16,0 -2.10001,0.940001 -2.10001,2.100001 0,1.16 0.94001,2.1 2.10001,2.1 1.15997,0 2.09997,-0.94 2.09997,-2.1" /><path
               id="path38"
               style="fill:none;stroke:#231f20;stroke-width:1;stroke-linecap:butt;stroke-linejoin:miter;stroke-miterlimit:4;stroke-dasharray:none;stroke-opacity:1"
               d="m 349.492,24.705002 c 0,-1.16 -0.94,-2.100001 -2.09997,-2.100001 -1.16,0 -2.10001,0.940001 -2.10001,2.100001 0,1.16 0.94001,2.1 2.10001,2.1 1.15997,0 2.09997,-0.94 2.09997,-2.1 z" /><text
               id="text42"
               style="font-variant:normal;font-weight:normal;font-size:9.56400013px;font-family:CMR12;-inkscape-font-specification:CMR12;writing-mode:lr-tb;fill:#231f20;fill-opacity:1;fill-rule:nonzero;stroke:none"
               transform="matrix(1,0,0,-1,0,33.2001)"><tspan
                 id="tspan40"
                 y="0"
                 x="0 6.627852 11.314212 14.958097 20.160912 24.847273 30.050089 34.73645">Barbados</tspan></text>
<text
               id="text46"
               style="font-variant:normal;font-weight:normal;font-size:9.56400013px;font-family:CMR12;-inkscape-font-specification:CMR12;writing-mode:lr-tb;fill:#231f20;fill-opacity:1;fill-rule:nonzero;stroke:none"
               transform="matrix(1,0,0,-1,152.35262,33.2001)"><tspan
                 id="tspan44"
                 y="0"
                 x="0 4.8106918 9.4970522 17.301275 21.987637 24.589045 28.749384">Jamaica</tspan></text>
<text
               id="text50"
               style="font-variant:normal;font-weight:normal;font-size:9.56400013px;font-family:CMR12;-inkscape-font-specification:CMR12;writing-mode:lr-tb;fill:#231f20;fill-opacity:1;fill-rule:nonzero;stroke:none"
               transform="matrix(1,0,0,-1,324.48837,32.800323)"><tspan
                 id="tspan48"
                 y="0"
                 x="0 6.7617478 11.964564 17.167379">Cuba</tspan></text>
<text
               id="text54"
               style="font-variant:normal;font-weight:normal;font-size:9.56400013px;font-family:CMR12;-inkscape-font-specification:CMR12;writing-mode:lr-tb;fill:#231f20;fill-opacity:1;fill-rule:nonzero;stroke:none"
               transform="matrix(1,0,0,-1,29.864567,3.1997428)"><tspan
                 id="tspan52"
                 y="0"
                 x="0 4.6863599 7.2877679">0.0</tspan></text>
<text
               id="text58"
               style="font-variant:normal;font-weight:normal;font-size:9.56400013px;font-family:CMR12;-inkscape-font-specification:CMR12;writing-mode:lr-tb;fill:#231f20;fill-opacity:1;fill-rule:nonzero;stroke:none"
               transform="matrix(1,0,0,-1,179.75253,4.0002494)"><tspan
                 id="tspan56"
                 y="0"
                 x="0 4.6863599 9.3727198 11.974128">65.7</tspan></text>
<text
               id="text62"
               style="font-variant:normal;font-weight:normal;font-size:9.56400013px;font-family:CMR12;-inkscape-font-specification:CMR12;writing-mode:lr-tb;fill:#231f20;fill-opacity:1;fill-rule:nonzero;stroke:none"
               transform="matrix(1,0,0,-1,336.72263,2.4001923)"><tspan
                 id="tspan60"
                 y="0"
                 x="0 4.6863599 9.3727198 14.05908 16.660488">518.8</tspan></text>
<path
               id="path64"
               style="fill:#ffffff;fill-opacity:1;fill-rule:nonzero;stroke:none"
               d="m 38.047001,26.253002 -5.349999,-5.35" /><path
               id="path66"
               style="fill:none;stroke:#231f20;stroke-width:1;stroke-linecap:butt;stroke-linejoin:miter;stroke-miterlimit:4;stroke-dasharray:none;stroke-opacity:1"
               d="m 38.047001,26.253002 -5.349999,-5.35" /><path
               id="path68"
               style="fill:#ffffff;fill-opacity:1;fill-rule:nonzero;stroke:none"
               d="M 32.771,26.228001 38.122002,20.878" /><path
               id="path70"
               style="fill:none;stroke:#231f20;stroke-width:1;stroke-linecap:butt;stroke-linejoin:miter;stroke-miterlimit:4;stroke-dasharray:none;stroke-opacity:1"
               d="M 32.771,26.228001 38.122002,20.878" /><path
               id="path72"
               style="fill:#ffffff;fill-opacity:1;fill-rule:nonzero;stroke:none"
               d="M 167.93102,27.937002 162.58,22.586" /><path
               id="path74"
               style="fill:none;stroke:#231f20;stroke-width:1;stroke-linecap:butt;stroke-linejoin:miter;stroke-miterlimit:4;stroke-dasharray:none;stroke-opacity:1"
               d="M 167.93102,27.937002 162.58,22.586" /><path
               id="path76"
               style="fill:#ffffff;fill-opacity:1;fill-rule:nonzero;stroke:none"
               d="m 162.65501,27.912001 5.34999,-5.351" /><path
               id="path78"
               style="fill:none;stroke:#231f20;stroke-width:1;stroke-linecap:butt;stroke-linejoin:miter;stroke-miterlimit:4;stroke-dasharray:none;stroke-opacity:1"
               d="m 162.65501,27.912001 5.34999,-5.351" /></g></g></g></g></g></svg>