<?xml version="1.0" encoding="UTF-8" standalone="no"?>
<svg
   xmlns:dc="http://purl.org/dc/elements/1.1/"
   xmlns:cc="http://creativecommons.org/ns#"
   xmlns:rdf="http://www.w3.org/1999/02/22-rdf-syntax-ns#"
   xmlns:svg="http://www.w3.org/2000/svg"
   xmlns="http://www.w3.org/2000/svg"
   viewBox="0 0 473.33334 89.333336"
   height="89.333336"
   width="473.33334"
   xml:space="preserve"
   id="svg2"
   version="1.1"><metadata
     id="metadata8"><rdf:RDF><cc:Work
         rdf:about=""><dc:format>image/svg+xml</dc:format><dc:type
           rdf:resource="http://purl.org/dc/dcmitype/StillImage" /></cc:Work></rdf:RDF></metadata><defs
     id="defs6"><clipPath
       id="clipPath24"
       clipPathUnits="userSpaceOnUse"><path
         id="path22"
         d="M 0,0 H 355 V 67 H 0 Z" /></clipPath><clipPath
       id="clipPath66"
       clipPathUnits="userSpaceOnUse"><path
         id="path64"
         d="M 0,0.05999756 H 354.83701 V 66.539002 H 0 Z" /></clipPath><clipPath
       id="clipPath144"
       clipPathUnits="userSpaceOnUse"><path
         id="path142"
         d="M 0,0.05999756 H 354.83701 V 66.539002 H 0 Z" /></clipPath><clipPath
       id="clipPath158"
       clipPathUnits="userSpaceOnUse"><path
         id="path156"
         d="M 0,0.05999756 H 354.83701 V 66.539002 H 0 Z" /></clipPath></defs><g
     transform="matrix(1.3333333,0,0,-1.3333333,0,89.333333)"
     id="g10"><g
       id="g12" /><g
       id="g14" /><g
       id="g16"><g
         id="g18"><g
           clip-path="url(#clipPath24)"
           id="g20"><g
             id="g26" /><g
             id="g28"><path
               id="path30"
               style="fill:none;stroke:#231f20;stroke-width:1;stroke-linecap:butt;stroke-linejoin:miter;stroke-miterlimit:4;stroke-dasharray:none;stroke-opacity:1"
               d="m 150.70401,40.950001 h 52.48 v -28.16 h -52.48 z m 35.414,-27.734 v 27.307002" /><text
               id="text34"
               style="font-variant:normal;font-weight:normal;font-size:7.65119982px;font-family:CMR12;-inkscape-font-specification:CMR12;writing-mode:lr-tb;fill:#231f20;fill-opacity:1;fill-rule:nonzero;stroke:none"
               transform="matrix(1,0,0,-1,197.98302,44.160198)"><tspan
                 id="tspan32"
                 y="0"
                 x="0 5.6159806">UQ</tspan></text>
<path
               id="path36"
               style="fill:#231f20;fill-opacity:1;fill-rule:nonzero;stroke:none"
               d="m 186.54301,58.016003 v -12.8" /><path
               id="path38"
               style="fill:none;stroke:#231f20;stroke-width:0.80000001;stroke-linecap:butt;stroke-linejoin:miter;stroke-miterlimit:4;stroke-dasharray:none;stroke-opacity:1"
               d="m 186.54301,58.016003 v -12.8" /><path
               id="path40"
               style="fill:#231f20;fill-opacity:1;fill-rule:nonzero;stroke:none"
               d="m 186.54301,45.634003 1.476,0.896999 0.033,-0.05 -0.95498,-2.406002 c -0.18401,-0.838997 -0.36802,-1.676998 -0.55401,-2.515999 -0.18301,0.839001 -0.369,1.677002 -0.55302,2.515999 l -0.95499,2.406002 0.025,0.05 1.48301,-0.896999" /><path
               id="path42"
               style="fill:#231f20;fill-opacity:1;fill-rule:nonzero;stroke:none"
               d="m 154.97,3.8299999 h 43.093" /><path
               id="path44"
               style="fill:#231f20;fill-opacity:1;fill-rule:nonzero;stroke:none"
               d="m 197.41101,3.8299999 -1.403,2.3050003 0.078,0.053 3.76101,-1.494 c 1.30999,-0.2880001 2.61999,-0.5760002 3.92999,-0.8640003 -1.31,-0.2889998 -2.62,-0.5769996 -3.92999,-0.8649997 l -3.76101,-1.4940001 -0.078,0.04 1.403,2.3189999" /><path
               id="path46"
               style="fill:#231f20;fill-opacity:1;fill-rule:nonzero;stroke:none"
               d="M 155.623,3.8299999 157.02501,1.524 l -0.079,-0.053 -3.759,1.4940001 c -1.311,0.2880001 -2.621,0.5759999 -3.931,0.8649997 1.31,0.2880001 2.62,0.5760002 3.931,0.8640003 l 3.759,1.494 0.079,-0.04 -1.40201,-2.3180003" /><path
               id="path48"
               style="fill:none;stroke:#231f20;stroke-width:0.80000001;stroke-linecap:butt;stroke-linejoin:miter;stroke-miterlimit:4;stroke-dasharray:none;stroke-opacity:1"
               d="m 154.97,3.8299999 h 43.093" /><path
               id="path50"
               style="fill:#231f20;fill-opacity:1;fill-rule:nonzero;stroke:none"
               d="m 197.54201,3.8299999 -1.123,1.8440004 0.063,0.042 3.00798,-1.1949997 c 1.04903,-0.23 2.09602,-0.4610005 3.14401,-0.6910005 -1.04799,-0.2309997 -2.09498,-0.4609997 -3.14401,-0.6919997 l -3.00798,-1.1950001 -0.063,0.031 1.123,1.8559998" /><path
               id="path52"
               style="fill:#231f20;fill-opacity:1;fill-rule:nonzero;stroke:none"
               d="m 155.49301,3.8299999 1.121,-1.8449998 -0.063,-0.042 -3.008,1.1950001 c -1.048,0.2300001 -2.096,0.461 -3.14401,0.6919997 1.04801,0.23 2.09601,0.4610005 3.14401,0.6910005 l 3.008,1.1949997 0.063,-0.031 -1.121,-1.8550005" /><text
               id="text56"
               style="font-variant:normal;font-weight:normal;font-size:7.65119982px;font-family:CMR12;-inkscape-font-specification:CMR12;writing-mode:lr-tb;fill:#231f20;fill-opacity:1;fill-rule:nonzero;stroke:none"
               transform="matrix(1,0,0,-1,176.37201,60.800297)"><tspan
                 id="tspan54"
                 y="0"
                 x="0 6.8631263 10.191398 14.353651 16.434776 20.183865">Median</tspan></text>
<path
               id="path58"
               style="fill:#ffffff;fill-opacity:1;fill-rule:nonzero;stroke:none"
               d="m 169.47701,8.0960007 h 17.92 V 0.4160009 h -17.92 z" /></g><g
             id="g60"><g
               clip-path="url(#clipPath66)"
               id="g62"><path
                 id="path68"
                 style="fill:none;stroke:#ffffff;stroke-width:0.80000001;stroke-linecap:butt;stroke-linejoin:miter;stroke-miterlimit:4;stroke-dasharray:none;stroke-opacity:1"
                 d="M 169.47701,8.0960007 H 187.397 V 0.41600084 h -17.91999 z" /></g></g><g
             id="g70"><text
               id="text74"
               style="font-variant:normal;font-weight:normal;font-size:7.65119982px;font-family:CMR12;-inkscape-font-specification:CMR12;writing-mode:lr-tb;fill:#231f20;fill-opacity:1;fill-rule:nonzero;stroke:none"
               transform="matrix(1,0,0,-1,171.47701,1.9203999)"><tspan
                 id="tspan72"
                 y="0"
                 x="0 2.7008736 8.5310879">IQR</tspan></text>
<path
               id="path76"
               style="fill:none;stroke:#231f20;stroke-width:0.80000001;stroke-linecap:butt;stroke-linejoin:miter;stroke-miterlimit:4;stroke-dasharray:none;stroke-opacity:1"
               d="m 208.30301,35.403 h 64" /><path
               id="path78"
               style="fill:#231f20;fill-opacity:1;fill-rule:nonzero;stroke:none"
               d="m 271.677,35.403 -1.34598,2.214001 0.075,0.049 3.609,-1.432998 c 1.258,-0.277001 2.516,-0.553002 3.77399,-0.830002 -1.25799,-0.276997 -2.51599,-0.553002 -3.77399,-0.829998 l -3.609,-1.434002 -0.075,0.038 1.34598,2.225998" /><path
               id="path80"
               style="fill:#231f20;fill-opacity:1;fill-rule:nonzero;stroke:none"
               d="m 208.92999,35.403 1.34603,-2.213997 -0.076,-0.05 -3.61,1.434002 c -1.25699,0.276996 -2.514,0.553001 -3.77199,0.829998 1.25799,0.276001 2.515,0.553001 3.77199,0.830002 l 3.61,1.432998 0.076,-0.037 -1.34603,-2.226002" /><path
               id="path82"
               style="fill:#ffffff;fill-opacity:1;fill-rule:nonzero;stroke:none"
               d="m 224.51701,39.243 h 26.88 v -7.68 h -26.88 z" /><path
               id="path84"
               style="fill:none;stroke:#ffffff;stroke-width:0.80000001;stroke-linecap:butt;stroke-linejoin:miter;stroke-miterlimit:4;stroke-dasharray:none;stroke-opacity:1"
               d="m 224.51701,39.243 h 26.88001 v -7.68 h -26.88001 z" /><text
               id="text88"
               style="font-variant:normal;font-weight:normal;font-size:7.65119982px;font-family:CMR12;-inkscape-font-specification:CMR12;writing-mode:lr-tb;fill:#231f20;fill-opacity:1;fill-rule:nonzero;stroke:none"
               transform="matrix(1,0,0,-1,226.14999,32.640697)"><tspan
                 id="tspan86"
                 y="0"
                 x="0 3.7490878 5.830214 9.5793018 12.280175 18.11039">1.5IQR</tspan></text>
<path
               id="path90"
               style="fill:#231f20;fill-opacity:1;fill-rule:nonzero;stroke:none"
               d="M 276.99802,61.429005 V 23.883001" /><path
               id="path92"
               style="fill:none;stroke:#231f20;stroke-width:0.80000001;stroke-linecap:butt;stroke-linejoin:miter;stroke-miterlimit:4;stroke-dasharray:none;stroke-opacity:1"
               d="M 276.99802,61.429005 V 23.883001 M 80.091003,35.403 H 144.09" /><path
               id="path94"
               style="fill:#231f20;fill-opacity:1;fill-rule:nonzero;stroke:none"
               d="m 143.464,35.403 -1.34599,2.214001 0.075,0.049 3.61,-1.432998 C 147.061,35.956001 148.31801,35.68 149.576,35.403 c -1.25799,-0.276997 -2.515,-0.553002 -3.77299,-0.829998 l -3.61,-1.434002 -0.075,0.038 1.34599,2.225998" /><path
               id="path96"
               style="fill:#231f20;fill-opacity:1;fill-rule:nonzero;stroke:none"
               d="m 80.717003,35.403 1.346001,-2.213997 -0.075,-0.05 -3.610001,1.434002 c -1.257004,0.276996 -2.514999,0.553001 -3.773003,0.829998 1.258004,0.276001 2.515999,0.553001 3.773003,0.830002 l 3.610001,1.432998 0.075,-0.037 L 80.717003,35.403" /><path
               id="path98"
               style="fill:#ffffff;fill-opacity:1;fill-rule:nonzero;stroke:none"
               d="M 96.304001,39.243 H 123.184 v -7.68 H 96.304001 Z" /><path
               id="path100"
               style="fill:none;stroke:#ffffff;stroke-width:0.80000001;stroke-linecap:butt;stroke-linejoin:miter;stroke-miterlimit:4;stroke-dasharray:none;stroke-opacity:1"
               d="M 96.304001,39.243 H 123.184 v -7.68 H 96.304001 Z" /><text
               id="text104"
               style="font-variant:normal;font-weight:normal;font-size:7.65119982px;font-family:CMR12;-inkscape-font-specification:CMR12;writing-mode:lr-tb;fill:#231f20;fill-opacity:1;fill-rule:nonzero;stroke:none"
               transform="matrix(1,0,0,-1,97.937004,32.641098)"><tspan
                 id="tspan102"
                 y="0"
                 x="0 3.7490878 5.830214 9.5793018 12.280175 18.11039">1.5IQR</tspan></text>
<path
               id="path106"
               style="fill:#231f20;fill-opacity:1;fill-rule:nonzero;stroke:none"
               d="M 74.544006,63.563004 V 26.016001" /><path
               id="path108"
               style="fill:none;stroke:#231f20;stroke-width:0.80000001;stroke-linecap:butt;stroke-linejoin:miter;stroke-miterlimit:4;stroke-dasharray:none;stroke-opacity:1"
               d="M 74.544006,63.563004 V 26.016001 m -63.573005,-6.4 H 138.97101" /><path
               id="path110"
               style="fill:#231f20;fill-opacity:1;fill-rule:nonzero;stroke:none"
               d="m 137.71701,19.616001 -2.692,2.213999 0.151,0.05 7.21899,-1.433998 c 2.51601,-0.277 5.03101,-0.552999 7.54601,-0.83 -2.515,-0.277 -5.03,-0.552999 -7.54601,-0.829 l -7.21899,-1.434 -0.151,0.038 2.692,2.225" /><path
               id="path112"
               style="fill:#231f20;fill-opacity:1;fill-rule:nonzero;stroke:none"
               d="M 12.225,19.616001 14.917001,17.402 14.765,17.353 7.5460005,18.787 C 5.0310001,19.063002 2.516,19.339001 0,19.616001 c 2.516,0.277001 5.0310001,0.553 7.5460005,0.83 l 7.2189995,1.433998 0.152001,-0.038 -2.692001,-2.226" /><path
               id="path114"
               style="fill:#ffffff;fill-opacity:1;fill-rule:nonzero;stroke:none"
               d="m 61.958004,23.029999 h 26.880001 v -7.68 H 61.958004 Z" /><path
               id="path116"
               style="fill:none;stroke:#ffffff;stroke-width:0.80000001;stroke-linecap:butt;stroke-linejoin:miter;stroke-miterlimit:4;stroke-dasharray:none;stroke-opacity:1"
               d="M 61.958004,23.029999 H 88.838005 V 15.349998 H 61.958004 Z" /><text
               id="text120"
               style="font-variant:normal;font-weight:normal;font-size:7.65119982px;font-family:CMR12;-inkscape-font-specification:CMR12;writing-mode:lr-tb;fill:#231f20;fill-opacity:1;fill-rule:nonzero;stroke:none"
               transform="matrix(1,0,0,-1,66.558098,16.854)"><tspan
                 id="tspan118"
                 y="0"
                 x="0 3.7490878 6.4499617 12.280175">3IQR</tspan></text>
<path
               id="path122"
               style="fill:none;stroke:#231f20;stroke-width:0.80000001;stroke-linecap:butt;stroke-linejoin:miter;stroke-miterlimit:4;stroke-dasharray:none;stroke-opacity:1"
               d="M 215.34401,18.336 H 343.34402" /><path
               id="path124"
               style="fill:#231f20;fill-opacity:1;fill-rule:nonzero;stroke:none"
               d="m 342.09,18.336 -2.69098,2.213999 0.14999,0.05 7.219,-1.434 c 2.51602,-0.276001 5.031,-0.552999 7.54602,-0.83 -2.51502,-0.276001 -5.03,-0.552 -7.54602,-0.829999 l -7.219,-1.433001 -0.14999,0.037 L 342.09,18.336" /><path
               id="path126"
               style="fill:#231f20;fill-opacity:1;fill-rule:nonzero;stroke:none"
               d="m 216.59801,18.336 2.69198,-2.212999 -0.15197,-0.05 -7.21901,1.433001 c -2.514,0.277999 -5.03,0.553998 -7.545,0.829999 2.515,0.277001 5.031,0.553999 7.545,0.83 l 7.21901,1.434 0.15197,-0.038 -2.69198,-2.226" /><path
               id="path128"
               style="fill:#ffffff;fill-opacity:1;fill-rule:nonzero;stroke:none"
               d="m 266.33102,21.749001 h 26.879 v -7.68 h -26.879 z" /><path
               id="path130"
               style="fill:none;stroke:#ffffff;stroke-width:0.80000001;stroke-linecap:butt;stroke-linejoin:miter;stroke-miterlimit:4;stroke-dasharray:none;stroke-opacity:1"
               d="m 266.33102,21.749001 h 26.879 V 14.069 h -26.879 z" /><text
               id="text134"
               style="font-variant:normal;font-weight:normal;font-size:7.65119982px;font-family:CMR12;-inkscape-font-specification:CMR12;writing-mode:lr-tb;fill:#231f20;fill-opacity:1;fill-rule:nonzero;stroke:none"
               transform="matrix(1,0,0,-1,270.931,15.573799)"><tspan
                 id="tspan132"
                 y="0"
                 x="0 3.7490878 6.4499617 12.280175">3IQR</tspan></text>
<path
               id="path136"
               style="fill:#231f20;fill-opacity:1;fill-rule:nonzero;stroke:none"
               d="M 354.43701,43.082001 V 5.5370002" /></g><g
             id="g138"><g
               clip-path="url(#clipPath144)"
               id="g140"><path
                 id="path146"
                 style="fill:none;stroke:#231f20;stroke-width:0.80000001;stroke-linecap:butt;stroke-linejoin:miter;stroke-miterlimit:4;stroke-dasharray:none;stroke-opacity:1"
                 d="M 354.43701,43.082001 V 5.5370002" /></g></g><g
             id="g148"><path
               id="path150"
               style="fill:#231f20;fill-opacity:1;fill-rule:nonzero;stroke:none"
               d="M 0.72999996,43.082001 V 5.5370002" /></g><g
             id="g152"><g
               clip-path="url(#clipPath158)"
               id="g154"><path
                 id="path160"
                 style="fill:none;stroke:#231f20;stroke-width:0.80000001;stroke-linecap:butt;stroke-linejoin:miter;stroke-miterlimit:4;stroke-dasharray:none;stroke-opacity:1"
                 d="M 0.72999996,43.082001 V 5.5370002" /></g></g><g
             id="g162"><path
               id="path164"
               style="fill:#231f20;fill-opacity:1;fill-rule:nonzero;stroke:none"
               d="m 150.70401,26.869001 h -23.04" /><path
               id="path166"
               style="fill:none;stroke:#231f20;stroke-width:0.80000001;stroke-linecap:butt;stroke-linejoin:miter;stroke-miterlimit:4;stroke-dasharray:3, 3, 3, 3, 3, 3;stroke-dashoffset:0;stroke-opacity:1"
               d="m 150.70401,26.869001 h -23.04" /><path
               id="path168"
               style="fill:#231f20;fill-opacity:1;fill-rule:nonzero;stroke:none"
               d="M 226.43701,26.016001 H 203.397" /><path
               id="path170"
               style="fill:none;stroke:#231f20;stroke-width:0.80000001;stroke-linecap:butt;stroke-linejoin:miter;stroke-miterlimit:4;stroke-dasharray:3, 3, 3, 3, 3, 3;stroke-dashoffset:0;stroke-opacity:1"
               d="M 226.43701,26.016001 H 203.397" /><path
               id="path172"
               style="fill:none;stroke:#231f20;stroke-width:0.80000001;stroke-linecap:butt;stroke-linejoin:miter;stroke-miterlimit:4;stroke-dasharray:none;stroke-opacity:1"
               d="m 246.48999,26.016001 c 0,-1.296002 -1.05098,-2.347 -2.34598,-2.347 -1.29699,0 -2.347,1.050998 -2.347,2.347 0,1.296001 1.05001,2.347 2.347,2.347 1.295,0 2.34598,-1.050999 2.34598,-2.347 z m -133.97298,0.427 c 0,-1.296 -1.05101,-2.347 -2.34701,-2.347 -1.29599,0 -2.34699,1.051 -2.34699,2.347 0,1.296001 1.051,2.346998 2.34699,2.346998 1.296,0 2.34701,-1.050997 2.34701,-2.346998 z" /><path
               id="path174"
               style="fill:#231f20;fill-opacity:1;fill-rule:nonzero;stroke:none"
               d="m 291.71701,26.443001 c 0,-1.296 -1.04999,-2.347 -2.34701,-2.347 -1.29599,0 -2.34699,1.051 -2.34699,2.347 0,1.296001 1.051,2.346998 2.34699,2.346998 1.29702,0 2.34701,-1.050997 2.34701,-2.346998" /><path
               id="path176"
               style="fill:none;stroke:#231f20;stroke-width:0.80000001;stroke-linecap:butt;stroke-linejoin:miter;stroke-miterlimit:4;stroke-dasharray:none;stroke-opacity:1"
               d="m 291.71701,26.443001 c 0,-1.296 -1.04999,-2.347 -2.34701,-2.347 -1.29599,0 -2.34699,1.051 -2.34699,2.347 0,1.296001 1.051,2.346998 2.34699,2.346998 1.29702,0 2.34701,-1.050997 2.34701,-2.346998 z" /><path
               id="path178"
               style="fill:#231f20;fill-opacity:1;fill-rule:nonzero;stroke:none"
               d="m 10.889001,26.824001 c 0,-1.295999 -1.0510007,-2.347 -2.3470002,-2.347 -1.2960005,0 -2.3470006,1.051001 -2.3470006,2.347 0,1.295998 1.0510001,2.345999 2.3470006,2.345999 1.2959995,0 2.3470002,-1.050001 2.3470002,-2.345999" /><path
               id="path180"
               style="fill:none;stroke:#231f20;stroke-width:0.80000001;stroke-linecap:butt;stroke-linejoin:miter;stroke-miterlimit:4;stroke-dasharray:none;stroke-opacity:1"
               d="m 10.889001,26.824001 c 0,-1.295999 -1.0510007,-2.347 -2.3470002,-2.347 -1.2960005,0 -2.3470006,1.051001 -2.3470006,2.347 0,1.295998 1.0510001,2.345999 2.3470006,2.345999 1.2959995,0 2.3470002,-1.050001 2.3470002,-2.345999 z" /><text
               id="text184"
               style="font-variant:normal;font-weight:normal;font-size:7.65119982px;font-family:CMR12;-inkscape-font-specification:CMR12;writing-mode:lr-tb;fill:#231f20;fill-opacity:1;fill-rule:nonzero;stroke:none"
               transform="matrix(1,0,0,-1,145.38301,43.388199)"><tspan
                 id="tspan182"
                 y="0"
                 x="0 4.6825342">LQ</tspan></text>
<path
               id="path186"
               style="fill:#ffffff;fill-opacity:1;fill-rule:nonzero;stroke:none"
               d="m 128.647,29.344002 -5.35,-5.350001" /><path
               id="path188"
               style="fill:none;stroke:#231f20;stroke-width:1;stroke-linecap:butt;stroke-linejoin:miter;stroke-miterlimit:4;stroke-dasharray:none;stroke-opacity:1"
               d="m 128.647,29.344002 -5.35,-5.350001" /><path
               id="path190"
               style="fill:#ffffff;fill-opacity:1;fill-rule:nonzero;stroke:none"
               d="m 123.37301,29.318001 5.35,-5.348999" /><path
               id="path192"
               style="fill:none;stroke:#231f20;stroke-width:1;stroke-linecap:butt;stroke-linejoin:miter;stroke-miterlimit:4;stroke-dasharray:none;stroke-opacity:1"
               d="m 123.37301,29.318001 5.35,-5.348999" /><path
               id="path194"
               style="fill:#ffffff;fill-opacity:1;fill-rule:nonzero;stroke:none"
               d="m 231.58101,28.811001 -5.34999,-5.351002" /><path
               id="path196"
               style="fill:none;stroke:#231f20;stroke-width:1;stroke-linecap:butt;stroke-linejoin:miter;stroke-miterlimit:4;stroke-dasharray:none;stroke-opacity:1"
               d="m 231.58101,28.811001 -5.34999,-5.351002" /><path
               id="path198"
               style="fill:#ffffff;fill-opacity:1;fill-rule:nonzero;stroke:none"
               d="m 226.30602,28.785002 5.34999,-5.349001" /><path
               id="path200"
               style="fill:none;stroke:#231f20;stroke-width:1;stroke-linecap:butt;stroke-linejoin:miter;stroke-miterlimit:4;stroke-dasharray:none;stroke-opacity:1"
               d="m 226.30602,28.785002 5.34999,-5.349001" /></g></g></g></g></g></svg>