<?xml version="1.0" encoding="UTF-8" standalone="no"?>
<svg
   xmlns:dc="http://purl.org/dc/elements/1.1/"
   xmlns:cc="http://creativecommons.org/ns#"
   xmlns:rdf="http://www.w3.org/1999/02/22-rdf-syntax-ns#"
   xmlns:svg="http://www.w3.org/2000/svg"
   xmlns="http://www.w3.org/2000/svg"
   viewBox="0 0 221.33333 189.33333"
   height="189.33333"
   width="221.33333"
   xml:space="preserve"
   id="svg2"
   version="1.1"><metadata
     id="metadata8"><rdf:RDF><cc:Work
         rdf:about=""><dc:format>image/svg+xml</dc:format><dc:type
           rdf:resource="http://purl.org/dc/dcmitype/StillImage" /></cc:Work></rdf:RDF></metadata><defs
     id="defs6"><clipPath
       id="clipPath24"
       clipPathUnits="userSpaceOnUse"><path
         id="path22"
         d="M 0,0 H 166 V 142 H 0 Z" /></clipPath></defs><g
     transform="matrix(1.3333333,0,0,-1.3333333,0,189.33333)"
     id="g10"><g
       id="g12" /><g
       id="g14" /><g
       id="g16"><g
         id="g18"><g
           clip-path="url(#clipPath24)"
           id="g20"><g
             id="g26" /><g
             id="g28"><path
               id="path30"
               style="fill:#231f20;fill-opacity:1;fill-rule:nonzero;stroke:none"
               d="M 106.898,135.05101 H 46.099003" /><path
               id="path32"
               style="fill:none;stroke:#231f20;stroke-width:1;stroke-linecap:butt;stroke-linejoin:miter;stroke-miterlimit:4;stroke-dasharray:none;stroke-opacity:1"
               d="M 106.898,135.05101 H 46.099003" /><path
               id="path34"
               style="fill:#231f20;fill-opacity:1;fill-rule:nonzero;stroke:none"
               d="m 46.751003,135.05101 1.402001,-2.306 -0.079,-0.053 -3.759998,1.494 c -1.309002,0.288 -2.620003,0.57601 -3.93,0.86501 1.309997,0.28799 2.620998,0.57599 3.93,0.864 l 3.759998,1.494 0.079,-0.04 -1.402001,-2.31799" /><path
               id="path36"
               style="fill:#231f20;fill-opacity:1;fill-rule:nonzero;stroke:none"
               d="M 106.07201,102.186 H 45.272003" /><path
               id="path38"
               style="fill:none;stroke:#231f20;stroke-width:1;stroke-linecap:butt;stroke-linejoin:miter;stroke-miterlimit:4;stroke-dasharray:none;stroke-opacity:1"
               d="M 106.07201,102.186 H 45.272003" /><path
               id="path40"
               style="fill:#231f20;fill-opacity:1;fill-rule:nonzero;stroke:none"
               d="m 45.925003,102.186 1.402,-2.306003 -0.079,-0.05199 -3.759998,1.493003 c -1.309002,0.28799 -2.619999,0.57599 -3.930001,0.86499 1.310002,0.28801 2.620999,0.57601 3.930001,0.864 l 3.759998,1.49401 0.079,-0.039 -1.402,-2.319" /><path
               id="path42"
               style="fill:#231f20;fill-opacity:1;fill-rule:nonzero;stroke:none"
               d="M 107.40501,69.652 H 46.605003" /><path
               id="path44"
               style="fill:none;stroke:#231f20;stroke-width:1;stroke-linecap:butt;stroke-linejoin:miter;stroke-miterlimit:4;stroke-dasharray:none;stroke-opacity:1"
               d="M 107.40501,69.652 H 46.605003" /><path
               id="path46"
               style="fill:#231f20;fill-opacity:1;fill-rule:nonzero;stroke:none"
               d="M 47.258003,69.652 48.66,67.346001 l -0.078,-0.051 -3.759999,1.492996 c -1.310001,0.288002 -2.621002,0.576004 -3.93,0.863998 1.308998,0.289002 2.619999,0.577004 3.93,0.865006 L 48.582,72.009997 48.66,71.970997 47.258003,69.652" /><path
               id="path48"
               style="fill:#231f20;fill-opacity:1;fill-rule:nonzero;stroke:none"
               d="M 107.13801,35.786003 H 46.338001" /><path
               id="path50"
               style="fill:none;stroke:#231f20;stroke-width:1;stroke-linecap:butt;stroke-linejoin:miter;stroke-miterlimit:4;stroke-dasharray:none;stroke-opacity:1"
               d="M 107.13801,35.786003 H 46.338001" /><path
               id="path52"
               style="fill:#231f20;fill-opacity:1;fill-rule:nonzero;stroke:none"
               d="m 46.991001,35.786003 1.402001,-2.307003 -0.079,-0.051 -3.759003,1.493 C 43.244002,35.209002 41.935,35.497001 40.624,35.786002 c 1.311,0.287998 2.620002,0.576 3.930999,0.863995 l 3.759003,1.494003 0.079,-0.04 -1.402001,-2.317997" /><path
               id="path54"
               style="fill:#231f20;fill-opacity:1;fill-rule:nonzero;stroke:none"
               d="M 106.872,2.7190001 H 46.072002" /><path
               id="path56"
               style="fill:none;stroke:#231f20;stroke-width:1;stroke-linecap:butt;stroke-linejoin:miter;stroke-miterlimit:4;stroke-dasharray:none;stroke-opacity:1"
               d="M 106.872,2.7190001 H 46.072002" /><path
               id="path58"
               style="fill:#231f20;fill-opacity:1;fill-rule:nonzero;stroke:none"
               d="m 46.725002,2.7190001 1.402001,-2.30600008 -0.079,-0.052 L 44.289,1.8540001 c -1.309997,0.289 -2.620998,0.5770001 -3.930999,0.865 1.310001,0.2880001 2.621002,0.576 3.930999,0.865 l 3.759003,1.493 0.079,-0.039 -1.402001,-2.319" /><path
               id="path60"
               style="fill:#231f20;fill-opacity:1;fill-rule:nonzero;stroke:none"
               d="M 40.384003,135.05101 V 2.4520001" /><path
               id="path62"
               style="fill:none;stroke:#231f20;stroke-width:1;stroke-linecap:butt;stroke-linejoin:miter;stroke-miterlimit:4;stroke-dasharray:none;stroke-opacity:1"
               d="M 40.384003,135.05101 V 2.4520001" /><text
               id="text66"
               style="font-variant:normal;font-weight:normal;font-size:9.56400013px;font-family:CMR12;-inkscape-font-specification:CMR12;writing-mode:lr-tb;fill:#231f20;fill-opacity:1;fill-rule:nonzero;stroke:none"
               transform="matrix(0,1,1,0,7.1728997,42.117699)"><tspan
                 id="tspan64"
                 y="0"
                 x="0 7.153872 9.7552805 13.446984 17.090868 20.734753 23.336161 28.538977 33.741791 37.385677 39.987083 44.673443">Distribution</tspan></text>
<text
               id="text70"
               style="font-variant:normal;font-weight:normal;font-size:9.56400013px;font-family:CMR12;-inkscape-font-specification:CMR12;writing-mode:lr-tb;fill:#231f20;fill-opacity:1;fill-rule:nonzero;stroke:none"
               transform="matrix(1,0,0,-1,108.803,134.11789)"><tspan
                 id="tspan68"
                 y="0"
                 x="0 7.0199761 9.6213837 14.307744 19.510561 23.6709 27.362604">Highest</tspan></text>
<text
               id="text74"
               style="font-variant:normal;font-weight:normal;font-size:9.56400013px;font-family:CMR12;-inkscape-font-specification:CMR12;writing-mode:lr-tb;fill:#231f20;fill-opacity:1;fill-rule:nonzero;stroke:none"
               transform="matrix(1,0,0,-1,142.93311,134.11789)"><tspan
                 id="tspan72"
                 y="0"
                 x="0">V</tspan></text>
<text
               id="text78"
               style="font-variant:normal;font-weight:normal;font-size:9.56400013px;font-family:CMR12;-inkscape-font-specification:CMR12;writing-mode:lr-tb;fill:#231f20;fill-opacity:1;fill-rule:nonzero;stroke:none"
               transform="matrix(1,0,0,-1,149.17265,134.11789)"><tspan
                 id="tspan76"
                 y="0"
                 x="0">a</tspan></text>
<text
               id="text82"
               style="font-variant:normal;font-weight:normal;font-size:9.56400013px;font-family:CMR12;-inkscape-font-specification:CMR12;writing-mode:lr-tb;fill:#231f20;fill-opacity:1;fill-rule:nonzero;stroke:none"
               transform="matrix(1,0,0,-1,153.85901,134.11789)"><tspan
                 id="tspan80"
                 y="0"
                 x="0 2.601408 7.804224">lue</tspan></text>
<text
               id="text86"
               style="font-variant:normal;font-weight:normal;font-size:9.56400013px;font-family:CMR12;-inkscape-font-specification:CMR12;writing-mode:lr-tb;fill:#231f20;fill-opacity:1;fill-rule:nonzero;stroke:none"
               transform="matrix(1,0,0,-1,110.38202,101.85087)"><tspan
                 id="tspan84"
                 y="0"
                 x="0 7.0199761 12.222792">Upp</tspan></text>
<text
               id="text90"
               style="font-variant:normal;font-weight:normal;font-size:9.56400013px;font-family:CMR12;-inkscape-font-specification:CMR12;writing-mode:lr-tb;fill:#231f20;fill-opacity:1;fill-rule:nonzero;stroke:none"
               transform="matrix(1,0,0,-1,128.06873,101.85087)"><tspan
                 id="tspan88"
                 y="0"
                 x="0 4.1603398">er</tspan></text>
<text
               id="text94"
               style="font-variant:normal;font-weight:normal;font-size:9.56400013px;font-family:CMR12;-inkscape-font-specification:CMR12;writing-mode:lr-tb;fill:#231f20;fill-opacity:1;fill-rule:nonzero;stroke:none"
               transform="matrix(1,0,0,-1,138.99368,101.85087)"><tspan
                 id="tspan92"
                 y="0"
                 x="0 7.0199761 9.6213837 14.8242 19.510561">Hinge</tspan></text>
<text
               id="text98"
               style="font-variant:normal;font-weight:normal;font-size:9.56400013px;font-family:CMR12;-inkscape-font-specification:CMR12;writing-mode:lr-tb;fill:#231f20;fill-opacity:1;fill-rule:nonzero;stroke:none"
               transform="matrix(1,0,0,-1,111.76019,69.317009)"><tspan
                 id="tspan96"
                 y="0"
                 x="0 8.578908 12.739248 17.942064 20.543472 25.229832">Median</tspan></text>
<text
               id="text102"
               style="font-variant:normal;font-weight:normal;font-size:9.56400013px;font-family:CMR12;-inkscape-font-specification:CMR12;writing-mode:lr-tb;fill:#231f20;fill-opacity:1;fill-rule:nonzero;stroke:none"
               transform="matrix(1,0,0,-1,110.90613,35.467144)"><tspan
                 id="tspan100"
                 y="0"
                 x="0 5.853168">Lo</tspan></text>
<text
               id="text106"
               style="font-variant:normal;font-weight:normal;font-size:9.56400013px;font-family:CMR12;-inkscape-font-specification:CMR12;writing-mode:lr-tb;fill:#231f20;fill-opacity:1;fill-rule:nonzero;stroke:none"
               transform="matrix(1,0,0,-1,121.18647,35.467144)"><tspan
                 id="tspan104"
                 y="0"
                 x="0">w</tspan></text>
<text
               id="text110"
               style="font-variant:normal;font-weight:normal;font-size:9.56400013px;font-family:CMR12;-inkscape-font-specification:CMR12;writing-mode:lr-tb;fill:#231f20;fill-opacity:1;fill-rule:nonzero;stroke:none"
               transform="matrix(1,0,0,-1,127.68808,35.467144)"><tspan
                 id="tspan108"
                 y="0"
                 x="0">e</tspan></text>
<text
               id="text114"
               style="font-variant:normal;font-weight:normal;font-size:9.56400013px;font-family:CMR12;-inkscape-font-specification:CMR12;writing-mode:lr-tb;fill:#231f20;fill-opacity:1;fill-rule:nonzero;stroke:none"
               transform="matrix(1,0,0,-1,131.84842,35.467144)"><tspan
                 id="tspan112"
                 y="0"
                 x="0">r</tspan></text>
<text
               id="text118"
               style="font-variant:normal;font-weight:normal;font-size:9.56400013px;font-family:CMR12;-inkscape-font-specification:CMR12;writing-mode:lr-tb;fill:#231f20;fill-opacity:1;fill-rule:nonzero;stroke:none"
               transform="matrix(1,0,0,-1,138.61304,35.467144)"><tspan
                 id="tspan116"
                 y="0"
                 x="0 7.0199761 9.6213837 14.8242 19.510561">Hinge</tspan></text>
<text
               id="text122"
               style="font-variant:normal;font-weight:normal;font-size:9.56400013px;font-family:CMR12;-inkscape-font-specification:CMR12;writing-mode:lr-tb;fill:#231f20;fill-opacity:1;fill-rule:nonzero;stroke:none"
               transform="matrix(1,0,0,-1,110.0425,2.4005713)"><tspan
                 id="tspan120"
                 y="0"
                 x="0 5.853168">Lo</tspan></text>
<text
               id="text126"
               style="font-variant:normal;font-weight:normal;font-size:9.56400013px;font-family:CMR12;-inkscape-font-specification:CMR12;writing-mode:lr-tb;fill:#231f20;fill-opacity:1;fill-rule:nonzero;stroke:none"
               transform="matrix(1,0,0,-1,120.32188,2.4005713)"><tspan
                 id="tspan124"
                 y="0"
                 x="0">w</tspan></text>
<text
               id="text130"
               style="font-variant:normal;font-weight:normal;font-size:9.56400013px;font-family:CMR12;-inkscape-font-specification:CMR12;writing-mode:lr-tb;fill:#231f20;fill-opacity:1;fill-rule:nonzero;stroke:none"
               transform="matrix(1,0,0,-1,126.82349,2.4005713)"><tspan
                 id="tspan128"
                 y="0"
                 x="0 4.1603398 7.8520441">est</tspan></text>
<text
               id="text134"
               style="font-variant:normal;font-weight:normal;font-size:9.56400013px;font-family:CMR12;-inkscape-font-specification:CMR12;writing-mode:lr-tb;fill:#231f20;fill-opacity:1;fill-rule:nonzero;stroke:none"
               transform="matrix(1,0,0,-1,141.44209,2.4005713)"><tspan
                 id="tspan132"
                 y="0"
                 x="0">V</tspan></text>
<text
               id="text138"
               style="font-variant:normal;font-weight:normal;font-size:9.56400013px;font-family:CMR12;-inkscape-font-specification:CMR12;writing-mode:lr-tb;fill:#231f20;fill-opacity:1;fill-rule:nonzero;stroke:none"
               transform="matrix(1,0,0,-1,147.68164,2.4005713)"><tspan
                 id="tspan136"
                 y="0"
                 x="0 4.6863599 7.2877679 12.490584">alue</tspan></text>
<text
               id="text142"
               style="font-variant:normal;font-weight:normal;font-size:9.56400013px;font-family:CMR12;-inkscape-font-specification:CMR12;writing-mode:lr-tb;fill:#231f20;fill-opacity:1;fill-rule:nonzero;stroke:none"
               transform="matrix(1,0,0,-1,18.364859,115.26534)"><tspan
                 id="tspan140"
                 y="0"
                 x="0 4.6863599 9.3727198">25%</tspan></text>
<text
               id="text146"
               style="font-variant:normal;font-weight:normal;font-size:9.56400013px;font-family:CMR12;-inkscape-font-specification:CMR12;writing-mode:lr-tb;fill:#231f20;fill-opacity:1;fill-rule:nonzero;stroke:none"
               transform="matrix(1,0,0,-1,18.631695,82.198769)"><tspan
                 id="tspan144"
                 y="0"
                 x="0 4.6863599 9.3727198">25%</tspan></text>
<text
               id="text150"
               style="font-variant:normal;font-weight:normal;font-size:9.56400013px;font-family:CMR12;-inkscape-font-specification:CMR12;writing-mode:lr-tb;fill:#231f20;fill-opacity:1;fill-rule:nonzero;stroke:none"
               transform="matrix(1,0,0,-1,18.631695,50.465416)"><tspan
                 id="tspan148"
                 y="0"
                 x="0 4.6863599 9.3727198">25%</tspan></text>
<text
               id="text154"
               style="font-variant:normal;font-weight:normal;font-size:9.56400013px;font-family:CMR12;-inkscape-font-specification:CMR12;writing-mode:lr-tb;fill:#231f20;fill-opacity:1;fill-rule:nonzero;stroke:none"
               transform="matrix(1,0,0,-1,18.898531,15.798786)"><tspan
                 id="tspan152"
                 y="0"
                 x="0 4.6863599 9.3727198">25%</tspan></text>
</g></g></g></g></g></svg>