<?xml version="1.0" encoding="UTF-8" standalone="no"?>
<svg
   xmlns:dc="http://purl.org/dc/elements/1.1/"
   xmlns:cc="http://creativecommons.org/ns#"
   xmlns:rdf="http://www.w3.org/1999/02/22-rdf-syntax-ns#"
   xmlns:svg="http://www.w3.org/2000/svg"
   xmlns="http://www.w3.org/2000/svg"
   viewBox="0 0 613.16132 179.78799"
   height="179.78799"
   width="613.16132"
   xml:space="preserve"
   id="svg2"
   version="1.1"><metadata
     id="metadata8"><rdf:RDF><cc:Work
         rdf:about=""><dc:format>image/svg+xml</dc:format><dc:type
           rdf:resource="http://purl.org/dc/dcmitype/StillImage" /></cc:Work></rdf:RDF></metadata><defs
     id="defs6"><clipPath
       id="clipPath60"
       clipPathUnits="userSpaceOnUse"><path
         id="path58"
         d="M 0,134.841 H 459.84 V 0.06 L 0,0.06 Z" /></clipPath></defs><g
     transform="matrix(1.3333333,0,0,-1.3333333,0,179.788)"
     id="g10"><path
       id="path12"
       style="fill:#231f20;fill-opacity:1;fill-rule:nonzero;stroke:none"
       d="m 194.923,19.258 -1.752,2.883 0.098,0.065 4.7,-1.866 c 1.637,-0.361 3.275,-0.721 4.913,-1.082 -1.638,-0.36 -3.276,-0.72 -4.913,-1.08 l -4.7,-1.867 -0.098,0.049 1.752,2.898" /><path
       id="path14"
       style="fill:#231f20;fill-opacity:1;fill-rule:nonzero;stroke:none"
       d="m 43.446,19.209 v 102.6" /><path
       id="path16"
       style="fill:#231f20;fill-opacity:1;fill-rule:nonzero;stroke:none"
       d="m 43.446,121.809 -2.882,-1.752 -0.066,0.098 1.867,4.7 c 0.36,1.638 0.721,3.275 1.081,4.913 0.36,-1.638 0.72,-3.275 1.081,-4.913 l 1.866,-4.7 -0.049,-0.098 -2.898,1.752" /><text
       id="text20"
       style="font-style:italic;font-variant:normal;font-weight:normal;font-size:11.95499992px;font-family:CMMI10;-inkscape-font-specification:CMMI10;writing-mode:lr-tb;fill:#231f20;fill-opacity:1;fill-rule:nonzero;stroke:none"
       transform="matrix(1,0,0,-1,203.126,12.869)"><tspan
         id="tspan18"
         y="0"
         x="0">x</tspan></text>
<path
       id="path22"
       style="fill:none;stroke:#231f20;stroke-width:0.5;stroke-linecap:butt;stroke-linejoin:miter;stroke-miterlimit:4;stroke-dasharray:none;stroke-opacity:1"
       d="m 40.333,19.258 h 158.74" /><path
       id="path24"
       style="fill:#231f20;fill-opacity:1;fill-rule:nonzero;stroke:none"
       d="m 40.512,36.925 h 3.4" /><path
       id="path26"
       style="fill:#231f20;fill-opacity:1;fill-rule:nonzero;stroke:none"
       d="m 39.896,53.409 h 3.4" /><path
       id="path28"
       style="fill:#231f20;fill-opacity:1;fill-rule:nonzero;stroke:none"
       d="m 39.271,70.475 h 3.4" /><path
       id="path30"
       style="fill:#231f20;fill-opacity:1;fill-rule:nonzero;stroke:none"
       d="m 39.912,87.126 h 3.4" /><path
       id="path32"
       style="fill:#231f20;fill-opacity:1;fill-rule:nonzero;stroke:none"
       d="m 76.146,19.025 v -4.8" /><path
       id="path34"
       style="fill:#231f20;fill-opacity:1;fill-rule:nonzero;stroke:none"
       d="M 109.379,19.459 V 14.658" /><path
       id="path36"
       style="fill:#231f20;fill-opacity:1;fill-rule:nonzero;stroke:none"
       d="M 108.079,85.425 H 75.546" /><path
       id="path38"
       style="fill:none;stroke:#231f20;stroke-width:3;stroke-linecap:butt;stroke-linejoin:miter;stroke-miterlimit:4;stroke-dasharray:none;stroke-opacity:1"
       d="M 108.079,85.425 H 75.546" /><path
       id="path40"
       style="fill:#231f20;fill-opacity:1;fill-rule:nonzero;stroke:none"
       d="M 76.296,48.659 H 43.763" /><path
       id="path42"
       style="fill:none;stroke:#231f20;stroke-width:3;stroke-linecap:butt;stroke-linejoin:miter;stroke-miterlimit:4;stroke-dasharray:none;stroke-opacity:1"
       d="M 76.296,48.659 H 43.763" /><path
       id="path44"
       style="fill:#231f20;fill-opacity:1;fill-rule:nonzero;stroke:none"
       d="M 143.229,100.909 H 176.78" /><path
       id="path46"
       style="fill:none;stroke:#231f20;stroke-width:3;stroke-linecap:butt;stroke-linejoin:miter;stroke-miterlimit:4;stroke-dasharray:none;stroke-opacity:1"
       d="M 143.229,100.909 H 176.78" /><path
       id="path48"
       style="fill:#231f20;fill-opacity:1;fill-rule:nonzero;stroke:none"
       d="M 176.796,102.242 H 195" /><path
       id="path50"
       style="fill:none;stroke:#231f20;stroke-width:3;stroke-linecap:butt;stroke-linejoin:miter;stroke-miterlimit:4;stroke-dasharray:none;stroke-opacity:1"
       d="M 176.796,102.242 H 195" /><path
       id="path52"
       style="fill:#231f20;fill-opacity:1;fill-rule:nonzero;stroke:none"
       d="M 0,19.859 H 43.212" /><g
       id="g54"><g
         clip-path="url(#clipPath60)"
         id="g56"><path
           id="path62"
           style="fill:none;stroke:#231f20;stroke-width:3;stroke-linecap:butt;stroke-linejoin:miter;stroke-miterlimit:4;stroke-dasharray:none;stroke-opacity:1"
           d="M 0,19.859 H 43.212" /></g></g><path
       id="path64"
       style="fill:#231f20;fill-opacity:1;fill-rule:nonzero;stroke:none"
       d="M 76.279,85.459 V 47.642" /><path
       id="path66"
       style="fill:none;stroke:#231f20;stroke-width:1;stroke-linecap:butt;stroke-linejoin:miter;stroke-miterlimit:4;stroke-dasharray:3, 3, 3, 3, 3, 3, 3, 3, 3, 3;stroke-dashoffset:0;stroke-opacity:1"
       d="M 76.279,85.459 V 47.642" /><path
       id="path68"
       style="fill:#231f20;fill-opacity:1;fill-rule:nonzero;stroke:none"
       d="M 108.563,99.059 V 84.276" /><path
       id="path70"
       style="fill:none;stroke:#231f20;stroke-width:1;stroke-linecap:butt;stroke-linejoin:miter;stroke-miterlimit:4;stroke-dasharray:3, 3, 3, 3, 3, 3, 3, 3, 3, 3;stroke-dashoffset:0;stroke-opacity:1"
       d="M 108.563,99.059 V 84.276" /><path
       id="path72"
       style="fill:#231f20;fill-opacity:1;fill-rule:nonzero;stroke:none"
       d="m 40.162,104.642 h 3.4" /><path
       id="path74"
       style="fill:#231f20;fill-opacity:1;fill-rule:nonzero;stroke:none"
       d="M 142.429,99.326 H 109.896" /><path
       id="path76"
       style="fill:none;stroke:#231f20;stroke-width:3;stroke-linecap:butt;stroke-linejoin:miter;stroke-miterlimit:4;stroke-dasharray:none;stroke-opacity:1"
       d="M 142.429,99.326 H 109.896" /><path
       id="path78"
       style="fill:#231f20;fill-opacity:1;fill-rule:nonzero;stroke:none"
       d="m 142.663,19.042 v -4.8" /><path
       id="path80"
       style="fill:#231f20;fill-opacity:1;fill-rule:nonzero;stroke:none"
       d="m 176.829,18.775 v -4.8" /><path
       id="path82"
       style="fill:#231f20;fill-opacity:1;fill-rule:nonzero;stroke:none"
       d="m 444.843,18.249 -1.752,2.883 0.098,0.065 4.699,-1.867 c 1.638,-0.36 3.276,-0.72 4.914,-1.081 -1.638,-0.36 -3.276,-0.72 -4.914,-1.08 l -4.699,-1.867 -0.098,0.049 1.752,2.898" /><path
       id="path84"
       style="fill:#231f20;fill-opacity:1;fill-rule:nonzero;stroke:none"
       d="M 293.365,18.199 V 120.8" /><path
       id="path86"
       style="fill:#231f20;fill-opacity:1;fill-rule:nonzero;stroke:none"
       d="m 293.365,120.8 -2.882,-1.753 -0.065,0.099 1.866,4.7 c 0.361,1.637 0.721,3.275 1.081,4.912 0.361,-1.637 0.721,-3.275 1.081,-4.912 l 1.867,-4.7 -0.049,-0.099 -2.899,1.753" /><text
       id="text90"
       style="font-style:italic;font-variant:normal;font-weight:normal;font-size:11.95499992px;font-family:CMMI12;-inkscape-font-specification:CMMI12;writing-mode:lr-tb;fill:#231f20;fill-opacity:1;fill-rule:nonzero;stroke:none"
       transform="matrix(1,0,0,-1,12.592,124.5224)"><tspan
         id="tspan88"
         y="0"
         x="0">F</tspan></text>
<text
       id="text94"
       style="font-variant:normal;font-weight:normal;font-size:11.95499992px;font-family:CMR12;-inkscape-font-specification:CMR12;writing-mode:lr-tb;fill:#231f20;fill-opacity:1;fill-rule:nonzero;stroke:none"
       transform="matrix(1,0,0,-1,21.796155,124.5224)"><tspan
         id="tspan92"
         y="0"
         x="0">(</tspan></text>
<text
       id="text98"
       style="font-style:italic;font-variant:normal;font-weight:normal;font-size:11.95499992px;font-family:CMMI12;-inkscape-font-specification:CMMI12;writing-mode:lr-tb;fill:#231f20;fill-opacity:1;fill-rule:nonzero;stroke:none"
       transform="matrix(1,0,0,-1,26.348619,124.5224)"><tspan
         id="tspan96"
         y="0"
         x="0">x</tspan></text>
<text
       id="text110"
       style="font-variant:normal;font-weight:normal;font-size:11.95499992px;font-family:CMR12;-inkscape-font-specification:CMR12;writing-mode:lr-tb;fill:#231f20;fill-opacity:1;fill-rule:nonzero;stroke:none"
       transform="matrix(1,0,0,-1,33.000381,124.5224)"><tspan
         id="tspan100"
         y="0"
         x="0">)</tspan><tspan
         id="tspan102"
         y="119.1794"
         x="7.8090062">0</tspan><tspan
         id="tspan104"
         y="119.84529"
         x="40.397141">1</tspan><tspan
         id="tspan106"
         y="120.51238"
         x="73.985909">2</tspan><tspan
         id="tspan108"
         y="-0.258228"
         x="206.22495 214.18936">P(</tspan></text>
<text
       id="text114"
       style="font-style:italic;font-variant:normal;font-weight:normal;font-size:11.95499992px;font-family:CMMI12;-inkscape-font-specification:CMMI12;writing-mode:lr-tb;fill:#231f20;fill-opacity:1;fill-rule:nonzero;stroke:none"
       transform="matrix(1,0,0,-1,251.74221,124.78063)"><tspan
         id="tspan112"
         y="0"
         x="0">X</tspan></text>
<text
       id="text118"
       style="font-variant:normal;font-weight:normal;font-size:11.95499992px;font-family:CMR12;-inkscape-font-specification:CMR12;writing-mode:lr-tb;fill:#231f20;fill-opacity:1;fill-rule:nonzero;stroke:none"
       transform="matrix(1,0,0,-1,265.7188,124.78063)"><tspan
         id="tspan116"
         y="0"
         x="0">=</tspan></text>
<text
       id="text122"
       style="font-style:italic;font-variant:normal;font-weight:normal;font-size:11.95499992px;font-family:CMMI12;-inkscape-font-specification:CMMI12;writing-mode:lr-tb;fill:#231f20;fill-opacity:1;fill-rule:nonzero;stroke:none"
       transform="matrix(1,0,0,-1,278.14483,124.78063)"><tspan
         id="tspan120"
         y="0"
         x="0">x</tspan></text>
<text
       id="text128"
       style="font-variant:normal;font-weight:normal;font-size:11.95499992px;font-family:CMR12;-inkscape-font-specification:CMR12;writing-mode:lr-tb;fill:#231f20;fill-opacity:1;fill-rule:nonzero;stroke:none"
       transform="matrix(1,0,0,-1,284.79659,124.78063)"><tspan
         id="tspan124"
         y="0"
         x="0">)</tspan><tspan
         id="tspan126"
         y="90.438377"
         x="-262.74222">0</tspan></text>
<text
       id="text132"
       style="font-style:italic;font-variant:normal;font-weight:normal;font-size:11.95499992px;font-family:CMMI12;-inkscape-font-specification:CMMI12;writing-mode:lr-tb;fill:#231f20;fill-opacity:1;fill-rule:nonzero;stroke:none"
       transform="matrix(1,0,0,-1,27.907551,34.342248)"><tspan
         id="tspan130"
         y="0"
         x="0">.</tspan></text>
<text
       id="text138"
       style="font-variant:normal;font-weight:normal;font-size:11.95499992px;font-family:CMR12;-inkscape-font-specification:CMR12;writing-mode:lr-tb;fill:#231f20;fill-opacity:1;fill-rule:nonzero;stroke:none"
       transform="matrix(1,0,0,-1,31.159311,34.342248)"><tspan
         id="tspan134"
         y="0"
         x="0">2</tspan><tspan
         id="tspan136"
         y="-17.333553"
         x="-8.578908">0</tspan></text>
<text
       id="text142"
       style="font-style:italic;font-variant:normal;font-weight:normal;font-size:11.95499992px;font-family:CMMI12;-inkscape-font-specification:CMMI12;writing-mode:lr-tb;fill:#231f20;fill-opacity:1;fill-rule:nonzero;stroke:none"
       transform="matrix(1,0,0,-1,28.433571,51.675803)"><tspan
         id="tspan140"
         y="0"
         x="0">.</tspan></text>
<text
       id="text148"
       style="font-variant:normal;font-weight:normal;font-size:11.95499992px;font-family:CMR12;-inkscape-font-specification:CMR12;writing-mode:lr-tb;fill:#231f20;fill-opacity:1;fill-rule:nonzero;stroke:none"
       transform="matrix(1,0,0,-1,31.684135,51.675803)"><tspan
         id="tspan144"
         y="0"
         x="0">4</tspan><tspan
         id="tspan146"
         y="-17.667099"
         x="-10.245435">0</tspan></text>
<text
       id="text152"
       style="font-style:italic;font-variant:normal;font-weight:normal;font-size:11.95499992px;font-family:CMMI12;-inkscape-font-specification:CMMI12;writing-mode:lr-tb;fill:#231f20;fill-opacity:1;fill-rule:nonzero;stroke:none"
       transform="matrix(1,0,0,-1,27.291868,69.342902)"><tspan
         id="tspan150"
         y="0"
         x="0">.</tspan></text>
<text
       id="text158"
       style="font-variant:normal;font-weight:normal;font-size:11.95499992px;font-family:CMR12;-inkscape-font-specification:CMR12;writing-mode:lr-tb;fill:#231f20;fill-opacity:1;fill-rule:nonzero;stroke:none"
       transform="matrix(1,0,0,-1,30.543628,69.342902)"><tspan
         id="tspan154"
         y="0"
         x="0">6</tspan><tspan
         id="tspan156"
         y="-15.667028"
         x="-8.578908">0</tspan></text>
<text
       id="text162"
       style="font-style:italic;font-variant:normal;font-weight:normal;font-size:11.95499992px;font-family:CMMI12;-inkscape-font-specification:CMMI12;writing-mode:lr-tb;fill:#231f20;fill-opacity:1;fill-rule:nonzero;stroke:none"
       transform="matrix(1,0,0,-1,27.817888,85.009929)"><tspan
         id="tspan160"
         y="0"
         x="0">.</tspan></text>
<text
       id="text168"
       style="font-variant:normal;font-weight:normal;font-size:11.95499992px;font-family:CMR12;-inkscape-font-specification:CMR12;writing-mode:lr-tb;fill:#231f20;fill-opacity:1;fill-rule:nonzero;stroke:none"
       transform="matrix(1,0,0,-1,31.068453,85.009929)"><tspan
         id="tspan164"
         y="0"
         x="0">8</tspan><tspan
         id="tspan166"
         y="-17.511684"
         x="-9.5090075">1</tspan></text>
<text
       id="text172"
       style="font-style:italic;font-variant:normal;font-weight:normal;font-size:11.95499992px;font-family:CMMI12;-inkscape-font-specification:CMMI12;writing-mode:lr-tb;fill:#231f20;fill-opacity:1;fill-rule:nonzero;stroke:none"
       transform="matrix(1,0,0,-1,27.412614,102.52161)"><tspan
         id="tspan170"
         y="0"
         x="0">.</tspan></text>
<text
       id="text180"
       style="font-variant:normal;font-weight:normal;font-size:11.95499992px;font-family:CMR12;-inkscape-font-specification:CMR12;writing-mode:lr-tb;fill:#231f20;fill-opacity:1;fill-rule:nonzero;stroke:none"
       transform="matrix(1,0,0,-1,30.664374,102.52161)"><tspan
         id="tspan174"
         y="0"
         x="0">0</tspan><tspan
         id="tspan176"
         y="98.179245"
         x="108.95189">3</tspan><tspan
         id="tspan178"
         y="98.512787"
         x="142.37329">4</tspan></text>
<text
       id="text184"
       style="font-style:italic;font-variant:normal;font-weight:normal;font-size:11.95499992px;font-family:CMMI10;-inkscape-font-specification:CMMI10;writing-mode:lr-tb;fill:#231f20;fill-opacity:1;fill-rule:nonzero;stroke:none"
       transform="matrix(1,0,0,-1,453.04409,11.85848)"><tspan
         id="tspan182"
         y="0"
         x="0">x</tspan></text>
<path
       id="path186"
       style="fill:none;stroke:#231f20;stroke-width:0.5;stroke-linecap:butt;stroke-linejoin:miter;stroke-miterlimit:4;stroke-dasharray:none;stroke-opacity:1"
       d="M 290.253,18.249 H 448.992" /><path
       id="path188"
       style="fill:#231f20;fill-opacity:1;fill-rule:nonzero;stroke:none"
       d="m 290.432,35.916 h 3.4" /><path
       id="path190"
       style="fill:#231f20;fill-opacity:1;fill-rule:nonzero;stroke:none"
       d="m 289.815,52.4 h 3.401" /><path
       id="path192"
       style="fill:#231f20;fill-opacity:1;fill-rule:nonzero;stroke:none"
       d="m 289.19,69.466 h 3.401" /><path
       id="path194"
       style="fill:#231f20;fill-opacity:1;fill-rule:nonzero;stroke:none"
       d="m 289.832,86.116 h 3.4" /><path
       id="path196"
       style="fill:#231f20;fill-opacity:1;fill-rule:nonzero;stroke:none"
       d="m 326.065,18.016 v -4.8" /><path
       id="path198"
       style="fill:#231f20;fill-opacity:1;fill-rule:nonzero;stroke:none"
       d="M 359.299,18.449 V 13.65" /><path
       id="path200"
       style="fill:#231f20;fill-opacity:1;fill-rule:nonzero;stroke:none"
       d="m 249.92,18.849 h 43.212" /><path
       id="path202"
       style="fill:none;stroke:#231f20;stroke-width:3;stroke-linecap:butt;stroke-linejoin:miter;stroke-miterlimit:4;stroke-dasharray:none;stroke-opacity:1"
       d="m 249.92,18.849 h 43.212" /><path
       id="path204"
       style="fill:#231f20;fill-opacity:1;fill-rule:nonzero;stroke:none"
       d="m 290.082,103.633 h 3.4" /><path
       id="path206"
       style="fill:#231f20;fill-opacity:1;fill-rule:nonzero;stroke:none"
       d="m 392.582,18.033 v -4.8" /><path
       id="path208"
       style="fill:#231f20;fill-opacity:1;fill-rule:nonzero;stroke:none"
       d="m 426.749,17.766 v -4.8" /><path
       id="path210"
       style="fill:#231f20;fill-opacity:1;fill-rule:nonzero;stroke:none"
       d="m 392.667,20.855 c 1.041,0 1.885,0.844 1.885,1.886 0,1.041 -0.844,1.885 -1.885,1.885 -1.042,0 -1.886,-0.844 -1.886,-1.885 0,-1.042 0.844,-1.886 1.886,-1.886" /><path
       id="path212"
       style="fill:none;stroke:#231f20;stroke-width:0.5;stroke-linecap:butt;stroke-linejoin:miter;stroke-miterlimit:4;stroke-dasharray:none;stroke-opacity:1"
       d="m 392.667,20.855 c 1.041,0 1.885,0.844 1.885,1.886 0,1.041 -0.844,1.885 -1.885,1.885 -1.042,0 -1.886,-0.844 -1.886,-1.885 0,-1.042 0.844,-1.886 1.886,-1.886 z" /><path
       id="path214"
       style="fill:#231f20;fill-opacity:1;fill-rule:nonzero;stroke:none"
       d="m 325.813,46.095 c 1.041,0 1.885,0.844 1.885,1.886 0,1.041 -0.844,1.885 -1.885,1.885 -1.042,0 -1.886,-0.844 -1.886,-1.885 0,-1.042 0.844,-1.886 1.886,-1.886" /><path
       id="path216"
       style="fill:none;stroke:#231f20;stroke-width:0.5;stroke-linecap:butt;stroke-linejoin:miter;stroke-miterlimit:4;stroke-dasharray:none;stroke-opacity:1"
       d="m 325.813,46.095 c 1.041,0 1.885,0.844 1.885,1.886 0,1.041 -0.844,1.885 -1.885,1.885 -1.042,0 -1.886,-0.844 -1.886,-1.885 0,-1.042 0.844,-1.886 1.886,-1.886 z" /><path
       id="path218"
       style="fill:#231f20;fill-opacity:1;fill-rule:nonzero;stroke:none"
       d="m 293.375,44.564 c 1.041,0 1.885,0.844 1.885,1.885 0,1.041 -0.844,1.886 -1.885,1.886 -1.041,0 -1.885,-0.845 -1.885,-1.886 0,-1.041 0.844,-1.885 1.885,-1.885" /><path
       id="path220"
       style="fill:none;stroke:#231f20;stroke-width:0.5;stroke-linecap:butt;stroke-linejoin:miter;stroke-miterlimit:4;stroke-dasharray:none;stroke-opacity:1"
       d="m 293.375,44.564 c 1.041,0 1.885,0.844 1.885,1.885 0,1.041 -0.844,1.886 -1.885,1.886 -1.041,0 -1.885,-0.845 -1.885,-1.886 0,-1.041 0.844,-1.885 1.885,-1.885 z" /><path
       id="path222"
       style="fill:#231f20;fill-opacity:1;fill-rule:nonzero;stroke:none"
       d="m 358.115,32.407 c 1.041,0 1.885,0.845 1.885,1.886 0,1.042 -0.844,1.886 -1.885,1.886 -1.042,0 -1.886,-0.844 -1.886,-1.886 0,-1.041 0.844,-1.886 1.886,-1.886" /><path
       id="path224"
       style="fill:none;stroke:#231f20;stroke-width:0.5;stroke-linecap:butt;stroke-linejoin:miter;stroke-miterlimit:4;stroke-dasharray:none;stroke-opacity:1"
       d="m 358.115,32.407 c 1.041,0 1.885,0.845 1.885,1.886 0,1.042 -0.844,1.886 -1.885,1.886 -1.042,0 -1.886,-0.844 -1.886,-1.886 0,-1.041 0.844,-1.886 1.886,-1.886 z" /><path
       id="path226"
       style="fill:#231f20;fill-opacity:1;fill-rule:nonzero;stroke:none"
       d="m 426.885,18.407 c 1.042,0 1.886,0.845 1.886,1.886 0,1.042 -0.844,1.886 -1.886,1.886 -1.041,0 -1.885,-0.844 -1.885,-1.886 0,-1.041 0.844,-1.886 1.885,-1.886" /><path
       id="path228"
       style="fill:none;stroke:#231f20;stroke-width:0.5;stroke-linecap:butt;stroke-linejoin:miter;stroke-miterlimit:4;stroke-dasharray:none;stroke-opacity:1"
       d="m 426.885,18.407 c 1.042,0 1.886,0.845 1.886,1.886 0,1.042 -0.844,1.886 -1.886,1.886 -1.041,0 -1.885,-0.844 -1.885,-1.886 0,-1.041 0.844,-1.886 1.885,-1.886 z" /><text
       id="text238"
       style="font-variant:normal;font-weight:normal;font-size:11.95499992px;font-family:CMR12;-inkscape-font-specification:CMR12;writing-mode:lr-tb;fill:#231f20;fill-opacity:1;fill-rule:nonzero;stroke:none"
       transform="matrix(1,0,0,-1,290.729,4.334)"><tspan
         id="tspan230"
         y="0"
         x="0">0</tspan><tspan
         id="tspan232"
         y="0.6658935"
         x="32.589329">1</tspan><tspan
         id="tspan234"
         y="1.3329825"
         x="66.176903">2</tspan><tspan
         id="tspan236"
         y="-29.000439"
         x="-18.755005">0</tspan></text>
<text
       id="text242"
       style="font-style:italic;font-variant:normal;font-weight:normal;font-size:11.95499992px;font-family:CMMI12;-inkscape-font-specification:CMMI12;writing-mode:lr-tb;fill:#231f20;fill-opacity:1;fill-rule:nonzero;stroke:none"
       transform="matrix(1,0,0,-1,277.82716,33.334439)"><tspan
         id="tspan240"
         y="0"
         x="0">.</tspan></text>
<text
       id="text248"
       style="font-variant:normal;font-weight:normal;font-size:11.95499992px;font-family:CMR12;-inkscape-font-specification:CMR12;writing-mode:lr-tb;fill:#231f20;fill-opacity:1;fill-rule:nonzero;stroke:none"
       transform="matrix(1,0,0,-1,281.07892,33.334439)"><tspan
         id="tspan244"
         y="0"
         x="0">2</tspan><tspan
         id="tspan246"
         y="-17.333555"
         x="-8.5777121">0</tspan></text>
<text
       id="text252"
       style="font-style:italic;font-variant:normal;font-weight:normal;font-size:11.95499992px;font-family:CMMI12;-inkscape-font-specification:CMMI12;writing-mode:lr-tb;fill:#231f20;fill-opacity:1;fill-rule:nonzero;stroke:none"
       transform="matrix(1,0,0,-1,278.35438,50.667994)"><tspan
         id="tspan250"
         y="0"
         x="0">.</tspan></text>
<text
       id="text258"
       style="font-variant:normal;font-weight:normal;font-size:11.95499992px;font-family:CMR12;-inkscape-font-specification:CMR12;writing-mode:lr-tb;fill:#231f20;fill-opacity:1;fill-rule:nonzero;stroke:none"
       transform="matrix(1,0,0,-1,281.60494,50.667994)"><tspan
         id="tspan254"
         y="0"
         x="0">4</tspan><tspan
         id="tspan256"
         y="-17.667099"
         x="-10.245435">0</tspan></text>
<text
       id="text262"
       style="font-style:italic;font-variant:normal;font-weight:normal;font-size:11.95499992px;font-family:CMMI12;-inkscape-font-specification:CMMI12;writing-mode:lr-tb;fill:#231f20;fill-opacity:1;fill-rule:nonzero;stroke:none"
       transform="matrix(1,0,0,-1,277.21268,68.335093)"><tspan
         id="tspan260"
         y="0"
         x="0">.</tspan></text>
<text
       id="text268"
       style="font-variant:normal;font-weight:normal;font-size:11.95499992px;font-family:CMR12;-inkscape-font-specification:CMR12;writing-mode:lr-tb;fill:#231f20;fill-opacity:1;fill-rule:nonzero;stroke:none"
       transform="matrix(1,0,0,-1,280.46444,68.335093)"><tspan
         id="tspan264"
         y="0"
         x="0">6</tspan><tspan
         id="tspan266"
         y="-15.667028"
         x="-8.5777121">0</tspan></text>
<text
       id="text272"
       style="font-style:italic;font-variant:normal;font-weight:normal;font-size:11.95499992px;font-family:CMMI12;-inkscape-font-specification:CMMI12;writing-mode:lr-tb;fill:#231f20;fill-opacity:1;fill-rule:nonzero;stroke:none"
       transform="matrix(1,0,0,-1,277.73989,84.00212)"><tspan
         id="tspan270"
         y="0"
         x="0">.</tspan></text>
<text
       id="text278"
       style="font-variant:normal;font-weight:normal;font-size:11.95499992px;font-family:CMR12;-inkscape-font-specification:CMR12;writing-mode:lr-tb;fill:#231f20;fill-opacity:1;fill-rule:nonzero;stroke:none"
       transform="matrix(1,0,0,-1,280.99046,84.00212)"><tspan
         id="tspan274"
         y="0"
         x="0">8</tspan><tspan
         id="tspan276"
         y="-17.511684"
         x="-9.5102024">1</tspan></text>
<text
       id="text282"
       style="font-style:italic;font-variant:normal;font-weight:normal;font-size:11.95499992px;font-family:CMMI12;-inkscape-font-specification:CMMI12;writing-mode:lr-tb;fill:#231f20;fill-opacity:1;fill-rule:nonzero;stroke:none"
       transform="matrix(1,0,0,-1,277.33342,101.5138)"><tspan
         id="tspan280"
         y="0"
         x="0">.</tspan></text>
<text
       id="text290"
       style="font-variant:normal;font-weight:normal;font-size:11.95499992px;font-family:CMR12;-inkscape-font-specification:CMR12;writing-mode:lr-tb;fill:#231f20;fill-opacity:1;fill-rule:nonzero;stroke:none"
       transform="matrix(1,0,0,-1,280.58518,101.5138)"><tspan
         id="tspan284"
         y="0"
         x="0">0</tspan><tspan
         id="tspan286"
         y="98.179245"
         x="108.9507">3</tspan><tspan
         id="tspan288"
         y="98.512787"
         x="142.37329">4</tspan></text>
</g></svg>