<?xml version="1.0" encoding="UTF-8" standalone="no"?>
<svg
   xmlns:dc="http://purl.org/dc/elements/1.1/"
   xmlns:cc="http://creativecommons.org/ns#"
   xmlns:rdf="http://www.w3.org/1999/02/22-rdf-syntax-ns#"
   xmlns:svg="http://www.w3.org/2000/svg"
   xmlns="http://www.w3.org/2000/svg"
   viewBox="0 0 420 149.33333"
   height="149.33333"
   width="420"
   xml:space="preserve"
   id="svg2"
   version="1.1"><metadata
     id="metadata8"><rdf:RDF><cc:Work
         rdf:about=""><dc:format>image/svg+xml</dc:format><dc:type
           rdf:resource="http://purl.org/dc/dcmitype/StillImage" /></cc:Work></rdf:RDF></metadata><defs
     id="defs6"><clipPath
       id="clipPath24"
       clipPathUnits="userSpaceOnUse"><path
         id="path22"
         d="M 0,0 H 315 V 112 H 0 Z" /></clipPath><clipPath
       id="clipPath34"
       clipPathUnits="userSpaceOnUse"><path
         id="path32"
         d="M 0.06,0 H 314.38602 V 111.96 H 0.06 Z" /></clipPath><clipPath
       id="clipPath62"
       clipPathUnits="userSpaceOnUse"><path
         id="path60"
         d="M 0.06,0 H 314.38602 V 111.96 H 0.06 Z" /></clipPath><clipPath
       id="clipPath94"
       clipPathUnits="userSpaceOnUse"><path
         id="path92"
         d="M 0.06,0 H 314.38602 V 111.96 H 0.06 Z" /></clipPath></defs><g
     transform="matrix(1.3333333,0,0,-1.3333333,0,149.33333)"
     id="g10"><g
       id="g12" /><g
       id="g14" /><g
       id="g16"><g
         id="g18"><g
           clip-path="url(#clipPath24)"
           id="g20"><g
             id="g26" /><g
             id="g28"><g
               clip-path="url(#clipPath34)"
               id="g30"><path
                 id="path36"
                 style="fill:none;stroke:#231f20;stroke-width:1;stroke-linecap:butt;stroke-linejoin:miter;stroke-miterlimit:4;stroke-dasharray:none;stroke-opacity:1"
                 d="m 41.332001,111.00301 c 10.052002,0 18.2,-16.924008 18.2,-37.800007 0,-18.633999 -6.490997,-34.118 -15.034,-37.23 m 0.005,-0.036 c -9.758998,-1.189002 -23.929,10.191999 -33.709,27.858998 C 9.651,65.861 8.6130009,67.93 7.6799998,69.989006 M 74.186005,36.103001 C 64.415001,33.979 49.607002,45.527 39.495003,63.796001 28.406002,83.824005 27.158001,104.345 36.708,109.633 c 1.400002,0.775 2.956001,1.18 4.626003,1.24301 m 28.465001,0.127 c 10.052002,0 18.199997,-16.924008 18.199997,-37.800007 0,-18.633999 -6.491997,-34.118 -15.033997,-37.23 m 29.688006,0.129998 C 92.882004,33.979 78.074005,45.527 67.961006,63.796001 56.873001,83.824005 55.625004,104.345 65.174004,109.633 c 1.401001,0.775 2.957,1.18 4.626999,1.24301 m 28.930999,0.36 c 10.051998,0 18.201008,-16.924006 18.201008,-37.800005 0,-18.633004 -6.49201,-34.118004 -15.03501,-37.230004 m 29.68801,0.130001 C 121.815,34.212002 107.008,45.759998 96.895004,64.028999 85.806007,84.057007 84.557007,104.578 94.107002,109.866 c 1.401001,0.77501 2.957001,1.18001 4.626,1.24301 m 28.700008,0.128 c 10.05199,0 18.2,-16.924006 18.2,-37.801005 0,-18.633004 -6.492,-34.118004 -15.03401,-37.230004 m 29.68701,0.130001 c -9.77,-2.123001 -24.578,9.423996 -34.691,27.693997 C 114.506,84.057007 113.258,104.579 122.80801,109.866 c 1.401,0.77601 2.957,1.181 4.626,1.24301 m 29.165,0.128 c 10.05199,0 18.2,-16.924006 18.2,-37.801005 0,-18.633004 -6.492,-34.118004 -15.034,-37.230004 m 29.68799,0.130001 c -9.77099,-2.123001 -24.57798,9.423996 -34.692,27.693997 -11.08899,20.027008 -12.33699,40.549001 -2.78599,45.836001 1.401,0.77601 2.95599,1.181 4.626,1.24301 m 28.46599,0.128 c 10.05101,0 18.19901,-16.924006 18.19901,-37.801005 0,-18.633004 -6.49201,-34.118004 -15.03501,-37.230004 m 29.689,0.130001 c -9.77098,-2.123001 -24.58,9.423996 -34.69299,27.693997 -11.088,20.027008 -12.336,40.549001 -2.78501,45.836001 1.40001,0.77601 2.955,1.181 4.62601,1.24301 m 28.931,0.36099 c 10.05098,0 18.2,-16.923995 18.2,-37.800002 0,-18.633995 -6.491,-34.118995 -15.03299,-37.230995 M 246.85201,36.569 c -9.769,-2.122997 -24.57799,9.424004 -34.69001,27.693001 -11.08899,20.028999 -12.33799,40.549999 -2.78799,45.837009 1.401,0.776 2.957,1.18099 4.62599,1.24299 m 28.69901,0.128 c 10.05099,0 18.20001,-16.923995 18.20001,-37.800002 0,-18.633995 -6.49102,-34.118995 -15.03301,-37.229999 M 275.552,36.57 c -9.76898,-2.123997 -24.57699,9.424003 -34.68999,27.693 -11.08999,20.028 -12.33799,40.549 -2.788,45.83601 1.401,0.776 2.957,1.18099 4.62599,1.24399" /></g></g><g
             id="g38"><path
               id="path40"
               style="fill:#231f20;fill-opacity:1;fill-rule:nonzero;stroke:none"
               d="m 277.64301,38.072002 c -1.72199,0.137001 -2.87,0.357998 -4.279,0.597001 l 1.07102,-4.929005 c 0.41598,0.321003 2.13598,1.479999 3.64599,2.318004 1.61499,0.898999 3.10498,1.596001 4.094,1.945 -1.04502,-0.093 -2.69,-0.077 -4.53201,0.069" /><path
               id="path42"
               style="fill:#ffffff;fill-opacity:1;fill-rule:nonzero;stroke:none"
               d="m 298.71503,71.013 c -1.65201,0.499001 -2.72702,0.959 -4.05301,1.493004 v -5.044998 c 0.474,0.224999 2.401,0.992996 4.05301,1.490997 1.76999,0.534997 3.37497,0.900002 4.41497,1.030999 -1.04,0.131004 -2.64498,0.496002 -4.41497,1.029998" /><path
               id="path44"
               style="fill:none;stroke:#231f20;stroke-width:1;stroke-linecap:butt;stroke-linejoin:miter;stroke-miterlimit:4;stroke-dasharray:none;stroke-opacity:1"
               d="M 25.354002,69.989006 H 296.354" /><path
               id="path46"
               style="fill:#231f20;fill-opacity:1;fill-rule:nonzero;stroke:none"
               d="m 298.71503,71.013 c -1.65201,0.499001 -2.72702,0.959 -4.05301,1.493004 v -5.044998 c 0.474,0.224999 2.401,0.992996 4.05301,1.490997 1.76999,0.534997 3.37497,0.900002 4.41497,1.030999 -1.04,0.131004 -2.64498,0.496002 -4.41497,1.029998" /><path
               id="path48"
               style="fill:#ffffff;fill-opacity:1;fill-rule:nonzero;stroke:none"
               d="m 27.378002,4.6270003 c 0.498999,1.6529994 0.959,2.7280002 1.491997,4.0540004 h -5.044998 c 0.226,-0.4750004 0.993,-2.401001 1.491001,-4.0540004 C 25.852001,2.8570001 26.217001,1.253 26.348001,0.21200001 26.479002,1.253 26.844002,2.8570001 27.378002,4.6270003" /><path
               id="path50"
               style="fill:none;stroke:#231f20;stroke-width:1;stroke-linecap:butt;stroke-linejoin:miter;stroke-miterlimit:4;stroke-dasharray:none;stroke-opacity:1"
               d="M 26.354002,108.98901 V 6.9890003" /><path
               id="path52"
               style="fill:#231f20;fill-opacity:1;fill-rule:nonzero;stroke:none"
               d="m 27.378002,4.6270003 c 0.498999,1.6529994 0.959,2.7280002 1.491997,4.0540004 h -5.044998 c 0.226,-0.4750004 0.993,-2.401001 1.491001,-4.0540004 C 25.852001,2.8570001 26.217001,1.253 26.348001,0.21200001 26.479002,1.253 26.844002,2.8570001 27.378002,4.6270003" /><path
               id="path54"
               style="fill:#ffffff;fill-opacity:1;fill-rule:nonzero;stroke:none"
               d="m 78.748001,20.043001 c -0.815994,1.522 -1.250999,2.606999 -1.810997,3.922001 L 73.369003,20.398001 C 73.864006,20.222 75.769005,19.403002 77.290001,18.586 c 1.629997,-0.872999 3.023003,-1.749 3.851005,-2.392999 -0.643005,0.829 -1.519004,2.221 -2.393005,3.85" /></g><g
             id="g56"><g
               clip-path="url(#clipPath62)"
               id="g58"><path
                 id="path64"
                 style="fill:none;stroke:#231f20;stroke-width:1;stroke-linecap:butt;stroke-linejoin:miter;stroke-miterlimit:4;stroke-dasharray:none;stroke-opacity:1"
                 d="M 0.354,96.989006 76.354004,20.989" /></g></g><g
             id="g66"><path
               id="path68"
               style="fill:#231f20;fill-opacity:1;fill-rule:nonzero;stroke:none"
               d="m 78.748001,20.043001 c -0.815994,1.522 -1.250999,2.606999 -1.810997,3.922001 L 73.369003,20.398001 C 73.864006,20.222 75.769005,19.403002 77.290001,18.586 c 1.629997,-0.872999 3.023003,-1.749 3.851005,-2.392999 -0.643005,0.829 -1.519004,2.221 -2.393005,3.85" /><text
               id="text72"
               style="font-variant:normal;font-weight:normal;font-size:11.95500088px;font-family:CMMI12;-inkscape-font-specification:CMMI12;writing-mode:lr-tb;fill:#231f20;fill-opacity:1;fill-rule:nonzero;stroke:none"
               transform="matrix(1,0,0,-1,12.353499,2.9890001)"><tspan
                 id="tspan70"
                 y="0"
                 x="0">x</tspan></text>
<text
               id="text76"
               style="font-variant:normal;font-weight:normal;font-size:11.95500088px;font-family:CMMI12;-inkscape-font-specification:CMMI12;writing-mode:lr-tb;fill:#231f20;fill-opacity:1;fill-rule:nonzero;stroke:none"
               transform="matrix(1,0,0,-1,85.923378,16.021145)"><tspan
                 id="tspan74"
                 y="0"
                 x="0">y</tspan></text>
<text
               id="text80"
               style="font-variant:normal;font-weight:normal;font-size:11.95500088px;font-family:CMMI12;-inkscape-font-specification:CMMI12;writing-mode:lr-tb;fill:#231f20;fill-opacity:1;fill-rule:nonzero;stroke:none"
               transform="matrix(1,0,0,-1,286.96225,75.021461)"><tspan
                 id="tspan78"
                 y="0"
                 x="0">z</tspan></text>
<text
               id="text84"
               style="font-variant:normal;font-weight:normal;font-size:11.95500088px;font-family:CMMI12;-inkscape-font-specification:CMMI12;writing-mode:lr-tb;fill:#231f20;fill-opacity:1;fill-rule:nonzero;stroke:none"
               transform="matrix(1,0,0,-1,287.85648,33.42284)"><tspan
                 id="tspan82"
                 y="0"
                 x="0">B</tspan></text>
<path
               id="path86"
               style="fill:#231f20;fill-opacity:1;fill-rule:nonzero;stroke:none"
               d="m 287.858,31.989002 h 9.496 v -0.478001 h -9.496 z" /></g><g
             id="g88"><g
               clip-path="url(#clipPath94)"
               id="g90"><text
                 id="text98"
                 style="font-variant:normal;font-weight:normal;font-size:11.95500088px;font-family:CMMI12;-inkscape-font-specification:CMMI12;writing-mode:lr-tb;fill:#231f20;fill-opacity:1;fill-rule:nonzero;stroke:none"
                 transform="matrix(1,0,0,-1,309.233,65.021301)"><tspan
                   id="tspan96"
                   y="0"
                   x="0">I</tspan></text>
</g></g></g></g></g></g></svg>