<?xml version="1.0" encoding="UTF-8" standalone="no"?>
<svg
   xmlns:dc="http://purl.org/dc/elements/1.1/"
   xmlns:cc="http://creativecommons.org/ns#"
   xmlns:rdf="http://www.w3.org/1999/02/22-rdf-syntax-ns#"
   xmlns:svg="http://www.w3.org/2000/svg"
   xmlns="http://www.w3.org/2000/svg"
   viewBox="0 0 317.33334 122.66667"
   height="122.66667"
   width="317.33334"
   xml:space="preserve"
   id="svg2"
   version="1.1"><metadata
     id="metadata8"><rdf:RDF><cc:Work
         rdf:about=""><dc:format>image/svg+xml</dc:format><dc:type
           rdf:resource="http://purl.org/dc/dcmitype/StillImage" /></cc:Work></rdf:RDF></metadata><defs
     id="defs6"><clipPath
       id="clipPath24"
       clipPathUnits="userSpaceOnUse"><path
         id="path22"
         d="M 0,0 H 238 V 92 H 0 Z" /></clipPath><clipPath
       id="clipPath34"
       clipPathUnits="userSpaceOnUse"><path
         id="path32"
         d="M 0.06,0 H 237.23201 V 91.655006 H 0.06 Z" /></clipPath><clipPath
       id="clipPath68"
       clipPathUnits="userSpaceOnUse"><path
         id="path66"
         d="M 0.06,0 H 237.23201 V 91.655006 H 0.06 Z" /></clipPath></defs><g
     transform="matrix(1.3333333,0,0,-1.3333333,0,122.66667)"
     id="g10"><g
       id="g12" /><g
       id="g14" /><g
       id="g16"><g
         id="g18"><g
           clip-path="url(#clipPath24)"
           id="g20"><g
             id="g26" /><g
             id="g28"><g
               clip-path="url(#clipPath34)"
               id="g30"><path
                 id="path36"
                 style="fill:#ffffff;fill-opacity:1;fill-rule:nonzero;stroke:none"
                 d="M 0,15.009999 H 224" /><path
                 id="path38"
                 style="fill:none;stroke:#231f20;stroke-width:1;stroke-linecap:butt;stroke-linejoin:miter;stroke-miterlimit:4;stroke-dasharray:none;stroke-opacity:1"
                 d="M 0,15.009999 H 224" /></g></g><g
             id="g40"><path
               id="path42"
               style="fill:#231f20;fill-opacity:1;fill-rule:nonzero;stroke:none"
               d="m 222.98,15.009999 -2.19001,3.603002 0.12302,0.082 5.875,-2.334002 c 2.046,-0.449999 4.09399,-0.9 6.14101,-1.351001 -2.04702,-0.45 -4.09501,-0.899999 -6.14101,-1.350999 l -5.875,-2.333 -0.12302,0.061 2.19001,3.622999" /><path
               id="path44"
               style="fill:#ffffff;fill-opacity:1;fill-rule:nonzero;stroke:none"
               d="M 11.333,3.6770003 V 80.509995" /><path
               id="path46"
               style="fill:none;stroke:#231f20;stroke-width:1;stroke-linecap:butt;stroke-linejoin:miter;stroke-miterlimit:4;stroke-dasharray:none;stroke-opacity:1"
               d="M 11.333,3.6770003 V 80.509995" /><path
               id="path48"
               style="fill:#231f20;fill-opacity:1;fill-rule:nonzero;stroke:none"
               d="M 10.982,78.078003 7.3790002,75.888 l -0.082,0.121995 2.3340001,5.875007 C 10.081,83.932007 10.531,85.979996 10.982,88.026001 c 0.45,-2.046005 0.900001,-4.093994 1.351,-6.140999 L 14.667001,76.009995 14.605,75.888 10.982,78.078003" /><path
               id="path50"
               style="fill:#ffffff;fill-opacity:1;fill-rule:nonzero;stroke:none"
               d="M 131.19701,57.795002 190,78.344002" /><path
               id="path52"
               style="fill:none;stroke:#231f20;stroke-width:1;stroke-linecap:butt;stroke-linejoin:miter;stroke-miterlimit:4;stroke-dasharray:none;stroke-opacity:1"
               d="M 131.19701,57.795002 190,78.344002" /><path
               id="path54"
               style="fill:#231f20;fill-opacity:1;fill-rule:nonzero;stroke:none"
               d="m 131.96701,58.065002 2.605,-2.144001 -0.071,-0.093 -5.053,0.211994 c -1.66401,-0.20099 -3.32901,-0.400991 -4.99401,-0.600992 1.427,0.880001 2.85501,1.760998 4.281,2.640995 l 3.82201,3.313004 0.108,-0.014 -0.698,-3.314" /><path
               id="path56"
               style="fill:#ffffff;fill-opacity:1;fill-rule:nonzero;stroke:none"
               d="M 86.110001,42.041 131.19701,57.795002" /><path
               id="path58"
               style="fill:none;stroke:#231f20;stroke-width:1;stroke-linecap:butt;stroke-linejoin:miter;stroke-miterlimit:4;stroke-dasharray:none;stroke-opacity:1"
               d="M 86.110001,42.041 131.19701,57.795002" /><path
               id="path60"
               style="fill:#ffffff;fill-opacity:1;fill-rule:nonzero;stroke:none"
               d="M 10.667001,15.677001 86.110001,42.041" /></g><g
             id="g62"><g
               clip-path="url(#clipPath68)"
               id="g64"><path
                 id="path70"
                 style="fill:none;stroke:#231f20;stroke-width:0.80000001;stroke-linecap:butt;stroke-linejoin:miter;stroke-miterlimit:4;stroke-dasharray:3, 3, 3, 3, 3, 3;stroke-dashoffset:0;stroke-opacity:1"
                 d="M 10.667001,15.677001 86.110001,42.041" /><path
                 id="path72"
                 style="fill:none;stroke:#231f20;stroke-width:1;stroke-linecap:butt;stroke-linejoin:miter;stroke-miterlimit:4;stroke-dasharray:none;stroke-opacity:1"
                 d="m 86,82.678001 v 7.831994" /></g></g><g
             id="g74"><path
               id="path76"
               style="fill:#231f20;fill-opacity:1;fill-rule:nonzero;stroke:none"
               d="m 86,73.493004 2.882004,1.752998 0.066,-0.098 -1.867005,-4.699997 c -0.36,-1.638008 -0.721,-3.276001 -1.081001,-4.913002 -0.360001,1.637001 -0.720001,3.274994 -1.080994,4.913002 l -1.867004,4.699997 0.05,0.098 L 86,73.493004" /><path
               id="path78"
               style="fill:none;stroke:#231f20;stroke-width:1;stroke-linecap:butt;stroke-linejoin:miter;stroke-miterlimit:4;stroke-dasharray:none;stroke-opacity:1"
               d="M 132,41.677002 H 86 V 82.678001 M 194,41.677002 h -62" /><path
               id="path80"
               style="fill:#231f20;fill-opacity:1;fill-rule:nonzero;stroke:none"
               d="m 132.81601,41.677002 1.75299,-2.882999 -0.098,-0.065 -4.7,1.867001 c -1.638,0.36 -3.27501,0.720001 -4.913,1.081001 1.63799,0.360001 3.275,0.720001 4.913,1.081001 l 4.7,1.867001 0.098,-0.05 -1.75299,-2.897999" /><text
               id="text84"
               style="font-variant:normal;font-weight:normal;font-size:11.95500088px;font-family:CMMI12;-inkscape-font-specification:CMMI12;writing-mode:lr-tb;fill:#231f20;fill-opacity:1;fill-rule:nonzero;stroke:none"
               transform="matrix(1,0,0,-1,72.918007,46.001003)"><tspan
                 id="tspan82"
                 y="0"
                 x="0">z</tspan></text>
<text
               id="text88"
               style="font-variant:normal;font-weight:normal;font-size:7.96999979px;font-family:CMR8;-inkscape-font-specification:CMR8;writing-mode:lr-tb;fill:#231f20;fill-opacity:1;fill-rule:nonzero;stroke:none"
               transform="matrix(1,0,0,-1,78.356003,44.208099)"><tspan
                 id="tspan86"
                 y="0"
                 x="0">0</tspan></text>
<text
               id="text92"
               style="font-variant:normal;font-weight:normal;font-size:11.95500088px;font-family:CMR12;-inkscape-font-specification:CMR12;writing-mode:lr-tb;fill:#231f20;fill-opacity:1;fill-rule:nonzero;stroke:none"
               transform="matrix(1,0,0,-1,1.1273999,39.0005)"><tspan
                 id="tspan90"
                 y="0"
                 x="0">1</tspan></text>
<text
               id="text96"
               style="font-variant:normal;font-weight:normal;font-size:11.95500088px;font-family:CMR12;-inkscape-font-specification:CMR12;writing-mode:lr-tb;fill:#231f20;fill-opacity:1;fill-rule:nonzero;stroke:none"
               transform="matrix(1,0,0,-1,83.882301,3.0004075)"><tspan
                 id="tspan94"
                 y="0"
                 x="0">2</tspan></text>
<text
               id="text100"
               style="font-variant:normal;font-weight:normal;font-size:11.95500088px;font-family:CMR12;-inkscape-font-specification:CMR12;writing-mode:lr-tb;fill:#231f20;fill-opacity:1;fill-rule:nonzero;stroke:none"
               transform="matrix(1,0,0,-1,140.25133,29.021662)"><tspan
                 id="tspan98"
                 y="0"
                 x="0 4.5429006 10.388896">(a)</tspan></text>
<text
               id="text104"
               style="font-variant:normal;font-weight:normal;font-size:11.95500088px;font-family:CMR12;-inkscape-font-specification:CMR12;writing-mode:lr-tb;fill:#231f20;fill-opacity:1;fill-rule:nonzero;stroke:none"
               transform="matrix(1,0,0,-1,90.581886,82.687668)"><tspan
                 id="tspan102"
                 y="0"
                 x="0 4.5429006 11.034466">(b)</tspan></text>
<text
               id="text108"
               style="font-variant:normal;font-weight:normal;font-size:11.95500088px;font-family:CMR12;-inkscape-font-specification:CMR12;writing-mode:lr-tb;fill:#231f20;fill-opacity:1;fill-rule:nonzero;stroke:none"
               transform="matrix(1,0,0,-1,125.56222,66.354744)"><tspan
                 id="tspan106"
                 y="0"
                 x="0 4.5429006 9.7433262">(c)</tspan></text>
<text
               id="text112"
               style="font-variant:normal;font-weight:normal;font-size:11.95500088px;font-family:CMMI12;-inkscape-font-specification:CMMI12;writing-mode:lr-tb;fill:#231f20;fill-opacity:1;fill-rule:nonzero;stroke:none"
               transform="matrix(1,0,0,-1,230.58571,5.3746748)"><tspan
                 id="tspan110"
                 y="0"
                 x="0">x</tspan></text>
<text
               id="text116"
               style="font-variant:normal;font-weight:normal;font-size:11.95500088px;font-family:CMMI12;-inkscape-font-specification:CMMI12;writing-mode:lr-tb;fill:#231f20;fill-opacity:1;fill-rule:nonzero;stroke:none"
               transform="matrix(1,0,0,-1,1.9439226,81.375)"><tspan
                 id="tspan114"
                 y="0"
                 x="0">y</tspan></text>
<path
               id="path118"
               style="fill:none;stroke:#231f20;stroke-width:0.80000001;stroke-linecap:butt;stroke-linejoin:miter;stroke-miterlimit:4;stroke-dasharray:none;stroke-opacity:1"
               d="M 12.666,41.677002 H 84 m 2,0 V 16.01" /></g></g></g></g></g></svg>