<?xml version="1.0" encoding="UTF-8" standalone="no"?>
<svg
   xmlns:dc="http://purl.org/dc/elements/1.1/"
   xmlns:cc="http://creativecommons.org/ns#"
   xmlns:rdf="http://www.w3.org/1999/02/22-rdf-syntax-ns#"
   xmlns:svg="http://www.w3.org/2000/svg"
   xmlns="http://www.w3.org/2000/svg"
   viewBox="0 0 493.33334 166.66667"
   height="166.66667"
   width="493.33334"
   xml:space="preserve"
   id="svg2"
   version="1.1"><metadata
     id="metadata8"><rdf:RDF><cc:Work
         rdf:about=""><dc:format>image/svg+xml</dc:format><dc:type
           rdf:resource="http://purl.org/dc/dcmitype/StillImage" /></cc:Work></rdf:RDF></metadata><defs
     id="defs6"><clipPath
       id="clipPath24"
       clipPathUnits="userSpaceOnUse"><path
         id="path22"
         d="M 0,0 H 370 V 125 H 0 Z" /></clipPath></defs><g
     transform="matrix(1.3333333,0,0,-1.3333333,0,166.66667)"
     id="g10"><g
       id="g12" /><g
       id="g14" /><g
       id="g16"><g
         id="g18"><g
           clip-path="url(#clipPath24)"
           id="g20"><g
             id="g26" /><g
             id="g28"><path
               id="path30"
               style="fill:none;stroke:#000000;stroke-width:1;stroke-linecap:butt;stroke-linejoin:round;stroke-miterlimit:4;stroke-dasharray:none;stroke-opacity:1"
               d="M 0.09900001,58.493004 H 1.899 m 129.47701,0 h 1.8 M 66.625,6.5930004 V 4.7930002 m 0,19.4000008 v -1.799999 m 0,19.400001 V 39.993 m 0,37.000004 v -1.800003 m 0,19.400001 v -1.799995 m 0,19.401003 V 110.394" /><path
               id="path32"
               style="fill:none;stroke:#000000;stroke-width:0.5;stroke-linecap:butt;stroke-linejoin:round;stroke-miterlimit:4;stroke-dasharray:none;stroke-opacity:1"
               d="M 0.99900007,58.493004 H 139.24901" /><path
               id="path34"
               style="fill:#000000;fill-opacity:1;fill-rule:nonzero;stroke:none"
               d="m 138.229,58.493004 -2.19099,3.603 0.123,0.082 5.875,-2.333999 c 2.047,-0.450001 4.09398,-0.900997 6.14099,-1.350998 -2.04701,-0.450001 -4.09399,-0.901001 -6.14099,-1.351002 l -5.875,-2.334 -0.123,0.062 2.19099,3.623005" /><path
               id="path36"
               style="fill:none;stroke:#000000;stroke-width:0.5;stroke-linecap:butt;stroke-linejoin:round;stroke-miterlimit:4;stroke-dasharray:none;stroke-opacity:1"
               d="M 66.625,5.6930003 V 115.134" /><path
               id="path38"
               style="fill:#000000;fill-opacity:1;fill-rule:nonzero;stroke:none"
               d="m 66.625,114.11401 -3.602997,-2.19001 -0.081,0.123 2.333,5.875 c 0.450005,2.04701 0.901001,4.09401 1.350998,6.141 0.450005,-2.04699 0.901001,-4.09399 1.351006,-6.141 l 2.333992,-5.875 -0.062,-0.123 -3.623001,2.19001" /><path
               id="path40"
               style="fill:none;stroke:#000000;stroke-width:1;stroke-linecap:butt;stroke-linejoin:round;stroke-miterlimit:4;stroke-dasharray:none;stroke-opacity:1"
               d="m 96.126007,24.309999 0.201996,-0.146997 0.201996,-0.121 0.203003,-0.122002 0.226997,-0.120998 0.202004,-0.146 0.607002,-0.365 0.226997,-0.146002 0.203003,-0.120998 0.201996,-0.122002 0.227005,-0.120998 0.201988,-0.146 0.228012,-0.122002 0.201989,-0.120998 0.227012,-0.121 L 99.689003,22.121 99.917007,22 100.119,21.879002 l 0.22701,-0.121001 0.20199,-0.146999 0.228,-0.121002 0.22701,-0.120999 0.20199,-0.121 0.22701,-0.146 L 101.66,20.98 l 0.227,-0.120999 0.22701,-0.121 0.20199,-0.146 0.22801,-0.121 0.22699,-0.121001 0.227,-0.121 0.22701,-0.146 0.22799,-0.122 0.227,-0.121 0.22701,-0.120998 0.22699,-0.146 0.22801,-0.121 0.252,-0.120001 0.22699,-0.121001 0.22701,-0.145999 0.228,-0.122 0.22699,-0.121 0.252,-0.119999 0.22701,-0.146 0.22799,-0.121001 0.252,-0.121 0.22701,-0.121 0.252,-0.146 0.22799,-0.121 0.22701,-0.121001 0.252,-0.119999 0.22699,-0.147001 0.253,-0.119999 0.252,-0.121 0.22701,-0.121 0.252,-0.146002 0.25299,-0.119999 0.22701,-0.120999 0.252,-0.121 0.252,-0.146 0.252,-0.120001 0.22799,-0.121 0.25201,-0.121 0.252,-0.146 0.252,-0.119999 0.253,-0.121 0.25199,-0.12 0.252,-0.146 0.252,-0.121 0.25301,-0.12 0.252,-0.121001 0.252,-0.145999 0.25199,-0.12 0.505,-0.241001 0.277,-0.145999 0.25201,-0.12 0.252,-0.121001 0.278,-0.119999 0.252,-0.146 0.252,-0.12 0.277,-0.121001 0.25299,-0.119999 0.252,-0.146 0.277,-0.12 0.252,-0.121001 0.277,-0.119999 0.25301,-0.146 0.55398,-0.24 0.25202,-0.121001 0.27799,-0.145 0.27701,-0.12 0.252,-0.120999 0.277,-0.12 0.278,-0.145 0.277,-0.12 h 0.025 m -39.487997,24.868 0.126999,-0.147999 0.127998,-0.123001 0.152001,-0.121998 0.127006,-0.123001 0.127991,-0.147999 0.152008,-0.122002 0.126999,-0.123001 0.152001,-0.121997 0.127998,-0.148003 0.152,-0.122997 0.126999,-0.122002 0.151993,-0.123001 0.279999,-0.270001 0.152008,-0.121997 0.152,-0.123002 0.127999,-0.147998 0.304001,-0.244 0.152,-0.123001 0.153,-0.146999 0.126999,-0.123001 0.151993,-0.121998 0.152008,-0.122002 0.152999,-0.147999 0.152001,-0.122001 0.152,-0.122998 0.152001,-0.122001 0.153,-0.147 0.152,-0.123001 0.177002,-0.121998 0.152,-0.122001 0.153,-0.147003 0.151993,-0.122998 0.152008,-0.122001 0.176994,-0.121998 0.153,-0.148001 0.152001,-0.122 0.177002,-0.121999 0.152,-0.122 0.153,-0.148001 0.177002,-0.122 0.152,-0.121999 0.176995,-0.122 0.153,-0.147001 0.177002,-0.122 0.152,-0.122999 0.177002,-0.121001 0.178001,-0.148 0.152001,-0.122 0.176994,-0.122002 0.177002,-0.121997 0.153,-0.147 0.177002,-0.122001 0.177002,-0.122 0.176994,-0.122 0.178002,-0.146999 0.177002,-0.122 0.152,-0.122 0.177002,-0.122001 0.177994,-0.147 0.177002,-0.122 0.177002,-0.121999 0.178001,-0.122 0.201996,-0.146 0.177002,-0.122002 0.177002,-0.121999 0.178001,-0.122 0.176994,-0.147001 0.177002,-0.121998 0.202004,-0.122 0.177994,-0.122002 0.177002,-0.145999 0.201995,-0.122 0.17801,-0.122 0.176994,-0.122 0.202003,-0.146 0.177002,-0.121999 0.202996,-0.122 0.177002,-0.147001 0.202003,-0.121001 0.176994,-0.121999 0.203003,-0.122002 0.177002,-0.146997 0.404,-0.243002 0.178001,-0.121998 0.201996,-0.146 0.202003,-0.122002 0.404999,-0.242998 0.177002,-0.147003 0.606995,-0.363998 0.201995,-0.147 0.202004,-0.121 0.405006,-0.243" /><path
               id="path42"
               style="fill:none;stroke:#000000;stroke-width:1;stroke-linecap:butt;stroke-linejoin:round;stroke-miterlimit:4;stroke-dasharray:none;stroke-opacity:1"
               d="m 70.184006,49.513 0.077,-0.123996 0.052,-0.124001 0.07699,-0.123001 0.078,-0.148998 0.052,-0.124001 0.077,-0.124 0.052,-0.124001 0.078,-0.148998 0.077,-0.123001 0.077,-0.124001 0.052,-0.124 0.078,-0.148999 0.231002,-0.371002 0.078,-0.148998 0.154007,-0.247002 0.077,-0.124 0.078,-0.147999 0.077,-0.124001 0.154999,-0.246997 0.077,-0.149002 0.077,-0.124001 0.077,-0.122997 0.102997,-0.124001 0.077,-0.148002 0.154999,-0.247998 0.102005,-0.123001 0.077,-0.148998 0.101997,-0.123001 0.078,-0.123001 0.077,-0.124001 0.101997,-0.147999 0.077,-0.124 0.103004,-0.123001 0.077,-0.123997 0.102005,-0.148003 0.102997,-0.123001 0.077,-0.124 0.101998,-0.122998 L 73.708,43.798 l 0.078,-0.122997 0.203995,-0.247002 0.103004,-0.148002 0.102005,-0.122998 0.101998,-0.123001 0.077,-0.124 0.103004,-0.147999 0.101997,-0.124001 0.101998,-0.122997 0.102005,-0.123001 0.102997,-0.147999 0.102005,-0.124004 0.126998,-0.121998 0.101998,-0.124 L 75.32,41.726002 75.422005,41.603001 75.524002,41.48 l 0.102005,-0.123997 0.127998,-0.147 0.101998,-0.124 0.101997,-0.123001 0.127007,-0.123001 0.102997,-0.147999 0.101997,-0.123001 0.126999,-0.122997 0.102005,-0.123002 0.127998,-0.147998 0.101998,-0.123001 0.127006,-0.123002 0.101997,-0.123001 0.127999,-0.147999 0.126999,-0.123001 0.102005,-0.122997 0.127998,-0.123001 0.126991,-0.148003 0.127007,-0.122997 0.101997,-0.123001 0.128006,-0.122997 0.126999,-0.147003 0.126999,-0.122998 0.126999,-0.123001 0.127998,-0.123001 0.126999,-0.147999 0.126999,-0.123001 0.255005,-0.244999 0.126999,-0.147999 0.126999,-0.123001 0.255005,-0.244999 0.126999,-0.148002 0.126998,-0.122998 0.153,-0.122005 0.126999,-0.122997 m -13.305,26.072998 0.002,-0.124996 0.002,-0.125004 -0.023,-0.125996 0.007,-0.400001 0.002,-0.125 0.003,-0.149998 -0.023,-0.125 0.007,-0.400002 0.002,-0.125 0.02699,-0.125 0.007,-0.398998 0.002,-0.125004 0.003,-0.124996 0.027,-0.150001 0.007,-0.400002 0.027,-0.125004 0.002,-0.123993 0.028,-0.125 0.004,-0.275001 0.027,-0.125 0.003,-0.125 0.027,-0.148998 0.027,-0.125 0.003,-0.125 0.027,-0.124001 0.027,-0.150002 0.003,-0.125 0.027,-0.124 0.027,-0.125 0.002,-0.149998 0.055,-0.249004 0.02699,-0.123997 0.028,-0.150001 0.054,-0.249001 0.027,-0.125 0.028,-0.148998 0.054,-0.249001 0.027,-0.125 0.028,-0.149002 0.081,-0.373997 0.053,-0.149002 0.027,-0.125 0.027,-0.124 0.052,-0.123997 0.028,-0.150001 0.027,-0.124005 0.052,-0.123997 0.028,-0.125 0.027,-0.148998 0.052,-0.125 0.027,-0.124 0.053,-0.124001 L 67.93,54 l 0.027,-0.124996 0.052,-0.124001 0.028,-0.125 0.052,-0.149002 0.052,-0.124 0.05299,-0.123997 0.027,-0.124001 0.052,-0.150001 0.052,-0.124001 0.053,-0.124 0.05199,-0.123997 0.053,-0.149002 0.027,-0.125 0.052,-0.124001 0.052,-0.124 0.05299,-0.148998 0.052,-0.124001 0.077,-0.124001 0.052,-0.124004 0.053,-0.148994 0.104004,-0.248001 0.052,-0.124001 0.078,-0.149002 0.104004,-0.247997 0.05199,-0.124001 0.078,-0.148998 0.052,-0.124001 0.077,-0.124 0.05199,-0.124001 0.05301,-0.148998" /><path
               id="path44"
               style="fill:none;stroke:#000000;stroke-width:1;stroke-linecap:butt;stroke-linejoin:round;stroke-miterlimit:4;stroke-dasharray:none;stroke-opacity:1"
               d="M 70.898003,72.089005 70.752007,71.836006 70.68,71.685005 70.534004,71.432007 70.461006,71.306 70.389,71.155006 70.316,71.028 70.243,70.902 70.16999,70.776001 70.09799,70.625 l -0.04801,-0.125999 -0.144989,-0.252999 -0.073,-0.151001 -0.048,-0.125999 -0.072,-0.126 -0.04801,-0.125999 -0.073,-0.151001 -0.072,-0.126999 -0.048,-0.125 -0.073,-0.126999 -0.047,-0.151001 -0.04801,-0.126007 -0.073,-0.125992 -0.04799,-0.125999 -0.07201,-0.151001 -0.048,-0.126 -0.048,-0.125999 -0.048,-0.126 -0.072,-0.151001 -0.144005,-0.376998 -0.047,-0.151009 -0.048,-0.125992 -0.073,-0.125999 -0.047,-0.126 -0.048,-0.151001 -0.09499,-0.251999 -0.023,-0.125 -0.048,-0.151001 -0.143006,-0.378006 -0.047,-0.149994 -0.023,-0.125999 -0.096,-0.252006 -0.047,-0.149994 -0.023,-0.126 -0.048,-0.125999 -0.023,-0.125008 -0.047,-0.150993 -0.048,-0.126 -0.02299,-0.125 -0.048,-0.125999 -0.022,-0.150002 -0.02301,-0.125999 -0.048,-0.126007 -0.02299,-0.124996 -0.022,-0.151001 -0.048,-0.125 -0.045,-0.251 -0.048,-0.151001 -0.023,-0.125999 -0.022,-0.125 -0.023,-0.125 -0.02299,-0.151001 -0.068,-0.376 -0.022,-0.149997 -0.069,-0.376999 -0.022,-0.150002 -0.046,-0.250999 -0.02299,-0.125 0.003,-0.150002 -0.023,-0.125999 -0.023,-0.125004 0.002,-0.124996 -0.022,-0.151001 -0.023,-0.125 0.002,-0.125 -0.02199,-0.125 -0.023,-0.150997 0.002,-0.125 -0.022,-0.125 0.002,-0.125 0.002,-0.150002 -0.02299,-0.125999 0.003,-0.124001 -0.023,-0.125999 0.002,-0.150002 M 81.769997,85.279999 81.647003,85.153008 81.5,85 81.057007,84.617004 80.934006,84.465004 80.639008,84.209999 80.368004,83.93 80.221001,83.803001 80.098007,83.675003 79.949997,83.548004 79.828003,83.396004 79.68,83.268005 79.557007,83.141006 79.409004,83.013 79.287003,82.861008 79.164001,82.734001 79.016006,82.606003 78.893005,82.479004 78.771004,82.327003 78.648003,82.200005 78.5,82.072006 78.378006,81.945007 78.255005,81.793007 78.132004,81.666 78.009995,81.539001 77.887001,81.412003 77.764,81.259003 77.519005,81.005005 77.396004,80.878006 77.274002,80.726006 77.151001,80.599007 77.028,80.472 l -0.122994,-0.126999 -0.122001,-0.153 -0.123009,-0.126999 -0.09799,-0.126998 -0.123001,-0.126999 -0.122002,-0.152001 -0.123001,-0.126999 -0.098,-0.126999 -0.121994,-0.126998 -0.123001,-0.152001 -0.098,-0.127006 -0.122002,-0.126999 -0.098,-0.126999 -0.123009,-0.152001 -0.09699,-0.126999 -0.123009,-0.126998 -0.09799,-0.126 -0.097,-0.152 -0.123001,-0.126999 -0.098,-0.126999 -0.098,-0.127007 -0.122002,-0.152 -0.293999,-0.379997 -0.097,-0.152001 -0.098,-0.126007 -0.123001,-0.127991 -0.097,-0.125999 -0.098,-0.152 -0.098,-0.126999 -0.097,-0.127007 -0.098,-0.125992 -0.098,-0.152 -0.072,-0.126 -0.098,-0.127006 -0.098,-0.126999 -0.097,-0.151001 -0.195999,-0.253998 -0.07301,-0.125999 -0.097,-0.152001 -0.098,-0.126999 -0.073,-0.125999 -0.098,-0.126999 -0.097,-0.151001 -0.073,-0.126999 -0.098,-0.125999 -0.073,-0.127007 -0.097,-0.150993 -0.146004,-0.253006 -0.097,-0.126999 -0.073,-0.151001 -0.098,-0.126999 -0.145004,-0.251999 -0.073,-0.151001 -0.097,-0.126999 -0.073,-0.125999 -0.073,-0.126999 -0.07201,-0.151001 -0.073,-0.125999" /><path
               id="path46"
               style="fill:none;stroke:#000000;stroke-width:1;stroke-linecap:butt;stroke-linejoin:round;stroke-miterlimit:4;stroke-dasharray:none;stroke-opacity:1"
               d="m 99.567001,98.591003 -0.222999,-0.128997 -0.196999,-0.153 -0.222999,-0.129006 -0.197998,-0.128997 -0.223,-0.127999 -0.196999,-0.153999 -0.222999,-0.129006 -0.198006,-0.127998 -0.222999,-0.128998 -0.196999,-0.153999 -0.223,-0.129006 -0.197998,-0.12799 -0.196998,-0.128006 -0.223,-0.154007 -0.198005,-0.12899 -0.196999,-0.127999 -0.197998,-0.129005 -0.197998,-0.153 -0.222,-0.128998 -0.198006,-0.128998 -0.197998,-0.127998 -0.196999,-0.153 -0.396003,-0.257004 -0.197998,-0.128997 -0.196999,-0.153 -0.197998,-0.128998 -0.198006,-0.128006 -0.197998,-0.128998 -0.171997,-0.153 -0.197998,-0.127998 -0.197006,-0.127998 -0.197998,-0.129006 -0.198006,-0.153 -0.171997,-0.127998 -0.197998,-0.128998 -0.197998,-0.127998 -0.172005,-0.153 -0.197998,-0.129006 -0.172996,-0.127998 -0.197998,-0.127998 -0.172005,-0.153008 -0.197998,-0.12899 -0.173004,-0.128006 -0.198006,-0.127998 -0.171989,-0.153 -0.173004,-0.127999 -0.197999,-0.128997 -0.171997,-0.128006 -0.173004,-0.153 -0.197998,-0.127999 -0.345001,-0.256004 -0.172997,-0.152992 -0.172004,-0.128006 -0.172997,-0.127998 -0.197998,-0.128998 -0.172004,-0.153 -0.172997,-0.127999 -0.346001,-0.256004 -0.172004,-0.153 -0.147995,-0.126999 -0.173005,-0.127998 -0.171997,-0.153999 -0.172996,-0.127999 -0.346001,-0.256004 -0.147003,-0.152 -0.172996,-0.127999 -0.173005,-0.127998 -0.146995,-0.127998 -0.173004,-0.153008 -0.172997,-0.127998 -0.147003,-0.126999 -0.172997,-0.127999 -0.148002,-0.152999 -0.171997,-0.127999 -0.148003,-0.127998 -0.173004,-0.128006 -0.146996,-0.152001 -0.148002,-0.128006 -0.172997,-0.12799 -0.148002,-0.126999 -0.147004,-0.153 -0.172996,-0.127998 -0.295998,-0.255005 -0.147003,-0.153 -0.148002,-0.126999 -0.172997,-0.127998 -0.147003,-0.127999 -0.147995,-0.153007 -0.294998,-0.254998 -0.148003,-0.126998 -0.147003,-0.153 -0.296005,-0.255005 m 36.169993,23.632001 -0.024,-0.025 -0.273,-0.13001 -0.27201,-0.15499 -0.27299,-0.13 -0.24801,-0.12901 -0.273,-0.12999 -0.27199,-0.155 -0.248,-0.129 -0.27301,-0.13001 -0.27199,-0.129 -0.248,-0.15499 -0.27301,-0.12901 -0.247,-0.13 -0.27299,-0.12899 -0.248,-0.155 -0.247,-0.12901 -0.27301,-0.12999 -0.248,-0.129 -0.24699,-0.155 -0.273,-0.12901 -0.49601,-0.25899 -0.27199,-0.15501 -0.248,-0.129 -0.24701,-0.12899 -0.248,-0.13 -0.248,-0.15401 -0.24799,-0.129 -0.247,-0.12999 -0.248,-0.12901 -0.24701,-0.154 -0.49601,-0.25899 -0.24798,-0.12901 -0.247,-0.155 -0.248,-0.129 -0.223,-0.12899 -0.247,-0.12901 -0.24801,-0.154 -0.248,-0.12999 -0.222,-0.129 -0.248,-0.12902 -0.24699,-0.15399 -0.223,-0.129 -0.496,-0.259 -0.222,-0.154 -0.24801,-0.129 -0.44599,-0.258 -0.24701,-0.154 -0.223,-0.129 -0.248,-0.12899 -0.222,-0.12901 -0.223,-0.154 -0.247,-0.129 -0.446,-0.25799 -0.222,-0.15401 -0.223,-0.129 -0.24801,-0.12899 -0.22299,-0.129 -0.222,-0.15401 -0.223,-0.129 -0.223,-0.12899 -0.223,-0.129 -0.222,-0.154002 -0.223,-0.129005 -0.223,-0.127998 -0.222,-0.128998 -0.19799,-0.153999 -0.223,-0.129013 -0.44501,-0.256989 -0.221993,-0.153999 -0.198006,-0.129006 -0.223,-0.128998" /><text
               id="text50"
               style="font-variant:normal;font-weight:normal;font-size:9.9630003px;font-family:CMMI10;-inkscape-font-specification:CMMI10;writing-mode:lr-tb;fill:#000000;fill-opacity:1;fill-rule:nonzero;stroke:none"
               transform="matrix(1,0,0,-1,153,52.5)"><tspan
                 id="tspan48"
                 y="0"
                 x="0">x</tspan></text>
<text
               id="text54"
               style="font-variant:normal;font-weight:normal;font-size:12px;font-family:CMMI10;-inkscape-font-specification:CMMI10;writing-mode:lr-tb;fill:#000000;fill-opacity:1;fill-rule:nonzero;stroke:none"
               transform="matrix(1,0,0,-1,53,114.5)"><tspan
                 id="tspan52"
                 y="0"
                 x="0">y</tspan></text>
<path
               id="path56"
               style="fill:none;stroke:#000000;stroke-width:1;stroke-linecap:butt;stroke-linejoin:miter;stroke-miterlimit:4;stroke-dasharray:3, 3;stroke-dashoffset:0;stroke-opacity:1"
               d="M 89,120 V 5" /><path
               id="path58"
               style="fill:none;stroke:#000000;stroke-width:1;stroke-linecap:butt;stroke-linejoin:round;stroke-miterlimit:4;stroke-dasharray:none;stroke-opacity:1"
               d="m 210.979,58.493004 h 1.80001 m 129.47599,0 h 1.80002 M 277.505,6.5930004 V 4.7930002 m 0,19.4000008 v -1.799999 m 0,19.400001 V 39.993 m 0,37.000004 v -1.800003 m 0,19.400001 v -1.799995 m 0,19.401003 V 110.394" /><path
               id="path60"
               style="fill:none;stroke:#000000;stroke-width:0.5;stroke-linecap:butt;stroke-linejoin:round;stroke-miterlimit:4;stroke-dasharray:none;stroke-opacity:1"
               d="M 211.87901,58.493004 H 350.12802" /><path
               id="path62"
               style="fill:#000000;fill-opacity:1;fill-rule:nonzero;stroke:none"
               d="m 349.108,58.493004 -2.18997,3.603 0.12299,0.082 5.875,-2.333999 c 2.04699,-0.450001 4.09396,-0.900997 6.14099,-1.350998 -2.04703,-0.450001 -4.094,-0.901001 -6.14099,-1.351002 l -5.875,-2.334 -0.12299,0.062 2.18997,3.623005" /><path
               id="path64"
               style="fill:none;stroke:#000000;stroke-width:0.5;stroke-linecap:butt;stroke-linejoin:round;stroke-miterlimit:4;stroke-dasharray:none;stroke-opacity:1"
               d="M 277.505,5.6930003 V 115.134" /><path
               id="path66"
               style="fill:#000000;fill-opacity:1;fill-rule:nonzero;stroke:none"
               d="m 277.505,114.11401 -3.60299,-2.19001 -0.082,0.123 2.33401,5.875 c 0.44998,2.04701 0.9,4.09401 1.35098,6.141 0.45002,-2.04699 0.9,-4.09399 1.35102,-6.141 l 2.33301,-5.875 -0.061,-0.123 -3.62302,2.19001" /><path
               id="path68"
               style="fill:none;stroke:#000000;stroke-width:1;stroke-linecap:butt;stroke-linejoin:round;stroke-miterlimit:4;stroke-dasharray:none;stroke-opacity:1"
               d="m 281.77701,72.089005 -0.14499,-0.252999 -0.073,-0.151001 L 281.414,71.432007 281.341,71.306 281.269,71.155006 281.196,71.028 281.123,70.902 281.05,70.776001 280.978,70.625 l -0.048,-0.125999 -0.073,-0.126999 -0.073,-0.126 -0.072,-0.151001 -0.048,-0.125999 -0.073,-0.126 -0.048,-0.125999 -0.072,-0.151001 -0.073,-0.126999 -0.048,-0.125 -0.072,-0.126999 -0.048,-0.151001 -0.048,-0.126007 -0.072,-0.125992 -0.048,-0.125999 -0.073,-0.151001 -0.047,-0.126 -0.048,-0.125999 -0.048,-0.126 -0.073,-0.151001 -0.047,-0.125999 -0.048,-0.125999 -0.048,-0.125 -0.047,-0.151009 -0.048,-0.125992 -0.073,-0.125999 -0.048,-0.126 -0.047,-0.151001 -0.048,-0.125999 -0.048,-0.126 -0.023,-0.125 -0.047,-0.151001 -0.096,-0.251999 -0.048,-0.126007 -0.047,-0.149994 -0.023,-0.125999 -0.095,-0.252006 -0.048,-0.149994 -0.022,-0.126 -0.048,-0.125999 -0.023,-0.125008 -0.048,-0.150993 -0.047,-0.126 -0.023,-0.125 -0.048,-0.125999 -0.022,-0.150002 -0.023,-0.125999 -0.048,-0.126007 -0.023,-0.124996 -0.022,-0.151001 -0.048,-0.125 -0.046,-0.251 -0.047,-0.151001 -0.023,-0.125999 -0.023,-0.125 -0.023,-0.125 -0.022,-0.151001 -0.068,-0.376 -0.023,-0.149997 -0.068,-0.376999 -0.023,-0.150002 -0.045,-0.250999 -0.023,-0.125 0.003,-0.150002 -0.023,-0.125999 -0.023,-0.125004 0.002,-0.124996 -0.022,-0.151001 -0.023,-0.125 0.002,-0.125 -0.023,-0.125 -0.022,-0.150997 0.002,-0.125 -0.023,-0.125 0.002,-0.125 0.003,-0.150002 -0.023,-0.125999 0.002,-0.124001 -0.023,-0.125999 0.003,-0.150002 M 292.64999,85.279999 292.52701,85.153008 292.38,85 l -0.444,-0.382996 -0.12197,-0.152 -0.29602,-0.255005 -0.12198,-0.126999 -0.14801,-0.153 -0.14801,-0.126999 -0.12198,-0.127998 -0.14804,-0.126999 -0.12299,-0.152 -0.147,-0.127999 -0.12299,-0.126999 -0.14801,-0.128006 -0.12198,-0.151992 -0.12301,-0.127007 -0.14798,-0.127998 -0.12302,-0.126999 -0.12201,-0.152001 -0.12298,-0.126998 -0.14802,-0.127999 -0.12298,-0.126999 -0.12201,-0.152 -0.12299,-0.127007 -0.12301,-0.126999 -0.12299,-0.126998 -0.12201,-0.153 -0.36801,-0.380997 -0.12298,-0.152 L 288.03,80.599007 287.90802,80.472 287.785,80.345001 l -0.12198,-0.153 -0.12301,-0.126999 -0.098,-0.126998 -0.12302,-0.126999 -0.12198,-0.152001 -0.12301,-0.126999 -0.098,-0.126999 -0.12298,-0.126998 -0.12201,-0.152001 -0.098,-0.127006 -0.12305,-0.126999 -0.097,-0.126999 -0.12301,-0.152001 -0.098,-0.126999 -0.12302,-0.126998 -0.097,-0.126 -0.098,-0.152 -0.12201,-0.126999 -0.098,-0.126999 -0.098,-0.127007 -0.12299,-0.152 -0.29303,-0.379997 -0.097,-0.152001 -0.098,-0.126007 -0.12299,-0.127991 -0.098,-0.125999 -0.097,-0.152 -0.098,-0.126999 -0.098,-0.127007 -0.098,-0.125992 -0.097,-0.152 -0.073,-0.126 -0.19601,-0.254005 -0.097,-0.151001 -0.19599,-0.253998 -0.072,-0.125999 -0.098,-0.152001 -0.098,-0.126999 -0.072,-0.125999 -0.098,-0.126999 -0.098,-0.151001 -0.072,-0.126999 -0.098,-0.125999 -0.073,-0.127007 -0.097,-0.150993 -0.14599,-0.253006 -0.098,-0.126999 -0.072,-0.151001 -0.098,-0.126999 -0.14599,-0.251999 -0.072,-0.151001 -0.098,-0.126999 -0.14502,-0.252998 -0.073,-0.151001 -0.073,-0.125999" /><path
               id="path70"
               style="fill:none;stroke:#000000;stroke-width:1;stroke-linecap:butt;stroke-linejoin:round;stroke-miterlimit:4;stroke-dasharray:none;stroke-opacity:1"
               d="m 310.44601,98.591003 -0.22198,-0.128997 -0.19803,-0.153 -0.22299,-0.129006 -0.19699,-0.128997 -0.22299,-0.127999 -0.198,-0.153999 -0.22202,-0.129006 -0.198,-0.127998 -0.22299,-0.128998 -0.19702,-0.153999 -0.22299,-0.129006 -0.198,-0.12799 -0.198,-0.128006 -0.22198,-0.154007 -0.19803,-0.12899 -0.198,-0.127999 -0.19699,-0.129005 -0.198,-0.153 -0.22302,-0.128998 -0.19696,-0.128998 -0.19803,-0.127998 -0.198,-0.153 -0.39499,-0.257004 -0.19799,-0.128997 -0.19699,-0.153 -0.198,-0.128998 -0.198,-0.128006 -0.19803,-0.128998 -0.172,-0.153 -0.19799,-0.127998 -0.198,-0.127998 -0.198,-0.129006 -0.19702,-0.153 -0.17298,-0.127998 -0.19799,-0.128998 -0.19699,-0.127998 -0.17301,-0.153 -0.19702,-0.129006 -0.17297,-0.127998 -0.198,-0.127998 -0.17301,-0.153008 -0.19702,-0.12899 -0.17297,-0.128006 -0.19803,-0.127998 -0.172,-0.153 -0.17297,-0.127999 -0.19803,-0.128997 -0.17297,-0.128006 -0.17203,-0.153 -0.198,-0.127999 -0.345,-0.256004 -0.17297,-0.152992 -0.17301,-0.128006 -0.17303,-0.127998 -0.19696,-0.128998 -0.17304,-0.153 -0.17297,-0.127999 -0.345,-0.256004 -0.17203,-0.153 -0.14798,-0.126999 -0.173,-0.127998 -0.17301,-0.153999 -0.17199,-0.127999 -0.34598,-0.256004 -0.14701,-0.152 -0.173,-0.127999 -0.173,-0.127998 -0.14801,-0.127998 -0.172,-0.153008 -0.17301,-0.127998 -0.14798,-0.126999 -0.173,-0.127999 -0.147,-0.152999 -0.17301,-0.127999 -0.147,-0.127998 -0.173,-0.128006 -0.14798,-0.152001 -0.14701,-0.128006 -0.173,-0.12799 -0.14801,-0.126999 -0.147,-0.153 -0.17301,-0.127998 -0.29599,-0.255005 -0.147,-0.153 -0.14798,-0.126999 -0.17301,-0.127998 -0.14801,-0.127999 -0.147,-0.153007 -0.29602,-0.254998 -0.14697,-0.126998 -0.14801,-0.153 -0.29502,-0.255005 m 36.17002,23.632001 -0.025,-0.025 -0.272,-0.13001 -0.27301,-0.15499 -0.27197,-0.13 -0.24805,-0.12901 -0.27298,-0.12999 -0.27197,-0.155 -0.24802,-0.129 -0.27301,-0.13001 -0.27298,-0.129 -0.24701,-0.15499 -0.27301,-0.12901 -0.24798,-0.13 -0.27201,-0.12899 -0.24798,-0.155 -0.24802,-0.12901 -0.272,-0.12999 -0.24799,-0.129 -0.24801,-0.155 -0.27201,-0.12901 -0.496,-0.25899 -0.27197,-0.15501 -0.24802,-0.129 -0.24798,-0.12899 -0.24802,-0.13 -0.24698,-0.15401 -0.24802,-0.129 -0.24801,-0.12999 -0.24698,-0.12901 -0.24802,-0.154 -0.49499,-0.25899 -0.24799,-0.12901 -0.24701,-0.155 -0.24798,-0.129 -0.22303,-0.12899 -0.24798,-0.12901 -0.24701,-0.154 -0.24799,-0.12999 -0.22302,-0.129 -0.24698,-0.12902 -0.24801,-0.15399 -0.22303,-0.129 -0.49496,-0.259 -0.22299,-0.154 -0.24701,-0.129 -0.44602,-0.258 -0.24698,-0.154 -0.22302,-0.129 -0.24798,-0.12899 -0.223,-0.12901 -0.22201,-0.154 -0.24799,-0.129 -0.445,-0.25799 -0.22303,-0.15401 -0.22299,-0.129 -0.24701,-0.12899 -0.22296,-0.129 -0.22302,-0.15401 -0.22199,-0.129 -0.22302,-0.12899 -0.22299,-0.129 -0.22199,-0.154002 -0.22302,-0.129005 -0.22299,-0.127998 -0.22299,-0.128998 -0.19699,-0.153999 -0.22303,-0.129013 -0.445,-0.256989 -0.223,-0.153999 -0.19799,-0.129006 -0.22199,-0.128998" /><text
               id="text74"
               style="font-variant:normal;font-weight:normal;font-size:9.9630003px;font-family:CMMI10;-inkscape-font-specification:CMMI10;writing-mode:lr-tb;fill:#000000;fill-opacity:1;fill-rule:nonzero;stroke:none"
               transform="matrix(1,0,0,-1,363.8797,52.5)"><tspan
                 id="tspan72"
                 y="0"
                 x="0">x</tspan></text>
<text
               id="text78"
               style="font-variant:normal;font-weight:normal;font-size:12px;font-family:CMMI10;-inkscape-font-specification:CMMI10;writing-mode:lr-tb;fill:#000000;fill-opacity:1;fill-rule:nonzero;stroke:none"
               transform="matrix(1,0,0,-1,263.8797,114.5)"><tspan
                 id="tspan76"
                 y="0"
                 x="0">y</tspan></text>
<path
               id="path80"
               style="fill:none;stroke:#000000;stroke-width:1;stroke-linecap:butt;stroke-linejoin:miter;stroke-miterlimit:4;stroke-dasharray:3, 3;stroke-dashoffset:0;stroke-opacity:1"
               d="M 299.88,117 V 4" /><text
               id="text84"
               style="font-variant:normal;font-weight:normal;font-size:11.95500088px;font-family:CMR12;-inkscape-font-specification:CMR12;writing-mode:lr-tb;fill:#000000;fill-opacity:1;fill-rule:nonzero;stroke:none"
               transform="matrix(1,0,0,-1,138,5)"><tspan
                 id="tspan82"
                 y="0"
                 x="0 4.5548553 10.412806">(a)</tspan></text>
<text
               id="text88"
               style="font-variant:normal;font-weight:normal;font-size:11.95500088px;font-family:CMR12;-inkscape-font-specification:CMR12;writing-mode:lr-tb;fill:#000000;fill-opacity:1;fill-rule:nonzero;stroke:none"
               transform="matrix(1,0,0,-1,342.99957,3.9993665)"><tspan
                 id="tspan86"
                 y="0"
                 x="0 4.5548553 11.058376">(b)</tspan></text>
</g></g></g></g></g></svg>