<?xml version="1.0" encoding="UTF-8" standalone="no"?>
<svg
   xmlns:dc="http://purl.org/dc/elements/1.1/"
   xmlns:cc="http://creativecommons.org/ns#"
   xmlns:rdf="http://www.w3.org/1999/02/22-rdf-syntax-ns#"
   xmlns:svg="http://www.w3.org/2000/svg"
   xmlns="http://www.w3.org/2000/svg"
   viewBox="0 0 664 125.33333"
   height="125.33333"
   width="664"
   xml:space="preserve"
   id="svg2"
   version="1.1"><metadata
     id="metadata8"><rdf:RDF><cc:Work
         rdf:about=""><dc:format>image/svg+xml</dc:format><dc:type
           rdf:resource="http://purl.org/dc/dcmitype/StillImage" /></cc:Work></rdf:RDF></metadata><defs
     id="defs6"><clipPath
       id="clipPath24"
       clipPathUnits="userSpaceOnUse"><path
         id="path22"
         d="M 0,0 H 498 V 94 H 0 Z" /></clipPath></defs><g
     transform="matrix(1.3333333,0,0,-1.3333333,0,125.33333)"
     id="g10"><g
       id="g12" /><g
       id="g14" /><g
       id="g16"><g
         id="g18"><g
           clip-path="url(#clipPath24)"
           id="g20"><g
             id="g26" /><g
             id="g28"><path
               id="path30"
               style="fill:none;stroke:#000000;stroke-width:1;stroke-linecap:butt;stroke-linejoin:round;stroke-miterlimit:4;stroke-dasharray:none;stroke-opacity:1"
               d="M 11.219001,36.937 H 145.121" /><path
               id="path32"
               style="fill:#000000;fill-opacity:1;fill-rule:nonzero;stroke:none"
               d="m 144.87601,36.937 -1.752,2.883 0.098,0.065 4.70001,-1.866001 c 1.63799,-0.361 3.275,-0.721001 4.913,-1.082001 -1.638,-0.359997 -3.27501,-0.719997 -4.913,-1.080997 l -4.70001,-1.866005 -0.098,0.049 1.752,2.897999" /><path
               id="path34"
               style="fill:none;stroke:#000000;stroke-width:1;stroke-linecap:butt;stroke-linejoin:round;stroke-miterlimit:4;stroke-dasharray:none;stroke-opacity:1"
               d="M 77,14 V 73.244003" /><path
               id="path36"
               style="fill:#000000;fill-opacity:1;fill-rule:nonzero;stroke:none"
               d="m 77,73 -2.881996,-1.751999 -0.065,0.098 1.866005,4.700004 c 0.360993,1.638001 0.720993,3.275002 1.080994,4.913002 0.360001,-1.638 0.721001,-3.275001 1.081001,-4.913002 l 1.867005,-4.700004 -0.049,-0.098 L 77,73" /><path
               id="path38"
               style="fill:none;stroke:#000000;stroke-width:0.5;stroke-linecap:butt;stroke-linejoin:round;stroke-miterlimit:4;stroke-dasharray:none;stroke-opacity:1"
               d="m 92.133003,24.379002 0.300003,-0.025 0.299996,-0.05 0.300003,-0.025 0.300003,-0.025 0.299995,-0.05 0.300003,-0.025 0.299996,-0.025 0.300003,-0.05 0.300003,-0.025 0.274994,-0.025 0.300003,-0.05 0.275001,-0.025 0.299996,-0.025 0.275001,-0.05 0.275002,-0.025 0.275001,-0.025 0.275002,-0.05 0.274994,-0.025 0.275001,-0.025 0.275002,-0.05 0.275001,-0.025 0.25,-0.025 0.276001,-0.05 0.249001,-0.025 0.25,-0.025 0.274994,-0.05 0.25,-0.025 0.25,-0.025 0.249998,-0.05 0.25,-0.025 0.22501,-0.025 0.251,-0.05 0.224,-0.025 0.25,-0.025 0.22499,-0.05 0.225,-0.025 0.225,-0.025 0.22501,-0.05 0.225,-0.025 0.22499,-0.025 0.225,-0.05 0.20101,-0.025 0.224,-0.025 0.19999,-0.05 0.20001,-0.025 0.19999,-0.025 0.2,-0.05 0.20001,-0.025 0.19999,-0.025 0.20001,-0.05 0.17499,-0.025 0.17501,-0.025 0.19999,-0.05 0.17601,-0.025 0.17399,-0.025 0.176,-0.05 0.17401,-0.025 0.14999,-0.025 0.176,-0.05 0.15001,-0.025 0.149,-0.025 0.17499,-0.05 0.151,-0.025 0.125,-0.025 0.15001,-0.05 0.149,-0.025 0.125,-0.025 0.14999,-0.05 0.125,-0.025 0.125,-0.025 0.125,-0.05 0.125,-0.025 0.125,-0.025 0.10101,-0.05 0.124,-0.025 0.101,-0.025 0.1,-0.05 0.099,-0.025 0.1,-0.025 0.10001,-0.05 0.101,-0.025 0.074,-0.025 0.1,-0.05 0.076,-0.025 0.074,-0.025 0.076,-0.05 0.075,-0.024 0.049,-0.026 0.076,-0.05 0.049,-0.025 0.076,-0.025 0.05,-0.05 0.049,-0.025 0.051,-0.025 0.024,-0.05 0.05,-0.025 0.026,-0.025 0.049,-0.049 0.025,-0.026 m -51.549998,6.600001 0.3,-0.025 0.325,-0.05 0.325001,-0.025 0.299999,-0.025 0.325001,-0.05 0.325001,-0.025 0.325001,-0.025 0.299999,-0.05 0.325001,-0.025 0.324997,-0.025 0.325,-0.05 0.350003,-0.025 0.324997,-0.025 0.325,-0.05 0.325001,-0.025 0.349999,-0.025 0.325004,-0.05 0.324997,-0.025 0.349999,-0.025 0.325004,-0.05 0.349999,-0.025 0.324997,-0.025 0.349998,-0.05 0.350006,-0.025 0.324997,-0.025 0.349999,-0.05 0.349998,-0.025 0.325005,-0.025 0.349998,-0.05 0.349999,-0.025 0.349998,-0.025 0.350006,-0.05 0.699997,-0.05 0.349999,-0.05 0.349998,-0.025 0.350006,-0.025 0.349999,-0.05 0.349998,-0.025 0.349999,-0.025 0.349998,-0.05 0.350006,-0.025 0.349999,-0.025 0.349998,-0.05 0.349999,-0.025 0.349998,-0.025 0.350006,-0.05 0.699997,-0.05 0.349999,-0.05 0.349998,-0.025 0.350006,-0.025 0.349999,-0.05 0.349998,-0.025 0.375,-0.025 0.349999,-0.05 0.349998,-0.025 0.350006,-0.025 0.349999,-0.05 0.349998,-0.025 0.349999,-0.025 0.349998,-0.05 0.350006,-0.025 0.324997,-0.025 0.349999,-0.05 0.349998,-0.025 0.350006,-0.025 0.349999,-0.05 0.699997,-0.05 0.325004,-0.05 0.699997,-0.05 0.324997,-0.05 0.350006,-0.025 0.324997,-0.025 0.349999,-0.05 0.350006,-0.025 0.324997,-0.025 0.324997,-0.05 0.350006,-0.025 0.324997,-0.025 0.324997,-0.05 0.350006,-0.025 0.324997,-0.024 0.324997,-0.051 0.325004,-0.025 0.324997,-0.025 0.325005,-0.05 0.324997,-0.025 0.324997,-0.025 0.325004,-0.05 0.299996,-0.025 0.325004,-0.025 0.324997,-0.05 0.300003,-0.024 0.324997,-0.026 0.300003,-0.05 0.324997,-0.025" /><path
               id="path40"
               style="fill:none;stroke:#000000;stroke-width:0.5;stroke-linecap:butt;stroke-linejoin:round;stroke-miterlimit:4;stroke-dasharray:none;stroke-opacity:1"
               d="m 40.083,30.979002 0.075,-0.075 0.05,-0.025 0.05,-0.05 0.05,-0.025 0.05,-0.025 0.05,-0.05 0.05,-0.025 0.075,-0.025 0.075,-0.05 0.05,-0.025 0.075,-0.025 0.075,-0.05 0.1,-0.025 0.075,-0.025 0.075,-0.05 0.1,-0.025 0.100002,-0.025 0.1,-0.05 0.1,-0.025 0.100002,-0.025 0.1,-0.05 0.100002,-0.025 0.125,-0.025 0.125,-0.05 0.125,-0.025 0.1,-0.025 0.150001,-0.05 0.125,-0.025 0.125,-0.025 0.149998,-0.05 0.125,-0.025 0.150001,-0.025 0.149998,-0.05 0.150002,-0.025 0.150001,-0.025 0.149998,-0.05 0.174999,-0.025 0.150002,-0.025 0.174999,-0.05 0.150001,-0.025 0.175,-0.025 0.174999,-0.05 0.175003,-0.025 0.199997,-0.025 0.175003,-0.05 0.174999,-0.025 0.200001,-0.025 0.199997,-0.05 0.200001,-0.025 0.174999,-0.025 0.225002,-0.05 0.200001,-0.025 0.199997,-0.025 0.200001,-0.05 0.225002,-0.025 0.224998,-0.025 0.200001,-0.05 0.224999,-0.025 0.225002,-0.024 0.224998,-0.051 0.224999,-0.025 0.25,-0.025 0.225002,-0.05 0.224999,-0.025 0.25,-0.025 0.25,-0.05 0.25,-0.025 0.225002,-0.025 0.25,-0.05 0.274998,-0.024 0.25,-0.026 0.25,-0.05 0.25,-0.025 0.275001,-0.025 0.25,-0.025 0.274998,-0.05 0.275001,-0.025 0.275002,-0.025 0.274998,-0.05 0.275001,-0.025 0.274998,-0.025 0.275001,-0.05 0.275002,-0.025 0.299999,-0.025 0.274998,-0.05 0.300003,-0.025 0.274998,-0.025 0.299999,-0.05 0.300003,-0.025 0.299999,-0.025 0.274998,-0.05 0.300003,-0.025 0.299999,-0.024 0.325001,-0.051 0.299999,-0.025 0.299999,-0.025 0.3,-0.05 0.325,-0.025 m -5.549999,6.600002 -0.275001,-0.05 -0.274998,-0.025 -0.275002,-0.025 -0.25,-0.05 -0.275001,-0.025 -0.25,-0.025 -0.274998,-0.05 -0.25,-0.025 -0.25,-0.025 -0.25,-0.05 -0.25,-0.025 -0.25,-0.025 -0.25,-0.05 -0.25,-0.025 -0.225002,-0.025 -0.25,-0.05 -0.224999,-0.025 -0.25,-0.025 -0.224998,-0.05 -0.225002,-0.025 -0.224999,-0.025 -0.225002,-0.05 -0.199997,-0.025 -0.225002,-0.025 -0.224999,-0.05 -0.200001,-0.025 -0.2,-0.025 -0.224999,-0.05 -0.200001,-0.025 -0.2,-0.025 -0.175,-0.05 -0.2,-0.025 -0.200001,-0.025 -0.174999,-0.05 -0.200001,-0.024 -0.174999,-0.026 -0.175,-0.05 -0.174999,-0.025 -0.174999,-0.025 -0.175003,-0.05 -0.149998,-0.025 -0.175003,-0.025 -0.149998,-0.05 -0.150001,-0.025 -0.174999,-0.025 -0.150002,-0.049 -0.125,-0.026 -0.149998,-0.025 -0.150001,-0.05 -0.125,-0.025 -0.149998,-0.025 -0.125,-0.05 -0.125,-0.025 -0.125,-0.025 -0.125,-0.05 -0.100002,-0.025 -0.125,-0.025 -0.1,-0.05 -0.125,-0.025 -0.100002,-0.025 -0.1,-0.05 -0.1,-0.025 -0.100002,-0.025 -0.075,-0.05 -0.1,-0.025 -0.075,-0.025 -0.075,-0.05 -0.075,-0.025 -0.075,-0.024 -0.075,-0.051 -0.075,-0.025 -0.05,-0.025 -0.075,-0.05 -0.05,-0.025 -0.05,-0.025 -0.05,-0.05 -0.05,-0.025 -0.05,-0.025 -0.025,-0.05 -0.05,-0.024 -0.025,-0.026 -0.025,-0.05 -0.05,-0.05 -0.025,-0.05 v -0.025 l -0.025,-0.025 v -0.174 l 0.025,-0.026 v -0.05 l 0.05,-0.049 0.025,-0.051 0.025,-0.025 0.025,-0.025" /><path
               id="path42"
               style="fill:none;stroke:#000000;stroke-width:0.5;stroke-linecap:butt;stroke-linejoin:round;stroke-miterlimit:4;stroke-dasharray:none;stroke-opacity:1"
               d="m 86.033005,37.579002 -0.324997,-0.05 -0.350006,-0.025 -0.324997,-0.025 -0.349999,-0.05 -0.349998,-0.025 -0.325005,-0.025 -0.349998,-0.05 -0.325005,-0.025 -0.349998,-0.025 -0.349999,-0.05 -0.349998,-0.025 -0.325005,-0.025 -0.349998,-0.05 -0.349999,-0.025 -0.349998,-0.025 -0.349999,-0.05 -0.350006,-0.025 -0.349998,-0.025 -0.349999,-0.05 -0.699997,-0.05 -0.350006,-0.05 -0.349998,-0.025 -0.349999,-0.025 -0.349998,-0.05 -0.349999,-0.025 -0.350006,-0.025 -0.349998,-0.05 -0.349999,-0.025 -0.349998,-0.025 -0.349999,-0.05 -0.350006,-0.025 -0.349998,-0.024 -0.375,-0.051 -0.699997,-0.05 -0.349999,-0.05 -0.350006,-0.025 -0.349998,-0.025 -0.349999,-0.05 -0.349998,-0.025 -0.349999,-0.025 -0.350006,-0.05 -0.349998,-0.024 -0.349999,-0.026 -0.349998,-0.05 -0.349999,-0.025 -0.350006,-0.025 -0.324997,-0.05 -0.699997,-0.05 -0.350006,-0.05 -0.349998,-0.025 -0.324997,-0.025 -0.349999,-0.049 -0.350006,-0.026 -0.324997,-0.025 -0.349998,-0.05 -0.349999,-0.025 -0.325004,-0.025 -0.349999,-0.05 -0.324997,-0.025 -0.350006,-0.025 -0.324997,-0.05 -0.325001,-0.025 -0.325,-0.025 -0.349999,-0.05 -0.325001,-0.025 -0.325,-0.025 -0.324997,-0.05 -0.325001,-0.024 -0.325001,-0.026 -0.325001,-0.05 -0.325,-0.025 -0.324997,-0.024 -0.300003,-0.051 -0.325001,-0.025 -0.324997,-0.024 -0.300003,-0.051 -0.324997,-0.025 -0.300003,-0.025 -0.299999,-0.049 -0.325001,-0.026 -0.299999,-0.025 -0.3,-0.05 -0.299999,-0.024 -0.299999,-0.026 -0.300003,-0.05 -0.299999,-0.024 -0.3,-0.02501 -0.275001,-0.051 -0.299999,-0.025 -0.3,-0.025 -0.275001,-0.05 -0.274998,-0.025 -0.299999,-0.025 -0.275002,-0.049 -0.275001,-0.026 -0.274998,-0.025 m 55.950007,6.574997 -0.075,-0.025 -0.099,-0.025 -0.1,-0.05 -0.101,-0.025 -0.125,-0.025 -0.10001,-0.05 -0.125,-0.025 -0.1,-0.024 -0.125,-0.051 -0.125,-0.025 -0.125,-0.025 -0.15,-0.05 -0.125,-0.025 -0.125,-0.025 -0.14899,-0.05 -0.15,-0.025 -0.15001,-0.025 -0.151,-0.05 -0.15,-0.024 -0.14899,-0.026 -0.17501,-0.05 -0.151,-0.025 -0.17499,-0.025 -0.149,-0.05 -0.17601,-0.025 -0.17499,-0.025 -0.17401,-0.05 -0.20099,-0.025 -0.17501,-0.025 -0.19999,-0.049 -0.17501,-0.026 -0.19999,-0.025 -0.20001,-0.05 -0.19999,-0.025 -0.20001,-0.025 -0.2,-0.025 -0.19999,-0.05 -0.22501,-0.025 -0.2,-0.025 -0.22499,-0.05 -0.225,-0.025 -0.22501,-0.024 -0.2,-0.051 -0.25,-0.025 -0.22499,-0.025 -0.225,-0.05 -0.22501,-0.025 -0.25,-0.025 -0.25,-0.05 -0.225,-0.024 -0.25,-0.026 -0.25,-0.05 -0.249997,-0.024 -0.25,-0.02501 -0.25,-0.051 -0.275001,-0.025 -0.25,-0.025 -0.274994,-0.05 -0.25,-0.025 -0.275002,-0.025 -0.275001,-0.049 -0.25,-0.026 -0.275002,-0.025 -0.275001,-0.049 -0.299996,-0.025 -0.275001,-0.026 -0.275002,-0.05 -0.275001,-0.025 -0.299996,-0.024 -0.275001,-0.051 -0.300003,-0.025 -0.299996,-0.025 -0.300003,-0.05 -0.275001,-0.025 -0.299996,-0.025 -0.300003,-0.049 -0.299995,-0.026 -0.325005,-0.025 -0.299995,-0.05 -0.300003,-0.024 -0.300003,-0.026 -0.324997,-0.05 -0.300003,-0.025 -0.324997,-0.024 -0.324997,-0.051 -0.300003,-0.025 -0.324997,-0.024 -0.325005,-0.051 -0.324997,-0.025 -0.325004,-0.025 -0.299996,-0.049 -0.349998,-0.026 -0.325005,-0.025 -0.324997,-0.05 -0.325004,-0.024 -0.324997,-0.026 -0.324997,-0.05 -0.350006,-0.024 -0.324997,-0.02501" /><path
               id="path44"
               style="fill:none;stroke:#000000;stroke-width:0.5;stroke-linecap:butt;stroke-linejoin:round;stroke-miterlimit:4;stroke-dasharray:none;stroke-opacity:1"
               d="m 101.508,44.154003 0.225,-0.025 0.22501,-0.025 0.225,-0.05 0.22499,-0.025 0.225,-0.025 0.225,-0.05 0.20001,-0.025 0.22499,-0.025 0.2,-0.05 0.22501,-0.025 0.20099,-0.025 0.199,-0.05 0.20101,-0.025 0.19899,-0.025 0.17601,-0.05 0.19899,-0.025 0.17601,-0.024 0.19899,-0.051 0.17601,-0.025 0.17399,-0.025 0.176,-0.05 0.17401,-0.025 0.17499,-0.025 0.151,-0.05 0.17401,-0.025 0.14999,-0.025 0.15,-0.05 0.151,-0.024 0.15001,-0.026 0.149,-0.05 0.14999,-0.025 0.15,-0.025 0.125,-0.05 0.125,-0.025 0.151,-0.025 0.125,-0.049 0.125,-0.026 0.125,-0.025 0.099,-0.049 0.125,-0.02501 0.1,-0.026 0.10001,-0.05 0.126,-0.025 0.1,-0.024 0.074,-0.051 0.1,-0.025 0.10101,-0.025 0.075,-0.05 0.099,-0.025 0.075,-0.025 0.076,-0.049 0.074,-0.026 0.076,-0.025 0.049,-0.05 0.076,-0.02401 0.049,-0.026 0.051,-0.05 0.05,-0.025 0.049,-0.024 0.051,-0.051 0.049,-0.025 0.125,-0.125 0.025,-0.049 0.026,-0.026 0.025,-0.025 v -0.05 l 0.025,-0.024 v -0.175995 l -0.025,-0.025 v -0.025 l -0.025,-0.05 -0.026,-0.025 -0.025,-0.025 -0.025,-0.049 -0.024,-0.026 -0.051,-0.025 -0.025,-0.049 -0.049,-0.02501 -0.051,-0.025 -0.049,-0.051 -0.05,-0.025 -0.051,-0.024 -0.074,-0.051 -0.051,-0.025 -0.074,-0.025 -0.075,-0.049 -0.076,-0.026 -0.074,-0.025 -0.076,-0.049 -0.074,-0.025 -0.1,-0.026 -0.101,-0.05 m -38.975008,6.600002 0.349998,-0.025 0.350006,-0.025 0.349999,-0.049 0.349998,-0.026 0.349999,-0.025 0.349998,-0.05 0.350006,-0.025 0.349999,-0.025 0.349998,-0.05 0.349999,-0.025 0.349998,-0.025 0.350006,-0.05 0.349999,-0.025 0.375,-0.025 0.349998,-0.05 0.349999,-0.025 0.349998,-0.025 0.350006,-0.05 0.349999,-0.02401 0.349998,-0.026 0.349999,-0.05 0.349998,-0.025 0.350006,-0.024 0.349999,-0.051 0.349998,-0.025 0.349999,-0.024 0.349998,-0.051 0.350006,-0.025 0.349999,-0.025 0.349998,-0.049 0.349999,-0.026 0.349998,-0.025 0.350006,-0.05 0.324997,-0.02401 0.349999,-0.026 0.349998,-0.05 0.350006,-0.024 0.324997,-0.025 0.349999,-0.051 0.349998,-0.025 0.325005,-0.025 0.349998,-0.05 0.325005,-0.025 0.349998,-0.025 0.324997,-0.049 0.349999,-0.026 0.325004,-0.025 0.324997,-0.049 0.349999,-0.02501 0.325004,-0.026 0.324997,-0.05 0.325005,-0.025 0.324997,-0.024 0.324997,-0.051 0.325004,-0.025 0.324997,-0.025 0.325005,-0.05 0.324997,-0.025 0.300003,-0.025 0.324997,-0.049 0.324997,-0.026 0.300003,-0.025 0.324997,-0.05 0.300003,-0.02401 0.300003,-0.026 0.324997,-0.05 0.300003,-0.025 0.299995,-0.024 0.300003,-0.051 0.299996,-0.025 0.300003,-0.024 0.300003,-0.05 0.299995,-0.026 0.275002,-0.025 0.300003,-0.049 0.274994,-0.025 0.300003,-0.026 0.275001,-0.05 0.299996,-0.02401 0.275001,-0.025 0.275002,-0.051 0.550003,-0.049 0.274994,-0.051 0.25,-0.025 0.275001,-0.025 0.275002,-0.049 0.25,-0.026 0.25,-0.025 0.275001,-0.049 0.25,-0.025 0.25,-0.026 0.250004,-0.049 0.25,-0.02501 0.25,-0.025 0.22499,-0.051 0.25,-0.025 0.225,-0.024 0.25,-0.051" /><path
               id="path46"
               style="fill:none;stroke:#000000;stroke-width:0.5;stroke-linecap:butt;stroke-linejoin:round;stroke-miterlimit:4;stroke-dasharray:none;stroke-opacity:1"
               d="m 43.258003,50.754002 0.149998,-0.024 0.150001,-0.025 0.149998,-0.051 0.175003,-0.025 0.149998,-0.025 0.175003,-0.05 0.174999,-0.025 0.149998,-0.025 0.175003,-0.049 0.199997,-0.026 0.175003,-0.025 0.174999,-0.049 0.200001,-0.02501 0.174999,-0.026 0.200001,-0.05 0.199997,-0.025 0.200001,-0.024 0.2,-0.051 0.200001,-0.025 0.224999,-0.025 0.2,-0.05 0.224999,-0.025 0.200001,-0.025 0.225002,-0.049 0.224998,-0.026 0.224999,-0.025 0.225002,-0.05 0.224999,-0.02401 0.25,-0.026 0.225002,-0.05 0.224998,-0.025 0.25,-0.024 0.25,-0.051 0.25,-0.025 0.25,-0.024 0.25,-0.051 0.25,-0.025 0.25,-0.025 0.25,-0.049 0.275002,-0.026 0.25,-0.025 0.274998,-0.05 0.275001,-0.02401 0.25,-0.026 0.274998,-0.05 0.275001,-0.024 0.275002,-0.025 0.274998,-0.051 0.299999,-0.025 0.275001,-0.025 0.275002,-0.049 0.299999,-0.026 0.274998,-0.025 0.300003,-0.049 0.299999,-0.025 0.274998,-0.026 0.300003,-0.049 0.299999,-0.02501 0.299999,-0.02499 0.3,-0.051 0.325,-0.025 0.3,-0.024 0.299999,-0.051 0.300003,-0.025 0.324997,-0.025 0.300003,-0.049 0.324997,-0.026 0.325001,-0.025 0.299999,-0.049 0.325001,-0.025 0.325,-0.026 0.325001,-0.05 0.325001,-0.02401 0.325001,-0.02499 0.324997,-0.051 0.325,-0.025 0.325001,-0.024 0.325001,-0.051 0.325001,-0.025 0.349998,-0.024 0.325001,-0.05 0.325001,-0.026 0.349998,-0.025 0.324997,-0.049 0.350006,-0.025 0.324997,-0.026 0.349999,-0.05 0.325004,-0.02401 0.349999,-0.02499 0.349998,-0.051 0.324997,-0.024 0.350006,-0.025 0.349999,-0.051 0.349998,-0.025 0.349999,-0.025 0.325004,-0.049 0.349999,-0.026 0.349998,-0.025 0.349999,-0.049 m -24.950001,6.598999 -0.174999,-0.025 -0.175,-0.05 -0.174999,-0.024 -0.174999,-0.026 -0.175003,-0.05 -0.174999,-0.025 -0.150002,-0.02401 -0.174999,-0.051 -0.149998,-0.025 -0.150001,-0.024 -0.150002,-0.051 -0.149998,-0.025 -0.150001,-0.025 -0.149998,-0.049 -0.150001,-0.026 -0.125,-0.025 -0.125,-0.05 -0.125,-0.024 -0.150002,-0.026 -0.1,-0.05 -0.125,-0.024 -0.125,-0.02501 -0.1,-0.051 -0.125,-0.025 -0.100002,-0.025 -0.1,-0.05 -0.100002,-0.025 -0.1,-0.025 -0.1,-0.049 -0.075,-0.026 -0.100002,-0.025 -0.075,-0.049 -0.075,-0.025 -0.075,-0.025 -0.075,-0.051 -0.075,-0.025 -0.075,-0.02401 -0.05,-0.051 -0.05,-0.025 -0.075,-0.025 -0.05,-0.049 -0.05,-0.026 -0.025,-0.025 -0.05,-0.049 -0.05,-0.02499 -0.025,-0.026 -0.025,-0.05 -0.05,-0.049 -0.025,-0.051 -0.025,-0.025 v -0.02401 l -0.025,-0.051 v -0.125 l 0.025,-0.025 v -0.049 l 0.025,-0.02499 v -0.026 l 0.025,-0.05 0.125,-0.124001 0.05,-0.02501 0.025,-0.051 0.100002,-0.05 0.05,-0.049 0.075,-0.026 0.05,-0.025 0.075,-0.049 0.05,-0.02499 0.075,-0.026 0.075,-0.049 0.075,-0.025 0.100002,-0.025 0.075,-0.051 0.075,-0.025 0.100002,-0.02401 0.1,-0.05 0.100002,-0.026 0.1,-0.025 0.1,-0.049 0.100002,-0.025 0.125,-0.026 0.1,-0.049 0.125,-0.02499 0.125,-0.02501 0.125,-0.05099 0.125,-0.024 0.125,-0.025 0.150001,-0.051 0.125,-0.025 0.149998,-0.02401 0.150002,-0.02499 0.150001,-0.051" /><path
               id="path48"
               style="fill:none;stroke:#000000;stroke-width:0.5;stroke-linecap:butt;stroke-linejoin:round;stroke-miterlimit:4;stroke-dasharray:none;stroke-opacity:1"
               d="m 74.133003,57.354004 -0.349998,-0.02401 -0.349999,-0.051 -0.350006,-0.025 -0.349998,-0.025 -0.349999,-0.05 -0.699997,-0.05 -0.350006,-0.049 -0.349998,-0.026 -0.349999,-0.025 -0.349998,-0.05 -0.349999,-0.024 -0.350006,-0.026 -0.349998,-0.05 -0.349999,-0.025 -0.349998,-0.02401 -0.349999,-0.051 -0.325004,-0.025 -0.349999,-0.024 -0.349998,-0.05 -0.349999,-0.026 -0.325004,-0.025 -0.349999,-0.049 -0.324997,-0.02499 -0.350006,-0.026 -0.324997,-0.05 -0.349998,-0.024 -0.325005,-0.025 -0.349998,-0.051 -0.324997,-0.024 -0.325001,-0.02501 -0.350002,-0.051 -0.324997,-0.025 -0.325001,-0.025 -0.325001,-0.049 -0.325001,-0.026 -0.325,-0.025 -0.324997,-0.049 -0.325001,-0.02499 -0.325001,-0.026 -0.325001,-0.049 -0.299999,-0.025 -0.325001,-0.025 -0.325,-0.051 -0.3,-0.025 -0.325,-0.02401 -0.3,-0.051 -0.299999,-0.025 -0.325001,-0.025 -0.299999,-0.049 -0.299999,-0.026 -0.300003,-0.025 -0.299999,-0.049 -0.3,-0.02499 -0.299999,-0.026 -0.275001,-0.05 -0.3,-0.024 -0.299999,-0.025 -0.275001,-0.051 -0.3,-0.025 -0.275001,-0.02401 -0.274998,-0.051 -0.275001,-0.025 -0.3,-0.024 -0.275001,-0.05 -0.274998,-0.026 -0.25,-0.025 -0.275001,-0.049 -0.274998,-0.02499 -0.25,-0.02501 -0.275002,-0.05099 -0.25,-0.024 -0.25,-0.025 -0.275001,-0.051 -0.5,-0.049 -0.224999,-0.05 -0.25,-0.026 -0.25,-0.025 -0.224998,-0.049 -0.25,-0.025 -0.225002,-0.026 -0.25,-0.049 -0.224999,-0.02499 -0.225002,-0.02501 -0.224999,-0.05 -0.224998,-0.025 -0.200001,-0.025 -0.225002,-0.051 -0.199997,-0.025 -0.225002,-0.02401 -0.200001,-0.05 -0.199997,-0.026 -0.200001,-0.025 -0.200001,-0.049 -0.2,-0.025 -0.200001,-0.026 -0.174999,-0.049 -0.200001,-0.02499 m 58.849999,6.598999 -0.19999,-0.025 -0.224,-0.049 -0.20101,-0.02499 -0.19999,-0.026 -0.225,-0.049 -0.22501,-0.025 -0.2,-0.025 -0.22499,-0.051 -0.224,-0.025 -0.22601,-0.02401 -0.25,-0.051 -0.225,-0.025 -0.225,-0.025 -0.25,-0.049 -0.25,-0.026 -0.22499,-0.025 -0.25,-0.049 -0.250004,-0.02499 -0.25,-0.026 -0.25,-0.05 -0.275001,-0.024 -0.25,-0.025 -0.25,-0.051 -0.275002,-0.025 -0.275001,-0.02401 -0.25,-0.051 -0.273995,-0.025 -0.276001,-0.024 -0.275001,-0.05 -0.275002,-0.026 -0.275001,-0.025 -0.274994,-0.049 -0.300003,-0.02499 -0.275002,-0.026 -0.298996,-0.05 -0.276001,-0.024 -0.300003,-0.025 -0.299995,-0.051 -0.275002,-0.024 -0.300003,-0.02501 -0.299995,-0.051 -0.300003,-0.025 -0.300003,-0.025 -0.299996,-0.049 -0.325004,-0.026 -0.299996,-0.025 -0.300003,-0.049 -0.324997,-0.02499 -0.300003,-0.02501 -0.324997,-0.05 -0.325004,-0.025 -0.299996,-0.025 -0.325004,-0.051 -0.324997,-0.025 -0.324997,-0.02401 -0.325005,-0.05 -0.324997,-0.026 -0.325004,-0.025 -0.324997,-0.049 -0.324997,-0.025 -0.325005,-0.026 -0.324997,-0.049 -0.349998,-0.02499 -0.325005,-0.02501 -0.324997,-0.05099 -0.349998,-0.024 -0.325005,-0.025 -0.349998,-0.051 -0.324997,-0.025 -0.350006,-0.02401 -0.324997,-0.05 -0.349999,-0.026 -0.350006,-0.024 -0.349998,-0.05 -0.324997,-0.025 -0.349999,-0.026 -0.350006,-0.049 -0.349998,-0.02499 -0.349999,-0.02501 -0.324997,-0.05099 -0.350006,-0.024 -0.349998,-0.025 -0.349999,-0.051 -0.699997,-0.049 -0.350006,-0.05 -0.349998,-0.026 -0.349999,-0.025 -0.349998,-0.049 -0.349999,-0.025 -0.350006,-0.026 -0.349998,-0.049 -0.375,-0.02499 -0.349999,-0.02501 -0.349998,-0.05 -0.349999,-0.025 -0.350006,-0.025 -0.349998,-0.05 -0.349999,-0.02599" /><path
               id="path50"
               style="fill:none;stroke:#000000;stroke-width:0.5;stroke-linecap:butt;stroke-linejoin:round;stroke-miterlimit:4;stroke-dasharray:none;stroke-opacity:1"
               d="m 107.80901,63.955002 0.125,-0.051 0.125,-0.025 0.125,-0.024 0.125,-0.05 0.125,-0.026 0.1,-0.025 0.125,-0.049 0.099,-0.025 0.1,-0.026 0.10001,-0.05 0.101,-0.02401 0.074,-0.02499 0.1,-0.051 0.076,-0.024 0.1,-0.025 0.074,-0.051 0.076,-0.025 0.074,-0.025 0.051,-0.049 0.074,-0.026 0.075,-0.025 0.05,-0.049 0.051,-0.025 0.049,-0.026 0.051,-0.049 0.049,-0.02501 0.076,-0.076 0.025,-0.025 0.024,-0.024 0.025,-0.051 0.025,-0.025 0.026,-0.025 0.025,-0.049 v -0.02501 l 0.025,-0.026 v -0.149998 l -0.025,-0.02401 v -0.02499 l -0.025,-0.051 v -0.025 l -0.026,-0.024 -0.025,-0.05 -0.049,-0.026 -0.025,-0.024 -0.026,-0.05 -0.05,-0.02501 -0.049,-0.026 -0.051,-0.049 -0.049,-0.025 -0.051,-0.025 -0.05,-0.051 -0.075,-0.02401 -0.05,-0.02499 -0.075,-0.051 -0.074,-0.024 -0.076,-0.025 -0.074,-0.025 -0.076,-0.051 -0.075,-0.025 -0.099,-0.02401 -0.1,-0.05 -0.101,-0.026 -0.075,-0.025 -0.125,-0.049 -0.099,-0.025 -0.1,-0.026 -0.125,-0.049 -0.101,-0.02499 -0.125,-0.02501 -0.124,-0.05099 -0.126,-0.024 -0.125,-0.025 -0.124,-0.051 -0.15,-0.025 -0.125,-0.02401 -0.15001,-0.05 -0.151,-0.026 -0.15,-0.024 -0.14999,-0.05 -0.149,-0.025 -0.15001,-0.02501 -0.176,-0.05 -0.14899,-0.02499 -0.17501,-0.02501 -0.176,-0.05099 -0.17399,-0.024 -0.17601,-0.025 -0.17499,-0.05 -0.17501,-0.02499 -0.175,-0.02501 -0.2,-0.05 -0.19999,-0.025 -0.17501,-0.026 -0.19999,-0.049 -0.20001,-0.025" /><path
               id="path52"
               style="fill:none;stroke:#000000;stroke-width:1;stroke-linecap:butt;stroke-linejoin:round;stroke-miterlimit:4;stroke-dasharray:none;stroke-opacity:1"
               d="M 168.149,15 H 302.04999" /><path
               id="path54"
               style="fill:#000000;fill-opacity:1;fill-rule:nonzero;stroke:none"
               d="m 301.806,15 -1.75198,2.882 0.098,0.065 4.70001,-1.867001 c 1.63797,-0.360001 3.27499,-0.72 4.91299,-1.08 -1.638,-0.360999 -3.27502,-0.721 -4.91299,-1.080999 l -4.70001,-1.867 -0.098,0.049 L 301.806,15" /><path
               id="path56"
               style="fill:none;stroke:#000000;stroke-width:1;stroke-linecap:butt;stroke-linejoin:round;stroke-miterlimit:4;stroke-dasharray:none;stroke-opacity:1"
               d="M 231.90001,8 V 79.726006" /><path
               id="path58"
               style="fill:#000000;fill-opacity:1;fill-rule:nonzero;stroke:none"
               d="m 231.90001,79.481003 -2.882,-1.751999 -0.066,0.098 1.86701,4.699997 c 0.36,1.638001 0.72097,3.276001 1.08099,4.912995 0.35998,-1.636994 0.72101,-3.274994 1.08101,-4.912995 l 1.86699,-4.699997 -0.05,-0.098 -2.89799,1.751999" /><path
               id="path60"
               style="fill:none;stroke:#000000;stroke-width:0.5;stroke-linecap:butt;stroke-linejoin:round;stroke-miterlimit:4;stroke-dasharray:none;stroke-opacity:1"
               d="m 257.72501,57.400002 0.32498,0.425003 0.32501,0.424995 0.32501,0.450001 0.29999,0.425003 0.97501,1.349998 0.30001,0.450001 0.32499,0.474999 0.32501,0.449996 0.32498,0.475007 0.29999,0.474994 0.32501,0.475003 0.32501,0.5 0.32501,0.474998 0.29999,0.5 0.32498,0.5 0.32502,0.5 0.32501,0.525002 0.29999,0.5 0.64999,1.050003 0.32501,0.524993 0.29999,0.550004 0.32501,0.549995 0.32501,0.525009 0.32499,0.574989 0.29998,0.550003 0.32502,0.550004 0.32501,0.575004 0.32498,0.574997 0.30002,0.574997 0.32498,0.600006 0.32501,0.599999 M 226.17502,30.75 226.5,30.925001 l 0.3,0.15 0.32502,0.174999 0.32498,0.15 0.32501,0.175001 0.3,0.150001 0.325,0.174998 0.325,0.175001 0.32498,0.174999 0.3,0.175003 0.32503,0.174999 0.32498,0.175 0.32501,0.174999 0.30001,0.174999 0.32498,0.174999 0.32501,0.200001 0.325,0.175003 0.3,0.199997 0.325,0.174999 0.32498,0.200001 0.32503,0.200001 0.3,0.174999 0.32498,0.200001 0.32501,0.200001 0.32498,0.2 0.30001,0.224999 0.32501,0.199997 0.325,0.2 0.32501,0.200001 0.32498,0.225003 0.29999,0.2 0.32503,0.224999 0.32498,0.225002 0.32501,0.224995 0.3,0.2 0.32498,0.225003 0.32502,0.25 0.32499,0.224998 0.30001,0.225003 0.32501,0.224998 0.32498,0.25 0.32501,0.225002 0.30001,0.25 0.32498,0.25 0.32501,0.25 0.32498,0.224999 0.3,0.25 0.32502,0.275001 0.32499,0.25 0.32502,0.25 0.3,0.274998 0.32498,0.25 0.32501,0.275002 0.325,0.274997 0.29999,0.25 0.64999,0.549999 0.32503,0.3 0.29999,0.275005 0.32499,0.274998 0.65,0.599998 0.3,0.275002 0.65001,0.600002 0.325,0.299999 0.3,0.324997 0.32498,0.300003 0.32503,0.325001 0.32498,0.299999 0.3,0.324997 0.32502,0.325005 0.32498,0.324997 0.32501,0.325001 0.3,0.324996 0.325,0.350003 0.325,0.325001 0.32498,0.350002 0.3,0.349998 0.97502,1.05 0.30001,0.350002 L 252.95,51.5 l 0.32501,0.349998 0.325,0.375004 0.3,0.375 0.325,0.375 0.32498,0.400002 0.32503,0.374996 0.3,0.399998 0.32498,0.375004 0.32501,0.400001 0.32498,0.399998 0.29999,0.424999 0.32504,0.399998 0.32499,0.400001 0.32501,0.425003 0.29999,0.425 m -63.125,-36.525 0.324,0.05 0.32599,0.05 0.32401,0.075 0.30101,0.05 0.32399,0.075 0.32499,0.05 0.32599,0.075 0.29901,0.05 0.32601,0.075 0.324,0.05 0.32601,0.075 0.29899,0.05 0.32599,0.075 0.32501,0.075 0.32399,0.05 0.301,0.075 0.324,0.075 0.32599,0.074 0.32402,0.076 0.301,0.049 0.324,0.076 0.32601,0.075 0.32498,0.075 0.324,0.075 0.30101,0.074 0.32399,0.076 0.32601,0.075 0.324,0.075 0.30098,0.075 0.32402,0.074 L 204.5,23 l 0.32501,0.075 0.30001,0.074 0.32498,0.076 0.32402,0.100001 0.32599,0.074 0.29901,0.076 0.32599,0.100001 0.32498,0.074 0.32503,0.100998 0.29998,0.075 0.325,0.1 0.32501,0.075 0.32401,0.1 0.30098,0.100001 0.32402,0.074 0.32599,0.101 0.32499,0.1 0.30001,0.100001 0.32498,0.074 0.32503,0.100998 0.32498,0.1 0.3,0.1 0.32501,0.1 0.32498,0.099 0.32502,0.100998 0.3,0.1 0.325,0.125 0.32499,0.100001 0.325,0.1 0.29999,0.099 0.32503,0.125 0.64999,0.200998 0.3,0.125 0.32498,0.100001 0.32502,0.124998 0.32499,0.125002 0.30001,0.1 0.32499,0.125 0.325,0.125 0.32501,0.099 0.30001,0.125 0.32498,0.125 0.32501,0.125 0.32498,0.125 0.3,0.125 0.32502,0.125 0.65001,0.25 0.29998,0.150999 0.325,0.125 0.32501,0.125 0.325,0.15 0.29999,0.125 0.32501,0.149997 0.32498,0.125004 0.32501,0.15 0.30001,0.149 0.32499,0.125 0.32502,0.150997 0.32498,0.150002 0.3,0.149997 0.32501,0.150002 0.325,0.15 0.325,0.150001 0.3,0.149998 0.32498,0.150001 0.32503,0.15" /><path
               id="path62"
               style="fill:none;stroke:#000000;stroke-width:0.5;stroke-linecap:butt;stroke-linejoin:round;stroke-miterlimit:4;stroke-dasharray:none;stroke-opacity:1"
               d="m 168.149,17.575001 0.32501,0.025 0.325,0.025 0.3,0.024 0.325,0.026 0.325,0.025 0.325,0.025 0.3,0.025 0.325,0.024 0.32499,0.026 0.32501,0.025 0.29999,0.025 0.32501,0.049 0.325,0.026 0.325,0.025 0.3,0.025 0.325,0.025 0.325,0.024 0.32499,0.051 0.30001,0.025 0.32499,0.025 0.32501,0.024 0.325,0.051 0.3,0.025 0.325,0.025 0.325,0.05 0.325,0.025 0.3,0.025 0.325,0.025 0.32499,0.05 0.32501,0.025 0.29999,0.05 0.32501,0.024 0.325,0.026 0.325,0.05 0.3,0.025 0.325,0.05 0.325,0.025 0.32499,0.05 0.30001,0.024 0.32499,0.051 0.32501,0.025 0.325,0.049 0.3,0.026 0.325,0.05 0.32599,0.049 0.32401,0.026 0.30101,0.05 0.32399,0.025 0.32499,0.05 0.32501,0.05 0.29999,0.025 0.32501,0.05 0.325,0.05 0.32601,0.049 0.29899,0.026 0.32599,0.05 0.32401,0.049 0.32499,0.051 0.30001,0.05 0.32499,0.024 0.32501,0.051 0.325,0.05 0.301,0.05 0.324,0.05 0.32601,0.049 0.32399,0.051 0.30099,0.05 0.32401,0.05 0.32499,0.05 0.32601,0.049 0.29899,0.051 0.32601,0.05 0.324,0.05 0.32599,0.05 0.29901,0.075 0.32601,0.05 0.32399,0.05 0.32499,0.05 0.30001,0.05 0.32499,0.075 0.32601,0.05 0.324,0.05 0.301,0.075" /><path
               id="path64"
               style="fill:none;stroke:#000000;stroke-width:1;stroke-linecap:butt;stroke-linejoin:round;stroke-miterlimit:4;stroke-dasharray:none;stroke-opacity:1"
               d="m 347.19901,36.125 h 133.901" /><path
               id="path66"
               style="fill:#000000;fill-opacity:1;fill-rule:nonzero;stroke:none"
               d="m 480.85602,36.125 -1.75199,2.882 0.098,0.066 4.69998,-1.867001 c 1.63797,-0.36 3.27502,-0.721 4.91302,-1.081001 -1.638,-0.359997 -3.27505,-0.720997 -4.91302,-1.080997 l -4.69998,-1.867001 -0.098,0.05 1.75199,2.897999" /><path
               id="path68"
               style="fill:none;stroke:#000000;stroke-width:1;stroke-linecap:butt;stroke-linejoin:round;stroke-miterlimit:4;stroke-dasharray:none;stroke-opacity:1"
               d="M 413.05203,9.5 V 80.898003" /><path
               id="path70"
               style="fill:#000000;fill-opacity:1;fill-rule:nonzero;stroke:none"
               d="m 413.05203,80.654007 -2.88205,-1.752007 -0.065,0.098 1.86701,4.700005 c 0.36001,1.637001 0.72,3.275001 1.08001,4.913002 0.36099,-1.638001 0.72098,-3.276001 1.081,-4.913002 L 416,79 l -0.049,-0.098 -2.89899,1.752007" /><path
               id="path72"
               style="fill:none;stroke:#000000;stroke-width:0.5;stroke-linecap:butt;stroke-linejoin:round;stroke-miterlimit:4;stroke-dasharray:none;stroke-opacity:1"
               d="m 477.12503,41.75 0.05,0.350002 0.025,0.349999 0.025,0.349998 0.05,0.325005 0.025,0.349998 0.025,0.349999 0.05,0.350002 0.025,0.324997 0.025,0.349998 0.05,0.350003 0.025,0.325001 0.025,0.350002 0.05,0.324997 0.025,0.349998 0.025,0.325005 0.05,0.349998 0.025,0.324997 0.025,0.325005 0.05,0.324997 0.025,0.349998 0.025,0.325005 0.05,0.324997 0.05,0.649997 0.05,0.325005 0.05,0.649998 0.05,0.300003 0.025,0.324993 0.025,0.325005 0.05,0.299999 0.025,0.325001 0.025,0.299999 0.05,0.325001 0.05,0.600002 0.05,0.299999 0.05,0.599999 0.05,0.299999 0.025,0.300003 0.025,0.299999 0.05,0.299999 0.025,0.3 0.025,0.274997 0.05,0.300003 0.05,0.549996 0.05,0.299999 0.05,0.550003 0.05,0.275002 0.05,0.550003 0.05,0.25 0.025,0.274993 0.025,0.250004 0.05,0.275002 0.05,0.5 0.05,0.274994 0.05,0.5 0.05,0.225006 0.05,0.5 0.05,0.224998 0.025,0.249996 0.025,0.225007 0.05,0.224994 0.025,0.25 0.025,0.225003 0.05,0.224998 0.025,0.200001 0.025,0.225002 0.05,0.224999 0.05,0.399993 0.049,0.225007 0.026,0.200004 0.025,0.199997 0.05,0.199997 0.024,0.174995 0.026,0.200005 0.05,0.199997 0.049,0.350006 0.051,0.199997 0.05,0.349998 0.05,0.150002 0.05,0.349998 0.049,0.151001 0.025,0.149003 0.026,0.175003 0.05,0.150001 0.024,0.149994 0.025,0.125999 M 473.84998,10.15 l 0.05,0.5 0.05,0.225001 0.05,0.5 0.05,0.25 0.025,0.25 0.025,0.274999 0.05,0.250001 0.025,0.274999 0.025,0.25 0.05,0.275 0.025,0.25 0.025,0.275 0.05,0.275 0.05,0.549999 0.05,0.275002 0.0251,0.3 0.025,0.275 0.05,0.275 0.025,0.299999 0.025,0.275 0.05,0.299999 0.05,0.600001 0.05,0.299999 0.05,0.6 0.05,0.300001 0.025,0.3 0.025,0.299999 0.05,0.325003 0.0251,0.299999 0.025,0.299999 0.05,0.325001 0.025,0.299999 0.025,0.325001 0.05,0.324999 0.025,0.325 0.025,0.300002 0.05,0.324998 0.05,0.65 0.05,0.325001 0.025,0.324999 0.025,0.35 0.05,0.325001 0.05,0.649999 0.025,0.350001 0.05,0.324999 0.025,0.35 0.025,0.325001 0.05,0.324999 0.05,0.7 0.05,0.325001 0.05,0.700001 0.05,0.324997 0.025,0.350002 0.025,0.349999 0.05,0.35 0.025,0.349998 0.025,0.325003 0.05,0.350001 0.05,0.7 0.05,0.349999 0.05,0.700001 0.049,0.349998 0.026,0.350002 0.025,0.349999 0.05,0.350002 0.024,0.349999 0.026,0.349998 0.05,0.350002 0.049,0.700001 0.051,0.374996 0.05,0.700001 0.05,0.349998 0.05,0.700001 0.049,0.350003 0.025,0.349998 0.026,0.350002 0.05,0.349999 0.049,0.699997 0.051,0.350002 0.049,0.700001 0.051,0.349998 0.05,0.700001" /><path
               id="path74"
               style="fill:none;stroke:#000000;stroke-width:0.5;stroke-linecap:butt;stroke-linejoin:round;stroke-miterlimit:4;stroke-dasharray:none;stroke-opacity:1"
               d="m 470.54999,2 0.025,-0.075 0.025,-0.075 0.05,-0.076 0.025,-0.074 0.025,-0.075 0.05,-0.075 0.025,-0.075 0.025,-0.05 0.05,-0.05 0.025,-0.05 0.025,-0.051 0.05,-0.049 0.0251,-0.05 0.025,-0.05 0.05,-0.025 0.025,-0.025 0.025,-0.051 0.05,-0.024 0.025,-0.025 h 0.025 l 0.05,-0.025 h 0.025 l 0.025,-0.0249999 h 0.14996 L 471.47515,0.95 h 0.025 l 0.05,0.025 0.05,0.049 0.05,0.026 0.05,0.05 0.05,0.049 0.025,0.026 0.025,0.05 0.05,0.049 0.025,0.051 0.025,0.05 0.05,0.075 0.0251,0.05 0.025,0.075 0.05,0.05 0.025,0.075 0.025,0.074 0.05,0.076 0.025,0.1 0.025,0.074 0.05,0.1009998 0.025,0.075 0.025,0.1 0.05,0.099 0.025,0.1009998 0.025,0.1250002 0.05,0.1 0.0251,0.1249998 L 472.5,2.95 l 0.05,0.125 0.05,0.25 0.049,0.1249998 0.026,0.1250005 0.025,0.1499998 0.05,0.1249998 L 472.774,4 l 0.026,0.1500001 0.05,0.1500001 0.049,0.2999997 0.051,0.1500001 0.0251,0.1750002 0.025,0.1500001 0.05,0.1749997 0.05,0.3499999 0.049,0.1750002 0.026,0.1749997 0.025,0.2000003 0.05,0.1750002 0.024,0.1999998 0.025,0.1750002 0.051,0.1999998 0.049,0.4000001 0.051,0.1999998 0.0251,0.2000003 0.025,0.2249999 0.049,0.1999998 0.026,0.2249994 0.025,0.2000008 0.049,0.2250004 L 473.6742,9 l 0.026,0.2250004 0.05,0.2249994 0.024,0.25 0.025,0.2250004 0.051,0.2249998 m -6.59998,14.5 0.05,-0.65 0.05,-0.35 0.05,-0.65 0.05,-0.324999 0.0251,-0.325001 0.025,-0.324998 0.05,-0.325001 0.025,-0.324999 0.025,-0.300001 0.05,-0.325001 0.025,-0.324999 0.025,-0.299999 0.05,-0.325001 0.025,-0.300001 0.025,-0.324999 0.05,-0.300001 0.05,-0.599998 0.05,-0.300002 0.0251,-0.299999 L 468,17.375 l 0.05,-0.299999 0.025,-0.299999 0.025,-0.300002 0.05,-0.274999 0.025,-0.3 0.025,-0.275 0.05,-0.3 0.05,-0.55 0.05,-0.300001 0.05,-0.55 0.05,-0.25 0.0251,-0.274999 0.025,-0.275 0.05,-0.275002 0.025,-0.249999 0.025,-0.274999 0.05,-0.25 0.05,-0.5 0.05,-0.25 0.05,-0.5 0.05,-0.25 0.025,-0.225002 0.025,-0.249999 0.05,-0.225 0.0251,-0.25 0.025,-0.2249994 0.05,-0.2250004 0.05,-0.4499998 0.05,-0.2250004 0.025,-0.1999998 0.025,-0.2249994 0.05,-0.2000003 0.025,-0.2250009 0.025,-0.1999998 0.05,-0.1999998 0.025,-0.2000003 0.025,-0.1999998 0.05,-0.2000003 0.0251,-0.1749992 0.025,-0.2000003 0.05,-0.1750002 0.025,-0.1999998 0.025,-0.1749997 0.05,-0.1750007 0.025,-0.1749992 0.025,-0.1500001 0.05,-0.1750007 0.025,-0.1749997 0.025,-0.1499996 0.05,-0.1500001 0.025,-0.1750002 0.025,-0.1500001 0.05,-0.1500001 0.0251,-0.1249998 0.025,-0.1499998 0.05,-0.1500001 0.05,-0.25 0.05,-0.1250002 0.05,-0.25 0.05,-0.1249998 0.025,-0.1250002 0.025,-0.1 0.05,-0.1 0.025,-0.125 0.025,-0.1000001 0.05,-0.1009998 0.0251,-0.074 0.025,-0.1 L 470.54999,2" /><path
               id="path76"
               style="fill:none;stroke:#000000;stroke-width:0.5;stroke-linecap:butt;stroke-linejoin:round;stroke-miterlimit:4;stroke-dasharray:none;stroke-opacity:1"
               d="m 463.94998,57.649998 0.0251,-0.274994 0.05,-0.275002 0.025,-0.300003 0.025,-0.274997 0.05,-0.3 0.025,-0.275005 0.025,-0.299999 0.05,-0.3 0.05,-0.599998 0.05,-0.300003 0.025,-0.299999 0.05,-0.599999 0.05,-0.299999 0.0251,-0.300003 0.025,-0.324993 0.05,-0.300003 0.025,-0.325001 0.025,-0.299999 0.05,-0.324997 0.05,-0.650002 0.05,-0.299999 0.05,-0.650001 0.05,-0.325001 0.025,-0.324997 0.025,-0.350002 0.05,-0.325001 0.0251,-0.324997 0.025,-0.325005 0.05,-0.324997 0.025,-0.349998 0.025,-0.325005 0.05,-0.349998 0.025,-0.324997 0.025,-0.350002 0.05,-0.325001 0.025,-0.349999 0.025,-0.325 0.05,-0.349999 0.025,-0.350002 0.025,-0.349999 0.05,-0.325 0.0251,-0.350003 0.025,-0.349998 0.05,-0.350003 0.05,-0.7 0.05,-0.324997 0.05,-0.699997 0.05,-0.350002 0.05,-0.700001 0.05,-0.349999 0.025,-0.350002 0.025,-0.349998 0.05,-0.349999 0.0251,-0.350002 0.025,-0.375 0.05,-0.349999 0.05,-0.7 0.05,-0.350003 0.05,-0.700001 L 466.25,35 l 0.05,-0.700001 0.05,-0.349998 0.025,-0.349999 0.025,-0.350002 0.05,-0.349998 0.05,-0.700001 0.05,-0.350003 L 466.6,31.15 466.65,30.800001 466.7,30.1 l 0.05,-0.35 0.025,-0.35 0.025,-0.350001 0.05,-0.324997 0.025,-0.35 0.025,-0.35 0.05,-0.325001 L 467,27 l 0.05,-0.324999 0.025,-0.35 L 467.1,26 l 0.05,-0.35 0.025,-0.324999 0.025,-0.350001 0.05,-0.325 m -6.60001,46.575006 0.025,0.026 0.05,0.02399 h 0.025 l 0.025,0.025 h 0.05 l 0.025,0.025 h 0.12506 l 0.05,-0.025 h 0.025 l 0.025,-0.025 0.05,-0.02399 0.025,-0.026 0.025,-0.025 0.05,-0.025 0.025,-0.025 0.025,-0.05 0.075,-0.075 0.025,-0.049 0.05,-0.051 0.025,-0.074 0.0251,-0.051 0.05,-0.05 0.025,-0.075 0.025,-0.074 0.05,-0.076 0.025,-0.07501 0.025,-0.075 0.05,-0.075 0.025,-0.1 0.025,-0.074 0.05,-0.101005 0.025,-0.1 0.025,-0.1 0.05,-0.1 0.025,-0.100006 0.0251,-0.125 0.05,-0.1 0.05,-0.25 0.05,-0.125 0.05,-0.25 0.05,-0.125 0.025,-0.150002 0.025,-0.125 0.05,-0.149994 0.025,-0.150001 0.025,-0.150002 0.05,-0.150001 0.025,-0.150002 0.0251,-0.149994 0.05,-0.175003 0.025,-0.174004 0.025,-0.150993 0.05,-0.175003 0.025,-0.175003 0.025,-0.175003 0.05,-0.174995 0.025,-0.199997 0.025,-0.175003 0.05,-0.199997 0.025,-0.175003 0.025,-0.199997 0.05,-0.200005 0.05,-0.399994 0.05,-0.225006 0.025,-0.199997 0.025,-0.224998 0.05,-0.200001 0.025,-0.225006 0.025,-0.224995 0.05,-0.225002 0.025,-0.224999 0.025,-0.225002 0.05,-0.224998 0.025,-0.225003 0.025,-0.25 0.05,-0.25 0.025,-0.224994 0.0251,-0.25 0.05,-0.25 0.05,-0.5 0.05,-0.25 0.025,-0.25 0.025,-0.275006 0.05,-0.25 0.025,-0.274997 0.025,-0.25 0.05,-0.275002 0.05,-0.549999 0.05,-0.274998 0.025,-0.275005" /><path
               id="path78"
               style="fill:none;stroke:#000000;stroke-width:0.5;stroke-linecap:butt;stroke-linejoin:round;stroke-miterlimit:4;stroke-dasharray:none;stroke-opacity:1"
               d="m 457.34998,53.125004 0.025,0.299999 0.05,0.299999 0.05,0.599999 0.05,0.300003 0.05,0.599998 0.05,0.3 0.025,0.299999 0.025,0.275001 0.05,0.3 0.025,0.275001 0.025,0.299999 0.05,0.274998 0.025,0.275002 0.025,0.274997 0.05,0.275006 0.05,0.549999 0.05,0.274998 0.025,0.275001 0.025,0.25 0.05,0.274998 0.05,0.5 0.05,0.275001 0.025,0.25 0.025,0.25 0.05,0.25 0.025,0.25 0.025,0.224999 0.05,0.249996 0.025,0.225006 0.0251,0.25 0.05,0.224995 0.05,0.450004 0.05,0.225003 0.05,0.449997 0.05,0.224998 0.025,0.200005 0.025,0.224998 0.05,0.199997 0.05,0.400002 0.05,0.200004 0.05,0.399994 0.05,0.200005 0.05,0.349998 0.05,0.200996 0.025,0.173996 0.025,0.175011 0.05,0.174996 0.025,0.175003 0.025,0.150001 0.05,0.174996 0.05,0.300003 0.05,0.175994 0.025,0.149003 0.0251,0.125 0.05,0.150001 0.025,0.149994 0.025,0.125008 0.05,0.150001 0.025,0.124992 0.025,0.125008 0.05,0.124992 0.025,0.125008 0.025,0.124992 0.05,0.1 0.025,0.125008 0.025,0.1 0.05,0.1 0.025,0.1 0.0251,0.100006 0.05,0.1 0.025,0.1 0.025,0.075 0.05,0.1 0.025,0.07501 0.025,0.076 0.05,0.074 0.025,0.075 0.025,0.05 0.05,0.075 0.025,0.05 0.025,0.075 0.05,0.04999 0.025,0.05 0.0251,0.04999 0.049,0.02501 0.026,0.04999 0.099,0.100006 m -6.59903,-51.550005 0.025,0.299999 0.05,0.325001 0.025,0.325001 0.025,0.299999 0.05,0.324999 0.025,0.325001 0.025,0.324999 0.05,0.300001 0.025,0.325001 0.025,0.324998 0.05,0.325001 0.025,0.350001 0.0251,0.324998 0.05,0.325001 0.025,0.324999 0.025,0.35 0.05,0.325001 0.025,0.324999 0.025,0.349998 0.05,0.325003 0.025,0.350001 0.025,0.324996 0.05,0.350003 0.025,0.349998 0.025,0.325003 0.05,0.35 0.025,0.349999 0.0251,0.324999 0.05,0.35 0.05,0.699999 0.05,0.350002 0.025,0.349999 0.025,0.35 0.05,0.349998 0.025,0.350003 0.025,0.349998 0.05,0.350003 0.05,0.7 0.05,0.349999 0.05,0.699997 0.05,0.350002 0.05,0.700001 0.05,0.349998 0.025,0.350003 0.025,0.349998 0.05,0.350002 0.025,0.349999 0.025,0.349998 0.05,0.349999 0.025,0.350002 0.025,0.375 0.05,0.350002 0.05,0.700001 0.05,0.349999 0.05,0.7 0.05,0.349999 0.025,0.350002 0.025,0.324997 0.05,0.349998 0.025,0.350003 0.025,0.349998 0.05,0.350003 0.05,0.7 0.05,0.325001 0.05,0.700001 0.049,0.324997 0.026,0.349998 0.025,0.325005 0.05,0.349998 0.024,0.349999 0.026,0.324997 0.05,0.325004 0.025,0.349999 0.024,0.324997 0.051,0.325004 0.025,0.349999 0.025,0.324997 0.05,0.325004 0.05,0.650002 0.049,0.324997 0.026,0.325001 0.025,0.325 0.05,0.325001 0.024,0.299999 0.026,0.324997 0.05,0.325005 0.025,0.299999 0.024,0.324997 0.051,0.299999 0.025,0.325005" /><path
               id="path80"
               style="fill:none;stroke:#000000;stroke-width:0.5;stroke-linecap:butt;stroke-linejoin:round;stroke-miterlimit:4;stroke-dasharray:none;stroke-opacity:1"
               d="m 450.75,1.075 0.075,0.074 0.025,0.051 0.05,0.05 0.025,0.05 0.025,0.05 0.05,0.049 0.025,0.051 0.025,0.074 0.05,0.076 0.025,0.049 0.025,0.076 0.05,0.075 0.025,0.099 0.025,0.076 0.05,0.075 0.025,0.099 0.025,0.1009998 0.05,0.1 0.05,0.2000001 0.05,0.099 0.025,0.1009998 0.025,0.1250002 0.05,0.1249998 0.025,0.1250002 0.025,0.1 0.05,0.1500001 0.05,0.25 0.05,0.149 0.025,0.125 0.025,0.1509995 0.05,0.1500006 0.05,0.2999997 0.05,0.1500001 0.025,0.1750002 0.025,0.1500001 0.05,0.1749997 0.025,0.1500001 0.025,0.1750002 0.05,0.1749997 0.025,0.1750002 0.025,0.1999998 0.05,0.1750002 0.025,0.1750002 0.025,0.1999998 0.05,0.1999998 0.025,0.2000003 0.025,0.1749992 0.05,0.2250009 0.024,0.1999998 0.026,0.2000003 0.05,0.1999998 L 452.649,8.425 452.7,8.6249998 452.75,9.0750006 452.8,9.3 l 0.025,0.2250004 0.025,0.25 0.049,0.2249994 0.026,0.2250002 0.025,0.25 0.05,0.25 0.024,0.25 0.026,0.225 0.05,0.25 0.025,0.275 0.024,0.25 0.051,0.25 0.025,0.25 0.025,0.275 0.024,0.25 0.051,0.275001 0.05,0.55 0.05,0.274999 0.05,0.55 0.049,0.275001 0.026,0.274999 0.025,0.3 0.05,0.275001 0.024,0.3 0.026,0.274999 0.05,0.3 0.049,0.6 0.051,0.275002 0.05,0.599998 0.05,0.324999 0.05,0.6 0.049,0.300001 0.026,0.325001 m -6.60001,-5.55 0.05,-0.275002 0.025,-0.274998 0.025,-0.275001 0.05,-0.250001 0.025,-0.274998 0.025,-0.25 0.05,-0.275001 0.05,-0.5 0.05,-0.25 0.05,-0.5 0.05,-0.25 0.025,-0.25 0.025,-0.224999 0.05,-0.25 0.025,-0.225001 0.025,-0.25 0.05,-0.2249994 0.025,-0.2250004 0.025,-0.2250004 0.05,-0.2250004 0.025,-0.1999998 0.025,-0.2249994 0.05,-0.2250004 0.05,-0.4000001 0.05,-0.2249994 0.05,-0.4000001 0.05,-0.1750002 0.025,-0.2000003 0.025,-0.1999998 0.05,-0.1749997 0.025,-0.2000003 0.025,-0.1750002 0.05,-0.1749997 0.05,-0.3499999 0.05,-0.1750002 L 448.82501,5 l 0.025,-0.1749997 0.049,-0.1500001 0.026,-0.1500001 0.025,-0.1750002 0.05,-0.1499996 0.024,-0.125 0.026,-0.1500001 0.05,-0.151 0.025,-0.125 0.024,-0.1490002 0.051,-0.1249998 0.05,-0.25 0.05,-0.1250002 0.025,-0.1009998 0.025,-0.125 0.049,-0.099 0.026,-0.1250002 0.025,-0.1 0.05,-0.1000001 0.024,-0.1 0.026,-0.1009998 0.05,-0.074 0.025,-0.1 0.024,-0.076 0.051,-0.074 0.025,-0.075 0.025,-0.075 0.05,-0.075 0.025,-0.076 0.025,-0.049 0.049,-0.076 0.026,-0.049 0.025,-0.05 0.05,-0.05 0.024,-0.05 0.026,-0.051 0.05,-0.024 0.025,-0.05 0.024,-0.025 0.051,-0.026 0.05,-0.049 0.05,-0.025 h 0.025 l 0.025,-0.0249999 h 0.17404 l 0.025,0.0249999 h 0.051 l 0.049,0.05 0.051,0.024 0.025,0.026 0.025,0.025" /><path
               id="path82"
               style="fill:none;stroke:#000000;stroke-width:0.5;stroke-linecap:butt;stroke-linejoin:round;stroke-miterlimit:4;stroke-dasharray:none;stroke-opacity:1"
               d="m 444.14999,47.025002 0.05,-0.325001 0.025,-0.350003 0.025,-0.324996 0.05,-0.349999 0.025,-0.350002 0.025,-0.325001 0.05,-0.350002 0.025,-0.324997 0.025,-0.349999 0.05,-0.349998 0.025,-0.350002 0.025,-0.325001 0.05,-0.349999 0.025,-0.350002 0.025,-0.349998 0.05,-0.350003 0.05,-0.700001 0.05,-0.349998 0.05,-0.700001 0.049,-0.349998 0.026,-0.349999 0.025,-0.350002 0.05,-0.349998 0.024,-0.350003 0.026,-0.349998 0.05,-0.350003 0.049,-0.7 0.051,-0.349999 0.05,-0.699997 0.05,-0.375 0.05,-0.7 0.049,-0.349999 0.026,-0.350002 0.025,-0.349999 0.05,-0.350002 0.024,-0.349998 0.026,-0.349999 0.05,-0.350002 0.049,-0.699999 0.051,-0.35 0.05,-0.700001 0.05,-0.325001 0.05,-0.699999 0.049,-0.350002 0.026,-0.349999 0.025,-0.324998 0.05,-0.350001 0.024,-0.35 0.026,-0.325001 0.05,-0.35 0.025,-0.350001 0.024,-0.324999 0.051,-0.349998 0.025,-0.325003 0.025,-0.349998 0.05,-0.324999 0.05,-0.650002 0.049,-0.349998 0.026,-0.325003 0.025,-0.324999 0.05,-0.325 0.049,-0.65 0.051,-0.324999 0.049,-0.649999 0.051,-0.300002 0.05,-0.649999 0.049,-0.299999 0.026,-0.325001 0.025,-0.300001 0.049,-0.3 0.025,-0.324998 0.026,-0.300002 0.05,-0.299999 0.049,-0.6 0.051,-0.299999 0.049,-0.600001 0.051,-0.275001 0.05,-0.6 0.049,-0.274999 0.026,-0.275001 0.025,-0.3 0.049,-0.274999 0.025,-0.275 0.026,-0.275 m -6.57495,55.950004 0.025,-0.07501 0.025,-0.1 0.05,-0.1 0.025,-0.1 0.024,-0.125 0.051,-0.1 0.025,-0.125008 0.025,-0.1 0.05,-0.125 0.05,-0.25 0.049,-0.149994 0.026,-0.125008 0.025,-0.124992 0.05,-0.150001 0.024,-0.150002 0.026,-0.150001 0.05,-0.149003 0.025,-0.150993 0.024,-0.150001 0.051,-0.175003 0.025,-0.150002 0.025,-0.174995 0.05,-0.150002 0.05,-0.349998 0.049,-0.175003 0.026,-0.199997 0.025,-0.175003 0.05,-0.199997 0.024,-0.175003 0.026,-0.200005 0.05,-0.199997 0.049,-0.400002 0.026,-0.199996 0.05,-0.200005 0.025,-0.224991 0.024,-0.200004 0.051,-0.225003 0.05,-0.450001 0.05,-0.2 0.025,-0.249996 0.025,-0.224999 0.049,-0.225006 0.026,-0.224995 0.025,-0.25 0.05,-0.25 0.024,-0.225002 0.026,-0.25 0.05,-0.25 0.049,-0.5 0.051,-0.25 0.025,-0.274998 0.025,-0.25 0.049,-0.275005 0.026,-0.249996 0.025,-0.274998 0.049,-0.275005 0.025,-0.249996 0.026,-0.274998 0.05,-0.275006 0.024,-0.299999 0.025,-0.274997 0.051,-0.275002 0.025,-0.274998 0.024,-0.299999 0.051,-0.275005 0.05,-0.599999 0.049,-0.299999 0.026,-0.274998 0.025,-0.299999 0.049,-0.299999 0.025,-0.300003 0.026,-0.325001 0.05,-0.300003 0.049,-0.599999 0.051,-0.324996 0.025,-0.3 0.024,-0.325 0.051,-0.325001 0.025,-0.299999 0.025,-0.325001 0.049,-0.324997 0.026,-0.325005 0.025,-0.324997 0.049,-0.299999 0.025,-0.350002 0.026,-0.325001 0.05,-0.324997 0.049,-0.650001 0.051,-0.325001 0.025,-0.350003 0.024,-0.324996" /><path
               id="path84"
               style="fill:none;stroke:#000000;stroke-width:0.5;stroke-linecap:butt;stroke-linejoin:round;stroke-miterlimit:4;stroke-dasharray:none;stroke-opacity:1"
               d="m 437.57501,62.5 0.05,0.449997 0.05,0.225006 0.05,0.450001 0.049,0.224994 0.026,0.199997 0.025,0.225007 0.05,0.200004 0.024,0.224999 0.026,0.199997 0.05,0.199996 0.049,0.400002 0.051,0.175003 0.025,0.199997 0.025,0.174995 0.05,0.200005 0.05,0.349998 0.049,0.175004 0.026,0.174995 0.025,0.176002 0.05,0.149003 0.024,0.174995 0.026,0.151009 0.05,0.148994 0.049,0.299995 0.051,0.15001 0.025,0.151001 0.025,0.148994 0.05,0.125999 0.025,0.124001 0.025,0.150002 0.049,0.125 0.025,0.125 0.026,0.125 0.05,0.101005 0.024,0.123993 0.025,0.1 0.051,0.100007 0.025,0.125 0.024,0.1 0.051,0.075 0.025,0.101006 0.025,0.099 0.049,0.075 0.026,0.1 0.025,0.075 0.049,0.07501 0.025,0.076 0.026,0.074 0.05,0.051 0.024,0.074 0.025,0.051 0.051,0.049 0.025,0.04999 0.024,0.05 0.051,0.04999 0.025,0.05101 0.074,0.074 0.026,0.025 0.025,0.025 0.049,0.026 0.025,0.02399 0.026,0.025 h 0.05 l 0.024,0.025 h 0.17599 l 0.025,-0.025 h 0.025 l 0.049,-0.025 0.026,-0.02399 0.025,-0.026 0.049,-0.025 0.025,-0.025 0.026,-0.05 0.05,-0.02399 0.024,-0.05101 0.025,-0.04999 0.051,-0.05 0.049,-0.09899 0.05,-0.076 0.026,-0.049 0.025,-0.076 0.049,-0.075 0.025,-0.074 0.026,-0.076 0.049,-0.074 0.025,-0.076 0.025,-0.1 0.051,-0.1 M 434.27402,31.1 l 0.026,0.349999 0.025,0.350002 0.05,0.349997 0.024,0.350002 0.026,0.349998 0.05,0.350003 0.049,0.700001 0.051,0.349998 0.05,0.700001 0.05,0.349998 0.025,0.349999 0.025,0.375004 0.049,0.349998 0.026,0.350002 0.025,0.349999 0.05,0.350002 0.024,0.349999 0.026,0.349998 0.05,0.350002 0.049,0.700001 0.051,0.349999 0.05,0.7 0.049,0.349999 0.026,0.350002 0.025,0.349999 0.049,0.350002 0.025,0.349998 0.026,0.349999 0.05,0.350002 0.024,0.324997 0.025,0.349998 0.051,0.350003 0.025,0.349998 0.024,0.325005 0.051,0.349998 0.025,0.349999 0.025,0.325001 0.049,0.349998 0.026,0.325001 0.025,0.350002 0.049,0.324997 0.025,0.350002 0.026,0.325001 0.05,0.324997 0.024,0.350002 0.025,0.325001 0.051,0.324997 0.049,0.650002 0.051,0.325 0.05,0.650002 0.049,0.324997 0.026,0.325001 0.025,0.299999 0.049,0.324997 0.025,0.325004 0.026,0.3 0.05,0.325 0.049,0.599999 0.051,0.325001 0.049,0.600002 0.051,0.299999 0.05,0.599999 0.049,0.299999 0.025,0.300003 0.026,0.274998 0.049,0.299999 0.025,0.275001 0.025,0.3 0.051,0.274997 0.024,0.299999 0.025,0.275006 0.051,0.274998 0.049,0.549995 0.05,0.275005 0.026,0.25 0.025,0.274998 0.049,0.275002 0.025,0.25 0.026,0.25 0.049,0.274997 0.05,0.5 0.051,0.25 0.049,0.5 0.051,0.225003 0.025,0.25 0.024,0.224998 0.05,0.25" /><path
               id="path86"
               style="fill:none;stroke:#000000;stroke-width:0.5;stroke-linecap:butt;stroke-linejoin:round;stroke-miterlimit:4;stroke-dasharray:none;stroke-opacity:1"
               d="m 430.97501,4.25 0.025,0.1500001 0.024,0.1499996 0.051,0.1500006 0.025,0.1749997 0.025,0.1500001 0.049,0.1750002 0.026,0.1750002 0.025,0.1499996 0.049,0.1750002 0.025,0.1999998 0.026,0.1750002 0.05,0.1749997 0.024,0.1999998 0.025,0.1750007 0.051,0.1999998 0.049,0.4000001 0.051,0.1999998 0.025,0.2000003 0.025,0.2249994 0.049,0.2000003 0.026,0.2250004 0.025,0.1999998 0.049,0.2249994 0.025,0.2250004 0.026,0.2249994 0.05,0.2250004 0.024,0.2250004 0.025,0.249999 0.051,0.2250016 L 432,10.3 l 0.024,0.25 0.051,0.25 0.05,0.5 0.049,0.25 0.026,0.25 0.025,0.25 0.049,0.25 0.025,0.275001 0.026,0.25 0.05,0.274999 0.024,0.275001 0.025,0.25 0.051,0.275 0.049,0.549999 0.051,0.275 0.025,0.300001 0.025,0.274999 0.049,0.275001 0.025,0.3 0.026,0.274999 0.049,0.299999 0.025,0.300001 0.025,0.275002 0.051,0.299999 0.049,0.6 0.051,0.299999 0.025,0.324999 0.024,0.300001 0.05,0.3 0.026,0.299999 0.025,0.325003 0.049,0.299999 0.025,0.324999 0.026,0.325 0.049,0.300002 0.05,0.649999 0.051,0.324999 0.049,0.65 0.051,0.325 0.049,0.650002 0.05,0.324997 0.026,0.325003 0.025,0.35 0.049,0.324997 0.025,0.325003 0.026,0.35 0.049,0.324997 0.025,0.350002 0.025,0.325001 0.051,0.349998 0.024,0.325001 0.025,0.349999 0.051,0.35 0.025,0.325001 0.024,0.35 0.05,0.350001 0.026,0.35 0.025,0.35 0.049,0.324997 0.025,0.350001 0.026,0.35 0.049,0.35 m -6.60001,-24.9499999 0.026,-0.1749997 0.05,-0.1750002 0.049,-0.3500004 0.051,-0.1749997 0.025,-0.1750002 0.024,-0.1500001 0.051,-0.1749997 0.025,-0.1500001 0.025,-0.1499996 0.049,-0.1500001 0.026,-0.1500001 0.025,-0.151 0.049,-0.149 0.025,-0.1500001 0.026,-0.125 0.05,-0.125 0.024,-0.1250002 0.025,-0.1499999 0.051,-0.1 0.049,-0.2500002 0.051,-0.1 0.025,-0.1249998 0.025,-0.101 0.049,-0.099 0.026,-0.1000002 0.025,-0.1 0.049,-0.1000001 0.025,-0.075 0.026,-0.1000001 0.05,-0.075 0.024,-0.075 0.025,-0.075 0.051,-0.076 0.025,-0.074 0.024,-0.075 0.05,-0.05 0.026,-0.051 0.025,-0.074 0.049,-0.051 0.025,-0.049 0.026,-0.025 0.049,-0.051 0.025,-0.049 0.025,-0.025 0.051,-0.025 0.024,-0.026 0.025,-0.024 0.051,-0.025 0.025,-0.025 h 0.024 l 0.05,-0.0249999 h 0.125 l 0.026,0.0249999 h 0.049 l 0.025,0.025 h 0.025 l 0.051,0.025 0.024,0.024 0.025,0.026 0.051,0.05 0.025,0.025 0.024,0.05 0.05,0.025 0.026,0.05 0.025,0.05 0.049,0.05 0.025,0.075 0.026,0.05 0.049,0.075 0.025,0.05 0.025,0.075 0.051,0.075 0.024,0.075 0.025,0.1000001 0.051,0.075 0.025,0.075 0.024,0.1000002 0.05,0.099 0.026,0.1009998 0.025,0.1000001 0.049,0.1 0.025,0.1000002 0.026,0.1249998 0.049,0.099 0.05,0.25 0.051,0.125 0.024,0.125 0.025,0.125 0.05,0.151 0.026,0.1249998 0.049,0.2999999 0.05,0.1500001" /><path
               id="path88"
               style="fill:none;stroke:#000000;stroke-width:0.5;stroke-linecap:butt;stroke-linejoin:round;stroke-miterlimit:4;stroke-dasharray:none;stroke-opacity:1"
               d="m 424.37503,35.125 0.024,-0.349998 0.051,-0.349999 0.05,-0.700001 0.049,-0.350002 0.026,-0.349998 0.025,-0.349999 0.049,-0.350002 0.025,-0.349999 0.026,-0.35 0.05,-0.35 0.049,-0.700001 0.051,-0.349999 0.049,-0.7 0.051,-0.350001 0.025,-0.325003 L 425,28.5 l 0.049,-0.35 0.025,-0.349999 0.026,-0.325001 0.049,-0.349998 0.025,-0.325001 0.025,-0.350002 0.051,-0.324997 0.024,-0.35 0.025,-0.325003 0.051,-0.349999 0.049,-0.650001 0.05,-0.349999 0.026,-0.324998 0.025,-0.325003 0.049,-0.324997 0.025,-0.325001 0.026,-0.325001 0.049,-0.325 0.05,-0.65 0.051,-0.324999 0.024,-0.299999 0.025,-0.325003 L 425.85,20.225 425.875,19.925001 425.899,19.6 425.949,19.300001 425.97501,19 426,18.675001 426.049,18.375 l 0.025,-0.299999 0.026,-0.299999 0.049,-0.300002 0.05,-0.6 0.051,-0.275 0.049,-0.6 0.051,-0.275 0.025,-0.299999 0.024,-0.275001 0.05,-0.274999 0.026,-0.275001 0.025,-0.3 0.049,-0.274999 0.025,-0.275001 0.026,-0.25 0.049,-0.275 0.025,-0.275 0.025,-0.25 0.051,-0.275 0.049,-0.5 0.051,-0.275 0.049,-0.5 0.05,-0.225 0.026,-0.25 0.025,-0.25 0.049,-0.225 0.025,-0.2500002 0.025,-0.2249994 0.05,-0.25 0.05,-0.4499998 0.051,-0.2250004 0.024,-0.2249994 0.025,-0.2000008 0.05,-0.2250004 0.026,-0.1999998 0.024,-0.2249994 0.05,-0.1999998 0.025,-0.2000003 0.026,-0.1999998 0.049,-0.2000003 0.05,-0.4000001 0.05,-0.1750002 0.025,-0.1999998 M 421.07501,65 l 0.025,-0.199997 0.049,-0.224998 0.05,-0.400002 0.051,-0.225006 0.024,-0.224995 0.025,-0.2 0.051,-0.225003 0.049,-0.450001 0.05,-0.249996 0.026,-0.224998 0.025,-0.225006 0.049,-0.249996 0.025,-0.250004 0.026,-0.224995 0.049,-0.25 0.05,-0.5 0.051,-0.25 0.024,-0.275005 0.025,-0.249996 0.051,-0.250004 0.049,-0.549996 0.05,-0.250004 0.026,-0.274993 0.025,-0.275006 0.049,-0.274997 0.025,-0.275002 0.026,-0.274998 0.049,-0.275001 0.025,-0.299999 0.025,-0.274998 0.051,-0.299999 0.024,-0.275006 0.025,-0.299999 0.051,-0.300003 0.025,-0.274994 0.024,-0.299999 0.05,-0.300003 0.026,-0.299999 0.025,-0.3 0.049,-0.299999 0.025,-0.325005 0.026,-0.299999 0.049,-0.299999 0.025,-0.324997 0.025,-0.299999 0.051,-0.325005 0.024,-0.324997 0.025,-0.299999 0.051,-0.325005 0.049,-0.649997 0.05,-0.324997 0.026,-0.325005 0.025,-0.324997 0.049,-0.325 0.05,-0.650002 0.05,-0.324997 0.025,-0.350002 0.025,-0.325001 0.051,-0.324997 0.024,-0.350002 0.025,-0.325001 0.05,-0.349998 0.026,-0.325001 0.024,-0.349999 0.05,-0.325 0.025,-0.350003 0.026,-0.349998 0.049,-0.350003 0.025,-0.324996 0.025,-0.349999 0.05,-0.350002 0.05,-0.699997 0.051,-0.325005 0.049,-0.699997 0.05,-0.350002 0.026,-0.349998 0.024,-0.350003 0.05,-0.349998 0.025,-0.350003 L 424,39 l 0.049,-0.350002 0.05,-0.699997 0.05,-0.349999 0.025,-0.375 0.025,-0.350002 0.051,-0.349998 0.049,-0.700001 0.05,-0.349999 0.026,-0.350002" /><path
               id="path90"
               style="fill:none;stroke:#000000;stroke-width:0.5;stroke-linecap:butt;stroke-linejoin:round;stroke-miterlimit:4;stroke-dasharray:none;stroke-opacity:1"
               d="m 417.77402,68.800003 0.05,0.125 0.026,0.124992 0.025,0.125008 0.049,0.125 0.025,0.125 0.026,0.1 0.049,0.125 0.025,0.101005 0.025,0.09899 0.051,0.1 0.024,0.1 0.025,0.07601 0.051,0.099 0.025,0.075 0.024,0.1 0.05,0.075 0.026,0.07499 0.025,0.07501 0.049,0.05 0.025,0.075 0.026,0.07501 0.049,0.051 0.05,0.099 0.051,0.05 0.024,0.05 0.025,0.02499 0.10001,0.100007 0.05,0.025 0.026,0.026 0.025,0.02399 0.049,0.025 h 0.025 l 0.026,0.025 h 0.15002 l 0.024,-0.025 h 0.025 l 0.05,-0.025 h 0.026 l 0.024,-0.02399 0.05,-0.026 0.025,-0.05 0.026,-0.025 0.049,-0.025 0.025,-0.04999 0.025,-0.05 0.05,-0.05 0.025,-0.05 0.025,-0.049 0.051,-0.051 0.024,-0.07501 0.025,-0.04999 0.05,-0.07501 0.026,-0.07501 0.024,-0.07499 0.025,-0.075 0.05,-0.075 0.026,-0.07501 0.024,-0.1 0.05,-0.100007 0.025,-0.1 0.026,-0.075 0.049,-0.123993 0.05,-0.201012 0.05,-0.124992 0.025,-0.1 0.025,-0.125 0.051,-0.125 0.049,-0.25 0.05,-0.125 0.026,-0.15001 0.024,-0.124992 0.05,-0.150001 0.025,-0.150002 0.026,-0.149994 0.049,-0.150001 0.05,-0.300003 0.05,-0.175004 0.025,-0.149993 0.025,-0.175003 0.051,-0.175004 0.049,-0.349998 0.05,-0.174995 0.026,-0.175003 0.024,-0.174996 0.05,-0.200004 0.025,-0.199997 0.025,-0.175003 0.05,-0.199997 L 421.07401,65 m -6.599,-21.874996 0.049,0.349998 0.025,0.324997 0.025,0.349999 0.051,0.350002 0.024,0.325001 0.025,0.350002 0.051,0.349999 0.025,0.324996 0.024,0.350003 0.05,0.325001 0.026,0.350002 0.025,0.324997 0.049,0.325001 0.025,0.350002 0.026,0.324997 0.049,0.325001 0.05,0.650001 0.051,0.324997 0.049,0.649998 0.051,0.325004 0.049,0.650002 0.05,0.299999 0.026,0.324997 0.025,0.325001 0.049,0.300003 0.025,0.324997 0.025,0.299999 0.05,0.299999 0.025,0.325005 0.025,0.299999 0.051,0.299999 0.049,0.599999 0.05,0.300003 0.026,0.299999 0.024,0.274998 0.05,0.299999 0.025,0.299999 0.026,0.275006 0.049,0.299999 0.05,0.549999 0.05,0.274998 0.05,0.549999 0.051,0.275002 0.049,0.550003 0.05,0.25 0.026,0.274997 0.024,0.249996 0.05,0.275006 0.025,0.25 0.026,0.25 0.049,0.25 0.05,0.5 0.05,0.25 0.025,0.224994 0.025,0.250004 0.051,0.225003 0.024,0.25 0.025,0.224994 0.05,0.225003 0.026,0.224998 0.024,0.225002 0.05,0.224999 0.025,0.225002 0.026,0.199997 0.049,0.224998 0.05,0.400002 0.05,0.199997 0.05,0.400001 0.05,0.199997 0.025,0.200005 0.025,0.175003 0.05,0.199997 0.025,0.175003 0.025,0.175003 0.05,0.174996 0.05,0.349998 0.05,0.175003 0.025,0.150002 0.025,0.175994 0.05,0.149003 0.05,0.299995 0.05,0.150001 0.025,0.151001 0.025,0.149003 0.05,0.125 0.025,0.150001 0.025,0.125" /><path
               id="path92"
               style="fill:none;stroke:#000000;stroke-width:0.5;stroke-linecap:butt;stroke-linejoin:round;stroke-miterlimit:4;stroke-dasharray:none;stroke-opacity:1"
               d="m 411.17401,11.125001 0.051,0.25 0.049,0.5 0.05,0.25 0.026,0.275 0.025,0.249999 0.049,0.275 0.025,0.25 0.025,0.275 0.05,0.275 0.05,0.550001 0.051,0.274998 0.049,0.550001 0.05,0.275001 0.026,0.3 0.024,0.274999 0.05,0.3 0.025,0.299999 0.026,0.275002 0.049,0.299999 0.05,0.6 0.05,0.300002 0.05,0.599998 0.051,0.324999 0.049,0.6 0.05,0.325001 0.026,0.300001 0.024,0.324999 0.05,0.325001 0.025,0.300001 0.026,0.324997 0.049,0.325003 0.05,0.649999 0.05,0.324999 0.05,0.65 0.051,0.325 0.049,0.650002 0.05,0.349998 0.026,0.324999 0.024,0.325003 0.05,0.349998 0.025,0.324999 0.026,0.350001 0.049,0.325 0.05,0.700001 0.05,0.324999 0.05,0.699999 0.051,0.325003 0.049,0.7 0.05,0.349999 0.025,0.35 0.025,0.350001 0.05,0.35 0.025,0.35 0.025,0.324997 0.05,0.350001 0.05,0.700002 0.05,0.349999 0.025,0.349998 0.025,0.375004 0.05,0.349999 0.025,0.349998 0.025,0.350002 0.05,0.349999 0.025,0.350002 0.025,0.349999 0.05,0.349998 0.05,0.700001 0.05,0.350002 0.05,0.699997 0.05,0.350002 0.025,0.349999 0.025,0.375 0.05,0.349998 0.025,0.349999 0.025,0.350002 0.05,0.349998 0.025,0.350003 0.025,0.325001 0.05,0.350002 0.05,0.699997 0.05,0.350002 0.05,0.700001 M 407.89902,1.7 l 0.025,-0.075 0.025,-0.075 0.051,-0.05 0.024,-0.075 0.025,-0.05 0.05,-0.05 0.026,-0.051 0.024,-0.049 0.05,-0.05 0.025,-0.05 0.026,-0.025 0.049,-0.025 0.025,-0.051 0.025,-0.024 0.05,-0.025 h 0.025 l 0.025,-0.025 h 0.051 l 0.024,-0.0249999 h 0.125 L 408.67402,0.95 h 0.05 l 0.026,0.025 0.024,0.025 0.05,0.024 0.025,0.026 0.026,0.025 0.049,0.025 0.025,0.049 0.025,0.026 0.05,0.05 0.025,0.049 0.025,0.051 0.051,0.05 0.024,0.05 0.025,0.075 0.05,0.075 0.026,0.05 0.024,0.075 0.05,0.074 0.025,0.076 0.025,0.1 0.05,0.074 0.025,0.1009998 0.025,0.075 0.05,0.1 0.025,0.099 0.025,0.1009998 0.05,0.1000001 0.025,0.125 0.025,0.1 0.05,0.125 0.025,0.125 0.025,0.125 0.05,0.125 0.05,0.2500003 0.05,0.1499998 0.025,0.1249998 0.025,0.1500001 0.05,0.1490002 0.025,0.151 0.025,0.1499996 0.05,0.1500001 0.025,0.1500001 0.025,0.1750002 0.05,0.1500001 0.025,0.1749997 0.025,0.1750002 0.05,0.1749997 0.05,0.3499999 0.05,0.1750007 0.025,0.1999998 0.025,0.1749997 0.05,0.2000003 0.05,0.3999996 0.05,0.2000003 0.025,0.1999998 0.025,0.2000003 0.05,0.1999998 0.025,0.2249999 0.025,0.2000008 0.05,0.2249994 0.05,0.4499998 0.05,0.2250004 0.05,0.4499998 0.05,0.25 0.025,0.2250001 0.025,0.250001 0.05,0.225 0.025,0.25 0.025,0.25" /><path
               id="path94"
               style="fill:none;stroke:#000000;stroke-width:0.5;stroke-linecap:butt;stroke-linejoin:round;stroke-miterlimit:4;stroke-dasharray:none;stroke-opacity:1"
               d="m 407.49902,2.825 0.025,-0.125 0.025,-0.1 0.05,-0.1000001 0.025,-0.125 0.025,-0.075 0.05,-0.1 0.05,-0.2 0.05,-0.075 0.05,-0.1510001 0.05,-0.074 M 404.59903,23.35 l 0.026,-0.324998 0.024,-0.325001 0.05,-0.324999 0.025,-0.325003 0.026,-0.324999 0.049,-0.325 0.025,-0.324999 0.025,-0.299999 0.05,-0.325003 0.025,-0.324997 0.025,-0.300001 L 405,19.5 l 0.049,-0.6 0.05,-0.324999 0.026,-0.299999 0.024,-0.300002 0.05,-0.299999 0.025,-0.300001 0.026,-0.299999 0.049,-0.275 0.05,-0.6 0.05,-0.275 0.025,-0.3 0.025,-0.275002 0.05,-0.3 0.025,-0.274998 0.025,-0.275001 0.05,-0.275 0.025,-0.275 0.025,-0.275 0.05,-0.274999 0.025,-0.250001 0.025,-0.274999 0.05,-0.275001 0.05,-0.5 0.05,-0.274999 0.05,-0.5 0.05,-0.25 0.025,-0.25 0.025,-0.225001 0.05,-0.250001 0.025,-0.249999 0.025,-0.225 0.05,-0.2250004 0.025,-0.249999 0.025,-0.2250004 0.05,-0.2250004 0.025,-0.2249994 0.025,-0.1999998 0.05,-0.2250004 0.025,-0.2249994 0.025,-0.2000003 0.05,-0.2000003 0.025,-0.2250004 0.025,-0.1999998 0.05,-0.2000003 0.025,-0.1999998 0.025,-0.1749997 0.05,-0.1999998 0.025,-0.2000003 0.025,-0.1750002 0.05,-0.1749997 0.05,-0.3499999 0.05,-0.1750002 0.05,-0.3500004 0.05,-0.1499996 0.025,-0.1749997 0.025,-0.1500001 0.05,-0.1500001 0.025,-0.1500001 L 407.149,4.125 407.199,3.9750001 407.224,3.8250003 407.249,3.7 l 0.05,-0.15 0.05,-0.25 0.05,-0.1249998 L 407.424,3.05 407.449,2.9250002 407.499,2.825 m -6.20001,53.700002 0.025,-0.275002 0.025,-0.300003 0.05,-0.299999 0.025,-0.274994 0.025,-0.300003 0.051,-0.299999 0.049,-0.599999 0.05,-0.299999 0.026,-0.300003 0.024,-0.325001 0.05,-0.300003 0.025,-0.299999 0.025,-0.324997 0.05,-0.299999 0.05,-0.649998 0.05,-0.300003 0.05,-0.649998 0.05,-0.325001 0.025,-0.325 0.025,-0.325001 0.05,-0.324997 0.025,-0.325005 0.025,-0.324997 0.05,-0.325004 0.025,-0.349999 0.025,-0.324997 0.05,-0.325004 0.025,-0.349999 0.025,-0.324997 0.05,-0.349998 0.025,-0.325005 0.025,-0.349998 0.05,-0.324997 0.025,-0.350002 0.025,-0.325001 0.05,-0.349999 0.025,-0.350002 0.025,-0.349998 0.05,-0.325001 0.05,-0.699997 0.05,-0.350002 0.05,-0.700001 0.05,-0.349999 0.05,-0.7 0.05,-0.349999 0.025,-0.350002 0.025,-0.349999 0.05,-0.350002 0.025,-0.349998 0.025,-0.349999 0.05,-0.350002 0.05,-0.700001 0.05,-0.349998 0.05,-0.700001 0.05,-0.349999 0.025,-0.350002 0.025,-0.349998 0.05,-0.375004 0.025,-0.349999 0.025,-0.349998 0.05,-0.349999 0.05,-0.7 0.05,-0.350003 0.05,-0.700001 0.05,-0.349998 0.05,-0.699999 0.05,-0.350002 0.025,-0.324997 0.025,-0.35 0.05,-0.350001 0.025,-0.35 0.025,-0.349999 0.05,-0.325002 0.05,-0.699999 0.05,-0.350003 0.025,-0.324996 0.025,-0.350001 0.05,-0.325003 0.025,-0.349998 0.025,-0.324999 0.05,-0.35 0.025,-0.325001 0.025,-0.324999 0.05,-0.35 0.025,-0.325001 0.025,-0.324999 0.05,-0.325001" /><path
               id="path96"
               style="fill:none;stroke:#000000;stroke-width:0.5;stroke-linecap:butt;stroke-linejoin:round;stroke-miterlimit:4;stroke-dasharray:none;stroke-opacity:1"
               d="m 397.99902,71.300003 h 0.025 l 0.025,0.025 h 0.15 l 0.025,-0.025 h 0.025 l 0.05,-0.025 0.025,-0.02399 0.025,-0.026 0.05,-0.025 0.025,-0.025 0.075,-0.074 0.025,-0.05101 0.025,-0.02499 0.05,-0.049 0.025,-0.051 0.025,-0.074 0.05,-0.051 0.025,-0.05 0.025,-0.075 0.05,-0.074 0.05,-0.151009 0.05,-0.075 0.025,-0.075 0.025,-0.1 0.05,-0.074 0.025,-0.101005 0.025,-0.1 0.05,-0.1 0.025,-0.1 0.025,-0.100006 0.05,-0.125 0.025,-0.1 0.025,-0.125 0.05,-0.125 0.025,-0.100007 0.025,-0.149993 0.05,-0.125 0.025,-0.125 0.025,-0.125 0.05,-0.150002 0.025,-0.149994 0.025,-0.150001 0.05,-0.150002 0.05,-0.300003 0.05,-0.148994 0.025,-0.176003 0.025,-0.150001 0.05,-0.174996 0.05,-0.350006 0.05,-0.175003 0.025,-0.174995 0.025,-0.175004 0.05,-0.199996 0.025,-0.174996 0.025,-0.200004 0.05,-0.199997 0.05,-0.400002 0.05,-0.199997 0.025,-0.200004 0.025,-0.224999 0.05,-0.200005 0.025,-0.224994 0.025,-0.200001 0.05,-0.225006 0.025,-0.224995 0.025,-0.225002 0.05,-0.224998 0.025,-0.25 0.025,-0.225003 0.05,-0.25 0.025,-0.224994 0.025,-0.25 0.05,-0.25 0.025,-0.225003 0.025,-0.250004 0.05,-0.249996 0.025,-0.274997 0.025,-0.25 0.05,-0.25 0.025,-0.275006 0.025,-0.25 0.05,-0.274997 0.025,-0.275002 0.025,-0.25 0.05,-0.274998 0.025,-0.275005 0.025,-0.299999 0.05,-0.274994 0.05,-0.549999 0.05,-0.300003 m -6.6,-2.200001 0.025,0.300003 0.05,0.299999 0.025,0.299999 0.025,0.274998 0.05,0.299999 0.025,0.300003 0.025,0.275002 0.05,0.299999 0.025,0.274994 0.025,0.275005 0.05,0.3 0.05,0.550003 0.05,0.274993 0.025,0.275006 0.025,0.25 0.05,0.274994 0.025,0.275005 0.025,0.25 0.05,0.274994 0.025,0.250004 0.025,0.249996 0.05,0.250004 0.025,0.249996 0.025,0.250004 0.05,0.249996 0.05,0.5 0.05,0.225006 0.025,0.224999 0.025,0.249996 0.05,0.225006 0.05,0.450001 0.05,0.224994 0.025,0.225003 0.025,0.2 0.05,0.225003 0.025,0.199997 0.025,0.224998 0.05,0.200005 0.05,0.400001 0.05,0.199997 0.025,0.199997 0.025,0.175003 0.05,0.200996 0.05,0.348999 0.05,0.199997 0.025,0.175011 0.025,0.149994 0.05,0.174995 0.026,0.175011 0.024,0.149994 0.05,0.174995 0.05,0.300003 0.05,0.150002 0.05,0.300003 0.05,0.149994 0.025,0.125008 0.025,0.150001 0.05,0.124992 0.025,0.125008 0.025,0.124992 0.05,0.125008 0.025,0.124992 0.025,0.1 0.05,0.125008 0.05,0.199997 0.05,0.1 0.025,0.100006 0.025,0.1 0.05,0.1 0.025,0.075 0.025,0.07501 0.05,0.1 0.025,0.076 0.025,0.074 0.025,0.075 0.05,0.05 0.025,0.075 0.025,0.05 0.05,0.075 0.025,0.04999 0.025,0.05 0.05,0.04999 0.025,0.02501 0.025,0.04999 0.05,0.025 0.025,0.05 0.025,0.025 0.05,0.026 0.025,0.02399 h 0.025 l 0.05,0.025" /><path
               id="path98"
               style="fill:none;stroke:#000000;stroke-width:0.5;stroke-linecap:butt;stroke-linejoin:round;stroke-miterlimit:4;stroke-dasharray:none;stroke-opacity:1"
               d="m 391.39902,20.925001 0.025,0.299999 0.05,0.324999 0.025,0.325003 0.025,0.324999 0.05,0.325001 0.05,0.649999 0.05,0.324999 0.05,0.65 0.05,0.35 0.05,0.65 0.05,0.35 0.025,0.325001 0.025,0.35 0.05,0.324999 0.025,0.349998 0.025,0.325003 0.05,0.350001 0.025,0.35 0.025,0.324999 0.05,0.349998 0.05,0.700001 0.05,0.325001 0.05,0.700001 0.05,0.35 0.025,0.35 0.025,0.349999 0.05,0.35 0.025,0.350001 0.025,0.349998 0.05,0.350002 0.05,0.700001 0.05,0.349999 0.05,0.7 0.05,0.349999 0.05,0.700001 0.05,0.349998 0.025,0.350002 0.025,0.375 0.05,0.349999 0.025,0.349998 0.025,0.349999 0.05,0.350002 0.05,0.700001 0.05,0.349998 0.05,0.700001 0.05,0.350002 0.05,0.699997 0.05,0.349999 0.025,0.350002 0.025,0.349998 0.05,0.350003 0.025,0.325001 0.025,0.350002 0.05,0.349998 0.05,0.700001 0.05,0.324997 0.05,0.700001 0.05,0.325001 0.025,0.350002 0.025,0.324997 0.05,0.349998 0.025,0.325005 0.025,0.349998 0.05,0.324997 0.025,0.325005 0.025,0.349998 0.05,0.324997 0.05,0.650002 0.05,0.325001 0.05,0.650001 0.05,0.324997 0.05,0.650002 0.051,0.325 0.024,0.3 0.025,0.324996 0.05,0.325005 0.026,0.299999 0.024,0.324997 0.05,0.300003 0.025,0.3 0.026,0.299999 0.049,0.325001 0.025,0.299999 M 388.09903,1.25 l 0.025,0.05 0.05,0.05 0.025,0.049 0.025,0.051 0.05,0.074 0.025,0.051 0.025,0.074 0.05,0.076 0.025,0.075 0.025,0.075 0.05,0.1 0.025,0.075 0.025,0.099 0.05,0.1009998 0.025,0.075 0.025,0.1000002 0.05,0.1249998 0.025,0.099 0.025,0.1009998 0.05,0.1250002 0.025,0.1 0.025,0.125 0.05,0.125 0.025,0.1249998 0.025,0.1500001 0.05,0.1250002 0.025,0.1249998 0.025,0.1490002 0.05,0.1509995 0.05,0.3000002 0.05,0.1500001 0.025,0.1500001 0.025,0.1500001 0.05,0.1750002 0.025,0.1500001 0.025,0.1749997 0.05,0.1750002 0.025,0.1749997 0.025,0.1750002 0.05,0.1749997 0.025,0.2000003 0.025,0.1750002 0.05,0.1999998 0.025,0.1749997 0.025,0.1999998 0.05,0.1999998 0.05,0.4000001 0.05,0.2250009 0.025,0.1999998 0.025,0.2249994 0.05,0.2000008 0.025,0.2249994 0.025,0.2249994 0.05,0.2250014 0.025,0.2249994 0.025,0.2250004 0.05,0.2249994 0.025,0.25 0.025,0.2250003 0.05,0.25 0.025,0.225 0.025,0.25 0.05,0.25 0.05,0.5 0.05,0.25 0.025,0.275 0.025,0.25 0.05,0.25 0.025,0.275 0.025,0.275001 0.05,0.25 0.05,0.55 0.05,0.274998 0.05,0.550002 0.05,0.299999 0.025,0.275 0.025,0.300001 0.05,0.274998 0.025,0.300001 0.025,0.275 0.05,0.300001 0.025,0.299999 0.025,0.300002 0.05,0.299999 0.05,0.6 0.05,0.299999 0.025,0.324999 0.025,0.300001 0.05,0.3 0.025,0.325 0.025,0.300002 0.05,0.324998 0.025,0.325001" /><path
               id="path100"
               style="fill:none;stroke:#000000;stroke-width:0.5;stroke-linecap:butt;stroke-linejoin:round;stroke-miterlimit:4;stroke-dasharray:none;stroke-opacity:1"
               d="m 384.79901,13.049999 0.05,-0.249999 0.025,-0.274999 0.025,-0.25 0.05,-0.275001 0.05,-0.5 0.05,-0.25 0.05,-0.5 0.05,-0.224999 0.025,-0.25 0.025,-0.25 0.05,-0.2250008 0.025,-0.2249994 0.025,-0.2250014 0.05,-0.249999 0.025,-0.1999998 0.025,-0.2250004 0.05,-0.2250004 0.025,-0.2249994 0.025,-0.1999998 0.05,-0.2250004 0.05,-0.4000001 0.05,-0.1999998 L 385.67401,7 l 0.025,-0.1999998 0.05,-0.2000003 0.025,-0.1749997 0.025,-0.1999998 0.05,-0.1750007 0.025,-0.1999998 0.025,-0.1749997 0.05,-0.1750002 0.025,-0.1749997 0.025,-0.1500001 0.05,-0.1750002 0.025,-0.1500001 0.025,-0.1749997 0.05,-0.151 0.025,-0.1490002 0.025,-0.1499996 0.05,-0.1500001 0.025,-0.1500001 0.025,-0.151 0.025,-0.125 0.05,-0.125 0.025,-0.149 0.025,-0.1250002 0.05,-0.1249998 L 386.49902,3 l 0.025,-0.1009998 0.05,-0.125 0.025,-0.099 0.025,-0.1250002 0.05,-0.1 0.05,-0.2 0.05,-0.075 0.05,-0.2000001 0.05,-0.076 0.025,-0.074 0.025,-0.075 0.05,-0.075 0.025,-0.075 0.025,-0.076 0.05,-0.049 0.025,-0.076 0.025,-0.049 0.05,-0.05 0.025,-0.05 0.025,-0.05 0.05,-0.051 0.025,-0.024 0.025,-0.05 0.05,-0.025 0.025,-0.026 0.025,-0.024 0.05,-0.025 0.025,-0.025 h 0.025 l 0.05,-0.0249999 h 0.15002 l 0.05,0.0249999 h 0.025 l 0.025,0.025 0.05,0.025 0.025,0.024 0.025,0.026 0.05,0.025 0.025,0.05 0.025,0.024 0.05,0.051 0.025,0.05 m -6.60001,44.4500011 0.05,-0.350003 0.025,-0.349998 0.025,-0.324997 0.05,-0.350002 0.025,-0.349999 0.025,-0.325004 0.05,-0.349999 0.025,-0.349998 0.025,-0.349999 0.05,-0.350002 0.025,-0.324997 0.025,-0.350002 0.05,-0.349999 0.05,-0.7 0.05,-0.349999 0.05,-0.700001 0.05,-0.350002 0.025,-0.349998 0.025,-0.349999 0.05,-0.350002 0.025,-0.349999 0.025,-0.350002 0.05,-0.349998 0.025,-0.375004 0.025,-0.349999 0.05,-0.349998 0.05,-0.700001 0.05,-0.349998 0.05,-0.700001 0.05,-0.350003 0.025,-0.349998 0.025,-0.350002 0.05,-0.349999 0.025,-0.349998 0.025,-0.349999 0.05,-0.350002 0.05,-0.700001 0.05,-0.349998 0.05,-0.700001 0.05,-0.35 0.025,-0.349999 0.025,-0.324999 0.05,-0.35 0.025,-0.35 0.025,-0.350001 0.05,-0.325001 0.025,-0.35 0.025,-0.324999 0.05,-0.35 0.025,-0.350001 0.025,-0.325 0.05,-0.350001 0.05,-0.649999 0.05,-0.350001 0.05,-0.649999 0.05,-0.324999 0.025,-0.325001 0.025,-0.324999 0.05,-0.35 0.025,-0.299999 0.025,-0.325003 0.05,-0.324997 0.05,-0.650002 0.05,-0.299999 0.05,-0.649999 0.05,-0.300002 0.025,-0.325 0.025,-0.3 0.05,-0.299999 0.025,-0.300001 0.025,-0.324999 0.05,-0.300001 0.025,-0.299999 0.025,-0.299999 0.05,-0.275002 0.05,-0.6 0.05,-0.3 0.025,-0.274999 0.025,-0.3 0.05,-0.275001 0.05,-0.55 0.05,-0.299999 0.05,-0.550002 0.05,-0.249999 0.025,-0.274999 0.025,-0.275002" /><path
               id="path102"
               style="fill:none;stroke:#000000;stroke-width:0.5;stroke-linecap:butt;stroke-linejoin:round;stroke-miterlimit:4;stroke-dasharray:none;stroke-opacity:1"
               d="m 378.19901,69.700005 0.05,-0.125 0.025,-0.1 0.025,-0.125008 0.05,-0.1 0.05,-0.248993 0.05,-0.126007 0.025,-0.125 0.025,-0.150002 0.05,-0.124992 0.025,-0.150001 0.025,-0.150002 0.05,-0.125008 0.025,-0.149993 0.025,-0.174996 0.05,-0.150001 0.025,-0.150002 0.025,-0.175003 0.05,-0.150002 0.05,-0.348999 0.05,-0.175994 0.05,-0.349999 0.05,-0.200004 0.025,-0.175004 0.025,-0.199996 0.05,-0.200005 0.025,-0.174995 0.025,-0.199997 0.05,-0.200005 0.025,-0.224998 0.025,-0.200005 0.05,-0.199997 0.05,-0.450001 0.05,-0.199997 0.05,-0.450004 0.05,-0.224995 0.025,-0.225002 0.025,-0.250004 0.05,-0.224995 0.025,-0.25 0.025,-0.225002 0.05,-0.25 0.025,-0.25 0.025,-0.25 0.05,-0.25 0.05,-0.5 0.05,-0.25 0.025,-0.274998 0.025,-0.25 0.05,-0.275001 0.025,-0.250004 0.025,-0.274994 0.05,-0.275001 0.025,-0.274998 0.025,-0.275006 0.05,-0.274993 0.025,-0.275006 0.025,-0.299999 0.05,-0.274998 0.025,-0.275005 0.025,-0.299999 0.05,-0.3 0.025,-0.274997 0.025,-0.299999 0.05,-0.3 0.05,-0.599998 0.05,-0.300003 0.025,-0.299999 0.025,-0.3 0.05,-0.325004 0.025,-0.3 0.025,-0.299999 0.05,-0.324997 0.025,-0.299999 0.025,-0.325001 0.05,-0.325 0.025,-0.3 0.025,-0.325004 0.05,-0.324997 0.05,-0.649998 0.05,-0.325005 0.025,-0.324996 0.025,-0.325001 0.05,-0.324997 0.025,-0.350002 0.025,-0.325001 0.05,-0.324997 0.025,-0.325005 0.025,-0.349998 0.05,-0.324997 0.025,-0.350002 0.025,-0.325001 m -6.57501,17.700001 0.025,0.225002 0.025,0.200001 0.05,0.22499 0.025,0.225007 0.025,0.200004 0.025,0.199997 0.05,0.200996 0.025,0.223999 0.025,0.175004 0.05,0.200004 0.05,0.399994 0.05,0.174995 0.025,0.175011 0.025,0.199997 0.05,0.174995 0.05,0.349999 0.05,0.151009 0.025,0.173996 0.025,0.150001 0.05,0.176003 0.025,0.148994 0.025,0.150002 0.05,0.149993 0.025,0.15001 0.025,0.151001 0.05,0.125 0.025,0.149993 0.025,0.124001 0.05,0.125 0.025,0.150002 0.025,0.1 0.05,0.125 0.025,0.126007 0.025,0.123993 0.05,0.1 0.025,0.100007 0.025,0.1 0.05,0.1 0.05,0.201004 0.05,0.099 0.05,0.151001 0.05,0.09899 0.05,0.151009 0.05,0.049 0.025,0.076 0.025,0.074 0.05,0.051 0.025,0.049 0.025,0.04999 0.05,0.05 0.025,0.04999 0.025,0.05101 0.05,0.02399 0.025,0.05 0.025,0.025 0.05,0.025 0.025,0.026 0.025,0.02399 0.05,0.025 h 0.025 l 0.025,0.025 h 0.17499 l 0.025,-0.025 h 0.05 l 0.05,-0.049 0.05,-0.026 0.05,-0.05 0.05,-0.05 0.025,-0.02399 0.025,-0.05101 0.05,-0.04999 0.025,-0.05 0.025,-0.04999 0.05,-0.049 0.025,-0.076 0.025,-0.049 0.05,-0.076 0.025,-0.075 0.025,-0.074 0.05,-0.076 0.025,-0.074 0.025,-0.076 0.05,-0.1 0.025,-0.07501 0.025,-0.1 0.05,-0.1 0.025,-0.1 0.025,-0.1" /><path
               id="path104"
               style="fill:none;stroke:#000000;stroke-width:0.5;stroke-linecap:butt;stroke-linejoin:round;stroke-miterlimit:4;stroke-dasharray:none;stroke-opacity:1"
               d="m 371.62402,32.475002 0.05,0.700001 0.05,0.349999 0.025,0.349998 0.025,0.375 0.05,0.350002 0.05,0.699997 0.05,0.349999 0.025,0.350002 0.025,0.349998 0.05,0.350003 0.025,0.349998 0.025,0.350003 0.05,0.349998 0.05,0.700001 0.05,0.349998 0.05,0.700001 0.05,0.349998 0.05,0.700001 0.05,0.350003 0.025,0.349998 0.025,0.350002 0.05,0.349999 0.025,0.349998 0.025,0.349999 0.05,0.350002 0.025,0.349998 0.025,0.325005 0.05,0.349999 0.025,0.350002 0.025,0.324997 0.05,0.349998 0.025,0.350003 0.025,0.325 0.05,0.349999 0.025,0.325001 0.025,0.349998 0.05,0.325001 0.025,0.325001 0.025,0.349998 0.05,0.325001 0.05,0.650001 0.05,0.349999 0.05,0.650001 0.05,0.324997 0.025,0.299999 0.025,0.325005 0.05,0.324997 0.025,0.325001 0.025,0.300003 0.05,0.324993 0.025,0.325005 0.025,0.299999 0.05,0.325001 0.05,0.599998 0.05,0.299999 0.025,0.325005 0.025,0.299999 0.05,0.299999 0.025,0.274998 0.025,0.299999 0.05,0.300003 0.025,0.3 0.025,0.275001 0.05,0.299999 0.025,0.274998 0.025,0.299999 0.05,0.275006 0.05,0.549999 0.05,0.274994 0.05,0.550003 0.05,0.275001 0.025,0.274998 0.025,0.25 0.05,0.275002 0.025,0.25 0.025,0.25 0.05,0.25 0.025,0.274997 0.025,0.25 0.05,0.225003 0.05,0.5 0.05,0.25 0.05,0.45 0.05,0.25 0.05,0.450001 0.05,0.224999 m -6.6,-58.5500021 0.025,0.1750002 0.025,0.1500001 0.05,0.1749997 0.025,0.1750002 0.025,0.1750002 0.05,0.1750002 0.025,0.1999998 0.025,0.1749997 0.05,0.1750002 0.05,0.4000001 0.05,0.1999998 0.05,0.4000001 0.05,0.2000003 0.025,0.1999998 0.025,0.2249999 0.05,0.1999998 0.025,0.2250004 0.025,0.2249994 0.05,0.2250004 0.05,0.4499998 0.05,0.2250004 0.025,0.2250004 0.025,0.2500002 0.05,0.224999 0.025,0.25 0.025,0.225001 0.05,0.25 0.05,0.5 0.05,0.25 0.025,0.274999 0.025,0.25 0.05,0.25 0.025,0.275001 0.025,0.25 0.05,0.274998 0.05,0.550002 0.05,0.275 0.05,0.549999 0.05,0.275 0.025,0.275001 0.025,0.3 0.05,0.274998 0.025,0.300001 0.025,0.275001 0.05,0.299999 0.025,0.300002 0.025,0.299999 0.05,0.299999 0.05,0.6 0.05,0.300002 0.05,0.599998 0.05,0.324999 0.025,0.300001 0.025,0.325001 0.05,0.300001 0.025,0.324999 0.025,0.325001 0.05,0.299999 0.025,0.324999 0.025,0.325 0.05,0.325001 0.05,0.649998 0.05,0.325003 0.05,0.649999 0.05,0.350001 0.05,0.649999 0.05,0.350001 0.025,0.324998 0.025,0.325001 0.05,0.350001 0.025,0.35 0.025,0.324997 0.05,0.350002 0.025,0.325001 0.025,0.349998 0.05,0.350001 0.025,0.324999 0.025,0.35 0.05,0.349998 0.05,0.700001 0.05,0.350001 0.025,0.35 0.025,0.325001 0.05,0.35 0.025,0.350001 0.025,0.349998 0.05,0.350002" /><path
               id="path106"
               style="fill:none;stroke:#000000;stroke-width:0.5;stroke-linecap:butt;stroke-linejoin:round;stroke-miterlimit:4;stroke-dasharray:none;stroke-opacity:1"
               d="m 365.02402,5.4499998 0.025,-0.1749997 0.025,-0.1499996 0.05,-0.1750007 0.025,-0.1749997 0.025,-0.1500001 0.05,-0.1499996 0.05,-0.3000002 0.05,-0.151 0.025,-0.149 0.025,-0.1250002 0.05,-0.1499999 0.025,-0.125 0.025,-0.1250002 0.05,-0.1249998 0.05,-0.25 0.05,-0.1250002 0.025,-0.1 0.025,-0.1249998 0.05,-0.101 0.025,-0.099 0.025,-0.1000002 0.05,-0.1 0.025,-0.1000001 0.025,-0.075 0.05,-0.1000001 0.025,-0.075 0.025,-0.075 0.05,-0.075 0.025,-0.076 0.025,-0.074 0.05,-0.075 0.025,-0.05 0.025,-0.051 0.05,-0.074 0.025,-0.051 0.025,-0.049 0.05,-0.025 0.025,-0.051 0.025,-0.049 0.05,-0.025 0.025,-0.025 0.025,-0.026 0.05,-0.024 0.05,-0.05 h 0.05 l 0.025,-0.0249999 h 0.125 l 0.05,0.0249999 h 0.025 l 0.025,0.025 h 0.05 l 0.025,0.025 0.025,0.024 0.05,0.026 0.025,0.05 0.025,0.025 0.05,0.05 0.025,0.025 0.025,0.05 0.05,0.05 0.025,0.05 0.025,0.075 0.05,0.05 0.025,0.075 0.025,0.05 0.05,0.075 0.025,0.075 0.025,0.075 0.05,0.074 0.025,0.101 0.025,0.075 0.05,0.1000002 0.025,0.099 0.025,0.1009998 0.05,0.1000001 0.05,0.2000001 0.05,0.1249998 0.025,0.099 0.025,0.125 0.05,0.125 0.025,0.125 0.025,0.125 0.05,0.125 0.025,0.151 0.025,0.1249998 0.05,0.1499998 0.025,0.1500001 0.025,0.1250005 0.05,0.1499996 0.025,0.1749997 0.025,0.1500006 0.05,0.1499996 m -6.59998,28.8750016 0.025,-0.350002 0.05,-0.349998 0.025,-0.349999 0.025,-0.350002 0.05,-0.349999 0.05,-0.7 0.05,-0.350001 0.025,-0.325001 0.025,-0.35 0.05,-0.35 0.05,-0.699999 0.05,-0.350003 0.025,-0.324996 0.025,-0.350001 0.05,-0.35 0.025,-0.350001 0.025,-0.325 0.05,-0.349999 0.025,-0.325001 0.025,-0.349998 0.05,-0.325001 0.025,-0.350002 0.025,-0.324997 0.05,-0.35 0.05,-0.65 0.05,-0.325001 0.025,-0.325001 0.025,-0.349998 0.05,-0.325001 0.025,-0.325001 0.025,-0.325 0.05,-0.324999 0.025,-0.299999 0.025,-0.325001 0.05,-0.324999 0.025,-0.325003 0.025,-0.299998 0.05,-0.324999 0.025,-0.300001 0.025,-0.324999 0.05,-0.300001 0.025,-0.299999 0.025,-0.300002 0.05,-0.3 0.025,-0.299999 0.025,-0.300001 0.05,-0.299999 0.05,-0.600001 0.05,-0.299999 0.025,-0.274999 0.025,-0.300002 0.05,-0.275 0.025,-0.3 0.025,-0.274999 0.05,-0.275001 0.025,-0.274998 0.025,-0.275003 0.05,-0.274998 0.025,-0.275 0.025,-0.275001 0.05,-0.25 0.025,-0.275 0.025,-0.25 0.025,-0.275 0.05,-0.25 0.05,-0.5 0.05,-0.25 0.05,-0.5 0.05,-0.225 0.05,-0.4999997 0.05,-0.2249994 0.025,-0.2250004 0.025,-0.2249994 0.05,-0.2250004 0.025,-0.2249994 0.025,-0.2250004 0.05,-0.2250004 0.025,-0.1999998 0.025,-0.2250004 0.05,-0.1999998 0.025,-0.2249994 0.025,-0.2000003 0.05,-0.1999998 0.05,-0.4000001 0.05,-0.1750007 0.025,-0.1999998 0.025,-0.1749997 0.05,-0.1999998 0.025,-0.1750002 0.025,-0.1749997 0.05,-0.1750007" /><path
               id="path108"
               style="fill:none;stroke:#000000;stroke-width:0.5;stroke-linecap:butt;stroke-linejoin:round;stroke-miterlimit:4;stroke-dasharray:none;stroke-opacity:1"
               d="m 358.42401,64.175003 0.025,-0.225006 0.05,-0.199997 0.05,-0.450001 0.05,-0.224994 0.025,-0.225007 0.025,-0.224994 0.05,-0.25 0.025,-0.225006 0.025,-0.249996 0.05,-0.224999 0.05,-0.5 0.05,-0.25 0.05,-0.5 0.05,-0.25 0.025,-0.25 0.025,-0.275005 0.05,-0.249996 0.025,-0.274998 0.025,-0.275006 0.05,-0.274993 0.025,-0.25 0.025,-0.275006 0.05,-0.274997 0.025,-0.3 0.025,-0.275001 0.05,-0.274998 0.025,-0.299999 0.025,-0.275006 0.05,-0.299999 0.025,-0.274997 0.025,-0.3 0.05,-0.299999 0.05,-0.600002 0.05,-0.299999 0.025,-0.3 0.025,-0.299999 0.05,-0.299999 0.025,-0.300003 0.025,-0.325001 0.05,-0.300003 0.025,-0.324993 0.025,-0.300003 0.05,-0.325001 0.025,-0.324997 0.025,-0.299999 0.05,-0.325005 0.05,-0.649997 0.05,-0.325001 0.025,-0.325001 0.025,-0.324997 0.05,-0.325001 0.025,-0.350002 0.025,-0.324997 0.05,-0.325001 0.025,-0.325 0.025,-0.349999 0.05,-0.325001 0.025,-0.350002 0.025,-0.324997 0.05,-0.350002 0.025,-0.325001 0.025,-0.349998 0.05,-0.350003 0.025,-0.324997 0.025,-0.349998 0.05,-0.350002 0.025,-0.325001 0.025,-0.350003 0.05,-0.349998 0.05,-0.700001 0.05,-0.349998 0.05,-0.700001 0.05,-0.349998 0.05,-0.700001 0.05,-0.350003 0.025,-0.349998 0.025,-0.350002 0.05,-0.349999 0.025,-0.349998 0.025,-0.349999 0.05,-0.350002 0.05,-0.700001 0.05,-0.349998 0.05,-0.700001 0.05,-0.350002 0.025,-0.349999 0.025,-0.374996 0.05,-0.350002 0.025,-0.349999 m -6.60001,35.575001 0.025,0.1 0.05,0.125 0.025,0.1 0.025,0.126007 0.05,0.09899 0.05,0.199997 0.05,0.07601 0.025,0.099 0.025,0.075 0.05,0.1 0.025,0.075 0.025,0.07499 0.05,0.07501 0.025,0.05 0.025,0.075 0.05,0.05 0.025,0.076 0.025,0.049 0.05,0.05 0.025,0.05 0.025,0.05 0.05,0.02499 0.025,0.05 0.025,0.025 0.05,0.025 0.025,0.025 0.025,0.026 0.05,0.02399 0.025,0.025 h 0.025 l 0.05,0.025 h 0.125 l 0.025,-0.025 h 0.05 l 0.025,-0.025 h 0.025 l 0.05,-0.02399 0.025,-0.026 0.025,-0.05 0.05,-0.025 0.025,-0.025 0.025,-0.04999 0.05,-0.05 0.025,-0.05 0.025,-0.05 0.05,-0.049 0.025,-0.051 0.025,-0.05 0.05,-0.075 0.025,-0.07501 0.025,-0.07501 0.05,-0.07499 0.025,-0.075 0.025,-0.075 0.05,-0.07501 0.025,-0.1 0.025,-0.100007 0.05,-0.07499 0.025,-0.100006 0.025,-0.1 0.05,-0.125 0.025,-0.100007 0.025,-0.1 0.05,-0.124992 0.05,-0.25 0.05,-0.125008 0.05,-0.249992 0.05,-0.125 0.05,-0.300003 0.05,-0.125 0.025,-0.150002 0.025,-0.150002 0.05,-0.174995 0.025,-0.150001 0.025,-0.150002 0.05,-0.174995 0.025,-0.175003 0.025,-0.150002 0.05,-0.174995 0.05,-0.350007 0.05,-0.199996 0.025,-0.174996 0.025,-0.200004 0.05,-0.175004 0.025,-0.199996 0.025,-0.199997 0.05,-0.200005 0.025,-0.199997 0.025,-0.200005 0.05,-0.224998 0.025,-0.199997" /><path
               id="path110"
               style="fill:none;stroke:#000000;stroke-width:0.5;stroke-linecap:butt;stroke-linejoin:round;stroke-miterlimit:4;stroke-dasharray:none;stroke-opacity:1"
               d="m 351.82401,44.475002 0.05,0.349999 0.025,0.324997 0.025,0.350002 0.05,0.349998 0.025,0.325005 0.025,0.324997 0.05,0.349998 0.025,0.325005 0.025,0.349999 0.05,0.324996 0.05,0.650002 0.05,0.349998 0.05,0.650002 0.05,0.325001 0.05,0.650001 0.05,0.3 0.025,0.325 0.025,0.325001 0.05,0.324997 0.025,0.299999 0.025,0.325005 0.05,0.299999 0.025,0.299999 0.025,0.324997 0.05,0.300003 0.075,0.899998 0.05,0.299999 0.05,0.600003 0.05,0.299999 0.025,0.299999 0.025,0.275002 0.05,0.300003 0.025,0.274993 0.025,0.275006 0.05,0.299999 0.025,0.274998 0.025,0.275001 0.05,0.274998 0.05,0.549999 0.05,0.25 0.025,0.275006 0.025,0.25 0.05,0.274993 0.025,0.250004 0.025,0.275002 0.05,0.25 0.025,0.25 0.025,0.25 0.05,0.25 0.025,0.224998 0.025,0.249996 0.05,0.250004 0.05,0.449997 0.05,0.25 0.05,0.450001 0.05,0.225002 0.025,0.224999 0.025,0.200001 0.05,0.224998 0.025,0.200005 0.025,0.22499 0.05,0.200005 0.025,0.199997 0.025,0.200005 0.05,0.199996 0.025,0.199997 0.025,0.175011 0.05,0.199997 0.025,0.174995 0.025,0.200005 0.05,0.175003 0.05,0.349999 0.05,0.174995 0.025,0.175003 0.025,0.150002 0.05,0.175994 0.025,0.149003 0.025,0.150001 0.05,0.149994 0.025,0.150001 0.025,0.151001 0.05,0.149003 0.025,0.125 0.025,0.150001 0.05,0.125 0.05,0.249992 0.05,0.125008 0.025,0.125 m -6.6,-57.175002 0.05,0.25 0.025,0.274999 0.025,0.250001 0.05,0.274999 0.025,0.25 0.025,0.275 0.05,0.275 0.05,0.550001 0.05,0.274999 0.025,0.3 0.025,0.275001 0.05,0.274999 0.025,0.3 0.025,0.275 0.05,0.300002 0.025,0.299999 0.025,0.299999 0.05,0.300001 0.05,0.600001 0.05,0.299999 0.05,0.6 0.05,0.299999 0.025,0.324999 0.025,0.300001 0.05,0.325001 0.025,0.299999 0.025,0.325001 0.05,0.325001 0.025,0.299999 0.025,0.324999 0.05,0.325001 0.05,0.649999 0.05,0.324999 0.05,0.650002 0.05,0.349998 0.05,0.650002 0.05,0.325001 0.025,0.35 0.025,0.324999 0.05,0.349998 0.025,0.325003 0.025,0.349998 0.05,0.324999 0.05,0.700001 0.05,0.325001 0.05,0.700001 0.05,0.35 0.025,0.324997 0.025,0.350002 0.05,0.349999 0.025,0.35 0.025,0.349998 0.05,0.350003 0.025,0.349998 0.025,0.350001 0.05,0.35 0.05,0.700001 0.05,0.349998 0.05,0.700001 0.05,0.349998 0.05,0.700001 0.05,0.350003 0.025,0.349998 0.025,0.350002 0.05,0.349999 0.025,0.375 0.025,0.350002 0.05,0.349999 0.05,0.7 0.05,0.349999 0.05,0.700001 0.05,0.349998 0.05,0.700001 0.05,0.350002 0.025,0.349999 0.025,0.350002 0.05,0.349998 0.025,0.349999 0.025,0.325001 0.05,0.349998 0.05,0.700001 0.05,0.349998 0.025,0.325005 0.025,0.349998" /><path
               id="path112"
               style="fill:none;stroke:#000000;stroke-width:0.5;stroke-linecap:butt;stroke-linejoin:round;stroke-miterlimit:4;stroke-dasharray:none;stroke-opacity:1"
               d="m 347.19901,4 0.025,0.125 0.05,0.1490002 0.025,0.151 0.025,0.1749997 0.05,0.1500001 0.025,0.1500001 0.025,0.1750002 0.05,0.1749997 0.025,0.1500001 0.025,0.1750002 0.05,0.1749997 0.025,0.1999998 0.025,0.1750007 0.05,0.1749997 0.05,0.4000001 0.05,0.1750002 0.05,0.4000001 0.05,0.1999998 0.025,0.2249999 0.025,0.1999998 0.05,0.2000003 0.025,0.2250004 0.025,0.2249994 0.05,0.1999998 0.05,0.4499998 0.05,0.25 0.05,0.4500008 0.05,0.2499994 0.025,0.225001 0.025,0.25 0.05,0.25 0.025,0.224999 0.025,0.249999 0.05,0.250001 0.025,0.275001 0.025,0.25" /><text
               id="text116"
               style="font-variant:normal;font-weight:normal;font-size:11px;font-family:Times;-inkscape-font-specification:Times-Roman;writing-mode:lr-tb;fill:#000000;fill-opacity:1;fill-rule:nonzero;stroke:none"
               transform="matrix(1,0,0,-1,4.9999997e-4,78)"><tspan
                 id="tspan114"
                 y="0"
                 x="0 4.8839998">a)</tspan></text>
<text
               id="text120"
               style="font-variant:normal;font-weight:normal;font-size:11px;font-family:Times;-inkscape-font-specification:Times-Roman;writing-mode:lr-tb;fill:#000000;fill-opacity:1;fill-rule:nonzero;stroke:none"
               transform="matrix(1,0,0,-1,180.0023,78)"><tspan
                 id="tspan118"
                 y="0"
                 x="0 5.5">b)</tspan></text>
<text
               id="text124"
               style="font-variant:normal;font-weight:normal;font-size:11px;font-family:Times;-inkscape-font-specification:Times-Roman;writing-mode:lr-tb;fill:#000000;fill-opacity:1;fill-rule:nonzero;stroke:none"
               transform="matrix(1,0,0,-1,352.00272,78)"><tspan
                 id="tspan122"
                 y="0"
                 x="0 4.8839998">c)</tspan></text>
<text
               id="text128"
               style="font-style:italic;font-variant:normal;font-size:9.96000004px;font-family:Times;-inkscape-font-specification:Times-Italic;writing-mode:lr-tb;fill:#000000;fill-opacity:1;fill-rule:nonzero;stroke:none"
               transform="matrix(1,0,0,-1,66.613297,76.951698)"><tspan
                 id="tspan126"
                 y="0"
                 x="0 4.4222398">y </tspan></text>
<text
               id="text132"
               style="font-variant:normal;font-weight:normal;font-size:9.9630003px;font-family:CMMI10;-inkscape-font-specification:CMMI10;writing-mode:lr-tb;fill:#000000;fill-opacity:1;fill-rule:nonzero;stroke:none"
               transform="matrix(1,0,0,-1,152,29)"><tspan
                 id="tspan130"
                 y="0"
                 x="0">x</tspan></text>
<text
               id="text136"
               style="font-style:italic;font-variant:normal;font-size:9.96000004px;font-family:Times;-inkscape-font-specification:Times-Italic;writing-mode:lr-tb;fill:#000000;fill-opacity:1;fill-rule:nonzero;stroke:none"
               transform="matrix(1,0,0,-1,220.45801,82.445297)"><tspan
                 id="tspan134"
                 y="0"
                 x="0 4.4222398">y </tspan></text>
<text
               id="text140"
               style="font-variant:normal;font-weight:normal;font-size:9.9630003px;font-family:CMMI10;-inkscape-font-specification:CMMI10;writing-mode:lr-tb;fill:#000000;fill-opacity:1;fill-rule:nonzero;stroke:none"
               transform="matrix(1,0,0,-1,314,15)"><tspan
                 id="tspan138"
                 y="0"
                 x="0">x</tspan></text>
<text
               id="text144"
               style="font-style:italic;font-variant:normal;font-size:9.96000004px;font-family:Times;-inkscape-font-specification:Times-Italic;writing-mode:lr-tb;fill:#000000;fill-opacity:1;fill-rule:nonzero;stroke:none"
               transform="matrix(1,0,0,-1,401.22803,83.972694)"><tspan
                 id="tspan142"
                 y="0"
                 x="0 4.4222398">y </tspan></text>
<text
               id="text148"
               style="font-variant:normal;font-weight:normal;font-size:9.9630003px;font-family:CMMI10;-inkscape-font-specification:CMMI10;writing-mode:lr-tb;fill:#000000;fill-opacity:1;fill-rule:nonzero;stroke:none"
               transform="matrix(1,0,0,-1,492,33)"><tspan
                 id="tspan146"
                 y="0"
                 x="0">x</tspan></text>
</g></g></g></g></g></svg>