<?xml version="1.0" encoding="UTF-8" standalone="no"?>
<svg
   xmlns:dc="http://purl.org/dc/elements/1.1/"
   xmlns:cc="http://creativecommons.org/ns#"
   xmlns:rdf="http://www.w3.org/1999/02/22-rdf-syntax-ns#"
   xmlns:svg="http://www.w3.org/2000/svg"
   xmlns="http://www.w3.org/2000/svg"
   viewBox="0 0 461.33334 236"
   height="236"
   width="461.33334"
   xml:space="preserve"
   id="svg2"
   version="1.1"><metadata
     id="metadata8"><rdf:RDF><cc:Work
         rdf:about=""><dc:format>image/svg+xml</dc:format><dc:type
           rdf:resource="http://purl.org/dc/dcmitype/StillImage" /></cc:Work></rdf:RDF></metadata><defs
     id="defs6"><clipPath
       id="clipPath24"
       clipPathUnits="userSpaceOnUse"><path
         id="path22"
         d="M 0,0 H 346 V 177 H 0 Z" /></clipPath></defs><g
     transform="matrix(1.3333333,0,0,-1.3333333,0,236)"
     id="g10"><g
       id="g12" /><g
       id="g14" /><g
       id="g16"><g
         id="g18"><g
           clip-path="url(#clipPath24)"
           id="g20"><g
             id="g26" /><g
             id="g28"><path
               id="path30"
               style="fill:#000000;fill-opacity:1;fill-rule:nonzero;stroke:#000000;stroke-width:1;stroke-linecap:butt;stroke-linejoin:miter;stroke-miterlimit:4;stroke-dasharray:none;stroke-opacity:1"
               d="M 23.938002,0.95800006 V 176.99901" /><path
               id="path32"
               style="fill:none;stroke:#000000;stroke-width:1;stroke-linecap:butt;stroke-linejoin:round;stroke-miterlimit:10;stroke-dasharray:none;stroke-opacity:1"
               d="m 225.02101,34.042 0.20799,-0.417 0.20801,-0.375 0.25099,-0.333 0.20801,-0.334 0.25,-0.333 0.20799,-0.291998 0.20801,-0.25 0.25099,-0.25 0.20801,-0.208002 0.20899,-0.207998 0.249,-0.167 0.20801,-0.167 0.209,-0.125 0.25,-0.083 0.209,-0.084 0.20799,-0.083 0.24901,-0.041 h 0.459 l 0.20799,0.041 0.209,0.083 0.24901,0.084 0.209,0.083 0.20799,0.166998 0.25,0.125002 0.209,0.167 0.666,0.666 0.209,0.291998 0.25,0.291 0.20801,0.292 0.25,0.375 0.20799,0.334 0.209,0.375 0.25,0.416 0.20801,0.417 0.20799,0.458 0.25,0.458 0.41701,1 0.25,0.542 0.20799,0.542 0.20801,0.583 0.25099,0.583 0.20801,0.626004 0.20799,0.623996 0.25,0.667 0.20801,0.667 0.25101,0.708 0.20799,0.709004 0.20799,0.75 0.25,0.708 0.41701,1.583 0.25,0.791996 0.41701,1.666004 0.24899,0.833996 0.209,0.875004 0.20799,0.874996 0.25,0.917004 0.20902,0.874 0.24899,0.958996 0.209,0.916004 0.20799,0.959 0.25,0.958 0.41701,2 0.25,1 0.20799,1.042 0.20902,1 0.25,1.041 0.20799,1.042 0.20799,1.082996 0.25,1.084 0.20902,1.083 0.25,1.084 0.20799,1.083 0.20799,1.125 0.25002,1.083 0.41699,2.25 0.25,1.167 0.20801,1.125 0.20799,1.167007 0.25101,1.125 0.416,2.332993 0.25,1.166 0.20799,1.167 0.25101,1.167 0.416,2.333008 0.25,1.166992 0.41699,2.333008 0.25,1.165993 0.20801,1.209007 m -44.16602,37.791002 0.20801,-0.875 0.209,-0.83301 0.25,-0.91699 0.20799,-0.875 0.20801,-0.916 0.25,-0.916 0.20899,-0.959 0.208,-0.959 0.25,-0.958 0.41701,-1.999 0.25,-1.001 0.20799,-1 0.20801,-1.042 0.25,-1.041 0.20899,-1.084 0.25,-1.041 0.208,-1.08301 0.20801,-1.08399 0.25,-1.083 0.209,-1.084 0.20799,-1.125 0.25,-1.125 0.416,-2.25 0.25,-1.125 0.209,-1.125 0.20801,-1.166 0.25,-1.125002 0.20799,-1.167 0.25,-1.166 0.41701,-2.334 0.25,-1.167 0.41699,-2.332001 0.25,-1.168006 0.416,-2.332993 0.25,-1.208 0.41701,-2.333008 0.25,-1.167 0.20799,-1.165993 0.25,-1.167007 0.41701,-2.334 0.25,-1.125 0.20799,-1.166 0.209,-1.125 0.25,-1.167 0.416,-2.25 0.25,-1.125 0.209,-1.125 0.20801,-1.083 0.25,-1.084 0.20799,-1.125 0.25,-1.083 0.209,-1.041 0.20801,-1.083996 0.25,-1.042 0.41699,-2.083 0.25,-1 0.416,-2 0.25,-0.958004 0.209,-1 0.20801,-0.957996 0.25,-0.917 0.20799,-0.917 0.25,-0.917 0.209,-0.916 0.20801,-0.875004 0.25,-0.874996 0.20799,-0.834 0.209,-0.833 0.24901,-0.833 0.209,-0.792 0.20799,-0.75 0.25,-0.792004 0.209,-0.75 0.20801,-0.708 0.25,-0.707996 0.20799,-0.708 0.209,-0.667004 0.25,-0.625 0.20801,-0.667 0.25,-0.583 0.20799,-0.625 0.209,-0.542 0.25,-0.542 0.20801,-0.541 0.20799,-0.5 0.25,-0.5 0.209,-0.459 0.20801,-0.458 0.25,-0.416 M 180.813,111.5 l 0.25,1.08301 0.20801,1.041 0.20899,1.084 0.25,1.041 0.208,1.042 0.20801,1 0.25,1.042 0.41699,2 0.25,0.959 0.20801,0.95799 0.25,0.95801 0.20899,0.958 0.208,0.917 0.25,0.91699 0.41701,1.74901 0.25,0.87599 0.20799,0.87401 0.20801,0.834 0.25,0.791 0.41699,1.584 0.25,0.75 0.20801,0.75 0.25,0.75 0.209,0.666 0.20799,0.709 0.25,0.666 0.20801,0.66699 0.20899,0.625 0.25,0.58301 0.208,0.62599 0.20801,0.54201 0.25,0.58299 0.209,0.49901 0.20799,0.5 0.25,0.50099 0.20801,0.45801 0.25,0.459 0.20899,0.416 0.208,0.416 0.25,0.375 0.41701,0.668 0.25,0.332 0.20799,0.25099 0.20801,0.291 0.25,0.25101 0.20899,0.20799 0.208,0.16701 0.25,0.20799 0.41701,0.24901 0.25,0.12599 0.20799,0.083 0.25,0.041 0.20801,0.043 H 193.98 l 0.25,-0.043 h 0.208 l 0.20801,-0.083 0.25,-0.083 0.209,-0.125 0.20799,-0.125 0.25,-0.16701 0.20801,-0.16699 0.20899,-0.20801 0.25,-0.20799 0.208,-0.25 0.25,-0.25 0.20801,-0.33301 0.209,-0.29199 0.25,-0.334 0.20799,-0.375 0.20801,-0.375 0.25,-0.416 0.20899,-0.41701 0.208,-0.45799 0.25,-0.459 0.41701,-0.99901 0.25,-0.54199 0.20799,-0.54201 0.25,-0.58299 0.20801,-0.625 0.20799,-0.584 0.25,-0.666 0.209,-0.625 0.20801,-0.70801 0.25,-0.66699 0.20799,-0.709 0.209,-0.75 0.25,-0.75 0.20801,-0.75 0.20799,-0.791 0.25,-0.79201 0.209,-0.83299 0.25,-0.834 M 158.73,30.291992 h 0.208 l 0.25,0.041 0.20801,0.042 0.209,0.041 0.25,0.084 0.20799,0.125002 0.25,0.124998 0.417,0.333002 0.25,0.208 0.208,0.208998 0.20801,0.25 0.25,0.291 0.209,0.292 0.20799,0.333 0.25,0.334 0.417,0.75 0.25,0.416 0.208,0.417 0.25,0.458 0.20801,0.459 0.209,0.5 0.25,0.5 0.20799,0.542004 0.20801,0.582996 0.25,0.542004 0.20899,0.623996 0.208,0.625 0.25,0.626004 0.41701,1.333 0.25,0.707996 0.20799,0.708 0.20801,0.709 0.25,0.75 0.20899,0.791 0.25,0.792004 0.208,0.792 0.20801,0.833 0.25,0.834 0.209,0.833 L 168.313,50 l 0.25,0.875004 0.417,1.833 0.25,0.917 0.41601,1.916 0.25,0.958996 0.209,1 0.25,1 0.416,2 0.25,1.041004 0.20899,1.042 0.208,1.084 0.25,1.040996 0.41701,2.167 0.25,1.083 0.20799,1.083 0.20801,1.125 0.25,1.125 0.20899,1.125 0.25,1.125 0.41601,2.25 0.25,1.167 0.209,1.167 0.20799,1.125 0.25,1.166 0.417,2.334 0.25,1.167007 0.41601,2.332993 0.25,1.166 0.209,1.209008 0.25,1.166 0.416,2.333 0.25,1.167999 0.41699,2.332001 0.25,1.167 0.41701,2.334 0.25,1.124992 0.416,2.33301 0.25,1.125 0.41699,2.25 0.25,1.125 0.20801,1.125 0.25,1.083 0.209,1.125 0.20799,1.08399 m -44.16699,1.66701 0.41699,-2.168 0.25,-1.083 0.20801,-1.125 0.25,-1.083 0.41699,-2.25 0.25,-1.125 0.20801,-1.125 0.209,-1.167 0.25,-1.125 0.20799,-1.167002 0.20801,-1.125 0.25,-1.166 0.20899,-1.166001 0.208,-1.167999 0.25,-1.166 0.20801,-1.167 0.25,-1.166 0.209,-1.209 0.20799,-1.167007 0.25,-1.165993 0.417,-2.333008 0.25,-1.166992 0.41601,-2.333008 0.25,-1.167 0.41699,-2.333 0.25,-1.167 0.20801,-1.125 0.25,-1.166 0.41699,-2.25 0.25,-1.125 0.41701,-2.25 0.25,-1.084 0.20799,-1.125 0.20801,-1.083 0.25,-1.084 0.20899,-1.041 0.208,-1.083996 0.25,-1.041 0.20801,-1.042 0.25,-1 0.209,-1.042 0.20799,-0.999 0.25,-1.001 0.417,-1.916 0.25,-0.959 0.208,-0.958 0.20801,-0.917 0.25,-0.916 0.209,-0.875004 0.20799,-0.874996 0.25,-0.875004 0.417,-1.666996 0.25,-0.833004 0.208,-0.791996 0.25,-0.75 0.20801,-0.792004 0.209,-0.708 0.25,-0.75 0.20799,-0.708 0.20801,-0.667 0.25,-0.665996 L 152.48,39.75 l 0.208,-0.625 0.25,-0.625 0.20801,-0.584 0.209,-0.541 0.25,-0.584 0.20799,-0.499 0.25,-0.501 0.20801,-0.5 0.20899,-0.458 0.25,-0.458 0.208,-0.417 0.20801,-0.375 0.25,-0.375 0.209,-0.375 0.20799,-0.333 0.25,-0.292 0.20801,-0.291998 0.20899,-0.25 0.25,-0.249 0.208,-0.209 0.25,-0.208002 0.20801,-0.166998 0.209,-0.125 0.25,-0.125 0.20799,-0.125 0.20801,-0.083 0.25,-0.042 0.20899,-0.041 m -44.167,98.123998 0.208,0.83301 0.209,0.875 0.25,0.834 0.208,0.79199 0.208,0.791 0.25,0.79201 0.417,1.5 0.25,0.70799 0.208,0.709 0.208,0.70801 0.251,0.666 0.208,0.625 0.25,0.62599 0.208,0.625 0.208,0.58301 0.251,0.54199 0.208,0.58301 0.208,0.5 0.25,0.5 0.208,0.5 0.209,0.459 0.25,0.416 0.208,0.45799 0.209,0.375 0.249,0.375 0.209,0.33301 0.25,0.334 0.208,0.334 0.209,0.24899 0.249,0.29201 0.209,0.209 0.208,0.24899 0.25,0.16701 0.209,0.16699 0.208,0.16701 0.25,0.12399 0.208,0.084 0.209,0.083 0.25,0.042 0.208,0.042 h 0.208 l 0.25,-0.042 0.209,-0.042 0.25,-0.042 0.208,-0.083 0.208,-0.125 0.25,-0.125 0.209,-0.16701 0.208,-0.20799 0.25,-0.16701 0.208,-0.25 0.208,-0.24899 0.251,-0.293 0.208,-0.291 0.208,-0.29201 0.25,-0.375 0.208,-0.33299 0.251,-0.41701 0.208,-0.375 0.20801,-0.45799 0.25,-0.45801 0.20799,-0.45799 0.209,-0.50101 0.25,-0.5 0.20801,-0.541 0.20899,-0.584 0.249,-0.58299 0.209,-0.58301 0.20801,-0.625 0.25,-0.62599 0.209,-0.666 0.24899,-0.66701 0.209,-0.70799 0.20801,-0.70801 0.25,-0.75 0.41699,-1.5 0.25,-0.79199 0.20801,-0.834 0.209,-0.791 0.25,-0.834 0.20799,-0.87401 0.20801,-0.87599 0.25,-0.875 0.20899,-0.916 0.25,-0.916 0.208,-0.91701 0.20801,-0.95799 0.25,-0.959 0.209,-0.959 0.20799,-1 0.25,-0.999 0.416,-2.001 0.251,-1.041 0.208,-1.042 0.20801,-1.083 0.25,-1.041 m -44.208006,-79.751 0.25,0.375 0.208,0.417 0.208999,0.458 0.249001,0.459 0.209,0.458 0.208,0.5 0.25,0.5 0.208992,0.542 0.208008,0.583 0.25,0.583 0.208,0.584 0.25,0.625 0.208999,0.625 0.208001,0.667004 0.25,0.707996 0.208,0.666 0.208992,0.75 0.25,0.709004 0.208008,0.75 0.208,0.790996 0.25,0.792004 0.208999,0.791996 0.208001,0.833004 0.25,0.833 0.208,0.875 0.25,0.834 0.208992,0.916 0.208008,0.875 0.25,0.917 0.416,1.916996 0.250999,0.958004 0.208001,0.958 0.207996,1.001 0.25,0.999 0.417,2.001 0.25,1.041 0.208,1.041996 0.25,1.083004 0.208,1.041996 0.209,1.083 0.25,1.084 0.208,1.083 0.209,1.125 0.249,1.083 0.417,2.25 0.25,1.125 0.209,1.125 0.208,1.167 0.25,1.125 0.208,1.167007 0.25,1.165993 0.209,1.167008 0.208,1.124992 0.25,1.166 0.208,1.167 0.209,1.208 0.25,1.167008 0.416,2.333999 0.25,1.166001 0.417,2.333 0.25,1.208992 0.208,1.166008 0.25,1.167 0.209,1.166 0.208,1.125 0.25,1.167999 0.208,1.166003 0.208,1.125 0.251,1.166 0.416,2.25 0.25,1.125 0.417,2.25 0.25,1.084 0.208,1.125 0.209,1.084 0.249,1.082 0.209,1.042 0.25,1.084 0.208,1.041 0.209,1.042 0.249,1 0.209,1.04199 0.208,0.99901 0.25,1 0.417,1.918 0.25,0.958 0.208,0.917 0.209,0.95799 0.25,0.87401 0.208,0.917 0.25,0.87499 m -44.207997,-34.666992 0.208001,-1.166 0.25,-1.166001 0.208,-1.168006 0.208992,-1.165993 0.25,-1.167008 0.208008,-1.207992 0.25,-1.167008 0.416999,-2.333 0.25,-1.165993 0.208001,-1.166999 0.208,-1.167008 0.25,-1.125 0.417,-2.333 0.25,-1.125 0.208,-1.125 0.208999,-1.167 0.25,-1.125 0.208001,-1.083 0.25,-1.125 0.208,-1.125 0.208992,-1.084 0.25,-1.083 0.208008,-1.083 0.208,-1.042 0.25,-1.083 0.417,-2.083996 0.25,-0.999 0.208,-1.042 0.208992,-1 0.25,-0.958 0.208008,-1.001 0.25,-0.958 0.208,-0.958004 0.208999,-0.916996 0.25,-0.917 0.208001,-0.916004 0.208,-0.874996 0.25,-0.875004 0.208992,-0.874996 0.208008,-0.834004 0.25,-0.832996 0.208,-0.833 0.208999,-0.792 0.25,-0.75 0.208001,-0.791 0.208,-0.709004 0.25,-0.75 0.208992,-0.667 0.25,-0.708 0.208008,-0.667 0.208,-0.623996 0.25,-0.626004 0.208999,-0.625 0.208001,-0.583 0.25,-0.583 0.208,-0.542 0.208992,-0.5 0.25,-0.5 0.208008,-0.5 0.208,-0.458 0.25,-0.417 0.208999,-0.417 0.25,-0.416 0.208001,-0.375 0.208,-0.334 0.25,-0.333 0.417,-0.582998 0.25,-0.25 0.208,-0.25 0.208999,-0.209 0.25,-0.208 0.208001,-0.167 0.208,-0.124 0.25,-0.126 0.208992,-0.083 0.25,-0.083 0.208008,-0.042 0.208,-0.041 h 0.25 l 0.208999,0.041 0.208001,0.042 0.25,0.041 0.208,0.125 0.208992,0.084 0.25,0.166 0.208008,0.125 0.208,0.209 0.25,0.208 0.458999,0.459 0.208001,0.290998 0.208,0.292 0.25,0.333 0.208,0.333 0.209,0.375 m -44.167,107.334 0.208996,0.54201 0.25,0.49899 0.208004,0.5 0.208,0.50101 0.25,0.457 0.208999,0.41699 0.208001,0.41701 0.25,0.375 0.208,0.375 0.208996,0.375 0.25,0.33299 0.208004,0.29201 0.208,0.25 0.25,0.29199 0.208999,0.20801 0.25,0.20799 0.208001,0.20801 0.208,0.16699 0.25,0.12601 0.208996,0.12399 0.208004,0.084 0.25,0.083 0.208,0.041 0.208999,0.043 h 0.25 l 0.208001,-0.043 0.208,-0.041 0.25,-0.083 0.208996,-0.084 0.208004,-0.12399 0.25,-0.12601 0.208,-0.16699 0.25,-0.166 0.208999,-0.209 0.208001,-0.24901 0.25,-0.25099 0.416996,-0.58301 0.25,-0.33299 0.208004,-0.33301 0.208,-0.375 0.25,-0.375 0.208999,-0.41699 0.208001,-0.41701 0.25,-0.45799 0.208,-0.5 0.25,-0.5 0.208996,-0.5 0.208004,-0.54201 0.25,-0.58299 0.416999,-1.166 0.25,-0.62601 0.208001,-0.666 0.208,-0.66699 0.25,-0.666 0.208996,-0.709 0.208004,-0.709 0.25,-0.75 0.208,-0.75 0.25,-0.75 0.208999,-0.791 0.208001,-0.834 0.25,-0.791 0.208,-0.875 0.208,-0.834 0.25,-0.875 0.209,-0.916 0.208,-0.875 0.25,-0.917 0.208,-0.958 0.209,-0.917 0.25,-0.958 0.208,-1 0.25,-1 0.417,-2 0.25,-1 0.208,-1.041 0.208,-1.043 0.25,-1.083 0.209,-1.04101 0.208,-1.08399 0.25,-1.083 0.208,-1.084 0.209,-1.125 0.25,-1.082 0.416,-2.25 0.25,-1.125 0.209,-1.168 0.25,-1.125 0.208,-1.166 0.208,-1.125002 0.25,-1.167 0.417,-2.333 0.25,-1.167 0.208,-1.167 M 26.188002,43 l 0.208,0.75 0.208999,0.75 0.25,0.792004 0.208001,0.791 0.208,0.792 0.25,0.833 0.208998,0.833 0.208002,0.876 0.25,0.874 0.208,0.875 0.208999,0.917 0.25,0.916996 0.208001,0.917004 0.25,0.958 0.208,0.958 0.208998,1 0.25,0.958 0.208002,1.001 0.208,1.041 0.25,1 0.417,2.084 0.25,1.082996 0.208,1.041 0.208998,1.084 0.25,1.083 0.208,1.083 0.25,1.125 0.208,1.084 0.209003,1.125 0.25,1.125 0.207997,1.125 0.208,1.166 0.25,1.125 0.209,1.167 0.208,1.125 0.250004,1.167 0.416999,2.333 0.25,1.167008 0.208001,1.166999 0.25,1.166001 L 35.98,87.791 l 0.25,1.167008 0.208004,1.208 0.207996,1.167 0.25,1.166 0.417004,2.334 0.25,1.166 0.416996,2.334 0.25,1.166992 0.208004,1.12501 0.208,1.166 0.25,1.125 0.208999,1.167 0.25,1.125 0.416001,2.25 0.25,1.083 0.208996,1.125 0.208004,1.08399 0.25,1.08301 0.208,1.083 0.207996,1.042 0.25,1.084 0.417004,2.083 0.25,0.999 0.208,1.043 0.25,0.999 0.209,0.958 0.208,1 0.25,0.959 0.208,0.959 0.209,0.916 0.25,0.916 0.208,0.917 0.208,0.875 0.25,0.876 0.209,0.87399 0.208,0.834 0.25,0.83301 0.208,0.791 0.25,0.793 0.209,0.791 0.208,0.75 0.25,0.75 0.208,0.709 0.209,0.707 0.25,0.66699 0.208,0.66701 0.208,0.666 0.25,0.625 0.417,1.168 0.25,0.58299 M 23.938002,36.667004 l 0.208,0.540996 0.25,0.584004 0.417,1.165996 0.25,0.625 0.208,0.667 0.208998,0.666 0.25,0.667 0.208002,0.709004 0.25,0.707996" /><path
               id="path34"
               style="fill:#000000;fill-opacity:1;fill-rule:nonzero;stroke:#000000;stroke-width:1;stroke-linecap:butt;stroke-linejoin:miter;stroke-miterlimit:4;stroke-dasharray:none;stroke-opacity:1"
               d="M 0.66700006,89 H 263.33301" /><path
               id="path36"
               style="fill:#000000;fill-opacity:1;fill-rule:nonzero;stroke:none"
               d="m 262.31302,89 -2.19,3.603004 0.12201,0.082 5.87497,-2.333999 c 2.04702,-0.450005 4.09402,-0.900002 6.14102,-1.351006 -2.047,-0.450005 -4.094,-0.900002 -6.14102,-1.350998 l -5.87497,-2.334 -0.12201,0.062 2.19,3.622993" /><path
               id="path38"
               style="fill:#000000;fill-opacity:1;fill-rule:nonzero;stroke:none"
               d="m 24,165.313 -3.602999,-2.19 -0.082,0.12201 L 22.649,169.12 c 0.450001,2.04701 0.900002,4.09501 1.351,6.141 0.449999,-2.04599 0.9,-4.09399 1.351002,-6.141 l 2.333999,-5.87499 -0.062,-0.12201 L 24,165.313" /><path
               id="path40"
               style="fill:#000000;fill-opacity:1;fill-rule:nonzero;stroke:#000000;stroke-width:0.80000001;stroke-linecap:butt;stroke-linejoin:miter;stroke-miterlimit:4;stroke-dasharray:none;stroke-opacity:1"
               d="M 122.66701,148 H 159" /><path
               id="path42"
               style="fill:#000000;fill-opacity:1;fill-rule:nonzero;stroke:#000000;stroke-width:0.80000001;stroke-linecap:butt;stroke-linejoin:miter;stroke-miterlimit:4;stroke-dasharray:none;stroke-opacity:1"
               d="m 106.66701,87.999001 v -63.334" /><path
               id="path44"
               style="fill:#000000;fill-opacity:1;fill-rule:nonzero;stroke:#000000;stroke-width:0.80000001;stroke-linecap:butt;stroke-linejoin:miter;stroke-miterlimit:4;stroke-dasharray:none;stroke-opacity:1"
               d="M 154,142.13301 V 95.200005" /><path
               id="path46"
               style="fill:#000000;fill-opacity:1;fill-rule:nonzero;stroke:none"
               d="m 154.65601,93.688004 c 0.32,1.058998 0.61398,1.747001 0.95399,2.595001 h -3.228 c 0.144,-0.304001 0.63601,-1.536003 0.95501,-2.595001 0.34199,-1.131997 0.576,-2.158997 0.65899,-2.824997 0.084,0.666 0.31801,1.693 0.66001,2.824997" /><path
               id="path48"
               style="fill:#000000;fill-opacity:1;fill-rule:nonzero;stroke:none"
               d="M 153.34401,143.645 C 153.024,142.58701 152.73,141.899 152.39,141.05 h 3.22801 c -0.144,0.304 -0.636,1.53701 -0.955,2.595 -0.342,1.13201 -0.576,2.159 -0.66,2.825 -0.083,-0.666 -0.31701,-1.69299 -0.659,-2.825" /><path
               id="path50"
               style="fill:#ffffff;fill-opacity:1;fill-rule:nonzero;stroke:#ffffff;stroke-width:0.80000001;stroke-linecap:butt;stroke-linejoin:miter;stroke-miterlimit:4;stroke-dasharray:none;stroke-opacity:1"
               d="m 146.66701,126.33301 h 14.33301 v -12.333 h -14.33301 z" /><path
               id="path52"
               style="fill:#000000;fill-opacity:1;fill-rule:nonzero;stroke:#000000;stroke-width:0.80000001;stroke-linecap:butt;stroke-linejoin:miter;stroke-miterlimit:4;stroke-dasharray:none;stroke-opacity:1"
               d="m 113.283,25.667002 h 59.10001" /><path
               id="path54"
               style="fill:#000000;fill-opacity:1;fill-rule:nonzero;stroke:#000000;stroke-width:1;stroke-linecap:butt;stroke-linejoin:miter;stroke-miterlimit:4;stroke-dasharray:none;stroke-opacity:1"
               d="m 174.08401,26.405001 c -1.19,0.359001 -1.96501,0.691 -2.919,1.074001 v -3.632 c 0.341,0.161999 1.729,0.714998 2.919,1.072998 1.27399,0.386002 2.42901,0.649002 3.178,0.743002 -0.74899,0.094 -1.90401,0.356997 -3.178,0.741999 z" /><path
               id="path56"
               style="fill:#000000;fill-opacity:1;fill-rule:nonzero;stroke:#000000;stroke-width:1;stroke-linecap:butt;stroke-linejoin:miter;stroke-miterlimit:4;stroke-dasharray:none;stroke-opacity:1"
               d="m 111.58301,24.929001 c 1.18999,-0.359001 1.96399,-0.691 2.919,-1.074 v 3.632 c -0.34201,-0.162 -1.72901,-0.715 -2.919,-1.073999 -1.274,-0.385 -2.43,-0.648001 -3.179,-0.742001 0.749,-0.094 1.905,-0.357 3.179,-0.742 z" /><path
               id="path58"
               style="fill:#000000;fill-opacity:1;fill-rule:nonzero;stroke:#000000;stroke-width:0.80000001;stroke-linecap:butt;stroke-linejoin:miter;stroke-miterlimit:4;stroke-dasharray:none;stroke-opacity:1"
               d="M 177.5,88 V 24.667002" /><path
               id="path60"
               style="fill:#ffffff;fill-opacity:1;fill-rule:nonzero;stroke:#ffffff;stroke-width:0.80000001;stroke-linecap:butt;stroke-linejoin:miter;stroke-miterlimit:4;stroke-dasharray:none;stroke-opacity:1"
               d="m 130,29.333002 h 27.66701 v -10 H 130 Z" /><text
               id="text64"
               style="font-variant:normal;font-weight:normal;font-size:11.95500088px;font-family:CMR12;-inkscape-font-specification:CMR12;writing-mode:lr-tb;fill:#231f20;fill-opacity:1;fill-rule:nonzero;stroke:none"
               transform="matrix(1,0,0,-1,127.98679,116.7397)"><tspan
                 id="tspan62"
                 y="0"
                 x="0 5.8579507 15.613232 22.116753 25.368511 28.620272 33.175129 39.67865 46.182167">amplitude</tspan></text>
<text
               id="text68"
               style="font-variant:normal;font-weight:normal;font-size:11.95500088px;font-family:CMR12;-inkscape-font-specification:CMR12;writing-mode:lr-tb;fill:#231f20;fill-opacity:1;fill-rule:nonzero;stroke:none"
               transform="matrix(1,0,0,-1,128.40283,16.739712)"><tspan
                 id="tspan66"
                 y="0"
                 x="0">p</tspan></text>
<text
               id="text72"
               style="font-variant:normal;font-weight:normal;font-size:11.95500088px;font-family:CMR12;-inkscape-font-specification:CMR12;writing-mode:lr-tb;fill:#231f20;fill-opacity:1;fill-rule:nonzero;stroke:none"
               transform="matrix(1,0,0,-1,135.23154,16.739712)"><tspan
                 id="tspan70"
                 y="0"
                 x="0 5.2004256 9.7552805 13.007041">erio</tspan></text>
<text
               id="text76"
               style="font-variant:normal;font-weight:normal;font-size:11.95500088px;font-family:CMR12;-inkscape-font-specification:CMR12;writing-mode:lr-tb;fill:#231f20;fill-opacity:1;fill-rule:nonzero;stroke:none"
               transform="matrix(1,0,0,-1,154.42171,16.739712)"><tspan
                 id="tspan74"
                 y="0"
                 x="0">d</tspan></text>
<text
               id="text80"
               style="font-variant:normal;font-weight:normal;font-size:11.95500088px;font-family:CMR12;-inkscape-font-specification:CMR12;writing-mode:lr-tb;fill:#231f20;fill-opacity:1;fill-rule:nonzero;stroke:none"
               transform="matrix(1,0,0,-1,245.29286,133.40617)"><tspan
                 id="tspan78"
                 y="0"
                 x="0 3.5745454 8.1294003 13.329826 19.510561 26.014082 31.214508 37.718029 42.918453">frequency</tspan></text>
<text
               id="text84"
               style="font-variant:normal;font-weight:normal;font-size:11.95500088px;font-family:CMR12;-inkscape-font-specification:CMR12;writing-mode:lr-tb;fill:#231f20;fill-opacity:1;fill-rule:nonzero;stroke:none"
               transform="matrix(1,0,0,-1,298.29535,133.40617)"><tspan
                 id="tspan82"
                 y="0"
                 x="0">=</tspan></text>
<text
               id="text88"
               style="font-variant:normal;font-weight:normal;font-size:11.95500088px;font-family:CMR12;-inkscape-font-specification:CMR12;writing-mode:lr-tb;fill:#231f20;fill-opacity:1;fill-rule:nonzero;stroke:none"
               transform="matrix(1,0,0,-1,325.82892,141.49373)"><tspan
                 id="tspan86"
                 y="0"
                 x="0">1</tspan></text>
<path
               id="path90"
               style="fill:#231f20;fill-opacity:1;fill-rule:nonzero;stroke:none"
               d="m 312.496,136.63501 h 32.51599 v -0.478 H 312.496 Z" /><text
               id="text94"
               style="font-variant:normal;font-weight:normal;font-size:11.95500088px;font-family:CMR12;-inkscape-font-specification:CMR12;writing-mode:lr-tb;fill:#231f20;fill-opacity:1;fill-rule:nonzero;stroke:none"
               transform="matrix(1,0,0,-1,312.49609,125.2065)"><tspan
                 id="tspan92"
                 y="0"
                 x="0">p</tspan></text>
<text
               id="text98"
               style="font-variant:normal;font-weight:normal;font-size:11.95500088px;font-family:CMR12;-inkscape-font-specification:CMR12;writing-mode:lr-tb;fill:#231f20;fill-opacity:1;fill-rule:nonzero;stroke:none"
               transform="matrix(1,0,0,-1,319.32358,125.2065)"><tspan
                 id="tspan96"
                 y="0"
                 x="0 5.2004256 9.7552805 13.007041">erio</tspan></text>
<text
               id="text102"
               style="font-variant:normal;font-weight:normal;font-size:11.95500088px;font-family:CMR12;-inkscape-font-specification:CMR12;writing-mode:lr-tb;fill:#231f20;fill-opacity:1;fill-rule:nonzero;stroke:none"
               transform="matrix(1,0,0,-1,338.51495,125.2065)"><tspan
                 id="tspan100"
                 y="0"
                 x="0">d</tspan></text>
</g></g></g></g></g></svg>