<?xml version="1.0" encoding="UTF-8" standalone="no"?>
<svg
   xmlns:dc="http://purl.org/dc/elements/1.1/"
   xmlns:cc="http://creativecommons.org/ns#"
   xmlns:rdf="http://www.w3.org/1999/02/22-rdf-syntax-ns#"
   xmlns:svg="http://www.w3.org/2000/svg"
   xmlns="http://www.w3.org/2000/svg"
   viewBox="0 0 406.66666 150.66667"
   height="150.66667"
   width="406.66666"
   xml:space="preserve"
   id="svg2"
   version="1.1"><metadata
     id="metadata8"><rdf:RDF><cc:Work
         rdf:about=""><dc:format>image/svg+xml</dc:format><dc:type
           rdf:resource="http://purl.org/dc/dcmitype/StillImage" /></cc:Work></rdf:RDF></metadata><defs
     id="defs6"><clipPath
       id="clipPath24"
       clipPathUnits="userSpaceOnUse"><path
         id="path22"
         d="M 0,0 H 305 V 113 H 0 Z" /></clipPath><clipPath
       id="clipPath34"
       clipPathUnits="userSpaceOnUse"><path
         id="path32"
         d="M 0,0.05999756 H 304.07303 V 112.53701 H 0 Z" /></clipPath><clipPath
       id="clipPath60"
       clipPathUnits="userSpaceOnUse"><path
         id="path58"
         d="M 0,0.05999756 H 304.07303 V 112.53701 H 0 Z" /></clipPath></defs><g
     transform="matrix(1.3333333,0,0,-1.3333333,0,150.66667)"
     id="g10"><g
       id="g12" /><g
       id="g14" /><g
       id="g16"><g
         id="g18"><g
           clip-path="url(#clipPath24)"
           id="g20"><g
             id="g26" /><g
             id="g28"><g
               clip-path="url(#clipPath34)"
               id="g30"><path
                 id="path36"
                 style="fill:#231f20;fill-opacity:1;fill-rule:nonzero;stroke:none"
                 d="M 57.696003,0 V 107.00101" /><path
                 id="path38"
                 style="fill:none;stroke:#231f20;stroke-width:1;stroke-linecap:butt;stroke-linejoin:miter;stroke-miterlimit:4;stroke-dasharray:none;stroke-opacity:1"
                 d="M 57.696003,0 V 107.00101" /></g></g><g
             id="g40"><path
               id="path42"
               style="fill:#231f20;fill-opacity:1;fill-rule:nonzero;stroke:none"
               d="M 41.406002,50.105003 H 225.272" /><path
               id="path44"
               style="fill:none;stroke:#231f20;stroke-width:1;stroke-linecap:butt;stroke-linejoin:miter;stroke-miterlimit:4;stroke-dasharray:none;stroke-opacity:1"
               d="M 41.406002,50.105003 H 225.272" /><path
               id="path46"
               style="fill:#231f20;fill-opacity:1;fill-rule:nonzero;stroke:none"
               d="m 224.55801,50.105003 -1.53199,2.522999 0.085,0.057 4.112,-1.633998 c 1.434,-0.314999 2.86699,-0.630002 4.29901,-0.946 C 230.09,49.789997 228.65701,49.475002 227.22301,49.16 l -4.112,-1.633999 -0.085,0.043 1.53199,2.535999" /><path
               id="path48"
               style="fill:#231f20;fill-opacity:1;fill-rule:nonzero;stroke:none"
               d="m 57.587002,105.44901 -2.522,-1.534 -0.057,0.085 1.633999,4.11301 c 0.315003,1.433 0.630001,2.86599 0.945,4.29899 0.316002,-1.433 0.631,-2.86599 0.945999,-4.29899 L 60.167004,104 l -0.043,-0.085 -2.537002,1.534" /><path
               id="path50"
               style="fill:none;stroke:#231f20;stroke-width:0.5;stroke-linecap:butt;stroke-linejoin:round;stroke-miterlimit:10;stroke-dasharray:none;stroke-opacity:1"
               d="M 57.914001,81.737007 V 79.637001 M 56.864002,49.857002 h 2.100003 m -1.050004,1.050999 v -2.100998" /><path
               id="path52"
               style="fill:#231f20;fill-opacity:1;fill-rule:nonzero;stroke:none"
               d="m 47.035004,20.239 h 4.199997" /></g><g
             id="g54"><g
               clip-path="url(#clipPath60)"
               id="g56"><path
                 id="path62"
                 style="fill:none;stroke:#231f20;stroke-width:0.80000001;stroke-linecap:butt;stroke-linejoin:miter;stroke-miterlimit:4;stroke-dasharray:none;stroke-opacity:1"
                 d="m 47.035004,20.239 h 4.199997" /><path
                 id="path64"
                 style="fill:none;stroke:#231f20;stroke-width:0.5;stroke-linecap:butt;stroke-linejoin:round;stroke-miterlimit:10;stroke-dasharray:none;stroke-opacity:1"
                 d="m 57.914001,81.737007 v -2.100006 m 0,32.899999 v -2.1 M 56.864002,49.858002 h 2.100003 m -1.050004,1.049999 v -2.100998" /><path
                 id="path66"
                 style="fill:none;stroke:#231f20;stroke-width:1;stroke-linecap:butt;stroke-linejoin:round;stroke-miterlimit:10;stroke-dasharray:none;stroke-opacity:1"
                 d="m 183.214,72.519997 0.29201,1.167007 0.321,1.167 0.31999,1.137001 0.293,1.108002 0.31999,1.108993 0.32102,1.079003 0.29201,1.050003 0.321,1.049995 0.63999,1.982994 0.293,0.963013 0.321,0.962997 0.32,0.904 0.29199,0.875 0.32101,0.874992 0.321,0.816009 0.31999,0.817002 0.293,0.757995 0.32001,0.758004 0.321,0.700996 0.29201,0.699005 0.321,0.641998 0.63999,1.224999 0.293,0.555 0.321,0.525002 0.32,0.494995 0.292,0.438003 0.321,0.436997 0.321,0.380005 0.61299,0.669998 0.31999,0.292 0.32102,0.263 0.29201,0.203003 0.321,0.175995 0.31999,0.146004 0.32,0.115997 0.293,0.05799 0.321,0.03001 h 0.32 l 0.29199,-0.03001 0.32101,-0.05799 0.321,-0.115997 0.31999,-0.146004 0.293,-0.175995 0.32001,-0.233002 0.321,-0.233001 0.29201,-0.292 0.321,-0.32 0.31999,-0.349998 0.32,-0.380005 0.293,-0.436997 0.321,-0.467002 0.32,-0.465996 0.292,-0.525002 0.642,-1.167 0.31999,-0.612999 0.293,-0.671005 0.31999,-0.669998 0.32102,-0.700996 0.29201,-0.758004 0.321,-0.787002 0.31999,-0.787995 0.32,-0.845001 0.293,-0.846 0.321,-0.904 0.32,-0.904999 0.29199,-0.932998 0.32101,-0.963013 0.321,-0.99099 0.291,-1.021003 0.32199,-1.020996 0.32001,-1.050003 0.321,-1.079003 0.29201,-1.108993 0.321,-1.108002 0.31999,-1.137001 0.29098,-1.167 0.32202,-1.167007 0.321,-1.195992 0.32,-1.224998 0.292,-1.195 0.321,-1.254005 0.321,-1.224999 0.291,-1.283997 0.32199,-1.254001 0.31999,-1.283001 0.32102,-1.283001 0.29201,-1.313 0.321,-1.312 0.31999,-1.313 0.291,-1.312 0.322,-1.313 0.321,-1.341999 0.32,-1.312 0.29199,-1.342003 0.32101,-1.312 M 152.26801,9.8990002 152.589,9.1410007 152.88101,8.382 l 0.321,-0.6999998 0.31999,-0.6699996 0.321,-0.6420007 0.29201,-0.6129995 0.321,-0.5830001 0.321,-0.5250001 0.29199,-0.5250001 0.32001,-0.467 0.32,-0.4659999 0.322,-0.4090001 0.292,-0.379 0.32,-0.3210001 0.32099,-0.3199999 0.29201,-0.263 0.321,-0.234 0.31999,-0.204 0.321,-0.17400008 0.29199,-0.11700004 0.32102,-0.11699992 0.321,-0.058 h 0.612 l 0.32,0.058 0.322,0.088 0.292,0.11599999 0.32,0.14599995 0.32099,0.204 0.29201,0.204 0.321,0.263 0.31999,0.3210001 0.321,0.3210001 0.29201,0.379 0.321,0.3789999 0.321,0.438 0.29199,0.4660001 0.64001,1.0500002 0.322,0.5840001 0.292,0.5829997 0.32,0.6420002 0.32099,0.67 0.29201,0.7000003 0.321,0.6999998 0.31999,0.7589999 0.293,0.7869996 0.31999,0.817 0.32102,0.846 0.321,0.875 0.29201,0.904 0.31999,0.905 0.32,0.962001 0.293,0.962 0.321,0.992001 0.32,1.020999 0.32099,1.05 0.29201,1.050001 0.321,1.108 0.31999,1.108999 0.293,1.108 0.32001,1.138 0.321,1.166001 0.321,1.195999 0.29201,1.196001 0.31999,1.195999 0.32,1.225 0.293,1.254 0.321,1.254002 0.32,1.253997 0.32099,1.284001 0.29201,1.283001 0.321,1.283001 0.31999,1.312 0.293,1.313 0.31999,1.312 0.64202,2.625 0.29201,1.341999 0.31999,1.313 0.32,1.341999 0.293,1.341003 0.321,1.313 0.32,1.341999 0.32099,1.312 0.29201,1.341 0.321,1.313 0.31999,1.312 0.293,1.313 0.32001,1.284 0.642,2.566002 0.29201,1.284 0.63999,2.507996 0.293,1.225006 0.321,1.224998 0.32,1.195 0.32099,1.195992 m -61.86199,26.046005 0.291,0.175003 0.32099,0.175003 0.321,0.116997 0.292,0.08699 0.32,0.03001 h 0.64201 l 0.292,-0.088 0.321,-0.088 0.321,-0.116005 0.291,-0.174996 0.321,-0.204002 0.321,-0.234001 0.321,-0.292 0.291,-0.32 0.32099,-0.320999 0.321,-0.378998 0.292,-0.438003 0.32,-0.436997 0.321,-0.467003 0.29201,-0.525001 0.321,-0.554001 0.321,-0.583 0.321,-0.612999 0.291,-0.640999 0.32098,-0.670998 0.32102,-0.700004 0.292,-0.757996 0.32,-0.759002 0.32099,-0.788002 0.321,-0.815995 0.29201,-0.846 0.31999,-0.904 0.321,-0.903999 0.29199,-0.934006 0.32102,-0.932998 0.321,-0.990998 0.321,-1.021003 0.291,-1.020997 0.321,-1.051002 0.321,-1.079002 0.292,-1.077996 0.32,-1.109001 0.32099,-1.137001 0.321,-1.167 0.29201,-1.167 0.31999,-1.166 0.321,-1.225006 0.29201,-1.195992 0.321,-1.224998 0.642,-2.50901 0.291,-1.282997 0.32098,-1.253998 0.32102,-1.312001 0.292,-1.284 0.321,-1.311996 0.31999,-1.313004 0.321,-1.312004 0.29201,-1.312996 0.31999,-1.341 0.321,-1.312999 0.29199,-1.341999 0.32102,-1.313 0.321,-1.341 0.321,-1.312 0.29199,-1.341999 0.319,-1.313004 0.32201,-1.340999 0.292,-1.313 0.32,-1.312 0.32099,-1.284001 0.32201,-1.312 0.291,-1.282997 0.31999,-1.284 0.321,-1.254002 0.29201,-1.253998 0.321,-1.254001 0.321,-1.225001 0.29199,-1.225 0.32001,-1.195999 0.31999,-1.167 0.32201,-1.166002 0.292,-1.166998 0.32,-1.138001 0.32099,-1.108 0.29201,-1.079 0.321,-1.08 0.31999,-1.049 0.321,-1.021 0.29199,-1.021 0.64202,-1.925001 0.29199,-0.932999 0.32001,-0.905 0.31999,-0.875 0.32201,-0.846001 0.292,-0.816999 0.32,-0.7870008 m -61.863004,-6.9419999 0.321,0.4379999 0.291999,0.467 0.321,0.4950002 0.320991,0.525 0.32,0.5539999 0.613006,1.225 0.320999,0.6420002 0.291001,0.6999998 0.320999,0.6999998 0.642006,1.5169989 0.291992,0.817002 0.32,0.845 0.321007,0.847 0.291999,0.903999 0.321,0.904001 0.320999,0.932998 0.319999,0.962002 0.292,0.993 0.320999,1.020001 0.320999,1.049999 0.290993,1.049999 0.321007,1.079001 0.642006,2.217001 0.292,1.138 0.640999,2.333 0.291999,1.195999 0.320995,1.195 0.321,1.226 0.321,1.254001 0.291,1.224999 0.322,1.283001 0.32,1.254002 0.292,1.283996 0.32101,1.283001 0.321,1.313 0.32,1.312 0.29199,1.313 0.64201,2.625 0.29199,1.340999 0.32,1.313004 0.321,1.340996 0.321,1.313003 0.291,1.341 0.322,1.341999 0.32,1.313 0.292,1.340995 0.64201,2.625004 0.291,1.313 0.321,1.283001 0.321,1.313 0.321,1.283001 0.29199,1.253997 0.32,1.283005 0.321,1.225998 0.292,1.253998 0.32,1.225006 0.322,1.195 0.32,1.196998 0.29201,1.195 0.321,1.167 0.321,1.138 0.291,1.108002 0.32099,1.107994 0.64201,2.159004 0.29199,1.048996 0.32,0.992005 0.321,1.020996 0.292,0.963005 0.32,0.932998 0.322,0.932999 0.32001,0.903999 0.292,0.846001 0.321,0.846001 0.321,0.816002 0.291,0.787994 0.321,0.758003 0.642,1.401001 0.29199,0.669998 0.32,0.612 0.321,0.612999 0.292,0.554001 0.32,0.555 0.32201,0.496002 0.32,0.465996 0.292,0.438004 0.321,0.377998 0.321,0.380005 0.291,0.320999 0.32099,0.292 0.32101,0.262001 0.321,0.232994 m -61.863008,-13.679001 0.290997,-0.961998 0.321003,-0.962997 0.321003,-0.992005 0.292,-1.048996 0.320999,-1.021003 0.319999,-1.078995 0.321,-1.080002 0.291999,-1.108002 0.640999,-2.275001 0.292004,-1.167 0.320999,-1.166 0.32,-1.224999 0.321998,-1.195999 0.291004,-1.224999 0.641999,-2.50901 0.292,-1.25399 0.640991,-2.566006 0.321007,-1.283996 0.291999,-1.313 0.640999,-2.625 0.292,-1.312 0.320999,-1.313 0.321007,-1.341 0.290993,-1.312004 0.642006,-2.683998 0.320999,-1.312 0.292,-1.341999 0.320999,-1.312 0.319999,-1.342999 0.292,-1.312 0.320999,-1.313 0.320999,-1.312004 0.32,-1.282997 0.292,-1.283001 0.642006,-2.566998 0.292,-1.254001 0.320999,-1.254 0.640999,-2.450001 0.292,-1.195999 0.320991,-1.196001 0.32,-1.167002 0.292007,-1.165998 0.320999,-1.138001 0.320999,-1.108999 0.32,-1.078001 0.292,-1.079 0.320999,-1.08 0.321007,-1.019999 0.291992,-1.021 0.321007,-0.992 0.32,-0.933 0.320999,-0.963 0.292,-0.904001 0.640998,-1.75 0.292,-0.817 0.320999,-0.787999 0.320999,-0.7870007 0.32,-0.7290001 0.292,-0.7289996 0.642006,-1.3420005 0.291,-0.6129999 0.321999,-0.5829997 0.32,-0.5540004 L 82.297005,4.27 l 0.292,-0.4959998 0.320991,-0.4370001 0.32,-0.4379999 L 83.522003,2.52 83.843002,2.1699998 84.164001,1.8490001 84.484001,1.557 84.776001,1.3240001 85.097008,1.12 l 0.320999,-0.17499995 0.291992,-0.14600003 0.321007,-0.11699998 0.32,-0.058 0.320999,-0.029 h 0.292 l 0.320999,0.029 0.319999,0.088 0.292,0.087 0.320999,0.14600003 0.320999,0.20399993 0.292,0.204 0.32,0.2630001 0.321007,0.291 0.320999,0.3210001 0.292,0.3499999 0.320999,0.3790002 m -32.492005,86.2760017 0.32,-0.816994 0.292,-0.845001 0.321003,-0.875 0.320999,-0.905007 0.320999,-0.903999" /></g></g><g
             id="g68"><path
               id="path70"
               style="fill:#231f20;fill-opacity:1;fill-rule:nonzero;stroke:none"
               d="m 83.873001,53.955002 v -3.966" /><path
               id="path72"
               style="fill:none;stroke:#231f20;stroke-width:0.80000001;stroke-linecap:butt;stroke-linejoin:miter;stroke-miterlimit:4;stroke-dasharray:none;stroke-opacity:1"
               d="m 83.873001,53.955002 v -3.966" /><path
               id="path74"
               style="fill:#231f20;fill-opacity:1;fill-rule:nonzero;stroke:none"
               d="M 109.94801,53.489002 V 49.522003" /><path
               id="path76"
               style="fill:none;stroke:#231f20;stroke-width:0.80000001;stroke-linecap:butt;stroke-linejoin:miter;stroke-miterlimit:4;stroke-dasharray:none;stroke-opacity:1"
               d="M 109.94801,53.489002 V 49.522003" /><path
               id="path78"
               style="fill:#231f20;fill-opacity:1;fill-rule:nonzero;stroke:none"
               d="m 135.96501,53.372002 v -3.966" /><path
               id="path80"
               style="fill:none;stroke:#231f20;stroke-width:0.80000001;stroke-linecap:butt;stroke-linejoin:miter;stroke-miterlimit:4;stroke-dasharray:none;stroke-opacity:1"
               d="m 135.96501,53.372002 v -3.966" /><path
               id="path82"
               style="fill:#231f20;fill-opacity:1;fill-rule:nonzero;stroke:none"
               d="M 162.09801,53.489002 V 49.522003" /><path
               id="path84"
               style="fill:none;stroke:#231f20;stroke-width:0.80000001;stroke-linecap:butt;stroke-linejoin:miter;stroke-miterlimit:4;stroke-dasharray:none;stroke-opacity:1"
               d="M 162.09801,53.489002 V 49.522003" /><path
               id="path86"
               style="fill:#231f20;fill-opacity:1;fill-rule:nonzero;stroke:none"
               d="M 214.13101,53.605003 V 49.639004" /><path
               id="path88"
               style="fill:none;stroke:#231f20;stroke-width:0.80000001;stroke-linecap:butt;stroke-linejoin:miter;stroke-miterlimit:4;stroke-dasharray:none;stroke-opacity:1"
               d="M 214.13101,53.605003 V 49.639004" /><path
               id="path90"
               style="fill:#231f20;fill-opacity:1;fill-rule:nonzero;stroke:none"
               d="m 57.272003,80.804001 h 3.966" /><path
               id="path92"
               style="fill:none;stroke:#231f20;stroke-width:0.80000001;stroke-linecap:butt;stroke-linejoin:miter;stroke-miterlimit:4;stroke-dasharray:none;stroke-opacity:1"
               d="m 57.272003,80.804001 h 3.966" /><path
               id="path94"
               style="fill:#231f20;fill-opacity:1;fill-rule:nonzero;stroke:none"
               d="m 57.331001,19.189001 h 3.966004" /><path
               id="path96"
               style="fill:none;stroke:#231f20;stroke-width:0.80000001;stroke-linecap:butt;stroke-linejoin:miter;stroke-miterlimit:4;stroke-dasharray:none;stroke-opacity:1"
               d="m 57.331001,19.189001 h 3.966004" /><text
               id="text100"
               style="font-variant:normal;font-weight:normal;font-size:8.36849976px;font-family:CMR12;-inkscape-font-specification:CMR12;writing-mode:lr-tb;fill:#231f20;fill-opacity:1;fill-rule:nonzero;stroke:none"
               transform="matrix(1,0,0,-1,51.932598,78.923698)"><tspan
                 id="tspan98"
                 y="0"
                 x="0">2</tspan></text>
<text
               id="text104"
               style="font-variant:normal;font-weight:normal;font-size:8.36849976px;font-family:CMR12;-inkscape-font-specification:CMR12;writing-mode:lr-tb;fill:#231f20;fill-opacity:1;fill-rule:nonzero;stroke:none"
               transform="matrix(1,0,0,-1,59.707771,43.004421)"><tspan
                 id="tspan102"
                 y="0"
                 x="0">0</tspan></text>
<text
               id="text108"
               style="font-variant:normal;font-weight:normal;font-size:11.95500088px;font-family:CMR12;-inkscape-font-specification:CMR12;writing-mode:lr-tb;fill:#231f20;fill-opacity:1;fill-rule:nonzero;stroke:none"
               transform="matrix(1,0,0,-1,5.6777,103.1669)"><tspan
                 id="tspan106"
                 y="0"
                 x="0 6.4915657 11.691991 14.931796 20.777792">heigh</tspan></text>
<text
               id="text112"
               style="font-variant:normal;font-weight:normal;font-size:11.95500088px;font-family:CMR12;-inkscape-font-specification:CMR12;writing-mode:lr-tb;fill:#231f20;fill-opacity:1;fill-rule:nonzero;stroke:none"
               transform="matrix(1,0,0,-1,32.666119,103.1669)"><tspan
                 id="tspan110"
                 y="0"
                 x="0">t</tspan></text>
<text
               id="text116"
               style="font-variant:normal;font-weight:normal;font-size:11.95500088px;font-family:CMR12;-inkscape-font-specification:CMR12;writing-mode:lr-tb;fill:#231f20;fill-opacity:1;fill-rule:nonzero;stroke:none"
               transform="matrix(1,0,0,-1,239.06082,43.033249)"><tspan
                 id="tspan114"
                 y="0"
                 x="0 4.5429006 7.7827058 17.526031">time</tspan></text>
<text
               id="text120"
               style="font-variant:normal;font-weight:normal;font-size:8.36849976px;font-family:CMR12;-inkscape-font-specification:CMR12;writing-mode:lr-tb;fill:#231f20;fill-opacity:1;fill-rule:nonzero;stroke:none"
               transform="matrix(1,0,0,-1,51.606899,17.6845)"><tspan
                 id="tspan118"
                 y="0"
                 x="0">2</tspan></text>
<path
               id="path122"
               style="fill:none;stroke:#231f20;stroke-width:0.5;stroke-linecap:butt;stroke-linejoin:round;stroke-miterlimit:10;stroke-dasharray:none;stroke-opacity:1"
               d="m 56.922001,80.468002 h 2.100002 m -1.049,1.050003 V 79.418007 M 56.922001,49.639004 h 2.100002 m -1.049,1.049999 v -2.100002 m 151.054007,24.062 0.057,-0.202995 0.059,-0.176003 0.059,-0.204002 0.029,-0.203995 0.059,-0.20401 0.058,-0.204994 0.058,-0.173996 0.058,-0.205002 0.029,-0.204002 0.058,-0.203995 0.059,-0.204002 0.058,-0.204003 0.03,-0.204002 0.058,-0.204994 0.059,-0.204003 0.058,-0.175003 0.057,-0.203995 0.029,-0.204002 0.118,-0.407997 0.058,-0.205002 0.059,-0.233002 0.029,-0.204002 0.11599,-0.407997 0.058,-0.205002 0.029,-0.202995 0.059,-0.205002 0.058,-0.204003 0.118,-0.407997 0.029,-0.234001 0.058,-0.204002 0.057,-0.203995 0.059,-0.204002 0.058,-0.204003 0.03,-0.233001 0.058,-0.204995 0.059,-0.204002 0.058,-0.204002 0.029,-0.234002 0.11599,-0.407997 0.059,-0.203998 0.058,-0.233002 0.029,-0.204998 0.059,-0.204002 0.059,-0.232998 0.057,-0.204006 0.059,-0.203995 0.028,-0.234001 0.059,-0.203999 0.059,-0.203998 0.058,-0.233002 0.029,-0.204998 0.059,-0.233002 0.058,-0.203998 0.059,-0.204003 0.057,-0.234001 0.031,-0.202999 0.057,-0.233997 0.058,-0.204007 0.059,-0.203994 0.058,-0.233002 0.03,-0.204998 0.057,-0.233002 0.059,-0.203998 0.059,-0.233002 0.028,-0.204998 0.059,-0.233006 0.058,-0.203994 0.059,-0.233002 0.058,-0.204998 0.029,-0.233002 0.059,-0.203998 0.057,-0.233002 0.058,-0.204998 0.06,-0.233006 0.028,-0.203994 0.059,-0.233002 0.058,-0.233997 0.059,-0.204003 0.028,-0.234001 0.059,-0.202999 0.059,-0.234001 0.057,-0.204003 0.059,-0.233997 0.029,-0.232998 0.059,-0.204002 0.058,-0.232998 0.058,-0.205002 0.058,-0.232998 0.029,-0.204002 0.058,-0.232998 0.06,-0.234001 0.057,-0.203999 0.03,-0.233005 0.058,-0.203995 0.059,-0.234001 m -10.29699,37.567001 0.029,-0.115997 0.11798,-0.292 0.058,-0.117005 0.029,-0.145996 0.058,-0.146003 0.058,-0.115998 0.058,-0.146003 0.059,-0.145996 0.029,-0.146004 0.059,-0.116997 0.058,-0.145996 0.059,-0.145012 0.028,-0.145988 0.059,-0.146004 0.057,-0.145996 0.118,-0.292008 0.029,-0.144996 0.059,-0.145996 0.058,-0.146004 0.058,-0.145996 0.058,-0.146004 0.029,-0.146004 0.058,-0.173996 0.059,-0.146003 0.058,-0.145996 0.03,-0.146004 0.058,-0.174996 0.059,-0.146003 0.058,-0.145996 0.057,-0.174004 0.029,-0.145996 0.059,-0.146011 0.059,-0.174988 0.058,-0.146004 0.059,-0.174995 0.029,-0.146004 0.058,-0.175003 0.058,-0.145996 0.058,-0.175003 0.029,-0.173996 0.059,-0.146004 0.058,-0.175995 0.059,-0.146011 0.059,-0.174996 0.029,-0.173996 0.059,-0.176002 0.056,-0.145004 0.059,-0.174996 0.059,-0.175003 0.029,-0.174995 0.058,-0.175003 0.059,-0.145996 0.058,-0.175004 0.029,-0.174995 0.058,-0.175003 0.06,-0.174995 0.057,-0.175003 0.058,-0.175004 0.029,-0.174995 0.059,-0.175003 0.059,-0.174995 0.057,-0.175003 0.059,-0.175004 0.028,-0.174995 0.059,-0.20401 0.059,-0.174995 0.058,-0.175003 0.029,-0.174996 0.059,-0.175003 0.058,-0.203995 0.059,-0.176002 0.057,-0.173996 0.031,-0.17601 0.057,-0.203995 0.058,-0.174995 0.059,-0.174004 0.058,-0.203995 0.03,-0.176002 0.057,-0.204003 0.059,-0.174995 0.059,-0.175003 0.028,-0.204003 0.059,-0.174995 0.058,-0.20401 0.059,-0.174995 0.058,-0.203995 0.029,-0.176003 0.059,-0.204002 0.057,-0.202995 0.058,-0.176003 0.06,-0.204002 0.028,-0.174996 0.059,-0.204002 0.058,-0.204002 0.059,-0.175003 0.028,-0.204995 0.059,-0.204002 m -10.29601,25.375 0.059,-0.058 0.029,-0.029 0.058,-0.058 0.058,-0.03 0.058,-0.058 0.029,-0.058 0.059,-0.03001 0.058,-0.058 0.059,-0.058 0.058,-0.058 0.03,-0.03 0.057,-0.058 0.059,-0.05801 0.057,-0.059 0.059,-0.058 0.029,-0.05801 0.059,-0.059 0.059,-0.058 0.058,-0.058 0.029,-0.059 0.058,-0.087 0.058,-0.05901 0.058,-0.05799 0.059,-0.058 0.029,-0.058 0.059,-0.08801 0.058,-0.05801 0.059,-0.05899 0.058,-0.087 0.029,-0.059 0.057,-0.08701 0.059,-0.05801 0.059,-0.08699 0.029,-0.059 0.059,-0.08701 0.058,-0.088 0.058,-0.058 0.058,-0.08801 0.029,-0.088 0.058,-0.087 0.059,-0.05801 0.058,-0.088 0.059,-0.087 0.029,-0.087 0.059,-0.08801 0.058,-0.088 0.057,-0.087 0.029,-0.088 0.059,-0.08701 0.059,-0.08799 0.058,-0.087 0.059,-0.08801 0.029,-0.08701 0.058,-0.116989 0.058,-0.08801 0.06,-0.087 0.057,-0.087 0.03,-0.117005 0.057,-0.088 0.059,-0.087 0.059,-0.117004 0.029,-0.087 0.059,-0.116997 0.056,-0.08801 0.059,-0.115989 0.059,-0.088 0.029,-0.116012 0.058,-0.11699 0.059,-0.088 0.058,-0.116005 0.059,-0.115997 0.028,-0.08801 0.06,-0.116997 0.057,-0.116997 0.058,-0.116005 0.029,-0.116997 0.118,-0.233001 0.057,-0.116997 0.059,-0.116005 0.028,-0.117996 0.059,-0.116005 0.059,-0.116997 0.058,-0.116997 0.059,-0.116005 0.029,-0.116996 0.058,-0.116005 0.059,-0.145996 0.057,-0.116997 0.031,-0.117005 0.057,-0.115997 0.058,-0.146004 0.059,-0.116996 0.058,-0.116005 0.03,-0.145996 0.057,-0.116997 0.059,-0.146004 0.059,-0.116997 0.057,-0.145004 m -10.32399,8.195999 0.11599,0.116005 0.029,0.05899 0.058,0.05801 0.059,0.059 0.058,0.029 0.059,0.05801 0.029,0.059 0.059,0.028 0.057,0.05899 0.059,0.02901 0.028,0.058 0.059,0.029 0.058,0.05901 0.059,0.029 0.059,0.029 0.029,0.058 0.058,0.03 0.058,0.02899 0.058,0.05801 0.058,0.03 0.03,0.028 0.058,0.03 0.117,0.058 0.03,0.029 0.057,0.029 0.059,0.03 0.057,0.029 0.059,0.029 0.029,0.02901 0.059,0.029 0.059,0.03 h 0.058 l 0.029,0.028 0.058,0.03 h 0.058 l 0.058,0.029 0.059,0.029 h 0.029 l 0.059,0.029 h 0.058 l 0.059,0.029 h 0.087 l 0.057,0.029 h 0.118 l 0.029,0.03001 h 0.73001 l 0.057,-0.03001 h 0.11698 l 0.059,-0.029 h 0.087 l 0.058,-0.029 h 0.06 l 0.057,-0.029 0.03,-0.029 h 0.057 l 0.059,-0.029 h 0.059 l 0.029,-0.03 0.059,-0.028 0.056,-0.03 h 0.059 l 0.059,-0.029 0.029,-0.02901 0.058,-0.029 0.059,-0.029 0.058,-0.03 0.059,-0.029 0.028,-0.029 0.06,-0.029 0.057,-0.029 0.058,-0.03 0.029,-0.058 0.059,-0.02901 0.059,-0.02901 0.057,-0.02899 0.059,-0.059 0.028,-0.029 0.059,-0.029 0.059,-0.058 0.058,-0.03001 m -10.32499,-10.557999 0.058,0.146004 0.058,0.11599 0.059,0.146011 0.029,0.145996 0.058,0.146004 0.059,0.145996 0.059,0.115997 0.057,0.146004 0.03,0.147003 0.057,0.115998 0.059,0.145996 0.058,0.116005 0.03,0.145996 0.058,0.117004 0.059,0.145989 0.058,0.116012 0.058,0.145996 0.029,0.117005 0.058,0.145996 0.059,0.115997 0.058,0.117004 0.059,0.145996 0.029,0.117005 0.059,0.115997 0.057,0.117005 0.059,0.116996 0.028,0.144997 0.059,0.117004 0.058,0.11699 0.059,0.116012 0.059,0.116997 0.029,0.116997 0.23199,0.466003 0.03,0.116997 0.058,0.08801 0.059,0.115997 0.058,0.117005 0.03,0.116996 0.057,0.087 0.059,0.117005 0.057,0.115997 0.059,0.088 0.029,0.117005 0.059,0.087 0.059,0.116997 0.058,0.116005 0.058,0.088 0.029,0.087 0.058,0.117004 0.058,0.088 0.06,0.117004 0.028,0.08699 0.059,0.08701 0.058,0.088 0.059,0.115998 0.059,0.088 0.028,0.087 0.059,0.08801 0.057,0.087 0.059,0.088 0.058,0.08701 0.03,0.088 0.058,0.088 0.11599,0.174004 0.029,0.088 0.058,0.087 0.06,0.08801 0.057,0.058 0.059,0.088 0.029,0.08701 0.059,0.08799 0.059,0.05801 0.056,0.088 0.059,0.08701 0.029,0.058 0.059,0.088 0.058,0.058 0.059,0.08801 0.029,0.058 0.058,0.058 0.058,0.088 0.06,0.05901 0.057,0.058 0.03,0.087 0.057,0.059 0.059,0.058 0.059,0.05801 0.057,0.059 0.031,0.087 0.056,0.058 0.059,0.059 0.059,0.058 0.029,0.058 0.058,0.059 0.059,0.029 M 183.272,70.143005 l 0.029,0.204995 0.059,0.204002 0.058,0.204002 0.059,0.174996 0.029,0.204002 0.059,0.204003 0.058,0.204002 0.057,0.203995 0.059,0.204002 0.029,0.175003 0.059,0.203995 0.058,0.205002 0.059,0.204002 0.058,0.174995 0.029,0.204003 0.058,0.205002 0.058,0.173996 0.059,0.204002 0.029,0.205002 0.058,0.173996 0.059,0.205002 0.059,0.174995 0.057,0.204002 0.03,0.175004 0.057,0.204002 0.059,0.203995 0.058,0.175003 0.059,0.204002 0.029,0.175995 0.059,0.174004 0.058,0.203994 0.058,0.175003 0.029,0.204995 0.058,0.175003 0.059,0.174995 0.058,0.20401 0.059,0.174995 0.029,0.175004 0.059,0.174995 0.057,0.204002 0.059,0.175003 0.028,0.174996 0.059,0.175003 0.058,0.205002 0.118,0.348999 0.029,0.176002 0.058,0.173996 0.058,0.176003 0.11601,0.348999 0.03,0.176002 0.058,0.173996 0.059,0.176003 0.058,0.173996 0.03,0.175003 0.057,0.174995 0.059,0.175003 0.059,0.176003 0.057,0.144996 0.03,0.175003 0.058,0.174996 0.059,0.175003 0.058,0.175003 0.058,0.145996 0.03,0.175003 0.057,0.174995 0.058,0.146004 0.06,0.174996 0.028,0.175003 0.059,0.146003 0.058,0.174996 0.059,0.145004 0.059,0.175995 0.028,0.146004 0.059,0.173996 0.057,0.146003 0.059,0.174996 0.058,0.146004 0.03,0.145996 0.058,0.175003 0.058,0.146003 0.058,0.144997 0.029,0.175003 0.058,0.145996 0.06,0.146004 0.057,0.145996 0.059,0.146004 0.029,0.174988 0.059,0.146011 0.059,0.145996 0.056,0.146004 0.059,0.144996 0.029,0.146004 0.059,0.145996 0.058,0.146004 0.059,0.145996 0.029,0.146004 0.058,0.144996 m -10.29601,-38.645 0.058,0.233002 0.03,0.203994 0.058,0.233006 0.059,0.204998 0.058,0.231998 0.029,0.234001 0.057,0.204003 0.059,0.232998 0.059,0.205002 0.058,0.232997 0.03,0.233002 0.058,0.203999 0.058,0.233997 0.058,0.204002 0.058,0.233002 0.029,0.234001 0.059,0.203999 0.058,0.232998 0.059,0.204002 0.029,0.234001 0.059,0.232998 0.058,0.203999 0.057,0.234001 0.059,0.204002 0.029,0.232998 0.059,0.203999 0.058,0.234001 0.059,0.233002 0.058,0.203998 0.029,0.233002 0.058,0.204998 0.058,0.232998 0.059,0.204002 0.029,0.233002 0.058,0.204998 0.059,0.233002 0.059,0.203998 0.057,0.233002 0.03,0.204998 0.057,0.232998 0.059,0.204002 0.058,0.233002 0.059,0.204998 0.029,0.233002 0.059,0.203998 0.058,0.233002 0.058,0.204998 0.029,0.232998 0.058,0.204002 0.059,0.233002 0.058,0.204998 0.059,0.233002 0.029,0.203998 0.059,0.204003 0.057,0.233997 0.059,0.204002 0.059,0.232998 0.028,0.204003 0.059,0.203998 0.058,0.234001 0.059,0.203995 0.029,0.204002 0.058,0.233002 0.059,0.203999 0.057,0.205002 0.058,0.232997 0.03,0.204003 0.058,0.204998 0.059,0.233002 0.058,0.203998 0.059,0.204003 0.028,0.203994 0.059,0.233002 0.059,0.203995 0.057,0.205009 0.03,0.203995 0.058,0.233002 0.059,0.204002 0.116,0.408997 0.03,0.204002 0.057,0.204002 0.058,0.232994 0.06,0.204003 0.057,0.205002 0.03,0.204002 0.058,0.203995 0.118,0.408005 0.028,0.204994 0.059,0.204002 0.057,0.204003 0.059,0.204002 0.058,0.203995 0.03,0.204002 0.17401,0.612999 0.06,0.204002 m -10.32599,-42.466003 0.058,0.174 0.059,0.205 0.028,0.203998 0.059,0.204001 0.057,0.204 0.118,0.408001 0.029,0.205 0.059,0.174999 0.116,0.408001 0.029,0.203999 0.11601,0.408001 0.059,0.205 0.058,0.204 0.03,0.203999 0.058,0.204 0.059,0.233 0.058,0.205 0.057,0.204 0.029,0.203999 0.118,0.408001 0.058,0.204002 0.03,0.204998 0.058,0.233002 0.058,0.203999 0.11599,0.409 0.029,0.203999 0.059,0.203998 0.058,0.233002 0.118,0.408001 0.029,0.205002 0.058,0.232997 0.057,0.203999 0.059,0.205002 0.029,0.233002 0.059,0.203998 0.058,0.203999 0.059,0.234001 0.058,0.202999 0.029,0.205002 0.058,0.232998 0.058,0.204002 0.059,0.203999 0.029,0.234001 0.058,0.203995 0.059,0.204002 0.059,0.233002 0.057,0.203998 0.031,0.234001 0.056,0.204003 0.059,0.232998 0.059,0.203998 0.058,0.205002 0.029,0.233002 0.059,0.203998 0.058,0.232998 0.059,0.205002 0.028,0.233002 0.06,0.203998 0.057,0.232998 0.058,0.205002 0.059,0.233002 0.029,0.203998 0.059,0.232998 0.057,0.205002 0.059,0.233002 0.059,0.203998 0.028,0.232998 0.059,0.205002 0.058,0.233002 0.059,0.232998 0.029,0.203998 0.058,0.234001 0.059,0.204003 0.057,0.232998 0.058,0.204002 0.03,0.233994 0.058,0.233005 0.059,0.203999 0.058,0.234001 0.059,0.203998 0.028,0.233002 0.059,0.203999 0.059,0.234001 0.057,0.232998 0.03,0.204002 0.058,0.232998 0.059,0.205002 0.058,0.232998 0.058,0.234001 0.03,0.202999 0.057,0.234001 0.058,0.203999 0.06,0.234001 m -36.08,0.524002 0.029,-0.233002 0.058,-0.204002 0.059,-0.232998 0.058,-0.203999 0.03,-0.234001 0.058,-0.233001 0.058,-0.203999 0.058,-0.234001 0.059,-0.203999 0.029,-0.233001 0.057,-0.233998 0.059,-0.204002 0.059,-0.233002 0.058,-0.203998 0.03,-0.233998 0.058,-0.233002 0.058,-0.203998 0.058,-0.234001 0.029,-0.203999 0.058,-0.233002 0.059,-0.204002 0.058,-0.233997 0.059,-0.232998 0.029,-0.204003 0.059,-0.232997 0.058,-0.205002 0.057,-0.232998 0.059,-0.204003 0.029,-0.232997 0.059,-0.205002 0.058,-0.232998 0.059,-0.204003 0.029,-0.232997 0.058,-0.205002 0.058,-0.232998 0.058,-0.204003 0.059,-0.232997 0.029,-0.205002 0.058,-0.233002 0.059,-0.203999 0.059,-0.232997 0.057,-0.205002 0.03,-0.233002 0.057,-0.203999 0.059,-0.232997 0.058,-0.205002 0.03,-0.233002 0.058,-0.203999 0.059,-0.203998 0.058,-0.234001 0.058,-0.203999 0.029,-0.233002 0.058,-0.204002 0.059,-0.203998 0.058,-0.233998 0.059,-0.204002 0.029,-0.203999 0.059,-0.233001 0.057,-0.203999 0.059,-0.205002 0.028,-0.232998 0.059,-0.204002 0.058,-0.203999 0.059,-0.232998 0.059,-0.205001 0.029,-0.203999 0.058,-0.204002 0.058,-0.233998 0.11601,-0.408001 0.03,-0.204002 0.058,-0.203999 0.059,-0.234001 0.058,-0.203998 0.03,-0.203999 0.057,-0.204002 0.059,-0.203999 0.057,-0.204002 0.059,-0.232998 0.029,-0.205 0.059,-0.204001 0.059,-0.204 0.058,-0.203999 0.029,-0.204 0.116,-0.409 0.058,-0.204001 0.059,-0.204002 0.029,-0.203997 0.059,-0.205 0.058,-0.204 0.059,-0.204001 0.058,-0.204 0.029,-0.203999 0.057,-0.204 0.059,-0.205 0.059,-0.174 0.029,-0.204001 0.059,-0.204999 m -10.29601,42.466999 0.058,-0.203995 0.029,-0.205002 0.059,-0.175003 0.058,-0.202995 0.058,-0.205002 0.029,-0.204003 0.059,-0.204002 0.116,-0.407997 0.059,-0.204002 0.028,-0.204995 0.11798,-0.408004 0.058,-0.203995 0.058,-0.234001 0.029,-0.204003 0.059,-0.204002 0.058,-0.203995 0.058,-0.205009 0.03,-0.203995 0.058,-0.202995 0.058,-0.205002 0.058,-0.233002 0.059,-0.204002 0.029,-0.204994 0.058,-0.204003 0.059,-0.204002 0.058,-0.232994 0.058,-0.204003 0.03,-0.204002 0.058,-0.205002 0.058,-0.232998 0.058,-0.203998 0.03,-0.205006 0.058,-0.232994 0.058,-0.204002 0.058,-0.203999 0.059,-0.234001 0.029,-0.203999 0.058,-0.203998 0.059,-0.233002 0.11601,-0.408001 0.03,-0.233997 0.11598,-0.408001 0.058,-0.233002 0.03,-0.204998 0.058,-0.233002 0.058,-0.203998 0.058,-0.233002 0.059,-0.204998 0.029,-0.204002 0.058,-0.232998 0.059,-0.204006 0.058,-0.233994 0.059,-0.204002 0.029,-0.232998 0.058,-0.204003 0.058,-0.233997 0.058,-0.204002 0.03,-0.232998 0.058,-0.204006 0.058,-0.233994 0.059,-0.204002 0.058,-0.232998 0.029,-0.204003 0.058,-0.233997 0.059,-0.204002 0.059,-0.232998 0.058,-0.233002 0.029,-0.204998 0.058,-0.233002 0.058,-0.203998 0.059,-0.233002 0.029,-0.204998 0.11601,-0.466 0.058,-0.204002 0.06,-0.234001 0.028,-0.203999 0.059,-0.233001 0.058,-0.203999 0.058,-0.234001 0.059,-0.232998 0.029,-0.204002 0.059,-0.233998 0.058,-0.204002 0.058,-0.232998 0.029,-0.234005 0.058,-0.203995 0.059,-0.233001 0.058,-0.203999 0.058,-0.234001 0.029,-0.232998 0.058,-0.204002 0.06,-0.232998 0.058,-0.204003 0.058,-0.233997 m -10.325,38.441997 0.059,-0.145996 0.058,-0.146003 0.029,-0.115998 0.059,-0.146003 0.058,-0.145996 0.058,-0.146004 0.058,-0.145996 0.029,-0.146004 0.059,-0.144997 0.058,-0.146003 0.059,-0.145996 0.028,-0.175004 0.059,-0.145996 0.059,-0.146003 0.116,-0.292 0.029,-0.145004 0.059,-0.174996 0.11601,-0.292 0.058,-0.174995 0.03,-0.146004 0.058,-0.145996 0.058,-0.175003 0.059,-0.146004 0.029,-0.173996 0.058,-0.146003 0.059,-0.175003 0.058,-0.145997 0.058,-0.174995 0.03,-0.146004 0.058,-0.174995 0.058,-0.175003 0.058,-0.144997 0.058,-0.176002 0.03,-0.175003 0.058,-0.145996 0.058,-0.174004 0.059,-0.175995 0.029,-0.175003 0.058,-0.146004 0.059,-0.173996 0.058,-0.176002 0.058,-0.173996 0.03,-0.17601 0.11602,-0.348992 0.058,-0.176002 0.059,-0.173996 0.029,-0.176003 0.116,-0.348999 0.059,-0.176002 0.029,-0.173996 0.058,-0.17601 0.059,-0.174996 0.058,-0.173996 0.058,-0.176002 0.03,-0.203995 0.058,-0.175003 0.058,-0.175003 0.058,-0.174995 0.059,-0.174004 0.029,-0.203995 0.058,-0.176002 0.059,-0.175003 0.058,-0.203995 0.029,-0.175003 0.058,-0.175003 0.059,-0.203995 0.059,-0.175003 0.058,-0.204002 0.029,-0.174996 0.058,-0.205009 0.058,-0.174996 0.059,-0.203994 0.058,-0.174004 0.029,-0.205002 0.058,-0.174995 0.059,-0.204003 0.058,-0.174995 0.029,-0.204002 0.058,-0.204003 0.059,-0.174995 0.059,-0.204003 0.058,-0.204002 0.029,-0.175995 0.058,-0.204002 0.059,-0.204003 0.058,-0.174995 0.029,-0.204002 0.058,-0.204003 0.058,-0.205002 0.059,-0.203994 0.059,-0.174004 0.028,-0.204002 0.059,-0.204995 0.058,-0.204002 0.059,-0.204002 m -10.32599,26.921005 0.059,-0.058 0.059,-0.05901 0.058,-0.059 0.029,-0.058 0.058,-0.058 0.058,-0.05901 0.059,-0.058 0.058,-0.058 0.029,-0.058 0.058,-0.058 0.11799,-0.118012 0.028,-0.05799 0.059,-0.087 0.058,-0.059 0.059,-0.05801 0.058,-0.088 0.029,-0.05799 0.059,-0.087 0.058,-0.05901 0.058,-0.058 0.058,-0.087 0.029,-0.088 0.059,-0.058 0.058,-0.088 0.059,-0.058 0.028,-0.088 0.059,-0.08701 0.059,-0.059 0.116,-0.175003 0.029,-0.087 0.059,-0.087 0.058,-0.088 0.116,-0.175003 0.03,-0.087 0.058,-0.08801 0.058,-0.088 0.059,-0.08699 0.029,-0.088 0.058,-0.08701 0.059,-0.087 0.058,-0.088 0.058,-0.116005 0.03,-0.088 0.058,-0.088 0.058,-0.116005 0.058,-0.088 0.058,-0.08701 0.03,-0.116997 0.058,-0.087 0.058,-0.116996 0.059,-0.08701 0.029,-0.116997 0.058,-0.088 0.059,-0.117012 0.058,-0.11599 0.058,-0.08801 0.03,-0.116005 0.058,-0.116989 0.058,-0.08801 0.058,-0.115997 0.059,-0.116997 0.029,-0.117005 0.058,-0.115997 0.058,-0.117004 0.059,-0.115998 0.029,-0.116996 0.058,-0.117005 0.059,-0.115997 0.11601,-0.234001 0.03,-0.116997 0.174,-0.350006 0.059,-0.145996 0.029,-0.116005 0.058,-0.116997 0.059,-0.116997 0.058,-0.145004 0.029,-0.116997 0.058,-0.145004 0.059,-0.117996 0.059,-0.116005 0.058,-0.145996 0.029,-0.116997 0.058,-0.145012 0.058,-0.145988 0.059,-0.117005 0.058,-0.145996 0.029,-0.116005 0.058,-0.145996 0.059,-0.146004 0.059,-0.116996 0.028,-0.146004 0.059,-0.145996 0.058,-0.145005 m -10.29501,10.120995 0.028,0.05801 0.059,0.029 0.058,0.05801 0.058,0.03 0.03,0.029 0.058,0.058 0.058,0.029 0.058,0.03 0.059,0.058 0.029,0.02901 0.058,0.03 0.059,0.028 0.058,0.03 0.059,0.029 0.028,0.058 0.059,0.029 0.059,0.03 0.058,0.029 h 0.029 l 0.058,0.029 0.058,0.02901 0.059,0.029 0.058,0.03 0.029,0.028 h 0.058 l 0.059,0.03 0.059,0.029 h 0.058 l 0.029,0.029 h 0.058 l 0.059,0.029 h 0.058 l 0.029,0.029 h 0.059 l 0.058,0.029 h 0.116 l 0.029,0.03001 h 0.788 l 0.058,-0.03001 h 0.117 l 0.029,-0.029 h 0.059 l 0.058,-0.029 h 0.058 l 0.03,-0.029 h 0.058 l 0.058,-0.029 h 0.058 l 0.058,-0.029 0.03,-0.03 h 0.058 l 0.058,-0.028 0.059,-0.03 0.058,-0.029 0.029,-0.02901 h 0.059 l 0.058,-0.029 0.058,-0.029 0.03,-0.03 0.058,-0.029 0.058,-0.029 0.058,-0.029 0.088,-0.087 0.116,-0.05901 0.059,-0.02901 0.059,-0.05899 0.028,-0.029 0.059,-0.029 0.058,-0.058 0.058,-0.03 0.03,-0.05801 0.058,-0.029 0.058,-0.05801 0.058,-0.02899 0.059,-0.058 0.029,-0.059 0.058,-0.029 0.059,-0.05801 0.058,-0.059 0.029,-0.029 0.058,-0.058 m -10.295,-8.663002 0.058,0.146004 0.029,0.145988 0.059,0.116005 0.058,0.146004 0.058,0.116996 0.058,0.146004 0.03,0.116997 0.058,0.116005 0.058,0.145996 0.059,0.115997 0.029,0.117005 0.058,0.145996 0.058,0.116997 0.11799,0.233009 0.028,0.145996 0.059,0.117004 0.058,0.115998 0.058,0.116996 0.03,0.117005 0.17401,0.349998 0.059,0.115998 0.029,0.117004 0.058,0.116997 0.059,0.116005 0.058,0.08799 0.059,0.117004 0.028,0.116005 0.059,0.116989 0.059,0.08701 0.058,0.117004 0.029,0.116997 0.058,0.087 0.058,0.117004 0.059,0.087 0.058,0.117005 0.029,0.087 0.058,0.116996 0.059,0.088 0.059,0.115998 0.058,0.088 0.029,0.088 0.058,0.115998 0.059,0.088 0.058,0.08701 0.029,0.087 0.059,0.116996 0.058,0.088 0.11599,0.174996 0.029,0.087 0.059,0.08801 0.058,0.087 0.059,0.088 0.058,0.08701 0.029,0.088 0.059,0.087 0.058,0.088 0.058,0.058 0.029,0.087 0.059,0.088 0.058,0.08701 0.058,0.05899 0.058,0.08701 0.03,0.088 0.058,0.058 0.058,0.088 0.059,0.058 0.058,0.087 0.029,0.05901 0.059,0.087 0.058,0.059 0.058,0.058 0.03,0.08801 0.058,0.058 0.058,0.058 0.058,0.088 0.058,0.05801 0.03,0.059 0.058,0.058 0.058,0.058 0.059,0.058 0.058,0.059 0.029,0.058 0.059,0.058 0.116,0.116996 0.03,0.05901 0.058,0.058 0.058,0.02899 0.058,0.05801 0.059,0.059 0.029,0.05801 0.058,0.029 0.058,0.059 0.059,0.058 0.059,0.02899 m -10.32599,-25.724991 0.059,0.203995 0.058,0.204002 0.029,0.175003 0.059,0.205002 0.058,0.203995 0.058,0.174004 0.058,0.203994 0.03,0.205002 0.058,0.175003 0.11601,0.407997 0.03,0.175003 0.058,0.203995 0.058,0.175003 0.059,0.204003 0.058,0.174995 0.029,0.203995 0.059,0.17601 0.058,0.203995 0.058,0.175003 0.058,0.204002 0.03,0.174995 0.058,0.175004 0.058,0.204002 0.059,0.174995 0.029,0.175003 0.058,0.205002 0.058,0.173996 0.059,0.176003 0.059,0.173996 0.028,0.204002 0.059,0.175003 0.058,0.175995 0.058,0.174004 0.059,0.174995 0.029,0.175003 0.058,0.205002 0.058,0.173996 0.059,0.176002 0.029,0.173996 0.058,0.175003 0.059,0.176003 0.058,0.173996 0.059,0.176002 0.028,0.173996 0.059,0.174996 0.059,0.146011 0.058,0.175995 0.058,0.174004 0.029,0.174995 0.058,0.175003 0.059,0.175003 0.058,0.145996 0.029,0.176003 0.058,0.173996 0.059,0.146003 0.059,0.174996 0.058,0.175003 0.029,0.146004 0.058,0.174995 0.059,0.175003 0.058,0.145996 0.058,0.174996 0.03,0.146003 0.058,0.175003 0.058,0.144997 0.058,0.175003 0.029,0.147003 0.059,0.144997 0.058,0.175003 0.059,0.145996 0.058,0.145996 0.029,0.175003 0.059,0.146004 0.116,0.292 0.058,0.173996 0.03,0.146003 0.058,0.145996 0.11599,0.292 0.03,0.145005 0.116,0.291999 0.059,0.145996 0.058,0.145997 0.029,0.146003 0.059,0.145005 0.116,0.291999 0.058,0.145996 0.03,0.117005 0.11601,0.292 0.058,0.144996 0.03,0.116997 0.058,0.146004 0.058,0.145004 0.059,0.116997 m -10.32501,-37.771 0.058,0.232994 0.059,0.205006 0.058,0.232998 0.029,0.204002 0.059,0.232998 0.058,0.234001 0.058,0.203999 0.058,0.233001 0.03,0.203995 0.116,0.467003 0.058,0.204002 0.059,0.234001 0.029,0.203999 0.058,0.232998 0.059,0.204002 0.058,0.233998 0.029,0.233001 0.059,0.203999 0.058,0.234001 0.058,0.204002 0.058,0.232998 0.03,0.203999 0.058,0.234001 0.058,0.203999 0.058,0.233001 0.03,0.203999 0.058,0.234001 0.058,0.204002 0.059,0.232998 0.058,0.203999 0.029,0.234001 0.059,0.203995 0.058,0.233005 0.058,0.204003 0.058,0.233997 0.03,0.204002 0.058,0.232998 0.058,0.204003 0.059,0.233997 0.029,0.203995 0.058,0.233005 0.058,0.204003 0.059,0.203998 0.059,0.234001 0.028,0.203999 0.059,0.233002 0.116,0.407993 0.059,0.234005 0.029,0.203999 0.058,0.204002 0.058,0.232998 0.059,0.204998 0.029,0.204002 0.058,0.233002 0.059,0.204998 0.058,0.204002 0.059,0.232998 0.028,0.203999 0.11799,0.408005 0.058,0.234001 0.058,0.203994 0.029,0.204003 0.058,0.205002 0.059,0.202995 0.058,0.234001 0.029,0.204003 0.058,0.204002 0.059,0.203995 0.059,0.204002 0.058,0.205002 0.029,0.232994 0.058,0.204002 0.059,0.204003 0.116,0.407997 0.03,0.204994 0.174,0.612007 0.029,0.204003 0.059,0.203994 0.058,0.205002 0.059,0.204003 0.058,0.204002 0.029,0.203995 0.059,0.204002 0.116,0.408997 0.058,0.175003 0.03,0.204002 0.17399,0.612 0.03,0.203994 0.058,0.174996 0.058,0.205009 M 100.79,29.718002 l 0.028,0.203999 0.059,0.204 0.059,0.205 0.058,0.204001 0.029,0.204 0.058,0.203999 0.059,0.204 0.058,0.204001 0.058,0.205 0.03,0.232999 0.058,0.204001 0.058,0.205 0.058,0.202999 0.059,0.205002 0.029,0.203995 0.058,0.204002 0.059,0.204002 0.058,0.232998 0.029,0.205002 0.059,0.203999 0.058,0.204002 0.058,0.203999 0.058,0.233001 0.03,0.204998 0.11599,0.408001 0.058,0.234001 0.059,0.203999 0.029,0.203999 0.058,0.233001 0.059,0.203999 0.058,0.204002 0.029,0.203999 0.059,0.234001 0.058,0.203998 0.058,0.233002 0.058,0.203999 0.03,0.205002 0.058,0.232997 0.058,0.203999 0.058,0.205002 0.059,0.233002 0.029,0.203994 0.058,0.233002 0.059,0.205002 0.058,0.233002 0.029,0.203998 0.059,0.203999 0.058,0.234001 0.058,0.202999 0.058,0.233997 0.03,0.204003 0.058,0.234001 0.058,0.202999 0.059,0.234001 0.058,0.203999 0.029,0.234001 0.058,0.202999 0.059,0.233997 0.059,0.204003 0.028,0.234001 0.059,0.202999 0.058,0.234001 0.058,0.203999 0.059,0.234001 0.029,0.233002 0.058,0.203994 0.058,0.233006 0.059,0.204998 0.059,0.233002 0.028,0.203998 0.059,0.233002 0.058,0.232998 0.059,0.205002 0.028,0.232997 0.059,0.204003 0.059,0.232998 0.058,0.205002 0.058,0.232997 0.029,0.233002 0.058,0.203999 0.059,0.234001 0.058,0.203998 0.059,0.233002 0.028,0.233998 0.059,0.203998 0.059,0.233002 0.058,0.204002 0.029,0.233998 0.059,0.233001 0.058,0.203999 0.058,0.234001 0.058,0.203999 0.03,0.233001 0.058,0.233002 0.058,0.204998 0.058,0.232998 0.059,0.204002 0.029,0.233002 m -36.079998,-4.024002 0.058,-0.234001 0.059,-0.203999 0.02901,-0.234001 0.058,-0.202999 0.058,-0.234001 0.059,-0.232998 0.059,-0.205002 0.02901,-0.232998 0.05799,-0.204002 0.05801,-0.232998 0.058,-0.205002 0.03,-0.232998 0.058,-0.233002 0.05801,-0.203998 0.05799,-0.234001 0.05901,-0.203999 0.029,-0.233005 0.058,-0.203995 0.05901,-0.234001 0.058,-0.203999 0.059,-0.233002 0.02799,-0.203998 0.059,-0.234001 0.059,-0.203999 0.05801,-0.233005 0.029,-0.203995 0.058,-0.234001 0.058,-0.203999 0.059,-0.233002 0.05801,-0.203998 0.029,-0.234001 0.058,-0.203999 0.059,-0.233005 0.059,-0.203995 0.058,-0.234001 0.029,-0.203999 0.05801,-0.233002 0.059,-0.203998 0.058,-0.205002 0.029,-0.232998 0.05901,-0.204002 0.058,-0.232998 0.058,-0.205002 0.058,-0.202999 0.029,-0.234001 0.059,-0.204003 0.05801,-0.203994 0.059,-0.233002 0.05799,-0.205002 0.02901,-0.203999 0.059,-0.232997 0.058,-0.205002 0.05801,-0.203999 0.029,-0.233002 0.059,-0.203998 0.115998,-0.408001 0.05801,-0.234001 0.03,-0.203999 0.058,-0.204002 0.058,-0.203999 0.059,-0.204998 0.058,-0.233001 0.02901,-0.203999 0.116997,-0.408001 0.058,-0.205002 0.03,-0.203998 0.058,-0.203999 0.05801,-0.233002 0.058,-0.204 0.058,-0.205 0.03,-0.202999 0.058,-0.205 0.05901,-0.204001 0.05799,-0.204002 0.05801,-0.203998 0.029,-0.203999 0.059,-0.205 0.058,-0.204 0.05801,-0.204001 0.03,-0.204 0.05799,-0.203999 0.116005,-0.409 0.05901,-0.174 0.029,-0.205 0.058,-0.204001 0.059,-0.204 0.058,-0.204 0.05901,-0.203999 0.029,-0.176001 0.058,-0.204 0.115998,-0.407999 0.03,-0.204001 0.058,-0.175001 0.05801,-0.203998 0.059,-0.205 M 64.681,68.539001 l 0.05801,-0.203994 0.058,-0.204003 0.058,-0.204002 0.03,-0.204002 0.058,-0.204995 0.05901,-0.233001 0.05799,-0.205002 0.05801,-0.204003 0.029,-0.203994 0.059,-0.204003 0.058,-0.204002 0.05801,-0.204002 0.05799,-0.233994 0.03,-0.204002 0.05801,-0.203995 0.058,-0.204002 0.05901,-0.204003 0.029,-0.234001 0.058,-0.202995 0.05799,-0.205002 0.059,-0.204003 0.059,-0.232997 0.02901,-0.205002 0.058,-0.203999 0.058,-0.203998 0.058,-0.233002 0.059,-0.203999 0.029,-0.204002 0.05801,-0.233997 0.058,-0.204003 0.059,-0.232998 0.029,-0.204002 0.058,-0.204998 0.059,-0.233002 0.05801,-0.204002 0.059,-0.204998 0.028,-0.232998 0.059,-0.204002 0.059,-0.232998 0.05801,-0.205006 0.058,-0.232994 0.029,-0.204002 0.058,-0.203999 0.059,-0.234001 0.05801,-0.203999 0.029,-0.233001 0.05799,-0.203999 0.05901,-0.234005 0.059,-0.203995 0.058,-0.233001 0.02901,-0.203999 0.058,-0.234001 0.059,-0.203999 0.058,-0.233001 0.058,-0.203999 0.03,-0.234005 0.05801,-0.203995 0.058,-0.233001 0.058,-0.203999 0.029,-0.234001 0.059,-0.232998 0.05801,-0.204002 0.059,-0.232998 0.058,-0.205006 0.029,-0.232994 0.059,-0.204002 0.058,-0.233002 0.05801,-0.204998 0.029,-0.232998 0.059,-0.233002 0.058,-0.203998 0.058,-0.233002 0.05901,-0.204998 0.029,-0.233002 0.058,-0.232998 0.058,-0.204002 0.059,-0.234001 0.058,-0.203999 0.02901,-0.232998 0.059,-0.234001 0.05799,-0.204002 0.05801,-0.232998 0.03,-0.204002 0.116005,-0.467 0.058,-0.204002 0.05799,-0.233997 0.03001,-0.203999 0.058,-0.233002 0.05901,-0.232997 0.058,-0.205002 0.058,-0.231999 0.029,-0.205002 0.059,-0.232997 0.058,-0.233002 0.05801,-0.204998 0.03,-0.233006 0.058,-0.203994 0.058,-0.233002 m -10.295997,39.229 0.03,-0.145996 0.058,-0.146011 0.058,-0.145989 0.058,-0.146004 0.03,-0.144996 0.058,-0.176003 0.058,-0.145996 0.059,-0.146004 0.058,-0.145004 0.029,-0.174995 0.116997,-0.292 0.058,-0.175003 0.058,-0.145996 0.03,-0.175003 0.058,-0.145996 0.058,-0.174004 0.05799,-0.145996 0.03,-0.176003 0.05801,-0.145004 0.059,-0.174995 0.058,-0.145996 0.058,-0.175003 0.029,-0.175004 0.059,-0.145996 0.058,-0.175003 0.058,-0.174995 0.058,-0.175003 0.03,-0.146004 0.058,-0.174995 0.058,-0.175003 0.05899,-0.173996 0.029,-0.176003 0.058,-0.175003 0.058,-0.145996 0.059,-0.175003 0.059,-0.174995 0.028,-0.174004 0.059,-0.175995 0.05801,-0.175003 0.058,-0.175003 0.059,-0.174995 0.029,-0.174004 0.058,-0.175995 0.058,-0.204002 0.05901,-0.175003 0.029,-0.173996 0.058,-0.176003 0.059,-0.173996 0.058,-0.176002 0.059,-0.204003 0.028,-0.174995 0.118003,-0.350006 0.058,-0.203995 0.058,-0.175003 0.029,-0.175003 0.058,-0.204002 0.05899,-0.174996 0.05801,-0.205002 0.029,-0.173996 0.058,-0.176002 0.059,-0.203995 0.059,-0.175003 0.058,-0.204002 0.029,-0.173996 0.058,-0.205002 0.059,-0.175003 0.116002,-0.407997 0.03,-0.175003 0.058,-0.203995 0.058,-0.17601 0.058,-0.203995 0.029,-0.202995 0.059,-0.176003 0.058,-0.204002 0.059,-0.203995 0.058,-0.175003 0.029,-0.204002 0.059,-0.203995 0.115997,-0.409004 0.058,-0.173996 0.03,-0.205002 0.115998,-0.408005 0.05901,-0.203995 0.029,-0.204002 0.058,-0.175995 0.116996,-0.408005 0.058,-0.204002 0.03001,-0.204002 0.058,-0.204995 0.058,-0.204002 0.058,-0.202995 0.058,-0.205002 0.03,-0.204003 m -6.707997,21.875 0.058,-0.116996 0.058,-0.146004 0.029,-0.115997 0.058,-0.116997 0.059,-0.146004 0.058,-0.115997 0.029,-0.146011 0.058,-0.11699 0.05901,-0.146003 0.059,-0.115998 0.058,-0.146003 0.029,-0.116997 0.058,-0.144997 0.059,-0.147003 0.058,-0.116005 0.05801,-0.145996 0.03,-0.145996 0.058,-0.116005 0.058,-0.145996 0.058,-0.146011 0.029,-0.145989 0.05899,-0.146004 0.05801,-0.144996 0.117001,-0.292 0.029,-0.146004 0.059,-0.145996 0.058,-0.146004 0.058,-0.144996 0.058,-0.146004" /><path
               id="path124"
               style="fill:#231f20;fill-opacity:1;fill-rule:nonzero;stroke:none"
               d="M 188.05501,53.722004 V 49.756001" /><path
               id="path126"
               style="fill:none;stroke:#231f20;stroke-width:0.80000001;stroke-linecap:butt;stroke-linejoin:miter;stroke-miterlimit:4;stroke-dasharray:none;stroke-opacity:1"
               d="M 188.05501,53.722004 V 49.756001" /><text
               id="text130"
               style="font-variant:normal;font-weight:normal;font-size:8.36849976px;font-family:CMR12;-inkscape-font-specification:CMR12;writing-mode:lr-tb;fill:#231f20;fill-opacity:1;fill-rule:nonzero;stroke:none"
               transform="matrix(1,0,0,-1,82.1147,43.117599)"><tspan
                 id="tspan128"
                 y="0"
                 x="0">5</tspan></text>
<text
               id="text134"
               style="font-variant:normal;font-weight:normal;font-size:8.36849976px;font-family:CMR12;-inkscape-font-specification:CMR12;writing-mode:lr-tb;fill:#231f20;fill-opacity:1;fill-rule:nonzero;stroke:none"
               transform="matrix(1,0,0,-1,105.97664,42.650639)"><tspan
                 id="tspan132"
                 y="0"
                 x="0 4.0921965">10</tspan></text>
<text
               id="text138"
               style="font-variant:normal;font-weight:normal;font-size:8.36849976px;font-family:CMR12;-inkscape-font-specification:CMR12;writing-mode:lr-tb;fill:#231f20;fill-opacity:1;fill-rule:nonzero;stroke:none"
               transform="matrix(1,0,0,-1,132.30142,42.884121)"><tspan
                 id="tspan136"
                 y="0"
                 x="0 4.0921965">15</tspan></text>
<text
               id="text142"
               style="font-variant:normal;font-weight:normal;font-size:8.36849976px;font-family:CMR12;-inkscape-font-specification:CMR12;writing-mode:lr-tb;fill:#231f20;fill-opacity:1;fill-rule:nonzero;stroke:none"
               transform="matrix(1,0,0,-1,158.62704,42.650639)"><tspan
                 id="tspan140"
                 y="0"
                 x="0 4.0921965">20</tspan></text>
<text
               id="text146"
               style="font-variant:normal;font-weight:normal;font-size:8.36849976px;font-family:CMR12;-inkscape-font-specification:CMR12;writing-mode:lr-tb;fill:#231f20;fill-opacity:1;fill-rule:nonzero;stroke:none"
               transform="matrix(1,0,0,-1,184.4857,42.650639)"><tspan
                 id="tspan144"
                 y="0"
                 x="0 4.0921965">25</tspan></text>
<text
               id="text150"
               style="font-variant:normal;font-weight:normal;font-size:8.36849976px;font-family:CMR12;-inkscape-font-specification:CMR12;writing-mode:lr-tb;fill:#231f20;fill-opacity:1;fill-rule:nonzero;stroke:none"
               transform="matrix(1,0,0,-1,210.57785,42.884121)"><tspan
                 id="tspan148"
                 y="0"
                 x="0 4.0921965">30</tspan></text>
<path
               id="path152"
               style="fill:none;stroke:#231f20;stroke-width:0.80000001;stroke-linecap:butt;stroke-linejoin:miter;stroke-miterlimit:4;stroke-dasharray:3, 3, 3, 3, 3, 3;stroke-dashoffset:0;stroke-opacity:1"
               d="M 57.739002,99.339005 H 213.13901" /><text
               id="text156"
               style="font-variant:normal;font-weight:normal;font-size:11.95500088px;font-family:CMR12;-inkscape-font-specification:CMR12;writing-mode:lr-tb;fill:#231f20;fill-opacity:1;fill-rule:nonzero;stroke:none"
               transform="matrix(1,0,0,-1,0,90.500397)"><tspan
                 id="tspan154"
                 y="0"
                 x="0 4.5429006 14.286226 19.486652 24.029552 28.572453 33.772877 38.387508">(metres)</tspan></text>
<text
               id="text160"
               style="font-variant:normal;font-weight:normal;font-size:11.95500088px;font-family:CMR12;-inkscape-font-specification:CMR12;writing-mode:lr-tb;fill:#231f20;fill-opacity:1;fill-rule:nonzero;stroke:none"
               transform="matrix(1,0,0,-1,266.99942,43.500507)"><tspan
                 id="tspan158"
                 y="0"
                 x="0 4.5429006 11.034466 16.880461 23.372026 27.914927 32.529556">(hours)</tspan></text>
</g></g></g></g></g></svg>