<?xml version="1.0" encoding="UTF-8" standalone="no"?>
<svg
   xmlns:dc="http://purl.org/dc/elements/1.1/"
   xmlns:cc="http://creativecommons.org/ns#"
   xmlns:rdf="http://www.w3.org/1999/02/22-rdf-syntax-ns#"
   xmlns:svg="http://www.w3.org/2000/svg"
   xmlns="http://www.w3.org/2000/svg"
   viewBox="0 0 334.66666 245.33333"
   height="245.33333"
   width="334.66666"
   xml:space="preserve"
   id="svg2"
   version="1.1"><metadata
     id="metadata8"><rdf:RDF><cc:Work
         rdf:about=""><dc:format>image/svg+xml</dc:format><dc:type
           rdf:resource="http://purl.org/dc/dcmitype/StillImage" /></cc:Work></rdf:RDF></metadata><defs
     id="defs6"><clipPath
       id="clipPath24"
       clipPathUnits="userSpaceOnUse"><path
         id="path22"
         d="M 0,0 H 251 V 184 H 0 Z" /></clipPath><clipPath
       id="clipPath40"
       clipPathUnits="userSpaceOnUse"><path
         id="path38"
         d="M 0,0 H 250.01701 V 183.494 H 0 Z" /></clipPath></defs><g
     transform="matrix(1.3333333,0,0,-1.3333333,0,245.33333)"
     id="g10"><g
       id="g12" /><g
       id="g14" /><g
       id="g16"><g
         id="g18"><g
           clip-path="url(#clipPath24)"
           id="g20"><g
             id="g26" /><g
             id="g28"><path
               id="path30"
               style="fill:none;stroke:#231f20;stroke-width:0.5;stroke-linecap:butt;stroke-linejoin:round;stroke-miterlimit:10;stroke-dasharray:none;stroke-opacity:1"
               d="m 106.19701,14.812 h 2.69999 m -1.35,1.348 v -2.699 m 94.46101,1.351 h 2.7 M 203.36,16.16 V 13.461 M 9.9160004,50.268002 H 12.616 m -1.349999,1.351001 v -2.701 M 9.9160004,103.06901 H 12.616 M 11.266001,104.42 v -2.701 M 9.9160004,155.90701 H 12.616 m -1.349999,1.34999 v -2.69999" /><path
               id="path32"
               style="fill:#231f20;fill-opacity:1;fill-rule:nonzero;stroke:none"
               d="m 235.464,16.685001 c -2.47799,0.748999 -4.08999,1.439 -6.08099,2.237 v -7.566 c 0.713,0.339 3.603,1.488999 6.08099,2.238 2.65502,0.802 5.06301,1.349999 6.62201,1.545998 -1.559,0.195002 -3.96699,0.744002 -6.62201,1.545002 z M 12.074,14.812 H 231.48401 M 10.159,176.79301 c -0.7490002,-2.481 -1.4389997,-4.09301 -2.2369996,-6.081 h 7.5660006 c -0.338001,0.71099 -1.489,3.6 -2.237001,6.081 -0.802,2.654 -1.350999,5.06 -1.545999,6.622 -0.196,-1.562 -0.744001,-3.968 -1.546001,-6.622 z M 11.696,14.812 V 173.25" /></g><g
             id="g34"><g
               clip-path="url(#clipPath40)"
               id="g36"><path
                 id="path42"
                 style="fill:none;stroke:#231f20;stroke-width:1;stroke-linecap:butt;stroke-linejoin:miter;stroke-miterlimit:4;stroke-dasharray:none;stroke-opacity:1"
                 d="m 235.464,16.685001 c -2.47799,0.748999 -4.08999,1.439 -6.08099,2.237 v -7.566 c 0.713,0.339 3.603,1.488999 6.08099,2.238 2.65502,0.802 5.06301,1.349999 6.62201,1.545998 -1.559,0.195002 -3.96699,0.744002 -6.62201,1.545002 z M 12.074,14.812 H 231.48401 M 10.159,176.79301 c -0.7490002,-2.481 -1.4389997,-4.09301 -2.2369996,-6.081 h 7.5660006 c -0.338001,0.71099 -1.489,3.6 -2.237001,6.081 -0.802,2.654 -1.350999,5.06 -1.545999,6.622 -0.196,-1.562 -0.744001,-3.968 -1.546001,-6.622 z M 11.696,14.812 V 173.25" /></g></g><g
             id="g44"><path
               id="path46"
               style="fill:none;stroke:#231f20;stroke-width:0.5;stroke-linecap:butt;stroke-linejoin:round;stroke-miterlimit:10;stroke-dasharray:none;stroke-opacity:1"
               d="m 127.45901,116.662 0.788,-2.587 0.75,-2.625 0.78799,-2.625 0.75,-2.625 0.75,-2.663 0.78701,-2.66199 L 132.821,98.25 133.61,95.588005 134.36,93 l 0.787,-2.624992 0.75,-2.550003 0.78701,-2.513001 0.75,-2.474998 0.751,-2.438004 1.53699,-4.687996 0.787,-2.25 0.74901,-2.176002 0.789,-2.059998 0.75,-2.025001 0.78699,-1.913002 0.75,-1.8 0.75,-1.725002 1.539,-3.149998 0.787,-1.389 0.75,-1.273006 0.78701,-1.163994 0.749,-1.049 0.78899,-0.901001 0.75,-0.786998 0.75,-0.675003 0.787,-0.524998 0.74901,-0.411999 0.788,-0.263 0.75,-0.150002 h 0.78799 l 0.75,0.150002 0.78801,0.263 0.748,0.375 0.752,0.524998 0.787,0.674999 0.75,0.787003 0.787,0.900997 0.749,1.049003 0.789,1.161999 0.75,1.276001 0.78799,1.388001 0.75,1.5 0.75,1.611999 0.78601,1.722996 0.752,1.801006 0.78699,1.912995 0.75,1.987999 0.787,2.099006 0.74901,2.175995 0.788,2.212006 0.75,2.324997 0.75,2.361 0.78801,2.440002 0.75,2.474999 0.78599,2.512001 0.75198,2.587997 0.78702,2.586998 0.75,2.625 0.787,2.625 0.75,2.624999 0.75,2.663 0.788,2.66201 0.75,2.625 0.78798,2.663 0.75,2.587 0.78602,2.58799 0.752,2.54901 0.75,2.513 0.78701,2.43799 0.75,2.4 0.78599,2.36201 0.75099,2.25 0.78701,2.213 0.75,2.13699 0.78801,2.062 0.75,1.951 0.75,1.875 0.78799,1.76201 0.75,1.65 0.787,1.57499 0.75,1.463 0.786,1.31201 0.751,1.23799 0.788,1.08701 0.75,1.013 0.75,0.824 0.78799,0.75 0.75,0.601 0.78801,0.45 0.75,0.337 0.78699,0.225 0.75,0.075 M 51.559002,57.223003 l 0.788002,-1.273006 0.75,-1.163994 0.786999,-1.049 0.75,-0.901001 0.787998,-0.824001 0.75,-0.638 0.787002,-0.524998 0.75,-0.411999 0.75,-0.263 0.786999,-0.150002 h 0.75 l 0.788002,0.150002 0.75,0.263 0.786999,0.411999 0.75,0.524998 0.787998,0.638 0.75,0.787003 0.75,0.937999 0.787003,1.012001 0.75,1.161999 0.788002,1.276001 0.75,1.388001 0.787994,1.536998 0.75,1.611 0.787003,1.686997 0.75,1.839001 0.75,1.912002 0.788002,1.987999 0.75,2.099999 0.787002,2.138 0.75,2.25 0.786995,2.324005 0.75,2.363999 0.788002,2.436996 0.75,2.475006 0.75,2.512993 0.787003,2.550003 0.75,2.625 0.787994,2.586998 0.75,2.663002 0.787003,2.624997 1.5,5.32501 0.788002,2.62499 0.75,2.662 0.788002,2.588 0.75,2.58701 0.786995,2.55 0.75,2.475 0.788002,2.475 0.75,2.4 0.75,2.325 0.787002,2.28699 0.75,2.21301 0.786995,2.13799 0.75,2.024 0.788002,1.98901 0.75,1.83699 0.787003,1.76201 0.75,1.68799 0.75,1.57501 0.787994,1.42499 0.75,1.34901 0.787999,1.20099 0.75,1.125 0.78701,0.97501 0.75,0.862 0.788,0.712 0.75,0.601 0.75,0.44899 0.78798,0.33801 0.74901,0.225 0.788,0.075 0.75,-0.075 0.78701,-0.18801 0.75,-0.33699 0.789,-0.487 0.74899,-0.563 0.75,-0.75 0.788,-0.825 0.75,-0.975 0.78801,-1.125 0.749,-1.2 0.788,-1.35001 0.75,-1.425 0.78699,-1.575 0.75,-1.64999 0.75,-1.76201 0.78701,-1.875 0.75,-1.95 0.788,-2.063 0.75,-2.09999 0.78799,-2.21201 0.749,-2.28799 0.788,-2.32501 0.75,-2.4 0.75,-2.475 0.78701,-2.47399 0.75,-2.55101 m -118.0500096,38.40001 0.7869996,0.3 0.75,0.225 0.75,0.075 0.788,-0.075 0.75,-0.225 0.787001,-0.3 0.75,-0.487 0.788,-0.601 0.749999,-0.712 0.788,-0.862 0.75,-0.97501 0.75,-1.08799 0.787001,-1.238 0.75,-1.31201 0.788,-1.46199 0.75,-1.57501 0.787001,-1.65099 0.75,-1.762 0.786998,-1.874 0.75,-1.951 0.75,-2.06201 0.788,-2.101 0.75,-2.21199 0.787001,-2.28801 0.75,-2.32399 0.788,-2.4 1.5,-4.95001 0.787001,-2.54999 0.749998,-2.58801 0.788002,-2.625 0.75,-2.625 0.787998,-2.625 0.75,-2.662 0.787003,-2.66299 0.75,-2.625004 0.75,-2.662011 0.787998,-2.58699 0.75,-2.625999 0.787002,-2.549004 0.75,-2.514 0.786999,-2.474998 0.75,-2.436997 0.787998,-2.363006 0.75,-2.324997 0.75,-2.25 0.787003,-2.175003 0.75,-2.061997 0.787998,-2.026001 0.75,-1.912002 0.787003,-1.799004 0.75,-1.726994 0.787998,-1.611 0.75,-1.5 0.75,-1.389" /><path
               id="path48"
               style="fill:none;stroke:#231f20;stroke-width:0.5;stroke-linecap:butt;stroke-linejoin:round;stroke-miterlimit:10;stroke-dasharray:3, 3, 3, 3, 3, 3;stroke-dashoffset:0;stroke-opacity:1"
               d="M 12.266001,102.91901 H 197.76501" /><text
               id="text52"
               style="font-variant:normal;font-weight:normal;font-size:11.95500088px;font-family:CMMI12;-inkscape-font-specification:CMMI12;writing-mode:lr-tb;fill:#231f20;fill-opacity:1;fill-rule:nonzero;stroke:none"
               transform="matrix(1,0,0,-1,245.79701,13.923)"><tspan
                 id="tspan50"
                 y="0"
                 x="0">t</tspan></text>
<text
               id="text56"
               style="font-variant:normal;font-weight:normal;font-size:11.95500088px;font-family:CMR12;-inkscape-font-specification:CMR12;writing-mode:lr-tb;fill:#231f20;fill-opacity:1;fill-rule:nonzero;stroke:none"
               transform="matrix(1,0,0,-1,4.2450347,3.000912)"><tspan
                 id="tspan54"
                 y="0"
                 x="0">0</tspan></text>
<text
               id="text60"
               style="font-variant:normal;font-weight:normal;font-size:11.95500088px;font-family:CMR12;-inkscape-font-specification:CMR12;writing-mode:lr-tb;fill:#231f20;fill-opacity:1;fill-rule:nonzero;stroke:none"
               transform="matrix(1,0,0,-1,-1.86187e-4,49.001366)"><tspan
                 id="tspan58"
                 y="0"
                 x="0">2</tspan></text>
<text
               id="text64"
               style="font-variant:normal;font-weight:normal;font-size:11.95500088px;font-family:CMR12;-inkscape-font-specification:CMR12;writing-mode:lr-tb;fill:#231f20;fill-opacity:1;fill-rule:nonzero;stroke:none"
               transform="matrix(1,0,0,-1,0.75417429,98.001328)"><tspan
                 id="tspan62"
                 y="0"
                 x="0">5</tspan></text>
<text
               id="text68"
               style="font-variant:normal;font-weight:normal;font-size:11.95500088px;font-family:CMR12;-inkscape-font-specification:CMR12;writing-mode:lr-tb;fill:#231f20;fill-opacity:1;fill-rule:nonzero;stroke:none"
               transform="matrix(1,0,0,-1,0.5090968,153.0015)"><tspan
                 id="tspan66"
                 y="0"
                 x="0">8</tspan></text>
<text
               id="text72"
               style="font-variant:normal;font-weight:normal;font-size:11.95500088px;font-family:CMR12;-inkscape-font-specification:CMR12;writing-mode:lr-tb;fill:#231f20;fill-opacity:1;fill-rule:nonzero;stroke:none"
               transform="matrix(1,0,0,-1,96.26387,3.0009031)"><tspan
                 id="tspan70"
                 y="0"
                 x="0 5.8579507">12</tspan></text>
<text
               id="text76"
               style="font-variant:normal;font-weight:normal;font-size:11.95500088px;font-family:CMMI12;-inkscape-font-specification:CMMI12;writing-mode:lr-tb;fill:#231f20;fill-opacity:1;fill-rule:nonzero;stroke:none"
               transform="matrix(1,0,0,-1,107.97021,3.0009031)"><tspan
                 id="tspan74"
                 y="0"
                 x="0">.</tspan></text>
<text
               id="text80"
               style="font-variant:normal;font-weight:normal;font-size:11.95500088px;font-family:CMR12;-inkscape-font-specification:CMR12;writing-mode:lr-tb;fill:#231f20;fill-opacity:1;fill-rule:nonzero;stroke:none"
               transform="matrix(1,0,0,-1,111.22077,3.0009031)"><tspan
                 id="tspan78"
                 y="0"
                 x="0">5</tspan></text>
<text
               id="text84"
               style="font-variant:normal;font-weight:normal;font-size:11.95500088px;font-family:CMR12;-inkscape-font-specification:CMR12;writing-mode:lr-tb;fill:#231f20;fill-opacity:1;fill-rule:nonzero;stroke:none"
               transform="matrix(1,0,0,-1,198.98123,3.0009031)"><tspan
                 id="tspan82"
                 y="0"
                 x="0">2</tspan></text>
<text
               id="text88"
               style="font-variant:normal;font-weight:normal;font-size:11.95500088px;font-family:CMR12;-inkscape-font-specification:CMR12;writing-mode:lr-tb;fill:#231f20;fill-opacity:1;fill-rule:nonzero;stroke:none"
               transform="matrix(1,0,0,-1,204.83919,3.0009031)"><tspan
                 id="tspan86"
                 y="0"
                 x="0">5</tspan></text>
</g></g></g></g></g></svg>