<?xml version="1.0" encoding="UTF-8" standalone="no"?>
<svg
   xmlns:dc="http://purl.org/dc/elements/1.1/"
   xmlns:cc="http://creativecommons.org/ns#"
   xmlns:rdf="http://www.w3.org/1999/02/22-rdf-syntax-ns#"
   xmlns:svg="http://www.w3.org/2000/svg"
   xmlns="http://www.w3.org/2000/svg"
   viewBox="0 0 349.24933 112.58667"
   height="112.58667"
   width="349.24933"
   xml:space="preserve"
   id="svg2"
   version="1.1"><metadata
     id="metadata8"><rdf:RDF><cc:Work
         rdf:about=""><dc:format>image/svg+xml</dc:format><dc:type
           rdf:resource="http://purl.org/dc/dcmitype/StillImage" /></cc:Work></rdf:RDF></metadata><defs
     id="defs6" /><g
     transform="matrix(1.3333333,0,0,-1.3333333,0,112.58667)"
     id="g10"><path
       id="path12"
       style="fill:#ffffff;fill-opacity:1;fill-rule:nonzero;stroke:none"
       d="M 163.22,42.22 C 163.22,19.178 144.541,0.5 121.5,0.5 98.459,0.5 79.78,19.178 79.78,42.22 c 0,23.041 18.679,41.72 41.72,41.72 23.041,0 41.72,-18.679 41.72,-41.72" /><path
       id="path14"
       style="fill:none;stroke:#231f20;stroke-width:1;stroke-linecap:butt;stroke-linejoin:miter;stroke-miterlimit:4;stroke-dasharray:none;stroke-opacity:1"
       d="M 163.22,42.22 C 163.22,19.178 144.541,0.5 121.5,0.5 98.459,0.5 79.78,19.178 79.78,42.22 c 0,23.041 18.679,41.72 41.72,41.72 23.041,0 41.72,-18.679 41.72,-41.72 z" /><path
       id="path16"
       style="fill:#ffffff;fill-opacity:1;fill-rule:nonzero;stroke:none"
       d="m 102.6,42.08 c 0,-10.516 8.525,-19.04 19.04,-19.04 10.516,0 19.04,8.524 19.04,19.04 0,10.515 -8.524,19.04 -19.04,19.04 -10.515,0 -19.04,-8.525 -19.04,-19.04" /><path
       id="path18"
       style="fill:none;stroke:#231f20;stroke-width:1;stroke-linecap:butt;stroke-linejoin:miter;stroke-miterlimit:4;stroke-dasharray:3, 3, 3, 3, 3, 3;stroke-dashoffset:0;stroke-opacity:1"
       d="m 102.6,42.08 c 0,-10.516 8.525,-19.04 19.04,-19.04 10.516,0 19.04,8.524 19.04,19.04 0,10.515 -8.524,19.04 -19.04,19.04 -10.515,0 -19.04,-8.525 -19.04,-19.04 z" /><path
       id="path20"
       style="fill:#ffffff;fill-opacity:1;fill-rule:nonzero;stroke:none"
       d="m 140.68,42.08 c 0,-2.513 -8.587,-4.55 -19.18,-4.55 -10.593,0 -19.18,2.037 -19.18,4.55" /><path
       id="path22"
       style="fill:none;stroke:#231f20;stroke-width:0.60000002;stroke-linecap:butt;stroke-linejoin:miter;stroke-miterlimit:4;stroke-dasharray:3, 3, 3, 3, 3, 3;stroke-dashoffset:0;stroke-opacity:1"
       d="m 140.68,42.08 c 0,-2.513 -8.587,-4.55 -19.18,-4.55 -10.593,0 -19.18,2.037 -19.18,4.55" /><path
       id="path24"
       style="fill:none;stroke:#231f20;stroke-width:1;stroke-linecap:butt;stroke-linejoin:miter;stroke-miterlimit:4;stroke-dasharray:none;stroke-opacity:1"
       d="m 125.682,50.909 2.118,4.47 m -15.709,-8.465 9.409,-4.834 1.721,3.631 m -27.311,9.639 9.692,-4.98" /><path
       id="path26"
       style="fill:#231f20;fill-opacity:1;fill-rule:nonzero;stroke:none"
       d="m 127.848,56.821 c -0.65,-0.717 -1.14,-1.151 -1.727,-1.695 l 2.553,-1.209 c -0.001,0.294 0.073,1.453 0.217,2.41 0.153,1.023 0.353,1.923 0.536,2.481 -0.316,-0.495 -0.885,-1.22 -1.579,-1.987" /><path
       id="path28"
       style="fill:#231f20;fill-opacity:1;fill-rule:nonzero;stroke:none"
       d="m 86.721,59.444 c 0.696,-0.672 1.114,-1.176 1.638,-1.781 l 1.291,2.513 c -0.294,0.009 -1.45,0.12 -2.401,0.294 -1.019,0.187 -1.911,0.415 -2.463,0.616 0.485,-0.331 1.191,-0.923 1.935,-1.642" /><path
       id="path30"
       style="fill:#231f20;fill-opacity:1;fill-rule:nonzero;stroke:none"
       d="M 59.5,60.72 80,48.72" /><path
       id="path32"
       style="fill:none;stroke:#231f20;stroke-width:0.80000001;stroke-linecap:butt;stroke-linejoin:miter;stroke-miterlimit:4;stroke-dasharray:none;stroke-opacity:1"
       d="M 59.5,60.72 80,48.72" /><path
       id="path34"
       style="fill:#231f20;fill-opacity:1;fill-rule:nonzero;stroke:none"
       d="M 162.38,21.22 138.86,34.379" /><path
       id="path36"
       style="fill:none;stroke:#231f20;stroke-width:0.80000001;stroke-linecap:butt;stroke-linejoin:miter;stroke-miterlimit:4;stroke-dasharray:none;stroke-opacity:1"
       d="M 162.38,21.22 138.86,34.379" /><path
       id="path38"
       style="fill:none;stroke:#231f20;stroke-width:1;stroke-linecap:butt;stroke-linejoin:miter;stroke-miterlimit:4;stroke-dasharray:none;stroke-opacity:1"
       d="m 86.16,60.35 9.692,-4.98" /><text
       id="text44"
       style="font-variant:normal;font-weight:normal;font-size:11.95499992px;font-family:CMR12;-inkscape-font-specification:CMR12;writing-mode:lr-tb;fill:#231f20;fill-opacity:1;fill-rule:nonzero;stroke:none"
       transform="matrix(1,0,0,-1,0,61.9526)"><tspan
         id="tspan40"
         y="0"
         x="0 8.4521847 14.94375 20.789745 25.332645 31.17864 36.379066 46.82415 51.438778 57.930344 64.421906 69.62233 74.16523">Chargedsphere</tspan><tspan
         id="tspan42"
         y="44.500095"
         x="164.2103 170.70186 177.19342 183.68498 188.88541 193.42831 196.66812 201.86855 207.71454 214.93655 219.55118 226.04276 230.58565 234.16019 240.0062 245.20662">Sphericalsurface</tspan></text>
<text
       id="text48"
       style="font-style:italic;font-variant:normal;font-weight:normal;font-size:11.95499992px;font-family:CMMI12;-inkscape-font-specification:CMMI12;writing-mode:lr-tb;fill:#231f20;fill-opacity:1;fill-rule:nonzero;stroke:none"
       transform="matrix(1,0,0,-1,254.34621,17.452503)"><tspan
         id="tspan46"
         y="0"
         x="0">S</tspan></text>
<text
       id="text56"
       style="font-style:italic;font-variant:normal;font-weight:normal;font-size:6.6947999px;font-family:CMMI12;-inkscape-font-specification:CMMI12;writing-mode:lr-tb;fill:#231f20;fill-opacity:1;fill-rule:nonzero;stroke:none"
       transform="matrix(1,0,0,-1,106.99,47.1406)"><tspan
         id="tspan50"
         y="0"
         x="0">a</tspan><tspan
         id="tspan52"
         y="8.1201229"
         x="15.426828">O</tspan><tspan
         id="tspan54"
         y="-0.39901009"
         x="17.029564">r</tspan></text>
</g></svg>