<?xml version="1.0" encoding="UTF-8" standalone="no"?>
<svg
   xmlns:dc="http://purl.org/dc/elements/1.1/"
   xmlns:cc="http://creativecommons.org/ns#"
   xmlns:rdf="http://www.w3.org/1999/02/22-rdf-syntax-ns#"
   xmlns:svg="http://www.w3.org/2000/svg"
   xmlns="http://www.w3.org/2000/svg"
   viewBox="0 0 264 114.66667"
   height="114.66667"
   width="264"
   xml:space="preserve"
   id="svg2"
   version="1.1"><metadata
     id="metadata8"><rdf:RDF><cc:Work
         rdf:about=""><dc:format>image/svg+xml</dc:format><dc:type
           rdf:resource="http://purl.org/dc/dcmitype/StillImage" /></cc:Work></rdf:RDF></metadata><defs
     id="defs6"><clipPath
       id="clipPath24"
       clipPathUnits="userSpaceOnUse"><path
         id="path22"
         d="M 0,0 H 198 V 86 H 0 Z" /></clipPath><clipPath
       id="clipPath42"
       clipPathUnits="userSpaceOnUse"><path
         id="path40"
         d="M 0,0 H 197.88901 V 85.039001 H 0 Z" /></clipPath></defs><g
     transform="matrix(1.3333333,0,0,-1.3333333,0,114.66667)"
     id="g10"><g
       id="g12" /><g
       id="g14" /><g
       id="g16"><g
         id="g18"><g
           clip-path="url(#clipPath24)"
           id="g20"><g
             id="g26" /><g
             id="g28"><path
               id="path30"
               style="fill:#a7a5a6;fill-opacity:1;fill-rule:nonzero;stroke:none"
               d="m 81.835007,13.596001 5.939995,0.72 4.141006,0.54 4.317993,0.9 4.501009,1.44 3.6,1.619999 3.60099,1.620001 3.6,2.16 4.139,2.7 3.96,3.420001 4.32101,4.500001 3.779,5.219998 3.24,5.220001 2.16,4.68 2.16,5.939999 1.26,6.661003 0.901,8.098999 V 13.236001 l -55.621003,0.36" /><path
               id="path32"
               style="fill:none;stroke:#cac9c9;stroke-width:1;stroke-linecap:butt;stroke-linejoin:miter;stroke-miterlimit:4;stroke-dasharray:none;stroke-opacity:1"
               d="m 81.835007,13.596001 5.939995,0.72 4.141006,0.54 4.317993,0.9 4.501009,1.44 3.6,1.619999 3.60099,1.620001 3.6,2.16 4.139,2.7 3.96,3.420001 4.32101,4.500001 3.779,5.219998 3.24,5.220001 2.16,4.68 2.16,5.939999 1.26,6.661003 0.901,8.098999 V 13.236001 Z" /><path
               id="path34"
               style="fill:#ffffff;fill-opacity:1;fill-rule:nonzero;stroke:none"
               d="M 0,13.113001 H 182.88101" /></g><g
             id="g36"><g
               clip-path="url(#clipPath42)"
               id="g38"><path
                 id="path44"
                 style="fill:none;stroke:#231f20;stroke-width:1;stroke-linecap:butt;stroke-linejoin:miter;stroke-miterlimit:4;stroke-dasharray:none;stroke-opacity:1"
                 d="M 0,13.113001 H 182.88101" /></g></g><g
             id="g46"><path
               id="path48"
               style="fill:#231f20;fill-opacity:1;fill-rule:nonzero;stroke:none"
               d="m 185.43201,14.219001 c -1.78701,0.54 -2.94699,1.036 -4.379,1.611999 v -5.448999 c 0.51399,0.243999 2.59199,1.073 4.379,1.611 1.91,0.578 3.64399,0.973 4.767,1.113999 -1.12301,0.141001 -2.857,0.536001 -4.767,1.112001" /><path
               id="path50"
               style="fill:#ffffff;fill-opacity:1;fill-rule:nonzero;stroke:none"
               d="M 80.619003,8.8690004 V 73.549995" /><path
               id="path52"
               style="fill:none;stroke:#231f20;stroke-width:1;stroke-linecap:butt;stroke-linejoin:miter;stroke-miterlimit:4;stroke-dasharray:none;stroke-opacity:1"
               d="M 80.619003,8.8690004 V 73.549995" /><path
               id="path54"
               style="fill:#231f20;fill-opacity:1;fill-rule:nonzero;stroke:none"
               d="m 79.512001,76.102005 c -0.538994,-1.787003 -1.034996,-2.946999 -1.611,-4.378998 h 5.448997 c -0.244995,0.511994 -1.073997,2.591995 -1.610992,4.378998 -0.578003,1.909996 -0.973,3.642998 -1.113998,4.766998 -0.142006,-1.124 -0.536003,-2.857002 -1.113007,-4.766998" /><text
               id="text58"
               style="font-variant:normal;font-weight:normal;font-size:10.75949955px;font-family:CMMI12;-inkscape-font-specification:CMMI12;writing-mode:lr-tb;fill:#231f20;fill-opacity:1;fill-rule:nonzero;stroke:none"
               transform="matrix(1,0,0,-1,191.90601,8.6323996)"><tspan
                 id="tspan56"
                 y="0"
                 x="0">x</tspan></text>
<text
               id="text62"
               style="font-variant:normal;font-weight:normal;font-size:10.75949955px;font-family:CMMI12;-inkscape-font-specification:CMMI12;writing-mode:lr-tb;fill:#231f20;fill-opacity:1;fill-rule:nonzero;stroke:none"
               transform="matrix(1,0,0,-1,83.853737,76.969208)"><tspan
                 id="tspan60"
                 y="0"
                 x="0">y</tspan></text>
<path
               id="path64"
               style="fill:none;stroke:#231f20;stroke-width:1;stroke-linecap:butt;stroke-linejoin:miter;stroke-miterlimit:4;stroke-dasharray:none;stroke-opacity:1"
               d="m 137.09601,69.576004 c 0,-30.817001 -24.983,-55.800003 -55.801004,-55.800003" /><path
               id="path66"
               style="fill:none;stroke:#231f20;stroke-width:1;stroke-linecap:butt;stroke-linejoin:miter;stroke-miterlimit:4;stroke-dasharray:3, 3, 3, 3, 3, 3;stroke-dashoffset:0;stroke-opacity:1"
               d="M 137.45601,69.396004 V 13.956" /><text
               id="text70"
               style="font-variant:normal;font-weight:normal;font-size:11.95500088px;font-family:CMR12;-inkscape-font-specification:CMR12;writing-mode:lr-tb;fill:#231f20;fill-opacity:1;fill-rule:nonzero;stroke:none"
               transform="matrix(1,0,0,-1,134.188,3.0010002)"><tspan
                 id="tspan68"
                 y="0"
                 x="0">1</tspan></text>
<text
               id="text74"
               style="font-variant:normal;font-weight:normal;font-size:11.95500088px;font-family:CMR12;-inkscape-font-specification:CMR12;writing-mode:lr-tb;fill:#231f20;fill-opacity:1;fill-rule:nonzero;stroke:none"
               transform="matrix(1,0,0,-1,72.084167,61.000687)"><tspan
                 id="tspan72"
                 y="0"
                 x="0">1</tspan></text>
<text
               id="text78"
               style="font-variant:normal;font-weight:normal;font-size:10.75949955px;font-family:CMMI12;-inkscape-font-specification:CMMI12;writing-mode:lr-tb;fill:#231f20;fill-opacity:1;fill-rule:nonzero;stroke:none"
               transform="matrix(1,0,0,-1,122.854,20.469299)"><tspan
                 id="tspan76"
                 y="0"
                 x="0">S</tspan></text>
</g></g></g></g></g></svg>