<?xml version="1.0" encoding="UTF-8" standalone="no"?>
<svg
   xmlns:dc="http://purl.org/dc/elements/1.1/"
   xmlns:cc="http://creativecommons.org/ns#"
   xmlns:rdf="http://www.w3.org/1999/02/22-rdf-syntax-ns#"
   xmlns:svg="http://www.w3.org/2000/svg"
   xmlns="http://www.w3.org/2000/svg"
   viewBox="0 0 474.66666 232"
   height="232"
   width="474.66666"
   xml:space="preserve"
   id="svg2"
   version="1.1"><metadata
     id="metadata8"><rdf:RDF><cc:Work
         rdf:about=""><dc:format>image/svg+xml</dc:format><dc:type
           rdf:resource="http://purl.org/dc/dcmitype/StillImage" /></cc:Work></rdf:RDF></metadata><defs
     id="defs6"><clipPath
       id="clipPath24"
       clipPathUnits="userSpaceOnUse"><path
         id="path22"
         d="M 0,0 H 356 V 174 H 0 Z" /></clipPath><clipPath
       id="clipPath94"
       clipPathUnits="userSpaceOnUse"><path
         id="path92"
         d="M 0.06,0.05999756 H 355.69602 V 173.70401 H 0.06 Z" /></clipPath><clipPath
       id="clipPath120"
       clipPathUnits="userSpaceOnUse"><path
         id="path118"
         d="M 0.06,0.05999756 H 355.69602 V 173.70401 H 0.06 Z" /></clipPath></defs><g
     transform="matrix(1.3333333,0,0,-1.3333333,0,232)"
     id="g10"><g
       id="g12" /><g
       id="g14" /><g
       id="g16"><g
         id="g18"><g
           clip-path="url(#clipPath24)"
           id="g20"><g
             id="g26" /><g
             id="g28"><path
               id="path30"
               style="fill:#ffffff;fill-opacity:1;fill-rule:nonzero;stroke:none"
               d="m 113.5,56.716003 h 58.61801" /><path
               id="path32"
               style="fill:none;stroke:#231f20;stroke-width:1;stroke-linecap:butt;stroke-linejoin:miter;stroke-miterlimit:4;stroke-dasharray:none;stroke-opacity:1"
               d="m 113.5,56.716003 h 58.61801" /><path
               id="path34"
               style="fill:#ffffff;fill-opacity:1;fill-rule:nonzero;stroke:none"
               d="m 108,56.716003 h 5.5" /><path
               id="path36"
               style="fill:none;stroke:#231f20;stroke-width:1;stroke-linecap:butt;stroke-linejoin:miter;stroke-miterlimit:4;stroke-dasharray:3, 3, 3, 3, 3, 3;stroke-dashoffset:0;stroke-opacity:1"
               d="m 108,56.716003 h 5.5" /><path
               id="path38"
               style="fill:#ffffff;fill-opacity:1;fill-rule:nonzero;stroke:none"
               d="m 57,56.716003 h 51" /><path
               id="path40"
               style="fill:none;stroke:#231f20;stroke-width:1;stroke-linecap:butt;stroke-linejoin:miter;stroke-miterlimit:4;stroke-dasharray:3, 3, 3, 3, 3, 3;stroke-dashoffset:0;stroke-opacity:1"
               d="m 57,56.716003 h 51" /><path
               id="path42"
               style="fill:#231f20;fill-opacity:1;fill-rule:nonzero;stroke:none"
               d="m 174.95201,57.945004 c -1.985,0.598999 -3.274,1.151 -4.866,1.791 v -6.054001 c 0.571,0.271 2.881,1.192001 4.866,1.790001 2.123,0.641998 4.04799,1.079998 5.297,1.236999 -1.24901,0.156998 -3.174,0.596001 -5.297,1.236001" /><path
               id="path44"
               style="fill:#ffffff;fill-opacity:1;fill-rule:nonzero;stroke:none"
               d="m 57.716003,125.25101 v 35.466" /><path
               id="path46"
               style="fill:none;stroke:#231f20;stroke-width:1;stroke-linecap:butt;stroke-linejoin:miter;stroke-miterlimit:4;stroke-dasharray:none;stroke-opacity:1"
               d="m 57.716003,125.25101 v 35.466" /><path
               id="path48"
               style="fill:#ffffff;fill-opacity:1;fill-rule:nonzero;stroke:none"
               d="m 57.716003,113.50101 v 11.75" /><path
               id="path50"
               style="fill:none;stroke:#231f20;stroke-width:1;stroke-linecap:butt;stroke-linejoin:miter;stroke-miterlimit:4;stroke-dasharray:none;stroke-opacity:1"
               d="m 57.716003,113.50101 v 11.75" /><path
               id="path52"
               style="fill:#ffffff;fill-opacity:1;fill-rule:nonzero;stroke:none"
               d="m 57.716003,57 v 56.50101" /><path
               id="path54"
               style="fill:none;stroke:#231f20;stroke-width:1;stroke-linecap:butt;stroke-linejoin:miter;stroke-miterlimit:4;stroke-dasharray:3, 3, 3, 3, 3, 3;stroke-dashoffset:0;stroke-opacity:1"
               d="m 57.716003,57 v 56.50101" /><path
               id="path56"
               style="fill:#231f20;fill-opacity:1;fill-rule:nonzero;stroke:none"
               d="m 56.487003,163.55101 c -0.598999,-1.98401 -1.151001,-3.274 -1.790001,-4.86501 H 60.75 c -0.27,0.569 -1.190998,2.881 -1.788998,4.86501 -0.641998,2.123 -1.081005,4.048 -1.236999,5.297 -0.158001,-1.249 -0.596001,-3.174 -1.237,-5.297" /><path
               id="path58"
               style="fill:#ffffff;fill-opacity:1;fill-rule:nonzero;stroke:none"
               d="M 120.17801,76.325005 180.093,95.057007" /><path
               id="path60"
               style="fill:none;stroke:#231f20;stroke-width:1;stroke-linecap:butt;stroke-linejoin:miter;stroke-miterlimit:4;stroke-dasharray:none;stroke-opacity:1"
               d="M 120.17801,76.325005 180.093,95.057007" /><path
               id="path62"
               style="fill:#ffffff;fill-opacity:1;fill-rule:nonzero;stroke:none"
               d="m 111.47201,73.603004 8.706,2.722001" /><path
               id="path64"
               style="fill:none;stroke:#231f20;stroke-width:1;stroke-linecap:butt;stroke-linejoin:miter;stroke-miterlimit:4;stroke-dasharray:none;stroke-opacity:1"
               d="m 111.47201,73.603004 8.706,2.722001" /><path
               id="path66"
               style="fill:#ffffff;fill-opacity:1;fill-rule:nonzero;stroke:none"
               d="m 69.648003,60.528004 41.824007,13.075" /><path
               id="path68"
               style="fill:none;stroke:#231f20;stroke-width:1;stroke-linecap:butt;stroke-linejoin:miter;stroke-miterlimit:4;stroke-dasharray:3, 3, 3, 3, 3, 3;stroke-dashoffset:0;stroke-opacity:1"
               d="m 69.648003,60.528004 41.824007,13.075" /><path
               id="path70"
               style="fill:#ffffff;fill-opacity:1;fill-rule:nonzero;stroke:none"
               d="m 57.121002,56.612003 12.527001,3.916001" /><path
               id="path72"
               style="fill:none;stroke:#231f20;stroke-width:1;stroke-linecap:butt;stroke-linejoin:miter;stroke-miterlimit:4;stroke-dasharray:3, 3, 3, 3, 3, 3;stroke-dashoffset:0;stroke-opacity:1"
               d="m 57.121002,56.612003 12.527001,3.916001" /><path
               id="path74"
               style="fill:#231f20;fill-opacity:1;fill-rule:nonzero;stroke:none"
               d="m 180.33401,96.371002 c -2.07099,-0.02 -3.466,0.121002 -5.175,0.257004 l 1.804,-5.778008 c 0.46399,0.429009 2.39499,1.998009 4.111,3.159005 1.835,1.247001 3.542,2.240005 4.68598,2.763 -1.23799,-0.222999 -3.20698,-0.378998 -5.42598,-0.401001" /><text
               id="text78"
               style="font-variant:normal;font-weight:normal;font-size:11.95500088px;font-family:CMMI12;-inkscape-font-specification:CMMI12;writing-mode:lr-tb;fill:#231f20;fill-opacity:1;fill-rule:nonzero;stroke:none"
               transform="matrix(1,0,0,-1,61.773399,164.7377)"><tspan
                 id="tspan76"
                 y="0"
                 x="0">z</tspan></text>
<text
               id="text82"
               style="font-variant:normal;font-weight:normal;font-size:11.95500088px;font-family:CMMI12;-inkscape-font-specification:CMMI12;writing-mode:lr-tb;fill:#231f20;fill-opacity:1;fill-rule:nonzero;stroke:none"
               transform="matrix(1,0,0,-1,182.1459,51.737839)"><tspan
                 id="tspan80"
                 y="0"
                 x="0">x</tspan></text>
<text
               id="text86"
               style="font-variant:normal;font-weight:normal;font-size:11.95500088px;font-family:CMMI12;-inkscape-font-specification:CMMI12;writing-mode:lr-tb;fill:#231f20;fill-opacity:1;fill-rule:nonzero;stroke:none"
               transform="matrix(1,0,0,-1,189.49942,93.999962)"><tspan
                 id="tspan84"
                 y="0"
                 x="0">y</tspan></text>
</g><g
             id="g88"><g
               clip-path="url(#clipPath94)"
               id="g90"><path
                 id="path96"
                 style="fill:none;stroke:#231f20;stroke-width:1;stroke-linecap:butt;stroke-linejoin:miter;stroke-miterlimit:4;stroke-dasharray:none;stroke-opacity:1"
                 d="M 113.5,57 C 113.5,25.796001 88.204002,0.5 57,0.5 25.796001,0.5 0.5,25.796001 0.5,57 c 0,31.204002 25.296001,56.5 56.5,56.5 31.204002,0 56.5,-25.295998 56.5,-56.5 z" /></g></g><g
             id="g98"><path
               id="path100"
               style="fill:none;stroke:#231f20;stroke-width:2;stroke-linecap:butt;stroke-linejoin:miter;stroke-miterlimit:4;stroke-dasharray:none;stroke-opacity:1"
               d="M 31.992001,92.994003 21.5,108" /><path
               id="path102"
               style="fill:#231f20;fill-opacity:1;fill-rule:nonzero;stroke:none"
               d="m 18.209999,110.023 c 0.808003,-2.461 1.166002,-4.17699 1.651001,-6.266 l 6.202002,4.336 c -0.686001,0.39 -3.285,2.098 -5.318001,3.70201 -2.179001,1.71599 -4.007,3.374 -5.062,4.541 0.732999,-1.392 1.663,-3.67801 2.526998,-6.31301" /><path
               id="path104"
               style="fill:none;stroke:#231f20;stroke-width:2;stroke-linecap:butt;stroke-linejoin:miter;stroke-miterlimit:4;stroke-dasharray:2, 2, 2, 2, 2, 2;stroke-dashoffset:0;stroke-opacity:1"
               d="M 28.225002,98.155006 24.492001,103.494" /><path
               id="path106"
               style="fill:none;stroke:#231f20;stroke-width:0.80000001;stroke-linecap:butt;stroke-linejoin:miter;stroke-miterlimit:4;stroke-dasharray:2, 2, 2, 2, 2, 2;stroke-dashoffset:0;stroke-opacity:1"
               d="M 57,57 28.225002,98.155006" /><path
               id="path108"
               style="fill:none;stroke:#231f20;stroke-width:1;stroke-linecap:butt;stroke-linejoin:miter;stroke-miterlimit:4;stroke-dasharray:none;stroke-opacity:1"
               d="m 32.791,99.897003 -3.546999,-2.478996 m 6.748,-2.091004 -2.985001,4.270005" /><text
               id="text112"
               style="font-variant:normal;font-weight:normal;font-size:11.95500088px;font-family:CMMI12;-inkscape-font-specification:CMMI12;writing-mode:lr-tb;fill:#231f20;fill-opacity:1;fill-rule:nonzero;stroke:none"
               transform="matrix(1,0,0,-1,18.2388,118.0712)"><tspan
                 id="tspan110"
                 y="0"
                 x="0">n</tspan></text>
</g><g
             id="g114"><g
               clip-path="url(#clipPath120)"
               id="g116"><path
                 id="path122"
                 style="fill:#231f20;fill-opacity:1;fill-rule:nonzero;stroke:none"
                 d="m 18.239,116.63701 h 6.987001 v -0.479 H 18.239 Z" /><path
                 id="path124"
                 style="fill:none;stroke:#231f20;stroke-width:1;stroke-linecap:butt;stroke-linejoin:miter;stroke-miterlimit:4;stroke-dasharray:none;stroke-opacity:1"
                 d="M 113.5,56 C 113.5,49.649002 88.204002,44.5 57,44.5 25.796001,44.5 0.5,49.649002 0.5,56" /><path
                 id="path126"
                 style="fill:none;stroke:#231f20;stroke-width:1;stroke-linecap:butt;stroke-linejoin:miter;stroke-miterlimit:4;stroke-dasharray:3, 3, 3, 3, 3, 3;stroke-dashoffset:0;stroke-opacity:1"
                 d="m 0.5,56 c 0,6.351002 25.296001,11.5 56.5,11.5 31.204002,0 56.5,-5.148998 56.5,-11.5" /></g></g><g
             id="g128"><path
               id="path130"
               style="fill:#ffffff;fill-opacity:1;fill-rule:nonzero;stroke:none"
               d="m 282.17801,80.325005 59.91501,18.732002" /><path
               id="path132"
               style="fill:none;stroke:#231f20;stroke-width:1;stroke-linecap:butt;stroke-linejoin:miter;stroke-miterlimit:4;stroke-dasharray:none;stroke-opacity:1"
               d="m 282.17801,80.325005 59.91501,18.732002" /><path
               id="path134"
               style="fill:#231f20;fill-opacity:1;fill-rule:nonzero;stroke:none"
               d="m 342.33401,100.371 c -2.07098,-0.02 -3.466,0.121 -5.17498,0.25701 l 1.80398,-5.778012 c 0.46399,0.429009 2.39499,1.998009 4.111,3.159005 1.83502,1.247001 3.54202,2.240007 4.68597,2.762997 -1.23798,-0.223 -3.20697,-0.37899 -5.42597,-0.401" /><path
               id="path136"
               style="fill:#ffffff;fill-opacity:1;fill-rule:nonzero;stroke:none"
               d="m 282.5,80.717003 h 58.61801" /><path
               id="path138"
               style="fill:none;stroke:#231f20;stroke-width:1;stroke-linecap:butt;stroke-linejoin:miter;stroke-miterlimit:4;stroke-dasharray:none;stroke-opacity:1"
               d="m 282.5,80.717003 h 58.61801" /><path
               id="path140"
               style="fill:#231f20;fill-opacity:1;fill-rule:nonzero;stroke:none"
               d="m 343.95203,81.946007 c -1.98502,0.598999 -3.27402,1.149994 -4.866,1.791 v -6.055 c 0.57098,0.270996 2.88098,1.191994 4.866,1.789993 2.12298,0.642006 4.04797,1.081001 5.29699,1.237007 -1.24902,0.157997 -3.17401,0.595993 -5.29699,1.237" /><path
               id="path142"
               style="fill:#ffffff;fill-opacity:1;fill-rule:nonzero;stroke:none"
               d="M 282.71701,81.251007 V 116.717" /><path
               id="path144"
               style="fill:none;stroke:#231f20;stroke-width:1;stroke-linecap:butt;stroke-linejoin:miter;stroke-miterlimit:4;stroke-dasharray:none;stroke-opacity:1"
               d="M 282.71701,81.251007 V 116.717" /><path
               id="path146"
               style="fill:#231f20;fill-opacity:1;fill-rule:nonzero;stroke:none"
               d="m 281.48801,119.551 c -0.599,-1.98399 -1.15201,-3.27399 -1.79001,-4.865 h 6.052 c -0.26898,0.569 -1.19098,2.88101 -1.789,4.865 -0.642,2.123 -1.07999,4.04801 -1.237,5.29701 -0.15698,-1.249 -0.59497,-3.17401 -1.23599,-5.29701" /><text
               id="text150"
               style="font-variant:normal;font-weight:normal;font-size:11.95500088px;font-family:CMMI12;-inkscape-font-specification:CMMI12;writing-mode:lr-tb;fill:#231f20;fill-opacity:1;fill-rule:nonzero;stroke:none"
               transform="matrix(1,0,0,-1,351.38303,77.245003)"><tspan
                 id="tspan148"
                 y="0"
                 x="0">i</tspan></text>
<path
               id="path152"
               style="fill:#231f20;fill-opacity:1;fill-rule:nonzero;stroke:none"
               d="m 351.38303,75.811005 h 3.99301 v -0.477997 h -3.99301 z" /><text
               id="text156"
               style="font-variant:normal;font-weight:normal;font-size:11.95500088px;font-family:CMMI12;-inkscape-font-specification:CMMI12;writing-mode:lr-tb;fill:#231f20;fill-opacity:1;fill-rule:nonzero;stroke:none"
               transform="matrix(1,0,0,-1,350.17999,101.245)"><tspan
                 id="tspan154"
                 y="0"
                 x="0">j</tspan></text>
<path
               id="path158"
               style="fill:#231f20;fill-opacity:1;fill-rule:nonzero;stroke:none"
               d="m 350.17999,97.486008 h 5.51599 v -0.477997 h -5.51599 z" /><text
               id="text162"
               style="font-variant:normal;font-weight:normal;font-size:11.95500088px;font-family:CMMI12;-inkscape-font-specification:CMMI12;writing-mode:lr-tb;fill:#231f20;fill-opacity:1;fill-rule:nonzero;stroke:none"
               transform="matrix(1,0,0,-1,289.5,117.2455)"><tspan
                 id="tspan160"
                 y="0"
                 x="0">k</tspan></text>
<path
               id="path164"
               style="fill:#231f20;fill-opacity:1;fill-rule:nonzero;stroke:none"
               d="m 289.5,115.812 h 6.48901 v -0.478 H 289.5 Z" /><path
               id="path166"
               style="fill:#231f20;fill-opacity:1;fill-rule:nonzero;stroke:none"
               d="m 34.167,92.833008 c 0,-1.196007 -0.969998,-2.166001 -2.167,-2.166001 -1.195999,0 -2.165998,0.969994 -2.165998,2.166001 C 29.834002,94.029999 30.804001,95 32,95 c 1.197002,0 2.167,-0.970001 2.167,-2.166992" /><text
               id="text170"
               style="font-variant:normal;font-weight:normal;font-size:11.95500088px;font-family:CMMI12;-inkscape-font-specification:CMMI12;writing-mode:lr-tb;fill:#231f20;fill-opacity:1;fill-rule:nonzero;stroke:none"
               transform="matrix(1,0,0,-1,35.097698,88.963799)"><tspan
                 id="tspan168"
                 y="0"
                 x="0">P</tspan></text>
<text
               id="text174"
               style="font-variant:normal;font-weight:normal;font-size:11.95500088px;font-family:CMR12;-inkscape-font-specification:CMR12;writing-mode:lr-tb;fill:#231f20;fill-opacity:1;fill-rule:nonzero;stroke:none"
               transform="matrix(1,0,0,-1,44.268379,88.963799)"><tspan
                 id="tspan172"
                 y="0"
                 x="0">(</tspan></text>
<text
               id="text178"
               style="font-variant:normal;font-weight:normal;font-size:11.95500088px;font-family:CMMI12;-inkscape-font-specification:CMMI12;writing-mode:lr-tb;fill:#231f20;fill-opacity:1;fill-rule:nonzero;stroke:none"
               transform="matrix(1,0,0,-1,48.819649,88.963799)"><tspan
                 id="tspan176"
                 y="0"
                 x="0 6.6469808">x,</tspan></text>
<text
               id="text182"
               style="font-variant:normal;font-weight:normal;font-size:11.95500088px;font-family:CMMI12;-inkscape-font-specification:CMMI12;writing-mode:lr-tb;fill:#231f20;fill-opacity:1;fill-rule:nonzero;stroke:none"
               transform="matrix(1,0,0,-1,60.717266,88.963799)"><tspan
                 id="tspan180"
                 y="0"
                 x="0">y</tspan></text>
<text
               id="text186"
               style="font-variant:normal;font-weight:normal;font-size:11.95500088px;font-family:CMMI12;-inkscape-font-specification:CMMI12;writing-mode:lr-tb;fill:#231f20;fill-opacity:1;fill-rule:nonzero;stroke:none"
               transform="matrix(1,0,0,-1,66.853767,88.963799)"><tspan
                 id="tspan184"
                 y="0"
                 x="0">,</tspan></text>
<text
               id="text190"
               style="font-variant:normal;font-weight:normal;font-size:11.95500088px;font-family:CMMI12;-inkscape-font-specification:CMMI12;writing-mode:lr-tb;fill:#231f20;fill-opacity:1;fill-rule:nonzero;stroke:none"
               transform="matrix(1,0,0,-1,72.098427,88.963799)"><tspan
                 id="tspan188"
                 y="0"
                 x="0">z</tspan></text>
<text
               id="text194"
               style="font-variant:normal;font-weight:normal;font-size:11.95500088px;font-family:CMR12;-inkscape-font-specification:CMR12;writing-mode:lr-tb;fill:#231f20;fill-opacity:1;fill-rule:nonzero;stroke:none"
               transform="matrix(1,0,0,-1,78.067558,88.963799)"><tspan
                 id="tspan192"
                 y="0"
                 x="0">)</tspan></text>
<text
               id="text198"
               style="font-variant:normal;font-weight:normal;font-size:11.95500088px;font-family:CMMI12;-inkscape-font-specification:CMMI12;writing-mode:lr-tb;fill:#231f20;fill-opacity:1;fill-rule:nonzero;stroke:none"
               transform="matrix(1,0,0,-1,37.089405,70.297264)"><tspan
                 id="tspan196"
                 y="0"
                 x="0">a</tspan></text>
</g></g></g></g></g></svg>