<?xml version="1.0" encoding="UTF-8" standalone="no"?>
<svg
   xmlns:dc="http://purl.org/dc/elements/1.1/"
   xmlns:cc="http://creativecommons.org/ns#"
   xmlns:rdf="http://www.w3.org/1999/02/22-rdf-syntax-ns#"
   xmlns:svg="http://www.w3.org/2000/svg"
   xmlns="http://www.w3.org/2000/svg"
   viewBox="0 0 293.33334 185.33333"
   height="185.33333"
   width="293.33334"
   xml:space="preserve"
   id="svg2"
   version="1.1"><metadata
     id="metadata8"><rdf:RDF><cc:Work
         rdf:about=""><dc:format>image/svg+xml</dc:format><dc:type
           rdf:resource="http://purl.org/dc/dcmitype/StillImage" /></cc:Work></rdf:RDF></metadata><defs
     id="defs6"><clipPath
       id="clipPath24"
       clipPathUnits="userSpaceOnUse"><path
         id="path22"
         d="M 0,0 H 220 V 139 H 0 Z" /></clipPath><clipPath
       id="clipPath34"
       clipPathUnits="userSpaceOnUse"><path
         id="path32"
         d="M 0.06,0.05999756 H 219.87801 V 138.20401 H 0.06 Z" /></clipPath></defs><g
     transform="matrix(1.3333333,0,0,-1.3333333,0,185.33333)"
     id="g10"><g
       id="g12" /><g
       id="g14" /><g
       id="g16"><g
         id="g18"><g
           clip-path="url(#clipPath24)"
           id="g20"><g
             id="g26" /><g
             id="g28"><g
               clip-path="url(#clipPath34)"
               id="g30"><path
                 id="path36"
                 style="fill:#ffffff;fill-opacity:1;fill-rule:nonzero;stroke:none"
                 d="M 0,21.216002 H 203.201" /><path
                 id="path38"
                 style="fill:none;stroke:#231f20;stroke-width:1;stroke-linecap:butt;stroke-linejoin:miter;stroke-miterlimit:4;stroke-dasharray:none;stroke-opacity:1"
                 d="M 0,21.216002 H 203.201" /><path
                 id="path40"
                 style="fill:#231f20;fill-opacity:1;fill-rule:nonzero;stroke:none"
                 d="m 206.035,22.445002 c -1.98399,0.598999 -3.27299,1.150999 -4.865,1.791 v -6.054001 c 0.56999,0.271 2.88101,1.192 4.865,1.789999 2.123,0.642 4.04901,1.080002 5.29702,1.237002 -1.24801,0.156999 -3.17402,0.595998 -5.29702,1.236" /><path
                 id="path42"
                 style="fill:#ffffff;fill-opacity:1;fill-rule:nonzero;stroke:none"
                 d="M 88.800003,0 V 125.217" /><path
                 id="path44"
                 style="fill:none;stroke:#231f20;stroke-width:1;stroke-linecap:butt;stroke-linejoin:miter;stroke-miterlimit:4;stroke-dasharray:none;stroke-opacity:1"
                 d="M 88.800003,0 V 125.217" /></g></g><g
             id="g46"><path
               id="path48"
               style="fill:#231f20;fill-opacity:1;fill-rule:nonzero;stroke:none"
               d="m 87.571007,128.05101 c -0.598999,-1.984 -1.151009,-3.274 -1.791008,-4.86501 h 6.054008 c -0.271003,0.569 -1.192001,2.88101 -1.789001,4.86501 -0.642998,2.123 -1.081001,4.04799 -1.237999,5.297 -0.157005,-1.24901 -0.595001,-3.174 -1.236,-5.297" /><path
               id="path50"
               style="fill:#ffffff;fill-opacity:1;fill-rule:nonzero;stroke:none"
               d="M 67.897003,4.1240001 187.26801,103.73601" /><path
               id="path52"
               style="fill:none;stroke:#231f20;stroke-width:1;stroke-linecap:butt;stroke-linejoin:miter;stroke-miterlimit:4;stroke-dasharray:none;stroke-opacity:1"
               d="M 67.897003,4.1240001 187.26801,103.73601" /><path
               id="path54"
               style="fill:#231f20;fill-opacity:1;fill-rule:nonzero;stroke:none"
               d="m 186.98801,105.04301 c -1.90599,-0.81101 -3.25,-1.21401 -4.881,-1.74201 l 3.877,-4.647992 c 0.265,0.571998 1.45,2.760992 2.59,4.490002 1.219,1.85399 2.41598,3.42399 3.274,4.345 -1.05901,-0.68 -2.81801,-1.57701 -4.86,-2.445" /><text
               id="text58"
               style="font-variant:normal;font-weight:normal;font-size:11.95500088px;font-family:CMMI12;-inkscape-font-specification:CMMI12;writing-mode:lr-tb;fill:#231f20;fill-opacity:1;fill-rule:nonzero;stroke:none"
               transform="matrix(1,0,0,-1,92.856895,129.2377)"><tspan
                 id="tspan56"
                 y="0"
                 x="0">z</tspan></text>
<text
               id="text62"
               style="font-variant:normal;font-weight:normal;font-size:11.95500088px;font-family:CMMI12;-inkscape-font-specification:CMMI12;writing-mode:lr-tb;fill:#231f20;fill-opacity:1;fill-rule:nonzero;stroke:none"
               transform="matrix(1,0,0,-1,213.2294,16.237841)"><tspan
                 id="tspan60"
                 y="0"
                 x="0">x</tspan></text>
<text
               id="text66"
               style="font-variant:normal;font-weight:normal;font-size:11.95500088px;font-family:CMMI12;-inkscape-font-specification:CMMI12;writing-mode:lr-tb;fill:#231f20;fill-opacity:1;fill-rule:nonzero;stroke:none"
               transform="matrix(1,0,0,-1,194.28311,102.23733)"><tspan
                 id="tspan64"
                 y="0"
                 x="0">y</tspan></text>
<path
               id="path68"
               style="fill:none;stroke:#231f20;stroke-width:1;stroke-linecap:butt;stroke-linejoin:miter;stroke-miterlimit:4;stroke-dasharray:none;stroke-opacity:1"
               d="M 187.093,65.68 133.66701,21.096001 88.866005,62.696003 142.293,107.28 Z" /><path
               id="path70"
               style="fill:none;stroke:#231f20;stroke-width:1;stroke-linecap:butt;stroke-linejoin:miter;stroke-miterlimit:4;stroke-dasharray:3, 3, 3, 3, 3, 3;stroke-dashoffset:0;stroke-opacity:1"
               d="M 142,106.01601 V 65.217003 h 45.093" /><text
               id="text74"
               style="font-variant:normal;font-weight:normal;font-size:11.95500088px;font-family:CMR12;-inkscape-font-specification:CMR12;writing-mode:lr-tb;fill:#231f20;fill-opacity:1;fill-rule:nonzero;stroke:none"
               transform="matrix(1,0,0,-1,80.328598,59.666397)"><tspan
                 id="tspan72"
                 y="0"
                 x="0">1</tspan></text>
<text
               id="text78"
               style="font-variant:normal;font-weight:normal;font-size:11.95500088px;font-family:CMR12;-inkscape-font-specification:CMR12;writing-mode:lr-tb;fill:#231f20;fill-opacity:1;fill-rule:nonzero;stroke:none"
               transform="matrix(1,0,0,-1,133.98622,64.665977)"><tspan
                 id="tspan76"
                 y="0"
                 x="0">2</tspan></text>
<text
               id="text82"
               style="font-variant:normal;font-weight:normal;font-size:11.95500088px;font-family:CMR12;-inkscape-font-specification:CMR12;writing-mode:lr-tb;fill:#231f20;fill-opacity:1;fill-rule:nonzero;stroke:none"
               transform="matrix(1,0,0,-1,131.82954,8.6651678)"><tspan
                 id="tspan80"
                 y="0"
                 x="0">1</tspan></text>
</g></g></g></g></g></svg>