<?xml version="1.0" encoding="UTF-8" standalone="no"?>
<svg
   xmlns:dc="http://purl.org/dc/elements/1.1/"
   xmlns:cc="http://creativecommons.org/ns#"
   xmlns:rdf="http://www.w3.org/1999/02/22-rdf-syntax-ns#"
   xmlns:svg="http://www.w3.org/2000/svg"
   xmlns="http://www.w3.org/2000/svg"
   viewBox="0 0 189.33333 169.33333"
   height="169.33333"
   width="189.33333"
   xml:space="preserve"
   id="svg2"
   version="1.1"><metadata
     id="metadata8"><rdf:RDF><cc:Work
         rdf:about=""><dc:format>image/svg+xml</dc:format><dc:type
           rdf:resource="http://purl.org/dc/dcmitype/StillImage" /></cc:Work></rdf:RDF></metadata><defs
     id="defs6"><clipPath
       id="clipPath24"
       clipPathUnits="userSpaceOnUse"><path
         id="path22"
         d="M 0,0 H 142 V 127 H 0 Z" /></clipPath><clipPath
       id="clipPath34"
       clipPathUnits="userSpaceOnUse"><path
         id="path32"
         d="M 0.06,0.06000519 H 141.11701 V 126.81601 H 0.06 Z" /></clipPath><clipPath
       id="clipPath58"
       clipPathUnits="userSpaceOnUse"><path
         id="path56"
         d="M 0.06,0.06000519 H 141.11701 V 126.81601 H 0.06 Z" /></clipPath><clipPath
       id="clipPath78"
       clipPathUnits="userSpaceOnUse"><path
         id="path76"
         d="M 0.06,0.06000519 H 141.11701 V 126.81601 H 0.06 Z" /></clipPath></defs><g
     transform="matrix(1.3333333,0,0,-1.3333333,0,169.33333)"
     id="g10"><g
       id="g12" /><g
       id="g14" /><g
       id="g16"><g
         id="g18"><g
           clip-path="url(#clipPath24)"
           id="g20"><g
             id="g26" /><g
             id="g28"><g
               clip-path="url(#clipPath34)"
               id="g30"><path
                 id="path36"
                 style="fill:none;stroke:#231f20;stroke-width:1;stroke-linecap:butt;stroke-linejoin:miter;stroke-miterlimit:4;stroke-dasharray:none;stroke-opacity:1"
                 d="m 110.75,59.309998 c 0,-20.434998 -16.564995,-36.999999 -37,-36.999999 -20.434998,0 -37,16.565001 -37,36.999999 m 74,1.25 c 0,-6.212994 -16.676994,-11.25 -37.25,-11.25 -20.572998,0 -37.25,5.037006 -37.25,11.25 0,6.213005 16.677002,11.25 37.25,11.25 20.573006,0 37.25,-5.036995 37.25,-11.25 z" /><path
                 id="path38"
                 style="fill:#231f20;fill-opacity:1;fill-rule:nonzero;stroke:none"
                 d="M 0,60.559998 H 116.25" /><path
                 id="path40"
                 style="fill:none;stroke:#231f20;stroke-width:0.80000001;stroke-linecap:butt;stroke-linejoin:miter;stroke-miterlimit:4;stroke-dasharray:none;stroke-opacity:1"
                 d="M 0,60.559998 H 116.25 M 61.75,124.81 l 8,-40.500002 8,1.5 -2.5,-25.25 10,31.75 -10,-1 -0.5,35.500002 m 29,-77.500002 31.106,-8.756997" /></g></g><g
             id="g42"><path
               id="path44"
               style="fill:#231f20;fill-opacity:1;fill-rule:nonzero;stroke:none"
               d="m 137.306,40.885002 c -1.39899,0.890999 -2.27199,1.596001 -3.35899,2.433998 l -1.312,-4.661999 c 0.49699,0.085 2.47699,0.293 4.134,0.322999 1.77399,0.034 3.35199,-0.046 4.34799,-0.194996 -0.92799,0.390999 -2.315,1.144996 -3.811,2.099998" /><path
               id="path46"
               style="fill:none;stroke:#231f20;stroke-width:0.80000001;stroke-linecap:butt;stroke-linejoin:miter;stroke-miterlimit:4;stroke-dasharray:none;stroke-opacity:1"
               d="M 91.25,41.309998 118.284,23.605001" /><path
               id="path48"
               style="fill:#231f20;fill-opacity:1;fill-rule:nonzero;stroke:none"
               d="m 120.71901,23.186001 c -1.066,1.269001 -1.68601,2.205 -2.471,3.33 l -2.65401,-4.052 c 0.5,-0.068 2.45001,-0.465 4.04,-0.935 1.70301,-0.500999 3.18401,-1.051 4.08801,-1.493999 -0.766,0.653 -1.863,1.789999 -3.003,3.150999" /><path
               id="path50"
               style="fill:none;stroke:#231f20;stroke-width:0.80000001;stroke-linecap:butt;stroke-linejoin:miter;stroke-miterlimit:4;stroke-dasharray:none;stroke-opacity:1"
               d="M 75.25,38.809998 76.024002,6.5040002" /></g><g
             id="g52"><g
               clip-path="url(#clipPath58)"
               id="g54"><path
                 id="path60"
                 style="fill:#231f20;fill-opacity:1;fill-rule:nonzero;stroke:none"
                 d="m 77.062004,4.2610002 c 0.440003,1.598 0.857002,2.6400003 1.337998,3.9260001 L 73.558006,8.0699997 C 73.786003,7.6199999 74.566002,5.7890005 75.083,4.2140002 75.637001,2.5270002 76.024002,0.99600005 76.174004,0 c 0.100998,1.0020001 0.415001,2.5510001 0.888,4.2610002" /></g></g><g
             id="g62"><path
               id="path64"
               style="fill:none;stroke:#231f20;stroke-width:0.80000001;stroke-linecap:butt;stroke-linejoin:miter;stroke-miterlimit:4;stroke-dasharray:none;stroke-opacity:1"
               d="M 56.749004,40.809998 33.377003,18.493" /><path
               id="path66"
               style="fill:#231f20;fill-opacity:1;fill-rule:nonzero;stroke:none"
               d="m 32.417,16.216002 c 1.479,0.75 2.529003,1.142999 3.804001,1.651998 l -3.344998,3.503 c -0.18,-0.472 -1.009002,-2.281 -1.826004,-3.722999 -0.873998,-1.545 -1.744997,-2.862001 -2.381998,-3.643 0.81,0.599 2.165001,1.409 3.748999,2.211001" /><path
               id="path68"
               style="fill:none;stroke:#231f20;stroke-width:0.80000001;stroke-linecap:butt;stroke-linejoin:miter;stroke-miterlimit:4;stroke-dasharray:none;stroke-opacity:1"
               d="M 44.751003,47.809998 14.513,36.412003" /><path
               id="path70"
               style="fill:#231f20;fill-opacity:1;fill-rule:nonzero;stroke:none"
               d="m 12.737,34.692001 c 1.656001,0.112 2.777001,0.062 4.148,0.033 L 15.177001,39.256 C 14.826001,38.893002 13.357,37.551003 12.04,36.544003 c -1.407999,-1.081002 -2.7269993,-1.952 -3.6169997,-2.421002 0.9790001,0.234001 2.5440007,0.450001 4.3139997,0.569" /></g><g
             id="g72"><g
               clip-path="url(#clipPath78)"
               id="g74"><path
                 id="path80"
                 style="fill:none;stroke:#231f20;stroke-width:0.80000001;stroke-linecap:butt;stroke-linejoin:miter;stroke-miterlimit:4;stroke-dasharray:none;stroke-opacity:1"
                 d="m 14.75,105.31 c 0,-3.313 -1.902999,-6.000002 -4.25,-6.000002 -2.3469992,0 -4.25,2.687002 -4.25,6.000002 0,3.31401 1.9030008,6 4.25,6 2.347001,0 4.25,-2.68599 4.25,-6 z m -7.5,-44.000002 4,18.5 4,-18.5 m -4,18.5 -0.75,19.5 m -9.25,-4 9,-3.5 11,5" /></g></g></g></g></g></g></svg>