<?xml version="1.0" encoding="UTF-8" standalone="no"?>
<svg
   xmlns:dc="http://purl.org/dc/elements/1.1/"
   xmlns:cc="http://creativecommons.org/ns#"
   xmlns:rdf="http://www.w3.org/1999/02/22-rdf-syntax-ns#"
   xmlns:svg="http://www.w3.org/2000/svg"
   xmlns="http://www.w3.org/2000/svg"
   viewBox="0 0 173.33333 65.333336"
   height="65.333336"
   width="173.33333"
   xml:space="preserve"
   id="svg2"
   version="1.1"><metadata
     id="metadata8"><rdf:RDF><cc:Work
         rdf:about=""><dc:format>image/svg+xml</dc:format><dc:type
           rdf:resource="http://purl.org/dc/dcmitype/StillImage" /></cc:Work></rdf:RDF></metadata><defs
     id="defs6"><clipPath
       id="clipPath24"
       clipPathUnits="userSpaceOnUse"><path
         id="path22"
         d="M 0,0 H 130 V 49 H 0 Z" /></clipPath><clipPath
       id="clipPath38"
       clipPathUnits="userSpaceOnUse"><path
         id="path36"
         d="M 0.06,0.06000137 H 129.07601 V 48.868003 H 0.06 Z" /></clipPath><clipPath
       id="clipPath54"
       clipPathUnits="userSpaceOnUse"><path
         id="path52"
         d="M 0.06,0.06000137 H 129.07601 V 48.868003 H 0.06 Z" /></clipPath></defs><g
     transform="matrix(1.3333333,0,0,-1.3333333,0,65.333333)"
     id="g10"><g
       id="g12" /><g
       id="g14" /><g
       id="g16"><g
         id="g18"><g
           clip-path="url(#clipPath24)"
           id="g20"><g
             id="g26" /><g
             id="g28"><path
               id="path30"
               style="fill:#ffffff;fill-opacity:1;fill-rule:nonzero;stroke:none"
               d="M 12.59,48.369003 63.193005,46.422001" /></g><g
             id="g32"><g
               clip-path="url(#clipPath38)"
               id="g34"><path
                 id="path40"
                 style="fill:none;stroke:#231f20;stroke-width:1;stroke-linecap:butt;stroke-linejoin:miter;stroke-miterlimit:4;stroke-dasharray:none;stroke-opacity:1"
                 d="M 12.59,48.369003 63.193005,46.422001" /></g></g><g
             id="g42"><path
               id="path44"
               style="fill:#231f20;fill-opacity:1;fill-rule:nonzero;stroke:none"
               d="M 65.113007,47.169003 C 63.807003,47.619999 62.962002,48.02 61.918003,48.486004 l -0.154999,-4.032002 c 0.386994,0.165997 1.949997,0.718998 3.286991,1.068001 1.430001,0.372997 2.725007,0.615997 3.560006,0.687996 -0.826996,0.136002 -2.098999,0.478005 -3.496994,0.959004" /><path
               id="path46"
               style="fill:#ffffff;fill-opacity:1;fill-rule:nonzero;stroke:none"
               d="M 26.818001,29.031002 12.59,48.369003" /></g><g
             id="g48"><g
               clip-path="url(#clipPath54)"
               id="g50"><path
                 id="path56"
                 style="fill:none;stroke:#231f20;stroke-width:1;stroke-linecap:butt;stroke-linejoin:miter;stroke-miterlimit:4;stroke-dasharray:none;stroke-opacity:1"
                 d="M 26.818001,29.031002 12.59,48.369003" /></g></g><g
             id="g58"><path
               id="path60"
               style="fill:#ffffff;fill-opacity:1;fill-rule:nonzero;stroke:none"
               d="M 44.426003,5.1030002 26.818001,29.031002" /><path
               id="path62"
               style="fill:none;stroke:#231f20;stroke-width:1;stroke-linecap:butt;stroke-linejoin:miter;stroke-miterlimit:4;stroke-dasharray:none;stroke-opacity:1"
               d="M 44.426003,5.1030002 26.818001,29.031002" /><path
               id="path64"
               style="fill:#231f20;fill-opacity:1;fill-rule:nonzero;stroke:none"
               d="M 25.039001,30.067001 C 25.5,28.765001 25.713001,27.854002 26,26.747002 l 3.25,2.392 c -0.370998,0.198999 -1.777998,1.076 -2.883999,1.904999 -1.183,0.887001 -2.179001,1.747999 -2.757,2.356001 0.41,-0.731999 0.935,-1.940003 1.43,-3.333001" /><path
               id="path66"
               style="fill:#ffffff;fill-opacity:1;fill-rule:nonzero;stroke:none"
               d="M 79.637001,23.676001 44.426003,5.1030002" /><path
               id="path68"
               style="fill:none;stroke:#231f20;stroke-width:1;stroke-linecap:butt;stroke-linejoin:miter;stroke-miterlimit:4;stroke-dasharray:none;stroke-opacity:1"
               d="M 79.637001,23.676001 44.426003,5.1030002" /><path
               id="path70"
               style="fill:#231f20;fill-opacity:1;fill-rule:nonzero;stroke:none"
               d="M 80.926003,25.283001 C 79.569,25.019001 78.637001,24.944 77.5,24.825001 l 1.883003,-3.569 c 0.251999,0.336 1.328003,1.598001 2.312004,2.569 1.052994,1.038 2.050995,1.896 2.738999,2.377001 -0.785004,-0.297001 -2.056999,-0.637001 -3.508003,-0.919001" /><path
               id="path72"
               style="fill:none;stroke:#231f20;stroke-width:1;stroke-linecap:butt;stroke-linejoin:miter;stroke-miterlimit:4;stroke-dasharray:none;stroke-opacity:1"
               d="M 63.193005,46.422001 118.71201,44.287003 79.637001,23.676001" /><text
               id="text76"
               style="font-variant:normal;font-weight:normal;font-size:11.95500088px;font-family:CMMI12;-inkscape-font-specification:CMMI12;writing-mode:lr-tb;fill:#231f20;fill-opacity:1;fill-rule:nonzero;stroke:none"
               transform="matrix(1,0,0,-1,0,39.3223)"><tspan
                 id="tspan74"
                 y="0"
                 x="0">P</tspan></text>
<text
               id="text80"
               style="font-variant:normal;font-weight:normal;font-size:7.96999979px;font-family:CMR8;-inkscape-font-specification:CMR8;writing-mode:lr-tb;fill:#231f20;fill-opacity:1;fill-rule:nonzero;stroke:none"
               transform="matrix(1,0,0,-1,7.5448999,37.529301)"><tspan
                 id="tspan78"
                 y="0"
                 x="0">1</tspan></text>
<text
               id="text84"
               style="font-variant:normal;font-weight:normal;font-size:11.95500088px;font-family:CMMI12;-inkscape-font-specification:CMMI12;writing-mode:lr-tb;fill:#231f20;fill-opacity:1;fill-rule:nonzero;stroke:none"
               transform="matrix(1,0,0,-1,119.84601,34.9888)"><tspan
                 id="tspan82"
                 y="0"
                 x="0">G</tspan></text>
<text
               id="text88"
               style="font-variant:normal;font-weight:normal;font-size:11.95500088px;font-family:CMMI12;-inkscape-font-specification:CMMI12;writing-mode:lr-tb;fill:#231f20;fill-opacity:1;fill-rule:nonzero;stroke:none"
               transform="matrix(1,0,0,-1,29.179276,2.9888506)"><tspan
                 id="tspan86"
                 y="0"
                 x="0">O</tspan></text>
</g></g></g></g></g></svg>