<?xml version="1.0" encoding="UTF-8" standalone="no"?>
<svg
   xmlns:dc="http://purl.org/dc/elements/1.1/"
   xmlns:cc="http://creativecommons.org/ns#"
   xmlns:rdf="http://www.w3.org/1999/02/22-rdf-syntax-ns#"
   xmlns:svg="http://www.w3.org/2000/svg"
   xmlns="http://www.w3.org/2000/svg"
   viewBox="0 0 160 126.66667"
   height="126.66667"
   width="160"
   xml:space="preserve"
   id="svg2"
   version="1.1"><metadata
     id="metadata8"><rdf:RDF><cc:Work
         rdf:about=""><dc:format>image/svg+xml</dc:format><dc:type
           rdf:resource="http://purl.org/dc/dcmitype/StillImage" /></cc:Work></rdf:RDF></metadata><defs
     id="defs6"><clipPath
       id="clipPath24"
       clipPathUnits="userSpaceOnUse"><path
         id="path22"
         d="M 0,0 H 120 V 95 H 0 Z" /></clipPath><clipPath
       id="clipPath34"
       clipPathUnits="userSpaceOnUse"><path
         id="path32"
         d="M 0,0.06000519 H 119.537 V 94.75 H 0 Z" /></clipPath></defs><g
     transform="matrix(1.3333333,0,0,-1.3333333,0,126.66667)"
     id="g10"><g
       id="g12" /><g
       id="g14" /><g
       id="g16"><g
         id="g18"><g
           clip-path="url(#clipPath24)"
           id="g20"><g
             id="g26" /><g
             id="g28"><g
               clip-path="url(#clipPath34)"
               id="g30"><path
                 id="path36"
                 style="fill:none;stroke:#231f20;stroke-width:1;stroke-linecap:butt;stroke-linejoin:miter;stroke-miterlimit:4;stroke-dasharray:none;stroke-opacity:1"
                 d="M 94.25,47.375004 C 94.25,21.486002 73.264,0.5 47.375004,0.5 21.486002,0.5 0.5,21.486002 0.5,47.375004 0.5,73.264 21.486002,94.25 47.375004,94.25 73.264,94.25 94.25,73.264 94.25,47.375004 Z" /></g></g><g
             id="g38"><text
               id="text42"
               style="font-variant:normal;font-weight:normal;font-size:11.95500088px;font-family:CMMI12;-inkscape-font-specification:CMMI12;writing-mode:lr-tb;fill:#231f20;fill-opacity:1;fill-rule:nonzero;stroke:none"
               transform="matrix(1,0,0,-1,86.25,78.819298)"><tspan
                 id="tspan40"
                 y="0"
                 x="0">P</tspan></text>
<text
               id="text46"
               style="font-variant:normal;font-weight:normal;font-size:11.95500088px;font-family:CMMI12;-inkscape-font-specification:CMMI12;writing-mode:lr-tb;fill:#231f20;fill-opacity:1;fill-rule:nonzero;stroke:none"
               transform="matrix(1,0,0,-1,58.165314,65.556419)"><tspan
                 id="tspan44"
                 y="0"
                 x="0">R</tspan></text>
<text
               id="text50"
               style="font-variant:normal;font-weight:normal;font-size:9.56400013px;font-family:CMR12;-inkscape-font-specification:CMR12;writing-mode:lr-tb;fill:#231f20;fill-opacity:1;fill-rule:nonzero;stroke:none"
               transform="matrix(1,0,0,-1,97.833496,79.556595)"><tspan
                 id="tspan48"
                 y="0"
                 x="0">(</tspan></text>
<text
               id="text54"
               style="font-variant:normal;font-weight:normal;font-size:9.56400013px;font-family:CMMI12;-inkscape-font-specification:CMMI12;writing-mode:lr-tb;fill:#231f20;fill-opacity:1;fill-rule:nonzero;stroke:none"
               transform="matrix(1,0,0,-1,101.47643,79.556595)"><tspan
                 id="tspan52"
                 y="0"
                 x="0 5.317584">x,</tspan></text>
<text
               id="text58"
               style="font-variant:normal;font-weight:normal;font-size:9.56400013px;font-family:CMMI12;-inkscape-font-specification:CMMI12;writing-mode:lr-tb;fill:#231f20;fill-opacity:1;fill-rule:nonzero;stroke:none"
               transform="matrix(1,0,0,-1,110.99356,79.556595)"><tspan
                 id="tspan56"
                 y="0"
                 x="0">y</tspan></text>
<text
               id="text62"
               style="font-variant:normal;font-weight:normal;font-size:9.56400013px;font-family:CMR12;-inkscape-font-specification:CMR12;writing-mode:lr-tb;fill:#231f20;fill-opacity:1;fill-rule:nonzero;stroke:none"
               transform="matrix(1,0,0,-1,115.90276,79.556595)"><tspan
                 id="tspan60"
                 y="0"
                 x="0">)</tspan></text>
<path
               id="path64"
               style="fill:#231f20;fill-opacity:1;fill-rule:nonzero;stroke:none"
               d="M 53.922001,52.842003 77.202003,72.281006" /><path
               id="path66"
               style="fill:none;stroke:#231f20;stroke-width:1;stroke-linecap:butt;stroke-linejoin:miter;stroke-miterlimit:4;stroke-dasharray:none;stroke-opacity:1"
               d="M 53.922001,52.842003 77.202003,72.281006" /><path
               id="path68"
               style="fill:#231f20;fill-opacity:1;fill-rule:nonzero;stroke:none"
               d="m 78.589005,75.043007 c -1.906998,-0.812004 -3.251,-1.216004 -4.882004,-1.746002 l 3.881004,-4.647003 c 0.264,0.575004 1.446999,2.763 2.585999,4.495002 1.219001,1.850998 2.415992,3.423996 3.274002,4.344002 -1.058998,-0.679008 -2.818009,-1.57901 -4.859001,-2.445999" /><path
               id="path70"
               style="fill:#231f20;fill-opacity:1;fill-rule:nonzero;stroke:none"
               d="m 52.535004,50.082001 c 1.906997,0.812 3.25,1.216003 4.881,1.744003 l -3.880001,4.646999 C 53.272003,55.900002 52.089001,53.712002 50.949001,51.98 49.73,50.127003 48.534004,48.556004 47.676003,47.636002 c 1.057998,0.679 2.818,1.576999 4.859001,2.445999" /><path
               id="path72"
               style="fill:#231f20;fill-opacity:1;fill-rule:nonzero;stroke:none"
               d="m 86,77 c 0,-1.241997 -1.007996,-2.25 -2.25,-2.25 -1.242996,0 -2.25,1.008003 -2.25,2.25 0,1.242004 1.007004,2.25 2.25,2.25 1.242004,0 2.25,-1.007996 2.25,-2.25" /><text
               id="text76"
               style="font-variant:normal;font-weight:normal;font-size:11.95500088px;font-family:CMMI12;-inkscape-font-specification:CMMI12;writing-mode:lr-tb;fill:#231f20;fill-opacity:1;fill-rule:nonzero;stroke:none"
               transform="matrix(1,0,0,-1,36.165001,36.056599)"><tspan
                 id="tspan74"
                 y="0"
                 x="0">C</tspan></text>
<text
               id="text80"
               style="font-variant:normal;font-weight:normal;font-size:9.56400013px;font-family:CMR12;-inkscape-font-specification:CMR12;writing-mode:lr-tb;fill:#231f20;fill-opacity:1;fill-rule:nonzero;stroke:none"
               transform="matrix(1,0,0,-1,48.7393,37.752899)"><tspan
                 id="tspan78"
                 y="0"
                 x="0">(</tspan></text>
<text
               id="text84"
               style="font-variant:normal;font-weight:normal;font-size:9.56400013px;font-family:CMMI12;-inkscape-font-specification:CMMI12;writing-mode:lr-tb;fill:#231f20;fill-opacity:1;fill-rule:nonzero;stroke:none"
               transform="matrix(1,0,0,-1,52.381271,37.752899)"><tspan
                 id="tspan82"
                 y="0"
                 x="0">x</tspan></text>
<text
               id="text88"
               style="font-variant:normal;font-weight:normal;font-size:6.3760004px;font-family:CMR8;-inkscape-font-specification:CMR8;writing-mode:lr-tb;fill:#231f20;fill-opacity:1;fill-rule:nonzero;stroke:none"
               transform="matrix(1,0,0,-1,57.702099,36.319298)"><tspan
                 id="tspan86"
                 y="0"
                 x="0">0</tspan></text>
<text
               id="text92"
               style="font-variant:normal;font-weight:normal;font-size:9.56400013px;font-family:CMMI12;-inkscape-font-specification:CMMI12;writing-mode:lr-tb;fill:#231f20;fill-opacity:1;fill-rule:nonzero;stroke:none"
               transform="matrix(1,0,0,-1,61.4883,37.752899)"><tspan
                 id="tspan90"
                 y="0"
                 x="0">,</tspan></text>
<text
               id="text96"
               style="font-variant:normal;font-weight:normal;font-size:9.56400013px;font-family:CMMI12;-inkscape-font-specification:CMMI12;writing-mode:lr-tb;fill:#231f20;fill-opacity:1;fill-rule:nonzero;stroke:none"
               transform="matrix(1,0,0,-1,65.684029,37.752899)"><tspan
                 id="tspan94"
                 y="0"
                 x="0">y</tspan></text>
<text
               id="text100"
               style="font-variant:normal;font-weight:normal;font-size:6.3760004px;font-family:CMR8;-inkscape-font-specification:CMR8;writing-mode:lr-tb;fill:#231f20;fill-opacity:1;fill-rule:nonzero;stroke:none"
               transform="matrix(1,0,0,-1,70.25,36.319298)"><tspan
                 id="tspan98"
                 y="0"
                 x="0">0</tspan></text>
<text
               id="text104"
               style="font-variant:normal;font-weight:normal;font-size:9.56400013px;font-family:CMR12;-inkscape-font-specification:CMR12;writing-mode:lr-tb;fill:#231f20;fill-opacity:1;fill-rule:nonzero;stroke:none"
               transform="matrix(1,0,0,-1,74.035599,37.752899)"><tspan
                 id="tspan102"
                 y="0"
                 x="0">)</tspan></text>
</g></g></g></g></g></svg>