<?xml version="1.0" encoding="UTF-8" standalone="no"?>
<svg
   xmlns:dc="http://purl.org/dc/elements/1.1/"
   xmlns:cc="http://creativecommons.org/ns#"
   xmlns:rdf="http://www.w3.org/1999/02/22-rdf-syntax-ns#"
   xmlns:svg="http://www.w3.org/2000/svg"
   xmlns="http://www.w3.org/2000/svg"
   viewBox="0 0 244 145.33333"
   height="145.33333"
   width="244"
   xml:space="preserve"
   id="svg2"
   version="1.1"><metadata
     id="metadata8"><rdf:RDF><cc:Work
         rdf:about=""><dc:format>image/svg+xml</dc:format><dc:type
           rdf:resource="http://purl.org/dc/dcmitype/StillImage" /></cc:Work></rdf:RDF></metadata><defs
     id="defs6"><clipPath
       id="clipPath24"
       clipPathUnits="userSpaceOnUse"><path
         id="path22"
         d="M 0,0 H 183 V 109 H 0 Z" /></clipPath><clipPath
       id="clipPath52"
       clipPathUnits="userSpaceOnUse"><path
         id="path50"
         d="M 0.06,0.06000519 H 182.847 V 108.25 H 0.06 Z" /></clipPath></defs><g
     transform="matrix(1.3333333,0,0,-1.3333333,0,145.33333)"
     id="g10"><g
       id="g12" /><g
       id="g14" /><g
       id="g16"><g
         id="g18"><g
           clip-path="url(#clipPath24)"
           id="g20"><g
             id="g26" /><g
             id="g28"><path
               id="path30"
               style="fill:#231f20;fill-opacity:1;fill-rule:nonzero;stroke:none"
               d="m 109.853,47.478001 -1.096,-1.800999 0.062,-0.041 2.93699,1.166999 c 1.024,0.225003 2.04701,0.450001 3.071,0.675 -1.02399,0.226001 -2.047,0.45 -3.071,0.676002 l -2.93699,1.167 -0.062,-0.03101 1.096,-1.811996" /><path
               id="path32"
               style="fill:#231f20;fill-opacity:1;fill-rule:nonzero;stroke:none"
               d="M 111.007,47.426003 H 20.007002" /><path
               id="path34"
               style="fill:none;stroke:#231f20;stroke-width:1;stroke-linecap:butt;stroke-linejoin:miter;stroke-miterlimit:4;stroke-dasharray:none;stroke-opacity:1"
               d="M 111.007,47.426003 H 20.007002" /><text
               id="text38"
               style="font-variant:normal;font-weight:normal;font-size:11.95500088px;font-family:CMMI12;-inkscape-font-specification:CMMI12;writing-mode:lr-tb;fill:#231f20;fill-opacity:1;fill-rule:nonzero;stroke:none"
               transform="matrix(1,0,0,-1,117.6,49.099098)"><tspan
                 id="tspan36"
                 y="0"
                 x="0">x</tspan></text>
<text
               id="text42"
               style="font-variant:normal;font-weight:normal;font-size:11.95500088px;font-family:CMR12;-inkscape-font-specification:CMR12;writing-mode:lr-tb;fill:#231f20;fill-opacity:1;fill-rule:nonzero;stroke:none"
               transform="matrix(1,0,0,-1,96.623756,38.034744)"><tspan
                 id="tspan40"
                 y="0"
                 x="0">2</tspan></text>
<path
               id="path44"
               style="fill:#e9e9e9;fill-opacity:1;fill-rule:nonzero;stroke:none"
               d="M 94.25,47.375004 C 94.25,21.487001 73.263,0.5 47.375004,0.5 21.487001,0.5 0.5,21.487001 0.5,47.375004 0.5,73.263 21.487001,94.25 47.375004,94.25 73.263,94.25 94.25,73.263 94.25,47.375004" /></g><g
             id="g46"><g
               clip-path="url(#clipPath52)"
               id="g48"><path
                 id="path54"
                 style="fill:none;stroke:#231f20;stroke-width:1;stroke-linecap:butt;stroke-linejoin:miter;stroke-miterlimit:4;stroke-dasharray:none;stroke-opacity:1"
                 d="M 94.25,47.375004 C 94.25,21.487001 73.263,0.5 47.375004,0.5 21.487001,0.5 0.5,21.487001 0.5,47.375004 0.5,73.263 21.487001,94.25 47.375004,94.25 73.263,94.25 94.25,73.263 94.25,47.375004 Z" /></g></g><g
             id="g56"><path
               id="path58"
               style="fill:#ffffff;fill-opacity:1;fill-rule:nonzero;stroke:none"
               d="m 70.063004,47.625004 c 0,-12.944004 -10.494,-23.437002 -23.438,-23.437002 -12.944004,0 -23.437002,10.492998 -23.437002,23.437002 0,12.944 10.492998,23.438 23.437002,23.438 12.944,0 23.438,-10.494 23.438,-23.438" /><path
               id="path60"
               style="fill:none;stroke:#231f20;stroke-width:1;stroke-linecap:butt;stroke-linejoin:miter;stroke-miterlimit:4;stroke-dasharray:none;stroke-opacity:1"
               d="m 70.063004,47.625004 c 0,-12.944004 -10.494,-23.437002 -23.438,-23.437002 -12.944004,0 -23.437002,10.492998 -23.437002,23.437002 0,12.944 10.492998,23.438 23.437002,23.438 12.944,0 23.438,-10.494 23.438,-23.438 z M 47.135002,99.319008 V 32.359001" /><path
               id="path62"
               style="fill:#231f20;fill-opacity:1;fill-rule:nonzero;stroke:none"
               d="M 47.211002,98.509003 45.409,97.413002 l -0.041,0.062 1.167,2.937998 c 0.224994,1.023 0.449997,2.04601 0.675998,3.07 0.224999,-1.02399 0.450001,-2.047 0.675,-3.07 l 1.166999,-2.937998 -0.031,-0.062 -1.811001,1.096001" /><text
               id="text66"
               style="font-variant:normal;font-weight:normal;font-size:11.95500088px;font-family:CMMI12;-inkscape-font-specification:CMMI12;writing-mode:lr-tb;fill:#231f20;fill-opacity:1;fill-rule:nonzero;stroke:none"
               transform="matrix(1,0,0,-1,50.213398,99.283699)"><tspan
                 id="tspan64"
                 y="0"
                 x="0">y</tspan></text>
<text
               id="text70"
               style="font-variant:normal;font-weight:normal;font-size:11.95500088px;font-family:CMR12;-inkscape-font-specification:CMR12;writing-mode:lr-tb;fill:#231f20;fill-opacity:1;fill-rule:nonzero;stroke:none"
               transform="matrix(1,0,0,-1,47.918037,38.535557)"><tspan
                 id="tspan68"
                 y="0"
                 x="0">0</tspan></text>
<text
               id="text74"
               style="font-variant:normal;font-weight:normal;font-size:11.95500088px;font-family:CMR12;-inkscape-font-specification:CMR12;writing-mode:lr-tb;fill:#231f20;fill-opacity:1;fill-rule:nonzero;stroke:none"
               transform="matrix(1,0,0,-1,71.215942,37.350815)"><tspan
                 id="tspan72"
                 y="0"
                 x="0">1</tspan></text>
<path
               id="path76"
               style="fill:#231f20;fill-opacity:1;fill-rule:nonzero;stroke:none"
               d="m 95.189003,47.421001 h -58.5" /><path
               id="path78"
               style="fill:none;stroke:#231f20;stroke-width:1;stroke-linecap:butt;stroke-linejoin:miter;stroke-miterlimit:4;stroke-dasharray:none;stroke-opacity:1"
               d="m 95.189003,47.421001 h -58.5" /><text
               id="text82"
               style="font-variant:normal;font-weight:normal;font-size:11.95500088px;font-family:CMR12;-inkscape-font-specification:CMR12;writing-mode:lr-tb;fill:#231f20;fill-opacity:1;fill-rule:nonzero;stroke:none"
               transform="matrix(1,0,0,-1,93.878899,86.535194)"><tspan
                 id="tspan80"
                 y="0"
                 x="0">1</tspan></text>
<text
               id="text86"
               style="font-variant:normal;font-weight:normal;font-size:11.95500088px;font-family:CMMI12;-inkscape-font-specification:CMMI12;writing-mode:lr-tb;fill:#231f20;fill-opacity:1;fill-rule:nonzero;stroke:none"
               transform="matrix(1,0,0,-1,103.05317,86.535194)"><tspan
                 id="tspan84"
                 y="0"
                 x="0">&lt;</tspan></text>
<text
               id="text90"
               style="font-variant:normal;font-weight:normal;font-size:11.95500088px;font-family:CMMI12;-inkscape-font-specification:CMMI12;writing-mode:lr-tb;fill:#231f20;fill-opacity:1;fill-rule:nonzero;stroke:none"
               transform="matrix(1,0,0,-1,120.03046,86.535194)"><tspan
                 id="tspan88"
                 y="0"
                 x="0">x</tspan></text>
<text
               id="text94"
               style="font-variant:normal;font-weight:normal;font-size:7.96999979px;font-family:CMR8;-inkscape-font-specification:CMR8;writing-mode:lr-tb;fill:#231f20;fill-opacity:1;fill-rule:nonzero;stroke:none"
               transform="matrix(1,0,0,-1,126.68301,91.471199)"><tspan
                 id="tspan92"
                 y="0"
                 x="0">2</tspan></text>
<text
               id="text98"
               style="font-variant:normal;font-weight:normal;font-size:11.95500088px;font-family:CMR12;-inkscape-font-specification:CMR12;writing-mode:lr-tb;fill:#231f20;fill-opacity:1;fill-rule:nonzero;stroke:none"
               transform="matrix(1,0,0,-1,134.071,86.535194)"><tspan
                 id="tspan96"
                 y="0"
                 x="0">+</tspan></text>
<text
               id="text102"
               style="font-variant:normal;font-weight:normal;font-size:11.95500088px;font-family:CMMI12;-inkscape-font-specification:CMMI12;writing-mode:lr-tb;fill:#231f20;fill-opacity:1;fill-rule:nonzero;stroke:none"
               transform="matrix(1,0,0,-1,145.83353,86.535194)"><tspan
                 id="tspan100"
                 y="0"
                 x="0">y</tspan></text>
<text
               id="text106"
               style="font-variant:normal;font-weight:normal;font-size:7.96999979px;font-family:CMR8;-inkscape-font-specification:CMR8;writing-mode:lr-tb;fill:#231f20;fill-opacity:1;fill-rule:nonzero;stroke:none"
               transform="matrix(1,0,0,-1,151.97,91.471199)"><tspan
                 id="tspan104"
                 y="0"
                 x="0">2</tspan></text>
<text
               id="text110"
               style="font-variant:normal;font-weight:normal;font-size:11.95500088px;font-family:CMMI12;-inkscape-font-specification:CMMI12;writing-mode:lr-tb;fill:#231f20;fill-opacity:1;fill-rule:nonzero;stroke:none"
               transform="matrix(1,0,0,-1,164.57501,86.535194)"><tspan
                 id="tspan108"
                 y="0"
                 x="0">&lt;</tspan></text>
<text
               id="text114"
               style="font-variant:normal;font-weight:normal;font-size:11.95500088px;font-family:CMR12;-inkscape-font-specification:CMR12;writing-mode:lr-tb;fill:#231f20;fill-opacity:1;fill-rule:nonzero;stroke:none"
               transform="matrix(1,0,0,-1,177.00104,86.535194)"><tspan
                 id="tspan112"
                 y="0"
                 x="0">4</tspan></text>
<path
               id="path116"
               style="fill:#231f20;fill-opacity:1;fill-rule:nonzero;stroke:none"
               d="m 91.689003,89.671005 -18,-13" /><path
               id="path118"
               style="fill:none;stroke:#231f20;stroke-width:1;stroke-linecap:butt;stroke-linejoin:miter;stroke-miterlimit:4;stroke-dasharray:none;stroke-opacity:1"
               d="m 91.689003,89.671005 -18,-13" /></g></g></g></g></g></svg>