<?xml version="1.0" encoding="UTF-8" standalone="no"?>
<svg
   xmlns:dc="http://purl.org/dc/elements/1.1/"
   xmlns:cc="http://creativecommons.org/ns#"
   xmlns:rdf="http://www.w3.org/1999/02/22-rdf-syntax-ns#"
   xmlns:svg="http://www.w3.org/2000/svg"
   xmlns="http://www.w3.org/2000/svg"
   viewBox="0 0 337.33334 168"
   height="168"
   width="337.33334"
   xml:space="preserve"
   id="svg2"
   version="1.1"><metadata
     id="metadata8"><rdf:RDF><cc:Work
         rdf:about=""><dc:format>image/svg+xml</dc:format><dc:type
           rdf:resource="http://purl.org/dc/dcmitype/StillImage" /></cc:Work></rdf:RDF></metadata><defs
     id="defs6"><clipPath
       id="clipPath24"
       clipPathUnits="userSpaceOnUse"><path
         id="path22"
         d="M 0,0 H 253 V 126 H 0 Z" /></clipPath><clipPath
       id="clipPath34"
       clipPathUnits="userSpaceOnUse"><path
         id="path32"
         d="M 0,0.05999756 H 252.74802 V 125.704 H 0 Z" /></clipPath><clipPath
       id="clipPath48"
       clipPathUnits="userSpaceOnUse"><path
         id="path46"
         d="M 0,0.05999756 H 252.74802 V 125.704 H 0 Z" /></clipPath></defs><g
     transform="matrix(1.3333333,0,0,-1.3333333,0,168)"
     id="g10"><g
       id="g12" /><g
       id="g14" /><g
       id="g16"><g
         id="g18"><g
           clip-path="url(#clipPath24)"
           id="g20"><g
             id="g26" /><g
             id="g28"><g
               clip-path="url(#clipPath34)"
               id="g30"><path
                 id="path36"
                 style="fill:none;stroke:#231f20;stroke-width:1;stroke-linecap:butt;stroke-linejoin:miter;stroke-miterlimit:4;stroke-dasharray:none;stroke-opacity:1"
                 d="M 239.24802,30.499001 H 0" /></g></g><g
             id="g38"><path
               id="path40"
               style="fill:#231f20;fill-opacity:1;fill-rule:nonzero;stroke:none"
               d="M 229.43901,30.603001 227.24802,27 l 0.123,-0.081 5.875,2.333 c 2.04599,0.450001 4.09298,0.901001 6.14,1.351 -2.04702,0.451 -4.09401,0.900001 -6.14,1.351001 l -5.875,2.334 -0.123,-0.062 2.19099,-3.623001" /></g><g
             id="g42"><g
               clip-path="url(#clipPath48)"
               id="g44"><path
                 id="path50"
                 style="fill:none;stroke:#231f20;stroke-width:1;stroke-linecap:butt;stroke-linejoin:miter;stroke-miterlimit:4;stroke-dasharray:none;stroke-opacity:1"
                 d="M 104.44301,113.78 V 0" /></g></g><g
             id="g52"><path
               id="path54"
               style="fill:#231f20;fill-opacity:1;fill-rule:nonzero;stroke:none"
               d="m 104.595,111.48 -3.603,-2.191 -0.081,0.123 2.333,5.875 c 0.45001,2.04701 0.901,4.094 1.351,6.14101 0.45101,-2.04701 0.9,-4.094 1.35101,-6.14101 l 2.33399,-5.875 -0.062,-0.123 -3.623,2.191" /><path
               id="path56"
               style="fill:none;stroke:#231f20;stroke-width:1;stroke-linecap:butt;stroke-linejoin:miter;stroke-miterlimit:4;stroke-dasharray:none;stroke-opacity:1"
               d="m 123.99801,35.718002 v -5.333 m 17.814,5.603001 V 30.655001 M 161.248,36.333 V 31 m 18,4.333 V 30 M 27.997002,36.218002 v -5.333 m 17.813999,5.603001 V 31.155001 M 65.247002,35.833 V 30.5 m 18,5.333 V 30.5 m 20.799008,18.746002 h 5.333 m -5.602,17.815003 H 109.11 m -4.67899,19.434997 h 5.333 m -5.333,17.999998 h 5.333 m -4.833,-94.4999997 h 5.333" /><text
               id="text60"
               style="font-variant:normal;font-weight:normal;font-size:11.95500088px;font-family:CMMI12;-inkscape-font-specification:CMMI12;writing-mode:lr-tb;fill:#231f20;fill-opacity:1;fill-rule:nonzero;stroke:none"
               transform="matrix(1,0,0,-1,242.49602,27.2377)"><tspan
                 id="tspan58"
                 y="0"
                 x="0">x</tspan></text>
<text
               id="text64"
               style="font-variant:normal;font-weight:normal;font-size:11.95500088px;font-family:CMMI12;-inkscape-font-specification:CMMI12;writing-mode:lr-tb;fill:#231f20;fill-opacity:1;fill-rule:nonzero;stroke:none"
               transform="matrix(1,0,0,-1,113.04966,116.73762)"><tspan
                 id="tspan62"
                 y="0"
                 x="0">y</tspan></text>
<path
               id="path66"
               style="fill:#231f20;fill-opacity:1;fill-rule:nonzero;stroke:none"
               d="m 188.24802,56.5 c 0,-1.103996 -0.89601,-2 -2,-2 -1.10501,0 -2,0.896004 -2,2 0,1.105003 0.89499,2 2,2 1.10399,0 2,-0.894997 2,-2" /><path
               id="path68"
               style="fill:#231f20;fill-opacity:1;fill-rule:nonzero;stroke:none"
               d="m 48.747002,80 c 0,1.105003 0.896,2 2,2 1.104999,0 2,-0.894997 2,-2 0,-1.103996 -0.895001,-2 -2,-2 -1.104,0 -2,0.896004 -2,2" /><text
               id="text72"
               style="font-variant:normal;font-weight:normal;font-size:11.95500088px;font-family:CMMI12;-inkscape-font-specification:CMMI12;writing-mode:lr-tb;fill:#231f20;fill-opacity:1;fill-rule:nonzero;stroke:none"
               transform="matrix(1,0,0,-1,120.11201,70.948601)"><tspan
                 id="tspan70"
                 y="0"
                 x="0">d</tspan></text>
<text
               id="text76"
               style="font-variant:normal;font-weight:normal;font-size:11.95500088px;font-family:CMMI12;-inkscape-font-specification:CMMI12;writing-mode:lr-tb;fill:#231f20;fill-opacity:1;fill-rule:nonzero;stroke:none"
               transform="matrix(1,0,0,-1,37.097679,78.449165)"><tspan
                 id="tspan74"
                 y="0"
                 x="0">P</tspan></text>
<text
               id="text80"
               style="font-variant:normal;font-weight:normal;font-size:7.96999979px;font-family:CMR8;-inkscape-font-specification:CMR8;writing-mode:lr-tb;fill:#231f20;fill-opacity:1;fill-rule:nonzero;stroke:none"
               transform="matrix(1,0,0,-1,44.642097,76.655701)"><tspan
                 id="tspan78"
                 y="0"
                 x="0">1</tspan></text>
<text
               id="text84"
               style="font-variant:normal;font-weight:normal;font-size:11.95500088px;font-family:CMMI12;-inkscape-font-specification:CMMI12;writing-mode:lr-tb;fill:#231f20;fill-opacity:1;fill-rule:nonzero;stroke:none"
               transform="matrix(1,0,0,-1,189.77602,60.448597)"><tspan
                 id="tspan82"
                 y="0"
                 x="0">P</tspan></text>
<text
               id="text88"
               style="font-variant:normal;font-weight:normal;font-size:7.96999979px;font-family:CMR8;-inkscape-font-specification:CMR8;writing-mode:lr-tb;fill:#231f20;fill-opacity:1;fill-rule:nonzero;stroke:none"
               transform="matrix(1,0,0,-1,197.32201,58.655697)"><tspan
                 id="tspan86"
                 y="0"
                 x="0">2</tspan></text>
<text
               id="text92"
               style="font-variant:normal;font-weight:normal;font-size:11.95500088px;font-family:CMMI12;-inkscape-font-specification:CMMI12;writing-mode:lr-tb;fill:#231f20;fill-opacity:1;fill-rule:nonzero;stroke:none"
               transform="matrix(1,0,0,-1,40.4561,51.448597)"><tspan
                 id="tspan90"
                 y="0"
                 x="0">A</tspan></text>
<path
               id="path94"
               style="fill:none;stroke:#231f20;stroke-width:0.80000001;stroke-linecap:butt;stroke-linejoin:miter;stroke-miterlimit:4;stroke-dasharray:none;stroke-opacity:1"
               d="M 52.747002,80 186.24802,56.5 m 0,-0.5 H 51.747002 v 26" /><text
               id="text98"
               style="font-variant:normal;font-weight:normal;font-size:9.56400013px;font-family:CMR12;-inkscape-font-specification:CMR12;writing-mode:lr-tb;fill:#231f20;fill-opacity:1;fill-rule:nonzero;stroke:none"
               transform="matrix(1,0,0,-1,49.3032,85.768898)"><tspan
                 id="tspan96"
                 y="0"
                 x="0">(</tspan></text>
<text
               id="text102"
               style="font-variant:normal;font-weight:normal;font-size:9.56400013px;font-family:CMMI12;-inkscape-font-specification:CMMI12;writing-mode:lr-tb;fill:#231f20;fill-opacity:1;fill-rule:nonzero;stroke:none"
               transform="matrix(1,0,0,-1,52.945171,85.768898)"><tspan
                 id="tspan100"
                 y="0"
                 x="0">x</tspan></text>
<text
               id="text106"
               style="font-variant:normal;font-weight:normal;font-size:6.3760004px;font-family:CMR8;-inkscape-font-specification:CMR8;writing-mode:lr-tb;fill:#231f20;fill-opacity:1;fill-rule:nonzero;stroke:none"
               transform="matrix(1,0,0,-1,58.266598,84.334396)"><tspan
                 id="tspan104"
                 y="0"
                 x="0">1</tspan></text>
<text
               id="text110"
               style="font-variant:normal;font-weight:normal;font-size:9.56400013px;font-family:CMMI12;-inkscape-font-specification:CMMI12;writing-mode:lr-tb;fill:#231f20;fill-opacity:1;fill-rule:nonzero;stroke:none"
               transform="matrix(1,0,0,-1,62.0527,85.768898)"><tspan
                 id="tspan108"
                 y="0"
                 x="0">,</tspan></text>
<text
               id="text114"
               style="font-variant:normal;font-weight:normal;font-size:9.56400013px;font-family:CMMI12;-inkscape-font-specification:CMMI12;writing-mode:lr-tb;fill:#231f20;fill-opacity:1;fill-rule:nonzero;stroke:none"
               transform="matrix(1,0,0,-1,66.247467,85.768898)"><tspan
                 id="tspan112"
                 y="0"
                 x="0">y</tspan></text>
<text
               id="text118"
               style="font-variant:normal;font-weight:normal;font-size:6.3760004px;font-family:CMR8;-inkscape-font-specification:CMR8;writing-mode:lr-tb;fill:#231f20;fill-opacity:1;fill-rule:nonzero;stroke:none"
               transform="matrix(1,0,0,-1,70.814003,84.334396)"><tspan
                 id="tspan116"
                 y="0"
                 x="0">1</tspan></text>
<text
               id="text122"
               style="font-variant:normal;font-weight:normal;font-size:9.56400013px;font-family:CMR12;-inkscape-font-specification:CMR12;writing-mode:lr-tb;fill:#231f20;fill-opacity:1;fill-rule:nonzero;stroke:none"
               transform="matrix(1,0,0,-1,74.599602,85.768898)"><tspan
                 id="tspan120"
                 y="0"
                 x="0">)</tspan></text>
<text
               id="text126"
               style="font-variant:normal;font-weight:normal;font-size:9.56400013px;font-family:CMR12;-inkscape-font-specification:CMR12;writing-mode:lr-tb;fill:#231f20;fill-opacity:1;fill-rule:nonzero;stroke:none"
               transform="matrix(1,0,0,-1,178.36421,46.768822)"><tspan
                 id="tspan124"
                 y="0"
                 x="0">(</tspan></text>
<text
               id="text130"
               style="font-variant:normal;font-weight:normal;font-size:9.56400013px;font-family:CMMI12;-inkscape-font-specification:CMMI12;writing-mode:lr-tb;fill:#231f20;fill-opacity:1;fill-rule:nonzero;stroke:none"
               transform="matrix(1,0,0,-1,182.00523,46.768822)"><tspan
                 id="tspan128"
                 y="0"
                 x="0">x</tspan></text>
<text
               id="text134"
               style="font-variant:normal;font-weight:normal;font-size:6.3760004px;font-family:CMR8;-inkscape-font-specification:CMR8;writing-mode:lr-tb;fill:#231f20;fill-opacity:1;fill-rule:nonzero;stroke:none"
               transform="matrix(1,0,0,-1,187.32701,45.3344)"><tspan
                 id="tspan132"
                 y="0"
                 x="0">2</tspan></text>
<text
               id="text138"
               style="font-variant:normal;font-weight:normal;font-size:9.56400013px;font-family:CMMI12;-inkscape-font-specification:CMMI12;writing-mode:lr-tb;fill:#231f20;fill-opacity:1;fill-rule:nonzero;stroke:none"
               transform="matrix(1,0,0,-1,191.11201,46.768898)"><tspan
                 id="tspan136"
                 y="0"
                 x="0">,</tspan></text>
<text
               id="text142"
               style="font-variant:normal;font-weight:normal;font-size:9.56400013px;font-family:CMMI12;-inkscape-font-specification:CMMI12;writing-mode:lr-tb;fill:#231f20;fill-opacity:1;fill-rule:nonzero;stroke:none"
               transform="matrix(1,0,0,-1,195.30774,46.768898)"><tspan
                 id="tspan140"
                 y="0"
                 x="0">y</tspan></text>
<text
               id="text146"
               style="font-variant:normal;font-weight:normal;font-size:6.3760004px;font-family:CMR8;-inkscape-font-specification:CMR8;writing-mode:lr-tb;fill:#231f20;fill-opacity:1;fill-rule:nonzero;stroke:none"
               transform="matrix(1,0,0,-1,199.87401,45.3344)"><tspan
                 id="tspan144"
                 y="0"
                 x="0">2</tspan></text>
<text
               id="text150"
               style="font-variant:normal;font-weight:normal;font-size:9.56400013px;font-family:CMR12;-inkscape-font-specification:CMR12;writing-mode:lr-tb;fill:#231f20;fill-opacity:1;fill-rule:nonzero;stroke:none"
               transform="matrix(1,0,0,-1,203.65999,46.768898)"><tspan
                 id="tspan148"
                 y="0"
                 x="0">)</tspan></text>
</g></g></g></g></g></svg>