<?xml version="1.0" encoding="UTF-8" standalone="no"?>
<svg
   xmlns:dc="http://purl.org/dc/elements/1.1/"
   xmlns:cc="http://creativecommons.org/ns#"
   xmlns:rdf="http://www.w3.org/1999/02/22-rdf-syntax-ns#"
   xmlns:svg="http://www.w3.org/2000/svg"
   xmlns="http://www.w3.org/2000/svg"
   viewBox="0 0 266.66666 136"
   height="136"
   width="266.66666"
   xml:space="preserve"
   id="svg2"
   version="1.1"><metadata
     id="metadata8"><rdf:RDF><cc:Work
         rdf:about=""><dc:format>image/svg+xml</dc:format><dc:type
           rdf:resource="http://purl.org/dc/dcmitype/StillImage" /></cc:Work></rdf:RDF></metadata><defs
     id="defs6"><clipPath
       id="clipPath24"
       clipPathUnits="userSpaceOnUse"><path
         id="path22"
         d="M 0,0 H 200 V 102 H 0 Z" /></clipPath><clipPath
       id="clipPath38"
       clipPathUnits="userSpaceOnUse"><path
         id="path36"
         d="M 0.06,0.05999756 H 199.39701 V 101.204 H 0.06 Z" /></clipPath></defs><g
     transform="matrix(1.3333333,0,0,-1.3333333,0,136)"
     id="g10"><g
       id="g12" /><g
       id="g14" /><g
       id="g16"><g
         id="g18"><g
           clip-path="url(#clipPath24)"
           id="g20"><g
             id="g26" /><g
             id="g28"><path
               id="path30"
               style="fill:#e9e9e9;fill-opacity:1;fill-rule:nonzero;stroke:none"
               d="m 147.612,48.713001 c 0,-25.888 -20.98699,-46.8750009 -46.87499,-46.8750009 -25.888003,0 -46.876006,20.9870009 -46.876006,46.8750009 0,25.888005 20.988003,46.875004 46.876006,46.875004 25.888,0 46.87499,-20.986999 46.87499,-46.875004" /></g><g
             id="g32"><g
               clip-path="url(#clipPath38)"
               id="g34"><path
                 id="path40"
                 style="fill:none;stroke:#231f20;stroke-width:1;stroke-linecap:butt;stroke-linejoin:miter;stroke-miterlimit:4;stroke-dasharray:none;stroke-opacity:1"
                 d="m 147.612,48.713001 c 0,-25.888 -20.98699,-46.8750009 -46.87499,-46.8750009 -25.888003,0 -46.876006,20.9870009 -46.876006,46.8750009 0,25.888005 20.988003,46.875004 46.876006,46.875004 25.888,0 46.87499,-20.986999 46.87499,-46.875004 z M 182,48.815002 H 0" /><path
                 id="path42"
                 style="fill:#231f20;fill-opacity:1;fill-rule:nonzero;stroke:none"
                 d="m 179.692,48.918003 -2.192,-3.602001 0.12401,-0.081 5.875,2.333 c 2.046,0.450001 4.093,0.900001 6.14,1.350002 -2.047,0.451996 -4.094,0.901001 -6.14,1.351997 l -5.875,2.334004 -0.12401,-0.063 2.192,-3.623001" /><path
                 id="path44"
                 style="fill:none;stroke:#231f20;stroke-width:1;stroke-linecap:butt;stroke-linejoin:miter;stroke-miterlimit:4;stroke-dasharray:none;stroke-opacity:1"
                 d="M 53.755001,89.279999 V 0" /></g></g><g
             id="g46"><path
               id="path48"
               style="fill:#231f20;fill-opacity:1;fill-rule:nonzero;stroke:none"
               d="m 53.908001,86.979996 -3.602997,-2.190995 -0.082,0.123002 2.334,5.875 c 0.450001,2.047004 0.899998,4.094001 1.350998,6.140998 0.450001,-2.046997 0.900001,-4.093994 1.351002,-6.140998 l 2.333999,-5.875 -0.063,-0.123002 -3.621998,2.190995" /><text
               id="text52"
               style="font-variant:normal;font-weight:normal;font-size:11.95500088px;font-family:CMMI12;-inkscape-font-specification:CMMI12;writing-mode:lr-tb;fill:#231f20;fill-opacity:1;fill-rule:nonzero;stroke:none"
               transform="matrix(1,0,0,-1,192.74901,45.553101)"><tspan
                 id="tspan50"
                 y="0"
                 x="0">x</tspan></text>
<text
               id="text56"
               style="font-variant:normal;font-weight:normal;font-size:11.95500088px;font-family:CMMI12;-inkscape-font-specification:CMMI12;writing-mode:lr-tb;fill:#231f20;fill-opacity:1;fill-rule:nonzero;stroke:none"
               transform="matrix(1,0,0,-1,62.362991,92.237381)"><tspan
                 id="tspan54"
                 y="0"
                 x="0">y</tspan></text>
<text
               id="text60"
               style="font-variant:normal;font-weight:normal;font-size:11.95500088px;font-family:CMR12;-inkscape-font-specification:CMR12;writing-mode:lr-tb;fill:#231f20;fill-opacity:1;fill-rule:nonzero;stroke:none"
               transform="matrix(1,0,0,-1,101.36498,38.304783)"><tspan
                 id="tspan58"
                 y="0"
                 x="0">1</tspan></text>
<text
               id="text64"
               style="font-variant:normal;font-weight:normal;font-size:11.95500088px;font-family:CMR12;-inkscape-font-specification:CMR12;writing-mode:lr-tb;fill:#231f20;fill-opacity:1;fill-rule:nonzero;stroke:none"
               transform="matrix(1,0,0,-1,57.567841,38.488892)"><tspan
                 id="tspan62"
                 y="0"
                 x="0">0</tspan></text>
<text
               id="text68"
               style="font-variant:normal;font-weight:normal;font-size:11.95500088px;font-family:CMR12;-inkscape-font-specification:CMR12;writing-mode:lr-tb;fill:#231f20;fill-opacity:1;fill-rule:nonzero;stroke:none"
               transform="matrix(1,0,0,-1,149.27345,38.988609)"><tspan
                 id="tspan66"
                 y="0"
                 x="0">2</tspan></text>
<text
               id="text72"
               style="font-variant:normal;font-weight:normal;font-size:11.95500088px;font-family:CMR12;-inkscape-font-specification:CMR12;writing-mode:lr-tb;fill:#231f20;fill-opacity:1;fill-rule:nonzero;stroke:none"
               transform="matrix(1,0,0,-1,94.456184,61.620621)"><tspan
                 id="tspan70"
                 y="0"
                 x="0 4.5429006 13.317871">(A)</tspan></text>
<text
               id="text76"
               style="font-variant:normal;font-weight:normal;font-size:11.95500088px;font-family:CMR12;-inkscape-font-specification:CMR12;writing-mode:lr-tb;fill:#231f20;fill-opacity:1;fill-rule:nonzero;stroke:none"
               transform="matrix(1,0,0,-1,160.81599,61.120903)"><tspan
                 id="tspan74"
                 y="0"
                 x="0 4.5429006 12.827716">(B)</tspan></text>
<text
               id="text80"
               style="font-variant:normal;font-weight:normal;font-size:11.95500088px;font-family:CMR12;-inkscape-font-specification:CMR12;writing-mode:lr-tb;fill:#231f20;fill-opacity:1;fill-rule:nonzero;stroke:none"
               transform="matrix(1,0,0,-1,17.316536,60.621185)"><tspan
                 id="tspan78"
                 y="0"
                 x="0 4.5429006 12.827716">(B)</tspan></text>
</g></g></g></g></g></svg>