<?xml version="1.0" encoding="UTF-8" standalone="no"?>
<svg
   xmlns:dc="http://purl.org/dc/elements/1.1/"
   xmlns:cc="http://creativecommons.org/ns#"
   xmlns:rdf="http://www.w3.org/1999/02/22-rdf-syntax-ns#"
   xmlns:svg="http://www.w3.org/2000/svg"
   xmlns="http://www.w3.org/2000/svg"
   viewBox="0 0 245.33333 90.666664"
   height="90.666664"
   width="245.33333"
   xml:space="preserve"
   id="svg2"
   version="1.1"><metadata
     id="metadata8"><rdf:RDF><cc:Work
         rdf:about=""><dc:format>image/svg+xml</dc:format><dc:type
           rdf:resource="http://purl.org/dc/dcmitype/StillImage" /></cc:Work></rdf:RDF></metadata><defs
     id="defs6"><clipPath
       id="clipPath24"
       clipPathUnits="userSpaceOnUse"><path
         id="path22"
         d="M 0,0 H 184 V 68 H 0 Z" /></clipPath><clipPath
       id="clipPath34"
       clipPathUnits="userSpaceOnUse"><path
         id="path32"
         d="M 0.06,0 H 183.04201 V 67.455002 H 0.06 Z" /></clipPath></defs><g
     transform="matrix(1.3333333,0,0,-1.3333333,0,90.666667)"
     id="g10"><g
       id="g12" /><g
       id="g14" /><g
       id="g16"><g
         id="g18"><g
           clip-path="url(#clipPath24)"
           id="g20"><g
             id="g26" /><g
             id="g28"><g
               clip-path="url(#clipPath34)"
               id="g30"><path
                 id="path36"
                 style="fill:#231f20;fill-opacity:1;fill-rule:nonzero;stroke:none"
                 d="M 0,2.9030001 H 170.51999" /><path
                 id="path38"
                 style="fill:none;stroke:#231f20;stroke-width:0.34999999;stroke-linecap:butt;stroke-linejoin:miter;stroke-miterlimit:4;stroke-dasharray:none;stroke-opacity:1"
                 d="M 0,2.9030001 H 170.51999" /></g></g><g
             id="g40"><path
               id="path42"
               style="fill:#231f20;fill-opacity:1;fill-rule:nonzero;stroke:none"
               d="m 170.28801,2.9030001 -0.789,1.2970002 0.043,0.029 2.11599,-0.8390002 c 0.737,-0.1629997 1.474,-0.3249998 2.211,-0.4869998 -0.737,-0.1619999 -1.474,-0.3239999 -2.211,-0.486 L 169.54201,1.577 l -0.043,0.022 0.789,1.304" /><path
               id="path44"
               style="fill:#231f20;fill-opacity:1;fill-rule:nonzero;stroke:none"
               d="M 28.166002,2.7110002 V 60.285004" /><path
               id="path46"
               style="fill:none;stroke:#231f20;stroke-width:0.34999999;stroke-linecap:butt;stroke-linejoin:round;stroke-miterlimit:4;stroke-dasharray:none;stroke-opacity:1"
               d="M 28.166002,2.7110002 V 60.285004" /><path
               id="path48"
               style="fill:#231f20;fill-opacity:1;fill-rule:nonzero;stroke:none"
               d="m 28.166002,60.053001 -1.297001,-0.788997 -0.029,0.044 0.84,2.115002 c 0.162001,0.736996 0.324002,1.473999 0.486002,2.210999 0.162998,-0.737 0.323998,-1.474003 0.487,-2.210999 l 0.84,-2.115002 -0.022,-0.044 -1.304999,0.788997" /><path
               id="path50"
               style="fill:none;stroke:#231f20;stroke-width:0.34999999;stroke-linecap:butt;stroke-linejoin:round;stroke-miterlimit:10;stroke-dasharray:none;stroke-opacity:1"
               d="m 149.718,51.116001 h 0.90901 l 0.28099,0.034 h 0.91001 l 0.31399,0.036 h 0.91001 l 0.281,0.034 h 1.224 l 0.316,0.035 h 0.91 l 0.27899,0.035 h 1.226 l 0.28001,0.03601 h 1.54 l 0.279,0.035 h 1.226 l 0.27899,0.035 h 1.54001 l 0.28099,0.035 h 1.50501 l 0.315,0.034 h 1.81999 l 0.315,0.035 h 1.78501 l 0.31399,0.035 h 2.101 l 0.31401,0.035 h 2.136 l 0.279,0.035 h 2.415 l 0.316,0.035 h 2.729 l 0.28099,0.036 h 0.31401 m -59.85,-2.066002 0.281,0.036 h 0.315 l 0.279,0.035 0.316,0.034 h 0.31399 l 0.281,0.035 0.31501,0.035 h 0.315 l 0.28,0.036 h 0.315 l 0.31499,0.034 0.28,0.035 h 0.31401 l 0.28099,0.035 h 0.31401 l 0.316,0.035 0.28,0.036 h 0.31499 l 0.315,0.034 h 0.28 l 0.31501,0.035 h 0.315 l 0.28,0.035 h 0.315 l 0.28,0.035 0.31399,0.035 h 0.31601 l 0.28,0.035 h 0.314 l 0.31599,0.035 h 0.27901 l 0.31599,0.035 h 0.31401 l 0.28099,0.035 h 0.31501 l 0.315,0.035 h 0.595 l 0.28,0.035 h 0.315 l 0.314,0.03601 h 0.28 l 0.31599,0.035 h 0.315 l 0.28,0.034 h 0.63001 l 0.27999,0.035 h 0.31501 l 0.28,0.035 h 0.315 l 0.31399,0.035 h 0.59601 l 0.31499,0.035 h 0.28001 l 0.314,0.035 h 0.59599 l 0.315,0.035 h 0.59501 l 0.315,0.035 h 0.595 l 0.315,0.035 h 0.28 l 0.314,0.035 h 0.595 l 0.31599,0.035 h 0.595 l 0.315,0.035 h 0.59501 l 0.315,0.035 h 0.91 l 0.27899,0.035 h 0.63001 l 0.28099,0.035 h 0.91 l 0.31501,0.035 h 0.595 l 0.315,0.035 h 0.909 l 0.281,0.035 h 0.90999 l 0.315,0.035 m -59.885999,-5.529999 0.315002,0.07 0.315003,0.071 0.279998,0.034 0.316002,0.07 0.279,0.071 0.315002,0.069 0.315994,0.035 0.279999,0.071 0.315003,0.069 0.315002,0.036 0.278999,0.069 0.316002,0.071 0.313996,0.034 0.279998,0.071 0.315003,0.034 0.315002,0.07 0.280998,0.071 0.315003,0.034 0.278999,0.07 0.316002,0.036 0.313995,0.069 0.279999,0.035 0.315003,0.07 0.315002,0.036 0.280998,0.034 0.314003,0.071 0.314995,0.034 0.279999,0.07 0.315002,0.036 0.279999,0.034 0.315003,0.071 0.315002,0.034 0.280998,0.036 0.314994,0.069 0.315,0.035 0.28,0.035 0.315,0.07 0.31501,0.036 0.279,0.034 0.316,0.035 0.28,0.035 0.31499,0.07 0.315,0.03601 0.28,0.034 0.31501,0.035 0.315,0.036 0.28,0.069 0.31499,0.035 0.315,0.035 0.28,0.035 0.31501,0.035 0.315,0.035 0.28,0.035 0.31499,0.036 0.28001,0.034 0.31499,0.035 0.31501,0.035 0.27999,0.035 0.31501,0.07 0.315,0.035 0.28,0.035 0.31499,0.035 h 0.315 l 0.28,0.035 0.31401,0.035 0.28099,0.035 0.31501,0.036 0.31499,0.034 0.28001,0.035 0.31499,0.036 0.31501,0.034 0.27999,0.035 0.31501,0.035 0.31499,0.035 0.28001,0.035 h 0.31499 l 0.28,0.035 0.315,0.035 0.31501,0.035 0.28,0.036 0.315,0.034 h 0.31499 l 0.28001,0.035 0.31499,0.035 0.31501,0.035 0.28,0.035 h 0.315 l 0.31499,0.035 0.28001,0.035 0.31499,0.035 h 0.28 l 0.315,0.035 0.31501,0.035 h 0.28 l 0.315,0.035 0.31499,0.035 0.28,0.035 h 0.315 l 0.31501,0.035" /><path
               id="path52"
               style="fill:none;stroke:#231f20;stroke-width:0.34999999;stroke-linecap:butt;stroke-linejoin:round;stroke-miterlimit:10;stroke-dasharray:none;stroke-opacity:1"
               d="m 59.908001,34.736 0.315002,0.175003 0.279999,0.174 0.313999,0.174995 0.316002,0.175003 0.279999,0.140999 0.315002,0.174 0.314,0.176003 0.279998,0.139999 0.316002,0.174999 0.279999,0.139 0.313999,0.176003 0.315003,0.139999 0.280998,0.139 0.315002,0.174995 0.314995,0.14 0.279,0.140003 0.316001,0.141003 0.315003,0.139999 0.279999,0.174999 0.314003,0.139 0.279998,0.140999 0.316002,0.139 0.313996,0.141003 0.279998,0.104999 0.315003,0.14 0.315002,0.139999 0.280999,0.138996 0.315002,0.139999 0.313995,0.106003 0.280999,0.139 0.315002,0.140003 0.315002,0.104996 0.279,0.141003 0.315002,0.104 0.280998,0.139999 0.313996,0.105999 0.315002,0.139 0.280998,0.106003 0.315003,0.105 0.315002,0.138996 0.279999,0.105003 0.314003,0.105999 0.315994,0.104 L 73.208,40.895 73.522003,41 l 0.280998,0.105003 0.314003,0.104996 0.316002,0.105003 0.279,0.104996 0.314994,0.106003 0.315003,0.103996 0.280998,0.105004 0.315003,0.104999 0.315002,0.106003 0.278999,0.105 0.316002,0.104 0.279999,0.07 0.313995,0.104996 0.315003,0.105003 0.279999,0.105 0.316001,0.071 0.314003,0.103996 0.279999,0.106003 0.315994,0.069 0.315003,0.106003 0.278999,0.069 0.316002,0.104996 0.278999,0.071 0.316002,0.104 0.314995,0.07 0.279007,0.104999 0.315994,0.07 0.314003,0.105004 0.279999,0.07 0.315003,0.07 0.314994,0.104996 0.281006,0.07 0.314995,0.07 0.315003,0.07 0.279998,0.105003 0.314003,0.071 0.280999,0.07 0.628997,0.139 0.281006,0.07 0.313996,0.104996 0.316001,0.07 0.279,0.07 0.315002,0.07 0.314995,0.071 0.281006,0.069 0.313995,0.07 0.280998,0.07101 0.314003,0.069 0.316002,0.036 0.279,0.069 0.315002,0.071 0.314995,0.069 0.279999,0.07 M 29.982002,5.5799999 30.263,6.0360003 l 0.630002,0.9099998 0.28,0.4550004 0.313999,0.454 L 31.803001,8.276 32.083,8.7299995 32.397003,9.151 32.713001,9.5710001 32.993,9.9910002 33.308002,10.411 l 0.279999,0.419 0.313999,0.42 0.316002,0.386001 0.279999,0.42 0.315003,0.385 0.314998,0.384999 0.278999,0.385 0.316002,0.385001 0.314999,0.383999 0.278999,0.386001 0.316002,0.384999 0.314999,0.350001 0.279999,0.385 0.315002,0.349999 0.279999,0.385001 0.314998,0.35 0.315003,0.348999 0.278999,0.351 0.315998,0.35 0.314003,0.314001 0.280999,0.351 0.314998,0.348999 0.314003,0.316 0.280998,0.350001 0.315003,0.315 0.278999,0.315001 0.315998,0.314998 0.313999,0.313999 0.281002,0.315003 0.314999,0.316 0.315003,0.313999 0.279998,0.281 0.313999,0.315001 0.316002,0.313999 0.279,0.281 0.314998,0.280001 0.281002,0.278999 0.314999,0.316 0.314999,0.280001 0.280002,0.278997 0.313999,0.281002 0.315998,0.278998 0.279004,0.245002 0.314998,0.280001 0.315998,0.280998 0.279003,0.245001 0.315999,0.278998 0.315002,0.246002 0.278999,0.243999 0.315998,0.281 0.280003,0.245001 0.313999,0.245001 0.315998,0.244999 0.280003,0.245001 0.314998,0.244999 0.314999,0.210001 0.279003,0.243997 0.315998,0.245003 0.313999,0.244997 0.281003,0.210001 0.313999,0.246002 0.280998,0.209 0.315002,0.209999 0.314999,0.244999 0.278999,0.209999 0.316002,0.210001 0.313999,0.209999 0.281002,0.210001 0.628998,0.42 0.281002,0.211001 0.313999,0.208999 0.279999,0.211001 0.314999,0.174999 0.315002,0.209003 0.280999,0.175999 0.315002,0.209999 0.313999,0.174 0.280998,0.211002 0.315003,0.175 0.314998,0.209999 0.279,0.174999 0.315002,0.174999 0.315998,0.175003 0.279,0.173996 0.316002,0.175003 0.279998,0.175999 0.314999,0.174999" /><path
               id="path54"
               style="fill:none;stroke:#231f20;stroke-width:0.34999999;stroke-linecap:butt;stroke-linejoin:round;stroke-miterlimit:10;stroke-dasharray:none;stroke-opacity:1"
               d="m 28.163002,2.7110002 0.314999,0.49 0.28,0.49 0.315001,0.49 0.314998,0.455 0.280001,0.4900002 0.314001,0.4539995" /><path
               id="path56"
               style="fill:#ffffff;fill-opacity:1;fill-rule:nonzero;stroke:none"
               d="M 28.985001,52.866001 H 171.785" /><path
               id="path58"
               style="fill:none;stroke:#231f20;stroke-width:0.34999999;stroke-linecap:round;stroke-linejoin:miter;stroke-miterlimit:4;stroke-dasharray:2.1000001, 2.1000001, 2.1000001, 2.1000001, 2.1000001, 2.1000001;stroke-dashoffset:0;stroke-opacity:1"
               d="M 28.985001,52.866001 H 171.785" /><text
               id="text62"
               style="font-variant:normal;font-weight:normal;font-size:11.95500088px;font-family:CMMI12;-inkscape-font-specification:CMMI12;writing-mode:lr-tb;fill:#231f20;fill-opacity:1;fill-rule:nonzero;stroke:none"
               transform="matrix(1,0,0,-1,12.8765,51.7827)"><tspan
                 id="tspan60"
                 y="0"
                 x="0">E</tspan></text>
<path
               id="path64"
               style="fill:#231f20;fill-opacity:1;fill-rule:nonzero;stroke:none"
               d="M 12.377001,49.883003 H 21.743 v -0.398998 h -9.365999 z" /><text
               id="text68"
               style="font-variant:normal;font-weight:normal;font-size:11.95500088px;font-family:CMMI12;-inkscape-font-specification:CMMI12;writing-mode:lr-tb;fill:#231f20;fill-opacity:1;fill-rule:nonzero;stroke:none"
               transform="matrix(1,0,0,-1,12.5547,38.493698)"><tspan
                 id="tspan66"
                 y="0"
                 x="0">R</tspan></text>
<text
               id="text72"
               style="font-variant:normal;font-weight:normal;font-size:11.95500088px;font-family:CMMI12;-inkscape-font-specification:CMMI12;writing-mode:lr-tb;fill:#231f20;fill-opacity:1;fill-rule:nonzero;stroke:none"
               transform="matrix(1,0,0,-1,178.82126,2.9885423)"><tspan
                 id="tspan70"
                 y="0"
                 x="0">t</tspan></text>
<text
               id="text76"
               style="font-variant:normal;font-weight:normal;font-size:11.95500088px;font-family:CMMI12;-inkscape-font-specification:CMMI12;writing-mode:lr-tb;fill:#231f20;fill-opacity:1;fill-rule:nonzero;stroke:none"
               transform="matrix(1,0,0,-1,32.321091,58.488438)"><tspan
                 id="tspan74"
                 y="0"
                 x="0">i</tspan></text>
</g></g></g></g></g></svg>