<?xml version="1.0" encoding="UTF-8" standalone="no"?>
<svg
   xmlns:dc="http://purl.org/dc/elements/1.1/"
   xmlns:cc="http://creativecommons.org/ns#"
   xmlns:rdf="http://www.w3.org/1999/02/22-rdf-syntax-ns#"
   xmlns:svg="http://www.w3.org/2000/svg"
   xmlns="http://www.w3.org/2000/svg"
   viewBox="0 0 305.33334 213.33333"
   height="213.33333"
   width="305.33334"
   xml:space="preserve"
   id="svg2"
   version="1.1"><metadata
     id="metadata8"><rdf:RDF><cc:Work
         rdf:about=""><dc:format>image/svg+xml</dc:format><dc:type
           rdf:resource="http://purl.org/dc/dcmitype/StillImage" /></cc:Work></rdf:RDF></metadata><defs
     id="defs6"><clipPath
       id="clipPath24"
       clipPathUnits="userSpaceOnUse"><path
         id="path22"
         d="M 0,0 H 229 V 160 H 0 Z" /></clipPath><clipPath
       id="clipPath40"
       clipPathUnits="userSpaceOnUse"><path
         id="path38"
         d="M 0,0 H 228.64201 V 159.30101 H 0 Z" /></clipPath></defs><g
     transform="matrix(1.3333333,0,0,-1.3333333,0,213.33333)"
     id="g10"><g
       id="g12" /><g
       id="g14" /><g
       id="g16"><g
         id="g18"><g
           clip-path="url(#clipPath24)"
           id="g20"><g
             id="g26" /><g
             id="g28"><path
               id="path30"
               style="fill:none;stroke:#231f20;stroke-width:0.5;stroke-linecap:butt;stroke-linejoin:round;stroke-miterlimit:10;stroke-dasharray:none;stroke-opacity:1"
               d="m 67.685005,14.026001 h 2.400002 m -1.200005,1.2 V 12.826 M 102.019,14.026001 h 2.40001 m -1.20001,1.2 V 12.826 m 33.13401,1.200001 h 2.4 m -1.2,1.2 V 12.826 M 33.352001,88.559998 h 2.399002 m -1.2,1.199997 v -2.399994 m -1.199002,17.767009 h 2.399002 m -1.2,1.19999 v -2.4 m -1.199002,17.76601 h 2.399002 m -1.2,1.2 V 120.494" /><path
               id="path32"
               style="fill:#231f20;fill-opacity:1;fill-rule:nonzero;stroke:none"
               d="m 174.94601,15.051001 c -1.652,0.5 -2.727,0.958999 -4.053,1.492 V 11.498 c 0.47399,0.226001 2.401,0.993 4.053,1.492 1.76999,0.535001 3.375,0.899999 4.415,1.031001 -1.04,0.13 -2.64501,0.496 -4.415,1.03 z M 0.21800001,14.026001 H 172.58501 M 33.526001,148.92201 c -0.499001,-1.653 -0.959,-2.72801 -1.491001,-4.054 h 5.044002 c -0.225002,0.474 -0.992,2.401 -1.491001,4.054 -0.535,1.76999 -0.901001,3.374 -1.030998,4.415 -0.131,-1.041 -0.496002,-2.64501 -1.031002,-4.415 z M 34.551003,5.7260003 V 146.56" /></g><g
             id="g34"><g
               clip-path="url(#clipPath40)"
               id="g36"><path
                 id="path42"
                 style="fill:none;stroke:#231f20;stroke-width:1;stroke-linecap:butt;stroke-linejoin:miter;stroke-miterlimit:4;stroke-dasharray:none;stroke-opacity:1"
                 d="m 174.94601,15.051001 c -1.652,0.5 -2.727,0.958999 -4.053,1.492 V 11.498 c 0.47399,0.226001 2.401,0.993 4.053,1.492 1.76999,0.535001 3.375,0.899999 4.415,1.031001 -1.04,0.13 -2.64501,0.496 -4.415,1.03 z M 0.21800001,14.026001 H 172.58501 M 33.526001,148.92201 c -0.499001,-1.653 -0.959,-2.72801 -1.491001,-4.054 h 5.044002 c -0.225002,0.474 -0.992,2.401 -1.491001,4.054 -0.535,1.76999 -0.901001,3.374 -1.030998,4.415 -0.131,-1.041 -0.496002,-2.64501 -1.031002,-4.415 z M 34.551003,5.7260003 V 146.56" /><path
                 id="path44"
                 style="fill:none;stroke:#231f20;stroke-width:1;stroke-linecap:butt;stroke-linejoin:round;stroke-miterlimit:10;stroke-dasharray:5, 5, 5, 5, 5, 5;stroke-dashoffset:0;stroke-opacity:1"
                 d="m 0.21800001,55.426003 3.43400019,1.666999 3.4319999,1.666996 3.4340009,1.634003 3.434,1.665997 3.432999,1.666004 3.434,1.633999 3.432001,1.666999 3.434,1.667 3.434,1.666001 3.432002,1.634002 3.433998,1.665993 3.434002,1.667007 3.432998,1.632996 6.866001,3.334007 3.434002,1.632996 6.865998,3.332993 3.434001,1.667007 3.432999,1.632996 3.433998,1.667007 3.433007,1.666 3.432998,1.634003 3.433998,1.667 6.865998,3.333 3.434005,1.632992 3.432999,1.667 3.432999,1.667 3.433996,1.63301 3.43301,1.667 3.433,1.66599 3.43399,1.633 3.433,1.66699 3.43401,1.66701 3.433,1.666 3.434,1.63401 3.43299,1.666 3.433,1.66699 3.43401,1.63301 3.43199,1.66699 3.43401,1.66701 3.434,1.667 3.43199,1.633 3.43401,1.66699 3.433,1.666 3.433,1.63401 3.434,1.66598 3.433,1.66701 3.43399,1.63299" /></g></g><g
             id="g46"><text
               id="text50"
               style="font-variant:normal;font-weight:normal;font-size:11.95500088px;font-family:CMMI12;-inkscape-font-specification:CMMI12;writing-mode:lr-tb;fill:#231f20;fill-opacity:1;fill-rule:nonzero;stroke:none"
               transform="matrix(1,0,0,-1,38.751499,150.3347)"><tspan
                 id="tspan48"
                 y="0"
                 x="0">y</tspan></text>
<text
               id="text54"
               style="font-variant:normal;font-weight:normal;font-size:7.96999979px;font-family:CMMI8;-inkscape-font-specification:CMMI8;writing-mode:lr-tb;fill:#231f20;fill-opacity:1;fill-rule:nonzero;stroke:none"
               transform="matrix(1,0,0,-1,44.459499,148.5407)"><tspan
                 id="tspan52"
                 y="0"
                 x="0">n</tspan></text>
<text
               id="text58"
               style="font-variant:normal;font-weight:normal;font-size:11.95500088px;font-family:CMMI12;-inkscape-font-specification:CMMI12;writing-mode:lr-tb;fill:#231f20;fill-opacity:1;fill-rule:nonzero;stroke:none"
               transform="matrix(1,0,0,-1,158.233,123.33469)"><tspan
                 id="tspan56"
                 y="0"
                 x="0">y</tspan></text>
<text
               id="text62"
               style="font-variant:normal;font-weight:normal;font-size:11.95500088px;font-family:CMR12;-inkscape-font-specification:CMR12;writing-mode:lr-tb;fill:#231f20;fill-opacity:1;fill-rule:nonzero;stroke:none"
               transform="matrix(1,0,0,-1,164.36951,123.33469)"><tspan
                 id="tspan60"
                 y="0"
                 x="0">(</tspan></text>
<text
               id="text66"
               style="font-variant:normal;font-weight:normal;font-size:11.95500088px;font-family:CMMI12;-inkscape-font-specification:CMMI12;writing-mode:lr-tb;fill:#231f20;fill-opacity:1;fill-rule:nonzero;stroke:none"
               transform="matrix(1,0,0,-1,168.92197,123.33469)"><tspan
                 id="tspan64"
                 y="0"
                 x="0">x</tspan></text>
<text
               id="text70"
               style="font-variant:normal;font-weight:normal;font-size:11.95500088px;font-family:CMR12;-inkscape-font-specification:CMR12;writing-mode:lr-tb;fill:#231f20;fill-opacity:1;fill-rule:nonzero;stroke:none"
               transform="matrix(1,0,0,-1,175.57373,123.33469)"><tspan
                 id="tspan68"
                 y="0"
                 x="0">)</tspan></text>
<text
               id="text74"
               style="font-variant:normal;font-weight:normal;font-size:11.95500088px;font-family:CMR12;-inkscape-font-specification:CMR12;writing-mode:lr-tb;fill:#231f20;fill-opacity:1;fill-rule:nonzero;stroke:none"
               transform="matrix(1,0,0,-1,183.4473,123.33469)"><tspan
                 id="tspan72"
                 y="0"
                 x="0">=</tspan></text>
<text
               id="text78"
               style="font-variant:normal;font-weight:normal;font-size:11.95500088px;font-family:CMR12;-inkscape-font-specification:CMR12;writing-mode:lr-tb;fill:#231f20;fill-opacity:1;fill-rule:nonzero;stroke:none"
               transform="matrix(1,0,0,-1,195.87572,123.33469)"><tspan
                 id="tspan76"
                 y="0"
                 x="0">2</tspan></text>
<text
               id="text82"
               style="font-variant:normal;font-weight:normal;font-size:11.95500088px;font-family:CMMI12;-inkscape-font-specification:CMMI12;writing-mode:lr-tb;fill:#231f20;fill-opacity:1;fill-rule:nonzero;stroke:none"
               transform="matrix(1,0,0,-1,201.7253,123.33469)"><tspan
                 id="tspan80"
                 y="0"
                 x="0">x</tspan></text>
<text
               id="text86"
               style="font-variant:normal;font-weight:normal;font-size:11.95500088px;font-family:CMR12;-inkscape-font-specification:CMR12;writing-mode:lr-tb;fill:#231f20;fill-opacity:1;fill-rule:nonzero;stroke:none"
               transform="matrix(1,0,0,-1,211.03346,123.33469)"><tspan
                 id="tspan84"
                 y="0"
                 x="0">+</tspan></text>
<text
               id="text90"
               style="font-variant:normal;font-weight:normal;font-size:11.95500088px;font-family:CMR12;-inkscape-font-specification:CMR12;writing-mode:lr-tb;fill:#231f20;fill-opacity:1;fill-rule:nonzero;stroke:none"
               transform="matrix(1,0,0,-1,222.7948,123.33469)"><tspan
                 id="tspan88"
                 y="0"
                 x="0">7</tspan></text>
<text
               id="text94"
               style="font-variant:normal;font-weight:normal;font-size:11.95500088px;font-family:CMMI12;-inkscape-font-specification:CMMI12;writing-mode:lr-tb;fill:#231f20;fill-opacity:1;fill-rule:nonzero;stroke:none"
               transform="matrix(1,0,0,-1,172.88506,19.001015)"><tspan
                 id="tspan92"
                 y="0"
                 x="0">n</tspan></text>
<text
               id="text98"
               style="font-variant:normal;font-weight:normal;font-size:11.95500088px;font-family:CMR12;-inkscape-font-specification:CMR12;writing-mode:lr-tb;fill:#231f20;fill-opacity:1;fill-rule:nonzero;stroke:none"
               transform="matrix(1,0,0,-1,65.773033,3.0004416)"><tspan
                 id="tspan96"
                 y="0"
                 x="0">1</tspan></text>
<text
               id="text102"
               style="font-variant:normal;font-weight:normal;font-size:11.95500088px;font-family:CMR12;-inkscape-font-specification:CMR12;writing-mode:lr-tb;fill:#231f20;fill-opacity:1;fill-rule:nonzero;stroke:none"
               transform="matrix(1,0,0,-1,100.19507,3.0004416)"><tspan
                 id="tspan100"
                 y="0"
                 x="0">2</tspan></text>
<text
               id="text106"
               style="font-variant:normal;font-weight:normal;font-size:11.95500088px;font-family:CMR12;-inkscape-font-specification:CMR12;writing-mode:lr-tb;fill:#231f20;fill-opacity:1;fill-rule:nonzero;stroke:none"
               transform="matrix(1,0,0,-1,134.6171,3.333986)"><tspan
                 id="tspan104"
                 y="0"
                 x="0">3</tspan></text>
<path
               id="path108"
               style="fill:#231f20;fill-opacity:1;fill-rule:nonzero;stroke:none"
               d="M 69.085007,14.026001 V 90.019005" /><path
               id="path110"
               style="fill:none;stroke:#231f20;stroke-width:1;stroke-linecap:butt;stroke-linejoin:miter;stroke-miterlimit:4;stroke-dasharray:3, 3, 3, 3, 3, 3;stroke-dashoffset:0;stroke-opacity:1"
               d="M 69.085007,14.026001 V 90.019005" /><path
               id="path112"
               style="fill:#231f20;fill-opacity:1;fill-rule:nonzero;stroke:none"
               d="M 103.41901,13.693001 V 104.79401" /><path
               id="path114"
               style="fill:none;stroke:#231f20;stroke-width:1;stroke-linecap:butt;stroke-linejoin:miter;stroke-miterlimit:4;stroke-dasharray:3, 3, 3, 3, 3, 3;stroke-dashoffset:0;stroke-opacity:1"
               d="M 103.41901,13.693001 V 104.79401" /><path
               id="path116"
               style="fill:#231f20;fill-opacity:1;fill-rule:nonzero;stroke:none"
               d="M 137.77701,14.018001 V 121.35201" /><path
               id="path118"
               style="fill:none;stroke:#231f20;stroke-width:1;stroke-linecap:butt;stroke-linejoin:miter;stroke-miterlimit:4;stroke-dasharray:3, 3, 3, 3, 3, 3;stroke-dashoffset:0;stroke-opacity:1"
               d="M 137.77701,14.018001 V 121.35201" /><path
               id="path120"
               style="fill:#231f20;fill-opacity:1;fill-rule:nonzero;stroke:none"
               d="m 139.78,121.355 c 0,-1.10399 -0.894,-2 -2,-2 -1.103,0 -2,0.89601 -2,2 0,1.105 0.897,2 2,2 1.106,0 2,-0.895 2,-2" /><path
               id="path122"
               style="fill:none;stroke:#231f20;stroke-width:1;stroke-linecap:butt;stroke-linejoin:miter;stroke-miterlimit:4;stroke-dasharray:none;stroke-opacity:1"
               d="m 139.78,121.355 c 0,-1.10399 -0.894,-2 -2,-2 -1.103,0 -2,0.89601 -2,2 0,1.105 0.897,2 2,2 1.106,0 2,-0.895 2,-2 z" /><path
               id="path124"
               style="fill:#231f20;fill-opacity:1;fill-rule:nonzero;stroke:none"
               d="m 70.889,88.564003 c 0,-1.104996 -0.895996,-2 -2,-2 -1.104996,0 -2,0.895004 -2,2 0,1.104004 0.895004,2 2,2 1.104004,0 2,-0.895996 2,-2" /><path
               id="path126"
               style="fill:none;stroke:#231f20;stroke-width:1;stroke-linecap:butt;stroke-linejoin:miter;stroke-miterlimit:4;stroke-dasharray:none;stroke-opacity:1"
               d="m 70.889,88.564003 c 0,-1.104996 -0.895996,-2 -2,-2 -1.104996,0 -2,0.895004 -2,2 0,1.104004 0.895004,2 2,2 1.104004,0 2,-0.895996 2,-2 z" /><path
               id="path128"
               style="fill:#231f20;fill-opacity:1;fill-rule:nonzero;stroke:none"
               d="m 105.423,104.797 c 0,-1.10399 -0.89699,-2 -2.001,-2 -1.10399,0 -2,0.89601 -2,2 0,1.10401 0.89601,2 2,2 1.10401,0 2.001,-0.89599 2.001,-2" /><path
               id="path130"
               style="fill:none;stroke:#231f20;stroke-width:1;stroke-linecap:butt;stroke-linejoin:miter;stroke-miterlimit:4;stroke-dasharray:none;stroke-opacity:1"
               d="m 105.423,104.797 c 0,-1.10399 -0.89699,-2 -2.001,-2 -1.10399,0 -2,0.89601 -2,2 0,1.10401 0.89601,2 2,2 1.10401,0 2.001,-0.89599 2.001,-2 z" /><path
               id="path132"
               style="fill:none;stroke:#231f20;stroke-width:1;stroke-linecap:butt;stroke-linejoin:miter;stroke-miterlimit:4;stroke-dasharray:6, 6, 6, 6, 6, 6;stroke-dashoffset:0;stroke-opacity:1"
               d="m 154.444,64.685005 h 55.66701" /><path
               id="path134"
               style="fill:#231f20;fill-opacity:1;fill-rule:nonzero;stroke:none"
               d="m 212.47401,65.709999 c -1.65499,0.5 -2.729,0.959999 -4.055,1.492004 v -5.045002 c 0.475,0.226002 2.40001,0.992997 4.055,1.492001 1.769,0.535004 3.37301,0.900002 4.41401,1.030998 -1.041,0.129998 -2.64501,0.496003 -4.41401,1.029999" /><text
               id="text138"
               style="font-variant:normal;font-weight:normal;font-size:11.95500088px;font-family:CMR12;-inkscape-font-specification:CMR12;writing-mode:lr-tb;fill:#231f20;fill-opacity:1;fill-rule:nonzero;stroke:none"
               transform="matrix(1,0,0,-1,18.1108,101.35229)"><tspan
                 id="tspan136"
                 y="0"
                 x="0 5.8459954">11</tspan></text>
<text
               id="text142"
               style="font-variant:normal;font-weight:normal;font-size:11.95500088px;font-family:CMR12;-inkscape-font-specification:CMR12;writing-mode:lr-tb;fill:#231f20;fill-opacity:1;fill-rule:nonzero;stroke:none"
               transform="matrix(1,0,0,-1,23.11038,85.685265)"><tspan
                 id="tspan140"
                 y="0"
                 x="0">9</tspan></text>
<text
               id="text146"
               style="font-variant:normal;font-weight:normal;font-size:11.95500088px;font-family:CMR12;-inkscape-font-specification:CMR12;writing-mode:lr-tb;fill:#231f20;fill-opacity:1;fill-rule:nonzero;stroke:none"
               transform="matrix(1,0,0,-1,17.110167,117.35167)"><tspan
                 id="tspan144"
                 y="0"
                 x="0 5.8459954">13</tspan></text>
</g></g></g></g></g></svg>