<?xml version="1.0" encoding="UTF-8" standalone="no"?>
<svg
   xmlns:dc="http://purl.org/dc/elements/1.1/"
   xmlns:cc="http://creativecommons.org/ns#"
   xmlns:rdf="http://www.w3.org/1999/02/22-rdf-syntax-ns#"
   xmlns:svg="http://www.w3.org/2000/svg"
   xmlns="http://www.w3.org/2000/svg"
   viewBox="0 0 236 76"
   height="76"
   width="236"
   xml:space="preserve"
   id="svg2"
   version="1.1"><metadata
     id="metadata8"><rdf:RDF><cc:Work
         rdf:about=""><dc:format>image/svg+xml</dc:format><dc:type
           rdf:resource="http://purl.org/dc/dcmitype/StillImage" /></cc:Work></rdf:RDF></metadata><defs
     id="defs6"><clipPath
       id="clipPath24"
       clipPathUnits="userSpaceOnUse"><path
         id="path22"
         d="M 0,0 H 177 V 57 H 0 Z" /></clipPath><clipPath
       id="clipPath34"
       clipPathUnits="userSpaceOnUse"><path
         id="path32"
         d="M 0.06,0 H 177 V 56.713001 H 0.06 Z" /></clipPath></defs><g
     transform="matrix(1.3333333,0,0,-1.3333333,0,76)"
     id="g10"><g
       id="g12" /><g
       id="g14" /><g
       id="g16"><g
         id="g18"><g
           clip-path="url(#clipPath24)"
           id="g20"><g
             id="g26" /><g
             id="g28"><g
               clip-path="url(#clipPath34)"
               id="g30"><path
                 id="path36"
                 style="fill:none;stroke:#231f20;stroke-width:0.80000001;stroke-linecap:butt;stroke-linejoin:miter;stroke-miterlimit:4;stroke-dasharray:none;stroke-opacity:1"
                 d="M 0,21.9 H 177 M 28.5,22.15 c 0,-12.012 -3.581999,-21.74999999 -8,-21.74999999 -4.417999,0 -8,9.73799999 -8,21.74999999 0,12.012003 3.582001,21.750002 8,21.750002 4.418001,0 8,-9.737999 8,-21.750002 z m 114,21.750002 c 4.41901,0 8,-9.737999 8,-21.750002 0,-12.012 -3.58099,-21.74999999 -8,-21.74999999 M 20.5,43.900002 h 122 M 20.5,22.15 V 0.40000001 h 122 M 96,51.900002 h 40 m -109,0 h 46" /></g></g><g
             id="g38"><path
               id="path40"
               style="fill:#231f20;fill-opacity:1;fill-rule:nonzero;stroke:none"
               d="m 138.26801,52.883003 c -1.58701,0.479 -2.61901,0.920998 -3.892,1.432999 v -4.842999 c 0.45599,0.216 2.30499,0.953 3.892,1.431 1.699,0.514 3.23899,0.864998 4.238,0.989998 -0.99901,0.125999 -2.539,0.477001 -4.238,0.989002" /><path
               id="path42"
               style="fill:#231f20;fill-opacity:1;fill-rule:nonzero;stroke:none"
               d="m 24.732,50.917004 c 1.588,-0.479 2.620001,-0.921002 3.893002,-1.433003 v 4.843002 C 28.169001,54.111004 26.32,53.374004 24.732,52.896004 c -1.698,-0.514 -3.237999,-0.865002 -4.236999,-0.990002 0.999,-0.126003 2.538999,-0.477001 4.236999,-0.988998" /><path
               id="path44"
               style="fill:#231f20;fill-opacity:1;fill-rule:nonzero;stroke:none"
               d="m 138.26801,52.883003 c -1.58701,0.479 -2.61901,0.920998 -3.892,1.432999 v -4.842999 c 0.45599,0.216 2.30499,0.953 3.892,1.431 1.699,0.514 3.23899,0.864998 4.238,0.989998 -0.99901,0.125999 -2.539,0.477001 -4.238,0.989002" /><text
               id="text48"
               style="font-variant:normal;font-weight:normal;font-size:11.95500088px;font-family:CMMI12;-inkscape-font-specification:CMMI12;writing-mode:lr-tb;fill:#231f20;fill-opacity:1;fill-rule:nonzero;stroke:none"
               transform="matrix(1,0,0,-1,82.874001,47.747097)"><tspan
                 id="tspan46"
                 y="0"
                 x="0">l</tspan></text>
<text
               id="text52"
               style="font-variant:normal;font-weight:normal;font-size:11.95500088px;font-family:CMMI12;-inkscape-font-specification:CMMI12;writing-mode:lr-tb;fill:#231f20;fill-opacity:1;fill-rule:nonzero;stroke:none"
               transform="matrix(1,0,0,-1,14.999486,10.399673)"><tspan
                 id="tspan50"
                 y="0"
                 x="0">r</tspan></text>
</g></g></g></g></g></svg>