<?xml version="1.0" encoding="UTF-8" standalone="no"?>
<svg
   xmlns:dc="http://purl.org/dc/elements/1.1/"
   xmlns:cc="http://creativecommons.org/ns#"
   xmlns:rdf="http://www.w3.org/1999/02/22-rdf-syntax-ns#"
   xmlns:svg="http://www.w3.org/2000/svg"
   xmlns="http://www.w3.org/2000/svg"
   viewBox="0 0 328 256"
   height="256"
   width="328"
   xml:space="preserve"
   id="svg2"
   version="1.1"><metadata
     id="metadata8"><rdf:RDF><cc:Work
         rdf:about=""><dc:format>image/svg+xml</dc:format><dc:type
           rdf:resource="http://purl.org/dc/dcmitype/StillImage" /></cc:Work></rdf:RDF></metadata><defs
     id="defs6"><clipPath
       id="clipPath24"
       clipPathUnits="userSpaceOnUse"><path
         id="path22"
         d="M 0,0 H 246 V 192 H 0 Z" /></clipPath></defs><g
     transform="matrix(1.3333333,0,0,-1.3333333,0,256)"
     id="g10"><g
       id="g12" /><g
       id="g14" /><g
       id="g16"><g
         id="g18"><g
           clip-path="url(#clipPath24)"
           id="g20"><g
             id="g26" /><g
             id="g28"><path
               id="path30"
               style="fill:none;stroke:#000000;stroke-width:0.44999999;stroke-linecap:butt;stroke-linejoin:round;stroke-miterlimit:10;stroke-dasharray:none;stroke-opacity:1"
               d="m 114.42,13.36 v -2.7 m 9.113,2.7 v -2.7 m 9.112,2.7 v -2.7 m 9.15001,2.7 v -2.7 m 9.11299,2.7 v -2.7 m 9.14901,2.7 v -2.7 m 9.11299,2.7 v -2.7 M 21.758001,15.685 h 2.700001 m -1.35,1.350002 V 14.335001 M 21.758001,19.885 h 2.700001 m -1.35,1.350001 v -2.699999 m -1.350001,9.299 h 2.700001 m -1.35,1.350999 v -2.701 m -1.350001,15.600002 h 2.700001 m -1.35,1.350998 v -2.701 m -1.350001,25.800003 h 2.700001 m -1.35,1.349999 v -2.699997 m -1.350001,41.137004 h 2.700001 m -1.35,1.35099 v -2.69999 m -1.350001,65.099 h 2.700001 m -1.35,1.35 v -2.7" /><path
               id="path32"
               style="fill:none;stroke:#000000;stroke-width:1;stroke-linecap:butt;stroke-linejoin:round;stroke-miterlimit:4;stroke-dasharray:none;stroke-opacity:1"
               d="m 114.008,17.691 v -3.599999 m -1.79999,1.8 h 3.6 m 7.8,6 V 18.291 m -1.8,1.800002 h 3.59999 m 7.05001,9.975 v -3.6 m -1.80001,1.799999 h 3.60001 m 7.425,15.750002 V 40.416 m -1.8,1.800003 h 3.59999 m 7.31201,26.550003 V 65.166 m -1.8,1.800003 h 3.59999 m 7.42499,41.399007 v -3.6 M 158.22,106.565 h 3.59999 m 7.08702,64.42499 V 167.39 m -1.8,1.8 h 3.59999" /><text
               id="text36"
               style="font-variant:normal;font-weight:normal;font-size:10.04209995px;font-family:CMR10;-inkscape-font-specification:CMR10;writing-mode:lr-tb;fill:#000000;fill-opacity:1;fill-rule:nonzero;stroke:none"
               transform="matrix(1,0,0,-1,6.2976999,26.6908)"><tspan
                 id="tspan34"
                 y="0"
                 x="0">4</tspan></text>
<text
               id="text40"
               style="font-variant:normal;font-weight:normal;font-size:10.04209995px;font-family:CMMI10;-inkscape-font-specification:CMMI10;writing-mode:lr-tb;fill:#000000;fill-opacity:1;fill-rule:nonzero;stroke:none"
               transform="matrix(1,0,0,-1,11.31875,26.6908)"><tspan
                 id="tspan38"
                 y="0"
                 x="0">.</tspan></text>
<text
               id="text44"
               style="font-variant:normal;font-weight:normal;font-size:10.04209995px;font-family:CMR10;-inkscape-font-specification:CMR10;writing-mode:lr-tb;fill:#000000;fill-opacity:1;fill-rule:nonzero;stroke:none"
               transform="matrix(1,0,0,-1,14.108446,26.6908)"><tspan
                 id="tspan42"
                 y="0"
                 x="0">3</tspan></text>
<text
               id="text48"
               style="font-variant:normal;font-weight:normal;font-size:10.04209995px;font-family:CMR10;-inkscape-font-specification:CMR10;writing-mode:lr-tb;fill:#000000;fill-opacity:1;fill-rule:nonzero;stroke:none"
               transform="matrix(1,0,0,-1,1.6271199,40.617184)"><tspan
                 id="tspan46"
                 y="0"
                 x="0">8</tspan></text>
<text
               id="text52"
               style="font-variant:normal;font-weight:normal;font-size:10.04209995px;font-family:CMMI10;-inkscape-font-specification:CMMI10;writing-mode:lr-tb;fill:#000000;fill-opacity:1;fill-rule:nonzero;stroke:none"
               transform="matrix(1,0,0,-1,6.64817,40.617184)"><tspan
                 id="tspan50"
                 y="0"
                 x="0">.</tspan></text>
<text
               id="text56"
               style="font-variant:normal;font-weight:normal;font-size:10.04209995px;font-family:CMR10;-inkscape-font-specification:CMR10;writing-mode:lr-tb;fill:#000000;fill-opacity:1;fill-rule:nonzero;stroke:none"
               transform="matrix(1,0,0,-1,9.4378653,40.617184)"><tspan
                 id="tspan54"
                 y="0"
                 x="0 5.02105">16</tspan></text>
<text
               id="text60"
               style="font-variant:normal;font-weight:normal;font-size:10.04209995px;font-family:CMR10;-inkscape-font-specification:CMR10;writing-mode:lr-tb;fill:#000000;fill-opacity:1;fill-rule:nonzero;stroke:none"
               transform="matrix(1,0,0,-1,1.2766509,64.490265)"><tspan
                 id="tspan58"
                 y="0"
                 x="0 5.02105">14</tspan></text>
<text
               id="text64"
               style="font-variant:normal;font-weight:normal;font-size:10.04209995px;font-family:CMMI10;-inkscape-font-specification:CMMI10;writing-mode:lr-tb;fill:#000000;fill-opacity:1;fill-rule:nonzero;stroke:none"
               transform="matrix(1,0,0,-1,11.31875,64.490265)"><tspan
                 id="tspan62"
                 y="0"
                 x="0">.</tspan></text>
<text
               id="text68"
               style="font-variant:normal;font-weight:normal;font-size:10.04209995px;font-family:CMR10;-inkscape-font-specification:CMR10;writing-mode:lr-tb;fill:#000000;fill-opacity:1;fill-rule:nonzero;stroke:none"
               transform="matrix(1,0,0,-1,14.108446,64.490265)"><tspan
                 id="tspan66"
                 y="0"
                 x="0">8</tspan></text>
<text
               id="text72"
               style="font-variant:normal;font-weight:normal;font-size:10.04209995px;font-family:CMR10;-inkscape-font-specification:CMR10;writing-mode:lr-tb;fill:#000000;fill-opacity:1;fill-rule:nonzero;stroke:none"
               transform="matrix(1,0,0,-1,1.0989064,104.24593)"><tspan
                 id="tspan70"
                 y="0"
                 x="0 5.02105">25</tspan></text>
<text
               id="text76"
               style="font-variant:normal;font-weight:normal;font-size:10.04209995px;font-family:CMMI10;-inkscape-font-specification:CMMI10;writing-mode:lr-tb;fill:#000000;fill-opacity:1;fill-rule:nonzero;stroke:none"
               transform="matrix(1,0,0,-1,11.141006,104.24593)"><tspan
                 id="tspan74"
                 y="0"
                 x="0">.</tspan></text>
<text
               id="text80"
               style="font-variant:normal;font-weight:normal;font-size:10.04209995px;font-family:CMR10;-inkscape-font-specification:CMR10;writing-mode:lr-tb;fill:#000000;fill-opacity:1;fill-rule:nonzero;stroke:none"
               transform="matrix(1,0,0,-1,13.930702,104.24593)"><tspan
                 id="tspan78"
                 y="0"
                 x="0">6</tspan></text>
<text
               id="text84"
               style="font-variant:normal;font-weight:normal;font-size:10.04209995px;font-family:CMR10;-inkscape-font-specification:CMR10;writing-mode:lr-tb;fill:#000000;fill-opacity:1;fill-rule:nonzero;stroke:none"
               transform="matrix(1,0,0,-1,0.37688017,167.0894)"><tspan
                 id="tspan82"
                 y="0"
                 x="0 5.02105">42</tspan></text>
<text
               id="text88"
               style="font-variant:normal;font-weight:normal;font-size:10.04209995px;font-family:CMMI10;-inkscape-font-specification:CMMI10;writing-mode:lr-tb;fill:#000000;fill-opacity:1;fill-rule:nonzero;stroke:none"
               transform="matrix(1,0,0,-1,10.41898,167.0894)"><tspan
                 id="tspan86"
                 y="0"
                 x="0">.</tspan></text>
<text
               id="text92"
               style="font-variant:normal;font-weight:normal;font-size:10.04209995px;font-family:CMR10;-inkscape-font-specification:CMR10;writing-mode:lr-tb;fill:#000000;fill-opacity:1;fill-rule:nonzero;stroke:none"
               transform="matrix(1,0,0,-1,13.207671,167.0894)"><tspan
                 id="tspan90"
                 y="0"
                 x="0">9</tspan></text>
<text
               id="text96"
               style="font-variant:normal;font-weight:normal;font-size:10.04209995px;font-family:CMR10;-inkscape-font-specification:CMR10;writing-mode:lr-tb;fill:#000000;fill-opacity:1;fill-rule:nonzero;stroke:none"
               transform="matrix(1,0,0,-1,105.29674,3.2907085)"><tspan
                 id="tspan94"
                 y="0"
                 x="0">1</tspan></text>
<text
               id="text100"
               style="font-variant:normal;font-weight:normal;font-size:10.04209995px;font-family:CMMI10;-inkscape-font-specification:CMMI10;writing-mode:lr-tb;fill:#000000;fill-opacity:1;fill-rule:nonzero;stroke:none"
               transform="matrix(1,0,0,-1,110.31779,3.2907085)"><tspan
                 id="tspan98"
                 y="0"
                 x="0">.</tspan></text>
<text
               id="text104"
               style="font-variant:normal;font-weight:normal;font-size:10.04209995px;font-family:CMR10;-inkscape-font-specification:CMR10;writing-mode:lr-tb;fill:#000000;fill-opacity:1;fill-rule:nonzero;stroke:none"
               transform="matrix(1,0,0,-1,113.10748,3.2907085)"><tspan
                 id="tspan102"
                 y="0"
                 x="0">0</tspan></text>
<text
               id="text108"
               style="font-variant:normal;font-weight:normal;font-size:10.04209995px;font-family:CMR10;-inkscape-font-specification:CMR10;writing-mode:lr-tb;fill:#000000;fill-opacity:1;fill-rule:nonzero;stroke:none"
               transform="matrix(1,0,0,-1,164.69676,4.1904807)"><tspan
                 id="tspan106"
                 y="0"
                 x="0">1</tspan></text>
<text
               id="text112"
               style="font-variant:normal;font-weight:normal;font-size:10.04209995px;font-family:CMMI10;-inkscape-font-specification:CMMI10;writing-mode:lr-tb;fill:#000000;fill-opacity:1;fill-rule:nonzero;stroke:none"
               transform="matrix(1,0,0,-1,169.71782,4.1904807)"><tspan
                 id="tspan110"
                 y="0"
                 x="0">.</tspan></text>
<text
               id="text116"
               style="font-variant:normal;font-weight:normal;font-size:10.04209995px;font-family:CMR10;-inkscape-font-specification:CMR10;writing-mode:lr-tb;fill:#000000;fill-opacity:1;fill-rule:nonzero;stroke:none"
               transform="matrix(1,0,0,-1,172.50751,4.1904807)"><tspan
                 id="tspan114"
                 y="0"
                 x="0">6</tspan></text>
<text
               id="text120"
               style="font-variant:normal;font-weight:normal;font-size:14.34589958px;font-family:CMMI10;-inkscape-font-specification:CMMI10;writing-mode:lr-tb;fill:#000000;fill-opacity:1;fill-rule:nonzero;stroke:none"
               transform="matrix(1,0,0,-1,237.57059,8.8178997)"><tspan
                 id="tspan118"
                 y="0"
                 x="0">x</tspan></text>
<text
               id="text124"
               style="font-variant:normal;font-weight:normal;font-size:14.34589958px;font-family:CMMI10;-inkscape-font-specification:CMMI10;writing-mode:lr-tb;fill:#000000;fill-opacity:1;fill-rule:nonzero;stroke:none"
               transform="matrix(1,0,0,-1,28.345684,180.26717)"><tspan
                 id="tspan122"
                 y="0"
                 x="0">y</tspan></text>
<path
               id="path126"
               style="fill:none;stroke:#000000;stroke-width:0.90000004;stroke-linecap:butt;stroke-linejoin:round;stroke-miterlimit:4;stroke-dasharray:none;stroke-opacity:1"
               d="M 22.527,11.935 H 224.12601" /><path
               id="path128"
               style="fill:#000000;fill-opacity:1;fill-rule:nonzero;stroke:none"
               d="m 223.395,12.066001 -1.97099,3.242 0.11,0.074 5.288,-2.1 c 1.84201,-0.406001 3.68499,-0.811 5.527,-1.216 C 230.507,11.661 228.66402,11.255 226.82201,10.849999 l -5.288,-2.099999 -0.11,0.055 1.97099,3.261001" /><path
               id="path130"
               style="fill:none;stroke:#000000;stroke-width:0.90000004;stroke-linecap:butt;stroke-linejoin:round;stroke-miterlimit:4;stroke-dasharray:none;stroke-opacity:1"
               d="m 23.141001,11.841001 -0.026,167.624009" /><path
               id="path132"
               style="fill:#000000;fill-opacity:1;fill-rule:nonzero;stroke:none"
               d="m 23.054001,178.37801 -3.242001,-1.972 -0.074,0.111 2.099001,5.288 c 0.404999,1.84199 0.809999,3.684 1.215,5.526 0.405998,-1.842 0.810999,-3.68401 1.216999,-5.526 l 2.100998,-5.287 -0.055,-0.111 -3.261,1.971" /><path
               id="path134"
               style="fill:none;stroke:#000000;stroke-width:0.35999998;stroke-linecap:butt;stroke-linejoin:miter;stroke-miterlimit:4;stroke-dasharray:2.7, 2.7, 2.7, 2.7, 2.7, 2.7;stroke-dashoffset:0;stroke-opacity:1"
               d="M 145.50801,8.2410002 V 79.339996" /><path
               id="path136"
               style="fill:none;stroke:#000000;stroke-width:0.35999998;stroke-linecap:butt;stroke-linejoin:miter;stroke-miterlimit:4;stroke-dasharray:2.7, 2.7, 2.7, 2.7, 2.7, 2.7;stroke-dashoffset:0;stroke-opacity:1"
               d="M 159.007,54.141003 H 17.258001" /><path
               id="path138"
               style="fill:#231f20;fill-opacity:1;fill-rule:nonzero;stroke:none"
               d="m 141.457,42.891003 9,24.750003" /></g></g></g></g></g></svg>