<?xml version="1.0" encoding="UTF-8" standalone="no"?>
<svg
   xmlns:dc="http://purl.org/dc/elements/1.1/"
   xmlns:cc="http://creativecommons.org/ns#"
   xmlns:rdf="http://www.w3.org/1999/02/22-rdf-syntax-ns#"
   xmlns:svg="http://www.w3.org/2000/svg"
   xmlns="http://www.w3.org/2000/svg"
   viewBox="0 0 630.66669 854.66669"
   height="854.66669"
   width="630.66669"
   xml:space="preserve"
   id="svg2"
   version="1.1"><metadata
     id="metadata8"><rdf:RDF><cc:Work
         rdf:about=""><dc:format>image/svg+xml</dc:format><dc:type
           rdf:resource="http://purl.org/dc/dcmitype/StillImage" /></cc:Work></rdf:RDF></metadata><defs
     id="defs6"><clipPath
       id="clipPath24"
       clipPathUnits="userSpaceOnUse"><path
         id="path22"
         d="M 0,0 H 473 V 641 H 0 Z" /></clipPath></defs><g
     transform="matrix(1.3333333,0,0,-1.3333333,0,854.66667)"
     id="g10"><g
       id="g12" /><g
       id="g14" /><g
       id="g16"><g
         id="g18"><g
           clip-path="url(#clipPath24)"
           id="g20"><g
             id="g26" /><g
             id="g28"><path
               id="path30"
               style="fill:none;stroke:#000000;stroke-width:1.5;stroke-linecap:butt;stroke-linejoin:round;stroke-miterlimit:4;stroke-dasharray:none;stroke-opacity:1"
               d="M 23.042002,610.979 H 420.16702 M 23.229002,383.52103 H 419.91702 M 23.042002,441.68802 H 420.04202 M 23.229002,478.85403 H 419.97903 M 23.042002,509.68701 H 419.79202 M 23.229002,535.854 H 419.97903" /><path
               id="path32"
               style="fill:none;stroke:#000000;stroke-width:0.40000001;stroke-linecap:butt;stroke-linejoin:round;stroke-miterlimit:4;stroke-dasharray:none;stroke-opacity:1"
               d="M 22.979002,558.70801 H 420.06302" /><path
               id="path34"
               style="fill:none;stroke:#000000;stroke-width:1.5;stroke-linecap:butt;stroke-linejoin:round;stroke-miterlimit:4;stroke-dasharray:none;stroke-opacity:1"
               d="M 23.229002,578.56201 H 419.97903 M 23.229002,596.5 H 420.04202" /><path
               id="path36"
               style="fill:none;stroke:#000000;stroke-width:0.40000001;stroke-linecap:butt;stroke-linejoin:round;stroke-miterlimit:4;stroke-dasharray:none;stroke-opacity:1"
               d="m 78.042007,314.229 v 297 M 420.04202,313.979 v 297 m -56.5,-297.25 v 297 m -57.5,-297 v 297 m -57.00001,-296.5 v 297 m -57,-296.5 v 296.25 m -57,-296.75 v 297 M 23.104002,313.79202 v 297.37503" /><text
               id="text40"
               style="font-variant:normal;font-weight:normal;font-size:11.95500088px;font-family:CMR12;-inkscape-font-specification:CMR12;writing-mode:lr-tb;fill:#231f20;fill-opacity:1;fill-rule:nonzero;stroke:none"
               transform="matrix(1,0,0,-1,13.2239,84.739296)"><tspan
                 id="tspan38"
                 y="0"
                 x="0">2</tspan></text>
<text
               id="text44"
               style="font-variant:normal;font-weight:normal;font-size:11.95500088px;font-family:CMR12;-inkscape-font-specification:CMR12;writing-mode:lr-tb;fill:#231f20;fill-opacity:1;fill-rule:nonzero;stroke:none"
               transform="matrix(1,0,0,-1,12.978823,143.23871)"><tspan
                 id="tspan42"
                 y="0"
                 x="0">3</tspan></text>
<text
               id="text48"
               style="font-variant:normal;font-weight:normal;font-size:11.95500088px;font-family:CMR12;-inkscape-font-specification:CMR12;writing-mode:lr-tb;fill:#231f20;fill-opacity:1;fill-rule:nonzero;stroke:none"
               transform="matrix(1,0,0,-1,13.233464,180.23824)"><tspan
                 id="tspan46"
                 y="0"
                 x="0">4</tspan></text>
<text
               id="text52"
               style="font-variant:normal;font-weight:normal;font-size:11.95500088px;font-family:CMR12;-inkscape-font-specification:CMR12;writing-mode:lr-tb;fill:#231f20;fill-opacity:1;fill-rule:nonzero;stroke:none"
               transform="matrix(1,0,0,-1,12.988387,211.23874)"><tspan
                 id="tspan50"
                 y="0"
                 x="0">5</tspan></text>
<text
               id="text56"
               style="font-variant:normal;font-weight:normal;font-size:11.95500088px;font-family:CMR12;-inkscape-font-specification:CMR12;writing-mode:lr-tb;fill:#231f20;fill-opacity:1;fill-rule:nonzero;stroke:none"
               transform="matrix(1,0,0,-1,13.243029,236.73875)"><tspan
                 id="tspan54"
                 y="0"
                 x="0">6</tspan></text>
<text
               id="text60"
               style="font-variant:normal;font-weight:normal;font-size:11.95500088px;font-family:CMR12;-inkscape-font-specification:CMR12;writing-mode:lr-tb;fill:#231f20;fill-opacity:1;fill-rule:nonzero;stroke:none"
               transform="matrix(1,0,0,-1,12.997952,260.23871)"><tspan
                 id="tspan58"
                 y="0"
                 x="0">7</tspan></text>
<text
               id="text64"
               style="font-variant:normal;font-weight:normal;font-size:11.95500088px;font-family:CMR12;-inkscape-font-specification:CMR12;writing-mode:lr-tb;fill:#231f20;fill-opacity:1;fill-rule:nonzero;stroke:none"
               transform="matrix(1,0,0,-1,13.252593,280.23822)"><tspan
                 id="tspan62"
                 y="0"
                 x="0">8</tspan></text>
<text
               id="text68"
               style="font-variant:normal;font-weight:normal;font-size:11.95500088px;font-family:CMR12;-inkscape-font-specification:CMR12;writing-mode:lr-tb;fill:#231f20;fill-opacity:1;fill-rule:nonzero;stroke:none"
               transform="matrix(1,0,0,-1,13.507235,297.73795)"><tspan
                 id="tspan66"
                 y="0"
                 x="0">9</tspan></text>
<text
               id="text72"
               style="font-variant:normal;font-weight:normal;font-size:11.95500088px;font-family:CMR12;-inkscape-font-specification:CMR12;writing-mode:lr-tb;fill:#231f20;fill-opacity:1;fill-rule:nonzero;stroke:none"
               transform="matrix(1,0,0,-1,8.5255861,312.47726)"><tspan
                 id="tspan70"
                 y="0"
                 x="0 5.8579507">10</tspan></text>
<text
               id="text76"
               style="font-variant:normal;font-weight:normal;font-size:11.95500088px;font-family:CMR12;-inkscape-font-specification:CMR12;writing-mode:lr-tb;fill:#231f20;fill-opacity:1;fill-rule:nonzero;stroke:none"
               transform="matrix(1,0,0,-1,74.3283,3.87925)"><tspan
                 id="tspan74"
                 y="0"
                 x="0">1</tspan></text>
<text
               id="text80"
               style="font-variant:normal;font-weight:normal;font-size:11.95500088px;font-family:CMR12;-inkscape-font-specification:CMR12;writing-mode:lr-tb;fill:#231f20;fill-opacity:1;fill-rule:nonzero;stroke:none"
               transform="matrix(1,0,0,-1,131.4218,3.87925)"><tspan
                 id="tspan78"
                 y="0"
                 x="0">2</tspan></text>
<text
               id="text84"
               style="font-variant:normal;font-weight:normal;font-size:11.95500088px;font-family:CMR12;-inkscape-font-specification:CMR12;writing-mode:lr-tb;fill:#231f20;fill-opacity:1;fill-rule:nonzero;stroke:none"
               transform="matrix(1,0,0,-1,188.51529,3.87925)"><tspan
                 id="tspan82"
                 y="0"
                 x="0">3</tspan></text>
<text
               id="text88"
               style="font-variant:normal;font-weight:normal;font-size:11.95500088px;font-family:CMR12;-inkscape-font-specification:CMR12;writing-mode:lr-tb;fill:#231f20;fill-opacity:1;fill-rule:nonzero;stroke:none"
               transform="matrix(1,0,0,-1,245.6088,3.87925)"><tspan
                 id="tspan86"
                 y="0"
                 x="0">4</tspan></text>
<text
               id="text92"
               style="font-variant:normal;font-weight:normal;font-size:11.95500088px;font-family:CMR12;-inkscape-font-specification:CMR12;writing-mode:lr-tb;fill:#231f20;fill-opacity:1;fill-rule:nonzero;stroke:none"
               transform="matrix(1,0,0,-1,302.03522,3.87925)"><tspan
                 id="tspan90"
                 y="0"
                 x="0">5</tspan></text>
<text
               id="text96"
               style="font-variant:normal;font-weight:normal;font-size:11.95500088px;font-family:CMR12;-inkscape-font-specification:CMR12;writing-mode:lr-tb;fill:#231f20;fill-opacity:1;fill-rule:nonzero;stroke:none"
               transform="matrix(1,0,0,-1,359.76947,4.546339)"><tspan
                 id="tspan94"
                 y="0"
                 x="0">6</tspan></text>
<text
               id="text100"
               style="font-variant:normal;font-weight:normal;font-size:11.95500088px;font-family:CMR12;-inkscape-font-specification:CMR12;writing-mode:lr-tb;fill:#231f20;fill-opacity:1;fill-rule:nonzero;stroke:none"
               transform="matrix(1,0,0,-1,415.99982,4.9994335)"><tspan
                 id="tspan98"
                 y="0"
                 x="0">7</tspan></text>
<text
               id="text104"
               style="font-variant:normal;font-weight:normal;font-size:11.95500088px;font-family:CMR12;-inkscape-font-specification:CMR12;writing-mode:lr-tb;fill:#231f20;fill-opacity:1;fill-rule:nonzero;stroke:none"
               transform="matrix(1,0,0,-1,5.9994807,379.99911)"><tspan
                 id="tspan102"
                 y="0"
                 x="0 5.8579507">20</tspan></text>
<text
               id="text108"
               style="font-variant:normal;font-weight:normal;font-size:11.95500088px;font-family:CMR12;-inkscape-font-specification:CMR12;writing-mode:lr-tb;fill:#231f20;fill-opacity:1;fill-rule:nonzero;stroke:none"
               transform="matrix(1,0,0,-1,5.7544031,438.49973)"><tspan
                 id="tspan106"
                 y="0"
                 x="0 5.8579507">30</tspan></text>
<text
               id="text112"
               style="font-variant:normal;font-weight:normal;font-size:11.95500088px;font-family:CMR12;-inkscape-font-specification:CMR12;writing-mode:lr-tb;fill:#231f20;fill-opacity:1;fill-rule:nonzero;stroke:none"
               transform="matrix(1,0,0,-1,6.0090446,475.49927)"><tspan
                 id="tspan110"
                 y="0"
                 x="0 5.8579507">40</tspan></text>
<text
               id="text116"
               style="font-variant:normal;font-weight:normal;font-size:11.95500088px;font-family:CMR12;-inkscape-font-specification:CMR12;writing-mode:lr-tb;fill:#231f20;fill-opacity:1;fill-rule:nonzero;stroke:none"
               transform="matrix(1,0,0,-1,5.763967,506.49979)"><tspan
                 id="tspan114"
                 y="0"
                 x="0 5.8579507">50</tspan></text>
<text
               id="text120"
               style="font-variant:normal;font-weight:normal;font-size:11.95500088px;font-family:CMR12;-inkscape-font-specification:CMR12;writing-mode:lr-tb;fill:#231f20;fill-opacity:1;fill-rule:nonzero;stroke:none"
               transform="matrix(1,0,0,-1,6.0186086,531.99982)"><tspan
                 id="tspan118"
                 y="0"
                 x="0 5.8579507">60</tspan></text>
<text
               id="text124"
               style="font-variant:normal;font-weight:normal;font-size:11.95500088px;font-family:CMR12;-inkscape-font-specification:CMR12;writing-mode:lr-tb;fill:#231f20;fill-opacity:1;fill-rule:nonzero;stroke:none"
               transform="matrix(1,0,0,-1,5.773531,555.49976)"><tspan
                 id="tspan122"
                 y="0"
                 x="0 5.8579507">70</tspan></text>
<text
               id="text128"
               style="font-variant:normal;font-weight:normal;font-size:11.95500088px;font-family:CMR12;-inkscape-font-specification:CMR12;writing-mode:lr-tb;fill:#231f20;fill-opacity:1;fill-rule:nonzero;stroke:none"
               transform="matrix(1,0,0,-1,6.0281725,575.49927)"><tspan
                 id="tspan126"
                 y="0"
                 x="0 5.8579507">80</tspan></text>
<text
               id="text132"
               style="font-variant:normal;font-weight:normal;font-size:11.95500088px;font-family:CMR12;-inkscape-font-specification:CMR12;writing-mode:lr-tb;fill:#231f20;fill-opacity:1;fill-rule:nonzero;stroke:none"
               transform="matrix(1,0,0,-1,6.282814,592.99902)"><tspan
                 id="tspan130"
                 y="0"
                 x="0 5.8579507">90</tspan></text>
<text
               id="text136"
               style="font-variant:normal;font-weight:normal;font-size:11.95500088px;font-family:CMR12;-inkscape-font-specification:CMR12;writing-mode:lr-tb;fill:#231f20;fill-opacity:1;fill-rule:nonzero;stroke:none"
               transform="matrix(1,0,0,-1,0.53724062,605.9989)"><tspan
                 id="tspan134"
                 y="0"
                 x="0 5.8579507 11.715901">100</tspan></text>
<text
               id="text140"
               style="font-variant:normal;font-weight:normal;font-size:11.95500088px;font-family:CMR12;-inkscape-font-specification:CMR12;writing-mode:lr-tb;fill:#231f20;fill-opacity:1;fill-rule:nonzero;stroke:none"
               transform="matrix(1,0,0,-1,12.997938,17.999372)"><tspan
                 id="tspan138"
                 y="0"
                 x="0">1</tspan></text>
<path
               id="path142"
               style="fill:none;stroke:#000000;stroke-width:0.90000004;stroke-linecap:butt;stroke-linejoin:round;stroke-miterlimit:4;stroke-dasharray:none;stroke-opacity:1"
               d="M 24.156002,331.65201 H 420.84402" /><path
               id="path144"
               style="fill:none;stroke:#000000;stroke-width:0.80000001;stroke-linecap:butt;stroke-linejoin:round;stroke-miterlimit:4;stroke-dasharray:none;stroke-opacity:1"
               d="M 23.969002,345.03 H 420.96902 M 24.156002,353.57901 H 420.90601" /><path
               id="path146"
               style="fill:none;stroke:#000000;stroke-width:0.60000002;stroke-linecap:butt;stroke-linejoin:round;stroke-miterlimit:4;stroke-dasharray:none;stroke-opacity:1"
               d="M 23.969002,360.66998 H 420.71902" /><path
               id="path148"
               style="fill:none;stroke:#000000;stroke-width:0.5;stroke-linecap:butt;stroke-linejoin:round;stroke-miterlimit:4;stroke-dasharray:none;stroke-opacity:1"
               d="M 24.156002,366.68802 H 420.90601" /><path
               id="path150"
               style="fill:none;stroke:#000000;stroke-width:0.40000001;stroke-linecap:butt;stroke-linejoin:round;stroke-miterlimit:4;stroke-dasharray:none;stroke-opacity:1"
               d="M 23.906002,371.94501 H 420.98999 M 24.156002,376.51102 H 420.90601 m -396.750008,4.126 H 420.96902" /><path
               id="path152"
               style="fill:none;stroke:#000000;stroke-width:0.90000004;stroke-linecap:butt;stroke-linejoin:round;stroke-miterlimit:4;stroke-dasharray:none;stroke-opacity:1"
               d="M 23.406002,396.72302 H 420.09402" /><path
               id="path154"
               style="fill:none;stroke:#000000;stroke-width:0.80000001;stroke-linecap:butt;stroke-linejoin:round;stroke-miterlimit:4;stroke-dasharray:none;stroke-opacity:1"
               d="M 23.219002,408.16101 H 420.21902 M 23.406002,415.47 H 420.15601" /><path
               id="path156"
               style="fill:none;stroke:#000000;stroke-width:0.60000002;stroke-linecap:butt;stroke-linejoin:round;stroke-miterlimit:4;stroke-dasharray:none;stroke-opacity:1"
               d="M 23.219002,421.53302 H 419.96902" /><path
               id="path158"
               style="fill:none;stroke:#000000;stroke-width:0.5;stroke-linecap:butt;stroke-linejoin:round;stroke-miterlimit:4;stroke-dasharray:none;stroke-opacity:1"
               d="M 23.406002,426.67902 H 420.15601" /><path
               id="path160"
               style="fill:none;stroke:#000000;stroke-width:0.40000001;stroke-linecap:butt;stroke-linejoin:round;stroke-miterlimit:4;stroke-dasharray:none;stroke-opacity:1"
               d="M 23.156002,431.17303 H 420.23999 m -396.833988,3.904 H 420.15601 m -396.750008,3.527 H 420.21902 M 78.219002,383.09802 v 58.40299 M 420.21902,383.048 v 58.40403 m -56.5,-58.45301 v 58.404 m -57.5,-58.404 v 58.404 m -57.00001,-58.305 v 58.40299 m -57,-58.305 v 58.25602 m -57,-58.35401 v 58.40299 M 23.281002,383.01102 v 58.47799" /><path
               id="path162"
               style="fill:none;stroke:#000000;stroke-width:0.90000004;stroke-linecap:butt;stroke-linejoin:round;stroke-miterlimit:4;stroke-dasharray:none;stroke-opacity:1"
               d="M 23.531002,450.91501 H 420.21902" /><path
               id="path164"
               style="fill:none;stroke:#000000;stroke-width:0.80000001;stroke-linecap:butt;stroke-linejoin:round;stroke-miterlimit:4;stroke-dasharray:none;stroke-opacity:1"
               d="M 23.344002,458.00702 H 420.34402 m -396.813018,4.531 H 420.28101" /><path
               id="path166"
               style="fill:none;stroke:#000000;stroke-width:0.60000002;stroke-linecap:butt;stroke-linejoin:round;stroke-miterlimit:4;stroke-dasharray:none;stroke-opacity:1"
               d="M 23.344002,466.29703 H 420.09402" /><path
               id="path168"
               style="fill:none;stroke:#000000;stroke-width:0.5;stroke-linecap:butt;stroke-linejoin:round;stroke-miterlimit:4;stroke-dasharray:none;stroke-opacity:1"
               d="M 23.531002,469.48804 H 420.28101" /><path
               id="path170"
               style="fill:none;stroke:#000000;stroke-width:0.40000001;stroke-linecap:butt;stroke-linejoin:round;stroke-miterlimit:4;stroke-dasharray:none;stroke-opacity:1"
               d="M 23.281002,472.27402 H 420.36502 M 23.531002,474.69403 H 420.28101 M 23.531002,476.88101 H 420.34402 m -342.000018,-34.414 v 36.21002 M 420.34402,442.43701 v 36.21002 m -56.5,-36.24102 v 36.21002 m -57.5,-36.21002 v 36.21002 m -57.00001,-36.14902 v 36.21002 m -57,-36.14901 v 36.11901 m -57,-36.18002 v 36.21002 m -111.938008,-36.263 v 36.25501" /><path
               id="path172"
               style="fill:none;stroke:#000000;stroke-width:0.90000004;stroke-linecap:butt;stroke-linejoin:round;stroke-miterlimit:4;stroke-dasharray:none;stroke-opacity:1"
               d="M 23.906002,485.87997 H 420.59402" /><path
               id="path174"
               style="fill:none;stroke:#000000;stroke-width:0.80000001;stroke-linecap:butt;stroke-linejoin:round;stroke-miterlimit:4;stroke-dasharray:none;stroke-opacity:1"
               d="M 23.719002,491.90802 H 420.71902 M 23.906002,495.75998 H 420.65601" /><path
               id="path176"
               style="fill:none;stroke:#000000;stroke-width:0.60000002;stroke-linecap:butt;stroke-linejoin:round;stroke-miterlimit:4;stroke-dasharray:none;stroke-opacity:1"
               d="M 23.719002,498.95502 H 420.46902" /><path
               id="path178"
               style="fill:none;stroke:#000000;stroke-width:0.5;stroke-linecap:butt;stroke-linejoin:round;stroke-miterlimit:4;stroke-dasharray:none;stroke-opacity:1"
               d="M 23.906002,501.66702 H 420.65601" /><path
               id="path180"
               style="fill:none;stroke:#000000;stroke-width:0.40000001;stroke-linecap:butt;stroke-linejoin:round;stroke-miterlimit:4;stroke-dasharray:none;stroke-opacity:1"
               d="M 23.656002,504.03503 H 420.73999 M 23.906002,506.09201 H 420.65601 M 23.906002,507.95102 H 420.71902 M 78.719002,478.69904 v 30.77899 m 285.500018,-30.831 v 30.779 m -57.5,-30.779 v 30.779 m -57.00001,-30.72699 v 30.77899 m -57,-30.72699 v 30.70099 m -57,-30.75299 v 30.77899" /><path
               id="path182"
               style="fill:none;stroke:#000000;stroke-width:0.90000004;stroke-linecap:butt;stroke-linejoin:round;stroke-miterlimit:4;stroke-dasharray:none;stroke-opacity:1"
               d="M 23.406002,515.43304 H 420.09402" /><path
               id="path184"
               style="fill:none;stroke:#000000;stroke-width:0.80000001;stroke-linecap:butt;stroke-linejoin:round;stroke-miterlimit:4;stroke-dasharray:none;stroke-opacity:1"
               d="M 23.219002,520.55701 H 328.177 M 23.406002,523.83105 H 420.15601" /><path
               id="path186"
               style="fill:none;stroke:#000000;stroke-width:0.60000002;stroke-linecap:butt;stroke-linejoin:round;stroke-miterlimit:4;stroke-dasharray:none;stroke-opacity:1"
               d="M 23.219002,526.547 H 419.96902" /><path
               id="path188"
               style="fill:none;stroke:#000000;stroke-width:0.5;stroke-linecap:butt;stroke-linejoin:round;stroke-miterlimit:4;stroke-dasharray:none;stroke-opacity:1"
               d="M 23.406002,528.85205 H 420.15601" /><path
               id="path190"
               style="fill:none;stroke:#000000;stroke-width:0.40000001;stroke-linecap:butt;stroke-linejoin:round;stroke-miterlimit:4;stroke-dasharray:none;stroke-opacity:1"
               d="M 23.156002,530.86505 H 420.23999 M 23.406002,532.61401 H 420.15601 M 23.406002,534.19403 H 420.21902 M 78.219002,509.32901 v 26.16202 M 420.21902,509.30704 v 26.16202 m -56.5,-26.18403 v 26.16199 m -57.5,-26.16199 v 26.16199 m -57.00001,-26.11801 v 26.16202 m -57,-26.11801 v 26.09604 m -57,-26.14005 v 26.16202 M 23.281002,509.29102 v 26.19403" /><path
               id="path192"
               style="fill:none;stroke:#000000;stroke-width:1.5;stroke-linecap:butt;stroke-linejoin:round;stroke-miterlimit:4;stroke-dasharray:none;stroke-opacity:1"
               d="M 23.219002,558.99402 H 420.34402" /><path
               id="path194"
               style="fill:none;stroke:#000000;stroke-width:0.90000004;stroke-linecap:butt;stroke-linejoin:round;stroke-miterlimit:4;stroke-dasharray:none;stroke-opacity:1"
               d="M 23.406002,541.96301 H 420.09402" /><path
               id="path196"
               style="fill:none;stroke:#000000;stroke-width:0.80000001;stroke-linecap:butt;stroke-linejoin:round;stroke-miterlimit:4;stroke-dasharray:none;stroke-opacity:1"
               d="M 23.219002,546.31805 H 343 m 1.177,0 h 76.04202 M 23.406002,549.10101 H 420.15601" /><path
               id="path198"
               style="fill:none;stroke:#000000;stroke-width:0.60000002;stroke-linecap:butt;stroke-linejoin:round;stroke-miterlimit:4;stroke-dasharray:none;stroke-opacity:1"
               d="M 23.219002,551.40997 H 419.96902" /><path
               id="path200"
               style="fill:none;stroke:#000000;stroke-width:0.5;stroke-linecap:butt;stroke-linejoin:round;stroke-miterlimit:4;stroke-dasharray:none;stroke-opacity:1"
               d="M 23.406002,553.36902 H 420.15601" /><path
               id="path202"
               style="fill:none;stroke:#000000;stroke-width:0.40000001;stroke-linecap:butt;stroke-linejoin:round;stroke-miterlimit:4;stroke-dasharray:none;stroke-opacity:1"
               d="M 23.156002,555.08002 H 420.23999 m -396.833988,1.487 H 420.15601 M 78.219002,536.77502 V 559.013 M 420.21902,536.75604 v 22.23798 m -56.5,-22.25702 v 22.23804 m -57.5,-22.23804 v 22.23804 M 249.21901,536.77502 V 559.013 m -57,-22.20099 v 22.18201 m -57,-22.219 V 559.013 M 23.281002,536.742 v 22.26606" /><path
               id="path204"
               style="fill:none;stroke:#000000;stroke-width:1.5;stroke-linecap:butt;stroke-linejoin:round;stroke-miterlimit:4;stroke-dasharray:none;stroke-opacity:1"
               d="M 22.995001,313.5 H 420.12 M 23.182001,86.042007 H 419.87 M 22.995001,144.20801 H 419.99503 M 23.182001,181.37502 H 419.93201 M 22.995001,212.20801 H 419.74503 M 23.182001,238.37502 H 419.93201" /><path
               id="path206"
               style="fill:none;stroke:#000000;stroke-width:0.40000001;stroke-linecap:butt;stroke-linejoin:round;stroke-miterlimit:4;stroke-dasharray:none;stroke-opacity:1"
               d="M 22.932001,261.229 H 420.01602" /><path
               id="path208"
               style="fill:none;stroke:#000000;stroke-width:1.5;stroke-linecap:butt;stroke-linejoin:round;stroke-miterlimit:4;stroke-dasharray:none;stroke-opacity:1"
               d="M 23.182001,281.08301 H 419.93201 M 23.182001,299.02103 H 419.99503" /><path
               id="path210"
               style="fill:none;stroke:#000000;stroke-width:0.40000001;stroke-linecap:butt;stroke-linejoin:round;stroke-miterlimit:4;stroke-dasharray:none;stroke-opacity:1"
               d="m 77.995003,16.75 v 297 M 419.99503,144.25 V 313.5 m -56.5,-297.25 v 297 m -57.5,-297 v 297 M 248.99501,16.75 v 297 m -57,-296.5 V 313.5 m -57,-296.75 v 297 M 23.057001,313.688 V 16.312982 L 419.99503,16.5 v 127.75" /><path
               id="path212"
               style="fill:none;stroke:#000000;stroke-width:0.90000004;stroke-linecap:butt;stroke-linejoin:round;stroke-miterlimit:4;stroke-dasharray:none;stroke-opacity:1"
               d="M 23.129999,34.298 H 419.81802" /><path
               id="path214"
               style="fill:none;stroke:#000000;stroke-width:0.80000001;stroke-linecap:butt;stroke-linejoin:round;stroke-miterlimit:4;stroke-dasharray:none;stroke-opacity:1"
               d="M 22.943001,47.676003 H 344.75 m 0.13,-0.125 h 76.04203 m -0.063,8.548999 h -76.97901 l -16.979,0.125 H 23.130019" /><path
               id="path216"
               style="fill:none;stroke:#000000;stroke-width:0.60000002;stroke-linecap:butt;stroke-linejoin:round;stroke-miterlimit:4;stroke-dasharray:none;stroke-opacity:1"
               d="M 22.943001,63.316002 H 419.69302" /><path
               id="path218"
               style="fill:none;stroke:#000000;stroke-width:0.5;stroke-linecap:butt;stroke-linejoin:round;stroke-miterlimit:4;stroke-dasharray:none;stroke-opacity:1"
               d="M 23.129999,69.334 H 419.88" /><path
               id="path220"
               style="fill:none;stroke:#000000;stroke-width:0.40000001;stroke-linecap:butt;stroke-linejoin:round;stroke-miterlimit:4;stroke-dasharray:none;stroke-opacity:1"
               d="M 22.879999,74.591003 H 419.96402 M 23.129999,79.157005 H 419.88 m -396.750001,4.126 H 419.94302" /><path
               id="path222"
               style="fill:none;stroke:#000000;stroke-width:0.90000004;stroke-linecap:butt;stroke-linejoin:round;stroke-miterlimit:4;stroke-dasharray:none;stroke-opacity:1"
               d="M 23.359001,99.244003 H 420.04703" /><path
               id="path224"
               style="fill:none;stroke:#000000;stroke-width:0.80000001;stroke-linecap:butt;stroke-linejoin:round;stroke-miterlimit:4;stroke-dasharray:none;stroke-opacity:1"
               d="M 23.172001,110.68201 H 420.17203 M 23.359001,117.991 H 342.5 m 0.63,0 h 76.97901" /><path
               id="path226"
               style="fill:none;stroke:#000000;stroke-width:0.60000002;stroke-linecap:butt;stroke-linejoin:round;stroke-miterlimit:4;stroke-dasharray:none;stroke-opacity:1"
               d="M 23.172001,124.05401 H 419.92203" /><path
               id="path228"
               style="fill:none;stroke:#000000;stroke-width:0.5;stroke-linecap:butt;stroke-linejoin:round;stroke-miterlimit:4;stroke-dasharray:none;stroke-opacity:1"
               d="M 23.359001,129.2 H 420.10901" /><path
               id="path230"
               style="fill:none;stroke:#000000;stroke-width:0.40000001;stroke-linecap:butt;stroke-linejoin:round;stroke-miterlimit:4;stroke-dasharray:none;stroke-opacity:1"
               d="M 23.109001,133.694 H 420.19302 M 23.359001,137.59801 H 420.10901 M 23.359001,141.125 H 420.17203 M 78.172005,85.618004 V 144.022 M 363.67203,85.519997 V 143.923 m -57.5,-58.403003 V 143.923 M 249.17201,85.618004 V 144.022 m -57,-58.304997 v 58.256007 m -57,-58.355006 V 144.022 M 23.234001,85.532005 V 144.009" /><path
               id="path232"
               style="fill:none;stroke:#000000;stroke-width:0.90000004;stroke-linecap:butt;stroke-linejoin:round;stroke-miterlimit:4;stroke-dasharray:none;stroke-opacity:1"
               d="M 23.484001,153.436 H 420.17203" /><path
               id="path234"
               style="fill:none;stroke:#000000;stroke-width:0.80000001;stroke-linecap:butt;stroke-linejoin:round;stroke-miterlimit:4;stroke-dasharray:none;stroke-opacity:1"
               d="M 23.297001,160.52802 H 420.29703 M 23.484001,165.05901 H 420.23401" /><path
               id="path236"
               style="fill:none;stroke:#000000;stroke-width:0.60000002;stroke-linecap:butt;stroke-linejoin:round;stroke-miterlimit:4;stroke-dasharray:none;stroke-opacity:1"
               d="M 23.297001,168.81801 H 420.04703" /><path
               id="path238"
               style="fill:none;stroke:#000000;stroke-width:0.5;stroke-linecap:butt;stroke-linejoin:round;stroke-miterlimit:4;stroke-dasharray:none;stroke-opacity:1"
               d="M 23.484001,172.00801 H 420.23401" /><path
               id="path240"
               style="fill:none;stroke:#000000;stroke-width:0.40000001;stroke-linecap:butt;stroke-linejoin:round;stroke-miterlimit:4;stroke-dasharray:none;stroke-opacity:1"
               d="M 23.234001,174.79501 H 420.31802 m -396.834019,2.42 H 420.23401 m -396.750009,2.187 H 420.29703 m -342.000025,-34.414 v 36.21 M 363.79703,144.927 v 36.21001 m -57.5,-36.21001 v 36.21001 m -57.00002,-36.149 v 36.21 m -57,-36.149 v 36.118 m -57,-36.179 v 36.21 M 23.359001,144.93501 V 181.19" /><path
               id="path242"
               style="fill:none;stroke:#000000;stroke-width:0.90000004;stroke-linecap:butt;stroke-linejoin:round;stroke-miterlimit:4;stroke-dasharray:none;stroke-opacity:1"
               d="M 23.859001,188.40102 H 420.54703" /><path
               id="path244"
               style="fill:none;stroke:#000000;stroke-width:0.80000001;stroke-linecap:butt;stroke-linejoin:round;stroke-miterlimit:4;stroke-dasharray:none;stroke-opacity:1"
               d="M 23.672001,194.42902 H 420.67203 M 23.859001,198.28 H 420.60901" /><path
               id="path246"
               style="fill:none;stroke:#000000;stroke-width:0.60000002;stroke-linecap:butt;stroke-linejoin:round;stroke-miterlimit:4;stroke-dasharray:none;stroke-opacity:1"
               d="M 23.672001,201.47601 H 420.42203" /><path
               id="path248"
               style="fill:none;stroke:#000000;stroke-width:0.5;stroke-linecap:butt;stroke-linejoin:round;stroke-miterlimit:4;stroke-dasharray:none;stroke-opacity:1"
               d="M 23.859001,204.18701 H 420.60901" /><path
               id="path250"
               style="fill:none;stroke:#000000;stroke-width:0.40000001;stroke-linecap:butt;stroke-linejoin:round;stroke-miterlimit:4;stroke-dasharray:none;stroke-opacity:1"
               d="M 23.609001,206.55602 H 420.69302 M 23.859001,208.61301 H 420.60901 M 23.859001,210.47202 H 420.67203" /><path
               id="path252"
               style="fill:none;stroke:#000000;stroke-width:0.90000004;stroke-linecap:butt;stroke-linejoin:round;stroke-miterlimit:4;stroke-dasharray:none;stroke-opacity:1"
               d="M 23.359001,217.95401 H 420.04703" /><path
               id="path254"
               style="fill:none;stroke:#000000;stroke-width:0.80000001;stroke-linecap:butt;stroke-linejoin:round;stroke-miterlimit:4;stroke-dasharray:none;stroke-opacity:1"
               d="M 23.172001,223.07701 H 420.17203 m -396.813029,3.274 H 420.10901" /><path
               id="path256"
               style="fill:none;stroke:#000000;stroke-width:0.60000002;stroke-linecap:butt;stroke-linejoin:round;stroke-miterlimit:4;stroke-dasharray:none;stroke-opacity:1"
               d="M 23.172001,229.06702 H 419.92203" /><path
               id="path258"
               style="fill:none;stroke:#000000;stroke-width:0.5;stroke-linecap:butt;stroke-linejoin:round;stroke-miterlimit:4;stroke-dasharray:none;stroke-opacity:1"
               d="M 23.359001,231.37201 H 420.10901" /><path
               id="path260"
               style="fill:none;stroke:#000000;stroke-width:0.40000001;stroke-linecap:butt;stroke-linejoin:round;stroke-miterlimit:4;stroke-dasharray:none;stroke-opacity:1"
               d="M 23.109001,233.38501 H 420.19302 M 23.359001,235.13402 H 420.10901 M 23.359001,236.714 H 420.17203 M 78.172005,211.84999 v 26.16202 M 363.67203,211.80602 v 26.162 m -57.5,-26.162 v 26.162 m -57.00002,-26.11803 v 26.16202 m -57,-26.118 v 26.09598 m -57,-26.14 v 26.16202 M 23.234001,211.811 v 26.19501" /><path
               id="path262"
               style="fill:none;stroke:#000000;stroke-width:1.5;stroke-linecap:butt;stroke-linejoin:round;stroke-miterlimit:4;stroke-dasharray:none;stroke-opacity:1"
               d="M 23.172001,261.51501 H 420.29703" /><path
               id="path264"
               style="fill:none;stroke:#000000;stroke-width:0.90000004;stroke-linecap:butt;stroke-linejoin:round;stroke-miterlimit:4;stroke-dasharray:none;stroke-opacity:1"
               d="M 23.359001,244.48401 H 420.04703" /><path
               id="path266"
               style="fill:none;stroke:#000000;stroke-width:0.80000001;stroke-linecap:butt;stroke-linejoin:round;stroke-miterlimit:4;stroke-dasharray:none;stroke-opacity:1"
               d="M 23.172001,248.839 H 420.17203 M 23.359001,251.62201 H 420.10901" /><path
               id="path268"
               style="fill:none;stroke:#000000;stroke-width:0.60000002;stroke-linecap:butt;stroke-linejoin:round;stroke-miterlimit:4;stroke-dasharray:none;stroke-opacity:1"
               d="M 23.172001,253.93102 H 419.92203" /><path
               id="path270"
               style="fill:none;stroke:#000000;stroke-width:0.5;stroke-linecap:butt;stroke-linejoin:round;stroke-miterlimit:4;stroke-dasharray:none;stroke-opacity:1"
               d="M 23.359001,255.89 H 420.10901" /><path
               id="path272"
               style="fill:none;stroke:#000000;stroke-width:0.40000001;stroke-linecap:butt;stroke-linejoin:round;stroke-miterlimit:4;stroke-dasharray:none;stroke-opacity:1"
               d="M 23.109001,257.60101 H 420.19302 m -396.834019,1.487 H 420.10901 m -341.937005,-19.792 v 22.23701 M 363.67203,239.25801 V 261.496 m -57.5,-22.23799 V 261.496 m -57.00002,-22.19999 v 22.23701 m -57,-22.20001 v 22.182 m -57,-22.219 v 22.23701 m -111.938009,-22.27 v 22.266" /><path
               id="path274"
               style="fill:none;stroke:#000000;stroke-width:1.5;stroke-linecap:butt;stroke-linejoin:round;stroke-miterlimit:4;stroke-dasharray:none;stroke-opacity:1"
               d="M 23.021002,16.313002 H 419.66702" /><path
               id="path276"
               style="fill:none;stroke:#000000;stroke-width:0.80000001;stroke-linecap:butt;stroke-linejoin:round;stroke-miterlimit:4;stroke-dasharray:none;stroke-opacity:1"
               d="m 329.5,520.5 14.677,0.057 h 76.04202" /><path
               id="path278"
               style="fill:none;stroke:#000000;stroke-width:1.20000005;stroke-linecap:butt;stroke-linejoin:round;stroke-miterlimit:4;stroke-dasharray:none;stroke-opacity:1"
               d="m 410.98901,16.5 h 35.20002" /><path
               id="path280"
               style="fill:#000000;fill-opacity:1;fill-rule:nonzero;stroke:none"
               d="m 443.34,16.375 -2.62796,4.323002 0.14697,0.098 7.05002,-2.800001 c 2.457,-0.539999 4.91299,-1.080999 7.36899,-1.621 -2.456,-0.539999 -4.91199,-1.080999 -7.36899,-1.620999 l -7.05002,-2.801 -0.14697,0.074 2.62796,4.348" /><path
               id="path282"
               style="fill:none;stroke:#000000;stroke-width:0.80000001;stroke-linecap:butt;stroke-linejoin:round;stroke-miterlimit:4;stroke-dasharray:none;stroke-opacity:1"
               d="m 23,601 v 32" /><path
               id="path284"
               style="fill:#000000;fill-opacity:1;fill-rule:nonzero;stroke:none"
               d="m 23,632.18402 -2.882,-1.75201 -0.066,0.098 1.867001,4.70001 c 0.360998,1.63702 0.720998,3.27502 1.080999,4.91303 0.359999,-1.63801 0.721001,-3.27601 1.081001,-4.91303 l 1.867001,-4.70001 -0.049,-0.098 L 23,632.18402" /><text
               id="text288"
               style="font-variant:normal;font-weight:normal;font-size:15.93999958px;font-family:CMMI10;-inkscape-font-specification:CMMI10;writing-mode:lr-tb;fill:#000000;fill-opacity:1;fill-rule:nonzero;stroke:none"
               transform="matrix(1,0,0,-1,463.5813,15.4253)"><tspan
                 id="tspan286"
                 y="0"
                 x="0">x</tspan></text>
<text
               id="text292"
               style="font-variant:normal;font-weight:normal;font-size:15.93999958px;font-family:CMR10;-inkscape-font-specification:CMR10;writing-mode:lr-tb;fill:#000000;fill-opacity:1;fill-rule:nonzero;stroke:none"
               transform="matrix(1,0,0,-1,31.661512,625.42511)"><tspan
                 id="tspan290"
                 y="0"
                 x="0 4.4313202 12.40132">log</tspan></text>
<text
               id="text296"
               style="font-variant:normal;font-weight:normal;font-size:15.93999958px;font-family:CMMI10;-inkscape-font-specification:CMMI10;writing-mode:lr-tb;fill:#000000;fill-opacity:1;fill-rule:nonzero;stroke:none"
               transform="matrix(1,0,0,-1,54.906815,625.42511)"><tspan
                 id="tspan294"
                 y="0"
                 x="0">y</tspan></text>
<path
               id="path298"
               style="fill:#ffffff;fill-opacity:1;fill-rule:nonzero;stroke:#000000;stroke-width:0.80000001;stroke-linecap:butt;stroke-linejoin:miter;stroke-miterlimit:4;stroke-dasharray:none;stroke-opacity:1"
               d="m 78,232.52101 c 2.499001,0 4.525002,2.026 4.525002,4.525 0,2.5 -2.026001,4.526 -4.525002,4.526 -2.498993,0 -4.524994,-2.026 -4.524994,-4.526 0,-2.499 2.026001,-4.525 4.524994,-4.525 z" /><path
               id="path300"
               style="fill:#ffffff;fill-opacity:1;fill-rule:nonzero;stroke:#000000;stroke-width:0.80000001;stroke-linecap:butt;stroke-linejoin:miter;stroke-miterlimit:4;stroke-dasharray:none;stroke-opacity:1"
               d="m 135.479,340.22501 c 2.5,0 4.526,2.026 4.526,4.52499 0,2.49902 -2.026,4.52603 -4.526,4.52603 -2.499,0 -4.52499,-2.02701 -4.52499,-4.52603 0,-2.49899 2.02599,-4.52499 4.52499,-4.52499 z" /><path
               id="path302"
               style="fill:#ffffff;fill-opacity:1;fill-rule:nonzero;stroke:#000000;stroke-width:0.80000001;stroke-linecap:butt;stroke-linejoin:miter;stroke-miterlimit:4;stroke-dasharray:none;stroke-opacity:1"
               d="m 191.854,426.60403 c 2.5,0 4.52599,2.02597 4.52599,4.52597 0,2.49903 -2.02599,4.52503 -4.52599,4.52503 -2.49899,0 -4.52499,-2.026 -4.52499,-4.52503 0,-2.5 2.026,-4.52597 4.52499,-4.52597 z" /><path
               id="path304"
               style="fill:#ffffff;fill-opacity:1;fill-rule:nonzero;stroke:#000000;stroke-width:0.80000001;stroke-linecap:butt;stroke-linejoin:miter;stroke-miterlimit:4;stroke-dasharray:none;stroke-opacity:1"
               d="m 249.80801,503.80801 c 2.499,0 4.525,2.026 4.525,4.52503 0,2.5 -2.026,4.52597 -4.525,4.52597 -2.499,0 -4.526,-2.02597 -4.526,-4.52597 0,-2.49903 2.027,-4.52503 4.526,-4.52503 z" /><path
               id="path306"
               style="fill:#ffffff;fill-opacity:1;fill-rule:nonzero;stroke:#000000;stroke-width:0.80000001;stroke-linecap:butt;stroke-linejoin:miter;stroke-miterlimit:4;stroke-dasharray:none;stroke-opacity:1"
               d="m 306.33301,602.33301 c 2.5,0 4.526,2.026 4.526,4.526 0,2.49902 -2.026,4.52502 -4.526,4.52502 -2.499,0 -4.525,-2.026 -4.525,-4.52502 0,-2.5 2.026,-4.526 4.525,-4.526 z" /><path
               id="path308"
               style="fill:#ffffff;fill-opacity:1;fill-rule:nonzero;stroke:#000000;stroke-width:0.80000001;stroke-linecap:butt;stroke-linejoin:miter;stroke-miterlimit:4;stroke-dasharray:none;stroke-opacity:1"
               d="M 306.33301,606.85901 23.535002,155.70999" /></g></g></g></g></g></svg>