<?xml version="1.0" encoding="UTF-8" standalone="no"?>
<svg
   xmlns:dc="http://purl.org/dc/elements/1.1/"
   xmlns:cc="http://creativecommons.org/ns#"
   xmlns:rdf="http://www.w3.org/1999/02/22-rdf-syntax-ns#"
   xmlns:svg="http://www.w3.org/2000/svg"
   xmlns="http://www.w3.org/2000/svg"
   viewBox="0 0 608 673.33331"
   height="673.33331"
   width="608"
   xml:space="preserve"
   id="svg2"
   version="1.1"><metadata
     id="metadata8"><rdf:RDF><cc:Work
         rdf:about=""><dc:format>image/svg+xml</dc:format><dc:type
           rdf:resource="http://purl.org/dc/dcmitype/StillImage" /></cc:Work></rdf:RDF></metadata><defs
     id="defs6"><clipPath
       id="clipPath24"
       clipPathUnits="userSpaceOnUse"><path
         id="path22"
         d="M 0,0 H 456 V 505 H 0 Z" /></clipPath></defs><g
     transform="matrix(1.3333333,0,0,-1.3333333,0,673.33333)"
     id="g10"><g
       id="g12" /><g
       id="g14" /><g
       id="g16"><g
         id="g18"><g
           clip-path="url(#clipPath24)"
           id="g20"><g
             id="g26" /><g
             id="g28"><path
               id="path30"
               style="fill:none;stroke:#000000;stroke-width:1.5;stroke-linecap:butt;stroke-linejoin:round;stroke-miterlimit:4;stroke-dasharray:none;stroke-opacity:1"
               d="M 11.042001,480.99301 H 408.16702 M 11.229,299.026 H 407.91702 M 11.042001,345.56 H 408.04202 M 11.229,375.29303 H 407.97903 M 11.042001,399.95901 H 407.79202 M 11.229,420.89301 h 396.75003" /><path
               id="path32"
               style="fill:none;stroke:#000000;stroke-width:0.40000001;stroke-linecap:butt;stroke-linejoin:round;stroke-miterlimit:4;stroke-dasharray:none;stroke-opacity:1"
               d="M 10.979,439.17603 H 408.06302" /><path
               id="path34"
               style="fill:none;stroke:#000000;stroke-width:1.5;stroke-linecap:butt;stroke-linejoin:round;stroke-miterlimit:4;stroke-dasharray:none;stroke-opacity:1"
               d="M 11.229,455.06 H 407.97903 M 11.229,469.40903 h 396.81302" /><path
               id="path36"
               style="fill:none;stroke:#000000;stroke-width:0.40000001;stroke-linecap:butt;stroke-linejoin:round;stroke-miterlimit:4;stroke-dasharray:none;stroke-opacity:1"
               d="m 66.042,243.59302 v 237.6 M 408.04202,243.39301 v 237.6 m -56.5,-237.80099 v 237.60101 m -57.5,-237.60101 V 480.79303 M 237.04201,243.59302 v 237.6 m -57,-237.20001 v 237 m -57,-237.39999 v 237.6 M 11.104,243.24301 v 237.90003" /><text
               id="text40"
               style="font-variant:normal;font-weight:normal;font-size:11.95500088px;font-family:CMR12;-inkscape-font-specification:CMR12;writing-mode:lr-tb;fill:#231f20;fill-opacity:1;fill-rule:nonzero;stroke:none"
               transform="matrix(1,0,0,-0.79999994,1.2241,60.001003)"><tspan
                 id="tspan38"
                 y="0"
                 x="0">2</tspan></text>
<text
               id="text44"
               style="font-variant:normal;font-weight:normal;font-size:11.95500088px;font-family:CMR12;-inkscape-font-specification:CMR12;writing-mode:lr-tb;fill:#231f20;fill-opacity:1;fill-rule:nonzero;stroke:none"
               transform="matrix(1,0,0,-0.79999994,0.9790225,106.80052)"><tspan
                 id="tspan42"
                 y="0"
                 x="0">3</tspan></text>
<text
               id="text48"
               style="font-variant:normal;font-weight:normal;font-size:11.95500088px;font-family:CMR12;-inkscape-font-specification:CMR12;writing-mode:lr-tb;fill:#231f20;fill-opacity:1;fill-rule:nonzero;stroke:none"
               transform="matrix(1,0,0,-0.79999994,1.233664,136.40015)"><tspan
                 id="tspan46"
                 y="0"
                 x="0">4</tspan></text>
<text
               id="text52"
               style="font-variant:normal;font-weight:normal;font-size:11.95500088px;font-family:CMR12;-inkscape-font-specification:CMR12;writing-mode:lr-tb;fill:#231f20;fill-opacity:1;fill-rule:nonzero;stroke:none"
               transform="matrix(1,0,0,-0.79999994,0.98858654,161.20055)"><tspan
                 id="tspan50"
                 y="0"
                 x="0">5</tspan></text>
<text
               id="text56"
               style="font-variant:normal;font-weight:normal;font-size:11.95500088px;font-family:CMR12;-inkscape-font-specification:CMR12;writing-mode:lr-tb;fill:#231f20;fill-opacity:1;fill-rule:nonzero;stroke:none"
               transform="matrix(1,0,0,-0.79999994,1.2444235,181.59961)"><tspan
                 id="tspan54"
                 y="0"
                 x="0">6</tspan></text>
<text
               id="text60"
               style="font-variant:normal;font-weight:normal;font-size:11.95500088px;font-family:CMR12;-inkscape-font-specification:CMR12;writing-mode:lr-tb;fill:#231f20;fill-opacity:1;fill-rule:nonzero;stroke:none"
               transform="matrix(1,0,0,-0.79999994,0.99934602,200.39957)"><tspan
                 id="tspan58"
                 y="0"
                 x="0">7</tspan></text>
<text
               id="text64"
               style="font-variant:normal;font-weight:normal;font-size:11.95500088px;font-family:CMR12;-inkscape-font-specification:CMR12;writing-mode:lr-tb;fill:#231f20;fill-opacity:1;fill-rule:nonzero;stroke:none"
               transform="matrix(1,0,0,-0.79999994,1.252792,216.39919)"><tspan
                 id="tspan62"
                 y="0"
                 x="0">8</tspan></text>
<text
               id="text68"
               style="font-variant:normal;font-weight:normal;font-size:11.95500088px;font-family:CMR12;-inkscape-font-specification:CMR12;writing-mode:lr-tb;fill:#231f20;fill-opacity:1;fill-rule:nonzero;stroke:none"
               transform="matrix(1,0,0,-0.79999994,1.5074335,230.39897)"><tspan
                 id="tspan66"
                 y="0"
                 x="0">9</tspan></text>
<text
               id="text72"
               style="font-variant:normal;font-weight:normal;font-size:11.95500088px;font-family:CMR12;-inkscape-font-specification:CMR12;writing-mode:lr-tb;fill:#231f20;fill-opacity:1;fill-rule:nonzero;stroke:none"
               transform="matrix(1,0,0,-0.79999994,0.99934602,6.6071181)"><tspan
                 id="tspan70"
                 y="0"
                 x="0">1</tspan></text>
<path
               id="path74"
               style="fill:none;stroke:#000000;stroke-width:0.90000004;stroke-linecap:butt;stroke-linejoin:round;stroke-miterlimit:4;stroke-dasharray:none;stroke-opacity:1"
               d="M 12.156,257.53101 H 408.84402" /><path
               id="path76"
               style="fill:none;stroke:#000000;stroke-width:0.80000001;stroke-linecap:butt;stroke-linejoin:round;stroke-miterlimit:4;stroke-dasharray:none;stroke-opacity:1"
               d="M 11.969001,268.233 H 408.96902 M 12.156,275.07202 h 396.75001" /><path
               id="path78"
               style="fill:none;stroke:#000000;stroke-width:0.60000002;stroke-linecap:butt;stroke-linejoin:round;stroke-miterlimit:4;stroke-dasharray:none;stroke-opacity:1"
               d="M 11.969001,280.746 H 408.71902" /><path
               id="path80"
               style="fill:none;stroke:#000000;stroke-width:0.5;stroke-linecap:butt;stroke-linejoin:round;stroke-miterlimit:4;stroke-dasharray:none;stroke-opacity:1"
               d="M 12.156,285.56 H 408.90601" /><path
               id="path82"
               style="fill:none;stroke:#000000;stroke-width:0.40000001;stroke-linecap:butt;stroke-linejoin:round;stroke-miterlimit:4;stroke-dasharray:none;stroke-opacity:1"
               d="M 11.906,289.76602 H 408.98901 M 12.156,293.418 H 408.90601 M 12.156,296.71902 h 396.81302" /><path
               id="path84"
               style="fill:none;stroke:#000000;stroke-width:0.90000004;stroke-linecap:butt;stroke-linejoin:round;stroke-miterlimit:4;stroke-dasharray:none;stroke-opacity:1"
               d="M 11.406,309.58801 H 408.09402" /><path
               id="path86"
               style="fill:none;stroke:#000000;stroke-width:0.80000001;stroke-linecap:butt;stroke-linejoin:round;stroke-miterlimit:4;stroke-dasharray:none;stroke-opacity:1"
               d="M 11.219001,318.73801 H 408.21902 M 11.406,324.58603 h 396.75001" /><path
               id="path88"
               style="fill:none;stroke:#000000;stroke-width:0.60000002;stroke-linecap:butt;stroke-linejoin:round;stroke-miterlimit:4;stroke-dasharray:none;stroke-opacity:1"
               d="M 11.219001,329.436 H 407.96902" /><path
               id="path90"
               style="fill:none;stroke:#000000;stroke-width:0.5;stroke-linecap:butt;stroke-linejoin:round;stroke-miterlimit:4;stroke-dasharray:none;stroke-opacity:1"
               d="M 11.406,333.55301 H 408.15601" /><path
               id="path92"
               style="fill:none;stroke:#000000;stroke-width:0.40000001;stroke-linecap:butt;stroke-linejoin:round;stroke-miterlimit:4;stroke-dasharray:none;stroke-opacity:1"
               d="M 11.156,337.14801 H 408.23901 M 11.406,340.27103 H 408.15601 M 11.406,343.09302 H 408.21902 M 66.219002,298.68701 V 345.41 M 408.21902,298.64801 V 345.371 m -56.5,-46.763 v 46.72302 m -57.5,-46.72302 v 46.72302 M 237.21901,298.68701 V 345.41 m -57,-46.64398 V 345.371 m -57,-46.68399 V 345.41 M 11.281,298.61801 v 46.78198" /><path
               id="path94"
               style="fill:none;stroke:#000000;stroke-width:0.90000004;stroke-linecap:butt;stroke-linejoin:round;stroke-miterlimit:4;stroke-dasharray:none;stroke-opacity:1"
               d="M 11.531,352.94101 H 408.21902" /><path
               id="path96"
               style="fill:none;stroke:#000000;stroke-width:0.80000001;stroke-linecap:butt;stroke-linejoin:round;stroke-miterlimit:4;stroke-dasharray:none;stroke-opacity:1"
               d="M 11.344001,358.61502 H 408.34402 M 11.531,362.23999 h 396.75001" /><path
               id="path98"
               style="fill:none;stroke:#000000;stroke-width:0.60000002;stroke-linecap:butt;stroke-linejoin:round;stroke-miterlimit:4;stroke-dasharray:none;stroke-opacity:1"
               d="M 11.344001,365.24701 H 408.09402" /><path
               id="path100"
               style="fill:none;stroke:#000000;stroke-width:0.5;stroke-linecap:butt;stroke-linejoin:round;stroke-miterlimit:4;stroke-dasharray:none;stroke-opacity:1"
               d="M 11.531,367.79901 H 408.28101" /><path
               id="path102"
               style="fill:none;stroke:#000000;stroke-width:0.40000001;stroke-linecap:butt;stroke-linejoin:round;stroke-miterlimit:4;stroke-dasharray:none;stroke-opacity:1"
               d="M 11.281,370.02802 H 408.36502 M 11.531,371.96503 h 396.75001 m -396.75001,1.75 H 408.34402 M 66.344002,346.18402 v 28.96701 m 342.000018,-28.992 v 28.96798 m -56.5,-28.992 v 28.96701 m -57.5,-28.96701 v 28.96701 m -57.00001,-28.918 v 28.96701 m -57,-28.919 v 28.89498 m -57,-28.94299 v 28.96701 M 11.406,346.14102 v 29.004" /><path
               id="path104"
               style="fill:none;stroke:#000000;stroke-width:0.90000004;stroke-linecap:butt;stroke-linejoin:round;stroke-miterlimit:4;stroke-dasharray:none;stroke-opacity:1"
               d="M 11.906,380.91302 H 408.59402" /><path
               id="path106"
               style="fill:none;stroke:#000000;stroke-width:0.80000001;stroke-linecap:butt;stroke-linejoin:round;stroke-miterlimit:4;stroke-dasharray:none;stroke-opacity:1"
               d="M 11.719001,385.73502 H 408.71902 m -396.81302,3.082 h 396.75001" /><path
               id="path108"
               style="fill:none;stroke:#000000;stroke-width:0.60000002;stroke-linecap:butt;stroke-linejoin:round;stroke-miterlimit:4;stroke-dasharray:none;stroke-opacity:1"
               d="M 11.719001,391.37302 H 408.46902" /><path
               id="path110"
               style="fill:none;stroke:#000000;stroke-width:0.5;stroke-linecap:butt;stroke-linejoin:round;stroke-miterlimit:4;stroke-dasharray:none;stroke-opacity:1"
               d="M 11.906,393.54303 H 408.65601" /><path
               id="path112"
               style="fill:none;stroke:#000000;stroke-width:0.40000001;stroke-linecap:butt;stroke-linejoin:round;stroke-miterlimit:4;stroke-dasharray:none;stroke-opacity:1"
               d="M 11.656,395.43802 H 408.73901 M 11.906,397.08301 H 408.65601 M 11.906,398.56998 H 408.71902 M 66.719002,375.16901 v 24.62301 M 352.21902,375.12701 V 399.75 m -57.5,-24.62299 V 399.75 m -57.00001,-24.58099 v 24.62301 m -57,-24.58203 v 24.56104 m -57,-24.60202 v 24.62301" /><path
               id="path114"
               style="fill:none;stroke:#000000;stroke-width:0.90000004;stroke-linecap:butt;stroke-linejoin:round;stroke-miterlimit:4;stroke-dasharray:none;stroke-opacity:1"
               d="M 11.406,404.55603 H 408.09402" /><path
               id="path116"
               style="fill:none;stroke:#000000;stroke-width:0.80000001;stroke-linecap:butt;stroke-linejoin:round;stroke-miterlimit:4;stroke-dasharray:none;stroke-opacity:1"
               d="M 11.219001,408.65503 H 316.177 m -304.771,2.61899 h 396.75001" /><path
               id="path118"
               style="fill:none;stroke:#000000;stroke-width:0.60000002;stroke-linecap:butt;stroke-linejoin:round;stroke-miterlimit:4;stroke-dasharray:none;stroke-opacity:1"
               d="M 11.219001,413.44601 H 407.96902" /><path
               id="path120"
               style="fill:none;stroke:#000000;stroke-width:0.5;stroke-linecap:butt;stroke-linejoin:round;stroke-miterlimit:4;stroke-dasharray:none;stroke-opacity:1"
               d="M 11.406,415.29102 H 408.15601" /><path
               id="path122"
               style="fill:none;stroke:#000000;stroke-width:0.40000001;stroke-linecap:butt;stroke-linejoin:round;stroke-miterlimit:4;stroke-dasharray:none;stroke-opacity:1"
               d="M 11.156,416.90103 H 408.23901 M 11.406,418.30002 H 408.15601 M 11.406,419.56503 H 408.21902 M 66.219002,399.673 v 20.92902 M 408.21902,399.65503 v 20.92999 m -56.5,-20.94699 v 20.92899 m -57.5,-20.92899 v 20.92899 M 237.21901,399.673 v 20.92902 m -57,-20.89401 v 20.87701 m -57,-20.91202 v 20.92902 M 11.281,399.64203 v 20.95599" /><path
               id="path124"
               style="fill:none;stroke:#000000;stroke-width:1.5;stroke-linecap:butt;stroke-linejoin:round;stroke-miterlimit:4;stroke-dasharray:none;stroke-opacity:1"
               d="M 11.219001,439.40503 H 408.34402" /><path
               id="path126"
               style="fill:none;stroke:#000000;stroke-width:0.90000004;stroke-linecap:butt;stroke-linejoin:round;stroke-miterlimit:4;stroke-dasharray:none;stroke-opacity:1"
               d="M 11.406,425.78 H 408.09402" /><path
               id="path128"
               style="fill:none;stroke:#000000;stroke-width:0.80000001;stroke-linecap:butt;stroke-linejoin:round;stroke-miterlimit:4;stroke-dasharray:none;stroke-opacity:1"
               d="M 11.219001,429.26401 H 331 m 1.177,0 h 76.04202 M 11.406,431.48999 h 396.75001" /><path
               id="path130"
               style="fill:none;stroke:#000000;stroke-width:0.60000002;stroke-linecap:butt;stroke-linejoin:round;stroke-miterlimit:4;stroke-dasharray:none;stroke-opacity:1"
               d="M 11.219001,433.33701 H 407.96902" /><path
               id="path132"
               style="fill:none;stroke:#000000;stroke-width:0.5;stroke-linecap:butt;stroke-linejoin:round;stroke-miterlimit:4;stroke-dasharray:none;stroke-opacity:1"
               d="M 11.406,434.90503 H 408.15601" /><path
               id="path134"
               style="fill:none;stroke:#000000;stroke-width:0.40000001;stroke-linecap:butt;stroke-linejoin:round;stroke-miterlimit:4;stroke-dasharray:none;stroke-opacity:1"
               d="m 11.156,436.27301 h 397.08301 m -396.83301,1.19 H 408.15601 M 66.219002,421.62903 v 17.79095 M 408.21902,421.61401 v 17.79102 m -56.5,-17.80502 v 17.78997 m -57.5,-17.78997 v 17.78997 m -57.00001,-17.76095 v 17.79095 m -57,-17.76095 v 17.746 m -57,-17.776 v 17.79095 M 11.281,421.60303 v 17.81299" /><path
               id="path136"
               style="fill:none;stroke:#000000;stroke-width:1.5;stroke-linecap:butt;stroke-linejoin:round;stroke-miterlimit:4;stroke-dasharray:none;stroke-opacity:1"
               d="M 10.995001,243.00999 H 408.12 M 11.182,61.043003 H 407.87 M 10.995001,107.576 H 407.99503 M 11.182,137.31 H 407.93201 M 10.995001,161.97701 H 407.74503 M 11.182,182.90901 h 396.75001" /><path
               id="path138"
               style="fill:none;stroke:#000000;stroke-width:0.40000001;stroke-linecap:butt;stroke-linejoin:round;stroke-miterlimit:4;stroke-dasharray:none;stroke-opacity:1"
               d="M 10.932,201.19202 H 408.01602" /><path
               id="path140"
               style="fill:none;stroke:#000000;stroke-width:1.5;stroke-linecap:butt;stroke-linejoin:round;stroke-miterlimit:4;stroke-dasharray:none;stroke-opacity:1"
               d="M 11.182,217.076 H 407.93201 M 11.182,231.42601 h 396.81303" /><path
               id="path142"
               style="fill:none;stroke:#000000;stroke-width:0.40000001;stroke-linecap:butt;stroke-linejoin:round;stroke-miterlimit:4;stroke-dasharray:none;stroke-opacity:1"
               d="M 65.995003,5.6090002 V 243.20999 M 407.99503,107.60901 V 243.00999 M 351.49503,5.21 v 237.6 m -57.5,-237.6 v 237.6 M 236.99501,5.6090002 V 243.20999 m -57,-237.1999902 V 243.00999 M 122.995,5.6090002 V 243.20999 m -111.938,-0.051 V 5.2599798 L 407.99503,5.4089804 V 107.60899" /><path
               id="path144"
               style="fill:none;stroke:#000000;stroke-width:0.90000004;stroke-linecap:butt;stroke-linejoin:round;stroke-miterlimit:4;stroke-dasharray:none;stroke-opacity:1"
               d="M 11.13,19.648001 H 407.81802" /><path
               id="path146"
               style="fill:none;stroke:#000000;stroke-width:0.80000001;stroke-linecap:butt;stroke-linejoin:round;stroke-miterlimit:4;stroke-dasharray:none;stroke-opacity:1"
               d="M 10.943001,30.351002 H 332.75 m 0.13,-0.100001 h 76.04203 m -0.063,6.838 h -76.97901 l -16.979,0.100998 h -303.771" /><path
               id="path148"
               style="fill:none;stroke:#000000;stroke-width:0.60000002;stroke-linecap:butt;stroke-linejoin:round;stroke-miterlimit:4;stroke-dasharray:none;stroke-opacity:1"
               d="M 10.943001,42.862003 H 407.69302" /><path
               id="path150"
               style="fill:none;stroke:#000000;stroke-width:0.5;stroke-linecap:butt;stroke-linejoin:round;stroke-miterlimit:4;stroke-dasharray:none;stroke-opacity:1"
               d="M 11.13,47.677002 H 407.88" /><path
               id="path152"
               style="fill:none;stroke:#000000;stroke-width:0.40000001;stroke-linecap:butt;stroke-linejoin:round;stroke-miterlimit:4;stroke-dasharray:none;stroke-opacity:1"
               d="M 10.88,51.882004 H 407.96301 M 11.13,55.535004 H 407.88 M 11.13,58.836002 h 396.81302" /><path
               id="path154"
               style="fill:none;stroke:#000000;stroke-width:0.90000004;stroke-linecap:butt;stroke-linejoin:round;stroke-miterlimit:4;stroke-dasharray:none;stroke-opacity:1"
               d="M 11.359,71.604004 H 408.04703" /><path
               id="path156"
               style="fill:none;stroke:#000000;stroke-width:0.80000001;stroke-linecap:butt;stroke-linejoin:round;stroke-miterlimit:4;stroke-dasharray:none;stroke-opacity:1"
               d="M 11.172001,80.755005 H 408.17203 M 11.359,86.602005 H 330.5 m 0.63,0 h 76.97901" /><path
               id="path158"
               style="fill:none;stroke:#000000;stroke-width:0.60000002;stroke-linecap:butt;stroke-linejoin:round;stroke-miterlimit:4;stroke-dasharray:none;stroke-opacity:1"
               d="M 11.172001,91.453003 H 407.92203" /><path
               id="path160"
               style="fill:none;stroke:#000000;stroke-width:0.5;stroke-linecap:butt;stroke-linejoin:round;stroke-miterlimit:4;stroke-dasharray:none;stroke-opacity:1"
               d="M 11.359,95.569008 H 408.10901" /><path
               id="path162"
               style="fill:none;stroke:#000000;stroke-width:0.40000001;stroke-linecap:butt;stroke-linejoin:round;stroke-miterlimit:4;stroke-dasharray:none;stroke-opacity:1"
               d="M 11.109,99.165001 H 408.19302 M 11.359,102.288 H 408.10901 M 11.359,105.10901 H 408.17203 M 66.172005,60.704002 V 107.427 M 351.67203,60.626003 v 46.722007 m -57.5,-46.722007 V 107.34801 M 237.17201,60.704002 V 107.427 m -57,-46.643995 V 107.38801 M 123.172,60.704002 V 107.427 M 11.234,60.635002 v 46.782008" /><path
               id="path164"
               style="fill:none;stroke:#000000;stroke-width:0.90000004;stroke-linecap:butt;stroke-linejoin:round;stroke-miterlimit:4;stroke-dasharray:none;stroke-opacity:1"
               d="M 11.484,114.95801 H 408.17203" /><path
               id="path166"
               style="fill:none;stroke:#000000;stroke-width:0.80000001;stroke-linecap:butt;stroke-linejoin:round;stroke-miterlimit:4;stroke-dasharray:none;stroke-opacity:1"
               d="M 11.297001,120.631 H 408.29703 M 11.484,124.257 h 396.75001" /><path
               id="path168"
               style="fill:none;stroke:#000000;stroke-width:0.60000002;stroke-linecap:butt;stroke-linejoin:round;stroke-miterlimit:4;stroke-dasharray:none;stroke-opacity:1"
               d="M 11.297001,127.26401 H 408.04703" /><path
               id="path170"
               style="fill:none;stroke:#000000;stroke-width:0.5;stroke-linecap:butt;stroke-linejoin:round;stroke-miterlimit:4;stroke-dasharray:none;stroke-opacity:1"
               d="M 11.484,129.81601 H 408.23401" /><path
               id="path172"
               style="fill:none;stroke:#000000;stroke-width:0.40000001;stroke-linecap:butt;stroke-linejoin:round;stroke-miterlimit:4;stroke-dasharray:none;stroke-opacity:1"
               d="M 11.234,132.04501 H 408.31802 M 11.484,133.981 H 408.23401 M 11.484,135.731 H 408.29703 M 66.297005,108.2 v 28.968 M 351.79703,108.15101 V 137.119 m -57.5,-28.96799 V 137.119 M 237.29701,108.2 v 28.968 m -57,-28.91899 v 28.895 M 123.297,108.2 v 28.968 M 11.359,108.15701 V 137.162" /><path
               id="path174"
               style="fill:none;stroke:#000000;stroke-width:0.90000004;stroke-linecap:butt;stroke-linejoin:round;stroke-miterlimit:4;stroke-dasharray:none;stroke-opacity:1"
               d="M 11.859,142.92999 H 408.54703" /><path
               id="path176"
               style="fill:none;stroke:#000000;stroke-width:0.80000001;stroke-linecap:butt;stroke-linejoin:round;stroke-miterlimit:4;stroke-dasharray:none;stroke-opacity:1"
               d="M 11.672001,147.75201 H 408.67203 M 11.859,150.834 h 396.75001" /><path
               id="path178"
               style="fill:none;stroke:#000000;stroke-width:0.60000002;stroke-linecap:butt;stroke-linejoin:round;stroke-miterlimit:4;stroke-dasharray:none;stroke-opacity:1"
               d="M 11.672001,153.39 H 408.42203" /><path
               id="path180"
               style="fill:none;stroke:#000000;stroke-width:0.5;stroke-linecap:butt;stroke-linejoin:round;stroke-miterlimit:4;stroke-dasharray:none;stroke-opacity:1"
               d="M 11.859,155.56 H 408.60901" /><path
               id="path182"
               style="fill:none;stroke:#000000;stroke-width:0.40000001;stroke-linecap:butt;stroke-linejoin:round;stroke-miterlimit:4;stroke-dasharray:none;stroke-opacity:1"
               d="M 11.609,157.45401 H 408.69302 M 11.859,159.10001 H 408.60901 M 11.859,160.58701 H 408.67203" /><path
               id="path184"
               style="fill:none;stroke:#000000;stroke-width:0.90000004;stroke-linecap:butt;stroke-linejoin:round;stroke-miterlimit:4;stroke-dasharray:none;stroke-opacity:1"
               d="M 11.359,166.57201 H 408.04703" /><path
               id="path186"
               style="fill:none;stroke:#000000;stroke-width:0.80000001;stroke-linecap:butt;stroke-linejoin:round;stroke-miterlimit:4;stroke-dasharray:none;stroke-opacity:1"
               d="M 11.172001,170.67101 H 408.17203 M 11.359,173.28999 h 396.75001" /><path
               id="path188"
               style="fill:none;stroke:#000000;stroke-width:0.60000002;stroke-linecap:butt;stroke-linejoin:round;stroke-miterlimit:4;stroke-dasharray:none;stroke-opacity:1"
               d="M 11.172001,175.46301 H 407.92203" /><path
               id="path190"
               style="fill:none;stroke:#000000;stroke-width:0.5;stroke-linecap:butt;stroke-linejoin:round;stroke-miterlimit:4;stroke-dasharray:none;stroke-opacity:1"
               d="M 11.359,177.30701 H 408.10901" /><path
               id="path192"
               style="fill:none;stroke:#000000;stroke-width:0.40000001;stroke-linecap:butt;stroke-linejoin:round;stroke-miterlimit:4;stroke-dasharray:none;stroke-opacity:1"
               d="M 11.109,178.91801 H 408.19302 M 11.359,180.317 H 408.10901 M 11.359,181.58101 H 408.17203 M 66.172005,161.69 v 20.929 M 351.67203,161.65401 v 20.93 m -57.5,-20.93 v 20.93 M 237.17201,161.69 v 20.929 m -57,-20.89399 v 20.877 M 123.172,161.69 v 20.929 M 11.234,161.65901 v 20.955" /><path
               id="path194"
               style="fill:none;stroke:#000000;stroke-width:1.5;stroke-linecap:butt;stroke-linejoin:round;stroke-miterlimit:4;stroke-dasharray:none;stroke-opacity:1"
               d="M 11.172001,201.42101 H 408.29703" /><path
               id="path196"
               style="fill:none;stroke:#000000;stroke-width:0.90000004;stroke-linecap:butt;stroke-linejoin:round;stroke-miterlimit:4;stroke-dasharray:none;stroke-opacity:1"
               d="M 11.359,187.79701 H 408.04703" /><path
               id="path198"
               style="fill:none;stroke:#000000;stroke-width:0.80000001;stroke-linecap:butt;stroke-linejoin:round;stroke-miterlimit:4;stroke-dasharray:none;stroke-opacity:1"
               d="M 11.172001,191.28 H 408.17203 M 11.359,193.507 h 396.75001" /><path
               id="path200"
               style="fill:none;stroke:#000000;stroke-width:0.60000002;stroke-linecap:butt;stroke-linejoin:round;stroke-miterlimit:4;stroke-dasharray:none;stroke-opacity:1"
               d="M 11.172001,195.354 H 407.92203" /><path
               id="path202"
               style="fill:none;stroke:#000000;stroke-width:0.5;stroke-linecap:butt;stroke-linejoin:round;stroke-miterlimit:4;stroke-dasharray:none;stroke-opacity:1"
               d="M 11.359,196.92101 H 408.10901" /><path
               id="path204"
               style="fill:none;stroke:#000000;stroke-width:0.40000001;stroke-linecap:butt;stroke-linejoin:round;stroke-miterlimit:4;stroke-dasharray:none;stroke-opacity:1"
               d="M 11.109,198.28999 H 408.19302 M 11.359,199.479 H 408.10901 M 66.172005,183.64601 V 201.436 M 351.67203,183.61601 v 17.79 m -57.5,-17.79 v 17.79 m -57.00002,-17.76 V 201.436 m -57,-17.75999 v 17.745 M 123.172,183.64601 V 201.436 M 11.234,183.62 v 17.81301" /><path
               id="path206"
               style="fill:none;stroke:#000000;stroke-width:1.5;stroke-linecap:butt;stroke-linejoin:round;stroke-miterlimit:4;stroke-dasharray:none;stroke-opacity:1"
               d="M 11.021001,5.2599998 H 407.66702" /><path
               id="path208"
               style="fill:none;stroke:#000000;stroke-width:0.80000001;stroke-linecap:butt;stroke-linejoin:round;stroke-miterlimit:4;stroke-dasharray:none;stroke-opacity:1"
               d="m 317.5,408.60901 14.677,0.046 h 76.04202" /><path
               id="path210"
               style="fill:none;stroke:#000000;stroke-width:1.20000005;stroke-linecap:butt;stroke-linejoin:round;stroke-miterlimit:4;stroke-dasharray:none;stroke-opacity:1"
               d="M 398.98901,5.4090004 H 434.19" /><path
               id="path212"
               style="fill:#000000;fill-opacity:1;fill-rule:nonzero;stroke:none"
               d="m 431.34,5.3099999 -2.62799,3.4580007 0.147,0.079 7.05002,-2.2409997 c 2.457,-0.4320001 4.91299,-0.8640003 7.36899,-1.2960005 -2.456,-0.4329996 -4.91199,-0.8659997 -7.36899,-1.2969999 l -7.05002,-2.2399999 -0.147,0.058 2.62799,3.4789998" /><path
               id="path214"
               style="fill:none;stroke:#000000;stroke-width:0.80000001;stroke-linecap:butt;stroke-linejoin:round;stroke-miterlimit:4;stroke-dasharray:none;stroke-opacity:1"
               d="m 11,473.00998 v 25.59903" /><path
               id="path216"
               style="fill:#000000;fill-opacity:1;fill-rule:nonzero;stroke:none"
               d="m 11,497.95703 -2.882,-1.40201 -0.066,0.078 1.8670006,3.76098 C 10.279,501.70303 10.639999,503.01404 11,504.32404 c 0.36,-1.31 0.721001,-2.62101 1.081,-3.93003 l 1.867001,-3.76098 -0.05,-0.078 L 11,497.95703" /><text
               id="text220"
               style="font-variant:normal;font-weight:normal;font-size:15.93999958px;font-family:CMMI10;-inkscape-font-specification:CMMI10;writing-mode:lr-tb;fill:#000000;fill-opacity:1;fill-rule:nonzero;stroke:none"
               transform="matrix(1,0,0,-1,446.58109,4.4253001)"><tspan
                 id="tspan218"
                 y="0"
                 x="0">x</tspan></text>
<text
               id="text224"
               style="font-variant:normal;font-weight:normal;font-size:15.93999958px;font-family:CMR10;-inkscape-font-specification:CMR10;writing-mode:lr-tb;fill:#000000;fill-opacity:1;fill-rule:nonzero;stroke:none"
               transform="matrix(1,0,0,-1,16.661764,492.4252)"><tspan
                 id="tspan222"
                 y="0"
                 x="0 4.4313202 12.40132">log</tspan></text>
<text
               id="text228"
               style="font-variant:normal;font-weight:normal;font-size:15.93999958px;font-family:CMMI10;-inkscape-font-specification:CMMI10;writing-mode:lr-tb;fill:#000000;fill-opacity:1;fill-rule:nonzero;stroke:none"
               transform="matrix(1,0,0,-1,39.907066,492.4252)"><tspan
                 id="tspan226"
                 y="0"
                 x="0">y</tspan></text>
<text
               id="text232"
               style="font-variant:normal;font-weight:normal;font-size:11.95500088px;font-family:CMR12;-inkscape-font-specification:CMR12;writing-mode:lr-tb;fill:#231f20;fill-opacity:1;fill-rule:nonzero;stroke:none"
               transform="matrix(1,0,0,-0.79999994,2.5902998,295.9805)"><tspan
                 id="tspan230"
                 y="0"
                 x="0">2</tspan></text>
<text
               id="text236"
               style="font-variant:normal;font-weight:normal;font-size:11.95500088px;font-family:CMR12;-inkscape-font-specification:CMR12;writing-mode:lr-tb;fill:#231f20;fill-opacity:1;fill-rule:nonzero;stroke:none"
               transform="matrix(1,0,0,-0.79999994,2.3452222,342.78003)"><tspan
                 id="tspan234"
                 y="0"
                 x="0">3</tspan></text>
<text
               id="text240"
               style="font-variant:normal;font-weight:normal;font-size:11.95500088px;font-family:CMR12;-inkscape-font-specification:CMR12;writing-mode:lr-tb;fill:#231f20;fill-opacity:1;fill-rule:nonzero;stroke:none"
               transform="matrix(1,0,0,-0.79999994,2.5998638,372.38062)"><tspan
                 id="tspan238"
                 y="0"
                 x="0">4</tspan></text>
<text
               id="text244"
               style="font-variant:normal;font-weight:normal;font-size:11.95500088px;font-family:CMR12;-inkscape-font-specification:CMR12;writing-mode:lr-tb;fill:#231f20;fill-opacity:1;fill-rule:nonzero;stroke:none"
               transform="matrix(1,0,0,-0.79999994,2.3547862,397.18008)"><tspan
                 id="tspan242"
                 y="0"
                 x="0">5</tspan></text>
<text
               id="text248"
               style="font-variant:normal;font-weight:normal;font-size:11.95500088px;font-family:CMR12;-inkscape-font-specification:CMR12;writing-mode:lr-tb;fill:#231f20;fill-opacity:1;fill-rule:nonzero;stroke:none"
               transform="matrix(1,0,0,-0.79999994,2.6094277,417.58011)"><tspan
                 id="tspan246"
                 y="0"
                 x="0">6</tspan></text>
<text
               id="text252"
               style="font-variant:normal;font-weight:normal;font-size:11.95500088px;font-family:CMR12;-inkscape-font-specification:CMR12;writing-mode:lr-tb;fill:#231f20;fill-opacity:1;fill-rule:nonzero;stroke:none"
               transform="matrix(1,0,0,-0.79999994,2.3643501,436.38007)"><tspan
                 id="tspan250"
                 y="0"
                 x="0">7</tspan></text>
<text
               id="text256"
               style="font-variant:normal;font-weight:normal;font-size:11.95500088px;font-family:CMR12;-inkscape-font-specification:CMR12;writing-mode:lr-tb;fill:#231f20;fill-opacity:1;fill-rule:nonzero;stroke:none"
               transform="matrix(1,0,0,-0.79999994,2.6177962,452.37967)"><tspan
                 id="tspan254"
                 y="0"
                 x="0">8</tspan></text>
<text
               id="text260"
               style="font-variant:normal;font-weight:normal;font-size:11.95500088px;font-family:CMR12;-inkscape-font-specification:CMR12;writing-mode:lr-tb;fill:#231f20;fill-opacity:1;fill-rule:nonzero;stroke:none"
               transform="matrix(1,0,0,-0.79999994,2.8736331,466.37946)"><tspan
                 id="tspan258"
                 y="0"
                 x="0">9</tspan></text>
<text
               id="text264"
               style="font-variant:normal;font-weight:normal;font-size:11.95500088px;font-family:CMR12;-inkscape-font-specification:CMR12;writing-mode:lr-tb;fill:#231f20;fill-opacity:1;fill-rule:nonzero;stroke:none"
               transform="matrix(1,0,0,-0.79999994,2.9991608,477.80844)"><tspan
                 id="tspan262"
                 y="0"
                 x="0">1</tspan></text>
<text
               id="text268"
               style="font-variant:normal;font-weight:normal;font-size:11.95500088px;font-family:CMR12;-inkscape-font-specification:CMR12;writing-mode:lr-tb;fill:#231f20;fill-opacity:1;fill-rule:nonzero;stroke:none"
               transform="matrix(1,0,0,-0.79999994,2.3655457,242.58762)"><tspan
                 id="tspan266"
                 y="0"
                 x="0">1</tspan></text>
</g></g></g></g></g></svg>