<?xml version="1.0" encoding="UTF-8" standalone="no"?>
<svg
   xmlns:dc="http://purl.org/dc/elements/1.1/"
   xmlns:cc="http://creativecommons.org/ns#"
   xmlns:rdf="http://www.w3.org/1999/02/22-rdf-syntax-ns#"
   xmlns:svg="http://www.w3.org/2000/svg"
   xmlns="http://www.w3.org/2000/svg"
   viewBox="0 0 346.66666 150.66667"
   height="150.66667"
   width="346.66666"
   xml:space="preserve"
   id="svg2"
   version="1.1"><metadata
     id="metadata8"><rdf:RDF><cc:Work
         rdf:about=""><dc:format>image/svg+xml</dc:format><dc:type
           rdf:resource="http://purl.org/dc/dcmitype/StillImage" /></cc:Work></rdf:RDF></metadata><defs
     id="defs6"><clipPath
       id="clipPath24"
       clipPathUnits="userSpaceOnUse"><path
         id="path22"
         d="M 0,0 H 260 V 113 H 0 Z" /></clipPath><clipPath
       id="clipPath136"
       clipPathUnits="userSpaceOnUse"><path
         id="path134"
         d="M 0.06,0.05999756 H 259.67301 V 112.67401 H 0.06 Z" /></clipPath></defs><g
     transform="matrix(1.3333333,0,0,-1.3333333,0,150.66667)"
     id="g10"><g
       id="g12" /><g
       id="g14" /><g
       id="g16"><g
         id="g18"><g
           clip-path="url(#clipPath24)"
           id="g20"><g
             id="g26" /><g
             id="g28"><text
               id="text32"
               style="font-variant:normal;font-weight:normal;font-size:9.56400013px;font-family:CMR12;-inkscape-font-specification:CMR12;writing-mode:lr-tb;fill:#231f20;fill-opacity:1;fill-rule:nonzero;stroke:none"
               transform="matrix(1,0,0,-1,226.785,58.399597)"><tspan
                 id="tspan30"
                 y="0"
                 x="0 4.676796">14</tspan></text>
<text
               id="text36"
               style="font-variant:normal;font-weight:normal;font-size:9.56400013px;font-family:CMR12;-inkscape-font-specification:CMR12;writing-mode:lr-tb;fill:#231f20;fill-opacity:1;fill-rule:nonzero;stroke:none"
               transform="matrix(1,0,0,-1,169.78644,21.400307)"><tspan
                 id="tspan34"
                 y="0"
                 x="0 4.676796">14</tspan></text>
<text
               id="text40"
               style="font-variant:normal;font-weight:normal;font-size:9.56400013px;font-family:CMR12;-inkscape-font-specification:CMR12;writing-mode:lr-tb;fill:#231f20;fill-opacity:1;fill-rule:nonzero;stroke:none"
               transform="matrix(1,0,0,-1,210.11974,39.73354)"><tspan
                 id="tspan38"
                 y="0"
                 x="0 4.676796">23</tspan></text>
<text
               id="text44"
               style="font-variant:normal;font-weight:normal;font-size:9.56400013px;font-family:CMR12;-inkscape-font-specification:CMR12;writing-mode:lr-tb;fill:#231f20;fill-opacity:1;fill-rule:nonzero;stroke:none"
               transform="matrix(1,0,0,-1,187.78589,59.066208)"><tspan
                 id="tspan42"
                 y="0"
                 x="0 4.676796">35</tspan></text>
<text
               id="text48"
               style="font-variant:normal;font-weight:normal;font-size:9.56400013px;font-family:CMR12;-inkscape-font-specification:CMR12;writing-mode:lr-tb;fill:#231f20;fill-opacity:1;fill-rule:nonzero;stroke:none"
               transform="matrix(1,0,0,-1,199.45396,77.399437)"><tspan
                 id="tspan46"
                 y="0"
                 x="0 4.676796">12</tspan></text>
<text
               id="text52"
               style="font-variant:normal;font-weight:normal;font-size:9.56400013px;font-family:CMR12;-inkscape-font-specification:CMR12;writing-mode:lr-tb;fill:#231f20;fill-opacity:1;fill-rule:nonzero;stroke:none"
               transform="matrix(1,0,0,-1,153.45399,40.066364)"><tspan
                 id="tspan50"
                 y="0"
                 x="0 4.676796">42</tspan></text>
<text
               id="text56"
               style="font-variant:normal;font-weight:normal;font-size:9.56400013px;font-family:CMR12;-inkscape-font-specification:CMR12;writing-mode:lr-tb;fill:#231f20;fill-opacity:1;fill-rule:nonzero;stroke:none"
               transform="matrix(1,0,0,-1,144.11954,59.066208)"><tspan
                 id="tspan54"
                 y="0"
                 x="0 4.676796">52</tspan></text>
<text
               id="text60"
               style="font-variant:normal;font-weight:normal;font-size:9.56400013px;font-family:CMR12;-inkscape-font-specification:CMR12;writing-mode:lr-tb;fill:#231f20;fill-opacity:1;fill-rule:nonzero;stroke:none"
               transform="matrix(1,0,0,-1,150.45186,77.066612)"><tspan
                 id="tspan58"
                 y="0"
                 x="0 4.676796">20</tspan></text>
<text
               id="text64"
               style="font-variant:normal;font-weight:normal;font-size:9.56400013px;font-family:CMR12;-inkscape-font-specification:CMR12;writing-mode:lr-tb;fill:#231f20;fill-opacity:1;fill-rule:nonzero;stroke:none"
               transform="matrix(1,0,0,-1,115.11862,58.733379)"><tspan
                 id="tspan62"
                 y="0"
                 x="0 4.676796">61</tspan></text>
<text
               id="text68"
               style="font-variant:normal;font-weight:normal;font-size:9.56400013px;font-family:CMR12;-inkscape-font-specification:CMR12;writing-mode:lr-tb;fill:#231f20;fill-opacity:1;fill-rule:nonzero;stroke:none"
               transform="matrix(1,0,0,-1,124.1193,21.733133)"><tspan
                 id="tspan66"
                 y="0"
                 x="0 4.676796">19</tspan></text>
<text
               id="text72"
               style="font-variant:normal;font-weight:normal;font-size:9.56400013px;font-family:CMR12;-inkscape-font-specification:CMR12;writing-mode:lr-tb;fill:#231f20;fill-opacity:1;fill-rule:nonzero;stroke:none"
               transform="matrix(1,0,0,-1,125.11874,95.733627)"><tspan
                 id="tspan70"
                 y="0"
                 x="0 4.676796">10</tspan></text>
<text
               id="text76"
               style="font-variant:normal;font-weight:normal;font-size:9.56400013px;font-family:CMR12;-inkscape-font-specification:CMR12;writing-mode:lr-tb;fill:#231f20;fill-opacity:1;fill-rule:nonzero;stroke:none"
               transform="matrix(1,0,0,-1,108.78821,76.400955)"><tspan
                 id="tspan74"
                 y="0"
                 x="0 4.676796">29</tspan></text>
<text
               id="text80"
               style="font-variant:normal;font-weight:normal;font-size:9.56400013px;font-family:CMR12;-inkscape-font-specification:CMR12;writing-mode:lr-tb;fill:#231f20;fill-opacity:1;fill-rule:nonzero;stroke:none"
               transform="matrix(1,0,0,-1,43.786484,59.066204)"><tspan
                 id="tspan78"
                 y="0"
                 x="0 4.676796">20</tspan></text>
<text
               id="text84"
               style="font-variant:normal;font-weight:normal;font-size:9.56400013px;font-family:CMR12;-inkscape-font-specification:CMR12;writing-mode:lr-tb;fill:#231f20;fill-opacity:1;fill-rule:nonzero;stroke:none"
               transform="matrix(1,0,0,-1,56.785873,39.733536)"><tspan
                 id="tspan82"
                 y="0"
                 x="0 4.676796">36</tspan></text>
<text
               id="text88"
               style="font-variant:normal;font-weight:normal;font-size:9.56400013px;font-family:CMR12;-inkscape-font-specification:CMR12;writing-mode:lr-tb;fill:#231f20;fill-opacity:1;fill-rule:nonzero;stroke:none"
               transform="matrix(1,0,0,-1,83.119392,58.399593)"><tspan
                 id="tspan86"
                 y="0"
                 x="0 4.676796">40</tspan></text>
<text
               id="text92"
               style="font-variant:normal;font-weight:normal;font-size:9.56400013px;font-family:CMR12;-inkscape-font-specification:CMR12;writing-mode:lr-tb;fill:#231f20;fill-opacity:1;fill-rule:nonzero;stroke:none"
               transform="matrix(1,0,0,-1,182.12114,95.732666)"><tspan
                 id="tspan90"
                 y="0"
                 x="0">7</tspan></text>
<text
               id="text96"
               style="font-variant:normal;font-weight:normal;font-size:9.56400013px;font-family:CMR12;-inkscape-font-specification:CMR12;writing-mode:lr-tb;fill:#231f20;fill-opacity:1;fill-rule:nonzero;stroke:none"
               transform="matrix(1,0,0,-1,68.784874,76.39904)"><tspan
                 id="tspan94"
                 y="0"
                 x="0 4.676796">15</tspan></text>
<text
               id="text100"
               style="font-variant:normal;font-weight:normal;font-size:9.56400013px;font-family:CMR12;-inkscape-font-specification:CMR12;writing-mode:lr-tb;fill:#231f20;fill-opacity:1;fill-rule:nonzero;stroke:none"
               transform="matrix(1,0,0,-1,11.786306,58.732422)"><tspan
                 id="tspan98"
                 y="0"
                 x="0">5</tspan></text>
<text
               id="text104"
               style="font-variant:normal;font-weight:normal;font-size:9.56400013px;font-family:CMR12;-inkscape-font-specification:CMR12;writing-mode:lr-tb;fill:#231f20;fill-opacity:1;fill-rule:nonzero;stroke:none"
               transform="matrix(1,0,0,-1,33.786373,76.400002)"><tspan
                 id="tspan102"
                 y="0"
                 x="0">9</tspan></text>
<text
               id="text108"
               style="font-variant:normal;font-weight:normal;font-size:9.56400013px;font-family:CMR12;-inkscape-font-specification:CMR12;writing-mode:lr-tb;fill:#231f20;fill-opacity:1;fill-rule:nonzero;stroke:none"
               transform="matrix(1,0,0,-1,31.452757,40.066364)"><tspan
                 id="tspan106"
                 y="0"
                 x="0">8</tspan></text>
<text
               id="text112"
               style="font-variant:normal;font-weight:normal;font-size:9.56400013px;font-family:CMR12;-inkscape-font-specification:CMR12;writing-mode:lr-tb;fill:#231f20;fill-opacity:1;fill-rule:nonzero;stroke:none"
               transform="matrix(1,0,0,-1,135.78644,2.4004636)"><tspan
                 id="tspan110"
                 y="0"
                 x="0">2</tspan></text>
<text
               id="text116"
               style="font-variant:normal;font-weight:normal;font-size:9.56400013px;font-family:CMR12;-inkscape-font-specification:CMR12;writing-mode:lr-tb;fill:#231f20;fill-opacity:1;fill-rule:nonzero;stroke:none"
               transform="matrix(1,0,0,-1,223.1201,21.732176)"><tspan
                 id="tspan114"
                 y="0"
                 x="0">4</tspan></text>
<text
               id="text120"
               style="font-variant:normal;font-weight:normal;font-size:9.56400013px;font-family:CMR12;-inkscape-font-specification:CMR12;writing-mode:lr-tb;fill:#231f20;fill-opacity:1;fill-rule:nonzero;stroke:none"
               transform="matrix(1,0,0,-1,250.12022,40.399193)"><tspan
                 id="tspan118"
                 y="0"
                 x="0">5</tspan></text>
<text
               id="text124"
               style="font-variant:normal;font-weight:normal;font-size:9.56400013px;font-family:CMR12;-inkscape-font-specification:CMR12;writing-mode:lr-tb;fill:#231f20;fill-opacity:1;fill-rule:nonzero;stroke:none"
               transform="matrix(1,0,0,-1,182.12019,95.398888)"><tspan
                 id="tspan122"
                 y="0"
                 x="0">7</tspan></text>
<text
               id="text128"
               style="font-variant:normal;font-weight:normal;font-size:9.56400013px;font-family:CMR12;-inkscape-font-specification:CMR12;writing-mode:lr-tb;fill:#231f20;fill-opacity:1;fill-rule:nonzero;stroke:none"
               transform="matrix(1,0,0,-1,242.11995,77.398483)"><tspan
                 id="tspan126"
                 y="0"
                 x="0">3</tspan></text>
</g><g
             id="g130"><g
               clip-path="url(#clipPath136)"
               id="g132"><path
                 id="path138"
                 style="fill:none;stroke:#231f20;stroke-width:1;stroke-linecap:butt;stroke-linejoin:miter;stroke-miterlimit:4;stroke-dasharray:none;stroke-opacity:1"
                 d="m 123.84,1.8390001 h 13.66601 l 13.66699,1.0000001 15,1.3340001 h 8.334 l 17,1.6659999 9.666,1.3340001 7.334,0.6659999 5.666,0.6670003 11,1 3,0.6669995 h 4.667 l 4,0.666001 2.333,0.333999 6,3.333001 3.33402,2.333999 2.666,2.666001 3.334,7 2,8.333999 1.66598,11.666001 1,8.667003 V 62.84 l -0.66598,10.333004 -0.66702,4.333 -1.33298,9.333992 -2.66702,4.666008 -4.33298,3.667 -9.66702,5.332996 -10.333,3 -11.334,2.334 -10.333,2 -6.333,0.666 -7.667,0.667 -9,1.667 -8,0.666 h -8 l -12.667,0.667 -10.666,-0.667 -9.667,-0.333 -11.334,-1.333 -9.666,-1.667 -9.667,-2 -8.999996,-1.333 -7.333999,-1 -8,-0.667 -9,-0.667 -7,-0.333 -9.666001,-1.333 -12.334003,-1.333996 -8.333,-1 -7.667,-3 -4,-1 -5.333,-3 -2.667,-1 -3,-2 -3.3330005,-2.666008 -3.3330002,-3.333992 -1.667,-4 L 1.506,71.839996 0.50600004,66.506004 1.506,58.173004 1.1730001,50.506001 1.506,43.84 l 2.0000003,-4.333999 3.667,-4.333001 3.6660007,-2 3.333999,-1 L 20.839001,28.84 25.173,28.173002 36.839001,24.84 h 5 l 6,-2.333999 h 3.667003 L 52.839001,22.173 57.173004,20.84 h 1.333 l 2,-0.667 h 1.333001 l 1.333999,-1 c 0,0 1,-0.666 2,-1 1,-0.333 3.666001,-2 3.666001,-2 0,0 3,-1 5,-2 2,-1 5.333999,-2 5.333999,-2 l 6,-1.666999 3.666001,-1.0000005 2.333999,-1 L 96.839005,5.506 c 0,0 0.666999,-0.6669998 2,-1 1.333995,-0.3329997 1.000991,-0.6669998 2.333995,-0.9999997 1.333,-0.3330002 5.333,-1.6670002 6.333,-1.6670002 1,0 3.334,0 3.334,0 l 4.333,-0.666 h 2.333 l 5.334,1" /></g></g><g
             id="g140"><text
               id="text144"
               style="font-variant:normal;font-weight:normal;font-size:9.56400013px;font-family:CMR12;-inkscape-font-specification:CMR12;writing-mode:lr-tb;fill:#231f20;fill-opacity:1;fill-rule:nonzero;stroke:none"
               transform="matrix(1,0,0,-1,93.118698,32.066101)"><tspan
                 id="tspan142"
                 y="0"
                 x="0 4.676796">55</tspan></text>
</g></g></g></g></g></svg>