<?xml version="1.0" encoding="UTF-8" standalone="no"?>
<svg
   xmlns:dc="http://purl.org/dc/elements/1.1/"
   xmlns:cc="http://creativecommons.org/ns#"
   xmlns:rdf="http://www.w3.org/1999/02/22-rdf-syntax-ns#"
   xmlns:svg="http://www.w3.org/2000/svg"
   xmlns="http://www.w3.org/2000/svg"
   viewBox="0 0 278.66666 44"
   height="44"
   width="278.66666"
   xml:space="preserve"
   id="svg2"
   version="1.1"><metadata
     id="metadata8"><rdf:RDF><cc:Work
         rdf:about=""><dc:format>image/svg+xml</dc:format><dc:type
           rdf:resource="http://purl.org/dc/dcmitype/StillImage" /></cc:Work></rdf:RDF></metadata><defs
     id="defs6"><clipPath
       id="clipPath24"
       clipPathUnits="userSpaceOnUse"><path
         id="path22"
         d="M 0,0 H 209 V 33 H 0 Z" /></clipPath><clipPath
       id="clipPath34"
       clipPathUnits="userSpaceOnUse"><path
         id="path32"
         d="M 0,0 H 208.24301 V 32.600002 H 0 Z" /></clipPath></defs><g
     transform="matrix(1.3333333,0,0,-1.3333333,0,44)"
     id="g10"><g
       id="g12" /><g
       id="g14" /><g
       id="g16"><g
         id="g18"><g
           clip-path="url(#clipPath24)"
           id="g20"><g
             id="g26" /><g
             id="g28"><g
               clip-path="url(#clipPath34)"
               id="g30"><path
                 id="path36"
                 style="fill:none;stroke:#231f20;stroke-width:1;stroke-linecap:butt;stroke-linejoin:miter;stroke-miterlimit:4;stroke-dasharray:none;stroke-opacity:1"
                 d="m 0.04,31.383001 c 5.6450004,0.465 11.707001,0.717001 18.018001,0.717001 17.086,0 32.353002,-1.849001 42.441003,-4.749 m 94.858006,0.192999 c -13.203,-3.036 -29.788,-4.844 -47.798,-4.844 -18.172009,0 -34.891003,1.839998 -48.151009,4.926 M 153.884,27.209999 C 163.858,29.611002 177.72701,31.1 193.06,31.1 c 3.47101,0 6.86902,-0.076 10.16202,-0.221998 M 5.04,9.184 c 5.645,0.4640007 11.707002,0.7160006 18.018001,0.7160006 17.086,0 32.353002,-1.849 42.441,-4.7490006 M 160.35701,5.3440003 C 147.15401,2.3080001 130.569,0.5 112.55901,0.5 94.387001,0.5 77.668007,2.3399999 64.408005,5.4260001 M 158.884,5.0099998 c 9.974,2.4010005 23.84301,3.8900008 39.176,3.8900008 3.47101,0 6.86902,-0.076 10.16202,-0.2220001 M 4.0580001,26 16.058001,26.9" /></g></g><g
             id="g38"><path
               id="path40"
               style="fill:#231f20;fill-opacity:1;fill-rule:nonzero;stroke:none"
               d="m 18.274,27.686001 c -1.701999,0.173998 -2.825,0.368 -4.207,0.586 l 0.625,-3.003 c 0.443001,0.17 2.260002,0.77 3.837999,1.190001 1.69,0.449998 3.237001,0.787 4.253002,0.941999 -1.049,0 -2.686001,0.099 -4.509001,0.285" /><path
               id="path42"
               style="fill:none;stroke:#231f20;stroke-width:1;stroke-linecap:butt;stroke-linejoin:miter;stroke-miterlimit:4;stroke-dasharray:none;stroke-opacity:1"
               d="m 167.55901,23 12,0.9" /><path
               id="path44"
               style="fill:#231f20;fill-opacity:1;fill-rule:nonzero;stroke:none"
               d="m 181.77501,24.686001 c -1.703,0.173998 -2.826,0.368 -4.20801,0.586 l 0.625,-3.003 c 0.444,0.17 2.26001,0.77 3.838,1.190001 1.69101,0.449998 3.23701,0.786998 4.253,0.941999 -1.04899,0 -2.68499,0.099 -4.50799,0.285" /><path
               id="path46"
               style="fill:none;stroke:#231f20;stroke-width:1;stroke-linecap:butt;stroke-linejoin:miter;stroke-miterlimit:4;stroke-dasharray:none;stroke-opacity:1"
               d="m 132.55901,7.7000003 12,0.9000001" /><path
               id="path48"
               style="fill:#231f20;fill-opacity:1;fill-rule:nonzero;stroke:none"
               d="m 146.77501,9.3860006 c -1.703,0.1750002 -2.826,0.3680001 -4.20801,0.5859995 l 0.625,-3.0029998 c 0.444,0.1700001 2.26001,0.77 3.838,1.1900001 1.69101,0.4499998 3.23701,0.7869997 4.253,0.9420004 -1.04899,9.994e-4 -2.68499,0.098999 -4.50799,0.2849998" /><path
               id="path50"
               style="fill:none;stroke:#231f20;stroke-width:1;stroke-linecap:butt;stroke-linejoin:miter;stroke-miterlimit:4;stroke-dasharray:none;stroke-opacity:1"
               d="m 133.05901,19.1 12,0.9" /><path
               id="path52"
               style="fill:#231f20;fill-opacity:1;fill-rule:nonzero;stroke:none"
               d="m 147.27501,20.786001 c -1.703,0.173998 -2.826,0.368 -4.20801,0.587 l 0.625,-3.004 c 0.444,0.17 2.26001,0.770001 3.838,1.189999 1.69101,0.450001 3.23701,0.787001 4.253,0.942001 -1.04899,0 -2.68499,0.099 -4.50799,0.285" /><path
               id="path54"
               style="fill:none;stroke:#231f20;stroke-width:1;stroke-linecap:butt;stroke-linejoin:miter;stroke-miterlimit:4;stroke-dasharray:none;stroke-opacity:1"
               d="M 91.058006,8 102.93999,6.6490002" /><path
               id="path56"
               style="fill:#231f20;fill-opacity:1;fill-rule:nonzero;stroke:none"
               d="m 105.452,6.9890003 c -1.53099,0.48 -2.502,0.8709994 -3.705,1.3330002 L 100.80701,5.348 c 0.50799,0.08 2.544,0.3170004 4.261,0.4260002 1.838,0.118 3.48299,0.1540003 4.529,0.1140003 -0.998,0.1939998 -2.50601,0.5889997 -4.14501,1.1009998" /><path
               id="path58"
               style="fill:none;stroke:#231f20;stroke-width:1;stroke-linecap:butt;stroke-linejoin:miter;stroke-miterlimit:4;stroke-dasharray:none;stroke-opacity:1"
               d="m 94.558006,17.300001 11.713994,-1.805" /><path
               id="path60"
               style="fill:#231f20;fill-opacity:1;fill-rule:nonzero;stroke:none"
               d="m 108.814,15.739 c -1.47699,0.536002 -2.403,0.964001 -3.555,1.470999 l -1.25499,-2.931998 c 0.51599,0.061 2.57199,0.219 4.29799,0.262999 1.846,0.046 3.49101,0.019 4.53201,-0.061 -0.97601,0.231 -2.43801,0.684001 -4.02001,1.259" /><path
               id="path62"
               style="fill:none;stroke:#231f20;stroke-width:1;stroke-linecap:butt;stroke-linejoin:miter;stroke-miterlimit:4;stroke-dasharray:none;stroke-opacity:1"
               d="m 52.558002,12.5 11.438,-2.356999" /><path
               id="path64"
               style="fill:#231f20;fill-opacity:1;fill-rule:nonzero;stroke:none"
               d="m 66.562004,10.265 c -1.401001,0.606 -2.267998,1.075 -3.349003,1.636001 l -1.639,-2.8620005 c 0.522003,0.035 2.593998,0.095 4.319004,0.056 C 67.739998,9.0540009 69.377007,8.948 70.403,8.8190002 69.462006,9.0960007 68.063004,9.6170006 66.562004,10.265" /><path
               id="path66"
               style="fill:none;stroke:#231f20;stroke-width:1;stroke-linecap:butt;stroke-linejoin:miter;stroke-miterlimit:4;stroke-dasharray:none;stroke-opacity:1"
               d="M 50.058002,23.300001 61.831001,21.639999" /><path
               id="path68"
               style="fill:#231f20;fill-opacity:1;fill-rule:nonzero;stroke:none"
               d="m 64.364006,21.915001 c -1.495003,0.518 -2.436005,0.934999 -3.605003,1.427 l -1.154,-2.945999 c 0.514,0.066 2.564995,0.25 4.287999,0.314998 1.843998,0.069 3.490001,0.062 4.533001,-0.004 -0.983002,0.219 -2.460999,0.652 -4.061997,1.208" /><path
               id="path70"
               style="fill:none;stroke:#231f20;stroke-width:1;stroke-linecap:butt;stroke-linejoin:miter;stroke-miterlimit:4;stroke-dasharray:none;stroke-opacity:1"
               d="m 14.558001,13.1 12,0.9" /><path
               id="path72"
               style="fill:#231f20;fill-opacity:1;fill-rule:nonzero;stroke:none"
               d="m 28.774002,14.786 c -1.702001,0.174 -2.825001,0.368 -4.207001,0.587001 l 0.625,-3.004001 c 0.443001,0.170001 2.260001,0.770001 3.837998,1.190001 1.69,0.45 3.237003,0.787 4.253002,0.941999 -1.049,0 -2.685999,0.099 -4.508999,0.285" /><path
               id="path74"
               style="fill:none;stroke:#231f20;stroke-width:1;stroke-linecap:butt;stroke-linejoin:miter;stroke-miterlimit:4;stroke-dasharray:none;stroke-opacity:1"
               d="m 170.55901,12.5 12,0.900001" /><path
               id="path76"
               style="fill:#231f20;fill-opacity:1;fill-rule:nonzero;stroke:none"
               d="m 184.77501,14.186001 c -1.703,0.173999 -2.826,0.368 -4.20801,0.585999 l 0.62601,-3.002999 c 0.44299,0.169999 2.259,0.77 3.838,1.19 1.69,0.449999 3.237,0.786999 4.25199,0.942 -1.04899,0 -2.68499,0.099 -4.50799,0.285" /></g></g></g></g></g></svg>