<?xml version="1.0" encoding="UTF-8" standalone="no"?>
<svg
   xmlns:dc="http://purl.org/dc/elements/1.1/"
   xmlns:cc="http://creativecommons.org/ns#"
   xmlns:rdf="http://www.w3.org/1999/02/22-rdf-syntax-ns#"
   xmlns:svg="http://www.w3.org/2000/svg"
   xmlns="http://www.w3.org/2000/svg"
   viewBox="0 0 314.66666 184"
   height="184"
   width="314.66666"
   xml:space="preserve"
   id="svg2"
   version="1.1"><metadata
     id="metadata8"><rdf:RDF><cc:Work
         rdf:about=""><dc:format>image/svg+xml</dc:format><dc:type
           rdf:resource="http://purl.org/dc/dcmitype/StillImage" /></cc:Work></rdf:RDF></metadata><defs
     id="defs6"><clipPath
       id="clipPath24"
       clipPathUnits="userSpaceOnUse"><path
         id="path22"
         d="M 0,0 H 236 V 138 H 0 Z" /></clipPath><clipPath
       id="clipPath40"
       clipPathUnits="userSpaceOnUse"><path
         id="path38"
         d="M 0.06,0.05999756 H 235.58701 V 137.17501 H 0.06 Z" /></clipPath><clipPath
       id="clipPath80"
       clipPathUnits="userSpaceOnUse"><path
         id="path78"
         d="M 0.06,0.05999756 H 235.58701 V 137.17501 H 0.06 Z" /></clipPath><clipPath
       id="clipPath118"
       clipPathUnits="userSpaceOnUse"><path
         id="path116"
         d="M 0.06,0.05999756 H 235.58701 V 137.17501 H 0.06 Z" /></clipPath></defs><g
     transform="matrix(1.3333333,0,0,-1.3333333,0,184)"
     id="g10"><g
       id="g12" /><g
       id="g14" /><g
       id="g16"><g
         id="g18"><g
           clip-path="url(#clipPath24)"
           id="g20"><g
             id="g26" /><g
             id="g28"><path
               id="path30"
               style="fill:#747273;fill-opacity:1;fill-rule:nonzero;stroke:none"
               d="M 27.5,111.00101 H 37 V 1.5 h -9.5 z" /><path
               id="path32"
               style="fill:#231f20;fill-opacity:1;fill-rule:nonzero;stroke:none"
               d="M 37,1.5 V 111.00101" /></g><g
             id="g34"><g
               clip-path="url(#clipPath40)"
               id="g36"><path
                 id="path42"
                 style="fill:none;stroke:#231f20;stroke-width:3;stroke-linecap:butt;stroke-linejoin:miter;stroke-miterlimit:4;stroke-dasharray:none;stroke-opacity:1"
                 d="M 37,1.5 V 111.00101" /></g></g><g
             id="g44"><path
               id="path46"
               style="fill:#231f20;fill-opacity:1;fill-rule:nonzero;stroke:none"
               d="m 88,58.001003 c 0,-1.381004 -1.118996,-2.5 -2.5,-2.5 -1.380997,0 -2.5,1.118996 -2.5,2.5 0,1.381001 1.119003,2.5 2.5,2.5 1.381004,0 2.5,-1.118999 2.5,-2.5" /><path
               id="path48"
               style="fill:none;stroke:#231f20;stroke-width:1;stroke-linecap:butt;stroke-linejoin:miter;stroke-miterlimit:4;stroke-dasharray:none;stroke-opacity:1"
               d="m 88,58.001003 c 0,-1.381004 -1.118996,-2.5 -2.5,-2.5 -1.380997,0 -2.5,1.118996 -2.5,2.5 0,1.381001 1.119003,2.5 2.5,2.5 1.381004,0 2.5,-1.118999 2.5,-2.5 z" /><path
               id="path50"
               style="fill:#231f20;fill-opacity:1;fill-rule:nonzero;stroke:none"
               d="m 68,58.501003 c 0,-1.381004 -1.118996,-2.5 -2.5,-2.5 -1.380997,0 -2.5,1.118996 -2.5,2.5 0,1.381001 1.119003,2.5 2.5,2.5 1.381004,0 2.5,-1.118999 2.5,-2.5" /><path
               id="path52"
               style="fill:none;stroke:#231f20;stroke-width:1;stroke-linecap:butt;stroke-linejoin:miter;stroke-miterlimit:4;stroke-dasharray:none;stroke-opacity:1"
               d="m 68,58.501003 c 0,-1.381004 -1.118996,-2.5 -2.5,-2.5 -1.380997,0 -2.5,1.118996 -2.5,2.5 0,1.381001 1.119003,2.5 2.5,2.5 1.381004,0 2.5,-1.118999 2.5,-2.5 z" /><path
               id="path54"
               style="fill:#231f20;fill-opacity:1;fill-rule:nonzero;stroke:none"
               d="m 49,58.501003 c 0,-1.381004 -1.118999,-2.5 -2.5,-2.5 -1.380997,0 -2.5,1.118996 -2.5,2.5 0,1.381001 1.119003,2.5 2.5,2.5 1.381001,0 2.5,-1.118999 2.5,-2.5" /><path
               id="path56"
               style="fill:none;stroke:#231f20;stroke-width:1;stroke-linecap:butt;stroke-linejoin:miter;stroke-miterlimit:4;stroke-dasharray:none;stroke-opacity:1"
               d="m 49,58.501003 c 0,-1.381004 -1.118999,-2.5 -2.5,-2.5 -1.380997,0 -2.5,1.118996 -2.5,2.5 0,1.381001 1.119003,2.5 2.5,2.5 1.381001,0 2.5,-1.118999 2.5,-2.5 z" /><path
               id="path58"
               style="fill:#231f20;fill-opacity:1;fill-rule:nonzero;stroke:none"
               d="M 46.5,58.501003 V 74.001007" /><path
               id="path60"
               style="fill:none;stroke:#231f20;stroke-width:1;stroke-linecap:butt;stroke-linejoin:miter;stroke-miterlimit:4;stroke-dasharray:none;stroke-opacity:1"
               d="M 46.5,58.501003 V 74.001007" /><path
               id="path62"
               style="fill:#231f20;fill-opacity:1;fill-rule:nonzero;stroke:none"
               d="m 45.475002,76.362007 c -0.499,-1.653 -0.958999,-2.728004 -1.492,-4.054001 h 5.045002 c -0.226002,0.474999 -0.993,2.401001 -1.492001,4.054001 -0.535,1.769997 -0.900001,3.375 -1.031002,4.414993 -0.129997,-1.039993 -0.495998,-2.644996 -1.029999,-4.414993" /><path
               id="path64"
               style="fill:#231f20;fill-opacity:1;fill-rule:nonzero;stroke:none"
               d="M 65.5,58.501003 V 91.501007" /><path
               id="path66"
               style="fill:none;stroke:#231f20;stroke-width:1;stroke-linecap:butt;stroke-linejoin:miter;stroke-miterlimit:4;stroke-dasharray:none;stroke-opacity:1"
               d="M 65.5,58.501003 V 91.501007" /><path
               id="path68"
               style="fill:#231f20;fill-opacity:1;fill-rule:nonzero;stroke:none"
               d="m 64.475006,93.862007 c -0.499004,-1.653 -0.959003,-2.728004 -1.492004,-4.054001 H 68.028 c -0.225998,0.474999 -0.992996,2.401001 -1.491997,4.054001 -0.533996,1.769997 -0.900001,3.375 -1.030998,4.415001 C 65.375,97.237007 65.009003,95.632004 64.475006,93.862007" /><path
               id="path70"
               style="fill:#747273;fill-opacity:1;fill-rule:nonzero;stroke:none"
               d="m 154.028,113.27701 h 9.5 v -109.5 h -9.5 z" /><path
               id="path72"
               style="fill:#231f20;fill-opacity:1;fill-rule:nonzero;stroke:none"
               d="M 154.028,113.27701 V 3.7770002" /></g><g
             id="g74"><g
               clip-path="url(#clipPath80)"
               id="g76"><path
                 id="path82"
                 style="fill:none;stroke:#231f20;stroke-width:3;stroke-linecap:butt;stroke-linejoin:miter;stroke-miterlimit:4;stroke-dasharray:none;stroke-opacity:1"
                 d="M 154.028,113.27701 V 3.7770002" /></g></g><g
             id="g84"><path
               id="path86"
               style="fill:#231f20;fill-opacity:1;fill-rule:nonzero;stroke:none"
               d="m 103.5,58.001003 c 0,1.381001 1.12,2.5 2.5,2.5 1.381,0 2.5,-1.118999 2.5,-2.5 0,-1.381004 -1.119,-2.5 -2.5,-2.5 -1.38,0 -2.5,1.118996 -2.5,2.5" /><path
               id="path88"
               style="fill:none;stroke:#231f20;stroke-width:1;stroke-linecap:butt;stroke-linejoin:miter;stroke-miterlimit:4;stroke-dasharray:none;stroke-opacity:1"
               d="m 103.5,58.001003 c 0,1.381001 1.12,2.5 2.5,2.5 1.381,0 2.5,-1.118999 2.5,-2.5 0,-1.381004 -1.119,-2.5 -2.5,-2.5 -1.38,0 -2.5,1.118996 -2.5,2.5 z" /><path
               id="path90"
               style="fill:#231f20;fill-opacity:1;fill-rule:nonzero;stroke:none"
               d="m 123,57.501003 c 0,1.381001 1.12,2.5 2.5,2.5 1.381,0 2.5,-1.118999 2.5,-2.5 0,-1.381004 -1.119,-2.5 -2.5,-2.5 -1.38,0 -2.5,1.118996 -2.5,2.5" /><path
               id="path92"
               style="fill:none;stroke:#231f20;stroke-width:1;stroke-linecap:butt;stroke-linejoin:miter;stroke-miterlimit:4;stroke-dasharray:none;stroke-opacity:1"
               d="m 123,57.501003 c 0,1.381001 1.12,2.5 2.5,2.5 1.381,0 2.5,-1.118999 2.5,-2.5 0,-1.381004 -1.119,-2.5 -2.5,-2.5 -1.38,0 -2.5,1.118996 -2.5,2.5 z" /><path
               id="path94"
               style="fill:#231f20;fill-opacity:1;fill-rule:nonzero;stroke:none"
               d="m 142.5,57.501003 c 0,1.381001 1.12,2.5 2.5,2.5 1.38101,0 2.5,-1.118999 2.5,-2.5 0,-1.381004 -1.11899,-2.5 -2.5,-2.5 -1.38,0 -2.5,1.118996 -2.5,2.5" /><path
               id="path96"
               style="fill:none;stroke:#231f20;stroke-width:1;stroke-linecap:butt;stroke-linejoin:miter;stroke-miterlimit:4;stroke-dasharray:none;stroke-opacity:1"
               d="m 142.5,57.501003 c 0,1.381001 1.12,2.5 2.5,2.5 1.38101,0 2.5,-1.118999 2.5,-2.5 0,-1.381004 -1.11899,-2.5 -2.5,-2.5 -1.38,0 -2.5,1.118996 -2.5,2.5 z" /><path
               id="path98"
               style="fill:#231f20;fill-opacity:1;fill-rule:nonzero;stroke:none"
               d="M 125.5,57.501003 V 90.501007" /><path
               id="path100"
               style="fill:none;stroke:#231f20;stroke-width:1;stroke-linecap:butt;stroke-linejoin:miter;stroke-miterlimit:4;stroke-dasharray:none;stroke-opacity:1"
               d="M 125.5,57.501003 V 90.501007" /><path
               id="path102"
               style="fill:#231f20;fill-opacity:1;fill-rule:nonzero;stroke:none"
               d="m 124.47601,92.862007 c -0.5,-1.653 -0.96,-2.728004 -1.492,-4.054001 h 5.04399 c -0.22499,0.474999 -0.992,2.401001 -1.491,4.054001 -0.53499,1.769997 -0.90099,3.375 -1.031,4.415001 -0.12999,-1.040001 -0.49601,-2.645004 -1.02999,-4.415001" /><path
               id="path104"
               style="fill:#231f20;fill-opacity:1;fill-rule:nonzero;stroke:none"
               d="M 144.5,57.001003 V 72.501007" /><path
               id="path106"
               style="fill:none;stroke:#231f20;stroke-width:1;stroke-linecap:butt;stroke-linejoin:miter;stroke-miterlimit:4;stroke-dasharray:none;stroke-opacity:1"
               d="M 144.5,57.001003 V 72.501007" /><path
               id="path108"
               style="fill:#231f20;fill-opacity:1;fill-rule:nonzero;stroke:none"
               d="m 143.47601,74.862007 c -0.5,-1.653 -0.96,-2.728004 -1.492,-4.054001 h 5.04399 c -0.22499,0.474999 -0.99199,2.401001 -1.491,4.054001 -0.53499,1.769997 -0.901,3.375 -1.03099,4.414993 -0.13,-1.039993 -0.49602,-2.644996 -1.03,-4.414993" /><path
               id="path110"
               style="fill:#ffffff;fill-opacity:1;fill-rule:nonzero;stroke:none"
               d="M 19,11.5 H 169.5 V 0.5 H 19 Z" /></g><g
             id="g112"><g
               clip-path="url(#clipPath118)"
               id="g114"><path
                 id="path120"
                 style="fill:none;stroke:#ffffff;stroke-width:1;stroke-linecap:butt;stroke-linejoin:miter;stroke-miterlimit:4;stroke-dasharray:none;stroke-opacity:1"
                 d="M 19,11.5 H 169.5 V 0.5 H 19 Z" /></g></g><g
             id="g122"><path
               id="path124"
               style="fill:#ffffff;fill-opacity:1;fill-rule:nonzero;stroke:none"
               d="m 22,116.50101 h 150.5 v -11 H 22 Z" /><path
               id="path126"
               style="fill:none;stroke:#ffffff;stroke-width:1;stroke-linecap:butt;stroke-linejoin:miter;stroke-miterlimit:4;stroke-dasharray:none;stroke-opacity:1"
               d="m 22,116.50101 h 150.5 v -11 H 22 Z" /><path
               id="path128"
               style="fill:#231f20;fill-opacity:1;fill-rule:nonzero;stroke:none"
               d="M 85.5,58.001003 V 114.00101" /><path
               id="path130"
               style="fill:none;stroke:#231f20;stroke-width:1;stroke-linecap:butt;stroke-linejoin:miter;stroke-miterlimit:4;stroke-dasharray:none;stroke-opacity:1"
               d="M 85.5,58.001003 V 114.00101" /><path
               id="path132"
               style="fill:#231f20;fill-opacity:1;fill-rule:nonzero;stroke:none"
               d="m 84.475006,116.36201 c -0.499,-1.653 -0.959,-2.72801 -1.492004,-4.054 h 5.045006 c -0.226006,0.47499 -0.993004,2.401 -1.492005,4.054 -0.534996,1.76999 -0.900001,3.375 -1.030998,4.415 -0.129997,-1.04 -0.496002,-2.64501 -1.029999,-4.415" /><path
               id="path134"
               style="fill:#231f20;fill-opacity:1;fill-rule:nonzero;stroke:none"
               d="M 105,57.501003 V 113.50101" /><path
               id="path136"
               style="fill:none;stroke:#231f20;stroke-width:1;stroke-linecap:butt;stroke-linejoin:miter;stroke-miterlimit:4;stroke-dasharray:none;stroke-opacity:1"
               d="M 105,57.501003 V 113.50101" /><path
               id="path138"
               style="fill:#231f20;fill-opacity:1;fill-rule:nonzero;stroke:none"
               d="m 103.97601,115.86201 c -0.5,-1.653 -0.96,-2.72801 -1.49201,-4.054 h 5.04401 c -0.22501,0.47499 -0.99201,2.401 -1.49101,4.054 -0.53499,1.76999 -0.901,3.375 -1.031,4.415 -0.12999,-1.04 -0.49601,-2.64501 -1.02999,-4.415" /><text
               id="text142"
               style="font-variant:normal;font-weight:normal;font-size:11.95500088px;font-family:CMR12;-inkscape-font-specification:CMR12;writing-mode:lr-tb;fill:#231f20;fill-opacity:1;fill-rule:nonzero;stroke:none"
               transform="matrix(1,0,0,-1,0,52.708698)"><tspan
                 id="tspan140"
                 y="0"
                 x="0 6.4915657 12.337561 18.829126">bank</tspan></text>
<text
               id="text146"
               style="font-variant:normal;font-weight:normal;font-size:11.95500088px;font-family:CMMI12;-inkscape-font-specification:CMMI12;writing-mode:lr-tb;fill:#231f20;fill-opacity:1;fill-rule:nonzero;stroke:none"
               transform="matrix(1,0,0,-1,116.94023,116.20888)"><tspan
                 id="tspan144"
                 y="0"
                 x="0">v</tspan></text>
<path
               id="path148"
               style="fill:#231f20;fill-opacity:1;fill-rule:nonzero;stroke:none"
               d="m 116.93999,114.774 h 6.089 v -0.478 h -6.089 z" /><text
               id="text152"
               style="font-variant:normal;font-weight:normal;font-size:11.95500088px;font-family:CMR12;-inkscape-font-specification:CMR12;writing-mode:lr-tb;fill:#231f20;fill-opacity:1;fill-rule:nonzero;stroke:none"
               transform="matrix(1,0,0,-1,166,51.708698)"><tspan
                 id="tspan150"
                 y="0"
                 x="0 6.4915657 12.337561 18.829126">bank</tspan></text>
<text
               id="text156"
               style="font-variant:normal;font-weight:normal;font-size:11.95500088px;font-family:CMMI12;-inkscape-font-specification:CMMI12;writing-mode:lr-tb;fill:#231f20;fill-opacity:1;fill-rule:nonzero;stroke:none"
               transform="matrix(1,0,0,-1,83.939682,38.708832)"><tspan
                 id="tspan154"
                 y="0"
                 x="0">j</tspan></text>
<text
               id="text160"
               style="font-variant:normal;font-weight:normal;font-size:11.95500088px;font-family:CMMI12;-inkscape-font-specification:CMMI12;writing-mode:lr-tb;fill:#231f20;fill-opacity:1;fill-rule:nonzero;stroke:none"
               transform="matrix(1,0,0,-1,123.93872,4.2090917)"><tspan
                 id="tspan158"
                 y="0"
                 x="0">i</tspan></text>
<path
               id="path162"
               style="fill:#231f20;fill-opacity:1;fill-rule:nonzero;stroke:none"
               d="m 122.89,14.32 c -1.32299,0.399999 -2.18199,0.768 -3.244,1.193 v -4.034999 c 0.38001,0.18 1.92101,0.793999 3.244,1.192999 1.41601,0.428001 2.699,0.721 3.53101,0.825 -0.83201,0.104 -2.115,0.397001 -3.53101,0.824" /><path
               id="path164"
               style="fill:#231f20;fill-opacity:1;fill-rule:nonzero;stroke:none"
               d="M 95.136002,39.425003 C 94.736008,38.103001 94.368004,37.243 93.942001,36.181004 h 4.036003 c -0.180999,0.379997 -0.793998,1.921997 -1.193,3.243999 -0.428002,1.416 -0.721001,2.700001 -0.825005,3.531998 -0.104996,-0.831997 -0.396995,-2.115998 -0.823997,-3.531998" /><path
               id="path166"
               style="fill:#231f20;fill-opacity:1;fill-rule:nonzero;stroke:none"
               d="m 84.439995,38.774002 h 6.087997 v -0.478001 h -6.087997 z" /><path
               id="path168"
               style="fill:#231f20;fill-opacity:1;fill-rule:nonzero;stroke:none"
               d="m 122.93999,0.77300006 h 6.089 V 0.29500004 h -6.089 z" /><path
               id="path170"
               style="fill:#ffffff;fill-opacity:1;fill-rule:nonzero;stroke:none"
               d="m 86.5,13.5 h 137" /><path
               id="path172"
               style="fill:none;stroke:#231f20;stroke-width:1;stroke-linecap:butt;stroke-linejoin:miter;stroke-miterlimit:4;stroke-dasharray:none;stroke-opacity:1"
               d="m 86.5,13.5 h 137" /><path
               id="path174"
               style="fill:#231f20;fill-opacity:1;fill-rule:nonzero;stroke:none"
               d="m 225.86201,14.525001 c -1.653,0.5 -2.72799,0.96 -4.054,1.491999 v -5.045 c 0.47499,0.226001 2.401,0.993 4.054,1.492001 1.769,0.535 3.375,0.899999 4.415,1.031 -1.04,0.13 -2.646,0.496 -4.415,1.03" /><path
               id="path176"
               style="fill:#ffffff;fill-opacity:1;fill-rule:nonzero;stroke:none"
               d="M 96.382004,4 V 123.606" /><path
               id="path178"
               style="fill:none;stroke:#231f20;stroke-width:1;stroke-linecap:butt;stroke-linejoin:miter;stroke-miterlimit:4;stroke-dasharray:none;stroke-opacity:1"
               d="M 96.382004,4 V 123.606" /><path
               id="path180"
               style="fill:#231f20;fill-opacity:1;fill-rule:nonzero;stroke:none"
               d="m 95.357002,125.967 c -0.499,-1.652 -0.958999,-2.727 -1.490997,-4.05299 h 5.043991 c -0.224991,0.474 -0.991989,2.40099 -1.49099,4.05299 -0.535003,1.77001 -0.901001,3.37501 -1.030998,4.41601 -0.131004,-1.041 -0.496002,-2.646 -1.031006,-4.41601" /><text
               id="text184"
               style="font-variant:normal;font-weight:normal;font-size:11.95500088px;font-family:CMMI12;-inkscape-font-specification:CMMI12;writing-mode:lr-tb;fill:#231f20;fill-opacity:1;fill-rule:nonzero;stroke:none"
               transform="matrix(1,0,0,-1,228.93901,4.7090001)"><tspan
                 id="tspan182"
                 y="0"
                 x="0">x</tspan></text>
<text
               id="text188"
               style="font-variant:normal;font-weight:normal;font-size:11.95500088px;font-family:CMMI12;-inkscape-font-specification:CMMI12;writing-mode:lr-tb;fill:#231f20;fill-opacity:1;fill-rule:nonzero;stroke:none"
               transform="matrix(1,0,0,-1,87.939339,128.20894)"><tspan
                 id="tspan186"
                 y="0"
                 x="0">y</tspan></text>
</g></g></g></g></g></svg>