<?xml version="1.0" encoding="UTF-8" standalone="no"?>
<svg
   xmlns:dc="http://purl.org/dc/elements/1.1/"
   xmlns:cc="http://creativecommons.org/ns#"
   xmlns:rdf="http://www.w3.org/1999/02/22-rdf-syntax-ns#"
   xmlns:svg="http://www.w3.org/2000/svg"
   xmlns="http://www.w3.org/2000/svg"
   viewBox="0 0 278.66666 201.33333"
   height="201.33333"
   width="278.66666"
   xml:space="preserve"
   id="svg2"
   version="1.1"><metadata
     id="metadata8"><rdf:RDF><cc:Work
         rdf:about=""><dc:format>image/svg+xml</dc:format><dc:type
           rdf:resource="http://purl.org/dc/dcmitype/StillImage" /></cc:Work></rdf:RDF></metadata><defs
     id="defs6"><clipPath
       id="clipPath24"
       clipPathUnits="userSpaceOnUse"><path
         id="path22"
         d="M 0,0 H 209 V 151 H 0 Z" /></clipPath><clipPath
       id="clipPath34"
       clipPathUnits="userSpaceOnUse"><path
         id="path32"
         d="M 0,0.05999756 H 208.40901 V 150.5 H 0 Z" /></clipPath></defs><g
     transform="matrix(1.3333333,0,0,-1.3333333,0,201.33333)"
     id="g10"><g
       id="g12" /><g
       id="g14" /><g
       id="g16"><g
         id="g18"><g
           clip-path="url(#clipPath24)"
           id="g20"><g
             id="g26" /><g
             id="g28"><g
               clip-path="url(#clipPath34)"
               id="g30"><path
                 id="path36"
                 style="fill:none;stroke:#231f20;stroke-width:1;stroke-linecap:butt;stroke-linejoin:miter;stroke-miterlimit:4;stroke-dasharray:none;stroke-opacity:1"
                 d="M 0,75.25 H 150.5 M 75.25,0 V 150.5 M 127.994,22.273001 21.573002,128.69301 M 127.994,127.993 21.574001,21.573002" /></g></g><g
             id="g38"><path
               id="path40"
               style="fill:#231f20;fill-opacity:1;fill-rule:nonzero;stroke:none"
               d="M 35.045002,76.746002 C 32.73,77.445007 31.226002,78.088005 29.369001,78.833 v -7.060997 c 0.664,0.315003 3.360999,1.39 5.676001,2.087998 2.477001,0.749 4.723999,1.261001 6.18,1.443 -1.456001,0.182999 -3.702999,0.694001 -6.18,1.443001" /><path
               id="path42"
               style="fill:#231f20;fill-opacity:1;fill-rule:nonzero;stroke:none"
               d="m 117.58401,73.865005 c 2.317,-0.700004 3.821,-1.344001 5.67598,-2.089004 v 7.062004 c -0.66398,-0.315002 -3.35898,-1.389 -5.67598,-2.089004 -2.47601,-0.747994 -4.722,-1.259003 -6.179,-1.441994 1.457,-0.183006 3.70299,-0.694 6.179,-1.442002" /><path
               id="path44"
               style="fill:#231f20;fill-opacity:1;fill-rule:nonzero;stroke:none"
               d="m 105.842,103.79601 c 2.13301,1.14398 3.653,1.75199 5.49201,2.537 l -4.996,4.99499 c -0.24601,-0.694 -1.39,-3.36 -2.53501,-5.49199 -1.222,-2.28 -2.449,-4.23001 -3.349,-5.389 1.15801,0.902 3.109,2.127 5.388,3.349" /><path
               id="path46"
               style="fill:#231f20;fill-opacity:1;fill-rule:nonzero;stroke:none"
               d="m 44.797001,46.681004 c -2.133,-1.144001 -3.650997,-1.752003 -5.489998,-2.537003 l 4.994,-4.994999 c 0.245998,0.693001 1.393001,3.359001 2.535999,5.492001 1.223999,2.279998 2.448002,4.228996 3.350002,5.388996 C 49.027,49.128002 47.077003,47.903004 44.797001,46.681004" /><path
               id="path48"
               style="fill:#231f20;fill-opacity:1;fill-rule:nonzero;stroke:none"
               d="m 104.038,44.355003 c 1.14401,-2.132 1.75401,-3.650001 2.537,-5.491001 l 4.99601,4.994999 c -0.694,0.246002 -3.362,1.393002 -5.49201,2.537003 -2.28,1.222999 -4.229,2.447998 -5.38901,3.348999 0.90001,-1.16 2.12501,-3.109001 3.34801,-5.39" /><path
               id="path50"
               style="fill:#231f20;fill-opacity:1;fill-rule:nonzero;stroke:none"
               d="m 46.055,106.42 c -1.143997,2.133 -1.751999,3.65101 -2.535999,5.492 l -4.996998,-4.99499 c 0.695,-0.246 3.361,-1.39301 5.493,-2.53601 2.279999,-1.223 4.23,-2.44899 5.389,-3.34899 C 48.503002,102.191 47.278004,104.14 46.055,106.42" /><path
               id="path52"
               style="fill:#231f20;fill-opacity:1;fill-rule:nonzero;stroke:none"
               d="m 76.722,117.07401 c 0.700005,2.317 1.342003,3.819 2.090004,5.675 l -7.065002,0.002 c 0.317001,-0.666 1.391998,-3.362 2.090004,-5.677 0.747001,-2.478 1.259994,-4.723 1.442001,-6.17901 0.182999,1.45601 0.695999,3.70101 1.442993,6.17901" /><path
               id="path54"
               style="fill:#231f20;fill-opacity:1;fill-rule:nonzero;stroke:none"
               d="m 74.086006,36.155003 c -0.700004,-2.317002 -1.343002,-3.819001 -2.089004,-5.676001 l 7.064003,-0.001 c -0.317002,0.666 -1.391999,3.361999 -2.090004,5.677002 -0.746994,2.478 -1.259995,4.722999 -1.443001,6.179 -0.181999,-1.456001 -0.695,-3.701 -1.441994,-6.179" /><path
               id="path56"
               style="fill:#ffffff;fill-opacity:1;fill-rule:nonzero;stroke:none"
               d="m 82.084007,75.083 c 0,-4.141998 -3.357002,-7.5 -7.5,-7.5 -4.143005,0 -7.500007,3.358002 -7.500007,7.5 0,4.143006 3.357002,7.5 7.500007,7.5 4.142998,0 7.5,-3.356994 7.5,-7.5" /><path
               id="path58"
               style="fill:none;stroke:#231f20;stroke-width:1;stroke-linecap:butt;stroke-linejoin:miter;stroke-miterlimit:4;stroke-dasharray:none;stroke-opacity:1"
               d="m 82.084007,75.083 c 0,-4.141998 -3.357002,-7.5 -7.5,-7.5 -4.143005,0 -7.500007,3.358002 -7.500007,7.5 0,4.143006 3.357002,7.5 7.500007,7.5 4.142998,0 7.5,-3.356994 7.5,-7.5 z" /><path
               id="path60"
               style="fill:#231f20;fill-opacity:1;fill-rule:nonzero;stroke:none"
               d="m 122.83401,119.58301 c 0,-1.65601 -1.34301,-3 -3,-3 -1.656,0 -3,1.34399 -3,3 0,1.65699 1.344,3 3,3 1.65699,0 3,-1.34301 3,-3" /><path
               id="path62"
               style="fill:none;stroke:#231f20;stroke-width:1;stroke-linecap:butt;stroke-linejoin:miter;stroke-miterlimit:4;stroke-dasharray:none;stroke-opacity:1"
               d="m 122.83401,119.58301 c 0,-1.65601 -1.34301,-3 -3,-3 -1.656,0 -3,1.34399 -3,3 0,1.65699 1.344,3 3,3 1.65699,0 3,-1.34301 3,-3 z" /><text
               id="text66"
               style="font-variant:normal;font-weight:normal;font-size:11.95500088px;font-family:CMR12;-inkscape-font-specification:CMR12;writing-mode:lr-tb;fill:#231f20;fill-opacity:1;fill-rule:nonzero;stroke:none"
               transform="matrix(1,0,0,-1,85.726601,77.766602)"><tspan
                 id="tspan64"
                 y="0"
                 x="0 6.5035205 13.007041">Sun</tspan></text>
<text
               id="text70"
               style="font-variant:normal;font-weight:normal;font-size:11.95500088px;font-family:CMR12;-inkscape-font-specification:CMR12;writing-mode:lr-tb;fill:#231f20;fill-opacity:1;fill-rule:nonzero;stroke:none"
               transform="matrix(1,0,0,-1,127.22719,114.76614)"><tspan
                 id="tspan68"
                 y="0"
                 x="0 7.9620309 13.819982 18.374836 22.929691">Earth</tspan></text>
</g></g></g></g></g></svg>