<?xml version="1.0" encoding="UTF-8" standalone="no"?>
<svg
   xmlns:dc="http://purl.org/dc/elements/1.1/"
   xmlns:cc="http://creativecommons.org/ns#"
   xmlns:rdf="http://www.w3.org/1999/02/22-rdf-syntax-ns#"
   xmlns:svg="http://www.w3.org/2000/svg"
   xmlns="http://www.w3.org/2000/svg"
   viewBox="0 0 392 189.33333"
   height="189.33333"
   width="392"
   xml:space="preserve"
   id="svg2"
   version="1.1"><metadata
     id="metadata8"><rdf:RDF><cc:Work
         rdf:about=""><dc:format>image/svg+xml</dc:format><dc:type
           rdf:resource="http://purl.org/dc/dcmitype/StillImage" /></cc:Work></rdf:RDF></metadata><defs
     id="defs6"><clipPath
       id="clipPath24"
       clipPathUnits="userSpaceOnUse"><path
         id="path22"
         d="M 0,0 H 294 V 142 H 0 Z" /></clipPath><clipPath
       id="clipPath62"
       clipPathUnits="userSpaceOnUse"><path
         id="path60"
         d="M 0,0 H 293.37 V 141.95999 H 0 Z" /></clipPath></defs><g
     transform="matrix(1.3333333,0,0,-1.3333333,0,189.33333)"
     id="g10"><g
       id="g12" /><g
       id="g14" /><g
       id="g16"><g
         id="g18"><g
           clip-path="url(#clipPath24)"
           id="g20"><g
             id="g26" /><g
             id="g28"><path
               id="path30"
               style="fill:none;stroke:#231f20;stroke-width:1;stroke-linecap:butt;stroke-linejoin:miter;stroke-miterlimit:4;stroke-dasharray:none;stroke-opacity:1"
               d="M 115,79.5 C 115,74.253006 107.16601,70 97.5,70 87.835007,70 80,74.253006 80,79.5 c 0,5.246002 7.835007,9.5 17.5,9.5 9.66601,0 17.5,-4.253998 17.5,-9.5 z m 27,-1 C 142,69.387001 122.74901,62 99,62 75.252007,62 56,69.387001 56,78.5 56,87.613007 75.252007,95 99,95 c 23.74901,0 43,-7.386993 43,-16.5 z M 173,74 C 173,58.536003 142.332,46 104.5,46 66.669006,46 36,58.536003 36,74 c 0,15.464005 30.669006,28 68.5,28 37.832,0 68.5,-12.535995 68.5,-28 z m 30.5,-2.5 c 0,-23.747997 -39.174,-43 -87.5,-43 -48.324997,0 -87.5,19.252003 -87.5,43 0,23.748001 39.175003,43 87.5,43 48.326,0 87.5,-19.251999 87.5,-43 z m 31,2.5 C 234.5,40.586002 185.47601,13.5 125,13.5 64.525002,13.5 15.5,40.586002 15.5,74 c 0,33.413 49.025002,60.5 109.5,60.5 60.47601,0 109.5,-27.087 109.5,-60.5 z" /><text
               id="text34"
               style="font-variant:normal;font-weight:normal;font-size:9.56400013px;font-family:CMR12;-inkscape-font-specification:CMR12;writing-mode:lr-tb;fill:#231f20;fill-opacity:1;fill-rule:nonzero;stroke:none"
               transform="matrix(1,0,0,-1,284.01602,77.394005)"><tspan
                 id="tspan32"
                 y="0"
                 x="0 4.676796">10</tspan></text>
<text
               id="text38"
               style="font-variant:normal;font-weight:normal;font-size:9.56400013px;font-family:CMR12;-inkscape-font-specification:CMR12;writing-mode:lr-tb;fill:#231f20;fill-opacity:1;fill-rule:nonzero;stroke:none"
               transform="matrix(1,0,0,-1,236.50206,76.393608)"><tspan
                 id="tspan36"
                 y="0"
                 x="0 4.676796">20</tspan></text>
<text
               id="text42"
               style="font-variant:normal;font-weight:normal;font-size:9.56400013px;font-family:CMR12;-inkscape-font-specification:CMR12;writing-mode:lr-tb;fill:#231f20;fill-opacity:1;fill-rule:nonzero;stroke:none"
               transform="matrix(1,0,0,-1,204.48848,76.393608)"><tspan
                 id="tspan40"
                 y="0"
                 x="0 4.676796">30</tspan></text>
<text
               id="text46"
               style="font-variant:normal;font-weight:normal;font-size:9.56400013px;font-family:CMR12;-inkscape-font-specification:CMR12;writing-mode:lr-tb;fill:#231f20;fill-opacity:1;fill-rule:nonzero;stroke:none"
               transform="matrix(1,0,0,-1,174.97589,76.393608)"><tspan
                 id="tspan44"
                 y="0"
                 x="0 4.676796">40</tspan></text>
<text
               id="text50"
               style="font-variant:normal;font-weight:normal;font-size:9.56400013px;font-family:CMR12;-inkscape-font-specification:CMR12;writing-mode:lr-tb;fill:#231f20;fill-opacity:1;fill-rule:nonzero;stroke:none"
               transform="matrix(1,0,0,-1,144.46194,76.893806)"><tspan
                 id="tspan48"
                 y="0"
                 x="0 4.676796">50</tspan></text>
<text
               id="text54"
               style="font-variant:normal;font-weight:normal;font-size:9.56400013px;font-family:CMR12;-inkscape-font-specification:CMR12;writing-mode:lr-tb;fill:#231f20;fill-opacity:1;fill-rule:nonzero;stroke:none"
               transform="matrix(1,0,0,-1,114.94649,76.893806)"><tspan
                 id="tspan52"
                 y="0"
                 x="0 4.676796">60</tspan></text>
</g><g
             id="g56"><g
               clip-path="url(#clipPath62)"
               id="g58"><path
                 id="path64"
                 style="fill:none;stroke:#231f20;stroke-width:1;stroke-linecap:butt;stroke-linejoin:miter;stroke-miterlimit:4;stroke-dasharray:none;stroke-opacity:1"
                 d="M 281.5,71 C 281.5,32.063 218.59601,0.5 141,0.5 63.404003,0.5 0.5,32.063 0.5,71 c 0,38.936 62.904003,70.5 140.5,70.5 77.59601,0 140.5,-31.564 140.5,-70.5 z" /></g></g></g></g></g></g></svg>