<?xml version="1.0" encoding="UTF-8" standalone="no"?>
<svg
   xmlns:dc="http://purl.org/dc/elements/1.1/"
   xmlns:cc="http://creativecommons.org/ns#"
   xmlns:rdf="http://www.w3.org/1999/02/22-rdf-syntax-ns#"
   xmlns:svg="http://www.w3.org/2000/svg"
   xmlns="http://www.w3.org/2000/svg"
   viewBox="0 0 330.66666 190.66667"
   height="190.66667"
   width="330.66666"
   xml:space="preserve"
   id="svg2"
   version="1.1"><metadata
     id="metadata8"><rdf:RDF><cc:Work
         rdf:about=""><dc:format>image/svg+xml</dc:format><dc:type
           rdf:resource="http://purl.org/dc/dcmitype/StillImage" /></cc:Work></rdf:RDF></metadata><defs
     id="defs6"><clipPath
       id="clipPath24"
       clipPathUnits="userSpaceOnUse"><path
         id="path22"
         d="M 0,0 H 248 V 143 H 0 Z" /></clipPath></defs><g
     transform="matrix(1.3333333,0,0,-1.3333333,0,190.66667)"
     id="g10"><g
       id="g12" /><g
       id="g14" /><g
       id="g16"><g
         id="g18"><g
           clip-path="url(#clipPath24)"
           id="g20"><g
             id="g26" /><g
             id="g28"><path
               id="path30"
               style="fill:none;stroke:#000000;stroke-width:1;stroke-linecap:butt;stroke-linejoin:round;stroke-miterlimit:4;stroke-dasharray:none;stroke-opacity:1"
               d="m 157.09401,49.512001 0.125,-0.129997 0.094,-0.115002 0.094,-0.116001 0.124,-0.128998 0.094,-0.116001 0.13901,-0.099 0.094,-0.115002 0.094,-0.115997 0.12399,-0.130001 0.094,-0.115002 0.12501,-0.128998 0.094,-0.116001 0.094,-0.116005 0.12401,-0.128994 0.094,-0.116001 0.138,-0.099 0.095,-0.116005 0.094,-0.114998 0.12399,-0.128997 0.094,-0.116005 0.125,-0.129998 0.10701,-0.085 0.094,-0.115001 0.125,-0.130001 0.094,-0.114998 0.108,-0.086 0.12401,-0.129001 0.094,-0.115998 0.125,-0.129001 0.10799,-0.085 0.094,-0.115998 0.12401,-0.128997 0.094,-0.116001 0.138,-0.099 0.094,-0.115998 0.094,-0.115001 0.139,-0.099 0.094,-0.115997 0.12399,-0.128998 0.108,-0.086 0.094,-0.114997 0.124,-0.130002 0.108,-0.085 0.094,-0.115001 0.125,-0.129998 0.10701,-0.085 0.12499,-0.129002 0.10801,-0.086 0.094,-0.114997 0.12401,-0.130002 0.10798,-0.085 0.12401,-0.129001 0.108,-0.086 0.094,-0.115001 0.13802,-0.099 0.095,-0.116002 0.138,-0.099 0.094,-0.115998 0.108,-0.085 0.12401,-0.129001 0.108,-0.085 0.124,-0.129997 0.108,-0.085 0.094,-0.115997 0.138,-0.099 0.094,-0.114998 0.108,-0.086 0.125,-0.129002 0.107,-0.085 0.125,-0.130001 0.108,-0.08499 0.10699,-0.085 0.125,-0.130001 0.10801,-0.08499 0.12399,-0.129002 0.216,-0.171001 0.124,-0.128998 0.10801,-0.085 0.124,-0.130001 0.216,-0.170002 0.12399,-0.129998 0.108,-0.085 0.10801,-0.085 0.124,-0.128997 0.10799,-0.086 0.138,-0.099 0.094,-0.115001 0.10799,-0.086 0.13801,-0.099 0.108,-0.085 0.125,-0.128998 0.107,-0.085 0.108,-0.086 0.125,-0.128998 0.10699,-0.085 0.13901,-0.099 0.107,-0.086 M 147.272,62.91 l 0.16101,-0.291996 0.111,-0.16 0.08,-0.146 0.11099,-0.16 0.08,-0.146 0.094,-0.115001 0.11099,-0.16 0.08,-0.146 0.111,-0.16 0.08,-0.146 0.081,-0.146 0.11,-0.16 0.081,-0.146 0.12401,-0.129001 0.081,-0.146 0.08,-0.146 0.11099,-0.16 0.08,-0.146 0.094,-0.116001 0.11099,-0.158996 0.08,-0.146 0.111,-0.160004 0.094,-0.115997 0.08,-0.146 0.11099,-0.159001 0.08,-0.146 0.125,-0.130001 0.16001,-0.292003 0.12498,-0.128998 0.08,-0.146 0.11101,-0.16 0.094,-0.115997 0.08,-0.146 0.12499,-0.129002 0.08,-0.146 0.11101,-0.159999 0.094,-0.115002 0.08,-0.146 0.125,-0.129997 0.08,-0.146 0.094,-0.115002 0.111,-0.16 0.08,-0.146003 0.12498,-0.130001 0.08,-0.145997 0.094,-0.114997 0.125,-0.130001 0.08,-0.146 0.124,-0.129002 0.081,-0.146 0.094,-0.115997 0.11101,-0.159001 0.094,-0.116001 0.11,-0.16 0.18801,-0.230999 0.11099,-0.159999 0.094,-0.115002 0.094,-0.116001 0.11101,-0.16 0.094,-0.115997 0.12498,-0.129006 0.08,-0.145996 0.094,-0.116001 0.12401,-0.128998 0.081,-0.146 0.12401,-0.129001 0.18799,-0.231999 0.11101,-0.159 0.094,-0.116001 0.12399,-0.128998 0.095,-0.116001 0.08,-0.146 0.124,-0.129002 0.094,-0.115997 0.125,-0.129002 0.188,-0.232002 0.11101,-0.158997 0.094,-0.116001 0.094,-0.116001 0.124,-0.129001 0.094,-0.115998 0.125,-0.129001 0.18801,-0.230999 0.12399,-0.130001 0.081,-0.146 0.12399,-0.128998 0.094,-0.116001 0.094,-0.114998 0.125,-0.130001 0.094,-0.115002 0.124,-0.129997 0.094,-0.115002 0.094,-0.116001" /><path
               id="path32"
               style="fill:none;stroke:#000000;stroke-width:1;stroke-linecap:butt;stroke-linejoin:round;stroke-miterlimit:4;stroke-dasharray:none;stroke-opacity:1"
               d="m 138.888,79.572006 0.067,-0.176002 0.097,-0.191002 0.053,-0.206001 0.097,-0.189995 0.066,-0.177002 0.067,-0.176003 0.097,-0.189995 0.067,-0.177001 0.097,-0.190003 0.066,-0.175995 0.067,-0.177002 0.097,-0.190002 0.067,-0.176003 0.096,-0.190002 0.081,-0.145996 0.066,-0.176995 0.097,-0.190002 0.067,-0.176002 0.067,-0.177002 0.097,-0.189995 0.066,-0.176003 0.097,-0.190002 0.067,-0.176995 0.08,-0.146003 0.097,-0.190003 0.067,-0.175995 0.097,-0.190002 0.133,-0.352997 0.11101,-0.160003 L 141.345,74 l 0.097,-0.190002 0.067,-0.176995 0.08,-0.145996 0.097,-0.190002 0.067,-0.176003 0.111,-0.159996 0.066,-0.177002 0.067,-0.176002 0.11099,-0.159996 0.13301,-0.352005 0.111,-0.159996 0.066,-0.177002 0.097,-0.190003 0.081,-0.145996 0.066,-0.176002 0.11101,-0.159996 0.067,-0.176003 0.11,-0.159996 0.067,-0.177002 0.067,-0.176002 0.11,-0.159996 0.067,-0.176003 0.11101,-0.160004 0.066,-0.175994 0.081,-0.146004 0.11,-0.160004 0.067,-0.175995 0.08,-0.146003 0.097,-0.190995 0.081,-0.146003 0.097,-0.189995 0.16,-0.292 0.097,-0.190002 0.081,-0.146004 0.11,-0.158997 0.067,-0.177002 0.08,-0.145996 0.11099,-0.160003 0.067,-0.176003 0.11,-0.159996 0.081,-0.146004 0.066,-0.175995 0.11099,-0.160003 0.16101,-0.292 0.097,-0.190003 0.08,-0.145996 0.11101,-0.160003 0.08,-0.145996 0.081,-0.146004 0.097,-0.189995 0.08,-0.146004 0.111,-0.159996 0.16,-0.292 0.11101,-0.160003 0.08,-0.145996 0.11099,-0.159004 0.067,-0.176999 0.08,-0.146 0.11099,-0.159999 0.08,-0.146 0.11101,-0.159001 0.16099,-0.292003 0.11,-0.16 m -15.492,36.149006 0.084,-0.220001 0.052,-0.207001 0.097,-0.190003 0.106,-0.413993 0.23301,-0.617005 0.106,-0.414001 0.097,-0.189995 0.053,-0.206001 0.083,-0.221009 0.053,-0.206993 0.15001,-0.397003 0.053,-0.206001 0.067,-0.176995 0.083,-0.220001 0.053,-0.207001 0.083,-0.221 0.067,-0.175995 0.053,-0.207001 0.083,-0.220001 0.067,-0.177002 0.083,-0.220001 0.053,-0.207001 0.14999,-0.396996 0.053,-0.207 0.097,-0.190003 0.052,-0.207 0.053,-0.206002 0.097,-0.189995 0.106,-0.414001 0.097,-0.190002 0.053,-0.207009 0.097,-0.189995 0.053,-0.206993 0.053,-0.207 0.097,-0.190003 0.053,-0.207001 0.097,-0.189994 0.053,-0.206002 0.14999,-0.397003 0.053,-0.207001 0.097,-0.189994 0.052,-0.207001 0.367,-0.970001 0.053,-0.207001 0.097,-0.190003 0.053,-0.207 0.066,-0.175995 0.084,-0.221001 0.066,-0.176002 0.097,-0.190003 0.053,-0.207001 0.21701,-0.572998 0.097,-0.189994 0.052,-0.207001 0.067,-0.177002 0.083,-0.220001 0.067,-0.177002 0.097,-0.189995 0.053,-0.206001 0.067,-0.177002 0.097,-0.190003 0.052,-0.207 0.067,-0.175995 0.097,-0.190003 0.053,-0.207 0.097,-0.189995 0.067,-0.176003 0.216,-0.573997 0.097,-0.190003 0.067,-0.176002 0.053,-0.207001 0.097,-0.189995 0.066,-0.177002 0.097,-0.190002 0.067,-0.176003 0.067,-0.176994 0.083,-0.220001 0.066,-0.176003 0.097,-0.191002 0.13401,-0.352996 0.097,-0.190003 0.066,-0.175995" /><path
               id="path34"
               style="fill:none;stroke:#000000;stroke-width:1;stroke-linecap:butt;stroke-linejoin:round;stroke-miterlimit:4;stroke-dasharray:none;stroke-opacity:1"
               d="m 124.84,118.83701 0.067,-0.17701 0.097,-0.19001 0.133,-0.35299 0.097,-0.19 0.053,-0.20701 0.097,-0.18999 0.34901,-0.926 0.098,-0.18999 0.052,-0.207 0.097,-0.19 0.067,-0.17601 0.053,-0.207 0.097,-0.18999 0.053,-0.207 0.097,-0.19001 0.066,-0.176 0.053,-0.20699 0.097,-0.19 0.053,-0.207 0.097,-0.19001 0.053,-0.207 0.067,-0.17599 0.29999,-0.79401 0.052,-0.20699 0.098,-0.19 0.052,-0.207 0.15,-0.39701 0.053,-0.20699 0.097,-0.19 0.053,-0.206 0.067,-0.17701 0.083,-0.22 0.053,-0.20699 0.097,-0.19 0.053,-0.207 0.066,-0.17601 0.084,-0.221 0.052,-0.207 0.098,-0.18999 0.052,-0.207 0.053,-0.206 0.084,-0.22101 0.066,-0.176 0.053,-0.20699 0.083,-0.221 0.067,-0.176 0.083,-0.22001 0.053,-0.207 0.15,-0.39699 0.053,-0.207 0.15001,-0.39701 0.053,-0.207 0.083,-0.22 0.053,-0.207 0.097,-0.18999 0.10598,-0.414 0.23302,-0.617 0.053,-0.207 0.053,-0.206 0.083,-0.22101 0.067,-0.176 0.053,-0.207 0.083,-0.221 0.053,-0.206 0.097,-0.19099 0.106,-0.41301 0.083,-0.221 0.053,-0.206 0.097,-0.19099 0.053,-0.206 0.053,-0.207 0.233,-0.61701 0.053,-0.20699 0.053,-0.207 0.083,-0.221 0.066,-0.17601 0.053,-0.207 0.084,-0.220005 0.053,-0.206993 0.14901,-0.396996 0.053,-0.207 m -16.298,34.283004 0.138,-0.099 0.10701,-0.085 0.095,-0.11599 0.13799,-0.099 0.10801,-0.085 0.138,-0.099 0.094,-0.11599 0.108,-0.085 0.12401,-0.12901 0.10799,-0.086 0.094,-0.11499 0.138,-0.099 0.094,-0.11601 0.125,-0.129 0.094,-0.11599 0.107,-0.085 0.125,-0.129 0.094,-0.116 0.12399,-0.13 0.094,-0.11499 0.094,-0.116 0.125,-0.129 0.094,-0.11601 0.124,-0.129 0.094,-0.11599 0.095,-0.11501 0.124,-0.12999 0.094,-0.116 0.111,-0.15901 0.094,-0.116 0.094,-0.11599 0.111,-0.159 0.094,-0.11601 0.094,-0.116 0.111,-0.159 0.094,-0.11599 0.11,-0.16001 0.081,-0.14599 0.094,-0.11501 0.11,-0.15999 0.095,-0.11601 0.11001,-0.159 0.161,-0.293 0.124,-0.12899 0.081,-0.14601 0.11,-0.15999 0.16101,-0.292 0.111,-0.15901 0.08,-0.14699 0.081,-0.14601 0.11,-0.15899 0.081,-0.14601 0.11,-0.15999 0.081,-0.14601 0.08,-0.14599 0.111,-0.16001 0.066,-0.17599 0.111,-0.16 0.16101,-0.292 0.097,-0.19001 0.08,-0.146 0.111,-0.16 0.067,-0.17599 0.08,-0.14601 0.097,-0.18999 0.08,-0.146 0.067,-0.17701 0.111,-0.15999 0.066,-0.176 0.111,-0.16 0.066,-0.176 0.081,-0.14601 0.097,-0.18999 0.067,-0.17701 0.11,-0.159 0.133,-0.35299 0.097,-0.19001 0.081,-0.14599 0.097,-0.19101 0.13301,-0.35199 0.097,-0.19 0.067,-0.17701 0.11,-0.15999 0.13399,-0.35202 0.097,-0.18999 0.13301,-0.353 0.097,-0.18999 0.066,-0.17701 0.098,-0.19 0.066,-0.17599 0.053,-0.207 0.097,-0.19" /><path
               id="path36"
               style="fill:none;stroke:#000000;stroke-width:1;stroke-linecap:butt;stroke-linejoin:round;stroke-miterlimit:4;stroke-dasharray:none;stroke-opacity:1"
               d="m 100.58201,135.5 0.17699,0.067 0.17601,0.067 0.193,0.022 0.177,0.067 0.19299,0.022 0.176,0.067 0.16301,0.036 0.206,0.053 0.16299,0.036 0.163,0.037 0.207,0.052 0.16201,0.037 0.193,0.022 0.16299,0.036 0.163,0.037 0.193,0.022 0.16201,0.036 0.194,0.023 0.16199,0.036 0.149,0.006 0.193,0.022 0.16301,0.037 0.193,0.022 0.14899,0.006 0.163,0.036 0.17901,-0.007 0.149,0.005 0.16199,0.037 0.18,-0.008 0.149,0.006 0.193,0.022 0.14901,0.006 0.14899,0.006 0.179,-0.008 0.149,0.006 0.17901,-0.008 0.149,0.006 0.14899,0.006 0.166,-0.038 0.149,0.005 0.17901,-0.007 0.149,0.005 0.13499,-0.024 0.18,-0.008 0.135,-0.024 0.17901,-0.008 0.13499,-0.025 0.136,-0.024 0.179,-0.008 0.135,-0.025 0.13601,-0.024 0.165,-0.038 0.13499,-0.025 0.166,-0.038 0.135,-0.025 0.13501,-0.024 0.166,-0.038 0.135,-0.025 0.16599,-0.038 0.121,-0.055 0.13601,-0.025 0.165,-0.038 0.122,-0.055 0.165,-0.038 0.12199,-0.055 0.135,-0.024 0.15201,-0.069 0.122,-0.055 0.135,-0.024 0.15199,-0.069 0.121,-0.055 0.152,-0.069 0.12201,-0.054 0.121,-0.055 0.152,-0.069 0.12099,-0.055 0.152,-0.068 0.12201,-0.055 0.12099,-0.055 0.13901,-0.099 0.12098,-0.055 0.15201,-0.069 0.108,-0.085 0.12101,-0.055 0.152,-0.069 0.108,-0.085 0.138,-0.099 0.12199,-0.055 0.10701,-0.085 0.139,-0.099 0.121,-0.055 0.108,-0.085 0.13799,-0.099 0.108,-0.085 0.138,-0.099 0.21601,-0.17101 0.138,-0.099 0.10799,-0.085 M 79.93,125.005 l 0.204003,0.127 0.234001,0.114 0.204002,0.12701 0.217995,0.158 0.234001,0.11399 0.204002,0.127 0.234002,0.11401 0.203994,0.127 0.218003,0.158 0.234001,0.11299 0.204002,0.128 0.234001,0.11301 0.217995,0.158 0.203003,0.12799 0.235001,0.113 0.202995,0.12801 0.248001,0.144 0.204002,0.127 0.204003,0.12699 0.233993,0.114 0.218003,0.15801 0.234001,0.113 0.407997,0.25499 0.234001,0.11401 0.217003,0.15799 0.203995,0.12701 0.235,0.114 0.204003,0.12699 0.234001,0.11401 0.204002,0.127 0.216995,0.158 0.234002,0.114 0.204002,0.12699 0.234001,0.11401 0.407997,0.254 0.234001,0.114 0.204003,0.12699 0.234001,0.114 0.407997,0.25501 0.234001,0.113 0.203995,0.12799 0.204002,0.127 0.233994,0.114 0.190002,0.097 0.235009,0.11299 0.202995,0.12801 0.204002,0.12701 0.221001,0.084 0.203995,0.127 0.234001,0.11399 0.190002,0.097 0.204003,0.127 0.234001,0.114 0.189995,0.097 0.234001,0.11299 0.190002,0.097 0.191002,0.097 0.233994,0.11401 0.190002,0.097 0.234001,0.114 0.190003,0.097 0.189995,0.097 0.221,0.083 0.204003,0.127 0.190002,0.097 0.219994,0.084 0.191002,0.097 0.220001,0.083 0.190002,0.097 0.189995,0.097 0.221001,0.083 0.190002,0.097 0.207001,0.053 0.190002,0.097 0.189995,0.097 0.220001,0.083 0.177002,0.067 0.220002,0.083 0.190994,0.097 0.175995,0.067 0.220001,0.083 0.177009,0.067 0.175995,0.066 0.221001,0.084 0.175995,0.066 0.207008,0.053 0.175995,0.067 0.190003,0.097 0.206993,0.053 0.177009,0.066 0.206002,0.053 0.176986,0.067 0.176006,0.066 0.20701,0.053 0.163,0.037 0.206,0.052" /><path
               id="path38"
               style="fill:none;stroke:#000000;stroke-width:1;stroke-linecap:butt;stroke-linejoin:round;stroke-miterlimit:4;stroke-dasharray:none;stroke-opacity:1"
               d="m 70.131004,120.397 0.207001,0.053 0.177002,0.066 0.175995,0.067 0.193001,0.022 0.175995,0.067 0.207008,0.053 0.189995,0.097 0.177002,0.067 0.207,0.052 0.176003,0.067 0.189995,0.097 0.207,0.053 0.190003,0.097 0.397003,0.15001 0.189995,0.097 0.220001,0.083 0.191002,0.097 0.220001,0.084 0.189995,0.096 0.190002,0.097 0.221001,0.084 0.190003,0.097 0.233993,0.11301 0.190003,0.097 0.190002,0.097 0.235001,0.11399 0.189994,0.097 0.234002,0.114 0.190002,0.097 0.203995,0.127 0.234001,0.114 0.190002,0.097 0.204003,0.127 0.234001,0.114 0.189995,0.097 0.235,0.11299 0.407006,0.25501 0.235,0.114 0.203995,0.127 0.234001,0.114 0.204003,0.12699 0.202995,0.128 0.235,0.11301 0.203003,0.128 0.235001,0.113 0.204002,0.12799" /><path
               id="path40"
               style="fill:#000000;fill-opacity:1;fill-rule:nonzero;stroke:#000000;stroke-width:0.5;stroke-linecap:butt;stroke-linejoin:round;stroke-miterlimit:4;stroke-dasharray:none;stroke-opacity:1"
               d="M 234.354,10.979 H 11.021001" /><path
               id="path42"
               style="fill:#000000;fill-opacity:1;fill-rule:nonzero;stroke:none"
               d="m 233.42999,11 -2.37298,3.903001 0.13299,0.088 6.36501,-2.528001 c 2.21701,-0.486999 4.43498,-0.974999 6.65201,-1.463 -2.21703,-0.488 -4.435,-0.976 -6.65201,-1.4639997 L 231.19,7.0080004 l -0.13299,0.067 L 233.42999,11" /><path
               id="path44"
               style="fill:none;stroke:#000000;stroke-width:0.5;stroke-linecap:butt;stroke-linejoin:round;stroke-miterlimit:4;stroke-dasharray:none;stroke-opacity:1"
               d="M 11.667001,131.5 V 11 l 73.498,117.09" /><path
               id="path46"
               style="fill:#000000;fill-opacity:1;fill-rule:nonzero;stroke:none"
               d="m 11.667001,129.05 -3.6030009,-2.19 -0.082,0.12301 2.3340009,5.87499 c 0.45,2.047 0.9,4.09401 1.351,6.14101 0.45,-2.047 0.899999,-4.09401 1.351,-6.14101 l 2.333,-5.87499 -0.061,-0.12301 -3.622999,2.19" /><path
               id="path48"
               style="fill:#000000;fill-opacity:1;fill-rule:nonzero;stroke:none"
               d="m 48.333004,69 -4.216003,0.01 -0.006,0.148003 5.056,3.794998 C 50.619,74.465002 52.071,75.976004 53.523,77.488005 52.838998,75.506002 52.155999,73.525 51.472001,71.544004 l -1.073002,-6.230003 -0.117001,-0.073 L 48.333004,69" /><text
               id="text52"
               style="font-variant:normal;font-weight:normal;font-size:11.95500088px;font-family:CMMI12;-inkscape-font-specification:CMMI12;writing-mode:lr-tb;fill:#231f20;fill-opacity:1;fill-rule:nonzero;stroke:none"
               transform="matrix(1,0,0,-1,77.979195,129.5472)"><tspan
                 id="tspan50"
                 y="0"
                 x="0">P</tspan></text>
<text
               id="text56"
               style="font-variant:normal;font-weight:normal;font-size:11.95500088px;font-family:CMMI12;-inkscape-font-specification:CMMI12;writing-mode:lr-tb;fill:#231f20;fill-opacity:1;fill-rule:nonzero;stroke:none"
               transform="matrix(1,0,0,-1,151.85631,55.880478)"><tspan
                 id="tspan54"
                 y="0"
                 x="0">C</tspan></text>
<text
               id="text60"
               style="font-variant:normal;font-weight:normal;font-size:11.95500088px;font-family:CMMI12;-inkscape-font-specification:CMMI12;writing-mode:lr-tb;fill:#231f20;fill-opacity:1;fill-rule:nonzero;stroke:none"
               transform="matrix(1,0,0,-1,55.483467,68.734497)"><tspan
                 id="tspan58"
                 y="0"
                 x="0">r</tspan></text>
<path
               id="path62"
               style="fill:#231f20;fill-opacity:1;fill-rule:nonzero;stroke:none"
               d="m 55.484001,67.300003 h 5.599998 v -0.477997 h -5.599998 z" /><text
               id="text66"
               style="font-variant:normal;font-weight:normal;font-size:11.95500088px;font-family:CMMI12;-inkscape-font-specification:CMMI12;writing-mode:lr-tb;fill:#231f20;fill-opacity:1;fill-rule:nonzero;stroke:none"
               transform="matrix(1,0,0,-1,241.10219,3.2138)"><tspan
                 id="tspan64"
                 y="0"
                 x="0">x</tspan></text>
<text
               id="text70"
               style="font-variant:normal;font-weight:normal;font-size:11.95500088px;font-family:CMMI12;-inkscape-font-specification:CMMI12;writing-mode:lr-tb;fill:#231f20;fill-opacity:1;fill-rule:nonzero;stroke:none"
               transform="matrix(1,0,0,-1,0.45995611,133.21367)"><tspan
                 id="tspan68"
                 y="0"
                 x="0">y</tspan></text>
<path
               id="path72"
               style="fill:#231f20;fill-opacity:1;fill-rule:nonzero;stroke:none"
               d="m 84.349998,125.68301 c 0.911004,0 1.650002,0.73899 1.650002,1.65 0,0.91099 -0.738998,1.64999 -1.650002,1.64999 -0.910995,0 -1.649993,-0.739 -1.649993,-1.64999 0,-0.91101 0.738998,-1.65 1.649993,-1.65" /></g></g></g></g></g></svg>