<?xml version="1.0" encoding="UTF-8" standalone="no"?>
<svg
   xmlns:dc="http://purl.org/dc/elements/1.1/"
   xmlns:cc="http://creativecommons.org/ns#"
   xmlns:rdf="http://www.w3.org/1999/02/22-rdf-syntax-ns#"
   xmlns:svg="http://www.w3.org/2000/svg"
   xmlns="http://www.w3.org/2000/svg"
   viewBox="0 0 210.66667 141.33333"
   height="141.33333"
   width="210.66667"
   xml:space="preserve"
   id="svg2"
   version="1.1"><metadata
     id="metadata8"><rdf:RDF><cc:Work
         rdf:about=""><dc:format>image/svg+xml</dc:format><dc:type
           rdf:resource="http://purl.org/dc/dcmitype/StillImage" /></cc:Work></rdf:RDF></metadata><defs
     id="defs6"><clipPath
       id="clipPath24"
       clipPathUnits="userSpaceOnUse"><path
         id="path22"
         d="M 0,0 H 158 V 106 H 0 Z" /></clipPath><clipPath
       id="clipPath34"
       clipPathUnits="userSpaceOnUse"><path
         id="path32"
         d="M 0.06,0 H 157.26401 V 105.813 H 0.06 Z" /></clipPath><clipPath
       id="clipPath48"
       clipPathUnits="userSpaceOnUse"><path
         id="path46"
         d="M 0.06,0 H 157.26401 V 105.813 H 0.06 Z" /></clipPath></defs><g
     transform="matrix(1.3333333,0,0,-1.3333333,0,141.33333)"
     id="g10"><g
       id="g12" /><g
       id="g14" /><g
       id="g16"><g
         id="g18"><g
           clip-path="url(#clipPath24)"
           id="g20"><g
             id="g26" /><g
             id="g28"><g
               clip-path="url(#clipPath34)"
               id="g30"><path
                 id="path36"
                 style="fill:none;stroke:#231f20;stroke-width:1;stroke-linecap:butt;stroke-linejoin:round;stroke-miterlimit:4;stroke-dasharray:none;stroke-opacity:1"
                 d="M 0,18.735001 H 120.95901" /></g></g><g
             id="g38"><path
               id="path40"
               style="fill:#231f20;fill-opacity:1;fill-rule:nonzero;stroke:none"
               d="m 120.95901,18.735001 -2.30001,3.783001 0.127,0.086 6.16901,-2.451 c 2.14999,-0.471001 4.299,-0.944 6.44999,-1.418001 -2.15099,-0.473 -4.3,-0.944001 -6.44999,-1.419001 l -6.16901,-2.448999 -0.127,0.065 2.30001,3.803" /></g><g
             id="g42"><g
               clip-path="url(#clipPath48)"
               id="g44"><path
                 id="path50"
                 style="fill:none;stroke:#231f20;stroke-width:1;stroke-linecap:butt;stroke-linejoin:round;stroke-miterlimit:4;stroke-dasharray:none;stroke-opacity:1"
                 d="M 32.323002,0 V 92.424004" /></g></g><g
             id="g52"><path
               id="path54"
               style="fill:#231f20;fill-opacity:1;fill-rule:nonzero;stroke:none"
               d="m 32.881001,92.171005 -3.783,-2.300003 L 29.013,90 l 2.449002,6.168007 c 0.473999,2.150001 0.945999,4.298993 1.418999,6.448993 0.472999,-2.15 0.947002,-4.298992 1.420002,-6.448993 L 36.75,90 36.686,89.871002 32.881,92.171005" /><path
               id="path56"
               style="fill:none;stroke:#231f20;stroke-width:1;stroke-linecap:butt;stroke-linejoin:round;stroke-miterlimit:4;stroke-dasharray:none;stroke-opacity:1"
               d="m 80.868004,82.336006 0.300003,0.599999 0.300995,0.561996 0.299003,0.600006 0.300995,0.636994 m -30.900997,-36.599999 0.300999,0.150002 0.299,0.187999 0.299999,0.149998 0.300003,0.188 0.299999,0.150001 0.300999,0.187001 0.299,0.187999 0.299999,0.187001 0.600002,0.375 0.300999,0.187999 0.299,0.187001 0.299999,0.224998 0.600002,0.375 0.300999,0.225002 0.299,0.223999 0.299999,0.187996 0.600002,0.451004 0.300999,0.224999 0.299,0.223999 0.300003,0.225002 0.299999,0.263001 0.299999,0.224998 0.300999,0.225002 0.299,0.261998 0.300003,0.263 0.299999,0.225002 0.299999,0.261998 0.300999,0.263 0.299,0.262001 0.300003,0.263001 0.299999,0.261997 0.299999,0.301002 0.300999,0.262001 0.299,0.262001 0.300003,0.3 0.299999,0.300998 0.299999,0.262001 0.899998,0.899998 0.300003,0.338001 0.299995,0.299 0.301003,0.301003 0.299003,0.336998 0.299996,0.336994 0.300003,0.300003 0.300003,0.338001 0.300995,0.338001 0.299003,0.337002 0.299996,0.336994 0.300003,0.375004 0.300003,0.338001 0.300995,0.375 0.299003,0.338002 0.299996,0.375 0.600006,0.75 0.300995,0.375 0.299003,0.375 0.300995,0.375 0.299004,0.411995 0.300003,0.412002 0.300995,0.375 0.299003,0.413002 0.300995,0.413002 0.299004,0.411995 0.300003,0.412003 0.300995,0.449997 0.299003,0.413002 0.300995,0.449997 0.299004,0.450004 0.300003,0.449997 0.300995,0.449005 0.299003,0.450997 0.300995,0.450004 0.299004,0.487999 0.300003,0.448998 0.300995,0.487999 0.299003,0.488998 0.300995,0.486 0.299004,0.487 0.300003,0.488006 0.300995,0.524994 0.299003,0.487 0.300995,0.527 0.599007,1.049004 0.300995,0.525001 0.299003,0.561997 0.300995,0.525001 0.299004,0.561997 0.300003,0.563003 0.300995,0.561997 0.299003,0.563003 0.300995,0.561997 0.299004,0.601005 M 31.705002,43.298 h 1.800999 L 33.806,43.336 h 0.600002 l 0.299,0.037 h 0.300999 l 0.300003,0.037 h 0.298999 l 0.300999,0.037 0.299,0.038 0.300999,0.038 h 0.300003 l 0.298999,0.038 0.300999,0.037 0.299,0.037 0.300999,0.076 0.300003,0.037 0.298999,0.037 0.300999,0.037 0.299,0.076 0.300999,0.038 0.300003,0.074 0.298999,0.038 0.300999,0.075 0.299,0.074 0.300999,0.076 0.300003,0.075 0.298999,0.037 0.300999,0.076 0.299,0.111 0.300999,0.076 0.262001,0.075 0.299999,0.075 0.300003,0.112 0.299,0.075 0.301998,0.076 0.299,0.111999 0.299999,0.112004 0.300003,0.075 0.299,0.113002 0.301998,0.112999 0.299,0.111 0.299999,0.113999 0.300003,0.111999 0.299,0.112004 0.301998,0.111 0.299,0.151996 0.299999,0.112 0.300003,0.113003 0.299,0.149997 0.301998,0.112004 0.299,0.150997 0.299999,0.150001 0.300003,0.148999 0.299,0.113002 0.301998,0.149998 0.299,0.150002 0.299999,0.187999 0.300003,0.148999 0.299,0.150001" /><path
               id="path58"
               style="fill:none;stroke:#231f20;stroke-width:0.5;stroke-linecap:butt;stroke-linejoin:round;stroke-miterlimit:4;stroke-dasharray:none;stroke-opacity:1"
               d="M 81.75,17.25 V 84.735001" /><text
               id="text62"
               style="font-variant:normal;font-weight:normal;font-size:14.34600067px;font-family:CMMI12;-inkscape-font-specification:CMMI12;writing-mode:lr-tb;fill:#231f20;fill-opacity:1;fill-rule:nonzero;stroke:none"
               transform="matrix(1,0,0,-1,94.025398,70.766602)"><tspan
                 id="tspan60"
                 y="0"
                 x="0">y</tspan></text>
<text
               id="text66"
               style="font-variant:normal;font-weight:normal;font-size:14.34600067px;font-family:CMR12;-inkscape-font-specification:CMR12;writing-mode:lr-tb;fill:#231f20;fill-opacity:1;fill-rule:nonzero;stroke:none"
               transform="matrix(1,0,0,-1,105.37165,70.766602)"><tspan
                 id="tspan64"
                 y="0"
                 x="0">=</tspan></text>
<text
               id="text70"
               style="font-variant:normal;font-weight:normal;font-size:14.34600067px;font-family:CMR12;-inkscape-font-specification:CMR12;writing-mode:lr-tb;fill:#231f20;fill-opacity:1;fill-rule:nonzero;stroke:none"
               transform="matrix(1,0,0,-1,120.28432,70.766602)"><tspan
                 id="tspan68"
                 y="0"
                 x="0 6.2405105 13.255705 18.793261">cosh</tspan></text>
<text
               id="text74"
               style="font-variant:normal;font-weight:normal;font-size:14.34600067px;font-family:CMMI12;-inkscape-font-specification:CMMI12;writing-mode:lr-tb;fill:#231f20;fill-opacity:1;fill-rule:nonzero;stroke:none"
               transform="matrix(1,0,0,-1,149.28619,70.766602)"><tspan
                 id="tspan72"
                 y="0"
                 x="0">x</tspan></text>
<text
               id="text78"
               style="font-variant:normal;font-weight:normal;font-size:13.88709927px;font-family:CMMI12;-inkscape-font-specification:CMMI12;writing-mode:lr-tb;fill:#231f20;fill-opacity:1;fill-rule:nonzero;stroke:none"
               transform="matrix(1,0,0,-1,128.84801,9.5430002)"><tspan
                 id="tspan76"
                 y="0"
                 x="0">x</tspan></text>
<text
               id="text82"
               style="font-variant:normal;font-weight:normal;font-size:13.88709927px;font-family:CMMI12;-inkscape-font-specification:CMMI12;writing-mode:lr-tb;fill:#231f20;fill-opacity:1;fill-rule:nonzero;stroke:none"
               transform="matrix(1,0,0,-1,21.175774,95.397209)"><tspan
                 id="tspan80"
                 y="0"
                 x="0">y</tspan></text>
<text
               id="text86"
               style="font-variant:normal;font-weight:normal;font-size:11.4769001px;font-family:CMR12;-inkscape-font-specification:CMR12;writing-mode:lr-tb;fill:#231f20;fill-opacity:1;fill-rule:nonzero;stroke:none"
               transform="matrix(1,0,0,-1,34.5,8.25)"><tspan
                 id="tspan84"
                 y="0"
                 x="0">0</tspan></text>
<text
               id="text90"
               style="font-variant:normal;font-weight:normal;font-size:11.4769001px;font-family:CMR12;-inkscape-font-specification:CMR12;writing-mode:lr-tb;fill:#231f20;fill-opacity:1;fill-rule:nonzero;stroke:none"
               transform="matrix(1,0,0,-1,78.377335,7.4454694)"><tspan
                 id="tspan88"
                 y="0"
                 x="0">2</tspan></text>
<path
               id="path92"
               style="fill:#231f20;fill-opacity:1;fill-rule:nonzero;stroke:none"
               d="M 66.168007,60.248001 90.75,72" /></g></g></g></g></g></svg>