<?xml version="1.0" encoding="UTF-8" standalone="no"?>
<svg
   xmlns:dc="http://purl.org/dc/elements/1.1/"
   xmlns:cc="http://creativecommons.org/ns#"
   xmlns:rdf="http://www.w3.org/1999/02/22-rdf-syntax-ns#"
   xmlns:svg="http://www.w3.org/2000/svg"
   xmlns="http://www.w3.org/2000/svg"
   viewBox="0 0 261.33334 97.333336"
   height="97.333336"
   width="261.33334"
   xml:space="preserve"
   id="svg2"
   version="1.1"><metadata
     id="metadata8"><rdf:RDF><cc:Work
         rdf:about=""><dc:format>image/svg+xml</dc:format><dc:type
           rdf:resource="http://purl.org/dc/dcmitype/StillImage" /></cc:Work></rdf:RDF></metadata><defs
     id="defs6"><clipPath
       id="clipPath24"
       clipPathUnits="userSpaceOnUse"><path
         id="path22"
         d="M 0,0 H 196 V 73 H 0 Z" /></clipPath><clipPath
       id="clipPath50"
       clipPathUnits="userSpaceOnUse"><path
         id="path48"
         d="M 0.06,0.05999756 H 195.32601 V 72.551003 H 0.06 Z" /></clipPath></defs><g
     transform="matrix(1.3333333,0,0,-1.3333333,0,97.333333)"
     id="g10"><g
       id="g12" /><g
       id="g14" /><g
       id="g16"><g
         id="g18"><g
           clip-path="url(#clipPath24)"
           id="g20"><g
             id="g26" /><g
             id="g28"><text
               id="text32"
               style="font-variant:normal;font-weight:normal;font-size:9.56400013px;font-family:CMMI12;-inkscape-font-specification:CMMI12;writing-mode:lr-tb;fill:#231f20;fill-opacity:1;fill-rule:nonzero;stroke:none"
               transform="matrix(1,0,0,-1,191.95,27.777899)"><tspan
                 id="tspan30"
                 y="0"
                 x="0">t</tspan></text>
<path
               id="path34"
               style="fill:#231f20;fill-opacity:1;fill-rule:nonzero;stroke:none"
               d="M 89.967003,12.178 V 66.041" /><path
               id="path36"
               style="fill:none;stroke:#231f20;stroke-width:0.5;stroke-linecap:butt;stroke-linejoin:round;stroke-miterlimit:4;stroke-dasharray:none;stroke-opacity:1"
               d="M 89.967003,12.178 V 66.041" /><path
               id="path38"
               style="fill:#231f20;fill-opacity:1;fill-rule:nonzero;stroke:none"
               d="m 89.923004,65.715004 -1.589996,-1.064003 -0.037,0.06001 1.030998,2.853996 c 0.197999,0.994004 0.397004,1.987999 0.596001,2.982003 0.198998,-0.994004 0.398003,-1.987999 0.596001,-2.982003 l 1.03099,-2.853996 -0.02699,-0.06001 -1.599999,1.064003" /><path
               id="path40"
               style="fill:#231f20;fill-opacity:1;fill-rule:nonzero;stroke:none"
               d="m 187.246,34.121002 -1.27699,1.591 0.072,0.036 3.42399,-1.029999 c 1.19299,-0.199001 2.386,-0.398002 3.579,-0.597 -1.193,-0.199001 -2.38601,-0.396999 -3.579,-0.596 l -3.42399,-1.030999 -0.072,0.028 1.27699,1.598999" /><path
               id="path42"
               style="fill:none;stroke:#231f20;stroke-width:0.5;stroke-linecap:butt;stroke-linejoin:round;stroke-miterlimit:4;stroke-dasharray:none;stroke-opacity:1"
               d="M 17.15,34.171001 H 189.341" /></g><g
             id="g44"><g
               clip-path="url(#clipPath50)"
               id="g46"><path
                 id="path52"
                 style="fill:none;stroke:#231f20;stroke-width:0.69999999;stroke-linecap:butt;stroke-linejoin:round;stroke-miterlimit:4;stroke-dasharray:none;stroke-opacity:1"
                 d="M 96.694008,35.922001 96.406006,35.754002 96.118004,35.610001 95.829994,35.466003 95.542007,35.346001 95.254005,35.226002 94.966003,35.106003 94.677002,34.986 94.389999,34.889999 94.102005,34.77 l -0.288002,-0.072 -0.288002,-0.096 -0.863998,-0.215999 -0.287995,-0.048 -0.288002,-0.072 -0.288002,-0.024 -0.288009,-0.048 -0.287987,-0.024 -0.288002,-0.024 -0.288002,-0.024 -0.288002,-0.024 h -0.575997 m 6.910996,1.823998 0.288002,0.144001 0.288002,0.167999 0.288002,0.192002 0.287994,0.167999 0.289002,0.192001 0.288002,0.191998 0.287994,0.191997 0.288002,0.216004 0.288002,0.215999 0.288002,0.216 0.288002,0.215999 0.287993,0.240002 0.288,0.239998 0.28801,0.264004 0.288,0.239998 0.57599,0.527999 0.28801,0.288002 0.288,0.264 0.28799,0.311997 0.288,0.288002 0.28901,0.287998 0.287,0.312 0.28799,0.312001 0.57601,0.672 0.28799,0.312001 0.288,0.36 0.28801,0.335999 0.288,0.359997 0.28799,0.36 0.288,0.384003 0.28801,0.360001 0.288,0.383998 0.28799,0.408001 0.288,0.383999 0.28901,0.408001 0.287,0.408001 0.28799,0.408001 0.288,0.431999 0.28801,0.432 0.28799,0.431999 0.288,0.456001 0.288,0.431999 0.28901,0.456002 0.288,0.479999 0.28699,0.455998 0.289,0.479999 0.28701,0.48 0.28799,0.504005 0.289,0.503998 0.287,0.504001 0.28801,0.503998 0.28799,0.528 0.288,0.504002 0.28901,0.551994 0.288,0.528004 0.28699,0.551998 0.289,0.552002 0.28701,0.552002 0.288,0.575996 0.28899,0.576004 0.28701,0.576 0.288,0.576001 0.86399,1.799999 0.36101,0.599998 0.287,0.624001 0.28899,0.624001 0.288,0.648002 0.28701,0.624001 0.28799,0.647995 0.288,0.672004 0.288,0.647995 0.28901,0.672005 0.288,0.671997 M 82.478004,32.266001 82.765007,32.434 l 0.576996,0.287998 0.287994,0.120003 0.28801,0.119999 0.287994,0.119999 0.288002,0.120002 0.288002,0.096 0.287995,0.120003 0.288002,0.072 0.288002,0.096 0.287002,0.072 0.289002,0.072 0.287987,0.072 0.288009,0.048 0.288002,0.072 0.287995,0.024 0.288002,0.048 0.287994,0.024 0.28801,0.024 0.287994,0.024 0.288002,0.024 h 0.575996 M 60.229004,0.178 l 0.577,1.343 0.287998,0.6489998 0.288002,0.6720004 0.287994,0.6469999 0.288006,0.6250002 0.287998,0.6479998 0.288002,0.6240001 0.287998,0.6239996 0.359002,0.5999999 0.865001,1.8000001 1.152001,2.3040012 0.287994,0.552 0.288002,0.552 0.288002,0.551999 0.287003,0.528001 0.287994,0.551999 0.289002,0.504 0.288002,0.528 0.288002,0.504001 0.863998,1.512 0.288002,0.48 0.287994,0.479999 0.287995,0.456001 0.28701,0.48 L 69.806,18.85 l 0.288002,0.432001 0.288002,0.456 0.863998,1.295999 0.863999,1.224001 0.288002,0.383999 0.288002,0.407999 0.288002,0.384003 0.287994,0.359999 0.287994,0.384 0.28801,0.360001 0.288002,0.359999 0.287994,0.336 0.288002,0.360001 0.287995,0.312 0.288002,0.335999 0.288002,0.336 0.576004,0.624001 L 76.43,27.49 l 0.288002,0.288002 0.288002,0.311998 0.288002,0.264002 0.287995,0.288 0.287994,0.264 0.28801,0.263998 0.288002,0.24 0.287994,0.264002 0.288002,0.239999 0.287995,0.24 0.288009,0.215998 0.287995,0.216003 0.288002,0.216 0.288002,0.216 0.287994,0.191997 0.288002,0.192003 0.288002,0.192 0.288002,0.167999 0.287994,0.192001 0.287995,0.168 0.288009,0.144001" /><path
                 id="path54"
                 style="fill:none;stroke:#231f20;stroke-width:0.69999999;stroke-linecap:butt;stroke-linejoin:round;stroke-miterlimit:4;stroke-dasharray:none;stroke-opacity:1"
                 d="M 156.03101,35.882 155.742,35.714001 155.455,35.57 l -0.28799,-0.143997 -0.288,-0.119999 -0.576,-0.240002 -0.288,-0.119999 -0.288,-0.096 -0.288,-0.119998 -0.28801,-0.072 -0.28799,-0.096 -0.289,-0.072 -0.28701,-0.072 -0.28799,-0.072 -0.288,-0.048 -0.28801,-0.072 -0.28799,-0.024 -0.28801,-0.048 -0.28799,-0.024 -0.288,-0.024 -0.576,-0.048 H 149.119 m 29.16001,33.911999 -0.57601,-1.344002 -0.28799,-0.647995 -0.288,-0.672004 -0.28801,-0.647995 -0.28799,-0.624001 -0.28799,-0.648002 -0.57601,-1.247998 -0.36101,-0.600002 -0.287,-0.599998 -0.57599,-1.200001 L 173.311,57.434002 172.44701,55.778004 172.158,55.25 l -0.287,-0.551998 -0.28799,-0.503998 -0.288,-0.528 -1.152,-2.016006 -0.288,-0.48 -0.28801,-0.479999 -0.28799,-0.455998 -0.28902,-0.479999 -0.28699,-0.455998 -0.28799,-0.432003 -0.288,-0.456001 -0.86401,-1.295998 -0.28799,-0.408001 -0.57601,-0.816002 -0.28799,-0.383998 -0.288,-0.407998 -0.28801,-0.384002 -0.289,-0.359997 -0.28799,-0.384007 L 164.67,43.610001 164.38301,43.25 164.095,42.914001 l -0.28898,-0.36 -0.28701,-0.312 -0.28801,-0.335999 -0.28799,-0.336002 -0.288,-0.311997 -0.289,-0.312 -0.28801,-0.288002 -0.28801,-0.288002 -0.28798,-0.311997 -0.287,-0.263999 -0.28801,-0.288002 -0.289,-0.264 -0.28699,-0.264 -0.28801,-0.239998 -0.28799,-0.264 -0.288,-0.240002 -0.289,-0.239998 -0.576,-0.432003 -0.288,-0.215999 -0.287,-0.216 -0.289,-0.191997 -0.28801,-0.192002 -0.28699,-0.192001 -0.28801,-0.167999 -0.28799,-0.192002 -0.289,-0.167999 -0.287,-0.144001 m -14.21601,-3.655998 0.28801,0.167999 0.288,0.144001 0.28799,0.144001 0.576,0.239998 0.288,0.119999 0.287,0.120003 0.28801,0.096 0.288,0.119999 0.289,0.072 0.28799,0.096 0.28801,0.072 0.288,0.072 0.28799,0.072 0.28801,0.048 0.28799,0.072 0.28801,0.024 0.28699,0.048 0.289,0.024 0.28701,0.024 0.289,0.024 0.28799,0.024 h 0.57601 M 119.56701,0.13800001 119.855,0.81 l 0.28701,0.6710001 0.289,0.6489998 0.288,0.6720001 0.28699,0.6479998 0.28901,0.6240006 0.287,0.6479997 0.28899,0.6240001 0.287,0.6239996 0.361,0.5999999 0.864,1.8000002 0.57601,1.1520004 0.28699,0.5760007 0.288,0.576 0.28901,0.552 0.576,1.103999 0.28799,0.528001 0.28801,0.551999 0.288,0.504001 0.28799,0.527999 0.57601,1.008 0.287,0.504 0.28899,0.504 0.287,0.480002 0.28901,0.479999 0.28799,0.456 0.28801,0.479999 0.288,0.455999 0.28799,0.432002 0.28801,0.456001 0.576,0.863998 0.28699,0.432001 0.289,0.407999 0.287,0.407999 0.28901,0.408001 0.28799,0.384001 0.28801,0.407999 0.28799,0.384001 0.288,0.360001 0.28801,0.383998 0.28799,0.360001 0.28801,0.360001 0.288,0.335998 0.28799,0.360001 0.28801,0.312 0.288,0.336001 0.28799,0.336 0.28801,0.311996 0.28799,0.312003 0.57601,0.576 0.28799,0.311998 0.28801,0.264002 0.288,0.288 0.28799,0.264 0.28801,0.263998 0.28799,0.24 0.288,0.264002 0.576,0.480001 0.28801,0.215998 0.288,0.216001 0.576,0.432 0.288,0.191999 0.576,0.384001 0.28799,0.168001 0.28801,0.191999 0.28899,0.168 0.28801,0.144001" /><path
                 id="path56"
                 style="fill:none;stroke:#231f20;stroke-width:0.69999999;stroke-linecap:butt;stroke-linejoin:round;stroke-miterlimit:4;stroke-dasharray:none;stroke-opacity:1"
                 d="M 37.549999,35.906002 37.262001,35.738003 36.974003,35.594002 36.686001,35.450001 36.398003,35.329998 36.110001,35.209999 35.822002,35.09 35.534,34.969997 l -0.287998,-0.096 -0.288002,-0.119999 -0.288002,-0.072 -0.287998,-0.096 -0.286999,-0.072 -0.289001,-0.072 -0.287998,-0.072 -0.288002,-0.048 -0.287999,-0.072 -0.287998,-0.024 -0.288002,-0.048 -0.287998,-0.024 -0.288004,-0.024 -0.287998,-0.024 -0.288,-0.024 H 30.638002 M 59.799004,67.994 59.222004,66.649999 58.934002,66.002007 58.646004,65.330002 58.358002,64.682007 58.07,64.058006 57.782001,63.41 57.494003,62.786003 57.206001,62.162003 56.847004,61.562004 56.558002,60.962002 56.27,60.362003 l -0.287998,-0.600002 -1.152004,-2.303997 -0.287994,-0.552002 -0.288002,-0.551998 -0.287999,-0.552002 -0.287002,-0.528 -0.289002,-0.551998 -0.287998,-0.504002 -0.287998,-0.528003 -1.152,-2.015995 -0.576001,-0.960003 -0.287998,-0.455998 -0.287002,-0.479999 -0.288998,-0.456002 -0.288002,-0.432003 -0.287998,-0.455997 -0.864003,-1.296002 -0.863998,-1.223999 -0.288006,-0.384002 -0.287994,-0.407997 -0.288002,-0.383999 -0.288998,-0.360001 -0.287002,-0.383999 -0.288002,-0.36 -0.287999,-0.360001 -0.287998,-0.335998 -0.287998,-0.360001 -0.288002,-0.312 -0.576,-0.672001 -0.287998,-0.312001 -0.288002,-0.312004 -0.288998,-0.287994 -0.287006,-0.288002 -0.287995,-0.312 -0.288002,-0.264 -0.287998,-0.288002 -0.576004,-0.527996 -0.287998,-0.240002 -0.287998,-0.264 -0.288002,-0.239998 -0.287999,-0.240001 -0.288002,-0.216 -0.287998,-0.216 L 39.853001,37.369999 39.566002,37.154003 39.278004,36.962002 38.989998,36.77 38.702003,36.578003 38.414001,36.41 38.126003,36.218002 37.838001,36.049999 37.549999,35.906002 M 23.334002,32.25 l 0.288,0.168003 L 23.91,32.562 l 0.288002,0.144001 0.288,0.119999 0.288,0.120003 0.287998,0.119999 0.288,0.119999 0.288,0.096 0.288001,0.119999 0.288,0.072 0.288,0.096 0.287998,0.072 0.288002,0.072 0.288,0.072 0.288,0.048 0.288,0.072 0.287999,0.024 0.288002,0.048 0.288,0.024 0.288,0.024 0.288,0.024 0.287998,0.024 h 0.576002 M 1.0860001,0.162 l 0.576,1.344 0.2879998,0.6470001 0.2880003,0.6730001 0.2879998,0.648 0.2880001,0.6239998 0.2880001,0.6480003 0.2879997,0.6239996 0.2870004,0.6240005 0.3609998,0.5999999 0.8640003,1.7999998 0.5759998,1.1520004 0.2880001,0.5760005 0.2880001,0.576 0.2880001,0.551999 0.5759997,1.104001 0.2880001,0.528 0.2880001,0.552 0.2880001,0.504 0.2879992,0.528 0.5760012,1.008 0.2879991,0.504 0.2880001,0.503999 0.2880001,0.48 0.2880001,0.480001 0.2879997,0.456 0.288001,0.479999 0.288,0.456002 0.287999,0.431999 0.288001,0.455999 0.575999,0.864 0.288,0.432002 0.864001,1.223999 0.288,0.384 0.288,0.407999 0.287999,0.384001 0.288001,0.360001 0.288,0.383999 0.575999,0.720001 0.288,0.335998 0.288001,0.360001 0.289,0.311998 0.287999,0.336003 0.287001,0.336 0.287998,0.311999 0.288002,0.312 0.288,0.288 0.288,0.288 0.288,0.312 0.287999,0.264 0.288002,0.288 0.288,0.263998 0.288999,0.264002 0.286999,0.24 0.289002,0.264 0.286998,0.24 0.288,0.239999 0.288,0.216002 0.288001,0.215998 0.287998,0.216001 0.288002,0.216 0.576,0.384001 0.288,0.191999 0.287998,0.168001 0.289002,0.192 0.288,0.168001 0.288,0.143997" /><path
                 id="path58"
                 style="fill:none;stroke:#231f20;stroke-width:0.69999999;stroke-linecap:butt;stroke-linejoin:round;stroke-miterlimit:4;stroke-dasharray:3, 3, 3, 3, 3, 3, 3, 3, 3, 3;stroke-dashoffset:0;stroke-opacity:1"
                 d="M 119.15101,68.178001 V 0.97800004 M 59.949997,67.778 V 0.57800001 M 0.34999999,67.378006 V 0.178 M 177.95,67.778 V 0.57800001" /></g></g><g
             id="g60"><text
               id="text64"
               style="font-variant:normal;font-weight:normal;font-size:9.56400013px;font-family:CMR12;-inkscape-font-specification:CMR12;writing-mode:lr-tb;fill:#231f20;fill-opacity:1;fill-rule:nonzero;stroke:none"
               transform="matrix(1,0,0,-1,113.09,26.152699)"><tspan
                 id="tspan62"
                 y="0"
                 x="0">3</tspan></text>
<text
               id="text68"
               style="font-variant:normal;font-weight:normal;font-size:9.56400013px;font-family:CMMI12;-inkscape-font-specification:CMMI12;writing-mode:lr-tb;fill:#231f20;fill-opacity:1;fill-rule:nonzero;stroke:none"
               transform="matrix(1,0,0,-1,92.423149,65.377533)"><tspan
                 id="tspan66"
                 y="0"
                 x="0">F</tspan></text>
<text
               id="text72"
               style="font-variant:normal;font-weight:normal;font-size:9.56400013px;font-family:CMR12;-inkscape-font-specification:CMR12;writing-mode:lr-tb;fill:#231f20;fill-opacity:1;fill-rule:nonzero;stroke:none"
               transform="matrix(1,0,0,-1,99.786476,65.377533)"><tspan
                 id="tspan70"
                 y="0"
                 x="0">(</tspan></text>
<text
               id="text76"
               style="font-variant:normal;font-weight:normal;font-size:9.56400013px;font-family:CMMI12;-inkscape-font-specification:CMMI12;writing-mode:lr-tb;fill:#231f20;fill-opacity:1;fill-rule:nonzero;stroke:none"
               transform="matrix(1,0,0,-1,103.42749,65.377533)"><tspan
                 id="tspan74"
                 y="0"
                 x="0">t</tspan></text>
<text
               id="text80"
               style="font-variant:normal;font-weight:normal;font-size:9.56400013px;font-family:CMR12;-inkscape-font-specification:CMR12;writing-mode:lr-tb;fill:#231f20;fill-opacity:1;fill-rule:nonzero;stroke:none"
               transform="matrix(1,0,0,-1,107.1498,65.377533)"><tspan
                 id="tspan78"
                 y="0"
                 x="0">)</tspan></text>
</g></g></g></g></g></svg>