<?xml version="1.0" encoding="UTF-8" standalone="no"?>
<svg
   xmlns:dc="http://purl.org/dc/elements/1.1/"
   xmlns:cc="http://creativecommons.org/ns#"
   xmlns:rdf="http://www.w3.org/1999/02/22-rdf-syntax-ns#"
   xmlns:svg="http://www.w3.org/2000/svg"
   xmlns="http://www.w3.org/2000/svg"
   viewBox="0 0 384 130.66667"
   height="130.66667"
   width="384"
   xml:space="preserve"
   id="svg2"
   version="1.1"><metadata
     id="metadata8"><rdf:RDF><cc:Work
         rdf:about=""><dc:format>image/svg+xml</dc:format><dc:type
           rdf:resource="http://purl.org/dc/dcmitype/StillImage" /></cc:Work></rdf:RDF></metadata><defs
     id="defs6"><clipPath
       id="clipPath24"
       clipPathUnits="userSpaceOnUse"><path
         id="path22"
         d="M 0,0 H 288 V 98 H 0 Z" /></clipPath><clipPath
       id="clipPath34"
       clipPathUnits="userSpaceOnUse"><path
         id="path32"
         d="M 0,0 H 287.53 V 97.729004 H 0 Z" /></clipPath></defs><g
     transform="matrix(1.3333333,0,0,-1.3333333,0,130.66667)"
     id="g10"><g
       id="g12" /><g
       id="g14" /><g
       id="g16"><g
         id="g18"><g
           clip-path="url(#clipPath24)"
           id="g20"><g
             id="g26" /><g
             id="g28"><g
               clip-path="url(#clipPath34)"
               id="g30"><path
                 id="path36"
                 style="fill:none;stroke:#231f20;stroke-width:1;stroke-linecap:butt;stroke-linejoin:round;stroke-miterlimit:10;stroke-dasharray:none;stroke-opacity:1"
                 d="m 178.65601,74.795006 0.39599,0.325996 0.42101,0.327004 0.42,0.326996 0.41999,0.303001 0.83901,0.653 0.397,0.327003 0.42,0.326996 0.42,0.303002 0.83999,0.653999 0.42099,0.326004 0.41903,0.326996 0.39698,0.303001 0.42,0.326996 0.42002,0.327003 0.41999,0.326005 0.42,0.326995 0.42,0.303002 0.42,0.326996 0.39599,0.327003 0.42,0.325996 0.42101,0.327004 0.42,0.303001 0.41999,0.326996 0.42,0.327004 0.41901,0.325996 0.397,0.327004 0.42,0.303001 0.42,0.326996 0.83999,0.653 0.42101,0.328003 0.41901,0.302002 0.39698,0.326995 0.84002,0.653 0.41999,0.327004 0.42,0.304001 0.42,0.325996 0.42,0.327004 0.39599,0.325996 0.42,0.327003 0.42101,0.303002 0.42,0.326996 0.84001,0.653 0.39599,0.327003 0.42,0.302994 0.42,0.328003 0.42,0.326004 0.83999,0.653 0.42099,0.302993 0.39602,0.327004 0.41999,0.326996 0.42002,0.326004 0.42,0.327003 0.41999,0.302994 0.42,0.327003 0.42,0.325997 0.396,0.327003 0.41999,0.326996 0.42002,0.303002 0.42099,0.327003 0.42,0.326996 0.41999,0.326004 0.42002,0.326996 0.39599,0.303001 0.42,0.327004 M 137.403,42.922001 l 0.42001,0.326 0.42,0.304001 0.42,0.326 0.396,0.327 0.41999,0.326999 0.42101,0.326001 0.41899,0.304001 0.42001,0.326 0.42099,0.326999 0.41901,0.327 0.397,0.326 0.42,0.303002 0.42,0.327999 0.42,0.326 0.42,0.327 0.421,0.326 0.41899,0.304001 0.39701,0.326 0.41999,0.327 0.84,0.653 0.42001,0.303997 0.42,0.326 0.42,0.328003 0.396,0.326 0.41999,0.326 0.42099,0.303997 0.41901,0.326 0.42001,0.327 0.42099,0.327 0.396,0.326 0.42001,0.304001 0.42,0.326 0.42,0.327 0.42,0.326 0.42,0.327 0.421,0.303001 0.396,0.327 0.83999,0.653999 0.42,0.326 0.42,0.304001 0.84001,0.653 0.396,0.327 0.42,0.326 0.41999,0.304001 0.42101,0.326 0.41899,0.327 0.42001,0.326 0.42099,0.327999 0.39602,0.303001 0.41999,0.327 0.42,0.327 0.84,0.652 0.42,0.303997 0.421,0.326 0.396,0.327004 0.83999,0.653 0.42,0.302997 0.41901,0.327 0.841,0.653999 0.396,0.326 0.42,0.303002 0.41999,0.327003 0.42099,0.326996 0.41903,0.327004 0.41999,0.325996 0.39699,0.304001 0.42002,0.326004 0.41999,0.326996 0.42,0.326004 0.42,0.326996 0.42,0.304 0.42,0.325997 0.39599,0.327003 0.42101,0.327004 0.83999,0.653 0.42,0.302993 0.41901,0.327004 0.421,0.326996 0.396,0.326004 0.42,0.326996 0.42,0.303001 0.41999,0.327004 0.42101,0.326995 0.41901,0.327004 0.41999,0.326996 0.39699,0.302002 0.42002,0.328003 0.83999,0.652 0.42,0.326996 0.42,0.303001 0.42,0.327004 m -82.484005,-63.770005 0.397003,0.326 0.839996,0.653999 0.419998,0.327001 0.420006,0.302999 0.419998,0.327001 0.419999,0.326 0.396003,0.327 0.419998,0.326 0.421994,0.304 0.419,0.326 0.42001,0.327 0.83999,0.654 0.39701,0.302999 0.42,0.327001 1.26,0.98 0.42,0.302999 0.39699,0.327002 0.41901,0.325998 0.42,0.327002 0.42099,0.326 0.419,0.303999 0.421,0.326999 0.41901,0.327 0.39699,0.327002 0.42001,0.326 0.42,0.302999 0.42099,0.327 0.419,0.326 0.42001,0.327 0.42,0.327 0.39699,0.303001 0.84001,0.653 0.41999,0.327 0.42,0.326999 0.42001,0.303 0.42,0.326 0.39698,0.327 0.41902,0.326999 0.42,0.327002 0.42099,0.302999 0.419,0.327 0.421,0.326 0.41901,0.327 0.39699,0.326 0.42001,0.304001 0.42,0.327 0.42099,0.326 0.419,0.326999 0.42001,0.327 0.39699,0.303 0.42001,0.327001 0.42,0.325998 0.42,0.327002 0.41999,0.327 0.42,0.326 0.42001,0.303999 0.39599,0.326 0.421,0.327 0.41901,0.327001 0.42,0.327 0.42099,0.302999 0.419,0.326001 0.421,0.327999 0.396,0.326 0.42001,0.326 0.42,0.304001 0.42,0.326 0.42099,0.327 0.41901,0.326 0.42,0.327 0.39699,0.304001 0.42,0.326 0.42,0.327 0.42001,0.326 0.42,0.326999 0.42,0.304001 0.42,0.326001 0.39599,0.326999 0.42099,0.327 0.41901,0.326 0.42001,0.303997 0.42099,0.326 0.41901,0.327 0.42099,0.327003 0.39601,0.326001 0.42,0.303997 0.42,0.326 0.42,0.327 0.421,0.326999 0.41899,0.326 0.39701,0.303002 0.41999,0.327 0.42,0.326999 0.42,0.327" /><path
                 id="path38"
                 style="fill:none;stroke:#231f20;stroke-width:1;stroke-linecap:butt;stroke-linejoin:miter;stroke-miterlimit:4;stroke-dasharray:none;stroke-opacity:1"
                 d="M 96.271004,11.451 H 230.25101 M 96.411003,96.601006 V 12.011001 M 117.412,11.451 v 5.600001 M 138.061,11.171 v 5.6 m 21,-5.6 v 5.6 m 20.86001,-5.6 v 5.6 m 20.861,-5.461001 v 5.601002 m -98.7,60.199999 h -5.601007 m 5.601007,-32.899998 h -5.601007" /></g></g><g
             id="g40"><text
               id="text44"
               style="font-variant:normal;font-weight:normal;font-size:8.36849976px;font-family:CMR12;-inkscape-font-specification:CMR12;writing-mode:lr-tb;fill:#231f20;fill-opacity:1;fill-rule:nonzero;stroke:none"
               transform="matrix(1,0,0,-1,94.930695,2.3340001)"><tspan
                 id="tspan42"
                 y="0"
                 x="0">0</tspan></text>
<text
               id="text48"
               style="font-variant:normal;font-weight:normal;font-size:8.36849976px;font-family:CMR12;-inkscape-font-specification:CMR12;writing-mode:lr-tb;fill:#231f20;fill-opacity:1;fill-rule:nonzero;stroke:none"
               transform="matrix(1,0,0,-1,85.289345,43.866867)"><tspan
                 id="tspan46"
                 y="0"
                 x="0 4.0921965">10</tspan></text>
<text
               id="text52"
               style="font-variant:normal;font-weight:normal;font-size:8.36849976px;font-family:CMR12;-inkscape-font-specification:CMR12;writing-mode:lr-tb;fill:#231f20;fill-opacity:1;fill-rule:nonzero;stroke:none"
               transform="matrix(1,0,0,-1,86.744629,77.000267)"><tspan
                 id="tspan50"
                 y="0"
                 x="0 4.0921965">20</tspan></text>
<text
               id="text56"
               style="font-variant:normal;font-weight:normal;font-size:8.36849976px;font-family:CMR12;-inkscape-font-specification:CMR12;writing-mode:lr-tb;fill:#231f20;fill-opacity:1;fill-rule:nonzero;stroke:none"
               transform="matrix(1,0,0,-1,111.35471,2.3331687)"><tspan
                 id="tspan54"
                 y="0"
                 x="0">0</tspan></text>
<text
               id="text60"
               style="font-variant:normal;font-weight:normal;font-size:8.36849976px;font-family:CMMI12;-inkscape-font-specification:CMMI12;writing-mode:lr-tb;fill:#231f20;fill-opacity:1;fill-rule:nonzero;stroke:none"
               transform="matrix(1,0,0,-1,115.45193,2.3331687)"><tspan
                 id="tspan58"
                 y="0"
                 x="0">.</tspan></text>
<text
               id="text64"
               style="font-variant:normal;font-weight:normal;font-size:8.36849976px;font-family:CMR12;-inkscape-font-specification:CMR12;writing-mode:lr-tb;fill:#231f20;fill-opacity:1;fill-rule:nonzero;stroke:none"
               transform="matrix(1,0,0,-1,117.729,2.3331687)"><tspan
                 id="tspan62"
                 y="0"
                 x="0">5</tspan></text>
<text
               id="text68"
               style="font-variant:normal;font-weight:normal;font-size:8.36849976px;font-family:CMR12;-inkscape-font-specification:CMR12;writing-mode:lr-tb;fill:#231f20;fill-opacity:1;fill-rule:nonzero;stroke:none"
               transform="matrix(1,0,0,-1,136.5531,2.0996876)"><tspan
                 id="tspan66"
                 y="0"
                 x="0">1</tspan></text>
<text
               id="text72"
               style="font-variant:normal;font-weight:normal;font-size:8.36849976px;font-family:CMR12;-inkscape-font-specification:CMR12;writing-mode:lr-tb;fill:#231f20;fill-opacity:1;fill-rule:nonzero;stroke:none"
               transform="matrix(1,0,0,-1,153.2767,2.0996876)"><tspan
                 id="tspan70"
                 y="0"
                 x="0">1</tspan></text>
<text
               id="text76"
               style="font-variant:normal;font-weight:normal;font-size:8.36849976px;font-family:CMMI12;-inkscape-font-specification:CMMI12;writing-mode:lr-tb;fill:#231f20;fill-opacity:1;fill-rule:nonzero;stroke:none"
               transform="matrix(1,0,0,-1,157.37393,2.0996876)"><tspan
                 id="tspan74"
                 y="0"
                 x="0">.</tspan></text>
<text
               id="text80"
               style="font-variant:normal;font-weight:normal;font-size:8.36849976px;font-family:CMR12;-inkscape-font-specification:CMR12;writing-mode:lr-tb;fill:#231f20;fill-opacity:1;fill-rule:nonzero;stroke:none"
               transform="matrix(1,0,0,-1,159.65016,2.0996876)"><tspan
                 id="tspan78"
                 y="0"
                 x="0">5</tspan></text>
<text
               id="text84"
               style="font-variant:normal;font-weight:normal;font-size:8.36849976px;font-family:CMR12;-inkscape-font-specification:CMR12;writing-mode:lr-tb;fill:#231f20;fill-opacity:1;fill-rule:nonzero;stroke:none"
               transform="matrix(1,0,0,-1,178.24246,2.0996876)"><tspan
                 id="tspan82"
                 y="0"
                 x="0">2</tspan></text>
<text
               id="text88"
               style="font-variant:normal;font-weight:normal;font-size:8.36849976px;font-family:CMR12;-inkscape-font-specification:CMR12;writing-mode:lr-tb;fill:#231f20;fill-opacity:1;fill-rule:nonzero;stroke:none"
               transform="matrix(1,0,0,-1,195.90083,2.0996876)"><tspan
                 id="tspan86"
                 y="0"
                 x="0">2</tspan></text>
<text
               id="text92"
               style="font-variant:normal;font-weight:normal;font-size:8.36849976px;font-family:CMMI12;-inkscape-font-specification:CMMI12;writing-mode:lr-tb;fill:#231f20;fill-opacity:1;fill-rule:nonzero;stroke:none"
               transform="matrix(1,0,0,-1,199.99721,2.0996876)"><tspan
                 id="tspan90"
                 y="0"
                 x="0">.</tspan></text>
<text
               id="text96"
               style="font-variant:normal;font-weight:normal;font-size:8.36849976px;font-family:CMR12;-inkscape-font-specification:CMR12;writing-mode:lr-tb;fill:#231f20;fill-opacity:1;fill-rule:nonzero;stroke:none"
               transform="matrix(1,0,0,-1,202.27344,2.0996876)"><tspan
                 id="tspan94"
                 y="0"
                 x="0">5</tspan></text>
<text
               id="text100"
               style="font-variant:normal;font-weight:normal;font-size:8.36849976px;font-family:CMR12;-inkscape-font-specification:CMR12;writing-mode:lr-tb;fill:#231f20;fill-opacity:1;fill-rule:nonzero;stroke:none"
               transform="matrix(1,0,0,-1,221.33102,2.3331687)"><tspan
                 id="tspan98"
                 y="0"
                 x="0">3</tspan></text>
<text
               id="text104"
               style="font-variant:normal;font-weight:normal;font-size:11.95500088px;font-family:CMR12;-inkscape-font-specification:CMR12;writing-mode:lr-tb;fill:#231f20;fill-opacity:1;fill-rule:nonzero;stroke:none"
               transform="matrix(1,0,0,-1,0,57.714397)"><tspan
                 id="tspan102"
                 y="0"
                 x="0">V</tspan></text>
<text
               id="text108"
               style="font-variant:normal;font-weight:normal;font-size:11.95500088px;font-family:CMR12;-inkscape-font-specification:CMR12;writing-mode:lr-tb;fill:#231f20;fill-opacity:1;fill-rule:nonzero;stroke:none"
               transform="matrix(1,0,0,-1,7.8006382,57.714397)"><tspan
                 id="tspan106"
                 y="0"
                 x="0 5.2004256 8.4402304">elo</tspan></text>
<text
               id="text112"
               style="font-variant:normal;font-weight:normal;font-size:11.95500088px;font-family:CMR12;-inkscape-font-specification:CMR12;writing-mode:lr-tb;fill:#231f20;fill-opacity:1;fill-rule:nonzero;stroke:none"
               transform="matrix(1,0,0,-1,22.432364,57.714397)"><tspan
                 id="tspan110"
                 y="0"
                 x="0 5.2004256 8.4402304">cit</tspan></text>
<text
               id="text116"
               style="font-variant:normal;font-weight:normal;font-size:11.95500088px;font-family:CMR12;-inkscape-font-specification:CMR12;writing-mode:lr-tb;fill:#231f20;fill-opacity:1;fill-rule:nonzero;stroke:none"
               transform="matrix(1,0,0,-1,35.114231,57.714397)"><tspan
                 id="tspan114"
                 y="0"
                 x="0">y</tspan></text>
<text
               id="text120"
               style="font-variant:normal;font-weight:normal;font-size:11.95500088px;font-family:CMR12;-inkscape-font-specification:CMR12;writing-mode:lr-tb;fill:#231f20;fill-opacity:1;fill-rule:nonzero;stroke:none"
               transform="matrix(1,0,0,-1,45.194691,57.714397)"><tspan
                 id="tspan118"
                 y="0"
                 x="0">(</tspan></text>
<text
               id="text124"
               style="font-variant:normal;font-weight:normal;font-size:11.95500088px;font-family:CMR12;-inkscape-font-specification:CMR12;writing-mode:lr-tb;fill:#231f20;fill-opacity:1;fill-rule:nonzero;stroke:none"
               transform="matrix(1,0,0,-1,49.737591,57.714397)"><tspan
                 id="tspan122"
                 y="0"
                 x="0">m</tspan></text>
<text
               id="text128"
               style="font-variant:normal;font-weight:normal;font-size:11.95500088px;font-family:CMR12;-inkscape-font-specification:CMR12;writing-mode:lr-tb;fill:#231f20;fill-opacity:1;fill-rule:nonzero;stroke:none"
               transform="matrix(1,0,0,-1,63.403355,57.714397)"><tspan
                 id="tspan126"
                 y="0"
                 x="0">s</tspan></text>
<text
               id="text132"
               style="font-variant:normal;font-weight:normal;font-size:7.96999979px;font-family:CMR8;-inkscape-font-specification:CMR8;writing-mode:lr-tb;fill:#231f20;fill-opacity:1;fill-rule:nonzero;stroke:none"
               transform="matrix(1,0,0,-1,74.606895,62.052299)"><tspan
                 id="tspan130"
                 y="0"
                 x="0">1</tspan></text>
<text
               id="text136"
               style="font-variant:normal;font-weight:normal;font-size:11.95500088px;font-family:CMR12;-inkscape-font-specification:CMR12;writing-mode:lr-tb;fill:#231f20;fill-opacity:1;fill-rule:nonzero;stroke:none"
               transform="matrix(1,0,0,-1,79.339401,57.714397)"><tspan
                 id="tspan134"
                 y="0"
                 x="0">)</tspan></text>
<text
               id="text140"
               style="font-variant:normal;font-weight:normal;font-size:11.95500088px;font-family:CMR12;-inkscape-font-specification:CMR12;writing-mode:lr-tb;fill:#231f20;fill-opacity:1;fill-rule:nonzero;stroke:none"
               transform="matrix(1,0,0,-1,243.26518,5.7137303)"><tspan
                 id="tspan138"
                 y="0"
                 x="0 8.4521856 11.691991 21.435316">Time</tspan></text>
<text
               id="text144"
               style="font-variant:normal;font-weight:normal;font-size:11.95500088px;font-family:CMR12;-inkscape-font-specification:CMR12;writing-mode:lr-tb;fill:#231f20;fill-opacity:1;fill-rule:nonzero;stroke:none"
               transform="matrix(1,0,0,-1,273.83054,5.7137303)"><tspan
                 id="tspan142"
                 y="0"
                 x="0 4.5429006 9.1575308">(s)</tspan></text>
<text
               id="text148"
               style="font-variant:normal;font-weight:normal;font-size:8.36849976px;font-family:CMR12;-inkscape-font-specification:CMR12;writing-mode:lr-tb;fill:#231f20;fill-opacity:1;fill-rule:nonzero;stroke:none"
               transform="matrix(1,0,0,-1,86.686005,10.9795)"><tspan
                 id="tspan146"
                 y="0"
                 x="0">0</tspan></text>
<path
               id="path150"
               style="fill:none;stroke:#231f20;stroke-width:1;stroke-linecap:butt;stroke-linejoin:miter;stroke-miterlimit:4;stroke-dasharray:none;stroke-opacity:1"
               d="m 222.66801,10.968 v 5.599001" /><path
               id="path152"
               style="fill:#ffffff;fill-opacity:1;fill-rule:nonzero;stroke:none"
               d="m 68.648003,64.527 h 5.666" /><path
               id="path154"
               style="fill:none;stroke:#231f20;stroke-width:0.69999999;stroke-linecap:butt;stroke-linejoin:miter;stroke-miterlimit:4;stroke-dasharray:none;stroke-opacity:1"
               d="m 68.648003,64.527 h 5.666" /></g></g></g></g></g></svg>