<?xml version="1.0" encoding="UTF-8" standalone="no"?>
<svg
   xmlns:dc="http://purl.org/dc/elements/1.1/"
   xmlns:cc="http://creativecommons.org/ns#"
   xmlns:rdf="http://www.w3.org/1999/02/22-rdf-syntax-ns#"
   xmlns:svg="http://www.w3.org/2000/svg"
   xmlns="http://www.w3.org/2000/svg"
   viewBox="0 0 369.33334 150.66667"
   height="150.66667"
   width="369.33334"
   xml:space="preserve"
   id="svg2"
   version="1.1"><metadata
     id="metadata8"><rdf:RDF><cc:Work
         rdf:about=""><dc:format>image/svg+xml</dc:format><dc:type
           rdf:resource="http://purl.org/dc/dcmitype/StillImage" /></cc:Work></rdf:RDF></metadata><defs
     id="defs6"><clipPath
       id="clipPath24"
       clipPathUnits="userSpaceOnUse"><path
         id="path22"
         d="M 0,0 H 277 V 113 H 0 Z" /></clipPath><clipPath
       id="clipPath34"
       clipPathUnits="userSpaceOnUse"><path
         id="path32"
         d="M 0,0.05999756 H 276.19702 V 112.19 H 0 Z" /></clipPath><clipPath
       id="clipPath158"
       clipPathUnits="userSpaceOnUse"><path
         id="path156"
         d="M 0,0.05999756 H 276.19702 V 112.19 H 0 Z" /></clipPath></defs><g
     transform="matrix(1.3333333,0,0,-1.3333333,0,150.66667)"
     id="g10"><g
       id="g12" /><g
       id="g14" /><g
       id="g16"><g
         id="g18"><g
           clip-path="url(#clipPath24)"
           id="g20"><g
             id="g26" /><g
             id="g28"><g
               clip-path="url(#clipPath34)"
               id="g30"><path
                 id="path36"
                 style="fill:none;stroke:#231f20;stroke-width:1;stroke-linecap:butt;stroke-linejoin:miter;stroke-miterlimit:4;stroke-dasharray:none;stroke-opacity:1"
                 d="m 103.758,18.605001 h 114.84001 m -114.72,93.584989 V 19.084002 m 18,-0.479001 v 4.8 M 139.578,18.365002 v 4.799999 m 18,-4.799999 v 4.799999 m 17.88001,-4.799999 v 4.799999 m 17.88,-4.68 v 4.800001 m -84.6,51.6 H 103.938 m 4.80001,-28.200001 H 103.938" /></g></g><g
             id="g38"><text
               id="text42"
               style="font-variant:normal;font-weight:normal;font-size:7.17300034px;font-family:CMR12;-inkscape-font-specification:CMR12;writing-mode:lr-tb;fill:#231f20;fill-opacity:1;fill-rule:nonzero;stroke:none"
               transform="matrix(1,0,0,-1,104.409,10.99)"><tspan
                 id="tspan40"
                 y="0"
                 x="0">0</tspan></text>
<text
               id="text46"
               style="font-variant:normal;font-weight:normal;font-size:7.17300034px;font-family:CMR12;-inkscape-font-specification:CMR12;writing-mode:lr-tb;fill:#231f20;fill-opacity:1;fill-rule:nonzero;stroke:none"
               transform="matrix(1,0,0,-1,94.343849,46.39019)"><tspan
                 id="tspan44"
                 y="0"
                 x="0 3.5075972">10</tspan></text>
<text
               id="text50"
               style="font-variant:normal;font-weight:normal;font-size:7.17300034px;font-family:CMR12;-inkscape-font-specification:CMR12;writing-mode:lr-tb;fill:#231f20;fill-opacity:1;fill-rule:nonzero;stroke:none"
               transform="matrix(1,0,0,-1,95.591232,74.79097)"><tspan
                 id="tspan48"
                 y="0"
                 x="0 3.5075972">20</tspan></text>
<text
               id="text54"
               style="font-variant:normal;font-weight:normal;font-size:7.17300034px;font-family:CMR12;-inkscape-font-specification:CMR12;writing-mode:lr-tb;fill:#231f20;fill-opacity:1;fill-rule:nonzero;stroke:none"
               transform="matrix(1,0,0,-1,95.838699,102.19111)"><tspan
                 id="tspan52"
                 y="0"
                 x="0 3.5075972">30</tspan></text>
<text
               id="text58"
               style="font-variant:normal;font-weight:normal;font-size:7.17300034px;font-family:CMR12;-inkscape-font-specification:CMR12;writing-mode:lr-tb;fill:#231f20;fill-opacity:1;fill-rule:nonzero;stroke:none"
               transform="matrix(1,0,0,-1,116.68559,10.791305)"><tspan
                 id="tspan56"
                 y="0"
                 x="0">0</tspan></text>
<text
               id="text62"
               style="font-variant:normal;font-weight:normal;font-size:7.17300034px;font-family:CMMI12;-inkscape-font-specification:CMMI12;writing-mode:lr-tb;fill:#231f20;fill-opacity:1;fill-rule:nonzero;stroke:none"
               transform="matrix(1,0,0,-1,120.19678,10.791305)"><tspan
                 id="tspan60"
                 y="0"
                 x="0">.</tspan></text>
<text
               id="text66"
               style="font-variant:normal;font-weight:normal;font-size:7.17300034px;font-family:CMR12;-inkscape-font-specification:CMR12;writing-mode:lr-tb;fill:#231f20;fill-opacity:1;fill-rule:nonzero;stroke:none"
               transform="matrix(1,0,0,-1,122.14783,10.791305)"><tspan
                 id="tspan64"
                 y="0"
                 x="0">5</tspan></text>
<text
               id="text70"
               style="font-variant:normal;font-weight:normal;font-size:7.17300034px;font-family:CMR12;-inkscape-font-specification:CMR12;writing-mode:lr-tb;fill:#231f20;fill-opacity:1;fill-rule:nonzero;stroke:none"
               transform="matrix(1,0,0,-1,138.28349,10.590461)"><tspan
                 id="tspan68"
                 y="0"
                 x="0">1</tspan></text>
<text
               id="text74"
               style="font-variant:normal;font-weight:normal;font-size:7.17300034px;font-family:CMR12;-inkscape-font-specification:CMR12;writing-mode:lr-tb;fill:#231f20;fill-opacity:1;fill-rule:nonzero;stroke:none"
               transform="matrix(1,0,0,-1,152.61873,10.590461)"><tspan
                 id="tspan72"
                 y="0"
                 x="0">1</tspan></text>
<text
               id="text78"
               style="font-variant:normal;font-weight:normal;font-size:7.17300034px;font-family:CMMI12;-inkscape-font-specification:CMMI12;writing-mode:lr-tb;fill:#231f20;fill-opacity:1;fill-rule:nonzero;stroke:none"
               transform="matrix(1,0,0,-1,156.13063,10.590461)"><tspan
                 id="tspan76"
                 y="0"
                 x="0">.</tspan></text>
<text
               id="text82"
               style="font-variant:normal;font-weight:normal;font-size:7.17300034px;font-family:CMR12;-inkscape-font-specification:CMR12;writing-mode:lr-tb;fill:#231f20;fill-opacity:1;fill-rule:nonzero;stroke:none"
               transform="matrix(1,0,0,-1,158.08168,10.590461)"><tspan
                 id="tspan80"
                 y="0"
                 x="0">5</tspan></text>
<text
               id="text86"
               style="font-variant:normal;font-weight:normal;font-size:7.17300034px;font-family:CMR12;-inkscape-font-specification:CMR12;writing-mode:lr-tb;fill:#231f20;fill-opacity:1;fill-rule:nonzero;stroke:none"
               transform="matrix(1,0,0,-1,174.01793,10.590461)"><tspan
                 id="tspan84"
                 y="0"
                 x="0">2</tspan></text>
<text
               id="text90"
               style="font-variant:normal;font-weight:normal;font-size:7.17300034px;font-family:CMR12;-inkscape-font-specification:CMR12;writing-mode:lr-tb;fill:#231f20;fill-opacity:1;fill-rule:nonzero;stroke:none"
               transform="matrix(1,0,0,-1,189.15295,10.590461)"><tspan
                 id="tspan88"
                 y="0"
                 x="0">2</tspan></text>
<text
               id="text94"
               style="font-variant:normal;font-weight:normal;font-size:7.17300034px;font-family:CMMI12;-inkscape-font-specification:CMMI12;writing-mode:lr-tb;fill:#231f20;fill-opacity:1;fill-rule:nonzero;stroke:none"
               transform="matrix(1,0,0,-1,192.66487,10.590461)"><tspan
                 id="tspan92"
                 y="0"
                 x="0">.</tspan></text>
<text
               id="text98"
               style="font-variant:normal;font-weight:normal;font-size:7.17300034px;font-family:CMR12;-inkscape-font-specification:CMR12;writing-mode:lr-tb;fill:#231f20;fill-opacity:1;fill-rule:nonzero;stroke:none"
               transform="matrix(1,0,0,-1,194.61592,10.590461)"><tspan
                 id="tspan96"
                 y="0"
                 x="0">5</tspan></text>
<text
               id="text102"
               style="font-variant:normal;font-weight:normal;font-size:7.17300034px;font-family:CMR12;-inkscape-font-specification:CMR12;writing-mode:lr-tb;fill:#231f20;fill-opacity:1;fill-rule:nonzero;stroke:none"
               transform="matrix(1,0,0,-1,210.95099,10.791305)"><tspan
                 id="tspan100"
                 y="0"
                 x="0">3</tspan></text>
<text
               id="text106"
               style="font-variant:normal;font-weight:normal;font-size:11.95500088px;font-family:CMR12;-inkscape-font-specification:CMR12;writing-mode:lr-tb;fill:#231f20;fill-opacity:1;fill-rule:nonzero;stroke:none"
               transform="matrix(1,0,0,-1,0,60.0079)"><tspan
                 id="tspan104"
                 y="0"
                 x="0">V</tspan></text>
<text
               id="text110"
               style="font-variant:normal;font-weight:normal;font-size:11.95500088px;font-family:CMR12;-inkscape-font-specification:CMR12;writing-mode:lr-tb;fill:#231f20;fill-opacity:1;fill-rule:nonzero;stroke:none"
               transform="matrix(1,0,0,-1,7.8006382,60.0079)"><tspan
                 id="tspan108"
                 y="0"
                 x="0 5.2004256 8.4402304">elo</tspan></text>
<text
               id="text114"
               style="font-variant:normal;font-weight:normal;font-size:11.95500088px;font-family:CMR12;-inkscape-font-specification:CMR12;writing-mode:lr-tb;fill:#231f20;fill-opacity:1;fill-rule:nonzero;stroke:none"
               transform="matrix(1,0,0,-1,22.432364,60.0079)"><tspan
                 id="tspan112"
                 y="0"
                 x="0 5.2004256 8.4402304">cit</tspan></text>
<text
               id="text118"
               style="font-variant:normal;font-weight:normal;font-size:11.95500088px;font-family:CMR12;-inkscape-font-specification:CMR12;writing-mode:lr-tb;fill:#231f20;fill-opacity:1;fill-rule:nonzero;stroke:none"
               transform="matrix(1,0,0,-1,35.114231,60.0079)"><tspan
                 id="tspan116"
                 y="0"
                 x="0">y</tspan></text>
<text
               id="text122"
               style="font-variant:normal;font-weight:normal;font-size:11.95500088px;font-family:CMR12;-inkscape-font-specification:CMR12;writing-mode:lr-tb;fill:#231f20;fill-opacity:1;fill-rule:nonzero;stroke:none"
               transform="matrix(1,0,0,-1,45.194691,60.0079)"><tspan
                 id="tspan120"
                 y="0"
                 x="0">(</tspan></text>
<text
               id="text126"
               style="font-variant:normal;font-weight:normal;font-size:11.95500088px;font-family:CMR12;-inkscape-font-specification:CMR12;writing-mode:lr-tb;fill:#231f20;fill-opacity:1;fill-rule:nonzero;stroke:none"
               transform="matrix(1,0,0,-1,49.737591,60.0079)"><tspan
                 id="tspan124"
                 y="0"
                 x="0">m</tspan></text>
<text
               id="text130"
               style="font-variant:normal;font-weight:normal;font-size:11.95500088px;font-family:CMR12;-inkscape-font-specification:CMR12;writing-mode:lr-tb;fill:#231f20;fill-opacity:1;fill-rule:nonzero;stroke:none"
               transform="matrix(1,0,0,-1,63.403355,60.0079)"><tspan
                 id="tspan128"
                 y="0"
                 x="0">s</tspan></text>
<text
               id="text134"
               style="font-variant:normal;font-weight:normal;font-size:7.96999979px;font-family:CMR8;-inkscape-font-specification:CMR8;writing-mode:lr-tb;fill:#231f20;fill-opacity:1;fill-rule:nonzero;stroke:none"
               transform="matrix(1,0,0,-1,74.606895,64.345795)"><tspan
                 id="tspan132"
                 y="0"
                 x="0">1</tspan></text>
<text
               id="text138"
               style="font-variant:normal;font-weight:normal;font-size:11.95500088px;font-family:CMR12;-inkscape-font-specification:CMR12;writing-mode:lr-tb;fill:#231f20;fill-opacity:1;fill-rule:nonzero;stroke:none"
               transform="matrix(1,0,0,-1,79.339401,60.0079)"><tspan
                 id="tspan136"
                 y="0"
                 x="0">)</tspan></text>
<text
               id="text142"
               style="font-variant:normal;font-weight:normal;font-size:11.95500088px;font-family:CMR12;-inkscape-font-specification:CMR12;writing-mode:lr-tb;fill:#231f20;fill-opacity:1;fill-rule:nonzero;stroke:none"
               transform="matrix(1,0,0,-1,231.93184,8.6743221)"><tspan
                 id="tspan140"
                 y="0"
                 x="0 8.4521856 11.691991 21.435316">Time</tspan></text>
<text
               id="text146"
               style="font-variant:normal;font-weight:normal;font-size:11.95500088px;font-family:CMR12;-inkscape-font-specification:CMR12;writing-mode:lr-tb;fill:#231f20;fill-opacity:1;fill-rule:nonzero;stroke:none"
               transform="matrix(1,0,0,-1,262.49719,8.6743221)"><tspan
                 id="tspan144"
                 y="0"
                 x="0 4.5429006 9.1575308">(s)</tspan></text>
<text
               id="text150"
               style="font-variant:normal;font-weight:normal;font-size:7.17300034px;font-family:CMR12;-inkscape-font-specification:CMR12;writing-mode:lr-tb;fill:#231f20;fill-opacity:1;fill-rule:nonzero;stroke:none"
               transform="matrix(1,0,0,-1,95.542007,18.200699)"><tspan
                 id="tspan148"
                 y="0"
                 x="0">0</tspan></text>
</g><g
             id="g152"><g
               clip-path="url(#clipPath158)"
               id="g154"><path
                 id="path160"
                 style="fill:none;stroke:#231f20;stroke-width:1;stroke-linecap:butt;stroke-linejoin:miter;stroke-miterlimit:4;stroke-dasharray:none;stroke-opacity:1"
                 d="m 212.09801,18.191 v 4.800001 M 109.298,102.59 h -4.79999 m -0.70001,-84 V 3.79" /><path
                 id="path162"
                 style="fill:none;stroke:#231f20;stroke-width:1;stroke-linecap:butt;stroke-linejoin:round;stroke-miterlimit:10;stroke-dasharray:1, 1, 1, 1, 1, 1;stroke-dashoffset:0;stroke-opacity:1"
                 d="m 174.31801,58.331001 0.33999,0.278996 0.36001,0.280002 0.36,0.279999 0.36,0.260002 0.72,0.561001 0.33999,0.278999 0.36,0.281003 0.36001,0.258995 0.72,0.561004 0.36,0.278996 0.36,0.281006 0.33999,0.258995 0.36,0.279998 0.36001,0.280003 0.36,0.279999 0.36,0.281006 0.36,0.258995 0.36,0.281002 0.33999,0.278995 0.36,0.279999 0.36001,0.281006 0.36,0.258995 0.36,0.279999 0.36,0.280006 0.36,0.279999 0.33999,0.281006 0.36,0.259994 0.36001,0.279999 0.72,0.558998 0.36,0.281006 0.36,0.260002 0.33999,0.279999 0.72001,0.55899 0.36,0.281006 0.36,0.258995 0.72,0.561005 0.33999,0.278999 0.36,0.279999 0.36001,0.260002 0.72,0.561005 0.36,0.278992 0.33999,0.279998 0.36,0.260002 0.72001,0.561005 0.72,0.558998 0.36,0.259995 0.33999,0.281006 0.72,0.558998 0.36001,0.281006 0.36,0.258995 0.36,0.281005 0.36,0.278992 0.33999,0.279999 0.36,0.279999 0.36,0.261009 0.72001,0.55899 0.72,0.561005 0.33999,0.260002 0.36,0.279999 M 138.95801,31.01 l 0.36,0.279999 0.36,0.26 0.36,0.281002 0.34,0.279999 0.72,0.558998 0.36,0.260002 0.36,0.279999 0.36,0.281002 0.36,0.278999 0.34,0.279999 0.36,0.259999 1.08,0.841003 0.36,0.278999 0.36,0.259999 0.34,0.279998 0.72,0.561005 0.36,0.278996 0.36,0.260002 0.36,0.279998 0.36,0.279999 0.34,0.281006 0.36,0.278996 0.36,0.261001 0.36,0.279 0.36,0.281002 0.36,0.279998 0.34,0.279 0.36,0.261001 0.36,0.279 0.36,0.281002 0.72,0.558998 0.36,0.261001 0.34,0.279999 0.72,0.558998 0.36,0.281002 0.36,0.258999 0.72,0.561001 0.34,0.278999 0.36,0.279999 0.36,0.259998 0.72,0.561005 0.36,0.278996 0.36,0.280002 0.34,0.261002 0.36,0.278995 0.36,0.281006 0.72,0.558994 0.36,0.260003 0.36,0.279998 0.34,0.281002 0.72,0.558998 0.36,0.260003 0.36,0.279998 0.72,0.561005 0.34,0.278996 0.36,0.261001 0.36,0.278999 0.36,0.281003 0.72,0.558998 0.33999,0.261001 0.36001,0.278996 0.36,0.281006 0.36,0.278995 0.36,0.281002 0.36,0.258999 0.36,0.279999 0.33999,0.281002 0.36001,0.278999 0.72,0.561001 0.36,0.258999 0.36,0.281002 0.36,0.278995 0.33999,0.280003 0.36001,0.281002 0.36,0.258995 0.36,0.281006 0.72,0.558994 0.36,0.281006 0.33999,0.258995 0.36001,0.281006 0.72,0.558994 0.36,0.279999 0.36,0.260002 0.36,0.281002 M 103.618,3.6699998 l 0.34001,0.28 L 105.038,4.79 l 0.36,0.2599997 0.72,0.56 0.34001,0.2800002 0.36,0.2800002 0.35999,0.2599997 1.44,1.1199999 0.34101,0.2610006 0.359,0.2789999 1.07999,0.8399992 0.36,0.2600002 0.34001,0.2799997 1.08,0.8399997 0.35999,0.260001 0.72,0.56 0.34001,0.28 0.36,0.28 0.36,0.26 0.36,0.28 0.35999,0.279999 0.36,0.281001 0.36,0.279 0.34001,0.261 0.361,0.279 0.359,0.279999 0.71999,0.561001 0.36,0.259 0.36,0.281001 0.34001,0.278999 0.36,0.281001 0.36,0.279999 0.36,0.259 0.35999,0.281 0.36,0.279 0.36,0.281002 0.34001,0.279998 0.36,0.258999 0.36,0.280001 0.36,0.279999 0.35999,0.281002 0.36,0.278999 0.34001,0.261002 0.36,0.278997 0.361,0.280001 0.359,0.281 0.36,0.278999 0.36,0.280001 0.35999,0.26 0.34001,0.279999 0.36,0.281002 0.72,0.558998 0.36,0.261002 0.36,0.278999 0.35999,0.281 0.34001,0.279 0.36,0.28 0.36,0.259999 0.36,0.28 0.36,0.281002 0.72,0.558998 0.34,0.261002 0.36,0.278999 0.72,0.561001 0.36,0.278998 0.36,0.261003 0.36,0.278997 0.34,0.280001 0.36,0.281002 0.36,0.278998 0.36,0.261001 0.72,0.558998 0.36,0.281002 0.34,0.278998 0.36,0.261003 0.36,0.278998 0.36,0.281002 0.72,0.558998 0.34,0.26 0.36,0.279999 0.36,0.280001 0.36,0.28" /></g></g><g
             id="g164"><text
               id="text168"
               style="font-variant:normal;font-weight:normal;font-size:7.17300034px;font-family:CMR12;-inkscape-font-specification:CMR12;writing-mode:lr-tb;fill:#231f20;fill-opacity:1;fill-rule:nonzero;stroke:none"
               transform="matrix(1,0,0,-1,95.541008,1.8010001)"><tspan
                 id="tspan166"
                 y="0"
                 x="0">5</tspan></text>
<path
               id="path170"
               style="fill:none;stroke:#231f20;stroke-width:1;stroke-linecap:butt;stroke-linejoin:round;stroke-miterlimit:10;stroke-dasharray:3, 3, 3, 3, 3, 3;stroke-dashoffset:0;stroke-opacity:1"
               d="m 174.01801,87.671005 0.33999,0.279999 0.36,0.279999 0.36,0.279999 0.36,0.260002 0.36,0.279999 0.36,0.279998 0.34,0.280007 0.36,0.279998 0.36,0.258996 0.36,0.281005 0.36,0.278992 0.72,0.561005 0.34,0.260002 0.36,0.279999 0.72,0.559997 0.36,0.279999 0.36,0.260002 0.36,0.279999 0.34,0.279999 0.36,0.278999 0.36,0.281006 0.36,0.258995 0.36,0.281006 0.72,0.55899 0.34002,0.281006 0.35998,0.258995 0.72,0.561005 0.36,0.278992 0.36,0.281013 0.36,0.258987 0.34002,0.281006 0.35998,0.280007 0.36,0.278991 0.36,0.281006 0.36,0.260002 0.36,0.278992 0.36,0.281006 0.34002,0.278992 0.35998,0.281006 0.36,0.260002 0.36,0.279995 0.72,0.559 0.34002,0.28101 0.36,0.25898 0.35998,0.28102 0.36,0.28 0.72,0.55999 0.36,0.26001 0.34002,0.28 0.71998,0.55999 0.36,0.28 0.36,0.26 0.36,0.28 0.36,0.28 0.34002,0.28001 0.36,0.28 0.36,0.25999 0.71998,0.56001 0.36,0.27899 0.36,0.281 0.34002,0.259 0.36,0.281 M 138.658,60.351002 l 0.36001,0.278995 0.36,0.261006 0.36,0.278995 0.33999,0.281006 0.36,0.279999 0.36,0.278995 0.36,0.261006 0.36001,0.278995 0.72,0.561005 0.33999,0.278995 0.36,0.261006 0.72,0.558994 0.36001,0.281006 0.36,0.279999 0.36,0.260002 0.33999,0.279999 0.36,0.279998 0.72,0.558999 0.36001,0.261001 0.36,0.278992 0.36,0.281006 0.33999,0.278999 0.36,0.281006 0.36,0.258995 0.72001,0.561005 0.36,0.279998 0.33999,0.279999 0.36,0.258995 0.72,0.561005 0.72001,0.558998 0.36,0.259994 0.33999,0.281006 0.72,0.560005 0.36,0.278992 0.36,0.261002 0.36001,0.280006 0.36,0.279999 0.33999,0.279999 0.36,0.278991 0.36,0.26101 0.36,0.278991 0.72001,0.561005 0.36,0.279999 0.33999,0.260002 0.36,0.279999 0.36,0.280006 0.72,0.559998 0.36001,0.260002 0.36,0.279999 0.33999,0.279998 0.72,0.558991 0.36,0.261009 0.36,0.279999 0.72001,0.558998 0.33999,0.281006 0.36,0.259994 0.72,0.560005 0.36,0.278992 0.36001,0.281006 0.33999,0.258995 0.72,0.561005 0.36,0.278991 0.36,0.281006 0.36,0.260002 0.36001,0.279999 0.33999,0.279999 0.72,0.560005 0.36,0.279999 0.36,0.260002 0.36,0.279999 0.36001,0.279999 0.33999,0.278991 0.36,0.281006 0.36,0.258995 0.72,0.561005 0.36,0.279999 0.36001,0.280006 0.33999,0.258988 0.36,0.281005 0.72,0.560006 0.36,0.279998 0.36,0.258995 0.36001,0.281006 m -70.7,-54.660003 0.33999,0.279998 0.72001,0.560002 0.36,0.279999 0.36,0.260002 0.36,0.278995 0.36,0.281002 0.33999,0.280003 0.36001,0.279999 0.36,0.259998 0.36,0.278999 1.08,0.841004 0.33999,0.259998 0.72001,0.558998 0.36,0.281002 0.36,0.280003 0.361,0.259998 0.33899,0.279999 0.36,0.278999 0.72001,0.561001 0.36,0.260002 0.36,0.279999 0.36,0.279999 0.33999,0.280002 0.36,0.279999 0.36001,0.259998 0.72,0.560002 0.36,0.279999 0.36,0.280002 0.33999,0.259998 0.36,0.279999 0.36001,0.280003 0.72,0.559997 0.36,0.260003 0.361,0.279998 0.33899,0.280003 0.36,0.279999 0.36001,0.278995 0.36,0.261006 0.36,0.279998 0.36,0.279999 0.36,0.280003 0.33999,0.278995 0.36,0.261002 0.72001,0.560001 0.36,0.279999 0.36,0.280003 0.33999,0.259998 0.72,0.558998 0.36001,0.281002 0.72,0.558998 0.36,0.261002 0.33999,0.278995 0.72,0.561005 0.36001,0.279999 0.36,0.260002 0.36,0.278995 0.36,0.281006 0.33999,0.279999 0.36,0.279999 0.36,0.260002 0.36001,0.278995 0.36,0.281002 0.36,0.280003 0.36,0.279999 0.33999,0.259998 0.36,0.280003 0.36,0.279999 0.36001,0.279998 0.36,0.280003 0.36,0.259998 0.36,0.278996 0.33999,0.281006 0.36,0.278995 0.36,0.281002 0.36001,0.258999 0.72,0.561001 0.36,0.280002 0.33999,0.279999 0.36,0.260002 0.36,0.279999 0.36001,0.279999 0.72,0.558998 0.33999,0.261002 0.36,0.278995 0.36,0.281006 0.36,0.279999" /><path
               id="path172"
               style="fill:none;stroke:#231f20;stroke-width:1;stroke-linecap:butt;stroke-linejoin:round;stroke-miterlimit:10;stroke-dasharray:none;stroke-opacity:1"
               d="m 174.61801,72.991005 0.34,0.278992 0.72,0.561004 0.36,0.258995 0.36,0.281006 0.36,0.279 0.34,0.279998 0.36,0.281006 0.36,0.258995 0.36,0.281006 0.72,0.558991 0.36,0.279998 0.34,0.260002 0.72,0.561005 0.36,0.278992 0.36,0.281006 0.36,0.258995 0.36,0.279999 0.34,0.280006 0.36,0.279999 0.36,0.281006 0.36,0.258995 0.72,0.559997 0.36,0.279999 0.34,0.279999 0.36,0.260002 0.36,0.279999 0.72,0.560005 0.36,0.281006 0.36,0.258987 0.34,0.280007 0.72,0.559997 0.36,0.281006 0.36,0.260002 0.36,0.278992 0.36,0.281006 0.34,0.278991 0.36,0.281006 0.36,0.258995 0.36,0.281006 0.72,0.558998 0.34,0.279999 0.36,0.259995 0.36,0.280006 0.72,0.559997 0.36,0.279999 0.36,0.260002 0.34,0.279999 0.36,0.281006 0.36,0.278992 0.36,0.279999 0.36,0.260002 0.72,0.561004 0.34,0.279 0.36,0.279998 0.36,0.260003 0.36,0.279998 0.36,0.279999 0.36,0.279999 0.36,0.281006 0.34,0.258995 0.36,0.281006 m -60.34,-46.641007 0.36,0.280003 0.36,0.259998 0.36,0.279999 0.34,0.281006 0.72,0.558994 0.36,0.260002 0.36,0.279999 0.36,0.279999 0.36,0.280002 0.34,0.279999 0.36,0.259998 0.36,0.281006 0.36,0.278996 0.36,0.281002 0.36,0.278999 0.36,0.259998 0.34,0.279999 0.36,0.281006 0.72,0.558994 0.36,0.260003 0.36,0.279998 0.36,0.279999 0.34,0.280003 0.36,0.279998 0.36,0.260003 0.36,0.279998 0.72,0.561005 0.34,0.278996 0.36,0.259998 0.36,0.280002 0.72,0.561001 0.36,0.279 0.36,0.259998 0.34,0.279999 0.36,0.280002 0.36,0.279999 0.36,0.279999 0.36,0.260002 0.36,0.279999 0.36,0.281006 0.34,0.278995 0.36,0.279999 0.36,0.259998 0.36,0.280003 0.36,0.279999 0.36,0.279998 0.36,0.280003 0.34,0.259998 0.72,0.561005 0.36,0.278995 0.36,0.279999 0.36,0.260002 0.36,0.279999 0.34,0.281006 0.36,0.278996 0.36,0.279998 0.36,0.260002 0.72,0.561001 0.36,0.278996 0.34,0.280002 0.36,0.260003 0.36,0.279998 0.36,0.281006 0.72,0.558991 0.34,0.260002 0.36,0.279999 0.36,0.279998 0.36,0.279999 0.36,0.280007 0.36,0.261001 0.36,0.278992 0.34,0.281006 0.72,0.558998 0.36,0.281006 0.36,0.258995 0.36,0.281006 0.36,0.278991 0.34,0.279999 0.36,0.279999 0.36,0.260002 0.36,0.279999 0.36,0.280006 0.72,0.561005 0.34,0.258995 0.36,0.280998 0.36,0.278999 0.72,0.561005 0.36,0.258995 0.36,0.281006 m -70.7,-54.660004 0.33999,0.278998 0.36,0.28 0.72001,0.561001 0.36,0.258999 0.72,0.560001 0.33999,0.279999 0.36,0.281002 0.36,0.258999 0.36001,0.279999 0.36,0.280001 0.36,0.28 0.36,0.279999 0.33999,0.261002 0.72,0.558998 0.36001,0.281002 0.36,0.278999 0.36,0.261002 0.33999,0.278997 0.36,0.280001 0.36,0.279999 0.36,0.28 0.36001,0.260001 0.36,0.28 0.36,0.281 0.33999,0.280001 0.36,0.278997 0.36,0.261004 0.36,0.278997 0.72001,0.561003 0.36,0.278998 0.33999,0.261001 0.36,0.278998 0.72,0.561002 0.36001,0.278998 0.36,0.261003 0.36,0.278998 0.33999,0.279998 0.36,0.280001 0.36,0.280001 0.36,0.26 0.72001,0.559999 0.36,0.280001 0.33999,0.279999 0.36,0.260002 0.36,0.281002 0.36,0.278996 0.36001,0.281002 0.36,0.278999 0.34,0.259998 0.35999,0.281002 0.36,0.279 0.36,0.281002 0.72001,0.558998 0.36,0.259998 0.34,0.280003 0.35999,0.279999 0.36,0.279998 0.36,0.281002 0.36,0.258999 0.36001,0.279999 0.36,0.281002 0.34,0.278999 0.36,0.279999 0.36,0.260002 0.36,0.279999 0.36,0.281002 0.36,0.278999 0.36,0.279999 0.34,0.261002 0.36,0.278999 0.36,0.281002 0.72,0.558998 0.36,0.259999 0.36,0.279998 0.34,0.280003 0.72,0.559998 0.36,0.260002 0.36,0.279998 0.72,0.561005 0.34,0.278996 0.36,0.261001 0.36,0.279 0.72,0.561 0.36,0.279 0.34,0.261001 0.36,0.279 0.72,0.559997" /><path
               id="path174"
               style="fill:none;stroke:#231f20;stroke-width:1;stroke-linecap:butt;stroke-linejoin:round;stroke-miterlimit:10;stroke-dasharray:6, 6, 6, 6, 6, 6;stroke-dashoffset:0;stroke-opacity:1"
               d="m 174.31801,67.271004 0.33999,0.278991 0.36001,0.281006 0.36,0.279 0.36,0.261001 0.36,0.279999 0.36,0.278999 0.33999,0.281006 0.36,0.279999 0.36001,0.260002 0.36,0.279999 0.36,0.278992 0.72,0.561004 0.33999,0.258995 0.36,0.281006 0.72001,0.558998 0.36,0.281006 0.36,0.258995 0.36,0.279999 0.33999,0.279999 0.36,0.279998 0.36001,0.279999 0.36,0.260002 0.36,0.279999 0.36,0.279999 0.36,0.279999 0.33999,0.280006 0.36,0.259995 0.36001,0.281006 0.72,0.558998 0.36,0.281005 0.36,0.258996 0.33999,0.281005 0.72001,0.558991 0.36,0.281006 0.36,0.258995 0.36,0.281006 0.36,0.278991 0.33999,0.281006 0.36,0.279999 0.36001,0.258995 0.36,0.281006 0.36,0.278999 0.36,0.279999 0.33999,0.281006 0.36,0.258995 0.36,0.281006 0.36001,0.278991 0.72,0.561005 0.36,0.258995 0.33999,0.281006 0.72,0.558991 0.36001,0.280006 0.36,0.259994 0.36,0.281006 0.36,0.279 0.33999,0.279998 0.36,0.279999 0.36,0.260002 0.72001,0.561005 0.36,0.278992 0.36,0.281006 0.33999,0.258995 0.36,0.279998 m -60.33999,-46.639995 0.36,0.279999 0.36,0.261001 0.36,0.278999 0.34,0.281003 0.72,0.558998 0.36,0.261001 0.36,0.278996 0.36,0.281006 0.36,0.279998 0.34,0.278996 0.36,0.261005 0.36,0.278996 0.36,0.281002 0.36,0.278999 0.36,0.281002 0.36,0.258995 0.34,0.280003 0.36,0.281002 0.36,0.278995 0.36,0.280003 0.36,0.259998 0.36,0.279999 0.36,0.281006 0.34,0.278995 0.36,0.279999 0.36,0.261006 0.36,0.278995 0.36,0.281006 0.36,0.279999 0.34,0.278995 0.36,0.261006 0.36,0.278995 0.36,0.281002 0.72,0.558998 0.36,0.259999 0.34,0.280002 0.36,0.279999 0.36,0.281002 0.36,0.278999 0.36,0.261002 0.36,0.278996 0.36,0.280002 0.34,0.281002 0.36,0.278996 0.36,0.261005 0.36,0.278996 0.72,0.560001 0.36,0.279999 0.34,0.259998 0.36,0.280003 0.36,0.281002 0.72,0.558998 0.36,0.259998 0.36,0.279999 0.34,0.280003 0.72,0.559997 0.36,0.260002 0.36,0.281002 0.36,0.279 0.36,0.281002 0.34,0.278995 0.36,0.260002 0.72,0.561001 0.72,0.558998 0.33999,0.259999 0.72001,0.561004 0.72,0.558998 0.36,0.259999 0.36,0.279998 0.33999,0.280003 0.36001,0.281002 0.36,0.278996 0.36,0.280002 0.36,0.259998 0.72,0.561005 0.33999,0.278996 0.36001,0.279998 0.36,0.259999 0.36,0.280006 0.36,0.279999 0.36,0.279999 0.36,0.281006 0.33999,0.258995 0.36001,0.281005 0.72,0.558991 0.36,0.279999 0.36,0.260002 0.36,0.281006 M 103.618,12.61 l 0.34001,0.281001 0.36,0.278999 0.35999,0.281 0.36,0.279 0.36,0.261001 0.72,0.558998 0.34001,0.281001 0.36,0.279 0.35999,0.261 0.72,0.558999 0.72,0.561002 0.34101,0.26 0.359,0.279999 0.35999,0.278999 0.36,0.280001 0.36,0.281 0.36,0.258999 0.34001,0.281002 0.36,0.279 0.72,0.559999 0.35999,0.26 0.36,0.281 0.36,0.279 0.34001,0.281002 0.36,0.278997 0.36,0.261002 0.71999,0.558998 0.36,0.280001 0.36,0.28 0.34001,0.259999 0.361,0.28 0.359,0.281002 0.36,0.278998 0.35999,0.281002 0.36,0.26 0.36,0.278999 0.34001,0.279999 0.36,0.281002 0.36,0.278998 0.36,0.261003 0.35999,0.278997 0.72,0.561001 0.34001,0.279 0.36,0.261001 0.72,0.558998 0.71999,0.561003 0.34001,0.26 0.36,0.278998 0.361,0.279998 0.359,0.280001 0.36,0.281002 0.36,0.278998 0.35999,0.26 0.34001,0.280001 0.36,0.28 0.36,0.281002 0.36,0.278998 0.36,0.261001 0.36,0.278998 0.35999,0.281002 0.34001,0.278999 0.36,0.279999 0.36,0.261003 0.36,0.278996 0.36,0.280002 0.36,0.279999 0.36,0.281002 0.34,0.258999 0.72,0.561001 0.36,0.278999 0.36,0.279999 0.36,0.259998 0.36,0.280003 0.34,0.281002 0.36,0.278996 0.36,0.280002 0.36,0.259998 0.72,0.561005 0.36,0.278996 0.34,0.279998 0.36,0.260003 0.36,0.279998 0.36,0.281002 0.72,0.558998 0.34,0.260003 0.36,0.279998 0.36,0.279999 0.36,0.280003" /><path
               id="path176"
               style="fill:#ffffff;fill-opacity:1;fill-rule:nonzero;stroke:none"
               d="m 90.447006,3.99 h 3.401001" /><path
               id="path178"
               style="fill:none;stroke:#231f20;stroke-width:0.69999999;stroke-linecap:butt;stroke-linejoin:miter;stroke-miterlimit:4;stroke-dasharray:none;stroke-opacity:1"
               d="m 90.447006,3.99 h 3.401001" /><path
               id="path180"
               style="fill:#ffffff;fill-opacity:1;fill-rule:nonzero;stroke:none"
               d="m 68.731003,66.987 h 5.667" /><path
               id="path182"
               style="fill:none;stroke:#231f20;stroke-width:0.69999999;stroke-linecap:butt;stroke-linejoin:miter;stroke-miterlimit:4;stroke-dasharray:none;stroke-opacity:1"
               d="m 68.731003,66.987 h 5.667" /></g></g></g></g></g></svg>