<?xml version="1.0" encoding="UTF-8" standalone="no"?>
<svg
   xmlns:dc="http://purl.org/dc/elements/1.1/"
   xmlns:cc="http://creativecommons.org/ns#"
   xmlns:rdf="http://www.w3.org/1999/02/22-rdf-syntax-ns#"
   xmlns:svg="http://www.w3.org/2000/svg"
   xmlns="http://www.w3.org/2000/svg"
   viewBox="0 0 376.26132 136.20399"
   height="136.20399"
   width="376.26132"
   xml:space="preserve"
   id="svg2"
   version="1.1"><metadata
     id="metadata8"><rdf:RDF><cc:Work
         rdf:about=""><dc:format>image/svg+xml</dc:format><dc:type
           rdf:resource="http://purl.org/dc/dcmitype/StillImage" /></cc:Work></rdf:RDF></metadata><defs
     id="defs6"><clipPath
       id="clipPath18"
       clipPathUnits="userSpaceOnUse"><path
         id="path16"
         d="M 0,102.12 H 282.196 V 0 H 0 Z" /></clipPath></defs><g
     transform="matrix(1.3333333,0,0,-1.3333333,0,136.204)"
     id="g10"><g
       id="g12"><g
         clip-path="url(#clipPath18)"
         id="g14"><path
           id="path20"
           style="fill:none;stroke:#231f20;stroke-width:1;stroke-linecap:butt;stroke-linejoin:miter;stroke-miterlimit:4;stroke-dasharray:none;stroke-opacity:1"
           d="m 91.372,21.705 h 133.98 M 91.512,102.153 V 22.265 m 21,-0.56 v 5.6 m 20.65,-5.879 v 5.6 m 21,-5.6 v 5.6 m 20.859,-5.6 v 5.6 m 20.861,-5.461 v 5.6 m -98.7,60.2 h -5.6 m 5.6,-32.9 h -5.6 M 217.769,21.222 v 5.6 M 91.419,21.688 V 4.4216" /></g></g><path
       id="path22"
       style="fill:none;stroke:#231f20;stroke-width:1;stroke-linecap:butt;stroke-linejoin:round;stroke-miterlimit:10;stroke-dasharray:none;stroke-opacity:1"
       d="m 91.209,4.2819 c 13.727,10.6511 27.493,21.2561 41.229,31.8961 m 0,0 c 13.758,10.613 27.491,21.263 41.253,31.874 m 0,0 c 9.702,7.53 19.432,15.023 29.144,22.54" /><text
       id="text32"
       style="font-variant:normal;font-weight:normal;font-size:8.36849976px;font-family:CMR12;-inkscape-font-specification:CMR12;writing-mode:lr-tb;fill:#231f20;fill-opacity:1;fill-rule:nonzero;stroke:none"
       transform="matrix(1,0,0,-1,92.1313,12.8215)"><tspan
         id="tspan24"
         y="0"
         x="0">0</tspan><tspan
         id="tspan26"
         y="-41.30022"
         x="-11.741842 -7.6496458">10</tspan><tspan
         id="tspan28"
         y="-74.433624"
         x="-10.28656 -6.1943636">20</tspan><tspan
         id="tspan30"
         y="0.23348115"
         x="14.323524">0</tspan></text>
<text
       id="text36"
       style="font-style:italic;font-variant:normal;font-weight:normal;font-size:8.36849976px;font-family:CMMI12;-inkscape-font-specification:CMMI12;writing-mode:lr-tb;fill:#231f20;fill-opacity:1;fill-rule:nonzero;stroke:none"
       transform="matrix(1,0,0,-1,110.55204,12.588019)"><tspan
         id="tspan34"
         y="0"
         x="0">.</tspan></text>
<text
       id="text42"
       style="font-variant:normal;font-weight:normal;font-size:8.36849976px;font-family:CMR12;-inkscape-font-specification:CMR12;writing-mode:lr-tb;fill:#231f20;fill-opacity:1;fill-rule:nonzero;stroke:none"
       transform="matrix(1,0,0,-1,112.82827,12.588019)"><tspan
         id="tspan38"
         y="0"
         x="0">5</tspan><tspan
         id="tspan40"
         y="0.2326443"
         x="18.824104 35.549389">11</tspan></text>
<text
       id="text46"
       style="font-style:italic;font-variant:normal;font-weight:normal;font-size:8.36849976px;font-family:CMMI12;-inkscape-font-specification:CMMI12;writing-mode:lr-tb;fill:#231f20;fill-opacity:1;fill-rule:nonzero;stroke:none"
       transform="matrix(1,0,0,-1,152.47404,12.355375)"><tspan
         id="tspan44"
         y="0"
         x="0">.</tspan></text>
<text
       id="text50"
       style="font-variant:normal;font-weight:normal;font-size:8.36849976px;font-family:CMR12;-inkscape-font-specification:CMR12;writing-mode:lr-tb;fill:#231f20;fill-opacity:1;fill-rule:nonzero;stroke:none"
       transform="matrix(1,0,0,-1,154.75027,12.355375)"><tspan
         id="tspan48"
         y="0"
         x="0 18.592297 36.250668">522</tspan></text>
<text
       id="text54"
       style="font-style:italic;font-variant:normal;font-weight:normal;font-size:8.36849976px;font-family:CMMI12;-inkscape-font-specification:CMMI12;writing-mode:lr-tb;fill:#231f20;fill-opacity:1;fill-rule:nonzero;stroke:none"
       transform="matrix(1,0,0,-1,195.09732,12.355375)"><tspan
         id="tspan52"
         y="0"
         x="0">.</tspan></text>
<text
       id="text60"
       style="font-variant:normal;font-weight:normal;font-size:8.36849976px;font-family:CMR12;-inkscape-font-specification:CMR12;writing-mode:lr-tb;fill:#231f20;fill-opacity:1;fill-rule:nonzero;stroke:none"
       transform="matrix(1,0,0,-1,197.37356,12.355375)"><tspan
         id="tspan56"
         y="0"
         x="0">5</tspan><tspan
         id="tspan58"
         y="-0.2326443"
         x="19.057585">3</tspan></text>
<text
       id="text64"
       style="font-variant:normal;font-weight:normal;font-size:11.95499992px;font-family:CMR12;-inkscape-font-specification:CMR12;writing-mode:lr-tb;fill:#231f20;fill-opacity:1;fill-rule:nonzero;stroke:none"
       transform="matrix(1,0,0,-1,0,72.84)"><tspan
         id="tspan62"
         y="0"
         x="0 7.8006377 13.001062 16.240868 22.432362 27.632788 30.872593 35.114227 45.194683 49.737583 63.403343">Velocity(ms</tspan></text>
<text
       id="text68"
       style="font-variant:normal;font-weight:normal;font-size:7.96999979px;font-family:CMR8;-inkscape-font-specification:CMR8;writing-mode:lr-tb;fill:#231f20;fill-opacity:1;fill-rule:nonzero;stroke:none"
       transform="matrix(1,0,0,-1,74.6069,77.1779)"><tspan
         id="tspan66"
         y="0"
         x="0">1</tspan></text>
<text
       id="text74"
       style="font-variant:normal;font-weight:normal;font-size:11.95499992px;font-family:CMR12;-inkscape-font-specification:CMR12;writing-mode:lr-tb;fill:#231f20;fill-opacity:1;fill-rule:nonzero;stroke:none"
       transform="matrix(1,0,0,-1,79.3394,72.84)"><tspan
         id="tspan70"
         y="0"
         x="0">)</tspan><tspan
         id="tspan72"
         y="55.999611"
         x="158.59264 167.04483 170.28462 180.02795 189.1568 193.69969 198.31432">Time(s)</tspan></text>
<text
       id="text80"
       style="font-variant:normal;font-weight:normal;font-size:8.36849976px;font-family:CMR12;-inkscape-font-specification:CMR12;writing-mode:lr-tb;fill:#231f20;fill-opacity:1;fill-rule:nonzero;stroke:none"
       transform="matrix(1,0,0,-1,81.7871,21.2341)"><tspan
         id="tspan76"
         y="0"
         x="0">0</tspan><tspan
         id="tspan78"
         y="19.132902"
         x="-0.00083685003">5</tspan></text>
<path
       id="path82"
       style="fill:#ffffff;fill-opacity:1;fill-rule:nonzero;stroke:none"
       d="m 70.231,79.82 h 5.667" /><path
       id="path84"
       style="fill:none;stroke:#231f20;stroke-width:0.69999999;stroke-linecap:butt;stroke-linejoin:miter;stroke-miterlimit:4;stroke-dasharray:none;stroke-opacity:1"
       d="m 70.231,79.82 h 5.667" /><path
       id="path86"
       style="fill:#ffffff;fill-opacity:1;fill-rule:nonzero;stroke:none"
       d="M 76.193,4.6554 H 80.16" /><path
       id="path88"
       style="fill:none;stroke:#231f20;stroke-width:0.69999999;stroke-linecap:butt;stroke-linejoin:miter;stroke-miterlimit:4;stroke-dasharray:none;stroke-opacity:1"
       d="M 76.193,4.6554 H 80.16" /></g></svg>