<?xml version="1.0" encoding="UTF-8" standalone="no"?>
<svg
   xmlns:dc="http://purl.org/dc/elements/1.1/"
   xmlns:cc="http://creativecommons.org/ns#"
   xmlns:rdf="http://www.w3.org/1999/02/22-rdf-syntax-ns#"
   xmlns:svg="http://www.w3.org/2000/svg"
   xmlns="http://www.w3.org/2000/svg"
   viewBox="0 0 505.33334 169.33333"
   height="169.33333"
   width="505.33334"
   xml:space="preserve"
   id="svg2"
   version="1.1"><metadata
     id="metadata8"><rdf:RDF><cc:Work
         rdf:about=""><dc:format>image/svg+xml</dc:format><dc:type
           rdf:resource="http://purl.org/dc/dcmitype/StillImage" /></cc:Work></rdf:RDF></metadata><defs
     id="defs6"><clipPath
       id="clipPath24"
       clipPathUnits="userSpaceOnUse"><path
         id="path22"
         d="M 0,0 H 379 V 127 H 0 Z" /></clipPath><clipPath
       id="clipPath42"
       clipPathUnits="userSpaceOnUse"><path
         id="path40"
         d="M 0,0.06000519 H 378.41998 V 126.98401 H 0 Z" /></clipPath><clipPath
       id="clipPath64"
       clipPathUnits="userSpaceOnUse"><path
         id="path62"
         d="M 0,0.06000519 H 378.41998 V 126.98401 H 0 Z" /></clipPath><clipPath
       id="clipPath154"
       clipPathUnits="userSpaceOnUse"><path
         id="path152"
         d="M 0,0.06000519 H 378.41998 V 126.98401 H 0 Z" /></clipPath></defs><g
     transform="matrix(1.3333333,0,0,-1.3333333,0,169.33333)"
     id="g10"><g
       id="g12" /><g
       id="g14" /><g
       id="g16"><g
         id="g18"><g
           clip-path="url(#clipPath24)"
           id="g20"><g
             id="g26" /><g
             id="g28"><path
               id="path30"
               style="fill:none;stroke:#231f20;stroke-width:1;stroke-linecap:butt;stroke-linejoin:miter;stroke-miterlimit:4;stroke-dasharray:none;stroke-opacity:1"
               d="M 44.162003,21.594002 H 218.33601 M 44.332001,124.71201 V 21.558001 m 41.651001,-0.244 v 5.6 m 41.859998,-5.6 v 5.6 M 49.711002,87.079002 h -5.599998 m 6.223999,-32.485 H 44.735001 M 50.335003,120.161 H 44.735001 M 170.56,21.868002 v 5.601 m 40.863,-5.892 v 5.6 M 44.473003,22.277 211.30602,120.27701" /><text
               id="text34"
               style="font-variant:normal;font-weight:normal;font-size:11.95500088px;font-family:CMMI12;-inkscape-font-specification:CMMI12;writing-mode:lr-tb;fill:#231f20;fill-opacity:1;fill-rule:nonzero;stroke:none"
               transform="matrix(1,0,0,-1,99.333496,3.0020001)"><tspan
                 id="tspan32"
                 y="0"
                 x="0">t</tspan></text>
</g><g
             id="g36"><g
               clip-path="url(#clipPath42)"
               id="g38"><text
                 id="text46"
                 style="font-variant:normal;font-weight:normal;font-size:11.95500088px;font-family:CMR12;-inkscape-font-specification:CMR12;writing-mode:lr-tb;fill:#231f20;fill-opacity:1;fill-rule:nonzero;stroke:none"
                 transform="matrix(1,0,0,-1,107.46201,3.0020001)"><tspan
                   id="tspan44"
                   y="0"
                   x="0">(</tspan></text>
</g></g><g
             id="g48"><text
               id="text52"
               style="font-variant:normal;font-weight:normal;font-size:11.95500088px;font-family:CMR12;-inkscape-font-specification:CMR12;writing-mode:lr-tb;fill:#231f20;fill-opacity:1;fill-rule:nonzero;stroke:none"
               transform="matrix(1,0,0,-1,112.0049,3.0020001)"><tspan
                 id="tspan50"
                 y="0"
                 x="0 9.7433262 12.983131">min</tspan></text>
<text
               id="text56"
               style="font-variant:normal;font-weight:normal;font-size:11.95500088px;font-family:CMR12;-inkscape-font-specification:CMR12;writing-mode:lr-tb;fill:#231f20;fill-opacity:1;fill-rule:nonzero;stroke:none"
               transform="matrix(1,0,0,-1,131.19984,3.0020001)"><tspan
                 id="tspan54"
                 y="0"
                 x="0 6.4915657 11.034466 16.234892">utes</tspan></text>
</g><g
             id="g58"><g
               clip-path="url(#clipPath64)"
               id="g60"><text
                 id="text68"
                 style="font-variant:normal;font-weight:normal;font-size:11.95500088px;font-family:CMR12;-inkscape-font-specification:CMR12;writing-mode:lr-tb;fill:#231f20;fill-opacity:1;fill-rule:nonzero;stroke:none"
                 transform="matrix(1,0,0,-1,152.04939,3.0020001)"><tspan
                   id="tspan66"
                   y="0"
                   x="0">)</tspan></text>
</g></g><g
             id="g70"><text
               id="text74"
               style="font-variant:normal;font-weight:normal;font-size:8.36849976px;font-family:CMR12;-inkscape-font-specification:CMR12;writing-mode:lr-tb;fill:#231f20;fill-opacity:1;fill-rule:nonzero;stroke:none"
               transform="matrix(1,0,0,-1,35.848598,21.289999)"><tspan
                 id="tspan72"
                 y="0"
                 x="0">0</tspan></text>
<text
               id="text78"
               style="font-variant:normal;font-weight:normal;font-size:8.36849976px;font-family:CMR12;-inkscape-font-specification:CMR12;writing-mode:lr-tb;fill:#231f20;fill-opacity:1;fill-rule:nonzero;stroke:none"
               transform="matrix(1,0,0,-1,29.706957,52.322906)"><tspan
                 id="tspan76"
                 y="0"
                 x="0">0</tspan></text>
<text
               id="text82"
               style="font-variant:normal;font-weight:normal;font-size:8.36849976px;font-family:CMMI12;-inkscape-font-specification:CMMI12;writing-mode:lr-tb;fill:#231f20;fill-opacity:1;fill-rule:nonzero;stroke:none"
               transform="matrix(1,0,0,-1,33.803337,52.322906)"><tspan
                 id="tspan80"
                 y="0"
                 x="0">.</tspan></text>
<text
               id="text86"
               style="font-variant:normal;font-weight:normal;font-size:8.36849976px;font-family:CMR12;-inkscape-font-specification:CMR12;writing-mode:lr-tb;fill:#231f20;fill-opacity:1;fill-rule:nonzero;stroke:none"
               transform="matrix(1,0,0,-1,36.079571,52.322906)"><tspan
                 id="tspan84"
                 y="0"
                 x="0">5</tspan></text>
<text
               id="text90"
               style="font-variant:normal;font-weight:normal;font-size:8.36849976px;font-family:CMR12;-inkscape-font-specification:CMR12;writing-mode:lr-tb;fill:#231f20;fill-opacity:1;fill-rule:nonzero;stroke:none"
               transform="matrix(1,0,0,-1,35.537292,85.923271)"><tspan
                 id="tspan88"
                 y="0"
                 x="0">1</tspan></text>
<text
               id="text94"
               style="font-variant:normal;font-weight:normal;font-size:8.36849976px;font-family:CMR12;-inkscape-font-specification:CMR12;writing-mode:lr-tb;fill:#231f20;fill-opacity:1;fill-rule:nonzero;stroke:none"
               transform="matrix(1,0,0,-1,30.096094,118.82236)"><tspan
                 id="tspan92"
                 y="0"
                 x="0">1</tspan></text>
<text
               id="text98"
               style="font-variant:normal;font-weight:normal;font-size:8.36849976px;font-family:CMMI12;-inkscape-font-specification:CMMI12;writing-mode:lr-tb;fill:#231f20;fill-opacity:1;fill-rule:nonzero;stroke:none"
               transform="matrix(1,0,0,-1,34.192474,118.82236)"><tspan
                 id="tspan96"
                 y="0"
                 x="0">.</tspan></text>
<text
               id="text102"
               style="font-variant:normal;font-weight:normal;font-size:8.36849976px;font-family:CMR12;-inkscape-font-specification:CMR12;writing-mode:lr-tb;fill:#231f20;fill-opacity:1;fill-rule:nonzero;stroke:none"
               transform="matrix(1,0,0,-1,36.467869,118.82236)"><tspan
                 id="tspan100"
                 y="0"
                 x="0">5</tspan></text>
<text
               id="text106"
               style="font-variant:normal;font-weight:normal;font-size:8.36849976px;font-family:CMR12;-inkscape-font-specification:CMR12;writing-mode:lr-tb;fill:#231f20;fill-opacity:1;fill-rule:nonzero;stroke:none"
               transform="matrix(1,0,0,-1,42.458878,13.122346)"><tspan
                 id="tspan104"
                 y="0"
                 x="0">0</tspan></text>
<text
               id="text110"
               style="font-variant:normal;font-weight:normal;font-size:8.36849976px;font-family:CMR12;-inkscape-font-specification:CMR12;writing-mode:lr-tb;fill:#231f20;fill-opacity:1;fill-rule:nonzero;stroke:none"
               transform="matrix(1,0,0,-1,84.850349,13.356664)"><tspan
                 id="tspan108"
                 y="0"
                 x="0">5</tspan></text>
<text
               id="text114"
               style="font-variant:normal;font-weight:normal;font-size:8.36849976px;font-family:CMR12;-inkscape-font-specification:CMR12;writing-mode:lr-tb;fill:#231f20;fill-opacity:1;fill-rule:nonzero;stroke:none"
               transform="matrix(1,0,0,-1,123.97559,13.122346)"><tspan
                 id="tspan112"
                 y="0"
                 x="0 4.0921965">10</tspan></text>
<text
               id="text118"
               style="font-variant:normal;font-weight:normal;font-size:8.36849976px;font-family:CMR12;-inkscape-font-specification:CMR12;writing-mode:lr-tb;fill:#231f20;fill-opacity:1;fill-rule:nonzero;stroke:none"
               transform="matrix(1,0,0,-1,166.49678,13.356664)"><tspan
                 id="tspan116"
                 y="0"
                 x="0 4.0921965">15</tspan></text>
<text
               id="text122"
               style="font-variant:normal;font-weight:normal;font-size:8.36849976px;font-family:CMR12;-inkscape-font-specification:CMR12;writing-mode:lr-tb;fill:#231f20;fill-opacity:1;fill-rule:nonzero;stroke:none"
               transform="matrix(1,0,0,-1,208.08571,13.122346)"><tspan
                 id="tspan120"
                 y="0"
                 x="0 4.0921965">20</tspan></text>
<text
               id="text126"
               style="font-variant:normal;font-weight:normal;font-size:11.95500088px;font-family:CMMI12;-inkscape-font-specification:CMMI12;writing-mode:lr-tb;fill:#231f20;fill-opacity:1;fill-rule:nonzero;stroke:none"
               transform="matrix(1,0,0,-1,0,98.1847)"><tspan
                 id="tspan124"
                 y="0"
                 x="0 6.7306657">h </tspan></text>
<text
               id="text130"
               style="font-variant:normal;font-weight:normal;font-size:11.95500088px;font-family:CMR12;-inkscape-font-specification:CMR12;writing-mode:lr-tb;fill:#231f20;fill-opacity:1;fill-rule:nonzero;stroke:none"
               transform="matrix(1,0,0,-1,10.711681,98.1847)"><tspan
                 id="tspan128"
                 y="0"
                 x="0 4.5429006 9.7433262">(cm</tspan></text>
<text
               id="text134"
               style="font-variant:normal;font-weight:normal;font-size:9.56400013px;font-family:CMMI12;-inkscape-font-specification:CMMI12;writing-mode:lr-tb;fill:#231f20;fill-opacity:1;fill-rule:nonzero;stroke:none"
               transform="matrix(1,0,0,-1,355.03302,27.375599)"><tspan
                 id="tspan132"
                 y="0"
                 x="0">h</tspan></text>
<text
               id="text138"
               style="font-variant:normal;font-weight:normal;font-size:9.56400013px;font-family:CMR12;-inkscape-font-specification:CMR12;writing-mode:lr-tb;fill:#231f20;fill-opacity:1;fill-rule:nonzero;stroke:none"
               transform="matrix(1,0,0,-1,363.08017,27.375599)"><tspan
                 id="tspan136"
                 y="0"
                 x="0">=</tspan></text>
<text
               id="text142"
               style="font-variant:normal;font-weight:normal;font-size:9.56400013px;font-family:CMR12;-inkscape-font-specification:CMR12;writing-mode:lr-tb;fill:#231f20;fill-opacity:1;fill-rule:nonzero;stroke:none"
               transform="matrix(1,0,0,-1,373.02002,27.375599)"><tspan
                 id="tspan140"
                 y="0"
                 x="0">0</tspan></text>
<text
               id="text146"
               style="font-variant:normal;font-weight:normal;font-size:11.95500088px;font-family:CMR12;-inkscape-font-specification:CMR12;writing-mode:lr-tb;fill:#231f20;fill-opacity:1;fill-rule:nonzero;stroke:none"
               transform="matrix(1,0,0,-1,30.7729,98.259895)"><tspan
                 id="tspan144"
                 y="0"
                 x="0">)</tspan></text>
</g><g
             id="g148"><g
               clip-path="url(#clipPath154)"
               id="g150"><path
                 id="path156"
                 style="fill:none;stroke:#231f20;stroke-width:1;stroke-linecap:butt;stroke-linejoin:miter;stroke-miterlimit:4;stroke-dasharray:none;stroke-opacity:1"
                 d="m 313.06302,117.244 c 0,-5.10299 -13.414,-9.23999 -29.95999,-9.23999 -16.54703,0 -29.96002,4.137 -29.96002,9.23999 0,5.10301 13.41299,9.24001 29.96002,9.24001 16.54599,0 29.95999,-4.137 29.95999,-9.24001 z" /></g></g><g
             id="g158"><path
               id="path160"
               style="fill:none;stroke:#231f20;stroke-width:1;stroke-linecap:butt;stroke-linejoin:miter;stroke-miterlimit:4;stroke-dasharray:3, 3, 3, 3, 3, 3;stroke-dashoffset:0;stroke-opacity:1"
               d="m 312.87601,76.271004 c 0,-5.104004 -13.413,-9.239998 -29.95999,-9.239998 -16.54602,0 -29.96001,4.135994 -29.96001,9.239998 0,5.102997 13.41399,9.238991 29.96001,9.238991 16.54699,0 29.95999,-4.135994 29.95999,-9.238991 z" /><path
               id="path162"
               style="fill:none;stroke:#231f20;stroke-width:1;stroke-linecap:butt;stroke-linejoin:miter;stroke-miterlimit:4;stroke-dasharray:none;stroke-opacity:1"
               d="M 252.76999,117.71101 V 29.791002 M 313.15601,117.244 V 29.324001 m -0.28,0.468001 c 0,-5.104 -13.413,-9.241001 -29.95999,-9.241001 -16.54602,0 -29.959,4.137001 -29.959,9.241001" /><path
               id="path164"
               style="fill:#231f20;fill-opacity:1;fill-rule:nonzero;stroke:none"
               d="M 317.54303,70.995003 V 34.694" /><path
               id="path166"
               style="fill:#231f20;fill-opacity:1;fill-rule:nonzero;stroke:none"
               d="m 317.54303,35.144001 1.19098,0.966 0.027,-0.055 -0.77103,-2.59 C 317.841,32.563 317.69202,31.66 317.54303,30.757002 317.39401,31.66 317.24503,32.563 317.09601,33.465 l -0.771,2.59 0.02,0.055 1.19803,-0.966" /><path
               id="path168"
               style="fill:#231f20;fill-opacity:1;fill-rule:nonzero;stroke:none"
               d="m 317.54303,70.545006 -1.19101,-0.966004 -0.027,0.054 0.771,2.590004 c 0.14902,0.903 0.298,1.804993 0.44702,2.707993 0.14899,-0.903 0.29797,-1.804993 0.44696,-2.707993 l 0.77103,-2.590004 -0.02,-0.054 -1.198,0.966004" /><path
               id="path170"
               style="fill:#ffffff;fill-opacity:1;fill-rule:nonzero;stroke:none"
               d="m 368.28702,55.576004 h 10.133 V 41.177002 h -10.133 z" /><text
               id="text174"
               style="font-variant:normal;font-weight:normal;font-size:9.56400013px;font-family:CMMI12;-inkscape-font-specification:CMMI12;writing-mode:lr-tb;fill:#231f20;fill-opacity:1;fill-rule:nonzero;stroke:none"
               transform="matrix(1,0,0,-1,319.32501,51.984001)"><tspan
                 id="tspan172"
                 y="0"
                 x="0">h</tspan></text>
<path
               id="path176"
               style="fill:none;stroke:#231f20;stroke-width:0.69999999;stroke-linecap:butt;stroke-linejoin:miter;stroke-miterlimit:4;stroke-dasharray:none;stroke-opacity:1"
               d="M 315.13901,29.744001 H 346.173" /></g></g></g></g></g></svg>