<?xml version="1.0" encoding="UTF-8" standalone="no"?>
<svg
   xmlns:dc="http://purl.org/dc/elements/1.1/"
   xmlns:cc="http://creativecommons.org/ns#"
   xmlns:rdf="http://www.w3.org/1999/02/22-rdf-syntax-ns#"
   xmlns:svg="http://www.w3.org/2000/svg"
   xmlns="http://www.w3.org/2000/svg"
   viewBox="0 0 377.33334 161.33333"
   height="161.33333"
   width="377.33334"
   xml:space="preserve"
   id="svg2"
   version="1.1"><metadata
     id="metadata8"><rdf:RDF><cc:Work
         rdf:about=""><dc:format>image/svg+xml</dc:format><dc:type
           rdf:resource="http://purl.org/dc/dcmitype/StillImage" /></cc:Work></rdf:RDF></metadata><defs
     id="defs6"><clipPath
       id="clipPath24"
       clipPathUnits="userSpaceOnUse"><path
         id="path22"
         d="M 0,0 H 283 V 121 H 0 Z" /></clipPath><clipPath
       id="clipPath38"
       clipPathUnits="userSpaceOnUse"><path
         id="path36"
         d="M 0,0.05999756 H 282.86301 V 120.63401 H 0 Z" /></clipPath></defs><g
     transform="matrix(1.3333333,0,0,-1.3333333,0,161.33333)"
     id="g10"><g
       id="g12" /><g
       id="g14" /><g
       id="g16"><g
         id="g18"><g
           clip-path="url(#clipPath24)"
           id="g20"><g
             id="g26" /><g
             id="g28"><path
               id="path30"
               style="fill:none;stroke:#231f20;stroke-width:1;stroke-linecap:butt;stroke-linejoin:round;stroke-miterlimit:10;stroke-dasharray:none;stroke-opacity:1"
               d="m 176.50801,92.402008 0.396,0.325996 0.421,0.325997 0.42,0.327003 0.42,0.303002 0.419,0.326996 0.42,0.327003 0.39699,0.325996 0.42001,0.327004 0.42,0.303001 0.42099,0.326996 0.41901,0.326004 0.42,0.326996 0.42,0.327004 0.397,0.304 0.83999,0.653 0.42,0.325997 0.42002,0.327003 0.41999,0.303002 0.42,0.326995 0.39701,0.327004 0.41899,0.325996 0.421,0.327004 0.42,0.303003 0.42,0.32699 0.419,0.32701 0.42,0.32699 0.39701,0.32601 0.41999,0.304 0.42,0.32699 0.42099,0.32601 0.41901,0.32599 0.42,0.32701 0.42,0.30299 0.397,0.32701 0.83999,0.653 0.42,0.328 0.42002,0.30199 0.41999,0.32701 0.42,0.32699 0.39701,0.32601 0.41899,0.32699 0.421,0.303 0.42,0.32701 0.42,0.32699 0.419,0.32601 0.39699,0.32699 0.42002,0.303 0.41999,0.32701 0.42,0.32599 0.42099,0.32801 0.41901,0.32599 0.42,0.303 0.397,0.32801 0.42,0.32599 0.83999,0.653 0.42,0.303 0.42002,0.32701 0.41999,0.32699 0.396,0.32601 0.42101,0.32699 0.41899,0.30301 0.421,0.327 0.84,0.654 0.419,0.32699 0.39699,0.30201 0.42002,0.328 M 135.255,60.528004 l 0.41901,0.326999 0.42099,0.303002 0.42,0.326999 0.397,0.327 0.41901,0.326 0.42,0.326001 0.42,0.303997 0.41999,0.326 0.42,0.326999 0.42,0.327004 0.397,0.326 0.42,0.304001 0.42,0.325996 0.42001,0.327004 0.42,0.326996 0.42,0.326004 0.42,0.304001 0.397,0.325996 0.42,0.327003 0.41899,0.326996 0.421,0.326004 0.41901,0.303994 0.42099,0.326004 0.42,0.326995 0.397,0.326004 0.41901,0.328003 0.42,0.302994 0.42,0.326004 0.41999,0.327996 0.42,0.326004 0.397,0.325996 0.42,0.303001 0.42,0.327004 0.42001,0.326996 0.42,0.327003 0.42,0.325997 0.42,0.304 0.397,0.326004 0.42,0.326996 0.42,0.327004 0.41899,0.325996 0.421,0.304001 0.41901,0.326004 0.42099,0.327995 0.39601,0.326004 0.42099,0.325997 0.41901,0.304001 0.42,0.326004 0.42,0.326996 0.83999,0.652999 0.397,0.304001 0.42,0.326004 0.42,0.326996 0.42001,0.327004 0.42,0.325996 0.42,0.304001 0.42,0.327003 0.397,0.325997 0.42,0.327003 0.42,0.325997 0.419,0.304 0.84,0.653 0.42,0.326996 0.397,0.326004 0.42099,0.304001 0.41901,0.325996 0.42,0.327004 0.42,0.326996 0.41999,0.326004 0.39701,0.303001 0.41999,0.326996 0.42,0.327004 0.42,0.326995 0.42001,0.326004 0.42,0.304001 0.42,0.325997 0.396,0.327003 0.421,0.326996 0.42,0.326004 0.42,0.327995 0.419,0.302002 0.42,0.327004 0.42,0.326996 0.397,0.326004 0.42,0.326996 0.42099,0.304 0.41901,0.326004 0.42,0.326996 0.42,0.326004 0.41999,0.326996 0.39701,0.303002 0.41999,0.327003 1.26001,0.979996 0.42,0.303001 0.42,0.328003 m -82.483008,-63.771007 0.396003,0.327001 0.419998,0.326 0.419999,0.327999 0.420005,0.326001 0.419999,0.302999 0.419998,0.327 0.419998,0.326 0.397003,0.327 0.418999,0.327001 0.420997,0.303 0.420006,0.326999 0.419998,0.326001 0.419999,0.326999 0.419998,0.327 0.396998,0.303001 0.419,0.327 0.421,0.326 0.42001,0.327999 0.42,0.326001 0.41999,0.303001 0.39601,0.327 0.42,0.326 0.41999,0.327 0.42,0.326999 0.42001,0.303002 0.42,0.326999 0.41999,0.326 0.39701,0.327 0.42,0.326 0.41999,0.303997 1.68,1.307003 0.39601,0.303997 0.42099,0.326001 0.419,0.326 0.42101,0.327 0.42,0.326999 0.42,0.303002 0.41999,0.326999 0.39601,0.326 0.42,0.327 0.41999,0.327 0.42,0.303001 0.42001,0.326 0.42,0.327 0.41999,0.327 0.39701,0.326999 0.42,0.303002 0.41999,0.326999 0.42001,0.326001 0.42,0.326999 0.42,0.327 0.397,0.303001 0.419,0.327 0.42099,0.326 0.419,0.327 0.42101,0.327 0.42,0.326 0.42,0.304001 0.396,0.326999 0.42,0.326001 0.42,0.326999 0.41999,0.326 0.42001,0.303997 0.42,0.326001 0.42,0.327003 0.397,0.327 0.42,0.327 0.42,0.302997 0.41999,0.326 0.42001,0.328003 0.42,0.325997 0.42,0.326 0.397,0.304001 0.419,0.326 0.42099,0.327 0.419,0.326999 0.42101,0.326 0.42,0.304001 0.42,0.326001 0.396,0.326999 0.42,0.326 0.42,0.327 0.41999,0.303001 0.42,0.328 0.84001,0.652999 0.39699,0.326001 0.42,0.304001 1.68001,1.305999 0.397,0.304001 0.42,0.326 0.41899,0.327 0.421,0.327" /></g><g
             id="g32"><g
               clip-path="url(#clipPath38)"
               id="g34"><path
                 id="path40"
                 style="fill:none;stroke:#231f20;stroke-width:1;stroke-linecap:butt;stroke-linejoin:miter;stroke-miterlimit:4;stroke-dasharray:none;stroke-opacity:1"
                 d="M 93.604004,11.451 H 227.58401 M 93.744003,120.634 V 12.009999 M 114.745,11.451 v 5.600001 M 135.39401,11.171 v 5.6 m 21,-5.6 v 5.6 m 20.86,-5.6 v 5.6 m 20.861,-5.459999 v 5.6 M 99.414001,77.112007 h -5.598999 m 5.598999,-32.901005 h -5.598999" /></g></g><g
             id="g42"><text
               id="text46"
               style="font-variant:normal;font-weight:normal;font-size:8.36849976px;font-family:CMR12;-inkscape-font-specification:CMR12;writing-mode:lr-tb;fill:#231f20;fill-opacity:1;fill-rule:nonzero;stroke:none"
               transform="matrix(1,0,0,-1,92.263695,2.335)"><tspan
                 id="tspan44"
                 y="0"
                 x="0">0</tspan></text>
<text
               id="text50"
               style="font-variant:normal;font-weight:normal;font-size:8.36849976px;font-family:CMR12;-inkscape-font-specification:CMR12;writing-mode:lr-tb;fill:#231f20;fill-opacity:1;fill-rule:nonzero;stroke:none"
               transform="matrix(1,0,0,-1,82.622345,43.867867)"><tspan
                 id="tspan48"
                 y="0"
                 x="0 4.0921965">10</tspan></text>
<text
               id="text54"
               style="font-variant:normal;font-weight:normal;font-size:8.36849976px;font-family:CMR12;-inkscape-font-specification:CMR12;writing-mode:lr-tb;fill:#231f20;fill-opacity:1;fill-rule:nonzero;stroke:none"
               transform="matrix(1,0,0,-1,84.077629,77.001266)"><tspan
                 id="tspan52"
                 y="0"
                 x="0 4.0921965">20</tspan></text>
<text
               id="text58"
               style="font-variant:normal;font-weight:normal;font-size:8.36849976px;font-family:CMR12;-inkscape-font-specification:CMR12;writing-mode:lr-tb;fill:#231f20;fill-opacity:1;fill-rule:nonzero;stroke:none"
               transform="matrix(1,0,0,-1,84.365509,108.96809)"><tspan
                 id="tspan56"
                 y="0"
                 x="0 4.0921965">30</tspan></text>
<text
               id="text62"
               style="font-variant:normal;font-weight:normal;font-size:8.36849976px;font-family:CMR12;-inkscape-font-specification:CMR12;writing-mode:lr-tb;fill:#231f20;fill-opacity:1;fill-rule:nonzero;stroke:none"
               transform="matrix(1,0,0,-1,108.68771,2.3341591)"><tspan
                 id="tspan60"
                 y="0"
                 x="0">0</tspan></text>
<text
               id="text66"
               style="font-variant:normal;font-weight:normal;font-size:8.36849976px;font-family:CMMI12;-inkscape-font-specification:CMMI12;writing-mode:lr-tb;fill:#231f20;fill-opacity:1;fill-rule:nonzero;stroke:none"
               transform="matrix(1,0,0,-1,112.78493,2.3341591)"><tspan
                 id="tspan64"
                 y="0"
                 x="0">.</tspan></text>
<text
               id="text70"
               style="font-variant:normal;font-weight:normal;font-size:8.36849976px;font-family:CMR12;-inkscape-font-specification:CMR12;writing-mode:lr-tb;fill:#231f20;fill-opacity:1;fill-rule:nonzero;stroke:none"
               transform="matrix(1,0,0,-1,115.062,2.3341591)"><tspan
                 id="tspan68"
                 y="0"
                 x="0">5</tspan></text>
<text
               id="text74"
               style="font-variant:normal;font-weight:normal;font-size:8.36849976px;font-family:CMR12;-inkscape-font-specification:CMR12;writing-mode:lr-tb;fill:#231f20;fill-opacity:1;fill-rule:nonzero;stroke:none"
               transform="matrix(1,0,0,-1,133.88609,2.1015148)"><tspan
                 id="tspan72"
                 y="0"
                 x="0">1</tspan></text>
<text
               id="text78"
               style="font-variant:normal;font-weight:normal;font-size:8.36849976px;font-family:CMR12;-inkscape-font-specification:CMR12;writing-mode:lr-tb;fill:#231f20;fill-opacity:1;fill-rule:nonzero;stroke:none"
               transform="matrix(1,0,0,-1,150.60971,2.1015148)"><tspan
                 id="tspan76"
                 y="0"
                 x="0">1</tspan></text>
<text
               id="text82"
               style="font-variant:normal;font-weight:normal;font-size:8.36849976px;font-family:CMMI12;-inkscape-font-specification:CMMI12;writing-mode:lr-tb;fill:#231f20;fill-opacity:1;fill-rule:nonzero;stroke:none"
               transform="matrix(1,0,0,-1,154.70692,2.1015148)"><tspan
                 id="tspan80"
                 y="0"
                 x="0">.</tspan></text>
<text
               id="text86"
               style="font-variant:normal;font-weight:normal;font-size:8.36849976px;font-family:CMR12;-inkscape-font-specification:CMR12;writing-mode:lr-tb;fill:#231f20;fill-opacity:1;fill-rule:nonzero;stroke:none"
               transform="matrix(1,0,0,-1,156.98315,2.1015148)"><tspan
                 id="tspan84"
                 y="0"
                 x="0">5</tspan></text>
<text
               id="text90"
               style="font-variant:normal;font-weight:normal;font-size:8.36849976px;font-family:CMR12;-inkscape-font-specification:CMR12;writing-mode:lr-tb;fill:#231f20;fill-opacity:1;fill-rule:nonzero;stroke:none"
               transform="matrix(1,0,0,-1,175.57545,2.1015148)"><tspan
                 id="tspan88"
                 y="0"
                 x="0">2</tspan></text>
<text
               id="text94"
               style="font-variant:normal;font-weight:normal;font-size:8.36849976px;font-family:CMR12;-inkscape-font-specification:CMR12;writing-mode:lr-tb;fill:#231f20;fill-opacity:1;fill-rule:nonzero;stroke:none"
               transform="matrix(1,0,0,-1,193.23383,2.1015148)"><tspan
                 id="tspan92"
                 y="0"
                 x="0">2</tspan></text>
<text
               id="text98"
               style="font-variant:normal;font-weight:normal;font-size:8.36849976px;font-family:CMMI12;-inkscape-font-specification:CMMI12;writing-mode:lr-tb;fill:#231f20;fill-opacity:1;fill-rule:nonzero;stroke:none"
               transform="matrix(1,0,0,-1,197.3302,2.1015148)"><tspan
                 id="tspan96"
                 y="0"
                 x="0">.</tspan></text>
<text
               id="text102"
               style="font-variant:normal;font-weight:normal;font-size:8.36849976px;font-family:CMR12;-inkscape-font-specification:CMR12;writing-mode:lr-tb;fill:#231f20;fill-opacity:1;fill-rule:nonzero;stroke:none"
               transform="matrix(1,0,0,-1,199.60643,2.1015148)"><tspan
                 id="tspan100"
                 y="0"
                 x="0">5</tspan></text>
<text
               id="text106"
               style="font-variant:normal;font-weight:normal;font-size:8.36849976px;font-family:CMR12;-inkscape-font-specification:CMR12;writing-mode:lr-tb;fill:#231f20;fill-opacity:1;fill-rule:nonzero;stroke:none"
               transform="matrix(1,0,0,-1,218.66402,2.3341591)"><tspan
                 id="tspan104"
                 y="0"
                 x="0">3</tspan></text>
<text
               id="text110"
               style="font-variant:normal;font-weight:normal;font-size:11.95500088px;font-family:CMR12;-inkscape-font-specification:CMR12;writing-mode:lr-tb;fill:#231f20;fill-opacity:1;fill-rule:nonzero;stroke:none"
               transform="matrix(1,0,0,-1,0,85.722397)"><tspan
                 id="tspan108"
                 y="0"
                 x="0">V</tspan></text>
<text
               id="text114"
               style="font-variant:normal;font-weight:normal;font-size:11.95500088px;font-family:CMR12;-inkscape-font-specification:CMR12;writing-mode:lr-tb;fill:#231f20;fill-opacity:1;fill-rule:nonzero;stroke:none"
               transform="matrix(1,0,0,-1,7.8006382,85.722397)"><tspan
                 id="tspan112"
                 y="0"
                 x="0 5.2004256 8.4402304">elo</tspan></text>
<text
               id="text118"
               style="font-variant:normal;font-weight:normal;font-size:11.95500088px;font-family:CMR12;-inkscape-font-specification:CMR12;writing-mode:lr-tb;fill:#231f20;fill-opacity:1;fill-rule:nonzero;stroke:none"
               transform="matrix(1,0,0,-1,22.432364,85.722397)"><tspan
                 id="tspan116"
                 y="0"
                 x="0 5.2004256 8.4402304">cit</tspan></text>
<text
               id="text122"
               style="font-variant:normal;font-weight:normal;font-size:11.95500088px;font-family:CMR12;-inkscape-font-specification:CMR12;writing-mode:lr-tb;fill:#231f20;fill-opacity:1;fill-rule:nonzero;stroke:none"
               transform="matrix(1,0,0,-1,35.114231,85.722397)"><tspan
                 id="tspan120"
                 y="0"
                 x="0">y</tspan></text>
<text
               id="text126"
               style="font-variant:normal;font-weight:normal;font-size:11.95500088px;font-family:CMR12;-inkscape-font-specification:CMR12;writing-mode:lr-tb;fill:#231f20;fill-opacity:1;fill-rule:nonzero;stroke:none"
               transform="matrix(1,0,0,-1,45.194691,85.722397)"><tspan
                 id="tspan124"
                 y="0"
                 x="0">(</tspan></text>
<text
               id="text130"
               style="font-variant:normal;font-weight:normal;font-size:11.95500088px;font-family:CMR12;-inkscape-font-specification:CMR12;writing-mode:lr-tb;fill:#231f20;fill-opacity:1;fill-rule:nonzero;stroke:none"
               transform="matrix(1,0,0,-1,49.737591,85.722397)"><tspan
                 id="tspan128"
                 y="0"
                 x="0">m</tspan></text>
<text
               id="text134"
               style="font-variant:normal;font-weight:normal;font-size:11.95500088px;font-family:CMR12;-inkscape-font-specification:CMR12;writing-mode:lr-tb;fill:#231f20;fill-opacity:1;fill-rule:nonzero;stroke:none"
               transform="matrix(1,0,0,-1,63.403355,85.722397)"><tspan
                 id="tspan132"
                 y="0"
                 x="0">s</tspan></text>
<text
               id="text138"
               style="font-variant:normal;font-weight:normal;font-size:7.96999979px;font-family:CMR8;-inkscape-font-specification:CMR8;writing-mode:lr-tb;fill:#231f20;fill-opacity:1;fill-rule:nonzero;stroke:none"
               transform="matrix(1,0,0,-1,74.606895,90.060295)"><tspan
                 id="tspan136"
                 y="0"
                 x="0">1</tspan></text>
<text
               id="text142"
               style="font-variant:normal;font-weight:normal;font-size:11.95500088px;font-family:CMR12;-inkscape-font-specification:CMR12;writing-mode:lr-tb;fill:#231f20;fill-opacity:1;fill-rule:nonzero;stroke:none"
               transform="matrix(1,0,0,-1,79.339401,85.722397)"><tspan
                 id="tspan140"
                 y="0"
                 x="0">)</tspan></text>
<text
               id="text146"
               style="font-variant:normal;font-weight:normal;font-size:11.95500088px;font-family:CMR12;-inkscape-font-specification:CMR12;writing-mode:lr-tb;fill:#231f20;fill-opacity:1;fill-rule:nonzero;stroke:none"
               transform="matrix(1,0,0,-1,238.59795,5.7219262)"><tspan
                 id="tspan144"
                 y="0"
                 x="0 8.4521856 11.691991 21.435316">Time</tspan></text>
<text
               id="text150"
               style="font-variant:normal;font-weight:normal;font-size:11.95500088px;font-family:CMR12;-inkscape-font-specification:CMR12;writing-mode:lr-tb;fill:#231f20;fill-opacity:1;fill-rule:nonzero;stroke:none"
               transform="matrix(1,0,0,-1,269.1633,5.7219262)"><tspan
                 id="tspan148"
                 y="0"
                 x="0 4.5429006 9.1575308">(s)</tspan></text>
<text
               id="text154"
               style="font-variant:normal;font-weight:normal;font-size:8.36849976px;font-family:CMR12;-inkscape-font-specification:CMR12;writing-mode:lr-tb;fill:#231f20;fill-opacity:1;fill-rule:nonzero;stroke:none"
               transform="matrix(1,0,0,-1,84.019005,10.98)"><tspan
                 id="tspan152"
                 y="0"
                 x="0">0</tspan></text>
<path
               id="path156"
               style="fill:none;stroke:#231f20;stroke-width:1;stroke-linecap:butt;stroke-linejoin:miter;stroke-miterlimit:4;stroke-dasharray:none;stroke-opacity:1"
               d="m 220.00101,10.967001 v 5.601 m -119.933,92.867009 h -5.601007" /><path
               id="path158"
               style="fill:#ffffff;fill-opacity:1;fill-rule:nonzero;stroke:none"
               d="m 68.231003,92.701004 h 5.666" /><path
               id="path160"
               style="fill:none;stroke:#231f20;stroke-width:0.69999999;stroke-linecap:butt;stroke-linejoin:miter;stroke-miterlimit:4;stroke-dasharray:none;stroke-opacity:1"
               d="m 68.231003,92.701004 h 5.666" /></g></g></g></g></g></svg>