<?xml version="1.0" encoding="UTF-8" standalone="no"?>
<svg
   xmlns:dc="http://purl.org/dc/elements/1.1/"
   xmlns:cc="http://creativecommons.org/ns#"
   xmlns:rdf="http://www.w3.org/1999/02/22-rdf-syntax-ns#"
   xmlns:svg="http://www.w3.org/2000/svg"
   xmlns="http://www.w3.org/2000/svg"
   viewBox="0 0 374.66666 276"
   height="276"
   width="374.66666"
   xml:space="preserve"
   id="svg2"
   version="1.1"><metadata
     id="metadata8"><rdf:RDF><cc:Work
         rdf:about=""><dc:format>image/svg+xml</dc:format><dc:type
           rdf:resource="http://purl.org/dc/dcmitype/StillImage" /></cc:Work></rdf:RDF></metadata><defs
     id="defs6"><clipPath
       id="clipPath24"
       clipPathUnits="userSpaceOnUse"><path
         id="path22"
         d="M 0,0 H 281 V 207 H 0 Z" /></clipPath><clipPath
       id="clipPath34"
       clipPathUnits="userSpaceOnUse"><path
         id="path32"
         d="M 0,0 H 280.41702 V 206.75 H 0 Z" /></clipPath><clipPath
       id="clipPath44"
       clipPathUnits="userSpaceOnUse"><path
         id="path42"
         d="M 0,0 H 280.41702 V 206.75 H 0 Z" /></clipPath><clipPath
       id="clipPath58"
       clipPathUnits="userSpaceOnUse"><path
         id="path56"
         d="M 0,0 H 280.41702 V 206.75 H 0 Z" /></clipPath></defs><g
     transform="matrix(1.3333333,0,0,-1.3333333,0,276)"
     id="g10"><g
       id="g12" /><g
       id="g14" /><g
       id="g16"><g
         id="g18"><g
           clip-path="url(#clipPath24)"
           id="g20"><g
             id="g26" /><g
             id="g28"><g
               clip-path="url(#clipPath34)"
               id="g30"><path
                 id="path36"
                 style="fill:#ffffff;fill-opacity:1;fill-rule:nonzero;stroke:none"
                 d="M 0,206.75 H 280.41702 V 0 H 0 Z" /></g></g><g
             id="g38"><g
               clip-path="url(#clipPath44)"
               id="g40"><path
                 id="path46"
                 style="fill:none;stroke:#231f20;stroke-width:0.5;stroke-linecap:butt;stroke-linejoin:round;stroke-miterlimit:10;stroke-dasharray:none;stroke-opacity:1"
                 d="M 1.0830001,0.083 V 192.41701" /></g></g><g
             id="g48"><path
               id="path50"
               style="fill:#231f20;fill-opacity:1;fill-rule:evenodd;stroke:none"
               d="M 1.0830001,192.41701 H 0 l 1.0830001,4.166 1.084,-4.166 h -1.084" /></g><g
             id="g52"><g
               clip-path="url(#clipPath58)"
               id="g54"><path
                 id="path60"
                 style="fill:none;stroke:#231f20;stroke-width:0.5;stroke-linecap:butt;stroke-linejoin:round;stroke-miterlimit:10;stroke-dasharray:none;stroke-opacity:1"
                 d="M 1.0830001,192.41701 H 0 l 1.0830001,4.166 1.084,-4.166 h -1.084 m 0,-174.50101 H 265.75" /></g></g><g
             id="g62"><path
               id="path64"
               style="fill:#231f20;fill-opacity:1;fill-rule:evenodd;stroke:none"
               d="m 265.75,17.916 v 1.417 l 3.25,-1.417 -3.25,-1.333 v 1.333" /><path
               id="path66"
               style="fill:none;stroke:#231f20;stroke-width:0.5;stroke-linecap:butt;stroke-linejoin:round;stroke-miterlimit:10;stroke-dasharray:none;stroke-opacity:1"
               d="m 265.75,17.916 v 1.417 l 3.25,-1.417 -3.25,-1.333 v 1.333 M 54.666004,14.333001 V 17.916" /><text
               id="text70"
               style="font-style:italic;font-variant:normal;font-size:12px;font-family:Times;-inkscape-font-specification:Times-Italic;writing-mode:lr-tb;fill:#231f20;fill-opacity:1;fill-rule:nonzero;stroke:none"
               transform="matrix(1,0,0,-1,270.83301,5)"><tspan
                 id="tspan68"
                 y="0"
                 x="0">x</tspan></text>
<path
               id="path72"
               style="fill:none;stroke:#231f20;stroke-width:0.5;stroke-linecap:butt;stroke-linejoin:round;stroke-miterlimit:10;stroke-dasharray:none;stroke-opacity:1"
               d="M 215.41701,14.333001 V 17.916" /><text
               id="text76"
               style="font-style:italic;font-variant:normal;font-size:12px;font-family:Times;-inkscape-font-specification:Times-Italic;writing-mode:lr-tb;fill:#231f20;fill-opacity:1;fill-rule:nonzero;stroke:none"
               transform="matrix(1,0,0,-1,54.6665,5)"><tspan
                 id="tspan74"
                 y="0"
                 x="0">a</tspan></text>
<path
               id="path78"
               style="fill:none;stroke:#231f20;stroke-width:1.20000005;stroke-linecap:butt;stroke-linejoin:round;stroke-miterlimit:10;stroke-dasharray:none;stroke-opacity:1"
               d="m 27.833002,80.416 0.251,-0.083 0.332,-0.083 h 0.251 l 0.249,-0.084 h 0.25 L 29.5,80.083 h 0.25 L 30,80 h 0.25 l 0.333002,-0.084 0.25,-0.083 h 0.251 l 0.249,-0.083 h 0.333 l 0.25,-0.084 H 32.167 l 0.249,-0.083 H 33 L 33.25,79.5 h 0.25 l 0.333,-0.084 h 0.251003 L 34.333,79.333 h 0.25 l 0.333,-0.083 h 0.251 l 0.249,-0.084 H 36 l 0.25,-0.083 H 36.5 L 36.75,79 h 0.583 l 0.25,-0.084 h 0.584004 L 38.416,78.833 h 0.501004 L 39.25,78.75 h 0.5 L 40,78.666 h 0.583 l 0.25,-0.083 h 0.583 L 41.666,78.5 H 42.5 l 0.25,-0.084 h 0.833 l 0.25,-0.083 h 0.833 l 0.25,-0.083 H 46 l 0.25,-0.084 h 1.333004 l 0.333,-0.083 H 49.75 L 50.083004,78 h 7.833 L 59.5,78.083 h 1.667004 L 62.75,78.166 64.416,78.25 66,78.416 67.666,78.5 69.25,78.666 70.916,78.833 72.5,79 74.166,79.25 75.75,79.5 77.416,79.666 79,80 80.666,80.25 82.25,80.5 83.917007,80.833 85.5,81.166 87.166,81.5 88.75,81.833 90.416008,82.25 92,82.666 93.666008,83.083 95.25,83.5 l 1.666008,0.416 1.583992,0.5 1.58301,0.5 1.66699,0.5 1.58301,0.5 L 105,86.5 l 1.58301,0.5 1.66699,0.583008 1.58301,0.583 1.66699,0.667 1.58301,0.583 1.66699,0.667 1.58301,0.666992 1.66699,0.666008 1.58301,0.75 1.66699,0.667 1.58301,0.75 1.66699,0.75 1.58301,0.75 1.66699,0.833 L 129.33301,96.75 131,97.5 132.58301,98.416008 134.25,99.25 135.83301,100.08301 137.5,101 l 1.58301,0.91701 1.66699,0.916 1.58301,1 L 144,104.75 l 1.58301,1 1.66699,1 1.58301,1 1.66699,1.08301 1.58301,1 1.66699,1.084 1.58301,1.08299 1.66699,1.16701 1.58301,1.08299 1.66699,1.16701 1.58301,1.166 1.66699,1.16699 1.58301,1.16701 1.66699,1.25 1.58301,1.166 1.66699,1.25 1.58301,1.334 1.584,1.25 1.666,1.33299 1.584,1.33301 1.666,1.334 1.584,1.33299 1.666,1.33301 1.584,1.41699 1.666,1.41701 1.584,1.416 1.666,1.41699 1.584,1.5 1.666,1.5 1.584,1.5 1.666,1.5 1.584,1.5 1.666,1.58301 1.584,1.584 1.666,1.58299 1.584,1.58301 1.666,1.584 1.584,1.666 1.666,1.66699 1.584,1.66701 1.666,1.666 1.584,1.75 1.666,1.75 1.584,1.66699 m 0,0 0.25,0.33301 0.33299,0.334 0.25,0.25 0.25,0.33299 0.83301,0.83301 0.25,0.334 0.25,0.25 0.334,0.33299 0.25,0.25 0.25,0.33301 0.25,0.334 0.33299,0.25 0.25,0.33299 0.25,0.25 0.25,0.33301 0.33301,0.334 0.25,0.25 0.25,0.33299 0.25,0.25 0.334,0.33301 0.25,0.334 0.25,0.25 0.25,0.33299 0.58299,0.58301 0.25,0.334 0.25,0.33299 0.33301,0.25 0.25,0.33301 0.25,0.334 0.25,0.25 0.334,0.33299 0.25,0.33301 0.25,0.334 0.58299,0.58299 0.25,0.33301 0.25,0.334 0.58301,0.58299 0.25,0.33301 0.25,0.334 0.25,0.25 0.334,0.33299 0.25,0.33301 0.25,0.334 L 229,180 l 0.25,0.33301 0.25,0.334 0.25,0.33299 0.58301,0.58301 0.25,0.334 0.25,0.33299 0.334,0.33301 0.25,0.334 0.25,0.33299 0.58299,0.58301 0.25,0.334 0.5,0.666 0.33301,0.334 0.5,0.666 0.25,0.334 0.58301,0.58299 0.25,0.33301 0.25,0.334 0.33398,0.33299 0.25,0.33301 0.25,0.334 0.25,0.33299 0.33301,0.33301 0.25,0.334 0.5,0.666 0.33301,0.334 0.75,0.99901 0.33398,0.33398 0.5,0.66602 0.25,0.33398 0.33301,0.33301 0.25,0.33301 0.25,0.33398 0.25,0.33301 0.33301,0.33301 0.25,0.33398 0.25,0.33301 0.25,0.41699 0.33398,0.33301 0.25,0.33301" /><text
               id="text82"
               style="font-style:italic;font-variant:normal;font-size:12px;font-family:Times;-inkscape-font-specification:Times-Italic;writing-mode:lr-tb;fill:#231f20;fill-opacity:1;fill-rule:nonzero;stroke:none"
               transform="matrix(1,0,0,-1,215.41701,5)"><tspan
                 id="tspan80"
                 y="0"
                 x="0">b</tspan></text>
<path
               id="path84"
               style="fill:#bdbcbc;fill-opacity:1;fill-rule:evenodd;stroke:none"
               d="m 54.666004,78 h 3.25 L 59.5,78.083 h 1.667004 L 62.75,78.166 64.416,78.25 66,78.416 67.666,78.5 69.25,78.666 70.916,78.833 72.5,79 74.166,79.25 75.75,79.5 77.416,79.666 79,80 80.666,80.25 82.25,80.5 83.917007,80.833 85.5,81.166 87.166,81.5 88.75,81.833 90.416008,82.25 92,82.666 93.666008,83.083 95.25,83.5 l 1.666008,0.416 1.583992,0.5 1.58301,0.5 1.66699,0.5 1.58301,0.5 L 105,86.5 l 1.58301,0.5 1.66699,0.583008 1.58301,0.583 1.66699,0.667 1.58301,0.583 1.66699,0.667 1.58301,0.666992 1.66699,0.666008 1.58301,0.75 1.66699,0.667 1.58301,0.75 1.66699,0.75 1.58301,0.75 1.66699,0.833 L 129.33301,96.75 131,97.5 132.58301,98.416008 134.25,99.25 135.83301,100.08301 137.5,101 l 1.58301,0.91701 1.66699,0.916 1.58301,1 L 144,104.75 l 1.58301,1 1.66699,1 1.58301,1 1.66699,1.08301 1.58301,1 1.66699,1.084 1.58301,1.08299 1.66699,1.16701 1.58301,1.08299 1.66699,1.16701 1.58301,1.166 1.66699,1.16699 1.58301,1.16701 1.66699,1.25 1.58301,1.166 1.66699,1.25 1.58301,1.334 1.584,1.25 1.666,1.33299 1.584,1.33301 1.666,1.334 1.584,1.33299 1.666,1.33301 1.584,1.41699 1.666,1.41701 1.584,1.416 1.666,1.41699 1.584,1.5 1.666,1.5 1.584,1.5 1.666,1.5 1.584,1.5 1.666,1.58301 1.584,1.584 1.666,1.58299 1.584,1.58301 1.666,1.584 1.584,1.666 1.666,1.66699 1.584,1.66701 1.666,1.666 1.584,1.75 1.666,1.75 1.584,1.66699 V 17.916 H 54.667004 L 54.666004,78" /><path
               id="path86"
               style="fill:none;stroke:#231f20;stroke-width:0.5;stroke-linecap:butt;stroke-linejoin:round;stroke-miterlimit:10;stroke-dasharray:none;stroke-opacity:1"
               d="m 59.5,78.083 h 1.667004 L 62.75,78.166 64.416,78.25 66,78.416 67.666,78.5 69.25,78.666 70.916,78.833 72.5,79 74.166,79.25 75.75,79.5 77.416,79.666 79,80 80.666,80.25 82.25,80.5 83.917007,80.833 85.5,81.166 87.166,81.5 88.75,81.833 90.416008,82.25 92,82.666 93.666008,83.083 95.25,83.5 l 1.666008,0.416 1.583992,0.5 1.58301,0.5 1.66699,0.5 1.58301,0.5 L 105,86.5 l 1.58301,0.5 1.66699,0.583008 1.58301,0.583 1.66699,0.667 1.58301,0.583 1.66699,0.667 1.58301,0.666992 1.66699,0.666008 1.58301,0.75 1.66699,0.667 1.58301,0.75 1.66699,0.75 1.58301,0.75 1.66699,0.833 L 129.33301,96.75 131,97.5 132.58301,98.416008 134.25,99.25 135.83301,100.08301 137.5,101 l 1.58301,0.91701 1.66699,0.916 1.58301,1 L 144,104.75 l 1.58301,1 1.66699,1 1.58301,1 1.66699,1.08301 1.58301,1 1.66699,1.084 1.58301,1.08299 1.66699,1.16701 1.58301,1.08299 1.66699,1.16701 1.58301,1.166 1.66699,1.16699 1.58301,1.16701 1.66699,1.25 1.58301,1.166 1.66699,1.25 1.58301,1.334 1.584,1.25 1.666,1.33299 1.584,1.33301 1.666,1.334 1.584,1.33299 1.666,1.33301 1.584,1.41699 1.666,1.41701 1.584,1.416 1.666,1.41699 1.584,1.5 1.666,1.5 1.584,1.5 1.666,1.5 1.584,1.5 1.666,1.58301 1.584,1.584 1.666,1.58299 1.584,1.58301 1.666,1.584 1.584,1.666 1.666,1.66699 1.584,1.66701 1.666,1.666 1.584,1.75 1.666,1.75 1.584,1.66699 V 17.916 H 54.666004 V 78 m 0,0 h 3.25 L 59.5,78.083" /><path
               id="path88"
               style="fill:none;stroke:#231f20;stroke-width:1.20000005;stroke-linecap:butt;stroke-linejoin:round;stroke-miterlimit:10;stroke-dasharray:none;stroke-opacity:1"
               d="M 54.666004,78 135.08301,99.666008 215.41701,164.75" /><path
               id="path90"
               style="fill:none;stroke:#231f20;stroke-width:0.5;stroke-linecap:butt;stroke-linejoin:round;stroke-miterlimit:10;stroke-dasharray:none;stroke-opacity:1"
               d="M 54.666004,17.916 V 78" /><text
               id="text94"
               style="font-style:italic;font-variant:normal;font-size:12px;font-family:Times;-inkscape-font-specification:Times-Italic;writing-mode:lr-tb;fill:#231f20;fill-opacity:1;fill-rule:nonzero;stroke:none"
               transform="matrix(1,0,0,-1,244,192.16701)"><tspan
                 id="tspan92"
                 y="0"
                 x="0 3.336 7.3319998 12.66">f(x)</tspan></text>
<text
               id="text98"
               style="font-style:italic;font-variant:normal;font-size:12px;font-family:Times;-inkscape-font-specification:Times-Italic;writing-mode:lr-tb;fill:#231f20;fill-opacity:1;fill-rule:nonzero;stroke:none"
               transform="matrix(1,0,0,-1,50.749596,94.500214)"><tspan
                 id="tspan96"
                 y="0"
                 x="0">f</tspan></text>
<path
               id="path100"
               style="fill:none;stroke:#231f20;stroke-width:0.5;stroke-linecap:butt;stroke-linejoin:round;stroke-miterlimit:10;stroke-dasharray:none;stroke-opacity:1"
               d="M 135.08301,17.916 V 99.666008" /><text
               id="text104"
               style="font-style:italic;font-variant:normal;font-size:9px;font-family:Times;-inkscape-font-specification:Times-Italic;writing-mode:lr-tb;fill:#231f20;fill-opacity:1;fill-rule:nonzero;stroke:none"
               transform="matrix(1,0,0,-1,54.0835,88.5)"><tspan
                 id="tspan102"
                 y="0"
                 x="0">0</tspan></text>
<text
               id="text108"
               style="font-style:italic;font-variant:normal;font-size:12px;font-family:Times;-inkscape-font-specification:Times-Italic;writing-mode:lr-tb;fill:#231f20;fill-opacity:1;fill-rule:nonzero;stroke:none"
               transform="matrix(1,0,0,-1,131.16701,116.16701)"><tspan
                 id="tspan106"
                 y="0"
                 x="0">f</tspan></text>
<path
               id="path110"
               style="fill:none;stroke:#231f20;stroke-width:0.5;stroke-linecap:butt;stroke-linejoin:round;stroke-miterlimit:10;stroke-dasharray:none;stroke-opacity:1"
               d="M 215.41701,17.916 V 164.75" /><text
               id="text114"
               style="font-style:italic;font-variant:normal;font-size:9px;font-family:Times;-inkscape-font-specification:Times-Italic;writing-mode:lr-tb;fill:#231f20;fill-opacity:1;fill-rule:nonzero;stroke:none"
               transform="matrix(1,0,0,-1,134.5,110.16701)"><tspan
                 id="tspan112"
                 y="0"
                 x="0">1</tspan></text>
<text
               id="text118"
               style="font-style:italic;font-variant:normal;font-size:12px;font-family:Times;-inkscape-font-specification:Times-Italic;writing-mode:lr-tb;fill:#231f20;fill-opacity:1;fill-rule:nonzero;stroke:none"
               transform="matrix(1,0,0,-1,211.5,181.33301)"><tspan
                 id="tspan116"
                 y="0"
                 x="0">f</tspan></text>
<path
               id="path120"
               style="fill:none;stroke:#231f20;stroke-width:0.5;stroke-linecap:butt;stroke-linejoin:round;stroke-miterlimit:10;stroke-dasharray:none;stroke-opacity:1"
               d="M 94.834007,47.916004 H 57.916004" /><path
               id="path122"
               style="fill:#231f20;fill-opacity:1;fill-rule:evenodd;stroke:none"
               d="m 57.916004,47.916004 v -1.333 l -3.25,1.333 3.25,1.417 v -1.417" /><path
               id="path124"
               style="fill:none;stroke:#231f20;stroke-width:0.5;stroke-linecap:butt;stroke-linejoin:round;stroke-miterlimit:10;stroke-dasharray:none;stroke-opacity:1"
               d="m 57.916004,47.916004 v -1.333 l -3.25,1.333 3.25,1.417 v -1.417 m 36.918003,0 H 131.75" /><path
               id="path126"
               style="fill:#231f20;fill-opacity:1;fill-rule:evenodd;stroke:none"
               d="m 131.75,47.916004 v 1.417 l 3.33301,-1.417 -3.33301,-1.333 v 1.333" /><path
               id="path128"
               style="fill:none;stroke:#231f20;stroke-width:0.5;stroke-linecap:butt;stroke-linejoin:round;stroke-miterlimit:10;stroke-dasharray:none;stroke-opacity:1"
               d="m 131.75,47.916004 v 1.417 l 3.33301,-1.417 -3.33301,-1.333 v 1.333" /><text
               id="text132"
               style="font-style:italic;font-variant:normal;font-size:9px;font-family:Times;-inkscape-font-specification:Times-Italic;writing-mode:lr-tb;fill:#231f20;fill-opacity:1;fill-rule:nonzero;stroke:none"
               transform="matrix(1,0,0,-1,214.83301,175.33301)"><tspan
                 id="tspan130"
                 y="0"
                 x="0">2</tspan></text>
<text
               id="text136"
               style="font-style:italic;font-variant:normal;font-size:12px;font-family:Times;-inkscape-font-specification:Times-Italic;writing-mode:lr-tb;fill:#231f20;fill-opacity:1;fill-rule:nonzero;stroke:none"
               transform="matrix(1,0,0,-1,94.833496,50.666004)"><tspan
                 id="tspan134"
                 y="0"
                 x="0">h</tspan></text>
</g></g></g></g></g></svg>