<?xml version="1.0" encoding="UTF-8" standalone="no"?>
<svg
   xmlns:dc="http://purl.org/dc/elements/1.1/"
   xmlns:cc="http://creativecommons.org/ns#"
   xmlns:rdf="http://www.w3.org/1999/02/22-rdf-syntax-ns#"
   xmlns:svg="http://www.w3.org/2000/svg"
   xmlns="http://www.w3.org/2000/svg"
   viewBox="0 0 201.33333 124"
   height="124"
   width="201.33333"
   xml:space="preserve"
   id="svg2"
   version="1.1"><metadata
     id="metadata8"><rdf:RDF><cc:Work
         rdf:about=""><dc:format>image/svg+xml</dc:format><dc:type
           rdf:resource="http://purl.org/dc/dcmitype/StillImage" /></cc:Work></rdf:RDF></metadata><defs
     id="defs6"><clipPath
       id="clipPath24"
       clipPathUnits="userSpaceOnUse"><path
         id="path22"
         d="M 0,0 H 151 V 93 H 0 Z" /></clipPath></defs><g
     transform="matrix(1.3333333,0,0,-1.3333333,0,124)"
     id="g10"><g
       id="g12" /><g
       id="g14" /><g
       id="g16"><g
         id="g18"><g
           clip-path="url(#clipPath24)"
           id="g20"><g
             id="g26" /><g
             id="g28"><path
               id="path30"
               style="fill:#808080;fill-opacity:1;fill-rule:nonzero;stroke:#808080;stroke-width:0.69999999;stroke-linecap:butt;stroke-linejoin:round;stroke-miterlimit:4;stroke-dasharray:none;stroke-opacity:1"
               d="M 102.5,39.25 101.75,45 100,54.5 98.125008,61.958004 96,69.25 94.125008,75.25 91.75,80.708 89.333008,84.458008 87.75,86.042007 85.375008,87.167007 82.958,86.875008 80.5,84.75 78,82 75.792,78.917007 74.208,75.958 71.833,70.958 70,66.5 l -2.167,-5.207996 -2.416,-6.375 -1.583996,-4.334 L 62.25,45.25 59.875004,39.542004 Z" /><path
               id="path32"
               style="fill:#808080;fill-opacity:1;fill-rule:nonzero;stroke:#808080;stroke-width:0.69999999;stroke-linecap:butt;stroke-linejoin:round;stroke-miterlimit:4;stroke-dasharray:3, 3, 3, 3, 3;stroke-dashoffset:0;stroke-opacity:1"
               d="M 38.334003,3 36.5,3.5 V 39.25 L 59.25,39 l -2.582996,-8.082998 -2.375,-6.084 -3.209,-7.375002 -2.374001,-4.790999 -2.416999,-3.9590008 -2.375,-3.0409999" /><path
               id="path34"
               style="fill:#000000;fill-opacity:1;fill-rule:nonzero;stroke:none"
               d="m 135.03,39.311001 -1.59499,1.988003 0.089,0.045 4.28101,-1.286999 c 1.491,-0.249001 2.98199,-0.498001 4.47299,-0.746002 -1.491,-0.249001 -2.98199,-0.496998 -4.47299,-0.745999 L 133.524,37.277 l -0.089,0.034 1.59499,2" /><path
               id="path36"
               style="fill:none;stroke:#000000;stroke-width:0.5;stroke-linecap:butt;stroke-linejoin:round;stroke-miterlimit:4;stroke-dasharray:none;stroke-opacity:1"
               d="M 0.333,39.311001 H 135.03 M 21.031,0.65400004 V 86.279999" /><path
               id="path38"
               style="fill:#000000;fill-opacity:1;fill-rule:nonzero;stroke:none"
               d="m 21.344002,86.348007 -1.988001,-1.330002 -0.046,0.075 1.288002,3.566002 c 0.248999,1.243004 0.498,2.486 0.746001,3.729004 0.248998,-1.243004 0.497,-2.486 0.745998,-3.729004 l 1.288,-3.566002 -0.034,-0.075 -2,1.330002" /><path
               id="path40"
               style="fill:none;stroke:#000000;stroke-width:0.69999999;stroke-linecap:butt;stroke-linejoin:round;stroke-miterlimit:4;stroke-dasharray:none;stroke-opacity:1"
               d="m 41.542004,3.7080002 -0.833001,-0.375 -0.791999,-0.25 L 39.125,2.9580002 38.334003,3 37.542004,3.2080002 36.75,3.5420001 m 4.792004,0.1660001 0.791999,0.5 0.791001,0.6669998 0.792,0.7920003 0.791,0.875 0.791996,1.0409999 0.792004,1.125 0.833,1.2090006 0.792,1.3329992 0.791999,1.417001 0.790997,1.5 0.792004,1.625 0.791,1.665999 0.792,1.75 0.792,1.792 0.832996,1.875002 0.792004,1.958 1.583,4 0.792,2.084 L 58.25,35.167 l 0.792004,2.166 0.833,2.209004 3.958,11.041 1.583996,4.334 0.833,2.166 0.792,2.125 0.791,2.084 1.584,3.999996 0.791,1.958 0.792,1.875 0.833,1.833 0.792,1.75 0.792,1.667 0.791,1.583 0.792,1.542 0.792,1.417007 0.791,1.332993 0.792,1.25 0.833,1.125008 0.792,1 0.792007,0.916999 0.790993,0.75 0.792008,0.666001 0.791999,0.5 0.790993,0.417 0.792,0.208 0.833008,0.125 0.792,-0.041 0.791999,-0.25 0.791001,-0.333999 0.791992,-0.541001 0.792007,-0.708999 0.791001,-0.875 0.792,-1.083 0.833,-1.208001 L 91.75,80.708 l 0.792007,-1.625 0.791001,-1.833 0.792,-2 L 94.917007,73 95.708008,70.583 96.5,67.917 l 0.833008,-2.875 0.792,-3.083996 0.791999,-3.291 0.791001,-3.584 0.791992,-3.75 0.79201,-4.041 0.791,-4.25 0.833,-4.5" /><path
               id="path42"
               style="fill:none;stroke:#000000;stroke-width:0.69999999;stroke-linecap:butt;stroke-linejoin:round;stroke-miterlimit:4;stroke-dasharray:3, 3, 3, 3, 3;stroke-dashoffset:0;stroke-opacity:1"
               d="m 36.25,3.25 v 35.5 z" /><text
               id="text46"
               style="font-variant:normal;font-weight:normal;font-size:11.95500088px;font-family:CMMI12;-inkscape-font-specification:CMMI12;writing-mode:lr-tb;fill:#231f20;fill-opacity:1;fill-rule:nonzero;stroke:none"
               transform="matrix(1,0,0,-1,142,28)"><tspan
                 id="tspan44"
                 y="0"
                 x="0">t</tspan></text>
<text
               id="text50"
               style="font-variant:normal;font-weight:normal;font-size:11.95500088px;font-family:CMMI12;-inkscape-font-specification:CMMI12;writing-mode:lr-tb;fill:#231f20;fill-opacity:1;fill-rule:nonzero;stroke:none"
               transform="matrix(1,0,0,-1,33.000286,40.999866)"><tspan
                 id="tspan48"
                 y="0"
                 x="0">a</tspan></text>
<text
               id="text54"
               style="font-variant:normal;font-weight:normal;font-size:11.95500088px;font-family:CMMI12;-inkscape-font-specification:CMMI12;writing-mode:lr-tb;fill:#231f20;fill-opacity:1;fill-rule:nonzero;stroke:none"
               transform="matrix(1,0,0,-1,101.99976,28.999437)"><tspan
                 id="tspan52"
                 y="0"
                 x="0">b</tspan></text>
<text
               id="text58"
               style="font-variant:normal;font-weight:normal;font-size:11.95500088px;font-family:CMMI12;-inkscape-font-specification:CMMI12;writing-mode:lr-tb;fill:#231f20;fill-opacity:1;fill-rule:nonzero;stroke:none"
               transform="matrix(1,0,0,-1,108.51763,79.999474)"><tspan
                 id="tspan56"
                 y="0"
                 x="0">y</tspan></text>
<text
               id="text62"
               style="font-variant:normal;font-weight:normal;font-size:11.95500088px;font-family:CMR12;-inkscape-font-specification:CMR12;writing-mode:lr-tb;fill:#231f20;fill-opacity:1;fill-rule:nonzero;stroke:none"
               transform="matrix(1,0,0,-1,117.97523,79.999474)"><tspan
                 id="tspan60"
                 y="0"
                 x="0">=</tspan></text>
<text
               id="text66"
               style="font-variant:normal;font-weight:normal;font-size:11.95500088px;font-family:CMMI12;-inkscape-font-specification:CMMI12;writing-mode:lr-tb;fill:#231f20;fill-opacity:1;fill-rule:nonzero;stroke:none"
               transform="matrix(1,0,0,-1,130.40007,79.999474)"><tspan
                 id="tspan64"
                 y="0"
                 x="0">f</tspan></text>
<text
               id="text70"
               style="font-variant:normal;font-weight:normal;font-size:11.95500088px;font-family:CMR12;-inkscape-font-specification:CMR12;writing-mode:lr-tb;fill:#231f20;fill-opacity:1;fill-rule:nonzero;stroke:none"
               transform="matrix(1,0,0,-1,137.44754,79.999474)"><tspan
                 id="tspan68"
                 y="0"
                 x="0">(</tspan></text>
<text
               id="text74"
               style="font-variant:normal;font-weight:normal;font-size:11.95500088px;font-family:CMMI12;-inkscape-font-specification:CMMI12;writing-mode:lr-tb;fill:#231f20;fill-opacity:1;fill-rule:nonzero;stroke:none"
               transform="matrix(1,0,0,-1,142,79.999474)"><tspan
                 id="tspan72"
                 y="0"
                 x="0">t</tspan></text>
<text
               id="text78"
               style="font-variant:normal;font-weight:normal;font-size:11.95500088px;font-family:CMR12;-inkscape-font-specification:CMR12;writing-mode:lr-tb;fill:#231f20;fill-opacity:1;fill-rule:nonzero;stroke:none"
               transform="matrix(1,0,0,-1,146.22729,79.999474)"><tspan
                 id="tspan76"
                 y="0"
                 x="0">)</tspan></text>
<path
               id="path80"
               style="fill:#231f20;fill-opacity:1;fill-rule:nonzero;stroke:none"
               d="M 115,74 98.125008,61.958004" /></g></g></g></g></g></svg>