<?xml version="1.0" encoding="UTF-8" standalone="no"?>
<svg
   xmlns:dc="http://purl.org/dc/elements/1.1/"
   xmlns:cc="http://creativecommons.org/ns#"
   xmlns:rdf="http://www.w3.org/1999/02/22-rdf-syntax-ns#"
   xmlns:svg="http://www.w3.org/2000/svg"
   xmlns="http://www.w3.org/2000/svg"
   viewBox="0 0 478.66666 158.66667"
   height="158.66667"
   width="478.66666"
   xml:space="preserve"
   id="svg2"
   version="1.1"><metadata
     id="metadata8"><rdf:RDF><cc:Work
         rdf:about=""><dc:format>image/svg+xml</dc:format><dc:type
           rdf:resource="http://purl.org/dc/dcmitype/StillImage" /></cc:Work></rdf:RDF></metadata><defs
     id="defs6"><clipPath
       id="clipPath24"
       clipPathUnits="userSpaceOnUse"><path
         id="path22"
         d="M 0,0 H 359 V 119 H 0 Z" /></clipPath><clipPath
       id="clipPath38"
       clipPathUnits="userSpaceOnUse"><path
         id="path36"
         d="M 0,0.05999756 H 358.66998 V 118.56301 H 0 Z" /></clipPath><clipPath
       id="clipPath78"
       clipPathUnits="userSpaceOnUse"><path
         id="path76"
         d="M 0,0.05999756 H 358.66998 V 118.56301 H 0 Z" /></clipPath></defs><g
     transform="matrix(1.3333333,0,0,-1.3333333,0,158.66667)"
     id="g10"><g
       id="g12" /><g
       id="g14" /><g
       id="g16"><g
         id="g18"><g
           clip-path="url(#clipPath24)"
           id="g20"><g
             id="g26" /><g
             id="g28"><path
               id="path30"
               style="fill:#231f20;fill-opacity:1;fill-rule:nonzero;stroke:none"
               d="M 0,53.374004 H 345.60303" /></g><g
             id="g32"><g
               clip-path="url(#clipPath38)"
               id="g34"><path
                 id="path40"
                 style="fill:none;stroke:#231f20;stroke-width:0.47999999;stroke-linecap:butt;stroke-linejoin:miter;stroke-miterlimit:4;stroke-dasharray:none;stroke-opacity:1"
                 d="M 0,53.374004 H 345.60303" /></g></g><g
             id="g42"><path
               id="path44"
               style="fill:#231f20;fill-opacity:1;fill-rule:nonzero;stroke:none"
               d="m 344.04999,53.332001 -1.40198,2.305 0.079,0.053 3.759,-1.493996 c 1.31,-0.288002 2.62101,-0.576004 3.93,-0.864002 -1.30899,-0.287998 -2.62,-0.577 -3.93,-0.864998 l -3.759,-1.493 -0.079,0.039 1.40198,2.318997" /><path
               id="path46"
               style="fill:#231f20;fill-opacity:1;fill-rule:nonzero;stroke:none"
               d="M 144.54201,6.2330003 V 99.135002" /><path
               id="path48"
               style="fill:none;stroke:#231f20;stroke-width:0.47999999;stroke-linecap:butt;stroke-linejoin:miter;stroke-miterlimit:4;stroke-dasharray:none;stroke-opacity:1"
               d="M 144.54201,6.2330003 V 99.135002" /><path
               id="path50"
               style="fill:#231f20;fill-opacity:1;fill-rule:nonzero;stroke:none"
               d="m 144.67201,96.559006 -2.306,-1.402001 -0.052,0.079 1.493,3.759994 c 0.28799,1.310011 0.576,2.620001 0.865,3.930001 0.28798,-1.31 0.57599,-2.61999 0.86499,-3.930001 l 1.493,-3.759994 -0.039,-0.079 -2.319,1.402001" /><text
               id="text54"
               style="font-variant:normal;font-weight:normal;font-size:10.20160007px;font-family:CMMI10;-inkscape-font-specification:CMMI10;writing-mode:lr-tb;fill:#231f20;fill-opacity:1;fill-rule:nonzero;stroke:none"
               transform="matrix(1,0,0,-1,352.84503,49.3372)"><tspan
                 id="tspan52"
                 y="0"
                 x="0">x</tspan></text>
<text
               id="text58"
               style="font-variant:normal;font-weight:normal;font-size:10.20160007px;font-family:CMMI10;-inkscape-font-specification:CMMI10;writing-mode:lr-tb;fill:#231f20;fill-opacity:1;fill-rule:nonzero;stroke:none"
               transform="matrix(1,0,0,-1,134.49918,97.484673)"><tspan
                 id="tspan56"
                 y="0"
                 x="0">y</tspan></text>
<text
               id="text62"
               style="font-variant:normal;font-weight:normal;font-size:10.20160007px;font-family:CMR10;-inkscape-font-specification:CMR10;writing-mode:lr-tb;fill:#231f20;fill-opacity:1;fill-rule:nonzero;stroke:none"
               transform="matrix(1,0,0,-1,209.72272,9.4407864)"><tspan
                 id="tspan60"
                 y="0"
                 x="0 3.9582207 9.059021 14.720909 19.821709 24.351219">tangen</tspan></text>
<text
               id="text66"
               style="font-variant:normal;font-weight:normal;font-size:10.20160007px;font-family:CMR10;-inkscape-font-specification:CMR10;writing-mode:lr-tb;fill:#231f20;fill-opacity:1;fill-rule:nonzero;stroke:none"
               transform="matrix(1,0,0,-1,239.47978,9.4407864)"><tspan
                 id="tspan64"
                 y="0"
                 x="0">t</tspan></text>
<text
               id="text70"
               style="font-variant:normal;font-weight:normal;font-size:10.20160007px;font-family:CMR10;-inkscape-font-specification:CMR10;writing-mode:lr-tb;fill:#231f20;fill-opacity:1;fill-rule:nonzero;stroke:none"
               transform="matrix(1,0,0,-1,246.84738,9.4407864)"><tspan
                 id="tspan68"
                 y="0"
                 x="0 2.8258431 5.6516862 11.313575">line</tspan></text>
</g><g
             id="g72"><g
               clip-path="url(#clipPath78)"
               id="g74"><path
                 id="path80"
                 style="fill:none;stroke:#231f20;stroke-width:0.64999998;stroke-linecap:butt;stroke-linejoin:round;stroke-miterlimit:10;stroke-dasharray:none;stroke-opacity:1"
                 d="m 214.36,46.369003 0.36,0.84 0.31999,0.8 0.36002,0.84 0.35899,0.84 0.321,0.84 0.36,0.84 0.319,0.84 0.361,0.840001 0.36,0.84 0.31901,0.84 0.36098,0.879997 0.36,0.84 0.31901,0.84 0.361,0.800004 0.36,0.84 0.31901,0.839996 0.36098,0.800003 0.32001,0.84 0.35901,0.799999 0.36099,0.8 0.32001,0.799999 0.359,0.759998 0.36098,0.760002 0.32001,0.760003 0.72,1.519996 0.31999,0.720001 0.36,0.680001 0.36002,0.720001 0.31999,0.68 0.36,0.680001 0.32001,0.639999 0.35998,0.639999 0.36001,0.599999 0.32,0.599998 0.36,0.600006 0.35999,0.559998 0.32001,0.519997 0.72,1.04 0.31999,0.480004 0.36,0.479996 0.32001,0.440994 0.72,0.800003 0.31999,0.359009 0.36002,0.36 0.35998,0.32 0.32001,0.32 0.36,0.28099 0.36,0.239006 0.31999,0.240998 0.36,0.199005 0.32001,0.199997 0.36,0.160003 0.36,0.119995 0.31999,0.120003 0.36002,0.08099 0.35998,0.08 h 0.32102 l 0.35898,0.04 0.36001,-0.04 0.32102,-0.04099 0.35898,-0.08 0.36,-0.08 0.31999,-0.120002 0.36,-0.119004 0.32001,-0.200996 0.361,-0.199005 0.359,-0.200989 0.31999,-0.240006 0.72002,-0.559005 0.31999,-0.320992 0.36,-0.319008 0.36,-0.36 0.31999,-0.400994 0.36,-0.400001 0.32001,-0.439995 0.36,-0.440002 0.36,-0.480004 0.31999,-0.479995 0.36103,-0.519005 0.35899,-0.520996 0.31999,-0.559998 0.36101,-0.560005 0.35898,-0.599999 0.32,-0.599998 0.36103,-0.639999 0.31897,-0.64 0.36001,-0.639999 0.36101,-0.680001 0.31899,-0.68 0.36,-0.720001 0.36102,-0.720001 0.31897,-0.720002 0.36,-0.720001 0.36102,-0.759994 0.31899,-0.760002 m -68.40001,-9.32 0.31901,-0.84 0.72001,-1.680001 0.32,-0.880001 0.72,-1.68 0.32,-0.84 0.36,-0.84 0.36,-0.799999 0.32,-0.840001 0.36,-0.84 0.32,-0.799999 0.36,-0.799999 0.36099,-0.800003 0.31902,-0.8 0.36,-0.799999 0.36097,-0.760002 0.31902,-0.759998 0.36,-0.759999 0.36099,-0.720001 0.319,-0.760002 0.36,-0.679996 0.321,-0.720002 0.35901,-0.68 0.36,-0.68 0.31999,-0.64 0.72,-1.280002 0.32099,-0.599999 0.35902,-0.599998 0.36,-0.560002 0.32099,-0.559999 0.35901,-0.52 0.32,-0.48 0.36098,-0.52 0.35902,-0.440001 0.32,-0.48 0.36099,-0.399999 0.35901,-0.4 0.32,-0.400001 0.36098,-0.359999 L 194.67902,27.409 195,27.089001 l 0.35901,-0.279999 0.36,-0.280001 0.32098,-0.24 0.35901,-0.2 0.32001,-0.199999 0.36099,-0.16 0.36,-0.16 0.319,-0.08 0.361,-0.120998 0.359,-0.039 0.32001,-0.04 0.36098,-0.04 0.35902,0.04 0.31999,0.04 0.361,0.039 0.31999,0.08 0.35902,0.121 0.36098,0.119999 0.32001,0.16 0.35901,0.198999 0.36099,0.201001 0.31901,0.239 0.36,0.281 0.36098,0.278999 0.31902,0.320002 0.36099,0.320999 0.31999,0.360001 0.35903,0.359998 0.36097,0.400002 0.32001,0.439999 0.35901,0.44 0.36099,0.440001 0.32001,0.52 0.35899,0.48 0.361,0.52 0.32,0.559998 0.35901,0.560001 0.32099,0.600002 0.36,0.599999 0.359,0.599998 0.32099,0.640003 0.36,0.64 0.35902,0.68 0.32099,0.68 0.36,0.719998 0.35901,0.720001 0.32098,0.720001 0.36002,0.719998 0.359,0.760002 0.32099,0.759998 0.36,0.760002 0.31901,0.8 0.36098,0.799999 0.36,0.799999 0.32001,0.800003 0.36,0.799999" /><path
                 id="path82"
                 style="fill:none;stroke:#231f20;stroke-width:0.64999998;stroke-linecap:butt;stroke-linejoin:round;stroke-miterlimit:10;stroke-dasharray:none;stroke-opacity:1"
                 d="m 145.95801,55.969002 0.321,0.84 0.35899,0.84 0.32001,0.84 0.36099,0.799999 0.35901,0.840001 0.321,0.800003 0.36,0.84 0.35899,0.799999 0.321,0.799999 0.36,0.760002 0.36,0.799996 0.32001,0.760002 0.36,0.760002 0.31999,0.720001 0.36,0.759995 0.36,0.68 0.319,0.720001 0.36101,0.680001 0.36,0.680992 0.319,0.679008 0.361,0.64 0.36,0.599998 0.319,0.64 0.361,0.600006 0.32,0.559997 0.359,0.559998 0.361,0.520996 0.32,0.519005 0.359,0.480995 0.36099,0.479004 0.32001,0.480003 0.36,0.400002 0.36,0.439994 0.31999,0.360001 0.36,0.360001 0.36,0.36 0.32001,0.320992 0.36,0.279007 0.31999,0.279999 0.36,0.240997 0.36,0.239998 0.32001,0.199005 0.36,0.160995 0.36,0.159005 0.31999,0.120002 0.72001,0.160004 0.32,0.04099 0.36,0.04 h 0.32 l 0.36,-0.04 0.36,-0.08 0.32,-0.08099 0.36,-0.08 0.359,-0.119995 0.321,-0.160003 0.36,-0.199997 0.36,-0.199005 0.32001,-0.240998 0.35998,-0.239998 0.321,-0.279998 0.35901,-0.279007 0.36,-0.321 0.32098,-0.36 0.35901,-0.359001 0.36,-0.400994 0.321,-0.43901 0.35901,-0.440995 0.36,-0.439994 0.31999,-0.480004 0.72,-1.040001 0.321,-0.519996 0.35901,-0.560005 0.31999,-0.599999 0.36001,-0.599998 0.36,-0.599999 0.32,-0.639999 0.72,-1.279007 0.32,-0.680992 0.72,-1.440003 0.32,-0.720001 0.36001,-0.720001 L 175.63901,66.209 176,65.449005 l 0.35901,-0.760002 0.31999,-0.759998 0.36099,-0.800003 0.35901,-0.8 0.32001,-0.799999 0.36099,-0.799999 0.35901,-0.84 0.31999,-0.84 0.361,-0.8 0.31901,-0.84 0.36,-0.84 0.36098,-0.84 m -68.44199,-9.600002 0.361,-0.8 0.359,-0.799999 0.32,-0.799999 0.361,-0.800003 0.319,-0.759998 0.72,-1.520001 0.32,-0.759998 0.72001,-1.440003 0.32,-0.720001 0.36,-0.719997 0.36,-0.680001 0.32,-0.639999 0.72,-1.280003 0.32,-0.599998 0.361,-0.599999 0.319,-0.600002 0.36,-0.560001 0.361,-0.519999 0.319,-0.52 0.36,-0.519999 0.361,-0.480001 0.319,-0.439999 0.35999,-0.44 0.361,-0.440001 0.319,-0.4 0.36,-0.36 0.321,-0.359999 0.359,-0.320001 0.36,-0.281001 0.321,-0.278999 0.359,-0.240999 0.36001,-0.239 0.32099,-0.200001 0.35901,-0.199999 0.36,-0.16 0.321,-0.121 0.359,-0.08 0.32,-0.08 0.361,-0.079 0.359,-0.04 h 0.32 l 0.361,0.04 0.359,0.04 0.321,0.079 0.359,0.081 0.36,0.120001 0.321,0.16 0.36,0.16 0.35899,0.200001 0.321,0.239 0.36,0.240999 0.319,0.280001 0.36101,0.279999 0.36,0.319 0.319,0.361 0.36099,0.360001 0.36,0.36 0.319,0.439999 0.36101,0.399 0.36,0.481001 0.319,0.479 0.361,0.480999 0.32,0.519001 0.359,0.521 0.361,0.559999 0.319,0.560002 0.35999,0.599998 0.36101,0.64 0.319,0.600002 0.36,0.639999 0.36099,0.680001 0.319,0.68 0.36101,0.68 0.31999,0.719998 0.36,0.68 0.36,0.760002 0.32001,0.719997 0.35899,0.760003 0.36101,0.759998 0.31999,0.800003 0.36,0.759998 0.36,0.799999 0.32001,0.8 0.35899,0.84 0.36101,0.800003 0.31999,0.84 0.35901,0.799999 0.321,0.84 0.36,0.840001 0.359,0.84 0.321,0.84 0.36,0.84 0.35899,0.84 0.32101,0.879997 0.36,0.840001 0.359,0.84" /><path
                 id="path84"
                 style="fill:none;stroke:#231f20;stroke-width:0.64999998;stroke-linecap:butt;stroke-linejoin:round;stroke-miterlimit:10;stroke-dasharray:none;stroke-opacity:1"
                 d="m 77.518005,65.249001 0.359002,0.760002 0.319999,0.760002 0.361,0.720993 0.359001,0.719002 0.32,0.720001 0.361,0.720001 0.358994,0.68 0.319999,0.680001 0.361,0.639999 0.319001,0.639999 0.721,1.200997 0.319001,0.599007 0.721,1.120002 0.319001,0.520989 0.36,0.479011 0.360001,0.520989 0.319999,0.43901 0.361001,0.440995 0.319,0.439003 0.36,0.400001 0.361,0.360001 0.319001,0.36 0.36,0.320992 0.361,0.319008 0.32,0.28099 0.359001,0.279007 0.361,0.240998 0.319001,0.199005 0.36,0.199997 0.361,0.160003 0.319,0.119995 0.359993,0.120003 0.321007,0.08099 0.358994,0.03901 0.36,0.04099 0.321007,0.04 0.358994,-0.04 0.36,-0.04099 0.320999,-0.03901 0.359002,-0.120995 0.36,-0.08 0.320999,-0.159004 0.359001,-0.160995 0.32,-0.199005 0.361,-0.199997 0.359001,-0.240998 0.321,-0.279998 0.36,-0.279007 0.359001,-0.320992 0.320999,-0.319008 0.360001,-0.360992 0.359001,-0.400002 0.320999,-0.400001 0.360001,-0.399002 0.319,-0.480004 0.361,-0.439994 0.359001,-0.520005 0.32,-0.480995 0.361,-0.519005 0.359001,-0.559997 0.32,-0.560997 0.361,-0.599999 0.358994,-0.599998 0.321008,-0.64 0.35999,-0.639999 0.32,-0.640007 0.72,-1.359993 0.32,-0.720001 0.36,-0.680001 0.36,-0.760002 0.321,-0.720001 0.359,-0.760002 0.36,-0.759995 0.32,-0.760002 0.72001,-1.599998 0.31999,-0.800003 0.36001,-0.799999 0.32,-0.8 0.72,-1.68 0.32,-0.799999 0.72,-1.680001 0.32,-0.84 0.36,-0.84 0.36,-0.880001 0.321,-0.84 0.359,-0.84 0.32,-0.84 0.361,-0.840001 0.35899,-0.84 0.32001,-0.84 0.36099,-0.799999 0.359,-0.84 0.32,-0.84 m -68.401998,-8.72 0.320999,-0.68 0.360001,-0.679996 0.359001,-0.640004 0.320999,-0.639999 0.360001,-0.639999 0.359001,-0.599999 0.320999,-0.600002 0.36,-0.561001 0.360001,-0.558998 0.32,-0.520001 0.359997,-0.52 0.320003,-0.48 0.359997,-0.479999 0.36,-0.441 0.32,-0.439001 0.360001,-0.400999 0.36,-0.399 0.32,-0.360001 0.360001,-0.320999 0.36,-0.319 0.32,-0.280001 0.360001,-0.279999 0.36,-0.240002 0.32,-0.199998 0.359997,-0.200001 0.320003,-0.199999 0.359997,-0.120001 0.360001,-0.120001 0.319999,-0.081 0.360001,-0.079 0.360001,-0.04 0.319,-0.04 0.361,0.04 h 0.36 l 0.319001,0.079 0.361,0.08 0.319999,0.121 0.361001,0.119999 0.358997,0.16 0.320003,0.198999 0.361,0.201001 0.358998,0.239 0.319999,0.241001 0.360001,0.279999 0.360001,0.319999 0.319999,0.320002 0.360001,0.359999 0.32,0.359001 0.36,0.400999 0.360001,0.4 0.32,0.44 0.36,0.48 0.359997,0.480001 0.320004,0.519999 0.359996,0.52 0.360001,0.520001 0.32,0.560001 0.36,0.599998 0.360001,0.599999 0.32,0.600002 0.36,0.64 0.32,0.639999 0.721001,1.360001 0.319,0.720001 0.36,0.68 0.361,0.719998 0.319001,0.760002 0.36,0.759998 0.360001,0.760002 0.32,0.759998 0.36,0.760003 0.32,0.799999 0.719994,1.599998 0.320007,0.84 0.359993,0.8 0.36,0.84 0.32,0.84 0.360001,0.800003 0.36,0.84 0.32,0.839997 0.360001,0.880001 0.319999,0.84 0.361,0.84 0.359002,0.84 0.319999,0.84 0.360001,0.84 0.36,0.840001 0.32,0.84 0.360001,0.84 0.36,0.799999 0.321,0.84 0.359001,0.799999 0.36,0.800004 0.320999,0.799999 0.359002,0.799999 0.319999,0.800995 0.361,0.759003" /><path
                 id="path86"
                 style="fill:none;stroke:#231f20;stroke-width:0.64999998;stroke-linecap:butt;stroke-linejoin:round;stroke-miterlimit:10;stroke-dasharray:none;stroke-opacity:1"
                 d="M 41.237003,41.809002 41.597,41.049004 41.917004,40.289001 42.277,39.569 l 0.360001,-0.719997 0.32,-0.720001 0.359001,-0.720002 m 136.843988,21.880001 0.31901,-0.599998 0.72001,-1.200001 0.32,-0.599998 0.72,-1.200001 0.32,-0.599998 0.72,-1.200001 0.32,-0.600003 0.36,-0.599998 0.32,-0.560001 0.36,-0.599999 0.36099,-0.600002 0.31902,-0.599999 0.36,-0.599998 0.36097,-0.600002 0.31902,-0.599999 0.36,-0.600002 0.36099,-0.599999 0.319,-0.599998 0.36,-0.600002 0.321,-0.599999 0.35901,-0.600002 0.36,-0.599999 0.31999,-0.560001 0.72,-1.200001 0.32099,-0.600998 0.35902,-0.599998 0.36,-0.599003 0.32099,-0.599998 0.35901,-0.600003 0.32,-0.600998 0.36098,-0.600002 0.35902,-0.598999 0.32,-0.599998 0.36099,-0.600003 0.35901,-0.600998 0.32,-0.560001 0.36098,-0.598999 0.35903,-0.599999 0.32098,-0.600002 0.35901,-0.599998 0.36,-0.601002 0.32098,-0.598999 0.35901,-0.601 0.32001,-0.599001 0.36099,-0.6 0.36,-0.601 0.319,-0.598999 0.361,-0.601 0.359,-0.599001 0.32001,-0.561001 0.36098,-0.599998 0.35902,-0.600001 0.31999,-0.6 0.361,-0.598999 0.31999,-0.601002 0.35902,-0.599998 0.36098,-0.600001 0.32001,-0.6 0.35901,-0.6 0.36099,-0.600001 0.31901,-0.599998 0.36,-0.600001 0.36098,-0.6 0.31902,-0.559999 0.36099,-0.600001 0.31999,-0.6 0.35903,-0.600001 0.36097,-0.6 0.32001,-0.599999 0.35901,-0.600001 0.36099,-0.599999 0.32001,-0.601 0.35899,-0.599 0.361,-0.6 0.32,-0.600001 0.35901,-0.599999 0.32099,-0.601001 0.36,-0.559 0.359,-0.6009998 0.32099,-0.5989999 0.36,-0.5999995 0.35902,-0.6010003 0.32099,-0.599 0.71901,-1.2000002 0.32098,-0.5999999 0.71902,-1.2000003 0.32099,-0.6009999 0.36,-0.5989999 0.31901,-0.6010001 0.36098,-0.5590001 0.36,-0.601 L 214,0.76700002 214.36,0.16800001 M 145.95801,118.41 l 0.321,-0.6 0.35899,-0.6 0.32001,-0.6 0.36099,-0.60001 0.35901,-0.59999 0.321,-0.6 0.36,-0.6 0.35899,-0.6 0.321,-0.60001 0.72,-1.19999 0.32001,-0.6 0.36,-0.56001 0.31999,-0.59999 0.72,-1.2 0.319,-0.6 0.36101,-0.60001 0.36,-0.59999 0.319,-0.6 0.361,-0.6 0.36,-0.6 0.319,-0.60001 0.361,-0.59999 0.32,-0.6 0.359,-0.6 0.361,-0.56 0.32,-0.60001 0.359,-0.59999 0.36099,-0.6 0.32001,-0.600001 0.72,-1.200004 0.31999,-0.599999 0.72,-1.199997 0.32001,-0.599998 0.36,-0.600006 0.31999,-0.599999 0.36,-0.599998 0.36,-0.559998 0.32001,-0.600006 0.36,-0.599998 0.36,-0.599999 0.31999,-0.599998 0.72001,-1.200005 0.32,-0.599998 0.36,-0.599999 0.32,-0.599998 0.36,-0.599999 0.36,-0.599998 0.32,-0.600006 0.36,-0.599999 0.359,-0.560989 0.321,-0.599007 0.36,-0.600998 0.36,-0.599006 0.32001,-0.599999 L 166.679,82.569 167,81.970001 l 0.35901,-0.600998 0.36,-0.599006 0.32098,-0.600991 0.35901,-0.600006 0.36,-0.599998 0.321,-0.599999 0.35901,-0.599006 0.36,-0.56099 0.31999,-0.599006 0.72,-1.200997 0.321,-0.599998 0.35901,-0.599999 0.31999,-0.599006 0.72001,-1.200997 0.32,-0.599998 0.72,-1.200005 0.32,-0.599998 0.36,-0.599999 0.36,-0.559997 0.32,-0.600006 0.36001,-0.599999 0.31999,-0.599998 0.36099,-0.599999 0.35901,-0.599998 0.31999,-0.600006 0.36099,-0.599999 0.35901,-0.599998 0.32001,-0.600003 0.36099,-0.599998 0.35901,-0.599999 0.31999,-0.600002 0.361,-0.599998 0.31901,-0.560002 0.36,-0.599998 0.36098,-0.600003" /></g></g></g></g></g></g></svg>