<?xml version="1.0" encoding="UTF-8" standalone="no"?>
<svg
   xmlns:dc="http://purl.org/dc/elements/1.1/"
   xmlns:cc="http://creativecommons.org/ns#"
   xmlns:rdf="http://www.w3.org/1999/02/22-rdf-syntax-ns#"
   xmlns:svg="http://www.w3.org/2000/svg"
   xmlns="http://www.w3.org/2000/svg"
   viewBox="0 0 226.66667 122.66667"
   height="122.66667"
   width="226.66667"
   xml:space="preserve"
   id="svg2"
   version="1.1"><metadata
     id="metadata8"><rdf:RDF><cc:Work
         rdf:about=""><dc:format>image/svg+xml</dc:format><dc:type
           rdf:resource="http://purl.org/dc/dcmitype/StillImage" /></cc:Work></rdf:RDF></metadata><defs
     id="defs6"><clipPath
       id="clipPath24"
       clipPathUnits="userSpaceOnUse"><path
         id="path22"
         d="M 0,0 H 170 V 92 H 0 Z" /></clipPath></defs><g
     transform="matrix(1.3333333,0,0,-1.3333333,0,122.66667)"
     id="g10"><g
       id="g12" /><g
       id="g14" /><g
       id="g16"><g
         id="g18"><g
           clip-path="url(#clipPath24)"
           id="g20"><g
             id="g26" /><g
             id="g28"><path
               id="path30"
               style="fill:none;stroke:#000000;stroke-width:0.5;stroke-linecap:butt;stroke-linejoin:round;stroke-miterlimit:4;stroke-dasharray:none;stroke-opacity:1"
               d="M 12.699,21.449001 H 14.5 M 13.599001,22.35 v -1.800998 m 24.851,0.899999 H 40.25 M 39.349998,22.35 v -1.800998 m 50.599999,0.899999 H 91.75 M 90.849998,22.35 V 20.549002 M 115.7,21.449001 h 1.80101 m -0.9,0.900999 V 20.549002 M 64.200005,1.149 H 66 m -0.900002,0.9 V 0.24900001 M 64.200005,41.75 H 66 m -0.900002,0.899002 V 40.849998 M 64.200005,62.049999 H 66 m -0.900002,0.899998 v -1.799999" /><path
               id="path32"
               style="fill:none;stroke:#000000;stroke-width:1;stroke-linecap:butt;stroke-linejoin:round;stroke-miterlimit:4;stroke-dasharray:none;stroke-opacity:1"
               d="M 64.200005,82.375008 H 66" /><path
               id="path34"
               style="fill:none;stroke:#000000;stroke-width:0.5;stroke-linecap:butt;stroke-linejoin:round;stroke-miterlimit:4;stroke-dasharray:none;stroke-opacity:1"
               d="M 65.099998,83.275002 V 81.475006 M 0.72400004,21.449001 H 134.62601" /><path
               id="path36"
               style="fill:#000000;fill-opacity:1;fill-rule:nonzero;stroke:none"
               d="m 134.38101,21.449001 -1.752,2.882 0.099,0.066 4.69899,-1.867002 c 1.638,-0.359999 3.27501,-0.72 4.913,-1.080998 -1.63799,-0.36 -3.275,-0.720001 -4.913,-1.08 l -4.69899,-1.867 -0.099,0.049 1.752,2.898" /><path
               id="path38"
               style="fill:none;stroke:#000000;stroke-width:0.5;stroke-linecap:butt;stroke-linejoin:round;stroke-miterlimit:4;stroke-dasharray:none;stroke-opacity:1"
               d="M 65.099998,0.24900001 V 84.400002" /><path
               id="path40"
               style="fill:#000000;fill-opacity:1;fill-rule:nonzero;stroke:none"
               d="m 65.099998,79.656006 -2.881996,-1.751999 -0.066,0.098 1.867001,4.699996 c 0.36,1.637002 0.720993,3.275002 1.080993,4.913002 0.360001,-1.638 0.720002,-3.276 1.081002,-4.913002 l 1.866005,-4.699996 -0.048,-0.098 L 65.1,79.656006" /><path
               id="path42"
               style="fill:none;stroke:#000000;stroke-width:1;stroke-linecap:butt;stroke-linejoin:round;stroke-miterlimit:4;stroke-dasharray:none;stroke-opacity:1"
               d="M 120.25,73.800003 120.52501,74 l 0.25,0.200005 0.25,0.198997 0.27499,0.200996 0.25,0.200005 0.25,0.223999 0.25,0.201004 0.275,0.199997 0.25,0.199997 0.25,0.200005 0.275,0.198997 0.5,0.401001 0.27501,0.223999 0.75,0.600998 0.27499,0.199997 0.24999,0.199005 0.25001,0.200996 0.275,0.199997 0.25,0.224007 0.25,0.201004 0.275,0.199997 0.25,0.199997 0.25,0.200005 0.25,0.199997 0.27501,0.200004 0.25,0.199997 0.25,0.224999 0.27499,0.199996 0.5,0.400002 0.27501,0.200005 0.25,0.199997 m -34.500008,-27.201001 0.5,0.401001 0.274993,0.199002 0.250008,0.200996 0.249992,0.199001 0.250008,0.200001 0.275002,0.201 0.25,0.224999 0.25,0.199001 0.274993,0.201 0.25,0.199002 0.25,0.2 0.27501,0.201001 0.25,0.198997 0.25,0.201 0.25,0.224995 0.274994,0.199005 0.25,0.200996 0.25,0.199006 0.275001,0.2 0.249997,0.200993 0.25,0.199005 0.275,0.200996 0.25,0.225007 0.25,0.198997 0.25,0.201 0.27501,0.200001 0.25,0.200001 0.25,0.200001 0.27499,0.198997 0.25,0.201 0.25,0.224999 0.275,0.199001 0.5,0.400997 0.25,0.199005 0.275,0.200997 0.25,0.199001 0.25,0.201 0.275,0.225003 0.25,0.198997 0.25,0.201 0.275,0.200001 0.25,0.199001 0.5,0.400998 0.27501,0.2 0.25,0.224995 0.25,0.200001 0.27498,0.2 0.25001,0.199997 0.24999,0.200005 0.27501,0.199997 0.25,0.200005 0.25,0.199996 0.25,0.225007 0.275,0.199997 0.25,0.200004 0.25,0.199997 0.27501,0.198998 0.25,0.201004 0.25,0.199997 0.27499,0.200004 0.25,0.224999 0.25,0.199997 0.25,0.199996 0.275,0.200005 0.25,0.199997 0.25001,0.200005 0.27499,0.199997 0.25,0.199996 0.25,0.200005 0.275,0.224999 0.25,0.200004 0.5,0.399994 0.275,0.200005 0.25,0.199997 0.25,0.200004 0.27501,0.199997 0.25,0.224999 0.25,0.199996 0.27498,0.199997 L 116.4,70.75 l 0.24999,0.199997 0.25001,0.200005 0.275,0.199996 0.25,0.199997 0.25,0.225007 0.275,0.200004 0.25,0.199997 0.25,0.199997 0.27501,0.200005 0.5,0.400001 0.25,0.199997 0.27499,0.224999 0.25,0.199996 0.25,0.200005 m -50.975998,-40.226002 0.25,0.224999 0.276001,0.200001 0.249992,0.2 0.250008,0.200001 0.249992,0.200001 0.27501,0.199997 0.25,0.201 0.25,0.199001 0.274993,0.224999 0.25,0.200001 0.25,0.2 0.275002,0.200001 0.25,0.200001 0.5,0.399998 0.274002,0.2 0.25,0.225003 0.25,0.200996 0.276001,0.199001 0.25,0.200001 0.25,0.200001 0.274994,0.200001 0.250008,0.199997 0.249992,0.2 0.250008,0.225003 0.275001,0.199997 0.25,0.2 0.25,0.200001 0.274994,0.201 0.25,0.199002 0.25,0.200996 0.274002,0.199001 0.25,0.225003 0.25,0.199997 0.25,0.2 0.275993,0.200001 0.250008,0.201 0.249992,0.199002 0.27501,0.199997 0.25,0.2 0.25,0.200001 0.274993,0.226002 0.25,0.198997 0.5,0.401001 0.27501,0.199002 0.5,0.400997 0.273994,0.199001 0.25,0.224999 0.25,0.201 0.276001,0.199001 0.25,0.200996 0.25,0.199006 0.25,0.200996 0.275002,0.200001 0.249992,0.199001 0.250008,0.224999 0.275001,0.201 0.25,0.199001 0.25,0.201 0.274994,0.200001 0.25,0.198998 0.25,0.201 L 86,46.774002 86.274002,47 l 0.25,0.200001 0.25,0.199001 0.275993,0.201 0.250008,0.199997 0.249992,0.199002 0.27501,0.201 0.25,0.199001 0.25,0.224999 0.25,0.201 0.274993,0.199001 0.5,0.401001 0.27501,0.200001 0.5,0.399998 0.273994,0.223999 0.5,0.400997 0.25,0.2 0.276001,0.200001 0.25,0.199002 0.25,0.200996 0.275002,0.200001 0.249992,0.225006 0.250008,0.199997 0.275001,0.200001 0.25,0.2 0.25,0.200001 0.25,0.199001 L 94,53.075001 94.25,53.275002 94.5,53.5 l 0.274002,0.200001" /><path
               id="path44"
               style="fill:none;stroke:#000000;stroke-width:1;stroke-linecap:butt;stroke-linejoin:round;stroke-miterlimit:4;stroke-dasharray:none;stroke-opacity:1"
               d="m 43.774002,13.474001 0.275002,0.2 0.25,0.225 0.25,0.2 0.25,0.2 0.274997,0.2 0.25,0.199999 0.25,0.200001 0.275997,0.2 0.250004,0.2 0.249996,0.2 0.275006,0.225 0.25,0.2 0.25,0.2 0.25,0.2 0.273998,0.199999 0.5,0.400002 0.275002,0.199999 0.25,0.225 0.25,0.200001 0.274997,0.199999 0.25,0.2 0.25,0.199999 0.25,0.200001 0.276001,0.200001 0.25,0.199999 0.25,0.225 L 51,19.174002 l 0.25,0.199999 0.25,0.2 0.274002,0.199999 0.25,0.200001 0.25,0.200001 0.25,0.199999 0.275002,0.225 0.25,0.200001 0.25,0.199999 0.275997,0.2 0.25,0.199999 0.25,0.200001 0.274997,0.200001 0.250004,0.199999 0.249996,0.225 0.250004,0.200001 0.275002,0.201 0.25,0.198999 0.25,0.199999 0.273998,0.200001 0.25,0.200001 0.25,0.199999 0.275002,0.225 0.5,0.4 0.25,0.2 0.275993,0.200001 0.250004,0.199999 0.249996,0.200001 0.275005,0.200998 0.25,0.224001 0.25,0.200001 0.274998,0.199999 0.25,0.2 0.25,0.200001 0.25,0.200998 0.274002,0.199002 0.25,0.199999 0.25,0.225999 0.275997,0.199002 0.25,0.200998 0.25,0.199001 0.275006,0.200001 0.25,0.200998 0.25,0.199002 0.25,0.199999 0.274997,0.2 0.249996,0.225001 0.250004,0.199999 0.275002,0.2 0.499996,0.401001 0.274002,0.199 0.5,0.400999 0.25,0.224001 0.276001,0.199999 0.25,0.200998 0.25,0.199003 0.274994,0.200996 0.250008,0.199004 0.249992,0.2 0.275009,0.200997 0.25,0.224001 0.5,0.401001 0.274994,0.199001 0.25,0.201 0.25,0.198998 0.274002,0.200001 0.25,0.201 M 29.624001,2.299 l 0.25,0.2250002 0.25,0.2 0.275001,0.1999998 0.5,0.4000001 0.275,0.2000001 0.25,0.2 0.25,0.2000001 0.25,0.2249999 0.274999,0.1999998 0.25,0.2000003 0.25,0.1999998 0.275002,0.2000003 0.25,0.1999998 0.25,0.2000003 L 33.75,5.5490003 34,5.7740002 l 0.5,0.4000001 0.274002,0.1999998 0.25,0.2000003 0.25,0.1999998 0.274998,0.2000003 0.250004,0.1999998 0.25,0.2249999 0.274997,0.2000003 0.25,0.1999998 0.25,0.2000002 0.25,0.1999999 0.275002,0.1999998 0.25,0.1999998 0.25,0.2000007 0.275997,0.2249995 0.25,0.1999998 0.25,0.2000007 0.274002,0.1999998 0.5,0.3999995 0.25,0.200001 0.275002,0.2 0.25,0.224999 0.25,0.200001 0.274997,0.2 0.25,0.2 0.25,0.199999 0.276001,0.2 0.25,0.200001 0.25,0.2 0.25,0.224999 0.274998,0.200001 0.5,0.401 0.274002,0.198999 0.25,0.2 0.25,0.200001" /><text
               id="text48"
               style="font-style:italic;font-variant:normal;font-size:11px;font-family:Times;-inkscape-font-specification:Times-Italic;writing-mode:lr-tb;fill:#000000;fill-opacity:1;fill-rule:nonzero;stroke:none"
               transform="matrix(1,0,0,-1,145,15.5)"><tspan
                 id="tspan46"
                 y="0"
                 x="0">x</tspan></text>
<text
               id="text52"
               style="font-style:italic;font-variant:normal;font-size:9px;font-family:Times;-inkscape-font-specification:Times-Italic;writing-mode:lr-tb;fill:#000000;fill-opacity:1;fill-rule:nonzero;stroke:none"
               transform="matrix(1,0,0,-1,69,83)"><tspan
                 id="tspan50"
                 y="0"
                 x="0">y</tspan></text>
<text
               id="text56"
               style="font-variant:normal;font-weight:normal;font-size:9px;font-family:Times;-inkscape-font-specification:Times-Roman;writing-mode:lr-tb;fill:#000000;fill-opacity:1;fill-rule:nonzero;stroke:none"
               transform="matrix(1,0,0,-1,68.000099,13.999701)"><tspan
                 id="tspan54"
                 y="0"
                 x="0">0</tspan></text>
<path
               id="path58"
               style="fill:#000000;fill-opacity:1;fill-rule:nonzero;stroke:#000000;stroke-width:1;stroke-linecap:butt;stroke-linejoin:round;stroke-miterlimit:4;stroke-dasharray:none;stroke-opacity:1"
               d="m 69.662003,31.062002 c 0.975997,0 1.767997,0.790999 1.767997,1.767996 0,0.976002 -0.792,1.768005 -1.767997,1.768005 -0.975998,0 -1.766999,-0.792003 -1.766999,-1.768005 0,-0.976997 0.791001,-1.767996 1.766999,-1.767996 z" /><path
               id="path60"
               style="fill:#000000;fill-opacity:1;fill-rule:nonzero;stroke:#000000;stroke-width:1;stroke-linecap:butt;stroke-linejoin:round;stroke-miterlimit:4;stroke-dasharray:none;stroke-opacity:1"
               d="m 118.662,70.062004 c 0.97601,0 1.768,0.792 1.768,1.767998 0,0.975998 -0.79199,1.768005 -1.768,1.768005 -0.976,0 -1.767,-0.792007 -1.767,-1.768005 0,-0.975998 0.791,-1.767998 1.767,-1.767998 z" /><text
               id="text64"
               style="font-variant:normal;font-weight:normal;font-size:11.95500088px;font-family:CMMI12;-inkscape-font-specification:CMMI12;writing-mode:lr-tb;fill:#000000;fill-opacity:1;fill-rule:nonzero;stroke:none"
               transform="matrix(1,0,0,-1,74.182098,26.856001)"><tspan
                 id="tspan62"
                 y="0"
                 x="0">A</tspan></text>
<text
               id="text68"
               style="font-variant:normal;font-weight:normal;font-size:11.95500088px;font-family:CMR12;-inkscape-font-specification:CMR12;writing-mode:lr-tb;fill:#000000;fill-opacity:1;fill-rule:nonzero;stroke:none"
               transform="matrix(1,0,0,-1,82.957069,26.856001)"><tspan
                 id="tspan66"
                 y="0"
                 x="0">(</tspan></text>
<text
               id="text72"
               style="font-variant:normal;font-weight:normal;font-size:11.95500088px;font-family:CMMI12;-inkscape-font-specification:CMMI12;writing-mode:lr-tb;fill:#000000;fill-opacity:1;fill-rule:nonzero;stroke:none"
               transform="matrix(1,0,0,-1,87.510727,26.856001)"><tspan
                 id="tspan70"
                 y="0"
                 x="0">x</tspan></text>
<text
               id="text76"
               style="font-variant:normal;font-weight:normal;font-size:7.96999979px;font-family:CMR8;-inkscape-font-specification:CMR8;writing-mode:lr-tb;fill:#000000;fill-opacity:1;fill-rule:nonzero;stroke:none"
               transform="matrix(1,0,0,-1,94.162094,25.062)"><tspan
                 id="tspan74"
                 y="0"
                 x="0">1</tspan></text>
<text
               id="text80"
               style="font-variant:normal;font-weight:normal;font-size:11.95500088px;font-family:CMMI12;-inkscape-font-specification:CMMI12;writing-mode:lr-tb;fill:#000000;fill-opacity:1;fill-rule:nonzero;stroke:none"
               transform="matrix(1,0,0,-1,98.894005,26.856001)"><tspan
                 id="tspan78"
                 y="0"
                 x="0">,</tspan></text>
<text
               id="text84"
               style="font-variant:normal;font-weight:normal;font-size:11.95500088px;font-family:CMMI12;-inkscape-font-specification:CMMI12;writing-mode:lr-tb;fill:#000000;fill-opacity:1;fill-rule:nonzero;stroke:none"
               transform="matrix(1,0,0,-1,104.13866,26.856001)"><tspan
                 id="tspan82"
                 y="0"
                 x="0">y</tspan></text>
<text
               id="text88"
               style="font-variant:normal;font-weight:normal;font-size:7.96999979px;font-family:CMR8;-inkscape-font-specification:CMR8;writing-mode:lr-tb;fill:#000000;fill-opacity:1;fill-rule:nonzero;stroke:none"
               transform="matrix(1,0,0,-1,109.8462,25.062)"><tspan
                 id="tspan86"
                 y="0"
                 x="0">1</tspan></text>
<text
               id="text92"
               style="font-variant:normal;font-weight:normal;font-size:11.95500088px;font-family:CMR12;-inkscape-font-specification:CMR12;writing-mode:lr-tb;fill:#000000;fill-opacity:1;fill-rule:nonzero;stroke:none"
               transform="matrix(1,0,0,-1,114.57809,26.856001)"><tspan
                 id="tspan90"
                 y="0"
                 x="0">)</tspan></text>
<text
               id="text96"
               style="font-variant:normal;font-weight:normal;font-size:11.95500088px;font-family:CMMI12;-inkscape-font-specification:CMMI12;writing-mode:lr-tb;fill:#000000;fill-opacity:1;fill-rule:nonzero;stroke:none"
               transform="matrix(1,0,0,-1,124.02613,66.132957)"><tspan
                 id="tspan94"
                 y="0"
                 x="0">B</tspan></text>
<text
               id="text100"
               style="font-variant:normal;font-weight:normal;font-size:11.95500088px;font-family:CMR12;-inkscape-font-specification:CMR12;writing-mode:lr-tb;fill:#000000;fill-opacity:1;fill-rule:nonzero;stroke:none"
               transform="matrix(1,0,0,-1,133.52199,66.132957)"><tspan
                 id="tspan98"
                 y="0"
                 x="0">(</tspan></text>
<text
               id="text104"
               style="font-variant:normal;font-weight:normal;font-size:11.95500088px;font-family:CMMI12;-inkscape-font-specification:CMMI12;writing-mode:lr-tb;fill:#000000;fill-opacity:1;fill-rule:nonzero;stroke:none"
               transform="matrix(1,0,0,-1,138.07326,66.132957)"><tspan
                 id="tspan102"
                 y="0"
                 x="0">x</tspan></text>
<text
               id="text108"
               style="font-variant:normal;font-weight:normal;font-size:7.96999979px;font-family:CMR8;-inkscape-font-specification:CMR8;writing-mode:lr-tb;fill:#000000;fill-opacity:1;fill-rule:nonzero;stroke:none"
               transform="matrix(1,0,0,-1,144.72659,64.339401)"><tspan
                 id="tspan106"
                 y="0"
                 x="0">2</tspan></text>
<text
               id="text112"
               style="font-variant:normal;font-weight:normal;font-size:11.95500088px;font-family:CMMI12;-inkscape-font-specification:CMMI12;writing-mode:lr-tb;fill:#000000;fill-opacity:1;fill-rule:nonzero;stroke:none"
               transform="matrix(1,0,0,-1,149.4595,66.133301)"><tspan
                 id="tspan110"
                 y="0"
                 x="0">,</tspan></text>
<text
               id="text116"
               style="font-variant:normal;font-weight:normal;font-size:11.95500088px;font-family:CMMI12;-inkscape-font-specification:CMMI12;writing-mode:lr-tb;fill:#000000;fill-opacity:1;fill-rule:nonzero;stroke:none"
               transform="matrix(1,0,0,-1,154.70297,66.133301)"><tspan
                 id="tspan114"
                 y="0"
                 x="0">y</tspan></text>
<text
               id="text120"
               style="font-variant:normal;font-weight:normal;font-size:7.96999979px;font-family:CMR8;-inkscape-font-specification:CMR8;writing-mode:lr-tb;fill:#000000;fill-opacity:1;fill-rule:nonzero;stroke:none"
               transform="matrix(1,0,0,-1,160.4102,64.339401)"><tspan
                 id="tspan118"
                 y="0"
                 x="0">2</tspan></text>
<text
               id="text124"
               style="font-variant:normal;font-weight:normal;font-size:11.95500088px;font-family:CMR12;-inkscape-font-specification:CMR12;writing-mode:lr-tb;fill:#000000;fill-opacity:1;fill-rule:nonzero;stroke:none"
               transform="matrix(1,0,0,-1,165.1436,66.133301)"><tspan
                 id="tspan122"
                 y="0"
                 x="0">)</tspan></text>
</g></g></g></g></g></svg>