<?xml version="1.0" encoding="UTF-8" standalone="no"?>
<svg
   xmlns:dc="http://purl.org/dc/elements/1.1/"
   xmlns:cc="http://creativecommons.org/ns#"
   xmlns:rdf="http://www.w3.org/1999/02/22-rdf-syntax-ns#"
   xmlns:svg="http://www.w3.org/2000/svg"
   xmlns="http://www.w3.org/2000/svg"
   viewBox="0 0 632 130.66667"
   height="130.66667"
   width="632"
   xml:space="preserve"
   id="svg2"
   version="1.1"><metadata
     id="metadata8"><rdf:RDF><cc:Work
         rdf:about=""><dc:format>image/svg+xml</dc:format><dc:type
           rdf:resource="http://purl.org/dc/dcmitype/StillImage" /></cc:Work></rdf:RDF></metadata><defs
     id="defs6"><clipPath
       id="clipPath24"
       clipPathUnits="userSpaceOnUse"><path
         id="path22"
         d="M 0,0 H 474 V 98 H 0 Z" /></clipPath></defs><g
     transform="matrix(1.3333333,0,0,-1.3333333,0,130.66667)"
     id="g10"><g
       id="g12" /><g
       id="g14" /><g
       id="g16"><g
         id="g18"><g
           clip-path="url(#clipPath24)"
           id="g20"><g
             id="g26" /><g
             id="g28"><path
               id="path30"
               style="fill:#000000;fill-opacity:1;fill-rule:nonzero;stroke:#000000;stroke-width:0.5;stroke-linecap:butt;stroke-linejoin:miter;stroke-miterlimit:4;stroke-dasharray:none;stroke-opacity:1"
               d="M 23,89 V 0.5" /><path
               id="path32"
               style="fill:#000000;fill-opacity:1;fill-rule:nonzero;stroke:none"
               d="m 23,88.756004 -2.882,-1.751999 -0.066,0.098 1.867001,4.699997 c 0.360998,1.637001 0.720998,3.275001 1.080999,4.912003 0.359999,-1.637002 0.721001,-3.275002 1.081001,-4.912003 l 1.867001,-4.699997 -0.049,-0.098 L 23,88.756004" /><path
               id="path34"
               style="fill:#000000;fill-opacity:1;fill-rule:nonzero;stroke:#000000;stroke-width:0.5;stroke-linecap:butt;stroke-linejoin:miter;stroke-miterlimit:4;stroke-dasharray:none;stroke-opacity:1"
               d="M 0.5,11 H 128" /><path
               id="path36"
               style="fill:#000000;fill-opacity:1;fill-rule:nonzero;stroke:none"
               d="m 127.756,11 -1.75199,2.882001 0.098,0.066 L 130.802,12.081 c 1.63701,-0.359999 3.27501,-0.721 4.91301,-1.081 -1.638,-0.360001 -3.276,-0.721 -4.91301,-1.0809994 L 126.10201,8.052 126.00401,8.1010008 127.756,11" /><path
               id="path38"
               style="fill:#000000;fill-opacity:1;fill-rule:nonzero;stroke:#000000;stroke-width:1;stroke-linecap:butt;stroke-linejoin:miter;stroke-miterlimit:4;stroke-dasharray:none;stroke-opacity:1"
               d="m 12,31 93,33" /><text
               id="text42"
               style="font-style:italic;font-variant:normal;font-size:10px;font-family:Times;-inkscape-font-specification:Times-Italic;writing-mode:lr-tb;fill:#000000;fill-opacity:1;fill-rule:nonzero;stroke:none"
               transform="matrix(1,0,0,-1,75,32)"><tspan
                 id="tspan40"
                 y="0"
                 x="0">a</tspan></text>
<text
               id="text46"
               style="font-variant:normal;font-weight:normal;font-size:10px;font-family:Times;-inkscape-font-specification:Times-Roman;writing-mode:lr-tb;fill:#000000;fill-opacity:1;fill-rule:nonzero;stroke:none"
               transform="matrix(1,0,0,-1,82.5,32)"><tspan
                 id="tspan44"
                 y="0"
                 x="0 2.78 6.6700001 9.1700001 14.17 19.17 23.059999 25.84 28.620001">is positi</tspan></text>
<text
               id="text50"
               style="font-variant:normal;font-weight:normal;font-size:10px;font-family:Times;-inkscape-font-specification:Times-Roman;writing-mode:lr-tb;fill:#000000;fill-opacity:1;fill-rule:nonzero;stroke:none"
               transform="matrix(1,0,0,-1,113.64999,32)"><tspan
                 id="tspan48"
                 y="0"
                 x="0">v</tspan></text>
<text
               id="text54"
               style="font-variant:normal;font-weight:normal;font-size:10px;font-family:Times;-inkscape-font-specification:Times-Roman;writing-mode:lr-tb;fill:#000000;fill-opacity:1;fill-rule:nonzero;stroke:none"
               transform="matrix(1,0,0,-1,118.49999,32)"><tspan
                 id="tspan52"
                 y="0"
                 x="0">e</tspan></text>
<text
               id="text58"
               style="font-style:italic;font-variant:normal;font-size:11px;font-family:Times;-inkscape-font-specification:Times-Italic;writing-mode:lr-tb;fill:#000000;fill-opacity:1;fill-rule:nonzero;stroke:none"
               transform="matrix(1,0,0,-1,145,8)"><tspan
                 id="tspan56"
                 y="0"
                 x="0">x</tspan></text>
<text
               id="text62"
               style="font-style:italic;font-variant:normal;font-size:11px;font-family:Times;-inkscape-font-specification:Times-Italic;writing-mode:lr-tb;fill:#000000;fill-opacity:1;fill-rule:nonzero;stroke:none"
               transform="matrix(1,0,0,-1,8.0005083,87.999695)"><tspan
                 id="tspan60"
                 y="0"
                 x="0">y</tspan></text>
<path
               id="path64"
               style="fill:#000000;fill-opacity:1;fill-rule:nonzero;stroke:#000000;stroke-width:0.5;stroke-linecap:butt;stroke-linejoin:miter;stroke-miterlimit:4;stroke-dasharray:none;stroke-opacity:1"
               d="M 182.55901,88.993004 V 0.49300003" /><path
               id="path66"
               style="fill:#000000;fill-opacity:1;fill-rule:nonzero;stroke:none"
               d="m 182.55901,88.749001 -2.88201,-1.752999 -0.066,0.099 1.867,4.699005 c 0.36,1.638001 0.721,3.275994 1.081,4.913002 0.36,-1.637008 0.72,-3.275001 1.08099,-4.913002 l 1.867,-4.699005 -0.05,-0.099 -2.89801,1.752999" /><path
               id="path68"
               style="fill:#000000;fill-opacity:1;fill-rule:nonzero;stroke:#000000;stroke-width:0.5;stroke-linecap:butt;stroke-linejoin:miter;stroke-miterlimit:4;stroke-dasharray:none;stroke-opacity:1"
               d="M 160.05901,10.993001 H 287.55902" /><path
               id="path70"
               style="fill:#000000;fill-opacity:1;fill-rule:nonzero;stroke:none"
               d="m 287.315,10.993001 -1.75299,2.882 0.099,0.065 4.70001,-1.866999 c 1.637,-0.360001 3.275,-0.72 4.91199,-1.08 -1.63699,-0.361 -3.27499,-0.721001 -4.91199,-1.0810003 l -4.70001,-1.8670006 -0.099,0.049001 1.75299,2.8989999" /><path
               id="path72"
               style="fill:#000000;fill-opacity:1;fill-rule:nonzero;stroke:#000000;stroke-width:1;stroke-linecap:butt;stroke-linejoin:miter;stroke-miterlimit:4;stroke-dasharray:none;stroke-opacity:1"
               d="M 171.42999,63.625004 264.68802,31.361002" /><text
               id="text76"
               style="font-style:italic;font-variant:normal;font-size:10px;font-family:Times;-inkscape-font-specification:Times-Italic;writing-mode:lr-tb;fill:#000000;fill-opacity:1;fill-rule:nonzero;stroke:none"
               transform="matrix(1,0,0,-1,229.55879,58.992699)"><tspan
                 id="tspan74"
                 y="0"
                 x="0">a</tspan></text>
<text
               id="text80"
               style="font-variant:normal;font-weight:normal;font-size:10px;font-family:Times;-inkscape-font-specification:Times-Roman;writing-mode:lr-tb;fill:#000000;fill-opacity:1;fill-rule:nonzero;stroke:none"
               transform="matrix(1,0,0,-1,237.05879,58.992699)"><tspan
                 id="tspan78"
                 y="0"
                 x="0 2.78 6.6700001 9.1700001 14.17">is ne</tspan></text>
<text
               id="text84"
               style="font-variant:normal;font-weight:normal;font-size:10px;font-family:Times;-inkscape-font-specification:Times-Roman;writing-mode:lr-tb;fill:#000000;fill-opacity:1;fill-rule:nonzero;stroke:none"
               transform="matrix(1,0,0,-1,255.50377,58.992699)"><tspan
                 id="tspan82"
                 y="0"
                 x="0 5 9.4399996 12.22">gati</tspan></text>
<text
               id="text88"
               style="font-variant:normal;font-weight:normal;font-size:10px;font-family:Times;-inkscape-font-specification:Times-Roman;writing-mode:lr-tb;fill:#000000;fill-opacity:1;fill-rule:nonzero;stroke:none"
               transform="matrix(1,0,0,-1,270.23877,58.992699)"><tspan
                 id="tspan86"
                 y="0"
                 x="0">v</tspan></text>
<text
               id="text92"
               style="font-variant:normal;font-weight:normal;font-size:10px;font-family:Times;-inkscape-font-specification:Times-Roman;writing-mode:lr-tb;fill:#000000;fill-opacity:1;fill-rule:nonzero;stroke:none"
               transform="matrix(1,0,0,-1,275.08878,58.992699)"><tspan
                 id="tspan90"
                 y="0"
                 x="0">e</tspan></text>
<text
               id="text96"
               style="font-style:italic;font-variant:normal;font-size:11px;font-family:Times;-inkscape-font-specification:Times-Italic;writing-mode:lr-tb;fill:#000000;fill-opacity:1;fill-rule:nonzero;stroke:none"
               transform="matrix(1,0,0,-1,304.55881,7.9926996)"><tspan
                 id="tspan94"
                 y="0"
                 x="0">x</tspan></text>
<text
               id="text100"
               style="font-style:italic;font-variant:normal;font-size:11px;font-family:Times;-inkscape-font-specification:Times-Italic;writing-mode:lr-tb;fill:#000000;fill-opacity:1;fill-rule:nonzero;stroke:none"
               transform="matrix(1,0,0,-1,167.55931,87.992401)"><tspan
                 id="tspan98"
                 y="0"
                 x="0">y</tspan></text>
<path
               id="path102"
               style="fill:#000000;fill-opacity:1;fill-rule:nonzero;stroke:#000000;stroke-width:0.5;stroke-linecap:butt;stroke-linejoin:miter;stroke-miterlimit:4;stroke-dasharray:none;stroke-opacity:1"
               d="M 346.55902,88.993004 V 0.49300003" /><path
               id="path104"
               style="fill:#000000;fill-opacity:1;fill-rule:nonzero;stroke:none"
               d="m 346.55902,88.749001 -2.88202,-1.752999 -0.066,0.099 1.86701,4.699005 c 0.35998,1.638001 0.72098,3.275994 1.08099,4.913002 0.35999,-1.637008 0.72,-3.275001 1.08096,-4.913002 l 1.86704,-4.699005 -0.05,-0.099 -2.89801,1.752999" /><path
               id="path106"
               style="fill:#000000;fill-opacity:1;fill-rule:nonzero;stroke:#000000;stroke-width:0.5;stroke-linecap:butt;stroke-linejoin:miter;stroke-miterlimit:4;stroke-dasharray:none;stroke-opacity:1"
               d="m 324.05902,10.993001 h 127.5" /><path
               id="path108"
               style="fill:#000000;fill-opacity:1;fill-rule:nonzero;stroke:none"
               d="m 451.31503,10.993001 -1.75302,2.882 0.099,0.065 4.69898,-1.866999 c 1.63803,-0.360001 3.27603,-0.72 4.91302,-1.08 -1.63699,-0.361 -3.27499,-0.721001 -4.91302,-1.0810003 l -4.69898,-1.8670006 -0.099,0.049001 1.75302,2.8989999" /><text
               id="text112"
               style="font-style:italic;font-variant:normal;font-size:10px;font-family:Times;-inkscape-font-specification:Times-Italic;writing-mode:lr-tb;fill:#000000;fill-opacity:1;fill-rule:nonzero;stroke:none"
               transform="matrix(1,0,0,-1,384.55878,43.992699)"><tspan
                 id="tspan110"
                 y="0"
                 x="0">a</tspan></text>
<text
               id="text116"
               style="font-variant:normal;font-weight:normal;font-size:10px;font-family:Times;-inkscape-font-specification:Times-Roman;writing-mode:lr-tb;fill:#000000;fill-opacity:1;fill-rule:nonzero;stroke:none"
               transform="matrix(1,0,0,-1,392.05878,43.992699)"><tspan
                 id="tspan114"
                 y="0"
                 x="0 2.78 6.6700001 9.1700001 13.61 18.049999 21.379999">is zero</tspan></text>
<text
               id="text120"
               style="font-style:italic;font-variant:normal;font-size:11px;font-family:Times;-inkscape-font-specification:Times-Italic;writing-mode:lr-tb;fill:#000000;fill-opacity:1;fill-rule:nonzero;stroke:none"
               transform="matrix(1,0,0,-1,468.55878,7.9926996)"><tspan
                 id="tspan118"
                 y="0"
                 x="0">x</tspan></text>
<text
               id="text124"
               style="font-style:italic;font-variant:normal;font-size:11px;font-family:Times;-inkscape-font-specification:Times-Italic;writing-mode:lr-tb;fill:#000000;fill-opacity:1;fill-rule:nonzero;stroke:none"
               transform="matrix(1,0,0,-1,331.5593,87.992401)"><tspan
                 id="tspan122"
                 y="0"
                 x="0">y</tspan></text>
<path
               id="path126"
               style="fill:#000000;fill-opacity:1;fill-rule:nonzero;stroke:#000000;stroke-width:1;stroke-linecap:butt;stroke-linejoin:miter;stroke-miterlimit:4;stroke-dasharray:none;stroke-opacity:1"
               d="m 337,39 h 94" /></g></g></g></g></g></svg>