<?xml version="1.0" encoding="UTF-8" standalone="no"?>
<svg
   xmlns:dc="http://purl.org/dc/elements/1.1/"
   xmlns:cc="http://creativecommons.org/ns#"
   xmlns:rdf="http://www.w3.org/1999/02/22-rdf-syntax-ns#"
   xmlns:svg="http://www.w3.org/2000/svg"
   xmlns="http://www.w3.org/2000/svg"
   viewBox="0 0 201.33333 169.33333"
   height="169.33333"
   width="201.33333"
   xml:space="preserve"
   id="svg2"
   version="1.1"><metadata
     id="metadata8"><rdf:RDF><cc:Work
         rdf:about=""><dc:format>image/svg+xml</dc:format><dc:type
           rdf:resource="http://purl.org/dc/dcmitype/StillImage" /></cc:Work></rdf:RDF></metadata><defs
     id="defs6"><clipPath
       id="clipPath24"
       clipPathUnits="userSpaceOnUse"><path
         id="path22"
         d="M 0,0 H 151 V 127 H 0 Z" /></clipPath></defs><g
     transform="matrix(1.3333333,0,0,-1.3333333,0,169.33333)"
     id="g10"><g
       id="g12" /><g
       id="g14" /><g
       id="g16"><g
         id="g18"><g
           clip-path="url(#clipPath24)"
           id="g20"><g
             id="g26" /><g
             id="g28"><path
               id="path30"
               style="fill:none;stroke:#000000;stroke-width:0.5;stroke-linecap:butt;stroke-linejoin:round;stroke-miterlimit:4;stroke-dasharray:none;stroke-opacity:1"
               d="M 0.74900001,17 H 2.549 m -0.9,0.9 V 16.099001 M 17.074001,17 h 1.8 m -0.9,0.9 V 16.099001 M 49.75,17 h 1.799999 m -0.900001,0.9 V 16.099001 M 66.075005,17 H 67.875 m -0.899994,0.9 V 16.099001 M 82.400002,17 h 1.800003 m -0.900002,0.9 V 16.099001 M 98.725006,17 H 100.525 m -0.899992,0.9 V 16.099001 M 115.05,17 h 1.8 m -0.9,0.9 V 16.099001 M 131.375,17 h 1.8 m -0.89999,0.9 V 16.099001 M 33.399002,34.025002 h 1.799999 M 34.299,34.925003 V 33.125 m -0.899998,17.924999 h 1.799999 M 34.299,51.949997 v -1.799999 m -0.899998,17.95 h 1.799999 M 34.299,69 v -1.799995 m -0.899998,17.925003 h 1.799999 M 34.299,86.025002 V 84.225006 M 33.399002,102.15 h 1.799999 m -0.900001,0.9 v -1.8 M 1.649,17 h 133.90201" /><path
               id="path32"
               style="fill:#231f20;fill-opacity:1;fill-rule:nonzero;stroke:#000000;stroke-width:0.5;stroke-linecap:butt;stroke-linejoin:miter;stroke-miterlimit:4;stroke-dasharray:none;stroke-opacity:1"
               d="m 134.53,17 -2.19,3.602001 0.12301,0.082 5.875,-2.333 C 140.38501,17.9 142.43201,17.449999 144.479,17 c -2.04699,-0.450998 -4.09399,-0.900999 -6.14099,-1.351999 l -5.875,-2.333 -0.12301,0.061 2.19,3.624 z" /><path
               id="path34"
               style="fill:none;stroke:#000000;stroke-width:0.5;stroke-linecap:butt;stroke-linejoin:round;stroke-miterlimit:4;stroke-dasharray:none;stroke-opacity:1"
               d="M 34.299,6.7740002 V 112.37501" /><path
               id="path36"
               style="fill:#231f20;fill-opacity:1;fill-rule:nonzero;stroke:#000000;stroke-width:0.5;stroke-linecap:butt;stroke-linejoin:miter;stroke-miterlimit:4;stroke-dasharray:none;stroke-opacity:1"
               d="m 34.299,111.355 -3.601998,-2.18999 -0.082,0.12299 2.333,5.875 c 0.451,2.047 0.901001,4.094 1.350998,6.14101 0.451,-2.04701 0.901001,-4.09401 1.352001,-6.14101 l 2.333,-5.875 -0.061,-0.12299 z" /><path
               id="path38"
               style="fill:none;stroke:#000000;stroke-width:1;stroke-linecap:butt;stroke-linejoin:round;stroke-miterlimit:4;stroke-dasharray:none;stroke-opacity:1"
               d="m 116.12501,95.475006 0.15,0.150002 0.17499,0.124992 0.15,0.150002 0.17501,0.125 0.14999,0.125 0.175,0.150001 0.15,0.125 0.175,0.150002 0.175,0.125 0.15,0.149993 0.175,0.125008 0.15,0.150002 0.175,0.124992 0.15,0.125008 0.175,0.149994 0.15001,0.125 0.17499,0.150001 0.15,0.125 0.17501,0.150002 0.15,0.125 0.17499,0.149993 0.15,0.125008 0.17501,0.150002 0.15,0.124992 0.17499,0.125008 0.17501,0.149994 0.15,0.125 0.17499,0.150001 0.15,0.125 0.17501,0.150002 0.14999,0.125 0.175,0.149993 0.15,0.125008 0.175,0.124994 0.15,0.15 0.175,0.12501 0.14999,0.14999 0.17501,0.125 0.15001,0.15 0.17498,0.125 0.17501,0.15 0.15001,0.125 0.17498,0.15 0.15001,0.12501 0.17501,0.12499 0.15,0.15 0.17499,0.12501 0.15,0.14999 0.17501,0.125 0.15,0.15 0.17499,0.125 0.15,0.15 0.17501,0.125 0.14999,0.125 0.175,0.15001 0.17501,0.12499 0.14999,0.15 0.175,0.12501 0.15,0.14999 0.175,0.12499 0.15,0.15001 0.175,0.125 0.15,0.15 0.175,0.125 0.15001,0.125 0.17499,0.15001 0.15,0.12499 0.17501,0.15 0.15,0.12501 0.17599,0.14999 0.15,0.12499 0.17501,0.15001 0.175,0.125 0.14999,0.125 0.17501,0.15 0.14999,0.125 0.175,0.15001 0.14899,0.12499 0.17601,0.15 0.15001,0.12501 0.175,0.14999 0.15,0.12499 0.175,0.15001 0.14999,0.125 0.174,0.125 0.151,0.15 0.175,0.125 0.17501,0.15001 0.14999,0.12499 0.175,0.15 0.14901,0.12501 0.17599,0.14999 0.15001,0.12499 0.174,0.12501 0.151,0.15 0.175,0.125 0.14999,0.15 0.17501,0.125 0.14999,0.15001 M 99.949997,82 100.12501,82.125008 100.275,82.25 l 0.175,0.150002 0.15,0.125 0.175,0.150001 0.15,0.125 0.175,0.149994 0.15,0.125008 0.175,0.150001 0.15,0.124992 0.175,0.150002 0.15,0.125008 0.175,0.124992 0.175,0.150002 0.15,0.125 0.175,0.150001 0.15001,0.125 0.17499,0.149994 0.15,0.125008 0.17501,0.150001 0.15,0.124992 0.17499,0.125008 0.15,0.150002 0.17501,0.124992 0.14999,0.150002 0.175,0.125 0.15,0.150001 0.175,0.125 0.175,0.149994 0.15,0.125008 0.175,0.150001 0.15,0.124992 0.175,0.125008 0.15,0.150002 0.175,0.124992 0.15,0.150002 0.175,0.125 0.14999,0.150001 0.17501,0.125 0.15001,0.149994 0.17498,0.125008 0.15001,0.125 0.17501,0.149993 0.15,0.125008 0.17499,0.150002 0.17501,0.124992 0.15,0.150002 0.17499,0.125 0.15,0.150001 0.17501,0.125 0.14999,0.149994 0.175,0.125008 0.15,0.125 0.175,0.149993 0.15,0.125008 0.175,0.150002 0.15,0.124992 0.175,0.150002 0.15,0.125 0.175,0.150001 0.175,0.125 0.15,0.125 0.175,0.150002 0.15,0.125 0.175,0.149993 0.15001,0.125008 0.17499,0.150002 0.15,0.124992 0.17501,0.150002 0.15,0.125 0.17499,0.150001 0.15,0.125 0.17501,0.125 0.14999,0.150002 0.175,0.125 0.15,0.149993 0.17501,0.125008 0.17499,0.150002 0.15,0.124992 0.17501,0.150002 0.14999,0.125 0.175,0.150001 0.15,0.125 0.175,0.125 0.15,0.150002 0.175,0.125 0.14999,0.149993 0.17501,0.125008 0.15001,0.150002 0.17498,0.124992 0.15001,0.150002 0.34999,0.25 0.15001,0.150001 0.17501,0.125 0.15,0.150002 0.17499,0.125 0.15,0.149993 0.17501,0.125008" /><path
               id="path40"
               style="fill:none;stroke:#000000;stroke-width:1;stroke-linecap:butt;stroke-linejoin:round;stroke-miterlimit:4;stroke-dasharray:none;stroke-opacity:1"
               d="m 83.775002,68.5 0.174995,0.125 0.175011,0.150002 0.149994,0.125 0.174995,0.149993 0.150001,0.125008 0.175004,0.150002 0.150001,0.124992 0.174995,0.150001 L 85.25,69.725006 85.425003,69.849998 85.575005,70 85.75,70.125 l 0.150002,0.150002 0.175003,0.125 0.150001,0.149993 0.174996,0.125008 0.149993,0.150002 0.175011,0.124992 0.174996,0.150001 0.149993,0.125008 0.175011,0.124992 0.150002,0.150002 0.174987,0.125 0.15001,0.150002 0.175003,0.125 0.149994,0.149993 0.175003,0.125008 0.149993,0.150002 0.175004,0.124992 0.150001,0.150001 0.174995,0.125008 L 89,72.849998 89.175003,73 89.349998,73.125 89.5,73.275002 l 0.175003,0.125 0.150002,0.149993 L 90,73.675003 l 0.150002,0.150002 0.175003,0.124992 0.150001,0.125008 0.174996,0.150001 0.150001,0.124992 0.175003,0.150002 0.150002,0.125 0.174995,0.150002 0.149994,0.125 0.175011,0.149993 0.174995,0.125008 0.149994,0.150002 0.175011,0.124992 0.149994,0.125008 0.174995,0.150001 0.150001,0.124992 L 92.775002,76 l 0.150001,0.125 0.174995,0.150002 0.150002,0.125 0.175003,0.149993 0.150002,0.125008 0.174995,0.125 0.150002,0.149994 0.175003,0.125008 0.150001,0.150001 0.174996,0.124992 0.175003,0.150002 0.150001,0.125 0.174996,0.150002 0.149993,0.125 0.175011,0.149993 0.150002,0.125008 0.174987,0.125 0.15001,0.149994 0.175003,0.125008 0.149994,0.150001 0.175003,0.124992 L 96.349998,79 l 0.175004,0.125 0.150001,0.150002 0.174995,0.125 0.175004,0.125 0.150001,0.150001 0.174995,0.125 0.150002,0.149994 0.175003,0.125008 0.150002,0.150001 L 98,80.349998 98.150002,80.5 l 0.175003,0.125008 0.150001,0.149994 0.174996,0.125 0.150001,0.125 0.175003,0.150001 0.150002,0.125 0.174995,0.149994 0.149994,0.125008 0.175011,0.150001 0.174995,0.124992 L 99.949997,82 M 67.625,55 l 0.150002,0.149998 0.174995,0.125004 0.150001,0.150001 0.175004,0.124996 0.150001,0.150002 0.174995,0.125 0.175004,0.150001 0.150001,0.125 0.174995,0.125 L 69.25,56.375004 69.425003,56.5 l 0.150002,0.149998 0.174995,0.125004 0.150002,0.150001 0.175003,0.124996 0.150001,0.150002 0.174996,0.125004 0.149993,0.149997 0.175011,0.125 0.149994,0.125 0.174995,0.150002 L 71.225006,58 71.375,58.149998 l 0.174995,0.125004 0.15001,0.150001 0.174995,0.124996 0.150002,0.150002 0.175003,0.125004 0.149993,0.124992 0.175004,0.150005 0.150001,0.125 0.174995,0.150002 L 73,59.5 l 0.175003,0.149998 0.150002,0.125004 0.174995,0.150001 0.150002,0.124996 0.175003,0.150002 L 74,60.325005 l 0.150002,0.124992 0.175003,0.150005 0.150001,0.125 0.174996,0.150002 L 74.800003,61 l 0.175003,0.149998 0.149994,0.125004 0.175003,0.150001 0.149994,0.124996 0.175003,0.125004 0.150002,0.150002 0.174995,0.124992 0.150001,0.150005 0.175004,0.125 0.174995,0.150002 0.150001,0.124996 0.175004,0.149998 0.150001,0.125004 0.174995,0.150001 0.150002,0.124996 0.175003,0.125004 0.150002,0.150002 0.174995,0.124992 0.150002,0.150005 0.175003,0.125 0.150001,0.150002 L 78.400002,64 l 0.149993,0.150002 0.175011,0.125 0.149994,0.125 0.174995,0.149993 0.175011,0.125008 0.149994,0.150002 0.174995,0.124992 0.15001,0.150001 0.174995,0.125008 0.150002,0.149994 0.175003,0.125 0.149993,0.150002 0.175004,0.125 0.150001,0.125 0.174995,0.149993 L 81,66.175003 81.175003,66.325005 81.325005,66.449997 81.5,66.599998 81.675003,66.725006 81.825005,66.875 82,67 l 0.150002,0.125 0.175003,0.150002 0.150001,0.125 0.174996,0.149993 0.150001,0.125008 0.175003,0.150002 0.150002,0.124992 0.174995,0.150001 0.149994,0.125008 0.175011,0.149994 0.149994,0.125" /><path
               id="path42"
               style="fill:none;stroke:#000000;stroke-width:1;stroke-linecap:butt;stroke-linejoin:round;stroke-miterlimit:4;stroke-dasharray:none;stroke-opacity:1"
               d="m 51.449997,41.525002 0.175007,0.124996 0.149998,0.150001 0.174995,0.125004 0.150005,0.149998 0.175,0.125 0.150001,0.149997 0.174999,0.125004 0.149998,0.125 0.175003,0.149998 0.149998,0.125004 0.174999,0.149998 0.175003,0.124996 0.149998,0.150001 0.174999,0.125004 0.150002,0.149998 0.174999,0.125 0.150001,0.125 0.175,0.150001 0.149997,0.125 0.175003,0.149998 0.150002,0.125004 0.174995,0.149998 0.150002,0.124996 0.175003,0.150001 0.149998,0.125004 0.174999,0.149998 0.175003,0.125 0.149998,0.125 0.174999,0.150001 0.149997,0.125 0.175004,0.149998 0.150001,0.125004 0.174995,0.149998 L 57,46.149998 l 0.175003,0.150001 0.150002,0.125004 0.174995,0.124996 0.149998,0.150002 0.175007,0.125 0.149997,0.150001 0.174996,0.125 0.175007,0.149998 0.149997,0.125004 0.174996,0.149998 0.150001,0.124996 0.175003,0.150001 0.150002,0.125004 0.174995,0.124996 0.149998,0.150002 0.175007,0.125 0.149998,0.150001 0.174995,0.125 0.150005,0.149998 0.175,0.125004 0.150001,0.149998 0.174999,0.124996 0.149998,0.150001 0.350002,0.25 0.149998,0.150002 0.175003,0.125 0.150002,0.150001 0.174995,0.125 0.150002,0.149998 0.175003,0.125004 0.149997,0.149998 0.175,0.124996 0.149997,0.125004 0.175003,0.150001 0.150002,0.124996 0.174995,0.150002 0.150002,0.125 0.175003,0.150001 0.174995,0.125 0.150002,0.149998 0.175003,0.125004 0.149998,0.149998 0.175003,0.124996 0.149993,0.125004 0.175004,0.150001 0.150001,0.124996 0.174995,0.150002 0.150002,0.125 0.175003,0.150001 0.150002,0.125 L 65.5,53.25 65.650002,53.375004 65.825005,53.5 l 0.150001,0.149998 0.174996,0.125004 0.175003,0.150001 0.150001,0.124996 0.174996,0.150002 0.150001,0.125 0.175003,0.150001 0.149994,0.125 L 67.300003,54.75 67.449997,54.875004 67.625,55 m -32.326,-26.974998 0.150001,0.149999 0.175,0.125 0.151001,0.149998 0.173999,0.125002 0.151001,0.150001 0.175,0.124996 0.149002,0.125004 0.175998,0.15 0.148999,0.124998 0.175003,0.15 0.149997,0.125002 0.175,0.149999 0.151001,0.125 0.173999,0.149998 0.175,0.125002 0.151001,0.125 0.173999,0.149997 0.151001,0.125004 0.175,0.15 0.149997,0.124998 0.175003,0.15 0.149998,0.125002 0.174999,0.149999 0.149002,0.125 0.175999,0.149998 0.150002,0.125002 0.174999,0.125 0.149997,0.149997 0.175004,0.125004 0.150001,0.149998 0.174995,0.125 0.175004,0.150002 0.150001,0.125 0.174995,0.150001 L 41,32.799999 l 0.175003,0.125004 0.149998,0.149998 0.174999,0.125 0.149998,0.149997 0.174003,0.125004 0.151001,0.149998 0.174996,0.125 0.150001,0.150002 0.175003,0.125 0.150002,0.150001 0.174995,0.124996 0.175003,0.125004 0.150002,0.149998 0.174995,0.125 0.150002,0.149997 0.175003,0.125004 0.149998,0.149998 0.174999,0.125 0.150001,0.150002 0.175,0.125 0.150001,0.124996 0.174999,0.150001 0.149998,0.125004 0.175003,0.149998 0.149998,0.125 0.174999,0.149997 0.150002,0.125004 0.174999,0.149998 0.174999,0.125 0.150002,0.150002 0.173999,0.125 0.151001,0.124996 0.175,0.150001 0.149997,0.125004 0.175003,0.149998 0.150002,0.125 0.174995,0.149997 0.149002,0.125004 0.176003,0.149998 0.149998,0.125 0.174999,0.125 0.149997,0.150002 0.175004,0.124996 0.174999,0.150001 0.149997,0.125004 0.175004,0.149998 0.150001,0.125 0.174995,0.149997 0.149003,0.125004 0.176002,0.149998 0.149998,0.125 0.174999,0.125 0.149998,0.150002 0.174003,0.124996 0.151001,0.150001 0.174996,0.125004 0.150001,0.149998 0.175003,0.125 0.174996,0.149997 0.150001,0.125004 0.175003,0.125 0.150002,0.149998 0.174995,0.125004 0.149998,0.149998" /><path
               id="path44"
               style="fill:none;stroke:#000000;stroke-width:1;stroke-linecap:butt;stroke-linejoin:round;stroke-miterlimit:4;stroke-dasharray:none;stroke-opacity:1"
               d="m 19.124001,14.549001 0.149999,0.125 0.175001,0.149999 0.15,0.125 0.174999,0.126001 0.175001,0.149999 0.15,0.124001 L 20.274,15.5 l 0.150002,0.125001 0.174999,0.15 0.15,0.125 0.175001,0.149001 0.149999,0.125999 0.175,0.149 0.149999,0.125 0.175001,0.126 0.15,0.149999 L 21.899,16.849001 22.049002,17 22.224001,17.125 22.399,17.275002 22.549002,17.4 l 0.174999,0.149002 0.15,0.125999 0.175001,0.124001 0.149999,0.149999 0.175,0.126 0.149999,0.149999 0.175001,0.124001 0.15,0.150999 0.175001,0.125 0.15,0.150002 0.174999,0.124998 0.15,0.149002 0.35,0.25 0.15,0.149999 0.175001,0.126 0.149999,0.149999 0.175,0.124001 L 25.649002,20 l 0.174999,0.125002 0.15,0.148998 0.175001,0.126 0.15,0.125002 0.174999,0.149999 0.15,0.124001 0.175001,0.149999 0.149999,0.126 0.175,0.149999 0.150001,0.124001 0.174999,0.150999 0.175,0.125002 0.150001,0.148998 0.174999,0.126 0.15,0.125002 0.175001,0.149999 0.15,0.124001 0.174999,0.150997 0.15,0.125002 0.175001,0.149999 0.149999,0.124001 0.175,0.150999 0.150001,0.125002 0.174999,0.124998 0.15,0.15 0.175001,0.125002 0.174999,0.149999 0.15,0.125 0.175001,0.149998 0.15,0.125002 0.174999,0.149999 0.15,0.125 0.175001,0.15 0.149999,0.125002 0.175,0.124998 0.150001,0.15 0.174999,0.125002 0.15,0.149999 0.175001,0.125 0.149998,0.149998 0.175003,0.125002 0.149998,0.149999 0.350002,0.25 0.149998,0.150002 L 33.174,26.25 l 0.150001,0.15 0.175,0.125002 0.150001,0.149999 0.174999,0.125 0.150002,0.149998 0.174999,0.125002 L 34.299,27.225 34.474003,27.349998 34.624001,27.475 34.799,27.625002 34.949001,27.75 l 0.175,0.15 0.174999,0.125002 M 2.9490001,1.049 l 0.175,0.15 0.1500001,0.1250001 0.1749999,0.125 0.1500001,0.15 0.175,0.125 0.1500001,0.15 0.1749997,0.125 0.1750002,0.1500001 0.1500001,0.125 0.1750002,0.1499998 0.1499996,0.125 0.1750002,0.125 0.1500001,0.1500001 0.1749997,0.125 0.1500001,0.1500001 0.1750002,0.125 0.1500001,0.1499999 0.1749997,0.125 0.1500001,0.1500001 0.1750002,0.125 0.1499996,0.1500001 0.1750002,0.125 0.1500001,0.125 0.1750001,0.1500001 0.1749998,0.125 0.1500001,0.1500001 0.1750001,0.125 0.1499997,0.1499996 0.1750002,0.125 0.1500001,0.1500001 0.1749997,0.125 0.1500005,0.125 0.1749993,0.1500001 0.1500005,0.125 0.1750002,0.1500001 0.1499997,0.125 0.1750001,0.1500001 0.1499997,0.125 0.1750002,0.1499996 0.1750001,0.125 0.1499997,0.1500001 0.1750002,0.125 0.1500005,0.125 0.1749991,0.1500001 0.150001,0.125 0.175,0.1500001 0.15,0.125 0.175,0.1500001 0.149999,0.125 0.175001,0.15 0.149999,0.125 0.175,0.1499997 0.150001,0.125 0.174999,0.125 0.150001,0.1500005 0.175,0.125 0.174999,0.1499997 0.150001,0.125 0.175,0.1499996 0.15,0.125 0.175,0.1500005 0.149999,0.125 0.175001,0.125 0.149999,0.1499997 0.175,0.125 0.150001,0.1500008 0.175,0.125 0.15,0.149999 0.175,0.125 0.15,0.150001 0.175,0.125 0.175,0.15 0.15,0.125 0.175,0.125 0.149999,0.149999 0.175001,0.125 0.15,0.150001 0.174999,0.125 0.150001,0.149999 0.174999,0.125 0.150002,0.150001 0.174999,0.125 0.15,0.125 0.175001,0.15 0.149999,0.125 0.175,0.149999 0.175001,0.125 0.149999,0.150001 0.175,0.125 0.149999,0.149999 0.175001,0.125 0.15,0.150001 0.174999,0.125 0.150002,0.125 0.174999,0.15 0.15,0.125 0.175001,0.15 0.149999,0.125 0.175,0.15" /><text
               id="text48"
               style="font-variant:normal;font-weight:normal;font-size:9px;font-family:Times;-inkscape-font-specification:Times-Roman;writing-mode:lr-tb;fill:#000000;fill-opacity:1;fill-rule:nonzero;stroke:none"
               transform="matrix(1,0,0,-1,46.666599,7)"><tspan
                 id="tspan46"
                 y="0"
                 x="0">1</tspan></text>
<text
               id="text52"
               style="font-variant:normal;font-weight:normal;font-size:9px;font-family:Times;-inkscape-font-specification:Times-Roman;writing-mode:lr-tb;fill:#000000;fill-opacity:1;fill-rule:nonzero;stroke:none"
               transform="matrix(1,0,0,-1,62.666801,7)"><tspan
                 id="tspan50"
                 y="0"
                 x="0">2</tspan></text>
<text
               id="text56"
               style="font-variant:normal;font-weight:normal;font-size:9px;font-family:Times;-inkscape-font-specification:Times-Roman;writing-mode:lr-tb;fill:#000000;fill-opacity:1;fill-rule:nonzero;stroke:none"
               transform="matrix(1,0,0,-1,79.999901,7)"><tspan
                 id="tspan54"
                 y="0"
                 x="0">3</tspan></text>
<text
               id="text60"
               style="font-variant:normal;font-weight:normal;font-size:9px;font-family:Times;-inkscape-font-specification:Times-Roman;writing-mode:lr-tb;fill:#000000;fill-opacity:1;fill-rule:nonzero;stroke:none"
               transform="matrix(1,0,0,-1,96.000099,7)"><tspan
                 id="tspan58"
                 y="0"
                 x="0">4</tspan></text>
<text
               id="text64"
               style="font-variant:normal;font-weight:normal;font-size:9px;font-family:Times;-inkscape-font-specification:Times-Roman;writing-mode:lr-tb;fill:#000000;fill-opacity:1;fill-rule:nonzero;stroke:none"
               transform="matrix(1,0,0,-1,113.3332,7)"><tspan
                 id="tspan62"
                 y="0"
                 x="0">5</tspan></text>
<text
               id="text68"
               style="font-variant:normal;font-weight:normal;font-size:9px;font-family:Times;-inkscape-font-specification:Times-Roman;writing-mode:lr-tb;fill:#000000;fill-opacity:1;fill-rule:nonzero;stroke:none"
               transform="matrix(1,0,0,-1,26.6668,8.3329)"><tspan
                 id="tspan66"
                 y="0"
                 x="0">0</tspan></text>
<text
               id="text72"
               style="font-variant:normal;font-weight:normal;font-size:9px;font-family:Times;-inkscape-font-specification:Times-Roman;writing-mode:lr-tb;fill:#000000;fill-opacity:1;fill-rule:nonzero;stroke:none"
               transform="matrix(1,0,0,-1,26.826099,30.246099)"><tspan
                 id="tspan70"
                 y="0"
                 x="0">5</tspan></text>
<text
               id="text76"
               style="font-variant:normal;font-weight:normal;font-size:9px;font-family:Times;-inkscape-font-specification:Times-Roman;writing-mode:lr-tb;fill:#000000;fill-opacity:1;fill-rule:nonzero;stroke:none"
               transform="matrix(1,0,0,-1,22.000299,46.999599)"><tspan
                 id="tspan74"
                 y="0"
                 x="0 4.5">10</tspan></text>
<text
               id="text80"
               style="font-variant:normal;font-weight:normal;font-size:9px;font-family:Times;-inkscape-font-specification:Times-Roman;writing-mode:lr-tb;fill:#000000;fill-opacity:1;fill-rule:nonzero;stroke:none"
               transform="matrix(1,0,0,-1,22.522299,63.5938)"><tspan
                 id="tspan78"
                 y="0"
                 x="0 4.5">15</tspan></text>
<text
               id="text84"
               style="font-variant:normal;font-weight:normal;font-size:9px;font-family:Times;-inkscape-font-specification:Times-Roman;writing-mode:lr-tb;fill:#000000;fill-opacity:1;fill-rule:nonzero;stroke:none"
               transform="matrix(1,0,0,-1,23.334099,79.041397)"><tspan
                 id="tspan82"
                 y="0"
                 x="0 4.5">20</tspan></text>
<text
               id="text88"
               style="font-style:italic;font-variant:normal;font-size:9px;font-family:Times;-inkscape-font-specification:Times-Italic;writing-mode:lr-tb;fill:#000000;fill-opacity:1;fill-rule:nonzero;stroke:none"
               transform="matrix(1,0,0,-1,23.334099,97.041397)"><tspan
                 id="tspan86"
                 y="0"
                 x="0 4.5">25</tspan></text>
<path
               id="path90"
               style="fill:#231f20;fill-opacity:1;fill-rule:nonzero;stroke:#000000;stroke-width:0.5;stroke-linecap:butt;stroke-linejoin:miter;stroke-miterlimit:4;stroke-dasharray:none;stroke-opacity:1"
               d="m 116,92.5 c 1.562,0 2.828,1.266006 2.828,2.828003 0,1.563003 -1.266,2.829002 -2.828,2.829002 -1.562,0 -2.828,-1.265999 -2.828,-2.829002 C 113.172,93.766006 114.438,92.5 116,92.5 Z" /><path
               id="path92"
               style="fill:#231f20;fill-opacity:1;fill-rule:nonzero;stroke:#000000;stroke-width:0.5;stroke-linecap:butt;stroke-linejoin:miter;stroke-miterlimit:4;stroke-dasharray:none;stroke-opacity:1"
               d="m 34,24 c 1.562,0 2.828003,1.266001 2.828003,2.828001 0,1.563 -1.266003,2.829 -2.828003,2.829 -1.562,0 -2.827999,-1.266 -2.827999,-2.829 C 31.172001,25.266001 32.438,24 34,24 Z" /><text
               id="text96"
               style="font-variant:normal;font-weight:normal;font-size:11.95500088px;font-family:CMMI12;-inkscape-font-specification:CMMI12;writing-mode:lr-tb;fill:#000000;fill-opacity:1;fill-rule:nonzero;stroke:none"
               transform="matrix(1,0,0,-1,21.5,118)"><tspan
                 id="tspan94"
                 y="0"
                 x="0">y</tspan></text>
<text
               id="text100"
               style="font-variant:normal;font-weight:normal;font-size:11.95500088px;font-family:CMMI12;-inkscape-font-specification:CMMI12;writing-mode:lr-tb;fill:#000000;fill-opacity:1;fill-rule:nonzero;stroke:none"
               transform="matrix(1,0,0,-1,144.23482,8.5711012)"><tspan
                 id="tspan98"
                 y="0"
                 x="0">x</tspan></text>
</g></g></g></g></g></svg>