<?xml version="1.0" encoding="UTF-8" standalone="no"?>
<svg
   xmlns:dc="http://purl.org/dc/elements/1.1/"
   xmlns:cc="http://creativecommons.org/ns#"
   xmlns:rdf="http://www.w3.org/1999/02/22-rdf-syntax-ns#"
   xmlns:svg="http://www.w3.org/2000/svg"
   xmlns="http://www.w3.org/2000/svg"
   viewBox="0 0 622.66669 321.33334"
   height="321.33334"
   width="622.66669"
   xml:space="preserve"
   id="svg2"
   version="1.1"><metadata
     id="metadata8"><rdf:RDF><cc:Work
         rdf:about=""><dc:format>image/svg+xml</dc:format><dc:type
           rdf:resource="http://purl.org/dc/dcmitype/StillImage" /></cc:Work></rdf:RDF></metadata><defs
     id="defs6"><clipPath
       id="clipPath24"
       clipPathUnits="userSpaceOnUse"><path
         id="path22"
         d="M 0,0 H 467 V 241 H 0 Z" /></clipPath><clipPath
       id="clipPath54"
       clipPathUnits="userSpaceOnUse"><path
         id="path52"
         d="M 0,0.05999756 H 466.64902 V 240.81801 H 0 Z" /></clipPath></defs><g
     transform="matrix(1.3333333,0,0,-1.3333333,0,321.33333)"
     id="g10"><g
       id="g12" /><g
       id="g14" /><g
       id="g16"><g
         id="g18"><g
           clip-path="url(#clipPath24)"
           id="g20"><g
             id="g26" /><g
             id="g28"><path
               id="path30"
               style="fill:#231f20;fill-opacity:1;fill-rule:nonzero;stroke:none"
               d="M 58.429005,122.51801 H 462.32999" /><path
               id="path32"
               style="fill:none;stroke:#231f20;stroke-width:1;stroke-linecap:butt;stroke-linejoin:miter;stroke-miterlimit:4;stroke-dasharray:none;stroke-opacity:1"
               d="M 58.429005,122.51801 H 462.32999" /><path
               id="path34"
               style="fill:#231f20;fill-opacity:1;fill-rule:nonzero;stroke:none"
               d="M 58.429005,202.31801 H 462.32999" /><path
               id="path36"
               style="fill:none;stroke:#231f20;stroke-width:1;stroke-linecap:butt;stroke-linejoin:miter;stroke-miterlimit:4;stroke-dasharray:none;stroke-opacity:1"
               d="M 58.429005,202.31801 H 462.32999" /><path
               id="path38"
               style="fill:#231f20;fill-opacity:1;fill-rule:nonzero;stroke:none"
               d="M 60.529003,49.018002 H 464.42999" /><path
               id="path40"
               style="fill:none;stroke:#231f20;stroke-width:1;stroke-linecap:butt;stroke-linejoin:miter;stroke-miterlimit:4;stroke-dasharray:none;stroke-opacity:1"
               d="M 60.529003,49.018002 H 464.42999" /><path
               id="path42"
               style="fill:#231f20;fill-opacity:1;fill-rule:nonzero;stroke:none"
               d="M 462.32999,26.618002 H 58.429005" /><path
               id="path44"
               style="fill:none;stroke:#231f20;stroke-width:1;stroke-linecap:butt;stroke-linejoin:miter;stroke-miterlimit:4;stroke-dasharray:none;stroke-opacity:1"
               d="M 462.32999,26.618002 H 58.429005" /><path
               id="path46"
               style="fill:#231f20;fill-opacity:1;fill-rule:nonzero;stroke:none"
               d="M 58.429005,23.818001 V 240.81801" /></g><g
             id="g48"><g
               clip-path="url(#clipPath54)"
               id="g50"><path
                 id="path56"
                 style="fill:none;stroke:#231f20;stroke-width:1;stroke-linecap:butt;stroke-linejoin:miter;stroke-miterlimit:4;stroke-dasharray:none;stroke-opacity:1"
                 d="M 58.429005,23.818001 V 240.81801 m 397.483015,-118.067 -12.60001,24.733 -14,12.134 -12.599,-42.00001 -14.46698,-15.86699 -12.13302,56 -14,-1.866 -13.53302,-18.66701 -12.60001,-33.6 -14,74.667 -13.06796,-58.334 -14,25.2 -12.133,-76.065993 -14,53.198993 -14,-1.86599 -12.13299,48.534 -13.53302,-41.534 -13.53301,-17.267 -13.06698,25.667 L 202.98,99.418007 189.44601,132.084 175.91301,112.48401 162.84601,159.151 149.78,123.218 123.646,100.35101 109.646,108.284 96.113007,66.750999 81.646004,132.55101 69.513,144.68501 m 0,-116.667008 v 6.067001 m 80.03301,-7.234001 V 32.917 M 136.246,27.085001 v 6.066 m -12.36699,-5.833 v 6.066002 M 109.413,26.851002 V 32.917 M 96.346008,26.852001 V 32.917 M 82.346001,27.784 v 6.068001 m 80.733999,-6.534 v 6.066002 m 13.06601,-6.066002 v 6.066002 m 13.53398,-6.066002 v 6.066002 m 13.53302,-6.299002 v 6.066 M 283.246,25.917002 v 6.066999 m -13.30099,-5.833 v 6.067001 M 257.57999,26.384001 V 32.451 m -14.46698,-6.533998 v 6.066999 m -13.067,-6.065 v 6.065 m -14,-5.132 v 6.067002 m 80.73301,-6.535002 V 32.451 m 13.068,-6.066999 V 32.451 m 13.53201,-6.066999 V 32.451 m 12.83398,-5.365999 v 6.066 m 80.03302,-7.233999 v 6.066999 m -13.30102,-5.833 v 6.067001 M 390.57999,26.384001 V 32.451 m -14.46698,-6.533998 v 6.066999 m -13.06598,-6.065 v 6.065 m -14,-5.132 v 6.067002 m 80.73199,-6.535002 V 32.451 m 13.068,-6.066999 V 32.451 m 13.53201,-6.066999 V 32.451 M 54.579002,68.151001 h 6.534001 M 54.813004,222.15102 h 6.533 M 55.279003,182.951 h 6.534001 m -7.001,-38.26599 h 6.534 m -7,-38.268 h 6.532998" /></g></g><g
             id="g58"><text
               id="text62"
               style="font-variant:normal;font-weight:normal;font-size:11.95500088px;font-family:CMR12;-inkscape-font-specification:CMR12;writing-mode:lr-tb;fill:#231f20;fill-opacity:1;fill-rule:nonzero;stroke:none"
               transform="matrix(1,0,0,-1,388.97101,207.51669)"><tspan
                 id="tspan60"
                 y="0"
                 x="0 8.774971 17.227156">UCL</tspan></text>
<text
               id="text66"
               style="font-variant:normal;font-weight:normal;font-size:11.95500088px;font-family:CMR12;-inkscape-font-specification:CMR12;writing-mode:lr-tb;fill:#231f20;fill-opacity:1;fill-rule:nonzero;stroke:none"
               transform="matrix(1,0,0,-1,417.41672,207.51669)"><tspan
                 id="tspan64"
                 y="0"
                 x="0">=</tspan></text>
<text
               id="text70"
               style="font-variant:normal;font-weight:normal;font-size:11.95500088px;font-family:CMR12;-inkscape-font-specification:CMR12;writing-mode:lr-tb;fill:#231f20;fill-opacity:1;fill-rule:nonzero;stroke:none"
               transform="matrix(1,0,0,-1,429.84155,207.51669)"><tspan
                 id="tspan68"
                 y="0"
                 x="0 5.8459954 11.691991">204</tspan></text>
<text
               id="text74"
               style="font-variant:normal;font-weight:normal;font-size:11.95500088px;font-family:CMMI12;-inkscape-font-specification:CMMI12;writing-mode:lr-tb;fill:#231f20;fill-opacity:1;fill-rule:nonzero;stroke:none"
               transform="matrix(1,0,0,-1,447.40106,207.51669)"><tspan
                 id="tspan72"
                 y="0"
                 x="0">.</tspan></text>
<text
               id="text78"
               style="font-variant:normal;font-weight:normal;font-size:11.95500088px;font-family:CMR12;-inkscape-font-specification:CMR12;writing-mode:lr-tb;fill:#231f20;fill-opacity:1;fill-rule:nonzero;stroke:none"
               transform="matrix(1,0,0,-1,450.65283,207.51669)"><tspan
                 id="tspan76"
                 y="0"
                 x="0 5.8459954">06</tspan></text>
<text
               id="text82"
               style="font-variant:normal;font-weight:normal;font-size:11.95500088px;font-family:CMR12;-inkscape-font-specification:CMR12;writing-mode:lr-tb;fill:#231f20;fill-opacity:1;fill-rule:nonzero;stroke:none"
               transform="matrix(1,0,0,-1,418.31934,113.12121)"><tspan
                 id="tspan80"
                 y="0"
                 x="0">¯</tspan></text>
<text
               id="text86"
               style="font-variant:normal;font-weight:normal;font-size:11.95500088px;font-family:CMR12;-inkscape-font-specification:CMR12;writing-mode:lr-tb;fill:#231f20;fill-opacity:1;fill-rule:nonzero;stroke:none"
               transform="matrix(1,0,0,-1,418.31934,111.51685)"><tspan
                 id="tspan84"
                 y="0"
                 x="0">¯</tspan></text>
<text
               id="text90"
               style="font-variant:normal;font-weight:normal;font-size:11.95500088px;font-family:CMMI12;-inkscape-font-specification:CMMI12;writing-mode:lr-tb;fill:#231f20;fill-opacity:1;fill-rule:nonzero;stroke:none"
               transform="matrix(1,0,0,-1,417.59485,111.51685)"><tspan
                 id="tspan88"
                 y="0"
                 x="0">x</tspan></text>
<text
               id="text94"
               style="font-variant:normal;font-weight:normal;font-size:11.95500088px;font-family:CMR12;-inkscape-font-specification:CMR12;writing-mode:lr-tb;fill:#231f20;fill-opacity:1;fill-rule:nonzero;stroke:none"
               transform="matrix(1,0,0,-1,427.56891,111.51685)"><tspan
                 id="tspan92"
                 y="0"
                 x="0">=</tspan></text>
<text
               id="text98"
               style="font-variant:normal;font-weight:normal;font-size:11.95500088px;font-family:CMR12;-inkscape-font-specification:CMR12;writing-mode:lr-tb;fill:#231f20;fill-opacity:1;fill-rule:nonzero;stroke:none"
               transform="matrix(1,0,0,-1,439.99252,111.51685)"><tspan
                 id="tspan96"
                 y="0"
                 x="0 5.8459954 11.691991">200</tspan></text>
<text
               id="text102"
               style="font-variant:normal;font-weight:normal;font-size:11.95500088px;font-family:CMMI12;-inkscape-font-specification:CMMI12;writing-mode:lr-tb;fill:#231f20;fill-opacity:1;fill-rule:nonzero;stroke:none"
               transform="matrix(1,0,0,-1,457.55206,111.51685)"><tspan
                 id="tspan100"
                 y="0"
                 x="0">.</tspan></text>
<text
               id="text106"
               style="font-variant:normal;font-weight:normal;font-size:11.95500088px;font-family:CMR12;-inkscape-font-specification:CMR12;writing-mode:lr-tb;fill:#231f20;fill-opacity:1;fill-rule:nonzero;stroke:none"
               transform="matrix(1,0,0,-1,460.80383,111.51685)"><tspan
                 id="tspan104"
                 y="0"
                 x="0">1</tspan></text>
<text
               id="text110"
               style="font-variant:normal;font-weight:normal;font-size:11.95500088px;font-family:CMR12;-inkscape-font-specification:CMR12;writing-mode:lr-tb;fill:#231f20;fill-opacity:1;fill-rule:nonzero;stroke:none"
               transform="matrix(1,0,0,-1,391.02966,53.515968)"><tspan
                 id="tspan108"
                 y="0"
                 x="0 7.3045058 15.756691">LCL</tspan></text>
<text
               id="text114"
               style="font-variant:normal;font-weight:normal;font-size:11.95500088px;font-family:CMR12;-inkscape-font-specification:CMR12;writing-mode:lr-tb;fill:#231f20;fill-opacity:1;fill-rule:nonzero;stroke:none"
               transform="matrix(1,0,0,-1,418.01328,53.515968)"><tspan
                 id="tspan112"
                 y="0"
                 x="0">=</tspan></text>
<text
               id="text118"
               style="font-variant:normal;font-weight:normal;font-size:11.95500088px;font-family:CMR12;-inkscape-font-specification:CMR12;writing-mode:lr-tb;fill:#231f20;fill-opacity:1;fill-rule:nonzero;stroke:none"
               transform="matrix(1,0,0,-1,430.4393,53.515968)"><tspan
                 id="tspan116"
                 y="0"
                 x="0 5.8459954 11.691991">195</tspan></text>
<text
               id="text122"
               style="font-variant:normal;font-weight:normal;font-size:11.95500088px;font-family:CMMI12;-inkscape-font-specification:CMMI12;writing-mode:lr-tb;fill:#231f20;fill-opacity:1;fill-rule:nonzero;stroke:none"
               transform="matrix(1,0,0,-1,447.99884,53.515968)"><tspan
                 id="tspan120"
                 y="0"
                 x="0">.</tspan></text>
<text
               id="text126"
               style="font-variant:normal;font-weight:normal;font-size:11.95500088px;font-family:CMR12;-inkscape-font-specification:CMR12;writing-mode:lr-tb;fill:#231f20;fill-opacity:1;fill-rule:nonzero;stroke:none"
               transform="matrix(1,0,0,-1,451.25061,53.515968)"><tspan
                 id="tspan124"
                 y="0"
                 x="0 5.8459954">96</tspan></text>
<text
               id="text130"
               style="font-variant:normal;font-weight:normal;font-size:11.95500088px;font-family:CMR12;-inkscape-font-specification:CMR12;writing-mode:lr-tb;fill:#231f20;fill-opacity:1;fill-rule:nonzero;stroke:none"
               transform="matrix(1,0,0,-1,20.666178,219.29237)"><tspan
                 id="tspan128"
                 y="0"
                 x="0 5.8459954 11.691991">205</tspan></text>
<text
               id="text134"
               style="font-variant:normal;font-weight:normal;font-size:11.95500088px;font-family:CMMI12;-inkscape-font-specification:CMMI12;writing-mode:lr-tb;fill:#231f20;fill-opacity:1;fill-rule:nonzero;stroke:none"
               transform="matrix(1,0,0,-1,38.224487,219.29237)"><tspan
                 id="tspan132"
                 y="0"
                 x="0">.</tspan></text>
<text
               id="text138"
               style="font-variant:normal;font-weight:normal;font-size:11.95500088px;font-family:CMR12;-inkscape-font-specification:CMR12;writing-mode:lr-tb;fill:#231f20;fill-opacity:1;fill-rule:nonzero;stroke:none"
               transform="matrix(1,0,0,-1,41.476246,219.29237)"><tspan
                 id="tspan136"
                 y="0"
                 x="0 5.8459954">00</tspan></text>
<text
               id="text142"
               style="font-variant:normal;font-weight:normal;font-size:11.95500088px;font-family:CMR12;-inkscape-font-specification:CMR12;writing-mode:lr-tb;fill:#231f20;fill-opacity:1;fill-rule:nonzero;stroke:none"
               transform="matrix(1,0,0,-1,21.75169,179.95923)"><tspan
                 id="tspan140"
                 y="0"
                 x="0 5.8459954 11.691991">203</tspan></text>
<text
               id="text146"
               style="font-variant:normal;font-weight:normal;font-size:11.95500088px;font-family:CMMI12;-inkscape-font-specification:CMMI12;writing-mode:lr-tb;fill:#231f20;fill-opacity:1;fill-rule:nonzero;stroke:none"
               transform="matrix(1,0,0,-1,39.311195,179.95923)"><tspan
                 id="tspan144"
                 y="0"
                 x="0">.</tspan></text>
<text
               id="text150"
               style="font-variant:normal;font-weight:normal;font-size:11.95500088px;font-family:CMR12;-inkscape-font-specification:CMR12;writing-mode:lr-tb;fill:#231f20;fill-opacity:1;fill-rule:nonzero;stroke:none"
               transform="matrix(1,0,0,-1,42.56176,179.95923)"><tspan
                 id="tspan148"
                 y="0"
                 x="0 5.8459954">00</tspan></text>
<text
               id="text154"
               style="font-variant:normal;font-weight:normal;font-size:11.95500088px;font-family:CMR12;-inkscape-font-specification:CMR12;writing-mode:lr-tb;fill:#231f20;fill-opacity:1;fill-rule:nonzero;stroke:none"
               transform="matrix(1,0,0,-1,21.504221,141.95906)"><tspan
                 id="tspan152"
                 y="0"
                 x="0 5.8459954 11.691991">201</tspan></text>
<text
               id="text158"
               style="font-variant:normal;font-weight:normal;font-size:11.95500088px;font-family:CMMI12;-inkscape-font-specification:CMMI12;writing-mode:lr-tb;fill:#231f20;fill-opacity:1;fill-rule:nonzero;stroke:none"
               transform="matrix(1,0,0,-1,39.062531,141.95906)"><tspan
                 id="tspan156"
                 y="0"
                 x="0">.</tspan></text>
<text
               id="text162"
               style="font-variant:normal;font-weight:normal;font-size:11.95500088px;font-family:CMR12;-inkscape-font-specification:CMR12;writing-mode:lr-tb;fill:#231f20;fill-opacity:1;fill-rule:nonzero;stroke:none"
               transform="matrix(1,0,0,-1,42.314289,141.95906)"><tspan
                 id="tspan160"
                 y="0"
                 x="0 5.8459954">00</tspan></text>
<text
               id="text166"
               style="font-variant:normal;font-weight:normal;font-size:11.95500088px;font-family:CMR12;-inkscape-font-specification:CMR12;writing-mode:lr-tb;fill:#231f20;fill-opacity:1;fill-rule:nonzero;stroke:none"
               transform="matrix(1,0,0,-1,20.588467,103.293)"><tspan
                 id="tspan164"
                 y="0"
                 x="0 5.8459954 11.691991">199</tspan></text>
<text
               id="text170"
               style="font-variant:normal;font-weight:normal;font-size:11.95500088px;font-family:CMMI12;-inkscape-font-specification:CMMI12;writing-mode:lr-tb;fill:#231f20;fill-opacity:1;fill-rule:nonzero;stroke:none"
               transform="matrix(1,0,0,-1,38.146774,103.293)"><tspan
                 id="tspan168"
                 y="0"
                 x="0">.</tspan></text>
<text
               id="text174"
               style="font-variant:normal;font-weight:normal;font-size:11.95500088px;font-family:CMR12;-inkscape-font-specification:CMR12;writing-mode:lr-tb;fill:#231f20;fill-opacity:1;fill-rule:nonzero;stroke:none"
               transform="matrix(1,0,0,-1,41.398533,103.293)"><tspan
                 id="tspan172"
                 y="0"
                 x="0 5.8459954">00</tspan></text>
<text
               id="text178"
               style="font-variant:normal;font-weight:normal;font-size:11.95500088px;font-family:CMR12;-inkscape-font-specification:CMR12;writing-mode:lr-tb;fill:#231f20;fill-opacity:1;fill-rule:nonzero;stroke:none"
               transform="matrix(1,0,0,-1,21.675173,65.291641)"><tspan
                 id="tspan176"
                 y="0"
                 x="0 5.8459954 11.691991">197</tspan></text>
<text
               id="text182"
               style="font-variant:normal;font-weight:normal;font-size:11.95500088px;font-family:CMMI12;-inkscape-font-specification:CMMI12;writing-mode:lr-tb;fill:#231f20;fill-opacity:1;fill-rule:nonzero;stroke:none"
               transform="matrix(1,0,0,-1,39.233482,65.291641)"><tspan
                 id="tspan180"
                 y="0"
                 x="0">.</tspan></text>
<text
               id="text186"
               style="font-variant:normal;font-weight:normal;font-size:11.95500088px;font-family:CMR12;-inkscape-font-specification:CMR12;writing-mode:lr-tb;fill:#231f20;fill-opacity:1;fill-rule:nonzero;stroke:none"
               transform="matrix(1,0,0,-1,42.484047,65.291641)"><tspan
                 id="tspan184"
                 y="0"
                 x="0 5.8459954">00</tspan></text>
<text
               id="text190"
               style="font-variant:normal;font-weight:normal;font-size:11.95500088px;font-family:CMR12;-inkscape-font-specification:CMR12;writing-mode:lr-tb;fill:#231f20;fill-opacity:1;fill-rule:nonzero;stroke:none"
               transform="matrix(1,0,0,-1,23.42658,23.292528)"><tspan
                 id="tspan188"
                 y="0"
                 x="0 5.8459954 11.691991">195</tspan></text>
<text
               id="text194"
               style="font-variant:normal;font-weight:normal;font-size:11.95500088px;font-family:CMMI12;-inkscape-font-specification:CMMI12;writing-mode:lr-tb;fill:#231f20;fill-opacity:1;fill-rule:nonzero;stroke:none"
               transform="matrix(1,0,0,-1,40.98489,23.292528)"><tspan
                 id="tspan192"
                 y="0"
                 x="0">.</tspan></text>
<text
               id="text198"
               style="font-variant:normal;font-weight:normal;font-size:11.95500088px;font-family:CMR12;-inkscape-font-specification:CMR12;writing-mode:lr-tb;fill:#231f20;fill-opacity:1;fill-rule:nonzero;stroke:none"
               transform="matrix(1,0,0,-1,44.236649,23.292528)"><tspan
                 id="tspan196"
                 y="0"
                 x="0 5.8459954">00</tspan></text>
<text
               id="text202"
               style="font-variant:normal;font-weight:normal;font-size:11.95500088px;font-family:CMR12;-inkscape-font-specification:CMR12;writing-mode:lr-tb;fill:#231f20;fill-opacity:1;fill-rule:nonzero;stroke:none"
               transform="matrix(1,0,0,-1,183.76585,14.662213)"><tspan
                 id="tspan200"
                 y="0"
                 x="0 5.8459954">10</tspan></text>
<text
               id="text206"
               style="font-variant:normal;font-weight:normal;font-size:11.95500088px;font-family:CMR12;-inkscape-font-specification:CMR12;writing-mode:lr-tb;fill:#231f20;fill-opacity:1;fill-rule:nonzero;stroke:none"
               transform="matrix(1,0,0,-1,317.37256,14.662213)"><tspan
                 id="tspan204"
                 y="0"
                 x="0 5.8459954">20</tspan></text>
<text
               id="text210"
               style="font-variant:normal;font-weight:normal;font-size:11.95500088px;font-family:CMR12;-inkscape-font-specification:CMR12;writing-mode:lr-tb;fill:#231f20;fill-opacity:1;fill-rule:nonzero;stroke:none"
               transform="matrix(1,0,0,-1,453.64764,14.662213)"><tspan
                 id="tspan208"
                 y="0"
                 x="0 5.8459954">30</tspan></text>
<text
               id="text214"
               style="font-variant:normal;font-weight:normal;font-size:11.95500088px;font-family:CMR12;-inkscape-font-specification:CMR12;writing-mode:lr-tb;fill:#231f20;fill-opacity:1;fill-rule:nonzero;stroke:none"
               transform="matrix(0,1,1,0,8.9663,93.672005)"><tspan
                 id="tspan212"
                 y="0"
                 x="0">W</tspan></text>
<text
               id="text218"
               style="font-variant:normal;font-weight:normal;font-size:11.95500088px;font-family:CMR12;-inkscape-font-specification:CMR12;writing-mode:lr-tb;fill:#231f20;fill-opacity:1;fill-rule:nonzero;stroke:none"
               transform="matrix(0,1,1,0,8.9663,104.7244)"><tspan
                 id="tspan216"
                 y="0"
                 x="0 5.2004256 8.4402304 14.286226">eigh</tspan></text>
<text
               id="text222"
               style="font-variant:normal;font-weight:normal;font-size:11.95500088px;font-family:CMR12;-inkscape-font-specification:CMR12;writing-mode:lr-tb;fill:#231f20;fill-opacity:1;fill-rule:nonzero;stroke:none"
               transform="matrix(0,1,1,0,8.9663,125.2093)"><tspan
                 id="tspan220"
                 y="0"
                 x="0">t</tspan></text>
<text
               id="text226"
               style="font-variant:normal;font-weight:normal;font-size:11.95500088px;font-family:CMR12;-inkscape-font-specification:CMR12;writing-mode:lr-tb;fill:#231f20;fill-opacity:1;fill-rule:nonzero;stroke:none"
               transform="matrix(0,1,1,0,8.9663,133.66388)"><tspan
                 id="tspan224"
                 y="0"
                 x="0 4.5429006 10.388896 20.132221">(gm)</tspan></text>
<text
               id="text230"
               style="font-variant:normal;font-weight:normal;font-size:11.95500088px;font-family:CMR12;-inkscape-font-specification:CMR12;writing-mode:lr-tb;fill:#231f20;fill-opacity:1;fill-rule:nonzero;stroke:none"
               transform="matrix(1,0,0,-1,212.60001,3.0020001)"><tspan
                 id="tspan228"
                 y="0"
                 x="0 6.4915657 12.337561 22.080887 28.572453 31.812258">Sample</tspan></text>
<text
               id="text234"
               style="font-variant:normal;font-weight:normal;font-size:11.95500088px;font-family:CMR12;-inkscape-font-specification:CMR12;writing-mode:lr-tb;fill:#231f20;fill-opacity:1;fill-rule:nonzero;stroke:none"
               transform="matrix(1,0,0,-1,253.57098,3.0020001)"><tspan
                 id="tspan232"
                 y="0"
                 x="0">n</tspan></text>
<text
               id="text238"
               style="font-variant:normal;font-weight:normal;font-size:11.95500088px;font-family:CMR12;-inkscape-font-specification:CMR12;writing-mode:lr-tb;fill:#231f20;fill-opacity:1;fill-rule:nonzero;stroke:none"
               transform="matrix(1,0,0,-1,259.74933,3.0020001)"><tspan
                 id="tspan236"
                 y="0"
                 x="0">u</tspan></text>
<text
               id="text242"
               style="font-variant:normal;font-weight:normal;font-size:11.95500088px;font-family:CMR12;-inkscape-font-specification:CMR12;writing-mode:lr-tb;fill:#231f20;fill-opacity:1;fill-rule:nonzero;stroke:none"
               transform="matrix(1,0,0,-1,266.24091,3.0020001)"><tspan
                 id="tspan240"
                 y="0"
                 x="0">m</tspan></text>
<text
               id="text246"
               style="font-variant:normal;font-weight:normal;font-size:11.95500088px;font-family:CMR12;-inkscape-font-specification:CMR12;writing-mode:lr-tb;fill:#231f20;fill-opacity:1;fill-rule:nonzero;stroke:none"
               transform="matrix(1,0,0,-1,275.68176,3.0020001)"><tspan
                 id="tspan244"
                 y="0"
                 x="0">b</tspan></text>
<text
               id="text250"
               style="font-variant:normal;font-weight:normal;font-size:11.95500088px;font-family:CMR12;-inkscape-font-specification:CMR12;writing-mode:lr-tb;fill:#231f20;fill-opacity:1;fill-rule:nonzero;stroke:none"
               transform="matrix(1,0,0,-1,282.51047,3.0020001)"><tspan
                 id="tspan248"
                 y="0"
                 x="0 5.2004256">er</tspan></text>
</g></g></g></g></g></svg>