<?xml version="1.0" encoding="UTF-8" standalone="no"?>
<svg
   xmlns:dc="http://purl.org/dc/elements/1.1/"
   xmlns:cc="http://creativecommons.org/ns#"
   xmlns:rdf="http://www.w3.org/1999/02/22-rdf-syntax-ns#"
   xmlns:svg="http://www.w3.org/2000/svg"
   xmlns="http://www.w3.org/2000/svg"
   viewBox="0 0 630.66669 306.66666"
   height="306.66666"
   width="630.66669"
   xml:space="preserve"
   id="svg2"
   version="1.1"><metadata
     id="metadata8"><rdf:RDF><cc:Work
         rdf:about=""><dc:format>image/svg+xml</dc:format><dc:type
           rdf:resource="http://purl.org/dc/dcmitype/StillImage" /></cc:Work></rdf:RDF></metadata><defs
     id="defs6"><clipPath
       id="clipPath24"
       clipPathUnits="userSpaceOnUse"><path
         id="path22"
         d="M 0,0 H 473 V 230 H 0 Z" /></clipPath><clipPath
       id="clipPath38"
       clipPathUnits="userSpaceOnUse"><path
         id="path36"
         d="M 0,0 H 472.67102 V 229.811 H 0 Z" /></clipPath></defs><g
     transform="matrix(1.3333333,0,0,-1.3333333,0,306.66667)"
     id="g10"><g
       id="g12" /><g
       id="g14" /><g
       id="g16"><g
         id="g18"><g
           clip-path="url(#clipPath24)"
           id="g20"><g
             id="g26" /><g
             id="g28"><path
               id="path30"
               style="fill:#231f20;fill-opacity:1;fill-rule:nonzero;stroke:none"
               d="M 37.791,49.499001 H 472.67102" /></g><g
             id="g32"><g
               clip-path="url(#clipPath38)"
               id="g34"><path
                 id="path40"
                 style="fill:none;stroke:#231f20;stroke-width:1;stroke-linecap:butt;stroke-linejoin:miter;stroke-miterlimit:4;stroke-dasharray:none;stroke-opacity:1"
                 d="M 37.791,49.499001 H 472.67102" /></g></g><g
             id="g42"><path
               id="path44"
               style="fill:#231f20;fill-opacity:1;fill-rule:nonzero;stroke:none"
               d="m 39.671001,45.251003 c 0,69.664007 0,179.088997 0,179.088997" /><path
               id="path46"
               style="fill:none;stroke:#231f20;stroke-width:1;stroke-linecap:butt;stroke-linejoin:miter;stroke-miterlimit:4;stroke-dasharray:none;stroke-opacity:1"
               d="m 39.671001,45.251003 c 0,69.664007 0,179.088997 0,179.088997 m 406.320029,-123.60099 -8.159,-36.479008 -8.16,40.319988 -8.64002,13.91902 -8.64099,-18.23902 -7.20001,36 -8.63998,13.92 -8.63901,-37.92 -7.681,2.88001 -8.159,-21.599999 -9.60101,25.919999 -7.20102,7.2 -8.15897,-4.8 -9.599,1.92 -6.72,-56.160005 -9.11999,39.360005 -8.64002,15.83901 -7.20001,-14.88001 -8.64099,-0.959 -8.63998,8.16 -7.67902,29.28 -8.64099,-25.441 -8.159,-1.919 -8.16101,-31.680003 -8.64,6.239998 -8.64,0.481011 -7.68001,48.959994 -8.64,-40.80101 -8.63999,23.03901 -7.68,-12.479 -8.64,33.6 -8.64,-63.360002 -7.20001,50.399992 -8.64,4.8 -9.11999,-12.96099 -6.72,-17.28 -8.64,17.761 -9.599,-55.680002 L 131.591,147.78 122.951,84.419998 107.11101,123.299 98.471008,84.899002 90.311005,135.78 l -8.64,-12 -8.160003,6.24 -8.64,-41.760005 L 56.709999,134.34 48.07,94.019005 40.391003,107.46 M 123.47101,46.858002 v 7.681995 m 327.841,-8.640995 v 7.68 M 372.591,45.419003 v 7.68 m -83.03997,-7.678002 v 7.678002 m -82.08002,-7.68 v 7.68 M 36.791,50.100002 h 6.480004 M 36.791,223.62 h 6.480004 M 39.311001,166.01999 H 45.791 M 36.071003,107.46 h 6.48" /><text
               id="text50"
               style="font-variant:normal;font-weight:normal;font-size:10.75949955px;font-family:CMR12;-inkscape-font-specification:CMR12;writing-mode:lr-tb;fill:#231f20;fill-opacity:1;fill-rule:nonzero;stroke:none"
               transform="matrix(1,0,0,-1,21.1318,221.7412)"><tspan
                 id="tspan48"
                 y="0"
                 x="0 5.2613955 10.522791">210</tspan></text>
<text
               id="text54"
               style="font-variant:normal;font-weight:normal;font-size:10.75949955px;font-family:CMR12;-inkscape-font-specification:CMR12;writing-mode:lr-tb;fill:#231f20;fill-opacity:1;fill-rule:nonzero;stroke:none"
               transform="matrix(1,0,0,-1,16.270658,164.1413)"><tspan
                 id="tspan52"
                 y="0"
                 x="0 5.2613955 10.522791">205</tspan></text>
<text
               id="text58"
               style="font-variant:normal;font-weight:normal;font-size:10.75949955px;font-family:CMR12;-inkscape-font-specification:CMR12;writing-mode:lr-tb;fill:#231f20;fill-opacity:1;fill-rule:nonzero;stroke:none"
               transform="matrix(1,0,0,-1,16.270658,105.64189)"><tspan
                 id="tspan56"
                 y="0"
                 x="0 5.2613955 10.522791">200</tspan></text>
<text
               id="text62"
               style="font-variant:normal;font-weight:normal;font-size:10.75949955px;font-family:CMR12;-inkscape-font-specification:CMR12;writing-mode:lr-tb;fill:#231f20;fill-opacity:1;fill-rule:nonzero;stroke:none"
               transform="matrix(1,0,0,-1,16.270658,49.840977)"><tspan
                 id="tspan60"
                 y="0"
                 x="0 5.2613955 10.522791">195</tspan></text>
<text
               id="text66"
               style="font-variant:normal;font-weight:normal;font-size:10.75949955px;font-family:CMR12;-inkscape-font-specification:CMR12;writing-mode:lr-tb;fill:#231f20;fill-opacity:1;fill-rule:nonzero;stroke:none"
               transform="matrix(1,0,0,-1,41.305862,27.641977)"><tspan
                 id="tspan64"
                 y="0"
                 x="0">1</tspan></text>
<text
               id="text70"
               style="font-variant:normal;font-weight:normal;font-size:10.75949955px;font-family:CMR12;-inkscape-font-specification:CMR12;writing-mode:lr-tb;fill:#231f20;fill-opacity:1;fill-rule:nonzero;stroke:none"
               transform="matrix(1,0,0,-1,122.98553,26.741407)"><tspan
                 id="tspan68"
                 y="0"
                 x="0 5.2613955">10</tspan></text>
<text
               id="text74"
               style="font-variant:normal;font-weight:normal;font-size:10.75949955px;font-family:CMR12;-inkscape-font-specification:CMR12;writing-mode:lr-tb;fill:#231f20;fill-opacity:1;fill-rule:nonzero;stroke:none"
               transform="matrix(1,0,0,-1,204.53178,27.641977)"><tspan
                 id="tspan72"
                 y="0"
                 x="0 5.2613955">20</tspan></text>
<text
               id="text78"
               style="font-variant:normal;font-weight:normal;font-size:10.75949955px;font-family:CMR12;-inkscape-font-specification:CMR12;writing-mode:lr-tb;fill:#231f20;fill-opacity:1;fill-rule:nonzero;stroke:none"
               transform="matrix(1,0,0,-1,286.97968,27.641977)"><tspan
                 id="tspan76"
                 y="0"
                 x="0 5.2613955">30</tspan></text>
<text
               id="text82"
               style="font-variant:normal;font-weight:normal;font-size:10.75949955px;font-family:CMR12;-inkscape-font-specification:CMR12;writing-mode:lr-tb;fill:#231f20;fill-opacity:1;fill-rule:nonzero;stroke:none"
               transform="matrix(1,0,0,-1,369.42755,27.641977)"><tspan
                 id="tspan80"
                 y="0"
                 x="0 5.2613955">40</tspan></text>
<text
               id="text86"
               style="font-variant:normal;font-weight:normal;font-size:10.75949955px;font-family:CMR12;-inkscape-font-specification:CMR12;writing-mode:lr-tb;fill:#231f20;fill-opacity:1;fill-rule:nonzero;stroke:none"
               transform="matrix(1,0,0,-1,450.07324,26.741407)"><tspan
                 id="tspan84"
                 y="0"
                 x="0 5.2613955">50</tspan></text>
<text
               id="text90"
               style="font-variant:normal;font-weight:normal;font-size:11.95500088px;font-family:CMR12;-inkscape-font-specification:CMR12;writing-mode:lr-tb;fill:#231f20;fill-opacity:1;fill-rule:nonzero;stroke:none"
               transform="matrix(0,1,1,0,8.9663,83.939003)"><tspan
                 id="tspan88"
                 y="0"
                 x="0">W</tspan></text>
<text
               id="text94"
               style="font-variant:normal;font-weight:normal;font-size:11.95500088px;font-family:CMR12;-inkscape-font-specification:CMR12;writing-mode:lr-tb;fill:#231f20;fill-opacity:1;fill-rule:nonzero;stroke:none"
               transform="matrix(0,1,1,0,8.9663,94.991402)"><tspan
                 id="tspan92"
                 y="0"
                 x="0 5.2004256 8.4402304 14.286226">eigh</tspan></text>
<text
               id="text98"
               style="font-variant:normal;font-weight:normal;font-size:11.95500088px;font-family:CMR12;-inkscape-font-specification:CMR12;writing-mode:lr-tb;fill:#231f20;fill-opacity:1;fill-rule:nonzero;stroke:none"
               transform="matrix(0,1,1,0,8.9663,115.4763)"><tspan
                 id="tspan96"
                 y="0"
                 x="0">t</tspan></text>
<text
               id="text102"
               style="font-variant:normal;font-weight:normal;font-size:11.95500088px;font-family:CMR12;-inkscape-font-specification:CMR12;writing-mode:lr-tb;fill:#231f20;fill-opacity:1;fill-rule:nonzero;stroke:none"
               transform="matrix(0,1,1,0,8.9663,123.93087)"><tspan
                 id="tspan100"
                 y="0"
                 x="0 4.5429006 10.388896 20.132221">(gm)</tspan></text>
<text
               id="text106"
               style="font-variant:normal;font-weight:normal;font-size:11.95500088px;font-family:CMR12;-inkscape-font-specification:CMR12;writing-mode:lr-tb;fill:#231f20;fill-opacity:1;fill-rule:nonzero;stroke:none"
               transform="matrix(1,0,0,-1,189.47101,3.2510002)"><tspan
                 id="tspan104"
                 y="0"
                 x="0 8.4521856 14.298182 17.872726 21.447271 26.647697">Coffee</tspan></text>
<text
               id="text110"
               style="font-variant:normal;font-weight:normal;font-size:11.95500088px;font-family:CMR12;-inkscape-font-specification:CMR12;writing-mode:lr-tb;fill:#231f20;fill-opacity:1;fill-rule:nonzero;stroke:none"
               transform="matrix(1,0,0,-1,228.4706,3.2510002)"><tspan
                 id="tspan108"
                 y="0"
                 x="0 6.4915657 12.337561 17.537987 23.706766 28.907192">packet</tspan></text>
<text
               id="text114"
               style="font-variant:normal;font-weight:normal;font-size:11.95500088px;font-family:CMR12;-inkscape-font-specification:CMR12;writing-mode:lr-tb;fill:#231f20;fill-opacity:1;fill-rule:nonzero;stroke:none"
               transform="matrix(1,0,0,-1,268.47086,3.0011406)"><tspan
                 id="tspan112"
                 y="0"
                 x="0 6.4915657 12.983131 22.726458 29.218023 34.418449">number</tspan></text>
</g></g></g></g></g></svg>