<?xml version="1.0" encoding="UTF-8" standalone="no"?>
<svg
   xmlns:dc="http://purl.org/dc/elements/1.1/"
   xmlns:cc="http://creativecommons.org/ns#"
   xmlns:rdf="http://www.w3.org/1999/02/22-rdf-syntax-ns#"
   xmlns:svg="http://www.w3.org/2000/svg"
   xmlns="http://www.w3.org/2000/svg"
   viewBox="0 0 596 292"
   height="292"
   width="596"
   xml:space="preserve"
   id="svg2"
   version="1.1"><metadata
     id="metadata8"><rdf:RDF><cc:Work
         rdf:about=""><dc:format>image/svg+xml</dc:format><dc:type
           rdf:resource="http://purl.org/dc/dcmitype/StillImage" /></cc:Work></rdf:RDF></metadata><defs
     id="defs6"><clipPath
       id="clipPath24"
       clipPathUnits="userSpaceOnUse"><path
         id="path22"
         d="M 0,0 H 447 V 219 H 0 Z" /></clipPath><clipPath
       id="clipPath42"
       clipPathUnits="userSpaceOnUse"><path
         id="path40"
         d="M 0.06,0 H 446.68402 V 218.73 H 0.06 Z" /></clipPath><clipPath
       id="clipPath56"
       clipPathUnits="userSpaceOnUse"><path
         id="path54"
         d="M 0.06,0 H 446.68402 V 218.73 H 0.06 Z" /></clipPath><clipPath
       id="clipPath264"
       clipPathUnits="userSpaceOnUse"><path
         id="path262"
         d="M 0.06,0 H 446.68402 V 218.73 H 0.06 Z" /></clipPath><clipPath
       id="clipPath282"
       clipPathUnits="userSpaceOnUse"><path
         id="path280"
         d="M 0.06,0 H 446.68402 V 218.73 H 0.06 Z" /></clipPath></defs><g
     transform="matrix(1.3333333,0,0,-1.3333333,0,292)"
     id="g10"><g
       id="g12" /><g
       id="g14" /><g
       id="g16"><g
         id="g18"><g
           clip-path="url(#clipPath24)"
           id="g20"><g
             id="g26" /><g
             id="g28"><path
               id="path30"
               style="fill:#231f20;fill-opacity:1;fill-rule:nonzero;stroke:none"
               d="M 49.683002,24.93 H 441.68402" /><path
               id="path32"
               style="fill:none;stroke:#231f20;stroke-width:1;stroke-linecap:butt;stroke-linejoin:miter;stroke-miterlimit:4;stroke-dasharray:none;stroke-opacity:1"
               d="M 49.683002,24.93 H 441.68402" /><path
               id="path34"
               style="fill:#231f20;fill-opacity:1;fill-rule:nonzero;stroke:none"
               d="M 54.016003,89.597008 H 446.01703" /></g><g
             id="g36"><g
               clip-path="url(#clipPath42)"
               id="g38"><path
                 id="path44"
                 style="fill:none;stroke:#231f20;stroke-width:1;stroke-linecap:butt;stroke-linejoin:miter;stroke-miterlimit:4;stroke-dasharray:none;stroke-opacity:1"
                 d="M 54.016003,89.597008 H 446.01703" /></g></g><g
             id="g46"><path
               id="path48"
               style="fill:#231f20;fill-opacity:1;fill-rule:nonzero;stroke:none"
               d="M 54.683002,174.26401 H 446.68402" /></g><g
             id="g50"><g
               clip-path="url(#clipPath56)"
               id="g52"><path
                 id="path58"
                 style="fill:none;stroke:#231f20;stroke-width:1;stroke-linecap:butt;stroke-linejoin:miter;stroke-miterlimit:4;stroke-dasharray:none;stroke-opacity:1"
                 d="M 54.683002,174.26401 H 446.68402 m -8.66699,-61.001 -13,-73.00001 c 0,0 -14,8 -14,10 0,2.000004 -12.5,18.5 -12.5,18.5 l -13,36.50001 -12.5,-54.500006 -13,36.499996 c 0,0 -12,-33.999996 -12.5,-32.499996 -0.5,1.5 -13,24.499996 -13,24.499996 l -13,32.00001 -12.5,-45.50001 -13,-8.999996 L 282.517,168.76401 270.017,45.263 l -13,59.00001 -11.49999,-49.500006 -14,12.999996 -13,-11.499996 -25.5,121.001006 -12.5,-85.001002 -14,56.001002 -11.5,-65.00101 -13,-23.999996 -26,43.000006 -13,109.501 -25.501004,-148.501006 -13,-8 M 50.016003,48.263 h 6.5 m -7,165.00101 h 6.5 m -7,-23.5 h 6.5 m -5.5,-24 h 6.5 m -7,-22.5 h 6.5 m -6,-24.5 h 6.5 m -6.5,-23.001002 h 6.5 m -7,-24.000008 h 6.5 m 8.500003,-47 v 7.5 m 116.001004,-7 v 7.5 m -13.5,-7 v 7.5 m -12,-7.5 v 7.5 m -13,-8 v 7.5 m -13,-7.5 v 7.5 m -13,-7.5 v 7.5 m -12.5,-7.5 v 7.5 m -13.001004,-6.5 v 7.5 m -13,-8.5 v 7.5 m 115.501004,-8.5 v 7.500002 M 309.01703,24.763 v 7.5 m -13.5,-7 v 7.5 m -12.00003,-7.5 v 7.5 m -13,-8 v 7.5 m -13,-7.5 v 7.5 m -12.99999,-7.5 v 7.5 m -12.5,-7.5 v 7.5 m -13,-6.5 v 7.5 m -13,-8.5 v 7.5 m 116.00002,-6.5 v 7.5 m 116,-7 v 7.5 m -13.5,-7 v 7.5 m -12,-7.5 v 7.5 m -13,-8 v 7.5 m -13,-7.5 v 7.5 m -13,-7.5 v 7.5 m -12.5,-7.5 v 7.5 m -13,-6.5 v 7.5 m -13,-8.5 v 7.5 M 53.016003,21.263 v 191.50101" /></g></g><g
             id="g60"><text
               id="text64"
               style="font-variant:normal;font-weight:normal;font-size:11.95500088px;font-family:CMR12;-inkscape-font-specification:CMR12;writing-mode:lr-tb;fill:#231f20;fill-opacity:1;fill-rule:nonzero;stroke:none"
               transform="matrix(1,0,0,-1,174.104,13.791)"><tspan
                 id="tspan62"
                 y="0"
                 x="0 5.8459954">10</tspan></text>
<text
               id="text68"
               style="font-variant:normal;font-weight:normal;font-size:11.95500088px;font-family:CMR12;-inkscape-font-specification:CMR12;writing-mode:lr-tb;fill:#231f20;fill-opacity:1;fill-rule:nonzero;stroke:none"
               transform="matrix(1,0,0,-1,304.21146,14.791634)"><tspan
                 id="tspan66"
                 y="0"
                 x="0 5.8459954">20</tspan></text>
<text
               id="text72"
               style="font-variant:normal;font-weight:normal;font-size:11.95500088px;font-family:CMR12;-inkscape-font-specification:CMR12;writing-mode:lr-tb;fill:#231f20;fill-opacity:1;fill-rule:nonzero;stroke:none"
               transform="matrix(1,0,0,-1,432.82095,13.791)"><tspan
                 id="tspan70"
                 y="0"
                 x="0 5.8459954">30</tspan></text>
<text
               id="text76"
               style="font-variant:normal;font-weight:normal;font-size:11.95500088px;font-family:CMR12;-inkscape-font-specification:CMR12;writing-mode:lr-tb;fill:#231f20;fill-opacity:1;fill-rule:nonzero;stroke:none"
               transform="matrix(1,0,0,-1,28.182455,22.764423)"><tspan
                 id="tspan74"
                 y="0"
                 x="0">0</tspan></text>
<text
               id="text80"
               style="font-variant:normal;font-weight:normal;font-size:11.95500088px;font-family:CMMI12;-inkscape-font-specification:CMMI12;writing-mode:lr-tb;fill:#231f20;fill-opacity:1;fill-rule:nonzero;stroke:none"
               transform="matrix(1,0,0,-1,34.035622,22.764423)"><tspan
                 id="tspan78"
                 y="0"
                 x="0">.</tspan></text>
<text
               id="text84"
               style="font-variant:normal;font-weight:normal;font-size:11.95500088px;font-family:CMR12;-inkscape-font-specification:CMR12;writing-mode:lr-tb;fill:#231f20;fill-opacity:1;fill-rule:nonzero;stroke:none"
               transform="matrix(1,0,0,-1,37.28738,22.764423)"><tspan
                 id="tspan82"
                 y="0"
                 x="0 5.8459954">00</tspan></text>
<text
               id="text88"
               style="font-variant:normal;font-weight:normal;font-size:11.95500088px;font-family:CMR12;-inkscape-font-specification:CMR12;writing-mode:lr-tb;fill:#231f20;fill-opacity:1;fill-rule:nonzero;stroke:none"
               transform="matrix(1,0,0,-1,27.895531,44.264297)"><tspan
                 id="tspan86"
                 y="0"
                 x="0">2</tspan></text>
<text
               id="text92"
               style="font-variant:normal;font-weight:normal;font-size:11.95500088px;font-family:CMMI12;-inkscape-font-specification:CMMI12;writing-mode:lr-tb;fill:#231f20;fill-opacity:1;fill-rule:nonzero;stroke:none"
               transform="matrix(1,0,0,-1,33.748699,44.264297)"><tspan
                 id="tspan90"
                 y="0"
                 x="0">.</tspan></text>
<text
               id="text96"
               style="font-variant:normal;font-weight:normal;font-size:11.95500088px;font-family:CMR12;-inkscape-font-specification:CMR12;writing-mode:lr-tb;fill:#231f20;fill-opacity:1;fill-rule:nonzero;stroke:none"
               transform="matrix(1,0,0,-1,37.000458,44.264297)"><tspan
                 id="tspan94"
                 y="0"
                 x="0 5.8459954">00</tspan></text>
<text
               id="text100"
               style="font-variant:normal;font-weight:normal;font-size:11.95500088px;font-family:CMR12;-inkscape-font-specification:CMR12;writing-mode:lr-tb;fill:#231f20;fill-opacity:1;fill-rule:nonzero;stroke:none"
               transform="matrix(1,0,0,-1,27.607414,68.263962)"><tspan
                 id="tspan98"
                 y="0"
                 x="0">4</tspan></text>
<text
               id="text104"
               style="font-variant:normal;font-weight:normal;font-size:11.95500088px;font-family:CMMI12;-inkscape-font-specification:CMMI12;writing-mode:lr-tb;fill:#231f20;fill-opacity:1;fill-rule:nonzero;stroke:none"
               transform="matrix(1,0,0,-1,33.460583,68.263962)"><tspan
                 id="tspan102"
                 y="0"
                 x="0">.</tspan></text>
<text
               id="text108"
               style="font-variant:normal;font-weight:normal;font-size:11.95500088px;font-family:CMR12;-inkscape-font-specification:CMR12;writing-mode:lr-tb;fill:#231f20;fill-opacity:1;fill-rule:nonzero;stroke:none"
               transform="matrix(1,0,0,-1,36.712341,68.263962)"><tspan
                 id="tspan106"
                 y="0"
                 x="0 5.8459954">00</tspan></text>
<text
               id="text112"
               style="font-variant:normal;font-weight:normal;font-size:11.95500088px;font-family:CMR12;-inkscape-font-specification:CMR12;writing-mode:lr-tb;fill:#231f20;fill-opacity:1;fill-rule:nonzero;stroke:none"
               transform="matrix(1,0,0,-1,28.319931,93.264259)"><tspan
                 id="tspan110"
                 y="0"
                 x="0">6</tspan></text>
<text
               id="text116"
               style="font-variant:normal;font-weight:normal;font-size:11.95500088px;font-family:CMMI12;-inkscape-font-specification:CMMI12;writing-mode:lr-tb;fill:#231f20;fill-opacity:1;fill-rule:nonzero;stroke:none"
               transform="matrix(1,0,0,-1,34.1731,93.264259)"><tspan
                 id="tspan114"
                 y="0"
                 x="0">.</tspan></text>
<text
               id="text120"
               style="font-variant:normal;font-weight:normal;font-size:11.95500088px;font-family:CMR12;-inkscape-font-specification:CMR12;writing-mode:lr-tb;fill:#231f20;fill-opacity:1;fill-rule:nonzero;stroke:none"
               transform="matrix(1,0,0,-1,37.426056,93.264259)"><tspan
                 id="tspan118"
                 y="0"
                 x="0 5.8459954">00</tspan></text>
<text
               id="text124"
               style="font-variant:normal;font-weight:normal;font-size:11.95500088px;font-family:CMR12;-inkscape-font-specification:CMR12;writing-mode:lr-tb;fill:#231f20;fill-opacity:1;fill-rule:nonzero;stroke:none"
               transform="matrix(1,0,0,-1,28.533926,116.76421)"><tspan
                 id="tspan122"
                 y="0"
                 x="0">8</tspan></text>
<text
               id="text128"
               style="font-variant:normal;font-weight:normal;font-size:11.95500088px;font-family:CMMI12;-inkscape-font-specification:CMMI12;writing-mode:lr-tb;fill:#231f20;fill-opacity:1;fill-rule:nonzero;stroke:none"
               transform="matrix(1,0,0,-1,34.387093,116.76421)"><tspan
                 id="tspan126"
                 y="0"
                 x="0">.</tspan></text>
<text
               id="text132"
               style="font-variant:normal;font-weight:normal;font-size:11.95500088px;font-family:CMR12;-inkscape-font-specification:CMR12;writing-mode:lr-tb;fill:#231f20;fill-opacity:1;fill-rule:nonzero;stroke:none"
               transform="matrix(1,0,0,-1,37.637657,116.76421)"><tspan
                 id="tspan130"
                 y="0"
                 x="0 5.8459954">00</tspan></text>
<text
               id="text136"
               style="font-variant:normal;font-weight:normal;font-size:11.95500088px;font-family:CMR12;-inkscape-font-specification:CMR12;writing-mode:lr-tb;fill:#231f20;fill-opacity:1;fill-rule:nonzero;stroke:none"
               transform="matrix(1,0,0,-1,22.245594,140.26414)"><tspan
                 id="tspan134"
                 y="0"
                 x="0 5.8459954">10</tspan></text>
<text
               id="text140"
               style="font-variant:normal;font-weight:normal;font-size:11.95500088px;font-family:CMMI12;-inkscape-font-specification:CMMI12;writing-mode:lr-tb;fill:#231f20;fill-opacity:1;fill-rule:nonzero;stroke:none"
               transform="matrix(1,0,0,-1,33.950737,140.26414)"><tspan
                 id="tspan138"
                 y="0"
                 x="0">.</tspan></text>
<text
               id="text144"
               style="font-variant:normal;font-weight:normal;font-size:11.95500088px;font-family:CMR12;-inkscape-font-specification:CMR12;writing-mode:lr-tb;fill:#231f20;fill-opacity:1;fill-rule:nonzero;stroke:none"
               transform="matrix(1,0,0,-1,37.202496,140.26414)"><tspan
                 id="tspan142"
                 y="0"
                 x="0 5.8459954">00</tspan></text>
<text
               id="text148"
               style="font-variant:normal;font-weight:normal;font-size:11.95500088px;font-family:CMR12;-inkscape-font-specification:CMR12;writing-mode:lr-tb;fill:#231f20;fill-opacity:1;fill-rule:nonzero;stroke:none"
               transform="matrix(1,0,0,-1,23.310783,162.76465)"><tspan
                 id="tspan146"
                 y="0"
                 x="0 5.8459954">12</tspan></text>
<text
               id="text152"
               style="font-variant:normal;font-weight:normal;font-size:11.95500088px;font-family:CMMI12;-inkscape-font-specification:CMMI12;writing-mode:lr-tb;fill:#231f20;fill-opacity:1;fill-rule:nonzero;stroke:none"
               transform="matrix(1,0,0,-1,35.01712,162.76465)"><tspan
                 id="tspan150"
                 y="0"
                 x="0">.</tspan></text>
<text
               id="text156"
               style="font-variant:normal;font-weight:normal;font-size:11.95500088px;font-family:CMR12;-inkscape-font-specification:CMR12;writing-mode:lr-tb;fill:#231f20;fill-opacity:1;fill-rule:nonzero;stroke:none"
               transform="matrix(1,0,0,-1,38.268879,162.76465)"><tspan
                 id="tspan154"
                 y="0"
                 x="0 5.8459954">00</tspan></text>
<text
               id="text160"
               style="font-variant:normal;font-weight:normal;font-size:11.95500088px;font-family:CMR12;-inkscape-font-specification:CMR12;writing-mode:lr-tb;fill:#231f20;fill-opacity:1;fill-rule:nonzero;stroke:none"
               transform="matrix(1,0,0,-1,22.375902,185.76488)"><tspan
                 id="tspan158"
                 y="0"
                 x="0 5.8459954">14</tspan></text>
<text
               id="text164"
               style="font-variant:normal;font-weight:normal;font-size:11.95500088px;font-family:CMMI12;-inkscape-font-specification:CMMI12;writing-mode:lr-tb;fill:#231f20;fill-opacity:1;fill-rule:nonzero;stroke:none"
               transform="matrix(1,0,0,-1,34.083435,185.76488)"><tspan
                 id="tspan162"
                 y="0"
                 x="0">.</tspan></text>
<text
               id="text168"
               style="font-variant:normal;font-weight:normal;font-size:11.95500088px;font-family:CMR12;-inkscape-font-specification:CMR12;writing-mode:lr-tb;fill:#231f20;fill-opacity:1;fill-rule:nonzero;stroke:none"
               transform="matrix(1,0,0,-1,37.334,185.76488)"><tspan
                 id="tspan166"
                 y="0"
                 x="0 5.8459954">00</tspan></text>
<text
               id="text172"
               style="font-variant:normal;font-weight:normal;font-size:11.95500088px;font-family:CMR12;-inkscape-font-specification:CMR12;writing-mode:lr-tb;fill:#231f20;fill-opacity:1;fill-rule:nonzero;stroke:none"
               transform="matrix(1,0,0,-1,21.442219,209.76454)"><tspan
                 id="tspan170"
                 y="0"
                 x="0 5.8459954">16</tspan></text>
<text
               id="text176"
               style="font-variant:normal;font-weight:normal;font-size:11.95500088px;font-family:CMMI12;-inkscape-font-specification:CMMI12;writing-mode:lr-tb;fill:#231f20;fill-opacity:1;fill-rule:nonzero;stroke:none"
               transform="matrix(1,0,0,-1,33.148556,209.76454)"><tspan
                 id="tspan174"
                 y="0"
                 x="0">.</tspan></text>
<text
               id="text180"
               style="font-variant:normal;font-weight:normal;font-size:11.95500088px;font-family:CMR12;-inkscape-font-specification:CMR12;writing-mode:lr-tb;fill:#231f20;fill-opacity:1;fill-rule:nonzero;stroke:none"
               transform="matrix(1,0,0,-1,36.400314,209.76454)"><tspan
                 id="tspan178"
                 y="0"
                 x="0 5.8459954">00</tspan></text>
<text
               id="text184"
               style="font-variant:normal;font-weight:normal;font-size:11.95500088px;font-family:CMR12;-inkscape-font-specification:CMR12;writing-mode:lr-tb;fill:#231f20;fill-opacity:1;fill-rule:nonzero;stroke:none"
               transform="matrix(1,0,0,-1,379.1442,176.36465)"><tspan
                 id="tspan182"
                 y="0"
                 x="0 8.774971 17.227156">UCL</tspan></text>
<text
               id="text188"
               style="font-variant:normal;font-weight:normal;font-size:11.95500088px;font-family:CMR12;-inkscape-font-specification:CMR12;writing-mode:lr-tb;fill:#231f20;fill-opacity:1;fill-rule:nonzero;stroke:none"
               transform="matrix(1,0,0,-1,407.5899,176.36465)"><tspan
                 id="tspan186"
                 y="0"
                 x="0">=</tspan></text>
<text
               id="text192"
               style="font-variant:normal;font-weight:normal;font-size:11.95500088px;font-family:CMR12;-inkscape-font-specification:CMR12;writing-mode:lr-tb;fill:#231f20;fill-opacity:1;fill-rule:nonzero;stroke:none"
               transform="matrix(1,0,0,-1,420.01474,176.36465)"><tspan
                 id="tspan190"
                 y="0"
                 x="0">1</tspan></text>
<text
               id="text196"
               style="font-variant:normal;font-weight:normal;font-size:11.95500088px;font-family:CMR12;-inkscape-font-specification:CMR12;writing-mode:lr-tb;fill:#231f20;fill-opacity:1;fill-rule:nonzero;stroke:none"
               transform="matrix(1,0,0,-1,425.86075,176.36465)"><tspan
                 id="tspan194"
                 y="0"
                 x="0">2</tspan></text>
<text
               id="text200"
               style="font-variant:normal;font-weight:normal;font-size:11.95500088px;font-family:CMMI12;-inkscape-font-specification:CMMI12;writing-mode:lr-tb;fill:#231f20;fill-opacity:1;fill-rule:nonzero;stroke:none"
               transform="matrix(1,0,0,-1,431.7211,176.36465)"><tspan
                 id="tspan198"
                 y="0"
                 x="0">.</tspan></text>
<text
               id="text204"
               style="font-variant:normal;font-weight:normal;font-size:11.95500088px;font-family:CMR12;-inkscape-font-specification:CMR12;writing-mode:lr-tb;fill:#231f20;fill-opacity:1;fill-rule:nonzero;stroke:none"
               transform="matrix(1,0,0,-1,434.97287,176.36465)"><tspan
                 id="tspan202"
                 y="0"
                 x="0 5.8459954">69</tspan></text>
<text
               id="text208"
               style="font-variant:normal;font-weight:normal;font-size:11.95500088px;font-family:CMR12;-inkscape-font-specification:CMR12;writing-mode:lr-tb;fill:#231f20;fill-opacity:1;fill-rule:nonzero;stroke:none"
               transform="matrix(1,0,0,-1,391.63361,96.886612)"><tspan
                 id="tspan206"
                 y="0"
                 x="0">¯</tspan></text>
<text
               id="text212"
               style="font-variant:normal;font-weight:normal;font-size:11.95500088px;font-family:CMMI12;-inkscape-font-specification:CMMI12;writing-mode:lr-tb;fill:#231f20;fill-opacity:1;fill-rule:nonzero;stroke:none"
               transform="matrix(1,0,0,-1,389.08121,93.864388)"><tspan
                 id="tspan210"
                 y="0"
                 x="0">R</tspan></text>
<text
               id="text216"
               style="font-variant:normal;font-weight:normal;font-size:11.95500088px;font-family:CMR12;-inkscape-font-specification:CMR12;writing-mode:lr-tb;fill:#231f20;fill-opacity:1;fill-rule:nonzero;stroke:none"
               transform="matrix(1,0,0,-1,401.40921,93.864388)"><tspan
                 id="tspan214"
                 y="0"
                 x="0">=</tspan></text>
<text
               id="text220"
               style="font-variant:normal;font-weight:normal;font-size:11.95500088px;font-family:CMR12;-inkscape-font-specification:CMR12;writing-mode:lr-tb;fill:#231f20;fill-opacity:1;fill-rule:nonzero;stroke:none"
               transform="matrix(1,0,0,-1,413.83405,93.864388)"><tspan
                 id="tspan218"
                 y="0"
                 x="0">5</tspan></text>
<text
               id="text224"
               style="font-variant:normal;font-weight:normal;font-size:11.95500088px;font-family:CMMI12;-inkscape-font-specification:CMMI12;writing-mode:lr-tb;fill:#231f20;fill-opacity:1;fill-rule:nonzero;stroke:none"
               transform="matrix(1,0,0,-1,419.68842,93.864388)"><tspan
                 id="tspan222"
                 y="0"
                 x="0">.</tspan></text>
<text
               id="text228"
               style="font-variant:normal;font-weight:normal;font-size:11.95500088px;font-family:CMR12;-inkscape-font-specification:CMR12;writing-mode:lr-tb;fill:#231f20;fill-opacity:1;fill-rule:nonzero;stroke:none"
               transform="matrix(1,0,0,-1,422.939,93.864388)"><tspan
                 id="tspan226"
                 y="0"
                 x="0 5.8459954">56</tspan></text>
<text
               id="text232"
               style="font-variant:normal;font-weight:normal;font-size:11.95500088px;font-family:CMR12;-inkscape-font-specification:CMR12;writing-mode:lr-tb;fill:#231f20;fill-opacity:1;fill-rule:nonzero;stroke:none"
               transform="matrix(1,0,0,-1,207.31143,3.0027964)"><tspan
                 id="tspan230"
                 y="0"
                 x="0 6.4915657 12.337561 22.080887 28.572453 31.812258">Sample</tspan></text>
<text
               id="text236"
               style="font-variant:normal;font-weight:normal;font-size:11.95500088px;font-family:CMR12;-inkscape-font-specification:CMR12;writing-mode:lr-tb;fill:#231f20;fill-opacity:1;fill-rule:nonzero;stroke:none"
               transform="matrix(1,0,0,-1,248.28362,3.0027964)"><tspan
                 id="tspan234"
                 y="0"
                 x="0 8.774971 15.266537">Num</tspan></text>
<text
               id="text240"
               style="font-variant:normal;font-weight:normal;font-size:11.95500088px;font-family:CMR12;-inkscape-font-specification:CMR12;writing-mode:lr-tb;fill:#231f20;fill-opacity:1;fill-rule:nonzero;stroke:none"
               transform="matrix(1,0,0,-1,272.99103,3.0027964)"><tspan
                 id="tspan238"
                 y="0"
                 x="0">b</tspan></text>
<text
               id="text244"
               style="font-variant:normal;font-weight:normal;font-size:11.95500088px;font-family:CMR12;-inkscape-font-specification:CMR12;writing-mode:lr-tb;fill:#231f20;fill-opacity:1;fill-rule:nonzero;stroke:none"
               transform="matrix(1,0,0,-1,279.82092,3.0027964)"><tspan
                 id="tspan242"
                 y="0"
                 x="0">e</tspan></text>
<text
               id="text248"
               style="font-variant:normal;font-weight:normal;font-size:11.95500088px;font-family:CMR12;-inkscape-font-specification:CMR12;writing-mode:lr-tb;fill:#231f20;fill-opacity:1;fill-rule:nonzero;stroke:none"
               transform="matrix(1,0,0,-1,285.02136,3.0027964)"><tspan
                 id="tspan246"
                 y="0"
                 x="0">r</tspan></text>
<text
               id="text252"
               style="font-variant:normal;font-weight:normal;font-size:11.95500088px;font-family:CMR12;-inkscape-font-specification:CMR12;writing-mode:lr-tb;fill:#231f20;fill-opacity:1;fill-rule:nonzero;stroke:none"
               transform="matrix(0,1,1,0,8.9663,70.532005)"><tspan
                 id="tspan250"
                 y="0"
                 x="0 6.4915657 12.337561 22.080887 28.572453 31.812258">Sample</tspan></text>
<text
               id="text256"
               style="font-variant:normal;font-weight:normal;font-size:11.95500088px;font-family:CMR12;-inkscape-font-specification:CMR12;writing-mode:lr-tb;fill:#231f20;fill-opacity:1;fill-rule:nonzero;stroke:none"
               transform="matrix(0,1,1,0,8.9663,111.50299)"><tspan
                 id="tspan254"
                 y="0"
                 x="0 8.6076012 14.453596 20.945162 26.791157">Range</tspan></text>
</g><g
             id="g258"><g
               clip-path="url(#clipPath264)"
               id="g260"><text
                 id="text268"
                 style="font-variant:normal;font-weight:normal;font-size:11.95500088px;font-family:CMR12;-inkscape-font-specification:CMR12;writing-mode:lr-tb;fill:#231f20;fill-opacity:1;fill-rule:nonzero;stroke:none"
                 transform="matrix(0,1,1,0,8.9663,148.4326)"><tspan
                   id="tspan266"
                   y="0"
                   x="0">(</tspan></text>
</g></g><g
             id="g270"><text
               id="text274"
               style="font-variant:normal;font-weight:normal;font-size:11.95500088px;font-family:CMR12;-inkscape-font-specification:CMR12;writing-mode:lr-tb;fill:#231f20;fill-opacity:1;fill-rule:nonzero;stroke:none"
               transform="matrix(0,1,1,0,8.9663,152.97549)"><tspan
                 id="tspan272"
                 y="0"
                 x="0 5.8459954">gm</tspan></text>
</g><g
             id="g276"><g
               clip-path="url(#clipPath282)"
               id="g278"><text
                 id="text286"
                 style="font-variant:normal;font-weight:normal;font-size:11.95500088px;font-family:CMR12;-inkscape-font-specification:CMR12;writing-mode:lr-tb;fill:#231f20;fill-opacity:1;fill-rule:nonzero;stroke:none"
                 transform="matrix(0,1,1,0,8.9663,168.5647)"><tspan
                   id="tspan284"
                   y="0"
                   x="0">)</tspan></text>
</g></g></g></g></g></g></svg>