<?xml version="1.0" encoding="UTF-8" standalone="no"?>
<svg
   xmlns:dc="http://purl.org/dc/elements/1.1/"
   xmlns:cc="http://creativecommons.org/ns#"
   xmlns:rdf="http://www.w3.org/1999/02/22-rdf-syntax-ns#"
   xmlns:svg="http://www.w3.org/2000/svg"
   xmlns="http://www.w3.org/2000/svg"
   viewBox="0 0 541.33331 305.33334"
   height="305.33334"
   width="541.33331"
   xml:space="preserve"
   id="svg2"
   version="1.1"><metadata
     id="metadata8"><rdf:RDF><cc:Work
         rdf:about=""><dc:format>image/svg+xml</dc:format><dc:type
           rdf:resource="http://purl.org/dc/dcmitype/StillImage" /></cc:Work></rdf:RDF></metadata><defs
     id="defs6"><clipPath
       id="clipPath24"
       clipPathUnits="userSpaceOnUse"><path
         id="path22"
         d="M 0,0 H 406 V 229 H 0 Z" /></clipPath><clipPath
       id="clipPath52"
       clipPathUnits="userSpaceOnUse"><path
         id="path50"
         d="M 0.06,0.05999756 H 405.16101 V 228.65201 H 0.06 Z" /></clipPath><clipPath
       id="clipPath92"
       clipPathUnits="userSpaceOnUse"><path
         id="path90"
         d="M 0.06,0.05999756 H 405.16101 V 228.65201 H 0.06 Z" /></clipPath><clipPath
       id="clipPath110"
       clipPathUnits="userSpaceOnUse"><path
         id="path108"
         d="M 0.06,0.05999756 H 405.16101 V 228.65201 H 0.06 Z" /></clipPath></defs><g
     transform="matrix(1.3333333,0,0,-1.3333333,0,305.33333)"
     id="g10"><g
       id="g12" /><g
       id="g14" /><g
       id="g16"><g
         id="g18"><g
           clip-path="url(#clipPath24)"
           id="g20"><g
             id="g26" /><g
             id="g28"><path
               id="path30"
               style="fill:#231f20;fill-opacity:1;fill-rule:nonzero;stroke:none"
               d="M 42.529003,24.514002 H 399.84503" /><path
               id="path32"
               style="fill:none;stroke:#231f20;stroke-width:1;stroke-linecap:butt;stroke-linejoin:miter;stroke-miterlimit:4;stroke-dasharray:none;stroke-opacity:1"
               d="M 42.529003,24.514002 H 399.84503 m -347.236029,-3.267 v 7 m 107.310009,-7.233 v 7 m -12.18,-7 v 7 M 136.399,20.548 v 7.000002 M 124.64,20.548 v 7.000002 M 112.04,20.548 v 7.000002 M 100.69901,20.548 v 7.000002 M 88.099007,20.548 v 7.000002 M 75.919006,20.548 v 7.000002 m -12.180004,-6.534 v 7" /><text
               id="text36"
               style="font-variant:normal;font-weight:normal;font-size:11.95500088px;font-family:CMR12;-inkscape-font-specification:CMR12;writing-mode:lr-tb;fill:#231f20;fill-opacity:1;fill-rule:nonzero;stroke:none"
               transform="matrix(1,0,0,-1,154.25201,9.4310007)"><tspan
                 id="tspan34"
                 y="0"
                 x="0 5.8459954">10</tspan></text>
<text
               id="text40"
               style="font-variant:normal;font-weight:normal;font-size:11.95500088px;font-family:CMR12;-inkscape-font-specification:CMR12;writing-mode:lr-tb;fill:#231f20;fill-opacity:1;fill-rule:nonzero;stroke:none"
               transform="matrix(1,0,0,-1,276.52658,9.4310007)"><tspan
                 id="tspan38"
                 y="0"
                 x="0 5.8459954">20</tspan></text>
<text
               id="text44"
               style="font-variant:normal;font-weight:normal;font-size:11.95500088px;font-family:CMR12;-inkscape-font-specification:CMR12;writing-mode:lr-tb;fill:#231f20;fill-opacity:1;fill-rule:nonzero;stroke:none"
               transform="matrix(1,0,0,-1,393.46799,10.099285)"><tspan
                 id="tspan42"
                 y="0"
                 x="0 5.8459954">30</tspan></text>
</g><g
             id="g46"><g
               clip-path="url(#clipPath52)"
               id="g48"><path
                 id="path54"
                 style="fill:none;stroke:#231f20;stroke-width:1;stroke-linecap:butt;stroke-linejoin:miter;stroke-miterlimit:4;stroke-dasharray:none;stroke-opacity:1"
                 d="m 403.97601,74.764 -12,-29.999996 -10.20099,10 L 367.37601,70.097 354.77502,59.43 l -12,-2 -12.6,28.001007 L 319.37601,45.43 306.77502,88.764008 h -12.6 l -12,-16.000008 -12,-11.332996 -12,27.333004 -12.599,-38.666005 L 233.576,106.76401 222.175,61.431004 208.97601,76.764 197.576,52.764004 l -13.19999,89.334006 -11.4,65.33301 -12.6,-100.66701 -11.4,23.334 -12.6,-49.334002 -12,-24.000004 -12.6,34.667003 L 99.775002,116.76401 86.575005,77.431007 75.175003,42.764004 63.175003,69.431 49.975002,48.764004 m -7.2,102.666996 H 401.57602 M 43.975002,75.764 H 402.77502 M 42.175003,22.098001 V 222.76501 M 38.575001,53.43 h 7.200001 m -6.599999,140.33401 h 7.200001 m -7.800003,-28 h 7.200001 m -7.200001,-27.666 h 7.200001 m -7.200001,-28.334 h 7.200001 m -6,-28.000002 h 7.2 M 174.10901,21.247002 v 7 m 107.31,-7.233 v 7 m -12.17902,-7 v 7 m -11.34,-7.466002 v 7.000002 M 246.14,20.548 v 7.000002 M 233.54102,20.548 v 7.000002 M 222.19901,20.548 v 7.000002 m -12.6,-7.000002 v 7.000002 m -12.18,-7.000002 v 7.000002 m -12.18,-6.534 v 7 m 110.67099,-6.767 v 7 m 107.31,-7.233 v 7 m -12.17898,-7 v 7 m -11.34,-7.466002 v 7.000002 M 367.94101,20.548 v 7.000002 M 355.34,20.548 v 7.000002 M 344,20.548 v 7.000002 M 331.39902,20.548 v 7.000002 m -12.18,-7.000002 v 7.000002 m -12.18002,-6.534 v 7" /></g></g><g
             id="g56"><text
               id="text60"
               style="font-variant:normal;font-weight:normal;font-size:11.95500088px;font-family:CMR12;-inkscape-font-specification:CMR12;writing-mode:lr-tb;fill:#231f20;fill-opacity:1;fill-rule:nonzero;stroke:none"
               transform="matrix(1,0,0,-1,179.313,3.0010002)"><tspan
                 id="tspan58"
                 y="0"
                 x="0 6.4915657 12.337561 22.080887 28.572453 31.812258">Sample</tspan></text>
<text
               id="text64"
               style="font-variant:normal;font-weight:normal;font-size:11.95500088px;font-family:CMR12;-inkscape-font-specification:CMR12;writing-mode:lr-tb;fill:#231f20;fill-opacity:1;fill-rule:nonzero;stroke:none"
               transform="matrix(1,0,0,-1,220.28519,3.0010002)"><tspan
                 id="tspan62"
                 y="0"
                 x="0 8.774971 15.266537">Num</tspan></text>
<text
               id="text68"
               style="font-variant:normal;font-weight:normal;font-size:11.95500088px;font-family:CMR12;-inkscape-font-specification:CMR12;writing-mode:lr-tb;fill:#231f20;fill-opacity:1;fill-rule:nonzero;stroke:none"
               transform="matrix(1,0,0,-1,244.99258,3.0010002)"><tspan
                 id="tspan66"
                 y="0"
                 x="0">b</tspan></text>
<text
               id="text72"
               style="font-variant:normal;font-weight:normal;font-size:11.95500088px;font-family:CMR12;-inkscape-font-specification:CMR12;writing-mode:lr-tb;fill:#231f20;fill-opacity:1;fill-rule:nonzero;stroke:none"
               transform="matrix(1,0,0,-1,251.82248,3.0010002)"><tspan
                 id="tspan70"
                 y="0"
                 x="0">e</tspan></text>
<text
               id="text76"
               style="font-variant:normal;font-weight:normal;font-size:11.95500088px;font-family:CMR12;-inkscape-font-specification:CMR12;writing-mode:lr-tb;fill:#231f20;fill-opacity:1;fill-rule:nonzero;stroke:none"
               transform="matrix(1,0,0,-1,257.02292,3.0010002)"><tspan
                 id="tspan74"
                 y="0"
                 x="0">r</tspan></text>
<text
               id="text80"
               style="font-variant:normal;font-weight:normal;font-size:11.95500088px;font-family:CMR12;-inkscape-font-specification:CMR12;writing-mode:lr-tb;fill:#231f20;fill-opacity:1;fill-rule:nonzero;stroke:none"
               transform="matrix(0,1,1,0,8.9663,70.367004)"><tspan
                 id="tspan78"
                 y="0"
                 x="0 6.4915657 12.337561 22.080887 28.572453 31.812258">Sample</tspan></text>
<text
               id="text84"
               style="font-variant:normal;font-weight:normal;font-size:11.95500088px;font-family:CMR12;-inkscape-font-specification:CMR12;writing-mode:lr-tb;fill:#231f20;fill-opacity:1;fill-rule:nonzero;stroke:none"
               transform="matrix(0,1,1,0,8.9663,111.33798)"><tspan
                 id="tspan82"
                 y="0"
                 x="0 8.6076012 14.453596 20.945162 26.791157">Range</tspan></text>
</g><g
             id="g86"><g
               clip-path="url(#clipPath92)"
               id="g88"><text
                 id="text96"
                 style="font-variant:normal;font-weight:normal;font-size:11.95500088px;font-family:CMR12;-inkscape-font-specification:CMR12;writing-mode:lr-tb;fill:#231f20;fill-opacity:1;fill-rule:nonzero;stroke:none"
                 transform="matrix(0,1,1,0,8.9663,146.60019)"><tspan
                   id="tspan94"
                   y="0"
                   x="0">(</tspan></text>
</g></g><g
             id="g98"><text
               id="text102"
               style="font-variant:normal;font-weight:normal;font-size:11.95500088px;font-family:CMR12;-inkscape-font-specification:CMR12;writing-mode:lr-tb;fill:#231f20;fill-opacity:1;fill-rule:nonzero;stroke:none"
               transform="matrix(0,1,1,0,8.9663,151.1431)"><tspan
                 id="tspan100"
                 y="0"
                 x="0 5.8459954">gm</tspan></text>
</g><g
             id="g104"><g
               clip-path="url(#clipPath110)"
               id="g106"><text
                 id="text114"
                 style="font-variant:normal;font-weight:normal;font-size:11.95500088px;font-family:CMR12;-inkscape-font-specification:CMR12;writing-mode:lr-tb;fill:#231f20;fill-opacity:1;fill-rule:nonzero;stroke:none"
                 transform="matrix(0,1,1,0,8.9663,166.7323)"><tspan
                   id="tspan112"
                   y="0"
                   x="0">)</tspan></text>
</g></g><g
             id="g116"><text
               id="text120"
               style="font-variant:normal;font-weight:normal;font-size:11.95500088px;font-family:CMR12;-inkscape-font-specification:CMR12;writing-mode:lr-tb;fill:#231f20;fill-opacity:1;fill-rule:nonzero;stroke:none"
               transform="matrix(0.89999992,0,0,-1,21.0142,21.019001)"><tspan
                 id="tspan118"
                 y="0"
                 x="0">0</tspan></text>
<text
               id="text124"
               style="font-variant:normal;font-weight:normal;font-size:11.95500088px;font-family:CMMI12;-inkscape-font-specification:CMMI12;writing-mode:lr-tb;fill:#231f20;fill-opacity:1;fill-rule:nonzero;stroke:none"
               transform="matrix(0.89999992,0,0,-1,26.282051,21.019001)"><tspan
                 id="tspan122"
                 y="0"
                 x="0">.</tspan></text>
<text
               id="text128"
               style="font-variant:normal;font-weight:normal;font-size:11.95500088px;font-family:CMR12;-inkscape-font-specification:CMR12;writing-mode:lr-tb;fill:#231f20;fill-opacity:1;fill-rule:nonzero;stroke:none"
               transform="matrix(0.89999992,0,0,-1,29.208635,21.019001)"><tspan
                 id="tspan126"
                 y="0"
                 x="0 5.8459954">00</tspan></text>
<text
               id="text132"
               style="font-variant:normal;font-weight:normal;font-size:11.95500088px;font-family:CMR12;-inkscape-font-specification:CMR12;writing-mode:lr-tb;fill:#231f20;fill-opacity:1;fill-rule:nonzero;stroke:none"
               transform="matrix(0.89999992,0,0,-1,19.256098,51.018879)"><tspan
                 id="tspan130"
                 y="0"
                 x="0">2</tspan></text>
<text
               id="text136"
               style="font-variant:normal;font-weight:normal;font-size:11.95500088px;font-family:CMMI12;-inkscape-font-specification:CMMI12;writing-mode:lr-tb;fill:#231f20;fill-opacity:1;fill-rule:nonzero;stroke:none"
               transform="matrix(0.89999992,0,0,-1,24.523949,51.018879)"><tspan
                 id="tspan134"
                 y="0"
                 x="0">.</tspan></text>
<text
               id="text140"
               style="font-variant:normal;font-weight:normal;font-size:11.95500088px;font-family:CMR12;-inkscape-font-specification:CMR12;writing-mode:lr-tb;fill:#231f20;fill-opacity:1;fill-rule:nonzero;stroke:none"
               transform="matrix(0.89999992,0,0,-1,27.449457,51.018879)"><tspan
                 id="tspan138"
                 y="0"
                 x="0 5.8459954">00</tspan></text>
<text
               id="text144"
               style="font-variant:normal;font-weight:normal;font-size:11.95500088px;font-family:CMR12;-inkscape-font-specification:CMR12;writing-mode:lr-tb;fill:#231f20;fill-opacity:1;fill-rule:nonzero;stroke:none"
               transform="matrix(0.89999992,0,0,-1,20.497746,79.684578)"><tspan
                 id="tspan142"
                 y="0"
                 x="0">4</tspan></text>
<text
               id="text148"
               style="font-variant:normal;font-weight:normal;font-size:11.95500088px;font-family:CMMI12;-inkscape-font-specification:CMMI12;writing-mode:lr-tb;fill:#231f20;fill-opacity:1;fill-rule:nonzero;stroke:none"
               transform="matrix(0.89999992,0,0,-1,25.765596,79.684578)"><tspan
                 id="tspan146"
                 y="0"
                 x="0">.</tspan></text>
<text
               id="text152"
               style="font-variant:normal;font-weight:normal;font-size:11.95500088px;font-family:CMR12;-inkscape-font-specification:CMR12;writing-mode:lr-tb;fill:#231f20;fill-opacity:1;fill-rule:nonzero;stroke:none"
               transform="matrix(0.89999992,0,0,-1,28.692181,79.684578)"><tspan
                 id="tspan150"
                 y="0"
                 x="0 5.8459954">00</tspan></text>
<text
               id="text156"
               style="font-variant:normal;font-weight:normal;font-size:11.95500088px;font-family:CMR12;-inkscape-font-specification:CMR12;writing-mode:lr-tb;fill:#231f20;fill-opacity:1;fill-rule:nonzero;stroke:none"
               transform="matrix(0.89999992,0,0,-1,19.337872,106.3514)"><tspan
                 id="tspan154"
                 y="0"
                 x="0">6</tspan></text>
<text
               id="text160"
               style="font-variant:normal;font-weight:normal;font-size:11.95500088px;font-family:CMMI12;-inkscape-font-specification:CMMI12;writing-mode:lr-tb;fill:#231f20;fill-opacity:1;fill-rule:nonzero;stroke:none"
               transform="matrix(0.89999992,0,0,-1,24.605722,106.3514)"><tspan
                 id="tspan158"
                 y="0"
                 x="0">.</tspan></text>
<text
               id="text164"
               style="font-variant:normal;font-weight:normal;font-size:11.95500088px;font-family:CMR12;-inkscape-font-specification:CMR12;writing-mode:lr-tb;fill:#231f20;fill-opacity:1;fill-rule:nonzero;stroke:none"
               transform="matrix(0.89999992,0,0,-1,27.532307,106.3514)"><tspan
                 id="tspan162"
                 y="0"
                 x="0 5.8459954">00</tspan></text>
<text
               id="text168"
               style="font-variant:normal;font-weight:normal;font-size:11.95500088px;font-family:CMR12;-inkscape-font-specification:CMR12;writing-mode:lr-tb;fill:#231f20;fill-opacity:1;fill-rule:nonzero;stroke:none"
               transform="matrix(0.89999992,0,0,-1,18.179073,135.0183)"><tspan
                 id="tspan166"
                 y="0"
                 x="0">8</tspan></text>
<text
               id="text172"
               style="font-variant:normal;font-weight:normal;font-size:11.95500088px;font-family:CMMI12;-inkscape-font-specification:CMMI12;writing-mode:lr-tb;fill:#231f20;fill-opacity:1;fill-rule:nonzero;stroke:none"
               transform="matrix(0.89999992,0,0,-1,23.446924,135.0183)"><tspan
                 id="tspan170"
                 y="0"
                 x="0">.</tspan></text>
<text
               id="text176"
               style="font-variant:normal;font-weight:normal;font-size:11.95500088px;font-family:CMR12;-inkscape-font-specification:CMR12;writing-mode:lr-tb;fill:#231f20;fill-opacity:1;fill-rule:nonzero;stroke:none"
               transform="matrix(0.89999992,0,0,-1,26.372433,135.0183)"><tspan
                 id="tspan174"
                 y="0"
                 x="0 5.8459954">00</tspan></text>
<text
               id="text180"
               style="font-variant:normal;font-weight:normal;font-size:11.95500088px;font-family:CMR12;-inkscape-font-specification:CMR12;writing-mode:lr-tb;fill:#231f20;fill-opacity:1;fill-rule:nonzero;stroke:none"
               transform="matrix(0.89999992,0,0,-1,13.420148,163.0181)"><tspan
                 id="tspan178"
                 y="0"
                 x="0 5.8459954">10</tspan></text>
<text
               id="text184"
               style="font-variant:normal;font-weight:normal;font-size:11.95500088px;font-family:CMMI12;-inkscape-font-specification:CMMI12;writing-mode:lr-tb;fill:#231f20;fill-opacity:1;fill-rule:nonzero;stroke:none"
               transform="matrix(0.89999992,0,0,-1,23.955849,163.0181)"><tspan
                 id="tspan182"
                 y="0"
                 x="0">.</tspan></text>
<text
               id="text188"
               style="font-variant:normal;font-weight:normal;font-size:11.95500088px;font-family:CMR12;-inkscape-font-specification:CMR12;writing-mode:lr-tb;fill:#231f20;fill-opacity:1;fill-rule:nonzero;stroke:none"
               transform="matrix(0.89999992,0,0,-1,26.882433,163.0181)"><tspan
                 id="tspan186"
                 y="0"
                 x="0 5.8459954">00</tspan></text>
<text
               id="text192"
               style="font-variant:normal;font-weight:normal;font-size:11.95500088px;font-family:CMR12;-inkscape-font-specification:CMR12;writing-mode:lr-tb;fill:#231f20;fill-opacity:1;fill-rule:nonzero;stroke:none"
               transform="matrix(0.89999992,0,0,-1,13.931224,190.35201)"><tspan
                 id="tspan190"
                 y="0"
                 x="0 5.8459954">12</tspan></text>
<text
               id="text196"
               style="font-variant:normal;font-weight:normal;font-size:11.95500088px;font-family:CMMI12;-inkscape-font-specification:CMMI12;writing-mode:lr-tb;fill:#231f20;fill-opacity:1;fill-rule:nonzero;stroke:none"
               transform="matrix(0.89999992,0,0,-1,24.465849,190.35201)"><tspan
                 id="tspan194"
                 y="0"
                 x="0">.</tspan></text>
<text
               id="text200"
               style="font-variant:normal;font-weight:normal;font-size:11.95500088px;font-family:CMR12;-inkscape-font-specification:CMR12;writing-mode:lr-tb;fill:#231f20;fill-opacity:1;fill-rule:nonzero;stroke:none"
               transform="matrix(0.89999992,0,0,-1,27.392433,190.35201)"><tspan
                 id="tspan198"
                 y="0"
                 x="0 5.8459954">00</tspan></text>
<text
               id="text204"
               style="font-variant:normal;font-weight:normal;font-size:11.95500088px;font-family:CMR12;-inkscape-font-specification:CMR12;writing-mode:lr-tb;fill:#231f20;fill-opacity:1;fill-rule:nonzero;stroke:none"
               transform="matrix(0.89999992,0,0,-1,13.239388,219.68599)"><tspan
                 id="tspan202"
                 y="0"
                 x="0 5.8459954">14</tspan></text>
<text
               id="text208"
               style="font-variant:normal;font-weight:normal;font-size:11.95500088px;font-family:CMMI12;-inkscape-font-specification:CMMI12;writing-mode:lr-tb;fill:#231f20;fill-opacity:1;fill-rule:nonzero;stroke:none"
               transform="matrix(0.89999992,0,0,-1,23.774014,219.68599)"><tspan
                 id="tspan206"
                 y="0"
                 x="0">.</tspan></text>
<text
               id="text212"
               style="font-variant:normal;font-weight:normal;font-size:11.95500088px;font-family:CMR12;-inkscape-font-specification:CMR12;writing-mode:lr-tb;fill:#231f20;fill-opacity:1;fill-rule:nonzero;stroke:none"
               transform="matrix(0.89999992,0,0,-1,26.700598,219.68599)"><tspan
                 id="tspan210"
                 y="0"
                 x="0 5.8459954">00</tspan></text>
<text
               id="text216"
               style="font-variant:normal;font-weight:normal;font-size:11.95500088px;font-family:CMR12;-inkscape-font-specification:CMR12;writing-mode:lr-tb;fill:#231f20;fill-opacity:1;fill-rule:nonzero;stroke:none"
               transform="matrix(1,0,0,-1,336.85001,154.6183)"><tspan
                 id="tspan214"
                 y="0"
                 x="0 8.774971 17.227156">UCL</tspan></text>
<text
               id="text220"
               style="font-variant:normal;font-weight:normal;font-size:11.95500088px;font-family:CMR12;-inkscape-font-specification:CMR12;writing-mode:lr-tb;fill:#231f20;fill-opacity:1;fill-rule:nonzero;stroke:none"
               transform="matrix(1,0,0,-1,365.29691,154.6183)"><tspan
                 id="tspan218"
                 y="0"
                 x="0">=</tspan></text>
<text
               id="text224"
               style="font-variant:normal;font-weight:normal;font-size:11.95500088px;font-family:CMR12;-inkscape-font-specification:CMR12;writing-mode:lr-tb;fill:#231f20;fill-opacity:1;fill-rule:nonzero;stroke:none"
               transform="matrix(1,0,0,-1,377.72052,154.6183)"><tspan
                 id="tspan222"
                 y="0"
                 x="0">8</tspan></text>
<text
               id="text228"
               style="font-variant:normal;font-weight:normal;font-size:11.95500088px;font-family:CMMI12;-inkscape-font-specification:CMMI12;writing-mode:lr-tb;fill:#231f20;fill-opacity:1;fill-rule:nonzero;stroke:none"
               transform="matrix(1,0,0,-1,383.57373,154.6183)"><tspan
                 id="tspan226"
                 y="0"
                 x="0">.</tspan></text>
<text
               id="text232"
               style="font-variant:normal;font-weight:normal;font-size:11.95500088px;font-family:CMR12;-inkscape-font-specification:CMR12;writing-mode:lr-tb;fill:#231f20;fill-opacity:1;fill-rule:nonzero;stroke:none"
               transform="matrix(1,0,0,-1,386.8255,154.6183)"><tspan
                 id="tspan230"
                 y="0"
                 x="0 5.8459954">85</tspan></text>
<text
               id="text236"
               style="font-variant:normal;font-weight:normal;font-size:11.95500088px;font-family:CMR12;-inkscape-font-specification:CMR12;writing-mode:lr-tb;fill:#231f20;fill-opacity:1;fill-rule:nonzero;stroke:none"
               transform="matrix(1,0,0,-1,357.82507,82.826134)"><tspan
                 id="tspan234"
                 y="0"
                 x="0">¯</tspan></text>
<text
               id="text240"
               style="font-variant:normal;font-weight:normal;font-size:11.95500088px;font-family:CMMI12;-inkscape-font-specification:CMMI12;writing-mode:lr-tb;fill:#231f20;fill-opacity:1;fill-rule:nonzero;stroke:none"
               transform="matrix(1,0,0,-1,355.27148,79.803909)"><tspan
                 id="tspan238"
                 y="0"
                 x="0">R</tspan></text>
<text
               id="text244"
               style="font-variant:normal;font-weight:normal;font-size:11.95500088px;font-family:CMR12;-inkscape-font-specification:CMR12;writing-mode:lr-tb;fill:#231f20;fill-opacity:1;fill-rule:nonzero;stroke:none"
               transform="matrix(1,0,0,-1,367.60068,79.803909)"><tspan
                 id="tspan242"
                 y="0"
                 x="0">=</tspan></text>
<text
               id="text248"
               style="font-variant:normal;font-weight:normal;font-size:11.95500088px;font-family:CMR12;-inkscape-font-specification:CMR12;writing-mode:lr-tb;fill:#231f20;fill-opacity:1;fill-rule:nonzero;stroke:none"
               transform="matrix(1,0,0,-1,380.02551,79.803909)"><tspan
                 id="tspan246"
                 y="0"
                 x="0">3</tspan></text>
<text
               id="text252"
               style="font-variant:normal;font-weight:normal;font-size:11.95500088px;font-family:CMMI12;-inkscape-font-specification:CMMI12;writing-mode:lr-tb;fill:#231f20;fill-opacity:1;fill-rule:nonzero;stroke:none"
               transform="matrix(1,0,0,-1,385.87988,79.803909)"><tspan
                 id="tspan250"
                 y="0"
                 x="0">.</tspan></text>
<text
               id="text256"
               style="font-variant:normal;font-weight:normal;font-size:11.95500088px;font-family:CMR12;-inkscape-font-specification:CMR12;writing-mode:lr-tb;fill:#231f20;fill-opacity:1;fill-rule:nonzero;stroke:none"
               transform="matrix(1,0,0,-1,389.13046,79.803909)"><tspan
                 id="tspan254"
                 y="0"
                 x="0 5.8459954">88</tspan></text>
<path
               id="path258"
               style="fill:none;stroke:#231f20;stroke-width:1;stroke-linecap:butt;stroke-linejoin:miter;stroke-miterlimit:4;stroke-dasharray:none;stroke-opacity:1"
               d="m 38.275002,223.43102 h 7.2" /></g></g></g></g></g></svg>