<?xml version="1.0" encoding="UTF-8" standalone="no"?>
<svg
   xmlns:dc="http://purl.org/dc/elements/1.1/"
   xmlns:cc="http://creativecommons.org/ns#"
   xmlns:rdf="http://www.w3.org/1999/02/22-rdf-syntax-ns#"
   xmlns:svg="http://www.w3.org/2000/svg"
   xmlns="http://www.w3.org/2000/svg"
   viewBox="0 0 189.33333 114.66667"
   height="114.66667"
   width="189.33333"
   xml:space="preserve"
   id="svg2"
   version="1.1"><metadata
     id="metadata8"><rdf:RDF><cc:Work
         rdf:about=""><dc:format>image/svg+xml</dc:format><dc:type
           rdf:resource="http://purl.org/dc/dcmitype/StillImage" /></cc:Work></rdf:RDF></metadata><defs
     id="defs6"><clipPath
       id="clipPath24"
       clipPathUnits="userSpaceOnUse"><path
         id="path22"
         d="M 0,0 H 142 V 86 H 0 Z" /></clipPath></defs><g
     transform="matrix(1.3333333,0,0,-1.3333333,0,114.66667)"
     id="g10"><g
       id="g12" /><g
       id="g14" /><g
       id="g16"><g
         id="g18"><g
           clip-path="url(#clipPath24)"
           id="g20"><g
             id="g26" /><g
             id="g28"><path
               id="path30"
               style="fill:none;stroke:#000000;stroke-width:1;stroke-linecap:butt;stroke-linejoin:miter;stroke-miterlimit:4;stroke-dasharray:none;stroke-opacity:1"
               d="M 1.4,2.3 H 140.59999 V 84.700005 H 1.4 Z" /><text
               id="text34"
               style="font-style:italic;font-variant:normal;font-size:9.60000038px;font-family:Times;-inkscape-font-specification:Times-Italic;writing-mode:lr-tb;fill:#000000;fill-opacity:1;fill-rule:nonzero;stroke:none"
               transform="matrix(1,0,0,-1,34.466801,62.833004)"><tspan
                 id="tspan32"
                 y="0"
                 x="0">A</tspan></text>
<text
               id="text38"
               style="font-style:italic;font-variant:normal;font-size:9.60000038px;font-family:Times;-inkscape-font-specification:Times-Italic;writing-mode:lr-tb;fill:#000000;fill-opacity:1;fill-rule:nonzero;stroke:none"
               transform="matrix(1,0,0,-1,95.801208,62.833004)"><tspan
                 id="tspan36"
                 y="0"
                 x="0">B</tspan></text>
<path
               id="path40"
               style="fill:none;stroke:#000000;stroke-width:1;stroke-linecap:butt;stroke-linejoin:miter;stroke-miterlimit:4;stroke-dasharray:none;stroke-opacity:1"
               d="m 38.200001,61.202003 c -10.830002,0 -19.611,-8.104999 -19.611,-18.102001 0,-9.998001 8.780998,-18.102001 19.611,-18.102001 10.829998,0 19.611004,8.104 19.611004,18.102001 0,9.997002 -8.781006,18.102001 -19.611004,18.102001 z m 59.733005,0.156998 c -10.830002,0 -19.61,-8.104 -19.61,-18.101997 0,-9.997006 8.779998,-18.102003 19.61,-18.102003 10.831004,0 19.611004,8.104997 19.611004,18.102003 0,9.997997 -8.78,18.101997 -19.611004,18.101997 z" /><text
               id="text44"
               style="font-variant:normal;font-weight:normal;font-size:10px;font-family:Times;-inkscape-font-specification:Times-Roman;writing-mode:lr-tb;fill:#000000;fill-opacity:1;fill-rule:nonzero;stroke:none"
               transform="matrix(1,0,0,-1,27.533199,46.299797)"><tspan
                 id="tspan42"
                 y="0"
                 x="0">0</tspan></text>
<text
               id="text48"
               style="font-variant:normal;font-weight:normal;font-size:10px;font-family:Times;-inkscape-font-specification:Times-Roman;writing-mode:lr-tb;fill:#000000;fill-opacity:1;fill-rule:nonzero;stroke:none"
               transform="matrix(1,0,0,-1,41.4002,34.566795)"><tspan
                 id="tspan46"
                 y="0"
                 x="0">1</tspan></text>
<text
               id="text52"
               style="font-variant:normal;font-weight:normal;font-size:10px;font-family:Times;-inkscape-font-specification:Times-Roman;writing-mode:lr-tb;fill:#000000;fill-opacity:1;fill-rule:nonzero;stroke:none"
               transform="matrix(1,0,0,-1,87.267197,47.366795)"><tspan
                 id="tspan50"
                 y="0"
                 x="0">2</tspan></text>
<text
               id="text56"
               style="font-variant:normal;font-weight:normal;font-size:10px;font-family:Times;-inkscape-font-specification:Times-Roman;writing-mode:lr-tb;fill:#000000;fill-opacity:1;fill-rule:nonzero;stroke:none"
               transform="matrix(1,0,0,-1,95.267197,40.432796)"><tspan
                 id="tspan54"
                 y="0"
                 x="0">3</tspan></text>
<text
               id="text60"
               style="font-variant:normal;font-weight:normal;font-size:10px;font-family:Times;-inkscape-font-specification:Times-Roman;writing-mode:lr-tb;fill:#000000;fill-opacity:1;fill-rule:nonzero;stroke:none"
               transform="matrix(1,0,0,-1,92.600197,30.299797)"><tspan
                 id="tspan58"
                 y="0"
                 x="0">4</tspan></text>
<text
               id="text64"
               style="font-style:italic;font-variant:normal;font-size:9.60000038px;font-family:Times;-inkscape-font-specification:Times-Italic;writing-mode:lr-tb;fill:#000000;fill-opacity:1;fill-rule:nonzero;stroke:none"
               transform="matrix(1,0,0,-1,131.5332,4.1670003)"><tspan
                 id="tspan62"
                 y="0"
                 x="0">S</tspan></text>
</g></g></g></g></g></svg>