<?xml version="1.0" encoding="UTF-8" standalone="no"?>
<svg
   xmlns:dc="http://purl.org/dc/elements/1.1/"
   xmlns:cc="http://creativecommons.org/ns#"
   xmlns:rdf="http://www.w3.org/1999/02/22-rdf-syntax-ns#"
   xmlns:svg="http://www.w3.org/2000/svg"
   xmlns="http://www.w3.org/2000/svg"
   viewBox="0 0 234.66667 141.33333"
   height="141.33333"
   width="234.66667"
   xml:space="preserve"
   id="svg2"
   version="1.1"><metadata
     id="metadata8"><rdf:RDF><cc:Work
         rdf:about=""><dc:format>image/svg+xml</dc:format><dc:type
           rdf:resource="http://purl.org/dc/dcmitype/StillImage" /></cc:Work></rdf:RDF></metadata><defs
     id="defs6"><clipPath
       id="clipPath24"
       clipPathUnits="userSpaceOnUse"><path
         id="path22"
         d="M 0,0 H 176 V 106 H 0 Z" /></clipPath></defs><g
     transform="matrix(1.3333333,0,0,-1.3333333,0,141.33333)"
     id="g10"><g
       id="g12" /><g
       id="g14" /><g
       id="g16"><g
         id="g18"><g
           clip-path="url(#clipPath24)"
           id="g20"><g
             id="g26" /><g
             id="g28"><path
               id="path30"
               style="fill:#bfbfbf;fill-opacity:1;fill-rule:nonzero;stroke:#000000;stroke-width:1;stroke-linecap:butt;stroke-linejoin:miter;stroke-miterlimit:4;stroke-dasharray:none;stroke-opacity:1"
               d="m 10.71,73.813004 c -0.572,-11.115002 4.497001,-20.41 11.322001,-20.761002 6.825001,-0.352001 12.821,8.374001 13.393002,19.488998 C 35.997002,83.656006 30.928001,92.952003 24.103001,93.303001 17.278,93.654007 11.282001,84.928001 10.71,73.813004 Z" /><path
               id="path32"
               style="fill:#bfbfbf;fill-opacity:1;fill-rule:nonzero;stroke:#000000;stroke-width:1;stroke-linecap:butt;stroke-linejoin:miter;stroke-miterlimit:4;stroke-dasharray:none;stroke-opacity:1"
               d="m 115.25,64.065002 c 16.20601,0 29.345,6.015 29.345,13.434998 0,7.419998 -13.13899,13.435005 -29.345,13.435005 -16.206993,0 -29.344994,-6.015007 -29.344994,-13.435005 0,-7.419998 13.138001,-13.434998 29.344994,-13.434998 z" /><path
               id="path34"
               style="fill:#bfbfbf;fill-opacity:1;fill-rule:nonzero;stroke:none"
               d="M 98.504005,24.812 C 113.997,28.849001 124.96201,38.248001 122.992,45.806004 121.023,53.364002 106.866,56.219002 91.372002,52.182003 75.879005,48.145 64.915001,38.745003 66.884003,31.188002 68.853004,23.629999 83.009995,20.775002 98.504005,24.812" /><path
               id="path36"
               style="fill:none;stroke:#000000;stroke-width:1;stroke-linecap:butt;stroke-linejoin:miter;stroke-miterlimit:4;stroke-dasharray:none;stroke-opacity:1"
               d="M 1,2 H 175 V 105 H 1 Z" /><text
               id="text40"
               style="font-style:italic;font-variant:normal;font-size:12px;font-family:Times;-inkscape-font-specification:Times-Italic;writing-mode:lr-tb;fill:#000000;fill-opacity:1;fill-rule:nonzero;stroke:none"
               transform="matrix(1,0,0,-1,18.621599,68.832901)"><tspan
                 id="tspan38"
                 y="0"
                 x="0">A</tspan></text>
<text
               id="text44"
               style="font-style:italic;font-variant:normal;font-size:12px;font-family:Times;-inkscape-font-specification:Times-Italic;writing-mode:lr-tb;fill:#000000;fill-opacity:1;fill-rule:nonzero;stroke:none"
               transform="matrix(1,0,0,-1,103.6668,72.786903)"><tspan
                 id="tspan42"
                 y="0"
                 x="0">B</tspan></text>
<text
               id="text48"
               style="font-style:italic;font-variant:normal;font-size:12px;font-family:Times;-inkscape-font-specification:Times-Italic;writing-mode:lr-tb;fill:#000000;fill-opacity:1;fill-rule:nonzero;stroke:none"
               transform="matrix(1,0,0,-1,165.5004,3.9993057)"><tspan
                 id="tspan46"
                 y="0"
                 x="0">S</tspan></text>
<text
               id="text52"
               style="font-style:italic;font-variant:normal;font-size:12px;font-family:Times;-inkscape-font-specification:Times-Italic;writing-mode:lr-tb;fill:#000000;fill-opacity:1;fill-rule:nonzero;stroke:none"
               transform="matrix(1,0,0,-1,108.0852,36.681305)"><tspan
                 id="tspan50"
                 y="0"
                 x="0">D</tspan></text>
<path
               id="path54"
               style="fill:#bfbfbf;fill-opacity:1;fill-rule:nonzero;stroke:#000000;stroke-width:1;stroke-linecap:butt;stroke-linejoin:miter;stroke-miterlimit:4;stroke-dasharray:none;stroke-opacity:1"
               d="m 66.312004,13.131001 c 8.592003,0 15.556999,6.965 15.556999,15.556001 0,8.592001 -6.964996,15.557001 -15.556999,15.557001 -8.591,0 -15.556003,-6.965 -15.556003,-15.557001 0,-8.591001 6.965003,-15.556001 15.556003,-15.556001 z" /><text
               id="text58"
               style="font-style:italic;font-variant:normal;font-size:12px;font-family:Times;-inkscape-font-specification:Times-Italic;writing-mode:lr-tb;fill:#000000;fill-opacity:1;fill-rule:nonzero;stroke:none"
               transform="matrix(1,0,0,-1,53.585003,28.182098)"><tspan
                 id="tspan56"
                 y="0"
                 x="0">C</tspan></text>
<path
               id="path60"
               style="fill:none;stroke:#000000;stroke-width:1;stroke-linecap:butt;stroke-linejoin:miter;stroke-miterlimit:4;stroke-dasharray:none;stroke-opacity:1"
               d="M 99.128006,24.877001 C 114.622,28.914001 125.58601,38.314003 123.617,45.872002 121.648,53.43 107.491,56.284004 91.997002,52.248001 76.503006,48.211002 65.539001,38.811001 67.508003,31.253002 c 1.969002,-7.558 16.126,-10.412 31.620003,-6.376001 z" /></g></g></g></g></g></svg>