<?xml version="1.0" encoding="UTF-8" standalone="no"?>
<svg
   xmlns:dc="http://purl.org/dc/elements/1.1/"
   xmlns:cc="http://creativecommons.org/ns#"
   xmlns:rdf="http://www.w3.org/1999/02/22-rdf-syntax-ns#"
   xmlns:svg="http://www.w3.org/2000/svg"
   xmlns="http://www.w3.org/2000/svg"
   viewBox="0 0 189.33333 114.66667"
   height="114.66667"
   width="189.33333"
   xml:space="preserve"
   id="svg2"
   version="1.1"><metadata
     id="metadata8"><rdf:RDF><cc:Work
         rdf:about=""><dc:format>image/svg+xml</dc:format><dc:type
           rdf:resource="http://purl.org/dc/dcmitype/StillImage" /></cc:Work></rdf:RDF></metadata><defs
     id="defs6"><clipPath
       id="clipPath24"
       clipPathUnits="userSpaceOnUse"><path
         id="path22"
         d="M 0,0 H 142 V 86 H 0 Z" /></clipPath></defs><g
     transform="matrix(1.3333333,0,0,-1.3333333,0,114.66667)"
     id="g10"><g
       id="g12" /><g
       id="g14" /><g
       id="g16"><g
         id="g18"><g
           clip-path="url(#clipPath24)"
           id="g20"><g
             id="g26" /><g
             id="g28"><path
               id="path30"
               style="fill:none;stroke:#000000;stroke-width:1;stroke-linecap:butt;stroke-linejoin:miter;stroke-miterlimit:4;stroke-dasharray:none;stroke-opacity:1"
               d="M 1.4,2.3 H 140.59999 V 84.700005 H 1.4 Z" /><text
               id="text34"
               style="font-style:italic;font-variant:normal;font-size:9.60000038px;font-family:Times;-inkscape-font-specification:Times-Italic;writing-mode:lr-tb;fill:#000000;fill-opacity:1;fill-rule:nonzero;stroke:none"
               transform="matrix(1,0,0,-1,88.533195,75.099602)"><tspan
                 id="tspan32"
                 y="0"
                 x="0">A</tspan></text>
<text
               id="text38"
               style="font-style:italic;font-variant:normal;font-size:9.60000038px;font-family:Times;-inkscape-font-specification:Times-Italic;writing-mode:lr-tb;fill:#000000;fill-opacity:1;fill-rule:nonzero;stroke:none"
               transform="matrix(1,0,0,-1,15.532874,40.167122)"><tspan
                 id="tspan36"
                 y="0"
                 x="0">B</tspan></text>
<text
               id="text42"
               style="font-variant:normal;font-weight:normal;font-size:10px;font-family:Times;-inkscape-font-specification:Times-Roman;writing-mode:lr-tb;fill:#000000;fill-opacity:1;fill-rule:nonzero;stroke:none"
               transform="matrix(1,0,0,-1,85.183098,48.566399)"><tspan
                 id="tspan40"
                 y="0"
                 x="0">6</tspan></text>
<text
               id="text46"
               style="font-style:italic;font-variant:normal;font-size:9.60000038px;font-family:Times;-inkscape-font-specification:Times-Italic;writing-mode:lr-tb;fill:#000000;fill-opacity:1;fill-rule:nonzero;stroke:none"
               transform="matrix(1,0,0,-1,131.5332,4.1670003)"><tspan
                 id="tspan44"
                 y="0"
                 x="0">S</tspan></text>
<text
               id="text50"
               style="font-variant:normal;font-weight:normal;font-size:10px;font-family:Times;-inkscape-font-specification:Times-Roman;writing-mode:lr-tb;fill:#000000;fill-opacity:1;fill-rule:nonzero;stroke:none"
               transform="matrix(1,0,0,-1,44.866699,27.7666)"><tspan
                 id="tspan48"
                 y="0"
                 x="0 5">15</tspan></text>
<text
               id="text54"
               style="font-variant:normal;font-weight:normal;font-size:10px;font-family:Times;-inkscape-font-specification:Times-Roman;writing-mode:lr-tb;fill:#000000;fill-opacity:1;fill-rule:nonzero;stroke:none"
               transform="matrix(1,0,0,-1,35.533699,32.433601)"><tspan
                 id="tspan52"
                 y="0"
                 x="0">9</tspan></text>
<text
               id="text58"
               style="font-variant:normal;font-weight:normal;font-size:10px;font-family:Times;-inkscape-font-specification:Times-Roman;writing-mode:lr-tb;fill:#000000;fill-opacity:1;fill-rule:nonzero;stroke:none"
               transform="matrix(1,0,0,-1,95.266701,53.500603)"><tspan
                 id="tspan56"
                 y="0"
                 x="0">4</tspan></text>
<text
               id="text62"
               style="font-variant:normal;font-weight:normal;font-size:10px;font-family:Times;-inkscape-font-specification:Times-Roman;writing-mode:lr-tb;fill:#000000;fill-opacity:1;fill-rule:nonzero;stroke:none"
               transform="matrix(1,0,0,-1,50.7337,47.900604)"><tspan
                 id="tspan60"
                 y="0"
                 x="0">3</tspan></text>
<text
               id="text66"
               style="font-variant:normal;font-weight:normal;font-size:10px;font-family:Times;-inkscape-font-specification:Times-Roman;writing-mode:lr-tb;fill:#000000;fill-opacity:1;fill-rule:nonzero;stroke:none"
               transform="matrix(1,0,0,-1,39.200699,54.167603)"><tspan
                 id="tspan64"
                 y="0"
                 x="0">5</tspan></text>
<text
               id="text70"
               style="font-variant:normal;font-weight:normal;font-size:10px;font-family:Times;-inkscape-font-specification:Times-Roman;writing-mode:lr-tb;fill:#000000;fill-opacity:1;fill-rule:nonzero;stroke:none"
               transform="matrix(1,0,0,-1,63.967697,19.333603)"><tspan
                 id="tspan68"
                 y="0"
                 x="0 5">10</tspan></text>
<text
               id="text74"
               style="font-style:italic;font-variant:normal;font-size:9.60000038px;font-family:Times;-inkscape-font-specification:Times-Italic;writing-mode:lr-tb;fill:#000000;fill-opacity:1;fill-rule:nonzero;stroke:none"
               transform="matrix(1,0,0,-1,117.5347,42.112297)"><tspan
                 id="tspan72"
                 y="0"
                 x="0">C</tspan></text>
<path
               id="path76"
               style="fill:none;stroke:#000000;stroke-width:1;stroke-linecap:butt;stroke-linejoin:miter;stroke-miterlimit:4;stroke-dasharray:none;stroke-opacity:1"
               d="M 61.583004,48.765003 C 73.919006,34.901001 77.898003,18.306002 70.472,11.697001 63.045002,5.0890002 47.024002,10.969999 34.688004,24.833002 c -12.335003,13.863001 -16.314003,30.459002 -8.888003,37.067 7.427,6.608001 23.447001,0.727001 35.783003,-13.134999 z m 13.77,-0.499 C 63.017002,34.403 59.038002,17.808001 66.464005,11.199 73.891006,4.5910001 89.911003,10.472 102.247,24.335001 c 12.33601,13.862001 16.315,30.458002 8.889,37.066004 -7.426,6.608997 -23.446997,0.727997 -35.782996,-13.135002 z M 109.2,59.799999 c 0,-8.34 -17.191997,-15.099998 -38.399997,-15.099998 -21.208,0 -38.400001,6.759998 -38.400001,15.099998 0,8.34 17.192001,15.100003 38.400001,15.100003 21.208,0 38.399997,-6.760003 38.399997,-15.100003 z" /></g></g></g></g></g></svg>