<?xml version="1.0" encoding="UTF-8" standalone="no"?>
<svg
   xmlns:dc="http://purl.org/dc/elements/1.1/"
   xmlns:cc="http://creativecommons.org/ns#"
   xmlns:rdf="http://www.w3.org/1999/02/22-rdf-syntax-ns#"
   xmlns:svg="http://www.w3.org/2000/svg"
   xmlns="http://www.w3.org/2000/svg"
   viewBox="0 0 624 185.33333"
   height="185.33333"
   width="624"
   xml:space="preserve"
   id="svg2"
   version="1.1"><metadata
     id="metadata8"><rdf:RDF><cc:Work
         rdf:about=""><dc:format>image/svg+xml</dc:format><dc:type
           rdf:resource="http://purl.org/dc/dcmitype/StillImage" /></cc:Work></rdf:RDF></metadata><defs
     id="defs6"><clipPath
       id="clipPath24"
       clipPathUnits="userSpaceOnUse"><path
         id="path22"
         d="M 0,0 H 468 V 139 H 0 Z" /></clipPath></defs><g
     transform="matrix(1.3333333,0,0,-1.3333333,0,185.33333)"
     id="g10"><g
       id="g12" /><g
       id="g14" /><g
       id="g16"><g
         id="g18"><g
           clip-path="url(#clipPath24)"
           id="g20"><g
             id="g26" /><g
             id="g28"><path
               id="path30"
               style="fill:none;stroke:#231f20;stroke-width:0.5;stroke-linecap:butt;stroke-linejoin:round;stroke-miterlimit:10;stroke-dasharray:none;stroke-opacity:1"
               d="m 84.651001,26.451002 h 1.800003 m -0.900001,0.9 v -1.800001 m 64.726007,0.901001 h 1.8 m -0.901,1.798999 v -3.6 m 64.75,1.801001 h 1.801 m -0.9,1.798999 v -3.6 M 83.752007,79.252007 h 3.598999 M 85.549995,80.152 v -1.800994 m -1.797988,53.726004 h 3.598999 m -1.801011,0.9 v -1.801" /><path
               id="path32"
               style="fill:none;stroke:#231f20;stroke-width:1;stroke-linecap:butt;stroke-linejoin:round;stroke-miterlimit:10;stroke-dasharray:none;stroke-opacity:1"
               d="M 85.551003,26.451002 H 217.07701 m -131.526007,0 V 132.07701" /><path
               id="path34"
               style="fill:none;stroke:#231f20;stroke-width:0.5;stroke-linecap:butt;stroke-linejoin:round;stroke-miterlimit:10;stroke-dasharray:none;stroke-opacity:1"
               d="m 203.82701,26.476002 h 0.4 l 0.125,-0.025 h 12.475 m -26,0.025 h 13 m -26,0.075 h 0.799 l 0.125,-0.024 h 4.326 l 0.15,-0.026 h 6.54901 l 0.14999,-0.025 h 0.901 m -25.975,0.225 h 0.649 l 0.125,-0.025 h 1.326 l 0.125,-0.024 h 1.575 l 0.12399,-0.026 h 1.70101 l 0.149,-0.025 h 2.101 l 0.125,-0.025 h 2.5 l 0.125,-0.025 h 2.35 m -25.975,0.575 h 0.25 l 0.125,-0.024 h 0.399 l 0.151,-0.026 h 0.375 l 0.149,-0.025 h 0.375 l 0.151,-0.024 h 0.375 l 0.15,-0.026 h 0.524 l 0.125,-0.025 h 0.401 l 0.125,-0.025 h 0.524 l 0.125,-0.025 h 0.651 l 0.15,-0.024 h 0.524 l 0.125,-0.026 h 0.64999 l 0.12601,-0.025 h 0.675 l 0.125,-0.025 h 0.775 l 0.149,-0.024 h 0.77499 l 0.12601,-0.025 h 0.925 l 0.125,-0.026 h 0.924 l 0.125,-0.024 h 1.05 l 0.151,-0.026 h 0.525 m -26,1.575998 0.125,-0.026 0.125,-0.024 h 0.149 l 0.125,-0.026 0.125,-0.025 h 0.125 l 0.151,-0.024 0.125,-0.026 h 0.12399 l 0.12601,-0.025 0.149,-0.025 h 0.125 l 0.125,-0.025 0.125,-0.024 h 0.151 l 0.125,-0.026 0.125,-0.025 h 0.125 l 0.15,-0.025 h 0.125 l 0.125,-0.024 0.125,-0.025 h 0.149 l 0.125,-0.026 h 0.125 l 0.125,-0.024 h 0.151 l 0.125,-0.026 h 0.12399 l 0.12601,-0.025 0.149,-0.024 h 0.125 l 0.125,-0.026 h 0.125 l 0.151,-0.025 h 0.125 l 0.125,-0.025 h 0.125 l 0.15,-0.025 h 0.125 l 0.125,-0.024 h 0.125 l 0.149,-0.026 h 0.125 l 0.125,-0.025 h 0.276 l 0.125,-0.025 h 0.12399 l 0.12601,-0.024 h 0.149 l 0.125,-0.025 h 0.125 l 0.125,-0.026 h 0.276 l 0.125,-0.024 h 0.125 l 0.15,-0.026 h 0.25 l 0.125,-0.025 h 0.149 l 0.125,-0.024 h 0.25 l 0.151,-0.026 h 0.24899 l 0.12601,-0.025 h 0.149 l 0.125,-0.025 h 0.25 l 0.151,-0.025 h 0.25 l 0.125,-0.024 h 0.275 l 0.125,-0.026 h 0.274 l 0.125,-0.025 h 0.401 l 0.12399,-0.025 h 0.25101 l 0.149,-0.024 h 0.25 l 0.125,-0.025 h 0.401 l 0.125,-0.026 h 0.15 m -26,4.225001 0.125,-0.049 0.149,-0.051 0.125,-0.05 0.125,-0.049 0.125,-0.026 0.151,-0.05 0.125,-0.049 0.124,-0.051 0.126,-0.049 0.14899,-0.051 0.125,-0.024 0.125,-0.051 0.125,-0.05 0.151,-0.025 0.125,-0.05 0.125,-0.05 0.12501,-0.05 0.15,-0.024 0.125,-0.051 0.125,-0.024 0.125,-0.051 0.149,-0.05 0.125,-0.025 0.125,-0.05 0.125,-0.024 0.151,-0.051 0.125,-0.025 0.12399,-0.049 0.12601,-0.026 0.149,-0.05 0.125,-0.025 0.125,-0.05 0.125,-0.025 0.151,-0.025 0.125,-0.049 0.125,-0.026 0.125,-0.05 0.15,-0.024 0.125,-0.025 0.125,-0.05 0.125,-0.026 0.149,-0.025 0.125,-0.024 0.125,-0.051 0.125,-0.025 0.151,-0.025 0.125,-0.024 0.12399,-0.051 0.12601,-0.025 0.149,-0.024 0.125,-0.025 0.125,-0.026 0.125,-0.05 0.151,-0.025 0.125,-0.024 0.125,-0.026 0.125,-0.025 0.15,-0.025 0.125,-0.025 0.125,-0.024 0.125,-0.026 0.149,-0.025 0.125,-0.049 0.125,-0.025 0.125,-0.026 0.151,-0.024 0.125,-0.026 0.12399,-0.025 0.12601,-0.024 0.149,-0.026 0.125,-0.025 0.125,-0.025 h 0.125 l 0.151,-0.025 0.125,-0.024 0.125,-0.026 0.125,-0.025 0.15,-0.025 0.125,-0.024 0.125,-0.025 0.125,-0.026 0.149,-0.024 h 0.125 l 0.125,-0.026 0.125,-0.025 0.151,-0.024 0.125,-0.026 0.12399,-0.025 h 0.12601 l 0.149,-0.025 0.125,-0.025 0.125,-0.024 0.125,-0.026 h 0.151 l 0.125,-0.025 0.125,-0.025 0.125,-0.024 h 0.15 l 0.125,-0.025 m -26,11.375 0.125,-0.125 0.149,-0.149997 0.375,-0.375 0.151,-0.125 0.124,-0.125 0.126,-0.125 0.125,-0.125 0.14899,-0.100003 0.375,-0.375 0.151,-0.100997 0.125,-0.125 0.125,-0.100003 0.125,-0.125 0.15001,-0.1 0.125,-0.125 0.125,-0.1 0.125,-0.099 0.149,-0.100997 0.125,-0.124001 0.125,-0.101002 0.125,-0.1 0.151,-0.1 0.124,-0.099 0.126,-0.100997 0.125,-0.100003 0.14899,-0.1 0.125,-0.1 0.125,-0.099 0.125,-0.100997 0.151,-0.075 0.125,-0.1 0.125,-0.099 0.125,-0.076 0.15001,-0.1 0.125,-0.1 0.125,-0.075 0.125,-0.100003 0.149,-0.075 0.125,-0.099 0.125,-0.076 0.125,-0.075 0.151,-0.099 0.124,-0.076 0.126,-0.075 0.14899,-0.099 0.125,-0.076 0.125,-0.075 0.125,-0.074 0.151,-0.075 0.125,-0.075 0.125,-0.076 0.125,-0.075 0.15001,-0.074 0.25,-0.150002 0.125,-0.076 0.149,-0.075 0.125,-0.074 0.25,-0.150002 0.151,-0.051 0.125,-0.074 0.124,-0.076 0.126,-0.075 0.14899,-0.05 0.125,-0.075 0.125,-0.05 0.125,-0.075 0.151,-0.074 0.125,-0.051 0.125,-0.075 0.125,-0.05 0.15001,-0.075 0.125,-0.05 0.125,-0.05 0.125,-0.075 0.149,-0.05 0.125,-0.075 0.125,-0.05 0.125,-0.049 0.151,-0.051 0.125,-0.074 0.125,-0.05 0.125,-0.051 0.14899,-0.05 0.125,-0.05 0.125,-0.075 0.125,-0.05 0.151,-0.049 0.125,-0.05 0.125,-0.051 0.125,-0.05 0.15001,-0.05 0.125,-0.049 0.125,-0.051 m -26.001004,30.625999 0.150004,-0.375 0.125,-0.349998 0.125,-0.325001 0.125,-0.349999 0.151,-0.351001 0.12399,-0.323998 0.12601,-0.351001 0.125,-0.325001 0.14899,-0.323998 0.125,-0.325001 0.125,-0.299999 0.125,-0.325001 0.151,-0.325 0.25,-0.599999 0.125,-0.325001 0.15001,-0.299999 0.125,-0.275001 0.124,-0.3 0.126,-0.299999 0.149,-0.300003 0.25,-0.550998 0.125,-0.299 0.151,-0.275002 0.124,-0.274998 0.125,-0.276 0.126,-0.25 0.14899,-0.273999 0.125,-0.275001 0.25,-0.5 0.151,-0.276001 0.125,-0.25 0.125,-0.249001 0.125,-0.250999 0.15001,-0.25 0.125,-0.249001 0.124,-0.224998 0.125,-0.25 0.15,-0.224999 0.125,-0.25 0.125,-0.226001 0.125,-0.224 0.15,-0.226001 0.25,-0.449002 0.125,-0.225997 0.14999,-0.224 0.125,-0.2 0.125,-0.225003 0.125,-0.199997 0.151,-0.225002 0.25,-0.399998 0.125,-0.226001 0.14901,-0.199002 0.126,-0.199997 0.124,-0.2 0.125,-0.175 0.15,-0.2 0.125,-0.200001 0.125,-0.174999 0.125,-0.200001 0.15,-0.174999 0.125,-0.200001 0.125,-0.174999 0.125,-0.175 0.14999,-0.2 0.25,-0.350003 0.125,-0.175998 0.151,-0.148999 0.25,-0.350002 0.125,-0.175998 0.14901,-0.149003 0.125,-0.175998 0.125,-0.148999 0.125,-0.175003 0.15,-0.149997 0.125,-0.150002 0.125,-0.175998 0.125,-0.149003 0.15,-0.149997 0.125,-0.151001 0.125,-0.148999 0.125,-0.151 0.14999,-0.149003 0.125,-0.125 0.125,-0.149997 0.125,-0.150002 0.151,-0.149998 0.125,-0.125 0.124,-0.151 0.126,-0.125 0.14901,-0.149003 0.25,-0.25 m -25.975003,82.375015 0.25,-1.9 0.125,-0.92501 0.149994,-0.92499 0.125,-0.925 0.125,-0.90001 0.125,-0.9 0.150002,-0.876 0.25,-1.749 0.125,-0.85 0.150001,-0.84999 0.125,-0.85 0.125,-0.82501 0.125,-0.85 0.150002,-0.79999 0.125,-0.82501 0.125,-0.79999 0.125,-0.8 0.150001,-0.77501 0.375,-2.32499 0.149994,-0.75 0.125,-0.75 0.125,-0.725 0.125,-0.750007 0.150002,-0.725006 0.125,-0.699997 0.125,-0.724998 0.125,-0.701004 0.150001,-0.698998 0.125,-0.699997 0.25,-1.350006 0.150002,-0.674995 0.125,-0.650002 0.125,-0.676002 0.125,-0.648995 0.150001,-0.625 0.125,-0.650001 0.25,-1.25 0.149994,-0.625 0.125,-0.600007 0.125,-0.625 0.125,-0.600997 0.150002,-0.573998 0.125,-0.599998 0.25,-1.150002 0.150001,-0.575005 0.125,-0.574997 0.25,-1.099998 0.150002,-0.550003 0.125,-0.549995 0.125,-0.550004 0.125,-0.526 0.150001,-0.524003 0.125,-0.524993 0.125,-0.5 0.125,-0.525002 0.149994,-0.500999 0.25,-0.999001 0.125,-0.500999 0.150002,-0.473999 0.125,-0.5 0.125,-0.475007 0.125,-0.449997 0.150001,-0.475997 0.125,-0.473999 0.25,-0.901001 0.150002,-0.449006 0.25,-0.899993 0.125,-0.425004 0.150001,-0.425003 0.125,-0.425994 0.25,-0.848999 0.149994,-0.425004 0.125,-0.400001 0.25,-0.799995 0.150002,-0.400002 0.25,-0.801002 0.125,-0.375 0.150001,-0.375 0.125,-0.399003 0.125,-0.374996 0.125,-0.375 0.150002,-0.351001 0.125,-0.375 0.25,-0.699002 m -14.300003,70.100014 0.125,-1.05 0.150001,-1.05 0.25,-2.05 0.125,-1.00101 0.150002,-1 0.125,-0.99899 0.25,-1.95 0.150001,-0.95" /><path
               id="path36"
               style="fill:none;stroke:#231f20;stroke-width:0.5;stroke-linecap:butt;stroke-linejoin:round;stroke-miterlimit:10;stroke-dasharray:none;stroke-opacity:1"
               d="m 325.28201,24.647001 h 1.79999 m -0.90097,0.899 v -1.798999 m 64.72598,0.899999 h 1.80002 m -0.901,1.799 v -3.598 m 64.75,1.799 h 1.801 m -0.9,1.799 v -3.598 M 324.38202,77.447006 h 3.60001 m -1.801,0.899994 V 76.547005 M 324.38202,130.272 h 3.60001 m -1.801,0.901 v -1.80099" /><path
               id="path38"
               style="fill:none;stroke:#231f20;stroke-width:1;stroke-linecap:butt;stroke-linejoin:round;stroke-miterlimit:10;stroke-dasharray:none;stroke-opacity:1"
               d="m 326.18103,24.647001 h 131.526 m -131.526,0 V 130.272" /><path
               id="path40"
               style="fill:none;stroke:#231f20;stroke-width:0.5;stroke-linecap:butt;stroke-linejoin:round;stroke-miterlimit:10;stroke-dasharray:none;stroke-opacity:1"
               d="m 444.45703,130.248 h 0.4 l 0.125,0.024 h 12.475 m -26,-0.024 h 13 m -26,-0.075 h 0.79898 l 0.125,0.024 h 4.32602 l 0.15,0.025 h 6.54898 l 0.15002,0.026 h 0.901 m -25.975,-0.226 h 0.64898 l 0.125,0.026 h 1.32602 l 0.125,0.024 h 1.57498 l 0.124,0.025 h 1.70102 l 0.14898,0.025 h 2.10102 l 0.125,0.025 h 2.5 l 0.125,0.026 h 2.35 m -25.975,-0.576 h 0.25 l 0.125,0.026 h 0.39898 l 0.151,0.024 h 0.375 l 0.14902,0.026 h 0.375 l 0.151,0.024 h 0.375 l 0.15,0.025 h 0.52398 l 0.125,0.025 h 0.401 l 0.125,0.025 h 0.52402 l 0.125,0.026 h 0.651 l 0.15,0.024 h 0.52398 l 0.125,0.025 h 0.65 l 0.126,0.026 h 0.67502 l 0.125,0.024 h 0.775 l 0.14898,0.026 h 0.775 l 0.126,0.024 h 0.92502 l 0.125,0.025 h 0.92398 l 0.125,0.026 h 1.05002 l 0.151,0.024 h 0.525 m -26,-1.57499 0.125,0.025 0.125,0.026 h 0.14898 l 0.125,0.024 0.125,0.026 h 0.125 l 0.151,0.024 0.125,0.025 h 0.124 l 0.126,0.025 0.14902,0.025 h 0.125 l 0.125,0.026 0.125,0.024 h 0.151 l 0.125,0.025 0.125,0.026 h 0.125 l 0.15,0.024 h 0.125 l 0.125,0.026 0.125,0.024 h 0.14898 l 0.125,0.025 h 0.125 l 0.125,0.026 h 0.151 l 0.125,0.024 h 0.124 l 0.126,0.026 0.14902,0.024 h 0.125 l 0.125,0.025 h 0.125 l 0.151,0.026 h 0.125 l 0.125,0.024 h 0.125 l 0.15,0.026 h 0.125 l 0.125,0.024 h 0.125 l 0.14898,0.025 h 0.125 l 0.125,0.026 h 0.276 l 0.125,0.024 h 0.124 l 0.126,0.026 h 0.14902 l 0.125,0.024 h 0.125 l 0.125,0.025 h 0.276 l 0.125,0.026 h 0.125 l 0.15,0.024 h 0.25 l 0.125,0.026 h 0.14898 l 0.125,0.024 h 0.25 l 0.151,0.025 h 0.249 l 0.126,0.026 h 0.14902 l 0.125,0.024 h 0.25 l 0.151,0.026 h 0.25 l 0.125,0.024 h 0.27399 l 0.12601,0.025 h 0.27398 l 0.125,0.026 h 0.401 l 0.124,0.024 h 0.251 l 0.14902,0.026 h 0.25 l 0.125,0.024 h 0.401 l 0.125,0.025 h 0.15 m -26,-4.22399 0.125,0.05 0.14898,0.049 0.125,0.05 0.125,0.05 0.125,0.025 0.151,0.05 0.125,0.05 0.124,0.051 0.126,0.05 0.14902,0.049 0.125,0.026 0.125,0.05 0.125,0.049 0.151,0.026 0.125,0.05 0.125,0.049 0.125,0.05 0.15,0.026 0.125,0.049 0.125,0.026 0.125,0.05 0.14898,0.049 0.125,0.026 0.125,0.05 0.125,0.024 0.151,0.051 0.125,0.024 0.124,0.05 0.126,0.025 0.14902,0.05 0.125,0.026 0.125,0.049 0.125,0.026 0.151,0.024 0.125,0.05 0.125,0.025 0.125,0.05 0.15,0.026 0.125,0.024 0.125,0.051 0.125,0.024 0.14898,0.026 0.125,0.024 0.125,0.051 0.125,0.024 0.151,0.026 0.125,0.024 0.124,0.051 0.126,0.024 0.14902,0.026 0.25,0.049 0.125,0.05 0.151,0.026 0.125,0.024 0.125,0.025 0.125,0.026 0.15,0.024 0.125,0.026 0.125,0.024 0.125,0.025 0.14898,0.026 0.125,0.05 0.25,0.049 0.151,0.026 0.125,0.024 0.124,0.026 0.126,0.024 0.14902,0.025 0.125,0.026 0.125,0.024 h 0.125 l 0.151,0.026 0.25,0.049 0.125,0.026 0.15,0.024 0.125,0.026 0.125,0.024 0.125,0.025 0.14898,0.026 h 0.125 l 0.125,0.024 0.125,0.026 0.151,0.024 0.125,0.025 0.124,0.026 h 0.126 l 0.14902,0.024 0.125,0.026 0.125,0.024 0.125,0.025 h 0.151 l 0.125,0.026 0.125,0.024 0.125,0.026 h 0.15 l 0.125,0.024 m -26,-11.375 0.125,0.125 0.14898,0.15 0.375,0.375 0.151,0.125 0.124,0.125 0.126,0.125 0.125,0.125 0.14902,0.1 0.375,0.375 0.151,0.10099 0.125,0.125 0.125,0.099 0.125,0.125 0.15,0.10001 0.125,0.126 0.125,0.099 0.125,0.1 0.14898,0.10099 0.125,0.125 0.125,0.099 0.125,0.10001 0.151,0.1 0.124,0.1 0.126,0.10099 0.125,0.099 0.14902,0.10101 0.125,0.099 0.25,0.20099 0.151,0.075 0.125,0.099 0.125,0.1 0.125,0.075 0.15,0.10101 0.125,0.099 0.125,0.076 0.125,0.099 0.14898,0.075 0.125,0.1 0.125,0.075 0.125,0.075 0.151,0.1 0.124,0.075 0.126,0.075 0.14902,0.1 0.125,0.075 0.125,0.075 0.125,0.076 0.151,0.075 0.125,0.074 0.125,0.075 0.125,0.075 0.15,0.076 0.125,0.075 0.125,0.074 0.125,0.075 0.14898,0.075 0.25,0.151 0.125,0.074 0.151,0.051 0.125,0.074 0.124,0.075 0.126,0.075 0.14902,0.05 0.125,0.075 0.125,0.05 0.125,0.075 0.151,0.076 0.125,0.049 0.125,0.076 0.125,0.049 0.15,0.076 0.125,0.049 0.125,0.05 0.125,0.075 0.14898,0.05 0.125,0.075 0.125,0.051 0.125,0.049 0.151,0.051 0.125,0.074 0.125,0.051 0.125,0.05 0.14902,0.049 0.125,0.051 0.125,0.074 0.125,0.05 0.151,0.05 0.125,0.051 0.125,0.05 0.125,0.049 0.15,0.051 0.125,0.049 0.125,0.051 m -26,-30.625009 0.14898,0.375 0.125,0.349007 0.125,0.325996 0.125,0.348999 0.151,0.350998 0.124,0.324005 0.126,0.350998 0.125,0.323998 0.14902,0.325004 0.125,0.324997 0.125,0.300003 0.125,0.324997 0.151,0.325005 0.25,0.599998 0.125,0.324994 0.15,0.30001 0.125,0.275 0.12399,0.29999 0.12601,0.30001 0.14898,0.30099 0.125,0.274 0.125,0.276 0.125,0.29901 0.151,0.27599 0.124,0.274 0.125,0.276 0.126,0.25 0.14902,0.27401 0.125,0.275 0.25,0.5 0.151,0.276 0.125,0.24899 0.125,0.25101 0.125,0.25 0.15,0.24899 0.125,0.25101 0.12399,0.224 0.125,0.25 0.14999,0.225 0.125,0.25 0.125,0.22599 0.125,0.224 0.15,0.225 0.375,0.676 0.15002,0.224 0.125,0.20001 0.125,0.225 0.125,0.19999 0.151,0.22601 0.25,0.39899 0.125,0.22601 0.14899,0.199 0.12601,0.19999 0.12399,0.20001 0.125,0.17499 0.14999,0.20001 0.125,0.20099 0.125,0.17401 0.125,0.20099 0.15,0.17401 0.125,0.20099 0.125,0.17401 0.125,0.17499 0.15002,0.20001 0.125,0.17499 0.25,0.35101 0.151,0.14899 0.25,0.35101 0.125,0.17499 0.14899,0.14901 0.125,0.17499 0.125,0.15 0.125,0.17501 0.14999,0.15 0.125,0.151 0.125,0.17499 0.125,0.14901 0.15,0.15 0.125,0.151 0.125,0.14899 0.125,0.151 0.15002,0.14901 0.125,0.125 0.125,0.15 0.125,0.151 0.151,0.14899 0.125,0.125 0.125,0.151 0.125,0.125 0.27399,0.27401 0.125,0.125 m -25.97501,-82.376007 0.25,1.900997 0.125,0.926003 0.151,0.923 0.124,0.926998 0.126,0.899002 0.125,0.900997 0.14902,0.874001 0.25,1.750999 0.125,0.850003 0.15097,0.849998 0.125,0.849003 0.125,0.825996 0.125,0.850003 0.15003,0.798999 0.125,0.825001 0.12399,0.799999 0.12601,0.800999 0.14898,0.774002 0.375,2.325001 0.151,0.75 0.124,0.75 0.125,0.724998 0.126,0.75 0.14902,0.726002 0.125,0.699997 0.125,0.724003 0.125,0.701 0.15097,0.699997 0.125,0.699001 0.25,1.351002 0.15003,0.674 0.125,0.649998 0.12399,0.675003 0.12601,0.650001 0.14898,0.625 0.125,0.649994 0.25,1.25 0.15,0.625 0.125,0.600006 0.125,0.625 0.125,0.599999 0.15002,0.575996 0.125,0.598999 0.25,1.150002 0.15097,0.575004 0.125,0.574997 0.25,1.099999 0.14902,0.551002 0.12601,0.548996 0.12399,0.550003 0.125,0.525002 0.14999,0.525001 0.125,0.524994 0.125,0.5 0.125,0.526001 0.15,0.499001 0.375,1.5 0.15002,0.474998 0.125,0.5 0.125,0.475006 0.125,0.449997 0.151,0.475998 0.125,0.474007 0.25,0.899994 0.14899,0.450004 0.25,0.900002 0.125,0.424995 0.14999,0.425003 0.375,1.275002 0.15,0.424995 0.375,1.200005 0.15002,0.400993 0.125,0.399002 0.125,0.401001 0.125,0.375 0.151,0.375 0.125,0.399002 0.25,0.75 0.14899,0.350998 0.125,0.375 0.125,0.348999 0.125,0.350998 m -14.29999,-70.101 0.125,1.049 0.15097,1.051001 0.25,2.049999 0.125,1 0.15003,0.999 0.125,1.001 0.25,1.950001 0.14898,0.949001" /><text
               id="text44"
               style="font-variant:normal;font-weight:normal;font-size:11.95500088px;font-family:CMR12;-inkscape-font-specification:CMR12;writing-mode:lr-tb;fill:#231f20;fill-opacity:1;fill-rule:nonzero;stroke:none"
               transform="matrix(1,0,0,-1,0,128.3064)"><tspan
                 id="tspan42"
                 y="0"
                 x="0 4.2201152 10.723636 13.975396 18.530252 21.782011 27.639963">Initial</tspan></text>
<text
               id="text48"
               style="font-variant:normal;font-weight:normal;font-size:11.95500088px;font-family:CMR12;-inkscape-font-specification:CMR12;writing-mode:lr-tb;fill:#231f20;fill-opacity:1;fill-rule:nonzero;stroke:none"
               transform="matrix(1,0,0,-1,34.216408,128.3064)"><tspan
                 id="tspan46"
                 y="0"
                 x="0">v</tspan></text>
<text
               id="text52"
               style="font-variant:normal;font-weight:normal;font-size:11.95500088px;font-family:CMR12;-inkscape-font-specification:CMR12;writing-mode:lr-tb;fill:#231f20;fill-opacity:1;fill-rule:nonzero;stroke:none"
               transform="matrix(1,0,0,-1,39.747986,128.3064)"><tspan
                 id="tspan50"
                 y="0"
                 x="0 5.8579507 9.1097107 15.613232">alue</tspan></text>
<text
               id="text56"
               style="font-variant:normal;font-weight:normal;font-size:11.95500088px;font-family:CMR12;-inkscape-font-specification:CMR12;writing-mode:lr-tb;fill:#231f20;fill-opacity:1;fill-rule:nonzero;stroke:none"
               transform="matrix(1,0,0,-1,21.002544,91.002014)"><tspan
                 id="tspan54"
                 y="0"
                 x="0 8.774971 14.632921 19.187777 22.439537 27.639963 33.497913">Horizon</tspan></text>
<text
               id="text60"
               style="font-variant:normal;font-weight:normal;font-size:11.95500088px;font-family:CMR12;-inkscape-font-specification:CMR12;writing-mode:lr-tb;fill:#231f20;fill-opacity:1;fill-rule:nonzero;stroke:none"
               transform="matrix(1,0,0,-1,60.68,91.002014)"><tspan
                 id="tspan58"
                 y="0"
                 x="0 4.5548553 10.412806">tal</tspan></text>
<text
               id="text64"
               style="font-variant:normal;font-weight:normal;font-size:11.95500088px;font-family:CMR12;-inkscape-font-specification:CMR12;writing-mode:lr-tb;fill:#231f20;fill-opacity:1;fill-rule:nonzero;stroke:none"
               transform="matrix(1,0,0,-1,21.650505,80.00222)"><tspan
                 id="tspan62"
                 y="0"
                 x="0 5.2004256 11.058376 20.813656">comp</tspan></text>
<text
               id="text68"
               style="font-variant:normal;font-weight:normal;font-size:11.95500088px;font-family:CMR12;-inkscape-font-specification:CMR12;writing-mode:lr-tb;fill:#231f20;fill-opacity:1;fill-rule:nonzero;stroke:none"
               transform="matrix(1,0,0,-1,49.292862,80.00222)"><tspan
                 id="tspan66"
                 y="0"
                 x="0 5.8579507 12.361471 17.561897">onen</tspan></text>
<text
               id="text72"
               style="font-variant:normal;font-weight:normal;font-size:11.95500088px;font-family:CMR12;-inkscape-font-specification:CMR12;writing-mode:lr-tb;fill:#231f20;fill-opacity:1;fill-rule:nonzero;stroke:none"
               transform="matrix(1,0,0,-1,73.034294,80.00222)"><tspan
                 id="tspan70"
                 y="0"
                 x="0">t</tspan></text>
<text
               id="text76"
               style="font-variant:normal;font-weight:normal;font-size:11.95500088px;font-family:CMR12;-inkscape-font-specification:CMR12;writing-mode:lr-tb;fill:#231f20;fill-opacity:1;fill-rule:nonzero;stroke:none"
               transform="matrix(1,0,0,-1,21.902756,67.00235)"><tspan
                 id="tspan74"
                 y="0"
                 x="0 5.8579507">of</tspan></text>
<text
               id="text80"
               style="font-variant:normal;font-weight:normal;font-size:11.95500088px;font-family:CMR12;-inkscape-font-specification:CMR12;writing-mode:lr-tb;fill:#231f20;fill-opacity:1;fill-rule:nonzero;stroke:none"
               transform="matrix(1,0,0,-1,34.658741,67.00235)"><tspan
                 id="tspan78"
                 y="0"
                 x="0">v</tspan></text>
<text
               id="text84"
               style="font-variant:normal;font-weight:normal;font-size:11.95500088px;font-family:CMR12;-inkscape-font-specification:CMR12;writing-mode:lr-tb;fill:#231f20;fill-opacity:1;fill-rule:nonzero;stroke:none"
               transform="matrix(1,0,0,-1,40.515495,67.00235)"><tspan
                 id="tspan82"
                 y="0"
                 x="0 5.2004256 8.4521856">elo</tspan></text>
<text
               id="text88"
               style="font-variant:normal;font-weight:normal;font-size:11.95500088px;font-family:CMR12;-inkscape-font-specification:CMR12;writing-mode:lr-tb;fill:#231f20;fill-opacity:1;fill-rule:nonzero;stroke:none"
               transform="matrix(1,0,0,-1,55.152004,67.00235)"><tspan
                 id="tspan86"
                 y="0"
                 x="0 5.2004256 8.4521856">cit</tspan></text>
<text
               id="text92"
               style="font-variant:normal;font-weight:normal;font-size:11.95500088px;font-family:CMR12;-inkscape-font-specification:CMR12;writing-mode:lr-tb;fill:#231f20;fill-opacity:1;fill-rule:nonzero;stroke:none"
               transform="matrix(1,0,0,-1,67.83387,67.00235)"><tspan
                 id="tspan90"
                 y="0"
                 x="0">y</tspan></text>
<text
               id="text96"
               style="font-variant:normal;font-weight:normal;font-size:11.95500088px;font-family:CMR12;-inkscape-font-specification:CMR12;writing-mode:lr-tb;fill:#231f20;fill-opacity:1;fill-rule:nonzero;stroke:none"
               transform="matrix(1,0,0,-1,441.32483,3.0024512)"><tspan
                 id="tspan94"
                 y="0"
                 x="0 8.4521856 11.703946 21.459227">Time</tspan></text>
<text
               id="text100"
               style="font-variant:normal;font-weight:normal;font-size:11.95500088px;font-family:CMR12;-inkscape-font-specification:CMR12;writing-mode:lr-tb;fill:#231f20;fill-opacity:1;fill-rule:nonzero;stroke:none"
               transform="matrix(1,0,0,-1,251.31325,129.50189)"><tspan
                 id="tspan98"
                 y="0"
                 x="0">T</tspan></text>
<text
               id="text104"
               style="font-variant:normal;font-weight:normal;font-size:11.95500088px;font-family:CMR12;-inkscape-font-specification:CMR12;writing-mode:lr-tb;fill:#231f20;fill-opacity:1;fill-rule:nonzero;stroke:none"
               transform="matrix(1,0,0,-1,258.78873,129.50189)"><tspan
                 id="tspan102"
                 y="0"
                 x="0 5.2004256 9.7552805 19.510561 22.762321 29.265842 35.123795">erminal</tspan></text>
<text
               id="text108"
               style="font-variant:normal;font-weight:normal;font-size:11.95500088px;font-family:CMR12;-inkscape-font-specification:CMR12;writing-mode:lr-tb;fill:#231f20;fill-opacity:1;fill-rule:nonzero;stroke:none"
               transform="matrix(1,0,0,-1,254.98463,117.50146)"><tspan
                 id="tspan106"
                 y="0"
                 x="0">v</tspan></text>
<text
               id="text112"
               style="font-variant:normal;font-weight:normal;font-size:11.95500088px;font-family:CMR12;-inkscape-font-specification:CMR12;writing-mode:lr-tb;fill:#231f20;fill-opacity:1;fill-rule:nonzero;stroke:none"
               transform="matrix(1,0,0,-1,260.84021,117.50146)"><tspan
                 id="tspan110"
                 y="0"
                 x="0 5.2004256 8.4521856">elo</tspan></text>
<text
               id="text116"
               style="font-variant:normal;font-weight:normal;font-size:11.95500088px;font-family:CMR12;-inkscape-font-specification:CMR12;writing-mode:lr-tb;fill:#231f20;fill-opacity:1;fill-rule:nonzero;stroke:none"
               transform="matrix(1,0,0,-1,275.47675,117.50146)"><tspan
                 id="tspan114"
                 y="0"
                 x="0 5.2004256 8.4521856">cit</tspan></text>
<text
               id="text120"
               style="font-variant:normal;font-weight:normal;font-size:11.95500088px;font-family:CMR12;-inkscape-font-specification:CMR12;writing-mode:lr-tb;fill:#231f20;fill-opacity:1;fill-rule:nonzero;stroke:none"
               transform="matrix(1,0,0,-1,288.15866,117.50146)"><tspan
                 id="tspan118"
                 y="0"
                 x="0">y</tspan></text>
<text
               id="text124"
               style="font-variant:normal;font-weight:normal;font-size:11.95500088px;font-family:CMR12;-inkscape-font-specification:CMR12;writing-mode:lr-tb;fill:#231f20;fill-opacity:1;fill-rule:nonzero;stroke:none"
               transform="matrix(1,0,0,-1,251.15425,86.500954)"><tspan
                 id="tspan122"
                 y="0"
                 x="0 8.9423409">Do</tspan></text>
<text
               id="text128"
               style="font-variant:normal;font-weight:normal;font-size:11.95500088px;font-family:CMR12;-inkscape-font-specification:CMR12;writing-mode:lr-tb;fill:#231f20;fill-opacity:1;fill-rule:nonzero;stroke:none"
               transform="matrix(1,0,0,-1,265.62936,86.500954)"><tspan
                 id="tspan126"
                 y="0"
                 x="0 8.4521856">wn</tspan></text>
<text
               id="text132"
               style="font-variant:normal;font-weight:normal;font-size:11.95500088px;font-family:CMR12;-inkscape-font-specification:CMR12;writing-mode:lr-tb;fill:#231f20;fill-opacity:1;fill-rule:nonzero;stroke:none"
               transform="matrix(1,0,0,-1,280.26108,86.500954)"><tspan
                 id="tspan130"
                 y="0"
                 x="0">w</tspan></text>
<text
               id="text136"
               style="font-variant:normal;font-weight:normal;font-size:11.95500088px;font-family:CMR12;-inkscape-font-specification:CMR12;writing-mode:lr-tb;fill:#231f20;fill-opacity:1;fill-rule:nonzero;stroke:none"
               transform="matrix(1,0,0,-1,288.38809,86.500954)"><tspan
                 id="tspan134"
                 y="0"
                 x="0 5.8579507 10.412806">ard</tspan></text>
<text
               id="text140"
               style="font-variant:normal;font-weight:normal;font-size:11.95500088px;font-family:CMR12;-inkscape-font-specification:CMR12;writing-mode:lr-tb;fill:#231f20;fill-opacity:1;fill-rule:nonzero;stroke:none"
               transform="matrix(1,0,0,-1,251.61571,75.001442)"><tspan
                 id="tspan138"
                 y="0"
                 x="0 5.2004256 11.058376">com</tspan></text>
<text
               id="text144"
               style="font-variant:normal;font-weight:normal;font-size:11.95500088px;font-family:CMR12;-inkscape-font-specification:CMR12;writing-mode:lr-tb;fill:#231f20;fill-opacity:1;fill-rule:nonzero;stroke:none"
               transform="matrix(1,0,0,-1,272.32895,75.056435)"><tspan
                 id="tspan142"
                 y="0"
                 x="0">p</tspan></text>
<text
               id="text148"
               style="font-variant:normal;font-weight:normal;font-size:11.95500088px;font-family:CMR12;-inkscape-font-specification:CMR12;writing-mode:lr-tb;fill:#231f20;fill-opacity:1;fill-rule:nonzero;stroke:none"
               transform="matrix(1,0,0,-1,279.15884,75.056435)"><tspan
                 id="tspan146"
                 y="0"
                 x="0 5.8579507 12.361471 17.561897">onen</tspan></text>
<text
               id="text152"
               style="font-variant:normal;font-weight:normal;font-size:11.95500088px;font-family:CMR12;-inkscape-font-specification:CMR12;writing-mode:lr-tb;fill:#231f20;fill-opacity:1;fill-rule:nonzero;stroke:none"
               transform="matrix(1,0,0,-1,302.90027,75.056435)"><tspan
                 id="tspan150"
                 y="0"
                 x="0">t</tspan></text>
<text
               id="text156"
               style="font-variant:normal;font-weight:normal;font-size:11.95500088px;font-family:CMR12;-inkscape-font-specification:CMR12;writing-mode:lr-tb;fill:#231f20;fill-opacity:1;fill-rule:nonzero;stroke:none"
               transform="matrix(1,0,0,-1,252.02817,61.002136)"><tspan
                 id="tspan154"
                 y="0"
                 x="0 5.8579507">of</tspan></text>
<text
               id="text160"
               style="font-variant:normal;font-weight:normal;font-size:11.95500088px;font-family:CMR12;-inkscape-font-specification:CMR12;writing-mode:lr-tb;fill:#231f20;fill-opacity:1;fill-rule:nonzero;stroke:none"
               transform="matrix(1,0,0,-1,265.36276,61.002136)"><tspan
                 id="tspan158"
                 y="0"
                 x="0">v</tspan></text>
<text
               id="text164"
               style="font-variant:normal;font-weight:normal;font-size:11.95500088px;font-family:CMR12;-inkscape-font-specification:CMR12;writing-mode:lr-tb;fill:#231f20;fill-opacity:1;fill-rule:nonzero;stroke:none"
               transform="matrix(1,0,0,-1,271.21951,61.002136)"><tspan
                 id="tspan162"
                 y="0"
                 x="0 5.2004256 8.4521856">elo</tspan></text>
<text
               id="text168"
               style="font-variant:normal;font-weight:normal;font-size:11.95500088px;font-family:CMR12;-inkscape-font-specification:CMR12;writing-mode:lr-tb;fill:#231f20;fill-opacity:1;fill-rule:nonzero;stroke:none"
               transform="matrix(1,0,0,-1,285.85483,61.002136)"><tspan
                 id="tspan166"
                 y="0"
                 x="0 5.2004256 8.4521856">cit</tspan></text>
<text
               id="text172"
               style="font-variant:normal;font-weight:normal;font-size:11.95500088px;font-family:CMR12;-inkscape-font-specification:CMR12;writing-mode:lr-tb;fill:#231f20;fill-opacity:1;fill-rule:nonzero;stroke:none"
               transform="matrix(1,0,0,-1,298.5379,61.002136)"><tspan
                 id="tspan170"
                 y="0"
                 x="0">y</tspan></text>
<text
               id="text176"
               style="font-variant:normal;font-weight:normal;font-size:11.95500088px;font-family:CMR12;-inkscape-font-specification:CMR12;writing-mode:lr-tb;fill:#231f20;fill-opacity:1;fill-rule:nonzero;stroke:none"
               transform="matrix(1,0,0,-1,181.42792,14.056045)"><tspan
                 id="tspan174"
                 y="0"
                 x="0 8.4521856 11.703946 21.459227">Time</tspan></text>
<path
               id="path178"
               style="fill:#231f20;fill-opacity:1;fill-rule:nonzero;stroke:none"
               d="m 65.526001,131.502 h 14" /><path
               id="path180"
               style="fill:#231f20;fill-opacity:1;fill-rule:nonzero;stroke:none"
               d="m 80.707001,132.01401 c -0.825997,0.25 -1.363999,0.47999 -2.027001,0.74598 v -2.52198 c 0.237007,0.11198 1.201004,0.496 2.027001,0.746 0.885002,0.267 1.688003,0.45 2.208,0.515 -0.519997,0.065 -1.322998,0.248 -2.208,0.515" /><path
               id="path182"
               style="fill:#231f20;fill-opacity:1;fill-rule:nonzero;stroke:none"
               d="m 304.52701,130.502 h 14" /><path
               id="path184"
               style="fill:#231f20;fill-opacity:1;fill-rule:nonzero;stroke:none"
               d="m 319.70801,131.01401 c -0.827,0.25 -1.36499,0.47999 -2.02698,0.74598 v -2.52198 c 0.237,0.11198 1.19998,0.496 2.02698,0.746 0.884,0.267 1.68701,0.45 2.20801,0.515 -0.521,0.065 -1.32401,0.248 -2.20801,0.515" /><path
               id="path186"
               style="fill:none;stroke:#231f20;stroke-width:1;stroke-linecap:butt;stroke-linejoin:miter;stroke-miterlimit:4;stroke-dasharray:3, 3, 3, 3, 3, 3;stroke-dashoffset:0;stroke-opacity:1"
               d="m 328.02701,130.502 h 67" /></g></g></g></g></g></svg>