<?xml version="1.0" encoding="UTF-8" standalone="no"?>
<svg
   xmlns:dc="http://purl.org/dc/elements/1.1/"
   xmlns:cc="http://creativecommons.org/ns#"
   xmlns:rdf="http://www.w3.org/1999/02/22-rdf-syntax-ns#"
   xmlns:svg="http://www.w3.org/2000/svg"
   xmlns="http://www.w3.org/2000/svg"
   viewBox="0 0 422.66666 170.66667"
   height="170.66667"
   width="422.66666"
   xml:space="preserve"
   id="svg2"
   version="1.1"><metadata
     id="metadata8"><rdf:RDF><cc:Work
         rdf:about=""><dc:format>image/svg+xml</dc:format><dc:type
           rdf:resource="http://purl.org/dc/dcmitype/StillImage" /></cc:Work></rdf:RDF></metadata><defs
     id="defs6"><clipPath
       id="clipPath24"
       clipPathUnits="userSpaceOnUse"><path
         id="path22"
         d="M 0,0 H 317 V 128 H 0 Z" /></clipPath><clipPath
       id="clipPath34"
       clipPathUnits="userSpaceOnUse"><path
         id="path32"
         d="M 0,0 H 316.28802 V 127.23501 H 0 Z" /></clipPath></defs><g
     transform="matrix(1.3333333,0,0,-1.3333333,0,170.66667)"
     id="g10"><g
       id="g12" /><g
       id="g14" /><g
       id="g16"><g
         id="g18"><g
           clip-path="url(#clipPath24)"
           id="g20"><g
             id="g26" /><g
             id="g28"><g
               clip-path="url(#clipPath34)"
               id="g30"><path
                 id="path36"
                 style="fill:none;stroke:#231f20;stroke-width:0.5;stroke-linecap:butt;stroke-linejoin:round;stroke-miterlimit:10;stroke-dasharray:none;stroke-opacity:1"
                 d="m 59.022003,17.779999 h 1.799999 M 59.922005,18.68 v -1.798999 m 30.974998,0.898998 h 1.800003 M 91.797005,19.58 V 15.981001 M 122.772,17.779999 h 1.80001 M 123.672,19.58 v -3.598999 m 31.00001,1.798998 h 1.801 m -0.901,1.800001 v -3.598999 m 30.975,1.798998 h 1.801 m -0.901,1.800001 v -3.598999 m -129.325008,54.6 h 3.600002 m -1.799999,0.900002 V 69.681 m -1.800003,53.72501 h 3.600002 m -1.799999,0.9 V 122.506" /><path
                 id="path38"
                 style="fill:none;stroke:#231f20;stroke-width:1;stroke-linecap:butt;stroke-linejoin:round;stroke-miterlimit:10;stroke-dasharray:none;stroke-opacity:1"
                 d="M 59.922005,17.779999 H 188.07201 m -128.150005,0 V 123.40601" /></g></g><g
             id="g40"><path
               id="path42"
               style="fill:none;stroke:#231f20;stroke-width:0.5;stroke-linecap:butt;stroke-linejoin:round;stroke-miterlimit:10;stroke-dasharray:none;stroke-opacity:1"
               d="m 164.498,19.856001 0.32401,-0.650999 0.3,-0.675003 0.325,-0.673998 m -22.624,41.050001 0.29999,-0.5 0.32401,-0.474998 0.32499,-0.5 0.32601,-0.5 0.3,-0.5 0.32399,-0.5 0.326,-0.5 0.325,-0.5 0.29901,-0.5 0.325,-0.525002 0.326,-0.5 0.32399,-0.524998 0.30001,-0.5 0.32499,-0.525001 0.32601,-0.525002 0.324,-0.524997 0.301,-0.525002 0.324,-0.549999 0.32599,-0.525002 0.32401,-0.524997 0.30099,-0.550003 0.32401,-0.55 0.326,-0.524997 0.325,-0.550003 0.29899,-0.55 0.325,-0.549999 0.326,-0.549999 0.325,-0.575001 0.29901,-0.549999 0.325,-0.575001 0.326,-0.549999 0.32399,-0.575001 0.30001,-0.575001 0.32499,-0.575 0.32601,-0.574997 0.324,-0.575001 0.301,-0.575001 0.324,-0.575001 0.32599,-0.599998 0.32401,-0.575001 0.30099,-0.599998 0.32401,-0.600003 0.326,-0.575 0.325,-0.599999 0.29899,-0.600002 0.325,-0.625 0.326,-0.599999 0.325,-0.599998 0.29901,-0.625002 0.325,-0.599999 0.326,-0.625001 0.32399,-0.625 0.30001,-0.625 0.32499,-0.625 0.32601,-0.625 0.324,-0.625 0.325,-0.626 0.3,-0.649 0.32599,-0.625 0.32401,-0.65 0.32499,-0.649999 0.30001,-0.625 0.326,-0.65 0.325,-0.651001 0.324,-0.675001 0.301,-0.648998 L 164.173,20.531 m -52.92499,73.650007 0.325,-0.225006 0.32399,-0.224998 0.30101,-0.25 0.32399,-0.224999 0.32601,-0.25 0.32399,-0.224998 0.30101,-0.25 0.32399,-0.25 0.32601,-0.25 0.325,-0.25 0.3,-0.25 0.324,-0.275002 0.32499,-0.25 0.32601,-0.275001 0.29899,-0.25 0.32601,-0.275002 0.32499,-0.274994 0.32501,-0.275001 0.29899,-0.275002 0.32601,-0.275001 0.325,-0.275002 0.32399,-0.274994 0.30101,-0.300003 0.32399,-0.275001 0.32601,-0.299996 0.32399,-0.300003 0.30101,-0.300003 0.32399,-0.274994 0.32601,-0.325004 0.325,-0.299996 0.3,-0.300003 0.324,-0.300003 0.32499,-0.324997 0.32601,-0.300003 0.29899,-0.324997 0.32601,-0.324997 0.65,-0.650001 0.29899,-0.325005 0.32601,-0.324997 0.325,-0.324997 0.32399,-0.350006 0.30001,-0.324997 0.32599,-0.349998 0.32401,-0.349999 0.32499,-0.350006 0.30101,-0.349998 0.975,-1.049996 0.32499,-0.350006 0.30001,-0.375 0.32399,-0.349998 0.32601,-0.375 0.32499,-0.375 0.30001,-0.375 0.324,-0.375 0.32599,-0.375 0.32501,-0.375 0.29999,-0.375 0.32401,-0.400002 0.32499,-0.375 0.32601,-0.400001 0.3,-0.375 0.32399,-0.399994 0.32501,-0.400002 0.32599,-0.400001 0.3,-0.400002 0.325,-0.424995 0.65001,-0.800003 0.3,-0.425003 0.32399,-0.424996 0.32601,-0.400001 0.32499,-0.425003 0.30001,-0.424996 0.324,-0.425003 0.32599,-0.424995 0.32501,-0.450005 0.29999,-0.424995 0.32401,-0.450005 0.32499,-0.424995 0.32601,-0.450005 0.3,-0.449997 0.32399,-0.450004 0.32501,-0.449997 0.32599,-0.449997 0.3,-0.450005 0.325,-0.449997 0.32501,-0.475002 0.325,-0.450001 0.3,-0.474998 0.32399,-0.474999 0.32601,-0.45 0.32499,-0.475003 0.30001,-0.474998 0.324,-0.5 0.32599,-0.474999 0.32501,-0.475002 m -63.126004,45.000008 0.299996,0.025 0.325004,0.025 0.324997,0.025 0.324997,0.025 0.300003,0.025 0.324997,0.025 h 0.325005 l 0.324997,0.025 h 2.225006 l 0.324997,-0.025 h 0.300003 l 0.324997,-0.025 h 0.324997 l 0.325004,-0.025 0.299996,-0.025 0.325004,-0.025 0.324997,-0.025 0.325005,-0.025 0.299995,-0.05 0.325005,-0.025 0.324997,-0.05 0.324997,-0.025 0.300003,-0.05 0.324997,-0.05 0.325004,-0.05 0.324997,-0.05 0.300003,-0.05 0.324997,-0.05 0.325005,-0.075 0.324997,-0.05 0.300003,-0.075 0.324997,-0.05 0.324997,-0.075 0.325004,-0.075 0.299996,-0.075 0.325004,-0.075 0.324997,-0.075 0.325005,-0.1 0.324997,-0.075 0.300003,-0.1 0.324997,-0.075 0.650001,-0.19999 0.299996,-0.1 0.325004,-0.10001 0.650002,-0.2 0.299995,-0.1 0.325005,-0.125 0.324997,-0.1 0.324997,-0.125 0.300003,-0.125 0.324997,-0.125 0.325004,-0.125 0.324997,-0.125 0.300003,-0.125 0.324997,-0.125 0.326007,-0.15 0.32399,-0.125 0.30101,-0.15001 0.32399,-0.125 0.326,-0.149997 0.32501,-0.150002 0.29999,-0.149994 0.32401,-0.150001 0.32499,-0.175003 0.32601,-0.150002 0.29899,-0.149994 0.32601,-0.175003 0.32499,-0.175003 0.32501,-0.149994 0.29899,-0.175003 0.32601,-0.175003 0.325,-0.174995 0.32399,-0.175003 0.30101,-0.199997 0.32399,-0.175003 0.32601,-0.174996 0.32399,-0.200004 0.30101,-0.199997 0.32399,-0.175003 0.32601,-0.199997 0.325,-0.200005 0.3,-0.199997 0.324,-0.224998 0.32499,-0.200005 0.32601,-0.199997 0.29899,-0.224998 0.32601,-0.224999 0.32499,-0.200004 0.32501,-0.224999 0.29899,-0.224998 0.32601,-0.224999 m -51.326005,2.824997 0.324997,0.175003 0.325,0.199997 0.3,0.175003 0.325,0.199997 0.650002,0.349999 0.299999,0.175003 0.325001,0.174995 0.325001,0.175003 0.324997,0.150002 0.300003,0.174995 0.324997,0.175003 0.325004,0.150002 0.324997,0.150001 0.300003,0.149994 0.324997,0.150002 0.650002,0.300007 0.299995,0.15 0.325005,0.14999 0.324997,0.125 0.325004,0.15 0.299996,0.125 0.325004,0.125 0.324997,0.125 0.324997,0.125 0.300003,0.125 0.324997,0.125 0.325005,0.125 0.324997,0.125 0.300003,0.1 0.324997,0.10001 0.325004,0.125 0.324997,0.1 0.300003,0.1 0.324997,0.1 0.324997,0.1 0.325005,0.10001 0.299995,0.075 0.325005,0.1 0.324997,0.075 0.325004,0.1 0.299996,0.075 0.325004,0.075 0.324997,0.075 0.324997,0.075 0.300003,0.075 0.324997,0.075 0.325005,0.05 0.324997,0.075 0.300003,0.05 0.324997,0.075 0.325004,0.05 0.324997,0.05 0.300003,0.05 0.324997,0.05 0.324997,0.05 0.325005,0.025 0.299995,0.05 0.325005,0.05 0.650001,0.05" /><path
               id="path44"
               style="fill:none;stroke:#231f20;stroke-width:0.80000001;stroke-linecap:butt;stroke-linejoin:round;stroke-miterlimit:10;stroke-dasharray:3, 3, 3, 3, 3, 3;stroke-dashoffset:0;stroke-opacity:1"
               d="m 165.35901,18.018002 v 65.701 m -9.89902,-66.301001 v 66.000006" /><text
               id="text48"
               style="font-variant:normal;font-weight:normal;font-size:11.95500088px;font-family:CMR12;-inkscape-font-specification:CMR12;writing-mode:lr-tb;fill:#231f20;fill-opacity:1;fill-rule:nonzero;stroke:none"
               transform="matrix(1,0,0,-1,0,83.2687)"><tspan
                 id="tspan46"
                 y="0"
                 x="0 6.4915657 11.691991 14.931796 20.777792">heigh</tspan></text>
<text
               id="text52"
               style="font-variant:normal;font-weight:normal;font-size:11.95500088px;font-family:CMR12;-inkscape-font-specification:CMR12;writing-mode:lr-tb;fill:#231f20;fill-opacity:1;fill-rule:nonzero;stroke:none"
               transform="matrix(1,0,0,-1,26.989613,83.2687)"><tspan
                 id="tspan50"
                 y="0"
                 x="0">t</tspan></text>
<text
               id="text56"
               style="font-variant:normal;font-weight:normal;font-size:11.95500088px;font-family:CMR12;-inkscape-font-specification:CMR12;writing-mode:lr-tb;fill:#231f20;fill-opacity:1;fill-rule:nonzero;stroke:none"
               transform="matrix(1,0,0,-1,35.442993,83.2687)"><tspan
                 id="tspan54"
                 y="0"
                 x="0">m</tspan></text>
<text
               id="text60"
               style="font-variant:normal;font-weight:normal;font-size:11.95500088px;font-family:CMR12;-inkscape-font-specification:CMR12;writing-mode:lr-tb;fill:#231f20;fill-opacity:1;fill-rule:nonzero;stroke:none"
               transform="matrix(1,0,0,-1,206.00258,4.5007877)"><tspan
                 id="tspan58"
                 y="0"
                 x="0 6.4915657 12.337561 16.880461 20.120266 25.320692 31.166687">horizon</tspan></text>
<text
               id="text64"
               style="font-variant:normal;font-weight:normal;font-size:11.95500088px;font-family:CMR12;-inkscape-font-specification:CMR12;writing-mode:lr-tb;fill:#231f20;fill-opacity:1;fill-rule:nonzero;stroke:none"
               transform="matrix(1,0,0,-1,243.39662,4.5007877)"><tspan
                 id="tspan62"
                 y="0"
                 x="0 4.5429006 10.388896">tal</tspan></text>
<text
               id="text68"
               style="font-variant:normal;font-weight:normal;font-size:11.95500088px;font-family:CMR12;-inkscape-font-specification:CMR12;writing-mode:lr-tb;fill:#231f20;fill-opacity:1;fill-rule:nonzero;stroke:none"
               transform="matrix(1,0,0,-1,260.95615,4.5007877)"><tspan
                 id="tspan66"
                 y="0"
                 x="0 6.4915657 9.7313709 14.346002 18.888901 24.734898 31.226463 36.426888">distance</tspan></text>
<text
               id="text72"
               style="font-variant:normal;font-weight:normal;font-size:11.95500088px;font-family:CMR12;-inkscape-font-specification:CMR12;writing-mode:lr-tb;fill:#231f20;fill-opacity:1;fill-rule:nonzero;stroke:none"
               transform="matrix(1,0,0,-1,306.54303,4.5007877)"><tspan
                 id="tspan70"
                 y="0"
                 x="0">m</tspan></text>
<text
               id="text76"
               style="font-variant:normal;font-weight:normal;font-size:11.95500088px;font-family:CMR12;-inkscape-font-specification:CMR12;writing-mode:lr-tb;fill:#231f20;fill-opacity:1;fill-rule:nonzero;stroke:none"
               transform="matrix(1,0,0,-1,49.200787,14.501145)"><tspan
                 id="tspan74"
                 y="0"
                 x="0">0</tspan></text>
<text
               id="text80"
               style="font-variant:normal;font-weight:normal;font-size:11.95500088px;font-family:CMR12;-inkscape-font-specification:CMR12;writing-mode:lr-tb;fill:#231f20;fill-opacity:1;fill-rule:nonzero;stroke:none"
               transform="matrix(1,0,0,-1,88.456223,3.0016301)"><tspan
                 id="tspan78"
                 y="0"
                 x="0">1</tspan></text>
<text
               id="text84"
               style="font-variant:normal;font-weight:normal;font-size:11.95500088px;font-family:CMR12;-inkscape-font-specification:CMR12;writing-mode:lr-tb;fill:#231f20;fill-opacity:1;fill-rule:nonzero;stroke:none"
               transform="matrix(1,0,0,-1,120.44302,4.2700558)"><tspan
                 id="tspan82"
                 y="0"
                 x="0">2</tspan></text>
<text
               id="text88"
               style="font-variant:normal;font-weight:normal;font-size:11.95500088px;font-family:CMR12;-inkscape-font-specification:CMR12;writing-mode:lr-tb;fill:#231f20;fill-opacity:1;fill-rule:nonzero;stroke:none"
               transform="matrix(1,0,0,-1,151.46625,3.0016301)"><tspan
                 id="tspan86"
                 y="0"
                 x="0">3</tspan></text>
<text
               id="text92"
               style="font-variant:normal;font-weight:normal;font-size:11.95500088px;font-family:CMR12;-inkscape-font-specification:CMR12;writing-mode:lr-tb;fill:#231f20;fill-opacity:1;fill-rule:nonzero;stroke:none"
               transform="matrix(1,0,0,-1,184.72028,4.0022635)"><tspan
                 id="tspan90"
                 y="0"
                 x="0">4</tspan></text>
<text
               id="text96"
               style="font-variant:normal;font-weight:normal;font-size:11.95500088px;font-family:CMR12;-inkscape-font-specification:CMR12;writing-mode:lr-tb;fill:#231f20;fill-opacity:1;fill-rule:nonzero;stroke:none"
               transform="matrix(1,0,0,-1,49.976658,66.501816)"><tspan
                 id="tspan94"
                 y="0"
                 x="0">1</tspan></text>
<text
               id="text100"
               style="font-variant:normal;font-weight:normal;font-size:11.95500088px;font-family:CMR12;-inkscape-font-specification:CMR12;writing-mode:lr-tb;fill:#231f20;fill-opacity:1;fill-rule:nonzero;stroke:none"
               transform="matrix(1,0,0,-1,49.443466,118.26936)"><tspan
                 id="tspan98"
                 y="0"
                 x="0">2</tspan></text>
<text
               id="text104"
               style="font-variant:normal;font-weight:normal;font-size:11.95500088px;font-family:CMR12;-inkscape-font-specification:CMR12;writing-mode:lr-tb;fill:#231f20;fill-opacity:1;fill-rule:nonzero;stroke:none"
               transform="matrix(1,0,0,-1,194.98604,24.501501)"><tspan
                 id="tspan102"
                 y="0"
                 x="0">0</tspan></text>
<text
               id="text108"
               style="font-variant:normal;font-weight:normal;font-size:11.95500088px;font-family:CMMI12;-inkscape-font-specification:CMMI12;writing-mode:lr-tb;fill:#231f20;fill-opacity:1;fill-rule:nonzero;stroke:none"
               transform="matrix(1,0,0,-1,200.8392,24.501501)"><tspan
                 id="tspan106"
                 y="0"
                 x="0">.</tspan></text>
<text
               id="text112"
               style="font-variant:normal;font-weight:normal;font-size:11.95500088px;font-family:CMR12;-inkscape-font-specification:CMR12;writing-mode:lr-tb;fill:#231f20;fill-opacity:1;fill-rule:nonzero;stroke:none"
               transform="matrix(1,0,0,-1,204.09096,24.501501)"><tspan
                 id="tspan110"
                 y="0"
                 x="0">2</tspan></text>
<text
               id="text116"
               style="font-variant:normal;font-weight:normal;font-size:11.95500088px;font-family:CMR12;-inkscape-font-specification:CMR12;writing-mode:lr-tb;fill:#231f20;fill-opacity:1;fill-rule:nonzero;stroke:none"
               transform="matrix(1,0,0,-1,152.84465,84.501259)"><tspan
                 id="tspan114"
                 y="0"
                 x="0">3</tspan></text>
<text
               id="text120"
               style="font-variant:normal;font-weight:normal;font-size:11.95500088px;font-family:CMR12;-inkscape-font-specification:CMR12;writing-mode:lr-tb;fill:#231f20;fill-opacity:1;fill-rule:nonzero;stroke:none"
               transform="matrix(1,0,0,-1,165.60063,83.500626)"><tspan
                 id="tspan118"
                 y="0"
                 x="0">3</tspan></text>
<text
               id="text124"
               style="font-variant:normal;font-weight:normal;font-size:11.95500088px;font-family:CMMI12;-inkscape-font-specification:CMMI12;writing-mode:lr-tb;fill:#231f20;fill-opacity:1;fill-rule:nonzero;stroke:none"
               transform="matrix(1,0,0,-1,171.4538,83.500626)"><tspan
                 id="tspan122"
                 y="0"
                 x="0">.</tspan></text>
<text
               id="text128"
               style="font-variant:normal;font-weight:normal;font-size:11.95500088px;font-family:CMR12;-inkscape-font-specification:CMR12;writing-mode:lr-tb;fill:#231f20;fill-opacity:1;fill-rule:nonzero;stroke:none"
               transform="matrix(1,0,0,-1,174.70676,83.500626)"><tspan
                 id="tspan126"
                 y="0"
                 x="0">3</tspan></text>
<path
               id="path130"
               style="fill:#231f20;fill-opacity:1;fill-rule:nonzero;stroke:none"
               d="M 60.059998,27.618002 H 186.65999" /><path
               id="path132"
               style="fill:none;stroke:#231f20;stroke-width:0.80000001;stroke-linecap:butt;stroke-linejoin:miter;stroke-miterlimit:4;stroke-dasharray:3, 3, 3, 3, 3, 3;stroke-dashoffset:0;stroke-opacity:1"
               d="M 60.059998,27.618002 H 186.65999" /></g></g></g></g></g></svg>