<?xml version="1.0" encoding="UTF-8" standalone="no"?>
<svg
   xmlns:dc="http://purl.org/dc/elements/1.1/"
   xmlns:cc="http://creativecommons.org/ns#"
   xmlns:rdf="http://www.w3.org/1999/02/22-rdf-syntax-ns#"
   xmlns:svg="http://www.w3.org/2000/svg"
   xmlns="http://www.w3.org/2000/svg"
   viewBox="0 0 254.67732 87.290665"
   height="87.290665"
   width="254.67732"
   xml:space="preserve"
   id="svg2"
   version="1.1"><metadata
     id="metadata8"><rdf:RDF><cc:Work
         rdf:about=""><dc:format>image/svg+xml</dc:format><dc:type
           rdf:resource="http://purl.org/dc/dcmitype/StillImage" /></cc:Work></rdf:RDF></metadata><defs
     id="defs6"><clipPath
       id="clipPath28"
       clipPathUnits="userSpaceOnUse"><path
         id="path26"
         d="M 0,65.468 H 191.008 V 0.06 L 0,0.06 Z" /></clipPath></defs><g
     transform="matrix(1.3333333,0,0,-1.3333333,0,87.290667)"
     id="g10"><path
       id="path12"
       style="fill:#231f20;fill-opacity:1;fill-rule:nonzero;stroke:none"
       d="m 29.975,37.188 -4.179,0.557 0.013,0.147 5.505,3.108 c 1.635,1.311 3.271,2.621 4.906,3.932 -0.934,-1.876 -1.869,-3.753 -2.803,-5.629 l -1.872,-6.037 -0.124,-0.058 -1.446,3.98" /><path
       id="path14"
       style="fill:none;stroke:#231f20;stroke-width:1;stroke-linecap:butt;stroke-linejoin:miter;stroke-miterlimit:4;stroke-dasharray:none;stroke-opacity:1"
       d="m 135.891,10.495 0.021,1.322 h -7.5 l -0.188,-1.322" /><text
       id="text18"
       style="font-style:italic;font-variant:normal;font-weight:normal;font-size:12px;font-family:CMMI10;-inkscape-font-specification:CMMI10;writing-mode:lr-tb;fill:#231f20;fill-opacity:1;fill-rule:nonzero;stroke:none"
       transform="matrix(1,0,0,-1,9.8398,36.1954)"><tspan
         id="tspan16"
         y="0"
         x="0">F</tspan></text>
<path
       id="path20"
       style="fill:#231f20;fill-opacity:1;fill-rule:nonzero;stroke:none"
       d="m 9.8399,34.601 h 7.79 v 0.3989 h -7.79 z" /><g
       id="g22"><g
         clip-path="url(#clipPath28)"
         id="g24"><path
           id="path30"
           style="fill:none;stroke:#231f20;stroke-width:1;stroke-linecap:butt;stroke-linejoin:miter;stroke-miterlimit:4;stroke-dasharray:none;stroke-opacity:1"
           d="M 0.38477,1.207 53.455,65.149" /></g></g><text
       id="text34"
       style="font-variant:normal;font-weight:normal;font-size:10px;font-family:Times;-inkscape-font-specification:Times-Roman;writing-mode:lr-tb;fill:#231f20;fill-opacity:1;fill-rule:nonzero;stroke:none"
       transform="matrix(1,0,0,-1,13.5962,5.7549)"><tspan
         id="tspan32"
         y="0"
         x="0 5">60</tspan></text>
<text
       id="text38"
       style="font-variant:normal;font-weight:normal;font-size:4.80000019px;font-family:Times;-inkscape-font-specification:Times-Roman;writing-mode:lr-tb;fill:#231f20;fill-opacity:1;fill-rule:nonzero;stroke:none"
       transform="matrix(1,0,0,-1,23.5962,9.3549)"><tspan
         id="tspan36"
         y="0"
         x="0">o</tspan></text>
<path
       id="path40"
       style="fill:#231f20;fill-opacity:1;fill-rule:nonzero;stroke:none"
       d="M 1.1299,0.5 H 48.63" /><path
       id="path42"
       style="fill:none;stroke:#231f20;stroke-width:1;stroke-linecap:butt;stroke-linejoin:miter;stroke-miterlimit:4;stroke-dasharray:none;stroke-opacity:1"
       d="M 1.1299,0.5 H 48.63" /><path
       id="path44"
       style="fill:none;stroke:#231f20;stroke-width:0.69999999;stroke-linecap:butt;stroke-linejoin:miter;stroke-miterlimit:4;stroke-dasharray:none;stroke-opacity:1"
       d="M 19.372,24.318 C 26.521,18.835 31.13,10.206 31.13,0.5" /><text
       id="text50"
       style="font-variant:normal;font-weight:normal;font-size:11.95499992px;font-family:CMR12;-inkscape-font-specification:CMR12;writing-mode:lr-tb;fill:#231f20;fill-opacity:1;fill-rule:nonzero;stroke:none"
       transform="matrix(1,0,0,-1,93.1299,7.816)"><tspan
         id="tspan46"
         y="0"
         x="0 4.6146302 9.8150549 15.66105 18.900854">scale</tspan><tspan
         id="tspan48"
         y="-0.49971899"
         x="54.930836 67.356857 77.112144 83.603706 90.095268 93.335075">=1unit</tspan></text>
</g></svg>