<?xml version="1.0" encoding="UTF-8" standalone="no"?>
<svg
   xmlns:dc="http://purl.org/dc/elements/1.1/"
   xmlns:cc="http://creativecommons.org/ns#"
   xmlns:rdf="http://www.w3.org/1999/02/22-rdf-syntax-ns#"
   xmlns:svg="http://www.w3.org/2000/svg"
   xmlns="http://www.w3.org/2000/svg"
   viewBox="0 0 297.33334 130.66667"
   height="130.66667"
   width="297.33334"
   xml:space="preserve"
   id="svg2"
   version="1.1"><metadata
     id="metadata8"><rdf:RDF><cc:Work
         rdf:about=""><dc:format>image/svg+xml</dc:format><dc:type
           rdf:resource="http://purl.org/dc/dcmitype/StillImage" /></cc:Work></rdf:RDF></metadata><defs
     id="defs6"><clipPath
       id="clipPath24"
       clipPathUnits="userSpaceOnUse"><path
         id="path22"
         d="M 0,0 H 223 V 98 H 0 Z" /></clipPath><clipPath
       id="clipPath34"
       clipPathUnits="userSpaceOnUse"><path
         id="path32"
         d="M 0,0 H 222.95801 V 97.617004 H 0 Z" /></clipPath><clipPath
       id="clipPath50"
       clipPathUnits="userSpaceOnUse"><path
         id="path48"
         d="M 0,0 H 222.95801 V 97.617004 H 0 Z" /></clipPath><clipPath
       id="clipPath78"
       clipPathUnits="userSpaceOnUse"><path
         id="path76"
         d="M 0,0 H 222.95801 V 97.617004 H 0 Z" /></clipPath></defs><g
     transform="matrix(1.3333333,0,0,-1.3333333,0,130.66667)"
     id="g10"><g
       id="g12" /><g
       id="g14" /><g
       id="g16"><g
         id="g18"><g
           clip-path="url(#clipPath24)"
           id="g20"><g
             id="g26" /><g
             id="g28"><g
               clip-path="url(#clipPath34)"
               id="g30"><path
                 id="path36"
                 style="fill:none;stroke:#231f20;stroke-width:1;stroke-linecap:butt;stroke-linejoin:miter;stroke-miterlimit:4;stroke-dasharray:none;stroke-opacity:1"
                 d="m 168.10901,82.524002 -168.00001,-4.5 222.50001,-49.666" /></g></g><g
             id="g38"><path
               id="path40"
               style="fill:#231f20;fill-opacity:1;fill-rule:nonzero;stroke:none"
               d="m 74.099998,79.606003 -2.285995,3.542999 0.121002,0.085 5.93499,-2.174995 c 2.058006,-0.396004 4.116013,-0.791001 6.175011,-1.186005 -2.034004,-0.504997 -4.068001,-1.009994 -6.103005,-1.514999 l -5.809997,-2.489998 -0.125,0.058 2.092994,3.68" /><path
               id="path42"
               style="fill:#231f20;fill-opacity:1;fill-rule:nonzero;stroke:none"
               d="m 126.60901,53.024002 54,-52.66600199" /></g><g
             id="g44"><g
               clip-path="url(#clipPath50)"
               id="g46"><path
                 id="path52"
                 style="fill:none;stroke:#231f20;stroke-width:1;stroke-linecap:butt;stroke-linejoin:miter;stroke-miterlimit:4;stroke-dasharray:none;stroke-opacity:1"
                 d="m 126.60901,53.024002 54,-52.66600199" /></g></g><g
             id="g54"><path
               id="path56"
               style="fill:#231f20;fill-opacity:1;fill-rule:nonzero;stroke:none"
               d="m 153.494,26.65 0.94701,4.108001 0.145,-0.027 2.577,-5.771999 c 1.14999,-1.752001 2.30099,-3.503001 3.453,-5.255002 -1.78,1.107001 -3.55999,2.213002 -5.34001,3.32 l -5.83499,2.432001 -0.045,0.129 L 153.494,26.65" /><text
               id="text60"
               style="font-variant:normal;font-weight:normal;font-size:12px;font-family:CMMI10;-inkscape-font-specification:CMMI10;writing-mode:lr-tb;fill:#231f20;fill-opacity:1;fill-rule:nonzero;stroke:none"
               transform="matrix(1,0,0,-1,73.275398,88.617195)"><tspan
                 id="tspan58"
                 y="0"
                 x="0">a</tspan></text>
<path
               id="path62"
               style="fill:#231f20;fill-opacity:1;fill-rule:nonzero;stroke:none"
               d="m 73.275002,87.422005 h 5.265999 v -0.398003 h -5.265999 z" /><text
               id="text66"
               style="font-variant:normal;font-weight:normal;font-size:12px;font-family:CMMI10;-inkscape-font-specification:CMMI10;writing-mode:lr-tb;fill:#231f20;fill-opacity:1;fill-rule:nonzero;stroke:none"
               transform="matrix(1,0,0,-1,141.942,18.617199)"><tspan
                 id="tspan64"
                 y="0"
                 x="0">b</tspan></text>
<path
               id="path68"
               style="fill:#231f20;fill-opacity:1;fill-rule:nonzero;stroke:none"
               d="M 141.94301,17.422001 H 146.218 V 17.024 h -4.27499 z" /><path
               id="path70"
               style="fill:#231f20;fill-opacity:1;fill-rule:nonzero;stroke:none"
               d="m 168.60901,81.024002 54,-52.666" /></g><g
             id="g72"><g
               clip-path="url(#clipPath78)"
               id="g74"><path
                 id="path80"
                 style="fill:none;stroke:#231f20;stroke-width:1;stroke-linecap:butt;stroke-linejoin:miter;stroke-miterlimit:4;stroke-dasharray:none;stroke-opacity:1"
                 d="m 168.60901,81.024002 54,-52.666" /></g></g><g
             id="g82"><path
               id="path84"
               style="fill:#231f20;fill-opacity:1;fill-rule:nonzero;stroke:none"
               d="m 195.494,54.649998 0.94701,4.108005 0.145,-0.027 2.57599,-5.772 c 1.151,-1.752002 2.30301,-3.503002 3.45301,-5.255001 -1.779,1.106999 -3.55899,2.213002 -5.34,3.32 l -5.834,2.431999 -0.045,0.129002 4.09799,1.064995" /><text
               id="text88"
               style="font-variant:normal;font-weight:normal;font-size:12px;font-family:CMMI10;-inkscape-font-specification:CMMI10;writing-mode:lr-tb;fill:#231f20;fill-opacity:1;fill-rule:nonzero;stroke:none"
               transform="matrix(1,0,0,-1,183.942,46.617199)"><tspan
                 id="tspan86"
                 y="0"
                 x="0">b</tspan></text>
<path
               id="path90"
               style="fill:#231f20;fill-opacity:1;fill-rule:nonzero;stroke:none"
               d="m 183.94301,45.422001 h 4.27499 v -0.397999 h -4.27499 z" /><path
               id="path92"
               style="fill:#231f20;fill-opacity:1;fill-rule:nonzero;stroke:none"
               d="m 82.606003,59.382004 -1.456001,3.957001 0.136001,0.057 5.317001,-3.419003 c 1.920998,-0.835998 3.844002,-1.671997 5.765999,-2.507004 -2.095001,-0.049 -4.191002,-0.097 -6.285995,-0.144992 l -6.214005,-1.161004 -0.109008,0.084 2.846008,3.134003" /><path
               id="path94"
               style="fill:none;stroke:#231f20;stroke-width:1;stroke-linecap:butt;stroke-linejoin:miter;stroke-miterlimit:4;stroke-dasharray:none;stroke-opacity:1"
               d="m 82.606003,59.382004 -1.456001,3.957001 0.136001,0.057 5.317001,-3.419003 c 1.920998,-0.835998 3.844002,-1.671997 5.765999,-2.507004 -2.095001,-0.049 -4.191002,-0.097 -6.285995,-0.144992 l -6.214005,-1.161004 -0.109008,0.084 z" /><text
               id="text98"
               style="font-variant:normal;font-weight:normal;font-size:11.95500088px;font-family:CMMI12;-inkscape-font-specification:CMMI12;writing-mode:lr-tb;fill:#231f20;fill-opacity:1;fill-rule:nonzero;stroke:none"
               transform="matrix(1,0,0,-1,72.838898,44.966297)"><tspan
                 id="tspan96"
                 y="0"
                 x="0">a</tspan></text>
<path
               id="path100"
               style="fill:#231f20;fill-opacity:1;fill-rule:nonzero;stroke:none"
               d="m 72.839005,43.533001 h 6.145004 V 43.055 h -6.145004 z" /><text
               id="text104"
               style="font-variant:normal;font-weight:normal;font-size:11.95500088px;font-family:CMR12;-inkscape-font-specification:CMR12;writing-mode:lr-tb;fill:#231f20;fill-opacity:1;fill-rule:nonzero;stroke:none"
               transform="matrix(1,0,0,-1,81.641098,44.966297)"><tspan
                 id="tspan102"
                 y="0"
                 x="0">+</tspan></text>
<text
               id="text108"
               style="font-variant:normal;font-weight:normal;font-size:11.95500088px;font-family:CMMI12;-inkscape-font-specification:CMMI12;writing-mode:lr-tb;fill:#231f20;fill-opacity:1;fill-rule:nonzero;stroke:none"
               transform="matrix(1,0,0,-1,93.402428,44.966297)"><tspan
                 id="tspan106"
                 y="0"
                 x="0">b</tspan></text>
<path
               id="path110"
               style="fill:#231f20;fill-opacity:1;fill-rule:nonzero;stroke:none"
               d="m 93.402008,43.533001 h 4.976997 V 43.055 h -4.976997 z" /></g></g></g></g></g></svg>