<?xml version="1.0" encoding="UTF-8" standalone="no"?>
<svg
   xmlns:dc="http://purl.org/dc/elements/1.1/"
   xmlns:cc="http://creativecommons.org/ns#"
   xmlns:rdf="http://www.w3.org/1999/02/22-rdf-syntax-ns#"
   xmlns:svg="http://www.w3.org/2000/svg"
   xmlns="http://www.w3.org/2000/svg"
   viewBox="0 0 294.66666 114.66667"
   height="114.66667"
   width="294.66666"
   xml:space="preserve"
   id="svg2"
   version="1.1"><metadata
     id="metadata8"><rdf:RDF><cc:Work
         rdf:about=""><dc:format>image/svg+xml</dc:format><dc:type
           rdf:resource="http://purl.org/dc/dcmitype/StillImage" /></cc:Work></rdf:RDF></metadata><defs
     id="defs6"><clipPath
       id="clipPath24"
       clipPathUnits="userSpaceOnUse"><path
         id="path22"
         d="M 0,0 H 221 V 86 H 0 Z" /></clipPath><clipPath
       id="clipPath34"
       clipPathUnits="userSpaceOnUse"><path
         id="path32"
         d="M 0,0 H 220.5 V 85.713005 H 0 Z" /></clipPath></defs><g
     transform="matrix(1.3333333,0,0,-1.3333333,0,114.66667)"
     id="g10"><g
       id="g12" /><g
       id="g14" /><g
       id="g16"><g
         id="g18"><g
           clip-path="url(#clipPath24)"
           id="g20"><g
             id="g26" /><g
             id="g28"><g
               clip-path="url(#clipPath34)"
               id="g30"><path
                 id="path36"
                 style="fill:none;stroke:#231f20;stroke-width:1;stroke-linecap:butt;stroke-linejoin:miter;stroke-miterlimit:4;stroke-dasharray:none;stroke-opacity:1"
                 d="M 0,51.963001 H 220.5" /><path
                 id="path38"
                 style="fill:none;stroke:#231f20;stroke-width:1;stroke-linecap:butt;stroke-linejoin:miter;stroke-miterlimit:4;stroke-dasharray:5, 5;stroke-dashoffset:0;stroke-opacity:1"
                 d="M 32.5,56.713001 V 85.213005 H 2.5 V 56.713001 Z" /><path
                 id="path40"
                 style="fill:none;stroke:#231f20;stroke-width:1;stroke-linecap:butt;stroke-linejoin:miter;stroke-miterlimit:4;stroke-dasharray:none;stroke-opacity:1"
                 d="m 184.5,55.713001 h 30 v 28.499996 h -30 z" /></g></g><g
             id="g42"><path
               id="path44"
               style="fill:#231f20;fill-opacity:1;fill-rule:nonzero;stroke:none"
               d="m 26.5,17.463001 h 167" /><path
               id="path46"
               style="fill:#231f20;fill-opacity:1;fill-rule:nonzero;stroke:none"
               d="m 192.48,17.463001 -2.19001,3.603001 0.12302,0.081 5.875,-2.333 c 2.047,-0.451 4.09399,-0.901001 6.14101,-1.351 -2.04702,-0.451 -4.09401,-0.901001 -6.14101,-1.351 l -5.875,-2.334 -0.12302,0.062 2.19001,3.623001" /><path
               id="path48"
               style="fill:#231f20;fill-opacity:1;fill-rule:nonzero;stroke:none"
               d="M 27.519999,17.463001 29.711002,13.86 29.588001,13.778 23.712002,16.112 c -2.046002,0.45 -4.093001,0.901 -6.140001,1.351001 2.047,0.449999 4.093999,0.9 6.140001,1.351 l 5.875999,2.333 0.123001,-0.061 -2.191003,-3.622999" /><text
               id="text52"
               style="font-variant:normal;font-weight:normal;font-size:12px;font-family:Times;-inkscape-font-specification:Times-Roman;writing-mode:lr-tb;fill:#231f20;fill-opacity:1;fill-rule:nonzero;stroke:none"
               transform="matrix(1,0,0,-1,95.5,4.9628997)"><tspan
                 id="tspan50"
                 y="0"
                 x="0 6">10</tspan></text>
<text
               id="text56"
               style="font-variant:normal;font-weight:normal;font-size:12px;font-family:Times;-inkscape-font-specification:Times-Roman;writing-mode:lr-tb;fill:#231f20;fill-opacity:1;fill-rule:nonzero;stroke:none"
               transform="matrix(1,0,0,-1,109.42,4.9628997)"><tspan
                 id="tspan54"
                 y="0"
                 x="0">m</tspan></text>
<path
               id="path58"
               style="fill:none;stroke:#231f20;stroke-width:1;stroke-linecap:butt;stroke-linejoin:miter;stroke-miterlimit:4;stroke-dasharray:5, 5;stroke-dashoffset:0;stroke-opacity:1"
               d="m 48.5,70.963005 h 117" /><path
               id="path60"
               style="fill:#231f20;fill-opacity:1;fill-rule:nonzero;stroke:none"
               d="m 164.48,70.963005 -2.19001,3.602997 0.12302,0.081 5.875,-2.333 c 2.047,-0.450996 4.09399,-0.901001 6.14099,-1.350998 -2.047,-0.451004 -4.09399,-0.901001 -6.14099,-1.351005 l -5.875,-2.334 -0.12302,0.062 2.19001,3.623009" /><text
               id="text64"
               style="font-variant:normal;font-weight:normal;font-size:11.95500088px;font-family:CMMI12;-inkscape-font-specification:CMMI12;writing-mode:lr-tb;fill:#231f20;fill-opacity:1;fill-rule:nonzero;stroke:none"
               transform="matrix(1,0,0,-1,15.785199,38.700199)"><tspan
                 id="tspan62"
                 y="0"
                 x="0">A</tspan></text>
<text
               id="text68"
               style="font-variant:normal;font-weight:normal;font-size:11.95500088px;font-family:CMMI12;-inkscape-font-specification:CMMI12;writing-mode:lr-tb;fill:#231f20;fill-opacity:1;fill-rule:nonzero;stroke:none"
               transform="matrix(1,0,0,-1,199.46303,37.699566)"><tspan
                 id="tspan66"
                 y="0"
                 x="0">B</tspan></text>
</g></g></g></g></g></svg>