<?xml version="1.0" encoding="UTF-8" standalone="no"?>
<svg
   xmlns:dc="http://purl.org/dc/elements/1.1/"
   xmlns:cc="http://creativecommons.org/ns#"
   xmlns:rdf="http://www.w3.org/1999/02/22-rdf-syntax-ns#"
   xmlns:svg="http://www.w3.org/2000/svg"
   xmlns="http://www.w3.org/2000/svg"
   viewBox="0 0 457.33334 89.333336"
   height="89.333336"
   width="457.33334"
   xml:space="preserve"
   id="svg2"
   version="1.1"><metadata
     id="metadata8"><rdf:RDF><cc:Work
         rdf:about=""><dc:format>image/svg+xml</dc:format><dc:type
           rdf:resource="http://purl.org/dc/dcmitype/StillImage" /></cc:Work></rdf:RDF></metadata><defs
     id="defs6"><clipPath
       id="clipPath24"
       clipPathUnits="userSpaceOnUse"><path
         id="path22"
         d="M 0,0 H 343 V 67 H 0 Z" /></clipPath></defs><g
     transform="matrix(1.3333333,0,0,-1.3333333,0,89.333333)"
     id="g10"><g
       id="g12" /><g
       id="g14" /><g
       id="g16"><g
         id="g18"><g
           clip-path="url(#clipPath24)"
           id="g20"><g
             id="g26" /><g
             id="g28"><path
               id="path30"
               style="fill:#000000;fill-opacity:1;fill-rule:nonzero;stroke:#000000;stroke-width:1;stroke-linecap:butt;stroke-linejoin:miter;stroke-miterlimit:4;stroke-dasharray:none;stroke-opacity:1"
               d="M 342.75201,0.64300001 H 0.45500001" /><path
               id="path32"
               style="fill:none;stroke:#000000;stroke-width:1;stroke-linecap:butt;stroke-linejoin:miter;stroke-miterlimit:4;stroke-dasharray:none;stroke-opacity:1"
               d="m 229.65501,28.243002 h 49.2 V 3.0430012 h -49.2 z m -168.600006,-0.6 H 110.255 V 2.4430008 H 61.055004 Z M 112.05501,13.843 h 54" /><path
               id="path34"
               style="fill:#000000;fill-opacity:1;fill-rule:nonzero;stroke:none"
               d="m 165.23901,13.843 -1.753,-2.882 0.099,-0.066 4.69999,1.867001 c 1.63701,0.361 3.275,0.719999 4.91201,1.080999 -1.63701,0.360001 -3.275,0.720001 -4.91201,1.081001 l -4.69999,1.865998 -0.099,-0.049 1.753,-2.898001" /><path
               id="path36"
               style="fill:none;stroke:#000000;stroke-width:1;stroke-linecap:butt;stroke-linejoin:miter;stroke-miterlimit:4;stroke-dasharray:none;stroke-opacity:1"
               d="M 254.32101,29 V 59.643002" /><path
               id="path38"
               style="fill:#000000;fill-opacity:1;fill-rule:nonzero;stroke:none"
               d="m 254.32101,58.827003 -2.882,-1.753002 -0.066,0.099 1.86697,4.699997 c 0.36102,1.638001 0.72102,3.275002 1.08102,4.912003 0.36001,-1.637001 0.721,-3.274002 1.08001,-4.912003 l 1.86799,-4.699997 -0.05,-0.099 -2.89801,1.753002" /></g></g></g></g></g></svg>