<?xml version="1.0" encoding="UTF-8" standalone="no"?>
<svg
   xmlns:dc="http://purl.org/dc/elements/1.1/"
   xmlns:cc="http://creativecommons.org/ns#"
   xmlns:rdf="http://www.w3.org/1999/02/22-rdf-syntax-ns#"
   xmlns:svg="http://www.w3.org/2000/svg"
   xmlns="http://www.w3.org/2000/svg"
   viewBox="0 0 225.33333 148"
   height="148"
   width="225.33333"
   xml:space="preserve"
   id="svg2"
   version="1.1"><metadata
     id="metadata8"><rdf:RDF><cc:Work
         rdf:about=""><dc:format>image/svg+xml</dc:format><dc:type
           rdf:resource="http://purl.org/dc/dcmitype/StillImage" /></cc:Work></rdf:RDF></metadata><defs
     id="defs6"><clipPath
       id="clipPath24"
       clipPathUnits="userSpaceOnUse"><path
         id="path22"
         d="M 0,0 H 169 V 111 H 0 Z" /></clipPath></defs><g
     transform="matrix(1.3333333,0,0,-1.3333333,0,148)"
     id="g10"><g
       id="g12" /><g
       id="g14" /><g
       id="g16"><g
         id="g18"><g
           clip-path="url(#clipPath24)"
           id="g20"><g
             id="g26" /><g
             id="g28"><text
               id="text32"
               style="font-variant:normal;font-weight:normal;font-size:11.95500088px;font-family:CMMI12;-inkscape-font-specification:CMMI12;writing-mode:lr-tb;fill:#231f20;fill-opacity:1;fill-rule:nonzero;stroke:none"
               transform="matrix(1,0,0,-1,164.5,37.0625)"><tspan
                 id="tspan30"
                 y="0"
                 x="0">t</tspan></text>
<path
               id="path34"
               style="fill:#000000;fill-opacity:1;fill-rule:nonzero;stroke:#000000;stroke-width:0.5;stroke-linecap:butt;stroke-linejoin:round;stroke-miterlimit:4;stroke-dasharray:none;stroke-opacity:1"
               d="m 71.019997,33 v 67.329" /><path
               id="path36"
               style="fill:#000000;fill-opacity:1;fill-rule:nonzero;stroke:none"
               d="m 71.708,99.627007 -1.987999,-1.330002 -0.046,0.075 1.288002,3.565995 c 0.249,1.24301 0.497993,2.486 0.745994,3.72901 0.249001,-1.24301 0.497002,-2.486 0.746002,-3.72901 l 1.288002,-3.565995 -0.034,-0.075 -2,1.330002" /><text
               id="text40"
               style="font-variant:normal;font-weight:normal;font-size:11.95500088px;font-family:CMMI12;-inkscape-font-specification:CMMI12;writing-mode:lr-tb;fill:#231f20;fill-opacity:1;fill-rule:nonzero;stroke:none"
               transform="matrix(1,0,0,-1,76.401001,99)"><tspan
                 id="tspan38"
                 y="0"
                 x="0">f</tspan></text>
<text
               id="text44"
               style="font-variant:normal;font-weight:normal;font-size:11.95500088px;font-family:CMR12;-inkscape-font-specification:CMR12;writing-mode:lr-tb;fill:#231f20;fill-opacity:1;fill-rule:nonzero;stroke:none"
               transform="matrix(1,0,0,-1,83.448471,99)"><tspan
                 id="tspan42"
                 y="0"
                 x="0">(</tspan></text>
<text
               id="text48"
               style="font-variant:normal;font-weight:normal;font-size:11.95500088px;font-family:CMMI12;-inkscape-font-specification:CMMI12;writing-mode:lr-tb;fill:#231f20;fill-opacity:1;fill-rule:nonzero;stroke:none"
               transform="matrix(1,0,0,-1,88.000938,99)"><tspan
                 id="tspan46"
                 y="0"
                 x="0">t</tspan></text>
<text
               id="text52"
               style="font-variant:normal;font-weight:normal;font-size:11.95500088px;font-family:CMR12;-inkscape-font-specification:CMR12;writing-mode:lr-tb;fill:#231f20;fill-opacity:1;fill-rule:nonzero;stroke:none"
               transform="matrix(1,0,0,-1,92.228226,99)"><tspan
                 id="tspan50"
                 y="0"
                 x="0">)</tspan></text>
<path
               id="path54"
               style="fill:#000000;fill-opacity:1;fill-rule:nonzero;stroke:none"
               d="m 158.619,44.992001 -1.59599,1.987999 0.09,0.046 4.28,-1.287998 c 1.49099,-0.249001 2.983,-0.498005 4.47399,-0.746002 -1.49099,-0.248997 -2.983,-0.496998 -4.47399,-0.745999 l -4.28,-1.288002 -0.09,0.034 1.59599,2" /><path
               id="path56"
               style="fill:none;stroke:#000000;stroke-width:0.5;stroke-linecap:butt;stroke-linejoin:round;stroke-miterlimit:4;stroke-dasharray:none;stroke-opacity:1"
               d="m 0,44.992001 h 158.619 m -26.744,-0.013 h 1.8" /><path
               id="path58"
               style="fill:none;stroke:#000000;stroke-width:0.5;stroke-linecap:butt;stroke-linejoin:round;stroke-miterlimit:10;stroke-dasharray:none;stroke-opacity:1"
               d="m 132.77501,45.879002 v -1.8" /><path
               id="path60"
               style="fill:none;stroke:#000000;stroke-width:0.69999999;stroke-linecap:butt;stroke-linejoin:round;stroke-miterlimit:4;stroke-dasharray:none;stroke-opacity:1"
               d="m 64,44.754002 0.599998,0.05 0.625008,0.05 0.599999,0.025 0.599998,0.025 0.624992,0.025 0.600007,0.025 0.599998,0.025 h 3.675003 l 0.599999,0.025 h 3.050003 l 0.599998,0.025 0.599999,0.025 0.625,0.025 0.599998,0.025 0.599998,0.025 0.625008,0.05 0.599999,0.05 0.599998,0.05 0.624992,0.075 0.600007,0.075 0.599998,0.075 0.625008,0.100002 0.599998,0.1 0.599999,0.125 0.625,0.150002 0.599998,0.125 0.599999,0.174999 0.625,0.174999 0.600006,0.200001 0.624992,0.200001 0.599998,0.224998 0.599999,0.224999 0.625008,0.275001 0.599998,0.275002 0.599999,0.274998 0.625,0.325 L 92,48.779003 l 0.599998,0.375 0.625008,0.375 0.599999,0.399998 0.599998,0.425003 0.624992,0.424999 0.600007,0.474999 0.599998,0.5 0.625008,0.525001 1.199997,1.099999 0.625,0.600002 1.199997,1.299999 0.624998,0.674999 0.60001,0.724999 0.6,0.75 0.62499,0.775001 0.6,0.8 0.625,0.850002 0.6,0.875 0.6,0.899998 0.625,0.925003 0.6,0.974998 0.6,1.024998 0.62501,1.050003 0.59999,1.074997 0.6,1.125 0.625,1.150001 0.59999,1.200005 0.60001,1.25 0.62501,1.275993 0.6,1.324005 0.59999,1.349999 0.626,1.401001 0.599,1.449997 0.6,1.473999 0.62501,1.550995 0.601,1.575004 0.599,1.600006 0.62499,1.674996 0.6,1.725006 0.601,1.75 0.624,1.799995 M 26.275002,0.42900002 l 0.598999,1.75000008 0.6,1.7250002 0.625,1.6750002 0.6,1.5999999 0.600001,1.5750003 0.625,1.5500003 0.601,1.474999 0.598999,1.450001 0.625001,1.4 0.600001,1.35 0.599998,1.325 0.625,1.274999 0.599999,1.25 0.600002,1.200001 0.626,1.15 0.599998,1.125 0.625,1.075001 0.600002,1.049999 0.599999,1.024999 0.625,0.975001 0.599998,0.925001 0.599999,0.9 0.625004,0.875 0.600002,0.85 0.599998,0.799999 0.625,0.775 0.599999,0.75 0.599998,0.725002 0.625004,0.674999 1.200001,1.3 L 45.75,36.604 l 1.200001,1.100002 0.625,0.524998 0.600002,0.5 0.599999,0.475002 0.625,0.425 L 50,40.054001 l 0.600002,0.400001 0.625,0.375 0.599999,0.375 0.600002,0.325001 0.624996,0.324997 0.599999,0.275002 0.625004,0.275001 0.600002,0.274998 0.599998,0.225002 0.625,0.224999 1.199997,0.400001 0.625004,0.174999 0.599999,0.175 0.600002,0.125 0.624996,0.150001 0.599998,0.125 0.599999,0.1 0.625008,0.100002 0.599998,0.075 0.599999,0.075 0.625,0.075 0.599998,0.05" /><path
               id="path62"
               style="fill:none;stroke:#000000;stroke-width:0.69999999;stroke-linecap:butt;stroke-linejoin:round;stroke-miterlimit:4;stroke-dasharray:3, 3, 3, 3, 3, 3;stroke-dashoffset:0;stroke-opacity:1"
               d="M 29,45 V 9.2540007 M 115,80.873001 V 45.127003" /></g></g></g></g></g></svg>