<?xml version="1.0" encoding="UTF-8" standalone="no"?>
<svg
   xmlns:dc="http://purl.org/dc/elements/1.1/"
   xmlns:cc="http://creativecommons.org/ns#"
   xmlns:rdf="http://www.w3.org/1999/02/22-rdf-syntax-ns#"
   xmlns:svg="http://www.w3.org/2000/svg"
   xmlns="http://www.w3.org/2000/svg"
   viewBox="0 0 326.66666 112"
   height="112"
   width="326.66666"
   xml:space="preserve"
   id="svg2"
   version="1.1"><metadata
     id="metadata8"><rdf:RDF><cc:Work
         rdf:about=""><dc:format>image/svg+xml</dc:format><dc:type
           rdf:resource="http://purl.org/dc/dcmitype/StillImage" /></cc:Work></rdf:RDF></metadata><defs
     id="defs6"><clipPath
       id="clipPath24"
       clipPathUnits="userSpaceOnUse"><path
         id="path22"
         d="M 0,0 H 245 V 84 H 0 Z" /></clipPath><clipPath
       id="clipPath50"
       clipPathUnits="userSpaceOnUse"><path
         id="path48"
         d="M 0,0.06000519 H 244.75 V 84 H 0 Z" /></clipPath><clipPath
       id="clipPath78"
       clipPathUnits="userSpaceOnUse"><path
         id="path76"
         d="M 0,0.06000519 H 244.75 V 84 H 0 Z" /></clipPath><clipPath
       id="clipPath108"
       clipPathUnits="userSpaceOnUse"><path
         id="path106"
         d="M 0,0.06000519 H 244.75 V 84 H 0 Z" /></clipPath></defs><g
     transform="matrix(1.3333333,0,0,-1.3333333,0,112)"
     id="g10"><g
       id="g12" /><g
       id="g14" /><g
       id="g16"><g
         id="g18"><g
           clip-path="url(#clipPath24)"
           id="g20"><g
             id="g26" /><g
             id="g28"><path
               id="path30"
               style="fill:#231f20;fill-opacity:1;fill-rule:evenodd;stroke:none"
               d="m 53.25,59.782001 -16.5,-2.25 v 4.5 l 16.5,-2.25" /><path
               id="path32"
               style="fill:#231f20;fill-opacity:1;fill-rule:nonzero;stroke:none"
               d="m 53.25,59.782001 h 0.25 v -0.25 l -16.5,-2.25 h -0.25 v 0.25" /><path
               id="path34"
               style="fill:none;stroke:#231f20;stroke-width:0.25;stroke-linecap:butt;stroke-linejoin:miter;stroke-miterlimit:10;stroke-dasharray:none;stroke-opacity:1"
               d="m 36.875,59.782001 v -2.5 m 0,4.75 v -2.5" /><path
               id="path36"
               style="fill:#231f20;fill-opacity:1;fill-rule:nonzero;stroke:none"
               d="M 36.75,62.032001 H 37 l 16.5,-2.25 v -0.25 h -0.25 l -16.5,2.25" /><path
               id="path38"
               style="fill:#231f20;fill-opacity:1;fill-rule:nonzero;stroke:none"
               d="m 53.25,59.782001 h 0.25 v -0.25 l -16.5,-2.25 h -0.25 v 0.25" /><path
               id="path40"
               style="fill:none;stroke:#231f20;stroke-width:0.25;stroke-linecap:butt;stroke-linejoin:miter;stroke-miterlimit:10;stroke-dasharray:none;stroke-opacity:1"
               d="m 36.875,59.782001 v -2.5 m 0,4.75 v -2.5" /><path
               id="path42"
               style="fill:#231f20;fill-opacity:1;fill-rule:nonzero;stroke:none"
               d="M 36.75,62.032001 H 37 l 16.5,-2.25 v -0.25 h -0.25 l -16.5,2.25" /></g><g
             id="g44"><g
               clip-path="url(#clipPath50)"
               id="g46"><path
                 id="path52"
                 style="fill:none;stroke:#231f20;stroke-width:0.5;stroke-linecap:butt;stroke-linejoin:miter;stroke-miterlimit:10;stroke-dasharray:none;stroke-opacity:1"
                 d="M 0,59.782001 H 37" /></g></g><g
             id="g54"><path
               id="path56"
               style="fill:none;stroke:#231f20;stroke-width:1;stroke-linecap:butt;stroke-linejoin:miter;stroke-miterlimit:10;stroke-dasharray:none;stroke-opacity:1"
               d="m 25.25,59.782001 h 76.5" /><path
               id="path58"
               style="fill:#231f20;fill-opacity:1;fill-rule:evenodd;stroke:none"
               d="m 195.25,58.782001 -16.5,-2.25 v 4.5 l 16.5,-2.25" /><path
               id="path60"
               style="fill:#231f20;fill-opacity:1;fill-rule:nonzero;stroke:none"
               d="m 195.25,58.782001 h 0.25 v -0.25 l -16.5,-2.25 h -0.25 v 0.25" /><path
               id="path62"
               style="fill:none;stroke:#231f20;stroke-width:0.25;stroke-linecap:butt;stroke-linejoin:miter;stroke-miterlimit:10;stroke-dasharray:none;stroke-opacity:1"
               d="m 178.87601,58.782001 v -2.5 m 0,4.75 v -2.5" /><path
               id="path64"
               style="fill:#231f20;fill-opacity:1;fill-rule:nonzero;stroke:none"
               d="M 178.75,61.032001 H 179 l 16.5,-2.25 v -0.25 h -0.25 l -16.5,2.25" /><path
               id="path66"
               style="fill:#231f20;fill-opacity:1;fill-rule:nonzero;stroke:none"
               d="m 195.25,58.782001 h 0.25 v -0.25 l -16.5,-2.25 h -0.25 v 0.25" /><path
               id="path68"
               style="fill:none;stroke:#231f20;stroke-width:0.25;stroke-linecap:butt;stroke-linejoin:miter;stroke-miterlimit:10;stroke-dasharray:none;stroke-opacity:1"
               d="m 178.87601,58.782001 v -2.5 m 0,4.75 v -2.5" /><path
               id="path70"
               style="fill:#231f20;fill-opacity:1;fill-rule:nonzero;stroke:none"
               d="M 178.75,61.032001 H 179 l 16.5,-2.25 v -0.25 h -0.25 l -16.5,2.25" /></g><g
             id="g72"><g
               clip-path="url(#clipPath78)"
               id="g74"><path
                 id="path80"
                 style="fill:none;stroke:#231f20;stroke-width:1;stroke-linecap:butt;stroke-linejoin:miter;stroke-miterlimit:10;stroke-dasharray:none;stroke-opacity:1"
                 d="m 140.75,58.782001 h 38.5 m -12.5,0 h 78" /></g></g><g
             id="g82"><path
               id="path84"
               style="fill:#ffffff;fill-opacity:1;fill-rule:nonzero;stroke:none"
               d="m 140.77,60.302002 c 0,-9.936001 -8.51199,-18 -18.999,-18 -10.488,0 -19,8.063999 -19,18 0,9.936005 8.512,18 19,18 10.48701,0 18.999,-8.063995 18.999,-18" /><path
               id="path86"
               style="fill:none;stroke:#231f20;stroke-width:1;stroke-linecap:butt;stroke-linejoin:miter;stroke-miterlimit:10;stroke-dasharray:none;stroke-opacity:1"
               d="m 140.27,60.302002 c 0,-9.66 -8.287,-17.5 -18.499,-17.5 -10.21199,0 -18.5,7.84 -18.5,17.5 0,9.660004 8.28801,17.5 18.5,17.5 10.212,0 18.499,-7.839996 18.499,-17.5 z" /><path
               id="path88"
               style="fill:#231f20;fill-opacity:1;fill-rule:evenodd;stroke:none"
               d="M 120.75,24.532001 123,8.0320005 h -4.5 l 2.25,16.5000005" /><path
               id="path90"
               style="fill:#231f20;fill-opacity:1;fill-rule:nonzero;stroke:none"
               d="M 120.75,24.532001 H 121 l 2.25,-16.5000005 v -0.25 H 123 l -2.25,16.5000005" /><path
               id="path92"
               style="fill:none;stroke:#231f20;stroke-width:0.25;stroke-linecap:butt;stroke-linejoin:miter;stroke-miterlimit:10;stroke-dasharray:none;stroke-opacity:1"
               d="m 120.75,7.9070005 h 2.5 m -4.75,0 h 2.5" /><path
               id="path94"
               style="fill:#231f20;fill-opacity:1;fill-rule:nonzero;stroke:none"
               d="M 120.75,24.532001 H 121 v -0.25 L 118.75,7.7820005 h -0.25 v 0.25" /><path
               id="path96"
               style="fill:#231f20;fill-opacity:1;fill-rule:nonzero;stroke:none"
               d="M 120.75,24.532001 H 121 l 2.25,-16.5000005 v -0.25 H 123 l -2.25,16.5000005" /><path
               id="path98"
               style="fill:none;stroke:#231f20;stroke-width:0.25;stroke-linecap:butt;stroke-linejoin:miter;stroke-miterlimit:10;stroke-dasharray:none;stroke-opacity:1"
               d="m 120.75,7.9070005 h 2.5 m -4.75,0 h 2.5" /><path
               id="path100"
               style="fill:#231f20;fill-opacity:1;fill-rule:nonzero;stroke:none"
               d="M 120.75,24.532001 H 121 v -0.25 L 118.75,7.7820005 h -0.25 v 0.25" /></g><g
             id="g102"><g
               clip-path="url(#clipPath108)"
               id="g104"><path
                 id="path110"
                 style="fill:none;stroke:#231f20;stroke-width:1;stroke-linecap:butt;stroke-linejoin:miter;stroke-miterlimit:10;stroke-dasharray:none;stroke-opacity:1"
                 d="M 120.75,8.5320005 V 0 m 0,42.282001 V 7.2820005" /></g></g><g
             id="g112"><text
               id="text116"
               style="font-style:italic;font-variant:normal;font-size:18px;font-family:Times;-inkscape-font-specification:Times-Italic;writing-mode:lr-tb;fill:#231f20;fill-opacity:1;fill-rule:nonzero;stroke:none"
               transform="matrix(1,0,0,-1,87.75,66.782196)"><tspan
                 id="tspan114"
                 y="0"
                 x="0">+</tspan></text>
<text
               id="text120"
               style="font-style:italic;font-variant:normal;font-weight:bold;font-size:12px;font-family:Times;-inkscape-font-specification:Times-BoldItalic;writing-mode:lr-tb;fill:#231f20;fill-opacity:1;fill-rule:nonzero;stroke:none"
               transform="matrix(1,0,0,-1,124.75,30.7822)"><tspan
                 id="tspan118"
                 y="0"
                 x="0">—</tspan></text>
<text
               id="text124"
               style="font-style:italic;font-variant:normal;font-size:12px;font-family:Times;-inkscape-font-specification:Times-Italic;writing-mode:lr-tb;fill:#231f20;fill-opacity:1;fill-rule:nonzero;stroke:none"
               transform="matrix(1,0,0,-1,36.249992,69.782196)"><tspan
                 id="tspan122"
                 y="0"
                 x="0 7.3319998 11.328 15.996">R(s)</tspan></text>
<text
               id="text128"
               style="font-style:italic;font-variant:normal;font-size:12px;font-family:Times;-inkscape-font-specification:Times-Italic;writing-mode:lr-tb;fill:#231f20;fill-opacity:1;fill-rule:nonzero;stroke:none"
               transform="matrix(1,0,0,-1,168.24879,69.782196)"><tspan
                 id="tspan126"
                 y="0"
                 x="0 7.3319998 11.328 15.996 19.992001 22.992001 33.66 36.66 43.992001 47.987999 52.655998">R(s) — X(s)</tspan></text>
<text
               id="text132"
               style="font-style:italic;font-variant:normal;font-size:12px;font-family:Times;-inkscape-font-specification:Times-Italic;writing-mode:lr-tb;fill:#231f20;fill-opacity:1;fill-rule:nonzero;stroke:none"
               transform="matrix(1,0,0,-1,128.31158,7.7817974)"><tspan
                 id="tspan130"
                 y="0"
                 x="0 7.3319998 11.328 15.996">X(s)</tspan></text>
</g></g></g></g></g></svg>