<?xml version="1.0" encoding="UTF-8" standalone="no"?>
<svg
   xmlns:dc="http://purl.org/dc/elements/1.1/"
   xmlns:cc="http://creativecommons.org/ns#"
   xmlns:rdf="http://www.w3.org/1999/02/22-rdf-syntax-ns#"
   xmlns:svg="http://www.w3.org/2000/svg"
   xmlns="http://www.w3.org/2000/svg"
   viewBox="0 0 462.66666 293.33334"
   height="293.33334"
   width="462.66666"
   xml:space="preserve"
   id="svg2"
   version="1.1"><metadata
     id="metadata8"><rdf:RDF><cc:Work
         rdf:about=""><dc:format>image/svg+xml</dc:format><dc:type
           rdf:resource="http://purl.org/dc/dcmitype/StillImage" /></cc:Work></rdf:RDF></metadata><defs
     id="defs6"><clipPath
       id="clipPath24"
       clipPathUnits="userSpaceOnUse"><path
         id="path22"
         d="M 0,0 H 347 V 220 H 0 Z" /></clipPath><clipPath
       id="clipPath48"
       clipPathUnits="userSpaceOnUse"><path
         id="path46"
         d="M 0,0 H 346.73602 V 219.188 H 0 Z" /></clipPath></defs><g
     transform="matrix(1.3333333,0,0,-1.3333333,0,293.33333)"
     id="g10"><g
       id="g12" /><g
       id="g14" /><g
       id="g16"><g
         id="g18"><g
           clip-path="url(#clipPath24)"
           id="g20"><g
             id="g26" /><g
             id="g28"><path
               id="path30"
               style="fill:#231f20;fill-opacity:1;fill-rule:evenodd;stroke:none"
               d="m 339,18.721001 -16.5,-2.25 v 4.5 l 16.5,-2.25" /><path
               id="path32"
               style="fill:#231f20;fill-opacity:1;fill-rule:nonzero;stroke:none"
               d="m 339,18.721001 h 0.25 v -0.25 l -16.5,-2.25 h -0.25 v 0.25" /><path
               id="path34"
               style="fill:none;stroke:#231f20;stroke-width:0.25;stroke-linecap:butt;stroke-linejoin:miter;stroke-miterlimit:10;stroke-dasharray:none;stroke-opacity:1"
               d="m 322.62503,18.721001 v -2.5 m 0,4.75 v -2.5" /><path
               id="path36"
               style="fill:#231f20;fill-opacity:1;fill-rule:nonzero;stroke:none"
               d="m 322.5,20.971001 h 0.25 l 16.5,-2.25 v -0.25 H 339 l -16.5,2.25" /><path
               id="path38"
               style="fill:#231f20;fill-opacity:1;fill-rule:nonzero;stroke:none"
               d="m 339,18.721001 h 0.25 v -0.25 l -16.5,-2.25 h -0.25 v 0.25" /><path
               id="path40"
               style="fill:none;stroke:#231f20;stroke-width:0.25;stroke-linecap:butt;stroke-linejoin:miter;stroke-miterlimit:10;stroke-dasharray:none;stroke-opacity:1"
               d="m 322.62503,18.721001 v -2.5 m 0,4.75 v -2.5" /></g><g
             id="g42"><g
               clip-path="url(#clipPath48)"
               id="g44"><path
                 id="path50"
                 style="fill:#231f20;fill-opacity:1;fill-rule:nonzero;stroke:none"
                 d="m 322.5,20.971001 h 0.25 l 16.5,-2.25 v -0.25 H 339 l -16.5,2.25" /><path
                 id="path52"
                 style="fill:none;stroke:#231f20;stroke-width:0.5;stroke-linecap:butt;stroke-linejoin:miter;stroke-miterlimit:10;stroke-dasharray:none;stroke-opacity:1"
                 d="M 0,18.721001 H 322.75" /></g></g><g
             id="g54"><path
               id="path56"
               style="fill:#dad9d9;fill-opacity:1;fill-rule:nonzero;stroke:none"
               d="m 123.5,72.221001 h 120 v -53 h -120 z" /><path
               id="path58"
               style="fill:none;stroke:#c8c7c7;stroke-width:1;stroke-linecap:butt;stroke-linejoin:miter;stroke-miterlimit:4;stroke-dasharray:none;stroke-opacity:1"
               d="m 123.5,72.221001 h 120 v -53 h -120" /><path
               id="path60"
               style="fill:none;stroke:#c8c7c7;stroke-width:1;stroke-linecap:butt;stroke-linejoin:miter;stroke-miterlimit:10;stroke-dasharray:none;stroke-opacity:1"
               d="m 124,71.721001 h 119 v -52 H 124 Z" /><path
               id="path62"
               style="fill:none;stroke:#231f20;stroke-width:1;stroke-linecap:butt;stroke-linejoin:miter;stroke-miterlimit:10;stroke-dasharray:none;stroke-opacity:1"
               d="m 124.5,71.221001 h 119" /><path
               id="path64"
               style="fill:#231f20;fill-opacity:1;fill-rule:evenodd;stroke:none"
               d="m 48,215.72202 2.25,-16.5 h -4.5 l 2.25,16.5" /><path
               id="path66"
               style="fill:#231f20;fill-opacity:1;fill-rule:nonzero;stroke:none"
               d="m 48,215.72202 h 0.25 l 2.25,-16.5 v -0.25 h -0.25 l -2.25,16.5" /><path
               id="path68"
               style="fill:none;stroke:#231f20;stroke-width:0.25;stroke-linecap:butt;stroke-linejoin:miter;stroke-miterlimit:10;stroke-dasharray:none;stroke-opacity:1"
               d="m 48,199.09702 h 2.5 m -4.75,0 h 2.5" /><path
               id="path70"
               style="fill:#231f20;fill-opacity:1;fill-rule:nonzero;stroke:none"
               d="m 48,215.72202 h 0.25 v -0.25 l -2.25,-16.5 h -0.25 v 0.25" /><path
               id="path72"
               style="fill:#231f20;fill-opacity:1;fill-rule:nonzero;stroke:none"
               d="m 48,215.72202 h 0.25 l 2.25,-16.5 v -0.25 h -0.25 l -2.25,16.5" /><path
               id="path74"
               style="fill:none;stroke:#231f20;stroke-width:0.25;stroke-linecap:butt;stroke-linejoin:miter;stroke-miterlimit:10;stroke-dasharray:none;stroke-opacity:1"
               d="m 48,199.09702 h 2.5 m -4.75,0 h 2.5" /><path
               id="path76"
               style="fill:#231f20;fill-opacity:1;fill-rule:nonzero;stroke:none"
               d="m 48,215.72202 h 0.25 v -0.25 l -2.25,-16.5 h -0.25 v 0.25" /><path
               id="path78"
               style="fill:none;stroke:#231f20;stroke-width:1;stroke-linecap:butt;stroke-linejoin:miter;stroke-miterlimit:10;stroke-dasharray:none;stroke-opacity:1"
               d="M 48,199.72202 V 6.2210002" /><path
               id="path80"
               style="fill:none;stroke:#231f20;stroke-width:0.5;stroke-linecap:butt;stroke-linejoin:miter;stroke-miterlimit:10;stroke-dasharray:3, 4;stroke-dashoffset:0;stroke-opacity:1"
               d="M 182,71.721001 H 47" /><text
               id="text84"
               style="font-variant:normal;font-weight:normal;font-size:12px;font-family:CMMI12;-inkscape-font-specification:CMMI12;writing-mode:lr-tb;fill:#231f20;fill-opacity:1;fill-rule:nonzero;stroke:none"
               transform="matrix(1,0,0,-1,342.5,10.722)"><tspan
                 id="tspan82"
                 y="0"
                 x="0">t</tspan></text>
<path
               id="path86"
               style="fill:#888687;fill-opacity:1;fill-rule:nonzero;stroke:none"
               d="m 126.5,131.222 h 62 V 19.22099 h -62 z" /><path
               id="path88"
               style="fill:#918f90;fill-opacity:1;fill-rule:nonzero;stroke:none"
               d="m 127,130.722 h 61 V 19.72099 h -61 z" /><path
               id="path90"
               style="fill:none;stroke:#918f90;stroke-width:1;stroke-linecap:butt;stroke-linejoin:miter;stroke-miterlimit:10;stroke-dasharray:none;stroke-opacity:1"
               d="m 127,130.722 h 61 V 19.720993 h -61 z" /><path
               id="path92"
               style="fill:#c8c7c7;fill-opacity:1;fill-rule:nonzero;stroke:none"
               d="m 125.5,194.22202 h 24 V 19.22101 h -24 z" /><path
               id="path94"
               style="fill:none;stroke:#c8c7c7;stroke-width:1;stroke-linecap:butt;stroke-linejoin:miter;stroke-miterlimit:4;stroke-dasharray:none;stroke-opacity:1"
               d="m 125.5,194.22202 h 24 V 19.221001 h -24" /><path
               id="path96"
               style="fill:#5a5758;fill-opacity:1;fill-rule:nonzero;stroke:none"
               d="m 126,193.72202 h 23 V 19.72101 h -23 z" /><path
               id="path98"
               style="fill:none;stroke:#5a5758;stroke-width:1;stroke-linecap:butt;stroke-linejoin:miter;stroke-miterlimit:10;stroke-dasharray:none;stroke-opacity:1"
               d="m 126,193.72202 h 23 V 19.721008 h -23 z" /><text
               id="text102"
               style="font-variant:normal;font-weight:normal;font-size:12px;font-family:CMR12;-inkscape-font-specification:CMR12;writing-mode:lr-tb;fill:#231f20;fill-opacity:1;fill-rule:nonzero;stroke:none"
               transform="matrix(1,0,0,-1,222,150.72169)"><tspan
                 id="tspan100"
                 y="0"
                 x="0 6.5279999 11.748 16.968 21.540001 26.76 32.639999 37.271999 40.535999 47.063999">decreasing</tspan></text>
<text
               id="text106"
               style="font-style:italic;font-variant:normal;font-size:12px;font-family:Times;-inkscape-font-specification:Times-Italic;writing-mode:lr-tb;fill:#231f20;fill-opacity:1;fill-rule:nonzero;stroke:none"
               transform="matrix(1,0,0,-1,279.2496,150.72169)"><tspan
                 id="tspan104"
                 y="0"
                 x="0">a</tspan></text>
<path
               id="path108"
               style="fill:none;stroke:#231f20;stroke-width:1;stroke-linecap:butt;stroke-linejoin:miter;stroke-miterlimit:10;stroke-dasharray:none;stroke-opacity:1"
               d="M 148.5,129.722 H 188 m -62,63.50002 h 22.5" /><path
               id="path110"
               style="fill:#231f20;fill-opacity:1;fill-rule:nonzero;stroke:none"
               d="m 256.746,61.917004 -82,136.001006" /><path
               id="path112"
               style="fill:none;stroke:#231f20;stroke-width:0.5;stroke-linecap:butt;stroke-linejoin:miter;stroke-miterlimit:4;stroke-dasharray:none;stroke-opacity:1"
               d="m 256.746,61.917004 -82,136.001006" /><path
               id="path114"
               style="fill:#231f20;fill-opacity:1;fill-rule:nonzero;stroke:none"
               d="M 175.00801,197.47801 174.03,195.61 l -0.066,0.032 -0.51799,3.11798 c -0.335,0.99202 -0.671,1.98502 -1.007,2.97802 0.72099,-0.76 1.44299,-1.521 2.164,-2.28099 l 2.51599,-1.91301 0.005,-0.069 -2.116,0.003" /><path
               id="path116"
               style="fill:none;stroke:#231f20;stroke-width:1;stroke-linecap:butt;stroke-linejoin:miter;stroke-miterlimit:4;stroke-dasharray:none;stroke-opacity:1"
               d="M 175.00801,197.47801 174.03,195.61 l -0.066,0.032 -0.51799,3.11798 c -0.335,0.99202 -0.671,1.98502 -1.007,2.97802 0.72099,-0.76 1.44299,-1.521 2.164,-2.28099 l 2.51599,-1.91301 0.005,-0.069 -2.116,0.003 z" /><text
               id="text120"
               style="font-variant:normal;font-weight:normal;font-size:11.95500088px;font-family:CMMI12;-inkscape-font-specification:CMMI12;writing-mode:lr-tb;fill:#231f20;fill-opacity:1;fill-rule:nonzero;stroke:none"
               transform="matrix(1,0,0,-1,56.173599,210.22169)"><tspan
                 id="tspan118"
                 y="0"
                 x="0">f</tspan></text>
<text
               id="text124"
               style="font-variant:normal;font-weight:normal;font-size:11.95500088px;font-family:CMR12;-inkscape-font-specification:CMR12;writing-mode:lr-tb;fill:#231f20;fill-opacity:1;fill-rule:nonzero;stroke:none"
               transform="matrix(1,0,0,-1,63.219875,210.22169)"><tspan
                 id="tspan122"
                 y="0"
                 x="0">(</tspan></text>
<text
               id="text128"
               style="font-variant:normal;font-weight:normal;font-size:11.95500088px;font-family:CMMI12;-inkscape-font-specification:CMMI12;writing-mode:lr-tb;fill:#231f20;fill-opacity:1;fill-rule:nonzero;stroke:none"
               transform="matrix(1,0,0,-1,67.771141,210.22169)"><tspan
                 id="tspan126"
                 y="0"
                 x="0">t</tspan></text>
<text
               id="text132"
               style="font-variant:normal;font-weight:normal;font-size:11.95500088px;font-family:CMR12;-inkscape-font-specification:CMR12;writing-mode:lr-tb;fill:#231f20;fill-opacity:1;fill-rule:nonzero;stroke:none"
               transform="matrix(1,0,0,-1,71.999626,210.22169)"><tspan
                 id="tspan130"
                 y="0"
                 x="0">)</tspan></text>
<text
               id="text136"
               style="font-variant:normal;font-weight:normal;font-size:11.95500088px;font-family:CMMI12;-inkscape-font-specification:CMMI12;writing-mode:lr-tb;fill:#231f20;fill-opacity:1;fill-rule:nonzero;stroke:none"
               transform="matrix(1,0,0,-1,117.94628,3.0020826)"><tspan
                 id="tspan134"
                 y="0"
                 x="0">d</tspan></text>
<text
               id="text140"
               style="font-variant:normal;font-weight:normal;font-size:11.95500088px;font-family:CMMI12;-inkscape-font-specification:CMMI12;writing-mode:lr-tb;fill:#231f20;fill-opacity:1;fill-rule:nonzero;stroke:none"
               transform="matrix(1,0,0,-1,227.73743,3.0020826)"><tspan
                 id="tspan138"
                 y="0"
                 x="0">d</tspan></text>
<text
               id="text144"
               style="font-variant:normal;font-weight:normal;font-size:11.95500088px;font-family:CMR12;-inkscape-font-specification:CMR12;writing-mode:lr-tb;fill:#231f20;fill-opacity:1;fill-rule:nonzero;stroke:none"
               transform="matrix(1,0,0,-1,236.47414,3.0020826)"><tspan
                 id="tspan142"
                 y="0"
                 x="0">+</tspan></text>
<text
               id="text148"
               style="font-variant:normal;font-weight:normal;font-size:11.95500088px;font-family:CMMI12;-inkscape-font-specification:CMMI12;writing-mode:lr-tb;fill:#231f20;fill-opacity:1;fill-rule:nonzero;stroke:none"
               transform="matrix(1,0,0,-1,248.23547,3.0020826)"><tspan
                 id="tspan146"
                 y="0"
                 x="0">a</tspan></text>
<text
               id="text152"
               style="font-variant:normal;font-weight:normal;font-size:11.95500088px;font-family:CMR12;-inkscape-font-specification:CMR12;writing-mode:lr-tb;fill:#231f20;fill-opacity:1;fill-rule:nonzero;stroke:none"
               transform="matrix(1,0,0,-1,33.575066,77.8368)"><tspan
                 id="tspan150"
                 y="0"
                 x="0">1</tspan></text>
<path
               id="path154"
               style="fill:#231f20;fill-opacity:1;fill-rule:nonzero;stroke:none"
               d="m 33.43,72.937004 h 6.145001 V 72.539001 H 33.43 Z" /><text
               id="text158"
               style="font-variant:normal;font-weight:normal;font-size:11.95500088px;font-family:CMMI12;-inkscape-font-specification:CMMI12;writing-mode:lr-tb;fill:#231f20;fill-opacity:1;fill-rule:nonzero;stroke:none"
               transform="matrix(1,0,0,-1,33.429897,61.549004)"><tspan
                 id="tspan156"
                 y="0"
                 x="0">a</tspan></text>
</g></g></g></g></g></svg>