<?xml version="1.0" encoding="UTF-8" standalone="no"?>
<svg
   xmlns:dc="http://purl.org/dc/elements/1.1/"
   xmlns:cc="http://creativecommons.org/ns#"
   xmlns:rdf="http://www.w3.org/1999/02/22-rdf-syntax-ns#"
   xmlns:svg="http://www.w3.org/2000/svg"
   xmlns="http://www.w3.org/2000/svg"
   viewBox="0 0 564 145.33333"
   height="145.33333"
   width="564"
   xml:space="preserve"
   id="svg2"
   version="1.1"><metadata
     id="metadata8"><rdf:RDF><cc:Work
         rdf:about=""><dc:format>image/svg+xml</dc:format><dc:type
           rdf:resource="http://purl.org/dc/dcmitype/StillImage" /></cc:Work></rdf:RDF></metadata><defs
     id="defs6"><clipPath
       id="clipPath24"
       clipPathUnits="userSpaceOnUse"><path
         id="path22"
         d="M 0,0 H 423 V 109 H 0 Z" /></clipPath></defs><g
     transform="matrix(1.3333333,0,0,-1.3333333,0,145.33333)"
     id="g10"><g
       id="g12" /><g
       id="g14" /><g
       id="g16"><g
         id="g18"><g
           clip-path="url(#clipPath24)"
           id="g20"><g
             id="g26" /><g
             id="g28"><path
               id="path30"
               style="fill:none;stroke:#000000;stroke-width:0.5;stroke-linecap:butt;stroke-linejoin:round;stroke-miterlimit:10;stroke-dasharray:none;stroke-opacity:1"
               d="m 141.608,17.153 h 6 m -3,3.000002 V 14.153001 M 289.27402,67.986 l 0.75,0.084 0.66699,0.083 h 0.75 l 0.75,0.083 0.66699,0.084 0.75,0.083 0.66602,0.083 0.75,0.084 0.75,0.083 0.66699,0.083 h 0.75 l 0.75,0.084 0.66699,0.083 1.5,0.167 0.66602,0.083 h 0.75 l 0.66699,0.083 0.75,0.084 0.75,0.083 0.66699,0.083 h 0.75 l 0.75,0.084 0.66602,0.083 0.75,0.083 h 0.75 l 0.66699,0.083 0.75,0.084 h 0.75 l 0.66699,0.083 0.75,0.083 0.66602,0.084 h 0.75 l 0.75,0.083 0.66699,0.083 h 0.75 l 0.75,0.084 h 0.66699 l 0.75,0.083 0.75,0.083 h 0.66602 l 0.75,0.084 0.66699,0.083 h 0.75 l 0.75,0.083 h 0.66699 l 0.75,0.084 0.75,0.083 h 0.66602 l 0.75,0.083 h 0.75 l 0.66699,0.084 h 0.75 l 0.66699,0.083 0.75,0.083 h 0.75 l 0.66602,0.084 h 0.75 l 0.75,0.083 h 0.66699 l 0.75,0.083 h 0.75 l 0.66699,0.084 h 0.75 l 0.75,0.083 h 0.66602 l 0.75,0.083 h 0.66699 l 0.75,0.083 h 0.75 l 0.66699,0.084 h 0.75 l 0.75,0.083 h 1.41702 l 0.75,0.083 h 0.66599 l 0.75,0.084 h 0.66699 l 0.75,0.083 h 1.41702 l 0.75,0.083 h 0.75 l 0.66599,0.084 h 1.5 l 0.66699,0.083 h 0.75 l 0.66702,0.083 h 1.5 l 0.66599,0.084 h 0.75 l 0.75,0.083 h 1.41702 l 0.75,0.083 h 0.66699 m -142.501,-18.248996 0.66699,0.25 0.75,0.166996 0.75,0.25 0.66701,0.166004 0.75,0.25 0.75,0.167 0.666,0.166996 0.75,0.25 0.75,0.166004 0.66699,0.167 0.75,0.25 0.66701,0.166996 0.75,0.166004 0.75,0.167 0.666,0.25 1.5,0.333 0.66699,0.167 1.5,0.333 0.66701,0.167 0.75,0.166996 0.666,0.166004 0.75,0.167 0.75,0.166996 0.66699,0.166004 1.5,0.333996 0.66701,0.166004 0.75,0.167 0.75,0.166996 0.666,0.166004 0.75,0.084 0.66699,0.166004 0.75,0.167 0.75,0.166996 0.66701,0.166004 0.75,0.084 0.75,0.166004 0.666,0.167 0.75,0.166996 0.75,0.083 0.66699,0.166996 0.75,0.166004 0.75,0.084 0.66701,0.166004 0.75,0.084 0.666,0.166004 0.75,0.084 0.75,0.166004 0.66699,0.167 0.75,0.083 0.75,0.167 0.66699,0.083 0.75,0.167 0.75,0.083 0.66602,0.084 0.75,0.166004 0.66699,0.084 0.75,0.166 0.75,0.084 0.66699,0.083 0.75,0.167 0.75,0.083 0.66602,0.083 0.75,0.167 0.75,0.083 0.66699,0.084 0.75,0.166 0.66699,0.084 0.75,0.083 0.75,0.083 0.66702,0.167 1.5,0.167 0.66599,0.083 0.75,0.083 0.75,0.167 0.66699,0.083 0.75,0.084 0.66702,0.083 0.75,0.083 0.75,0.084 0.66599,0.083 0.75,0.083 0.75,0.167 0.66699,0.083 1.5,0.167 0.66702,0.083 0.75,0.083 0.75,0.084 0.66599,0.083 0.75,0.083 0.66699,0.084 0.75,0.083 0.75,0.083 0.66702,0.084 0.75,0.083" /><path
               id="path32"
               style="fill:none;stroke:#000000;stroke-width:0.5;stroke-linecap:butt;stroke-linejoin:round;stroke-miterlimit:10;stroke-dasharray:none;stroke-opacity:1"
               d="m 146.774,18.903002 0.66701,0.582998 0.75,0.5 0.666,0.584 0.75,0.583002 0.75,0.5 0.66699,0.583 1.5,1 0.66701,0.583998 0.75,0.5 0.75,0.5 0.666,0.5 0.75,0.5 0.66699,0.5 1.5,1 0.66701,0.5 0.75,0.417001 0.75,0.5 0.666,0.5 0.75,0.416001 0.75,0.5 0.66699,0.416998 0.75,0.5 0.66701,0.417001 1.5,0.832999 0.666,0.5 0.75,0.417003 0.75,0.415997 0.66699,0.417 1.5,0.833 0.66701,0.417 0.75,0.416 0.75,0.334 0.666,0.416 0.75,0.417 0.66699,0.333 1.5,0.834 0.66701,0.333004 0.75,0.416996 0.75,0.333004 0.66699,0.332996 0.75,0.417004 0.75,0.332996 0.666,0.334 0.75,0.333004 0.66701,0.416996 0.75,0.333004 0.75,0.333999 0.66699,0.332997 0.75,0.333004 0.75,0.333999 0.666,0.332997 0.75,0.333004 0.75,0.25 0.66701,0.333999 0.75,0.332997 0.66699,0.333004 0.75,0.25 0.75,0.333999 0.666,0.332997 0.75,0.25 0.75,0.333004 0.66701,0.25 0.75,0.333999 0.75,0.25 0.66701,0.332997 0.75,0.25 0.75,0.25 0.66598,0.333004 0.75,0.25 0.66701,0.25 0.75,0.25 0.75,0.333999 0.66701,0.249001 0.75,0.25 0.75,0.25 0.666,0.25 0.75,0.25 0.75,0.25 0.66699,0.25 0.75,0.25 0.66701,0.25 0.75,0.25 0.75,0.25 0.666,0.167 0.75,0.25 0.75,0.25 0.66699,0.25 0.75,0.166996 0.75,0.25 0.66701,0.25 0.75,0.166004 0.666,0.25 0.75,0.25 0.75,0.167" /><path
               id="path34"
               style="fill:none;stroke:#000000;stroke-width:0.5;stroke-linecap:butt;stroke-linejoin:round;stroke-miterlimit:10;stroke-dasharray:none;stroke-opacity:1"
               d="M 0.77400005,17.986 H 403.77402" /><path
               id="path36"
               style="fill:#000000;fill-opacity:1;fill-rule:nonzero;stroke:none"
               d="m 403.26401,17.986 -1.095,1.802 0.062,0.041 2.93701,-1.166999 c 1.02399,-0.225001 2.047,-0.449999 3.07098,-0.676001 -1.02398,-0.224998 -2.04699,-0.449999 -3.07098,-0.674999 l -2.93701,-1.167 -0.062,0.031 1.095,1.810999" /><path
               id="path38"
               style="fill:none;stroke:#000000;stroke-width:0.5;stroke-linecap:butt;stroke-linejoin:round;stroke-miterlimit:10;stroke-dasharray:none;stroke-opacity:1"
               d="M 143.774,0.98600006 V 101.98601" /><path
               id="path40"
               style="fill:#000000;fill-opacity:1;fill-rule:nonzero;stroke:none"
               d="m 143.774,101.47601 -1.80099,-1.09501 -0.041,0.062 1.167,2.93699 c 0.225,1.02401 0.45,2.047 0.67499,3.07 0.226,-1.023 0.45101,-2.04599 0.676,-3.07 l 1.167,-2.93699 -0.031,-0.062 -1.81201,1.09501" /><path
               id="path42"
               style="fill:none;stroke:#000000;stroke-width:0.5;stroke-linecap:butt;stroke-linejoin:round;stroke-miterlimit:4;stroke-dasharray:3;stroke-dashoffset:0;stroke-opacity:1"
               d="M 143.774,77.986 H 416.77402" /><text
               id="text46"
               style="font-variant:normal;font-weight:normal;font-size:12px;font-family:CMMI12;-inkscape-font-specification:CMMI12;writing-mode:lr-tb;fill:#000000;fill-opacity:1;fill-rule:nonzero;stroke:none"
               transform="matrix(1,0,0,-1,147.7744,97.986298)"><tspan
                 id="tspan44"
                 y="0"
                 x="0">q</tspan></text>
<text
               id="text50"
               style="font-style:italic;font-variant:normal;font-size:12px;font-family:Arial;-inkscape-font-specification:Arial-ItalicMT;writing-mode:lr-tb;fill:#000000;fill-opacity:1;fill-rule:nonzero;stroke:none"
               transform="matrix(1,0,0,-1,152.9848,97.986298)"><tspan
                 id="tspan48"
                 y="0"
                 x="0">(</tspan></text>
<text
               id="text54"
               style="font-variant:normal;font-weight:normal;font-size:12px;font-family:CMMI12;-inkscape-font-specification:CMMI12;writing-mode:lr-tb;fill:#000000;fill-opacity:1;fill-rule:nonzero;stroke:none"
               transform="matrix(1,0,0,-1,156.9808,97.986298)"><tspan
                 id="tspan52"
                 y="0"
                 x="0">t</tspan></text>
<text
               id="text58"
               style="font-style:italic;font-variant:normal;font-size:12px;font-family:Arial;-inkscape-font-specification:Arial-ItalicMT;writing-mode:lr-tb;fill:#000000;fill-opacity:1;fill-rule:nonzero;stroke:none"
               transform="matrix(1,0,0,-1,161.224,97.986298)"><tspan
                 id="tspan56"
                 y="0"
                 x="0">)</tspan></text>
<text
               id="text62"
               style="font-variant:normal;font-weight:normal;font-size:12px;font-family:CMMI12;-inkscape-font-specification:CMMI12;writing-mode:lr-tb;fill:#000000;fill-opacity:1;fill-rule:nonzero;stroke:none"
               transform="matrix(1,0,0,-1,417.77441,13.986298)"><tspan
                 id="tspan60"
                 y="0"
                 x="0">t</tspan></text>
<text
               id="text66"
               style="font-variant:normal;font-weight:normal;font-size:12px;font-family:CMMI12;-inkscape-font-specification:CMMI12;writing-mode:lr-tb;fill:#000000;fill-opacity:1;fill-rule:nonzero;stroke:none"
               transform="matrix(1,0,0,-1,120.77441,75.986694)"><tspan
                 id="tspan64"
                 y="0"
                 x="0 5.6760001">v </tspan></text>
<text
               id="text70"
               style="font-style:italic;font-variant:normal;font-size:7px;font-family:Times;-inkscape-font-specification:Times-Italic;writing-mode:lr-tb;fill:#000000;fill-opacity:1;fill-rule:nonzero;stroke:none"
               transform="matrix(1,0,0,-1,125.3333,72.333298)"><tspan
                 id="tspan68"
                 y="0"
                 x="0">0</tspan></text>
<text
               id="text74"
               style="font-variant:normal;font-weight:normal;font-size:12px;font-family:CMMI12;-inkscape-font-specification:CMMI12;writing-mode:lr-tb;fill:#000000;fill-opacity:1;fill-rule:nonzero;stroke:none"
               transform="matrix(1,0,0,-1,131,75)"><tspan
                 id="tspan72"
                 y="0"
                 x="0">C</tspan></text>
</g></g></g></g></g></svg>