<?xml version="1.0" encoding="UTF-8" standalone="no"?>
<svg
   xmlns:dc="http://purl.org/dc/elements/1.1/"
   xmlns:cc="http://creativecommons.org/ns#"
   xmlns:rdf="http://www.w3.org/1999/02/22-rdf-syntax-ns#"
   xmlns:svg="http://www.w3.org/2000/svg"
   xmlns="http://www.w3.org/2000/svg"
   viewBox="0 0 517.33331 206.66667"
   height="206.66667"
   width="517.33331"
   xml:space="preserve"
   id="svg2"
   version="1.1"><metadata
     id="metadata8"><rdf:RDF><cc:Work
         rdf:about=""><dc:format>image/svg+xml</dc:format><dc:type
           rdf:resource="http://purl.org/dc/dcmitype/StillImage" /></cc:Work></rdf:RDF></metadata><defs
     id="defs6"><clipPath
       id="clipPath24"
       clipPathUnits="userSpaceOnUse"><path
         id="path22"
         d="M 0,0 H 388 V 155 H 0 Z" /></clipPath></defs><g
     transform="matrix(1.3333333,0,0,-1.3333333,0,206.66667)"
     id="g10"><g
       id="g12" /><g
       id="g14" /><g
       id="g16"><g
         id="g18"><g
           clip-path="url(#clipPath24)"
           id="g20"><g
             id="g26" /><g
             id="g28"><text
               id="text32"
               style="font-variant:normal;font-weight:normal;font-size:11.95500088px;font-family:CMMI12;-inkscape-font-specification:CMMI12;writing-mode:lr-tb;fill:#231f20;fill-opacity:1;fill-rule:nonzero;stroke:none"
               transform="matrix(1,0,0,-1,91.305099,49.3979)"><tspan
                 id="tspan30"
                 y="0"
                 x="0">p</tspan></text>
<path
               id="path34"
               style="fill:#231f20;fill-opacity:1;fill-rule:nonzero;stroke:none"
               d="m 91.305008,45.878002 h 5.875 v -0.397999 h -5.875 z" /><text
               id="text38"
               style="font-variant:normal;font-weight:normal;font-size:11.95500088px;font-family:CMMI12;-inkscape-font-specification:CMMI12;writing-mode:lr-tb;fill:#231f20;fill-opacity:1;fill-rule:nonzero;stroke:none"
               transform="matrix(1,0,0,-1,80.731094,94.4104)"><tspan
                 id="tspan36"
                 y="0"
                 x="0">q</tspan></text>
<path
               id="path40"
               style="fill:#231f20;fill-opacity:1;fill-rule:nonzero;stroke:none"
               d="m 80.731003,90.889999 h 5.619003 v -0.398003 h -5.619003 z" /><text
               id="text44"
               style="font-variant:normal;font-weight:normal;font-size:11.95500088px;font-family:CMMI12;-inkscape-font-specification:CMMI12;writing-mode:lr-tb;fill:#231f20;fill-opacity:1;fill-rule:nonzero;stroke:none"
               transform="matrix(1,0,0,-1,135.5444,84.397896)"><tspan
                 id="tspan42"
                 y="0"
                 x="0">p</tspan></text>
<path
               id="path46"
               style="fill:#231f20;fill-opacity:1;fill-rule:nonzero;stroke:none"
               d="m 135.54401,80.878006 h 5.87601 v -0.398003 h -5.87601 z" /><text
               id="text50"
               style="font-variant:normal;font-weight:normal;font-size:11.95500088px;font-family:CMR12;-inkscape-font-specification:CMR12;writing-mode:lr-tb;fill:#231f20;fill-opacity:1;fill-rule:nonzero;stroke:none"
               transform="matrix(1,0,0,-1,144.0764,84.397896)"><tspan
                 id="tspan48"
                 y="0"
                 x="0">+</tspan></text>
<text
               id="text54"
               style="font-variant:normal;font-weight:normal;font-size:11.95500088px;font-family:CMMI12;-inkscape-font-specification:CMMI12;writing-mode:lr-tb;fill:#231f20;fill-opacity:1;fill-rule:nonzero;stroke:none"
               transform="matrix(1,0,0,-1,155.83893,84.397896)"><tspan
                 id="tspan52"
                 y="0"
                 x="0">q</tspan></text>
<path
               id="path56"
               style="fill:#231f20;fill-opacity:1;fill-rule:nonzero;stroke:none"
               d="m 155.83801,80.878006 h 5.619 v -0.398003 h -5.619 z" /><text
               id="text60"
               style="font-variant:normal;font-weight:normal;font-size:11.95500088px;font-family:CMMI12;-inkscape-font-specification:CMMI12;writing-mode:lr-tb;fill:#231f20;fill-opacity:1;fill-rule:nonzero;stroke:none"
               transform="matrix(1,0,0,-1,167.83009,31.3354)"><tspan
                 id="tspan58"
                 y="0"
                 x="0">x</tspan></text>
<text
               id="text64"
               style="font-variant:normal;font-weight:normal;font-size:11.95500088px;font-family:CMMI12;-inkscape-font-specification:CMMI12;writing-mode:lr-tb;fill:#231f20;fill-opacity:1;fill-rule:nonzero;stroke:none"
               transform="matrix(1,0,0,-1,51.688454,112.33531)"><tspan
                 id="tspan62"
                 y="0"
                 x="0">y</tspan></text>
<text
               id="text68"
               style="font-variant:normal;font-weight:normal;font-size:11.95500088px;font-family:CMR12;-inkscape-font-specification:CMR12;writing-mode:lr-tb;fill:#231f20;fill-opacity:1;fill-rule:nonzero;stroke:none"
               transform="matrix(1,0,0,-1,92.530319,3.8353128)"><tspan
                 id="tspan66"
                 y="0"
                 x="0">v</tspan></text>
<text
               id="text72"
               style="font-variant:normal;font-weight:normal;font-size:11.95500088px;font-family:CMR12;-inkscape-font-specification:CMR12;writing-mode:lr-tb;fill:#231f20;fill-opacity:1;fill-rule:nonzero;stroke:none"
               transform="matrix(1,0,0,-1,98.38588,3.8353128)"><tspan
                 id="tspan70"
                 y="0"
                 x="0 5.2004256 10.400851 14.955707 20.813656">ector</tspan></text>
<text
               id="text76"
               style="font-variant:normal;font-weight:normal;font-size:11.95500088px;font-family:CMR12;-inkscape-font-specification:CMR12;writing-mode:lr-tb;fill:#231f20;fill-opacity:1;fill-rule:nonzero;stroke:none"
               transform="matrix(1,0,0,-1,127.6565,3.8353128)"><tspan
                 id="tspan74"
                 y="0"
                 x="0 5.8579507 12.361471 18.864992 22.116753 26.671608 29.923367 35.781319">addition</tspan></text>
<text
               id="text80"
               style="font-variant:normal;font-weight:normal;font-size:11.95500088px;font-family:CMMI12;-inkscape-font-specification:CMMI12;writing-mode:lr-tb;fill:#231f20;fill-opacity:1;fill-rule:nonzero;stroke:none"
               transform="matrix(1,0,0,-1,276.33246,93.335228)"><tspan
                 id="tspan78"
                 y="0"
                 x="0">w</tspan></text>
<text
               id="text84"
               style="font-variant:normal;font-weight:normal;font-size:11.95500088px;font-family:CMMI12;-inkscape-font-specification:CMMI12;writing-mode:lr-tb;fill:#231f20;fill-opacity:1;fill-rule:nonzero;stroke:none"
               transform="matrix(1,0,0,-1,288.22769,50.335484)"><tspan
                 id="tspan82"
                 y="0"
                 x="0">z</tspan></text>
<text
               id="text88"
               style="font-variant:normal;font-weight:normal;font-size:11.95500088px;font-family:CMMI12;-inkscape-font-specification:CMMI12;writing-mode:lr-tb;fill:#231f20;fill-opacity:1;fill-rule:nonzero;stroke:none"
               transform="matrix(1,0,0,-1,332.84256,79.492538)"><tspan
                 id="tspan86"
                 y="0"
                 x="0">z</tspan></text>
<text
               id="text92"
               style="font-variant:normal;font-weight:normal;font-size:11.95500088px;font-family:CMR12;-inkscape-font-specification:CMR12;writing-mode:lr-tb;fill:#231f20;fill-opacity:1;fill-rule:nonzero;stroke:none"
               transform="matrix(1,0,0,-1,341.4693,79.492538)"><tspan
                 id="tspan90"
                 y="0"
                 x="0">+</tspan></text>
<text
               id="text96"
               style="font-variant:normal;font-weight:normal;font-size:11.95500088px;font-family:CMMI12;-inkscape-font-specification:CMMI12;writing-mode:lr-tb;fill:#231f20;fill-opacity:1;fill-rule:nonzero;stroke:none"
               transform="matrix(1,0,0,-1,353.23181,79.492538)"><tspan
                 id="tspan94"
                 y="0"
                 x="0">w</tspan></text>
<text
               id="text100"
               style="font-variant:normal;font-weight:normal;font-size:11.95500088px;font-family:CMR12;-inkscape-font-specification:CMR12;writing-mode:lr-tb;fill:#231f20;fill-opacity:1;fill-rule:nonzero;stroke:none"
               transform="matrix(1,0,0,-1,281.38943,5.8353863)"><tspan
                 id="tspan98"
                 y="0"
                 x="0 5.2004256 11.058376 20.813656 27.317177 30.568937 35.769363">complex</tspan></text>
<text
               id="text104"
               style="font-variant:normal;font-weight:normal;font-size:11.95500088px;font-family:CMR12;-inkscape-font-specification:CMR12;writing-mode:lr-tb;fill:#231f20;fill-opacity:1;fill-rule:nonzero;stroke:none"
               transform="matrix(1,0,0,-1,327.24164,5.8353863)"><tspan
                 id="tspan102"
                 y="0"
                 x="0 5.8579507 12.361471 18.864992 22.116753 26.671608 29.923367 35.781319">addition</tspan></text>
<path
               id="path106"
               style="fill:#231f20;fill-opacity:1;fill-rule:nonzero;stroke:none"
               d="M 0.28800002,41.272003 H 164.98701" /><path
               id="path108"
               style="fill:#231f20;fill-opacity:1;fill-rule:nonzero;stroke:none"
               d="m 164.37502,41.272003 -1.31402,2.161999 0.074,0.049 3.525,-1.400002 c 1.228,-0.269996 2.45601,-0.540996 3.68401,-0.810997 -1.228,-0.27 -2.45601,-0.540001 -3.68401,-0.811001 l -3.52499,-1.400001 -0.074,0.037 1.31402,2.174" /><path
               id="path110"
               style="fill:#231f20;fill-opacity:1;fill-rule:nonzero;stroke:none"
               d="M 61.188004,26.072001 V 107.672" /><path
               id="path112"
               style="fill:#231f20;fill-opacity:1;fill-rule:nonzero;stroke:none"
               d="m 61.188004,107.06 -2.162003,-1.314 -0.049,0.073 1.400002,3.52499 c 0.27,1.22901 0.540001,2.457 0.811001,3.68501 0.27,-1.22801 0.54,-2.456 0.809997,-3.68501 l 1.400002,-3.52499 -0.037,-0.073 -2.173,1.314" /><text
               id="text116"
               style="font-variant:normal;font-weight:normal;font-size:11.95500088px;font-family:CMR12;-inkscape-font-specification:CMR12;writing-mode:lr-tb;fill:#231f20;fill-opacity:1;fill-rule:nonzero;stroke:none"
               transform="matrix(1,0,0,-1,51.734299,32.128098)"><tspan
                 id="tspan114"
                 y="0"
                 x="0">0</tspan></text>
<path
               id="path118"
               style="fill:#231f20;fill-opacity:1;fill-rule:nonzero;stroke:none"
               d="M 101.021,63.289997 61.074001,41.299004" /><path
               id="path120"
               style="fill:#231f20;fill-opacity:1;fill-rule:nonzero;stroke:none"
               d="m 78.238007,50.684002 -3.657006,2.098999 0.069,0.131 6.271003,0.789002 c 2.011002,0.592998 4.020996,1.185001 6.031998,1.778 -1.575996,-1.382 -3.152,-2.763001 -4.728996,-4.145001 l -4.021004,-4.876999 -0.137001,-0.006 0.172005,4.230999" /><path
               id="path122"
               style="fill:#231f20;fill-opacity:1;fill-rule:nonzero;stroke:none"
               d="M 114.148,132.77 61.481003,41.548" /><path
               id="path124"
               style="fill:#231f20;fill-opacity:1;fill-rule:nonzero;stroke:none"
               d="m 94.039001,97.853004 -4.214996,-0.096 -0.01,0.148002 4.959,3.920994 c 1.413002,1.547 2.826995,3.09501 4.240005,4.642 -0.633011,-1.99699 -1.267006,-3.99499 -1.900001,-5.99299 l -0.917,-6.255009 -0.113999,-0.076 -2.043007,3.708999" /><path
               id="path126"
               style="fill:#231f20;fill-opacity:1;fill-rule:nonzero;stroke:#000000;stroke-width:0.5;stroke-linecap:butt;stroke-linejoin:miter;stroke-miterlimit:4;stroke-dasharray:1, 1;stroke-dashoffset:0;stroke-opacity:1"
               d="" /><text
               id="text130"
               style="font-variant:normal;font-weight:normal;font-size:11.95500088px;font-family:CMMI12;-inkscape-font-specification:CMMI12;writing-mode:lr-tb;fill:#231f20;fill-opacity:1;fill-rule:nonzero;stroke:none"
               transform="matrix(1,0,0,-1,364.4747,31.0357)"><tspan
                 id="tspan128"
                 y="0"
                 x="0">x</tspan></text>
<text
               id="text134"
               style="font-variant:normal;font-weight:normal;font-size:11.95500088px;font-family:CMMI12;-inkscape-font-specification:CMMI12;writing-mode:lr-tb;fill:#231f20;fill-opacity:1;fill-rule:nonzero;stroke:none"
               transform="matrix(1,0,0,-1,248.33307,112.03561)"><tspan
                 id="tspan132"
                 y="0"
                 x="0">y</tspan></text>
<path
               id="path136"
               style="fill:#231f20;fill-opacity:1;fill-rule:nonzero;stroke:none"
               d="M 196.93201,40.972 H 361.63202" /><path
               id="path138"
               style="fill:#231f20;fill-opacity:1;fill-rule:nonzero;stroke:none"
               d="m 361.01999,40.972 -1.31397,2.162003 0.073,0.049 3.525,-1.400001 c 1.229,-0.270001 2.457,-0.539997 3.68499,-0.811001 -1.22799,-0.269997 -2.45599,-0.539997 -3.68499,-0.809997 l -3.525,-1.400002 -0.073,0.037 1.31397,2.172996" /><path
               id="path140"
               style="fill:#231f20;fill-opacity:1;fill-rule:nonzero;stroke:none"
               d="M 257.832,25.773001 V 107.372" /><path
               id="path142"
               style="fill:#231f20;fill-opacity:1;fill-rule:nonzero;stroke:none"
               d="m 257.832,106.75999 -2.16099,-1.31398 -0.05,0.074 1.40098,3.52501 c 0.27002,1.22799 0.54001,2.456 0.81,3.68399 0.27002,-1.22799 0.54102,-2.456 0.81101,-3.68399 l 1.39999,-3.52501 -0.037,-0.074 -2.17401,1.31398" /><text
               id="text146"
               style="font-variant:normal;font-weight:normal;font-size:11.95500088px;font-family:CMR12;-inkscape-font-specification:CMR12;writing-mode:lr-tb;fill:#231f20;fill-opacity:1;fill-rule:nonzero;stroke:none"
               transform="matrix(1,0,0,-1,248.37889,31.8284)"><tspan
                 id="tspan144"
                 y="0"
                 x="0">0</tspan></text>
<path
               id="path148"
               style="fill:#231f20;fill-opacity:1;fill-rule:nonzero;stroke:#000000;stroke-width:0.5;stroke-linecap:butt;stroke-linejoin:miter;stroke-miterlimit:4;stroke-dasharray:1, 1;stroke-dashoffset:0;stroke-opacity:1"
               d="" /><path
               id="path150"
               style="fill:#231f20;fill-opacity:1;fill-rule:nonzero;stroke:none"
               d="m 115.022,106.87401 -4.17699,0.575 0.014,0.147 5.518,3.08399 c 1.641,1.303 3.28199,2.607 4.92399,3.911 -0.94299,-1.872 -1.88599,-3.74399 -2.82799,-5.61599 l -1.89801,-6.03 -0.125,-0.057 -1.428,3.986" /><path
               id="path152"
               style="fill:#231f20;fill-opacity:1;fill-rule:nonzero;stroke:none"
               d="M 153.58501,154.56201 100.91901,63.34" /><path
               id="path154"
               style="fill:#231f20;fill-opacity:1;fill-rule:nonzero;stroke:none"
               d="m 114.216,132.58 39.94701,21.99101" /><path
               id="path156"
               style="fill:#231f20;fill-opacity:1;fill-rule:nonzero;stroke:none"
               d="M 61.198002,41.200001 153.21301,153.76601" /><path
               id="path158"
               style="fill:#ffffff;fill-opacity:1;fill-rule:nonzero;stroke:#000000;stroke-width:1;stroke-linecap:butt;stroke-linejoin:miter;stroke-miterlimit:4;stroke-dasharray:none;stroke-opacity:1"
               d="m 132.89801,84.659004 c -5.16701,5 -12.50001,2.833 -19.16701,4.333 -3.333,0.667 -7,2.5 -7.5,6.167" /><path
               id="path160"
               style="fill:#231f20;fill-opacity:1;fill-rule:nonzero;stroke:none"
               d="M 298.19601,62.771004 258.24902,40.781002" /><path
               id="path162"
               style="fill:#231f20;fill-opacity:1;fill-rule:nonzero;stroke:none"
               d="m 275.41302,50.165001 -3.656,2.100002 0.068,0.131001 6.27201,0.788997 c 2.01001,0.593003 4.01998,1.184998 6.031,1.778 -1.57602,-1.382 -3.15201,-2.763 -4.72803,-4.145 l -4.02197,-4.878002 -0.13699,-0.005 0.17199,4.23" /><path
               id="path164"
               style="fill:#231f20;fill-opacity:1;fill-rule:nonzero;stroke:none"
               d="M 311.32303,132.252 258.65601,41.029999" /><path
               id="path166"
               style="fill:#231f20;fill-opacity:1;fill-rule:nonzero;stroke:none"
               d="m 291.21402,97.335007 -4.215,-0.096 -0.009,0.146996 4.95804,3.921007 c 1.41397,1.54799 2.82699,3.096 4.23999,4.64299 -0.633,-1.998 -1.267,-3.996 -1.9,-5.993998 l -0.91702,-6.253998 -0.11398,-0.076 -2.043,3.709" /><path
               id="path168"
               style="fill:#231f20;fill-opacity:1;fill-rule:nonzero;stroke:none"
               d="m 312.19702,106.356 -4.17703,0.574 0.014,0.147 5.51797,3.085 c 1.64102,1.303 3.28302,2.607 4.92401,3.91001 -0.94299,-1.87201 -1.88501,-3.74401 -2.828,-5.616 L 313.75,102.427 l -0.125,-0.057 -1.42798,3.986" /><path
               id="path170"
               style="fill:#231f20;fill-opacity:1;fill-rule:nonzero;stroke:none"
               d="M 350.75998,154.04301 298.09402,62.822002" /><path
               id="path172"
               style="fill:#231f20;fill-opacity:1;fill-rule:nonzero;stroke:none"
               d="m 311.39102,132.06201 39.94699,21.991" /><path
               id="path174"
               style="fill:#231f20;fill-opacity:1;fill-rule:nonzero;stroke:none"
               d="M 258.37302,40.682003 350.38803,153.248" /><path
               id="path176"
               style="fill:#ffffff;fill-opacity:1;fill-rule:nonzero;stroke:#000000;stroke-width:1;stroke-linecap:butt;stroke-linejoin:miter;stroke-miterlimit:4;stroke-dasharray:none;stroke-opacity:1"
               d="m 330.07303,84.141006 c -5.16702,5 -12.5,2.833001 -19.16702,4.333001 -3.33298,0.666999 -7,2.5 -7.5,6.166999" /></g></g></g></g></g></svg>