<?xml version="1.0" encoding="UTF-8" standalone="no"?>
<svg
   xmlns:dc="http://purl.org/dc/elements/1.1/"
   xmlns:cc="http://creativecommons.org/ns#"
   xmlns:rdf="http://www.w3.org/1999/02/22-rdf-syntax-ns#"
   xmlns:svg="http://www.w3.org/2000/svg"
   xmlns="http://www.w3.org/2000/svg"
   viewBox="0 0 208 150.66667"
   height="150.66667"
   width="208"
   xml:space="preserve"
   id="svg2"
   version="1.1"><metadata
     id="metadata8"><rdf:RDF><cc:Work
         rdf:about=""><dc:format>image/svg+xml</dc:format><dc:type
           rdf:resource="http://purl.org/dc/dcmitype/StillImage" /></cc:Work></rdf:RDF></metadata><defs
     id="defs6"><clipPath
       id="clipPath24"
       clipPathUnits="userSpaceOnUse"><path
         id="path22"
         d="M 0,0 H 156 V 113 H 0 Z" /></clipPath><clipPath
       id="clipPath34"
       clipPathUnits="userSpaceOnUse"><path
         id="path32"
         d="M 0,0.06000519 H 155.72801 V 112.34601 L 0,112.34601 Z" /></clipPath><clipPath
       id="clipPath52"
       clipPathUnits="userSpaceOnUse"><path
         id="path50"
         d="M 0,0.06000519 H 155.72801 V 112.34601 L 0,112.34601 Z" /></clipPath></defs><g
     transform="matrix(1.3333333,0,0,-1.3333333,0,150.66667)"
     id="g10"><g
       id="g12" /><g
       id="g14" /><g
       id="g16"><g
         id="g18"><g
           clip-path="url(#clipPath24)"
           id="g20"><g
             id="g26" /><g
             id="g28"><g
               clip-path="url(#clipPath34)"
               id="g30"><path
                 id="path36"
                 style="fill:none;stroke:#231f20;stroke-width:1;stroke-linecap:butt;stroke-linejoin:round;stroke-miterlimit:4;stroke-dasharray:none;stroke-opacity:1"
                 d="M 0,56.200001 H 1.8000001 M 0.90000004,57.101002 V 55.299999 M 18.601002,56.200001 H 20.4 m -0.9,0.901001 v -1.801003 m 36.301003,0.900002 h 1.799999 m -0.899998,0.901001 v -1.801003 m 17.699997,0.900002 h 1.800003 m -0.900001,0.901001 v -1.801003 m 17.675003,0.900002 h 1.799995 m -0.899994,0.901001 V 55.299999 M 111.577,56.200001 h 1.80001 m -0.9,0.901001 v -1.801003 m 17.69999,0.900002 h 1.80001 m -0.9,0.901001 V 55.299999 M 37.201,13.975 H 39 m -0.898998,0.900001 v -1.8 M 37.201,35.100002 H 39 M 38.101002,36 V 34.200001 M 37.201,77.326004 H 39 m -0.898998,0.900002 V 76.426003 M 37.201,98.451004 H 39 m -0.898998,0.900002 V 97.551003 M 0.90000004,56.200001 H 134.802" /></g></g><g
             id="g38"><path
               id="path40"
               style="fill:#231f20;fill-opacity:1;fill-rule:nonzero;stroke:none"
               d="m 133.78201,56.200001 -2.19,3.603 0.12199,0.082 5.875,-2.333 c 2.04801,-0.451 4.09501,-0.901001 6.141,-1.352001 -2.04599,-0.450001 -4.09299,-0.900002 -6.141,-1.350998 l -5.875,-2.333 -0.12199,0.061 2.19,3.622998" /><path
               id="path42"
               style="fill:none;stroke:#231f20;stroke-width:1;stroke-linecap:butt;stroke-linejoin:round;stroke-miterlimit:4;stroke-dasharray:none;stroke-opacity:1"
               d="M 38.101002,5.3670001 V 98.451004" /><path
               id="path44"
               style="fill:#231f20;fill-opacity:1;fill-rule:nonzero;stroke:none"
               d="m 38.101002,97.431007 -3.603001,-2.191009 -0.082,0.123009 2.334,5.875003 c 0.450001,2.04699 0.899998,4.094 1.351002,6.14199 0.450001,-2.04799 0.900001,-4.095 1.351001,-6.14199 l 2.333001,-5.875003 -0.061,-0.123009 -3.623001,2.191009" /></g><g
             id="g46"><g
               clip-path="url(#clipPath52)"
               id="g48"><path
                 id="path54"
                 style="fill:none;stroke:#231f20;stroke-width:1;stroke-linecap:butt;stroke-linejoin:round;stroke-miterlimit:4;stroke-dasharray:none;stroke-opacity:1"
                 d="m 85.326004,3.3 0.199997,0.2740001 0.175003,0.2759998 0.199997,0.3000002 0.175003,0.2999997 0.175003,0.3250003 0.199997,0.3500004 0.175003,0.3499999 0.199997,0.349 0.175003,0.3759999 0.199997,0.3999996 L 87.376007,7 l 0.199997,0.4250002 0.175003,0.4249997 0.174996,0.4500003 0.200004,0.4750004 0.174996,0.4749994 0.200004,0.5 0.174996,0.5 0.200004,0.525001 0.174996,0.524999 0.175003,0.549999 0.199997,0.575001 0.175003,0.575 0.199997,0.6 0.175003,0.625 0.199997,0.624999 0.175003,0.650001 0.199997,0.65 0.175003,0.675001 0.174995,0.700001 0.200005,0.699998 0.174995,0.724999 0.200005,0.750002 0.174995,0.749998 0.200005,0.775001 0.174995,0.800002 0.175003,0.799999 0.199997,0.824999 0.175003,0.85 0.199997,0.85 0.175003,0.875 0.199997,0.900002 0.175003,0.9 0.199997,0.924997 0.175003,0.950001 0.175003,0.975002 0.199997,0.974996 0.175003,1 0.199997,1 0.175003,1.051003 0.199997,1.049 0.175003,1.076 0.199997,1.074001 0.349999,2.249996 0.200004,1.125004 0.174996,1.175999 0.200004,1.174 0.174996,1.201 0.200004,1.225002 0.349999,2.5 0.199997,1.274998 0.175003,1.299 0.199997,1.326 0.175003,1.325001 0.199997,1.348999 0.175003,1.401001 0.199997,1.375 0.349998,2.848995 0.200005,1.475006 0.174995,1.476002 0.200005,1.499996 0.174995,1.5 0.200005,1.550003 0.174995,1.550003 0.175003,1.599999 0.201006,1.599998 0.17499,1.625 0.20001,1.625 0.17499,1.675003 0.20001,1.674996 0.17499,1.724998 0.20001,1.725006 0.17499,1.75 0.17501,1.774994 0.19999,1.800003 0.17501,1.800003 0.19999,1.849999 0.17501,1.849998 0.19999,1.900002 M 66.926003,24.975 67.101006,24.449999 67.301003,23.925001 67.476006,23.4 67.676003,22.875002 67.851006,22.35 l 0.174995,-0.524999 0.200005,-0.5 0.174995,-0.525 0.200005,-0.5 0.174995,-0.5 0.200005,-0.5 0.174995,-0.5 0.200005,-0.475 0.174995,-0.475001 0.175003,-0.5 0.199997,-0.475 0.175003,-0.475 0.199997,-0.45 0.175003,-0.475 0.199997,-0.449999 0.175003,-0.45 0.175003,-0.45 0.199997,-0.450001 0.175003,-0.425 0.199997,-0.424999 0.175003,-0.425 0.199997,-0.425001 0.175003,-0.399999 0.199997,-0.425001 0.349999,-0.800001 0.200004,-0.3749986 0.174996,-0.375 0.200004,-0.4000006 0.174996,-0.3500004 0.200004,-0.374999 0.174996,-0.3500004 0.175003,-0.3499994 0.199997,-0.3500004 0.175003,-0.3250003 0.199997,-0.3249998 0.175003,-0.3250003 0.199997,-0.3249993 0.175003,-0.3010001 0.199997,-0.2990003 0.175003,-0.2999997 0.174995,-0.2750006 0.200005,-0.2749996 0.174995,-0.2750001 0.200005,-0.25 0.174995,-0.25 L 76.601006,3.6499999 76.776001,3.4000001 76.976006,3.1750002 77.151001,2.95 77.326004,2.75 77.526001,2.55 77.701004,2.3499999 77.901001,2.1750002 78.076004,2 l 0.199997,-0.1759999 0.175003,-0.149 0.175003,-0.15 L 78.826004,1.4 79.001007,1.2750001 79.201004,1.15 79.376007,1.0250001 79.576004,0.95 l 0.175003,-0.10000003 0.199997,-0.0749999 0.175003,-0.075 0.174996,-0.05 0.200004,-0.05 0.174996,-0.05 0.200004,-0.025 h 0.174996 l 0.200004,-0.025 h 0.174996 l 0.175003,0.025 0.199997,0.025 0.175003,0.05 0.199997,0.05 0.175003,0.05 0.199997,0.075 0.175003,0.0749999 L 82.926003,0.95 l 0.175003,0.1 0.174995,0.1250001 0.200005,0.125 0.174995,0.1499998 L 83.851006,1.6 l 0.174995,0.1750001 0.200005,0.1749998 0.174995,0.2 0.200005,0.2 0.174995,0.2240002 L 84.951004,2.8 85.151001,3.05 85.326004,3.3" /><path
                 id="path56"
                 style="fill:none;stroke:#231f20;stroke-width:1;stroke-linecap:butt;stroke-linejoin:round;stroke-miterlimit:4;stroke-dasharray:none;stroke-opacity:1"
                 d="m 48.5,76.476006 0.201004,-0.349999 0.174,-0.350006 0.201,-0.349998 0.173996,-0.349999 0.201004,-0.375 0.174,-0.375 0.175999,-0.400001 0.198997,-0.375 0.176003,-0.400002 0.199001,-0.399994 0.175999,-0.400001 0.198997,-0.425003 0.176003,-0.424996 0.199001,-0.425003 0.175999,-0.425003 0.174999,-0.424995 0.200001,-0.450005 0.174999,-0.449997 0.200001,-0.449997 0.174999,-0.451004 0.200001,-0.448997 0.174999,-0.475007 0.174999,-0.474998 0.200001,-0.476006 0.174999,-0.473991 0.200001,-0.5 0.174999,-0.474998 0.200001,-0.5 0.174999,-0.5 0.200001,-0.500004 0.174999,-0.5 0.175003,-0.5 0.199997,-0.524998 0.175003,-0.526005 0.199997,-0.523994 0.175003,-0.500004 0.199997,-0.549999 0.175003,-0.526005 0.174999,-0.524994 0.200001,-0.549 0.174999,-0.525001 0.200001,-0.551003 0.174999,-0.548996 0.200001,-0.551002 0.174999,-0.549 0.200001,-0.549999 0.174999,-0.551003 0.175,-0.548996 0.2,-0.576 0.175,-0.549 0.2,-0.576004 0.175,-0.548996 0.2,-0.576 0.175,-0.574001 0.174999,-0.551003 0.200001,-0.574997 0.174999,-0.574001 0.200001,-0.576 0.174999,-0.573998 0.200001,-0.576 0.174999,-0.575001 0.200001,-0.574001 0.174999,-0.600998 0.174999,-0.575005 0.200001,-0.573997 0.175003,-0.576 0.199997,-0.573998 0.175003,-0.600002 0.199997,-0.576 0.175003,-0.573998 0.199997,-0.576004 0.175003,-0.599998 0.174999,-0.573998 0.200001,-0.576004 0.174999,-0.574997 0.200001,-0.574001 0.174999,-0.576 0.200001,-0.575001 0.174999,-0.574997 0.174999,-0.575001 0.200001,-0.574001 0.174999,-0.576 0.200001,-0.575001 0.174995,-0.575001 0.200005,-0.574997 0.174995,-0.549999 0.200005,-0.575003 0.174995,-0.573999 0.175004,-0.550999 0.199996,-0.550001 0.175004,-0.575003 0.199996,-0.549997 L 65.801003,28.25 66.000999,27.700001 66.176003,27.15 66.351006,26.6 66.551003,26.075001 66.726006,25.525002 66.926003,24.975 m -36.825001,34.450003 0.174,0.826 0.201,0.824002 0.173998,0.800998 0.201002,0.799 0.174,0.776001 0.201,0.75 0.173998,0.75 0.176002,0.723999 0.199,0.700996 0.176,0.700005 0.198996,0.674995 0.176002,0.674004 0.199002,0.624992 0.175998,0.651009 0.174,0.598999 0.201,0.600998 0.174,0.575005 0.201,0.573989 0.174,0.551011 0.201,0.549995 0.174,0.5 0.201,0.525002 0.174,0.474998 0.174999,0.5 0.200001,0.450005 0.175003,0.449997 0.199997,0.425003 0.174999,0.424995 0.200001,0.400002 0.175003,0.400001 0.199997,0.375 0.174999,0.375 0.176003,0.349999 0.199001,0.325004 0.175999,0.324997 0.200001,0.300003 0.174999,0.299996 0.200001,0.275001 0.348999,0.550003 0.201,0.224999 0.174,0.224998 0.201,0.224999 0.174,0.200004 0.374996,0.375 0.201004,0.174996 0.174,0.150001 0.175998,0.150002 0.199002,0.125 0.175998,0.125 0.199002,0.1 0.175998,0.1 0.198998,0.075 0.176002,0.075 0.174,0.075 0.201,0.05 0.174004,0.025 0.200996,0.025 0.174,0.02499 h 0.375004 l 0.200996,-0.02499 0.174,-0.025 0.176003,-0.025 0.199001,-0.05 0.175999,-0.075 0.198997,-0.05 0.176003,-0.1 0.199001,-0.075 0.175999,-0.1 0.198997,-0.125 0.176003,-0.100006 0.174999,-0.125 0.200001,-0.149994 0.174999,-0.150001 0.200001,-0.150002 0.174999,-0.175003 0.200001,-0.174995 0.174999,-0.175003 0.173996,-0.199997 0.201004,-0.200005 0.174,-0.199997 0.201,-0.224998 0.174,-0.224999 0.201,-0.225006 0.174,-0.25 0.201,-0.25 0.173996,-0.274994 0.176006,-0.25 0.198998,-0.300003 0.176002,-0.275001 0.198998,-0.299996 0.176002,-0.300003 0.198998,-0.300003 0.176002,-0.299995 0.174,-0.325005 0.201,-0.324997 L 48.5,76.476006" /><path
                 id="path58"
                 style="fill:none;stroke:#231f20;stroke-width:1;stroke-linecap:butt;stroke-linejoin:round;stroke-miterlimit:4;stroke-dasharray:none;stroke-opacity:1"
                 d="m 21.726002,2.4000001 0.198999,1.6999998 0.350001,3.3499999 0.201,1.6500006 L 22.65,10.725 l 0.201002,1.600001 0.174,1.575 0.201,1.549999 L 23.4,17 l 0.201002,1.525002 0.174,1.474998 0.174997,1.5 0.200001,1.449999 0.175001,1.425003 0.200001,1.424999 0.174999,1.4 0.199999,1.375 0.35,2.700001 0.199999,1.299999 0.175003,1.299999 0.199999,1.276001 L 26,36.425003 l 0.200001,1.225998 0.175001,1.223999 0.199999,1.200001 0.35,2.350002 0.200001,1.149998 0.174999,1.125 0.199999,1.099998 0.175001,1.101002 0.200001,1.049 0.174997,1.076 0.200001,1.023998 0.175001,1.025002 0.176001,0.974998 0.198999,1 0.176001,0.951004 0.198999,0.948994 0.176001,0.926006 0.198997,0.899998 0.176003,0.899002 0.173998,0.874996 0.201002,0.875004" /><text
                 id="text62"
                 style="font-style:italic;font-variant:normal;font-size:12px;font-family:Times;-inkscape-font-specification:Times-Italic;writing-mode:lr-tb;fill:#231f20;fill-opacity:1;fill-rule:nonzero;stroke:none"
                 transform="matrix(1,0,0,-1,150.401,48.8675)"><tspan
                   id="tspan60"
                   y="0"
                   x="0">x</tspan></text>
</g></g><g
             id="g64"><text
               id="text68"
               style="font-style:italic;font-variant:normal;font-size:12px;font-family:Times;-inkscape-font-specification:Times-Italic;writing-mode:lr-tb;fill:#231f20;fill-opacity:1;fill-rule:nonzero;stroke:none"
               transform="matrix(1,0,0,-1,43.400898,100.8675)"><tspan
                 id="tspan66"
                 y="0"
                 x="0">y</tspan></text>
<text
               id="text72"
               style="font-style:italic;font-variant:normal;font-size:10px;font-family:Times;-inkscape-font-specification:Times-Italic;writing-mode:lr-tb;fill:#231f20;fill-opacity:1;fill-rule:nonzero;stroke:none"
               transform="matrix(1,0,0,-1,20.9009,60.3675)"><tspan
                 id="tspan70"
                 y="0"
                 x="0">x</tspan></text>
<text
               id="text76"
               style="font-style:italic;font-variant:normal;font-size:7px;font-family:Times;-inkscape-font-specification:Times-Italic;writing-mode:lr-tb;fill:#231f20;fill-opacity:1;fill-rule:nonzero;stroke:none"
               transform="matrix(1,0,0,-1,25.339399,58.3675)"><tspan
                 id="tspan74"
                 y="0"
                 x="0">1</tspan></text>
<text
               id="text80"
               style="font-style:italic;font-variant:normal;font-size:10px;font-family:Times;-inkscape-font-specification:Times-Italic;writing-mode:lr-tb;fill:#231f20;fill-opacity:1;fill-rule:nonzero;stroke:none"
               transform="matrix(1,0,0,-1,57.400898,59.3675)"><tspan
                 id="tspan78"
                 y="0"
                 x="0">x</tspan></text>
<text
               id="text84"
               style="font-style:italic;font-variant:normal;font-size:7px;font-family:Times;-inkscape-font-specification:Times-Italic;writing-mode:lr-tb;fill:#231f20;fill-opacity:1;fill-rule:nonzero;stroke:none"
               transform="matrix(1,0,0,-1,61.839397,57.3675)"><tspan
                 id="tspan82"
                 y="0"
                 x="0">2</tspan></text>
<text
               id="text88"
               style="font-style:italic;font-variant:normal;font-size:10px;font-family:Times;-inkscape-font-specification:Times-Italic;writing-mode:lr-tb;fill:#231f20;fill-opacity:1;fill-rule:nonzero;stroke:none"
               transform="matrix(1,0,0,-1,100.90101,59.3675)"><tspan
                 id="tspan86"
                 y="0"
                 x="0">x</tspan></text>
<text
               id="text92"
               style="font-style:italic;font-variant:normal;font-size:7px;font-family:Times;-inkscape-font-specification:Times-Italic;writing-mode:lr-tb;fill:#231f20;fill-opacity:1;fill-rule:nonzero;stroke:none"
               transform="matrix(1,0,0,-1,105.339,57.3675)"><tspan
                 id="tspan90"
                 y="0"
                 x="0">3</tspan></text>
</g></g></g></g></g></svg>