<?xml version="1.0" encoding="UTF-8" standalone="no"?>
<svg
   xmlns:dc="http://purl.org/dc/elements/1.1/"
   xmlns:cc="http://creativecommons.org/ns#"
   xmlns:rdf="http://www.w3.org/1999/02/22-rdf-syntax-ns#"
   xmlns:svg="http://www.w3.org/2000/svg"
   xmlns="http://www.w3.org/2000/svg"
   viewBox="0 0 482.66666 170.66667"
   height="170.66667"
   width="482.66666"
   xml:space="preserve"
   id="svg2"
   version="1.1"><metadata
     id="metadata8"><rdf:RDF><cc:Work
         rdf:about=""><dc:format>image/svg+xml</dc:format><dc:type
           rdf:resource="http://purl.org/dc/dcmitype/StillImage" /></cc:Work></rdf:RDF></metadata><defs
     id="defs6"><clipPath
       id="clipPath24"
       clipPathUnits="userSpaceOnUse"><path
         id="path22"
         d="M 0,0 H 362 V 128 H 0 Z" /></clipPath></defs><g
     transform="matrix(1.3333333,0,0,-1.3333333,0,170.66667)"
     id="g10"><g
       id="g12" /><g
       id="g14" /><g
       id="g16"><g
         id="g18"><g
           clip-path="url(#clipPath24)"
           id="g20"><g
             id="g26" /><g
             id="g28"><path
               id="path30"
               style="fill:#bfbfbf;fill-opacity:1;fill-rule:nonzero;stroke:#000000;stroke-width:0.5;stroke-linecap:butt;stroke-linejoin:miter;stroke-miterlimit:4;stroke-dasharray:none;stroke-opacity:1"
               d="M 0.42500001,2.3920002 H 100.69201 V 95.726006 H 0.42500001 Z" /><path
               id="path32"
               style="fill:none;stroke:#000000;stroke-width:0.5;stroke-linecap:butt;stroke-linejoin:round;stroke-miterlimit:10;stroke-dasharray:none;stroke-opacity:1"
               d="m 48.641003,42.908001 3.765998,-2.399998 m -3.765998,2.399998 -2.900002,1.867001 m 45.933003,16.533 -2.900002,-4.265998 m 0,0 -2.900001,-3.867001 m 0,0 -2.899994,-3.400001 m 0,0 -2.933007,-2.967 m 0,0 -2.899994,-2.533 m 0,0 L 74.241005,42.208 m -8.734001,-3.665996 2.933998,0.765998 2.900001,1.234002 2.900002,1.665996 M 65.507004,38.542004 62.607002,38.208 m 0,0 -2.899997,0.100002 m 0,0 -2.900002,0.534001 m 0,0 -2.900002,0.965999 m 0,0 -2.932998,1.399998 m 0,0 -2.900002,1.867001 m 0,0 -2.899997,2.267002 m 0,0 -2.900002,2.732998 m 0,0 -2.900001,3.166 m 0,0 -2.932999,3.600002 m 0,0 -2.900002,4.034001 m 0,0 -2.899999,4.466999 m 0,0 -2.9,4.900001 m 0,0 -2.899999,5.365998 m 0,0 -2.934001,5.766998 m 0,0 -2.900001,6.233002 m 0,0 -2.9,6.667 M 82.681007,121.18101 V 95.425003" /><path
               id="path34"
               style="fill:none;stroke:#000000;stroke-width:0.5;stroke-linecap:butt;stroke-linejoin:round;stroke-miterlimit:4;stroke-dasharray:3, 3, 3, 3, 3;stroke-dashoffset:0;stroke-opacity:1"
               d="M 82.681007,95.425003 V 18.781" /><path
               id="path36"
               style="fill:#000000;fill-opacity:1;fill-rule:nonzero;stroke:none"
               d="m 82.681007,120.202 -1.441009,-0.877 -0.032,0.05 0.933006,2.35 c 0.180001,0.818 0.360001,1.637 0.540001,2.456 0.181,-0.819 0.361,-1.638 0.541001,-2.456 l 0.932998,-2.35 -0.024,-0.05 -1.449997,0.877" /><path
               id="path38"
               style="fill:none;stroke:#000000;stroke-width:0.5;stroke-linecap:butt;stroke-linejoin:round;stroke-miterlimit:4;stroke-dasharray:3, 3, 3, 3, 3;stroke-dashoffset:0;stroke-opacity:1"
               d="M 29.881001,31.981001 H 99.958008" /><path
               id="path40"
               style="fill:none;stroke:#000000;stroke-width:0.5;stroke-linecap:butt;stroke-linejoin:round;stroke-miterlimit:10;stroke-dasharray:none;stroke-opacity:1"
               d="M 99.958008,31.981001 H 171.082" /><path
               id="path42"
               style="fill:#000000;fill-opacity:1;fill-rule:nonzero;stroke:none"
               d="m 170.10201,31.981001 -0.876,1.441 0.049,0.033 2.35001,-0.934002 c 0.819,-0.179997 1.638,-0.359997 2.45599,-0.539999 -0.81799,-0.18 -1.63699,-0.359999 -2.45599,-0.539999 l -2.35001,-0.934 -0.049,0.025 0.876,1.449" /><text
               id="text46"
               style="font-variant:normal;font-weight:normal;font-size:11.15800095px;font-family:CMMI10;-inkscape-font-specification:CMMI10;writing-mode:lr-tb;fill:#000000;fill-opacity:1;fill-rule:nonzero;stroke:none"
               transform="matrix(1,0,0,-1,33.403099,4.5467)"><tspan
                 id="tspan44"
                 y="0"
                 x="0">x</tspan></text>
<text
               id="text50"
               style="font-variant:normal;font-weight:normal;font-size:11.15800095px;font-family:CMMI10;-inkscape-font-specification:CMMI10;writing-mode:lr-tb;fill:#000000;fill-opacity:1;fill-rule:nonzero;stroke:none"
               transform="matrix(1,0,0,-1,164.95816,21.625135)"><tspan
                 id="tspan48"
                 y="0"
                 x="0">y</tspan></text>
<text
               id="text54"
               style="font-variant:normal;font-weight:normal;font-size:11.15800095px;font-family:CMMI10;-inkscape-font-specification:CMMI10;writing-mode:lr-tb;fill:#000000;fill-opacity:1;fill-rule:nonzero;stroke:none"
               transform="matrix(1,0,0,-1,74.12645,116.14679)"><tspan
                 id="tspan52"
                 y="0"
                 x="0">z</tspan></text>
<text
               id="text58"
               style="font-variant:normal;font-weight:normal;font-size:8.92640018px;font-family:CMMI10;-inkscape-font-specification:CMMI10;writing-mode:lr-tb;fill:#000000;fill-opacity:1;fill-rule:nonzero;stroke:none"
               transform="matrix(1,0,0,-1,61.758297,16.8251)"><tspan
                 id="tspan56"
                 y="0"
                 x="0">x</tspan></text>
<text
               id="text62"
               style="font-variant:normal;font-weight:normal;font-size:6.24869967px;font-family:CMR7;-inkscape-font-specification:CMR7;writing-mode:lr-tb;fill:#000000;fill-opacity:1;fill-rule:nonzero;stroke:none"
               transform="matrix(1,0,0,-1,66.860199,15.486001)"><tspan
                 id="tspan60"
                 y="0"
                 x="0">0</tspan></text>
<path
               id="path64"
               style="fill:none;stroke:#000000;stroke-width:0.5;stroke-linecap:butt;stroke-linejoin:round;stroke-miterlimit:4;stroke-dasharray:3, 3, 3, 3, 3;stroke-dashoffset:0;stroke-opacity:1"
               d="m 299.98901,55.276001 -2.89999,-4.266998 m 0,0 -2.89999,-3.867001 m 0,0 -2.90003,-3.400001 m 0,0 -2.93298,-2.966 m 0,0 -2.9,-2.534 m 0,0 -2.90002,-2.065998 m 0,0 -2.89999,-1.667 m -2.9,-1.233002 -2.93399,-0.766998 m 0,0 -2.89999,-0.333 m 0,0 -2.90003,0.1 m 0,0 -2.89999,0.533001 m 0,0 -2.89999,0.966999 m 0,0 -2.93302,1.400002 m 0,0 -2.89999,1.866001 m 0,0 -2.9,2.266998 m 0,0 -2.90001,2.733002 m 0,0 -2.89999,3.166999 m 0,0 -2.933,3.599999 m 0,0 -2.89999,4.033001 m 0,0 -2.90001,4.466999 m 0,0 -2.89999,4.900001 m 0,0 -2.90001,5.367001 m 0,0 -2.93399,5.765999 m 0,0 -2.90001,6.234001 m 0,0 -2.9,6.666 m 117.467,-3.800003 3.80002,5.5 m -7.60001,-10.532997 -2.89999,-3.833 m -0.866,-0.766998 -2.90003,-3.833 m -3.79998,-4.167 3.79998,4.167" /><path
               id="path66"
               style="fill:#ffffff;fill-opacity:1;fill-rule:evenodd;stroke:none"
               d="m 323.82303,61.076004 -2.90003,-3.400001 3.80002,3.733001 -0.89999,-0.333" /><path
               id="path68"
               style="fill:none;stroke:#000000;stroke-width:0.5;stroke-linecap:butt;stroke-linejoin:round;stroke-miterlimit:4;stroke-dasharray:3, 3, 3, 3, 3;stroke-dashoffset:0;stroke-opacity:1"
               d="M 273.18903,32.409 270.289,32.042 m 0,0 -2.93298,0.100002 M 235.92201,42.909 l 3.767,-2.399997 m -3.767,2.399997 -2.89999,1.867001" /><path
               id="path70"
               style="fill:#ffffff;fill-opacity:1;fill-rule:evenodd;stroke:none"
               d="m 211.15601,65.642006 3.8,-4.600002 -2.89999,2.734001 -0.90001,1.866001" /><path
               id="path72"
               style="fill:none;stroke:#000000;stroke-width:0.5;stroke-linecap:butt;stroke-linejoin:round;stroke-miterlimit:4;stroke-dasharray:3, 3, 3, 3, 3;stroke-dashoffset:0;stroke-opacity:1"
               d="M 278.95602,61.309002 276.056,57.042004 m 0,0 -2.89999,-3.866001 m 0,0 -2.9,-3.400002 m 0,0 -2.93399,-2.966999 m 0,0 -2.89999,-2.533001 m 0,0 -2.90003,-2.066998 m 0,0 -2.89999,-1.666999 m -2.89999,-1.233002 -2.933,-0.766998 m 0,0 -2.90001,-0.333001 m 0,0 -2.9,0.1 m 0,0 -2.90001,0.533001 m 0,0 -2.89999,0.966999 m 0,0 -2.933,1.400001 m 0,0 -2.89999,1.866997 m 0,0 -2.90001,2.266003 m 0,0 -2.89999,2.734001 m 0,0 -2.90001,3.165997 m 0,0 -2.93399,3.600002 m 0,0 -2.90001,4.034 m 0,0 -2.9,4.466 m 0,0 -2.90001,4.900001 m 0,0 -2.89999,5.366997 m 0,0 -2.933,5.767006 m 0,0 -2.89999,6.232994 m 0,0 -2.90001,6.667 m 55.85,-12.483994 -2.89999,-4.266006 m 0,0 -2.90001,-3.866997 m 0,0 -2.89999,-3.400001 m 0,0 -2.933,-2.967003 m 0,0 -2.90001,-2.532997 m 0,0 -2.89999,-2.067002 m 0,0 -2.90001,-1.666 m -2.9,-1.233997 -2.934,-0.766003 m 0,0 -2.9,-0.334 m 0,0 -2.90001,0.100003 m 0,0 -2.89999,0.534 m 0,0 -2.89999,0.966 m 0,0 -2.933,1.399997 m 0,0 -2.90001,1.867001 m 0,0 -2.9,2.267002 m 0,0 -2.90001,2.733002 m 0,0 -2.89999,3.167 m 0,0 -2.933,3.599998 m 0,0 -2.901,4.032997 m 0,0 -2.899,4.467003 m 0,0 -2.901,4.900002 m 0,0 -2.9,5.365997 m 0,0 -2.93299,5.766998 m 0,0 -2.90001,6.232998 m 0,0 -2.9,6.667 m 138.817,-46.891995 -2.89999,-4.266002 m 0,0 -2.89999,-3.867001 m 0,0 -2.90003,-3.399998 m 0,0 -2.93298,-2.967002 m 0,0 -2.9,-2.532998 m 0,0 -2.90002,-2.067001 m 0,0 -2.89999,-1.666 m -2.9,-1.234001 -2.93298,-0.766999 m 0,0 -2.90003,-0.333 m 0,0 -2.901,0.1 m 0,0 -2.89999,0.534 m 0,0 -2.89999,0.966 m 0,0 -2.93302,1.400001" /><path
               id="path74"
               style="fill:none;stroke:#000000;stroke-width:0.5;stroke-linecap:butt;stroke-linejoin:round;stroke-miterlimit:4;stroke-dasharray:3, 3, 3, 3, 3;stroke-dashoffset:0;stroke-opacity:1"
               d="m 281.789,43.767002 -2.89999,1.867001 m 0,0 -2.9,2.266998 m 0,0 -2.89999,2.733002 m 0,0 -2.89999,3.167 m 0,0 -2.93302,3.599998 m 0,0 -2.89999,4.033001 m 0,0 -2.9,4.466999 m 0,0 -2.90002,4.900002 m 0,0 -2.89999,5.365997 m 0,0 -2.93399,5.767006 m 0,0 -2.90001,6.233001 m 0,0 -2.9,6.667 m 80.20101,-30.467003 -2.9,-2.533001 m 0,0 -2.89999,-2.067001 m 0,0 -2.90003,-1.666 m -2.89999,-1.233998 -2.93399,-0.766002 m 0,0 -2.89999,-0.334 m 0,0 -2.90003,0.100002 m 0,0 -2.89999,0.533997 m 0,0 -2.9,0.966003 m 0,0 -2.93301,1.399998 m 0,0 -2.89999,1.867001 m 0,0 -2.9,2.267002 m 0,0 -2.89999,2.732998 m 0,0 -2.9,3.167 m 0,0 -2.93402,3.599998 m 0,0 -2.89999,4.033005 m 0,0 -2.89999,4.466995 m 0,0 -2.9,4.900002 m 0,0 -2.89999,5.366004 m 0,0 -2.93302,5.766999 m 0,0 -2.89999,6.233004 m 0,0 -2.89999,6.667" /><path
               id="path76"
               style="fill:none;stroke:#000000;stroke-width:0.5;stroke-linecap:butt;stroke-linejoin:round;stroke-miterlimit:10;stroke-dasharray:none;stroke-opacity:1"
               d="M 269.96301,121.18201 V 18.782001" /><path
               id="path78"
               style="fill:#000000;fill-opacity:1;fill-rule:nonzero;stroke:none"
               d="m 269.96301,120.202 -1.44101,-0.876 -0.033,0.049 0.93399,2.35 c 0.18003,0.819 0.36002,1.638 0.54001,2.457 0.18,-0.819 0.35999,-1.638 0.54001,-2.457 l 0.93399,-2.35 -0.025,-0.049 -1.44901,0.876" /><path
               id="path80"
               style="fill:none;stroke:#000000;stroke-width:0.5;stroke-linecap:butt;stroke-linejoin:round;stroke-miterlimit:10;stroke-dasharray:none;stroke-opacity:1"
               d="m 217.16301,31.982002 h 141.2" /><path
               id="path82"
               style="fill:#000000;fill-opacity:1;fill-rule:nonzero;stroke:none"
               d="m 357.38303,31.982002 -0.87601,1.440998 0.049,0.033 2.34998,-0.933998 c 0.819,-0.18 1.638,-0.36 2.457,-0.540001 -0.819,-0.18 -1.638,-0.361 -2.457,-0.541 l -2.34998,-0.933001 -0.049,0.024 0.87601,1.450001" /><text
               id="text86"
               style="font-variant:normal;font-weight:normal;font-size:11.15800095px;font-family:CMMI10;-inkscape-font-specification:CMMI10;writing-mode:lr-tb;fill:#000000;fill-opacity:1;fill-rule:nonzero;stroke:none"
               transform="matrix(1,0,0,-1,221.23149,3.4482)"><tspan
                 id="tspan84"
                 y="0"
                 x="0">x</tspan></text>
<text
               id="text90"
               style="font-variant:normal;font-weight:normal;font-size:11.15800095px;font-family:CMMI10;-inkscape-font-specification:CMMI10;writing-mode:lr-tb;fill:#000000;fill-opacity:1;fill-rule:nonzero;stroke:none"
               transform="matrix(1,0,0,-1,353.8064,23.528139)"><tspan
                 id="tspan88"
                 y="0"
                 x="0">y</tspan></text>
<text
               id="text94"
               style="font-variant:normal;font-weight:normal;font-size:11.15800095px;font-family:CMMI10;-inkscape-font-specification:CMMI10;writing-mode:lr-tb;fill:#000000;fill-opacity:1;fill-rule:nonzero;stroke:none"
               transform="matrix(1,0,0,-1,260.15842,119.22585)"><tspan
                 id="tspan92"
                 y="0"
                 x="0">z</tspan></text>
<path
               id="path96"
               style="fill:none;stroke:#000000;stroke-width:0.5;stroke-linecap:butt;stroke-linejoin:miter;stroke-miterlimit:4;stroke-dasharray:3, 3, 3, 3, 3, 3;stroke-dashoffset:0;stroke-opacity:1"
               d="m 61.225002,37.892002 v -15.867" /><path
               id="path98"
               style="fill:none;stroke:#000000;stroke-width:0.5;stroke-linecap:butt;stroke-linejoin:round;stroke-miterlimit:10;stroke-dasharray:none;stroke-opacity:1"
               d="M 270.35101,31.879002 214.79901,7.1410003" /><path
               id="path100"
               style="fill:#000000;fill-opacity:1;fill-rule:nonzero;stroke:none"
               d="m 215.36401,7.3899999 1.387,-0.9600001 -0.032,-0.05 -2.526,-0.1029992 c -0.82199,-0.1690001 -1.64302,-0.3370003 -2.46401,-0.506 0.67402,0.4980001 1.349,0.9959998 2.02401,1.493 l 1.76698,1.8089996 0.055,-0.003 -0.211,-1.6799998" /><path
               id="path102"
               style="fill:none;stroke:#000000;stroke-width:0.5;stroke-linecap:butt;stroke-linejoin:round;stroke-miterlimit:4;stroke-dasharray:3, 3, 3, 3, 3;stroke-dashoffset:0;stroke-opacity:1"
               d="m 83.150002,31.629002 -21.995999,-9.795" /><path
               id="path104"
               style="fill:none;stroke:#000000;stroke-width:0.5;stroke-linecap:butt;stroke-linejoin:round;stroke-miterlimit:10;stroke-dasharray:none;stroke-opacity:1"
               d="M 61.154003,21.834002 27.598001,6.8910003" /><path
               id="path106"
               style="fill:#000000;fill-opacity:1;fill-rule:nonzero;stroke:none"
               d="m 28.163002,7.1399999 1.386997,-0.9600001 -0.032,-0.05 -2.526001,-0.1029992 c -0.821,-0.1690001 -1.643,-0.3370003 -2.463999,-0.506 0.674999,0.4979997 1.348999,0.9959998 2.024,1.493 l 1.767,1.8089996 0.055,-0.003 L 28.163,7.1400004" /></g></g></g></g></g></svg>