<?xml version="1.0" encoding="UTF-8" standalone="no"?>
<svg
   xmlns:dc="http://purl.org/dc/elements/1.1/"
   xmlns:cc="http://creativecommons.org/ns#"
   xmlns:rdf="http://www.w3.org/1999/02/22-rdf-syntax-ns#"
   xmlns:svg="http://www.w3.org/2000/svg"
   xmlns="http://www.w3.org/2000/svg"
   viewBox="0 0 281.33334 177.33333"
   height="177.33333"
   width="281.33334"
   xml:space="preserve"
   id="svg2"
   version="1.1"><metadata
     id="metadata8"><rdf:RDF><cc:Work
         rdf:about=""><dc:format>image/svg+xml</dc:format><dc:type
           rdf:resource="http://purl.org/dc/dcmitype/StillImage" /></cc:Work></rdf:RDF></metadata><defs
     id="defs6"><clipPath
       id="clipPath24"
       clipPathUnits="userSpaceOnUse"><path
         id="path22"
         d="M 0,0 H 211 V 133 H 0 Z" /></clipPath><clipPath
       id="clipPath38"
       clipPathUnits="userSpaceOnUse"><path
         id="path36"
         d="M 0,0.05999756 H 210.95999 V 132.26 H 0 Z" /></clipPath></defs><g
     transform="matrix(1.3333333,0,0,-1.3333333,0,177.33333)"
     id="g10"><g
       id="g12" /><g
       id="g14" /><g
       id="g16"><g
         id="g18"><g
           clip-path="url(#clipPath24)"
           id="g20"><g
             id="g26" /><g
             id="g28"><path
               id="path30"
               style="fill:none;stroke:#231f20;stroke-width:1;stroke-linecap:butt;stroke-linejoin:miter;stroke-miterlimit:4;stroke-dasharray:none;stroke-opacity:1"
               d="M 205.33601,64.309998 H 72.407005 L 12.665001,4.5690002" /></g><g
             id="g32"><g
               clip-path="url(#clipPath38)"
               id="g34"><path
                 id="path40"
                 style="fill:#231f20;fill-opacity:1;fill-rule:nonzero;stroke:none"
                 d="M 13.686001,6.4890003 16.267,5.8610001 16.249,5.7690001 12.592,4.1920004 C 11.479,3.4810002 10.367001,2.7690001 9.2540007,2.0580001 9.9650002,3.1710002 10.677,4.2820001 11.388,5.3960004 L 12.965,9.052 13.047,9.079 13.686,6.4889998" /><path
                 id="path42"
                 style="fill:#231f20;fill-opacity:1;fill-rule:nonzero;stroke:none"
                 d="m 204.69301,64.309998 -1.38001,2.270004 0.078,0.051 3.701,-1.469001 c 1.28999,-0.283997 2.579,-0.569001 3.869,-0.852005 -1.29,-0.282998 -2.57901,-0.566994 -3.869,-0.850995 l -3.701,-1.470001 -0.078,0.039 1.38001,2.281994" /></g></g><g
             id="g44"><path
               id="path46"
               style="fill:none;stroke:#231f20;stroke-width:1;stroke-linecap:butt;stroke-linejoin:miter;stroke-miterlimit:4;stroke-dasharray:none;stroke-opacity:1"
               d="M 71.619003,64.309998 V 125.492" /><path
               id="path48"
               style="fill:#231f20;fill-opacity:1;fill-rule:nonzero;stroke:none"
               d="m 71.509003,125.492 -2.269005,-1.37899 -0.05199,0.077 1.470001,3.70102 c 0.283996,1.28898 0.568001,2.57899 0.850998,3.86898 0.285003,-1.28999 0.568,-2.58 0.851997,-3.86898 l 1.470001,-3.70102 -0.039,-0.077 -2.282997,1.37899" /><path
               id="path50"
               style="fill:none;stroke:#231f20;stroke-width:1;stroke-linecap:butt;stroke-linejoin:miter;stroke-miterlimit:4;stroke-dasharray:none;stroke-opacity:1"
               d="M 72.407005,64.309998 122.492,14.225 V 102.59 M 116.52,20.197001 v 8.820001 l 5.66999,-5.67 m 10.06602,72.402006 V 18.73" /><path
               id="path52"
               style="fill:#231f20;fill-opacity:1;fill-rule:nonzero;stroke:none"
               d="m 132.25601,19.308001 2.04399,1.241998 0.046,-0.069 L 133.022,17.15 c -0.25499,-1.161 -0.50999,-2.321999 -0.76599,-3.482 -0.255,1.160001 -0.51001,2.321 -0.76602,3.482 l -1.32298,3.331001 0.035,0.069 2.054,-1.241998" /><path
               id="path54"
               style="fill:#231f20;fill-opacity:1;fill-rule:nonzero;stroke:none"
               d="m 132.492,94.762001 -2.04299,-1.242004 -0.046,0.06901 1.32301,3.332 c 0.25499,1.161003 0.51,2.320999 0.76599,3.481003 0.25501,-1.160004 0.51101,-2.32 0.76601,-3.481003 l 1.323,-3.332 -0.035,-0.06901 -2.05401,1.242004" /><path
               id="path56"
               style="fill:none;stroke:#231f20;stroke-width:1;stroke-linecap:butt;stroke-linejoin:miter;stroke-miterlimit:4;stroke-dasharray:none;stroke-opacity:1"
               d="M 122.578,13.438001 H 22.01 M 57.801003,63.526005 15.585001,21.309002" /><path
               id="path58"
               style="fill:#231f20;fill-opacity:1;fill-rule:nonzero;stroke:none"
               d="m 15.955001,21.678001 2.094998,-0.510999 -0.014,-0.073 -2.97,-1.282002 C 14.162001,19.235001 13.258,18.657001 12.355,18.079 c 0.578001,0.904002 1.154999,1.807002 1.733,2.710999 L 15.37,23.76 l 0.066,0.022 0.519,-2.104" /><path
               id="path60"
               style="fill:#231f20;fill-opacity:1;fill-rule:nonzero;stroke:none"
               d="m 57.432003,63.157001 -2.096001,0.511002 0.015,0.074 2.970001,1.281998 c 0.903999,0.577004 1.807999,1.154999 2.710998,1.733002 -0.577999,-0.904 -1.155998,-1.807999 -1.732997,-2.710999 l -1.282002,-2.970001 -0.066,-0.023 -0.519001,2.104" /><path
               id="path62"
               style="fill:none;stroke:#231f20;stroke-width:1;stroke-linecap:butt;stroke-linejoin:miter;stroke-miterlimit:4;stroke-dasharray:none;stroke-opacity:1"
               d="M 27.046001,6.3499999 H 116.506" /><path
               id="path64"
               style="fill:#231f20;fill-opacity:1;fill-rule:nonzero;stroke:none"
               d="m 116.108,6.3499999 -1.242,2.0430007 0.071,0.045999 3.33101,-1.3229999 c 1.16,-0.2549997 2.32099,-0.5109997 3.481,-0.7660003 -1.16001,-0.2549996 -2.321,-0.5109997 -3.481,-0.7659998 l -3.33101,-1.3229999 -0.071,0.035 1.242,2.0539999" /><path
               id="path66"
               style="fill:#231f20;fill-opacity:1;fill-rule:nonzero;stroke:none"
               d="m 27.445002,6.3499999 1.242,-2.0429997 -0.07,-0.046 -3.331,1.3229999 c -1.16,0.2550001 -2.321001,0.5110002 -3.482,0.7659998 1.160999,0.2550006 2.322,0.5110006 3.482,0.7660003 l 3.331,1.3229999 0.07,-0.033999 -1.242,-2.0550008" /><path
               id="path68"
               style="fill:#ffffff;fill-opacity:1;fill-rule:nonzero;stroke:none"
               d="m 64.636002,8.6599998 h 15.75 V 2.7800002 h -15.75 z" /><path
               id="path70"
               style="fill:none;stroke:#ffffff;stroke-width:1;stroke-linecap:butt;stroke-linejoin:miter;stroke-miterlimit:4;stroke-dasharray:none;stroke-opacity:1"
               d="m 64.636002,2.78 h 15.75 v 5.8799998 h -15.75 z" /><path
               id="path72"
               style="fill:#ffffff;fill-opacity:1;fill-rule:nonzero;stroke:none"
               d="m 30.197001,48.98 h 11.76 V 37.849999 h -11.76 z" /><path
               id="path74"
               style="fill:none;stroke:#ffffff;stroke-width:1;stroke-linecap:butt;stroke-linejoin:miter;stroke-miterlimit:4;stroke-dasharray:none;stroke-opacity:1"
               d="m 30.197001,37.849998 h 11.76 V 48.98 h -11.76 z" /><path
               id="path76"
               style="fill:#ffffff;fill-opacity:1;fill-rule:nonzero;stroke:none"
               d="m 127.951,64.339996 h 7.98 V 51.739998 h -7.98 z" /><path
               id="path78"
               style="fill:none;stroke:#ffffff;stroke-width:1;stroke-linecap:butt;stroke-linejoin:miter;stroke-miterlimit:4;stroke-dasharray:none;stroke-opacity:1"
               d="m 127.951,51.739998 h 7.98 v 12.599998 h -7.98 z" /><text
               id="text82"
               style="font-variant:normal;font-weight:normal;font-size:10.75949955px;font-family:CMMI10;-inkscape-font-specification:CMMI10;writing-mode:lr-tb;fill:#231f20;fill-opacity:1;fill-rule:nonzero;stroke:none"
               transform="matrix(1,0,0,-1,33.498001,40.940201)"><tspan
                 id="tspan80"
                 y="0"
                 x="0">a</tspan></text>
<text
               id="text86"
               style="font-variant:normal;font-weight:normal;font-size:10.75949955px;font-family:CMMI10;-inkscape-font-specification:CMMI10;writing-mode:lr-tb;fill:#231f20;fill-opacity:1;fill-rule:nonzero;stroke:none"
               transform="matrix(1,0,0,-1,70.680679,2.6901791)"><tspan
                 id="tspan84"
                 y="0"
                 x="0">b</tspan></text>
<text
               id="text90"
               style="font-variant:normal;font-weight:normal;font-size:10.75949955px;font-family:CMMI10;-inkscape-font-specification:CMMI10;writing-mode:lr-tb;fill:#231f20;fill-opacity:1;fill-rule:nonzero;stroke:none"
               transform="matrix(1,0,0,-1,130.08064,56.689953)"><tspan
                 id="tspan88"
                 y="0"
                 x="0">c</tspan></text>
<text
               id="text94"
               style="font-variant:normal;font-weight:normal;font-size:10.75949955px;font-family:CMMI10;-inkscape-font-specification:CMMI10;writing-mode:lr-tb;fill:#231f20;fill-opacity:1;fill-rule:nonzero;stroke:none"
               transform="matrix(1,0,0,-1,113.88007,101.69048)"><tspan
                 id="tspan92"
                 y="0"
                 x="0">P</tspan></text>
<text
               id="text98"
               style="font-variant:normal;font-weight:normal;font-size:10.75949955px;font-family:CMMI10;-inkscape-font-specification:CMMI10;writing-mode:lr-tb;fill:#231f20;fill-opacity:1;fill-rule:nonzero;stroke:none"
               transform="matrix(1,0,0,-1,4.4921131e-4,2.6901808)"><tspan
                 id="tspan96"
                 y="0"
                 x="0">x</tspan></text>
<text
               id="text102"
               style="font-variant:normal;font-weight:normal;font-size:10.75949955px;font-family:CMMI10;-inkscape-font-specification:CMMI10;writing-mode:lr-tb;fill:#231f20;fill-opacity:1;fill-rule:nonzero;stroke:none"
               transform="matrix(1,0,0,-1,202.98163,54.889893)"><tspan
                 id="tspan100"
                 y="0"
                 x="0">y</tspan></text>
<text
               id="text106"
               style="font-variant:normal;font-weight:normal;font-size:10.75949955px;font-family:CMMI10;-inkscape-font-specification:CMMI10;writing-mode:lr-tb;fill:#231f20;fill-opacity:1;fill-rule:nonzero;stroke:none"
               transform="matrix(1,0,0,-1,62.58091,124.18967)"><tspan
                 id="tspan104"
                 y="0"
                 x="0">z</tspan></text>
<path
               id="path108"
               style="fill:#231f20;fill-opacity:1;fill-rule:nonzero;stroke:none"
               d="m 122.64101,100.99901 c 0.87799,0 1.58999,0.713 1.58999,1.59099 0,0.878 -0.712,1.59101 -1.58999,1.59101 -0.879,0 -1.59101,-0.71301 -1.59101,-1.59101 0,-0.87799 0.71201,-1.59099 1.59101,-1.59099" /><path
               id="path110"
               style="fill:none;stroke:#231f20;stroke-width:1;stroke-linecap:butt;stroke-linejoin:miter;stroke-miterlimit:4;stroke-dasharray:none;stroke-opacity:1"
               d="m 27.706001,19.565001 h 8.549 l -6.299,-6.301" /></g></g></g></g></g></svg>