<?xml version="1.0" encoding="UTF-8" standalone="no"?>
<svg
   xmlns:dc="http://purl.org/dc/elements/1.1/"
   xmlns:cc="http://creativecommons.org/ns#"
   xmlns:rdf="http://www.w3.org/1999/02/22-rdf-syntax-ns#"
   xmlns:svg="http://www.w3.org/2000/svg"
   xmlns="http://www.w3.org/2000/svg"
   viewBox="0 0 541.33331 209.33333"
   height="209.33333"
   width="541.33331"
   xml:space="preserve"
   id="svg2"
   version="1.1"><metadata
     id="metadata8"><rdf:RDF><cc:Work
         rdf:about=""><dc:format>image/svg+xml</dc:format><dc:type
           rdf:resource="http://purl.org/dc/dcmitype/StillImage" /></cc:Work></rdf:RDF></metadata><defs
     id="defs6"><clipPath
       id="clipPath24"
       clipPathUnits="userSpaceOnUse"><path
         id="path22"
         d="M 0,0 H 406 V 157 H 0 Z" /></clipPath></defs><g
     transform="matrix(1.3333333,0,0,-1.3333333,0,209.33333)"
     id="g10"><g
       id="g12" /><g
       id="g14" /><g
       id="g16"><g
         id="g18"><g
           clip-path="url(#clipPath24)"
           id="g20"><g
             id="g26" /><g
             id="g28"><path
               id="path30"
               style="fill:#bfbfbf;fill-opacity:1;fill-rule:nonzero;stroke:#000000;stroke-width:1;stroke-linecap:butt;stroke-linejoin:miter;stroke-miterlimit:4;stroke-dasharray:none;stroke-opacity:1"
               d="M 7.6420002,19.985001 H 109.242 V 118.385 H 7.6420002 Z" /><path
               id="path32"
               style="fill:#bfbfbf;fill-opacity:1;fill-rule:nonzero;stroke:#000000;stroke-width:0.80000001;stroke-linecap:butt;stroke-linejoin:miter;stroke-miterlimit:4;stroke-dasharray:none;stroke-opacity:1"
               d="m 319.16,81.884003 h 36.75202 L 404.71201,136.084 H 308.51202 L 254.31201,81.884003 H 319.16" /><path
               id="path34"
               style="fill:#bfbfbf;fill-opacity:1;fill-rule:nonzero;stroke:#000000;stroke-width:0.80000001;stroke-linecap:butt;stroke-linejoin:miter;stroke-miterlimit:4;stroke-dasharray:none;stroke-opacity:1"
               d="M 178.02901,5.8460002 V 104.247 l 51.6,51.6 V 53.847004 Z" /><path
               id="path36"
               style="fill:none;stroke:#000000;stroke-width:1;stroke-linecap:butt;stroke-linejoin:miter;stroke-miterlimit:4;stroke-dasharray:none;stroke-opacity:1"
               d="M 123.64301,68.359001 H 110.576" /><path
               id="path38"
               style="fill:none;stroke:#000000;stroke-width:0.80000001;stroke-linecap:butt;stroke-linejoin:miter;stroke-miterlimit:4;stroke-dasharray:3, 3, 3, 3, 3;stroke-dashoffset:0;stroke-opacity:1"
               d="M 110.576,68.359001 H 70.777 l -14.687,-14.687" /><path
               id="path40"
               style="fill:none;stroke:#000000;stroke-width:1;stroke-linecap:butt;stroke-linejoin:miter;stroke-miterlimit:4;stroke-dasharray:3, 3, 3, 3, 3;stroke-dashoffset:0;stroke-opacity:1"
               d="m 56.09,53.672001 -8.000999,-8" /><path
               id="path42"
               style="fill:none;stroke:#000000;stroke-width:1;stroke-linecap:butt;stroke-linejoin:miter;stroke-miterlimit:4;stroke-dasharray:none;stroke-opacity:1"
               d="M 48.089001,45.672001 10.577001,8.1590004" /><path
               id="path44"
               style="fill:#000000;fill-opacity:1;fill-rule:nonzero;stroke:none"
               d="m 10.98,8.5630007 2.294,-0.559 -0.016,-0.082 L 10.008,6.52 C 9.0190001,5.8880005 8.0299997,5.256 7.0410004,4.6230001 7.6730003,5.6120005 8.3060007,6.6010003 8.9380007,7.5899997 L 10.34,10.841001 l 0.073,0.024 0.567,-2.3020003" /><path
               id="path46"
               style="fill:#000000;fill-opacity:1;fill-rule:nonzero;stroke:none"
               d="m 123.64301,68.359001 -1.227,2.017006 0.069,0.046 3.29,-1.307 c 1.146,-0.251998 2.293,-0.504005 3.43899,-0.756004 -1.14599,-0.251999 -2.29299,-0.504997 -3.43899,-0.756996 l -3.29,-1.306 -0.069,0.034 1.227,2.028999" /><path
               id="path48"
               style="fill:none;stroke:#000000;stroke-width:1;stroke-linecap:butt;stroke-linejoin:miter;stroke-miterlimit:4;stroke-dasharray:3, 3, 3, 3, 3;stroke-dashoffset:0;stroke-opacity:1"
               d="m 70.077003,59.185001 v 1.333001" /><path
               id="path50"
               style="fill:none;stroke:#000000;stroke-width:0.80000001;stroke-linecap:butt;stroke-linejoin:miter;stroke-miterlimit:4;stroke-dasharray:3, 3, 3, 3, 3;stroke-dashoffset:0;stroke-opacity:1"
               d="m 70.077003,60.518002 v 35.2" /><path
               id="path52"
               style="fill:none;stroke:#000000;stroke-width:0.80000001;stroke-linecap:butt;stroke-linejoin:miter;stroke-miterlimit:4;stroke-dasharray:3, 3, 3, 3, 3, 3;stroke-dashoffset:0;stroke-opacity:1"
               d="M 70.077003,95.718002 V 117.58501" /><path
               id="path54"
               style="fill:none;stroke:#000000;stroke-width:1;stroke-linecap:butt;stroke-linejoin:miter;stroke-miterlimit:4;stroke-dasharray:none;stroke-opacity:1"
               d="M 70.077003,117.58501 V 136.839" /><path
               id="path56"
               style="fill:#000000;fill-opacity:1;fill-rule:nonzero;stroke:none"
               d="m 70.077003,136.26801 -2.017997,-1.22701 -0.04601,0.069 1.307,3.29001 c 0.252006,1.146 0.504005,2.29199 0.757003,3.43899 0.251999,-1.147 0.503998,-2.29299 0.755997,-3.43899 l 1.306999,-3.29001 -0.035,-0.069 -2.028,1.22701" /><text
               id="text60"
               style="font-variant:normal;font-weight:normal;font-size:9.56400013px;font-family:CMMI10;-inkscape-font-specification:CMMI10;writing-mode:lr-tb;fill:#000000;fill-opacity:1;fill-rule:nonzero;stroke:none"
               transform="matrix(1,0,0,-1,0.0152,4.7848001)"><tspan
                 id="tspan58"
                 y="0"
                 x="0">x</tspan></text>
<text
               id="text64"
               style="font-variant:normal;font-weight:normal;font-size:9.56400013px;font-family:CMMI10;-inkscape-font-specification:CMMI10;writing-mode:lr-tb;fill:#000000;fill-opacity:1;fill-rule:nonzero;stroke:none"
               transform="matrix(1,0,0,-1,121.24272,59.98534)"><tspan
                 id="tspan62"
                 y="0"
                 x="0">y</tspan></text>
<text
               id="text68"
               style="font-variant:normal;font-weight:normal;font-size:9.56400013px;font-family:CMMI10;-inkscape-font-specification:CMMI10;writing-mode:lr-tb;fill:#000000;fill-opacity:1;fill-rule:nonzero;stroke:none"
               transform="matrix(1,0,0,-1,61.642742,135.98567)"><tspan
                 id="tspan66"
                 y="0"
                 x="0">z</tspan></text>
<path
               id="path70"
               style="fill:none;stroke:#000000;stroke-width:0.80000001;stroke-linecap:butt;stroke-linejoin:miter;stroke-miterlimit:4;stroke-dasharray:3, 3, 3, 3, 3;stroke-dashoffset:0;stroke-opacity:1"
               d="M 16.243,68.385002 H 70.577003" /><path
               id="path72"
               style="fill:#000000;fill-opacity:1;fill-rule:nonzero;stroke:none"
               d="m 47.389999,44.985001 c -0.255996,0.256 -0.608997,0.414001 -1,0.414001 -0.780998,0 -1.413997,-0.632999 -1.413997,-1.414001 0,-0.780999 0.632999,-1.413998 1.413997,-1.413998 0.781002,0 1.414002,0.632999 1.414002,1.413998 0,0.390003 -0.157997,0.744003 -0.414002,1" /><text
               id="text76"
               style="font-variant:normal;font-weight:normal;font-size:9.56400013px;font-family:CMMI10;-inkscape-font-specification:CMMI10;writing-mode:lr-tb;fill:#000000;fill-opacity:1;fill-rule:nonzero;stroke:none"
               transform="matrix(1,0,0,-1,53.242599,39.188698)"><tspan
                 id="tspan74"
                 y="0"
                 x="0">D</tspan></text>
<path
               id="path78"
               style="fill:#000000;fill-opacity:1;fill-rule:nonzero;stroke:none"
               d="m 52.443001,37.967003 h 8.183998 v -0.382 h -8.183998 z" /><text
               id="text82"
               style="font-variant:normal;font-weight:normal;font-size:9.56400013px;font-family:CMMI10;-inkscape-font-specification:CMMI10;writing-mode:lr-tb;fill:#000000;fill-opacity:1;fill-rule:nonzero;stroke:none"
               transform="matrix(1,0,0,-1,52.414799,29.8916)"><tspan
                 id="tspan80"
                 y="0"
                 x="0">A</tspan></text>
<path
               id="path84"
               style="fill:none;stroke:#000000;stroke-width:1;stroke-linecap:butt;stroke-linejoin:miter;stroke-miterlimit:4;stroke-dasharray:none;stroke-opacity:1"
               d="M 372.82901,68.975006 H 359.76202" /><path
               id="path86"
               style="fill:#000000;fill-opacity:1;fill-rule:nonzero;stroke:#000000;stroke-width:1;stroke-linecap:butt;stroke-linejoin:miter;stroke-miterlimit:4;stroke-dasharray:none;stroke-opacity:1"
               d="M 359.76202,68.975006 H 327.229" /><path
               id="path88"
               style="fill:#000000;fill-opacity:1;fill-rule:nonzero;stroke:#000000;stroke-width:1;stroke-linecap:butt;stroke-linejoin:miter;stroke-miterlimit:4;stroke-dasharray:none;stroke-opacity:1"
               d="m 305.47601,54.271004 -8.001,-8" /><path
               id="path90"
               style="fill:none;stroke:#000000;stroke-width:1;stroke-linecap:butt;stroke-linejoin:miter;stroke-miterlimit:4;stroke-dasharray:none;stroke-opacity:1"
               d="M 297.27502,46.287003 259.763,8.7750006" /><path
               id="path92"
               style="fill:#000000;fill-opacity:1;fill-rule:nonzero;stroke:none"
               d="m 260.16702,9.1790009 2.29398,-0.5600005 -0.017,-0.081 -3.25,-1.4019999 c -0.98898,-0.632 -1.978,-1.2649999 -2.96698,-1.8969999 0.63297,0.9889999 1.26498,1.9780002 1.897,2.967 L 259.526,11.456 l 0.073,0.025 0.56802,-2.3020001" /><path
               id="path94"
               style="fill:#000000;fill-opacity:1;fill-rule:nonzero;stroke:none"
               d="m 372.82901,68.975006 -1.22699,2.016998 0.069,0.046 3.29001,-1.306999 c 1.146,-0.251999 2.293,-0.503998 3.43896,-0.755997 -1.14596,-0.253006 -2.29296,-0.505005 -3.43896,-0.757004 l -3.29001,-1.306999 -0.069,0.035 1.22699,2.028999" /><path
               id="path96"
               style="fill:none;stroke:#000000;stroke-width:0.80000001;stroke-linecap:butt;stroke-linejoin:miter;stroke-miterlimit:4;stroke-dasharray:3, 3, 3, 3, 3;stroke-dashoffset:0;stroke-opacity:1"
               d="M 319.96301,81.823006 V 96.368004" /><path
               id="path98"
               style="fill:none;stroke:#000000;stroke-width:0.80000001;stroke-linecap:butt;stroke-linejoin:miter;stroke-miterlimit:4;stroke-dasharray:3, 3, 3, 3, 3, 3;stroke-dashoffset:0;stroke-opacity:1"
               d="M 319.96301,96.368004 V 118.23401" /><path
               id="path100"
               style="fill:none;stroke:#000000;stroke-width:1;stroke-linecap:butt;stroke-linejoin:miter;stroke-miterlimit:4;stroke-dasharray:none;stroke-opacity:1"
               d="m 319.96301,117.272 v 21.179" /><path
               id="path102"
               style="fill:#000000;fill-opacity:1;fill-rule:nonzero;stroke:none"
               d="m 319.96301,138.451 -2.018,-1.227 -0.046,0.069 1.307,3.29001 c 0.25199,1.14599 0.50501,2.29199 0.75699,3.43899 0.25202,-1.147 0.504,-2.293 0.75601,-3.43899 l 1.30698,-3.29001 -0.034,-0.069 -2.02899,1.227" /><text
               id="text106"
               style="font-variant:normal;font-weight:normal;font-size:9.56400013px;font-family:CMMI10;-inkscape-font-specification:CMMI10;writing-mode:lr-tb;fill:#000000;fill-opacity:1;fill-rule:nonzero;stroke:none"
               transform="matrix(1,0,0,-1,249.90129,5.4338999)"><tspan
                 id="tspan104"
                 y="0"
                 x="0">x</tspan></text>
<text
               id="text110"
               style="font-variant:normal;font-weight:normal;font-size:9.56400013px;font-family:CMMI10;-inkscape-font-specification:CMMI10;writing-mode:lr-tb;fill:#000000;fill-opacity:1;fill-rule:nonzero;stroke:none"
               transform="matrix(1,0,0,-1,371.12881,60.634438)"><tspan
                 id="tspan108"
                 y="0"
                 x="0">y</tspan></text>
<text
               id="text114"
               style="font-variant:normal;font-weight:normal;font-size:9.56400013px;font-family:CMMI10;-inkscape-font-specification:CMMI10;writing-mode:lr-tb;fill:#000000;fill-opacity:1;fill-rule:nonzero;stroke:none"
               transform="matrix(1,0,0,-1,323.52878,140.10172)"><tspan
                 id="tspan112"
                 y="0"
                 x="0">z</tspan></text>
<path
               id="path116"
               style="fill:#000000;fill-opacity:1;fill-rule:nonzero;stroke:#000000;stroke-width:1;stroke-linecap:butt;stroke-linejoin:miter;stroke-miterlimit:4;stroke-dasharray:none;stroke-opacity:1"
               d="m 273.49503,69.001007 h 54.33398" /><path
               id="path118"
               style="fill:#000000;fill-opacity:1;fill-rule:nonzero;stroke:none"
               d="m 321.04303,118.90401 c -0.25601,0.25599 -0.60901,0.414 -1,0.414 -0.78101,0 -1.414,-0.633 -1.414,-1.414 0,-0.781 0.63299,-1.415 1.414,-1.415 0.78098,0 1.41397,0.634 1.41397,1.415 0,0.39 -0.15799,0.74399 -0.41397,1" /><path
               id="path120"
               style="fill:none;stroke:#000000;stroke-width:1;stroke-linecap:butt;stroke-linejoin:miter;stroke-miterlimit:4;stroke-dasharray:none;stroke-opacity:1"
               d="M 242.79601,66.954002 H 229.729" /><path
               id="path122"
               style="fill:#000000;fill-opacity:1;fill-rule:nonzero;stroke:none"
               d="m 130.884,8.2580004 2.29401,-0.56 -0.017,-0.081 -3.25,-1.4020004 c -0.989,-0.632 -1.978,-1.264 -2.966,-1.8969999 0.63199,0.9889999 1.26399,1.9780002 1.89599,2.967 l 1.40201,3.2500009 0.073,0.025 0.56799,-2.3019988" /><path
               id="path124"
               style="fill:#000000;fill-opacity:1;fill-rule:nonzero;stroke:none"
               d="m 242.84502,66.778 -1.226,2.018005 0.068,0.046 3.29,-1.306999 c 1.147,-0.251999 2.29298,-0.503998 3.43901,-0.757004 -1.14603,-0.251999 -2.29201,-0.503998 -3.43901,-0.755997 l -3.29,-1.306999 -0.068,0.034 1.226,2.028999" /><path
               id="path126"
               style="fill:none;stroke:#000000;stroke-width:1;stroke-linecap:butt;stroke-linejoin:miter;stroke-miterlimit:4;stroke-dasharray:3, 3, 3, 3, 3;stroke-dashoffset:0;stroke-opacity:1"
               d="M 189.96301,58.347004 V 59.68" /><path
               id="path128"
               style="fill:none;stroke:#000000;stroke-width:0.80000001;stroke-linecap:butt;stroke-linejoin:miter;stroke-miterlimit:4;stroke-dasharray:3, 3, 3, 3, 3;stroke-dashoffset:0;stroke-opacity:1"
               d="M 189.96301,59.68 V 94.879997" /><path
               id="path130"
               style="fill:none;stroke:#000000;stroke-width:0.80000001;stroke-linecap:butt;stroke-linejoin:miter;stroke-miterlimit:4;stroke-dasharray:3, 3, 3, 3, 3, 3;stroke-dashoffset:0;stroke-opacity:1"
               d="M 189.96301,94.879997 V 116.74701" /><path
               id="path132"
               style="fill:none;stroke:#000000;stroke-width:1;stroke-linecap:butt;stroke-linejoin:miter;stroke-miterlimit:4;stroke-dasharray:none;stroke-opacity:1"
               d="M 189.96301,116.74701 V 136" /><path
               id="path134"
               style="fill:#000000;fill-opacity:1;fill-rule:nonzero;stroke:none"
               d="m 189.96301,135.429 -2.017,-1.226 -0.046,0.068 1.30701,3.28999 c 0.25199,1.14701 0.50399,2.293 0.75599,3.439 0.252,-1.146 0.50499,-2.29199 0.75699,-3.439 l 1.30602,-3.28999 -0.034,-0.068 -2.02899,1.226" /><text
               id="text138"
               style="font-variant:normal;font-weight:normal;font-size:9.56400013px;font-family:CMMI10;-inkscape-font-specification:CMMI10;writing-mode:lr-tb;fill:#000000;fill-opacity:1;fill-rule:nonzero;stroke:none"
               transform="matrix(1,0,0,-1,119.90179,3.9463999)"><tspan
                 id="tspan136"
                 y="0"
                 x="0">x</tspan></text>
<text
               id="text142"
               style="font-variant:normal;font-weight:normal;font-size:9.56400013px;font-family:CMMI10;-inkscape-font-specification:CMMI10;writing-mode:lr-tb;fill:#000000;fill-opacity:1;fill-rule:nonzero;stroke:none"
               transform="matrix(1,0,0,-1,241.12932,59.146938)"><tspan
                 id="tspan140"
                 y="0"
                 x="0">y</tspan></text>
<text
               id="text146"
               style="font-variant:normal;font-weight:normal;font-size:9.56400013px;font-family:CMMI10;-inkscape-font-specification:CMMI10;writing-mode:lr-tb;fill:#000000;fill-opacity:1;fill-rule:nonzero;stroke:none"
               transform="matrix(1,0,0,-1,181.52934,135.14726)"><tspan
                 id="tspan144"
                 y="0"
                 x="0">z</tspan></text>
<path
               id="path148"
               style="fill:#000000;fill-opacity:1;fill-rule:nonzero;stroke:none"
               d="m 208.90999,67.816002 c -0.25598,0.256004 -0.60898,0.413994 -1,0.413994 -0.78098,0 -1.41399,-0.632996 -1.41399,-1.413994 0,-0.780998 0.63301,-1.414002 1.41399,-1.414002 0.78102,0 1.41502,0.633004 1.41502,1.414002 0,0.389999 -0.15899,0.743996 -0.41502,1" /><path
               id="path150"
               style="fill:none;stroke:#000000;stroke-width:0.80000001;stroke-linecap:butt;stroke-linejoin:miter;stroke-miterlimit:4;stroke-dasharray:3, 3, 3, 3, 3;stroke-dashoffset:0;stroke-opacity:1"
               d="m 206.07701,67.252007 h -29.1" /><path
               id="path152"
               style="fill:none;stroke:#000000;stroke-width:1;stroke-linecap:butt;stroke-linejoin:miter;stroke-miterlimit:4;stroke-dasharray:none;stroke-opacity:1"
               d="M 207.39401,67.252007 H 230.06 m -51.43299,-11.184006 -48.4,-48.4000008" /><path
               id="path154"
               style="fill:none;stroke:#000000;stroke-width:0.80000001;stroke-linecap:butt;stroke-linejoin:miter;stroke-miterlimit:4;stroke-dasharray:3, 3, 3, 3, 3;stroke-dashoffset:0;stroke-opacity:1"
               d="m 177.95999,55.402004 11.33402,11.332997" /><path
               id="path156"
               style="fill:none;stroke:#000000;stroke-width:1;stroke-linecap:butt;stroke-linejoin:miter;stroke-miterlimit:4;stroke-dasharray:none;stroke-opacity:1"
               d="m 150.57701,67.268005 h 26.93298" /><text
               id="text160"
               style="font-variant:normal;font-weight:normal;font-size:9.56400013px;font-family:CMMI10;-inkscape-font-specification:CMMI10;writing-mode:lr-tb;fill:#000000;fill-opacity:1;fill-rule:nonzero;stroke:none"
               transform="matrix(1,0,0,-1,210.74519,80.5783)"><tspan
                 id="tspan158"
                 y="0"
                 x="0">D</tspan></text>
<text
               id="text164"
               style="font-variant:normal;font-weight:normal;font-size:9.56400013px;font-family:CMMI10;-inkscape-font-specification:CMMI10;writing-mode:lr-tb;fill:#000000;fill-opacity:1;fill-rule:nonzero;stroke:none"
               transform="matrix(1,0,0,-1,209.76967,70.747467)"><tspan
                 id="tspan162"
                 y="0"
                 x="0">B</tspan></text>
<text
               id="text168"
               style="font-variant:normal;font-weight:normal;font-size:9.56400013px;font-family:CMMI10;-inkscape-font-specification:CMMI10;writing-mode:lr-tb;fill:#000000;fill-opacity:1;fill-rule:nonzero;stroke:none"
               transform="matrix(1,0,0,-1,325.58875,117.26581)"><tspan
                 id="tspan166"
                 y="0"
                 x="0">D</tspan></text>
<text
               id="text172"
               style="font-variant:normal;font-weight:normal;font-size:9.56400013px;font-family:CMMI10;-inkscape-font-specification:CMMI10;writing-mode:lr-tb;fill:#000000;fill-opacity:1;fill-rule:nonzero;stroke:none"
               transform="matrix(1,0,0,-1,325.52084,106.63542)"><tspan
                 id="tspan170"
                 y="0"
                 x="0">C</tspan></text>
<text
               id="text176"
               style="font-variant:normal;font-weight:normal;font-size:9.56400013px;font-family:CMR10;-inkscape-font-specification:CMR10;writing-mode:lr-tb;fill:#000000;fill-opacity:1;fill-rule:nonzero;stroke:none"
               transform="matrix(1,0,0,-1,66.510521,3.1730275)"><tspan
                 id="tspan174"
                 y="0"
                 x="0 3.720396 8.5023956">(a)</tspan></text>
<text
               id="text180"
               style="font-variant:normal;font-weight:normal;font-size:9.56400013px;font-family:CMR10;-inkscape-font-specification:CMR10;writing-mode:lr-tb;fill:#000000;fill-opacity:1;fill-rule:nonzero;stroke:none"
               transform="matrix(1,0,0,-1,193.09579,2.8105519)"><tspan
                 id="tspan178"
                 y="0"
                 x="0 3.720396 9.0379801">(b)</tspan></text>
<text
               id="text184"
               style="font-variant:normal;font-weight:normal;font-size:9.56400013px;font-family:CMR10;-inkscape-font-specification:CMR10;writing-mode:lr-tb;fill:#000000;fill-opacity:1;fill-rule:nonzero;stroke:none"
               transform="matrix(1,0,0,-1,316.41306,2.9234071)"><tspan
                 id="tspan182"
                 y="0"
                 x="0 3.720396 7.9668121">(c)</tspan></text>
<path
               id="path186"
               style="fill:#000000;fill-opacity:1;fill-rule:nonzero;stroke:none"
               d="m 325.151,115.76401 h 8.18399 v -0.382 H 325.151 Z" /><path
               id="path188"
               style="fill:#000000;fill-opacity:1;fill-rule:nonzero;stroke:none"
               d="m 210.35201,79.076004 h 8.18401 V 78.694 h -8.18401 z" /><path
               id="path190"
               style="fill:none;stroke:#000000;stroke-width:1;stroke-linecap:butt;stroke-linejoin:miter;stroke-miterlimit:4;stroke-dasharray:none;stroke-opacity:1"
               d="M 319.97702,81.139008 V 68.873001 L 305.24301,54.139004" /></g></g></g></g></g></svg>