<?xml version="1.0" encoding="UTF-8" standalone="no"?>
<svg
   xmlns:dc="http://purl.org/dc/elements/1.1/"
   xmlns:cc="http://creativecommons.org/ns#"
   xmlns:rdf="http://www.w3.org/1999/02/22-rdf-syntax-ns#"
   xmlns:svg="http://www.w3.org/2000/svg"
   xmlns="http://www.w3.org/2000/svg"
   viewBox="0 0 169.33333 145.33333"
   height="145.33333"
   width="169.33333"
   xml:space="preserve"
   id="svg2"
   version="1.1"><metadata
     id="metadata8"><rdf:RDF><cc:Work
         rdf:about=""><dc:format>image/svg+xml</dc:format><dc:type
           rdf:resource="http://purl.org/dc/dcmitype/StillImage" /></cc:Work></rdf:RDF></metadata><defs
     id="defs6"><clipPath
       id="clipPath24"
       clipPathUnits="userSpaceOnUse"><path
         id="path22"
         d="M 0,0 H 127 V 109 H 0 Z" /></clipPath><clipPath
       id="clipPath86"
       clipPathUnits="userSpaceOnUse"><path
         id="path84"
         d="M 0,0.05999756 H 126.84801 V 108.87 H 0 Z" /></clipPath><clipPath
       id="clipPath108"
       clipPathUnits="userSpaceOnUse"><path
         id="path106"
         d="M 0,0.05999756 H 126.84801 V 108.87 H 0 Z" /></clipPath></defs><g
     transform="matrix(1.3333333,0,0,-1.3333333,0,145.33333)"
     id="g10"><g
       id="g12" /><g
       id="g14" /><g
       id="g16"><g
         id="g18"><g
           clip-path="url(#clipPath24)"
           id="g20"><g
             id="g26" /><g
             id="g28"><text
               id="text32"
               style="font-variant:normal;font-weight:normal;font-size:11.95500088px;font-family:CMMI12;-inkscape-font-specification:CMMI12;writing-mode:lr-tb;fill:#231f20;fill-opacity:1;fill-rule:nonzero;stroke:none"
               transform="matrix(1,0,0,-1,50.741199,57.8461)"><tspan
                 id="tspan30"
                 y="0"
                 x="0">y</tspan></text>
<text
               id="text36"
               style="font-variant:normal;font-weight:normal;font-size:11.95500088px;font-family:CMR12;-inkscape-font-specification:CMR12;writing-mode:lr-tb;fill:#231f20;fill-opacity:1;fill-rule:nonzero;stroke:none"
               transform="matrix(1,0,0,-1,60.198799,57.8461)"><tspan
                 id="tspan34"
                 y="0"
                 x="0">=</tspan></text>
<text
               id="text40"
               style="font-variant:normal;font-weight:normal;font-size:11.95500088px;font-family:CMR12;-inkscape-font-specification:CMR12;writing-mode:lr-tb;fill:#231f20;fill-opacity:1;fill-rule:nonzero;stroke:none"
               transform="matrix(1,0,0,-1,72.623634,57.8461)"><tspan
                 id="tspan38"
                 y="0"
                 x="0">2</tspan></text>
<text
               id="text44"
               style="font-variant:normal;font-weight:normal;font-size:11.95500088px;font-family:CMMI12;-inkscape-font-specification:CMMI12;writing-mode:lr-tb;fill:#231f20;fill-opacity:1;fill-rule:nonzero;stroke:none"
               transform="matrix(1,0,0,-1,78.476799,57.8461)"><tspan
                 id="tspan42"
                 y="0"
                 x="0">x</tspan></text>
<text
               id="text48"
               style="font-variant:normal;font-weight:normal;font-size:7.96999979px;font-family:CMR8;-inkscape-font-specification:CMR8;writing-mode:lr-tb;fill:#231f20;fill-opacity:1;fill-rule:nonzero;stroke:none"
               transform="matrix(1,0,0,-1,85.129898,62.782597)"><tspan
                 id="tspan46"
                 y="0"
                 x="0">2</tspan></text>
<text
               id="text52"
               style="font-variant:normal;font-weight:normal;font-size:11.95500088px;font-family:CMMI12;-inkscape-font-specification:CMMI12;writing-mode:lr-tb;fill:#231f20;fill-opacity:1;fill-rule:nonzero;stroke:none"
               transform="matrix(1,0,0,-1,54.262699,77.8461)"><tspan
                 id="tspan50"
                 y="0"
                 x="0">A</tspan></text>
<text
               id="text56"
               style="font-variant:normal;font-weight:normal;font-size:11.95500088px;font-family:CMR12;-inkscape-font-specification:CMR12;writing-mode:lr-tb;fill:#231f20;fill-opacity:1;fill-rule:nonzero;stroke:none"
               transform="matrix(1,0,0,-1,63.03767,77.8461)"><tspan
                 id="tspan54"
                 y="0"
                 x="0 4.5429006">(1</tspan></text>
<text
               id="text60"
               style="font-variant:normal;font-weight:normal;font-size:11.95500088px;font-family:CMMI12;-inkscape-font-specification:CMMI12;writing-mode:lr-tb;fill:#231f20;fill-opacity:1;fill-rule:nonzero;stroke:none"
               transform="matrix(1,0,0,-1,73.443306,77.8461)"><tspan
                 id="tspan58"
                 y="0"
                 x="0">,</tspan></text>
<text
               id="text64"
               style="font-variant:normal;font-weight:normal;font-size:11.95500088px;font-family:CMR12;-inkscape-font-specification:CMR12;writing-mode:lr-tb;fill:#231f20;fill-opacity:1;fill-rule:nonzero;stroke:none"
               transform="matrix(1,0,0,-1,78.687965,77.8461)"><tspan
                 id="tspan62"
                 y="0"
                 x="0 5.8459954">2)</tspan></text>
<text
               id="text68"
               style="font-variant:normal;font-weight:normal;font-size:11.95500088px;font-family:CMMI12;-inkscape-font-specification:CMMI12;writing-mode:lr-tb;fill:#231f20;fill-opacity:1;fill-rule:nonzero;stroke:none"
               transform="matrix(1,0,0,-1,42.551586,32.317871)"><tspan
                 id="tspan66"
                 y="0"
                 x="0">C</tspan></text>
<text
               id="text72"
               style="font-variant:normal;font-weight:normal;font-size:7.96999979px;font-family:CMR8;-inkscape-font-specification:CMR8;writing-mode:lr-tb;fill:#231f20;fill-opacity:1;fill-rule:nonzero;stroke:none"
               transform="matrix(1,0,0,-1,50.9268,30.5243)"><tspan
                 id="tspan70"
                 y="0"
                 x="0">2</tspan></text>
<path
               id="path74"
               style="fill:#ffffff;fill-opacity:1;fill-rule:nonzero;stroke:none"
               d="M 60.006004,16.974001 H 111.301" /><path
               id="path76"
               style="fill:none;stroke:#231f20;stroke-width:1;stroke-linecap:butt;stroke-linejoin:miter;stroke-miterlimit:4;stroke-dasharray:none;stroke-opacity:1"
               d="M 60.006004,16.974001 H 111.301" /><path
               id="path78"
               style="fill:#ffffff;fill-opacity:1;fill-rule:nonzero;stroke:none"
               d="M 0,16.974001 H 60.006004" /></g><g
             id="g80"><g
               clip-path="url(#clipPath86)"
               id="g82"><path
                 id="path88"
                 style="fill:none;stroke:#231f20;stroke-width:1;stroke-linecap:butt;stroke-linejoin:miter;stroke-miterlimit:4;stroke-dasharray:none;stroke-opacity:1"
                 d="M 0,16.974001 H 60.006004" /></g></g><g
             id="g90"><path
               id="path92"
               style="fill:#231f20;fill-opacity:1;fill-rule:nonzero;stroke:none"
               d="M 113.56801,17.957001 C 111.981,18.436001 110.95,18.878 109.676,19.389999 v -4.842998 c 0.455,0.217 2.305,0.952999 3.89201,1.431 1.698,0.514 3.239,0.864999 4.237,0.989999 -0.998,0.126 -2.539,0.477002 -4.237,0.989001" /><path
               id="path94"
               style="fill:#ffffff;fill-opacity:1;fill-rule:nonzero;stroke:none"
               d="M 19.779001,71.802002 V 100.174" /><path
               id="path96"
               style="fill:none;stroke:#231f20;stroke-width:1;stroke-linecap:butt;stroke-linejoin:miter;stroke-miterlimit:4;stroke-dasharray:none;stroke-opacity:1"
               d="M 19.779001,71.802002 V 100.174" /><path
               id="path98"
               style="fill:#ffffff;fill-opacity:1;fill-rule:nonzero;stroke:none"
               d="M 19.779001,10.001 V 71.802002" /><path
               id="path100"
               style="fill:none;stroke:#231f20;stroke-width:1;stroke-linecap:butt;stroke-linejoin:miter;stroke-miterlimit:4;stroke-dasharray:none;stroke-opacity:1"
               d="M 19.779001,10.001 V 71.802002" /></g><g
             id="g102"><g
               clip-path="url(#clipPath108)"
               id="g104"><path
                 id="path110"
                 style="fill:#ffffff;fill-opacity:1;fill-rule:nonzero;stroke:none"
                 d="M 19.779001,0 V 10.001" /><path
                 id="path112"
                 style="fill:none;stroke:#231f20;stroke-width:1;stroke-linecap:butt;stroke-linejoin:miter;stroke-miterlimit:4;stroke-dasharray:none;stroke-opacity:1"
                 d="M 19.779001,0 V 10.001" /></g></g><g
             id="g114"><path
               id="path116"
               style="fill:#231f20;fill-opacity:1;fill-rule:nonzero;stroke:none"
               d="m 18.797001,102.442 c -0.48,-1.588 -0.922001,-2.618994 -1.434,-3.892005 h 4.844 C 21.99,99.005005 21.254002,100.854 20.775002,102.442 c -0.513001,1.698 -0.865002,3.23901 -0.99,4.23701 C 19.66,105.68101 19.309,104.14 18.797001,102.442" /><text
               id="text120"
               style="font-variant:normal;font-weight:normal;font-size:11.95500088px;font-family:CMMI12;-inkscape-font-specification:CMMI12;writing-mode:lr-tb;fill:#231f20;fill-opacity:1;fill-rule:nonzero;stroke:none"
               transform="matrix(1,0,0,-1,24.700199,99.903694)"><tspan
                 id="tspan118"
                 y="0"
                 x="0">y</tspan></text>
<text
               id="text124"
               style="font-variant:normal;font-weight:normal;font-size:11.95500088px;font-family:CMR12;-inkscape-font-specification:CMR12;writing-mode:lr-tb;fill:#231f20;fill-opacity:1;fill-rule:nonzero;stroke:none"
               transform="matrix(1,0,0,-1,50.910343,6.488513)"><tspan
                 id="tspan122"
                 y="0"
                 x="0">1</tspan></text>
<text
               id="text128"
               style="font-variant:normal;font-weight:normal;font-size:11.95500088px;font-family:CMR12;-inkscape-font-specification:CMR12;writing-mode:lr-tb;fill:#231f20;fill-opacity:1;fill-rule:nonzero;stroke:none"
               transform="matrix(1,0,0,-1,12.500122,72.166893)"><tspan
                 id="tspan126"
                 y="0"
                 x="0">2</tspan></text>
<path
               id="path130"
               style="fill:none;stroke:#231f20;stroke-width:0.5;stroke-linecap:butt;stroke-linejoin:round;stroke-miterlimit:10;stroke-dasharray:none;stroke-opacity:1"
               d="m 19.607,17.178001 h 1.259001 m -0.630001,0.63 V 16.548 m -0.629,0.630001 h 1.259001 m -0.630001,0.63 V 16.548" /><path
               id="path132"
               style="fill:none;stroke:#231f20;stroke-width:2;stroke-linecap:butt;stroke-linejoin:round;stroke-miterlimit:10;stroke-dasharray:none;stroke-opacity:1"
               d="m 38.482002,35.745003 0.326,0.682998 0.335999,0.700001 0.324001,0.700001 0.336998,0.717998 0.324997,0.716999 0.336006,0.753003 0.326001,0.733997 0.335998,0.77 0.326,0.770001 0.335999,0.788002 0.325001,0.805 0.335998,0.805001 0.326,0.821994 0.335003,0.84 0.326001,0.841004 0.335998,0.857002 0.326,0.875 0.335999,0.876 0.325001,0.891998 0.336002,0.909 0.325996,0.911 0.335003,0.927002 0.325001,0.944999 0.336994,0.963001 0.326004,0.961998 0.334999,0.963002 0.326,0.996998 0.336003,0.998001 0.335998,1.014999 0.326001,1.014999 0.334995,1.032002 0.326004,1.049999 0.336002,1.068005 0.324997,1.066993 0.336003,1.085 0.662998,2.205001 0.323997,1.103005 0.336003,1.137001 0.326999,1.137993 0.335003,1.155006 0.324997,1.171997 0.336998,1.173004 0.325005,1.189995 M 26.239,18.893002 26.574001,19.138 26.9,19.401001 27.236002,19.663 l 0.326,0.280001 0.335999,0.28 0.325,0.296999 0.336998,0.315001 0.325003,0.333 0.335999,0.333 0.325,0.348999 0.336001,0.368 0.326,0.368 0.335999,0.385001 0.325,0.402 0.337,0.402001 0.325001,0.420999 0.335999,0.437 0.325,0.438 0.337002,0.454001 0.324997,0.472999 0.335999,0.473 0.325004,0.489999 0.336998,0.507 0.325001,0.507 0.335998,0.525 0.325001,0.543001 0.337002,0.56 0.326,0.560001 0.334999,0.577999 0.661999,1.172001 0.325001,0.612999 0.335998,0.611999 0.325001,0.648003 0.337002,0.628998 0.324997,0.666 0.336002,0.664002 M 19.624001,16.531 h 0.335001 l 0.326999,0.017 0.334999,0.035 0.326001,0.035 0.336,0.053 0.325001,0.07 0.335998,0.087 0.325999,0.087 0.337001,0.088 0.324002,0.122 0.335998,0.123001 0.326,0.139999 0.336001,0.140002 0.325001,0.156999 L 24.59,17.861 l 0.326,0.192001 0.336001,0.192999 0.325001,0.210001 0.336999,0.209 0.324999,0.228001 m 10.499003,13.484001 3.187,7.064998" /><path
               id="path134"
               style="fill:#231f20;fill-opacity:1;fill-rule:nonzero;stroke:none"
               d="m 40.636002,43.709003 c -1.520001,-1.43 -2.626999,-2.246002 -3.963002,-3.281002 l 4.405003,-4.243999 c 0.114998,0.721001 0.708,3.522999 1.356998,5.791 0.694996,2.431 1.429001,4.534001 1.997002,5.808998 C 43.635002,46.729004 42.263,45.241001 40.636002,43.709003" /><text
               id="text138"
               style="font-variant:normal;font-weight:normal;font-size:11.95500088px;font-family:CMMI12;-inkscape-font-specification:CMMI12;writing-mode:lr-tb;fill:#231f20;fill-opacity:1;fill-rule:nonzero;stroke:none"
               transform="matrix(1,0,0,-1,120.2,12.4037)"><tspan
                 id="tspan136"
                 y="0"
                 x="0">x</tspan></text>
</g></g></g></g></g></svg>