<?xml version="1.0" encoding="UTF-8" standalone="no"?>
<svg
   xmlns:dc="http://purl.org/dc/elements/1.1/"
   xmlns:cc="http://creativecommons.org/ns#"
   xmlns:rdf="http://www.w3.org/1999/02/22-rdf-syntax-ns#"
   xmlns:svg="http://www.w3.org/2000/svg"
   xmlns="http://www.w3.org/2000/svg"
   viewBox="0 0 554.66669 118.66667"
   height="118.66667"
   width="554.66669"
   xml:space="preserve"
   id="svg2"
   version="1.1"><metadata
     id="metadata8"><rdf:RDF><cc:Work
         rdf:about=""><dc:format>image/svg+xml</dc:format><dc:type
           rdf:resource="http://purl.org/dc/dcmitype/StillImage" /></cc:Work></rdf:RDF></metadata><defs
     id="defs6"><clipPath
       id="clipPath24"
       clipPathUnits="userSpaceOnUse"><path
         id="path22"
         d="M 0,0 H 416 V 89 H 0 Z" /></clipPath><clipPath
       id="clipPath50"
       clipPathUnits="userSpaceOnUse"><path
         id="path48"
         d="M 0.06,0.06000519 H 415.5 V 89 H 0.06 Z" /></clipPath><clipPath
       id="clipPath96"
       clipPathUnits="userSpaceOnUse"><path
         id="path94"
         d="M 0.06,0.06000519 H 415.5 V 89 H 0.06 Z" /></clipPath><clipPath
       id="clipPath128"
       clipPathUnits="userSpaceOnUse"><path
         style="clip-rule:evenodd"
         id="path126"
         d="m 303,65 -16,-2 v 4 l 16,-2" /></clipPath><clipPath
       id="clipPath142"
       clipPathUnits="userSpaceOnUse"><path
         style="clip-rule:evenodd"
         id="path140"
         d="m 399,64.5 -16,-2 v 4 l 16,-2" /></clipPath><clipPath
       id="clipPath152"
       clipPathUnits="userSpaceOnUse"><path
         id="path150"
         d="M 0.06,0.06000519 H 415.5 V 89 H 0.06 Z" /></clipPath><clipPath
       id="clipPath174"
       clipPathUnits="userSpaceOnUse"><path
         id="path172"
         d="M 0.06,0.06000519 H 415.5 V 89 H 0.06 Z" /></clipPath><clipPath
       id="clipPath194"
       clipPathUnits="userSpaceOnUse"><path
         id="path192"
         d="M 0.06,0.06000519 H 415.5 V 89 H 0.06 Z" /></clipPath></defs><g
     transform="matrix(1.3333333,0,0,-1.3333333,0,118.66667)"
     id="g10"><g
       id="g12" /><g
       id="g14" /><g
       id="g16"><g
         id="g18"><g
           clip-path="url(#clipPath24)"
           id="g20"><g
             id="g26" /><g
             id="g28"><path
               id="path30"
               style="fill:#231f20;fill-opacity:1;fill-rule:evenodd;stroke:none"
               d="M 53.5,63.5 37,61.25 v 4.5 L 53.5,63.5" /><path
               id="path32"
               style="fill:#231f20;fill-opacity:1;fill-rule:nonzero;stroke:none"
               d="m 53.5,63.5 h 0.25 V 63.25 L 37.25,61 H 37 v 0.25" /><path
               id="path34"
               style="fill:none;stroke:#231f20;stroke-width:0.25;stroke-linecap:butt;stroke-linejoin:miter;stroke-miterlimit:10;stroke-dasharray:none;stroke-opacity:1"
               d="M 37.125,63.5 V 61 m 0,4.75 v -2.5" /><path
               id="path36"
               style="fill:#231f20;fill-opacity:1;fill-rule:nonzero;stroke:none"
               d="m 37,65.75 h 0.25 L 53.75,63.5 V 63.25 H 53.5 L 37,65.5" /><path
               id="path38"
               style="fill:#231f20;fill-opacity:1;fill-rule:nonzero;stroke:none"
               d="m 53.5,63.5 h 0.25 V 63.25 L 37.25,61 H 37 v 0.25" /><path
               id="path40"
               style="fill:none;stroke:#231f20;stroke-width:0.25;stroke-linecap:butt;stroke-linejoin:miter;stroke-miterlimit:10;stroke-dasharray:none;stroke-opacity:1"
               d="M 37.125,63.5 V 61 m 0,4.75 v -2.5" /><path
               id="path42"
               style="fill:#231f20;fill-opacity:1;fill-rule:nonzero;stroke:none"
               d="m 37,65.75 h 0.25 L 53.75,63.5 V 63.25 H 53.5 L 37,65.5" /></g><g
             id="g44"><g
               clip-path="url(#clipPath50)"
               id="g46"><path
                 id="path52"
                 style="fill:none;stroke:#231f20;stroke-width:1;stroke-linecap:butt;stroke-linejoin:miter;stroke-miterlimit:10;stroke-dasharray:none;stroke-opacity:1"
                 d="m 0,63.5 h 37.5 m -26,0 H 67" /></g></g><g
             id="g54"><path
               id="path56"
               style="fill:#231f20;fill-opacity:1;fill-rule:evenodd;stroke:none"
               d="M 160.5,62.5 144,60.25 v 4.5 l 16.5,-2.25" /><path
               id="path58"
               style="fill:#231f20;fill-opacity:1;fill-rule:nonzero;stroke:none"
               d="m 160.5,62.5 h 0.25 V 62.25 L 144.25,60 H 144 v 0.25" /><path
               id="path60"
               style="fill:none;stroke:#231f20;stroke-width:0.25;stroke-linecap:butt;stroke-linejoin:miter;stroke-miterlimit:10;stroke-dasharray:none;stroke-opacity:1"
               d="M 144.12601,62.5 V 60 m 0,4.75 v -2.5" /><path
               id="path62"
               style="fill:#231f20;fill-opacity:1;fill-rule:nonzero;stroke:none"
               d="m 144,64.75 h 0.25 l 16.5,-2.25 V 62.25 H 160.5 L 144,64.5" /><path
               id="path64"
               style="fill:#231f20;fill-opacity:1;fill-rule:nonzero;stroke:none"
               d="m 160.5,62.5 h 0.25 V 62.25 L 144.25,60 H 144 v 0.25" /><path
               id="path66"
               style="fill:none;stroke:#231f20;stroke-width:0.25;stroke-linecap:butt;stroke-linejoin:miter;stroke-miterlimit:10;stroke-dasharray:none;stroke-opacity:1"
               d="M 144.12601,62.5 V 60 m 0,4.75 v -2.5" /><path
               id="path68"
               style="fill:#231f20;fill-opacity:1;fill-rule:nonzero;stroke:none"
               d="m 144,64.75 h 0.25 l 16.5,-2.25 V 62.25 H 160.5 L 144,64.5" /><path
               id="path70"
               style="fill:none;stroke:#231f20;stroke-width:1;stroke-linecap:butt;stroke-linejoin:miter;stroke-miterlimit:10;stroke-dasharray:none;stroke-opacity:1"
               d="m 106,62.5 h 38.5 m -12.5,0 h 78" /><path
               id="path72"
               style="fill:#ffffff;fill-opacity:1;fill-rule:nonzero;stroke:none"
               d="m 105.93999,63.98 c 0,-9.935997 -8.511989,-18 -18.999995,-18 -10.487992,0 -19,8.064003 -19,18 0,9.936 8.512008,17.999996 19,17.999996 10.488006,0 18.999995,-8.063996 18.999995,-17.999996" /><path
               id="path74"
               style="fill:none;stroke:#231f20;stroke-width:1;stroke-linecap:butt;stroke-linejoin:miter;stroke-miterlimit:10;stroke-dasharray:none;stroke-opacity:1"
               d="m 105.43999,63.98 c 0,-9.66 -8.287982,-17.5 -18.499995,-17.5 -10.211991,0 -18.5,7.84 -18.5,17.5 0,9.659999 8.288009,17.499996 18.5,17.499996 10.212013,0 18.499995,-7.839997 18.499995,-17.499996 z" /><path
               id="path76"
               style="fill:#231f20;fill-opacity:1;fill-rule:evenodd;stroke:none"
               d="m 86,28.25 2.25,-16.5 h -4.5 L 86,28.25" /><path
               id="path78"
               style="fill:#231f20;fill-opacity:1;fill-rule:nonzero;stroke:none"
               d="m 86,28.25 h 0.25 L 88.5,11.75 V 11.5 H 88.25 L 86,28" /><path
               id="path80"
               style="fill:none;stroke:#231f20;stroke-width:0.25;stroke-linecap:butt;stroke-linejoin:miter;stroke-miterlimit:10;stroke-dasharray:none;stroke-opacity:1"
               d="m 86,11.625001 h 2.5 m -4.75,0 h 2.5" /><path
               id="path82"
               style="fill:#231f20;fill-opacity:1;fill-rule:nonzero;stroke:none"
               d="m 86,28.25 h 0.25 V 28 L 84,11.5 h -0.25 v 0.25" /><path
               id="path84"
               style="fill:#231f20;fill-opacity:1;fill-rule:nonzero;stroke:none"
               d="m 86,28.25 h 0.25 L 88.5,11.75 V 11.5 H 88.25 L 86,28" /><path
               id="path86"
               style="fill:none;stroke:#231f20;stroke-width:0.25;stroke-linecap:butt;stroke-linejoin:miter;stroke-miterlimit:10;stroke-dasharray:none;stroke-opacity:1"
               d="m 86,11.625001 h 2.5 m -4.75,0 h 2.5" /><path
               id="path88"
               style="fill:#231f20;fill-opacity:1;fill-rule:nonzero;stroke:none"
               d="m 86,28.25 h 0.25 V 28 L 84,11.5 h -0.25 v 0.25" /></g><g
             id="g90"><g
               clip-path="url(#clipPath96)"
               id="g92"><path
                 id="path98"
                 style="fill:none;stroke:#231f20;stroke-width:1;stroke-linecap:butt;stroke-linejoin:miter;stroke-miterlimit:10;stroke-dasharray:none;stroke-opacity:1"
                 d="M 86,12.25 V 0.5 M 86,46 V 11" /></g></g><g
             id="g100"><text
               id="text104"
               style="font-style:italic;font-variant:normal;font-size:18px;font-family:Times;-inkscape-font-specification:Times-Italic;writing-mode:lr-tb;fill:#231f20;fill-opacity:1;fill-rule:nonzero;stroke:none"
               transform="matrix(1,0,0,-1,53,70.5)"><tspan
                 id="tspan102"
                 y="0"
                 x="0">+</tspan></text>
<text
               id="text108"
               style="font-style:italic;font-variant:normal;font-weight:bold;font-size:12px;font-family:Times;-inkscape-font-specification:Times-BoldItalic;writing-mode:lr-tb;fill:#231f20;fill-opacity:1;fill-rule:nonzero;stroke:none"
               transform="matrix(1,0,0,-1,90,34.5)"><tspan
                 id="tspan106"
                 y="0"
                 x="0">—</tspan></text>
<text
               id="text112"
               style="font-style:italic;font-variant:normal;font-size:12px;font-family:Times;-inkscape-font-specification:Times-Italic;writing-mode:lr-tb;fill:#231f20;fill-opacity:1;fill-rule:nonzero;stroke:none"
               transform="matrix(1,0,0,-1,23.499601,71.000397)"><tspan
                 id="tspan110"
                 y="0"
                 x="0 7.3319998 11.328 15.996">F(s)</tspan></text>
<text
               id="text116"
               style="font-style:italic;font-variant:normal;font-size:12px;font-family:Times;-inkscape-font-specification:Times-Italic;writing-mode:lr-tb;fill:#231f20;fill-opacity:1;fill-rule:nonzero;stroke:none"
               transform="matrix(1,0,0,-1,133.5,73.5)"><tspan
                 id="tspan114"
                 y="0"
                 x="0 6.6719999 9.6719999 13.668 18.336">Y (s)</tspan></text>
<text
               id="text120"
               style="font-style:italic;font-variant:normal;font-size:12px;font-family:Times;-inkscape-font-specification:Times-Italic;writing-mode:lr-tb;fill:#231f20;fill-opacity:1;fill-rule:nonzero;stroke:none"
               transform="matrix(1,0,0,-1,60.500404,13.5)"><tspan
                 id="tspan118"
                 y="0"
                 x="0 6.6719999 10.668 15.336">Y(s)</tspan></text>
</g><g
             id="g122"><g
               clip-path="url(#clipPath128)"
               id="g124"><path
                 id="path130"
                 style="fill:#231f20;fill-opacity:1;fill-rule:nonzero;stroke:none"
                 d="m 287,67 h 16 v -4 h -16 z" /></g></g><g
             id="g132"><path
               id="path134"
               style="fill:none;stroke:#231f20;stroke-width:1;stroke-linecap:butt;stroke-linejoin:miter;stroke-miterlimit:10;stroke-dasharray:none;stroke-opacity:1"
               d="m 303,65 -16,-2 v 4 z m -60.5,0 h 45 m -17,0 h 65" /></g><g
             id="g136"><g
               clip-path="url(#clipPath142)"
               id="g138"><path
                 id="path144"
                 style="fill:#231f20;fill-opacity:1;fill-rule:nonzero;stroke:none"
                 d="m 383,66.5 h 16 v -4 h -16 z" /></g></g><g
             id="g146"><g
               clip-path="url(#clipPath152)"
               id="g148"><path
                 id="path154"
                 style="fill:none;stroke:#231f20;stroke-width:1;stroke-linecap:butt;stroke-linejoin:miter;stroke-miterlimit:10;stroke-dasharray:none;stroke-opacity:1"
                 d="m 399,64.5 -16,-2 v 4 z m -66.5,0 h 51 m -45.5,0 h 77.5" /></g></g><g
             id="g156"><path
               id="path158"
               style="fill:#231f20;fill-opacity:1;fill-rule:nonzero;stroke:none"
               d="m 338.95999,64.939995 c 0,-3.311993 -2.91199,-5.999996 -6.5,-5.999996 -3.58697,0 -6.5,2.688003 -6.5,5.999996 0,3.312012 2.91303,6 6.5,6 3.58801,0 6.5,-2.687988 6.5,-6" /><path
               id="path160"
               style="fill:none;stroke:#231f20;stroke-width:1;stroke-linecap:butt;stroke-linejoin:miter;stroke-miterlimit:10;stroke-dasharray:none;stroke-opacity:1"
               d="m 338.45999,64.939995 c 0,-3.035992 -2.68698,-5.499996 -6,-5.499996 -3.31097,0 -6,2.464004 -6,5.499996 0,3.036011 2.68903,5.5 6,5.5 3.31302,0 6,-2.463989 6,-5.5 z" /><text
               id="text164"
               style="font-style:italic;font-variant:normal;font-size:12px;font-family:Times;-inkscape-font-specification:Times-Italic;writing-mode:lr-tb;fill:#231f20;fill-opacity:1;fill-rule:nonzero;stroke:none"
               transform="matrix(1,0,0,-1,378,74)"><tspan
                 id="tspan162"
                 y="0"
                 x="0 6.6719999 10.668 15.336">Y(s)</tspan></text>
<path
               id="path166"
               style="fill:#ffffff;fill-opacity:1;fill-rule:nonzero;stroke:none"
               d="m 175,89 h 96 V 34 h -96 z" /></g><g
             id="g168"><g
               clip-path="url(#clipPath174)"
               id="g170"><path
                 id="path176"
                 style="fill:none;stroke:#231f20;stroke-width:1;stroke-linecap:butt;stroke-linejoin:miter;stroke-miterlimit:10;stroke-dasharray:none;stroke-opacity:1"
                 d="m 175.5,88.5 h 95 v -54 h -95 z" /></g></g><g
             id="g178"><text
               id="text182"
               style="font-style:italic;font-variant:normal;font-size:12px;font-family:Times;-inkscape-font-specification:Times-Italic;writing-mode:lr-tb;fill:#231f20;fill-opacity:1;fill-rule:nonzero;stroke:none"
               transform="matrix(1,0,0,-1,213.5,59.5)"><tspan
                 id="tspan180"
                 y="0"
                 x="0 8.6639996 12.66 17.327999">G(s)</tspan></text>
<text
               id="text186"
               style="font-style:italic;font-variant:normal;font-size:9px;font-family:Times;-inkscape-font-specification:Times-Italic;writing-mode:lr-tb;fill:#231f20;fill-opacity:1;fill-rule:nonzero;stroke:none"
               transform="matrix(1,0,0,-1,138,69)"><tspan
                 id="tspan184"
                 y="0"
                 x="0">1</tspan></text>
</g><g
             id="g188"><g
               clip-path="url(#clipPath194)"
               id="g190"><path
                 id="path196"
                 style="fill:none;stroke:#231f20;stroke-width:1;stroke-linecap:butt;stroke-linejoin:miter;stroke-miterlimit:10;stroke-dasharray:none;stroke-opacity:1"
                 d="M 332.5,59 V 0.45999998 M 86,0.5 h 248" /></g></g></g></g></g></g></svg>