<?xml version="1.0" encoding="UTF-8" standalone="no"?>
<svg
   xmlns:dc="http://purl.org/dc/elements/1.1/"
   xmlns:cc="http://creativecommons.org/ns#"
   xmlns:rdf="http://www.w3.org/1999/02/22-rdf-syntax-ns#"
   xmlns:svg="http://www.w3.org/2000/svg"
   xmlns="http://www.w3.org/2000/svg"
   viewBox="0 0 597.33331 73.333336"
   height="73.333336"
   width="597.33331"
   xml:space="preserve"
   id="svg2"
   version="1.1"><metadata
     id="metadata8"><rdf:RDF><cc:Work
         rdf:about=""><dc:format>image/svg+xml</dc:format><dc:type
           rdf:resource="http://purl.org/dc/dcmitype/StillImage" /></cc:Work></rdf:RDF></metadata><defs
     id="defs6"><clipPath
       id="clipPath24"
       clipPathUnits="userSpaceOnUse"><path
         id="path22"
         d="M 0,0 H 448 V 55 H 0 Z" /></clipPath><clipPath
       id="clipPath50"
       clipPathUnits="userSpaceOnUse"><path
         id="path48"
         d="M 0.06,0.06000137 H 447.75 V 55 H 0.06 Z" /></clipPath><clipPath
       id="clipPath66"
       clipPathUnits="userSpaceOnUse"><path
         id="path64"
         d="M 0.06,0.06000137 H 447.75 V 55 H 0.06 Z" /></clipPath><clipPath
       id="clipPath94"
       clipPathUnits="userSpaceOnUse"><path
         id="path92"
         d="M 0.06,0.06000137 H 447.75 V 55 H 0.06 Z" /></clipPath><clipPath
       id="clipPath120"
       clipPathUnits="userSpaceOnUse"><path
         id="path118"
         d="M 0.06,0.06000137 H 447.75 V 55 H 0.06 Z" /></clipPath></defs><g
     transform="matrix(1.3333333,0,0,-1.3333333,0,73.333333)"
     id="g10"><g
       id="g12" /><g
       id="g14" /><g
       id="g16"><g
         id="g18"><g
           clip-path="url(#clipPath24)"
           id="g20"><g
             id="g26" /><g
             id="g28"><path
               id="path30"
               style="fill:#231f20;fill-opacity:1;fill-rule:evenodd;stroke:none"
               d="m 398.25,25.5 -16.5,-2.25 v 4.5 l 16.5,-2.25" /><path
               id="path32"
               style="fill:#231f20;fill-opacity:1;fill-rule:nonzero;stroke:none"
               d="m 398.25,25.5 h 0.25 V 25.25 L 382,23 h -0.25 v 0.25" /><path
               id="path34"
               style="fill:none;stroke:#231f20;stroke-width:0.25;stroke-linecap:butt;stroke-linejoin:miter;stroke-miterlimit:10;stroke-dasharray:none;stroke-opacity:1"
               d="M 381.87601,25.5 V 23 m 0,4.75 v -2.5" /><path
               id="path36"
               style="fill:#231f20;fill-opacity:1;fill-rule:nonzero;stroke:none"
               d="M 381.75,27.75 H 382 l 16.5,-2.25 v -0.25 h -0.25 l -16.5,2.25" /><path
               id="path38"
               style="fill:#231f20;fill-opacity:1;fill-rule:nonzero;stroke:none"
               d="m 398.25,25.5 h 0.25 V 25.25 L 382,23 h -0.25 v 0.25" /><path
               id="path40"
               style="fill:none;stroke:#231f20;stroke-width:0.25;stroke-linecap:butt;stroke-linejoin:miter;stroke-miterlimit:10;stroke-dasharray:none;stroke-opacity:1"
               d="M 381.87601,25.5 V 23 m 0,4.75 v -2.5" /><path
               id="path42"
               style="fill:#231f20;fill-opacity:1;fill-rule:nonzero;stroke:none"
               d="M 381.75,27.75 H 382 l 16.5,-2.25 v -0.25 h -0.25 l -16.5,2.25" /></g><g
             id="g44"><g
               clip-path="url(#clipPath50)"
               id="g46"><path
                 id="path52"
                 style="fill:none;stroke:#231f20;stroke-width:1;stroke-linecap:butt;stroke-linejoin:miter;stroke-miterlimit:10;stroke-dasharray:none;stroke-opacity:1"
                 d="m 343.75,25.5 h 38.5 m -12.5,0 h 78" /></g></g><g
             id="g54"><text
               id="text58"
               style="font-style:italic;font-variant:normal;font-size:12px;font-family:Times;-inkscape-font-specification:Times-Italic;writing-mode:lr-tb;fill:#231f20;fill-opacity:1;fill-rule:nonzero;stroke:none"
               transform="matrix(1,0,0,-1,381.25,34.5)"><tspan
                 id="tspan56"
                 y="0"
                 x="0 6.6719999 10.668 15.336">Y(s)</tspan></text>
</g><g
             id="g60"><g
               clip-path="url(#clipPath66)"
               id="g62"><path
                 id="path68"
                 style="fill:#ffffff;fill-opacity:1;fill-rule:nonzero;stroke:none"
                 d="m 102.75,55 h 81 V 0.060001 h -81 z" /><path
                 id="path70"
                 style="fill:none;stroke:#231f20;stroke-width:1;stroke-linecap:butt;stroke-linejoin:miter;stroke-miterlimit:10;stroke-dasharray:none;stroke-opacity:1"
                 d="m 103.25,54.5 h 80 v -54 h -80 z" /></g></g><g
             id="g72"><path
               id="path74"
               style="fill:#231f20;fill-opacity:1;fill-rule:evenodd;stroke:none"
               d="m 53.25,26.5 -16.5,-2.25 v 4.5 l 16.5,-2.25" /><path
               id="path76"
               style="fill:#231f20;fill-opacity:1;fill-rule:nonzero;stroke:none"
               d="M 53.25,26.5 H 53.5 V 26.25 L 37,24 h -0.25 v 0.25" /><path
               id="path78"
               style="fill:none;stroke:#231f20;stroke-width:0.25;stroke-linecap:butt;stroke-linejoin:miter;stroke-miterlimit:10;stroke-dasharray:none;stroke-opacity:1"
               d="M 36.875,26.5 V 24 m 0,4.75 v -2.5" /><path
               id="path80"
               style="fill:#231f20;fill-opacity:1;fill-rule:nonzero;stroke:none"
               d="M 36.75,28.75 H 37 L 53.5,26.5 v -0.25 h -0.25 l -16.5,2.25" /><path
               id="path82"
               style="fill:#231f20;fill-opacity:1;fill-rule:nonzero;stroke:none"
               d="M 53.25,26.5 H 53.5 V 26.25 L 37,24 h -0.25 v 0.25" /><path
               id="path84"
               style="fill:none;stroke:#231f20;stroke-width:0.25;stroke-linecap:butt;stroke-linejoin:miter;stroke-miterlimit:10;stroke-dasharray:none;stroke-opacity:1"
               d="M 36.875,26.5 V 24 m 0,4.75 v -2.5" /><path
               id="path86"
               style="fill:#231f20;fill-opacity:1;fill-rule:nonzero;stroke:none"
               d="M 36.75,28.75 H 37 L 53.5,26.5 v -0.25 h -0.25 l -16.5,2.25" /></g><g
             id="g88"><g
               clip-path="url(#clipPath94)"
               id="g90"><path
                 id="path96"
                 style="fill:none;stroke:#231f20;stroke-width:0.5;stroke-linecap:butt;stroke-linejoin:miter;stroke-miterlimit:10;stroke-dasharray:none;stroke-opacity:1"
                 d="M 0,26.5 H 37" /></g></g><g
             id="g98"><path
               id="path100"
               style="fill:none;stroke:#231f20;stroke-width:1;stroke-linecap:butt;stroke-linejoin:miter;stroke-miterlimit:10;stroke-dasharray:none;stroke-opacity:1"
               d="m 25.25,26.5 h 76.5" /><text
               id="text104"
               style="font-style:italic;font-variant:normal;font-size:12px;font-family:Times;-inkscape-font-specification:Times-Italic;writing-mode:lr-tb;fill:#231f20;fill-opacity:1;fill-rule:nonzero;stroke:none"
               transform="matrix(1,0,0,-1,35.25,39.5)"><tspan
                 id="tspan102"
                 y="0"
                 x="0 7.3319998 11.328 15.996">F(s)</tspan></text>
<text
               id="text108"
               style="font-style:italic;font-variant:normal;font-size:12px;font-family:Times;-inkscape-font-specification:Times-Italic;writing-mode:lr-tb;fill:#231f20;fill-opacity:1;fill-rule:nonzero;stroke:none"
               transform="matrix(1,0,0,-1,132.2496,25.750401)"><tspan
                 id="tspan106"
                 y="0"
                 x="0 8.6639996 11.664 15.66 20.327999">G (s)</tspan></text>
<text
               id="text112"
               style="font-style:italic;font-variant:normal;font-size:9px;font-family:Times;-inkscape-font-specification:Times-Italic;writing-mode:lr-tb;fill:#231f20;fill-opacity:1;fill-rule:nonzero;stroke:none"
               transform="matrix(1,0,0,-1,139.25,21.5)"><tspan
                 id="tspan110"
                 y="0"
                 x="0">1</tspan></text>
</g><g
             id="g114"><g
               clip-path="url(#clipPath120)"
               id="g116"><path
                 id="path122"
                 style="fill:#ffffff;fill-opacity:1;fill-rule:nonzero;stroke:none"
                 d="m 276.75,55 h 81 V 0.060001 h -81 z" /><path
                 id="path124"
                 style="fill:none;stroke:#231f20;stroke-width:1;stroke-linecap:butt;stroke-linejoin:miter;stroke-miterlimit:10;stroke-dasharray:none;stroke-opacity:1"
                 d="m 277.25,54.5 h 80 v -54 h -80 z" /></g></g><g
             id="g126"><path
               id="path128"
               style="fill:#231f20;fill-opacity:1;fill-rule:evenodd;stroke:none"
               d="m 227.25,26.5 -16.5,-2.25 v 4.5 l 16.5,-2.25" /><path
               id="path130"
               style="fill:#231f20;fill-opacity:1;fill-rule:nonzero;stroke:none"
               d="m 227.25,26.5 h 0.25 V 26.25 L 211,24 h -0.25 v 0.25" /><path
               id="path132"
               style="fill:none;stroke:#231f20;stroke-width:0.25;stroke-linecap:butt;stroke-linejoin:miter;stroke-miterlimit:10;stroke-dasharray:none;stroke-opacity:1"
               d="M 210.87601,26.5 V 24 m 0,4.75 v -2.5" /><path
               id="path134"
               style="fill:#231f20;fill-opacity:1;fill-rule:nonzero;stroke:none"
               d="M 210.75,28.75 H 211 l 16.5,-2.25 v -0.25 h -0.25 l -16.5,2.25" /><path
               id="path136"
               style="fill:#231f20;fill-opacity:1;fill-rule:nonzero;stroke:none"
               d="m 227.25,26.5 h 0.25 V 26.25 L 211,24 h -0.25 v 0.25" /><path
               id="path138"
               style="fill:none;stroke:#231f20;stroke-width:0.25;stroke-linecap:butt;stroke-linejoin:miter;stroke-miterlimit:10;stroke-dasharray:none;stroke-opacity:1"
               d="M 210.87601,26.5 V 24 m 0,4.75 v -2.5" /><path
               id="path140"
               style="fill:#231f20;fill-opacity:1;fill-rule:nonzero;stroke:none"
               d="M 210.75,28.75 H 211 l 16.5,-2.25 v -0.25 h -0.25 l -16.5,2.25" /><path
               id="path142"
               style="fill:none;stroke:#231f20;stroke-width:0.5;stroke-linecap:butt;stroke-linejoin:miter;stroke-miterlimit:10;stroke-dasharray:none;stroke-opacity:1"
               d="m 183,26.5 h 28" /><path
               id="path144"
               style="fill:none;stroke:#231f20;stroke-width:1;stroke-linecap:butt;stroke-linejoin:miter;stroke-miterlimit:10;stroke-dasharray:none;stroke-opacity:1"
               d="m 212,26.5 h 63.75" /><text
               id="text148"
               style="font-style:italic;font-variant:normal;font-size:12px;font-family:Times;-inkscape-font-specification:Times-Italic;writing-mode:lr-tb;fill:#231f20;fill-opacity:1;fill-rule:nonzero;stroke:none"
               transform="matrix(1,0,0,-1,209.25,39.5)"><tspan
                 id="tspan146"
                 y="0"
                 x="0 7.3319998 11.328 15.996">X(s)</tspan></text>
<text
               id="text152"
               style="font-style:italic;font-variant:normal;font-size:12px;font-family:Times;-inkscape-font-specification:Times-Italic;writing-mode:lr-tb;fill:#231f20;fill-opacity:1;fill-rule:nonzero;stroke:none"
               transform="matrix(1,0,0,-1,301.7496,26)"><tspan
                 id="tspan150"
                 y="0"
                 x="0 8.6639996 11.664 15.66 20.327999">G (s)</tspan></text>
<text
               id="text156"
               style="font-style:italic;font-variant:normal;font-size:9px;font-family:Times;-inkscape-font-specification:Times-Italic;writing-mode:lr-tb;fill:#231f20;fill-opacity:1;fill-rule:nonzero;stroke:none"
               transform="matrix(1,0,0,-1,308.81201,21.75)"><tspan
                 id="tspan154"
                 y="0"
                 x="0">2</tspan></text>
</g></g></g></g></g></svg>