<?xml version="1.0" encoding="UTF-8" standalone="no"?>
<svg
   xmlns:dc="http://purl.org/dc/elements/1.1/"
   xmlns:cc="http://creativecommons.org/ns#"
   xmlns:rdf="http://www.w3.org/1999/02/22-rdf-syntax-ns#"
   xmlns:svg="http://www.w3.org/2000/svg"
   xmlns="http://www.w3.org/2000/svg"
   viewBox="0 0 554.66669 145.33333"
   height="145.33333"
   width="554.66669"
   xml:space="preserve"
   id="svg2"
   version="1.1"><metadata
     id="metadata8"><rdf:RDF><cc:Work
         rdf:about=""><dc:format>image/svg+xml</dc:format><dc:type
           rdf:resource="http://purl.org/dc/dcmitype/StillImage" /></cc:Work></rdf:RDF></metadata><defs
     id="defs6"><clipPath
       id="clipPath24"
       clipPathUnits="userSpaceOnUse"><path
         id="path22"
         d="M 0,0 H 416 V 109 H 0 Z" /></clipPath><clipPath
       id="clipPath50"
       clipPathUnits="userSpaceOnUse"><path
         id="path48"
         d="M 0.06,0.06000519 H 415.5 V 108.5 H 0.06 Z" /></clipPath><clipPath
       id="clipPath96"
       clipPathUnits="userSpaceOnUse"><path
         id="path94"
         d="M 0.06,0.06000519 H 415.5 V 108.5 H 0.06 Z" /></clipPath><clipPath
       id="clipPath120"
       clipPathUnits="userSpaceOnUse"><path
         style="clip-rule:evenodd"
         id="path118"
         d="m 303,84 -16,-2 v 4 l 16,-2" /></clipPath><clipPath
       id="clipPath134"
       clipPathUnits="userSpaceOnUse"><path
         style="clip-rule:evenodd"
         id="path132"
         d="m 399,83.5 -16,-2 v 4 l 16,-2" /></clipPath><clipPath
       id="clipPath144"
       clipPathUnits="userSpaceOnUse"><path
         id="path142"
         d="M 0.06,0.06000519 H 415.5 V 108.5 H 0.06 Z" /></clipPath><clipPath
       id="clipPath162"
       clipPathUnits="userSpaceOnUse"><path
         id="path160"
         d="M 0.06,0.06000519 H 415.5 V 108.5 H 0.06 Z" /></clipPath></defs><g
     transform="matrix(1.3333333,0,0,-1.3333333,0,145.33333)"
     id="g10"><g
       id="g12" /><g
       id="g14" /><g
       id="g16"><g
         id="g18"><g
           clip-path="url(#clipPath24)"
           id="g20"><g
             id="g26" /><g
             id="g28"><path
               id="path30"
               style="fill:#231f20;fill-opacity:1;fill-rule:evenodd;stroke:none"
               d="M 53.5,82.5 37,80.25 v 4.5 L 53.5,82.5" /><path
               id="path32"
               style="fill:#231f20;fill-opacity:1;fill-rule:nonzero;stroke:none"
               d="m 53.5,82.5 h 0.25 V 82.25 L 37.25,80 H 37 v 0.25" /><path
               id="path34"
               style="fill:none;stroke:#231f20;stroke-width:0.25;stroke-linecap:butt;stroke-linejoin:miter;stroke-miterlimit:10;stroke-dasharray:none;stroke-opacity:1"
               d="M 37.125,82.5 V 80 m 0,4.75 v -2.5" /><path
               id="path36"
               style="fill:#231f20;fill-opacity:1;fill-rule:nonzero;stroke:none"
               d="m 37,84.75 h 0.25 L 53.75,82.5 V 82.25 H 53.5 L 37,84.5" /><path
               id="path38"
               style="fill:#231f20;fill-opacity:1;fill-rule:nonzero;stroke:none"
               d="m 53.5,82.5 h 0.25 V 82.25 L 37.25,80 H 37 v 0.25" /><path
               id="path40"
               style="fill:none;stroke:#231f20;stroke-width:0.25;stroke-linecap:butt;stroke-linejoin:miter;stroke-miterlimit:10;stroke-dasharray:none;stroke-opacity:1"
               d="M 37.125,82.5 V 80 m 0,4.75 v -2.5" /><path
               id="path42"
               style="fill:#231f20;fill-opacity:1;fill-rule:nonzero;stroke:none"
               d="m 37,84.75 h 0.25 L 53.75,82.5 V 82.25 H 53.5 L 37,84.5" /></g><g
             id="g44"><g
               clip-path="url(#clipPath50)"
               id="g46"><path
                 id="path52"
                 style="fill:none;stroke:#231f20;stroke-width:1;stroke-linecap:butt;stroke-linejoin:miter;stroke-miterlimit:10;stroke-dasharray:none;stroke-opacity:1"
                 d="m 0,82.5 h 37.5 m -26,0 H 67" /></g></g><g
             id="g54"><path
               id="path56"
               style="fill:#231f20;fill-opacity:1;fill-rule:evenodd;stroke:none"
               d="M 160.5,81.5 144,79.25 v 4.5 l 16.5,-2.25" /><path
               id="path58"
               style="fill:#231f20;fill-opacity:1;fill-rule:nonzero;stroke:none"
               d="m 160.5,81.5 h 0.25 V 81.25 L 144.25,79 H 144 v 0.25" /><path
               id="path60"
               style="fill:none;stroke:#231f20;stroke-width:0.25;stroke-linecap:butt;stroke-linejoin:miter;stroke-miterlimit:10;stroke-dasharray:none;stroke-opacity:1"
               d="M 144.12601,81.5 V 79 m 0,4.75 v -2.5" /><path
               id="path62"
               style="fill:#231f20;fill-opacity:1;fill-rule:nonzero;stroke:none"
               d="m 144,83.75 h 0.25 l 16.5,-2.25 V 81.25 H 160.5 L 144,83.5" /><path
               id="path64"
               style="fill:#231f20;fill-opacity:1;fill-rule:nonzero;stroke:none"
               d="m 160.5,81.5 h 0.25 V 81.25 L 144.25,79 H 144 v 0.25" /><path
               id="path66"
               style="fill:none;stroke:#231f20;stroke-width:0.25;stroke-linecap:butt;stroke-linejoin:miter;stroke-miterlimit:10;stroke-dasharray:none;stroke-opacity:1"
               d="M 144.12601,81.5 V 79 m 0,4.75 v -2.5" /><path
               id="path68"
               style="fill:#231f20;fill-opacity:1;fill-rule:nonzero;stroke:none"
               d="m 144,83.75 h 0.25 l 16.5,-2.25 V 81.25 H 160.5 L 144,83.5" /><path
               id="path70"
               style="fill:none;stroke:#231f20;stroke-width:1;stroke-linecap:butt;stroke-linejoin:miter;stroke-miterlimit:10;stroke-dasharray:none;stroke-opacity:1"
               d="m 106,81.5 h 38.5 m -12.5,0 h 78" /><path
               id="path72"
               style="fill:#ffffff;fill-opacity:1;fill-rule:nonzero;stroke:none"
               d="m 105.93999,82.979996 c 0,-9.93599 -8.511989,-18 -18.999995,-18 -10.487992,0 -19,8.06401 -19,18 0,9.936012 8.512008,18.000004 19,18.000004 10.488006,0 18.999995,-8.063992 18.999995,-18.000004" /><path
               id="path74"
               style="fill:none;stroke:#231f20;stroke-width:1;stroke-linecap:butt;stroke-linejoin:miter;stroke-miterlimit:10;stroke-dasharray:none;stroke-opacity:1"
               d="m 105.43999,82.979996 c 0,-9.659996 -8.287982,-17.5 -18.499995,-17.5 -10.211991,0 -18.5,7.840004 -18.5,17.5 0,9.660003 8.288009,17.500004 18.5,17.500004 10.212013,0 18.499995,-7.840001 18.499995,-17.500004 z" /><path
               id="path76"
               style="fill:#231f20;fill-opacity:1;fill-rule:evenodd;stroke:none"
               d="m 86,47.25 2.25,-16.5 h -4.5 L 86,47.25" /><path
               id="path78"
               style="fill:#231f20;fill-opacity:1;fill-rule:nonzero;stroke:none"
               d="m 86,47.25 h 0.25 L 88.5,30.75 V 30.5 H 88.25 L 86,47" /><path
               id="path80"
               style="fill:none;stroke:#231f20;stroke-width:0.25;stroke-linecap:butt;stroke-linejoin:miter;stroke-miterlimit:10;stroke-dasharray:none;stroke-opacity:1"
               d="m 86,30.625002 h 2.5 m -4.75,0 h 2.5" /><path
               id="path82"
               style="fill:#231f20;fill-opacity:1;fill-rule:nonzero;stroke:none"
               d="m 86,47.25 h 0.25 V 47 L 84,30.5 h -0.25 v 0.25" /><path
               id="path84"
               style="fill:#231f20;fill-opacity:1;fill-rule:nonzero;stroke:none"
               d="m 86,47.25 h 0.25 L 88.5,30.75 V 30.5 H 88.25 L 86,47" /><path
               id="path86"
               style="fill:none;stroke:#231f20;stroke-width:0.25;stroke-linecap:butt;stroke-linejoin:miter;stroke-miterlimit:10;stroke-dasharray:none;stroke-opacity:1"
               d="m 86,30.625002 h 2.5 m -4.75,0 h 2.5" /><path
               id="path88"
               style="fill:#231f20;fill-opacity:1;fill-rule:nonzero;stroke:none"
               d="m 86,47.25 h 0.25 V 47 L 84,30.5 h -0.25 v 0.25" /></g><g
             id="g90"><g
               clip-path="url(#clipPath96)"
               id="g92"><path
                 id="path98"
                 style="fill:none;stroke:#231f20;stroke-width:1;stroke-linecap:butt;stroke-linejoin:miter;stroke-miterlimit:10;stroke-dasharray:none;stroke-opacity:1"
                 d="M 86,31.25 V 0 m 0,65 V 30" /></g></g><g
             id="g100"><text
               id="text104"
               style="font-style:italic;font-variant:normal;font-size:18px;font-family:Times;-inkscape-font-specification:Times-Italic;writing-mode:lr-tb;fill:#231f20;fill-opacity:1;fill-rule:nonzero;stroke:none"
               transform="matrix(1,0,0,-1,53,89.5)"><tspan
                 id="tspan102"
                 y="0"
                 x="0">+</tspan></text>
<text
               id="text108"
               style="font-style:italic;font-variant:normal;font-weight:bold;font-size:12px;font-family:Times;-inkscape-font-specification:Times-BoldItalic;writing-mode:lr-tb;fill:#231f20;fill-opacity:1;fill-rule:nonzero;stroke:none"
               transform="matrix(1,0,0,-1,90,53.5)"><tspan
                 id="tspan106"
                 y="0"
                 x="0">—</tspan></text>
<text
               id="text112"
               style="font-style:italic;font-variant:normal;font-size:12px;font-family:Times;-inkscape-font-specification:Times-Italic;writing-mode:lr-tb;fill:#231f20;fill-opacity:1;fill-rule:nonzero;stroke:none"
               transform="matrix(1,0,0,-1,18.999601,90.499596)"><tspan
                 id="tspan110"
                 y="0"
                 x="0 7.3319998 10.332 14.328 18.996">V (s)</tspan></text>
</g><g
             id="g114"><g
               clip-path="url(#clipPath120)"
               id="g116"><path
                 id="path122"
                 style="fill:#231f20;fill-opacity:1;fill-rule:nonzero;stroke:none"
                 d="m 287,86 h 16 v -4 h -16 z" /></g></g><g
             id="g124"><path
               id="path126"
               style="fill:none;stroke:#231f20;stroke-width:1;stroke-linecap:butt;stroke-linejoin:miter;stroke-miterlimit:10;stroke-dasharray:none;stroke-opacity:1"
               d="m 303,84 -16,-2 v 4 z m -60.5,0 h 45 m -17,0 h 65" /></g><g
             id="g128"><g
               clip-path="url(#clipPath134)"
               id="g130"><path
                 id="path136"
                 style="fill:#231f20;fill-opacity:1;fill-rule:nonzero;stroke:none"
                 d="m 383,85.5 h 16 v -4 h -16 z" /></g></g><g
             id="g138"><g
               clip-path="url(#clipPath144)"
               id="g140"><path
                 id="path146"
                 style="fill:none;stroke:#231f20;stroke-width:1;stroke-linecap:butt;stroke-linejoin:miter;stroke-miterlimit:10;stroke-dasharray:none;stroke-opacity:1"
                 d="m 399,83.5 -16,-2 v 4 z m -66.5,0 h 51 m -45.5,0 h 77.5" /></g></g><g
             id="g148"><path
               id="path150"
               style="fill:#231f20;fill-opacity:1;fill-rule:nonzero;stroke:none"
               d="m 338.95999,83.939995 c 0,-3.311989 -2.91199,-6 -6.5,-6 -3.58697,0 -6.5,2.688011 -6.5,6 0,3.312012 2.91303,6 6.5,6 3.58801,0 6.5,-2.687988 6.5,-6" /><path
               id="path152"
               style="fill:none;stroke:#231f20;stroke-width:1;stroke-linecap:butt;stroke-linejoin:miter;stroke-miterlimit:10;stroke-dasharray:none;stroke-opacity:1"
               d="m 338.45999,83.939995 c 0,-3.035988 -2.68698,-5.5 -6,-5.5 -3.31097,0 -6,2.464012 -6,5.5 0,3.036011 2.68903,5.5 6,5.5 3.31302,0 6,-2.463989 6,-5.5 z" /><path
               id="path154"
               style="fill:#ffffff;fill-opacity:1;fill-rule:nonzero;stroke:none"
               d="m 175,108.5 h 96 v -55 h -96 z" /></g><g
             id="g156"><g
               clip-path="url(#clipPath162)"
               id="g158"><path
                 id="path164"
                 style="fill:none;stroke:#231f20;stroke-width:1;stroke-linecap:butt;stroke-linejoin:miter;stroke-miterlimit:10;stroke-dasharray:none;stroke-opacity:1"
                 d="m 175.5,108 h 95 V 54 h -95 z m 157,-30 V 1 M 85,0.5 h 248" /></g></g><g
             id="g166"><text
               id="text170"
               style="font-style:italic;font-variant:normal;font-size:9px;font-family:Times;-inkscape-font-specification:Times-Italic;writing-mode:lr-tb;fill:#231f20;fill-opacity:1;fill-rule:nonzero;stroke:none"
               transform="matrix(1,0,0,-1,24,86.5)"><tspan
                 id="tspan168"
                 y="0"
                 x="0">1</tspan></text>
<text
               id="text174"
               style="font-style:italic;font-variant:normal;font-size:12px;font-family:Times;-inkscape-font-specification:Times-Italic;writing-mode:lr-tb;fill:#231f20;fill-opacity:1;fill-rule:nonzero;stroke:none"
               transform="matrix(1,0,0,-1,375,94)"><tspan
                 id="tspan172"
                 y="0"
                 x="0 7.3319998 10.332 14.328 18.996">V (s)</tspan></text>
<text
               id="text178"
               style="font-style:italic;font-variant:normal;font-size:9px;font-family:Times;-inkscape-font-specification:Times-Italic;writing-mode:lr-tb;fill:#231f20;fill-opacity:1;fill-rule:nonzero;stroke:none"
               transform="matrix(1,0,0,-1,380,90)"><tspan
                 id="tspan176"
                 y="0"
                 x="0">0</tspan></text>
<text
               id="text182"
               style="font-style:italic;font-variant:normal;font-size:12px;font-family:Times;-inkscape-font-specification:Times-Italic;writing-mode:lr-tb;fill:#231f20;fill-opacity:1;fill-rule:nonzero;stroke:none"
               transform="matrix(1,0,0,-1,189,83)"><tspan
                 id="tspan180"
                 y="0"
                 x="0 8.6639996 12.66 17.327999 21.323999 24.323999 32.424">G(s) = </tspan></text>
<text
               id="text186"
               style="font-style:italic;font-variant:normal;font-size:12px;font-family:Times;-inkscape-font-specification:Times-Italic;writing-mode:lr-tb;fill:#231f20;fill-opacity:1;fill-rule:nonzero;stroke:none"
               transform="matrix(1,0,0,-1,239.0004,88.499603)"><tspan
                 id="tspan184"
                 y="0"
                 x="0">K</tspan></text>
<text
               id="text190"
               style="font-style:italic;font-variant:normal;font-size:12px;font-family:Times;-inkscape-font-specification:Times-Italic;writing-mode:lr-tb;fill:#231f20;fill-opacity:1;fill-rule:nonzero;stroke:none"
               transform="matrix(1,0,0,-1,227.0004,73.499603)"><tspan
                 id="tspan188"
                 y="0"
                 x="0 6 9 17.1 20.1 26.1">1 + as</tspan></text>
<path
               id="path192"
               style="fill:none;stroke:#231f20;stroke-width:0.5;stroke-linecap:butt;stroke-linejoin:miter;stroke-miterlimit:10;stroke-dasharray:none;stroke-opacity:1"
               d="m 228.25,84.5 h 30" /></g></g></g></g></g></svg>