<?xml version="1.0" encoding="UTF-8" standalone="no"?>
<svg
   xmlns:dc="http://purl.org/dc/elements/1.1/"
   xmlns:cc="http://creativecommons.org/ns#"
   xmlns:rdf="http://www.w3.org/1999/02/22-rdf-syntax-ns#"
   xmlns:svg="http://www.w3.org/2000/svg"
   xmlns="http://www.w3.org/2000/svg"
   viewBox="0 0 278.66666 169.33333"
   height="169.33333"
   width="278.66666"
   xml:space="preserve"
   id="svg2"
   version="1.1"><metadata
     id="metadata8"><rdf:RDF><cc:Work
         rdf:about=""><dc:format>image/svg+xml</dc:format><dc:type
           rdf:resource="http://purl.org/dc/dcmitype/StillImage" /></cc:Work></rdf:RDF></metadata><defs
     id="defs6"><clipPath
       id="clipPath24"
       clipPathUnits="userSpaceOnUse"><path
         id="path22"
         d="M 0,0 H 209 V 127 H 0 Z" /></clipPath></defs><g
     transform="matrix(1.3333333,0,0,-1.3333333,0,169.33333)"
     id="g10"><g
       id="g12" /><g
       id="g14" /><g
       id="g16"><g
         id="g18"><g
           clip-path="url(#clipPath24)"
           id="g20"><g
             id="g26" /><g
             id="g28"><text
               id="text32"
               style="font-variant:normal;font-weight:normal;font-size:11.95500088px;font-family:CMMI12;-inkscape-font-specification:CMMI12;writing-mode:lr-tb;fill:#231f20;fill-opacity:1;fill-rule:nonzero;stroke:none"
               transform="matrix(1,0,0,-1,69.953598,117.72749)"><tspan
                 id="tspan30"
                 y="0"
                 x="0">T</tspan></text>
<text
               id="text36"
               style="font-variant:normal;font-weight:normal;font-size:7.96999979px;font-family:CMR8;-inkscape-font-specification:CMR8;writing-mode:lr-tb;fill:#231f20;fill-opacity:1;fill-rule:nonzero;stroke:none"
               transform="matrix(1,0,0,-1,76.814499,115.9346)"><tspan
                 id="tspan34"
                 y="0"
                 x="0">1</tspan></text>
<text
               id="text40"
               style="font-variant:normal;font-weight:normal;font-size:11.95500088px;font-family:CMMI12;-inkscape-font-specification:CMMI12;writing-mode:lr-tb;fill:#231f20;fill-opacity:1;fill-rule:nonzero;stroke:none"
               transform="matrix(1,0,0,-1,129.7524,117.22749)"><tspan
                 id="tspan38"
                 y="0"
                 x="0">T</tspan></text>
<text
               id="text44"
               style="font-variant:normal;font-weight:normal;font-size:7.96999979px;font-family:CMR8;-inkscape-font-specification:CMR8;writing-mode:lr-tb;fill:#231f20;fill-opacity:1;fill-rule:nonzero;stroke:none"
               transform="matrix(1,0,0,-1,136.6138,115.4346)"><tspan
                 id="tspan42"
                 y="0"
                 x="0">2</tspan></text>
<text
               id="text48"
               style="font-variant:normal;font-weight:normal;font-size:11.95500088px;font-family:CMMI12;-inkscape-font-specification:CMMI12;writing-mode:lr-tb;fill:#231f20;fill-opacity:1;fill-rule:nonzero;stroke:none"
               transform="matrix(1,0,0,-1,19.0527,64.727501)"><tspan
                 id="tspan46"
                 y="0"
                 x="0">S</tspan></text>
<text
               id="text52"
               style="font-variant:normal;font-weight:normal;font-size:7.96999979px;font-family:CMR8;-inkscape-font-specification:CMR8;writing-mode:lr-tb;fill:#231f20;fill-opacity:1;fill-rule:nonzero;stroke:none"
               transform="matrix(1,0,0,-1,26.251499,62.934597)"><tspan
                 id="tspan50"
                 y="0"
                 x="0">1</tspan></text>
<text
               id="text56"
               style="font-variant:normal;font-weight:normal;font-size:11.95500088px;font-family:CMMI12;-inkscape-font-specification:CMMI12;writing-mode:lr-tb;fill:#231f20;fill-opacity:1;fill-rule:nonzero;stroke:none"
               transform="matrix(1,0,0,-1,84.689499,65.727501)"><tspan
                 id="tspan54"
                 y="0"
                 x="0">S</tspan></text>
<text
               id="text60"
               style="font-variant:normal;font-weight:normal;font-size:7.96999979px;font-family:CMR8;-inkscape-font-specification:CMR8;writing-mode:lr-tb;fill:#231f20;fill-opacity:1;fill-rule:nonzero;stroke:none"
               transform="matrix(1,0,0,-1,91.889595,63.934597)"><tspan
                 id="tspan58"
                 y="0"
                 x="0">2</tspan></text>
<text
               id="text64"
               style="font-variant:normal;font-weight:normal;font-size:11.95500088px;font-family:CMMI12;-inkscape-font-specification:CMMI12;writing-mode:lr-tb;fill:#231f20;fill-opacity:1;fill-rule:nonzero;stroke:none"
               transform="matrix(1,0,0,-1,174.82759,64.227501)"><tspan
                 id="tspan62"
                 y="0"
                 x="0">S</tspan></text>
<text
               id="text68"
               style="font-variant:normal;font-weight:normal;font-size:7.96999979px;font-family:CMR8;-inkscape-font-specification:CMR8;writing-mode:lr-tb;fill:#231f20;fill-opacity:1;fill-rule:nonzero;stroke:none"
               transform="matrix(1,0,0,-1,182.0269,62.434597)"><tspan
                 id="tspan66"
                 y="0"
                 x="0">3</tspan></text>
<text
               id="text72"
               style="font-variant:normal;font-weight:normal;font-size:11.95500088px;font-family:CMMI12;-inkscape-font-specification:CMMI12;writing-mode:lr-tb;fill:#231f20;fill-opacity:1;fill-rule:nonzero;stroke:none"
               transform="matrix(1,0,0,-1,0.46579999,4.7275)"><tspan
                 id="tspan70"
                 y="0"
                 x="0">P</tspan></text>
<text
               id="text76"
               style="font-variant:normal;font-weight:normal;font-size:7.96999979px;font-family:CMR8;-inkscape-font-specification:CMR8;writing-mode:lr-tb;fill:#231f20;fill-opacity:1;fill-rule:nonzero;stroke:none"
               transform="matrix(1,0,0,-1,8.0107002,2.9345)"><tspan
                 id="tspan74"
                 y="0"
                 x="0">1</tspan></text>
<text
               id="text80"
               style="font-variant:normal;font-weight:normal;font-size:11.95500088px;font-family:CMMI12;-inkscape-font-specification:CMMI12;writing-mode:lr-tb;fill:#231f20;fill-opacity:1;fill-rule:nonzero;stroke:none"
               transform="matrix(1,0,0,-1,58.144497,4.2275)"><tspan
                 id="tspan78"
                 y="0"
                 x="0">P</tspan></text>
<text
               id="text84"
               style="font-variant:normal;font-weight:normal;font-size:7.96999979px;font-family:CMR8;-inkscape-font-specification:CMR8;writing-mode:lr-tb;fill:#231f20;fill-opacity:1;fill-rule:nonzero;stroke:none"
               transform="matrix(1,0,0,-1,65.689499,2.4345999)"><tspan
                 id="tspan82"
                 y="0"
                 x="0">2</tspan></text>
<text
               id="text88"
               style="font-variant:normal;font-weight:normal;font-size:11.95500088px;font-family:CMMI12;-inkscape-font-specification:CMMI12;writing-mode:lr-tb;fill:#231f20;fill-opacity:1;fill-rule:nonzero;stroke:none"
               transform="matrix(1,0,0,-1,130.82469,4.7275)"><tspan
                 id="tspan86"
                 y="0"
                 x="0">P</tspan></text>
<text
               id="text92"
               style="font-variant:normal;font-weight:normal;font-size:7.96999979px;font-family:CMR8;-inkscape-font-specification:CMR8;writing-mode:lr-tb;fill:#231f20;fill-opacity:1;fill-rule:nonzero;stroke:none"
               transform="matrix(1,0,0,-1,138.3696,2.9345)"><tspan
                 id="tspan90"
                 y="0"
                 x="0">3</tspan></text>
<text
               id="text96"
               style="font-variant:normal;font-weight:normal;font-size:11.95500088px;font-family:CMMI12;-inkscape-font-specification:CMMI12;writing-mode:lr-tb;fill:#231f20;fill-opacity:1;fill-rule:nonzero;stroke:none"
               transform="matrix(1,0,0,-1,196.50339,5.2275)"><tspan
                 id="tspan94"
                 y="0"
                 x="0">P</tspan></text>
<text
               id="text100"
               style="font-variant:normal;font-weight:normal;font-size:7.96999979px;font-family:CMR8;-inkscape-font-specification:CMR8;writing-mode:lr-tb;fill:#231f20;fill-opacity:1;fill-rule:nonzero;stroke:none"
               transform="matrix(1,0,0,-1,204.04979,3.4345999)"><tspan
                 id="tspan98"
                 y="0"
                 x="0">4</tspan></text>
<text
               id="text104"
               style="font-variant:normal;font-weight:normal;font-size:7.65119982px;font-family:CMR12;-inkscape-font-specification:CMR12;writing-mode:lr-tb;fill:#231f20;fill-opacity:1;fill-rule:nonzero;stroke:none"
               transform="matrix(1,0,0,-1,147.39259,25.5)"><tspan
                 id="tspan102"
                 y="0"
                 x="0">0</tspan></text>
<text
               id="text108"
               style="font-variant:normal;font-weight:normal;font-size:7.65119982px;font-family:CMMI12;-inkscape-font-specification:CMMI12;writing-mode:lr-tb;fill:#231f20;fill-opacity:1;fill-rule:nonzero;stroke:none"
               transform="matrix(1,0,0,-1,151.13863,25.5)"><tspan
                 id="tspan106"
                 y="0"
                 x="0">.</tspan></text>
<text
               id="text112"
               style="font-variant:normal;font-weight:normal;font-size:7.65119982px;font-family:CMR12;-inkscape-font-specification:CMR12;writing-mode:lr-tb;fill:#231f20;fill-opacity:1;fill-rule:nonzero;stroke:none"
               transform="matrix(1,0,0,-1,153.21976,25.5)"><tspan
                 id="tspan110"
                 y="0"
                 x="0">4</tspan></text>
<text
               id="text116"
               style="font-variant:normal;font-weight:normal;font-size:7.65119982px;font-family:CMR12;-inkscape-font-specification:CMR12;writing-mode:lr-tb;fill:#231f20;fill-opacity:1;fill-rule:nonzero;stroke:none"
               transform="matrix(1,0,0,-1,185.74347,48.999893)"><tspan
                 id="tspan114"
                 y="0"
                 x="0">0</tspan></text>
<text
               id="text120"
               style="font-variant:normal;font-weight:normal;font-size:7.65119982px;font-family:CMMI12;-inkscape-font-specification:CMMI12;writing-mode:lr-tb;fill:#231f20;fill-opacity:1;fill-rule:nonzero;stroke:none"
               transform="matrix(1,0,0,-1,189.4895,48.999893)"><tspan
                 id="tspan118"
                 y="0"
                 x="0">.</tspan></text>
<text
               id="text124"
               style="font-variant:normal;font-weight:normal;font-size:7.65119982px;font-family:CMR12;-inkscape-font-specification:CMR12;writing-mode:lr-tb;fill:#231f20;fill-opacity:1;fill-rule:nonzero;stroke:none"
               transform="matrix(1,0,0,-1,191.57063,48.999893)"><tspan
                 id="tspan122"
                 y="0"
                 x="0">6</tspan></text>
<path
               id="path126"
               style="fill:none;stroke:#231f20;stroke-width:1;stroke-linecap:butt;stroke-linejoin:miter;stroke-miterlimit:4;stroke-dasharray:none;stroke-opacity:1"
               d="M 33.5,65.5 73,114 m 57.75,-1 -97,-47 M 101,65.5 130.75,113 m 39.75,-46.5 -97,47 27.5,-48 m 69.75,-0.5 -39.5,48.5 M 33.75,66 135.5,16.5 M 5,16 33.75,66 M 101,65.5 5,16 m 194,0.5 -98,49 M 135.5,16.5 170.75,65 199,16.5 m -98,49 34.5,-49 M 33.75,66 63.5,16.5 101,65.5" /><text
               id="text130"
               style="font-variant:normal;font-weight:normal;font-size:7.65119982px;font-family:CMR12;-inkscape-font-specification:CMR12;writing-mode:lr-tb;fill:#231f20;fill-opacity:1;fill-rule:nonzero;stroke:none"
               transform="matrix(1,0,0,-1,37.252899,88.340797)"><tspan
                 id="tspan128"
                 y="0"
                 x="0">0</tspan></text>
<text
               id="text134"
               style="font-variant:normal;font-weight:normal;font-size:7.65119982px;font-family:CMMI12;-inkscape-font-specification:CMMI12;writing-mode:lr-tb;fill:#231f20;fill-opacity:1;fill-rule:nonzero;stroke:none"
               transform="matrix(1,0,0,-1,40.998161,88.340797)"><tspan
                 id="tspan132"
                 y="0"
                 x="0">.</tspan></text>
<text
               id="text138"
               style="font-variant:normal;font-weight:normal;font-size:7.65119982px;font-family:CMR12;-inkscape-font-specification:CMR12;writing-mode:lr-tb;fill:#231f20;fill-opacity:1;fill-rule:nonzero;stroke:none"
               transform="matrix(1,0,0,-1,43.080051,88.340797)"><tspan
                 id="tspan136"
                 y="0"
                 x="0">4</tspan></text>
<text
               id="text142"
               style="font-variant:normal;font-weight:normal;font-size:7.65119982px;font-family:CMR12;-inkscape-font-specification:CMR12;writing-mode:lr-tb;fill:#231f20;fill-opacity:1;fill-rule:nonzero;stroke:none"
               transform="matrix(1,0,0,-1,70.672569,94.999634)"><tspan
                 id="tspan140"
                 y="0"
                 x="0">0</tspan></text>
<text
               id="text146"
               style="font-variant:normal;font-weight:normal;font-size:7.65119982px;font-family:CMMI12;-inkscape-font-specification:CMMI12;writing-mode:lr-tb;fill:#231f20;fill-opacity:1;fill-rule:nonzero;stroke:none"
               transform="matrix(1,0,0,-1,74.418594,94.999634)"><tspan
                 id="tspan144"
                 y="0"
                 x="0">.</tspan></text>
<text
               id="text150"
               style="font-variant:normal;font-weight:normal;font-size:7.65119982px;font-family:CMR12;-inkscape-font-specification:CMR12;writing-mode:lr-tb;fill:#231f20;fill-opacity:1;fill-rule:nonzero;stroke:none"
               transform="matrix(1,0,0,-1,76.499718,94.999634)"><tspan
                 id="tspan148"
                 y="0"
                 x="0">4</tspan></text>
<text
               id="text154"
               style="font-variant:normal;font-weight:normal;font-size:7.65119982px;font-family:CMR12;-inkscape-font-specification:CMR12;writing-mode:lr-tb;fill:#231f20;fill-opacity:1;fill-rule:nonzero;stroke:none"
               transform="matrix(1,0,0,-1,154.39352,91.840454)"><tspan
                 id="tspan152"
                 y="0"
                 x="0">0</tspan></text>
<text
               id="text158"
               style="font-variant:normal;font-weight:normal;font-size:7.65119982px;font-family:CMMI12;-inkscape-font-specification:CMMI12;writing-mode:lr-tb;fill:#231f20;fill-opacity:1;fill-rule:nonzero;stroke:none"
               transform="matrix(1,0,0,-1,158.13956,91.840454)"><tspan
                 id="tspan156"
                 y="0"
                 x="0">.</tspan></text>
<text
               id="text162"
               style="font-variant:normal;font-weight:normal;font-size:7.65119982px;font-family:CMR12;-inkscape-font-specification:CMR12;writing-mode:lr-tb;fill:#231f20;fill-opacity:1;fill-rule:nonzero;stroke:none"
               transform="matrix(1,0,0,-1,160.21992,91.840454)"><tspan
                 id="tspan160"
                 y="0"
                 x="0">3</tspan></text>
<text
               id="text166"
               style="font-variant:normal;font-weight:normal;font-size:7.65119982px;font-family:CMR12;-inkscape-font-specification:CMR12;writing-mode:lr-tb;fill:#231f20;fill-opacity:1;fill-rule:nonzero;stroke:none"
               transform="matrix(1,0,0,-1,66.673302,74.499779)"><tspan
                 id="tspan164"
                 y="0"
                 x="0">0</tspan></text>
<text
               id="text170"
               style="font-variant:normal;font-weight:normal;font-size:7.65119982px;font-family:CMMI12;-inkscape-font-specification:CMMI12;writing-mode:lr-tb;fill:#231f20;fill-opacity:1;fill-rule:nonzero;stroke:none"
               transform="matrix(1,0,0,-1,70.418564,74.499779)"><tspan
                 id="tspan168"
                 y="0"
                 x="0">.</tspan></text>
<text
               id="text174"
               style="font-variant:normal;font-weight:normal;font-size:7.65119982px;font-family:CMR12;-inkscape-font-specification:CMR12;writing-mode:lr-tb;fill:#231f20;fill-opacity:1;fill-rule:nonzero;stroke:none"
               transform="matrix(1,0,0,-1,72.499687,74.499779)"><tspan
                 id="tspan172"
                 y="0"
                 x="0">5</tspan></text>
<text
               id="text178"
               style="font-variant:normal;font-weight:normal;font-size:7.65119982px;font-family:CMR12;-inkscape-font-specification:CMR12;writing-mode:lr-tb;fill:#231f20;fill-opacity:1;fill-rule:nonzero;stroke:none"
               transform="matrix(1,0,0,-1,134.53409,73.340622)"><tspan
                 id="tspan176"
                 y="0"
                 x="0">0</tspan></text>
<text
               id="text182"
               style="font-variant:normal;font-weight:normal;font-size:7.65119982px;font-family:CMMI12;-inkscape-font-specification:CMMI12;writing-mode:lr-tb;fill:#231f20;fill-opacity:1;fill-rule:nonzero;stroke:none"
               transform="matrix(1,0,0,-1,138.27936,73.340622)"><tspan
                 id="tspan180"
                 y="0"
                 x="0">.</tspan></text>
<text
               id="text186"
               style="font-variant:normal;font-weight:normal;font-size:7.65119982px;font-family:CMR12;-inkscape-font-specification:CMR12;writing-mode:lr-tb;fill:#231f20;fill-opacity:1;fill-rule:nonzero;stroke:none"
               transform="matrix(1,0,0,-1,140.35973,73.340622)"><tspan
                 id="tspan184"
                 y="0"
                 x="0">2</tspan></text>
<text
               id="text190"
               style="font-variant:normal;font-weight:normal;font-size:7.65119982px;font-family:CMR12;-inkscape-font-specification:CMR12;writing-mode:lr-tb;fill:#231f20;fill-opacity:1;fill-rule:nonzero;stroke:none"
               transform="matrix(1,0,0,-1,130.25325,51.499508)"><tspan
                 id="tspan188"
                 y="0"
                 x="0">0</tspan></text>
<text
               id="text194"
               style="font-variant:normal;font-weight:normal;font-size:7.65119982px;font-family:CMMI12;-inkscape-font-specification:CMMI12;writing-mode:lr-tb;fill:#231f20;fill-opacity:1;fill-rule:nonzero;stroke:none"
               transform="matrix(1,0,0,-1,133.99928,51.499508)"><tspan
                 id="tspan192"
                 y="0"
                 x="0">.</tspan></text>
<text
               id="text198"
               style="font-variant:normal;font-weight:normal;font-size:7.65119982px;font-family:CMR12;-inkscape-font-specification:CMR12;writing-mode:lr-tb;fill:#231f20;fill-opacity:1;fill-rule:nonzero;stroke:none"
               transform="matrix(1,0,0,-1,136.08041,51.499508)"><tspan
                 id="tspan196"
                 y="0"
                 x="0">1</tspan></text>
<text
               id="text202"
               style="font-variant:normal;font-weight:normal;font-size:7.65119982px;font-family:CMR12;-inkscape-font-specification:CMR12;writing-mode:lr-tb;fill:#231f20;fill-opacity:1;fill-rule:nonzero;stroke:none"
               transform="matrix(1,0,0,-1,7.1729879,41.340244)"><tspan
                 id="tspan200"
                 y="0"
                 x="0">0</tspan></text>
<text
               id="text206"
               style="font-variant:normal;font-weight:normal;font-size:7.65119982px;font-family:CMMI12;-inkscape-font-specification:CMMI12;writing-mode:lr-tb;fill:#231f20;fill-opacity:1;fill-rule:nonzero;stroke:none"
               transform="matrix(1,0,0,-1,10.919015,41.340244)"><tspan
                 id="tspan204"
                 y="0"
                 x="0">.</tspan></text>
<text
               id="text210"
               style="font-variant:normal;font-weight:normal;font-size:7.65119982px;font-family:CMR12;-inkscape-font-specification:CMR12;writing-mode:lr-tb;fill:#231f20;fill-opacity:1;fill-rule:nonzero;stroke:none"
               transform="matrix(1,0,0,-1,13.000141,41.340244)"><tspan
                 id="tspan208"
                 y="0"
                 x="0">6</tspan></text>
<text
               id="text214"
               style="font-variant:normal;font-weight:normal;font-size:7.65119982px;font-family:CMR12;-inkscape-font-specification:CMR12;writing-mode:lr-tb;fill:#231f20;fill-opacity:1;fill-rule:nonzero;stroke:none"
               transform="matrix(1,0,0,-1,110.67306,71.499741)"><tspan
                 id="tspan212"
                 y="0"
                 x="0">0</tspan></text>
<text
               id="text218"
               style="font-variant:normal;font-weight:normal;font-size:7.65119982px;font-family:CMMI12;-inkscape-font-specification:CMMI12;writing-mode:lr-tb;fill:#231f20;fill-opacity:1;fill-rule:nonzero;stroke:none"
               transform="matrix(1,0,0,-1,114.41832,71.499741)"><tspan
                 id="tspan216"
                 y="0"
                 x="0">.</tspan></text>
<text
               id="text222"
               style="font-variant:normal;font-weight:normal;font-size:7.65119982px;font-family:CMR12;-inkscape-font-specification:CMR12;writing-mode:lr-tb;fill:#231f20;fill-opacity:1;fill-rule:nonzero;stroke:none"
               transform="matrix(1,0,0,-1,116.49868,71.499741)"><tspan
                 id="tspan220"
                 y="0"
                 x="0">2</tspan></text>
<text
               id="text226"
               style="font-variant:normal;font-weight:normal;font-size:7.65119982px;font-family:CMR12;-inkscape-font-specification:CMR12;writing-mode:lr-tb;fill:#231f20;fill-opacity:1;fill-rule:nonzero;stroke:none"
               transform="matrix(1,0,0,-1,29.46246,20.590187)"><tspan
                 id="tspan224"
                 y="0"
                 x="0">0</tspan></text>
<text
               id="text230"
               style="font-variant:normal;font-weight:normal;font-size:7.65119982px;font-family:CMMI12;-inkscape-font-specification:CMMI12;writing-mode:lr-tb;fill:#231f20;fill-opacity:1;fill-rule:nonzero;stroke:none"
               transform="matrix(1,0,0,-1,33.207722,20.590187)"><tspan
                 id="tspan228"
                 y="0"
                 x="0">.</tspan></text>
<text
               id="text234"
               style="font-variant:normal;font-weight:normal;font-size:7.65119982px;font-family:CMR12;-inkscape-font-specification:CMR12;writing-mode:lr-tb;fill:#231f20;fill-opacity:1;fill-rule:nonzero;stroke:none"
               transform="matrix(1,0,0,-1,35.288082,20.590187)"><tspan
                 id="tspan232"
                 y="0"
                 x="0">2</tspan></text>
<text
               id="text238"
               style="font-variant:normal;font-weight:normal;font-size:7.65119982px;font-family:CMR12;-inkscape-font-specification:CMR12;writing-mode:lr-tb;fill:#231f20;fill-opacity:1;fill-rule:nonzero;stroke:none"
               transform="matrix(1,0,0,-1,31.962105,44.340275)"><tspan
                 id="tspan236"
                 y="0"
                 x="0">0</tspan></text>
<text
               id="text242"
               style="font-variant:normal;font-weight:normal;font-size:7.65119982px;font-family:CMMI12;-inkscape-font-specification:CMMI12;writing-mode:lr-tb;fill:#231f20;fill-opacity:1;fill-rule:nonzero;stroke:none"
               transform="matrix(1,0,0,-1,35.707367,44.340275)"><tspan
                 id="tspan240"
                 y="0"
                 x="0">.</tspan></text>
<text
               id="text246"
               style="font-variant:normal;font-weight:normal;font-size:7.65119982px;font-family:CMR12;-inkscape-font-specification:CMR12;writing-mode:lr-tb;fill:#231f20;fill-opacity:1;fill-rule:nonzero;stroke:none"
               transform="matrix(1,0,0,-1,37.787727,44.340275)"><tspan
                 id="tspan244"
                 y="0"
                 x="0">2</tspan></text>
<text
               id="text250"
               style="font-variant:normal;font-weight:normal;font-size:7.65119982px;font-family:CMR12;-inkscape-font-specification:CMR12;writing-mode:lr-tb;fill:#231f20;fill-opacity:1;fill-rule:nonzero;stroke:none"
               transform="matrix(1,0,0,-1,76.085808,23.999561)"><tspan
                 id="tspan248"
                 y="0"
                 x="0">0</tspan></text>
<text
               id="text254"
               style="font-variant:normal;font-weight:normal;font-size:7.65119982px;font-family:CMMI12;-inkscape-font-specification:CMMI12;writing-mode:lr-tb;fill:#231f20;fill-opacity:1;fill-rule:nonzero;stroke:none"
               transform="matrix(1,0,0,-1,79.83107,23.999561)"><tspan
                 id="tspan252"
                 y="0"
                 x="0">.</tspan></text>
<text
               id="text258"
               style="font-variant:normal;font-weight:normal;font-size:7.65119982px;font-family:CMR12;-inkscape-font-specification:CMR12;writing-mode:lr-tb;fill:#231f20;fill-opacity:1;fill-rule:nonzero;stroke:none"
               transform="matrix(1,0,0,-1,81.912193,23.999561)"><tspan
                 id="tspan256"
                 y="0"
                 x="0">5</tspan></text>
<text
               id="text262"
               style="font-variant:normal;font-weight:normal;font-size:7.65119982px;font-family:CMR12;-inkscape-font-specification:CMR12;writing-mode:lr-tb;fill:#231f20;fill-opacity:1;fill-rule:nonzero;stroke:none"
               transform="matrix(1,0,0,-1,126.4613,33.673737)"><tspan
                 id="tspan260"
                 y="0"
                 x="0">0</tspan></text>
<text
               id="text266"
               style="font-variant:normal;font-weight:normal;font-size:7.65119982px;font-family:CMMI12;-inkscape-font-specification:CMMI12;writing-mode:lr-tb;fill:#231f20;fill-opacity:1;fill-rule:nonzero;stroke:none"
               transform="matrix(1,0,0,-1,130.20657,33.673737)"><tspan
                 id="tspan264"
                 y="0"
                 x="0">.</tspan></text>
<text
               id="text270"
               style="font-variant:normal;font-weight:normal;font-size:7.65119982px;font-family:CMR12;-inkscape-font-specification:CMR12;writing-mode:lr-tb;fill:#231f20;fill-opacity:1;fill-rule:nonzero;stroke:none"
               transform="matrix(1,0,0,-1,132.28694,33.673737)"><tspan
                 id="tspan268"
                 y="0"
                 x="0">2</tspan></text>
<path
               id="path272"
               style="fill:#ffffff;fill-opacity:1;fill-rule:nonzero;stroke:none"
               d="m 51.233002,87.273003 4.186996,-0.496003 -0.01099,-0.147003 -5.458,-3.187996 c -1.617001,-1.334999 -3.233002,-2.668998 -4.849003,-4.003997 0.907002,1.889999 1.813999,3.779998 2.721001,5.668998 l 1.783001,6.065003 0.123997,0.059 1.503002,-3.958" /><path
               id="path274"
               style="fill:none;stroke:#231f20;stroke-width:1;stroke-linecap:butt;stroke-linejoin:miter;stroke-miterlimit:4;stroke-dasharray:none;stroke-opacity:1"
               d="m 55.535004,92.769005 -4.931,-6.300003" /><path
               id="path276"
               style="fill:#231f20;fill-opacity:1;fill-rule:nonzero;stroke:none"
               d="m 51.233002,87.273003 4.186996,-0.496003 -0.01099,-0.147003 -5.458,-3.187996 c -1.617001,-1.334999 -3.233002,-2.668998 -4.849003,-4.003997 0.907002,1.889999 1.813999,3.779998 2.721001,5.668998 l 1.783001,6.065003 0.123997,0.059 1.503002,-3.958" /><path
               id="path278"
               style="fill:#ffffff;fill-opacity:1;fill-rule:nonzero;stroke:none"
               d="m 92.825005,79.290001 2.146003,3.629005 0.129998,-0.07 0.708992,-6.281006 c 0.567009,-2.018006 1.135009,-4.035996 1.701004,-6.054001 -1.361,1.593002 -2.723,3.188003 -4.084999,4.781006 l -4.824997,4.082001 -0.004,0.138 L 92.825003,79.29" /><path
               id="path280"
               style="fill:none;stroke:#231f20;stroke-width:1;stroke-linecap:butt;stroke-linejoin:miter;stroke-miterlimit:4;stroke-dasharray:none;stroke-opacity:1"
               d="m 89.536003,85.446007 3.769005,-7.056008" /><path
               id="path282"
               style="fill:#231f20;fill-opacity:1;fill-rule:nonzero;stroke:none"
               d="m 92.825005,79.290001 2.146003,3.629005 0.129998,-0.07 0.708992,-6.281006 c 0.567009,-2.018006 1.135009,-4.035996 1.701004,-6.054001 -1.361,1.593002 -2.723,3.188003 -4.084999,4.781006 l -4.824997,4.082001 -0.004,0.138 L 92.825003,79.29" /><path
               id="path284"
               style="fill:#ffffff;fill-opacity:1;fill-rule:nonzero;stroke:none"
               d="m 110.60101,80.871002 4.21099,-0.216995 -0.002,-0.147003 -5.234,-3.543999 c -1.524,-1.439003 -3.04799,-2.877998 -4.57199,-4.317001 0.77899,1.945999 1.55899,3.891998 2.33799,5.836998 l 1.377,6.170006 0.11901,0.06699 1.763,-3.848999" /><path
               id="path286"
               style="fill:none;stroke:#231f20;stroke-width:1;stroke-linecap:butt;stroke-linejoin:miter;stroke-miterlimit:4;stroke-dasharray:none;stroke-opacity:1"
               d="M 114.52901,86.641006 110.02701,80.027" /><path
               id="path288"
               style="fill:#231f20;fill-opacity:1;fill-rule:nonzero;stroke:none"
               d="m 110.60101,80.871002 4.21099,-0.216995 -0.002,-0.147003 -5.234,-3.543999 c -1.524,-1.439003 -3.04799,-2.877998 -4.57199,-4.317001 0.77899,1.945999 1.55899,3.891998 2.33799,5.836998 l 1.377,6.170006 0.11901,0.06699 1.763,-3.848999" /><path
               id="path290"
               style="fill:#ffffff;fill-opacity:1;fill-rule:nonzero;stroke:none"
               d="m 130.183,85.808006 -0.34999,4.201989 0.14599,0.01801 4.21401,-4.712006 c 1.63,-1.317001 3.261,-2.633995 4.89,-3.951996 -2.032,0.512001 -4.064,1.023994 -6.097,1.533997 l -6.29901,0.538002 -0.082,0.109001 3.578,2.263" /><path
               id="path292"
               style="fill:none;stroke:#231f20;stroke-width:1;stroke-linecap:butt;stroke-linejoin:miter;stroke-miterlimit:4;stroke-dasharray:none;stroke-opacity:1"
               d="m 123.938,88.926003 7.15801,-3.573998" /><path
               id="path294"
               style="fill:#231f20;fill-opacity:1;fill-rule:nonzero;stroke:none"
               d="m 130.183,85.808006 -0.34999,4.201989 0.14599,0.01801 4.21401,-4.712006 c 1.63,-1.317001 3.261,-2.633995 4.89,-3.951996 -2.032,0.512001 -4.064,1.023994 -6.097,1.533997 l -6.29901,0.538002 -0.082,0.109001 3.578,2.263" /><path
               id="path296"
               style="fill:#ffffff;fill-opacity:1;fill-rule:nonzero;stroke:none"
               d="m 72.707001,84.825005 3.559005,-2.262001 -0.074,-0.127999 -6.299995,-0.507004 c -2.036003,-0.501998 -4.070999,-1.003997 -6.106003,-1.504997 1.637001,1.308998 3.273995,2.619003 4.910004,3.929001 l 4.236,4.692001 0.136993,-9.99e-4 -0.361999,-4.218002" /><path
               id="path298"
               style="fill:none;stroke:#231f20;stroke-width:1;stroke-linecap:butt;stroke-linejoin:miter;stroke-miterlimit:4;stroke-dasharray:none;stroke-opacity:1"
               d="M 78.967003,87.913002 71.793007,84.373001" /><path
               id="path300"
               style="fill:#231f20;fill-opacity:1;fill-rule:nonzero;stroke:none"
               d="m 72.707001,84.825005 3.559005,-2.262001 -0.074,-0.127999 -6.299995,-0.507004 c -2.036003,-0.501998 -4.070999,-1.003997 -6.106003,-1.504997 1.637001,1.308998 3.273995,2.619003 4.910004,3.929001 l 4.236,4.692001 0.136993,-9.99e-4 -0.361999,-4.218002" /><path
               id="path302"
               style="fill:#ffffff;fill-opacity:1;fill-rule:nonzero;stroke:none"
               d="m 149.744,90.834007 1.405,3.975991 0.14099,-0.04399 1.90902,-6.026008 c 0.947,-1.870003 1.893,-3.739998 2.839,-5.610993 -1.644,1.300995 -3.28801,2.601998 -4.93201,3.902001 l -5.524,3.072998 -0.029,0.134003 4.19099,0.596" /><path
               id="path304"
               style="fill:none;stroke:#231f20;stroke-width:1;stroke-linecap:butt;stroke-linejoin:miter;stroke-miterlimit:4;stroke-dasharray:none;stroke-opacity:1"
               d="m 145.32901,96.239006 5.06099,-6.195" /><path
               id="path306"
               style="fill:#231f20;fill-opacity:1;fill-rule:nonzero;stroke:none"
               d="m 149.744,90.834007 1.405,3.975991 0.14099,-0.04399 1.90902,-6.026008 c 0.947,-1.870003 1.893,-3.739998 2.839,-5.610993 -1.644,1.300995 -3.28801,2.601998 -4.93201,3.902001 l -5.524,3.072998 -0.029,0.134003 4.19099,0.596" /><path
               id="path308"
               style="fill:#ffffff;fill-opacity:1;fill-rule:nonzero;stroke:none"
               d="m 21.088001,43.771004 4.216999,0.044 0.007,-0.146999 -5.005998,-3.860001 c -1.432001,-1.529998 -2.865002,-3.060001 -4.297001,-4.59 0.656999,1.989998 1.316,3.98 1.972999,5.970002 l 0.994002,6.243 0.115,0.074 1.996999,-3.733997" /><path
               id="path310"
               style="fill:none;stroke:#231f20;stroke-width:1;stroke-linecap:butt;stroke-linejoin:miter;stroke-miterlimit:4;stroke-dasharray:none;stroke-opacity:1"
               d="M 24.652,49.773003 20.567001,42.894001" /><path
               id="path312"
               style="fill:#231f20;fill-opacity:1;fill-rule:nonzero;stroke:none"
               d="m 21.088001,43.771004 4.216999,0.044 0.007,-0.146999 -5.005998,-3.860001 c -1.432001,-1.529998 -2.865002,-3.060001 -4.297001,-4.59 0.656999,1.989998 1.316,3.98 1.972999,5.970002 l 0.994002,6.243 0.115,0.074 1.996999,-3.733997" /><path
               id="path314"
               style="fill:#ffffff;fill-opacity:1;fill-rule:nonzero;stroke:none"
               d="m 56.035004,28.602001 2.033001,3.694 0.131996,-0.065 0.902,-6.257002 C 59.731003,23.975 60.359997,21.975 60.989002,19.976002 c -1.41,1.549999 -2.819999,3.101999 -4.229999,4.651998 l -4.949005,3.931999 -0.008,0.137002 4.233002,-0.095" /><path
               id="path316"
               style="fill:none;stroke:#231f20;stroke-width:1;stroke-linecap:butt;stroke-linejoin:miter;stroke-miterlimit:4;stroke-dasharray:none;stroke-opacity:1"
               d="M 52.558002,34.656002 56.543003,27.718" /><path
               id="path318"
               style="fill:#231f20;fill-opacity:1;fill-rule:nonzero;stroke:none"
               d="m 56.035004,28.602001 2.033001,3.694 0.131996,-0.065 0.902,-6.257002 C 59.731003,23.975 60.359997,21.975 60.989002,19.976002 c -1.41,1.549999 -2.819999,3.101999 -4.229999,4.651998 l -4.949005,3.931999 -0.008,0.137002 4.233002,-0.095" /><path
               id="path320"
               style="fill:#ffffff;fill-opacity:1;fill-rule:nonzero;stroke:none"
               d="m 34.574001,31.266001 3.642002,-2.125 -0.069,-0.129999 -6.277004,-0.747 C 29.855001,27.685001 27.841002,27.106001 25.827002,26.527 c 1.584999,1.371001 3.170999,2.742001 4.754999,4.112999 l 4.055,4.849999 0.137001,0.005 -0.200001,-4.229002" /><path
               id="path322"
               style="fill:none;stroke:#231f20;stroke-width:1;stroke-linecap:butt;stroke-linejoin:miter;stroke-miterlimit:4;stroke-dasharray:none;stroke-opacity:1"
               d="m 40.711002,34.591003 -7.034,-3.811004" /><path
               id="path324"
               style="fill:#231f20;fill-opacity:1;fill-rule:nonzero;stroke:none"
               d="m 34.574001,31.266001 3.642002,-2.125 -0.069,-0.129999 -6.277004,-0.747 C 29.855001,27.685001 27.841002,27.106001 25.827002,26.527 c 1.584999,1.371001 3.170999,2.742001 4.754999,4.112999 l 4.055,4.849999 0.137001,0.005 -0.200001,-4.229002" /><path
               id="path326"
               style="fill:#ffffff;fill-opacity:1;fill-rule:nonzero;stroke:none"
               d="m 103.93101,31.676001 -0.26901,4.208002 0.14601,0.015 4.123,-4.792 c 1.60499,-1.347002 3.21,-2.696001 4.81399,-4.044 -2.02199,0.549999 -4.045,1.100999 -6.067,1.650999 l -6.28699,0.657001 -0.081,0.111 3.62101,2.193999" /><path
               id="path328"
               style="fill:none;stroke:#231f20;stroke-width:1;stroke-linecap:butt;stroke-linejoin:miter;stroke-miterlimit:4;stroke-dasharray:none;stroke-opacity:1"
               d="m 97.747002,34.914001 7.088008,-3.711" /><path
               id="path330"
               style="fill:#231f20;fill-opacity:1;fill-rule:nonzero;stroke:none"
               d="m 103.93101,31.676001 -0.26901,4.208002 0.14601,0.015 4.123,-4.792 c 1.60499,-1.347002 3.21,-2.696001 4.81399,-4.044 -2.02199,0.549999 -4.045,1.100999 -6.067,1.650999 l -6.28699,0.657001 -0.081,0.111 3.62101,2.193999" /><path
               id="path332"
               style="fill:#ffffff;fill-opacity:1;fill-rule:nonzero;stroke:none"
               d="m 141.56,45.063004 -0.27001,4.208 0.14702,0.015 4.12299,-4.792 c 1.60501,-1.347 3.20901,-2.696003 4.81401,-4.045002 -2.022,0.550999 -4.045,1.100998 -6.067,1.652001 l -6.288,0.657001 -0.079,0.111 3.62,2.194001" /><path
               id="path334"
               style="fill:none;stroke:#231f20;stroke-width:1;stroke-linecap:butt;stroke-linejoin:miter;stroke-miterlimit:4;stroke-dasharray:none;stroke-opacity:1"
               d="M 135.375,48.299999 142.464,44.59" /><path
               id="path336"
               style="fill:#231f20;fill-opacity:1;fill-rule:nonzero;stroke:none"
               d="m 141.56,45.063004 -0.27001,4.208 0.14702,0.015 4.12299,-4.792 c 1.60501,-1.347 3.20901,-2.696003 4.81401,-4.045002 -2.022,0.550999 -4.045,1.100998 -6.067,1.652001 l -6.288,0.657001 -0.079,0.111 3.62,2.194001" /><path
               id="path338"
               style="fill:#ffffff;fill-opacity:1;fill-rule:nonzero;stroke:none"
               d="m 185.70901,40.166 1.892,3.769001 0.13401,-0.061 1.13899,-6.217999 c 0.705,-1.973999 1.41,-3.948002 2.114,-5.922001 -1.46802,1.495999 -2.935,2.992001 -4.403,4.487999 l -5.096,3.741001 -0.013,0.137001 4.233,0.066" /><path
               id="path340"
               style="fill:none;stroke:#231f20;stroke-width:1;stroke-linecap:butt;stroke-linejoin:miter;stroke-miterlimit:4;stroke-dasharray:none;stroke-opacity:1"
               d="m 182.005,46.083004 4.245,-6.782001" /><path
               id="path342"
               style="fill:#231f20;fill-opacity:1;fill-rule:nonzero;stroke:none"
               d="m 185.70901,40.166 1.892,3.769001 0.13401,-0.061 1.13899,-6.217999 c 0.705,-1.973999 1.41,-3.948002 2.114,-5.922001 -1.46802,1.495999 -2.935,2.992001 -4.403,4.487999 l -5.096,3.741001 -0.013,0.137001 4.233,0.066" /><path
               id="path344"
               style="fill:#ffffff;fill-opacity:1;fill-rule:nonzero;stroke:none"
               d="m 120.71201,37.521 1.746,3.838001 0.136,-0.055 1.377,-6.169998 c 0.77899,-1.946003 1.55899,-3.891001 2.338,-5.837002 -1.52401,1.439001 -3.048,2.878002 -4.572,4.316002 l -5.235,3.543998 -0.018,0.136002 4.228,0.227997" /><path
               id="path346"
               style="fill:none;stroke:#231f20;stroke-width:1;stroke-linecap:butt;stroke-linejoin:miter;stroke-miterlimit:4;stroke-dasharray:none;stroke-opacity:1"
               d="m 116.784,43.292004 4.502,-6.614003" /><path
               id="path348"
               style="fill:#231f20;fill-opacity:1;fill-rule:nonzero;stroke:none"
               d="m 120.71201,37.521 1.746,3.838001 0.136,-0.055 1.377,-6.169998 c 0.77899,-1.946003 1.55899,-3.891001 2.338,-5.837002 -1.52401,1.439001 -3.048,2.878002 -4.572,4.316002 l -5.235,3.543998 -0.018,0.136002 4.228,0.227997" /><path
               id="path350"
               style="fill:#ffffff;fill-opacity:1;fill-rule:nonzero;stroke:none"
               d="m 75.144005,31.875002 4.194,-0.428 -0.009,-0.147001 -5.405998,-3.275999 C 72.328003,26.664001 70.734001,25.304001 69.139,23.943001 c 0.877006,1.904001 1.753006,3.809 2.630005,5.712 l 1.684997,6.093 0.123001,0.061 1.567002,-3.934" /><path
               id="path352"
               style="fill:none;stroke:#231f20;stroke-width:1;stroke-linecap:butt;stroke-linejoin:miter;stroke-miterlimit:4;stroke-dasharray:none;stroke-opacity:1"
               d="M 79.357002,37.441002 74.528,31.062002" /><path
               id="path354"
               style="fill:#231f20;fill-opacity:1;fill-rule:nonzero;stroke:none"
               d="m 75.144005,31.875002 4.194,-0.428 -0.009,-0.147001 -5.405998,-3.275999 C 72.328003,26.664001 70.734001,25.304001 69.139,23.943001 c 0.877006,1.904001 1.753006,3.809 2.630005,5.712 l 1.684997,6.093 0.123001,0.061 1.567002,-3.934" /><text
               id="text358"
               style="font-variant:normal;font-weight:normal;font-size:7.65119982px;font-family:CMR12;-inkscape-font-specification:CMR12;writing-mode:lr-tb;fill:#231f20;fill-opacity:1;fill-rule:nonzero;stroke:none"
               transform="matrix(1,0,0,-1,99.629898,20.674299)"><tspan
                 id="tspan356"
                 y="0"
                 x="0">0</tspan></text>
<text
               id="text362"
               style="font-variant:normal;font-weight:normal;font-size:7.65119982px;font-family:CMMI12;-inkscape-font-specification:CMMI12;writing-mode:lr-tb;fill:#231f20;fill-opacity:1;fill-rule:nonzero;stroke:none"
               transform="matrix(1,0,0,-1,103.37516,20.674299)"><tspan
                 id="tspan360"
                 y="0"
                 x="0">.</tspan></text>
<text
               id="text366"
               style="font-variant:normal;font-weight:normal;font-size:7.65119982px;font-family:CMR12;-inkscape-font-specification:CMR12;writing-mode:lr-tb;fill:#231f20;fill-opacity:1;fill-rule:nonzero;stroke:none"
               transform="matrix(1,0,0,-1,105.45552,20.674299)"><tspan
                 id="tspan364"
                 y="0"
                 x="0">2</tspan></text>
</g></g></g></g></g></svg>