<?xml version="1.0" encoding="UTF-8" standalone="no"?>
<svg
   xmlns:dc="http://purl.org/dc/elements/1.1/"
   xmlns:cc="http://creativecommons.org/ns#"
   xmlns:rdf="http://www.w3.org/1999/02/22-rdf-syntax-ns#"
   xmlns:svg="http://www.w3.org/2000/svg"
   xmlns="http://www.w3.org/2000/svg"
   viewBox="0 0 224 89.333336"
   height="89.333336"
   width="224"
   xml:space="preserve"
   id="svg2"
   version="1.1"><metadata
     id="metadata8"><rdf:RDF><cc:Work
         rdf:about=""><dc:format>image/svg+xml</dc:format><dc:type
           rdf:resource="http://purl.org/dc/dcmitype/StillImage" /></cc:Work></rdf:RDF></metadata><defs
     id="defs6"><clipPath
       id="clipPath24"
       clipPathUnits="userSpaceOnUse"><path
         id="path22"
         d="M 0,0 H 168 V 67 H 0 Z" /></clipPath></defs><g
     transform="matrix(1.3333333,0,0,-1.3333333,0,89.333333)"
     id="g10"><g
       id="g12" /><g
       id="g14" /><g
       id="g16"><g
         id="g18"><g
           clip-path="url(#clipPath24)"
           id="g20"><g
             id="g26" /><g
             id="g28"><text
               id="text32"
               style="font-variant:normal;font-weight:normal;font-size:11.95500088px;font-family:CMMI12;-inkscape-font-specification:CMMI12;writing-mode:lr-tb;fill:#231f20;fill-opacity:1;fill-rule:nonzero;stroke:none"
               transform="matrix(1,0,0,-1,0.0527,4.7275)"><tspan
                 id="tspan30"
                 y="0"
                 x="0">S</tspan></text>
<text
               id="text36"
               style="font-variant:normal;font-weight:normal;font-size:7.96999979px;font-family:CMR8;-inkscape-font-specification:CMR8;writing-mode:lr-tb;fill:#231f20;fill-opacity:1;fill-rule:nonzero;stroke:none"
               transform="matrix(1,0,0,-1,7.2514997,2.9345999)"><tspan
                 id="tspan34"
                 y="0"
                 x="0">1</tspan></text>
<text
               id="text40"
               style="font-variant:normal;font-weight:normal;font-size:11.95500088px;font-family:CMMI12;-inkscape-font-specification:CMMI12;writing-mode:lr-tb;fill:#231f20;fill-opacity:1;fill-rule:nonzero;stroke:none"
               transform="matrix(1,0,0,-1,65.689499,5.7275)"><tspan
                 id="tspan38"
                 y="0"
                 x="0">S</tspan></text>
<text
               id="text44"
               style="font-variant:normal;font-weight:normal;font-size:7.96999979px;font-family:CMR8;-inkscape-font-specification:CMR8;writing-mode:lr-tb;fill:#231f20;fill-opacity:1;fill-rule:nonzero;stroke:none"
               transform="matrix(1,0,0,-1,72.889595,3.9345999)"><tspan
                 id="tspan42"
                 y="0"
                 x="0">2</tspan></text>
<text
               id="text48"
               style="font-variant:normal;font-weight:normal;font-size:11.95500088px;font-family:CMMI12;-inkscape-font-specification:CMMI12;writing-mode:lr-tb;fill:#231f20;fill-opacity:1;fill-rule:nonzero;stroke:none"
               transform="matrix(1,0,0,-1,155.82759,4.2275)"><tspan
                 id="tspan46"
                 y="0"
                 x="0">S</tspan></text>
<text
               id="text52"
               style="font-variant:normal;font-weight:normal;font-size:7.96999979px;font-family:CMR8;-inkscape-font-specification:CMR8;writing-mode:lr-tb;fill:#231f20;fill-opacity:1;fill-rule:nonzero;stroke:none"
               transform="matrix(1,0,0,-1,163.0269,2.4345999)"><tspan
                 id="tspan50"
                 y="0"
                 x="0">3</tspan></text>
<text
               id="text56"
               style="font-variant:normal;font-weight:normal;font-size:11.95500088px;font-family:CMMI12;-inkscape-font-specification:CMMI12;writing-mode:lr-tb;fill:#231f20;fill-opacity:1;fill-rule:nonzero;stroke:none"
               transform="matrix(1,0,0,-1,50.481899,57.147499)"><tspan
                 id="tspan54"
                 y="0"
                 x="0">T</tspan></text>
<text
               id="text60"
               style="font-variant:normal;font-weight:normal;font-size:7.96999979px;font-family:CMR8;-inkscape-font-specification:CMR8;writing-mode:lr-tb;fill:#231f20;fill-opacity:1;fill-rule:nonzero;stroke:none"
               transform="matrix(1,0,0,-1,57.3428,55.3545)"><tspan
                 id="tspan58"
                 y="0"
                 x="0">1</tspan></text>
<text
               id="text64"
               style="font-variant:normal;font-weight:normal;font-size:11.95500088px;font-family:CMMI12;-inkscape-font-specification:CMMI12;writing-mode:lr-tb;fill:#231f20;fill-opacity:1;fill-rule:nonzero;stroke:none"
               transform="matrix(1,0,0,-1,110.2808,56.647499)"><tspan
                 id="tspan62"
                 y="0"
                 x="0">T</tspan></text>
<text
               id="text68"
               style="font-variant:normal;font-weight:normal;font-size:7.96999979px;font-family:CMR8;-inkscape-font-specification:CMR8;writing-mode:lr-tb;fill:#231f20;fill-opacity:1;fill-rule:nonzero;stroke:none"
               transform="matrix(1,0,0,-1,117.1421,54.8545)"><tspan
                 id="tspan66"
                 y="0"
                 x="0">2</tspan></text>
<path
               id="path70"
               style="fill:none;stroke:#231f20;stroke-width:1;stroke-linecap:butt;stroke-linejoin:miter;stroke-miterlimit:4;stroke-dasharray:none;stroke-opacity:1"
               d="M 14.028001,4.9200001 53.528004,53.419998 m 57.750006,-1 L 14.278001,5.4200001 m 67.250007,-0.5 29.750002,47.4999979 M 151.028,5.9200001 54.028004,52.919998 81.528008,4.9200001 m 69.749992,-0.5 -39.49999,48.4999979" /><text
               id="text74"
               style="font-variant:normal;font-weight:normal;font-size:7.65119982px;font-family:CMR12;-inkscape-font-specification:CMR12;writing-mode:lr-tb;fill:#231f20;fill-opacity:1;fill-rule:nonzero;stroke:none"
               transform="matrix(1,0,0,-1,17.7813,27.7607)"><tspan
                 id="tspan72"
                 y="0"
                 x="0">0</tspan></text>
<text
               id="text78"
               style="font-variant:normal;font-weight:normal;font-size:7.65119982px;font-family:CMMI12;-inkscape-font-specification:CMMI12;writing-mode:lr-tb;fill:#231f20;fill-opacity:1;fill-rule:nonzero;stroke:none"
               transform="matrix(1,0,0,-1,21.526562,27.7607)"><tspan
                 id="tspan76"
                 y="0"
                 x="0">.</tspan></text>
<text
               id="text82"
               style="font-variant:normal;font-weight:normal;font-size:7.65119982px;font-family:CMR12;-inkscape-font-specification:CMR12;writing-mode:lr-tb;fill:#231f20;fill-opacity:1;fill-rule:nonzero;stroke:none"
               transform="matrix(1,0,0,-1,23.608454,27.7607)"><tspan
                 id="tspan80"
                 y="0"
                 x="0">4</tspan></text>
<text
               id="text86"
               style="font-variant:normal;font-weight:normal;font-size:7.65119982px;font-family:CMR12;-inkscape-font-specification:CMR12;writing-mode:lr-tb;fill:#231f20;fill-opacity:1;fill-rule:nonzero;stroke:none"
               transform="matrix(1,0,0,-1,51.200974,34.420303)"><tspan
                 id="tspan84"
                 y="0"
                 x="0">0</tspan></text>
<text
               id="text90"
               style="font-variant:normal;font-weight:normal;font-size:7.65119982px;font-family:CMMI12;-inkscape-font-specification:CMMI12;writing-mode:lr-tb;fill:#231f20;fill-opacity:1;fill-rule:nonzero;stroke:none"
               transform="matrix(1,0,0,-1,54.947002,34.420303)"><tspan
                 id="tspan88"
                 y="0"
                 x="0">.</tspan></text>
<text
               id="text94"
               style="font-variant:normal;font-weight:normal;font-size:7.65119982px;font-family:CMR12;-inkscape-font-specification:CMR12;writing-mode:lr-tb;fill:#231f20;fill-opacity:1;fill-rule:nonzero;stroke:none"
               transform="matrix(1,0,0,-1,57.02813,34.420303)"><tspan
                 id="tspan92"
                 y="0"
                 x="0">4</tspan></text>
<text
               id="text98"
               style="font-variant:normal;font-weight:normal;font-size:7.65119982px;font-family:CMR12;-inkscape-font-specification:CMR12;writing-mode:lr-tb;fill:#231f20;fill-opacity:1;fill-rule:nonzero;stroke:none"
               transform="matrix(1,0,0,-1,134.92194,31.261124)"><tspan
                 id="tspan96"
                 y="0"
                 x="0">0</tspan></text>
<text
               id="text102"
               style="font-variant:normal;font-weight:normal;font-size:7.65119982px;font-family:CMMI12;-inkscape-font-specification:CMMI12;writing-mode:lr-tb;fill:#231f20;fill-opacity:1;fill-rule:nonzero;stroke:none"
               transform="matrix(1,0,0,-1,138.66797,31.261124)"><tspan
                 id="tspan100"
                 y="0"
                 x="0">.</tspan></text>
<text
               id="text106"
               style="font-variant:normal;font-weight:normal;font-size:7.65119982px;font-family:CMR12;-inkscape-font-specification:CMR12;writing-mode:lr-tb;fill:#231f20;fill-opacity:1;fill-rule:nonzero;stroke:none"
               transform="matrix(1,0,0,-1,140.74834,31.261124)"><tspan
                 id="tspan104"
                 y="0"
                 x="0">3</tspan></text>
<text
               id="text110"
               style="font-variant:normal;font-weight:normal;font-size:7.65119982px;font-family:CMR12;-inkscape-font-specification:CMR12;writing-mode:lr-tb;fill:#231f20;fill-opacity:1;fill-rule:nonzero;stroke:none"
               transform="matrix(1,0,0,-1,47.201714,13.920445)"><tspan
                 id="tspan108"
                 y="0"
                 x="0">0</tspan></text>
<text
               id="text114"
               style="font-variant:normal;font-weight:normal;font-size:7.65119982px;font-family:CMMI12;-inkscape-font-specification:CMMI12;writing-mode:lr-tb;fill:#231f20;fill-opacity:1;fill-rule:nonzero;stroke:none"
               transform="matrix(1,0,0,-1,50.946976,13.920445)"><tspan
                 id="tspan112"
                 y="0"
                 x="0">.</tspan></text>
<text
               id="text118"
               style="font-variant:normal;font-weight:normal;font-size:7.65119982px;font-family:CMR12;-inkscape-font-specification:CMR12;writing-mode:lr-tb;fill:#231f20;fill-opacity:1;fill-rule:nonzero;stroke:none"
               transform="matrix(1,0,0,-1,53.028103,13.920445)"><tspan
                 id="tspan116"
                 y="0"
                 x="0">5</tspan></text>
<text
               id="text122"
               style="font-variant:normal;font-weight:normal;font-size:7.65119982px;font-family:CMR12;-inkscape-font-specification:CMR12;writing-mode:lr-tb;fill:#231f20;fill-opacity:1;fill-rule:nonzero;stroke:none"
               transform="matrix(1,0,0,-1,115.0625,12.761289)"><tspan
                 id="tspan120"
                 y="0"
                 x="0">0</tspan></text>
<text
               id="text126"
               style="font-variant:normal;font-weight:normal;font-size:7.65119982px;font-family:CMMI12;-inkscape-font-specification:CMMI12;writing-mode:lr-tb;fill:#231f20;fill-opacity:1;fill-rule:nonzero;stroke:none"
               transform="matrix(1,0,0,-1,118.80776,12.761289)"><tspan
                 id="tspan124"
                 y="0"
                 x="0">.</tspan></text>
<text
               id="text130"
               style="font-variant:normal;font-weight:normal;font-size:7.65119982px;font-family:CMR12;-inkscape-font-specification:CMR12;writing-mode:lr-tb;fill:#231f20;fill-opacity:1;fill-rule:nonzero;stroke:none"
               transform="matrix(1,0,0,-1,120.88812,12.761289)"><tspan
                 id="tspan128"
                 y="0"
                 x="0">2</tspan></text>
<text
               id="text134"
               style="font-variant:normal;font-weight:normal;font-size:7.65119982px;font-family:CMR12;-inkscape-font-specification:CMR12;writing-mode:lr-tb;fill:#231f20;fill-opacity:1;fill-rule:nonzero;stroke:none"
               transform="matrix(1,0,0,-1,91.201469,10.92041)"><tspan
                 id="tspan132"
                 y="0"
                 x="0">0</tspan></text>
<text
               id="text138"
               style="font-variant:normal;font-weight:normal;font-size:7.65119982px;font-family:CMMI12;-inkscape-font-specification:CMMI12;writing-mode:lr-tb;fill:#231f20;fill-opacity:1;fill-rule:nonzero;stroke:none"
               transform="matrix(1,0,0,-1,94.947495,10.92041)"><tspan
                 id="tspan136"
                 y="0"
                 x="0">.</tspan></text>
<text
               id="text142"
               style="font-variant:normal;font-weight:normal;font-size:7.65119982px;font-family:CMR12;-inkscape-font-specification:CMR12;writing-mode:lr-tb;fill:#231f20;fill-opacity:1;fill-rule:nonzero;stroke:none"
               transform="matrix(1,0,0,-1,97.027855,10.92041)"><tspan
                 id="tspan140"
                 y="0"
                 x="0">2</tspan></text>
<path
               id="path144"
               style="fill:#ffffff;fill-opacity:1;fill-rule:nonzero;stroke:none"
               d="m 31.762001,26.692001 4.187,-0.495 -0.011,-0.147002 -5.459002,-3.187998 c -1.616001,-1.335001 -3.232,-2.67 -4.849003,-4.003999 0.907002,1.889999 1.814003,3.779998 2.721003,5.668998 l 1.782999,6.065001 0.124,0.058 1.504,-3.957999" /><path
               id="path146"
               style="fill:none;stroke:#231f20;stroke-width:1;stroke-linecap:butt;stroke-linejoin:miter;stroke-miterlimit:4;stroke-dasharray:none;stroke-opacity:1"
               d="M 36.064003,32.189003 31.133001,25.889002" /><path
               id="path148"
               style="fill:#231f20;fill-opacity:1;fill-rule:nonzero;stroke:none"
               d="m 31.762001,26.692001 4.187,-0.495 -0.011,-0.147002 -5.459002,-3.187998 c -1.616001,-1.335001 -3.232,-2.67 -4.849003,-4.003999 0.907002,1.889999 1.814003,3.779998 2.721003,5.668998 l 1.782999,6.065001 0.124,0.058 1.504,-3.957999" /><path
               id="path150"
               style="fill:#ffffff;fill-opacity:1;fill-rule:nonzero;stroke:none"
               d="m 73.353004,18.709002 2.145997,3.629999 0.130004,-0.07 0.709,-6.281 c 0.568001,-2.018002 1.135002,-4.036 1.701996,-6.054001 -1.362,1.594001 -2.723,3.188001 -4.084999,4.781001 l -4.825997,4.082 -0.004,0.138 4.228004,-0.225999" /><path
               id="path152"
               style="fill:none;stroke:#231f20;stroke-width:1;stroke-linecap:butt;stroke-linejoin:miter;stroke-miterlimit:4;stroke-dasharray:none;stroke-opacity:1"
               d="M 70.064003,24.866001 73.833,17.809999" /><path
               id="path154"
               style="fill:#231f20;fill-opacity:1;fill-rule:nonzero;stroke:none"
               d="m 73.353004,18.709002 2.145997,3.629999 0.130004,-0.07 0.709,-6.281 c 0.568001,-2.018002 1.135002,-4.036 1.701996,-6.054001 -1.362,1.594001 -2.723,3.188001 -4.084999,4.781001 l -4.825997,4.082 -0.004,0.138 4.228004,-0.225999" /><path
               id="path156"
               style="fill:#ffffff;fill-opacity:1;fill-rule:nonzero;stroke:none"
               d="m 91.129005,20.291 4.211998,-0.216999 -0.002,-0.147001 -5.235001,-3.543999 c -1.523003,-1.439001 -3.047997,-2.878 -4.571999,-4.317 0.779,1.946 1.558998,3.892 2.338997,5.837001 l 1.376,6.17 0.120002,0.067 1.762001,-3.848999" /><path
               id="path158"
               style="fill:none;stroke:#231f20;stroke-width:1;stroke-linecap:butt;stroke-linejoin:miter;stroke-miterlimit:4;stroke-dasharray:none;stroke-opacity:1"
               d="m 95.057007,26.061001 -4.501,-6.614" /><path
               id="path160"
               style="fill:#231f20;fill-opacity:1;fill-rule:nonzero;stroke:none"
               d="m 91.129005,20.291 4.211998,-0.216999 -0.002,-0.147001 -5.235001,-3.543999 c -1.523003,-1.439001 -3.047997,-2.878 -4.571999,-4.317 0.779,1.946 1.558998,3.892 2.338997,5.837001 l 1.376,6.17 0.120002,0.067 1.762001,-3.848999" /><path
               id="path162"
               style="fill:#ffffff;fill-opacity:1;fill-rule:nonzero;stroke:none"
               d="m 110.71101,25.228001 -0.35,4.201997 0.14599,0.018 4.21401,-4.712 c 1.631,-1.317001 3.26099,-2.634001 4.891,-3.952002 -2.03202,0.512001 -4.06501,1.024001 -6.098,1.535 l -6.29901,0.536001 -0.082,0.109999 3.57801,2.263001" /><path
               id="path164"
               style="fill:none;stroke:#231f20;stroke-width:1;stroke-linecap:butt;stroke-linejoin:miter;stroke-miterlimit:4;stroke-dasharray:none;stroke-opacity:1"
               d="m 104.467,28.346001 7.15701,-3.573" /><path
               id="path166"
               style="fill:#231f20;fill-opacity:1;fill-rule:nonzero;stroke:none"
               d="m 110.71101,25.228001 -0.35,4.201997 0.14599,0.018 4.21401,-4.712 c 1.631,-1.317001 3.26099,-2.634001 4.891,-3.952002 -2.03202,0.512001 -4.06501,1.024001 -6.098,1.535 l -6.29901,0.536001 -0.082,0.109999 3.57801,2.263001" /><path
               id="path168"
               style="fill:#ffffff;fill-opacity:1;fill-rule:nonzero;stroke:none"
               d="m 53.236004,24.244001 3.557999,-2.262001 -0.073,-0.126999 -6.301006,-0.507 c -2.034996,-0.502 -4.07,-1.003999 -6.104996,-1.505001 1.636002,1.309 3.272999,2.618 4.909001,3.928002 l 4.235996,4.691999 h 0.137005 l -0.361,-4.219" /><path
               id="path170"
               style="fill:none;stroke:#231f20;stroke-width:1;stroke-linecap:butt;stroke-linejoin:miter;stroke-miterlimit:4;stroke-dasharray:none;stroke-opacity:1"
               d="m 59.495003,27.333002 -7.174,-3.540001" /><path
               id="path172"
               style="fill:#231f20;fill-opacity:1;fill-rule:nonzero;stroke:none"
               d="m 53.236004,24.244001 3.557999,-2.262001 -0.073,-0.126999 -6.301006,-0.507 c -2.034996,-0.502 -4.07,-1.003999 -6.104996,-1.505001 1.636002,1.309 3.272999,2.618 4.909001,3.928002 l 4.235996,4.691999 h 0.137005 l -0.361,-4.219" /><path
               id="path174"
               style="fill:#ffffff;fill-opacity:1;fill-rule:nonzero;stroke:none"
               d="m 130.272,30.254002 1.405,3.974998 0.14101,-0.042 1.909,-6.027 c 0.947,-1.870001 1.89299,-3.740999 2.839,-5.610998 -1.644,1.300998 -3.287,2.600998 -4.931,3.902 l -5.524,3.073 -0.03,0.133999 4.19099,0.596001" /><path
               id="path176"
               style="fill:none;stroke:#231f20;stroke-width:1;stroke-linecap:butt;stroke-linejoin:miter;stroke-miterlimit:4;stroke-dasharray:none;stroke-opacity:1"
               d="m 125.857,35.659 5.061,-6.194999" /><path
               id="path178"
               style="fill:#231f20;fill-opacity:1;fill-rule:nonzero;stroke:none"
               d="m 130.272,30.254002 1.405,3.974998 0.14101,-0.042 1.909,-6.027 c 0.947,-1.870001 1.89299,-3.740999 2.839,-5.610998 -1.644,1.300998 -3.287,2.600998 -4.931,3.902 l -5.524,3.073 -0.03,0.133999 4.19099,0.596001" /></g></g></g></g></g></svg>