<?xml version="1.0" encoding="UTF-8" standalone="no"?>
<svg
   xmlns:dc="http://purl.org/dc/elements/1.1/"
   xmlns:cc="http://creativecommons.org/ns#"
   xmlns:rdf="http://www.w3.org/1999/02/22-rdf-syntax-ns#"
   xmlns:svg="http://www.w3.org/2000/svg"
   xmlns="http://www.w3.org/2000/svg"
   viewBox="0 0 278.66666 100"
   height="100"
   width="278.66666"
   xml:space="preserve"
   id="svg2"
   version="1.1"><metadata
     id="metadata8"><rdf:RDF><cc:Work
         rdf:about=""><dc:format>image/svg+xml</dc:format><dc:type
           rdf:resource="http://purl.org/dc/dcmitype/StillImage" /></cc:Work></rdf:RDF></metadata><defs
     id="defs6"><clipPath
       id="clipPath24"
       clipPathUnits="userSpaceOnUse"><path
         id="path22"
         d="M 0,0 H 209 V 75 H 0 Z" /></clipPath></defs><g
     transform="matrix(1.3333333,0,0,-1.3333333,0,100)"
     id="g10"><g
       id="g12" /><g
       id="g14" /><g
       id="g16"><g
         id="g18"><g
           clip-path="url(#clipPath24)"
           id="g20"><g
             id="g26" /><g
             id="g28"><text
               id="text32"
               style="font-variant:normal;font-weight:normal;font-size:11.95500088px;font-family:CMMI12;-inkscape-font-specification:CMMI12;writing-mode:lr-tb;fill:#231f20;fill-opacity:1;fill-rule:nonzero;stroke:none"
               transform="matrix(1,0,0,-1,19.0527,64.727501)"><tspan
                 id="tspan30"
                 y="0"
                 x="0">S</tspan></text>
<text
               id="text36"
               style="font-variant:normal;font-weight:normal;font-size:7.96999979px;font-family:CMR8;-inkscape-font-specification:CMR8;writing-mode:lr-tb;fill:#231f20;fill-opacity:1;fill-rule:nonzero;stroke:none"
               transform="matrix(1,0,0,-1,26.251499,62.934597)"><tspan
                 id="tspan34"
                 y="0"
                 x="0">1</tspan></text>
<text
               id="text40"
               style="font-variant:normal;font-weight:normal;font-size:11.95500088px;font-family:CMMI12;-inkscape-font-specification:CMMI12;writing-mode:lr-tb;fill:#231f20;fill-opacity:1;fill-rule:nonzero;stroke:none"
               transform="matrix(1,0,0,-1,84.689499,65.727501)"><tspan
                 id="tspan38"
                 y="0"
                 x="0">S</tspan></text>
<text
               id="text44"
               style="font-variant:normal;font-weight:normal;font-size:7.96999979px;font-family:CMR8;-inkscape-font-specification:CMR8;writing-mode:lr-tb;fill:#231f20;fill-opacity:1;fill-rule:nonzero;stroke:none"
               transform="matrix(1,0,0,-1,91.889595,63.934597)"><tspan
                 id="tspan42"
                 y="0"
                 x="0">2</tspan></text>
<text
               id="text48"
               style="font-variant:normal;font-weight:normal;font-size:11.95500088px;font-family:CMMI12;-inkscape-font-specification:CMMI12;writing-mode:lr-tb;fill:#231f20;fill-opacity:1;fill-rule:nonzero;stroke:none"
               transform="matrix(1,0,0,-1,174.82759,64.227501)"><tspan
                 id="tspan46"
                 y="0"
                 x="0">S</tspan></text>
<text
               id="text52"
               style="font-variant:normal;font-weight:normal;font-size:7.96999979px;font-family:CMR8;-inkscape-font-specification:CMR8;writing-mode:lr-tb;fill:#231f20;fill-opacity:1;fill-rule:nonzero;stroke:none"
               transform="matrix(1,0,0,-1,182.0269,62.434597)"><tspan
                 id="tspan50"
                 y="0"
                 x="0">3</tspan></text>
<text
               id="text56"
               style="font-variant:normal;font-weight:normal;font-size:11.95500088px;font-family:CMMI12;-inkscape-font-specification:CMMI12;writing-mode:lr-tb;fill:#231f20;fill-opacity:1;fill-rule:nonzero;stroke:none"
               transform="matrix(1,0,0,-1,0.46579999,4.7275)"><tspan
                 id="tspan54"
                 y="0"
                 x="0">P</tspan></text>
<text
               id="text60"
               style="font-variant:normal;font-weight:normal;font-size:7.96999979px;font-family:CMR8;-inkscape-font-specification:CMR8;writing-mode:lr-tb;fill:#231f20;fill-opacity:1;fill-rule:nonzero;stroke:none"
               transform="matrix(1,0,0,-1,8.0107002,2.9345999)"><tspan
                 id="tspan58"
                 y="0"
                 x="0">1</tspan></text>
<text
               id="text64"
               style="font-variant:normal;font-weight:normal;font-size:11.95500088px;font-family:CMMI12;-inkscape-font-specification:CMMI12;writing-mode:lr-tb;fill:#231f20;fill-opacity:1;fill-rule:nonzero;stroke:none"
               transform="matrix(1,0,0,-1,58.144497,4.2275)"><tspan
                 id="tspan62"
                 y="0"
                 x="0">P</tspan></text>
<text
               id="text68"
               style="font-variant:normal;font-weight:normal;font-size:7.96999979px;font-family:CMR8;-inkscape-font-specification:CMR8;writing-mode:lr-tb;fill:#231f20;fill-opacity:1;fill-rule:nonzero;stroke:none"
               transform="matrix(1,0,0,-1,65.689499,2.4345999)"><tspan
                 id="tspan66"
                 y="0"
                 x="0">2</tspan></text>
<text
               id="text72"
               style="font-variant:normal;font-weight:normal;font-size:11.95500088px;font-family:CMMI12;-inkscape-font-specification:CMMI12;writing-mode:lr-tb;fill:#231f20;fill-opacity:1;fill-rule:nonzero;stroke:none"
               transform="matrix(1,0,0,-1,130.82469,4.7275)"><tspan
                 id="tspan70"
                 y="0"
                 x="0">P</tspan></text>
<text
               id="text76"
               style="font-variant:normal;font-weight:normal;font-size:7.96999979px;font-family:CMR8;-inkscape-font-specification:CMR8;writing-mode:lr-tb;fill:#231f20;fill-opacity:1;fill-rule:nonzero;stroke:none"
               transform="matrix(1,0,0,-1,138.3696,2.9345999)"><tspan
                 id="tspan74"
                 y="0"
                 x="0">3</tspan></text>
<text
               id="text80"
               style="font-variant:normal;font-weight:normal;font-size:11.95500088px;font-family:CMMI12;-inkscape-font-specification:CMMI12;writing-mode:lr-tb;fill:#231f20;fill-opacity:1;fill-rule:nonzero;stroke:none"
               transform="matrix(1,0,0,-1,196.50339,5.2275)"><tspan
                 id="tspan78"
                 y="0"
                 x="0">P</tspan></text>
<text
               id="text84"
               style="font-variant:normal;font-weight:normal;font-size:7.96999979px;font-family:CMR8;-inkscape-font-specification:CMR8;writing-mode:lr-tb;fill:#231f20;fill-opacity:1;fill-rule:nonzero;stroke:none"
               transform="matrix(1,0,0,-1,204.04979,3.4345999)"><tspan
                 id="tspan82"
                 y="0"
                 x="0">4</tspan></text>
<text
               id="text88"
               style="font-variant:normal;font-weight:normal;font-size:7.65119982px;font-family:CMR12;-inkscape-font-specification:CMR12;writing-mode:lr-tb;fill:#231f20;fill-opacity:1;fill-rule:nonzero;stroke:none"
               transform="matrix(1,0,0,-1,147.39259,25.5)"><tspan
                 id="tspan86"
                 y="0"
                 x="0">0</tspan></text>
<text
               id="text92"
               style="font-variant:normal;font-weight:normal;font-size:7.65119982px;font-family:CMMI12;-inkscape-font-specification:CMMI12;writing-mode:lr-tb;fill:#231f20;fill-opacity:1;fill-rule:nonzero;stroke:none"
               transform="matrix(1,0,0,-1,151.13863,25.5)"><tspan
                 id="tspan90"
                 y="0"
                 x="0">.</tspan></text>
<text
               id="text96"
               style="font-variant:normal;font-weight:normal;font-size:7.65119982px;font-family:CMR12;-inkscape-font-specification:CMR12;writing-mode:lr-tb;fill:#231f20;fill-opacity:1;fill-rule:nonzero;stroke:none"
               transform="matrix(1,0,0,-1,153.21976,25.5)"><tspan
                 id="tspan94"
                 y="0"
                 x="0">4</tspan></text>
<text
               id="text100"
               style="font-variant:normal;font-weight:normal;font-size:7.65119982px;font-family:CMR12;-inkscape-font-specification:CMR12;writing-mode:lr-tb;fill:#231f20;fill-opacity:1;fill-rule:nonzero;stroke:none"
               transform="matrix(1,0,0,-1,185.74347,48.999893)"><tspan
                 id="tspan98"
                 y="0"
                 x="0">0</tspan></text>
<text
               id="text104"
               style="font-variant:normal;font-weight:normal;font-size:7.65119982px;font-family:CMMI12;-inkscape-font-specification:CMMI12;writing-mode:lr-tb;fill:#231f20;fill-opacity:1;fill-rule:nonzero;stroke:none"
               transform="matrix(1,0,0,-1,189.4895,48.999893)"><tspan
                 id="tspan102"
                 y="0"
                 x="0">.</tspan></text>
<text
               id="text108"
               style="font-variant:normal;font-weight:normal;font-size:7.65119982px;font-family:CMR12;-inkscape-font-specification:CMR12;writing-mode:lr-tb;fill:#231f20;fill-opacity:1;fill-rule:nonzero;stroke:none"
               transform="matrix(1,0,0,-1,191.57063,48.999893)"><tspan
                 id="tspan106"
                 y="0"
                 x="0">6</tspan></text>
<path
               id="path110"
               style="fill:none;stroke:#231f20;stroke-width:1;stroke-linecap:butt;stroke-linejoin:miter;stroke-miterlimit:4;stroke-dasharray:none;stroke-opacity:1"
               d="M 33.75,66 135.5,16.5 M 5,16 33.75,66 M 101,65.5 5,16 m 194,0.5 -98,49 M 135.5,16.5 170.75,65 199,16.5 m -98,49 34.5,-49 M 33.75,66 63.5,16.5 101,65.5" /><text
               id="text114"
               style="font-variant:normal;font-weight:normal;font-size:7.65119982px;font-family:CMR12;-inkscape-font-specification:CMR12;writing-mode:lr-tb;fill:#231f20;fill-opacity:1;fill-rule:nonzero;stroke:none"
               transform="matrix(1,0,0,-1,130.25389,51.5)"><tspan
                 id="tspan112"
                 y="0"
                 x="0">0</tspan></text>
<text
               id="text118"
               style="font-variant:normal;font-weight:normal;font-size:7.65119982px;font-family:CMMI12;-inkscape-font-specification:CMMI12;writing-mode:lr-tb;fill:#231f20;fill-opacity:1;fill-rule:nonzero;stroke:none"
               transform="matrix(1,0,0,-1,133.99992,51.5)"><tspan
                 id="tspan116"
                 y="0"
                 x="0">.</tspan></text>
<text
               id="text122"
               style="font-variant:normal;font-weight:normal;font-size:7.65119982px;font-family:CMR12;-inkscape-font-specification:CMR12;writing-mode:lr-tb;fill:#231f20;fill-opacity:1;fill-rule:nonzero;stroke:none"
               transform="matrix(1,0,0,-1,136.08105,51.5)"><tspan
                 id="tspan120"
                 y="0"
                 x="0">1</tspan></text>
<text
               id="text126"
               style="font-variant:normal;font-weight:normal;font-size:7.65119982px;font-family:CMR12;-inkscape-font-specification:CMR12;writing-mode:lr-tb;fill:#231f20;fill-opacity:1;fill-rule:nonzero;stroke:none"
               transform="matrix(1,0,0,-1,7.1736288,41.340736)"><tspan
                 id="tspan124"
                 y="0"
                 x="0">0</tspan></text>
<text
               id="text130"
               style="font-variant:normal;font-weight:normal;font-size:7.65119982px;font-family:CMMI12;-inkscape-font-specification:CMMI12;writing-mode:lr-tb;fill:#231f20;fill-opacity:1;fill-rule:nonzero;stroke:none"
               transform="matrix(1,0,0,-1,10.919656,41.340736)"><tspan
                 id="tspan128"
                 y="0"
                 x="0">.</tspan></text>
<text
               id="text134"
               style="font-variant:normal;font-weight:normal;font-size:7.65119982px;font-family:CMR12;-inkscape-font-specification:CMR12;writing-mode:lr-tb;fill:#231f20;fill-opacity:1;fill-rule:nonzero;stroke:none"
               transform="matrix(1,0,0,-1,13.000782,41.340736)"><tspan
                 id="tspan132"
                 y="0"
                 x="0">6</tspan></text>
<text
               id="text138"
               style="font-variant:normal;font-weight:normal;font-size:7.65119982px;font-family:CMR12;-inkscape-font-specification:CMR12;writing-mode:lr-tb;fill:#231f20;fill-opacity:1;fill-rule:nonzero;stroke:none"
               transform="matrix(1,0,0,-1,29.463869,20.590681)"><tspan
                 id="tspan136"
                 y="0"
                 x="0">0</tspan></text>
<text
               id="text142"
               style="font-variant:normal;font-weight:normal;font-size:7.65119982px;font-family:CMMI12;-inkscape-font-specification:CMMI12;writing-mode:lr-tb;fill:#231f20;fill-opacity:1;fill-rule:nonzero;stroke:none"
               transform="matrix(1,0,0,-1,33.209133,20.590681)"><tspan
                 id="tspan140"
                 y="0"
                 x="0">.</tspan></text>
<text
               id="text146"
               style="font-variant:normal;font-weight:normal;font-size:7.65119982px;font-family:CMR12;-inkscape-font-specification:CMR12;writing-mode:lr-tb;fill:#231f20;fill-opacity:1;fill-rule:nonzero;stroke:none"
               transform="matrix(1,0,0,-1,35.289494,20.590681)"><tspan
                 id="tspan144"
                 y="0"
                 x="0">2</tspan></text>
<text
               id="text150"
               style="font-variant:normal;font-weight:normal;font-size:7.65119982px;font-family:CMR12;-inkscape-font-specification:CMR12;writing-mode:lr-tb;fill:#231f20;fill-opacity:1;fill-rule:nonzero;stroke:none"
               transform="matrix(1,0,0,-1,31.963516,44.340771)"><tspan
                 id="tspan148"
                 y="0"
                 x="0">0</tspan></text>
<text
               id="text154"
               style="font-variant:normal;font-weight:normal;font-size:7.65119982px;font-family:CMMI12;-inkscape-font-specification:CMMI12;writing-mode:lr-tb;fill:#231f20;fill-opacity:1;fill-rule:nonzero;stroke:none"
               transform="matrix(1,0,0,-1,35.708778,44.340771)"><tspan
                 id="tspan152"
                 y="0"
                 x="0">.</tspan></text>
<text
               id="text158"
               style="font-variant:normal;font-weight:normal;font-size:7.65119982px;font-family:CMR12;-inkscape-font-specification:CMR12;writing-mode:lr-tb;fill:#231f20;fill-opacity:1;fill-rule:nonzero;stroke:none"
               transform="matrix(1,0,0,-1,37.789139,44.340771)"><tspan
                 id="tspan156"
                 y="0"
                 x="0">2</tspan></text>
<text
               id="text162"
               style="font-variant:normal;font-weight:normal;font-size:7.65119982px;font-family:CMR12;-inkscape-font-specification:CMR12;writing-mode:lr-tb;fill:#231f20;fill-opacity:1;fill-rule:nonzero;stroke:none"
               transform="matrix(1,0,0,-1,76.087219,24.000057)"><tspan
                 id="tspan160"
                 y="0"
                 x="0">0</tspan></text>
<text
               id="text166"
               style="font-variant:normal;font-weight:normal;font-size:7.65119982px;font-family:CMMI12;-inkscape-font-specification:CMMI12;writing-mode:lr-tb;fill:#231f20;fill-opacity:1;fill-rule:nonzero;stroke:none"
               transform="matrix(1,0,0,-1,79.832481,24.000057)"><tspan
                 id="tspan164"
                 y="0"
                 x="0">.</tspan></text>
<text
               id="text170"
               style="font-variant:normal;font-weight:normal;font-size:7.65119982px;font-family:CMR12;-inkscape-font-specification:CMR12;writing-mode:lr-tb;fill:#231f20;fill-opacity:1;fill-rule:nonzero;stroke:none"
               transform="matrix(1,0,0,-1,81.913605,24.000057)"><tspan
                 id="tspan168"
                 y="0"
                 x="0">5</tspan></text>
<text
               id="text174"
               style="font-variant:normal;font-weight:normal;font-size:7.65119982px;font-family:CMR12;-inkscape-font-specification:CMR12;writing-mode:lr-tb;fill:#231f20;fill-opacity:1;fill-rule:nonzero;stroke:none"
               transform="matrix(1,0,0,-1,126.46272,33.674232)"><tspan
                 id="tspan172"
                 y="0"
                 x="0">0</tspan></text>
<text
               id="text178"
               style="font-variant:normal;font-weight:normal;font-size:7.65119982px;font-family:CMMI12;-inkscape-font-specification:CMMI12;writing-mode:lr-tb;fill:#231f20;fill-opacity:1;fill-rule:nonzero;stroke:none"
               transform="matrix(1,0,0,-1,130.20798,33.674232)"><tspan
                 id="tspan176"
                 y="0"
                 x="0">.</tspan></text>
<text
               id="text182"
               style="font-variant:normal;font-weight:normal;font-size:7.65119982px;font-family:CMR12;-inkscape-font-specification:CMR12;writing-mode:lr-tb;fill:#231f20;fill-opacity:1;fill-rule:nonzero;stroke:none"
               transform="matrix(1,0,0,-1,132.28835,33.674232)"><tspan
                 id="tspan180"
                 y="0"
                 x="0">2</tspan></text>
<path
               id="path184"
               style="fill:#ffffff;fill-opacity:1;fill-rule:nonzero;stroke:none"
               d="m 21.088001,43.771004 4.216999,0.044 0.007,-0.146999 -5.005998,-3.860001 c -1.432001,-1.529998 -2.865002,-3.060001 -4.297001,-4.59 0.656999,1.989998 1.316,3.98 1.972999,5.970002 l 0.994002,6.243 0.115,0.074 1.996999,-3.733997" /><path
               id="path186"
               style="fill:none;stroke:#231f20;stroke-width:1;stroke-linecap:butt;stroke-linejoin:miter;stroke-miterlimit:4;stroke-dasharray:none;stroke-opacity:1"
               d="M 24.652,49.773003 20.567001,42.894001" /><path
               id="path188"
               style="fill:#231f20;fill-opacity:1;fill-rule:nonzero;stroke:none"
               d="m 21.088001,43.771004 4.216999,0.044 0.007,-0.146999 -5.005998,-3.860001 c -1.432001,-1.529998 -2.865002,-3.060001 -4.297001,-4.59 0.656999,1.989998 1.316,3.98 1.972999,5.970002 l 0.994002,6.243 0.115,0.074 1.996999,-3.733997" /><path
               id="path190"
               style="fill:#ffffff;fill-opacity:1;fill-rule:nonzero;stroke:none"
               d="m 56.035004,28.602001 2.033001,3.694 0.131996,-0.065 0.902,-6.257002 C 59.731003,23.975 60.359997,21.975 60.989002,19.976002 c -1.41,1.549999 -2.819999,3.101999 -4.229999,4.651998 l -4.949005,3.931999 -0.008,0.137002 4.233002,-0.095" /><path
               id="path192"
               style="fill:none;stroke:#231f20;stroke-width:1;stroke-linecap:butt;stroke-linejoin:miter;stroke-miterlimit:4;stroke-dasharray:none;stroke-opacity:1"
               d="M 52.558002,34.656002 56.543003,27.718" /><path
               id="path194"
               style="fill:#231f20;fill-opacity:1;fill-rule:nonzero;stroke:none"
               d="m 56.035004,28.602001 2.033001,3.694 0.131996,-0.065 0.902,-6.257002 C 59.731003,23.975 60.359997,21.975 60.989002,19.976002 c -1.41,1.549999 -2.819999,3.101999 -4.229999,4.651998 l -4.949005,3.931999 -0.008,0.137002 4.233002,-0.095" /><path
               id="path196"
               style="fill:#ffffff;fill-opacity:1;fill-rule:nonzero;stroke:none"
               d="m 34.574001,31.266001 3.642002,-2.125 -0.069,-0.129999 -6.277004,-0.747 C 29.855001,27.685001 27.841002,27.106001 25.827002,26.527 c 1.584999,1.371001 3.170999,2.742001 4.754999,4.112999 l 4.055,4.849999 0.137001,0.005 -0.200001,-4.229002" /><path
               id="path198"
               style="fill:none;stroke:#231f20;stroke-width:1;stroke-linecap:butt;stroke-linejoin:miter;stroke-miterlimit:4;stroke-dasharray:none;stroke-opacity:1"
               d="m 40.711002,34.591003 -7.034,-3.811004" /><path
               id="path200"
               style="fill:#231f20;fill-opacity:1;fill-rule:nonzero;stroke:none"
               d="m 34.574001,31.266001 3.642002,-2.125 -0.069,-0.129999 -6.277004,-0.747 C 29.855001,27.685001 27.841002,27.106001 25.827002,26.527 c 1.584999,1.371001 3.170999,2.742001 4.754999,4.112999 l 4.055,4.849999 0.137001,0.005 -0.200001,-4.229002" /><path
               id="path202"
               style="fill:#ffffff;fill-opacity:1;fill-rule:nonzero;stroke:none"
               d="m 103.93101,31.676001 -0.26901,4.208002 0.14601,0.015 4.123,-4.792 c 1.60499,-1.347002 3.21,-2.696001 4.81399,-4.044 -2.02199,0.549999 -4.045,1.100999 -6.067,1.650999 l -6.28699,0.657001 -0.081,0.111 3.62101,2.193999" /><path
               id="path204"
               style="fill:none;stroke:#231f20;stroke-width:1;stroke-linecap:butt;stroke-linejoin:miter;stroke-miterlimit:4;stroke-dasharray:none;stroke-opacity:1"
               d="m 97.747002,34.914001 7.088008,-3.711" /><path
               id="path206"
               style="fill:#231f20;fill-opacity:1;fill-rule:nonzero;stroke:none"
               d="m 103.93101,31.676001 -0.26901,4.208002 0.14601,0.015 4.123,-4.792 c 1.60499,-1.347002 3.21,-2.696001 4.81399,-4.044 -2.02199,0.549999 -4.045,1.100999 -6.067,1.650999 l -6.28699,0.657001 -0.081,0.111 3.62101,2.193999" /><path
               id="path208"
               style="fill:#ffffff;fill-opacity:1;fill-rule:nonzero;stroke:none"
               d="m 141.56,45.063004 -0.27001,4.208 0.14702,0.015 4.12299,-4.792 c 1.60501,-1.347 3.20901,-2.696003 4.81401,-4.045002 -2.022,0.550999 -4.045,1.100998 -6.067,1.652001 l -6.288,0.657001 -0.079,0.111 3.62,2.194001" /><path
               id="path210"
               style="fill:none;stroke:#231f20;stroke-width:1;stroke-linecap:butt;stroke-linejoin:miter;stroke-miterlimit:4;stroke-dasharray:none;stroke-opacity:1"
               d="M 135.375,48.299999 142.464,44.59" /><path
               id="path212"
               style="fill:#231f20;fill-opacity:1;fill-rule:nonzero;stroke:none"
               d="m 141.56,45.063004 -0.27001,4.208 0.14702,0.015 4.12299,-4.792 c 1.60501,-1.347 3.20901,-2.696003 4.81401,-4.045002 -2.022,0.550999 -4.045,1.100998 -6.067,1.652001 l -6.288,0.657001 -0.079,0.111 3.62,2.194001" /><path
               id="path214"
               style="fill:#ffffff;fill-opacity:1;fill-rule:nonzero;stroke:none"
               d="m 185.70901,40.166 1.892,3.769001 0.13401,-0.061 1.13899,-6.217999 c 0.705,-1.973999 1.41,-3.948002 2.114,-5.922001 -1.46802,1.495999 -2.935,2.992001 -4.403,4.487999 l -5.096,3.741001 -0.013,0.137001 4.233,0.066" /><path
               id="path216"
               style="fill:none;stroke:#231f20;stroke-width:1;stroke-linecap:butt;stroke-linejoin:miter;stroke-miterlimit:4;stroke-dasharray:none;stroke-opacity:1"
               d="m 182.005,46.083004 4.245,-6.782001" /><path
               id="path218"
               style="fill:#231f20;fill-opacity:1;fill-rule:nonzero;stroke:none"
               d="m 185.70901,40.166 1.892,3.769001 0.13401,-0.061 1.13899,-6.217999 c 0.705,-1.973999 1.41,-3.948002 2.114,-5.922001 -1.46802,1.495999 -2.935,2.992001 -4.403,4.487999 l -5.096,3.741001 -0.013,0.137001 4.233,0.066" /><path
               id="path220"
               style="fill:#ffffff;fill-opacity:1;fill-rule:nonzero;stroke:none"
               d="m 120.71201,37.521 1.746,3.838001 0.136,-0.055 1.377,-6.169998 c 0.77899,-1.946003 1.55899,-3.891001 2.338,-5.837002 -1.52401,1.439001 -3.048,2.878002 -4.572,4.316002 l -5.235,3.543998 -0.018,0.136002 4.228,0.227997" /><path
               id="path222"
               style="fill:none;stroke:#231f20;stroke-width:1;stroke-linecap:butt;stroke-linejoin:miter;stroke-miterlimit:4;stroke-dasharray:none;stroke-opacity:1"
               d="m 116.784,43.292004 4.502,-6.614003" /><path
               id="path224"
               style="fill:#231f20;fill-opacity:1;fill-rule:nonzero;stroke:none"
               d="m 120.71201,37.521 1.746,3.838001 0.136,-0.055 1.377,-6.169998 c 0.77899,-1.946003 1.55899,-3.891001 2.338,-5.837002 -1.52401,1.439001 -3.048,2.878002 -4.572,4.316002 l -5.235,3.543998 -0.018,0.136002 4.228,0.227997" /><path
               id="path226"
               style="fill:#ffffff;fill-opacity:1;fill-rule:nonzero;stroke:none"
               d="m 75.144005,31.875002 4.194,-0.428 -0.009,-0.147001 -5.405998,-3.275999 C 72.328003,26.664001 70.734001,25.304001 69.139,23.943001 c 0.877006,1.904001 1.753006,3.809 2.630005,5.712 l 1.684997,6.093 0.123001,0.061 1.567002,-3.934" /><path
               id="path228"
               style="fill:none;stroke:#231f20;stroke-width:1;stroke-linecap:butt;stroke-linejoin:miter;stroke-miterlimit:4;stroke-dasharray:none;stroke-opacity:1"
               d="M 79.357002,37.441002 74.528,31.062002" /><path
               id="path230"
               style="fill:#231f20;fill-opacity:1;fill-rule:nonzero;stroke:none"
               d="m 75.144005,31.875002 4.194,-0.428 -0.009,-0.147001 -5.405998,-3.275999 C 72.328003,26.664001 70.734001,25.304001 69.139,23.943001 c 0.877006,1.904001 1.753006,3.809 2.630005,5.712 l 1.684997,6.093 0.123001,0.061 1.567002,-3.934" /><text
               id="text234"
               style="font-variant:normal;font-weight:normal;font-size:7.65119982px;font-family:CMR12;-inkscape-font-specification:CMR12;writing-mode:lr-tb;fill:#231f20;fill-opacity:1;fill-rule:nonzero;stroke:none"
               transform="matrix(1,0,0,-1,99.629898,20.674299)"><tspan
                 id="tspan232"
                 y="0"
                 x="0">0</tspan></text>
<text
               id="text238"
               style="font-variant:normal;font-weight:normal;font-size:7.65119982px;font-family:CMMI12;-inkscape-font-specification:CMMI12;writing-mode:lr-tb;fill:#231f20;fill-opacity:1;fill-rule:nonzero;stroke:none"
               transform="matrix(1,0,0,-1,103.37516,20.674299)"><tspan
                 id="tspan236"
                 y="0"
                 x="0">.</tspan></text>
<text
               id="text242"
               style="font-variant:normal;font-weight:normal;font-size:7.65119982px;font-family:CMR12;-inkscape-font-specification:CMR12;writing-mode:lr-tb;fill:#231f20;fill-opacity:1;fill-rule:nonzero;stroke:none"
               transform="matrix(1,0,0,-1,105.45552,20.674299)"><tspan
                 id="tspan240"
                 y="0"
                 x="0">2</tspan></text>
</g></g></g></g></g></svg>