<?xml version="1.0" encoding="UTF-8" standalone="no"?>
<svg
   xmlns:dc="http://purl.org/dc/elements/1.1/"
   xmlns:cc="http://creativecommons.org/ns#"
   xmlns:rdf="http://www.w3.org/1999/02/22-rdf-syntax-ns#"
   xmlns:svg="http://www.w3.org/2000/svg"
   xmlns="http://www.w3.org/2000/svg"
   viewBox="0 0 141.33333 72"
   height="72"
   width="141.33333"
   xml:space="preserve"
   id="svg2"
   version="1.1"><metadata
     id="metadata8"><rdf:RDF><cc:Work
         rdf:about=""><dc:format>image/svg+xml</dc:format><dc:type
           rdf:resource="http://purl.org/dc/dcmitype/StillImage" /></cc:Work></rdf:RDF></metadata><defs
     id="defs6"><clipPath
       id="clipPath24"
       clipPathUnits="userSpaceOnUse"><path
         id="path22"
         d="M 0,0 H 106 V 54 H 0 Z" /></clipPath></defs><g
     transform="matrix(1.3333333,0,0,-1.3333333,0,72)"
     id="g10"><g
       id="g12" /><g
       id="g14" /><g
       id="g16"><g
         id="g18"><g
           clip-path="url(#clipPath24)"
           id="g20"><g
             id="g26" /><g
             id="g28"><text
               id="text32"
               style="font-variant:normal;font-weight:normal;font-size:11.95500088px;font-family:CMMI12;-inkscape-font-specification:CMMI12;writing-mode:lr-tb;fill:#231f20;fill-opacity:1;fill-rule:nonzero;stroke:none"
               transform="matrix(1,0,0,-1,0.81819999,41.261299)"><tspan
                 id="tspan30"
                 y="0"
                 x="0">a</tspan></text>
<text
               id="text36"
               style="font-variant:normal;font-weight:normal;font-size:11.95500088px;font-family:CMMI12;-inkscape-font-specification:CMMI12;writing-mode:lr-tb;fill:#231f20;fill-opacity:1;fill-rule:nonzero;stroke:none"
               transform="matrix(1,0,0,-1,62.168869,44.260807)"><tspan
                 id="tspan34"
                 y="0"
                 x="0">b</tspan></text>
<text
               id="text40"
               style="font-variant:normal;font-weight:normal;font-size:11.95500088px;font-family:CMMI12;-inkscape-font-specification:CMMI12;writing-mode:lr-tb;fill:#231f20;fill-opacity:1;fill-rule:nonzero;stroke:none"
               transform="matrix(1,0,0,-1,21.851826,5.2612047)"><tspan
                 id="tspan38"
                 y="0"
                 x="0">c</tspan></text>
<text
               id="text44"
               style="font-variant:normal;font-weight:normal;font-size:11.95500088px;font-family:CMMI12;-inkscape-font-specification:CMMI12;writing-mode:lr-tb;fill:#231f20;fill-opacity:1;fill-rule:nonzero;stroke:none"
               transform="matrix(1,0,0,-1,98.595757,3.7608521)"><tspan
                 id="tspan42"
                 y="0"
                 x="0">d</tspan></text>
<path
               id="path46"
               style="fill:none;stroke:#000000;stroke-width:1;stroke-linecap:butt;stroke-linejoin:miter;stroke-miterlimit:4;stroke-dasharray:none;stroke-opacity:1"
               d="M 11,45 H 55.5 L 24.5,16.5 H 103 L 55.5,45" /><path
               id="path48"
               style="fill:#000000;fill-opacity:1;fill-rule:nonzero;stroke:#000000;stroke-width:1;stroke-linecap:butt;stroke-linejoin:miter;stroke-miterlimit:4;stroke-dasharray:none;stroke-opacity:1"
               d="m 11.5,42.5 c 1.172001,0 2.121,0.950001 2.121,2.121002 0,1.172001 -0.948999,2.122002 -2.121,2.122002 -1.172,0 -2.1209993,-0.950001 -2.1209993,-2.122002 C 9.3790007,43.450001 10.328,42.5 11.5,42.5 Z" /><path
               id="path50"
               style="fill:#000000;fill-opacity:1;fill-rule:nonzero;stroke:#000000;stroke-width:1;stroke-linecap:butt;stroke-linejoin:miter;stroke-miterlimit:4;stroke-dasharray:none;stroke-opacity:1"
               d="m 55.5,42.5 c 1.172001,0 2.121002,0.950001 2.121002,2.121002 0,1.172001 -0.949001,2.122002 -2.121002,2.122002 -1.171997,0 -2.120998,-0.950001 -2.120998,-2.122002 C 53.379002,43.450001 54.328003,42.5 55.5,42.5 Z" /><path
               id="path52"
               style="fill:#000000;fill-opacity:1;fill-rule:nonzero;stroke:#000000;stroke-width:1;stroke-linecap:butt;stroke-linejoin:miter;stroke-miterlimit:4;stroke-dasharray:none;stroke-opacity:1"
               d="m 103,14.5 c 1.172,0 2.121,0.95 2.121,2.121 0,1.172001 -0.949,2.122 -2.121,2.122 -1.172,0 -2.12099,-0.949999 -2.12099,-2.122 0,-1.171 0.94899,-2.121 2.12099,-2.121 z" /><path
               id="path54"
               style="fill:#000000;fill-opacity:1;fill-rule:nonzero;stroke:#000000;stroke-width:1;stroke-linecap:butt;stroke-linejoin:miter;stroke-miterlimit:4;stroke-dasharray:none;stroke-opacity:1"
               d="m 24.5,14.5 c 1.172001,0 2.121002,0.95 2.121002,2.121 0,1.172001 -0.949001,2.122 -2.121002,2.122 -1.171999,0 -2.120998,-0.949999 -2.120998,-2.122 0,-1.171 0.948999,-2.121 2.120998,-2.121 z" /></g></g></g></g></g></svg>