<?xml version="1.0" encoding="UTF-8" standalone="no"?>
<svg
   xmlns:dc="http://purl.org/dc/elements/1.1/"
   xmlns:cc="http://creativecommons.org/ns#"
   xmlns:rdf="http://www.w3.org/1999/02/22-rdf-syntax-ns#"
   xmlns:svg="http://www.w3.org/2000/svg"
   xmlns="http://www.w3.org/2000/svg"
   viewBox="0 0 497.33334 256"
   height="256"
   width="497.33334"
   xml:space="preserve"
   id="svg2"
   version="1.1"><metadata
     id="metadata8"><rdf:RDF><cc:Work
         rdf:about=""><dc:format>image/svg+xml</dc:format><dc:type
           rdf:resource="http://purl.org/dc/dcmitype/StillImage" /></cc:Work></rdf:RDF></metadata><defs
     id="defs6"><clipPath
       id="clipPath24"
       clipPathUnits="userSpaceOnUse"><path
         id="path22"
         d="M 0,0 H 373 V 192 H 0 Z" /></clipPath></defs><g
     transform="matrix(1.3333333,0,0,-1.3333333,0,256)"
     id="g10"><g
       id="g12" /><g
       id="g14" /><g
       id="g16"><g
         id="g18"><g
           clip-path="url(#clipPath24)"
           id="g20"><g
             id="g26" /><g
             id="g28"><path
               id="path30"
               style="fill:#000000;fill-opacity:1;fill-rule:nonzero;stroke:none"
               d="M 0.37500003,18.333 H 361.04202" /><path
               id="path32"
               style="fill:#000000;fill-opacity:1;fill-rule:nonzero;stroke:none"
               d="m 360.02103,18.333 -2.19001,3.603001 0.12299,0.082 5.875,-2.334002 c 2.047,-0.449999 4.09399,-0.9 6.14099,-1.351 -2.047,-0.449999 -4.09399,-0.899999 -6.14099,-1.351 l -5.875,-2.332999 -0.12299,0.061 2.19001,3.623" /><path
               id="path34"
               style="fill:#000000;fill-opacity:1;fill-rule:nonzero;stroke:none"
               d="M 37,4.3330002 V 174.33301" /><path
               id="path36"
               style="fill:#000000;fill-opacity:1;fill-rule:nonzero;stroke:none"
               d="m 37,173.313 -3.601997,-2.19 -0.083,0.123 2.334,5.875 c 0.451,2.04701 0.900997,4.09401 1.350998,6.14101 0.450001,-2.047 0.901001,-4.094 1.351002,-6.14101 l 2.333999,-5.875 -0.062,-0.123 L 37,173.313" /><text
               id="text40"
               style="font-variant:normal;font-weight:normal;font-size:11.95500088px;font-family:CMR10;-inkscape-font-specification:CMR10;writing-mode:lr-tb;fill:#000000;fill-opacity:1;fill-rule:nonzero;stroke:none"
               transform="matrix(1,0,0,-1,65,3)"><tspan
                 id="tspan38"
                 y="0"
                 x="0 5.9775004">10</tspan></text>
<text
               id="text44"
               style="font-variant:normal;font-weight:normal;font-size:11.95500088px;font-family:CMR10;-inkscape-font-specification:CMR10;writing-mode:lr-tb;fill:#000000;fill-opacity:1;fill-rule:nonzero;stroke:none"
               transform="matrix(1,0,0,-1,93.680046,3.078903)"><tspan
                 id="tspan42"
                 y="0"
                 x="0 5.9775004">20</tspan></text>
<text
               id="text48"
               style="font-variant:normal;font-weight:normal;font-size:11.95500088px;font-family:CMR10;-inkscape-font-specification:CMR10;writing-mode:lr-tb;fill:#000000;fill-opacity:1;fill-rule:nonzero;stroke:none"
               transform="matrix(1,0,0,-1,123.59146,3.078903)"><tspan
                 id="tspan46"
                 y="0"
                 x="0 5.9775004">30</tspan></text>
<text
               id="text52"
               style="font-variant:normal;font-weight:normal;font-size:11.95500088px;font-family:CMR10;-inkscape-font-specification:CMR10;writing-mode:lr-tb;fill:#000000;fill-opacity:1;fill-rule:nonzero;stroke:none"
               transform="matrix(1,0,0,-1,152.83461,3.078903)"><tspan
                 id="tspan50"
                 y="0"
                 x="0 5.9775004">40</tspan></text>
<text
               id="text56"
               style="font-variant:normal;font-weight:normal;font-size:11.95500088px;font-family:CMR10;-inkscape-font-specification:CMR10;writing-mode:lr-tb;fill:#000000;fill-opacity:1;fill-rule:nonzero;stroke:none"
               transform="matrix(1,0,0,-1,182.746,4.4118853)"><tspan
                 id="tspan54"
                 y="0"
                 x="0 5.9775004">50</tspan></text>
<text
               id="text60"
               style="font-variant:normal;font-weight:normal;font-size:11.95500088px;font-family:CMR10;-inkscape-font-specification:CMR10;writing-mode:lr-tb;fill:#000000;fill-opacity:1;fill-rule:nonzero;stroke:none"
               transform="matrix(1,0,0,-1,212.65622,3.0789027)"><tspan
                 id="tspan58"
                 y="0"
                 x="0 5.9775004">60</tspan></text>
<text
               id="text64"
               style="font-variant:normal;font-weight:normal;font-size:11.95500088px;font-family:CMR10;-inkscape-font-specification:CMR10;writing-mode:lr-tb;fill:#000000;fill-opacity:1;fill-rule:nonzero;stroke:none"
               transform="matrix(1,0,0,-1,241.23227,3.0789027)"><tspan
                 id="tspan62"
                 y="0"
                 x="0 5.9775004">70</tspan></text>
<text
               id="text68"
               style="font-variant:normal;font-weight:normal;font-size:11.95500088px;font-family:CMR10;-inkscape-font-specification:CMR10;writing-mode:lr-tb;fill:#000000;fill-opacity:1;fill-rule:nonzero;stroke:none"
               transform="matrix(1,0,0,-1,271.14371,3.0789027)"><tspan
                 id="tspan66"
                 y="0"
                 x="0 5.9775004">80</tspan></text>
<text
               id="text72"
               style="font-variant:normal;font-weight:normal;font-size:11.95500088px;font-family:CMR10;-inkscape-font-specification:CMR10;writing-mode:lr-tb;fill:#000000;fill-opacity:1;fill-rule:nonzero;stroke:none"
               transform="matrix(1,0,0,-1,299.7197,3.7459917)"><tspan
                 id="tspan70"
                 y="0"
                 x="0 5.9775004">90</tspan></text>
<text
               id="text76"
               style="font-variant:normal;font-weight:normal;font-size:11.95500088px;font-family:CMR10;-inkscape-font-specification:CMR10;writing-mode:lr-tb;fill:#000000;fill-opacity:1;fill-rule:nonzero;stroke:none"
               transform="matrix(1,0,0,-1,328.96283,3.0789027)"><tspan
                 id="tspan74"
                 y="0"
                 x="0 5.9775004 11.955001">100</tspan></text>
<text
               id="text80"
               style="font-variant:normal;font-weight:normal;font-size:11.95500088px;font-family:CMR10;-inkscape-font-specification:CMR10;writing-mode:lr-tb;fill:#000000;fill-opacity:1;fill-rule:nonzero;stroke:none"
               transform="matrix(1,0,0,-1,14.22592,88.55835)"><tspan
                 id="tspan78"
                 y="0"
                 x="0">0</tspan></text>
<text
               id="text84"
               style="font-variant:normal;font-weight:normal;font-size:11.95500088px;font-family:CMMI10;-inkscape-font-specification:CMMI10;writing-mode:lr-tb;fill:#000000;fill-opacity:1;fill-rule:nonzero;stroke:none"
               transform="matrix(1,0,0,-1,20.203421,88.55835)"><tspan
                 id="tspan82"
                 y="0"
                 x="0">.</tspan></text>
<text
               id="text88"
               style="font-variant:normal;font-weight:normal;font-size:11.95500088px;font-family:CMR10;-inkscape-font-specification:CMR10;writing-mode:lr-tb;fill:#000000;fill-opacity:1;fill-rule:nonzero;stroke:none"
               transform="matrix(1,0,0,-1,23.523325,88.55835)"><tspan
                 id="tspan86"
                 y="0"
                 x="0 5.9775004">50</tspan></text>
<text
               id="text92"
               style="font-variant:normal;font-weight:normal;font-size:11.95500088px;font-family:CMR10;-inkscape-font-specification:CMR10;writing-mode:lr-tb;fill:#000000;fill-opacity:1;fill-rule:nonzero;stroke:none"
               transform="matrix(1,0,0,-1,14.811716,141.55846)"><tspan
                 id="tspan90"
                 y="0"
                 x="0">0</tspan></text>
<text
               id="text96"
               style="font-variant:normal;font-weight:normal;font-size:11.95500088px;font-family:CMMI10;-inkscape-font-specification:CMMI10;writing-mode:lr-tb;fill:#000000;fill-opacity:1;fill-rule:nonzero;stroke:none"
               transform="matrix(1,0,0,-1,20.789217,141.55846)"><tspan
                 id="tspan94"
                 y="0"
                 x="0">.</tspan></text>
<text
               id="text100"
               style="font-variant:normal;font-weight:normal;font-size:11.95500088px;font-family:CMR10;-inkscape-font-specification:CMR10;writing-mode:lr-tb;fill:#000000;fill-opacity:1;fill-rule:nonzero;stroke:none"
               transform="matrix(1,0,0,-1,24.110315,141.55846)"><tspan
                 id="tspan98"
                 y="0"
                 x="0 5.9775004">70</tspan></text>
<text
               id="text104"
               style="font-variant:normal;font-weight:normal;font-size:11.95500088px;font-family:CMMI10;-inkscape-font-specification:CMMI10;writing-mode:lr-tb;fill:#000000;fill-opacity:1;fill-rule:nonzero;stroke:none"
               transform="matrix(1,0,0,-1,365.75076,6.0927577)"><tspan
                 id="tspan102"
                 y="0"
                 x="0">n</tspan></text>
<text
               id="text108"
               style="font-variant:normal;font-weight:normal;font-size:11.95500088px;font-family:CMMI10;-inkscape-font-specification:CMMI10;writing-mode:lr-tb;fill:#000000;fill-opacity:1;fill-rule:nonzero;stroke:none"
               transform="matrix(1,0,0,-1,23.689495,182.99329)"><tspan
                 id="tspan106"
                 y="0"
                 x="0">r</tspan></text>
<path
               id="path110"
               style="fill:#000000;fill-opacity:1;fill-rule:nonzero;stroke:none"
               d="m 22.967001,178.134 h 7.176001 v -0.478 h -7.176001 z" /><text
               id="text114"
               style="font-variant:normal;font-weight:normal;font-size:11.95500088px;font-family:CMMI10;-inkscape-font-specification:CMMI10;writing-mode:lr-tb;fill:#000000;fill-opacity:1;fill-rule:nonzero;stroke:none"
               transform="matrix(1,0,0,-1,22.966599,166.70459)"><tspan
                 id="tspan112"
                 y="0"
                 x="0">n</tspan></text>
<path
               id="path116"
               style="fill:#000000;fill-opacity:1;fill-rule:nonzero;stroke:#000000;stroke-width:1;stroke-linecap:butt;stroke-linejoin:miter;stroke-miterlimit:4;stroke-dasharray:none;stroke-opacity:1"
               d="m 64.334,144.27 c 0.780006,0 1.414001,0.633 1.414001,1.41401 0,0.781 -0.633995,1.415 -1.414001,1.415 -0.780999,0 -1.414997,-0.634 -1.414997,-1.415 0,-0.78101 0.633998,-1.41401 1.414997,-1.41401 z" /><path
               id="path118"
               style="fill:#000000;fill-opacity:1;fill-rule:nonzero;stroke:#000000;stroke-width:1;stroke-linecap:butt;stroke-linejoin:miter;stroke-miterlimit:4;stroke-dasharray:none;stroke-opacity:1"
               d="m 242,88.666008 c 0.78101,0 1.41402,0.633995 1.41402,1.414993 0,0.781006 -0.63301,1.414002 -1.41402,1.414002 -0.78099,0 -1.41399,-0.632996 -1.41399,-1.414002 0,-0.780998 0.633,-1.414993 1.41399,-1.414993 z" /><path
               id="path120"
               style="fill:#000000;fill-opacity:1;fill-rule:nonzero;stroke:#000000;stroke-width:1;stroke-linecap:butt;stroke-linejoin:miter;stroke-miterlimit:4;stroke-dasharray:none;stroke-opacity:1"
               d="m 213.25,85.5 c 0.78101,0 1.41402,0.633003 1.41402,1.414001 0,0.781006 -0.63301,1.415001 -1.41402,1.415001 -0.78099,0 -1.41399,-0.633995 -1.41399,-1.415001 0,-0.780998 0.633,-1.414001 1.41399,-1.414001 z" /><path
               id="path122"
               style="fill:#000000;fill-opacity:1;fill-rule:nonzero;stroke:#000000;stroke-width:1;stroke-linecap:butt;stroke-linejoin:miter;stroke-miterlimit:4;stroke-dasharray:none;stroke-opacity:1"
               d="m 183.75,85.25 c 0.78101,0 1.414,0.633003 1.414,1.414001 0,0.781006 -0.63299,1.415001 -1.414,1.415001 -0.78099,0 -1.41399,-0.633995 -1.41399,-1.415001 0,-0.780998 0.633,-1.414001 1.41399,-1.414001 z" /><path
               id="path124"
               style="fill:#000000;fill-opacity:1;fill-rule:nonzero;stroke:#000000;stroke-width:1;stroke-linecap:butt;stroke-linejoin:miter;stroke-miterlimit:4;stroke-dasharray:none;stroke-opacity:1"
               d="m 154.5,85.75 c 0.78101,0 1.414,0.633003 1.414,1.414001 0,0.781006 -0.63299,1.415001 -1.414,1.415001 -0.78099,0 -1.41399,-0.633995 -1.41399,-1.415001 0,-0.780998 0.633,-1.414001 1.41399,-1.414001 z" /><path
               id="path126"
               style="fill:#000000;fill-opacity:1;fill-rule:nonzero;stroke:#000000;stroke-width:1;stroke-linecap:butt;stroke-linejoin:miter;stroke-miterlimit:4;stroke-dasharray:none;stroke-opacity:1"
               d="m 124.438,90.773003 c 0.78101,0 1.41401,0.633003 1.41401,1.414001 0,0.781998 -0.633,1.415001 -1.41401,1.415001 -0.78199,0 -1.415,-0.633003 -1.415,-1.415001 0,-0.780998 0.63301,-1.414001 1.415,-1.414001 z" /><path
               id="path128"
               style="fill:#000000;fill-opacity:1;fill-rule:nonzero;stroke:#000000;stroke-width:1;stroke-linecap:butt;stroke-linejoin:miter;stroke-miterlimit:4;stroke-dasharray:none;stroke-opacity:1"
               d="m 96,77.252007 c 0.781006,0 1.414001,0.632995 1.414001,1.413993 0,0.781006 -0.632995,1.415001 -1.414001,1.415001 -0.780998,0 -1.413994,-0.633995 -1.413994,-1.415001 0,-0.780998 0.632996,-1.413993 1.413994,-1.413993 z" /><path
               id="path130"
               style="fill:#000000;fill-opacity:1;fill-rule:nonzero;stroke:#000000;stroke-width:1;stroke-linecap:butt;stroke-linejoin:miter;stroke-miterlimit:4;stroke-dasharray:none;stroke-opacity:1"
               d="m 301,88.666008 c 0.78101,0 1.414,0.633995 1.414,1.414993 0,0.781006 -0.63299,1.414002 -1.414,1.414002 -0.78098,0 -1.41397,-0.632996 -1.41397,-1.414002 0,-0.780998 0.63299,-1.414993 1.41397,-1.414993 z" /><path
               id="path132"
               style="fill:#000000;fill-opacity:1;fill-rule:nonzero;stroke:#000000;stroke-width:1;stroke-linecap:butt;stroke-linejoin:miter;stroke-miterlimit:4;stroke-dasharray:none;stroke-opacity:1"
               d="m 272.66702,84.667007 c 0.78098,0 1.414,0.632996 1.414,1.413994 0,0.781006 -0.63302,1.414002 -1.414,1.414002 -0.781,0 -1.41501,-0.632996 -1.41501,-1.414002 0,-0.780998 0.63401,-1.413994 1.41501,-1.413994 z" /><path
               id="path134"
               style="fill:#000000;fill-opacity:1;fill-rule:nonzero;stroke:#000000;stroke-width:1;stroke-linecap:butt;stroke-linejoin:miter;stroke-miterlimit:4;stroke-dasharray:none;stroke-opacity:1"
               d="m 335,92 c 0.78101,0 1.414,0.633003 1.414,1.414001 0,0.781006 -0.63299,1.415001 -1.414,1.415001 -0.78098,0 -1.41397,-0.633995 -1.41397,-1.415001 C 333.58603,92.633003 334.21902,92 335,92 Z" /><path
               id="path136"
               style="fill:none;stroke:#000000;stroke-width:0.5;stroke-linecap:butt;stroke-linejoin:miter;stroke-miterlimit:4;stroke-dasharray:none;stroke-opacity:1"
               d="m 96,78.667007 28.438,13.502991 30.062,-5.023994 29.25,-0.5 29.5,0.25 28.75,3.167 30.66702,-4 28.33298,4 34,3.333" /><path
               id="path138"
               style="fill:none;stroke:#000000;stroke-width:0.5;stroke-linecap:butt;stroke-linejoin:miter;stroke-miterlimit:4;stroke-dasharray:3, 3, 3, 3, 3, 3;stroke-dashoffset:0;stroke-opacity:1"
               d="M 37.354,89.958008 H 367.68701" /><text
               id="text142"
               style="font-variant:normal;font-weight:normal;font-size:11.95500088px;font-family:CMR10;-inkscape-font-specification:CMR10;writing-mode:lr-tb;fill:#000000;fill-opacity:1;fill-rule:nonzero;stroke:none"
               transform="matrix(1,0,0,-1,14.207001,74.868698)"><tspan
                 id="tspan140"
                 y="0"
                 x="0">0</tspan></text>
<text
               id="text146"
               style="font-variant:normal;font-weight:normal;font-size:11.95500088px;font-family:CMMI10;-inkscape-font-specification:CMMI10;writing-mode:lr-tb;fill:#000000;fill-opacity:1;fill-rule:nonzero;stroke:none"
               transform="matrix(1,0,0,-1,20.185698,74.868698)"><tspan
                 id="tspan144"
                 y="0"
                 x="0">.</tspan></text>
<text
               id="text150"
               style="font-variant:normal;font-weight:normal;font-size:11.95500088px;font-family:CMR10;-inkscape-font-specification:CMR10;writing-mode:lr-tb;fill:#000000;fill-opacity:1;fill-rule:nonzero;stroke:none"
               transform="matrix(1,0,0,-1,23.505602,74.868698)"><tspan
                 id="tspan148"
                 y="0"
                 x="0 5.9775004">45</tspan></text>
<path
               id="path152"
               style="fill:none;stroke:#000000;stroke-width:0.5;stroke-linecap:butt;stroke-linejoin:miter;stroke-miterlimit:4;stroke-dasharray:none;stroke-opacity:1"
               d="M 64.334,145.666 96,78.667007" /></g></g></g></g></g></svg>