<?xml version="1.0" encoding="UTF-8" standalone="no"?>
<svg
   xmlns:dc="http://purl.org/dc/elements/1.1/"
   xmlns:cc="http://creativecommons.org/ns#"
   xmlns:rdf="http://www.w3.org/1999/02/22-rdf-syntax-ns#"
   xmlns:svg="http://www.w3.org/2000/svg"
   xmlns="http://www.w3.org/2000/svg"
   viewBox="0 0 566.66669 328"
   height="328"
   width="566.66669"
   xml:space="preserve"
   id="svg2"
   version="1.1"><metadata
     id="metadata8"><rdf:RDF><cc:Work
         rdf:about=""><dc:format>image/svg+xml</dc:format><dc:type
           rdf:resource="http://purl.org/dc/dcmitype/StillImage" /></cc:Work></rdf:RDF></metadata><defs
     id="defs6"><clipPath
       id="clipPath24"
       clipPathUnits="userSpaceOnUse"><path
         id="path22"
         d="M 0,0 H 425 V 246 H 0 Z" /></clipPath><clipPath
       id="clipPath84"
       clipPathUnits="userSpaceOnUse"><path
         id="path82"
         d="M 0,0.06001282 H 424.34702 V 245.35602 H 0 Z" /></clipPath></defs><g
     transform="matrix(1.3333333,0,0,-1.3333333,0,328)"
     id="g10"><g
       id="g12" /><g
       id="g14" /><g
       id="g16"><g
         id="g18"><g
           clip-path="url(#clipPath24)"
           id="g20"><g
             id="g26" /><g
             id="g28"><text
               id="text32"
               style="font-variant:normal;font-weight:normal;font-size:11.95500088px;font-family:CMR12;-inkscape-font-specification:CMR12;writing-mode:lr-tb;fill:#231f20;fill-opacity:1;fill-rule:nonzero;stroke:none"
               transform="matrix(1,0,0,-1,135.20201,228.00029)"><tspan
                 id="tspan30"
                 y="0"
                 x="0 5.8459954 12.337561 16.880461">auto</tspan></text>
<text
               id="text36"
               style="font-variant:normal;font-weight:normal;font-size:11.95500088px;font-family:CMR12;-inkscape-font-specification:CMR12;writing-mode:lr-tb;fill:#231f20;fill-opacity:1;fill-rule:nonzero;stroke:none"
               transform="matrix(1,0,0,-1,263.86652,229.00093)"><tspan
                 id="tspan34"
                 y="0"
                 x="0 9.7433262 15.589321">man</tspan></text>
<text
               id="text40"
               style="font-variant:normal;font-weight:normal;font-size:11.95500088px;font-family:CMR12;-inkscape-font-specification:CMR12;writing-mode:lr-tb;fill:#231f20;fill-opacity:1;fill-rule:nonzero;stroke:none"
               transform="matrix(1,0,0,-1,285.65213,229.00093)"><tspan
                 id="tspan38"
                 y="0"
                 x="0 6.4915657 12.337561">ual</tspan></text>
<text
               id="text44"
               style="font-variant:normal;font-weight:normal;font-size:11.95500088px;font-family:CMR12;-inkscape-font-specification:CMR12;writing-mode:lr-tb;fill:#231f20;fill-opacity:1;fill-rule:nonzero;stroke:none"
               transform="matrix(1,0,0,-1,262.16293,185.00055)"><tspan
                 id="tspan42"
                 y="0"
                 x="0 4.6146302 11.106196">sun</tspan></text>
<text
               id="text48"
               style="font-variant:normal;font-weight:normal;font-size:11.95500088px;font-family:CMR12;-inkscape-font-specification:CMR12;writing-mode:lr-tb;fill:#231f20;fill-opacity:1;fill-rule:nonzero;stroke:none"
               transform="matrix(1,0,0,-1,261.68832,174.00075)"><tspan
                 id="tspan46"
                 y="0"
                 x="0 4.5429006">ro</tspan></text>
<text
               id="text52"
               style="font-variant:normal;font-weight:normal;font-size:11.95500088px;font-family:CMR12;-inkscape-font-specification:CMR12;writing-mode:lr-tb;fill:#231f20;fill-opacity:1;fill-rule:nonzero;stroke:none"
               transform="matrix(1,0,0,-1,272.41797,174.00075)"><tspan
                 id="tspan50"
                 y="0"
                 x="0 5.8459954">of</tspan></text>
<text
               id="text56"
               style="font-variant:normal;font-weight:normal;font-size:11.95500088px;font-family:CMR12;-inkscape-font-specification:CMR12;writing-mode:lr-tb;fill:#231f20;fill-opacity:1;fill-rule:nonzero;stroke:none"
               transform="matrix(1,0,0,-1,128.74991,184.0011)"><tspan
                 id="tspan54"
                 y="0"
                 x="0 5.8459954 9.0858011 13.628701 17.526031 22.726458 28.572453 35.064018">air-cond</tspan></text>
<text
               id="text60"
               style="font-variant:normal;font-weight:normal;font-size:11.95500088px;font-family:CMR12;-inkscape-font-specification:CMR12;writing-mode:lr-tb;fill:#231f20;fill-opacity:1;fill-rule:nonzero;stroke:none"
               transform="matrix(1,0,0,-1,4.2732458,119.00056)"><tspan
                 id="tspan58"
                 y="0"
                 x="0 4.6146302 9.1575308 14.357956 19.558382">steel</tspan></text>
<text
               id="text64"
               style="font-variant:normal;font-weight:normal;font-size:11.95500088px;font-family:CMR12;-inkscape-font-specification:CMR12;writing-mode:lr-tb;fill:#231f20;fill-opacity:1;fill-rule:nonzero;stroke:none"
               transform="matrix(1,0,0,-1,69.186508,117.1834)"><tspan
                 id="tspan62"
                 y="0"
                 x="0 5.8459954 9.0858011 12.325606">allo</tspan></text>
<text
               id="text68"
               style="font-variant:normal;font-weight:normal;font-size:11.95500088px;font-family:CMR12;-inkscape-font-specification:CMR12;writing-mode:lr-tb;fill:#231f20;fill-opacity:1;fill-rule:nonzero;stroke:none"
               transform="matrix(1,0,0,-1,87.07119,117.1834)"><tspan
                 id="tspan66"
                 y="0"
                 x="0">y</tspan></text>
<text
               id="text72"
               style="font-variant:normal;font-weight:normal;font-size:11.95500088px;font-family:CMR12;-inkscape-font-specification:CMR12;writing-mode:lr-tb;fill:#231f20;fill-opacity:1;fill-rule:nonzero;stroke:none"
               transform="matrix(0,1,1,0,8.9663,17)"><tspan
                 id="tspan70"
                 y="0"
                 x="0 4.6146302 10.460626 13.700431 16.940237">solid</tspan></text>
<text
               id="text76"
               style="font-variant:normal;font-weight:normal;font-size:11.95500088px;font-family:CMR12;-inkscape-font-specification:CMR12;writing-mode:lr-tb;fill:#231f20;fill-opacity:1;fill-rule:nonzero;stroke:none"
               transform="matrix(0,1,1,0,39.345154,2.000061)"><tspan
                 id="tspan74"
                 y="0"
                 x="0 9.7433262 14.943751 19.486652 25.332647 28.572453 31.812258 35.052063">metallic</tspan></text>
</g><g
             id="g78"><g
               clip-path="url(#clipPath84)"
               id="g80"><path
                 id="path86"
                 style="fill:none;stroke:#231f20;stroke-width:1;stroke-linecap:butt;stroke-linejoin:miter;stroke-miterlimit:4;stroke-dasharray:none;stroke-opacity:1"
                 d="m 5.7020001,45.817001 15.0000019,51 16.000001,-51 m 24,0 15,51 16,-51 m 24.000997,1 15,51 16,-51 m 24,0 15,51 16,-51 m 23.00002,0 15,51 16,-51 m 23.99998,0 15,51 16,-51 m 24,1 15,51 16,-51 m 24.00003,0 15,51 16,-51 m -400.001028,49 25.000001,55.999999 30,-55.999999 m 55.000997,1 25,55.999999 30,-55.999999 m 54.00002,0 24.99998,55.999999 30,-55.999999 m 55,1 25,55.999999 30.00003,-55.999999 M 45.702003,152.817 103.703,199.81702 l 52,-46.00002 m 109,1 58,47.00002 52,-46.00002 m -271,44.00002 108,45 111,-43" /></g></g><g
             id="g88"><text
               id="text92"
               style="font-variant:normal;font-weight:normal;font-size:11.95500088px;font-family:CMR12;-inkscape-font-specification:CMR12;writing-mode:lr-tb;fill:#231f20;fill-opacity:1;fill-rule:nonzero;stroke:none"
               transform="matrix(1,0,0,-1,42.162098,185.00029)"><tspan
                 id="tspan90"
                 y="0"
                 x="0 4.6146302 11.106196">sun</tspan></text>
<text
               id="text96"
               style="font-variant:normal;font-weight:normal;font-size:11.95500088px;font-family:CMR12;-inkscape-font-specification:CMR12;writing-mode:lr-tb;fill:#231f20;fill-opacity:1;fill-rule:nonzero;stroke:none"
               transform="matrix(1,0,0,-1,41.687485,174.00049)"><tspan
                 id="tspan94"
                 y="0"
                 x="0 4.5429006">ro</tspan></text>
<text
               id="text100"
               style="font-variant:normal;font-weight:normal;font-size:11.95500088px;font-family:CMR12;-inkscape-font-specification:CMR12;writing-mode:lr-tb;fill:#231f20;fill-opacity:1;fill-rule:nonzero;stroke:none"
               transform="matrix(1,0,0,-1,52.417099,174.00049)"><tspan
                 id="tspan98"
                 y="0"
                 x="0 5.8459954">of</tspan></text>
<text
               id="text104"
               style="font-variant:normal;font-weight:normal;font-size:11.95500088px;font-family:CMR12;-inkscape-font-specification:CMR12;writing-mode:lr-tb;fill:#231f20;fill-opacity:1;fill-rule:nonzero;stroke:none"
               transform="matrix(1,0,0,-1,358.74963,184.00084)"><tspan
                 id="tspan102"
                 y="0"
                 x="0 5.8459954 9.0858011 13.628701 17.526031 22.726458 28.572453 35.064018">air-cond</tspan></text>
<text
               id="text108"
               style="font-variant:normal;font-weight:normal;font-size:11.95500088px;font-family:CMR12;-inkscape-font-specification:CMR12;writing-mode:lr-tb;fill:#231f20;fill-opacity:1;fill-rule:nonzero;stroke:none"
               transform="matrix(1,0,0,-1,115.27289,117.00024)"><tspan
                 id="tspan106"
                 y="0"
                 x="0 4.6146302 9.1575308 14.357956 19.558382">steel</tspan></text>
<text
               id="text112"
               style="font-variant:normal;font-weight:normal;font-size:11.95500088px;font-family:CMR12;-inkscape-font-specification:CMR12;writing-mode:lr-tb;fill:#231f20;fill-opacity:1;fill-rule:nonzero;stroke:none"
               transform="matrix(1,0,0,-1,178.18608,117.18315)"><tspan
                 id="tspan110"
                 y="0"
                 x="0 5.8459954 9.0858011 12.325606">allo</tspan></text>
<text
               id="text116"
               style="font-variant:normal;font-weight:normal;font-size:11.95500088px;font-family:CMR12;-inkscape-font-specification:CMR12;writing-mode:lr-tb;fill:#231f20;fill-opacity:1;fill-rule:nonzero;stroke:none"
               transform="matrix(1,0,0,-1,196.06956,117.18315)"><tspan
                 id="tspan114"
                 y="0"
                 x="0">y</tspan></text>
<text
               id="text120"
               style="font-variant:normal;font-weight:normal;font-size:11.95500088px;font-family:CMR12;-inkscape-font-specification:CMR12;writing-mode:lr-tb;fill:#231f20;fill-opacity:1;fill-rule:nonzero;stroke:none"
               transform="matrix(1,0,0,-1,224.27261,117.00024)"><tspan
                 id="tspan118"
                 y="0"
                 x="0 4.6146302 9.1575308 14.357956 19.558382">steel</tspan></text>
<text
               id="text124"
               style="font-variant:normal;font-weight:normal;font-size:11.95500088px;font-family:CMR12;-inkscape-font-specification:CMR12;writing-mode:lr-tb;fill:#231f20;fill-opacity:1;fill-rule:nonzero;stroke:none"
               transform="matrix(1,0,0,-1,290.1853,117.18315)"><tspan
                 id="tspan122"
                 y="0"
                 x="0 5.8459954 9.0858011 12.325606">allo</tspan></text>
<text
               id="text128"
               style="font-variant:normal;font-weight:normal;font-size:11.95500088px;font-family:CMR12;-inkscape-font-specification:CMR12;writing-mode:lr-tb;fill:#231f20;fill-opacity:1;fill-rule:nonzero;stroke:none"
               transform="matrix(1,0,0,-1,308.06882,117.18315)"><tspan
                 id="tspan126"
                 y="0"
                 x="0">y</tspan></text>
<text
               id="text132"
               style="font-variant:normal;font-weight:normal;font-size:11.95500088px;font-family:CMR12;-inkscape-font-specification:CMR12;writing-mode:lr-tb;fill:#231f20;fill-opacity:1;fill-rule:nonzero;stroke:none"
               transform="matrix(1,0,0,-1,333.27231,117.00024)"><tspan
                 id="tspan130"
                 y="0"
                 x="0 4.6146302 9.1575308 14.357956 19.558382">steel</tspan></text>
<text
               id="text136"
               style="font-variant:normal;font-weight:normal;font-size:11.95500088px;font-family:CMR12;-inkscape-font-specification:CMR12;writing-mode:lr-tb;fill:#231f20;fill-opacity:1;fill-rule:nonzero;stroke:none"
               transform="matrix(1,0,0,-1,398.18558,118.18378)"><tspan
                 id="tspan134"
                 y="0"
                 x="0 5.8459954 9.0858011 12.325606">allo</tspan></text>
<text
               id="text140"
               style="font-variant:normal;font-weight:normal;font-size:11.95500088px;font-family:CMR12;-inkscape-font-specification:CMR12;writing-mode:lr-tb;fill:#231f20;fill-opacity:1;fill-rule:nonzero;stroke:none"
               transform="matrix(1,0,0,-1,416.06909,118.18378)"><tspan
                 id="tspan138"
                 y="0"
                 x="0">y</tspan></text>
<text
               id="text144"
               style="font-variant:normal;font-weight:normal;font-size:11.95500088px;font-family:CMR12;-inkscape-font-specification:CMR12;writing-mode:lr-tb;fill:#231f20;fill-opacity:1;fill-rule:nonzero;stroke:none"
               transform="matrix(0,1,1,0,61.966297,16)"><tspan
                 id="tspan142"
                 y="0"
                 x="0 4.6146302 10.460626 13.700431 16.940237">solid</tspan></text>
<text
               id="text148"
               style="font-variant:normal;font-weight:normal;font-size:11.95500088px;font-family:CMR12;-inkscape-font-specification:CMR12;writing-mode:lr-tb;fill:#231f20;fill-opacity:1;fill-rule:nonzero;stroke:none"
               transform="matrix(0,1,1,0,92.345154,1.000061)"><tspan
                 id="tspan146"
                 y="0"
                 x="0 9.7433262 14.943751 19.486652 25.332647 28.572453 31.812258 35.052063">metallic</tspan></text>
<text
               id="text152"
               style="font-variant:normal;font-weight:normal;font-size:11.95500088px;font-family:CMR12;-inkscape-font-specification:CMR12;writing-mode:lr-tb;fill:#231f20;fill-opacity:1;fill-rule:nonzero;stroke:none"
               transform="matrix(0,1,1,0,117.96592,16)"><tspan
                 id="tspan150"
                 y="0"
                 x="0 4.6146302 10.460626 13.700431 16.940237">solid</tspan></text>
<text
               id="text156"
               style="font-variant:normal;font-weight:normal;font-size:11.95500088px;font-family:CMR12;-inkscape-font-specification:CMR12;writing-mode:lr-tb;fill:#231f20;fill-opacity:1;fill-rule:nonzero;stroke:none"
               transform="matrix(0,1,1,0,148.34477,1.000061)"><tspan
                 id="tspan154"
                 y="0"
                 x="0 9.7433262 14.943751 19.486652 25.332647 28.572453 31.812258 35.052063">metallic</tspan></text>
<text
               id="text160"
               style="font-variant:normal;font-weight:normal;font-size:11.95500088px;font-family:CMR12;-inkscape-font-specification:CMR12;writing-mode:lr-tb;fill:#231f20;fill-opacity:1;fill-rule:nonzero;stroke:none"
               transform="matrix(0,1,1,0,172.96609,16)"><tspan
                 id="tspan158"
                 y="0"
                 x="0 4.6146302 10.460626 13.700431 16.940237">solid</tspan></text>
<text
               id="text164"
               style="font-variant:normal;font-weight:normal;font-size:11.95500088px;font-family:CMR12;-inkscape-font-specification:CMR12;writing-mode:lr-tb;fill:#231f20;fill-opacity:1;fill-rule:nonzero;stroke:none"
               transform="matrix(0,1,1,0,203.34496,1.000061)"><tspan
                 id="tspan162"
                 y="0"
                 x="0 9.7433262 14.943751 19.486652 25.332647 28.572453 31.812258 35.052063">metallic</tspan></text>
<text
               id="text168"
               style="font-variant:normal;font-weight:normal;font-size:11.95500088px;font-family:CMR12;-inkscape-font-specification:CMR12;writing-mode:lr-tb;fill:#231f20;fill-opacity:1;fill-rule:nonzero;stroke:none"
               transform="matrix(0,1,1,0,226.96565,16)"><tspan
                 id="tspan166"
                 y="0"
                 x="0 4.6146302 10.460626 13.700431 16.940237">solid</tspan></text>
<text
               id="text172"
               style="font-variant:normal;font-weight:normal;font-size:11.95500088px;font-family:CMR12;-inkscape-font-specification:CMR12;writing-mode:lr-tb;fill:#231f20;fill-opacity:1;fill-rule:nonzero;stroke:none"
               transform="matrix(0,1,1,0,257.34451,1.000061)"><tspan
                 id="tspan170"
                 y="0"
                 x="0 9.7433262 14.943751 19.486652 25.332647 28.572453 31.812258 35.052063">metallic</tspan></text>
<text
               id="text176"
               style="font-variant:normal;font-weight:normal;font-size:11.95500088px;font-family:CMR12;-inkscape-font-specification:CMR12;writing-mode:lr-tb;fill:#231f20;fill-opacity:1;fill-rule:nonzero;stroke:none"
               transform="matrix(0,1,1,0,279.96576,15.000563)"><tspan
                 id="tspan174"
                 y="0"
                 x="0 4.6146302 10.460626 13.700431 16.940237">solid</tspan></text>
<text
               id="text180"
               style="font-variant:normal;font-weight:normal;font-size:11.95500088px;font-family:CMR12;-inkscape-font-specification:CMR12;writing-mode:lr-tb;fill:#231f20;fill-opacity:1;fill-rule:nonzero;stroke:none"
               transform="matrix(0,1,1,0,310.3446,6.2371913e-4)"><tspan
                 id="tspan178"
                 y="0"
                 x="0 9.7433262 14.943751 19.486652 25.332647 28.572453 31.812258 35.052063">metallic</tspan></text>
<text
               id="text184"
               style="font-variant:normal;font-weight:normal;font-size:11.95500088px;font-family:CMR12;-inkscape-font-specification:CMR12;writing-mode:lr-tb;fill:#231f20;fill-opacity:1;fill-rule:nonzero;stroke:none"
               transform="matrix(0,1,1,0,335.96536,15.000563)"><tspan
                 id="tspan182"
                 y="0"
                 x="0 4.6146302 10.460626 13.700431 16.940237">solid</tspan></text>
<text
               id="text188"
               style="font-variant:normal;font-weight:normal;font-size:11.95500088px;font-family:CMR12;-inkscape-font-specification:CMR12;writing-mode:lr-tb;fill:#231f20;fill-opacity:1;fill-rule:nonzero;stroke:none"
               transform="matrix(0,1,1,0,366.34421,6.2371913e-4)"><tspan
                 id="tspan186"
                 y="0"
                 x="0 9.7433262 14.943751 19.486652 25.332647 28.572453 31.812258 35.052063">metallic</tspan></text>
<text
               id="text192"
               style="font-variant:normal;font-weight:normal;font-size:11.95500088px;font-family:CMR12;-inkscape-font-specification:CMR12;writing-mode:lr-tb;fill:#231f20;fill-opacity:1;fill-rule:nonzero;stroke:none"
               transform="matrix(0,1,1,0,390.96555,15.000563)"><tspan
                 id="tspan190"
                 y="0"
                 x="0 4.6146302 10.460626 13.700431 16.940237">solid</tspan></text>
<text
               id="text196"
               style="font-variant:normal;font-weight:normal;font-size:11.95500088px;font-family:CMR12;-inkscape-font-specification:CMR12;writing-mode:lr-tb;fill:#231f20;fill-opacity:1;fill-rule:nonzero;stroke:none"
               transform="matrix(0,1,1,0,421.34439,6.2371913e-4)"><tspan
                 id="tspan194"
                 y="0"
                 x="0 9.7433262 14.943751 19.486652 25.332647 28.572453 31.812258 35.052063">metallic</tspan></text>
</g></g></g></g></g></svg>