<?xml version="1.0" encoding="UTF-8" standalone="no"?>
<svg
   xmlns:dc="http://purl.org/dc/elements/1.1/"
   xmlns:cc="http://creativecommons.org/ns#"
   xmlns:rdf="http://www.w3.org/1999/02/22-rdf-syntax-ns#"
   xmlns:svg="http://www.w3.org/2000/svg"
   xmlns="http://www.w3.org/2000/svg"
   viewBox="0 0 412 101.33333"
   height="101.33333"
   width="412"
   xml:space="preserve"
   id="svg2"
   version="1.1"><metadata
     id="metadata8"><rdf:RDF><cc:Work
         rdf:about=""><dc:format>image/svg+xml</dc:format><dc:type
           rdf:resource="http://purl.org/dc/dcmitype/StillImage" /></cc:Work></rdf:RDF></metadata><defs
     id="defs6"><clipPath
       id="clipPath24"
       clipPathUnits="userSpaceOnUse"><path
         id="path22"
         d="M 0,0 H 309 V 76 H 0 Z" /></clipPath></defs><g
     transform="matrix(1.3333333,0,0,-1.3333333,0,101.33333)"
     id="g10"><g
       id="g12" /><g
       id="g14" /><g
       id="g16"><g
         id="g18"><g
           clip-path="url(#clipPath24)"
           id="g20"><g
             id="g26" /><g
             id="g28"><path
               id="path30"
               style="fill:#231f20;fill-opacity:1;fill-rule:nonzero;stroke:none"
               d="M 0,38 H 87" /><path
               id="path32"
               style="fill:#231f20;fill-opacity:1;fill-rule:nonzero;stroke:none"
               d="M 34.511002,38 H 103.511" /><path
               id="path34"
               style="fill:#ffffff;fill-opacity:1;fill-rule:nonzero;stroke:#000000;stroke-width:1;stroke-linecap:butt;stroke-linejoin:miter;stroke-miterlimit:4;stroke-dasharray:none;stroke-opacity:1"
               d="m 30,22 c 8.201,0 14.849003,6.648001 14.849003,14.849003 0,8.200996 -6.648003,14.848999 -14.849003,14.848999 -8.200998,0 -14.848999,-6.648003 -14.848999,-14.848999 C 15.151001,28.648001 21.799002,22 30,22 Z" /><path
               id="path36"
               style="fill:#ffffff;fill-opacity:1;fill-rule:nonzero;stroke:#000000;stroke-width:1;stroke-linecap:butt;stroke-linejoin:miter;stroke-miterlimit:4;stroke-dasharray:none;stroke-opacity:1"
               d="m 71.563004,22.588001 c 8.199996,0 14.848999,6.649 14.848999,14.850003 0,8.199996 -6.649003,14.848999 -14.848999,14.848999 -8.201001,0 -14.850003,-6.649003 -14.850003,-14.848999 0,-8.201003 6.649002,-14.850003 14.850003,-14.850003 z" /><text
               id="text40"
               style="font-variant:normal;font-weight:normal;font-size:11.95500088px;font-family:CMMI12;-inkscape-font-specification:CMMI12;writing-mode:lr-tb;fill:#231f20;fill-opacity:1;fill-rule:nonzero;stroke:none"
               transform="matrix(1,0,0,-1,22,34)"><tspan
                 id="tspan38"
                 y="0"
                 x="0">C</tspan></text>
<text
               id="text44"
               style="font-variant:normal;font-weight:normal;font-size:7.96999979px;font-family:CMR8;-inkscape-font-specification:CMR8;writing-mode:lr-tb;fill:#231f20;fill-opacity:1;fill-rule:nonzero;stroke:none"
               transform="matrix(1,0,0,-1,30.375002,32.207001)"><tspan
                 id="tspan42"
                 y="0"
                 x="0">1</tspan></text>
<text
               id="text48"
               style="font-variant:normal;font-weight:normal;font-size:11.95500088px;font-family:CMMI12;-inkscape-font-specification:CMMI12;writing-mode:lr-tb;fill:#231f20;fill-opacity:1;fill-rule:nonzero;stroke:none"
               transform="matrix(1,0,0,-1,65,35)"><tspan
                 id="tspan46"
                 y="0"
                 x="0">C</tspan></text>
<text
               id="text52"
               style="font-variant:normal;font-weight:normal;font-size:7.96999979px;font-family:CMR8;-inkscape-font-specification:CMR8;writing-mode:lr-tb;fill:#231f20;fill-opacity:1;fill-rule:nonzero;stroke:none"
               transform="matrix(1,0,0,-1,73.375,33.207001)"><tspan
                 id="tspan50"
                 y="0"
                 x="0">2</tspan></text>
<path
               id="path54"
               style="fill:none;stroke:#000000;stroke-width:1;stroke-linecap:butt;stroke-linejoin:miter;stroke-miterlimit:4;stroke-dasharray:none;stroke-opacity:1"
               d="m 183,17.497002 h 97 v 42.119999 h -97 z m 3.5,-0.002 h 95 M 155,37.995003 h 29 m 95,0 h 30" /><path
               id="path56"
               style="fill:#ffffff;fill-opacity:1;fill-rule:nonzero;stroke:#000000;stroke-width:1;stroke-linecap:butt;stroke-linejoin:miter;stroke-miterlimit:4;stroke-dasharray:none;stroke-opacity:1"
               d="m 232.5,1.4950001 c 8.201,0 14.84901,6.6480005 14.84901,14.8489999 0,8.201002 -6.64801,14.849001 -14.84901,14.849001 -8.20099,0 -14.84898,-6.647999 -14.84898,-14.849001 0,-8.2009994 6.64799,-14.8489999 14.84898,-14.8489999 z" /><path
               id="path58"
               style="fill:#ffffff;fill-opacity:1;fill-rule:nonzero;stroke:#000000;stroke-width:1;stroke-linecap:butt;stroke-linejoin:miter;stroke-miterlimit:4;stroke-dasharray:none;stroke-opacity:1"
               d="m 230.5,45.682003 c 8.201,0 14.84901,6.647995 14.84901,14.848999 0,8.201 -6.64801,14.848995 -14.84901,14.848995 -8.20099,0 -14.84898,-6.647995 -14.84898,-14.848995 0,-8.201004 6.64799,-14.848999 14.84898,-14.848999 z" /><text
               id="text62"
               style="font-variant:normal;font-weight:normal;font-size:11.95500088px;font-family:CMMI12;-inkscape-font-specification:CMMI12;writing-mode:lr-tb;fill:#231f20;fill-opacity:1;fill-rule:nonzero;stroke:none"
               transform="matrix(1,0,0,-1,226.12502,56.475002)"><tspan
                 id="tspan60"
                 y="0"
                 x="0">C</tspan></text>
<text
               id="text66"
               style="font-variant:normal;font-weight:normal;font-size:7.96999979px;font-family:CMR8;-inkscape-font-specification:CMR8;writing-mode:lr-tb;fill:#231f20;fill-opacity:1;fill-rule:nonzero;stroke:none"
               transform="matrix(1,0,0,-1,234.5,54.682003)"><tspan
                 id="tspan64"
                 y="0"
                 x="0">1</tspan></text>
<text
               id="text70"
               style="font-variant:normal;font-weight:normal;font-size:11.95500088px;font-family:CMMI12;-inkscape-font-specification:CMMI12;writing-mode:lr-tb;fill:#231f20;fill-opacity:1;fill-rule:nonzero;stroke:none"
               transform="matrix(1,0,0,-1,227.04349,10.5057)"><tspan
                 id="tspan68"
                 y="0"
                 x="0">C</tspan></text>
<text
               id="text74"
               style="font-variant:normal;font-weight:normal;font-size:7.96999979px;font-family:CMR8;-inkscape-font-specification:CMR8;writing-mode:lr-tb;fill:#231f20;fill-opacity:1;fill-rule:nonzero;stroke:none"
               transform="matrix(1,0,0,-1,235.41849,8.7126999)"><tspan
                 id="tspan72"
                 y="0"
                 x="0">2</tspan></text>
</g></g></g></g></g></svg>