<?xml version="1.0" encoding="UTF-8" standalone="no"?>
<svg
   xmlns:dc="http://purl.org/dc/elements/1.1/"
   xmlns:cc="http://creativecommons.org/ns#"
   xmlns:rdf="http://www.w3.org/1999/02/22-rdf-syntax-ns#"
   xmlns:svg="http://www.w3.org/2000/svg"
   xmlns="http://www.w3.org/2000/svg"
   viewBox="0 0 205.33333 102.66667"
   height="102.66667"
   width="205.33333"
   xml:space="preserve"
   id="svg2"
   version="1.1"><metadata
     id="metadata8"><rdf:RDF><cc:Work
         rdf:about=""><dc:format>image/svg+xml</dc:format><dc:type
           rdf:resource="http://purl.org/dc/dcmitype/StillImage" /></cc:Work></rdf:RDF></metadata><defs
     id="defs6"><clipPath
       id="clipPath24"
       clipPathUnits="userSpaceOnUse"><path
         id="path22"
         d="M 0,0 H 154 V 77 H 0 Z" /></clipPath></defs><g
     transform="matrix(1.3333333,0,0,-1.3333333,0,102.66667)"
     id="g10"><g
       id="g12" /><g
       id="g14" /><g
       id="g16"><g
         id="g18"><g
           clip-path="url(#clipPath24)"
           id="g20"><g
             id="g26" /><g
             id="g28"><path
               id="path30"
               style="fill:none;stroke:#000000;stroke-width:1;stroke-linecap:butt;stroke-linejoin:round;stroke-miterlimit:4;stroke-dasharray:none;stroke-opacity:1"
               d="M 0.09900001,11.098001 H 1.899 m 129.47701,0 h 1.8 M 66.625,27.798002 v 1.799999 L 132.5,29.5 M 66.625,47.198002 v -1.799999 m 0,19.400001 v -1.800003 m -65.62599993,-51.9 H 138.37901" /><path
               id="path32"
               style="fill:#000000;fill-opacity:1;fill-rule:nonzero;stroke:none"
               d="m 137.35901,11.098001 -2.19,3.601999 0.12199,0.082 5.875,-2.334 c 2.04701,-0.450001 4.09399,-0.900001 6.14101,-1.35 -2.04702,-0.451001 -4.094,-0.901 -6.14101,-1.3520007 l -5.875,-2.3329997 -0.12199,0.061 2.19,3.6240004" /><path
               id="path34"
               style="fill:none;stroke:#000000;stroke-width:1;stroke-linecap:butt;stroke-linejoin:round;stroke-miterlimit:4;stroke-dasharray:none;stroke-opacity:1"
               d="M 66.625,0.5 V 67.375999" /><path
               id="path36"
               style="fill:#000000;fill-opacity:1;fill-rule:nonzero;stroke:none"
               d="M 66.625,66.356003 63.022003,64.166 l -0.082,0.123001 2.334003,5.875 c 0.450005,2.047005 0.901001,4.094002 1.350998,6.140999 0.450005,-2.046997 0.901001,-4.093994 1.351006,-6.140999 l 2.333992,-5.875 -0.062,-0.123001 -3.623001,2.190003" /><text
               id="text40"
               style="font-variant:normal;font-weight:normal;font-size:9px;font-family:Times;-inkscape-font-specification:Times-Roman;writing-mode:lr-tb;fill:#000000;fill-opacity:1;fill-rule:nonzero;stroke:none"
               transform="matrix(1,0,0,-1,59,25)"><tspan
                 id="tspan38"
                 y="0"
                 x="0">1</tspan></text>
<path
               id="path42"
               style="fill:#000000;fill-opacity:1;fill-rule:nonzero;stroke:#000000;stroke-width:1;stroke-linecap:butt;stroke-linejoin:round;stroke-miterlimit:4;stroke-dasharray:none;stroke-opacity:1"
               d="m 66.080002,28.427002 c 0.682998,0 1.236999,0.633999 1.236999,1.414999 0,0.781 -0.554001,1.414001 -1.236999,1.414001 -0.683998,0 -1.237999,-0.633001 -1.237999,-1.414001 0,-0.781 0.554001,-1.414999 1.237999,-1.414999 z" /><text
               id="text46"
               style="font-variant:normal;font-weight:normal;font-size:9.9630003px;font-family:CMMI10;-inkscape-font-specification:CMMI10;writing-mode:lr-tb;fill:#000000;fill-opacity:1;fill-rule:nonzero;stroke:none"
               transform="matrix(1,0,0,-1,43,58)"><tspan
                 id="tspan44"
                 y="0"
                 x="0">u</tspan></text>
<text
               id="text50"
               style="font-variant:normal;font-weight:normal;font-size:9.9630003px;font-family:CMR10;-inkscape-font-specification:CMR10;writing-mode:lr-tb;fill:#000000;fill-opacity:1;fill-rule:nonzero;stroke:none"
               transform="matrix(1,0,0,-1,48.70282,58)"><tspan
                 id="tspan48"
                 y="0"
                 x="0">(</tspan></text>
<text
               id="text54"
               style="font-variant:normal;font-weight:normal;font-size:9.9630003px;font-family:CMMI10;-inkscape-font-specification:CMMI10;writing-mode:lr-tb;fill:#000000;fill-opacity:1;fill-rule:nonzero;stroke:none"
               transform="matrix(1,0,0,-1,52.577431,58)"><tspan
                 id="tspan52"
                 y="0"
                 x="0">t</tspan></text>
<text
               id="text58"
               style="font-variant:normal;font-weight:normal;font-size:9.9630003px;font-family:CMR10;-inkscape-font-specification:CMR10;writing-mode:lr-tb;fill:#000000;fill-opacity:1;fill-rule:nonzero;stroke:none"
               transform="matrix(1,0,0,-1,56.174072,58)"><tspan
                 id="tspan56"
                 y="0"
                 x="0">)</tspan></text>
<text
               id="text62"
               style="font-variant:normal;font-weight:normal;font-size:9.9630003px;font-family:CMMI10;-inkscape-font-specification:CMMI10;writing-mode:lr-tb;fill:#000000;fill-opacity:1;fill-rule:nonzero;stroke:none"
               transform="matrix(1,0,0,-1,149.49948,6.0001144)"><tspan
                 id="tspan60"
                 y="0"
                 x="0">t</tspan></text>
<path
               id="path64"
               style="fill:none;stroke:#000000;stroke-width:1;stroke-linecap:butt;stroke-linejoin:round;stroke-miterlimit:4;stroke-dasharray:2, 2;stroke-dashoffset:0;stroke-opacity:1"
               d="M 1,13 H 65" /></g></g></g></g></g></svg>