<?xml version="1.0" encoding="UTF-8" standalone="no"?>
<svg
   xmlns:dc="http://purl.org/dc/elements/1.1/"
   xmlns:cc="http://creativecommons.org/ns#"
   xmlns:rdf="http://www.w3.org/1999/02/22-rdf-syntax-ns#"
   xmlns:svg="http://www.w3.org/2000/svg"
   xmlns="http://www.w3.org/2000/svg"
   viewBox="0 0 210.66667 136"
   height="136"
   width="210.66667"
   xml:space="preserve"
   id="svg2"
   version="1.1"><metadata
     id="metadata8"><rdf:RDF><cc:Work
         rdf:about=""><dc:format>image/svg+xml</dc:format><dc:type
           rdf:resource="http://purl.org/dc/dcmitype/StillImage" /></cc:Work></rdf:RDF></metadata><defs
     id="defs6"><clipPath
       id="clipPath24"
       clipPathUnits="userSpaceOnUse"><path
         id="path22"
         d="M 0,0 H 158 V 102 H 0 Z" /></clipPath></defs><g
     transform="matrix(1.3333333,0,0,-1.3333333,0,136)"
     id="g10"><g
       id="g12" /><g
       id="g14" /><g
       id="g16"><g
         id="g18"><g
           clip-path="url(#clipPath24)"
           id="g20"><g
             id="g26" /><g
             id="g28"><path
               id="path30"
               style="fill:none;stroke:#000000;stroke-width:1;stroke-linecap:butt;stroke-linejoin:round;stroke-miterlimit:4;stroke-dasharray:none;stroke-opacity:1"
               d="M 0.09900001,8.0980005 H 1.899 M 0.99900007,8.9970007 V 7.1980004 M 131.37601,8.0980005 h 1.8 M 132.276,8.9970007 V 7.1980004 M 0.99900007,8.0980005 H 138.37901" /><path
               id="path32"
               style="fill:#000000;fill-opacity:1;fill-rule:nonzero;stroke:none"
               d="m 137.35901,8.0980005 -2.19,3.6019995 0.12199,0.082 5.875,-2.3340001 c 2.04701,-0.4500008 4.09399,-0.9000006 6.14101,-1.3500004 -2.04702,-0.4510002 -4.094,-0.901 -6.14101,-1.3520002 l -5.875,-2.3330002 -0.12199,0.061 2.19,3.6240005" /><path
               id="path34"
               style="fill:#000000;fill-opacity:1;fill-rule:nonzero;stroke:none"
               d="m 66.815002,91.568001 -3.602001,-2.190994 -0.082,0.122993 2.333001,5.875008 c 0.450996,2.046997 0.901,4.093994 1.350997,6.141002 0.451004,-2.047008 0.901001,-4.094005 1.351998,-6.141002 L 70.5,89.5 70.439,89.377007 66.814999,91.568001" /><text
               id="text38"
               style="font-variant:normal;font-weight:normal;font-size:9.9630003px;font-family:CMMI10;-inkscape-font-specification:CMMI10;writing-mode:lr-tb;fill:#000000;fill-opacity:1;fill-rule:nonzero;stroke:none"
               transform="matrix(1,0,0,-1,151.5,2.5)"><tspan
                 id="tspan36"
                 y="0"
                 x="0">x</tspan></text>
<text
               id="text42"
               style="font-variant:normal;font-weight:normal;font-size:9.9630003px;font-family:CMMI10;-inkscape-font-specification:CMMI10;writing-mode:lr-tb;fill:#000000;fill-opacity:1;fill-rule:nonzero;stroke:none"
               transform="matrix(1,0,0,-1,112.54865,47.261765)"><tspan
                 id="tspan40"
                 y="0"
                 x="0">f</tspan></text>
<text
               id="text46"
               style="font-variant:normal;font-weight:normal;font-size:9.9630003px;font-family:CMR10;-inkscape-font-specification:CMR10;writing-mode:lr-tb;fill:#000000;fill-opacity:1;fill-rule:nonzero;stroke:none"
               transform="matrix(1,0,0,-1,118.49856,47.261765)"><tspan
                 id="tspan44"
                 y="0"
                 x="0">(</tspan></text>
<text
               id="text50"
               style="font-variant:normal;font-weight:normal;font-size:9.9630003px;font-family:CMMI10;-inkscape-font-specification:CMMI10;writing-mode:lr-tb;fill:#000000;fill-opacity:1;fill-rule:nonzero;stroke:none"
               transform="matrix(1,0,0,-1,122.37217,47.261765)"><tspan
                 id="tspan48"
                 y="0"
                 x="0">x</tspan></text>
<text
               id="text54"
               style="font-variant:normal;font-weight:normal;font-size:9.9630003px;font-family:CMR10;-inkscape-font-specification:CMR10;writing-mode:lr-tb;fill:#000000;fill-opacity:1;fill-rule:nonzero;stroke:none"
               transform="matrix(1,0,0,-1,128.06602,47.261765)"><tspan
                 id="tspan52"
                 y="0"
                 x="0">)</tspan></text>
<text
               id="text58"
               style="font-variant:normal;font-weight:normal;font-size:9.9630003px;font-family:CMR10;-inkscape-font-specification:CMR10;writing-mode:lr-tb;fill:#000000;fill-opacity:1;fill-rule:nonzero;stroke:none"
               transform="matrix(1,0,0,-1,134.70935,47.261765)"><tspan
                 id="tspan56"
                 y="0"
                 x="0">=</tspan></text>
<text
               id="text62"
               style="font-variant:normal;font-weight:normal;font-size:9.9630003px;font-family:CMSY10;-inkscape-font-specification:CMSY10;writing-mode:lr-tb;fill:#000000;fill-opacity:1;fill-rule:nonzero;stroke:none"
               transform="matrix(1,0,0,-1,145.2243,47.261765)"><tspan
                 id="tspan60"
                 y="0"
                 x="0">|</tspan></text>
<text
               id="text66"
               style="font-variant:normal;font-weight:normal;font-size:9.9630003px;font-family:CMMI10;-inkscape-font-specification:CMMI10;writing-mode:lr-tb;fill:#000000;fill-opacity:1;fill-rule:nonzero;stroke:none"
               transform="matrix(1,0,0,-1,147.99103,47.261765)"><tspan
                 id="tspan64"
                 y="0"
                 x="0">x</tspan></text>
<text
               id="text70"
               style="font-variant:normal;font-weight:normal;font-size:9.9630003px;font-family:CMSY10;-inkscape-font-specification:CMSY10;writing-mode:lr-tb;fill:#000000;fill-opacity:1;fill-rule:nonzero;stroke:none"
               transform="matrix(1,0,0,-1,153.68488,47.261765)"><tspan
                 id="tspan68"
                 y="0"
                 x="0">|</tspan></text>
<path
               id="path72"
               style="fill:none;stroke:#000000;stroke-width:1;stroke-linecap:butt;stroke-linejoin:round;stroke-miterlimit:4;stroke-dasharray:none;stroke-opacity:1"
               d="M 125.75,67.25 66.5,8 9.5,65 m 57,-57 v 87.5" /></g></g></g></g></g></svg>