<?xml version="1.0" encoding="UTF-8" standalone="no"?>
<svg
   xmlns:dc="http://purl.org/dc/elements/1.1/"
   xmlns:cc="http://creativecommons.org/ns#"
   xmlns:rdf="http://www.w3.org/1999/02/22-rdf-syntax-ns#"
   xmlns:svg="http://www.w3.org/2000/svg"
   xmlns="http://www.w3.org/2000/svg"
   viewBox="0 0 244 96"
   height="96"
   width="244"
   xml:space="preserve"
   id="svg2"
   version="1.1"><metadata
     id="metadata8"><rdf:RDF><cc:Work
         rdf:about=""><dc:format>image/svg+xml</dc:format><dc:type
           rdf:resource="http://purl.org/dc/dcmitype/StillImage" /></cc:Work></rdf:RDF></metadata><defs
     id="defs6"><clipPath
       id="clipPath24"
       clipPathUnits="userSpaceOnUse"><path
         id="path22"
         d="M 0,0 H 183 V 72 H 0 Z" /></clipPath><clipPath
       id="clipPath34"
       clipPathUnits="userSpaceOnUse"><path
         id="path32"
         d="M 0.06,0.05999756 H 182.29401 V 71.853005 H 0.06 Z" /></clipPath><clipPath
       id="clipPath52"
       clipPathUnits="userSpaceOnUse"><path
         id="path50"
         d="M 0.06,0.05999756 H 182.29401 V 71.853005 H 0.06 Z" /></clipPath><clipPath
       id="clipPath86"
       clipPathUnits="userSpaceOnUse"><path
         id="path84"
         d="M 0.06,0.05999756 H 182.29401 V 71.853005 H 0.06 Z" /></clipPath></defs><g
     transform="matrix(1.3333333,0,0,-1.3333333,0,96)"
     id="g10"><g
       id="g12" /><g
       id="g14" /><g
       id="g16"><g
         id="g18"><g
           clip-path="url(#clipPath24)"
           id="g20"><g
             id="g26" /><g
             id="g28"><g
               clip-path="url(#clipPath34)"
               id="g30"><path
                 id="path36"
                 style="fill:#231f20;fill-opacity:1;fill-rule:nonzero;stroke:none"
                 d="M 0,8.5199995 H 171.841" /><path
                 id="path38"
                 style="fill:none;stroke:#231f20;stroke-width:0.69999999;stroke-linecap:butt;stroke-linejoin:miter;stroke-miterlimit:4;stroke-dasharray:none;stroke-opacity:1"
                 d="M 0,8.5199995 H 171.841" /></g></g><g
             id="g40"><path
               id="path42"
               style="fill:#231f20;fill-opacity:1;fill-rule:nonzero;stroke:none"
               d="m 171.01302,8.8290005 -1.34501,2.2130005 0.075,0.051 3.61,-1.4339996 c 1.258,-0.2770004 2.515,-0.5529995 3.773,-0.8299999 -1.258,-0.2770005 -2.515,-0.5530005 -3.773,-0.83 l -3.61,-1.434 -0.075,0.038 1.34501,2.2260003" /><path
               id="path44"
               style="fill:#231f20;fill-opacity:1;fill-rule:nonzero;stroke:none"
               d="M 82.831001,1.2180001 V 58.157001" /></g><g
             id="g46"><g
               clip-path="url(#clipPath52)"
               id="g48"><path
                 id="path54"
                 style="fill:none;stroke:#231f20;stroke-width:0.71999997;stroke-linecap:butt;stroke-linejoin:miter;stroke-miterlimit:4;stroke-dasharray:none;stroke-opacity:1"
                 d="M 82.831001,1.2180001 V 58.157001" /></g></g><g
             id="g56"><path
               id="path58"
               style="fill:#231f20;fill-opacity:1;fill-rule:nonzero;stroke:none"
               d="m 82.591003,59.409004 -2.212997,-1.346 -0.051,0.075 1.433999,3.609997 c 0.277,1.258003 0.553001,2.514999 0.830001,3.773003 0.277001,-1.258004 0.554001,-2.515 0.830002,-3.773003 l 1.432999,-3.609997 -0.037,-0.075 -2.225998,1.346" /><text
               id="text62"
               style="font-variant:normal;font-weight:normal;font-size:9.79360008px;font-family:CMMI10;-inkscape-font-specification:CMMI10;writing-mode:lr-tb;fill:#231f20;fill-opacity:1;fill-rule:nonzero;stroke:none"
               transform="matrix(1,0,0,-1,176.701,2.4484999)"><tspan
                 id="tspan60"
                 y="0"
                 x="0">x</tspan></text>
<text
               id="text66"
               style="font-variant:normal;font-weight:normal;font-size:9.79360008px;font-family:CMMI10;-inkscape-font-specification:CMMI10;writing-mode:lr-tb;fill:#231f20;fill-opacity:1;fill-rule:nonzero;stroke:none"
               transform="matrix(1,0,0,-1,73.201256,63.868084)"><tspan
                 id="tspan64"
                 y="0"
                 x="0">y</tspan></text>
<text
               id="text70"
               style="font-variant:normal;font-weight:normal;font-size:8.16129971px;font-family:CMMI10;-inkscape-font-specification:CMMI10;writing-mode:lr-tb;fill:#231f20;fill-opacity:1;fill-rule:nonzero;stroke:none"
               transform="matrix(1,0,0,-1,47.265598,11.743199)"><tspan
                 id="tspan68"
                 y="0"
                 x="0">P</tspan></text>
<text
               id="text74"
               style="font-variant:normal;font-weight:normal;font-size:8.16129971px;font-family:CMMI10;-inkscape-font-specification:CMMI10;writing-mode:lr-tb;fill:#231f20;fill-opacity:1;fill-rule:nonzero;stroke:none"
               transform="matrix(1,0,0,-1,109.34616,11.743199)"><tspan
                 id="tspan72"
                 y="0"
                 x="0">Q</tspan></text>
<text
               id="text78"
               style="font-variant:normal;font-weight:normal;font-size:8.16129971px;font-family:CMMI10;-inkscape-font-specification:CMMI10;writing-mode:lr-tb;fill:#231f20;fill-opacity:1;fill-rule:nonzero;stroke:none"
               transform="matrix(1,0,0,-1,147.74507,57.823528)"><tspan
                 id="tspan76"
                 y="0"
                 x="0">R</tspan></text>
</g><g
             id="g80"><g
               clip-path="url(#clipPath86)"
               id="g82"><path
                 id="path88"
                 style="fill:none;stroke:#231f20;stroke-width:0.80000001;stroke-linecap:butt;stroke-linejoin:round;stroke-miterlimit:4;stroke-dasharray:none;stroke-opacity:1"
                 d="m 128.78601,36.741001 0.23999,0.292999 0.21301,0.293003 0.24099,0.266999 0.23901,0.292999 0.21399,0.294003 0.24,0.292999 0.213,0.293999 0.48001,0.585998 0.21399,0.293003 0.239,0.293999 0.241,0.32 0.21301,0.292999 0.23999,0.292999 0.24001,0.320004 0.21299,0.293998 0.24001,0.293 0.213,0.319999 0.24099,0.32 0.239,0.292999 0.21401,0.320004 0.24,0.319999 0.23999,0.293999 0.213,0.32 0.48001,0.639999 0.21399,0.32 0.23999,0.32 0.24001,0.319999 0.21301,0.346001 0.24,0.32 0.213,0.321003 0.23999,0.319 0.24001,0.347 0.21299,0.32 0.241,0.347 0.239,0.32 0.214,0.347 0.24001,0.319999 0.23999,0.346001 0.21301,0.347 0.23999,0.346996 0.213,0.346001 0.24001,0.347 0.24099,0.346001 0.213,0.347 0.24001,0.347 0.24,0.346001 0.213,0.347 0.48,0.693001 0.21299,0.374 0.241,0.347 0.21201,0.372998 0.24099,0.347 0.24001,0.373001 0.213,0.346001 0.24,0.374 0.23999,0.372997 0.21301,0.347001 0.23999,0.373001 0.241,0.373001 0.21201,0.374 0.24099,0.372998 0.24001,0.373001 0.213,0.374 0.24,0.373001 0.21399,0.373997 0.239,0.400002 0.24001,0.373001 0.21299,0.372997 0.241,0.400002 0.24001,0.374 0.214,0.373001 0.239,0.399998 0.23999,0.400001 0.21301,0.373002 0.23999,0.399997 0.21401,0.400002 0.239,0.399997 0.24099,0.374001 0.21401,0.400002 0.239,0.400001 0.24,0.400002 0.21399,0.398994 0.23901,0.427002 0.23999,0.400002 0.21401,0.400001 0.239,0.399994 0.214,0.427002 0.241,0.400001 0.239,0.400002 0.21399,0.425995 0.24,0.427002 0.239,0.400001 0.21401,0.427002 0.24,0.400002 0.23999,0.425995 0.21301,0.427002 m -45.6,-56.053004 0.213,0.159 0.23999,0.134001 0.24001,0.16 0.214,0.133 0.23899,0.16 0.24101,0.159999 0.212,0.134001 0.24099,0.16 0.24,0.16 0.214,0.16 0.239,0.16 0.214,0.159999 0.23901,0.16 0.24,0.16 0.21399,0.16 0.24001,0.160002 0.24,0.16 0.21399,0.186998 0.23901,0.159 0.24,0.187001 0.21399,0.159999 0.239,0.187001 0.21401,0.16 0.23999,0.186 0.24,0.16 0.21301,0.187001 0.24099,0.187 0.239,0.185999 0.21401,0.187 0.24,0.187 0.23899,0.187001 0.21401,0.185998 0.24,0.187001 0.21299,0.186001 0.241,0.187 0.24,0.186998 0.213,0.213001 0.24,0.187001 0.24001,0.185999 0.21299,0.214 0.24,0.185999 0.24101,0.214001 0.212,0.212999 0.24099,0.187001 0.23901,0.213001 0.214,0.212999 0.23999,0.214001 0.21301,0.212999 0.47999,0.427 0.21301,0.213 0.24,0.213001 0.24099,0.213999 0.213,0.213001 0.24001,0.212999 0.24,0.24 0.21299,0.214001 0.24001,0.212999 0.21399,0.24 0.239,0.24 0.241,0.213001 0.21301,0.24 0.23999,0.213998 0.24001,0.240002 0.213,0.24 0.23999,0.24 0.24,0.239999 0.214,0.24 0.23901,0.24 0.21399,0.24 0.48001,0.480001 0.21299,0.24 0.24001,0.24 0.24,0.265999 0.21399,0.241001 0.23901,0.265999 0.24,0.240001 0.21399,0.267 0.24001,0.24 0.213,0.265999 0.23999,0.267002 0.24,0.239998 0.21301,0.267002 0.24099,0.265999 0.239,0.266998 0.21401,0.267002 0.24,0.265999 0.23999,0.267002 0.21301,0.266999 0.47999,0.533001 0.21301,0.292999 0.24099,0.266998 0.213,0.267002 0.24,0.292999 0.24001,0.267003 0.213,0.292999 0.24,0.266998" /><path
                 id="path90"
                 style="fill:none;stroke:#231f20;stroke-width:0.80000001;stroke-linecap:butt;stroke-linejoin:round;stroke-miterlimit:4;stroke-dasharray:none;stroke-opacity:1"
                 d="m 83.186005,8.3140001 h 0.666 l 0.239998,0.027 h 0.239998 l 0.214004,0.026 h 0.238999 l 0.239998,0.026999 h 0.214004 l 0.239998,0.027 0.239998,0.026 h 0.213005 l 0.239998,0.027 0.212997,0.027 0.240006,0.026 0.239997,0.027 0.213997,0.025999 0.240006,0.027 0.239998,0.027 0.212997,0.026999 0.239998,0.053 0.240006,0.025999 0.212997,0.027 0.240997,0.053 0.213005,0.027 0.239998,0.054 0.239998,0.026 0.213005,0.054001 0.239998,0.053 0.239998,0.027 0.214004,0.053 0.239998,0.053 0.238999,0.054 0.213997,0.053 0.240005,0.053 0.239998,0.054 0.212997,0.052999 0.240006,0.053001 0.213997,0.052999 0.238998,0.054001 0.240006,0.08 0.213997,0.053 0.239997,0.052999 0.240006,0.081 0.212997,0.053 0.239998,0.08 0.239998,0.08 0.214005,0.053 0.238998,0.08 0.213997,0.08 0.240005,0.08 0.239998,0.054 0.212998,0.079 0.240005,0.08 0.239998,0.081 0.212997,0.079 0.241005,0.107 0.239998,0.08 0.212998,0.08 0.240005,0.08 0.212998,0.106999 0.239997,0.08 0.239998,0.107001 0.213005,0.08 0.240998,0.106 0.239998,0.08 0.213005,0.107001 0.239998,0.107 0.239997,0.08 0.213005,0.106 0.239998,0.106999 0.239998,0.107001 0.213005,0.106 0.241002,0.107 0.21299,0.105999 0.48001,0.214001 0.21299,0.133 0.241,0.106999 0.24001,0.107001 0.21299,0.132999 0.24,0.107001 0.24001,0.133 0.21299,0.106999 0.24,0.133001 0.21401,0.133 0.239,0.106999 0.24099,0.133001 0.21401,0.134 0.239,0.133 0.23999,0.132999 0.214,0.134 0.23901,0.133001 0.23999,0.133 0.214,0.134 0.23901,0.133 0.21399,0.16 0.24,0.132999 0.24001,0.134 M 60.358002,14.794001 60.599003,14.661 l 0.238998,-0.134 0.214001,-0.132999 0.240002,-0.133 0.212997,-0.134 0.240002,-0.133001 0.240001,-0.106999 0.212998,-0.133 0.240002,-0.133001 0.241001,-0.106999 0.212997,-0.133 0.240002,-0.107001 0.239998,-0.132999 0.213001,-0.107001 0.240002,-0.106999 0.239997,-0.133 L 64.278,12.687 l 0.241005,-0.107 0.212997,-0.105999 0.239998,-0.107 0.240006,-0.106 0.212997,-0.107001 0.239998,-0.106999 0.240005,-0.106 0.213997,-0.08 0.238999,-0.107 0.241005,-0.107001 0.212997,-0.08 0.239998,-0.106 0.214004,-0.08 0.238999,-0.107 0.239998,-0.08 L 67.959,11.087001 68.438004,10.927 68.652,10.847 l 0.240006,-0.106 0.239998,-0.08 0.213997,-0.081 0.239006,-0.079 0.213997,-0.08 0.239997,-0.054 0.238999,-0.08 0.214004,-0.08 0.239998,-0.08 0.239998,-0.053 0.214005,-0.08 0.238998,-0.08 0.239998,-0.053 0.214004,-0.081 0.239998,-0.052999 0.238999,-0.053 0.214004,-0.08 0.239998,-0.053 0.212998,-0.054 0.241004,-0.053001 0.239998,-0.052999 0.212998,-0.054 0.240005,-0.053 0.238999,-0.053 0.213997,-0.054 0.239997,-0.053 0.240006,-0.053 0.212997,-0.027 0.240998,-0.053 0.213005,-0.054001 0.239998,-0.026 0.239997,-0.054 0.213006,-0.027 0.239997,-0.053 0.239998,-0.026 0.213005,-0.027 0.240998,-0.053 0.239998,-0.026999 0.212997,-0.027 0.240005,-0.027 0.212998,-0.025999 0.239998,-0.026 0.240005,-0.027 0.212998,-0.027 0.239998,-0.027 h 0.241004 l 0.212998,-0.026 0.239998,-0.027 h 0.240005 l 0.212998,-0.026999 h 0.239998 l 0.239997,-0.026 h 0.213005 l 0.239998,-0.027 h 1.147004 l 0.239997,-0.026999 0.213997,0.026999 h 0.480004" /><path
                 id="path92"
                 style="fill:none;stroke:#231f20;stroke-width:0.80000001;stroke-linecap:butt;stroke-linejoin:round;stroke-miterlimit:4;stroke-dasharray:none;stroke-opacity:1"
                 d="m 37.559002,35.087002 0.240002,-0.292999 0.212997,-0.266003 0.240002,-0.266998 0.239998,-0.266999 0.213001,-0.267002 0.240002,-0.265999 0.240997,-0.267002 0.212002,-0.266998 0.241001,-0.265999 0.212997,-0.267002 0.240002,-0.239998 0.239998,-0.267002 0.213001,-0.265999 0.240002,-0.24 0.239998,-0.267 0.213001,-0.240001 0.240997,-0.265999 0.240002,-0.241001 0.213001,-0.265999 0.239998,-0.24 0.213001,-0.24 0.240002,-0.240001 0.239998,-0.24 0.214,-0.24 0.238999,-0.24 0.241001,-0.24 0.213001,-0.239999 0.239998,-0.24 0.240002,-0.24 0.213001,-0.240002 0.239998,-0.213998 0.240002,-0.24 0.213996,-0.213001 0.239003,-0.24 0.214,-0.24 0.239998,-0.212999 0.240002,-0.214001 0.212997,-0.24 0.240002,-0.212999 0.240002,-0.213001 0.213997,-0.213999 0.239002,-0.213001 0.241001,-0.213 0.212997,-0.214 0.240002,-0.213 0.212997,-0.212999 0.240002,-0.214001 0.240002,-0.212999 0.212997,-0.213001 0.241001,-0.187001 0.238999,-0.212999 0.214,-0.214001 0.240002,-0.185999 0.239998,-0.214 0.213001,-0.185999 0.240002,-0.187001 0.213997,-0.213001 0.239002,-0.186998 0.241001,-0.187 0.212998,-0.186001 0.240001,-0.187001 0.239998,-0.187 0.213001,-0.187 0.240002,-0.185999 0.239998,-0.187 0.214001,-0.185999 0.240001,-0.187 0.212998,-0.187001 0.240001,-0.16 0.239998,-0.186 0.213002,-0.16 0.241001,-0.187001 0.238998,-0.159999 0.214001,-0.187001 0.238998,-0.159 0.241001,-0.186998 0.213002,-0.16 0.239997,-0.160002 0.240002,-0.161001 0.213001,-0.158999 0.239998,-0.16 0.213002,-0.159999 0.240997,-0.16 0.239002,-0.16 0.214001,-0.16 0.239998,-0.16 0.240001,-0.134001 0.213002,-0.159999 0.239997,-0.16 0.240002,-0.133 0.213997,-0.16 0.240002,-0.134001 0.213001,-0.159 0.239998,-0.134 0.240001,-0.132999 0.213002,-0.16 0.239998,-0.133 0.241001,-0.134 0.211998,-0.133 M 14.758,69.167 l 0.214001,-0.425995 0.24,-0.400002 0.24,-0.400001 0.213,-0.427002 0.24,-0.399994 0.239999,-0.400001 0.213002,-0.400002 0.240999,-0.426003 0.239,-0.399993 0.213999,-0.400002 0.240002,-0.400001 0.212999,-0.400002 0.24,-0.374001 0.24,-0.399997 0.212999,-0.400002 0.240002,-0.399997 0.239999,-0.373002 0.213999,-0.400001 0.24,-0.399998 0.240002,-0.373001 0.212999,-0.374 0.24,-0.400002 0.24,-0.372997 0.213001,-0.373001 0.240999,-0.400002 0.212,-0.373997 0.481001,-0.747001 0.212999,-0.373001 0.24,-0.372998 0.24,-0.374 0.213001,-0.373001 0.24,-0.373001 0.240999,-0.347001 0.212999,-0.372997 0.240002,-0.373001 0.212999,-0.347 0.24,-0.373001 0.24,-0.347 0.213001,-0.372998 0.24,-0.347 0.24,-0.374 0.212999,-0.346001 0.481001,-0.693001 0.212999,-0.347 0.24,-0.347 0.214001,-0.347 0.239,-0.346001 0.24,-0.347 0.213999,-0.346001 0.239,-0.346996 0.241001,-0.347 0.213999,-0.346001 0.239,-0.319999 0.24,-0.347 0.214001,-0.32 0.239,-0.347 0.24,-0.32 0.213999,-0.346001 0.240001,-0.319999 0.213,-0.321003 0.239999,-0.32 0.24,-0.346001 0.214001,-0.319999 0.239,-0.32 0.24,-0.32 0.213999,-0.319999 0.239,-0.32 0.241001,-0.32 0.212999,-0.293999 0.24,-0.319999 0.214001,-0.320004 0.24,-0.292999 0.239,-0.32 0.214001,-0.319999 0.239998,-0.293 0.239002,-0.293998 L 32.945,40.847 l 0.241001,-0.292999 0.239002,-0.292999 0.213997,-0.32 0.240002,-0.293999 L 34.092003,39.354 34.572002,38.768002 34.785,38.474003 35.266003,37.887001 35.479,37.594002 35.719002,37.327003 35.958,37.034 l 0.214001,-0.292999 0.240002,-0.266998 0.238998,-0.292999 0.214001,-0.267003 0.240001,-0.292999 0.212998,-0.267002 0.241001,-0.266998" /></g></g><g
             id="g94"><path
               id="path96"
               style="fill:#231f20;fill-opacity:1;fill-rule:nonzero;stroke:none"
               d="m 146.37601,60.506004 c 0.87399,0 1.58299,0.709 1.58299,1.583996 0,0.875004 -0.709,1.584004 -1.58299,1.584004 -0.87601,0 -1.584,-0.709 -1.584,-1.584004 0,-0.874996 0.70799,-1.583996 1.584,-1.583996" /><path
               id="path98"
               style="fill:none;stroke:#231f20;stroke-width:0.40000001;stroke-linecap:butt;stroke-linejoin:round;stroke-miterlimit:4;stroke-dasharray:none;stroke-opacity:1"
               d="m 146.37601,60.506004 c 0.87399,0 1.58299,0.709 1.58299,1.583996 0,0.875004 -0.709,1.584004 -1.58299,1.584004 -0.87601,0 -1.584,-0.709 -1.584,-1.584004 0,-0.874996 0.70799,-1.583996 1.584,-1.583996 z" /><path
               id="path100"
               style="fill:#231f20;fill-opacity:1;fill-rule:nonzero;stroke:none"
               d="m 108.89301,15.436001 c 0.874,0 1.583,0.709999 1.583,1.583999 0,0.875 -0.709,1.585001 -1.583,1.585001 -0.875,0 -1.584,-0.710001 -1.584,-1.585001 0,-0.874 0.709,-1.583999 1.584,-1.583999" /><path
               id="path102"
               style="fill:none;stroke:#231f20;stroke-width:0.40000001;stroke-linecap:butt;stroke-linejoin:round;stroke-miterlimit:4;stroke-dasharray:none;stroke-opacity:1"
               d="m 108.89301,15.436001 c 0.874,0 1.583,0.709999 1.583,1.583999 0,0.875 -0.709,1.585001 -1.583,1.585001 -0.875,0 -1.584,-0.710001 -1.584,-1.585001 0,-0.874 0.709,-1.583999 1.584,-1.583999 z" /><path
               id="path104"
               style="fill:#231f20;fill-opacity:1;fill-rule:nonzero;stroke:none"
               d="m 57.079002,15.156001 c 0.874001,0 1.584,0.709 1.584,1.583999 0,0.875002 -0.709999,1.584001 -1.584,1.584001 -0.875,0 -1.583999,-0.708999 -1.583999,-1.584001 0,-0.874999 0.708999,-1.583999 1.583999,-1.583999" /><path
               id="path106"
               style="fill:none;stroke:#231f20;stroke-width:0.40000001;stroke-linecap:butt;stroke-linejoin:round;stroke-miterlimit:4;stroke-dasharray:none;stroke-opacity:1"
               d="m 57.079002,15.156001 c 0.874001,0 1.584,0.709 1.584,1.583999 0,0.875002 -0.709999,1.584001 -1.584,1.584001 -0.875,0 -1.583999,-0.708999 -1.583999,-1.584001 0,-0.874999 0.708999,-1.583999 1.583999,-1.583999 z" /></g></g></g></g></g></svg>