<?xml version="1.0" encoding="UTF-8" standalone="no"?>
<svg
   xmlns:dc="http://purl.org/dc/elements/1.1/"
   xmlns:cc="http://creativecommons.org/ns#"
   xmlns:rdf="http://www.w3.org/1999/02/22-rdf-syntax-ns#"
   xmlns:svg="http://www.w3.org/2000/svg"
   xmlns="http://www.w3.org/2000/svg"
   viewBox="0 0 239.73734 134.576"
   height="134.576"
   width="239.73734"
   xml:space="preserve"
   id="svg2"
   version="1.1"><metadata
     id="metadata8"><rdf:RDF><cc:Work
         rdf:about=""><dc:format>image/svg+xml</dc:format><dc:type
           rdf:resource="http://purl.org/dc/dcmitype/StillImage" /></cc:Work></rdf:RDF></metadata><defs
     id="defs6"><clipPath
       id="clipPath70"
       clipPathUnits="userSpaceOnUse"><path
         id="path68"
         d="M 0,100.92 H 179.76 V 0 H 0 Z" /></clipPath></defs><g
     transform="matrix(1.3333333,0,0,-1.3333333,0,134.576)"
     id="g10"><path
       id="path12"
       style="fill:#c6c8ca;fill-opacity:1;fill-rule:nonzero;stroke:none"
       d="m 33.333,13.668 h 75.334 v 50.666 c -13.4,2.91 -25.639,6.642 -39.334,8.667 l -2.666,0.667 h -3 L 60.333,74.334 56,75.001 h -6.667 l -4,0.333 h -4 l -3.666,-0.333 -2.334,0.333 H 33.667 L 33.333,13.668" /><path
       id="path14"
       style="fill:none;stroke:#c6c8ca;stroke-width:1;stroke-linecap:butt;stroke-linejoin:miter;stroke-miterlimit:4;stroke-dasharray:none;stroke-opacity:1"
       d="m 33.333,13.668 h 75.334 v 50.666 c -13.4,2.91 -25.639,6.642 -39.334,8.667 l -2.666,0.667 h -3 L 60.333,74.334 56,75.001 h -6.667 l -4,0.333 h -4 l -3.666,-0.333 -2.334,0.333 h -1.666 z" /><path
       id="path16"
       style="fill:none;stroke:#231f20;stroke-width:1;stroke-linecap:butt;stroke-linejoin:miter;stroke-miterlimit:4;stroke-dasharray:none;stroke-opacity:1"
       d="M 13.829,8.4574 V 93.457" /><path
       id="path18"
       style="fill:#231f20;fill-opacity:1;fill-rule:nonzero;stroke:none"
       d="m 13.829,92.932 -1.85,-1.128 -0.042,0.063 1.198,3.026 c 0.231,1.055 0.462,2.109 0.694,3.164 0.231,-1.055 0.462,-2.109 0.693,-3.164 l 1.199,-3.026 -0.032,-0.063 -1.86,1.128" /><path
       id="path20"
       style="fill:none;stroke:#231f20;stroke-width:1;stroke-linecap:butt;stroke-linejoin:miter;stroke-miterlimit:4;stroke-dasharray:none;stroke-opacity:1"
       d="m 13.829,92.932 -1.85,-1.128 -0.042,0.063 1.198,3.026 c 0.231,1.055 0.462,2.109 0.694,3.164 0.231,-1.055 0.462,-2.109 0.693,-3.164 l 1.199,-3.026 -0.032,-0.063 z" /><path
       id="path22"
       style="fill:none;stroke:#231f20;stroke-width:0.5;stroke-linecap:butt;stroke-linejoin:miter;stroke-miterlimit:4;stroke-dasharray:none;stroke-opacity:1"
       d="m 156.172,60.044 c -5.818,-1.901 -14.205,-1.511 -24.142,0.038 m 0,0 C 98.766,65.27 48.129,83.462 18.298,72.317 m 0,0 C 11.947,69.944 6.5386,66.241 2.4419,60.799" /><text
       id="text30"
       style="font-style:italic;font-variant:normal;font-weight:normal;font-size:12px;font-family:CMMI10;-inkscape-font-specification:CMMI10;writing-mode:lr-tb;fill:#231f20;fill-opacity:1;fill-rule:nonzero;stroke:none"
       transform="matrix(0.99680833,0,0,-1,29.333,5.0004)"><tspan
         id="tspan24"
         y="0"
         x="0">a</tspan><tspan
         id="tspan26"
         y="2.0004001"
         x="78.249603">b</tspan><tspan
         id="tspan28"
         y="-53.499599"
         x="128.886">y</tspan></text>
<text
       id="text34"
       style="font-variant:normal;font-weight:normal;font-size:12px;font-family:CMR10;-inkscape-font-specification:CMR10;writing-mode:lr-tb;fill:#231f20;fill-opacity:1;fill-rule:nonzero;stroke:none"
       transform="matrix(0.99680833,0,0,-1,163.66887,58.5)"><tspan
         id="tspan32"
         y="0"
         x="0">(</tspan></text>
<text
       id="text40"
       style="font-style:italic;font-variant:normal;font-weight:normal;font-size:12px;font-family:CMMI10;-inkscape-font-specification:CMMI10;writing-mode:lr-tb;fill:#231f20;fill-opacity:1;fill-rule:nonzero;stroke:none"
       transform="matrix(0.99680833,0,0,-1,2.6667822,90.834)"><tspan
         id="tspan36"
         y="0"
         x="0">y</tspan><tspan
         id="tspan38"
         y="84.666"
         x="165.69479">x</tspan></text>
<text
       id="text44"
       style="font-variant:normal;font-weight:normal;font-size:12px;font-family:CMR7;-inkscape-font-specification:CMR7;writing-mode:lr-tb;fill:#231f20;fill-opacity:1;fill-rule:nonzero;stroke:none"
       transform="matrix(0.99680833,0,0,-1,89.999154,84.1668)"><tspan
         id="tspan42"
         y="0"
         x="0 6.8280001 12.18 18.264 25.091999 29.700001 35.051998 41.136002 48.335999 55.896 59.771999 65.124001 71.208">area required</tspan></text>
<text
       id="text48"
       style="font-style:italic;font-variant:normal;font-weight:normal;font-size:12px;font-family:CMMI10;-inkscape-font-specification:CMMI10;writing-mode:lr-tb;fill:#231f20;fill-opacity:1;fill-rule:nonzero;stroke:none"
       transform="matrix(0.99680833,0,0,-1,168.33274,58.6668)"><tspan
         id="tspan46"
         y="0"
         x="0">x</tspan></text>
<text
       id="text52"
       style="font-variant:normal;font-weight:normal;font-size:12px;font-family:CMR10;-inkscape-font-specification:CMR10;writing-mode:lr-tb;fill:#231f20;fill-opacity:1;fill-rule:nonzero;stroke:none"
       transform="matrix(0.99680833,0,0,-1,175.16287,58.6668)"><tspan
         id="tspan50"
         y="0"
         x="0">)</tspan></text>
<path
       id="path54"
       style="fill:#231f20;fill-opacity:1;fill-rule:nonzero;stroke:none"
       d="M 108.667,80.334 88.333,60.001" /><path
       id="path56"
       style="fill:none;stroke:#231f20;stroke-width:0.5;stroke-linecap:butt;stroke-linejoin:miter;stroke-miterlimit:4;stroke-dasharray:none;stroke-opacity:1"
       d="M 108.667,80.334 88.333,60.001" /><path
       id="path58"
       style="fill:#231f20;fill-opacity:1;fill-rule:nonzero;stroke:none"
       d="m 88.695,60.356 2.049,-0.499 -0.015,-0.072 -2.902,-1.252 c -0.883,-0.565 -1.766,-1.129 -2.649,-1.694 0.564,0.883 1.129,1.766 1.694,2.649 l 1.251,2.902 0.065,0.022 0.507,-2.056" /><path
       id="path60"
       style="fill:#231f20;fill-opacity:1;fill-rule:nonzero;stroke:none"
       d="M 33.333,13.668 V 75.334" /><path
       id="path62"
       style="fill:#231f20;fill-opacity:1;fill-rule:nonzero;stroke:none"
       d="M 108.667,13.668 V 64.334" /><g
       id="g64"><g
         clip-path="url(#clipPath70)"
         id="g66"><path
           id="path72"
           style="fill:none;stroke:#231f20;stroke-width:1;stroke-linecap:butt;stroke-linejoin:miter;stroke-miterlimit:4;stroke-dasharray:none;stroke-opacity:1"
           d="M 0,13 H 162.333" /></g></g><path
       id="path74"
       style="fill:#231f20;fill-opacity:1;fill-rule:nonzero;stroke:none"
       d="m 162.865,13 -1.314,2.163 0.073,0.048 3.525,-1.399 c 1.228,-0.271 2.457,-0.541 3.685,-0.812 -1.228,-0.269 -2.457,-0.54 -3.685,-0.81 l -3.525,-1.4 -0.073,0.036 1.314,2.174" /></g></svg>