<?xml version="1.0" encoding="UTF-8" standalone="no"?>
<svg
   xmlns:dc="http://purl.org/dc/elements/1.1/"
   xmlns:cc="http://creativecommons.org/ns#"
   xmlns:rdf="http://www.w3.org/1999/02/22-rdf-syntax-ns#"
   xmlns:svg="http://www.w3.org/2000/svg"
   xmlns="http://www.w3.org/2000/svg"
   viewBox="0 0 564 74.666664"
   height="74.666664"
   width="564"
   xml:space="preserve"
   id="svg2"
   version="1.1"><metadata
     id="metadata8"><rdf:RDF><cc:Work
         rdf:about=""><dc:format>image/svg+xml</dc:format><dc:type
           rdf:resource="http://purl.org/dc/dcmitype/StillImage" /></cc:Work></rdf:RDF></metadata><defs
     id="defs6"><clipPath
       id="clipPath24"
       clipPathUnits="userSpaceOnUse"><path
         id="path22"
         d="M 0,0 H 423 V 56 H 0 Z" /></clipPath><clipPath
       id="clipPath34"
       clipPathUnits="userSpaceOnUse"><path
         id="path32"
         d="M 0.06,0 H 422.57102 V 55.574001 H 0.06 Z" /></clipPath><clipPath
       id="clipPath64"
       clipPathUnits="userSpaceOnUse"><path
         id="path62"
         d="M 0.06,0 H 422.57102 V 55.574001 H 0.06 Z" /></clipPath><clipPath
       id="clipPath84"
       clipPathUnits="userSpaceOnUse"><path
         id="path82"
         d="M 0.06,0 H 422.57102 V 55.574001 H 0.06 Z" /></clipPath><clipPath
       id="clipPath116"
       clipPathUnits="userSpaceOnUse"><path
         id="path114"
         d="M 0.06,0 H 422.57102 V 55.574001 H 0.06 Z" /></clipPath><clipPath
       id="clipPath136"
       clipPathUnits="userSpaceOnUse"><path
         id="path134"
         d="M 0.06,0 H 422.57102 V 55.574001 H 0.06 Z" /></clipPath><clipPath
       id="clipPath168"
       clipPathUnits="userSpaceOnUse"><path
         id="path166"
         d="M 0.06,0 H 422.57102 V 55.574001 H 0.06 Z" /></clipPath><clipPath
       id="clipPath206"
       clipPathUnits="userSpaceOnUse"><path
         id="path204"
         d="M 0.06,0 H 422.57102 V 55.574001 H 0.06 Z" /></clipPath><clipPath
       id="clipPath234"
       clipPathUnits="userSpaceOnUse"><path
         id="path232"
         d="M 0.06,0 H 422.57102 V 55.574001 H 0.06 Z" /></clipPath><clipPath
       id="clipPath250"
       clipPathUnits="userSpaceOnUse"><path
         id="path248"
         d="M 0.06,0 H 422.57102 V 55.574001 H 0.06 Z" /></clipPath><clipPath
       id="clipPath274"
       clipPathUnits="userSpaceOnUse"><path
         id="path272"
         d="M 0.06,0 H 422.57102 V 55.574001 H 0.06 Z" /></clipPath><clipPath
       id="clipPath310"
       clipPathUnits="userSpaceOnUse"><path
         id="path308"
         d="M 0.06,0 H 422.57102 V 55.574001 H 0.06 Z" /></clipPath></defs><g
     transform="matrix(1.3333333,0,0,-1.3333333,0,74.666667)"
     id="g10"><g
       id="g12" /><g
       id="g14" /><g
       id="g16"><g
         id="g18"><g
           clip-path="url(#clipPath24)"
           id="g20"><g
             id="g26" /><g
             id="g28"><g
               clip-path="url(#clipPath34)"
               id="g30"><path
                 id="path36"
                 style="fill:none;stroke:#231f20;stroke-width:1;stroke-linecap:butt;stroke-linejoin:miter;stroke-miterlimit:4;stroke-dasharray:none;stroke-opacity:1"
                 d="M 309.49802,0.69999999 H 298.89801 V 47.100002 h 9 m -77.2,0 H 298.698 V 0.70000076 h -67.99999 z" /></g></g><g
             id="g38"><path
               id="path40"
               style="fill:#ffffff;fill-opacity:1;fill-rule:nonzero;stroke:none"
               d="m 295.76602,35.033001 h 5.599 v -21.6 h -5.599 z" /><path
               id="path42"
               style="fill:#ffffff;fill-opacity:1;fill-rule:nonzero;stroke:none"
               d="m 298.539,13.54 -8,3.839999 15.039,2.24 -15.35898,2.880001 15.35898,2.879999 -15.35898,2.56 15.35898,3.521003 -7.35898,3.198998" /><path
               id="path44"
               style="fill:none;stroke:#231f20;stroke-width:1;stroke-linecap:butt;stroke-linejoin:miter;stroke-miterlimit:4;stroke-dasharray:none;stroke-opacity:1"
               d="m 298.539,13.54 -8,3.839999 15.039,2.24 -15.35898,2.880001 15.35898,2.879999 -15.35898,2.56 15.35898,3.521003 -7.35898,3.198998" /><path
               id="path46"
               style="fill:#231f20;fill-opacity:1;fill-rule:nonzero;stroke:none"
               d="m 298.37802,35.461002 c 0.61899,0 1.12,-0.501999 1.12,-1.121002 0,-0.618999 -0.50101,-1.120003 -1.12,-1.120003 -0.61902,0 -1.11902,0.501004 -1.11902,1.120003 0,0.619003 0.5,1.121002 1.11902,1.121002" /><path
               id="path48"
               style="fill:none;stroke:#231f20;stroke-width:1;stroke-linecap:butt;stroke-linejoin:miter;stroke-miterlimit:4;stroke-dasharray:none;stroke-opacity:1"
               d="m 298.37802,35.461002 c 0.61899,0 1.12,-0.501999 1.12,-1.121002 0,-0.618999 -0.50101,-1.120003 -1.12,-1.120003 -0.61902,0 -1.11902,0.501004 -1.11902,1.120003 0,0.619003 0.5,1.121002 1.11902,1.121002 z" /><path
               id="path50"
               style="fill:#231f20;fill-opacity:1;fill-rule:nonzero;stroke:none"
               d="m 298.69803,14.98 c 0.61899,0 1.11999,-0.500999 1.11999,-1.12 0,-0.617999 -0.501,-1.12 -1.11999,-1.12 -0.61902,0 -1.12003,0.502001 -1.12003,1.12 0,0.619001 0.50101,1.12 1.12003,1.12" /><path
               id="path52"
               style="fill:none;stroke:#231f20;stroke-width:1;stroke-linecap:butt;stroke-linejoin:miter;stroke-miterlimit:4;stroke-dasharray:none;stroke-opacity:1"
               d="m 298.69803,14.98 c 0.61899,0 1.11999,-0.500999 1.11999,-1.12 0,-0.617999 -0.501,-1.12 -1.11999,-1.12 -0.61902,0 -1.12003,0.502001 -1.12003,1.12 0,0.619001 0.50101,1.12 1.12003,1.12 z" /><path
               id="path54"
               style="fill:#ffffff;fill-opacity:1;fill-rule:nonzero;stroke:none"
               d="m 255.16501,49.767002 h 21.60101 v -5.599998 h -21.60101 z" /><path
               id="path56"
               style="fill:#ffffff;fill-opacity:1;fill-rule:nonzero;stroke:none"
               d="m 276.65802,46.939999 -3.84,-8 L 270.578,53.98 267.698,38.621002 264.81802,53.98 262.259,38.621002 258.73801,53.98 l -3.2,-7.358998" /></g><g
             id="g58"><g
               clip-path="url(#clipPath64)"
               id="g60"><path
                 id="path66"
                 style="fill:none;stroke:#231f20;stroke-width:1;stroke-linecap:butt;stroke-linejoin:miter;stroke-miterlimit:4;stroke-dasharray:none;stroke-opacity:1"
                 d="m 276.65802,46.939999 -3.84,-8 L 270.578,53.98 267.698,38.621002 264.81802,53.98 262.259,38.621002 258.73801,53.98 l -3.2,-7.358998" /></g></g><g
             id="g68"><path
               id="path70"
               style="fill:#231f20;fill-opacity:1;fill-rule:nonzero;stroke:none"
               d="m 254.73801,46.779999 c 0,0.619003 0.501,1.120003 1.12001,1.120003 0.62001,0 1.12001,-0.501 1.12001,-1.120003 0,-0.617996 -0.5,-1.119999 -1.12001,-1.119999 -0.61901,0 -1.12001,0.502003 -1.12001,1.119999" /><path
               id="path72"
               style="fill:none;stroke:#231f20;stroke-width:1;stroke-linecap:butt;stroke-linejoin:miter;stroke-miterlimit:4;stroke-dasharray:none;stroke-opacity:1"
               d="m 254.73801,46.779999 c 0,0.619003 0.501,1.120003 1.12001,1.120003 0.62001,0 1.12001,-0.501 1.12001,-1.120003 0,-0.617996 -0.5,-1.119999 -1.12001,-1.119999 -0.61901,0 -1.12001,0.502003 -1.12001,1.119999 z" /><path
               id="path74"
               style="fill:#231f20;fill-opacity:1;fill-rule:nonzero;stroke:none"
               d="m 275.21902,47.100002 c 0,0.619 0.50098,1.119995 1.11899,1.119995 0.61899,0 1.12,-0.500995 1.12,-1.119995 0,-0.618 -0.50101,-1.120002 -1.12,-1.120002 -0.61801,0 -1.11899,0.502002 -1.11899,1.120002" /><path
               id="path76"
               style="fill:none;stroke:#231f20;stroke-width:1;stroke-linecap:butt;stroke-linejoin:miter;stroke-miterlimit:4;stroke-dasharray:none;stroke-opacity:1"
               d="m 275.21902,47.100002 c 0,0.619 0.50098,1.119995 1.11899,1.119995 0.61899,0 1.12,-0.500995 1.12,-1.119995 0,-0.618 -0.50101,-1.120002 -1.12,-1.120002 -0.61801,0 -1.11899,0.502002 -1.11899,1.120002 z M 257.936,29.863001 c 2.37,2.371 5.64502,3.837 9.262,3.837 7.23501,0 13.1,-5.865 13.1,-13.100001 0,-7.234999 -5.86499,-13.1 -13.1,-13.1 -2.71298,0 -5.23297,0.8250008 -7.32498,2.2380009" /></g><g
             id="g78"><g
               clip-path="url(#clipPath84)"
               id="g80"><path
                 id="path86"
                 style="fill:#231f20;fill-opacity:1;fill-rule:nonzero;stroke:none"
                 d="m 257.849,10.116 c 0.87302,-1.0719994 1.37903,-1.8579996 2.01901,-2.8039997 L 262.12802,10.656 c -0.41601,0.062 -2.03601,0.417001 -3.35602,0.826 -1.41299,0.438 -2.63998,0.914001 -3.38798,1.294001 0.632,-0.552 1.53099,-1.514001 2.46498,-2.660001" /><path
                 id="path88"
                 style="fill:none;stroke:#231f20;stroke-width:1;stroke-linecap:butt;stroke-linejoin:miter;stroke-miterlimit:4;stroke-dasharray:none;stroke-opacity:1"
                 d="m 152.69801,0.69999999 h -10.8 V 47.100002 h 9.99899 m 20.80101,0 h 58 V 0.69999999 H 173.498" /></g></g><g
             id="g90"><path
               id="path92"
               style="fill:#ffffff;fill-opacity:1;fill-rule:nonzero;stroke:none"
               d="m 227.76601,35.033001 h 5.599 v -21.6 h -5.599 z" /><path
               id="path94"
               style="fill:#ffffff;fill-opacity:1;fill-rule:nonzero;stroke:none"
               d="m 230.53902,13.54 -8,3.839999 15.039,2.24 -15.35901,2.880001 15.35901,2.879999 -15.35901,2.56 15.35901,3.521003 -7.35901,3.198998" /><path
               id="path96"
               style="fill:none;stroke:#231f20;stroke-width:1;stroke-linecap:butt;stroke-linejoin:miter;stroke-miterlimit:4;stroke-dasharray:none;stroke-opacity:1"
               d="m 230.53902,13.54 -8,3.839999 15.039,2.24 -15.35901,2.880001 15.35901,2.879999 -15.35901,2.56 15.35901,3.521003 -7.35901,3.198998" /><path
               id="path98"
               style="fill:#231f20;fill-opacity:1;fill-rule:nonzero;stroke:none"
               d="m 230.37801,35.461002 c 0.619,0 1.12001,-0.501999 1.12001,-1.121002 0,-0.618999 -0.50101,-1.120003 -1.12001,-1.120003 -0.61899,0 -1.11899,0.501004 -1.11899,1.120003 0,0.619003 0.5,1.121002 1.11899,1.121002" /><path
               id="path100"
               style="fill:none;stroke:#231f20;stroke-width:1;stroke-linecap:butt;stroke-linejoin:miter;stroke-miterlimit:4;stroke-dasharray:none;stroke-opacity:1"
               d="m 230.37801,35.461002 c 0.619,0 1.12001,-0.501999 1.12001,-1.121002 0,-0.618999 -0.50101,-1.120003 -1.12001,-1.120003 -0.61899,0 -1.11899,0.501004 -1.11899,1.120003 0,0.619003 0.5,1.121002 1.11899,1.121002 z" /><path
               id="path102"
               style="fill:#231f20;fill-opacity:1;fill-rule:nonzero;stroke:none"
               d="m 230.69801,14.98 c 0.61901,0 1.12,-0.500999 1.12,-1.12 0,-0.617999 -0.50099,-1.12 -1.12,-1.12 -0.619,0 -1.11999,0.502001 -1.11999,1.12 0,0.619001 0.50099,1.12 1.11999,1.12" /><path
               id="path104"
               style="fill:none;stroke:#231f20;stroke-width:1;stroke-linecap:butt;stroke-linejoin:miter;stroke-miterlimit:4;stroke-dasharray:none;stroke-opacity:1"
               d="m 230.69801,14.98 c 0.61901,0 1.12,-0.500999 1.12,-1.12 0,-0.617999 -0.50099,-1.12 -1.12,-1.12 -0.619,0 -1.11999,0.502001 -1.11999,1.12 0,0.619001 0.50099,1.12 1.11999,1.12 z" /><path
               id="path106"
               style="fill:#ffffff;fill-opacity:1;fill-rule:nonzero;stroke:none"
               d="m 187.16501,49.767002 h 21.601 v -5.599998 h -21.601 z" /><path
               id="path108"
               style="fill:#ffffff;fill-opacity:1;fill-rule:nonzero;stroke:none"
               d="m 208.658,46.939999 -3.83999,-8 L 202.578,53.98 199.69801,38.621002 196.81801,53.98 194.259,38.621002 190.73801,53.98 l -3.2,-7.358998" /></g><g
             id="g110"><g
               clip-path="url(#clipPath116)"
               id="g112"><path
                 id="path118"
                 style="fill:none;stroke:#231f20;stroke-width:1;stroke-linecap:butt;stroke-linejoin:miter;stroke-miterlimit:4;stroke-dasharray:none;stroke-opacity:1"
                 d="m 208.658,46.939999 -3.83999,-8 L 202.578,53.98 199.69801,38.621002 196.81801,53.98 194.259,38.621002 190.73801,53.98 l -3.2,-7.358998" /></g></g><g
             id="g120"><path
               id="path122"
               style="fill:#231f20;fill-opacity:1;fill-rule:nonzero;stroke:none"
               d="m 186.73801,46.779999 c 0,0.619003 0.501,1.120003 1.11999,1.120003 0.62001,0 1.12001,-0.501 1.12001,-1.120003 0,-0.617996 -0.5,-1.119999 -1.12001,-1.119999 -0.61899,0 -1.11999,0.502003 -1.11999,1.119999" /><path
               id="path124"
               style="fill:none;stroke:#231f20;stroke-width:1;stroke-linecap:butt;stroke-linejoin:miter;stroke-miterlimit:4;stroke-dasharray:none;stroke-opacity:1"
               d="m 186.73801,46.779999 c 0,0.619003 0.501,1.120003 1.11999,1.120003 0.62001,0 1.12001,-0.501 1.12001,-1.120003 0,-0.617996 -0.5,-1.119999 -1.12001,-1.119999 -0.61899,0 -1.11999,0.502003 -1.11999,1.119999 z" /><path
               id="path126"
               style="fill:#231f20;fill-opacity:1;fill-rule:nonzero;stroke:none"
               d="m 207.21901,47.100002 c 0,0.619 0.50099,1.119995 1.119,1.119995 0.61901,0 1.12,-0.500995 1.12,-1.119995 0,-0.618 -0.50099,-1.120002 -1.12,-1.120002 -0.61801,0 -1.119,0.502002 -1.119,1.120002" /><path
               id="path128"
               style="fill:none;stroke:#231f20;stroke-width:1;stroke-linecap:butt;stroke-linejoin:miter;stroke-miterlimit:4;stroke-dasharray:none;stroke-opacity:1"
               d="m 207.21901,47.100002 c 0,0.619 0.50099,1.119995 1.119,1.119995 0.61901,0 1.12,-0.500995 1.12,-1.119995 0,-0.618 -0.50099,-1.120002 -1.12,-1.120002 -0.61801,0 -1.119,0.502002 -1.119,1.120002 z M 189.936,29.863001 c 2.37002,2.371 5.64501,3.837 9.26201,3.837 7.235,0 13.09999,-5.865 13.09999,-13.100001 0,-7.234999 -5.86499,-13.1 -13.09999,-13.1 -2.71299,0 -5.233,0.8250008 -7.32499,2.2380009" /></g><g
             id="g130"><g
               clip-path="url(#clipPath136)"
               id="g132"><path
                 id="path138"
                 style="fill:#231f20;fill-opacity:1;fill-rule:nonzero;stroke:none"
                 d="m 189.84901,10.116 c 0.87301,-1.0719994 1.379,-1.8579996 2.019,-2.8039997 l 2.26,3.3439997 c -0.416,0.062 -2.036,0.417001 -3.35601,0.826 -1.41299,0.438 -2.64,0.914001 -3.388,1.294001 0.63201,-0.552 1.53101,-1.514001 2.46501,-2.660001" /><path
                 id="path140"
                 style="fill:none;stroke:#231f20;stroke-width:1;stroke-linecap:butt;stroke-linejoin:miter;stroke-miterlimit:4;stroke-dasharray:none;stroke-opacity:1"
                 d="M 74.498001,47.100002 H 142.498 V 0.70000076 H 74.498001 Z m -67.4000005,-0.2 H 75.098 V 0.5 H 7.0980005 Z" /></g></g><g
             id="g142"><path
               id="path144"
               style="fill:#ffffff;fill-opacity:1;fill-rule:nonzero;stroke:none"
               d="m 72.165001,35.433002 h 5.599998 v -21.6 h -5.599998 z" /><path
               id="path146"
               style="fill:#ffffff;fill-opacity:1;fill-rule:nonzero;stroke:none"
               d="m 74.938004,13.94 -8,3.839999 15.04,2.240001 -15.36,2.88 15.36,2.879999 -15.36,2.560001 15.36,3.519999 -7.36,3.199999" /><path
               id="path148"
               style="fill:none;stroke:#231f20;stroke-width:1;stroke-linecap:butt;stroke-linejoin:miter;stroke-miterlimit:4;stroke-dasharray:none;stroke-opacity:1"
               d="m 74.938004,13.94 -8,3.839999 15.04,2.240001 -15.36,2.88 15.36,2.879999 -15.36,2.560001 15.36,3.519999 -7.36,3.199999" /><path
               id="path150"
               style="fill:#231f20;fill-opacity:1;fill-rule:nonzero;stroke:none"
               d="m 74.778,35.860001 c 0.619003,0 1.120003,-0.501 1.120003,-1.120003 0,-0.618996 -0.501,-1.119999 -1.120003,-1.119999 -0.618996,0 -1.119995,0.501003 -1.119995,1.119999 0,0.619003 0.500999,1.120003 1.119995,1.120003" /><path
               id="path152"
               style="fill:none;stroke:#231f20;stroke-width:1;stroke-linecap:butt;stroke-linejoin:miter;stroke-miterlimit:4;stroke-dasharray:none;stroke-opacity:1"
               d="m 74.778,35.860001 c 0.619003,0 1.120003,-0.501 1.120003,-1.120003 0,-0.618996 -0.501,-1.119999 -1.120003,-1.119999 -0.618996,0 -1.119995,0.501003 -1.119995,1.119999 0,0.619003 0.500999,1.120003 1.119995,1.120003 z" /><path
               id="path154"
               style="fill:#231f20;fill-opacity:1;fill-rule:nonzero;stroke:none"
               d="m 75.098007,15.38 c 0.617996,0 1.119995,-0.500999 1.119995,-1.120001 0,-0.617999 -0.501999,-1.12 -1.119995,-1.12 -0.619003,0 -1.120003,0.502001 -1.120003,1.12 0,0.619002 0.501,1.120001 1.120003,1.120001" /><path
               id="path156"
               style="fill:none;stroke:#231f20;stroke-width:1;stroke-linecap:butt;stroke-linejoin:miter;stroke-miterlimit:4;stroke-dasharray:none;stroke-opacity:1"
               d="m 75.098007,15.38 c 0.617996,0 1.119995,-0.500999 1.119995,-1.120001 0,-0.617999 -0.501999,-1.12 -1.119995,-1.12 -0.619003,0 -1.120003,0.502001 -1.120003,1.12 0,0.619002 0.501,1.120001 1.120003,1.120001 z" /><path
               id="path158"
               style="fill:#ffffff;fill-opacity:1;fill-rule:nonzero;stroke:none"
               d="M 28.964001,49.567001 H 50.564003 V 43.967002 H 28.964001 Z" /><path
               id="path160"
               style="fill:#ffffff;fill-opacity:1;fill-rule:nonzero;stroke:none"
               d="m 50.458004,46.739998 -3.84,-8 L 44.378002,53.779999 41.498001,38.419998 38.618,53.779999 36.058002,38.419998 l -3.52,15.360001 -3.200001,-7.360001" /></g><g
             id="g162"><g
               clip-path="url(#clipPath168)"
               id="g164"><path
                 id="path170"
                 style="fill:none;stroke:#231f20;stroke-width:1;stroke-linecap:butt;stroke-linejoin:miter;stroke-miterlimit:4;stroke-dasharray:none;stroke-opacity:1"
                 d="m 50.458004,46.739998 -3.84,-8 L 44.378002,53.779999 41.498001,38.419998 38.618,53.779999 36.058002,38.419998 l -3.52,15.360001 -3.200001,-7.360001" /></g></g><g
             id="g172"><path
               id="path174"
               style="fill:#231f20;fill-opacity:1;fill-rule:nonzero;stroke:none"
               d="m 28.538002,46.579998 c 0,0.619003 0.500999,1.120003 1.119999,1.120003 0.619001,0 1.120001,-0.501 1.120001,-1.120003 0,-0.618996 -0.501,-1.118996 -1.120001,-1.118996 -0.619,0 -1.119999,0.5 -1.119999,1.118996" /><path
               id="path176"
               style="fill:none;stroke:#231f20;stroke-width:1;stroke-linecap:butt;stroke-linejoin:miter;stroke-miterlimit:4;stroke-dasharray:none;stroke-opacity:1"
               d="m 28.538002,46.579998 c 0,0.619003 0.500999,1.120003 1.119999,1.120003 0.619001,0 1.120001,-0.501 1.120001,-1.120003 0,-0.618996 -0.501,-1.118996 -1.120001,-1.118996 -0.619,0 -1.119999,0.5 -1.119999,1.118996 z" /><path
               id="path178"
               style="fill:#231f20;fill-opacity:1;fill-rule:nonzero;stroke:none"
               d="m 49.018002,46.900002 c 0,0.618999 0.500999,1.121002 1.119998,1.121002 0.618001,0 1.120003,-0.502003 1.120003,-1.121002 0,-0.619 -0.502002,-1.120003 -1.120003,-1.120003 -0.618999,0 -1.119998,0.501003 -1.119998,1.120003" /><path
               id="path180"
               style="fill:none;stroke:#231f20;stroke-width:1;stroke-linecap:butt;stroke-linejoin:miter;stroke-miterlimit:4;stroke-dasharray:none;stroke-opacity:1"
               d="m 49.018002,46.900002 c 0,0.618999 0.500999,1.121002 1.119998,1.121002 0.618001,0 1.120003,-0.502003 1.120003,-1.121002 0,-0.619 -0.502002,-1.120003 -1.120003,-1.120003 -0.618999,0 -1.119998,0.501003 -1.119998,1.120003 z" /><path
               id="path182"
               style="fill:#ffffff;fill-opacity:1;fill-rule:nonzero;stroke:none"
               d="m 139.565,35.033001 h 5.60001 v -21.6 H 139.565 Z" /><path
               id="path184"
               style="fill:#ffffff;fill-opacity:1;fill-rule:nonzero;stroke:none"
               d="m 142.33801,13.54 -8,3.839999 15.04,2.24 -15.359,2.880001 15.359,2.879999 -15.359,2.56 15.359,3.521003 -7.359,3.198998" /><path
               id="path186"
               style="fill:none;stroke:#231f20;stroke-width:1;stroke-linecap:butt;stroke-linejoin:miter;stroke-miterlimit:4;stroke-dasharray:none;stroke-opacity:1"
               d="m 142.33801,13.54 -8,3.839999 15.04,2.24 -15.359,2.880001 15.359,2.879999 -15.359,2.56 15.359,3.521003 -7.359,3.198998" /><path
               id="path188"
               style="fill:#231f20;fill-opacity:1;fill-rule:nonzero;stroke:none"
               d="m 142.17801,35.461002 c 0.619,0 1.11999,-0.501999 1.11999,-1.121002 0,-0.618999 -0.50099,-1.120003 -1.11999,-1.120003 -0.61801,0 -1.119,0.501004 -1.119,1.120003 0,0.619003 0.50099,1.121002 1.119,1.121002" /><path
               id="path190"
               style="fill:none;stroke:#231f20;stroke-width:1;stroke-linecap:butt;stroke-linejoin:miter;stroke-miterlimit:4;stroke-dasharray:none;stroke-opacity:1"
               d="m 142.17801,35.461002 c 0.619,0 1.11999,-0.501999 1.11999,-1.121002 0,-0.618999 -0.50099,-1.120003 -1.11999,-1.120003 -0.61801,0 -1.119,0.501004 -1.119,1.120003 0,0.619003 0.50099,1.121002 1.119,1.121002 z" /><path
               id="path192"
               style="fill:#231f20;fill-opacity:1;fill-rule:nonzero;stroke:none"
               d="m 142.498,14.98 c 0.619,0 1.121,-0.500999 1.121,-1.12 0,-0.617999 -0.502,-1.12 -1.121,-1.12 -0.61899,0 -1.11999,0.502001 -1.11999,1.12 0,0.619001 0.501,1.12 1.11999,1.12" /><path
               id="path194"
               style="fill:none;stroke:#231f20;stroke-width:1;stroke-linecap:butt;stroke-linejoin:miter;stroke-miterlimit:4;stroke-dasharray:none;stroke-opacity:1"
               d="m 142.498,14.98 c 0.619,0 1.121,-0.500999 1.121,-1.12 0,-0.617999 -0.502,-1.12 -1.121,-1.12 -0.61899,0 -1.11999,0.502001 -1.11999,1.12 0,0.619001 0.501,1.12 1.11999,1.12 z" /><path
               id="path196"
               style="fill:#ffffff;fill-opacity:1;fill-rule:nonzero;stroke:none"
               d="M 98.964005,49.767002 H 120.565 V 44.167004 H 98.964005 Z" /><path
               id="path198"
               style="fill:#ffffff;fill-opacity:1;fill-rule:nonzero;stroke:none"
               d="m 120.45901,46.939999 -3.84101,-8 L 114.37801,53.98 111.49801,38.621002 108.618,53.98 106.05901,38.621002 102.538,53.98 99.337006,46.621002" /></g><g
             id="g200"><g
               clip-path="url(#clipPath206)"
               id="g202"><path
                 id="path208"
                 style="fill:none;stroke:#231f20;stroke-width:1;stroke-linecap:butt;stroke-linejoin:miter;stroke-miterlimit:4;stroke-dasharray:none;stroke-opacity:1"
                 d="m 120.45901,46.939999 -3.84101,-8 L 114.37801,53.98 111.49801,38.621002 108.618,53.98 106.05901,38.621002 102.538,53.98 99.337006,46.621002" /></g></g><g
             id="g210"><path
               id="path212"
               style="fill:#231f20;fill-opacity:1;fill-rule:nonzero;stroke:none"
               d="m 98.538002,46.779999 c 0,0.619003 0.500999,1.120003 1.120003,1.120003 0.619005,0 1.120005,-0.501 1.120005,-1.120003 0,-0.617996 -0.501,-1.119999 -1.120005,-1.119999 -0.619004,0 -1.120003,0.502003 -1.120003,1.119999" /><path
               id="path214"
               style="fill:none;stroke:#231f20;stroke-width:1;stroke-linecap:butt;stroke-linejoin:miter;stroke-miterlimit:4;stroke-dasharray:none;stroke-opacity:1"
               d="m 98.538002,46.779999 c 0,0.619003 0.500999,1.120003 1.120003,1.120003 0.619005,0 1.120005,-0.501 1.120005,-1.120003 0,-0.617996 -0.501,-1.119999 -1.120005,-1.119999 -0.619004,0 -1.120003,0.502003 -1.120003,1.119999 z" /><path
               id="path216"
               style="fill:#231f20;fill-opacity:1;fill-rule:nonzero;stroke:none"
               d="m 119.01801,47.100002 c 0,0.619 0.50199,1.119995 1.12,1.119995 0.61899,0 1.11999,-0.500995 1.11999,-1.119995 0,-0.618 -0.501,-1.120002 -1.11999,-1.120002 -0.61801,0 -1.12,0.502002 -1.12,1.120002" /><path
               id="path218"
               style="fill:none;stroke:#231f20;stroke-width:1;stroke-linecap:butt;stroke-linejoin:miter;stroke-miterlimit:4;stroke-dasharray:none;stroke-opacity:1"
               d="m 119.01801,47.100002 c 0,0.619 0.50199,1.119995 1.12,1.119995 0.61899,0 1.11999,-0.500995 1.11999,-1.119995 0,-0.618 -0.501,-1.120002 -1.11999,-1.120002 -0.61801,0 -1.12,0.502002 -1.12,1.120002 z m -17.283,-17.237001 c 2.37099,2.371 5.64599,3.837 9.263,3.837 7.235,0 13.1,-5.865 13.1,-13.100001 0,-7.234999 -5.865,-13.1 -13.1,-13.1 -2.71301,0 -5.233,0.8250008 -7.32401,2.2380009" /><path
               id="path220"
               style="fill:#231f20;fill-opacity:1;fill-rule:nonzero;stroke:none"
               d="m 101.649,10.116 c 0.873,-1.0719994 1.37901,-1.8579996 2.01901,-2.8039997 L 105.928,10.656 c -0.41599,0.062 -2.03599,0.417001 -3.35599,0.826 C 101.16,11.92 99.931007,12.396001 99.183006,12.776001 99.815002,12.224001 100.715,11.262 101.649,10.116" /><path
               id="path222"
               style="fill:none;stroke:#231f20;stroke-width:1;stroke-linecap:butt;stroke-linejoin:miter;stroke-miterlimit:4;stroke-dasharray:none;stroke-opacity:1"
               d="m 30.335001,30.863001 c 2.371,2.371 5.646002,3.837 9.263002,3.837 7.235001,0 13.099999,-5.865 13.099999,-13.100001 0,-7.234999 -5.864998,-13.1 -13.099999,-13.1 -2.713001,0 -5.234001,0.8250008 -7.325,2.238001" /><path
               id="path224"
               style="fill:#231f20;fill-opacity:1;fill-rule:nonzero;stroke:none"
               d="m 30.249001,11.116 c 0.872001,-1.071 1.379001,-1.8579996 2.019001,-2.8039997 L 34.527,11.656 c -0.416,0.062 -2.035999,0.417001 -3.355999,0.826 -1.412,0.438 -2.639999,0.914001 -3.388,1.294001 0.632,-0.552 1.531,-1.514 2.466,-2.660001" /><path
               id="path226"
               style="fill:#ffffff;fill-opacity:1;fill-rule:nonzero;stroke:none"
               d="M 13.298,24.300001 C 13.298,20.765001 10.433001,17.9 6.8980002,17.9 c -3.535,0 -6.40000017,2.865001 -6.40000017,6.400001 0,3.535 2.86500017,6.4 6.40000017,6.4 3.5350008,0 6.3999998,-2.865 6.3999998,-6.4" /></g><g
             id="g228"><g
               clip-path="url(#clipPath234)"
               id="g230"><path
                 id="path236"
                 style="fill:none;stroke:#231f20;stroke-width:1;stroke-linecap:butt;stroke-linejoin:miter;stroke-miterlimit:4;stroke-dasharray:none;stroke-opacity:1"
                 d="M 13.298,24.300001 C 13.298,20.765001 10.433001,17.9 6.8980002,17.9 c -3.535,0 -6.40000017,2.865001 -6.40000017,6.400001 0,3.535 2.86500017,6.4 6.40000017,6.4 3.5350008,0 6.3999998,-2.865 6.3999998,-6.4 z m 332.80103,22.800001 h 68 V 0.70000076 h -68 z" /></g></g><g
             id="g238"><path
               id="path240"
               style="fill:#ffffff;fill-opacity:1;fill-rule:nonzero;stroke:none"
               d="m 411.16501,35.033001 h 5.60101 v -21.6 h -5.60101 z" /><path
               id="path242"
               style="fill:#ffffff;fill-opacity:1;fill-rule:nonzero;stroke:none"
               d="m 413.93802,13.54 -8,3.839999 15.04001,2.24 -15.36002,2.880001 15.36002,2.879999 -15.36002,2.56 15.36002,3.521003 -7.36002,3.198998" /></g><g
             id="g244"><g
               clip-path="url(#clipPath250)"
               id="g246"><path
                 id="path252"
                 style="fill:none;stroke:#231f20;stroke-width:1;stroke-linecap:butt;stroke-linejoin:miter;stroke-miterlimit:4;stroke-dasharray:none;stroke-opacity:1"
                 d="m 413.93802,13.54 -8,3.839999 15.04001,2.24 -15.36002,2.880001 15.36002,2.879999 -15.36002,2.56 15.36002,3.521003 -7.36002,3.198998" /></g></g><g
             id="g254"><path
               id="path256"
               style="fill:#231f20;fill-opacity:1;fill-rule:nonzero;stroke:none"
               d="m 413.77802,35.461002 c 0.61801,0 1.11999,-0.501999 1.11999,-1.121002 0,-0.618999 -0.50198,-1.120003 -1.11999,-1.120003 -0.61899,0 -1.12,0.501004 -1.12,1.120003 0,0.619003 0.50101,1.121002 1.12,1.121002" /><path
               id="path258"
               style="fill:none;stroke:#231f20;stroke-width:1;stroke-linecap:butt;stroke-linejoin:miter;stroke-miterlimit:4;stroke-dasharray:none;stroke-opacity:1"
               d="m 413.77802,35.461002 c 0.61801,0 1.11999,-0.501999 1.11999,-1.121002 0,-0.618999 -0.50198,-1.120003 -1.11999,-1.120003 -0.61899,0 -1.12,0.501004 -1.12,1.120003 0,0.619003 0.50101,1.121002 1.12,1.121002 z" /><path
               id="path260"
               style="fill:#231f20;fill-opacity:1;fill-rule:nonzero;stroke:none"
               d="m 414.09903,14.98 c 0.61798,0 1.11999,-0.500999 1.11999,-1.12 0,-0.617999 -0.50201,-1.12 -1.11999,-1.12 -0.61905,0 -1.121,0.502001 -1.121,1.12 0,0.619001 0.50195,1.12 1.121,1.12" /><path
               id="path262"
               style="fill:none;stroke:#231f20;stroke-width:1;stroke-linecap:butt;stroke-linejoin:miter;stroke-miterlimit:4;stroke-dasharray:none;stroke-opacity:1"
               d="m 414.09903,14.98 c 0.61798,0 1.11999,-0.500999 1.11999,-1.12 0,-0.617999 -0.50201,-1.12 -1.11999,-1.12 -0.61905,0 -1.121,0.502001 -1.121,1.12 0,0.619001 0.50195,1.12 1.121,1.12 z" /><path
               id="path264"
               style="fill:#ffffff;fill-opacity:1;fill-rule:nonzero;stroke:none"
               d="m 370.565,49.767002 h 21.60001 V 44.167004 H 370.565 Z" /><path
               id="path266"
               style="fill:#ffffff;fill-opacity:1;fill-rule:nonzero;stroke:none"
               d="m 392.05902,46.939999 -3.84,-8 L 385.97803,53.98 383.09903,38.621002 380.21902,53.98 377.65802,38.621002 374.13803,53.98 370.93802,46.621002" /></g><g
             id="g268"><g
               clip-path="url(#clipPath274)"
               id="g270"><path
                 id="path276"
                 style="fill:none;stroke:#231f20;stroke-width:1;stroke-linecap:butt;stroke-linejoin:miter;stroke-miterlimit:4;stroke-dasharray:none;stroke-opacity:1"
                 d="m 392.05902,46.939999 -3.84,-8 L 385.97803,53.98 383.09903,38.621002 380.21902,53.98 377.65802,38.621002 374.13803,53.98 370.93802,46.621002" /></g></g><g
             id="g278"><path
               id="path280"
               style="fill:#231f20;fill-opacity:1;fill-rule:nonzero;stroke:none"
               d="m 370.13803,46.779999 c 0,0.619003 0.50195,1.120003 1.12097,1.120003 0.61801,0 1.11902,-0.501 1.11902,-1.120003 0,-0.617996 -0.50101,-1.119999 -1.11902,-1.119999 -0.61902,0 -1.12097,0.502003 -1.12097,1.119999" /><path
               id="path282"
               style="fill:none;stroke:#231f20;stroke-width:1;stroke-linecap:butt;stroke-linejoin:miter;stroke-miterlimit:4;stroke-dasharray:none;stroke-opacity:1"
               d="m 370.13803,46.779999 c 0,0.619003 0.50195,1.120003 1.12097,1.120003 0.61801,0 1.11902,-0.501 1.11902,-1.120003 0,-0.617996 -0.50101,-1.119999 -1.11902,-1.119999 -0.61902,0 -1.12097,0.502003 -1.12097,1.119999 z" /><path
               id="path284"
               style="fill:#231f20;fill-opacity:1;fill-rule:nonzero;stroke:none"
               d="m 390.61801,47.100002 c 0,0.619 0.50101,1.119995 1.12,1.119995 0.61801,0 1.12002,-0.500995 1.12002,-1.119995 0,-0.618 -0.50201,-1.120002 -1.12002,-1.120002 -0.61899,0 -1.12,0.502002 -1.12,1.120002" /><path
               id="path286"
               style="fill:none;stroke:#231f20;stroke-width:1;stroke-linecap:butt;stroke-linejoin:miter;stroke-miterlimit:4;stroke-dasharray:none;stroke-opacity:1"
               d="m 390.61801,47.100002 c 0,0.619 0.50101,1.119995 1.12,1.119995 0.61801,0 1.12002,-0.500995 1.12002,-1.119995 0,-0.618 -0.50201,-1.120002 -1.12002,-1.120002 -0.61899,0 -1.12,0.502002 -1.12,1.120002 z M 373.33603,29.863001 c 2.36999,2.371 5.64499,3.837 9.263,3.837 7.23398,0 13.099,-5.865 13.099,-13.100001 0,-7.234999 -5.86502,-13.1 -13.099,-13.1 -2.71301,0 -5.23502,0.8250008 -7.32602,2.2380009" /><path
               id="path288"
               style="fill:#231f20;fill-opacity:1;fill-rule:nonzero;stroke:none"
               d="m 373.24902,10.116 c 0.87299,-1.0719994 1.379,-1.8579996 2.01999,-2.8039997 L 377.52802,10.656 c -0.41599,0.062 -2.03602,0.417001 -3.35599,0.826 -1.41303,0.438 -2.64002,0.914001 -3.388,1.294001 0.63098,-0.552 1.53097,-1.514001 2.46499,-2.660001" /><path
               id="path290"
               style="fill:#ffffff;fill-opacity:1;fill-rule:nonzero;stroke:none"
               d="m 342.966,35.033001 h 5.599 v -21.6 h -5.599 z" /><path
               id="path292"
               style="fill:#ffffff;fill-opacity:1;fill-rule:nonzero;stroke:none"
               d="m 345.73901,13.54 -8,3.839999 15.03901,2.24 -15.35901,2.880001 15.35901,2.879999 -15.35901,2.56 15.35901,3.521003 -7.35901,3.198998" /><path
               id="path294"
               style="fill:none;stroke:#231f20;stroke-width:1;stroke-linecap:butt;stroke-linejoin:miter;stroke-miterlimit:4;stroke-dasharray:none;stroke-opacity:1"
               d="m 345.73901,13.54 -8,3.839999 15.03901,2.24 -15.35901,2.880001 15.35901,2.879999 -15.35901,2.56 15.35901,3.521003 -7.35901,3.198998" /><path
               id="path296"
               style="fill:#231f20;fill-opacity:1;fill-rule:nonzero;stroke:none"
               d="m 345.578,35.461002 c 0.61801,0 1.12003,-0.501999 1.12003,-1.121002 0,-0.618999 -0.50202,-1.120003 -1.12003,-1.120003 -0.61899,0 -1.11999,0.501004 -1.11999,1.120003 0,0.619003 0.501,1.121002 1.11999,1.121002" /><path
               id="path298"
               style="fill:none;stroke:#231f20;stroke-width:1;stroke-linecap:butt;stroke-linejoin:miter;stroke-miterlimit:4;stroke-dasharray:none;stroke-opacity:1"
               d="m 345.578,35.461002 c 0.61801,0 1.12003,-0.501999 1.12003,-1.121002 0,-0.618999 -0.50202,-1.120003 -1.12003,-1.120003 -0.61899,0 -1.11999,0.501004 -1.11999,1.120003 0,0.619003 0.501,1.121002 1.11999,1.121002 z" /><path
               id="path300"
               style="fill:#231f20;fill-opacity:1;fill-rule:nonzero;stroke:none"
               d="m 345.89801,14.98 c 0.61902,0 1.121,-0.500999 1.121,-1.12 0,-0.617999 -0.50198,-1.12 -1.121,-1.12 -0.61899,0 -1.11999,0.502001 -1.11999,1.12 0,0.619001 0.501,1.12 1.11999,1.12" /><path
               id="path302"
               style="fill:none;stroke:#231f20;stroke-width:1;stroke-linecap:butt;stroke-linejoin:miter;stroke-miterlimit:4;stroke-dasharray:none;stroke-opacity:1"
               d="m 345.89801,14.98 c 0.61902,0 1.121,-0.500999 1.121,-1.12 0,-0.617999 -0.50198,-1.12 -1.121,-1.12 -0.61899,0 -1.11999,0.502001 -1.11999,1.12 0,0.619001 0.501,1.12 1.11999,1.12 z" /></g><g
             id="g304"><g
               clip-path="url(#clipPath310)"
               id="g306"><path
                 id="path312"
                 style="fill:none;stroke:#231f20;stroke-width:1;stroke-linecap:butt;stroke-linejoin:miter;stroke-miterlimit:4;stroke-dasharray:3, 3, 3, 3, 3, 3;stroke-dashoffset:0;stroke-opacity:1"
                 d="m 151.89801,47.100002 h 21.201 M 152.298,0.69999999 h 21.2 M 308.09903,47.100002 H 329.298 M 309.49802,0.69999999 h 21.20001" /><path
                 id="path314"
                 style="fill:none;stroke:#231f20;stroke-width:1;stroke-linecap:butt;stroke-linejoin:miter;stroke-miterlimit:4;stroke-dasharray:none;stroke-opacity:1"
                 d="m 329.49802,47.100002 h 17.20001 m -16,-46.40000201 h 17.19998" /></g></g><g
             id="g316"><text
               id="text320"
               style="font-variant:normal;font-weight:normal;font-size:11.95500088px;font-family:CMMI12;-inkscape-font-specification:CMMI12;writing-mode:lr-tb;fill:#231f20;fill-opacity:1;fill-rule:nonzero;stroke:none"
               transform="matrix(1,0,0,-1,3.1850998,17.5299)"><tspan
                 id="tspan318"
                 y="0"
                 x="0">V</tspan></text>
<text
               id="text324"
               style="font-variant:normal;font-weight:normal;font-size:11.95500088px;font-family:CMMI12;-inkscape-font-specification:CMMI12;writing-mode:lr-tb;fill:#231f20;fill-opacity:1;fill-rule:nonzero;stroke:none"
               transform="matrix(1,0,0,-1,22.15888,19.522799)"><tspan
                 id="tspan322"
                 y="0"
                 x="0">i</tspan></text>
<text
               id="text328"
               style="font-variant:normal;font-weight:normal;font-size:7.96999979px;font-family:CMMI8;-inkscape-font-specification:CMMI8;writing-mode:lr-tb;fill:#231f20;fill-opacity:1;fill-rule:nonzero;stroke:none"
               transform="matrix(1,0,0,-1,26.1509,17.73)"><tspan
                 id="tspan326"
                 y="0"
                 x="0">o</tspan></text>
<text
               id="text332"
               style="font-variant:normal;font-weight:normal;font-size:11.95500088px;font-family:CMMI12;-inkscape-font-specification:CMMI12;writing-mode:lr-tb;fill:#231f20;fill-opacity:1;fill-rule:nonzero;stroke:none"
               transform="matrix(1,0,0,-1,95.193794,16.608002)"><tspan
                 id="tspan330"
                 y="0"
                 x="0">i</tspan></text>
<text
               id="text336"
               style="font-variant:normal;font-weight:normal;font-size:7.96999979px;font-family:CMR8;-inkscape-font-specification:CMR8;writing-mode:lr-tb;fill:#231f20;fill-opacity:1;fill-rule:nonzero;stroke:none"
               transform="matrix(1,0,0,-1,99.188004,14.815001)"><tspan
                 id="tspan334"
                 y="0"
                 x="0">1</tspan></text>
<text
               id="text340"
               style="font-variant:normal;font-weight:normal;font-size:11.95500088px;font-family:CMMI12;-inkscape-font-specification:CMMI12;writing-mode:lr-tb;fill:#231f20;fill-opacity:1;fill-rule:nonzero;stroke:none"
               transform="matrix(1,0,0,-1,185.19402,17.608002)"><tspan
                 id="tspan338"
                 y="0"
                 x="0">i</tspan></text>
<text
               id="text344"
               style="font-variant:normal;font-weight:normal;font-size:7.96999979px;font-family:CMMI8;-inkscape-font-specification:CMMI8;writing-mode:lr-tb;fill:#231f20;fill-opacity:1;fill-rule:nonzero;stroke:none"
               transform="matrix(1,0,0,-1,189.188,15.815001)"><tspan
                 id="tspan342"
                 y="0"
                 x="0">n</tspan></text>
<text
               id="text348"
               style="font-variant:normal;font-weight:normal;font-size:11.95500088px;font-family:CMMI12;-inkscape-font-specification:CMMI12;writing-mode:lr-tb;fill:#231f20;fill-opacity:1;fill-rule:nonzero;stroke:none"
               transform="matrix(1,0,0,-1,249.19501,16.608002)"><tspan
                 id="tspan346"
                 y="0"
                 x="0">i</tspan></text>
<text
               id="text352"
               style="font-variant:normal;font-weight:normal;font-size:7.96999979px;font-family:CMMI8;-inkscape-font-specification:CMMI8;writing-mode:lr-tb;fill:#231f20;fill-opacity:1;fill-rule:nonzero;stroke:none"
               transform="matrix(1,0,0,-1,253.18802,14.815001)"><tspan
                 id="tspan350"
                 y="0"
                 x="0">n</tspan></text>
<text
               id="text356"
               style="font-variant:normal;font-weight:normal;font-size:7.96999979px;font-family:CMR8;-inkscape-font-specification:CMR8;writing-mode:lr-tb;fill:#231f20;fill-opacity:1;fill-rule:nonzero;stroke:none"
               transform="matrix(1,0,0,-1,258.32709,14.815001)"><tspan
                 id="tspan354"
                 y="0"
                 x="0 6.58322">+1</tspan></text>
<text
               id="text360"
               style="font-variant:normal;font-weight:normal;font-size:11.95500088px;font-family:CMMI12;-inkscape-font-specification:CMMI12;writing-mode:lr-tb;fill:#231f20;fill-opacity:1;fill-rule:nonzero;stroke:none"
               transform="matrix(1,0,0,-1,366.15601,18.523001)"><tspan
                 id="tspan358"
                 y="0"
                 x="0">i</tspan></text>
<text
               id="text364"
               style="font-variant:normal;font-weight:normal;font-size:7.96999979px;font-family:CMMI8;-inkscape-font-specification:CMMI8;writing-mode:lr-tb;fill:#231f20;fill-opacity:1;fill-rule:nonzero;stroke:none"
               transform="matrix(1,0,0,-1,370.14999,16.73)"><tspan
                 id="tspan362"
                 y="0"
                 x="0">N</tspan></text>
</g></g></g></g></g></svg>