<?xml version="1.0" encoding="UTF-8" standalone="no"?>
<svg
   xmlns:dc="http://purl.org/dc/elements/1.1/"
   xmlns:cc="http://creativecommons.org/ns#"
   xmlns:rdf="http://www.w3.org/1999/02/22-rdf-syntax-ns#"
   xmlns:svg="http://www.w3.org/2000/svg"
   xmlns="http://www.w3.org/2000/svg"
   viewBox="0 0 368 270.66666"
   height="270.66666"
   width="368"
   xml:space="preserve"
   id="svg2"
   version="1.1"><metadata
     id="metadata8"><rdf:RDF><cc:Work
         rdf:about=""><dc:format>image/svg+xml</dc:format><dc:type
           rdf:resource="http://purl.org/dc/dcmitype/StillImage" /></cc:Work></rdf:RDF></metadata><defs
     id="defs6"><clipPath
       id="clipPath24"
       clipPathUnits="userSpaceOnUse"><path
         id="path22"
         d="M 0,0 H 276 V 203 H 0 Z" /></clipPath><clipPath
       id="clipPath38"
       clipPathUnits="userSpaceOnUse"><path
         id="path36"
         d="M 0,0.05999756 H 275.66901 V 202.23401 H 0 Z" /></clipPath></defs><g
     transform="matrix(1.3333333,0,0,-1.3333333,0,270.66667)"
     id="g10"><g
       id="g12" /><g
       id="g14" /><g
       id="g16"><g
         id="g18"><g
           clip-path="url(#clipPath24)"
           id="g20"><g
             id="g26" /><g
             id="g28"><path
               id="path30"
               style="fill:none;stroke:#231f20;stroke-width:0.5;stroke-linecap:butt;stroke-linejoin:round;stroke-miterlimit:10;stroke-dasharray:none;stroke-opacity:1"
               d="m 53.042004,31.103001 h 3 m -1.5,1.5 v -3 m 29.333004,1.5 h 3 m -1.5,1.5 v -3 m 29.334002,1.5 h 3 m -1.5,1.5 v -3 m 29.29099,1.5 h 3 m -1.5,1.5 v -3 m 29.33401,1.5 h 3 m -1.5,1.5 v -3 m 29.334,1.5 h 3 m -1.5,1.5 v -3 m 29.333,1.5 h 3 m -1.5,1.5 v -3 m 29.29101,1.5 h 3 m -1.5,1.5 v -3 m -217.250016,1.5 h 3 m -1.5,1.5 v -3 m -1.5,53.250003 h 3 m -1.5,1.5 v -3 m -1.5,53.291996 h 3 m -1.5,1.5 v -3 m -1.5,53.25 h 3 m -1.5,1.5 v -3" /></g><g
             id="g32"><g
               clip-path="url(#clipPath38)"
               id="g34"><path
                 id="path40"
                 style="fill:none;stroke:#231f20;stroke-width:1;stroke-linecap:butt;stroke-linejoin:round;stroke-miterlimit:10;stroke-dasharray:none;stroke-opacity:1"
                 d="M 48.375004,31.103001 H 270.41702 M 54.542004,20.728001 V 196.76999 m 154.750006,-41.70798 0.584,-0.79202 0.62399,-0.83298 0.62601,-0.83301 0.62399,-0.83401 0.62601,-0.83298 0.582,-0.875 0.626,-0.875 0.624,-0.875 0.626,-0.91701 0.624,-0.875 0.584,-0.916 0.626,-0.91699 0.624,-0.95801 0.626,-0.959 0.624,-0.95799 0.584,-0.95801 0.62399,-0.959 0.62601,-1 0.62399,-1 0.62601,-1 0.582,-1 0.626,-1.041 0.624,-1.04199 0.626,-1.04201 0.624,-1.08299 0.584,-1.04201 1.25,-2.166 0.625,-1.125 0.625,-1.084 0.584,-1.125 0.625,-1.166 0.625,-1.125 0.625,-1.167 0.582,-1.167 1.25,-2.333 1.25,-2.417 0.584,-1.208 0.625,-1.208 1.875,-3.75 0.584,-1.251 2.5,-5.166 0.582,-1.334 1.875,-3.999996 0.625,-1.375 0.584,-1.375 1.25,-2.75 1.25,-2.833007 0.584,-1.416993 0.625,-1.416 1.875,-4.375 0.582,-1.459 2.5,-6 0.584,-1.541 1.875,-4.625 0.625,-1.584 0.584,-1.583007 1.25,-3.166993 0.625,-1.625 0.582,-1.625 1.25,-3.25 0.625,-1.666 0.625,-1.625 0.58401,-1.667 0.625,-1.708 0.625,-1.667004 1.25,-3.416999 0.58399,-1.75 0.625,-1.708001 1.875,-5.25 0.582,-1.791999 0.625,-1.790999 M 148.25,184.104 l 0.62601,0.20801 0.58299,0.20798 0.625,0.16702 0.625,0.20799 0.625,0.16701 0.625,0.16699 0.58301,0.125 0.625,0.16599 1.25,0.25 0.625,0.12501 0.584,0.084 0.62399,0.083 0.62601,0.083 0.62399,0.084 0.62601,0.041 0.583,0.042 0.625,0.042 0.625,0.041 h 2.459 l 0.624,-0.041 h 0.626 l 0.624,-0.042 0.584,-0.083 0.62399,-0.042 0.62601,-0.083 0.62399,-0.084 0.62601,-0.083 0.582,-0.125 0.626,-0.125 0.624,-0.125 0.626,-0.125 0.624,-0.16702 0.584,-0.16599 0.626,-0.16699 0.624,-0.16702 0.626,-0.16599 0.624,-0.209 0.584,-0.20799 0.62399,-0.25 0.62601,-0.20801 0.62399,-0.25 0.58401,-0.25 0.624,-0.25 0.626,-0.29199 0.624,-0.29201 0.626,-0.291 0.584,-0.29199 0.624,-0.29202 0.626,-0.33298 0.624,-0.33301 0.626,-0.33401 0.58199,-0.37499 0.62601,-0.37501 L 184,179.395 l 0.62601,-0.37501 0.62399,-0.41599 0.58401,-0.375 0.624,-0.41699 0.626,-0.45801 0.624,-0.41699 0.626,-0.45801 0.584,-0.45901 0.624,-0.45798 0.626,-0.5 0.624,-0.45801 0.626,-0.5 0.58199,-0.54199 0.62601,-0.5 0.62399,-0.54202 0.62601,-0.54099 0.62399,-0.54199 0.58401,-0.58301 0.624,-0.54199 0.626,-0.58301 0.624,-0.625 0.626,-0.58401 0.584,-0.62499 0.624,-0.62501 0.626,-0.62499 0.624,-0.666 0.626,-0.625 0.58199,-0.66699 0.62601,-0.66702 0.62399,-0.70798 0.62601,-0.70801 0.582,-0.709 0.626,-0.70799 0.624,-0.70801 0.626,-0.75 0.624,-0.75 0.584,-0.75 0.626,-0.79199 0.624,-0.75 0.626,-0.79201 0.624,-0.83299 M 87.208008,111.604 l 0.625,1.25 1.25,2.416 0.583999,1.209 1.25,2.416 0.625,1.167 0.583001,1.167 0.624992,1.166 0.625008,1.125 0.624992,1.167 0.625008,1.125 0.583,1.083 0.625,1.125 1.875,3.25 0.583999,1.04201 0.625,1.08299 0.625,1.04201 0.625003,1.04199 0.625,1 0.584,1 0.62399,1 0.62601,1 0.62399,1 0.62601,0.95801 0.583,0.95799 0.625,0.959 0.625,0.916 0.625,0.959 0.625,0.916 0.583,0.875 0.625,0.91701 1.875,2.625 0.584,0.875 0.62399,0.83298 0.62601,0.83401 0.62399,0.83301 0.62601,0.79199 0.583,0.83301 1.25,1.58299 0.625,0.75 0.625,0.79201 0.583,0.75 0.625,0.70799 0.625,0.75 0.625,0.709 0.58299,0.70801 0.62601,0.70798 0.62399,0.70901 0.62601,0.666 0.62399,0.66701 0.58401,0.66699 0.625,0.666 1.875,1.87499 0.583,0.58401 0.625,0.625 0.625,0.58301 0.625,0.58299 0.625,0.54201 0.58299,0.58298 0.62601,0.54202 0.62399,0.54199 0.62601,0.5 0.62399,0.541 0.584,0.5 0.625,0.5 0.625,0.459 0.625,0.5 0.625,0.45801 0.58301,0.45798 0.625,0.41702 0.625,0.41699 0.625,0.45801 0.625,0.375 0.58299,0.41699 0.62601,0.375 0.62399,0.416 0.62601,0.334 0.62399,0.375 0.584,0.33301 0.625,0.375 0.625,0.29199 0.625,0.33301 0.625,0.29199 0.58301,0.33301 0.625,0.29199 0.625,0.25 0.625,0.291 0.584,0.25 0.62399,0.25 0.62601,0.209 0.62399,0.25 M 54.542004,31.103001 l 0.625,1.75 0.625,1.791999 0.583,1.792 1.25,3.5 0.624996,1.708 0.625004,1.75 0.583,1.708001 1.25,3.416999 1.25,3.333001 0.584,1.666999 0.625,1.667004 1.249996,3.25 0.583,1.625 1.25,3.25 1.25,3.166 0.583,1.541993 0.626,1.583007 1.875,4.625 0.583,1.5 2.5,6 0.583,1.459 0.625,1.458 0.625,1.417 0.625,1.457993 0.625,1.417007 0.583,1.416 0.625,1.416993 0.625,1.375007 0.625,1.417 0.625,1.375 0.584007,1.332993 0.625,1.375007 1.875,3.999996 0.582993,1.292 2.5,5.167 0.583008,1.25 0.625,1.25" /><path
                 id="path42"
                 style="fill:none;stroke:#231f20;stroke-width:0.5;stroke-linecap:butt;stroke-linejoin:round;stroke-miterlimit:10;stroke-dasharray:3, 3, 3, 3, 3, 3;stroke-dashoffset:0;stroke-opacity:1"
                 d="M 55,134.49901 H 274.66702 M 223.16701,31.165001 V 190.83301 M 99.5,31.165001 V 188.49901" /></g></g><g
             id="g44"><text
               id="text48"
               style="font-variant:normal;font-weight:normal;font-size:11.95500088px;font-family:CMR12;-inkscape-font-specification:CMR12;writing-mode:lr-tb;fill:#231f20;fill-opacity:1;fill-rule:nonzero;stroke:none"
               transform="matrix(1,0,0,-1,0,114.33459)"><tspan
                 id="tspan46"
                 y="0"
                 x="0 8.774971 13.975396 17.215202 23.061197">Heigh</tspan></text>
<text
               id="text52"
               style="font-variant:normal;font-weight:normal;font-size:11.95500088px;font-family:CMR12;-inkscape-font-specification:CMR12;writing-mode:lr-tb;fill:#231f20;fill-opacity:1;fill-rule:nonzero;stroke:none"
               transform="matrix(1,0,0,-1,29.261063,114.33459)"><tspan
                 id="tspan50"
                 y="0"
                 x="0">t</tspan></text>
<text
               id="text56"
               style="font-variant:normal;font-weight:normal;font-size:11.95500088px;font-family:CMR12;-inkscape-font-specification:CMR12;writing-mode:lr-tb;fill:#231f20;fill-opacity:1;fill-rule:nonzero;stroke:none"
               transform="matrix(1,0,0,-1,123.71513,3.0024519)"><tspan
                 id="tspan54"
                 y="0"
                 x="0 8.774971 14.620966 19.163866 22.403671 27.604097 33.450092">Horizon</tspan></text>
<text
               id="text60"
               style="font-variant:normal;font-weight:normal;font-size:11.95500088px;font-family:CMR12;-inkscape-font-specification:CMR12;writing-mode:lr-tb;fill:#231f20;fill-opacity:1;fill-rule:nonzero;stroke:none"
               transform="matrix(1,0,0,-1,163.38184,3.0024519)"><tspan
                 id="tspan58"
                 y="0"
                 x="0 4.5429006 10.388896">tal</tspan></text>
<text
               id="text64"
               style="font-variant:normal;font-weight:normal;font-size:11.95500088px;font-family:CMR12;-inkscape-font-specification:CMR12;writing-mode:lr-tb;fill:#231f20;fill-opacity:1;fill-rule:nonzero;stroke:none"
               transform="matrix(1,0,0,-1,180.94135,3.0024519)"><tspan
                 id="tspan62"
                 y="0"
                 x="0 8.6076012 14.453596 20.945162 26.791157">Range</tspan></text>
<text
               id="text68"
               style="font-variant:normal;font-weight:normal;font-size:11.95500088px;font-family:CMMI12;-inkscape-font-specification:CMMI12;writing-mode:lr-tb;fill:#231f20;fill-opacity:1;fill-rule:nonzero;stroke:none"
               transform="matrix(1,0,0,-1,82.31855,193.26868)"><tspan
                 id="tspan66"
                 y="0"
                 x="0">x</tspan></text>
<text
               id="text72"
               style="font-variant:normal;font-weight:normal;font-size:7.96999979px;font-family:CMR8;-inkscape-font-specification:CMR8;writing-mode:lr-tb;fill:#231f20;fill-opacity:1;fill-rule:nonzero;stroke:none"
               transform="matrix(1,0,0,-1,88.9702,191.4747)"><tspan
                 id="tspan70"
                 y="0"
                 x="0">1</tspan></text>
<text
               id="text76"
               style="font-variant:normal;font-weight:normal;font-size:11.95500088px;font-family:CMR12;-inkscape-font-specification:CMR12;writing-mode:lr-tb;fill:#231f20;fill-opacity:1;fill-rule:nonzero;stroke:none"
               transform="matrix(1,0,0,-1,97.023895,193.2677)"><tspan
                 id="tspan74"
                 y="0"
                 x="0">=</tspan></text>
<text
               id="text80"
               style="font-variant:normal;font-weight:normal;font-size:11.95500088px;font-family:CMR12;-inkscape-font-specification:CMR12;writing-mode:lr-tb;fill:#231f20;fill-opacity:1;fill-rule:nonzero;stroke:none"
               transform="matrix(1,0,0,-1,109.44873,193.2677)"><tspan
                 id="tspan78"
                 y="0"
                 x="0">7</tspan></text>
<text
               id="text84"
               style="font-variant:normal;font-weight:normal;font-size:11.95500088px;font-family:CMMI12;-inkscape-font-specification:CMMI12;writing-mode:lr-tb;fill:#231f20;fill-opacity:1;fill-rule:nonzero;stroke:none"
               transform="matrix(1,0,0,-1,115.3019,193.2677)"><tspan
                 id="tspan82"
                 y="0"
                 x="0">.</tspan></text>
<text
               id="text88"
               style="font-variant:normal;font-weight:normal;font-size:11.95500088px;font-family:CMR12;-inkscape-font-specification:CMR12;writing-mode:lr-tb;fill:#231f20;fill-opacity:1;fill-rule:nonzero;stroke:none"
               transform="matrix(1,0,0,-1,118.55366,193.2677)"><tspan
                 id="tspan86"
                 y="0"
                 x="0 5.8459954">33</tspan></text>
<text
               id="text92"
               style="font-variant:normal;font-weight:normal;font-size:11.95500088px;font-family:CMMI12;-inkscape-font-specification:CMMI12;writing-mode:lr-tb;fill:#231f20;fill-opacity:1;fill-rule:nonzero;stroke:none"
               transform="matrix(1,0,0,-1,195.39682,190.60054)"><tspan
                 id="tspan90"
                 y="0"
                 x="0">x</tspan></text>
<text
               id="text96"
               style="font-variant:normal;font-weight:normal;font-size:7.96999979px;font-family:CMR8;-inkscape-font-specification:CMR8;writing-mode:lr-tb;fill:#231f20;fill-opacity:1;fill-rule:nonzero;stroke:none"
               transform="matrix(1,0,0,-1,202.04901,188.80769)"><tspan
                 id="tspan94"
                 y="0"
                 x="0">2</tspan></text>
<text
               id="text100"
               style="font-variant:normal;font-weight:normal;font-size:11.95500088px;font-family:CMR12;-inkscape-font-specification:CMR12;writing-mode:lr-tb;fill:#231f20;fill-opacity:1;fill-rule:nonzero;stroke:none"
               transform="matrix(1,0,0,-1,210.10201,190.60069)"><tspan
                 id="tspan98"
                 y="0"
                 x="0">=</tspan></text>
<text
               id="text104"
               style="font-variant:normal;font-weight:normal;font-size:11.95500088px;font-family:CMR12;-inkscape-font-specification:CMR12;writing-mode:lr-tb;fill:#231f20;fill-opacity:1;fill-rule:nonzero;stroke:none"
               transform="matrix(1,0,0,-1,222.52803,190.60069)"><tspan
                 id="tspan102"
                 y="0"
                 x="0">2</tspan></text>
<text
               id="text108"
               style="font-variant:normal;font-weight:normal;font-size:11.95500088px;font-family:CMR12;-inkscape-font-specification:CMR12;writing-mode:lr-tb;fill:#231f20;fill-opacity:1;fill-rule:nonzero;stroke:none"
               transform="matrix(1,0,0,-1,228.37402,190.60069)"><tspan
                 id="tspan106"
                 y="0"
                 x="0">7</tspan></text>
<text
               id="text112"
               style="font-variant:normal;font-weight:normal;font-size:11.95500088px;font-family:CMMI12;-inkscape-font-specification:CMMI12;writing-mode:lr-tb;fill:#231f20;fill-opacity:1;fill-rule:nonzero;stroke:none"
               transform="matrix(1,0,0,-1,234.23317,190.60069)"><tspan
                 id="tspan110"
                 y="0"
                 x="0">.</tspan></text>
<text
               id="text116"
               style="font-variant:normal;font-weight:normal;font-size:11.95500088px;font-family:CMR12;-inkscape-font-specification:CMR12;writing-mode:lr-tb;fill:#231f20;fill-opacity:1;fill-rule:nonzero;stroke:none"
               transform="matrix(1,0,0,-1,237.48492,190.60069)"><tspan
                 id="tspan114"
                 y="0"
                 x="0 5.8459954">32</tspan></text>
<text
               id="text120"
               style="font-variant:normal;font-weight:normal;font-size:11.95500088px;font-family:CMR12;-inkscape-font-specification:CMR12;writing-mode:lr-tb;fill:#231f20;fill-opacity:1;fill-rule:nonzero;stroke:none"
               transform="matrix(1,0,0,-1,57.092339,21.933569)"><tspan
                 id="tspan118"
                 y="0"
                 x="0">0</tspan></text>
<text
               id="text124"
               style="font-variant:normal;font-weight:normal;font-size:11.95500088px;font-family:CMR12;-inkscape-font-specification:CMR12;writing-mode:lr-tb;fill:#231f20;fill-opacity:1;fill-rule:nonzero;stroke:none"
               transform="matrix(1,0,0,-1,82.84819,19.266409)"><tspan
                 id="tspan122"
                 y="0"
                 x="0">5</tspan></text>
<text
               id="text128"
               style="font-variant:normal;font-weight:normal;font-size:11.95500088px;font-family:CMR12;-inkscape-font-specification:CMR12;writing-mode:lr-tb;fill:#231f20;fill-opacity:1;fill-rule:nonzero;stroke:none"
               transform="matrix(1,0,0,-1,108.60404,19.266409)"><tspan
                 id="tspan126"
                 y="0"
                 x="0">1</tspan></text>
<text
               id="text132"
               style="font-variant:normal;font-weight:normal;font-size:11.95500088px;font-family:CMR12;-inkscape-font-specification:CMR12;writing-mode:lr-tb;fill:#231f20;fill-opacity:1;fill-rule:nonzero;stroke:none"
               transform="matrix(1,0,0,-1,114.45004,19.266409)"><tspan
                 id="tspan130"
                 y="0"
                 x="0">0</tspan></text>
<text
               id="text136"
               style="font-variant:normal;font-weight:normal;font-size:11.95500088px;font-family:CMR12;-inkscape-font-specification:CMR12;writing-mode:lr-tb;fill:#231f20;fill-opacity:1;fill-rule:nonzero;stroke:none"
               transform="matrix(1,0,0,-1,140.21187,18.600515)"><tspan
                 id="tspan134"
                 y="0"
                 x="0 5.8459954">15</tspan></text>
<text
               id="text140"
               style="font-variant:normal;font-weight:normal;font-size:11.95500088px;font-family:CMR12;-inkscape-font-specification:CMR12;writing-mode:lr-tb;fill:#231f20;fill-opacity:1;fill-rule:nonzero;stroke:none"
               transform="matrix(1,0,0,-1,171.81731,19.266409)"><tspan
                 id="tspan138"
                 y="0"
                 x="0 5.8459954">20</tspan></text>
<text
               id="text144"
               style="font-variant:normal;font-weight:normal;font-size:11.95500088px;font-family:CMR12;-inkscape-font-specification:CMR12;writing-mode:lr-tb;fill:#231f20;fill-opacity:1;fill-rule:nonzero;stroke:none"
               transform="matrix(1,0,0,-1,202.09215,19.266409)"><tspan
                 id="tspan142"
                 y="0"
                 x="0 5.8459954">25</tspan></text>
<text
               id="text148"
               style="font-variant:normal;font-weight:normal;font-size:11.95500088px;font-family:CMR12;-inkscape-font-specification:CMR12;writing-mode:lr-tb;fill:#231f20;fill-opacity:1;fill-rule:nonzero;stroke:none"
               transform="matrix(1,0,0,-1,233.70117,19.266409)"><tspan
                 id="tspan146"
                 y="0"
                 x="0 5.8459954">30</tspan></text>
<text
               id="text152"
               style="font-variant:normal;font-weight:normal;font-size:11.95500088px;font-family:CMR12;-inkscape-font-specification:CMR12;writing-mode:lr-tb;fill:#231f20;fill-opacity:1;fill-rule:nonzero;stroke:none"
               transform="matrix(1,0,0,-1,263.97482,19.266409)"><tspan
                 id="tspan150"
                 y="0"
                 x="0 5.8459954">35</tspan></text>
<text
               id="text156"
               style="font-variant:normal;font-weight:normal;font-size:11.95500088px;font-family:CMR12;-inkscape-font-specification:CMR12;writing-mode:lr-tb;fill:#231f20;fill-opacity:1;fill-rule:nonzero;stroke:none"
               transform="matrix(1,0,0,-1,44.180931,78.933823)"><tspan
                 id="tspan154"
                 y="0"
                 x="0">5</tspan></text>
<text
               id="text160"
               style="font-variant:normal;font-weight:normal;font-size:11.95500088px;font-family:CMR12;-inkscape-font-specification:CMR12;writing-mode:lr-tb;fill:#231f20;fill-opacity:1;fill-rule:nonzero;stroke:none"
               transform="matrix(1,0,0,-1,36.937397,131.60039)"><tspan
                 id="tspan158"
                 y="0"
                 x="0 5.8459954">10</tspan></text>
<text
               id="text164"
               style="font-variant:normal;font-weight:normal;font-size:11.95500088px;font-family:CMR12;-inkscape-font-specification:CMR12;writing-mode:lr-tb;fill:#231f20;fill-opacity:1;fill-rule:nonzero;stroke:none"
               transform="matrix(1,0,0,-1,38.878887,181.93452)"><tspan
                 id="tspan162"
                 y="0"
                 x="0 5.8459954">15</tspan></text>
</g></g></g></g></g></svg>