<?xml version="1.0" encoding="UTF-8" standalone="no"?>
<svg
   xmlns:dc="http://purl.org/dc/elements/1.1/"
   xmlns:cc="http://creativecommons.org/ns#"
   xmlns:rdf="http://www.w3.org/1999/02/22-rdf-syntax-ns#"
   xmlns:svg="http://www.w3.org/2000/svg"
   xmlns="http://www.w3.org/2000/svg"
   viewBox="0 0 201.33333 114.66667"
   height="114.66667"
   width="201.33333"
   xml:space="preserve"
   id="svg2"
   version="1.1"><metadata
     id="metadata8"><rdf:RDF><cc:Work
         rdf:about=""><dc:format>image/svg+xml</dc:format><dc:type
           rdf:resource="http://purl.org/dc/dcmitype/StillImage" /></cc:Work></rdf:RDF></metadata><defs
     id="defs6"><clipPath
       id="clipPath24"
       clipPathUnits="userSpaceOnUse"><path
         id="path22"
         d="M 0,0 H 151 V 86 H 0 Z" /></clipPath><clipPath
       id="clipPath34"
       clipPathUnits="userSpaceOnUse"><path
         id="path32"
         d="M 0,0 H 150.08701 V 85.433006 H 0 Z" /></clipPath><clipPath
       id="clipPath56"
       clipPathUnits="userSpaceOnUse"><path
         id="path54"
         d="M 0,0 H 150.08701 V 85.433006 H 0 Z" /></clipPath></defs><g
     transform="matrix(1.3333333,0,0,-1.3333333,0,114.66667)"
     id="g10"><g
       id="g12" /><g
       id="g14" /><g
       id="g16"><g
         id="g18"><g
           clip-path="url(#clipPath24)"
           id="g20"><g
             id="g26" /><g
             id="g28"><g
               clip-path="url(#clipPath34)"
               id="g30"><path
                 id="path36"
                 style="fill:#c8c7c7;fill-opacity:1;fill-rule:nonzero;stroke:none"
                 d="m 65.531006,17.662001 c 31.028992,11.514 52.494004,30.791002 47.943004,43.056001 -4.55201,12.265 -33.396007,12.874001 -64.424011,1.360001 C 18.021,50.564003 -3.4430001,31.287001 1.107,19.022001 5.6590004,6.7570004 34.503002,6.1480002 65.531006,17.662001" /><path
                 id="path38"
                 style="fill:none;stroke:#c8c7c7;stroke-width:1;stroke-linecap:butt;stroke-linejoin:miter;stroke-miterlimit:4;stroke-dasharray:none;stroke-opacity:1"
                 d="m 65.531006,17.662001 c 31.028992,11.514 52.494004,30.791002 47.943004,43.056001 -4.55201,12.265 -33.396007,12.874001 -64.424011,1.360001 C 18.021,50.564003 -3.4430001,31.287001 1.107,19.022001 5.6590004,6.7570004 34.503002,6.1480002 65.531006,17.662001 Z" /></g></g><g
             id="g40"><path
               id="path42"
               style="fill:#ffffff;fill-opacity:1;fill-rule:nonzero;stroke:none"
               d="M 25.087002,5.6670003 H 137.08701" /><path
               id="path44"
               style="fill:none;stroke:#231f20;stroke-width:1;stroke-linecap:butt;stroke-linejoin:miter;stroke-miterlimit:4;stroke-dasharray:none;stroke-opacity:1"
               d="M 25.087002,5.6670003 H 137.08701" /><path
               id="path46"
               style="fill:#231f20;fill-opacity:1;fill-rule:nonzero;stroke:none"
               d="m 136.578,5.6670003 -1.09599,1.802 0.061,0.04 2.938,-1.1659999 c 1.02301,-0.2260003 2.047,-0.4500003 3.071,-0.6760001 -1.024,-0.2249999 -2.04799,-0.4499998 -3.071,-0.6760001 l -2.938,-1.1659999 -0.061,0.03 1.09599,1.812" /><path
               id="path48"
               style="fill:#ffffff;fill-opacity:1;fill-rule:nonzero;stroke:none"
               d="M 30.754002,0 V 78.001007" /></g><g
             id="g50"><g
               clip-path="url(#clipPath56)"
               id="g52"><path
                 id="path58"
                 style="fill:none;stroke:#231f20;stroke-width:1;stroke-linecap:butt;stroke-linejoin:miter;stroke-miterlimit:4;stroke-dasharray:none;stroke-opacity:1"
                 d="M 30.754002,0 V 78.001007" /></g></g><g
             id="g60"><path
               id="path62"
               style="fill:#231f20;fill-opacity:1;fill-rule:nonzero;stroke:none"
               d="m 30.754002,77.489998 -1.802,-1.094994 -0.041,0.062 1.167,2.937004 c 0.225,1.024002 0.450001,2.046997 0.676001,3.07 0.225,-1.023003 0.45,-2.045998 0.674999,-3.07 l 1.167,-2.937004 -0.031,-0.062 -1.811,1.094994" /><text
               id="text66"
               style="font-variant:normal;font-weight:normal;font-size:11.95500088px;font-family:CMMI12;-inkscape-font-specification:CMMI12;writing-mode:lr-tb;fill:#231f20;fill-opacity:1;fill-rule:nonzero;stroke:none"
               transform="matrix(1,0,0,-1,143.44,3.4668999)"><tspan
                 id="tspan64"
                 y="0"
                 x="0">x</tspan></text>
<text
               id="text70"
               style="font-variant:normal;font-weight:normal;font-size:11.95500088px;font-family:CMMI12;-inkscape-font-specification:CMMI12;writing-mode:lr-tb;fill:#231f20;fill-opacity:1;fill-rule:nonzero;stroke:none"
               transform="matrix(1,0,0,-1,21.797867,76.466522)"><tspan
                 id="tspan68"
                 y="0"
                 x="0">y</tspan></text>
<text
               id="text74"
               style="font-variant:normal;font-weight:normal;font-size:11.95500088px;font-family:CMMI12;-inkscape-font-specification:CMMI12;writing-mode:lr-tb;fill:#231f20;fill-opacity:1;fill-rule:nonzero;stroke:none"
               transform="matrix(1,0,0,-1,65.392975,44.10075)"><tspan
                 id="tspan72"
                 y="0"
                 x="0">C</tspan></text>
<path
               id="path76"
               style="fill:none;stroke:#000000;stroke-width:1;stroke-linecap:butt;stroke-linejoin:miter;stroke-miterlimit:4;stroke-dasharray:none;stroke-opacity:1"
               d="m 33.906002,33.986 2.75,2.5 3.25,2 3.5,0.75 3.25,-0.25 h 3 l 2.75,1 2.75,1.500004 3,2.5 1.5,2.75 0.75,3.75 0.5,3.25 1.75,2.5 1.25,1 2.000004,1 2,0.25 h 2.5 l 2,-0.25 2.25,-0.5 2,-0.75 2,-0.5 1.5,-0.5 1.75,-0.25 1,-0.75 2,-0.5 1.75,-0.5 1.5,-0.75" /><path
               id="path78"
               style="fill:#000000;fill-opacity:1;fill-rule:nonzero;stroke:none"
               d="m 60.219002,48.262001 -1.919998,-0.869999 -0.033,0.066 1.511001,2.774998 c 0.347,0.989002 0.694,1.978 1.041001,2.966999 0.1,-1.043999 0.200996,-2.086998 0.300998,-3.130001 l 0.804001,-3.055996 -0.038,-0.058 -1.666,1.306" /><path
               id="path80"
               style="fill:#231f20;fill-opacity:1;fill-rule:nonzero;stroke:none"
               d="m 34.521,32.102001 c 1.094002,0 1.980003,0.886002 1.980003,1.98 0,1.093002 -0.886001,1.979 -1.980003,1.979 -1.092999,0 -1.979,-0.885998 -1.979,-1.979 0,-1.093998 0.886001,-1.98 1.979,-1.98" /><path
               id="path82"
               style="fill:none;stroke:#000000;stroke-width:1;stroke-linecap:butt;stroke-linejoin:miter;stroke-miterlimit:4;stroke-dasharray:none;stroke-opacity:1"
               d="m 34.521,32.102001 c 1.094002,0 1.980003,0.886002 1.980003,1.98 0,1.093002 -0.886001,1.979 -1.980003,1.979 -1.092999,0 -1.979,-0.885998 -1.979,-1.979 0,-1.093998 0.886001,-1.98 1.979,-1.98 z" /><path
               id="path84"
               style="fill:#231f20;fill-opacity:1;fill-rule:nonzero;stroke:none"
               d="m 89.021004,51.602001 c 1.094001,0 1.981003,0.886002 1.981003,1.98 0,1.093002 -0.887002,1.979 -1.981003,1.979 -1.093003,0 -1.978997,-0.885998 -1.978997,-1.979 0,-1.093998 0.885994,-1.98 1.978997,-1.98" /><path
               id="path86"
               style="fill:none;stroke:#000000;stroke-width:1;stroke-linecap:butt;stroke-linejoin:miter;stroke-miterlimit:4;stroke-dasharray:none;stroke-opacity:1"
               d="m 89.021004,51.602001 c 1.094001,0 1.981003,0.886002 1.981003,1.98 0,1.093002 -0.887002,1.979 -1.981003,1.979 -1.093003,0 -1.978997,-0.885998 -1.978997,-1.979 0,-1.093998 0.885994,-1.98 1.978997,-1.98 z" /><text
               id="text90"
               style="font-variant:normal;font-weight:normal;font-size:11.95500088px;font-family:CMMI12;-inkscape-font-specification:CMMI12;writing-mode:lr-tb;fill:#231f20;fill-opacity:1;fill-rule:nonzero;stroke:none"
               transform="matrix(1,0,0,-1,47.317398,15.6129)"><tspan
                 id="tspan88"
                 y="0"
                 x="0">R</tspan></text>
</g></g></g></g></g></svg>