<?xml version="1.0" encoding="UTF-8" standalone="no"?>
<svg
   xmlns:dc="http://purl.org/dc/elements/1.1/"
   xmlns:cc="http://creativecommons.org/ns#"
   xmlns:rdf="http://www.w3.org/1999/02/22-rdf-syntax-ns#"
   xmlns:svg="http://www.w3.org/2000/svg"
   xmlns="http://www.w3.org/2000/svg"
   viewBox="0 0 225.33333 153.33333"
   height="153.33333"
   width="225.33333"
   xml:space="preserve"
   id="svg2"
   version="1.1"><metadata
     id="metadata8"><rdf:RDF><cc:Work
         rdf:about=""><dc:format>image/svg+xml</dc:format><dc:type
           rdf:resource="http://purl.org/dc/dcmitype/StillImage" /></cc:Work></rdf:RDF></metadata><defs
     id="defs6"><clipPath
       id="clipPath24"
       clipPathUnits="userSpaceOnUse"><path
         id="path22"
         d="M 0,0 H 169 V 115 H 0 Z" /></clipPath><clipPath
       id="clipPath38"
       clipPathUnits="userSpaceOnUse"><path
         id="path36"
         d="M 0,0.06000519 H 168.79401 V 114.49901 H 0 Z" /></clipPath><clipPath
       id="clipPath52"
       clipPathUnits="userSpaceOnUse"><path
         id="path50"
         d="M 0,0.06000519 H 168.79401 V 114.49901 H 0 Z" /></clipPath></defs><g
     transform="matrix(1.3333333,0,0,-1.3333333,0,153.33333)"
     id="g10"><g
       id="g12" /><g
       id="g14" /><g
       id="g16"><g
         id="g18"><g
           clip-path="url(#clipPath24)"
           id="g20"><g
             id="g26" /><g
             id="g28"><path
               id="path30"
               style="fill:#c8c7c7;fill-opacity:1;fill-rule:nonzero;stroke:none"
               d="m 51.873001,1.6750001 c 26.070999,0 47.206001,21.1360009 47.206001,47.2070039 0,26.070999 -21.135002,47.206001 -47.206001,47.206001 -26.070999,0 -47.2060007,-21.135002 -47.2060007,-47.206001 0,-26.071003 21.1350017,-47.2070039 47.2060007,-47.2070039" /></g><g
             id="g32"><g
               clip-path="url(#clipPath38)"
               id="g34"><path
                 id="path40"
                 style="fill:none;stroke:#000000;stroke-width:1;stroke-linecap:butt;stroke-linejoin:miter;stroke-miterlimit:4;stroke-dasharray:none;stroke-opacity:1"
                 d="m 51.873001,1.6750001 c 26.070999,0 47.206001,21.1360009 47.206001,47.2070039 0,26.070999 -21.135002,47.206001 -47.206001,47.206001 -26.070999,0 -47.2060007,-21.135002 -47.2060007,-47.206001 0,-26.071003 21.1350017,-47.2070039 47.2060007,-47.2070039 z" /></g></g><g
             id="g42"><path
               id="path44"
               style="fill:#ffffff;fill-opacity:1;fill-rule:nonzero;stroke:none"
               d="M 0,49.407001 H 156.80101" /></g><g
             id="g46"><g
               clip-path="url(#clipPath52)"
               id="g48"><path
                 id="path54"
                 style="fill:none;stroke:#231f20;stroke-width:1;stroke-linecap:butt;stroke-linejoin:miter;stroke-miterlimit:4;stroke-dasharray:none;stroke-opacity:1"
                 d="M 0,49.407001 H 156.80101" /><path
                 id="path56"
                 style="fill:#231f20;fill-opacity:1;fill-rule:nonzero;stroke:none"
                 d="m 156.08701,49.407001 -1.534,2.522 0.086,0.057 4.112,-1.633003 c 1.433,-0.314999 2.867,-0.630997 4.29899,-0.946 -1.43199,-0.315998 -2.86599,-0.631 -4.29899,-0.945999 l -4.112,-1.632999 -0.086,0.043 1.534,2.535999" /><path
                 id="path58"
                 style="fill:#ffffff;fill-opacity:1;fill-rule:nonzero;stroke:none"
                 d="M 51.246002,0 V 103.773" /><path
                 id="path60"
                 style="fill:none;stroke:#231f20;stroke-width:1;stroke-linecap:butt;stroke-linejoin:miter;stroke-miterlimit:4;stroke-dasharray:none;stroke-opacity:1"
                 d="M 51.246002,0 V 103.773" /></g></g><g
             id="g62"><path
               id="path64"
               style="fill:#231f20;fill-opacity:1;fill-rule:nonzero;stroke:none"
               d="m 51.246002,103.05901 -2.521999,-1.533 -0.057,0.086 1.632995,4.112 c 0.315003,1.433 0.631005,2.86599 0.946003,4.29899 0.314999,-1.433 0.630001,-2.86599 0.945999,-4.29899 l 1.633,-4.112 -0.043,-0.086 -2.535999,1.533" /><text
               id="text68"
               style="font-variant:normal;font-weight:normal;font-size:11.95500088px;font-family:CMMI12;-inkscape-font-specification:CMMI12;writing-mode:lr-tb;fill:#231f20;fill-opacity:1;fill-rule:nonzero;stroke:none"
               transform="matrix(1,0,0,-1,162.14601,41.0327)"><tspan
                 id="tspan66"
                 y="0"
                 x="0">x</tspan></text>
<text
               id="text72"
               style="font-variant:normal;font-weight:normal;font-size:11.95500088px;font-family:CMMI12;-inkscape-font-specification:CMMI12;writing-mode:lr-tb;fill:#231f20;fill-opacity:1;fill-rule:nonzero;stroke:none"
               transform="matrix(1,0,0,-1,42.545792,105.53232)"><tspan
                 id="tspan70"
                 y="0"
                 x="0">y</tspan></text>
<path
               id="path74"
               style="fill:#000000;fill-opacity:1;fill-rule:nonzero;stroke:none"
               d="m 56.818001,35.916 0.104,-1.470996 -0.052,-0.006 -1.452995,1.667999 c -0.564,0.467999 -1.129002,0.936001 -1.694001,1.404999 0.709,-0.188 1.418,-0.376999 2.127999,-0.564999 l 2.201,-0.215999 0.028,-0.038 L 56.818001,35.916" /><path
               id="path76"
               style="fill:#000000;fill-opacity:1;fill-rule:nonzero;stroke:none"
               d="m 91.248001,73.338005 -1.481995,-2.552002 -0.091,0.048 -0.530998,4.393005 c -0.409004,1.408997 -0.817002,2.818001 -1.224999,4.227997 0.961998,-1.108002 1.923996,-2.215996 2.886002,-3.323998 l 3.399994,-2.831001 0.004,-0.097 -2.961006,0.135002" /><text
               id="text80"
               style="font-variant:normal;font-weight:normal;font-size:11.95500088px;font-family:CMMI12;-inkscape-font-specification:CMMI12;writing-mode:lr-tb;fill:#231f20;fill-opacity:1;fill-rule:nonzero;stroke:none"
               transform="matrix(1,0,0,-1,95.006294,75.889099)"><tspan
                 id="tspan78"
                 y="0"
                 x="0">C</tspan></text>
<text
               id="text84"
               style="font-variant:normal;font-weight:normal;font-size:11.95500088px;font-family:CMMI12;-inkscape-font-specification:CMMI12;writing-mode:lr-tb;fill:#231f20;fill-opacity:1;fill-rule:nonzero;stroke:none"
               transform="matrix(1,0,0,-1,61.185593,31.128382)"><tspan
                 id="tspan82"
                 y="0"
                 x="0">C</tspan></text>
<text
               id="text88"
               style="font-variant:normal;font-weight:normal;font-size:7.96999979px;font-family:CMR8;-inkscape-font-specification:CMR8;writing-mode:lr-tb;fill:#231f20;fill-opacity:1;fill-rule:nonzero;stroke:none"
               transform="matrix(1,0,0,-1,69.561005,29.334002)"><tspan
                 id="tspan86"
                 y="0"
                 x="0">2</tspan></text>
<text
               id="text92"
               style="font-variant:normal;font-weight:normal;font-size:8.36849976px;font-family:CMR12;-inkscape-font-specification:CMR12;writing-mode:lr-tb;fill:#231f20;fill-opacity:1;fill-rule:nonzero;stroke:none"
               transform="matrix(1,0,0,-1,47.536098,67.140602)"><tspan
                 id="tspan90"
                 y="0"
                 x="0">i</tspan></text>
<text
               id="text96"
               style="font-variant:normal;font-weight:normal;font-size:8.36849976px;font-family:CMR12;-inkscape-font-specification:CMR12;writing-mode:lr-tb;fill:#231f20;fill-opacity:1;fill-rule:nonzero;stroke:none"
               transform="matrix(1,0,0,-1,47.716858,25.257097)"><tspan
                 id="tspan94"
                 y="0"
                 x="0">i</tspan></text>
<path
               id="path98"
               style="fill:#231f20;fill-opacity:1;fill-rule:nonzero;stroke:none"
               d="m 42.637001,27.123001 h 4.200001" /><path
               id="path100"
               style="fill:none;stroke:#000000;stroke-width:0.80000001;stroke-linecap:butt;stroke-linejoin:miter;stroke-miterlimit:4;stroke-dasharray:none;stroke-opacity:1"
               d="m 42.637001,27.123001 h 4.200001" /><text
               id="text104"
               style="font-variant:normal;font-weight:normal;font-size:7.96999979px;font-family:CMR8;-inkscape-font-specification:CMR8;writing-mode:lr-tb;fill:#231f20;fill-opacity:1;fill-rule:nonzero;stroke:none"
               transform="matrix(1,0,0,-1,103.02801,72.473099)"><tspan
                 id="tspan102"
                 y="0"
                 x="0">3</tspan></text>
<path
               id="path106"
               style="fill:none;stroke:#000000;stroke-width:0.80000001;stroke-linecap:butt;stroke-linejoin:miter;stroke-miterlimit:4;stroke-dasharray:none;stroke-opacity:1"
               d="m 50.867001,17.434 c 5.576,0 10.098003,4.522001 10.098003,10.098001 0,5.576001 -4.522003,10.097001 -10.098003,10.097001 C 45.291,37.629002 40.77,33.108002 40.77,27.532001 40.77,21.956001 45.291,17.434 50.867001,17.434 Z" /></g></g></g></g></g></svg>