<?xml version="1.0" encoding="UTF-8" standalone="no"?>
<svg
   xmlns:dc="http://purl.org/dc/elements/1.1/"
   xmlns:cc="http://creativecommons.org/ns#"
   xmlns:rdf="http://www.w3.org/1999/02/22-rdf-syntax-ns#"
   xmlns:svg="http://www.w3.org/2000/svg"
   xmlns="http://www.w3.org/2000/svg"
   viewBox="0 0 230.66667 134.66667"
   height="134.66667"
   width="230.66667"
   xml:space="preserve"
   id="svg2"
   version="1.1"><metadata
     id="metadata8"><rdf:RDF><cc:Work
         rdf:about=""><dc:format>image/svg+xml</dc:format><dc:type
           rdf:resource="http://purl.org/dc/dcmitype/StillImage" /></cc:Work></rdf:RDF></metadata><defs
     id="defs6"><clipPath
       id="clipPath24"
       clipPathUnits="userSpaceOnUse"><path
         id="path22"
         d="M 0,0 H 173 V 101 H 0 Z" /></clipPath><clipPath
       id="clipPath38"
       clipPathUnits="userSpaceOnUse"><path
         id="path36"
         d="M 0,0.05999756 H 172.79301 V 100.31301 H 0 Z" /></clipPath><clipPath
       id="clipPath52"
       clipPathUnits="userSpaceOnUse"><path
         id="path50"
         d="M 0,0.05999756 H 172.79301 V 100.31301 H 0 Z" /></clipPath></defs><g
     transform="matrix(1.3333333,0,0,-1.3333333,0,134.66667)"
     id="g10"><g
       id="g12" /><g
       id="g14" /><g
       id="g16"><g
         id="g18"><g
           clip-path="url(#clipPath24)"
           id="g20"><g
             id="g26" /><g
             id="g28"><path
               id="path30"
               style="fill:#c8c7c7;fill-opacity:1;fill-rule:nonzero;stroke:none"
               d="m 81.142006,0.50100005 c 26.071004,0 47.206004,21.13500195 47.206004,47.20600095 0,26.070999 -21.135,47.206001 -47.206004,47.206001 -26.071003,0 -47.206005,-21.135002 -47.206005,-47.206001 0,-26.070999 21.135002,-47.20600095 47.206005,-47.20600095" /></g><g
             id="g32"><g
               clip-path="url(#clipPath38)"
               id="g34"><path
                 id="path40"
                 style="fill:none;stroke:#000000;stroke-width:1;stroke-linecap:butt;stroke-linejoin:miter;stroke-miterlimit:4;stroke-dasharray:none;stroke-opacity:1"
                 d="m 81.142006,0.50100005 c 26.071004,0 47.206004,21.13500195 47.206004,47.20600095 0,26.070999 -21.135,47.206001 -47.206004,47.206001 -26.071003,0 -47.206005,-21.135002 -47.206005,-47.206001 0,-26.070999 21.135002,-47.20600095 47.206005,-47.20600095 z" /></g></g><g
             id="g42"><path
               id="path44"
               style="fill:#ffffff;fill-opacity:1;fill-rule:nonzero;stroke:none"
               d="M 0,48.363003 H 156.80101" /></g><g
             id="g46"><g
               clip-path="url(#clipPath52)"
               id="g48"><path
                 id="path54"
                 style="fill:none;stroke:#231f20;stroke-width:1;stroke-linecap:butt;stroke-linejoin:miter;stroke-miterlimit:4;stroke-dasharray:none;stroke-opacity:1"
                 d="M 0,48.363003 H 156.80101" /></g></g><g
             id="g56"><path
               id="path58"
               style="fill:#231f20;fill-opacity:1;fill-rule:nonzero;stroke:none"
               d="m 156.08701,48.363003 -1.534,2.522999 0.086,0.056 4.112,-1.632999 c 1.434,-0.314999 2.867,-0.630001 4.29899,-0.945999 -1.43199,-0.314999 -2.86499,-0.630001 -4.29899,-0.945999 l -4.112,-1.633004 -0.086,0.043 1.534,2.536" /><path
               id="path60"
               style="fill:#ffffff;fill-opacity:1;fill-rule:nonzero;stroke:none"
               d="M 51.246002,4.2910004 V 94.063004" /><path
               id="path62"
               style="fill:none;stroke:#231f20;stroke-width:1;stroke-linecap:butt;stroke-linejoin:miter;stroke-miterlimit:4;stroke-dasharray:none;stroke-opacity:1"
               d="M 51.246002,4.2910004 V 94.063004" /><path
               id="path64"
               style="fill:#231f20;fill-opacity:1;fill-rule:nonzero;stroke:none"
               d="m 51.246002,93.349007 -2.521999,-1.533005 -0.057,0.08601 1.632995,4.112 c 0.315003,1.432998 0.631005,2.865989 0.946003,4.298988 C 51.561,98.880001 51.876002,97.44701 52.192,96.014012 l 1.633,-4.112 -0.043,-0.08601 -2.535999,1.533005" /><text
               id="text68"
               style="font-variant:normal;font-weight:normal;font-size:11.95500088px;font-family:CMMI12;-inkscape-font-specification:CMMI12;writing-mode:lr-tb;fill:#231f20;fill-opacity:1;fill-rule:nonzero;stroke:none"
               transform="matrix(1,0,0,-1,166.14601,45.3228)"><tspan
                 id="tspan66"
                 y="0"
                 x="0">x</tspan></text>
<text
               id="text72"
               style="font-variant:normal;font-weight:normal;font-size:11.95500088px;font-family:CMMI12;-inkscape-font-specification:CMMI12;writing-mode:lr-tb;fill:#231f20;fill-opacity:1;fill-rule:nonzero;stroke:none"
               transform="matrix(1,0,0,-1,40.893463,90.290337)"><tspan
                 id="tspan70"
                 y="0"
                 x="0">y</tspan></text>
<path
               id="path74"
               style="fill:#000000;fill-opacity:1;fill-rule:nonzero;stroke:none"
               d="m 86.533005,55.118004 0.103996,-1.472 -0.051,-0.005 -1.454002,1.667999 c -0.565003,0.466999 -1.128998,0.936001 -1.694,1.403999 0.708999,-0.187999 1.417999,-0.375999 2.126998,-0.564998 l 2.203003,-0.215001 0.028,-0.039 -1.263,-0.775997" /><path
               id="path76"
               style="fill:#000000;fill-opacity:1;fill-rule:nonzero;stroke:none"
               d="M 120.51701,72.163002 119.036,69.611 l -0.092,0.048 -0.53101,4.392998 c -0.40899,1.409004 -0.81699,2.819 -1.225,4.227005 0.96199,-1.107002 1.92401,-2.215004 2.88601,-3.323006 l 3.401,-2.831001 0.003,-0.09599 -2.96099,0.133995" /><path
               id="path78"
               style="fill:#000000;fill-opacity:1;fill-rule:nonzero;stroke:none"
               d="m 57.334003,54.676003 0.135994,-1.469002 -0.05099,-0.007 -1.490002,1.635002 c -0.574997,0.457001 -1.149998,0.912998 -1.723999,1.368 0.713001,-0.173004 1.426002,-0.345001 2.139,-0.517002 l 2.205997,-0.168999 0.029,-0.038 -1.244999,-0.803001" /><path
               id="path80"
               style="fill:none;stroke:#000000;stroke-width:0.80000001;stroke-linecap:butt;stroke-linejoin:miter;stroke-miterlimit:4;stroke-dasharray:none;stroke-opacity:1"
               d="m 51.917004,39.599003 c 4.646999,0 8.415001,3.766998 8.415001,8.413997 0,4.647 -3.768002,8.415001 -8.415001,8.415001 -4.647004,0 -8.415001,-3.768001 -8.415001,-8.415001 0,-4.646999 3.767997,-8.413997 8.415001,-8.413997 z m 29.531002,0.348999 c 4.646995,0 8.415001,3.768001 8.415001,8.415001 0,4.646995 -3.768006,8.415001 -8.415001,8.415001 -4.647003,0 -8.415001,-3.768006 -8.415001,-8.415001 0,-4.647 3.767998,-8.415001 8.415001,-8.415001 z" /><text
               id="text84"
               style="font-variant:normal;font-weight:normal;font-size:11.95500088px;font-family:CMMI12;-inkscape-font-specification:CMMI12;writing-mode:lr-tb;fill:#231f20;fill-opacity:1;fill-rule:nonzero;stroke:none"
               transform="matrix(1,0,0,-1,125.48601,73.324196)"><tspan
                 id="tspan82"
                 y="0"
                 x="0">C</tspan></text>
<text
               id="text88"
               style="font-variant:normal;font-weight:normal;font-size:11.95500088px;font-family:CMMI12;-inkscape-font-specification:CMMI12;writing-mode:lr-tb;fill:#231f20;fill-opacity:1;fill-rule:nonzero;stroke:none"
               transform="matrix(1,0,0,-1,90.852371,58.417507)"><tspan
                 id="tspan86"
                 y="0"
                 x="0">C</tspan></text>
<text
               id="text92"
               style="font-variant:normal;font-weight:normal;font-size:7.96999979px;font-family:CMR8;-inkscape-font-specification:CMR8;writing-mode:lr-tb;fill:#231f20;fill-opacity:1;fill-rule:nonzero;stroke:none"
               transform="matrix(1,0,0,-1,99.227501,56.624004)"><tspan
                 id="tspan90"
                 y="0"
                 x="0">1</tspan></text>
<text
               id="text96"
               style="font-variant:normal;font-weight:normal;font-size:11.95500088px;font-family:CMMI12;-inkscape-font-specification:CMMI12;writing-mode:lr-tb;fill:#231f20;fill-opacity:1;fill-rule:nonzero;stroke:none"
               transform="matrix(1,0,0,-1,46.352497,58.918003)"><tspan
                 id="tspan94"
                 y="0"
                 x="0">C</tspan></text>
<text
               id="text100"
               style="font-variant:normal;font-weight:normal;font-size:7.96999979px;font-family:CMR8;-inkscape-font-specification:CMR8;writing-mode:lr-tb;fill:#231f20;fill-opacity:1;fill-rule:nonzero;stroke:none"
               transform="matrix(1,0,0,-1,54.727497,57.124004)"><tspan
                 id="tspan98"
                 y="0"
                 x="0">2</tspan></text>
<text
               id="text104"
               style="font-variant:normal;font-weight:normal;font-size:8.36849976px;font-family:CMR12;-inkscape-font-specification:CMR12;writing-mode:lr-tb;fill:#231f20;fill-opacity:1;fill-rule:nonzero;stroke:none"
               transform="matrix(1,0,0,-1,27.3442,41.724098)"><tspan
                 id="tspan102"
                 y="0"
                 x="0">2</tspan></text>
<text
               id="text108"
               style="font-variant:normal;font-weight:normal;font-size:8.36849976px;font-family:CMR12;-inkscape-font-specification:CMR12;writing-mode:lr-tb;fill:#231f20;fill-opacity:1;fill-rule:nonzero;stroke:none"
               transform="matrix(1,0,0,-1,81.983803,41.805271)"><tspan
                 id="tspan106"
                 y="0"
                 x="0">3</tspan></text>
<path
               id="path110"
               style="fill:#231f20;fill-opacity:1;fill-rule:nonzero;stroke:none"
               d="m 22.444,44.524002 h 4.550001" /><path
               id="path112"
               style="fill:none;stroke:#000000;stroke-width:1;stroke-linecap:butt;stroke-linejoin:miter;stroke-miterlimit:4;stroke-dasharray:none;stroke-opacity:1"
               d="m 22.444,44.524002 h 4.550001" /><path
               id="path114"
               style="fill:#231f20;fill-opacity:1;fill-rule:nonzero;stroke:none"
               d="m 82.367004,48.363003 c 0,-0.675999 -0.549003,-1.225003 -1.224998,-1.225003 -0.676003,0 -1.224999,0.549004 -1.224999,1.225003 0,0.676994 0.548996,1.224998 1.224999,1.224998 0.675995,0 1.224998,-0.548004 1.224998,-1.224998" /><path
               id="path116"
               style="fill:none;stroke:#231f20;stroke-width:1;stroke-linecap:butt;stroke-linejoin:miter;stroke-miterlimit:4;stroke-dasharray:none;stroke-opacity:1"
               d="m 82.367004,48.363003 c 0,-0.675999 -0.549003,-1.225003 -1.224998,-1.225003 -0.676003,0 -1.224999,0.549004 -1.224999,1.225003 0,0.676994 0.548996,1.224998 1.224999,1.224998 0.675995,0 1.224998,-0.548004 1.224998,-1.224998 z" /><path
               id="path118"
               style="fill:#231f20;fill-opacity:1;fill-rule:nonzero;stroke:none"
               d="m 52.442001,48.188004 c 0,-0.676003 -0.548,-1.225003 -1.224998,-1.225003 -0.675999,0 -1.225002,0.549 -1.225002,1.225003 0,0.676998 0.549003,1.224998 1.225002,1.224998 0.676998,0 1.224998,-0.548 1.224998,-1.224998" /><path
               id="path120"
               style="fill:none;stroke:#231f20;stroke-width:1;stroke-linecap:butt;stroke-linejoin:miter;stroke-miterlimit:4;stroke-dasharray:none;stroke-opacity:1"
               d="m 52.442001,48.188004 c 0,-0.676003 -0.548,-1.225003 -1.224998,-1.225003 -0.675999,0 -1.225002,0.549 -1.225002,1.225003 0,0.676998 0.549003,1.224998 1.225002,1.224998 0.676998,0 1.224998,-0.548 1.224998,-1.224998 z" /></g></g></g></g></g></svg>