<?xml version="1.0" encoding="UTF-8" standalone="no"?>
<svg
   xmlns:dc="http://purl.org/dc/elements/1.1/"
   xmlns:cc="http://creativecommons.org/ns#"
   xmlns:rdf="http://www.w3.org/1999/02/22-rdf-syntax-ns#"
   xmlns:svg="http://www.w3.org/2000/svg"
   xmlns="http://www.w3.org/2000/svg"
   viewBox="0 0 456 166.66667"
   height="166.66667"
   width="456"
   xml:space="preserve"
   id="svg2"
   version="1.1"><metadata
     id="metadata8"><rdf:RDF><cc:Work
         rdf:about=""><dc:format>image/svg+xml</dc:format><dc:type
           rdf:resource="http://purl.org/dc/dcmitype/StillImage" /></cc:Work></rdf:RDF></metadata><defs
     id="defs6"><clipPath
       id="clipPath24"
       clipPathUnits="userSpaceOnUse"><path
         id="path22"
         d="M 0,0 H 342 V 125 H 0 Z" /></clipPath><clipPath
       id="clipPath38"
       clipPathUnits="userSpaceOnUse"><path
         id="path36"
         d="M 0,0.05999756 H 342 V 124.43401 H 0 Z" /></clipPath><clipPath
       id="clipPath52"
       clipPathUnits="userSpaceOnUse"><path
         id="path50"
         d="M 0,0.05999756 H 342 V 124.43401 H 0 Z" /></clipPath></defs><g
     transform="matrix(1.3333333,0,0,-1.3333333,0,166.66667)"
     id="g10"><g
       id="g12" /><g
       id="g14" /><g
       id="g16"><g
         id="g18"><g
           clip-path="url(#clipPath24)"
           id="g20"><g
             id="g26" /><g
             id="g28"><path
               id="path30"
               style="fill:#c8c7c7;fill-opacity:1;fill-rule:nonzero;stroke:none"
               d="m 341.5,73.184006 c 0,-28.028004 -22.72098,-50.750004 -50.75,-50.750004 -28.02798,0 -50.75,22.722 -50.75,50.750004 0,28.028004 22.72202,50.750004 50.75,50.750004 28.02902,0 50.75,-22.722 50.75,-50.750004" /></g><g
             id="g32"><g
               clip-path="url(#clipPath38)"
               id="g34"><path
                 id="path40"
                 style="fill:none;stroke:#d3d2d2;stroke-width:1;stroke-linecap:butt;stroke-linejoin:miter;stroke-miterlimit:4;stroke-dasharray:none;stroke-opacity:1"
                 d="m 341.5,73.184006 c 0,-28.028004 -22.72098,-50.750004 -50.75,-50.750004 -28.02798,0 -50.75,22.722 -50.75,50.750004 0,28.028004 22.72202,50.750004 50.75,50.750004 28.02902,0 50.75,-22.722 50.75,-50.750004 z" /></g></g><g
             id="g42"><path
               id="path44"
               style="fill:#c8c7c7;fill-opacity:1;fill-rule:nonzero;stroke:none"
               d="M 0.5,113.43401 H 86 v -85.5 H 0.5 Z" /></g><g
             id="g46"><g
               clip-path="url(#clipPath52)"
               id="g48"><path
                 id="path54"
                 style="fill:none;stroke:#c8c7c7;stroke-width:1;stroke-linecap:butt;stroke-linejoin:miter;stroke-miterlimit:4;stroke-dasharray:none;stroke-opacity:1"
                 d="M 0.5,27.934002 H 86 V 113.43401 H 0.5 Z" /></g></g><g
             id="g56"><path
               id="path58"
               style="fill:#c8c7c7;fill-opacity:1;fill-rule:nonzero;stroke:none"
               d="m 163.313,21.869999 c 26.16501,0 47.37601,21.212002 47.37601,47.376003 0,26.165001 -21.211,47.376008 -47.37601,47.376008 -26.16499,0 -47.376,-21.211007 -47.376,-47.376008 0,-26.164001 21.21101,-47.376003 47.376,-47.376003" /><path
               id="path60"
               style="fill:none;stroke:#c8c7c7;stroke-width:1;stroke-linecap:butt;stroke-linejoin:miter;stroke-miterlimit:4;stroke-dasharray:none;stroke-opacity:1"
               d="m 163.313,21.869999 c 26.16501,0 47.37601,21.212002 47.37601,47.376003 0,26.165001 -21.211,47.376008 -47.37601,47.376008 -26.16499,0 -47.376,-21.211007 -47.376,-47.376008 0,-26.164001 21.21101,-47.376003 47.376,-47.376003 z" /><path
               id="path62"
               style="fill:none;stroke:#231f20;stroke-width:1;stroke-linecap:butt;stroke-linejoin:miter;stroke-miterlimit:4;stroke-dasharray:none;stroke-opacity:1"
               d="m 59.307003,84.615005 -4.951,3.082001 -6.056999,1.950997 -6.263001,0.161003 L 37.359001,87.974007 32.681,86.138 28.231001,83.857002 22.458,79.775002 20.495001,74.835007 21.43,70.82 l 0.045,-4.473 -1.757999,-3.146999 -1.073,-4.483998 -1.302,-4.038002 0.945999,-5.133998 2.498001,-3.776001 3.376,-2.202 3.821001,-1.974999 3.136997,-0.640003 3.582004,-0.410999 3.114998,1.597 4.222,2.726002 3.776001,2.496998 3.091999,3.832 3.982998,4.289002 2.441002,1.813 1.747002,4.265995 1.528999,3.594001 1.507,5.829003 1.301003,4.038002 -0.033,3.352997 -0.251,2.680999 z" /><text
               id="text66"
               style="font-variant:normal;font-weight:normal;font-size:11.95500088px;font-family:Times;-inkscape-font-specification:Times-Roman;writing-mode:lr-tb;fill:#231f20;fill-opacity:1;fill-rule:nonzero;stroke:none"
               transform="matrix(1,0,0,-1,36.4268,4.9450002)"><tspan
                 id="tspan64"
                 y="0"
                 x="0 3.9810154 9.2890358 13.270051">(a) </tspan></text>
<text
               id="text70"
               style="font-variant:normal;font-weight:normal;font-size:11.95500088px;font-family:Times;-inkscape-font-specification:Times-Roman;writing-mode:lr-tb;fill:#231f20;fill-opacity:1;fill-rule:nonzero;stroke:none"
               transform="matrix(1,0,0,-1,153.39453,4.9450002)"><tspan
                 id="tspan68"
                 y="0"
                 x="0 3.9810154 9.9585161 13.939531">(b) </tspan></text>
<text
               id="text74"
               style="font-variant:normal;font-weight:normal;font-size:11.95500088px;font-family:Times;-inkscape-font-specification:Times-Roman;writing-mode:lr-tb;fill:#231f20;fill-opacity:1;fill-rule:nonzero;stroke:none"
               transform="matrix(1,0,0,-1,279.32735,4.9450002)"><tspan
                 id="tspan72"
                 y="0"
                 x="0 3.9810154 9.2890358">(c)</tspan></text>
<path
               id="path76"
               style="fill:#ffffff;fill-opacity:1;fill-rule:nonzero;stroke:none"
               d="m 308.5,80.934006 c 0,-6.075005 -4.92398,-11 -11,-11 -6.07498,0 -11,4.924995 -11,11 0,6.074997 4.92502,11 11,11 6.07602,0 11,-4.925003 11,-11" /><path
               id="path78"
               style="fill:none;stroke:#d3d2d2;stroke-width:1;stroke-linecap:butt;stroke-linejoin:miter;stroke-miterlimit:4;stroke-dasharray:none;stroke-opacity:1"
               d="m 308.5,80.934006 c 0,-6.075005 -4.92398,-11 -11,-11 -6.07498,0 -11,4.924995 -11,11 0,6.074997 4.92502,11 11,11 6.07602,0 11,-4.925003 11,-11 z" /><text
               id="text82"
               style="font-variant:normal;font-weight:normal;font-size:11.95500088px;font-family:CMMI12;-inkscape-font-specification:CMMI12;writing-mode:lr-tb;fill:#231f20;fill-opacity:1;fill-rule:nonzero;stroke:none"
               transform="matrix(1,0,0,-1,278.99701,36.027798)"><tspan
                 id="tspan80"
                 y="0"
                 x="0">C</tspan></text>
<text
               id="text86"
               style="font-variant:normal;font-weight:normal;font-size:11.95500088px;font-family:CMMI12;-inkscape-font-specification:CMMI12;writing-mode:lr-tb;fill:#231f20;fill-opacity:1;fill-rule:nonzero;stroke:none"
               transform="matrix(1,0,0,-1,322.13184,75.860664)"><tspan
                 id="tspan84"
                 y="0"
                 x="0">C</tspan></text>
<text
               id="text90"
               style="font-variant:normal;font-weight:normal;font-size:7.96999979px;font-family:CMR8;-inkscape-font-specification:CMR8;writing-mode:lr-tb;fill:#231f20;fill-opacity:1;fill-rule:nonzero;stroke:none"
               transform="matrix(1,0,0,-1,330.50702,74.067299)"><tspan
                 id="tspan88"
                 y="0"
                 x="0">2</tspan></text>
<path
               id="path92"
               style="fill:none;stroke:#231f20;stroke-width:1;stroke-linecap:butt;stroke-linejoin:miter;stroke-miterlimit:4;stroke-dasharray:none;stroke-opacity:1"
               d="m 285.043,67.336006 -3.46399,2.155998 -4.241,1.366997 -4.384,0.112999 -3.27402,-1.284996 -3.27398,-1.285004 -3.11499,-1.596 -4.04102,-2.857998 -1.37399,-3.458004 0.65399,-2.810997 0.031,-3.129997 -1.22998,-2.204003 -0.75103,-3.139 -0.91198,-2.826004 0.66301,-3.593994 1.74799,-2.644001 2.36301,-1.542 2.67599,-1.381 2.19501,-0.448002 2.50699,-0.286999 2.17999,1.116001 2.95602,1.909001 2.64298,1.748001 2.16501,2.682995 2.78799,3.002002 1.70902,1.269001 1.22198,2.987 1.07001,2.514999 1.056,4.080002 0.91,2.826 -0.022,2.348 -0.176,1.876999 z M 171.5,44.434002 l 2.5,-0.25 5,3 4.5,4.5 3,5.5 1,10.000004 v 5 l -1,7 -3.5,4 -4,1 -4,2 -2,3 -3.5,3 -3,3 -5,1.5 -4.5,-0.5 -3.5,-2 -3.5,-2.5 -2,-2.5 -2,-3 v -3.5 l 0.5,-5 0.5,-4.5 2,-4.5 2,-5.500004 0.5,-3 3,-3.5 2.5,-3 4.5,-4 3,-3 3,-1.5 2.5,-1 h 2 m 131,13.916 2.5,-0.166 5,3 4.5,4.500004 3,5.5 1,10 v 5 l -1,7 -3.5,4 -4,1 -4,2 -2,3.000004 -3.5,3 -3,3 -5,1.5 -4.5,-0.5 -3.5,-2 -3.5,-2.5 -2,-2.5 -2,-3.000004 v -3.5 l 0.5,-5 0.5,-4.5 2,-4.5 2,-5.5 0.5,-3 3,-3.5 2.5,-3 4.5,-4.000004 3,-3 3,-1.5 2.5,-1 h 2" /><text
               id="text96"
               style="font-variant:normal;font-weight:normal;font-size:7.96999979px;font-family:CMR8;-inkscape-font-specification:CMR8;writing-mode:lr-tb;fill:#231f20;fill-opacity:1;fill-rule:nonzero;stroke:none"
               transform="matrix(1,0,0,-1,287.00702,33.233799)"><tspan
                 id="tspan94"
                 y="0"
                 x="0">1</tspan></text>
</g></g></g></g></g></svg>