<?xml version="1.0" encoding="UTF-8" standalone="no"?>
<svg
   xmlns:dc="http://purl.org/dc/elements/1.1/"
   xmlns:cc="http://creativecommons.org/ns#"
   xmlns:rdf="http://www.w3.org/1999/02/22-rdf-syntax-ns#"
   xmlns:svg="http://www.w3.org/2000/svg"
   xmlns="http://www.w3.org/2000/svg"
   viewBox="0 0 340 225.33333"
   height="225.33333"
   width="340"
   xml:space="preserve"
   id="svg2"
   version="1.1"><metadata
     id="metadata8"><rdf:RDF><cc:Work
         rdf:about=""><dc:format>image/svg+xml</dc:format><dc:type
           rdf:resource="http://purl.org/dc/dcmitype/StillImage" /></cc:Work></rdf:RDF></metadata><defs
     id="defs6"><clipPath
       id="clipPath24"
       clipPathUnits="userSpaceOnUse"><path
         id="path22"
         d="M 0,0 H 255 V 169 H 0 Z" /></clipPath></defs><g
     transform="matrix(1.3333333,0,0,-1.3333333,0,225.33333)"
     id="g10"><g
       id="g12" /><g
       id="g14" /><g
       id="g16"><g
         id="g18"><g
           clip-path="url(#clipPath24)"
           id="g20"><g
             id="g26" /><g
             id="g28"><path
               id="path30"
               style="fill:#bfbfbf;fill-opacity:1;fill-rule:nonzero;stroke:#bfbfbf;stroke-width:1;stroke-linecap:butt;stroke-linejoin:miter;stroke-miterlimit:4;stroke-dasharray:none;stroke-opacity:1"
               d="m 130.75,48.352001 c 62.05701,23.027996 104.98701,61.582009 95.88501,86.111999 -9.103,24.53 -66.79001,25.74801 -128.848007,2.72001 C 35.73,114.15701 -7.1990004,75.603004 1.9030001,51.073002 11.005,26.543001 68.693001,25.325001 130.75,48.352001 Z" /><path
               id="path32"
               style="fill:#ffffff;fill-opacity:1;fill-rule:nonzero;stroke:#231f20;stroke-width:1;stroke-linecap:butt;stroke-linejoin:miter;stroke-miterlimit:4;stroke-dasharray:none;stroke-opacity:1"
               d="M 17.334002,13 H 241.33401" /><path
               id="path34"
               style="fill:#231f20;fill-opacity:1;fill-rule:nonzero;stroke:none"
               d="m 240.31401,13 -2.19099,3.603001 0.123,0.082 5.875,-2.334 c 2.04699,-0.45 4.09399,-0.900001 6.14099,-1.351001 -2.047,-0.45 -4.094,-0.9 -6.14099,-1.351 l -5.875,-2.3339995 -0.123,0.062 L 240.31401,13" /><path
               id="path36"
               style="fill:#ffffff;fill-opacity:1;fill-rule:nonzero;stroke:#231f20;stroke-width:1;stroke-linecap:butt;stroke-linejoin:miter;stroke-miterlimit:4;stroke-dasharray:none;stroke-opacity:1"
               d="M 28.667002,1.6670001 V 157.66701" /><path
               id="path38"
               style="fill:#231f20;fill-opacity:1;fill-rule:nonzero;stroke:none"
               d="m 28.667002,156.647 -3.603001,-2.19099 -0.082,0.123 2.333001,5.875 c 0.451,2.047 0.901001,4.09399 1.352001,6.14099 0.449999,-2.047 0.899999,-4.09399 1.351,-6.14099 l 2.333,-5.875 -0.061,-0.123 -3.622999,2.19099" /><text
               id="text42"
               style="font-variant:normal;font-weight:normal;font-size:11.95500088px;font-family:CMMI12;-inkscape-font-specification:CMMI12;writing-mode:lr-tb;fill:#231f20;fill-opacity:1;fill-rule:nonzero;stroke:none"
               transform="matrix(1,0,0,-1,247.91849,3.3651998)"><tspan
                 id="tspan40"
                 y="0"
                 x="0">x</tspan></text>
<text
               id="text46"
               style="font-variant:normal;font-weight:normal;font-size:11.95500088px;font-family:CMMI12;-inkscape-font-specification:CMMI12;writing-mode:lr-tb;fill:#231f20;fill-opacity:1;fill-rule:nonzero;stroke:none"
               transform="matrix(1,0,0,-1,16.276003,159.36481)"><tspan
                 id="tspan44"
                 y="0"
                 x="0">y</tspan></text>
<path
               id="path48"
               style="fill:none;stroke:#000000;stroke-width:1;stroke-linecap:butt;stroke-linejoin:miter;stroke-miterlimit:4;stroke-dasharray:none;stroke-opacity:1"
               d="m 67.5,81 5.5,5 6.5,4 7,1.5 L 93,91 h 6 l 5.5,2 5.5,3 6,5 3,5.5 1.5,7.5 1,6.5 3.5,5 2.5,2 4,2 4,0.5 h 5 l 4,-0.5 4.5,-1 4,-1.5 4,-1 3,-1 3.5,-0.5 2,-1.5 4,-1 3.5,-1 3,-1.5" /><path
               id="path50"
               style="fill:#000000;fill-opacity:1;fill-rule:nonzero;stroke:none"
               d="m 156.5,85 -1.97299,3.726006 0.127,0.074 5.72598,-2.676002 c 2.01701,-0.571 4.03401,-1.141999 6.05103,-1.711998 -2.07001,-0.329003 -4.14002,-0.656998 -6.21001,-0.986 L 154.218,81.444 154.09901,81.513 156.5,85" /><path
               id="path52"
               style="fill:#231f20;fill-opacity:1;fill-rule:nonzero;stroke:#000000;stroke-width:1;stroke-linecap:butt;stroke-linejoin:miter;stroke-miterlimit:4;stroke-dasharray:none;stroke-opacity:1"
               d="m 67.5,79 c 1.094002,0 1.979996,0.886002 1.979996,1.979996 0,1.09301 -0.885994,1.980003 -1.979996,1.980003 -1.092995,0 -1.980003,-0.886993 -1.980003,-1.980003 C 65.519997,79.886002 66.407005,79 67.5,79 Z" /><path
               id="path54"
               style="fill:#231f20;fill-opacity:1;fill-rule:nonzero;stroke:#000000;stroke-width:1;stroke-linecap:butt;stroke-linejoin:miter;stroke-miterlimit:4;stroke-dasharray:none;stroke-opacity:1"
               d="m 176,118 c 1.09401,0 1.98,0.88601 1.98,1.98 0,1.09301 -0.88599,1.98 -1.98,1.98 -1.09299,0 -1.98001,-0.88699 -1.98001,-1.98 0,-1.09399 0.88702,-1.98 1.98001,-1.98 z" /><path
               id="path56"
               style="fill:none;stroke:#000000;stroke-width:1;stroke-linecap:butt;stroke-linejoin:miter;stroke-miterlimit:4;stroke-dasharray:none;stroke-opacity:1"
               d="M 67.5,80.979996 70,76.5 73.5,73 76.5,72 80,71.5 82,71 h 4.5 l 3,0.5 2.5,1 2,1 3.5,0.5 h 2.5 l 2.5,-0.5 h 8 l 2,-0.5 h 5 l 2.5,1 3.5,1 2.5,0.5 2.5,1 2.5,1.5 2,0.5 3,1 3.5,1 4,1.5 3.5,1.5 2,0.5 3,1 h 11.5 l 2.5,-0.5 2,-0.5 2.5,-0.5 3,-0.5 2.5,0.5 2,0.5 2.5,2 2,2 1,2 0.5,3 v 3 l 0.5,2.5 v 6 l -1,2.5 -2.5,5 -1,2.5 -1.5,2 -2.5,3.48" /><text
               id="text60"
               style="font-variant:normal;font-weight:normal;font-size:11.95500088px;font-family:CMMI12;-inkscape-font-specification:CMMI12;writing-mode:lr-tb;fill:#231f20;fill-opacity:1;fill-rule:nonzero;stroke:none"
               transform="matrix(1,0,0,-1,55.8367,78.011299)"><tspan
                 id="tspan58"
                 y="0"
                 x="0">A</tspan></text>
<text
               id="text64"
               style="font-variant:normal;font-weight:normal;font-size:11.95500088px;font-family:CMMI12;-inkscape-font-specification:CMMI12;writing-mode:lr-tb;fill:#231f20;fill-opacity:1;fill-rule:nonzero;stroke:none"
               transform="matrix(1,0,0,-1,180.01329,121.51077)"><tspan
                 id="tspan62"
                 y="0"
                 x="0">B</tspan></text>
<text
               id="text68"
               style="font-variant:normal;font-weight:normal;font-size:11.95500088px;font-family:CMMI12;-inkscape-font-specification:CMMI12;writing-mode:lr-tb;fill:#231f20;fill-opacity:1;fill-rule:nonzero;stroke:none"
               transform="matrix(1,0,0,-1,157.91208,72.011086)"><tspan
                 id="tspan66"
                 y="0"
                 x="0">C</tspan></text>
<text
               id="text72"
               style="font-variant:normal;font-weight:normal;font-size:11.95500088px;font-family:CMMI12;-inkscape-font-specification:CMMI12;writing-mode:lr-tb;fill:#231f20;fill-opacity:1;fill-rule:nonzero;stroke:none"
               transform="matrix(1,0,0,-1,118.54665,129.51105)"><tspan
                 id="tspan70"
                 y="0"
                 x="0">D</tspan></text>
<text
               id="text76"
               style="font-variant:normal;font-weight:normal;font-size:11.95500088px;font-family:CMMI12;-inkscape-font-specification:CMMI12;writing-mode:lr-tb;fill:#231f20;fill-opacity:1;fill-rule:nonzero;stroke:none"
               transform="matrix(1,0,0,-1,124.49905,64.999474)"><tspan
                 id="tspan74"
                 y="0"
                 x="0">E</tspan></text>
<path
               id="path78"
               style="fill:#231f20;fill-opacity:1;fill-rule:nonzero;stroke:#000000;stroke-width:1;stroke-linecap:butt;stroke-linejoin:miter;stroke-miterlimit:4;stroke-dasharray:none;stroke-opacity:1"
               d="m 126,73.5 c 1.09401,0 1.98,0.886002 1.98,1.979996 0,1.09301 -0.88599,1.980003 -1.98,1.980003 -1.09299,0 -1.98,-0.886993 -1.98,-1.980003 C 124.02,74.386002 124.90701,73.5 126,73.5 Z" /><path
               id="path80"
               style="fill:#231f20;fill-opacity:1;fill-rule:nonzero;stroke:#000000;stroke-width:1;stroke-linecap:butt;stroke-linejoin:miter;stroke-miterlimit:4;stroke-dasharray:none;stroke-opacity:1"
               d="m 127,125.5 c 1.09401,0 1.98,0.88601 1.98,1.98 0,1.09301 -0.88599,1.97999 -1.98,1.97999 -1.09299,0 -1.98,-0.88698 -1.98,-1.97999 0,-1.09399 0.88701,-1.98 1.98,-1.98 z" /></g></g></g></g></g></svg>