<?xml version="1.0" encoding="UTF-8" standalone="no"?>
<svg
   xmlns:dc="http://purl.org/dc/elements/1.1/"
   xmlns:cc="http://creativecommons.org/ns#"
   xmlns:rdf="http://www.w3.org/1999/02/22-rdf-syntax-ns#"
   xmlns:svg="http://www.w3.org/2000/svg"
   xmlns="http://www.w3.org/2000/svg"
   viewBox="0 0 340 225.33333"
   height="225.33333"
   width="340"
   xml:space="preserve"
   id="svg2"
   version="1.1"><metadata
     id="metadata8"><rdf:RDF><cc:Work
         rdf:about=""><dc:format>image/svg+xml</dc:format><dc:type
           rdf:resource="http://purl.org/dc/dcmitype/StillImage" /></cc:Work></rdf:RDF></metadata><defs
     id="defs6"><clipPath
       id="clipPath24"
       clipPathUnits="userSpaceOnUse"><path
         id="path22"
         d="M 0,0 H 255 V 169 H 0 Z" /></clipPath></defs><g
     transform="matrix(1.3333333,0,0,-1.3333333,0,225.33333)"
     id="g10"><g
       id="g12" /><g
       id="g14" /><g
       id="g16"><g
         id="g18"><g
           clip-path="url(#clipPath24)"
           id="g20"><g
             id="g26" /><g
             id="g28"><path
               id="path30"
               style="fill:#bfbfbf;fill-opacity:1;fill-rule:nonzero;stroke:#000000;stroke-width:1;stroke-linecap:butt;stroke-linejoin:miter;stroke-miterlimit:4;stroke-dasharray:none;stroke-opacity:1"
               d="m 130.75101,48.353001 c 62.057,23.026996 104.986,61.581009 95.884,86.110999 -9.103,24.53 -66.79001,25.74801 -128.847008,2.72001 C 35.731003,114.15701 -7.1990004,75.603004 1.9030001,51.073002 11.005,26.543001 68.693001,25.325001 130.75101,48.353001 Z" /><path
               id="path32"
               style="fill:#ffffff;fill-opacity:1;fill-rule:nonzero;stroke:#231f20;stroke-width:1;stroke-linecap:butt;stroke-linejoin:miter;stroke-miterlimit:4;stroke-dasharray:none;stroke-opacity:1"
               d="M 17.334002,13 H 241.33401" /><path
               id="path34"
               style="fill:#231f20;fill-opacity:1;fill-rule:nonzero;stroke:none"
               d="m 240.31401,13 -2.19099,3.603001 0.123,0.082 5.875,-2.334 c 2.04699,-0.45 4.09399,-0.900001 6.14099,-1.351001 -2.047,-0.45 -4.094,-0.9 -6.14099,-1.351 l -5.875,-2.3339995 -0.123,0.062 L 240.31401,13" /><path
               id="path36"
               style="fill:#ffffff;fill-opacity:1;fill-rule:nonzero;stroke:#231f20;stroke-width:1;stroke-linecap:butt;stroke-linejoin:miter;stroke-miterlimit:4;stroke-dasharray:none;stroke-opacity:1"
               d="M 28.667002,1.6670001 V 157.66701" /><path
               id="path38"
               style="fill:#231f20;fill-opacity:1;fill-rule:nonzero;stroke:none"
               d="m 28.667002,156.647 -3.603001,-2.19099 -0.082,0.123 2.333001,5.875 c 0.451,2.047 0.901001,4.09399 1.352001,6.14099 0.449999,-2.047 0.899999,-4.09399 1.351,-6.14099 l 2.333,-5.875 -0.061,-0.123 -3.622999,2.19099" /><text
               id="text42"
               style="font-variant:normal;font-weight:normal;font-size:11.95500088px;font-family:CMMI12;-inkscape-font-specification:CMMI12;writing-mode:lr-tb;fill:#231f20;fill-opacity:1;fill-rule:nonzero;stroke:none"
               transform="matrix(1,0,0,-1,247.91849,3.3651998)"><tspan
                 id="tspan40"
                 y="0"
                 x="0">x</tspan></text>
<text
               id="text46"
               style="font-variant:normal;font-weight:normal;font-size:11.95500088px;font-family:CMMI12;-inkscape-font-specification:CMMI12;writing-mode:lr-tb;fill:#231f20;fill-opacity:1;fill-rule:nonzero;stroke:none"
               transform="matrix(1,0,0,-1,16.276003,159.36481)"><tspan
                 id="tspan44"
                 y="0"
                 x="0">y</tspan></text>
<path
               id="path48"
               style="fill:#ffffff;fill-opacity:1;fill-rule:nonzero;stroke:#000000;stroke-width:1;stroke-linecap:butt;stroke-linejoin:miter;stroke-miterlimit:4;stroke-dasharray:none;stroke-opacity:1"
               d="M 67.5,80.979996 70,76.5 73.5,73 76.5,72 80,71.5 82,71 h 4.5 l 3,0.5 2.5,1 2,1 3.5,0.5 h 2.5 l 2.5,-0.5 h 8 l 2,-0.5 h 5 l 2.5,1 3.5,1 2.5,0.5 2.5,1 2.5,1.5 2,0.5 3,1 3.5,1 4,1.5 3.5,1.5 2,0.5 3,1 h 11.5 l 2.5,-0.5 2,-0.5 2.5,-0.5 3,-0.5 2.5,0.5 2,0.5 2.5,2 2,2 1,2 0.5,3 v 3 l 0.5,2.5 v 6 l -1,2.5 -2.5,5 -1,2.5 -1.5,2 -2.5,3.48" /><text
               id="text52"
               style="font-variant:normal;font-weight:normal;font-size:11.95500088px;font-family:CMMI12;-inkscape-font-specification:CMMI12;writing-mode:lr-tb;fill:#231f20;fill-opacity:1;fill-rule:nonzero;stroke:none"
               transform="matrix(1,0,0,-1,107.8369,32.0112)"><tspan
                 id="tspan50"
                 y="0"
                 x="0">A</tspan></text>
<text
               id="text56"
               style="font-variant:normal;font-weight:normal;font-size:11.95500088px;font-family:CMMI12;-inkscape-font-specification:CMMI12;writing-mode:lr-tb;fill:#231f20;fill-opacity:1;fill-rule:nonzero;stroke:none"
               transform="matrix(1,0,0,-1,100.51327,76.011581)"><tspan
                 id="tspan54"
                 y="0"
                 x="0">B</tspan></text>
<text
               id="text60"
               style="font-variant:normal;font-weight:normal;font-size:11.95500088px;font-family:CMMI12;-inkscape-font-specification:CMMI12;writing-mode:lr-tb;fill:#231f20;fill-opacity:1;fill-rule:nonzero;stroke:none"
               transform="matrix(1,0,0,-1,186.99933,155.00066)"><tspan
                 id="tspan58"
                 y="0"
                 x="0">E</tspan></text>
<path
               id="path62"
               style="fill:#231f20;fill-opacity:1;fill-rule:nonzero;stroke:#000000;stroke-width:1;stroke-linecap:butt;stroke-linejoin:miter;stroke-miterlimit:4;stroke-dasharray:none;stroke-opacity:1"
               d="m 109,39.5 c 1.094,0 1.98,0.887001 1.98,1.98 0,1.093002 -0.886,1.979999 -1.98,1.979999 -1.09299,0 -1.98,-0.886997 -1.98,-1.979999 0,-1.092999 0.88701,-1.98 1.98,-1.98 z" /><path
               id="path64"
               style="fill:#ffffff;fill-opacity:1;fill-rule:nonzero;stroke:#000000;stroke-width:1;stroke-linecap:butt;stroke-linejoin:miter;stroke-miterlimit:4;stroke-dasharray:none;stroke-opacity:1"
               d="m 176,118.52 -2.5,4.48 -3.5,3.5 -3,1 -3.5,0.5 -2,0.5 H 157 l -3,-0.5 -2.5,-1 -2,-1 -3.5,-0.5 h -2.5 L 141,126 h -8 l -2,0.5 h -5 l -2.5,-1 -3.5,-1 -2.5,-0.5 -2.5,-1 -2.5,-1.5 -2,-0.5 -3,-1 -3.5,-1 -4,-1.5 -3.5,-1.5 -2,-0.5 -3,-1 H 80 l -2.5,0.5 -2,0.5 -2.5,0.5 -3,0.5 -2.5,-0.5 -2,-0.5 -2.5,-2 -2,-2 -1,-2 -0.5,-3 v -3 L 59,101 v -6 l 1,-2.5 2.5,-5 1,-2.5 1.5,-2 2.5,-3.480003" /><path
               id="path66"
               style="fill:#231f20;fill-opacity:1;fill-rule:nonzero;stroke:#000000;stroke-width:1;stroke-linecap:butt;stroke-linejoin:miter;stroke-miterlimit:4;stroke-dasharray:none;stroke-opacity:1"
               d="m 102,71 c 1.094,0 1.98,0.887001 1.98,1.979996 0,1.094009 -0.886,1.980003 -1.98,1.980003 -1.09299,0 -1.98,-0.885994 -1.98,-1.980003 C 100.02,71.887001 100.90701,71 102,71 Z" /><path
               id="path68"
               style="fill:#231f20;fill-opacity:1;fill-rule:nonzero;stroke:#000000;stroke-width:1;stroke-linecap:butt;stroke-linejoin:miter;stroke-miterlimit:4;stroke-dasharray:none;stroke-opacity:1"
               d="m 183,152 c 1.09401,0 1.98,0.88701 1.98,1.98 0,1.09401 -0.88599,1.97999 -1.98,1.97999 -1.09299,0 -1.98001,-0.88598 -1.98001,-1.97999 0,-1.09299 0.88702,-1.98 1.98001,-1.98 z" /><path
               id="path70"
               style="fill:#cbcbcb;fill-opacity:1;fill-rule:nonzero;stroke:#000000;stroke-width:1;stroke-linecap:butt;stroke-linejoin:miter;stroke-miterlimit:4;stroke-dasharray:none;stroke-opacity:1"
               d="M 102.5,73.5 109,42" /><path
               id="path72"
               style="fill:#000000;fill-opacity:1;fill-rule:nonzero;stroke:none"
               d="m 107.94601,119.54 -3.58701,2.216 0.073,0.129 6.294,0.58701 c 2.028,0.527 4.05699,1.055 6.08499,1.582 -1.62,-1.33 -3.23899,-2.66001 -4.859,-3.99001 l -4.17599,-4.74599 -0.137,-0.001 0.307,4.22299" /><path
               id="path74"
               style="fill:#000000;fill-opacity:1;fill-rule:nonzero;stroke:none"
               d="m 114.94901,57.319004 2.48,2.286999 0.083,-0.083 -0.90201,-4.976002 c -0.03,-1.677002 -0.06,-3.352997 -0.089,-5.028999 -0.677,1.534 -1.35299,3.068 -2.03,4.601997 l -2.758,4.239002 0.029,0.106003 3.187,-1.146" /><path
               id="path76"
               style="fill:#cbcbcb;fill-opacity:1;fill-rule:nonzero;stroke:#000000;stroke-width:1;stroke-linecap:butt;stroke-linejoin:miter;stroke-miterlimit:4;stroke-dasharray:none;stroke-opacity:1"
               d="m 112.716,66.945 1.959,-9.490998" /><path
               id="path78"
               style="fill:#000000;fill-opacity:1;fill-rule:nonzero;stroke:none"
               d="m 96.434006,55.378002 -2.479004,-2.286999 -0.084,0.084 0.902001,4.974995 c 0.03,1.677005 0.061,3.353004 0.09,5.030002 0.676994,-1.533996 1.352996,-3.068996 2.029998,-4.602997 l 2.756997,-4.239002 -0.028,-0.105999 -3.187996,1.146" /><path
               id="path80"
               style="fill:#cbcbcb;fill-opacity:1;fill-rule:nonzero;stroke:#000000;stroke-width:1;stroke-linecap:butt;stroke-linejoin:miter;stroke-miterlimit:4;stroke-dasharray:none;stroke-opacity:1"
               d="m 98.668007,45.752003 -1.959,9.491001" /><path
               id="path82"
               style="fill:#000000;fill-opacity:1;fill-rule:nonzero;stroke:none"
               d="m 165.51701,153.48801 2.779,-3.17 L 168.19,150.216 162,151.5 c -2.09399,0.09 -4.18799,0.17999 -6.282,0.27101 1.93801,0.797 3.877,1.594 5.81601,2.39099 l 5.383,3.31201 0.132,-0.039 -1.532,-3.947" /><path
               id="path84"
               style="fill:#000000;fill-opacity:1;fill-rule:nonzero;stroke:none"
               d="m 144,53.5 -3.586,2.216003 0.072,0.128998 6.29399,0.587002 c 2.02801,0.527 4.05601,1.055 6.08501,1.583 -1.62,-1.331001 -3.239,-2.660999 -4.859,-3.991001 l -4.176,-4.745998 -0.138,-0.001 L 144,53.5" /><path
               id="path86"
               style="fill:#231f20;fill-opacity:1;fill-rule:nonzero;stroke:#000000;stroke-width:1;stroke-linecap:butt;stroke-linejoin:miter;stroke-miterlimit:4;stroke-dasharray:none;stroke-opacity:1"
               d="m 146,123.52 c 1.09401,0 1.98,0.88601 1.98,1.98 0,1.093 -0.88599,1.98 -1.98,1.98 -1.09299,0 -1.98,-0.887 -1.98,-1.98 0,-1.09399 0.88701,-1.98 1.98,-1.98 z" /><text
               id="text90"
               style="font-variant:normal;font-weight:normal;font-size:11.95500088px;font-family:CMMI12;-inkscape-font-specification:CMMI12;writing-mode:lr-tb;fill:#231f20;fill-opacity:1;fill-rule:nonzero;stroke:none"
               transform="matrix(1,0,0,-1,150.5596,45.5112)"><tspan
                 id="tspan88"
                 y="0"
                 x="0">C</tspan></text>
<text
               id="text94"
               style="font-variant:normal;font-weight:normal;font-size:7.96999979px;font-family:CMR8;-inkscape-font-specification:CMR8;writing-mode:lr-tb;fill:#231f20;fill-opacity:1;fill-rule:nonzero;stroke:none"
               transform="matrix(1,0,0,-1,158.9346,43.7173)"><tspan
                 id="tspan92"
                 y="0"
                 x="0">1</tspan></text>
<text
               id="text98"
               style="font-variant:normal;font-weight:normal;font-size:11.95500088px;font-family:CMMI12;-inkscape-font-specification:CMMI12;writing-mode:lr-tb;fill:#231f20;fill-opacity:1;fill-rule:nonzero;stroke:none"
               transform="matrix(1,0,0,-1,111.06879,108.5112)"><tspan
                 id="tspan96"
                 y="0"
                 x="0">C</tspan></text>
<text
               id="text102"
               style="font-variant:normal;font-weight:normal;font-size:7.96999979px;font-family:CMR8;-inkscape-font-specification:CMR8;writing-mode:lr-tb;fill:#231f20;fill-opacity:1;fill-rule:nonzero;stroke:none"
               transform="matrix(1,0,0,-1,119.44379,106.7173)"><tspan
                 id="tspan100"
                 y="0"
                 x="0">2</tspan></text>
<text
               id="text106"
               style="font-variant:normal;font-weight:normal;font-size:11.95500088px;font-family:CMMI12;-inkscape-font-specification:CMMI12;writing-mode:lr-tb;fill:#231f20;fill-opacity:1;fill-rule:nonzero;stroke:none"
               transform="matrix(1,0,0,-1,145.5,130.5)"><tspan
                 id="tspan104"
                 y="0"
                 x="0">F</tspan></text>
</g></g></g></g></g></svg>