<?xml version="1.0" encoding="UTF-8" standalone="no"?>
<svg
   xmlns:dc="http://purl.org/dc/elements/1.1/"
   xmlns:cc="http://creativecommons.org/ns#"
   xmlns:rdf="http://www.w3.org/1999/02/22-rdf-syntax-ns#"
   xmlns:svg="http://www.w3.org/2000/svg"
   xmlns="http://www.w3.org/2000/svg"
   viewBox="0 0 225.33333 153.33333"
   height="153.33333"
   width="225.33333"
   xml:space="preserve"
   id="svg2"
   version="1.1"><metadata
     id="metadata8"><rdf:RDF><cc:Work
         rdf:about=""><dc:format>image/svg+xml</dc:format><dc:type
           rdf:resource="http://purl.org/dc/dcmitype/StillImage" /></cc:Work></rdf:RDF></metadata><defs
     id="defs6"><clipPath
       id="clipPath24"
       clipPathUnits="userSpaceOnUse"><path
         id="path22"
         d="M 0,0 H 169 V 115 H 0 Z" /></clipPath><clipPath
       id="clipPath38"
       clipPathUnits="userSpaceOnUse"><path
         id="path36"
         d="M 0,0.06000519 H 168.79401 V 114.49901 H 0 Z" /></clipPath></defs><g
     transform="matrix(1.3333333,0,0,-1.3333333,0,153.33333)"
     id="g10"><g
       id="g12" /><g
       id="g14" /><g
       id="g16"><g
         id="g18"><g
           clip-path="url(#clipPath24)"
           id="g20"><g
             id="g26" /><g
             id="g28"><path
               id="path30"
               style="fill:#ffffff;fill-opacity:1;fill-rule:nonzero;stroke:none"
               d="M 0,49.407001 H 156.80101" /></g><g
             id="g32"><g
               clip-path="url(#clipPath38)"
               id="g34"><path
                 id="path40"
                 style="fill:none;stroke:#231f20;stroke-width:1;stroke-linecap:butt;stroke-linejoin:miter;stroke-miterlimit:4;stroke-dasharray:none;stroke-opacity:1"
                 d="M 0,49.407001 H 156.80101" /><path
                 id="path42"
                 style="fill:#231f20;fill-opacity:1;fill-rule:nonzero;stroke:none"
                 d="m 156.08701,49.407001 -1.534,2.522 0.086,0.057 4.112,-1.633003 c 1.433,-0.314999 2.867,-0.630997 4.29899,-0.946 -1.43199,-0.315998 -2.86599,-0.631 -4.29899,-0.945999 l -4.112,-1.632999 -0.086,0.043 1.534,2.535999" /><path
                 id="path44"
                 style="fill:#ffffff;fill-opacity:1;fill-rule:nonzero;stroke:none"
                 d="M 51.246002,0 V 103.773" /><path
                 id="path46"
                 style="fill:none;stroke:#231f20;stroke-width:1;stroke-linecap:butt;stroke-linejoin:miter;stroke-miterlimit:4;stroke-dasharray:none;stroke-opacity:1"
                 d="M 51.246002,0 V 103.773" /></g></g><g
             id="g48"><path
               id="path50"
               style="fill:#231f20;fill-opacity:1;fill-rule:nonzero;stroke:none"
               d="m 51.246002,103.05901 -2.521999,-1.533 -0.057,0.086 1.632995,4.112 c 0.315003,1.433 0.631005,2.86599 0.946003,4.29899 0.314999,-1.433 0.630001,-2.86599 0.945999,-4.29899 l 1.633,-4.112 -0.043,-0.086 -2.535999,1.533" /><text
               id="text54"
               style="font-variant:normal;font-weight:normal;font-size:11.95500088px;font-family:CMMI12;-inkscape-font-specification:CMMI12;writing-mode:lr-tb;fill:#231f20;fill-opacity:1;fill-rule:nonzero;stroke:none"
               transform="matrix(1,0,0,-1,162.14601,41.0327)"><tspan
                 id="tspan52"
                 y="0"
                 x="0">x</tspan></text>
<text
               id="text58"
               style="font-variant:normal;font-weight:normal;font-size:11.95500088px;font-family:CMMI12;-inkscape-font-specification:CMMI12;writing-mode:lr-tb;fill:#231f20;fill-opacity:1;fill-rule:nonzero;stroke:none"
               transform="matrix(1,0,0,-1,42.545792,105.53232)"><tspan
                 id="tspan56"
                 y="0"
                 x="0">y</tspan></text>
<text
               id="text62"
               style="font-variant:normal;font-weight:normal;font-size:11.95500088px;font-family:CMMI12;-inkscape-font-specification:CMMI12;writing-mode:lr-tb;fill:#231f20;fill-opacity:1;fill-rule:nonzero;stroke:none"
               transform="matrix(1,0,0,-1,55.185814,79.128502)"><tspan
                 id="tspan60"
                 y="0"
                 x="0">C</tspan></text>
<text
               id="text66"
               style="font-variant:normal;font-weight:normal;font-size:7.96999979px;font-family:CMR8;-inkscape-font-specification:CMR8;writing-mode:lr-tb;fill:#231f20;fill-opacity:1;fill-rule:nonzero;stroke:none"
               transform="matrix(1,0,0,-1,63.561005,77.334396)"><tspan
                 id="tspan64"
                 y="0"
                 x="0">1</tspan></text>
<text
               id="text70"
               style="font-variant:normal;font-weight:normal;font-size:8.36849976px;font-family:CMR12;-inkscape-font-specification:CMR12;writing-mode:lr-tb;fill:#231f20;fill-opacity:1;fill-rule:nonzero;stroke:none"
               transform="matrix(1,0,0,-1,47.536098,67.140602)"><tspan
                 id="tspan68"
                 y="0"
                 x="0">i</tspan></text>
<text
               id="text74"
               style="font-variant:normal;font-weight:normal;font-size:8.36849976px;font-family:CMR12;-inkscape-font-specification:CMR12;writing-mode:lr-tb;fill:#231f20;fill-opacity:1;fill-rule:nonzero;stroke:none"
               transform="matrix(1,0,0,-1,47.716858,25.257097)"><tspan
                 id="tspan72"
                 y="0"
                 x="0">i</tspan></text>
<path
               id="path76"
               style="fill:#231f20;fill-opacity:1;fill-rule:nonzero;stroke:none"
               d="m 42.637001,27.123001 h 4.200001" /><path
               id="path78"
               style="fill:none;stroke:#000000;stroke-width:0.80000001;stroke-linecap:butt;stroke-linejoin:miter;stroke-miterlimit:4;stroke-dasharray:none;stroke-opacity:1"
               d="m 42.637001,27.123001 h 4.200001" /><path
               id="path80"
               style="fill:#000000;fill-opacity:1;fill-rule:nonzero;stroke:none"
               d="m 57.168003,77.217003 0.103001,-1.472 -0.05101,-0.006 -1.452995,1.667999 c -0.564999,0.467995 -1.128998,0.935997 -1.694,1.404999 0.708999,-0.188003 1.417999,-0.375999 2.126999,-0.565002 l 2.202003,-0.215996 0.028,-0.038 -1.261997,-0.776001" /><path
               id="path82"
               style="fill:none;stroke:#000000;stroke-width:0.80000001;stroke-linecap:butt;stroke-linejoin:miter;stroke-miterlimit:4;stroke-dasharray:none;stroke-opacity:1"
               d="m 51.217003,58.734001 c 5.576,0 10.097,4.521004 10.097,10.098 0,5.576004 -4.521,10.097 -10.097,10.097 -5.576,0 -10.098,-4.520996 -10.098,-10.097 0,-5.576996 4.522,-10.098 10.098,-10.098 z" /></g></g></g></g></g></svg>