<?xml version="1.0" encoding="UTF-8" standalone="no"?>
<svg
   xmlns:dc="http://purl.org/dc/elements/1.1/"
   xmlns:cc="http://creativecommons.org/ns#"
   xmlns:rdf="http://www.w3.org/1999/02/22-rdf-syntax-ns#"
   xmlns:svg="http://www.w3.org/2000/svg"
   xmlns="http://www.w3.org/2000/svg"
   viewBox="0 0 598.66669 192"
   height="192"
   width="598.66669"
   xml:space="preserve"
   id="svg2"
   version="1.1"><metadata
     id="metadata8"><rdf:RDF><cc:Work
         rdf:about=""><dc:format>image/svg+xml</dc:format><dc:type
           rdf:resource="http://purl.org/dc/dcmitype/StillImage" /></cc:Work></rdf:RDF></metadata><defs
     id="defs6"><clipPath
       id="clipPath24"
       clipPathUnits="userSpaceOnUse"><path
         id="path22"
         d="M 0,0 H 449 V 144 H 0 Z" /></clipPath><clipPath
       id="clipPath34"
       clipPathUnits="userSpaceOnUse"><path
         id="path32"
         d="M 0,0.05999756 H 448.66302 V 143.12401 H 0 Z" /></clipPath><clipPath
       id="clipPath52"
       clipPathUnits="userSpaceOnUse"><path
         id="path50"
         d="M 0,0.05999756 H 448.66302 V 143.12401 H 0 Z" /></clipPath><clipPath
       id="clipPath126"
       clipPathUnits="userSpaceOnUse"><path
         id="path124"
         d="M 0,0.05999756 H 448.66302 V 143.12401 H 0 Z" /></clipPath></defs><g
     transform="matrix(1.3333333,0,0,-1.3333333,0,192)"
     id="g10"><g
       id="g12" /><g
       id="g14" /><g
       id="g16"><g
         id="g18"><g
           clip-path="url(#clipPath24)"
           id="g20"><g
             id="g26" /><g
             id="g28"><g
               clip-path="url(#clipPath34)"
               id="g30"><path
                 id="path36"
                 style="fill:none;stroke:#231f20;stroke-width:0.5;stroke-linecap:butt;stroke-linejoin:round;stroke-miterlimit:10;stroke-dasharray:none;stroke-opacity:1"
                 d="m 0.25,17.75 v 122.66701 m 0,-69.624003 h 175.33401" /></g></g><g
             id="g38"><path
               id="path40"
               style="fill:#231f20;fill-opacity:1;fill-rule:evenodd;stroke:none"
               d="m 175.58401,70.793007 v 1.333 l 3.333,-1.333 -3.333,-1.417 v 1.417" /><path
               id="path42"
               style="fill:none;stroke:#231f20;stroke-width:0.5;stroke-linecap:butt;stroke-linejoin:round;stroke-miterlimit:10;stroke-dasharray:none;stroke-opacity:1"
               d="m 175.58401,70.793007 v 1.333 l 3.333,-1.333 -3.333,-1.417 v 1.417 M 268.168,9.75 v 130.66701 m 0,-69.624003 h 175.41601" /><path
               id="path44"
               style="fill:#231f20;fill-opacity:1;fill-rule:evenodd;stroke:none"
               d="m 443.58401,70.793007 v 1.333 l 3.25,-1.333 -3.25,-1.417 v 1.417" /></g><g
             id="g46"><g
               clip-path="url(#clipPath52)"
               id="g48"><path
                 id="path54"
                 style="fill:none;stroke:#231f20;stroke-width:0.5;stroke-linecap:butt;stroke-linejoin:round;stroke-miterlimit:10;stroke-dasharray:none;stroke-opacity:1"
                 d="m 443.58401,70.793007 v 1.333 l 3.25,-1.333 -3.25,-1.417 v 1.417" /><path
                 id="path56"
                 style="fill:none;stroke:#231f20;stroke-width:1.20000005;stroke-linecap:butt;stroke-linejoin:round;stroke-miterlimit:10;stroke-dasharray:none;stroke-opacity:1"
                 d="m 160.83401,24.292002 1.834,-1.75 1.75,-1.75 1.83199,-1.75 1.83401,-1.75 1.75,-1.750001 1.834,-1.833 1.83199,-1.75 1.75,-1.834 3.66801,-3.6660009 M 0.25,135.043 2,134.293 l 3.6660004,-1.5 1.75,-0.834 1.8339996,-0.83299 1.833,-0.83301 1.75,-0.75 1.833,-0.91699 1.834,-0.833 1.75,-0.834 1.833,-0.916 1.833,-0.834 1.75,-0.916 1.834,-0.917 1.833002,-0.917 1.75,-0.916 1.834,-0.917 1.832998,-1 1.75,-0.917 1.833,-1 1.834004,-0.916 1.75,-1 1.832996,-1 1.833,-1.084 1.750004,-1 1.834,-1 1.75,-1.083 1.832996,-1.083 1.833004,-1.084 1.75,-1 1.834,-1.166 1.832996,-1.084 1.75,-1.083 1.833004,-1.167 1.834,-1.083 1.749996,-1.167 1.833,-1.166003 1.833,-1.167 1.75,-1.167 1.834,-1.166 1.833,-1.25 1.75,-1.167 1.833,-1.25 1.834007,-1.25 1.75,-1.25 3.666001,-2.5 1.75,-1.25 1.833999,-1.333 1.832993,-1.25 1.75,-1.334 1.833008,-1.333 1.75,-1.333 1.833999,-1.333008 1.832993,-1.333992 1.75,-1.416008 1.83401,-1.333992 1.833,-1.416008 1.75,-1.416992 1.83299,-1.333008 1.83401,-1.5 1.75,-1.416992 1.833,-1.417008 1.83299,-1.416 1.75,-1.5 1.83401,-1.5 1.833,-1.416996 1.75,-1.5 1.83299,-1.583004 1.83401,-1.5 1.74999,-1.5 1.83301,-1.583996 1.83299,-1.5 1.75,-1.583 1.834,-1.583004 1.834,-1.583996 1.75,-1.583 1.832,-1.584 1.75,-1.666999 1.834,-1.583001 1.83401,-1.666999 1.75,-1.667004 1.83199,-1.583 1.834,-1.75 1.75001,-1.666998 1.834,-1.666 1.83199,-1.667 1.75,-1.75 1.83401,-1.75 m 107.33399,-7.083 3.66601,1.833 1.75,0.917 1.83399,0.916 1.832,1 1.75,0.917 3.668,2 1.75,1 1.832,1 1.83401,1 1.75,1 1.83399,1.083 1.832,1 1.75,1.084 3.668,2.165998 1.75,1.084003 1.832,1.082997 1.83401,1.167003 1.75,1.083001 1.83402,1.166999 1.75,1.166001 1.83197,1.167 1.83401,1.167995 1.75,1.166004 1.83402,1.167 1.83197,1.25 1.75,1.166996 3.66803,2.5 1.75,1.25 1.83197,1.25 1.83401,1.25 1.75,1.25 1.83402,1.333004 1.83197,1.25 1.75,1.333 1.83401,1.333996 1.83402,1.333004 1.75,1.333 1.83197,1.416996 1.83401,1.333 1.75,1.417008 1.83402,1.333 1.83197,1.417 1.75,1.416992 1.83401,1.416008 1.75,1.417 1.83402,1.416992 1.83197,1.5 1.75,1.5 1.83401,1.416008 1.83402,1.5 1.75,1.5 1.83197,1.5 1.83401,1.5 1.75,1.583 1.83402,1.5 1.83197,1.584 1.75,1.583 1.83401,1.583 1.83402,1.584 1.75,1.583 1.83197,1.583992 1.83401,1.666011 1.75,1.583 1.83402,1.667 1.83197,1.667 1.75,1.66699 1.83401,1.66601 1.83402,1.667 1.75,1.666 1.83197,1.75099 1.75,1.66601 3.66803,3.5 1.75,1.75 1.83197,1.75 1.83401,1.75 1.75,1.83399 1.83402,1.75 1.83197,1.833 1.75,1.83301 1.83401,1.83398 1.83402,1.83301 1.75,1.83301 1.83197,1.83398 1.83401,1.91602 1.75,1.83398" /></g></g><g
             id="g58"><text
               id="text62"
               style="font-variant:normal;font-weight:normal;font-size:13px;font-family:Times;-inkscape-font-specification:Times-Roman;writing-mode:lr-tb;fill:#231f20;fill-opacity:1;fill-rule:nonzero;stroke:none"
               transform="matrix(1,0,0,-1,94.917007,5.3770003)"><tspan
                 id="tspan60"
                 y="0"
                 x="0 4.329 10.101">(a)</tspan></text>
<text
               id="text66"
               style="font-variant:normal;font-weight:normal;font-size:13px;font-family:Times;-inkscape-font-specification:Times-Roman;writing-mode:lr-tb;fill:#231f20;fill-opacity:1;fill-rule:nonzero;stroke:none"
               transform="matrix(1,0,0,-1,362.83664,5.3770003)"><tspan
                 id="tspan64"
                 y="0"
                 x="0 4.329 10.829">(b)</tspan></text>
<path
               id="path68"
               style="fill:none;stroke:#231f20;stroke-width:0.5;stroke-linecap:butt;stroke-linejoin:round;stroke-miterlimit:10;stroke-dasharray:none;stroke-opacity:1"
               d="m 44.916,67.209999 v 3.583008" /><text
               id="text72"
               style="font-style:italic;font-variant:normal;font-size:12px;font-family:Times;-inkscape-font-specification:Times-Italic;writing-mode:lr-tb;fill:#231f20;fill-opacity:1;fill-rule:nonzero;stroke:none"
               transform="matrix(1,0,0,-1,44.916,57.7929)"><tspan
                 id="tspan70"
                 y="0"
                 x="0">a</tspan></text>
<path
               id="path74"
               style="fill:none;stroke:#231f20;stroke-width:0.5;stroke-linecap:butt;stroke-linejoin:round;stroke-miterlimit:10;stroke-dasharray:none;stroke-opacity:1"
               d="m 89.583008,67.209999 v 3.583008" /><text
               id="text78"
               style="font-style:italic;font-variant:normal;font-size:12px;font-family:Times;-inkscape-font-specification:Times-Italic;writing-mode:lr-tb;fill:#231f20;fill-opacity:1;fill-rule:nonzero;stroke:none"
               transform="matrix(1,0,0,-1,89.583008,57.7929)"><tspan
                 id="tspan76"
                 y="0"
                 x="0">m</tspan></text>
<path
               id="path80"
               style="fill:none;stroke:#231f20;stroke-width:0.5;stroke-linecap:butt;stroke-linejoin:round;stroke-miterlimit:10;stroke-dasharray:none;stroke-opacity:1"
               d="m 134.25,67.209999 v 3.583008" /><text
               id="text84"
               style="font-style:italic;font-variant:normal;font-size:12px;font-family:Times;-inkscape-font-specification:Times-Italic;writing-mode:lr-tb;fill:#231f20;fill-opacity:1;fill-rule:nonzero;stroke:none"
               transform="matrix(1,0,0,-1,134.25,57.7929)"><tspan
                 id="tspan82"
                 y="0"
                 x="0">b</tspan></text>
<path
               id="path86"
               style="fill:none;stroke:#231f20;stroke-width:0.5;stroke-linecap:butt;stroke-linejoin:round;stroke-miterlimit:10;stroke-dasharray:none;stroke-opacity:1"
               d="m 312.83401,67.209999 v 3.583008" /><text
               id="text90"
               style="font-style:italic;font-variant:normal;font-size:12px;font-family:Times;-inkscape-font-specification:Times-Italic;writing-mode:lr-tb;fill:#231f20;fill-opacity:1;fill-rule:nonzero;stroke:none"
               transform="matrix(1,0,0,-1,312.83301,57.7929)"><tspan
                 id="tspan88"
                 y="0"
                 x="0">a</tspan></text>
<path
               id="path92"
               style="fill:none;stroke:#231f20;stroke-width:0.5;stroke-linecap:butt;stroke-linejoin:round;stroke-miterlimit:10;stroke-dasharray:none;stroke-opacity:1"
               d="m 357.5,67.209999 v 3.583008" /><text
               id="text96"
               style="font-style:italic;font-variant:normal;font-size:12px;font-family:Times;-inkscape-font-specification:Times-Italic;writing-mode:lr-tb;fill:#231f20;fill-opacity:1;fill-rule:nonzero;stroke:none"
               transform="matrix(1,0,0,-1,357.5,57.7929)"><tspan
                 id="tspan94"
                 y="0"
                 x="0">m</tspan></text>
<path
               id="path98"
               style="fill:none;stroke:#231f20;stroke-width:0.5;stroke-linecap:butt;stroke-linejoin:round;stroke-miterlimit:10;stroke-dasharray:none;stroke-opacity:1"
               d="m 402.16803,67.209999 v 3.583008" /><text
               id="text102"
               style="font-style:italic;font-variant:normal;font-size:12px;font-family:Times;-inkscape-font-specification:Times-Italic;writing-mode:lr-tb;fill:#231f20;fill-opacity:1;fill-rule:nonzero;stroke:none"
               transform="matrix(1,0,0,-1,402.16702,57.7929)"><tspan
                 id="tspan100"
                 y="0"
                 x="0">b</tspan></text>
<path
               id="path104"
               style="fill:none;stroke:#231f20;stroke-width:2;stroke-linecap:butt;stroke-linejoin:round;stroke-miterlimit:10;stroke-dasharray:none;stroke-opacity:1"
               d="M 53.833004,52.876003 H 80.5" /><path
               id="path106"
               style="fill:#231f20;fill-opacity:1;fill-rule:evenodd;stroke:none"
               d="m 80.5,52.876003 v 2.333996 l 5.5,-2.333996 -5.5,-2.25 v 2.25" /><path
               id="path108"
               style="fill:none;stroke:#231f20;stroke-width:0.5;stroke-linecap:butt;stroke-linejoin:round;stroke-miterlimit:10;stroke-dasharray:none;stroke-opacity:1"
               d="m 80.5,52.876003 v 2.333996 l 5.5,-2.333996 -5.5,-2.25 v 2.25" /><path
               id="path110"
               style="fill:none;stroke:#231f20;stroke-width:2;stroke-linecap:butt;stroke-linejoin:round;stroke-miterlimit:10;stroke-dasharray:none;stroke-opacity:1"
               d="M 400.41803,52.876003 H 373.75" /><path
               id="path112"
               style="fill:#231f20;fill-opacity:1;fill-rule:evenodd;stroke:none"
               d="m 373.75,52.876003 v -2.25 l -5.5,2.25 5.5,2.333996 v -2.333996" /><path
               id="path114"
               style="fill:none;stroke:#231f20;stroke-width:0.5;stroke-linecap:butt;stroke-linejoin:round;stroke-miterlimit:10;stroke-dasharray:none;stroke-opacity:1"
               d="m 373.75,52.876003 v -2.25 l -5.5,2.25 5.5,2.333996 v -2.333996" /><text
               id="text118"
               style="font-style:italic;font-variant:normal;font-size:12px;font-family:Times;-inkscape-font-specification:Times-Italic;writing-mode:lr-tb;fill:#231f20;fill-opacity:1;fill-rule:nonzero;stroke:none"
               transform="matrix(1,0,0,-1,175.5,58.254898)"><tspan
                 id="tspan116"
                 y="0"
                 x="0">x</tspan></text>
</g><g
             id="g120"><g
               clip-path="url(#clipPath126)"
               id="g122"><text
                 id="text130"
                 style="font-style:italic;font-variant:normal;font-size:12px;font-family:Times;-inkscape-font-specification:Times-Italic;writing-mode:lr-tb;fill:#231f20;fill-opacity:1;fill-rule:nonzero;stroke:none"
                 transform="matrix(1,0,0,-1,443.33603,58.254898)"><tspan
                   id="tspan128"
                   y="0"
                   x="0">x</tspan></text>
</g></g></g></g></g></g></svg>