<?xml version="1.0" encoding="UTF-8" standalone="no"?>
<svg
   xmlns:dc="http://purl.org/dc/elements/1.1/"
   xmlns:cc="http://creativecommons.org/ns#"
   xmlns:rdf="http://www.w3.org/1999/02/22-rdf-syntax-ns#"
   xmlns:svg="http://www.w3.org/2000/svg"
   xmlns="http://www.w3.org/2000/svg"
   viewBox="0 0 570.66669 305.33334"
   height="305.33334"
   width="570.66669"
   xml:space="preserve"
   id="svg2"
   version="1.1"><metadata
     id="metadata8"><rdf:RDF><cc:Work
         rdf:about=""><dc:format>image/svg+xml</dc:format><dc:type
           rdf:resource="http://purl.org/dc/dcmitype/StillImage" /></cc:Work></rdf:RDF></metadata><defs
     id="defs6"><clipPath
       id="clipPath24"
       clipPathUnits="userSpaceOnUse"><path
         id="path22"
         d="M 0,0 H 428 V 229 H 0 Z" /></clipPath><clipPath
       id="clipPath34"
       clipPathUnits="userSpaceOnUse"><path
         id="path32"
         d="M 0.06,0.05999756 H 427.83402 V 228.45902 H 0.06 Z" /></clipPath><clipPath
       id="clipPath50"
       clipPathUnits="userSpaceOnUse"><path
         id="path48"
         d="M 0.06,0.05999756 H 427.83402 V 228.45902 H 0.06 Z" /></clipPath></defs><g
     transform="matrix(1.3333333,0,0,-1.3333333,0,305.33333)"
     id="g10"><g
       id="g12" /><g
       id="g14" /><g
       id="g16"><g
         id="g18"><g
           clip-path="url(#clipPath24)"
           id="g20"><g
             id="g26" /><g
             id="g28"><g
               clip-path="url(#clipPath34)"
               id="g30"><path
                 id="path36"
                 style="fill:none;stroke:#231f20;stroke-width:2;stroke-linecap:butt;stroke-linejoin:round;stroke-miterlimit:10;stroke-dasharray:none;stroke-opacity:1"
                 d="M 0.25,8.2920008 H 4.5 l 4.3330002,0.082999 4.3340008,0.083 L 17.5,8.5420008 21.833,8.7080002 26.083002,8.875 l 4.334,0.1670008 4.332998,0.25 4.333,0.3329992 4.334004,0.3330002 4.25,0.3340008 L 52,10.708 l 4.333004,0.417001 4.334,0.417 4.332996,0.5 4.25,0.583 4.333,0.582999 4.334007,0.584001 4.332993,0.666 4.333008,0.667 4.25,0.75 4.333,0.832999 4.333992,0.834002 4.33401,0.832998 4.333,0.917002 4.25,1 4.33299,1 4.33401,1 4.333,1.083 4.33299,1.167 4.334,1.166 4.25,1.25 4.33301,1.25 4.33299,1.334 4.334,1.416 4.33301,1.416998 4.25,1.417 4.33299,1.583 4.33401,1.5 4.333,1.667004 4.33299,1.665996 4.25,1.75 4.33401,1.75 4.333,1.834004 4.33299,1.916 4.33401,1.917 4.25,2 4.333,2.083 4.33299,2.084 4.33401,2.166 4.333,2.167 4.25,2.333 L 229,64.542 l 4.33401,2.333 8.66599,5 4.25,2.583 4.33401,2.584007 13,8.25 4.33201,2.916001 4.25,2.917 4.33398,3 4.33401,3.083 4.33201,3.167002 4.33398,3.167 4.25,3.25 4.33401,3.333 4.33201,3.417 4.33398,3.417 4.33401,3.583 4.25,3.583 4.33201,3.667 8.66799,7.5 4.33201,3.91699 4.25,3.91701 4.33398,3.99899 4.33401,4.084 4.33201,4.166 4.33398,4.25101 4.25,4.333 4.33401,4.333 8.66599,9 4.33401,4.584 4.25,4.666 4.33201,4.75 4.33398,4.834 4.33401,4.916 4.33201,5 4.33398,5.084" /><path
                 id="path38"
                 style="fill:none;stroke:#231f20;stroke-width:0.5;stroke-linecap:butt;stroke-linejoin:round;stroke-miterlimit:10;stroke-dasharray:none;stroke-opacity:1"
                 d="M 243.08401,31.792002 H 388.75 V 196.12601 L 243.08401,31.792002 m -68.83401,0 h 68.83401 V 72.542 L 174.25,31.792002 m -18.83199,0 H 174.25 v 7.250002 l -18.83199,-7.250002 m -155.16801,0 H 424" /></g></g><g
             id="g40"><path
               id="path42"
               style="fill:#231f20;fill-opacity:1;fill-rule:evenodd;stroke:none"
               d="m 424,31.792002 v 0.083 l 3.58401,-0.083 -3.58401,-0.084 v 0.084" /></g><g
             id="g44"><g
               clip-path="url(#clipPath50)"
               id="g46"><path
                 id="path52"
                 style="fill:none;stroke:#231f20;stroke-width:0.5;stroke-linecap:butt;stroke-linejoin:round;stroke-miterlimit:10;stroke-dasharray:none;stroke-opacity:1"
                 d="m 424,31.792002 v 0.083 l 3.58401,-0.083 -3.58401,-0.084 v 0.084 M 0.25,0 v 225.00101" /></g></g><g
             id="g54"><text
               id="text58"
               style="font-variant:normal;font-weight:normal;font-size:10px;font-family:Helvetica;-inkscape-font-specification:Helvetica;writing-mode:lr-tb;fill:#231f20;fill-opacity:1;fill-rule:nonzero;stroke:none"
               transform="matrix(1,0,0,-1,6.9170003,218.45901)"><tspan
                 id="tspan56"
                 y="0"
                 x="0">y</tspan></text>
<text
               id="text62"
               style="font-style:italic;font-variant:normal;font-size:14px;font-family:Times;-inkscape-font-specification:Times-Italic;writing-mode:lr-tb;fill:#231f20;fill-opacity:1;fill-rule:nonzero;stroke:none"
               transform="matrix(1,0,0,-1,379.08301,18.542002)"><tspan
                 id="tspan60"
                 y="0"
                 x="0">x</tspan></text>
<text
               id="text66"
               style="font-style:italic;font-variant:normal;font-size:11px;font-family:Times;-inkscape-font-specification:Times-Italic;writing-mode:lr-tb;fill:#231f20;fill-opacity:1;fill-rule:nonzero;stroke:none"
               transform="matrix(1,0,0,-1,385.25,11.542001)"><tspan
                 id="tspan64"
                 y="0"
                 x="0">0</tspan></text>
<text
               id="text70"
               style="font-style:italic;font-variant:normal;font-size:14px;font-family:Times;-inkscape-font-specification:Times-Italic;writing-mode:lr-tb;fill:#231f20;fill-opacity:1;fill-rule:nonzero;stroke:none"
               transform="matrix(1,0,0,-1,233.33301,18.542002)"><tspan
                 id="tspan68"
                 y="0"
                 x="0">x</tspan></text>
<text
               id="text74"
               style="font-style:italic;font-variant:normal;font-size:11px;font-family:Times;-inkscape-font-specification:Times-Italic;writing-mode:lr-tb;fill:#231f20;fill-opacity:1;fill-rule:nonzero;stroke:none"
               transform="matrix(1,0,0,-1,239.5,11.542001)"><tspan
                 id="tspan72"
                 y="0"
                 x="0">1</tspan></text>
<text
               id="text78"
               style="font-style:italic;font-variant:normal;font-size:14px;font-family:Times;-inkscape-font-specification:Times-Italic;writing-mode:lr-tb;fill:#231f20;fill-opacity:1;fill-rule:nonzero;stroke:none"
               transform="matrix(1,0,0,-1,164.5,18.542002)"><tspan
                 id="tspan76"
                 y="0"
                 x="0">x</tspan></text>
<text
               id="text82"
               style="font-style:italic;font-variant:normal;font-size:11px;font-family:Times;-inkscape-font-specification:Times-Italic;writing-mode:lr-tb;fill:#231f20;fill-opacity:1;fill-rule:nonzero;stroke:none"
               transform="matrix(1,0,0,-1,170.66701,11.542001)"><tspan
                 id="tspan80"
                 y="0"
                 x="0">2</tspan></text>
<path
               id="path84"
               style="fill:none;stroke:#231f20;stroke-width:0.5;stroke-linecap:butt;stroke-linejoin:round;stroke-miterlimit:10;stroke-dasharray:none;stroke-opacity:1"
               d="M 154.41801,34.625 V 57.958004" /><text
               id="text88"
               style="font-style:italic;font-variant:normal;font-size:14px;font-family:Times;-inkscape-font-specification:Times-Italic;writing-mode:lr-tb;fill:#231f20;fill-opacity:1;fill-rule:nonzero;stroke:none"
               transform="matrix(1,0,0,-1,152.66701,66.375999)"><tspan
                 id="tspan86"
                 y="0"
                 x="0">x</tspan></text>
<text
               id="text92"
               style="font-style:italic;font-variant:normal;font-size:11px;font-family:Times;-inkscape-font-specification:Times-Italic;writing-mode:lr-tb;fill:#231f20;fill-opacity:1;fill-rule:nonzero;stroke:none"
               transform="matrix(1,0,0,-1,158.83301,59.376003)"><tspan
                 id="tspan90"
                 y="0"
                 x="0">3</tspan></text>
</g></g></g></g></g></svg>