<?xml version="1.0" encoding="UTF-8" standalone="no"?>
<svg
   xmlns:dc="http://purl.org/dc/elements/1.1/"
   xmlns:cc="http://creativecommons.org/ns#"
   xmlns:rdf="http://www.w3.org/1999/02/22-rdf-syntax-ns#"
   xmlns:svg="http://www.w3.org/2000/svg"
   xmlns="http://www.w3.org/2000/svg"
   viewBox="0 0 525.33331 181.33333"
   height="181.33333"
   width="525.33331"
   xml:space="preserve"
   id="svg2"
   version="1.1"><metadata
     id="metadata8"><rdf:RDF><cc:Work
         rdf:about=""><dc:format>image/svg+xml</dc:format><dc:type
           rdf:resource="http://purl.org/dc/dcmitype/StillImage" /></cc:Work></rdf:RDF></metadata><defs
     id="defs6"><clipPath
       id="clipPath24"
       clipPathUnits="userSpaceOnUse"><path
         id="path22"
         d="M 0,0 H 394 V 136 H 0 Z" /></clipPath></defs><g
     transform="matrix(1.3333333,0,0,-1.3333333,0,181.33333)"
     id="g10"><g
       id="g12" /><g
       id="g14" /><g
       id="g16"><g
         id="g18"><g
           clip-path="url(#clipPath24)"
           id="g20"><g
             id="g26" /><g
             id="g28"><path
               id="path30"
               style="fill:#231f20;fill-opacity:1;fill-rule:nonzero;stroke:none"
               d="M 13.438001,19.985001 H 121.438" /><path
               id="path32"
               style="fill:none;stroke:#231f20;stroke-width:1;stroke-linecap:butt;stroke-linejoin:miter;stroke-miterlimit:4;stroke-dasharray:none;stroke-opacity:1"
               d="M 13.438001,19.985001 H 121.438" /><path
               id="path34"
               style="fill:#231f20;fill-opacity:1;fill-rule:nonzero;stroke:none"
               d="m 123.8,21.01 c -1.654,0.499001 -2.72799,0.959002 -4.054,1.491001 v -5.044 c 0.47399,0.225 2.4,0.992998 4.054,1.492 1.76901,0.534001 3.374,0.9 4.414,1.029999 -1.04,0.130999 -2.64499,0.496 -4.414,1.031" /><path
               id="path36"
               style="fill:#231f20;fill-opacity:1;fill-rule:nonzero;stroke:none"
               d="M 13.153001,20.591002 V 128.591" /><path
               id="path38"
               style="fill:none;stroke:#231f20;stroke-width:1;stroke-linecap:butt;stroke-linejoin:miter;stroke-miterlimit:4;stroke-dasharray:none;stroke-opacity:1"
               d="M 13.153001,20.591002 V 128.591" /><path
               id="path40"
               style="fill:#231f20;fill-opacity:1;fill-rule:nonzero;stroke:none"
               d="m 12.128,130.953 c -0.498999,-1.653 -0.958999,-2.72799 -1.491,-4.05399 h 5.044001 c -0.225001,0.475 -0.992,2.40099 -1.492,4.05399 -0.534,1.77001 -0.9,3.37401 -1.030001,4.41501 -0.130999,-1.041 -0.495999,-2.645 -1.031,-4.41501" /><path
               id="path42"
               style="fill:#231f20;fill-opacity:1;fill-rule:nonzero;stroke:none"
               d="M 23.438002,94.652008 H 159.10501" /><path
               id="path44"
               style="fill:none;stroke:#231f20;stroke-width:1;stroke-linecap:butt;stroke-linejoin:miter;stroke-miterlimit:4;stroke-dasharray:3, 3, 3, 3, 3, 3;stroke-dashoffset:0;stroke-opacity:1"
               d="M 23.438002,94.652008 H 159.10501" /><path
               id="path46"
               style="fill:#231f20;fill-opacity:1;fill-rule:nonzero;stroke:none"
               d="m 21.076,93.627007 c 1.653002,-0.5 2.728001,-0.96 4.053999,-1.492005 V 97.18 C 24.655001,96.954002 22.729002,96.187004 21.076,95.688004 19.306002,95.153008 17.702002,94.787003 16.661001,94.657005 17.702002,94.527008 19.306002,94.161003 21.076,93.627007" /><path
               id="path48"
               style="fill:#231f20;fill-opacity:1;fill-rule:nonzero;stroke:none"
               d="M 22.104002,70.652 H 37.271" /><path
               id="path50"
               style="fill:none;stroke:#231f20;stroke-width:1;stroke-linecap:butt;stroke-linejoin:miter;stroke-miterlimit:4;stroke-dasharray:3, 3, 3, 3, 3, 3;stroke-dashoffset:0;stroke-opacity:1"
               d="M 22.104002,70.652 H 37.271" /><path
               id="path52"
               style="fill:#231f20;fill-opacity:1;fill-rule:nonzero;stroke:none"
               d="m 19.742001,69.627007 c 1.654001,-0.5 2.727998,-0.960007 4.054,-1.492005 V 73.18 c -0.474,-0.225998 -2.399999,-0.992996 -4.054,-1.491996 -1.769,-0.535004 -3.374001,-0.901001 -4.414,-1.030999 1.039999,-0.130005 2.645,-0.496002 4.414,-1.029998" /><path
               id="path54"
               style="fill:#231f20;fill-opacity:1;fill-rule:nonzero;stroke:none"
               d="M 22.104002,50.652004 H 373.43802" /><path
               id="path56"
               style="fill:none;stroke:#231f20;stroke-width:1;stroke-linecap:butt;stroke-linejoin:miter;stroke-miterlimit:4;stroke-dasharray:3, 3, 3, 3, 3, 3;stroke-dashoffset:0;stroke-opacity:1"
               d="M 22.104002,50.652004 H 373.43802" /><path
               id="path58"
               style="fill:#231f20;fill-opacity:1;fill-rule:nonzero;stroke:none"
               d="m 19.742001,49.627003 c 1.654001,-0.5 2.727998,-0.959999 4.054,-1.492001 V 53.18 c -0.474,-0.225998 -2.399999,-0.992996 -4.054,-1.491996 -1.769,-0.535 -3.374001,-0.901001 -4.414,-1.031003 1.039999,-0.129997 2.645,-0.495998 4.414,-1.029998" /><path
               id="path60"
               style="fill:#231f20;fill-opacity:1;fill-rule:nonzero;stroke:none"
               d="M 146.882,19.313002 H 254.88301" /><path
               id="path62"
               style="fill:none;stroke:#231f20;stroke-width:1;stroke-linecap:butt;stroke-linejoin:miter;stroke-miterlimit:4;stroke-dasharray:none;stroke-opacity:1"
               d="M 146.882,19.313002 H 254.88301" /><path
               id="path64"
               style="fill:#231f20;fill-opacity:1;fill-rule:nonzero;stroke:none"
               d="m 257.24402,20.338001 c -1.65201,0.499001 -2.72601,0.959 -4.05301,1.490999 v -5.044 c 0.47501,0.226002 2.401,0.993002 4.05301,1.492 1.76999,0.534001 3.375,0.9 4.41598,1.030001 -1.04098,0.131001 -2.64599,0.497 -4.41598,1.031" /><path
               id="path66"
               style="fill:#231f20;fill-opacity:1;fill-rule:nonzero;stroke:none"
               d="M 146.59801,19.919001 V 127.91901" /><path
               id="path68"
               style="fill:none;stroke:#231f20;stroke-width:1;stroke-linecap:butt;stroke-linejoin:miter;stroke-miterlimit:4;stroke-dasharray:none;stroke-opacity:1"
               d="M 146.59801,19.919001 V 127.91901" /><path
               id="path70"
               style="fill:#231f20;fill-opacity:1;fill-rule:nonzero;stroke:none"
               d="m 145.57301,130.28101 c -0.499,-1.653 -0.959,-2.727 -1.49101,-4.054 h 5.04401 c -0.22501,0.47499 -0.993,2.401 -1.49201,4.054 -0.53399,1.77 -0.89999,3.37399 -1.03,4.41499 -0.13099,-1.041 -0.496,-2.64499 -1.03099,-4.41499" /><path
               id="path72"
               style="fill:#231f20;fill-opacity:1;fill-rule:nonzero;stroke:none"
               d="M 279.10501,19.318001 H 387.104" /><path
               id="path74"
               style="fill:none;stroke:#231f20;stroke-width:1;stroke-linecap:butt;stroke-linejoin:miter;stroke-miterlimit:4;stroke-dasharray:none;stroke-opacity:1"
               d="M 279.10501,19.318001 H 387.104" /><path
               id="path76"
               style="fill:#231f20;fill-opacity:1;fill-rule:nonzero;stroke:none"
               d="m 389.46701,20.343 c -1.65298,0.5 -2.728,0.960001 -4.05399,1.492001 v -5.045002 c 0.47501,0.226002 2.40101,0.993002 4.05399,1.492002 1.76901,0.535 3.37399,0.9 4.41501,1.031001 -1.04102,0.129999 -2.646,0.495998 -4.41501,1.029998" /><path
               id="path78"
               style="fill:#231f20;fill-opacity:1;fill-rule:nonzero;stroke:none"
               d="M 278.82001,19.924002 V 127.924" /><path
               id="path80"
               style="fill:none;stroke:#231f20;stroke-width:1;stroke-linecap:butt;stroke-linejoin:miter;stroke-miterlimit:4;stroke-dasharray:none;stroke-opacity:1"
               d="M 278.82001,19.924002 V 127.924" /><path
               id="path82"
               style="fill:#231f20;fill-opacity:1;fill-rule:nonzero;stroke:none"
               d="m 277.79501,130.28601 c -0.49798,-1.653 -0.95901,-2.727 -1.48999,-4.053 h 5.043 c -0.225,0.474 -0.99301,2.4 -1.49099,4.053 -0.53501,1.76999 -0.90003,3.37399 -1.03101,4.416 -0.13101,-1.04201 -0.49603,-2.64601 -1.03101,-4.416" /><path
               id="path84"
               style="fill:#231f20;fill-opacity:1;fill-rule:nonzero;stroke:none"
               d="m 41.105003,94.985008 c 0,-1.288002 -1.045005,-2.333 -2.333999,-2.333 -1.289002,0 -2.334004,1.044998 -2.334004,2.333 0,1.288994 1.045002,2.334 2.334004,2.334 1.288994,0 2.333999,-1.045006 2.333999,-2.334" /><path
               id="path86"
               style="fill:none;stroke:#231f20;stroke-width:1;stroke-linecap:butt;stroke-linejoin:miter;stroke-miterlimit:4;stroke-dasharray:none;stroke-opacity:1"
               d="m 41.105003,94.985008 c 0,-1.288002 -1.045005,-2.333 -2.333999,-2.333 -1.289002,0 -2.334004,1.044998 -2.334004,2.333 0,1.288994 1.045002,2.334 2.334004,2.334 1.288994,0 2.333999,-1.045006 2.333999,-2.334 z" /><path
               id="path88"
               style="fill:#231f20;fill-opacity:1;fill-rule:nonzero;stroke:none"
               d="m 59.771004,88.319008 c 0,-1.289009 -1.044003,-2.334007 -2.333,-2.334007 -1.289002,0 -2.334,1.044998 -2.334,2.334007 0,1.287994 1.044998,2.333 2.334,2.333 1.288997,0 2.333,-1.045006 2.333,-2.333" /><path
               id="path90"
               style="fill:none;stroke:#231f20;stroke-width:1;stroke-linecap:butt;stroke-linejoin:miter;stroke-miterlimit:4;stroke-dasharray:none;stroke-opacity:1"
               d="m 59.771004,88.319008 c 0,-1.289009 -1.044003,-2.334007 -2.333,-2.334007 -1.289002,0 -2.334,1.044998 -2.334,2.334007 0,1.287994 1.044998,2.333 2.334,2.333 1.288997,0 2.333,-1.045006 2.333,-2.333 z" /><path
               id="path92"
               style="fill:#231f20;fill-opacity:1;fill-rule:nonzero;stroke:none"
               d="m 78.438004,53.985004 c 0,-1.288002 -1.044999,-2.333 -2.334,-2.333 -1.289002,0 -2.334007,1.044998 -2.334007,2.333 0,1.288998 1.045005,2.334 2.334007,2.334 1.289001,0 2.334,-1.045002 2.334,-2.334" /><path
               id="path94"
               style="fill:none;stroke:#231f20;stroke-width:1;stroke-linecap:butt;stroke-linejoin:miter;stroke-miterlimit:4;stroke-dasharray:none;stroke-opacity:1"
               d="m 78.438004,53.985004 c 0,-1.288002 -1.044999,-2.333 -2.334,-2.333 -1.289002,0 -2.334007,1.044998 -2.334007,2.333 0,1.288998 1.045005,2.334 2.334007,2.334 1.289001,0 2.334,-1.045002 2.334,-2.334 z" /><path
               id="path96"
               style="fill:#231f20;fill-opacity:1;fill-rule:nonzero;stroke:none"
               d="m 101.772,88.985001 c 0,-1.287995 -1.04499,-2.333001 -2.333996,-2.333001 -1.290001,0 -2.334,1.045006 -2.334,2.333001 0,1.289001 1.043999,2.334007 2.334,2.334007 1.289006,0 2.333996,-1.045006 2.333996,-2.334007" /><path
               id="path98"
               style="fill:none;stroke:#231f20;stroke-width:1;stroke-linecap:butt;stroke-linejoin:miter;stroke-miterlimit:4;stroke-dasharray:none;stroke-opacity:1"
               d="m 101.772,88.985001 c 0,-1.287995 -1.04499,-2.333001 -2.333996,-2.333001 -1.290001,0 -2.334,1.045006 -2.334,2.333001 0,1.289001 1.043999,2.334007 2.334,2.334007 1.289006,0 2.333996,-1.045006 2.333996,-2.334007 z" /><path
               id="path100"
               style="fill:#231f20;fill-opacity:1;fill-rule:nonzero;stroke:none"
               d="m 117.772,50.985001 c 0,-1.287999 -1.04499,-2.333001 -2.334,-2.333001 -1.289,0 -2.334,1.045002 -2.334,2.333001 0,1.289001 1.045,2.334003 2.334,2.334003 1.28901,0 2.334,-1.045002 2.334,-2.334003" /><path
               id="path102"
               style="fill:none;stroke:#231f20;stroke-width:1;stroke-linecap:butt;stroke-linejoin:miter;stroke-miterlimit:4;stroke-dasharray:none;stroke-opacity:1"
               d="m 117.772,50.985001 c 0,-1.287999 -1.04499,-2.333001 -2.334,-2.333001 -1.289,0 -2.334,1.045002 -2.334,2.333001 0,1.289001 1.045,2.334003 2.334,2.334003 1.28901,0 2.334,-1.045002 2.334,-2.334003 z M 38.771004,92.652008 V 71.319 h 18 v 14.666001 m 0,-14.666001 h 20 V 53.985004 m 0,17.333996 h 22 v 17.666001 m 0,-17.666001 H 116.772 V 53.319004" /><path
               id="path104"
               style="fill:#231f20;fill-opacity:1;fill-rule:nonzero;stroke:none"
               d="m 165.10501,118.65201 c 0,-1.289 -1.04501,-2.334 -2.334,-2.334 -1.289,0 -2.334,1.045 -2.334,2.334 0,1.28798 1.045,2.333 2.334,2.333 1.28899,0 2.334,-1.04502 2.334,-2.333" /><path
               id="path106"
               style="fill:none;stroke:#231f20;stroke-width:1;stroke-linecap:butt;stroke-linejoin:miter;stroke-miterlimit:4;stroke-dasharray:none;stroke-opacity:1"
               d="m 165.10501,118.65201 c 0,-1.289 -1.04501,-2.334 -2.334,-2.334 -1.289,0 -2.334,1.045 -2.334,2.334 0,1.28798 1.045,2.333 2.334,2.333 1.28899,0 2.334,-1.04502 2.334,-2.333 z" /><path
               id="path108"
               style="fill:#231f20;fill-opacity:1;fill-rule:nonzero;stroke:none"
               d="m 183.772,111.98501 c 0,-1.288 -1.04499,-2.333 -2.334,-2.333 -1.289,0 -2.334,1.045 -2.334,2.333 0,1.28899 1.045,2.334 2.334,2.334 1.28901,0 2.334,-1.04501 2.334,-2.334" /><path
               id="path110"
               style="fill:none;stroke:#231f20;stroke-width:1;stroke-linecap:butt;stroke-linejoin:miter;stroke-miterlimit:4;stroke-dasharray:none;stroke-opacity:1"
               d="m 183.772,111.98501 c 0,-1.288 -1.04499,-2.333 -2.334,-2.333 -1.289,0 -2.334,1.045 -2.334,2.333 0,1.28899 1.045,2.334 2.334,2.334 1.28901,0 2.334,-1.04501 2.334,-2.334 z" /><path
               id="path112"
               style="fill:#231f20;fill-opacity:1;fill-rule:nonzero;stroke:none"
               d="m 202.438,77.652 c 0,-1.288993 -1.04399,-2.333999 -2.334,-2.333999 -1.289,0 -2.33299,1.045006 -2.33299,2.333999 0,1.287995 1.04399,2.333001 2.33299,2.333001 1.29001,0 2.334,-1.045006 2.334,-2.333001" /><path
               id="path114"
               style="fill:none;stroke:#231f20;stroke-width:1;stroke-linecap:butt;stroke-linejoin:miter;stroke-miterlimit:4;stroke-dasharray:none;stroke-opacity:1"
               d="m 202.438,77.652 c 0,-1.288993 -1.04399,-2.333999 -2.334,-2.333999 -1.289,0 -2.33299,1.045006 -2.33299,2.333999 0,1.287995 1.04399,2.333001 2.33299,2.333001 1.29001,0 2.334,-1.045006 2.334,-2.333001 z" /><path
               id="path116"
               style="fill:#231f20;fill-opacity:1;fill-rule:nonzero;stroke:none"
               d="m 225.772,112.65201 c 0,-1.289 -1.04499,-2.334 -2.334,-2.334 -1.28999,0 -2.334,1.045 -2.334,2.334 0,1.28798 1.04401,2.333 2.334,2.333 1.28901,0 2.334,-1.04502 2.334,-2.333" /><path
               id="path118"
               style="fill:none;stroke:#231f20;stroke-width:1;stroke-linecap:butt;stroke-linejoin:miter;stroke-miterlimit:4;stroke-dasharray:none;stroke-opacity:1"
               d="m 225.772,112.65201 c 0,-1.289 -1.04499,-2.334 -2.334,-2.334 -1.28999,0 -2.334,1.045 -2.334,2.334 0,1.28798 1.04401,2.333 2.334,2.333 1.28901,0 2.334,-1.04502 2.334,-2.333 z" /><path
               id="path120"
               style="fill:#231f20;fill-opacity:1;fill-rule:nonzero;stroke:none"
               d="m 241.77202,74.652 c 0,-1.288993 -1.04501,-2.333999 -2.334,-2.333999 -1.29001,0 -2.33402,1.045006 -2.33402,2.333999 0,1.287995 1.04401,2.333001 2.33402,2.333001 1.28899,0 2.334,-1.045006 2.334,-2.333001" /><path
               id="path122"
               style="fill:none;stroke:#231f20;stroke-width:1;stroke-linecap:butt;stroke-linejoin:miter;stroke-miterlimit:4;stroke-dasharray:none;stroke-opacity:1"
               d="m 241.77202,74.652 c 0,-1.288993 -1.04501,-2.333999 -2.334,-2.333999 -1.29001,0 -2.33402,1.045006 -2.33402,2.333999 0,1.287995 1.04401,2.333001 2.33402,2.333001 1.28899,0 2.334,-1.045006 2.334,-2.333001 z m -79.00101,41.66601 V 94.985008 H 180.772 v 14.667002 m 0,-14.667002 h 20 V 77.652 m 0,17.333008 h 22 v 17.667002 m 0,-17.667002 h 18.00002 V 76.985001" /><path
               id="path124"
               style="fill:#231f20;fill-opacity:1;fill-rule:nonzero;stroke:none"
               d="m 300.43903,73.985001 c 0,-1.287995 -1.04401,-2.333001 -2.33402,-2.333001 -1.289,0 -2.33301,1.045006 -2.33301,2.333001 0,1.289001 1.04401,2.333999 2.33301,2.333999 1.29001,0 2.33402,-1.044998 2.33402,-2.333999" /><path
               id="path126"
               style="fill:none;stroke:#231f20;stroke-width:1;stroke-linecap:butt;stroke-linejoin:miter;stroke-miterlimit:4;stroke-dasharray:none;stroke-opacity:1"
               d="m 300.43903,73.985001 c 0,-1.287995 -1.04401,-2.333001 -2.33402,-2.333001 -1.289,0 -2.33301,1.045006 -2.33301,2.333001 0,1.289001 1.04401,2.333999 2.33301,2.333999 1.29001,0 2.33402,-1.044998 2.33402,-2.333999 z" /><path
               id="path128"
               style="fill:#231f20;fill-opacity:1;fill-rule:nonzero;stroke:none"
               d="m 319.10501,67.319 c 0,-1.289001 -1.04401,-2.333999 -2.33301,-2.333999 -1.28997,0 -2.33398,1.044998 -2.33398,2.333999 0,1.288002 1.04401,2.333 2.33398,2.333 1.289,0 2.33301,-1.044998 2.33301,-2.333" /><path
               id="path130"
               style="fill:none;stroke:#231f20;stroke-width:1;stroke-linecap:butt;stroke-linejoin:miter;stroke-miterlimit:4;stroke-dasharray:none;stroke-opacity:1"
               d="m 319.10501,67.319 c 0,-1.289001 -1.04401,-2.333999 -2.33301,-2.333999 -1.28997,0 -2.33398,1.044998 -2.33398,2.333999 0,1.288002 1.04401,2.333 2.33398,2.333 1.289,0 2.33301,-1.044998 2.33301,-2.333 z" /><path
               id="path132"
               style="fill:#231f20;fill-opacity:1;fill-rule:nonzero;stroke:none"
               d="m 337.772,32.985001 c 0,-1.289 -1.04397,-2.334 -2.33398,-2.334 -1.289,0 -2.33402,1.045 -2.33402,2.334 0,1.288002 1.04502,2.333 2.33402,2.333 1.29001,0 2.33398,-1.044998 2.33398,-2.333" /><path
               id="path134"
               style="fill:none;stroke:#231f20;stroke-width:1;stroke-linecap:butt;stroke-linejoin:miter;stroke-miterlimit:4;stroke-dasharray:none;stroke-opacity:1"
               d="m 337.772,32.985001 c 0,-1.289 -1.04397,-2.334 -2.33398,-2.334 -1.289,0 -2.33402,1.045 -2.33402,2.334 0,1.288002 1.04502,2.333 2.33402,2.333 1.29001,0 2.33398,-1.044998 2.33398,-2.333 z" /><path
               id="path136"
               style="fill:#231f20;fill-opacity:1;fill-rule:nonzero;stroke:none"
               d="m 361.10501,67.985001 c 0,-1.287995 -1.04401,-2.333001 -2.33301,-2.333001 -1.28997,0 -2.33398,1.045006 -2.33398,2.333001 0,1.289001 1.04401,2.333999 2.33398,2.333999 1.289,0 2.33301,-1.044998 2.33301,-2.333999" /><path
               id="path138"
               style="fill:none;stroke:#231f20;stroke-width:1;stroke-linecap:butt;stroke-linejoin:miter;stroke-miterlimit:4;stroke-dasharray:none;stroke-opacity:1"
               d="m 361.10501,67.985001 c 0,-1.287995 -1.04401,-2.333001 -2.33301,-2.333001 -1.28997,0 -2.33398,1.045006 -2.33398,2.333001 0,1.289001 1.04401,2.333999 2.33398,2.333999 1.289,0 2.33301,-1.044998 2.33301,-2.333999 z" /><path
               id="path140"
               style="fill:#231f20;fill-opacity:1;fill-rule:nonzero;stroke:none"
               d="m 377.10501,29.985001 c 0,-1.289 -1.04401,-2.334 -2.33301,-2.334 -1.28997,0 -2.33398,1.045 -2.33398,2.334 0,1.288 1.04401,2.333 2.33398,2.333 1.289,0 2.33301,-1.045 2.33301,-2.333" /><path
               id="path142"
               style="fill:none;stroke:#231f20;stroke-width:1;stroke-linecap:butt;stroke-linejoin:miter;stroke-miterlimit:4;stroke-dasharray:none;stroke-opacity:1"
               d="m 377.10501,29.985001 c 0,-1.289 -1.04401,-2.334 -2.33301,-2.334 -1.28997,0 -2.33398,1.045 -2.33398,2.334 0,1.288 1.04401,2.333 2.33398,2.333 1.289,0 2.33301,-1.045 2.33301,-2.333 z m -79,41.666999 V 50.319004 h 18 v 14.665997 m 0,-14.665997 h 20 V 32.985001 m 0,17.334003 h 22 v 17.665997 m 0,-17.665997 h 18 V 32.318001" /><text
               id="text146"
               style="font-variant:normal;font-weight:normal;font-size:11.95500088px;font-family:CMR12;-inkscape-font-specification:CMR12;writing-mode:lr-tb;fill:#231f20;fill-opacity:1;fill-rule:nonzero;stroke:none"
               transform="matrix(1,0,0,-1,48.938004,3.0020001)"><tspan
                 id="tspan144"
                 y="0"
                 x="0 6.4915657 12.337561 22.080887 28.572453 31.812258">Sample</tspan></text>
<text
               id="text150"
               style="font-variant:normal;font-weight:normal;font-size:11.95500088px;font-family:CMR12;-inkscape-font-specification:CMR12;writing-mode:lr-tb;fill:#231f20;fill-opacity:1;fill-rule:nonzero;stroke:none"
               transform="matrix(1,0,0,-1,89.908981,3.0020001)"><tspan
                 id="tspan148"
                 y="0"
                 x="0">1</tspan></text>
<text
               id="text154"
               style="font-variant:normal;font-weight:normal;font-size:11.95500088px;font-family:CMR12;-inkscape-font-specification:CMR12;writing-mode:lr-tb;fill:#231f20;fill-opacity:1;fill-rule:nonzero;stroke:none"
               transform="matrix(1,0,0,-1,180.33063,4.3349824)"><tspan
                 id="tspan152"
                 y="0"
                 x="0 6.4915657 12.337561 22.080887 28.572453 31.812258">Sample</tspan></text>
<text
               id="text158"
               style="font-variant:normal;font-weight:normal;font-size:11.95500088px;font-family:CMR12;-inkscape-font-specification:CMR12;writing-mode:lr-tb;fill:#231f20;fill-opacity:1;fill-rule:nonzero;stroke:none"
               transform="matrix(1,0,0,-1,221.30042,4.3349824)"><tspan
                 id="tspan156"
                 y="0"
                 x="0">2</tspan></text>
<text
               id="text162"
               style="font-variant:normal;font-weight:normal;font-size:11.95500088px;font-family:CMR12;-inkscape-font-specification:CMR12;writing-mode:lr-tb;fill:#231f20;fill-opacity:1;fill-rule:nonzero;stroke:none"
               transform="matrix(1,0,0,-1,314.38922,5.0020714)"><tspan
                 id="tspan160"
                 y="0"
                 x="0 6.4915657 12.337561 22.080887 28.572453 31.812258">Sample</tspan></text>
<text
               id="text166"
               style="font-variant:normal;font-weight:normal;font-size:11.95500088px;font-family:CMR12;-inkscape-font-specification:CMR12;writing-mode:lr-tb;fill:#231f20;fill-opacity:1;fill-rule:nonzero;stroke:none"
               transform="matrix(1,0,0,-1,355.36026,5.0020714)"><tspan
                 id="tspan164"
                 y="0"
                 x="0">3</tspan></text>
<text
               id="text170"
               style="font-variant:normal;font-weight:normal;font-size:11.95500088px;font-family:CMR12;-inkscape-font-specification:CMR12;writing-mode:lr-tb;fill:#231f20;fill-opacity:1;fill-rule:nonzero;stroke:none"
               transform="matrix(1,0,0,-1,0.47960359,48.109413)"><tspan
                 id="tspan168"
                 y="0"
                 x="0">¯</tspan></text>
<text
               id="text174"
               style="font-variant:normal;font-weight:normal;font-size:11.95500088px;font-family:CMMI12;-inkscape-font-specification:CMMI12;writing-mode:lr-tb;fill:#231f20;fill-opacity:1;fill-rule:nonzero;stroke:none"
               transform="matrix(1,0,0,-1,-9.8743197e-4,48.109413)"><tspan
                 id="tspan172"
                 y="0"
                 x="0">s</tspan></text>
<text
               id="text178"
               style="font-variant:normal;font-weight:normal;font-size:7.96999979px;font-family:CMR8;-inkscape-font-specification:CMR8;writing-mode:lr-tb;fill:#231f20;fill-opacity:1;fill-rule:nonzero;stroke:none"
               transform="matrix(1,0,0,-1,5.5141997,46.3167)"><tspan
                 id="tspan176"
                 y="0"
                 x="0">3</tspan></text>
<text
               id="text182"
               style="font-variant:normal;font-weight:normal;font-size:11.95500088px;font-family:CMR12;-inkscape-font-specification:CMR12;writing-mode:lr-tb;fill:#231f20;fill-opacity:1;fill-rule:nonzero;stroke:none"
               transform="matrix(1,0,0,-1,1.9624,69.443199)"><tspan
                 id="tspan180"
                 y="0"
                 x="0">¯</tspan></text>
<text
               id="text186"
               style="font-variant:normal;font-weight:normal;font-size:11.95500088px;font-family:CMMI12;-inkscape-font-specification:CMMI12;writing-mode:lr-tb;fill:#231f20;fill-opacity:1;fill-rule:nonzero;stroke:none"
               transform="matrix(1,0,0,-1,1.4818089,69.443199)"><tspan
                 id="tspan184"
                 y="0"
                 x="0">s</tspan></text>
<text
               id="text190"
               style="font-variant:normal;font-weight:normal;font-size:7.96999979px;font-family:CMR8;-inkscape-font-specification:CMR8;writing-mode:lr-tb;fill:#231f20;fill-opacity:1;fill-rule:nonzero;stroke:none"
               transform="matrix(1,0,0,-1,6.9955997,67.6502)"><tspan
                 id="tspan188"
                 y="0"
                 x="0">1</tspan></text>
<text
               id="text194"
               style="font-variant:normal;font-weight:normal;font-size:11.95500088px;font-family:CMR12;-inkscape-font-specification:CMR12;writing-mode:lr-tb;fill:#231f20;fill-opacity:1;fill-rule:nonzero;stroke:none"
               transform="matrix(1,0,0,-1,1.4439,92.109695)"><tspan
                 id="tspan192"
                 y="0"
                 x="0">¯</tspan></text>
<text
               id="text198"
               style="font-variant:normal;font-weight:normal;font-size:11.95500088px;font-family:CMMI12;-inkscape-font-specification:CMMI12;writing-mode:lr-tb;fill:#231f20;fill-opacity:1;fill-rule:nonzero;stroke:none"
               transform="matrix(1,0,0,-1,0.96330899,92.109695)"><tspan
                 id="tspan196"
                 y="0"
                 x="0">s</tspan></text>
<text
               id="text202"
               style="font-variant:normal;font-weight:normal;font-size:7.96999979px;font-family:CMR8;-inkscape-font-specification:CMR8;writing-mode:lr-tb;fill:#231f20;fill-opacity:1;fill-rule:nonzero;stroke:none"
               transform="matrix(1,0,0,-1,6.4770999,90.316696)"><tspan
                 id="tspan200"
                 y="0"
                 x="0">2</tspan></text>
</g></g></g></g></g></svg>