<?xml version="1.0" encoding="UTF-8" standalone="no"?>
<svg
   xmlns:dc="http://purl.org/dc/elements/1.1/"
   xmlns:cc="http://creativecommons.org/ns#"
   xmlns:rdf="http://www.w3.org/1999/02/22-rdf-syntax-ns#"
   xmlns:svg="http://www.w3.org/2000/svg"
   xmlns="http://www.w3.org/2000/svg"
   viewBox="0 0 525.33331 230.66667"
   height="230.66667"
   width="525.33331"
   xml:space="preserve"
   id="svg2"
   version="1.1"><metadata
     id="metadata8"><rdf:RDF><cc:Work
         rdf:about=""><dc:format>image/svg+xml</dc:format><dc:type
           rdf:resource="http://purl.org/dc/dcmitype/StillImage" /></cc:Work></rdf:RDF></metadata><defs
     id="defs6"><clipPath
       id="clipPath24"
       clipPathUnits="userSpaceOnUse"><path
         id="path22"
         d="M 0,0 H 394 V 173 H 0 Z" /></clipPath></defs><g
     transform="matrix(1.3333333,0,0,-1.3333333,0,230.66667)"
     id="g10"><g
       id="g12" /><g
       id="g14" /><g
       id="g16"><g
         id="g18"><g
           clip-path="url(#clipPath24)"
           id="g20"><g
             id="g26" /><g
             id="g28"><path
               id="path30"
               style="fill:none;stroke:#231f20;stroke-width:1;stroke-linecap:butt;stroke-linejoin:miter;stroke-miterlimit:4;stroke-dasharray:none;stroke-opacity:1"
               d="M 121.438,19.985001 H 13.438001 V 167.985" /><path
               id="path32"
               style="fill:#231f20;fill-opacity:1;fill-rule:nonzero;stroke:none"
               d="m 123.8,21.01 c -1.654,0.499001 -2.72799,0.959002 -4.054,1.491001 v -5.044 c 0.47399,0.225 2.4,0.992998 4.054,1.492 1.76901,0.534001 3.374,0.9 4.414,1.029999 -1.04,0.130999 -2.64499,0.496 -4.414,1.031" /><path
               id="path34"
               style="fill:#231f20;fill-opacity:1;fill-rule:nonzero;stroke:none"
               d="M 12.552001,168.039 C 12.053,166.386 11.593,165.311 11.061001,163.985 H 16.104 c -0.224,0.47499 -0.992,2.401 -1.490999,4.054 -0.534001,1.76901 -0.900001,3.37401 -1.030001,4.41501 -0.130999,-1.041 -0.495999,-2.646 -1.030999,-4.41501" /><path
               id="path36"
               style="fill:#231f20;fill-opacity:1;fill-rule:nonzero;stroke:none"
               d="M 22.771002,77.318001 H 158.438" /><path
               id="path38"
               style="fill:none;stroke:#231f20;stroke-width:1;stroke-linecap:butt;stroke-linejoin:miter;stroke-miterlimit:4;stroke-dasharray:3, 3, 3, 3, 3, 3;stroke-dashoffset:0;stroke-opacity:1"
               d="M 22.771002,77.318001 H 158.438" /><path
               id="path40"
               style="fill:#231f20;fill-opacity:1;fill-rule:nonzero;stroke:none"
               d="m 20.409,76.293007 c 1.653,-0.499001 2.728001,-0.959 4.054001,-1.491005 v 5.043999 C 23.988001,79.619995 22.062,78.853004 20.409,78.354004 18.639,77.82 17.035002,77.454002 15.994,77.324005 c 1.041002,-0.131004 2.645,-0.497002 4.415,-1.030998" /><path
               id="path42"
               style="fill:#231f20;fill-opacity:1;fill-rule:nonzero;stroke:none"
               d="M 23.438002,135.31801 H 38.604" /><path
               id="path44"
               style="fill:none;stroke:#231f20;stroke-width:1;stroke-linecap:butt;stroke-linejoin:miter;stroke-miterlimit:4;stroke-dasharray:3, 3, 3, 3, 3, 3;stroke-dashoffset:0;stroke-opacity:1"
               d="M 23.438002,135.31801 H 38.604" /><path
               id="path46"
               style="fill:#231f20;fill-opacity:1;fill-rule:nonzero;stroke:none"
               d="m 21.076,134.293 c 1.653002,-0.49899 2.728001,-0.959 4.053999,-1.491 v 5.04401 C 24.655001,137.62 22.729002,136.85301 21.076,136.354 c -1.769998,-0.53401 -3.373998,-0.89999 -4.414999,-1.02999 1.041001,-0.131 2.645001,-0.497 4.414999,-1.03101" /><path
               id="path48"
               style="fill:#231f20;fill-opacity:1;fill-rule:nonzero;stroke:none"
               d="M 22.104002,50.651001 H 373.43802" /><path
               id="path50"
               style="fill:none;stroke:#231f20;stroke-width:1;stroke-linecap:butt;stroke-linejoin:miter;stroke-miterlimit:4;stroke-dasharray:3, 3, 3, 3, 3, 3;stroke-dashoffset:0;stroke-opacity:1"
               d="M 22.104002,50.651001 H 373.43802" /><path
               id="path52"
               style="fill:#231f20;fill-opacity:1;fill-rule:nonzero;stroke:none"
               d="m 19.742001,49.626003 c 1.654001,-0.499 2.727998,-0.958999 4.054,-1.491001 v 5.043999 c -0.474,-0.224999 -2.399999,-0.993 -4.054,-1.491997 -1.769,-0.534 -3.374001,-0.900001 -4.414,-1.030003 1.039999,-0.131 2.645,-0.495998 4.414,-1.030998" /><path
               id="path54"
               style="fill:#231f20;fill-opacity:1;fill-rule:nonzero;stroke:none"
               d="m 257.24402,20.338001 c -1.65201,0.499001 -2.72601,0.959 -4.05301,1.490999 v -5.044 c 0.47501,0.226002 2.401,0.993002 4.05301,1.492 1.76999,0.534001 3.375,0.9 4.41598,1.031001 -1.04098,0.130001 -2.64599,0.496 -4.41598,1.03" /><path
               id="path56"
               style="fill:#231f20;fill-opacity:1;fill-rule:nonzero;stroke:none"
               d="m 389.46701,20.343 c -1.65298,0.5 -2.728,0.960001 -4.05399,1.492001 v -5.045002 c 0.47501,0.226002 2.40101,0.993002 4.05399,1.492002 1.76901,0.535 3.37399,0.9 4.41501,1.031001 -1.04102,0.129999 -2.646,0.495998 -4.41501,1.029998" /><path
               id="path58"
               style="fill:#231f20;fill-opacity:1;fill-rule:nonzero;stroke:none"
               d="m 42.438004,159.65201 c 0,-1.289 -1.045002,-2.334 -2.334004,-2.334 -1.288998,0 -2.334,1.045 -2.334,2.334 0,1.28799 1.045002,2.33299 2.334,2.33299 1.289002,0 2.334004,-1.045 2.334004,-2.33299" /><path
               id="path60"
               style="fill:none;stroke:#231f20;stroke-width:1;stroke-linecap:butt;stroke-linejoin:miter;stroke-miterlimit:4;stroke-dasharray:none;stroke-opacity:1"
               d="m 42.438004,159.65201 c 0,-1.289 -1.045002,-2.334 -2.334004,-2.334 -1.288998,0 -2.334,1.045 -2.334,2.334 0,1.28799 1.045002,2.33299 2.334,2.33299 1.289002,0 2.334004,-1.045 2.334004,-2.33299 z" /><path
               id="path62"
               style="fill:#231f20;fill-opacity:1;fill-rule:nonzero;stroke:none"
               d="m 61.105003,152.985 c 0,-1.28799 -1.045005,-2.33299 -2.333999,-2.33299 -1.289002,0 -2.334,1.045 -2.334,2.33299 0,1.289 1.044998,2.334 2.334,2.334 1.288994,0 2.333999,-1.045 2.333999,-2.334" /><path
               id="path64"
               style="fill:none;stroke:#231f20;stroke-width:1;stroke-linecap:butt;stroke-linejoin:miter;stroke-miterlimit:4;stroke-dasharray:none;stroke-opacity:1"
               d="m 61.105003,152.985 c 0,-1.28799 -1.045005,-2.33299 -2.333999,-2.33299 -1.289002,0 -2.334,1.045 -2.334,2.33299 0,1.289 1.044998,2.334 2.334,2.334 1.288994,0 2.333999,-1.045 2.333999,-2.334 z" /><path
               id="path66"
               style="fill:#231f20;fill-opacity:1;fill-rule:nonzero;stroke:none"
               d="m 79.771004,118.65201 c 0,-1.289 -1.043999,-2.334 -2.333,-2.334 -1.290001,0 -2.334,1.045 -2.334,2.334 0,1.28798 1.043999,2.333 2.334,2.333 1.289001,0 2.333,-1.04502 2.333,-2.333" /><path
               id="path68"
               style="fill:none;stroke:#231f20;stroke-width:1;stroke-linecap:butt;stroke-linejoin:miter;stroke-miterlimit:4;stroke-dasharray:none;stroke-opacity:1"
               d="m 79.771004,118.65201 c 0,-1.289 -1.043999,-2.334 -2.333,-2.334 -1.290001,0 -2.334,1.045 -2.334,2.334 0,1.28798 1.043999,2.333 2.334,2.333 1.289001,0 2.333,-1.04502 2.333,-2.333 z" /><path
               id="path70"
               style="fill:#231f20;fill-opacity:1;fill-rule:nonzero;stroke:none"
               d="m 103.105,153.65201 c 0,-1.289 -1.044,-2.334 -2.333,-2.334 -1.289998,0 -2.334996,1.045 -2.334996,2.334 0,1.28799 1.044998,2.33299 2.334996,2.33299 1.289,0 2.333,-1.045 2.333,-2.33299" /><path
               id="path72"
               style="fill:none;stroke:#231f20;stroke-width:1;stroke-linecap:butt;stroke-linejoin:miter;stroke-miterlimit:4;stroke-dasharray:none;stroke-opacity:1"
               d="m 103.105,153.65201 c 0,-1.289 -1.044,-2.334 -2.333,-2.334 -1.289998,0 -2.334996,1.045 -2.334996,2.334 0,1.28799 1.044998,2.33299 2.334996,2.33299 1.289,0 2.333,-1.045 2.333,-2.33299 z" /><path
               id="path74"
               style="fill:#231f20;fill-opacity:1;fill-rule:nonzero;stroke:none"
               d="m 119.105,115.65201 c 0,-1.289 -1.044,-2.334 -2.333,-2.334 -1.29,0 -2.334,1.045 -2.334,2.334 0,1.28798 1.044,2.333 2.334,2.333 1.289,0 2.333,-1.04502 2.333,-2.333" /><path
               id="path76"
               style="fill:none;stroke:#231f20;stroke-width:1;stroke-linecap:butt;stroke-linejoin:miter;stroke-miterlimit:4;stroke-dasharray:none;stroke-opacity:1"
               d="m 119.105,115.65201 c 0,-1.289 -1.044,-2.334 -2.333,-2.334 -1.29,0 -2.334,1.045 -2.334,2.334 0,1.28798 1.044,2.333 2.334,2.333 1.289,0 2.333,-1.04502 2.333,-2.333 z m -79.001,41.666 V 135.985 h 18.000004 v 14.66701 m 0,-14.66701 h 20 v -17.33299 m 0,17.33299 H 100.105 v 17.66701 m 0,-17.66701 h 18 v -17.99999" /><path
               id="path78"
               style="fill:#231f20;fill-opacity:1;fill-rule:nonzero;stroke:none"
               d="m 164.438,101.31801 c 0,-1.28801 -1.04499,-2.333002 -2.334,-2.333002 -1.289,0 -2.33401,1.044992 -2.33401,2.333002 0,1.28899 1.04501,2.334 2.33401,2.334 1.28901,0 2.334,-1.04501 2.334,-2.334" /><path
               id="path80"
               style="fill:none;stroke:#231f20;stroke-width:1;stroke-linecap:butt;stroke-linejoin:miter;stroke-miterlimit:4;stroke-dasharray:none;stroke-opacity:1"
               d="m 164.438,101.31801 c 0,-1.28801 -1.04499,-2.333002 -2.334,-2.333002 -1.289,0 -2.33401,1.044992 -2.33401,2.333002 0,1.28899 1.04501,2.334 2.33401,2.334 1.28901,0 2.334,-1.04501 2.334,-2.334 z" /><path
               id="path82"
               style="fill:#231f20;fill-opacity:1;fill-rule:nonzero;stroke:none"
               d="m 183.104,94.652008 c 0,-1.289001 -1.044,-2.334007 -2.33299,-2.334007 -1.289,0 -2.334,1.045006 -2.334,2.334007 0,1.287987 1.045,2.333 2.334,2.333 1.28899,0 2.33299,-1.045013 2.33299,-2.333" /><path
               id="path84"
               style="fill:none;stroke:#231f20;stroke-width:1;stroke-linecap:butt;stroke-linejoin:miter;stroke-miterlimit:4;stroke-dasharray:none;stroke-opacity:1"
               d="m 183.104,94.652008 c 0,-1.289001 -1.044,-2.334007 -2.33299,-2.334007 -1.289,0 -2.334,1.045006 -2.334,2.334007 0,1.287987 1.045,2.333 2.334,2.333 1.28899,0 2.33299,-1.045013 2.33299,-2.333 z" /><path
               id="path86"
               style="fill:#231f20;fill-opacity:1;fill-rule:nonzero;stroke:none"
               d="m 201.772,60.318005 c 0,-1.289002 -1.04499,-2.334004 -2.334,-2.334004 -1.28999,0 -2.334,1.045002 -2.334,2.334004 0,1.287998 1.04401,2.333 2.334,2.333 1.28901,0 2.334,-1.045002 2.334,-2.333" /><path
               id="path88"
               style="fill:none;stroke:#231f20;stroke-width:1;stroke-linecap:butt;stroke-linejoin:miter;stroke-miterlimit:4;stroke-dasharray:none;stroke-opacity:1"
               d="m 201.772,60.318005 c 0,-1.289002 -1.04499,-2.334004 -2.334,-2.334004 -1.28999,0 -2.334,1.045002 -2.334,2.334004 0,1.287998 1.04401,2.333 2.334,2.333 1.28901,0 2.334,-1.045002 2.334,-2.333 z" /><path
               id="path90"
               style="fill:#231f20;fill-opacity:1;fill-rule:nonzero;stroke:none"
               d="m 225.104,95.318001 c 0,-1.288002 -1.044,-2.333 -2.33299,-2.333 -1.28999,0 -2.334,1.044998 -2.334,2.333 0,1.289001 1.04401,2.334007 2.334,2.334007 1.28899,0 2.33299,-1.045006 2.33299,-2.334007" /><path
               id="path92"
               style="fill:none;stroke:#231f20;stroke-width:1;stroke-linecap:butt;stroke-linejoin:miter;stroke-miterlimit:4;stroke-dasharray:none;stroke-opacity:1"
               d="m 225.104,95.318001 c 0,-1.288002 -1.044,-2.333 -2.33299,-2.333 -1.28999,0 -2.334,1.044998 -2.334,2.333 0,1.289001 1.04401,2.334007 2.334,2.334007 1.28899,0 2.33299,-1.045006 2.33299,-2.334007 z" /><path
               id="path94"
               style="fill:#231f20;fill-opacity:1;fill-rule:nonzero;stroke:none"
               d="m 241.104,57.318005 c 0,-1.289002 -1.044,-2.334004 -2.33299,-2.334004 -1.28999,0 -2.334,1.045002 -2.334,2.334004 0,1.287998 1.04401,2.332996 2.334,2.332996 1.28899,0 2.33299,-1.044998 2.33299,-2.332996" /><path
               id="path96"
               style="fill:none;stroke:#231f20;stroke-width:1;stroke-linecap:butt;stroke-linejoin:miter;stroke-miterlimit:4;stroke-dasharray:none;stroke-opacity:1"
               d="m 241.104,57.318005 c 0,-1.289002 -1.044,-2.334004 -2.33299,-2.334004 -1.28999,0 -2.334,1.045002 -2.334,2.334004 0,1.287998 1.04401,2.332996 2.334,2.332996 1.28899,0 2.33299,-1.044998 2.33299,-2.332996 z m -79,41.667003 V 77.652 h 18 v 14.666001 m 0,-14.666001 h 20 V 60.318005 m 0,17.333995 h 22 v 17.666001 m 0,-17.666001 h 18 V 59.651001" /><path
               id="path98"
               style="fill:#231f20;fill-opacity:1;fill-rule:nonzero;stroke:none"
               d="m 300.104,67.318001 c 0,-1.288002 -1.044,-2.333 -2.33297,-2.333 -1.29001,0 -2.33402,1.044998 -2.33402,2.333 0,1.289001 1.04401,2.333999 2.33402,2.333999 1.28897,0 2.33297,-1.044998 2.33297,-2.333999" /><path
               id="path100"
               style="fill:none;stroke:#231f20;stroke-width:1;stroke-linecap:butt;stroke-linejoin:miter;stroke-miterlimit:4;stroke-dasharray:none;stroke-opacity:1"
               d="m 300.104,67.318001 c 0,-1.288002 -1.044,-2.333 -2.33297,-2.333 -1.29001,0 -2.33402,1.044998 -2.33402,2.333 0,1.289001 1.04401,2.333999 2.33402,2.333999 1.28897,0 2.33297,-1.044998 2.33297,-2.333999 z" /><path
               id="path102"
               style="fill:#231f20;fill-opacity:1;fill-rule:nonzero;stroke:none"
               d="m 318.104,61.985004 c 0,-1.289001 -1.044,-2.334003 -2.33297,-2.334003 -1.29001,0 -2.33402,1.045002 -2.33402,2.334003 0,1.287999 1.04401,2.332997 2.33402,2.332997 1.28897,0 2.33297,-1.044998 2.33297,-2.332997" /><path
               id="path104"
               style="fill:none;stroke:#231f20;stroke-width:1;stroke-linecap:butt;stroke-linejoin:miter;stroke-miterlimit:4;stroke-dasharray:none;stroke-opacity:1"
               d="m 318.104,61.985004 c 0,-1.289001 -1.044,-2.334003 -2.33297,-2.334003 -1.29001,0 -2.33402,1.045002 -2.33402,2.334003 0,1.287999 1.04401,2.332997 2.33402,2.332997 1.28897,0 2.33297,-1.044998 2.33297,-2.332997 z" /><path
               id="path106"
               style="fill:#231f20;fill-opacity:1;fill-rule:nonzero;stroke:none"
               d="m 337.772,35.318001 c 0,-1.288002 -1.04397,-2.333 -2.33398,-2.333 -1.289,0 -2.33402,1.044998 -2.33402,2.333 0,1.289001 1.04502,2.333999 2.33402,2.333999 1.29001,0 2.33398,-1.044998 2.33398,-2.333999" /><path
               id="path108"
               style="fill:none;stroke:#231f20;stroke-width:1;stroke-linecap:butt;stroke-linejoin:miter;stroke-miterlimit:4;stroke-dasharray:none;stroke-opacity:1"
               d="m 337.772,35.318001 c 0,-1.288002 -1.04397,-2.333 -2.33398,-2.333 -1.289,0 -2.33402,1.044998 -2.33402,2.333 0,1.289001 1.04502,2.333999 2.33402,2.333999 1.29001,0 2.33398,-1.044998 2.33398,-2.333999 z" /><path
               id="path110"
               style="fill:#231f20;fill-opacity:1;fill-rule:nonzero;stroke:none"
               d="m 360.43903,64.785004 c 0,-1.289002 -1.04401,-2.334 -2.33402,-2.334 -1.289,0 -2.33301,1.044998 -2.33301,2.334 0,1.288002 1.04401,2.333 2.33301,2.333 1.29001,0 2.33402,-1.044998 2.33402,-2.333" /><path
               id="path112"
               style="fill:none;stroke:#231f20;stroke-width:1;stroke-linecap:butt;stroke-linejoin:miter;stroke-miterlimit:4;stroke-dasharray:none;stroke-opacity:1"
               d="m 360.43903,64.785004 c 0,-1.289002 -1.04401,-2.334 -2.33402,-2.334 -1.289,0 -2.33301,1.044998 -2.33301,2.334 0,1.288002 1.04401,2.333 2.33301,2.333 1.29001,0 2.33402,-1.044998 2.33402,-2.333 z" /><path
               id="path114"
               style="fill:#231f20;fill-opacity:1;fill-rule:nonzero;stroke:none"
               d="m 378.43903,36.251003 c 0,-1.288002 -1.04401,-2.333 -2.33402,-2.333 -1.289,0 -2.33301,1.044998 -2.33301,2.333 0,1.288998 1.04401,2.334 2.33301,2.334 1.29001,0 2.33402,-1.045002 2.33402,-2.334" /><path
               id="path116"
               style="fill:none;stroke:#231f20;stroke-width:1;stroke-linecap:butt;stroke-linejoin:miter;stroke-miterlimit:4;stroke-dasharray:none;stroke-opacity:1"
               d="m 378.43903,36.251003 c 0,-1.288002 -1.04401,-2.333 -2.33402,-2.333 -1.289,0 -2.33301,1.044998 -2.33301,2.333 0,1.288998 1.04401,2.334 2.33301,2.334 1.29001,0 2.33402,-1.045002 2.33402,-2.334 z M 298.10501,67.718002 V 50.651001 h 18 v 11.734001 m 0,-11.734001 h 20 V 36.785 m 0,13.866001 h 22 v 14.134003 m 0,-14.134003 h 18 V 36.251003" /><text
               id="text120"
               style="font-variant:normal;font-weight:normal;font-size:11.95500088px;font-family:CMR12;-inkscape-font-specification:CMR12;writing-mode:lr-tb;fill:#231f20;fill-opacity:1;fill-rule:nonzero;stroke:none"
               transform="matrix(1,0,0,-1,48.938004,3.0020001)"><tspan
                 id="tspan118"
                 y="0"
                 x="0 6.4915657 12.337561 22.080887 28.572453 31.812258">Sample</tspan></text>
<text
               id="text124"
               style="font-variant:normal;font-weight:normal;font-size:11.95500088px;font-family:CMR12;-inkscape-font-specification:CMR12;writing-mode:lr-tb;fill:#231f20;fill-opacity:1;fill-rule:nonzero;stroke:none"
               transform="matrix(1,0,0,-1,89.908981,3.0020001)"><tspan
                 id="tspan122"
                 y="0"
                 x="0">1</tspan></text>
<text
               id="text128"
               style="font-variant:normal;font-weight:normal;font-size:11.95500088px;font-family:CMR12;-inkscape-font-specification:CMR12;writing-mode:lr-tb;fill:#231f20;fill-opacity:1;fill-rule:nonzero;stroke:none"
               transform="matrix(1,0,0,-1,180.33063,4.3349824)"><tspan
                 id="tspan126"
                 y="0"
                 x="0 6.4915657 12.337561 22.080887 28.572453 31.812258">Sample</tspan></text>
<text
               id="text132"
               style="font-variant:normal;font-weight:normal;font-size:11.95500088px;font-family:CMR12;-inkscape-font-specification:CMR12;writing-mode:lr-tb;fill:#231f20;fill-opacity:1;fill-rule:nonzero;stroke:none"
               transform="matrix(1,0,0,-1,221.30042,4.3349824)"><tspan
                 id="tspan130"
                 y="0"
                 x="0">2</tspan></text>
<text
               id="text136"
               style="font-variant:normal;font-weight:normal;font-size:11.95500088px;font-family:CMR12;-inkscape-font-specification:CMR12;writing-mode:lr-tb;fill:#231f20;fill-opacity:1;fill-rule:nonzero;stroke:none"
               transform="matrix(1,0,0,-1,314.38922,5.0020714)"><tspan
                 id="tspan134"
                 y="0"
                 x="0 6.4915657 12.337561 22.080887 28.572453 31.812258">Sample</tspan></text>
<text
               id="text140"
               style="font-variant:normal;font-weight:normal;font-size:11.95500088px;font-family:CMR12;-inkscape-font-specification:CMR12;writing-mode:lr-tb;fill:#231f20;fill-opacity:1;fill-rule:nonzero;stroke:none"
               transform="matrix(1,0,0,-1,355.36026,5.0020714)"><tspan
                 id="tspan138"
                 y="0"
                 x="0">3</tspan></text>
<text
               id="text144"
               style="font-variant:normal;font-weight:normal;font-size:11.95500088px;font-family:CMR12;-inkscape-font-specification:CMR12;writing-mode:lr-tb;fill:#231f20;fill-opacity:1;fill-rule:nonzero;stroke:none"
               transform="matrix(1,0,0,-1,0.47960359,48.110607)"><tspan
                 id="tspan142"
                 y="0"
                 x="0">¯</tspan></text>
<text
               id="text148"
               style="font-variant:normal;font-weight:normal;font-size:11.95500088px;font-family:CMMI12;-inkscape-font-specification:CMMI12;writing-mode:lr-tb;fill:#231f20;fill-opacity:1;fill-rule:nonzero;stroke:none"
               transform="matrix(1,0,0,-1,-9.8743197e-4,48.110607)"><tspan
                 id="tspan146"
                 y="0"
                 x="0">s</tspan></text>
<text
               id="text152"
               style="font-variant:normal;font-weight:normal;font-size:7.96999979px;font-family:CMR8;-inkscape-font-specification:CMR8;writing-mode:lr-tb;fill:#231f20;fill-opacity:1;fill-rule:nonzero;stroke:none"
               transform="matrix(1,0,0,-1,5.5141997,46.317001)"><tspan
                 id="tspan150"
                 y="0"
                 x="0">3</tspan></text>
<text
               id="text156"
               style="font-variant:normal;font-weight:normal;font-size:11.95500088px;font-family:CMR12;-inkscape-font-specification:CMR12;writing-mode:lr-tb;fill:#231f20;fill-opacity:1;fill-rule:nonzero;stroke:none"
               transform="matrix(1,0,0,-1,3.2958999,134.1098)"><tspan
                 id="tspan154"
                 y="0"
                 x="0">¯</tspan></text>
<text
               id="text160"
               style="font-variant:normal;font-weight:normal;font-size:11.95500088px;font-family:CMMI12;-inkscape-font-specification:CMMI12;writing-mode:lr-tb;fill:#231f20;fill-opacity:1;fill-rule:nonzero;stroke:none"
               transform="matrix(1,0,0,-1,2.8153088,134.1098)"><tspan
                 id="tspan158"
                 y="0"
                 x="0">s</tspan></text>
<text
               id="text164"
               style="font-variant:normal;font-weight:normal;font-size:7.96999979px;font-family:CMR8;-inkscape-font-specification:CMR8;writing-mode:lr-tb;fill:#231f20;fill-opacity:1;fill-rule:nonzero;stroke:none"
               transform="matrix(1,0,0,-1,8.3290997,132.3168)"><tspan
                 id="tspan162"
                 y="0"
                 x="0">1</tspan></text>
<text
               id="text168"
               style="font-variant:normal;font-weight:normal;font-size:11.95500088px;font-family:CMR12;-inkscape-font-specification:CMR12;writing-mode:lr-tb;fill:#231f20;fill-opacity:1;fill-rule:nonzero;stroke:none"
               transform="matrix(1,0,0,-1,0.77689999,74.776299)"><tspan
                 id="tspan166"
                 y="0"
                 x="0">¯</tspan></text>
<text
               id="text172"
               style="font-variant:normal;font-weight:normal;font-size:11.95500088px;font-family:CMMI12;-inkscape-font-specification:CMMI12;writing-mode:lr-tb;fill:#231f20;fill-opacity:1;fill-rule:nonzero;stroke:none"
               transform="matrix(1,0,0,-1,0.29630896,74.776299)"><tspan
                 id="tspan170"
                 y="0"
                 x="0">s</tspan></text>
<text
               id="text176"
               style="font-variant:normal;font-weight:normal;font-size:7.96999979px;font-family:CMR8;-inkscape-font-specification:CMR8;writing-mode:lr-tb;fill:#231f20;fill-opacity:1;fill-rule:nonzero;stroke:none"
               transform="matrix(1,0,0,-1,5.8101001,72.983299)"><tspan
                 id="tspan174"
                 y="0"
                 x="0">2</tspan></text>
<path
               id="path178"
               style="fill:none;stroke:#231f20;stroke-width:1;stroke-linecap:butt;stroke-linejoin:miter;stroke-miterlimit:4;stroke-dasharray:none;stroke-opacity:1"
               d="M 255.43802,19.652 H 147.438 v 148.00001" /><path
               id="path180"
               style="fill:#231f20;fill-opacity:1;fill-rule:nonzero;stroke:none"
               d="m 146.552,167.70601 c -0.49899,-1.653 -0.959,-2.728 -1.491,-4.054 h 5.04401 c -0.22502,0.475 -0.992,2.401 -1.491,4.054 -0.53401,1.769 -0.901,3.37399 -1.03001,4.41499 -0.131,-1.041 -0.49699,-2.64599 -1.032,-4.41499" /><path
               id="path182"
               style="fill:none;stroke:#231f20;stroke-width:1;stroke-linecap:butt;stroke-linejoin:miter;stroke-miterlimit:4;stroke-dasharray:none;stroke-opacity:1"
               d="m 387.43802,18.985001 h -108 V 166.985" /><path
               id="path184"
               style="fill:#231f20;fill-opacity:1;fill-rule:nonzero;stroke:none"
               d="m 278.55301,167.039 c -0.5,-1.653 -0.95899,-2.728 -1.49201,-4.054 h 5.04401 c -0.224,0.47499 -0.992,2.401 -1.492,4.054 -0.53302,1.76901 -0.9,3.37401 -1.029,4.41501 -0.13101,-1.041 -0.496,-2.646 -1.031,-4.41501" /></g></g></g></g></g></svg>