<?xml version="1.0" encoding="UTF-8" standalone="no"?>
<svg
   xmlns:dc="http://purl.org/dc/elements/1.1/"
   xmlns:cc="http://creativecommons.org/ns#"
   xmlns:rdf="http://www.w3.org/1999/02/22-rdf-syntax-ns#"
   xmlns:svg="http://www.w3.org/2000/svg"
   xmlns="http://www.w3.org/2000/svg"
   viewBox="0 0 133.33333 137.33333"
   height="137.33333"
   width="133.33333"
   xml:space="preserve"
   id="svg2"
   version="1.1"><metadata
     id="metadata8"><rdf:RDF><cc:Work
         rdf:about=""><dc:format>image/svg+xml</dc:format><dc:type
           rdf:resource="http://purl.org/dc/dcmitype/StillImage" /></cc:Work></rdf:RDF></metadata><defs
     id="defs6"><clipPath
       id="clipPath24"
       clipPathUnits="userSpaceOnUse"><path
         id="path22"
         d="M 0,0 H 100 V 103 H 0 Z" /></clipPath><clipPath
       id="clipPath34"
       clipPathUnits="userSpaceOnUse"><path
         id="path32"
         d="M 0.06,0.05999756 H 99.199999 V 102.801 H 0.06 Z" /></clipPath><clipPath
       id="clipPath50"
       clipPathUnits="userSpaceOnUse"><path
         id="path48"
         d="M 0.06,0.05999756 H 99.199999 V 102.801 H 0.06 Z" /></clipPath><clipPath
       id="clipPath64"
       clipPathUnits="userSpaceOnUse"><path
         id="path62"
         d="M 0.06,0.05999756 H 99.199999 V 102.801 H 0.06 Z" /></clipPath><clipPath
       id="clipPath78"
       clipPathUnits="userSpaceOnUse"><path
         id="path76"
         d="M 0.06,0.05999756 H 99.199999 V 102.801 H 0.06 Z" /></clipPath><clipPath
       id="clipPath92"
       clipPathUnits="userSpaceOnUse"><path
         id="path90"
         d="M 0.06,0.05999756 H 99.199999 V 102.801 H 0.06 Z" /></clipPath><clipPath
       id="clipPath106"
       clipPathUnits="userSpaceOnUse"><path
         id="path104"
         d="M 0.06,0.05999756 H 99.199999 V 102.801 H 0.06 Z" /></clipPath><clipPath
       id="clipPath124"
       clipPathUnits="userSpaceOnUse"><path
         id="path122"
         d="M 0.06,0.05999756 H 99.199999 V 102.801 H 0.06 Z" /></clipPath><clipPath
       id="clipPath138"
       clipPathUnits="userSpaceOnUse"><path
         id="path136"
         d="M 0.06,0.05999756 H 99.199999 V 102.801 H 0.06 Z" /></clipPath><clipPath
       id="clipPath152"
       clipPathUnits="userSpaceOnUse"><path
         id="path150"
         d="M 0.06,0.05999756 H 99.199999 V 102.801 H 0.06 Z" /></clipPath></defs><g
     transform="matrix(1.3333333,0,0,-1.3333333,0,137.33333)"
     id="g10"><g
       id="g12" /><g
       id="g14" /><g
       id="g16"><g
         id="g18"><g
           clip-path="url(#clipPath24)"
           id="g20"><g
             id="g26" /><g
             id="g28"><g
               clip-path="url(#clipPath34)"
               id="g30"><path
                 id="path36"
                 style="fill:#231f20;fill-opacity:1;fill-rule:nonzero;stroke:none"
                 d="M 0,5.2010002 H 98" /><path
                 id="path38"
                 style="fill:none;stroke:#231f20;stroke-width:0.69999999;stroke-linecap:butt;stroke-linejoin:miter;stroke-miterlimit:4;stroke-dasharray:none;stroke-opacity:1"
                 d="M 0,5.2010002 H 98" /></g></g><g
             id="g40"><path
               id="path42"
               style="fill:#231f20;fill-opacity:1;fill-rule:nonzero;stroke:none"
               d="M 0.80000001,99.601006 H 99.200005" /></g><g
             id="g44"><g
               clip-path="url(#clipPath50)"
               id="g46"><path
                 id="path52"
                 style="fill:none;stroke:#231f20;stroke-width:0.69999999;stroke-linecap:butt;stroke-linejoin:miter;stroke-miterlimit:4;stroke-dasharray:none;stroke-opacity:1"
                 d="M 0.80000001,99.601006 H 99.200005" /></g></g><g
             id="g54"><path
               id="path56"
               style="fill:#231f20;fill-opacity:1;fill-rule:nonzero;stroke:none"
               d="M 1.2,75.601006 H 98.400002" /></g><g
             id="g58"><g
               clip-path="url(#clipPath64)"
               id="g60"><path
                 id="path66"
                 style="fill:none;stroke:#231f20;stroke-width:0.69999999;stroke-linecap:butt;stroke-linejoin:miter;stroke-miterlimit:4;stroke-dasharray:none;stroke-opacity:1"
                 d="M 1.2,75.601006 H 98.400002" /></g></g><g
             id="g68"><path
               id="path70"
               style="fill:#231f20;fill-opacity:1;fill-rule:nonzero;stroke:none"
               d="M 0.40000001,52.401001 H 99.200005" /></g><g
             id="g72"><g
               clip-path="url(#clipPath78)"
               id="g74"><path
                 id="path80"
                 style="fill:none;stroke:#231f20;stroke-width:0.69999999;stroke-linecap:butt;stroke-linejoin:miter;stroke-miterlimit:4;stroke-dasharray:none;stroke-opacity:1"
                 d="M 0.40000001,52.401001 H 99.200005" /></g></g><g
             id="g82"><path
               id="path84"
               style="fill:#231f20;fill-opacity:1;fill-rule:nonzero;stroke:none"
               d="M 0.40000001,28.800001 H 98.400002" /></g><g
             id="g86"><g
               clip-path="url(#clipPath92)"
               id="g88"><path
                 id="path94"
                 style="fill:none;stroke:#231f20;stroke-width:0.69999999;stroke-linecap:butt;stroke-linejoin:miter;stroke-miterlimit:4;stroke-dasharray:none;stroke-opacity:1"
                 d="M 0.40000001,28.800001 H 98.400002" /></g></g><g
             id="g96"><path
               id="path98"
               style="fill:#231f20;fill-opacity:1;fill-rule:nonzero;stroke:none"
               d="M 95.599998,102.00101 V 0.40000001" /></g><g
             id="g100"><g
               clip-path="url(#clipPath106)"
               id="g102"><path
                 id="path108"
                 style="fill:none;stroke:#231f20;stroke-width:0.69999999;stroke-linecap:butt;stroke-linejoin:miter;stroke-miterlimit:4;stroke-dasharray:none;stroke-opacity:1"
                 d="M 95.599998,102.00101 V 0.40000001" /><path
                 id="path110"
                 style="fill:#231f20;fill-opacity:1;fill-rule:nonzero;stroke:none"
                 d="M 72.800003,101.201 V 0" /><path
                 id="path112"
                 style="fill:none;stroke:#231f20;stroke-width:0.69999999;stroke-linecap:butt;stroke-linejoin:miter;stroke-miterlimit:4;stroke-dasharray:none;stroke-opacity:1"
                 d="M 72.800003,101.201 V 0" /></g></g><g
             id="g114"><path
               id="path116"
               style="fill:#231f20;fill-opacity:1;fill-rule:nonzero;stroke:none"
               d="M 49.600002,101.201 V 0.40000001" /></g><g
             id="g118"><g
               clip-path="url(#clipPath124)"
               id="g120"><path
                 id="path126"
                 style="fill:none;stroke:#231f20;stroke-width:0.69999999;stroke-linecap:butt;stroke-linejoin:miter;stroke-miterlimit:4;stroke-dasharray:none;stroke-opacity:1"
                 d="M 49.600002,101.201 V 0.40000001" /></g></g><g
             id="g128"><path
               id="path130"
               style="fill:#231f20;fill-opacity:1;fill-rule:nonzero;stroke:none"
               d="M 26.800001,102.40101 V 0.80000001" /></g><g
             id="g132"><g
               clip-path="url(#clipPath138)"
               id="g134"><path
                 id="path140"
                 style="fill:none;stroke:#231f20;stroke-width:0.69999999;stroke-linecap:butt;stroke-linejoin:miter;stroke-miterlimit:4;stroke-dasharray:none;stroke-opacity:1"
                 d="M 26.800001,102.40101 V 0.80000001" /></g></g><g
             id="g142"><path
               id="path144"
               style="fill:#231f20;fill-opacity:1;fill-rule:nonzero;stroke:none"
               d="M 3.2,102.801 V 1.2" /></g><g
             id="g146"><g
               clip-path="url(#clipPath152)"
               id="g148"><path
                 id="path154"
                 style="fill:none;stroke:#231f20;stroke-width:0.69999999;stroke-linecap:butt;stroke-linejoin:miter;stroke-miterlimit:4;stroke-dasharray:none;stroke-opacity:1"
                 d="M 3.2,102.801 V 1.2" /></g></g><g
             id="g156"><text
               id="text160"
               style="font-variant:normal;font-weight:normal;font-size:11.95500088px;font-family:CMMI12;-inkscape-font-specification:CMMI12;writing-mode:lr-tb;fill:#231f20;fill-opacity:1;fill-rule:nonzero;stroke:none"
               transform="matrix(1,0,0,-1,34.336899,79.966499)"><tspan
                 id="tspan158"
                 y="0"
                 x="0">u</tspan></text>
<text
               id="text164"
               style="font-variant:normal;font-weight:normal;font-size:7.96999979px;font-family:CMMI8;-inkscape-font-specification:CMMI8;writing-mode:lr-tb;fill:#231f20;fill-opacity:1;fill-rule:nonzero;stroke:none"
               transform="matrix(1,0,0,-1,41,78.1726)"><tspan
                 id="tspan162"
                 y="0"
                 x="0">N</tspan></text>
<text
               id="text168"
               style="font-variant:normal;font-weight:normal;font-size:11.95500088px;font-family:CMMI12;-inkscape-font-specification:CMMI12;writing-mode:lr-tb;fill:#231f20;fill-opacity:1;fill-rule:nonzero;stroke:none"
               transform="matrix(1,0,0,-1,10.3721,56.466499)"><tspan
                 id="tspan166"
                 y="0"
                 x="0">u</tspan></text>
<text
               id="text172"
               style="font-variant:normal;font-weight:normal;font-size:7.96999979px;font-family:CMMI8;-inkscape-font-specification:CMMI8;writing-mode:lr-tb;fill:#231f20;fill-opacity:1;fill-rule:nonzero;stroke:none"
               transform="matrix(1,0,0,-1,17.0352,54.6726)"><tspan
                 id="tspan170"
                 y="0"
                 x="0">W</tspan></text>
<text
               id="text176"
               style="font-variant:normal;font-weight:normal;font-size:11.95500088px;font-family:CMMI12;-inkscape-font-specification:CMMI12;writing-mode:lr-tb;fill:#231f20;fill-opacity:1;fill-rule:nonzero;stroke:none"
               transform="matrix(1,0,0,-1,51.437004,56.966499)"><tspan
                 id="tspan174"
                 y="0"
                 x="0">u</tspan></text>
<text
               id="text180"
               style="font-variant:normal;font-weight:normal;font-size:7.96999979px;font-family:CMR8;-inkscape-font-specification:CMR8;writing-mode:lr-tb;fill:#231f20;fill-opacity:1;fill-rule:nonzero;stroke:none"
               transform="matrix(1,0,0,-1,58.100098,55.1726)"><tspan
                 id="tspan178"
                 y="0"
                 x="0">0</tspan></text>
<text
               id="text184"
               style="font-variant:normal;font-weight:normal;font-size:11.95500088px;font-family:CMMI12;-inkscape-font-specification:CMMI12;writing-mode:lr-tb;fill:#231f20;fill-opacity:1;fill-rule:nonzero;stroke:none"
               transform="matrix(1,0,0,-1,76.937004,55.944599)"><tspan
                 id="tspan182"
                 y="0"
                 x="0">u</tspan></text>
<text
               id="text188"
               style="font-variant:normal;font-weight:normal;font-size:7.96999979px;font-family:CMMI8;-inkscape-font-specification:CMMI8;writing-mode:lr-tb;fill:#231f20;fill-opacity:1;fill-rule:nonzero;stroke:none"
               transform="matrix(1,0,0,-1,83.600098,54.1506)"><tspan
                 id="tspan186"
                 y="0"
                 x="0">E</tspan></text>
<text
               id="text192"
               style="font-variant:normal;font-weight:normal;font-size:11.95500088px;font-family:CMMI12;-inkscape-font-specification:CMMI12;writing-mode:lr-tb;fill:#231f20;fill-opacity:1;fill-rule:nonzero;stroke:none"
               transform="matrix(1,0,0,-1,35.649899,31.944599)"><tspan
                 id="tspan190"
                 y="0"
                 x="0">u</tspan></text>
<text
               id="text196"
               style="font-variant:normal;font-weight:normal;font-size:7.96999979px;font-family:CMMI8;-inkscape-font-specification:CMMI8;writing-mode:lr-tb;fill:#231f20;fill-opacity:1;fill-rule:nonzero;stroke:none"
               transform="matrix(1,0,0,-1,42.100098,30.150599)"><tspan
                 id="tspan194"
                 y="0"
                 x="0">S</tspan></text>
<path
               id="path198"
               style="fill:#231f20;fill-opacity:1;fill-rule:nonzero;stroke:none"
               d="M 26.800001,52.801003 H 72.400002" /><path
               id="path200"
               style="fill:none;stroke:#231f20;stroke-width:2;stroke-linecap:butt;stroke-linejoin:miter;stroke-miterlimit:4;stroke-dasharray:none;stroke-opacity:1"
               d="M 26.800001,52.801003 H 72.400002" /><path
               id="path202"
               style="fill:#231f20;fill-opacity:1;fill-rule:nonzero;stroke:none"
               d="M 49.200001,29.201002 V 76.001007" /><path
               id="path204"
               style="fill:none;stroke:#231f20;stroke-width:2;stroke-linecap:butt;stroke-linejoin:miter;stroke-miterlimit:4;stroke-dasharray:none;stroke-opacity:1"
               d="M 49.200001,29.201002 V 76.001007" /><path
               id="path206"
               style="fill:#231f20;fill-opacity:1;fill-rule:nonzero;stroke:none"
               d="m 51.600002,53.001003 c 0,-1.215 -0.985,-2.201004 -2.2,-2.201004 -1.214001,0 -2.200001,0.986004 -2.200001,2.201004 0,1.214001 0.986,2.200001 2.200001,2.200001 1.215,0 2.2,-0.986 2.2,-2.200001" /><path
               id="path208"
               style="fill:none;stroke:#231f20;stroke-width:2;stroke-linecap:butt;stroke-linejoin:miter;stroke-miterlimit:4;stroke-dasharray:none;stroke-opacity:1"
               d="m 51.600002,53.001003 c 0,-1.215 -0.985,-2.201004 -2.2,-2.201004 -1.214001,0 -2.200001,0.986004 -2.200001,2.201004 0,1.214001 0.986,2.200001 2.200001,2.200001 1.215,0 2.2,-0.986 2.2,-2.200001 z" /><path
               id="path210"
               style="fill:#231f20;fill-opacity:1;fill-rule:nonzero;stroke:none"
               d="m 51.600002,75.801003 c 0,-1.214997 -0.985,-2.199997 -2.2,-2.199997 -1.214001,0 -2.200001,0.985 -2.200001,2.199997 0,1.214004 0.986,2.200004 2.200001,2.200004 1.215,0 2.2,-0.986 2.2,-2.200004" /><path
               id="path212"
               style="fill:none;stroke:#231f20;stroke-width:2;stroke-linecap:butt;stroke-linejoin:miter;stroke-miterlimit:4;stroke-dasharray:none;stroke-opacity:1"
               d="m 51.600002,75.801003 c 0,-1.214997 -0.985,-2.199997 -2.2,-2.199997 -1.214001,0 -2.200001,0.985 -2.200001,2.199997 0,1.214004 0.986,2.200004 2.200001,2.200004 1.215,0 2.2,-0.986 2.2,-2.200004 z" /><path
               id="path214"
               style="fill:#231f20;fill-opacity:1;fill-rule:nonzero;stroke:none"
               d="m 29,52.801003 c 0,-1.215001 -0.984999,-2.200001 -2.199999,-2.200001 -1.214001,0 -2.200001,0.985 -2.200001,2.200001 0,1.214 0.986,2.2 2.200001,2.2 1.215,0 2.199999,-0.986 2.199999,-2.2" /><path
               id="path216"
               style="fill:none;stroke:#231f20;stroke-width:2;stroke-linecap:butt;stroke-linejoin:miter;stroke-miterlimit:4;stroke-dasharray:none;stroke-opacity:1"
               d="m 29,52.801003 c 0,-1.215001 -0.984999,-2.200001 -2.199999,-2.200001 -1.214001,0 -2.200001,0.985 -2.200001,2.200001 0,1.214 0.986,2.2 2.200001,2.2 1.215,0 2.199999,-0.986 2.199999,-2.2 z" /><path
               id="path218"
               style="fill:#231f20;fill-opacity:1;fill-rule:nonzero;stroke:none"
               d="m 75.200005,52.601002 c 0,-1.215 -0.985001,-2.200001 -2.200005,-2.200001 -1.214996,0 -2.199997,0.985001 -2.199997,2.200001 0,1.215 0.985001,2.200001 2.199997,2.200001 1.215004,0 2.200005,-0.985001 2.200005,-2.200001" /><path
               id="path220"
               style="fill:none;stroke:#231f20;stroke-width:2;stroke-linecap:butt;stroke-linejoin:miter;stroke-miterlimit:4;stroke-dasharray:none;stroke-opacity:1"
               d="m 75.200005,52.601002 c 0,-1.215 -0.985001,-2.200001 -2.200005,-2.200001 -1.214996,0 -2.199997,0.985001 -2.199997,2.200001 0,1.215 0.985001,2.200001 2.199997,2.200001 1.215004,0 2.200005,-0.985001 2.200005,-2.200001 z" /><path
               id="path222"
               style="fill:#231f20;fill-opacity:1;fill-rule:nonzero;stroke:none"
               d="m 51.200001,28.201002 c 0,-1.215 -0.984997,-2.200001 -2.200001,-2.200001 -1.214996,0 -2.200001,0.985001 -2.200001,2.200001 0,1.215 0.985005,2.199999 2.200001,2.199999 1.215004,0 2.200001,-0.984999 2.200001,-2.199999" /><path
               id="path224"
               style="fill:none;stroke:#231f20;stroke-width:2;stroke-linecap:butt;stroke-linejoin:miter;stroke-miterlimit:4;stroke-dasharray:none;stroke-opacity:1"
               d="m 51.200001,28.201002 c 0,-1.215 -0.984997,-2.200001 -2.200001,-2.200001 -1.214996,0 -2.200001,0.985001 -2.200001,2.200001 0,1.215 0.985005,2.199999 2.200001,2.199999 1.215004,0 2.200001,-0.984999 2.200001,-2.199999 z" /></g></g></g></g></g></svg>