<?xml version="1.0" encoding="UTF-8" standalone="no"?>
<svg
   xmlns:dc="http://purl.org/dc/elements/1.1/"
   xmlns:cc="http://creativecommons.org/ns#"
   xmlns:rdf="http://www.w3.org/1999/02/22-rdf-syntax-ns#"
   xmlns:svg="http://www.w3.org/2000/svg"
   xmlns="http://www.w3.org/2000/svg"
   viewBox="0 0 264 170.66667"
   height="170.66667"
   width="264"
   xml:space="preserve"
   id="svg2"
   version="1.1"><metadata
     id="metadata8"><rdf:RDF><cc:Work
         rdf:about=""><dc:format>image/svg+xml</dc:format><dc:type
           rdf:resource="http://purl.org/dc/dcmitype/StillImage" /></cc:Work></rdf:RDF></metadata><defs
     id="defs6"><clipPath
       id="clipPath24"
       clipPathUnits="userSpaceOnUse"><path
         id="path22"
         d="M 0,0 H 198 V 128 H 0 Z" /></clipPath><clipPath
       id="clipPath38"
       clipPathUnits="userSpaceOnUse"><path
         id="path36"
         d="M 0,0 H 197.98502 V 128 H 0 Z" /></clipPath><clipPath
       id="clipPath52"
       clipPathUnits="userSpaceOnUse"><path
         id="path50"
         d="M 0,0 H 197.98502 V 128 H 0 Z" /></clipPath><clipPath
       id="clipPath66"
       clipPathUnits="userSpaceOnUse"><path
         id="path64"
         d="M 0,0 H 197.98502 V 128 H 0 Z" /></clipPath><clipPath
       id="clipPath80"
       clipPathUnits="userSpaceOnUse"><path
         id="path78"
         d="M 0,0 H 197.98502 V 128 H 0 Z" /></clipPath><clipPath
       id="clipPath94"
       clipPathUnits="userSpaceOnUse"><path
         id="path92"
         d="M 0,0 H 197.98502 V 128 H 0 Z" /></clipPath><clipPath
       id="clipPath108"
       clipPathUnits="userSpaceOnUse"><path
         id="path106"
         d="M 0,0 H 197.98502 V 128 H 0 Z" /></clipPath><clipPath
       id="clipPath122"
       clipPathUnits="userSpaceOnUse"><path
         id="path120"
         d="M 0,0 H 197.98502 V 128 H 0 Z" /></clipPath><clipPath
       id="clipPath136"
       clipPathUnits="userSpaceOnUse"><path
         id="path134"
         d="M 0,0 H 197.98502 V 128 H 0 Z" /></clipPath></defs><g
     transform="matrix(1.3333333,0,0,-1.3333333,0,170.66667)"
     id="g10"><g
       id="g12" /><g
       id="g14" /><g
       id="g16"><g
         id="g18"><g
           clip-path="url(#clipPath24)"
           id="g20"><g
             id="g26" /><g
             id="g28"><path
               id="path30"
               style="fill:#231f20;fill-opacity:1;fill-rule:nonzero;stroke:none"
               d="M 74.984001,96.800003 H 197.98502" /></g><g
             id="g32"><g
               clip-path="url(#clipPath38)"
               id="g34"><path
                 id="path40"
                 style="fill:none;stroke:#231f20;stroke-width:0.69999999;stroke-linecap:butt;stroke-linejoin:miter;stroke-miterlimit:4;stroke-dasharray:none;stroke-opacity:1"
                 d="M 74.984001,96.800003 H 197.98502" /></g></g><g
             id="g42"><path
               id="path44"
               style="fill:#231f20;fill-opacity:1;fill-rule:nonzero;stroke:none"
               d="M 75.484001,72.800003 H 196.98502" /></g><g
             id="g46"><g
               clip-path="url(#clipPath52)"
               id="g48"><path
                 id="path54"
                 style="fill:none;stroke:#231f20;stroke-width:0.69999999;stroke-linecap:butt;stroke-linejoin:miter;stroke-miterlimit:4;stroke-dasharray:none;stroke-opacity:1"
                 d="M 75.484001,72.800003 H 196.98502" /></g></g><g
             id="g56"><path
               id="path58"
               style="fill:#231f20;fill-opacity:1;fill-rule:nonzero;stroke:none"
               d="M 74.483002,49.600002 H 197.98502" /></g><g
             id="g60"><g
               clip-path="url(#clipPath66)"
               id="g62"><path
                 id="path68"
                 style="fill:none;stroke:#231f20;stroke-width:0.69999999;stroke-linecap:butt;stroke-linejoin:miter;stroke-miterlimit:4;stroke-dasharray:none;stroke-opacity:1"
                 d="M 74.483002,49.600002 H 197.98502" /></g></g><g
             id="g70"><path
               id="path72"
               style="fill:#231f20;fill-opacity:1;fill-rule:nonzero;stroke:none"
               d="M 74.483002,26 H 196.98502" /></g><g
             id="g74"><g
               clip-path="url(#clipPath80)"
               id="g76"><path
                 id="path82"
                 style="fill:none;stroke:#231f20;stroke-width:0.69999999;stroke-linecap:butt;stroke-linejoin:miter;stroke-miterlimit:4;stroke-dasharray:none;stroke-opacity:1"
                 d="M 74.483002,26 H 196.98502" /></g></g><g
             id="g84"><path
               id="path86"
               style="fill:#231f20;fill-opacity:1;fill-rule:nonzero;stroke:none"
               d="M 172.43501,127.50101 V 0.5" /></g><g
             id="g88"><g
               clip-path="url(#clipPath94)"
               id="g90"><path
                 id="path96"
                 style="fill:none;stroke:#231f20;stroke-width:0.69999999;stroke-linecap:butt;stroke-linejoin:miter;stroke-miterlimit:4;stroke-dasharray:none;stroke-opacity:1"
                 d="M 172.43501,127.50101 V 0.5" /></g></g><g
             id="g98"><path
               id="path100"
               style="fill:#231f20;fill-opacity:1;fill-rule:nonzero;stroke:none"
               d="M 149.634,126.5 V 0" /></g><g
             id="g102"><g
               clip-path="url(#clipPath108)"
               id="g104"><path
                 id="path110"
                 style="fill:none;stroke:#231f20;stroke-width:0.69999999;stroke-linecap:butt;stroke-linejoin:miter;stroke-miterlimit:4;stroke-dasharray:none;stroke-opacity:1"
                 d="M 149.634,126.5 V 0" /></g></g><g
             id="g112"><path
               id="path114"
               style="fill:#231f20;fill-opacity:1;fill-rule:nonzero;stroke:none"
               d="M 126.43501,126.50101 V 0.5" /></g><g
             id="g116"><g
               clip-path="url(#clipPath122)"
               id="g118"><path
                 id="path124"
                 style="fill:none;stroke:#231f20;stroke-width:0.69999999;stroke-linecap:butt;stroke-linejoin:miter;stroke-miterlimit:4;stroke-dasharray:none;stroke-opacity:1"
                 d="M 126.43501,126.50101 V 0.5" /></g></g><g
             id="g126"><path
               id="path128"
               style="fill:#231f20;fill-opacity:1;fill-rule:nonzero;stroke:none"
               d="M 103.634,128 V 1" /></g><g
             id="g130"><g
               clip-path="url(#clipPath136)"
               id="g132"><path
                 id="path138"
                 style="fill:none;stroke:#231f20;stroke-width:0.69999999;stroke-linecap:butt;stroke-linejoin:miter;stroke-miterlimit:4;stroke-dasharray:none;stroke-opacity:1"
                 d="M 103.634,128 V 1" /></g></g><g
             id="g140"><path
               id="path142"
               style="fill:#231f20;fill-opacity:1;fill-rule:nonzero;stroke:none"
               d="m 102.83401,50 h 45.601" /><path
               id="path144"
               style="fill:none;stroke:#231f20;stroke-width:2;stroke-linecap:butt;stroke-linejoin:miter;stroke-miterlimit:4;stroke-dasharray:none;stroke-opacity:1"
               d="m 102.83401,50 h 45.601" /><path
               id="path146"
               style="fill:#231f20;fill-opacity:1;fill-rule:nonzero;stroke:none"
               d="M 125.23401,26.4 V 73.200005" /><path
               id="path148"
               style="fill:none;stroke:#231f20;stroke-width:2;stroke-linecap:butt;stroke-linejoin:miter;stroke-miterlimit:4;stroke-dasharray:none;stroke-opacity:1"
               d="M 125.23401,26.4 V 73.200005" /><path
               id="path150"
               style="fill:#231f20;fill-opacity:1;fill-rule:nonzero;stroke:none"
               d="m 150.834,50.400002 c 0,-1.214001 -0.98499,-2.200001 -2.2,-2.200001 -1.21499,0 -2.19899,0.986 -2.19899,2.200001 0,1.215 0.984,2.2 2.19899,2.2 1.21501,0 2.2,-0.985 2.2,-2.2" /><path
               id="path152"
               style="fill:none;stroke:#231f20;stroke-width:2;stroke-linecap:butt;stroke-linejoin:miter;stroke-miterlimit:4;stroke-dasharray:none;stroke-opacity:1"
               d="m 150.834,50.400002 c 0,-1.214001 -0.98499,-2.200001 -2.2,-2.200001 -1.21499,0 -2.19899,0.986 -2.19899,2.200001 0,1.215 0.984,2.2 2.19899,2.2 1.21501,0 2.2,-0.985 2.2,-2.2 z" /><path
               id="path154"
               style="fill:#231f20;fill-opacity:1;fill-rule:nonzero;stroke:none"
               d="m 127.83401,50.200001 c 0,-1.215 -0.985,-2.200001 -2.20001,-2.200001 -1.21499,0 -2.19899,0.985001 -2.19899,2.200001 0,1.215 0.984,2.200001 2.19899,2.200001 1.21501,0 2.20001,-0.985001 2.20001,-2.200001" /><path
               id="path156"
               style="fill:none;stroke:#231f20;stroke-width:2;stroke-linecap:butt;stroke-linejoin:miter;stroke-miterlimit:4;stroke-dasharray:none;stroke-opacity:1"
               d="m 127.83401,50.200001 c 0,-1.215 -0.985,-2.200001 -2.20001,-2.200001 -1.21499,0 -2.19899,0.985001 -2.19899,2.200001 0,1.215 0.984,2.200001 2.19899,2.200001 1.21501,0 2.20001,-0.985001 2.20001,-2.200001 z" /><path
               id="path158"
               style="fill:#231f20;fill-opacity:1;fill-rule:nonzero;stroke:none"
               d="m 105.034,50 c 0,-1.214996 -0.985,-2.200001 -2.19999,-2.200001 -1.21401,0 -2.20001,0.985005 -2.20001,2.200001 0,1.215004 0.986,2.200001 2.20001,2.200001 1.21499,0 2.19999,-0.984997 2.19999,-2.200001" /><path
               id="path160"
               style="fill:none;stroke:#231f20;stroke-width:2;stroke-linecap:butt;stroke-linejoin:miter;stroke-miterlimit:4;stroke-dasharray:none;stroke-opacity:1"
               d="m 105.034,50 c 0,-1.214996 -0.985,-2.200001 -2.19999,-2.200001 -1.21401,0 -2.20001,0.985005 -2.20001,2.200001 0,1.215004 0.986,2.200001 2.20001,2.200001 1.21499,0 2.19999,-0.984997 2.19999,-2.200001 z" /><path
               id="path162"
               style="fill:#231f20;fill-opacity:1;fill-rule:nonzero;stroke:none"
               d="m 127.83401,73 c 0,-1.214996 -0.985,-2.199997 -2.20001,-2.199997 -1.21499,0 -2.19899,0.985001 -2.19899,2.199997 0,1.215004 0.984,2.200005 2.19899,2.200005 1.21501,0 2.20001,-0.985001 2.20001,-2.200005" /><path
               id="path164"
               style="fill:none;stroke:#231f20;stroke-width:2;stroke-linecap:butt;stroke-linejoin:miter;stroke-miterlimit:4;stroke-dasharray:none;stroke-opacity:1"
               d="m 127.83401,73 c 0,-1.214996 -0.985,-2.199997 -2.20001,-2.199997 -1.21499,0 -2.19899,0.985001 -2.19899,2.199997 0,1.215004 0.984,2.200005 2.19899,2.200005 1.21501,0 2.20001,-0.985001 2.20001,-2.200005 z" /><path
               id="path166"
               style="fill:none;stroke:#231f20;stroke-width:0.69999999;stroke-linecap:butt;stroke-linejoin:miter;stroke-miterlimit:4;stroke-dasharray:none;stroke-opacity:1"
               d="M 79.184006,119.1 H 195.58401 V 2.6999969 H 79.184006 Z" /><path
               id="path168"
               style="fill:#231f20;fill-opacity:1;fill-rule:nonzero;stroke:none"
               d="m 127.95,26.75 c 0,-1.214998 -0.985,-2.200001 -2.2,-2.200001 -1.214,0 -2.2,0.985003 -2.2,2.200001 0,1.214001 0.986,2.199999 2.2,2.199999 1.215,0 2.2,-0.985998 2.2,-2.199999" /><path
               id="path170"
               style="fill:none;stroke:#231f20;stroke-width:2;stroke-linecap:butt;stroke-linejoin:miter;stroke-miterlimit:4;stroke-dasharray:none;stroke-opacity:1"
               d="m 127.95,26.75 c 0,-1.214998 -0.985,-2.200001 -2.2,-2.200001 -1.214,0 -2.2,0.985003 -2.2,2.200001 0,1.214001 0.986,2.199999 2.2,2.199999 1.215,0 2.2,-0.985998 2.2,-2.199999 z" /><path
               id="path172"
               style="fill:none;stroke:#231f20;stroke-width:0.80000001;stroke-linecap:butt;stroke-linejoin:miter;stroke-miterlimit:4;stroke-dasharray:3, 3, 3, 3, 3, 3;stroke-dashoffset:0;stroke-opacity:1"
               d="m 111.25,50 c 0,-4.555996 -3.69299,-8.25 -8.25,-8.25 -4.555992,0 -8.25,3.694004 -8.25,8.25 0,4.556004 3.694008,8.25 8.25,8.25 4.55701,0 8.25,-3.693996 8.25,-8.25 z M 134,26.25 c 0,-4.556999 -3.69299,-8.25 -8.25,-8.25 -4.55599,0 -8.25,3.693001 -8.25,8.25 0,4.556002 3.69401,8.25 8.25,8.25 4.55701,0 8.25,-3.693998 8.25,-8.25 z" /><text
               id="text176"
               style="font-variant:normal;font-weight:normal;font-size:11.95500088px;font-family:CMSS12;-inkscape-font-specification:CMSS12;writing-mode:lr-tb;fill:#231f20;fill-opacity:1;fill-rule:nonzero;stroke:none"
               transform="matrix(1,0,0,-1,0,26.223001)"><tspan
                 id="tspan174"
                 y="0"
                 x="0 6.0014105 11.201836">new</tspan></text>
<text
               id="text180"
               style="font-variant:normal;font-weight:normal;font-size:11.95500088px;font-family:CMSS12;-inkscape-font-specification:CMSS12;writing-mode:lr-tb;fill:#231f20;fill-opacity:1;fill-rule:nonzero;stroke:none"
               transform="matrix(1,0,0,-1,23.065981,26.223001)"><tspan
                 id="tspan178"
                 y="0"
                 x="0 5.3438854 10.938826 13.688477 19.689886 24.890312">values</tspan></text>
<text
               id="text184"
               style="font-variant:normal;font-weight:normal;font-size:11.95500088px;font-family:CMSS12;-inkscape-font-specification:CMSS12;writing-mode:lr-tb;fill:#231f20;fill-opacity:1;fill-rule:nonzero;stroke:none"
               transform="matrix(1,0,0,-1,6.8753209,13.722854)"><tspan
                 id="tspan182"
                 y="0"
                 x="0 5.5949407 8.3445911 12.313651 17.514076 23.109016 29.110428">already</tspan></text>
<text
               id="text188"
               style="font-variant:normal;font-weight:normal;font-size:11.95500088px;font-family:CMSS12;-inkscape-font-specification:CMSS12;writing-mode:lr-tb;fill:#231f20;fill-opacity:1;fill-rule:nonzero;stroke:none"
               transform="matrix(1,0,0,-1,45.280762,13.722854)"><tspan
                 id="tspan186"
                 y="0"
                 x="0 3.5745454 9.4205408 15.421951 21.423363">found</tspan></text>
<path
               id="path190"
               style="fill:#231f20;fill-opacity:1;fill-rule:nonzero;stroke:none"
               d="M 61,30 88.25,41.25" /><path
               id="path192"
               style="fill:none;stroke:#231f20;stroke-width:0.80000001;stroke-linecap:butt;stroke-linejoin:miter;stroke-miterlimit:4;stroke-dasharray:none;stroke-opacity:1"
               d="M 61,30 88.25,41.25" /><path
               id="path194"
               style="fill:#231f20;fill-opacity:1;fill-rule:nonzero;stroke:none"
               d="M 90.042007,43.099003 C 88.323006,42.93 87.154007,42.944 85.726006,42.93 l 1.923996,-4.662998 c 0.353004,0.389999 1.841003,1.834 3.179,2.925999 1.430993,1.170002 2.775002,2.120003 3.687004,2.638 -1.012001,-0.277 -2.635002,-0.551002 -4.473999,-0.731998" /><path
               id="path196"
               style="fill:none;stroke:#231f20;stroke-width:0.80000001;stroke-linecap:butt;stroke-linejoin:miter;stroke-miterlimit:4;stroke-dasharray:none;stroke-opacity:1"
               d="M 90.042007,43.099003 C 88.323006,42.93 87.154007,42.944 85.726006,42.93 l 1.923996,-4.662998 c 0.353004,0.389999 1.841003,1.834 3.179,2.925999 1.430993,1.170002 2.775002,2.120003 3.687004,2.638 -1.012001,-0.277 -2.635002,-0.551002 -4.473999,-0.731998 z" /><path
               id="path198"
               style="fill:#231f20;fill-opacity:1;fill-rule:nonzero;stroke:none"
               d="M 76,17.25 108.75,21" /><path
               id="path200"
               style="fill:none;stroke:#231f20;stroke-width:0.80000001;stroke-linecap:butt;stroke-linejoin:miter;stroke-miterlimit:4;stroke-dasharray:none;stroke-opacity:1"
               d="M 76,17.25 108.75,21" /><path
               id="path202"
               style="fill:#231f20;fill-opacity:1;fill-rule:nonzero;stroke:none"
               d="m 110.535,22.029001 c -1.36,0.247 -2.25599,0.514 -3.359,0.817 L 107.635,18.836 c 0.357,0.223 1.818,1.008002 3.08701,1.555001 1.35798,0.586 2.6,1.023 3.415,1.221 -0.83901,0.009 -2.148,0.154 -3.60201,0.417" /></g></g></g></g></g></svg>