<?xml version="1.0" encoding="UTF-8" standalone="no"?>
<svg
   xmlns:dc="http://purl.org/dc/elements/1.1/"
   xmlns:cc="http://creativecommons.org/ns#"
   xmlns:rdf="http://www.w3.org/1999/02/22-rdf-syntax-ns#"
   xmlns:svg="http://www.w3.org/2000/svg"
   xmlns="http://www.w3.org/2000/svg"
   viewBox="0 0 313.33334 228"
   height="228"
   width="313.33334"
   xml:space="preserve"
   id="svg2"
   version="1.1"><metadata
     id="metadata8"><rdf:RDF><cc:Work
         rdf:about=""><dc:format>image/svg+xml</dc:format><dc:type
           rdf:resource="http://purl.org/dc/dcmitype/StillImage" /></cc:Work></rdf:RDF></metadata><defs
     id="defs6"><clipPath
       id="clipPath24"
       clipPathUnits="userSpaceOnUse"><path
         id="path22"
         d="M 0,0 H 235 V 171 H 0 Z" /></clipPath><clipPath
       id="clipPath38"
       clipPathUnits="userSpaceOnUse"><path
         id="path36"
         d="M 0,0 H 234.09401 V 170.09702 H 0 Z" /></clipPath></defs><g
     transform="matrix(1.3333333,0,0,-1.3333333,0,228)"
     id="g10"><g
       id="g12" /><g
       id="g14" /><g
       id="g16"><g
         id="g18"><g
           clip-path="url(#clipPath24)"
           id="g20"><g
             id="g26" /><g
             id="g28"><path
               id="path30"
               style="fill:none;stroke:#231f20;stroke-width:0.5;stroke-linecap:butt;stroke-linejoin:round;stroke-miterlimit:10;stroke-dasharray:none;stroke-opacity:1"
               d="M 35.782001,17.002001 H 224.36601 m -188.584009,0 V 165.58501 m 0,-148.583009 v 1.916 m 33.667004,-1.916 v 1.916 m 33.666995,-1.916 v 1.916 m 33.667,-1.916 v 1.916 m 33.66601,-1.916 v 1.916 m -134.667009,-1.916 h 1.834 m -1.834,29.750002 h 1.834 m -1.834,29.750004 h 1.834 m -1.834,29.666003 h 1.834 m -1.834,29.74999 h 1.834 m -1.834,29.66701 h 1.834" /></g><g
             id="g32"><g
               clip-path="url(#clipPath38)"
               id="g34"><path
                 id="path40"
                 style="fill:none;stroke:#231f20;stroke-width:0.90000004;stroke-linecap:butt;stroke-linejoin:round;stroke-miterlimit:10;stroke-dasharray:none;stroke-opacity:1"
                 d="M 35.782001,17.002001 69.449005,128.502 103.116,165.58501 136.783,128.502 170.44901,17.002001" /><path
                 id="path42"
                 style="fill:none;stroke:#231f20;stroke-width:0.5;stroke-linecap:butt;stroke-linejoin:round;stroke-miterlimit:10;stroke-dasharray:none;stroke-opacity:1"
                 d="m 38.746002,16.922001 c 0,-1.657001 -1.344002,-3 -3,-3 -1.656002,0 -3,1.342999 -3,3 0,1.656 1.343998,3 3,3 1.655998,0 3,-1.344 3,-3 M 72.346001,128.522 c 0,-1.656 -1.343994,-3 -3,-3 -1.656006,0 -3,1.344 -3,3 0,1.65601 1.343994,3 3,3 1.656006,0 3,-1.34399 3,-3 M 106.186,165.48201 c 0,-1.65601 -1.344,-3 -3,-3 -1.656,0 -3,1.34399 -3,3 0,1.65599 1.344,3 3,3 1.656,0 3,-1.34401 3,-3 M 139.78601,128.522 c 0,-1.656 -1.34401,-3 -3,-3 -1.65602,0 -3,1.344 -3,3 0,1.65601 1.34398,3 3,3 1.65599,0 3,-1.34399 3,-3 M 173.386,16.922001 c 0,-1.657001 -1.34399,-3 -3,-3 -1.656,0 -3,1.342999 -3,3 0,1.656 1.344,3 3,3 1.65601,0 3,-1.344 3,-3" /></g></g><g
             id="g44"><path
               id="path46"
               style="fill:none;stroke:#231f20;stroke-width:0.80000001;stroke-linecap:butt;stroke-linejoin:round;stroke-miterlimit:10;stroke-dasharray:3, 4;stroke-dashoffset:0;stroke-opacity:1"
               d="m 35.782001,17.002001 33.667004,99.583009 33.666995,37.167 33.667,-37.167 33.66601,-99.583009" /><path
               id="path48"
               style="fill:none;stroke:#231f20;stroke-width:0.5;stroke-linecap:butt;stroke-linejoin:miter;stroke-miterlimit:10;stroke-dasharray:none;stroke-opacity:1"
               d="m 33.366001,19.418001 h 4.834 v -4.833999 h -4.834 z m 33.666004,99.584009 h 4.833 v -4.834 h -4.833 z M 100.7,156.16801 h 4.833 v -4.83299 H 100.7 Z m 33.66601,-37.166 h 4.833 v -4.834 h -4.833 z M 168.033,19.418001 h 4.833 v -4.833999 h -4.833 z" /><path
               id="path50"
               style="fill:none;stroke:#231f20;stroke-width:0.5;stroke-linecap:butt;stroke-linejoin:round;stroke-miterlimit:10;stroke-dasharray:6, 6, 6, 6, 6, 6;stroke-dashoffset:0;stroke-opacity:1"
               d="m 35.782001,17.002001 33.667004,89.583009 33.666995,35.25 33.667,-35.25 33.66601,-89.583009" /><path
               id="path52"
               style="fill:none;stroke:#231f20;stroke-width:0.5;stroke-linecap:butt;stroke-linejoin:miter;stroke-miterlimit:10;stroke-dasharray:none;stroke-opacity:1"
               d="m 32.866001,18.002001 h 2.166 l 0.75,2 0.667,-2 h 2.167 l -1.75,-1.334 0.666,-2.084 -1.75,1.25 -1.833,-1.25 0.667,2.084 z m 33.666004,89.583009 h 2.167 l 0.75,2 0.667,-2 h 2.166 l -1.75,-1.333 0.667,-2.084 -1.75,1.25 -1.833,-1.25 0.666,2.084 z m 33.667995,35.25 h 2.166 l 0.75,2 0.667,-2 h 2.167 l -1.75,-1.333 0.666,-2.083 -1.75,1.24899 -1.833,-1.24899 0.667,2.083 z m 33.66601,-35.25 h 2.16699 l 0.75,2 0.66601,-2 h 2.167 l -1.75,-1.333 0.66699,-2.084 -1.75,1.25 -1.83399,-1.25 0.667,2.084 z M 167.533,18.002001 h 2.16601 l 0.75,2 0.667,-2 h 2.16699 l -1.75,-1.334 0.66601,-2.084 -1.75,1.25 -1.833,-1.25 0.66699,2.084 z" /><path
               id="path54"
               style="fill:#ffffff;fill-opacity:1;fill-rule:nonzero;stroke:none"
               d="m 159.44901,160.58501 h 59.91701 v -50.084 h -59.91701 z" /><path
               id="path56"
               style="fill:none;stroke:#ffffff;stroke-width:0.5;stroke-linecap:butt;stroke-linejoin:round;stroke-miterlimit:10;stroke-dasharray:none;stroke-opacity:1"
               d="m 159.44901,110.50201 v 50.083 h 59.917 v -50.083 h -59.917" /><path
               id="path58"
               style="fill:none;stroke:#231f20;stroke-width:0.5;stroke-linecap:butt;stroke-linejoin:round;stroke-miterlimit:10;stroke-dasharray:none;stroke-opacity:1"
               d="m 159.44901,160.58501 h 59.917 m -59.917,-50.083 h 59.917 m 0,0 v 50.083 m -59.917,-50.083 v 50.083 m 0,-50.083 h 59.917 m -59.917,0 v 50.083 m 0,0 h 59.917 m -59.917,-50.083 h 59.917 m 0,0 v 50.083 m -59.917,-50.083 v 50.083" /><path
               id="path60"
               style="fill:none;stroke:#231f20;stroke-width:0.90000004;stroke-linecap:butt;stroke-linejoin:round;stroke-miterlimit:10;stroke-dasharray:none;stroke-opacity:1"
               d="m 164.94901,151.16801 h 16.667" /><path
               id="path62"
               style="fill:none;stroke:#231f20;stroke-width:0.5;stroke-linecap:butt;stroke-linejoin:round;stroke-miterlimit:10;stroke-dasharray:none;stroke-opacity:1"
               d="m 176.26701,151.082 c 0,-1.65599 -1.345,-3 -3,-3 -1.65701,0 -3,1.34401 -3,3 0,1.65601 1.34299,3 3,3 1.655,0 3,-1.34399 3,-3" /><path
               id="path64"
               style="fill:none;stroke:#231f20;stroke-width:0.5;stroke-linecap:butt;stroke-linejoin:round;stroke-miterlimit:10;stroke-dasharray:3, 3, 3, 3, 3, 3;stroke-dashoffset:0;stroke-opacity:1"
               d="m 164.94901,135.33501 h 16.667" /><path
               id="path66"
               style="fill:none;stroke:#231f20;stroke-width:0.5;stroke-linecap:butt;stroke-linejoin:miter;stroke-miterlimit:10;stroke-dasharray:none;stroke-opacity:1"
               d="m 170.86601,137.75201 h 4.833 v -4.833 h -4.833 z" /><path
               id="path68"
               style="fill:none;stroke:#231f20;stroke-width:0.5;stroke-linecap:butt;stroke-linejoin:round;stroke-miterlimit:10;stroke-dasharray:6, 6, 6, 6, 6, 6;stroke-dashoffset:0;stroke-opacity:1"
               d="m 164.94901,119.50201 h 16.667" /><path
               id="path70"
               style="fill:none;stroke:#231f20;stroke-width:0.5;stroke-linecap:butt;stroke-linejoin:miter;stroke-miterlimit:10;stroke-dasharray:none;stroke-opacity:1"
               d="m 170.36601,120.50201 h 2.16699 l 0.75,2 0.66601,-2 h 2.167 l -1.75,-1.333 0.66699,-2.084 -1.75,1.25 -1.83399,-1.25 0.667,2.084 z" /><text
               id="text74"
               style="font-variant:normal;font-weight:normal;font-size:11.95500088px;font-family:CMMI12;-inkscape-font-specification:CMMI12;writing-mode:lr-tb;fill:#231f20;fill-opacity:1;fill-rule:nonzero;stroke:none"
               transform="matrix(1,0,0,-1,189.205,148.05209)"><tspan
                 id="tspan72"
                 y="0"
                 x="0">u</tspan></text>
<text
               id="text78"
               style="font-variant:normal;font-weight:normal;font-size:7.96999979px;font-family:CMR8;-inkscape-font-specification:CMR8;writing-mode:lr-tb;fill:#231f20;fill-opacity:1;fill-rule:nonzero;stroke:none"
               transform="matrix(1,0,0,-1,195.867,152.9886)"><tspan
                 id="tspan76"
                 y="0"
                 x="0">0</tspan></text>
<text
               id="text82"
               style="font-variant:normal;font-weight:normal;font-size:7.96999979px;font-family:CMMI8;-inkscape-font-specification:CMMI8;writing-mode:lr-tb;fill:#231f20;fill-opacity:1;fill-rule:nonzero;stroke:none"
               transform="matrix(1,0,0,-1,195.867,145.09671)"><tspan
                 id="tspan80"
                 y="0"
                 x="0">j</tspan></text>
<text
               id="text86"
               style="font-variant:normal;font-weight:normal;font-size:11.95500088px;font-family:CMMI12;-inkscape-font-specification:CMMI12;writing-mode:lr-tb;fill:#231f20;fill-opacity:1;fill-rule:nonzero;stroke:none"
               transform="matrix(1,0,0,-1,189.83601,132.05209)"><tspan
                 id="tspan84"
                 y="0"
                 x="0">u</tspan></text>
<text
               id="text90"
               style="font-variant:normal;font-weight:normal;font-size:7.96999979px;font-family:CMR8;-inkscape-font-specification:CMR8;writing-mode:lr-tb;fill:#231f20;fill-opacity:1;fill-rule:nonzero;stroke:none"
               transform="matrix(1,0,0,-1,196.49802,136.9886)"><tspan
                 id="tspan88"
                 y="0"
                 x="0">1</tspan></text>
<text
               id="text94"
               style="font-variant:normal;font-weight:normal;font-size:7.96999979px;font-family:CMMI8;-inkscape-font-specification:CMMI8;writing-mode:lr-tb;fill:#231f20;fill-opacity:1;fill-rule:nonzero;stroke:none"
               transform="matrix(1,0,0,-1,196.49802,129.09671)"><tspan
                 id="tspan92"
                 y="0"
                 x="0">j</tspan></text>
<text
               id="text98"
               style="font-variant:normal;font-weight:normal;font-size:11.95500088px;font-family:CMMI12;-inkscape-font-specification:CMMI12;writing-mode:lr-tb;fill:#231f20;fill-opacity:1;fill-rule:nonzero;stroke:none"
               transform="matrix(1,0,0,-1,190.46501,116.0516)"><tspan
                 id="tspan96"
                 y="0"
                 x="0">u</tspan></text>
<text
               id="text102"
               style="font-variant:normal;font-weight:normal;font-size:7.96999979px;font-family:CMR8;-inkscape-font-specification:CMR8;writing-mode:lr-tb;fill:#231f20;fill-opacity:1;fill-rule:nonzero;stroke:none"
               transform="matrix(1,0,0,-1,197.12701,120.9881)"><tspan
                 id="tspan100"
                 y="0"
                 x="0">2</tspan></text>
<text
               id="text106"
               style="font-variant:normal;font-weight:normal;font-size:7.96999979px;font-family:CMMI8;-inkscape-font-specification:CMMI8;writing-mode:lr-tb;fill:#231f20;fill-opacity:1;fill-rule:nonzero;stroke:none"
               transform="matrix(1,0,0,-1,197.12701,113.09621)"><tspan
                 id="tspan104"
                 y="0"
                 x="0">j</tspan></text>
<text
               id="text110"
               style="font-variant:normal;font-weight:normal;font-size:11.95500088px;font-family:CMR12;-inkscape-font-specification:CMR12;writing-mode:lr-tb;fill:#231f20;fill-opacity:1;fill-rule:nonzero;stroke:none"
               transform="matrix(1,0,0,-1,33.128899,3.7970002)"><tspan
                 id="tspan108"
                 y="0"
                 x="0">0</tspan></text>
<text
               id="text114"
               style="font-variant:normal;font-weight:normal;font-size:11.95500088px;font-family:CMR12;-inkscape-font-specification:CMR12;writing-mode:lr-tb;fill:#231f20;fill-opacity:1;fill-rule:nonzero;stroke:none"
               transform="matrix(1,0,0,-1,62.217804,4.4652848)"><tspan
                 id="tspan112"
                 y="0"
                 x="0">0</tspan></text>
<text
               id="text118"
               style="font-variant:normal;font-weight:normal;font-size:11.95500088px;font-family:CMMI12;-inkscape-font-specification:CMMI12;writing-mode:lr-tb;fill:#231f20;fill-opacity:1;fill-rule:nonzero;stroke:none"
               transform="matrix(1,0,0,-1,68.070969,4.4652848)"><tspan
                 id="tspan116"
                 y="0"
                 x="0">.</tspan></text>
<text
               id="text122"
               style="font-variant:normal;font-weight:normal;font-size:11.95500088px;font-family:CMR12;-inkscape-font-specification:CMR12;writing-mode:lr-tb;fill:#231f20;fill-opacity:1;fill-rule:nonzero;stroke:none"
               transform="matrix(1,0,0,-1,71.321533,4.4652848)"><tspan
                 id="tspan120"
                 y="0"
                 x="0">5</tspan></text>
<text
               id="text126"
               style="font-variant:normal;font-weight:normal;font-size:11.95500088px;font-family:CMR12;-inkscape-font-specification:CMR12;writing-mode:lr-tb;fill:#231f20;fill-opacity:1;fill-rule:nonzero;stroke:none"
               transform="matrix(1,0,0,-1,100.41045,4.4652848)"><tspan
                 id="tspan124"
                 y="0"
                 x="0">1</tspan></text>
<text
               id="text130"
               style="font-variant:normal;font-weight:normal;font-size:11.95500088px;font-family:CMR12;-inkscape-font-specification:CMR12;writing-mode:lr-tb;fill:#231f20;fill-opacity:1;fill-rule:nonzero;stroke:none"
               transform="matrix(1,0,0,-1,129.49815,3.7981958)"><tspan
                 id="tspan128"
                 y="0"
                 x="0">1</tspan></text>
<text
               id="text134"
               style="font-variant:normal;font-weight:normal;font-size:11.95500088px;font-family:CMMI12;-inkscape-font-specification:CMMI12;writing-mode:lr-tb;fill:#231f20;fill-opacity:1;fill-rule:nonzero;stroke:none"
               transform="matrix(1,0,0,-1,135.35013,3.7981958)"><tspan
                 id="tspan132"
                 y="0"
                 x="0">.</tspan></text>
<text
               id="text138"
               style="font-variant:normal;font-weight:normal;font-size:11.95500088px;font-family:CMR12;-inkscape-font-specification:CMR12;writing-mode:lr-tb;fill:#231f20;fill-opacity:1;fill-rule:nonzero;stroke:none"
               transform="matrix(1,0,0,-1,138.60188,3.7981958)"><tspan
                 id="tspan136"
                 y="0"
                 x="0">5</tspan></text>
<text
               id="text142"
               style="font-variant:normal;font-weight:normal;font-size:11.95500088px;font-family:CMR12;-inkscape-font-specification:CMR12;writing-mode:lr-tb;fill:#231f20;fill-opacity:1;fill-rule:nonzero;stroke:none"
               transform="matrix(1,0,0,-1,169.19832,3.0007973)"><tspan
                 id="tspan140"
                 y="0"
                 x="0">2</tspan></text>
<text
               id="text146"
               style="font-variant:normal;font-weight:normal;font-size:11.95500088px;font-family:CMMI12;-inkscape-font-specification:CMMI12;writing-mode:lr-tb;fill:#231f20;fill-opacity:1;fill-rule:nonzero;stroke:none"
               transform="matrix(1,0,0,-1,227.44548,14.464447)"><tspan
                 id="tspan144"
                 y="0"
                 x="0">x</tspan></text>
<text
               id="text150"
               style="font-variant:normal;font-weight:normal;font-size:11.95500088px;font-family:CMMI12;-inkscape-font-specification:CMMI12;writing-mode:lr-tb;fill:#231f20;fill-opacity:1;fill-rule:nonzero;stroke:none"
               transform="matrix(1,0,0,-1,-8.0103223e-4,108.46423)"><tspan
                 id="tspan148"
                 y="0"
                 x="0">u</tspan></text>
<text
               id="text154"
               style="font-variant:normal;font-weight:normal;font-size:11.95500088px;font-family:CMR12;-inkscape-font-specification:CMR12;writing-mode:lr-tb;fill:#231f20;fill-opacity:1;fill-rule:nonzero;stroke:none"
               transform="matrix(1,0,0,-1,22.889439,13.79736)"><tspan
                 id="tspan152"
                 y="0"
                 x="0">0</tspan></text>
<text
               id="text158"
               style="font-variant:normal;font-weight:normal;font-size:11.95500088px;font-family:CMR12;-inkscape-font-specification:CMR12;writing-mode:lr-tb;fill:#231f20;fill-opacity:1;fill-rule:nonzero;stroke:none"
               transform="matrix(1,0,0,-1,14.644074,43.13015)"><tspan
                 id="tspan156"
                 y="0"
                 x="0">0</tspan></text>
<text
               id="text162"
               style="font-variant:normal;font-weight:normal;font-size:11.95500088px;font-family:CMMI12;-inkscape-font-specification:CMMI12;writing-mode:lr-tb;fill:#231f20;fill-opacity:1;fill-rule:nonzero;stroke:none"
               transform="matrix(1,0,0,-1,20.497242,43.13015)"><tspan
                 id="tspan160"
                 y="0"
                 x="0">.</tspan></text>
<text
               id="text166"
               style="font-variant:normal;font-weight:normal;font-size:11.95500088px;font-family:CMR12;-inkscape-font-specification:CMR12;writing-mode:lr-tb;fill:#231f20;fill-opacity:1;fill-rule:nonzero;stroke:none"
               transform="matrix(1,0,0,-1,23.747807,43.13015)"><tspan
                 id="tspan164"
                 y="0"
                 x="0">2</tspan></text>
<text
               id="text170"
               style="font-variant:normal;font-weight:normal;font-size:11.95500088px;font-family:CMR12;-inkscape-font-specification:CMR12;writing-mode:lr-tb;fill:#231f20;fill-opacity:1;fill-rule:nonzero;stroke:none"
               transform="matrix(1,0,0,-1,14.83655,74.464211)"><tspan
                 id="tspan168"
                 y="0"
                 x="0">0</tspan></text>
<text
               id="text174"
               style="font-variant:normal;font-weight:normal;font-size:11.95500088px;font-family:CMMI12;-inkscape-font-specification:CMMI12;writing-mode:lr-tb;fill:#231f20;fill-opacity:1;fill-rule:nonzero;stroke:none"
               transform="matrix(1,0,0,-1,20.689718,74.464211)"><tspan
                 id="tspan172"
                 y="0"
                 x="0">.</tspan></text>
<text
               id="text178"
               style="font-variant:normal;font-weight:normal;font-size:11.95500088px;font-family:CMR12;-inkscape-font-specification:CMR12;writing-mode:lr-tb;fill:#231f20;fill-opacity:1;fill-rule:nonzero;stroke:none"
               transform="matrix(1,0,0,-1,23.941479,74.464211)"><tspan
                 id="tspan176"
                 y="0"
                 x="0">4</tspan></text>
<text
               id="text182"
               style="font-variant:normal;font-weight:normal;font-size:11.95500088px;font-family:CMR12;-inkscape-font-specification:CMR12;writing-mode:lr-tb;fill:#231f20;fill-opacity:1;fill-rule:nonzero;stroke:none"
               transform="matrix(1,0,0,-1,15.029026,103.12991)"><tspan
                 id="tspan180"
                 y="0"
                 x="0">0</tspan></text>
<text
               id="text186"
               style="font-variant:normal;font-weight:normal;font-size:11.95500088px;font-family:CMMI12;-inkscape-font-specification:CMMI12;writing-mode:lr-tb;fill:#231f20;fill-opacity:1;fill-rule:nonzero;stroke:none"
               transform="matrix(1,0,0,-1,20.882195,103.12991)"><tspan
                 id="tspan184"
                 y="0"
                 x="0">.</tspan></text>
<text
               id="text190"
               style="font-variant:normal;font-weight:normal;font-size:11.95500088px;font-family:CMR12;-inkscape-font-specification:CMR12;writing-mode:lr-tb;fill:#231f20;fill-opacity:1;fill-rule:nonzero;stroke:none"
               transform="matrix(1,0,0,-1,24.133955,103.12991)"><tspan
                 id="tspan188"
                 y="0"
                 x="0">6</tspan></text>
<text
               id="text194"
               style="font-variant:normal;font-weight:normal;font-size:11.95500088px;font-family:CMR12;-inkscape-font-specification:CMR12;writing-mode:lr-tb;fill:#231f20;fill-opacity:1;fill-rule:nonzero;stroke:none"
               transform="matrix(1,0,0,-1,15.889787,133.79688)"><tspan
                 id="tspan192"
                 y="0"
                 x="0">0</tspan></text>
<text
               id="text198"
               style="font-variant:normal;font-weight:normal;font-size:11.95500088px;font-family:CMMI12;-inkscape-font-specification:CMMI12;writing-mode:lr-tb;fill:#231f20;fill-opacity:1;fill-rule:nonzero;stroke:none"
               transform="matrix(1,0,0,-1,21.74176,133.79688)"><tspan
                 id="tspan196"
                 y="0"
                 x="0">.</tspan></text>
<text
               id="text202"
               style="font-variant:normal;font-weight:normal;font-size:11.95500088px;font-family:CMR12;-inkscape-font-specification:CMR12;writing-mode:lr-tb;fill:#231f20;fill-opacity:1;fill-rule:nonzero;stroke:none"
               transform="matrix(1,0,0,-1,24.993521,133.79688)"><tspan
                 id="tspan200"
                 y="0"
                 x="0">8</tspan></text>
<text
               id="text206"
               style="font-variant:normal;font-weight:normal;font-size:11.95500088px;font-family:CMR12;-inkscape-font-specification:CMR12;writing-mode:lr-tb;fill:#231f20;fill-opacity:1;fill-rule:nonzero;stroke:none"
               transform="matrix(1,0,0,-1,24.748444,161.12959)"><tspan
                 id="tspan204"
                 y="0"
                 x="0">1</tspan></text>
</g></g></g></g></g></svg>