<?xml version="1.0" encoding="UTF-8" standalone="no"?>
<svg
   xmlns:dc="http://purl.org/dc/elements/1.1/"
   xmlns:cc="http://creativecommons.org/ns#"
   xmlns:rdf="http://www.w3.org/1999/02/22-rdf-syntax-ns#"
   xmlns:svg="http://www.w3.org/2000/svg"
   xmlns="http://www.w3.org/2000/svg"
   viewBox="0 0 293.73999 140.49467"
   height="140.49467"
   width="293.73999"
   xml:space="preserve"
   id="svg2"
   version="1.1"><metadata
     id="metadata8"><rdf:RDF><cc:Work
         rdf:about=""><dc:format>image/svg+xml</dc:format><dc:type
           rdf:resource="http://purl.org/dc/dcmitype/StillImage" /></cc:Work></rdf:RDF></metadata><defs
     id="defs6"><clipPath
       id="clipPath32"
       clipPathUnits="userSpaceOnUse"><path
         id="path30"
         d="M 0,105.371 H 220.305 V 0.06 L 0,0.06 Z" /></clipPath></defs><g
     transform="matrix(1.3333333,0,0,-1.3333333,0,140.49467)"
     id="g10"><path
       id="path12"
       style="fill:#c6c8ca;fill-opacity:1;fill-rule:nonzero;stroke:none"
       d="M 66.565,12.75 V 70.5 c 6.58,-1.275 13.361,-1.588 19.75,-3.75 0,0 2.25,0 2.25,-0.25 0,-0.25 1.75,-0.75 1.75,-0.75 5.856,-1.377 11.701,-2.813 17.5,-4.5 8.065,-2.548 15.894,-4.899 24,-7.25 V 13.25" /><path
       id="path14"
       style="fill:none;stroke:#231f20;stroke-width:0.75;stroke-linecap:butt;stroke-linejoin:miter;stroke-miterlimit:4;stroke-dasharray:none;stroke-opacity:1"
       d="M 66.565,12.75 V 70.5 c 6.58,-1.275 13.361,-1.588 19.75,-3.75 0,0 2.25,0 2.25,-0.25 0,-0.25 1.75,-0.75 1.75,-0.75 5.856,-1.377 11.701,-2.813 17.5,-4.5 8.065,-2.548 15.894,-4.899 24,-7.25 V 13.25" /><path
       id="path16"
       style="fill:none;stroke:#231f20;stroke-width:1;stroke-linecap:butt;stroke-linejoin:miter;stroke-miterlimit:4;stroke-dasharray:none;stroke-opacity:1"
       d="m 16.23,12.946 h 67.541 81 m 0,0 h 30.932" /><path
       id="path18"
       style="fill:#231f20;fill-opacity:1;fill-rule:nonzero;stroke:none"
       d="m 194.917,12.946 -1.687,1.856 0.094,0.042 4.526,-1.202 c 1.576,-0.232 3.153,-0.464 4.73,-0.696 -1.577,-0.231 -3.154,-0.463 -4.73,-0.695 l -4.526,-1.202 -0.094,0.031 1.687,1.866" /><path
       id="path20"
       style="fill:none;stroke:#231f20;stroke-width:1;stroke-linecap:butt;stroke-linejoin:miter;stroke-miterlimit:4;stroke-dasharray:none;stroke-opacity:1"
       d="M 30.978,8.1227 V 93.123" /><path
       id="path22"
       style="fill:#231f20;fill-opacity:1;fill-rule:nonzero;stroke:none"
       d="m 30.981,91.748 -2.775,-1.692 -0.063,0.095 1.797,4.54 c 0.348,1.581 0.694,3.163 1.041,4.745 0.347,-1.582 0.694,-3.164 1.041,-4.745 l 1.797,-4.54 -0.047,-0.095 -2.791,1.692" /><path
       id="path24"
       style="fill:none;stroke:#231f20;stroke-width:0.5;stroke-linecap:butt;stroke-linejoin:miter;stroke-miterlimit:4;stroke-dasharray:none;stroke-opacity:1"
       d="m 30.981,91.748 -2.775,-1.692 -0.063,0.095 1.797,4.54 c 0.348,1.581 0.694,3.163 1.041,4.745 0.347,-1.582 0.694,-3.164 1.041,-4.745 l 1.797,-4.54 -0.047,-0.095 z" /><g
       id="g26"><g
         clip-path="url(#clipPath32)"
         id="g28"><path
           id="path34"
           style="fill:none;stroke:#231f20;stroke-width:0.75;stroke-linecap:butt;stroke-linejoin:miter;stroke-miterlimit:4;stroke-dasharray:none;stroke-opacity:1"
           d="m 194.891,45.021 c -7.364,-3.207 -17.978,-2.55 -30.556,0.065 m 0,0 C 122.236,53.841 58.148,84.54 20.395,65.733 m 0,0 C 12.356,61.728 5.5107,55.479 0.32666,46.296" /></g></g><text
       id="text44"
       style="font-style:italic;font-variant:normal;font-weight:normal;font-size:12px;font-family:CMMI10;-inkscape-font-specification:CMMI10;writing-mode:lr-tb;fill:#231f20;fill-opacity:1;fill-rule:nonzero;stroke:none"
       transform="matrix(0.99680833,0,0,-1,63.1489,4)"><tspan
         id="tspan36"
         y="0"
         x="0">a</tspan><tspan
         id="tspan38"
         y="0.99959999"
         x="66.879601">b</tspan><tspan
         id="tspan40"
         y="-91.273201"
         x="-43.7784">y</tspan><tspan
         id="tspan42"
         y="0"
         x="140.1132">x</tspan></text>
<text
       id="text48"
       style="font-variant:normal;font-weight:normal;font-size:12px;font-family:CMR7;-inkscape-font-specification:CMR7;writing-mode:lr-tb;fill:#231f20;fill-opacity:1;fill-rule:nonzero;stroke:none"
       transform="matrix(0.99680833,0,0,-1,102.81509,92.5)"><tspan
         id="tspan46"
         y="0"
         x="0 6.8280001 12.18 18.264 25.091999 29.700001 35.051998 41.136002 48.335999 55.896 59.771999 65.124001 71.208">area required</tspan></text>
<path
       id="path50"
       style="fill:#231f20;fill-opacity:1;fill-rule:nonzero;stroke:none"
       d="m 171.815,59 -13.5,-13.5" /><path
       id="path52"
       style="fill:none;stroke:#231f20;stroke-width:0.5;stroke-linecap:butt;stroke-linejoin:miter;stroke-miterlimit:4;stroke-dasharray:none;stroke-opacity:1"
       d="m 171.815,59 -13.5,-13.5" /><path
       id="path54"
       style="fill:#231f20;fill-opacity:1;fill-rule:nonzero;stroke:none"
       d="M 115.815,88 87.315,59.5" /><text
       id="text58"
       style="font-style:italic;font-variant:normal;font-weight:normal;font-size:11.95499992px;font-family:CMMI12;-inkscape-font-specification:CMMI12;writing-mode:lr-tb;fill:#231f20;fill-opacity:1;fill-rule:nonzero;stroke:none"
       transform="matrix(1,0,0,-1,175.628,59.2731)"><tspan
         id="tspan56"
         y="0"
         x="0">y</tspan></text>
<text
       id="text62"
       style="font-variant:normal;font-weight:normal;font-size:11.95499992px;font-family:CMR12;-inkscape-font-specification:CMR12;writing-mode:lr-tb;fill:#231f20;fill-opacity:1;fill-rule:nonzero;stroke:none"
       transform="matrix(1,0,0,-1,185.0844,59.2731)"><tspan
         id="tspan60"
         y="0"
         x="0">=</tspan></text>
<text
       id="text66"
       style="font-style:italic;font-variant:normal;font-weight:normal;font-size:11.95499992px;font-family:CMMI12;-inkscape-font-specification:CMMI12;writing-mode:lr-tb;fill:#231f20;fill-opacity:1;fill-rule:nonzero;stroke:none"
       transform="matrix(1,0,0,-1,197.51043,59.2731)"><tspan
         id="tspan64"
         y="0"
         x="0">f</tspan></text>
<text
       id="text70"
       style="font-variant:normal;font-weight:normal;font-size:11.95499992px;font-family:CMR12;-inkscape-font-specification:CMR12;writing-mode:lr-tb;fill:#231f20;fill-opacity:1;fill-rule:nonzero;stroke:none"
       transform="matrix(1,0,0,-1,204.55671,59.2731)"><tspan
         id="tspan68"
         y="0"
         x="0">(</tspan></text>
<text
       id="text74"
       style="font-style:italic;font-variant:normal;font-weight:normal;font-size:11.95499992px;font-family:CMMI12;-inkscape-font-specification:CMMI12;writing-mode:lr-tb;fill:#231f20;fill-opacity:1;fill-rule:nonzero;stroke:none"
       transform="matrix(1,0,0,-1,209.10917,59.2731)"><tspan
         id="tspan72"
         y="0"
         x="0">x</tspan></text>
<text
       id="text78"
       style="font-variant:normal;font-weight:normal;font-size:11.95499992px;font-family:CMR12;-inkscape-font-specification:CMR12;writing-mode:lr-tb;fill:#231f20;fill-opacity:1;fill-rule:nonzero;stroke:none"
       transform="matrix(1,0,0,-1,215.76094,59.2731)"><tspan
         id="tspan76"
         y="0"
         x="0">)</tspan></text>
</g></svg>