<?xml version="1.0" encoding="UTF-8" standalone="no"?>
<svg
   xmlns:dc="http://purl.org/dc/elements/1.1/"
   xmlns:cc="http://creativecommons.org/ns#"
   xmlns:rdf="http://www.w3.org/1999/02/22-rdf-syntax-ns#"
   xmlns:svg="http://www.w3.org/2000/svg"
   xmlns="http://www.w3.org/2000/svg"
   viewBox="0 0 241.33333 180"
   height="180"
   width="241.33333"
   xml:space="preserve"
   id="svg2"
   version="1.1"><metadata
     id="metadata8"><rdf:RDF><cc:Work
         rdf:about=""><dc:format>image/svg+xml</dc:format><dc:type
           rdf:resource="http://purl.org/dc/dcmitype/StillImage" /></cc:Work></rdf:RDF></metadata><defs
     id="defs6"><clipPath
       id="clipPath24"
       clipPathUnits="userSpaceOnUse"><path
         id="path22"
         d="M 0,0 H 181 V 135 H 0 Z" /></clipPath></defs><g
     transform="matrix(1.3333333,0,0,-1.3333333,0,180)"
     id="g10"><g
       id="g12" /><g
       id="g14" /><g
       id="g16"><g
         id="g18"><g
           clip-path="url(#clipPath24)"
           id="g20"><g
             id="g26" /><g
             id="g28"><text
               id="text32"
               style="font-variant:normal;font-weight:normal;font-size:11.95500088px;font-family:CMMI12;-inkscape-font-specification:CMMI12;writing-mode:lr-tb;fill:#231f20;fill-opacity:1;fill-rule:nonzero;stroke:none"
               transform="matrix(1,0,0,-1,174.1758,110.9395)"><tspan
                 id="tspan30"
                 y="0"
                 x="0">x</tspan></text>
<path
               id="path34"
               style="fill:none;stroke:#000000;stroke-width:1;stroke-linecap:butt;stroke-linejoin:miter;stroke-miterlimit:4;stroke-dasharray:none;stroke-opacity:1"
               d="M 6.9820004,23.369999 V 117.23701 H 162" /><path
               id="path36"
               style="fill:#000000;fill-opacity:1;fill-rule:nonzero;stroke:none"
               d="m 164.36201,118.26201 c -1.653,0.499 -2.72801,0.959 -4.054,1.491 v -5.044 c 0.474,0.225 2.401,0.99299 4.054,1.49199 1.769,0.53401 3.374,0.90001 4.415,1.03 -1.041,0.13101 -2.646,0.49601 -4.415,1.03101" /><path
               id="path38"
               style="fill:#000000;fill-opacity:1;fill-rule:nonzero;stroke:none"
               d="m 8.007,21.008001 c 0.4990005,1.653 0.9590006,2.728001 1.4920005,4.053999 H 4.454 C 4.6799998,24.587002 5.447,22.661001 5.9460001,21.008001 6.48,19.238001 6.8460002,17.634001 6.9770002,16.593 7.1070004,17.634001 7.4730005,19.238001 8.007,21.008001" /><path
               id="path40"
               style="fill:#000000;fill-opacity:1;fill-rule:nonzero;stroke:none"
               d="M 6.9820004,23.369999 10.585,25.559999 10.667,25.437 8.3329992,19.562 C 7.8830004,17.516001 7.4330006,15.469001 6.9820004,13.422001 6.5320005,15.469001 6.0820003,17.516001 5.631,19.562 l -2.3329999,5.875 0.061,0.122999 3.6230002,-2.19" /><text
               id="text44"
               style="font-variant:normal;font-weight:normal;font-size:11.95500088px;font-family:CMMI12;-inkscape-font-specification:CMMI12;writing-mode:lr-tb;fill:#231f20;fill-opacity:1;fill-rule:nonzero;stroke:none"
               transform="matrix(1,0,0,-1,148,83)"><tspan
                 id="tspan42"
                 y="0"
                 x="0">a</tspan></text>
<text
               id="text48"
               style="font-variant:normal;font-weight:normal;font-size:11.95500088px;font-family:CMMI12;-inkscape-font-specification:CMMI12;writing-mode:lr-tb;fill:#231f20;fill-opacity:1;fill-rule:nonzero;stroke:none"
               transform="matrix(1,0,0,-1,9.0004034,2.9995294)"><tspan
                 id="tspan46"
                 y="0"
                 x="0">y</tspan></text>
<text
               id="text52"
               style="font-variant:normal;font-weight:normal;font-size:11.95500088px;font-family:CMR12;-inkscape-font-specification:CMR12;writing-mode:lr-tb;fill:#231f20;fill-opacity:1;fill-rule:nonzero;stroke:none"
               transform="matrix(1,0,0,-1,58.096004,121.54411)"><tspan
                 id="tspan50"
                 y="0"
                 x="0 4.6146302 11.118151 15.673006 19.247551 25.105501 30.305927">surface</tspan></text>
<text
               id="text56"
               style="font-variant:normal;font-weight:normal;font-size:11.95500088px;font-family:CMMI12;-inkscape-font-specification:CMMI12;writing-mode:lr-tb;fill:#231f20;fill-opacity:1;fill-rule:nonzero;stroke:none"
               transform="matrix(1,0,0,-1,0.50876063,125.09834)"><tspan
                 id="tspan54"
                 y="0"
                 x="0">O</tspan></text>
<path
               id="path58"
               style="fill:none;stroke:#000000;stroke-width:1;stroke-linecap:butt;stroke-linejoin:miter;stroke-miterlimit:4;stroke-dasharray:none;stroke-opacity:1"
               d="M 6.9820004,48 H 142 v 69.237 H 6.9820004 Z" /><text
               id="text62"
               style="font-variant:normal;font-weight:normal;font-size:11.95500088px;font-family:CMMI12;-inkscape-font-specification:CMMI12;writing-mode:lr-tb;fill:#231f20;fill-opacity:1;fill-rule:nonzero;stroke:none"
               transform="matrix(1,0,0,-1,68,38)"><tspan
                 id="tspan60"
                 y="0"
                 x="0">b</tspan></text>
<path
               id="path64"
               style="fill:none;stroke:#000000;stroke-width:1;stroke-linecap:butt;stroke-linejoin:miter;stroke-miterlimit:4;stroke-dasharray:none;stroke-opacity:1"
               d="m 25.25,48.25 v 69.25 m 8.5,-69.25 V 117.5 M 25.25,84.25 H 33.5 M 24.875002,77.5 H 33.125" /></g></g></g></g></g></svg>