<?xml version="1.0" encoding="UTF-8" standalone="no"?>
<svg
   xmlns:dc="http://purl.org/dc/elements/1.1/"
   xmlns:cc="http://creativecommons.org/ns#"
   xmlns:rdf="http://www.w3.org/1999/02/22-rdf-syntax-ns#"
   xmlns:svg="http://www.w3.org/2000/svg"
   xmlns="http://www.w3.org/2000/svg"
   viewBox="0 0 326.66666 238.66667"
   height="238.66667"
   width="326.66666"
   xml:space="preserve"
   id="svg2"
   version="1.1"><metadata
     id="metadata8"><rdf:RDF><cc:Work
         rdf:about=""><dc:format>image/svg+xml</dc:format><dc:type
           rdf:resource="http://purl.org/dc/dcmitype/StillImage" /></cc:Work></rdf:RDF></metadata><defs
     id="defs6"><clipPath
       id="clipPath24"
       clipPathUnits="userSpaceOnUse"><path
         id="path22"
         d="M 0,0 H 245 V 179 H 0 Z" /></clipPath></defs><g
     transform="matrix(1.3333333,0,0,-1.3333333,0,238.66667)"
     id="g10"><g
       id="g12" /><g
       id="g14" /><g
       id="g16"><g
         id="g18"><g
           clip-path="url(#clipPath24)"
           id="g20"><g
             id="g26" /><g
             id="g28"><text
               id="text32"
               style="font-variant:normal;font-weight:normal;font-size:12.75200081px;font-family:CMMI10;-inkscape-font-specification:CMMI10;writing-mode:lr-tb;fill:#000000;fill-opacity:1;fill-rule:nonzero;stroke:none"
               transform="matrix(1,0,0,-1,226,61)"><tspan
                 id="tspan30"
                 y="0"
                 x="0">x</tspan></text>
<text
               id="text36"
               style="font-variant:normal;font-weight:normal;font-size:12.75200081px;font-family:CMMI10;-inkscape-font-specification:CMMI10;writing-mode:lr-tb;fill:#000000;fill-opacity:1;fill-rule:nonzero;stroke:none"
               transform="matrix(1,0,0,-1,91.139946,162.91908)"><tspan
                 id="tspan34"
                 y="0"
                 x="0">y</tspan></text>
<path
               id="path38"
               style="fill:#000000;fill-opacity:1;fill-rule:nonzero;stroke:none"
               d="m 223.91701,72.962006 -1.898,3.122001 0.10601,0.071 5.09199,-2.022003 c 1.774,-0.390999 3.548,-0.780998 5.32201,-1.170997 -1.77401,-0.39 -3.54801,-0.781006 -5.32201,-1.171006 l -5.09199,-2.021995 -0.10601,0.053 1.898,3.14" /><path
               id="path40"
               style="fill:#000000;fill-opacity:1;fill-rule:nonzero;stroke:none"
               d="m 108.80701,161.79201 -3.123,-1.898 -0.071,0.10599 2.02299,5.09201 c 0.39001,1.774 0.78101,3.54799 1.17101,5.32199 0.39,-1.774 0.78,-3.54799 1.17099,-5.32199 L 112,160 l -0.053,-0.10599 -3.14,1.898" /><path
               id="path42"
               style="fill:none;stroke:#000000;stroke-width:1.08300006;stroke-linecap:butt;stroke-linejoin:round;stroke-miterlimit:10;stroke-dasharray:none;stroke-opacity:1"
               d="M 0.75100005,72.962006 H 223.91701 M 108.75101,1 v 160.00401" /><path
               id="path44"
               style="fill:none;stroke:#000000;stroke-width:0.5;stroke-linecap:butt;stroke-linejoin:round;stroke-miterlimit:4;stroke-dasharray:3, 3, 3, 3, 3, 3;stroke-dashoffset:0;stroke-opacity:1"
               d="m 120.25,113.37901 0.37501,0.416 0.334,0.417 0.75,0.833 0.333,0.417 0.375,0.417 0.375,0.458 0.334,0.417 0.375,0.458 0.333,0.417 0.375,0.458 0.375,0.458 0.333,0.459 0.375,0.458 0.375,0.45799 0.334,0.45901 0.375,0.5 0.375,0.458 0.333,0.5 0.375,0.5 0.333,0.5 0.75,1 0.33299,0.5 0.375,0.542 0.375,0.5 0.334,0.54099 0.375,0.54201 0.375,0.5 0.33301,0.542 0.375,0.583 0.334,0.542 0.375,0.54099 0.375,0.58401 0.33299,0.583 0.375,0.542 0.375,0.583 0.33301,0.625 0.75,1.167 0.334,0.625 0.375,0.583 0.375,0.625 0.33299,0.625 0.375,0.625 0.33301,0.667 0.375,0.625 0.375,0.666 0.33299,0.62499 0.75,1.33401 0.334,0.708 0.375,0.667 0.375,0.708 0.33301,0.667 0.375,0.708 0.334,0.70799 0.375,0.70901 0.375,0.75 0.33299,0.708 0.75,1.5 0.33301,0.75 0.375,0.792 0.375,0.75 0.334,0.79099 0.375,0.79201 0.33299,0.792 0.75,1.583 0.33301,0.83299 0.75,1.66701 0.33299,0.83299 0.375,0.83401 0.375,0.875 0.334,0.875 0.75,1.75 m -64.082993,-74.000005 0.333,0.125 0.375,0.166001 0.375,0.167 0.333,0.166999 0.375,0.125 0.375,0.165993 0.334,0.167008 0.375,0.166999 0.375,0.165993 0.333,0.167008 0.375,0.166999 0.333,0.165993 0.375,0.167008 0.375,0.166999 0.334,0.165993 0.375,0.167008 0.375,0.208 0.333,0.167 0.375,0.166999 0.375,0.208001 0.333,0.166999 0.375,0.165993 0.375,0.209007 0.334,0.208001 0.375,0.166999 0.333,0.208001 0.375,0.207992 0.375,0.167008 0.333,0.208 0.375,0.208999 0.375,0.208001 0.334,0.207992 0.375,0.209007 0.375,0.208001 0.333,0.208 0.375,0.208999 0.333,0.208001 0.375,0.207992 0.375,0.25 0.334,0.209007 0.375,0.208001 0.375,0.25 0.333003,0.208 0.75,0.5 0.333,0.208999 0.375,0.25 0.333,0.25 0.75,0.5 0.334,0.25 0.75,0.5 0.333,0.25 0.75,0.5 0.334,0.291001 0.375,0.25 0.375,0.292004 0.333,0.25 0.375,0.292 0.333,0.25 0.375,0.29099 0.375,0.29201 0.334,0.292 0.375,0.291 0.375,0.292 0.333,0.292 0.375,0.29099 0.375,0.29201 0.333,0.292 0.375,0.333 0.333,0.292 0.37499,0.333 0.37501,0.292 0.334,0.333 0.375,0.33299 0.375,0.33401 0.333,0.291 0.75,0.667 0.334,0.375 0.375,0.33299 0.333,0.33401 0.375,0.375 0.375,0.333 0.334,0.375 0.375,0.33299 0.375,0.37501 0.333,0.37499 0.75,0.75 0.333,0.37501 0.375,0.37499 0.334,0.37501 0.375,0.417 0.375,0.375 0.332,0.417 0.37499,0.375" /><path
               id="path46"
               style="fill:none;stroke:#000000;stroke-width:0.5;stroke-linecap:butt;stroke-linejoin:round;stroke-miterlimit:4;stroke-dasharray:3, 3, 3, 3, 3, 3;stroke-dashoffset:0;stroke-opacity:1"
               d="m 49.001003,78.545006 0.333,0.084 0.375,0.04099 0.375,0.04201 0.333001,0.083 0.375,0.042 0.333999,0.08299 0.375,0.04201 0.375,0.083 0.333,0.042 0.375,0.042 0.375,0.083 0.333001,0.042 0.375,0.083 0.375,0.08299 0.333999,0.04201 0.375,0.083 0.333,0.042 0.375,0.08299 0.375,0.04201 0.333001,0.083 0.375,0.084 0.375,0.04099 0.333999,0.08401 0.375,0.083 0.375,0.042 0.333,0.083 0.375,0.083 0.333001,0.084 0.375,0.04099 0.375,0.08401 0.333999,0.083 0.375,0.08299 0.375,0.08401 0.333,0.083 0.375,0.042 0.375,0.083 0.333001,0.083 0.375,0.084 0.333999,0.083 0.375,0.083 0.375,0.084 0.332997,0.083 0.375,0.083 0.375,0.084 0.333,0.083 0.375,0.125 0.375,0.08299 0.333999,0.08401 0.375,0.083 0.375,0.08299 0.333001,0.08401 0.375,0.125 0.333,0.083 0.375,0.083 0.375,0.124992 0.334007,0.08401 0.375,0.083 0.375,0.125 0.332993,0.083 0.375,0.084 0.375,0.125 0.333,0.083 0.375,0.125 0.334007,0.083 0.375,0.124992 0.375,0.125008 0.333,0.084 0.375,0.125 0.375,0.083 0.332993,0.125 0.375,0.125 0.375,0.125 0.334007,0.083 0.375,0.124992 0.333,0.125008 0.375,0.124992 0.375,0.125008 0.333,0.124992 0.375,0.125008 0.375,0.083 0.334,0.125 0.375,0.125 0.375,0.167 0.333,0.124992 0.375,0.125008 0.375,0.124992 0.333,0.125008 0.375,0.124992 0.334,0.167008 0.75,0.25 0.333,0.125 0.375,0.166 0.375,0.125 0.333,0.166992 0.375,0.125008 0.375,0.167 0.334,0.125 0.375,0.166 m -71.292006,-12.958 0.375,0.042 h 0.375 l 0.333,0.042 h 0.375 l 0.375,0.04099 H 15.501 l 0.375,0.04201 h 0.333002 l 0.375,0.042 h 0.375 l 0.333,0.041 0.375,0.042 h 0.375 l 0.333999,0.042 h 0.375 l 0.375,0.04099 h 0.333001 l 0.375,0.04201 0.333,0.042 h 0.375 l 0.375,0.041 h 0.333999 l 0.375,0.042 0.375,0.042 h 0.333001 l 0.375,0.04099 0.375,0.04201 h 0.333 l 0.375,0.041 0.375,0.042 h 0.333999 l 0.375,0.042 0.333001,0.041 h 0.375 l 0.375,0.04199 0.333,0.04201 0.375,0.041 h 0.375 l 0.333999,0.042 0.375,0.042 h 0.375 l 0.333001,0.041 0.375,0.04199 0.333,0.04201 0.375,0.041 h 0.375 l 0.333999,0.042 0.375,0.042 0.375,0.041 0.333001,0.04199 h 0.375 l 0.374998,0.04201 0.333,0.041 0.375,0.042 0.334003,0.042 0.375,0.041 h 0.375 l 0.333,0.04199 0.375,0.04201 0.375,0.041 0.332997,0.042 0.375,0.042 0.375,0.041 0.334003,0.04199 0.375,0.04201 0.375,0.041 0.333,0.042 0.375,0.042 0.333001,0.041 0.375,0.04199 0.375,0.04201 0.333999,0.041 0.375,0.042 0.375,0.042 0.333,0.041 0.375,0.04199 0.375,0.04201 0.333001,0.041 0.375,0.042 0.333999,0.042 0.375,0.041 0.375,0.04199 0.333,0.08301 0.375,0.042 0.375,0.042 0.333001,0.041 0.375,0.04199 0.375,0.04101 0.333999,0.084 0.375,0.041 0.333,0.042 0.375,0.04199 0.375,0.08301 0.333001,0.042 0.375,0.041 0.375,0.042 0.333999,0.083 0.375,0.042 0.375,0.042" /><path
               id="path48"
               style="fill:none;stroke:#000000;stroke-width:0.5;stroke-linecap:butt;stroke-linejoin:round;stroke-miterlimit:4;stroke-dasharray:3, 3, 3, 3, 3, 3;stroke-dashoffset:0;stroke-opacity:1"
               d="M 0.75100005,74.462006 H 1.4590001 l 0.375,0.042 h 0.708 l 0.375,0.041 h 0.7090001 l 0.3750002,0.042 h 0.3329997 l 0.375,0.042 h 0.7080002 l 0.375,0.04099 h 0.375 l 0.3340001,0.04201 h 0.7079997 l 0.3750005,0.042 h 0.375 l 0.3330002,0.041 h 0.375 l 0.375,0.042 h 0.3339996 l 0.375,0.042 h 0.7080006 l 0.375,0.04099 h 0.375 l 0.333,0.04201 h 0.375 l 0.333999,0.042 h 0.375 l 0.375,0.041 h 0.333001 m 80.292006,9.083999 0.333,0.25 0.375,0.290993 0.375,0.25 0.333,0.292008 0.375,0.291999 0.375,0.291001 0.334,0.292 0.375,0.291999 0.375,0.333001 0.333,0.333 0.375,0.292 0.333,0.332992 0.375,0.375008 0.375,0.333999 0.334,0.375 0.375,0.333001 0.375,0.375 0.333003,0.416999 0.375,0.375 0.375,0.415993 0.333,0.417008 0.375,0.416999 0.333,0.415993 0.75,0.917008 0.334,0.458 0.375,0.458999 0.375,0.5 0.333,0.5 0.75,1 0.334,0.541001 0.75,1.083999 0.333,0.583001 0.375,0.583 0.333,0.583999 0.75,1.250005 0.334,0.625 0.75,1.333 0.333,0.667 0.75,1.41599 0.333,0.75 0.375,0.75 0.333,0.75 0.75,1.58401 0.334,0.833 0.375,0.83299 0.375,0.87501 0.333,0.87499 0.375,0.87501 0.375,0.959 0.334,0.91599 0.375,0.95901 0.333,1 0.375,1 0.375,1.04099 0.333,1.08401 0.75,2.16599 0.334,1.12501 0.375,1.167 0.375,1.20799 0.333,1.20901 0.375,1.25 0.333,1.25 0.375,1.333 0.375,1.292 0.333,1.375 0.75,2.833 0.334,1.45799 0.375,1.5 0.375,1.54201 0.333,1.542 0.75,3.25 0.334,1.66599 0.375,1.70901 0.333,1.79099 0.375,1.79201 0.375,1.833 0.334,1.87499 0.375,1.91701 0.375,2 0.333,2 0.375,2.08299 m -68.375007,-89.540995 0.333,0.04099 h 0.375 l 0.333001,0.04201 0.375,0.042 h 0.375 l 0.333999,0.041 0.375,0.042 h 0.375 l 0.333,0.042 0.375,0.04099 0.375,0.04201 0.333001,0.042 h 0.375 l 0.333999,0.041 0.375,0.042 0.375,0.042 0.332997,0.04099 0.375,0.04201 0.375,0.042 0.333,0.041 0.375,0.042 0.375,0.041 0.333999,0.04199 0.375,0.04201 0.375,0.041 0.333001,0.042 0.375,0.083 0.333,0.04199 0.375,0.04201 0.375,0.041 0.334007,0.042 0.375,0.083 0.375,0.04199 0.332993,0.04201 0.375,0.083 0.375,0.042 0.333,0.08299 0.375,0.04201 0.334007,0.083 0.375,0.042 0.375,0.08299 0.333,0.08301 0.375,0.042 0.375,0.083 0.332993,0.084 0.375,0.083 0.375,0.042 0.334007,0.08299 0.375,0.08301 0.333,0.084 0.375,0.08299 0.375,0.08301 0.333,0.084 0.375,0.08299 0.375,0.125008 0.334,0.083 0.375,0.084 0.375,0.125 0.333,0.08299 0.375,0.125008 0.375,0.083 0.333,0.125 0.375,0.084 0.334,0.125 0.75,0.25 0.333,0.125 0.75,0.25 0.333,0.125 0.375,0.125 0.375,0.125 0.334,0.166 0.375,0.125 0.333,0.166992 0.375,0.125008 0.375,0.167 0.333,0.166 0.375,0.125 0.375,0.166992 0.334,0.167008 0.375,0.166 0.375,0.209 0.333,0.166 0.375,0.167 0.333,0.208 0.375,0.209 0.375,0.166 0.334,0.209 0.375,0.208 0.375,0.208 0.333,0.209 0.375,0.25 0.375,0.207992 0.333,0.25 0.375,0.208008 0.375,0.25 0.334,0.25 0.375,0.25" /><path
               id="path50"
               style="fill:none;stroke:#000000;stroke-width:0.5;stroke-linecap:butt;stroke-linejoin:round;stroke-miterlimit:4;stroke-dasharray:3, 3, 3, 3, 3, 3;stroke-dashoffset:0;stroke-opacity:1"
               d="m 22.334002,73.087006 h 0.75 l 0.333,0.042 h 4.333999 l 0.375,0.04099 h 3.208001 l 0.375,0.04201 h 2.500001 l 0.375,0.042 h 1.792 l 0.375,0.041 h 1.791001 l 0.375,0.042 h 1.416999 l 0.375,0.042 h 1.417 l 0.375,0.04099 h 1.083 l 0.375,0.04201 h 1.083001 l 0.333999,0.042 h 0.708 l 0.375,0.041 h 0.708001 l 0.375,0.042 h 0.708999 l 0.375,0.042 h 0.708 l 0.375,0.04099 h 0.708001 l 0.375,0.04201 h 0.333999 l 0.375,0.041 h 0.708 l 0.375,0.042 h 0.375 l 0.333001,0.042 h 0.375 l 0.375,0.041 h 0.333999 l 0.375,0.04199 h 0.333 l 0.375,0.04201 h 0.375 l 0.333001,0.041 h 0.375 l 0.375,0.042 0.333999,0.042 h 0.375 l 0.375,0.041 M 0.75100005,73.004005 H 6.1670003 l 0.3340001,0.041 H 16.959002 l 0.333,0.042 h 5.042" /><path
               id="path52"
               style="fill:none;stroke:#000000;stroke-width:0.5;stroke-linecap:butt;stroke-linejoin:round;stroke-miterlimit:4;stroke-dasharray:none;stroke-opacity:1"
               d="m 181.08401,93.462006 0.375,0.166999 0.333,0.125 0.375,0.165993 0.375,0.125008 0.33301,0.124992 0.37498,0.167008 0.33401,0.125 0.375,0.166999 0.375,0.125 0.333,0.125 0.375,0.166001 0.375,0.124992 0.334,0.125008 0.375,0.167 0.375,0.125 0.333,0.125 0.375,0.125 0.333,0.125 0.375,0.166999 0.375,0.125 0.334,0.125 0.375,0.125 0.375,0.125 0.333,0.166001 0.75,0.25 0.333,0.124992 0.75,0.25 0.33301,0.125008 0.37498,0.124992 0.33401,0.125008 0.375,0.124992 0.375,0.125008 0.333,0.124992 0.375,0.125008 0.375,0.124992 0.334,0.125008 0.375,0.124992 0.375,0.125008 0.333,0.124992 0.375,0.125008 0.333,0.124992 0.375,0.08301 0.375,0.125 0.334,0.125 0.375,0.125 0.375,0.125 0.333,0.125 0.375,0.125002 0.375,0.084 0.333,0.125 0.375,0.125 0.33299,0.125 0.37502,0.083 0.37498,0.12499 0.33401,0.12501 0.375,0.12499 0.375,0.083 0.333,0.125 0.375,0.125 0.375,0.084 0.334,0.125 0.375,0.125 0.375,0.083 0.333,0.12501 0.375,0.12499 0.333,0.083 0.375,0.125 0.375,0.125 0.334,0.084 0.375,0.125 0.375,0.083 0.333,0.12499 0.375,0.083 0.375,0.125 0.333,0.084 0.375,0.125 0.33299,0.125 0.37502,0.083 0.37498,0.12499 0.33401,0.083 0.375,0.125 0.375,0.084 0.333,0.083 0.375,0.12499 0.375,0.083 0.334,0.125 0.375,0.084 0.333,0.125 0.375,0.083 0.375,0.083 0.334,0.125 0.375,0.084 0.375,0.125 0.333,0.083 0.375,0.083 0.375,0.125 0.333,0.084 M 145.459,73.545006 l 0.33301,0.292 0.75,0.582992 0.33299,0.292008 0.375,0.25 0.375,0.291999 0.334,0.25 0.375,0.291001 0.375,0.25 0.33301,0.25 0.375,0.292 0.334,0.25 0.75,0.5 0.33299,0.25 0.75,0.5 0.33301,0.25 0.75,0.5 0.334,0.208 0.375,0.25 0.333,0.25 0.375,0.208999 0.375,0.25 0.333,0.208001 0.375,0.25 0.375,0.207992 0.33299,0.25 0.375,0.209007 0.375,0.208001 0.33401,0.25 0.375,0.208 0.333,0.208999 0.375,0.208001 0.375,0.207992 0.334,0.209007 0.375,0.208001 0.375,0.208 0.333,0.208999 0.375,0.208001 0.375,0.207992 0.333,0.209007 0.375,0.208001 0.375,0.208 0.334,0.208999 0.375,0.165993 0.333,0.209007 0.375,0.208001 0.375,0.166999 0.333,0.208001 0.375,0.207992 0.375,0.167008 0.33301,0.208 0.37498,0.167 0.37502,0.207992 0.33399,0.167008 0.375,0.166999 0.333,0.208001 0.375,0.166999 0.375,0.208001 0.334,0.166999 0.375,0.165993 0.375,0.167008 0.333,0.208 0.375,0.167 0.375,0.166999 0.333,0.166001 0.375,0.167 0.334,0.166999 0.375,0.166001 0.375,0.208999 0.333,0.165993 0.375,0.167008 0.375,0.166999 0.333,0.165993 0.375,0.125008 0.375,0.167 0.33301,0.166999 0.37498,0.166001 0.33401,0.167 0.375,0.166999 0.375,0.166001 0.334,0.124992 0.375,0.167008 0.375,0.166999 0.333,0.165993 0.375,0.125008 0.375,0.167 0.333,0.166999 0.375,0.166001 0.375,0.124992 0.334,0.167008 0.375,0.125 0.333,0.166999 0.375,0.166001 0.375,0.124992 0.333,0.167008 0.375,0.125" /><path
               id="path54"
               style="fill:none;stroke:#000000;stroke-width:0.5;stroke-linecap:butt;stroke-linejoin:round;stroke-miterlimit:4;stroke-dasharray:none;stroke-opacity:1"
               d="m 111.95901,2.3370001 0.375,3.083 0.375,2.7920007 0.333,2.5420002 0.375,2.375 0.375,2.166 0.334,2.041999 0.375,1.875002 0.333,1.792 0.375,1.665998 0.375,1.584002 0.333,1.5 0.375,1.458 0.375,1.333 0.334,1.334 0.375,1.25 0.375,1.166 0.333,1.167 0.375,1.125 0.333,1.041 0.375,1.041996 0.375,1 0.333,0.958004 0.75,1.834 0.334,0.875 0.75,1.666 0.333,0.792 0.375,0.792 0.375,0.75 0.334,0.75 0.375,0.75 0.333,0.708 0.75,1.334 0.333,0.666 0.375,0.667 0.375,0.625 0.334,0.625 0.75,1.167 0.333,0.583 0.375,0.583 0.333,0.542 0.375,0.582996 0.375,0.542004 0.33299,0.5 0.375,0.542 0.375,0.5 0.334,0.5 0.375,0.5 0.375,0.458 0.33301,0.5 0.375,0.457996 0.334,0.459004 0.375,0.458 0.375,0.458 0.33299,0.417 0.375,0.457996 0.375,0.417004 0.33301,0.417 0.75,0.833 0.334,0.417 0.375,0.375003 0.375,0.416001 0.33299,0.374992 0.375,0.375008 0.33301,0.417 0.375,0.375 0.375,0.332992 0.33299,0.375008 0.375,0.374992 0.375,0.334007 0.334,0.375 0.375,0.333001 0.375,0.333 0.334,0.333999 0.375,0.333001 0.33301,0.333 0.75,0.667 0.33299,0.333 0.375,0.292 0.375,0.332992 0.334,0.292008 0.375,0.333 0.375,0.292 0.33301,0.291999 0.375,0.290993 0.33299,0.292008 0.375,0.333 0.375,0.25 m 35.62501,8.333999 0.375,0.083 0.333,0.042 0.375,0.083 0.375,0.042 0.33301,0.083 0.37498,0.042 0.33401,0.041 0.375,0.084 0.375,0.04099 0.333,0.08401 0.375,0.041 0.375,0.084 0.334,0.04099 0.375,0.08401 0.375,0.041 0.333,0.042 0.375,0.08299 0.333,0.04201 0.375,0.083 0.375,0.042 0.334,0.042 0.375,0.083 0.375,0.042 0.333,0.041 0.375,0.084 0.375,0.04099 0.333,0.08401 0.375,0.041 0.375,0.042 0.33301,0.08299 0.37498,0.04201 0.33401,0.042 0.375,0.041 0.375,0.083 0.333,0.04199 0.375,0.04201 0.375,0.083 0.334,0.042 0.375,0.041 0.375,0.084 0.333,0.041 0.375,0.042 0.333,0.042 0.375,0.08299 0.375,0.04201 0.334,0.041 0.375,0.042 0.375,0.042 0.333,0.08299 0.375,0.04201 0.375,0.041 0.333,0.042 0.375,0.083 0.33299,0.04199 0.37502,0.04201 0.37498,0.041 0.33401,0.042 0.375,0.083 0.375,0.04199 0.333,0.04201 0.375,0.041 0.375,0.042 0.334,0.042 0.375,0.08299 0.375,0.04201 0.333,0.041 0.375,0.042 0.333,0.042 0.375,0.041 0.375,0.04199 0.334,0.08301 0.375,0.042 0.375,0.042 0.333,0.041 0.375,0.04199 0.375,0.04201 0.333,0.041 0.375,0.042 0.33299,0.042 0.37502,0.041 0.37498,0.084 0.33401,0.041 0.375,0.042 0.375,0.042 0.333,0.041 0.375,0.04199 0.375,0.04201 0.334,0.041 0.375,0.042 0.333,0.042 0.375,0.041 0.375,0.04199 0.334,0.04201 0.375,0.041 0.375,0.042 0.333,0.041 0.375,0.042 0.375,0.04199 0.333,0.04101" /><path
               id="path56"
               style="fill:none;stroke:#000000;stroke-width:0.5;stroke-linecap:butt;stroke-linejoin:round;stroke-miterlimit:4;stroke-dasharray:none;stroke-opacity:1"
               d="m 145.459,73.254005 0.33301,0.125 0.375,0.083 0.375,0.125 0.33299,0.125 0.375,0.125 0.375,0.125 0.334,0.125 0.375,0.125 0.375,0.083 0.33301,0.124992 0.375,0.125008 0.334,0.124992 0.375,0.08401 0.375,0.125 0.33299,0.125 0.375,0.083 0.375,0.125 0.33301,0.083 0.375,0.124992 0.375,0.08401 0.334,0.125 0.375,0.083 0.333,0.125 0.375,0.08299 0.375,0.125008 0.333,0.084 0.375,0.083 0.375,0.125 0.33299,0.08299 0.375,0.08401 0.375,0.125 0.33401,0.083 0.375,0.083 0.333,0.124992 0.375,0.08401 0.375,0.083 0.334,0.08299 0.375,0.08401 0.375,0.125 0.333,0.083 0.375,0.083 0.375,0.084 0.333,0.083 0.375,0.083 0.375,0.084 0.334,0.083 0.375,0.083 0.333,0.084 0.375,0.125 0.375,0.083 0.333,0.08299 0.375,0.08401 0.375,0.083 0.33301,0.042 0.37498,0.083 0.37502,0.083 0.33399,0.084 0.375,0.083 0.333,0.083 0.375,0.084 0.375,0.083 0.334,0.083 0.375,0.084 0.375,0.04099 0.333,0.08401 0.375,0.083 0.375,0.08299 0.333,0.08401 0.375,0.083 0.334,0.042 0.375,0.083 0.375,0.083 0.333,0.084 0.375,0.04099 0.375,0.08401 0.333,0.083 0.375,0.08299 0.375,0.04201 0.33301,0.083 0.37498,0.084 0.33401,0.04099 0.375,0.08401 0.375,0.083 0.334,0.042 0.375,0.083 0.375,0.083 0.333,0.042 0.375,0.08299 0.375,0.04201 0.333,0.083 0.375,0.084 0.375,0.04099 0.334,0.08401 0.375,0.041 0.333,0.084 0.375,0.04099 0.375,0.08401 0.333,0.041 0.375,0.084 m -71.25,-53.584003 0.333,3.667 0.375,2.833 0.333,2.333 0.37499,1.959 0.37501,1.708 0.334,1.5 0.375,1.333 0.375,1.209 0.333,1.125 0.375,1.042 0.375,0.915996 0.334,0.875004 0.375,0.834 0.333,0.790996 0.75,1.417004 0.333,0.625 0.375,0.625 0.375,0.582996 0.334,0.584004 0.75,1.083 0.333,0.5 0.375,0.458 0.333,0.459 0.375,0.458 0.375,0.417 0.333,0.416 0.37499,0.417 0.37501,0.375 0.334,0.417 0.375,0.333 0.375,0.375 0.333,0.333 0.375,0.374996 0.375,0.334004 0.334,0.291 0.375,0.334 0.333,0.290996 0.375,0.292004 0.375,0.292 0.333,0.291 0.375,0.292 0.375,0.292 0.334,0.25 0.375,0.25 0.375,0.290996 0.333,0.25 0.375,0.25 0.333,0.209007 0.75,0.5 0.33299,0.208001 0.375,0.25 0.375,0.208 0.334,0.208999 0.375,0.208001 0.375,0.207992 0.33301,0.209007 0.375,0.208001 0.334,0.208 0.375,0.208999 0.375,0.165993 0.33299,0.209007 0.375,0.208001 0.375,0.166999 0.33301,0.165993 0.375,0.209007 0.375,0.166001 0.334,0.167 0.375,0.166999 0.375,0.208001 0.33299,0.166999 0.375,0.165993 0.33301,0.167008 0.375,0.125 0.375,0.166999 0.33299,0.166001 0.375,0.167 0.375,0.166999 0.334,0.125 0.375,0.165993 0.375,0.125008 0.334,0.167 0.375,0.125 0.33301,0.166999 0.375,0.125 0.375,0.166001 0.33299,0.124992 0.375,0.125008 0.375,0.167 0.334,0.125 0.75,0.25 0.33301,0.125 0.375,0.125 0.33299,0.125 0.375,0.166999 0.375,0.125" /><path
               id="path58"
               style="fill:none;stroke:#000000;stroke-width:1.08300006;stroke-linecap:butt;stroke-linejoin:round;stroke-miterlimit:10;stroke-dasharray:none;stroke-opacity:1"
               d="m 109.08401,14.295001 0.375,8.832999 0.375,5.167002" /><path
               id="path60"
               style="fill:none;stroke:#000000;stroke-width:0.5;stroke-linecap:butt;stroke-linejoin:round;stroke-miterlimit:4;stroke-dasharray:none;stroke-opacity:1"
               d="m 181.08401,131.96201 0.375,0.292 0.333,0.291 0.375,0.292 0.375,0.292 0.33301,0.29099 0.37498,0.29201 0.33401,0.292 0.75,0.583 0.333,0.292 0.375,0.29099 0.375,0.29201 0.334,0.292 0.375,0.291 0.375,0.292 0.333,0.33299 0.375,0.29201 0.333,0.292 0.375,0.292 0.375,0.291 0.334,0.292 0.375,0.292 0.375,0.291 0.333,0.292 0.75,0.583 0.333,0.292 0.75,0.583 0.33301,0.292 0.37498,0.292 0.33401,0.291 0.375,0.292 0.375,0.292 0.333,0.291 0.75,0.584 0.334,0.291 0.375,0.292 0.375,0.333 0.333,0.292 0.375,0.292 0.333,0.291 0.375,0.292 0.375,0.292 0.334,0.292 0.75,0.583 0.333,0.292 0.375,0.291 0.375,0.292 0.333,0.292 0.375,0.291 0.33299,0.292 0.37502,0.292 0.37498,0.291 0.33401,0.292 0.375,0.292 0.375,0.291 0.333,0.292 0.375,0.292 0.375,0.291 0.334,0.292 0.375,0.333 0.375,0.292 0.333,0.292 0.375,0.291 0.333,0.292 0.375,0.292 0.375,0.291 0.334,0.292 0.375,0.292 0.375,0.29198 0.333,0.29102 0.375,0.292 0.375,0.29199 0.333,0.29101 0.375,0.292 0.33299,0.29198 0.37502,0.29102 0.37498,0.292 0.33401,0.29199 0.375,0.29101 0.375,0.292 0.333,0.29198 0.375,0.29102 0.375,0.292 0.334,0.333 0.375,0.292 0.333,0.29198 0.375,0.29102 0.375,0.292 0.334,0.29199 0.375,0.29101 0.375,0.292 0.333,0.29198 0.375,0.29102 0.375,0.292 0.333,0.29199 M 145.459,102.92 l 0.33301,0.29201 0.375,0.292 0.375,0.291 0.33299,0.292 0.75,0.58299 0.334,0.29201 0.375,0.292 0.375,0.291 0.33301,0.292 0.375,0.292 0.334,0.29099 0.375,0.29201 0.375,0.292 0.33299,0.291 0.375,0.292 0.375,0.292 0.33301,0.29099 0.375,0.33401 0.375,0.291 0.334,0.292 0.375,0.292 0.333,0.29099 0.375,0.29201 0.375,0.292 0.333,0.291 0.375,0.292 0.375,0.292 0.33299,0.29099 0.375,0.29201 0.375,0.292 0.33401,0.291 0.375,0.292 0.333,0.292 0.375,0.29099 0.375,0.29201 0.334,0.292 0.375,0.291 0.375,0.292 0.333,0.292 0.375,0.29099 0.375,0.29201 0.333,0.333 0.375,0.292 0.375,0.292 0.334,0.29099 0.375,0.29201 0.333,0.292 0.375,0.291 0.375,0.292 0.333,0.292 0.375,0.29099 0.375,0.29201 0.33301,0.292 0.37498,0.291 0.37502,0.292 0.33399,0.292 0.375,0.29099 0.333,0.29201 0.375,0.292 0.375,0.291 0.334,0.292 0.375,0.292 0.375,0.29099 0.333,0.29201 0.375,0.292 0.375,0.333 0.333,0.292 0.375,0.29099 0.334,0.29201 0.75,0.583 0.333,0.292 0.75,0.58299 0.333,0.29201 0.375,0.292 0.375,0.291 0.33301,0.292 0.37498,0.292 0.33401,0.29099 0.75,0.58401 0.334,0.291 0.375,0.292 0.375,0.292 0.333,0.29099 0.75,0.58401 0.333,0.292 0.375,0.333 0.375,0.292 0.334,0.291 0.375,0.292 0.333,0.292 0.375,0.291 0.375,0.292 0.333,0.292 0.375,0.291" /><path
               id="path62"
               style="fill:none;stroke:#000000;stroke-width:0.5;stroke-linecap:butt;stroke-linejoin:round;stroke-miterlimit:4;stroke-dasharray:none;stroke-opacity:1"
               d="m 109.83401,73.879005 0.333,0.290993 0.375,0.292008 0.333,0.291999 0.37499,0.291001 0.37501,0.292 0.334,0.291999 0.375,0.290993 0.375,0.292008 0.333,0.291999 0.375,0.291001 0.375,0.292 0.334,0.291999 0.375,0.290993 0.333,0.292008 0.375,0.291999 0.375,0.291001 0.333,0.292 0.375,0.291999 0.375,0.290993 0.334,0.292008 0.375,0.291999 0.375,0.333001 0.333,0.291999 0.375,0.290993 0.333,0.292008 0.75,0.583 0.333,0.292 0.37499,0.291999 0.37501,0.290993 0.334,0.292008 0.375,0.291999 0.375,0.291001 0.333,0.292 0.75,0.582992 0.334,0.292008 0.375,0.291999 0.333,0.291001 0.375,0.292 0.375,0.291999 0.333,0.290993 0.375,0.292008 0.375,0.291999 0.334,0.291001 0.375,0.333999 0.375,0.290993 0.333,0.292008 0.375,0.291999 0.333,0.291001 0.75,0.583999 0.33299,0.290993 0.375,0.292008 0.375,0.291999 0.334,0.291001 0.375,0.292 0.375,0.291999 0.33301,0.290993 0.375,0.292008 0.334,0.291999 0.375,0.291001 0.375,0.292 0.33299,0.291999 0.375,0.290993 0.375,0.292008 0.33301,0.291999 0.375,0.291001 0.375,0.292 0.334,0.332992 0.375,0.292008 0.375,0.291999 0.33299,0.291001 0.375,0.292 0.33301,0.291 0.375,0.291992 0.375,0.292008 0.33299,0.291 0.375,0.292 0.375,0.292 0.334,0.291 0.75,0.584 0.334,0.291 0.375,0.292 0.33301,0.292 0.375,0.291 0.375,0.291992 0.33299,0.292008 0.375,0.291004 0.375,0.292 0.334,0.292 0.375,0.291 0.375,0.334 0.33301,0.291 0.375,0.292 0.33299,0.292 0.375,0.291 0.375,0.29199 m -71.292,-58.124998 0.375,0.334 0.375,0.290996 0.334007,0.292004 0.375,0.291 0.333,0.292 0.75,0.583 0.333,0.291996 0.375,0.292004 0.375,0.292 0.334,0.291 0.375,0.292 0.375,0.292 0.333,0.290996 0.375,0.292004 0.375,0.292 0.333,0.291 0.375,0.292 0.334,0.292 0.375,0.290996 0.375,0.292004 0.333,0.292 0.375,0.291 0.375,0.292 0.333,0.332996 0.375,0.292004 0.375,0.292 0.334,0.291 0.375,0.292 0.333,0.292 0.375,0.290996 0.375,0.292004 0.333,0.292 0.375,0.291 0.375,0.292 0.334,0.292 0.375,0.290996 0.375,0.292004 0.333,0.292 0.375,0.291 0.333,0.292 0.75,0.582996 0.334,0.292004 0.375,0.292 0.375,0.291 0.333,0.292 0.375,0.292 0.375,0.333 0.333,0.292 0.375,0.291 0.375,0.292 0.334,0.292 0.375,0.290996 0.333,0.292004 0.375,0.292 0.375,0.291 0.333,0.292 0.375,0.292 0.375,0.290996 0.334,0.292004 0.375,0.292 0.375,0.291 0.333,0.292 0.375,0.292 0.333,0.290996 0.75,0.584007 0.334,0.291001 0.75,0.583999 0.333003,0.290993 0.375,0.334007 0.375,0.291001 0.333,0.292 0.375,0.291999 0.333,0.290993 0.37499,0.292008 0.37501,0.291999 0.334,0.291001 0.375,0.292 0.375,0.291 0.333,0.291992 0.375,0.292008 0.375,0.291 0.334,0.292 0.375,0.292 0.375,0.291 0.333,0.291992 0.375,0.292008 0.333,0.291 0.75,0.584 0.334,0.291 0.375,0.291992 0.375,0.292008 0.333,0.333 0.375,0.292 0.375,0.291" /><path
               id="path64"
               style="fill:none;stroke:#000000;stroke-width:0.5;stroke-linecap:butt;stroke-linejoin:round;stroke-miterlimit:4;stroke-dasharray:none;stroke-opacity:1"
               d="m 38.542004,15.754001 0.375,0.290999 0.333999,0.292 0.375,0.292002 0.375,0.332998 0.333,0.292002 0.75,0.583 0.333001,0.292 0.375,0.290998 0.333999,0.292002 0.375,0.290998 0.375,0.292 0.333,0.292002 0.375,0.290998 0.375,0.292 0.333001,0.292002 0.375,0.290998 0.375,0.292 0.333999,0.292002 0.375,0.290998 0.333,0.292 0.75,0.583 0.333001,0.292002 0.75,0.582998 0.333999,0.292 0.375,0.333 0.375,0.292002 0.333,0.292 0.375,0.290998 0.375,0.292 0.333001,0.292002 0.375,0.291 0.333999,0.292 0.75,0.583 0.333,0.291998 0.75,0.583002 0.333001,0.292 0.75,0.583 0.333999,0.291998 0.375,0.292002 0.333,0.291 0.375,0.292 0.375,0.292 0.333001,0.291 0.375,0.291998 0.375,0.292002 0.333999,0.333 0.75,0.583 0.333,0.291998 0.375,0.292002 0.333001,0.291 0.375,0.292 0.375,0.292 0.333999,0.291 0.375,0.291996 0.375,0.292004 0.333,0.291 0.375,0.292 0.375,0.292 0.333001,0.291 0.375,0.291996 0.333999,0.292004 0.375,0.291 0.375,0.292 0.332997,0.292 0.375,0.291 0.375,0.291996 0.333,0.292004 0.375,0.291 0.375,0.334 0.333999,0.291 0.375,0.291996 0.375,0.292004 0.333001,0.291 0.375,0.292 0.333,0.292 0.375,0.291 0.375,0.291996 0.334007,0.292004 0.375,0.291 0.375,0.292 0.332993,0.292 0.375,0.291 0.375,0.291996 0.333,0.292004 0.375,0.291 0.334007,0.292 0.75,0.583 0.333,0.291996 0.75,0.583004 0.332993,0.292 M 19.459002,0.21200001 l 0.375,0.29100001 0.333,0.292 0.75,0.58299998 0.333999,0.292 0.75,0.583 0.333001,0.2920001 0.375,0.3329999 0.375,0.2919998 0.333,0.2920003 0.375,0.2910002 0.375,0.2919998 0.333999,0.2920003 0.375,0.2909999 0.333001,0.2919998 0.75,0.5830002 0.333,0.2919998 0.75,0.5830002 0.333999,0.2919998 0.75,0.5830002 0.333001,0.2920003 0.375,0.2919998 0.333,0.2909999 0.375,0.2919998 0.375,0.2920007 0.333999,0.2909995 0.375,0.2919998 0.375,0.2920007 0.333001,0.3329993 L 32.084,10.503 l 0.333,0.292 0.375,0.292001 0.334003,0.290999 0.375,0.292 0.375,0.292001 0.333,0.290999 0.375,0.292001 0.375,0.292 0.332997,0.290999 0.375,0.292 0.375,0.292001 0.334003,0.290999 0.375,0.292001 0.375,0.292 0.333,0.290999 0.375,0.292 0.333001,0.292001 0.375,0.291" /><text
               id="text68"
               style="font-variant:normal;font-weight:normal;font-size:12.75200081px;font-family:CMR10;-inkscape-font-specification:CMR10;writing-mode:lr-tb;fill:#000000;fill-opacity:1;fill-rule:nonzero;stroke:none"
               transform="matrix(1,0,0,-1,218.37109,88.201698)"><tspan
                 id="tspan66"
                 y="0"
                 x="0 3.5450563 9.9210567">log</tspan></text>
<text
               id="text72"
               style="font-variant:normal;font-weight:normal;font-size:12.75200081px;font-family:CMMI10;-inkscape-font-specification:CMMI10;writing-mode:lr-tb;fill:#000000;fill-opacity:1;fill-rule:nonzero;stroke:none"
               transform="matrix(1,0,0,-1,236.96861,88.201698)"><tspan
                 id="tspan70"
                 y="0"
                 x="0">x</tspan></text>
<text
               id="text76"
               style="font-variant:normal;font-weight:normal;font-size:12.75200081px;font-family:CMR10;-inkscape-font-specification:CMR10;writing-mode:lr-tb;fill:#000000;fill-opacity:1;fill-rule:nonzero;stroke:none"
               transform="matrix(1,0,0,-1,205.24802,109.00021)"><tspan
                 id="tspan74"
                 y="0"
                 x="0 3.5450563">ln</tspan></text>
<text
               id="text80"
               style="font-variant:normal;font-weight:normal;font-size:12.75200081px;font-family:CMMI10;-inkscape-font-specification:CMMI10;writing-mode:lr-tb;fill:#000000;fill-opacity:1;fill-rule:nonzero;stroke:none"
               transform="matrix(1,0,0,-1,218.0013,109.00021)"><tspan
                 id="tspan78"
                 y="0"
                 x="0">x</tspan></text>
<text
               id="text84"
               style="font-variant:normal;font-weight:normal;font-size:12.75200081px;font-family:CMR10;-inkscape-font-specification:CMR10;writing-mode:lr-tb;fill:#000000;fill-opacity:1;fill-rule:nonzero;stroke:none"
               transform="matrix(1,0,0,-1,119.61579,165.42783)"><tspan
                 id="tspan82"
                 y="0"
                 x="0 6.3760004 12.752001">10 </tspan></text>
<text
               id="text88"
               style="font-variant:normal;font-weight:normal;font-size:8.92640018px;font-family:CMMI7;-inkscape-font-specification:CMMI7;writing-mode:lr-tb;fill:#000000;fill-opacity:1;fill-rule:nonzero;stroke:none"
               transform="matrix(1,0,0,-1,133.2939,171.7603)"><tspan
                 id="tspan86"
                 y="0"
                 x="0">x</tspan></text>
<text
               id="text92"
               style="font-variant:normal;font-weight:normal;font-size:12.75200081px;font-family:CMMI10;-inkscape-font-specification:CMMI10;writing-mode:lr-tb;fill:#000000;fill-opacity:1;fill-rule:nonzero;stroke:none"
               transform="matrix(1,0,0,-1,152.5161,158.15649)"><tspan
                 id="tspan90"
                 y="0"
                 x="0">e</tspan></text>
<text
               id="text96"
               style="font-variant:normal;font-weight:normal;font-size:8.92640018px;font-family:CMMI7;-inkscape-font-specification:CMMI7;writing-mode:lr-tb;fill:#000000;fill-opacity:1;fill-rule:nonzero;stroke:none"
               transform="matrix(1,0,0,-1,158.4536,163.4214)"><tspan
                 id="tspan94"
                 y="0"
                 x="0">x</tspan></text>
</g></g></g></g></g></svg>