<?xml version="1.0" encoding="UTF-8" standalone="no"?>
<svg
   xmlns:dc="http://purl.org/dc/elements/1.1/"
   xmlns:cc="http://creativecommons.org/ns#"
   xmlns:rdf="http://www.w3.org/1999/02/22-rdf-syntax-ns#"
   xmlns:svg="http://www.w3.org/2000/svg"
   xmlns="http://www.w3.org/2000/svg"
   viewBox="0 0 144 153.33333"
   height="153.33333"
   width="144"
   xml:space="preserve"
   id="svg2"
   version="1.1"><metadata
     id="metadata8"><rdf:RDF><cc:Work
         rdf:about=""><dc:format>image/svg+xml</dc:format><dc:type
           rdf:resource="http://purl.org/dc/dcmitype/StillImage" /></cc:Work></rdf:RDF></metadata><defs
     id="defs6"><clipPath
       id="clipPath24"
       clipPathUnits="userSpaceOnUse"><path
         id="path22"
         d="M 0,0 H 108 V 115 H 0 Z" /></clipPath><clipPath
       id="clipPath38"
       clipPathUnits="userSpaceOnUse"><path
         id="path36"
         d="M 0,0.06000519 H 107.27901 V 114.51201 H 0 Z" /></clipPath><clipPath
       id="clipPath66"
       clipPathUnits="userSpaceOnUse"><path
         id="path64"
         d="m 49.289997,70.517006 -11.949997,0.023 0.042,21.799004 11.950001,-0.023 -0.042,-21.798996" /></clipPath><clipPath
       id="clipPath138"
       clipPathUnits="userSpaceOnUse"><path
         id="path136"
         d="M 0,0.06000519 H 107.27901 V 114.51201 H 0 Z" /></clipPath></defs><g
     transform="matrix(1.3333333,0,0,-1.3333333,0,153.33333)"
     id="g10"><g
       id="g12" /><g
       id="g14" /><g
       id="g16"><g
         id="g18"><g
           clip-path="url(#clipPath24)"
           id="g20"><g
             id="g26" /><g
             id="g28"><path
               id="path30"
               style="fill:#c8c7c7;fill-opacity:1;fill-rule:nonzero;stroke:none"
               d="m 43.754002,0.45900002 c 16.597999,0 30.051998,13.45500098 30.051998,30.05300098 0,16.597 -13.453999,30.052002 -30.051998,30.052002 -16.597001,0 -30.051001,-13.455002 -30.051001,-30.052002 0,-16.598 13.454,-30.05300098 30.051001,-30.05300098" /></g><g
             id="g32"><g
               clip-path="url(#clipPath38)"
               id="g34"><path
                 id="path40"
                 style="fill:none;stroke:#231f20;stroke-width:0.91800004;stroke-linecap:butt;stroke-linejoin:miter;stroke-miterlimit:4;stroke-dasharray:none;stroke-opacity:1"
                 d="m 43.754002,0.45900002 c 16.597999,0 30.051998,13.45500098 30.051998,30.05300098 0,16.597 -13.453999,30.052002 -30.051998,30.052002 -16.597001,0 -30.051001,-13.455002 -30.051001,-30.052002 0,-16.598 13.454,-30.05300098 30.051001,-30.05300098 z" /></g></g><g
             id="g42"><path
               id="path44"
               style="fill:#ffffff;fill-opacity:1;fill-rule:nonzero;stroke:none"
               d="m 43.754002,11.278001 c 10.623001,0 19.234001,8.611998 19.234001,19.234 0,10.622002 -8.611,19.233002 -19.234001,19.233002 -10.622002,0 -19.233,-8.611 -19.233,-19.233002 0,-10.622002 8.610998,-19.234 19.233,-19.234" /><path
               id="path46"
               style="fill:none;stroke:#231f20;stroke-width:0.588;stroke-linecap:butt;stroke-linejoin:miter;stroke-miterlimit:4;stroke-dasharray:none;stroke-opacity:1"
               d="m 43.754002,11.278001 c 10.623001,0 19.234001,8.611998 19.234001,19.234 0,10.622002 -8.611,19.233002 -19.234001,19.233002 -10.622002,0 -19.233,-8.611 -19.233,-19.233002 0,-10.622002 8.610998,-19.234 19.233,-19.234 z" /><path
               id="path48"
               style="fill:#231f20;fill-opacity:1;fill-rule:nonzero;stroke:none"
               d="m 43.754002,26.269001 c 2.343002,0 4.243,1.9 4.243,4.243 0,2.343002 -1.899998,4.243 -4.243,4.243 -2.341999,0 -4.242001,-1.899998 -4.242001,-4.243 0,-2.343 1.900002,-4.243 4.242001,-4.243" /><path
               id="path50"
               style="fill:none;stroke:#231f20;stroke-width:0.91800004;stroke-linecap:butt;stroke-linejoin:miter;stroke-miterlimit:4;stroke-dasharray:none;stroke-opacity:1"
               d="m 43.754002,26.269001 c 2.343002,0 4.243,1.9 4.243,4.243 0,2.343002 -1.899998,4.243 -4.243,4.243 -2.341999,0 -4.242001,-1.899998 -4.242001,-4.243 0,-2.343 1.900002,-4.243 4.242001,-4.243 z" /><path
               id="path52"
               style="fill:#231f20;fill-opacity:1;fill-rule:nonzero;stroke:none"
               d="m 42.692001,105.16801 h 1.062 v -11 h -1.062 z" /><path
               id="path54"
               style="fill:none;stroke:#231f20;stroke-width:0.91800004;stroke-linecap:butt;stroke-linejoin:miter;stroke-miterlimit:4;stroke-dasharray:none;stroke-opacity:1"
               d="m 42.692001,105.16801 h 1.062001 V 94.168007 h -1.062001 z" /><path
               id="path56"
               style="fill:#ffffff;fill-opacity:1;fill-rule:nonzero;stroke:none"
               d="m 47.947002,91.452003 -6.667003,0.014 -0.039,-20.333999 6.667,-0.013 0.039,20.333" /><path
               id="path58"
               style="fill:none;stroke:#ffffff;stroke-width:0.5;stroke-linecap:butt;stroke-linejoin:miter;stroke-miterlimit:4;stroke-dasharray:none;stroke-opacity:1"
               d="m 47.947002,91.452003 -6.667003,0.014 -0.039,-20.333999 6.667,-0.013 0.039,20.333 z" /></g><g
             id="g60"><g
               clip-path="url(#clipPath66)"
               id="g62"><path
                 id="path68"
                 style="fill:#ffffff;fill-opacity:1;fill-rule:nonzero;stroke:none"
                 d="m 43.278004,81.369995 0.299999,-9.92e-4" /><path
                 id="path70"
                 style="fill:none;stroke:#231f20;stroke-width:0.5;stroke-linecap:butt;stroke-linejoin:round;stroke-miterlimit:4;stroke-dasharray:none;stroke-opacity:1"
                 d="m 43.278004,81.369995 0.299999,-9.92e-4" /><path
                 id="path72"
                 style="fill:#ffffff;fill-opacity:1;fill-rule:nonzero;stroke:none"
                 d="m 37.875,88.614006 -0.158997,0.03699 -0.099,0.034 -0.042,0.037 0.017,0.03799 0.079,0.03301 0.133,0.03699 0.188,0.03301 0.246002,0.037 0.295997,0.037 0.345997,0.033 0.391007,0.037 0.433998,0.036 0.465999,0.033 0.505002,0.036 0.528999,0.03699 0.554001,0.032 0.566997,0.037 0.584,0.032 0.583004,0.036 0.587997,0.037 0.578999,0.032 0.566002,0.036 0.549999,0.03699 0.525002,0.032 0.495998,0.036 0.467003,0.037 0.424999,0.032 0.383999,0.037 0.333,0.037 0.288002,0.033 0.237,0.037 0.178997,0.033 0.125,0.037 0.063,0.037 0.008,0.034 -0.05,0.037 -0.112,0.038 -0.167,0.034 -0.221,0.03799 -0.273999,0.037 -0.325001,0.035 -0.370998,0.03799 -0.416004,0.034 -0.453999,0.03799 -0.491996,0.039 -0.521,0.03401 -0.542,0.039 -0.562,0.03799 -0.579007,0.035 -0.582996,0.038 -0.587997,0.03899 -0.579007,0.034 -0.574997,0.039 -0.557998,0.035 -0.533001,0.038 -0.511997,0.039 -0.475003,0.03399 -0.442001,0.03801 -0.403999,0.039 -0.354,0.03299 -0.308999,0.03801 -0.258003,0.03799 -0.203998,0.034 -0.146,0.03801 -0.087,0.03799 -0.033,0.03301 0.029,0.038 0.083,0.03299 0.142002,0.03701 0.199997,0.037 0.254002,0.033 0.304001,0.037 0.354999,0.037 0.395001,0.032 0.443001,0.03699 0.473999,0.036 0.508999,0.033 0.533001,0.036 0.558998,0.03301 0.569999,0.03599 0.579998,0.036 0.587006,0.033 0.584,0.036 0.578994,0.036 0.562004,0.033 0.547001,0.036 0.523999,0.03599 0.492,0.03301 0.453999,0.036 0.420997,0.033 0.375004,0.037 0.328999,0.037 0.280002,0.032 0.224999,0.037 0.170997,0.037 0.112004,0.034 0.059,0.037 -0.004,0.03699 -0.063,0.03401" /><path
                 id="path74"
                 style="fill:none;stroke:#231f20;stroke-width:0.5;stroke-linecap:butt;stroke-linejoin:round;stroke-miterlimit:4;stroke-dasharray:none;stroke-opacity:1"
                 d="m 37.875,88.614006 -0.158997,0.03699 -0.099,0.034 -0.042,0.037 0.017,0.03799 0.079,0.03301 0.133,0.03699 0.188,0.03301 0.246002,0.037 0.295997,0.037 0.345997,0.033 0.391007,0.037 0.433998,0.036 0.465999,0.033 0.505002,0.036 0.528999,0.03699 0.554001,0.032 0.566997,0.037 0.584,0.032 0.583004,0.036 0.587997,0.037 0.578999,0.032 0.566002,0.036 0.549999,0.03699 0.525002,0.032 0.495998,0.036 0.467003,0.037 0.424999,0.032 0.383999,0.037 0.333,0.037 0.288002,0.033 0.237,0.037 0.178997,0.033 0.125,0.037 0.063,0.037 0.008,0.034 -0.05,0.037 -0.112,0.038 -0.167,0.034 -0.221,0.03799 -0.273999,0.037 -0.325001,0.035 -0.370998,0.03799 -0.416004,0.034 -0.453999,0.03799 -0.491996,0.039 -0.521,0.03401 -0.542,0.039 -0.562,0.03799 -0.579007,0.035 -0.582996,0.038 -0.587997,0.03899 -0.579007,0.034 -0.574997,0.039 -0.557998,0.035 -0.533001,0.038 -0.511997,0.039 -0.475003,0.03399 -0.442001,0.03801 -0.403999,0.039 -0.354,0.03299 -0.308999,0.03801 -0.258003,0.03799 -0.203998,0.034 -0.146,0.03801 -0.087,0.03799 -0.033,0.03301 0.029,0.038 0.083,0.03299 0.142002,0.03701 0.199997,0.037 0.254002,0.033 0.304001,0.037 0.354999,0.037 0.395001,0.032 0.443001,0.03699 0.473999,0.036 0.508999,0.033 0.533001,0.036 0.558998,0.03301 0.569999,0.03599 0.579998,0.036 0.587006,0.033 0.584,0.036 0.578994,0.036 0.562004,0.033 0.547001,0.036 0.523999,0.03599 0.492,0.03301 0.453999,0.036 0.420997,0.033 0.375004,0.037 0.328999,0.037 0.280002,0.032 0.224999,0.037 0.170997,0.037 0.112004,0.034 0.059,0.037 -0.004,0.03699 -0.063,0.03401" /><path
                 id="path76"
                 style="fill:#ffffff;fill-opacity:1;fill-rule:nonzero;stroke:none"
                 d="m 47.539001,85.033005 0.400002,0.032 0.354,0.037 0.304001,0.03599 0.25,0.034 0.199997,0.037 0.142002,0.037 0.088,0.033 0.025,0.037 -0.033,0.038 -0.088,0.033 -0.150002,0.038 -0.203999,0.034 -0.254001,0.03799 -0.307999,0.038 -0.358002,0.034 -0.404998,0.03799 -0.441002,0.039 -0.479,0.034 -0.508,0.039 -0.537998,0.038 -0.554001,0.034 -0.575001,0.039 -0.583,0.035 -0.583,0.038 -0.587997,0.03899 -0.575001,0.034 -0.562,0.039 -0.546006,0.03899 -0.515995,0.034 -0.492,0.038 -0.455002,0.03899 -0.411999,0.034 -0.375004,0.038 -0.323993,0.034 -0.275002,0.038 -0.221,0.038 -0.167,0.034 -0.108002,0.037 -0.05,0.03799 0.009,0.03301 0.06599,0.03799 0.121002,0.037 0.184002,0.03301 0.233002,0.037 0.286998,0.037 0.338002,0.032 0.382999,0.037 0.425999,0.03301 0.465999,0.036 0.496002,0.037 0.524998,0.032 0.549999,0.037 0.567002,0.036 0.578998,0.032 0.588002,0.037 0.583,0.03601 0.583,0.032 0.567001,0.037 0.553997,0.032 0.529003,0.036 0.504998,0.037 0.465999,0.032 0.434002,0.037 0.390999,0.037 0.347,0.032 0.295002,0.037 0.242001,0.037 0.191997,0.033 0.133,0.037 0.076,0.034 0.01601,0.037 -0.041,0.03799 -0.100002,0.033 -0.159,0.03799 -0.211998,0.03799 -0.267003,0.03401 -0.315998,0.03799 -0.367,0.03799 -0.408001,0.03401 -0.446003,0.038 -0.486996,0.035 -0.513004,0.03799 -0.540997,0.039 -0.559002,0.034 -0.574997,0.039 -0.583,0.03899 -0.587002,0.034 -0.583,0.03901 -0.574997,0.03799 -0.559002,0.035 -0.541,0.03799 -0.511997,0.039 -0.488003,0.034 -0.445999,0.038 -0.408001,0.035 -0.365997,0.038 -0.317006,0.038 -0.261997,0.034 -0.213001,0.038" /><path
                 id="path78"
                 style="fill:none;stroke:#231f20;stroke-width:0.5;stroke-linecap:butt;stroke-linejoin:round;stroke-miterlimit:4;stroke-dasharray:none;stroke-opacity:1"
                 d="m 47.539001,85.033005 0.400002,0.032 0.354,0.037 0.304001,0.03599 0.25,0.034 0.199997,0.037 0.142002,0.037 0.088,0.033 0.025,0.037 -0.033,0.038 -0.088,0.033 -0.150002,0.038 -0.203999,0.034 -0.254001,0.03799 -0.307999,0.038 -0.358002,0.034 -0.404998,0.03799 -0.441002,0.039 -0.479,0.034 -0.508,0.039 -0.537998,0.038 -0.554001,0.034 -0.575001,0.039 -0.583,0.035 -0.583,0.038 -0.587997,0.03899 -0.575001,0.034 -0.562,0.039 -0.546006,0.03899 -0.515995,0.034 -0.492,0.038 -0.455002,0.03899 -0.411999,0.034 -0.375004,0.038 -0.323993,0.034 -0.275002,0.038 -0.221,0.038 -0.167,0.034 -0.108002,0.037 -0.05,0.03799 0.009,0.03301 0.06599,0.03799 0.121002,0.037 0.184002,0.03301 0.233002,0.037 0.286998,0.037 0.338002,0.032 0.382999,0.037 0.425999,0.03301 0.465999,0.036 0.496002,0.037 0.524998,0.032 0.549999,0.037 0.567002,0.036 0.578998,0.032 0.588002,0.037 0.583,0.03601 0.583,0.032 0.567001,0.037 0.553997,0.032 0.529003,0.036 0.504998,0.037 0.465999,0.032 0.434002,0.037 0.390999,0.037 0.347,0.032 0.295002,0.037 0.242001,0.037 0.191997,0.033 0.133,0.037 0.076,0.034 0.01601,0.037 -0.041,0.03799 -0.100002,0.033 -0.159,0.03799 -0.211998,0.03799 -0.267003,0.03401 -0.315998,0.03799 -0.367,0.03799 -0.408001,0.03401 -0.446003,0.038 -0.486996,0.035 -0.513004,0.03799 -0.540997,0.039 -0.559002,0.034 -0.574997,0.039 -0.583,0.03899 -0.587002,0.034 -0.583,0.03901 -0.574997,0.03799 -0.559002,0.035 -0.541,0.03799 -0.511997,0.039 -0.488003,0.034 -0.445999,0.038 -0.408001,0.035 -0.365997,0.038 -0.317006,0.038 -0.261997,0.034 -0.213001,0.038" /><path
                 id="path80"
                 style="fill:#ffffff;fill-opacity:1;fill-rule:nonzero;stroke:none"
                 d="m 41.694,81.481003 -0.549,0.035 -0.528999,0.03799 -0.5,0.035 -0.466999,0.038 -0.429005,0.03799 -0.386997,0.034 -0.341999,0.039 -0.292,0.03799 -0.237999,0.03301 -0.186,0.03799 -0.130002,0.038 -0.066,0.03301 -0.013,0.03799 0.046,0.03301 0.104,0.03699 0.162999,0.038 0.216999,0.032 0.271,0.037 0.321003,0.037 0.365997,0.033 0.413002,0.037 0.450001,0.036 0.486999,0.03301 0.516998,0.03599 0.542,0.03301 0.562001,0.03599 0.575,0.036 0.584,0.03301 0.587002,0.036 0.583999,0.03599 0.574997,0.03201 0.558003,0.037 0.537998,0.03599 0.513,0.033 0.479001,0.036 0.444999,0.037 0.409001,0.033 0.357998,0.036 0.313003,0.033 0.262001,0.037 0.209,0.037 0.149997,0.033 0.096,0.037 0.037,0.03799 -0.02,0.03301 -0.084,0.038 -0.136997,0.037 -0.192002,0.034 -0.25,0.03799 -0.299,0.03401 -0.351001,0.03899 -0.394997,0.038 -0.434002,0.034 -0.473999,0.03799 -0.504002,0.039 -0.533,0.034 -0.555001,0.03899 -0.569999,0.038 -0.579003,0.035 -0.587997,0.03899 -0.583,0.034 -0.579003,0.038 -0.566997,0.03899 -0.545998,0.035 -0.525002,0.038 -0.491001,0.03799 -0.462997,0.035 -0.420002,0.038 -0.379997,0.03799 -0.333,0.034 -0.283001,0.038 -0.233002,0.03799 -0.174999,0.034 -0.117001,0.03799 -0.062,0.03301 -0.004,0.037 0.058,0.03799 0.112999,0.03301 0.171001,0.03699 0.229,0.037 0.278999,0.033 0.328999,0.037 0.375,0.037 0.421001,0.032 0.455002,0.037 0.495999,0.032 0.52,0.037 0.546002,0.036 0.562,0.032 0.579998,0.037 0.583999,0.036 0.587002,0.032 0.578999,0.037 0.574997,0.036 0.555004,0.032 0.533001,0.037 0.507999,0.032 0.474999,0.037 0.437999,0.037" /><path
                 id="path82"
                 style="fill:none;stroke:#231f20;stroke-width:0.5;stroke-linecap:butt;stroke-linejoin:round;stroke-miterlimit:4;stroke-dasharray:none;stroke-opacity:1"
                 d="m 41.694,81.481003 -0.549,0.035 -0.528999,0.03799 -0.5,0.035 -0.466999,0.038 -0.429005,0.03799 -0.386997,0.034 -0.341999,0.039 -0.292,0.03799 -0.237999,0.03301 -0.186,0.03799 -0.130002,0.038 -0.066,0.03301 -0.013,0.03799 0.046,0.03301 0.104,0.03699 0.162999,0.038 0.216999,0.032 0.271,0.037 0.321003,0.037 0.365997,0.033 0.413002,0.037 0.450001,0.036 0.486999,0.03301 0.516998,0.03599 0.542,0.03301 0.562001,0.03599 0.575,0.036 0.584,0.03301 0.587002,0.036 0.583999,0.03599 0.574997,0.03201 0.558003,0.037 0.537998,0.03599 0.513,0.033 0.479001,0.036 0.444999,0.037 0.409001,0.033 0.357998,0.036 0.313003,0.033 0.262001,0.037 0.209,0.037 0.149997,0.033 0.096,0.037 0.037,0.03799 -0.02,0.03301 -0.084,0.038 -0.136997,0.037 -0.192002,0.034 -0.25,0.03799 -0.299,0.03401 -0.351001,0.03899 -0.394997,0.038 -0.434002,0.034 -0.473999,0.03799 -0.504002,0.039 -0.533,0.034 -0.555001,0.03899 -0.569999,0.038 -0.579003,0.035 -0.587997,0.03899 -0.583,0.034 -0.579003,0.038 -0.566997,0.03899 -0.545998,0.035 -0.525002,0.038 -0.491001,0.03799 -0.462997,0.035 -0.420002,0.038 -0.379997,0.03799 -0.333,0.034 -0.283001,0.038 -0.233002,0.03799 -0.174999,0.034 -0.117001,0.03799 -0.062,0.03301 -0.004,0.037 0.058,0.03799 0.112999,0.03301 0.171001,0.03699 0.229,0.037 0.278999,0.033 0.328999,0.037 0.375,0.037 0.421001,0.032 0.455002,0.037 0.495999,0.032 0.52,0.037 0.546002,0.036 0.562,0.032 0.579998,0.037 0.583999,0.036 0.587002,0.032 0.578999,0.037 0.574997,0.036 0.555004,0.032 0.533001,0.037 0.507999,0.032 0.474999,0.037 0.437999,0.037" /><path
                 id="path84"
                 style="fill:#ffffff;fill-opacity:1;fill-rule:nonzero;stroke:none"
                 d="m 42.400002,77.913002 0.579002,0.036 0.587997,0.037 0.582997,0.032 0.579006,0.036 0.563,0.03301 0.545997,0.03599 0.521,0.037 0.496002,0.032 0.453999,0.037 0.420998,0.036 0.375003,0.033 0.328999,0.037 0.278999,0.03699 0.229,0.033 0.171002,0.037 0.112999,0.037 0.059,0.033 -0.005,0.03799 -0.062,0.03301 -0.117,0.038 -0.174999,0.038 -0.233002,0.034 -0.283001,0.038 -0.332997,0.038 -0.379001,0.034 -0.421002,0.038 -0.462997,0.03899 -0.491001,0.034 -0.525002,0.038 -0.545997,0.035 -0.566002,0.03799 -0.579998,0.039 -0.583,0.034 -0.587002,0.03899 -0.578999,0.039 -0.570999,0.034 -0.554001,0.039 -0.533001,0.038 -0.505001,0.035 -0.474998,0.03799 -0.432999,0.034 -0.396004,0.038 -0.348999,0.03899 -0.299999,0.034 -0.25,0.038 -0.191997,0.03699 -0.137001,0.034 -0.083,0.03799 -0.021,0.037 0.037,0.033 0.096,0.038 0.150001,0.03701 0.208001,0.033 0.262996,0.037 0.313,0.033 0.358002,0.037 0.409,0.036 0.445999,0.033 0.479,0.036 0.512001,0.037 0.537999,0.032 0.558002,0.036 0.574997,0.037 0.583,0.032 0.588001,0.036 0.583001,0.032 0.575996,0.037 0.562004,0.03599 0.542,0.033 0.517002,0.036 0.487,0.037 0.449996,0.032 0.413003,0.037 0.366001,0.037 0.321998,0.03201 0.270001,0.03699 0.216999,0.033 0.163002,0.037 0.104,0.038 0.046,0.033 -0.013,0.03799 -0.067,0.037 -0.128002,0.034 -0.187999,0.038 -0.237,0.038 -0.292,0.033 -0.340999,0.038 -0.388001,0.039 -0.429001,0.034 -0.466003,0.038 -0.5,0.035 -0.528996,0.038 -0.549999,0.039 -0.567001,0.034 -0.578999,0.03899 -0.588001,0.038 -0.587002,0.035 -0.578998,0.03899 -0.567002,0.038" /><path
                 id="path86"
                 style="fill:none;stroke:#231f20;stroke-width:0.5;stroke-linecap:butt;stroke-linejoin:round;stroke-miterlimit:4;stroke-dasharray:none;stroke-opacity:1"
                 d="m 42.400002,77.913002 0.579002,0.036 0.587997,0.037 0.582997,0.032 0.579006,0.036 0.563,0.03301 0.545997,0.03599 0.521,0.037 0.496002,0.032 0.453999,0.037 0.420998,0.036 0.375003,0.033 0.328999,0.037 0.278999,0.03699 0.229,0.033 0.171002,0.037 0.112999,0.037 0.059,0.033 -0.005,0.03799 -0.062,0.03301 -0.117,0.038 -0.174999,0.038 -0.233002,0.034 -0.283001,0.038 -0.332997,0.038 -0.379001,0.034 -0.421002,0.038 -0.462997,0.03899 -0.491001,0.034 -0.525002,0.038 -0.545997,0.035 -0.566002,0.03799 -0.579998,0.039 -0.583,0.034 -0.587002,0.03899 -0.578999,0.039 -0.570999,0.034 -0.554001,0.039 -0.533001,0.038 -0.505001,0.035 -0.474998,0.03799 -0.432999,0.034 -0.396004,0.038 -0.348999,0.03899 -0.299999,0.034 -0.25,0.038 -0.191997,0.03699 -0.137001,0.034 -0.083,0.03799 -0.021,0.037 0.037,0.033 0.096,0.038 0.150001,0.03701 0.208001,0.033 0.262996,0.037 0.313,0.033 0.358002,0.037 0.409,0.036 0.445999,0.033 0.479,0.036 0.512001,0.037 0.537999,0.032 0.558002,0.036 0.574997,0.037 0.583,0.032 0.588001,0.036 0.583001,0.032 0.575996,0.037 0.562004,0.03599 0.542,0.033 0.517002,0.036 0.487,0.037 0.449996,0.032 0.413003,0.037 0.366001,0.037 0.321998,0.03201 0.270001,0.03699 0.216999,0.033 0.163002,0.037 0.104,0.038 0.046,0.033 -0.013,0.03799 -0.067,0.037 -0.128002,0.034 -0.187999,0.038 -0.237,0.038 -0.292,0.033 -0.340999,0.038 -0.388001,0.039 -0.429001,0.034 -0.466003,0.038 -0.5,0.035 -0.528996,0.038 -0.549999,0.039 -0.567001,0.034 -0.578999,0.03899 -0.588001,0.038 -0.587002,0.035 -0.578998,0.03899 -0.567002,0.038" /><path
                 id="path88"
                 style="fill:#ffffff;fill-opacity:1;fill-rule:nonzero;stroke:none"
                 d="m 46.968002,74.342003 -0.486999,0.03799 -0.513001,0.035 -0.541999,0.038 -0.557,0.039 -0.575,0.034 -0.583001,0.039 -0.588001,0.039 -0.583,0.034 -0.576,0.039 -0.557999,0.034 -0.541,0.03899 -0.513001,0.038 -0.486999,0.035 -0.445004,0.03799 -0.408996,0.038 -0.367001,0.034 -0.315998,0.03799 -0.267002,0.038 -0.211998,0.034 -0.159004,0.03799 -0.1,0.03301 -0.041,0.03799 0.017,0.037 0.075,0.033 0.132999,0.038 0.192001,0.03701 0.241997,0.033 0.296002,0.036 0.345001,0.038 0.391998,0.032 0.433003,0.037 0.466999,0.036 0.505001,0.033 0.528,0.036 0.554996,0.032 0.567001,0.037 0.583001,0.036 0.583999,0.032 0.586998,0.037 0.579003,0.03599 0.567001,0.032 0.549999,0.037 0.525002,0.036 0.495998,0.033 0.466999,0.036 0.424999,0.033 0.383004,0.037 0.336998,0.036 0.288002,0.03301 0.233997,0.03699 0.183002,0.037 0.120999,0.033 0.067,0.038 0.008,0.037 -0.05,0.034 -0.107998,0.037 -0.166001,0.034 -0.222,0.038 -0.274998,0.038 -0.324001,0.034 -0.375004,0.038 -0.412994,0.038 -0.454002,0.035 -0.491002,0.038 -0.516998,0.039 -0.546001,0.034 -0.562001,0.038 -0.574997,0.035 -0.587001,0.03899 -0.584,0.03799 -0.583,0.03501 -0.575001,0.03799 -0.554001,0.039 -0.536999,0.034 -0.507999,0.03899 -0.479,0.038 -0.442001,0.03401 -0.404,0.03899 -0.359001,0.038 -0.307999,0.034 -0.253997,0.03799 -0.204003,0.034 -0.149997,0.037 -0.088,0.038 -0.033,0.03301 0.026,0.03799 0.087,0.037 0.142002,0.033 0.200001,0.037 0.25,0.03699 0.303997,0.03301 0.355004,0.037 0.398998,0.032 0.438,0.037 0.474998,0.03699 0.508003,0.03201 0.534001,0.03699 0.553997,0.036 0.575001,0.032" /><path
                 id="path90"
                 style="fill:none;stroke:#231f20;stroke-width:0.5;stroke-linecap:butt;stroke-linejoin:round;stroke-miterlimit:4;stroke-dasharray:none;stroke-opacity:1"
                 d="m 46.968002,74.342003 -0.486999,0.03799 -0.513001,0.035 -0.541999,0.038 -0.557,0.039 -0.575,0.034 -0.583001,0.039 -0.588001,0.039 -0.583,0.034 -0.576,0.039 -0.557999,0.034 -0.541,0.03899 -0.513001,0.038 -0.486999,0.035 -0.445004,0.03799 -0.408996,0.038 -0.367001,0.034 -0.315998,0.03799 -0.267002,0.038 -0.211998,0.034 -0.159004,0.03799 -0.1,0.03301 -0.041,0.03799 0.017,0.037 0.075,0.033 0.132999,0.038 0.192001,0.03701 0.241997,0.033 0.296002,0.036 0.345001,0.038 0.391998,0.032 0.433003,0.037 0.466999,0.036 0.505001,0.033 0.528,0.036 0.554996,0.032 0.567001,0.037 0.583001,0.036 0.583999,0.032 0.586998,0.037 0.579003,0.03599 0.567001,0.032 0.549999,0.037 0.525002,0.036 0.495998,0.033 0.466999,0.036 0.424999,0.033 0.383004,0.037 0.336998,0.036 0.288002,0.03301 0.233997,0.03699 0.183002,0.037 0.120999,0.033 0.067,0.038 0.008,0.037 -0.05,0.034 -0.107998,0.037 -0.166001,0.034 -0.222,0.038 -0.274998,0.038 -0.324001,0.034 -0.375004,0.038 -0.412994,0.038 -0.454002,0.035 -0.491002,0.038 -0.516998,0.039 -0.546001,0.034 -0.562001,0.038 -0.574997,0.035 -0.587001,0.03899 -0.584,0.03799 -0.583,0.03501 -0.575001,0.03799 -0.554001,0.039 -0.536999,0.034 -0.507999,0.03899 -0.479,0.038 -0.442001,0.03401 -0.404,0.03899 -0.359001,0.038 -0.307999,0.034 -0.253997,0.03799 -0.204003,0.034 -0.149997,0.037 -0.088,0.038 -0.033,0.03301 0.026,0.03799 0.087,0.037 0.142002,0.033 0.200001,0.037 0.25,0.03699 0.303997,0.03301 0.355004,0.037 0.398998,0.032 0.438,0.037 0.474998,0.03699 0.508003,0.03201 0.534001,0.03699 0.553997,0.036 0.575001,0.032" /><path
                 id="path92"
                 style="fill:#ffffff;fill-opacity:1;fill-rule:nonzero;stroke:none"
                 d="m 38.111,70.797005 0.278999,0.032 0.329998,0.037 0.375004,0.037 0.421002,0.033 0.453994,0.03599 0.492005,0.036 0.525001,0.033 0.545998,0.036 0.562,0.037 0.579003,0.032 0.583999,0.036 0.586998,0.033 0.579003,0.036 0.571998,0.036 0.557999,0.033 0.534,0.036 0.508,0.037 0.475002,0.032 0.440998,0.037 0.396,0.03599 0.354,0.03301 0.305,0.03699 0.254002,0.037 0.200001,0.033 0.141998,0.037 0.083,0.033 0.029,0.038 -0.033,0.037 -0.087,0.034 -0.146,0.038 -0.203999,0.037 -0.259003,0.035 -0.307998,0.038 -0.354,0.038 -0.404003,0.034 -0.440999,0.038 -0.474998,0.034 -0.513,0.039 -0.533001,0.038 -0.558999,0.035 -0.574001,0.039 -0.578998,0.038 -0.588002,0.035 -0.583,0.038 -0.578998,0.03899 -0.562001,0.034 -0.542,0.039 -0.520999,0.034 -0.491005,0.03799 -0.453999,0.039 -0.417,0.034 -0.370998,0.03799 -0.324001,0.038 -0.275998,0.034 -0.220001,0.03799 -0.167,0.038 -0.111999,0.033 -0.051,0.038 0.009,0.038 0.063,0.033 0.125004,0.037 0.179001,0.033 0.237999,0.037 0.286998,0.03699 0.334,0.03301 0.382999,0.037 0.425003,0.036 0.466999,0.03301 0.494999,0.036 0.526001,0.037 0.55,0.032 0.566002,0.03599 0.579998,0.03201 0.587001,0.037 0.584,0.036 0.583,0.032 0.566998,0.037 0.553997,0.03599 0.529003,0.03301 0.504001,0.036 0.466996,0.036 0.433006,0.033 0.391998,0.037 0.346001,0.033 0.295998,0.037 0.246002,0.03699 0.186996,0.033 0.134003,0.037 0.079,0.037 0.017,0.033 -0.042,0.03799 -0.100003,0.03801 -0.158,0.033 -0.211998,0.038 -0.263001,0.038 -0.316997,0.034 -0.366002,0.038 -0.408001,0.034 -0.445999,0.039" /><path
                 id="path94"
                 style="fill:none;stroke:#231f20;stroke-width:0.5;stroke-linecap:butt;stroke-linejoin:round;stroke-miterlimit:4;stroke-dasharray:none;stroke-opacity:1"
                 d="m 38.111,70.797005 0.278999,0.032 0.329998,0.037 0.375004,0.037 0.421002,0.033 0.453994,0.03599 0.492005,0.036 0.525001,0.033 0.545998,0.036 0.562,0.037 0.579003,0.032 0.583999,0.036 0.586998,0.033 0.579003,0.036 0.571998,0.036 0.557999,0.033 0.534,0.036 0.508,0.037 0.475002,0.032 0.440998,0.037 0.396,0.03599 0.354,0.03301 0.305,0.03699 0.254002,0.037 0.200001,0.033 0.141998,0.037 0.083,0.033 0.029,0.038 -0.033,0.037 -0.087,0.034 -0.146,0.038 -0.203999,0.037 -0.259003,0.035 -0.307998,0.038 -0.354,0.038 -0.404003,0.034 -0.440999,0.038 -0.474998,0.034 -0.513,0.039 -0.533001,0.038 -0.558999,0.035 -0.574001,0.039 -0.578998,0.038 -0.588002,0.035 -0.583,0.038 -0.578998,0.03899 -0.562001,0.034 -0.542,0.039 -0.520999,0.034 -0.491005,0.03799 -0.453999,0.039 -0.417,0.034 -0.370998,0.03799 -0.324001,0.038 -0.275998,0.034 -0.220001,0.03799 -0.167,0.038 -0.111999,0.033 -0.051,0.038 0.009,0.038 0.063,0.033 0.125004,0.037 0.179001,0.033 0.237999,0.037 0.286998,0.03699 0.334,0.03301 0.382999,0.037 0.425003,0.036 0.466999,0.03301 0.494999,0.036 0.526001,0.037 0.55,0.032 0.566002,0.03599 0.579998,0.03201 0.587001,0.037 0.584,0.036 0.583,0.032 0.566998,0.037 0.553997,0.03599 0.529003,0.03301 0.504001,0.036 0.466996,0.036 0.433006,0.033 0.391998,0.037 0.346001,0.033 0.295998,0.037 0.246002,0.03699 0.186996,0.033 0.134003,0.037 0.079,0.037 0.017,0.033 -0.042,0.03799 -0.100003,0.03801 -0.158,0.033 -0.211998,0.038 -0.263001,0.038 -0.316997,0.034 -0.366002,0.038 -0.408001,0.034 -0.445999,0.039" /><path
                 id="path96"
                 style="fill:#ffffff;fill-opacity:1;fill-rule:nonzero;stroke:none"
                 d="m 37.611,70.581001 -0.063,0.037 -0.003,0.034 0.058,0.037 0.111999,0.038 0.171002,0.033 0.224998,0.037" /><path
                 id="path98"
                 style="fill:none;stroke:#231f20;stroke-width:0.5;stroke-linecap:butt;stroke-linejoin:round;stroke-miterlimit:4;stroke-dasharray:none;stroke-opacity:1"
                 d="m 37.611,70.581001 -0.063,0.037 -0.003,0.034 0.058,0.037 0.111999,0.038 0.171002,0.033 0.224998,0.037" /></g></g><g
             id="g100"><path
               id="path102"
               style="fill:#231f20;fill-opacity:1;fill-rule:nonzero;stroke:none"
               d="m 43.401001,93.071007 c 3.332001,0 6.034,0.252998 6.034,0.565994 0,0.312004 -2.701999,0.565002 -6.034,0.565002 -3.332001,0 -6.034,-0.252998 -6.034,-0.565002 0,-0.312996 2.701999,-0.565994 6.034,-0.565994" /><path
               id="path104"
               style="fill:none;stroke:#231f20;stroke-width:1;stroke-linecap:butt;stroke-linejoin:miter;stroke-miterlimit:4;stroke-dasharray:none;stroke-opacity:1"
               d="m 43.401001,93.071007 c 3.332001,0 6.034,0.252998 6.034,0.565994 0,0.312004 -2.701999,0.565002 -6.034,0.565002 -3.332001,0 -6.034,-0.252998 -6.034,-0.565002 0,-0.312996 2.701999,-0.565994 6.034,-0.565994 z" /><path
               id="path106"
               style="fill:#231f20;fill-opacity:1;fill-rule:nonzero;stroke:none"
               d="m 43.484001,69.779999 c 3.332001,0 6.034001,0.253006 6.034001,0.565002 0,0.313004 -2.702,0.566002 -6.034001,0.566002 -3.333,0 -6.034,-0.252998 -6.034,-0.566002 0,-0.311996 2.701,-0.565002 6.034,-0.565002" /><path
               id="path108"
               style="fill:none;stroke:#231f20;stroke-width:1;stroke-linecap:butt;stroke-linejoin:miter;stroke-miterlimit:4;stroke-dasharray:none;stroke-opacity:1"
               d="m 43.484001,69.779999 c 3.332001,0 6.034001,0.253006 6.034001,0.565002 0,0.313004 -2.702,0.566002 -6.034001,0.566002 -3.333,0 -6.034,-0.252998 -6.034,-0.566002 0,-0.311996 2.701,-0.565002 6.034,-0.565002 z" /><path
               id="path110"
               style="fill:#231f20;fill-opacity:1;fill-rule:nonzero;stroke:none"
               d="m 33.004002,66.262001 h 20.25 v -20.5 h -20.25 z" /><path
               id="path112"
               style="fill:none;stroke:#231f20;stroke-width:1;stroke-linecap:butt;stroke-linejoin:miter;stroke-miterlimit:4;stroke-dasharray:none;stroke-opacity:1"
               d="m 33.004002,45.762001 h 20.25 v 20.5 h -20.25 z" /><path
               id="path114"
               style="fill:#ffffff;fill-opacity:1;fill-rule:nonzero;stroke:none"
               d="m 34.671001,66.262001 h 17 v -19 h -17 z" /><path
               id="path116"
               style="fill:none;stroke:#231f20;stroke-width:1;stroke-linecap:butt;stroke-linejoin:miter;stroke-miterlimit:4;stroke-dasharray:none;stroke-opacity:1"
               d="m 34.671001,47.262001 h 17 v 19 h -17 z" /><path
               id="path118"
               style="fill:#231f20;fill-opacity:1;fill-rule:nonzero;stroke:none"
               d="m 35.983002,59.055004 h 14.459 v -2.754002 h -14.459 z" /><path
               id="path120"
               style="fill:none;stroke:#231f20;stroke-width:0.91800004;stroke-linecap:butt;stroke-linejoin:miter;stroke-miterlimit:4;stroke-dasharray:none;stroke-opacity:1"
               d="m 35.983002,56.302002 h 14.458999 v 2.754002 H 35.983002 Z" /><path
               id="path122"
               style="fill:#ffffff;fill-opacity:1;fill-rule:nonzero;stroke:none"
               d="m 35.015003,67.168007 h 16.291 v -1.5 h -16.291 z" /><path
               id="path124"
               style="fill:none;stroke:#ffffff;stroke-width:0.5;stroke-linecap:butt;stroke-linejoin:miter;stroke-miterlimit:4;stroke-dasharray:none;stroke-opacity:1"
               d="m 35.015003,67.168007 h 16.291001 v -1.5 H 35.015003 Z" /><path
               id="path126"
               style="fill:#231f20;fill-opacity:1;fill-rule:nonzero;stroke:none"
               d="m 42.421001,70.345001 h 1.063 v -11 h -1.063 z" /><path
               id="path128"
               style="fill:none;stroke:#231f20;stroke-width:0.91800004;stroke-linecap:butt;stroke-linejoin:miter;stroke-miterlimit:4;stroke-dasharray:none;stroke-opacity:1"
               d="m 42.421001,70.345001 h 1.063 v -11 h -1.063 z" /><path
               id="path130"
               style="fill:#5a5758;fill-opacity:1;fill-rule:nonzero;stroke:none"
               d="M 8.2540007,114.01201 H 75.254001 v -12 H 8.2540007 Z" /></g><g
             id="g132"><g
               clip-path="url(#clipPath138)"
               id="g134"><path
                 id="path140"
                 style="fill:none;stroke:#c8c7c7;stroke-width:1;stroke-linecap:butt;stroke-linejoin:miter;stroke-miterlimit:4;stroke-dasharray:none;stroke-opacity:1"
                 d="M 8.2540007,102.012 H 75.253998 v 12 H 8.2540007 Z" /></g></g><g
             id="g142"><text
               id="text146"
               style="font-variant:normal;font-weight:normal;font-size:11.95500088px;font-family:CMR12;-inkscape-font-specification:CMR12;writing-mode:lr-tb;fill:#231f20;fill-opacity:1;fill-rule:nonzero;stroke:none"
               transform="matrix(1,0,0,-1,81.479996,103.50169)"><tspan
                 id="tspan144"
                 y="0"
                 x="0 10.723636 16.581587 21.196217">Mass</tspan></text>
<text
               id="text150"
               style="font-variant:normal;font-weight:normal;font-size:11.95500088px;font-family:CMR12;-inkscape-font-specification:CMR12;writing-mode:lr-tb;fill:#231f20;fill-opacity:1;fill-rule:nonzero;stroke:none"
               transform="matrix(1,0,0,-1,-5.0727639e-4,79.502029)"><tspan
                 id="tspan148"
                 y="0"
                 x="0 6.5035205 13.007041 17.561897 20.813656 27.317177">Spring</tspan></text>
<text
               id="text154"
               style="font-variant:normal;font-weight:normal;font-size:11.95500088px;font-family:CMR12;-inkscape-font-specification:CMR12;writing-mode:lr-tb;fill:#231f20;fill-opacity:1;fill-rule:nonzero;stroke:none"
               transform="matrix(1,0,0,-1,58.873085,61.502579)"><tspan
                 id="tspan152"
                 y="0"
                 x="0 8.9423409 14.800291 19.414921 25.918442">Dashp</tspan></text>
<text
               id="text158"
               style="font-variant:normal;font-weight:normal;font-size:11.95500088px;font-family:CMR12;-inkscape-font-specification:CMR12;writing-mode:lr-tb;fill:#231f20;fill-opacity:1;fill-rule:nonzero;stroke:none"
               transform="matrix(1,0,0,-1,91.620232,61.502579)"><tspan
                 id="tspan156"
                 y="0"
                 x="0 5.8579507">ot</tspan></text>
</g></g></g></g></g></svg>