<?xml version="1.0" encoding="UTF-8" standalone="no"?>
<svg
   xmlns:dc="http://purl.org/dc/elements/1.1/"
   xmlns:cc="http://creativecommons.org/ns#"
   xmlns:rdf="http://www.w3.org/1999/02/22-rdf-syntax-ns#"
   xmlns:svg="http://www.w3.org/2000/svg"
   xmlns="http://www.w3.org/2000/svg"
   viewBox="0 0 330.66666 105.33333"
   height="105.33333"
   width="330.66666"
   xml:space="preserve"
   id="svg2"
   version="1.1"><metadata
     id="metadata8"><rdf:RDF><cc:Work
         rdf:about=""><dc:format>image/svg+xml</dc:format><dc:type
           rdf:resource="http://purl.org/dc/dcmitype/StillImage" /></cc:Work></rdf:RDF></metadata><defs
     id="defs6"><clipPath
       id="clipPath24"
       clipPathUnits="userSpaceOnUse"><path
         id="path22"
         d="M 0,0 H 248 V 79 H 0 Z" /></clipPath></defs><g
     transform="matrix(1.3333333,0,0,-1.3333333,0,105.33333)"
     id="g10"><g
       id="g12" /><g
       id="g14" /><g
       id="g16"><g
         id="g18"><g
           clip-path="url(#clipPath24)"
           id="g20"><g
             id="g26" /><g
             id="g28"><path
               id="path30"
               style="fill:none;stroke:#231f20;stroke-width:0.40000001;stroke-linecap:butt;stroke-linejoin:round;stroke-miterlimit:10;stroke-dasharray:none;stroke-opacity:1"
               d="m 187.46101,13.752001 0.361,-0.04 0.319,-0.04 h 0.36 l 0.361,-0.04 0.31901,-0.04 h 0.36099 l 0.32,-0.04 0.359,-0.04 h 0.36101 l 0.31999,-0.04 0.35899,-0.04 h 0.36101 l 0.32001,-0.04 0.35899,-0.04 h 0.36099 l 0.32001,-0.04 0.35899,-0.04 h 0.321 l 0.36,-0.04 0.35901,-0.04 h 0.321 l 0.36,-0.04 h 0.359 l 0.32099,-0.04 0.36001,-0.04 h 0.359 l 0.321,-0.04 h 0.36 l 0.359,-0.04 0.321,-0.04 h 0.36 l 0.319,-0.04 h 0.361 l 0.36001,-0.04 0.31999,-0.04 h 0.36 l 0.35901,-0.04 h 0.321 l 0.36,-0.04 h 0.35899 l 0.321,-0.04 0.36,-0.04 h 0.32001 l 0.35998,-0.04 h 0.36 l 0.319,-0.04 h 0.36101 l 0.36,-0.04 h 0.319 l 0.36099,-0.04 h 0.36001 l 0.319,-0.04 0.361,-0.04 h 0.32 l 0.359,-0.04 h 0.361 l 0.32,-0.04 h 0.359 l 0.361,-0.04 h 0.32 l 0.36,-0.04 h 0.36 l 0.32001,-0.04 h 0.36 l 0.36,-0.04 h 0.31999 l 0.36,-0.04 h 0.32001 l 0.36,-0.04 h 0.35998 l 0.32001,-0.04 h 0.36 l 0.36,-0.04 h 0.31999 l 0.36,-0.04 h 0.36 l 0.32001,-0.04 h 0.67999 l 0.36001,-0.04 h 0.359 l 0.321,-0.04 h 0.36 l 0.359,-0.04 h 0.321 l 0.36,-0.04 h 0.36 l 0.32,-0.04 h 0.68 l 0.36,-0.04 h 0.36 l 0.32001,-0.04 h 0.36 l 0.36,-0.04 h 0.67999 l 0.36,-0.04 h 0.32001 m -68.40102,5.68 0.321,-0.04 0.35901,-0.04 0.36,-0.08 0.321,-0.04 0.35899,-0.04 0.36,-0.04 0.321,-0.04 0.36,-0.04 0.35901,-0.04 0.321,-0.04 0.36,-0.04 0.319,-0.04 0.36099,-0.04 0.35901,-0.04 0.32,-0.04 0.361,-0.08 0.359,-0.04 0.32,-0.04 0.361,-0.04 0.35901,-0.04 0.31999,-0.04 0.361,-0.04 0.32,-0.04 0.36,-0.04 0.35899,-0.04 0.321,-0.04 0.36,-0.04 0.35901,-0.04 0.321,-0.04 0.36,-0.04 0.35899,-0.04 0.321,-0.04 0.36,-0.04 h 0.319 l 0.36,-0.04 0.36101,-0.04 0.31999,-0.04 0.35901,-0.04 0.36099,-0.04 0.32001,-0.04 0.359,-0.04 0.361,-0.04 0.32,-0.04 0.359,-0.04 0.361,-0.04 0.32,-0.04 h 0.359 l 0.321,-0.04 0.72,-0.08 0.32,-0.04 0.36001,-0.04 0.35998,-0.04 0.32001,-0.04 h 0.36 l 0.36,-0.04 0.31999,-0.04 0.36,-0.04 0.32001,-0.04 0.36,-0.04 0.36,-0.04 h 0.31999 l 0.36,-0.04 0.36,-0.04 0.32001,-0.04 0.36,-0.04 h 0.36 l 0.31999,-0.04 0.36001,-0.039 0.319,-0.041 0.361,-0.04 h 0.36 l 0.319,-0.04 0.361,-0.04 0.36,-0.04 0.319,-0.039 h 0.361 l 0.36001,-0.041 0.31999,-0.04 0.36,-0.04 h 0.32001 l 0.36,-0.039 0.35998,-0.041 0.32001,-0.04 h 0.36 l 0.36,-0.039 0.31999,-0.04 0.36,-0.041 h 0.36 l 0.319,-0.04 0.36101,-0.04 0.36,-0.039 h 0.319 l 0.36099,-0.04 0.32001,-0.041 h 0.359 l 0.361,-0.04 0.32,-0.039 h 0.359" /><path
               id="path32"
               style="fill:none;stroke:#231f20;stroke-width:0.40000001;stroke-linecap:butt;stroke-linejoin:round;stroke-miterlimit:10;stroke-dasharray:none;stroke-opacity:1"
               d="m 119.061,23.032001 0.32,-0.08 0.36,-0.08 0.32,-0.04 0.72001,-0.16 0.32,-0.08 0.36,-0.08 0.36,-0.04 0.32,-0.08 0.36,-0.08 0.36,-0.08 0.32,-0.04 0.361,-0.08 0.32,-0.08 0.359,-0.08 0.361,-0.04 0.32,-0.08 0.359,-0.08 0.361,-0.04 0.32,-0.08 0.35899,-0.08 0.361,-0.04 0.319,-0.08 0.36,-0.08 0.321,-0.04 0.35901,-0.08 0.36,-0.04 0.321,-0.08 0.35899,-0.08 0.36001,-0.04 0.32099,-0.08 0.35901,-0.04 0.36,-0.08 0.321,-0.08 0.359,-0.04 0.36,-0.08 0.321,-0.04 0.35899,-0.08 0.32001,-0.04 0.36099,-0.08 0.35901,-0.04 0.321,-0.08 0.36,-0.04 0.35899,-0.08 0.321,-0.04 0.36,-0.08 0.35901,-0.04 0.321,-0.08 0.36,-0.04 0.319,-0.08 0.36099,-0.04 0.36,-0.04 0.319,-0.08 0.36101,-0.04 0.36,-0.08 0.319,-0.04 0.36099,-0.04 0.35901,-0.08 0.32,-0.04 0.361,-0.08 0.32,-0.04 0.359,-0.04 0.361,-0.08 0.32,-0.04 0.359,-0.04 0.36099,-0.08 0.319,-0.04 0.36101,-0.04 0.36,-0.08 0.319,-0.04 0.36099,-0.04 0.36,-0.08 0.319,-0.04 0.36101,-0.04 0.319,-0.04 0.36,-0.08 0.36099,-0.04 0.319,-0.04 0.36,-0.04 0.36101,-0.08 0.31999,-0.04 0.35901,-0.04 0.36099,-0.04 0.32001,-0.08 0.359,-0.04 0.32099,-0.04 0.36001,-0.04 0.359,-0.04 0.321,-0.08 0.36,-0.04 0.359,-0.04 0.321,-0.04 0.36,-0.04 0.36,-0.04 0.32,-0.08 0.35999,-0.04 0.32001,-0.04 0.36,-0.04 0.36,-0.04 M 84.82,32.312 85.181007,32.192001 85.541,32.072002 l 0.319001,-0.12 0.361,-0.120001 0.319999,-0.119999 0.359002,-0.08 0.361,-0.120001 0.319999,-0.119999 0.358994,-0.120001 0.361008,-0.119999 0.319999,-0.08 0.358994,-0.12 0.361007,-0.120001 0.32,-0.119999 0.360001,-0.08 0.36,-0.120001 0.32,-0.119999 0.360001,-0.120001 0.319999,-0.08 0.360001,-0.12 0.360001,-0.119999 0.319999,-0.08 0.360001,-0.120001 0.36,-0.08 0.32,-0.119999 0.360001,-0.120001 0.36,-0.08 0.32,-0.119999 0.358994,-0.08 0.321006,-0.120001 0.360001,-0.08 0.358994,-0.120001 0.321006,-0.119999 0.359993,-0.08 0.358994,-0.08 0.321007,-0.120001 0.36,-0.08 0.358994,-0.119999 0.321007,-0.08 0.36,-0.119999 0.32,-0.08 0.36,-0.120001 0.360001,-0.08 0.320996,-0.08 0.359,-0.119999 0.36,-0.08 0.321,-0.120001 0.35901,-0.08 0.36,-0.08 0.32,-0.12 0.36,-0.08 0.36,-0.08 0.32,-0.08 0.36,-0.119999 0.32,-0.08 0.36,-0.08 0.361,-0.120001 0.319,-0.08 0.36,-0.08 0.361,-0.08 0.319,-0.08 0.35999,-0.12 0.361,-0.08 0.319,-0.08 0.36,-0.08 0.321,-0.08 0.359,-0.08 0.36,-0.119999 0.321,-0.08 0.36,-0.08 0.359,-0.08 0.321,-0.08 0.36,-0.08 0.35901,-0.08 0.32099,-0.08 0.36001,-0.08 0.319,-0.08 0.361,-0.08 0.36,-0.08 0.319,-0.08 0.36,-0.08 0.361,-0.08 0.319,-0.08 0.36,-0.08 0.36,-0.08 0.321,-0.08 0.359,-0.08 0.36,-0.08 0.321,-0.08 0.35899,-0.08 0.32001,-0.08 0.361,-0.08 0.35899,-0.08 0.32,-0.08 0.361,-0.08 0.36,-0.04 0.319,-0.08 0.361,-0.08 0.36,-0.08" /><path
               id="path34"
               style="fill:none;stroke:#231f20;stroke-width:0.40000001;stroke-linecap:butt;stroke-linejoin:round;stroke-miterlimit:10;stroke-dasharray:none;stroke-opacity:1"
               d="m 50.621002,46.112003 0.358998,-0.16 0.321003,-0.159999 0.36,-0.16 0.360001,-0.120003 0.319999,-0.16 0.360001,-0.16 0.359997,-0.16 0.320003,-0.159999 0.359997,-0.16 0.32,-0.16 0.36,-0.16 0.358998,-0.16 0.321003,-0.16 0.358997,-0.159999 0.360001,-0.119999 0.321003,-0.16 0.36,-0.16 0.358998,-0.160004 0.321003,-0.16 0.36,-0.159999 0.318997,-0.16 0.361003,-0.119999 0.359997,-0.16 0.319001,-0.16 0.721,-0.32 0.318997,-0.119999 0.361004,-0.159999 0.36,-0.16 L 60.98,41.472 l 0.361003,-0.119999 0.360001,-0.16 0.32,-0.16 0.36,-0.119998 0.318997,-0.16 0.361004,-0.16 0.359996,-0.120003 0.318997,-0.16 0.361008,-0.16 0.36,-0.119999 0.318993,-0.159999 0.361007,-0.16 0.359993,-0.119999 0.319001,-0.16 0.361,-0.120003 0.319999,-0.16 0.359002,-0.119999 0.361,-0.159999 0.319999,-0.16 0.359002,-0.119999 0.361,-0.16 0.319999,-0.120003 0.358994,-0.16 0.361008,-0.119999 0.318992,-0.119998 0.360001,-0.16 0.321007,-0.120003 0.358993,-0.16 0.361008,-0.119999 0.319999,-0.16 0.359002,-0.119999 0.361,-0.119999 0.319999,-0.159999 0.358994,-0.120003 0.361008,-0.119999 0.319999,-0.16 0.358994,-0.119999 0.321007,-0.120003 0.36,-0.159999 0.358994,-0.119999 0.321006,-0.119999 0.360001,-0.120003 0.358994,-0.16 0.321006,-0.119999 0.359993,-0.119999 0.359002,-0.119999 0.320999,-0.120002 0.36,-0.16 0.360001,-0.119999 0.32,-0.119999 0.36,-0.120003 0.318993,-0.119999 0.361008,-0.119999 0.358993,-0.119999 0.32,-0.120002 0.361007,-0.119999 0.359002,-0.16 0.320999,-0.119999 0.36,-0.120003 0.358994,-0.119999 0.321007,-0.119999 0.36,-0.119999 0.32,-0.120002 0.360001,-0.119999 0.36,-0.119999 0.318993,-0.120003 0.361007,-0.08 0.360001,-0.119999 L 84.82,32.312 m -68.398999,26.520005 0.318999,-0.04 0.361002,-0.04 0.358997,-0.04 0.32,-0.04 0.361002,-0.04 0.358999,-0.04 0.32,-0.08 0.361002,-0.04 0.358997,-0.08 0.32,-0.04 0.361002,-0.08 0.318998,-0.08 0.360001,-0.08 0.361002,-0.08 0.318998,-0.08 0.361002,-0.08 0.359999,-0.08 0.318998,-0.08 0.360001,-0.119999 0.361002,-0.08 0.318998,-0.08 0.361002,-0.119999 0.359999,-0.08 0.319,-0.119999 0.361,-0.119999 0.318998,-0.08 L 25.74,56.79201 26.101002,56.672007 26.421001,56.552008 26.779999,56.432009 27.141001,56.31201 27.461,56.192001 27.82,56.072002 28.181002,55.952003 28.5,55.832005 l 0.359999,-0.120003 0.321003,-0.119999 0.36,-0.16 0.358998,-0.119999 0.321001,-0.120003 0.358999,-0.16 0.361002,-0.119998 0.32,-0.119999 0.358997,-0.16 0.360001,-0.120003 0.319999,-0.16 0.360001,-0.119999 0.321003,-0.16 0.358997,-0.159999 0.360001,-0.119999 0.320999,-0.16 0.359001,-0.16 0.359997,-0.120003 0.321003,-0.16 0.36,-0.16 0.358998,-0.119998 0.321003,-0.16 0.358997,-0.16 0.360001,-0.16 0.321003,-0.16 0.358997,-0.119999 0.32,-0.160003 0.361004,-0.16 0.359996,-0.16 0.319001,-0.16 0.361,-0.16 0.36,-0.16 0.319001,-0.119999 0.361,-0.159999 0.358997,-0.16 0.32,-0.16 0.361004,-0.16 0.319999,-0.16 0.360001,-0.16 0.358997,-0.16 0.321003,-0.159999 0.360001,-0.16 0.358993,-0.16 0.321003,-0.16 0.360001,-0.160004 0.36,-0.159999 0.318997,-0.16 0.361004,-0.16 0.319999,-0.16 0.358998,-0.16 0.361004,-0.16 0.318996,-0.16 0.360001,-0.159999 0.361004,-0.16 0.319999,-0.16 0.358998,-0.16 0.361,-0.16 0.320003,-0.16 0.358998,-0.159999 0.361,-0.16 0.319999,-0.16 0.358998,-0.16 0.321003,-0.16 0.36,-0.16" /><path
               id="path36"
               style="fill:none;stroke:#231f20;stroke-width:0.40000001;stroke-linecap:butt;stroke-linejoin:round;stroke-miterlimit:10;stroke-dasharray:none;stroke-opacity:1"
               d="m 14.341001,58.912003 h 0.68 l 0.36,-0.04 H 15.74 l 0.321001,-0.04 h 0.36" /><path
               id="path38"
               style="fill:#231f20;fill-opacity:1;fill-rule:nonzero;stroke:none"
               d="M 7.3599997,5.9720001 H 232.48201" /><path
               id="path40"
               style="fill:none;stroke:#231f20;stroke-width:0.40000001;stroke-linecap:butt;stroke-linejoin:round;stroke-miterlimit:4;stroke-dasharray:none;stroke-opacity:1"
               d="M 7.3599997,5.9720001 H 232.48201" /><path
               id="path42"
               style="fill:#231f20;fill-opacity:1;fill-rule:nonzero;stroke:none"
               d="m 231.80801,5.9710002 -0.789,1.2969999 0.044,0.029 2.11501,-0.8390002 c 0.73801,-0.1630001 1.474,-0.3249998 2.211,-0.487 -0.737,-0.1619997 -1.47299,-0.3239999 -2.211,-0.4860001 l -2.11501,-0.8399996 -0.044,0.022 0.789,1.3039999" /><path
               id="path44"
               style="fill:none;stroke:#231f20;stroke-width:0.60000002;stroke-linecap:butt;stroke-linejoin:miter;stroke-miterlimit:4;stroke-dasharray:none;stroke-opacity:1"
               d="m 231.80801,5.9710002 -0.789,1.2969999 0.044,0.029 2.11501,-0.8390002 c 0.73801,-0.1630001 1.474,-0.3249998 2.211,-0.487 -0.737,-0.1619997 -1.47299,-0.3239999 -2.211,-0.4860001 l -2.11501,-0.8399996 -0.044,0.022 z" /><path
               id="path46"
               style="fill:#231f20;fill-opacity:1;fill-rule:nonzero;stroke:none"
               d="M 14.081,1.6520001 V 74.132004" /><path
               id="path48"
               style="fill:none;stroke:#231f20;stroke-width:0.40000001;stroke-linecap:butt;stroke-linejoin:round;stroke-miterlimit:4;stroke-dasharray:none;stroke-opacity:1"
               d="M 14.081,1.6520001 V 74.132004" /><path
               id="path50"
               style="fill:#231f20;fill-opacity:1;fill-rule:nonzero;stroke:none"
               d="m 14.081,73.422005 -1.297,-0.788002 -0.03,0.044 0.84,2.115006 c 0.162,0.736992 0.323999,1.473999 0.486999,2.209999 0.162001,-0.736 0.323,-1.473007 0.486,-2.209999 l 0.840001,-2.115006 -0.022,-0.044 -1.304001,0.788002" /><text
               id="text54"
               style="font-variant:normal;font-weight:normal;font-size:11.95500088px;font-family:CMMI12;-inkscape-font-specification:CMMI12;writing-mode:lr-tb;fill:#231f20;fill-opacity:1;fill-rule:nonzero;stroke:none"
               transform="matrix(1,0,0,-1,243,2.9888999)"><tspan
                 id="tspan52"
                 y="0"
                 x="0">t</tspan></text>
<text
               id="text58"
               style="font-variant:normal;font-weight:normal;font-size:11.95500088px;font-family:CMMI12;-inkscape-font-specification:CMMI12;writing-mode:lr-tb;fill:#231f20;fill-opacity:1;fill-rule:nonzero;stroke:none"
               transform="matrix(1,0,0,-1,2.7816763e-4,55.989006)"><tspan
                 id="tspan56"
                 y="0"
                 x="0">x</tspan></text>
<text
               id="text62"
               style="font-variant:normal;font-weight:normal;font-size:7.96999979px;font-family:CMR8;-inkscape-font-specification:CMR8;writing-mode:lr-tb;fill:#231f20;fill-opacity:1;fill-rule:nonzero;stroke:none"
               transform="matrix(1,0,0,-1,6.6518998,54.1959)"><tspan
                 id="tspan60"
                 y="0"
                 x="0">0</tspan></text>
<text
               id="text66"
               style="font-variant:normal;font-weight:normal;font-size:11.95500088px;font-family:CMMI12;-inkscape-font-specification:CMMI12;writing-mode:lr-tb;fill:#231f20;fill-opacity:1;fill-rule:nonzero;stroke:none"
               transform="matrix(1,0,0,-1,19.1768,70.000099)"><tspan
                 id="tspan64"
                 y="0"
                 x="0">x</tspan></text>
</g></g></g></g></g></svg>