<?xml version="1.0" encoding="UTF-8" standalone="no"?>
<svg
   xmlns:dc="http://purl.org/dc/elements/1.1/"
   xmlns:cc="http://creativecommons.org/ns#"
   xmlns:rdf="http://www.w3.org/1999/02/22-rdf-syntax-ns#"
   xmlns:svg="http://www.w3.org/2000/svg"
   xmlns="http://www.w3.org/2000/svg"
   viewBox="0 0 458.66666 49.333332"
   height="49.333332"
   width="458.66666"
   xml:space="preserve"
   id="svg2"
   version="1.1"><metadata
     id="metadata8"><rdf:RDF><cc:Work
         rdf:about=""><dc:format>image/svg+xml</dc:format><dc:type
           rdf:resource="http://purl.org/dc/dcmitype/StillImage" /></cc:Work></rdf:RDF></metadata><defs
     id="defs6"><clipPath
       id="clipPath24"
       clipPathUnits="userSpaceOnUse"><path
         id="path22"
         d="M 0,0 H 344 V 37 H 0 Z" /></clipPath><clipPath
       id="clipPath56"
       clipPathUnits="userSpaceOnUse"><path
         id="path54"
         d="M 0.06,0.05999756 H 343.987 V 36.743 H 0.06 Z" /></clipPath></defs><g
     transform="matrix(1.3333333,0,0,-1.3333333,0,49.333333)"
     id="g10"><g
       id="g12" /><g
       id="g14" /><g
       id="g16"><g
         id="g18"><g
           clip-path="url(#clipPath24)"
           id="g20"><g
             id="g26" /><g
             id="g28"><text
               id="text32"
               style="font-variant:normal;font-weight:normal;font-size:11.15800095px;font-family:CMMI10;-inkscape-font-specification:CMMI10;writing-mode:lr-tb;fill:#231f20;fill-opacity:1;fill-rule:nonzero;stroke:none"
               transform="matrix(1,0,0,-1,337.61603,21.445299)"><tspan
                 id="tspan30"
                 y="0"
                 x="0">x</tspan></text>
<text
               id="text36"
               style="font-variant:normal;font-weight:normal;font-size:11.15800095px;font-family:CMR10;-inkscape-font-specification:CMR10;writing-mode:lr-tb;fill:#231f20;fill-opacity:1;fill-rule:nonzero;stroke:none"
               transform="matrix(1,0,0,-1,254.72324,3.7587526)"><tspan
                 id="tspan34"
                 y="0"
                 x="0 6.1926904 9.2834568">div</tspan></text>
<text
               id="text40"
               style="font-variant:normal;font-weight:normal;font-size:11.15800095px;font-family:CMR10;-inkscape-font-specification:CMR10;writing-mode:lr-tb;fill:#231f20;fill-opacity:1;fill-rule:nonzero;stroke:none"
               transform="matrix(1,0,0,-1,269.60132,3.7587526)"><tspan
                 id="tspan38"
                 y="0"
                 x="0 4.9541526 9.3169308 14.895931 19.850084">ergen</tspan></text>
<text
               id="text44"
               style="font-variant:normal;font-weight:normal;font-size:11.15800095px;font-family:CMR10;-inkscape-font-specification:CMR10;writing-mode:lr-tb;fill:#231f20;fill-opacity:1;fill-rule:nonzero;stroke:none"
               transform="matrix(1,0,0,-1,295.35626,3.7587526)"><tspan
                 id="tspan42"
                 y="0"
                 x="0">t</tspan></text>
<text
               id="text48"
               style="font-variant:normal;font-weight:normal;font-size:11.15800095px;font-family:CMR10;-inkscape-font-specification:CMR10;writing-mode:lr-tb;fill:#231f20;fill-opacity:1;fill-rule:nonzero;stroke:none"
               transform="matrix(1,0,0,-1,146.66246,28.374418)"><tspan
                 id="tspan46"
                 y="0"
                 x="0">0</tspan></text>
</g><g
             id="g50"><g
               clip-path="url(#clipPath56)"
               id="g52"><path
                 id="path58"
                 style="fill:none;stroke:#231f20;stroke-width:0.34999999;stroke-linecap:butt;stroke-linejoin:miter;stroke-miterlimit:4;stroke-dasharray:none;stroke-opacity:1"
                 d="m 157.09201,18.729 c 0.029,0.01 0.067,0.016 0.11499,0.02 m 79.96501,-0.016 c 0.121,-0.029 0.121,-0.09 0.121,-0.218001 0,-0.167 0,-0.19 -0.36799,-0.435001 -1.97502,-1.382999 -5.15503,-2.497999 -10.009,-2.497999 h -19.88401 c -0.36799,0 -0.43499,0 -1.205,-0.044 -4.184,-0.224 -6.595,-1.294001 -7.83301,-2.041 C 197.72601,13.34 197.69202,13.33 197.12401,13.33 c -0.536,0 -0.56999,0.01 -0.871,0.189001 -2.109,1.270999 -5.155,1.950998 -8.67,2.052 -0.368,0.011 -2.109,0.011 -3.146,0.011 h -15.466 c -2.24201,0 -2.54401,0 -3.213,0.033 -4.084,0.234998 -6.729,1.327 -8.369,2.431 -0.402,0.289999 -0.402,0.312001 -0.402,0.469 M 156.67401,18.34 c -0.081,-0.061 -0.259,-0.127998 -0.649,-0.261 -3.851,-1.382999 -10.052,-2.498 -19.51601,-2.498 H 97.736008 c -0.717003,0 -0.848,0 -2.349007,-0.045 C 87.228004,15.313 82.528008,14.243 80.113007,13.495999 79.591003,13.339 79.525002,13.328 78.416,13.328 c -1.043998,0 -1.109993,0.011 -1.696998,0.19 -4.112999,1.271 -10.052002,1.951 -16.905998,2.051999 -0.718003,0.011 -4.112,0.011 -6.135003,0.011 h -30.156 c -4.374,0 -4.961,0 -6.266,0.033 -7.9640002,0.234001 -13.1200008,1.327 -16.31800098,2.431 -0.78400001,0.290001 -0.78400001,0.312 -0.78400001,0.469" /><path
                 id="path60"
                 style="fill:none;stroke:#231f20;stroke-width:0.75800002;stroke-linecap:butt;stroke-linejoin:round;stroke-miterlimit:10;stroke-dasharray:none;stroke-opacity:1"
                 d="M 2.1620002,25.396002 H 331.16101" /></g></g><g
             id="g62"><path
               id="path64"
               style="fill:#231f20;fill-opacity:1;fill-rule:nonzero;stroke:none"
               d="m 330.388,25.396002 -1.66098,2.732 0.093,0.062 4.45501,-1.768998 c 1.55201,-0.341001 3.10401,-0.683 4.65699,-1.024999 -1.55298,-0.341002 -3.10498,-0.683001 -4.65699,-1.024 l -4.45501,-1.770001 -0.093,0.047 1.66098,2.747002" /><path
               id="path66"
               style="fill:#c8c7c7;fill-opacity:1;fill-rule:nonzero;stroke:none"
               d="m 156.17601,27.715002 h 80.26701 v -4.434 h -80.26701 z" /><path
               id="path68"
               style="fill:none;stroke:#c8c7c7;stroke-width:0.75800002;stroke-linecap:butt;stroke-linejoin:round;stroke-miterlimit:4;stroke-dasharray:none;stroke-opacity:1"
               d="m 156.17601,23.282001 h 80.26701 v 4.434001 h -80.26701 z" /><path
               id="path70"
               style="fill:#231f20;fill-opacity:1;fill-rule:nonzero;stroke:none"
               d="m 156.235,23.912001 c 0.82001,0 1.485,0.665001 1.485,1.484001 0,0.820999 -0.66499,1.484999 -1.485,1.484999 -0.81999,0 -1.485,-0.664 -1.485,-1.484999 0,-0.819 0.66501,-1.484001 1.485,-1.484001" /><path
               id="path72"
               style="fill:none;stroke:#231f20;stroke-width:0.75800002;stroke-linecap:butt;stroke-linejoin:round;stroke-miterlimit:4;stroke-dasharray:none;stroke-opacity:1"
               d="m 156.235,23.912001 c 0.82001,0 1.485,0.665001 1.485,1.484001 0,0.820999 -0.66499,1.484999 -1.485,1.484999 -0.81999,0 -1.485,-0.664 -1.485,-1.484999 0,-0.819 0.66501,-1.484001 1.485,-1.484001 z" /><path
               id="path74"
               style="fill:#231f20;fill-opacity:1;fill-rule:nonzero;stroke:none"
               d="m 237.05501,23.853001 c 0.821,0 1.48498,0.665001 1.48498,1.485 0,0.82 -0.66398,1.485001 -1.48498,1.485001 -0.81999,0 -1.48502,-0.665001 -1.48502,-1.485001 0,-0.819999 0.66503,-1.485 1.48502,-1.485" /><path
               id="path76"
               style="fill:none;stroke:#231f20;stroke-width:0.75800002;stroke-linecap:butt;stroke-linejoin:round;stroke-miterlimit:4;stroke-dasharray:none;stroke-opacity:1"
               d="m 237.05501,23.853001 c 0.821,0 1.48498,0.665001 1.48498,1.485 0,0.82 -0.66398,1.485001 -1.48498,1.485001 -0.81999,0 -1.48502,-0.665001 -1.48502,-1.485001 0,-0.819999 0.66503,-1.485 1.48502,-1.485 z" /><text
               id="text80"
               style="font-variant:normal;font-weight:normal;font-size:11.15800095px;font-family:CMR10;-inkscape-font-specification:CMR10;writing-mode:lr-tb;fill:#231f20;fill-opacity:1;fill-rule:nonzero;stroke:none"
               transform="matrix(1,0,0,-1,55.924797,3.2480998)"><tspan
                 id="tspan78"
                 y="0"
                 x="0 6.1926904 9.2834568">div</tspan></text>
<text
               id="text84"
               style="font-variant:normal;font-weight:normal;font-size:11.15800095px;font-family:CMR10;-inkscape-font-specification:CMR10;writing-mode:lr-tb;fill:#231f20;fill-opacity:1;fill-rule:nonzero;stroke:none"
               transform="matrix(1,0,0,-1,70.802872,3.2480998)"><tspan
                 id="tspan82"
                 y="0"
                 x="0 4.9541526 9.3169308 14.895931 19.850084">ergen</tspan></text>
<text
               id="text88"
               style="font-variant:normal;font-weight:normal;font-size:11.15800095px;font-family:CMR10;-inkscape-font-specification:CMR10;writing-mode:lr-tb;fill:#231f20;fill-opacity:1;fill-rule:nonzero;stroke:none"
               transform="matrix(1,0,0,-1,96.558891,3.2480998)"><tspan
                 id="tspan86"
                 y="0"
                 x="0">t</tspan></text>
<path
               id="path90"
               style="fill:#231f20;fill-opacity:1;fill-rule:nonzero;stroke:none"
               d="m 155.46201,20.497002 v 10.339" /><path
               id="path92"
               style="fill:none;stroke:#231f20;stroke-width:0.69999999;stroke-linecap:butt;stroke-linejoin:miter;stroke-miterlimit:4;stroke-dasharray:none;stroke-opacity:1"
               d="m 155.46201,20.497002 v 10.339" /><text
               id="text96"
               style="font-variant:normal;font-weight:normal;font-size:11.15800095px;font-family:CMR10;-inkscape-font-specification:CMR10;writing-mode:lr-tb;fill:#231f20;fill-opacity:1;fill-rule:nonzero;stroke:none"
               transform="matrix(1,0,0,-1,239.02901,27.8692)"><tspan
                 id="tspan94"
                 y="0"
                 x="0">2</tspan></text>
<text
               id="text100"
               style="font-variant:normal;font-weight:normal;font-size:11.15800095px;font-family:CMR10;-inkscape-font-specification:CMR10;writing-mode:lr-tb;fill:#231f20;fill-opacity:1;fill-rule:nonzero;stroke:none"
               transform="matrix(1,0,0,-1,169.34729,2.7893612)"><tspan
                 id="tspan98"
                 y="0"
                 x="0 4.9541526 10.533153">con</tspan></text>
<text
               id="text104"
               style="font-variant:normal;font-weight:normal;font-size:11.15800095px;font-family:CMR10;-inkscape-font-specification:CMR10;writing-mode:lr-tb;fill:#231f20;fill-opacity:1;fill-rule:nonzero;stroke:none"
               transform="matrix(1,0,0,-1,185.77408,2.7893612)"><tspan
                 id="tspan102"
                 y="0"
                 x="0">v</tspan></text>
<text
               id="text108"
               style="font-variant:normal;font-weight:normal;font-size:11.15800095px;font-family:CMR10;-inkscape-font-specification:CMR10;writing-mode:lr-tb;fill:#231f20;fill-opacity:1;fill-rule:nonzero;stroke:none"
               transform="matrix(1,0,0,-1,191.35307,2.7893612)"><tspan
                 id="tspan106"
                 y="0"
                 x="0 4.9541526 9.3169308 14.895931 19.850084 26.042774">ergent</tspan></text>
<path
               id="path110"
               style="fill:none;stroke:#231f20;stroke-width:0.34999999;stroke-linecap:butt;stroke-linejoin:miter;stroke-miterlimit:4;stroke-dasharray:none;stroke-opacity:1"
               d="m 332.50101,17.845001 c 0.40802,-0.012 0.40802,-0.058 0.40802,-0.241001 0,-0.167 0,-0.189999 -0.43003,-0.434999 -2.31097,-1.382 -6.03198,-2.498001 -11.70999,-2.498001 H 297.505 c -0.43099,0 -0.509,0 -1.41,-0.044 -4.89499,-0.223 -7.715,-1.294 -9.164,-2.041 -0.31299,-0.156001 -0.35199,-0.166999 -1.01798,-0.166999 -0.62701,0 -0.66601,0.011 -1.018,0.189 -2.46802,1.271 -6.03201,1.951998 -10.14401,2.051999 -0.431,0.011 -2.46698,0.011 -3.68201,0.011 h -18.09299 c -2.624,0 -2.97601,0 -3.75999,0.034 -4.778,0.234 -7.87201,1.327 -9.791,2.431001 -0.47,0.289999 -0.47,0.311998 -0.47,0.467998" /></g></g></g></g></g></svg>