<?xml version="1.0" encoding="UTF-8" standalone="no"?>
<svg
   xmlns:dc="http://purl.org/dc/elements/1.1/"
   xmlns:cc="http://creativecommons.org/ns#"
   xmlns:rdf="http://www.w3.org/1999/02/22-rdf-syntax-ns#"
   xmlns:svg="http://www.w3.org/2000/svg"
   xmlns="http://www.w3.org/2000/svg"
   viewBox="0 0 204 165.33333"
   height="165.33333"
   width="204"
   xml:space="preserve"
   id="svg2"
   version="1.1"><metadata
     id="metadata8"><rdf:RDF><cc:Work
         rdf:about=""><dc:format>image/svg+xml</dc:format><dc:type
           rdf:resource="http://purl.org/dc/dcmitype/StillImage" /></cc:Work></rdf:RDF></metadata><defs
     id="defs6"><clipPath
       id="clipPath24"
       clipPathUnits="userSpaceOnUse"><path
         id="path22"
         d="M 0,0 H 153 V 124 H 0 Z" /></clipPath><clipPath
       id="clipPath38"
       clipPathUnits="userSpaceOnUse"><path
         id="path36"
         d="M 0.06,0 H 152.56201 V 123.91501 H 0.06 Z" /></clipPath><clipPath
       id="clipPath56"
       clipPathUnits="userSpaceOnUse"><path
         id="path54"
         d="M 0.06,0 H 152.56201 V 123.91501 H 0.06 Z" /></clipPath><clipPath
       id="clipPath72"
       clipPathUnits="userSpaceOnUse"><path
         id="path70"
         d="M 0.06,0 H 152.56201 V 123.91501 H 0.06 Z" /></clipPath><clipPath
       id="clipPath88"
       clipPathUnits="userSpaceOnUse"><path
         id="path86"
         d="M 0.06,0 H 152.56201 V 123.91501 H 0.06 Z" /></clipPath><clipPath
       id="clipPath134"
       clipPathUnits="userSpaceOnUse"><path
         id="path132"
         d="M 0.06,0 H 152.56201 V 123.91501 H 0.06 Z" /></clipPath><clipPath
       id="clipPath150"
       clipPathUnits="userSpaceOnUse"><path
         id="path148"
         d="M 20.475,54.715004 H 147.58402 V 122.32301 H 20.475 Z" /></clipPath></defs><g
     transform="matrix(1.3333333,0,0,-1.3333333,0,165.33333)"
     id="g10"><g
       id="g12" /><g
       id="g14" /><g
       id="g16"><g
         id="g18"><g
           clip-path="url(#clipPath24)"
           id="g20"><g
             id="g26" /><g
             id="g28"><path
               id="path30"
               style="fill:#ffffff;fill-opacity:1;fill-rule:nonzero;stroke:none"
               d="M 17.967001,123.66501 H 150.03501 V 19.65502 H 17.967001 Z" /></g><g
             id="g32"><g
               clip-path="url(#clipPath38)"
               id="g34"><path
                 id="path40"
                 style="fill:none;stroke:#ffffff;stroke-width:0.5;stroke-linecap:butt;stroke-linejoin:round;stroke-miterlimit:10;stroke-dasharray:none;stroke-opacity:1"
                 d="M 17.967001,19.655001 V 123.66501 H 150.035 V 19.655001 H 17.967001" /><path
                 id="path42"
                 style="fill:none;stroke:#231f20;stroke-width:0.5;stroke-linecap:butt;stroke-linejoin:round;stroke-miterlimit:10;stroke-dasharray:none;stroke-opacity:1"
                 d="M 17.967001,123.66501 H 150.035 M 17.967001,19.655001 H 150.035 m 0,0 V 123.66501 M 17.967001,19.655001 V 123.66501 m 0,-104.010009 H 150.035 m -132.067999,0 V 123.66501 M 44.684002,19.655001 v 1.343 m 0,102.667009 V 122.382" /></g></g><g
             id="g44"><text
               id="text48"
               style="font-variant:normal;font-weight:normal;font-size:10px;font-family:Helvetica;-inkscape-font-specification:Helvetica;writing-mode:lr-tb;fill:#231f20;fill-opacity:1;fill-rule:nonzero;stroke:none"
               transform="matrix(1,0,0,-1,42.0835,10.286)"><tspan
                 id="tspan46"
                 y="0"
                 x="0">2</tspan></text>
</g><g
             id="g50"><g
               clip-path="url(#clipPath56)"
               id="g52"><path
                 id="path58"
                 style="fill:none;stroke:#231f20;stroke-width:0.5;stroke-linecap:butt;stroke-linejoin:round;stroke-miterlimit:10;stroke-dasharray:none;stroke-opacity:1"
                 d="m 76.125,19.655001 v 1.343 m 0,102.667009 V 122.382" /></g></g><g
             id="g60"><text
               id="text64"
               style="font-variant:normal;font-weight:normal;font-size:10px;font-family:Helvetica;-inkscape-font-specification:Helvetica;writing-mode:lr-tb;fill:#231f20;fill-opacity:1;fill-rule:nonzero;stroke:none"
               transform="matrix(1,0,0,-1,73,10.286)"><tspan
                 id="tspan62"
                 y="0"
                 x="0">4</tspan></text>
</g><g
             id="g66"><g
               clip-path="url(#clipPath72)"
               id="g68"><path
                 id="path74"
                 style="fill:none;stroke:#231f20;stroke-width:0.5;stroke-linecap:butt;stroke-linejoin:round;stroke-miterlimit:10;stroke-dasharray:none;stroke-opacity:1"
                 d="m 107.567,19.655001 v 1.343 m 0,102.667009 V 122.382" /></g></g><g
             id="g76"><text
               id="text80"
               style="font-variant:normal;font-weight:normal;font-size:10px;font-family:Helvetica;-inkscape-font-specification:Helvetica;writing-mode:lr-tb;fill:#231f20;fill-opacity:1;fill-rule:nonzero;stroke:none"
               transform="matrix(1,0,0,-1,104.91601,10.286)"><tspan
                 id="tspan78"
                 y="0"
                 x="0">6</tspan></text>
</g><g
             id="g82"><g
               clip-path="url(#clipPath88)"
               id="g84"><path
                 id="path90"
                 style="fill:none;stroke:#231f20;stroke-width:0.5;stroke-linecap:butt;stroke-linejoin:round;stroke-miterlimit:10;stroke-dasharray:none;stroke-opacity:1"
                 d="m 139.00999,19.655001 v 1.343 m 0,102.667009 V 122.382" /></g></g><g
             id="g92"><text
               id="text96"
               style="font-variant:normal;font-weight:normal;font-size:10px;font-family:Helvetica;-inkscape-font-specification:Helvetica;writing-mode:lr-tb;fill:#231f20;fill-opacity:1;fill-rule:nonzero;stroke:none"
               transform="matrix(1,0,0,-1,147,9.9520006)"><tspan
                 id="tspan94"
                 y="0"
                 x="0">8</tspan></text>
<path
               id="path98"
               style="fill:none;stroke:#231f20;stroke-width:0.5;stroke-linecap:butt;stroke-linejoin:round;stroke-miterlimit:10;stroke-dasharray:none;stroke-opacity:1"
               d="M 17.967001,29.573002 H 19.309 m 130.726,0 h -1.343" /><text
               id="text102"
               style="font-variant:normal;font-weight:normal;font-size:10px;font-family:Helvetica;-inkscape-font-specification:Helvetica;writing-mode:lr-tb;fill:#231f20;fill-opacity:1;fill-rule:nonzero;stroke:none"
               transform="matrix(1,0,0,-1,10,25.952099)"><tspan
                 id="tspan100"
                 y="0"
                 x="0">0</tspan></text>
<path
               id="path104"
               style="fill:none;stroke:#231f20;stroke-width:0.5;stroke-linecap:butt;stroke-linejoin:round;stroke-miterlimit:10;stroke-dasharray:none;stroke-opacity:1"
               d="M 17.967001,49.405003 H 19.309 m 130.726,0 h -1.343" /><text
               id="text108"
               style="font-variant:normal;font-weight:normal;font-size:10px;font-family:Helvetica;-inkscape-font-specification:Helvetica;writing-mode:lr-tb;fill:#231f20;fill-opacity:1;fill-rule:nonzero;stroke:none"
               transform="matrix(1,0,0,-1,1,47.202099)"><tspan
                 id="tspan106"
                 y="0"
                 x="0 5.5599999 8.3400002">0.2</tspan></text>
<path
               id="path110"
               style="fill:none;stroke:#231f20;stroke-width:0.5;stroke-linecap:butt;stroke-linejoin:round;stroke-miterlimit:10;stroke-dasharray:none;stroke-opacity:1"
               d="M 17.967001,69.239006 H 19.309 m 130.726,0 h -1.343" /><text
               id="text114"
               style="font-variant:normal;font-weight:normal;font-size:10px;font-family:Helvetica;-inkscape-font-specification:Helvetica;writing-mode:lr-tb;fill:#231f20;fill-opacity:1;fill-rule:nonzero;stroke:none"
               transform="matrix(1,0,0,-1,1,66.535095)"><tspan
                 id="tspan112"
                 y="0"
                 x="0 5.5599999 8.3400002">0.4</tspan></text>
<path
               id="path116"
               style="fill:none;stroke:#231f20;stroke-width:0.5;stroke-linecap:butt;stroke-linejoin:round;stroke-miterlimit:10;stroke-dasharray:none;stroke-opacity:1"
               d="M 17.967001,89.015007 H 19.309 m 130.726,0 h -1.343" /><text
               id="text120"
               style="font-variant:normal;font-weight:normal;font-size:10px;font-family:Helvetica;-inkscape-font-specification:Helvetica;writing-mode:lr-tb;fill:#231f20;fill-opacity:1;fill-rule:nonzero;stroke:none"
               transform="matrix(1,0,0,-1,0,85.785095)"><tspan
                 id="tspan118"
                 y="0"
                 x="0 5.5599999 8.3400002">0.6</tspan></text>
<path
               id="path122"
               style="fill:none;stroke:#231f20;stroke-width:0.5;stroke-linecap:butt;stroke-linejoin:round;stroke-miterlimit:10;stroke-dasharray:none;stroke-opacity:1"
               d="M 17.967001,108.84801 H 19.309 m 130.726,0 h -1.343" /><text
               id="text126"
               style="font-variant:normal;font-weight:normal;font-size:10px;font-family:Helvetica;-inkscape-font-specification:Helvetica;writing-mode:lr-tb;fill:#231f20;fill-opacity:1;fill-rule:nonzero;stroke:none"
               transform="matrix(1,0,0,-1,0,106.1181)"><tspan
                 id="tspan124"
                 y="0"
                 x="0 5.5599999 8.3400002">0.8</tspan></text>
</g><g
             id="g128"><g
               clip-path="url(#clipPath134)"
               id="g130"><path
                 id="path136"
                 style="fill:none;stroke:#231f20;stroke-width:0.5;stroke-linecap:butt;stroke-linejoin:round;stroke-miterlimit:10;stroke-dasharray:none;stroke-opacity:1"
                 d="M 17.967001,123.66501 H 150.035 M 17.967001,19.655001 H 150.035 m 0,0 V 123.66501 M 17.967001,19.655001 V 123.66501 m 73.908007,-60.375013 0.465995,-0.290993 0.468003,-0.293003 0.465996,-0.232998 0.467002,-0.234001 0.525002,-0.232998 0.466995,-0.175003 0.466004,-0.175998 0.467002,-0.174 0.466996,-0.117001 0.465995,-0.174999 0.526009,-0.058 0.464996,-0.116001 0.468003,-0.059 0.465996,-0.058 0.467002,-0.058 0.467003,-0.06 H 100.451 l 0.46601,0.06 h 0.46799 l 0.46601,0.058 0.46599,0.058 0.468,0.117001 0.525,0.058 0.46601,0.118 0.46599,0.174 0.46701,0.116993 0.46699,0.175007 0.46601,0.115997 0.525,0.175003 0.46799,0.232998 0.46601,0.176003 0.46599,0.232998 0.468,0.233001 0.46601,0.232998 0.525,0.291001 0.46599,0.234996 0.46701,0.291005 0.46699,0.291996 0.46601,0.291999 0.467,0.349007 0.52599,0.291 0.93201,0.700997 0.46799,0.349998 0.46601,0.408005 0.46599,0.350998 0.525,0.406998 0.46701,0.407997 0.933,0.818001 0.467,0.408004 0.46699,0.466996 0.52501,0.408004 0.466,0.466996 0.46799,0.466003 0.46601,0.465996 0.46599,0.467003 0.46801,0.468002 0.524,0.524002 0.46699,0.526001 0.46601,0.465996 0.93399,1.048996 0.46601,0.526008 0.525,0.524994 0.46799,0.584 0.46601,0.524002 0.46599,0.583 0.46801,0.526001 0.466,0.583 0.46599,0.584 0.52501,0.583 0.467,0.583 0.933,1.167 0.46798,0.583 0.46602,0.584 0.525,0.640999 0.466,0.583 0.468,0.583 0.46599,0.642998 0.466,0.641006 0.467,0.583992 0.52501,0.64 0.46699,0.643005 0.46601,0.583 0.46798,0.641999 0.46602,0.641998 0.46599,0.641006 0.52501,0.641999 0.468,0.641998 0.46599,0.640999 0.466,0.643005 0.93401,1.280991 0.52499,0.643005 0.46601,0.640999 0.46798,0.641998" /></g></g><g
             id="g138"><text
               id="text142"
               style="font-style:italic;font-variant:normal;font-size:12px;font-family:Times;-inkscape-font-specification:Times-Italic;writing-mode:lr-tb;fill:#231f20;fill-opacity:1;fill-rule:nonzero;stroke:none"
               transform="matrix(1,0,0,-1,88,4.9520001)"><tspan
                 id="tspan140"
                 y="0"
                 x="0">x</tspan></text>
</g><g
             id="g144"><g
               clip-path="url(#clipPath150)"
               id="g146"><path
                 id="path152"
                 style="fill:none;stroke:#231f20;stroke-width:2;stroke-linecap:butt;stroke-linejoin:round;stroke-miterlimit:10;stroke-dasharray:none;stroke-opacity:1"
                 d="m 26.542002,116.257 4.899999,-4.901 m 0,4.901 -4.899999,-4.901 m 31.441999,-7.99199 4.900002,-4.899006 m 0,4.899006 -4.900002,-4.899006 M 89.425003,65.739006 94.325005,60.84 m 0,4.899006 L 89.425003,60.84 M 136.56,98.405006 l 4.899,-4.899002 m 0,4.899002 -4.899,-4.899002" /></g></g><g
             id="g154"><path
               id="path156"
               style="fill:none;stroke:#231f20;stroke-width:0.5;stroke-linecap:butt;stroke-linejoin:round;stroke-miterlimit:10;stroke-dasharray:none;stroke-opacity:1"
               d="m 28.992001,113.80601 0.35,-0.059 h 0.292 l 0.291,-0.058 0.350001,-0.058 h 0.291999 l 0.350001,-0.058 h 0.292 l 0.35,-0.058 h 0.290996 l 0.350003,-0.059 0.292,-0.059 H 32.784 l 0.350003,-0.057 0.291,-0.06 h 0.349999 l 0.291999,-0.057 0.349999,-0.058 h 0.292003 L 35,113.106 l 0.349998,-0.058 0.292004,-0.059 h 0.349999 l 0.291999,-0.058 0.350003,-0.059 0.291,-0.058 0.349999,-0.058 0.291999,-0.058 0.292,-0.058 0.350002,-0.059 0.290997,-0.059 0.349998,-0.057 0.292004,-0.06 0.349999,-0.057 0.291999,-0.058 0.350003,-0.059 0.291,-0.058 0.292,-0.11699 0.349998,-0.059 0.292,-0.058 0.350002,-0.11599 0.290997,-0.058 0.349998,-0.059 0.292004,-0.11601 0.349999,-0.06 0.291,-0.11499 0.292,-0.11701 0.350002,-0.059 0.292,-0.11701 0.349998,-0.116 0.291001,-0.116 0.350002,-0.059 0.291996,-0.116 0.349998,-0.11699 0.292004,-0.11701 0.292,-0.11699 0.348999,-0.17501 0.292,-0.11599 0.350002,-0.117 0.292,-0.11601 0.349998,-0.17499 0.291001,-0.11701 0.350002,-0.176 L 49,109.256 l 0.292004,-0.17499 0.349998,-0.11601 0.292,-0.175 0.348999,-0.17599 0.292,-0.17501 0.350002,-0.17399 0.292,-0.17501 0.349998,-0.17499 0.291001,-0.176 0.291996,-0.17501 0.350002,-0.23299 0.292004,-0.176 0.349998,-0.23201 0.292,-0.176 0.348999,-0.23199 0.292,-0.23501 0.292003,-0.174 0.349999,-0.234 0.291,-0.232 0.349999,-0.23499 L 55.649998,105.173 56,104.881 l 0.292004,-0.234 0.349998,-0.23199 0.292,-0.29301 0.291,-0.232 0.350003,-0.29199 0.291999,-0.292 0.349999,-0.233 0.291,-0.29301 0.349999,-0.29099 0.291996,-0.34901 0.350002,-0.29199 0.292004,-0.292 0.291,-0.35001 0.350998,-0.29099 m 0,0 0.291,-0.35101 0.350003,-0.291 0.291999,-0.349996 0.349999,-0.349998 0.292,-0.349999 0.349998,-0.348999 0.290997,-0.351005 0.292003,-0.408997 0.350003,-0.348999 0.291999,-0.350006 0.349999,-0.408997 0.291004,-0.350998 0.349999,-0.405998 0.291999,-0.409012 0.349999,-0.408989 0.292,-0.350006 0.291,-0.407997 0.349999,-0.407997 0.291999,-0.409004 0.349999,-0.407997 0.292,-0.467003 0.350006,-0.407997 0.291,-0.408005 0.349999,-0.408997 0.291999,-0.406997 0.292,-0.468003 0.349999,-0.406997 0.291,-0.468003 0.349999,-0.406997 0.291999,-0.468003 0.349999,-0.406997 0.292,-0.468003 0.291,-0.406997 0.350006,-0.468003 0.292,-0.406997 0.349998,-0.468003 0.292,-0.406997 0.349999,-0.468003 0.291,-0.466003 0.349999,-0.408997 0.583999,-0.932998 0.350006,-0.408005 0.292,-0.466995 0.348999,-0.408005 0.292,-0.466995 0.349998,-0.467003 0.291001,-0.407997 0.349998,-0.467003 0.292,-0.407997 0.292,-0.467003 0.349998,-0.407997 0.291001,-0.467003 0.351005,-0.407997 0.292,-0.467003 0.348999,-0.407997 0.292,-0.408005 0.349998,-0.466995 0.582993,-0.817002 0.350006,-0.406997 0.292,-0.410004 0.349998,-0.409004 0.292,-0.405998 0.350006,-0.408997 0.291001,-0.409004 0.349998,-0.407997 0.292,-0.408997 0.292,-0.349007 0.349998,-0.408996 0.290993,-0.349999 0.350006,-0.406997 0.291,-0.350006 0.349999,-0.350998 0.292999,-0.408997 0.350006,-0.348999 0.292,-0.350006 0.291,-0.350998 0.349999,-0.348999 0.641998,-0.641998 0.290993,-0.348999 0.350006,-0.293007 0.291,-0.291001 0.349999,-0.349998 0.292999,-0.291 0.291001,-0.293 0.351005,-0.291 0.291,-0.234001 0.349999,-0.291001 0.292,-0.290992 0.349998,-0.235001 0.290993,-0.233002 0.292007,-0.291008 0.348999,-0.233993 0.293,-0.174999 0.349998,-0.233002 0.291001,-0.232998 0.350006,-0.175007 m 0,0 0.465995,-0.290993 0.468003,-0.293003 0.465996,-0.232998 0.467002,-0.234001 0.525002,-0.232998 0.466995,-0.175003 0.466004,-0.175998 0.467002,-0.174 0.466996,-0.117001 0.465995,-0.174999 0.526009,-0.058 0.464996,-0.116001 0.468003,-0.059 0.465996,-0.058 0.467002,-0.058 0.467003,-0.06 H 100.451 l 0.46601,0.06 h 0.46799 l 0.46601,0.058 0.46599,0.058 0.468,0.117001 0.525,0.058 0.46601,0.118 0.46599,0.174 0.46701,0.116993 0.46699,0.175007 0.46601,0.115997 0.525,0.175003 0.46799,0.232998 0.46601,0.176003 0.46599,0.232998 0.468,0.233001 0.46601,0.232998 0.525,0.291001 0.46599,0.234996 0.46701,0.291005 0.46699,0.291996 0.46601,0.291999 0.467,0.349007 0.52599,0.291 0.93201,0.700997 0.46799,0.349998 0.46601,0.408005 0.46599,0.350998 0.525,0.406998 0.46701,0.407997 0.933,0.818001 0.467,0.408004 0.46699,0.466996 0.52501,0.408004 0.466,0.466996 0.46799,0.466003 0.46601,0.465996 0.46599,0.467003 0.46801,0.468002 0.524,0.524002 0.46699,0.526001 0.46601,0.465996 0.93399,1.048996 0.46601,0.526008 0.525,0.524994 0.46799,0.584 0.46601,0.524002 0.46599,0.583 0.46801,0.526001 0.466,0.583 0.46599,0.584 0.52501,0.583 0.467,0.583 0.933,1.167 0.46798,0.583 0.46602,0.584 0.525,0.640999 0.466,0.583 0.468,0.583 0.46599,0.642998 0.466,0.641006 0.467,0.583992 0.52501,0.64 0.46699,0.643005 0.46601,0.583 0.46798,0.641999 0.46602,0.641998 0.46599,0.641006 0.52501,0.641999 0.468,0.641998 0.46599,0.640999 0.466,0.643005 0.93401,1.280991 0.52499,0.643005 0.46601,0.640999 0.46798,0.641998" /></g></g></g></g></g></svg>