<?xml version="1.0" encoding="UTF-8" standalone="no"?>
<svg
   xmlns:dc="http://purl.org/dc/elements/1.1/"
   xmlns:cc="http://creativecommons.org/ns#"
   xmlns:rdf="http://www.w3.org/1999/02/22-rdf-syntax-ns#"
   xmlns:svg="http://www.w3.org/2000/svg"
   xmlns="http://www.w3.org/2000/svg"
   viewBox="0 0 678.66669 265.33334"
   height="265.33334"
   width="678.66669"
   xml:space="preserve"
   id="svg2"
   version="1.1"><metadata
     id="metadata8"><rdf:RDF><cc:Work
         rdf:about=""><dc:format>image/svg+xml</dc:format><dc:type
           rdf:resource="http://purl.org/dc/dcmitype/StillImage" /></cc:Work></rdf:RDF></metadata><defs
     id="defs6"><clipPath
       id="clipPath24"
       clipPathUnits="userSpaceOnUse"><path
         id="path22"
         d="M 0,0 H 509 V 199 H 0 Z" /></clipPath><clipPath
       id="clipPath34"
       clipPathUnits="userSpaceOnUse"><path
         id="path32"
         d="M 0,0.05999756 H 508.51102 V 198.149 H 0 Z" /></clipPath><clipPath
       id="clipPath48"
       clipPathUnits="userSpaceOnUse"><path
         id="path46"
         d="M 0,0.05999756 H 508.51102 V 198.149 H 0 Z" /></clipPath><clipPath
       id="clipPath62"
       clipPathUnits="userSpaceOnUse"><path
         id="path60"
         d="M 0,0.05999756 H 508.51102 V 198.149 H 0 Z" /></clipPath><clipPath
       id="clipPath82"
       clipPathUnits="userSpaceOnUse"><path
         id="path80"
         d="M 6.6670003,23.209999 H 171.16801 V 170.29301 H 6.6670003 Z" /></clipPath><clipPath
       id="clipPath92"
       clipPathUnits="userSpaceOnUse"><path
         id="path90"
         d="m 333.91602,23.209999 h 164.5 V 170.29301 h -164.5 z" /></clipPath><clipPath
       id="clipPath102"
       clipPathUnits="userSpaceOnUse"><path
         id="path100"
         d="M 0,0.05999756 H 508.51102 V 198.149 H 0 Z" /></clipPath></defs><g
     transform="matrix(1.3333333,0,0,-1.3333333,0,265.33333)"
     id="g10"><g
       id="g12" /><g
       id="g14" /><g
       id="g16"><g
         id="g18"><g
           clip-path="url(#clipPath24)"
           id="g20"><g
             id="g26" /><g
             id="g28"><g
               clip-path="url(#clipPath34)"
               id="g30"><path
                 id="path36"
                 style="fill:none;stroke:#231f20;stroke-width:0.5;stroke-linecap:butt;stroke-linejoin:round;stroke-miterlimit:10;stroke-dasharray:none;stroke-opacity:1"
                 d="M 1.3330001,0.45999998 V 189.04301" /></g></g><g
             id="g38"><path
               id="path40"
               style="fill:#231f20;fill-opacity:1;fill-rule:evenodd;stroke:none"
               d="M 1.3330001,189.04301 H 0.25 l 1.0830001,4.083 1.084,-4.083 h -1.084" /></g><g
             id="g42"><g
               clip-path="url(#clipPath48)"
               id="g44"><path
                 id="path50"
                 style="fill:none;stroke:#231f20;stroke-width:0.5;stroke-linecap:butt;stroke-linejoin:round;stroke-miterlimit:10;stroke-dasharray:none;stroke-opacity:1"
                 d="M 1.3330001,189.04301 H 0.25 l 1.0830001,4.083 1.084,-4.083 h -1.084 m 0,-171.083011 H 173.25" /></g></g><g
             id="g52"><path
               id="path54"
               style="fill:#231f20;fill-opacity:1;fill-rule:evenodd;stroke:none"
               d="m 173.25,17.959999 v 1.333002 l 3.25,-1.333002 -3.25,-1.333998 v 1.333998" /></g><g
             id="g56"><g
               clip-path="url(#clipPath62)"
               id="g58"><path
                 id="path64"
                 style="fill:none;stroke:#231f20;stroke-width:0.5;stroke-linecap:butt;stroke-linejoin:round;stroke-miterlimit:10;stroke-dasharray:none;stroke-opacity:1"
                 d="m 173.25,17.959999 v 1.333002 l 3.25,-1.333002 -3.25,-1.333998 v 1.333998 M 328.5,0.45999998 V 189.04301" /></g></g><g
             id="g66"><path
               id="path68"
               style="fill:#231f20;fill-opacity:1;fill-rule:evenodd;stroke:none"
               d="m 328.5,189.04301 h -1 l 1,4.083 1.08401,-4.083 H 328.5" /><path
               id="path70"
               style="fill:none;stroke:#231f20;stroke-width:0.5;stroke-linecap:butt;stroke-linejoin:round;stroke-miterlimit:10;stroke-dasharray:none;stroke-opacity:1"
               d="m 328.5,189.04301 h -1 l 1,4.083 1.08401,-4.083 H 328.5 m 0,-171.083011 h 171.91602" /><path
               id="path72"
               style="fill:#231f20;fill-opacity:1;fill-rule:evenodd;stroke:none"
               d="m 500.41602,17.959999 v 1.333002 l 3.25,-1.333002 -3.25,-1.333998 v 1.333998" /><path
               id="path74"
               style="fill:none;stroke:#231f20;stroke-width:0.5;stroke-linecap:butt;stroke-linejoin:round;stroke-miterlimit:10;stroke-dasharray:none;stroke-opacity:1"
               d="m 500.41602,17.959999 v 1.333002 l 3.25,-1.333002 -3.25,-1.333998 v 1.333998" /></g><g
             id="g76"><g
               clip-path="url(#clipPath82)"
               id="g78"><path
                 id="path84"
                 style="fill:none;stroke:#231f20;stroke-width:2;stroke-linecap:butt;stroke-linejoin:round;stroke-miterlimit:10;stroke-dasharray:none;stroke-opacity:1"
                 d="m 15.333001,161.62601 6.999999,-7 m 0,7 -6.999999,-7 M 32.833,82.793007 l 7,-7 m 0,7 -7,-7 m 35.084,33.250003 7,-7 m 0,7 -7,-7 m 17.500007,-28.000003 7,-7 m 0,7 -7,-7 m 35.000003,24.5 7,-7 m 0,7 -7,-7 m 35.001,-45.583008 7,-7 m 0,7 -7,-7" /></g></g><g
             id="g86"><g
               clip-path="url(#clipPath92)"
               id="g88"><path
                 id="path94"
                 style="fill:none;stroke:#231f20;stroke-width:2;stroke-linecap:butt;stroke-linejoin:round;stroke-miterlimit:10;stroke-dasharray:none;stroke-opacity:1"
                 d="m 342.58401,161.62601 7,-7 m 0,7 -7,-7 m 17.5,-71.833003 7,-7 m 0,7 -7,-7 m 35,33.250003 7,-7 m 0,7 -7,-7 m 17.5,-28.000003 7,-7 m 0,7 -7,-7 m 35.08201,24.5 7,-7 m 0,7 -7,-7 m 35,-45.583008 7,-7 m 0,7 -7,-7" /></g></g><g
             id="g96"><g
               clip-path="url(#clipPath102)"
               id="g98"><path
                 id="path104"
                 style="fill:none;stroke:#231f20;stroke-width:0.5;stroke-linecap:butt;stroke-linejoin:round;stroke-miterlimit:10;stroke-dasharray:none;stroke-opacity:1"
                 d="m 18.833,158.12601 17.5,-78.833003 35.084,26.250003 17.500007,-35.000003 35.000003,17.5 35.001,-52.583008 m 183.166,162.666011 1.58201,-17.25 1.58398,-15.583 1.58401,-14.08401 1.58201,-12.58299 1.58398,-11.167 1.66602,-9.833 1.58398,-8.583 1.58401,-7.417 1.58201,-6.250003 1.58398,-5.25 1.58401,-4.25 1.58201,-3.25 1.58398,-2.416008 1.58401,-1.666992 1.58201,-0.917 1.66799,-0.25 1.58201,0.333992 1.58398,0.833008 1.58401,1.25 1.58201,1.666992 1.58398,2 1.58401,2.25 1.58201,2.416008 1.58398,2.5 1.66602,2.583992 1.58398,2.5 1.58401,2.416008 1.58201,2.333003 1.58398,2 1.58401,1.834 1.58201,1.333 1.58398,1 1.58401,0.417 1.66599,-0.084 1.58401,-0.75 1.58201,-1.5 1.58398,-2.083 1.58401,-2.750003 1.58201,-3.083 1.58398,-3.5 1.58401,-3.667 1.58201,-3.833 1.58398,-3.75 1.66602,-3.667 1.58398,-3.416008 1.58401,-3.083992 1.58201,-2.583 1.58398,-2.083008 1.58401,-1.584 1.58201,-1.083 1.58398,-0.749996 1.58401,-0.25 H 426.5 l 1.58401,0.416996 1.58201,0.75 1.58398,0.916 1.58401,1.25 1.58201,1.417008 1.58398,1.583 1.58401,1.75 1.58201,1.833992 1.58398,1.916008 1.66602,2 1.58398,2.083992 1.58401,2 1.58201,2 1.58398,1.916008 1.58401,1.833992 1.58201,1.666008 1.58398,1.5 1.58401,1.333992 1.66599,1.166008 1.58401,0.833992 1.58402,0.583008 1.58197,0.25 1.58401,-0.08301 1.58402,-0.416992 1.58197,-0.917 1.58401,-1.25 1.58402,-1.75 1.66598,-2.333 1.58402,-2.75 1.58197,-3.417 1.58401,-3.916008 1.58402,-4.583992 1.58197,-5.250008 1.58401,-5.832996 1.58402,-6.667 1.58197,-7.333 1.58401,-8.167 1.66599,-9.000002 1.58401,-9.75 L 490.16803,10.46" /></g></g><g
             id="g106"><text
               id="text110"
               style="font-variant:normal;font-weight:normal;font-size:11.95500088px;font-family:CMMI12;-inkscape-font-specification:CMMI12;writing-mode:lr-tb;fill:#231f20;fill-opacity:1;fill-rule:nonzero;stroke:none"
               transform="matrix(1,0,0,-1,170.36301,2.9880002)"><tspan
                 id="tspan108"
                 y="0"
                 x="0">x</tspan></text>
<text
               id="text114"
               style="font-variant:normal;font-weight:normal;font-size:11.95500088px;font-family:CMMI12;-inkscape-font-specification:CMMI12;writing-mode:lr-tb;fill:#231f20;fill-opacity:1;fill-rule:nonzero;stroke:none"
               transform="matrix(1,0,0,-1,501.86325,3.9886336)"><tspan
                 id="tspan112"
                 y="0"
                 x="0">x</tspan></text>
</g></g></g></g></g></svg>