<?xml version="1.0" encoding="UTF-8" standalone="no"?>
<svg
   xmlns:dc="http://purl.org/dc/elements/1.1/"
   xmlns:cc="http://creativecommons.org/ns#"
   xmlns:rdf="http://www.w3.org/1999/02/22-rdf-syntax-ns#"
   xmlns:svg="http://www.w3.org/2000/svg"
   xmlns="http://www.w3.org/2000/svg"
   viewBox="0 0 482.66666 116"
   height="116"
   width="482.66666"
   xml:space="preserve"
   id="svg2"
   version="1.1"><metadata
     id="metadata8"><rdf:RDF><cc:Work
         rdf:about=""><dc:format>image/svg+xml</dc:format><dc:type
           rdf:resource="http://purl.org/dc/dcmitype/StillImage" /></cc:Work></rdf:RDF></metadata><defs
     id="defs6"><clipPath
       id="clipPath24"
       clipPathUnits="userSpaceOnUse"><path
         id="path22"
         d="M 0,0 H 362 V 87 H 0 Z" /></clipPath><clipPath
       id="clipPath56"
       clipPathUnits="userSpaceOnUse"><path
         id="path54"
         d="M 0.06,0 H 361.92902 V 86.439995 H 0.06 Z" /></clipPath></defs><g
     transform="matrix(1.3333333,0,0,-1.3333333,0,116)"
     id="g10"><g
       id="g12" /><g
       id="g14" /><g
       id="g16"><g
         id="g18"><g
           clip-path="url(#clipPath24)"
           id="g20"><g
             id="g26" /><g
             id="g28"><text
               id="text32"
               style="font-variant:normal;font-weight:normal;font-size:11.95500088px;font-family:CMMI10;-inkscape-font-specification:CMMI10;writing-mode:lr-tb;fill:#231f20;fill-opacity:1;fill-rule:nonzero;stroke:none"
               transform="matrix(1,0,0,-1,155.58401,77.473495)"><tspan
                 id="tspan30"
                 y="0"
                 x="0">f</tspan></text>
<text
               id="text36"
               style="font-variant:normal;font-weight:normal;font-size:11.95500088px;font-family:CMR10;-inkscape-font-specification:CMR10;writing-mode:lr-tb;fill:#231f20;fill-opacity:1;fill-rule:nonzero;stroke:none"
               transform="matrix(1,0,0,-1,162.72473,77.473495)"><tspan
                 id="tspan34"
                 y="0"
                 x="0">(</tspan></text>
<text
               id="text40"
               style="font-variant:normal;font-weight:normal;font-size:11.95500088px;font-family:CMMI10;-inkscape-font-specification:CMMI10;writing-mode:lr-tb;fill:#231f20;fill-opacity:1;fill-rule:nonzero;stroke:none"
               transform="matrix(1,0,0,-1,167.37404,77.473495)"><tspan
                 id="tspan38"
                 y="0"
                 x="0">t</tspan></text>
<text
               id="text44"
               style="font-variant:normal;font-weight:normal;font-size:11.95500088px;font-family:CMR10;-inkscape-font-specification:CMR10;writing-mode:lr-tb;fill:#231f20;fill-opacity:1;fill-rule:nonzero;stroke:none"
               transform="matrix(1,0,0,-1,171.68979,77.473495)"><tspan
                 id="tspan42"
                 y="0"
                 x="0">)</tspan></text>
<text
               id="text48"
               style="font-variant:normal;font-weight:normal;font-size:11.95500088px;font-family:CMMI10;-inkscape-font-specification:CMMI10;writing-mode:lr-tb;fill:#231f20;fill-opacity:1;fill-rule:nonzero;stroke:none"
               transform="matrix(1,0,0,-1,357.35452,2.9890628)"><tspan
                 id="tspan46"
                 y="0"
                 x="0">t</tspan></text>
</g><g
             id="g50"><g
               clip-path="url(#clipPath56)"
               id="g52"><path
                 id="path58"
                 style="fill:#231f20;fill-opacity:1;fill-rule:nonzero;stroke:none"
                 d="M 0,15.223001 H 353" /><path
                 id="path60"
                 style="fill:none;stroke:#231f20;stroke-width:1;stroke-linecap:butt;stroke-linejoin:miter;stroke-miterlimit:4;stroke-dasharray:none;stroke-opacity:1"
                 d="M 0,15.223001 H 353" /></g></g><g
             id="g62"><path
               id="path64"
               style="fill:#231f20;fill-opacity:1;fill-rule:nonzero;stroke:none"
               d="m 351.97998,15.223001 -2.19,3.602999 0.12304,0.082 5.875,-2.334 c 2.047,-0.45 4.094,-0.901001 6.141,-1.351 -2.047,-0.45 -4.094,-0.901 -6.141,-1.351 l -5.875,-2.333 -0.12304,0.061 2.19,3.623001" /><path
               id="path66"
               style="fill:#231f20;fill-opacity:1;fill-rule:nonzero;stroke:none"
               d="M 150.72501,15.223001 V 75.973007" /><path
               id="path68"
               style="fill:none;stroke:#231f20;stroke-width:1;stroke-linecap:butt;stroke-linejoin:miter;stroke-miterlimit:4;stroke-dasharray:none;stroke-opacity:1"
               d="M 150.72501,15.223001 V 75.973007" /><path
               id="path70"
               style="fill:#231f20;fill-opacity:1;fill-rule:nonzero;stroke:none"
               d="M 150.72501,74.953003 147.123,72.763 l -0.082,0.123002 2.33301,5.875 c 0.451,2.047004 0.901,4.094001 1.351,6.140998 0.44999,-2.046997 0.901,-4.093994 1.35099,-6.140998 l 2.334,-5.875 -0.062,-0.123002 -3.623,2.190003" /><path
               id="path72"
               style="fill:none;stroke:#231f20;stroke-width:1;stroke-linecap:butt;stroke-linejoin:round;stroke-miterlimit:4;stroke-dasharray:none;stroke-opacity:1"
               d="m 236.92601,21.048 0.39999,-0.075 0.40001,-0.05 0.4,-0.05 0.40001,-0.075 0.39999,-0.05 0.39999,-0.05 0.40001,-0.05 0.4,-0.05 0.40001,-0.075 0.39999,-0.05 0.39999,-0.05 0.40001,-0.05 0.4,-0.05 0.40001,-0.05 0.39999,-0.05 0.39999,-0.05 0.40001,-0.05 0.4,-0.05 0.40001,-0.05 0.39999,-0.05 0.39999,-0.05 0.42501,-0.05 0.40001,-0.05 0.39999,-0.025 0.40001,-0.05 0.39999,-0.05 0.4,-0.05 0.40001,-0.05 0.39999,-0.025 0.40001,-0.05 0.39999,-0.05 0.4,-0.05 0.40001,-0.025 0.39999,-0.05 0.40001,-0.05 0.39999,-0.025 0.4,-0.05 0.40001,-0.05 0.39999,-0.025 0.40001,-0.05 0.39999,-0.025 0.4,-0.05 0.40001,-0.025 0.39999,-0.05 0.40001,-0.025 0.39999,-0.05 0.4,-0.025 0.39999,-0.05 0.40003,-0.025 0.42498,-0.05 0.4,-0.025 0.39999,-0.025 0.40003,-0.05 0.39999,-0.025 0.39999,-0.05 0.4,-0.025 0.39999,-0.025 0.40003,-0.05 0.39999,-0.025 0.39999,-0.025 0.4,-0.025 0.39999,-0.05 0.40003,-0.025 0.39999,-0.025 0.39999,-0.025 0.4,-0.05 0.39999,-0.025 0.80002,-0.05 0.39999,-0.025 0.4,-0.05 0.39999,-0.025 0.40003,-0.025 0.39999,-0.025 0.401,-0.025 0.39899,-0.025 0.39999,-0.025 0.42502,-0.025 0.401,-0.025 0.39899,-0.05 0.80002,-0.05 0.39999,-0.025 0.401,-0.025 0.39899,-0.025 0.39999,-0.025 0.40003,-0.025 0.39999,-0.025 0.401,-0.025 0.39899,-0.025 h 0.39999 l 0.80002,-0.05 0.401,-0.025 0.39899,-0.025 0.39999,-0.025 0.40003,-0.025 0.401,-0.025 0.39999,-0.025 m -79.37601,13.600001 0.4,-0.15 0.40001,-0.175001 0.39999,-0.15 0.39999,-0.149999 0.40001,-0.15 0.4,-0.150001 0.8,-0.3 0.39999,-0.125 0.424,-0.149999 0.40102,-0.15 0.39999,-0.125 0.39999,-0.150001 0.40001,-0.15 0.80001,-0.25 0.39999,-0.15 1.2,-0.375 0.40001,-0.149999 2,-0.625 0.39999,-0.100001 1.2,-0.375 0.40001,-0.1 0.39999,-0.125 0.39999,-0.1 0.40001,-0.125 0.4,-0.100001 0.40001,-0.125 0.39999,-0.1 0.425,-0.100001 0.4,-0.125 0.40001,-0.1 0.79998,-0.200001 0.40001,-0.125 0.4,-0.1 0.40001,-0.100001 0.39999,-0.1 0.8,-0.200001 0.4,-0.075 0.40001,-0.1 0.79998,-0.200001 0.40001,-0.1 0.4,-0.075 0.8,-0.200001 0.39999,-0.075 0.40001,-0.1 0.4,-0.075 0.40001,-0.1 0.39999,-0.075 0.39999,-0.1 0.40001,-0.075 0.4,-0.075 0.425,-0.1 0.39999,-0.075 0.40001,-0.075 0.4,-0.075 0.40001,-0.075 0.39999,-0.1 0.39999,-0.075 0.40001,-0.075 0.80001,-0.149999 0.39999,-0.075 0.39999,-0.075 0.40001,-0.075 0.80001,-0.149999 0.39999,-0.05 0.39999,-0.075 0.40001,-0.075 0.4,-0.075 0.40001,-0.075 0.39999,-0.05 0.39999,-0.075 0.40001,-0.075 0.4,-0.05 0.40001,-0.075 0.39999,-0.05 0.39999,-0.075 0.40001,-0.05 0.42501,-0.075 0.39999,-0.05 0.39999,-0.075 0.40001,-0.05 0.4,-0.075 0.40001,-0.05 0.39999,-0.05" /><path
               id="path74"
               style="fill:none;stroke:#231f20;stroke-width:1;stroke-linecap:butt;stroke-linejoin:round;stroke-miterlimit:4;stroke-dasharray:none;stroke-opacity:1"
               d="m 157.55,57.623001 1.2,-1.274998 0.8,-0.799999 0.4,-0.400001 0.39999,-0.400002 0.8,-0.799999 2.40001,-2.25 0.4,-0.349999 0.40101,-0.375 0.39899,-0.350002 0.39999,-0.349998 0.40001,-0.349999 0.4,-0.350002 0.40101,-0.349999 0.39899,-0.325 0.39999,-0.349999 0.42502,-0.325001 0.401,-0.325 0.4,-0.325001 0.399,-0.325001 0.39999,-0.325001 0.40001,-0.299999 0.401,-0.325001 0.4,-0.299999 0.399,-0.325001 0.39999,-0.299999 0.40001,-0.299999 0.401,-0.299999 0.4,-0.275002 0.399,-0.299999 0.39999,-0.299999 0.40001,-0.275002 0.401,-0.274998 0.4,-0.300003 0.399,-0.274997 0.39999,-0.275002 0.401,-0.274998 0.40001,-0.25 0.4,-0.275001 0.399,-0.275002 0.39999,-0.25 0.401,-0.25 0.40001,-0.274997 0.4,-0.25 0.42399,-0.25 0.401,-0.25 0.40001,-0.25 L 180,39.423 l 0.40001,-0.25 0.39999,-0.224998 0.401,-0.25 0.40001,-0.224999 0.39899,-0.25 0.40001,-0.225002 L 182.8,37.773003 183.201,37.548 183.60101,37.323002 184,37.098003 l 0.40001,-0.2 L 184.8,36.673 185.201,36.473003 185.60101,36.248001 186,36.048 186.40001,35.823002 186.8,35.623001 187.201,35.423 l 0.40001,-0.199997 0.39899,-0.2 0.40001,-0.200001 0.401,-0.200001 0.39999,-0.174999 0.40001,-0.200001 0.424,-0.200001 0.401,-0.174999 0.39999,-0.200001 0.80001,-0.349998 0.399,-0.200001 0.401,-0.174999 0.39999,-0.174999 0.40001,-0.175 0.4,-0.175003 0.399,-0.174999 0.401,-0.149998 0.39999,-0.175001 0.40001,-0.175001 0.4,-0.15 0.399,-0.174999 0.401,-0.150001 0.39999,-0.175 0.40001,-0.149999 m -46.501,34.524998 0.401,-0.5 0.399,-0.5 0.39999,-0.474995 0.40001,-0.5 0.4,-0.475002 0.401,-0.474999 0.399,-0.475002 0.39999,-0.474999 0.40001,-0.45 0.4,-0.450001 0.401,-0.450001 0.399,-0.449997 0.39999,-0.450001 0.42499,-0.45 1.20001,-1.275002" /></g></g></g></g></g></svg>