<?xml version="1.0" encoding="UTF-8" standalone="no"?>
<svg
   xmlns:dc="http://purl.org/dc/elements/1.1/"
   xmlns:cc="http://creativecommons.org/ns#"
   xmlns:rdf="http://www.w3.org/1999/02/22-rdf-syntax-ns#"
   xmlns:svg="http://www.w3.org/2000/svg"
   xmlns="http://www.w3.org/2000/svg"
   viewBox="0 0 482.66666 178.66667"
   height="178.66667"
   width="482.66666"
   xml:space="preserve"
   id="svg2"
   version="1.1"><metadata
     id="metadata8"><rdf:RDF><cc:Work
         rdf:about=""><dc:format>image/svg+xml</dc:format><dc:type
           rdf:resource="http://purl.org/dc/dcmitype/StillImage" /></cc:Work></rdf:RDF></metadata><defs
     id="defs6"><clipPath
       id="clipPath24"
       clipPathUnits="userSpaceOnUse"><path
         id="path22"
         d="M 0,0 H 362 V 134 H 0 Z" /></clipPath></defs><g
     transform="matrix(1.3333333,0,0,-1.3333333,0,178.66667)"
     id="g10"><g
       id="g12" /><g
       id="g14" /><g
       id="g16"><g
         id="g18"><g
           clip-path="url(#clipPath24)"
           id="g20"><g
             id="g26" /><g
             id="g28"><path
               id="path30"
               style="fill:#000000;fill-opacity:1;fill-rule:nonzero;stroke:none"
               d="M 0,20 H 353" /><path
               id="path32"
               style="fill:#000000;fill-opacity:1;fill-rule:nonzero;stroke:none"
               d="m 351.97998,20 -2.19,3.603001 0.12304,0.081 5.874,-2.333 c 2.04699,-0.450001 4.09399,-0.901003 6.14099,-1.351002 -2.047,-0.450001 -4.094,-0.900999 -6.14099,-1.351 l -5.874,-2.333999 -0.12304,0.062 2.19,3.622999" /><path
               id="path34"
               style="fill:#000000;fill-opacity:1;fill-rule:nonzero;stroke:none"
               d="M 150.5,0 V 118" /><path
               id="path36"
               style="fill:#000000;fill-opacity:1;fill-rule:nonzero;stroke:none"
               d="m 150.5,116.98 -3.603,-2.19 -0.082,0.122 2.334,5.875 c 0.45001,2.04701 0.901,4.094 1.351,6.14101 0.45,-2.04701 0.901,-4.094 1.35101,-6.14101 l 2.334,-5.875 -0.062,-0.122 -3.623,2.19" /><path
               id="path38"
               style="fill:none;stroke:#000000;stroke-width:1;stroke-linecap:butt;stroke-linejoin:round;stroke-miterlimit:4;stroke-dasharray:none;stroke-opacity:1"
               d="m 236.92601,25.5 0.39999,-0.075 0.80001,-0.1 0.40001,-0.075 0.39999,-0.05 0.39999,-0.05 0.40001,-0.05 0.4,-0.05 0.40001,-0.075 0.39999,-0.05 0.39999,-0.05 0.40001,-0.05 0.4,-0.05 0.40001,-0.05 0.39999,-0.05 0.39999,-0.05 0.40001,-0.05 0.4,-0.05 0.8,-0.100001 0.39999,-0.05 0.42501,-0.05 0.40001,-0.05 0.39999,-0.025 0.40001,-0.05 0.39999,-0.05 0.80001,-0.100001 0.39999,-0.025 0.40001,-0.05 0.79999,-0.1 0.40001,-0.025 0.39999,-0.05 0.40001,-0.05 0.39999,-0.025 0.4,-0.05 0.40001,-0.05 0.39999,-0.025 0.40001,-0.05 0.39999,-0.025 0.4,-0.05 0.40001,-0.025 0.39999,-0.05 0.40001,-0.025 0.39999,-0.05 0.4,-0.025 0.39999,-0.05 0.40003,-0.025 0.42498,-0.05 0.4,-0.025 0.39999,-0.025 0.40003,-0.05 0.39999,-0.025 0.39999,-0.05 0.4,-0.025 0.39999,-0.025 0.40003,-0.05 0.39999,-0.025 0.39999,-0.025 0.4,-0.025 0.39999,-0.05 0.40003,-0.025 0.39999,-0.025 0.39999,-0.025 0.4,-0.05 0.39999,-0.025 0.40003,-0.025 0.39999,-0.025 0.39999,-0.025 0.4,-0.05 0.39999,-0.025 0.40003,-0.025 0.39999,-0.025 0.39999,-0.025 0.4,-0.025 0.39999,-0.025 0.42502,-0.025 0.39999,-0.025 0.4,-0.05 0.39999,-0.025 0.40003,-0.025 0.79998,-0.05 0.79999,-0.05 0.40003,-0.025 0.39999,-0.025 0.39999,-0.025 0.4,-0.025 h 0.39999 l 0.40003,-0.025 0.39999,-0.025 0.39999,-0.025 0.4,-0.025 0.39999,-0.025 0.40003,-0.025 0.39999,-0.025 0.39999,-0.025 m -79.376,13.600001 0.40001,-0.150002 0.39999,-0.174999 0.39999,-0.149998 0.40001,-0.150001 1.2,-0.450001 0.39999,-0.149998 0.40001,-0.125004 0.42499,-0.149997 0.39999,-0.150002 0.40001,-0.125 0.4,-0.149998 0.39999,-0.150001 0.40001,-0.125 0.39999,-0.125 0.40001,-0.149998 0.79999,-0.25 0.40001,-0.125004 0.39999,-0.149997 0.4,-0.125 0.40001,-0.125004 0.8,-0.249998 0.39999,-0.124998 0.4,-0.100001 0.40001,-0.125002 0.39999,-0.124998 0.40001,-0.125 0.39999,-0.1 0.4,-0.125 0.40001,-0.1 0.39999,-0.125004 0.40001,-0.1 0.39999,-0.124998 0.4,-0.1 0.42502,-0.100001 0.40001,-0.125 0.39999,-0.1 0.8,-0.200001 0.4,-0.124998 0.40001,-0.1 0.39999,-0.100001 0.39999,-0.1 0.40001,-0.1 0.4,-0.1 0.40001,-0.075 L 217.675,29.1 l 0.40001,-0.1 0.4,-0.1 0.40001,-0.075 0.39999,-0.1 0.39999,-0.1 0.40001,-0.075 0.4,-0.1 0.40001,-0.075 0.39999,-0.1 0.39999,-0.075 0.40001,-0.100001 0.4,-0.075 0.40001,-0.075 0.42498,-0.100001 1.60001,-0.299999 0.39999,-0.1 0.4,-0.075 0.8,-0.150002 0.40001,-0.075 0.401,-0.075 0.39999,-0.075 1.20002,-0.224998 0.39999,-0.05 1.60001,-0.299999 0.39999,-0.05 0.39999,-0.075 0.39901,-0.075 0.401,-0.05 0.40001,-0.075 0.39999,-0.05 0.39999,-0.075 0.39901,-0.05 0.42601,-0.075 0.399,-0.05 0.40098,-0.075 0.40001,-0.05 0.39901,-0.075 0.401,-0.05 0.39999,-0.05" /><path
               id="path40"
               style="fill:none;stroke:#000000;stroke-width:1;stroke-linecap:butt;stroke-linejoin:round;stroke-miterlimit:4;stroke-dasharray:none;stroke-opacity:1"
               d="m 157.55,62.075005 1.2,-1.275006 2.39999,-2.399997 2.40001,-2.250004 0.4,-0.349999 0.39999,-0.374996 2,-1.75 L 166.75,53.349998 167.14999,53 l 0.42502,-0.324997 1.59999,-1.299999 0.40001,-0.300003 0.4,-0.325001 0.40001,-0.299999 0.39999,-0.324997 1.2,-0.900002 0.40001,-0.275001 0.79998,-0.600003 0.40001,-0.274997 0.4,-0.275002 0.40001,-0.299999 0.39999,-0.274998 0.39999,-0.275001 0.40001,-0.274998 0.4,-0.25 0.40001,-0.275005 0.39999,-0.274994 0.39999,-0.25 0.40001,-0.25 0.4,-0.275002 0.40001,-0.250004 0.42498,-0.249996 0.80001,-0.5 0.39999,-0.224998 0.40001,-0.25 0.39999,-0.225002 0.4,-0.250004 0.40001,-0.224995 0.39999,-0.25 0.40001,-0.225002 L 182.8,42.225002 183.2,42 184,41.549999 184.40001,41.349998 184.8,41.125004 185.2,40.925003 185.60001,40.700001 186,40.5 186.40001,40.275002 186.8,40.075001 187.60001,39.675003 188,39.475002 l 0.40001,-0.2 0.39999,-0.200001 0.4,-0.174999 0.40001,-0.200001 0.425,-0.200001 0.39999,-0.174999 0.40001,-0.200001 0.4,-0.174999 0.40001,-0.174999 0.39999,-0.200001 2,-0.875 0.39999,-0.150002 0.80001,-0.349998 0.40001,-0.150002 0.39999,-0.174999 0.39999,-0.149998 0.40001,-0.175003 0.4,-0.149997 m -46.5,34.525001 0.39999,-0.5 0.40001,-0.5 0.39999,-0.475006 0.40001,-0.5 1.59999,-1.900002 2,-2.249996 0.42499,-0.450001 1.20001,-1.274993 m -93.075993,-37.200003 -0.400002,-0.075 -0.400001,-0.05 -0.400002,-0.05 -0.399998,-0.075 -0.400001,-0.05 -0.400002,-0.05 -0.799999,-0.100001 -0.399998,-0.075 -0.800003,-0.1 -0.399997,-0.05 -0.400002,-0.05 L 58.474003,24.05 58.074001,24 57.674004,23.95 57.274002,23.9 56.074001,23.75 55.649002,23.7 l -0.399998,-0.05 -0.400001,-0.025 -0.400002,-0.05 -0.399997,-0.05 -0.8,-0.100001 -0.400001,-0.025 -0.400002,-0.05 -0.399997,-0.05 -0.400002,-0.05 -0.400001,-0.025 -0.8,-0.1 -0.399997,-0.025 -0.800003,-0.1 -0.399998,-0.025 -0.400002,-0.05 -0.399997,-0.025 -0.400002,-0.05 -0.400001,-0.025 -0.399998,-0.05 -0.400002,-0.025 -0.399997,-0.05 -0.400002,-0.025 -0.400001,-0.05 -0.399998,-0.025 -0.424999,-0.05 -0.400002,-0.025 -0.400001,-0.025 -0.399998,-0.05 -0.400002,-0.025 -0.399997,-0.05 -0.400002,-0.025 -0.400001,-0.025 -0.399998,-0.05 -0.400002,-0.025 -0.399997,-0.025 -0.400002,-0.025 -0.400001,-0.05 -0.399998,-0.025 -0.400002,-0.025 -0.399997,-0.025 -0.400002,-0.05 -0.400001,-0.025 -0.399998,-0.025 -0.400002,-0.025 -0.399997,-0.025 -0.400002,-0.05 -0.400001,-0.025 -0.399998,-0.025 -0.400002,-0.025 -0.400001,-0.025 -0.399998,-0.025 -0.400001,-0.025 -0.425,-0.025 -0.400001,-0.025 -0.399998,-0.05 -0.4,-0.025 -0.400001,-0.025 -0.4,-0.025 -0.399999,-0.025 -0.4,-0.025 -0.400001,-0.025 -0.4,-0.025 -0.4,-0.025 -0.399999,-0.025 -0.4,-0.025 h -0.400001 l -0.4,-0.025 -0.4,-0.025 -0.399999,-0.025 -0.4,-0.025 -0.400001,-0.025 -0.4,-0.025 -0.4,-0.025 -0.399999,-0.025" /><path
               id="path42"
               style="fill:none;stroke:#000000;stroke-width:1;stroke-linecap:butt;stroke-linejoin:round;stroke-miterlimit:4;stroke-dasharray:none;stroke-opacity:1"
               d="m 104.175,34.775002 -0.4,-0.150002 -0.39999,-0.174999 -0.4,-0.150002 L 102.575,34.149998 102.175,34 l -0.4,-0.150002 -0.39999,-0.149997 -0.4,-0.150002 L 100.575,33.425003 100.15,33.275002 99.75,33.125 99.349998,33 98.949997,32.849998 98.549995,32.700001 98.150002,32.575001 97.75,32.450001 97.349998,32.299999 96.949997,32.175003 96.150002,31.925001 95.75,31.775002 94.949997,31.525002 94.549995,31.4 93.75,31.15 l -0.400002,-0.100001 -0.800003,-0.249998 -0.399993,-0.125 -0.400002,-0.1 -0.400002,-0.125002 -0.400001,-0.100001 -0.400002,-0.124996 -0.399993,-0.1 L 89.75,30 l -0.400002,-0.1 -0.424995,-0.1 -0.400001,-0.125 -0.799996,-0.199999 -0.400001,-0.1 -0.400002,-0.125002 -0.400001,-0.1 -0.799996,-0.200001 -0.400001,-0.100001 -0.400002,-0.1 -0.400001,-0.075 -0.399994,-0.1 -0.400002,-0.1 -0.400001,-0.1 -0.400002,-0.1 -0.400001,-0.075 L 82.125008,28.1 81.725006,28 81.325005,27.925 80.925003,27.825 80.525002,27.75 80.125,27.65 79.725006,27.575001 79.325005,27.475 78.525002,27.325001 78.099998,27.225 77.700005,27.15 77.300003,27.075001 76.900002,27 76.5,26.925001 l -0.400002,-0.1 -0.799995,-0.15 -0.400001,-0.075 -0.400002,-0.075 -0.400002,-0.075 -0.799995,-0.149998 -0.400001,-0.075 -0.401001,-0.075 -0.399003,-0.05 -0.399993,-0.075 -0.401001,-0.075 -0.399002,-0.075 -0.400002,-0.075 -0.400002,-0.05 -0.800994,-0.15 -0.399002,-0.05 -0.401001,-0.075 -0.399003,-0.05 -0.400993,-0.075 -0.399002,-0.05 -0.426002,-0.075 -0.398995,-0.05 -0.400001,-0.075 -0.401001,-0.05 -0.399002,-0.075 -0.799996,-0.1 m 79.374984,36.574995 -1.2,-1.274994 -2.39999,-2.400001 -2.40001,-2.25 L 137.45,55.175004 137.05,54.8 l -2,-1.75 -0.40001,-0.324997 L 134.25,52.375005 133.82501,52.05 l -1.6,-1.299999 -0.4,-0.299999 L 131.425,50.125004 131.02501,49.825001 130.625,49.5 l -1.2,-0.899998 -0.39999,-0.275001 -0.8,-0.599999 -0.80001,-0.549999 -0.39999,-0.299999 -0.4,-0.275002 -0.4,-0.275001 -0.40001,-0.275002 -0.4,-0.25 -0.79999,-0.549999 -0.80001,-0.5 -0.4,-0.274998 -0.39999,-0.25 -0.42501,-0.25 -0.8,-0.5 L 121.4,43.25 121,43 l -0.4,-0.224998 -0.4,-0.25 -0.4,-0.225003 -0.4,-0.25 -0.4,-0.224998 -0.4,-0.224999 -0.4,-0.224998 -0.8,-0.450001 L 117,40.725002 116.6,40.5 116.2,40.299999 115.8,40.075001 115.4,39.875 115,39.649998 114.6,39.450001 114.2,39.25 l -0.4,-0.200001 -0.8,-0.400001 -0.4,-0.199997 -0.4,-0.174999 -0.4,-0.200001 -0.42499,-0.200001 -0.4,-0.174999 L 110.575,37.5 l -0.4,-0.174999 -0.4,-0.175003 -0.39999,-0.199997 -0.4,-0.174999 -0.40001,-0.175 -0.4,-0.174999 -0.4,-0.175003 -0.39999,-0.174999 -0.4,-0.149998 -0.80001,-0.350002 -0.4,-0.149998 -0.39999,-0.175003 -0.4,-0.149998 -0.40001,-0.174999 -0.4,-0.150001" /><path
               id="path44"
               style="fill:none;stroke:#000000;stroke-width:1;stroke-linecap:butt;stroke-linejoin:round;stroke-miterlimit:4;stroke-dasharray:none;stroke-opacity:1"
               d="m 150.675,69.300003 -0.8,-1 -0.39999,-0.474998 -0.4,-0.5 -1.6,-1.900002 -2,-2.25 -0.42501,-0.450001 -1.20001,-1.275005" /><text
               id="text48"
               style="font-variant:normal;font-weight:normal;font-size:11.95500088px;font-family:CMMI10;-inkscape-font-specification:CMMI10;writing-mode:lr-tb;fill:#000000;fill-opacity:1;fill-rule:nonzero;stroke:none"
               transform="matrix(1,0,0,-1,153.89401,122)"><tspan
                 id="tspan46"
                 y="0"
                 x="0">f</tspan></text>
<text
               id="text52"
               style="font-variant:normal;font-weight:normal;font-size:11.95500088px;font-family:CMR10;-inkscape-font-specification:CMR10;writing-mode:lr-tb;fill:#000000;fill-opacity:1;fill-rule:nonzero;stroke:none"
               transform="matrix(1,0,0,-1,161.03354,122)"><tspan
                 id="tspan50"
                 y="0"
                 x="0">(</tspan></text>
<text
               id="text56"
               style="font-variant:normal;font-weight:normal;font-size:11.95500088px;font-family:CMMI10;-inkscape-font-specification:CMMI10;writing-mode:lr-tb;fill:#000000;fill-opacity:1;fill-rule:nonzero;stroke:none"
               transform="matrix(1,0,0,-1,165.68285,122)"><tspan
                 id="tspan54"
                 y="0"
                 x="0">t</tspan></text>
<text
               id="text60"
               style="font-variant:normal;font-weight:normal;font-size:11.95500088px;font-family:CMR10;-inkscape-font-specification:CMR10;writing-mode:lr-tb;fill:#000000;fill-opacity:1;fill-rule:nonzero;stroke:none"
               transform="matrix(1,0,0,-1,169.9998,122)"><tspan
                 id="tspan58"
                 y="0"
                 x="0">)</tspan></text>
<text
               id="text64"
               style="font-variant:normal;font-weight:normal;font-size:11.95500088px;font-family:CMMI10;-inkscape-font-specification:CMMI10;writing-mode:lr-tb;fill:#000000;fill-opacity:1;fill-rule:nonzero;stroke:none"
               transform="matrix(1,0,0,-1,356.10449,8.5004253)"><tspan
                 id="tspan62"
                 y="0"
                 x="0">t</tspan></text>
<text
               id="text68"
               style="font-variant:normal;font-weight:normal;font-size:11.95500088px;font-family:CMR10;-inkscape-font-specification:CMR10;writing-mode:lr-tb;fill:#000000;fill-opacity:1;fill-rule:nonzero;stroke:none"
               transform="matrix(1,0,0,-1,154.89107,69.481689)"><tspan
                 id="tspan66"
                 y="0"
                 x="0">1</tspan></text>
</g></g></g></g></g></svg>