<?xml version="1.0" encoding="UTF-8" standalone="no"?>
<svg
   xmlns:dc="http://purl.org/dc/elements/1.1/"
   xmlns:cc="http://creativecommons.org/ns#"
   xmlns:rdf="http://www.w3.org/1999/02/22-rdf-syntax-ns#"
   xmlns:svg="http://www.w3.org/2000/svg"
   xmlns="http://www.w3.org/2000/svg"
   viewBox="0 0 468 184"
   height="184"
   width="468"
   xml:space="preserve"
   id="svg2"
   version="1.1"><metadata
     id="metadata8"><rdf:RDF><cc:Work
         rdf:about=""><dc:format>image/svg+xml</dc:format><dc:type
           rdf:resource="http://purl.org/dc/dcmitype/StillImage" /></cc:Work></rdf:RDF></metadata><defs
     id="defs6"><clipPath
       id="clipPath24"
       clipPathUnits="userSpaceOnUse"><path
         id="path22"
         d="M 0,0 H 351 V 138 H 0 Z" /></clipPath><clipPath
       id="clipPath44"
       clipPathUnits="userSpaceOnUse"><path
         id="path42"
         d="M 0.06,0.05999756 H 350.68701 V 137.73 H 0.06 Z" /></clipPath><clipPath
       id="clipPath62"
       clipPathUnits="userSpaceOnUse"><path
         id="path60"
         d="M 0.06,0.05999756 H 350.68701 V 137.73 H 0.06 Z" /></clipPath></defs><g
     transform="matrix(1.3333333,0,0,-1.3333333,0,184)"
     id="g10"><g
       id="g12" /><g
       id="g14" /><g
       id="g16"><g
         id="g18"><g
           clip-path="url(#clipPath24)"
           id="g20"><g
             id="g26" /><g
             id="g28"><path
               id="path30"
               style="fill:#a5a3a4;fill-opacity:1;fill-rule:nonzero;stroke:none"
               d="m 63.700001,56.706001 c 0,-5.952999 -4.825997,-10.778999 -10.780003,-10.778999 -5.953995,0 -10.779999,4.826 -10.779999,10.778999 0,5.953999 4.826004,10.779999 10.779999,10.779999 5.954006,0 10.780003,-4.826 10.780003,-10.779999" /><path
               id="path32"
               style="fill:none;stroke:#231f20;stroke-width:1;stroke-linecap:butt;stroke-linejoin:miter;stroke-miterlimit:4;stroke-dasharray:none;stroke-opacity:1"
               d="m 63.700001,56.706001 c 0,-5.952999 -4.825997,-10.778999 -10.780003,-10.778999 -5.953995,0 -10.779999,4.826 -10.779999,10.778999 0,5.953999 4.826004,10.779999 10.779999,10.779999 5.954006,0 10.780003,-4.826 10.780003,-10.779999 z" /><path
               id="path34"
               style="fill:#a5a3a4;fill-opacity:1;fill-rule:nonzero;stroke:none"
               d="m 302.82101,107.66701 c 0,-5.954 -4.82598,-10.780009 -10.77999,-10.780009 -5.95401,0 -10.78,4.826009 -10.78,10.780009 0,5.95299 4.82599,10.779 10.78,10.779 5.95401,0 10.77999,-4.82601 10.77999,-10.779" /><path
               id="path36"
               style="fill:none;stroke:#231f20;stroke-width:1;stroke-linecap:butt;stroke-linejoin:miter;stroke-miterlimit:4;stroke-dasharray:none;stroke-opacity:1"
               d="m 302.82101,107.66701 c 0,-5.954 -4.82598,-10.780009 -10.77999,-10.780009 -5.95401,0 -10.78,4.826009 -10.78,10.780009 0,5.95299 4.82599,10.779 10.78,10.779 5.95401,0 10.77999,-4.82601 10.77999,-10.779 z" /></g><g
             id="g38"><g
               clip-path="url(#clipPath44)"
               id="g40"><path
                 id="path46"
                 style="fill:#231f20;fill-opacity:1;fill-rule:nonzero;stroke:none"
                 d="M 0,1.5 H 328.62601" /><path
                 id="path48"
                 style="fill:none;stroke:#231f20;stroke-width:3;stroke-linecap:butt;stroke-linejoin:miter;stroke-miterlimit:4;stroke-dasharray:none;stroke-opacity:1"
                 d="M 0,1.5 H 328.62601" /></g></g><g
             id="g50"><path
               id="path52"
               style="fill:none;stroke:#231f20;stroke-width:0.80000001;stroke-linecap:butt;stroke-linejoin:miter;stroke-miterlimit:4;stroke-dasharray:3, 3, 3, 3, 3, 3, 3, 3, 3, 3;stroke-dashoffset:0;stroke-opacity:1"
               d="M 52.267002,56.379997 H 293.34702 V 107.993 Z" /><path
               id="path54"
               style="fill:#231f20;fill-opacity:1;fill-rule:nonzero;stroke:none"
               d="M 145.041,125.634 V 2.8050001" /></g><g
             id="g56"><g
               clip-path="url(#clipPath62)"
               id="g58"><path
                 id="path64"
                 style="fill:none;stroke:#231f20;stroke-width:2;stroke-linecap:butt;stroke-linejoin:miter;stroke-miterlimit:4;stroke-dasharray:none;stroke-opacity:1"
                 d="M 145.041,125.634 V 2.8050001" /></g></g><g
             id="g66"><path
               id="path68"
               style="fill:none;stroke:#231f20;stroke-width:0.80000001;stroke-linecap:butt;stroke-linejoin:miter;stroke-miterlimit:4;stroke-dasharray:3, 3, 3, 3, 3, 3, 3, 3, 3, 3;stroke-dashoffset:0;stroke-opacity:1"
               d="M 52.267002,56.379997 145.041,125.634" /><path
               id="path70"
               style="fill:#231f20;fill-opacity:1;fill-rule:nonzero;stroke:none"
               d="M 291.38702,107.993 145.041,125.634" /><path
               id="path72"
               style="fill:none;stroke:#231f20;stroke-width:0.80000001;stroke-linecap:butt;stroke-linejoin:miter;stroke-miterlimit:4;stroke-dasharray:3, 3, 3, 3, 3, 3, 3, 3, 3, 3;stroke-dashoffset:0;stroke-opacity:1"
               d="M 291.38702,107.993 145.041,125.634" /><path
               id="path74"
               style="fill:#231f20;fill-opacity:1;fill-rule:nonzero;stroke:none"
               d="m 153.61201,107.34 h 129.204" /><path
               id="path76"
               style="fill:none;stroke:#231f20;stroke-width:1;stroke-linecap:butt;stroke-linejoin:miter;stroke-miterlimit:4;stroke-dasharray:none;stroke-opacity:1"
               d="m 153.61201,107.34 h 129.204" /><path
               id="path78"
               style="fill:#231f20;fill-opacity:1;fill-rule:nonzero;stroke:none"
               d="m 285.20203,108.37501 c -1.67203,0.504 -2.75501,0.96799 -4.095,1.50599 v -5.092 c 0.47998,0.22801 2.42297,1.00201 4.095,1.50601 1.78598,0.539 3.401,0.90799 4.45297,1.04 -1.05197,0.13099 -2.66699,0.5 -4.45297,1.04" /><path
               id="path80"
               style="fill:#231f20;fill-opacity:1;fill-rule:nonzero;stroke:none"
               d="m 151.22801,106.30601 c 1.66899,-0.50401 2.754,-0.969 4.09198,-1.50601 v 5.09201 c -0.47899,-0.22801 -2.42299,-1.001 -4.09198,-1.50601 -1.78601,-0.53899 -3.405,-0.90899 -4.45601,-1.03999 1.05101,-0.13201 2.67,-0.501 4.45601,-1.04" /><path
               id="path82"
               style="fill:#a5a3a4;fill-opacity:1;fill-rule:nonzero;stroke:none"
               d="M 122.828,8.033 V 119.75301" /><path
               id="path84"
               style="fill:none;stroke:#231f20;stroke-width:1;stroke-linecap:butt;stroke-linejoin:miter;stroke-miterlimit:4;stroke-dasharray:none;stroke-opacity:1"
               d="M 122.828,8.033 V 119.75301" /><path
               id="path86"
               style="fill:#231f20;fill-opacity:1;fill-rule:nonzero;stroke:none"
               d="m 121.82301,122.06701 c -0.489,-1.62 -0.94101,-2.67301 -1.462,-3.972 h 4.943 c -0.22,0.464 -0.972,2.352 -1.46101,3.972 -0.52399,1.735 -0.883,3.307 -1.00999,4.32699 -0.128,-1.01999 -0.487,-2.59199 -1.01,-4.32699" /><path
               id="path88"
               style="fill:#231f20;fill-opacity:1;fill-rule:nonzero;stroke:none"
               d="m 123.83301,5.7180004 c 0.489,1.6199999 0.93899,2.6739998 1.46,3.9729996 H 120.35 c 0.22201,-0.4649992 0.97301,-2.3529997 1.462,-3.9729996 0.52301,-1.7340002 0.88301,-3.3060002 1.01101,-4.3260003 0.12699,1.0200001 0.485,2.5920001 1.01,4.3260003" /><path
               id="path90"
               style="fill:#a5a3a4;fill-opacity:1;fill-rule:nonzero;stroke:none"
               d="M 58.147003,40.699001 H 134.58701" /><path
               id="path92"
               style="fill:none;stroke:#231f20;stroke-width:1;stroke-linecap:butt;stroke-linejoin:miter;stroke-miterlimit:4;stroke-dasharray:none;stroke-opacity:1"
               d="M 58.147003,40.699001 H 134.58701" /><path
               id="path94"
               style="fill:#231f20;fill-opacity:1;fill-rule:nonzero;stroke:none"
               d="m 136.90201,41.704002 c -1.62,0.489998 -2.674,0.939999 -3.974,1.461998 v -4.942997 c 0.466,0.219998 2.354,0.972001 3.974,1.460999 1.73399,0.525001 3.306,0.882999 4.326,1.011002 -1.02,0.126998 -2.59201,0.486 -4.326,1.008998" /><path
               id="path96"
               style="fill:#231f20;fill-opacity:1;fill-rule:nonzero;stroke:none"
               d="m 55.832005,39.695004 c 1.619998,-0.489003 2.673999,-0.939003 3.973999,-1.461003 v 4.943001 C 59.34,42.956001 57.452003,42.204002 55.832005,41.716003 54.099003,41.191002 52.526001,40.833 51.506004,40.705002 c 1.019997,-0.127999 2.592999,-0.486 4.326001,-1.009998" /><path
               id="path98"
               style="fill:#a5a3a4;fill-opacity:1;fill-rule:nonzero;stroke:none"
               d="M 33.974003,9.3390007 V 49.846001" /><path
               id="path100"
               style="fill:none;stroke:#231f20;stroke-width:1;stroke-linecap:butt;stroke-linejoin:miter;stroke-miterlimit:4;stroke-dasharray:none;stroke-opacity:1"
               d="M 33.974003,9.3390007 V 49.846001" /><path
               id="path102"
               style="fill:#231f20;fill-opacity:1;fill-rule:nonzero;stroke:none"
               d="M 32.969002,52.161003 C 32.479,50.541004 32.029003,49.487003 31.508001,48.187004 H 36.451 c -0.222,0.464996 -0.972,2.354 -1.461998,3.973999 -0.522999,1.734001 -0.882999,3.306999 -1.010002,4.326 -0.126999,-1.019001 -0.486999,-2.591999 -1.009998,-4.326" /><path
               id="path104"
               style="fill:#231f20;fill-opacity:1;fill-rule:nonzero;stroke:none"
               d="m 34.979,7.0250001 c 0.489002,1.6200004 0.940003,2.6730008 1.460999,3.9729999 h -4.943997 c 0.222,-0.464999 0.973995,-2.3529995 1.461998,-3.9729999 0.524002,-1.7329998 0.883003,-3.3069999 1.011002,-4.326 0.127998,1.0190001 0.485,2.5930002 1.009998,4.326" /><path
               id="path106"
               style="fill:#a5a3a4;fill-opacity:1;fill-rule:nonzero;stroke:none"
               d="M 311.63998,9.993 V 98.846008" /><path
               id="path108"
               style="fill:none;stroke:#231f20;stroke-width:1;stroke-linecap:butt;stroke-linejoin:miter;stroke-miterlimit:4;stroke-dasharray:none;stroke-opacity:1"
               d="M 311.63998,9.993 V 98.846008" /><path
               id="path110"
               style="fill:#231f20;fill-opacity:1;fill-rule:nonzero;stroke:none"
               d="m 310.63702,101.161 c -0.48901,-1.619992 -0.94,-2.673993 -1.46301,-3.973996 h 4.944 c -0.22198,0.465004 -0.974,2.354004 -1.461,3.973996 -0.52499,1.734 -0.88199,3.307 -1.01098,4.32601 -0.129,-1.01901 -0.48603,-2.59201 -1.00901,-4.32601" /><path
               id="path112"
               style="fill:#231f20;fill-opacity:1;fill-rule:nonzero;stroke:none"
               d="m 312.64401,7.6780005 c 0.491,1.6199998 0.94,2.6739995 1.46302,3.9730005 H 309.164 c 0.22,-0.465 0.97202,-2.3530007 1.46201,-3.9730005 0.52398,-1.7340003 0.88202,-3.3060003 1.01001,-4.3260003 0.12698,1.02 0.48599,2.592 1.00799,4.3260003" /><text
               id="text116"
               style="font-variant:normal;font-weight:normal;font-size:11.95500088px;font-family:CMMI12;-inkscape-font-specification:CMMI12;writing-mode:lr-tb;fill:#231f20;fill-opacity:1;fill-rule:nonzero;stroke:none"
               transform="matrix(1,0,0,-1,19.626001,24.764002)"><tspan
                 id="tspan114"
                 y="0"
                 x="0 6.7306657">hs</tspan></text>
<text
               id="text120"
               style="font-variant:normal;font-weight:normal;font-size:11.95500088px;font-family:CMMI12;-inkscape-font-specification:CMMI12;writing-mode:lr-tb;fill:#231f20;fill-opacity:1;fill-rule:nonzero;stroke:none"
               transform="matrix(1,0,0,-1,99.114807,34.097271)"><tspan
                 id="tspan118"
                 y="0"
                 x="0">s</tspan></text>
<text
               id="text124"
               style="font-variant:normal;font-weight:normal;font-size:11.95500088px;font-family:CMMI12;-inkscape-font-specification:CMMI12;writing-mode:lr-tb;fill:#231f20;fill-opacity:1;fill-rule:nonzero;stroke:none"
               transform="matrix(1,0,0,-1,33.981575,57.560154)"><tspan
                 id="tspan122"
                 y="0"
                 x="0">S</tspan></text>
<text
               id="text128"
               style="font-variant:normal;font-weight:normal;font-size:13.3895998px;font-family:CMMI12;-inkscape-font-specification:CMMI12;writing-mode:lr-tb;fill:#231f20;fill-opacity:1;fill-rule:nonzero;stroke:none"
               transform="matrix(1,0,0,-1,149.40001,45.244198)"><tspan
                 id="tspan126"
                 y="0"
                 x="0">U</tspan></text>
<text
               id="text132"
               style="font-variant:normal;font-weight:normal;font-size:11.95500088px;font-family:CMMI12;-inkscape-font-specification:CMMI12;writing-mode:lr-tb;fill:#231f20;fill-opacity:1;fill-rule:nonzero;stroke:none"
               transform="matrix(1,0,0,-1,110.76201,80.097694)"><tspan
                 id="tspan130"
                 y="0"
                 x="0">H</tspan></text>
<text
               id="text136"
               style="font-variant:normal;font-weight:normal;font-size:11.95500088px;font-family:CMMI12;-inkscape-font-specification:CMMI12;writing-mode:lr-tb;fill:#231f20;fill-opacity:1;fill-rule:nonzero;stroke:none"
               transform="matrix(1,0,0,-1,147.28693,94.097)"><tspan
                 id="tspan134"
                 y="0"
                 x="0">W</tspan></text>
<text
               id="text140"
               style="font-variant:normal;font-weight:normal;font-size:11.95500088px;font-family:CMMI12;-inkscape-font-specification:CMMI12;writing-mode:lr-tb;fill:#231f20;fill-opacity:1;fill-rule:nonzero;stroke:none"
               transform="matrix(1,0,0,-1,142.53242,128.76291)"><tspan
                 id="tspan138"
                 y="0"
                 x="0">T</tspan></text>
<text
               id="text144"
               style="font-variant:normal;font-weight:normal;font-size:11.95500088px;font-family:CMMI12;-inkscape-font-specification:CMMI12;writing-mode:lr-tb;fill:#231f20;fill-opacity:1;fill-rule:nonzero;stroke:none"
               transform="matrix(1,0,0,-1,190.64772,87.5588)"><tspan
                 id="tspan142"
                 y="0"
                 x="0">r</tspan></text>
<text
               id="text148"
               style="font-variant:normal;font-weight:normal;font-size:11.95500088px;font-family:CMMI12;-inkscape-font-specification:CMMI12;writing-mode:lr-tb;fill:#231f20;fill-opacity:1;fill-rule:nonzero;stroke:none"
               transform="matrix(1,0,0,-1,287.75821,44.763485)"><tspan
                 id="tspan146"
                 y="0"
                 x="0">V</tspan></text>
<text
               id="text152"
               style="font-variant:normal;font-weight:normal;font-size:11.95500088px;font-family:CMMI12;-inkscape-font-specification:CMMI12;writing-mode:lr-tb;fill:#231f20;fill-opacity:1;fill-rule:nonzero;stroke:none"
               transform="matrix(1,0,0,-1,316.41913,50.096611)"><tspan
                 id="tspan150"
                 y="0"
                 x="0 6.7306657">hr</tspan></text>
<text
               id="text156"
               style="font-variant:normal;font-weight:normal;font-size:11.95500088px;font-family:CMMI12;-inkscape-font-specification:CMMI12;writing-mode:lr-tb;fill:#231f20;fill-opacity:1;fill-rule:nonzero;stroke:none"
               transform="matrix(1,0,0,-1,289.99258,121.42971)"><tspan
                 id="tspan154"
                 y="0"
                 x="0">R</tspan></text>
<text
               id="text160"
               style="font-variant:normal;font-weight:normal;font-size:11.95500088px;font-family:CMR12;-inkscape-font-specification:CMR12;writing-mode:lr-tb;fill:#231f20;fill-opacity:1;fill-rule:nonzero;stroke:none"
               transform="matrix(1,0,0,-1,148.98097,17.174929)"><tspan
                 id="tspan158"
                 y="0"
                 x="0 6.4915657 12.337561 16.880461 21.423363 24.663168 29.863592">barrier</tspan></text>
<text
               id="text164"
               style="font-variant:normal;font-weight:normal;font-size:11.95500088px;font-family:CMR12;-inkscape-font-specification:CMR12;writing-mode:lr-tb;fill:#231f20;fill-opacity:1;fill-rule:nonzero;stroke:none"
               transform="matrix(1,0,0,-1,16.018652,71.175667)"><tspan
                 id="tspan162"
                 y="0"
                 x="0 4.6146302 10.460626 16.952192 21.495092 26.695517">source</tspan></text>
<text
               id="text168"
               style="font-variant:normal;font-weight:normal;font-size:11.95500088px;font-family:CMR12;-inkscape-font-specification:CMR12;writing-mode:lr-tb;fill:#231f20;fill-opacity:1;fill-rule:nonzero;stroke:none"
               transform="matrix(1,0,0,-1,311.39206,113.94707)"><tspan
                 id="tspan166"
                 y="0"
                 x="0 4.5429006 9.7433262 14.943751 20.144176 23.383982 29.552763 34.753189">receiver</tspan></text>
</g></g></g></g></g></svg>