<?xml version="1.0" encoding="UTF-8" standalone="no"?>
<svg
   xmlns:dc="http://purl.org/dc/elements/1.1/"
   xmlns:cc="http://creativecommons.org/ns#"
   xmlns:rdf="http://www.w3.org/1999/02/22-rdf-syntax-ns#"
   xmlns:svg="http://www.w3.org/2000/svg"
   xmlns="http://www.w3.org/2000/svg"
   viewBox="0 0 113.33333 112"
   height="112"
   width="113.33333"
   xml:space="preserve"
   id="svg2"
   version="1.1"><metadata
     id="metadata8"><rdf:RDF><cc:Work
         rdf:about=""><dc:format>image/svg+xml</dc:format><dc:type
           rdf:resource="http://purl.org/dc/dcmitype/StillImage" /></cc:Work></rdf:RDF></metadata><defs
     id="defs6"><clipPath
       id="clipPath24"
       clipPathUnits="userSpaceOnUse"><path
         id="path22"
         d="M 0,0 H 85 V 84 H 0 Z" /></clipPath><clipPath
       id="clipPath82"
       clipPathUnits="userSpaceOnUse"><path
         id="path80"
         d="M 0,0.06000519 H 84.803001 V 83.057007 H 0 Z" /></clipPath></defs><g
     transform="matrix(1.3333333,0,0,-1.3333333,0,112)"
     id="g10"><g
       id="g12" /><g
       id="g14" /><g
       id="g16"><g
         id="g18"><g
           clip-path="url(#clipPath24)"
           id="g20"><g
             id="g26" /><g
             id="g28"><text
               id="text32"
               style="font-variant:normal;font-weight:normal;font-size:9.56400013px;font-family:CMMI12;-inkscape-font-specification:CMMI12;writing-mode:lr-tb;fill:#231f20;fill-opacity:1;fill-rule:nonzero;stroke:none"
               transform="matrix(1,0,0,-1,0,9.9980993)"><tspan
                 id="tspan30"
                 y="0"
                 x="0">A</tspan></text>
<text
               id="text36"
               style="font-variant:normal;font-weight:normal;font-size:9.56400013px;font-family:CMMI12;-inkscape-font-specification:CMMI12;writing-mode:lr-tb;fill:#231f20;fill-opacity:1;fill-rule:nonzero;stroke:none"
               transform="matrix(1,0,0,-1,75.675148,5.9984345)"><tspan
                 id="tspan34"
                 y="0"
                 x="0">C</tspan></text>
<text
               id="text40"
               style="font-variant:normal;font-weight:normal;font-size:6.6947999px;font-family:CMR12;-inkscape-font-specification:CMR12;writing-mode:lr-tb;fill:#231f20;fill-opacity:1;fill-rule:nonzero;stroke:none"
               transform="matrix(1,0,0,-1,65.981895,63.585197)"><tspan
                 id="tspan38"
                 y="0"
                 x="0 3.2737572">45</tspan></text>
<text
               id="text44"
               style="font-variant:normal;font-weight:normal;font-size:9.56400013px;font-family:CMMI12;-inkscape-font-specification:CMMI12;writing-mode:lr-tb;fill:#231f20;fill-opacity:1;fill-rule:nonzero;stroke:none"
               transform="matrix(1,0,0,-1,61.5742,73.873596)"><tspan
                 id="tspan42"
                 y="0"
                 x="0">B</tspan></text>
<path
               id="path46"
               style="fill:#ffffff;fill-opacity:1;fill-rule:nonzero;stroke:none"
               d="M 73.779007,12.539001 V 77.125" /><path
               id="path48"
               style="fill:none;stroke:#231f20;stroke-width:1;stroke-linecap:butt;stroke-linejoin:miter;stroke-miterlimit:4;stroke-dasharray:none;stroke-opacity:1"
               d="M 73.779007,12.539001 V 77.125 m 0,0.748001 L 9.566,12.165001 h 64.586 m -52.604,12.358 c 3.195002,-2.997 5.191,-7.257 5.191,-11.984 m 47.030997,46.895001 c -4.368996,0.319 -8.600991,2.375 -11.574993,6.048" /><text
               id="text52"
               style="font-variant:normal;font-weight:normal;font-size:6.6947999px;font-family:CMR12;-inkscape-font-specification:CMR12;writing-mode:lr-tb;fill:#231f20;fill-opacity:1;fill-rule:nonzero;stroke:none"
               transform="matrix(1,0,0,-1,16.8062,14.807099)"><tspan
                 id="tspan50"
                 y="0"
                 x="0 3.2737572">45</tspan></text>
<path
               id="path54"
               style="fill:none;stroke:#231f20;stroke-width:1;stroke-linecap:butt;stroke-linejoin:miter;stroke-miterlimit:4;stroke-dasharray:none;stroke-opacity:1"
               d="M 12.552001,8.059 H 70.419998" /><path
               id="path56"
               style="fill:#231f20;fill-opacity:1;fill-rule:nonzero;stroke:none"
               d="m 71.742004,8.6330004 c -0.926002,0.2799997 -1.527999,0.5369997 -2.270004,0.835 V 6.6430001 c 0.265,0.1269999 1.344002,0.5560003 2.270004,0.8360005 0.989998,0.2989998 1.889,0.5039997 2.472001,0.5770001 -0.583001,0.073 -1.482003,0.2779999 -2.472001,0.5769997" /><path
               id="path58"
               style="fill:#231f20;fill-opacity:1;fill-rule:nonzero;stroke:none"
               d="M 11.23,7.4850001 C 12.155001,7.2060003 12.757001,6.9480004 13.5,6.6499996 V 9.4750004 C 13.234,9.3480005 12.155001,8.9190006 11.23,8.6389999 10.239,8.3400002 9.3400002,8.1350002 8.7580004,8.0620003 9.3400002,7.9890003 10.239,7.7840004 11.23,7.4850001" /><path
               id="path60"
               style="fill:#ffffff;fill-opacity:1;fill-rule:nonzero;stroke:none"
               d="M 31.569002,10.389001 H 50.769005 V 3.9890009 H 31.569002 Z" /><path
               id="path62"
               style="fill:none;stroke:#ffffff;stroke-width:1;stroke-linecap:butt;stroke-linejoin:miter;stroke-miterlimit:4;stroke-dasharray:none;stroke-opacity:1"
               d="M 31.569002,10.389001 H 50.769005 V 3.9890008 H 31.569002 Z" /><text
               id="text66"
               style="font-variant:normal;font-weight:normal;font-size:9.56400013px;font-family:CMMI12;-inkscape-font-specification:CMMI12;writing-mode:lr-tb;fill:#231f20;fill-opacity:1;fill-rule:nonzero;stroke:none"
               transform="matrix(1,0,0,-1,38.522499,5.6068997)"><tspan
                 id="tspan64"
                 y="0"
                 x="0">x</tspan></text>
<path
               id="path68"
               style="fill:none;stroke:#231f20;stroke-width:1;stroke-linecap:butt;stroke-linejoin:miter;stroke-miterlimit:4;stroke-dasharray:none;stroke-opacity:1"
               d="M 80.5,16.272001 V 74.139" /><path
               id="path70"
               style="fill:#231f20;fill-opacity:1;fill-rule:nonzero;stroke:none"
               d="m 79.926003,75.462006 c -0.279999,-0.926003 -0.538003,-1.528 -0.836007,-2.271004 h 2.825005 c -0.126,0.265999 -0.556,1.345001 -0.835999,2.271004 -0.299003,0.990997 -0.503997,1.889 -0.575996,2.472 -0.07301,-0.583 -0.278,-1.481003 -0.577003,-2.472" /><path
               id="path72"
               style="fill:#231f20;fill-opacity:1;fill-rule:nonzero;stroke:none"
               d="m 81.073006,14.949 c 0.279998,0.926001 0.536995,1.528001 0.835998,2.270999 H 79.084007 C 79.209999,16.954 79.639999,15.875001 79.919006,14.949 c 0.299996,-0.989999 0.504998,-1.889001 0.576996,-2.472 0.073,0.582999 0.278,1.482001 0.577004,2.472" /><path
               id="path74"
               style="fill:#ffffff;fill-opacity:1;fill-rule:nonzero;stroke:none"
               d="M 77.903008,55.722004 H 84.30301 V 36.522003 h -6.400002 z" /></g><g
             id="g76"><g
               clip-path="url(#clipPath82)"
               id="g78"><path
                 id="path84"
                 style="fill:none;stroke:#ffffff;stroke-width:1;stroke-linecap:butt;stroke-linejoin:miter;stroke-miterlimit:4;stroke-dasharray:none;stroke-opacity:1"
                 d="m 77.903008,55.722004 h 6.400001 V 36.522003 h -6.400001 z" /></g></g><g
             id="g86"><text
               id="text90"
               style="font-variant:normal;font-weight:normal;font-size:9.56400013px;font-family:CMMI12;-inkscape-font-specification:CMMI12;writing-mode:lr-tb;fill:#231f20;fill-opacity:1;fill-rule:nonzero;stroke:none"
               transform="matrix(1,0,0,-1,78.242195,43.8652)"><tspan
                 id="tspan88"
                 y="0"
                 x="0">x</tspan></text>
<path
               id="path92"
               style="fill:none;stroke:#231f20;stroke-width:1;stroke-linecap:butt;stroke-linejoin:miter;stroke-miterlimit:4;stroke-dasharray:none;stroke-opacity:1"
               d="m 64.446007,11.792001 v 9.334 H 74.152" /></g></g></g></g></g></svg>