<?xml version="1.0" encoding="UTF-8" standalone="no"?>
<svg
   xmlns:dc="http://purl.org/dc/elements/1.1/"
   xmlns:cc="http://creativecommons.org/ns#"
   xmlns:rdf="http://www.w3.org/1999/02/22-rdf-syntax-ns#"
   xmlns:svg="http://www.w3.org/2000/svg"
   xmlns="http://www.w3.org/2000/svg"
   viewBox="0 0 330.66666 308"
   height="308"
   width="330.66666"
   xml:space="preserve"
   id="svg2"
   version="1.1"><metadata
     id="metadata8"><rdf:RDF><cc:Work
         rdf:about=""><dc:format>image/svg+xml</dc:format><dc:type
           rdf:resource="http://purl.org/dc/dcmitype/StillImage" /></cc:Work></rdf:RDF></metadata><defs
     id="defs6"><clipPath
       id="clipPath24"
       clipPathUnits="userSpaceOnUse"><path
         id="path22"
         d="M 0,0 H 248 V 231 H 0 Z" /></clipPath></defs><g
     transform="matrix(1.3333333,0,0,-1.3333333,0,308)"
     id="g10"><g
       id="g12" /><g
       id="g14" /><g
       id="g16"><g
         id="g18"><g
           clip-path="url(#clipPath24)"
           id="g20"><g
             id="g26" /><g
             id="g28"><path
               id="path30"
               style="fill:#ffffff;fill-opacity:1;fill-rule:nonzero;stroke:#000000;stroke-width:2;stroke-linecap:butt;stroke-linejoin:miter;stroke-miterlimit:4;stroke-dasharray:none;stroke-opacity:1"
               d="" /><path
               id="path32"
               style="fill:#ffffff;fill-opacity:1;fill-rule:nonzero;stroke:#000000;stroke-width:0.80000001;stroke-linecap:butt;stroke-linejoin:miter;stroke-miterlimit:4;stroke-dasharray:none;stroke-opacity:1"
               d="M 117.454,84.358002 C 115.42101,94.405006 109.43201,102.91 100.841,109.232" /><path
               id="path34"
               style="fill:#ffffff;fill-opacity:1;fill-rule:nonzero;stroke:#000000;stroke-width:1;stroke-linecap:butt;stroke-linejoin:miter;stroke-miterlimit:4;stroke-dasharray:none;stroke-opacity:1"
               d="M 100.32,108.56 C 94.295006,113.063 79.979996,106.661 67.711006,93.803001 55.039997,80.524002 49.349003,65.389 54.999004,59.997002" /><path
               id="path36"
               style="fill:#ffffff;fill-opacity:1;fill-rule:nonzero;stroke:#000000;stroke-width:1;stroke-linecap:butt;stroke-linejoin:miter;stroke-miterlimit:4;stroke-dasharray:none;stroke-opacity:1"
               d="" /><path
               id="path38"
               style="fill:#ffffff;fill-opacity:1;fill-rule:nonzero;stroke:#000000;stroke-width:1;stroke-linecap:butt;stroke-linejoin:miter;stroke-miterlimit:4;stroke-dasharray:none;stroke-opacity:1"
               d="m 100.40201,107.286 c -0.18501,0.164 -0.37801,0.31601 -0.580004,0.456" /><path
               id="path40"
               style="fill:none;stroke:#000000;stroke-width:1;stroke-linecap:butt;stroke-linejoin:miter;stroke-miterlimit:4;stroke-dasharray:none;stroke-opacity:1"
               d="M 74,83 V 216" /><path
               id="path42"
               style="fill:#000000;fill-opacity:1;fill-rule:nonzero;stroke:none"
               d="m 74,214.98 -3.602997,-2.19001 -0.081,0.12201 2.333,5.87502 c 0.450005,2.04699 0.900993,4.09399 1.350998,6.14099 0.449997,-2.047 0.901001,-4.094 1.351006,-6.14099 l 2.333999,-5.87502 -0.062,-0.12201 L 74,214.98" /><path
               id="path44"
               style="fill:#000000;fill-opacity:1;fill-rule:nonzero;stroke:none"
               d="m 234.19301,84.351006 -2.191,3.602996 0.12301,0.082 5.87498,-2.334 c 2.04701,-0.449996 4.09401,-0.901 6.14101,-1.350997 C 242.09401,83.901001 240.04701,83.449997 238,83 l -5.87498,-2.334 -0.12301,0.062 2.191,3.623002" /><path
               id="path46"
               style="fill:none;stroke:#000000;stroke-width:1;stroke-linecap:butt;stroke-linejoin:miter;stroke-miterlimit:4;stroke-dasharray:none;stroke-opacity:1"
               d="M 14.563001,9.375 72.655006,82.406006" /><path
               id="path48"
               style="fill:none;stroke:#000000;stroke-width:1.5;stroke-linecap:butt;stroke-linejoin:miter;stroke-miterlimit:4;stroke-dasharray:none;stroke-opacity:1"
               d="m 74,84 107,99" /><path
               id="path50"
               style="fill:#000000;fill-opacity:1;fill-rule:nonzero;stroke:none"
               d="m 180.25101,182.30701 -4.054,1.15699 0.035,0.144 5.896,2.27701 c 1.809,1.05901 3.617,2.119 5.425,3.179 -1.196,-1.72101 -2.39302,-3.442 -3.58901,-5.16299 l -2.72799,-5.70201 -0.13201,-0.039 -0.85299,4.14702" /><path
               id="path52"
               style="fill:#000000;fill-opacity:1;fill-rule:nonzero;stroke:none"
               d="m 14.563001,9.375 4.182,-0.5289993 -0.012,-0.1470003 -5.484001,-3.145 C 11.623,4.2330003 9.9960003,2.9110003 8.3690004,1.5899999 9.2910004,3.4720001 10.213,5.3540001 11.135,7.2370005 l 1.831001,6.0500005 0.123999,0.058 1.473001,-3.97" /><path
               id="path54"
               style="fill:none;stroke:#000000;stroke-width:1;stroke-linecap:butt;stroke-linejoin:miter;stroke-miterlimit:4;stroke-dasharray:none;stroke-opacity:1"
               d="M 99.540001,109.186 C 93.321007,118.27501 83.743004,124.09801 73,124.09801" /><text
               id="text58"
               style="font-style:italic;font-variant:normal;font-size:12px;font-family:Times;-inkscape-font-specification:Times-Italic;writing-mode:lr-tb;fill:#000000;fill-opacity:1;fill-rule:nonzero;stroke:none"
               transform="matrix(1,0,0,-1,192,184)"><tspan
                 id="tspan56"
                 y="0"
                 x="0 7.3319998 11.328 17.327999 20.327999 26.327999 29.327999 34.655998">P(a,b,c)</tspan></text>
<text
               id="text62"
               style="font-style:italic;font-variant:normal;font-size:12px;font-family:Times;-inkscape-font-specification:Times-Italic;writing-mode:lr-tb;fill:#000000;fill-opacity:1;fill-rule:nonzero;stroke:none"
               transform="matrix(1,0,0,-1,242.0004,73)"><tspan
                 id="tspan60"
                 y="0"
                 x="0">y</tspan></text>
<text
               id="text66"
               style="font-style:italic;font-variant:normal;font-size:12px;font-family:Times;-inkscape-font-specification:Times-Italic;writing-mode:lr-tb;fill:#000000;fill-opacity:1;fill-rule:nonzero;stroke:none"
               transform="matrix(1,0,0,-1,0,3)"><tspan
                 id="tspan64"
                 y="0"
                 x="0">x</tspan></text>
<text
               id="text70"
               style="font-style:italic;font-variant:normal;font-size:12px;font-family:Times;-inkscape-font-specification:Times-Italic;writing-mode:lr-tb;fill:#000000;fill-opacity:1;fill-rule:nonzero;stroke:none"
               transform="matrix(1,0,0,-1,64,220)"><tspan
                 id="tspan68"
                 y="0"
                 x="0">z</tspan></text>
<text
               id="text74"
               style="font-variant:normal;font-weight:normal;font-size:12px;font-family:Symbol;-inkscape-font-specification:Symbol;writing-mode:lr-tb;fill:#000000;fill-opacity:1;fill-rule:nonzero;stroke:none"
               transform="matrix(1,0,0,-1,57.000401,94.999603)"><tspan
                 id="tspan72"
                 y="0"
                 x="0">!</tspan></text>
<text
               id="text78"
               style="font-variant:normal;font-weight:normal;font-size:12px;font-family:Symbol;-inkscape-font-specification:Symbol;writing-mode:lr-tb;fill:#000000;fill-opacity:1;fill-rule:nonzero;stroke:none"
               transform="matrix(1,0,0,-1,117.5008,96.499603)"><tspan
                 id="tspan76"
                 y="0"
                 x="0">&quot;</tspan></text>
<text
               id="text82"
               style="font-variant:normal;font-weight:normal;font-size:12px;font-family:Symbol;-inkscape-font-specification:Symbol;writing-mode:lr-tb;fill:#000000;fill-opacity:1;fill-rule:nonzero;stroke:none"
               transform="matrix(1,0,0,-1,92.000801,124)"><tspan
                 id="tspan80"
                 y="0"
                 x="0">#</tspan></text>
<path
               id="path84"
               style="fill:#000000;fill-opacity:1;fill-rule:nonzero;stroke:#000000;stroke-width:1;stroke-linecap:butt;stroke-linejoin:miter;stroke-miterlimit:4;stroke-dasharray:none;stroke-opacity:1"
               d="m 74.5,84.5 h 159" /></g></g></g></g></g></svg>