<?xml version="1.0" encoding="UTF-8" standalone="no"?>
<svg
   xmlns:dc="http://purl.org/dc/elements/1.1/"
   xmlns:cc="http://creativecommons.org/ns#"
   xmlns:rdf="http://www.w3.org/1999/02/22-rdf-syntax-ns#"
   xmlns:svg="http://www.w3.org/2000/svg"
   xmlns="http://www.w3.org/2000/svg"
   viewBox="0 0 241.33333 236"
   height="236"
   width="241.33333"
   xml:space="preserve"
   id="svg2"
   version="1.1"><metadata
     id="metadata8"><rdf:RDF><cc:Work
         rdf:about=""><dc:format>image/svg+xml</dc:format><dc:type
           rdf:resource="http://purl.org/dc/dcmitype/StillImage" /></cc:Work></rdf:RDF></metadata><defs
     id="defs6"><clipPath
       id="clipPath24"
       clipPathUnits="userSpaceOnUse"><path
         id="path22"
         d="M 0,0 H 181 V 177 H 0 Z" /></clipPath></defs><g
     transform="matrix(1.3333333,0,0,-1.3333333,0,236)"
     id="g10"><g
       id="g12" /><g
       id="g14" /><g
       id="g16"><g
         id="g18"><g
           clip-path="url(#clipPath24)"
           id="g20"><g
             id="g26" /><g
             id="g28"><path
               id="path30"
               style="fill:none;stroke:#000000;stroke-width:0.90000004;stroke-linecap:butt;stroke-linejoin:miter;stroke-miterlimit:4;stroke-dasharray:none;stroke-opacity:1"
               d="M 16.888,1.3180001 V 157.91901" /><path
               id="path32"
               style="fill:#000000;fill-opacity:1;fill-rule:nonzero;stroke:none"
               d="m 16.888,157.00101 -3.241999,-1.97101 -0.074,0.11101 2.1,5.287 c 0.406,1.84198 0.811001,3.685 1.215999,5.52699 0.406001,-1.84199 0.811001,-3.68501 1.216,-5.52699 l 2.1,-5.287 -0.055,-0.11101 -3.261,1.97101" /><path
               id="path34"
               style="fill:none;stroke:#000000;stroke-width:0.90000004;stroke-linecap:butt;stroke-linejoin:miter;stroke-miterlimit:4;stroke-dasharray:none;stroke-opacity:1"
               d="m 16.706001,39.118 h -3.848 M 16.74,60.718002 H 12.893001 M 16.827002,82.319 h -3.848001 m 3.727,21.00001 h -3.848 M 16.288,125.519 h -3.846999 m 4.351001,21.6 H 12.945001 M 0.71400005,17.492001 H 158.216" /><path
               id="path36"
               style="fill:#000000;fill-opacity:1;fill-rule:nonzero;stroke:none"
               d="m 157.298,17.492001 -1.97099,3.242 0.11,0.074 5.288,-2.100001 c 1.84199,-0.406 3.684,-0.810999 5.527,-1.215999 -1.843,-0.406001 -3.68501,-0.810999 -5.527,-1.216 l -5.288,-2.1 -0.11,0.055 1.97099,3.261" /><path
               id="path38"
               style="fill:none;stroke:#000000;stroke-width:0.90000004;stroke-linecap:butt;stroke-linejoin:miter;stroke-miterlimit:4;stroke-dasharray:none;stroke-opacity:1"
               d="m 38.065002,17.318001 v -3.848002 m 21.600003,3.848002 v -3.848002 m 21.600002,3.848002 v -3.848002 m 21.600003,3.726002 v -3.847 m 21.00099,4.004 v -3.848 M 146.06601,17.309 V 13.461 M 16.877001,17.518002 102.37801,125.519" /><path
               id="path40"
               style="fill:#000000;fill-opacity:1;fill-rule:nonzero;stroke:none"
               d="m 56.578003,67.919006 -3.765999,0.466996 0.011,0.132003 4.928001,2.841996 c 1.461998,1.193 2.923001,2.386001 4.383999,3.579002 C 61.31,73.243004 60.484003,71.547005 59.658003,69.849998 l -1.634998,-5.448997 -0.112,-0.05199 -1.333,3.569999" /><text
               id="text44"
               style="font-style:italic;font-variant:normal;font-size:12px;font-family:Times;-inkscape-font-specification:Times-Italic;writing-mode:lr-tb;fill:#000000;fill-opacity:1;fill-rule:nonzero;stroke:none"
               transform="matrix(1,0,0,-1,106.5779,123.4191)"><tspan
                 id="tspan42"
                 y="0"
                 x="0">P</tspan></text>
<text
               id="text48"
               style="font-style:italic;font-variant:normal;font-size:12px;font-family:Times;-inkscape-font-specification:Times-Italic;writing-mode:lr-tb;fill:#000000;fill-opacity:1;fill-rule:nonzero;stroke:none"
               transform="matrix(1,0,0,-1,117.7499,123.4191)"><tspan
                 id="tspan46"
                 y="0"
                 x="0 3.9960001 9.9960003 12.996 18.996">(4,5)</tspan></text>
<text
               id="text52"
               style="font-style:italic;font-variant:normal;font-size:11px;font-family:Times;-inkscape-font-specification:Times-Italic;writing-mode:lr-tb;fill:#000000;fill-opacity:1;fill-rule:nonzero;stroke:none"
               transform="matrix(1,0,0,-1,7,7.5)"><tspan
                 id="tspan50"
                 y="0"
                 x="0">O</tspan></text>
<text
               id="text56"
               style="font-variant:normal;font-weight:normal;font-size:11px;font-family:Symbol;-inkscape-font-specification:Symbol;writing-mode:lr-tb;fill:#000000;fill-opacity:1;fill-rule:nonzero;stroke:none"
               transform="matrix(1,0,0,-1,33.3769,24.418001)"><tspan
                 id="tspan54"
                 y="0"
                 x="0">!</tspan></text>
<text
               id="text60"
               style="font-variant:normal;font-weight:normal;font-size:11px;font-family:Symbol;-inkscape-font-specification:Symbol;writing-mode:lr-tb;fill:#000000;fill-opacity:1;fill-rule:nonzero;stroke:none"
               transform="matrix(1,0,0,-1,22.577101,40.0182)"><tspan
                 id="tspan58"
                 y="0"
                 x="0">&quot;</tspan></text>
<path
               id="path62"
               style="fill:none;stroke:#000000;stroke-width:0.60000002;stroke-linecap:butt;stroke-linejoin:miter;stroke-miterlimit:4;stroke-dasharray:none;stroke-opacity:1"
               d="m 25.429001,28.604002 c 3.314001,-2.560001 5.449001,-6.574003 5.449001,-11.086 M 16.877001,35.762001 c 4.129,0 7.937,-1.372002 10.994001,-3.683998" /><text
               id="text66"
               style="font-variant:normal;font-weight:normal;font-size:11px;font-family:Times;-inkscape-font-specification:Times-Roman;writing-mode:lr-tb;fill:#000000;fill-opacity:1;fill-rule:nonzero;stroke:none"
               transform="matrix(1,0,0,-1,98.801796,3)"><tspan
                 id="tspan64"
                 y="0"
                 x="0">4</tspan></text>
<text
               id="text70"
               style="font-variant:normal;font-weight:normal;font-size:11px;font-family:Times;-inkscape-font-specification:Times-Roman;writing-mode:lr-tb;fill:#000000;fill-opacity:1;fill-rule:nonzero;stroke:none"
               transform="matrix(1,0,0,-1,3.9774017,123.4192)"><tspan
                 id="tspan68"
                 y="0"
                 x="0">5</tspan></text>
<text
               id="text74"
               style="font-style:italic;font-variant:normal;font-size:12px;font-family:Times;-inkscape-font-specification:Times-Italic;writing-mode:lr-tb;fill:#000000;fill-opacity:1;fill-rule:nonzero;stroke:none"
               transform="matrix(1,0,0,-1,174.97859,14.218)"><tspan
                 id="tspan72"
                 y="0"
                 x="0">x</tspan></text>
<text
               id="text78"
               style="font-style:italic;font-variant:normal;font-size:12px;font-family:Times;-inkscape-font-specification:Times-Italic;writing-mode:lr-tb;fill:#000000;fill-opacity:1;fill-rule:nonzero;stroke:none"
               transform="matrix(1,0,0,-1,5.1773949,165.41919)"><tspan
                 id="tspan76"
                 y="0"
                 x="0">y</tspan></text>
<text
               id="text82"
               style="font-variant:normal;font-weight:normal;font-size:11.95500088px;font-family:CMMI12;-inkscape-font-specification:CMMI12;writing-mode:lr-tb;fill:#231f20;fill-opacity:1;fill-rule:nonzero;stroke:none"
               transform="matrix(1,0,0,-1,70.150002,67)"><tspan
                 id="tspan80"
                 y="0"
                 x="0">r</tspan></text>
<path
               id="path84"
               style="fill:#231f20;fill-opacity:1;fill-rule:nonzero;stroke:none"
               d="M 70.150002,65.805 H 75.751 v -0.399002 h -5.600998 z" /><text
               id="text88"
               style="font-variant:normal;font-weight:normal;font-size:11.95500088px;font-family:CMR12;-inkscape-font-specification:CMR12;writing-mode:lr-tb;fill:#231f20;fill-opacity:1;fill-rule:nonzero;stroke:none"
               transform="matrix(1,0,0,-1,79.071007,67)"><tspan
                 id="tspan86"
                 y="0"
                 x="0">=</tspan></text>
<text
               id="text92"
               style="font-variant:normal;font-weight:normal;font-size:11.95500088px;font-family:CMR12;-inkscape-font-specification:CMR12;writing-mode:lr-tb;fill:#231f20;fill-opacity:1;fill-rule:nonzero;stroke:none"
               transform="matrix(1,0,0,-1,91.501816,67)"><tspan
                 id="tspan90"
                 y="0"
                 x="0">4</tspan></text>
<text
               id="text96"
               style="font-variant:normal;font-weight:normal;font-size:11.95500088px;font-family:CMMI12;-inkscape-font-specification:CMMI12;writing-mode:lr-tb;fill:#231f20;fill-opacity:1;fill-rule:nonzero;stroke:none"
               transform="matrix(1,0,0,-1,97.350204,67)"><tspan
                 id="tspan94"
                 y="0"
                 x="0">i</tspan></text>
<path
               id="path98"
               style="fill:#231f20;fill-opacity:1;fill-rule:nonzero;stroke:none"
               d="M 97.349998,65.805 H 101.343 v -0.399002 h -3.993002 z" /><text
               id="text102"
               style="font-variant:normal;font-weight:normal;font-size:11.95500088px;font-family:CMR12;-inkscape-font-specification:CMR12;writing-mode:lr-tb;fill:#231f20;fill-opacity:1;fill-rule:nonzero;stroke:none"
               transform="matrix(1,0,0,-1,104,67)"><tspan
                 id="tspan100"
                 y="0"
                 x="0">+</tspan></text>
<text
               id="text106"
               style="font-variant:normal;font-weight:normal;font-size:11.95500088px;font-family:CMR12;-inkscape-font-specification:CMR12;writing-mode:lr-tb;fill:#231f20;fill-opacity:1;fill-rule:nonzero;stroke:none"
               transform="matrix(1,0,0,-1,115.76611,67)"><tspan
                 id="tspan104"
                 y="0"
                 x="0">5</tspan></text>
<text
               id="text110"
               style="font-variant:normal;font-weight:normal;font-size:11.95500088px;font-family:CMMI12;-inkscape-font-specification:CMMI12;writing-mode:lr-tb;fill:#231f20;fill-opacity:1;fill-rule:nonzero;stroke:none"
               transform="matrix(1,0,0,-1,121.6145,67)"><tspan
                 id="tspan108"
                 y="0"
                 x="0">j</tspan></text>
<path
               id="path112"
               style="fill:#231f20;fill-opacity:1;fill-rule:nonzero;stroke:none"
               d="m 121.61401,63.48 h 5.516 v -0.397999 h -5.516 z" /></g></g></g></g></g></svg>