<?xml version="1.0" encoding="UTF-8" standalone="no"?>
<svg
   xmlns:dc="http://purl.org/dc/elements/1.1/"
   xmlns:cc="http://creativecommons.org/ns#"
   xmlns:rdf="http://www.w3.org/1999/02/22-rdf-syntax-ns#"
   xmlns:svg="http://www.w3.org/2000/svg"
   xmlns="http://www.w3.org/2000/svg"
   viewBox="0 0 485.33334 280"
   height="280"
   width="485.33334"
   xml:space="preserve"
   id="svg2"
   version="1.1"><metadata
     id="metadata8"><rdf:RDF><cc:Work
         rdf:about=""><dc:format>image/svg+xml</dc:format><dc:type
           rdf:resource="http://purl.org/dc/dcmitype/StillImage" /></cc:Work></rdf:RDF></metadata><defs
     id="defs6"><clipPath
       id="clipPath24"
       clipPathUnits="userSpaceOnUse"><path
         id="path22"
         d="M 0,0 H 364 V 210 H 0 Z" /></clipPath><clipPath
       id="clipPath38"
       clipPathUnits="userSpaceOnUse"><path
         id="path36"
         d="M 0.06,0.05999756 H 363.33402 V 209.44602 H 0.06 Z" /></clipPath></defs><g
     transform="matrix(1.3333333,0,0,-1.3333333,0,280)"
     id="g10"><g
       id="g12" /><g
       id="g14" /><g
       id="g16"><g
         id="g18"><g
           clip-path="url(#clipPath24)"
           id="g20"><g
             id="g26" /><g
             id="g28"><path
               id="path30"
               style="fill:#c8c7c7;fill-opacity:1;fill-rule:nonzero;stroke:none"
               d="m 213.00999,96.468002 150.25103,21.128008 -161.692,49.326 -167.325017,-15.919 178.765987,-54.535008" /></g><g
             id="g32"><g
               clip-path="url(#clipPath38)"
               id="g34"><path
                 id="path40"
                 style="fill:none;stroke:#231f20;stroke-width:0.5;stroke-linecap:butt;stroke-linejoin:miter;stroke-miterlimit:4;stroke-dasharray:none;stroke-opacity:1"
                 d="m 213.00999,96.468002 150.25103,21.128008 -161.692,49.326 -167.325017,-15.919 z" /></g></g><g
             id="g42"><path
               id="path44"
               style="fill:none;stroke:#231f20;stroke-width:1;stroke-linecap:butt;stroke-linejoin:miter;stroke-miterlimit:4;stroke-dasharray:none;stroke-opacity:1"
               d="M 7.8690004,15.225 122.96101,121.326" /><path
               id="path46"
               style="fill:none;stroke:#231f20;stroke-width:1;stroke-linecap:butt;stroke-linejoin:miter;stroke-miterlimit:4;stroke-dasharray:3, 3;stroke-dashoffset:0;stroke-opacity:1"
               d="m 122.96101,121.326 19.308,17.799" /><path
               id="path48"
               style="fill:#231f20;fill-opacity:1;fill-rule:nonzero;stroke:none"
               d="m 77.169006,79.275002 -4.255005,1.222999 0.036,0.150002 6.197006,2.380005 c 1.900002,1.108993 3.801003,2.217994 5.702004,3.326995 C 83.589005,84.549995 82.329002,82.746002 81.069,80.942001 l -2.875,-5.982994 -0.137993,-0.04 -0.887001,4.355996" /><text
               id="text52"
               style="font-style:italic;font-variant:normal;font-size:12px;font-family:Times;-inkscape-font-specification:Times-Italic;writing-mode:lr-tb;fill:#231f20;fill-opacity:1;fill-rule:nonzero;stroke:none"
               transform="matrix(1,0,0,-1,0,4.9510002)"><tspan
                 id="tspan50"
                 y="0"
                 x="0">O</tspan></text>
<text
               id="text56"
               style="font-style:italic;font-variant:normal;font-size:12px;font-family:Times;-inkscape-font-specification:Times-Italic;writing-mode:lr-tb;fill:#231f20;fill-opacity:1;fill-rule:nonzero;stroke:none"
               transform="matrix(1,0,0,-1,145.66679,137.28459)"><tspan
                 id="tspan54"
                 y="0"
                 x="0">A</tspan></text>
<path
               id="path58"
               style="fill:none;stroke:#231f20;stroke-width:1;stroke-linecap:butt;stroke-linejoin:miter;stroke-miterlimit:4;stroke-dasharray:none;stroke-opacity:1"
               d="M 7,14.951001 182.33401,102.617" /><path
               id="path60"
               style="fill:#ffffff;fill-opacity:1;fill-rule:nonzero;stroke:none"
               d="M 182.33401,102.617 231,126.951" /><path
               id="path62"
               style="fill:none;stroke:#231f20;stroke-width:1;stroke-linecap:butt;stroke-linejoin:miter;stroke-miterlimit:4;stroke-dasharray:3, 3;stroke-dashoffset:0;stroke-opacity:1"
               d="M 182.33401,102.617 231,126.951" /><path
               id="path64"
               style="fill:#231f20;fill-opacity:1;fill-rule:nonzero;stroke:none"
               d="m 131,76.951004 -3.57,2.242996 0.073,0.128006 6.29899,0.540001 c 2.032,0.513001 4.06401,1.024994 6.09601,1.537995 -1.629,-1.318001 -3.25801,-2.637002 -4.88802,-3.954995 L 130.799,72.731003 h -0.13701 l 0.338,4.220001" /><path
               id="path66"
               style="fill:none;stroke:#231f20;stroke-width:1;stroke-linecap:butt;stroke-linejoin:miter;stroke-miterlimit:4;stroke-dasharray:none;stroke-opacity:1"
               d="m 100.15301,142.03999 -0.432002,54.42202" /><path
               id="path68"
               style="fill:#231f20;fill-opacity:1;fill-rule:nonzero;stroke:none"
               d="m 99.729004,195.44202 -3.584999,-2.21901 -0.083,0.12201 2.287002,5.89299 c 0.433998,2.05101 0.867996,4.10199 1.301995,6.15199 0.466998,-2.04399 0.934008,-4.08699 1.399998,-6.13001 l 2.38,-5.85598 -0.06,-0.12401 -3.640996,2.16202" /><path
               id="path70"
               style="fill:none;stroke:#231f20;stroke-width:1;stroke-linecap:butt;stroke-linejoin:miter;stroke-miterlimit:4;stroke-dasharray:none;stroke-opacity:1"
               d="m 99.376007,153.399 9.173993,0.26201 0.066,-10.453" /><text
               id="text74"
               style="font-variant:normal;font-weight:normal;font-size:11.95500088px;font-family:CMMI12;-inkscape-font-specification:CMMI12;writing-mode:lr-tb;fill:#231f20;fill-opacity:1;fill-rule:nonzero;stroke:none"
               transform="matrix(1,0,0,-1,63.148899,77.813004)"><tspan
                 id="tspan72"
                 y="0"
                 x="0">a</tspan></text>
<path
               id="path76"
               style="fill:#231f20;fill-opacity:1;fill-rule:nonzero;stroke:none"
               d="m 63.149002,76.617004 h 6.145004 v -0.399002 h -6.145004 z" /><text
               id="text80"
               style="font-variant:normal;font-weight:normal;font-size:11.95500088px;font-family:CMMI12;-inkscape-font-specification:CMMI12;writing-mode:lr-tb;fill:#231f20;fill-opacity:1;fill-rule:nonzero;stroke:none"
               transform="matrix(1,0,0,-1,142.33301,71.545006)"><tspan
                 id="tspan78"
                 y="0"
                 x="0">r</tspan></text>
<path
               id="path82"
               style="fill:#231f20;fill-opacity:1;fill-rule:nonzero;stroke:none"
               d="m 142.334,70.349998 h 5.60001 V 69.950996 H 142.334 Z" /><text
               id="text86"
               style="font-variant:normal;font-weight:normal;font-size:11.95500088px;font-family:CMMI12;-inkscape-font-specification:CMMI12;writing-mode:lr-tb;fill:#231f20;fill-opacity:1;fill-rule:nonzero;stroke:none"
               transform="matrix(1,0,0,-1,107.616,200.47969)"><tspan
                 id="tspan84"
                 y="0"
                 x="0">n</tspan></text>
<path
               id="path88"
               style="fill:#231f20;fill-opacity:1;fill-rule:nonzero;stroke:none"
               d="m 107.617,199.285 h 6.988 v -0.399 h -6.988 z" /><text
               id="text92"
               style="font-style:italic;font-variant:normal;font-size:12px;font-family:Times;-inkscape-font-specification:Times-Italic;writing-mode:lr-tb;fill:#231f20;fill-opacity:1;fill-rule:nonzero;stroke:none"
               transform="matrix(1,0,0,-1,235,120.9514)"><tspan
                 id="tspan90"
                 y="0"
                 x="0">P</tspan></text>
<path
               id="path94"
               style="fill:#231f20;fill-opacity:1;fill-rule:nonzero;stroke:none"
               d="m 141.66701,137.285 c 1.25,0 2.26298,1.013 2.26298,2.263 0,1.24901 -1.01298,2.262 -2.26298,2.262 -1.24901,0 -2.263,-1.01299 -2.263,-2.262 0,-1.25 1.01399,-2.263 2.263,-2.263" /><path
               id="path96"
               style="fill:none;stroke:#231f20;stroke-width:0.80000001;stroke-linecap:butt;stroke-linejoin:miter;stroke-miterlimit:4;stroke-dasharray:none;stroke-opacity:1"
               d="m 141.66701,137.285 c 1.25,0 2.26298,1.013 2.26298,2.263 0,1.24901 -1.01298,2.262 -2.26298,2.262 -1.24901,0 -2.263,-1.01299 -2.263,-2.262 0,-1.25 1.01399,-2.263 2.263,-2.263 z" /><path
               id="path98"
               style="fill:#231f20;fill-opacity:1;fill-rule:nonzero;stroke:none"
               d="m 231,124.618 c 1.25,0 2.26302,1.013 2.26302,2.263 0,1.25001 -1.01302,2.26301 -2.26302,2.26301 -1.24899,0 -2.26199,-1.013 -2.26199,-2.26301 0,-1.25 1.013,-2.263 2.26199,-2.263" /><path
               id="path100"
               style="fill:none;stroke:#231f20;stroke-width:0.80000001;stroke-linecap:butt;stroke-linejoin:miter;stroke-miterlimit:4;stroke-dasharray:none;stroke-opacity:1"
               d="m 231,124.618 c 1.25,0 2.26302,1.013 2.26302,2.263 0,1.25001 -1.01302,2.26301 -2.26302,2.26301 -1.24899,0 -2.26199,-1.013 -2.26199,-2.26301 0,-1.25 1.013,-2.263 2.26199,-2.263 z" /></g></g></g></g></g></svg>