<?xml version="1.0" encoding="UTF-8" standalone="no"?>
<svg
   xmlns:dc="http://purl.org/dc/elements/1.1/"
   xmlns:cc="http://creativecommons.org/ns#"
   xmlns:rdf="http://www.w3.org/1999/02/22-rdf-syntax-ns#"
   xmlns:svg="http://www.w3.org/2000/svg"
   xmlns="http://www.w3.org/2000/svg"
   viewBox="0 0 552 236"
   height="236"
   width="552"
   xml:space="preserve"
   id="svg2"
   version="1.1"><metadata
     id="metadata8"><rdf:RDF><cc:Work
         rdf:about=""><dc:format>image/svg+xml</dc:format><dc:type
           rdf:resource="http://purl.org/dc/dcmitype/StillImage" /></cc:Work></rdf:RDF></metadata><defs
     id="defs6"><clipPath
       id="clipPath24"
       clipPathUnits="userSpaceOnUse"><path
         id="path22"
         d="M 0,0 H 414 V 177 H 0 Z" /></clipPath></defs><g
     transform="matrix(1.3333333,0,0,-1.3333333,0,236)"
     id="g10"><g
       id="g12" /><g
       id="g14" /><g
       id="g16"><g
         id="g18"><g
           clip-path="url(#clipPath24)"
           id="g20"><g
             id="g26" /><g
             id="g28"><path
               id="path30"
               style="fill:#c8c7c7;fill-opacity:1;fill-rule:nonzero;stroke:none"
               d="M 93,120.98 0,69.979004 414,102.98 l -44,37 -277,-19" /><path
               id="path32"
               style="fill:none;stroke:#231f20;stroke-width:1;stroke-linecap:butt;stroke-linejoin:miter;stroke-miterlimit:4;stroke-dasharray:none;stroke-opacity:1"
               d="M 51.5,84.813004 392.5,120.813" /><path
               id="path34"
               style="fill:#231f20;fill-opacity:1;fill-rule:nonzero;stroke:none"
               d="m 156.49101,75.013 -2.489,0.453003 0.013,0.088 3.387,1.705994 c 1.01799,0.739006 2.03599,1.478012 3.05299,2.21701 -0.61299,-1.098 -1.22699,-2.195999 -1.83999,-3.293999 l -1.29502,-3.565002 -0.076,-0.031 L 156.491,75.013" /><path
               id="path36"
               style="fill:#231f20;fill-opacity:1;fill-rule:nonzero;stroke:none"
               d="m 118.82,72.93 -0.27399,-2.514999 -0.088,0.006 -1.944,3.255997 c -0.80901,0.962997 -1.61901,1.925003 -2.429,2.888 1.139,-0.533996 2.278,-1.068 3.416,-1.600997 l 3.64898,-1.036004 0.036,-0.074 L 118.82,72.93" /><path
               id="path38"
               style="fill:#231f20;fill-opacity:1;fill-rule:nonzero;stroke:none"
               d="m 197.67101,80.359001 -2.075,1.445999 0.047,0.075 3.79,0.143006 c 1.23301,0.248001 2.46599,0.496994 3.698,0.746002 -1.01401,-0.743004 -2.028,-1.486 -3.043,-2.230004 l -2.65899,-2.703994 -0.083,0.004 0.325,2.519996" /><text
               id="text42"
               style="font-style:italic;font-variant:normal;font-size:12px;font-family:Times;-inkscape-font-specification:Times-Italic;writing-mode:lr-tb;fill:#231f20;fill-opacity:1;fill-rule:nonzero;stroke:none"
               transform="matrix(1,0,0,-1,260.93802,112.1673)"><tspan
                 id="tspan40"
                 y="0"
                 x="0">B</tspan></text>
<text
               id="text46"
               style="font-style:italic;font-variant:normal;font-size:12px;font-family:Times;-inkscape-font-specification:Times-Italic;writing-mode:lr-tb;fill:#231f20;fill-opacity:1;fill-rule:nonzero;stroke:none"
               transform="matrix(1,0,0,-1,141.93762,46.300499)"><tspan
                 id="tspan44"
                 y="0"
                 x="0">O</tspan></text>
<path
               id="path48"
               style="fill:none;stroke:#231f20;stroke-width:1;stroke-linecap:butt;stroke-linejoin:miter;stroke-miterlimit:4;stroke-dasharray:none;stroke-opacity:1"
               d="M 142.29201,169.522 V 58.188004 l -30,-51.3330035" /><path
               id="path50"
               style="fill:#231f20;fill-opacity:1;fill-rule:nonzero;stroke:none"
               d="m 112.29201,6.8550005 2.525,-0.1490002 -10e-4,-0.088 -3.156,-2.1040001 c -0.921,-0.856 -1.842,-1.7120002 -2.76201,-2.5690001 0.47601,1.1640001 0.952,2.3280001 1.428,3.4910002 l 0.85301,3.6959997 0.072,0.040001 1.041,-2.3170004" /><path
               id="path52"
               style="fill:#231f20;fill-opacity:1;fill-rule:nonzero;stroke:none"
               d="m 142.29201,169.522 -2.16202,-1.31399 -0.048,0.073 1.399,3.52501 c 0.27101,1.22799 0.541,2.457 0.81101,3.68499 0.27099,-1.22799 0.541,-2.457 0.811,-3.68499 l 1.4,-3.52501 -0.037,-0.073 -2.17399,1.31399" /><text
               id="text56"
               style="font-variant:normal;font-weight:normal;font-size:12px;font-family:CMMI10;-inkscape-font-specification:CMMI10;writing-mode:lr-tb;fill:#231f20;fill-opacity:1;fill-rule:nonzero;stroke:none"
               transform="matrix(1,0,0,-1,303.93802,49.167004)"><tspan
                 id="tspan54"
                 y="0"
                 x="0">y</tspan></text>
<text
               id="text60"
               style="font-variant:normal;font-weight:normal;font-size:12px;font-family:CMMI10;-inkscape-font-specification:CMMI10;writing-mode:lr-tb;fill:#231f20;fill-opacity:1;fill-rule:nonzero;stroke:none"
               transform="matrix(1,0,0,-1,99.687233,3.0006046)"><tspan
                 id="tspan58"
                 y="0"
                 x="0">x</tspan></text>
<text
               id="text64"
               style="font-variant:normal;font-weight:normal;font-size:12px;font-family:CMMI10;-inkscape-font-specification:CMMI10;writing-mode:lr-tb;fill:#231f20;fill-opacity:1;fill-rule:nonzero;stroke:none"
               transform="matrix(1,0,0,-1,132.60324,167.0838)"><tspan
                 id="tspan62"
                 y="0"
                 x="0">z</tspan></text>
<text
               id="text68"
               style="font-variant:normal;font-weight:normal;font-size:11.95500088px;font-family:CMMI12;-inkscape-font-specification:CMMI12;writing-mode:lr-tb;fill:#231f20;fill-opacity:1;fill-rule:nonzero;stroke:none"
               transform="matrix(1,0,0,-1,108.79201,65.362)"><tspan
                 id="tspan66"
                 y="0"
                 x="0">a</tspan></text>
<path
               id="path70"
               style="fill:#231f20;fill-opacity:1;fill-rule:nonzero;stroke:none"
               d="m 108.79301,64.167 h 6.145 v -0.398998 h -6.145 z" /><text
               id="text74"
               style="font-variant:normal;font-weight:normal;font-size:11.95500088px;font-family:CMMI12;-inkscape-font-specification:CMMI12;writing-mode:lr-tb;fill:#231f20;fill-opacity:1;fill-rule:nonzero;stroke:none"
               transform="matrix(1,0,0,-1,206.938,72.761002)"><tspan
                 id="tspan72"
                 y="0"
                 x="0">b</tspan></text>
<path
               id="path76"
               style="fill:#231f20;fill-opacity:1;fill-rule:nonzero;stroke:none"
               d="m 206.938,71.566002 h 4.977 V 71.167 h -4.977 z" /><text
               id="text80"
               style="font-variant:normal;font-weight:normal;font-size:11.95500088px;font-family:CMMI12;-inkscape-font-specification:CMMI12;writing-mode:lr-tb;fill:#231f20;fill-opacity:1;fill-rule:nonzero;stroke:none"
               transform="matrix(1,0,0,-1,167.938,80.7612)"><tspan
                 id="tspan78"
                 y="0"
                 x="0">r</tspan></text>
<path
               id="path82"
               style="fill:#231f20;fill-opacity:1;fill-rule:nonzero;stroke:none"
               d="m 167.938,79.566002 h 5.60001 V 79.167 H 167.938 Z" /><path
               id="path84"
               style="fill:none;stroke:#231f20;stroke-width:1;stroke-linecap:butt;stroke-linejoin:miter;stroke-miterlimit:4;stroke-dasharray:none;stroke-opacity:1"
               d="M 297.354,58.626003 H 142.04201 L 92.021004,90.271004" /><path
               id="path86"
               style="fill:#231f20;fill-opacity:1;fill-rule:nonzero;stroke:none"
               d="m 296.539,58.626003 -1.75198,2.882 0.098,0.065 4.699,-1.867001 c 1.63801,-0.359997 3.27598,-0.719997 4.91401,-1.079998 -1.63803,-0.361 -3.276,-0.721 -4.91401,-1.081001 l -4.699,-1.867001 -0.098,0.049 1.75198,2.899002" /><path
               id="path88"
               style="fill:none;stroke:#231f20;stroke-width:1;stroke-linecap:butt;stroke-linejoin:miter;stroke-miterlimit:4;stroke-dasharray:none;stroke-opacity:1"
               d="M 174.938,97.167007 142.29201,58.188004 260.93802,106.5" /><text
               id="text92"
               style="font-style:italic;font-variant:normal;font-size:12px;font-family:Times;-inkscape-font-specification:Times-Italic;writing-mode:lr-tb;fill:#231f20;fill-opacity:1;fill-rule:nonzero;stroke:none"
               transform="matrix(1,0,0,-1,85.9375,92.167297)"><tspan
                 id="tspan90"
                 y="0"
                 x="0">A</tspan></text>
<text
               id="text96"
               style="font-style:italic;font-variant:normal;font-size:12px;font-family:Times;-inkscape-font-specification:Times-Italic;writing-mode:lr-tb;fill:#231f20;fill-opacity:1;fill-rule:nonzero;stroke:none"
               transform="matrix(1,0,0,-1,173.93829,102.1669)"><tspan
                 id="tspan94"
                 y="0"
                 x="0">P</tspan></text>
</g></g></g></g></g></svg>