<?xml version="1.0" encoding="UTF-8" standalone="no"?>
<svg
   xmlns:dc="http://purl.org/dc/elements/1.1/"
   xmlns:cc="http://creativecommons.org/ns#"
   xmlns:rdf="http://www.w3.org/1999/02/22-rdf-syntax-ns#"
   xmlns:svg="http://www.w3.org/2000/svg"
   xmlns="http://www.w3.org/2000/svg"
   viewBox="0 0 197.33333 113.33333"
   height="113.33333"
   width="197.33333"
   xml:space="preserve"
   id="svg2"
   version="1.1"><metadata
     id="metadata8"><rdf:RDF><cc:Work
         rdf:about=""><dc:format>image/svg+xml</dc:format><dc:type
           rdf:resource="http://purl.org/dc/dcmitype/StillImage" /></cc:Work></rdf:RDF></metadata><defs
     id="defs6"><clipPath
       id="clipPath24"
       clipPathUnits="userSpaceOnUse"><path
         id="path22"
         d="M 0,0 H 148 V 85 H 0 Z" /></clipPath></defs><g
     transform="matrix(1.3333333,0,0,-1.3333333,0,113.33333)"
     id="g10"><g
       id="g12" /><g
       id="g14" /><g
       id="g16"><g
         id="g18"><g
           clip-path="url(#clipPath24)"
           id="g20"><g
             id="g26" /><g
             id="g28"><path
               id="path30"
               style="fill:#000000;fill-opacity:1;fill-rule:nonzero;stroke:none"
               d="m 137.12999,30.815001 c -1.38898,0.418001 -2.29099,0.804998 -3.40498,1.252 V 27.83 c 0.399,0.189001 2.016,0.834001 3.40498,1.253002 1.48701,0.448999 2.83401,0.755999 3.70901,0.865999 -0.875,0.109 -2.222,0.416001 -3.70901,0.866" /><path
               id="path32"
               style="fill:#000000;fill-opacity:1;fill-rule:nonzero;stroke:none"
               d="m 67.894005,77.114006 c -0.417999,-1.389 -0.805,-2.292 -1.251999,-3.406006 h 4.236999 c -0.190002,0.399002 -0.833999,2.017006 -1.252998,3.406006 -0.449005,1.487 -0.756012,2.834 -0.866005,3.708 -0.11,-0.874 -0.416,-2.221 -0.865997,-3.708" /><path
               id="path34"
               style="fill:none;stroke:#000000;stroke-width:1;stroke-linecap:butt;stroke-linejoin:miter;stroke-miterlimit:4;stroke-dasharray:none;stroke-opacity:1"
               d="M 46.644001,7.7560005 60.225002,21.336 M 45.291,6.4020004 68.391006,29.503002" /><path
               id="path36"
               style="fill:#000000;fill-opacity:1;fill-rule:nonzero;stroke:none"
               d="m 45.43,5.4299998 c 1.278004,0.6850004 2.189999,1.0510006 3.294003,1.5220003 l -2.996002,2.9960008 c -0.148003,-0.4160004 -0.835999,-2.0160007 -1.522,-3.2940006 -0.733997,-1.369 -1.469997,-2.5390001 -2.010997,-3.2350002 0.696998,0.5409997 1.865997,1.277 3.234996,2.0109997" /><text
               id="text40"
               style="font-variant:normal;font-weight:normal;font-size:11.95500088px;font-family:CMMI12;-inkscape-font-specification:CMMI12;writing-mode:lr-tb;fill:#231f20;fill-opacity:1;fill-rule:nonzero;stroke:none"
               transform="matrix(1,0,0,-1,49.5,3.8334999)"><tspan
                 id="tspan38"
                 y="0"
                 x="0">x</tspan></text>
<text
               id="text44"
               style="font-variant:normal;font-weight:normal;font-size:11.95500088px;font-family:CMMI12;-inkscape-font-specification:CMMI12;writing-mode:lr-tb;fill:#231f20;fill-opacity:1;fill-rule:nonzero;stroke:none"
               transform="matrix(1,0,0,-1,141.99942,31.166218)"><tspan
                 id="tspan42"
                 y="0"
                 x="0">y</tspan></text>
<text
               id="text48"
               style="font-variant:normal;font-weight:normal;font-size:11.95500088px;font-family:CMMI12;-inkscape-font-specification:CMMI12;writing-mode:lr-tb;fill:#231f20;fill-opacity:1;fill-rule:nonzero;stroke:none"
               transform="matrix(1,0,0,-1,59.882915,75.794243)"><tspan
                 id="tspan46"
                 y="0"
                 x="0">z</tspan></text>
<path
               id="path50"
               style="fill:none;stroke:#000000;stroke-width:1;stroke-linecap:butt;stroke-linejoin:miter;stroke-miterlimit:4;stroke-dasharray:none;stroke-opacity:1"
               d="M 0.38700002,30.124001 H 134.04901 M 68.828003,77.348007 V 29.468002 m 45.295007,38.636002 c 0,-9.841 -20.241006,-17.819 -45.208009,-17.819 -24.966999,0 -45.208,7.978 -45.208,17.819 l -0.306,-38.347002 c 0,-9.841002 20.241001,-17.819001 45.208,-17.819001 24.967003,0 45.206999,7.977999 45.206999,17.819001 z m -90.416009,0 h 90.416009" /><text
               id="text54"
               style="font-variant:normal;font-weight:normal;font-size:11.95500088px;font-family:CMR12;-inkscape-font-specification:CMR12;writing-mode:lr-tb;fill:#231f20;fill-opacity:1;fill-rule:nonzero;stroke:none"
               transform="matrix(1,0,0,-1,48.274899,15.154699)"><tspan
                 id="tspan52"
                 y="0"
                 x="0">1</tspan></text>
<text
               id="text58"
               style="font-variant:normal;font-weight:normal;font-size:11.95500088px;font-family:CMR12;-inkscape-font-specification:CMR12;writing-mode:lr-tb;fill:#231f20;fill-opacity:1;fill-rule:nonzero;stroke:none"
               transform="matrix(1,0,0,-1,69.029976,58.487988)"><tspan
                 id="tspan56"
                 y="0"
                 x="0">1</tspan></text>
<text
               id="text62"
               style="font-variant:normal;font-weight:normal;font-size:11.95500088px;font-family:CMR12;-inkscape-font-specification:CMR12;writing-mode:lr-tb;fill:#231f20;fill-opacity:1;fill-rule:nonzero;stroke:none"
               transform="matrix(1,0,0,-1,106.78506,31.821163)"><tspan
                 id="tspan60"
                 y="0"
                 x="0">1</tspan></text>
</g></g></g></g></g></svg>