<?xml version="1.0" encoding="UTF-8" standalone="no"?>
<svg
   xmlns:dc="http://purl.org/dc/elements/1.1/"
   xmlns:cc="http://creativecommons.org/ns#"
   xmlns:rdf="http://www.w3.org/1999/02/22-rdf-syntax-ns#"
   xmlns:svg="http://www.w3.org/2000/svg"
   xmlns="http://www.w3.org/2000/svg"
   viewBox="0 0 328 234.66667"
   height="234.66667"
   width="328"
   xml:space="preserve"
   id="svg2"
   version="1.1"><metadata
     id="metadata8"><rdf:RDF><cc:Work
         rdf:about=""><dc:format>image/svg+xml</dc:format><dc:type
           rdf:resource="http://purl.org/dc/dcmitype/StillImage" /></cc:Work></rdf:RDF></metadata><defs
     id="defs6"><clipPath
       id="clipPath24"
       clipPathUnits="userSpaceOnUse"><path
         id="path22"
         d="M 0,0 H 246 V 176 H 0 Z" /></clipPath><clipPath
       id="clipPath48"
       clipPathUnits="userSpaceOnUse"><path
         id="path46"
         d="M 0,0 H 245.58401 V 175.90302 H 0 Z" /></clipPath></defs><g
     transform="matrix(1.3333333,0,0,-1.3333333,0,234.66667)"
     id="g10"><g
       id="g12" /><g
       id="g14" /><g
       id="g16"><g
         id="g18"><g
           clip-path="url(#clipPath24)"
           id="g20"><g
             id="g26" /><g
             id="g28"><path
               id="path30"
               style="fill:#231f20;fill-opacity:1;fill-rule:nonzero;stroke:none"
               d="m 235.43301,90.705002 c -2.97599,0.898002 -4.91,1.726005 -7.29899,2.684006 v -9.080002 c 0.85597,0.405998 4.323,1.786995 7.29899,2.684997 3.185,0.962998 6.07199,1.621002 7.946,1.855004 -1.87401,0.236 -4.761,0.892997 -7.946,1.855995" /><path
               id="path32"
               style="fill:#231f20;fill-opacity:1;fill-rule:nonzero;stroke:none"
               d="M 87.220001,165.039 C 86.32,162.063 85.493004,160.12901 84.534004,157.74101 h 9.080002 C 93.209007,158.595 91.827003,162.063 90.93,165.039 c -0.961998,3.18501 -1.620994,6.07301 -1.855995,7.946 -0.235,-1.87299 -0.891998,-4.76099 -1.854004,-7.946" /><path
               id="path34"
               style="fill:none;stroke:#231f20;stroke-width:1;stroke-linecap:butt;stroke-linejoin:miter;stroke-miterlimit:4;stroke-dasharray:none;stroke-opacity:1"
               d="M 9.5320005,9.2930002 88.133003,87.894005" /><path
               id="path36"
               style="fill:#231f20;fill-opacity:1;fill-rule:nonzero;stroke:none"
               d="M 6.9310002,4.3080001 C 9.6710005,5.7770004 11.624001,6.5599999 13.99,7.5690002 L 7.5690002,13.99 C 7.2520003,13.099001 5.7760005,9.6710005 4.3080001,6.9310002 2.7350001,3.9990001 1.159,1.4910001 0,0 1.4910001,1.159 3.9990001,2.7350001 6.9310002,4.3080001" /><text
               id="text40"
               style="font-variant:normal;font-weight:normal;font-size:11.95500088px;font-family:CMMI12;-inkscape-font-specification:CMMI12;writing-mode:lr-tb;fill:#231f20;fill-opacity:1;fill-rule:nonzero;stroke:none"
               transform="matrix(1,0,0,-1,30.380899,24.833002)"><tspan
                 id="tspan38"
                 y="0"
                 x="0">x</tspan></text>
</g><g
             id="g42"><g
               clip-path="url(#clipPath48)"
               id="g44"><text
                 id="text52"
                 style="font-variant:normal;font-weight:normal;font-size:11.95500088px;font-family:CMMI12;-inkscape-font-specification:CMMI12;writing-mode:lr-tb;fill:#231f20;fill-opacity:1;fill-rule:nonzero;stroke:none"
                 transform="matrix(1,0,0,-1,239.88101,75.833)"><tspan
                   id="tspan50"
                   y="0"
                   x="0">y</tspan></text>
</g></g><g
             id="g54"><text
               id="text58"
               style="font-variant:normal;font-weight:normal;font-size:11.95500088px;font-family:CMMI12;-inkscape-font-specification:CMMI12;writing-mode:lr-tb;fill:#231f20;fill-opacity:1;fill-rule:nonzero;stroke:none"
               transform="matrix(1,0,0,-1,98.175797,166.93669)"><tspan
                 id="tspan56"
                 y="0"
                 x="0">z</tspan></text>
<path
               id="path60"
               style="fill:none;stroke:#231f20;stroke-width:1;stroke-linecap:butt;stroke-linejoin:miter;stroke-miterlimit:4;stroke-dasharray:none;stroke-opacity:1"
               d="M 88.976006,89.225006 H 228.83 M 89.07,160.25201 V 87.819008" /><text
               id="text64"
               style="font-variant:normal;font-weight:normal;font-size:11.95500088px;font-family:CMR12;-inkscape-font-specification:CMR12;writing-mode:lr-tb;fill:#231f20;fill-opacity:1;fill-rule:nonzero;stroke:none"
               transform="matrix(1,0,0,-1,77.577095,130.1535)"><tspan
                 id="tspan62"
                 y="0"
                 x="0">1</tspan></text>
<path
               id="path66"
               style="fill:none;stroke:#231f20;stroke-width:1;stroke-linecap:butt;stroke-linejoin:miter;stroke-miterlimit:4;stroke-dasharray:none;stroke-opacity:1"
               d="M 89.194008,129.877 39.694,80.377007 V 41.001003 l 41.782006,-2.75 48.000004,50.501004 M 89.194008,129.877 130.89801,88.173004 M 40.812,79.978004 82.515007,38.275002" /><text
               id="text70"
               style="font-variant:normal;font-weight:normal;font-size:11.95500088px;font-family:CMMI12;-inkscape-font-specification:CMMI12;writing-mode:lr-tb;fill:#231f20;fill-opacity:1;fill-rule:nonzero;stroke:none"
               transform="matrix(1,0,0,-1,61.728004,15.833001)"><tspan
                 id="tspan68"
                 y="0"
                 x="0">x</tspan></text>
<text
               id="text74"
               style="font-variant:normal;font-weight:normal;font-size:11.95500088px;font-family:CMR12;-inkscape-font-specification:CMR12;writing-mode:lr-tb;fill:#231f20;fill-opacity:1;fill-rule:nonzero;stroke:none"
               transform="matrix(1,0,0,-1,71.700867,15.833001)"><tspan
                 id="tspan72"
                 y="0"
                 x="0">=</tspan></text>
<text
               id="text78"
               style="font-variant:normal;font-weight:normal;font-size:11.95500088px;font-family:CMR12;-inkscape-font-specification:CMR12;writing-mode:lr-tb;fill:#231f20;fill-opacity:1;fill-rule:nonzero;stroke:none"
               transform="matrix(1,0,0,-1,84.125702,15.833001)"><tspan
                 id="tspan76"
                 y="0"
                 x="0">3</tspan></text>
<text
               id="text82"
               style="font-variant:normal;font-weight:normal;font-size:11.95500088px;font-family:CMMI12;-inkscape-font-specification:CMMI12;writing-mode:lr-tb;fill:#231f20;fill-opacity:1;fill-rule:nonzero;stroke:none"
               transform="matrix(1,0,0,-1,124.88149,109.33307)"><tspan
                 id="tspan80"
                 y="0"
                 x="0">y</tspan></text>
<text
               id="text86"
               style="font-variant:normal;font-weight:normal;font-size:11.95500088px;font-family:CMR12;-inkscape-font-specification:CMR12;writing-mode:lr-tb;fill:#231f20;fill-opacity:1;fill-rule:nonzero;stroke:none"
               transform="matrix(1,0,0,-1,133.67439,109.33307)"><tspan
                 id="tspan84"
                 y="0"
                 x="0">+</tspan></text>
<text
               id="text90"
               style="font-variant:normal;font-weight:normal;font-size:11.95500088px;font-family:CMMI12;-inkscape-font-specification:CMMI12;writing-mode:lr-tb;fill:#231f20;fill-opacity:1;fill-rule:nonzero;stroke:none"
               transform="matrix(1,0,0,-1,145.43692,109.33307)"><tspan
                 id="tspan88"
                 y="0"
                 x="0">z</tspan></text>
<text
               id="text94"
               style="font-variant:normal;font-weight:normal;font-size:11.95500088px;font-family:CMR12;-inkscape-font-specification:CMR12;writing-mode:lr-tb;fill:#231f20;fill-opacity:1;fill-rule:nonzero;stroke:none"
               transform="matrix(1,0,0,-1,154.72835,109.33307)"><tspan
                 id="tspan92"
                 y="0"
                 x="0">=</tspan></text>
<text
               id="text98"
               style="font-variant:normal;font-weight:normal;font-size:11.95500088px;font-family:CMR12;-inkscape-font-specification:CMR12;writing-mode:lr-tb;fill:#231f20;fill-opacity:1;fill-rule:nonzero;stroke:none"
               transform="matrix(1,0,0,-1,167.15437,109.33307)"><tspan
                 id="tspan96"
                 y="0"
                 x="0">1</tspan></text>
<path
               id="path100"
               style="fill:none;stroke:#231f20;stroke-width:1;stroke-linecap:butt;stroke-linejoin:miter;stroke-miterlimit:4;stroke-dasharray:none;stroke-opacity:1"
               d="m 121.478,111.775 -10,-13.999998" /><path
               id="path102"
               style="fill:#231f20;fill-opacity:1;fill-rule:nonzero;stroke:none"
               d="m 110.939,95.258003 c 1.36701,1.055001 2.36601,1.661995 3.57,2.431992 l -4.10399,2.932005 c -0.093,-0.517 -0.588,-2.530997 -1.143,-4.165999 -0.594,-1.75 -1.22901,-3.268997 -1.72701,-4.191993 0.711,0.771995 1.94101,1.864997 3.404,2.993995" /><path
               id="path104"
               style="fill:#231f20;fill-opacity:1;fill-rule:nonzero;stroke:none"
               d="m 61.881004,24.332001 -2.5,17" /><path
               id="path106"
               style="fill:#231f20;fill-opacity:1;fill-rule:nonzero;stroke:none"
               d="M 58.024002,43.52 C 57.77,41.812 57.471004,40.681004 57.137001,39.292004 l 4.991001,0.733997 c -0.292,0.437 -1.330997,2.231003 -2.064998,3.793999 -0.787003,1.673004 -1.382,3.207 -1.663002,4.217003 0.023,-1.048001 -0.105,-2.689 -0.376,-4.517003" /><text
               id="text110"
               style="font-variant:normal;font-weight:normal;font-size:11.95500088px;font-family:CMR12;-inkscape-font-specification:CMR12;writing-mode:lr-tb;fill:#231f20;fill-opacity:1;fill-rule:nonzero;stroke:none"
               transform="matrix(1,0,0,-1,28.251001,39.723003)"><tspan
                 id="tspan108"
                 y="0"
                 x="0">3</tspan></text>
<text
               id="text114"
               style="font-variant:normal;font-weight:normal;font-size:11.95500088px;font-family:CMR12;-inkscape-font-specification:CMR12;writing-mode:lr-tb;fill:#231f20;fill-opacity:1;fill-rule:nonzero;stroke:none"
               transform="matrix(1,0,0,-1,131.11302,76.727318)"><tspan
                 id="tspan112"
                 y="0"
                 x="0">1</tspan></text>
</g></g></g></g></g></svg>