<?xml version="1.0" encoding="UTF-8" standalone="no"?>
<svg
   xmlns:dc="http://purl.org/dc/elements/1.1/"
   xmlns:cc="http://creativecommons.org/ns#"
   xmlns:rdf="http://www.w3.org/1999/02/22-rdf-syntax-ns#"
   xmlns:svg="http://www.w3.org/2000/svg"
   xmlns="http://www.w3.org/2000/svg"
   viewBox="0 0 262.66666 152"
   height="152"
   width="262.66666"
   xml:space="preserve"
   id="svg2"
   version="1.1"><metadata
     id="metadata8"><rdf:RDF><cc:Work
         rdf:about=""><dc:format>image/svg+xml</dc:format><dc:type
           rdf:resource="http://purl.org/dc/dcmitype/StillImage" /></cc:Work></rdf:RDF></metadata><defs
     id="defs6"><clipPath
       id="clipPath24"
       clipPathUnits="userSpaceOnUse"><path
         id="path22"
         d="M 0,0 H 197 V 114 H 0 Z" /></clipPath><clipPath
       id="clipPath38"
       clipPathUnits="userSpaceOnUse"><path
         id="path36"
         d="M 0,0.05999756 H 196.121 V 113.621 H 0 Z" /></clipPath></defs><g
     transform="matrix(1.3333333,0,0,-1.3333333,0,152)"
     id="g10"><g
       id="g12" /><g
       id="g14" /><g
       id="g16"><g
         id="g18"><g
           clip-path="url(#clipPath24)"
           id="g20"><g
             id="g26" /><g
             id="g28"><path
               id="path30"
               style="fill:#231f20;fill-opacity:1;fill-rule:nonzero;stroke:none"
               d="M 0,19.372002 H 186.07901" /></g><g
             id="g32"><g
               clip-path="url(#clipPath38)"
               id="g34"><path
                 id="path40"
                 style="fill:none;stroke:#231f20;stroke-width:1;stroke-linecap:butt;stroke-linejoin:miter;stroke-miterlimit:4;stroke-dasharray:none;stroke-opacity:1"
                 d="M 0,19.372002 H 186.07901" /></g></g><g
             id="g42"><path
               id="path44"
               style="fill:#231f20;fill-opacity:1;fill-rule:nonzero;stroke:none"
               d="m 187.96701,20.193001 c -1.32201,0.399 -2.181,0.766998 -3.243,1.193001 V 17.35 c 0.37999,0.181 1.92099,0.794001 3.243,1.194001 1.416,0.427999 2.7,0.720001 3.532,0.823999 -0.832,0.105001 -2.116,0.397001 -3.532,0.825001" /><path
               id="path46"
               style="fill:#231f20;fill-opacity:1;fill-rule:nonzero;stroke:none"
               d="M 32.277,16.818001 V 100.81801" /><path
               id="path48"
               style="fill:none;stroke:#231f20;stroke-width:1;stroke-linecap:butt;stroke-linejoin:miter;stroke-miterlimit:4;stroke-dasharray:none;stroke-opacity:1"
               d="M 32.277,16.818001 V 100.81801" /><path
               id="path50"
               style="fill:#231f20;fill-opacity:1;fill-rule:nonzero;stroke:none"
               d="m 31.458002,103.65201 c -0.400001,-1.985 -0.768003,-3.274 -1.194,-4.866007 h 4.035997 c -0.180996,0.570999 -0.794998,2.881007 -1.193996,4.866007 -0.427002,2.12299 -0.720001,4.04899 -0.824002,5.297 -0.104999,-1.24801 -0.396999,-3.17401 -0.823999,-5.297" /><path
               id="path52"
               style="fill:#231f20;fill-opacity:1;fill-rule:nonzero;stroke:none"
               d="m 103.00999,85.181007 c 0,-1.104004 -0.89399,-2 -2,-2 -1.103984,0 -1.999995,0.895996 -1.999995,2 0,1.104996 0.896011,2 1.999995,2 1.10601,0 2,-0.895004 2,-2" /><path
               id="path54"
               style="fill:none;stroke:#231f20;stroke-width:1;stroke-linecap:butt;stroke-linejoin:miter;stroke-miterlimit:4;stroke-dasharray:none;stroke-opacity:1"
               d="m 103.00999,85.181007 c 0,-1.104004 -0.89399,-2 -2,-2 -1.103984,0 -1.999995,0.895996 -1.999995,2 0,1.104996 0.896011,2 1.999995,2 1.10601,0 2,-0.895004 2,-2 z" /><path
               id="path56"
               style="fill:#231f20;fill-opacity:1;fill-rule:nonzero;stroke:none"
               d="m 57.285004,41.031002 c 0,-1.104 -0.894001,-2 -2,-2 -1.103001,0 -2,0.896 -2,2 0,1.105 0.896999,2 2,2 1.105999,0 2,-0.895 2,-2" /><path
               id="path58"
               style="fill:none;stroke:#231f20;stroke-width:1;stroke-linecap:butt;stroke-linejoin:miter;stroke-miterlimit:4;stroke-dasharray:none;stroke-opacity:1"
               d="m 57.285004,41.031002 c 0,-1.104 -0.894001,-2 -2,-2 -1.103001,0 -2,0.896 -2,2 0,1.105 0.896999,2 2,2 1.105999,0 2,-0.895 2,-2 z" /><path
               id="path60"
               style="fill:#231f20;fill-opacity:1;fill-rule:nonzero;stroke:none"
               d="m 34.527,19.048 c 0,-1.104 -0.895,-2 -2,-2 -1.103998,0 -1.999998,0.896 -1.999998,2 0,1.105002 0.896,2 1.999998,2 1.105,0 2,-0.894998 2,-2" /><path
               id="path62"
               style="fill:none;stroke:#231f20;stroke-width:1;stroke-linecap:butt;stroke-linejoin:miter;stroke-miterlimit:4;stroke-dasharray:none;stroke-opacity:1"
               d="m 34.527,19.048 c 0,-1.104 -0.895,-2 -2,-2 -1.103998,0 -1.999998,0.896 -1.999998,2 0,1.105002 0.896,2 1.999998,2 1.105,0 2,-0.894998 2,-2 z" /><text
               id="text66"
               style="font-variant:normal;font-weight:normal;font-size:11.95500088px;font-family:CMR12;-inkscape-font-specification:CMR12;writing-mode:lr-tb;fill:#231f20;fill-opacity:1;fill-rule:nonzero;stroke:none"
               transform="matrix(1,0,0,-1,32.041,3.0020001)"><tspan
                 id="tspan64"
                 y="0"
                 x="0">0</tspan></text>
<text
               id="text70"
               style="font-variant:normal;font-weight:normal;font-size:11.95500088px;font-family:CMR12;-inkscape-font-specification:CMR12;writing-mode:lr-tb;fill:#231f20;fill-opacity:1;fill-rule:nonzero;stroke:none"
               transform="matrix(1,0,0,-1,52.296356,3.7515786)"><tspan
                 id="tspan68"
                 y="0"
                 x="0">1</tspan></text>
<text
               id="text74"
               style="font-variant:normal;font-weight:normal;font-size:11.95500088px;font-family:CMR12;-inkscape-font-specification:CMR12;writing-mode:lr-tb;fill:#231f20;fill-opacity:1;fill-rule:nonzero;stroke:none"
               transform="matrix(1,0,0,-1,75.051506,4.2512975)"><tspan
                 id="tspan72"
                 y="0"
                 x="0">2</tspan></text>
<text
               id="text78"
               style="font-variant:normal;font-weight:normal;font-size:11.95500088px;font-family:CMMI12;-inkscape-font-specification:CMMI12;writing-mode:lr-tb;fill:#231f20;fill-opacity:1;fill-rule:nonzero;stroke:none"
               transform="matrix(1,0,0,-1,189.13927,10.167828)"><tspan
                 id="tspan76"
                 y="0"
                 x="0">n</tspan></text>
<text
               id="text82"
               style="font-variant:normal;font-weight:normal;font-size:11.95500088px;font-family:CMR12;-inkscape-font-specification:CMR12;writing-mode:lr-tb;fill:#231f20;fill-opacity:1;fill-rule:nonzero;stroke:none"
               transform="matrix(1,0,0,-1,21.999992,38.861027)"><tspan
                 id="tspan80"
                 y="0"
                 x="0">1</tspan></text>
<path
               id="path84"
               style="fill:#231f20;fill-opacity:1;fill-rule:nonzero;stroke:none"
               d="m 79.844002,63.389999 c 0,-1.104995 -0.895996,-2 -2,-2 -1.105995,0 -2,0.895005 -2,2 0,1.104004 0.894005,2 2,2 1.104004,0 2,-0.895996 2,-2" /><path
               id="path86"
               style="fill:none;stroke:#231f20;stroke-width:1;stroke-linecap:butt;stroke-linejoin:miter;stroke-miterlimit:4;stroke-dasharray:none;stroke-opacity:1"
               d="m 79.844002,63.389999 c 0,-1.104995 -0.895996,-2 -2,-2 -1.105995,0 -2,0.895005 -2,2 0,1.104004 0.894005,2 2,2 1.104004,0 2,-0.895996 2,-2 z" /><text
               id="text90"
               style="font-variant:normal;font-weight:normal;font-size:11.95500088px;font-family:CMR12;-inkscape-font-specification:CMR12;writing-mode:lr-tb;fill:#231f20;fill-opacity:1;fill-rule:nonzero;stroke:none"
               transform="matrix(1,0,0,-1,97.383797,4.6680002)"><tspan
                 id="tspan88"
                 y="0"
                 x="0">3</tspan></text>
<path
               id="path92"
               style="fill:#231f20;fill-opacity:1;fill-rule:nonzero;stroke:none"
               d="M 55.25,41.612003 V 19.862001" /><path
               id="path94"
               style="fill:none;stroke:#231f20;stroke-width:1;stroke-linecap:butt;stroke-linejoin:miter;stroke-miterlimit:4;stroke-dasharray:none;stroke-opacity:1"
               d="M 55.25,41.612003 V 19.862001" /><path
               id="path96"
               style="fill:#231f20;fill-opacity:1;fill-rule:nonzero;stroke:none"
               d="m 77.75,63.612003 v -21.75" /><path
               id="path98"
               style="fill:none;stroke:#231f20;stroke-width:1;stroke-linecap:butt;stroke-linejoin:miter;stroke-miterlimit:4;stroke-dasharray:none;stroke-opacity:1"
               d="m 77.75,63.612003 v -21.75" /><path
               id="path100"
               style="fill:#231f20;fill-opacity:1;fill-rule:nonzero;stroke:none"
               d="M 77.75,41.612003 V 19.862001" /><path
               id="path102"
               style="fill:none;stroke:#231f20;stroke-width:1;stroke-linecap:butt;stroke-linejoin:miter;stroke-miterlimit:4;stroke-dasharray:none;stroke-opacity:1"
               d="M 77.75,41.612003 V 19.862001" /><path
               id="path104"
               style="fill:#231f20;fill-opacity:1;fill-rule:nonzero;stroke:none"
               d="m 100.75,63.612003 v -21.75" /><path
               id="path106"
               style="fill:none;stroke:#231f20;stroke-width:1;stroke-linecap:butt;stroke-linejoin:miter;stroke-miterlimit:4;stroke-dasharray:none;stroke-opacity:1"
               d="m 100.75,63.612003 v -21.75" /><path
               id="path108"
               style="fill:#231f20;fill-opacity:1;fill-rule:nonzero;stroke:none"
               d="M 100.75,41.612003 V 19.862001" /><path
               id="path110"
               style="fill:none;stroke:#231f20;stroke-width:1;stroke-linecap:butt;stroke-linejoin:miter;stroke-miterlimit:4;stroke-dasharray:none;stroke-opacity:1"
               d="M 100.75,41.612003 V 19.862001" /><path
               id="path112"
               style="fill:#231f20;fill-opacity:1;fill-rule:nonzero;stroke:none"
               d="M 100.75,85.362007 V 63.612003" /><path
               id="path114"
               style="fill:none;stroke:#231f20;stroke-width:1;stroke-linecap:butt;stroke-linejoin:miter;stroke-miterlimit:4;stroke-dasharray:none;stroke-opacity:1"
               d="M 100.75,85.362007 V 63.612003" /><text
               id="text118"
               style="font-variant:normal;font-weight:normal;font-size:11.95500088px;font-family:CMR12;-inkscape-font-specification:CMR12;writing-mode:lr-tb;fill:#231f20;fill-opacity:1;fill-rule:nonzero;stroke:none"
               transform="matrix(1,0,0,-1,22,59.861698)"><tspan
                 id="tspan116"
                 y="0"
                 x="0">2</tspan></text>
<text
               id="text122"
               style="font-variant:normal;font-weight:normal;font-size:11.95500088px;font-family:CMR12;-inkscape-font-specification:CMR12;writing-mode:lr-tb;fill:#231f20;fill-opacity:1;fill-rule:nonzero;stroke:none"
               transform="matrix(1,0,0,-1,23.000633,79.861221)"><tspan
                 id="tspan120"
                 y="0"
                 x="0">3</tspan></text>
<text
               id="text126"
               style="font-variant:normal;font-weight:normal;font-size:11.95500088px;font-family:CMMI12;-inkscape-font-specification:CMMI12;writing-mode:lr-tb;fill:#231f20;fill-opacity:1;fill-rule:nonzero;stroke:none"
               transform="matrix(1,0,0,-1,38.725044,104.6547)"><tspan
                 id="tspan124"
                 y="0"
                 x="0">r</tspan></text>
<text
               id="text130"
               style="font-variant:normal;font-weight:normal;font-size:7.96999979px;font-family:CMMI8;-inkscape-font-specification:CMMI8;writing-mode:lr-tb;fill:#231f20;fill-opacity:1;fill-rule:nonzero;stroke:none"
               transform="matrix(1,0,0,-1,44,102.86169)"><tspan
                 id="tspan128"
                 y="0"
                 x="0">n</tspan></text>
<path
               id="path132"
               style="fill:#ffffff;fill-opacity:1;fill-rule:nonzero;stroke:none"
               d="m 119.25,85.862007 h 64" /><path
               id="path134"
               style="fill:none;stroke:#231f20;stroke-width:1;stroke-linecap:butt;stroke-linejoin:miter;stroke-miterlimit:4;stroke-dasharray:12, 12;stroke-dashoffset:0;stroke-opacity:1"
               d="m 119.25,85.862007 h 64" /></g></g></g></g></g></svg>