<?xml version="1.0" encoding="UTF-8" standalone="no"?>
<svg
   xmlns:dc="http://purl.org/dc/elements/1.1/"
   xmlns:cc="http://creativecommons.org/ns#"
   xmlns:rdf="http://www.w3.org/1999/02/22-rdf-syntax-ns#"
   xmlns:svg="http://www.w3.org/2000/svg"
   xmlns="http://www.w3.org/2000/svg"
   viewBox="0 0 574.66669 112"
   height="112"
   width="574.66669"
   xml:space="preserve"
   id="svg2"
   version="1.1"><metadata
     id="metadata8"><rdf:RDF><cc:Work
         rdf:about=""><dc:format>image/svg+xml</dc:format><dc:type
           rdf:resource="http://purl.org/dc/dcmitype/StillImage" /></cc:Work></rdf:RDF></metadata><defs
     id="defs6"><clipPath
       id="clipPath24"
       clipPathUnits="userSpaceOnUse"><path
         id="path22"
         d="M 0,0 H 431 V 84 H 0 Z" /></clipPath><clipPath
       id="clipPath38"
       clipPathUnits="userSpaceOnUse"><path
         id="path36"
         d="M 0,0.05999756 H 430.04202 V 83.439995 H 0 Z" /></clipPath></defs><g
     transform="matrix(1.3333333,0,0,-1.3333333,0,112)"
     id="g10"><g
       id="g12" /><g
       id="g14" /><g
       id="g16"><g
         id="g18"><g
           clip-path="url(#clipPath24)"
           id="g20"><g
             id="g26" /><g
             id="g28"><path
               id="path30"
               style="fill:#231f20;fill-opacity:1;fill-rule:nonzero;stroke:none"
               d="M 0,16.678001 H 422.40103" /></g><g
             id="g32"><g
               clip-path="url(#clipPath38)"
               id="g34"><path
                 id="path40"
                 style="fill:none;stroke:#231f20;stroke-width:1;stroke-linecap:butt;stroke-linejoin:miter;stroke-miterlimit:4;stroke-dasharray:none;stroke-opacity:1"
                 d="M 0,16.678001 H 422.40103" /></g></g><g
             id="g42"><path
               id="path44"
               style="fill:#231f20;fill-opacity:1;fill-rule:nonzero;stroke:none"
               d="m 423.39102,17.499001 c -1.32199,0.399 -2.18103,0.767 -3.24301,1.193 v -4.036 c 0.38001,0.179999 1.92102,0.793999 3.24301,1.193998 1.41599,0.427001 2.69898,0.720001 3.53101,0.824003 -0.83203,0.103998 -2.11502,0.396999 -3.53101,0.824999" /><path
               id="path46"
               style="fill:#231f20;fill-opacity:1;fill-rule:nonzero;stroke:none"
               d="M 118.7,17.479 V 73.479004" /><path
               id="path48"
               style="fill:none;stroke:#231f20;stroke-width:1;stroke-linecap:butt;stroke-linejoin:miter;stroke-miterlimit:4;stroke-dasharray:none;stroke-opacity:1"
               d="M 118.7,17.479 V 73.479004" /><path
               id="path50"
               style="fill:#231f20;fill-opacity:1;fill-rule:nonzero;stroke:none"
               d="m 117.88,75.368004 c -0.4,-1.322998 -0.76799,-2.181999 -1.193,-3.244003 h 4.03501 c -0.18,0.380004 -0.794,1.921005 -1.193,3.244003 -0.428,1.416 -0.72,2.698997 -0.82501,3.530998 -0.104,-0.832001 -0.39699,-2.114998 -0.824,-3.530998" /><path
               id="path52"
               style="fill:#231f20;fill-opacity:1;fill-rule:nonzero;stroke:none"
               d="m 190.42201,51.501003 c 0,-1.104999 -0.89399,-2 -2,-2 -1.104,0 -2,0.895001 -2,2 0,1.104 0.896,2 2,2 1.10601,0 2,-0.896 2,-2" /><path
               id="path54"
               style="fill:none;stroke:#231f20;stroke-width:1;stroke-linecap:butt;stroke-linejoin:miter;stroke-miterlimit:4;stroke-dasharray:none;stroke-opacity:1"
               d="m 190.42201,51.501003 c 0,-1.104999 -0.89399,-2 -2,-2 -1.104,0 -2,0.895001 -2,2 0,1.104 0.896,2 2,2 1.10601,0 2,-0.896 2,-2 z" /><path
               id="path56"
               style="fill:#231f20;fill-opacity:1;fill-rule:nonzero;stroke:none"
               d="m 154.92201,51.001003 c 0,-1.104999 -0.895,-2 -2,-2 -1.104,0 -2,0.895001 -2,2 0,1.104 0.896,2 2,2 1.105,0 2,-0.896 2,-2" /><path
               id="path58"
               style="fill:none;stroke:#231f20;stroke-width:1;stroke-linecap:butt;stroke-linejoin:miter;stroke-miterlimit:4;stroke-dasharray:none;stroke-opacity:1"
               d="m 154.92201,51.001003 c 0,-1.104999 -0.895,-2 -2,-2 -1.104,0 -2,0.895001 -2,2 0,1.104 0.896,2 2,2 1.105,0 2,-0.896 2,-2 z" /><path
               id="path60"
               style="fill:#231f20;fill-opacity:1;fill-rule:nonzero;stroke:none"
               d="m 120.422,50.501003 c 0,-1.104999 -0.89499,-2 -2,-2 -1.10399,0 -2,0.895001 -2,2 0,1.104 0.89601,2 2,2 1.10501,0 2,-0.896 2,-2" /><path
               id="path62"
               style="fill:none;stroke:#231f20;stroke-width:1;stroke-linecap:butt;stroke-linejoin:miter;stroke-miterlimit:4;stroke-dasharray:none;stroke-opacity:1"
               d="m 120.422,50.501003 c 0,-1.104999 -0.89499,-2 -2,-2 -1.10399,0 -2,0.895001 -2,2 0,1.104 0.89601,2 2,2 1.10501,0 2,-0.896 2,-2 z" /><path
               id="path64"
               style="fill:#231f20;fill-opacity:1;fill-rule:nonzero;stroke:none"
               d="m 91.099007,15.878001 c 0,-1.104 -0.895005,-2.000001 -2,-2.000001 -1.104004,0 -2,0.896001 -2,2.000001 0,1.105001 0.895996,1.999999 2,1.999999 1.104995,0 2,-0.894998 2,-1.999999" /><path
               id="path66"
               style="fill:none;stroke:#231f20;stroke-width:1;stroke-linecap:butt;stroke-linejoin:miter;stroke-miterlimit:4;stroke-dasharray:none;stroke-opacity:1"
               d="m 91.099007,15.878001 c 0,-1.104 -0.895005,-2.000001 -2,-2.000001 -1.104004,0 -2,0.896001 -2,2.000001 0,1.105001 0.895996,1.999999 2,1.999999 1.104995,0 2,-0.894998 2,-1.999999 z" /><path
               id="path68"
               style="fill:#231f20;fill-opacity:1;fill-rule:nonzero;stroke:none"
               d="m 59.418003,16.501001 c 0,-1.105 -0.896,-2.000001 -2,-2.000001 -1.104999,0 -2,0.895001 -2,2.000001 0,1.104 0.895001,2 2,2 1.104,0 2,-0.896 2,-2" /><path
               id="path70"
               style="fill:none;stroke:#231f20;stroke-width:1;stroke-linecap:butt;stroke-linejoin:miter;stroke-miterlimit:4;stroke-dasharray:none;stroke-opacity:1"
               d="m 59.418003,16.501001 c 0,-1.105 -0.896,-2.000001 -2,-2.000001 -1.104999,0 -2,0.895001 -2,2.000001 0,1.104 0.895001,2 2,2 1.104,0 2,-0.896 2,-2 z" /><path
               id="path72"
               style="fill:#231f20;fill-opacity:1;fill-rule:nonzero;stroke:none"
               d="m 27.418001,16.001001 c 0,-1.104001 -0.896,-2.000001 -2,-2.000001 -1.104,0 -2,0.896 -2,2.000001 0,1.105 0.896,2 2,2 1.104,0 2,-0.895 2,-2" /><path
               id="path74"
               style="fill:none;stroke:#231f20;stroke-width:1;stroke-linecap:butt;stroke-linejoin:miter;stroke-miterlimit:4;stroke-dasharray:none;stroke-opacity:1"
               d="m 27.418001,16.001001 c 0,-1.104001 -0.896,-2.000001 -2,-2.000001 -1.104,0 -2,0.896 -2,2.000001 0,1.105 0.896,2 2,2 1.104,0 2,-0.895 2,-2 z" /><path
               id="path76"
               style="fill:#231f20;fill-opacity:1;fill-rule:nonzero;stroke:none"
               d="M 153.10001,51.878002 V 17.479" /><path
               id="path78"
               style="fill:none;stroke:#231f20;stroke-width:1;stroke-linecap:butt;stroke-linejoin:miter;stroke-miterlimit:4;stroke-dasharray:none;stroke-opacity:1"
               d="M 153.10001,51.878002 V 17.479" /><path
               id="path80"
               style="fill:#231f20;fill-opacity:1;fill-rule:nonzero;stroke:none"
               d="M 188.29901,52.678001 V 18.278002" /><path
               id="path82"
               style="fill:none;stroke:#231f20;stroke-width:1;stroke-linecap:butt;stroke-linejoin:miter;stroke-miterlimit:4;stroke-dasharray:none;stroke-opacity:1"
               d="M 188.29901,52.678001 V 18.278002" /><text
               id="text86"
               style="font-variant:normal;font-weight:normal;font-size:11.95500088px;font-family:CMR12;-inkscape-font-specification:CMR12;writing-mode:lr-tb;fill:#231f20;fill-opacity:1;fill-rule:nonzero;stroke:none"
               transform="matrix(1,0,0,-1,116.79601,4.9741998)"><tspan
                 id="tspan84"
                 y="0"
                 x="0">0</tspan></text>
<text
               id="text90"
               style="font-variant:normal;font-weight:normal;font-size:11.95500088px;font-family:CMR12;-inkscape-font-specification:CMR12;writing-mode:lr-tb;fill:#231f20;fill-opacity:1;fill-rule:nonzero;stroke:none"
               transform="matrix(1,0,0,-1,151.05066,4.9741998)"><tspan
                 id="tspan88"
                 y="0"
                 x="0">1</tspan></text>
<text
               id="text94"
               style="font-variant:normal;font-weight:normal;font-size:11.95500088px;font-family:CMR12;-inkscape-font-specification:CMR12;writing-mode:lr-tb;fill:#231f20;fill-opacity:1;fill-rule:nonzero;stroke:none"
               transform="matrix(1,0,0,-1,186.30597,4.9741998)"><tspan
                 id="tspan92"
                 y="0"
                 x="0">2</tspan></text>
<text
               id="text98"
               style="font-variant:normal;font-weight:normal;font-size:11.95500088px;font-family:CMMI12;-inkscape-font-specification:CMMI12;writing-mode:lr-tb;fill:#231f20;fill-opacity:1;fill-rule:nonzero;stroke:none"
               transform="matrix(1,0,0,-1,423.06161,6.4745522)"><tspan
                 id="tspan96"
                 y="0"
                 x="0">n</tspan></text>
<text
               id="text102"
               style="font-variant:normal;font-weight:normal;font-size:11.95500088px;font-family:CMMI12;-inkscape-font-specification:CMMI12;writing-mode:lr-tb;fill:#231f20;fill-opacity:1;fill-rule:nonzero;stroke:none"
               transform="matrix(1,0,0,-1,122.95164,74.474602)"><tspan
                 id="tspan100"
                 y="0"
                 x="0">f</tspan></text>
<text
               id="text106"
               style="font-variant:normal;font-weight:normal;font-size:7.96999979px;font-family:CMMI8;-inkscape-font-specification:CMMI8;writing-mode:lr-tb;fill:#231f20;fill-opacity:1;fill-rule:nonzero;stroke:none"
               transform="matrix(1,0,0,-1,129.61301,72.679802)"><tspan
                 id="tspan104"
                 y="0"
                 x="0">n</tspan></text>
<text
               id="text110"
               style="font-variant:normal;font-weight:normal;font-size:11.95500088px;font-family:CMR12;-inkscape-font-specification:CMR12;writing-mode:lr-tb;fill:#231f20;fill-opacity:1;fill-rule:nonzero;stroke:none"
               transform="matrix(1,0,0,-1,108.051,47.974197)"><tspan
                 id="tspan108"
                 y="0"
                 x="0">1</tspan></text>
<path
               id="path112"
               style="fill:#231f20;fill-opacity:1;fill-rule:nonzero;stroke:none"
               d="m 225.42201,51.501003 c 0,-1.104999 -0.89399,-2 -2,-2 -1.104,0 -2,0.895001 -2,2 0,1.104 0.896,2 2,2 1.10601,0 2,-0.896 2,-2" /><path
               id="path114"
               style="fill:none;stroke:#231f20;stroke-width:1;stroke-linecap:butt;stroke-linejoin:miter;stroke-miterlimit:4;stroke-dasharray:none;stroke-opacity:1"
               d="m 225.42201,51.501003 c 0,-1.104999 -0.89399,-2 -2,-2 -1.104,0 -2,0.895001 -2,2 0,1.104 0.896,2 2,2 1.10601,0 2,-0.896 2,-2 z" /><path
               id="path116"
               style="fill:#231f20;fill-opacity:1;fill-rule:nonzero;stroke:none"
               d="M 223.79901,52.178001 V 17.778002" /><path
               id="path118"
               style="fill:none;stroke:#231f20;stroke-width:1;stroke-linecap:butt;stroke-linejoin:miter;stroke-miterlimit:4;stroke-dasharray:none;stroke-opacity:1"
               d="M 223.79901,52.178001 V 17.778002" /><path
               id="path120"
               style="fill:#231f20;fill-opacity:1;fill-rule:nonzero;stroke:none"
               d="m 259.92203,51.501003 c 0,-1.104999 -0.89401,-2 -2.00003,-2 -1.10398,0 -1.99999,0.895001 -1.99999,2 0,1.104 0.89601,2 1.99999,2 1.10602,0 2.00003,-0.896 2.00003,-2" /><path
               id="path122"
               style="fill:none;stroke:#231f20;stroke-width:1;stroke-linecap:butt;stroke-linejoin:miter;stroke-miterlimit:4;stroke-dasharray:none;stroke-opacity:1"
               d="m 259.92203,51.501003 c 0,-1.104999 -0.89401,-2 -2.00003,-2 -1.10398,0 -1.99999,0.895001 -1.99999,2 0,1.104 0.89601,2 1.99999,2 1.10602,0 2.00003,-0.896 2.00003,-2 z" /><path
               id="path124"
               style="fill:#231f20;fill-opacity:1;fill-rule:nonzero;stroke:none"
               d="M 258.29901,52.178001 V 17.778002" /><path
               id="path126"
               style="fill:none;stroke:#231f20;stroke-width:1;stroke-linecap:butt;stroke-linejoin:miter;stroke-miterlimit:4;stroke-dasharray:none;stroke-opacity:1"
               d="M 258.29901,52.178001 V 17.778002" /><text
               id="text130"
               style="font-variant:normal;font-weight:normal;font-size:11.95500088px;font-family:CMR12;-inkscape-font-specification:CMR12;writing-mode:lr-tb;fill:#231f20;fill-opacity:1;fill-rule:nonzero;stroke:none"
               transform="matrix(1,0,0,-1,222.05101,4.9741998)"><tspan
                 id="tspan128"
                 y="0"
                 x="0">3</tspan></text>
<text
               id="text134"
               style="font-variant:normal;font-weight:normal;font-size:11.95500088px;font-family:CMR12;-inkscape-font-specification:CMR12;writing-mode:lr-tb;fill:#231f20;fill-opacity:1;fill-rule:nonzero;stroke:none"
               transform="matrix(1,0,0,-1,257.3063,4.9741998)"><tspan
                 id="tspan132"
                 y="0"
                 x="0">4</tspan></text>
<path
               id="path136"
               style="fill:#231f20;fill-opacity:1;fill-rule:nonzero;stroke:none"
               d="m 328.92203,17.501001 c 0,-1.104 -0.89401,-2.000001 -2,-2.000001 -1.10401,0 -2,0.896001 -2,2.000001 0,1.105 0.89599,2 2,2 1.10599,0 2,-0.895 2,-2" /><path
               id="path138"
               style="fill:none;stroke:#231f20;stroke-width:1;stroke-linecap:butt;stroke-linejoin:miter;stroke-miterlimit:4;stroke-dasharray:none;stroke-opacity:1"
               d="m 328.92203,17.501001 c 0,-1.104 -0.89401,-2.000001 -2,-2.000001 -1.10401,0 -2,0.896001 -2,2.000001 0,1.105 0.89599,2 2,2 1.10599,0 2,-0.895 2,-2 z" /><path
               id="path140"
               style="fill:#231f20;fill-opacity:1;fill-rule:nonzero;stroke:none"
               d="m 293.42203,17.001001 c 0,-1.105 -0.89502,-2.000001 -2,-2.000001 -1.10401,0 -2,0.895001 -2,2.000001 0,1.104 0.89599,2 2,2 1.10498,0 2,-0.896 2,-2" /><path
               id="path142"
               style="fill:none;stroke:#231f20;stroke-width:1;stroke-linecap:butt;stroke-linejoin:miter;stroke-miterlimit:4;stroke-dasharray:none;stroke-opacity:1"
               d="m 293.42203,17.001001 c 0,-1.105 -0.89502,-2.000001 -2,-2.000001 -1.10401,0 -2,0.895001 -2,2.000001 0,1.104 0.89599,2 2,2 1.10498,0 2,-0.896 2,-2 z" /><path
               id="path144"
               style="fill:#231f20;fill-opacity:1;fill-rule:nonzero;stroke:none"
               d="m 363.92203,17.501001 c 0,-1.104 -0.89401,-2.000001 -2,-2.000001 -1.10401,0 -2,0.896001 -2,2.000001 0,1.105 0.89599,2 2,2 1.10599,0 2,-0.895 2,-2" /><path
               id="path146"
               style="fill:none;stroke:#231f20;stroke-width:1;stroke-linecap:butt;stroke-linejoin:miter;stroke-miterlimit:4;stroke-dasharray:none;stroke-opacity:1"
               d="m 363.92203,17.501001 c 0,-1.104 -0.89401,-2.000001 -2,-2.000001 -1.10401,0 -2,0.896001 -2,2.000001 0,1.105 0.89599,2 2,2 1.10599,0 2,-0.895 2,-2 z" /><path
               id="path148"
               style="fill:#231f20;fill-opacity:1;fill-rule:nonzero;stroke:none"
               d="m 398.42203,17.501001 c 0,-1.104 -0.89401,-2.000001 -2,-2.000001 -1.10401,0 -2,0.896001 -2,2.000001 0,1.105 0.89599,2 2,2 1.10599,0 2,-0.895 2,-2" /><path
               id="path150"
               style="fill:none;stroke:#231f20;stroke-width:1;stroke-linecap:butt;stroke-linejoin:miter;stroke-miterlimit:4;stroke-dasharray:none;stroke-opacity:1"
               d="m 398.42203,17.501001 c 0,-1.104 -0.89401,-2.000001 -2,-2.000001 -1.10401,0 -2,0.896001 -2,2.000001 0,1.105 0.89599,2 2,2 1.10599,0 2,-0.895 2,-2 z" /><text
               id="text154"
               style="font-variant:normal;font-weight:normal;font-size:11.95500088px;font-family:CMR12;-inkscape-font-specification:CMR12;writing-mode:lr-tb;fill:#231f20;fill-opacity:1;fill-rule:nonzero;stroke:none"
               transform="matrix(1,0,0,-1,289.177,3.0010002)"><tspan
                 id="tspan152"
                 y="0"
                 x="0">5</tspan></text>
<text
               id="text158"
               style="font-variant:normal;font-weight:normal;font-size:11.95500088px;font-family:CMR12;-inkscape-font-specification:CMR12;writing-mode:lr-tb;fill:#231f20;fill-opacity:1;fill-rule:nonzero;stroke:none"
               transform="matrix(1,0,0,-1,324.92245,3.0010002)"><tspan
                 id="tspan156"
                 y="0"
                 x="0">6</tspan></text>
<text
               id="text162"
               style="font-variant:normal;font-weight:normal;font-size:11.95500088px;font-family:CMR12;-inkscape-font-specification:CMR12;writing-mode:lr-tb;fill:#231f20;fill-opacity:1;fill-rule:nonzero;stroke:none"
               transform="matrix(1,0,0,-1,360.17776,3.0010002)"><tspan
                 id="tspan160"
                 y="0"
                 x="0">7</tspan></text>
</g></g></g></g></g></svg>