<?xml version="1.0" encoding="UTF-8" standalone="no"?>
<svg
   xmlns:dc="http://purl.org/dc/elements/1.1/"
   xmlns:cc="http://creativecommons.org/ns#"
   xmlns:rdf="http://www.w3.org/1999/02/22-rdf-syntax-ns#"
   xmlns:svg="http://www.w3.org/2000/svg"
   xmlns="http://www.w3.org/2000/svg"
   viewBox="0 0 316 196"
   height="196"
   width="316"
   xml:space="preserve"
   id="svg2"
   version="1.1"><metadata
     id="metadata8"><rdf:RDF><cc:Work
         rdf:about=""><dc:format>image/svg+xml</dc:format><dc:type
           rdf:resource="http://purl.org/dc/dcmitype/StillImage" /></cc:Work></rdf:RDF></metadata><defs
     id="defs6"><clipPath
       id="clipPath24"
       clipPathUnits="userSpaceOnUse"><path
         id="path22"
         d="M 0,0 H 237 V 147 H 0 Z" /></clipPath></defs><g
     transform="matrix(1.3333333,0,0,-1.3333333,0,196)"
     id="g10"><g
       id="g12" /><g
       id="g14" /><g
       id="g16"><g
         id="g18"><g
           clip-path="url(#clipPath24)"
           id="g20"><g
             id="g26" /><g
             id="g28"><path
               id="path30"
               style="fill:#231f20;fill-opacity:1;fill-rule:nonzero;stroke:none"
               d="M 24.315001,10.797001 V 142.65601" /><path
               id="path32"
               style="fill:none;stroke:#231f20;stroke-width:1;stroke-linecap:butt;stroke-linejoin:miter;stroke-miterlimit:4;stroke-dasharray:none;stroke-opacity:1"
               d="M 24.315001,10.797001 V 142.65601" /><path
               id="path34"
               style="fill:#231f20;fill-opacity:1;fill-rule:nonzero;stroke:none"
               d="M 7.6750002,13.638 H 191.54201" /><path
               id="path36"
               style="fill:none;stroke:#231f20;stroke-width:1;stroke-linecap:butt;stroke-linejoin:miter;stroke-miterlimit:4;stroke-dasharray:none;stroke-opacity:1"
               d="M 7.6750002,13.638 H 191.54201" /><path
               id="path38"
               style="fill:#231f20;fill-opacity:1;fill-rule:nonzero;stroke:none"
               d="m 190.828,13.638 -1.53299,2.522 0.085,0.057 4.11302,-1.633 c 1.433,-0.315 2.866,-0.630001 4.299,-0.946001 -1.433,-0.314999 -2.866,-0.63 -4.299,-0.944999 l -4.11302,-1.634 -0.085,0.043 1.53299,2.536" /><path
               id="path40"
               style="fill:#231f20;fill-opacity:1;fill-rule:nonzero;stroke:none"
               d="m 24.171001,139.51201 -2.522001,-1.534 -0.057,0.086 1.634001,4.112 c 0.314998,1.433 0.629999,2.866 0.944999,4.299 0.315001,-1.433 0.631001,-2.866 0.946,-4.299 l 1.634,-4.112 -0.043,-0.086 -2.537001,1.534" /><path
               id="path42"
               style="fill:none;stroke:#231f20;stroke-width:0.5;stroke-linecap:butt;stroke-linejoin:round;stroke-miterlimit:10;stroke-dasharray:none;stroke-opacity:1"
               d="m 24.184002,45.27 v -2.100997 m 0,2.100997 v -2.100002 m 0,32.900002 v -2.099999" /><path
               id="path44"
               style="fill:#231f20;fill-opacity:1;fill-rule:nonzero;stroke:none"
               d="M 55.509003,17.837002 V 13.87" /><path
               id="path46"
               style="fill:none;stroke:#231f20;stroke-width:0.80000001;stroke-linecap:butt;stroke-linejoin:miter;stroke-miterlimit:4;stroke-dasharray:none;stroke-opacity:1"
               d="M 55.509003,17.837002 V 13.87" /><path
               id="path48"
               style="fill:#231f20;fill-opacity:1;fill-rule:nonzero;stroke:none"
               d="M 118.39301,17.663 V 13.697001" /><path
               id="path50"
               style="fill:none;stroke:#231f20;stroke-width:0.80000001;stroke-linecap:butt;stroke-linejoin:miter;stroke-miterlimit:4;stroke-dasharray:none;stroke-opacity:1"
               d="M 118.39301,17.663 V 13.697001" /><path
               id="path52"
               style="fill:#231f20;fill-opacity:1;fill-rule:nonzero;stroke:none"
               d="M 86.776001,17.722 V 13.755001" /><path
               id="path54"
               style="fill:none;stroke:#231f20;stroke-width:0.80000001;stroke-linecap:butt;stroke-linejoin:miter;stroke-miterlimit:4;stroke-dasharray:none;stroke-opacity:1"
               d="M 86.776001,17.722 V 13.755001" /><path
               id="path56"
               style="fill:#231f20;fill-opacity:1;fill-rule:nonzero;stroke:none"
               d="M 24.679001,54.618004 H 28.645" /><path
               id="path58"
               style="fill:none;stroke:#231f20;stroke-width:0.80000001;stroke-linecap:butt;stroke-linejoin:miter;stroke-miterlimit:4;stroke-dasharray:none;stroke-opacity:1"
               d="M 24.679001,54.618004 H 28.645" /><path
               id="path60"
               style="fill:none;stroke:#231f20;stroke-width:0.5;stroke-linecap:butt;stroke-linejoin:round;stroke-miterlimit:10;stroke-dasharray:none;stroke-opacity:1"
               d="M 24.242001,45.051003 V 42.950001 M 24.65,63.674004 v -2.100003" /><path
               id="path62"
               style="fill:#231f20;fill-opacity:1;fill-rule:nonzero;stroke:none"
               d="m 149.412,17.633001 v -3.966" /><path
               id="path64"
               style="fill:none;stroke:#231f20;stroke-width:0.80000001;stroke-linecap:butt;stroke-linejoin:miter;stroke-miterlimit:4;stroke-dasharray:none;stroke-opacity:1"
               d="m 149.412,17.633001 v -3.966" /><path
               id="path66"
               style="fill:#231f20;fill-opacity:1;fill-rule:nonzero;stroke:none"
               d="m 24.109999,96.195007 h 3.967003" /><path
               id="path68"
               style="fill:none;stroke:#231f20;stroke-width:0.80000001;stroke-linecap:butt;stroke-linejoin:miter;stroke-miterlimit:4;stroke-dasharray:none;stroke-opacity:1"
               d="m 24.109999,96.195007 h 3.967003" /><text
               id="text72"
               style="font-variant:normal;font-weight:normal;font-size:8.36849976px;font-family:CMR12;-inkscape-font-specification:CMR12;writing-mode:lr-tb;fill:#231f20;fill-opacity:1;fill-rule:nonzero;stroke:none"
               transform="matrix(1,0,0,-1,22.0674,2.9310002)"><tspan
                 id="tspan70"
                 y="0"
                 x="0">0</tspan></text>
<path
               id="path74"
               style="fill:none;stroke:#231f20;stroke-width:0.5;stroke-linecap:butt;stroke-linejoin:round;stroke-miterlimit:10;stroke-dasharray:none;stroke-opacity:1"
               d="M 24.519001,15.373001 V 13.274 m 0,2.099001 V 13.274 m 0,63.700007 v -2.100006 m -1.094,-60.9 h 2.100001 m -1.050002,1.05 V 12.923 m -1.049999,1.051001 h 2.100001 m -1.050002,1.05 V 12.923 m 0,43.168003 v -2.100002 m -1.049999,42.146 h 2.100001 M 24.475,97.187004 v -2.099998" /><path
               id="path76"
               style="fill:#231f20;fill-opacity:1;fill-rule:nonzero;stroke:none"
               d="M 180.634,17.722 V 13.755001" /><path
               id="path78"
               style="fill:none;stroke:#231f20;stroke-width:0.80000001;stroke-linecap:butt;stroke-linejoin:miter;stroke-miterlimit:4;stroke-dasharray:none;stroke-opacity:1"
               d="M 180.634,17.722 V 13.755001" /><text
               id="text82"
               style="font-variant:normal;font-weight:normal;font-size:8.36849976px;font-family:CMR12;-inkscape-font-specification:CMR12;writing-mode:lr-tb;fill:#231f20;fill-opacity:1;fill-rule:nonzero;stroke:none"
               transform="matrix(1,0,0,-1,15.1572,14.044001)"><tspan
                 id="tspan80"
                 y="0"
                 x="0">0</tspan></text>
<text
               id="text86"
               style="font-variant:normal;font-weight:normal;font-size:8.36849976px;font-family:CMR12;-inkscape-font-specification:CMR12;writing-mode:lr-tb;fill:#231f20;fill-opacity:1;fill-rule:nonzero;stroke:none"
               transform="matrix(1,0,0,-1,54.013817,2.5088608)"><tspan
                 id="tspan84"
                 y="0"
                 x="0">2</tspan></text>
<text
               id="text90"
               style="font-variant:normal;font-weight:normal;font-size:8.36849976px;font-family:CMR12;-inkscape-font-specification:CMR12;writing-mode:lr-tb;fill:#231f20;fill-opacity:1;fill-rule:nonzero;stroke:none"
               transform="matrix(1,0,0,-1,117.1918,3.2101412)"><tspan
                 id="tspan88"
                 y="0"
                 x="0">6</tspan></text>
<text
               id="text94"
               style="font-variant:normal;font-weight:normal;font-size:8.36849976px;font-family:CMR12;-inkscape-font-specification:CMR12;writing-mode:lr-tb;fill:#231f20;fill-opacity:1;fill-rule:nonzero;stroke:none"
               transform="matrix(1,0,0,-1,85.170578,2.860338)"><tspan
                 id="tspan92"
                 y="0"
                 x="0">4</tspan></text>
<text
               id="text98"
               style="font-variant:normal;font-weight:normal;font-size:8.36849976px;font-family:CMR12;-inkscape-font-specification:CMR12;writing-mode:lr-tb;fill:#231f20;fill-opacity:1;fill-rule:nonzero;stroke:none"
               transform="matrix(1,0,0,-1,148.69836,2.860338)"><tspan
                 id="tspan96"
                 y="0"
                 x="0">8</tspan></text>
<text
               id="text102"
               style="font-variant:normal;font-weight:normal;font-size:11.95500088px;font-family:CMMI12;-inkscape-font-specification:CMMI12;writing-mode:lr-tb;fill:#231f20;fill-opacity:1;fill-rule:nonzero;stroke:none"
               transform="matrix(1,0,0,-1,9.2690001,134.6012)"><tspan
                 id="tspan100"
                 y="0"
                 x="0">P</tspan></text>
<text
               id="text106"
               style="font-variant:normal;font-weight:normal;font-size:11.95500088px;font-family:CMMI12;-inkscape-font-specification:CMMI12;writing-mode:lr-tb;fill:#231f20;fill-opacity:1;fill-rule:nonzero;stroke:none"
               transform="matrix(1,0,0,-1,214.66309,12.100699)"><tspan
                 id="tspan104"
                 y="0"
                 x="0">t</tspan></text>
<text
               id="text110"
               style="font-variant:normal;font-weight:normal;font-size:11.95500088px;font-family:CMR12;-inkscape-font-specification:CMR12;writing-mode:lr-tb;fill:#231f20;fill-opacity:1;fill-rule:nonzero;stroke:none"
               transform="matrix(1,0,0,-1,222.79248,12.100699)"><tspan
                 id="tspan108"
                 y="0"
                 x="0 4.5429006 9.1575308">(s)</tspan></text>
<path
               id="path112"
               style="fill:none;stroke:#231f20;stroke-width:0.5;stroke-linecap:butt;stroke-linejoin:round;stroke-miterlimit:10;stroke-dasharray:none;stroke-opacity:1"
               d="m 23.017,13.389999 h 2.100001 m -1.05,1.050001 v -2.1 M 23.017,13.389999 h 2.100001 m -1.05,1.050001 v -2.1 m 0,43.167004 v -2.100003 m 0,43.196003 v -2.098999 m 0,18.519995 v -2.1" /><path
               id="path114"
               style="fill:none;stroke:#231f20;stroke-width:1;stroke-linecap:butt;stroke-linejoin:round;stroke-miterlimit:10;stroke-dasharray:none;stroke-opacity:1"
               d="m 164.826,110.049 0.14602,0.03 h 0.46598 l 0.17601,0.029 H 166.08 l 0.14601,0.029 h 0.467 l 0.145,0.029 h 0.467 l 0.17499,0.029 h 0.46701 l 0.145,0.029 h 0.467 l 0.175,0.03 h 0.46699 l 0.14602,0.029 h 0.46598 l 0.17601,0.029 h 0.612 l 0.146,0.029 h 0.466 l 0.17501,0.029 h 0.46699 l 0.146,0.029 h 0.642 l 0.14599,0.03 h 0.612 l 0.175,0.029 h 0.46601 l 0.14599,0.029 h 0.642 l 0.14601,0.029 h 0.612 l 0.17501,0.029 h 0.61299 l 0.14599,0.029 h 0.642 l 0.14501,0.029 h 0.78801 l 0.14599,0.029 h 0.64099 l 0.146,0.03 h 0.64101 l 0.147,0.029 h 0.466 m -30.916,-1.575 h 0.14499 l 0.147,0.029 h 0.32 l 0.14601,0.029 h 0.175 l 0.146,0.03 h 0.321 l 0.14599,0.029 h 0.14501 l 0.175,0.029 h 0.29199 l 0.175,0.029 h 0.321 l 0.14601,0.029 h 0.14499 l 0.17601,0.029 H 152.78 l 0.175,0.03 h 0.29201 l 0.174,0.029 h 0.292 l 0.17499,0.029 h 0.32101 l 0.146,0.029 h 0.146 l 0.175,0.029 h 0.291 l 0.176,0.029 h 0.291 l 0.175,0.03 h 0.29199 l 0.175,0.029 h 0.32001 l 0.146,0.029 h 0.322 l 0.14499,0.029 h 0.321 l 0.14601,0.029 h 0.467 l 0.145,0.029 h 0.321 l 0.175,0.029 h 0.292 l 0.175,0.029 h 0.291 l 0.176,0.03 h 0.291 l 0.175,0.029 h 0.46699 l 0.146,0.029 h 0.32101 l 0.14499,0.029 h 0.467 l 0.175,0.029 h 0.29201 l 0.174,0.03 h 0.46699 l 0.14601,0.029 h 0.321 l 0.14499,0.029 h 0.46701 l 0.176,0.029 h 0.291 l 0.175,0.029 h 0.46699 m -30.94601,-2.362 0.17502,0.029 0.14599,0.029 h 0.146 l 0.175,0.029 h 0.146 l 0.145,0.03 0.17601,0.029 h 0.14499 l 0.146,0.029 h 0.175 l 0.14601,0.029 h 0.17499 l 0.14601,0.029 0.146,0.029 h 0.175 l 0.14499,0.029 h 0.147 l 0.174,0.029 h 0.14601 l 0.146,0.03 h 0.175 l 0.146,0.029 h 0.145 l 0.176,0.029 0.14599,0.029 h 0.17401 l 0.146,0.029 h 0.14599 l 0.17499,0.03 h 0.14601 l 0.146,0.029 h 0.175 l 0.14501,0.029 h 0.14599 l 0.17601,0.029 h 0.14499 l 0.14601,0.029 H 139.83 l 0.14601,0.03 h 0.17499 l 0.14601,0.029 h 0.146 l 0.175,0.029 h 0.14499 l 0.147,0.029 h 0.174 l 0.146,0.029 h 0.14601 l 0.175,0.029 h 0.146 l 0.145,0.03 h 0.176 l 0.14599,0.029 h 0.14501 l 0.175,0.029 h 0.14598 l 0.17502,0.029 h 0.14599 l 0.146,0.029 h 0.175 l 0.146,0.029 h 0.32101 l 0.14499,0.03 h 0.146 l 0.175,0.029 h 0.14601 l 0.146,0.029 h 0.175 l 0.146,0.029 h 0.175 l 0.14499,0.029 h 0.321 l 0.14601,0.029 h 0.146 l 0.175,0.029 h 0.146 l 0.145,0.029 h 0.32199 l 0.14501,0.03 h 0.175 l 0.14599,0.029 h 0.17499 l 0.14601,0.029 h 0.32001 l 0.146,0.029 h 0.14599 l 0.17601,0.029 h 0.291 l 0.17499,0.03 h 0.14601 l 0.146,0.029 h 0.321 l 0.175,0.029 m -30.94601,-3.52899 0.14601,0.029 0.17499,0.029 0.14501,0.029 0.14699,0.03 h 0.17401 l 0.14599,0.029 0.175,0.029 0.146,0.029 0.14601,0.029 0.175,0.029 0.146,0.03 h 0.146 l 0.174,0.029 0.146,0.029 0.14599,0.029 0.175,0.029 0.146,0.029 h 0.14601 l 0.17499,0.03 0.14501,0.029 0.17499,0.029 0.14701,0.029 0.14499,0.029 h 0.17501 l 0.14598,0.029 0.14602,0.029 0.175,0.029 0.14599,0.03 h 0.14601 l 0.17499,0.029 0.14501,0.029 0.14699,0.029 h 0.17401 l 0.14599,0.029 0.14601,0.03 0.17499,0.029 0.14601,0.029 h 0.175 l 0.146,0.029 0.146,0.029 0.174,0.03 h 0.146 l 0.14599,0.029 0.17501,0.029 0.14599,0.029 h 0.14601 l 0.17499,0.029 0.14501,0.029 h 0.14599 l 0.17601,0.03 0.14499,0.029 0.17501,0.029 h 0.146 l 0.146,0.029 0.175,0.029 0.14599,0.029 h 0.14601 l 0.17499,0.03 0.14501,0.029 h 0.14699 l 0.17401,0.029 0.146,0.029 h 0.146 l 0.175,0.029 0.146,0.029 h 0.175 l 0.146,0.029 0.14599,0.029 h 0.17401 l 0.146,0.03 0.14599,0.029 h 0.17499 l 0.14601,0.029 0.146,0.029 h 0.175 l 0.14501,0.029 0.14599,0.03 h 0.17601 l 0.14499,0.029 0.17501,0.029 H 131.08 l 0.14601,0.029 0.17499,0.029 h 0.14601 l 0.146,0.03 h 0.175 l 0.14499,0.029 0.147,0.029 h 0.174 l 0.146,0.029 0.14601,0.029 h 0.175 l 0.146,0.029 h 0.145 l 0.176,0.03 0.14599,0.029 h 0.17401 l 0.146,0.029 h 0.14598 m -30.91698,-5.25 0.14599,0.029 0.146,0.058 0.175,0.03 0.146,0.029 0.17501,0.029 0.14599,0.058 0.14501,0.029 0.17499,0.029 0.14701,0.059 0.14499,0.029 0.17501,0.029 0.14598,0.029 0.14602,0.059 0.175,0.029 0.14599,0.029 0.14601,0.029 0.17499,0.059 0.14501,0.029 0.17499,0.029 0.14601,0.029 0.14599,0.058 0.17501,0.03 0.14599,0.029 0.14601,0.029 0.17499,0.029 0.14601,0.058 0.14599,0.03 0.17401,0.029 0.146,0.029 0.14599,0.029 0.17501,0.058 0.14599,0.029 0.17501,0.029 0.14599,0.03 0.14501,0.029 0.17499,0.029 0.14701,0.029 0.14499,0.059 0.17501,0.029 0.14599,0.029 0.14601,0.029 0.175,0.029 0.14599,0.03 0.14601,0.029 0.17499,0.029 0.14501,0.058 0.17499,0.029 0.14601,0.03 0.14599,0.029 0.175,0.029 0.146,0.029 0.14601,0.029 0.17499,0.029 0.14601,0.03 0.146,0.029 0.174,0.029 0.146,0.029 0.14599,0.029 0.175,0.029 0.146,0.058 0.14601,0.03 0.17499,0.029 0.14501,0.029 0.17499,0.029 0.14701,0.029 0.14499,0.03 0.17501,0.029 0.14598,0.029 0.14602,0.029 0.175,0.029 0.14599,0.03 0.14601,0.029 0.17499,0.029 0.14501,0.029 0.14699,0.029 0.17401,0.029 0.14599,0.03 0.17501,0.029 0.14599,0.029 h 0.14601 l 0.175,0.029 0.146,0.029 0.146,0.029 0.174,0.03 0.146,0.029 0.14599,0.029 0.17501,0.029 0.14599,0.029 0.14601,0.029 0.17499,0.029 0.14501,0.029 0.17499,0.03 0.292,0.058 h 0.17501 l 0.14599,0.029 0.14601,0.029 0.175,0.03 0.14599,0.029 m -30.916995,-7.875004 0.144997,0.05799 0.146003,0.059 0.174996,0.058 0.146003,0.05801 0.145996,0.059 0.175004,0.058 0.291992,0.116997 0.174011,0.05801 0.146996,0.058 0.145004,0.058 0.174995,0.059 0.146004,0.029 0.174995,0.05801 0.146004,0.059 0.144997,0.058 0.176002,0.058 0.146004,0.059 0.144989,0.05801 0.17601,0.02899 0.144997,0.05901 0.146003,0.058 0.174996,0.058 0.146004,0.059 0.145996,0.029 0.175003,0.058 0.145996,0.058 0.174995,0.058 0.145005,0.059 0.146003,0.029 0.174996,0.05801 0.146003,0.059 0.146004,0.029 0.174996,0.058 0.146003,0.059 0.144997,0.05801 0.175003,0.029 0.146996,0.059 0.145004,0.058 0.174995,0.029 0.146004,0.058 0.145996,0.05901 0.175003,0.029 0.144997,0.058 0.176002,0.058 0.145996,0.029 0.145005,0.059 0.176002,0.058 0.144997,0.029 0.146003,0.059 0.174996,0.058 0.146004,0.029 0.145996,0.059 0.175003,0.029 0.145988,0.058 0.146012,0.059 0.173996,0.029 0.146003,0.058 0.175003,0.029 0.145996,0.059 0.146004,0.029 0.174996,0.058 0.146003,0.029 0.145989,0.058 0.174011,0.059 0.146996,0.029 0.145004,0.058 0.174995,0.029 0.146004,0.059 0.145996,0.029 0.175003,0.058 0.144997,0.03 0.176002,0.058 0.146004,0.029 0.144997,0.029 0.176002,0.059 0.144997,0.029 0.146003,0.058 0.174996,0.029 0.146004,0.059 0.145993,0.029 0.17501,0.058 0.14599,0.029 0.14601,0.029 0.17499,0.058 0.14501,0.03 0.176,0.058 0.14599,0.029 0.14501,0.029 0.17499,0.059 0.14601,0.029 0.14599,0.029 0.175,0.059 0.146,0.029 0.14601,0.058 0.17499,0.029 0.14601,0.03 0.14599,0.058 0.17401,0.029 m -30.946004,-11.753991 0.174995,0.08699 0.291001,0.17501 0.176002,0.088 0.145996,0.08699 0.144997,0.05901 0.17601,0.08701 0.144997,0.087 0.145996,0.088 0.175003,0.08701 0.146004,0.088 0.174995,0.088 0.146004,0.058 0.145996,0.08701 0.174995,0.088 0.145005,0.087 0.146003,0.08801 0.174996,0.05799 0.146003,0.08701 0.145996,0.088 0.175004,0.05801 0.146003,0.088 0.145996,0.088 0.174004,0.08701 0.146996,0.058 0.175003,0.088 0.144996,0.087 0.146004,0.05901 0.174995,0.087 0.146004,0.087 0.144997,0.059 0.176002,0.08701 0.145996,0.059 0.145005,0.087 0.176002,0.088 0.144997,0.058 0.146003,0.08801 0.174996,0.058 0.146004,0.088 0.174995,0.05801 0.146004,0.087 0.145996,0.058 0.175003,0.088 0.144997,0.05801 0.146003,0.088 0.174996,0.058 0.146003,0.088 0.145996,0.05801 0.175004,0.059 0.146003,0.087 0.144997,0.058 0.175003,0.08801 0.146996,0.058 0.175003,0.058 0.144996,0.088 0.146004,0.05801 0.174995,0.088 0.146004,0.058 0.144997,0.059 0.176002,0.08701 0.145996,0.058 0.145005,0.059 0.176002,0.058 0.144997,0.088 0.146003,0.05801 0.174996,0.05799 0.146004,0.08701 0.174995,0.059 0.146004,0.05801 0.145996,0.059 0.174995,0.08699 0.145005,0.059 0.146003,0.058 0.174996,0.05801 0.146003,0.059 0.145996,0.087 0.175004,0.058 0.146003,0.05901 0.145996,0.058 0.174004,0.058 0.146996,0.058 0.145004,0.059 0.174995,0.08701 0.146004,0.059 0.174995,0.058 0.146004,0.059 0.144997,0.058 0.176002,0.058 0.145996,0.05901 0.145005,0.058 0.176002,0.058 0.144997,0.059 0.146003,0.05801 0.174996,0.05799 0.146004,0.05801 0.145996,0.059 0.175003,0.058 0.145996,0.05801 0.175003,0.059 m -30.946003,-17.558998 0.146,0.145996 0.174995,0.116996 0.145005,0.117005 0.145999,0.145996 0.175003,0.116005 0.146,0.145996 0.175,0.117004 0.146,0.115998 0.145999,0.116996 0.175,0.146004 0.145,0.116997 0.147,0.115997 0.174999,0.117005 0.145,0.116005 0.146,0.145996 0.174999,0.116996 0.146,0.117005 0.145001,0.115997 0.176002,0.117004 0.145996,0.115998 0.175003,0.116997 0.146,0.117004 0.145001,0.116997 0.174999,0.116005 0.146,0.116996 0.146,0.116997 0.174999,0.116005 0.146,0.116997 0.145996,0.117004 0.175003,0.115998 0.145001,0.116996 0.145999,0.117005 0.175003,0.115997 0.146,0.117004 0.175,0.115998 0.146,0.088 0.145,0.117005 0.175999,0.116996 0.145,0.115998 0.147,0.117004 0.174999,0.087 0.145,0.117004 0.146,0.115998 0.174999,0.116997 0.146,0.088 0.145001,0.116996 0.176002,0.116005 0.145996,0.088 0.145005,0.115997 0.175994,0.08801 0.145005,0.115997 0.175003,0.116997 0.145996,0.08801 0.146004,0.115998 0.174995,0.088 0.146004,0.117004 0.145996,0.087 0.174995,0.117005 0.145005,0.08699 0.146003,0.117005 0.175995,0.087 0.145004,0.117004 0.145996,0.088 0.175004,0.116005 0.145996,0.088 0.175003,0.08699 0.145004,0.117012 0.146996,0.087 0.175003,0.088 0.144996,0.116005 0.146004,0.088 0.174995,0.088 0.146004,0.115998 0.145996,0.08801 0.175003,0.087 0.145996,0.117004 0.145005,0.087 0.176002,0.088 0.144997,0.087 0.175003,0.088 0.145996,0.116996 0.146004,0.08701 0.174995,0.088 0.292,0.174996 0.175003,0.08701 0.144997,0.115998 0.146003,0.088 0.175995,0.08801 0.145004,0.087 0.145996,0.088 0.175004,0.087 0.145996,0.08801 0.175003,0.087 0.145004,0.08801 0.146996,0.08699 0.175003,0.08701 0.144996,0.088 0.146004,0.08801 m -30.916004,-26.221 0.145,0.174995 0.174999,0.204002 0.146,0.175003 0.146,0.203995 0.174999,0.175003 0.146,0.204003 0.146,0.174995 0.175003,0.204002 L 42.5,66.153 l 0.146004,0.175003 0.174999,0.205002 0.146,0.174995 0.146,0.174004 0.174999,0.176002 0.146,0.203995 0.174,0.175003 0.146999,0.174996 0.145001,0.175003 0.174999,0.175003 0.146,0.174995 0.146,0.204002 0.175003,0.175003 0.146,0.174996 0.145999,0.175003 0.175,0.174995 0.145,0.175003 0.147,0.175003 0.174999,0.145997 0.145,0.175003 0.146,0.174995 0.174999,0.175003 0.146,0.175003 0.320999,0.320999 0.146,0.174996 0.174004,0.175003 0.146999,0.174995 0.145001,0.145004 0.174999,0.174996 0.146,0.175003 0.145,0.146004 0.175999,0.174995 0.146,0.146004 0.146,0.174995 0.174995,0.146004 0.145005,0.174995 0.174999,0.146004 0.146,0.175003 0.146,0.144997 0.175003,0.176002 0.146,0.144997 0.145999,0.146004 0.175,0.174995 0.145,0.146004 0.320995,0.320999 0.292004,0.292 0.174999,0.144996 0.146,0.146004 0.175003,0.174996 0.146,0.145996 L 50.93,75.166 51.105003,75.312004 51.25,75.458 l 0.146004,0.145004 0.174999,0.145997 0.146,0.146003 0.145,0.145996 0.175999,0.146004 0.146,0.145996 0.145996,0.145004 0.175003,0.145997 0.144997,0.145996 0.175003,0.146003 0.146,0.146004 0.146003,0.145996 0.175,0.116005 0.146,0.145996 0.145999,0.146004 0.175,0.145996 0.145,0.117004 0.145996,0.144997 0.175003,0.145996 0.146,0.146004 0.146,0.117004 0.174999,0.145996 0.146,0.145005 0.145001,0.116996 0.176002,0.146004 0.146,0.115997 0.174996,0.145997 0.145004,0.117004 0.146,0.145996 0.174999,0.117004 0.146,0.144997 0.145,0.117004 0.175999,0.145997 0.146,0.116005 m -30.917,-39.171006 0.146,0.292 0.146,0.262001 0.174,0.291 0.146999,0.292 0.144999,0.292 0.175001,0.263001 0.146,0.290996 0.146,0.263001 0.175001,0.291999 0.146,0.262001 0.146,0.292 0.174999,0.262001 0.145,0.292 0.175999,0.261997 0.146002,0.262001 0.145,0.292004 0.174999,0.262997 0.146,0.262001 0.146,0.263 0.174999,0.263001 0.292002,0.524997 0.174,0.262001 0.146999,0.263001 0.145001,0.262001 0.174999,0.262997 0.146,0.263004 0.175001,0.261997 0.146,0.262001 0.146,0.262997 0.174,0.233002 0.146997,0.263 0.145003,0.262001 0.174997,0.234001 0.146002,0.263001 0.146,0.231998 0.175001,0.262997 0.146,0.233002 0.146,0.263 0.174999,0.233002 0.145002,0.263 0.175999,0.232998 0.291,0.467003 0.174999,0.261997 0.146,0.234001 0.146,0.231995 0.174999,0.234005 0.292,0.466999 0.174,0.233002 0.146,0.232998 0.146,0.234001 0.175003,0.233002 0.291,0.466999 0.175999,0.233001 0.146,0.232998 0.174,0.232998 0.146999,0.205002 0.144997,0.233002 0.175003,0.233997 0.146,0.203003 0.146,0.233997 0.174999,0.234001 0.146004,0.203999 0.145999,0.232998 0.175,0.204002 0.145,0.234001 0.145996,0.203999 0.175003,0.233002 0.146,0.203998 0.174999,0.204003 0.146,0.233997 0.146,0.204002 0.174999,0.203999 0.146,0.233002 0.146,0.204998 0.175,0.204002 0.145,0.203999 0.146004,0.203998 0.174999,0.204003 0.146,0.203998 0.145,0.205002 0.175999,0.203999 0.146,0.203998 0.174,0.203999 0.146995,0.204002 0.145005,0.204002 0.174999,0.204998 0.292,0.408001 0.175003,0.175 0.146,0.203994 0.145999,0.204007 0.175,0.203998 0.145,0.174999 0.146,0.204003 0.174999,0.205002 m -17.033001,-26.426003 0.146,0.291 0.174999,0.292 0.146,0.320996 0.146,0.292003 0.175001,0.292 0.146,0.291 0.145001,0.292 0.174999,0.292 0.146,0.290997 0.175001,0.292003" /><path
               id="path116"
               style="fill:none;stroke:#231f20;stroke-width:0.80000001;stroke-linecap:butt;stroke-linejoin:round;stroke-miterlimit:10;stroke-dasharray:3, 3, 3, 3, 3, 3;stroke-dashoffset:0;stroke-opacity:1"
               d="M 25.117001,111.98901 H 188.85901" /><text
               id="text120"
               style="font-variant:normal;font-weight:normal;font-size:8.36849976px;font-family:CMR12;-inkscape-font-specification:CMR12;writing-mode:lr-tb;fill:#231f20;fill-opacity:1;fill-rule:nonzero;stroke:none"
               transform="matrix(1,0,0,-1,178.93501,2.1010001)"><tspan
                 id="tspan118"
                 y="0"
                 x="0 4.0921965">10</tspan></text>
<text
               id="text124"
               style="font-variant:normal;font-weight:normal;font-size:8.36849976px;font-family:CMR12;-inkscape-font-specification:CMR12;writing-mode:lr-tb;fill:#231f20;fill-opacity:1;fill-rule:nonzero;stroke:none"
               transform="matrix(1,0,0,-1,4.4944711,52.912853)"><tspan
                 id="tspan122"
                 y="0"
                 x="0 4.0921965 8.1843929 12.276589">5000</tspan></text>
<text
               id="text128"
               style="font-variant:normal;font-weight:normal;font-size:8.36849976px;font-family:CMR12;-inkscape-font-specification:CMR12;writing-mode:lr-tb;fill:#231f20;fill-opacity:1;fill-rule:nonzero;stroke:none"
               transform="matrix(1,0,0,-1,0.18134636,94.383789)"><tspan
                 id="tspan126"
                 y="0"
                 x="0 4.0921965 8.1843929 12.276589 16.368786">10000</tspan></text>
<text
               id="text132"
               style="font-variant:normal;font-weight:normal;font-size:8.36849976px;font-family:CMR12;-inkscape-font-specification:CMR12;writing-mode:lr-tb;fill:#231f20;fill-opacity:1;fill-rule:nonzero;stroke:none"
               transform="matrix(1,0,0,-1,-2.5007551e-4,109.78434)"><tspan
                 id="tspan130"
                 y="0"
                 x="0 4.0921965 8.1843929 12.276589 16.368786">12000</tspan></text>
</g></g></g></g></g></svg>