<?xml version="1.0" encoding="UTF-8" standalone="no"?>
<svg
   xmlns:dc="http://purl.org/dc/elements/1.1/"
   xmlns:cc="http://creativecommons.org/ns#"
   xmlns:rdf="http://www.w3.org/1999/02/22-rdf-syntax-ns#"
   xmlns:svg="http://www.w3.org/2000/svg"
   xmlns="http://www.w3.org/2000/svg"
   viewBox="0 0 298.66666 181.33333"
   height="181.33333"
   width="298.66666"
   xml:space="preserve"
   id="svg2"
   version="1.1"><metadata
     id="metadata8"><rdf:RDF><cc:Work
         rdf:about=""><dc:format>image/svg+xml</dc:format><dc:type
           rdf:resource="http://purl.org/dc/dcmitype/StillImage" /></cc:Work></rdf:RDF></metadata><defs
     id="defs6"><clipPath
       id="clipPath24"
       clipPathUnits="userSpaceOnUse"><path
         id="path22"
         d="M 0,0 H 224 V 136 H 0 Z" /></clipPath></defs><g
     transform="matrix(1.3333333,0,0,-1.3333333,0,181.33333)"
     id="g10"><g
       id="g12" /><g
       id="g14" /><g
       id="g16"><g
         id="g18"><g
           clip-path="url(#clipPath24)"
           id="g20"><g
             id="g26" /><g
             id="g28"><path
               id="path30"
               style="fill:#231f20;fill-opacity:1;fill-rule:nonzero;stroke:none"
               d="M 25.153002,26.928001 V 132.41501" /><path
               id="path32"
               style="fill:none;stroke:#231f20;stroke-width:1;stroke-linecap:butt;stroke-linejoin:miter;stroke-miterlimit:4;stroke-dasharray:none;stroke-opacity:1"
               d="M 25.153002,26.928001 V 132.41501" /><path
               id="path34"
               style="fill:#231f20;fill-opacity:1;fill-rule:nonzero;stroke:none"
               d="M 6.1360002,29.201002 H 216.26999" /><path
               id="path36"
               style="fill:none;stroke:#231f20;stroke-width:1;stroke-linecap:butt;stroke-linejoin:miter;stroke-miterlimit:4;stroke-dasharray:none;stroke-opacity:1"
               d="M 6.1360002,29.201002 H 216.26999" /><path
               id="path38"
               style="fill:#231f20;fill-opacity:1;fill-rule:nonzero;stroke:none"
               d="m 215.45401,29.201002 -1.752,2.017 0.097,0.045 4.70099,-1.306001 c 1.63701,-0.251999 3.27501,-0.504 4.91301,-0.755999 -1.638,-0.253 -3.276,-0.505001 -4.91301,-0.757 l -4.70099,-1.307001 -0.097,0.035 1.752,2.029001" /><path
               id="path40"
               style="fill:#231f20;fill-opacity:1;fill-rule:nonzero;stroke:none"
               d="m 24.989,129.899 -2.882999,-1.226 -0.065,0.068 1.867001,3.29 c 0.360001,1.14599 0.721001,2.293 1.080999,3.43899 0.360001,-1.14599 0.720002,-2.293 1.081,-3.43899 l 1.867002,-3.29 -0.05,-0.068 -2.898001,1.226" /><path
               id="path42"
               style="fill:#231f20;fill-opacity:1;fill-rule:nonzero;stroke:none"
               d="m 60.137001,34.381001 v -4.533" /><path
               id="path44"
               style="fill:none;stroke:#231f20;stroke-width:0.80000001;stroke-linecap:butt;stroke-linejoin:miter;stroke-miterlimit:4;stroke-dasharray:none;stroke-opacity:1"
               d="m 60.137001,34.381001 v -4.533" /><path
               id="path46"
               style="fill:#231f20;fill-opacity:1;fill-rule:nonzero;stroke:none"
               d="m 132.67,32.421001 v -3.173" /><path
               id="path48"
               style="fill:none;stroke:#231f20;stroke-width:0.80000001;stroke-linecap:butt;stroke-linejoin:miter;stroke-miterlimit:4;stroke-dasharray:none;stroke-opacity:1"
               d="m 132.67,32.421001 v -3.173" /><path
               id="path50"
               style="fill:#231f20;fill-opacity:1;fill-rule:nonzero;stroke:none"
               d="m 96.537003,32.468002 v -3.173" /><path
               id="path52"
               style="fill:none;stroke:#231f20;stroke-width:0.80000001;stroke-linecap:butt;stroke-linejoin:miter;stroke-miterlimit:4;stroke-dasharray:none;stroke-opacity:1"
               d="m 96.537003,32.468002 v -3.173" /><path
               id="path54"
               style="fill:#231f20;fill-opacity:1;fill-rule:nonzero;stroke:none"
               d="m 25.568001,78.504005 h 4.534" /><path
               id="path56"
               style="fill:none;stroke:#231f20;stroke-width:0.80000001;stroke-linecap:butt;stroke-linejoin:miter;stroke-miterlimit:4;stroke-dasharray:none;stroke-opacity:1"
               d="m 25.568001,78.504005 h 4.534" /><path
               id="path58"
               style="fill:#231f20;fill-opacity:1;fill-rule:nonzero;stroke:none"
               d="M 168.121,32.396 V 29.223001" /><path
               id="path60"
               style="fill:none;stroke:#231f20;stroke-width:0.80000001;stroke-linecap:butt;stroke-linejoin:miter;stroke-miterlimit:4;stroke-dasharray:none;stroke-opacity:1"
               d="M 168.121,32.396 V 29.223001" /><path
               id="path62"
               style="fill:#231f20;fill-opacity:1;fill-rule:nonzero;stroke:none"
               d="m 24.919001,127.72601 h 4.533001" /><path
               id="path64"
               style="fill:none;stroke:#231f20;stroke-width:0.80000001;stroke-linecap:butt;stroke-linejoin:miter;stroke-miterlimit:4;stroke-dasharray:none;stroke-opacity:1"
               d="m 24.919001,127.72601 h 4.533001" /><text
               id="text68"
               style="font-variant:normal;font-weight:normal;font-size:9.56400013px;font-family:CMR12;-inkscape-font-specification:CMR12;writing-mode:lr-tb;fill:#231f20;fill-opacity:1;fill-rule:nonzero;stroke:none"
               transform="matrix(1,0,0,-1,21.918001,17.345001)"><tspan
                 id="tspan66"
                 y="0"
                 x="0">0</tspan></text>
<path
               id="path70"
               style="fill:#231f20;fill-opacity:1;fill-rule:nonzero;stroke:none"
               d="M 203.80301,32.468002 V 29.294001" /><path
               id="path72"
               style="fill:none;stroke:#231f20;stroke-width:0.80000001;stroke-linecap:butt;stroke-linejoin:miter;stroke-miterlimit:4;stroke-dasharray:none;stroke-opacity:1"
               d="M 203.80301,32.468002 V 29.294001" /><text
               id="text76"
               style="font-variant:normal;font-weight:normal;font-size:9.56400013px;font-family:CMR12;-inkscape-font-specification:CMR12;writing-mode:lr-tb;fill:#231f20;fill-opacity:1;fill-rule:nonzero;stroke:none"
               transform="matrix(1,0,0,-1,14.020499,30.046001)"><tspan
                 id="tspan74"
                 y="0"
                 x="0">0</tspan></text>
<text
               id="text80"
               style="font-variant:normal;font-weight:normal;font-size:9.56400013px;font-family:CMR12;-inkscape-font-specification:CMR12;writing-mode:lr-tb;fill:#231f20;fill-opacity:1;fill-rule:nonzero;stroke:none"
               transform="matrix(1,0,0,-1,58.42902,16.862984)"><tspan
                 id="tspan78"
                 y="0"
                 x="0">2</tspan></text>
<text
               id="text84"
               style="font-variant:normal;font-weight:normal;font-size:9.56400013px;font-family:CMR12;-inkscape-font-specification:CMR12;writing-mode:lr-tb;fill:#231f20;fill-opacity:1;fill-rule:nonzero;stroke:none"
               transform="matrix(1,0,0,-1,130.63245,17.66349)"><tspan
                 id="tspan82"
                 y="0"
                 x="0">6</tspan></text>
<text
               id="text88"
               style="font-variant:normal;font-weight:normal;font-size:9.56400013px;font-family:CMR12;-inkscape-font-specification:CMR12;writing-mode:lr-tb;fill:#231f20;fill-opacity:1;fill-rule:nonzero;stroke:none"
               transform="matrix(1,0,0,-1,94.036758,17.263716)"><tspan
                 id="tspan86"
                 y="0"
                 x="0">4</tspan></text>
<text
               id="text92"
               style="font-variant:normal;font-weight:normal;font-size:9.56400013px;font-family:CMR12;-inkscape-font-specification:CMR12;writing-mode:lr-tb;fill:#231f20;fill-opacity:1;fill-rule:nonzero;stroke:none"
               transform="matrix(1,0,0,-1,166.63995,17.263716)"><tspan
                 id="tspan90"
                 y="0"
                 x="0">8</tspan></text>
<text
               id="text96"
               style="font-variant:normal;font-weight:normal;font-size:9.56400013px;font-family:CMR12;-inkscape-font-specification:CMR12;writing-mode:lr-tb;fill:#231f20;fill-opacity:1;fill-rule:nonzero;stroke:none"
               transform="matrix(1,0,0,-1,201.19565,16.396261)"><tspan
                 id="tspan94"
                 y="0"
                 x="0 4.676796">10</tspan></text>
<text
               id="text100"
               style="font-variant:normal;font-weight:normal;font-size:9.56400013px;font-family:CMR12;-inkscape-font-specification:CMR12;writing-mode:lr-tb;fill:#231f20;fill-opacity:1;fill-rule:nonzero;stroke:none"
               transform="matrix(1,0,0,-1,16.003143,75.183296)"><tspan
                 id="tspan98"
                 y="0"
                 x="0">5</tspan></text>
<text
               id="text104"
               style="font-variant:normal;font-weight:normal;font-size:9.56400013px;font-family:CMR12;-inkscape-font-specification:CMR12;writing-mode:lr-tb;fill:#231f20;fill-opacity:1;fill-rule:nonzero;stroke:none"
               transform="matrix(1,0,0,-1,12.275096,123.80189)"><tspan
                 id="tspan102"
                 y="0"
                 x="0 4.676796">10</tspan></text>
<path
               id="path106"
               style="fill:none;stroke:#231f20;stroke-width:1;stroke-linecap:butt;stroke-linejoin:round;stroke-miterlimit:10;stroke-dasharray:none;stroke-opacity:1"
               d="m 185.73701,93.823006 0.167,0.046 0.16598,0.047 0.2,0.047 0.16702,0.046 0.2,0.047 0.16701,0.047 0.16598,0.046 0.2,0.047 0.16701,0.046 0.167,0.047 0.2,0.047 0.16599,0.046 0.167,0.047 0.20001,0.047 0.167,0.046 0.16598,0.047 0.2,0.047 0.16702,0.047 0.2,0.046 0.166,0.047 0.16699,0.046 0.2,0.047 0.16701,0.047 0.166,0.047 0.201,0.04601 0.16599,0.047 0.167,0.046 0.20001,0.047 0.16601,0.047 0.16697,0.04601 0.2,0.047 0.16702,0.047 0.2,0.047 0.166,0.046 0.16699,0.047 0.2,0.047 0.16701,0.046 0.166,0.047 0.201,0.047 0.16599,0.046 0.167,0.047 0.20001,0.023 0.16601,0.047 0.16697,0.047 0.2,0.046 0.16702,0.047 0.16699,0.046 0.19901,0.047 0.16699,0.047 0.2,0.046 0.16701,0.047 0.166,0.047 0.201,0.046 0.16599,0.047 0.167,0.047 0.20001,0.047 0.16601,0.023 0.16697,0.046 0.2,0.047 0.16702,0.047 0.16699,0.046 0.19901,0.047 0.16699,0.047 0.2,0.047 0.16701,0.046 0.166,0.047 0.201,0.023 0.16599,0.047 0.167,0.04601 0.20001,0.047 0.16601,0.047 0.16697,0.047 0.2,0.046 0.16702,0.047 0.16699,0.047 0.19901,0.02299 0.16699,0.04701 0.2,0.046 0.16701,0.047 0.166,0.047 0.201,0.046 0.16599,0.047 0.167,0.047 0.20001,0.023 0.16601,0.047 0.16697,0.046 0.2,0.047 0.16702,0.047 0.16699,0.046 0.19901,0.047 0.16699,0.02299 0.2,0.047 0.16601,0.047 0.167,0.046 0.201,0.047 0.16599,0.047 0.167,0.023 0.20001,0.047 0.16601,0.046 m -35.33303,-9.450005 0.16702,0.07 0.167,0.047 0.19999,0.046 0.16599,0.047 0.16702,0.07 0.2,0.047 0.16699,0.047 0.166,0.046 0.2,0.07001 0.16701,0.047 0.167,0.047 0.2,0.069 0.16599,0.047 0.167,0.047 0.20001,0.046 0.167,0.071 0.19999,0.04601 0.16599,0.047 0.16702,0.046 0.2,0.047 0.16699,0.07 0.166,0.047 0.2,0.046 0.16701,0.047 0.166,0.07 0.201,0.047 0.16599,0.047 0.167,0.046 0.20001,0.047 0.16601,0.07001 0.20098,0.047 0.16599,0.046 0.16702,0.047 0.2,0.047 0.166,0.069 0.16699,0.047 0.2,0.047 0.16701,0.047 0.166,0.046 0.201,0.07 0.16599,0.047 0.167,0.046 0.20001,0.047 0.16601,0.047 0.20098,0.047 0.16599,0.069 0.16702,0.047 0.2,0.047 0.166,0.046 0.16699,0.047 0.2,0.047 0.16701,0.07 0.166,0.046 0.201,0.047 0.16599,0.047 0.167,0.04601 0.20001,0.047 0.16601,0.047 0.20098,0.07 0.16599,0.047 0.16702,0.046 0.2,0.047 0.166,0.04701 0.16699,0.046 0.2,0.047 0.16701,0.047 0.166,0.069 0.201,0.047 0.16599,0.047 0.167,0.046 0.20001,0.047 0.16601,0.047 0.20098,0.046 0.16599,0.047 0.16702,0.047 0.2,0.047 0.166,0.069 0.16699,0.047 0.2,0.047 0.16701,0.047 0.166,0.046 0.201,0.047 0.16599,0.046 0.167,0.047 0.20001,0.047 0.16601,0.047 0.16697,0.04601 0.2,0.047 0.16702,0.046 0.2,0.047 0.166,0.047 0.16699,0.07 0.2,0.046 0.16601,0.047 0.167,0.047 0.201,0.047 0.16599,0.046 0.167,0.047 0.20001,0.04701 M 150.37,83.206001 l 0.19999,0.047 0.16702,0.07 0.167,0.046 0.19999,0.07 0.16599,0.07 0.16702,0.047 0.2,0.07 0.16699,0.046 0.166,0.07 0.2,0.047 0.16701,0.07 0.19999,0.07 0.16701,0.047 0.16599,0.07 0.19999,0.046 0.16702,0.071 0.167,0.046 0.19999,0.07 0.16599,0.047 0.16702,0.07 0.2,0.07 0.16699,0.047 0.166,0.069 0.2,0.047 0.16701,0.07 0.19999,0.047 0.16701,0.07 0.16599,0.047 0.19999,0.07 0.16702,0.046 0.167,0.07 0.19999,0.047 0.16599,0.07 0.16702,0.047 0.2,0.069 0.16699,0.047 0.166,0.07 0.2,0.047 0.16701,0.07 0.19999,0.047 0.16701,0.069 0.16599,0.047 0.19999,0.047 0.16702,0.07 0.167,0.046 0.19999,0.071 0.16599,0.046 0.16702,0.07 0.2,0.047 0.16699,0.07 0.166,0.047 0.2,0.04601 0.16701,0.07 0.167,0.047 0.2,0.07 0.16599,0.04601 0.19999,0.07 0.16702,0.047 0.167,0.047 0.19999,0.07 0.16599,0.047 0.16702,0.069 0.2,0.047 0.16699,0.047 0.166,0.07001 0.2,0.046 0.16701,0.07 0.167,0.047 0.2,0.047 0.16599,0.07 0.19999,0.046 0.16702,0.047 0.167,0.07 0.19999,0.047 0.16599,0.07 0.16702,0.046 0.2,0.047 0.16699,0.07 0.166,0.047 0.2,0.046 0.16701,0.07 0.167,0.047 0.2,0.047 0.16599,0.07 0.19999,0.046 0.16702,0.047 0.16601,0.07 0.20098,0.047 0.16599,0.046 0.16702,0.071 0.2,0.046 0.166,0.047 0.16699,0.07 0.2,0.04701 0.16701,0.046 0.166,0.047 0.201,0.07 0.16599,0.046 0.19999,0.047 m -35.36598,-12.132995 0.16599,0.07 0.19999,0.07 0.16701,0.07 0.16701,0.07 0.19999,0.07 0.166,0.07 0.2,0.07 0.16701,0.07 0.16699,0.07 0.20001,0.07 0.16599,0.07 0.16701,0.07 0.19999,0.07 0.16701,0.07 0.16599,0.07 0.19999,0.07 0.33402,0.139999 0.19999,0.07 0.166,0.07 0.2,0.07 0.16701,0.07 0.16699,0.07001 0.20001,0.07 0.16599,0.046 0.16701,0.07 0.19999,0.071 0.16701,0.07 0.16599,0.07 0.19999,0.069 0.33402,0.140999 0.19999,0.069 0.166,0.07 0.16701,0.047 0.2,0.07 0.16699,0.07 0.20001,0.07 0.16599,0.07 0.16701,0.07 0.19999,0.07 0.16701,0.047 0.16599,0.07 0.19999,0.07 0.16701,0.07 0.16701,0.07 0.19999,0.07 0.166,0.047 0.16701,0.069 0.2,0.071 0.16699,0.069 0.20001,0.07 0.16599,0.047 0.16701,0.07 0.19999,0.07 0.16701,0.07 0.16599,0.047 0.19999,0.07 0.16701,0.07 0.16701,0.07 0.19999,0.07 0.166,0.046 0.16701,0.071 0.2,0.07 0.16699,0.069 0.20001,0.047 0.16599,0.07 0.16701,0.07 0.19999,0.07 0.16701,0.047 0.16599,0.07 0.19999,0.07 0.16701,0.04701 0.16701,0.07 0.19999,0.07 0.166,0.046 0.16701,0.07 0.2,0.07 0.16699,0.07 0.20001,0.047 0.16599,0.07 0.16701,0.07 0.19999,0.047 0.16701,0.069 0.16599,0.07 0.19999,0.047 0.16701,0.07 0.16701,0.07 0.19999,0.047 0.166,0.07 0.16701,0.07 0.2,0.047 0.16699,0.069 0.166,0.047 0.2,0.07 0.16701,0.07 0.19999,0.047 0.16701,0.07 0.16599,0.07 m -35.333,-14.162994 0.167,0.07 0.166,0.09299 0.2,0.07 0.16701,0.093 0.19999,0.094 0.167,0.069 0.166,0.094 0.19999,0.07 0.16702,0.09299 0.167,0.094 0.2,0.07 0.16599,0.093 0.16701,0.07 0.19999,0.093 0.167,0.07001 0.166,0.093 0.2,0.071 0.16701,0.093 0.19999,0.07 0.167,0.093 0.166,0.07 0.19999,0.093 0.16702,0.071 0.167,0.09299 0.2,0.07 0.16599,0.093 0.16701,0.07 0.19999,0.093 0.167,0.07 0.166,0.07 0.2,0.094 0.16701,0.07 0.19999,0.093 0.167,0.07 0.166,0.094 0.19999,0.069 0.16702,0.07 0.167,0.094 0.2,0.07 0.16599,0.07 0.16701,0.093 0.19999,0.07 0.167,0.07 0.166,0.094 0.2,0.07 0.16701,0.09299 0.19999,0.07 0.167,0.07 0.166,0.07 0.19999,0.093 0.16702,0.07 0.167,0.07 0.2,0.093 0.16599,0.071 0.16701,0.07 0.19999,0.093 0.167,0.07 0.166,0.07 0.2,0.07 0.16701,0.093 0.167,0.07 0.19999,0.07 0.166,0.07 0.19999,0.07 0.16702,0.09299 0.167,0.07 0.2,0.07101 0.16599,0.07 0.16701,0.09299 0.19999,0.07 0.167,0.07 0.166,0.07 0.19999,0.07 0.16701,0.07001 0.16701,0.093 0.19999,0.07 0.166,0.07 0.2,0.07 0.16701,0.07 0.16699,0.07 0.20001,0.094 0.16599,0.069 0.16701,0.07 0.19999,0.07 0.16701,0.071 0.16599,0.07 0.19999,0.069 0.16701,0.071 0.16701,0.069 0.19999,0.07 0.166,0.094 0.2,0.07 0.16701,0.07 0.16699,0.07 0.20001,0.07 0.16599,0.07 0.16701,0.07001 0.19999,0.07 0.16701,0.07 m -35.334015,-17.010002 0.167008,0.115997 0.166,0.094 0.200005,0.115997 0.166992,0.094 0.166008,0.117 0.200996,0.093 0.166,0.117 0.166993,0.093 0.200004,0.093 0.167,0.117001 0.166,0.09399 0.200005,0.116005 0.166992,0.09399 0.199997,0.09301 0.167005,0.116997 0.167,0.092 0.19901,0.094 0.16699,0.115997 0.16701,0.094 0.19999,0.09399 0.167,0.116005 0.166,0.093 0.2,0.093 0.167,0.117 0.166,0.093 0.20001,0.094 0.16699,0.093 0.2,0.117001 0.167,0.093 0.167,0.093 0.19901,0.094 0.16699,0.093 0.16701,0.116996 0.19999,0.093 0.167,0.093 0.166,0.094 0.2,0.093 0.16701,0.093 0.16599,0.094 0.20001,0.116001 0.334,0.187 0.19999,0.093 0.167,0.09399 0.19901,0.093 0.16699,0.093 0.16701,0.09399 0.19999,0.093 0.167,0.093 0.166,0.094 0.2,0.093 0.16701,0.093 0.16599,0.094 0.20001,0.09299 0.16699,0.093 0.16701,0.094 0.19999,0.093 0.167,0.09399 0.19901,0.093 0.16699,0.093 0.16701,0.094 0.19999,0.09299 0.167,0.093 0.166,0.094 0.2,0.093 0.16701,0.093 0.16599,0.07 0.20001,0.093 0.16699,0.094 0.16701,0.093 0.19999,0.093 0.167,0.094 0.19901,0.093 0.16699,0.07 0.16701,0.09399 0.19999,0.093 0.167,0.093 0.166,0.09299 0.2,0.07 0.16701,0.094 0.166,0.093 0.2,0.093 0.16699,0.071 0.16701,0.093 0.19999,0.093 0.167,0.093 0.19901,0.07 0.334,0.186997 0.19999,0.093 0.167,0.07 0.166,0.094 0.2,0.093 0.16701,0.07 0.166,0.09399 0.2,0.093 0.16699,0.07 0.16701,0.093 0.19999,0.094 m -35.367002,-21.327004 0.199997,0.14 0.167008,0.139999 0.166,0.14 0.200005,0.139999 0.332992,0.280003 0.201004,0.139999 0.166,0.139999 0.166993,0.116001 0.200004,0.14 0.167,0.140999 0.200005,0.139 0.166,0.117 0.166992,0.140995 0.199997,0.140003 0.167008,0.139004 0.166,0.116997 0.200005,0.140003 0.166992,0.115997 0.166008,0.141003 0.200996,0.14 0.166,0.116996 0.166993,0.14 0.200004,0.116001 0.167,0.140003 0.200005,0.116997 0.166,0.139 0.166992,0.117 0.199997,0.140999 0.167008,0.116001 0.166,0.14 0.200005,0.116001 0.166992,0.139999 0.166008,0.117001 0.200996,0.117 0.166,0.14 0.166993,0.116001 0.200004,0.117 0.167,0.14 0.200005,0.117 0.166,0.115998 0.166992,0.141002 0.199997,0.116997 0.167008,0.116001 0.166,0.117001 0.200005,0.116997 0.166992,0.139003 0.166008,0.116002 0.200996,0.118 0.166,0.116996 0.166993,0.116001 0.200004,0.116002 0.167,0.139999 0.200005,0.117001 0.166,0.117 0.166992,0.116001 0.199997,0.116997 0.333008,0.233002 0.200005,0.117 0.166992,0.117001 0.166008,0.115997 0.200996,0.117001 0.166,0.117 0.166993,0.116001 0.200004,0.117997 0.167,0.116001 0.200005,0.094 0.166,0.116005 0.166992,0.115997 0.199997,0.117996 0.167008,0.116005 0.166,0.117001 0.200005,0.116997 0.166992,0.093 0.166008,0.116001 0.200996,0.117001 0.166,0.117 0.166993,0.093 0.200004,0.117 0.167,0.116997 0.166,0.116001 0.200005,0.093 0.166992,0.117001 0.199997,0.115997 0.167008,0.094 0.166,0.116001 0.200005,0.116997 0.166992,0.093 0.166008,0.117997 0.200996,0.116004 0.166,0.093 0.166993,0.117001 0.200004,0.093 0.167,0.117001 0.166,0.117 0.200005,0.093 0.166992,0.116001 0.199997,0.094 m -35.366993,-28.631003 0.166996,0.209999 0.200001,0.210001 0.167004,0.186999 0.166,0.210001 0.200001,0.209999 0.166996,0.187 0.2,0.209999 0.167004,0.187 0.166,0.210003 0.199997,0.185997 0.166996,0.210003 0.167004,0.187 0.200005,0.185997 0.166,0.187001 0.166992,0.209999 0.199997,0.187 0.167008,0.187 0.166,0.186001 0.199997,0.187 0.167,0.186001 0.199997,0.187001 0.167007,0.187 0.166,0.187 0.199997,0.187 0.334,0.372998 0.200005,0.186 0.166,0.187001 0.166992,0.164001 0.199997,0.186997 0.167008,0.186001 0.166,0.187 0.199997,0.163002 0.167,0.186001 0.199997,0.163997 0.167007,0.186001 0.166,0.164002 0.199997,0.185997 0.167,0.164001 0.167,0.186001 0.200005,0.163998 0.166,0.163002 0.166992,0.187 0.199997,0.163997 0.167008,0.163002 0.166,0.186001 0.199997,0.162998 0.167,0.163003 0.166,0.164997 0.201004,0.163002 0.166,0.162998 0.199997,0.163002 0.167,0.162998 0.167,0.164002 0.200005,0.163997 0.166,0.162003 0.166992,0.163997 0.199997,0.163002 0.167008,0.162999 0.166,0.164001 L 72.903,42.07 l 0.167,0.163002 0.166,0.139 0.201004,0.164001 0.167,0.162998 0.198997,0.163002 0.167,0.14 0.167,0.163997 0.200005,0.163002 0.166999,0.14 0.165993,0.164001 0.199997,0.14 0.167008,0.162998 0.166,0.139999 0.199997,0.163002 0.167,0.140995 0.166,0.162007 0.201004,0.140998 0.167,0.162999 0.198997,0.140003 0.167,0.139999 0.167,0.162998 0.200005,0.140999 0.166,0.14 0.166992,0.163002 0.199997,0.139 0.167008,0.139999 0.166,0.141003 0.200005,0.162998 0.166992,0.139999 0.166,0.14 0.201004,0.140003 0.167,0.139999 0.198997,0.14 0.167,0.139999 0.167,0.139999 0.200005,0.14 0.166999,0.140003 0.165993,0.139999 M 60.57,29.376001 l 0.2,0.210001 0.167004,0.209999 0.166,0.21 0.199997,0.210001 0.334,0.42 0.199001,0.208999 0.167,0.210001" /><text
               id="text110"
               style="font-variant:normal;font-weight:normal;font-size:9.56400013px;font-family:CMMI12;-inkscape-font-specification:CMMI12;writing-mode:lr-tb;fill:#231f20;fill-opacity:1;fill-rule:nonzero;stroke:none"
               transform="matrix(1,0,0,-1,0,77.058601)"><tspan
                 id="tspan108"
                 y="0"
                 x="0">S</tspan></text>
<text
               id="text114"
               style="font-variant:normal;font-weight:normal;font-size:9.56400013px;font-family:CMMI12;-inkscape-font-specification:CMMI12;writing-mode:lr-tb;fill:#231f20;fill-opacity:1;fill-rule:nonzero;stroke:none"
               transform="matrix(1,0,0,-1,121.03815,2.3905399)"><tspan
                 id="tspan112"
                 y="0"
                 x="0">P</tspan></text>
</g></g></g></g></g></svg>