<?xml version="1.0" encoding="UTF-8" standalone="no"?>
<svg
   xmlns:dc="http://purl.org/dc/elements/1.1/"
   xmlns:cc="http://creativecommons.org/ns#"
   xmlns:rdf="http://www.w3.org/1999/02/22-rdf-syntax-ns#"
   xmlns:svg="http://www.w3.org/2000/svg"
   xmlns="http://www.w3.org/2000/svg"
   viewBox="0 0 418.66666 194.66667"
   height="194.66667"
   width="418.66666"
   xml:space="preserve"
   id="svg2"
   version="1.1"><metadata
     id="metadata8"><rdf:RDF><cc:Work
         rdf:about=""><dc:format>image/svg+xml</dc:format><dc:type
           rdf:resource="http://purl.org/dc/dcmitype/StillImage" /></cc:Work></rdf:RDF></metadata><defs
     id="defs6"><clipPath
       id="clipPath24"
       clipPathUnits="userSpaceOnUse"><path
         id="path22"
         d="M 0,0 H 314 V 146 H 0 Z" /></clipPath></defs><g
     transform="matrix(1.3333333,0,0,-1.3333333,0,194.66667)"
     id="g10"><g
       id="g12" /><g
       id="g14" /><g
       id="g16"><g
         id="g18"><g
           clip-path="url(#clipPath24)"
           id="g20"><g
             id="g26" /><g
             id="g28"><path
               id="path30"
               style="fill:#231f20;fill-opacity:1;fill-rule:nonzero;stroke:none"
               d="M 90.087006,10.2 V 142.05901" /><path
               id="path32"
               style="fill:none;stroke:#231f20;stroke-width:1;stroke-linecap:butt;stroke-linejoin:miter;stroke-miterlimit:4;stroke-dasharray:none;stroke-opacity:1"
               d="M 90.087006,10.2 V 142.05901" /><path
               id="path34"
               style="fill:#231f20;fill-opacity:1;fill-rule:nonzero;stroke:none"
               d="M 73.447006,13.041 H 257.31302" /><path
               id="path36"
               style="fill:none;stroke:#231f20;stroke-width:1;stroke-linecap:butt;stroke-linejoin:miter;stroke-miterlimit:4;stroke-dasharray:none;stroke-opacity:1"
               d="M 73.447006,13.041 H 257.31302" /><path
               id="path38"
               style="fill:#231f20;fill-opacity:1;fill-rule:nonzero;stroke:none"
               d="m 256.60001,13.041 -1.534,2.522001 0.086,0.057 4.113,-1.633 c 1.43201,-0.314999 2.866,-0.63 4.29902,-0.946 -1.43302,-0.314999 -2.86701,-0.63 -4.29902,-0.944999 l -4.113,-1.634 -0.086,0.043 1.534,2.536" /><path
               id="path40"
               style="fill:#231f20;fill-opacity:1;fill-rule:nonzero;stroke:none"
               d="m 89.943001,138.91501 -2.521996,-1.534 -0.057,0.086 1.632996,4.112 c 0.315002,1.433 0.631004,2.866 0.945999,4.299 0.315002,-1.433 0.630005,-2.866 0.945007,-4.299 l 1.633995,-4.112 -0.043,-0.086 -2.536003,1.534" /><path
               id="path42"
               style="fill:none;stroke:#231f20;stroke-width:0.5;stroke-linecap:butt;stroke-linejoin:round;stroke-miterlimit:10;stroke-dasharray:none;stroke-opacity:1"
               d="m 89.955002,44.673 v -2.100998 m 0,2.100998 v -2.099998 m 0,32.900005 v -2.100006" /><path
               id="path44"
               style="fill:#231f20;fill-opacity:1;fill-rule:nonzero;stroke:none"
               d="M 116.84801,17.007 V 13.041" /><path
               id="path46"
               style="fill:none;stroke:#231f20;stroke-width:0.80000001;stroke-linecap:butt;stroke-linejoin:miter;stroke-miterlimit:4;stroke-dasharray:none;stroke-opacity:1"
               d="M 116.84801,17.007 V 13.041" /><path
               id="path48"
               style="fill:#231f20;fill-opacity:1;fill-rule:nonzero;stroke:none"
               d="M 168.76501,16.599001 V 12.633" /><path
               id="path50"
               style="fill:none;stroke:#231f20;stroke-width:0.80000001;stroke-linecap:butt;stroke-linejoin:miter;stroke-miterlimit:4;stroke-dasharray:none;stroke-opacity:1"
               d="M 168.76501,16.599001 V 12.633" /><path
               id="path52"
               style="fill:#231f20;fill-opacity:1;fill-rule:nonzero;stroke:none"
               d="M 142.048,16.659 V 12.692" /><path
               id="path54"
               style="fill:none;stroke:#231f20;stroke-width:0.80000001;stroke-linecap:butt;stroke-linejoin:miter;stroke-miterlimit:4;stroke-dasharray:none;stroke-opacity:1"
               d="M 142.048,16.659 V 12.692" /><path
               id="path56"
               style="fill:#231f20;fill-opacity:1;fill-rule:nonzero;stroke:none"
               d="M 246.17201,16.541 V 12.575001" /><path
               id="path58"
               style="fill:none;stroke:#231f20;stroke-width:0.80000001;stroke-linecap:butt;stroke-linejoin:miter;stroke-miterlimit:4;stroke-dasharray:none;stroke-opacity:1"
               d="M 246.17201,16.541 V 12.575001" /><path
               id="path60"
               style="fill:#231f20;fill-opacity:1;fill-rule:nonzero;stroke:none"
               d="m 89.779007,37.381001 h 3.966995" /><path
               id="path62"
               style="fill:none;stroke:#231f20;stroke-width:0.80000001;stroke-linecap:butt;stroke-linejoin:miter;stroke-miterlimit:4;stroke-dasharray:none;stroke-opacity:1"
               d="m 89.779007,37.381001 h 3.966995" /><path
               id="path64"
               style="fill:#231f20;fill-opacity:1;fill-rule:nonzero;stroke:none"
               d="m 90.129997,62.275002 h 3.967011" /><path
               id="path66"
               style="fill:none;stroke:#231f20;stroke-width:0.80000001;stroke-linecap:butt;stroke-linejoin:miter;stroke-miterlimit:4;stroke-dasharray:none;stroke-opacity:1"
               d="m 90.129997,62.275002 h 3.967011" /><path
               id="path68"
               style="fill:none;stroke:#231f20;stroke-width:0.5;stroke-linecap:butt;stroke-linejoin:round;stroke-miterlimit:10;stroke-dasharray:none;stroke-opacity:1"
               d="M 90.013,44.454002 V 42.353001 M 127.551,13.187 h 2.1 m 36.95401,0 h 2.101 m 36.95398,0 h 2.1 m 36.95401,0 h 2.10001 m -131.396,-0.451999 h 2.1 m 23.917,0 h 2.09999 m 23.945,0 h 2.10101 m 23.94501,0 h 2.09999 m 23.917,0 h 2.1 m 23.94599,0 h 2.10001 m -158.317008,24.646 h 2.100006 M 90.421005,38.43 v -2.098999 m 0,26.746002 v -2.100002 m -1.049003,25.696003 h 2.100006 m -1.051003,1.050003 v -2.100006" /><path
               id="path70"
               style="fill:none;stroke:#231f20;stroke-width:1;stroke-linecap:butt;stroke-linejoin:round;stroke-miterlimit:10;stroke-dasharray:none;stroke-opacity:1"
               d="m 220.85501,25.072001 0.263,-0.087 0.263,-0.088 0.262,-0.115999 0.262,-0.088 0.263,-0.088 0.26301,-0.087 0.26199,-0.088 0.263,-0.087 0.26201,-0.087 0.26198,-0.088 0.234,-0.115999 0.26301,-0.088 0.262,-0.087 0.262,-0.088 0.263,-0.088 0.26201,-0.087 0.263,-0.088 0.263,-0.087 0.26199,-0.088 0.26199,-0.087 0.263,-0.087 0.26301,-0.088 0.262,-0.087 0.262,-0.088 0.233,-0.088 0.263,-0.087 0.263,-0.088 0.26201,-0.087 0.26297,-0.088 0.26202,-0.087 0.263,-0.087 0.262,-0.088 0.26298,-0.087 0.26203,-0.059 0.26199,-0.088 0.263,-0.087 0.26298,-0.088 0.23302,-0.087 0.263,-0.087 0.262,-0.088 0.26199,-0.087 0.26301,-0.088 0.26301,-0.059 0.26199,-0.087 0.263,-0.087 0.26201,-0.088 0.26199,-0.087 0.263,-0.088 0.263,-0.059 0.262,-0.087 0.262,-0.088 0.234,-0.087 0.26201,-0.087 0.263,-0.058 0.263,-0.088 0.26199,-0.088 0.26199,-0.087 0.263,-0.058 0.26301,-0.088 0.262,-0.088 0.262,-0.058 0.263,-0.088 0.26201,-0.087 0.263,-0.087 0.233,-0.058 0.263,-0.088 0.26199,-0.088 0.26299,-0.058 0.26201,-0.087 0.263,-0.088 0.26201,-0.059 0.26199,-0.087 0.263,-0.088 0.263,-0.057 0.26201,-0.088 0.26297,-0.087 0.26202,-0.059 0.263,-0.087 0.233,-0.059 0.26301,-0.087 0.26199,-0.088 0.263,-0.058 0.26201,-0.087 0.26198,-0.059 0.26301,-0.087 0.263,-0.059 0.262,-0.087 0.26199,-0.088 0.26301,-0.058 0.26301,-0.088 0.26199,-0.058 0.263,-0.087 0.233,-0.059 0.26199,-0.088 0.263,-0.057 0.26301,-0.088 0.262,-0.058 0.262,-0.088 0.263,-0.058 m -51.537,18.492 0.233,-0.117 0.524,-0.233998 0.263,-0.116001 0.263,-0.117 0.26199,-0.116001 0.26299,-0.117001 0.26202,-0.116997 0.263,-0.116001 0.262,-0.117001 0.26298,-0.117 0.26203,-0.117001 0.26199,-0.115997 0.23399,-0.117001 0.262,-0.116001 0.52601,-0.234001 0.262,-0.116997 0.26199,-0.087 0.52602,-0.234002 0.26199,-0.115997 0.263,-0.116001 0.26199,-0.118 0.26201,-0.116001 0.263,-0.088 0.263,-0.115998 0.233,-0.117 0.262,-0.116001 0.263,-0.088 0.26201,-0.116001 0.263,-0.118 0.263,-0.116001 0.26199,-0.088 0.26199,-0.115999 0.263,-0.117 0.26301,-0.116 0.262,-0.088 0.262,-0.115999 0.263,-0.118 0.26201,-0.087 0.23397,-0.117002 0.26201,-0.115998 0.263,-0.088 0.26201,-0.116999 0.26299,-0.116001 0.26201,-0.087 0.263,-0.117 0.26201,-0.087 0.26199,-0.116999 0.263,-0.117 0.263,-0.088 0.26199,-0.115997 0.26299,-0.088 0.23302,-0.116003 0.262,-0.088 0.263,-0.115999 0.26301,-0.088 0.26199,-0.116999 0.263,-0.087 0.26201,-0.117 0.26198,-0.088 0.26301,-0.116001 0.263,-0.087 0.262,-0.117 0.26199,-0.087 0.26301,-0.116999 0.26301,-0.088 0.233,-0.087 0.263,-0.116999 0.26199,-0.087 0.26199,-0.116999 0.263,-0.087 0.26301,-0.088 0.262,-0.116999 0.262,-0.087 0.263,-0.088 0.26201,-0.116999 0.526,-0.174001 0.26199,-0.116999 0.26199,-0.087 0.23401,-0.088 0.262,-0.116999 0.26298,-0.087 0.26203,-0.088 0.26199,-0.117001 0.52598,-0.173999 0.26201,-0.088 0.263,-0.115999 0.26201,-0.088 0.26299,-0.087 0.26201,-0.088 0.263,-0.088 0.233,-0.116001 0.263,-0.088 0.26201,-0.088 0.26199,-0.087 m -51.537,23.684 0.263,-0.146 0.26199,-0.146 0.26201,-0.175 0.23399,-0.145 0.26301,-0.146999 0.524,-0.291001 0.263,-0.146003 0.26199,-0.145997 0.263,-0.145 0.263,-0.174999 0.26201,-0.146 0.26199,-0.146 0.52601,-0.292004 0.262,-0.144996 0.262,-0.146 0.233,-0.146 0.263,-0.146 0.26298,-0.146 0.26201,-0.117001 0.263,-0.145999 0.26201,-0.146 0.26299,-0.146 0.26201,-0.145001 0.263,-0.146999 0.26201,-0.145001 0.26199,-0.145999 0.263,-0.146 0.263,-0.116001 0.26199,-0.146 0.23401,-0.146 0.524,-0.292 0.263,-0.117001 0.26301,-0.146 0.26199,-0.144996 0.263,-0.146 0.26199,-0.116001 0.262,-0.147003 0.26301,-0.144997 0.263,-0.117001 0.262,-0.146 0.26199,-0.145 0.23401,-0.118 0.26201,-0.145001 0.26298,-0.145999 0.263,-0.117001 0.26201,-0.145 0.26199,-0.146 0.263,-0.116997 0.26301,-0.146004 0.262,-0.117 0.262,-0.144997 0.263,-0.117001 0.26201,-0.146 0.26298,-0.116001 0.263,-0.146999 0.23299,-0.116001 0.26202,-0.146 0.263,-0.117001 0.262,-0.146 0.26298,-0.115997 0.26203,-0.146 0.26199,-0.116001 0.263,-0.117001 0.26298,-0.145999 0.26201,-0.117001 0.263,-0.145 0.26201,-0.116997 0.26299,-0.117001 0.26201,-0.145 0.23401,-0.117001 0.26199,-0.117 0.263,-0.146 0.26199,-0.116001 0.26201,-0.117001 0.263,-0.146 0.263,-0.115997 0.524,-0.234001 0.263,-0.146 0.26301,-0.116001 0.26199,-0.117001 0.263,-0.116997 0.233,-0.116001 0.26199,-0.146 0.52601,-0.234001 0.262,-0.117001 0.262,-0.115997 0.263,-0.116001 0.26201,-0.146 0.52598,-0.234001 0.26201,-0.117001 0.26199,-0.115997 0.263,-0.117001 0.26301,-0.116001 m -51.56701,30.333 0.26201,-0.203994 0.26299,-0.175011 0.26201,-0.203995 0.263,-0.203994 0.26199,-0.175004 0.26201,-0.204002 0.263,-0.174995 0.233,-0.205002 0.263,-0.175003 0.263,-0.202999 0.262,-0.175003 0.262,-0.204995 0.263,-0.175006 0.26299,-0.203995 0.26201,-0.174999 0.263,-0.204003 0.26199,-0.174999 0.262,-0.174999 0.26301,-0.203999 0.263,-0.175003 0.262,-0.174999 0.233,-0.204998 0.263,-0.174999 0.26199,-0.174004 0.263,-0.174999 0.26201,-0.204998 0.26199,-0.174999 0.263,-0.175004 0.263,-0.173999 0.26201,-0.205002 0.263,-0.174996 0.262,-0.175006 0.263,-0.174996 0.26199,-0.175003 0.23401,-0.174995 0.26199,-0.175007 0.263,-0.174996 0.26201,-0.175003 0.263,-0.203994 0.262,-0.175 0.26298,-0.175003 0.26201,-0.174999 0.26201,-0.174999 0.263,-0.174999 0.26298,-0.175 0.26201,-0.146003 0.263,-0.175 0.26201,-0.175003 0.23299,-0.174995 0.26301,-0.175003 0.26301,-0.174996 0.26199,-0.175006 0.263,-0.174996 0.26199,-0.145004 0.26201,-0.174996 0.263,-0.175998 0.263,-0.174999 0.262,-0.175004 0.262,-0.145 0.263,-0.174999 0.26301,-0.174999 0.23298,-0.175999 0.26201,-0.146 0.26199,-0.174 0.263,-0.175003 0.263,-0.146 0.26201,-0.174999 0.263,-0.174999 0.262,-0.146 0.263,-0.174999 0.26199,-0.146004 0.263,-0.174999 0.26201,-0.146 0.26199,-0.175 0.263,-0.174003 0.234,-0.145996 0.26201,-0.174999 0.263,-0.146 0.26201,-0.146 0.26199,-0.175 0.263,-0.145999 0.263,-0.175 0.26199,-0.146003 0.263,-0.175003 0.26201,-0.145997 0.263,-0.145 0.262,-0.174999 0.26298,-0.146 0.26203,-0.146 0.23399,-0.174999 0.26199,-0.146 0.262,-0.146 0.26301,-0.175003 0.263,-0.145996 0.52399,-0.292 0.26301,-0.174 0.26301,-0.146004 0.26199,-0.145999 m -51.567,38.850002 0.263,-0.233002 0.262,-0.263 0.263,-0.232994 0.26199,-0.262002 0.262,-0.234001 0.263,-0.263 0.263,-0.233002 0.26201,-0.262001 0.263,-0.233993 0.262,-0.233002 0.233,-0.262001 0.263,-0.234009 0.26299,-0.232994 0.262,-0.234001 0.263,-0.261994 0.262,-0.233001 0.26301,-0.234001 0.262,-0.233002 0.26299,-0.233002 0.52401,-0.466995 0.263,-0.262001 0.26298,-0.234001 0.26201,-0.233002 0.234,-0.234001 0.26201,-0.231995 0.26199,-0.234001 0.26301,-0.234001 0.263,-0.233002 0.262,-0.233002 0.263,-0.203994 0.52399,-0.467003 0.263,-0.233002 0.263,-0.233993 0.26201,-0.233002 0.262,-0.204003 0.263,-0.233001 0.233,-0.234001 0.26299,-0.232994 0.26201,-0.204003 0.26199,-0.233009 0.263,-0.233994 0.263,-0.203994 0.26201,-0.233002 0.263,-0.234001 0.262,-0.204003 0.263,-0.232994 0.26199,-0.204002 0.263,-0.234009 0.26201,-0.203995 0.23399,-0.232994 0.26201,-0.204002 0.26299,-0.234001 0.26201,-0.204003 0.263,-0.232994 0.26199,-0.204002 0.26201,-0.234009 0.263,-0.203995 0.263,-0.203994 0.26199,-0.233002 0.263,-0.204003 0.26201,-0.205001 0.263,-0.203995 0.262,-0.233002 0.23399,-0.204002 0.26201,-0.205002 0.263,-0.204002 0.26199,-0.232995 0.262,-0.204002 0.52601,-0.408996 0.262,-0.204003 0.26199,-0.204002 0.263,-0.203995 0.263,-0.204002 0.26201,-0.205002 0.263,-0.203003 0.26199,-0.204994 0.233,-0.204003 0.263,-0.203994 0.26201,-0.204003 0.263,-0.204002 0.262,-0.205002 0.263,-0.204002 0.26199,-0.203995 0.263,-0.204003 0.26201,-0.203994 0.26199,-0.205002 0.263,-0.175003 0.263,-0.202996 0.26201,-0.205009 0.23398,-0.203995 0.26201,-0.203994 0.26201,-0.175004 0.263,-0.204002 0.26298,-0.203995 0.26201,-0.176002 0.263,-0.204003 M 91.997002,115.548 l 0.232994,-0.32099 0.263008,-0.321 0.262001,-0.291 0.263,-0.321 0.524002,-0.642 0.263001,-0.321 0.262993,-0.292 0.261993,-0.32001 0.262009,-0.321 0.263,-0.292 0.263001,-0.321 0.261993,-0.321 0.263008,-0.291 0.233002,-0.32099 0.262001,-0.29201 0.262993,-0.32 0.262001,-0.29199 0.263001,-0.321 0.525001,-0.583 0.262001,-0.321 0.263001,-0.292 0.262001,-0.292 0.263,-0.321 0.524994,-0.583 0.262001,-0.292 0.234001,-0.291 0.262001,-0.32101 0.262996,-0.292 0.263,-0.29099 0.26201,-0.29201 0.263,-0.292 0.262,-0.29099 0.26199,-0.29201 0.263,-0.292 0.263,-0.29099 0.262,-0.29201 0.263,-0.292 0.262,-0.291 0.23301,-0.263 0.263,-0.29199 0.263,-0.291 0.262,-0.292 0.26299,-0.292 0.262,-0.262 0.262,-0.292 0.263,-0.292 0.263,-0.262 0.524,-0.583 0.26301,-0.262012 0.263,-0.291992 0.262,-0.263001 0.23299,-0.291 0.262,-0.263001 0.263,-0.291999 0.263,-0.262002 0.26201,-0.291999 0.263,-0.262001 0.262,-0.263008 0.263,-0.290993 0.262,-0.263001 0.26299,-0.263 0.262,-0.290993 0.262,-0.263 0.526,-0.524003 0.23301,-0.263 0.26299,-0.292007 0.26201,-0.261994 0.262,-0.263 0.52598,-0.525009 0.26201,-0.261994 0.263,-0.262993 0.262,-0.263 0.263,-0.262009 0.26201,-0.261993 0.263,-0.263001 0.262,-0.262001 0.234,-0.263008 0.26199,-0.261993 0.262,-0.234002 0.526,-0.524993 0.52401,-0.524003 0.263,-0.234001 0.263,-0.263 0.262,-0.262001 0.263,-0.233002 0.26199,-0.263 0.262,-0.262993 0.263,-0.232003 0.23301,-0.263 0.263,-0.234001 0.262,-0.262001 m -27.330005,29.867007 0.263001,-0.321 0.525993,-0.64202 0.262009,-0.32 0.261993,-0.32199 0.263001,-0.32" /><path
               id="path72"
               style="fill:#231f20;fill-opacity:1;fill-rule:nonzero;stroke:none"
               d="M 194.45999,16.468 V 12.501" /><path
               id="path74"
               style="fill:none;stroke:#231f20;stroke-width:0.80000001;stroke-linecap:butt;stroke-linejoin:miter;stroke-miterlimit:4;stroke-dasharray:none;stroke-opacity:1"
               d="M 194.45999,16.468 V 12.501" /><path
               id="path76"
               style="fill:#231f20;fill-opacity:1;fill-rule:nonzero;stroke:none"
               d="M 220.88501,16.615002 V 12.648001" /><path
               id="path78"
               style="fill:none;stroke:#231f20;stroke-width:0.80000001;stroke-linecap:butt;stroke-linejoin:miter;stroke-miterlimit:4;stroke-dasharray:none;stroke-opacity:1"
               d="M 220.88501,16.615002 V 12.648001" /><path
               id="path80"
               style="fill:#231f20;fill-opacity:1;fill-rule:nonzero;stroke:none"
               d="m 90.013,86.775002 h 3.966996" /><path
               id="path82"
               style="fill:none;stroke:#231f20;stroke-width:0.80000001;stroke-linecap:butt;stroke-linejoin:miter;stroke-miterlimit:4;stroke-dasharray:none;stroke-opacity:1"
               d="m 90.013,86.775002 h 3.966996" /><path
               id="path84"
               style="fill:#231f20;fill-opacity:1;fill-rule:nonzero;stroke:none"
               d="m 90.013,111.04201 h 3.966996" /><path
               id="path86"
               style="fill:none;stroke:#231f20;stroke-width:0.80000001;stroke-linecap:butt;stroke-linejoin:miter;stroke-miterlimit:4;stroke-dasharray:none;stroke-opacity:1"
               d="m 90.013,111.04201 h 3.966996" /><path
               id="path88"
               style="fill:#231f20;fill-opacity:1;fill-rule:nonzero;stroke:none"
               d="m 90.713005,135.54201 h 3.965996" /><path
               id="path90"
               style="fill:none;stroke:#231f20;stroke-width:0.80000001;stroke-linecap:butt;stroke-linejoin:miter;stroke-miterlimit:4;stroke-dasharray:none;stroke-opacity:1"
               d="m 90.713005,135.54201 h 3.965996" /><text
               id="text94"
               style="font-variant:normal;font-weight:normal;font-size:11.95500088px;font-family:CMMI12;-inkscape-font-specification:CMMI12;writing-mode:lr-tb;fill:#231f20;fill-opacity:1;fill-rule:nonzero;stroke:none"
               transform="matrix(1,0,0,-1,0,71.251297)"><tspan
                 id="tspan92"
                 y="0"
                 x="0">D</tspan></text>
<text
               id="text98"
               style="font-variant:normal;font-weight:normal;font-size:11.95500088px;font-family:CMR12;-inkscape-font-specification:CMR12;writing-mode:lr-tb;fill:#231f20;fill-opacity:1;fill-rule:nonzero;stroke:none"
               transform="matrix(1,0,0,-1,13.946704,71.251297)"><tspan
                 id="tspan96"
                 y="0"
                 x="0">p</tspan></text>
<text
               id="text102"
               style="font-variant:normal;font-weight:normal;font-size:11.95500088px;font-family:CMR12;-inkscape-font-specification:CMR12;writing-mode:lr-tb;fill:#231f20;fill-opacity:1;fill-rule:nonzero;stroke:none"
               transform="matrix(1,0,0,-1,20.774206,71.251297)"><tspan
                 id="tspan100"
                 y="0"
                 x="0 5.8459954 12.337561 18.829126 25.320692">ounds</tspan></text>
<text
               id="text106"
               style="font-variant:normal;font-weight:normal;font-size:11.95500088px;font-family:CMMI12;-inkscape-font-specification:CMMI12;writing-mode:lr-tb;fill:#231f20;fill-opacity:1;fill-rule:nonzero;stroke:none"
               transform="matrix(1,0,0,-1,275.12762,10.584453)"><tspan
                 id="tspan104"
                 y="0"
                 x="0">A</tspan></text>
<text
               id="text110"
               style="font-variant:normal;font-weight:normal;font-size:11.95500088px;font-family:CMR12;-inkscape-font-specification:CMR12;writing-mode:lr-tb;fill:#231f20;fill-opacity:1;fill-rule:nonzero;stroke:none"
               transform="matrix(1,0,0,-1,287.80591,10.584453)"><tspan
                 id="tspan108"
                 y="0"
                 x="0">y</tspan></text>
<text
               id="text114"
               style="font-variant:normal;font-weight:normal;font-size:11.95500088px;font-family:CMR12;-inkscape-font-specification:CMR12;writing-mode:lr-tb;fill:#231f20;fill-opacity:1;fill-rule:nonzero;stroke:none"
               transform="matrix(1,0,0,-1,293.65909,10.584453)"><tspan
                 id="tspan112"
                 y="0"
                 x="0 5.2004256 11.046421 15.589321">ears</tspan></text>
<text
               id="text118"
               style="font-variant:normal;font-weight:normal;font-size:8.36849976px;font-family:CMR12;-inkscape-font-specification:CMR12;writing-mode:lr-tb;fill:#231f20;fill-opacity:1;fill-rule:nonzero;stroke:none"
               transform="matrix(1,0,0,-1,68.472198,13.753)"><tspan
                 id="tspan116"
                 y="0"
                 x="0 4.0921965 8.1843929 12.276589">2000</tspan></text>
<text
               id="text122"
               style="font-variant:normal;font-weight:normal;font-size:8.36849976px;font-family:CMR12;-inkscape-font-specification:CMR12;writing-mode:lr-tb;fill:#231f20;fill-opacity:1;fill-rule:nonzero;stroke:none"
               transform="matrix(1,0,0,-1,68.458809,35.453354)"><tspan
                 id="tspan120"
                 y="0"
                 x="0 4.0921965 8.1843929 12.276589">4000</tspan></text>
<text
               id="text126"
               style="font-variant:normal;font-weight:normal;font-size:8.36849976px;font-family:CMR12;-inkscape-font-specification:CMR12;writing-mode:lr-tb;fill:#231f20;fill-opacity:1;fill-rule:nonzero;stroke:none"
               transform="matrix(1,0,0,-1,68.678902,59.720329)"><tspan
                 id="tspan124"
                 y="0"
                 x="0 4.0921965 8.1843929 12.276589">6000</tspan></text>
<text
               id="text130"
               style="font-variant:normal;font-weight:normal;font-size:8.36849976px;font-family:CMR12;-inkscape-font-specification:CMR12;writing-mode:lr-tb;fill:#231f20;fill-opacity:1;fill-rule:nonzero;stroke:none"
               transform="matrix(1,0,0,-1,68.43203,83.987305)"><tspan
                 id="tspan128"
                 y="0"
                 x="0 4.0921965 8.1843929 12.276589">8000</tspan></text>
<text
               id="text134"
               style="font-variant:normal;font-weight:normal;font-size:8.36849976px;font-family:CMR12;-inkscape-font-specification:CMR12;writing-mode:lr-tb;fill:#231f20;fill-opacity:1;fill-rule:nonzero;stroke:none"
               transform="matrix(1,0,0,-1,87.840256,2.3350148)"><tspan
                 id="tspan132"
                 y="0"
                 x="0">0</tspan></text>
<text
               id="text138"
               style="font-variant:normal;font-weight:normal;font-size:8.36849976px;font-family:CMR12;-inkscape-font-specification:CMR12;writing-mode:lr-tb;fill:#231f20;fill-opacity:1;fill-rule:nonzero;stroke:none"
               transform="matrix(1,0,0,-1,114.96758,2.3350148)"><tspan
                 id="tspan136"
                 y="0"
                 x="0">1</tspan></text>
<text
               id="text142"
               style="font-variant:normal;font-weight:normal;font-size:8.36849976px;font-family:CMR12;-inkscape-font-specification:CMR12;writing-mode:lr-tb;fill:#231f20;fill-opacity:1;fill-rule:nonzero;stroke:none"
               transform="matrix(1,0,0,-1,139.99693,2.1023705)"><tspan
                 id="tspan140"
                 y="0"
                 x="0">2</tspan></text>
<text
               id="text146"
               style="font-variant:normal;font-weight:normal;font-size:8.36849976px;font-family:CMR12;-inkscape-font-specification:CMR12;writing-mode:lr-tb;fill:#231f20;fill-opacity:1;fill-rule:nonzero;stroke:none"
               transform="matrix(1,0,0,-1,166.89162,2.3350148)"><tspan
                 id="tspan144"
                 y="0"
                 x="0">3</tspan></text>
<text
               id="text150"
               style="font-variant:normal;font-weight:normal;font-size:8.36849976px;font-family:CMR12;-inkscape-font-specification:CMR12;writing-mode:lr-tb;fill:#231f20;fill-opacity:1;fill-rule:nonzero;stroke:none"
               transform="matrix(1,0,0,-1,192.15361,2.5693328)"><tspan
                 id="tspan148"
                 y="0"
                 x="0">4</tspan></text>
<text
               id="text154"
               style="font-variant:normal;font-weight:normal;font-size:8.36849976px;font-family:CMR12;-inkscape-font-specification:CMR12;writing-mode:lr-tb;fill:#231f20;fill-opacity:1;fill-rule:nonzero;stroke:none"
               transform="matrix(1,0,0,-1,219.04829,3.0354583)"><tspan
                 id="tspan152"
                 y="0"
                 x="0">5</tspan></text>
<text
               id="text158"
               style="font-variant:normal;font-weight:normal;font-size:8.36849976px;font-family:CMR12;-inkscape-font-specification:CMR12;writing-mode:lr-tb;fill:#231f20;fill-opacity:1;fill-rule:nonzero;stroke:none"
               transform="matrix(1,0,0,-1,244.54292,2.1023707)"><tspan
                 id="tspan156"
                 y="0"
                 x="0">6</tspan></text>
<text
               id="text162"
               style="font-variant:normal;font-weight:normal;font-size:8.36849976px;font-family:CMR12;-inkscape-font-specification:CMR12;writing-mode:lr-tb;fill:#231f20;fill-opacity:1;fill-rule:nonzero;stroke:none"
               transform="matrix(1,0,0,-1,64.436058,108.25512)"><tspan
                 id="tspan160"
                 y="0"
                 x="0 4.0921965 8.1843929 12.276589 16.368786">10000</tspan></text>
<text
               id="text166"
               style="font-variant:normal;font-weight:normal;font-size:8.36849976px;font-family:CMR12;-inkscape-font-specification:CMR12;writing-mode:lr-tb;fill:#231f20;fill-opacity:1;fill-rule:nonzero;stroke:none"
               transform="matrix(1,0,0,-1,63.787498,133.45518)"><tspan
                 id="tspan164"
                 y="0"
                 x="0 4.0921965 8.1843929 12.276589 16.368786">12000</tspan></text>
</g></g></g></g></g></svg>