<?xml version="1.0" encoding="UTF-8" standalone="no"?>
<svg
   xmlns:dc="http://purl.org/dc/elements/1.1/"
   xmlns:cc="http://creativecommons.org/ns#"
   xmlns:rdf="http://www.w3.org/1999/02/22-rdf-syntax-ns#"
   xmlns:svg="http://www.w3.org/2000/svg"
   xmlns="http://www.w3.org/2000/svg"
   viewBox="0 0 369.33334 272"
   height="272"
   width="369.33334"
   xml:space="preserve"
   id="svg2"
   version="1.1"><metadata
     id="metadata8"><rdf:RDF><cc:Work
         rdf:about=""><dc:format>image/svg+xml</dc:format><dc:type
           rdf:resource="http://purl.org/dc/dcmitype/StillImage" /></cc:Work></rdf:RDF></metadata><defs
     id="defs6"><clipPath
       id="clipPath24"
       clipPathUnits="userSpaceOnUse"><path
         id="path22"
         d="M 0,0 H 277 V 204 H 0 Z" /></clipPath></defs><g
     transform="matrix(1.3333333,0,0,-1.3333333,0,272)"
     id="g10"><g
       id="g12" /><g
       id="g14" /><g
       id="g16"><g
         id="g18"><g
           clip-path="url(#clipPath24)"
           id="g20"><g
             id="g26" /><g
             id="g28"><path
               id="path30"
               style="fill:none;stroke:#000000;stroke-width:0.5;stroke-linecap:butt;stroke-linejoin:round;stroke-miterlimit:10;stroke-dasharray:none;stroke-opacity:1"
               d="m 22.395,15.979001 v -3 m 55.792004,3 v -3 m 110.084006,1.5 h 3 m -1.5,1.5 v -3 m 55.791,3 v -3 M 132.479,58.479004 h 3 m -1.5,1.5 v -3 m -1.5,23.5 h 3 m -1.5,1.5 v -3 m -1.5,23.499996 h 3 m -1.5,1.501 v -3.001 m -1.5,23.542 h 3 m -1.5,1.5 v -3 m -1.5,23.50001 h 3 m -1.5,1.5 v -3 m -1.5,23.5 h 3 m -1.5,1.5 v -3 m -1.5,23.5 h 3 m -1.5,1.5 v -3" /><path
               id="path32"
               style="fill:#000000;fill-opacity:1;fill-rule:nonzero;stroke:none"
               d="m 0.079,14.479001 h 267.8 m -1.01999,0 -2.19101,3.603 0.12302,0.082 5.875,-2.334001 c 2.04699,-0.45 4.09396,-0.900001 6.14099,-1.350999 C 274.75998,14.029 272.71301,13.579 270.66602,13.128 l -5.875,-2.333999 -0.12302,0.062 z m -132.88001,0 V 190.52101 m 0,-1.02 -3.60299,-2.19001 -0.081,0.12201 2.333,5.875 c 0.451,2.047 0.901,4.094 1.35099,6.141 0.45099,-2.047 0.90099,-4.094 1.35201,-6.141 l 2.33299,-5.875 -0.061,-0.12201 -3.62401,2.19001" /><path
               id="path34"
               style="fill:none;stroke:#000000;stroke-width:1;stroke-linecap:butt;stroke-linejoin:round;stroke-miterlimit:10;stroke-dasharray:none;stroke-opacity:1"
               d="m 0.079,14.479001 h 267.8 m -1.01999,0 -2.19101,3.603 0.12302,0.082 5.875,-2.334001 c 2.04699,-0.45 4.09396,-0.900001 6.14099,-1.350999 C 274.75998,14.029 272.71301,13.579 270.66602,13.128 l -5.875,-2.333999 -0.12302,0.062 z m -132.88001,0 V 190.52101 m 0,-1.02 -3.60299,-2.19001 -0.081,0.12201 2.333,5.875 c 0.451,2.047 0.901,4.094 1.35099,6.141 0.45099,-2.047 0.90099,-4.094 1.35201,-6.141 l 2.33299,-5.875 -0.061,-0.12201 -3.62401,2.19001 z" /><path
               id="path36"
               style="fill:none;stroke:#000000;stroke-width:0.5;stroke-linecap:butt;stroke-linejoin:round;stroke-miterlimit:10;stroke-dasharray:none;stroke-opacity:1"
               d="M 209.60501,191.25 205.604,169 l -3.75,-19.5 -5.5,-23.75 -3,-12.5 -3.24899,-11 -4.00101,-11.5 -5.25,-12 -6.49899,-13 -11.50101,-17 -7,-7.25 -8.25,-6 L 137.60501,30 120.354,24 104.105,20.386002 91.771004,19 l -12.834,-1 -10.082001,-0.582998 -10.5,-0.667002 -9.5,-0.417 -10,-0.333 -11.750002,-0.416999 M 22.354002,19.75 l 9.250999,0.5 8.250002,0.75 10.25,0.75 12.499001,1.25 11.750999,1.25 13.25,2.25 12.999997,2.25 12.499,3.25 12.25,4 16.00101,6 11.49899,5.5 12.25,7.75 5,3.75 17.00101,15.25 10.5,12.5 13.5,19 9.75,17.25 8.74899,19 6.5,16.5 5,14.5 2.50002,8.25 m 1.58299,-82.75 -7.5,-10 -9.75,-11.5 L 213.063,62.75 197.56201,51.875004 185.813,45.125004 174.313,40 163.938,36.125 151.56201,32.375 137.438,29.125002 120.938,26 105.062,23.875002 87.312004,22.125002 74.062004,21 62.187004,20.375002 45.312,19.375 23.063002,18.5" /><text
               id="text40"
               style="font-variant:normal;font-weight:normal;font-size:11.95500088px;font-family:CMR12;-inkscape-font-specification:CMR12;writing-mode:lr-tb;fill:#231f20;fill-opacity:1;fill-rule:nonzero;stroke:none"
               transform="matrix(1,0,0,-1,125.1187,3.1273999)"><tspan
                 id="tspan38"
                 y="0"
                 x="0">0</tspan></text>
<text
               id="text44"
               style="font-variant:normal;font-weight:normal;font-size:11.95500088px;font-family:CMR12;-inkscape-font-specification:CMR12;writing-mode:lr-tb;fill:#231f20;fill-opacity:1;fill-rule:nonzero;stroke:none"
               transform="matrix(1,0,0,-1,122.20646,36.460331)"><tspan
                 id="tspan42"
                 y="0"
                 x="0">2</tspan></text>
<text
               id="text48"
               style="font-variant:normal;font-weight:normal;font-size:11.95500088px;font-family:CMR12;-inkscape-font-specification:CMR12;writing-mode:lr-tb;fill:#231f20;fill-opacity:1;fill-rule:nonzero;stroke:none"
               transform="matrix(1,0,0,-1,121.29549,56.793396)"><tspan
                 id="tspan46"
                 y="0"
                 x="0">4</tspan></text>
<text
               id="text52"
               style="font-variant:normal;font-weight:normal;font-size:11.95500088px;font-family:CMR12;-inkscape-font-specification:CMR12;writing-mode:lr-tb;fill:#231f20;fill-opacity:1;fill-rule:nonzero;stroke:none"
               transform="matrix(1,0,0,-1,121.05041,79.793625)"><tspan
                 id="tspan50"
                 y="0"
                 x="0">6</tspan></text>
<text
               id="text56"
               style="font-variant:normal;font-weight:normal;font-size:11.95500088px;font-family:CMR12;-inkscape-font-specification:CMR12;writing-mode:lr-tb;fill:#231f20;fill-opacity:1;fill-rule:nonzero;stroke:none"
               transform="matrix(1,0,0,-1,121.13888,101.79322)"><tspan
                 id="tspan54"
                 y="0"
                 x="0">8</tspan></text>
<text
               id="text60"
               style="font-variant:normal;font-weight:normal;font-size:11.95500088px;font-family:CMR12;-inkscape-font-specification:CMR12;writing-mode:lr-tb;fill:#231f20;fill-opacity:1;fill-rule:nonzero;stroke:none"
               transform="matrix(1,0,0,-1,120.8938,123.12692)"><tspan
                 id="tspan58"
                 y="0"
                 x="0 5.8579507">10</tspan></text>
<text
               id="text64"
               style="font-variant:normal;font-weight:normal;font-size:11.95500088px;font-family:CMR12;-inkscape-font-specification:CMR12;writing-mode:lr-tb;fill:#231f20;fill-opacity:1;fill-rule:nonzero;stroke:none"
               transform="matrix(1,0,0,-1,120.83522,145.79361)"><tspan
                 id="tspan62"
                 y="0"
                 x="0 5.8579507">12</tspan></text>
<text
               id="text68"
               style="font-variant:normal;font-weight:normal;font-size:11.95500088px;font-family:CMR12;-inkscape-font-specification:CMR12;writing-mode:lr-tb;fill:#231f20;fill-opacity:1;fill-rule:nonzero;stroke:none"
               transform="matrix(1,0,0,-1,121.10899,168.12674)"><tspan
                 id="tspan66"
                 y="0"
                 x="0 5.8579507">14</tspan></text>
<text
               id="text72"
               style="font-variant:normal;font-weight:normal;font-size:11.95500088px;font-family:CMR12;-inkscape-font-specification:CMR12;writing-mode:lr-tb;fill:#231f20;fill-opacity:1;fill-rule:nonzero;stroke:none"
               transform="matrix(1,0,0,-1,121.05042,188.79335)"><tspan
                 id="tspan70"
                 y="0"
                 x="0 5.8579507">16</tspan></text>
<text
               id="text76"
               style="font-variant:normal;font-weight:normal;font-size:11.95500088px;font-family:CMR12;-inkscape-font-specification:CMR12;writing-mode:lr-tb;fill:#231f20;fill-opacity:1;fill-rule:nonzero;stroke:none"
               transform="matrix(1,0,0,-1,186.07964,4.1268511)"><tspan
                 id="tspan74"
                 y="0"
                 x="0">1</tspan></text>
<text
               id="text80"
               style="font-variant:normal;font-weight:normal;font-size:11.95500088px;font-family:CMR12;-inkscape-font-specification:CMR12;writing-mode:lr-tb;fill:#231f20;fill-opacity:1;fill-rule:nonzero;stroke:none"
               transform="matrix(1,0,0,-1,243.16835,3.7933066)"><tspan
                 id="tspan78"
                 y="0"
                 x="0">2</tspan></text>
<text
               id="text84"
               style="font-variant:normal;font-weight:normal;font-size:11.95500088px;font-family:CMMI12;-inkscape-font-specification:CMMI12;writing-mode:lr-tb;fill:#231f20;fill-opacity:1;fill-rule:nonzero;stroke:none"
               transform="matrix(1,0,0,-1,272.5896,3.1262176)"><tspan
                 id="tspan82"
                 y="0"
                 x="0">t</tspan></text>
<text
               id="text88"
               style="font-variant:normal;font-weight:normal;font-size:11.95500088px;font-family:CMMI12;-inkscape-font-specification:CMMI12;writing-mode:lr-tb;fill:#231f20;fill-opacity:1;fill-rule:nonzero;stroke:none"
               transform="matrix(1,0,0,-1,139.38579,194.46002)"><tspan
                 id="tspan86"
                 y="0"
                 x="0">y</tspan></text>
<text
               id="text92"
               style="font-variant:normal;font-weight:normal;font-size:11.95500088px;font-family:CMR12;-inkscape-font-specification:CMR12;writing-mode:lr-tb;fill:#231f20;fill-opacity:1;fill-rule:nonzero;stroke:none"
               transform="matrix(1,0,0,-1,18.572142,3.0162187)"><tspan
                 id="tspan90"
                 y="0"
                 x="0">2</tspan></text>
<text
               id="text96"
               style="font-variant:normal;font-weight:normal;font-size:11.95500088px;font-family:CMR12;-inkscape-font-specification:CMR12;writing-mode:lr-tb;fill:#231f20;fill-opacity:1;fill-rule:nonzero;stroke:none"
               transform="matrix(1,0,0,-1,74.91008,3.0162187)"><tspan
                 id="tspan94"
                 y="0"
                 x="0">1</tspan></text>
<path
               id="path98"
               style="fill:#231f20;fill-opacity:1;fill-rule:nonzero;stroke:#000000;stroke-width:0.80000001;stroke-linecap:butt;stroke-linejoin:miter;stroke-miterlimit:4;stroke-dasharray:none;stroke-opacity:1"
               d="m 66.333,6.6670003 h 8.334" /><path
               id="path100"
               style="fill:#231f20;fill-opacity:1;fill-rule:nonzero;stroke:#000000;stroke-width:0.80000001;stroke-linecap:butt;stroke-linejoin:miter;stroke-miterlimit:4;stroke-dasharray:none;stroke-opacity:1"
               d="m 10.333,6.6670003 h 8.333" /><text
               id="text104"
               style="font-variant:normal;font-weight:normal;font-size:11.95500088px;font-family:CMR12;-inkscape-font-specification:CMR12;writing-mode:lr-tb;fill:#231f20;fill-opacity:1;fill-rule:nonzero;stroke:none"
               transform="matrix(1,0,0,-1,193.66159,185.606)"><tspan
                 id="tspan102"
                 y="0"
                 x="0">e</tspan></text>
<text
               id="text108"
               style="font-variant:normal;font-weight:normal;font-size:7.96999979px;font-family:CMR8;-inkscape-font-specification:CMR8;writing-mode:lr-tb;fill:#231f20;fill-opacity:1;fill-rule:nonzero;stroke:none"
               transform="matrix(1,0,0,-1,198.86429,190.54201)"><tspan
                 id="tspan106"
                 y="0"
                 x="0">2</tspan></text>
<text
               id="text112"
               style="font-variant:normal;font-weight:normal;font-size:7.96999979px;font-family:CMMI8;-inkscape-font-specification:CMMI8;writing-mode:lr-tb;fill:#231f20;fill-opacity:1;fill-rule:nonzero;stroke:none"
               transform="matrix(1,0,0,-1,203.09875,190.54201)"><tspan
                 id="tspan110"
                 y="0"
                 x="0">t</tspan></text>
<text
               id="text116"
               style="font-variant:normal;font-weight:normal;font-size:11.95500088px;font-family:CMR12;-inkscape-font-specification:CMR12;writing-mode:lr-tb;fill:#231f20;fill-opacity:1;fill-rule:nonzero;stroke:none"
               transform="matrix(1,0,0,-1,246.05659,169.60609)"><tspan
                 id="tspan114"
                 y="0"
                 x="0 5.8579507">2e</tspan></text>
<text
               id="text120"
               style="font-variant:normal;font-weight:normal;font-size:7.96999979px;font-family:CMMI8;-inkscape-font-specification:CMMI8;writing-mode:lr-tb;fill:#231f20;fill-opacity:1;fill-rule:nonzero;stroke:none"
               transform="matrix(1,0,0,-1,257.1123,174.54201)"><tspan
                 id="tspan118"
                 y="0"
                 x="0">t</tspan></text>
<text
               id="text124"
               style="font-variant:normal;font-weight:normal;font-size:11.95500088px;font-family:CMR12;-inkscape-font-specification:CMR12;writing-mode:lr-tb;fill:#231f20;fill-opacity:1;fill-rule:nonzero;stroke:none"
               transform="matrix(1,0,0,-1,250.0703,95.606003)"><tspan
                 id="tspan122"
                 y="0"
                 x="0">e</tspan></text>
<text
               id="text128"
               style="font-variant:normal;font-weight:normal;font-size:7.96999979px;font-family:CMMI8;-inkscape-font-specification:CMMI8;writing-mode:lr-tb;fill:#231f20;fill-opacity:1;fill-rule:nonzero;stroke:none"
               transform="matrix(1,0,0,-1,255.27339,100.54201)"><tspan
                 id="tspan126"
                 y="0"
                 x="0">t</tspan></text>
</g></g></g></g></g></svg>