<?xml version="1.0" encoding="UTF-8" standalone="no"?>
<svg
   xmlns:dc="http://purl.org/dc/elements/1.1/"
   xmlns:cc="http://creativecommons.org/ns#"
   xmlns:rdf="http://www.w3.org/1999/02/22-rdf-syntax-ns#"
   xmlns:svg="http://www.w3.org/2000/svg"
   xmlns="http://www.w3.org/2000/svg"
   viewBox="0 0 404 210.66667"
   height="210.66667"
   width="404"
   xml:space="preserve"
   id="svg2"
   version="1.1"><metadata
     id="metadata8"><rdf:RDF><cc:Work
         rdf:about=""><dc:format>image/svg+xml</dc:format><dc:type
           rdf:resource="http://purl.org/dc/dcmitype/StillImage" /></cc:Work></rdf:RDF></metadata><defs
     id="defs6"><clipPath
       id="clipPath24"
       clipPathUnits="userSpaceOnUse"><path
         id="path22"
         d="M 0,0 H 303 V 158 H 0 Z" /></clipPath></defs><g
     transform="matrix(1.3333333,0,0,-1.3333333,0,210.66667)"
     id="g10"><g
       id="g12" /><g
       id="g14" /><g
       id="g16"><g
         id="g18"><g
           clip-path="url(#clipPath24)"
           id="g20"><g
             id="g26" /><g
             id="g28"><path
               id="path30"
               style="fill:#000000;fill-opacity:1;fill-rule:nonzero;stroke:#000000;stroke-width:1;stroke-linecap:butt;stroke-linejoin:miter;stroke-miterlimit:4;stroke-dasharray:none;stroke-opacity:1"
               d="M 27.855001,19.833 V 154.25" /><path
               id="path32"
               style="fill:#000000;fill-opacity:1;fill-rule:nonzero;stroke:#000000;stroke-width:1;stroke-linecap:butt;stroke-linejoin:miter;stroke-miterlimit:4;stroke-dasharray:none;stroke-opacity:1"
               d="M 3.6670001,19 H 266.33301" /><path
               id="path34"
               style="fill:#000000;fill-opacity:1;fill-rule:nonzero;stroke:none"
               d="m 265.31302,19 -2.19,3.603001 0.12201,0.082 5.87497,-2.333999 C 271.16702,19.901001 273.21402,19.451 275.26102,19 c -2.047,-0.450001 -4.094,-0.9 -6.14102,-1.351 l -5.87497,-2.333999 -0.12201,0.062 2.19,3.622999" /><path
               id="path36"
               style="fill:#000000;fill-opacity:1;fill-rule:nonzero;stroke:none"
               d="m 28.065001,147.56801 -3.602999,-2.19 -0.081,0.12199 2.333,5.875 c 0.451,2.04701 0.901001,4.09401 1.351,6.14101 0.451,-2.047 0.901001,-4.094 1.352001,-6.14101 L 31.75,145.5 l -0.061,-0.12199 -3.624,2.19" /><path
               id="path38"
               style="fill:none;stroke:#000000;stroke-width:0.5;stroke-linecap:butt;stroke-linejoin:round;stroke-miterlimit:10;stroke-dasharray:none;stroke-opacity:1"
               d="m 27.25,64.188004 v -3 m -1.5,-42.542002 h 3 m -1.5,1.5 V 17.146 m 0,47.042004 v -3 m 0,46.999996 v -3 m -1.5,-86.541998 h 3 m -1.5,1.500999 V 17.146" /><path
               id="path40"
               style="fill:#000000;fill-opacity:1;fill-rule:nonzero;stroke:#000000;stroke-width:0.80000001;stroke-linecap:butt;stroke-linejoin:miter;stroke-miterlimit:4;stroke-dasharray:none;stroke-opacity:1"
               d="M 82.334007,23 V 17.333" /><path
               id="path42"
               style="fill:#000000;fill-opacity:1;fill-rule:nonzero;stroke:#000000;stroke-width:0.80000001;stroke-linecap:butt;stroke-linejoin:miter;stroke-miterlimit:4;stroke-dasharray:none;stroke-opacity:1"
               d="m 193.83401,24.083002 v -5.666" /><path
               id="path44"
               style="fill:#000000;fill-opacity:1;fill-rule:nonzero;stroke:#000000;stroke-width:0.80000001;stroke-linecap:butt;stroke-linejoin:miter;stroke-miterlimit:4;stroke-dasharray:none;stroke-opacity:1"
               d="M 138.00101,23.417002 V 17.751001" /><path
               id="path46"
               style="fill:#000000;fill-opacity:1;fill-rule:nonzero;stroke:#000000;stroke-width:0.80000001;stroke-linecap:butt;stroke-linejoin:miter;stroke-miterlimit:4;stroke-dasharray:none;stroke-opacity:1"
               d="M 250.41701,24 V 18.334002" /><path
               id="path48"
               style="fill:#000000;fill-opacity:1;fill-rule:nonzero;stroke:#000000;stroke-width:0.80000001;stroke-linecap:butt;stroke-linejoin:miter;stroke-miterlimit:4;stroke-dasharray:none;stroke-opacity:1"
               d="m 25.333002,74.105003 h 5.665999" /><path
               id="path50"
               style="fill:#000000;fill-opacity:1;fill-rule:nonzero;stroke:#000000;stroke-width:0.80000001;stroke-linecap:butt;stroke-linejoin:miter;stroke-miterlimit:4;stroke-dasharray:none;stroke-opacity:1"
               d="m 26.5,129.33301 h 5.667" /><path
               id="path52"
               style="fill:none;stroke:#000000;stroke-width:0.5;stroke-linecap:butt;stroke-linejoin:round;stroke-miterlimit:10;stroke-dasharray:none;stroke-opacity:1"
               d="m 27.334002,63.875004 v -3 m -1.5,-42.541002 h 3 m -1.5,1.5 v -3 M 80.958,19.208 h 3 m -1.5,1.5 v -3 m 54.292,1.5 h 3 m -1.5,1.5 v -3 m 54.29201,1.5 h 3 m -1.5,1.5 v -3 m 54.291,1.5 h 3 m -1.5,1.5 v -3 m -224.666008,56.5 h 3 m -3,55.042 h 3 M 27,22.5 l 1.187002,0.016 m -1.52,-0.683001 1.351999,0.071" /><path
               id="path54"
               style="fill:none;stroke:#000000;stroke-width:1;stroke-linecap:butt;stroke-linejoin:round;stroke-miterlimit:10;stroke-dasharray:3, 3, 3, 3, 3, 3;stroke-dashoffset:0;stroke-opacity:1"
               d="m 246.59201,154.177 -1.509,-3.614 -6,-13.5 -7.75,-14.75 -7.25,-12.5 -6.5,-10.249996 -8.25,-10.501 -9.75,-11.499 -11.25,-10.25 -12.25,-9.5 -12.5,-7.751 -10.25,-4.749 -16.75,-6.75 -19.83301,-5.708001 -15.66699,-3.042001 -21.50001,-2.75 -22.249996,-2.25 L 27.833002,23.062" /><path
               id="path56"
               style="fill:none;stroke:#000000;stroke-width:1;stroke-linecap:butt;stroke-linejoin:round;stroke-miterlimit:10;stroke-dasharray:none;stroke-opacity:1"
               d="m 28.927002,22.904001 17.562996,0.233999 16.5,0.25 21.25,0.75 11,0.5 14.250002,0.5 15.75,0.75 17.74999,1.25 20.75,1.5 24.25,2.250002 15.5,1.499998 22,2.75 13.25,2.25 11.83302,1.708001" /><text
               id="text60"
               style="font-variant:normal;font-weight:normal;font-size:11.95500088px;font-family:CMR12;-inkscape-font-specification:CMR12;writing-mode:lr-tb;fill:#231f20;fill-opacity:1;fill-rule:nonzero;stroke:none"
               transform="matrix(1,0,0,-1,24.8965,3.79)"><tspan
                 id="tspan58"
                 y="0"
                 x="0">0</tspan></text>
<text
               id="text64"
               style="font-variant:normal;font-weight:normal;font-size:11.95500088px;font-family:CMR12;-inkscape-font-specification:CMR12;writing-mode:lr-tb;fill:#231f20;fill-opacity:1;fill-rule:nonzero;stroke:none"
               transform="matrix(1,0,0,-1,75.317909,3.122911)"><tspan
                 id="tspan62"
                 y="0"
                 x="0 5.8579507">50</tspan></text>
<text
               id="text68"
               style="font-variant:normal;font-weight:normal;font-size:11.95500088px;font-family:CMR12;-inkscape-font-specification:CMR12;writing-mode:lr-tb;fill:#231f20;fill-opacity:1;fill-rule:nonzero;stroke:none"
               transform="matrix(1,0,0,-1,128.93608,3.122911)"><tspan
                 id="tspan66"
                 y="0"
                 x="0 5.8579507 11.715901">100</tspan></text>
<text
               id="text72"
               style="font-variant:normal;font-weight:normal;font-size:11.95500088px;font-family:CMR12;-inkscape-font-specification:CMR12;writing-mode:lr-tb;fill:#231f20;fill-opacity:1;fill-rule:nonzero;stroke:none"
               transform="matrix(1,0,0,-1,185.07918,3.122911)"><tspan
                 id="tspan70"
                 y="0"
                 x="0 5.8579507 11.715901">150</tspan></text>
<text
               id="text76"
               style="font-variant:normal;font-weight:normal;font-size:11.95500088px;font-family:CMR12;-inkscape-font-specification:CMR12;writing-mode:lr-tb;fill:#231f20;fill-opacity:1;fill-rule:nonzero;stroke:none"
               transform="matrix(1,0,0,-1,241.22227,3.122911)"><tspan
                 id="tspan74"
                 y="0"
                 x="0 5.8579507 11.715901">200</tspan></text>
<text
               id="text80"
               style="font-variant:normal;font-weight:normal;font-size:11.95500088px;font-family:CMR12;-inkscape-font-specification:CMR12;writing-mode:lr-tb;fill:#231f20;fill-opacity:1;fill-rule:nonzero;stroke:none"
               transform="matrix(1,0,0,-1,0.6421932,72.45594)"><tspan
                 id="tspan78"
                 y="0"
                 x="0 5.8579507 11.715901">250</tspan></text>
<text
               id="text84"
               style="font-variant:normal;font-weight:normal;font-size:11.95500088px;font-family:CMR12;-inkscape-font-specification:CMR12;writing-mode:lr-tb;fill:#231f20;fill-opacity:1;fill-rule:nonzero;stroke:none"
               transform="matrix(1,0,0,-1,1.4360052,126.45548)"><tspan
                 id="tspan82"
                 y="0"
                 x="0 5.8579507 11.715901">500</tspan></text>
<text
               id="text88"
               style="font-variant:normal;font-weight:normal;font-size:11.95500088px;font-family:CMMI12;-inkscape-font-specification:CMMI12;writing-mode:lr-tb;fill:#231f20;fill-opacity:1;fill-rule:nonzero;stroke:none"
               transform="matrix(1,0,0,-1,33.641579,148.35585)"><tspan
                 id="tspan86"
                 y="0"
                 x="0">P</tspan></text>
<text
               id="text92"
               style="font-variant:normal;font-weight:normal;font-size:11.95500088px;font-family:CMMI12;-inkscape-font-specification:CMMI12;writing-mode:lr-tb;fill:#231f20;fill-opacity:1;fill-rule:nonzero;stroke:none"
               transform="matrix(1,0,0,-1,281.26788,15.564491)"><tspan
                 id="tspan90"
                 y="0"
                 x="0">t</tspan></text>
<text
               id="text96"
               style="font-variant:normal;font-weight:normal;font-size:11.95500088px;font-family:CMMI12;-inkscape-font-specification:CMMI12;writing-mode:lr-tb;fill:#231f20;fill-opacity:1;fill-rule:nonzero;stroke:none"
               transform="matrix(1,0,0,-1,231.87819,42.34967)"><tspan
                 id="tspan94"
                 y="0"
                 x="0">P</tspan></text>
<text
               id="text100"
               style="font-variant:normal;font-weight:normal;font-size:11.95500088px;font-family:CMR12;-inkscape-font-specification:CMR12;writing-mode:lr-tb;fill:#231f20;fill-opacity:1;fill-rule:nonzero;stroke:none"
               transform="matrix(1,0,0,-1,244.36996,42.34967)"><tspan
                 id="tspan98"
                 y="0"
                 x="0">=</tspan></text>
<text
               id="text104"
               style="font-variant:normal;font-weight:normal;font-size:11.95500088px;font-family:CMR12;-inkscape-font-specification:CMR12;writing-mode:lr-tb;fill:#231f20;fill-opacity:1;fill-rule:nonzero;stroke:none"
               transform="matrix(1,0,0,-1,256.80078,42.34967)"><tspan
                 id="tspan102"
                 y="0"
                 x="0">1</tspan></text>
<text
               id="text108"
               style="font-variant:normal;font-weight:normal;font-size:11.95500088px;font-family:CMR12;-inkscape-font-specification:CMR12;writing-mode:lr-tb;fill:#231f20;fill-opacity:1;fill-rule:nonzero;stroke:none"
               transform="matrix(1,0,0,-1,262.65872,42.34967)"><tspan
                 id="tspan106"
                 y="0"
                 x="0">2</tspan></text>
<text
               id="text112"
               style="font-variant:normal;font-weight:normal;font-size:11.95500088px;font-family:CMMI12;-inkscape-font-specification:CMMI12;writing-mode:lr-tb;fill:#231f20;fill-opacity:1;fill-rule:nonzero;stroke:none"
               transform="matrix(1,0,0,-1,268.50113,42.34967)"><tspan
                 id="tspan110"
                 y="0"
                 x="0">e</tspan></text>
<text
               id="text116"
               style="font-variant:normal;font-weight:normal;font-size:7.96999979px;font-family:CMR8;-inkscape-font-specification:CMR8;writing-mode:lr-tb;fill:#231f20;fill-opacity:1;fill-rule:nonzero;stroke:none"
               transform="matrix(1,0,0,-1,273.9277,46.688499)"><tspan
                 id="tspan114"
                 y="0"
                 x="0">0</tspan></text>
<text
               id="text120"
               style="font-variant:normal;font-weight:normal;font-size:7.96999979px;font-family:CMMI8;-inkscape-font-specification:CMMI8;writing-mode:lr-tb;fill:#231f20;fill-opacity:1;fill-rule:nonzero;stroke:none"
               transform="matrix(1,0,0,-1,278.16138,46.688499)"><tspan
                 id="tspan118"
                 y="0"
                 x="0">.</tspan></text>
<text
               id="text124"
               style="font-variant:normal;font-weight:normal;font-size:7.96999979px;font-family:CMR8;-inkscape-font-specification:CMR8;writing-mode:lr-tb;fill:#231f20;fill-opacity:1;fill-rule:nonzero;stroke:none"
               transform="matrix(1,0,0,-1,280.51413,46.688499)"><tspan
                 id="tspan122"
                 y="0"
                 x="0 4.23207">01</tspan></text>
<text
               id="text128"
               style="font-variant:normal;font-weight:normal;font-size:7.96999979px;font-family:CMMI8;-inkscape-font-specification:CMMI8;writing-mode:lr-tb;fill:#231f20;fill-opacity:1;fill-rule:nonzero;stroke:none"
               transform="matrix(1,0,0,-1,289.88287,46.688499)"><tspan
                 id="tspan126"
                 y="0"
                 x="0">t</tspan></text>
<text
               id="text132"
               style="font-variant:normal;font-weight:normal;font-size:11.95500088px;font-family:CMMI12;-inkscape-font-specification:CMMI12;writing-mode:lr-tb;fill:#231f20;fill-opacity:1;fill-rule:nonzero;stroke:none"
               transform="matrix(1,0,0,-1,240.37701,123)"><tspan
                 id="tspan130"
                 y="0"
                 x="0">P</tspan></text>
<text
               id="text136"
               style="font-variant:normal;font-weight:normal;font-size:11.95500088px;font-family:CMR12;-inkscape-font-specification:CMR12;writing-mode:lr-tb;fill:#231f20;fill-opacity:1;fill-rule:nonzero;stroke:none"
               transform="matrix(1,0,0,-1,252.86879,123)"><tspan
                 id="tspan134"
                 y="0"
                 x="0">=</tspan></text>
<text
               id="text140"
               style="font-variant:normal;font-weight:normal;font-size:11.95500088px;font-family:CMR12;-inkscape-font-specification:CMR12;writing-mode:lr-tb;fill:#231f20;fill-opacity:1;fill-rule:nonzero;stroke:none"
               transform="matrix(1,0,0,-1,265.29959,123)"><tspan
                 id="tspan138"
                 y="0"
                 x="0">1</tspan></text>
<text
               id="text144"
               style="font-variant:normal;font-weight:normal;font-size:11.95500088px;font-family:CMR12;-inkscape-font-specification:CMR12;writing-mode:lr-tb;fill:#231f20;fill-opacity:1;fill-rule:nonzero;stroke:none"
               transform="matrix(1,0,0,-1,271.15753,123)"><tspan
                 id="tspan142"
                 y="0"
                 x="0">2</tspan></text>
<text
               id="text148"
               style="font-variant:normal;font-weight:normal;font-size:11.95500088px;font-family:CMMI12;-inkscape-font-specification:CMMI12;writing-mode:lr-tb;fill:#231f20;fill-opacity:1;fill-rule:nonzero;stroke:none"
               transform="matrix(1,0,0,-1,276.99997,123)"><tspan
                 id="tspan146"
                 y="0"
                 x="0">e</tspan></text>
<text
               id="text152"
               style="font-variant:normal;font-weight:normal;font-size:7.96999979px;font-family:CMR8;-inkscape-font-specification:CMR8;writing-mode:lr-tb;fill:#231f20;fill-opacity:1;fill-rule:nonzero;stroke:none"
               transform="matrix(1,0,0,-1,282.42578,127.3379)"><tspan
                 id="tspan150"
                 y="0"
                 x="0">0</tspan></text>
<text
               id="text156"
               style="font-variant:normal;font-weight:normal;font-size:7.96999979px;font-family:CMMI8;-inkscape-font-specification:CMMI8;writing-mode:lr-tb;fill:#231f20;fill-opacity:1;fill-rule:nonzero;stroke:none"
               transform="matrix(1,0,0,-1,286.65945,127.3379)"><tspan
                 id="tspan154"
                 y="0"
                 x="0">.</tspan></text>
<text
               id="text160"
               style="font-variant:normal;font-weight:normal;font-size:7.96999979px;font-family:CMR8;-inkscape-font-specification:CMR8;writing-mode:lr-tb;fill:#231f20;fill-opacity:1;fill-rule:nonzero;stroke:none"
               transform="matrix(1,0,0,-1,289.01141,127.3379)"><tspan
                 id="tspan158"
                 y="0"
                 x="0 4.23207">02</tspan></text>
<text
               id="text164"
               style="font-variant:normal;font-weight:normal;font-size:7.96999979px;font-family:CMMI8;-inkscape-font-specification:CMMI8;writing-mode:lr-tb;fill:#231f20;fill-opacity:1;fill-rule:nonzero;stroke:none"
               transform="matrix(1,0,0,-1,299.04803,127.3379)"><tspan
                 id="tspan162"
                 y="0"
                 x="0">t</tspan></text>
</g></g></g></g></g></svg>