<?xml version="1.0" encoding="UTF-8" standalone="no"?>
<svg
   xmlns:dc="http://purl.org/dc/elements/1.1/"
   xmlns:cc="http://creativecommons.org/ns#"
   xmlns:rdf="http://www.w3.org/1999/02/22-rdf-syntax-ns#"
   xmlns:svg="http://www.w3.org/2000/svg"
   xmlns="http://www.w3.org/2000/svg"
   viewBox="0 0 357.33334 194.66667"
   height="194.66667"
   width="357.33334"
   xml:space="preserve"
   id="svg2"
   version="1.1"><metadata
     id="metadata8"><rdf:RDF><cc:Work
         rdf:about=""><dc:format>image/svg+xml</dc:format><dc:type
           rdf:resource="http://purl.org/dc/dcmitype/StillImage" /></cc:Work></rdf:RDF></metadata><defs
     id="defs6"><clipPath
       id="clipPath24"
       clipPathUnits="userSpaceOnUse"><path
         id="path22"
         d="M 0,0 H 268 V 146 H 0 Z" /></clipPath></defs><g
     transform="matrix(1.3333333,0,0,-1.3333333,0,194.66667)"
     id="g10"><g
       id="g12" /><g
       id="g14" /><g
       id="g16"><g
         id="g18"><g
           clip-path="url(#clipPath24)"
           id="g20"><g
             id="g26" /><g
             id="g28"><path
               id="path30"
               style="fill:#231f20;fill-opacity:1;fill-rule:nonzero;stroke:none"
               d="M 64.913002,10.039001 V 141.89801" /><path
               id="path32"
               style="fill:none;stroke:#231f20;stroke-width:1;stroke-linecap:butt;stroke-linejoin:miter;stroke-miterlimit:4;stroke-dasharray:none;stroke-opacity:1"
               d="M 64.913002,10.039001 V 141.89801" /><path
               id="path34"
               style="fill:#231f20;fill-opacity:1;fill-rule:nonzero;stroke:none"
               d="M 48.272003,12.88 H 232.14" /><path
               id="path36"
               style="fill:none;stroke:#231f20;stroke-width:1;stroke-linecap:butt;stroke-linejoin:miter;stroke-miterlimit:4;stroke-dasharray:none;stroke-opacity:1"
               d="M 48.272003,12.88 H 232.14" /><path
               id="path38"
               style="fill:#231f20;fill-opacity:1;fill-rule:nonzero;stroke:none"
               d="m 231.42502,12.88 -1.53301,2.522 0.086,0.057 4.11199,-1.633 c 1.43301,-0.314999 2.86601,-0.629999 4.29901,-0.946 -1.433,-0.314999 -2.866,-0.63 -4.29901,-0.945 l -4.11199,-1.633999 -0.086,0.043 1.53301,2.535999" /><path
               id="path40"
               style="fill:#231f20;fill-opacity:1;fill-rule:nonzero;stroke:none"
               d="m 64.769005,138.75401 -2.522003,-1.53401 -0.058,0.086 1.633999,4.112 c 0.314998,1.43301 0.630001,2.86601 0.946003,4.29901 0.314995,-1.433 0.629997,-2.866 0.945,-4.29901 l 1.633995,-4.112 -0.043,-0.086 -2.535995,1.53401" /><path
               id="path42"
               style="fill:none;stroke:#231f20;stroke-width:0.5;stroke-linecap:butt;stroke-linejoin:round;stroke-miterlimit:10;stroke-dasharray:none;stroke-opacity:1"
               d="m 64.781006,44.511002 v -2.098999 m 0,2.099998 v -2.099998 m 0,32.900001 v -2.099998" /><path
               id="path44"
               style="fill:#231f20;fill-opacity:1;fill-rule:nonzero;stroke:none"
               d="M 96.107002,17.079 V 13.113001" /><path
               id="path46"
               style="fill:none;stroke:#231f20;stroke-width:0.80000001;stroke-linecap:butt;stroke-linejoin:miter;stroke-miterlimit:4;stroke-dasharray:none;stroke-opacity:1"
               d="M 96.107002,17.079 V 13.113001" /><path
               id="path48"
               style="fill:#231f20;fill-opacity:1;fill-rule:nonzero;stroke:none"
               d="M 158.98999,16.906 V 12.939001" /><path
               id="path50"
               style="fill:none;stroke:#231f20;stroke-width:0.80000001;stroke-linecap:butt;stroke-linejoin:miter;stroke-miterlimit:4;stroke-dasharray:none;stroke-opacity:1"
               d="M 158.98999,16.906 V 12.939001" /><path
               id="path52"
               style="fill:#231f20;fill-opacity:1;fill-rule:nonzero;stroke:none"
               d="m 127.37401,16.964001 v -3.967" /><path
               id="path54"
               style="fill:none;stroke:#231f20;stroke-width:0.80000001;stroke-linecap:butt;stroke-linejoin:miter;stroke-miterlimit:4;stroke-dasharray:none;stroke-opacity:1"
               d="m 127.37401,16.964001 v -3.967" /><path
               id="path56"
               style="fill:#231f20;fill-opacity:1;fill-rule:nonzero;stroke:none"
               d="m 65.276001,53.860001 h 3.966003" /><path
               id="path58"
               style="fill:none;stroke:#231f20;stroke-width:0.80000001;stroke-linecap:butt;stroke-linejoin:miter;stroke-miterlimit:4;stroke-dasharray:none;stroke-opacity:1"
               d="m 65.276001,53.860001 h 3.966003" /><path
               id="path60"
               style="fill:none;stroke:#231f20;stroke-width:0.5;stroke-linecap:butt;stroke-linejoin:round;stroke-miterlimit:10;stroke-dasharray:none;stroke-opacity:1"
               d="m 64.839005,44.292004 v -2.099003 m 0.408996,20.723003 v -2.100002" /><path
               id="path62"
               style="fill:#231f20;fill-opacity:1;fill-rule:nonzero;stroke:none"
               d="M 190.009,16.875 V 12.909" /><path
               id="path64"
               style="fill:none;stroke:#231f20;stroke-width:0.80000001;stroke-linecap:butt;stroke-linejoin:miter;stroke-miterlimit:4;stroke-dasharray:none;stroke-opacity:1"
               d="M 190.009,16.875 V 12.909" /><path
               id="path66"
               style="fill:#231f20;fill-opacity:1;fill-rule:nonzero;stroke:none"
               d="m 64.708,95.437004 h 3.966004" /><path
               id="path68"
               style="fill:none;stroke:#231f20;stroke-width:0.80000001;stroke-linecap:butt;stroke-linejoin:miter;stroke-miterlimit:4;stroke-dasharray:none;stroke-opacity:1"
               d="m 64.708,95.437004 h 3.966004" /><text
               id="text72"
               style="font-variant:normal;font-weight:normal;font-size:8.36849976px;font-family:CMR12;-inkscape-font-specification:CMR12;writing-mode:lr-tb;fill:#231f20;fill-opacity:1;fill-rule:nonzero;stroke:none"
               transform="matrix(1,0,0,-1,62.664597,2.1730001)"><tspan
                 id="tspan70"
                 y="0"
                 x="0">0</tspan></text>
<path
               id="path74"
               style="fill:none;stroke:#231f20;stroke-width:0.5;stroke-linecap:butt;stroke-linejoin:round;stroke-miterlimit:10;stroke-dasharray:none;stroke-opacity:1"
               d="m 65.116005,14.616001 v -2.1 m 0,2.1 v -2.1 m 0,63.700002 V 74.116005 M 64.066002,136.79501 H 66.166 m -1.049995,1.04999 v -2.09999 M 64.022003,13.215 h 2.100998 m -1.050995,1.051001 v -2.101 M 64.022003,13.215 h 2.100998 m -1.050995,1.051001 v -2.101 m 0,43.168003 v -2.100002 m -1.050003,42.146003 h 2.100998 m -1.050995,1.049996 v -2.099999 m -1.050003,42.116008 h 2.100998 m -1.050995,1.05 V 135.395" /><path
               id="path76"
               style="fill:none;stroke:#231f20;stroke-width:1;stroke-linecap:butt;stroke-linejoin:round;stroke-miterlimit:10;stroke-dasharray:none;stroke-opacity:1"
               d="m 190.37302,111.36201 h 0.612 l 0.321,0.029 h 1.54699 l 0.31999,0.029 h 1.54601 l 0.32098,0.029 h 1.86602 l 0.322,0.03 h 1.866 l 0.321,0.029 h 2.188 l 0.31999,0.029 h 2.50802 l 0.29199,0.029 h 2.82901 l 0.29199,0.029 h 3.14999 l 0.29201,0.029 H 215.34 l 0.32101,0.03 h 4.69501 l 0.321,0.029 h 0.61297 M 159.427,110.283 l 0.321,0.029 0.29199,0.029 H 160.36 l 0.32102,0.029 h 0.32099 l 0.292,0.029 0.321,0.03 h 0.32099 l 0.29201,0.029 h 0.31999 l 0.321,0.029 0.32001,0.029 h 0.29199 l 0.321,0.029 h 0.321 l 0.29201,0.029 h 0.31999 l 0.32102,0.03 h 0.32099 l 0.292,0.029 h 0.32098 l 0.32101,0.029 h 0.29201 l 0.31999,0.029 h 0.321 l 0.32001,0.029 h 0.29199 l 0.321,0.029 h 0.61299 l 0.32001,0.03 h 0.32102 l 0.32099,0.029 h 0.292 l 0.321,0.029 h 0.613 l 0.31999,0.029 h 0.321 l 0.32001,0.029 h 0.61299 l 0.321,0.029 h 0.29201 l 0.32001,0.03 h 0.61299 l 0.321,0.029 h 0.64199 l 0.29201,0.029 h 0.64099 l 0.291,0.029 h 0.642 l 0.321,0.029 h 0.612 l 0.32102,0.029 h 0.93399 l 0.32099,0.03 h 0.612 l 0.321,0.029 h 0.933 l 0.321,0.029 h 0.61202 l 0.321,0.029 h 0.93397 l 0.32101,0.029 h 1.22501 l 0.31999,0.029 h 0.93399 l 0.32001,0.03 h 1.25501 l 0.32099,0.029 h 1.22501 l 0.31999,0.029 h 0.64202 m -61.86303,-4.75401 0.29201,0.058 0.321,0.058 0.321,0.059 0.291,0.087 0.321,0.059 0.321,0.058 0.32101,0.058 0.291,0.059 0.32199,0.058 0.32001,0.058 0.29199,0.059 0.321,0.058 0.32001,0.058 0.321,0.029 0.29199,0.059 0.321,0.058 0.321,0.058 0.291,0.059 0.321,0.058 0.321,0.029 0.29201,0.059 0.32,0.058 0.32199,0.029 0.32001,0.058 0.29199,0.059 0.321,0.029 0.32001,0.058 0.29199,0.029 0.321,0.059 0.321,0.058 0.321,0.029 0.291,0.059 0.321,0.029 0.32101,0.058 0.292,0.029 0.32,0.029 0.32199,0.059 0.32001,0.029 0.29199,0.058 0.321,0.029 0.32001,0.03 0.29199,0.058 0.321,0.029 0.321,0.029 0.321,0.029 0.291,0.059 0.321,0.029 0.32101,0.029 0.292,0.029 0.321,0.059 0.32099,0.029 0.32001,0.029 0.29199,0.029 0.321,0.029 0.32001,0.029 0.29199,0.059 0.321,0.029 0.321,0.029 0.321,0.029 0.291,0.029 0.321,0.03 0.32101,0.029 0.292,0.029 0.32098,0.029 0.32101,0.029 0.32001,0.029 0.29199,0.03 0.321,0.029 0.32001,0.029 0.29199,0.029 0.321,0.029 0.321,0.029 h 0.321 l 0.291,0.03 0.321,0.029 0.32101,0.029 0.292,0.029 0.321,0.029 0.32099,0.029 h 0.29201 l 0.31999,0.03 0.321,0.029 0.32001,0.029 0.29199,0.029 h 0.321 l 0.321,0.029 0.29201,0.029 0.31999,0.03 h 0.32102 l 0.32099,0.029 0.292,0.029 0.32098,0.029 h 0.32101 l 0.29201,0.029 0.31999,0.029 h 0.321 l 0.32001,0.03 0.29199,0.029 h 0.321 m -61.862997,-16.391994 0.320999,0.233002 0.291001,0.204994 0.321998,0.204003 0.320007,0.233001 0.321,0.203995 0.291999,0.204003 0.321,0.205001 0.321003,0.204003 0.291,0.203995 0.32199,0.204002 0.32,0.204002 0.321,0.174988 0.292,0.20401 0.32,0.175003 0.32099,0.204994 0.29201,0.175003 0.321,0.174996 0.32101,0.204002 0.321,0.175003 0.291,0.174996 0.321,0.175003 0.321,0.175003 0.291,0.145996 0.32199,0.175003 0.32,0.174995 0.321,0.145005 0.292,0.174995 0.32,0.145996 0.321,0.175003 0.292,0.146004 0.32101,0.145996 0.64199,0.292007 0.29101,0.174992 0.321,0.14501 0.321,0.11699 0.292,0.146 0.32099,0.146 0.32,0.14601 0.321,0.145 0.292,0.11699 0.32,0.14601 0.32099,0.11699 0.29201,0.14501 0.32101,0.11699 0.321,0.11701 0.321,0.14599 0.291,0.116 0.321,0.11701 0.321,0.11699 0.29199,0.116 0.321,0.117 0.32,0.11701 0.292,0.11599 0.321,0.117 0.32,0.11701 0.321,0.11599 0.292,0.11701 0.32101,0.087 0.321,0.11699 0.29099,0.11701 0.32101,0.087 0.321,0.11699 0.321,0.087 0.292,0.088 0.32099,0.11699 0.32,0.087 0.292,0.11699 0.321,0.087 0.32,0.088 0.32099,0.087 0.29201,0.088 0.32101,0.087 0.321,0.088 0.291,0.11599 0.321,0.088 0.321,0.058 0.321,0.088 0.29199,0.087 0.321,0.088 0.32,0.087 0.292,0.088 0.321,0.058 0.32,0.088 0.321,0.087 0.29201,0.058 0.321,0.088 0.321,0.087 0.29099,0.059 0.32101,0.087 0.321,0.059 0.321,0.087 0.292,0.058 0.32099,0.059 0.32,0.087 0.292,0.059 0.321,0.058 0.32001,0.087 0.32098,0.059 m -61.862987,-56.554999 0.292,0.759003 0.641998,1.515999 0.292,0.729999 0.640999,1.458001 0.321007,0.729 0.292,0.700001 0.319999,0.670997 0.320999,0.700001 0.291993,0.671001 0.642005,1.341 0.32,0.641994 0.292,0.642006 0.320999,0.640999 0.320999,0.612999 0.292,0.642002 0.32,0.611996 0.320999,0.583004 0.320999,0.612999 0.292008,0.583 0.640998,1.167 0.292,0.553993 0.320999,0.583008 0.320999,0.555 0.291001,0.525002 0.320999,0.554001 0.641998,1.049995 0.292,0.525002 0.32,0.525001 0.320999,0.496002 0.292007,0.494995 0.961998,1.487999 0.291993,0.467003 0.642005,0.932999 0.291001,0.467003 0.320999,0.436996 0.320999,0.467003 0.320999,0.436997 0.292,0.438003 0.32,0.436997 0.321007,0.409004 0.291999,0.436996 0.321,0.409004 0.319999,0.407998 0.320999,0.407997 0.292,0.409004 0.320999,0.378998 0.320999,0.408004 0.291001,0.378998 0.320999,0.378998 0.641998,0.759003 0.292,0.349998 0.32,0.378998 0.321007,0.350006 0.291999,0.349999 0.321,0.349998 0.319999,0.349999 0.320999,0.320999 0.291993,0.350006 0.321006,0.320999 0.320999,0.32 0.291001,0.349998 0.320999,0.320999 0.320999,0.292 0.320999,0.320999 0.292,0.320999 0.641007,0.583001 0.291999,0.320999 0.321,0.291 0.319999,0.263001 0.320999,0.291999 0.292,0.290993 0.320999,0.263008 0.320999,0.291001 0.291001,0.263 0.320999,0.262001 0.320992,0.292 0.321006,0.263 0.292,0.233002 0.641007,0.524994 0.291999,0.233002 0.321,0.263 0.319999,0.233002 0.292,0.233002 0.320992,0.234001 0.321006,0.232994 0.320999,0.233002 0.291001,0.234001 0.320999,0.233001 m -32.491997,-47.804004 0.320999,0.816002 0.292,0.787998 0.320999,0.817001 0.320999,0.786999 0.32,0.757999" /><path
               id="path78"
               style="fill:#231f20;fill-opacity:1;fill-rule:nonzero;stroke:none"
               d="m 65.597,136.78101 h 3.967003" /><path
               id="path80"
               style="fill:none;stroke:#231f20;stroke-width:0.80000001;stroke-linecap:butt;stroke-linejoin:miter;stroke-miterlimit:4;stroke-dasharray:none;stroke-opacity:1"
               d="m 65.597,136.78101 h 3.967003" /><path
               id="path82"
               style="fill:#231f20;fill-opacity:1;fill-rule:nonzero;stroke:none"
               d="m 221.23102,16.963001 v -3.966" /><path
               id="path84"
               style="fill:none;stroke:#231f20;stroke-width:0.80000001;stroke-linecap:butt;stroke-linejoin:miter;stroke-miterlimit:4;stroke-dasharray:none;stroke-opacity:1"
               d="m 221.23102,16.963001 v -3.966" /><text
               id="text88"
               style="font-variant:normal;font-weight:normal;font-size:8.36849976px;font-family:CMR12;-inkscape-font-specification:CMR12;writing-mode:lr-tb;fill:#231f20;fill-opacity:1;fill-rule:nonzero;stroke:none"
               transform="matrix(1,0,0,-1,55.754398,13.286)"><tspan
                 id="tspan86"
                 y="0"
                 x="0">0</tspan></text>
<text
               id="text92"
               style="font-variant:normal;font-weight:normal;font-size:8.36849976px;font-family:CMR12;-inkscape-font-specification:CMR12;writing-mode:lr-tb;fill:#231f20;fill-opacity:1;fill-rule:nonzero;stroke:none"
               transform="matrix(1,0,0,-1,55.23304,52.485725)"><tspan
                 id="tspan90"
                 y="0"
                 x="0">5</tspan></text>
<text
               id="text96"
               style="font-variant:normal;font-weight:normal;font-size:8.36849976px;font-family:CMR12;-inkscape-font-specification:CMR12;writing-mode:lr-tb;fill:#231f20;fill-opacity:1;fill-rule:nonzero;stroke:none"
               transform="matrix(1,0,0,-1,53.311634,93.085503)"><tspan
                 id="tspan94"
                 y="0"
                 x="0 4.0921965">10</tspan></text>
<text
               id="text100"
               style="font-variant:normal;font-weight:normal;font-size:8.36849976px;font-family:CMR12;-inkscape-font-specification:CMR12;writing-mode:lr-tb;fill:#231f20;fill-opacity:1;fill-rule:nonzero;stroke:none"
               transform="matrix(1,0,0,-1,53.386951,134.73553)"><tspan
                 id="tspan98"
                 y="0"
                 x="0 4.0921965">15</tspan></text>
<text
               id="text104"
               style="font-variant:normal;font-weight:normal;font-size:8.36849976px;font-family:CMR12;-inkscape-font-specification:CMR12;writing-mode:lr-tb;fill:#231f20;fill-opacity:1;fill-rule:nonzero;stroke:none"
               transform="matrix(1,0,0,-1,95.483009,2.1015143)"><tspan
                 id="tspan102"
                 y="0"
                 x="0">1</tspan></text>
<text
               id="text108"
               style="font-variant:normal;font-weight:normal;font-size:8.36849976px;font-family:CMR12;-inkscape-font-specification:CMR12;writing-mode:lr-tb;fill:#231f20;fill-opacity:1;fill-rule:nonzero;stroke:none"
               transform="matrix(1,0,0,-1,125.76108,2.1015143)"><tspan
                 id="tspan106"
                 y="0"
                 x="0">2</tspan></text>
<text
               id="text112"
               style="font-variant:normal;font-weight:normal;font-size:8.36849976px;font-family:CMR12;-inkscape-font-specification:CMR12;writing-mode:lr-tb;fill:#231f20;fill-opacity:1;fill-rule:nonzero;stroke:none"
               transform="matrix(1,0,0,-1,157.78984,2.4504807)"><tspan
                 id="tspan110"
                 y="0"
                 x="0">3</tspan></text>
<text
               id="text116"
               style="font-variant:normal;font-weight:normal;font-size:8.36849976px;font-family:CMR12;-inkscape-font-specification:CMR12;writing-mode:lr-tb;fill:#231f20;fill-opacity:1;fill-rule:nonzero;stroke:none"
               transform="matrix(1,0,0,-1,189.11815,2.1015143)"><tspan
                 id="tspan114"
                 y="0"
                 x="0">4</tspan></text>
<text
               id="text120"
               style="font-variant:normal;font-weight:normal;font-size:8.36849976px;font-family:CMR12;-inkscape-font-specification:CMR12;writing-mode:lr-tb;fill:#231f20;fill-opacity:1;fill-rule:nonzero;stroke:none"
               transform="matrix(1,0,0,-1,220.79626,2.4504807)"><tspan
                 id="tspan118"
                 y="0"
                 x="0">5</tspan></text>
<text
               id="text124"
               style="font-variant:normal;font-weight:normal;font-size:11.95500088px;font-family:CMMI12;-inkscape-font-specification:CMMI12;writing-mode:lr-tb;fill:#231f20;fill-opacity:1;fill-rule:nonzero;stroke:none"
               transform="matrix(1,0,0,-1,0,79.0588)"><tspan
                 id="tspan122"
                 y="0"
                 x="0">v</tspan></text>
<text
               id="text128"
               style="font-variant:normal;font-weight:normal;font-size:11.95500088px;font-family:CMR12;-inkscape-font-specification:CMR12;writing-mode:lr-tb;fill:#231f20;fill-opacity:1;fill-rule:nonzero;stroke:none"
               transform="matrix(1,0,0,-1,9.9895983,79.0588)"><tspan
                 id="tspan126"
                 y="0"
                 x="0 4.5429006">(m</tspan></text>
<text
               id="text132"
               style="font-variant:normal;font-weight:normal;font-size:11.95500088px;font-family:CMR12;-inkscape-font-specification:CMR12;writing-mode:lr-tb;fill:#231f20;fill-opacity:1;fill-rule:nonzero;stroke:none"
               transform="matrix(1,0,0,-1,28.199457,79.0588)"><tspan
                 id="tspan130"
                 y="0"
                 x="0">s</tspan></text>
<text
               id="text136"
               style="font-variant:normal;font-weight:normal;font-size:7.96999979px;font-family:CMR8;-inkscape-font-specification:CMR8;writing-mode:lr-tb;fill:#231f20;fill-opacity:1;fill-rule:nonzero;stroke:none"
               transform="matrix(1,0,0,-1,39.402798,83.396698)"><tspan
                 id="tspan134"
                 y="0"
                 x="0">1</tspan></text>
<text
               id="text140"
               style="font-variant:normal;font-weight:normal;font-size:11.95500088px;font-family:CMR12;-inkscape-font-specification:CMR12;writing-mode:lr-tb;fill:#231f20;fill-opacity:1;fill-rule:nonzero;stroke:none"
               transform="matrix(1,0,0,-1,44.1362,79.0588)"><tspan
                 id="tspan138"
                 y="0"
                 x="0">)</tspan></text>
<text
               id="text144"
               style="font-variant:normal;font-weight:normal;font-size:11.95500088px;font-family:CMMI12;-inkscape-font-specification:CMMI12;writing-mode:lr-tb;fill:#231f20;fill-opacity:1;fill-rule:nonzero;stroke:none"
               transform="matrix(1,0,0,-1,245.94858,8.1811867)"><tspan
                 id="tspan142"
                 y="0"
                 x="0">t</tspan></text>
<text
               id="text148"
               style="font-variant:normal;font-weight:normal;font-size:11.95500088px;font-family:CMR12;-inkscape-font-specification:CMR12;writing-mode:lr-tb;fill:#231f20;fill-opacity:1;fill-rule:nonzero;stroke:none"
               transform="matrix(1,0,0,-1,254.07797,8.1811867)"><tspan
                 id="tspan146"
                 y="0"
                 x="0 4.5429006 9.1575308">(s)</tspan></text>
<path
               id="path150"
               style="fill:none;stroke:#231f20;stroke-width:0.80000001;stroke-linecap:butt;stroke-linejoin:miter;stroke-miterlimit:4;stroke-dasharray:none;stroke-opacity:1"
               d="M 33.978001,85.937004 H 39.312" /><path
               id="path152"
               style="fill:#ffffff;fill-opacity:1;fill-rule:nonzero;stroke:none"
               d="M 65.656006,113.68101 H 222.10602" /><path
               id="path154"
               style="fill:none;stroke:#231f20;stroke-width:1;stroke-linecap:butt;stroke-linejoin:miter;stroke-miterlimit:4;stroke-dasharray:3, 3, 3, 3, 3, 3;stroke-dashoffset:0;stroke-opacity:1"
               d="M 65.656006,113.68101 H 222.10602" /></g></g></g></g></g></svg>