<?xml version="1.0" encoding="UTF-8" standalone="no"?>
<svg
   xmlns:dc="http://purl.org/dc/elements/1.1/"
   xmlns:cc="http://creativecommons.org/ns#"
   xmlns:rdf="http://www.w3.org/1999/02/22-rdf-syntax-ns#"
   xmlns:svg="http://www.w3.org/2000/svg"
   xmlns="http://www.w3.org/2000/svg"
   viewBox="0 0 204 216"
   height="216"
   width="204"
   xml:space="preserve"
   id="svg2"
   version="1.1"><metadata
     id="metadata8"><rdf:RDF><cc:Work
         rdf:about=""><dc:format>image/svg+xml</dc:format><dc:type
           rdf:resource="http://purl.org/dc/dcmitype/StillImage" /></cc:Work></rdf:RDF></metadata><defs
     id="defs6"><clipPath
       id="clipPath24"
       clipPathUnits="userSpaceOnUse"><path
         id="path22"
         d="M 0,0 H 153 V 162 H 0 Z" /></clipPath><clipPath
       id="clipPath46"
       clipPathUnits="userSpaceOnUse"><path
         id="path44"
         d="M 0.06,0.05999756 H 152.504 V 161.76401 H 0.06 Z" /></clipPath><clipPath
       id="clipPath60"
       clipPathUnits="userSpaceOnUse"><path
         id="path58"
         d="M 0.06,0.05999756 H 152.504 V 161.76401 H 0.06 Z" /></clipPath></defs><g
     transform="matrix(1.3333333,0,0,-1.3333333,0,216)"
     id="g10"><g
       id="g12" /><g
       id="g14" /><g
       id="g16"><g
         id="g18"><g
           clip-path="url(#clipPath24)"
           id="g20"><g
             id="g26" /><g
             id="g28"><path
               id="path30"
               style="fill:#ffffff;fill-opacity:1;fill-rule:nonzero;stroke:none"
               d="M 6.7530003,58.082005 89.604004,86.318001" /><path
               id="path32"
               style="fill:none;stroke:#231f20;stroke-width:1;stroke-linecap:butt;stroke-linejoin:miter;stroke-miterlimit:4;stroke-dasharray:none;stroke-opacity:1"
               d="M 6.7530003,58.082005 89.604004,86.318001" /><path
               id="path34"
               style="fill:#e9e9e9;fill-opacity:1;fill-rule:nonzero;stroke:none"
               d="m 6.3360004,57.124004 82.3330056,28.999997 0.334,-5 1,-5 -0.666,-5.667 -0.334,-4.333 -0.666,-3.666996 -0.667008,-5.333001 H 6.3360004" /><path
               id="path36"
               style="fill:none;stroke:#918f90;stroke-width:1;stroke-linecap:butt;stroke-linejoin:miter;stroke-miterlimit:4;stroke-dasharray:none;stroke-opacity:1"
               d="m 6.3360004,57.124004 82.3330056,28.999997 0.334,-5 1,-5 -0.666,-5.667 -0.334,-4.333 -0.666,-3.666996 -0.667008,-5.333001 z" /><path
               id="path38"
               style="fill:#ffffff;fill-opacity:1;fill-rule:nonzero;stroke:none"
               d="m 106.69301,161.035 c 0.766,0.06 1.53599,0.089 2.311,0.089 23.74799,0 43,-28.056 43,-62.667002 0,-29.036003 -13.55,-53.461006 -31.93801,-60.574005" /></g><g
             id="g40"><g
               clip-path="url(#clipPath46)"
               id="g42"><path
                 id="path48"
                 style="fill:none;stroke:#231f20;stroke-width:1;stroke-linecap:butt;stroke-linejoin:miter;stroke-miterlimit:4;stroke-dasharray:none;stroke-opacity:1"
                 d="m 106.69301,161.035 c 0.766,0.06 1.53599,0.089 2.311,0.089 23.74799,0 43,-28.056 43,-62.667002 0,-29.036003 -13.55,-53.461006 -31.93801,-60.574005" /></g></g><g
             id="g50"><path
               id="path52"
               style="fill:#ffffff;fill-opacity:1;fill-rule:nonzero;stroke:none"
               d="m 40.503002,138.457 67.000008,22.834" /></g><g
             id="g54"><g
               clip-path="url(#clipPath60)"
               id="g56"><path
                 id="path62"
                 style="fill:none;stroke:#231f20;stroke-width:1;stroke-linecap:butt;stroke-linejoin:miter;stroke-miterlimit:4;stroke-dasharray:none;stroke-opacity:1"
                 d="m 40.503002,138.457 67.000008,22.834" /></g></g><g
             id="g64"><path
               id="path66"
               style="fill:#ffffff;fill-opacity:1;fill-rule:nonzero;stroke:none"
               d="m 108.48801,33.579998 11.889,4.221005" /><path
               id="path68"
               style="fill:none;stroke:#231f20;stroke-width:1;stroke-linecap:butt;stroke-linejoin:miter;stroke-miterlimit:4;stroke-dasharray:none;stroke-opacity:1"
               d="m 108.48801,33.579998 11.889,4.221005" /><path
               id="path70"
               style="fill:#ffffff;fill-opacity:1;fill-rule:nonzero;stroke:none"
               d="M 53.669998,14.123001 108.48801,33.579998" /><path
               id="path72"
               style="fill:none;stroke:#231f20;stroke-width:1;stroke-linecap:butt;stroke-linejoin:miter;stroke-miterlimit:4;stroke-dasharray:none;stroke-opacity:1"
               d="M 53.669998,14.123001 108.48801,33.579998" /><path
               id="path74"
               style="fill:#231f20;fill-opacity:1;fill-rule:nonzero;stroke:none"
               d="m 110.371,35.336002 c -1.725,-0.082 -2.892,-0.008 -4.32,0.05 l 1.68801,-4.754 c 0.37099,0.371 1.93,1.737997 3.32099,2.761999 1.489,1.095997 2.879,1.977001 3.81601,2.448002 -1.025,-0.225002 -2.65901,-0.417 -4.50501,-0.506001" /><path
               id="path76"
               style="fill:#a9a8a8;fill-opacity:1;fill-rule:nonzero;stroke:none"
               d="M 6.0030003,56.124004 7.8360004,50.789997 10.003,44.957001 l 2.166001,-4.5 3,-6.167 4,-5.333 3.833999,-4.333 4.666001,-4.334002 3.5,-2 3.334001,-2 4.333,-1.665998 4.667,-0.834001 3.5,-0.332999 5.333,0.667 3.5,1 3.667,1.333 4.500004,2.5 3.5,2.5 6.5,5.832998 4.834,6.834002 4.5,9 3.332992,8.665996 1,5.334007 H 6.3360004" /><path
               id="path78"
               style="fill:none;stroke:#231f20;stroke-width:1;stroke-linecap:butt;stroke-linejoin:miter;stroke-miterlimit:4;stroke-dasharray:none;stroke-opacity:1"
               d="m 90.003006,76.124001 c 0,-34.609997 -19.251999,-62.667 -43.000004,-62.667 -23.748001,0 -43.0000017,28.057003 -43.0000017,62.667 0,34.610009 19.2520007,62.666999 43.0000017,62.666999 23.748005,0 43.000004,-28.05699 43.000004,-62.666999 z m -44.000004,-64.667 h 51.000004" /><path
               id="path80"
               style="fill:#231f20;fill-opacity:1;fill-rule:nonzero;stroke:none"
               d="m 99.364006,12.482 c -1.652,0.499001 -2.727005,0.959001 -4.053001,1.491001 V 8.9290009 c 0.473999,0.2259998 2.401001,0.993 4.053001,1.4919991 1.769994,0.534001 3.375994,0.9 4.415994,1.03 -1.04,0.131001 -2.646,0.497001 -4.415994,1.031" /><path
               id="path82"
               style="fill:none;stroke:#231f20;stroke-width:1;stroke-linecap:butt;stroke-linejoin:miter;stroke-miterlimit:4;stroke-dasharray:none;stroke-opacity:1"
               d="m 45.669998,11.124001 v 36" /><path
               id="path84"
               style="fill:#231f20;fill-opacity:1;fill-rule:nonzero;stroke:none"
               d="m 44.645,49.486004 c -0.498996,-1.654003 -0.958999,-2.728001 -1.491996,-4.055 h 5.044998 c -0.225998,0.474998 -0.993,2.400997 -1.492001,4.055 -0.535,1.768997 -0.899997,3.373997 -1.030998,4.413998 C 45.545002,52.860001 45.179001,51.255001 44.645,49.486004" /><path
               id="path86"
               style="fill:none;stroke:#231f20;stroke-width:0.5;stroke-linecap:butt;stroke-linejoin:miter;stroke-miterlimit:4;stroke-dasharray:none;stroke-opacity:1"
               d="m 3.6690001,25.789999 v -8.332998 m 0,31 v -8.167" /><path
               id="path88"
               style="fill:#231f20;fill-opacity:1;fill-rule:nonzero;stroke:none"
               d="m 4.6940002,15.095 c 0.5,1.653001 0.9600001,2.728 1.4920001,4.054 H 1.1420001 c 0.225,-0.473999 0.992,-2.400999 1.491,-4.054 C 3.1680002,13.326 3.5340002,11.721001 3.6640003,10.679999 3.7940001,11.721001 4.1599998,13.326 4.6940002,15.095" /><path
               id="path90"
               style="fill:none;stroke:#231f20;stroke-width:0.5;stroke-linecap:butt;stroke-linejoin:miter;stroke-miterlimit:4;stroke-dasharray:none;stroke-opacity:1"
               d="m 4.6940002,15.095 c 0.5,1.653001 0.9600001,2.728 1.4920001,4.054 H 1.1420001 c 0.225,-0.473999 0.992,-2.400999 1.491,-4.054 C 3.1680002,13.326 3.5340002,11.721001 3.6640003,10.679999 3.7940001,11.721001 4.1599998,13.326 4.6940002,15.095 Z" /><path
               id="path92"
               style="fill:#231f20;fill-opacity:1;fill-rule:nonzero;stroke:none"
               d="m 2.6450002,50.819004 c -0.5,-1.654003 -0.9600001,-2.728001 -1.4920002,-4.055 h 5.0440005 c -0.2250004,0.474998 -0.9920001,2.400997 -1.4910002,4.055 -0.5350003,1.768997 -0.9010002,3.373997 -1.0310001,4.413998 -0.1310001,-1.040001 -0.4960001,-2.645001 -1.03,-4.413998" /><path
               id="path94"
               style="fill:none;stroke:#231f20;stroke-width:0.5;stroke-linecap:butt;stroke-linejoin:miter;stroke-miterlimit:4;stroke-dasharray:none;stroke-opacity:1"
               d="m 2.6450002,50.819004 c -0.5,-1.654003 -0.9600001,-2.728001 -1.4920002,-4.055 h 5.0440005 c -0.2250004,0.474998 -0.9920001,2.400997 -1.4910002,4.055 C 4.171,52.588001 3.8050001,54.193001 3.6750002,55.233002 3.5440001,54.193001 3.1790001,52.588001 2.6450002,50.819004 Z M 31.021002,79.979996 H 38.146 m -27.900999,0 h 9.75" /><path
               id="path96"
               style="fill:#231f20;fill-opacity:1;fill-rule:nonzero;stroke:none"
               d="m 40.271004,80.903008 c -1.488003,0.448997 -2.455002,0.862998 -3.649002,1.341995 v -4.540001 c 0.427002,0.203003 2.160999,0.893005 3.649002,1.343002 1.592998,0.481003 3.036998,0.809998 3.972999,0.927002 -0.936001,0.117996 -2.380001,0.446999 -3.972999,0.928002" /><path
               id="path98"
               style="fill:none;stroke:#231f20;stroke-width:0.5;stroke-linecap:butt;stroke-linejoin:miter;stroke-miterlimit:4;stroke-dasharray:none;stroke-opacity:1"
               d="m 40.271004,80.903008 c -1.488003,0.448997 -2.455002,0.862998 -3.649002,1.341995 v -4.540001 c 0.427002,0.203003 2.160999,0.893005 3.649002,1.343002 1.592998,0.481003 3.036998,0.809998 3.972999,0.927002 -0.936001,0.117996 -2.380001,0.446999 -3.972999,0.928002 z" /><path
               id="path100"
               style="fill:#231f20;fill-opacity:1;fill-rule:nonzero;stroke:none"
               d="M 8.1199999,79.057007 C 9.6080008,78.608002 10.575001,78.194 11.769001,77.715004 v 4.540001 c -0.428,-0.203003 -2.1610002,-0.892998 -3.6490011,-1.343002 -1.5929995,-0.480996 -3.0369997,-0.809998 -3.9739995,-0.927002 0.9369998,-0.116997 2.381,-0.446999 3.9739995,-0.927994" /><path
               id="path102"
               style="fill:none;stroke:#231f20;stroke-width:0.5;stroke-linecap:butt;stroke-linejoin:miter;stroke-miterlimit:4;stroke-dasharray:none;stroke-opacity:1"
               d="M 8.1199999,79.057007 C 9.6080008,78.608002 10.575001,78.194 11.769001,77.715004 v 4.540001 c -0.428,-0.203003 -2.1610002,-0.892998 -3.6490011,-1.343002 -1.5929995,-0.480996 -3.0369997,-0.809998 -3.9739995,-0.927002 0.9369998,-0.116997 2.381,-0.446999 3.9739995,-0.927994 z M 43.669003,105.04101 V 88.791008 m 0,41.667002 v -13.417" /><path
               id="path104"
               style="fill:#231f20;fill-opacity:1;fill-rule:nonzero;stroke:none"
               d="m 44.669003,85.124001 c 0.5,1.654007 0.959999,2.728004 1.492,4.055 h -5.044002 c 0.225002,-0.474999 0.992,-2.400993 1.491001,-4.055 0.535,-1.768998 0.901001,-3.374001 1.031002,-4.414002 0.130996,1.040001 0.495998,2.645004 1.029999,4.414002" /><path
               id="path106"
               style="fill:none;stroke:#231f20;stroke-width:0.5;stroke-linecap:butt;stroke-linejoin:miter;stroke-miterlimit:4;stroke-dasharray:none;stroke-opacity:1"
               d="m 44.669003,85.124001 c 0.5,1.654007 0.959999,2.728004 1.492,4.055 h -5.044002 c 0.225002,-0.474999 0.992,-2.400993 1.491001,-4.055 0.535,-1.768998 0.901001,-3.374001 1.031002,-4.414002 0.130996,1.040001 0.495998,2.645004 1.029999,4.414002 z" /><path
               id="path108"
               style="fill:#231f20;fill-opacity:1;fill-rule:nonzero;stroke:none"
               d="m 42.645,134.48601 c -0.5,-1.653 -0.959999,-2.728 -1.491996,-4.054 h 5.043998 c -0.224998,0.475 -0.992,2.401 -1.491001,4.054 -0.535,1.77 -0.901001,3.37399 -1.030998,4.41499 -0.131,-1.041 -0.496002,-2.64499 -1.030003,-4.41499" /><path
               id="path110"
               style="fill:none;stroke:#231f20;stroke-width:0.5;stroke-linecap:butt;stroke-linejoin:miter;stroke-miterlimit:4;stroke-dasharray:none;stroke-opacity:1"
               d="m 42.645,134.48601 c -0.5,-1.653 -0.959999,-2.728 -1.491996,-4.054 h 5.043998 c -0.224998,0.475 -0.992,2.401 -1.491001,4.054 -0.535,1.77 -0.901001,3.37399 -1.030998,4.41499 -0.131,-1.041 -0.496002,-2.64499 -1.030003,-4.41499 z" /><path
               id="path112"
               style="fill:#ffffff;fill-opacity:1;fill-rule:nonzero;stroke:none"
               d="m 119.51301,127.01401 18.768,6.395" /><path
               id="path114"
               style="fill:none;stroke:#231f20;stroke-width:0.5;stroke-linecap:butt;stroke-linejoin:miter;stroke-miterlimit:4;stroke-dasharray:none;stroke-opacity:1"
               d="m 119.51301,127.01401 18.768,6.395" /><path
               id="path116"
               style="fill:#ffffff;fill-opacity:1;fill-rule:nonzero;stroke:none"
               d="M 86.725006,115.839 105.673,122.29601" /><path
               id="path118"
               style="fill:none;stroke:#231f20;stroke-width:0.5;stroke-linecap:butt;stroke-linejoin:miter;stroke-miterlimit:4;stroke-dasharray:none;stroke-opacity:1"
               d="M 86.725006,115.839 105.673,122.29601" /><path
               id="path120"
               style="fill:#231f20;fill-opacity:1;fill-rule:nonzero;stroke:none"
               d="m 140.091,135.05501 c -1.64,-0.058 -2.74699,0.026 -4.10299,0.099 l 1.54699,-4.536 c 0.35701,0.34799 1.85401,1.627 3.187,2.58299 1.42799,1.023 2.758,1.84401 3.65401,2.28 -0.976,-0.20199 -2.53101,-0.364 -4.28501,-0.42599" /><path
               id="path122"
               style="fill:none;stroke:#231f20;stroke-width:0.5;stroke-linecap:butt;stroke-linejoin:miter;stroke-miterlimit:4;stroke-dasharray:none;stroke-opacity:1"
               d="m 140.091,135.05501 c -1.64,-0.058 -2.74699,0.026 -4.10299,0.099 l 1.54699,-4.536 c 0.35701,0.34799 1.85401,1.627 3.187,2.58299 1.42799,1.023 2.758,1.84401 3.65401,2.28 -0.976,-0.20199 -2.53101,-0.364 -4.28501,-0.42599 z" /><path
               id="path124"
               style="fill:#231f20;fill-opacity:1;fill-rule:nonzero;stroke:none"
               d="m 84.915001,114.19301 c 1.639999,0.058 2.747002,-0.027 4.103004,-0.098 L 87.472008,118.63 c -0.358002,-0.34799 -1.855004,-1.62799 -3.189003,-2.58399 -1.427002,-1.02201 -2.758003,-1.84301 -3.654,-2.279 0.975998,0.20199 2.530991,0.36399 4.285996,0.426" /><path
               id="path126"
               style="fill:none;stroke:#231f20;stroke-width:0.5;stroke-linecap:butt;stroke-linejoin:miter;stroke-miterlimit:4;stroke-dasharray:none;stroke-opacity:1"
               d="m 84.915001,114.19301 c 1.639999,0.058 2.747002,-0.027 4.103004,-0.098 L 87.472008,118.63 c -0.358002,-0.34799 -1.855004,-1.62799 -3.189003,-2.58399 -1.427002,-1.02201 -2.758003,-1.84301 -3.654,-2.279 0.975998,0.20199 2.530991,0.36399 4.285996,0.426 z" /><text
               id="text130"
               style="font-variant:normal;font-weight:normal;font-size:11.95500088px;font-family:CMMI12;-inkscape-font-specification:CMMI12;writing-mode:lr-tb;fill:#231f20;fill-opacity:1;fill-rule:nonzero;stroke:none"
               transform="matrix(1,0,0,-1,98.767097,2.9890001)"><tspan
                 id="tspan128"
                 y="0"
                 x="0">x</tspan></text>
<text
               id="text134"
               style="font-variant:normal;font-weight:normal;font-size:11.95500088px;font-family:CMMI12;-inkscape-font-specification:CMMI12;writing-mode:lr-tb;fill:#231f20;fill-opacity:1;fill-rule:nonzero;stroke:none"
               transform="matrix(1,0,0,-1,37.97353,49.239311)"><tspan
                 id="tspan132"
                 y="0"
                 x="0">z</tspan></text>
<text
               id="text138"
               style="font-variant:normal;font-weight:normal;font-size:11.95500088px;font-family:CMMI12;-inkscape-font-specification:CMMI12;writing-mode:lr-tb;fill:#231f20;fill-opacity:1;fill-rule:nonzero;stroke:none"
               transform="matrix(1,0,0,-1,107.59587,39.238953)"><tspan
                 id="tspan136"
                 y="0"
                 x="0">y</tspan></text>
<text
               id="text142"
               style="font-variant:normal;font-weight:normal;font-size:10.75949955px;font-family:CMMI12;-inkscape-font-specification:CMMI12;writing-mode:lr-tb;fill:#231f20;fill-opacity:1;fill-rule:nonzero;stroke:none"
               transform="matrix(1,0,0,-1,22.813499,77.6082)"><tspan
                 id="tspan140"
                 y="0"
                 x="0">a</tspan></text>
<text
               id="text146"
               style="font-variant:normal;font-weight:normal;font-size:11.95500088px;font-family:CMMI12;-inkscape-font-specification:CMMI12;writing-mode:lr-tb;fill:#231f20;fill-opacity:1;fill-rule:nonzero;stroke:none"
               transform="matrix(1,0,0,-1,40.931198,107.7391)"><tspan
                 id="tspan144"
                 y="0"
                 x="0">c</tspan></text>
<text
               id="text150"
               style="font-variant:normal;font-weight:normal;font-size:11.95500088px;font-family:CMMI12;-inkscape-font-specification:CMMI12;writing-mode:lr-tb;fill:#231f20;fill-opacity:1;fill-rule:nonzero;stroke:none"
               transform="matrix(1,0,0,-1,110.62048,122.23932)"><tspan
                 id="tspan148"
                 y="0"
                 x="0">b</tspan></text>
<text
               id="text154"
               style="font-variant:normal;font-weight:normal;font-size:11.95500088px;font-family:CMMI12;-inkscape-font-specification:CMMI12;writing-mode:lr-tb;fill:#231f20;fill-opacity:1;fill-rule:nonzero;stroke:none"
               transform="matrix(1,0,0,-1,-3.2854351e-4,29.238981)"><tspan
                 id="tspan152"
                 y="0"
                 x="0">h</tspan></text>
</g></g></g></g></g></svg>