<?xml version="1.0" encoding="UTF-8" standalone="no"?>
<svg
   xmlns:dc="http://purl.org/dc/elements/1.1/"
   xmlns:cc="http://creativecommons.org/ns#"
   xmlns:rdf="http://www.w3.org/1999/02/22-rdf-syntax-ns#"
   xmlns:svg="http://www.w3.org/2000/svg"
   xmlns="http://www.w3.org/2000/svg"
   viewBox="0 0 426.66666 152"
   height="152"
   width="426.66666"
   xml:space="preserve"
   id="svg2"
   version="1.1"><metadata
     id="metadata8"><rdf:RDF><cc:Work
         rdf:about=""><dc:format>image/svg+xml</dc:format><dc:type
           rdf:resource="http://purl.org/dc/dcmitype/StillImage" /></cc:Work></rdf:RDF></metadata><defs
     id="defs6"><clipPath
       id="clipPath24"
       clipPathUnits="userSpaceOnUse"><path
         id="path22"
         d="M 0,0 H 320 V 114 H 0 Z" /></clipPath><clipPath
       id="clipPath56"
       clipPathUnits="userSpaceOnUse"><path
         id="path54"
         d="M 0.06,0.05999756 H 319.24301 V 113.968 H 0.06 Z" /></clipPath><clipPath
       id="clipPath118"
       clipPathUnits="userSpaceOnUse"><path
         id="path116"
         d="M 0.06,0.05999756 H 319.24301 V 113.968 H 0.06 Z" /></clipPath></defs><g
     transform="matrix(1.3333333,0,0,-1.3333333,0,152)"
     id="g10"><g
       id="g12" /><g
       id="g14" /><g
       id="g16"><g
         id="g18"><g
           clip-path="url(#clipPath24)"
           id="g20"><g
             id="g26" /><g
             id="g28"><path
               id="path30"
               style="fill:#b9b7b8;fill-opacity:1;fill-rule:nonzero;stroke:none"
               d="m 227.47701,41.563004 v 44.5 H 238.311 v -33" /><path
               id="path32"
               style="fill:none;stroke:#231f20;stroke-width:1;stroke-linecap:butt;stroke-linejoin:miter;stroke-miterlimit:4;stroke-dasharray:none;stroke-opacity:1"
               d="m 227.47701,41.563004 v 44.5 H 238.311 v -33" /><path
               id="path34"
               style="fill:#b9b7b8;fill-opacity:1;fill-rule:nonzero;stroke:none"
               d="M 30.643002,14.897 101.394,85.647003 H 30.143002" /><path
               id="path36"
               style="fill:none;stroke:#231f20;stroke-width:1;stroke-linecap:butt;stroke-linejoin:miter;stroke-miterlimit:4;stroke-dasharray:none;stroke-opacity:1"
               d="M 30.643002,14.897 101.394,85.647003 H 30.143002" /><path
               id="path38"
               style="fill:#ffffff;fill-opacity:1;fill-rule:nonzero;stroke:none"
               d="M 16.643002,14.397 H 130.14401" /><path
               id="path40"
               style="fill:#ffffff;fill-opacity:1;fill-rule:nonzero;stroke:none"
               d="m 132.505,15.422001 c -1.65199,0.498999 -2.72799,0.959 -4.054,1.490999 v -5.044999 c 0.47501,0.226 2.40201,0.993 4.054,1.491999 1.769,0.535 3.37499,0.901001 4.415,1.031001 -1.04001,0.130999 -2.646,0.496 -4.415,1.031" /><path
               id="path42"
               style="fill:none;stroke:#231f20;stroke-width:1;stroke-linecap:butt;stroke-linejoin:miter;stroke-miterlimit:4;stroke-dasharray:none;stroke-opacity:1"
               d="M 16.643002,14.397 H 130.14401" /><path
               id="path44"
               style="fill:#231f20;fill-opacity:1;fill-rule:nonzero;stroke:none"
               d="m 132.505,15.422001 c -1.65199,0.498999 -2.72799,0.959 -4.054,1.490999 v -5.044999 c 0.47501,0.226 2.40201,0.993 4.054,1.491999 1.769,0.535 3.37499,0.901001 4.415,1.031001 -1.04001,0.130999 -2.646,0.496 -4.415,1.031" /><path
               id="path46"
               style="fill:#231f20;fill-opacity:1;fill-rule:nonzero;stroke:none"
               d="m 132.505,15.422001 c -1.65199,0.498999 -2.72799,0.959 -4.054,1.490999 v -5.044999 c 0.47501,0.226 2.40201,0.993 4.054,1.491999 1.769,0.535 3.37499,0.901001 4.415,1.031001 -1.04001,0.130999 -2.646,0.496 -4.415,1.031" /><path
               id="path48"
               style="fill:#ffffff;fill-opacity:1;fill-rule:nonzero;stroke:none"
               d="M 30.643002,1.396 V 103.397" /></g><g
             id="g50"><g
               clip-path="url(#clipPath56)"
               id="g52"><path
                 id="path58"
                 style="fill:none;stroke:#231f20;stroke-width:1;stroke-linecap:butt;stroke-linejoin:miter;stroke-miterlimit:4;stroke-dasharray:none;stroke-opacity:1"
                 d="M 30.643002,1.396 V 103.397" /></g></g><g
             id="g60"><path
               id="path62"
               style="fill:#231f20;fill-opacity:1;fill-rule:nonzero;stroke:none"
               d="m 29.618002,105.759 c -0.499001,-1.654 -0.959,-2.729 -1.492001,-4.055 h 5.045 c -0.226001,0.47501 -0.993,2.401 -1.492,4.055 -0.533999,1.76901 -0.9,3.374 -1.031,4.414 -0.129999,-1.04 -0.495999,-2.64499 -1.029999,-4.414" /><path
               id="path64"
               style="fill:none;stroke:#231f20;stroke-width:0.60000002;stroke-linecap:butt;stroke-linejoin:miter;stroke-miterlimit:4;stroke-dasharray:3, 3, 3, 3, 3, 3;stroke-dashoffset:0;stroke-opacity:1"
               d="M 102.644,85.897003 V 14.897" /><text
               id="text68"
               style="font-variant:normal;font-weight:normal;font-size:11.95500088px;font-family:CMMI12;-inkscape-font-specification:CMMI12;writing-mode:lr-tb;fill:#231f20;fill-opacity:1;fill-rule:nonzero;stroke:none"
               transform="matrix(1,0,0,-1,0,82.501701)"><tspan
                 id="tspan66"
                 y="0"
                 x="0">y</tspan></text>
<text
               id="text72"
               style="font-variant:normal;font-weight:normal;font-size:11.95500088px;font-family:CMR12;-inkscape-font-specification:CMR12;writing-mode:lr-tb;fill:#231f20;fill-opacity:1;fill-rule:nonzero;stroke:none"
               transform="matrix(1,0,0,-1,9.4576006,82.501701)"><tspan
                 id="tspan70"
                 y="0"
                 x="0">=</tspan></text>
<text
               id="text76"
               style="font-variant:normal;font-weight:normal;font-size:11.95500088px;font-family:CMR12;-inkscape-font-specification:CMR12;writing-mode:lr-tb;fill:#231f20;fill-opacity:1;fill-rule:nonzero;stroke:none"
               transform="matrix(1,0,0,-1,21.883629,82.501701)"><tspan
                 id="tspan74"
                 y="0"
                 x="0">1</tspan></text>
<text
               id="text80"
               style="font-variant:normal;font-weight:normal;font-size:11.95500088px;font-family:CMMI12;-inkscape-font-specification:CMMI12;writing-mode:lr-tb;fill:#231f20;fill-opacity:1;fill-rule:nonzero;stroke:none"
               transform="matrix(1,0,0,-1,87.040771,3.0021415)"><tspan
                 id="tspan78"
                 y="0"
                 x="0">x</tspan></text>
<text
               id="text84"
               style="font-variant:normal;font-weight:normal;font-size:11.95500088px;font-family:CMR12;-inkscape-font-specification:CMR12;writing-mode:lr-tb;fill:#231f20;fill-opacity:1;fill-rule:nonzero;stroke:none"
               transform="matrix(1,0,0,-1,97.013634,3.0021415)"><tspan
                 id="tspan82"
                 y="0"
                 x="0">=</tspan></text>
<text
               id="text88"
               style="font-variant:normal;font-weight:normal;font-size:11.95500088px;font-family:CMR12;-inkscape-font-specification:CMR12;writing-mode:lr-tb;fill:#231f20;fill-opacity:1;fill-rule:nonzero;stroke:none"
               transform="matrix(1,0,0,-1,109.43847,3.0021415)"><tspan
                 id="tspan86"
                 y="0"
                 x="0">1</tspan></text>
<text
               id="text92"
               style="font-variant:normal;font-weight:normal;font-size:11.95500088px;font-family:CMMI12;-inkscape-font-specification:CMMI12;writing-mode:lr-tb;fill:#231f20;fill-opacity:1;fill-rule:nonzero;stroke:none"
               transform="matrix(1,0,0,-1,142.09595,14.001938)"><tspan
                 id="tspan90"
                 y="0"
                 x="0">x</tspan></text>
<text
               id="text96"
               style="font-variant:normal;font-weight:normal;font-size:11.95500088px;font-family:CMMI12;-inkscape-font-specification:CMMI12;writing-mode:lr-tb;fill:#231f20;fill-opacity:1;fill-rule:nonzero;stroke:none"
               transform="matrix(1,0,0,-1,34.650375,104.50249)"><tspan
                 id="tspan94"
                 y="0"
                 x="0">y</tspan></text>
<path
               id="path98"
               style="fill:none;stroke:#231f20;stroke-width:1;stroke-linecap:butt;stroke-linejoin:miter;stroke-miterlimit:4;stroke-dasharray:none;stroke-opacity:1"
               d="m 201.14401,15.397 70.75,70.750003 h -71.25" /><path
               id="path100"
               style="fill:#ffffff;fill-opacity:1;fill-rule:nonzero;stroke:none"
               d="m 187.14401,14.897 h 113.5" /><path
               id="path102"
               style="fill:#ffffff;fill-opacity:1;fill-rule:nonzero;stroke:none"
               d="m 303.005,15.922001 c -1.65197,0.499 -2.72799,0.959 -4.05398,1.490999 v -5.044999 c 0.47501,0.226 2.40201,0.993 4.05398,1.491999 1.76902,0.535 3.375,0.901001 4.41498,1.031001 -1.03998,0.130999 -2.64596,0.496 -4.41498,1.031" /><path
               id="path104"
               style="fill:none;stroke:#231f20;stroke-width:1;stroke-linecap:butt;stroke-linejoin:miter;stroke-miterlimit:4;stroke-dasharray:none;stroke-opacity:1"
               d="m 187.14401,14.897 h 113.5" /><path
               id="path106"
               style="fill:#231f20;fill-opacity:1;fill-rule:nonzero;stroke:none"
               d="m 303.005,15.922001 c -1.65197,0.499 -2.72799,0.959 -4.05398,1.490999 v -5.044999 c 0.47501,0.226 2.40201,0.993 4.05398,1.491999 1.76902,0.535 3.375,0.901001 4.41498,1.031001 -1.03998,0.130999 -2.64596,0.496 -4.41498,1.031" /><path
               id="path108"
               style="fill:#231f20;fill-opacity:1;fill-rule:nonzero;stroke:none"
               d="m 303.005,15.922001 c -1.65197,0.499 -2.72799,0.959 -4.05398,1.490999 v -5.044999 c 0.47501,0.226 2.40201,0.993 4.05398,1.491999 1.76902,0.535 3.375,0.901001 4.41498,1.031001 -1.03998,0.130999 -2.64596,0.496 -4.41498,1.031" /><path
               id="path110"
               style="fill:#ffffff;fill-opacity:1;fill-rule:nonzero;stroke:none"
               d="M 201.14401,1.8960001 V 103.897" /></g><g
             id="g112"><g
               clip-path="url(#clipPath118)"
               id="g114"><path
                 id="path120"
                 style="fill:none;stroke:#231f20;stroke-width:1;stroke-linecap:butt;stroke-linejoin:miter;stroke-miterlimit:4;stroke-dasharray:none;stroke-opacity:1"
                 d="M 201.14401,1.8960001 V 103.897" /></g></g><g
             id="g122"><path
               id="path124"
               style="fill:#231f20;fill-opacity:1;fill-rule:nonzero;stroke:none"
               d="m 200.11801,106.259 c -0.49901,-1.654 -0.959,-2.729 -1.491,-4.055 h 5.044 c -0.225,0.47501 -0.99199,2.401 -1.49102,4.055 -0.53398,1.76901 -0.90098,3.374 -1.03099,4.414 -0.12999,-1.04 -0.49598,-2.64499 -1.03099,-4.414" /><path
               id="path126"
               style="fill:none;stroke:#231f20;stroke-width:0.60000002;stroke-linecap:butt;stroke-linejoin:miter;stroke-miterlimit:4;stroke-dasharray:3, 3, 3, 3, 3, 3;stroke-dashoffset:0;stroke-opacity:1"
               d="M 273.14401,86.397003 V 15.397" /><text
               id="text130"
               style="font-variant:normal;font-weight:normal;font-size:11.95500088px;font-family:CMMI12;-inkscape-font-specification:CMMI12;writing-mode:lr-tb;fill:#231f20;fill-opacity:1;fill-rule:nonzero;stroke:none"
               transform="matrix(1,0,0,-1,170.5,83.001701)"><tspan
                 id="tspan128"
                 y="0"
                 x="0">y</tspan></text>
<text
               id="text134"
               style="font-variant:normal;font-weight:normal;font-size:11.95500088px;font-family:CMR12;-inkscape-font-specification:CMR12;writing-mode:lr-tb;fill:#231f20;fill-opacity:1;fill-rule:nonzero;stroke:none"
               transform="matrix(1,0,0,-1,179.9576,83.001701)"><tspan
                 id="tspan132"
                 y="0"
                 x="0">=</tspan></text>
<text
               id="text138"
               style="font-variant:normal;font-weight:normal;font-size:11.95500088px;font-family:CMR12;-inkscape-font-specification:CMR12;writing-mode:lr-tb;fill:#231f20;fill-opacity:1;fill-rule:nonzero;stroke:none"
               transform="matrix(1,0,0,-1,192.38243,83.001701)"><tspan
                 id="tspan136"
                 y="0"
                 x="0">1</tspan></text>
<text
               id="text142"
               style="font-variant:normal;font-weight:normal;font-size:11.95500088px;font-family:CMMI12;-inkscape-font-specification:CMMI12;writing-mode:lr-tb;fill:#231f20;fill-opacity:1;fill-rule:nonzero;stroke:none"
               transform="matrix(1,0,0,-1,257.53958,3.5021415)"><tspan
                 id="tspan140"
                 y="0"
                 x="0">x</tspan></text>
<text
               id="text146"
               style="font-variant:normal;font-weight:normal;font-size:11.95500088px;font-family:CMR12;-inkscape-font-specification:CMR12;writing-mode:lr-tb;fill:#231f20;fill-opacity:1;fill-rule:nonzero;stroke:none"
               transform="matrix(1,0,0,-1,267.51245,3.5021415)"><tspan
                 id="tspan144"
                 y="0"
                 x="0">=</tspan></text>
<text
               id="text150"
               style="font-variant:normal;font-weight:normal;font-size:11.95500088px;font-family:CMR12;-inkscape-font-specification:CMR12;writing-mode:lr-tb;fill:#231f20;fill-opacity:1;fill-rule:nonzero;stroke:none"
               transform="matrix(1,0,0,-1,279.93729,3.5021415)"><tspan
                 id="tspan148"
                 y="0"
                 x="0">1</tspan></text>
<text
               id="text154"
               style="font-variant:normal;font-weight:normal;font-size:11.95500088px;font-family:CMMI12;-inkscape-font-specification:CMMI12;writing-mode:lr-tb;fill:#231f20;fill-opacity:1;fill-rule:nonzero;stroke:none"
               transform="matrix(1,0,0,-1,312.59476,14.501938)"><tspan
                 id="tspan152"
                 y="0"
                 x="0">x</tspan></text>
<text
               id="text158"
               style="font-variant:normal;font-weight:normal;font-size:11.95500088px;font-family:CMMI12;-inkscape-font-specification:CMMI12;writing-mode:lr-tb;fill:#231f20;fill-opacity:1;fill-rule:nonzero;stroke:none"
               transform="matrix(1,0,0,-1,205.14919,105.00249)"><tspan
                 id="tspan156"
                 y="0"
                 x="0">y</tspan></text>
</g></g></g></g></g></svg>