<?xml version="1.0" encoding="UTF-8" standalone="no"?>
<svg
   xmlns:dc="http://purl.org/dc/elements/1.1/"
   xmlns:cc="http://creativecommons.org/ns#"
   xmlns:rdf="http://www.w3.org/1999/02/22-rdf-syntax-ns#"
   xmlns:svg="http://www.w3.org/2000/svg"
   xmlns="http://www.w3.org/2000/svg"
   viewBox="0 0 261.33334 196"
   height="196"
   width="261.33334"
   xml:space="preserve"
   id="svg2"
   version="1.1"><metadata
     id="metadata8"><rdf:RDF><cc:Work
         rdf:about=""><dc:format>image/svg+xml</dc:format><dc:type
           rdf:resource="http://purl.org/dc/dcmitype/StillImage" /></cc:Work></rdf:RDF></metadata><defs
     id="defs6"><clipPath
       id="clipPath24"
       clipPathUnits="userSpaceOnUse"><path
         id="path22"
         d="M 0,0 H 196 V 147 H 0 Z" /></clipPath></defs><g
     transform="matrix(1.3333333,0,0,-1.3333333,0,196)"
     id="g10"><g
       id="g12" /><g
       id="g14" /><g
       id="g16"><g
         id="g18"><g
           clip-path="url(#clipPath24)"
           id="g20"><g
             id="g26" /><g
             id="g28"><path
               id="path30"
               style="fill:#808080;fill-opacity:1;fill-rule:nonzero;stroke:#808080;stroke-width:1;stroke-linecap:butt;stroke-linejoin:miter;stroke-miterlimit:4;stroke-dasharray:none;stroke-opacity:1"
               d="M 18.833,13.667001 55.333004,39 92.5,13.333 Z" /><path
               id="path32"
               style="fill:#bfbfbf;fill-opacity:1;fill-rule:nonzero;stroke:#bfbfbf;stroke-width:1;stroke-linecap:butt;stroke-linejoin:miter;stroke-miterlimit:4;stroke-dasharray:none;stroke-opacity:1"
               d="m 56.167004,112.08301 5.416,-0.416 h 2.084 l 3.082996,-0.5 4.167,-0.584 3.166,-0.666 3.75,-1.16701 1.75,-0.33299 2.25,-1 2.917,-1.16701 3.083008,-1.5 1.833999,-1 2,-1.33299 1.666001,-1.334 L 90.25,101.75 l -3.916992,0.16701 -4.666001,-0.084 L 76,101.5 70.417,100.83301 63.167004,99.5 57.333004,98.167007 49.5,95.833008 42.917004,93.5 36.167,90.5 32.25,88.417007 27.667002,86 l -1.584,-0.832993 z" /><path
               id="path34"
               style="fill:none;stroke:#000000;stroke-width:1;stroke-linecap:butt;stroke-linejoin:miter;stroke-miterlimit:4;stroke-dasharray:none;stroke-opacity:1"
               d="M 0,13 H 149" /><path
               id="path36"
               style="fill:#000000;fill-opacity:1;fill-rule:nonzero;stroke:none"
               d="m 147.98,13 -2.19001,3.603001 0.12302,0.082 5.87399,-2.334 c 2.04701,-0.45 4.09401,-0.901001 6.14101,-1.351001 -2.047,-0.45 -4.094,-0.900999 -6.14101,-1.351 l -5.87399,-2.3339995 -0.12302,0.062 L 147.98,13" /><path
               id="path38"
               style="fill:none;stroke:#000000;stroke-width:1;stroke-linecap:butt;stroke-linejoin:miter;stroke-miterlimit:4;stroke-dasharray:none;stroke-opacity:1"
               d="m 7,5 95.67101,67.349998" /><path
               id="path40"
               style="fill:#000000;fill-opacity:1;fill-rule:nonzero;stroke:none"
               d="m 101.83701,71.763 -3.865002,1.685006 0.05399,0.137001 6.147002,1.473999 c 1.933,0.809997 3.866,1.619995 5.79901,2.43 -1.415,-1.547005 -2.829,-3.093002 -4.24401,-4.639999 l -3.45999,-5.290001 -0.13601,-0.02 -0.29499,4.223999" /><text
               id="text44"
               style="font-variant:normal;font-weight:normal;font-size:11.95500088px;font-family:CMMI12;-inkscape-font-specification:CMMI12;writing-mode:lr-tb;fill:#231f20;fill-opacity:1;fill-rule:nonzero;stroke:none"
               transform="matrix(1,0,0,-1,156.65089,3.6675)"><tspan
                 id="tspan42"
                 y="0"
                 x="0">x</tspan></text>
<text
               id="text48"
               style="font-variant:normal;font-weight:normal;font-size:11.95500088px;font-family:CMMI12;-inkscape-font-specification:CMMI12;writing-mode:lr-tb;fill:#231f20;fill-opacity:1;fill-rule:nonzero;stroke:none"
               transform="matrix(1,0,0,-1,113.44074,73.334068)"><tspan
                 id="tspan46"
                 y="0"
                 x="0">y</tspan></text>
<path
               id="path50"
               style="fill:none;stroke:#000000;stroke-width:1;stroke-linecap:butt;stroke-linejoin:miter;stroke-miterlimit:4;stroke-dasharray:none;stroke-opacity:1"
               d="M 18.667002,1.6670001 V 130.33301" /><path
               id="path52"
               style="fill:#231f20;fill-opacity:1;fill-rule:nonzero;stroke:none"
               d="m 18.667002,129.313 -3.603001,-2.18999 -0.082,0.123 2.334,5.87499 c 0.450001,2.047 0.900002,4.09401 1.351002,6.14101 0.449999,-2.047 0.899999,-4.09401 1.351,-6.14101 l 2.333,-5.87499 -0.061,-0.123 -3.622997,2.18999" /><path
               id="path54"
               style="fill:none;stroke:#000000;stroke-width:1;stroke-linecap:butt;stroke-linejoin:miter;stroke-miterlimit:4;stroke-dasharray:none;stroke-opacity:1"
               d="M 73.884003,63.389999 C 65.604004,70.438004 51.247002,75.099007 34.923,75.099007 c -8.991998,0 -17.386999,-1.414002 -24.498,-3.862 l 54.473003,47.404003 c 7.111,2.44899 15.506004,3.863 24.498001,3.863 16.323996,0 30.680996,-4.66101 38.959996,-11.709 M 73.634003,63.623005 c 8.203003,-5.138001 19.854004,-8.347004 32.776997,-8.347004 13.92601,0 25.04701,6.322002 34.622,9.577003 1.967,0.668 54.47301,47.403996 54.47301,47.403996 -8.24901,-5.85099 -20.697,-9.577 -34.62201,-9.577 -12.92401,0 -24.574,3.21 -32.778,8.34801" /><path
               id="path56"
               style="fill:none;stroke:#000000;stroke-width:1;stroke-linecap:butt;stroke-linejoin:miter;stroke-miterlimit:4;stroke-dasharray:3, 3, 3, 3, 3;stroke-dashoffset:0;stroke-opacity:1"
               d="M 55.687004,112 V 38.646004" /><path
               id="path58"
               style="fill:none;stroke:#000000;stroke-width:1;stroke-linecap:butt;stroke-linejoin:miter;stroke-miterlimit:4;stroke-dasharray:none;stroke-opacity:1"
               d="M 55.687004,38.646004 93,12.583" /><path
               id="path60"
               style="fill:none;stroke:#000000;stroke-width:1;stroke-linecap:butt;stroke-linejoin:miter;stroke-miterlimit:4;stroke-dasharray:3, 3, 3, 3, 3;stroke-dashoffset:0;stroke-opacity:1"
               d="M 93,12.583 V 102" /><path
               id="path62"
               style="fill:none;stroke:#000000;stroke-width:1;stroke-linecap:butt;stroke-linejoin:miter;stroke-miterlimit:4;stroke-dasharray:none;stroke-opacity:1"
               d="M 92.659004,101.494 C 81.851006,102.45801 69.040001,101.262 55.801003,97.605003 40.524002,93.385002 27.418001,86.644005 18.323,79.023003 M 92.942001,101.408 c -8.473999,6.283 -21.132995,10.27101 -35.274997,10.27101" /><text
               id="text66"
               style="font-variant:normal;font-weight:normal;font-size:11.95500088px;font-family:CMMI12;-inkscape-font-specification:CMMI12;writing-mode:lr-tb;fill:#231f20;fill-opacity:1;fill-rule:nonzero;stroke:none"
               transform="matrix(1,0,0,-1,23.1322,134.48779)"><tspan
                 id="tspan64"
                 y="0"
                 x="0">f</tspan></text>
<text
               id="text70"
               style="font-variant:normal;font-weight:normal;font-size:11.95500088px;font-family:CMR12;-inkscape-font-specification:CMR12;writing-mode:lr-tb;fill:#231f20;fill-opacity:1;fill-rule:nonzero;stroke:none"
               transform="matrix(1,0,0,-1,30.178478,134.48779)"><tspan
                 id="tspan68"
                 y="0"
                 x="0">(</tspan></text>
<text
               id="text74"
               style="font-variant:normal;font-weight:normal;font-size:11.95500088px;font-family:CMMI12;-inkscape-font-specification:CMMI12;writing-mode:lr-tb;fill:#231f20;fill-opacity:1;fill-rule:nonzero;stroke:none"
               transform="matrix(1,0,0,-1,34.730942,134.48779)"><tspan
                 id="tspan72"
                 y="0"
                 x="0 6.6469808">x,</tspan></text>
<text
               id="text78"
               style="font-variant:normal;font-weight:normal;font-size:11.95500088px;font-family:CMMI12;-inkscape-font-specification:CMMI12;writing-mode:lr-tb;fill:#231f20;fill-opacity:1;fill-rule:nonzero;stroke:none"
               transform="matrix(1,0,0,-1,46.622581,134.48779)"><tspan
                 id="tspan76"
                 y="0"
                 x="0">y</tspan></text>
<text
               id="text82"
               style="font-variant:normal;font-weight:normal;font-size:11.95500088px;font-family:CMR12;-inkscape-font-specification:CMR12;writing-mode:lr-tb;fill:#231f20;fill-opacity:1;fill-rule:nonzero;stroke:none"
               transform="matrix(1,0,0,-1,52.763866,134.48779)"><tspan
                 id="tspan80"
                 y="0"
                 x="0">)</tspan></text>
</g></g></g></g></g></svg>