<?xml version="1.0" encoding="UTF-8" standalone="no"?>
<svg
   xmlns:dc="http://purl.org/dc/elements/1.1/"
   xmlns:cc="http://creativecommons.org/ns#"
   xmlns:rdf="http://www.w3.org/1999/02/22-rdf-syntax-ns#"
   xmlns:svg="http://www.w3.org/2000/svg"
   xmlns="http://www.w3.org/2000/svg"
   viewBox="0 0 185.33333 146.66667"
   height="146.66667"
   width="185.33333"
   xml:space="preserve"
   id="svg2"
   version="1.1"><metadata
     id="metadata8"><rdf:RDF><cc:Work
         rdf:about=""><dc:format>image/svg+xml</dc:format><dc:type
           rdf:resource="http://purl.org/dc/dcmitype/StillImage" /></cc:Work></rdf:RDF></metadata><defs
     id="defs6"><clipPath
       id="clipPath24"
       clipPathUnits="userSpaceOnUse"><path
         id="path22"
         d="M 0,0 H 139 V 110 H 0 Z" /></clipPath></defs><g
     transform="matrix(1.3333333,0,0,-1.3333333,0,146.66667)"
     id="g10"><g
       id="g12" /><g
       id="g14" /><g
       id="g16"><g
         id="g18"><g
           clip-path="url(#clipPath24)"
           id="g20"><g
             id="g26" /><g
             id="g28"><path
               id="path30"
               style="fill:#bfbfbf;fill-opacity:1;fill-rule:nonzero;stroke:#bfbfbf;stroke-width:0.5;stroke-linecap:butt;stroke-linejoin:round;stroke-miterlimit:4;stroke-dasharray:none;stroke-opacity:1"
               d="m 11.626,15.147 3.733001,0.666001 5.950998,1.800999 5.483002,2.566 4.933001,2.75 5.950001,4.284001 6.317001,5.365997 4.799999,4.800003 4.799999,5.599999 5.200001,6.533 4.916996,7.034001 4.466004,6.766003 5.150001,8.066993 3.766998,6.967003 3.432999,6.233002 V 15.114 Z" /><path
               id="path32"
               style="fill:none;stroke:#000000;stroke-width:1;stroke-linecap:butt;stroke-linejoin:miter;stroke-miterlimit:4;stroke-dasharray:none;stroke-opacity:1"
               d="M 0.79300004,14.847001 H 119.993" /><path
               id="path34"
               style="fill:#000000;fill-opacity:1;fill-rule:nonzero;stroke:none"
               d="m 119.177,14.847001 -1.752,2.881999 0.098,0.066 4.70001,-1.867 c 1.63699,-0.361 3.275,-0.720999 4.913,-1.080999 -1.638,-0.360001 -3.27601,-0.721001 -4.913,-1.081 L 117.523,11.899 l -0.098,0.049 1.752,2.899" /><path
               id="path36"
               style="fill:none;stroke:#000000;stroke-width:1;stroke-linecap:butt;stroke-linejoin:miter;stroke-miterlimit:4;stroke-dasharray:none;stroke-opacity:1"
               d="M 10.943001,7.8640003 V 101.464" /><path
               id="path38"
               style="fill:#000000;fill-opacity:1;fill-rule:nonzero;stroke:none"
               d="m 10.943001,100.648 -2.8820002,-1.752996 -0.066,0.099 1.8670001,4.699006 C 10.223001,105.331 10.583,106.969 10.943001,108.606 c 0.359999,-1.637 0.721,-3.275 1.08,-4.91299 l 1.868,-4.699007 -0.05,-0.099 -2.898,1.752997" /><text
               id="text42"
               style="font-variant:normal;font-weight:normal;font-size:11.95500088px;font-family:CMR12;-inkscape-font-specification:CMR12;writing-mode:lr-tb;fill:#231f20;fill-opacity:1;fill-rule:nonzero;stroke:none"
               transform="matrix(1,0,0,-1,78.327095,3.3340001)"><tspan
                 id="tspan40"
                 y="0"
                 x="0">1</tspan></text>
<text
               id="text46"
               style="font-variant:normal;font-weight:normal;font-size:11.95500088px;font-family:CMMI12;-inkscape-font-specification:CMMI12;writing-mode:lr-tb;fill:#231f20;fill-opacity:1;fill-rule:nonzero;stroke:none"
               transform="matrix(1,0,0,-1,131.65118,8.0012321)"><tspan
                 id="tspan44"
                 y="0"
                 x="0">x</tspan></text>
<text
               id="text50"
               style="font-variant:normal;font-weight:normal;font-size:11.95500088px;font-family:CMMI12;-inkscape-font-specification:CMMI12;writing-mode:lr-tb;fill:#231f20;fill-opacity:1;fill-rule:nonzero;stroke:none"
               transform="matrix(1,0,0,-1,16.774393,100.33448)"><tspan
                 id="tspan48"
                 y="0"
                 x="0">y</tspan></text>
<text
               id="text54"
               style="font-variant:normal;font-weight:normal;font-size:11.95500088px;font-family:CMR12;-inkscape-font-specification:CMR12;writing-mode:lr-tb;fill:#231f20;fill-opacity:1;fill-rule:nonzero;stroke:none"
               transform="matrix(1,0,0,-1,2.2383082,80.380386)"><tspan
                 id="tspan52"
                 y="0"
                 x="0">1</tspan></text>
<path
               id="path56"
               style="fill:none;stroke:#000000;stroke-width:0.5;stroke-linecap:butt;stroke-linejoin:round;stroke-miterlimit:10;stroke-dasharray:none;stroke-opacity:1"
               d="m 7.1760001,14.797001 0.7339997,0.033 0.75,0.034 0.75,0.05 0.7330012,0.067 0.75,0.066 0.732999,0.1 0.75,0.100001 0.75,0.116999 0.733,0.133001 0.750001,0.149999 0.75,0.166001 0.733999,0.168 1.5,0.398998 0.733,0.217001 0.75,0.233 0.733999,0.25 0.75,0.267 0.75,0.267 0.733002,0.283001 0.75,0.3 0.75,0.332998 0.733,0.317001 0.75,0.350001 0.733999,0.366001 0.75,0.366998 0.75,0.383002 0.733002,0.400999 0.75,0.415998 0.75,0.433003 0.733,0.451 0.75,0.449999 0.75,0.465999 0.733997,0.5 0.75,0.5 0.733002,0.5 0.75,0.534001 0.75,0.550001 0.733002,0.549999 0.75,0.565998 0.75,0.584002 0.733997,0.6 0.75,0.615999 0.75,0.634001 0.733002,0.633 0.75,0.650001 0.733001,0.666 0.75,0.684 0.75,0.700001 0.732998,0.716 0.75,0.716995 0.75,0.75 1.484001,1.517002 0.733002,0.783001 1.5,1.599999 0.733994,0.833004 0.75,0.833999 0.75,0.849999 0.733005,0.867 0.75,0.883 0.75,0.900001 0.732998,0.899998 0.75,0.917 0.733997,0.95 0.75,0.949002 0.75,0.966995 0.733006,0.967003 1.5,2 0.732998,1.032997 0.75,1.033005 0.75,1.050998 0.733997,1.050004 0.75,1.082996 0.733002,1.082996 1.5,2.234005 0.733002,1.133 0.75,1.150001 0.75,1.166001 0.733993,1.166992 0.75,1.200004 0.733009,1.199997 0.75,1.217003 0.75,1.233002 0.733002,1.25 0.75,1.25 0.75,1.284004 0.732994,1.282997 0.75,1.300003 0.75,1.315994 0.734001,1.334 0.75,1.350006 0.733002,1.349999 1.5,2.765999 0.733994,1.401001 M 10.943001,84.664002 H 80.826004 V 14.780999 H 10.943001 Z" /><text
               id="text60"
               style="font-variant:normal;font-weight:normal;font-size:11.95500088px;font-family:CMMI12;-inkscape-font-specification:CMMI12;writing-mode:lr-tb;fill:#231f20;fill-opacity:1;fill-rule:nonzero;stroke:none"
               transform="matrix(1,0,0,-1,18.8179,43.154499)"><tspan
                 id="tspan58"
                 y="0"
                 x="0">y</tspan></text>
<text
               id="text64"
               style="font-variant:normal;font-weight:normal;font-size:11.95500088px;font-family:CMR12;-inkscape-font-specification:CMR12;writing-mode:lr-tb;fill:#231f20;fill-opacity:1;fill-rule:nonzero;stroke:none"
               transform="matrix(1,0,0,-1,28.274305,43.154499)"><tspan
                 id="tspan62"
                 y="0"
                 x="0">=</tspan></text>
<text
               id="text68"
               style="font-variant:normal;font-weight:normal;font-size:11.95500088px;font-family:CMMI12;-inkscape-font-specification:CMMI12;writing-mode:lr-tb;fill:#231f20;fill-opacity:1;fill-rule:nonzero;stroke:none"
               transform="matrix(1,0,0,-1,40.700333,43.154499)"><tspan
                 id="tspan66"
                 y="0"
                 x="0">x</tspan></text>
<text
               id="text72"
               style="font-variant:normal;font-weight:normal;font-size:7.96999979px;font-family:CMR8;-inkscape-font-specification:CMR8;writing-mode:lr-tb;fill:#231f20;fill-opacity:1;fill-rule:nonzero;stroke:none"
               transform="matrix(1,0,0,-1,47.352497,48.090599)"><tspan
                 id="tspan70"
                 y="0"
                 x="0">2</tspan></text>
</g></g></g></g></g></svg>