<?xml version="1.0" encoding="UTF-8" standalone="no"?>
<svg
   xmlns:dc="http://purl.org/dc/elements/1.1/"
   xmlns:cc="http://creativecommons.org/ns#"
   xmlns:rdf="http://www.w3.org/1999/02/22-rdf-syntax-ns#"
   xmlns:svg="http://www.w3.org/2000/svg"
   xmlns="http://www.w3.org/2000/svg"
   viewBox="0 0 285.33334 172"
   height="172"
   width="285.33334"
   xml:space="preserve"
   id="svg2"
   version="1.1"><metadata
     id="metadata8"><rdf:RDF><cc:Work
         rdf:about=""><dc:format>image/svg+xml</dc:format><dc:type
           rdf:resource="http://purl.org/dc/dcmitype/StillImage" /></cc:Work></rdf:RDF></metadata><defs
     id="defs6"><clipPath
       id="clipPath24"
       clipPathUnits="userSpaceOnUse"><path
         id="path22"
         d="M 0,0 H 214 V 129 H 0 Z" /></clipPath><clipPath
       id="clipPath106"
       clipPathUnits="userSpaceOnUse"><path
         id="path104"
         d="M 0.06,0 H 213.99901 V 128.01401 H 0.06 Z" /></clipPath></defs><g
     transform="matrix(1.3333333,0,0,-1.3333333,0,172)"
     id="g10"><g
       id="g12" /><g
       id="g14" /><g
       id="g16"><g
         id="g18"><g
           clip-path="url(#clipPath24)"
           id="g20"><g
             id="g26" /><g
             id="g28"><path
               id="path30"
               style="fill:none;stroke:#231f20;stroke-width:1.10000002;stroke-linecap:butt;stroke-linejoin:round;stroke-miterlimit:4;stroke-dasharray:none;stroke-opacity:1"
               d="m 50.733002,11.192 h 2.506 m -1.252998,1.25 V 9.9410009 M 89.573006,11.192 h 2.505996 m -1.252998,1.25 V 9.9410009 M 128.41301,11.192 h 2.506 m -1.25301,1.25 V 9.9410009 M 167.25301,11.192 h 2.50599 m -1.25299,1.25 V 9.9410009 M 11.928,11.426001 h 2.506001 m -1.253,1.25 V 10.175 M 11.928,54.326004 h 2.506001 m -1.253,1.25 v -2.5 M 11.928,97.226006 h 2.506001 m -1.253,1.250999 V 95.975006 M 9.283,11.192 h 186.40401" /><path
               id="path32"
               style="fill:#231f20;fill-opacity:1;fill-rule:nonzero;stroke:none"
               d="m 194.90102,11.192 -1.68601,2.774001 0.094,0.063 4.524,-1.797 c 1.576,-0.345999 3.15201,-0.694 4.729,-1.04 -1.57699,-0.347 -3.153,-0.694 -4.729,-1.04 l -4.524,-1.7969995 -0.094,0.047 1.68601,2.7899995" /><path
               id="path34"
               style="fill:none;stroke:#231f20;stroke-width:1.10000002;stroke-linecap:butt;stroke-linejoin:round;stroke-miterlimit:4;stroke-dasharray:none;stroke-opacity:1"
               d="M 13.181001,11.772 V 114.38601" /><path
               id="path36"
               style="fill:#231f20;fill-opacity:1;fill-rule:nonzero;stroke:none"
               d="m 13.181001,113.60101 -2.774,-1.687 -0.063,0.095 1.797,4.524 c 0.347,1.57601 0.693,3.15201 1.04,4.72801 0.347,-1.576 0.694,-3.152 1.041,-4.72801 l 1.797,-4.524 -0.048,-0.095 -2.79,1.687" /><path
               id="path38"
               style="fill:none;stroke:#231f20;stroke-width:1.10000002;stroke-linecap:butt;stroke-linejoin:round;stroke-miterlimit:4;stroke-dasharray:none;stroke-opacity:1"
               d="m 117.9,87.388 0.30601,0.472001 0.306,0.445007 0.334,0.471992 0.307,0.445008 0.612,0.944999 0.307,0.444001 0.305,0.472999 0.334,0.472 0.307,0.472001 0.306,0.472999 0.30699,0.472 0.306,0.473 0.307,0.472 0.334,0.471992 0.305,0.473008 0.30699,0.472999 0.30601,0.5 0.30601,0.472 0.307,0.471993 0.306,0.501007 0.334,0.472 0.306,0.500999 0.306,0.471001 0.306,0.501 0.307,0.5 0.307,0.473004 0.334,0.5 0.30499,0.5 0.30701,0.50099 0.30599,0.5 0.306,0.5 0.30701,0.5 0.33399,0.5 0.30601,0.5 0.306,0.501 0.306,0.5 0.30699,0.5 0.306,0.528 0.30701,0.5 0.334,0.5 0.306,0.529 0.306,0.5 0.30598,0.528 0.30602,0.527 0.30699,0.501 0.33401,0.528 0.306,0.528 0.306,0.5 0.30699,0.528 0.612,1.056 0.334,0.528 0.30701,0.52799 0.612,1.05601 0.306,0.55601 0.30699,0.52798 0.306,0.52802 0.334,0.528 0.306,0.556 0.30701,0.52799 0.306,0.55601 0.306,0.527 0.306,0.55699 0.334,0.55501 0.307,0.529 0.306,0.555 m -51.898007,-72.558008 0.333999,0.305 0.306,0.333 0.306,0.306 0.612999,0.667 0.306,0.333 0.335006,0.333999 0.305992,0.306 0.306008,0.333 0.306,0.334 0.306999,0.334 0.305999,0.333 0.334,0.360996 0.306,0.333004 0.306999,0.334 0.305,0.334003 0.307,0.359997 0.305992,0.334003 0.306007,0.334 0.334999,0.360996 0.306,0.334004 0.306,0.361 0.305999,0.361 0.307007,0.333 0.306,0.362 0.334,0.361 0.305999,0.361 0.307,0.333999 0.305,0.361 0.306999,0.361 0.306,0.360997 0.334,0.361004 0.306999,0.361999 0.306,0.389 0.306999,0.361 0.305,0.362 0.306999,0.36 0.306,0.39 0.334,0.361 0.305999,0.389 0.307,0.361 0.305998,0.389 0.30701,0.361003 0.306,0.39 0.334,0.389 0.306,0.389 0.306,0.361 0.307,0.389 0.306,0.389 0.30599,0.389999 0.33401,0.388001 0.30699,0.389999 0.306,0.388 0.306,0.389 0.306,0.417 0.307,0.389 0.334,0.389 0.306,0.389 0.306,0.417 0.307,0.389999 0.30601,0.416001 0.306,0.389999 0.307,0.416 0.334,0.417 0.306,0.389 0.61199,0.832993 0.30601,0.417007 0.307,0.417 0.334,0.417 0.306,0.417 0.30699,0.416999 0.612,0.833001 0.306,0.416999 0.334,0.417 0.307,0.445 0.306,0.417 0.306,0.417 0.30701,0.444 0.305,0.417 0.30699,0.444999 0.33401,0.417 0.30599,0.445 0.30701,0.444 0.306,0.417 0.306,0.444 0.306,0.445 0.334,0.444999 0.30699,0.444001 0.306,0.444999 0.306,0.445 0.307,0.444 0.305,0.445 0.334,0.445 0.307,0.444 0.307,0.472 0.30601,0.445 L 117.9,87.388" /><path
               id="path40"
               style="fill:none;stroke:#231f20;stroke-width:1.10000002;stroke-linecap:butt;stroke-linejoin:round;stroke-miterlimit:4;stroke-dasharray:none;stroke-opacity:1"
               d="m 56.396004,24.055 0.305999,0.194001 0.307,0.194999 0.305,0.167002 0.306999,0.193998 0.334,0.194001 0.306999,0.196001 0.612003,0.388 0.307,0.195 0.305,0.194 0.333996,0.195 0.307003,0.194999 0.306999,0.194001 0.305996,0.222999 0.306003,0.194 0.307003,0.194001 0.305001,0.222997 0.333999,0.194003 0.307,0.222 0.305999,0.222999 0.306,0.194 0.612,0.445 0.333999,0.195 0.306999,0.222999 0.306,0.221001 0.306999,0.222998 0.306,0.222002 0.306,0.222 0.335007,0.223 0.304992,0.222 0.307007,0.222 0.306,0.25 0.306,0.223001 0.306999,0.222 0.334,0.25 0.305999,0.221999 0.306,0.223001 0.306999,0.25 0.306,0.25 0.305992,0.223 0.307007,0.25 0.334,0.25 0.305,0.222 0.306999,0.25 0.612,0.5 0.306999,0.25 0.334007,0.25 0.306,0.25 0.918999,0.750999 0.305999,0.278 0.334,0.25 0.306999,0.25 0.306,0.278 0.305992,0.25 0.306007,0.278 0.306,0.25 0.306999,0.278 0.334,0.278 0.306999,0.25 0.305001,0.277999 0.306999,0.278 0.305999,0.278 0.306,0.277001 0.334,0.279003 0.307007,0.276996 0.305999,0.278 0.306,0.278 0.306999,0.278004 0.305993,0.278 0.334007,0.278 0.306,0.304996 0.305999,0.279003 0.307,0.277001 0.305999,0.305999 0.306,0.278 0.306,0.306 0.333999,0.304997 0.307,0.278003 0.305999,0.306 0.306,0.305 0.306999,0.278 0.306008,0.306 0.333999,0.306 0.306,0.305 0.306,0.305996 0.612999,0.611004 0.306,0.306 0.333999,0.333999 0.306999,0.306 0.306,0.305 0.306,0.306 0.306,0.333 0.306999,0.306 0.306,0.334 m -61.503002,-36.433001 0.306001,0.055 0.306,0.056 0.334,0.028 0.306999,0.055 0.305,0.056 0.307001,0.055 0.306,0.056 0.306,0.055 0.334999,0.084 0.306,0.056 0.307001,0.055 0.305,0.055 0.306999,0.084 0.306,0.056 0.334,0.055 0.306001,0.084 0.306999,0.055 0.306,0.083 0.306,0.084 0.306,0.056 0.306999,0.083 0.334,0.083 0.306003,0.084 0.306999,0.083 0.305001,0.083 0.306999,0.084 0.306,0.083 0.333999,0.083 0.306,0.084 0.306999,0.083 0.306,0.084 0.306,0.110001 0.307003,0.084 0.333999,0.083 0.306,0.111999 0.306,0.083 0.306999,0.111001 0.306,0.084 0.306,0.11 0.305999,0.111999 0.334,0.084 0.306004,0.11 0.306999,0.111 0.306,0.111999 0.305999,0.111 0.306999,0.111 0.334,0.111 0.306,0.111 0.306,0.111 0.307003,0.112 0.305999,0.111 0.306,0.139 0.334,0.111 0.306995,0.111 0.306004,0.139 0.305999,0.111 0.306,0.139 0.306999,0.111 0.306,0.139 0.334004,0.139 0.305999,0.112001 0.306,0.137999 0.306999,0.139 0.305996,0.139002 0.307003,0.139 0.332997,0.139 0.307003,0.139 0.305999,0.139 0.306004,0.138999 0.306,0.139 0.306999,0.139 0.334,0.167 0.305999,0.138001 0.306,0.139999 0.306999,0.166 0.306,0.139 0.306,0.167 0.307003,0.139 0.334,0.166 0.305999,0.14 0.305996,0.165998 0.306004,0.167002 0.306,0.167 0.306999,0.167 0.333999,0.138998 0.306,0.166002 0.307003,0.167 0.306,0.166998 0.306,0.194002 0.305999,0.167 0.334,0.166999 0.306999,0.167 0.306,0.166001 0.306,0.194999 0.306999,0.166001 0.305,0.194999 0.307003,0.167 0.333996,0.194 0.306004,0.167" /><path
               id="path42"
               style="fill:none;stroke:#231f20;stroke-width:1.10000002;stroke-linecap:butt;stroke-linejoin:round;stroke-miterlimit:4;stroke-dasharray:none;stroke-opacity:1"
               d="m 11.654,11.8 h 0.306 l 0.307,-0.028 h 0.640001 L 13.213,11.744 h 3.091001 L 16.638,11.772 h 0.612 l 0.307001,0.028 h 0.306 l 0.306,0.027 h 0.307001 l 0.333997,0.028 0.305003,0.028 h 0.306999 l 0.306,0.027 0.305999,0.029 0.307002,0.028 0.333999,0.027 0.306,0.028 0.306,0.028 0.307001,0.027 0.305998,0.028 0.306001,0.028 0.333998,0.027 0.307003,0.029 0.304998,0.055 0.307002,0.028 0.306999,0.028 0.305,0.055 0.306999,0.028 0.334002,0.056 0.306999,0.055 0.305,0.028 0.307,0.056" /><path
               id="path44"
               style="fill:#231f20;fill-opacity:1;fill-rule:nonzero;stroke:none"
               d="m 132.802,108.439 c 1.02101,0 1.84799,0.82701 1.84799,1.848 0,1.02001 -0.82698,1.848 -1.84799,1.848 -1.01999,0 -1.847,-0.82799 -1.847,-1.848 0,-1.02099 0.82701,-1.848 1.847,-1.848" /><path
               id="path46"
               style="fill:#231f20;fill-opacity:1;fill-rule:nonzero;stroke:none"
               d="m 67.168007,28.92 c 1.020996,0 1.848999,0.827002 1.848999,1.847002 0,1.021 -0.828003,1.848999 -1.848999,1.848999 -1.020004,0 -1.848007,-0.827999 -1.848007,-1.848999 0,-1.02 0.828003,-1.847002 1.848007,-1.847002" /><path
               id="path48"
               style="fill:#ffffff;fill-opacity:1;fill-rule:nonzero;stroke:none"
               d="m 66.608002,31.16 65.520008,79.52" /><path
               id="path50"
               style="fill:none;stroke:#231f20;stroke-width:0.5;stroke-linecap:butt;stroke-linejoin:miter;stroke-miterlimit:4;stroke-dasharray:none;stroke-opacity:1"
               d="m 66.608002,31.16 65.520008,79.52" /><text
               id="text54"
               style="font-variant:normal;font-weight:normal;font-size:10px;font-family:Times;-inkscape-font-specification:Times-Roman;writing-mode:lr-tb;fill:#231f20;fill-opacity:1;fill-rule:nonzero;stroke:none"
               transform="matrix(1,0,0,-1,32.667,30.622398)"><tspan
                 id="tspan52"
                 y="0"
                 x="0 7.2199998">A(</tspan></text>
<text
               id="text58"
               style="font-style:italic;font-variant:normal;font-size:10px;font-family:Times;-inkscape-font-specification:Times-Italic;writing-mode:lr-tb;fill:#231f20;fill-opacity:1;fill-rule:nonzero;stroke:none"
               transform="matrix(1,0,0,-1,43.218998,30.622398)"><tspan
                 id="tspan56"
                 y="0"
                 x="0 5 7.5">a,a</tspan></text>
<text
               id="text62"
               style="font-variant:normal;font-weight:normal;font-size:9px;font-family:Times;-inkscape-font-specification:Times-Roman;writing-mode:lr-tb;fill:#231f20;fill-opacity:1;fill-rule:nonzero;stroke:none"
               transform="matrix(1,0,0,-1,55.7188,32.622398)"><tspan
                 id="tspan60"
                 y="0"
                 x="0">2</tspan></text>
<text
               id="text66"
               style="font-variant:normal;font-weight:normal;font-size:9px;font-family:Times;-inkscape-font-specification:Times-Roman;writing-mode:lr-tb;fill:#231f20;fill-opacity:1;fill-rule:nonzero;stroke:none"
               transform="matrix(1,0,0,-1,60.2188,30.622599)"><tspan
                 id="tspan64"
                 y="0"
                 x="0">)</tspan></text>
<text
               id="text70"
               style="font-variant:normal;font-weight:normal;font-size:10px;font-family:Times;-inkscape-font-specification:Times-Roman;writing-mode:lr-tb;fill:#231f20;fill-opacity:1;fill-rule:nonzero;stroke:none"
               transform="matrix(1,0,0,-1,138.33301,105.9554)"><tspan
                 id="tspan68"
                 y="0"
                 x="0 6.6700001">B(</tspan></text>
<text
               id="text74"
               style="font-style:italic;font-variant:normal;font-size:10px;font-family:Times;-inkscape-font-specification:Times-Italic;writing-mode:lr-tb;fill:#231f20;fill-opacity:1;fill-rule:nonzero;stroke:none"
               transform="matrix(1,0,0,-1,148.33301,105.9554)"><tspan
                 id="tspan72"
                 y="0"
                 x="0 5 11.75 16.75">a+h,</tspan></text>
<text
               id="text78"
               style="font-style:italic;font-variant:normal;font-size:10px;font-family:Times;-inkscape-font-specification:Times-Italic;writing-mode:lr-tb;fill:#231f20;fill-opacity:1;fill-rule:nonzero;stroke:none"
               transform="matrix(1,0,0,-1,169.18301,105.9554)"><tspan
                 id="tspan76"
                 y="0"
                 x="0 3.3299999 8.3299999 15.08 20.08">(a+h)</tspan></text>
<text
               id="text82"
               style="font-style:italic;font-variant:normal;font-size:9px;font-family:Times;-inkscape-font-specification:Times-Italic;writing-mode:lr-tb;fill:#231f20;fill-opacity:1;fill-rule:nonzero;stroke:none"
               transform="matrix(1,0,0,-1,192.59,109.9554)"><tspan
                 id="tspan80"
                 y="0"
                 x="0">2</tspan></text>
<text
               id="text86"
               style="font-variant:normal;font-weight:normal;font-size:10px;font-family:Times;-inkscape-font-specification:Times-Roman;writing-mode:lr-tb;fill:#231f20;fill-opacity:1;fill-rule:nonzero;stroke:none"
               transform="matrix(1,0,0,-1,197.09,105.9554)"><tspan
                 id="tspan84"
                 y="0"
                 x="0">)</tspan></text>
<path
               id="path88"
               style="fill:#ffffff;fill-opacity:1;fill-rule:nonzero;stroke:none"
               d="M 132.68901,110.119 V 31.16" /><path
               id="path90"
               style="fill:none;stroke:#231f20;stroke-width:0.5;stroke-linecap:butt;stroke-linejoin:miter;stroke-miterlimit:4;stroke-dasharray:none;stroke-opacity:1"
               d="M 132.68901,110.119 V 31.16" /><path
               id="path92"
               style="fill:#ffffff;fill-opacity:1;fill-rule:nonzero;stroke:none"
               d="M 67.168007,31.16 H 133.00101" /><path
               id="path94"
               style="fill:none;stroke:#231f20;stroke-width:0.5;stroke-linecap:butt;stroke-linejoin:miter;stroke-miterlimit:4;stroke-dasharray:none;stroke-opacity:1"
               d="M 67.168007,31.16 H 133.00101" /><text
               id="text98"
               style="font-style:italic;font-variant:normal;font-size:10.80000019px;font-family:Times;-inkscape-font-specification:Times-Italic;writing-mode:lr-tb;fill:#231f20;fill-opacity:1;fill-rule:nonzero;stroke:none"
               transform="matrix(1,0,0,-1,98.216797,19.489)"><tspan
                 id="tspan96"
                 y="0"
                 x="0">h</tspan></text>
</g><g
             id="g100"><g
               clip-path="url(#clipPath106)"
               id="g102"><text
                 id="text110"
                 style="font-style:italic;font-variant:normal;font-size:11.19999981px;font-family:Times;-inkscape-font-specification:Times-Italic;writing-mode:lr-tb;fill:#231f20;fill-opacity:1;fill-rule:nonzero;stroke:none"
                 transform="matrix(1,0,0,-1,209.02701,11.021001)"><tspan
                   id="tspan108"
                   y="0"
                   x="0">x</tspan></text>
<text
                 id="text114"
                 style="font-style:italic;font-variant:normal;font-size:14px;font-family:Times;-inkscape-font-specification:Times-Italic;writing-mode:lr-tb;fill:#231f20;fill-opacity:1;fill-rule:nonzero;stroke:none"
                 transform="matrix(1,0,0,-1,0,114.6224)"><tspan
                   id="tspan112"
                   y="0"
                   x="0">y</tspan></text>
</g></g></g></g></g></g></svg>