<?xml version="1.0" encoding="UTF-8" standalone="no"?>
<svg
   xmlns:dc="http://purl.org/dc/elements/1.1/"
   xmlns:cc="http://creativecommons.org/ns#"
   xmlns:rdf="http://www.w3.org/1999/02/22-rdf-syntax-ns#"
   xmlns:svg="http://www.w3.org/2000/svg"
   xmlns="http://www.w3.org/2000/svg"
   viewBox="0 0 462.66666 204"
   height="204"
   width="462.66666"
   xml:space="preserve"
   id="svg2"
   version="1.1"><metadata
     id="metadata8"><rdf:RDF><cc:Work
         rdf:about=""><dc:format>image/svg+xml</dc:format><dc:type
           rdf:resource="http://purl.org/dc/dcmitype/StillImage" /></cc:Work></rdf:RDF></metadata><defs
     id="defs6"><clipPath
       id="clipPath24"
       clipPathUnits="userSpaceOnUse"><path
         id="path22"
         d="M 0,0 H 347 V 153 H 0 Z" /></clipPath></defs><g
     transform="matrix(1.3333333,0,0,-1.3333333,0,204)"
     id="g10"><g
       id="g12" /><g
       id="g14" /><g
       id="g16"><g
         id="g18"><g
           clip-path="url(#clipPath24)"
           id="g20"><g
             id="g26" /><g
             id="g28"><path
               id="path30"
               style="fill:none;stroke:#000000;stroke-width:1.10000002;stroke-linecap:butt;stroke-linejoin:round;stroke-miterlimit:4;stroke-dasharray:none;stroke-opacity:1"
               d="m 20.962002,23.584002 h 2.004999 M 21.965,24.585001 v -2.000999 m 30.069004,1 h 2.004997 m -1.002998,1.000999 v -2.000999 m 30.07,1 h 2.005005 m -1.003006,1.000999 v -2.000999 m 30.070008,1 h 2.005 M 115.18,24.585001 V 22.584002 M 12.445001,20.439999 V 137.82301" /><path
               id="path32"
               style="fill:#000000;fill-opacity:1;fill-rule:nonzero;stroke:none"
               d="m 12.445001,137.03801 -2.7740005,-1.687 -0.063,0.094 1.7970005,4.524 c 0.347,1.576 0.694,3.153 1.04,4.729 0.347,-1.576 0.694,-3.153 1.041,-4.729 l 1.797,-4.524 -0.048,-0.094 -2.79,1.687" /><path
               id="path34"
               style="fill:none;stroke:#000000;stroke-width:1.10000002;stroke-linecap:butt;stroke-linejoin:round;stroke-miterlimit:4;stroke-dasharray:none;stroke-opacity:1"
               d="m 94.048004,99.228004 0.306,0.472001 0.306999,0.444995 0.334,0.472 0.306,0.445 0.611999,0.945 0.306999,0.444 0.306,0.473 0.334,0.472 1.531005,2.362 0.334,0.473 0.612999,0.945 0.306,0.5 0.612995,0.945 0.306,0.5 0.334,0.472 0.306,0.501 0.30699,0.472 0.61201,1 0.306,0.47301 0.33501,0.5 0.306,0.5 1.225,2.00099 0.334,0.5 1.22499,2.00101 0.306,0.528 0.307,0.5 0.334,0.5 0.306,0.528 0.306,0.501 0.613,1.056 0.30601,0.5 0.334,0.528 0.306,0.52799 0.307,0.5 0.919,1.58401 0.334,0.528 0.918,1.584 0.30699,0.556 0.612,1.056 0.334,0.528 0.307,0.556 0.306,0.52798 0.306,0.55502 0.306,0.52899 0.30701,0.55501 0.334,0.556 0.306,0.528 0.919,1.66699 0.306,0.528 0.334,0.556 0.613,1.112 0.306,0.58301 0.61299,1.112 0.334,0.556 0.306,0.55499 0.306,0.584 0.613,1.112 0.30599,0.58301 0.30602,0.556 0.33398,0.584 0.30702,0.58299 0.306,0.556 0.919,1.75101 0.334,0.58299 0.306,0.556 0.612,1.16701 0.30699,0.612 0.306,0.58299 0.334,0.584 0.306,0.58301 0.279,0.556 m -61.503999,-90.205012 0.334,0.306004 0.307003,0.333 0.306,0.306 0.918999,1.000999 0.639999,0.639 1.224998,1.333004 0.334,0.361992 0.919006,1 0.306,0.361008 0.612999,0.667 0.334,0.361992 0.306,0.333007 0.612999,0.723 0.305999,0.333 0.305992,0.360993 0.334008,0.362007 0.306999,0.361 0.306,0.333 0.918998,1.083992 0.334,0.361008 0.306,0.361999 0.306007,0.389 0.918999,1.084 0.306999,0.389 0.334,0.361 0.305999,0.389 0.306,0.361 0.305992,0.389 0.307007,0.361999 0.306,0.389 0.334,0.389 0.305999,0.389 0.307,0.361 0.917999,1.167 0.333999,0.389 0.919007,1.167 0.306999,0.417 0.306,0.388999 0.333999,0.389 0.306,0.389 0.305992,0.417 0.307007,0.389 0.306,0.417 0.306,0.389 0.305999,0.417 0.334992,0.416999 0.306007,0.389 1.224999,1.667008 0.333999,0.417 0.306008,0.417 1.224998,1.666999 0.333992,0.417 0.307007,0.445 0.306,0.417 0.306,0.416999 0.305999,0.444001 0.306999,0.417 0.306,0.444999 0.334,0.417 0.306,0.444 0.306999,0.445 0.306,0.416992 0.611999,0.889008 0.335007,0.444999 1.530998,2.223 0.334,0.444 0.305999,0.445 0.307,0.472 0.611999,0.889999" /><path
               id="path36"
               style="fill:none;stroke:#000000;stroke-width:1.10000002;stroke-linecap:butt;stroke-linejoin:round;stroke-miterlimit:4;stroke-dasharray:none;stroke-opacity:1"
               d="m 32.545002,35.895 0.611999,0.389 0.306,0.167 0.306999,0.194 0.334,0.195 0.306,0.194 0.306003,0.195 0.307,0.194 0.611999,0.390004 0.334,0.193996 0.306,0.195003 0.306999,0.194001 0.305999,0.221996 0.613003,0.390003 0.306,0.221997 0.334,0.194004 0.305999,0.222999 0.306,0.222 0.306996,0.195 0.612003,0.444 0.334,0.195 0.613002,0.444 0.306,0.222996 0.612999,0.444004 0.334,0.223 0.611999,0.444 0.306999,0.25 0.612004,0.445 0.333999,0.25 0.307,0.222 0.305995,0.222999 0.306004,0.25 0.306,0.25 0.306,0.222 0.306999,0.25 0.333999,0.251 0.306004,0.222 1.224995,1 0.334003,0.25 0.612999,0.5 0.306,0.250999 0.306,0.25 0.307003,0.278 0.333995,0.25 0.306004,0.25 0.306,0.278 0.306999,0.25 0.306,0.278 0.305999,0.25 0.306,0.278 0.334,0.278 0.307003,0.25 0.611996,0.556003 0.306003,0.276993 0.306999,0.278004 0.334,0.278 0.306,0.278003 0.305999,0.278 0.307003,0.277996 0.306,0.278004 0.306,0.278 0.334,0.278 0.306999,0.305 0.611999,0.556 0.306,0.306 0.306999,0.277999 0.305996,0.305001 0.334008,0.305996 0.305995,0.278003 0.613003,0.611 0.306,0.278 0.306,0.306 0.333999,0.306 0.307,0.305 0.305999,0.305996 2.172001,2.168003 0.305996,0.333 0.306004,0.306 0.305999,0.332996" /><path
               id="path38"
               style="fill:#000000;fill-opacity:1;fill-rule:nonzero;stroke:none"
               d="m 108.95,120.27901 c 1.02101,0 1.848,0.82799 1.848,1.848 0,1.02099 -0.82699,1.848 -1.848,1.848 -1.02,0 -1.84799,-0.82701 -1.84799,-1.848 0,-1.02001 0.82799,-1.848 1.84799,-1.848" /><path
               id="path40"
               style="fill:#000000;fill-opacity:1;fill-rule:nonzero;stroke:none"
               d="m 43.317001,40.759003 c 1.020001,0 1.848,0.827999 1.848,1.847999 0,1.021 -0.827999,1.848 -1.848,1.848 -1.021,0 -1.847999,-0.827 -1.847999,-1.848 0,-1.02 0.826999,-1.847999 1.847999,-1.847999" /><path
               id="path42"
               style="fill:none;stroke:#000000;stroke-width:0.5;stroke-linecap:butt;stroke-linejoin:miter;stroke-miterlimit:4;stroke-dasharray:none;stroke-opacity:1"
               d="M 42.757004,42.999001 108.27701,122.519" /><text
               id="text46"
               style="font-style:italic;font-variant:normal;font-size:11.42400074px;font-family:Times;-inkscape-font-specification:Times-Italic;writing-mode:lr-tb;fill:#000000;fill-opacity:1;fill-rule:nonzero;stroke:none"
               transform="matrix(1,0,0,-1,38.995701,31.501699)"><tspan
                 id="tspan44"
                 y="0"
                 x="0 3.8041923 8.8764486 11.732449 14.588449 17.764322 21.568514 26.64077 30.444963">(x, f(x))</tspan></text>
<text
               id="text50"
               style="font-style:italic;font-variant:normal;font-size:11.42400074px;font-family:Times;-inkscape-font-specification:Times-Italic;writing-mode:lr-tb;fill:#000000;fill-opacity:1;fill-rule:nonzero;stroke:none"
               transform="matrix(1,0,0,-1,43.423645,120.40213)"><tspan
                 id="tspan48"
                 y="0"
                 x="0 3.8041923 8.8764486 16.58765 22.29965 25.155651 28.01165 31.187523 34.991714 40.063972 47.775173 53.487171 57.291367">(x+h, f(x+h))</tspan></text>
<path
               id="path52"
               style="fill:none;stroke:#000000;stroke-width:0.5;stroke-linecap:butt;stroke-linejoin:miter;stroke-miterlimit:4;stroke-dasharray:none;stroke-opacity:1"
               d="M 108.83701,121.95901 V 42.999001" /><path
               id="path54"
               style="fill:none;stroke:#000000;stroke-width:0.5;stroke-linecap:butt;stroke-linejoin:miter;stroke-miterlimit:4;stroke-dasharray:none;stroke-opacity:1"
               d="M 43.317001,42.999001 H 109.95701" /><text
               id="text58"
               style="font-style:italic;font-variant:normal;font-size:12.09589958px;font-family:Times;-inkscape-font-specification:Times-Italic;writing-mode:lr-tb;fill:#000000;fill-opacity:1;fill-rule:nonzero;stroke:none"
               transform="matrix(1,0,0,-1,75.840698,45.402798)"><tspan
                 id="tspan56"
                 y="0"
                 x="0">h</tspan></text>
<text
               id="text62"
               style="font-style:italic;font-variant:normal;font-size:13.43999958px;font-family:Times;-inkscape-font-specification:Times-Italic;writing-mode:lr-tb;fill:#000000;fill-opacity:1;fill-rule:nonzero;stroke:none"
               transform="matrix(1,0,0,-1,143.6667,12.679999)"><tspan
                 id="tspan60"
                 y="0"
                 x="0">x</tspan></text>
<text
               id="text66"
               style="font-style:italic;font-variant:normal;font-size:13.43999958px;font-family:Times;-inkscape-font-specification:Times-Italic;writing-mode:lr-tb;fill:#000000;fill-opacity:1;fill-rule:nonzero;stroke:none"
               transform="matrix(1,0,0,-1,0,140.34669)"><tspan
                 id="tspan64"
                 y="0"
                 x="0">y</tspan></text>
<text
               id="text70"
               style="font-style:italic;font-variant:normal;font-size:10.55999947px;font-family:Times;-inkscape-font-specification:Times-Italic;writing-mode:lr-tb;fill:#000000;fill-opacity:1;fill-rule:nonzero;stroke:none"
               transform="matrix(1,0,0,-1,122.19301,137.5249)"><tspan
                 id="tspan68"
                 y="0"
                 x="0 4.6886396 11.816639 14.752318 18.268799 22.957438">y=f(x)</tspan></text>
<text
               id="text74"
               style="font-style:italic;font-variant:normal;font-size:10.64439964px;font-family:Times;-inkscape-font-specification:Times-Italic;writing-mode:lr-tb;fill:#000000;fill-opacity:1;fill-rule:nonzero;stroke:none"
               transform="matrix(1,0,0,-1,34.2939,42.508003)"><tspan
                 id="tspan72"
                 y="0"
                 x="0">A</tspan></text>
<text
               id="text78"
               style="font-style:italic;font-variant:normal;font-size:10.55999947px;font-family:Times;-inkscape-font-specification:Times-Italic;writing-mode:lr-tb;fill:#000000;fill-opacity:1;fill-rule:nonzero;stroke:none"
               transform="matrix(1,0,0,-1,113.3333,118.5067)"><tspan
                 id="tspan76"
                 y="0"
                 x="0">B</tspan></text>
<path
               id="path80"
               style="fill:none;stroke:#000000;stroke-width:1.10000002;stroke-linecap:butt;stroke-linejoin:round;stroke-miterlimit:4;stroke-dasharray:none;stroke-opacity:1"
               d="m 218.76302,22.884001 h 2.00499 m -1.002,1.000999 v -2.000999 m 30.069,1 H 251.84 M 250.83801,23.885 v -2.000999 m 30.069,1 h 2.00501 M 281.91,23.885 v -2.000999 m 30.069,1 h 2.00501 M 312.98102,23.885 V 21.884001 M 211.03401,21.49 v 117.383" /><path
               id="path82"
               style="fill:#000000;fill-opacity:1;fill-rule:nonzero;stroke:none"
               d="m 211.03401,138.24501 -2.21901,-1.349 -0.051,0.075 1.438,3.61899 c 0.27699,1.26101 0.55499,2.522 0.832,3.783 0.278,-1.261 0.55499,-2.52199 0.832,-3.783 l 1.43801,-3.61899 -0.038,-0.075 -2.232,1.349" /><path
               id="path84"
               style="fill:none;stroke:#000000;stroke-width:1.10000002;stroke-linecap:butt;stroke-linejoin:round;stroke-miterlimit:4;stroke-dasharray:none;stroke-opacity:1"
               d="M 291.849,98.528008 292.155,99 l 0.30701,0.445007 0.33401,0.472 0.306,0.445003 0.61301,0.945 0.306,0.444 0.306,0.473 0.33398,0.472 1.53201,2.362 0.33399,0.473 0.612,0.945 0.306,0.5 0.613,0.945 0.306,0.5 0.33402,0.472 0.30697,0.50099 0.306,0.472 0.612,1 0.30698,0.473 0.33405,0.5 0.30597,0.5 1.225,2.001 0.33402,0.5 1.225,2.001 0.30701,0.528 0.306,0.501 0.33398,0.5 0.306,0.528 0.30701,0.5 0.612,1.056 0.306,0.5 0.33398,0.528 0.30701,0.52799 0.306,0.5 0.91901,1.58402 0.33398,0.528 0.91901,1.584 0.306,0.556 0.612,1.056 0.33401,0.528 0.30698,0.556 0.30603,0.52798 0.306,0.55602 0.30697,0.528 0.306,0.55499 0.33402,0.556 0.306,0.528 0.919,1.66699 0.30597,0.52901 0.33402,0.55501 0.61301,1.112 0.306,0.58299 0.613,1.11201 0.33399,0.556 0.306,0.556 0.306,0.583 0.613,1.112 0.306,0.583 0.306,0.556 0.33402,0.584 0.30697,0.583 0.306,0.55598 0.91901,1.75102 0.33401,0.58299 0.306,0.556 0.61301,1.16701 0.306,0.612 0.306,0.58299 0.33398,0.584 0.30701,0.584 0.27799,0.55501 m -61.503,-90.205012 0.33399,0.306003 0.306,0.333 0.306,0.306 0.30701,0.334004 0.306,0.332996 0.306,0.333 0.64001,0.640003 1.22598,1.333996 0.33402,0.361 0.918,1 0.307,0.361 0.30597,0.334 0.30603,0.334 0.33399,0.361 0.307,0.333 0.612,0.722999 0.306,0.333001 0.30701,0.361 0.33398,0.362007 0.306,0.361 0.306,0.333 0.61301,0.723 0.306,0.360992 0.33402,0.362007 0.306,0.361 0.30697,0.389 0.918,1.084 0.30701,0.389 0.33401,0.361 0.306,0.389 0.306,0.361 0.30698,0.389 0.306,0.361999 0.306,0.389 0.33401,0.389 0.30701,0.389 0.306,0.361 0.91898,1.167 0.33401,0.389 0.30597,0.388992 0.61203,0.778008 0.30701,0.417 0.306,0.389 0.33398,0.388999 0.306,0.389 0.30701,0.417 0.306,0.389 0.306,0.417 0.306,0.389 0.307,0.417 0.33402,0.417 0.306,0.388999 1.22497,1.667 0.33402,0.417 1.53198,2.084999 0.33402,0.416001 0.306,0.444999 0.61196,0.834 0.30704,0.444 0.306,0.417 0.306,0.445 0.33399,0.416999 0.613,0.889 0.306,0.417 0.61301,0.889 0.33398,0.445 1.53101,2.223007 0.33401,0.444 0.30698,0.445 0.306,0.472 0.612,0.89" /><path
               id="path86"
               style="fill:none;stroke:#000000;stroke-width:1.10000002;stroke-linecap:butt;stroke-linejoin:round;stroke-miterlimit:4;stroke-dasharray:none;stroke-opacity:1"
               d="m 230.34601,35.195004 0.306,0.194995 0.306,0.194004 0.307,0.167 0.306,0.195 0.334,0.193996 0.306,0.195004 0.306,0.194 0.61298,0.389 0.30601,0.195 0.33399,0.194 0.30702,0.195 0.306,0.194 0.306,0.222 0.30701,0.195 0.306,0.194999 0.306,0.221997 0.334,0.194004 0.61299,0.445 0.306,0.194999 0.613,0.444 0.334,0.195 0.918,0.666996 0.30699,0.222004 0.306,0.223 0.334,0.222 0.61301,0.444 0.306,0.25 0.306,0.223 0.306,0.222 0.334,0.25 0.61301,0.444999 0.612,0.5 0.30697,0.222001 0.30602,0.25 0.33398,0.250999 0.30602,0.222 1.225,1 0.33501,0.25 0.306,0.251 0.612,0.5 0.30699,0.25 0.306,0.277999 0.334,0.25 0.306,0.25 0.306,0.278004 0.30699,0.25 0.30602,0.278 0.306,0.25 0.30699,0.278 0.334,0.278 0.306,0.25 1.225,1.111 0.334,0.278 1.53101,1.389999 0.33499,0.278 0.30598,0.305 0.30602,0.278 0.306,0.278 0.30701,0.306 0.306,0.278 0.306,0.305 0.33399,0.305996 0.307,0.278004 0.30601,0.305999 0.306,0.305001 0.30597,0.278 0.30701,0.305999 0.33401,0.306 0.918,0.917 0.30701,0.305 0.306,0.306 0.63998,0.639 0.30701,0.306 0.306,0.305999 0.306,0.333001 0.306,0.305999 0.307,0.332997" /><path
               id="path88"
               style="fill:none;stroke:#000000;stroke-width:0.5;stroke-linecap:butt;stroke-linejoin:miter;stroke-miterlimit:4;stroke-dasharray:none;stroke-opacity:1"
               d="m 218.16402,22.364 76.412,63.263007" /><text
               id="text92"
               style="font-style:italic;font-variant:normal;font-size:13.43999958px;font-family:Times;-inkscape-font-specification:Times-Italic;writing-mode:lr-tb;fill:#000000;fill-opacity:1;fill-rule:nonzero;stroke:none"
               transform="matrix(1,0,0,-1,297.45102,11.0224)"><tspan
                 id="tspan90"
                 y="0"
                 x="0">x</tspan></text>
<text
               id="text96"
               style="font-style:italic;font-variant:normal;font-size:13.43999958px;font-family:Times;-inkscape-font-specification:Times-Italic;writing-mode:lr-tb;fill:#000000;fill-opacity:1;fill-rule:nonzero;stroke:none"
               transform="matrix(1,0,0,-1,215.65652,138.34355)"><tspan
                 id="tspan94"
                 y="0"
                 x="0">y</tspan></text>
<text
               id="text100"
               style="font-style:italic;font-variant:normal;font-size:10.55999947px;font-family:Times;-inkscape-font-specification:Times-Italic;writing-mode:lr-tb;fill:#000000;fill-opacity:1;fill-rule:nonzero;stroke:none"
               transform="matrix(1,0,0,-1,320.53329,134.5264)"><tspan
                 id="tspan98"
                 y="0"
                 x="0 4.6886396 11.816639 14.752318 18.268799 22.957438">y=f(x)</tspan></text>
<text
               id="text104"
               style="font-style:italic;font-variant:normal;font-size:10.55999947px;font-family:Times;-inkscape-font-specification:Times-Italic;writing-mode:lr-tb;fill:#000000;fill-opacity:1;fill-rule:nonzero;stroke:none"
               transform="matrix(1,0,0,-1,229.45329,43.93111)"><tspan
                 id="tspan102"
                 y="0"
                 x="0">A</tspan></text>
<text
               id="text108"
               style="font-variant:normal;font-weight:normal;font-size:10.80000019px;font-family:Symbol;-inkscape-font-specification:Symbol;writing-mode:lr-tb;fill:#000000;fill-opacity:1;fill-rule:nonzero;stroke:none"
               transform="matrix(1,0,0,-1,238.6048,28.101799)"><tspan
                 id="tspan106"
                 y="0"
                 x="0">!</tspan></text>
<path
               id="path110"
               style="fill:none;stroke:#000000;stroke-width:1.10000002;stroke-linecap:butt;stroke-linejoin:round;stroke-miterlimit:4;stroke-dasharray:none;stroke-opacity:1"
               d="M 5.0660005,23.564001 H 141.56601" /><path
               id="path112"
               style="fill:#000000;fill-opacity:1;fill-rule:nonzero;stroke:none"
               d="m 140.912,23.739 -1.68699,2.774 0.095,0.063 4.52402,-1.797001 c 1.57599,-0.347 3.15199,-0.694 4.728,-1.040001 -1.57601,-0.347 -3.15201,-0.693998 -4.728,-1.040998 l -4.52402,-1.797001 -0.095,0.048 1.68699,2.789999" /><path
               id="path114"
               style="fill:none;stroke:#000000;stroke-width:1.10000002;stroke-linecap:butt;stroke-linejoin:round;stroke-miterlimit:4;stroke-dasharray:none;stroke-opacity:1"
               d="M 200.85802,22.889999 H 338.05801" /><path
               id="path116"
               style="fill:#000000;fill-opacity:1;fill-rule:nonzero;stroke:none"
               d="m 337.272,22.889999 -1.68597,2.774002 0.094,0.063 4.52402,-1.797001 c 1.57599,-0.347 3.15201,-0.693998 4.729,-1.040001 -1.57699,-0.346998 -3.15301,-0.693998 -4.729,-1.040998 l -4.52402,-1.797001 -0.094,0.048 1.68597,2.789999" /><path
               id="path118"
               style="fill:none;stroke:#000000;stroke-width:0.5;stroke-linecap:butt;stroke-linejoin:miter;stroke-miterlimit:4;stroke-dasharray:none;stroke-opacity:1"
               d="m 239.06,23.019999 c -0.27098,4.687002 -2.21298,8.926002 -5.23899,12.131002" /></g></g></g></g></g></svg>