<?xml version="1.0" encoding="UTF-8" standalone="no"?>
<svg
   xmlns:dc="http://purl.org/dc/elements/1.1/"
   xmlns:cc="http://creativecommons.org/ns#"
   xmlns:rdf="http://www.w3.org/1999/02/22-rdf-syntax-ns#"
   xmlns:svg="http://www.w3.org/2000/svg"
   xmlns="http://www.w3.org/2000/svg"
   viewBox="0 0 212 256"
   height="256"
   width="212"
   xml:space="preserve"
   id="svg2"
   version="1.1"><metadata
     id="metadata8"><rdf:RDF><cc:Work
         rdf:about=""><dc:format>image/svg+xml</dc:format><dc:type
           rdf:resource="http://purl.org/dc/dcmitype/StillImage" /></cc:Work></rdf:RDF></metadata><defs
     id="defs6"><clipPath
       id="clipPath24"
       clipPathUnits="userSpaceOnUse"><path
         id="path22"
         d="M 0,0 H 159 V 192 H 0 Z" /></clipPath></defs><g
     transform="matrix(1.3333333,0,0,-1.3333333,0,256)"
     id="g10"><g
       id="g12" /><g
       id="g14" /><g
       id="g16"><g
         id="g18"><g
           clip-path="url(#clipPath24)"
           id="g20"><g
             id="g26" /><g
             id="g28"><path
               id="path30"
               style="fill:none;stroke:#000000;stroke-width:1.10000002;stroke-linecap:butt;stroke-linejoin:round;stroke-miterlimit:4;stroke-dasharray:none;stroke-opacity:1"
               d="m 47.241001,16.925001 h 2.700001 m -1.349999,1.350001 v -2.700001 m 20.474999,1.35 h 2.700004 M 70.416,18.275002 v -2.700001 m 20.475006,1.35 h 2.699997 m -1.349998,1.350001 v -2.700001 m 20.474995,1.35 h 2.69901 M 114.065,18.275002 V 15.575001 M 25.416,63.237003 h 2.700001 m -1.35,1.350003 V 61.887001 M 25.416,109.549 h 2.700001 m -1.35,1.35 v -2.69999 m -1.350001,47.662 h 2.700001 m -1.35,1.35 v -2.699 M 0,16.925001 h 129.36601" /><path
               id="path32"
               style="fill:#000000;fill-opacity:1;fill-rule:nonzero;stroke:none"
               d="m 128.356,16.925001 -2.169,3.567 0.12201,0.081 L 132.125,18.263 c 2.026,-0.447 4.05301,-0.892 6.08,-1.337999 -2.02699,-0.446001 -4.054,-0.892 -6.08,-1.338 l -5.81599,-2.310001 -0.12201,0.061 2.169,3.587001" /><path
               id="path34"
               style="fill:none;stroke:#000000;stroke-width:1.10000002;stroke-linecap:butt;stroke-linejoin:round;stroke-miterlimit:4;stroke-dasharray:none;stroke-opacity:1"
               d="M 26.766001,15.987 V 174.386" /><path
               id="path36"
               style="fill:#000000;fill-opacity:1;fill-rule:nonzero;stroke:none"
               d="m 26.766001,173.37701 -3.566,-2.169 -0.081,0.12199 2.31,5.81601 c 0.446001,2.026 0.890999,4.053 1.337,6.08 0.446001,-2.027 0.892,-4.054 1.338001,-6.08 l 2.309999,-5.81601 -0.061,-0.12199 -3.587,2.169" /><path
               id="path38"
               style="fill:none;stroke:#000000;stroke-width:1.10000002;stroke-linecap:butt;stroke-linejoin:round;stroke-miterlimit:4;stroke-dasharray:none;stroke-opacity:1"
               d="m 99.253006,118.99901 0.187996,0.638 0.224007,0.6 0.225997,0.638 0.224994,0.599 0.45,1.275 0.18701,0.6 0.22499,0.638 0.225,0.638 0.45001,1.274 0.18799,0.63799 0.45001,1.275 0.225,0.63701 0.44999,1.27499 0.18701,0.675 0.44999,1.27501 0.225,0.67499 0.225,0.638 0.22501,0.675 0.18799,0.63701 0.45001,1.34999 0.225,0.638 0.22499,0.67501 0.187,0.675 0.675,2.02499 0.225,0.67501 0.225,0.675 0.188,0.67399 0.67501,2.02601 0.225,0.712 0.18699,0.675 0.225,0.67499 0.22501,0.713 0.225,0.675 0.22499,0.71201 0.225,0.712 0.18801,0.676 0.44999,1.42399 0.225,0.67601 0.22501,0.712 0.225,0.71299 0.18699,0.71201 0.9,2.85 0.18801,0.75 0.225,0.71199 0.44999,1.42501 0.225,0.75 0.22501,0.713 0.18699,0.75 0.225,0.71299 0.45001,1.5 0.225,0.71201 0.18799,0.75 0.224,0.75 0.22601,0.75 0.22499,0.712 0.45,1.5 0.18701,0.75 0.22499,0.788 0.90001,3 0.18799,0.787 0.22401,0.75 0.226,0.75 0.22499,0.788 0.225,0.75 0.18701,0.787 0.225,0.78799 0.22499,0.74901 0.67501,2.36299 0.18799,0.78801 0.224,0.75 0.45101,1.575 0.22499,0.825 0.18701,0.787 0.225,0.78799 0.225,0.787 0.18699,0.75 M 77.616005,67.212006 77.841003,67.625 78.066002,68.075005 78.291,68.487 l 0.225006,0.450004 0.187996,0.449997 0.223999,0.450005 0.225007,0.449997 0.224998,0.413002 0.224998,0.448997 0.187996,0.450996 0.225006,0.449006 0.224999,0.450996 0.224998,0.487007 0.449997,0.899994 0.187004,0.450005 0.225998,0.487999 0.224999,0.448997 0.224007,0.451004 0.224998,0.487 0.224998,0.449997 0.187996,0.486999 0.225006,0.487999 0.224999,0.450005 0.449997,0.974998 0.187004,0.487 L 83.728004,80 l 0.450997,0.975006 0.224007,0.487 0.224998,0.487991 0.187996,0.487007 0.224998,0.525002 0.225006,0.487991 0.224999,0.487007 0.224998,0.487 0.187005,0.525993 0.224998,0.487007 0.224998,0.525002 0.225998,0.486999 0.224999,0.526001 0.224007,0.487 0.187995,0.525001 0.449997,1.049996 0.225006,0.486999 0.449997,1.051003 0.187005,0.524993 0.900993,2.099007 0.187004,0.562996 0.675003,1.575005 0.224998,0.561996 0.224999,0.525002 0.187996,0.563003 0.224007,0.524994 0.449996,1.125 0.225998,0.525002 0.187004,0.562004 0.224999,0.562993 0.224998,0.56201 0.675003,1.68799 0.187996,0.56201 0.224999,0.56299 0.224007,0.56301 0.449996,1.12499 0.225998,0.59901 0.187004,0.563 0.224999,0.562 0.224998,0.59999 0.224999,0.56301 0.225006,0.6 0.186996,0.56199 0.450997,1.20001 0.224007,0.56299 0.449996,1.20001 0.188004,0.6 0.674995,1.8 0.224999,0.6 0.187004,0.6 0.450996,1.19999 0.225006,0.637 0.224,0.6 0.224998,0.60001" /><path
               id="path40"
               style="fill:none;stroke:#000000;stroke-width:1.10000002;stroke-linecap:butt;stroke-linejoin:round;stroke-miterlimit:4;stroke-dasharray:none;stroke-opacity:1"
               d="m 56.016003,33.537003 0.224998,0.262996 0.225002,0.263001 0.187001,0.224003 0.45,0.526001 0.225998,0.261997 0.224999,0.262001 0.187,0.263 0.225002,0.262001 0.224999,0.262997 0.225002,0.262001 0.224999,0.262997 0.224998,0.262005 0.188004,0.299999 0.224998,0.263 0.223999,0.262001 0.225002,0.3 0.225998,0.262996 0.225003,0.300003 0.186996,0.3 0.225002,0.262001 0.224999,0.299999 0.225002,0.299999 0.224999,0.263001 0.187999,0.299999 0.225003,0.300003 0.224998,0.299999 0.223999,0.299999 0.225002,0.3 0.225998,0.299999 0.187001,0.300003 0.224998,0.299999 0.225002,0.336998 0.224999,0.301003 0.225002,0.298999 0.187,0.337998 L 64.079002,44 l 0.224999,0.299999 0.224998,0.337002 0.224007,0.338001 0.224998,0.3 0.187996,0.337001 0.225006,0.337998 0.224999,0.299999 0.224998,0.337002 0.224999,0.338001 0.224998,0.336998 0.187004,0.338001 0.225998,0.338002 0.450005,0.673999 0.223999,0.337998 0.187996,0.337002 0.224998,0.375 L 68.016006,50 l 0.224999,0.337002 0.224998,0.375 0.224999,0.337997 0.188003,0.375004 0.223999,0.336998 0.450997,0.75 0.225006,0.337997 0.186996,0.375004 0.224999,0.375 0.900001,1.5 0.188004,0.375 0.224998,0.374996 0.223999,0.375004 0.450997,0.75 0.225006,0.411999 0.186996,0.375 0.224999,0.375 0.224998,0.412998 0.225006,0.375004 0.224999,0.411999 0.187996,0.412998 0.225006,0.375004 0.224998,0.411999 0.223999,0.412994 0.225998,0.375008 0.224999,0.411998 0.187004,0.412995 0.224998,0.412006 0.224999,0.412998 0.450004,0.824997 0.187996,0.412007 0.224999,0.449997 0.450004,0.824997 0.223999,0.412002 0.225998,0.450996 0.187004,0.412003 0.224999,0.450005 M 34.416,18.049999 l 0.187001,0.075 0.226001,0.075 0.224999,0.037 0.450001,0.150999 0.187,0.074 0.224998,0.076 0.225003,0.074 0.224998,0.112999 0.225002,0.075 0.224999,0.075 0.188,0.075 0.223999,0.113003 0.226001,0.074 0.224999,0.075 0.225002,0.112999 0.224999,0.075 0.187,0.113 0.224998,0.112 0.225003,0.075 0.224998,0.113001 0.225002,0.111999 0.188,0.112999 0.224999,0.112 0.224998,0.112001 0.225002,0.113001 0.224999,0.111999 0.225002,0.112999 0.187,0.112002 0.224999,0.112999 0.224998,0.113001 0.225003,0.149 0.224998,0.112999 0.188,0.113001 0.225002,0.149 0.224999,0.112999 0.225002,0.149999 0.224998,0.112002 0.224999,0.149999 0.187,0.150999 0.225002,0.112 0.224999,0.15 0.224998,0.149999 0.225003,0.150002 0.224998,0.149999 0.188,0.15 0.450001,0.300001 0.225002,0.149998 0.224998,0.150001 0.187001,0.15 0.224998,0.188002 0.450001,0.298999 0.224998,0.188 0.225003,0.15 0.187999,0.187999 0.224999,0.150002 0.450001,0.375 0.225002,0.15 0.188,0.187 0.223999,0.188 0.901001,0.75 0.187,0.186998 0.224998,0.188002 0.450001,0.375 0.224999,0.225 0.225002,0.186998 0.188,0.188002 0.223999,0.224998 0.224998,0.187001 0.225002,0.224998 0.224999,0.187002 0.188,0.225001 0.225002,0.187998 0.224998,0.225002 0.450001,0.449999 0.224999,0.224998 0.413002,0.412003 0.223999,0.226 0.224998,0.225 0.225002,0.261999 0.224999,0.224999 0.188,0.225002 0.225002,0.224996 0.224998,0.225003 0.224999,0.262001 0.225002,0.225998 0.187,0.262001 0.224999,0.224998 0.226002,0.263001 0.223999,0.225002" /><path
               id="path42"
               style="fill:none;stroke:#000000;stroke-width:1.10000002;stroke-linecap:butt;stroke-linejoin:round;stroke-miterlimit:4;stroke-dasharray:none;stroke-opacity:1"
               d="M 12.779,20.712002 13.004001,20.6 l 0.225,-0.112999 0.224999,-0.111999 0.188,-0.113001 0.224001,-0.112001 0.225,-0.112 0.225,-0.112999 0.226,-0.111999 0.225,-0.113001 L 14.954,19.625 15.179001,19.512001 15.404,19.4 l 0.225001,-0.075 0.225,-0.112999 0.224999,-0.075 0.188,-0.074 0.224001,-0.113003 0.225001,-0.075 0.224998,-0.075 0.226002,-0.075 0.186998,-0.112999 0.225,-0.074 0.225001,-0.076 0.225,-0.075 0.225001,-0.074 0.224998,-0.076 0.188002,-0.037 0.224998,-0.075 0.224001,-0.075 0.225001,-0.075 0.224998,-0.037 0.188002,-0.076 0.224998,-0.074 0.225,-0.038 0.225001,-0.075 0.225,-0.038 0.225001,-0.037 0.187,-0.075 0.226,-0.038 0.224998,-0.037 0.224001,-0.037 0.225001,-0.038 0.225,-0.038 0.188,-0.037 0.225,-0.038 0.224998,-0.037 0.225001,-0.037 0.225,-0.038 0.187001,-0.038 h 0.225 l 0.226,-0.037 0.224998,-0.037 h 0.224001 l 0.225001,-0.038 h 0.187999 l 0.225001,-0.038 H 25.454 l 0.225001,-0.037 h 2.175001 l 0.224998,0.037 h 0.412001 l 0.225001,0.038 h 0.225 l 0.226,0.038 h 0.225 l 0.186998,0.037 0.225001,0.037 h 0.225 l 0.225001,0.038 0.225,0.038 0.225,0.037 0.188,0.037 0.224999,0.038 0.224001,0.037 0.225,0.038 0.226,0.038 0.225,0.037 0.187,0.037 0.224999,0.038 0.225002,0.075 0.224999,0.037 0.224998,0.038 0.188,0.075 0.225002,0.038 0.224999,0.074 0.224002,0.076 0.224999,0.037 0.225998,0.075" /><text
               id="text46"
               style="font-style:italic;font-variant:normal;font-size:12.59989929px;font-family:Times;-inkscape-font-specification:Times-Italic;writing-mode:lr-tb;fill:#000000;fill-opacity:1;fill-rule:nonzero;stroke:none"
               transform="matrix(1,0,0,-1,134.84079,3.6099)"><tspan
                 id="tspan44"
                 y="0"
                 x="0">x</tspan></text>
<text
               id="text50"
               style="font-style:italic;font-variant:normal;font-size:12.59989929px;font-family:Times;-inkscape-font-specification:Times-Italic;writing-mode:lr-tb;fill:#000000;fill-opacity:1;fill-rule:nonzero;stroke:none"
               transform="matrix(1,0,0,-1,9.4415493,180.60825)"><tspan
                 id="tspan48"
                 y="0"
                 x="0">y</tspan></text>
<path
               id="path52"
               style="fill:#000000;fill-opacity:1;fill-rule:nonzero;stroke:none"
               d="m 112.07101,156.92999 c 1.14799,0 2.07898,0.93001 2.07898,2.07901 0,1.14801 -0.93099,2.07801 -2.07898,2.07801 -1.14801,0 -2.07901,-0.93 -2.07901,-2.07801 0,-1.149 0.931,-2.07901 2.07901,-2.07901" /><path
               id="path54"
               style="fill:#000000;fill-opacity:1;fill-rule:nonzero;stroke:none"
               d="m 48.441002,23.101002 c 1.147999,0 2.078998,0.93 2.078998,2.077999 0,1.149 -0.930999,2.079 -2.078998,2.079 -1.147999,0 -2.078999,-0.93 -2.078999,-2.079 0,-1.147999 0.931,-2.077999 2.078999,-2.077999" /><text
               id="text58"
               style="font-variant:normal;font-weight:normal;font-size:8.99989986px;font-family:Times;-inkscape-font-specification:Times-Roman;writing-mode:lr-tb;fill:#000000;fill-opacity:1;fill-rule:nonzero;stroke:none"
               transform="matrix(1,0,0,-1,55.5625,23.6698)"><tspan
                 id="tspan56"
                 y="0"
                 x="0 6.4979277 9.494894 13.994844 16.24482 20.74477">A(1,1)</tspan></text>
<text
               id="text62"
               style="font-variant:normal;font-weight:normal;font-size:8.99989986px;font-family:Times;-inkscape-font-specification:Times-Roman;writing-mode:lr-tb;fill:#000000;fill-opacity:1;fill-rule:nonzero;stroke:none"
               transform="matrix(1,0,0,-1,116.84102,154.20885)"><tspan
                 id="tspan60"
                 y="0"
                 x="0 6.002933 8.9998999 13.49985 15.749825 20.249775 24.749725">B(4,16)</tspan></text>
<path
               id="path64"
               style="fill:none;stroke:#000000;stroke-width:0.60000002;stroke-linecap:butt;stroke-linejoin:miter;stroke-miterlimit:4;stroke-dasharray:none;stroke-opacity:1"
               d="M 121.46,178.04901 44.421001,16.77" /><text
               id="text68"
               style="font-variant:normal;font-weight:normal;font-size:11.95500088px;font-family:CMMI12;-inkscape-font-specification:CMMI12;writing-mode:lr-tb;fill:#231f20;fill-opacity:1;fill-rule:nonzero;stroke:none"
               transform="matrix(1,0,0,-1,125.5439,180.0815)"><tspan
                 id="tspan66"
                 y="0"
                 x="0">y</tspan></text>
<text
               id="text72"
               style="font-variant:normal;font-weight:normal;font-size:11.95500088px;font-family:CMR12;-inkscape-font-specification:CMR12;writing-mode:lr-tb;fill:#231f20;fill-opacity:1;fill-rule:nonzero;stroke:none"
               transform="matrix(1,0,0,-1,135.0015,180.0815)"><tspan
                 id="tspan70"
                 y="0"
                 x="0">=</tspan></text>
<text
               id="text76"
               style="font-variant:normal;font-weight:normal;font-size:11.95500088px;font-family:CMMI12;-inkscape-font-specification:CMMI12;writing-mode:lr-tb;fill:#231f20;fill-opacity:1;fill-rule:nonzero;stroke:none"
               transform="matrix(1,0,0,-1,147.42633,180.0815)"><tspan
                 id="tspan74"
                 y="0"
                 x="0">x</tspan></text>
<text
               id="text80"
               style="font-variant:normal;font-weight:normal;font-size:7.96999979px;font-family:CMR8;-inkscape-font-specification:CMR8;writing-mode:lr-tb;fill:#231f20;fill-opacity:1;fill-rule:nonzero;stroke:none"
               transform="matrix(1,0,0,-1,154.0791,185.01759)"><tspan
                 id="tspan78"
                 y="0"
                 x="0">2</tspan></text>
<text
               id="text84"
               style="font-variant:normal;font-weight:normal;font-size:11.95500088px;font-family:CMR12;-inkscape-font-specification:CMR12;writing-mode:lr-tb;fill:#231f20;fill-opacity:1;fill-rule:nonzero;stroke:none"
               transform="matrix(1,0,0,-1,46,3.6664999)"><tspan
                 id="tspan82"
                 y="0"
                 x="0">1</tspan></text>
<text
               id="text88"
               style="font-variant:normal;font-weight:normal;font-size:11.95500088px;font-family:CMR12;-inkscape-font-specification:CMR12;writing-mode:lr-tb;fill:#231f20;fill-opacity:1;fill-rule:nonzero;stroke:none"
               transform="matrix(1,0,0,-1,67.631378,3.8266969)"><tspan
                 id="tspan86"
                 y="0"
                 x="0">2</tspan></text>
<text
               id="text92"
               style="font-variant:normal;font-weight:normal;font-size:11.95500088px;font-family:CMR12;-inkscape-font-specification:CMR12;writing-mode:lr-tb;fill:#231f20;fill-opacity:1;fill-rule:nonzero;stroke:none"
               transform="matrix(1,0,0,-1,18.000195,59.99966)"><tspan
                 id="tspan90"
                 y="0"
                 x="0">5</tspan></text>
<text
               id="text96"
               style="font-variant:normal;font-weight:normal;font-size:11.95500088px;font-family:CMR12;-inkscape-font-specification:CMR12;writing-mode:lr-tb;fill:#231f20;fill-opacity:1;fill-rule:nonzero;stroke:none"
               transform="matrix(1,0,0,-1,12.065732,106.34561)"><tspan
                 id="tspan94"
                 y="0"
                 x="0 5.8579507">10</tspan></text>
<text
               id="text100"
               style="font-variant:normal;font-weight:normal;font-size:11.95500088px;font-family:CMR12;-inkscape-font-specification:CMR12;writing-mode:lr-tb;fill:#231f20;fill-opacity:1;fill-rule:nonzero;stroke:none"
               transform="matrix(1,0,0,-1,11.476351,153.67905)"><tspan
                 id="tspan98"
                 y="0"
                 x="0 5.8579507">15</tspan></text>
<text
               id="text104"
               style="font-variant:normal;font-weight:normal;font-size:11.95500088px;font-family:CMR12;-inkscape-font-specification:CMR12;writing-mode:lr-tb;fill:#231f20;fill-opacity:1;fill-rule:nonzero;stroke:none"
               transform="matrix(1,0,0,-1,88.73793,3.7131252)"><tspan
                 id="tspan102"
                 y="0"
                 x="0">3</tspan></text>
<text
               id="text108"
               style="font-variant:normal;font-weight:normal;font-size:11.95500088px;font-family:CMR12;-inkscape-font-specification:CMR12;writing-mode:lr-tb;fill:#231f20;fill-opacity:1;fill-rule:nonzero;stroke:none"
               transform="matrix(1,0,0,-1,110.66698,3.9988496)"><tspan
                 id="tspan106"
                 y="0"
                 x="0">4</tspan></text>
<text
               id="text112"
               style="font-variant:normal;font-weight:normal;font-size:8.99989986px;font-family:Times;-inkscape-font-specification:Times-Roman;writing-mode:lr-tb;fill:#000000;fill-opacity:1;fill-rule:nonzero;stroke:none"
               transform="matrix(1,0,0,-1,75.628899,52.239197)"><tspan
                 id="tspan110"
                 y="0"
                 x="0 6.4979277 9.494894 13.994844 16.24482 20.74477">D(2,4)</tspan></text>
<text
               id="text116"
               style="font-variant:normal;font-weight:normal;font-size:8.99989986px;font-family:Times;-inkscape-font-specification:Times-Roman;writing-mode:lr-tb;fill:#000000;fill-opacity:1;fill-rule:nonzero;stroke:none"
               transform="matrix(1,0,0,-1,64.629219,36.239174)"><tspan
                 id="tspan114"
                 y="0"
                 x="0 5.498939 8.4959059 12.995855 15.245831 19.745781 21.995756 26.495705 30.995655 33.245628 37.745579 42.245529">E(1.5, 2.25)</tspan></text>
<path
               id="path118"
               style="fill:#000000;fill-opacity:1;fill-rule:nonzero;stroke:none"
               d="m 60.5,36.5 c 1.148003,0 2.079002,0.931004 2.079002,2.079002 0,1.147999 -0.930999,2.078999 -2.079002,2.078999 -1.147999,0 -2.078999,-0.931 -2.078999,-2.078999 0,-1.147998 0.931,-2.079002 2.078999,-2.079002" /><path
               id="path120"
               style="fill:#000000;fill-opacity:1;fill-rule:nonzero;stroke:none"
               d="m 70.5,51 c 1.148003,0 2.079002,0.931004 2.079002,2.079002 0,1.147999 -0.930999,2.078999 -2.079002,2.078999 -1.147995,0 -2.078995,-0.931 -2.078995,-2.078999 C 68.421005,51.931004 69.352005,51 70.5,51" /></g></g></g></g></g></svg>