<?xml version="1.0" encoding="UTF-8" standalone="no"?>
<svg
   xmlns:dc="http://purl.org/dc/elements/1.1/"
   xmlns:cc="http://creativecommons.org/ns#"
   xmlns:rdf="http://www.w3.org/1999/02/22-rdf-syntax-ns#"
   xmlns:svg="http://www.w3.org/2000/svg"
   xmlns="http://www.w3.org/2000/svg"
   viewBox="0 0 545.33331 220"
   height="220"
   width="545.33331"
   xml:space="preserve"
   id="svg2"
   version="1.1"><metadata
     id="metadata8"><rdf:RDF><cc:Work
         rdf:about=""><dc:format>image/svg+xml</dc:format><dc:type
           rdf:resource="http://purl.org/dc/dcmitype/StillImage" /></cc:Work></rdf:RDF></metadata><defs
     id="defs6"><clipPath
       id="clipPath24"
       clipPathUnits="userSpaceOnUse"><path
         id="path22"
         d="M 0,0 H 409 V 165 H 0 Z" /></clipPath></defs><g
     transform="matrix(1.3333333,0,0,-1.3333333,0,220)"
     id="g10"><g
       id="g12" /><g
       id="g14" /><g
       id="g16"><g
         id="g18"><g
           clip-path="url(#clipPath24)"
           id="g20"><g
             id="g26" /><g
             id="g28"><path
               id="path30"
               style="fill:none;stroke:#000000;stroke-width:1.10000002;stroke-linecap:butt;stroke-linejoin:round;stroke-miterlimit:4;stroke-dasharray:none;stroke-opacity:1"
               d="m 44.84,48.475002 h 1.789997 m -0.894996,0.893002 V 47.582001 M 72.583,48.475002 h 1.790001 m -0.894997,0.893002 V 47.582001 M 100.326,48.475002 h 1.79 m -0.89499,0.893002 v -1.786003 m 26.84799,0.893001 h 1.79001 M 128.964,49.368004 V 47.582001 M 17.122002,79.118004 h 1.789999 M 18.017,80.012001 V 78.225006 M 17.122002,109.761 h 1.789999 M 18.017,110.65501 V 108.868 m -0.894998,31.53601 h 1.789999 M 18.017,141.298 v -1.787 M 15.233001,48.475002 H 148.37901" /><path
               id="path32"
               style="fill:#000000;fill-opacity:1;fill-rule:nonzero;stroke:none"
               d="m 147.81801,48.475002 -1.205,1.981999 0.067,0.045 3.23201,-1.284001 c 1.125,-0.247001 2.25101,-0.494999 3.377,-0.743 -1.12599,-0.247001 -2.252,-0.495002 -3.377,-0.743 l -3.23201,-1.283001 -0.067,0.034 1.205,1.992" /><path
               id="path34"
               style="fill:none;stroke:#000000;stroke-width:1.10000002;stroke-linecap:butt;stroke-linejoin:round;stroke-miterlimit:4;stroke-dasharray:none;stroke-opacity:1"
               d="M 18.017,47.855003 V 152.662" /><path
               id="path36"
               style="fill:#000000;fill-opacity:1;fill-rule:nonzero;stroke:none"
               d="m 18.017,152.10101 -1.980999,-1.205 -0.045,0.068 1.282999,3.23101 c 0.248001,1.126 0.496,2.251 0.743,3.377 0.248001,-1.126 0.496,-2.251 0.744002,-3.377 l 1.282999,-3.23101 -0.034,-0.068 -1.993,1.205" /><text
               id="text40"
               style="font-style:italic;font-variant:normal;font-size:9.10000038px;font-family:Times;-inkscape-font-specification:Times-Italic;writing-mode:lr-tb;fill:#000000;fill-opacity:1;fill-rule:nonzero;stroke:none"
               transform="matrix(1,0,0,-1,152.6667,41.866699)"><tspan
                 id="tspan38"
                 y="0"
                 x="0">x</tspan></text>
<text
               id="text44"
               style="font-style:italic;font-variant:normal;font-size:9.10000038px;font-family:Times;-inkscape-font-specification:Times-Italic;writing-mode:lr-tb;fill:#000000;fill-opacity:1;fill-rule:nonzero;stroke:none"
               transform="matrix(1,0,0,-1,9.3335123,155.86696)"><tspan
                 id="tspan42"
                 y="0"
                 x="0">y</tspan></text>
<path
               id="path46"
               style="fill:none;stroke:#000000;stroke-width:1.10000002;stroke-linecap:butt;stroke-linejoin:round;stroke-miterlimit:4;stroke-dasharray:none;stroke-opacity:1"
               d="M 47.329998,76.353004 C 111.397,31.112001 141.96701,158.31 141.96701,158.31" /><path
               id="path48"
               style="fill:none;stroke:#000000;stroke-width:1;stroke-linecap:butt;stroke-linejoin:round;stroke-miterlimit:4;stroke-dasharray:none;stroke-opacity:1"
               d="M 23.451,48.279999 136.20601,85.219002" /><path
               id="path50"
               style="fill:none;stroke:#000000;stroke-width:1.10000002;stroke-linecap:butt;stroke-linejoin:round;stroke-miterlimit:4;stroke-dasharray:none;stroke-opacity:1"
               d="m 252.86201,48.491001 h 1.79 m -0.89499,0.893002 v -1.786999 m 26.84799,0.893997 h 1.79001 M 281.5,49.384003 v -1.786999 m 26.84802,0.893997 h 1.789 m -0.89502,0.893002 v -1.786999 m 26.848,0.893997 h 1.79 m -0.89498,0.893002 V 47.597004 M 225.14401,79.134003 h 1.79 M 226.03902,80.027 v -1.785995 m -0.89501,31.536005 h 1.79 m -0.89499,0.89299 v -1.786 m -0.89501,31.536 h 1.79 m -0.89499,0.893 v -1.78599 M 223.255,48.491001 h 133.14499" /><path
               id="path52"
               style="fill:#000000;fill-opacity:1;fill-rule:nonzero;stroke:none"
               d="m 355.83902,48.491001 -1.20401,1.981003 0.067,0.045 3.23098,-1.283001 c 1.12601,-0.247997 2.25202,-0.495998 3.37799,-0.743 -1.12597,-0.247997 -2.25198,-0.495998 -3.37799,-0.743 l -3.23098,-1.284 -0.067,0.034 1.20401,1.993" /><path
               id="path54"
               style="fill:none;stroke:#000000;stroke-width:1.10000002;stroke-linecap:butt;stroke-linejoin:round;stroke-miterlimit:4;stroke-dasharray:none;stroke-opacity:1"
               d="M 226.03902,47.869999 V 152.677" /><path
               id="path56"
               style="fill:#000000;fill-opacity:1;fill-rule:nonzero;stroke:none"
               d="m 226.03902,152.11601 -1.98101,-1.205 -0.045,0.068 1.28299,3.23099 c 0.248,1.12602 0.49501,2.25202 0.74301,3.37802 0.248,-1.126 0.49499,-2.252 0.74299,-3.37802 l 1.284,-3.23099 -0.034,-0.068 -1.99299,1.205" /><text
               id="text60"
               style="font-style:italic;font-variant:normal;font-size:9.10000038px;font-family:Times;-inkscape-font-specification:Times-Italic;writing-mode:lr-tb;fill:#000000;fill-opacity:1;fill-rule:nonzero;stroke:none"
               transform="matrix(1,0,0,-1,356.66669,39.866699)"><tspan
                 id="tspan58"
                 y="0"
                 x="0">x</tspan></text>
<text
               id="text64"
               style="font-style:italic;font-variant:normal;font-size:9.10000038px;font-family:Times;-inkscape-font-specification:Times-Italic;writing-mode:lr-tb;fill:#000000;fill-opacity:1;fill-rule:nonzero;stroke:none"
               transform="matrix(1,0,0,-1,217.33295,156.53325)"><tspan
                 id="tspan62"
                 y="0"
                 x="0">y</tspan></text>
<path
               id="path66"
               style="fill:none;stroke:#000000;stroke-width:1.10000002;stroke-linecap:butt;stroke-linejoin:round;stroke-miterlimit:4;stroke-dasharray:none;stroke-opacity:1"
               d="m 255.35201,76.368004 c 64.067,-45.241003 94.636,81.957996 94.636,81.957996" /><path
               id="path68"
               style="fill:none;stroke:#000000;stroke-width:1;stroke-linecap:butt;stroke-linejoin:round;stroke-miterlimit:4;stroke-dasharray:none;stroke-opacity:1"
               d="M 289.83301,48.333004 344.20102,123.79" /><text
               id="text72"
               style="font-variant:normal;font-weight:normal;font-size:9px;font-family:Times;-inkscape-font-specification:Times-Roman;writing-mode:lr-tb;fill:#000000;fill-opacity:1;fill-rule:nonzero;stroke:none"
               transform="matrix(1,0,0,-1,0.625,13.2)"><tspan
                 id="tspan70"
                 y="0"
                 x="0 5.4990001 9.9989996 13.995 16.245001 20.745001 23.742001 27.738001 32.237999 34.740002 38.736 43.236 45.737999 47.987999 52.487999 55.485001 57.735001 60.237 64.737 68.733002 70.983002 73.485001 77.481003 81.981003 86.481003 90.476997 94.976997 97.478996 101.979 105.975 108.477 110.727 115.731 117.981 120.483 123.984 126.234 129.735 136.737 140.733 143.235 145.737 147.987 150.237 153.73801 158.23801 160.48801 162.99001 167.49001">The gradient of the tangent at P is small, so the</tspan></text>
<text
               id="text76"
               style="font-variant:normal;font-weight:normal;font-size:9px;font-family:Times;-inkscape-font-specification:Times-Roman;writing-mode:lr-tb;fill:#000000;fill-opacity:1;fill-rule:nonzero;stroke:none"
               transform="matrix(1,0,0,-1,223.98251,13.2)"><tspan
                 id="tspan74"
                 y="0"
                 x="0 5.4990001 9.9989996 13.995 16.245001 20.745001 23.742001 27.738001 32.237999 34.740002 38.736 43.236 45.737999 47.987999 52.487999 55.485001 57.735001 60.237 64.737 68.733002 70.983002 73.485001 77.481003 81.981003 86.481003 90.476997 94.976997 97.478996 99.728996 103.725 106.227 108.477 114.975 119.475 121.977 125.478 127.728 130.23 134.226">The gradient of the tangent at Q is lar</tspan></text>
<text
               id="text80"
               style="font-variant:normal;font-weight:normal;font-size:9px;font-family:Times;-inkscape-font-specification:Times-Roman;writing-mode:lr-tb;fill:#000000;fill-opacity:1;fill-rule:nonzero;stroke:none"
               transform="matrix(1,0,0,-1,361.04367,13.2)"><tspan
                 id="tspan78"
                 y="0"
                 x="0 4.5 8.4960003 10.746 14.247 18.747 20.997 23.499001 27.999001 31.995001 34.244999 37.242001 41.237999 43.740002">ge so the rate</tspan></text>
<text
               id="text84"
               style="font-variant:normal;font-weight:normal;font-size:9px;font-family:Times;-inkscape-font-specification:Times-Roman;writing-mode:lr-tb;fill:#000000;fill-opacity:1;fill-rule:nonzero;stroke:none"
               transform="matrix(1,0,0,-1,77.999794,71.866501)"><tspan
                 id="tspan82"
                 y="0"
                 x="0">P</tspan></text>
<text
               id="text88"
               style="font-variant:normal;font-weight:normal;font-size:9px;font-family:Times;-inkscape-font-specification:Times-Roman;writing-mode:lr-tb;fill:#000000;fill-opacity:1;fill-rule:nonzero;stroke:none"
               transform="matrix(1,0,0,-1,311.99979,93.200104)"><tspan
                 id="tspan86"
                 y="0"
                 x="0">Q</tspan></text>
<text
               id="text92"
               style="font-variant:normal;font-weight:normal;font-size:11.69999981px;font-family:Symbol;-inkscape-font-specification:Symbol;writing-mode:lr-tb;fill:#000000;fill-opacity:1;fill-rule:nonzero;stroke:none"
               transform="matrix(1,0,0,-1,53.25,49.75)"><tspan
                 id="tspan90"
                 y="0"
                 x="0">!</tspan></text>
<text
               id="text96"
               style="font-variant:normal;font-weight:normal;font-size:11.69999981px;font-family:Symbol;-inkscape-font-specification:Symbol;writing-mode:lr-tb;fill:#000000;fill-opacity:1;fill-rule:nonzero;stroke:none"
               transform="matrix(1,0,0,-1,305.25046,53.499851)"><tspan
                 id="tspan94"
                 y="0"
                 x="0">!</tspan></text>
<text
               id="text100"
               style="font-variant:normal;font-weight:normal;font-size:9px;font-family:Times;-inkscape-font-specification:Times-Roman;writing-mode:lr-tb;fill:#000000;fill-opacity:1;fill-rule:nonzero;stroke:none"
               transform="matrix(1,0,0,-1,3.3332999,3.2)"><tspan
                 id="tspan98"
                 y="0"
                 x="0 2.997 6.993 9.4949999 13.491 15.741 19.737 22.239 24.489 30.987 35.487 37.988998 41.985001 46.485001 48.735001 51.237 55.737 59.733002 61.983002 64.980003 69.480003 73.980003 77.975998 80.477997 82.980003 87.480003 91.980003 94.230003 96.732002 100.233 102.483 106.479 110.979 114.975 119.475 123.975 126.477 130.97701 135.47701 137.72701 140.229 143.73 145.98 149.481 156.483 160.479 162.981 165.483 167.733">rate at which the function is changing is small. </tspan></text>
<text
               id="text104"
               style="font-variant:normal;font-weight:normal;font-size:9px;font-family:Times;-inkscape-font-specification:Times-Roman;writing-mode:lr-tb;fill:#000000;fill-opacity:1;fill-rule:nonzero;stroke:none"
               transform="matrix(1,0,0,-1,228.6942,2.8769)"><tspan
                 id="tspan102"
                 y="0"
                 x="0 2.997 6.993 9.4949999 13.491 15.741 19.737 22.239 24.489 30.987 35.487 37.988998 41.985001 46.485001 48.735001 51.237 55.737 59.733002 61.983002 64.980003 69.480003 73.980003 77.975998 80.477997 82.980003 87.480003 91.980003 94.230003 96.732002 100.233 102.483 106.479 110.979 114.975 119.475 123.975 126.477 130.97701 135.47701 137.72701 140.229 143.73 145.98 148.48199 152.478">rate at which the function is changing is lar</tspan></text>
<text
               id="text108"
               style="font-variant:normal;font-weight:normal;font-size:9px;font-family:Times;-inkscape-font-specification:Times-Roman;writing-mode:lr-tb;fill:#000000;fill-opacity:1;fill-rule:nonzero;stroke:none"
               transform="matrix(1,0,0,-1,384.00735,2.8769)"><tspan
                 id="tspan106"
                 y="0"
                 x="0 4.5 8.4960003 10.746">ge. </tspan></text>
<path
               id="path110"
               style="fill:none;stroke:#000000;stroke-width:0.5;stroke-linecap:butt;stroke-linejoin:miter;stroke-miterlimit:4;stroke-dasharray:none;stroke-opacity:1"
               d="m 40.867001,48.5 c 0,1.865002 -0.307003,3.658001 -0.874001,5.332001 m 265.22001,-5.498997 c 0,5.219997 -2.60101,9.833 -6.57699,12.612999" /></g></g></g></g></g></svg>