<?xml version="1.0" encoding="UTF-8" standalone="no"?>
<svg
   xmlns:dc="http://purl.org/dc/elements/1.1/"
   xmlns:cc="http://creativecommons.org/ns#"
   xmlns:rdf="http://www.w3.org/1999/02/22-rdf-syntax-ns#"
   xmlns:svg="http://www.w3.org/2000/svg"
   xmlns="http://www.w3.org/2000/svg"
   viewBox="0 0 640 182.66667"
   height="182.66667"
   width="640"
   xml:space="preserve"
   id="svg2"
   version="1.1"><metadata
     id="metadata8"><rdf:RDF><cc:Work
         rdf:about=""><dc:format>image/svg+xml</dc:format><dc:type
           rdf:resource="http://purl.org/dc/dcmitype/StillImage" /></cc:Work></rdf:RDF></metadata><defs
     id="defs6"><clipPath
       id="clipPath24"
       clipPathUnits="userSpaceOnUse"><path
         id="path22"
         d="M 0,0 H 480 V 137 H 0 Z" /></clipPath></defs><g
     transform="matrix(1.3333333,0,0,-1.3333333,0,182.66667)"
     id="g10"><g
       id="g12" /><g
       id="g14" /><g
       id="g16"><g
         id="g18"><g
           clip-path="url(#clipPath24)"
           id="g20"><g
             id="g26" /><g
             id="g28"><path
               id="path30"
               style="fill:none;stroke:#000000;stroke-width:1.10000002;stroke-linecap:butt;stroke-linejoin:round;stroke-miterlimit:4;stroke-dasharray:none;stroke-opacity:1"
               d="M 36.612003,19.998001 H 38.402 m -0.895,0.893 v -1.786 m 26.848003,0.893 h 1.790001 m -0.895004,0.893 v -1.786 m 26.848007,0.893 h 1.790001 m -0.895004,0.893 v -1.786 m 26.847996,0.893 h 1.789 m -0.89499,0.893 v -1.786 M 8.8940001,50.641003 H 10.684001 M 9.7890005,51.534004 V 49.748001 M 8.8940001,81.284004 H 10.684001 M 9.7890005,82.177002 V 80.391006 M 8.8940001,111.927 h 1.7900009 m -0.8950005,0.893 v -1.786 M 7.0050001,19.998001 H 140.14999" /><path
               id="path32"
               style="fill:#000000;fill-opacity:1;fill-rule:nonzero;stroke:none"
               d="m 139.589,19.998001 -1.20399,1.981999 0.067,0.045 3.231,-1.284001 c 1.126,-0.248001 2.252,-0.495001 3.37799,-0.743 -1.12599,-0.248001 -2.25199,-0.495001 -3.37799,-0.743 l -3.231,-1.284 -0.067,0.034 1.20399,1.993" /><path
               id="path34"
               style="fill:none;stroke:#000000;stroke-width:1.10000002;stroke-linecap:butt;stroke-linejoin:round;stroke-miterlimit:4;stroke-dasharray:none;stroke-opacity:1"
               d="M 9.7890005,19.378 V 124.18401" /><path
               id="path36"
               style="fill:#000000;fill-opacity:1;fill-rule:nonzero;stroke:none"
               d="m 9.7890005,123.62301 -1.9809999,-1.204 -0.045,0.067 1.283,3.23099 c 0.2480001,1.126 0.4960003,2.25201 0.743,3.378 0.2480004,-1.12599 0.4960004,-2.252 0.7430004,-3.378 l 1.284,-3.23099 -0.034,-0.067 -1.9930004,1.204" /><text
               id="text40"
               style="font-style:italic;font-variant:normal;font-size:10.5px;font-family:Times;-inkscape-font-specification:Times-Italic;writing-mode:lr-tb;fill:#000000;fill-opacity:1;fill-rule:nonzero;stroke:none"
               transform="matrix(1,0,0,-1,302.89319,8.5316)"><tspan
                 id="tspan38"
                 y="0"
                 x="0">x</tspan></text>
<text
               id="text44"
               style="font-style:italic;font-variant:normal;font-size:10.5px;font-family:Times;-inkscape-font-specification:Times-Italic;writing-mode:lr-tb;fill:#000000;fill-opacity:1;fill-rule:nonzero;stroke:none"
               transform="matrix(1,0,0,-1,0.66645145,126.66711)"><tspan
                 id="tspan42"
                 y="0"
                 x="0">y</tspan></text>
<path
               id="path46"
               style="fill:none;stroke:#000000;stroke-width:1.10000002;stroke-linecap:butt;stroke-linejoin:round;stroke-miterlimit:4;stroke-dasharray:none;stroke-opacity:1"
               d="M 39.102001,47.875004 C 103.16901,2.6350002 133.73801,129.83301 133.73801,129.83301" /><path
               id="path48"
               style="fill:none;stroke:#000000;stroke-width:0.69999999;stroke-linecap:butt;stroke-linejoin:round;stroke-miterlimit:4;stroke-dasharray:none;stroke-opacity:1"
               d="M 65.25,19.105001 139.93201,125.57999" /><path
               id="path50"
               style="fill:none;stroke:#000000;stroke-width:1.10000002;stroke-linecap:butt;stroke-linejoin:round;stroke-miterlimit:4;stroke-dasharray:none;stroke-opacity:1"
               d="m 199.90601,19.088001 h 1.789 m -0.89501,0.893 v -1.785999 m 26.84801,0.892999 h 1.78999 m -0.89499,0.893 v -1.785999 m 26.848,0.892999 h 1.78999 m -0.89499,0.893 v -1.785999 m 26.84799,0.892999 h 1.79001 m -0.89499,0.893 V 18.195002 M 172.188,49.731003 h 1.79001 m -0.895,0.892998 v -1.786 m -0.89501,31.536 h 1.79001 m -0.895,0.893005 V 79.481003 M 172.188,111.01701 h 1.79001 m -0.895,0.89299 v -1.78599 M 170.298,19.088001 h 133.146" /><path
               id="path52"
               style="fill:#000000;fill-opacity:1;fill-rule:nonzero;stroke:none"
               d="m 302.88303,19.088001 -1.20502,1.981999 0.068,0.045 3.23102,-1.284001 c 1.12601,-0.248001 2.25101,-0.495001 3.37698,-0.743 -1.12597,-0.248001 -2.25097,-0.495001 -3.37698,-0.743 l -3.23102,-1.284 -0.068,0.034 1.20502,1.993" /><path
               id="path54"
               style="fill:none;stroke:#000000;stroke-width:1.10000002;stroke-linecap:butt;stroke-linejoin:round;stroke-miterlimit:4;stroke-dasharray:none;stroke-opacity:1"
               d="M 173.08301,18.468 V 123.274" /><path
               id="path56"
               style="fill:#000000;fill-opacity:1;fill-rule:nonzero;stroke:none"
               d="m 173.08301,122.71301 -1.982,-1.20401 -0.045,0.067 1.28298,3.23101 c 0.24801,1.126 0.49601,2.252 0.74401,3.378 0.24699,-1.126 0.49499,-2.252 0.74299,-3.378 l 1.28301,-3.23101 -0.034,-0.067 -1.992,1.20401" /><text
               id="text60"
               style="font-style:italic;font-variant:normal;font-size:10.5px;font-family:Times;-inkscape-font-specification:Times-Italic;writing-mode:lr-tb;fill:#000000;fill-opacity:1;fill-rule:nonzero;stroke:none"
               transform="matrix(1,0,0,-1,475.33337,12)"><tspan
                 id="tspan58"
                 y="0"
                 x="0">x</tspan></text>
<text
               id="text64"
               style="font-style:italic;font-variant:normal;font-size:10.5px;font-family:Times;-inkscape-font-specification:Times-Italic;writing-mode:lr-tb;fill:#000000;fill-opacity:1;fill-rule:nonzero;stroke:none"
               transform="matrix(1,0,0,-1,163.3333,126)"><tspan
                 id="tspan62"
                 y="0"
                 x="0">y</tspan></text>
<path
               id="path66"
               style="fill:none;stroke:#000000;stroke-width:1.10000002;stroke-linecap:butt;stroke-linejoin:round;stroke-miterlimit:4;stroke-dasharray:none;stroke-opacity:1"
               d="M 202.395,46.965004 C 266.46201,1.725 297.03201,128.923 297.03201,128.923" /><path
               id="path68"
               style="fill:none;stroke:#000000;stroke-width:0.69999999;stroke-linecap:butt;stroke-linejoin:round;stroke-miterlimit:4;stroke-dasharray:none;stroke-opacity:1"
               d="m 222,20 85.82501,78.999008" /><text
               id="text72"
               style="font-variant:normal;font-weight:normal;font-size:9px;font-family:Times;-inkscape-font-specification:Times-Roman;writing-mode:lr-tb;fill:#000000;fill-opacity:1;fill-rule:nonzero;stroke:none"
               transform="matrix(1,0,0,-1,72.666695,42.666698)"><tspan
                 id="tspan70"
                 y="0"
                 x="0">A</tspan></text>
<text
               id="text76"
               style="font-variant:normal;font-weight:normal;font-size:9px;font-family:Times;-inkscape-font-specification:Times-Roman;writing-mode:lr-tb;fill:#000000;fill-opacity:1;fill-rule:nonzero;stroke:none"
               transform="matrix(1,0,0,-1,117.33369,104.66679)"><tspan
                 id="tspan74"
                 y="0"
                 x="0">B</tspan></text>
<text
               id="text80"
               style="font-variant:normal;font-weight:normal;font-size:9px;font-family:Times;-inkscape-font-specification:Times-Roman;writing-mode:lr-tb;fill:#000000;fill-opacity:1;fill-rule:nonzero;stroke:none"
               transform="matrix(1,0,0,-1,236.401,41.763996)"><tspan
                 id="tspan78"
                 y="0"
                 x="0">A</tspan></text>
<text
               id="text84"
               style="font-variant:normal;font-weight:normal;font-size:9px;font-family:Times;-inkscape-font-specification:Times-Roman;writing-mode:lr-tb;fill:#000000;fill-opacity:1;fill-rule:nonzero;stroke:none"
               transform="matrix(1,0,0,-1,261.73419,63.097595)"><tspan
                 id="tspan82"
                 y="0"
                 x="0">B</tspan></text>
<path
               id="path86"
               style="fill:none;stroke:#000000;stroke-width:1.10000002;stroke-linecap:butt;stroke-linejoin:round;stroke-miterlimit:4;stroke-dasharray:none;stroke-opacity:1"
               d="m 366.48703,19.991001 h 1.78998 m -0.89499,0.893 V 19.097 m 26.84796,0.894001 h 1.79001 m -0.89496,0.893 V 19.097 m 26.84799,0.894001 h 1.789 m -0.89499,0.893 V 19.097 m 26.848,0.894001 h 1.79001 m -0.89505,0.893 V 19.097 M 338.76901,50.634003 h 1.79001 M 339.664,51.527004 V 49.741001 M 338.76901,81.277 h 1.79001 M 339.664,82.169998 V 80.384003 M 338.76901,111.92 h 1.79001 m -0.89502,0.893 v -1.78599 M 336.88,19.991001 h 133.14502" /><path
               id="path88"
               style="fill:#000000;fill-opacity:1;fill-rule:nonzero;stroke:none"
               d="m 469.46402,19.991001 -1.20404,1.980999 0.067,0.045 3.23098,-1.282999 c 1.12601,-0.248001 2.25199,-0.496 3.37803,-0.743 -1.12604,-0.248001 -2.25202,-0.496 -3.37803,-0.743 l -3.23098,-1.284 -0.067,0.034 1.20404,1.993" /><path
               id="path90"
               style="fill:none;stroke:#000000;stroke-width:1.10000002;stroke-linecap:butt;stroke-linejoin:round;stroke-miterlimit:4;stroke-dasharray:none;stroke-opacity:1"
               d="M 339.664,19.369999 V 124.17701" /><path
               id="path92"
               style="fill:#000000;fill-opacity:1;fill-rule:nonzero;stroke:none"
               d="m 339.664,123.616 -1.98099,-1.205 -0.045,0.068 1.28299,3.231 c 0.24799,1.12601 0.495,2.25201 0.74298,3.37801 0.24802,-1.126 0.49503,-2.252 0.74301,-3.37801 l 1.284,-3.231 -0.034,-0.068 -1.99301,1.205" /><text
               id="text96"
               style="font-style:italic;font-variant:normal;font-size:10.5px;font-family:Times;-inkscape-font-specification:Times-Italic;writing-mode:lr-tb;fill:#000000;fill-opacity:1;fill-rule:nonzero;stroke:none"
               transform="matrix(1,0,0,-1,141.03889,10.5205)"><tspan
                 id="tspan94"
                 y="0"
                 x="0">x</tspan></text>
<text
               id="text100"
               style="font-style:italic;font-variant:normal;font-size:10.5px;font-family:Times;-inkscape-font-specification:Times-Italic;writing-mode:lr-tb;fill:#000000;fill-opacity:1;fill-rule:nonzero;stroke:none"
               transform="matrix(1,0,0,-1,330.66678,127.33301)"><tspan
                 id="tspan98"
                 y="0"
                 x="0">y</tspan></text>
<path
               id="path102"
               style="fill:none;stroke:#000000;stroke-width:1.10000002;stroke-linecap:butt;stroke-linejoin:round;stroke-miterlimit:4;stroke-dasharray:none;stroke-opacity:1"
               d="M 368.97702,47.868004 C 433.04401,2.6270001 463.61304,129.826 463.61304,129.826" /><path
               id="path104"
               style="fill:none;stroke:#000000;stroke-width:0.69999999;stroke-linecap:butt;stroke-linejoin:round;stroke-miterlimit:4;stroke-dasharray:none;stroke-opacity:1"
               d="m 368.27701,19.991001 97.401,49.276005" /><text
               id="text108"
               style="font-variant:normal;font-weight:normal;font-size:9px;font-family:Times;-inkscape-font-specification:Times-Roman;writing-mode:lr-tb;fill:#000000;fill-opacity:1;fill-rule:nonzero;stroke:none"
               transform="matrix(1,0,0,-1,404.81339,43.661198)"><tspan
                 id="tspan106"
                 y="0"
                 x="0">A</tspan></text>
<text
               id="text112"
               style="font-variant:normal;font-weight:normal;font-size:9px;font-family:Symbol;-inkscape-font-specification:Symbol;writing-mode:lr-tb;fill:#000000;fill-opacity:1;fill-rule:nonzero;stroke:none"
               transform="matrix(1,0,0,-1,83.666367,27.000399)"><tspan
                 id="tspan110"
                 y="0"
                 x="0">!</tspan></text>
<text
               id="text116"
               style="font-variant:normal;font-weight:normal;font-size:7px;font-family:Symbol;-inkscape-font-specification:Symbol;writing-mode:lr-tb;fill:#000000;fill-opacity:1;fill-rule:nonzero;stroke:none"
               transform="matrix(1,0,0,-1,88.355698,25)"><tspan
                 id="tspan114"
                 y="0"
                 x="0">1</tspan></text>
<text
               id="text120"
               style="font-variant:normal;font-weight:normal;font-size:9px;font-family:Symbol;-inkscape-font-specification:Symbol;writing-mode:lr-tb;fill:#000000;fill-opacity:1;fill-rule:nonzero;stroke:none"
               transform="matrix(1,0,0,-1,241.3333,25)"><tspan
                 id="tspan118"
                 y="0"
                 x="0">!</tspan></text>
<text
               id="text124"
               style="font-variant:normal;font-weight:normal;font-size:7px;font-family:Symbol;-inkscape-font-specification:Symbol;writing-mode:lr-tb;fill:#000000;fill-opacity:1;fill-rule:nonzero;stroke:none"
               transform="matrix(1,0,0,-1,246.02229,23)"><tspan
                 id="tspan122"
                 y="0"
                 x="0">2</tspan></text>
<text
               id="text128"
               style="font-variant:normal;font-weight:normal;font-size:9px;font-family:Symbol;-inkscape-font-specification:Symbol;writing-mode:lr-tb;fill:#000000;fill-opacity:1;fill-rule:nonzero;stroke:none"
               transform="matrix(1,0,0,-1,392.33328,22.666599)"><tspan
                 id="tspan126"
                 y="0"
                 x="0">!</tspan></text>
<path
               id="path130"
               style="fill:none;stroke:#000000;stroke-width:0.5;stroke-linecap:butt;stroke-linejoin:miter;stroke-miterlimit:4;stroke-dasharray:none;stroke-opacity:1"
               d="m 83.213005,19.562 c 0,6.021002 -3.051002,11.329001 -7.690002,14.464001 M 239.37302,19.688002 c -0.24501,4.427 -2.14101,8.413 -5.08101,11.354 M 385.63,19.396002 c 0,3.028999 -0.77297,5.879 -2.13198,8.361" /></g></g></g></g></g></svg>