<?xml version="1.0" encoding="UTF-8" standalone="no"?>
<svg
   xmlns:dc="http://purl.org/dc/elements/1.1/"
   xmlns:cc="http://creativecommons.org/ns#"
   xmlns:rdf="http://www.w3.org/1999/02/22-rdf-syntax-ns#"
   xmlns:svg="http://www.w3.org/2000/svg"
   xmlns="http://www.w3.org/2000/svg"
   viewBox="0 0 420 244"
   height="244"
   width="420"
   xml:space="preserve"
   id="svg2"
   version="1.1"><metadata
     id="metadata8"><rdf:RDF><cc:Work
         rdf:about=""><dc:format>image/svg+xml</dc:format><dc:type
           rdf:resource="http://purl.org/dc/dcmitype/StillImage" /></cc:Work></rdf:RDF></metadata><defs
     id="defs6"><clipPath
       id="clipPath24"
       clipPathUnits="userSpaceOnUse"><path
         id="path22"
         d="M 0,0 H 315 V 183 H 0 Z" /></clipPath></defs><g
     transform="matrix(1.3333333,0,0,-1.3333333,0,244)"
     id="g10"><g
       id="g12" /><g
       id="g14" /><g
       id="g16"><g
         id="g18"><g
           clip-path="url(#clipPath24)"
           id="g20"><g
             id="g26" /><g
             id="g28"><path
               id="path30"
               style="fill:none;stroke:#000000;stroke-width:1;stroke-linecap:butt;stroke-linejoin:round;stroke-miterlimit:4;stroke-dasharray:none;stroke-opacity:1"
               d="m 248.26701,53.042004 0.28501,-0.053 0.332,-0.104 0.28499,-0.105999 0.332,-0.104999 0.285,-0.104004 0.332,-0.105999 0.28501,-0.105 0.332,-0.104999 0.33299,-0.105 0.285,-0.052 0.332,-0.105003 0.28499,-0.105 0.33202,-0.105 0.28499,-0.104999 0.332,-0.052 0.285,-0.106003 0.332,-0.105 0.285,-0.104003 0.333,-0.105996 0.285,-0.052 0.332,-0.105003 0.28501,-0.105 0.332,-0.104999 0.285,-0.053 0.33198,-0.104004 0.33201,-0.105999 0.285,-0.052 0.33301,-0.104999 0.28399,-0.105 0.33301,-0.053 0.28501,-0.105 0.332,-0.104999 0.28497,-0.052 0.332,-0.105 0.285,-0.104999 0.332,-0.052 0.28501,-0.105999 0.332,-0.105 0.285,-0.052 0.33301,-0.105003 0.33197,-0.053 0.28503,-0.105 0.33201,-0.052 0.28497,-0.104999 0.332,-0.105 0.285,-0.053 0.332,-0.105 0.28501,-0.052 0.333,-0.104999 0.284,-0.053 0.33301,-0.104999 0.285,-0.052 0.332,-0.105 0.28501,-0.053 L 265.31,48.16 l 0.33301,-0.053 0.28399,-0.053 0.33298,-0.105 0.28503,-0.052 0.332,-0.104999 0.284,-0.053 0.33301,-0.104999 0.285,-0.052 0.332,-0.053 0.28501,-0.104999 0.332,-0.052 0.28497,-0.105 0.33301,-0.053 0.28399,-0.052 0.33301,-0.105 0.28501,-0.053 0.33197,-0.052 0.33203,-0.104999 0.285,-0.053 0.332,-0.052 0.28501,-0.105 0.33297,-0.053 0.284,-0.052 0.33301,-0.053 0.28399,-0.104 0.33301,-0.053 0.28501,-0.053 0.332,-0.105 0.285,-0.052 0.332,-0.05201 0.28497,-0.05299 0.33204,-0.053 0.33297,-0.104999 0.28501,-0.052 0.332,-0.052 0.285,-0.053 0.332,-0.104999 0.285,-0.053 0.33201,-0.052 0.285,-0.052 0.332,-0.053 0.285,-0.052 0.33298,-0.105004 0.28403,-0.05299 m -61.38402,20.265003 0.332,-0.157005 0.285,-0.157998 0.33199,-0.105003 0.285,-0.156998 0.33301,-0.157997 0.284,-0.157005 0.332,-0.104996 0.28598,-0.158005 0.33202,-0.157005 0.285,-0.157993 0.332,-0.105 0.285,-0.157001 0.332,-0.157997 0.332,-0.105 0.28499,-0.157005 0.33301,-0.157997 0.285,-0.105 0.33201,-0.157005 0.28498,-0.157994 0.33199,-0.104999 0.28502,-0.157005 0.332,-0.157998 0.285,-0.104999 0.332,-0.157002 0.28501,-0.157997 0.33299,-0.104999 0.284,-0.157002 0.332,-0.104999 0.333,-0.158001 0.28501,-0.105 0.33198,-0.156997 0.28501,-0.158001 0.332,-0.105 0.28499,-0.157001 0.33201,-0.105004 0.28501,-0.157997 0.33297,-0.104999 0.28502,-0.157006 0.332,-0.104995 0.28501,-0.157998 0.332,-0.105003 0.28499,-0.156998 0.332,-0.105003 0.285,-0.104996 0.332,-0.158001 0.33199,-0.104999 0.28601,-0.157002 0.332,-0.105003 0.285,-0.104996 0.332,-0.158001 0.28499,-0.104999 0.33202,-0.157002 0.28499,-0.105003 0.332,-0.104996 0.285,-0.158001 0.33301,-0.104999 0.28399,-0.105 0.333,-0.157001 0.285,-0.105 0.332,-0.104999 0.332,-0.157998 0.28501,-0.105003 0.33198,-0.105 0.285,-0.104999 0.33301,-0.157002 0.284,-0.104999 0.33301,-0.105003 0.28497,-0.104996 0.33202,-0.105004 0.285,-0.157997 0.332,-0.104999 0.285,-0.105 0.332,-0.104999 0.28501,-0.105 0.332,-0.158001 0.28499,-0.104004 0.33301,-0.104995 0.332,-0.105999 0.28498,-0.104 0.33199,-0.105004 0.28502,-0.105999 0.332,-0.104004 0.285,-0.104995 0.332,-0.157998 0.28501,-0.105003 0.33299,-0.105 0.284,-0.104999 0.333,-0.105 0.28501,-0.104999 0.332,-0.105 0.28499,-0.104999 0.332,-0.105 0.332,-0.105003 0.28499,-0.105 0.333,-0.104999 0.28402,-0.105 0.33297,-0.104999 0.28502,-0.105 0.332,-0.104999" /><path
               id="path32"
               style="fill:none;stroke:#000000;stroke-width:1;stroke-linecap:butt;stroke-linejoin:round;stroke-miterlimit:4;stroke-dasharray:none;stroke-opacity:1"
               d="m 186.83501,80.919998 0.332,-0.156998 0.33299,-0.157997 0.28401,-0.157997 0.33299,-0.157005 0.28501,-0.156998 0.332,-0.157997 0.285,-0.158005 0.332,-0.157005 0.28499,-0.157989 0.332,-0.157006 0.28501,-0.157997 0.332,-0.157005 0.28499,-0.157997 0.333,-0.156998 0.28401,-0.157997 0.33298,-0.157005 0.28401,-0.157998 0.33301,-0.156997 0.332,-0.158005 0.28501,-0.157005 0.33198,-0.15799 0.28501,-0.157005 0.333,-0.157997 0.284,-0.157006 0.33299,-0.156997 0.28501,-0.157997 0.332,-0.156998 0.285,-0.158012 0.332,-0.156991 0.28499,-0.157997 0.33202,-0.158004 0.28498,-0.157006 0.332,-0.15699 0.33301,-0.158005 0.28501,-0.157997 0.332,-0.157005 0.28499,-0.156998 0.332,-0.157997 0.285,-0.157005 0.332,-0.158005 0.285,-0.157989 0.33199,-0.209 0.28601,-0.158005 0.332,-0.156997 0.284,-0.158005 0.33301,-0.156998 0.28497,-0.157997 0.33201,-0.156998 0.33201,-0.158004 0.285,-0.156998 0.332,-0.157997 0.285,-0.157006 0.333,-0.158004 0.285,-0.15699 0.332,-0.158005 0.285,-0.156998 0.332,-0.158005 0.28499,-0.156997 0.33199,-0.157997 0.28502,-0.156998 0.332,-0.158005 0.285,-0.156998 0.332,-0.158004 0.28501,-0.156998 0.66499,-0.315002 0.285,-0.157998 0.332,-0.156997 L 208.24602,70 l 0.33198,-0.156998 0.28501,-0.157997 0.333,-0.157005 0.28399,-0.158005 0.333,-0.15699 0.28402,-0.158005 0.33297,-0.156997 0.28502,-0.158005 0.332,-0.156998 0.28501,-0.157997 0.332,-0.156998 0.332,-0.105003 0.28499,-0.157997 0.333,-0.157005 0.284,-0.158005 0.33299,-0.15699 0.28501,-0.158005 0.332,-0.156998 0.285,-0.158004 0.332,-0.156998 0.28499,-0.104996 0.33202,-0.158005 0.28498,-0.156997 0.333,-0.157997 0.28401,-0.156998 0.33301,-0.158005 0.28399,-0.156998 0.333,-0.105003 0.332,-0.158005 0.285,-0.15699 M 156.166,90.738007 h 0.285 l 0.33301,-0.053 h 0.61699 l 0.285,-0.052 h 0.33201 l 0.33198,-0.05301 h 0.28502 l 0.332,-0.05199 h 0.285 l 0.333,-0.053 0.28399,-0.052 0.33301,-0.05301 0.285,-0.05199 h 0.33199 l 0.285,-0.05299 0.332,-0.052 0.28501,-0.05301 0.332,-0.05199 0.285,-0.05299 0.33199,-0.105011 0.33301,-0.05199 0.285,-0.053 0.33199,-0.05199 0.28501,-0.05301 0.332,-0.104996 0.28499,-0.05199 0.33301,-0.052 0.284,-0.106003 0.332,-0.052 0.285,-0.104996 0.33299,-0.052 0.284,-0.106002 0.33301,-0.05199 0.285,-0.105003 0.332,-0.104996 0.28499,-0.053 0.332,-0.105011 0.33301,-0.103989 0.284,-0.10601 0.33299,-0.052 0.285,-0.104995 0.332,-0.105004 0.28501,-0.104995 0.332,-0.105004 0.285,-0.104995 0.332,-0.105004 0.28499,-0.105003 0.332,-0.104996 0.28501,-0.105003 0.332,-0.104996 0.28498,-0.105003 0.33301,-0.104996 0.332,-0.158012 0.28499,-0.104989 0.33202,-0.105003 0.285,-0.104996 0.332,-0.105011 0.28501,-0.15699 0.33299,-0.105003 0.285,-0.104996 0.332,-0.158005 0.284,-0.105003 0.33299,-0.104996 0.28501,-0.156997 0.332,-0.105004 0.285,-0.157997 0.332,-0.105003 0.28499,-0.156998 0.33201,-0.105003 0.333,-0.158005 0.28399,-0.104996 0.33301,-0.156997 0.28501,-0.104996 0.332,-0.158005 0.28498,-0.156998 0.33201,-0.105003 0.285,-0.157997 0.332,-0.156998 0.285,-0.105003 0.333,-0.157997 0.285,-0.157006 0.332,-0.104995 0.284,-0.157997 0.66501,-0.31501 0.28498,-0.104996 0.332,-0.156998 0.28501,-0.158005 0.33301,-0.156997 0.28399,-0.104996 0.333,-0.158005 0.285,-0.156997 0.332,-0.157998 0.285,-0.157005 0.332,-0.158005 0.28499,-0.15699 0.332,-0.105003 0.28501,-0.158005" /><path
               id="path34"
               style="fill:none;stroke:#000000;stroke-width:1;stroke-linecap:butt;stroke-linejoin:round;stroke-miterlimit:4;stroke-dasharray:none;stroke-opacity:1"
               d="m 125.451,75.093002 0.332,0.314003 0.28501,0.367997 0.33199,0.367004 0.28501,0.314995 0.332,0.315002 0.285,0.367996 0.33199,0.315003 0.28501,0.314995 0.33299,0.31501 0.28401,0.314995 0.33299,0.315002 0.332,0.314995 0.28501,0.263008 0.332,0.314995 0.285,0.315002 0.332,0.262001 L 130.72,80.5 l 0.332,0.263 0.28501,0.262002 0.33299,0.314994 0.28401,0.263008 0.33299,0.262001 0.28501,0.263001 0.332,0.261993 0.285,0.209999 0.332,0.263009 0.33299,0.262001 0.284,0.209999 0.33301,0.263 0.28399,0.209999 0.33301,0.209999 0.28499,0.261994 0.332,0.209999 0.28499,0.210007 0.33202,0.209991 0.285,0.209999 0.332,0.210007 0.28499,0.209999 0.332,0.158005 0.285,0.209999 0.33301,0.156997 0.332,0.21 0.28499,0.158004 0.332,0.209999 0.285,0.156998 0.33199,0.158005 0.28502,0.156997 0.332,0.157998 0.285,0.156997 0.333,0.158005 0.28498,0.156998 0.33202,0.158005 0.285,0.104995 0.33199,0.156998 0.285,0.104996 0.332,0.158004 0.28501,0.105004 0.332,0.104995 0.33299,0.157006 0.285,0.104996 0.33201,0.105003 0.285,0.104996 0.33198,0.105003 0.28502,0.104996 0.332,0.105003 0.28499,0.053 0.33301,0.105004 0.284,0.104996 0.332,0.05199 0.28599,0.105003 0.332,0.052 0.28501,0.106003 0.332,0.052 0.332,0.05299 0.285,0.05199 0.332,0.05301 0.28499,0.052 0.33301,0.05299 0.284,0.05199 0.33299,0.05301 0.285,0.052 0.332,0.053 h 0.28501 l 0.332,0.05199 0.285,0.05301 h 0.332 l 0.28499,0.052 h 0.617 l 0.33201,0.053 h 2.802 m -61.385005,-54.181004 0.284996,0.105 0.332001,0.104999 0.285004,0.157002 0.333,0.156997 0.283997,0.211003 0.332,0.209999 0.285004,0.156997 0.333,0.263001 0.284996,0.209999 0.332001,0.262001 0.284004,0.263 0.333,0.262002 0.284989,0.263 0.332008,0.314999 0.333,0.314998 0.283997,0.315003 0.332998,0.314998 0.28501,0.315003 0.332,0.314998 0.28499,0.367001 0.332,0.368 0.28501,0.367001 0.332,0.368 0.28499,0.366996 0.332,0.368 0.28501,0.420002 0.333,0.367001 0.28399,0.419998 0.333,0.420002 0.285,0.419998 0.332,0.420002 0.332,0.419998 0.28501,0.420002 0.332,0.419999 0.28499,0.420002 0.332,0.472999 0.28501,0.419998 0.333,0.420002 0.28399,0.472 0.333,0.419999 0.28501,0.472999 0.33199,0.472 0.285,0.421002 0.33201,0.472 0.285,0.472 0.33199,0.473 0.333,0.419998 0.28401,0.473003 0.333,0.472 0.28399,0.472996 0.333,0.472004 0.28501,0.473 0.332,0.418998 0.28499,0.473 0.332,0.472996 0.285,0.472003 0.33201,0.473 0.285,0.472 0.33299,0.420002 0.284,0.472996 0.333,0.472004 0.28501,0.472999 0.332,0.420002 0.332,0.472001 0.28499,0.472995 0.332,0.420002 0.28501,0.472 0.333,0.473 0.28399,0.420002 0.333,0.472 0.28401,0.419998 0.333,0.419998 0.28499,0.473 0.33201,0.419998 0.285,0.419998 0.33199,0.473008 0.28501,0.419998 0.333,0.418998 0.332,0.420006 0.28399,0.419998 0.333,0.419999 0.28501,0.420997 0.332,0.419007 0.28499,0.367988 0.332,0.420006 0.28501,0.419998 0.332,0.368004 0.285,0.418999 0.332,0.368003 0.28598,0.419999 0.33201,0.367996 0.28401,0.366997 0.333,0.368003 0.332,0.367005 0.28499,0.367996 0.332,0.366997 0.28501,0.368004 0.332,0.367004 0.28499,0.367996" /><path
               id="path36"
               style="fill:none;stroke:#000000;stroke-width:1;stroke-linecap:butt;stroke-linejoin:round;stroke-miterlimit:4;stroke-dasharray:none;stroke-opacity:1"
               d="m 68.861,167.442 0.143005,-2.153 0.332001,-4.61999 0.284996,-4.46201 0.332001,-4.30499 0.332001,-4.25301 0.284996,-4.095 0.333,-3.98999 0.284004,-3.88501 0.332993,-3.83299 0.285003,-3.675 0.332001,-3.57 0.285004,-3.465 0.332,-3.36 0.284996,-3.30801 0.332001,-3.14999 0.285004,-3.097 0.332001,-2.99301 0.284996,-2.94 0.332,-2.782995 0.333001,-2.730003 0.285003,-2.676995 0.331993,-2.573005 0.284996,-2.466996 0.332009,-2.415001 0.284996,-2.363006 0.332,-2.257996 0.285004,-2.152008 0.333,-2.151993 0.283997,-2.048004 0.332001,-1.942993 0.285003,-1.889999 0.333,-1.837006 0.284997,-1.784996 0.332,-1.733002 0.285004,-1.626999 0.331993,-1.628002 0.332001,-1.521999 0.285003,-1.469998 0.333001,-1.418003 0.283996,-1.364998 0.333,-1.260002 0.285004,-1.259998 0.332001,-1.208 0.284996,-1.154003 0.332001,-1.102997 0.285003,-1.049999 0.332001,-0.997006 0.284996,-0.997997 0.331993,-0.892998 0.285011,-0.892002 0.333001,-0.84 0.331993,-0.787998 0.285003,-0.735001 0.332001,-0.681999 0.284996,-0.683003 0.332001,-0.629997 0.285003,-0.630001 0.332001,-0.525001 0.284996,-0.524998 0.332001,-0.525002 0.285004,-0.419998 0.332,-0.420002 0.285996,-0.419998 0.332001,-0.367001 L 88.848007,38.132 89.18,37.817001 l 0.285004,-0.263 0.332001,-0.261997 0.332,-0.210003 0.284996,-0.209999 0.333001,-0.158001 0.284004,-0.156998 0.333,-0.105 0.284996,-0.105003 0.332001,-0.053 0.285003,-0.052 0.332001,-0.053 h 0.616997 L 93.5,36.242 l 0.333008,0.052 0.283996,0.053 0.332001,0.105003 0.333,0.105" /><text
               id="text40"
               style="font-variant:normal;font-weight:normal;font-size:12px;font-family:Times;-inkscape-font-specification:Times-Roman;writing-mode:lr-tb;fill:#000000;fill-opacity:1;fill-rule:nonzero;stroke:none"
               transform="matrix(1,0,0,-1,61.489399,79.619698)"><tspan
                 id="tspan38"
                 y="0"
                 x="0">A</tspan></text>
<text
               id="text44"
               style="font-variant:normal;font-weight:normal;font-size:12px;font-family:Times;-inkscape-font-specification:Times-Roman;writing-mode:lr-tb;fill:#000000;fill-opacity:1;fill-rule:nonzero;stroke:none"
               transform="matrix(1,0,0,-1,80.000595,22.000498)"><tspan
                 id="tspan42"
                 y="0"
                 x="0">B</tspan></text>
<text
               id="text48"
               style="font-variant:normal;font-weight:normal;font-size:12px;font-family:Times;-inkscape-font-specification:Times-Roman;writing-mode:lr-tb;fill:#000000;fill-opacity:1;fill-rule:nonzero;stroke:none"
               transform="matrix(1,0,0,-1,119.68939,50.0205)"><tspan
                 id="tspan46"
                 y="0"
                 x="0">C</tspan></text>
<text
               id="text52"
               style="font-variant:normal;font-weight:normal;font-size:12px;font-family:Times;-inkscape-font-specification:Times-Roman;writing-mode:lr-tb;fill:#000000;fill-opacity:1;fill-rule:nonzero;stroke:none"
               transform="matrix(1,0,0,-1,154.88899,75.237297)"><tspan
                 id="tspan50"
                 y="0"
                 x="0">D</tspan></text>
<text
               id="text56"
               style="font-variant:normal;font-weight:normal;font-size:12px;font-family:Times;-inkscape-font-specification:Times-Roman;writing-mode:lr-tb;fill:#000000;fill-opacity:1;fill-rule:nonzero;stroke:none"
               transform="matrix(1,0,0,-1,235.289,64.2201)"><tspan
                 id="tspan54"
                 y="0"
                 x="0">E</tspan></text>
<path
               id="path58"
               style="fill:#000000;fill-opacity:1;fill-rule:nonzero;stroke:none"
               d="m 76.838005,79.360001 c 1.25,0 2.263001,1.182006 2.263001,2.639999 0,1.458 -1.013001,2.639999 -2.263001,2.639999 -1.249,0 -2.262001,-1.181999 -2.262001,-2.639999 0,-1.457993 1.013001,-2.639999 2.262001,-2.639999" /><path
               id="path60"
               style="fill:#000000;fill-opacity:1;fill-rule:nonzero;stroke:none"
               d="m 154.33301,87.993004 c 1.25,0 2.263,1.181999 2.263,2.639999 0,1.458 -1.013,2.64 -2.263,2.64 -1.249,0 -2.262,-1.182 -2.262,-2.64 0,-1.458 1.013,-2.639999 2.262,-2.639999" /><path
               id="path62"
               style="fill:#000000;fill-opacity:1;fill-rule:nonzero;stroke:none"
               d="m 116.83801,60.027004 c 1.25,0 2.263,1.181999 2.263,2.64 0,1.457996 -1.013,2.638996 -2.263,2.638996 -1.24901,0 -2.26201,-1.181 -2.26201,-2.638996 0,-1.458001 1.013,-2.64 2.26201,-2.64" /><path
               id="path64"
               style="fill:#000000;fill-opacity:1;fill-rule:nonzero;stroke:none"
               d="m 92.75,32.548 c 1.25,0 2.263008,1.182 2.263008,2.640004 0,1.456996 -1.013008,2.638999 -2.263008,2.638999 -1.25,0 -2.262993,-1.182003 -2.262993,-2.638999 C 90.487007,33.73 91.5,32.548 92.75,32.548" /><path
               id="path66"
               style="fill:#000000;fill-opacity:1;fill-rule:nonzero;stroke:none"
               d="m 225.66701,58.66 c 1.24901,0 2.26201,1.182003 2.26201,2.639999 0,1.458004 -1.013,2.64 -2.26201,2.64 -1.25,0 -2.263,-1.181996 -2.263,-2.64 0,-1.457996 1.013,-2.639999 2.263,-2.639999" /><path
               id="path68"
               style="fill:none;stroke:#000000;stroke-width:0.5;stroke-linecap:butt;stroke-linejoin:round;stroke-miterlimit:4;stroke-dasharray:none;stroke-opacity:1"
               d="M 0,35 H 297" /><path
               id="path70"
               style="fill:#000000;fill-opacity:1;fill-rule:nonzero;stroke:none"
               d="m 295.97998,35 -2.18997,3.603001 0.12301,0.082 5.874,-2.333999 c 2.04699,-0.450001 4.09399,-0.901001 6.14099,-1.351002 -2.047,-0.450001 -4.094,-0.900997 -6.14099,-1.350998 l -5.874,-2.334001 -0.12301,0.062 L 295.97998,35" /><path
               id="path72"
               style="fill:none;stroke:#000000;stroke-width:0.5;stroke-linecap:butt;stroke-linejoin:round;stroke-miterlimit:4;stroke-dasharray:none;stroke-opacity:1"
               d="M 93,0 V 168" /><path
               id="path74"
               style="fill:#000000;fill-opacity:1;fill-rule:nonzero;stroke:none"
               d="m 93,166.98 -3.602997,-2.19001 -0.081,0.12302 2.333,5.87399 c 0.450005,2.04701 0.900993,4.09401 1.350998,6.14101 0.449997,-2.047 0.901001,-4.094 1.351006,-6.14101 l 2.333999,-5.87399 -0.062,-0.12302 L 93,166.98" /><text
               id="text78"
               style="font-style:italic;font-variant:normal;font-size:15.75px;font-family:Times;-inkscape-font-specification:Times-Italic;writing-mode:lr-tb;fill:#000000;fill-opacity:1;fill-rule:nonzero;stroke:none"
               transform="matrix(1,0,0,-1,308,24)"><tspan
                 id="tspan76"
                 y="0"
                 x="0">x</tspan></text>
<text
               id="text82"
               style="font-style:italic;font-variant:normal;font-size:15.75px;font-family:Times;-inkscape-font-specification:Times-Italic;writing-mode:lr-tb;fill:#000000;fill-opacity:1;fill-rule:nonzero;stroke:none"
               transform="matrix(1,0,0,-1,102.99958,168.99922)"><tspan
                 id="tspan80"
                 y="0"
                 x="0">y</tspan></text>
</g></g></g></g></g></svg>