<?xml version="1.0" encoding="UTF-8" standalone="no"?>
<svg
   xmlns:dc="http://purl.org/dc/elements/1.1/"
   xmlns:cc="http://creativecommons.org/ns#"
   xmlns:rdf="http://www.w3.org/1999/02/22-rdf-syntax-ns#"
   xmlns:svg="http://www.w3.org/2000/svg"
   xmlns="http://www.w3.org/2000/svg"
   viewBox="0 0 213.33333 110.66667"
   height="110.66667"
   width="213.33333"
   xml:space="preserve"
   id="svg2"
   version="1.1"><metadata
     id="metadata8"><rdf:RDF><cc:Work
         rdf:about=""><dc:format>image/svg+xml</dc:format><dc:type
           rdf:resource="http://purl.org/dc/dcmitype/StillImage" /></cc:Work></rdf:RDF></metadata><defs
     id="defs6"><clipPath
       id="clipPath24"
       clipPathUnits="userSpaceOnUse"><path
         id="path22"
         d="M 0,0 H 160 V 83 H 0 Z" /></clipPath></defs><g
     transform="matrix(1.3333333,0,0,-1.3333333,0,110.66667)"
     id="g10"><g
       id="g12" /><g
       id="g14" /><g
       id="g16"><g
         id="g18"><g
           clip-path="url(#clipPath24)"
           id="g20"><g
             id="g26" /><g
             id="g28"><text
               id="text32"
               style="font-variant:normal;font-weight:normal;font-size:11.95500088px;font-family:CMMI12;-inkscape-font-specification:CMMI12;writing-mode:lr-tb;fill:#231f20;fill-opacity:1;fill-rule:nonzero;stroke:none"
               transform="matrix(1,0,0,-1,155.5,6)"><tspan
                 id="tspan30"
                 y="0"
                 x="0">t</tspan></text>
<path
               id="path34"
               style="fill:#000000;fill-opacity:1;fill-rule:nonzero;stroke:#000000;stroke-width:0.5;stroke-linecap:butt;stroke-linejoin:round;stroke-miterlimit:4;stroke-dasharray:none;stroke-opacity:1"
               d="M 33.02,5 V 72.329002" /><path
               id="path36"
               style="fill:#000000;fill-opacity:1;fill-rule:nonzero;stroke:none"
               d="m 32.966003,71.922005 -1.988002,-1.330002 -0.045,0.075 1.288,3.566002 c 0.248001,1.243004 0.497001,2.486 0.745002,3.729004 0.248997,-1.243004 0.496998,-2.486 0.745999,-3.729004 L 35,70.667 l -0.034,-0.075 -2,1.330002" /><path
               id="path38"
               style="fill:#000000;fill-opacity:1;fill-rule:nonzero;stroke:none"
               d="m 149.619,13.929001 -1.59599,1.989 0.09,0.045 4.28,-1.287999 c 1.49099,-0.248 2.983,-0.497001 4.47399,-0.746 -1.49099,-0.248 -2.983,-0.497 -4.47399,-0.745 l -4.28,-1.288 -0.09,0.034 1.59599,1.999002" /><path
               id="path40"
               style="fill:none;stroke:#000000;stroke-width:0.5;stroke-linecap:butt;stroke-linejoin:round;stroke-miterlimit:4;stroke-dasharray:none;stroke-opacity:1"
               d="M 0,13.992001 H 152.23801" /><path
               id="path42"
               style="fill:none;stroke:#000000;stroke-width:1;stroke-linecap:butt;stroke-linejoin:miter;stroke-miterlimit:4;stroke-dasharray:none;stroke-opacity:1"
               d="m 76.487007,45.965004 c -7.321007,2.84 -18.593006,4.658997 -31.237007,4.658997 -2.638996,0 -5.216999,-0.079 -7.712997,-0.23 m 39.542999,-19.487 c 9.979004,-5.09 24.611998,-8.302 40.919998,-8.302" /><path
               id="path44"
               style="fill:none;stroke:#000000;stroke-width:0.5;stroke-linecap:butt;stroke-linejoin:miter;stroke-miterlimit:4;stroke-dasharray:3, 3, 3, 3, 3;stroke-dashoffset:0;stroke-opacity:1"
               d="m 76.5,46.5 v -32" /><text
               id="text48"
               style="font-variant:normal;font-weight:normal;font-size:11.95500088px;font-family:CMMI12;-inkscape-font-specification:CMMI12;writing-mode:lr-tb;fill:#231f20;fill-opacity:1;fill-rule:nonzero;stroke:none"
               transform="matrix(1,0,0,-1,35.017899,70.440201)"><tspan
                 id="tspan46"
                 y="0"
                 x="0">f</tspan></text>
<text
               id="text52"
               style="font-variant:normal;font-weight:normal;font-size:11.95500088px;font-family:CMR12;-inkscape-font-specification:CMR12;writing-mode:lr-tb;fill:#231f20;fill-opacity:1;fill-rule:nonzero;stroke:none"
               transform="matrix(1,0,0,-1,42.065372,70.440201)"><tspan
                 id="tspan50"
                 y="0"
                 x="0">(</tspan></text>
<text
               id="text56"
               style="font-variant:normal;font-weight:normal;font-size:11.95500088px;font-family:CMMI12;-inkscape-font-specification:CMMI12;writing-mode:lr-tb;fill:#231f20;fill-opacity:1;fill-rule:nonzero;stroke:none"
               transform="matrix(1,0,0,-1,46.617836,70.440201)"><tspan
                 id="tspan54"
                 y="0"
                 x="0">t</tspan></text>
<text
               id="text60"
               style="font-variant:normal;font-weight:normal;font-size:11.95500088px;font-family:CMR12;-inkscape-font-specification:CMR12;writing-mode:lr-tb;fill:#231f20;fill-opacity:1;fill-rule:nonzero;stroke:none"
               transform="matrix(1,0,0,-1,50.845123,70.440201)"><tspan
                 id="tspan58"
                 y="0"
                 x="0">)</tspan></text>
<text
               id="text64"
               style="font-variant:normal;font-weight:normal;font-size:11.95500088px;font-family:CMMI12;-inkscape-font-specification:CMMI12;writing-mode:lr-tb;fill:#231f20;fill-opacity:1;fill-rule:nonzero;stroke:none"
               transform="matrix(1,0,0,-1,73.760468,4.2023249)"><tspan
                 id="tspan62"
                 y="0"
                 x="0">t</tspan></text>
<text
               id="text68"
               style="font-variant:normal;font-weight:normal;font-size:7.96999979px;font-family:CMR8;-inkscape-font-specification:CMR8;writing-mode:lr-tb;fill:#231f20;fill-opacity:1;fill-rule:nonzero;stroke:none"
               transform="matrix(1,0,0,-1,77.985901,2.4091001)"><tspan
                 id="tspan66"
                 y="0"
                 x="0">1</tspan></text>
<path
               id="path70"
               style="fill:none;stroke:#000000;stroke-width:1;stroke-linecap:butt;stroke-linejoin:miter;stroke-miterlimit:4;stroke-dasharray:none;stroke-opacity:1"
               d="m 69.251007,53.926003 c -3.660004,1.420001 -8.308002,2.584999 -13.622005,3.395" /><path
               id="path72"
               style="fill:#000000;fill-opacity:1;fill-rule:nonzero;stroke:none"
               d="m 69.371002,53.699001 -0.369995,2.075001 0.072,0.01599 L 71.39,53.639994 c 0.873,-0.579996 1.745002,-1.159994 2.618003,-1.739992 -1.034996,0.159996 -2.070999,0.320999 -3.107002,0.481002 l -3.159996,-0.026 -0.04601,0.051 1.676002,1.292999" /><path
               id="path74"
               style="fill:none;stroke:#000000;stroke-width:1;stroke-linecap:butt;stroke-linejoin:miter;stroke-miterlimit:4;stroke-dasharray:none;stroke-opacity:1"
               d="M 80.942001,24.776001 C 85.791,22.303001 91.739006,20.273001 98.443008,18.84" /><path
               id="path76"
               style="fill:#000000;fill-opacity:1;fill-rule:nonzero;stroke:none"
               d="m 85.189995,22.799002 0.157013,-2.102001 -0.07301,-0.009 -2.086998,2.375 c -0.808998,0.664999 -1.618004,1.330999 -2.428001,1.996 1.014,-0.264 2.028,-0.528 3.042,-0.793001 l 3.147003,-0.295 0.041,-0.055 -1.799011,-1.116998" /></g></g></g></g></g></svg>