<?xml version="1.0" encoding="UTF-8" standalone="no"?>
<svg
   xmlns:dc="http://purl.org/dc/elements/1.1/"
   xmlns:cc="http://creativecommons.org/ns#"
   xmlns:rdf="http://www.w3.org/1999/02/22-rdf-syntax-ns#"
   xmlns:svg="http://www.w3.org/2000/svg"
   xmlns="http://www.w3.org/2000/svg"
   viewBox="0 0 478.66666 152"
   height="152"
   width="478.66666"
   xml:space="preserve"
   id="svg2"
   version="1.1"><metadata
     id="metadata8"><rdf:RDF><cc:Work
         rdf:about=""><dc:format>image/svg+xml</dc:format><dc:type
           rdf:resource="http://purl.org/dc/dcmitype/StillImage" /></cc:Work></rdf:RDF></metadata><defs
     id="defs6"><clipPath
       id="clipPath24"
       clipPathUnits="userSpaceOnUse"><path
         id="path22"
         d="M 0,0 H 359 V 114 H 0 Z" /></clipPath><clipPath
       id="clipPath38"
       clipPathUnits="userSpaceOnUse"><path
         id="path36"
         d="M 0,0.05999756 H 358.134 V 113.927 L 0,113.927 Z" /></clipPath></defs><g
     transform="matrix(1.3333333,0,0,-1.3333333,0,152)"
     id="g10"><g
       id="g12" /><g
       id="g14" /><g
       id="g16"><g
         id="g18"><g
           clip-path="url(#clipPath24)"
           id="g20"><g
             id="g26" /><g
             id="g28"><path
               id="path30"
               style="fill:#afadae;fill-opacity:1;fill-rule:nonzero;stroke:none"
               d="M 0.40000001,27.734001 H 357.73401 V 0.399999 H 0.40000001 Z" /></g><g
             id="g32"><g
               clip-path="url(#clipPath38)"
               id="g34"><path
                 id="path40"
                 style="fill:none;stroke:#231f20;stroke-width:0.80000001;stroke-linecap:butt;stroke-linejoin:miter;stroke-miterlimit:4;stroke-dasharray:none;stroke-opacity:1"
                 d="M 0.40000001,27.734001 H 357.73401 V 0.39999962 H 0.40000001 Z" /></g></g><g
             id="g42"><path
               id="path44"
               style="fill:#898787;fill-opacity:1;fill-rule:nonzero;stroke:none"
               d="M 60.400002,78.401001 H 271.73401 v -12.667 H 60.400002 Z" /><path
               id="path46"
               style="fill:none;stroke:#231f20;stroke-width:1;stroke-linecap:butt;stroke-linejoin:miter;stroke-miterlimit:4;stroke-dasharray:none;stroke-opacity:1"
               d="M 60.400002,78.401001 H 271.73401 v -12.667 H 60.400002 Z" /><path
               id="path48"
               style="fill:#898787;fill-opacity:1;fill-rule:nonzero;stroke:none"
               d="M 34.400002,71.734001 H 330.39999" /><path
               id="path50"
               style="fill:none;stroke:#231f20;stroke-width:0.80000001;stroke-linecap:butt;stroke-linejoin:miter;stroke-miterlimit:4;stroke-dasharray:3, 3, 3, 3, 3, 3;stroke-dashoffset:0;stroke-opacity:1"
               d="M 34.400002,71.734001 H 330.39999" /><path
               id="path52"
               style="fill:#231f20;fill-opacity:1;fill-rule:nonzero;stroke:none"
               d="m 332.76202,72.759003 c -1.65402,0.499 -2.72799,0.958999 -4.05401,1.490997 v -5.043999 c 0.474,0.224999 2.39999,0.992005 4.05401,1.492005 1.76999,0.533996 3.37299,0.900001 4.41401,1.029998 -1.04102,0.130997 -2.64402,0.496003 -4.41401,1.030999" /><path
               id="path54"
               style="fill:none;stroke:#231f20;stroke-width:0.80000001;stroke-linecap:butt;stroke-linejoin:miter;stroke-miterlimit:4;stroke-dasharray:1, 1, 1, 1, 1, 1;stroke-dashoffset:0;stroke-opacity:1"
               d="M 272.32999,71.322006 C 243.03702,63.219997 206.29201,58.400002 166.40001,58.400002 c -39.89002,0 -76.632005,4.819 -105.924008,12.919998" /><path
               id="path56"
               style="fill:none;stroke:#231f20;stroke-width:0.80000001;stroke-linecap:butt;stroke-linejoin:miter;stroke-miterlimit:4;stroke-dasharray:none;stroke-opacity:1"
               d="m 141.067,71.734001 v -12 m -73.333998,-10.667 H 133.067" /><path
               id="path58"
               style="fill:#231f20;fill-opacity:1;fill-rule:nonzero;stroke:none"
               d="m 134.957,49.887001 c -1.323,0.400002 -2.183,0.768002 -3.24399,1.192997 v -4.034996 c 0.37999,0.18 1.92099,0.793999 3.24399,1.193001 1.41501,0.428001 2.69901,0.721 3.53101,0.825001 -0.832,0.104 -2.116,0.396995 -3.53101,0.823997" /><path
               id="path60"
               style="fill:#231f20;fill-opacity:1;fill-rule:nonzero;stroke:none"
               d="M 65.843002,48.247002 C 67.166,47.847004 68.026001,47.48 69.087006,47.054001 V 51.09 C 68.707001,50.909004 67.166,50.295002 65.843002,49.896004 c -1.415001,-0.428002 -2.698997,-0.720001 -3.530998,-0.824002 0.832001,-0.104999 2.115997,-0.396999 3.530998,-0.825" /><path
               id="path62"
               style="fill:none;stroke:#231f20;stroke-width:0.80000001;stroke-linecap:butt;stroke-linejoin:miter;stroke-miterlimit:4;stroke-dasharray:none;stroke-opacity:1"
               d="m 60.400002,17.067001 v 54" /><path
               id="path64"
               style="fill:#231f20;fill-opacity:1;fill-rule:nonzero;stroke:none"
               d="m 61.219997,15.177001 c 0.400002,1.322999 0.767006,2.182998 1.193005,3.244 h -4.035999 c 0.180999,-0.380001 0.795002,-1.921001 1.194,-3.244 0.428001,-1.416 0.721001,-2.699 0.825001,-3.531 0.103996,0.832 0.396,2.115 0.823993,3.531" /><path
               id="path66"
               style="fill:none;stroke:#231f20;stroke-width:0.80000001;stroke-linecap:butt;stroke-linejoin:miter;stroke-miterlimit:4;stroke-dasharray:none;stroke-opacity:1"
               d="m 263.06702,27.734001 8.66699,38 10,-37.333 M 51.399002,27.4 60.067001,65.400002 70.066002,28.067001 m -7.666,71.667 H 271.06702" /><path
               id="path68"
               style="fill:none;stroke:#231f20;stroke-width:2;stroke-linecap:butt;stroke-linejoin:miter;stroke-miterlimit:4;stroke-dasharray:none;stroke-opacity:1"
               d="M 69.733002,99.734001 V 92.400002" /><path
               id="path70"
               style="fill:#231f20;fill-opacity:1;fill-rule:nonzero;stroke:none"
               d="m 71.783005,87.677002 c 0.999,3.306 1.918998,5.456001 2.984001,8.108002 H 64.678001 c 0.451004,-0.948998 1.985001,-4.802002 2.983002,-8.108002 1.068993,-3.540001 1.801003,-6.749001 2.061997,-8.830002 0.260002,2.081001 0.992004,5.290001 2.060005,8.830002" /><path
               id="path72"
               style="fill:none;stroke:#231f20;stroke-width:2;stroke-linecap:butt;stroke-linejoin:miter;stroke-miterlimit:4;stroke-dasharray:none;stroke-opacity:1"
               d="M 262.73401,99.067001 V 91.733002" /><path
               id="path74"
               style="fill:#231f20;fill-opacity:1;fill-rule:nonzero;stroke:none"
               d="m 264.78403,87.009995 c 0.99899,3.306007 1.91897,5.455009 2.98297,8.108009 h -10.08899 c 0.45099,-0.948998 1.98599,-4.802002 2.98401,-8.108009 1.069,-3.539994 1.79999,-6.748993 2.061,-8.829995 0.26099,2.081002 0.99201,5.290001 2.06101,8.829995" /><path
               id="path76"
               style="fill:none;stroke:#231f20;stroke-width:2;stroke-linecap:butt;stroke-linejoin:miter;stroke-miterlimit:4;stroke-dasharray:none;stroke-opacity:1"
               d="M 94.734001,99.067001 V 91.733002" /><path
               id="path78"
               style="fill:#231f20;fill-opacity:1;fill-rule:nonzero;stroke:none"
               d="m 96.784004,87.009995 c 0.999001,3.306007 1.918999,5.455009 2.983002,8.108009 H 89.678001 c 0.451004,-0.948998 1.986,-4.802002 2.984002,-8.108009 1.069,-3.539994 1.800003,-6.748993 2.061004,-8.829995 0.260994,2.081002 0.991997,5.290001 2.060997,8.829995" /><path
               id="path80"
               style="fill:none;stroke:#231f20;stroke-width:2;stroke-linecap:butt;stroke-linejoin:miter;stroke-miterlimit:4;stroke-dasharray:none;stroke-opacity:1"
               d="m 116.73301,99.067001 v -7.333" /><path
               id="path82"
               style="fill:#231f20;fill-opacity:1;fill-rule:nonzero;stroke:none"
               d="m 118.783,87.009995 c 0.99901,3.307006 1.919,5.456008 2.98401,8.108009 h -10.089 c 0.451,-0.948998 1.98499,-4.801003 2.98299,-8.108009 1.069,-3.538994 1.80101,-6.747994 2.06201,-8.828988 0.26,2.080994 0.99199,5.289994 2.05999,8.828988" /><path
               id="path84"
               style="fill:none;stroke:#231f20;stroke-width:2;stroke-linecap:butt;stroke-linejoin:miter;stroke-miterlimit:4;stroke-dasharray:none;stroke-opacity:1"
               d="m 138.35101,99.124008 v -7.333" /><path
               id="path86"
               style="fill:#231f20;fill-opacity:1;fill-rule:nonzero;stroke:none"
               d="m 140.40001,87.067001 c 0.99899,3.307 1.91899,5.456002 2.98399,8.109002 h -10.08899 c 0.45099,-0.949997 1.98499,-4.802002 2.98299,-8.109002 1.07001,-3.538993 1.80101,-6.748001 2.062,-8.828994 0.26101,2.080993 0.992,5.290001 2.06001,8.828994" /><path
               id="path88"
               style="fill:none;stroke:#231f20;stroke-width:2;stroke-linecap:butt;stroke-linejoin:miter;stroke-miterlimit:4;stroke-dasharray:none;stroke-opacity:1"
               d="m 160.40001,99.734001 v -7.333" /><path
               id="path90"
               style="fill:#231f20;fill-opacity:1;fill-rule:nonzero;stroke:none"
               d="m 162.45,87.677002 c 0.99901,3.306999 1.919,5.456001 2.98401,8.108002 H 155.345 c 0.45101,-0.948998 1.985,-4.801003 2.983,-8.108002 1.069,-3.539002 1.80101,-6.748001 2.062,-8.828995 0.25999,2.080994 0.992,5.289993 2.06,8.828995" /><path
               id="path92"
               style="fill:none;stroke:#231f20;stroke-width:2;stroke-linecap:butt;stroke-linejoin:miter;stroke-miterlimit:4;stroke-dasharray:none;stroke-opacity:1"
               d="M 180.73401,99.734001 V 92.400002" /><path
               id="path94"
               style="fill:#231f20;fill-opacity:1;fill-rule:nonzero;stroke:none"
               d="m 182.78401,87.677002 c 0.99899,3.306 1.91899,5.456001 2.983,8.108002 h -10.089 c 0.451,-0.948998 1.98599,-4.802002 2.98399,-8.108002 1.069,-3.540001 1.80001,-6.749001 2.06101,-8.830002 0.261,2.081001 0.992,5.290001 2.061,8.830002" /><path
               id="path96"
               style="fill:none;stroke:#231f20;stroke-width:2;stroke-linecap:butt;stroke-linejoin:miter;stroke-miterlimit:4;stroke-dasharray:none;stroke-opacity:1"
               d="m 201.40102,99.067001 v -7.333" /><path
               id="path98"
               style="fill:#231f20;fill-opacity:1;fill-rule:nonzero;stroke:none"
               d="m 203.451,87.009995 c 0.999,3.307006 1.919,5.456008 2.98301,8.108009 h -10.08899 c 0.45099,-0.948998 1.98599,-4.801003 2.98399,-8.108009 1.069,-3.538994 1.8,-6.747994 2.06099,-8.828988 0.26102,2.080994 0.992,5.289994 2.061,8.828988" /><path
               id="path100"
               style="fill:none;stroke:#231f20;stroke-width:2;stroke-linecap:butt;stroke-linejoin:miter;stroke-miterlimit:4;stroke-dasharray:none;stroke-opacity:1"
               d="m 222.06702,99.067001 v -7.333" /><path
               id="path102"
               style="fill:#231f20;fill-opacity:1;fill-rule:nonzero;stroke:none"
               d="m 224.117,87.009995 c 0.99901,3.307006 1.91901,5.456008 2.98301,8.108009 h -10.08899 c 0.45099,-0.948998 1.98599,-4.801003 2.98399,-8.108009 1.069,-3.538994 1.8,-6.747994 2.06101,-8.828988 0.261,2.080994 0.99198,5.289994 2.06098,8.828988" /><path
               id="path104"
               style="fill:none;stroke:#231f20;stroke-width:2;stroke-linecap:butt;stroke-linejoin:miter;stroke-miterlimit:4;stroke-dasharray:none;stroke-opacity:1"
               d="M 242.06801,99.067001 V 91.733002" /><path
               id="path106"
               style="fill:#231f20;fill-opacity:1;fill-rule:nonzero;stroke:none"
               d="m 244.11801,87.009995 c 0.99899,3.306007 1.91901,5.455009 2.983,8.108009 h -10.089 c 0.451,-0.948998 1.98601,-4.802002 2.98401,-8.108009 1.069,-3.539994 1.79999,-6.748993 2.06099,-8.829995 0.261,2.081002 0.992,5.290001 2.061,8.829995" /><text
               id="text110"
               style="font-variant:normal;font-weight:normal;font-size:11.95500088px;font-family:CMMI12;-inkscape-font-specification:CMMI12;writing-mode:lr-tb;fill:#231f20;fill-opacity:1;fill-rule:nonzero;stroke:none"
               transform="matrix(1,0,0,-1,143.86401,62.294197)"><tspan
                 id="tspan108"
                 y="0"
                 x="0">y</tspan></text>
<text
               id="text114"
               style="font-variant:normal;font-weight:normal;font-size:11.95500088px;font-family:CMR12;-inkscape-font-specification:CMR12;writing-mode:lr-tb;fill:#231f20;fill-opacity:1;fill-rule:nonzero;stroke:none"
               transform="matrix(1,0,0,-1,150.00052,62.294197)"><tspan
                 id="tspan112"
                 y="0"
                 x="0">(</tspan></text>
<text
               id="text118"
               style="font-variant:normal;font-weight:normal;font-size:11.95500088px;font-family:CMMI12;-inkscape-font-specification:CMMI12;writing-mode:lr-tb;fill:#231f20;fill-opacity:1;fill-rule:nonzero;stroke:none"
               transform="matrix(1,0,0,-1,154.55298,62.294197)"><tspan
                 id="tspan116"
                 y="0"
                 x="0">x</tspan></text>
<text
               id="text122"
               style="font-variant:normal;font-weight:normal;font-size:11.95500088px;font-family:CMR12;-inkscape-font-specification:CMR12;writing-mode:lr-tb;fill:#231f20;fill-opacity:1;fill-rule:nonzero;stroke:none"
               transform="matrix(1,0,0,-1,161.20593,62.294197)"><tspan
                 id="tspan120"
                 y="0"
                 x="0">)</tspan></text>
<text
               id="text126"
               style="font-variant:normal;font-weight:normal;font-size:11.95500088px;font-family:CMMI12;-inkscape-font-specification:CMMI12;writing-mode:lr-tb;fill:#231f20;fill-opacity:1;fill-rule:nonzero;stroke:none"
               transform="matrix(1,0,0,-1,94.993164,40.961693)"><tspan
                 id="tspan124"
                 y="0"
                 x="0">x</tspan></text>
<text
               id="text130"
               style="font-variant:normal;font-weight:normal;font-size:11.95500088px;font-family:CMMI12;-inkscape-font-specification:CMMI12;writing-mode:lr-tb;fill:#231f20;fill-opacity:1;fill-rule:nonzero;stroke:none"
               transform="matrix(1,0,0,-1,166.21269,9.6288319)"><tspan
                 id="tspan128"
                 y="0"
                 x="0">L</tspan></text>
<text
               id="text134"
               style="font-variant:normal;font-weight:normal;font-size:11.95500088px;font-family:CMMI12;-inkscape-font-specification:CMMI12;writing-mode:lr-tb;fill:#231f20;fill-opacity:1;fill-rule:nonzero;stroke:none"
               transform="matrix(1,0,0,-1,227.41273,104.96159)"><tspan
                 id="tspan132"
                 y="0"
                 x="0">q</tspan></text>
<text
               id="text138"
               style="font-variant:normal;font-weight:normal;font-size:11.95500088px;font-family:CMR12;-inkscape-font-specification:CMR12;writing-mode:lr-tb;fill:#231f20;fill-opacity:1;fill-rule:nonzero;stroke:none"
               transform="matrix(1,0,0,-1,7.0665369,91.374733)"><tspan
                 id="tspan136"
                 y="0"
                 x="0 8.2848158 13.485241 19.331236">Beam</tspan></text>
<text
               id="text142"
               style="font-variant:normal;font-weight:normal;font-size:11.95500088px;font-family:CMR12;-inkscape-font-specification:CMR12;writing-mode:lr-tb;fill:#231f20;fill-opacity:1;fill-rule:nonzero;stroke:none"
               transform="matrix(1,0,0,-1,193.39957,104.70815)"><tspan
                 id="tspan140"
                 y="0"
                 x="0 7.3045058 13.150501 18.996496">Load</tspan></text>
<text
               id="text146"
               style="font-variant:normal;font-weight:normal;font-size:11.95500088px;font-family:CMR12;-inkscape-font-specification:CMR12;writing-mode:lr-tb;fill:#231f20;fill-opacity:1;fill-rule:nonzero;stroke:none"
               transform="matrix(1,0,0,-1,6.1603351,12.041348)"><tspan
                 id="tspan144"
                 y="0"
                 x="0 9.1814404 13.724341 19.570337 26.061903 32.553467">Ground</tspan></text>
<path
               id="path148"
               style="fill:#231f20;fill-opacity:1;fill-rule:nonzero;stroke:none"
               d="m 29.733002,87.067001 30.667,-11.333" /><text
               id="text152"
               style="font-variant:normal;font-weight:normal;font-size:11.95500088px;font-family:CMMI12;-inkscape-font-specification:CMMI12;writing-mode:lr-tb;fill:#231f20;fill-opacity:1;fill-rule:nonzero;stroke:none"
               transform="matrix(1,0,0,-1,63.732899,11.067)"><tspan
                 id="tspan150"
                 y="0"
                 x="0">y</tspan></text>
<path
               id="path154"
               style="fill:#231f20;fill-opacity:1;fill-rule:nonzero;stroke:none"
               d="M 71.066002,21.067001 H 263.73401" /><path
               id="path156"
               style="fill:#231f20;fill-opacity:1;fill-rule:nonzero;stroke:none"
               d="m 266.09601,22.092001 c -1.65399,0.5 -2.728,0.959 -4.05399,1.492001 v -5.045001 c 0.474,0.226 2.4,0.993 4.05399,1.491999 1.77002,0.535002 3.37301,0.900002 4.41397,1.031 -1.04096,0.130001 -2.64395,0.496001 -4.41397,1.030001" /><path
               id="path158"
               style="fill:#231f20;fill-opacity:1;fill-rule:nonzero;stroke:none"
               d="m 68.705002,20.042002 c 1.653,-0.499001 2.728004,-0.959002 4.054001,-1.491001 v 5.044 c -0.474999,-0.226 -2.401001,-0.993 -4.054001,-1.492 -1.769997,-0.534001 -3.374001,-0.9 -4.415001,-1.029999 1.041,-0.131001 2.645004,-0.497002 4.415001,-1.031" /><text
               id="text162"
               style="font-variant:normal;font-weight:normal;font-size:11.95500088px;font-family:CMMI12;-inkscape-font-specification:CMMI12;writing-mode:lr-tb;fill:#231f20;fill-opacity:1;fill-rule:nonzero;stroke:none"
               transform="matrix(1,0,0,-1,335.32602,63.961197)"><tspan
                 id="tspan160"
                 y="0"
                 x="0">x</tspan></text>
</g></g></g></g></g></svg>