<?xml version="1.0" encoding="UTF-8" standalone="no"?>
<svg
   xmlns:dc="http://purl.org/dc/elements/1.1/"
   xmlns:cc="http://creativecommons.org/ns#"
   xmlns:rdf="http://www.w3.org/1999/02/22-rdf-syntax-ns#"
   xmlns:svg="http://www.w3.org/2000/svg"
   xmlns="http://www.w3.org/2000/svg"
   viewBox="0 0 313.33334 93.333336"
   height="93.333336"
   width="313.33334"
   xml:space="preserve"
   id="svg2"
   version="1.1"><metadata
     id="metadata8"><rdf:RDF><cc:Work
         rdf:about=""><dc:format>image/svg+xml</dc:format><dc:type
           rdf:resource="http://purl.org/dc/dcmitype/StillImage" /></cc:Work></rdf:RDF></metadata><defs
     id="defs6"><clipPath
       id="clipPath24"
       clipPathUnits="userSpaceOnUse"><path
         id="path22"
         d="M 0,0 H 235 V 70 H 0 Z" /></clipPath><clipPath
       id="clipPath124"
       clipPathUnits="userSpaceOnUse"><path
         id="path122"
         d="M 0,0 H 234.95999 V 69.049004 H 0 Z" /></clipPath><clipPath
       id="clipPath138"
       clipPathUnits="userSpaceOnUse"><path
         id="path136"
         d="M 0,0 H 234.95999 V 69.049004 H 0 Z" /></clipPath></defs><g
     transform="matrix(1.3333333,0,0,-1.3333333,0,93.333333)"
     id="g10"><g
       id="g12" /><g
       id="g14" /><g
       id="g16"><g
         id="g18"><g
           clip-path="url(#clipPath24)"
           id="g20"><g
             id="g26" /><g
             id="g28"><path
               id="path30"
               style="fill:#231f20;fill-opacity:1;fill-rule:nonzero;stroke:none"
               d="M 156,6.0490003 C 156,4.309 154.59,2.8990002 152.85101,2.8990002 c -1.74,0 -3.15001,1.4099998 -3.15001,3.1500001 0,1.7400002 1.41001,3.1500001 3.15001,3.1500001 C 154.59,9.1990004 156,7.7890005 156,6.0490003" /><path
               id="path32"
               style="fill:none;stroke:#231f20;stroke-width:1;stroke-linecap:butt;stroke-linejoin:miter;stroke-miterlimit:4;stroke-dasharray:none;stroke-opacity:1"
               d="M 156,6.0490003 C 156,4.309 154.59,2.8990002 152.85101,2.8990002 c -1.74,0 -3.15001,1.4099998 -3.15001,3.1500001 0,1.7400002 1.41001,3.1500001 3.15001,3.1500001 C 154.59,9.1990004 156,7.7890005 156,6.0490003 Z" /><path
               id="path34"
               style="fill:#231f20;fill-opacity:1;fill-rule:nonzero;stroke:none"
               d="m 87.149002,6.1990004 c 0,-1.7400003 -1.409996,-3.1500001 -3.149002,-3.1500001 -1.740005,0 -3.150002,1.4099998 -3.150002,3.1500001 C 80.849998,7.9380002 82.259995,9.349 84,9.349 c 1.739006,0 3.149002,-1.4109998 3.149002,-3.1499996" /><path
               id="path36"
               style="fill:none;stroke:#231f20;stroke-width:1;stroke-linecap:butt;stroke-linejoin:miter;stroke-miterlimit:4;stroke-dasharray:none;stroke-opacity:1"
               d="m 87.149002,6.1990004 c 0,-1.7400003 -1.409996,-3.1500001 -3.149002,-3.1500001 -1.740005,0 -3.150002,1.4099998 -3.150002,3.1500001 C 80.849998,7.9380002 82.259995,9.349 84,9.349 c 1.739006,0 3.149002,-1.4109998 3.149002,-3.1499996 z" /><path
               id="path38"
               style="fill:#ffffff;fill-opacity:1;fill-rule:nonzero;stroke:none"
               d="M 31.785002,46.041 H 61.184006 V 29.239999 H 31.785002 Z" /><path
               id="path40"
               style="fill:none;stroke:#ffffff;stroke-width:1;stroke-linecap:butt;stroke-linejoin:miter;stroke-miterlimit:4;stroke-dasharray:none;stroke-opacity:1"
               d="M 31.785002,46.041 H 61.184006 V 29.24 H 31.785002 Z" /><path
               id="path42"
               style="fill:none;stroke:#231f20;stroke-width:1;stroke-linecap:butt;stroke-linejoin:miter;stroke-miterlimit:4;stroke-dasharray:none;stroke-opacity:1"
               d="m 57.877003,36.695004 c 0,5.296997 1.552997,9.591999 3.469001,9.591999 1.914998,0 3.467999,-4.295002 3.467999,-9.591999 0,-5.296002 -1.553001,-9.592003 -3.467999,-9.592003 -1.916004,0 -3.469001,4.296001 -3.469001,9.592003 z m -13.680001,-0.054 c 0,5.297001 1.552998,9.590999 3.468998,9.590999 1.916001,0 3.470002,-4.293998 3.470002,-9.590999 0,-5.297001 -1.554001,-9.592001 -3.470002,-9.592001 -1.916,0 -3.468998,4.295 -3.468998,9.592001 z m 3.466999,0.266998 c 0,5.297001 1.553002,9.591999 3.469002,9.591999 1.916001,0 3.471001,-4.294998 3.471001,-9.591999 0,-5.298002 -1.555,-9.591999 -3.471001,-9.591999 -1.916,0 -3.469002,4.293997 -3.469002,9.591999 z m 3.464001,-0.126 c 0,5.297997 1.554001,9.593003 3.469002,9.593003 1.914997,0 3.468998,-4.295006 3.468998,-9.593003 0,-5.298 -1.554001,-9.590999 -3.468998,-9.590999 -1.915001,0 -3.469002,4.292999 -3.469002,9.590999 z m 3.469002,-0.140998 c 0,5.297001 1.552994,9.590999 3.468998,9.590999 1.916,0 3.469002,-4.293998 3.469002,-9.590999 0,-5.297001 -1.553002,-9.592001 -3.469002,-9.592001 -1.916004,0 -3.468998,4.295 -3.468998,9.592001 z m -13.655003,0.054 c 0,5.296997 1.554001,9.591999 3.470002,9.591999 1.916,0 3.468998,-4.295002 3.468998,-9.591999 0,-5.296002 -1.552998,-9.592003 -3.468998,-9.592003 -1.916001,0 -3.470002,4.296001 -3.470002,9.592003 z m -13.677999,-0.054 c 0,5.297001 1.552,9.590999 3.468,9.590999 1.916001,0 3.471001,-4.293998 3.471001,-9.590999 0,-5.297001 -1.555,-9.592001 -3.471001,-9.592001 -1.916,0 -3.468,4.295 -3.468,9.592001 z M 30.73,36.908001 c 0,5.297001 1.554,9.591999 3.469001,9.591999 1.916001,0 3.470997,-4.294998 3.470997,-9.591999 0,-5.298002 -1.554996,-9.591999 -3.470997,-9.591999 -1.915001,0 -3.469001,4.293997 -3.469001,9.591999 z m 3.465004,-0.126 c 0,5.297997 1.552997,9.593003 3.468997,9.593003 1.915997,0 3.469002,-4.295006 3.469002,-9.593003 0,-5.298 -1.553005,-9.590999 -3.469002,-9.590999 -1.916,0 -3.468997,4.292999 -3.468997,9.590999 z m 3.468997,-0.140998 c 0,5.297001 1.553002,9.590999 3.469002,9.590999 1.916996,0 3.471001,-4.293998 3.471001,-9.590999 0,-5.297001 -1.554005,-9.592001 -3.471001,-9.592001 -1.916,0 -3.469002,4.295 -3.469002,9.592001 z" /><path
               id="path44"
               style="fill:#ffffff;fill-opacity:1;fill-rule:nonzero;stroke:none"
               d="m 102.719,46.041 h 29.4 V 29.239999 h -29.4 z" /><path
               id="path46"
               style="fill:none;stroke:#ffffff;stroke-width:1;stroke-linecap:butt;stroke-linejoin:miter;stroke-miterlimit:4;stroke-dasharray:none;stroke-opacity:1"
               d="m 102.719,46.041 h 29.4 V 29.24 h -29.4 z" /><path
               id="path48"
               style="fill:none;stroke:#231f20;stroke-width:1;stroke-linecap:butt;stroke-linejoin:miter;stroke-miterlimit:4;stroke-dasharray:none;stroke-opacity:1"
               d="m 128.811,36.695004 c 0,5.296997 1.55301,9.591999 3.469,9.591999 1.91501,0 3.46901,-4.295002 3.46901,-9.591999 0,-5.296002 -1.554,-9.592003 -3.46901,-9.592003 -1.91599,0 -3.469,4.296001 -3.469,9.592003 z m -13.68,-0.054 c 0,5.297001 1.55301,9.590999 3.469,9.590999 1.91601,0 3.47,-4.293998 3.47,-9.590999 0,-5.297001 -1.55399,-9.592001 -3.47,-9.592001 -1.91599,0 -3.469,4.295 -3.469,9.592001 z m 3.46701,0.266998 c 0,5.297001 1.553,9.591999 3.469,9.591999 1.916,0 3.471,-4.294998 3.471,-9.591999 0,-5.298002 -1.555,-9.591999 -3.471,-9.591999 -1.916,0 -3.469,4.293997 -3.469,9.591999 z m 3.46399,-0.126 c 0,5.297997 1.554,9.593003 3.46901,9.593003 1.915,0 3.46899,-4.295006 3.46899,-9.593003 0,-5.298 -1.55399,-9.590999 -3.46899,-9.590999 -1.91501,0 -3.46901,4.292999 -3.46901,9.590999 z m 3.46901,-0.140998 c 0,5.297001 1.553,9.590999 3.46899,9.590999 1.91701,0 3.46901,-4.293998 3.46901,-9.590999 0,-5.297001 -1.552,-9.592001 -3.46901,-9.592001 -1.91599,0 -3.46899,4.295 -3.46899,9.592001 z m -13.655,0.054 c 0,5.296997 1.55399,9.591999 3.47,9.591999 1.916,0 3.46899,-4.295002 3.46899,-9.591999 0,-5.296002 -1.55299,-9.592003 -3.46899,-9.592003 -1.91601,0 -3.47,4.296001 -3.47,9.592003 z m -13.679004,-0.054 c 0,5.297001 1.552994,9.590999 3.470004,9.590999 1.916,0 3.47,-4.293998 3.47,-9.590999 0,-5.297001 -1.554,-9.592001 -3.47,-9.592001 -1.91701,0 -3.470004,4.295 -3.470004,9.592001 z m 3.468004,0.266998 c 0,5.297001 1.55299,9.591999 3.46799,9.591999 1.916,0 3.471,-4.294998 3.471,-9.591999 0,-5.298002 -1.555,-9.591999 -3.471,-9.591999 -1.915,0 -3.46799,4.293997 -3.46799,9.591999 z m 3.464,-0.126 c 0,5.297997 1.553,9.593003 3.469,9.593003 1.916,0 3.469,-4.295006 3.469,-9.593003 0,-5.298 -1.553,-9.590999 -3.469,-9.590999 -1.916,0 -3.469,4.292999 -3.469,9.590999 z m 3.469,-0.140998 c 0,5.297001 1.553,9.590999 3.469,9.590999 1.917,0 3.47099,-4.293998 3.47099,-9.590999 0,-5.297001 -1.55399,-9.592001 -3.47099,-9.592001 -1.916,0 -3.469,4.295 -3.469,9.592001 z" /><path
               id="path50"
               style="fill:#ffffff;fill-opacity:1;fill-rule:nonzero;stroke:none"
               d="M 173.71901,46.041 H 203.119 V 29.239999 h -29.39999 z" /><path
               id="path52"
               style="fill:none;stroke:#ffffff;stroke-width:1;stroke-linecap:butt;stroke-linejoin:miter;stroke-miterlimit:4;stroke-dasharray:none;stroke-opacity:1"
               d="M 173.71901,46.041 H 203.119 V 29.24 h -29.39999 z" /><path
               id="path54"
               style="fill:none;stroke:#231f20;stroke-width:1;stroke-linecap:butt;stroke-linejoin:miter;stroke-miterlimit:4;stroke-dasharray:none;stroke-opacity:1"
               d="m 199.811,36.695004 c 0,5.296997 1.55301,9.591999 3.469,9.591999 1.91501,0 3.46901,-4.295002 3.46901,-9.591999 0,-5.296002 -1.554,-9.592003 -3.46901,-9.592003 -1.91599,0 -3.469,4.296001 -3.469,9.592003 z m -13.67999,-0.054 c 0,5.297001 1.553,9.590999 3.469,9.590999 1.916,0 3.46998,-4.293998 3.46998,-9.590999 0,-5.297001 -1.55398,-9.592001 -3.46998,-9.592001 -1.916,0 -3.469,4.295 -3.469,9.592001 z m 3.467,0.266998 c 0,5.297001 1.55301,9.591999 3.46901,9.591999 1.91598,0 3.47099,-4.294998 3.47099,-9.591999 0,-5.298002 -1.55501,-9.591999 -3.47099,-9.591999 -1.916,0 -3.46901,4.293997 -3.46901,9.591999 z m 3.464,-0.126 c 0,5.297997 1.554,9.593003 3.469,9.593003 1.915,0 3.46899,-4.295006 3.46899,-9.593003 0,-5.298 -1.55399,-9.590999 -3.46899,-9.590999 -1.915,0 -3.469,4.292999 -3.469,9.590999 z m 3.469,-0.140998 c 0,5.297001 1.553,9.590999 3.46899,9.590999 1.91701,0 3.46901,-4.293998 3.46901,-9.590999 0,-5.297001 -1.552,-9.592001 -3.46901,-9.592001 -1.91599,0 -3.46899,4.295 -3.46899,9.592001 z m -13.655,0.054 c 0,5.296997 1.55398,9.591999 3.47,9.591999 1.916,0 3.46899,-4.295002 3.46899,-9.591999 0,-5.296002 -1.55299,-9.592003 -3.46899,-9.592003 -1.91602,0 -3.47,4.296001 -3.47,9.592003 z m -13.678,-0.054 c 0,5.297001 1.55199,9.590999 3.469,9.590999 1.916,0 3.47,-4.293998 3.47,-9.590999 0,-5.297001 -1.554,-9.592001 -3.47,-9.592001 -1.91701,0 -3.469,4.295 -3.469,9.592001 z m 3.467,0.266998 c 0,5.297001 1.55299,9.591999 3.468,9.591999 1.916,0 3.47099,-4.294998 3.47099,-9.591999 0,-5.298002 -1.55499,-9.591999 -3.47099,-9.591999 -1.91501,0 -3.468,4.293997 -3.468,9.591999 z m 3.464,-0.126 c 0,5.297997 1.553,9.593003 3.469,9.593003 1.916,0 3.46899,-4.295006 3.46899,-9.593003 0,-5.298 -1.55299,-9.590999 -3.46899,-9.590999 -1.916,0 -3.469,4.292999 -3.469,9.590999 z m 3.469,-0.140998 c 0,5.297001 1.55299,9.590999 3.46899,9.590999 1.91701,0 3.47101,-4.293998 3.47101,-9.590999 0,-5.297001 -1.554,-9.592001 -3.47101,-9.592001 -1.916,0 -3.46899,4.295 -3.46899,9.592001 z M 161,38.049004 c 0,-4.971001 -4.02899,-9.000002 -9,-9.000002 -4.97,0 -9,4.029001 -9,9.000002 0,4.970996 4.03,9 9,9 4.97101,0 9,-4.029004 9,-9 z m -68,-1 c 0,-4.971001 -4.028999,-9.000002 -9,-9.000002 -4.970993,0 -9,4.029001 -9,9.000002 0,4.970996 4.029007,9 9,9 4.971001,0 9,-4.029004 9,-9 z" /><path
               id="path56"
               style="fill:#959394;fill-opacity:1;fill-rule:nonzero;stroke:none"
               d="M 10,37.049004 H 230" /><path
               id="path58"
               style="fill:none;stroke:#231f20;stroke-width:1;stroke-linecap:butt;stroke-linejoin:miter;stroke-miterlimit:4;stroke-dasharray:none;stroke-opacity:1"
               d="M 10,37.049004 H 230" /><path
               id="path60"
               style="fill:#231f20;fill-opacity:1;fill-rule:nonzero;stroke:none"
               d="M 152,36.049004 V 6.0490003" /><path
               id="path62"
               style="fill:none;stroke:#231f20;stroke-width:1;stroke-linecap:butt;stroke-linejoin:miter;stroke-miterlimit:4;stroke-dasharray:2, 2, 2, 2, 2, 2;stroke-dashoffset:0;stroke-opacity:1"
               d="M 152,36.049004 V 6.0490003" /><path
               id="path64"
               style="fill:#231f20;fill-opacity:1;fill-rule:nonzero;stroke:none"
               d="M 83,37.049004 V 7.0490003" /><path
               id="path66"
               style="fill:none;stroke:#231f20;stroke-width:1;stroke-linecap:butt;stroke-linejoin:miter;stroke-miterlimit:4;stroke-dasharray:2, 2, 2, 2, 2, 2;stroke-dashoffset:0;stroke-opacity:1"
               d="M 83,37.049004 V 7.0490003" /><path
               id="path68"
               style="fill:#231f20;fill-opacity:1;fill-rule:nonzero;stroke:none"
               d="m 152,7.0490003 h 23" /><path
               id="path70"
               style="fill:none;stroke:#231f20;stroke-width:1;stroke-linecap:butt;stroke-linejoin:miter;stroke-miterlimit:4;stroke-dasharray:none;stroke-opacity:1"
               d="m 152,7.0490003 h 23" /><path
               id="path72"
               style="fill:#231f20;fill-opacity:1;fill-rule:nonzero;stroke:none"
               d="M 177.36201,8.0740004 C 175.70901,8.573 174.634,9.033 173.30801,9.5650005 V 4.5210004 c 0.47499,0.2259998 2.401,0.993 4.054,1.4920001 1.769,0.5339999 3.375,0.8999996 4.415,1.0299997 -1.04,0.1310001 -2.646,0.4969998 -4.415,1.0310002" /><path
               id="path74"
               style="fill:#231f20;fill-opacity:1;fill-rule:nonzero;stroke:none"
               d="m 83,7.0490003 h 23" /><path
               id="path76"
               style="fill:none;stroke:#231f20;stroke-width:1;stroke-linecap:butt;stroke-linejoin:miter;stroke-miterlimit:4;stroke-dasharray:none;stroke-opacity:1"
               d="m 83,7.0490003 h 23" /><path
               id="path78"
               style="fill:#231f20;fill-opacity:1;fill-rule:nonzero;stroke:none"
               d="M 108.36201,8.0740004 C 106.70901,8.573 105.634,9.033 104.30801,9.5650005 V 4.5210004 c 0.47499,0.2259998 2.401,0.993 4.054,1.4920001 1.76899,0.5339999 3.375,0.8999996 4.415,1.0299997 -1.04,0.1310001 -2.64601,0.4969998 -4.415,1.0310002" /><text
               id="text82"
               style="font-variant:normal;font-weight:normal;font-size:11.95500088px;font-family:CMMI12;-inkscape-font-specification:CMMI12;writing-mode:lr-tb;fill:#231f20;fill-opacity:1;fill-rule:nonzero;stroke:none"
               transform="matrix(1,0,0,-1,117,5.0488997)"><tspan
                 id="tspan80"
                 y="0"
                 x="0">y</tspan></text>
<text
               id="text86"
               style="font-variant:normal;font-weight:normal;font-size:7.96999979px;font-family:CMR8;-inkscape-font-specification:CMR8;writing-mode:lr-tb;fill:#231f20;fill-opacity:1;fill-rule:nonzero;stroke:none"
               transform="matrix(1,0,0,-1,122.70701,3.2553999)"><tspan
                 id="tspan84"
                 y="0"
                 x="0">1</tspan></text>
<text
               id="text90"
               style="font-variant:normal;font-weight:normal;font-size:11.95500088px;font-family:CMMI12;-inkscape-font-specification:CMMI12;writing-mode:lr-tb;fill:#231f20;fill-opacity:1;fill-rule:nonzero;stroke:none"
               transform="matrix(1,0,0,-1,185.73901,3.7861998)"><tspan
                 id="tspan88"
                 y="0"
                 x="0">y</tspan></text>
<text
               id="text94"
               style="font-variant:normal;font-weight:normal;font-size:7.96999979px;font-family:CMR8;-inkscape-font-specification:CMR8;writing-mode:lr-tb;fill:#231f20;fill-opacity:1;fill-rule:nonzero;stroke:none"
               transform="matrix(1,0,0,-1,191.44501,1.9927)"><tspan
                 id="tspan92"
                 y="0"
                 x="0">2</tspan></text>
<text
               id="text98"
               style="font-variant:normal;font-weight:normal;font-size:11.95500088px;font-family:CMMI12;-inkscape-font-specification:CMMI12;writing-mode:lr-tb;fill:#231f20;fill-opacity:1;fill-rule:nonzero;stroke:none"
               transform="matrix(1,0,0,-1,43,52.048897)"><tspan
                 id="tspan96"
                 y="0"
                 x="0">k</tspan></text>
<text
               id="text102"
               style="font-variant:normal;font-weight:normal;font-size:11.95500088px;font-family:CMMI12;-inkscape-font-specification:CMMI12;writing-mode:lr-tb;fill:#231f20;fill-opacity:1;fill-rule:nonzero;stroke:none"
               transform="matrix(1,0,0,-1,78.472878,51.785885)"><tspan
                 id="tspan100"
                 y="0"
                 x="0">m</tspan></text>
<text
               id="text106"
               style="font-variant:normal;font-weight:normal;font-size:11.95500088px;font-family:CMMI12;-inkscape-font-specification:CMMI12;writing-mode:lr-tb;fill:#231f20;fill-opacity:1;fill-rule:nonzero;stroke:none"
               transform="matrix(1,0,0,-1,146.03297,51.842072)"><tspan
                 id="tspan104"
                 y="0"
                 x="0">m</tspan></text>
<text
               id="text110"
               style="font-variant:normal;font-weight:normal;font-size:11.95500088px;font-family:CMMI12;-inkscape-font-specification:CMMI12;writing-mode:lr-tb;fill:#231f20;fill-opacity:1;fill-rule:nonzero;stroke:none"
               transform="matrix(1,0,0,-1,114.55307,52.311905)"><tspan
                 id="tspan108"
                 y="0"
                 x="0">k</tspan></text>
<text
               id="text114"
               style="font-variant:normal;font-weight:normal;font-size:11.95500088px;font-family:CMMI12;-inkscape-font-specification:CMMI12;writing-mode:lr-tb;fill:#231f20;fill-opacity:1;fill-rule:nonzero;stroke:none"
               transform="matrix(1,0,0,-1,187.55269,51.311272)"><tspan
                 id="tspan112"
                 y="0"
                 x="0">k</tspan></text>
<path
               id="path116"
               style="fill:#959394;fill-opacity:1;fill-rule:nonzero;stroke:none"
               d="m 215.5,68.549004 h 19 v -63 h -19 z" /></g><g
             id="g118"><g
               clip-path="url(#clipPath124)"
               id="g120"><path
                 id="path126"
                 style="fill:none;stroke:#231f20;stroke-width:1;stroke-linecap:butt;stroke-linejoin:miter;stroke-miterlimit:4;stroke-dasharray:none;stroke-opacity:1"
                 d="m 215.5,68.549004 h 19 V 5.5490036 h -19 z" /></g></g><g
             id="g128"><path
               id="path130"
               style="fill:#959394;fill-opacity:1;fill-rule:nonzero;stroke:none"
               d="m 0.5,68.549004 h 19 v -63 h -19 z" /></g><g
             id="g132"><g
               clip-path="url(#clipPath138)"
               id="g134"><path
                 id="path140"
                 style="fill:none;stroke:#231f20;stroke-width:1;stroke-linecap:butt;stroke-linejoin:miter;stroke-miterlimit:4;stroke-dasharray:none;stroke-opacity:1"
                 d="m 0.5,68.549004 h 19 V 5.5490036 h -19 z" /></g></g></g></g></g></g></svg>