<?xml version="1.0" encoding="UTF-8" standalone="no"?>
<svg
   xmlns:dc="http://purl.org/dc/elements/1.1/"
   xmlns:cc="http://creativecommons.org/ns#"
   xmlns:rdf="http://www.w3.org/1999/02/22-rdf-syntax-ns#"
   xmlns:svg="http://www.w3.org/2000/svg"
   xmlns="http://www.w3.org/2000/svg"
   viewBox="0 0 317.33334 169.33333"
   height="169.33333"
   width="317.33334"
   xml:space="preserve"
   id="svg2"
   version="1.1"><metadata
     id="metadata8"><rdf:RDF><cc:Work
         rdf:about=""><dc:format>image/svg+xml</dc:format><dc:type
           rdf:resource="http://purl.org/dc/dcmitype/StillImage" /></cc:Work></rdf:RDF></metadata><defs
     id="defs6"><clipPath
       id="clipPath24"
       clipPathUnits="userSpaceOnUse"><path
         id="path22"
         d="M 0,0 H 238 V 127 H 0 Z" /></clipPath><clipPath
       id="clipPath62"
       clipPathUnits="userSpaceOnUse"><path
         id="path60"
         d="M 0.06,0.05999756 H 237.26502 V 126.35 H 0.06 Z" /></clipPath></defs><g
     transform="matrix(1.3333333,0,0,-1.3333333,0,169.33333)"
     id="g10"><g
       id="g12" /><g
       id="g14" /><g
       id="g16"><g
         id="g18"><g
           clip-path="url(#clipPath24)"
           id="g20"><g
             id="g26" /><g
             id="g28"><path
               id="path30"
               style="fill:#ffffff;fill-opacity:1;fill-rule:nonzero;stroke:none"
               d="M 161.11401,24.049002 H 24.958002 V 117.14999 H 160.759" /><path
               id="path32"
               style="fill:none;stroke:#231f20;stroke-width:1;stroke-linecap:butt;stroke-linejoin:miter;stroke-miterlimit:4;stroke-dasharray:none;stroke-opacity:1"
               d="M 161.11401,24.049002 H 24.958002 V 117.14999 H 160.759" /><path
               id="path34"
               style="fill:#ffffff;fill-opacity:1;fill-rule:nonzero;stroke:none"
               d="M 221.44701,24.049002 H 85.292007 V 117.14999 H 221.09302" /><path
               id="path36"
               style="fill:none;stroke:#231f20;stroke-width:1;stroke-linecap:butt;stroke-linejoin:miter;stroke-miterlimit:4;stroke-dasharray:none;stroke-opacity:1"
               d="M 221.44701,24.049002 H 85.292007 V 117.14999 H 221.09302" /><path
               id="path38"
               style="fill:#231f20;fill-opacity:1;fill-rule:nonzero;stroke:none"
               d="m 223.576,86.5 c 0,-1.740005 -1.40998,-3.150002 -3.14898,-3.150002 -1.74001,0 -3.151,1.409997 -3.151,3.150002 0,1.739998 1.41099,3.150002 3.151,3.150002 1.739,0 3.14898,-1.410004 3.14898,-3.150002" /><path
               id="path40"
               style="fill:none;stroke:#231f20;stroke-width:1;stroke-linecap:butt;stroke-linejoin:miter;stroke-miterlimit:4;stroke-dasharray:none;stroke-opacity:1"
               d="m 223.576,86.5 c 0,-1.740005 -1.40998,-3.150002 -3.14898,-3.150002 -1.74001,0 -3.151,1.409997 -3.151,3.150002 0,1.739998 1.41099,3.150002 3.151,3.150002 1.739,0 3.14898,-1.410004 3.14898,-3.150002 z" /><path
               id="path42"
               style="fill:#231f20;fill-opacity:1;fill-rule:nonzero;stroke:none"
               d="M 224.87401,55.149998 C 224.87401,53.41 223.464,52 221.72501,52 c -1.741,0 -3.151,1.41 -3.151,3.149998 0,1.739006 1.41,3.150001 3.151,3.150001 1.73899,0 3.149,-1.410995 3.149,-3.150001" /><path
               id="path44"
               style="fill:none;stroke:#231f20;stroke-width:1;stroke-linecap:butt;stroke-linejoin:miter;stroke-miterlimit:4;stroke-dasharray:none;stroke-opacity:1"
               d="M 224.87401,55.149998 C 224.87401,53.41 223.464,52 221.72501,52 c -1.741,0 -3.151,1.41 -3.151,3.149998 0,1.739006 1.41,3.150001 3.151,3.150001 1.73899,0 3.149,-1.410995 3.149,-3.150001 z" /><path
               id="path46"
               style="fill:#231f20;fill-opacity:1;fill-rule:nonzero;stroke:none"
               d="M 92.446007,117.05 H 121.44601" /><path
               id="path48"
               style="fill:none;stroke:#231f20;stroke-width:0.69999999;stroke-linecap:butt;stroke-linejoin:miter;stroke-miterlimit:4;stroke-dasharray:none;stroke-opacity:1"
               d="M 92.446007,117.05 H 121.44601" /><path
               id="path50"
               style="fill:#ffffff;fill-opacity:1;fill-rule:nonzero;stroke:none"
               d="m 209.44601,75.049995 h 22 v -10 h -22 z" /><path
               id="path52"
               style="fill:none;stroke:#ffffff;stroke-width:2;stroke-linecap:butt;stroke-linejoin:miter;stroke-miterlimit:4;stroke-dasharray:none;stroke-opacity:1"
               d="m 209.44601,75.049995 h 22 v -10 h -22 z" /><path
               id="path54"
               style="fill:#ffffff;fill-opacity:1;fill-rule:nonzero;stroke:none"
               d="m 137.59201,125.85 h 29.399 v -16.8 h -29.399 z" /></g><g
             id="g56"><g
               clip-path="url(#clipPath62)"
               id="g58"><path
                 id="path64"
                 style="fill:none;stroke:#231f20;stroke-width:1;stroke-linecap:butt;stroke-linejoin:miter;stroke-miterlimit:4;stroke-dasharray:none;stroke-opacity:1"
                 d="m 137.59201,125.85 h 29.399 v -16.8 h -29.399 z" /></g></g><g
             id="g66"><path
               id="path68"
               style="fill:#ffffff;fill-opacity:1;fill-rule:nonzero;stroke:none"
               d="m 136.25999,31.517002 h 29.399 V 14.716001 h -29.399 z" /><path
               id="path70"
               style="fill:none;stroke:#ffffff;stroke-width:1;stroke-linecap:butt;stroke-linejoin:miter;stroke-miterlimit:4;stroke-dasharray:none;stroke-opacity:1"
               d="M 136.25999,31.517002 H 165.659 v -16.801 h -29.39901 z" /><path
               id="path72"
               style="fill:none;stroke:#231f20;stroke-width:1;stroke-linecap:butt;stroke-linejoin:miter;stroke-miterlimit:4;stroke-dasharray:none;stroke-opacity:1"
               d="m 139.567,24.062 c 0,-5.296999 -1.552,-9.592001 -3.468,-9.592001 -1.91499,0 -3.46901,4.295002 -3.46901,9.592001 0,5.297999 1.55402,9.592003 3.46901,9.592003 1.916,0 3.468,-4.294004 3.468,-9.592003 z m 13.68001,0.054 c 0,-5.297001 -1.55301,-9.592 -3.46901,-9.592 -1.916,0 -3.46899,4.294999 -3.46899,9.592 0,5.298 1.55299,9.591999 3.46899,9.591999 1.916,0 3.46901,-4.293999 3.46901,-9.591999 z M 149.78,23.849 c 0,-5.297001 -1.55199,-9.591001 -3.46799,-9.591001 -1.916,0 -3.47101,4.294 -3.47101,9.591001 0,5.298 1.55501,9.593 3.47101,9.593 1.916,0 3.46799,-4.295 3.46799,-9.593 z m -3.46399,0.126 c 0,-5.298 -1.55301,-9.592 -3.468,-9.592 -1.915,0 -3.47,4.294 -3.47,9.592 0,5.298001 1.555,9.592001 3.47,9.592001 1.91499,0 3.468,-4.294 3.468,-9.592001 z m -3.468,0.141001 c 0,-5.297001 -1.554,-9.592 -3.47,-9.592 -1.916,0 -3.469,4.294999 -3.469,9.592 0,5.298 1.553,9.591999 3.469,9.591999 1.916,0 3.47,-4.293999 3.47,-9.591999 z m 13.655,-0.054 c 0,-5.296999 -1.555,-9.592001 -3.471,-9.592001 -1.916,0 -3.46901,4.295002 -3.46901,9.592001 0,5.297999 1.55301,9.592003 3.46901,9.592003 1.916,0 3.471,-4.294004 3.471,-9.592003 z m 13.67801,0.054 c 0,-5.297001 -1.55301,-9.592 -3.46901,-9.592 -1.916,0 -3.471,4.294999 -3.471,9.592 0,5.298 1.555,9.591999 3.471,9.591999 1.916,0 3.46901,-4.293999 3.46901,-9.591999 z m -3.46702,-0.267 c 0,-5.297001 -1.554,-9.591001 -3.46899,-9.591001 -1.916,0 -3.47101,4.294 -3.47101,9.591001 0,5.298 1.55501,9.593 3.47101,9.593 1.91499,0 3.46899,-4.295 3.46899,-9.593 z M 163.24901,23.975 c 0,-5.298 -1.553,-9.592 -3.46901,-9.592 -1.91599,0 -3.46799,4.294 -3.46799,9.592 0,5.298001 1.552,9.592001 3.46799,9.592001 1.91601,0 3.46901,-4.294 3.46901,-9.592001 z M 159.78,24.116001 c 0,-5.297001 -1.55199,-9.592 -3.46799,-9.592 -1.91701,0 -3.47101,4.294999 -3.47101,9.592 0,5.298 1.554,9.591999 3.47101,9.591999 1.916,0 3.46799,-4.293999 3.46799,-9.591999 z" /><path
               id="path74"
               style="fill:#ffffff;fill-opacity:1;fill-rule:nonzero;stroke:none"
               d="M 76.891006,89.482002 H 93.692009 V 60.083 H 76.891006 Z" /><path
               id="path76"
               style="fill:none;stroke:#231f20;stroke-width:1;stroke-linecap:butt;stroke-linejoin:miter;stroke-miterlimit:4;stroke-dasharray:none;stroke-opacity:1"
               d="M 76.891006,89.482002 H 93.692009 V 60.083 H 76.891006 Z" /><path
               id="path78"
               style="fill:#ffffff;fill-opacity:1;fill-rule:nonzero;stroke:none"
               d="M 17.537001,88.571007 H 34.338002 V 59.171005 H 17.537001 Z" /><path
               id="path80"
               style="fill:none;stroke:#ffffff;stroke-width:1;stroke-linecap:butt;stroke-linejoin:miter;stroke-miterlimit:4;stroke-dasharray:none;stroke-opacity:1"
               d="m 17.537001,88.571007 h 16.801 V 59.171005 h -16.801 z" /><path
               id="path82"
               style="fill:none;stroke:#231f20;stroke-width:1;stroke-linecap:butt;stroke-linejoin:miter;stroke-miterlimit:4;stroke-dasharray:none;stroke-opacity:1"
               d="m 24.992001,62.479004 c 5.297,0 9.590999,-1.553001 9.590999,-3.469006 0,-1.914997 -4.293999,-3.468994 -9.590999,-3.468994 -5.296999,0 -9.592,1.553997 -9.592,3.468994 0,1.916005 4.295001,3.469006 9.592,3.469006 z m -0.055,13.679001 c 5.298001,0 9.592003,-1.552002 9.592003,-3.46801 0,-1.915993 -4.294002,-3.469994 -9.592003,-3.469994 -5.297001,0 -9.592,1.554001 -9.592,3.469994 0,1.916008 4.294999,3.46801 9.592,3.46801 z m 0.268002,-3.466004 c 5.295999,0 9.590999,-1.553001 9.590999,-3.469001 0,-1.915993 -4.295,-3.470993 -9.590999,-3.470993 -5.298001,0 -9.592001,1.555 -9.592001,3.470993 0,1.916 4.294,3.469001 9.592001,3.469001 z M 25.079,69.228004 c 5.297001,0 9.592001,-1.554 9.592001,-3.469001 0,-1.915001 -4.295,-3.470002 -9.592001,-3.470002 -5.298,0 -9.592,1.555001 -9.592,3.470002 0,1.915001 4.294,3.469001 9.592,3.469001 z m -0.142,-3.469001 c 5.298001,0 9.592003,-1.554001 9.592003,-3.470002 0,-1.916 -4.294002,-3.467998 -9.592003,-3.467998 -5.297001,0 -9.592,1.551998 -9.592,3.467998 0,1.916001 4.294999,3.470002 9.592,3.470002 z m 0.055,13.654998 c 5.297,0 9.590999,-1.554 9.590999,-3.470001 0,-1.916 -4.293999,-3.468994 -9.590999,-3.468994 -5.296999,0 -9.592,1.552994 -9.592,3.468994 0,1.916001 4.295001,3.470001 9.592,3.470001 z m -0.055,13.678002 c 5.298001,0 9.592003,-1.553002 9.592003,-3.469002 0,-1.916 -4.294002,-3.469993 -9.592003,-3.469993 -5.297001,0 -9.592,1.553993 -9.592,3.469993 0,1.916 4.294999,3.469002 9.592,3.469002 z m 0.268002,-3.466995 c 5.295999,0 9.590999,-1.553002 9.590999,-3.468003 0,-1.916 -4.295,-3.471 -9.590999,-3.471 -5.298001,0 -9.592001,1.555 -9.592001,3.471 0,1.915001 4.294,3.468003 9.592001,3.468003 z M 25.079,86.159996 c 5.297001,0 9.592001,-1.551994 9.592001,-3.467995 0,-1.916 -4.295,-3.468994 -9.592001,-3.468994 -5.298,0 -9.592,1.552994 -9.592,3.468994 0,1.916001 4.294,3.467995 9.592,3.467995 z m -0.142,-3.467995 c 5.298001,0 9.592003,-1.552993 9.592003,-3.468994 0,-1.917 -4.294002,-3.471 -9.592003,-3.471 -5.297001,0 -9.592,1.554 -9.592,3.471 0,1.916001 4.294999,3.468994 9.592,3.468994 z" /><path
               id="path84"
               style="fill:#231f20;fill-opacity:1;fill-rule:nonzero;stroke:none"
               d="M 220.39201,117.14999 V 86.049995" /><path
               id="path86"
               style="fill:none;stroke:#231f20;stroke-width:1;stroke-linecap:butt;stroke-linejoin:miter;stroke-miterlimit:4;stroke-dasharray:none;stroke-opacity:1"
               d="M 220.39201,117.14999 V 86.049995" /><path
               id="path88"
               style="fill:#231f20;fill-opacity:1;fill-rule:nonzero;stroke:none"
               d="M 221.72501,55.149998 V 24.049002" /><path
               id="path90"
               style="fill:none;stroke:#231f20;stroke-width:1;stroke-linecap:butt;stroke-linejoin:miter;stroke-miterlimit:4;stroke-dasharray:none;stroke-opacity:1"
               d="M 221.72501,55.149998 V 24.049002" /><text
               id="text94"
               style="font-variant:normal;font-weight:normal;font-size:11.95500088px;font-family:CMMI12;-inkscape-font-specification:CMMI12;writing-mode:lr-tb;fill:#231f20;fill-opacity:1;fill-rule:nonzero;stroke:none"
               transform="matrix(1,0,0,-1,146.069,3.7870002)"><tspan
                 id="tspan92"
                 y="0"
                 x="0">L</tspan></text>
<text
               id="text98"
               style="font-variant:normal;font-weight:normal;font-size:7.96999979px;font-family:CMR8;-inkscape-font-specification:CMR8;writing-mode:lr-tb;fill:#231f20;fill-opacity:1;fill-rule:nonzero;stroke:none"
               transform="matrix(1,0,0,-1,154.033,1.9930001)"><tspan
                 id="tspan96"
                 y="0"
                 x="0">1</tspan></text>
<text
               id="text102"
               style="font-variant:normal;font-weight:normal;font-size:11.95500088px;font-family:CMMI12;-inkscape-font-specification:CMMI12;writing-mode:lr-tb;fill:#231f20;fill-opacity:1;fill-rule:nonzero;stroke:none"
               transform="matrix(1,0,0,-1,0,72.453499)"><tspan
                 id="tspan100"
                 y="0"
                 x="0">L</tspan></text>
<text
               id="text106"
               style="font-variant:normal;font-weight:normal;font-size:7.96999979px;font-family:CMR8;-inkscape-font-specification:CMR8;writing-mode:lr-tb;fill:#231f20;fill-opacity:1;fill-rule:nonzero;stroke:none"
               transform="matrix(1,0,0,-1,7.9652996,70.660095)"><tspan
                 id="tspan104"
                 y="0"
                 x="0">2</tspan></text>
<text
               id="text110"
               style="font-variant:normal;font-weight:normal;font-size:11.95500088px;font-family:CMMI12;-inkscape-font-specification:CMMI12;writing-mode:lr-tb;fill:#231f20;fill-opacity:1;fill-rule:nonzero;stroke:none"
               transform="matrix(1,0,0,-1,145.931,113.4535)"><tspan
                 id="tspan108"
                 y="0"
                 x="0">R</tspan></text>
<text
               id="text114"
               style="font-variant:normal;font-weight:normal;font-size:7.96999979px;font-family:CMR8;-inkscape-font-specification:CMR8;writing-mode:lr-tb;fill:#231f20;fill-opacity:1;fill-rule:nonzero;stroke:none"
               transform="matrix(1,0,0,-1,154.84201,111.6601)"><tspan
                 id="tspan112"
                 y="0"
                 x="0">1</tspan></text>
<text
               id="text118"
               style="font-variant:normal;font-weight:normal;font-size:11.95500088px;font-family:CMMI12;-inkscape-font-specification:CMMI12;writing-mode:lr-tb;fill:#231f20;fill-opacity:1;fill-rule:nonzero;stroke:none"
               transform="matrix(1,0,0,-1,77.721199,72.119995)"><tspan
                 id="tspan116"
                 y="0"
                 x="0">R</tspan></text>
<text
               id="text122"
               style="font-variant:normal;font-weight:normal;font-size:7.96999979px;font-family:CMR8;-inkscape-font-specification:CMR8;writing-mode:lr-tb;fill:#231f20;fill-opacity:1;fill-rule:nonzero;stroke:none"
               transform="matrix(1,0,0,-1,86.631294,70.326599)"><tspan
                 id="tspan120"
                 y="0"
                 x="0">2</tspan></text>
<text
               id="text126"
               style="font-variant:normal;font-weight:normal;font-size:11.95500088px;font-family:CMMI12;-inkscape-font-specification:CMMI12;writing-mode:lr-tb;fill:#231f20;fill-opacity:1;fill-rule:nonzero;stroke:none"
               transform="matrix(1,0,0,-1,180.59801,68.453499)"><tspan
                 id="tspan124"
                 y="0"
                 x="0">i</tspan></text>
<text
               id="text130"
               style="font-variant:normal;font-weight:normal;font-size:7.96999979px;font-family:CMR8;-inkscape-font-specification:CMR8;writing-mode:lr-tb;fill:#231f20;fill-opacity:1;fill-rule:nonzero;stroke:none"
               transform="matrix(1,0,0,-1,184.59201,66.660095)"><tspan
                 id="tspan128"
                 y="0"
                 x="0">1</tspan></text>
<text
               id="text134"
               style="font-variant:normal;font-weight:normal;font-size:11.95500088px;font-family:CMMI12;-inkscape-font-specification:CMMI12;writing-mode:lr-tb;fill:#231f20;fill-opacity:1;fill-rule:nonzero;stroke:none"
               transform="matrix(1,0,0,-1,53.8936,48.119999)"><tspan
                 id="tspan132"
                 y="0"
                 x="0">i</tspan></text>
<text
               id="text138"
               style="font-variant:normal;font-weight:normal;font-size:7.96999979px;font-family:CMR8;-inkscape-font-specification:CMR8;writing-mode:lr-tb;fill:#231f20;fill-opacity:1;fill-rule:nonzero;stroke:none"
               transform="matrix(1,0,0,-1,57.8857,46.326599)"><tspan
                 id="tspan136"
                 y="0"
                 x="0">2</tspan></text>
<text
               id="text142"
               style="font-variant:normal;font-weight:normal;font-size:11.95500088px;font-family:CMMI12;-inkscape-font-specification:CMMI12;writing-mode:lr-tb;fill:#231f20;fill-opacity:1;fill-rule:nonzero;stroke:none"
               transform="matrix(1,0,0,-1,217.85501,69.453499)"><tspan
                 id="tspan140"
                 y="0"
                 x="0">v</tspan></text>
<text
               id="text146"
               style="font-variant:normal;font-weight:normal;font-size:11.95500088px;font-family:CMR12;-inkscape-font-specification:CMR12;writing-mode:lr-tb;fill:#231f20;fill-opacity:1;fill-rule:nonzero;stroke:none"
               transform="matrix(1,0,0,-1,223.94249,69.453499)"><tspan
                 id="tspan144"
                 y="0"
                 x="0">(</tspan></text>
<text
               id="text150"
               style="font-variant:normal;font-weight:normal;font-size:11.95500088px;font-family:CMMI12;-inkscape-font-specification:CMMI12;writing-mode:lr-tb;fill:#231f20;fill-opacity:1;fill-rule:nonzero;stroke:none"
               transform="matrix(1,0,0,-1,228.49495,69.453499)"><tspan
                 id="tspan148"
                 y="0"
                 x="0">t</tspan></text>
<text
               id="text154"
               style="font-variant:normal;font-weight:normal;font-size:11.95500088px;font-family:CMR12;-inkscape-font-specification:CMR12;writing-mode:lr-tb;fill:#231f20;fill-opacity:1;fill-rule:nonzero;stroke:none"
               transform="matrix(1,0,0,-1,232.72104,69.453499)"><tspan
                 id="tspan152"
                 y="0"
                 x="0">)</tspan></text>
<path
               id="path156"
               style="fill:none;stroke:#231f20;stroke-width:1;stroke-linecap:butt;stroke-linejoin:miter;stroke-miterlimit:4;stroke-dasharray:none;stroke-opacity:1"
               d="M 143.53999,57.492004 C 142.369,59.545002 141.7,61.921001 141.7,64.454002 c 0,7.775994 6.30301,14.080002 14.08,14.080002 7.77701,0 14.08,-6.304008 14.08,-14.080002 0,-2.911998 -0.88399,-5.618 -2.39799,-7.862999" /><path
               id="path158"
               style="fill:#231f20;fill-opacity:1;fill-rule:nonzero;stroke:none"
               d="m 167.15901,54.971004 c 0.858,0.697999 1.487,1.103997 2.24199,1.616997 l -2.67499,1.805001 c -0.051,-0.333004 -0.333,-1.628998 -0.66101,-2.684998 -0.34799,-1.130001 -0.72799,-2.112003 -1.032,-2.711002 0.44301,0.506 1.21001,1.226001 2.12601,1.974002" /><path
               id="path160"
               style="fill:none;stroke:#231f20;stroke-width:1;stroke-linecap:butt;stroke-linejoin:miter;stroke-miterlimit:4;stroke-dasharray:none;stroke-opacity:1"
               d="m 42.539001,60.492004 c -1.170997,2.052998 -1.84,4.429001 -1.84,6.961998 0,7.775994 6.304001,14.080002 14.080002,14.080002 7.777001,0 14.079998,-6.304008 14.079998,-14.080002 0,-2.912002 -0.883995,-5.618 -2.397995,-7.862999" /><path
               id="path162"
               style="fill:#231f20;fill-opacity:1;fill-rule:nonzero;stroke:none"
               d="m 66.159004,57.971004 c 0.855995,0.697999 1.486,1.104001 2.242996,1.616997 l -2.676994,1.805001 c -0.051,-0.333004 -0.332001,-1.628998 -0.660004,-2.684998 -0.347999,-1.130001 -0.729995,-2.112 -1.032997,-2.711002 0.443001,0.505001 1.209999,1.225002 2.126999,1.974002" /></g></g></g></g></g></svg>