<?xml version="1.0" encoding="UTF-8" standalone="no"?>
<svg
   xmlns:dc="http://purl.org/dc/elements/1.1/"
   xmlns:cc="http://creativecommons.org/ns#"
   xmlns:rdf="http://www.w3.org/1999/02/22-rdf-syntax-ns#"
   xmlns:svg="http://www.w3.org/2000/svg"
   xmlns="http://www.w3.org/2000/svg"
   viewBox="0 0 184 104"
   height="104"
   width="184"
   xml:space="preserve"
   id="svg2"
   version="1.1"><metadata
     id="metadata8"><rdf:RDF><cc:Work
         rdf:about=""><dc:format>image/svg+xml</dc:format><dc:type
           rdf:resource="http://purl.org/dc/dcmitype/StillImage" /></cc:Work></rdf:RDF></metadata><defs
     id="defs6"><clipPath
       id="clipPath24"
       clipPathUnits="userSpaceOnUse"><path
         id="path22"
         d="M 0,0 H 138 V 78 H 0 Z" /></clipPath><clipPath
       id="clipPath66"
       clipPathUnits="userSpaceOnUse"><path
         id="path64"
         d="M 0,0.05999756 H 137.09801 V 77.269997 H 0 Z" /></clipPath></defs><g
     transform="matrix(1.3333333,0,0,-1.3333333,0,104)"
     id="g10"><g
       id="g12" /><g
       id="g14" /><g
       id="g16"><g
         id="g18"><g
           clip-path="url(#clipPath24)"
           id="g20"><g
             id="g26" /><g
             id="g28"><path
               id="path30"
               style="fill:#ffffff;fill-opacity:1;fill-rule:nonzero;stroke:none"
               d="m 23.73,44.709999 v 25.969002 h 95.06101" /><path
               id="path32"
               style="fill:none;stroke:#231f20;stroke-width:1;stroke-linecap:butt;stroke-linejoin:miter;stroke-miterlimit:4;stroke-dasharray:none;stroke-opacity:1"
               d="m 23.73,44.709999 v 25.969002 h 95.06101" /><path
               id="path34"
               style="fill:#ffffff;fill-opacity:1;fill-rule:nonzero;stroke:none"
               d="M 63.843002,5.5090003 H 23.73 V 35.609001" /><path
               id="path36"
               style="fill:none;stroke:#231f20;stroke-width:1;stroke-linecap:butt;stroke-linejoin:miter;stroke-miterlimit:4;stroke-dasharray:none;stroke-opacity:1"
               d="M 63.843002,5.5090003 H 23.73 V 35.609001" /><path
               id="path38"
               style="fill:#ffffff;fill-opacity:1;fill-rule:nonzero;stroke:none"
               d="M 119.03901,5.5090003 H 81.939003 L 68.638,18.809" /><path
               id="path40"
               style="fill:none;stroke:#231f20;stroke-width:1;stroke-linecap:butt;stroke-linejoin:miter;stroke-miterlimit:4;stroke-dasharray:none;stroke-opacity:1"
               d="M 119.03901,5.5090003 H 81.939003 L 68.638,18.809" /><path
               id="path42"
               style="fill:#231f20;fill-opacity:1;fill-rule:nonzero;stroke:none"
               d="m 63.843002,4.914 c 0,-1.2179999 -0.986999,-2.204 -2.204998,-2.204 -1.218006,0 -2.205002,0.9860001 -2.205002,2.204 0,1.2180004 0.986996,2.2050004 2.205002,2.2050004 1.217999,0 2.204998,-0.987 2.204998,-2.2050004" /><path
               id="path44"
               style="fill:none;stroke:#231f20;stroke-width:1;stroke-linecap:butt;stroke-linejoin:miter;stroke-miterlimit:4;stroke-dasharray:none;stroke-opacity:1"
               d="m 63.843002,4.914 c 0,-1.2179999 -0.986999,-2.204 -2.204998,-2.204 -1.218006,0 -2.205002,0.9860001 -2.205002,2.204 0,1.2180004 0.986996,2.2050004 2.205002,2.2050004 1.217999,0 2.204998,-0.987 2.204998,-2.2050004 z" /><path
               id="path46"
               style="fill:#231f20;fill-opacity:1;fill-rule:nonzero;stroke:none"
               d="m 84.843002,4.914 c 0,-1.2179999 -0.986999,-2.204 -2.205002,-2.204 -1.216995,0 -2.204994,0.9860001 -2.204994,2.204 0,1.2180004 0.987999,2.2050004 2.204994,2.2050004 1.218003,0 2.205002,-0.987 2.205002,-2.2050004" /><path
               id="path48"
               style="fill:none;stroke:#231f20;stroke-width:1;stroke-linecap:butt;stroke-linejoin:miter;stroke-miterlimit:4;stroke-dasharray:none;stroke-opacity:1"
               d="m 84.843002,4.914 c 0,-1.2179999 -0.986999,-2.204 -2.205002,-2.204 -1.216995,0 -2.204994,0.9860001 -2.204994,2.204 0,1.2180004 0.987999,2.2050004 2.204994,2.2050004 1.218003,0 2.205002,-0.987 2.205002,-2.2050004 z" /><path
               id="path50"
               style="fill:#231f20;fill-opacity:1;fill-rule:nonzero;stroke:none"
               d="M 28.739002,70.609001 H 49.039001" /><path
               id="path52"
               style="fill:none;stroke:#231f20;stroke-width:0.69999999;stroke-linecap:butt;stroke-linejoin:miter;stroke-miterlimit:4;stroke-dasharray:none;stroke-opacity:1"
               d="M 28.739002,70.609001 H 49.039001" /><path
               id="path54"
               style="fill:#ffffff;fill-opacity:1;fill-rule:nonzero;stroke:none"
               d="m 110.63901,41.209999 h 15.4 v -7 h -15.4 z" /><path
               id="path56"
               style="fill:none;stroke:#ffffff;stroke-width:2;stroke-linecap:butt;stroke-linejoin:miter;stroke-miterlimit:4;stroke-dasharray:none;stroke-opacity:1"
               d="m 110.63901,41.209999 h 15.4 v -7 h -15.4 z" /><path
               id="path58"
               style="fill:#ffffff;fill-opacity:1;fill-rule:nonzero;stroke:none"
               d="M 60.34,76.769997 H 80.918999 V 65.009995 H 60.34 Z" /></g><g
             id="g60"><g
               clip-path="url(#clipPath66)"
               id="g62"><path
                 id="path68"
                 style="fill:none;stroke:#231f20;stroke-width:1;stroke-linecap:butt;stroke-linejoin:miter;stroke-miterlimit:4;stroke-dasharray:none;stroke-opacity:1"
                 d="M 60.34,76.769997 H 80.918999 V 65.009995 H 60.34 Z" /></g></g><g
             id="g70"><path
               id="path72"
               style="fill:#ffffff;fill-opacity:1;fill-rule:nonzero;stroke:none"
               d="m 114.145,47.753002 h 11.759 v -20.58 h -11.759 z" /><path
               id="path74"
               style="fill:none;stroke:#ffffff;stroke-width:1;stroke-linecap:butt;stroke-linejoin:miter;stroke-miterlimit:4;stroke-dasharray:none;stroke-opacity:1"
               d="m 114.145,47.753002 h 11.75901 v -20.58 H 114.145 Z" /><path
               id="path76"
               style="fill:none;stroke:#231f20;stroke-width:1;stroke-linecap:butt;stroke-linejoin:miter;stroke-miterlimit:4;stroke-dasharray:none;stroke-opacity:1"
               d="m 119.36201,29.488001 c 3.70799,0 6.71399,-1.087 6.71399,-2.428002 0,-1.34 -3.006,-2.427997 -6.71399,-2.427997 -3.708,0 -6.71401,1.087997 -6.71401,2.427997 0,1.341002 3.00601,2.428002 6.71401,2.428002 z m -0.038,9.576002 c 3.70899,0 6.715,-1.087002 6.715,-2.428001 0,-1.341 -3.00601,-2.429001 -6.715,-2.429001 -3.70801,0 -6.71401,1.088001 -6.71401,2.429001 0,1.340999 3.006,2.428001 6.71401,2.428001 z m 0.188,-2.427002 c 3.707,0 6.713,-1.087002 6.713,-2.427998 0,-1.341003 -3.006,-2.429004 -6.713,-2.429004 -3.709,0 -6.71501,1.088001 -6.71501,2.429004 0,1.340996 3.00601,2.427998 6.71501,2.427998 z m -0.088,-2.424 c 3.708,0 6.71401,-1.088001 6.71401,-2.427999 0,-1.341 -3.00601,-2.429001 -6.71401,-2.429001 -3.709,0 -6.71499,1.088001 -6.71499,2.429001 0,1.339998 3.00599,2.427999 6.71499,2.427999 z m -0.1,-2.427999 c 3.70899,0 6.715,-1.088 6.715,-2.429001 0,-1.341 -3.00601,-2.428 -6.715,-2.428 -3.70801,0 -6.71401,1.087 -6.71401,2.428 0,1.341001 3.006,2.429001 6.71401,2.429001 z m 0.038,9.558 c 3.70799,0 6.71399,-1.088001 6.71399,-2.429001 0,-1.340999 -3.006,-2.428001 -6.71399,-2.428001 -3.708,0 -6.71401,1.087002 -6.71401,2.428001 0,1.341 3.00601,2.429001 6.71401,2.429001 z m -0.038,9.575001 c 3.70899,0 6.715,-1.087002 6.715,-2.428005 0,-1.340996 -3.00601,-2.43 -6.715,-2.43 -3.70801,0 -6.71401,1.089004 -6.71401,2.43 0,1.341003 3.006,2.428005 6.71401,2.428005 z m 0.188,-2.427002 c 3.707,0 6.713,-1.087997 6.713,-2.427997 0,-1.341 -3.006,-2.430001 -6.713,-2.430001 -3.709,0 -6.71501,1.089001 -6.71501,2.430001 0,1.34 3.00601,2.427997 6.71501,2.427997 z m -0.088,-2.425999 c 3.708,0 6.71401,-1.085998 6.71401,-2.428001 0,-1.341 -3.00601,-2.427002 -6.71401,-2.427002 -3.709,0 -6.71499,1.086002 -6.71499,2.427002 0,1.342003 3.00599,2.428001 6.71499,2.428001 z m -0.1,-2.428001 c 3.70899,0 6.715,-1.087002 6.715,-2.427002 0,-1.342998 -3.00601,-2.43 -6.715,-2.43 -3.70801,0 -6.71401,1.087002 -6.71401,2.43 0,1.34 3.006,2.427002 6.71401,2.427002 z" /><path
               id="path78"
               style="fill:#231f20;fill-opacity:1;fill-rule:nonzero;stroke:none"
               d="M 118.301,70.679001 V 48.909004" /><path
               id="path80"
               style="fill:none;stroke:#231f20;stroke-width:1;stroke-linecap:butt;stroke-linejoin:miter;stroke-miterlimit:4;stroke-dasharray:none;stroke-opacity:1"
               d="M 118.301,70.679001 V 48.909004" /><path
               id="path82"
               style="fill:#231f20;fill-opacity:1;fill-rule:nonzero;stroke:none"
               d="M 119.23401,27.279001 V 5.5090003" /><path
               id="path84"
               style="fill:none;stroke:#231f20;stroke-width:1;stroke-linecap:butt;stroke-linejoin:miter;stroke-miterlimit:4;stroke-dasharray:none;stroke-opacity:1"
               d="M 119.23401,27.279001 V 5.5090003" /><path
               id="path86"
               style="fill:#ffffff;fill-opacity:1;fill-rule:nonzero;stroke:none"
               d="M 12.114,35.784 H 35.914001" /><path
               id="path88"
               style="fill:none;stroke:#231f20;stroke-width:1;stroke-linecap:butt;stroke-linejoin:miter;stroke-miterlimit:4;stroke-dasharray:none;stroke-opacity:1"
               d="M 12.114,35.784 H 35.914001" /><path
               id="path90"
               style="fill:#ffffff;fill-opacity:1;fill-rule:nonzero;stroke:none"
               d="M 11.938001,44.709999 H 35.739002" /><path
               id="path92"
               style="fill:none;stroke:#231f20;stroke-width:1;stroke-linecap:butt;stroke-linejoin:miter;stroke-miterlimit:4;stroke-dasharray:none;stroke-opacity:1"
               d="M 11.938001,44.709999 H 35.739002" /><text
               id="text96"
               style="font-variant:normal;font-weight:normal;font-size:11.95500088px;font-family:CMMI12;-inkscape-font-specification:CMMI12;writing-mode:lr-tb;fill:#231f20;fill-opacity:1;fill-rule:nonzero;stroke:none"
               transform="matrix(1,0,0,-1,66.889198,2.9887998)"><tspan
                 id="tspan94"
                 y="0"
                 x="0">S</tspan></text>
<text
               id="text100"
               style="font-variant:normal;font-weight:normal;font-size:11.95500088px;font-family:CMMI12;-inkscape-font-specification:CMMI12;writing-mode:lr-tb;fill:#231f20;fill-opacity:1;fill-rule:nonzero;stroke:none"
               transform="matrix(1,0,0,-1,125.35154,5.6547651)"><tspan
                 id="tspan98"
                 y="0"
                 x="0">A</tspan></text>
<text
               id="text104"
               style="font-variant:normal;font-weight:normal;font-size:11.95500088px;font-family:CMMI12;-inkscape-font-specification:CMMI12;writing-mode:lr-tb;fill:#231f20;fill-opacity:1;fill-rule:nonzero;stroke:none"
               transform="matrix(1,0,0,-1,12.028888,3.6546934)"><tspan
                 id="tspan102"
                 y="0"
                 x="0">F</tspan></text>
<text
               id="text108"
               style="font-variant:normal;font-weight:normal;font-size:11.95500088px;font-family:CMMI12;-inkscape-font-specification:CMMI12;writing-mode:lr-tb;fill:#231f20;fill-opacity:1;fill-rule:nonzero;stroke:none"
               transform="matrix(1,0,0,-1,11.801743,64.988625)"><tspan
                 id="tspan106"
                 y="0"
                 x="0">D</tspan></text>
<text
               id="text112"
               style="font-variant:normal;font-weight:normal;font-size:11.95500088px;font-family:CMMI12;-inkscape-font-specification:CMMI12;writing-mode:lr-tb;fill:#231f20;fill-opacity:1;fill-rule:nonzero;stroke:none"
               transform="matrix(1,0,0,-1,122.41418,66.321609)"><tspan
                 id="tspan110"
                 y="0"
                 x="0">B</tspan></text>
<text
               id="text116"
               style="font-variant:normal;font-weight:normal;font-size:11.95500088px;font-family:CMMI12;-inkscape-font-specification:CMMI12;writing-mode:lr-tb;fill:#231f20;fill-opacity:1;fill-rule:nonzero;stroke:none"
               transform="matrix(1,0,0,-1,36.481636,38.321804)"><tspan
                 id="tspan114"
                 y="0"
                 x="0">q</tspan></text>
<text
               id="text120"
               style="font-variant:normal;font-weight:normal;font-size:11.95500088px;font-family:CMR12;-inkscape-font-specification:CMR12;writing-mode:lr-tb;fill:#231f20;fill-opacity:1;fill-rule:nonzero;stroke:none"
               transform="matrix(1,0,0,-1,42.100487,38.321804)"><tspan
                 id="tspan118"
                 y="0"
                 x="0">(</tspan></text>
<text
               id="text124"
               style="font-variant:normal;font-weight:normal;font-size:11.95500088px;font-family:CMMI12;-inkscape-font-specification:CMMI12;writing-mode:lr-tb;fill:#231f20;fill-opacity:1;fill-rule:nonzero;stroke:none"
               transform="matrix(1,0,0,-1,46.651756,38.321804)"><tspan
                 id="tspan122"
                 y="0"
                 x="0">t</tspan></text>
<text
               id="text128"
               style="font-variant:normal;font-weight:normal;font-size:11.95500088px;font-family:CMR12;-inkscape-font-specification:CMR12;writing-mode:lr-tb;fill:#231f20;fill-opacity:1;fill-rule:nonzero;stroke:none"
               transform="matrix(1,0,0,-1,50.879044,38.321804)"><tspan
                 id="tspan126"
                 y="0"
                 x="0">)</tspan></text>
<text
               id="text132"
               style="font-variant:normal;font-weight:normal;font-size:11.95500088px;font-family:CMMI12;-inkscape-font-specification:CMMI12;writing-mode:lr-tb;fill:#231f20;fill-opacity:1;fill-rule:nonzero;stroke:none"
               transform="matrix(1,0,0,-1,-2.4353307e-4,34.98875)"><tspan
                 id="tspan130"
                 y="0"
                 x="0">C</tspan></text>
<text
               id="text136"
               style="font-variant:normal;font-weight:normal;font-size:11.95500088px;font-family:CMMI12;-inkscape-font-specification:CMMI12;writing-mode:lr-tb;fill:#231f20;fill-opacity:1;fill-rule:nonzero;stroke:none"
               transform="matrix(1,0,0,-1,129.13528,32.988678)"><tspan
                 id="tspan134"
                 y="0"
                 x="0">L</tspan></text>
<text
               id="text140"
               style="font-variant:normal;font-weight:normal;font-size:11.95500088px;font-family:CMMI12;-inkscape-font-specification:CMMI12;writing-mode:lr-tb;fill:#231f20;fill-opacity:1;fill-rule:nonzero;stroke:none"
               transform="matrix(1,0,0,-1,66.335663,65.655716)"><tspan
                 id="tspan138"
                 y="0"
                 x="0">R</tspan></text>
</g></g></g></g></g></svg>