<?xml version="1.0" encoding="UTF-8" standalone="no"?>
<svg
   xmlns:dc="http://purl.org/dc/elements/1.1/"
   xmlns:cc="http://creativecommons.org/ns#"
   xmlns:rdf="http://www.w3.org/1999/02/22-rdf-syntax-ns#"
   xmlns:svg="http://www.w3.org/2000/svg"
   xmlns="http://www.w3.org/2000/svg"
   viewBox="0 0 260.36667 137.41467"
   height="137.41467"
   width="260.36667"
   xml:space="preserve"
   id="svg2"
   version="1.1"><metadata
     id="metadata8"><rdf:RDF><cc:Work
         rdf:about=""><dc:format>image/svg+xml</dc:format><dc:type
           rdf:resource="http://purl.org/dc/dcmitype/StillImage" /></cc:Work></rdf:RDF></metadata><defs
     id="defs6" /><g
     transform="matrix(1.3333333,0,0,-1.3333333,0,137.41467)"
     id="g10"><path
       id="path12"
       style="fill:#231f20;fill-opacity:1;fill-rule:nonzero;stroke:none"
       d="m 23.115,93.105 c -0.3,-0.992 -0.575,-1.637 -0.895,-2.433 h 3.027 c -0.135,0.285 -0.596,1.441 -0.895,2.433 -0.321,1.061 -0.54,2.024 -0.619,2.648 -0.078,-0.624 -0.297,-1.587 -0.618,-2.648 z M 23.73,7.1875 V 91.687 M 183.633,16.494 c -0.992,0.3 -1.637,0.576 -2.433,0.895 v -3.026 c 0.285,0.135 1.441,0.595 2.433,0.895 1.062,0.321 2.024,0.54 2.648,0.618 -0.624,0.079 -1.586,0.298 -2.648,0.618 z M 24.481,15.767 H 181.62" /><path
       id="path14"
       style="fill:none;stroke:#231f20;stroke-width:1;stroke-linecap:butt;stroke-linejoin:miter;stroke-miterlimit:4;stroke-dasharray:none;stroke-opacity:1"
       d="m 23.115,93.105 c -0.3,-0.992 -0.575,-1.637 -0.895,-2.433 h 3.027 c -0.135,0.285 -0.596,1.441 -0.895,2.433 -0.321,1.061 -0.54,2.024 -0.619,2.648 -0.078,-0.624 -0.297,-1.587 -0.618,-2.648 z M 23.73,7.1875 V 91.687 M 183.633,16.494 c -0.992,0.3 -1.637,0.576 -2.433,0.895 v -3.026 c 0.285,0.135 1.441,0.595 2.433,0.895 1.062,0.321 2.024,0.54 2.648,0.618 -0.624,0.079 -1.586,0.298 -2.648,0.618 z M 24.481,15.767 H 181.62" /><path
       id="path16"
       style="fill:none;stroke:#231f20;stroke-width:1;stroke-linecap:butt;stroke-linejoin:round;stroke-miterlimit:10;stroke-dasharray:none;stroke-opacity:1"
       d="M 23.151,59.522 C 60.543,83.68 95.362,75.82 127.67,47.602 m 40.931,-14.433 c -17.137,1.729 -31.783,7.032 -40.884,14.337" /><path
       id="path18"
       style="fill:#231f20;fill-opacity:1;fill-rule:nonzero;stroke:none"
       d="m 44.071,69.862 v -53.9" /><path
       id="path20"
       style="fill:none;stroke:#231f20;stroke-width:0.69999999;stroke-linecap:butt;stroke-linejoin:miter;stroke-miterlimit:4;stroke-dasharray:none;stroke-opacity:1"
       d="m 44.071,69.862 v -53.9" /><path
       id="path22"
       style="fill:#231f20;fill-opacity:1;fill-rule:nonzero;stroke:none"
       d="M 64.4,16.163 V 73.842" /><path
       id="path24"
       style="fill:none;stroke:#231f20;stroke-width:0.69999999;stroke-linecap:butt;stroke-linejoin:miter;stroke-miterlimit:4;stroke-dasharray:none;stroke-opacity:1"
       d="M 64.4,16.163 V 73.842" /><path
       id="path26"
       style="fill:#231f20;fill-opacity:1;fill-rule:nonzero;stroke:none"
       d="m 146,15.962 v 21.6" /><path
       id="path28"
       style="fill:none;stroke:#231f20;stroke-width:0.69999999;stroke-linecap:butt;stroke-linejoin:miter;stroke-miterlimit:4;stroke-dasharray:none;stroke-opacity:1"
       d="m 146,15.962 v 21.6" /><path
       id="path30"
       style="fill:#231f20;fill-opacity:1;fill-rule:nonzero;stroke:none"
       d="m 25.5,60.291 c 0,-0.921 -0.746,-1.667 -1.667,-1.667 -0.92,0 -1.667,0.746 -1.667,1.667 0,0.92 0.747,1.667 1.667,1.667 0.921,0 1.667,-0.747 1.667,-1.667" /><path
       id="path32"
       style="fill:none;stroke:#231f20;stroke-width:1;stroke-linecap:butt;stroke-linejoin:miter;stroke-miterlimit:4;stroke-dasharray:none;stroke-opacity:1"
       d="m 25.5,60.291 c 0,-0.921 -0.746,-1.667 -1.667,-1.667 -0.92,0 -1.667,0.746 -1.667,1.667 0,0.92 0.747,1.667 1.667,1.667 0.921,0 1.667,-0.747 1.667,-1.667 z" /><path
       id="path34"
       style="fill:#231f20;fill-opacity:1;fill-rule:nonzero;stroke:none"
       d="m 45.738,69.862 c 0,-0.92 -0.746,-1.666 -1.667,-1.666 -0.921,0 -1.667,0.746 -1.667,1.666 0,0.921 0.746,1.667 1.667,1.667 0.921,0 1.667,-0.746 1.667,-1.667" /><path
       id="path36"
       style="fill:none;stroke:#231f20;stroke-width:1;stroke-linecap:butt;stroke-linejoin:miter;stroke-miterlimit:4;stroke-dasharray:none;stroke-opacity:1"
       d="m 45.738,69.862 c 0,-0.92 -0.746,-1.666 -1.667,-1.666 -0.921,0 -1.667,0.746 -1.667,1.666 0,0.921 0.746,1.667 1.667,1.667 0.921,0 1.667,-0.746 1.667,-1.667 z" /><path
       id="path38"
       style="fill:#231f20;fill-opacity:1;fill-rule:nonzero;stroke:none"
       d="m 66.067,73.842 c 0,-0.921 -0.746,-1.667 -1.667,-1.667 -0.921,0 -1.667,0.746 -1.667,1.667 0,0.921 0.746,1.667 1.667,1.667 0.921,0 1.667,-0.746 1.667,-1.667" /><path
       id="path40"
       style="fill:none;stroke:#231f20;stroke-width:1;stroke-linecap:butt;stroke-linejoin:miter;stroke-miterlimit:4;stroke-dasharray:none;stroke-opacity:1"
       d="m 66.067,73.842 c 0,-0.921 -0.746,-1.667 -1.667,-1.667 -0.921,0 -1.667,0.746 -1.667,1.667 0,0.921 0.746,1.667 1.667,1.667 0.921,0 1.667,-0.746 1.667,-1.667 z" /><path
       id="path42"
       style="fill:#231f20;fill-opacity:1;fill-rule:nonzero;stroke:none"
       d="m 147.667,37.562 c 0,-0.92 -0.746,-1.666 -1.667,-1.666 -0.921,0 -1.667,0.746 -1.667,1.666 0,0.921 0.746,1.667 1.667,1.667 0.921,0 1.667,-0.746 1.667,-1.667" /><path
       id="path44"
       style="fill:none;stroke:#231f20;stroke-width:1;stroke-linecap:butt;stroke-linejoin:miter;stroke-miterlimit:4;stroke-dasharray:none;stroke-opacity:1"
       d="m 147.667,37.562 c 0,-0.92 -0.746,-1.666 -1.667,-1.666 -0.921,0 -1.667,0.746 -1.667,1.666 0,0.921 0.746,1.667 1.667,1.667 0.921,0 1.667,-0.746 1.667,-1.667 z" /><text
       id="text50"
       style="font-style:italic;font-variant:normal;font-weight:normal;font-size:11.95499992px;font-family:CMMI12;-inkscape-font-specification:CMMI12;writing-mode:lr-tb;fill:#231f20;fill-opacity:1;fill-rule:nonzero;stroke:none"
       transform="matrix(1,0,0,-1,191.055,19.5278)"><tspan
         id="tspan46"
         y="0"
         x="0">t</tspan><tspan
         id="tspan48"
         y="16.193048"
         x="-151.43279">T</tspan></text>
<text
       id="text54"
       style="font-variant:normal;font-weight:normal;font-size:11.95499992px;font-family:CMR12;-inkscape-font-specification:CMR12;writing-mode:lr-tb;fill:#231f20;fill-opacity:1;fill-rule:nonzero;stroke:none"
       transform="matrix(1,0,0,-1,57.344302,3.001208)"><tspan
         id="tspan52"
         y="0"
         x="0">2</tspan></text>
<text
       id="text62"
       style="font-style:italic;font-variant:normal;font-weight:normal;font-size:11.95499992px;font-family:CMMI12;-inkscape-font-specification:CMMI12;writing-mode:lr-tb;fill:#231f20;fill-opacity:1;fill-rule:nonzero;stroke:none"
       transform="matrix(1,0,0,-1,63.196275,3.001208)"><tspan
         id="tspan56"
         y="0"
         x="0">T</tspan><tspan
         id="tspan58"
         y="-1.3329825"
         x="75.630913 82.612633">nT</tspan><tspan
         id="tspan60"
         y="-89.999634"
         x="-63.196522">f</tspan></text>
<text
       id="text66"
       style="font-variant:normal;font-weight:normal;font-size:11.95499992px;font-family:CMR12;-inkscape-font-specification:CMR12;writing-mode:lr-tb;fill:#231f20;fill-opacity:1;fill-rule:nonzero;stroke:none"
       transform="matrix(1,0,0,-1,7.046031,93.000839)"><tspan
         id="tspan64"
         y="0"
         x="0">(</tspan></text>
<text
       id="text70"
       style="font-style:italic;font-variant:normal;font-weight:normal;font-size:11.95499992px;font-family:CMMI12;-inkscape-font-specification:CMMI12;writing-mode:lr-tb;fill:#231f20;fill-opacity:1;fill-rule:nonzero;stroke:none"
       transform="matrix(1,0,0,-1,11.59969,93.000839)"><tspan
         id="tspan68"
         y="0"
         x="0">t</tspan></text>
<text
       id="text74"
       style="font-variant:normal;font-weight:normal;font-size:11.95499992px;font-family:CMR12;-inkscape-font-specification:CMR12;writing-mode:lr-tb;fill:#231f20;fill-opacity:1;fill-rule:nonzero;stroke:none"
       transform="matrix(1,0,0,-1,15.825783,93.000839)"><tspan
         id="tspan72"
         y="0"
         x="0">)</tspan></text>
<text
       id="text78"
       style="font-variant:normal;font-weight:normal;font-size:12px;font-family:Myriad;-inkscape-font-specification:Myriad-Roman;writing-mode:lr-tb;fill:#231f20;fill-opacity:1;fill-rule:nonzero;stroke:none"
       transform="matrix(1,0,0,-1,90,29.624)"><tspan
         id="tspan76"
         y="0"
         x="0 3.684 6.2280002 9.9119997 12.456 16.139999 18.684 22.368 24.912001 28.596001 31.139999">- - - - - -</tspan></text>
</g></svg>