<?xml version="1.0" encoding="UTF-8" standalone="no"?>
<svg
   xmlns:dc="http://purl.org/dc/elements/1.1/"
   xmlns:cc="http://creativecommons.org/ns#"
   xmlns:rdf="http://www.w3.org/1999/02/22-rdf-syntax-ns#"
   xmlns:svg="http://www.w3.org/2000/svg"
   xmlns="http://www.w3.org/2000/svg"
   viewBox="0 0 236 136"
   height="136"
   width="236"
   xml:space="preserve"
   id="svg2"
   version="1.1"><metadata
     id="metadata8"><rdf:RDF><cc:Work
         rdf:about=""><dc:format>image/svg+xml</dc:format><dc:type
           rdf:resource="http://purl.org/dc/dcmitype/StillImage" /></cc:Work></rdf:RDF></metadata><defs
     id="defs6"><clipPath
       id="clipPath24"
       clipPathUnits="userSpaceOnUse"><path
         id="path22"
         d="M 0,0 H 177 V 102 H 0 Z" /></clipPath><clipPath
       id="clipPath40"
       clipPathUnits="userSpaceOnUse"><path
         id="path38"
         d="M 0.06,0.06000519 H 176.79201 V 101.02701 H 0.06 Z" /></clipPath></defs><g
     transform="matrix(1.3333333,0,0,-1.3333333,0,136)"
     id="g10"><g
       id="g12" /><g
       id="g14" /><g
       id="g16"><g
         id="g18"><g
           clip-path="url(#clipPath24)"
           id="g20"><g
             id="g26" /><g
             id="g28"><path
               id="path30"
               style="fill:#aaa8a8;fill-opacity:1;fill-rule:nonzero;stroke:none"
               d="m 129.42801,16.993 v 13.773001 l 2.08,-1.465 2.403,-2.032999 1.32399,-1.037001 0.81401,-0.569 1.618,-1.09 1.33,-0.802002 2.136,-1.177998 1.328,-0.662001 1.364,-0.614999 1.32399,-0.522 2.14401,-0.756 1.329,-0.421999 2.164,-0.615002 2.138,-0.474998 1.84999,-0.375002 2.17201,-0.334 1.849,-0.280998 1.618,-0.146002 L 162,17.201 129.42801,16.993" /><path
               id="path32"
               style="fill:none;stroke:#969494;stroke-width:1;stroke-linecap:butt;stroke-linejoin:round;stroke-miterlimit:4;stroke-dasharray:none;stroke-opacity:1"
               d="m 129.42801,16.993 v 13.773001 l 2.08,-1.465 2.403,-2.032999 1.32399,-1.037001 0.81401,-0.569 1.618,-1.09 1.33,-0.802002 2.136,-1.177998 1.328,-0.662001 1.364,-0.614999 1.32399,-0.522 2.14401,-0.756 1.329,-0.421999 2.164,-0.615002 2.138,-0.474998 1.84999,-0.375002 2.17201,-0.334 1.849,-0.280998 1.618,-0.146002 L 162,17.201 Z" /></g><g
             id="g34"><g
               clip-path="url(#clipPath40)"
               id="g36"><path
                 id="path42"
                 style="fill:none;stroke:#231f20;stroke-width:1;stroke-linecap:butt;stroke-linejoin:round;stroke-miterlimit:4;stroke-dasharray:none;stroke-opacity:1"
                 d="m 139.25401,23.629002 0.297,-0.188 0.254,-0.146 0.25799,-0.141001 0.26201,-0.139999 0.289,-0.141001 0.258,-0.139999 0.261,-0.141001 0.26,-0.141001 0.29499,-0.146 0.254,-0.140999 0.26001,-0.094 0.259,-0.14 0.297,-0.146999 0.25198,-0.093 0.26001,-0.140997 0.26201,-0.094 0.293,-0.140001 0.254,-0.094 0.267,-0.094 0.252,-0.141001 0.29699,-0.099 0.254,-0.094 0.26601,-0.094 0.289,-0.093 0.259,-0.141001 0.26,-0.094 0.26199,-0.099 0.287,-0.094 0.26001,-0.094 0.261,-0.047 0.258,-0.094 0.28899,-0.093 0.26201,-0.094 0.25799,-0.094 0.26201,-0.047 0.289,-0.093 0.257,-0.094 0.26198,-0.053 0.26001,-0.094 0.28701,-0.047 0.262,-0.093 0.26,-0.047 0.287,-0.094 0.261,-0.047 0.26,-0.094 0.25999,-0.052 0.289,-0.047 0.26001,-0.047 0.26,-0.094 0.261,-0.047 0.287,-0.047 0.26,-0.046 0.262,-0.047 0.258,-0.094 0.289,-0.047 0.26698,-0.047 0.25202,-0.047 0.26199,-0.047 0.289,-0.046 0.26601,-0.047 0.254,-0.047 0.259,-0.047 0.295,-0.047 0.26199,-0.053 h 0.252 l 0.29501,-0.047 0.262,-0.046 0.257,-0.047 0.254,-0.047 h 0.297 l 0.25799,-0.047 0.26201,-0.047 0.259,-0.047 h 0.288 l 0.261,-0.047 0.25999,-0.047 h 0.26001 l 0.28901,-0.052 h 0.25999 l 0.259,-0.041 0.262,-0.053 h 0.287 l 0.25999,-0.047 h 0.26201 L 162,17.201002 h 0.28999 l 0.26102,-0.047 h 0.258 l 0.29699,-0.047 h 0.254 l 0.25801,-0.046 h 0.556 l 0.252,-0.047 h 0.26199 l 0.26001,-0.047 h 0.549 l 0.259,-0.047 m -53.00901,36.481001 0.29601,-0.427998 0.26,-0.428001 0.25999,-0.422001 0.25401,-0.427997 0.295,-0.427002 0.25999,-0.375 0.261,-0.422001 0.25801,-0.427998 0.28899,-0.428001 0.26201,-0.420998 0.25799,-0.381 0.28901,-0.422001 0.26099,-0.428002 0.258,-0.375 0.262,-0.428001 0.28901,-0.380997 0.258,-0.421001 0.26199,-0.375 0.25901,-0.428002 0.29499,-0.380996 0.25401,-0.375 0.25999,-0.375 0.26001,-0.381001 0.29699,-0.428001 0.25201,-0.375004 0.25899,-0.379997 0.26201,-0.328999 0.29299,-0.380001 0.254,-0.375 0.262,-0.381001 0.25701,-0.380996 0.29699,-0.328003 0.25401,-0.375 0.26599,-0.334 0.289,-0.375 0.26,-0.333999 0.252,-0.328003 0.269,-0.380997 0.287,-0.327999 0.26001,-0.334 0.262,-0.328003 0.25199,-0.329002 0.295,-0.333996 0.261,-0.327999 0.252,-0.334 0.26801,-0.281002 0.28899,-0.327999 0.25801,-0.333999 0.25399,-0.287003 0.26701,-0.327999 0.28699,-0.281998 0.26201,-0.287002 0.26,-0.328 0.28699,-0.286998 0.262,-0.281002 0.25901,-0.281002 0.26,-0.287999 0.289,-0.280998 0.25999,-0.287002 0.26,-0.234002 0.26201,-0.281997 0.28699,-0.281 0.26701,-0.24 0.254,-0.281 0.25799,-0.240999 0.297,-0.281001 0.254,-0.234001 0.25801,-0.234998 0.261,-0.24 0.289,-0.234001 0.26599,-0.24 0.254,-0.234999 0.26001,-0.234001 0.287,-0.233999 0.269,-0.241001 0.252,-0.234 0.295,-0.193002 0.26199,-0.234997 0.25801,-0.187 0.254,-0.235001 0.296,-0.187 0.258,-0.194001 0.26199,-0.233999 0.254,-0.187 0.293,-0.194 0.26199,-0.187003 0.25902,-0.187997 0.26,-0.187001 0.289,-0.193998 0.25999,-0.187 0.26001,-0.141001 0.254,-0.187 0.295,-0.194 0.259,-0.14 0.26199,-0.188 0.252,-0.139999 0.295,-0.188002 0.26201,-0.146001 0.257,-0.140997" /><path
                 id="path44"
                 style="fill:none;stroke:#231f20;stroke-width:1;stroke-linecap:butt;stroke-linejoin:round;stroke-miterlimit:4;stroke-dasharray:none;stroke-opacity:1"
                 d="m 86.281006,87.795006 0.253998,-0.140999 0.265999,-0.139999 0.254005,-0.09401 0.296997,-0.192993 0.251999,-0.140999 0.266998,-0.140999 0.254006,-0.187004 0.292999,-0.146995 0.261993,-0.187004 0.254006,-0.187996 0.256996,-0.187004 0.297005,-0.187996 0.253997,-0.193001 0.265999,-0.234001 0.253998,-0.194008 0.295006,-0.233994 0.258995,-0.234001 0.262001,-0.235 0.258003,-0.239998 0.289002,-0.234001 0.261993,-0.235001 0.258003,-0.287003 0.289002,-0.281005 0.261001,-0.233994 0.257996,-0.287994 0.262001,-0.281006 0.294991,-0.287003 0.252006,-0.28099 0.261002,-0.282006 0.260002,-0.333 0.294998,-0.281998 0.253998,-0.333999 0.260002,-0.328003 0.260002,-0.280998 0.289001,-0.334 0.258996,-0.328003 0.259994,-0.334 0.262009,-0.375 0.292999,-0.328003 0.253998,-0.333992 0.260994,-0.381004 0.258011,-0.327995 0.296997,-0.381004 0.253997,-0.375 0.258004,-0.334 0.296997,-0.375 0.260002,-0.375 0.250999,-0.380997 0.270005,-0.381004 0.286995,-0.375 0.260002,-0.428002 0.253995,-0.375 0.26,-0.379997 0.295,-0.421997 0.262,-0.381004 0.252,-0.428002 0.267,-0.375 0.289,-0.421997 0.25801,-0.427002 0.262,-0.380996 0.25999,-0.422005 0.287,-0.427994 0.26101,-0.428001 0.26,-0.422005 0.28699,-0.421997 0.262,-0.427002 0.26001,-0.428001 0.26,-0.421997 0.28899,-0.427002 0.259,-0.421997 0.26001,-0.428002 0.262,-0.421997 0.28699,-0.428001 0.26,-0.473999 0.26101,-0.422001 0.25799,-0.428002 0.289,-0.427997 0.26801,-0.469002 0.252,-0.421001 0.262,-0.427998 0.294,-0.428001 0.252,-0.467999 0.262,-0.428001 0.25999,-0.428002 0.287,-0.468998 0.27,-0.427002 0.25201,-0.427997 0.294,-0.422001 0.25399,-0.469002 0.266,-0.428001 0.254,-0.426998 0.29701,-0.421998 0.258,-0.475002 0.26099,-0.426998 0.254,-0.422001 0.29301,-0.428001 0.262,-0.422001 0.25999,-0.427998 0.252,-0.468002 m -33.172995,35.150002 0.253998,0.047 0.292999,0.052 0.262001,0.041 0.260002,0.053 0.258995,0.047 h 1.617997 l 0.261009,-0.047 h 0.257995 l 0.289002,-0.053 0.261993,-0.041 0.258011,-0.052 0.260994,-0.094 0.289002,-0.047 0.258003,-0.09399 0.262001,-0.047 0.259994,-0.093 0.287003,-0.100006 0.262001,-0.09399 0.259003,-0.139999 0.294998,-0.094 m -7.189003,0.152 0.172005,0.047 0.149993,0.047 m -11.548996,-20.502007 0.304993,0.844002 0.152008,0.428002 0.167992,0.427002 0.153007,0.421989 0.147995,0.428009 0.152001,0.375 0.170006,0.428001 0.152999,0.421998 0.152001,0.380996 0.169998,0.427002 0.145996,0.375 0.153,0.381005 0.152,0.421997 0.174004,0.380996 0.147995,0.375 0.153,0.381005 0.148003,0.375 0.174003,0.379997 0.145996,0.375 0.159004,0.381004 0.145997,0.375 0.169998,0.334 0.152,0.375 0.151001,0.333999 0.148003,0.374993 0.175995,0.334007 0.145996,0.327995 0.155006,0.329003 0.150002,0.379997 0.169998,0.288002 0.305,0.655998 0.169998,0.334008 0.150002,0.28099 0.152,0.334007 0.149002,0.280999 0.169999,0.280998 0.152,0.288002 0.152,0.280998 0.153,0.287003 0.166001,0.280998 0.150001,0.235001 0.153,0.280998 0.152,0.240005 0.169999,0.233994 0.152,0.288002 0.153,0.234001 0.148003,0.186996 0.167991,0.235001 0.152008,0.240006 0.153,0.187995 0.152001,0.239998 0.169998,0.187004 0.150001,0.187996 0.152992,0.187004 0.166008,0.187996 0.157998,0.146004 0.145996,0.188004 0.153007,0.139999 0.169998,0.140991 0.152001,0.193009 0.145996,0.140998 0.158996,0.094 0.169999,0.14 0.150001,0.140998 0.148003,0.094 0.153,0.093 0.170005,0.1 0.152001,0.094 0.152,0.09401 0.146996,0.093" /><path
                 id="path46"
                 style="fill:none;stroke:#231f20;stroke-width:1;stroke-linecap:butt;stroke-linejoin:round;stroke-miterlimit:4;stroke-dasharray:none;stroke-opacity:1"
                 d="m 52.402004,29.922001 0.158997,0.24 0.152,0.281 0.164002,0.241001 0.152,0.281 0.153,0.281 0.146,0.281 0.175999,0.241 0.152,0.280998 0.151001,0.287002 0.147999,0.280999 0.170002,0.282001 0.152,0.333 L 54.43,33.514 l 0.152001,0.287003 0.166,0.280998 0.152001,0.327999 0.151001,0.287002 0.152,0.328 0.169998,0.333999 0.152001,0.282002 0.152999,0.327999 0.170002,0.333999 0.146,0.334 0.305001,0.656002 0.172,0.334 0.149998,0.327999 0.152001,0.333999 0.151001,0.375 0.172,0.328 0.146,0.333999 0.157998,0.381001 0.146999,0.328003 0.170002,0.374996 0.147999,0.381 0.156002,0.334004 0.146999,0.374996 0.175999,0.375004 0.152,0.380997 0.147,0.381 0.152,0.375 0.170002,0.375 0.146,0.381001 0.158996,0.381 0.169003,0.420998 0.148998,0.381004 0.150002,0.375 0.153,0.427998 0.170002,0.375 0.151996,0.380996 0.152001,0.428006 0.153,0.421997 0.168003,0.375 0.147998,0.427002 0.152001,0.381 0.153,0.422001 0.172001,0.427998 0.149997,0.426998 0.152001,0.422001 0.151001,0.422 0.165996,0.428002 0.152005,0.381 0.151996,0.422001 0.153004,0.426998 0.169998,0.469002 0.147999,0.427998 0.152,0.422001 0.168,0.428001 0.159,0.426998 0.145996,0.422001 0.152004,0.428001 0.167996,0.473996 0.155006,0.422004 0.146,0.427994 0.153,0.422005 0.174995,0.474998 0.299004,0.849003 0.151993,0.427998 0.170006,0.469002 0.152999,0.426994 0.146004,0.422005 0.153,0.474998 0.172997,0.427002 0.149002,0.422001 0.148002,0.427997 0.173996,0.469002 0.305001,0.855 0.146003,0.421997 0.169998,0.475002 0.152993,0.422005 0.152008,0.427994 0.145996,0.421005 0.176002,0.427994 0.152001,0.428001 0.149002,0.422005 0.152,0.426994 0.167999,0.428001 m -25.738002,-50.395999 0.109001,0.052 0.113994,0.038 0.132004,0.108999 0.118,0.043 0.125,0.105 0.109001,0.047 0.136998,0.104 0.113002,0.047 0.122998,0.111 0.115001,0.043 0.137001,0.103001 0.122998,0.105999 0.118999,0.104999 0.127003,0.041 0.122997,0.11 0.121002,0.101 0.120999,0.110001 0.141002,0.100999 0.125,0.102 0.120995,0.114999 0.121006,0.105 0.136997,0.104 0.117001,0.106001 0.124996,0.105 0.121006,0.102001 0.148994,0.170999 0.121003,0.105999 0.125,0.105 0.129001,0.168001 0.14,0.101999 0.117,0.103001 0.137001,0.166 0.125,0.168 0.140999,0.11 0.129002,0.166 0.132,0.164 0.136997,0.105 0.129002,0.173999 0.137001,0.164 0.128997,0.164001 0.144001,0.165999 0.129002,0.164001 0.132999,0.165999 0.133,0.164001 0.141998,0.171999 0.130997,0.166001 0.139004,0.225 0.135002,0.164 0.155994,0.232 0.129006,0.166 0.132999,0.164 0.137997,0.231001 0.151001,0.222999 0.133003,0.171 0.139999,0.227001 0.140999,0.224997 0.156002,0.232002 0.140999,0.222999 0.135998,0.230002 0.153,0.222999 0.140003,0.226 0.140999,0.231001 0.144001,0.226 0.148998,0.224998 0.152,0.293002 0.140999,0.225 0.150002,0.285 0.153,0.226 0.152,0.292999 0.149998,0.285 0.141002,0.226999 0.163998,0.293001 0.145001,0.285 0.148002,0.285 0.154,0.285 0.161998,0.290001 0.145001,0.288999 0.147995,0.294001 0.176006,0.345999 0.142998,0.287" /><path
                 id="path48"
                 style="fill:none;stroke:#231f20;stroke-width:0.5;stroke-linecap:butt;stroke-linejoin:round;stroke-miterlimit:4;stroke-dasharray:none;stroke-opacity:1"
                 d="M 0,16.551001 H 173.40302" /></g></g><g
             id="g50"><path
               id="path52"
               style="fill:#231f20;fill-opacity:1;fill-rule:nonzero;stroke:none"
               d="m 174.58401,17.064001 c -0.82701,0.249001 -1.365,0.479 -2.027,0.744999 v -2.521999 c 0.236,0.112 1.19999,0.496 2.027,0.746 0.88399,0.267 1.687,0.450001 2.208,0.514999 -0.521,0.065 -1.32401,0.248001 -2.208,0.516001" /><path
               id="path54"
               style="fill:none;stroke:#231f20;stroke-width:0.5;stroke-linecap:butt;stroke-linejoin:miter;stroke-miterlimit:4;stroke-dasharray:none;stroke-opacity:1"
               d="M 41.189003,17.4 V 97.639008" /><path
               id="path56"
               style="fill:#231f20;fill-opacity:1;fill-rule:nonzero;stroke:none"
               d="m 40.677002,98.819008 c -0.249001,-0.826004 -0.48,-1.363007 -0.744999,-2.026001 h 2.521 c -0.112,0.236992 -0.496002,1.199997 -0.746002,2.026001 -0.267002,0.884994 -0.448998,1.687992 -0.515,2.208002 -0.065,-0.52001 -0.248001,-1.323008 -0.514999,-2.208002" /><path
               id="path58"
               style="fill:#231f20;fill-opacity:1;fill-rule:nonzero;stroke:none"
               d="m 129.42801,16.827002 v 13.666" /><path
               id="path60"
               style="fill:none;stroke:#231f20;stroke-width:1;stroke-linecap:butt;stroke-linejoin:round;stroke-miterlimit:4;stroke-dasharray:none;stroke-opacity:1"
               d="m 129.42801,16.827002 v 13.666" /><text
               id="text64"
               style="font-variant:normal;font-weight:normal;font-size:11.95500088px;font-family:CMR12;-inkscape-font-specification:CMR12;writing-mode:lr-tb;fill:#231f20;fill-opacity:1;fill-rule:nonzero;stroke:none"
               transform="matrix(1,0,0,-1,158.23999,33.959099)"><tspan
                 id="tspan62"
                 y="0"
                 x="0">5</tspan></text>
<text
               id="text68"
               style="font-variant:normal;font-weight:normal;font-size:11.95500088px;font-family:CMR12;-inkscape-font-specification:CMR12;writing-mode:lr-tb;fill:#231f20;fill-opacity:1;fill-rule:nonzero;stroke:none"
               transform="matrix(1,0,0,-1,164.09315,33.959099)"><tspan
                 id="tspan66"
                 y="0"
                 x="0">%</tspan></text>
<text
               id="text72"
               style="font-variant:normal;font-weight:normal;font-size:11.95500088px;font-family:CMMI12;-inkscape-font-specification:CMMI12;writing-mode:lr-tb;fill:#231f20;fill-opacity:1;fill-rule:nonzero;stroke:none"
               transform="matrix(1,0,0,-1,110.6041,3.7870688)"><tspan
                 id="tspan70"
                 y="0"
                 x="0">f</tspan></text>
<text
               id="text76"
               style="font-variant:normal;font-weight:normal;font-size:7.96999979px;font-family:CMR8;-inkscape-font-specification:CMR8;writing-mode:lr-tb;fill:#231f20;fill-opacity:1;fill-rule:nonzero;stroke:none"
               transform="matrix(1,0,0,-1,116.37301,1.9933)"><tspan
                 id="tspan74"
                 y="0"
                 x="0">0</tspan></text>
<text
               id="text80"
               style="font-variant:normal;font-weight:normal;font-size:7.96999979px;font-family:CMMI8;-inkscape-font-specification:CMMI8;writing-mode:lr-tb;fill:#231f20;fill-opacity:1;fill-rule:nonzero;stroke:none"
               transform="matrix(1,0,0,-1,120.60667,1.9933)"><tspan
                 id="tspan78"
                 y="0"
                 x="0">.</tspan></text>
<text
               id="text84"
               style="font-variant:normal;font-weight:normal;font-size:7.96999979px;font-family:CMR8;-inkscape-font-specification:CMR8;writing-mode:lr-tb;fill:#231f20;fill-opacity:1;fill-rule:nonzero;stroke:none"
               transform="matrix(1,0,0,-1,122.95862,1.9933)"><tspan
                 id="tspan82"
                 y="0"
                 x="0 4.23207">05</tspan></text>
<text
               id="text88"
               style="font-variant:normal;font-weight:normal;font-size:7.96999979px;font-family:CMMI8;-inkscape-font-specification:CMMI8;writing-mode:lr-tb;fill:#231f20;fill-opacity:1;fill-rule:nonzero;stroke:none"
               transform="matrix(1,0,0,-1,131.42754,1.9933)"><tspan
                 id="tspan86"
                 y="0"
                 x="0 2.35115 7.2526999 9.6038494">,u,v</tspan></text>
<path
               id="path90"
               style="fill:#231f20;fill-opacity:1;fill-rule:nonzero;stroke:none"
               d="m 154.42801,34.993 -16.517,-9.724998" /><path
               id="path92"
               style="fill:none;stroke:#231f20;stroke-width:0.69999999;stroke-linecap:butt;stroke-linejoin:miter;stroke-miterlimit:4;stroke-dasharray:none;stroke-opacity:1"
               d="m 154.42801,34.993 -16.517,-9.724998" /></g></g></g></g></g></svg>