<?xml version="1.0" encoding="UTF-8" standalone="no"?>
<svg
   xmlns:dc="http://purl.org/dc/elements/1.1/"
   xmlns:cc="http://creativecommons.org/ns#"
   xmlns:rdf="http://www.w3.org/1999/02/22-rdf-syntax-ns#"
   xmlns:svg="http://www.w3.org/2000/svg"
   xmlns="http://www.w3.org/2000/svg"
   viewBox="0 0 428 94.666664"
   height="94.666664"
   width="428"
   xml:space="preserve"
   id="svg2"
   version="1.1"><metadata
     id="metadata8"><rdf:RDF><cc:Work
         rdf:about=""><dc:format>image/svg+xml</dc:format><dc:type
           rdf:resource="http://purl.org/dc/dcmitype/StillImage" /></cc:Work></rdf:RDF></metadata><defs
     id="defs6"><clipPath
       id="clipPath24"
       clipPathUnits="userSpaceOnUse"><path
         id="path22"
         d="M 0,0 H 321 V 71 H 0 Z" /></clipPath><clipPath
       id="clipPath34"
       clipPathUnits="userSpaceOnUse"><path
         id="path32"
         d="M 0.06,0.05999756 H 320.50998 V 70.967003 H 0.06 Z" /></clipPath><clipPath
       id="clipPath56"
       clipPathUnits="userSpaceOnUse"><path
         id="path54"
         d="M 0.06,0.05999756 H 320.50998 V 70.967003 H 0.06 Z" /></clipPath></defs><g
     transform="matrix(1.3333333,0,0,-1.3333333,0,94.666667)"
     id="g10"><g
       id="g12" /><g
       id="g14" /><g
       id="g16"><g
         id="g18"><g
           clip-path="url(#clipPath24)"
           id="g20"><g
             id="g26" /><g
             id="g28"><g
               clip-path="url(#clipPath34)"
               id="g30"><path
                 id="path36"
                 style="fill:none;stroke:#231f20;stroke-width:0.5;stroke-linecap:butt;stroke-linejoin:round;stroke-miterlimit:10;stroke-dasharray:none;stroke-opacity:1"
                 d="m 53.178001,25.407001 v -2.888 m 43.042,-1.841 h 3 m -1.5,3 v -6 m 43.042009,3 h 3 m -1.5,3 v -6 m 43.041,3 h 3 m -1.5,3 v -6 m 43.043,3 h 3 m -1.5,3 v -6 m 43.04101,3 h 3 m -1.5,3 v -6 m -224.951019,27.001 h 5.483002 m -2.741002,0.360996 v -0.721996 m -2.742,21.550003 h 5.483002 m -2.741002,0.361 v -0.722" /><path
                 id="path38"
                 style="fill:none;stroke:#231f20;stroke-width:1;stroke-linecap:butt;stroke-linejoin:round;stroke-miterlimit:10;stroke-dasharray:none;stroke-opacity:1"
                 d="M 53.678001,22.678001 V 66.689003" /></g></g><g
             id="g40"><path
               id="path42"
               style="fill:none;stroke:#231f20;stroke-width:0.5;stroke-linecap:butt;stroke-linejoin:round;stroke-miterlimit:10;stroke-dasharray:none;stroke-opacity:1"
               d="m 272.26202,62.272003 0.041,0.011 h 0.168 l 0.041,0.01 h 0.16599 l 0.043,0.011 h 0.125 l 0.041,0.01 h 0.20899 l 0.041,0.01 h 0.20899 l 0.041,0.011 h 0.16599 l 0.043,0.01 h 0.25 l 0.041,0.01 h 0.29099 l 0.043,0.011 h 0.29101 l 0.041,0.01 h 0.45901 l 0.041,0.011 h 0.668 l 0.041,0.01 h 0.625 m -8.25,-0.479 h 0.041 l 0.043,0.011 h 0.041 l 0.041,0.01 h 0.043 l 0.041,0.01 h 0.084 l 0.041,0.011 h 0.041 l 0.043,0.01 h 0.041 l 0.041,0.01 h 0.043 l 0.041,0.011 h 0.084 l 0.041,0.01 h 0.041 l 0.043,0.011 h 0.041 l 0.041,0.01 h 0.084 l 0.041,0.011 h 0.043 l 0.041,0.01 h 0.084 l 0.041,0.011 h 0.084 l 0.041,0.01 h 0.041 l 0.043,0.01 h 0.082 l 0.043,0.011 h 0.082 l 0.043,0.01 h 0.041 l 0.041,0.01 h 0.084 l 0.041,0.011 h 0.084 l 0.041,0.01 h 0.084 l 0.041,0.011 h 0.084 l 0.041,0.01 h 0.084 l 0.041,0.011 h 0.084 l 0.041,0.01 h 0.084 l 0.041,0.011 h 0.084 l 0.041,0.01 h 0.125 l 0.043,0.01 h 0.082 l 0.043,0.011 h 0.082 l 0.043,0.01 h 0.125 l 0.041,0.01 h 0.084 l 0.041,0.011 h 0.125 l 0.041,0.01 h 0.125 l 0.043,0.011 h 0.125 l 0.041,0.01 h 0.125 m -8.25,-0.948002 0.041,0.011 0.043,0.01 h 0.041 l 0.041,0.01 0.043,0.011 h 0.041 l 0.041,0.01 h 0.043 l 0.041,0.011 0.041,0.01 0.043,0.011 h 0.041 l 0.041,0.01 h 0.043 l 0.041,0.011 0.041,0.01 h 0.043 l 0.041,0.01 0.041,0.011 0.043,0.01 h 0.041 l 0.041,0.01 h 0.043 l 0.041,0.011 0.041,0.01 h 0.043 l 0.041,0.011 0.041,0.01 h 0.043 l 0.041,0.011 h 0.041 l 0.043,0.01 0.041,0.011 h 0.041 l 0.043,0.01 h 0.041 l 0.041,0.01 h 0.043 l 0.041,0.011 0.041,0.01 h 0.043 l 0.041,0.01 0.041,0.011 h 0.043 l 0.041,0.01 h 0.041 l 0.043,0.011 h 0.041 l 0.041,0.01 0.043,0.011 h 0.041 l 0.041,0.01 h 0.043 l 0.041,0.011 h 0.041 l 0.043,0.01 0.041,0.01 h 0.041 l 0.043,0.011 h 0.041 l 0.041,0.01 h 0.043 l 0.041,0.01 h 0.041 l 0.043,0.011 0.041,0.01 h 0.084 l 0.041,0.011 0.041,0.01 h 0.043 l 0.041,0.011 h 0.041 l 0.043,0.01 h 0.041 l 0.041,0.011 h 0.043 l 0.041,0.01 h 0.041 l 0.043,0.01 h 0.041 l 0.041,0.011 h 0.043 l 0.041,0.01 h 0.041 l 0.043,0.01 h 0.041 l 0.041,0.011 h 0.043 l 0.041,0.01 h 0.041 l 0.043,0.011 h 0.041 l 0.041,0.01 h 0.043 l 0.041,0.011 h 0.041 l 0.043,0.01 h 0.041 m -8.25,-1.406002 0.041,0.01 0.043,0.011 0.041,0.01 0.041,0.011 h 0.043 l 0.041,0.01 0.041,0.01 0.043,0.011 0.041,0.01 0.041,0.01 0.043,0.011 h 0.041 l 0.041,0.01 0.043,0.011 0.041,0.01 0.041,0.011 0.043,0.01 0.041,0.011 0.041,0.01 h 0.043 l 0.041,0.01 0.041,0.011 0.043,0.01 0.041,0.01 0.041,0.011 0.043,0.01 h 0.041 l 0.041,0.011 0.043,0.01 0.041,0.011 0.041,0.01 h 0.043 l 0.041,0.011 0.041,0.01 0.043,0.01 0.041,0.011 h 0.041 l 0.043,0.01 0.041,0.01 0.041,0.011 0.043,0.01 0.041,0.011 h 0.041 l 0.043,0.01 0.041,0.011 0.041,0.01 0.043,0.011 0.041,0.01 h 0.041 l 0.043,0.01 0.041,0.011 h 0.041 l 0.043,0.01 0.041,0.01 0.041,0.011 0.043,0.01 0.041,0.011 h 0.041 l 0.043,0.01 0.082,0.021 h 0.043 l 0.041,0.011 0.041,0.01 0.043,0.01 h 0.041 l 0.041,0.011 0.043,0.01 0.041,0.01 h 0.041 l 0.043,0.011 0.041,0.01 0.041,0.011 h 0.043 l 0.041,0.01 0.041,0.011 0.043,0.01 h 0.041 l 0.041,0.011 0.043,0.01 0.041,0.01 h 0.041 l 0.043,0.011 0.041,0.01 h 0.041 l 0.043,0.01 0.041,0.011 0.041,0.01 h 0.043 l 0.041,0.011 0.041,0.01 h 0.043 l 0.041,0.011 0.041,0.01 h 0.043 l 0.041,0.011 0.041,0.01 h 0.043 l 0.041,0.01 m -8.16601,-1.822998 0.041,0.011 0.041,0.01 0.043,0.011 0.041,0.01 0.041,0.011 0.043,0.01 0.041,0.01 0.041,0.011 v 0.01 l 0.043,0.01 0.041,0.011 0.041,0.01 0.043,0.011 0.041,0.01 0.041,0.011 0.043,0.01 0.041,0.011 0.041,0.01 0.043,0.01 0.041,0.011 0.041,0.01 0.043,0.01 0.041,0.011 0.041,0.01 v 0.011 l 0.043,0.01 0.041,0.011 0.041,0.01 0.043,0.011 0.041,0.01 0.041,0.01 0.043,0.011 0.041,0.01 0.041,0.01 0.043,0.011 0.041,0.01 0.041,0.011 0.043,0.01 0.041,0.011 0.041,0.01 0.043,0.011 0.041,0.01 0.041,0.01 0.043,0.011 0.041,0.01 0.041,0.01 0.043,0.011 0.041,0.01 0.041,0.011 0.043,0.01 0.041,0.011 0.041,0.01 0.043,0.011 0.041,0.01 0.041,0.01 0.043,0.011 0.041,0.01 0.041,0.01 0.043,0.011 0.041,0.01 0.041,0.011 0.043,0.01 0.041,0.011 0.041,0.01 0.043,0.011 0.041,0.01 0.041,0.01 0.043,0.011 0.041,0.01 0.041,0.01 0.043,0.011 0.041,0.01 0.041,0.011 0.043,0.01 0.041,0.011 0.041,0.01 0.043,0.011 0.041,0.01 0.041,0.01 h 0.043 l 0.041,0.011 0.041,0.01 0.043,0.01 0.041,0.011 0.041,0.01 0.043,0.011 0.041,0.01 0.041,0.011 0.043,0.01 0.041,0.011 0.041,0.01 0.043,0.01 h 0.041 l 0.041,0.011 0.043,0.01 0.041,0.01 0.041,0.011 0.043,0.01 0.041,0.011 m -7.54101,-2.042004 0.041,0.01 0.041,0.011 0.043,0.01 v 0.011 l 0.041,0.01 0.041,0.011 0.043,0.01 v 0.011 l 0.041,0.01 0.041,0.01 0.043,0.011 0.041,0.01 0.041,0.01 v 0.011 l 0.043,0.01 0.041,0.011 0.041,0.01 v 0.011 l 0.043,0.01 0.041,0.011 0.041,0.01 0.043,0.01 0.041,0.011 v 0.01 l 0.041,0.01 0.043,0.011 0.041,0.01 0.041,0.011 0.043,0.01 0.041,0.011 v 0.01 l 0.041,0.011 0.043,0.01 0.041,0.01 v 0.011 l 0.041,0.01 0.043,0.01 0.041,0.011 0.041,0.01 0.043,0.011 0.041,0.01 v 0.011 l 0.041,0.01 0.043,0.011 0.041,0.01 0.041,0.01 0.043,0.011 0.041,0.01 v 0.01 l 0.041,0.011 0.043,0.01 0.041,0.011 0.041,0.01 v 0.011 l 0.043,0.01 0.041,0.011 0.041,0.01 0.043,0.01 0.041,0.011 0.041,0.01 0.043,0.01 v 0.011 l 0.041,0.01 0.041,0.011 0.043,0.01 0.041,0.011 0.041,0.01 0.043,0.011 0.041,0.01 v 0.01 l 0.041,0.011 0.043,0.01 0.041,0.01 0.041,0.011 0.043,0.01 0.041,0.011 0.041,0.01 v 0.011 l 0.043,0.01 0.041,0.011 0.041,0.01 0.043,0.01 0.041,0.011 0.041,0.01 0.043,0.01 0.041,0.011 v 0.01 l 0.041,0.011 0.043,0.01 0.041,0.011 0.041,0.01 0.043,0.011 0.041,0.01 0.041,0.01 0.043,0.011 0.041,0.01 v 0.01 l 0.041,0.011 0.043,0.01 m -6.625,-2.062 0.041,0.01 0.041,0.011 v 0.01 l 0.043,0.01 0.041,0.011 v 0.01 l 0.041,0.011 0.043,0.01 0.041,0.011 v 0.01 l 0.041,0.011 0.043,0.01 0.041,0.01 v 0.011 l 0.041,0.01 0.043,0.01 v 0.011 l 0.041,0.01 0.041,0.011 0.043,0.01 v 0.011 l 0.041,0.01 0.041,0.011 0.043,0.01 v 0.01 l 0.041,0.011 0.041,0.01 v 0.01 l 0.043,0.011 0.041,0.01 0.041,0.011 0.043,0.01 v 0.011 l 0.041,0.01 0.041,0.011 v 0.01 l 0.043,0.01 0.041,0.011 0.041,0.01 0.043,0.01 v 0.011 l 0.041,0.01 0.041,0.011 v 0.01 l 0.043,0.011 0.041,0.01 0.041,0.011 v 0.01 l 0.043,0.01 0.041,0.011 0.041,0.01 0.043,0.01 v 0.011 l 0.041,0.01 0.041,0.011 v 0.01 l 0.043,0.011 0.041,0.01 0.041,0.011 0.043,0.01 0.041,0.01 v 0.011 l 0.041,0.01 0.043,0.01 v 0.011 l 0.041,0.01 0.041,0.011 0.043,0.01 v 0.011 l 0.041,0.01 0.041,0.011 0.043,0.01 0.041,0.01 v 0.011 l 0.041,0.01 0.043,0.01 0.041,0.011 v 0.01 l 0.041,0.011 0.043,0.01 0.041,0.011 0.041,0.01 v 0.011 l 0.043,0.01 0.041,0.01 0.041,0.011 v 0.01 l 0.043,0.01 0.041,0.011 0.041,0.01 0.043,0.011 0.041,0.01 v 0.011 l 0.041,0.01 0.043,0.011 0.041,0.01 v 0.01 l 0.041,0.011 0.043,0.01 m -6,-2.061996 0.041,0.01 0.041,0.011 v 0.01 l 0.043,0.01 0.041,0.011 0.041,0.01 v 0.01 l 0.043,0.011 0.041,0.01 v 0.011 l 0.041,0.01 0.043,0.011 v 0.01 l 0.041,0.011 v 0.01 l 0.041,0.01 0.043,0.011 0.041,0.01 v 0.01 l 0.041,0.011 0.043,0.01 v 0.011 l 0.041,0.01 0.041,0.011 v 0.01 l 0.043,0.011 0.041,0.01 v 0.01 l 0.041,0.011 0.043,0.01 0.041,0.01 v 0.011 l 0.041,0.01 v 0.011 l 0.043,0.01 0.041,0.011 v 0.01 l 0.041,0.011 0.043,0.01 v 0.01 l 0.041,0.011 0.041,0.01 0.043,0.01 v 0.011 l 0.041,0.01 0.041,0.011 v 0.01 l 0.043,0.011 0.041,0.01 v 0.011 l 0.041,0.01 0.043,0.01 0.041,0.011 v 0.01 l 0.041,0.01 0.043,0.011 v 0.01 l 0.041,0.011 0.041,0.01 v 0.011 l 0.043,0.01 0.041,0.011 0.041,0.01 v 0.01 l 0.043,0.011 0.041,0.01 v 0.01 l 0.041,0.011 0.043,0.01 v 0.011 l 0.041,0.01 0.041,0.011 v 0.01 l 0.043,0.011 0.041,0.01 0.041,0.01 v 0.011 l 0.043,0.01 0.041,0.01 v 0.011 l 0.041,0.01 0.043,0.011 v 0.01 l 0.041,0.011 0.041,0.01 0.043,0.011 0.041,0.01 v 0.01 l 0.041,0.011 0.043,0.01 v 0.01 l 0.041,0.011 0.041,0.01 v 0.011 l 0.043,0.01 0.041,0.011 0.041,0.01 0.043,0.011 v 0.01 m -5.5,-2.063 v 0.011 l 0.041,0.01 v 0.011 l 0.041,0.01 0.043,0.011 v 0.01 l 0.041,0.01 v 0.011 l 0.041,0.01 v 0.01 l 0.043,0.011 0.041,0.01 0.041,0.011 v 0.01 l 0.043,0.011 0.041,0.01 v 0.011 l 0.041,0.01 v 0.01 l 0.043,0.011 v 0.01 l 0.041,0.01 0.041,0.011 0.043,0.01 v 0.011 l 0.041,0.01 0.041,0.011 v 0.01 l 0.043,0.011 v 0.01 l 0.041,0.01 0.041,0.011 v 0.01 l 0.043,0.01 0.041,0.011 v 0.01 l 0.041,0.011 0.043,0.01 v 0.011 l 0.041,0.01 v 0.011 l 0.041,0.01 0.043,0.01 v 0.011 l 0.041,0.01 v 0.01 l 0.041,0.011 0.043,0.01 0.041,0.011 v 0.01 l 0.041,0.011 0.043,0.01 v 0.011 l 0.041,0.01 v 0.01 l 0.041,0.011 0.043,0.01 0.041,0.01 v 0.011 l 0.041,0.01 0.043,0.011 v 0.01 l 0.041,0.011 v 0.01 l 0.041,0.011 0.043,0.01 v 0.01 l 0.041,0.011 v 0.01 l 0.041,0.01 0.043,0.011 0.041,0.01 v 0.011 l 0.041,0.01 0.043,0.011 v 0.01 l 0.041,0.011 v 0.01 l 0.041,0.01 0.043,0.011 v 0.01 l 0.041,0.01 0.041,0.011 0.043,0.01 v 0.011 l 0.041,0.01 0.041,0.011 v 0.01 l 0.043,0.011 v 0.01 l 0.041,0.01 0.041,0.011 v 0.01 l 0.043,0.01 0.041,0.011 0.041,0.01 v 0.011 l 0.043,0.01 v 0.011 m -5.168,-2.063 v 0.01 l 0.043,0.011 0.041,0.01 v 0.011 l 0.041,0.01 v 0.011 l 0.043,0.01 v 0.011 l 0.041,0.01 0.041,0.01 0.043,0.011 v 0.01 l 0.041,0.01 v 0.011 l 0.041,0.01 v 0.011 l 0.043,0.01 0.041,0.011 v 0.01 l 0.041,0.011 0.043,0.01 v 0.01 l 0.041,0.011 v 0.01 l 0.041,0.01 0.043,0.011 v 0.01 l 0.041,0.011 v 0.01 l 0.041,0.011 v 0.01 l 0.043,0.011 0.041,0.01 0.041,0.01 v 0.011 l 0.043,0.01 v 0.01 l 0.041,0.011 v 0.01 l 0.041,0.011 0.043,0.01 v 0.011 l 0.041,0.01 v 0.011 l 0.041,0.01 v 0.01 l 0.043,0.011 0.041,0.01 0.041,0.01 v 0.011 l 0.043,0.01 v 0.011 l 0.041,0.01 v 0.011 l 0.041,0.01 0.043,0.011 v 0.01 l 0.041,0.01 v 0.011 l 0.041,0.01 0.043,0.01 0.041,0.011 v 0.01 l 0.041,0.011 v 0.01 l 0.043,0.011 v 0.01 l 0.041,0.011 0.041,0.01 v 0.01 l 0.043,0.011 0.041,0.01 v 0.01 l 0.041,0.011 0.043,0.01 v 0.011 l 0.041,0.01 v 0.011 l 0.041,0.01 v 0.011 l 0.043,0.01 0.041,0.01 v 0.011 l 0.041,0.01 0.043,0.01 v 0.011 l 0.041,0.01 0.041,0.011 v 0.01 l 0.043,0.011 v 0.01 l 0.041,0.011 0.041,0.01 v 0.01 l 0.043,0.011 v 0.01 l 0.041,0.01 0.041,0.011 0.043,0.01 m -4.959,-2.062 v 0.01 l 0.041,0.011 0.043,0.01 v 0.01 l 0.041,0.011 0.041,0.01 v 0.011 l 0.043,0.01 v 0.011 l 0.041,0.01 v 0.011 l 0.041,0.01 v 0.01 l 0.043,0.011 0.041,0.01 v 0.01 l 0.041,0.011 v 0.01 l 0.043,0.011 0.041,0.01 v 0.011 l 0.041,0.01 v 0.011 l 0.043,0.01 v 0.01 l 0.041,0.011 v 0.01 l 0.041,0.01 0.043,0.011 v 0.01 l 0.041,0.011 0.041,0.01 v 0.011 l 0.043,0.01 v 0.011 l 0.041,0.01 v 0.01 l 0.041,0.011 v 0.01 l 0.043,0.01 v 0.011 l 0.041,0.01 0.041,0.011 0.043,0.01 v 0.011 l 0.041,0.01 v 0.011 l 0.041,0.01 v 0.01 l 0.043,0.011 v 0.01 l 0.041,0.01 v 0.011 l 0.041,0.01 0.043,0.011 0.041,0.01 v 0.011 l 0.041,0.01 v 0.011 l 0.043,0.01 v 0.01 l 0.041,0.011 v 0.01 l 0.041,0.01 0.043,0.011 v 0.01 l 0.041,0.011 0.041,0.01 v 0.011 l 0.043,0.01 v 0.011 l 0.041,0.01 v 0.01 l 0.041,0.011 0.043,0.01 v 0.01 l 0.041,0.011 v 0.01 l 0.041,0.011 v 0.01 l 0.043,0.011 0.041,0.01 0.041,0.011 v 0.01 l 0.043,0.01 v 0.011 l 0.041,0.01 v 0.01 l 0.041,0.011 v 0.01 l 0.043,0.011 0.041,0.01 v 0.011 l 0.041,0.01 0.043,0.011 v 0.01 l 0.041,0.01 v 0.011 l 0.041,0.01 m -4.75,-2.062 0.043,0.01 v 0.011 l 0.041,0.01 v 0.01 l 0.041,0.011 0.043,0.01 v 0.01 l 0.041,0.011 v 0.01 l 0.041,0.011 v 0.01 l 0.043,0.011 v 0.01 l 0.041,0.011 v 0.01 l 0.041,0.01 v 0.011 l 0.043,0.01 0.041,0.01 0.041,0.011 v 0.01 l 0.043,0.011 v 0.01 l 0.041,0.011 v 0.01 l 0.041,0.011 v 0.01 l 0.043,0.01 v 0.011 l 0.041,0.01 v 0.01 l 0.041,0.011 0.043,0.01 v 0.011 l 0.041,0.01 v 0.011 l 0.041,0.01 v 0.011 l 0.043,0.01 v 0.01 l 0.041,0.011 0.041,0.01 v 0.01 l 0.043,0.011 v 0.01 l 0.041,0.011 0.041,0.01 v 0.011 l 0.043,0.01 v 0.011 l 0.041,0.01 v 0.01 l 0.041,0.011 v 0.01 l 0.043,0.01 v 0.011 l 0.041,0.01 v 0.011 l 0.041,0.01 0.043,0.011 0.041,0.01 v 0.011 l 0.041,0.01 v 0.01 l 0.043,0.011 v 0.01 l 0.041,0.01 v 0.011 l 0.041,0.01 v 0.011 l 0.043,0.01 v 0.011 l 0.041,0.01 0.041,0.011 v 0.01 l 0.043,0.01 0.041,0.011 v 0.01 l 0.041,0.01 v 0.011 l 0.043,0.01 v 0.011 l 0.041,0.01 v 0.011 l 0.041,0.01 v 0.011 l 0.043,0.01 0.041,0.01 v 0.011 l 0.041,0.01 0.043,0.01 v 0.011 l 0.041,0.01 v 0.011 l 0.041,0.01 v 0.011 l 0.043,0.01 v 0.011 l 0.041,0.01 m -4.584,-2.063 0.043,0.011 v 0.01 l 0.041,0.011 0.041,0.01 v 0.011 l 0.043,0.01 v 0.01 l 0.041,0.011 v 0.01 l 0.041,0.01 v 0.011 l 0.043,0.01 v 0.011 l 0.041,0.01 v 0.011 l 0.041,0.01 v 0.011 l 0.043,0.01 0.041,0.01 v 0.011 l 0.041,0.01 v 0.01 l 0.043,0.011 v 0.01 l 0.041,0.011 v 0.01 l 0.041,0.011 v 0.01 l 0.043,0.011 v 0.01 l 0.041,0.01 v 0.011 l 0.041,0.01 0.043,0.01 v 0.011 l 0.041,0.01 v 0.011 l 0.041,0.01 v 0.011 l 0.043,0.01 v 0.011 l 0.041,0.01 v 0.01 l 0.041,0.011 v 0.01 l 0.043,0.01 v 0.011 l 0.041,0.01 0.041,0.011 v 0.01 l 0.043,0.011 v 0.01 l 0.041,0.011 v 0.01 l 0.041,0.01 v 0.011 l 0.043,0.01 0.041,0.01 v 0.011 l 0.041,0.01 0.043,0.011 v 0.01 l 0.041,0.011 v 0.01 l 0.041,0.011 v 0.01 l 0.043,0.01 v 0.011 l 0.041,0.01 v 0.01 l 0.041,0.011 v 0.01 l 0.043,0.011 v 0.01 l 0.041,0.011 0.041,0.01 v 0.011 l 0.043,0.01 v 0.01 l 0.041,0.011 v 0.01 l 0.041,0.01 v 0.011 l 0.043,0.01 v 0.011 l 0.041,0.01 v 0.011 l 0.041,0.01 v 0.011 l 0.043,0.01 0.041,0.01 0.041,0.011 v 0.01 l 0.043,0.01 v 0.011 l 0.041,0.01 v 0.011 l 0.041,0.01 v 0.011 m -4.457,-2.073002 v 0.01 l 0.041,0.01 0.041,0.011 v 0.01 l 0.043,0.011 v 0.01 l 0.041,0.011 v 0.01 l 0.041,0.011 v 0.01 l 0.043,0.01 v 0.011 l 0.041,0.01 v 0.01 l 0.041,0.011 v 0.01 l 0.043,0.011 0.041,0.01 v 0.011 l 0.041,0.01 v 0.011 l 0.043,0.01 v 0.01 l 0.041,0.011 v 0.01 l 0.041,0.01 v 0.011 l 0.043,0.01 v 0.011 l 0.041,0.01 v 0.011 l 0.041,0.01 0.043,0.011 v 0.01 l 0.041,0.01 v 0.011 l 0.041,0.01 v 0.01 l 0.043,0.011 v 0.01 l 0.041,0.011 v 0.01 l 0.041,0.011 v 0.01 l 0.043,0.011 0.041,0.01 v 0.01 l 0.041,0.011 v 0.01 l 0.043,0.01 v 0.011 l 0.041,0.01 v 0.011 l 0.041,0.01 v 0.011 l 0.043,0.01 v 0.011 l 0.041,0.01 v 0.01 l 0.041,0.011 0.043,0.01 v 0.01 l 0.041,0.021 v 0.011 l 0.041,0.01 v 0.011 l 0.043,0.01 v 0.011 l 0.041,0.01 v 0.01 l 0.041,0.011 0.043,0.01 v 0.01 l 0.041,0.011 0.041,0.01 v 0.011 l 0.043,0.01 v 0.011 l 0.041,0.01 v 0.011 l 0.041,0.01 v 0.01 l 0.043,0.011 v 0.01 l 0.041,0.01 v 0.011 l 0.041,0.01 v 0.011 l 0.043,0.01 0.041,0.011 v 0.01 l 0.041,0.011 v 0.01 l 0.043,0.01 v 0.011 l 0.041,0.01 v 0.01 l 0.041,0.011 v 0.01 m -4.416,-2.093002 0.041,0.01 v 0.011 l 0.043,0.01 v 0.01 l 0.041,0.011 v 0.01 l 0.041,0.01 v 0.011 l 0.043,0.01 v 0.011 l 0.041,0.01 v 0.011 l 0.041,0.01 v 0.011 l 0.043,0.01 0.041,0.01 v 0.011 l 0.041,0.01 v 0.01 l 0.043,0.011 v 0.01 l 0.041,0.011 v 0.01 l 0.041,0.011 v 0.01 l 0.043,0.011 v 0.01 l 0.041,0.01 0.041,0.011 v 0.01 l 0.043,0.021 v 0.01 l 0.041,0.011 v 0.01 l 0.041,0.011 v 0.01 l 0.043,0.011 v 0.01 l 0.041,0.01 v 0.011 l 0.041,0.01 v 0.01 l 0.043,0.011 0.041,0.01 v 0.011 l 0.041,0.01 v 0.011 l 0.043,0.01 v 0.011 l 0.041,0.01 v 0.01 l 0.041,0.011 v 0.01 l 0.043,0.01 v 0.011 l 0.041,0.01 v 0.011 l 0.041,0.01 0.043,0.011 v 0.01 l 0.041,0.011 v 0.01 l 0.041,0.01 v 0.011 l 0.043,0.01 v 0.01 l 0.041,0.011 v 0.01 l 0.041,0.011 v 0.01 l 0.043,0.011 v 0.021 l 0.041,0.01 0.041,0.01 v 0.011 l 0.043,0.01 v 0.01 l 0.041,0.011 v 0.01 l 0.041,0.011 v 0.01 l 0.043,0.011 v 0.01 l 0.041,0.011 v 0.01 l 0.041,0.01 0.043,0.011 v 0.01 l 0.041,0.01 v 0.011 l 0.041,0.01 v 0.011 l 0.043,0.01 v 0.011 l 0.041,0.01 v 0.011 l 0.041,0.01 v 0.01 l 0.043,0.011 m -4.418,-2.135998 0.043,0.011 v 0.02 l 0.041,0.011 v 0.01 l 0.041,0.011 v 0.01 l 0.043,0.011 v 0.01 l 0.041,0.011 v 0.01 l 0.041,0.01 v 0.011 l 0.043,0.01 0.041,0.01 v 0.011 l 0.041,0.01 v 0.011 l 0.043,0.01 v 0.011 l 0.041,0.01 v 0.011 l 0.041,0.01 v 0.021 l 0.043,0.01 v 0.01 l 0.041,0.011 0.041,0.01 v 0.011 l 0.043,0.01 v 0.011 l 0.041,0.01 v 0.011 l 0.041,0.01 v 0.01 l 0.043,0.011 v 0.01 l 0.041,0.01 v 0.011 l 0.041,0.01 v 0.011 l 0.043,0.01 0.041,0.011 v 0.01 l 0.041,0.011 v 0.01 l 0.043,0.021 v 0.01 l 0.041,0.01 v 0.011 l 0.041,0.01 v 0.011 l 0.043,0.01 v 0.011 l 0.041,0.01 v 0.011 l 0.041,0.01 0.043,0.01 v 0.011 l 0.041,0.01 v 0.01 l 0.041,0.011 v 0.01 l 0.043,0.011 v 0.01 l 0.041,0.011 v 0.01 l 0.041,0.011 v 0.01 l 0.043,0.01 0.041,0.011 v 0.02 l 0.041,0.011 v 0.01 l 0.043,0.011 v 0.01 l 0.041,0.011 v 0.01 l 0.041,0.011 v 0.01 l 0.043,0.01 v 0.011 l 0.041,0.01 v 0.01 l 0.041,0.011 0.043,0.01 v 0.011 l 0.041,0.01 v 0.011 l 0.041,0.01 v 0.011 l 0.043,0.01 v 0.01 l 0.041,0.011 v 0.01 l 0.041,0.01 v 0.011 l 0.043,0.01 v 0.021 l 0.041,0.011 m -4.416,-2.167 0.041,0.01 v 0.011 l 0.041,0.01 v 0.011 l 0.043,0.01 v 0.011 l 0.041,0.01 v 0.021 l 0.041,0.01 0.043,0.01 v 0.011 l 0.041,0.01 v 0.011 l 0.041,0.01 v 0.011 l 0.043,0.01 v 0.011 l 0.041,0.01 v 0.01 l 0.041,0.011 v 0.01 l 0.043,0.01 v 0.011 l 0.041,0.01 0.041,0.021 v 0.011 l 0.043,0.01 v 0.011 l 0.041,0.01 v 0.01 l 0.041,0.011 v 0.01 l 0.043,0.01 v 0.011 l 0.041,0.01 v 0.011 l 0.041,0.01 v 0.011 l 0.043,0.01 0.041,0.011 v 0.01 l 0.041,0.01 v 0.021 l 0.043,0.01 v 0.011 l 0.041,0.01 v 0.011 l 0.041,0.01 v 0.011 l 0.043,0.01 v 0.011 l 0.041,0.01 v 0.01 l 0.041,0.011 0.043,0.01 v 0.01 l 0.041,0.011 v 0.01 l 0.041,0.011 v 0.01 l 0.043,0.021 v 0.011 l 0.041,0.01 v 0.01 l 0.041,0.011 v 0.01 l 0.043,0.01 0.041,0.011 v 0.01 l 0.041,0.011 v 0.01 l 0.043,0.011 v 0.01 l 0.041,0.011 v 0.01 l 0.041,0.01 v 0.011 l 0.043,0.01 v 0.01 l 0.041,0.011 v 0.021 l 0.041,0.01 0.043,0.011 v 0.01 l 0.041,0.011 v 0.01 l 0.041,0.01 v 0.011 l 0.043,0.01 v 0.01 l 0.041,0.011 v 0.01 l 0.041,0.011 v 0.01 l 0.043,0.011 v 0.01 l 0.041,0.011 0.041,0.01 v 0.01 m -4.416,-2.176998 0.041,0.011 v 0.01 l 0.043,0.011 v 0.01 l 0.041,0.01 v 0.011 l 0.041,0.01 0.043,0.01 v 0.011 l 0.041,0.021 v 0.01 l 0.041,0.011 v 0.01 l 0.043,0.011 v 0.01 l 0.041,0.01 v 0.011 l 0.041,0.01 v 0.01 l 0.043,0.011 v 0.01 l 0.041,0.011 0.041,0.01 v 0.011 l 0.043,0.01 v 0.021 l 0.041,0.01 v 0.011 l 0.041,0.01 v 0.01 l 0.043,0.011 v 0.01 l 0.041,0.011 v 0.01 l 0.041,0.011 v 0.01 l 0.043,0.011 0.041,0.01 v 0.01 l 0.041,0.011 v 0.02 l 0.043,0.011 v 0.01 l 0.041,0.011 v 0.01 l 0.041,0.011 v 0.01 l 0.043,0.011 v 0.01 l 0.041,0.01 0.041,0.011 v 0.01 l 0.043,0.01 v 0.011 l 0.041,0.01 v 0.011 l 0.041,0.021 v 0.01 l 0.043,0.011 v 0.01 l 0.041,0.01 v 0.011 l 0.041,0.01 v 0.01 l 0.043,0.011 0.041,0.01 v 0.011 l 0.041,0.01 v 0.011 l 0.043,0.01 v 0.011 l 0.041,0.01 v 0.021 l 0.041,0.01 v 0.01 l 0.043,0.011 v 0.01 l 0.041,0.011 v 0.01 l 0.041,0.011 0.043,0.01 v 0.011 l 0.041,0.01 v 0.01 l 0.041,0.011 v 0.01 l 0.043,0.01 v 0.011 l 0.041,0.01 v 0.021 l 0.041,0.011 v 0.01 l 0.043,0.011 v 0.01 l 0.041,0.01 0.041,0.011 v 0.01 l 0.043,0.01 v 0.011 m -4.418,-2.197998 0.043,0.011 v 0.01 l 0.041,0.01 v 0.011 l 0.041,0.02 0.043,0.011 v 0.01 l 0.041,0.011 v 0.01 l 0.041,0.011 v 0.01 l 0.043,0.011 v 0.01 l 0.041,0.01 v 0.011 l 0.041,0.01 v 0.01 l 0.043,0.011 v 0.01 l 0.041,0.021 0.041,0.011 v 0.01 l 0.043,0.011 v 0.01 l 0.041,0.01 v 0.011 l 0.041,0.01 v 0.01 l 0.043,0.011 v 0.01 l 0.041,0.011 v 0.01 l 0.041,0.011 0.043,0.01 v 0.021 l 0.041,0.01 v 0.011 l 0.041,0.01 v 0.01 l 0.043,0.011 v 0.01 l 0.041,0.011 v 0.01 l 0.041,0.011 v 0.01 l 0.043,0.011 v 0.01 l 0.041,0.01 0.041,0.021 v 0.01 l 0.043,0.011 v 0.01 l 0.041,0.011 v 0.01 l 0.041,0.011 v 0.01 l 0.043,0.011 v 0.01 l 0.041,0.01 v 0.011 l 0.041,0.01 v 0.01 l 0.043,0.011 0.041,0.021 v 0.01 l 0.041,0.011 v 0.01 l 0.043,0.011 v 0.01 l 0.041,0.01 v 0.011 l 0.041,0.01 v 0.01 l 0.043,0.011 v 0.01 l 0.041,0.011 v 0.01 l 0.041,0.011 0.043,0.021 v 0.01 l 0.041,0.01 v 0.011 l 0.041,0.01 v 0.01 l 0.043,0.011 v 0.01 l 0.041,0.011 v 0.01 l 0.041,0.011 v 0.01 l 0.043,0.011 0.041,0.01 v 0.01 l 0.041,0.021 v 0.01 l 0.043,0.011 v 0.01 l 0.041,0.011 v 0.01 m -4.416,-2.208 0.041,0.021 v 0.01 l 0.041,0.01101 0.043,0.01 v 0.01 l 0.041,0.011 v 0.01 l 0.041,0.011 v 0.01 l 0.043,0.011 v 0.01 l 0.041,0.011 v 0.01 l 0.041,0.01 v 0.011 l 0.043,0.02 v 0.011 l 0.041,0.01 0.041,0.011 v 0.01 l 0.043,0.011 v 0.01 l 0.041,0.011 v 0.01 l 0.041,0.01 v 0.01101 l 0.043,0.01 v 0.01 l 0.041,0.011 v 0.01 l 0.041,0.021 0.043,0.011 v 0.01 l 0.041,0.011 v 0.01 l 0.041,0.01 v 0.011 l 0.043,0.01 v 0.01 l 0.041,0.011 v 0.01 l 0.041,0.011 v 0.01 l 0.043,0.011 v 0.021 l 0.041,0.01 0.041,0.01 v 0.01101 l 0.043,0.01 v 0.01 l 0.041,0.011 v 0.01 l 0.041,0.011 v 0.01 l 0.043,0.011 v 0.01 l 0.041,0.011 v 0.01 l 0.041,0.01 v 0.021 l 0.043,0.01 0.041,0.011 v 0.01 l 0.041,0.011 v 0.01 l 0.043,0.011 v 0.01 l 0.041,0.011 v 0.01 l 0.041,0.01 v 0.01101 l 0.043,0.01 v 0.01 l 0.041,0.011 v 0.021 l 0.041,0.01 0.043,0.011 v 0.01 l 0.041,0.011 v 0.01 l 0.041,0.01 v 0.011 l 0.043,0.01 v 0.01 l 0.041,0.011 v 0.01 l 0.041,0.011 v 0.01 l 0.043,0.011 0.041,0.02 v 0.011 l 0.041,0.01 v 0.01 l 0.043,0.011 v 0.01 l 0.041,0.011 v 0.01 l 0.041,0.011 v 0.01 m -4.416,-2.198002 0.041,0.011 0.043,0.01 v 0.01 l 0.041,0.011 v 0.01 l 0.041,0.011 v 0.021 l 0.043,0.01 v 0.011 l 0.041,0.01 v 0.01 l 0.041,0.01101 v 0.01 l 0.043,0.01 0.041,0.011 v 0.01 l 0.041,0.011 v 0.01 l 0.043,0.011 v 0.01 l 0.041,0.011 v 0.01 l 0.041,0.021 v 0.01 l 0.043,0.01 v 0.011 l 0.041,0.01 v 0.011 l 0.041,0.01 0.043,0.011 v 0.01 l 0.041,0.011 v 0.01 l 0.041,0.01 v 0.01101 l 0.043,0.01 v 0.01 l 0.041,0.011 v 0.021 l 0.041,0.01 v 0.011 l 0.043,0.01 v 0.011 l 0.041,0.01 0.041,0.01 v 0.011 l 0.043,0.01 v 0.01 l 0.041,0.011 v 0.01 l 0.041,0.011 v 0.01 l 0.043,0.011 v 0.021 l 0.041,0.01 v 0.01 l 0.041,0.01101 v 0.01 l 0.043,0.01 0.041,0.011 v 0.01 l 0.041,0.011 v 0.01 l 0.043,0.011 v 0.01 l 0.041,0.011 v 0.01 l 0.041,0.01 v 0.011 l 0.043,0.02 v 0.011 l 0.041,0.01 0.041,0.011 v 0.01 l 0.043,0.011 v 0.01 l 0.041,0.011 v 0.01 l 0.041,0.01 v 0.01101 l 0.043,0.01 v 0.01 l 0.041,0.011 v 0.01 l 0.041,0.021 v 0.011 l 0.043,0.01 0.041,0.011 v 0.01 l 0.041,0.01 v 0.011 l 0.043,0.01 v 0.01 l 0.041,0.011 v 0.01 l 0.041,0.011 v 0.01 l 0.043,0.011 v 0.01 m -4.375,-2.177002 v 0.01 l 0.041,0.011 v 0.01 l 0.041,0.01 v 0.011 l 0.043,0.011 v 0.009 l 0.041,0.011 v 0.011 l 0.041,0.01 v 0.01 l 0.043,0.011 0.041,0.01 v 0.011 l 0.041,0.01 v 0.01 l 0.043,0.011 v 0.011 l 0.041,0.02 v 0.01101 l 0.041,0.01 v 0.01 l 0.043,0.011 v 0.01 l 0.041,0.011 v 0.01 l 0.041,0.01 0.043,0.011 v 0.011 l 0.041,0.009 v 0.011 l 0.041,0.011 v 0.01 l 0.043,0.01 v 0.011 l 0.041,0.01 v 0.021 l 0.041,0.01 v 0.011 l 0.043,0.011 v 0.009 l 0.041,0.01099 0.041,0.01101 v 0.01 l 0.043,0.01 v 0.011 l 0.041,0.01 v 0.011 l 0.041,0.01 v 0.01 l 0.043,0.011 v 0.011 l 0.041,0.009 v 0.011 l 0.041,0.021 0.043,0.01 v 0.011 l 0.041,0.01 v 0.011 l 0.041,0.01 v 0.011 l 0.043,0.01 v 0.011 l 0.041,0.01 v 0.01 l 0.041,0.01101 v 0.01 l 0.043,0.01 v 0.011 l 0.041,0.01 0.041,0.011 v 0.021 l 0.043,0.01 v 0.011 l 0.041,0.01 v 0.01 l 0.041,0.011 v 0.01 l 0.043,0.01 v 0.011 l 0.041,0.01 v 0.011 l 0.041,0.01 v 0.011 l 0.043,0.01 0.041,0.011 v 0.01 l 0.041,0.01 v 0.021 l 0.043,0.01 v 0.011 l 0.041,0.01 v 0.011 l 0.041,0.01 v 0.011 l 0.043,0.01 v 0.011 l 0.041,0.01 v 0.01 m -4.375,-2.167 v 0.011 l 0.041,0.011 v 0.009 l 0.043,0.01099 v 0.01101 l 0.041,0.01 v 0.01 l 0.041,0.011 v 0.021 l 0.043,0.01 0.041,0.01 v 0.011 l 0.041,0.011 v 0.009 l 0.043,0.011 v 0.011 l 0.041,0.01 v 0.01 l 0.041,0.011 v 0.01 l 0.043,0.011 v 0.01 l 0.041,0.01 v 0.011 l 0.041,0.011 0.043,0.009 v 0.01099 l 0.041,0.01101 v 0.01 l 0.041,0.01 v 0.011 l 0.043,0.01 v 0.011 l 0.041,0.02 v 0.011 l 0.041,0.011 v 0.009 l 0.043,0.011 v 0.011 l 0.041,0.01 0.041,0.01 v 0.011 l 0.043,0.01 v 0.011 l 0.041,0.01 v 0.01 l 0.041,0.011 v 0.011 l 0.043,0.009 v 0.01099 l 0.041,0.01101 v 0.01 l 0.041,0.01 0.043,0.011 v 0.01 l 0.041,0.011 v 0.02 l 0.041,0.011 v 0.011 l 0.043,0.009 v 0.011 l 0.041,0.011 v 0.01 l 0.041,0.01 v 0.011 l 0.043,0.01 v 0.011 l 0.041,0.01 0.041,0.01 v 0.011 l 0.043,0.011 v 0.009 l 0.041,0.01099 v 0.01101 l 0.041,0.01 v 0.01 l 0.043,0.011 v 0.021 l 0.041,0.01 v 0.01 l 0.041,0.011 v 0.011 l 0.043,0.009 0.041,0.011 v 0.011 l 0.041,0.01 v 0.01 l 0.043,0.011 v 0.01 l 0.041,0.011 v 0.01 l 0.041,0.01 v 0.011 l 0.043,0.011 v 0.009 l 0.041,0.01099 0.041,0.01101 v 0.02 l 0.043,0.011 m -4.418,-2.146 v 0.01 l 0.043,0.011 v 0.01 l 0.041,0.011 v 0.01 l 0.041,0.01 v 0.011 l 0.043,0.02 0.041,0.01099 v 0.01101 l 0.041,0.01 v 0.01 l 0.043,0.011 v 0.01 l 0.041,0.011 v 0.01 l 0.041,0.01 v 0.011 l 0.043,0.011 v 0.009 l 0.041,0.011 v 0.011 l 0.041,0.01 0.043,0.01 v 0.011 l 0.041,0.01 v 0.011 l 0.041,0.01 v 0.01 l 0.043,0.011 v 0.011 l 0.041,0.009 v 0.01099 l 0.041,0.01101 v 0.01 l 0.043,0.01 0.041,0.011 v 0.01 l 0.041,0.011 v 0.01 l 0.043,0.01 v 0.011 l 0.041,0.011 v 0.009 l 0.041,0.011 v 0.011 l 0.043,0.01 v 0.01 l 0.041,0.021 v 0.011 l 0.041,0.01 0.043,0.01 v 0.011 l 0.041,0.011 v 0.009 l 0.041,0.01099 v 0.01101 l 0.043,0.01 v 0.01 l 0.041,0.011 v 0.01 l 0.041,0.011 v 0.01 l 0.043,0.01 v 0.011 l 0.041,0.011 0.041,0.009 v 0.011 l 0.043,0.011 v 0.01 l 0.041,0.01 v 0.011 l 0.041,0.01 v 0.011 l 0.043,0.01 v 0.01 l 0.041,0.011 v 0.011 l 0.041,0.009 v 0.01099 l 0.043,0.021 0.041,0.01 v 0.011 l 0.041,0.01 v 0.011 l 0.043,0.01 v 0.01 l 0.041,0.011 v 0.011 l 0.041,0.009 v 0.011 l 0.043,0.011 v 0.01 l 0.041,0.01 0.041,0.011 v 0.01 l 0.043,0.011 v 0.01 l 0.041,0.01 m -4.459,-2.103 0.043,0.009 v 0.011 l 0.041,0.011 v 0.01 l 0.041,0.01 v 0.011 l 0.043,0.01 0.041,0.011 0.041,0.01 v 0.01 l 0.043,0.011 v 0.011 l 0.041,0.009 v 0.01099 l 0.041,0.01101 v 0.01 l 0.043,0.021 v 0.01 l 0.041,0.011 0.041,0.01 v 0.01 l 0.043,0.011 v 0.011 l 0.041,0.009 v 0.011 l 0.041,0.011 v 0.01 l 0.043,0.01 v 0.011 l 0.041,0.01 v 0.011 l 0.041,0.01 v 0.01 l 0.043,0.011 0.041,0.011 v 0.009 l 0.041,0.01099 v 0.01101 l 0.043,0.01 v 0.01 l 0.041,0.011 v 0.01 l 0.041,0.011 v 0.01 l 0.043,0.01 v 0.011 l 0.041,0.011 v 0.009 l 0.041,0.011 0.043,0.011 v 0.01 l 0.041,0.01 v 0.011 l 0.041,0.01 v 0.011 l 0.043,0.01 v 0.01 l 0.041,0.011 v 0.011 l 0.041,0.009 v 0.01099 l 0.043,0.01101 v 0.01 l 0.041,0.01 0.041,0.011 v 0.01 l 0.043,0.011 v 0.01 l 0.041,0.011 v 0.01 l 0.041,0.011 v 0.01 l 0.043,0.01 v 0.011 l 0.041,0.01 v 0.01 l 0.041,0.011 0.043,0.01 v 0.011 l 0.041,0.01 v 0.011 l 0.041,0.01 v 0.011 l 0.043,0.01 v 0.01 l 0.041,0.01101 v 0.01 l 0.041,0.01 v 0.011 l 0.043,0.01 v 0.011 l 0.041,0.01 0.041,0.011 v 0.01 l 0.043,0.011 v 0.01 l 0.041,0.01 v 0.011 l 0.041,0.01 m -4.457,-2.072998 v 0.01 l 0.041,0.011 v 0.011 l 0.041,0.009 0.043,0.011 v 0.011 l 0.041,0.01 v 0.01 l 0.041,0.011 v 0.01 l 0.043,0.011 v 0.01 l 0.041,0.01 v 0.011 l 0.041,0.011 v 0.009 l 0.043,0.01099 v 0.01101 l 0.041,0.01 0.041,0.01 v 0.011 l 0.043,0.01 0.041,0.011 v 0.01 l 0.041,0.01 v 0.011 l 0.043,0.011 v 0.009 l 0.041,0.011 v 0.011 l 0.041,0.01 v 0.01 l 0.043,0.011 0.041,0.01 v 0.011 l 0.041,0.01 v 0.01 l 0.043,0.011 v 0.011 l 0.041,0.009 v 0.01099 l 0.041,0.01101 v 0.01 l 0.043,0.01 v 0.011 l 0.041,0.01 v 0.011 l 0.041,0.01 0.043,0.01 v 0.011 l 0.041,0.011 v 0.009 l 0.041,0.011 v 0.011 l 0.043,0.01 v 0.01 l 0.041,0.011 v 0.01 l 0.041,0.011 v 0.01 l 0.043,0.01 0.041,0.011 v 0.011 l 0.041,0.01 v 0.01 l 0.043,0.01101 v 0.01 l 0.041,0.01 v 0.011 l 0.041,0.01 v 0.011 l 0.043,0.01 v 0.011 l 0.041,0.01 v 0.011 l 0.041,0.01 0.043,0.01 v 0.011 l 0.041,0.01 v 0.01 l 0.041,0.011 v 0.01 l 0.043,0.011 v 0.01 l 0.041,0.011 v 0.01 l 0.041,0.011 v 0.01 l 0.043,0.01 v 0.01101 l 0.041,0.01 0.041,0.01 v 0.011 l 0.043,0.01 v 0.011 l 0.041,0.01 v 0.011 l 0.041,0.01 v 0.011 m -4.541,-2.063 0.041,0.01 v 0.011 l 0.043,0.01 0.041,0.01 v 0.011 l 0.041,0.011 0.043,0.009 v 0.011 l 0.041,0.011 v 0.01 l 0.041,0.01 v 0.011 l 0.043,0.01 v 0.011 l 0.041,0.01 v 0.01 l 0.041,0.011 v 0.011 l 0.043,0.009 0.041,0.01099 0.041,0.01101 v 0.01 l 0.043,0.01 v 0.011 l 0.041,0.01 v 0.011 l 0.041,0.01 v 0.01 l 0.043,0.011 v 0.011 l 0.041,0.009 v 0.011 l 0.041,0.011 v 0.01 l 0.043,0.01 0.041,0.011 v 0.01 l 0.041,0.011 0.043,0.01 v 0.01 l 0.041,0.011 v 0.011 l 0.041,0.009 v 0.01099 l 0.043,0.01101 v 0.01 l 0.041,0.01 v 0.011 l 0.041,0.01 0.043,0.011 v 0.01 l 0.041,0.01 v 0.011 l 0.041,0.011 v 0.009 l 0.043,0.011 v 0.011 l 0.041,0.01 v 0.01 l 0.041,0.011 0.043,0.01 0.041,0.011 v 0.01 l 0.041,0.011 v 0.01 l 0.043,0.011 v 0.01 l 0.041,0.01 v 0.01101 l 0.041,0.01 v 0.01 l 0.043,0.011 v 0.01 l 0.041,0.011 v 0.01 l 0.041,0.011 0.043,0.01 v 0.011 l 0.041,0.01 v 0.01 l 0.041,0.011 v 0.01 l 0.043,0.01 v 0.011 l 0.041,0.01 0.041,0.011 v 0.01 l 0.043,0.011 v 0.01 l 0.041,0.011 0.041,0.01 v 0.01 l 0.043,0.01101 v 0.01 l 0.041,0.01 v 0.011 l 0.041,0.01 v 0.011 l 0.043,0.01 m -4.709,-2.062 0.041,0.01 v 0.01 l 0.043,0.011 v 0.01 l 0.041,0.011 0.041,0.01 v 0.01 l 0.043,0.011 v 0.011 l 0.041,0.009 v 0.011 l 0.041,0.011 0.043,0.01 v 0.01 l 0.041,0.011 0.041,0.01 v 0.011 l 0.043,0.01 v 0.01 l 0.041,0.011 v 0.011 l 0.041,0.009 v 0.01099 l 0.043,0.01101 0.041,0.01 0.041,0.01 v 0.011 l 0.043,0.01 v 0.011 l 0.041,0.01 v 0.01 l 0.041,0.011 v 0.011 l 0.043,0.009 v 0.011 l 0.041,0.011 0.041,0.01 v 0.01 l 0.043,0.011 0.041,0.01 v 0.011 l 0.041,0.01 v 0.01 l 0.043,0.011 v 0.011 l 0.041,0.009 v 0.01099 l 0.041,0.01101 0.043,0.01 v 0.01 l 0.041,0.011 0.041,0.01 v 0.011 l 0.043,0.01 v 0.01 l 0.041,0.011 v 0.011 l 0.041,0.009 v 0.011 l 0.043,0.011 0.041,0.01 v 0.01 l 0.041,0.011 v 0.01 l 0.043,0.011 0.041,0.01 v 0.011 l 0.041,0.01 v 0.011 l 0.043,0.01 v 0.01 l 0.041,0.01101 0.041,0.01 v 0.01 l 0.043,0.011 v 0.01 l 0.041,0.011 v 0.01 l 0.041,0.011 0.043,0.01 v 0.011 l 0.041,0.01 v 0.01 l 0.041,0.011 v 0.01 l 0.043,0.01 0.041,0.011 v 0.01 l 0.041,0.011 v 0.01 l 0.043,0.011 v 0.01 l 0.041,0.011 0.041,0.01 v 0.01 l 0.043,0.01101 v 0.01 l 0.041,0.01 v 0.011 m -4.875,-2.062 0.041,0.009 v 0.01099 l 0.043,0.01101 v 0.01 l 0.041,0.01 0.041,0.011 v 0.01 l 0.043,0.011 0.041,0.01 v 0.01 l 0.041,0.011 0.043,0.011 v 0.009 l 0.041,0.011 v 0.011 l 0.041,0.01 v 0.01 l 0.043,0.011 0.041,0.01 v 0.011 l 0.041,0.01 0.043,0.01 v 0.011 l 0.041,0.011 0.041,0.009 v 0.01099 l 0.043,0.01101 v 0.01 l 0.041,0.01 v 0.011 l 0.041,0.01 0.043,0.011 v 0.01 l 0.041,0.01 0.041,0.011 v 0.011 l 0.043,0.009 0.041,0.011 v 0.011 l 0.041,0.01 v 0.01 l 0.043,0.011 v 0.01 l 0.041,0.011 v 0.01 l 0.041,0.01 0.043,0.011 0.041,0.011 v 0.009 l 0.041,0.01099 v 0.01101 l 0.043,0.01 0.041,0.01 v 0.011 l 0.041,0.01 v 0.011 l 0.043,0.01 v 0.01 l 0.041,0.011 0.041,0.011 0.043,0.009 v 0.011 l 0.041,0.011 v 0.01 l 0.041,0.01 v 0.011 l 0.043,0.01 v 0.011 l 0.041,0.01 0.041,0.011 v 0.01 l 0.043,0.011 0.041,0.01 v 0.01 l 0.041,0.01101 v 0.01 l 0.043,0.01 0.041,0.011 v 0.01 l 0.041,0.011 v 0.01 l 0.043,0.011 v 0.01 l 0.041,0.011 v 0.01 l 0.041,0.01 0.043,0.011 0.041,0.01 v 0.01 l 0.041,0.011 v 0.01 l 0.043,0.011 v 0.01 l 0.041,0.011 0.041,0.01 v 0.011 l 0.043,0.01 0.041,0.01 v 0.01101 m -5.125,-2.063 0.041,0.01 v 0.011 l 0.043,0.011 v 0.009 l 0.041,0.01099 0.041,0.01101 v 0.01 l 0.043,0.01 0.041,0.011 0.041,0.01 v 0.011 l 0.043,0.01 0.041,0.01 v 0.011 l 0.041,0.011 v 0.009 l 0.043,0.011 0.041,0.011 v 0.01 l 0.041,0.01 v 0.011 l 0.043,0.01 0.041,0.011 0.041,0.01 v 0.01 l 0.043,0.011 0.041,0.011 v 0.009 l 0.041,0.01099 v 0.01101 l 0.043,0.01 0.041,0.01 v 0.011 l 0.041,0.01 0.043,0.011 v 0.01 l 0.041,0.01 0.041,0.011 v 0.011 l 0.043,0.009 v 0.011 l 0.041,0.011 0.041,0.01 v 0.01 l 0.043,0.011 v 0.01 l 0.041,0.011 0.041,0.01 0.043,0.01 v 0.011 l 0.041,0.011 0.041,0.009 v 0.01099 l 0.043,0.01101 v 0.01 l 0.041,0.01 0.041,0.011 0.043,0.01 v 0.011 l 0.041,0.01 v 0.01 l 0.041,0.011 0.043,0.011 v 0.01 l 0.041,0.01 v 0.011 l 0.041,0.01 0.043,0.01 v 0.011 l 0.041,0.01 0.041,0.011 v 0.01 l 0.043,0.011 0.041,0.01 v 0.011 l 0.041,0.01 v 0.01 l 0.043,0.01101 v 0.01 l 0.041,0.01 0.041,0.011 v 0.01 l 0.043,0.011 0.041,0.01 0.041,0.011 v 0.01 l 0.043,0.011 v 0.01 l 0.041,0.01 v 0.011 l 0.041,0.01 0.043,0.01 v 0.011 l 0.041,0.01 0.041,0.011 v 0.01 l 0.043,0.011 0.041,0.01 v 0.011 m -5.459,-2.063 0.043,0.01 0.041,0.011 v 0.01 l 0.041,0.01 0.043,0.011 v 0.011 l 0.041,0.009 0.041,0.011 0.043,0.01101 v 0.01 l 0.041,0.01 0.041,0.011 v 0.01 l 0.043,0.011 0.041,0.01 v 0.01 l 0.041,0.011 0.043,0.011 0.041,0.009 0.041,0.011 v 0.011 l 0.043,0.01 v 0.01 l 0.041,0.011 0.041,0.01 v 0.011 l 0.043,0.01 0.041,0.01 0.041,0.011 v 0.011 l 0.043,0.009 0.041,0.01099 v 0.01101 l 0.041,0.01 0.043,0.01 v 0.011 l 0.041,0.01 0.041,0.011 v 0.01 l 0.043,0.01 0.041,0.011 0.041,0.011 v 0.009 l 0.043,0.011 0.041,0.011 v 0.01 l 0.041,0.01 0.043,0.011 v 0.01 l 0.041,0.011 v 0.01 l 0.041,0.01 0.043,0.011 0.041,0.011 0.041,0.009 v 0.01099 l 0.043,0.01101 v 0.01 l 0.041,0.01 0.041,0.011 v 0.01 l 0.043,0.011 0.041,0.01 0.041,0.011 v 0.01 l 0.043,0.011 0.041,0.01 v 0.01 l 0.041,0.011 v 0.01 l 0.043,0.01 0.041,0.011 v 0.01 l 0.041,0.011 0.043,0.01 0.041,0.011 v 0.01 l 0.041,0.011 0.043,0.01 v 0.01 l 0.041,0.01101 0.041,0.01 v 0.01 l 0.043,0.011 v 0.01 l 0.041,0.011 0.041,0.01 0.043,0.011 v 0.01 l 0.041,0.011 0.041,0.01 v 0.01 l 0.043,0.011 v 0.01 l 0.041,0.01 0.041,0.011 v 0.01 l 0.043,0.011 0.041,0.01 m -5.875,-2.062002 0.041,0.01 0.043,0.01 v 0.011 l 0.041,0.01 0.041,0.011 0.043,0.01 v 0.01 l 0.041,0.011 0.041,0.011 v 0.009 l 0.043,0.011 0.041,0.011 0.041,0.01 0.043,0.01 0.041,0.011 v 0.01 l 0.041,0.011 0.043,0.01 v 0.01 l 0.041,0.011 0.041,0.011 0.043,0.009 0.041,0.011 v 0.011 l 0.041,0.01 0.043,0.01 0.041,0.011 v 0.01 l 0.041,0.011 0.043,0.01 0.041,0.01 0.041,0.011 v 0.011 l 0.043,0.009 0.041,0.011 v 0.011 l 0.041,0.01 0.043,0.01 0.041,0.011 v 0.01 l 0.041,0.011 0.043,0.01 0.041,0.01 0.041,0.011 v 0.011 l 0.043,0.009 0.041,0.011 v 0.011 l 0.041,0.01 0.043,0.01 v 0.011 l 0.041,0.01 0.041,0.011 0.043,0.01 0.041,0.01 v 0.011 l 0.041,0.011 0.043,0.009 v 0.011 l 0.041,0.011 0.041,0.01 v 0.01 l 0.043,0.011 0.041,0.01 0.041,0.011 0.043,0.01 v 0.011 l 0.041,0.01 0.041,0.011 v 0.01 l 0.043,0.01 0.041,0.011 0.041,0.01 0.043,0.01 v 0.011 l 0.041,0.01 0.041,0.011 v 0.01 l 0.043,0.011 0.041,0.01 v 0.011 l 0.041,0.01 0.043,0.01 0.041,0.011 0.041,0.01 v 0.01 l 0.043,0.011 0.041,0.01 v 0.011 l 0.041,0.01 0.043,0.011 v 0.01 l 0.041,0.011 0.041,0.01 0.043,0.01 v 0.011 l 0.041,0.01 0.041,0.01 v 0.011 m -6.457,-2.062 0.041,0.009 0.041,0.011 0.043,0.011 v 0.01 l 0.041,0.01 0.041,0.011 0.043,0.01 0.041,0.011 0.041,0.01 0.043,0.01 0.041,0.011 v 0.011 l 0.041,0.009 0.043,0.011 0.041,0.011 0.041,0.01 0.043,0.01 0.041,0.011 0.041,0.01 v 0.011 l 0.043,0.01 0.041,0.01 0.041,0.011 0.043,0.011 0.041,0.009 0.041,0.011 v 0.011 l 0.043,0.01 0.041,0.01 0.041,0.011 0.043,0.01 v 0.011 l 0.041,0.01 0.041,0.01 0.043,0.011 0.041,0.011 0.041,0.009 0.043,0.011 v 0.011 l 0.041,0.01 0.041,0.01 0.043,0.011 0.041,0.01 0.041,0.011 0.043,0.01 v 0.01 l 0.041,0.011 0.041,0.011 0.043,0.009 v 0.011 l 0.041,0.011 0.041,0.01 0.043,0.01 0.041,0.011 0.041,0.01 0.043,0.011 v 0.01 l 0.041,0.01 0.041,0.011 0.043,0.011 0.041,0.009 0.041,0.011 v 0.011 l 0.043,0.01 0.041,0.01 0.041,0.011 v 0.01 l 0.043,0.011 0.041,0.01 0.041,0.011 0.043,0.01 0.041,0.011 v 0.01 l 0.041,0.01 0.043,0.011 0.041,0.01 v 0.01 l 0.041,0.011 0.043,0.01 0.041,0.011 0.041,0.01 0.043,0.011 v 0.01 l 0.041,0.011 0.041,0.01 0.043,0.01 v 0.011 l 0.041,0.01 0.041,0.01 0.043,0.011 0.041,0.01 0.041,0.011 v 0.01 l 0.043,0.011 0.041,0.01 v 0.011 l 0.041,0.01 0.043,0.01 0.041,0.011 m -7.375,-2.053 0.041,0.011 0.043,0.011 0.041,0.009 0.041,0.011 0.043,0.011 0.041,0.01 h 0.041 l 0.043,0.01 0.041,0.011 0.041,0.01 0.043,0.011 0.041,0.01 0.041,0.01 0.043,0.011 0.041,0.011 0.041,0.009 0.043,0.011 0.041,0.011 0.041,0.01 0.043,0.01 0.041,0.011 0.041,0.01 0.043,0.011 0.041,0.01 0.041,0.01 0.043,0.011 0.041,0.011 0.041,0.009 0.043,0.011 0.041,0.011 0.041,0.01 0.043,0.01 0.041,0.011 0.041,0.01 0.043,0.011 0.041,0.01 0.041,0.01 0.043,0.011 0.041,0.011 0.041,0.009 0.043,0.011 0.041,0.011 0.041,0.01 0.043,0.01 0.041,0.011 0.041,0.01 0.043,0.011 0.041,0.01 0.041,0.01 0.043,0.011 0.041,0.011 0.041,0.009 0.043,0.011 0.041,0.011 0.041,0.01 0.043,0.01 0.041,0.011 v 0.01 l 0.041,0.011 0.043,0.01 0.041,0.01 0.041,0.011 0.043,0.011 0.041,0.009 0.041,0.011 0.043,0.011 0.041,0.01 0.041,0.01 0.043,0.011 v 0.01 l 0.041,0.011 0.041,0.01 0.043,0.011 0.041,0.01 0.041,0.011 0.043,0.01 0.041,0.01 0.041,0.011 0.043,0.01 0.041,0.01 0.041,0.011 0.043,0.01 0.041,0.011 v 0.01 l 0.041,0.011 0.043,0.01 0.041,0.011 0.041,0.01 0.043,0.01 0.041,0.011 0.041,0.01 0.043,0.01 0.041,0.011 v 0.01 l 0.041,0.011 0.043,0.01 0.041,0.011 0.041,0.01 0.043,0.011 m -8.084,-1.886 0.041,0.011 0.043,0.009 0.041,0.011 h 0.041 l 0.043,0.011 0.041,0.01 h 0.041 l 0.043,0.01 0.041,0.011 0.041,0.01 0.043,0.011 h 0.041 l 0.041,0.01 0.043,0.01 h 0.041 l 0.041,0.011 0.043,0.011 0.041,0.009 0.041,0.011 0.043,0.011 h 0.041 l 0.041,0.01 0.043,0.01 h 0.041 l 0.041,0.011 0.043,0.01 0.041,0.011 0.041,0.01 h 0.043 l 0.041,0.01 0.041,0.011 0.043,0.011 0.041,0.009 h 0.041 l 0.043,0.011 0.041,0.011 0.041,0.01 0.043,0.01 h 0.041 l 0.041,0.011 0.043,0.01 0.041,0.011 0.041,0.01 h 0.043 l 0.041,0.01 0.041,0.011 0.043,0.011 0.041,0.009 0.041,0.011 0.043,0.011 0.041,0.01 h 0.041 l 0.043,0.01 0.041,0.011 0.041,0.01 0.043,0.011 0.041,0.01 h 0.041 l 0.043,0.01 0.041,0.011 0.041,0.011 0.043,0.009 0.041,0.011 h 0.041 l 0.043,0.011 0.041,0.01 0.041,0.01 0.043,0.011 0.041,0.01 0.041,0.011 0.043,0.01 h 0.041 l 0.041,0.01 0.043,0.011 0.041,0.011 0.041,0.009 0.043,0.011 0.041,0.011 0.041,0.01 0.043,0.01 0.041,0.011 0.041,0.01 h 0.043 l 0.041,0.011 0.041,0.01 0.043,0.01 0.041,0.011 0.041,0.011 0.043,0.01 h 0.041 l 0.041,0.01 0.043,0.011 0.041,0.01 0.041,0.01 0.043,0.011 0.041,0.01 0.041,0.011 0.043,0.01 0.041,0.011 m -8.25,-1.501 0.041,0.011 h 0.043 l 0.041,0.011 h 0.041 l 0.043,0.009 h 0.041 l 0.041,0.011 h 0.043 l 0.041,0.011 h 0.041 l 0.043,0.01 h 0.041 l 0.041,0.01 h 0.043 l 0.041,0.011 0.041,0.01 h 0.043 l 0.041,0.011 h 0.041 l 0.043,0.01 h 0.041 l 0.041,0.01 h 0.043 l 0.041,0.011 0.041,0.011 h 0.084 l 0.041,0.009 0.043,0.011 h 0.041 l 0.041,0.011 0.043,0.01 h 0.041 l 0.041,0.01 h 0.043 l 0.041,0.011 h 0.041 l 0.043,0.01 0.041,0.011 h 0.041 l 0.043,0.01 h 0.041 l 0.041,0.01 0.043,0.011 h 0.041 l 0.041,0.011 h 0.043 l 0.041,0.009 0.041,0.011 h 0.043 l 0.041,0.011 h 0.041 l 0.043,0.01 0.041,0.01 h 0.041 l 0.043,0.011 0.041,0.01 h 0.041 l 0.043,0.011 0.041,0.01 h 0.041 l 0.043,0.01 0.041,0.011 h 0.041 l 0.043,0.011 h 0.041 l 0.041,0.009 0.043,0.011 h 0.041 l 0.041,0.011 0.043,0.01 0.041,0.01 h 0.041 l 0.043,0.011 h 0.041 l 0.041,0.01 0.043,0.011 0.041,0.01 h 0.041 l 0.043,0.01 h 0.041 l 0.041,0.011 0.043,0.011 0.041,0.009 h 0.041 l 0.043,0.011 0.041,0.011 0.041,0.01 h 0.043 l 0.041,0.01 0.041,0.011 h 0.043 l 0.041,0.01 0.041,0.011 0.043,0.01 h 0.041 l 0.041,0.01 0.043,0.011 h 0.041 m -8.25,-1.042 h 0.084 l 0.041,0.011 h 0.084 l 0.041,0.01 h 0.084 l 0.041,0.01 h 0.084 l 0.041,0.011 h 0.084 l 0.041,0.011 h 0.125 l 0.041,0.009 h 0.084 l 0.041,0.011 h 0.084 l 0.041,0.011 h 0.084 l 0.041,0.01 h 0.084 l 0.041,0.01 h 0.084 l 0.041,0.011 h 0.043 l 0.041,0.01 h 0.084 l 0.041,0.011 h 0.084 l 0.041,0.01 h 0.041 l 0.043,0.01 h 0.082 l 0.043,0.011 h 0.082 l 0.043,0.011 h 0.041 l 0.041,0.009 h 0.043 l 0.041,0.011 h 0.084 l 0.041,0.011 h 0.041 l 0.043,0.01 h 0.082 l 0.043,0.01 h 0.041 l 0.041,0.011 h 0.084 l 0.041,0.01 h 0.043 l 0.041,0.011 h 0.041 l 0.043,0.01 h 0.041 l 0.041,0.01 h 0.043 l 0.041,0.011 h 0.084 l 0.041,0.011 h 0.041 l 0.043,0.009 h 0.041 l 0.041,0.011 h 0.043 l 0.041,0.011 h 0.041 l 0.043,0.01 h 0.041 l 0.041,0.01 h 0.043 l 0.041,0.011 h 0.041 l 0.043,0.01 h 0.041 l 0.041,0.011 h 0.084 l 0.041,0.01 0.043,0.01 h 0.041 m -8.25,-0.572 h 0.5 l 0.041,0.01 h 0.418 l 0.041,0.01 h 0.334 l 0.041,0.011 h 0.25 l 0.041,0.01 h 0.25 l 0.043,0.011 h 0.207 l 0.043,0.01 h 0.207 l 0.043,0.01 h 0.166 l 0.041,0.011 h 0.168 l 0.041,0.011 h 0.166 l 0.043,0.009 h 0.125 l 0.041,0.011 h 0.125 l 0.041,0.011 h 0.125 l 0.043,0.01 h 0.125 l 0.041,0.01 h 0.125 l 0.041,0.011 h 0.125 l 0.043,0.01 h 0.041 m -8.25,-0.104 h 0.20799 l 0.042,-0.01 h 0.20799 l 0.042,-0.011 h 0.25 l 0.041,-0.01 h 0.25 l 0.042,-0.011 h 0.33301 l 0.042,-0.01 h 0.41701 l 0.041,-0.01 h 0.709 l 0.041,-0.011 h 1.209 l 0.041,0.011 h 0.209 m -8.25,0.375 h 0.041 l 0.042,-0.011 h 0.042 l 0.041,-0.011 h 0.084 l 0.041,-0.009 h 0.042 l 0.042,-0.011 h 0.083 l 0.042,-0.011 h 0.083 l 0.042,-0.01 h 0.041 l 0.042,-0.01 h 0.083 l 0.042,-0.011 h 0.083 l 0.042,-0.01 h 0.042 l 0.041,-0.011 h 0.084 l 0.041,-0.01 h 0.084 l 0.041,-0.01 h 0.084 l 0.041,-0.011 h 0.084 l 0.041,-0.011 h 0.084 l 0.041,-0.009 h 0.084 l 0.041,-0.011 h 0.125 l 0.042,-0.011 h 0.083 l 0.042,-0.01 h 0.083 l 0.042,-0.01 h 0.083 l 0.042,-0.011 h 0.125 l 0.042,-0.01 h 0.125 l 0.041,-0.011 h 0.125 l 0.042,-0.01 h 0.125 l 0.042,-0.01 h 0.125 l 0.041,-0.011 h 0.125 l 0.042,-0.011 h 0.125 l 0.042,-0.009 h 0.166 l 0.042,-0.011 h 0.16701 l 0.041,-0.011 h 0.16699 l 0.042,-0.01 m -8.25,0.854 0.041,-0.01 h 0.042 l 0.042,-0.011 h 0.041 l 0.042,-0.01 0.042,-0.01 h 0.041 l 0.042,-0.011 0.042,-0.011 h 0.041 l 0.042,-0.009 h 0.042 l 0.041,-0.011 h 0.042 l 0.042,-0.011 0.041,-0.01 h 0.042 l 0.042,-0.01 h 0.041 l 0.042,-0.011 0.042,-0.01 h 0.041 l 0.042,-0.011 0.042,-0.01 h 0.041 l 0.042,-0.01 h 0.042 l 0.041,-0.011 h 0.042 l 0.042,-0.011 0.041,-0.009 h 0.042 l 0.042,-0.011 h 0.041 l 0.042,-0.011 h 0.042 l 0.041,-0.01 h 0.042 l 0.042,-0.01 0.041,-0.011 h 0.084 l 0.041,-0.01 0.042,-0.011 h 0.042 l 0.041,-0.01 h 0.042 l 0.042,-0.01 0.041,-0.011 h 0.084 l 0.041,-0.011 h 0.042 l 0.042,-0.009 0.041,-0.011 h 0.042 l 0.042,-0.011 h 0.083 l 0.042,-0.01 0.041,-0.01 h 0.042 l 0.042,-0.011 h 0.083 l 0.042,-0.01 h 0.041 l 0.042,-0.011 h 0.042 l 0.041,-0.01 0.042,-0.01 h 0.083 l 0.042,-0.011 h 0.042 l 0.041,-0.011 h 0.042 l 0.042,-0.009 h 0.041 l 0.042,-0.011 h 0.083 l 0.042,-0.011 h 0.042 l 0.041,-0.01 h 0.042 l 0.042,-0.01 h 0.041 l 0.042,-0.011 h 0.042 l 0.041,-0.01 h 0.084 l 0.041,-0.011 h 0.042 l 0.042,-0.01 h 0.083 l 0.042,-0.01 m -8.25,1.312 0.041,-0.01 h 0.042 l 0.042,-0.011 0.041,-0.01 0.042,-0.011 0.042,-0.01 0.041,-0.01 0.042,-0.011 h 0.042 l 0.041,-0.011 0.042,-0.009 0.042,-0.011 0.041,-0.011 0.042,-0.01 0.042,-0.01 h 0.041 l 0.042,-0.011 0.042,-0.01 0.041,-0.011 h 0.042 l 0.042,-0.01 0.041,-0.01 0.042,-0.011 0.042,-0.011 h 0.041 l 0.042,-0.009 0.042,-0.011 0.041,-0.011 0.042,-0.01 0.042,-0.01 h 0.041 l 0.042,-0.011 0.042,-0.01 0.041,-0.011 h 0.042 l 0.042,-0.01 0.041,-0.01 0.042,-0.011 0.042,-0.011 h 0.041 l 0.042,-0.009 0.042,-0.011 0.041,-0.011 h 0.042 l 0.042,-0.01 0.041,-0.01 0.042,-0.011 h 0.042 l 0.041,-0.01 0.042,-0.011 0.042,-0.01 h 0.041 l 0.042,-0.01 0.042,-0.011 0.041,-0.011 h 0.042 l 0.042,-0.009 0.041,-0.011 h 0.042 l 0.042,-0.011 0.041,-0.01 0.042,-0.01 0.042,-0.011 h 0.041 l 0.042,-0.01 h 0.042 l 0.041,-0.011 0.042,-0.01 0.042,-0.01 0.041,-0.011 h 0.042 l 0.042,-0.011 h 0.041 l 0.042,-0.009 0.042,-0.011 0.041,-0.011 h 0.042 l 0.042,-0.01 h 0.041 l 0.042,-0.01 0.042,-0.011 0.041,-0.01 h 0.042 l 0.042,-0.011 0.041,-0.01 h 0.042 l 0.042,-0.01 0.041,-0.011 h 0.042 l 0.042,-0.011 0.041,-0.009 h 0.042 l 0.042,-0.011 0.041,-0.011 h 0.042 l 0.042,-0.01 h 0.041 l 0.042,-0.01 0.042,-0.011 m -8.209,1.75 0.042,-0.01 0.042,-0.011 0.041,-0.01 0.042,-0.01 0.042,-0.011 0.041,-0.011 0.042,-0.009 0.042,-0.011 0.041,-0.011 0.042,-0.01 0.042,-0.01 0.041,-0.011 0.042,-0.01 v -0.011 l 0.042,-0.01 0.041,-0.01 0.042,-0.011 0.042,-0.011 0.041,-0.009 0.042,-0.011 0.042,-0.011 0.041,-0.01 0.042,-0.01 0.042,-0.011 0.041,-0.01 0.042,-0.011 0.042,-0.01 0.041,-0.01 0.042,-0.011 0.042,-0.011 0.041,-0.009 0.042,-0.011 0.042,-0.011 0.041,-0.01 0.042,-0.01 0.042,-0.011 0.041,-0.01 0.042,-0.011 0.042,-0.01 0.041,-0.01 0.042,-0.011 0.042,-0.011 0.041,-0.009 0.042,-0.011 0.042,-0.011 0.041,-0.01 h 0.042 l 0.042,-0.01 0.041,-0.011 0.042,-0.01 0.042,-0.011 0.041,-0.01 0.042,-0.01 0.042,-0.011 0.041,-0.011 0.042,-0.009 0.042,-0.011 0.041,-0.011 0.042,-0.01 0.042,-0.01 0.041,-0.011 0.042,-0.01 0.042,-0.011 0.041,-0.01 0.042,-0.01 0.042,-0.011 0.041,-0.011 0.042,-0.009 0.042,-0.011 h 0.041 l 0.042,-0.011 0.042,-0.01 0.041,-0.01 0.042,-0.011 0.042,-0.01 0.041,-0.011 0.042,-0.01 h 0.042 l 0.041,-0.01 0.042,-0.011 0.042,-0.011 0.041,-0.009 0.042,-0.011 0.042,-0.011 0.041,-0.01 h 0.042 l 0.042,-0.01 0.041,-0.011 0.042,-0.01 0.042,-0.011 0.041,-0.01 0.042,-0.01 0.042,-0.011 h 0.041 l 0.042,-0.011 0.042,-0.009 0.041,-0.011 0.042,-0.011 0.042,-0.01 m -7.709,2.01 0.042,-0.01 0.042,-0.01 0.041,-0.011 0.042,-0.01 0.042,-0.011 v -0.01 l 0.041,-0.01 0.042,-0.011 0.042,-0.011 v -0.009 l 0.041,-0.011 0.042,-0.011 0.042,-0.01 0.041,-0.01 0.042,-0.011 0.042,-0.01 v -0.011 l 0.041,-0.01 0.042,-0.01 0.042,-0.011 0.041,-0.011 0.042,-0.009 0.042,-0.011 v -0.011 l 0.041,-0.01 0.042,-0.01 0.042,-0.011 v -0.01 l 0.041,-0.011 0.042,-0.01 0.042,-0.01 0.041,-0.011 0.042,-0.011 0.042,-0.009 0.041,-0.011 v -0.011 l 0.042,-0.01 0.042,-0.01 0.041,-0.011 0.042,-0.01 0.042,-0.011 0.041,-0.01 0.042,-0.01 v -0.011 l 0.042,-0.011 0.041,-0.009 0.042,-0.011 0.042,-0.011 0.041,-0.01 0.042,-0.01 0.042,-0.011 v -0.01 l 0.041,-0.011 0.042,-0.01 0.042,-0.01 0.041,-0.011 0.042,-0.011 0.042,-0.009 0.041,-0.011 v -0.011 l 0.042,-0.01 0.042,-0.01 0.041,-0.011 0.043,-0.01 0.041,-0.011 0.041,-0.01 0.043,-0.01 0.041,-0.011 v -0.011 l 0.041,-0.009 0.043,-0.011 0.041,-0.011 0.041,-0.01 0.043,-0.01 0.041,-0.011 0.041,-0.01 0.043,-0.011 0.041,-0.01 v -0.01 l 0.041,-0.011 0.043,-0.011 0.041,-0.009 0.041,-0.011 0.043,-0.011 0.041,-0.01 0.041,-0.01 0.043,-0.011 0.041,-0.01 0.041,-0.011 0.043,-0.01 0.041,-0.01 0.041,-0.011 0.043,-0.011 v -0.009 l 0.041,-0.011 0.041,-0.011 0.043,-0.01 0.041,-0.01 0.041,-0.011 m -6.83301,2.062001 0.042,-0.009 0.041,-0.011 0.042,-0.011 0.042,-0.01 v -0.01 l 0.041,-0.011 0.042,-0.01 0.042,-0.011 v -0.01 l 0.041,-0.01 0.042,-0.011 0.042,-0.011 v -0.009 l 0.041,-0.011 0.042,-0.011 0.042,-0.01 v -0.01 l 0.041,-0.011 0.042,-0.01 v -0.011 l 0.042,-0.01 0.041,-0.01 0.042,-0.011 0.042,-0.011 v -0.009 l 0.041,-0.011 0.042,-0.011 0.042,-0.01 v -0.01 l 0.041,-0.011 0.042,-0.01 0.042,-0.011 0.041,-0.01 v -0.01 l 0.042,-0.011 0.042,-0.011 v -0.009 l 0.041,-0.011 0.042,-0.011 0.042,-0.01 v -0.01 l 0.041,-0.011 0.042,-0.01 0.042,-0.011 0.041,-0.01 v -0.01 l 0.042,-0.011 0.042,-0.011 0.041,-0.009 v -0.011 l 0.042,-0.011 0.042,-0.01 0.041,-0.01 0.042,-0.011 v -0.01 l 0.042,-0.011 0.041,-0.01 0.042,-0.01 v -0.011 l 0.042,-0.011 0.041,-0.009 0.042,-0.011 0.042,-0.011 v -0.01 l 0.041,-0.01 0.043,-0.011 0.041,-0.01 v -0.011 l 0.041,-0.01 0.043,-0.01 0.041,-0.011 0.041,-0.011 0.043,-0.009 v -0.011 l 0.041,-0.011 0.041,-0.01 0.043,-0.01 v -0.011 l 0.041,-0.01 0.041,-0.011 0.043,-0.01 0.041,-0.01 0.041,-0.011 v -0.011 l 0.043,-0.009 0.041,-0.011 0.041,-0.011 v -0.01 l 0.043,-0.01 0.041,-0.011 0.041,-0.01 0.043,-0.011 0.041,-0.01 v -0.01 l 0.041,-0.011 0.043,-0.011 0.041,-0.009 v -0.011 l 0.041,-0.011 m -6.08301,2.063 0.042,-0.01 V 32.7202 l 0.041,-0.01099 0.042,-0.009 v -0.011 l 0.042,-0.011 0.041,-0.01 v -0.01 l 0.042,-0.011 0.042,-0.01 v -0.011 l 0.041,-0.01 0.042,-0.01 0.042,-0.011 v -0.011 l 0.041,-0.009 0.042,-0.011 v -0.011 l 0.042,-0.01 v -0.01 l 0.041,-0.011 0.042,-0.01 0.042,-0.011 0.041,-0.01 v -0.01 l 0.042,-0.01101 0.042,-0.01099 v -0.009 l 0.041,-0.011 v -0.011 l 0.042,-0.01 0.042,-0.01 v -0.011 l 0.041,-0.01 0.042,-0.011 0.042,-0.01 v -0.01 l 0.041,-0.011 0.042,-0.011 v -0.009 l 0.042,-0.011 0.041,-0.011 v -0.01 l 0.042,-0.01 0.042,-0.011 0.041,-0.01 0.042,-0.011 v -0.01 l 0.042,-0.01 0.041,-0.01101 v -0.011 l 0.042,-0.009 v -0.011 l 0.042,-0.011 0.041,-0.01 v -0.01 l 0.042,-0.011 0.042,-0.01 0.041,-0.011 0.042,-0.01 v -0.01 l 0.042,-0.011 0.041,-0.011 v -0.009 l 0.042,-0.011 0.042,-0.011 0.041,-0.01 v -0.01 l 0.043,-0.011 0.041,-0.01 v -0.011 l 0.041,-0.01 0.043,-0.01 v -0.011 l 0.041,-0.011 0.041,-0.009 0.043,-0.011 0.041,-0.011 v -0.01 l 0.041,-0.01 0.043,-0.011 v -0.01 l 0.041,-0.011 0.041,-0.01 v -0.01 l 0.043,-0.011 0.041,-0.011 v -0.009 l 0.041,-0.011 0.043,-0.011 0.041,-0.01 0.041,-0.01 v -0.011 l 0.043,-0.01 0.041,-0.011 v -0.01 l 0.041,-0.01 0.043,-0.011 v -0.011 m -5.584,2.063001 0.041,-0.01 v -0.011 l 0.042,-0.01 v -0.01 l 0.042,-0.01101 0.041,-0.01099 0.042,-0.009 v -0.011 l 0.042,-0.011 v -0.01 l 0.041,-0.01 0.042,-0.011 v -0.01 l 0.042,-0.011 v -0.01 l 0.041,-0.01 0.042,-0.011 0.042,-0.011 v -0.009 l 0.041,-0.011 0.042,-0.011 v -0.01 l 0.042,-0.01 v -0.011 l 0.041,-0.01 0.042,-0.011 v -0.01 l 0.042,-0.01 0.041,-0.01101 v -0.01099 l 0.042,-0.009 0.042,-0.011 v -0.011 l 0.041,-0.01 0.042,-0.01 v -0.011 l 0.042,-0.01 v -0.011 l 0.041,-0.01 0.042,-0.01 0.042,-0.011 v -0.011 l 0.041,-0.009 v -0.011 l 0.042,-0.011 0.042,-0.01 v -0.01 l 0.041,-0.011 0.042,-0.01 v -0.011 l 0.042,-0.01 v -0.01 l 0.041,-0.01101 0.042,-0.01099 0.042,-0.009 v -0.011 l 0.041,-0.011 0.042,-0.01 v -0.01 l 0.042,-0.011 v -0.01 l 0.041,-0.011 0.042,-0.01 v -0.01 l 0.042,-0.011 0.041,-0.011 0.042,-0.009 v -0.011 l 0.042,-0.011 0.041,-0.01 v -0.01 l 0.042,-0.011 v -0.01 l 0.042,-0.011 0.041,-0.01 0.042,-0.01 v -0.01101 l 0.042,-0.01099 0.041,-0.009 v -0.011 l 0.042,-0.011 v -0.01 l 0.042,-0.01 0.041,-0.011 v -0.01 l 0.043,-0.011 0.041,-0.01 0.041,-0.01 v -0.011 l 0.043,-0.011 0.041,-0.009 v -0.011 l 0.041,-0.011 0.043,-0.01 v -0.01 l 0.041,-0.011 v -0.01 l 0.041,-0.011 0.043,-0.01 m -5.25101,2.062 v -0.01 l 0.042,-0.01 v -0.011 l 0.041,-0.01 0.042,-0.011 0.042,-0.01 v -0.01 l 0.041,-0.01101 v -0.01099 l 0.042,-0.009 v -0.011 l 0.042,-0.011 0.041,-0.01 v -0.01 l 0.042,-0.011 v -0.01 l 0.042,-0.011 0.041,-0.01 v -0.01 l 0.042,-0.011 0.042,-0.011 v -0.009 l 0.041,-0.011 v -0.011 l 0.042,-0.01 v -0.01 l 0.042,-0.011 0.041,-0.01 v -0.011 l 0.042,-0.01 0.042,-0.01 v -0.01101 l 0.041,-0.01099 0.042,-0.009 v -0.011 l 0.042,-0.011 v -0.01 l 0.041,-0.01 v -0.011 l 0.042,-0.01 0.042,-0.011 0.041,-0.01 v -0.01 l 0.042,-0.011 v -0.011 l 0.042,-0.009 0.041,-0.011 v -0.011 l 0.042,-0.01 v -0.01 l 0.042,-0.011 v -0.01 l 0.041,-0.011 0.042,-0.01 0.042,-0.01 v -0.01101 l 0.041,-0.01099 v -0.009 l 0.042,-0.011 0.042,-0.011 v -0.01 l 0.041,-0.01 v -0.011 l 0.042,-0.01 v -0.011 l 0.042,-0.01 0.041,-0.01 0.042,-0.011 v -0.011 l 0.042,-0.009 v -0.011 l 0.041,-0.011 0.042,-0.01 v -0.01 l 0.042,-0.011 v -0.01 l 0.041,-0.011 0.042,-0.01 v -0.01 l 0.042,-0.01101 0.041,-0.01099 v -0.009 l 0.042,-0.011 0.042,-0.011 v -0.01 l 0.041,-0.01 v -0.011 l 0.043,-0.01 0.041,-0.011 v -0.01 l 0.041,-0.01 0.043,-0.011 v -0.011 l 0.041,-0.009 0.041,-0.011 v -0.011 l 0.043,-0.01 v -0.01 l 0.041,-0.011 m -4.959,2.062 v -0.009 l 0.042,-0.011 v -0.011 l 0.042,-0.01 v -0.01 l 0.041,-0.011 v -0.01 l 0.042,-0.011 v -0.01 l 0.042,-0.01 0.041,-0.01101 0.042,-0.01099 v -0.009 l 0.042,-0.011 v -0.011 l 0.041,-0.01 v -0.01 l 0.042,-0.011 v -0.01 l 0.042,-0.011 v -0.01 l 0.041,-0.01 0.042,-0.011 v -0.011 l 0.042,-0.009 0.041,-0.011 v -0.011 l 0.042,-0.01 v -0.01 l 0.042,-0.011 v -0.01 l 0.041,-0.011 0.042,-0.01 v -0.01 l 0.042,-0.01101 v -0.01099 l 0.041,-0.009 0.042,-0.011 v -0.011 l 0.042,-0.01 v -0.01 l 0.041,-0.011 0.042,-0.01 v -0.011 l 0.042,-0.01 v -0.01 l 0.041,-0.011 v -0.011 l 0.042,-0.009 v -0.011 l 0.042,-0.011 0.041,-0.01 0.042,-0.01 v -0.011 l 0.042,-0.01 v -0.011 l 0.041,-0.01 v -0.01 l 0.042,-0.01101 v -0.01099 l 0.042,-0.009 0.041,-0.011 v -0.011 l 0.042,-0.01 0.042,-0.01 v -0.011 l 0.041,-0.01 v -0.011 l 0.042,-0.01 v -0.01 l 0.042,-0.011 0.041,-0.011 v -0.009 l 0.042,-0.011 v -0.011 l 0.042,-0.01 v -0.01 l 0.041,-0.011 0.042,-0.01 0.042,-0.011 v -0.01 l 0.041,-0.01 v -0.01101 l 0.043,-0.01099 v -0.009 l 0.041,-0.011 v -0.011 l 0.041,-0.01 0.043,-0.01 0.041,-0.011 v -0.01 l 0.041,-0.011 v -0.01 l 0.043,-0.01 v -0.011 l 0.041,-0.011 0.041,-0.009 v -0.011 l 0.043,-0.011 m -4.793,2.063 0.042,-0.01 0.042,-0.011 v -0.011 l 0.041,-0.009 v -0.011 l 0.042,-0.011 v -0.01 l 0.042,-0.01 v -0.011 l 0.041,-0.01 v -0.011 l 0.042,-0.01 v -0.01 l 0.042,-0.01101 v -0.01099 l 0.041,-0.009 0.042,-0.011 v -0.011 l 0.042,-0.01 0.041,-0.01 v -0.011 l 0.042,-0.01 v -0.011 l 0.042,-0.01 v -0.01 l 0.041,-0.011 v -0.011 l 0.042,-0.009 0.042,-0.011 v -0.011 l 0.041,-0.01 v -0.01 l 0.042,-0.011 v -0.01 l 0.042,-0.011 v -0.01 l 0.041,-0.01 0.042,-0.01101 v -0.01099 l 0.042,-0.009 v -0.011 l 0.041,-0.011 0.042,-0.01 v -0.01 l 0.042,-0.011 v -0.01 l 0.041,-0.011 v -0.01 l 0.042,-0.01 v -0.011 l 0.042,-0.011 v -0.009 l 0.041,-0.011 v -0.011 l 0.042,-0.01 0.042,-0.01 0.041,-0.011 v -0.01 l 0.042,-0.011 v -0.01 l 0.042,-0.01 v -0.01101 l 0.041,-0.01099 v -0.009 l 0.042,-0.011 v -0.011 l 0.042,-0.01 v -0.01 l 0.041,-0.011 0.042,-0.01 0.042,-0.011 v -0.01 l 0.041,-0.01 v -0.011 l 0.042,-0.011 v -0.009 l 0.042,-0.011 v -0.011 l 0.041,-0.01 v -0.01 l 0.042,-0.011 v -0.01 l 0.042,-0.011 0.041,-0.01 0.042,-0.01 v -0.01101 l 0.042,-0.01099 v -0.009 l 0.041,-0.011 v -0.011 l 0.043,-0.01 v -0.01 l 0.041,-0.011 v -0.01 l 0.041,-0.011 v -0.01 l 0.043,-0.01 0.041,-0.011 0.041,-0.011 m -4.625,2.063 v -0.01 l 0.042,-0.011 0.042,-0.01 v -0.01 l 0.041,-0.011 v -0.011 l 0.042,-0.009 v -0.011 l 0.042,-0.011 v -0.01 l 0.041,-0.01 v -0.011 l 0.042,-0.01 v -0.011 l 0.042,-0.01 v -0.01 l 0.041,-0.01101 0.042,-0.01099 v -0.009 l 0.042,-0.011 v -0.011 l 0.041,-0.01 v -0.01 l 0.042,-0.011 v -0.01 l 0.042,-0.011 v -0.01 l 0.041,-0.01 v -0.011 l 0.042,-0.011 0.042,-0.009 v -0.011 l 0.041,-0.011 v -0.01 l 0.042,-0.01 0.042,-0.011 v -0.01 l 0.041,-0.011 v -0.01 l 0.042,-0.01 v -0.01101 l 0.042,-0.01099 v -0.009 l 0.041,-0.011 0.042,-0.011 v -0.01 l 0.042,-0.01 v -0.011 l 0.041,-0.01 v -0.011 l 0.042,-0.01 v -0.01 l 0.042,-0.011 v -0.011 l 0.041,-0.009 v -0.011 l 0.042,-0.011 v -0.01 l 0.042,-0.01 0.041,-0.011 v -0.01 l 0.042,-0.011 v -0.01 l 0.042,-0.01 v -0.01101 l 0.041,-0.01099 v -0.009 l 0.042,-0.011 v -0.011 l 0.042,-0.01 0.041,-0.01 v -0.011 l 0.042,-0.01 0.042,-0.011 v -0.01 l 0.041,-0.01 v -0.011 l 0.042,-0.011 v -0.009 l 0.042,-0.011 v -0.011 l 0.041,-0.01 v -0.01 l 0.042,-0.011 v -0.01 l 0.042,-0.011 0.041,-0.01 v -0.01 l 0.042,-0.01101 v -0.01099 l 0.042,-0.009 v -0.011 l 0.041,-0.011 v -0.01 l 0.043,-0.01 v -0.011 l 0.041,-0.01 0.041,-0.011 v -0.01 m -4.5,2.073002 0.042,-0.011 0.042,-0.01 v -0.01 l 0.041,-0.011 v -0.01 l 0.042,-0.011 v -0.01 l 0.042,-0.01 v -0.011 l 0.041,-0.011 v -0.009 l 0.042,-0.011 v -0.011 l 0.042,-0.01 0.041,-0.01 v -0.011 l 0.042,-0.01 v -0.011 l 0.042,-0.01 v -0.01 l 0.041,-0.01101 v -0.01099 l 0.042,-0.009 v -0.011 l 0.042,-0.011 v -0.01 l 0.041,-0.01 v -0.011 l 0.042,-0.01 0.042,-0.011 v -0.01 l 0.041,-0.01 v -0.011 l 0.042,-0.011 v -0.009 l 0.042,-0.011 v -0.011 l 0.041,-0.01 v -0.01 l 0.042,-0.011 v -0.01 l 0.042,-0.021 v -0.01 l 0.041,-0.01101 0.042,-0.01099 v -0.009 l 0.042,-0.011 v -0.011 l 0.041,-0.01 v -0.01 l 0.042,-0.011 0.042,-0.01 v -0.011 l 0.041,-0.01 v -0.01 l 0.042,-0.011 v -0.011 l 0.042,-0.009 0.041,-0.011 v -0.011 l 0.042,-0.01 v -0.01 l 0.042,-0.011 v -0.01 l 0.041,-0.011 v -0.01 l 0.042,-0.01 v -0.01101 l 0.042,-0.01099 v -0.009 l 0.041,-0.011 0.042,-0.011 v -0.01 l 0.042,-0.01 v -0.011 l 0.041,-0.01 v -0.011 l 0.042,-0.01 v -0.01 l 0.042,-0.011 v -0.011 l 0.041,-0.009 v -0.011 l 0.042,-0.011 v -0.01 l 0.042,-0.01 0.041,-0.011 v -0.01 l 0.042,-0.011 v -0.01 l 0.042,-0.01 v -0.01101 l 0.041,-0.01099 v -0.009 l 0.043,-0.011 v -0.011 l 0.041,-0.01 v -0.01 l 0.041,-0.011 m -4.416,2.093998 v -0.01 l 0.041,-0.01101 v -0.01099 l 0.042,-0.009 v -0.011 l 0.042,-0.011 v -0.01 l 0.041,-0.01 v -0.011 l 0.042,-0.021 v -0.01 l 0.042,-0.01 0.041,-0.011 v -0.011 l 0.042,-0.009 v -0.011 l 0.042,-0.011 v -0.01 l 0.041,-0.01 v -0.011 l 0.042,-0.01 v -0.011 l 0.042,-0.01 v -0.01 l 0.041,-0.01101 v -0.01099 l 0.042,-0.009 0.042,-0.011 v -0.011 l 0.041,-0.01 v -0.01 l 0.042,-0.011 v -0.01 l 0.042,-0.011 v -0.01 l 0.041,-0.01 v -0.011 l 0.042,-0.011 v -0.009 l 0.042,-0.011 v -0.011 l 0.041,-0.01 0.042,-0.01 v -0.011 l 0.042,-0.01 v -0.011 l 0.041,-0.01 v -0.01 l 0.042,-0.01101 v -0.01099 l 0.042,-0.02 v -0.011 l 0.041,-0.01 v -0.01 l 0.042,-0.011 0.042,-0.01 v -0.011 l 0.041,-0.01 v -0.01 l 0.042,-0.011 v -0.011 l 0.042,-0.009 v -0.011 l 0.041,-0.011 v -0.01 l 0.042,-0.01 v -0.011 l 0.042,-0.01 v -0.011 l 0.041,-0.01 0.042,-0.01 v -0.01101 l 0.042,-0.01099 v -0.009 l 0.041,-0.011 v -0.011 l 0.042,-0.01 v -0.01 l 0.042,-0.011 v -0.01 l 0.041,-0.011 v -0.01 l 0.042,-0.01 v -0.011 l 0.042,-0.011 0.041,-0.009 v -0.011 l 0.042,-0.011 v -0.01 l 0.042,-0.01 v -0.011 l 0.041,-0.01 v -0.011 l 0.043,-0.01 v -0.01 l 0.041,-0.01101 v -0.01099 l 0.041,-0.009 v -0.011 m -4.375,2.125 v -0.011 l 0.042,-0.02 v -0.011 l 0.042,-0.01 v -0.011 l 0.041,-0.01 v -0.01 l 0.042,-0.01101 v -0.01099 l 0.042,-0.009 0.041,-0.011 v -0.011 l 0.042,-0.01 v -0.01 l 0.042,-0.011 v -0.01 l 0.041,-0.011 v -0.01 l 0.042,-0.01 v -0.011 l 0.042,-0.011 v -0.009 l 0.041,-0.011 v -0.011 l 0.042,-0.02 0.042,-0.011 v -0.01 l 0.041,-0.011 v -0.01 l 0.042,-0.01 v -0.01101 l 0.042,-0.01099 v -0.009 l 0.041,-0.011 v -0.011 l 0.042,-0.01 v -0.01 l 0.042,-0.011 0.041,-0.01 v -0.011 l 0.042,-0.01 v -0.01 l 0.042,-0.011 v -0.011 l 0.041,-0.009 v -0.011 l 0.042,-0.011 v -0.01 l 0.042,-0.01 v -0.021 l 0.041,-0.011 v -0.01 l 0.042,-0.01 0.042,-0.01101 v -0.01099 l 0.041,-0.009 v -0.011 l 0.042,-0.011 v -0.01 l 0.042,-0.01 v -0.011 l 0.041,-0.01 v -0.011 l 0.042,-0.01 v -0.01 l 0.042,-0.011 v -0.011 l 0.041,-0.009 0.042,-0.011 v -0.011 l 0.042,-0.01 v -0.01 l 0.041,-0.011 v -0.01 l 0.042,-0.011 v -0.01 l 0.042,-0.021 v -0.01099 l 0.041,-0.009 v -0.011 l 0.042,-0.011 v -0.01 l 0.042,-0.01 0.041,-0.011 v -0.01 l 0.042,-0.011 v -0.01 l 0.042,-0.01 v -0.011 l 0.041,-0.011 v -0.009 l 0.043,-0.011 v -0.011 l 0.041,-0.01 v -0.01 l 0.041,-0.011 0.043,-0.01 v -0.011 l 0.041,-0.01 m -4.41701,2.156002 v -0.01 l 0.042,-0.011 v -0.01 l 0.041,-0.021 v -0.011 l 0.042,-0.009 v -0.011 l 0.042,-0.011 0.041,-0.01 v -0.01 l 0.042,-0.011 v -0.01 l 0.042,-0.011 v -0.01 l 0.041,-0.01 v -0.01101 l 0.042,-0.01099 v -0.009 l 0.042,-0.011 v -0.011 l 0.041,-0.01 v -0.021 l 0.042,-0.01 0.042,-0.011 v -0.01 l 0.041,-0.01 v -0.011 l 0.042,-0.011 v -0.009 l 0.042,-0.011 v -0.011 l 0.041,-0.01 v -0.01 l 0.042,-0.011 v -0.01 l 0.042,-0.011 0.041,-0.01 v -0.01 l 0.042,-0.01101 v -0.02 l 0.042,-0.011 v -0.011 l 0.041,-0.01 v -0.01 l 0.042,-0.011 v -0.01 l 0.042,-0.011 v -0.01 l 0.041,-0.01 v -0.011 l 0.042,-0.011 0.042,-0.009 v -0.011 l 0.041,-0.011 v -0.01 l 0.042,-0.01 v -0.011 l 0.042,-0.01 v -0.011 l 0.041,-0.02 v -0.01101 l 0.042,-0.01099 v -0.009 l 0.042,-0.011 v -0.011 l 0.041,-0.01 0.042,-0.01 v -0.011 l 0.042,-0.01 v -0.011 l 0.041,-0.01 v -0.01 l 0.042,-0.011 v -0.011 l 0.042,-0.009 v -0.011 l 0.041,-0.011 v -0.01 l 0.042,-0.01 v -0.021 l 0.042,-0.011 0.041,-0.01 v -0.01 l 0.042,-0.01101 v -0.01099 l 0.042,-0.009 v -0.011 l 0.041,-0.011 v -0.01 l 0.043,-0.01 v -0.011 l 0.041,-0.01 v -0.011 l 0.041,-0.01 0.043,-0.01 v -0.011 l 0.041,-0.011 v -0.009 l 0.041,-0.011 m -4.416,2.176998 v -0.01 l 0.041,-0.01101 v -0.01 l 0.042,-0.01 v -0.021 l 0.042,-0.011 0.041,-0.01 v -0.011 l 0.042,-0.01 v -0.011 l 0.042,-0.01 v -0.01 l 0.041,-0.011 v -0.01 l 0.042,-0.01 v -0.011 l 0.042,-0.01 v -0.011 l 0.041,-0.01 0.042,-0.021 v -0.011 l 0.042,-0.01 v -0.01 l 0.041,-0.01101 v -0.01 l 0.042,-0.01 v -0.011 l 0.042,-0.01 v -0.011 l 0.041,-0.01 v -0.011 l 0.042,-0.01 v -0.011 l 0.042,-0.01 0.041,-0.01 v -0.021 l 0.042,-0.01 v -0.011 l 0.042,-0.01 v -0.011 l 0.041,-0.01 v -0.011 l 0.042,-0.01 v -0.011 l 0.042,-0.01 v -0.01 l 0.041,-0.01101 v -0.01 l 0.042,-0.01 0.042,-0.011 v -0.01 l 0.041,-0.021 v -0.011 l 0.042,-0.01 v -0.011 l 0.042,-0.01 v -0.01 l 0.041,-0.011 v -0.01 l 0.042,-0.01 v -0.011 l 0.042,-0.01 v -0.011 l 0.041,-0.01 0.042,-0.011 v -0.01 l 0.042,-0.011 v -0.01 l 0.041,-0.021 v -0.01 l 0.042,-0.01 v -0.011 l 0.042,-0.01 v -0.011 l 0.041,-0.01 v -0.011 l 0.042,-0.01 0.042,-0.011 v -0.01 l 0.041,-0.01 v -0.011 l 0.042,-0.01 v -0.01 l 0.042,-0.011 v -0.01 l 0.041,-0.021 v -0.011 l 0.043,-0.01 v -0.011 l 0.041,-0.01 v -0.01 l 0.041,-0.01101 0.043,-0.01 v -0.01 l 0.041,-0.011 v -0.01 l 0.041,-0.011 v -0.01 l 0.043,-0.011 m -4.418,2.188 v -0.01 l 0.042,-0.011 0.042,-0.01 v -0.011 l 0.041,-0.01 v -0.011 l 0.042,-0.01 v -0.011 l 0.042,-0.01 v -0.01 l 0.041,-0.01101 v -0.01 l 0.042,-0.01 v -0.021 l 0.042,-0.011 v -0.01 l 0.041,-0.011 0.042,-0.01 v -0.011 l 0.042,-0.01 v -0.01 l 0.041,-0.011 v -0.01 l 0.042,-0.01 v -0.011 l 0.042,-0.01 v -0.011 l 0.041,-0.021 v -0.01 l 0.042,-0.011 v -0.01 l 0.042,-0.01 0.041,-0.01101 v -0.01 l 0.042,-0.01 v -0.011 l 0.042,-0.01 v -0.011 l 0.041,-0.01 v -0.011 l 0.042,-0.01 v -0.011 l 0.042,-0.02 v -0.011 l 0.041,-0.01 v -0.01 l 0.042,-0.011 0.042,-0.01 v -0.011 l 0.041,-0.01 v -0.011 l 0.042,-0.01 v -0.011 l 0.042,-0.01 v -0.01 l 0.041,-0.01101 v -0.01 l 0.042,-0.021 v -0.01 l 0.042,-0.011 0.041,-0.01 v -0.011 l 0.042,-0.01 v -0.011 l 0.042,-0.01 v -0.01 l 0.041,-0.011 v -0.01 l 0.042,-0.01 v -0.011 l 0.042,-0.01 v -0.011 l 0.041,-0.021 v -0.01 l 0.042,-0.011 0.042,-0.01 v -0.01 l 0.041,-0.01101 v -0.01 l 0.042,-0.01 v -0.011 l 0.042,-0.01 v -0.011 l 0.041,-0.01 v -0.011 l 0.042,-0.01 v -0.011 l 0.042,-0.02 v -0.011 l 0.041,-0.01 0.042,-0.01 v -0.011 l 0.042,-0.01 v -0.011 l 0.041,-0.01 v -0.011 l 0.042,-0.01 v -0.011 l 0.042,-0.01 m -4.417,2.198002 0.042,-0.01 v -0.011 l 0.041,-0.01 v -0.011 l 0.042,-0.01 v -0.011 l 0.042,-0.01 v -0.011 l 0.041,-0.01 v -0.021 l 0.042,-0.01 v -0.01 l 0.042,-0.011 v -0.01 l 0.041,-0.011 0.042,-0.01 v -0.011 l 0.042,-0.01 v -0.011 l 0.041,-0.01 v -0.01 l 0.042,-0.011 v -0.01 l 0.042,-0.021 v -0.01 l 0.041,-0.011 v -0.01 l 0.042,-0.011 v -0.01 l 0.042,-0.011 0.041,-0.01 v -0.01 l 0.042,-0.011 v -0.01 l 0.042,-0.01 v -0.011 l 0.041,-0.01 v -0.011 l 0.042,-0.021 v -0.01 l 0.042,-0.011 v -0.01 l 0.041,-0.01 v -0.011 l 0.042,-0.01 0.042,-0.01 v -0.011 l 0.041,-0.01 v -0.011 l 0.042,-0.01 v -0.011 l 0.042,-0.01 v -0.011 l 0.041,-0.02 v -0.011 l 0.042,-0.01 v -0.01 l 0.042,-0.011 0.041,-0.01 v -0.011 l 0.042,-0.01 v -0.011 l 0.042,-0.01 v -0.011 l 0.041,-0.01 v -0.01 l 0.042,-0.011 v -0.02 l 0.042,-0.011 v -0.01 l 0.041,-0.011 v -0.01 l 0.042,-0.011 0.042,-0.01 v -0.01 l 0.041,-0.011 v -0.01 l 0.042,-0.01 v -0.011 l 0.042,-0.01 v -0.011 l 0.041,-0.01 v -0.021 l 0.042,-0.011 v -0.01 l 0.042,-0.01 v -0.01101 l 0.041,-0.01 0.042,-0.01 v -0.011 l 0.042,-0.01 v -0.011 l 0.041,-0.01 v -0.011 l 0.042,-0.01 v -0.011 l 0.042,-0.01 v -0.021 l 0.041,-0.01 m -4.416,2.208 0.041,-0.01 v -0.021 l 0.042,-0.011 v -0.01 l 0.042,-0.011 v -0.01 l 0.041,-0.01 v -0.011 l 0.042,-0.01 v -0.01 l 0.042,-0.011 v -0.01 l 0.041,-0.011 0.042,-0.01 v -0.011 l 0.042,-0.01 v -0.011 l 0.041,-0.02 v -0.011 l 0.042,-0.01 v -0.01 l 0.042,-0.011 v -0.01 l 0.041,-0.011 v -0.01 l 0.042,-0.011 v -0.01 l 0.042,-0.011 0.041,-0.01 v -0.01 l 0.042,-0.011 v -0.01 l 0.042,-0.021 v -0.01 l 0.041,-0.011 v -0.01 l 0.042,-0.011 v -0.01 l 0.042,-0.011 v -0.01 l 0.041,-0.01 0.042,-0.011 v -0.01 l 0.042,-0.01 v -0.011 l 0.041,-0.01 v -0.011 l 0.042,-0.01 v -0.021 l 0.042,-0.011 v -0.01 l 0.041,-0.01 v -0.011 l 0.042,-0.01 v -0.01 l 0.042,-0.011 0.041,-0.01 v -0.011 l 0.042,-0.01 v -0.011 l 0.042,-0.01 v -0.011 l 0.041,-0.01 v -0.021 l 0.042,-0.01 v -0.01 l 0.042,-0.011 v -0.01 l 0.041,-0.011 v -0.01 l 0.042,-0.011 0.042,-0.01 v -0.011 l 0.041,-0.01 v -0.01 l 0.042,-0.011 v -0.01 l 0.042,-0.01 v -0.021 l 0.041,-0.011 v -0.01 l 0.042,-0.011 v -0.01 l 0.042,-0.011 v -0.01 l 0.041,-0.01 0.042,-0.011 v -0.01 l 0.042,-0.01 v -0.011 l 0.041,-0.01 v -0.011 l 0.042,-0.01 v -0.021 l 0.042,-0.011 v -0.01 l 0.041,-0.01 v -0.011 l 0.043,-0.01 m -4.41801,2.187 0.042,-0.01 v -0.011 l 0.042,-0.01 v -0.01 l 0.041,-0.011 v -0.01 l 0.042,-0.01 v -0.011 l 0.042,-0.01 v -0.011 l 0.041,-0.01 0.042,-0.011 v -0.01 l 0.042,-0.011 v -0.01 l 0.041,-0.021 v -0.01 l 0.042,-0.01 v -0.011 l 0.042,-0.01 v -0.011 l 0.041,-0.01 v -0.011 l 0.042,-0.01 0.042,-0.011 v -0.01 l 0.041,-0.01 v -0.011 l 0.042,-0.01 v -0.01 l 0.042,-0.011 v -0.01 l 0.041,-0.011 v -0.021 l 0.042,-0.01 v -0.011 l 0.042,-0.01 v -0.01 l 0.041,-0.011 0.042,-0.01 v -0.01 l 0.042,-0.011 v -0.01 l 0.041,-0.011 v -0.01 l 0.042,-0.011 v -0.01 l 0.042,-0.011 v -0.01 l 0.041,-0.01 v -0.021 l 0.042,-0.01 v -0.011 l 0.042,-0.01 0.041,-0.011 v -0.01 l 0.042,-0.011 v -0.01 l 0.042,-0.011 v -0.01 l 0.041,-0.01 v -0.011 l 0.042,-0.01 v -0.01 l 0.042,-0.011 v -0.01 l 0.041,-0.011 v -0.021 l 0.042,-0.01 0.042,-0.011 v -0.01 l 0.041,-0.01 v -0.011 l 0.042,-0.01 v -0.01 l 0.042,-0.011 v -0.01 l 0.041,-0.011 v -0.01 l 0.042,-0.011 v -0.01 l 0.042,-0.011 0.041,-0.01 v -0.01 l 0.042,-0.021 v -0.01 l 0.042,-0.011 v -0.01 l 0.041,-0.011 v -0.01 l 0.042,-0.011 v -0.01 l 0.042,-0.011 v -0.01 l 0.041,-0.01 v -0.011 l 0.043,-0.01 0.041,-0.01 v -0.011 m -4.41701,2.166996 0.042,-0.011 v -0.01 l 0.041,-0.01 v -0.011 l 0.042,-0.01 v -0.011 l 0.042,-0.01 v -0.011 l 0.041,-0.01 0.042,-0.011 v -0.01 l 0.042,-0.01 v -0.021 l 0.041,-0.01 v -0.011 l 0.042,-0.01 v -0.011 l 0.042,-0.01 v -0.011 l 0.041,-0.01 v -0.011 l 0.042,-0.01 0.042,-0.01 v -0.011 l 0.041,-0.01 v -0.01 l 0.042,-0.011 v -0.01 l 0.042,-0.011 v -0.01 l 0.041,-0.011 v -0.01 l 0.042,-0.011 v -0.01 l 0.042,-0.01 v -0.021 l 0.041,-0.01 0.042,-0.011 v -0.01 l 0.042,-0.011 v -0.01 l 0.041,-0.011 v -0.01 l 0.042,-0.011 v -0.01 l 0.042,-0.01 v -0.011 l 0.041,-0.01 v -0.01 l 0.042,-0.011 v -0.01 l 0.042,-0.011 0.041,-0.01 v -0.011 l 0.042,-0.01 v -0.011 l 0.042,-0.02 v -0.011 l 0.041,-0.01 v -0.01 l 0.042,-0.011 v -0.01 l 0.042,-0.011 v -0.01 l 0.041,-0.011 0.042,-0.01 v -0.011 l 0.042,-0.01 v -0.01 l 0.041,-0.011 v -0.01 l 0.042,-0.01 v -0.011 l 0.042,-0.01 v -0.011 l 0.041,-0.01 v -0.021 l 0.042,-0.011 v -0.01 l 0.042,-0.01 0.041,-0.011 v -0.01 l 0.042,-0.01 v -0.011 l 0.042,-0.01 v -0.011 l 0.041,-0.01 v -0.011 l 0.042,-0.01 v -0.011 l 0.042,-0.01 v -0.01 l 0.041,-0.011 v -0.01 l 0.043,-0.01 0.041,-0.011 v -0.021 l 0.041,-0.01 v -0.011 m -4.415999,2.146 0.041,-0.01 v -0.011 l 0.042,-0.01 v -0.011 l 0.042,-0.01 0.041,-0.01 v -0.011 l 0.042,-0.01 v -0.01 l 0.042,-0.011 v -0.01 l 0.041,-0.011 v -0.01 l 0.042,-0.011 v -0.01 l 0.042,-0.011 v -0.01 l 0.041,-0.01 v -0.011 l 0.042,-0.01 0.042,-0.01 v -0.011 l 0.041,-0.01 v -0.011 l 0.042,-0.01 v -0.011 l 0.042,-0.01 v -0.021 l 0.041,-0.01 v -0.011 l 0.042,-0.01 v -0.01 l 0.042,-0.011 v -0.01 l 0.041,-0.011 0.042,-0.01 v -0.011 l 0.042,-0.01 v -0.011 l 0.041,-0.01 v -0.01 l 0.042,-0.011 v -0.01 l 0.042,-0.01 v -0.011 l 0.041,-0.01 v -0.011 l 0.042,-0.01 v -0.011 l 0.042,-0.01 0.041,-0.011 v -0.01 l 0.042,-0.01 v -0.011 l 0.042,-0.01 v -0.01 l 0.041,-0.011 v -0.01 l 0.042,-0.011 v -0.021 l 0.042,-0.01 v -0.011 l 0.041,-0.01 0.042,-0.01 v -0.011 l 0.042,-0.01 v -0.01 l 0.041,-0.011 v -0.01 l 0.042,-0.011 v -0.01 l 0.042,-0.011 v -0.01 l 0.041,-0.011 v -0.01 l 0.042,-0.01 v -0.011 l 0.042,-0.01 0.041,-0.01 v -0.011 l 0.042,-0.01 v -0.011 l 0.042,-0.01 v -0.011 l 0.041,-0.01 v -0.011 l 0.042,-0.02 v -0.011 l 0.042,-0.01 v -0.01 l 0.041,-0.011 v -0.01 l 0.043,-0.011 0.041,-0.01 v -0.011 l 0.041,-0.01 v -0.011 l 0.043,-0.01 v -0.01 m -4.418008,2.104004 0.042,-0.01 v -0.011 l 0.042,-0.01 0.041,-0.011 v -0.01 l 0.042,-0.011 v -0.01 l 0.042,-0.011 v -0.01 l 0.041,-0.01 v -0.011 l 0.042,-0.01 v -0.01 l 0.042,-0.011 v -0.01 l 0.041,-0.011 v -0.01 l 0.042,-0.011 0.042,-0.01 v -0.011 l 0.041,-0.01 v -0.01 l 0.042,-0.011 v -0.01 l 0.042,-0.01 v -0.011 l 0.041,-0.01 v -0.011 l 0.042,-0.01 v -0.011 l 0.042,-0.01 v -0.011 l 0.041,-0.01 0.042,-0.01 v -0.011 l 0.042,-0.01 v -0.01 l 0.041,-0.011 v -0.01 l 0.042,-0.011 v -0.01 l 0.042,-0.011 v -0.01 l 0.041,-0.011 v -0.01 l 0.042,-0.01 0.042,-0.011 v -0.01 l 0.041,-0.01 v -0.011 l 0.042,-0.01 v -0.011 l 0.042,-0.01 v -0.011 l 0.041,-0.01 v -0.011 l 0.042,-0.01 v -0.01 l 0.042,-0.011 v -0.01 l 0.041,-0.01 0.042,-0.011 v -0.01 l 0.042,-0.011 v -0.01 l 0.041,-0.011 v -0.01 l 0.042,-0.011 v -0.01 l 0.042,-0.01 v -0.011 l 0.041,-0.01 v -0.01 l 0.042,-0.011 v -0.01 l 0.042,-0.011 0.041,-0.01 v -0.011 l 0.042,-0.01 v -0.011 l 0.042,-0.01 v -0.01 l 0.041,-0.011 v -0.01 l 0.042,-0.01 v -0.021 l 0.042,-0.011 v -0.01 l 0.041,-0.011 v -0.01 l 0.04301,-0.011 0.04099,-0.01 v -0.01 l 0.041,-0.011 v -0.01 l 0.04301,-0.01 v -0.011 l 0.04099,-0.01 v -0.011 m -4.459,2.083 0.042,-0.01 0.042,-0.01 0.041,-0.011 v -0.01 l 0.042,-0.01 v -0.011 l 0.042,-0.01 v -0.011 l 0.041,-0.01 v -0.011 l 0.042,-0.01 v -0.011 l 0.042,-0.01 v -0.01 l 0.041,-0.011 v -0.01 l 0.042,-0.01 0.042,-0.011 v -0.01 l 0.041,-0.011 v -0.01 l 0.042,-0.011 v -0.01 l 0.042,-0.011 v -0.01 l 0.041,-0.01 v -0.011 l 0.042,-0.01 v -0.01 l 0.042,-0.011 0.041,-0.01 v -0.011 l 0.042,-0.01 v -0.011 l 0.042,-0.01 v -0.011 l 0.041,-0.01 v -0.01 l 0.042,-0.011 v -0.01 l 0.042,-0.01 v -0.011 l 0.041,-0.01 v -0.011 l 0.042,-0.01 0.042,-0.011 v -0.01 l 0.041,-0.011 v -0.01 l 0.042,-0.01 v -0.011 l 0.042,-0.01 v -0.01 l 0.041,-0.011 v -0.01 l 0.042,-0.011 v -0.01 l 0.042,-0.011 v -0.01 l 0.041,-0.011 0.042,-0.01 v -0.01 l 0.042,-0.011 v -0.01 l 0.041,-0.01 v -0.011 l 0.042,-0.01 v -0.011 l 0.042,-0.01 v -0.011 l 0.041,-0.01 v -0.011 l 0.042,-0.01 v -0.01 l 0.042,-0.011 0.041,-0.01 v -0.01 l 0.042,-0.011 v -0.01 l 0.042,-0.011 v -0.01 l 0.041,-0.011 v -0.01 l 0.042,-0.011 0.042,-0.01 v -0.01 l 0.041,-0.011 0.042,-0.01 v -0.01 l 0.042,-0.011 v -0.01 l 0.041,-0.011 v -0.01 l 0.042,-0.011 v -0.021 l 0.042,-0.01 v -0.01 l 0.041,-0.011 v -0.01 m -4.5,2.072998 v -0.011 l 0.042,-0.01 v -0.011 l 0.042,-0.01 0.041,-0.01 v -0.011 l 0.042,-0.01 v -0.01 l 0.042,-0.011 v -0.01 l 0.041,-0.011 v -0.01 l 0.042,-0.011 v -0.01 l 0.042,-0.011 v -0.01 l 0.041,-0.01 0.042,-0.011 0.042,-0.01 v -0.01 l 0.041,-0.011 v -0.01 l 0.042,-0.011 v -0.01 l 0.042,-0.011 v -0.01 l 0.041,-0.011 v -0.01 l 0.042,-0.01 v -0.011 l 0.042,-0.01 0.041,-0.01 v -0.011 l 0.042,-0.01 v -0.011 l 0.042,-0.01 v -0.011 l 0.041,-0.01 0.042,-0.011 v -0.01 l 0.042,-0.01 v -0.011 l 0.041,-0.01 v -0.01 l 0.042,-0.011 0.042,-0.01 v -0.011 l 0.041,-0.01 v -0.011 l 0.042,-0.01 v -0.011 l 0.042,-0.01 v -0.01 l 0.041,-0.011 v -0.01 l 0.042,-0.01 v -0.011 l 0.042,-0.01 v -0.011 l 0.041,-0.01 0.042,-0.011 v -0.01 l 0.042,-0.011 v -0.01 l 0.041,-0.01 0.042,-0.011 v -0.01 l 0.042,-0.01 v -0.011 l 0.041,-0.01 v -0.011 l 0.042,-0.01 0.042,-0.011 v -0.01 l 0.041,-0.011 v -0.01 l 0.042,-0.01 v -0.011 l 0.042,-0.01 v -0.01 l 0.041,-0.011 v -0.01 l 0.042,-0.011 v -0.01 l 0.042,-0.011 v -0.01 l 0.041,-0.011 0.042,-0.01 v -0.01 l 0.042,-0.011 v -0.01 l 0.041,-0.01 v -0.011 l 0.042,-0.01 v -0.011 l 0.042,-0.01 v -0.011 l 0.041,-0.01 v -0.011 m -4.625,2.063 v -0.01 l 0.042,-0.011 v -0.01 l 0.042,-0.011 0.041,-0.01 v -0.011 l 0.042,-0.01 v -0.01 l 0.042,-0.011 0.041,-0.01 v -0.01 l 0.042,-0.011 v -0.01 l 0.042,-0.011 0.041,-0.01 v -0.011 l 0.042,-0.01 v -0.011 l 0.042,-0.01 v -0.01 l 0.041,-0.011 0.042,-0.01 v -0.01 l 0.042,-0.011 v -0.01 l 0.041,-0.011 0.042,-0.01 v -0.011 l 0.042,-0.01 v -0.011 l 0.041,-0.01 v -0.01 l 0.042,-0.011 v -0.01 l 0.042,-0.01 0.041,-0.011 v -0.01 l 0.042,-0.011 0.042,-0.01 v -0.011 l 0.041,-0.01 v -0.011 l 0.042,-0.01 v -0.01 l 0.042,-0.011 v -0.01 l 0.041,-0.01 v -0.011 l 0.042,-0.01 0.042,-0.011 v -0.01 l 0.041,-0.011 0.042,-0.01 v -0.011 l 0.042,-0.01 v -0.01 l 0.041,-0.011 v -0.01 l 0.042,-0.01 v -0.011 l 0.042,-0.01 v -0.011 l 0.041,-0.01 0.042,-0.011 v -0.01 l 0.042,-0.011 0.041,-0.01 v -0.01 l 0.042,-0.011 v -0.01 l 0.042,-0.01 v -0.011 l 0.041,-0.01 v -0.011 l 0.042,-0.01 0.042,-0.011 v -0.01 l 0.041,-0.011 v -0.01 l 0.042,-0.01 0.042,-0.011 v -0.01 l 0.041,-0.01 v -0.011 l 0.042,-0.01 v -0.011 l 0.042,-0.01 v -0.011 l 0.041,-0.01 0.042,-0.011 v -0.01 l 0.042,-0.01 v -0.011 l 0.041,-0.01 v -0.01 l 0.042,-0.011 v -0.01 l 0.042,-0.011 0.041,-0.01 m -4.875,2.062 0.042,-0.01 v -0.01 l 0.042,-0.011 0.041,-0.01 0.042,-0.011 v -0.01 l 0.042,-0.011 v -0.01 l 0.041,-0.011 0.042,-0.01 v -0.01 l 0.042,-0.011 v -0.01 l 0.041,-0.01 v -0.011 l 0.042,-0.01 0.042,-0.011 0.041,-0.01 v -0.011 l 0.042,-0.01 v -0.011 l 0.042,-0.01 v -0.01 l 0.041,-0.011 0.042,-0.01 v -0.01 l 0.042,-0.011 v -0.01 l 0.041,-0.011 0.042,-0.01 v -0.011 l 0.042,-0.01 0.041,-0.011 v -0.01 l 0.042,-0.01 v -0.011 l 0.042,-0.01 v -0.01 l 0.041,-0.011 0.042,-0.01 v -0.011 l 0.042,-0.01 0.041,-0.011 v -0.01 l 0.042,-0.011 v -0.01 l 0.042,-0.01 0.041,-0.011 v -0.01 l 0.042,-0.01 v -0.011 l 0.042,-0.01 v -0.011 l 0.041,-0.01 v -0.011 l 0.042,-0.01 0.042,-0.011 0.041,-0.01 v -0.01 l 0.042,-0.011 v -0.01 l 0.042,-0.01 v -0.011 l 0.041,-0.01 0.042,-0.011 v -0.01 l 0.042,-0.011 0.041,-0.01 v -0.011 l 0.042,-0.01 v -0.01 l 0.042,-0.011 v -0.01 l 0.041,-0.01 0.042,-0.011 v -0.01 l 0.042,-0.011 v -0.01 l 0.041,-0.011 v -0.01 l 0.042,-0.011 0.042,-0.01 0.041,-0.01 v -0.011 l 0.042,-0.01 v -0.01 l 0.042,-0.011 v -0.01 l 0.041,-0.011 v -0.01 l 0.042,-0.011 v -0.01 l 0.042,-0.011 0.041,-0.01 0.042,-0.01 v -0.011 l 0.042,-0.01 v -0.01 l 0.041,-0.011 m -5.083,2.061997 v -0.01 l 0.042,-0.01 0.041,-0.011 v -0.01 l 0.042,-0.01 0.042,-0.011 0.041,-0.01 v -0.011 l 0.042,-0.01 v -0.011 l 0.042,-0.01 0.041,-0.011 v -0.01 l 0.042,-0.01 v -0.011 l 0.042,-0.01 0.041,-0.01 0.042,-0.011 v -0.01 l 0.042,-0.011 0.041,-0.01 v -0.011 l 0.042,-0.01 v -0.011 l 0.042,-0.01 0.041,-0.01 v -0.011 l 0.042,-0.01 0.042,-0.01 v -0.011 l 0.041,-0.01 0.042,-0.011 v -0.01 l 0.042,-0.011 v -0.01 l 0.041,-0.011 0.042,-0.01 v -0.01 l 0.042,-0.011 v -0.01 l 0.041,-0.01 0.042,-0.011 0.042,-0.01 v -0.011 l 0.041,-0.01 v -0.011 l 0.042,-0.01 0.042,-0.011 v -0.01 l 0.041,-0.01 v -0.011 l 0.042,-0.01 0.042,-0.01 0.041,-0.011 v -0.01 l 0.042,-0.011 v -0.01 l 0.042,-0.011 0.041,-0.01 v -0.011 l 0.042,-0.01 v -0.01 l 0.042,-0.011 0.041,-0.01 0.042,-0.01 v -0.011 l 0.042,-0.01 v -0.011 l 0.041,-0.01 0.042,-0.011 v -0.01 l 0.042,-0.011 v -0.01 l 0.041,-0.01 v -0.011 l 0.042,-0.01 0.042,-0.01 0.041,-0.011 v -0.01 l 0.042,-0.011 v -0.01 l 0.042,-0.011 0.041,-0.01 v -0.011 l 0.042,-0.01 v -0.01 l 0.042,-0.011 v -0.01 l 0.041,-0.01 0.042,-0.011 0.042,-0.01 v -0.011 l 0.041,-0.01 v -0.011 l 0.042,-0.01 0.042,-0.011 v -0.01 l 0.041,-0.01 v -0.011 m -5.333,2.063 v -0.011 l 0.042,-0.01 0.041,-0.011 v -0.01 l 0.042,-0.01 0.042,-0.011 v -0.01 l 0.041,-0.01 v -0.011 l 0.042,-0.01 0.042,-0.011 0.041,-0.01 0.042,-0.011 v -0.01 l 0.042,-0.011 0.041,-0.01 v -0.01 l 0.042,-0.011 v -0.01 l 0.042,-0.01 0.041,-0.011 v -0.01 l 0.042,-0.011 0.042,-0.01 0.041,-0.011 v -0.01 l 0.042,-0.011 0.042,-0.01 v -0.01 l 0.041,-0.011 0.042,-0.01 v -0.01 l 0.042,-0.011 0.041,-0.01 0.042,-0.011 v -0.01 l 0.042,-0.011 0.041,-0.01 v -0.011 l 0.042,-0.01 v -0.01 l 0.042,-0.011 0.041,-0.01 v -0.01 l 0.042,-0.011 0.042,-0.01 0.041,-0.011 v -0.01 l 0.042,-0.011 0.042,-0.01 v -0.011 l 0.041,-0.01 0.042,-0.01 v -0.011 l 0.042,-0.01 v -0.01 l 0.041,-0.011 0.042,-0.01 0.042,-0.011 v -0.01 l 0.041,-0.011 0.042,-0.01 v -0.011 l 0.042,-0.01 v -0.01 l 0.041,-0.011 0.042,-0.01 v -0.01 l 0.042,-0.011 0.041,-0.01 0.042,-0.011 v -0.01 l 0.042,-0.011 0.041,-0.01 v -0.011 l 0.042,-0.01 v -0.01 l 0.042,-0.011 0.041,-0.01 0.042,-0.01 v -0.011 l 0.042,-0.01 0.041,-0.011 v -0.01 l 0.042,-0.011 v -0.01 l 0.042,-0.011 0.041,-0.01 v -0.01 l 0.042,-0.011 0.042,-0.01 0.041,-0.01 v -0.011 l 0.042,-0.01 v -0.011 l 0.042,-0.01 0.041,-0.011 v -0.01 l 0.042,-0.011 m -5.792,2.063003 0.042,-0.01 0.042,-0.011 0.041,-0.01 0.042,-0.011 v -0.01 l 0.042,-0.011 0.041,-0.01 v -0.01 l 0.042,-0.011 0.042,-0.01 0.041,-0.01 v -0.011 l 0.042,-0.01 0.042,-0.011 0.041,-0.01 0.042,-0.011 v -0.01 l 0.042,-0.011 0.041,-0.01 v -0.01 l 0.042,-0.011 0.042,-0.01 0.041,-0.01 0.042,-0.011 v -0.01 l 0.042,-0.011 0.041,-0.01 v -0.011 l 0.042,-0.01 0.042,-0.011 0.041,-0.01 v -0.01 l 0.042,-0.011 0.042,-0.01 0.041,-0.01 0.042,-0.011 v -0.01 l 0.042,-0.011 0.041,-0.01 v -0.011 l 0.042,-0.01 0.042,-0.011 v -0.01 l 0.041,-0.01 0.042,-0.011 0.042,-0.01 0.041,-0.01 v -0.011 l 0.042,-0.01 0.042,-0.011 v -0.01 l 0.041,-0.011 0.042,-0.01 v -0.011 l 0.042,-0.01 0.041,-0.01 0.042,-0.011 v -0.01 l 0.042,-0.01 0.041,-0.011 0.042,-0.01 v -0.011 l 0.042,-0.01 0.041,-0.011 v -0.01 l 0.042,-0.011 0.042,-0.01 0.041,-0.01 v -0.011 l 0.042,-0.01 0.042,-0.01 v -0.011 l 0.041,-0.01 0.042,-0.011 v -0.01 l 0.042,-0.011 0.041,-0.01 0.042,-0.011 0.042,-0.01 v -0.01 l 0.041,-0.011 0.042,-0.01 v -0.01 l 0.042,-0.011 v -0.01 l 0.041,-0.011 0.042,-0.01 0.042,-0.011 0.041,-0.01 v -0.011 l 0.042,-0.01 0.042,-0.01 v -0.011 l 0.041,-0.01 0.042,-0.01 v -0.011 l 0.042,-0.01 0.041,-0.011 0.042,-0.01 m -6.333,2.062 v -0.01 l 0.041,-0.01 0.042,-0.011 0.042,-0.01 0.041,-0.011 0.042,-0.01 0.042,-0.011 0.041,-0.01 v -0.011 l 0.042,-0.01 0.042,-0.01 0.041,-0.011 v -0.01 l 0.042,-0.01 0.042,-0.011 0.041,-0.01 0.042,-0.011 0.042,-0.01 0.041,-0.011 v -0.01 l 0.042,-0.011 0.042,-0.01 0.041,-0.01 0.042,-0.011 0.042,-0.01 0.041,-0.01 v -0.011 l 0.042,-0.01 0.042,-0.011 0.041,-0.01 v -0.011 l 0.042,-0.01 0.042,-0.011 0.041,-0.01 0.042,-0.01 0.042,-0.011 0.041,-0.01 v -0.01 l 0.042,-0.011 0.042,-0.01 0.041,-0.011 v -0.01 l 0.042,-0.011 0.042,-0.01 0.041,-0.011 0.042,-0.01 0.042,-0.01 v -0.011 l 0.041,-0.01 0.042,-0.01 0.042,-0.011 v -0.01 l 0.041,-0.011 0.042,-0.01 0.042,-0.011 0.041,-0.01 0.042,-0.011 v -0.01 l 0.042,-0.01 0.041,-0.011 0.042,-0.01 0.042,-0.01 0.041,-0.011 v -0.01 l 0.042,-0.011 0.042,-0.01 0.041,-0.011 v -0.01 l 0.042,-0.011 0.042,-0.01 0.041,-0.01 0.042,-0.011 0.042,-0.01 v -0.01 l 0.041,-0.011 0.042,-0.01 v -0.011 l 0.042,-0.01 0.041,-0.011 0.042,-0.01 v -0.011 l 0.042,-0.01 0.041,-0.01 0.042,-0.011 0.042,-0.01 v -0.01 l 0.041,-0.011 0.042,-0.01 0.042,-0.011 v -0.01 l 0.041,-0.011 0.042,-0.01 0.042,-0.011 0.041,-0.01 v -0.01 l 0.042,-0.011 0.042,-0.01 0.041,-0.01 v -0.011 m -7.166,2.062 0.041,-0.01 0.042,-0.01 0.042,-0.011 0.041,-0.01 0.042,-0.01 0.042,-0.011 0.041,-0.01 0.042,-0.011 0.042,-0.01 0.041,-0.011 0.042,-0.01 0.042,-0.011 0.041,-0.01 0.042,-0.01 0.042,-0.011 0.041,-0.01 0.042,-0.01 0.042,-0.011 0.041,-0.01 0.042,-0.011 0.042,-0.01 0.041,-0.011 0.042,-0.01 0.042,-0.011 0.041,-0.01 0.042,-0.01 0.042,-0.011 0.041,-0.01 0.042,-0.01 0.042,-0.011 0.041,-0.01 0.042,-0.011 0.042,-0.01 0.041,-0.011 0.042,-0.01 0.042,-0.011 0.041,-0.01 0.042,-0.01 0.042,-0.011 0.041,-0.01 0.042,-0.01 v -0.011 l 0.042,-0.01 0.041,-0.011 0.042,-0.01 0.042,-0.011 0.041,-0.01 0.042,-0.011 0.042,-0.01 0.041,-0.01 0.042,-0.011 0.042,-0.01 0.041,-0.01 0.042,-0.011 0.042,-0.01 0.041,-0.011 v -0.01 l 0.042,-0.011 0.042,-0.01 0.041,-0.011 0.042,-0.01 0.042,-0.01 0.041,-0.011 0.042,-0.01 0.042,-0.01 0.041,-0.011 v -0.01 l 0.042,-0.011 0.042,-0.01 0.041,-0.011 0.042,-0.01 0.042,-0.011 0.041,-0.01 0.042,-0.01 0.042,-0.011 v -0.01 l 0.041,-0.01 0.042,-0.011 0.042,-0.01 0.041,-0.011 0.042,-0.01 0.042,-0.011 0.041,-0.01 v -0.011 l 0.042,-0.01 0.042,-0.01 0.041,-0.011 0.042,-0.01 0.042,-0.01 0.041,-0.011 0.042,-0.01 v -0.011 l 0.042,-0.01 0.041,-0.011 0.042,-0.01 0.042,-0.011 0.041,-0.01 0.042,-0.01 0.042,-0.011 m -8,1.938 0.041,-0.011 0.042,-0.01 h 0.042 l 0.041,-0.011 0.042,-0.01 0.042,-0.01 h 0.041 l 0.042,-0.011 0.042,-0.01 h 0.041 l 0.042,-0.01 0.042,-0.011 0.041,-0.01 0.042,-0.011 0.042,-0.01 0.041,-0.011 0.042,-0.01 h 0.042 l 0.041,-0.011 0.042,-0.01 0.042,-0.01 h 0.041 l 0.042,-0.011 0.042,-0.01 0.041,-0.01 0.042,-0.011 h 0.042 l 0.041,-0.01 0.042,-0.011 0.042,-0.01 0.041,-0.011 0.042,-0.01 0.042,-0.011 h 0.041 l 0.042,-0.01 0.042,-0.01 0.041,-0.011 0.042,-0.01 0.042,-0.01 0.041,-0.011 h 0.042 l 0.042,-0.01 0.041,-0.011 0.042,-0.01 0.042,-0.011 0.041,-0.01 0.042,-0.011 0.042,-0.01 h 0.041 l 0.042,-0.01 0.042,-0.011 0.041,-0.01 0.042,-0.01 0.042,-0.011 0.041,-0.01 0.042,-0.011 h 0.042 l 0.041,-0.01 0.042,-0.011 0.042,-0.01 0.041,-0.011 0.042,-0.01 0.042,-0.01 0.041,-0.011 h 0.042 l 0.042,-0.01 0.041,-0.01 0.042,-0.011 0.042,-0.01 0.041,-0.011 0.042,-0.01 0.042,-0.011 0.041,-0.01 0.042,-0.011 0.042,-0.01 0.041,-0.01 0.042,-0.011 0.042,-0.01 0.041,-0.01 h 0.042 l 0.042,-0.011 0.041,-0.01 0.042,-0.011 0.042,-0.01 0.041,-0.011 0.042,-0.01 0.042,-0.011 0.041,-0.01 0.042,-0.01 0.042,-0.011 0.041,-0.01 0.042,-0.01 0.042,-0.011 0.041,-0.01 0.042,-0.011 0.042,-0.01 0.041,-0.011 0.042,-0.01 0.042,-0.011 m -8.249996,1.593998 h 0.041 l 0.042,-0.01 0.04201,-0.01 h 0.041 l 0.042,-0.011 h 0.042 l 0.041,-0.01 0.042,-0.011 h 0.042 l 0.041,-0.01 h 0.042 l 0.042,-0.011 h 0.041 l 0.042,-0.01 0.042,-0.011 h 0.041 l 0.042,-0.01 h 0.042 l 0.041,-0.01 0.042,-0.011 h 0.042 l 0.041,-0.01 0.042,-0.01 h 0.083 l 0.042,-0.011 0.042,-0.01 h 0.041 l 0.042,-0.011 0.042,-0.01 h 0.041 l 0.042,-0.011 h 0.042 l 0.041,-0.01 0.042,-0.011 h 0.042 l 0.041,-0.01 0.042,-0.01 0.042,-0.011 h 0.041 l 0.042,-0.01 h 0.042 l 0.041,-0.01 0.042,-0.011 h 0.042 l 0.041,-0.01 h 0.042 l 0.042,-0.011 0.041,-0.01 0.042,-0.011 h 0.042 l 0.041,-0.01 0.042,-0.011 h 0.042 l 0.041,-0.01 h 0.042 l 0.042,-0.01 0.041,-0.011 0.042,-0.01 h 0.042 l 0.041,-0.01 0.042,-0.011 h 0.042 l 0.041,-0.01 0.042,-0.011 h 0.042 l 0.041,-0.01 0.042,-0.011 0.042,-0.01 0.041,-0.011 h 0.042 l 0.042,-0.01 h 0.041 l 0.042,-0.01 0.042,-0.011 0.041,-0.01 0.042,-0.01 h 0.042 l 0.041,-0.011 h 0.042 l 0.042,-0.01 0.041,-0.011 0.042,-0.01 0.042,-0.011 h 0.041 l 0.042,-0.01 0.042,-0.011 h 0.041 l 0.042,-0.01 0.042,-0.01 0.041,-0.011 0.042,-0.01 h 0.042 l 0.041,-0.01 0.042,-0.011 h 0.042 l 0.041,-0.01 0.042,-0.011 0.042,-0.01 m -8.25,1.146004 0.041,-0.011 h 0.084 l 0.041,-0.01 h 0.084 l 0.041,-0.011 h 0.084 l 0.041,-0.01 h 0.084 l 0.041,-0.011 h 0.084 l 0.041,-0.01 h 0.042 l 0.042,-0.01 h 0.083 l 0.042,-0.011 h 0.083 l 0.042,-0.01 h 0.041 l 0.042,-0.01 h 0.083 l 0.042,-0.011 h 0.083 l 0.042,-0.01 h 0.042 l 0.041,-0.011 h 0.042 l 0.042,-0.01 h 0.083 l 0.042,-0.011 h 0.041 l 0.042,-0.01 h 0.042 l 0.041,-0.011 h 0.084 l 0.041,-0.01 h 0.042 l 0.042,-0.01 h 0.041 l 0.042,-0.011 h 0.042 l 0.041,-0.01 h 0.084 l 0.041,-0.01 h 0.042 l 0.042,-0.011 h 0.041 l 0.042,-0.01 h 0.083 l 0.042,-0.011 h 0.042 l 0.041,-0.01 h 0.042 l 0.04201,-0.011 0.041,-0.01 h 0.084 l 0.041,-0.011 h 0.042 l 0.04201,-0.01 h 0.041 l 0.042,-0.01 h 0.042 l 0.041,-0.011 h 0.042 l 0.04201,-0.01 h 0.041 l 0.042,-0.01 h 0.042 l 0.041,-0.011 0.042,-0.01 h 0.083 l 0.042,-0.011 h 0.042 l 0.041,-0.01 0.042,-0.011 h 0.04201 l 0.041,-0.01 h 0.042 l 0.042,-0.011 h 0.041 l 0.042,-0.01 h 0.04201 l 0.041,-0.01 0.042,-0.011 h 0.042 m -8.250004,0.677002 h 0.083 l 0.042,-0.01 h 0.333 l 0.042,-0.011 h 0.25 l 0.041,-0.01 h 0.25 l 0.042,-0.01 h 0.208004 l 0.042,-0.011 h 0.208004 l 0.042,-0.01 h 0.167004 l 0.041,-0.01 h 0.167 l 0.042,-0.011 h 0.166 l 0.042,-0.01 h 0.124996 l 0.042,-0.011 h 0.166 l 0.042,-0.01 h 0.083 l 0.042,-0.011 h 0.167 l 0.041,-0.01 h 0.084 l 0.041,-0.011 h 0.125 l 0.042,-0.01 h 0.124996 l 0.042,-0.01 h 0.083 l 0.042,-0.011 h 0.083 l 0.042,-0.01 h 0.083 l 0.042,-0.01 h 0.125 l 0.041,-0.011 h 0.084 l 0.041,-0.01 h 0.084 m -5.834,0.238998 h 0.625 l 0.042,-0.01 h 0.667 l 0.041,-0.011 h 0.334" /><path
               id="path44"
               style="fill:none;stroke:#231f20;stroke-width:1;stroke-linecap:butt;stroke-linejoin:round;stroke-miterlimit:10;stroke-dasharray:none;stroke-opacity:1"
               d="M 52.345001,20.387001 H 305.34601" /><text
               id="text48"
               style="font-variant:normal;font-weight:normal;font-size:11.95500088px;font-family:CMMI12;-inkscape-font-specification:CMMI12;writing-mode:lr-tb;fill:#231f20;fill-opacity:1;fill-rule:nonzero;stroke:none"
               transform="matrix(1,0,0,-1,9.5,48.589397)"><tspan
                 id="tspan46"
                 y="0"
                 x="0">R</tspan></text>
</g><g
             id="g50"><g
               clip-path="url(#clipPath56)"
               id="g52"><path
                 id="path58"
                 style="fill:#231f20;fill-opacity:1;fill-rule:nonzero;stroke:none"
                 d="M 0.06,44.229004 H 24.766001 V 43.751003 H 0.06 Z" /></g></g><g
             id="g60"><text
               id="text64"
               style="font-variant:normal;font-weight:normal;font-size:11.95500088px;font-family:CMMI12;-inkscape-font-specification:CMMI12;writing-mode:lr-tb;fill:#231f20;fill-opacity:1;fill-rule:nonzero;stroke:none"
               transform="matrix(1,0,0,-1,4.2455997,32.800301)"><tspan
                 id="tspan62"
                 y="0"
                 x="0 10.23348">mg</tspan></text>
<text
               id="text68"
               style="font-variant:normal;font-weight:normal;font-size:11.95500088px;font-family:CMMI12;-inkscape-font-specification:CMMI12;writing-mode:lr-tb;fill:#231f20;fill-opacity:1;fill-rule:nonzero;stroke:none"
               transform="matrix(1,0,0,-1,313.86218,17.000572)"><tspan
                 id="tspan66"
                 y="0"
                 x="0">x</tspan></text>
<text
               id="text72"
               style="font-variant:normal;font-weight:normal;font-size:11.95500088px;font-family:CMR12;-inkscape-font-specification:CMR12;writing-mode:lr-tb;fill:#231f20;fill-opacity:1;fill-rule:nonzero;stroke:none"
               transform="matrix(1,0,0,-1,52.916801,3.5009854)"><tspan
                 id="tspan70"
                 y="0"
                 x="0">0</tspan></text>
<text
               id="text76"
               style="font-variant:normal;font-weight:normal;font-size:11.95500088px;font-family:CMR12;-inkscape-font-specification:CMR12;writing-mode:lr-tb;fill:#231f20;fill-opacity:1;fill-rule:nonzero;stroke:none"
               transform="matrix(1,0,0,-1,97.672737,3.5009854)"><tspan
                 id="tspan74"
                 y="0"
                 x="0">2</tspan></text>
<text
               id="text80"
               style="font-variant:normal;font-weight:normal;font-size:11.95500088px;font-family:CMR12;-inkscape-font-specification:CMR12;writing-mode:lr-tb;fill:#231f20;fill-opacity:1;fill-rule:nonzero;stroke:none"
               transform="matrix(1,0,0,-1,103.51874,3.5009854)"><tspan
                 id="tspan78"
                 y="0"
                 x="0">0</tspan></text>
<text
               id="text84"
               style="font-variant:normal;font-weight:normal;font-size:11.95500088px;font-family:CMR12;-inkscape-font-specification:CMR12;writing-mode:lr-tb;fill:#231f20;fill-opacity:1;fill-rule:nonzero;stroke:none"
               transform="matrix(1,0,0,-1,140.28036,3.0012662)"><tspan
                 id="tspan82"
                 y="0"
                 x="0 5.8459954">40</tspan></text>
<text
               id="text88"
               style="font-variant:normal;font-weight:normal;font-size:11.95500088px;font-family:CMR12;-inkscape-font-specification:CMR12;writing-mode:lr-tb;fill:#231f20;fill-opacity:1;fill-rule:nonzero;stroke:none"
               transform="matrix(1,0,0,-1,185.88869,3.0012662)"><tspan
                 id="tspan86"
                 y="0"
                 x="0 5.8459954">60</tspan></text>
<text
               id="text92"
               style="font-variant:normal;font-weight:normal;font-size:11.95500088px;font-family:CMR12;-inkscape-font-specification:CMR12;writing-mode:lr-tb;fill:#231f20;fill-opacity:1;fill-rule:nonzero;stroke:none"
               transform="matrix(1,0,0,-1,230.49518,3.0012662)"><tspan
                 id="tspan90"
                 y="0"
                 x="0 5.8459954">80</tspan></text>
<text
               id="text96"
               style="font-variant:normal;font-weight:normal;font-size:11.95500088px;font-family:CMR12;-inkscape-font-specification:CMR12;writing-mode:lr-tb;fill:#231f20;fill-opacity:1;fill-rule:nonzero;stroke:none"
               transform="matrix(1,0,0,-1,274.60437,3.5009854)"><tspan
                 id="tspan94"
                 y="0"
                 x="0 5.8459954 11.691991">100</tspan></text>
<text
               id="text100"
               style="font-variant:normal;font-weight:normal;font-size:11.95500088px;font-family:CMR12;-inkscape-font-specification:CMR12;writing-mode:lr-tb;fill:#231f20;fill-opacity:1;fill-rule:nonzero;stroke:none"
               transform="matrix(1,0,0,-1,33.065525,19.501558)"><tspan
                 id="tspan98"
                 y="0"
                 x="0">0</tspan></text>
<text
               id="text104"
               style="font-variant:normal;font-weight:normal;font-size:11.95500088px;font-family:CMMI12;-inkscape-font-specification:CMMI12;writing-mode:lr-tb;fill:#231f20;fill-opacity:1;fill-rule:nonzero;stroke:none"
               transform="matrix(1,0,0,-1,38.918694,19.501558)"><tspan
                 id="tspan102"
                 y="0"
                 x="0">.</tspan></text>
<text
               id="text108"
               style="font-variant:normal;font-weight:normal;font-size:11.95500088px;font-family:CMR12;-inkscape-font-specification:CMR12;writing-mode:lr-tb;fill:#231f20;fill-opacity:1;fill-rule:nonzero;stroke:none"
               transform="matrix(1,0,0,-1,42.170452,19.501558)"><tspan
                 id="tspan106"
                 y="0"
                 x="0">8</tspan></text>
<text
               id="text112"
               style="font-variant:normal;font-weight:normal;font-size:11.95500088px;font-family:CMR12;-inkscape-font-specification:CMR12;writing-mode:lr-tb;fill:#231f20;fill-opacity:1;fill-rule:nonzero;stroke:none"
               transform="matrix(1,0,0,-1,32.925652,40.501713)"><tspan
                 id="tspan110"
                 y="0"
                 x="0">1</tspan></text>
<text
               id="text116"
               style="font-variant:normal;font-weight:normal;font-size:11.95500088px;font-family:CMMI12;-inkscape-font-specification:CMMI12;writing-mode:lr-tb;fill:#231f20;fill-opacity:1;fill-rule:nonzero;stroke:none"
               transform="matrix(1,0,0,-1,38.77882,40.501713)"><tspan
                 id="tspan114"
                 y="0"
                 x="0">.</tspan></text>
<text
               id="text120"
               style="font-variant:normal;font-weight:normal;font-size:11.95500088px;font-family:CMR12;-inkscape-font-specification:CMR12;writing-mode:lr-tb;fill:#231f20;fill-opacity:1;fill-rule:nonzero;stroke:none"
               transform="matrix(1,0,0,-1,42.029385,40.501713)"><tspan
                 id="tspan118"
                 y="0"
                 x="0">0</tspan></text>
<text
               id="text124"
               style="font-variant:normal;font-weight:normal;font-size:11.95500088px;font-family:CMR12;-inkscape-font-specification:CMR12;writing-mode:lr-tb;fill:#231f20;fill-opacity:1;fill-rule:nonzero;stroke:none"
               transform="matrix(1,0,0,-1,33.785217,62.001587)"><tspan
                 id="tspan122"
                 y="0"
                 x="0">1</tspan></text>
<text
               id="text128"
               style="font-variant:normal;font-weight:normal;font-size:11.95500088px;font-family:CMMI12;-inkscape-font-specification:CMMI12;writing-mode:lr-tb;fill:#231f20;fill-opacity:1;fill-rule:nonzero;stroke:none"
               transform="matrix(1,0,0,-1,39.637192,62.001587)"><tspan
                 id="tspan126"
                 y="0"
                 x="0">.</tspan></text>
<text
               id="text132"
               style="font-variant:normal;font-weight:normal;font-size:11.95500088px;font-family:CMR12;-inkscape-font-specification:CMR12;writing-mode:lr-tb;fill:#231f20;fill-opacity:1;fill-rule:nonzero;stroke:none"
               transform="matrix(1,0,0,-1,42.88895,62.001587)"><tspan
                 id="tspan130"
                 y="0"
                 x="0">2</tspan></text>
</g></g></g></g></g></svg>