<?xml version="1.0" encoding="UTF-8" standalone="no"?>
<svg
   xmlns:dc="http://purl.org/dc/elements/1.1/"
   xmlns:cc="http://creativecommons.org/ns#"
   xmlns:rdf="http://www.w3.org/1999/02/22-rdf-syntax-ns#"
   xmlns:svg="http://www.w3.org/2000/svg"
   xmlns="http://www.w3.org/2000/svg"
   viewBox="0 0 174.66667 154.66667"
   height="154.66667"
   width="174.66667"
   xml:space="preserve"
   id="svg2"
   version="1.1"><metadata
     id="metadata8"><rdf:RDF><cc:Work
         rdf:about=""><dc:format>image/svg+xml</dc:format><dc:type
           rdf:resource="http://purl.org/dc/dcmitype/StillImage" /></cc:Work></rdf:RDF></metadata><defs
     id="defs6"><clipPath
       id="clipPath24"
       clipPathUnits="userSpaceOnUse"><path
         id="path22"
         d="M 0,0 H 131 V 116 H 0 Z" /></clipPath><clipPath
       id="clipPath34"
       clipPathUnits="userSpaceOnUse"><path
         id="path32"
         d="M 0,0 H 130.69801 V 115.95601 H 0 Z" /></clipPath></defs><g
     transform="matrix(1.3333333,0,0,-1.3333333,0,154.66667)"
     id="g10"><g
       id="g12" /><g
       id="g14" /><g
       id="g16"><g
         id="g18"><g
           clip-path="url(#clipPath24)"
           id="g20"><g
             id="g26" /><g
             id="g28"><g
               clip-path="url(#clipPath34)"
               id="g30"><path
                 id="path36"
                 style="fill:none;stroke:#231f20;stroke-width:1;stroke-linecap:butt;stroke-linejoin:miter;stroke-miterlimit:4;stroke-dasharray:none;stroke-opacity:1"
                 d="m 67.697006,93.419006 h 62.501004 v -58.5 H 67.697006 Z m 5,-59.000003 h 11.5 v -15.5 h -11.5 z m 41.501004,0 h 11.5 v -15.5 h -11.5 z M 99.548004,64.919006 H 22.848001" /></g></g><g
             id="g38"><path
               id="path40"
               style="fill:#231f20;fill-opacity:1;fill-rule:nonzero;stroke:none"
               d="m 17.654001,63.382004 c 2.48,-0.75 4.093001,-1.440003 6.082001,-2.238003 v 7.567005 C 23.024,68.372002 20.134001,67.222 17.654001,66.473 15,65.671005 12.593,65.123001 11.033001,64.927002 12.593,64.731003 15,64.183006 17.654001,63.382004" /><path
               id="path42"
               style="fill:none;stroke:#231f20;stroke-width:1;stroke-linecap:butt;stroke-linejoin:miter;stroke-miterlimit:4;stroke-dasharray:none;stroke-opacity:1"
               d="M 99.697006,64.919006 V 103.91901" /><path
               id="path44"
               style="fill:#231f20;fill-opacity:1;fill-rule:nonzero;stroke:none"
               d="m 98.436005,106.5 c -0.75,-2.48 -1.440003,-4.092 -2.238999,-6.08099 h 7.568004 c -0.33901,0.71199 -1.489,3.60099 -2.237,6.08099 -0.803,2.65501 -1.35201,5.061 -1.548014,6.622 -0.194992,-1.561 -0.743988,-3.96699 -1.543991,-6.622" /><path
               id="path46"
               style="fill:none;stroke:#231f20;stroke-width:1;stroke-linecap:butt;stroke-linejoin:miter;stroke-miterlimit:4;stroke-dasharray:none;stroke-opacity:1"
               d="M 99.697006,64.419006 V 24.919001" /><path
               id="path48"
               style="fill:#231f20;fill-opacity:1;fill-rule:nonzero;stroke:none"
               d="m 101.23501,21.376001 c 0.75,2.48 1.43899,4.091999 2.238,6.081 h -7.568004 c 0.338997,-0.712 1.489998,-3.601 2.237999,-6.081 0.802002,-2.654001 1.350998,-5.061 1.545998,-6.622 0.195999,1.561 0.745007,3.967999 1.546007,6.622" /><text
               id="text52"
               style="font-variant:normal;font-weight:normal;font-size:11.95500088px;font-family:CMMI12;-inkscape-font-specification:CMMI12;writing-mode:lr-tb;fill:#231f20;fill-opacity:1;fill-rule:nonzero;stroke:none"
               transform="matrix(1,0,0,-1,39.352497,83.578094)"><tspan
                 id="tspan50"
                 y="0"
                 x="0 10.23348">mv</tspan></text>
<text
               id="text56"
               style="font-variant:normal;font-weight:normal;font-size:7.96999979px;font-family:CMR8;-inkscape-font-specification:CMR8;writing-mode:lr-tb;fill:#231f20;fill-opacity:1;fill-rule:nonzero;stroke:none"
               transform="matrix(1,0,0,-1,55.679699,87.916901)"><tspan
                 id="tspan54"
                 y="0"
                 x="0">2</tspan></text>
<path
               id="path58"
               style="fill:#231f20;fill-opacity:1;fill-rule:nonzero;stroke:none"
               d="M 39.353001,78.718002 H 60.413002 V 78.240005 H 39.353001 Z" /><text
               id="text62"
               style="font-variant:normal;font-weight:normal;font-size:11.95500088px;font-family:CMMI12;-inkscape-font-specification:CMMI12;writing-mode:lr-tb;fill:#231f20;fill-opacity:1;fill-rule:nonzero;stroke:none"
               transform="matrix(1,0,0,-1,47.082001,67.290001)"><tspan
                 id="tspan60"
                 y="0"
                 x="0">r</tspan></text>
<text
               id="text66"
               style="font-variant:normal;font-weight:normal;font-size:11.95500088px;font-family:CMMI12;-inkscape-font-specification:CMMI12;writing-mode:lr-tb;fill:#231f20;fill-opacity:1;fill-rule:nonzero;stroke:none"
               transform="matrix(1,0,0,-1,106.51031,106.99017)"><tspan
                 id="tspan64"
                 y="0"
                 x="0">R</tspan></text>
<path
               id="path68"
               style="fill:#231f20;fill-opacity:1;fill-rule:nonzero;stroke:none"
               d="m 106.50999,105.55601 h 9.008 v -0.478 h -9.008 z" /><text
               id="text72"
               style="font-variant:normal;font-weight:normal;font-size:11.95500088px;font-family:CMMI12;-inkscape-font-specification:CMMI12;writing-mode:lr-tb;fill:#231f20;fill-opacity:1;fill-rule:nonzero;stroke:none"
               transform="matrix(1,0,0,-1,93.419899,2.99)"><tspan
                 id="tspan70"
                 y="0"
                 x="0">W</tspan></text>
<path
               id="path74"
               style="fill:#231f20;fill-opacity:1;fill-rule:nonzero;stroke:none"
               d="M 93.419998,1.5560001 H 106.098 v -0.478 H 93.419998 Z" /><text
               id="text78"
               style="font-variant:normal;font-weight:normal;font-size:11.95500088px;font-family:CMMI12;-inkscape-font-specification:CMMI12;writing-mode:lr-tb;fill:#231f20;fill-opacity:1;fill-rule:nonzero;stroke:none"
               transform="matrix(1,0,0,-1,0,59.9897)"><tspan
                 id="tspan76"
                 y="0"
                 x="0">F</tspan></text>
<path
               id="path80"
               style="fill:#231f20;fill-opacity:1;fill-rule:nonzero;stroke:none"
               d="M 0,58.556004 H 9.2030001 V 58.078003 H 0 Z" /><text
               id="text84"
               style="font-variant:normal;font-weight:normal;font-size:11.95500088px;font-family:CMMI12;-inkscape-font-specification:CMMI12;writing-mode:lr-tb;fill:#231f20;fill-opacity:1;fill-rule:nonzero;stroke:none"
               transform="matrix(1,0,0,-1,101.105,42.9897)"><tspan
                 id="tspan82"
                 y="0"
                 x="0 10.23348">mg</tspan></text>
</g></g></g></g></g></svg>