<?xml version="1.0" encoding="UTF-8" standalone="no"?>
<svg
   xmlns:dc="http://purl.org/dc/elements/1.1/"
   xmlns:cc="http://creativecommons.org/ns#"
   xmlns:rdf="http://www.w3.org/1999/02/22-rdf-syntax-ns#"
   xmlns:svg="http://www.w3.org/2000/svg"
   xmlns="http://www.w3.org/2000/svg"
   viewBox="0 0 390.66666 88"
   height="88"
   width="390.66666"
   xml:space="preserve"
   id="svg2"
   version="1.1"><metadata
     id="metadata8"><rdf:RDF><cc:Work
         rdf:about=""><dc:format>image/svg+xml</dc:format><dc:type
           rdf:resource="http://purl.org/dc/dcmitype/StillImage" /></cc:Work></rdf:RDF></metadata><defs
     id="defs6"><clipPath
       id="clipPath24"
       clipPathUnits="userSpaceOnUse"><path
         id="path22"
         d="M 0,0 H 293 V 66 H 0 Z" /></clipPath><clipPath
       id="clipPath34"
       clipPathUnits="userSpaceOnUse"><path
         id="path32"
         d="M 0,0.05999756 H 292.74402 V 65.467003 H 0 Z" /></clipPath></defs><g
     transform="matrix(1.3333333,0,0,-1.3333333,0,88)"
     id="g10"><g
       id="g12" /><g
       id="g14" /><g
       id="g16"><g
         id="g18"><g
           clip-path="url(#clipPath24)"
           id="g20"><g
             id="g26" /><g
             id="g28"><g
               clip-path="url(#clipPath34)"
               id="g30"><path
                 id="path36"
                 style="fill:none;stroke:#231f20;stroke-width:0.5;stroke-linecap:butt;stroke-linejoin:round;stroke-miterlimit:10;stroke-dasharray:none;stroke-opacity:1"
                 d="m 37.694,17.065001 h 3 m -1.5,1.5 v -3 m 43.042008,1.5 h 3 m -1.5,3 v -6 m 43.043002,3 h 3 m -1.5,3 v -6 m 43.04098,3 h 3 m -1.5,3 v -6 m 43.04302,3 h 3 m -1.5,3 v -6 m 43.04101,3 h 3 m -1.5,3 v -6 m -224.21002,3 h 3 m -1.5,1.5 v -3 m -3.227997,24.209001 h 6 m -3,0.375 v -0.75 m -3,22.386002 h 6 m -3,0.374996 v -0.75" /><path
                 id="path38"
                 style="fill:none;stroke:#231f20;stroke-width:1;stroke-linecap:butt;stroke-linejoin:round;stroke-miterlimit:10;stroke-dasharray:none;stroke-opacity:1"
                 d="M 39.194,17.065001 H 261.94501 M 38.966003,17.774 v 44.011004" /></g></g><g
             id="g40"><path
               id="path42"
               style="fill:none;stroke:#231f20;stroke-width:0.5;stroke-linecap:butt;stroke-linejoin:round;stroke-miterlimit:10;stroke-dasharray:none;stroke-opacity:1"
               d="m 257.61301,17.805 h 0.084 l 0.041,-0.02 h 0.125 l 0.041,-0.022 h 0.125 l 0.043,-0.02 h 0.125 l 0.041,-0.021 h 0.125 l 0.041,-0.021 h 0.125 l 0.043,-0.021 h 0.16599 l 0.041,-0.02 h 0.168 l 0.041,-0.022 h 0.16601 l 0.043,-0.02 h 0.207 l 0.043,-0.021 h 0.25 l 0.041,-0.021 h 0.25 l 0.041,-0.021 h 0.375 l 0.043,-0.02 h 0.5 l 0.041,-0.022 h 0.75 m -8.31299,0.855 h 0.041 l 0.043,-0.011 0.041,-0.01 h 0.041 l 0.043,-0.011 h 0.041 l 0.041,-0.01 h 0.043 l 0.041,-0.01 0.041,-0.011 h 0.043 l 0.041,-0.01 h 0.041 l 0.043,-0.01 h 0.041 l 0.041,-0.011 h 0.043 l 0.041,-0.01 h 0.041 l 0.043,-0.011 h 0.041 l 0.041,-0.01 h 0.043 l 0.041,-0.011 h 0.041 l 0.043,-0.01 h 0.041 l 0.041,-0.011 h 0.043 l 0.041,-0.01 h 0.041 l 0.043,-0.01 h 0.041 l 0.041,-0.011 h 0.043 l 0.041,-0.01 h 0.041 l 0.043,-0.01 h 0.041 l 0.041,-0.011 h 0.043 l 0.041,-0.01 h 0.041 l 0.043,-0.011 h 0.082 l 0.043,-0.01 h 0.041 l 0.041,-0.011 h 0.043 l 0.041,-0.01 h 0.084 l 0.041,-0.011 h 0.041 l 0.043,-0.01 h 0.082 l 0.043,-0.01 h 0.041 l 0.041,-0.011 h 0.084 l 0.041,-0.01 h 0.043 l 0.041,-0.01 h 0.084 l 0.041,-0.011 h 0.084 l 0.041,-0.01 h 0.041 l 0.043,-0.011 h 0.082 l 0.043,-0.01 h 0.082 l 0.043,-0.011 h 0.082 l 0.043,-0.01 h 0.082 l 0.043,-0.011 h 0.082 l 0.043,-0.01 h 0.082 l 0.043,-0.01 h 0.125 l 0.041,-0.011 h 0.084 l 0.041,-0.01 m -8.24999,1.187 0.041,-0.01 0.043,-0.011 0.041,-0.01 0.041,-0.01 0.043,-0.011 h 0.041 l 0.041,-0.01 0.043,-0.01 0.041,-0.011 0.041,-0.01 0.043,-0.011 0.041,-0.01 0.041,-0.011 h 0.043 l 0.041,-0.01 0.041,-0.011 0.043,-0.01 h 0.041 l 0.041,-0.01 0.043,-0.011 0.041,-0.01 h 0.041 l 0.043,-0.01 0.041,-0.011 0.041,-0.01 0.043,-0.011 0.041,-0.01 h 0.041 l 0.043,-0.011 0.041,-0.01 h 0.041 l 0.043,-0.011 0.041,-0.01 0.041,-0.01 0.043,-0.011 h 0.041 l 0.041,-0.01 0.043,-0.01 h 0.041 l 0.041,-0.011 0.043,-0.01 0.041,-0.011 0.041,-0.01 h 0.043 l 0.041,-0.011 0.041,-0.01 h 0.043 l 0.041,-0.011 0.041,-0.01 0.043,-0.01 h 0.041 l 0.041,-0.011 0.043,-0.01 h 0.041 l 0.041,-0.01 0.043,-0.011 h 0.041 l 0.041,-0.01 0.043,-0.011 h 0.041 l 0.041,-0.01 0.043,-0.011 0.041,-0.01 h 0.041 l 0.043,-0.011 0.041,-0.01 h 0.041 l 0.043,-0.01 h 0.041 l 0.041,-0.011 0.043,-0.01 0.041,-0.01 h 0.041 l 0.043,-0.011 0.041,-0.01 h 0.041 l 0.043,-0.011 h 0.041 l 0.041,-0.01 0.043,-0.011 h 0.041 l 0.041,-0.01 0.043,-0.011 h 0.041 l 0.041,-0.01 h 0.043 l 0.041,-0.01 0.041,-0.011 h 0.043 l 0.041,-0.01 h 0.041 l 0.043,-0.01 h 0.041 l 0.041,-0.011 0.043,-0.01 h 0.041 l 0.041,-0.011 0.043,-0.01 h 0.041 m -8.166,1.729 0.041,-0.011 0.041,-0.01 0.043,-0.01 0.041,-0.011 0.041,-0.01 0.043,-0.01 v -0.011 l 0.041,-0.01 0.041,-0.011 0.043,-0.01 0.041,-0.011 0.041,-0.01 0.043,-0.011 0.041,-0.01 0.041,-0.01 0.043,-0.011 0.041,-0.01 v -0.01 l 0.041,-0.011 0.043,-0.01 0.041,-0.011 0.041,-0.01 0.043,-0.011 0.041,-0.01 0.041,-0.011 0.043,-0.01 0.041,-0.01 0.041,-0.011 0.043,-0.01 0.041,-0.01 0.041,-0.011 0.043,-0.01 0.041,-0.011 0.041,-0.01 0.043,-0.011 0.041,-0.01 0.041,-0.011 0.043,-0.01 0.041,-0.01 0.041,-0.011 0.043,-0.01 0.041,-0.01 0.041,-0.011 0.043,-0.01 0.041,-0.011 0.041,-0.01 0.043,-0.011 0.041,-0.01 0.041,-0.011 0.043,-0.01 0.041,-0.01 0.041,-0.011 0.043,-0.01 0.041,-0.01 0.041,-0.011 0.043,-0.01 0.041,-0.011 0.041,-0.01 0.043,-0.011 0.041,-0.01 0.041,-0.011 0.043,-0.01 0.041,-0.01 0.041,-0.011 0.043,-0.01 0.041,-0.01 0.041,-0.011 0.043,-0.01 0.041,-0.011 0.041,-0.01 0.043,-0.011 0.041,-0.01 0.041,-0.011 h 0.043 l 0.041,-0.01 0.041,-0.01 0.043,-0.011 0.041,-0.01 0.041,-0.01 0.043,-0.011 0.041,-0.01 h 0.041 l 0.043,-0.011 0.041,-0.01 0.041,-0.011 0.043,-0.01 0.041,-0.011 0.041,-0.01 0.043,-0.01 0.041,-0.011 h 0.041 l 0.043,-0.01 0.041,-0.01 0.041,-0.011 0.043,-0.01 0.041,-0.011 0.041,-0.01 h 0.043 l 0.041,-0.011 m -7.41598,2.021 v -0.01 l 0.041,-0.011 0.041,-0.01 0.043,-0.011 v -0.01 l 0.041,-0.01 0.041,-0.011 v -0.01 l 0.043,-0.01 0.041,-0.011 0.041,-0.01 0.043,-0.011 0.041,-0.01 v -0.011 l 0.041,-0.01 0.043,-0.011 v -0.01 l 0.041,-0.01 0.041,-0.011 0.043,-0.01 0.041,-0.01 0.041,-0.011 v -0.01 l 0.043,-0.011 0.041,-0.01 0.041,-0.011 v -0.01 l 0.043,-0.011 0.041,-0.01 0.041,-0.01 0.043,-0.011 v -0.01 l 0.041,-0.01 0.041,-0.011 0.043,-0.01 v -0.011 l 0.041,-0.01 0.041,-0.011 0.043,-0.01 0.041,-0.011 0.041,-0.01 v -0.01 l 0.043,-0.011 0.041,-0.01 0.041,-0.01 0.043,-0.011 v -0.01 l 0.041,-0.011 0.041,-0.01 0.043,-0.011 0.041,-0.01 0.041,-0.011 v -0.01 l 0.043,-0.01 0.041,-0.011 0.041,-0.01 0.043,-0.01 0.041,-0.011 0.041,-0.01 v -0.011 l 0.043,-0.01 0.041,-0.011 0.041,-0.01 v -0.011 l 0.043,-0.01 0.041,-0.01 0.041,-0.011 0.043,-0.01 0.041,-0.01 0.041,-0.011 0.043,-0.01 v -0.011 l 0.041,-0.01 0.041,-0.011 0.043,-0.01 0.041,-0.011 0.041,-0.01 0.043,-0.01 v -0.011 l 0.041,-0.01 0.041,-0.01 0.043,-0.011 0.041,-0.01 0.041,-0.011 0.043,-0.01 0.041,-0.011 v -0.01 l 0.041,-0.011 0.043,-0.01 0.041,-0.01 0.041,-0.011 0.043,-0.01 v -0.01 l 0.041,-0.011 0.041,-0.01 0.043,-0.011 0.041,-0.01 0.041,-0.011 0.043,-0.01 m -6.334,2.063 0.041,-0.011 v -0.01 l 0.043,-0.011 0.041,-0.01 v -0.011 l 0.041,-0.01 0.043,-0.011 v -0.01 l 0.041,-0.01 0.041,-0.011 0.043,-0.01 v -0.01 l 0.041,-0.011 0.041,-0.01 v -0.011 l 0.043,-0.01 v -0.011 l 0.041,-0.01 0.041,-0.011 v -0.01 l 0.043,-0.01 0.041,-0.011 0.041,-0.01 v -0.01 l 0.043,-0.011 0.041,-0.01 v -0.011 l 0.041,-0.01 0.043,-0.011 v -0.01 l 0.041,-0.011 0.041,-0.01 v -0.01 l 0.043,-0.011 0.041,-0.01 0.041,-0.01 v -0.011 l 0.043,-0.01 0.041,-0.011 v -0.01 l 0.041,-0.011 0.043,-0.01 v -0.011 l 0.041,-0.01 0.041,-0.01 0.043,-0.011 0.041,-0.01 v -0.01 l 0.041,-0.011 0.043,-0.01 v -0.011 l 0.041,-0.01 0.041,-0.011 v -0.01 l 0.043,-0.011 0.041,-0.01 0.041,-0.01 v -0.011 l 0.043,-0.01 0.041,-0.01 v -0.011 l 0.041,-0.01 0.043,-0.011 v -0.01 l 0.041,-0.011 0.041,-0.01 0.043,-0.011 0.041,-0.01 v -0.01 l 0.041,-0.011 0.043,-0.01 v -0.01 l 0.041,-0.011 0.041,-0.01 v -0.011 l 0.043,-0.01 0.041,-0.011 0.041,-0.01 0.043,-0.011 v -0.01 l 0.041,-0.01 0.041,-0.011 v -0.01 l 0.043,-0.01 0.041,-0.011 0.041,-0.01 v -0.011 l 0.043,-0.01 0.041,-0.011 0.041,-0.01 0.043,-0.011 v -0.01 l 0.041,-0.01 0.041,-0.011 v -0.01 l 0.043,-0.01 0.041,-0.011 0.041,-0.01 0.043,-0.011 m -5.625,2.063002 0.041,-0.011 v -0.01 l 0.041,-0.01 0.043,-0.011 0.041,-0.01 v -0.011 l 0.041,-0.01 v -0.011 l 0.043,-0.01 0.041,-0.011 v -0.01 l 0.041,-0.01 v -0.011 l 0.043,-0.01 v -0.01 l 0.041,-0.011 0.041,-0.01 0.043,-0.011 v -0.01 l 0.041,-0.011 v -0.01 l 0.041,-0.011 0.043,-0.01 v -0.01 l 0.041,-0.011 v -0.01 l 0.041,-0.01 0.043,-0.011 0.041,-0.01 v -0.011 l 0.041,-0.01 v -0.011 l 0.043,-0.01 0.041,-0.011 v -0.01 l 0.041,-0.01 v -0.011 l 0.043,-0.01 0.041,-0.01 0.041,-0.011 v -0.01 l 0.043,-0.011 v -0.01 l 0.041,-0.011 0.041,-0.01 v -0.011 l 0.043,-0.01 v -0.01 l 0.041,-0.011 0.041,-0.01 v -0.01 l 0.043,-0.011 0.041,-0.01 0.041,-0.011 v -0.01 l 0.043,-0.011 v -0.01 l 0.041,-0.011 0.041,-0.01 v -0.01 l 0.043,-0.011 v -0.01 l 0.041,-0.01 0.041,-0.011 0.043,-0.01 v -0.011 l 0.041,-0.01 v -0.011 l 0.041,-0.01 0.043,-0.011 v -0.01 l 0.041,-0.01 0.041,-0.011 v -0.01 l 0.043,-0.01 0.041,-0.011 v -0.01 l 0.041,-0.011 0.043,-0.01 v -0.011 l 0.041,-0.01 0.041,-0.011 v -0.01 l 0.043,-0.01 v -0.011 l 0.041,-0.01 0.041,-0.01 0.043,-0.011 v -0.01 l 0.041,-0.011 0.041,-0.01 v -0.011 l 0.043,-0.01 0.041,-0.011 v -0.01 l 0.041,-0.01 v -0.011 l 0.043,-0.01 0.041,-0.01 m -5.084,2.062002 0.043,-0.011 v -0.01 l 0.041,-0.01 v -0.011 l 0.041,-0.01 v -0.01 l 0.043,-0.011 v -0.01 l 0.041,-0.011 v -0.01 l 0.041,-0.011 0.043,-0.01 0.041,-0.011 v -0.01 l 0.041,-0.01 v -0.011 l 0.043,-0.01 v -0.01 l 0.041,-0.011 v -0.01 l 0.041,-0.011 v -0.01 l 0.043,-0.011 0.041,-0.01 0.041,-0.011 v -0.01 l 0.043,-0.01 v -0.011 l 0.041,-0.01 v -0.01 l 0.041,-0.011 v -0.01 l 0.043,-0.011 v -0.01 l 0.041,-0.011 0.041,-0.01 0.043,-0.011 v -0.01 l 0.041,-0.01 v -0.011 l 0.041,-0.01 v -0.01 l 0.043,-0.011 v -0.01 l 0.041,-0.011 0.041,-0.01 v -0.011 l 0.043,-0.01 v -0.011 l 0.041,-0.01 0.041,-0.01 v -0.011 l 0.043,-0.01 v -0.01 l 0.041,-0.011 0.041,-0.01 v -0.011 l 0.043,-0.01 v -0.011 l 0.041,-0.01 v -0.011 l 0.041,-0.01 v -0.01 l 0.043,-0.011 0.041,-0.01 0.041,-0.01 v -0.011 l 0.043,-0.01 v -0.011 l 0.041,-0.01 v -0.011 l 0.041,-0.01 0.043,-0.011 v -0.01 l 0.041,-0.01 0.041,-0.011 v -0.01 l 0.043,-0.01 v -0.011 l 0.041,-0.01 0.041,-0.011 v -0.01 l 0.043,-0.011 v -0.01 l 0.041,-0.011 v -0.01 l 0.041,-0.01 0.043,-0.011 0.041,-0.01 v -0.01 l 0.041,-0.011 v -0.01 l 0.043,-0.011 v -0.01 l 0.041,-0.011 0.041,-0.01 v -0.011 l 0.043,-0.01 v -0.01 m -4.70903,2.061998 0.041,-0.01 v -0.011 l 0.043,-0.01 v -0.011 l 0.041,-0.01 0.041,-0.01 v -0.011 l 0.043,-0.01 v -0.01 l 0.041,-0.011 0.041,-0.01 v -0.011 l 0.043,-0.01 v -0.011 l 0.041,-0.01 v -0.011 l 0.041,-0.01 v -0.01 l 0.043,-0.011 v -0.01 l 0.041,-0.01 v -0.011 l 0.041,-0.01 v -0.011 l 0.043,-0.01 0.041,-0.011 v -0.01 l 0.041,-0.011 v -0.01 l 0.043,-0.01 v -0.011 l 0.041,-0.01 v -0.01 l 0.041,-0.011 v -0.01 l 0.043,-0.011 v -0.01 l 0.041,-0.011 v -0.01 l 0.041,-0.011 0.043,-0.01 v -0.01 l 0.041,-0.011 v -0.01 l 0.041,-0.01 v -0.011 l 0.043,-0.01 v -0.011 l 0.041,-0.01 v -0.011 l 0.041,-0.01 v -0.011 l 0.043,-0.01 v -0.01 l 0.041,-0.011 0.041,-0.01 0.043,-0.01 v -0.011 l 0.041,-0.01 v -0.011 l 0.041,-0.01 v -0.011 l 0.043,-0.01 v -0.011 l 0.041,-0.01 v -0.01 l 0.041,-0.011 0.043,-0.01 v -0.01 l 0.041,-0.011 v -0.01 l 0.041,-0.011 v -0.01 l 0.043,-0.011 v -0.01 l 0.041,-0.011 v -0.01 l 0.041,-0.01 0.043,-0.011 v -0.01 l 0.041,-0.01 0.041,-0.011 v -0.01 l 0.043,-0.011 v -0.01 l 0.041,-0.011 v -0.01 l 0.041,-0.011 v -0.01 l 0.043,-0.01 v -0.011 l 0.041,-0.01 v -0.01 l 0.041,-0.011 v -0.01 l 0.043,-0.011 0.041,-0.01 0.041,-0.011 v -0.01 m -4.50002,2.094 0.043,-0.011 v -0.01 l 0.041,-0.01 v -0.011 l 0.041,-0.01 v -0.011 l 0.043,-0.021 v -0.01 l 0.041,-0.011 0.041,-0.01 v -0.01 l 0.043,-0.011 v -0.01 l 0.041,-0.01 v -0.011 l 0.041,-0.01 v -0.011 l 0.043,-0.01 v -0.011 l 0.041,-0.01 v -0.011 l 0.041,-0.01 v -0.01 l 0.043,-0.011 0.041,-0.01 v -0.01 l 0.041,-0.011 v -0.01 l 0.043,-0.011 v -0.01 l 0.041,-0.011 v -0.01 l 0.041,-0.021 v -0.01 l 0.043,-0.011 v -0.01 l 0.041,-0.01 v -0.011 l 0.041,-0.01 0.043,-0.011 v -0.01 l 0.041,-0.011 v -0.01 l 0.041,-0.011 v -0.01 l 0.043,-0.01 v -0.011 l 0.041,-0.01 v -0.01 l 0.041,-0.011 v -0.01 l 0.043,-0.011 0.041,-0.01 v -0.011 l 0.041,-0.01 v -0.011 l 0.043,-0.01 v -0.01 l 0.041,-0.011 v -0.01 l 0.041,-0.01 v -0.011 l 0.043,-0.01 v -0.011 l 0.041,-0.01 v -0.011 l 0.041,-0.01 0.043,-0.011 v -0.01 l 0.041,-0.01 v -0.011 l 0.041,-0.01 v -0.01 l 0.043,-0.011 v -0.01 l 0.041,-0.011 v -0.01 l 0.041,-0.011 v -0.01 l 0.043,-0.011 v -0.01 l 0.041,-0.01 0.041,-0.021 v -0.01 l 0.043,-0.011 v -0.01 l 0.041,-0.011 v -0.01 l 0.041,-0.011 v -0.01 l 0.043,-0.011 v -0.01 l 0.041,-0.01 v -0.011 l 0.041,-0.01 v -0.01 l 0.043,-0.011 0.041,-0.01 v -0.011 m -4.41597,2.167 0.041,-0.01 v -0.011 l 0.041,-0.01 v -0.011 l 0.043,-0.01 v -0.011 l 0.041,-0.01 0.041,-0.021 v -0.01 l 0.043,-0.011 v -0.01 l 0.041,-0.01 v -0.011 l 0.041,-0.01 v -0.011 l 0.043,-0.01 v -0.011 l 0.041,-0.01 v -0.021 l 0.041,-0.01 v -0.011 l 0.043,-0.01 0.041,-0.01 v -0.011 l 0.041,-0.01 v -0.011 l 0.043,-0.01 v -0.011 l 0.041,-0.01 v -0.021 l 0.041,-0.01 v -0.011 l 0.043,-0.01 v -0.01 l 0.041,-0.011 v -0.01 l 0.041,-0.011 0.043,-0.01 v -0.011 l 0.041,-0.01 v -0.011 l 0.041,-0.02 v -0.011 l 0.043,-0.01 v -0.01 l 0.041,-0.011 v -0.01 l 0.041,-0.011 v -0.01 l 0.043,-0.011 0.041,-0.01 v -0.011 l 0.041,-0.01 v -0.01 l 0.043,-0.011 v -0.02 l 0.041,-0.011 v -0.01 l 0.041,-0.011 v -0.01 l 0.043,-0.011 v -0.01 l 0.041,-0.011 v -0.01 l 0.041,-0.01 0.043,-0.011 v -0.01 l 0.041,-0.01 v -0.011 l 0.041,-0.021 v -0.01 l 0.043,-0.011 v -0.01 l 0.041,-0.011 v -0.01 l 0.041,-0.01 v -0.011 l 0.043,-0.01 v -0.01 l 0.041,-0.011 0.041,-0.01 v -0.011 l 0.043,-0.01 v -0.011 l 0.041,-0.01 v -0.011 l 0.041,-0.02 v -0.011 l 0.043,-0.01 v -0.01 l 0.041,-0.011 v -0.01 l 0.041,-0.011 v -0.01 l 0.043,-0.011 0.041,-0.01 v -0.011 l 0.041,-0.01 v -0.01 m -4.41598,2.26 0.041,-0.01 v -0.011 l 0.043,-0.01 v -0.01 l 0.041,-0.021 0.041,-0.011 v -0.01 l 0.043,-0.011 v -0.01 l 0.041,-0.011 v -0.01 l 0.041,-0.021 v -0.01 l 0.043,-0.01 v -0.011 l 0.041,-0.01 v -0.011 l 0.041,-0.01 v -0.011 l 0.043,-0.021 0.041,-0.01 v -0.01 l 0.041,-0.011 v -0.01 l 0.043,-0.01 v -0.011 l 0.041,-0.021 v -0.01 l 0.041,-0.011 v -0.01 l 0.043,-0.011 v -0.01 l 0.041,-0.01 0.041,-0.011 v -0.02 l 0.043,-0.011 v -0.01 l 0.041,-0.011 v -0.01 l 0.041,-0.011 v -0.01 l 0.043,-0.011 v -0.02 l 0.041,-0.011 v -0.01 l 0.041,-0.01 v -0.011 l 0.043,-0.01 0.041,-0.011 v -0.01 l 0.041,-0.021 v -0.011 l 0.043,-0.01 v -0.01 l 0.041,-0.011 v -0.01 l 0.041,-0.01 v -0.011 l 0.043,-0.021 v -0.01 l 0.041,-0.011 v -0.01 l 0.041,-0.011 0.043,-0.01 v -0.01 l 0.041,-0.011 v -0.01 l 0.041,-0.021 v -0.01 l 0.043,-0.011 v -0.01 l 0.041,-0.011 v -0.01 l 0.041,-0.011 v -0.01 l 0.043,-0.01 v -0.021 l 0.041,-0.01 0.041,-0.011 v -0.01 l 0.043,-0.011 v -0.01 l 0.041,-0.011 v -0.01 l 0.041,-0.011 v -0.01 l 0.043,-0.021 v -0.01 l 0.041,-0.01 v -0.011 l 0.041,-0.01 0.043,-0.011 v -0.01 l 0.041,-0.011 v -0.01 l 0.041,-0.021 v -0.01 l 0.043,-0.011 v -0.01 m -4.41802,2.354002 0.043,-0.01 v -0.011 l 0.041,-0.01 0.041,-0.011 v -0.021 l 0.043,-0.01 v -0.01 l 0.041,-0.011 v -0.01 l 0.041,-0.021 v -0.01 l 0.043,-0.011 v -0.01 l 0.041,-0.011 v -0.01 l 0.041,-0.021 0.043,-0.01 v -0.011 l 0.041,-0.01 v -0.01 l 0.041,-0.011 v -0.021 l 0.043,-0.01 v -0.011 l 0.041,-0.01 v -0.011 l 0.041,-0.02 v -0.011 l 0.043,-0.01 v -0.01 l 0.041,-0.011 0.041,-0.01 v -0.021 l 0.043,-0.011 v -0.01 l 0.041,-0.011 v -0.01 l 0.041,-0.01 v -0.021 l 0.043,-0.01 v -0.011 l 0.041,-0.01 v -0.011 l 0.041,-0.01 v -0.021 l 0.043,-0.011 0.041,-0.01 v -0.01 l 0.041,-0.011 v -0.01 l 0.043,-0.021 v -0.01 l 0.041,-0.011 v -0.01 l 0.041,-0.011 v -0.01 l 0.043,-0.011 v -0.02 l 0.041,-0.011 v -0.01 l 0.041,-0.01 0.043,-0.011 v -0.01 l 0.041,-0.021 v -0.011 l 0.041,-0.01 v -0.011 l 0.043,-0.01 v -0.01 l 0.041,-0.021 v -0.01 l 0.041,-0.011 v -0.01 l 0.043,-0.011 0.041,-0.01 v -0.011 l 0.041,-0.021 v -0.01 l 0.043,-0.01 v -0.011 l 0.041,-0.01 v -0.01 l 0.041,-0.021 v -0.011 l 0.043,-0.01 v -0.011 l 0.041,-0.01 v -0.011 l 0.041,-0.01 0.043,-0.021 v -0.01 l 0.041,-0.01 v -0.011 l 0.041,-0.01 v -0.011 l 0.043,-0.01 v -0.021 l 0.041,-0.011 v -0.01 m -4.416,2.438 0.041,-0.011 0.041,-0.01 v -0.021 l 0.043,-0.011 v -0.01 l 0.041,-0.01 v -0.011 l 0.041,-0.02 v -0.011 l 0.043,-0.01 v -0.011 l 0.041,-0.01 v -0.021 l 0.041,-0.011 0.043,-0.01 v -0.01 l 0.041,-0.021 v -0.01 l 0.041,-0.011 v -0.01 l 0.043,-0.011 v -0.021 l 0.041,-0.01 v -0.011 l 0.041,-0.01 v -0.01 l 0.043,-0.021 v -0.01 l 0.041,-0.011 0.041,-0.01 v -0.011 l 0.043,-0.021 v -0.01 l 0.041,-0.011 v -0.01 l 0.041,-0.021 v -0.01 l 0.043,-0.01 v -0.011 l 0.041,-0.01 v -0.021 l 0.041,-0.011 v -0.01 l 0.043,-0.011 0.041,-0.01 v -0.021 l 0.041,-0.01 v -0.01 l 0.043,-0.011 v -0.01 l 0.041,-0.021 v -0.011 l 0.041,-0.01 v -0.011 l 0.043,-0.01 v -0.021 l 0.041,-0.01 v -0.01 l 0.041,-0.011 0.043,-0.01 v -0.021 l 0.041,-0.011 v -0.01 l 0.041,-0.011 v -0.01 l 0.043,-0.021 v -0.01 l 0.041,-0.01 v -0.011 l 0.041,-0.01 v -0.011 l 0.043,-0.021 0.041,-0.01 v -0.011 l 0.041,-0.01 v -0.01 l 0.043,-0.021 v -0.01 l 0.041,-0.011 v -0.01 l 0.041,-0.011 v -0.021 l 0.043,-0.01 v -0.011 l 0.041,-0.01 v -0.01 l 0.041,-0.021 0.043,-0.01 v -0.011 l 0.041,-0.01 v -0.011 l 0.041,-0.01 v -0.021 l 0.043,-0.011 v -0.01 l 0.041,-0.01 v -0.011 l 0.041,-0.02 v -0.011 m -4.375,2.510998 v -0.011 l 0.043,-0.01 v -0.021 l 0.041,-0.011 v -0.01 l 0.041,-0.011 v -0.02 l 0.043,-0.011 v -0.01 l 0.041,-0.01 v -0.021 l 0.041,-0.011 0.043,-0.01 v -0.011 l 0.041,-0.021 v -0.01 l 0.041,-0.01 v -0.011 l 0.043,-0.01 v -0.021 l 0.041,-0.01 v -0.011 l 0.041,-0.01 v -0.021 l 0.043,-0.011 v -0.01 l 0.041,-0.01 0.041,-0.021 v -0.01 l 0.043,-0.011 v -0.01 l 0.041,-0.021 v -0.011 l 0.041,-0.01 v -0.011 l 0.043,-0.02 v -0.011 l 0.041,-0.01 v -0.01 l 0.041,-0.021 v -0.011 l 0.043,-0.01 0.041,-0.011 v -0.01 l 0.041,-0.021 v -0.01 l 0.043,-0.011 v -0.01 l 0.041,-0.021 v -0.01 l 0.041,-0.011 v -0.01 l 0.043,-0.021 v -0.011 l 0.041,-0.01 0.041,-0.01 v -0.011 l 0.043,-0.02 v -0.011 l 0.041,-0.01 v -0.011 l 0.041,-0.021 v -0.01 l 0.043,-0.011 v -0.01 l 0.041,-0.021 v -0.01 l 0.041,-0.01 v -0.011 l 0.043,-0.01 0.041,-0.021 v -0.011 l 0.041,-0.01 v -0.011 l 0.043,-0.02 v -0.011 l 0.041,-0.01 v -0.01 l 0.041,-0.011 v -0.021 l 0.043,-0.01 v -0.011 l 0.041,-0.01 v -0.021 l 0.041,-0.01 0.043,-0.011 v -0.01 l 0.041,-0.01 v -0.021 l 0.041,-0.011 v -0.01 l 0.043,-0.011 v -0.021 l 0.041,-0.01 v -0.01 l 0.041,-0.011 v -0.01 l 0.043,-0.021 v -0.01 m -4.37502,2.572 v -0.01 l 0.041,-0.021 v -0.01 l 0.041,-0.01 v -0.011 l 0.043,-0.021 v -0.01 l 0.041,-0.011 v -0.01 l 0.041,-0.021 0.043,-0.01 v -0.011 l 0.041,-0.02 v -0.011 l 0.041,-0.01 v -0.011 l 0.043,-0.021 v -0.01 l 0.041,-0.011 v -0.01 l 0.041,-0.021 v -0.01 l 0.043,-0.01 v -0.011 l 0.041,-0.021 0.041,-0.01 v -0.011 l 0.043,-0.021 v -0.01 l 0.041,-0.01 v -0.011 l 0.041,-0.02 v -0.011 l 0.043,-0.01 v -0.011 l 0.041,-0.021 v -0.01 l 0.041,-0.011 0.043,-0.01 v -0.021 l 0.041,-0.01 v -0.01 l 0.041,-0.021 v -0.011 l 0.043,-0.01 v -0.011 l 0.041,-0.021 v -0.01 l 0.041,-0.01 v -0.011 l 0.043,-0.02 v -0.011 l 0.041,-0.01 0.041,-0.011 v -0.021 l 0.043,-0.01 v -0.011 l 0.041,-0.01 v -0.021 l 0.041,-0.01 v -0.01 l 0.043,-0.011 v -0.021 l 0.041,-0.01 v -0.011 l 0.041,-0.01 v -0.021 l 0.043,-0.01 0.041,-0.011 v -0.02 l 0.041,-0.011 v -0.01 l 0.043,-0.011 v -0.021 l 0.041,-0.01 v -0.011 l 0.041,-0.01 v -0.021 l 0.043,-0.01 v -0.01 l 0.041,-0.011 v -0.021 l 0.041,-0.01 0.043,-0.011 v -0.01 l 0.041,-0.021 v -0.01 l 0.041,-0.011 v -0.01 l 0.043,-0.021 v -0.01 l 0.041,-0.011 v -0.01 l 0.041,-0.021 v -0.011 l 0.043,-0.01 0.041,-0.01 v -0.021 l 0.041,-0.01 m -4.416,2.625 v -0.011 l 0.041,-0.01 v -0.021 l 0.043,-0.011 v -0.01 l 0.041,-0.021 v -0.01 l 0.041,-0.011 0.043,-0.01 v -0.021 l 0.041,-0.01 v -0.011 l 0.041,-0.021 v -0.01 l 0.043,-0.011 v -0.01 l 0.041,-0.021 v -0.01 l 0.041,-0.01 v -0.021 l 0.043,-0.011 0.041,-0.01 v -0.021 l 0.041,-0.011 v -0.01 l 0.043,-0.01 v -0.021 l 0.041,-0.01 v -0.011 l 0.041,-0.021 v -0.01 l 0.043,-0.011 v -0.01 l 0.041,-0.021 v -0.01 l 0.041,-0.011 0.043,-0.02 v -0.011 l 0.041,-0.01 v -0.011 l 0.041,-0.021 v -0.01 l 0.043,-0.011 v -0.02 l 0.041,-0.011 v -0.01 l 0.041,-0.01 v -0.021 l 0.043,-0.011 v -0.01 l 0.041,-0.021 0.041,-0.011 v -0.01 l 0.043,-0.01 v -0.021 l 0.041,-0.01 v -0.011 l 0.041,-0.021 v -0.01 l 0.043,-0.011 v -0.01 l 0.041,-0.021 v -0.01 l 0.041,-0.011 v -0.02 l 0.043,-0.011 0.041,-0.01 v -0.011 l 0.041,-0.021 v -0.01 l 0.043,-0.011 v -0.01 l 0.041,-0.021 v -0.01 l 0.041,-0.01 v -0.021 l 0.043,-0.011 v -0.01 l 0.041,-0.011 0.041,-0.021 v -0.01 l 0.043,-0.01 v -0.021 l 0.041,-0.01 v -0.011 l 0.041,-0.01 v -0.021 l 0.043,-0.011 v -0.01 l 0.041,-0.011 v -0.02 l 0.041,-0.011 v -0.01 l 0.043,-0.021 0.041,-0.01 v -0.011 l 0.041,-0.01 v -0.021 l 0.043,-0.011 m -4.418,2.667 v -0.01 l 0.043,-0.011 v -0.021 l 0.041,-0.01 v -0.01 l 0.041,-0.021 0.043,-0.01 v -0.011 l 0.041,-0.021 v -0.01 l 0.041,-0.011 v -0.021 l 0.043,-0.01 v -0.01 l 0.041,-0.011 v -0.02 l 0.041,-0.011 v -0.01 l 0.043,-0.021 0.041,-0.011 v -0.01 l 0.041,-0.021 v -0.01 l 0.043,-0.011 v -0.02 l 0.041,-0.011 v -0.01 l 0.041,-0.011 v -0.021 l 0.043,-0.01 v -0.011 l 0.041,-0.02 v -0.011 l 0.041,-0.01 0.043,-0.021 v -0.01 l 0.041,-0.011 v -0.021 l 0.041,-0.01 v -0.011 l 0.043,-0.01 v -0.021 l 0.041,-0.01 v -0.01 l 0.041,-0.021 v -0.011 l 0.043,-0.01 v -0.021 l 0.041,-0.011 0.041,-0.01 v -0.01 l 0.043,-0.021 v -0.01 l 0.041,-0.011 v -0.021 l 0.041,-0.01 v -0.011 l 0.043,-0.021 v -0.01 l 0.041,-0.01 v -0.011 l 0.041,-0.02 v -0.011 l 0.043,-0.01 0.041,-0.021 v -0.011 l 0.041,-0.01 v -0.021 l 0.043,-0.01 v -0.011 l 0.041,-0.01 v -0.021 l 0.041,-0.01 v -0.011 l 0.043,-0.021 v -0.01 l 0.041,-0.011 0.041,-0.02 v -0.011 l 0.043,-0.01 v -0.01 l 0.041,-0.021 v -0.011 l 0.041,-0.01 v -0.021 l 0.043,-0.011 v -0.01 l 0.041,-0.021 v -0.01 l 0.041,-0.01 v -0.011 l 0.043,-0.021 0.041,-0.01 v -0.011 l 0.041,-0.021 v -0.01 l 0.043,-0.01 v -0.021 l 0.041,-0.01 m -4.416,2.697002 v -0.01 l 0.041,-0.011 0.041,-0.02 v -0.011 l 0.043,-0.01 v -0.01 l 0.041,-0.021 v -0.011 l 0.041,-0.01 v -0.021 l 0.043,-0.011 v -0.01 l 0.041,-0.021 v -0.01 l 0.041,-0.01 v -0.021 l 0.043,-0.011 0.041,-0.01 v -0.021 l 0.041,-0.011 v -0.01 l 0.043,-0.021 v -0.01 l 0.041,-0.01 v -0.021 l 0.041,-0.011 v -0.01 l 0.043,-0.021 v -0.011 l 0.041,-0.01 v -0.01 l 0.041,-0.021 0.043,-0.01 v -0.011 l 0.041,-0.021 v -0.01 l 0.041,-0.011 v -0.021 l 0.043,-0.01 v -0.01 l 0.041,-0.021 v -0.01 l 0.041,-0.011 v -0.021 l 0.043,-0.01 v -0.011 l 0.041,-0.021 0.041,-0.01 v -0.01 l 0.043,-0.011 v -0.02 l 0.041,-0.011 v -0.01 l 0.041,-0.021 v -0.011 l 0.043,-0.01 v -0.021 l 0.041,-0.01 v -0.011 l 0.041,-0.02 0.043,-0.011 v -0.01 l 0.041,-0.021 v -0.011 l 0.041,-0.01 v -0.021 l 0.043,-0.01 v -0.011 l 0.041,-0.01 v -0.021 l 0.041,-0.01 v -0.011 l 0.043,-0.021 v -0.01 l 0.041,-0.011 0.041,-0.02 v -0.011 l 0.043,-0.01 v -0.021 l 0.041,-0.01 v -0.011 l 0.041,-0.021 v -0.01 l 0.043,-0.011 v -0.01 l 0.041,-0.021 v -0.01 l 0.041,-0.01 v -0.021 l 0.043,-0.011 0.041,-0.01 v -0.021 l 0.041,-0.011 v -0.01 l 0.043,-0.021 v -0.01 l 0.041,-0.01 v -0.021 l 0.041,-0.011 m -4.416,2.729 0.041,-0.021 v -0.01 l 0.043,-0.01 v -0.021 l 0.041,-0.01 v -0.011 l 0.041,-0.021 v -0.01 l 0.043,-0.011 v -0.021 l 0.041,-0.01 v -0.01 l 0.041,-0.021 v -0.01 l 0.043,-0.011 0.041,-0.021 v -0.01 l 0.041,-0.011 v -0.021 l 0.043,-0.01 v -0.01 l 0.041,-0.021 v -0.01 l 0.041,-0.011 v -0.021 l 0.043,-0.01 v -0.011 l 0.041,-0.021 v -0.01 l 0.041,-0.01 0.043,-0.021 v -0.01 l 0.041,-0.011 v -0.021 l 0.041,-0.01 v -0.011 l 0.043,-0.021 v -0.01 l 0.041,-0.01 v -0.011 l 0.041,-0.02 v -0.011 l 0.043,-0.01 0.041,-0.021 v -0.011 l 0.041,-0.01 v -0.021 l 0.043,-0.01 v -0.011 l 0.041,-0.02 v -0.011 l 0.041,-0.01 v -0.021 l 0.043,-0.011 v -0.01 l 0.041,-0.021 v -0.01 l 0.041,-0.011 0.043,-0.02 v -0.011 l 0.041,-0.01 v -0.021 l 0.041,-0.011 v -0.01 l 0.043,-0.021 v -0.01 l 0.041,-0.011 v -0.02 l 0.041,-0.011 v -0.01 l 0.043,-0.021 v -0.011 l 0.041,-0.01 0.041,-0.021 v -0.01 l 0.043,-0.011 v -0.01 l 0.041,-0.021 v -0.01 l 0.041,-0.011 v -0.021 l 0.043,-0.01 v -0.011 l 0.041,-0.02 v -0.011 l 0.041,-0.01 v -0.021 l 0.043,-0.01 0.041,-0.011 v -0.021 l 0.041,-0.01 v -0.011 l 0.043,-0.02 v -0.011 l 0.041,-0.01 v -0.021 l 0.041,-0.01 v -0.011 l 0.043,-0.021 m -4.418,2.739998 0.043,-0.011 v -0.02 l 0.041,-0.011 v -0.01 l 0.041,-0.021 v -0.01 l 0.043,-0.011 v -0.021 l 0.041,-0.01 v -0.011 l 0.041,-0.02 v -0.011 l 0.043,-0.01 0.041,-0.021 v -0.01 l 0.041,-0.011 v -0.021 l 0.043,-0.01 v -0.011 l 0.041,-0.02 v -0.011 l 0.041,-0.01 v -0.021 l 0.043,-0.01 v -0.011 l 0.041,-0.021 v -0.01 l 0.041,-0.011 0.043,-0.02 v -0.011 l 0.041,-0.01 v -0.021 l 0.041,-0.01 v -0.011 l 0.043,-0.021 v -0.01 l 0.041,-0.011 v -0.02 l 0.041,-0.011 v -0.01 l 0.043,-0.021 0.041,-0.01 v -0.011 l 0.041,-0.01 v -0.021 l 0.043,-0.011 v -0.01 l 0.041,-0.021 v -0.01 l 0.041,-0.01 v -0.021 l 0.043,-0.011 v -0.01 l 0.041,-0.021 v -0.011 l 0.041,-0.01 0.043,-0.021 v -0.01 l 0.041,-0.01 v -0.021 l 0.041,-0.011 v -0.01 l 0.043,-0.021 v -0.011 l 0.041,-0.01 v -0.021 l 0.041,-0.01 v -0.01 l 0.043,-0.021 v -0.011 l 0.041,-0.01 0.041,-0.021 v -0.011 l 0.043,-0.01 v -0.021 l 0.041,-0.01 v -0.01 l 0.041,-0.021 v -0.011 l 0.043,-0.01 v -0.021 l 0.041,-0.011 v -0.01 l 0.041,-0.021 0.043,-0.01 v -0.01 l 0.041,-0.021 v -0.011 l 0.041,-0.01 v -0.021 l 0.043,-0.011 v -0.01 l 0.041,-0.021 v -0.01 l 0.041,-0.01 v -0.011 l 0.043,-0.021 v -0.01 l 0.041,-0.011 m -4.416,2.729 0.041,-0.01 v -0.021 l 0.041,-0.01 v -0.01 l 0.043,-0.021 v -0.011 l 0.041,-0.01 v -0.011 l 0.041,-0.021 v -0.01 l 0.043,-0.01 0.041,-0.021 v -0.01 l 0.041,-0.011 v -0.021 l 0.043,-0.01 v -0.011 l 0.041,-0.021 v -0.01 l 0.041,-0.01 v -0.021 l 0.043,-0.01 v -0.011 l 0.041,-0.021 0.041,-0.01 v -0.011 l 0.043,-0.021 v -0.01 l 0.041,-0.01 v -0.021 l 0.041,-0.01 v -0.011 l 0.043,-0.021 v -0.01 l 0.041,-0.011 v -0.021 l 0.041,-0.01 v -0.01 l 0.043,-0.021 0.041,-0.01 v -0.011 l 0.041,-0.021 v -0.01 l 0.043,-0.011 v -0.01 l 0.041,-0.021 v -0.01 l 0.041,-0.011 v -0.02 l 0.043,-0.011 v -0.01 l 0.041,-0.021 v -0.011 l 0.041,-0.01 0.043,-0.021 v -0.01 l 0.041,-0.011 v -0.02 l 0.041,-0.011 v -0.01 l 0.043,-0.021 v -0.011 l 0.041,-0.01 v -0.021 l 0.041,-0.01 v -0.011 l 0.043,-0.02 v -0.011 l 0.041,-0.01 0.041,-0.021 v -0.011 l 0.043,-0.01 v -0.021 l 0.041,-0.01 v -0.011 l 0.041,-0.02 v -0.011 l 0.043,-0.01 v -0.021 l 0.041,-0.011 v -0.01 l 0.041,-0.021 0.043,-0.01 v -0.011 l 0.041,-0.02 v -0.011 l 0.041,-0.01 v -0.011 l 0.043,-0.021 v -0.01 l 0.041,-0.011 v -0.02 l 0.041,-0.011 v -0.01 l 0.043,-0.021 v -0.01 l 0.041,-0.011 0.041,-0.021 v -0.01 m -4.416,2.729 0.041,-0.021 v -0.01 l 0.043,-0.01 v -0.021 l 0.041,-0.011 v -0.01 l 0.041,-0.021 0.043,-0.011 v -0.01 l 0.041,-0.021 v -0.01 l 0.041,-0.01 v -0.021 l 0.043,-0.011 v -0.01 l 0.041,-0.011 v -0.021 l 0.041,-0.01 v -0.01 l 0.043,-0.021 v -0.01 l 0.041,-0.011 0.041,-0.021 v -0.01 l 0.043,-0.011 v -0.021 l 0.041,-0.01 v -0.01 l 0.041,-0.021 v -0.01 l 0.043,-0.011 v -0.021 l 0.041,-0.01 v -0.011 l 0.041,-0.01 v -0.021 l 0.043,-0.01 0.041,-0.011 v -0.02 l 0.041,-0.011 v -0.01 l 0.043,-0.021 v -0.011 l 0.041,-0.01 v -0.021 l 0.041,-0.01 v -0.011 l 0.043,-0.02 v -0.011 l 0.041,-0.01 v -0.021 l 0.041,-0.011 0.043,-0.01 v -0.011 l 0.041,-0.02 v -0.011 l 0.041,-0.01 v -0.021 l 0.043,-0.01 v -0.011 l 0.041,-0.021 v -0.01 l 0.041,-0.011 v -0.02 l 0.043,-0.011 0.041,-0.01 v -0.021 l 0.041,-0.01 v -0.011 l 0.043,-0.021 v -0.01 l 0.041,-0.011 v -0.02 l 0.041,-0.011 v -0.01 l 0.043,-0.021 v -0.01 l 0.041,-0.011 v -0.01 l 0.041,-0.021 0.043,-0.011 v -0.01 l 0.041,-0.021 v -0.01 l 0.041,-0.01 v -0.021 l 0.043,-0.011 v -0.01 l 0.041,-0.021 v -0.011 l 0.041,-0.01 v -0.021 l 0.043,-0.01 v -0.01 l 0.041,-0.021 0.041,-0.011 v -0.01 l 0.043,-0.021 v -0.011 m -4.418,2.708996 0.043,-0.021 v -0.01 l 0.041,-0.011 v -0.01 l 0.041,-0.021 0.043,-0.011 v -0.01 l 0.041,-0.021 v -0.01 l 0.041,-0.01 v -0.021 l 0.043,-0.011 v -0.01 l 0.041,-0.011 v -0.021 l 0.041,-0.01 v -0.01 l 0.043,-0.021 v -0.01 l 0.041,-0.011 0.041,-0.021 v -0.01 l 0.043,-0.011 v -0.01 l 0.041,-0.021 v -0.01 l 0.041,-0.011 v -0.02 l 0.043,-0.011 v -0.01 l 0.041,-0.021 v -0.011 l 0.041,-0.01 v -0.011 l 0.043,-0.02 0.041,-0.011 v -0.01 l 0.041,-0.021 v -0.01 l 0.043,-0.011 v -0.021 l 0.041,-0.01 v -0.011 l 0.041,-0.01 v -0.021 l 0.043,-0.01 v -0.01 l 0.041,-0.021 0.041,-0.011 v -0.01 l 0.043,-0.021 v -0.011 l 0.041,-0.01 v -0.021 l 0.041,-0.01 v -0.01 l 0.043,-0.011 v -0.021 l 0.041,-0.01 v -0.011 l 0.041,-0.021 v -0.01 l 0.043,-0.01 0.041,-0.021 v -0.01 l 0.041,-0.011 v -0.021 l 0.043,-0.01 v -0.011 l 0.041,-0.01 v -0.021 l 0.041,-0.01 v -0.011 l 0.043,-0.02 v -0.011 l 0.041,-0.01 v -0.021 l 0.041,-0.011 0.043,-0.01 v -0.021 l 0.041,-0.01 v -0.011 l 0.041,-0.01 v -0.021 l 0.043,-0.01 v -0.011 l 0.041,-0.021 v -0.01 l 0.041,-0.011 v -0.02 l 0.043,-0.011 v -0.01 l 0.041,-0.021 0.041,-0.01 v -0.011 l 0.043,-0.021 v -0.01 l 0.041,-0.011 v -0.01 m -4.416,2.667004 0.041,-0.011 v -0.01 l 0.041,-0.021 0.043,-0.01 v -0.011 l 0.041,-0.01 v -0.021 l 0.041,-0.01 v -0.011 l 0.043,-0.021 v -0.01 l 0.041,-0.011 v -0.01 l 0.041,-0.021 v -0.01 l 0.043,-0.01 v -0.011 l 0.041,-0.021 0.041,-0.01 v -0.011 l 0.043,-0.021 v -0.01 l 0.041,-0.01 v -0.011 l 0.041,-0.02 v -0.011 l 0.043,-0.01 v -0.021 l 0.041,-0.011 v -0.01 l 0.041,-0.011 v -0.02 l 0.043,-0.011 0.041,-0.01 v -0.021 l 0.041,-0.01 v -0.011 l 0.043,-0.01 v -0.021 l 0.041,-0.011 v -0.01 l 0.041,-0.021 v -0.01 l 0.043,-0.01 v -0.011 l 0.041,-0.021 0.041,-0.01 v -0.011 l 0.043,-0.021 v -0.01 l 0.041,-0.01 v -0.011 l 0.041,-0.02 v -0.011 l 0.043,-0.01 v -0.021 l 0.041,-0.011 v -0.01 l 0.041,-0.011 v -0.02 l 0.043,-0.011 0.041,-0.01 v -0.021 l 0.041,-0.01 v -0.011 l 0.043,-0.021 v -0.01 l 0.041,-0.011 v -0.01 l 0.041,-0.021 v -0.01 l 0.043,-0.01 v -0.021 l 0.041,-0.011 v -0.01 l 0.041,-0.011 0.043,-0.021 v -0.01 l 0.041,-0.01 v -0.021 l 0.041,-0.01 v -0.011 l 0.043,-0.01 v -0.021 l 0.041,-0.011 v -0.01 l 0.041,-0.021 v -0.01 l 0.043,-0.011 v -0.02 l 0.041,-0.011 0.041,-0.01 v -0.011 l 0.043,-0.021 v -0.01 l 0.041,-0.011 v -0.02 l 0.041,-0.011 v -0.01 m -4.416,2.635006 0.041,-0.02 0.043,-0.011 v -0.01 l 0.041,-0.011 v -0.021 l 0.041,-0.01 v -0.011 l 0.043,-0.01 v -0.021 l 0.041,-0.01 v -0.01 l 0.041,-0.011 v -0.021 l 0.043,-0.01 v -0.011 l 0.041,-0.021 0.041,-0.01 v -0.01 l 0.043,-0.011 v -0.02 l 0.041,-0.011 v -0.01 l 0.041,-0.011 v -0.021 l 0.043,-0.01 v -0.011 l 0.041,-0.01 v -0.021 l 0.041,-0.01 0.043,-0.01 v -0.011 l 0.041,-0.021 v -0.01 l 0.041,-0.011 v -0.01 l 0.043,-0.021 v -0.01 l 0.041,-0.011 v -0.01 l 0.041,-0.021 v -0.01 l 0.043,-0.011 v -0.021 l 0.041,-0.01 0.041,-0.011 v -0.01 l 0.043,-0.021 v -0.01 l 0.041,-0.01 v -0.011 l 0.041,-0.021 v -0.01 l 0.043,-0.011 v -0.01 l 0.041,-0.021 v -0.01 l 0.041,-0.011 v -0.02 l 0.043,-0.011 0.041,-0.01 v -0.011 l 0.041,-0.021 v -0.01 l 0.043,-0.011 v -0.01 l 0.041,-0.021 v -0.01 l 0.041,-0.01 v -0.011 l 0.043,-0.021 v -0.01 l 0.041,-0.011 v -0.021 l 0.041,-0.01 0.043,-0.01 v -0.011 l 0.041,-0.02 v -0.011 l 0.041,-0.01 v -0.011 l 0.043,-0.021 v -0.01 l 0.041,-0.011 v -0.02 l 0.041,-0.011 v -0.01 l 0.043,-0.01 0.041,-0.021 v -0.011 l 0.041,-0.01 v -0.021 l 0.043,-0.011 v -0.01 l 0.041,-0.01 v -0.021 l 0.041,-0.01 v -0.011 l 0.043,-0.01 v -0.021 m -4.375,2.583 v -0.01 l 0.041,-0.011 v -0.02 l 0.041,-0.011 v -0.01 l 0.043,-0.011 v -0.01 l 0.041,-0.021 v -0.011 l 0.041,-0.01 v -0.01 l 0.043,-0.021 0.041,-0.01 v -0.011 l 0.041,-0.01 v -0.011 l 0.043,-0.021 v -0.01 l 0.041,-0.011 v -0.01 l 0.041,-0.021 v -0.01 l 0.043,-0.01 v -0.011 l 0.041,-0.021 v -0.01 l 0.041,-0.011 0.043,-0.01 v -0.011 l 0.041,-0.02 v -0.011 l 0.041,-0.01 v -0.01 l 0.043,-0.021 v -0.011 l 0.041,-0.01 v -0.011 l 0.041,-0.021 v -0.01 l 0.043,-0.01 v -0.011 l 0.041,-0.01 0.041,-0.021 v -0.01 l 0.043,-0.011 v -0.01 l 0.041,-0.021 v -0.011 l 0.041,-0.01 v -0.01 l 0.043,-0.021 v -0.01 l 0.041,-0.011 v -0.01 l 0.041,-0.021 v -0.011 l 0.043,-0.01 0.041,-0.011 v -0.02 l 0.041,-0.011 v -0.01 l 0.043,-0.01 v -0.021 l 0.041,-0.011 v -0.01 l 0.041,-0.011 v -0.01 l 0.043,-0.021 v -0.01 l 0.041,-0.011 0.041,-0.01 v -0.021 l 0.043,-0.01 v -0.011 l 0.041,-0.01 v -0.021 l 0.041,-0.011 v -0.01 l 0.043,-0.01 v -0.021 l 0.041,-0.01 v -0.011 l 0.041,-0.01 v -0.021 l 0.043,-0.011 0.041,-0.01 v -0.011 l 0.041,-0.02 v -0.011 l 0.043,-0.01 v -0.01 l 0.041,-0.021 v -0.011 l 0.041,-0.01 v -0.011 l 0.043,-0.021 v -0.01 l 0.041,-0.01 v -0.011 m -4.375,2.521 v -0.021 l 0.041,-0.01 v -0.01 l 0.043,-0.011 v -0.01 l 0.041,-0.021 v -0.011 l 0.041,-0.01 v -0.011 l 0.043,-0.01 0.041,-0.021 v -0.01 l 0.041,-0.01 v -0.011 l 0.043,-0.01 v -0.011 l 0.041,-0.021 v -0.01 l 0.041,-0.011 v -0.01 l 0.043,-0.01 v -0.021 l 0.041,-0.01 v -0.011 l 0.041,-0.01 0.043,-0.011 v -0.021 l 0.041,-0.01 v -0.011 l 0.041,-0.01 v -0.01 l 0.043,-0.021 v -0.01 l 0.041,-0.011 v -0.01 l 0.041,-0.011 v -0.021 l 0.043,-0.01 v -0.011 l 0.041,-0.01 0.041,-0.01 v -0.021 l 0.043,-0.01 v -0.011 l 0.041,-0.01 v -0.011 l 0.041,-0.021 v -0.01 l 0.043,-0.011 v -0.01 l 0.041,-0.021 v -0.01 l 0.041,-0.01 0.043,-0.011 v -0.01 l 0.041,-0.021 v -0.011 l 0.041,-0.01 v -0.011 l 0.043,-0.01 v -0.021 l 0.041,-0.01 v -0.01 l 0.041,-0.011 v -0.01 l 0.043,-0.021 v -0.011 l 0.041,-0.01 0.041,-0.011 v -0.02 l 0.043,-0.011 v -0.01 l 0.041,-0.01 v -0.011 l 0.041,-0.021 v -0.01 l 0.043,-0.011 v -0.01 l 0.041,-0.011 v -0.02 l 0.041,-0.011 v -0.01 l 0.043,-0.01 0.041,-0.021 v -0.011 l 0.041,-0.01 v -0.011 l 0.043,-0.01 v -0.021 l 0.041,-0.01 v -0.011 l 0.041,-0.01 v -0.021 l 0.043,-0.01 v -0.011 l 0.041,-0.01 v -0.011 l 0.041,-0.021 0.043,-0.01 m -4.418,2.447998 v -0.01 l 0.043,-0.011 v -0.01 l 0.041,-0.011 v -0.01 l 0.041,-0.021 v -0.01 l 0.043,-0.011 0.041,-0.01 v -0.01 l 0.041,-0.011 v -0.01 l 0.043,-0.021 v -0.011 l 0.041,-0.01 v -0.011 l 0.041,-0.01 v -0.01 l 0.043,-0.021 v -0.01 l 0.041,-0.011 v -0.01 l 0.041,-0.011 0.043,-0.01 v -0.021 l 0.041,-0.011 v -0.01 l 0.041,-0.01 v -0.011 l 0.043,-0.01 v -0.01 l 0.041,-0.021 v -0.011 l 0.041,-0.01 v -0.011 l 0.043,-0.01 v -0.011 l 0.041,-0.02 0.041,-0.011 v -0.01 l 0.043,-0.01 v -0.011 l 0.041,-0.01 v -0.021 l 0.041,-0.011 v -0.01 l 0.043,-0.011 v -0.01 l 0.041,-0.01 v -0.021 l 0.041,-0.01 0.043,-0.011 v -0.01 l 0.041,-0.011 v -0.01 l 0.041,-0.021 v -0.011 l 0.043,-0.01 v -0.01 l 0.041,-0.011 v -0.02 l 0.041,-0.011 v -0.01 l 0.043,-0.011 v -0.01 l 0.041,-0.011 0.041,-0.021 v -0.01 l 0.043,-0.01 v -0.011 l 0.041,-0.01 v -0.01 l 0.041,-0.021 v -0.011 l 0.043,-0.01 v -0.011 l 0.041,-0.01 v -0.021 l 0.041,-0.01 v -0.011 l 0.043,-0.01 0.041,-0.01 v -0.011 l 0.041,-0.021 v -0.01 l 0.043,-0.011 v -0.01 l 0.041,-0.011 v -0.02 l 0.041,-0.011 v -0.01 l 0.043,-0.01 v -0.011 l 0.041,-0.01 v -0.021 l 0.041,-0.011 0.043,-0.01 v -0.011 l 0.041,-0.01 m -4.416,2.364998 v -0.011 l 0.041,-0.01 v -0.01 l 0.041,-0.011 v -0.01 l 0.043,-0.021 0.041,-0.011 v -0.01 l 0.041,-0.011 v -0.01 l 0.043,-0.01 v -0.011 l 0.041,-0.01 v -0.01 l 0.041,-0.021 v -0.011 l 0.043,-0.01 v -0.011 l 0.041,-0.01 v -0.011 l 0.041,-0.01 0.043,-0.01 v -0.011 l 0.041,-0.02 v -0.011 l 0.041,-0.01 v -0.011 l 0.043,-0.01 v -0.011 l 0.041,-0.01 v -0.011 l 0.041,-0.02 v -0.011 l 0.043,-0.01 0.041,-0.01 v -0.011 l 0.041,-0.01 v -0.011 l 0.043,-0.01 v -0.021 l 0.041,-0.011 v -0.01 l 0.041,-0.01 v -0.011 l 0.043,-0.01 v -0.01 l 0.041,-0.011 v -0.021 l 0.041,-0.01 0.043,-0.011 v -0.01 l 0.041,-0.011 v -0.01 l 0.041,-0.01 v -0.011 l 0.043,-0.02 v -0.011 l 0.041,-0.01 v -0.011 l 0.041,-0.01 v -0.011 l 0.043,-0.01 v -0.021 l 0.041,-0.01 0.041,-0.011 v -0.01 l 0.043,-0.01 v -0.011 l 0.041,-0.01 v -0.011 l 0.041,-0.021 v -0.01 l 0.043,-0.011 v -0.01 l 0.041,-0.01 v -0.011 l 0.041,-0.01 v -0.021 l 0.043,-0.01 0.041,-0.011 v -0.01 l 0.041,-0.011 v -0.01 l 0.043,-0.011 v -0.02 l 0.041,-0.011 v -0.01 l 0.041,-0.01 v -0.011 l 0.043,-0.01 v -0.011 l 0.041,-0.021 0.041,-0.01 v -0.011 l 0.043,-0.01 v -0.01 l 0.041,-0.011 v -0.01 l 0.041,-0.021 m -4.416,2.281002 v -0.01 l 0.041,-0.01 v -0.011 l 0.043,-0.01 0.041,-0.011 v -0.01 l 0.041,-0.011 v -0.01 l 0.043,-0.011 v -0.01 l 0.041,-0.01 v -0.011 l 0.041,-0.02 v -0.011 l 0.043,-0.01 v -0.011 l 0.041,-0.01 0.041,-0.011 v -0.01 l 0.043,-0.011 v -0.01 l 0.041,-0.01 v -0.011 l 0.041,-0.01 v -0.01 l 0.043,-0.011 v -0.021 l 0.041,-0.01 v -0.011 l 0.041,-0.01 v -0.011 l 0.043,-0.01 0.041,-0.01 v -0.011 l 0.041,-0.01 v -0.01 l 0.043,-0.011 v -0.01 l 0.041,-0.011 v -0.01 l 0.041,-0.021 v -0.011 l 0.043,-0.01 v -0.01 l 0.041,-0.011 v -0.01 l 0.041,-0.01 0.043,-0.011 v -0.01 l 0.041,-0.011 v -0.01 l 0.041,-0.011 v -0.021 l 0.043,-0.01 v -0.01 l 0.041,-0.011 v -0.01 l 0.041,-0.01 v -0.011 l 0.043,-0.01 v -0.011 l 0.041,-0.01 0.041,-0.011 v -0.021 l 0.043,-0.01 v -0.01 l 0.041,-0.011 v -0.01 l 0.041,-0.01 v -0.011 l 0.043,-0.01 v -0.011 l 0.041,-0.01 v -0.011 l 0.041,-0.021 0.043,-0.01 v -0.01 l 0.041,-0.011 v -0.01 l 0.041,-0.01 v -0.011 l 0.043,-0.01 v -0.011 l 0.041,-0.01 v -0.011 l 0.041,-0.021 v -0.01 l 0.043,-0.01 v -0.011 l 0.041,-0.01 0.041,-0.01 v -0.011 l 0.043,-0.01 v -0.011 l 0.041,-0.021 v -0.01 l 0.041,-0.011 v -0.01 l 0.043,-0.01 m -4.418,2.177002 v -0.011 l 0.043,-0.01 0.041,-0.011 v -0.01 l 0.041,-0.01 v -0.011 l 0.043,-0.01 v -0.01 l 0.041,-0.011 v -0.01 l 0.041,-0.011 v -0.01 l 0.043,-0.011 v -0.01 l 0.041,-0.011 0.041,-0.01 v -0.01 l 0.043,-0.011 v -0.01 l 0.041,-0.01 v -0.011 l 0.041,-0.01 v -0.011 l 0.043,-0.01 v -0.011 l 0.041,-0.01 v -0.011 l 0.041,-0.01 v -0.01 l 0.043,-0.011 0.041,-0.01 v -0.01 l 0.041,-0.011 v -0.01 l 0.043,-0.011 v -0.01 l 0.041,-0.011 v -0.01 l 0.041,-0.011 v -0.01 l 0.043,-0.01 v -0.011 l 0.041,-0.01 v -0.01 l 0.041,-0.011 0.043,-0.01 v -0.011 l 0.041,-0.01 v -0.011 l 0.041,-0.021 v -0.01 l 0.043,-0.01 v -0.011 l 0.041,-0.01 v -0.01 l 0.041,-0.011 v -0.01 l 0.043,-0.011 v -0.01 l 0.041,-0.011 0.041,-0.01 v -0.011 l 0.043,-0.01 v -0.01 l 0.041,-0.011 v -0.01 l 0.041,-0.01 v -0.011 l 0.043,-0.01 v -0.011 l 0.041,-0.01 v -0.011 l 0.041,-0.01 0.043,-0.011 v -0.01 l 0.041,-0.021 v -0.01 l 0.041,-0.01 v -0.011 l 0.043,-0.01 v -0.011 l 0.041,-0.01 v -0.011 l 0.041,-0.01 v -0.011 l 0.043,-0.01 v -0.01 l 0.041,-0.011 0.041,-0.01 v -0.01 l 0.043,-0.011 v -0.01 l 0.041,-0.011 v -0.01 l 0.041,-0.021 v -0.011 l 0.043,-0.01 v -0.01 l 0.041,-0.011 m -4.5,2.104996 0.041,-0.011 0.043,-0.01 v -0.011 l 0.041,-0.01 0.041,-0.011 v -0.01 l 0.043,-0.011 v -0.01 l 0.041,-0.01 v -0.011 l 0.041,-0.01 v -0.01 l 0.043,-0.011 v -0.01 l 0.041,-0.011 0.041,-0.01 v -0.011 l 0.043,-0.01 v -0.011 l 0.041,-0.01 v -0.01 l 0.041,-0.011 v -0.01 l 0.043,-0.01 v -0.011 l 0.041,-0.01 0.041,-0.011 v -0.01 l 0.043,-0.011 0.041,-0.01 v -0.011 l 0.041,-0.01 v -0.01 l 0.043,-0.011 v -0.01 l 0.041,-0.01 v -0.011 l 0.041,-0.01 v -0.011 l 0.043,-0.01 v -0.011 l 0.041,-0.01 v -0.011 l 0.041,-0.01 0.043,-0.01 v -0.011 l 0.041,-0.01 v -0.01 l 0.041,-0.011 v -0.01 l 0.043,-0.011 v -0.01 l 0.041,-0.011 v -0.01 l 0.041,-0.011 v -0.01 l 0.043,-0.01 0.041,-0.011 v -0.01 l 0.041,-0.01 v -0.011 l 0.043,-0.01 v -0.011 l 0.041,-0.01 v -0.011 l 0.041,-0.01 v -0.011 l 0.043,-0.01 v -0.01 l 0.041,-0.011 v -0.01 l 0.041,-0.01 0.043,-0.011 v -0.01 l 0.041,-0.011 0.041,-0.01 v -0.011 l 0.043,-0.01 v -0.011 l 0.041,-0.01 v -0.01 l 0.041,-0.011 v -0.01 l 0.043,-0.01 v -0.011 l 0.041,-0.01 0.041,-0.011 v -0.01 l 0.043,-0.011 v -0.01 l 0.041,-0.011 v -0.01 l 0.041,-0.01 v -0.011 l 0.043,-0.01 v -0.01 l 0.041,-0.011 v -0.01 l 0.041,-0.021 m -4.666,2.072998 0.041,-0.011 v -0.01 l 0.043,-0.01 v -0.011 l 0.041,-0.01 v -0.011 l 0.041,-0.01 0.043,-0.011 0.041,-0.01 v -0.011 l 0.041,-0.01 v -0.01 l 0.043,-0.011 v -0.01 l 0.041,-0.01 v -0.011 l 0.041,-0.01 0.043,-0.011 v -0.01 l 0.041,-0.011 0.041,-0.01 v -0.011 l 0.043,-0.01 v -0.01 l 0.041,-0.011 0.041,-0.01 v -0.01 l 0.043,-0.011 v -0.01 l 0.041,-0.011 v -0.01 l 0.041,-0.011 v -0.01 l 0.043,-0.011 0.041,-0.01 0.041,-0.01 v -0.011 l 0.043,-0.01 v -0.01 l 0.041,-0.011 v -0.01 l 0.041,-0.011 v -0.01 l 0.043,-0.011 v -0.01 l 0.041,-0.011 0.041,-0.01 0.043,-0.01 v -0.011 l 0.041,-0.01 v -0.01 l 0.041,-0.011 v -0.01 l 0.043,-0.011 v -0.01 l 0.041,-0.011 v -0.01 l 0.041,-0.011 0.043,-0.01 0.041,-0.01 v -0.011 l 0.041,-0.01 v -0.01 l 0.043,-0.011 v -0.01 l 0.041,-0.011 v -0.01 l 0.041,-0.011 v -0.01 l 0.043,-0.011 0.041,-0.01 v -0.01 l 0.041,-0.011 0.043,-0.01 v -0.01 l 0.041,-0.011 v -0.01 l 0.041,-0.011 v -0.01 l 0.043,-0.011 v -0.01 l 0.041,-0.011 v -0.01 l 0.041,-0.01 0.043,-0.011 v -0.01 l 0.041,-0.01 0.041,-0.011 v -0.01 l 0.043,-0.011 v -0.01 l 0.041,-0.011 v -0.01 l 0.041,-0.011 v -0.01 l 0.043,-0.01 v -0.011 l 0.041,-0.01 v -0.01 m -4.959,2.062004 v -0.011 l 0.043,-0.01 v -0.01 l 0.041,-0.011 0.041,-0.01 v -0.01 l 0.043,-0.011 0.041,-0.01 0.041,-0.011 v -0.01 l 0.043,-0.011 v -0.01 l 0.041,-0.011 0.041,-0.01 v -0.01 l 0.043,-0.011 v -0.01 l 0.041,-0.01 0.041,-0.011 0.043,-0.01 v -0.011 l 0.041,-0.01 0.041,-0.011 v -0.01 l 0.043,-0.011 v -0.01 l 0.041,-0.01 0.041,-0.011 v -0.01 l 0.043,-0.01 v -0.011 l 0.041,-0.01 0.041,-0.011 0.043,-0.01 v -0.011 l 0.041,-0.01 v -0.011 l 0.041,-0.01 0.043,-0.01 v -0.011 l 0.041,-0.01 v -0.01 l 0.041,-0.011 0.043,-0.01 0.041,-0.011 v -0.01 l 0.041,-0.011 0.043,-0.01 v -0.011 l 0.041,-0.01 v -0.01 l 0.041,-0.011 v -0.01 l 0.043,-0.01 0.041,-0.011 0.041,-0.01 v -0.011 l 0.043,-0.01 v -0.011 l 0.041,-0.01 0.041,-0.011 v -0.01 l 0.043,-0.01 v -0.011 l 0.041,-0.01 0.041,-0.01 v -0.011 l 0.043,-0.01 0.041,-0.011 v -0.01 l 0.041,-0.011 0.043,-0.01 v -0.011 l 0.041,-0.01 v -0.01 l 0.041,-0.011 v -0.01 l 0.043,-0.01 0.041,-0.011 v -0.01 l 0.041,-0.011 0.043,-0.01 v -0.011 l 0.041,-0.01 v -0.011 l 0.041,-0.01 0.043,-0.01 v -0.011 l 0.041,-0.01 v -0.01 l 0.041,-0.011 v -0.01 l 0.043,-0.011 0.041,-0.01 0.041,-0.011 v -0.01 l 0.043,-0.011 v -0.01 l 0.041,-0.01 m -5.5,2.062 0.041,-0.01 0.043,-0.011 0.041,-0.01 v -0.011 l 0.041,-0.01 0.043,-0.01 0.041,-0.011 v -0.01 l 0.041,-0.01 0.043,-0.011 v -0.01 l 0.041,-0.011 0.041,-0.01 0.043,-0.011 v -0.01 l 0.041,-0.011 0.041,-0.01 0.043,-0.01 v -0.011 l 0.041,-0.01 0.041,-0.01 v -0.011 l 0.043,-0.01 0.041,-0.011 v -0.01 l 0.041,-0.011 0.043,-0.01 0.041,-0.011 0.041,-0.01 v -0.01 l 0.043,-0.011 0.041,-0.01 v -0.01 l 0.041,-0.011 0.043,-0.01 v -0.011 l 0.041,-0.01 0.041,-0.011 0.043,-0.01 v -0.011 l 0.041,-0.01 0.041,-0.01 v -0.011 l 0.043,-0.01 0.041,-0.01 v -0.011 l 0.041,-0.01 0.043,-0.011 v -0.01 l 0.041,-0.011 0.041,-0.01 0.043,-0.011 v -0.01 l 0.041,-0.01 0.041,-0.011 v -0.01 l 0.043,-0.01 0.041,-0.011 v -0.01 l 0.041,-0.011 0.043,-0.01 0.041,-0.011 v -0.01 l 0.041,-0.011 0.043,-0.01 v -0.01 l 0.041,-0.011 0.041,-0.01 v -0.01 l 0.043,-0.011 v -0.01 l 0.041,-0.011 0.041,-0.01 0.043,-0.011 0.041,-0.01 v -0.011 l 0.041,-0.01 v -0.01 l 0.043,-0.011 0.041,-0.01 v -0.01 l 0.041,-0.011 0.043,-0.01 0.041,-0.011 v -0.01 l 0.041,-0.011 0.043,-0.01 v -0.011 l 0.041,-0.01 v -0.01 l 0.041,-0.011 0.043,-0.01 v -0.01 l 0.041,-0.011 0.041,-0.01 0.043,-0.011 v -0.01 l 0.041,-0.011 0.041,-0.01 m -6.207,2.063 0.041,-0.011 0.041,-0.01 0.043,-0.011 0.041,-0.01 v -0.011 l 0.041,-0.01 0.043,-0.011 0.041,-0.01 0.041,-0.01 0.043,-0.011 0.041,-0.01 0.041,-0.01 v -0.011 l 0.043,-0.01 0.041,-0.011 0.041,-0.01 0.043,-0.011 0.041,-0.01 0.041,-0.011 v -0.01 l 0.043,-0.01 0.041,-0.011 0.041,-0.01 v -0.01 l 0.043,-0.011 0.041,-0.01 0.041,-0.011 0.043,-0.01 0.041,-0.011 0.041,-0.01 v -0.011 l 0.043,-0.01 0.041,-0.01 0.041,-0.011 0.043,-0.01 0.041,-0.01 v -0.011 l 0.041,-0.01 0.043,-0.011 0.041,-0.01 0.041,-0.011 v -0.01 l 0.043,-0.011 0.041,-0.01 0.041,-0.01 0.043,-0.011 0.041,-0.01 v -0.01 l 0.041,-0.011 0.043,-0.01 0.041,-0.011 v -0.01 l 0.041,-0.011 0.043,-0.01 0.041,-0.011 0.041,-0.01 v -0.01 l 0.043,-0.011 0.041,-0.01 0.041,-0.01 v -0.011 l 0.043,-0.01 0.041,-0.011 0.041,-0.01 0.043,-0.011 0.041,-0.01 v -0.011 l 0.041,-0.01 0.043,-0.01 v -0.011 l 0.041,-0.01 0.041,-0.01 0.043,-0.011 0.041,-0.01 0.041,-0.011 v -0.01 l 0.043,-0.011 0.041,-0.01 v -0.011 l 0.041,-0.01 0.043,-0.01 0.041,-0.011 v -0.01 l 0.041,-0.01 0.043,-0.011 0.041,-0.01 0.041,-0.011 v -0.01 l 0.043,-0.011 0.041,-0.01 v -0.011 l 0.041,-0.01 0.043,-0.01 v -0.011 l 0.041,-0.01 0.041,-0.01 0.043,-0.011 0.041,-0.01 v -0.011 m -7.25,2.042 h 0.041 l 0.043,-0.01 0.041,-0.011 0.041,-0.01 0.043,-0.011 0.041,-0.01 0.041,-0.011 0.043,-0.01 0.041,-0.011 0.041,-0.01 0.043,-0.01 0.041,-0.011 0.041,-0.01 0.043,-0.01 0.041,-0.011 h 0.041 l 0.043,-0.01 0.041,-0.011 0.041,-0.01 0.043,-0.011 0.041,-0.01 0.041,-0.011 0.043,-0.01 0.041,-0.01 0.041,-0.011 0.043,-0.01 0.041,-0.01 0.041,-0.011 0.043,-0.01 0.041,-0.011 0.041,-0.01 0.043,-0.011 0.041,-0.01 0.041,-0.011 0.043,-0.01 0.041,-0.01 0.041,-0.011 0.043,-0.01 0.041,-0.01 0.041,-0.011 0.043,-0.01 0.041,-0.011 0.041,-0.01 0.043,-0.011 0.041,-0.01 0.041,-0.011 0.043,-0.01 0.041,-0.01 0.041,-0.011 0.043,-0.01 0.041,-0.01 0.041,-0.011 0.043,-0.01 0.041,-0.011 0.041,-0.01 0.043,-0.011 0.041,-0.01 0.041,-0.011 0.043,-0.01 0.041,-0.01 0.041,-0.011 0.043,-0.01 0.041,-0.01 0.041,-0.011 0.043,-0.01 0.041,-0.011 0.041,-0.01 v -0.011 l 0.043,-0.01 0.041,-0.011 0.041,-0.01 0.043,-0.01 0.041,-0.011 0.041,-0.01 0.043,-0.01 0.041,-0.011 0.041,-0.01 v -0.011 l 0.043,-0.01 0.041,-0.011 0.041,-0.01 0.043,-0.011 0.041,-0.01 0.041,-0.01 0.043,-0.011 0.041,-0.01 0.041,-0.01 v -0.011 l 0.043,-0.01 0.041,-0.011 0.041,-0.01 0.043,-0.011 0.041,-0.01 0.041,-0.011 0.043,-0.01 v -0.01 l 0.041,-0.011 0.041,-0.01 0.043,-0.01 m -8.084,1.800998 0.041,-0.01 0.043,-0.01 h 0.041 l 0.041,-0.011 0.043,-0.01 h 0.041 l 0.041,-0.01 h 0.043 l 0.041,-0.011 0.041,-0.01 0.043,-0.011 h 0.041 l 0.041,-0.01 h 0.043 l 0.041,-0.011 0.041,-0.01 h 0.043 l 0.041,-0.011 0.041,-0.01 0.043,-0.01 h 0.041 l 0.041,-0.011 h 0.043 l 0.041,-0.01 0.041,-0.01 0.043,-0.011 h 0.041 l 0.041,-0.01 0.043,-0.011 h 0.041 l 0.041,-0.01 0.043,-0.011 0.041,-0.01 h 0.041 l 0.043,-0.011 0.041,-0.01 0.041,-0.01 h 0.043 l 0.041,-0.011 0.041,-0.01 h 0.043 l 0.041,-0.01 0.041,-0.011 0.043,-0.01 h 0.041 l 0.041,-0.011 0.043,-0.01 0.041,-0.011 h 0.041 l 0.043,-0.01 0.041,-0.011 0.041,-0.01 h 0.043 l 0.041,-0.01 0.041,-0.011 0.043,-0.01 0.041,-0.01 h 0.041 l 0.043,-0.011 0.041,-0.01 h 0.041 l 0.043,-0.011 0.041,-0.01 0.041,-0.011 0.043,-0.01 0.041,-0.011 0.041,-0.01 h 0.043 l 0.041,-0.01 0.041,-0.011 0.043,-0.01 0.041,-0.01 h 0.041 l 0.043,-0.011 0.041,-0.01 0.041,-0.011 0.043,-0.01 h 0.041 l 0.041,-0.011 0.043,-0.01 0.041,-0.011 0.041,-0.01 0.043,-0.01 h 0.041 l 0.041,-0.011 0.043,-0.01 0.041,-0.01 0.041,-0.011 0.043,-0.01 0.041,-0.011 0.041,-0.01 h 0.043 l 0.041,-0.011 0.041,-0.01 0.043,-0.011 0.041,-0.01 0.041,-0.01 0.043,-0.011 0.041,-0.01 m -8.25,1.281002 h 0.041 l 0.043,-0.01 h 0.125 l 0.041,-0.011 h 0.041 l 0.043,-0.01 h 0.082 l 0.043,-0.01 h 0.082 l 0.043,-0.011 h 0.041 l 0.041,-0.01 h 0.084 l 0.041,-0.011 h 0.084 l 0.041,-0.01 h 0.043 l 0.041,-0.011 h 0.041 l 0.043,-0.01 h 0.082 l 0.043,-0.011 h 0.041 l 0.041,-0.01 h 0.043 l 0.041,-0.01 h 0.041 l 0.043,-0.011 h 0.082 l 0.043,-0.01 h 0.041 l 0.041,-0.01 h 0.043 l 0.041,-0.011 h 0.084 l 0.041,-0.01 h 0.041 l 0.043,-0.011 h 0.041 l 0.041,-0.01 h 0.043 l 0.041,-0.011 h 0.041 l 0.043,-0.01 h 0.041 l 0.041,-0.011 h 0.043 l 0.041,-0.01 h 0.041 l 0.043,-0.01 h 0.041 l 0.041,-0.011 h 0.043 l 0.041,-0.01 h 0.041 l 0.043,-0.01 0.041,-0.011 h 0.084 l 0.041,-0.01 0.041,-0.011 h 0.043 l 0.041,-0.01 h 0.041 l 0.043,-0.011 h 0.041 l 0.041,-0.01 h 0.043 l 0.041,-0.011 0.041,-0.01 h 0.043 l 0.041,-0.01 h 0.041 l 0.043,-0.011 h 0.041 l 0.041,-0.01 0.043,-0.01 h 0.041 l 0.041,-0.011 0.043,-0.01 h 0.082 l 0.043,-0.011 0.041,-0.01 h 0.041 l 0.043,-0.011 0.041,-0.01 h 0.041 l 0.043,-0.011 h 0.041 m -8.25,0.699002 0.041,-0.011 h 0.543 l 0.041,-0.01 h 0.334 l 0.041,-0.011 h 0.291 l 0.043,-0.01 h 0.207 l 0.043,-0.011 h 0.207 l 0.043,-0.01 h 0.166 l 0.041,-0.011 h 0.209 l 0.041,-0.01 h 0.125 l 0.043,-0.01 h 0.125 l 0.041,-0.011 h 0.166 l 0.043,-0.01 h 0.125 l 0.041,-0.01 h 0.125 l 0.041,-0.011 h 0.084 l 0.041,-0.01 h 0.125 l 0.043,-0.011 h 0.082 l 0.043,-0.01 h 0.125 l 0.041,-0.011 h 0.084 l 0.041,-0.01 h 0.041 l 0.043,-0.011 h 0.125 l 0.041,-0.01 m -8.25,0.103996 0.041,0.011 h 0.16701 l 0.042,0.01 h 0.125 l 0.041,0.01 h 0.16701 l 0.042,0.011 h 0.20801 l 0.042,0.01 h 0.20801 l 0.042,0.011 h 0.20801 l 0.042,0.01 h 0.25 l 0.041,0.011 h 0.375 l 0.042,0.01 h 0.5 l 0.042,0.011 h 1.5 m -8.25,-0.490002 h 0.041 l 0.042,0.01 h 0.042 l 0.041,0.011 h 0.042 l 0.042,0.01 h 0.041 l 0.042,0.01 h 0.042 l 0.041,0.011 h 0.042 l 0.042,0.01 h 0.041 l 0.042,0.011 h 0.042 l 0.041,0.01 h 0.042 l 0.042,0.011 h 0.041 l 0.042,0.01 h 0.042 l 0.041,0.011 h 0.084 l 0.041,0.01 h 0.042 l 0.042,0.01 h 0.041 l 0.042,0.011 h 0.083 l 0.042,0.01 h 0.042 l 0.041,0.01 h 0.042 l 0.042,0.011 h 0.041 l 0.042,0.01 h 0.083 l 0.042,0.011 h 0.042 l 0.041,0.01 h 0.084 l 0.041,0.011 h 0.084 l 0.041,0.01 h 0.042 l 0.042,0.011 h 0.083 l 0.042,0.01 h 0.083 l 0.042,0.01 h 0.041 l 0.042,0.011 h 0.125 l 0.042,0.01 h 0.041 l 0.042,0.01 h 0.083 l 0.042,0.011 h 0.083 l 0.042,0.01 h 0.083 l 0.042,0.011 h 0.125 l 0.042,0.01 h 0.083 l 0.042,0.011 h 0.083 l 0.042,0.01 h 0.125 l 0.041,0.011 h 0.125 l 0.042,0.01 h 0.125 l 0.042,0.01 h 0.125 m -8.25,-1.072998 0.041,0.011 0.042,0.01 0.042,0.011 h 0.041 l 0.042,0.01 0.042,0.011 h 0.041 l 0.042,0.01 0.042,0.01 0.041,0.011 0.042,0.01 0.042,0.01 h 0.041 l 0.042,0.011 0.042,0.01 h 0.041 l 0.042,0.011 0.042,0.01 0.041,0.011 0.042,0.01 h 0.042 l 0.041,0.011 0.042,0.01 h 0.042 l 0.041,0.01 0.042,0.011 0.042,0.01 0.041,0.01 h 0.042 l 0.042,0.011 h 0.041 l 0.084,0.021 0.041,0.01 0.042,0.011 h 0.042 l 0.041,0.01 h 0.042 l 0.042,0.011 0.041,0.01 0.042,0.01 h 0.042 l 0.041,0.011 0.042,0.01 h 0.042 l 0.041,0.01 0.042,0.011 h 0.042 l 0.041,0.01 0.042,0.011 h 0.042 l 0.041,0.01 h 0.042 l 0.042,0.011 0.041,0.01 0.042,0.011 h 0.042 l 0.041,0.01 0.042,0.01 h 0.042 l 0.041,0.011 h 0.042 l 0.042,0.01 0.041,0.01 h 0.042 l 0.042,0.011 0.041,0.01 h 0.042 l 0.042,0.011 h 0.041 l 0.042,0.01 0.042,0.011 h 0.041 l 0.042,0.01 h 0.042 l 0.041,0.011 h 0.042 l 0.042,0.01 0.041,0.01 h 0.042 l 0.042,0.011 h 0.041 l 0.042,0.01 h 0.042 l 0.041,0.01 0.042,0.011 h 0.042 l 0.041,0.01 h 0.042 l 0.042,0.011 0.041,0.01 h 0.084 l 0.041,0.011 0.042,0.01 h 0.042 l 0.041,0.011 h 0.042 l 0.042,0.01 m -8.209,-1.646 0.042,0.011 0.042,0.01 0.041,0.01 v 0.011 l 0.042,0.01 0.042,0.01 0.041,0.011 0.042,0.01 0.042,0.011 0.041,0.01 0.042,0.011 0.042,0.01 0.041,0.011 0.042,0.01 0.042,0.01 0.041,0.011 0.042,0.01 0.042,0.01 0.041,0.011 0.042,0.01 0.042,0.011 0.041,0.01 0.042,0.011 0.042,0.01 0.041,0.011 0.042,0.01 0.042,0.01 0.041,0.011 0.042,0.01 0.042,0.01 0.041,0.011 0.042,0.01 0.042,0.011 0.041,0.01 0.042,0.011 0.042,0.01 0.041,0.011 0.042,0.01 0.042,0.01 0.041,0.011 0.042,0.01 0.042,0.01 0.041,0.011 0.042,0.01 0.042,0.011 0.041,0.01 0.042,0.011 0.042,0.01 0.041,0.011 0.042,0.01 h 0.042 l 0.041,0.01 0.042,0.011 0.042,0.01 0.041,0.01 0.042,0.011 0.042,0.01 0.041,0.011 0.042,0.01 0.042,0.011 0.041,0.01 0.042,0.011 0.042,0.01 h 0.041 l 0.042,0.01 0.042,0.011 0.041,0.01 0.042,0.01 0.042,0.011 0.041,0.01 0.042,0.011 0.042,0.01 h 0.041 l 0.042,0.011 0.042,0.01 0.041,0.011 0.042,0.01 0.042,0.01 0.041,0.011 h 0.042 l 0.042,0.01 0.041,0.01 0.042,0.011 0.042,0.01 0.041,0.011 h 0.042 l 0.042,0.01 0.041,0.011 0.042,0.01 0.042,0.011 h 0.041 l 0.042,0.01 0.042,0.01 0.041,0.011 0.084,0.02 0.041,0.011 h 0.042 l 0.042,0.01 m -7.584,-1.988998 v 0.01 l 0.042,0.011 0.042,0.01 0.041,0.011 0.042,0.01 0.042,0.01 v 0.011 l 0.041,0.01 0.042,0.01 0.042,0.011 v 0.01 l 0.041,0.011 0.042,0.01 0.042,0.011 0.041,0.01 v 0.011 l 0.042,0.01 0.042,0.01 0.041,0.011 v 0.01 l 0.042,0.01 0.042,0.011 0.041,0.01 0.042,0.011 0.042,0.01 0.041,0.011 v 0.01 l 0.042,0.011 0.042,0.01 0.041,0.01 v 0.011 l 0.042,0.01 0.042,0.01 0.041,0.011 0.042,0.01 0.042,0.011 v 0.01 l 0.041,0.011 0.042,0.01 0.042,0.011 0.041,0.01 v 0.01 l 0.042,0.011 0.042,0.01 0.041,0.01 0.042,0.011 0.042,0.01 0.041,0.011 v 0.01 l 0.042,0.011 0.042,0.01 0.041,0.011 0.084,0.02 0.041,0.011 v 0.01 l 0.042,0.01 0.042,0.011 0.041,0.01 0.042,0.011 0.042,0.01 0.041,0.011 0.042,0.01 v 0.011 l 0.042,0.01 0.041,0.01 0.042,0.011 0.042,0.01 v 0.01 l 0.041,0.011 0.042,0.01 0.042,0.011 0.041,0.01 0.042,0.011 0.042,0.01 0.041,0.011 0.042,0.01 v 0.01 l 0.042,0.011 0.041,0.01 0.042,0.01 0.042,0.011 0.041,0.01 0.042,0.011 0.042,0.01 0.041,0.011 0.042,0.01 0.042,0.011 0.041,0.01 0.042,0.01 0.042,0.011 v 0.01 l 0.041,0.01 0.042,0.011 0.042,0.01 0.041,0.011 0.042,0.01 0.042,0.011 0.041,0.01 m -6.5,-2.063 v 0.011 l 0.042,0.01 0.042,0.011 v 0.01 l 0.041,0.011 v 0.01 l 0.042,0.011 0.042,0.01 0.041,0.01 0.042,0.011 v 0.01 l 0.042,0.01 0.041,0.011 v 0.01 l 0.042,0.011 v 0.01 l 0.042,0.011 0.041,0.01 v 0.011 l 0.042,0.01 0.042,0.01 0.041,0.011 0.042,0.01 v 0.01 l 0.042,0.011 0.041,0.01 v 0.011 l 0.042,0.01 0.042,0.011 0.041,0.01 v 0.011 l 0.042,0.01 0.042,0.01 v 0.011 l 0.041,0.01 0.042,0.01 v 0.011 l 0.042,0.01 0.041,0.011 v 0.01 l 0.042,0.011 0.042,0.01 0.041,0.011 0.042,0.01 v 0.01 l 0.042,0.011 0.041,0.01 v 0.01 l 0.042,0.011 0.042,0.01 v 0.011 l 0.041,0.01 0.042,0.011 0.042,0.01 0.041,0.011 v 0.01 l 0.042,0.01 0.042,0.011 v 0.01 l 0.041,0.01 0.042,0.011 v 0.01 l 0.042,0.011 0.041,0.01 0.042,0.011 0.042,0.01 v 0.011 l 0.041,0.01 0.042,0.01 v 0.011 l 0.042,0.01 0.041,0.01 0.042,0.011 0.042,0.01 v 0.011 l 0.041,0.01 0.042,0.011 0.042,0.01 v 0.011 l 0.041,0.01 0.042,0.01 v 0.011 l 0.042,0.01 0.041,0.01 0.042,0.011 0.042,0.01 v 0.011 l 0.041,0.01 0.042,0.011 0.042,0.01 v 0.011 l 0.041,0.01 0.042,0.01 0.042,0.011 0.041,0.01 v 0.01 l 0.042,0.011 0.042,0.01 0.041,0.011 m -5.708,-2.063 0.042,0.011 v 0.01 l 0.041,0.01 0.042,0.011 v 0.01 l 0.042,0.011 v 0.01 l 0.041,0.011 v 0.01 l 0.042,0.011 0.042,0.01 v 0.01 l 0.041,0.011 0.042,0.01 v 0.01 l 0.042,0.011 0.041,0.01 v 0.011 l 0.042,0.01 v 0.011 l 0.042,0.01 0.041,0.011 v 0.01 l 0.042,0.01 v 0.011 l 0.042,0.01 0.041,0.01 0.042,0.011 v 0.01 l 0.042,0.011 0.041,0.01 v 0.011 l 0.042,0.01 v 0.011 l 0.042,0.01 0.041,0.01 v 0.011 l 0.042,0.01 0.042,0.01 v 0.011 l 0.041,0.01 0.042,0.011 v 0.01 l 0.042,0.011 v 0.01 l 0.041,0.011 0.042,0.01 v 0.01 l 0.042,0.011 0.041,0.01 0.042,0.01 v 0.011 l 0.042,0.01 v 0.011 l 0.041,0.01 0.042,0.011 v 0.01 l 0.042,0.011 v 0.01 l 0.041,0.01 0.043,0.011 0.041,0.01 v 0.01 l 0.041,0.011 0.043,0.01 v 0.011 l 0.041,0.01 0.041,0.011 v 0.01 l 0.043,0.011 v 0.01 l 0.041,0.01 0.041,0.011 0.043,0.01 v 0.01 l 0.041,0.011 0.041,0.01 v 0.011 l 0.043,0.01 0.041,0.011 v 0.01 l 0.041,0.011 v 0.01 l 0.043,0.01 0.041,0.011 0.041,0.01 v 0.01 l 0.043,0.011 0.041,0.01 v 0.011 l 0.041,0.01 0.043,0.011 v 0.01 l 0.041,0.011 0.041,0.01 0.043,0.01 v 0.011 l 0.041,0.01 0.041,0.01 m -5.166,-2.062 v 0.011 l 0.041,0.01 v 0.01 l 0.042,0.011 v 0.01 l 0.042,0.01 0.041,0.011 v 0.01 l 0.042,0.011 0.042,0.01 v 0.011 l 0.041,0.01 v 0.011 l 0.042,0.01 v 0.01 l 0.042,0.011 0.041,0.01 v 0.01 l 0.042,0.011 v 0.01 l 0.042,0.011 v 0.01 l 0.041,0.011 0.042,0.01 v 0.011 l 0.042,0.01 v 0.01 l 0.041,0.011 0.042,0.01 v 0.01 l 0.042,0.011 v 0.01 l 0.041,0.011 v 0.01 l 0.042,0.011 v 0.01 l 0.042,0.011 0.041,0.01 0.042,0.01 v 0.011 l 0.042,0.01 v 0.01 l 0.041,0.011 v 0.01 l 0.042,0.011 0.042,0.01 v 0.011 l 0.041,0.01 0.042,0.011 v 0.01 l 0.042,0.01 v 0.011 l 0.041,0.01 v 0.01 l 0.042,0.011 0.042,0.01 v 0.011 l 0.041,0.01 v 0.011 l 0.042,0.01 v 0.011 l 0.042,0.01 0.041,0.01 0.042,0.011 v 0.01 l 0.042,0.01 v 0.011 l 0.041,0.01 v 0.011 l 0.042,0.01 0.042,0.011 v 0.01 l 0.041,0.011 v 0.01 l 0.043,0.01 0.041,0.011 0.041,0.01 v 0.01 l 0.043,0.011 v 0.01 l 0.041,0.011 v 0.01 l 0.041,0.011 0.043,0.01 v 0.011 l 0.041,0.01 v 0.01 l 0.041,0.011 0.043,0.01 v 0.01 l 0.041,0.011 0.041,0.01 v 0.011 l 0.043,0.01 v 0.011 l 0.041,0.01 0.041,0.011 v 0.01 l 0.043,0.01 m -4.751,-2.062 v 0.01 l 0.042,0.011 v 0.01 l 0.041,0.011 v 0.01 l 0.042,0.01 v 0.011 l 0.042,0.01 v 0.01 l 0.041,0.011 v 0.01 l 0.042,0.011 0.042,0.01 v 0.011 l 0.041,0.01 v 0.011 l 0.042,0.01 v 0.01 l 0.042,0.011 v 0.01 l 0.041,0.01 v 0.011 l 0.042,0.01 v 0.011 l 0.042,0.01 v 0.011 l 0.041,0.01 0.042,0.011 v 0.01 l 0.042,0.01 v 0.011 l 0.041,0.01 v 0.01 l 0.042,0.011 v 0.01 l 0.042,0.011 0.041,0.01 v 0.011 l 0.042,0.01 0.042,0.011 v 0.01 l 0.041,0.01 v 0.011 l 0.042,0.01 v 0.01 l 0.042,0.011 v 0.01 l 0.041,0.011 v 0.01 l 0.042,0.011 v 0.01 l 0.042,0.011 v 0.01 l 0.041,0.01 0.042,0.011 v 0.01 l 0.042,0.01 v 0.011 l 0.041,0.01 0.042,0.011 v 0.01 l 0.042,0.011 v 0.01 l 0.041,0.011 v 0.01 l 0.042,0.01 v 0.011 l 0.042,0.01 0.041,0.01 v 0.011 l 0.042,0.01 v 0.011 l 0.042,0.01 v 0.011 l 0.041,0.01 v 0.011 l 0.042,0.01 0.042,0.01 v 0.011 l 0.041,0.01 v 0.01 l 0.043,0.011 0.041,0.01 v 0.011 l 0.041,0.01 v 0.011 l 0.043,0.01 v 0.011 l 0.041,0.01 v 0.01 l 0.041,0.011 0.043,0.01 v 0.01 l 0.041,0.011 0.041,0.01 v 0.011 l 0.043,0.01 v 0.011 l 0.041,0.01 m -4.542,-2.083 0.042,0.01 v 0.01 l 0.041,0.011 v 0.01 l 0.042,0.011 v 0.01 l 0.042,0.011 v 0.01 l 0.041,0.011 v 0.01 l 0.042,0.01 0.042,0.011 v 0.01 l 0.041,0.01 v 0.021 l 0.042,0.011 v 0.01 l 0.042,0.011 v 0.01 l 0.041,0.011 v 0.01 l 0.042,0.01 v 0.011 l 0.042,0.01 0.041,0.01 v 0.011 l 0.042,0.01 v 0.011 l 0.042,0.01 v 0.011 l 0.041,0.01 v 0.011 l 0.042,0.01 v 0.01 l 0.042,0.011 v 0.01 l 0.041,0.01 v 0.011 l 0.042,0.01 0.042,0.011 v 0.01 l 0.041,0.011 v 0.01 l 0.042,0.011 v 0.01 l 0.042,0.01 v 0.011 l 0.041,0.01 v 0.01 l 0.042,0.011 v 0.01 l 0.042,0.011 v 0.01 l 0.041,0.011 0.042,0.01 v 0.011 l 0.042,0.01 v 0.01 l 0.041,0.011 v 0.01 l 0.042,0.01 v 0.011 l 0.042,0.01 v 0.011 l 0.041,0.021 v 0.01 l 0.042,0.011 v 0.01 l 0.042,0.01 0.041,0.011 v 0.01 l 0.042,0.01 v 0.011 l 0.042,0.01 v 0.011 l 0.041,0.01 v 0.011 l 0.042,0.01 v 0.011 l 0.042,0.01 v 0.01 l 0.041,0.011 0.042,0.01 v 0.01 l 0.042,0.011 v 0.01 l 0.041,0.011 0.042,0.01 v 0.011 l 0.042,0.01 v 0.011 l 0.041,0.01 v 0.01 l 0.043,0.011 v 0.01 l 0.041,0.01 0.041,0.011 v 0.01 l 0.043,0.011 m -4.459,-2.157002 0.041,0.021 v 0.011 l 0.042,0.01 v 0.011 l 0.042,0.01 v 0.011 l 0.041,0.01 v 0.01 l 0.042,0.011 0.042,0.01 v 0.01 l 0.041,0.021 v 0.011 l 0.042,0.01 v 0.011 l 0.042,0.01 v 0.011 l 0.041,0.01 v 0.01 l 0.042,0.011 v 0.01 l 0.042,0.01 0.041,0.011 v 0.021 l 0.042,0.01 v 0.011 l 0.042,0.01 v 0.011 l 0.041,0.01 v 0.01 l 0.042,0.011 v 0.01 l 0.042,0.01 v 0.011 l 0.041,0.01 v 0.011 l 0.042,0.01 0.042,0.021 v 0.011 l 0.041,0.01 v 0.01 l 0.042,0.011 v 0.01 l 0.042,0.01 v 0.011 l 0.041,0.01 v 0.011 l 0.042,0.01 v 0.011 l 0.042,0.01 v 0.011 l 0.041,0.02 0.042,0.011 v 0.01 l 0.042,0.01 v 0.011 l 0.041,0.01 v 0.011 l 0.042,0.01 v 0.011 l 0.042,0.01 v 0.011 l 0.041,0.01 v 0.01 l 0.042,0.011 v 0.01 l 0.042,0.01 0.041,0.011 v 0.021 l 0.042,0.01 v 0.011 l 0.042,0.01 v 0.011 l 0.041,0.01 v 0.01 l 0.042,0.011 v 0.01 l 0.042,0.01 v 0.011 l 0.041,0.01 0.042,0.011 v 0.01 l 0.042,0.011 v 0.01 l 0.041,0.011 v 0.01 l 0.042,0.01 v 0.021 l 0.042,0.01 v 0.011 l 0.041,0.01 v 0.011 l 0.043,0.01 v 0.011 l 0.041,0.01 0.041,0.011 v 0.01 l 0.043,0.01 v 0.011 m -4.418,-2.25 0.042,0.01 v 0.021 l 0.042,0.01 v 0.011 l 0.041,0.01 0.042,0.011 v 0.01 l 0.042,0.011 v 0.02 l 0.041,0.011 v 0.01 l 0.042,0.01 v 0.011 l 0.042,0.01 v 0.011 l 0.041,0.01 v 0.021 l 0.042,0.011 v 0.01 l 0.042,0.01 0.041,0.011 v 0.01 l 0.042,0.01 v 0.011 l 0.042,0.021 v 0.01 l 0.041,0.011 v 0.01 l 0.042,0.011 v 0.01 l 0.042,0.01 v 0.011 l 0.041,0.02 v 0.011 l 0.042,0.01 0.042,0.011 v 0.01 l 0.041,0.011 v 0.01 l 0.042,0.011 v 0.02 l 0.042,0.011 v 0.01 l 0.041,0.01 v 0.011 l 0.042,0.01 v 0.011 l 0.042,0.01 v 0.011 l 0.041,0.021 0.042,0.01 v 0.01 l 0.042,0.011 v 0.01 l 0.041,0.01 v 0.011 l 0.042,0.01 v 0.011 l 0.042,0.021 v 0.01 l 0.041,0.011 v 0.01 l 0.042,0.01 0.042,0.011 v 0.01 l 0.041,0.01 v 0.011 l 0.042,0.01 v 0.021 l 0.042,0.011 v 0.01 l 0.041,0.011 v 0.01 l 0.042,0.01 v 0.011 l 0.042,0.01 v 0.01 l 0.041,0.021 0.042,0.011 v 0.01 l 0.042,0.011 v 0.01 l 0.041,0.011 v 0.01 l 0.042,0.01 v 0.011 l 0.042,0.01 v 0.01 l 0.041,0.021 v 0.011 l 0.043,0.01 v 0.011 l 0.041,0.01 0.041,0.011 v 0.01 l 0.043,0.01 v 0.011 l 0.041,0.01 v 0.01 m -4.417,-2.333 0.042,0.011 v 0.01 l 0.041,0.011 0.042,0.02 v 0.011 l 0.042,0.01 v 0.01 l 0.041,0.011 v 0.021 l 0.042,0.01 v 0.011 l 0.042,0.01 v 0.011 l 0.041,0.01 v 0.021 l 0.042,0.01 v 0.01 l 0.042,0.011 0.041,0.01 v 0.011 l 0.042,0.021 v 0.01 l 0.042,0.011 v 0.01 l 0.041,0.01 v 0.011 l 0.042,0.02 v 0.011 l 0.042,0.01 v 0.011 l 0.041,0.01 v 0.011 l 0.042,0.021 0.042,0.01 v 0.01 l 0.041,0.011 v 0.01 l 0.042,0.01 v 0.011 l 0.042,0.021 v 0.01 l 0.041,0.011 v 0.01 l 0.042,0.011 v 0.01 l 0.042,0.021 0.041,0.01 v 0.01 l 0.042,0.011 v 0.01 l 0.042,0.011 v 0.021 l 0.041,0.01 v 0.011 l 0.042,0.01 v 0.01 l 0.042,0.011 v 0.01 l 0.041,0.021 v 0.01 l 0.042,0.011 0.042,0.01 v 0.011 l 0.041,0.01 v 0.021 l 0.042,0.01 v 0.011 l 0.042,0.01 v 0.01 l 0.041,0.011 v 0.01 l 0.042,0.021 v 0.011 l 0.042,0.01 v 0.011 l 0.041,0.01 0.042,0.01 v 0.011 l 0.042,0.02 v 0.011 l 0.041,0.01 v 0.011 l 0.042,0.01 v 0.011 l 0.042,0.01 v 0.021 l 0.041,0.01 v 0.011 l 0.043,0.01 v 0.01 l 0.041,0.011 0.041,0.01 v 0.021 l 0.043,0.011 v 0.01 l 0.041,0.011 v 0.01 l 0.041,0.01 v 0.011 m -4.416,-2.417 0.041,0.011 0.042,0.01 v 0.01 l 0.042,0.021 v 0.01 l 0.041,0.011 v 0.01 l 0.042,0.011 v 0.021 l 0.042,0.01 v 0.011 l 0.041,0.01 v 0.01 l 0.042,0.021 v 0.01 l 0.042,0.011 0.041,0.01 v 0.021 l 0.042,0.011 v 0.01 l 0.042,0.011 v 0.01 l 0.041,0.021 v 0.01 l 0.042,0.01 v 0.011 l 0.042,0.01 v 0.021 l 0.041,0.011 v 0.01 l 0.042,0.011 0.042,0.01 v 0.021 l 0.041,0.01 v 0.01 l 0.042,0.011 v 0.01 l 0.042,0.021 v 0.011 l 0.041,0.01 v 0.011 l 0.042,0.01 v 0.021 l 0.042,0.01 0.041,0.01 v 0.011 l 0.042,0.01 v 0.021 l 0.042,0.011 v 0.01 l 0.041,0.011 v 0.01 l 0.042,0.01 v 0.021 l 0.042,0.01 v 0.011 l 0.041,0.01 v 0.011 l 0.042,0.021 0.042,0.01 v 0.011 l 0.041,0.01 v 0.01 l 0.042,0.021 v 0.01 l 0.042,0.011 v 0.01 l 0.041,0.011 v 0.021 l 0.042,0.01 v 0.011 l 0.042,0.01 v 0.01 l 0.041,0.011 0.042,0.02 v 0.011 l 0.042,0.01 v 0.011 l 0.041,0.01 v 0.021 l 0.042,0.011 v 0.01 l 0.042,0.01 v 0.011 l 0.041,0.01 v 0.021 l 0.042,0.01 0.042,0.011 v 0.01 l 0.041,0.011 v 0.021 l 0.042,0.01 v 0.01 l 0.042,0.011 v 0.01 l 0.041,0.01 v 0.021 l 0.042,0.011 v 0.01 m -4.375,-2.5 v 0.011 l 0.042,0.021 v 0.01 l 0.041,0.01 v 0.011 l 0.042,0.02 v 0.011 l 0.042,0.01 v 0.011 l 0.041,0.021 v 0.01 l 0.042,0.011 v 0.01 l 0.042,0.021 0.041,0.01 v 0.01 l 0.042,0.011 v 0.021 l 0.042,0.01 v 0.011 l 0.041,0.01 v 0.021 l 0.042,0.01 v 0.011 l 0.042,0.01 v 0.01 l 0.041,0.021 0.042,0.011 v 0.01 l 0.042,0.011 v 0.021 l 0.041,0.01 v 0.01 l 0.042,0.011 v 0.02 l 0.042,0.011 v 0.01 l 0.041,0.011 v 0.01 l 0.042,0.021 v 0.011 l 0.042,0.01 0.041,0.01 v 0.021 l 0.042,0.01 v 0.011 l 0.042,0.01 v 0.021 l 0.041,0.011 v 0.01 l 0.042,0.011 v 0.01 l 0.042,0.021 v 0.01 l 0.041,0.01 v 0.011 l 0.042,0.021 0.042,0.01 v 0.011 l 0.041,0.01 v 0.011 l 0.042,0.02 v 0.011 l 0.042,0.01 v 0.01 l 0.041,0.021 v 0.011 l 0.042,0.01 v 0.011 l 0.042,0.01 v 0.021 l 0.041,0.01 0.042,0.011 v 0.01 l 0.042,0.021 v 0.01 l 0.041,0.011 v 0.01 l 0.042,0.011 v 0.021 l 0.042,0.01 v 0.01 l 0.041,0.011 v 0.02 l 0.042,0.011 0.042,0.01 v 0.011 l 0.041,0.01 v 0.021 l 0.042,0.011 v 0.01 l 0.042,0.01 v 0.011 l 0.041,0.02 v 0.011 l 0.042,0.01 v 0.011 l 0.042,0.021 v 0.01 m -4.375,-2.563 v 0.011 l 0.041,0.01 v 0.021 l 0.042,0.011 v 0.01 l 0.042,0.011 v 0.02 l 0.041,0.011 v 0.01 l 0.042,0.021 0.042,0.01 v 0.011 l 0.041,0.01 v 0.021 l 0.042,0.011 v 0.01 l 0.042,0.01 v 0.021 l 0.041,0.01 v 0.011 l 0.042,0.01 v 0.021 l 0.042,0.011 v 0.01 l 0.041,0.021 0.042,0.01 v 0.011 l 0.042,0.01 v 0.021 l 0.041,0.01 v 0.011 l 0.042,0.01 v 0.021 l 0.042,0.011 v 0.01 l 0.041,0.01 v 0.021 l 0.042,0.01 v 0.011 l 0.042,0.01 0.041,0.021 v 0.011 l 0.042,0.01 v 0.011 l 0.042,0.02 v 0.011 l 0.041,0.01 v 0.01 l 0.042,0.021 v 0.011 l 0.042,0.01 v 0.021 l 0.041,0.011 v 0.01 l 0.042,0.01 0.042,0.021 v 0.01 l 0.041,0.011 v 0.01 l 0.042,0.021 v 0.011 l 0.042,0.01 v 0.011 l 0.041,0.02 v 0.011 l 0.042,0.01 v 0.01 l 0.042,0.021 0.041,0.011 v 0.01 l 0.042,0.011 v 0.021 l 0.042,0.01 v 0.01 l 0.041,0.011 v 0.02 l 0.042,0.011 v 0.01 l 0.042,0.011 v 0.021 l 0.041,0.01 v 0.011 l 0.042,0.01 0.042,0.021 v 0.01 l 0.041,0.01 v 0.011 l 0.042,0.021 v 0.01 l 0.042,0.011 v 0.01 l 0.041,0.021 v 0.01 l 0.042,0.011 v 0.01 l 0.042,0.021 v 0.01 l 0.041,0.011 0.043,0.01 m -4.418,-2.613998 v 0.01 l 0.042,0.021 v 0.01 l 0.042,0.011 v 0.02 l 0.041,0.011 v 0.01 l 0.042,0.011 0.042,0.021 v 0.01 l 0.041,0.011 v 0.02 l 0.042,0.011 v 0.01 l 0.042,0.01 v 0.021 l 0.041,0.011 v 0.01 l 0.042,0.021 v 0.011 l 0.042,0.01 v 0.01 l 0.041,0.021 0.042,0.01 v 0.011 l 0.042,0.021 v 0.01 l 0.041,0.011 v 0.01 l 0.042,0.021 v 0.01 l 0.042,0.011 v 0.02 l 0.041,0.011 v 0.01 l 0.042,0.011 v 0.021 l 0.042,0.01 0.041,0.011 v 0.02 l 0.042,0.011 v 0.01 l 0.042,0.01 v 0.021 l 0.041,0.011 v 0.01 l 0.042,0.021 v 0.011 l 0.042,0.01 v 0.01 l 0.041,0.021 0.042,0.01 v 0.011 l 0.042,0.01 v 0.021 l 0.041,0.011 v 0.01 l 0.042,0.021 v 0.01 l 0.042,0.011 v 0.01 l 0.041,0.021 v 0.01 l 0.042,0.011 v 0.021 l 0.042,0.01 0.041,0.011 v 0.01 l 0.042,0.021 v 0.01 l 0.042,0.01 v 0.011 l 0.041,0.021 v 0.01 l 0.042,0.011 v 0.021 l 0.042,0.01 v 0.01 l 0.041,0.011 v 0.02 l 0.042,0.011 0.042,0.01 v 0.021 l 0.041,0.011 v 0.01 l 0.042,0.011 v 0.02 l 0.042,0.011 v 0.01 l 0.041,0.01 v 0.021 l 0.042,0.011 v 0.01 l 0.042,0.021 v 0.011 l 0.041,0.01 0.043,0.01 v 0.021 l 0.041,0.01 m -4.417,-2.666 v 0.021 l 0.042,0.01 v 0.01 l 0.041,0.021 v 0.011 l 0.042,0.01 0.042,0.021 v 0.011 l 0.041,0.01 v 0.01 l 0.042,0.021 v 0.01 l 0.042,0.011 v 0.021 l 0.041,0.01 v 0.011 l 0.042,0.021 v 0.01 l 0.042,0.01 v 0.021 l 0.041,0.01 0.042,0.011 v 0.01 l 0.042,0.021 v 0.011 l 0.041,0.01 v 0.021 l 0.042,0.01 v 0.011 l 0.042,0.02 v 0.011 l 0.041,0.01 v 0.011 l 0.042,0.021 v 0.01 l 0.042,0.011 0.041,0.02 v 0.011 l 0.042,0.01 v 0.021 l 0.042,0.01 v 0.011 l 0.041,0.01 v 0.021 l 0.042,0.011 v 0.01 l 0.042,0.021 v 0.01 l 0.041,0.01 0.042,0.021 v 0.011 l 0.042,0.01 v 0.011 l 0.041,0.021 v 0.01 l 0.042,0.01 v 0.021 l 0.042,0.01 v 0.011 l 0.041,0.021 v 0.01 l 0.042,0.011 v 0.01 l 0.042,0.021 0.041,0.01 v 0.011 l 0.042,0.02 v 0.011 l 0.042,0.01 v 0.021 l 0.041,0.011 v 0.01 l 0.042,0.011 v 0.02 l 0.042,0.011 v 0.01 l 0.041,0.021 v 0.01 l 0.042,0.011 0.042,0.021 v 0.01 l 0.041,0.011 v 0.01 l 0.042,0.021 v 0.01 l 0.042,0.01 v 0.021 l 0.041,0.011 v 0.01 l 0.042,0.011 v 0.021 l 0.042,0.01 0.041,0.01 v 0.021 l 0.043,0.01 v 0.011 l 0.041,0.01 v 0.021 l 0.041,0.011 m -4.416005,-2.698002 v 0.02 l 0.04101,0.011 v 0.01 l 0.042,0.021 0.042,0.011 v 0.01 l 0.041,0.021 v 0.01 l 0.042,0.011 v 0.02 l 0.042,0.011 v 0.01 l 0.041,0.011 v 0.021 l 0.042,0.01 v 0.011 l 0.042,0.02 v 0.011 l 0.041,0.01 0.042,0.021 v 0.01 l 0.04199,0.011 v 0.021 l 0.04101,0.01 v 0.011 l 0.042,0.02 v 0.011 l 0.042,0.01 v 0.021 l 0.041,0.01 v 0.011 l 0.042,0.01 0.042,0.021 v 0.011 l 0.041,0.01 v 0.021 l 0.042,0.01 v 0.01 l 0.042,0.021 v 0.011 l 0.041,0.01 v 0.021 l 0.042,0.011 v 0.01 l 0.04199,0.021 v 0.01 l 0.04101,0.01 0.042,0.021 v 0.011 l 0.042,0.01 v 0.011 l 0.041,0.021 v 0.01 l 0.042,0.01 v 0.021 l 0.042,0.01 v 0.011 l 0.041,0.021 v 0.01 l 0.042,0.011 v 0.021 l 0.042,0.01 0.041,0.01 v 0.021 l 0.042,0.01 v 0.011 l 0.042,0.01 v 0.021 l 0.041,0.011 v 0.01 l 0.042,0.021 v 0.01 l 0.042,0.011 v 0.02 l 0.041,0.011 v 0.01 l 0.042,0.021 0.042,0.011 v 0.01 l 0.041,0.021 v 0.01 l 0.042,0.011 v 0.01 l 0.042,0.021 v 0.01 l 0.041,0.011 v 0.021 l 0.042,0.01 v 0.011 l 0.042,0.02 0.041,0.011 v 0.01 l 0.043,0.021 v 0.01 l 0.041,0.011 v 0.01 l 0.041,0.021 v 0.011 l 0.043,0.01 M 96.341003,40.826 v 0.021 l 0.042,0.01 0.042,0.011 v 0.021 l 0.041,0.01 v 0.011 l 0.042,0.02 v 0.011 l 0.04199,0.01 v 0.021 l 0.04101,0.01 v 0.011 l 0.042,0.021 v 0.01 l 0.042,0.011 0.041,0.02 v 0.011 l 0.042,0.01 v 0.021 l 0.042,0.01 v 0.011 l 0.041,0.01 v 0.021 l 0.042,0.011 v 0.01 l 0.042,0.021 v 0.01 l 0.041,0.01 v 0.021 l 0.042,0.011 0.04199,0.01 v 0.021 l 0.04101,0.011 v 0.01 l 0.042,0.021 v 0.01 l 0.042,0.01 v 0.021 l 0.041,0.011 v 0.01 l 0.042,0.021 v 0.011 l 0.042,0.01 v 0.021 l 0.041,0.01 0.042,0.01 v 0.021 l 0.042,0.011 v 0.01 l 0.041,0.021 v 0.011 l 0.042,0.01 v 0.021 l 0.04199,0.01 v 0.01 l 0.04101,0.021 v 0.011 l 0.042,0.01 v 0.011 l 0.042,0.021 0.041,0.01 v 0.01 l 0.042,0.021 v 0.01 l 0.042,0.011 v 0.021 l 0.041,0.01 v 0.011 l 0.042,0.021 v 0.01 l 0.042,0.01 v 0.021 l 0.041,0.01 0.042,0.011 v 0.021 l 0.04199,0.01 v 0.011 l 0.04101,0.021 v 0.01 l 0.042,0.01 v 0.021 l 0.042,0.01 v 0.011 l 0.041,0.021 v 0.01 l 0.042,0.011 v 0.01 l 0.042,0.021 0.041,0.01 v 0.011 l 0.043,0.02 v 0.011 l 0.041,0.01 v 0.021 l 0.041,0.011 v 0.01 l 0.043,0.021 v 0.01 l 0.04099,0.011 m -4.416992,-2.73 0.042,0.011 v 0.021 l 0.041,0.01 v 0.011 l 0.042,0.021 v 0.01 l 0.042,0.01 v 0.021 l 0.041,0.01 v 0.011 l 0.042,0.021 v 0.01 l 0.042,0.011 0.041,0.021 v 0.01 l 0.042,0.01 v 0.021 l 0.04199,0.01 v 0.011 l 0.04101,0.021 v 0.01 l 0.042,0.011 v 0.01 l 0.042,0.021 v 0.01 l 0.041,0.011 v 0.02 l 0.042,0.011 0.042,0.01 v 0.021 l 0.041,0.011 v 0.01 l 0.042,0.021 v 0.01 l 0.042,0.011 v 0.02 l 0.041,0.011 v 0.01 l 0.042,0.021 v 0.011 l 0.04199,0.01 v 0.021 l 0.04101,0.01 0.042,0.011 v 0.02 l 0.042,0.011 v 0.01 l 0.041,0.021 v 0.011 l 0.042,0.01 v 0.021 l 0.042,0.01 v 0.011 l 0.041,0.02 v 0.011 l 0.042,0.01 0.042,0.021 v 0.011 l 0.041,0.01 v 0.021 l 0.042,0.01 v 0.011 l 0.04199,0.02 v 0.011 l 0.04101,0.01 v 0.021 l 0.042,0.011 v 0.01 l 0.042,0.021 v 0.01 l 0.041,0.011 0.042,0.02 v 0.011 l 0.042,0.01 v 0.021 l 0.041,0.011 v 0.01 l 0.042,0.011 v 0.02 l 0.042,0.011 v 0.01 l 0.041,0.021 v 0.01 l 0.042,0.011 v 0.021 l 0.04199,0.01 0.04101,0.011 v 0.02 l 0.043,0.011 v 0.01 l 0.041,0.021 v 0.01 l 0.041,0.011 v 0.021 l 0.043,0.01 v 0.011 l 0.041,0.02 v 0.011 l 0.041,0.01 m -4.416,-2.729 0.041,0.01 v 0.011 l 0.042,0.021 v 0.01 l 0.04199,0.011 v 0.02 l 0.04101,0.011 v 0.01 l 0.042,0.021 v 0.01 l 0.042,0.011 0.041,0.021 v 0.01 l 0.042,0.011 v 0.02 l 0.042,0.011 v 0.01 l 0.041,0.021 v 0.01 l 0.042,0.011 v 0.021 l 0.042,0.01 v 0.011 l 0.041,0.02 v 0.011 l 0.042,0.01 0.04199,0.01 v 0.021 l 0.04101,0.011 v 0.01 l 0.042,0.021 v 0.011 l 0.042,0.01 v 0.021 l 0.041,0.01 v 0.01 l 0.042,0.021 v 0.011 l 0.042,0.01 v 0.021 l 0.041,0.011 0.042,0.01 v 0.021 l 0.042,0.01 v 0.01 l 0.041,0.021 v 0.011 l 0.042,0.01 v 0.021 l 0.04199,0.011 v 0.01 l 0.04101,0.021 v 0.01 l 0.042,0.01 0.042,0.021 v 0.011 l 0.041,0.01 v 0.021 l 0.042,0.011 v 0.01 l 0.042,0.021 v 0.01 l 0.041,0.01 v 0.021 l 0.042,0.011 v 0.01 l 0.042,0.021 v 0.011 l 0.041,0.01 0.042,0.01 v 0.021 l 0.04199,0.01 v 0.011 l 0.04101,0.021 v 0.01 l 0.042,0.011 v 0.021 l 0.042,0.01 v 0.01 l 0.041,0.021 v 0.01 l 0.042,0.011 v 0.021 l 0.042,0.01 0.041,0.011 v 0.021 l 0.043,0.01 v 0.01 l 0.041,0.021 v 0.01 l 0.041,0.011 v 0.021 l 0.043,0.01 v 0.011 l 0.04099,0.021 v 0.01 l 0.04101,0.01 v 0.021 l 0.043,0.01 m -4.418,-2.729 0.042,0.011 v 0.021 l 0.042,0.01 v 0.011 l 0.041,0.02 v 0.011 l 0.042,0.01 v 0.021 l 0.042,0.01 0.041,0.011 v 0.021 l 0.042,0.01 v 0.011 l 0.04199,0.02 v 0.011 l 0.04101,0.01 v 0.01 l 0.042,0.021 v 0.011 l 0.042,0.01 v 0.021 l 0.041,0.011 v 0.01 l 0.042,0.021 0.042,0.01 v 0.01 l 0.041,0.021 v 0.011 l 0.042,0.01 v 0.021 l 0.042,0.011 v 0.01 l 0.041,0.021 v 0.01 l 0.042,0.01 v 0.011 l 0.04199,0.021 0.04101,0.01 v 0.011 l 0.042,0.021 v 0.01 l 0.042,0.01 v 0.021 l 0.041,0.01 v 0.011 l 0.042,0.021 v 0.01 l 0.042,0.011 v 0.021 l 0.041,0.01 v 0.01 l 0.042,0.021 0.042,0.01 v 0.011 l 0.041,0.021 v 0.01 l 0.042,0.011 v 0.021 l 0.04199,0.01 v 0.01 l 0.04101,0.011 v 0.02 l 0.042,0.011 v 0.01 l 0.042,0.021 v 0.011 l 0.041,0.01 0.042,0.021 v 0.01 l 0.042,0.011 v 0.02 l 0.041,0.011 v 0.01 l 0.042,0.021 v 0.011 l 0.042,0.01 v 0.021 l 0.041,0.01 v 0.011 l 0.042,0.02 v 0.011 l 0.04199,0.01 0.04101,0.021 v 0.011 l 0.042,0.01 v 0.021 l 0.042,0.01 v 0.011 l 0.041,0.01 v 0.021 l 0.042,0.01 v 0.011 l 0.042,0.021 v 0.01 l 0.041,0.011 0.042,0.02 v 0.011 l 0.042,0.01 v 0.021 m -4.417,-2.708 0.04199,0.01 v 0.011 l 0.04101,0.02 v 0.011 l 0.042,0.01 v 0.01 l 0.042,0.021 0.041,0.011 v 0.01 l 0.042,0.021 v 0.011 l 0.042,0.01 v 0.021 l 0.041,0.01 v 0.01 l 0.042,0.011 v 0.021 l 0.042,0.01 v 0.011 l 0.041,0.021 0.042,0.01 v 0.01 l 0.04199,0.021 v 0.01 l 0.04101,0.011 v 0.01 l 0.042,0.021 v 0.011 l 0.042,0.01 v 0.021 l 0.041,0.01 v 0.011 l 0.042,0.02 v 0.011 l 0.042,0.01 0.041,0.021 v 0.011 l 0.042,0.01 v 0.011 l 0.042,0.02 v 0.011 l 0.041,0.01 v 0.021 l 0.042,0.01 v 0.011 l 0.04199,0.021 v 0.01 l 0.04101,0.011 v 0.02 l 0.042,0.011 0.042,0.01 v 0.01 l 0.041,0.021 v 0.011 l 0.042,0.01 v 0.021 l 0.042,0.011 v 0.01 l 0.041,0.021 v 0.01 l 0.042,0.01 v 0.021 l 0.042,0.011 v 0.01 l 0.041,0.011 0.042,0.021 v 0.01 l 0.04199,0.01 v 0.021 l 0.04101,0.01 v 0.011 l 0.042,0.021 v 0.01 l 0.042,0.011 v 0.021 l 0.041,0.01 v 0.01 l 0.042,0.021 0.042,0.01 v 0.011 l 0.041,0.01 v 0.021 l 0.042,0.011 v 0.01 l 0.042,0.021 v 0.01 l 0.041,0.011 v 0.02 l 0.042,0.011 v 0.01 l 0.04199,0.021 v 0.011 l 0.04101,0.01 0.042,0.021 v 0.01 l 0.042,0.011 v 0.01 l 0.041,0.021 v 0.01 m -4.416,-2.677002 0.041,0.011 v 0.01 l 0.042,0.021 v 0.01 l 0.042,0.011 0.041,0.01 v 0.021 l 0.042,0.011 v 0.01 l 0.04199,0.021 v 0.01 l 0.04101,0.01 v 0.011 l 0.042,0.021 v 0.01 l 0.042,0.011 v 0.021 l 0.041,0.01 0.042,0.01 v 0.011 l 0.042,0.02 v 0.011 l 0.041,0.01 v 0.021 l 0.042,0.011 v 0.01 l 0.042,0.011 v 0.02 l 0.041,0.011 v 0.01 l 0.042,0.021 v 0.01 l 0.04199,0.011 0.04101,0.01 v 0.021 l 0.042,0.011 v 0.01 l 0.042,0.021 v 0.01 l 0.041,0.01 v 0.011 l 0.042,0.021 v 0.01 l 0.042,0.011 v 0.021 l 0.041,0.01 v 0.01 l 0.042,0.021 0.042,0.01 v 0.011 l 0.041,0.01 v 0.021 l 0.042,0.011 v 0.01 l 0.04199,0.021 v 0.01 l 0.04101,0.011 v 0.01 l 0.042,0.021 v 0.01 l 0.042,0.011 v 0.021 l 0.041,0.01 0.042,0.011 v 0.01 l 0.042,0.021 v 0.01 l 0.041,0.01 v 0.021 l 0.042,0.011 v 0.01 l 0.042,0.021 v 0.011 l 0.041,0.01 v 0.01 l 0.042,0.021 0.04199,0.01 v 0.011 l 0.04101,0.021 v 0.01 l 0.042,0.011 v 0.021 l 0.042,0.01 v 0.01 l 0.041,0.011 v 0.02 l 0.042,0.011 v 0.01 l 0.042,0.021 v 0.011 l 0.041,0.01 0.042,0.021 v 0.01 l 0.042,0.011 v 0.01 l 0.041,0.021 v 0.01 l 0.043,0.011 v 0.021 m -4.418,-2.646 0.042,0.01 0.042,0.021 v 0.011 l 0.041,0.01 v 0.01 l 0.042,0.021 v 0.01 l 0.042,0.011 v 0.01 l 0.041,0.021 v 0.011 l 0.042,0.01 v 0.011 l 0.042,0.02 v 0.011 l 0.041,0.01 0.042,0.01 v 0.021 l 0.04199,0.011 v 0.01 l 0.04101,0.011 v 0.021 l 0.042,0.01 v 0.01 l 0.042,0.021 v 0.01 l 0.041,0.011 v 0.01 l 0.042,0.021 v 0.011 l 0.042,0.01 0.041,0.011 v 0.02 l 0.042,0.011 v 0.01 l 0.042,0.01 v 0.021 l 0.041,0.011 v 0.01 l 0.042,0.021 v 0.011 l 0.04199,0.01 v 0.01 l 0.04101,0.021 v 0.01 l 0.042,0.011 0.042,0.01 v 0.021 l 0.041,0.011 v 0.01 l 0.042,0.011 v 0.02 l 0.042,0.011 v 0.01 l 0.041,0.021 v 0.01 l 0.042,0.011 v 0.01 l 0.042,0.021 0.041,0.011 v 0.01 l 0.042,0.01 v 0.021 l 0.04199,0.01 v 0.011 l 0.04101,0.021 v 0.01 l 0.042,0.011 v 0.01 l 0.042,0.021 v 0.01 l 0.041,0.011 v 0.02 l 0.042,0.011 0.042,0.01 v 0.011 l 0.041,0.021 v 0.01 l 0.042,0.011 v 0.01 l 0.042,0.021 v 0.01 l 0.041,0.01 v 0.021 l 0.042,0.011 v 0.01 l 0.04199,0.011 v 0.021 l 0.04101,0.01 0.042,0.01 v 0.021 l 0.042,0.01 v 0.011 l 0.041,0.01 v 0.021 l 0.043,0.011 v 0.01 l 0.041,0.011 v 0.02 m -4.375,-2.593998 v 0.011 l 0.041,0.01 v 0.021 l 0.042,0.011 v 0.01 l 0.04199,0.011 v 0.02 l 0.04101,0.011 v 0.01 l 0.042,0.01 v 0.011 l 0.042,0.021 v 0.01 l 0.041,0.011 0.042,0.01 v 0.021 l 0.042,0.01 v 0.011 l 0.041,0.01 v 0.021 l 0.042,0.01 v 0.011 l 0.042,0.01 v 0.011 l 0.041,0.021 v 0.01 l 0.042,0.01 v 0.011 l 0.04199,0.02 0.04101,0.011 v 0.01 l 0.042,0.011 v 0.021 l 0.042,0.01 v 0.011 l 0.041,0.01 v 0.021 l 0.042,0.01 v 0.01 l 0.042,0.011 v 0.021 l 0.041,0.01 0.042,0.011 v 0.01 l 0.042,0.021 v 0.01 l 0.041,0.011 v 0.01 l 0.042,0.01 v 0.021 l 0.04199,0.011 v 0.01 l 0.04101,0.011 v 0.021 l 0.042,0.01 v 0.01 l 0.042,0.011 0.041,0.02 v 0.011 l 0.042,0.01 v 0.011 l 0.042,0.021 v 0.01 l 0.041,0.011 v 0.01 l 0.042,0.021 v 0.01 l 0.042,0.01 v 0.011 l 0.041,0.021 v 0.01 l 0.042,0.011 0.04199,0.01 v 0.021 l 0.04101,0.01 v 0.011 l 0.042,0.01 v 0.021 l 0.042,0.01 v 0.011 l 0.041,0.01 v 0.021 l 0.042,0.011 v 0.01 l 0.042,0.01 v 0.021 l 0.041,0.01 0.042,0.011 v 0.01 l 0.042,0.021 v 0.011 l 0.041,0.01 v 0.011 l 0.042,0.02 v 0.011 l 0.04199,0.01 v 0.021 l 0.04101,0.01 v 0.011 m -4.375,-2.531998 v 0.011 l 0.042,0.01 v 0.011 l 0.042,0.021 v 0.01 l 0.041,0.011 v 0.01 l 0.042,0.01 v 0.021 l 0.042,0.01 v 0.011 l 0.041,0.01 0.042,0.011 v 0.021 l 0.04199,0.01 v 0.011 l 0.04101,0.01 v 0.01 l 0.042,0.021 v 0.01 l 0.042,0.011 v 0.01 l 0.041,0.011 v 0.021 l 0.042,0.01 0.042,0.011 v 0.01 l 0.041,0.01 v 0.021 l 0.042,0.01 v 0.011 l 0.042,0.01 v 0.021 l 0.041,0.011 v 0.01 l 0.042,0.011 v 0.01 l 0.04199,0.021 v 0.01 l 0.04101,0.01 0.042,0.011 v 0.01 l 0.042,0.021 v 0.011 l 0.041,0.01 v 0.011 l 0.042,0.01 v 0.021 l 0.042,0.01 v 0.01 l 0.041,0.011 v 0.021 l 0.042,0.01 v 0.011 l 0.042,0.01 0.041,0.011 v 0.021 l 0.042,0.01 v 0.01 l 0.04199,0.011 v 0.01 l 0.04101,0.021 v 0.01 l 0.042,0.011 v 0.01 l 0.042,0.021 v 0.011 l 0.041,0.01 v 0.01 l 0.042,0.011 0.042,0.02 v 0.011 l 0.041,0.01 v 0.011 l 0.042,0.021 v 0.01 l 0.042,0.011 v 0.01 l 0.041,0.01 v 0.021 l 0.042,0.01 v 0.011 l 0.04199,0.01 0.04101,0.021 v 0.011 l 0.042,0.01 v 0.011 l 0.042,0.01 v 0.021 l 0.041,0.01 v 0.01 l 0.042,0.011 v 0.021 l 0.042,0.01 v 0.011 l 0.041,0.01 v 0.011 l 0.042,0.02 0.042,0.011 m -4.417,-2.469 v 0.021 l 0.04199,0.01 v 0.011 l 0.04101,0.01 v 0.01 l 0.042,0.011 v 0.02 l 0.042,0.011 v 0.01 l 0.041,0.011 0.042,0.01 v 0.011 l 0.042,0.01 v 0.021 l 0.041,0.01 v 0.011 l 0.042,0.01 v 0.01 l 0.042,0.011 v 0.021 l 0.041,0.01 v 0.011 l 0.042,0.01 0.04199,0.011 v 0.01 l 0.04101,0.021 v 0.01 l 0.042,0.01 v 0.011 l 0.042,0.01 v 0.011 l 0.041,0.021 v 0.01 l 0.042,0.011 v 0.01 l 0.042,0.01 v 0.011 l 0.041,0.02 0.042,0.011 v 0.01 l 0.042,0.011 v 0.01 l 0.041,0.021 v 0.011 l 0.042,0.01 v 0.01 l 0.04199,0.011 v 0.01 l 0.04101,0.021 v 0.01 l 0.042,0.011 v 0.01 l 0.042,0.011 0.041,0.01 v 0.021 l 0.042,0.011 v 0.01 l 0.042,0.01 v 0.011 l 0.041,0.02 v 0.011 l 0.042,0.01 v 0.011 l 0.042,0.01 v 0.011 l 0.041,0.021 v 0.01 l 0.042,0.01 0.04199,0.011 v 0.01 l 0.04101,0.021 v 0.01 l 0.042,0.011 v 0.01 l 0.042,0.011 v 0.01 l 0.041,0.021 v 0.01 l 0.042,0.011 v 0.01 l 0.042,0.01 0.041,0.021 v 0.011 l 0.042,0.01 v 0.011 l 0.042,0.01 v 0.021 l 0.041,0.01 v 0.011 l 0.042,0.01 v 0.01 l 0.04199,0.021 v 0.011 l 0.04101,0.01 v 0.011 l 0.042,0.01 0.042,0.011 v 0.02 l 0.041,0.011 m -4.416,-2.386 v 0.01 l 0.041,0.011 v 0.01 l 0.042,0.011 v 0.01 l 0.042,0.021 0.041,0.011 v 0.01 l 0.042,0.01 v 0.011 l 0.04199,0.01 v 0.01 l 0.04101,0.011 v 0.021 l 0.042,0.01 v 0.011 l 0.042,0.01 v 0.011 l 0.041,0.01 v 0.01 l 0.042,0.011 0.042,0.02 v 0.011 l 0.041,0.01 v 0.011 l 0.042,0.01 v 0.011 l 0.042,0.01 v 0.011 l 0.041,0.02 v 0.011 l 0.042,0.01 v 0.01 l 0.04199,0.011 v 0.01 l 0.04101,0.011 0.042,0.01 v 0.021 l 0.042,0.011 v 0.01 l 0.041,0.01 v 0.011 l 0.042,0.01 v 0.01 l 0.042,0.021 v 0.011 l 0.041,0.01 v 0.011 l 0.042,0.01 v 0.011 l 0.042,0.01 0.041,0.01 v 0.021 l 0.042,0.01 v 0.011 l 0.04199,0.01 v 0.011 l 0.04101,0.01 v 0.011 l 0.042,0.021 v 0.01 l 0.042,0.011 v 0.01 l 0.041,0.01 0.042,0.011 v 0.01 l 0.042,0.021 v 0.01 l 0.041,0.011 v 0.01 l 0.042,0.011 v 0.01 l 0.042,0.011 v 0.02 l 0.041,0.011 v 0.01 l 0.042,0.01 v 0.011 l 0.04199,0.01 0.04101,0.011 v 0.021 l 0.042,0.01 v 0.011 l 0.042,0.01 v 0.01 l 0.041,0.011 v 0.02 l 0.042,0.011 v 0.01 l 0.042,0.011 v 0.01 l 0.041,0.011 v 0.01 l 0.042,0.021 0.042,0.01 v 0.011 l 0.041,0.01 v 0.01 l 0.042,0.011 m -4.417,-2.292 v 0.01 l 0.042,0.011 v 0.01 l 0.042,0.011 0.041,0.01 v 0.011 l 0.042,0.01 v 0.011 l 0.042,0.02 v 0.011 l 0.041,0.01 v 0.01 l 0.042,0.011 v 0.01 l 0.042,0.011 v 0.01 l 0.041,0.011 v 0.01 l 0.042,0.011 0.04199,0.01 v 0.01 l 0.04101,0.011 v 0.02 l 0.042,0.011 v 0.01 l 0.042,0.011 v 0.01 l 0.041,0.011 v 0.01 l 0.042,0.011 v 0.01 l 0.042,0.01 v 0.011 l 0.041,0.01 0.042,0.021 v 0.01 l 0.042,0.011 v 0.01 l 0.041,0.011 v 0.01 l 0.042,0.011 v 0.01 l 0.04199,0.01 v 0.011 l 0.04101,0.01 v 0.021 l 0.042,0.01 0.042,0.011 v 0.01 l 0.041,0.011 v 0.01 l 0.042,0.011 v 0.01 l 0.042,0.01 v 0.011 l 0.041,0.01 v 0.021 l 0.042,0.01 v 0.011 l 0.042,0.01 v 0.011 l 0.041,0.01 0.042,0.011 v 0.01 l 0.04199,0.011 v 0.01 l 0.04101,0.01 v 0.021 l 0.042,0.01 v 0.011 l 0.042,0.01 v 0.011 l 0.041,0.01 v 0.011 l 0.042,0.01 v 0.011 l 0.042,0.02 0.041,0.011 v 0.01 l 0.042,0.01 v 0.011 l 0.042,0.01 v 0.011 l 0.041,0.01 v 0.011 l 0.042,0.01 v 0.021 l 0.04199,0.01 v 0.011 l 0.04101,0.01 v 0.01 l 0.042,0.011 0.042,0.01 v 0.011 l 0.041,0.01 v 0.021 l 0.042,0.011 v 0.01 l 0.042,0.01 m -4.417,-2.198 v 0.011 l 0.042,0.01 0.041,0.011 v 0.01 l 0.042,0.01 v 0.011 l 0.04199,0.01 v 0.01 l 0.04101,0.011 v 0.01 l 0.042,0.011 v 0.01 l 0.042,0.011 v 0.01 l 0.041,0.011 v 0.01 l 0.042,0.01 0.042,0.011 v 0.01 l 0.041,0.01 v 0.011 l 0.042,0.01 v 0.011 l 0.042,0.01 v 0.011 l 0.041,0.01 v 0.011 l 0.042,0.01 v 0.01 l 0.04199,0.011 v 0.01 l 0.04101,0.021 0.042,0.01 v 0.011 l 0.042,0.01 v 0.011 l 0.041,0.01 v 0.011 l 0.042,0.01 v 0.01 l 0.042,0.011 v 0.01 l 0.041,0.01 v 0.011 l 0.042,0.01 0.042,0.011 v 0.01 l 0.041,0.011 v 0.01 l 0.042,0.011 v 0.01 l 0.04199,0.01 v 0.011 l 0.04101,0.01 v 0.01 l 0.042,0.011 v 0.01 l 0.042,0.021 v 0.011 l 0.041,0.01 0.042,0.011 v 0.01 l 0.042,0.01 v 0.011 l 0.041,0.01 v 0.01 l 0.042,0.011 v 0.01 l 0.042,0.011 v 0.01 l 0.041,0.011 v 0.01 l 0.042,0.011 v 0.01 l 0.04199,0.011 0.04101,0.01 v 0.021 l 0.042,0.01 v 0.01 l 0.042,0.011 v 0.01 l 0.041,0.011 v 0.01 l 0.042,0.011 v 0.01 l 0.042,0.011 v 0.01 l 0.041,0.01 0.042,0.011 v 0.01 l 0.042,0.01 v 0.011 l 0.041,0.01 v 0.021 l 0.042,0.011 v 0.01 l 0.04199,0.011 v 0.01 l 0.04101,0.01 m -4.458,-2.115002 v 0.011 l 0.042,0.01 0.041,0.011 v 0.01 l 0.042,0.011 v 0.01 l 0.042,0.011 v 0.01 l 0.041,0.01 0.042,0.011 v 0.01 l 0.042,0.01 v 0.011 l 0.041,0.01 v 0.011 l 0.042,0.01 0.04199,0.011 v 0.01 l 0.04101,0.011 v 0.01 l 0.042,0.01 v 0.011 l 0.042,0.01 v 0.01 l 0.041,0.011 v 0.01 l 0.042,0.011 v 0.01 l 0.042,0.011 0.041,0.01 v 0.011 l 0.042,0.01 v 0.01 l 0.042,0.011 v 0.01 l 0.041,0.01 v 0.011 l 0.042,0.01 v 0.011 l 0.04199,0.01 v 0.011 l 0.04101,0.01 v 0.011 l 0.042,0.01 0.042,0.01 v 0.011 l 0.041,0.01 v 0.01 l 0.042,0.011 v 0.01 l 0.042,0.011 v 0.01 l 0.041,0.011 v 0.01 l 0.042,0.011 v 0.01 l 0.042,0.01 0.041,0.011 0.042,0.01 v 0.01 l 0.04199,0.011 v 0.01 l 0.04101,0.011 v 0.01 l 0.042,0.011 v 0.01 l 0.042,0.011 v 0.01 l 0.041,0.011 v 0.01 l 0.042,0.01 v 0.011 l 0.042,0.01 0.041,0.01 v 0.011 l 0.042,0.01 v 0.011 l 0.042,0.01 v 0.011 l 0.041,0.01 v 0.021 l 0.042,0.01 v 0.011 l 0.04199,0.01 v 0.01 l 0.04101,0.011 0.042,0.01 v 0.011 l 0.042,0.01 v 0.011 l 0.041,0.01 v 0.011 l 0.042,0.01 v 0.01 l 0.042,0.011 v 0.01 l 0.041,0.01 v 0.011 l 0.042,0.01 m -4.625,-2.073002 0.042,0.011 v 0.01 l 0.041,0.01 v 0.011 l 0.042,0.01 v 0.011 l 0.042,0.01 0.041,0.011 0.042,0.01 v 0.011 l 0.04199,0.01 v 0.01 l 0.04101,0.011 v 0.01 l 0.042,0.01 v 0.011 l 0.042,0.01 0.041,0.011 0.042,0.01 v 0.011 l 0.042,0.01 v 0.011 l 0.041,0.01 v 0.01 l 0.042,0.011 v 0.01 l 0.042,0.01 v 0.011 l 0.041,0.01 0.042,0.011 v 0.01 l 0.04199,0.011 0.04101,0.01 v 0.011 l 0.042,0.01 v 0.01 l 0.042,0.011 v 0.01 l 0.041,0.01 0.042,0.011 v 0.01 l 0.042,0.011 v 0.01 l 0.041,0.011 v 0.01 l 0.042,0.011 0.042,0.01 v 0.01 l 0.041,0.011 v 0.01 l 0.042,0.01 v 0.011 l 0.04199,0.01 0.04101,0.011 v 0.01 l 0.042,0.011 v 0.01 l 0.042,0.011 v 0.01 l 0.041,0.01 0.042,0.011 v 0.01 l 0.042,0.01 v 0.011 l 0.041,0.01 v 0.011 l 0.042,0.01 0.042,0.011 v 0.01 l 0.041,0.011 v 0.01 l 0.042,0.011 0.04199,0.01 v 0.01 l 0.04101,0.011 v 0.01 l 0.042,0.01 v 0.011 l 0.042,0.01 v 0.011 l 0.041,0.01 v 0.011 l 0.042,0.01 v 0.011 l 0.042,0.01 0.041,0.01 0.042,0.011 v 0.01 l 0.042,0.01 v 0.011 l 0.041,0.01 v 0.011 l 0.042,0.01 v 0.011 l 0.04199,0.01 v 0.011 l 0.04101,0.01 v 0.01 l 0.042,0.011 m -4.917,-2.063002 v 0.011 l 0.042,0.01 v 0.01 l 0.042,0.011 0.041,0.01 0.042,0.01 v 0.011 l 0.042,0.01 v 0.011 l 0.041,0.01 0.042,0.011 v 0.01 l 0.042,0.011 v 0.01 l 0.041,0.01 0.042,0.011 0.042,0.01 v 0.01 l 0.041,0.011 0.042,0.01 v 0.011 l 0.042,0.01 v 0.011 l 0.041,0.01 0.042,0.011 v 0.01 l 0.042,0.01 v 0.011 l 0.041,0.01 0.042,0.01 0.042,0.011 v 0.01 l 0.041,0.011 v 0.01 l 0.042,0.011 0.042,0.01 v 0.011 l 0.041,0.01 v 0.01 l 0.042,0.011 v 0.01 l 0.042,0.01 0.041,0.011 0.042,0.01 v 0.011 l 0.042,0.01 v 0.011 l 0.041,0.01 0.042,0.011 v 0.01 l 0.04199,0.01 v 0.011 l 0.04101,0.01 0.042,0.01 0.042,0.011 v 0.01 l 0.041,0.011 v 0.01 l 0.042,0.011 v 0.01 l 0.042,0.011 0.041,0.01 v 0.01 l 0.042,0.011 v 0.01 l 0.042,0.011 0.041,0.01 0.042,0.01 v 0.011 l 0.04199,0.01 v 0.011 l 0.04101,0.01 v 0.011 l 0.042,0.01 0.042,0.011 v 0.01 l 0.041,0.01 v 0.011 l 0.042,0.01 0.042,0.01 v 0.011 l 0.041,0.01 0.042,0.011 v 0.01 l 0.042,0.011 v 0.01 l 0.041,0.011 v 0.01 l 0.042,0.01 0.04199,0.011 v 0.01 l 0.04101,0.01 0.042,0.011 v 0.01 l 0.042,0.011 v 0.01 l 0.041,0.011 v 0.01 l 0.042,0.011 m -5.375,-2.063 v 0.01 l 0.042,0.011 0.041,0.01 0.042,0.011 0.042,0.01 v 0.01 l 0.041,0.011 0.042,0.01 v 0.01 l 0.042,0.011 0.041,0.01 v 0.011 l 0.042,0.01 0.042,0.011 0.041,0.01 v 0.011 l 0.042,0.01 0.042,0.01 v 0.011 l 0.041,0.01 0.042,0.01 v 0.011 l 0.042,0.01 0.041,0.011 0.042,0.01 0.042,0.011 v 0.01 l 0.041,0.011 0.042,0.01 v 0.01 l 0.042,0.011 v 0.01 l 0.041,0.01 0.042,0.011 0.042,0.01 0.041,0.011 v 0.01 l 0.042,0.011 0.042,0.01 v 0.011 l 0.041,0.01 v 0.01 l 0.042,0.011 0.042,0.01 v 0.01 l 0.041,0.011 0.042,0.01 0.042,0.011 v 0.01 l 0.041,0.011 0.042,0.01 v 0.011 l 0.042,0.01 0.041,0.01 v 0.011 l 0.042,0.01 0.042,0.01 0.041,0.011 v 0.01 l 0.042,0.011 0.042,0.01 v 0.011 l 0.041,0.01 v 0.011 l 0.042,0.01 0.042,0.011 v 0.01 l 0.041,0.01 0.042,0.011 0.042,0.01 v 0.01 l 0.041,0.011 0.042,0.01 v 0.011 l 0.042,0.01 v 0.011 l 0.041,0.01 0.042,0.011 v 0.01 l 0.042,0.01 0.041,0.011 0.042,0.01 v 0.01 l 0.042,0.011 0.041,0.01 v 0.011 l 0.042,0.01 v 0.011 l 0.042,0.01 0.041,0.011 v 0.01 l 0.042,0.01 0.042,0.011 0.041,0.01 v 0.01 l 0.042,0.011 v 0.01 l 0.042,0.011 0.041,0.01 m -6.041,-2.063 0.041,0.011 0.042,0.01 0.042,0.011 v 0.01 l 0.041,0.011 0.042,0.01 0.042,0.011 0.041,0.01 v 0.01 l 0.042,0.011 0.042,0.01 0.041,0.01 0.042,0.011 0.042,0.01 v 0.011 l 0.041,0.01 0.042,0.011 0.042,0.01 v 0.011 l 0.041,0.01 0.042,0.01 0.042,0.011 0.041,0.01 0.042,0.01 0.042,0.011 v 0.01 l 0.041,0.011 0.042,0.01 0.042,0.011 0.041,0.01 0.042,0.011 v 0.01 l 0.042,0.01 0.041,0.011 v 0.01 l 0.042,0.01 0.042,0.011 0.041,0.01 v 0.011 l 0.042,0.01 0.042,0.011 0.041,0.01 0.042,0.011 0.042,0.01 v 0.01 l 0.041,0.011 0.042,0.01 0.042,0.01 0.041,0.011 v 0.01 l 0.042,0.011 0.042,0.01 0.041,0.011 v 0.01 l 0.042,0.011 0.042,0.01 0.041,0.01 v 0.011 l 0.042,0.01 0.042,0.01 0.041,0.011 0.042,0.01 v 0.011 l 0.042,0.01 0.041,0.011 v 0.01 l 0.042,0.011 0.042,0.01 0.041,0.01 0.042,0.011 v 0.01 l 0.042,0.01 0.041,0.011 0.042,0.01 v 0.011 l 0.042,0.01 0.041,0.011 v 0.01 l 0.042,0.011 0.042,0.01 0.041,0.011 0.042,0.01 v 0.01 l 0.042,0.011 0.041,0.01 v 0.01 l 0.042,0.011 0.042,0.01 v 0.011 l 0.041,0.01 0.042,0.011 0.042,0.01 0.041,0.011 v 0.01 l 0.042,0.01 0.042,0.011 v 0.01 l 0.041,0.01 0.042,0.011 m -7.042,-2.052002 0.042,0.01 0.042,0.01 0.041,0.011 0.042,0.01 0.042,0.011 0.041,0.01 0.042,0.011 h 0.042 l 0.041,0.01 0.042,0.011 0.042,0.01 0.041,0.01 0.042,0.011 0.042,0.01 0.041,0.01 0.042,0.011 0.042,0.01 0.041,0.011 0.042,0.01 0.042,0.011 0.041,0.01 0.042,0.011 0.042,0.01 0.041,0.01 0.042,0.011 0.042,0.01 0.041,0.01 0.042,0.011 0.042,0.01 0.041,0.011 0.042,0.01 0.042,0.011 0.041,0.01 0.042,0.011 0.042,0.01 0.041,0.01 v 0.011 l 0.042,0.01 0.042,0.01 0.041,0.011 0.042,0.01 0.042,0.011 0.041,0.01 0.042,0.011 0.042,0.01 0.041,0.011 0.042,0.01 0.042,0.01 0.041,0.011 0.042,0.01 0.042,0.01 0.041,0.011 v 0.01 l 0.042,0.011 0.042,0.01 0.041,0.011 0.042,0.01 0.042,0.011 0.041,0.01 0.042,0.01 0.042,0.011 0.041,0.01 0.042,0.01 v 0.011 l 0.042,0.01 0.041,0.011 0.042,0.01 0.042,0.011 0.041,0.01 0.042,0.011 0.042,0.01 0.041,0.01 0.042,0.011 0.042,0.01 0.041,0.01 v 0.011 l 0.042,0.01 0.042,0.011 0.041,0.01 0.042,0.011 v 0.01 l 0.042,0.011 0.041,0.01 0.042,0.011 0.042,0.01 0.041,0.01 0.042,0.011 0.042,0.01 v 0.01 l 0.041,0.011 0.042,0.01 0.042,0.011 0.041,0.01 0.042,0.011 0.042,0.01 v 0.011 l 0.041,0.01 0.042,0.01 0.042,0.011 m -7.959,-1.865002 0.042,0.01 0.042,0.011 0.041,0.01 h 0.042 l 0.042,0.011 0.041,0.01 h 0.042 l 0.042,0.011 0.041,0.01 h 0.042 l 0.042,0.01 0.041,0.011 0.042,0.01 h 0.042 l 0.041,0.01 0.042,0.011 h 0.042 l 0.041,0.01 0.042,0.011 0.042,0.01 h 0.041 l 0.042,0.011 0.042,0.01 0.041,0.011 h 0.042 l 0.042,0.01 0.041,0.01 0.042,0.011 h 0.042 l 0.041,0.01 0.042,0.01 0.042,0.011 h 0.041 l 0.042,0.01 0.042,0.011 0.041,0.01 h 0.042 l 0.042,0.011 0.041,0.01 0.042,0.011 0.042,0.01 h 0.041 l 0.042,0.01 0.042,0.011 0.041,0.01 h 0.042 l 0.042,0.01 0.041,0.011 0.042,0.01 0.042,0.011 0.041,0.01 h 0.042 l 0.042,0.011 0.041,0.01 0.042,0.011 0.042,0.01 0.041,0.01 0.042,0.011 h 0.042 l 0.041,0.01 0.042,0.01 0.042,0.011 0.041,0.01 0.042,0.011 h 0.042 l 0.041,0.01 0.042,0.011 0.042,0.01 0.041,0.011 0.042,0.01 0.042,0.01 h 0.041 l 0.042,0.011 0.042,0.01 0.041,0.01 0.042,0.011 0.042,0.01 0.041,0.011 0.042,0.01 0.042,0.011 h 0.041 l 0.042,0.01 0.042,0.011 0.041,0.01 0.042,0.01 0.042,0.011 0.041,0.01 0.042,0.01 0.042,0.011 0.041,0.01 h 0.042 l 0.042,0.011 0.041,0.01 0.042,0.011 0.042,0.01 0.041,0.011 0.042,0.01 0.042,0.01 0.041,0.011 m -8.25,-1.386 h 0.084 l 0.041,0.011 h 0.042 l 0.042,0.01 h 0.083 l 0.042,0.01 h 0.041 l 0.042,0.011 h 0.083 l 0.042,0.01 h 0.042 l 0.041,0.011 h 0.042 l 0.042,0.01 h 0.041 l 0.042,0.011 h 0.083 l 0.042,0.01 h 0.042 l 0.041,0.011 h 0.042 l 0.042,0.01 h 0.041 l 0.042,0.01 h 0.042 l 0.041,0.011 h 0.042 l 0.042,0.01 h 0.041 l 0.042,0.01 h 0.042 l 0.041,0.011 h 0.042 l 0.042,0.01 h 0.041 l 0.042,0.011 h 0.042 l 0.041,0.01 h 0.042 l 0.042,0.011 h 0.041 l 0.042,0.01 h 0.042 l 0.041,0.011 h 0.042 l 0.042,0.01 h 0.041 l 0.042,0.01 h 0.042 l 0.041,0.011 0.042,0.01 h 0.042 l 0.041,0.01 h 0.042 l 0.042,0.011 h 0.041 l 0.042,0.01 0.042,0.011 h 0.041 l 0.042,0.01 h 0.042 l 0.041,0.011 h 0.042 l 0.042,0.01 0.041,0.011 h 0.042 l 0.042,0.01 h 0.041 l 0.042,0.01 h 0.042 l 0.041,0.011 0.042,0.01 h 0.042 l 0.041,0.01 0.042,0.011 h 0.042 l 0.041,0.01 h 0.042 l 0.042,0.011 0.041,0.01 h 0.042 l 0.042,0.011 0.041,0.01 h 0.042 l 0.042,0.011 h 0.041 l 0.042,0.01 0.042,0.01 0.041,0.011 h 0.042 l 0.042,0.01 0.041,0.01 h 0.042 l 0.042,0.011 h 0.041 m -8.25,-0.802 h 0.209 l 0.041,0.01 h 0.25 l 0.042,0.011 h 0.25 l 0.042,0.01 h 0.166004 l 0.042,0.01 h 0.208 l 0.042,0.011 h 0.167 l 0.041,0.01 h 0.125 l 0.042,0.011 h 0.166996 l 0.041,0.01 h 0.125 l 0.042,0.011 h 0.125 l 0.042,0.01 h 0.124996 l 0.041,0.011 h 0.125 l 0.042,0.01 h 0.083 l 0.042,0.01 h 0.083 l 0.042,0.011 h 0.125 l 0.042,0.01 h 0.083 l 0.042,0.01 h 0.083 l 0.042,0.011 h 0.083 l 0.042,0.01 h 0.083 l 0.042,0.011 h 0.083 l 0.042,0.01 h 0.083 l 0.042,0.011 h 0.041 l 0.042,0.01 h 0.083 l 0.042,0.011 h 0.083 l 0.042,0.01 h 0.042 l 0.041,0.01 M 39.194,17.065001 h 0.75 l 0.042,0.042 h 0.5 l 0.042,0.042 h 0.165996" /><text
               id="text46"
               style="font-variant:normal;font-weight:normal;font-size:11.95500088px;font-family:CMMI12;-inkscape-font-specification:CMMI12;writing-mode:lr-tb;fill:#231f20;fill-opacity:1;fill-rule:nonzero;stroke:none"
               transform="matrix(1,0,0,-1,0,34.128399)"><tspan
                 id="tspan44"
                 y="0"
                 x="0">y</tspan></text>
<text
               id="text50"
               style="font-variant:normal;font-weight:normal;font-size:11.95500088px;font-family:CMR12;-inkscape-font-specification:CMR12;writing-mode:lr-tb;fill:#231f20;fill-opacity:1;fill-rule:nonzero;stroke:none"
               transform="matrix(1,0,0,-1,6.1365018,34.128399)"><tspan
                 id="tspan48"
                 y="0"
                 x="0">(</tspan></text>
<text
               id="text54"
               style="font-variant:normal;font-weight:normal;font-size:11.95500088px;font-family:CMMI12;-inkscape-font-specification:CMMI12;writing-mode:lr-tb;fill:#231f20;fill-opacity:1;fill-rule:nonzero;stroke:none"
               transform="matrix(1,0,0,-1,10.687771,34.128399)"><tspan
                 id="tspan52"
                 y="0"
                 x="0">x</tspan></text>
<text
               id="text58"
               style="font-variant:normal;font-weight:normal;font-size:11.95500088px;font-family:CMR12;-inkscape-font-specification:CMR12;writing-mode:lr-tb;fill:#231f20;fill-opacity:1;fill-rule:nonzero;stroke:none"
               transform="matrix(1,0,0,-1,17.339533,34.128399)"><tspan
                 id="tspan56"
                 y="0"
                 x="0">)</tspan></text>
<text
               id="text62"
               style="font-variant:normal;font-weight:normal;font-size:11.95500088px;font-family:CMMI12;-inkscape-font-specification:CMMI12;writing-mode:lr-tb;fill:#231f20;fill-opacity:1;fill-rule:nonzero;stroke:none"
               transform="matrix(1,0,0,-1,286.09512,13.834785)"><tspan
                 id="tspan60"
                 y="0"
                 x="0">x</tspan></text>
<text
               id="text66"
               style="font-variant:normal;font-weight:normal;font-size:11.95500088px;font-family:CMR12;-inkscape-font-specification:CMR12;writing-mode:lr-tb;fill:#231f20;fill-opacity:1;fill-rule:nonzero;stroke:none"
               transform="matrix(1,0,0,-1,35.481262,3.3347087)"><tspan
                 id="tspan64"
                 y="0"
                 x="0">0</tspan></text>
<text
               id="text70"
               style="font-variant:normal;font-weight:normal;font-size:11.95500088px;font-family:CMR12;-inkscape-font-specification:CMR12;writing-mode:lr-tb;fill:#231f20;fill-opacity:1;fill-rule:nonzero;stroke:none"
               transform="matrix(1,0,0,-1,28.903622,35.33466)"><tspan
                 id="tspan68"
                 y="0"
                 x="0">1</tspan></text>
<text
               id="text74"
               style="font-variant:normal;font-weight:normal;font-size:11.95500088px;font-family:CMR12;-inkscape-font-specification:CMR12;writing-mode:lr-tb;fill:#231f20;fill-opacity:1;fill-rule:nonzero;stroke:none"
               transform="matrix(1,0,0,-1,28.324999,56.500988)"><tspan
                 id="tspan72"
                 y="0"
                 x="0">2</tspan></text>
<text
               id="text78"
               style="font-variant:normal;font-weight:normal;font-size:11.95500088px;font-family:CMR12;-inkscape-font-specification:CMR12;writing-mode:lr-tb;fill:#231f20;fill-opacity:1;fill-rule:nonzero;stroke:none"
               transform="matrix(1,0,0,-1,83.168564,3.3347101)"><tspan
                 id="tspan76"
                 y="0"
                 x="0 5.8459954">20</tspan></text>
<text
               id="text82"
               style="font-variant:normal;font-weight:normal;font-size:11.95500088px;font-family:CMR12;-inkscape-font-specification:CMR12;writing-mode:lr-tb;fill:#231f20;fill-opacity:1;fill-rule:nonzero;stroke:none"
               transform="matrix(1,0,0,-1,126.44328,3.0011656)"><tspan
                 id="tspan80"
                 y="0"
                 x="0 5.8459954">40</tspan></text>
<text
               id="text86"
               style="font-variant:normal;font-weight:normal;font-size:11.95500088px;font-family:CMR12;-inkscape-font-specification:CMR12;writing-mode:lr-tb;fill:#231f20;fill-opacity:1;fill-rule:nonzero;stroke:none"
               transform="matrix(1,0,0,-1,171.71687,3.3347101)"><tspan
                 id="tspan84"
                 y="0"
                 x="0 5.8459954">60</tspan></text>
<text
               id="text90"
               style="font-variant:normal;font-weight:normal;font-size:11.95500088px;font-family:CMR12;-inkscape-font-specification:CMR12;writing-mode:lr-tb;fill:#231f20;fill-opacity:1;fill-rule:nonzero;stroke:none"
               transform="matrix(1,0,0,-1,216.32336,3.3347101)"><tspan
                 id="tspan88"
                 y="0"
                 x="0 5.8459954">80</tspan></text>
<text
               id="text94"
               style="font-variant:normal;font-weight:normal;font-size:11.95500088px;font-family:CMR12;-inkscape-font-specification:CMR12;writing-mode:lr-tb;fill:#231f20;fill-opacity:1;fill-rule:nonzero;stroke:none"
               transform="matrix(1,0,0,-1,260.26755,3.3347101)"><tspan
                 id="tspan92"
                 y="0"
                 x="0 5.8459954 11.691991">100</tspan></text>
</g></g></g></g></g></svg>