<?xml version="1.0" encoding="UTF-8" standalone="no"?>
<svg
   xmlns:dc="http://purl.org/dc/elements/1.1/"
   xmlns:cc="http://creativecommons.org/ns#"
   xmlns:rdf="http://www.w3.org/1999/02/22-rdf-syntax-ns#"
   xmlns:svg="http://www.w3.org/2000/svg"
   xmlns="http://www.w3.org/2000/svg"
   viewBox="0 0 73.333336 118.66667"
   height="118.66667"
   width="73.333336"
   xml:space="preserve"
   id="svg2"
   version="1.1"><metadata
     id="metadata8"><rdf:RDF><cc:Work
         rdf:about=""><dc:format>image/svg+xml</dc:format><dc:type
           rdf:resource="http://purl.org/dc/dcmitype/StillImage" /></cc:Work></rdf:RDF></metadata><defs
     id="defs6"><clipPath
       id="clipPath24"
       clipPathUnits="userSpaceOnUse"><path
         id="path22"
         d="M 0,0 H 55 V 89 H 0 Z" /></clipPath><clipPath
       id="clipPath44"
       clipPathUnits="userSpaceOnUse"><path
         id="path42"
         d="M 0,0.05999756 H 54.098003 V 88.955002 H 0 Z" /></clipPath></defs><g
     transform="matrix(1.3333333,0,0,-1.3333333,0,118.66667)"
     id="g10"><g
       id="g12" /><g
       id="g14" /><g
       id="g16"><g
         id="g18"><g
           clip-path="url(#clipPath24)"
           id="g20"><g
             id="g26" /><g
             id="g28"><path
               id="path30"
               style="fill:none;stroke:#231f20;stroke-width:1;stroke-linecap:butt;stroke-linejoin:miter;stroke-miterlimit:4;stroke-dasharray:none;stroke-opacity:1"
               d="M 15.721001,79.972 V 49.972004" /><path
               id="path32"
               style="fill:#231f20;fill-opacity:1;fill-rule:nonzero;stroke:none"
               d="M 14.77,83.309006 C 14.395,82.068001 14.049001,81.263 13.65,80.268005 h 3.784 c -0.17,0.355996 -0.743999,1.799996 -1.118999,3.041001 -0.401,1.326996 -0.675002,2.529999 -0.774001,3.309997 -0.098,-0.779998 -0.371,-1.983001 -0.771,-3.309997" /><path
               id="path34"
               style="fill:none;stroke:#231f20;stroke-width:1;stroke-linecap:butt;stroke-linejoin:miter;stroke-miterlimit:4;stroke-dasharray:none;stroke-opacity:1"
               d="M 15.613001,17.869001 V 47.869003" /><path
               id="path36"
               style="fill:#231f20;fill-opacity:1;fill-rule:nonzero;stroke:none"
               d="m 16.565001,14.533001 c 0.375,1.24 0.720001,2.045999 1.118999,3.041 h -3.783999 c 0.169999,-0.357 0.744999,-1.801 1.119999,-3.041 0.4,-1.327001 0.674001,-2.531 0.773001,-3.311001 0.098,0.780001 0.371,1.984 0.772,3.311001" /></g><g
             id="g38"><g
               clip-path="url(#clipPath44)"
               id="g40"><path
                 id="path46"
                 style="fill:none;stroke:#231f20;stroke-width:1;stroke-linecap:butt;stroke-linejoin:miter;stroke-miterlimit:4;stroke-dasharray:none;stroke-opacity:1"
                 d="m 21.684002,45.143002 c 0,-11.115002 -2.575001,-20.125 -5.750001,-20.125 -3.176001,0 -5.750001,9.009998 -5.750001,20.125 0,11.114002 2.574,20.125003 5.750001,20.125003 3.175,0 5.750001,-9.011001 5.750001,-20.125003 z m 19.25,-16.875 c 0,-1.934 -4.645001,-3.501 -10.375,-3.501 -5.731001,0 -10.375002,1.567 -10.375002,3.501 0,1.933 4.644001,3.5 10.375002,3.5 5.729999,0 10.375,-1.567 10.375,-3.5 z m 4,-12.625001 c 0,-6.8350004 -1.344002,-12.3750009 -3,-12.3750009 -1.657002,0 -3,5.5400005 -3,12.3750009 0,6.834 1.342998,12.375001 3,12.375001 1.655998,0 3,-5.541001 3,-12.375001 z m 6.25,-13.7500009 c 0,-0.7600001 -2.238998,-1.37500009 -5,-1.37500009 -2.762001,0 -5,0.61499999 -5,1.37500009 0,0.7590001 2.237999,1.375 5,1.375 2.761002,0 5,-0.6159999 5,-1.375 z M 9.934,63.018002 v -38.251 l 28.000002,-0.249 m -13.25,47.000003 c 0,-4.142006 -3.358002,-7.5 -7.500002,-7.5 -4.143,0 -7.5,3.357994 -7.5,7.5 0,4.141991 3.357,7.5 7.5,7.5 4.142,0 7.500002,-3.358009 7.500002,-7.5 z" /></g></g><g
             id="g48"><path
               id="path50"
               style="fill:#231f20;fill-opacity:1;fill-rule:nonzero;stroke:none"
               d="m 22.434002,73.018005 c 0,-0.414001 -0.448,-0.75 -1,-0.75 -0.553001,0 -1,0.335999 -1,0.75 0,0.414002 0.446999,0.75 1,0.75 0.552,0 1,-0.335998 1,-0.75" /><path
               id="path52"
               style="fill:none;stroke:#231f20;stroke-width:1;stroke-linecap:butt;stroke-linejoin:miter;stroke-miterlimit:4;stroke-dasharray:none;stroke-opacity:1"
               d="m 22.434002,73.018005 c 0,-0.414001 -0.448,-0.75 -1,-0.75 -0.553001,0 -1,0.335999 -1,0.75 0,0.414002 0.446999,0.75 1,0.75 0.552,0 1,-0.335998 1,-0.75 z" /><path
               id="path54"
               style="fill:#231f20;fill-opacity:1;fill-rule:nonzero;stroke:none"
               d="M 9.684,49.518002 H 37.434002" /><path
               id="path56"
               style="fill:none;stroke:#231f20;stroke-width:1;stroke-linecap:butt;stroke-linejoin:miter;stroke-miterlimit:4;stroke-dasharray:none;stroke-opacity:1"
               d="M 9.684,49.518002 H 37.434002" /><path
               id="path58"
               style="fill:#231f20;fill-opacity:1;fill-rule:nonzero;stroke:none"
               d="m 39.205002,50.286003 c -1.240002,0.375 -2.046002,0.719998 -3.041001,1.119 V 47.622002 C 36.521,47.791 37.965,48.366001 39.205002,48.739998 c 1.326999,0.402004 2.529999,0.676006 3.311001,0.774006 -0.781002,0.097 -1.984002,0.371998 -3.311001,0.771999" /><text
               id="text62"
               style="font-variant:normal;font-weight:normal;font-size:11.95500088px;font-family:CMMI12;-inkscape-font-specification:CMMI12;writing-mode:lr-tb;fill:#231f20;fill-opacity:1;fill-rule:nonzero;stroke:none"
               transform="matrix(1,0,0,-1,44.8936,46.4888)"><tspan
                 id="tspan60"
                 y="0"
                 x="0">F</tspan></text>
<path
               id="path64"
               style="fill:#231f20;fill-opacity:1;fill-rule:nonzero;stroke:none"
               d="M 44.894001,45.054001 H 54.098 V 44.576 h -9.203999 z" /><text
               id="text68"
               style="font-variant:normal;font-weight:normal;font-size:11.95500088px;font-family:CMMI12;-inkscape-font-specification:CMMI12;writing-mode:lr-tb;fill:#231f20;fill-opacity:1;fill-rule:nonzero;stroke:none"
               transform="matrix(1,0,0,-1,0,79.9888)"><tspan
                 id="tspan66"
                 y="0"
                 x="0">N</tspan></text>
<path
               id="path70"
               style="fill:#231f20;fill-opacity:1;fill-rule:nonzero;stroke:none"
               d="M 0,78.554001 H 10.621 V 78.076004 H 0 Z" /><text
               id="text74"
               style="font-variant:normal;font-weight:normal;font-size:11.95500088px;font-family:CMMI12;-inkscape-font-specification:CMMI12;writing-mode:lr-tb;fill:#231f20;fill-opacity:1;fill-rule:nonzero;stroke:none"
               transform="matrix(1,0,0,-1,17.523399,2.9887998)"><tspan
                 id="tspan72"
                 y="0"
                 x="0">W</tspan></text>
<path
               id="path76"
               style="fill:#231f20;fill-opacity:1;fill-rule:nonzero;stroke:none"
               d="M 17.524,1.554 H 30.201999 V 1.076 H 17.524 Z" /></g></g></g></g></g></svg>