<?xml version="1.0" encoding="UTF-8" standalone="no"?>
<svg
   xmlns:dc="http://purl.org/dc/elements/1.1/"
   xmlns:cc="http://creativecommons.org/ns#"
   xmlns:rdf="http://www.w3.org/1999/02/22-rdf-syntax-ns#"
   xmlns:svg="http://www.w3.org/2000/svg"
   xmlns="http://www.w3.org/2000/svg"
   viewBox="0 0 78.666664 96"
   height="96"
   width="78.666664"
   xml:space="preserve"
   id="svg2"
   version="1.1"><metadata
     id="metadata8"><rdf:RDF><cc:Work
         rdf:about=""><dc:format>image/svg+xml</dc:format><dc:type
           rdf:resource="http://purl.org/dc/dcmitype/StillImage" /></cc:Work></rdf:RDF></metadata><defs
     id="defs6"><clipPath
       id="clipPath24"
       clipPathUnits="userSpaceOnUse"><path
         id="path22"
         d="M 0,0 H 59 V 72 H 0 Z" /></clipPath><clipPath
       id="clipPath40"
       clipPathUnits="userSpaceOnUse"><path
         id="path38"
         d="M 0,0.05999756 H 58.5 V 71.875 H 0 Z" /></clipPath></defs><g
     transform="matrix(1.3333333,0,0,-1.3333333,0,96)"
     id="g10"><g
       id="g12" /><g
       id="g14" /><g
       id="g16"><g
         id="g18"><g
           clip-path="url(#clipPath24)"
           id="g20"><g
             id="g26" /><g
             id="g28"><path
               id="path30"
               style="fill:none;stroke:#231f20;stroke-width:1;stroke-linecap:butt;stroke-linejoin:miter;stroke-miterlimit:4;stroke-dasharray:none;stroke-opacity:1"
               d="M 41.073002,51.909004 V 25.501001" /><path
               id="path32"
               style="fill:#231f20;fill-opacity:1;fill-rule:nonzero;stroke:none"
               d="M 39.171001,58.582005 C 38.422001,56.102001 37.731003,54.489998 36.934002,52.5 H 44.5 c -0.338997,0.713001 -1.488998,3.602001 -2.237999,6.082005 -0.802002,2.653999 -1.349998,5.060997 -1.545998,6.620998 C 40.521004,63.643002 39.972,61.236004 39.171001,58.582005" /></g><g
             id="g34"><g
               clip-path="url(#clipPath40)"
               id="g36"><path
                 id="path42"
                 style="fill:none;stroke:#231f20;stroke-width:1;stroke-linecap:butt;stroke-linejoin:miter;stroke-miterlimit:4;stroke-dasharray:none;stroke-opacity:1"
                 d="m 55.625004,47.75 c 0,-13.047997 -7.219002,-23.624998 -16.125004,-23.624998 -8.905998,0 -16.124998,10.577001 -16.124998,23.624998 0,13.048004 7.219,23.625 16.124998,23.625 8.906002,0 16.125004,-10.576996 16.125004,-23.625 z M 0.5,25 H 58 V 0.5 H 0.5 Z M 37.860001,18.203001 V 49" /></g></g><g
             id="g44"><path
               id="path46"
               style="fill:#231f20;fill-opacity:1;fill-rule:nonzero;stroke:none"
               d="m 39.763,11.53 c 0.749001,2.481001 1.439003,4.092001 2.237,6.082001 H 34.434002 C 34.772003,16.899 35.923,14.011001 36.672001,11.53 37.474003,8.8760004 38.021,6.4699998 38.218002,4.9090004 c 0.195,1.5609994 0.744,3.967 1.544998,6.6209996" /><text
               id="text50"
               style="font-variant:normal;font-weight:normal;font-size:11.95500088px;font-family:CMMI12;-inkscape-font-specification:CMMI12;writing-mode:lr-tb;fill:#231f20;fill-opacity:1;fill-rule:nonzero;stroke:none"
               transform="matrix(1,0,0,-1,44.459999,50.354099)"><tspan
                 id="tspan48"
                 y="0"
                 x="0">R</tspan></text>
<path
               id="path52"
               style="fill:#231f20;fill-opacity:1;fill-rule:nonzero;stroke:none"
               d="m 44.459999,48.919003 h 9.007999 v -0.478001 h -9.007999 z" /><text
               id="text56"
               style="font-variant:normal;font-weight:normal;font-size:11.95500088px;font-family:CMMI12;-inkscape-font-specification:CMMI12;writing-mode:lr-tb;fill:#231f20;fill-opacity:1;fill-rule:nonzero;stroke:none"
               transform="matrix(1,0,0,-1,20.3701,6.3540998)"><tspan
                 id="tspan54"
                 y="0"
                 x="0">W</tspan></text>
<path
               id="path58"
               style="fill:#231f20;fill-opacity:1;fill-rule:nonzero;stroke:none"
               d="M 20.369999,4.9190001 H 33.048 V 4.4409999 H 20.369999 Z" /></g></g></g></g></g></svg>