<?xml version="1.0" encoding="UTF-8" standalone="no"?>
<svg
   xmlns:dc="http://purl.org/dc/elements/1.1/"
   xmlns:cc="http://creativecommons.org/ns#"
   xmlns:rdf="http://www.w3.org/1999/02/22-rdf-syntax-ns#"
   xmlns:svg="http://www.w3.org/2000/svg"
   xmlns="http://www.w3.org/2000/svg"
   viewBox="0 0 250.66667 193.33333"
   height="193.33333"
   width="250.66667"
   xml:space="preserve"
   id="svg2"
   version="1.1"><metadata
     id="metadata8"><rdf:RDF><cc:Work
         rdf:about=""><dc:format>image/svg+xml</dc:format><dc:type
           rdf:resource="http://purl.org/dc/dcmitype/StillImage" /></cc:Work></rdf:RDF></metadata><defs
     id="defs6"><clipPath
       id="clipPath24"
       clipPathUnits="userSpaceOnUse"><path
         id="path22"
         d="M 0,0 H 188 V 145 H 0 Z" /></clipPath><clipPath
       id="clipPath34"
       clipPathUnits="userSpaceOnUse"><path
         id="path32"
         d="M 0.06,0.05999756 H 187.13501 V 144.694 H 0.06 Z" /></clipPath><clipPath
       id="clipPath70"
       clipPathUnits="userSpaceOnUse"><path
         id="path68"
         d="M 0.06,0.05999756 H 187.13501 V 144.694 H 0.06 Z" /></clipPath><clipPath
       id="clipPath88"
       clipPathUnits="userSpaceOnUse"><path
         id="path86"
         d="M 0.06,0.05999756 H 187.13501 V 144.694 H 0.06 Z" /></clipPath></defs><g
     transform="matrix(1.3333333,0,0,-1.3333333,0,193.33333)"
     id="g10"><g
       id="g12" /><g
       id="g14" /><g
       id="g16"><g
         id="g18"><g
           clip-path="url(#clipPath24)"
           id="g20"><g
             id="g26" /><g
             id="g28"><g
               clip-path="url(#clipPath34)"
               id="g30"><path
                 id="path36"
                 style="fill:none;stroke:#231f20;stroke-width:0.5;stroke-linecap:butt;stroke-linejoin:round;stroke-miterlimit:10;stroke-dasharray:none;stroke-opacity:1"
                 d="m 24.719002,17.456001 h 2.1 m -1.050001,1.05 v -2.099 m 75.513009,1.049 h 2.09999 m -1.04999,2.100001 v -4.200001 m 75.54099,2.1 h 2.10001 M 178.923,19.556002 V 15.356001 M 24.719002,79.056007 h 2.1 m -1.050001,1.050995 V 78.006004 M 24.719002,140.686 h 2.1 m -1.050001,1.05001 V 139.636" /><path
                 id="path38"
                 style="fill:none;stroke:#231f20;stroke-width:1;stroke-linecap:butt;stroke-linejoin:round;stroke-miterlimit:10;stroke-dasharray:none;stroke-opacity:1"
                 d="M 25.769001,17.456001 H 179.214 m -153.444999,0 V 140.686" /></g></g><g
             id="g40"><path
               id="path42"
               style="fill:none;stroke:#231f20;stroke-width:0.5;stroke-linecap:butt;stroke-linejoin:round;stroke-miterlimit:10;stroke-dasharray:none;stroke-opacity:1"
               d="m 163.757,140.07301 0.14501,0.029 h 0.321 l 0.14699,0.03 h 0.14401 l 0.175,0.029 h 0.293 l 0.144,0.029 h 0.17599 l 0.14701,0.029 h 0.29098 l 0.17502,0.029 h 0.29199 l 0.14501,0.029 h 0.32099 l 0.14699,0.03 h 0.31902 l 0.147,0.029 h 0.291 l 0.174,0.029 h 0.293 l 0.145,0.029 h 0.32199 l 0.14601,0.029 h 0.46599 l 0.14601,0.029 h 0.467 l 0.14599,0.03 h 0.46601 l 0.147,0.029 h 0.46498 l 0.14702,0.029 h 0.612 l 0.146,0.029 h 0.787 l 0.14599,0.03 h 0.75901 l 0.145,0.028 h 1.08 l 0.14499,0.03 h 1.54601 l 0.14699,0.029 h 2.303 m -30.334,-2.44999 0.17501,0.029 0.147,0.029 0.146,0.029 0.145,0.029 0.174,0.03 h 0.147 l 0.146,0.029 0.145,0.029 0.17598,0.029 0.14601,0.029 h 0.14601 l 0.14499,0.029 0.17501,0.03 0.14599,0.029 0.14601,0.029 h 0.14598 l 0.17401,0.029 0.14701,0.029 0.14599,0.029 0.14501,0.03 h 0.175 l 0.146,0.029 0.14699,0.029 0.14401,0.029 h 0.175 l 0.146,0.03 0.147,0.028 0.144,0.03 h 0.17599 l 0.14701,0.029 0.145,0.029 h 0.14598 l 0.17502,0.029 0.14499,0.03 h 0.147 l 0.14501,0.028 0.175,0.03 0.14599,0.029 h 0.14699 l 0.14401,0.029 0.17501,0.029 h 0.147 l 0.146,0.029 0.145,0.029 h 0.174 l 0.147,0.03 0.146,0.029 h 0.145 l 0.176,0.029 h 0.14599 l 0.14601,0.029 0.14499,0.03 h 0.17501 l 0.14599,0.028 0.14601,0.03 h 0.146 l 0.17399,0.029 h 0.14701 l 0.14599,0.029 0.14501,0.029 h 0.175 l 0.146,0.029 h 0.147 l 0.144,0.029 h 0.175 l 0.14598,0.03 0.14702,0.029 h 0.144 l 0.17599,0.029 h 0.14701 l 0.145,0.029 h 0.146 l 0.17498,0.03 h 0.14502 l 0.14699,0.028 h 0.14501 l 0.175,0.03 h 0.14599 l 0.14701,0.029 h 0.14399 l 0.17501,0.029 h 0.147 l 0.146,0.029 h 0.145 l 0.174,0.03 h 0.147 l 0.146,0.028 h 0.145 l 0.17598,0.03 h 0.14601 l 0.14601,0.029 h 0.14499 l 0.17501,0.029 h 0.14599 l 0.14601,0.029 h 0.31999 l 0.14701,0.029 h 0.14599 m -30.334,-4.958 0.17501,0.058 0.147,0.029 0.144,0.03 0.147,0.058 0.17398,0.029 0.14702,0.03 0.144,0.028 0.147,0.059 0.176,0.029 0.145,0.029 0.146,0.058 0.14599,0.03 0.17401,0.029 0.14699,0.029 0.14501,0.058 0.14599,0.029 0.175,0.03 0.14701,0.029 0.14399,0.029 0.14701,0.059 0.175,0.028 0.146,0.03 0.145,0.029 0.146,0.058 0.175,0.029 0.146,0.029 0.145,0.03 0.14598,0.029 0.17601,0.029 0.14601,0.059 0.14499,0.028 0.14701,0.03 0.17399,0.029 0.14601,0.029 0.14598,0.029 0.14502,0.058 0.176,0.03 0.14599,0.029 0.14501,0.029 0.14599,0.029 0.17501,0.029 0.14699,0.029 0.14401,0.03 0.147,0.058 0.174,0.029 0.147,0.03 0.144,0.028 0.147,0.03 0.176,0.029 0.145,0.029 0.14598,0.029 0.14601,0.029 0.174,0.029 0.147,0.03 0.14501,0.029 0.14599,0.029 0.175,0.059 0.14699,0.028 0.14401,0.03 0.14701,0.029 0.175,0.029 0.146,0.029 0.145,0.03 0.174,0.028 0.147,0.03 0.146,0.029 0.145,0.029 0.176,0.029 0.14599,0.029 0.14601,0.029 0.14499,0.03 0.17501,0.029 0.14599,0.029 0.14601,0.029 0.146,0.03 0.17399,0.028 h 0.14701 l 0.14599,0.03 0.14501,0.029 0.175,0.029 0.146,0.029 0.147,0.029 0.144,0.029 0.175,0.03 0.14598,0.029 0.14702,0.029 0.144,0.029 0.17599,0.03 0.14701,0.028 h 0.145 l 0.146,0.03 0.17498,0.029 0.14502,0.029 0.14699,0.029 0.14501,0.03 0.175,0.028 0.14599,0.03 h 0.14701 l 0.14399,0.029 m -30.303,-7.61301 0.14601,0.029 0.14499,0.059 0.14601,0.058 0.17499,0.058 0.14601,0.059 0.14499,0.029 0.14601,0.059 0.176,0.058 0.146,0.058 0.14499,0.058 0.14701,0.029 0.174,0.059 0.14599,0.058 0.14601,0.058 0.14499,0.029 0.17601,0.059 0.14599,0.059 0.14501,0.058 0.14599,0.029 0.17501,0.058 0.14699,0.058 0.14401,0.03 0.14699,0.058 0.174,0.059 0.147,0.028 0.14401,0.059 0.14699,0.058 0.17601,0.058 0.145,0.03 0.146,0.058 0.146,0.058 0.174,0.029 0.147,0.059 0.145,0.029 0.146,0.059 0.17499,0.058 0.14701,0.029 0.14399,0.058 0.14701,0.058 0.17499,0.03 0.14601,0.058 0.14499,0.029 0.14601,0.058 0.17499,0.059 0.14601,0.029 0.14499,0.058 0.146,0.029 0.17601,0.059 0.146,0.029 0.145,0.058 0.147,0.058 0.174,0.03 0.14599,0.058 0.146,0.03 0.14501,0.058 0.176,0.029 0.14599,0.058 0.14501,0.029 0.14599,0.059 0.17501,0.029 0.14699,0.058 0.14401,0.03 0.14699,0.058 0.17401,0.029 0.147,0.058 0.144,0.029 0.147,0.059 0.176,0.029 0.145,0.058 0.14598,0.029 0.14601,0.058 0.174,0.03 0.147,0.058 0.14501,0.03 0.14599,0.028 0.175,0.059 0.14699,0.029 0.14401,0.058 0.14701,0.029 0.175,0.059 0.146,0.029 0.145,0.029 0.146,0.058 0.175,0.03 0.146,0.029 0.145,0.058 0.146,0.029 0.17599,0.059 0.14601,0.029 0.14499,0.029 0.14701,0.058 0.17399,0.029 0.14601,0.03 0.146,0.058 0.14499,0.029 0.17601,0.03 0.14599,0.058 0.14501,0.029 0.14599,0.029 m -30.303,-10.588 0.14401,0.059 0.14699,0.087 0.14601,0.059 0.17499,0.087 0.14401,0.058 0.14699,0.059 0.17601,0.087 0.14499,0.059 0.146,0.058 0.146,0.087 0.174,0.059 0.14701,0.058 0.145,0.088 0.146,0.058 0.17499,0.058 0.147,0.088 0.144,0.058 0.14701,0.058 0.17499,0.088 0.14601,0.058 0.14499,0.059 0.14601,0.058 0.17499,0.087 0.14601,0.059 0.14499,0.058 0.14601,0.088 0.17599,0.058 0.14601,0.058 0.14499,0.059 0.14701,0.058 0.174,0.087 0.14599,0.059 0.14601,0.058 0.14499,0.058 0.17601,0.059 0.14599,0.087 0.14501,0.058 0.14599,0.059 0.17501,0.059 0.14699,0.058 0.14401,0.058 0.14699,0.087 0.174,0.059 0.147,0.058 0.14401,0.058 0.14699,0.059 0.17601,0.058 0.14499,0.058 0.14601,0.088 0.14599,0.058 0.17401,0.058 0.147,0.059 0.145,0.059 0.146,0.058 0.17499,0.058 0.14701,0.058 0.14399,0.059 0.14701,0.058 0.17499,0.059 0.14601,0.058 0.14499,0.058 0.14601,0.058 0.17499,0.059 0.14601,0.058 0.14499,0.058 0.146,0.058 0.176,0.059 0.14601,0.059 0.14499,0.058 0.14701,0.058 0.174,0.058 0.14599,0.059 0.146,0.058 0.14501,0.059 0.176,0.058 0.14599,0.058 0.14501,0.058 0.14599,0.059 0.17501,0.058 0.14699,0.058 0.14401,0.058 0.14699,0.059 0.17401,0.059 0.14699,0.058 0.14401,0.058 0.14699,0.029 0.17601,0.059 0.14499,0.058 0.146,0.058 0.14601,0.059 0.17399,0.058 0.14701,0.058 0.145,0.058 0.146,0.03 0.17499,0.058 0.147,0.058 0.144,0.058 0.14701,0.059 0.17499,0.059 M 87.952003,116.594 l 0.146004,0.088 0.145996,0.087 0.175003,0.088 0.144997,0.087 0.145996,0.088 0.146004,0.087 0.175003,0.11701 0.145996,0.087 0.146004,0.088 0.145996,0.087 0.175003,0.088 0.145996,0.087 0.145004,0.088 0.145996,0.087 0.175003,0.088 0.146004,0.087 0.145996,0.088 0.146004,0.087 0.174995,0.088 0.146004,0.087 0.144989,0.088 0.146011,0.087 0.174996,0.088 0.146004,0.058 0.144996,0.088 0.147003,0.087 0.174996,0.088 0.145996,0.087 0.145004,0.087 0.146004,0.088 0.174995,0.088 0.146004,0.087 0.145996,0.088 0.146004,0.058 0.175003,0.087 0.144997,0.088 0.145996,0.087 0.146003,0.088 0.175003,0.087 0.145996,0.059 0.146004,0.087 0.145996,0.088 0.175003,0.087 0.144997,0.088 0.146004,0.058 0.145996,0.088 0.175003,0.087 0.145996,0.088 0.146004,0.058 0.145996,0.087 0.175003,0.088 0.145996,0.087 0.144997,0.059 0.14701,0.087 0.173996,0.088 0.146004,0.058 0.145996,0.088 0.146004,0.087 0.174995,0.058 0.145996,0.088 0.145005,0.087 0.147003,0.059 0.173996,0.088 0.146004,0.087 0.144996,0.058 0.147003,0.088 0.174996,0.087 0.146003,0.058 0.14499,0.088 0.146011,0.087 0.176002,0.059 0.145996,0.087 0.143998,0.058 0.147003,0.088 0.175003,0.058 0.144997,0.088 0.146003,0.087 0.146996,0.059 0.175006,0.088 0.14499,0.058 0.14601,0.087 0.14699,0.058 0.17401,0.088 0.14499,0.058 0.146,0.088 0.147,0.058 0.17501,0.088 0.14499,0.058 0.14701,0.087 0.14499,0.059 0.175,0.088 0.146,0.058 0.14501,0.087 0.147,0.058 0.17499,0.059 0.14501,0.087 0.14599,0.058 0.14701,0.088 0.17499,0.058 M 72.785004,106.298 l 0.145996,0.11701 0.175003,0.117 0.146004,0.11599 0.144996,0.11701 0.147003,0.11599 0.174996,0.11701 0.146003,0.117 0.144997,0.11699 0.146004,0.11601 0.174995,0.11699 0.146004,0.11701 0.145996,0.116 0.146004,0.11699 0.174995,0.11701 0.291001,0.233 0.146003,0.087 0.175003,0.11699 0.145996,0.11701 0.292,0.23299 0.175003,0.11701 0.144997,0.087 0.292,0.23401 0.175003,0.11599 0.145996,0.117 0.146004,0.087 0.145996,0.11699 0.175003,0.11701 0.145996,0.11599 0.145004,0.088 0.145996,0.117 0.175003,0.11599 0.145996,0.11701 0.146004,0.087 0.145996,0.11699 0.175003,0.11701 0.146004,0.087 0.144989,0.117 0.146011,0.087 0.174996,0.11699 0.146004,0.11701 0.144996,0.087 0.147003,0.11699 0.174996,0.11701 0.145996,0.087 0.145004,0.117 0.146004,0.087 0.174995,0.11699 0.146004,0.087 0.145996,0.11701 0.146004,0.087 0.174995,0.11701 0.145005,0.088 0.145996,0.11599 0.146003,0.088 0.175003,0.11701 0.145996,0.087 0.146004,0.11701 0.145996,0.087 0.175003,0.11699 0.144997,0.087 0.146004,0.11699 0.145996,0.088 0.175003,0.087 0.145996,0.11699 0.146004,0.087 0.145996,0.11701 0.175003,0.087 0.145996,0.088 0.144997,0.11702 0.146003,0.087 0.175003,0.088 0.145996,0.11601 0.292,0.17499 0.175003,0.117 0.145996,0.087 0.145005,0.088 0.146003,0.087 0.174996,0.11699 0.146004,0.088 0.291999,0.17501 0.174996,0.11599 0.146003,0.088 0.14499,0.087 0.146011,0.088 0.174995,0.087 0.146004,0.117 0.145996,0.087 0.146004,0.088 0.175003,0.087 0.144997,0.088 0.145996,0.087 0.146003,0.11701 0.175003,0.087 0.145996,0.088 m -30.333,-23.916998 0.146,0.175003 0.174,0.145996 0.146,0.175003 0.146,0.146004 0.146,0.174995 0.174999,0.145996 0.146,0.146004 0.146,0.175003 0.145996,0.144997 0.175003,0.146004 0.144997,0.174995 0.146003,0.146004 0.146,0.145996 0.175003,0.146003 0.146,0.174996 0.146,0.146004 0.145001,0.145996 0.175994,0.145004 0.145005,0.145996 0.146,0.175003 0.145999,0.146004 0.175,0.145988 0.145,0.146012 0.146,0.144996 0.146996,0.146004 0.175003,0.145996 0.144996,0.146004 0.146004,0.145996 0.146,0.146004 0.174999,0.144996 0.146,0.146004 0.146004,0.145996 0.146,0.146004 0.174,0.145988 0.145999,0.146012 0.146,0.144996 0.146,0.116997 0.174999,0.146004 0.146,0.145996 0.146,0.146004 0.145996,0.146003 0.174004,0.144997 0.145996,0.116997 0.146004,0.145996 0.146004,0.146004 0.174995,0.146003 0.146004,0.115998 0.145996,0.146003 0.175003,0.145989 0.145996,0.117015 0.291,0.291 0.175003,0.11699 0.145996,0.14601 0.146004,0.14499 0.145996,0.117 0.175003,0.146 0.145996,0.117 0.144997,0.14601 0.146004,0.14499 0.175003,0.11701 0.146004,0.14598 0.144996,0.11702 0.147003,0.14499 0.174996,0.11701 0.145996,0.14599 0.145004,0.11701 0.146004,0.116 0.174995,0.14599 0.146004,0.11701 0.145996,0.14499 0.146004,0.11701 0.174995,0.11699 0.145005,0.14601 0.145996,0.116 0.146003,0.11699 0.174996,0.14601 0.146003,0.11699 0.145997,0.11601 0.146003,0.14599 0.175003,0.11701 0.144997,0.116 0.146004,0.146 0.145996,0.11699 0.175003,0.117 0.145996,0.11601 0.146004,0.11699 0.145996,0.14601 0.175003,0.116 0.145996,0.11699 0.144997,0.11701 0.146003,0.11599 0.175003,0.11701 0.145996,0.14599 0.292,0.23301 0.175003,0.11699 0.145996,0.11701 0.145005,0.11599 m -30.333001,-32.899997 0.175,0.233001 0.145,0.263001 0.146,0.234001 0.146,0.232994 0.175995,0.233002 0.145004,0.234001 0.292,0.466003 0.174999,0.232994 0.146,0.234002 0.145001,0.233001 0.146999,0.234001 0.174,0.203003 0.292,0.466996 0.145999,0.205001 0.175003,0.233002 0.146,0.232994 0.145001,0.204003 0.146999,0.233001 0.174,0.205002 0.146,0.232994 0.146,0.204003 0.146,0.205001 0.174999,0.233002 0.146,0.203995 0.145,0.204002 0.146996,0.204003 0.175003,0.234001 0.291,0.407989 0.146,0.20401 0.174999,0.203995 0.146004,0.204002 0.144997,0.205002 0.146,0.202996 0.175998,0.205001 0.145005,0.204003 0.146,0.204002 0.145999,0.203995 0.175,0.204002 0.146,0.176003 0.291,0.407997 0.174999,0.204002 0.145996,0.174996 0.146004,0.204002 0.146,0.204003 0.174999,0.174995 0.146,0.204002 0.145001,0.176003 0.145999,0.203995 0.175,0.175003 0.146,0.203994 0.146,0.175003 0.146003,0.204003 0.174999,0.174995 0.146,0.204003 0.145001,0.175003 0.146,0.174995 0.174999,0.204002 0.145996,0.175004 0.146004,0.174995 0.146,0.175003 0.174999,0.205002 0.146,0.174995 0.145,0.175003 0.146,0.174996 0.174999,0.174003 0.146,0.176003 0.146,0.174995 0.146,0.175003 0.175003,0.174996 0.146,0.174003 0.144997,0.176003 0.146,0.174995 0.175003,0.175003 0.145996,0.174996 0.292003,0.350006 0.175,0.174995 0.145,0.145005 0.147,0.174995 0.145,0.175003 0.174999,0.175003 0.146,0.174995 0.146,0.146004 0.146,0.174996 0.174999,0.175003 0.146,0.145996 0.145001,0.175003 0.145999,0.175003 0.175004,0.145996 0.145996,0.174995 0.146003,0.146004 0.146,0.175003 0.174999,0.144997 0.146,0.176002 0.145001,0.144997 M 27.315001,34.84 l 0.144998,0.844002 0.146002,0.819 0.146,0.756996 0.175001,0.73 0.146,0.729004 0.146,0.700001 0.146,0.670997 0.174997,0.641003 0.145002,0.640999 0.146,0.612999 0.146,0.583999 0.175001,0.584004 0.146,0.581997 0.144999,0.555 0.146,0.554001 0.176,0.525001 0.291001,1.05 0.146,0.496997 0.174999,0.494 0.145,0.497001 0.146,0.466 0.146,0.466999 0.175999,0.467003 0.145002,0.466 0.146,0.437999 0.146,0.466999 0.174999,0.437001 0.146,0.408001 0.145001,0.437999 0.146999,0.408001 0.174,0.437001 0.146,0.409 0.146,0.378998 0.145999,0.409 0.175,0.408001 0.146003,0.378994 0.144997,0.379006 0.147003,0.379001 0.174,0.378998 0.146,0.379002 0.146,0.379997 0.146,0.350002 0.174999,0.378998 0.146,0.350002 0.145,0.349999 0.146,0.350002 0.174999,0.349998 0.145997,0.349999 0.146003,0.320003 0.146,0.350998 0.174999,0.350003 0.146,0.319999 0.145001,0.321999 0.146,0.32 0.174999,0.320999 0.292004,0.640995 0.145999,0.321007 0.175,0.321998 0.145,0.32 0.146,0.292 0.146,0.321003 0.174999,0.291999 0.145996,0.291001 0.146004,0.320991 0.146,0.291008 0.174999,0.292 0.146,0.292 0.145001,0.291 0.145999,0.292 0.175,0.291992 0.146,0.263008 0.291999,0.583001 0.175003,0.262001 0.146,0.291992 0.144997,0.263008 0.146004,0.262001 0.174999,0.290993 0.145996,0.263 0.146004,0.262001 0.146,0.263001 0.174999,0.262001 0.146,0.263 0.145,0.262001 0.146,0.263001 0.174999,0.262001 0.146,0.263 0.146,0.261994 0.146,0.234001 0.174999,0.262001 0.146,0.262993 0.145001,0.233009 0.146,0.263001 0.175003,0.233001 L 42.16,72.902 l 0.146004,0.263001 0.145999,0.233002 m -16.683002,-55.942002 0.146,5.513001 0.174,2.274999 0.146,1.75 0.146,1.487 0.145999,1.283001 0.175002,1.167 0.145999,1.078996 0.146,0.993004 0.145998,0.961998 0.175002,0.875" /><text
               id="text46"
               style="font-variant:normal;font-weight:normal;font-size:8.36849976px;font-family:CMMI12;-inkscape-font-specification:CMMI12;writing-mode:lr-tb;fill:#231f20;fill-opacity:1;fill-rule:nonzero;stroke:none"
               transform="matrix(1,0,0,-1,0,101.1505)"><tspan
                 id="tspan44"
                 y="0"
                 x="0">y</tspan></text>
<text
               id="text50"
               style="font-variant:normal;font-weight:normal;font-size:8.36849976px;font-family:CMR12;-inkscape-font-specification:CMR12;writing-mode:lr-tb;fill:#231f20;fill-opacity:1;fill-rule:nonzero;stroke:none"
               transform="matrix(1,0,0,-1,4.2955508,101.1505)"><tspan
                 id="tspan48"
                 y="0"
                 x="0">(</tspan></text>
<text
               id="text54"
               style="font-variant:normal;font-weight:normal;font-size:8.36849976px;font-family:CMMI12;-inkscape-font-specification:CMMI12;writing-mode:lr-tb;fill:#231f20;fill-opacity:1;fill-rule:nonzero;stroke:none"
               transform="matrix(1,0,0,-1,7.4822755,101.1505)"><tspan
                 id="tspan52"
                 y="0"
                 x="0">t</tspan></text>
<text
               id="text58"
               style="font-variant:normal;font-weight:normal;font-size:8.36849976px;font-family:CMR12;-inkscape-font-specification:CMR12;writing-mode:lr-tb;fill:#231f20;fill-opacity:1;fill-rule:nonzero;stroke:none"
               transform="matrix(1,0,0,-1,10.441377,101.1505)"><tspan
                 id="tspan56"
                 y="0"
                 x="0">)</tspan></text>
<text
               id="text62"
               style="font-variant:normal;font-weight:normal;font-size:8.36849976px;font-family:CMMI12;-inkscape-font-specification:CMMI12;writing-mode:lr-tb;fill:#231f20;fill-opacity:1;fill-rule:nonzero;stroke:none"
               transform="matrix(1,0,0,-1,146.98935,2.1009307)"><tspan
                 id="tspan60"
                 y="0"
                 x="0">x</tspan></text>
</g><g
             id="g64"><g
               clip-path="url(#clipPath70)"
               id="g66"><text
                 id="text74"
                 style="font-variant:normal;font-weight:normal;font-size:8.36849976px;font-family:CMR12;-inkscape-font-specification:CMR12;writing-mode:lr-tb;fill:#231f20;fill-opacity:1;fill-rule:nonzero;stroke:none"
                 transform="matrix(1,0,0,-1,151.64601,2.1010001)"><tspan
                   id="tspan72"
                   y="0"
                   x="0">(</tspan></text>
</g></g><g
             id="g76"><text
               id="text80"
               style="font-variant:normal;font-weight:normal;font-size:8.36849976px;font-family:CMMI12;-inkscape-font-specification:CMMI12;writing-mode:lr-tb;fill:#231f20;fill-opacity:1;fill-rule:nonzero;stroke:none"
               transform="matrix(1,0,0,-1,154.83301,2.1010001)"><tspan
                 id="tspan78"
                 y="0"
                 x="0">t</tspan></text>
</g><g
             id="g82"><g
               clip-path="url(#clipPath88)"
               id="g84"><text
                 id="text92"
                 style="font-variant:normal;font-weight:normal;font-size:8.36849976px;font-family:CMR12;-inkscape-font-specification:CMR12;writing-mode:lr-tb;fill:#231f20;fill-opacity:1;fill-rule:nonzero;stroke:none"
                 transform="matrix(1,0,0,-1,157.79201,2.1010001)"><tspan
                   id="tspan90"
                   y="0"
                   x="0">)</tspan></text>
</g></g><g
             id="g94"><text
               id="text98"
               style="font-variant:normal;font-weight:normal;font-size:8.36849976px;font-family:CMR12;-inkscape-font-specification:CMR12;writing-mode:lr-tb;fill:#231f20;fill-opacity:1;fill-rule:nonzero;stroke:none"
               transform="matrix(1,0,0,-1,25.2925,7.8670006)"><tspan
                 id="tspan96"
                 y="0"
                 x="0">0</tspan></text>
<text
               id="text102"
               style="font-variant:normal;font-weight:normal;font-size:8.36849976px;font-family:CMR12;-inkscape-font-specification:CMR12;writing-mode:lr-tb;fill:#231f20;fill-opacity:1;fill-rule:nonzero;stroke:none"
               transform="matrix(1,0,0,-1,101.77138,7.5171971)"><tspan
                 id="tspan100"
                 y="0"
                 x="0">5</tspan></text>
<text
               id="text106"
               style="font-variant:normal;font-weight:normal;font-size:8.36849976px;font-family:CMR12;-inkscape-font-specification:CMR12;writing-mode:lr-tb;fill:#231f20;fill-opacity:1;fill-rule:nonzero;stroke:none"
               transform="matrix(1,0,0,-1,178.9507,7.8670006)"><tspan
                 id="tspan104"
                 y="0"
                 x="0 4.0921965">10</tspan></text>
<text
               id="text110"
               style="font-variant:normal;font-weight:normal;font-size:8.36849976px;font-family:CMR12;-inkscape-font-specification:CMR12;writing-mode:lr-tb;fill:#231f20;fill-opacity:1;fill-rule:nonzero;stroke:none"
               transform="matrix(1,0,0,-1,17.325684,16.617104)"><tspan
                 id="tspan108"
                 y="0"
                 x="0">0</tspan></text>
<text
               id="text114"
               style="font-variant:normal;font-weight:normal;font-size:8.36849976px;font-family:CMR12;-inkscape-font-specification:CMR12;writing-mode:lr-tb;fill:#231f20;fill-opacity:1;fill-rule:nonzero;stroke:none"
               transform="matrix(1,0,0,-1,13.303782,77.167381)"><tspan
                 id="tspan112"
                 y="0"
                 x="0 4.0921965">10</tspan></text>
<text
               id="text118"
               style="font-variant:normal;font-weight:normal;font-size:8.36849976px;font-family:CMR12;-inkscape-font-specification:CMR12;writing-mode:lr-tb;fill:#231f20;fill-opacity:1;fill-rule:nonzero;stroke:none"
               transform="matrix(1,0,0,-1,13.379099,138.41727)"><tspan
                 id="tspan116"
                 y="0"
                 x="0 4.0921965">20</tspan></text>
</g></g></g></g></g></svg>