<?xml version="1.0" encoding="UTF-8" standalone="no"?>
<svg
   xmlns:dc="http://purl.org/dc/elements/1.1/"
   xmlns:cc="http://creativecommons.org/ns#"
   xmlns:rdf="http://www.w3.org/1999/02/22-rdf-syntax-ns#"
   xmlns:svg="http://www.w3.org/2000/svg"
   xmlns="http://www.w3.org/2000/svg"
   viewBox="0 0 397.33334 172"
   height="172"
   width="397.33334"
   xml:space="preserve"
   id="svg2"
   version="1.1"><metadata
     id="metadata8"><rdf:RDF><cc:Work
         rdf:about=""><dc:format>image/svg+xml</dc:format><dc:type
           rdf:resource="http://purl.org/dc/dcmitype/StillImage" /></cc:Work></rdf:RDF></metadata><defs
     id="defs6"><clipPath
       id="clipPath24"
       clipPathUnits="userSpaceOnUse"><path
         id="path22"
         d="M 0,0 H 298 V 129 H 0 Z" /></clipPath><clipPath
       id="clipPath38"
       clipPathUnits="userSpaceOnUse"><path
         id="path36"
         d="M 0.06,0 H 297.53702 V 129 H 0.06 Z" /></clipPath></defs><g
     transform="matrix(1.3333333,0,0,-1.3333333,0,172)"
     id="g10"><g
       id="g12" /><g
       id="g14" /><g
       id="g16"><g
         id="g18"><g
           clip-path="url(#clipPath24)"
           id="g20"><g
             id="g26" /><g
             id="g28"><path
               id="path30"
               style="fill:#ffffff;fill-opacity:1;fill-rule:nonzero;stroke:none"
               d="m 83.834007,64.833 c 0,-11.597996 -9.402,-21 -21.000004,-21 -11.599002,0 -21,9.402004 -21,21 0,11.599007 9.400998,21.000008 21,21.000008 11.598004,0 21.000004,-9.401001 21.000004,-21.000008" /></g><g
             id="g32"><g
               clip-path="url(#clipPath38)"
               id="g34"><path
                 id="path40"
                 style="fill:none;stroke:#231f20;stroke-width:1;stroke-linecap:butt;stroke-linejoin:miter;stroke-miterlimit:4;stroke-dasharray:none;stroke-opacity:1"
                 d="m 83.834007,64.833 c 0,-11.597996 -9.402,-21 -21.000004,-21 -11.599002,0 -21,9.402004 -21,21 0,11.599007 9.400998,21.000008 21,21.000008 11.598004,0 21.000004,-9.401001 21.000004,-21.000008 z M 128.5,64.5 c 0,-35.345999 -28.653992,-64 -64,-64 -35.345999,0 -64,28.654001 -64,64 0,35.346008 28.654001,64 64,64 35.346008,0 64,-28.653992 64,-64 z m 112,0.667 c 0,-19.883 -15.66899,-35.999998 -35,-35.999998 -19.33,0 -35,16.116998 -35,35.999998 0,19.882004 15.67,36.00001 35,36.00001 19.33101,0 35,-16.118006 35,-36.00001 z M 59.501003,85.5 200.16801,100.83301 M 59,44 203,29.333002 m 2.5,35.833998 29,-16.999996 M 79.5,75.167 64.5,64.5 36.834003,122.16701" /></g></g><g
             id="g42"><text
               id="text46"
               style="font-variant:normal;font-weight:normal;font-size:11.95500088px;font-family:CMR12;-inkscape-font-specification:CMR12;writing-mode:lr-tb;fill:#231f20;fill-opacity:1;fill-rule:nonzero;stroke:none"
               transform="matrix(1,0,0,-1,10.71,38.612301)"><tspan
                 id="tspan44"
                 y="0"
                 x="0 4.6146302 11.106196 15.649096">spro</tspan></text>
<text
               id="text50"
               style="font-variant:normal;font-weight:normal;font-size:11.95500088px;font-family:CMR12;-inkscape-font-specification:CMR12;writing-mode:lr-tb;fill:#231f20;fill-opacity:1;fill-rule:nonzero;stroke:none"
               transform="matrix(1,0,0,-1,32.561352,38.612301)"><tspan
                 id="tspan48"
                 y="0"
                 x="0">c</tspan></text>
<text
               id="text54"
               style="font-variant:normal;font-weight:normal;font-size:11.95500088px;font-family:CMR12;-inkscape-font-specification:CMR12;writing-mode:lr-tb;fill:#231f20;fill-opacity:1;fill-rule:nonzero;stroke:none"
               transform="matrix(1,0,0,-1,37.438992,38.612301)"><tspan
                 id="tspan52"
                 y="0"
                 x="0">k</tspan></text>
<text
               id="text58"
               style="font-variant:normal;font-weight:normal;font-size:11.95500088px;font-family:CMR12;-inkscape-font-specification:CMR12;writing-mode:lr-tb;fill:#231f20;fill-opacity:1;fill-rule:nonzero;stroke:none"
               transform="matrix(1,0,0,-1,43.29216,38.612301)"><tspan
                 id="tspan56"
                 y="0"
                 x="0 5.2004256">et</tspan></text>
<text
               id="text62"
               style="font-variant:normal;font-weight:normal;font-size:11.95500088px;font-family:CMR12;-inkscape-font-specification:CMR12;writing-mode:lr-tb;fill:#231f20;fill-opacity:1;fill-rule:nonzero;stroke:none"
               transform="matrix(1,0,0,-1,242.94904,76.612465)"><tspan
                 id="tspan60"
                 y="0"
                 x="0 5.2004256 11.691991 17.537987 20.777792">chain</tspan></text>
<text
               id="text66"
               style="font-variant:normal;font-weight:normal;font-size:11.95500088px;font-family:CMR12;-inkscape-font-specification:CMR12;writing-mode:lr-tb;fill:#231f20;fill-opacity:1;fill-rule:nonzero;stroke:none"
               transform="matrix(1,0,0,-1,277.41531,76.612465)"><tspan
                 id="tspan64"
                 y="0"
                 x="0 4.5429006 7.7827058 14.274271">ring</tspan></text>
<text
               id="text70"
               style="font-variant:normal;font-weight:normal;font-size:11.95500088px;font-family:CMMI12;-inkscape-font-specification:CMMI12;writing-mode:lr-tb;fill:#231f20;fill-opacity:1;fill-rule:nonzero;stroke:none"
               transform="matrix(1,0,0,-1,44.499619,88.666695)"><tspan
                 id="tspan68"
                 y="0"
                 x="0">r</tspan></text>
<text
               id="text74"
               style="font-variant:normal;font-weight:normal;font-size:11.95500088px;font-family:CMMI12;-inkscape-font-specification:CMMI12;writing-mode:lr-tb;fill:#231f20;fill-opacity:1;fill-rule:nonzero;stroke:none"
               transform="matrix(1,0,0,-1,72.002098,63.666397)"><tspan
                 id="tspan72"
                 y="0"
                 x="0">r</tspan></text>
<text
               id="text78"
               style="font-variant:normal;font-weight:normal;font-size:7.96999979px;font-family:CMR8;-inkscape-font-specification:CMR8;writing-mode:lr-tb;fill:#231f20;fill-opacity:1;fill-rule:nonzero;stroke:none"
               transform="matrix(1,0,0,-1,77.278297,61.873497)"><tspan
                 id="tspan76"
                 y="0"
                 x="0">2</tspan></text>
<text
               id="text82"
               style="font-variant:normal;font-weight:normal;font-size:11.95500088px;font-family:CMMI12;-inkscape-font-specification:CMMI12;writing-mode:lr-tb;fill:#231f20;fill-opacity:1;fill-rule:nonzero;stroke:none"
               transform="matrix(1,0,0,-1,208.412,51.1665)"><tspan
                 id="tspan80"
                 y="0"
                 x="0">r</tspan></text>
<text
               id="text86"
               style="font-variant:normal;font-weight:normal;font-size:7.96999979px;font-family:CMR8;-inkscape-font-specification:CMR8;writing-mode:lr-tb;fill:#231f20;fill-opacity:1;fill-rule:nonzero;stroke:none"
               transform="matrix(1,0,0,-1,213.688,49.373497)"><tspan
                 id="tspan84"
                 y="0"
                 x="0">1</tspan></text>
</g></g></g></g></g></svg>