<?xml version="1.0" encoding="UTF-8" standalone="no"?>
<svg
   xmlns:dc="http://purl.org/dc/elements/1.1/"
   xmlns:cc="http://creativecommons.org/ns#"
   xmlns:rdf="http://www.w3.org/1999/02/22-rdf-syntax-ns#"
   xmlns:svg="http://www.w3.org/2000/svg"
   xmlns="http://www.w3.org/2000/svg"
   viewBox="0 0 305.33334 117.33333"
   height="117.33333"
   width="305.33334"
   xml:space="preserve"
   id="svg2"
   version="1.1"><metadata
     id="metadata8"><rdf:RDF><cc:Work
         rdf:about=""><dc:format>image/svg+xml</dc:format><dc:type
           rdf:resource="http://purl.org/dc/dcmitype/StillImage" /></cc:Work></rdf:RDF></metadata><defs
     id="defs6"><clipPath
       id="clipPath24"
       clipPathUnits="userSpaceOnUse"><path
         id="path22"
         d="M 0,0 H 229 V 88 H 0 Z" /></clipPath></defs><g
     transform="matrix(1.3333333,0,0,-1.3333333,0,117.33333)"
     id="g10"><g
       id="g12" /><g
       id="g14" /><g
       id="g16"><g
         id="g18"><g
           clip-path="url(#clipPath24)"
           id="g20"><g
             id="g26" /><g
             id="g28"><path
               id="path30"
               style="fill:#bfced2;fill-opacity:1;fill-rule:nonzero;stroke:#d9d9d9;stroke-width:1;stroke-linecap:butt;stroke-linejoin:miter;stroke-miterlimit:4;stroke-dasharray:none;stroke-opacity:1"
               d="M 1,42 191,84 225,2" /><path
               id="path32"
               style="fill:none;stroke:#000000;stroke-width:1;stroke-linecap:butt;stroke-linejoin:miter;stroke-miterlimit:4;stroke-dasharray:none;stroke-opacity:1"
               d="M 195,83 0.5,41.5 228,1" /><path
               id="path34"
               style="fill:#000000;fill-opacity:1;fill-rule:nonzero;stroke:none"
               d="m 116,20 -1.52499,3.931002 0.13499,0.059 5.37501,-3.327 c 1.93699,-0.802 3.873,-1.604999 5.809,-2.406999 -2.09401,-0.084 -4.18801,-0.168999 -6.282,-0.253001 l -6.193,-1.267999 -0.11,0.082 L 116,20" /><path
               id="path36"
               style="fill:#000000;fill-opacity:1;fill-rule:nonzero;stroke:none"
               d="m 108,64 -2.894,3.066002 0.10301,0.106003 6.233,-1.056 c 2.09599,-0.013 4.19099,-0.027 6.28699,-0.04 -1.90799,-0.868004 -3.816,-1.735001 -5.723,-2.603001 l -5.259,-3.508 L 106.61401,60 108,64" /><text
               id="text40"
               style="font-style:italic;font-variant:normal;font-size:12px;font-family:Times;-inkscape-font-specification:Times-Italic;writing-mode:lr-tb;fill:#000000;fill-opacity:1;fill-rule:nonzero;stroke:none"
               transform="matrix(1,0,0,-1,98,77)"><tspan
                 id="tspan38"
                 y="0"
                 x="0">b</tspan></text>
<path
               id="path42"
               style="fill:#000000;fill-opacity:1;fill-rule:nonzero;stroke:none"
               d="m 98,75 h 4.66701" /><text
               id="text46"
               style="font-style:italic;font-variant:normal;font-size:12px;font-family:Times;-inkscape-font-specification:Times-Italic;writing-mode:lr-tb;fill:#000000;fill-opacity:1;fill-rule:nonzero;stroke:none"
               transform="matrix(1,0,0,-1,106.3333,6.8108997)"><tspan
                 id="tspan44"
                 y="0"
                 x="0">a</tspan></text>
<path
               id="path48"
               style="fill:#000000;fill-opacity:1;fill-rule:nonzero;stroke:none"
               d="m 107,3.4780002 4.66701,-0.055" /><path
               id="path50"
               style="fill:none;stroke:#000000;stroke-width:1;stroke-linecap:butt;stroke-linejoin:miter;stroke-miterlimit:4;stroke-dasharray:none;stroke-opacity:1"
               d="M 55.903004,52.943001 C 57.900002,49.509998 58.983002,45.829002 58.983002,42 c 0,-3.544998 -0.929001,-6.963997 -2.652001,-10.175999" /><text
               id="text54"
               style="font-variant:normal;font-weight:normal;font-size:12px;font-family:Symbol;-inkscape-font-specification:Symbol;writing-mode:lr-tb;fill:#000000;fill-opacity:1;fill-rule:nonzero;stroke:none"
               transform="matrix(1,0,0,-1,44,36.799999)"><tspan
                 id="tspan52"
                 y="0"
                 x="0">!</tspan></text>
</g></g></g></g></g></svg>