<?xml version="1.0" encoding="UTF-8" standalone="no"?>
<svg
   xmlns:dc="http://purl.org/dc/elements/1.1/"
   xmlns:cc="http://creativecommons.org/ns#"
   xmlns:rdf="http://www.w3.org/1999/02/22-rdf-syntax-ns#"
   xmlns:svg="http://www.w3.org/2000/svg"
   xmlns="http://www.w3.org/2000/svg"
   viewBox="0 0 607.13599 167.804"
   height="167.804"
   width="607.13599"
   xml:space="preserve"
   id="svg2"
   version="1.1"><metadata
     id="metadata8"><rdf:RDF><cc:Work
         rdf:about=""><dc:format>image/svg+xml</dc:format><dc:type
           rdf:resource="http://purl.org/dc/dcmitype/StillImage" /></cc:Work></rdf:RDF></metadata><defs
     id="defs6"><clipPath
       id="clipPath72"
       clipPathUnits="userSpaceOnUse"><path
         id="path70"
         d="M 0.059998,125.853 H 455.352 V 0 H 0.059998 Z" /></clipPath></defs><g
     transform="matrix(1.3333333,0,0,-1.3333333,0,167.804)"
     id="g10"><path
       id="path12"
       style="fill:#c6c8ca;fill-opacity:1;fill-rule:nonzero;stroke:none"
       d="M 95.43,104.547 V 76.409 l -0.255,28.363 -0.625,0.675 -1.65,1.7 -0.824,0.825 -0.825,0.775 -1.321,0.787 -0.755,1.063 -1.225,0.975 c -2.782,2.069 -6.068,3.827 -9.645,3.65 V 76.284" /><path
       id="path14"
       style="fill:#c6c8ca;fill-opacity:1;fill-rule:nonzero;stroke:none"
       d="m 76.68,76.284 18.495,28.488 0.13,-28.738" /><path
       id="path16"
       style="fill:#c6c8ca;fill-opacity:1;fill-rule:nonzero;stroke:none"
       d="M 50.407,76.204 V 92.005 C 40.982,81.018 28.213,77.287 14.162,77.08 v -1.126" /><path
       id="path18"
       style="fill:#c6c8ca;fill-opacity:1;fill-rule:nonzero;stroke:none"
       d="m 78.949,114.621 -2.812,0.159 -2.021,-1.159 -1.504,-0.191 -1.225,-0.725 -1.45,-0.975 -1.25,-0.95 -1.85,-1.6 c -3.473,-3.143 -6.572,-6.819 -9.725,-10.275 0,0 0.296,0.967 -1.85,-2.075 -2.146,-3.043 -3.5,-3.775 -3.5,-3.775 L 49.687,90.98 48.662,90.005 V 76.287 h 30.12 l 0.167,38.334" /><path
       id="path20"
       style="fill:#c6c8ca;fill-opacity:1;fill-rule:nonzero;stroke:none"
       d="M 147.968,10.617 V 26.418 C 138.541,15.432 125.774,11.7 111.722,11.493 v -1.126" /><path
       id="path22"
       style="fill:#c6c8ca;fill-opacity:1;fill-rule:nonzero;stroke:none"
       d="m 176.509,49.034 -2.812,0.159 -2.021,-1.159 -1.504,-0.191 -1.224,-0.725 -1.45,-0.975 -1.25,-0.95 -1.851,-1.6 c -3.472,-3.142 -6.574,-6.818 -9.725,-10.275 0,0 0.296,0.968 -1.85,-2.075 -2.146,-3.043 -3.5,-3.775 -3.5,-3.775 l -2.075,-2.075 -1.025,-0.975 V 10.7 h 30.121 l 0.166,38.334" /><path
       id="path24"
       style="fill:#c6c8ca;fill-opacity:1;fill-rule:nonzero;stroke:none"
       d="m 363.318,51.461 c 3.524,0.086 6.536,-1.526 9.3,-3.535 l 1.025,-0.807 0.824,-0.683 0.826,-0.731 0.826,-0.783 1.024,-0.985 1.05,-1.061 0.6,-0.631 0.762,-1.182 0.913,-0.61 V 12.152 H 363.43" /><path
       id="path26"
       style="fill:none;stroke:#231f20;stroke-width:1;stroke-linecap:butt;stroke-linejoin:round;stroke-miterlimit:4;stroke-dasharray:none;stroke-opacity:1"
       d="m 408.043,16.666 c 6.485,-2.612 13.538,-3.23 20.451,-3.549 m -40.902,19.3 c 5.952,-6.482 12.11,-12.492 20.451,-15.751 m -40.876,33.951 c 7.716,-2.481 14.957,-12.393 20.426,-18.201 m -40.876,7.751 c 5.179,5.492 12.015,13.051 20.451,10.45 m -40.901,-30.35 c 8.045,5.262 13.993,12.915 20.45,19.9 m -40.9,-26.575 c 7.489,0.774 14.08,2.506 20.45,6.675 m -27.475,-7.15 c 2.352,0.102 4.679,0.259 7.025,0.474" /><path
       id="path28"
       style="fill:none;stroke:#231f20;stroke-width:0.5;stroke-linecap:butt;stroke-linejoin:round;stroke-miterlimit:4;stroke-dasharray:none;stroke-opacity:1"
       d="M 284.993,11.992 H 450.889" /><path
       id="path30"
       style="fill:#231f20;fill-opacity:1;fill-rule:nonzero;stroke:none"
       d="m 450.378,11.992 -1.094,1.801 0.061,0.041 2.938,-1.167 c 1.022,-0.225 2.046,-0.45 3.069,-0.675 -1.023,-0.225 -2.047,-0.451 -3.069,-0.676 l -2.938,-1.166 -0.061,0.03 1.094,1.812" /><path
       id="path32"
       style="fill:none;stroke:#231f20;stroke-width:0.5;stroke-linecap:butt;stroke-linejoin:round;stroke-miterlimit:4;stroke-dasharray:none;stroke-opacity:1"
       d="M 363.743,4.034 V 56.33" /><path
       id="path34"
       style="fill:#231f20;fill-opacity:1;fill-rule:nonzero;stroke:none"
       d="m 363.743,55.82 -1.802,-1.096 -0.041,0.062 1.167,2.937 c 0.225,1.024 0.451,2.047 0.676,3.071 0.224,-1.024 0.45,-2.047 0.675,-3.071 l 1.166,-2.937 -0.03,-0.062 -1.811,1.096" /><text
       id="text38"
       style="font-variant:normal;font-weight:normal;font-size:9.9630003px;font-family:CMR10;-inkscape-font-specification:CMR10;writing-mode:lr-tb;fill:#231f20;fill-opacity:1;fill-rule:nonzero;stroke:none"
       transform="matrix(1,0,0,-1,364.898,3.473)"><tspan
         id="tspan36"
         y="0"
         x="0">0</tspan></text>
<text
       id="text42"
       style="font-style:italic;font-variant:normal;font-weight:normal;font-size:9.9630003px;font-family:CMMI10;-inkscape-font-specification:CMMI10;writing-mode:lr-tb;fill:#231f20;fill-opacity:1;fill-rule:nonzero;stroke:none"
       transform="matrix(1,0,0,-1,377.87481,6.4798334)"><tspan
         id="tspan40"
         y="0"
         x="0">z</tspan></text>
<text
       id="text46"
       style="font-variant:normal;font-weight:normal;font-size:6.97399998px;font-family:CMR7;-inkscape-font-specification:CMR7;writing-mode:lr-tb;fill:#231f20;fill-opacity:1;fill-rule:nonzero;stroke:none"
       transform="matrix(1,0,0,-1,382.508,4.986)"><tspan
         id="tspan44"
         y="0"
         x="0">1</tspan></text>
<path
       id="path48"
       style="fill:none;stroke:#231f20;stroke-width:1;stroke-linecap:butt;stroke-linejoin:round;stroke-miterlimit:4;stroke-dasharray:none;stroke-opacity:1"
       d="m 220.926,15.685 c 6.483,-2.615 13.537,-3.231 20.449,-3.55 m -40.899,19.299 c 5.944,-6.477 12.116,-12.497 20.45,-15.749 m -40.876,33.95 c 7.718,-2.484 14.954,-12.393 20.426,-18.201 M 159.6,39.185 c 5.179,5.492 12.014,13.051 20.45,10.45 m -40.9,-30.35 c 8.047,5.264 13.991,12.914 20.45,19.9 M 118.7,12.609 c 7.494,0.777 14.073,2.504 20.45,6.675 m -27.476,-7.15 c 2.354,0.105 4.679,0.258 7.026,0.475" /><path
       id="path50"
       style="fill:none;stroke:#231f20;stroke-width:0.5;stroke-linecap:butt;stroke-linejoin:round;stroke-miterlimit:4;stroke-dasharray:none;stroke-opacity:1"
       d="M 97.875,11.01 H 263.771" /><path
       id="path52"
       style="fill:#231f20;fill-opacity:1;fill-rule:nonzero;stroke:none"
       d="m 263.261,11.01 -1.095,1.801 0.061,0.041 2.938,-1.166 c 1.023,-0.226 2.046,-0.451 3.071,-0.676 -1.025,-0.225 -2.048,-0.45 -3.071,-0.676 l -2.938,-1.167 -0.061,0.031 1.095,1.812" /><path
       id="path54"
       style="fill:none;stroke:#231f20;stroke-width:0.5;stroke-linecap:butt;stroke-linejoin:round;stroke-miterlimit:4;stroke-dasharray:none;stroke-opacity:1"
       d="M 176.625,3.034 V 55.348" /><path
       id="path56"
       style="fill:#231f20;fill-opacity:1;fill-rule:nonzero;stroke:none"
       d="m 176.625,54.837 -1.801,-1.095 -0.041,0.062 1.167,2.937 c 0.225,1.024 0.45,2.047 0.675,3.071 0.226,-1.024 0.451,-2.047 0.676,-3.071 l 1.166,-2.937 -0.03,-0.062 -1.812,1.095" /><text
       id="text60"
       style="font-variant:normal;font-weight:normal;font-size:9.9630003px;font-family:CMR10;-inkscape-font-specification:CMR10;writing-mode:lr-tb;fill:#231f20;fill-opacity:1;fill-rule:nonzero;stroke:none"
       transform="matrix(1,0,0,-1,177.78,2.491)"><tspan
         id="tspan58"
         y="0"
         x="0">0</tspan></text>
<path
       id="path62"
       style="fill:#c6c8ca;fill-opacity:1;fill-rule:nonzero;stroke:none"
       d="m 265.555,38.034 h 18" /><path
       id="path64"
       style="fill:none;stroke:#231f20;stroke-width:0.5;stroke-linecap:butt;stroke-linejoin:miter;stroke-miterlimit:4;stroke-dasharray:none;stroke-opacity:1"
       d="m 265.555,38.034 h 18" /><g
       id="g66"><g
         clip-path="url(#clipPath72)"
         id="g68"><path
           id="path74"
           style="fill:none;stroke:#231f20;stroke-width:1;stroke-linecap:butt;stroke-linejoin:round;stroke-miterlimit:4;stroke-dasharray:none;stroke-opacity:1"
           d="m 123.051,80.747 c 6.485,-2.614 13.537,-3.231 20.45,-3.55 m -40.9,19.3 c 5.946,-6.48 12.114,-12.495 20.45,-15.75 m -40.876,33.95 c 7.719,-2.484 14.953,-12.392 20.426,-18.2 m -40.876,7.75 c 5.179,5.493 12.015,13.051 20.45,10.45 m -40.9,-30.35 c 8.047,5.265 13.99,12.915 20.45,19.9 m -40.9,-26.575 c 7.491,0.776 14.077,2.505 20.45,6.675 m -27.476,-7.15 c 2.353,0.104 4.679,0.258 7.026,0.475" /><path
           id="path76"
           style="fill:none;stroke:#231f20;stroke-width:0.5;stroke-linecap:butt;stroke-linejoin:round;stroke-miterlimit:4;stroke-dasharray:none;stroke-opacity:1"
           d="M 0,76.072 H 165.896" /></g></g><path
       id="path78"
       style="fill:#231f20;fill-opacity:1;fill-rule:nonzero;stroke:none"
       d="m 165.386,76.072 -1.095,1.801 0.061,0.041 2.938,-1.167 c 1.023,-0.224 2.046,-0.45 3.07,-0.675 -1.024,-0.225 -2.047,-0.45 -3.07,-0.675 l -2.938,-1.167 -0.061,0.031 1.095,1.811" /><path
       id="path80"
       style="fill:none;stroke:#231f20;stroke-width:0.5;stroke-linecap:butt;stroke-linejoin:round;stroke-miterlimit:4;stroke-dasharray:none;stroke-opacity:1"
       d="m 78.956,64.534 v 56.854" /><path
       id="path82"
       style="fill:#231f20;fill-opacity:1;fill-rule:nonzero;stroke:none"
       d="m 78.956,120.878 -1.801,-1.095 -0.041,0.062 1.167,2.937 c 0.225,1.024 0.45,2.047 0.675,3.071 0.226,-1.024 0.451,-2.047 0.676,-3.071 l 1.166,-2.937 -0.03,-0.062 -1.812,1.095" /><text
       id="text86"
       style="font-variant:normal;font-weight:normal;font-size:9.9630003px;font-family:CMR10;-inkscape-font-specification:CMR10;writing-mode:lr-tb;fill:#231f20;fill-opacity:1;fill-rule:nonzero;stroke:none"
       transform="matrix(1,0,0,-1,79.9053,67.5532)"><tspan
         id="tspan84"
         y="0"
         x="0">0</tspan></text>
<text
       id="text90"
       style="font-style:italic;font-variant:normal;font-weight:normal;font-size:9.9630003px;font-family:CMMI10;-inkscape-font-specification:CMMI10;writing-mode:lr-tb;fill:#231f20;fill-opacity:1;fill-rule:nonzero;stroke:none"
       transform="matrix(1,0,0,-1,93.555606,70.033987)"><tspan
         id="tspan88"
         y="0"
         x="0">z</tspan></text>
<text
       id="text94"
       style="font-variant:normal;font-weight:normal;font-size:6.97399998px;font-family:CMR7;-inkscape-font-specification:CMR7;writing-mode:lr-tb;fill:#231f20;fill-opacity:1;fill-rule:nonzero;stroke:none"
       transform="matrix(1,0,0,-1,98.188,68.5395)"><tspan
         id="tspan92"
         y="0"
         x="0">1</tspan></text>
<path
       id="path96"
       style="fill:#c6c8ca;fill-opacity:1;fill-rule:nonzero;stroke:none"
       d="m 176.389,50.534 1.986,-0.524 -1.986,0.524 0.962,-0.399" /><path
       id="path98"
       style="fill:none;stroke:#231f20;stroke-width:0.5;stroke-linecap:butt;stroke-linejoin:miter;stroke-miterlimit:4;stroke-dasharray:none;stroke-opacity:1"
       d="m 176.389,50.534 1.986,-0.524 -1.986,0.524 0.962,-0.399" /><path
       id="path100"
       style="fill:#231f20;fill-opacity:1;fill-rule:nonzero;stroke:none"
       d="M 380.468,12.152 V 40.467" /><path
       id="path102"
       style="fill:none;stroke:#231f20;stroke-width:0.5;stroke-linecap:butt;stroke-linejoin:miter;stroke-miterlimit:4;stroke-dasharray:none;stroke-opacity:1"
       d="M 380.468,12.152 V 40.467" /><path
       id="path104"
       style="fill:#c6c8ca;fill-opacity:1;fill-rule:nonzero;stroke:none"
       d="m 67.055,35.034 h 18" /><path
       id="path106"
       style="fill:none;stroke:#231f20;stroke-width:0.5;stroke-linecap:butt;stroke-linejoin:miter;stroke-miterlimit:4;stroke-dasharray:none;stroke-opacity:1"
       d="m 67.055,35.034 h 18" /><path
       id="path108"
       style="fill:#c6c8ca;fill-opacity:1;fill-rule:nonzero;stroke:none"
       d="m 67.055,40.034 h 18" /><path
       id="path110"
       style="fill:none;stroke:#231f20;stroke-width:0.5;stroke-linecap:butt;stroke-linejoin:miter;stroke-miterlimit:4;stroke-dasharray:none;stroke-opacity:1"
       d="m 67.055,40.034 h 18" /><path
       id="path112"
       style="fill:#231f20;fill-opacity:1;fill-rule:nonzero;stroke:none"
       d="M 274.221,29.7 V 45.867" /><path
       id="path114"
       style="fill:none;stroke:#231f20;stroke-width:0.5;stroke-linecap:butt;stroke-linejoin:miter;stroke-miterlimit:4;stroke-dasharray:none;stroke-opacity:1"
       d="M 274.221,29.7 V 45.867" /><path
       id="path116"
       style="fill:#231f20;fill-opacity:1;fill-rule:nonzero;stroke:none"
       d="m 95.555,76.284 v 28.563" /><path
       id="path118"
       style="fill:none;stroke:#231f20;stroke-width:0.5;stroke-linecap:butt;stroke-linejoin:miter;stroke-miterlimit:4;stroke-dasharray:none;stroke-opacity:1"
       d="m 95.555,76.284 v 28.563" /><text
       id="text124"
       style="font-variant:normal;font-weight:normal;font-size:9.9630003px;font-family:CMR10;-inkscape-font-specification:CMR10;writing-mode:lr-tb;fill:#231f20;fill-opacity:1;fill-rule:nonzero;stroke:none"
       transform="matrix(1,0,0,-1,107.555,58.0337)"><tspan
         id="tspan120"
         y="0"
         x="0 4.9815001 8.8770332 13.300605">area</tspan><tspan
         id="tspan122"
         y="0.50014257"
         x="22.500439 27.481939 30.24169">0.5</tspan></text>
<path
       id="path126"
       style="fill:#231f20;fill-opacity:1;fill-rule:nonzero;stroke:none"
       d="m 123.555,52.534 37,-26" /></g></svg>