<?xml version="1.0" encoding="UTF-8" standalone="no"?>
<svg
   xmlns:dc="http://purl.org/dc/elements/1.1/"
   xmlns:cc="http://creativecommons.org/ns#"
   xmlns:rdf="http://www.w3.org/1999/02/22-rdf-syntax-ns#"
   xmlns:svg="http://www.w3.org/2000/svg"
   xmlns="http://www.w3.org/2000/svg"
   viewBox="0 0 273.33334 126.66667"
   height="126.66667"
   width="273.33334"
   xml:space="preserve"
   id="svg2"
   version="1.1"><metadata
     id="metadata8"><rdf:RDF><cc:Work
         rdf:about=""><dc:format>image/svg+xml</dc:format><dc:type
           rdf:resource="http://purl.org/dc/dcmitype/StillImage" /></cc:Work></rdf:RDF></metadata><defs
     id="defs6"><clipPath
       id="clipPath24"
       clipPathUnits="userSpaceOnUse"><path
         id="path22"
         d="M 0,0 H 205 V 95 H 0 Z" /></clipPath></defs><g
     transform="matrix(1.3333333,0,0,-1.3333333,0,126.66667)"
     id="g10"><g
       id="g12" /><g
       id="g14" /><g
       id="g16"><g
         id="g18"><g
           clip-path="url(#clipPath24)"
           id="g20"><g
             id="g26" /><g
             id="g28"><path
               id="path30"
               style="fill:#bfbfbf;fill-opacity:1;fill-rule:nonzero;stroke:#000000;stroke-width:0.5;stroke-linecap:butt;stroke-linejoin:miter;stroke-miterlimit:4;stroke-dasharray:none;stroke-opacity:1"
               d="m 94.392006,65.842003 1.229996,-0.03 1.5,-0.182007 1.980003,-0.514992 0.989995,-0.364006 0.99001,-0.423996 1.22999,-0.637004 1.23001,-0.726998 0.75,-0.483997 1.25999,-0.879002 1.23001,-0.970005 0.98999,-0.817993 0.99001,-0.878002 0.99,-0.938999 1.22999,-1.181999 1.26,-1.273007 0.72001,-0.757996 0.914,-1.417999 1.096,-0.732998 V 18.669999 H 94.526001" /><path
               id="path32"
               style="fill:none;stroke:#000000;stroke-width:1;stroke-linecap:butt;stroke-linejoin:round;stroke-miterlimit:4;stroke-dasharray:none;stroke-opacity:1"
               d="M 148.06201,24.088001 148.332,23.968 l 0.24001,-0.09 0.24,-0.09 0.23999,-0.09 0.27001,-0.09 0.24,-0.09 0.23999,-0.09 0.24101,-0.09 0.269,-0.09 0.23999,-0.09 0.24101,-0.06 0.239,-0.09 0.26999,-0.09 0.24101,-0.06 0.239,-0.09 0.23999,-0.06 0.27101,-0.09 0.239,-0.06 0.23999,-0.06 0.24001,-0.09 0.27,-0.06 0.23999,-0.06 0.241,-0.06 0.26901,-0.06 0.23999,-0.09 0.241,-0.06 0.23901,-0.06 0.26999,-0.06 0.241,-0.06 0.23901,-0.03 0.23999,-0.06 0.271,-0.06 0.23901,-0.06 0.23999,-0.06 0.24001,-0.03 0.27,-0.06 0.23999,-0.06 0.24001,-0.03 0.23999,-0.06 0.27,-0.03 0.24001,-0.06 0.23999,-0.03 0.27,-0.06 0.24001,-0.03 0.23999,-0.06 0.24001,-0.03 0.27,-0.03 0.23999,-0.03 0.24001,-0.06 0.24,-0.03 0.26999,-0.03 0.24001,-0.03 0.24,-0.03 0.23999,-0.06 0.27001,-0.03 0.24,-0.029 0.23999,-0.031 0.24101,-0.03 0.269,-0.03 0.23999,-0.03 0.24101,-0.029 0.239,-0.031 0.26999,-0.03 0.24101,-0.03 h 0.239 l 0.26999,-0.03 0.24101,-0.029 0.239,-0.031 0.241,-0.03 h 0.27 l 0.239,-0.03 0.241,-0.03 0.24001,-0.03 h 0.26899 l 0.241,-0.03 0.24001,-0.03 h 0.23999 l 0.27,-0.03 h 0.24001 l 0.23999,-0.03 0.24,-0.03 h 0.27001 l 0.23999,-0.029 h 0.24 l 0.23999,-0.031 h 0.27001 l 0.24,-0.03 h 0.23999 l 0.27001,-0.03 h 0.24 l 0.23999,-0.029 h 0.51001 l 0.23999,-0.03 h 0.23901 l 0.241,-0.031 h 0.509 l 0.241,-0.03 m -49.08101,23.161001 0.27001,-0.271 0.24,-0.27 0.23999,-0.270001 0.24001,-0.27 0.27,-0.268997 0.23999,-0.241001 0.24001,-0.270001 0.24,-0.27 0.26999,-0.270001 0.24001,-0.27 0.24,-0.239998 0.26999,-0.270001 0.24001,-0.27 0.24,-0.240002 0.23999,-0.269996 0.27001,-0.240002 0.24,-0.269001 0.23999,-0.240997 0.24001,-0.270001 0.26999,-0.239002 0.24,-0.241001 0.24001,-0.239998 0.23999,-0.240002 0.27,-0.27 0.24001,-0.239998 0.23999,-0.240002 0.24001,-0.209999 0.27,-0.239998 0.23999,-0.240001 0.24001,-0.238999 0.24,-0.241001 0.26999,-0.209999 0.24001,-0.240002 0.24,-0.209999 0.26999,-0.240001 0.24001,-0.209999 0.24,-0.21 0.23999,-0.240001 0.27001,-0.209999 0.24,-0.209999 0.23999,-0.210003 0.24001,-0.209999 0.27,-0.209999 0.23999,-0.21 0.24001,-0.209999 0.24,-0.180002 0.26999,-0.209999 0.24001,-0.210001 0.24,-0.18 0.23999,-0.209999 0.27001,-0.180001 0.24,-0.18 0.23999,-0.209999 0.27001,-0.18 0.24,-0.180001 0.23999,-0.18 0.24001,-0.18 0.27,-0.180001 0.23999,-0.179998 0.24001,-0.150001 0.241,-0.179999 0.26899,-0.18 0.24001,-0.15 0.241,-0.18 0.23899,-0.150002 0.27001,-0.179998 0.241,-0.150002 0.23899,-0.149999 0.24001,-0.15 0.271,-0.149999 0.23899,-0.15 0.24001,-0.150002 0.23999,-0.149999 0.27,-0.15 0.24001,-0.149999 0.23999,-0.15 0.27,-0.120001 0.24001,-0.149999 0.23999,-0.120001 0.24001,-0.15 0.27,-0.119999 0.23999,-0.120001 0.24001,-0.149999 0.24,-0.120001 0.26999,-0.119999 0.24001,-0.120001 0.24,-0.120001 0.23999,-0.119999 0.27001,-0.120001 0.24,-0.119998 0.23999,-0.09 0.24001,-0.12 0.27,-0.119999 0.23999,-0.09 0.24001,-0.12 0.24099,-0.09 0.269,-0.119998 0.24001,-0.09 0.24099,-0.09" /><path
               id="path34"
               style="fill:none;stroke:#000000;stroke-width:1;stroke-linecap:butt;stroke-linejoin:round;stroke-miterlimit:4;stroke-dasharray:none;stroke-opacity:1"
               d="m 99.011002,64.829002 0.241005,-0.09 0.239997,-0.091 0.238999,-0.06 0.271007,-0.120003 0.23999,-0.09 0.239,-0.08901 0.24101,-0.119995 0.26999,-0.09 0.239,-0.119999 0.48101,-0.241001 0.26899,-0.119999 0.24101,-0.119999 0.24,-0.150001 0.23999,-0.119 0.27001,-0.150001 0.24,-0.149998 0.23999,-0.150001 0.24,-0.150002 0.27001,-0.149998 0.23999,-0.150001 0.24,-0.181 0.27001,-0.18 0.23999,-0.149998 0.24,-0.179001 0.24001,-0.180999 0.26999,-0.179001 0.24,-0.181 0.24001,-0.18 0.23999,-0.209999 0.27,-0.179001 0.24001,-0.210999 0.23999,-0.210003 0.24,-0.178997 0.27001,-0.211002 0.23999,-0.209 0.24,-0.210998 0.23901,-0.239003 0.27099,-0.210998 0.24,-0.209 0.23901,-0.241001 0.241,-0.208999 0.26999,-0.241002 0.24001,-0.239997 0.24,-0.21 0.26999,-0.239002 0.24001,-0.241001 0.24,-0.238998 0.23999,-0.240002 0.27001,-0.240997 0.24,-0.269001 0.23999,-0.240002 0.24,-0.240997 0.27001,-0.270001 0.23999,-0.239002 0.24,-0.271 0.24001,-0.239998 0.26999,-0.269001 0.24,-0.271 0.24001,-0.239998 0.24,-0.27 0.26999,-0.27 0.48001,-0.540001 0.27,-0.270001 0.24,-0.27 0.24,-0.270001 0.23999,-0.27 0.27001,-0.269997 0.24,-0.27 0.23999,-0.270001 0.24001,-0.269001 0.27,-0.271 0.23999,-0.298999 0.24001,-0.271 0.24,-0.270001 0.26999,-0.27 0.24001,-0.3 0.24,-0.269001 0.23999,-0.27 0.27001,-0.271 0.24,-0.299999 0.23999,-0.270001 0.24,-0.27 0.27001,-0.299999 0.47999,-0.540001 0.27001,-0.270001 0.23999,-0.299999 0.24,-0.27 0.24101,-0.269997 0.26899,-0.27 0.24001,-0.299 0.241,-0.270001 0.239,-0.271 0.27,-0.27 0.241,-0.270001 0.239,-0.27 0.23999,-0.299999 m -49.050999,9.300998 0.240005,0.270001 0.240997,0.269001 0.238999,0.27 0.270004,0.271 0.240997,0.270001 0.238999,0.27 0.241005,0.238999 0.269996,0.271 0.238999,0.269001 0.241005,0.239997 0.269996,0.270001 0.238999,0.240002 0.241005,0.239997 0.239998,0.270001 0.268997,0.240002 0.241005,0.239997 0.239998,0.241002 0.238998,0.240001 0.271004,0.238999 0.239998,0.241001 0.238998,0.238998 0.239998,0.241001 0.271004,0.209 0.238998,0.240002 0.239998,0.210998 0.240005,0.239998 0.269997,0.210003 0.239998,0.209 0.240005,0.209999 0.239998,0.241001 0.269997,0.179001 0.240005,0.210998 0.239998,0.209999 0.269997,0.209 0.241005,0.181 0.238998,0.208999 0.240998,0.181 0.270004,0.179001 0.238998,0.181 0.240998,0.18 0.239006,0.18 0.269996,0.180001 0.240998,0.149002 0.239006,0.179996 0.240997,0.150002 0.269997,0.150001 0.239006,0.181 0.240997,0.149998 0.239998,0.118999 0.269005,0.150002 0.240997,0.150001 0.239998,0.120999 0.239998,0.149002 0.270004,0.119999 0.239998,0.120998 0.239998,0.120003 0.270004,0.118999 0.239998,0.091 0.239998,0.120003 0.240005,0.089 0.269997,0.09 0.239998,0.121002 0.240005,0.089 0.239998,0.061 0.269997,0.089 0.240005,0.091 0.239998,0.05901 0.239998,0.061 0.270004,0.059 0.239998,0.061 0.239998,0.059 0.240005,0.06 0.269997,0.031 0.239998,0.03001 0.240005,0.029 0.269997,0.031 0.239998,0.029 0.240005,0.031 0.239998,0.03 h 1.5 l 0.238999,-0.03 h 0.240997 l 0.270004,-0.031 0.238999,-0.029 0.240997,-0.031 0.240006,-0.05901 0.268997,-0.031 0.240997,-0.06 0.240006,-0.029 0.239997,-0.061 0.269997,-0.059 0.240006,-0.06 0.239997,-0.09 0.269997,-0.06" /><path
               id="path36"
               style="fill:none;stroke:#000000;stroke-width:1;stroke-linecap:butt;stroke-linejoin:round;stroke-miterlimit:4;stroke-dasharray:none;stroke-opacity:1"
               d="m 49.931004,28.408001 0.239997,0.15 0.240002,0.18 0.270001,0.149999 0.239997,0.180001 0.48,0.36 0.27,0.15 0.240002,0.18 0.239998,0.180001 0.240002,0.180999 0.27,0.179001 0.239998,0.209999 0.240002,0.180001 0.240001,0.180999 0.269997,0.179001 0.240002,0.209999 0.240001,0.180001 0.239998,0.209999 0.270001,0.210001 0.240001,0.18 0.239998,0.209999 0.270001,0.209999 0.240001,0.211003 0.239998,0.208999 0.240002,0.209999 0.27,0.209999 0.239998,0.210003 0.240002,0.209999 0.239998,0.239998 0.27,0.211003 0.240002,0.208999 0.239998,0.241001 0.240001,0.209 0.270001,0.239998 0.239998,0.240001 0.240001,0.210999 0.241002,0.239002 0.268997,0.239998 0.240001,0.241001 0.241002,0.238999 0.238998,0.240001 0.27,0.239998 0.241002,0.240002 0.238998,0.240002 0.27,0.269996 0.241002,0.240002 0.238998,0.240002 0.241001,0.269996 0.270001,0.240002 0.238998,0.240002 0.241001,0.269996 0.238999,0.270001 0.27,0.240001 0.241001,0.271 0.238999,0.238999 0.240001,0.27 0.271,0.271 0.238999,0.27 0.239997,0.270001 0.240006,0.269001 0.269997,0.27 0.239997,0.239998 0.240006,0.271 0.239998,0.269001 0.269996,0.299999 0.240006,0.270001 0.239998,0.27 0.269996,0.271 0.720002,0.808998 0.270004,0.300003 0.239998,0.271 0.239998,0.270001 0.239997,0.269996 0.270005,0.300003 0.239998,0.268998 0.240005,0.27 0.239998,0.271 0.269997,0.299 0.241005,0.27 0.238998,0.271 0.239998,0.299999 0.271004,0.269001 0.238998,0.270001 0.239998,0.27 0.271004,0.300999 0.238998,0.27 0.479996,0.539002 0.270004,0.299999 0.239998,0.270001 0.239998,0.271 0.240005,0.269001 0.269997,0.270999 0.239998,0.268998 0.240005,0.27 0.240997,0.271 0.268998,0.27 m -49.08,-31.891 0.24,0.03 0.239999,0.03 0.270001,0.03 0.24,0.03 0.240001,0.03 0.24,0.03 0.269999,0.03 0.240001,0.03 0.24,0.03 0.269999,0.03 0.240001,0.03 0.24,0.03 0.24,0.03 0.27,0.03 0.24,0.06 0.24,0.03 0.24,0.03 0.27,0.03 0.24,0.06 0.24,0.03 0.239999,0.03 0.270001,0.06 0.24,0.03 0.239999,0.06 0.24,0.03 0.270001,0.06 0.239999,0.03 0.240002,0.06 0.239998,0.03 0.27,0.06 0.240002,0.06 0.239998,0.06 0.27,0.03 0.240002,0.06 0.239998,0.06 0.240002,0.06 0.27,0.06 0.239998,0.06 0.240002,0.06 0.239997,0.06 0.270001,0.06 0.240002,0.06 0.239997,0.06 0.240002,0.06 0.270001,0.09 0.239997,0.06 0.240002,0.06 0.239998,0.09 0.27,0.06 0.240002,0.06 0.239998,0.09 0.240002,0.09 0.27,0.06 0.240002,0.09 0.239998,0.09 0.27,0.06 0.240002,0.09 0.239998,0.09 0.240001,0.09 0.270001,0.09 0.239998,0.09 0.240001,0.09 0.239998,0.09 0.270001,0.09 0.240001,0.09 0.239998,0.119999 0.240002,0.09 0.27,0.120001 0.239998,0.09 0.240002,0.09 0.239998,0.119999 0.27,0.120001 0.240002,0.09 0.239998,0.119999 0.240001,0.120001 0.270001,0.119999 0.239998,0.12 0.240001,0.119999 0.270001,0.120001 0.239998,0.120001 0.240001,0.119999 0.240002,0.120001 0.269997,0.119999 0.240001,0.149999 0.240002,0.120001 0.239998,0.15 0.27,0.120001 0.240002,0.149999 0.239998,0.15 0.240002,0.120001 0.27,0.149999 0.239998,0.15 0.240002,0.15 0.239997,0.150001 0.270001,0.15 0.240002,0.149999 0.239997,0.15 0.270001,0.18 0.240002,0.15" /><path
               id="path38"
               style="fill:none;stroke:#000000;stroke-width:1;stroke-linecap:butt;stroke-linejoin:round;stroke-miterlimit:4;stroke-dasharray:none;stroke-opacity:1"
               d="m 16.961,19.828001 h 0.24 l 0.270001,0.03 H 17.711 l 0.24,0.03 h 0.51 l 0.24,0.03 h 0.238999 l 0.241003,0.03 H 19.451 l 0.238999,0.03 h 0.241003 l 0.239999,0.03 h 0.268998 l 0.241003,0.03 h 0.239999 l 0.24,0.03 h 0.270001 l 0.239999,0.03 h 0.24 l 0.24,0.03 0.27,0.03 h 0.24 l 0.24,0.03 0.27,0.03 h 0.24 l 0.24,0.03 0.24,0.03 h 0.27 l 0.24,0.03 0.24,0.03 0.24,0.03 0.27,0.03 h 0.24" /><path
               id="path40"
               style="fill:none;stroke:#000000;stroke-width:0.5;stroke-linecap:butt;stroke-linejoin:round;stroke-miterlimit:4;stroke-dasharray:none;stroke-opacity:1"
               d="M 0.40100002,18.479 H 199.47701" /><path
               id="path42"
               style="fill:#000000;fill-opacity:1;fill-rule:nonzero;stroke:none"
               d="m 198.86401,18.479 -1.31401,2.160999 0.074,0.05 3.52499,-1.400998 c 1.22801,-0.27 2.45601,-0.54 3.68401,-0.810001 -1.228,-0.271 -2.456,-0.540998 -3.68401,-0.810999 l -3.52499,-1.399999 -0.074,0.036 1.31401,2.174999" /><path
               id="path44"
               style="fill:none;stroke:#000000;stroke-width:0.5;stroke-linecap:butt;stroke-linejoin:round;stroke-miterlimit:4;stroke-dasharray:none;stroke-opacity:1"
               d="M 94.677002,0.15400001 V 88.954002" /><path
               id="path46"
               style="fill:#000000;fill-opacity:1;fill-rule:nonzero;stroke:none"
               d="M 94.677002,88.342003 92.515007,87.027 l -0.049,0.07401 1.400002,3.525001 c 0.269997,1.227997 0.540001,2.455994 0.810997,3.684998 0.270004,-1.229004 0.540001,-2.457001 0.810005,-3.684998 l 1.399994,-3.525001 -0.03599,-0.07401 -2.174004,1.315003" /><text
               id="text50"
               style="font-variant:normal;font-weight:normal;font-size:11.95559978px;font-family:CMR10;-inkscape-font-specification:CMR10;writing-mode:lr-tb;fill:#000000;fill-opacity:1;fill-rule:nonzero;stroke:none"
               transform="matrix(1,0,0,-1,96.288101,8.2558994)"><tspan
                 id="tspan48"
                 y="0"
                 x="0">0</tspan></text>
<text
               id="text54"
               style="font-variant:normal;font-weight:normal;font-size:11.95559978px;font-family:CMMI10;-inkscape-font-specification:CMMI10;writing-mode:lr-tb;fill:#000000;fill-opacity:1;fill-rule:nonzero;stroke:none"
               transform="matrix(1,0,0,-1,111.52671,9.8651228)"><tspan
                 id="tspan52"
                 y="0"
                 x="0">z</tspan></text>
<text
               id="text58"
               style="font-variant:normal;font-weight:normal;font-size:8.36880016px;font-family:CMR7;-inkscape-font-specification:CMR7;writing-mode:lr-tb;fill:#000000;fill-opacity:1;fill-rule:nonzero;stroke:none"
               transform="matrix(1,0,0,-1,117.08739,8.0718002)"><tspan
                 id="tspan56"
                 y="0"
                 x="0">1</tspan></text>
</g></g></g></g></g></svg>