<?xml version="1.0" encoding="UTF-8" standalone="no"?>
<svg
   xmlns:dc="http://purl.org/dc/elements/1.1/"
   xmlns:cc="http://creativecommons.org/ns#"
   xmlns:rdf="http://www.w3.org/1999/02/22-rdf-syntax-ns#"
   xmlns:svg="http://www.w3.org/2000/svg"
   xmlns="http://www.w3.org/2000/svg"
   viewBox="0 0 500 146.66667"
   height="146.66667"
   width="500"
   xml:space="preserve"
   id="svg2"
   version="1.1"><metadata
     id="metadata8"><rdf:RDF><cc:Work
         rdf:about=""><dc:format>image/svg+xml</dc:format><dc:type
           rdf:resource="http://purl.org/dc/dcmitype/StillImage" /></cc:Work></rdf:RDF></metadata><defs
     id="defs6"><clipPath
       id="clipPath24"
       clipPathUnits="userSpaceOnUse"><path
         id="path22"
         d="M 0,0 H 375 V 110 H 0 Z" /></clipPath><clipPath
       id="clipPath38"
       clipPathUnits="userSpaceOnUse"><path
         id="path36"
         d="M 0.06,0 H 374.5 V 109.063 H 0.06 Z" /></clipPath><clipPath
       id="clipPath320"
       clipPathUnits="userSpaceOnUse"><path
         id="path318"
         d="M 0.06,0 H 374.5 V 109.063 H 0.06 Z" /></clipPath></defs><g
     transform="matrix(1.3333333,0,0,-1.3333333,0,146.66667)"
     id="g10"><g
       id="g12" /><g
       id="g14" /><g
       id="g16"><g
         id="g18"><g
           clip-path="url(#clipPath24)"
           id="g20"><g
             id="g26" /><g
             id="g28"><path
               id="path30"
               style="fill:#ffffff;fill-opacity:1;fill-rule:nonzero;stroke:none"
               d="m 27.927002,94.418007 -2.16,-10.5 -1.368,10.5 -2.016001,-5.25 H 1.5" /></g><g
             id="g32"><g
               clip-path="url(#clipPath38)"
               id="g34"><path
                 id="path40"
                 style="fill:none;stroke:#231f20;stroke-width:1;stroke-linecap:butt;stroke-linejoin:miter;stroke-miterlimit:4;stroke-dasharray:none;stroke-opacity:1"
                 d="m 27.927002,94.418007 -2.16,-10.5 -1.368,10.5 -2.016001,-5.25 H 1.5" /></g></g><g
             id="g42"><path
               id="path44"
               style="fill:#ffffff;fill-opacity:1;fill-rule:nonzero;stroke:none"
               d="M 27.889999,94.418007 29.51,84.068001 l 2.16,10.200004 1.530001,-10.349998 1.619999,10.5 1.349998,-10.350006 1.350002,10.200004 2.07,-10.200004 1.98,5.25 H 58.5 v -7.5" /><path
               id="path46"
               style="fill:none;stroke:#231f20;stroke-width:1;stroke-linecap:butt;stroke-linejoin:miter;stroke-miterlimit:4;stroke-dasharray:none;stroke-opacity:1"
               d="M 27.889999,94.418007 29.51,84.068001 l 2.16,10.200004 1.530001,-10.349998 1.619999,10.5 1.349998,-10.350006 1.350002,10.200004 2.07,-10.200004 1.98,5.25 H 58.5 v -7.5" /><path
               id="path48"
               style="fill:#ffffff;fill-opacity:1;fill-rule:nonzero;stroke:none"
               d="m 223.45,81.818001 h 27.3 v -39 h -27.3 z" /><path
               id="path50"
               style="fill:none;stroke:#231f20;stroke-width:1;stroke-linecap:butt;stroke-linejoin:miter;stroke-miterlimit:4;stroke-dasharray:none;stroke-opacity:1"
               d="m 223.45,81.818001 h 27.3 v -39 h -27.3 z" /><path
               id="path52"
               style="fill:#ffffff;fill-opacity:1;fill-rule:nonzero;stroke:none"
               d="m 250.75,81.818001 h 27.29999 v -39 H 250.75 Z" /><path
               id="path54"
               style="fill:none;stroke:#231f20;stroke-width:1;stroke-linecap:butt;stroke-linejoin:miter;stroke-miterlimit:4;stroke-dasharray:none;stroke-opacity:1"
               d="m 250.75,81.818001 h 27.29999 v -39 H 250.75 Z" /><path
               id="path56"
               style="fill:#ffffff;fill-opacity:1;fill-rule:nonzero;stroke:none"
               d="m 278.28403,81.818001 h 27.29999 v -39 h -27.29999 z" /><path
               id="path58"
               style="fill:none;stroke:#231f20;stroke-width:1;stroke-linecap:butt;stroke-linejoin:miter;stroke-miterlimit:4;stroke-dasharray:none;stroke-opacity:1"
               d="m 278.28403,81.818001 h 27.29998 v -39 h -27.29998 z" /><path
               id="path60"
               style="fill:#ffffff;fill-opacity:1;fill-rule:nonzero;stroke:none"
               d="m 305.81702,81.818001 h 27.29999 v -39 h -27.29999 z" /><path
               id="path62"
               style="fill:none;stroke:#231f20;stroke-width:1;stroke-linecap:butt;stroke-linejoin:miter;stroke-miterlimit:4;stroke-dasharray:none;stroke-opacity:1"
               d="M 305.81702,81.818001 H 333.117 v -39 h -27.29998 z" /><path
               id="path64"
               style="fill:#ffffff;fill-opacity:1;fill-rule:nonzero;stroke:none"
               d="m 58.717003,81.818001 h 27.300003 v -39 H 58.717003 Z" /><path
               id="path66"
               style="fill:none;stroke:#231f20;stroke-width:1;stroke-linecap:butt;stroke-linejoin:miter;stroke-miterlimit:4;stroke-dasharray:none;stroke-opacity:1"
               d="m 58.717003,81.818001 h 27.300003 v -39 H 58.717003" /><path
               id="path68"
               style="fill:#ffffff;fill-opacity:1;fill-rule:nonzero;stroke:none"
               d="m 86.017006,81.818001 h 27.300004 v -39 H 86.017006 Z" /><path
               id="path70"
               style="fill:none;stroke:#231f20;stroke-width:1;stroke-linecap:butt;stroke-linejoin:miter;stroke-miterlimit:4;stroke-dasharray:none;stroke-opacity:1"
               d="m 86.017006,81.818001 h 27.300004 v -39 H 86.017006 Z" /><path
               id="path72"
               style="fill:#ffffff;fill-opacity:1;fill-rule:nonzero;stroke:none"
               d="m 113.551,81.818001 h 27.29999 v -39 H 113.551 Z" /><path
               id="path74"
               style="fill:none;stroke:#231f20;stroke-width:1;stroke-linecap:butt;stroke-linejoin:miter;stroke-miterlimit:4;stroke-dasharray:none;stroke-opacity:1"
               d="m 113.551,81.818001 h 27.3 v -39 h -27.3 z" /><path
               id="path76"
               style="fill:#ffffff;fill-opacity:1;fill-rule:nonzero;stroke:none"
               d="m 141.084,81.818001 h 27.3 v -39 h -27.3 z" /><path
               id="path78"
               style="fill:none;stroke:#231f20;stroke-width:1;stroke-linecap:butt;stroke-linejoin:miter;stroke-miterlimit:4;stroke-dasharray:none;stroke-opacity:1"
               d="m 141.084,81.818001 h 27.3 v -39 h -27.3 z" /><path
               id="path80"
               style="fill:#ffffff;fill-opacity:1;fill-rule:nonzero;stroke:none"
               d="m 168.384,81.818001 h 27.3 v -39 h -27.3 z" /><path
               id="path82"
               style="fill:none;stroke:#231f20;stroke-width:1;stroke-linecap:butt;stroke-linejoin:miter;stroke-miterlimit:4;stroke-dasharray:none;stroke-opacity:1"
               d="m 168.384,81.818001 h 27.30001 v -39 H 168.384 Z" /><path
               id="path84"
               style="fill:#ffffff;fill-opacity:1;fill-rule:nonzero;stroke:none"
               d="m 195.91801,81.818001 h 27.299 v -39 h -27.299 z" /><path
               id="path86"
               style="fill:none;stroke:#231f20;stroke-width:1;stroke-linecap:butt;stroke-linejoin:miter;stroke-miterlimit:4;stroke-dasharray:none;stroke-opacity:1"
               d="m 195.91801,81.818001 h 27.299 v -39 h -27.299 z" /><path
               id="path88"
               style="fill:#ffffff;fill-opacity:1;fill-rule:nonzero;stroke:none"
               d="m 80.521004,58.633003 10.5,-2.16 -10.5,-1.368 5.25,-2.016002 v -2.16" /><path
               id="path90"
               style="fill:none;stroke:#231f20;stroke-width:1;stroke-linecap:butt;stroke-linejoin:miter;stroke-miterlimit:4;stroke-dasharray:none;stroke-opacity:1"
               d="m 80.521004,58.633003 10.5,-2.16 -10.5,-1.368 5.25,-2.016002 v -2.16" /><path
               id="path92"
               style="fill:#ffffff;fill-opacity:1;fill-rule:nonzero;stroke:none"
               d="m 85.622002,74.707001 v -2.431 l 5.25,-1.979996 -10.199997,-2.069999 10.199997,-1.350007 -10.350998,-1.349998 10.5,-1.619 -10.348999,-1.530998 10.199997,-2.16 -10.350998,-1.619999" /><path
               id="path94"
               style="fill:none;stroke:#231f20;stroke-width:1;stroke-linecap:butt;stroke-linejoin:miter;stroke-miterlimit:4;stroke-dasharray:none;stroke-opacity:1"
               d="m 85.622002,74.707001 v -2.431 l 5.25,-1.979996 -10.199997,-2.069999 10.199997,-1.350007 -10.350998,-1.349998 10.5,-1.619 -10.348999,-1.530998 10.199997,-2.16 -10.350998,-1.619999" /><path
               id="path96"
               style="fill:#ffffff;fill-opacity:1;fill-rule:nonzero;stroke:none"
               d="m 108.022,58.633003 10.5,-2.16 -10.5,-1.368 5.25,-2.016002 v -2.16" /><path
               id="path98"
               style="fill:none;stroke:#231f20;stroke-width:1;stroke-linecap:butt;stroke-linejoin:miter;stroke-miterlimit:4;stroke-dasharray:none;stroke-opacity:1"
               d="m 108.022,58.633003 10.5,-2.16 -10.5,-1.368 5.25,-2.016002 v -2.16" /><path
               id="path100"
               style="fill:#ffffff;fill-opacity:1;fill-rule:nonzero;stroke:none"
               d="m 113.12301,74.707001 v -2.431 l 5.25,-1.979996 -10.20101,-2.069999 10.20101,-1.350007 -10.35101,-1.349998 10.5,-1.619 -10.35,-1.530998 10.20101,-2.16 -10.35101,-1.619999" /><path
               id="path102"
               style="fill:none;stroke:#231f20;stroke-width:1;stroke-linecap:butt;stroke-linejoin:miter;stroke-miterlimit:4;stroke-dasharray:none;stroke-opacity:1"
               d="m 113.12301,74.707001 v -2.431 l 5.25,-1.979996 -10.20101,-2.069999 10.20101,-1.350007 -10.35101,-1.349998 10.5,-1.619 -10.35,-1.530998 10.20101,-2.16 -10.35101,-1.619999" /><path
               id="path104"
               style="fill:#ffffff;fill-opacity:1;fill-rule:nonzero;stroke:none"
               d="m 135.522,58.633003 10.5,-2.16 -10.5,-1.368 5.25,-2.016002 v -2.16" /><path
               id="path106"
               style="fill:none;stroke:#231f20;stroke-width:1;stroke-linecap:butt;stroke-linejoin:miter;stroke-miterlimit:4;stroke-dasharray:none;stroke-opacity:1"
               d="m 135.522,58.633003 10.5,-2.16 -10.5,-1.368 5.25,-2.016002 v -2.16" /><path
               id="path108"
               style="fill:#ffffff;fill-opacity:1;fill-rule:nonzero;stroke:none"
               d="m 140.623,74.707001 v -2.431 l 5.25,-1.979996 -10.20099,-2.069999 10.20099,-1.350007 -10.351,-1.349998 10.5,-1.619 -10.34999,-1.530998 10.20099,-2.16 -10.351,-1.619999" /><path
               id="path110"
               style="fill:none;stroke:#231f20;stroke-width:1;stroke-linecap:butt;stroke-linejoin:miter;stroke-miterlimit:4;stroke-dasharray:none;stroke-opacity:1"
               d="m 140.623,74.707001 v -2.431 l 5.25,-1.979996 -10.20099,-2.069999 10.20099,-1.350007 -10.351,-1.349998 10.5,-1.619 -10.34999,-1.530998 10.20099,-2.16 -10.351,-1.619999" /><path
               id="path112"
               style="fill:#ffffff;fill-opacity:1;fill-rule:nonzero;stroke:none"
               d="m 163.022,58.133003 10.5,-2.16 -10.5,-1.368 5.25,-2.016002 v -2.16" /><path
               id="path114"
               style="fill:none;stroke:#231f20;stroke-width:1;stroke-linecap:butt;stroke-linejoin:miter;stroke-miterlimit:4;stroke-dasharray:none;stroke-opacity:1"
               d="m 163.022,58.133003 10.5,-2.16 -10.5,-1.368 5.25,-2.016002 v -2.16" /><path
               id="path116"
               style="fill:#ffffff;fill-opacity:1;fill-rule:nonzero;stroke:none"
               d="m 168.123,74.207001 v -2.431 l 5.25,-1.979996 -10.20099,-2.069999 10.20099,-1.350007 -10.351,-1.349998 10.5,-1.619 -10.34999,-1.530998 10.20099,-2.16 -10.351,-1.619999" /><path
               id="path118"
               style="fill:none;stroke:#231f20;stroke-width:1;stroke-linecap:butt;stroke-linejoin:miter;stroke-miterlimit:4;stroke-dasharray:none;stroke-opacity:1"
               d="m 168.123,74.207001 v -2.431 l 5.25,-1.979996 -10.20099,-2.069999 10.20099,-1.350007 -10.351,-1.349998 10.5,-1.619 -10.34999,-1.530998 10.20099,-2.16 -10.351,-1.619999" /><path
               id="path120"
               style="fill:#ffffff;fill-opacity:1;fill-rule:nonzero;stroke:none"
               d="m 190.522,58.133003 10.5,-2.16 -10.5,-1.368 5.25,-2.016002 v -2.16" /><path
               id="path122"
               style="fill:none;stroke:#231f20;stroke-width:1;stroke-linecap:butt;stroke-linejoin:miter;stroke-miterlimit:4;stroke-dasharray:none;stroke-opacity:1"
               d="m 190.522,58.133003 10.5,-2.16 -10.5,-1.368 5.25,-2.016002 v -2.16" /><path
               id="path124"
               style="fill:#ffffff;fill-opacity:1;fill-rule:nonzero;stroke:none"
               d="m 195.62302,74.207001 v -2.431 l 5.25,-1.979996 -10.20101,-2.069999 10.20101,-1.350007 -10.35102,-1.349998 10.5,-1.619 -10.34999,-1.530998 10.20101,-2.16 -10.35102,-1.619999" /><path
               id="path126"
               style="fill:none;stroke:#231f20;stroke-width:1;stroke-linecap:butt;stroke-linejoin:miter;stroke-miterlimit:4;stroke-dasharray:none;stroke-opacity:1"
               d="m 195.62302,74.207001 v -2.431 l 5.25,-1.979996 -10.20101,-2.069999 10.20101,-1.350007 -10.35102,-1.349998 10.5,-1.619 -10.34999,-1.530998 10.20101,-2.16 -10.35102,-1.619999" /><path
               id="path128"
               style="fill:#ffffff;fill-opacity:1;fill-rule:nonzero;stroke:none"
               d="m 218.022,57.633003 10.50002,-2.16 -10.50002,-1.368 5.25,-2.016002 v -2.16" /><path
               id="path130"
               style="fill:none;stroke:#231f20;stroke-width:1;stroke-linecap:butt;stroke-linejoin:miter;stroke-miterlimit:4;stroke-dasharray:none;stroke-opacity:1"
               d="m 218.022,57.633003 10.50002,-2.16 -10.50002,-1.368 5.25,-2.016002 v -2.16" /><path
               id="path132"
               style="fill:#ffffff;fill-opacity:1;fill-rule:nonzero;stroke:none"
               d="m 223.12302,73.707001 v -2.431 l 5.25,-1.979996 -10.20101,-2.069999 10.20101,-1.350007 -10.35102,-1.349998 10.50002,-1.619 -10.35001,-1.530998 10.20101,-2.16 -10.35102,-1.619999" /><path
               id="path134"
               style="fill:none;stroke:#231f20;stroke-width:1;stroke-linecap:butt;stroke-linejoin:miter;stroke-miterlimit:4;stroke-dasharray:none;stroke-opacity:1"
               d="m 223.12302,73.707001 v -2.431 l 5.25,-1.979996 -10.20101,-2.069999 10.20101,-1.350007 -10.35102,-1.349998 10.50002,-1.619 -10.35001,-1.530998 10.20101,-2.16 -10.35102,-1.619999" /><path
               id="path136"
               style="fill:#ffffff;fill-opacity:1;fill-rule:nonzero;stroke:none"
               d="m 245.52202,58.133003 10.49998,-2.16 -10.49998,-1.368 5.25,-2.016002 v -2.16" /><path
               id="path138"
               style="fill:none;stroke:#231f20;stroke-width:1;stroke-linecap:butt;stroke-linejoin:miter;stroke-miterlimit:4;stroke-dasharray:none;stroke-opacity:1"
               d="m 245.52202,58.133003 10.49998,-2.16 -10.49998,-1.368 5.25,-2.016002 v -2.16" /><path
               id="path140"
               style="fill:#ffffff;fill-opacity:1;fill-rule:nonzero;stroke:none"
               d="m 250.62302,74.207001 v -2.431 l 5.25,-1.979996 -10.20101,-2.069999 10.20101,-1.350007 -10.351,-1.349998 10.49998,-1.619 -10.34999,-1.530998 10.20101,-2.16 -10.351,-1.619999" /><path
               id="path142"
               style="fill:none;stroke:#231f20;stroke-width:1;stroke-linecap:butt;stroke-linejoin:miter;stroke-miterlimit:4;stroke-dasharray:none;stroke-opacity:1"
               d="m 250.62302,74.207001 v -2.431 l 5.25,-1.979996 -10.20101,-2.069999 10.20101,-1.350007 -10.351,-1.349998 10.49998,-1.619 -10.34999,-1.530998 10.20101,-2.16 -10.351,-1.619999" /><path
               id="path144"
               style="fill:#ffffff;fill-opacity:1;fill-rule:nonzero;stroke:none"
               d="m 272.522,58.633003 10.5,-2.16 -10.5,-1.368 5.25,-2.016002 v -2.16" /><path
               id="path146"
               style="fill:none;stroke:#231f20;stroke-width:1;stroke-linecap:butt;stroke-linejoin:miter;stroke-miterlimit:4;stroke-dasharray:none;stroke-opacity:1"
               d="m 272.522,58.633003 10.5,-2.16 -10.5,-1.368 5.25,-2.016002 v -2.16" /><path
               id="path148"
               style="fill:#ffffff;fill-opacity:1;fill-rule:nonzero;stroke:none"
               d="m 277.62302,74.707001 v -2.431 l 5.25,-1.979996 -10.20099,-2.069999 10.20099,-1.350007 -10.35102,-1.349998 10.5,-1.619 -10.34997,-1.530998 10.20099,-2.16 -10.35102,-1.619999" /><path
               id="path150"
               style="fill:none;stroke:#231f20;stroke-width:1;stroke-linecap:butt;stroke-linejoin:miter;stroke-miterlimit:4;stroke-dasharray:none;stroke-opacity:1"
               d="m 277.62302,74.707001 v -2.431 l 5.25,-1.979996 -10.20099,-2.069999 10.20099,-1.350007 -10.35102,-1.349998 10.5,-1.619 -10.34997,-1.530998 10.20099,-2.16 -10.35102,-1.619999" /><path
               id="path152"
               style="fill:#ffffff;fill-opacity:1;fill-rule:nonzero;stroke:none"
               d="m 300.522,58.633003 10.5,-2.16 -10.5,-1.368 5.25,-2.016002 v -2.16" /><path
               id="path154"
               style="fill:none;stroke:#231f20;stroke-width:1;stroke-linecap:butt;stroke-linejoin:miter;stroke-miterlimit:4;stroke-dasharray:none;stroke-opacity:1"
               d="m 300.522,58.633003 10.5,-2.16 -10.5,-1.368 5.25,-2.016002 v -2.16" /><path
               id="path156"
               style="fill:#ffffff;fill-opacity:1;fill-rule:nonzero;stroke:none"
               d="m 305.62302,74.707001 v -2.431 l 5.25,-1.979996 -10.20099,-2.069999 10.20099,-1.350007 -10.35102,-1.349998 10.5,-1.619 -10.34997,-1.530998 10.20099,-2.16 -10.35102,-1.619999" /><path
               id="path158"
               style="fill:none;stroke:#231f20;stroke-width:1;stroke-linecap:butt;stroke-linejoin:miter;stroke-miterlimit:4;stroke-dasharray:none;stroke-opacity:1"
               d="m 305.62302,74.707001 v -2.431 l 5.25,-1.979996 -10.20099,-2.069999 10.20099,-1.350007 -10.35102,-1.349998 10.5,-1.619 -10.34997,-1.530998 10.20099,-2.16 -10.35102,-1.619999" /><path
               id="path160"
               style="fill:#ffffff;fill-opacity:1;fill-rule:nonzero;stroke:none"
               d="m 332.62302,74.707001 v -2.431 l 5.25,-1.979996 -10.20099,-2.069999 10.20099,-1.350007 -10.35102,-1.349998 10.5,-1.619 -10.34997,-1.530998 10.20099,-2.16 -10.35102,-1.619999" /><path
               id="path162"
               style="fill:none;stroke:#231f20;stroke-width:1;stroke-linecap:butt;stroke-linejoin:miter;stroke-miterlimit:4;stroke-dasharray:none;stroke-opacity:1"
               d="m 332.62302,74.707001 v -2.431 l 5.25,-1.979996 -10.20099,-2.069999 10.20099,-1.350007 -10.35102,-1.349998 10.5,-1.619 -10.34997,-1.530998 10.20099,-2.16 -10.35102,-1.619999" /><text
               id="text166"
               style="font-variant:normal;font-weight:normal;font-size:11.95500088px;font-family:CMR12;-inkscape-font-specification:CMR12;writing-mode:lr-tb;fill:#231f20;fill-opacity:1;fill-rule:nonzero;stroke:none"
               transform="matrix(1,0,0,-1,9,58.501003)"><tspan
                 id="tspan164"
                 y="0"
                 x="0">4</tspan></text>
<text
               id="text170"
               style="font-variant:normal;font-weight:normal;font-size:11.95500088px;font-family:CMSS12;-inkscape-font-specification:CMSS12;writing-mode:lr-tb;fill:#231f20;fill-opacity:1;fill-rule:nonzero;stroke:none"
               transform="matrix(1,0,0,-1,18.755281,58.501003)"><tspan
                 id="tspan168"
                 y="0"
                 x="0 5.3438854 11.189881 13.939531 18.159647">volts</tspan></text>
<text
               id="text174"
               style="font-variant:normal;font-weight:normal;font-size:11.95500088px;font-family:CMR12;-inkscape-font-specification:CMR12;writing-mode:lr-tb;fill:#231f20;fill-opacity:1;fill-rule:nonzero;stroke:none"
               transform="matrix(1,0,0,-1,14.736011,100.0004)"><tspan
                 id="tspan172"
                 y="0"
                 x="0">5</tspan></text>
<text
               id="text178"
               style="font-variant:normal;font-weight:normal;font-size:11.95500088px;font-family:CMSS12;-inkscape-font-specification:CMSS12;writing-mode:lr-tb;fill:#231f20;fill-opacity:1;fill-rule:nonzero;stroke:none"
               transform="matrix(1,0,0,-1,24.491291,100.0004)"><tspan
                 id="tspan176"
                 y="0"
                 x="0 5.8459954 11.847406">ohm</tspan></text>
<text
               id="text182"
               style="font-variant:normal;font-weight:normal;font-size:4.78200006px;font-family:CMR12;-inkscape-font-specification:CMR12;writing-mode:lr-tb;fill:#231f20;fill-opacity:1;fill-rule:nonzero;stroke:none"
               transform="matrix(1,0,0,-1,62.711899,77.000496)"><tspan
                 id="tspan180"
                 y="0"
                 x="0">0</tspan></text>
<text
               id="text186"
               style="font-variant:normal;font-weight:normal;font-size:4.78200006px;font-family:CMMI12;-inkscape-font-specification:CMMI12;writing-mode:lr-tb;fill:#231f20;fill-opacity:1;fill-rule:nonzero;stroke:none"
               transform="matrix(1,0,0,-1,65.052689,77.000496)"><tspan
                 id="tspan184"
                 y="0"
                 x="0">.</tspan></text>
<text
               id="text190"
               style="font-variant:normal;font-weight:normal;font-size:4.78200006px;font-family:CMR12;-inkscape-font-specification:CMR12;writing-mode:lr-tb;fill:#231f20;fill-opacity:1;fill-rule:nonzero;stroke:none"
               transform="matrix(1,0,0,-1,66.353394,77.000496)"><tspan
                 id="tspan188"
                 y="0"
                 x="0 2.338398 4.676796">017</tspan></text>
<text
               id="text194"
               style="font-variant:normal;font-weight:normal;font-size:4.78200006px;font-family:CMR12;-inkscape-font-specification:CMR12;writing-mode:lr-tb;fill:#231f20;fill-opacity:1;fill-rule:nonzero;stroke:none"
               transform="matrix(0,1,1,0,78.4468,54.379398)"><tspan
                 id="tspan192"
                 y="0"
                 x="0 2.338398">30</tspan></text>
<text
               id="text198"
               style="font-variant:normal;font-weight:normal;font-size:4.78200006px;font-family:CMSS12;-inkscape-font-specification:CMSS12;writing-mode:lr-tb;fill:#231f20;fill-opacity:1;fill-rule:nonzero;stroke:none"
               transform="matrix(0,1,1,0,78.4468,60.622776)"><tspan
                 id="tspan196"
                 y="0"
                 x="0 2.338398 4.7389622">ohm</tspan></text>
<text
               id="text202"
               style="font-variant:normal;font-weight:normal;font-size:11.95500088px;font-family:CMSS12;-inkscape-font-specification:CMSS12;writing-mode:lr-tb;fill:#231f20;fill-opacity:1;fill-rule:nonzero;stroke:none"
               transform="matrix(1,0,0,-1,283.66901,15.501)"><tspan
                 id="tspan200"
                 y="0"
                 x="0 3.9690604 9.169486 11.919136">rela</tspan></text>
<text
               id="text206"
               style="font-variant:normal;font-weight:normal;font-size:11.95500088px;font-family:CMSS12;-inkscape-font-specification:CMSS12;writing-mode:lr-tb;fill:#231f20;fill-opacity:1;fill-rule:nonzero;stroke:none"
               transform="matrix(1,0,0,-1,300.88184,15.501)"><tspan
                 id="tspan204"
                 y="0"
                 x="0">y</tspan></text>
<text
               id="text210"
               style="font-variant:normal;font-weight:normal;font-size:11.95500088px;font-family:CMSS12;-inkscape-font-specification:CMSS12;writing-mode:lr-tb;fill:#231f20;fill-opacity:1;fill-rule:nonzero;stroke:none"
               transform="matrix(1,0,0,-1,310.13858,15.501)"><tspan
                 id="tspan208"
                 y="0"
                 x="0 5.5949407 11.596351">and</tspan></text>
<text
               id="text214"
               style="font-variant:normal;font-weight:normal;font-size:11.95500088px;font-family:CMSS12;-inkscape-font-specification:CMSS12;writing-mode:lr-tb;fill:#231f20;fill-opacity:1;fill-rule:nonzero;stroke:none"
               transform="matrix(1,0,0,-1,331.65399,15.501)"><tspan
                 id="tspan212"
                 y="0"
                 x="0 7.9500756 10.699726 14.668786 19.869211">wires</tspan></text>
<text
               id="text218"
               style="font-variant:normal;font-weight:normal;font-size:11.95500088px;font-family:CMR12;-inkscape-font-specification:CMR12;writing-mode:lr-tb;fill:#231f20;fill-opacity:1;fill-rule:nonzero;stroke:none"
               transform="matrix(1,0,0,-1,303.33737,3.0008523)"><tspan
                 id="tspan216"
                 y="0"
                 x="0 5.8459954">10</tspan></text>
<text
               id="text222"
               style="font-variant:normal;font-weight:normal;font-size:11.95500088px;font-family:CMSS12;-inkscape-font-specification:CMSS12;writing-mode:lr-tb;fill:#231f20;fill-opacity:1;fill-rule:nonzero;stroke:none"
               transform="matrix(1,0,0,-1,318.94342,3.0008523)"><tspan
                 id="tspan220"
                 y="0"
                 x="0 5.8459954 11.847406">ohm</tspan></text>
<text
               id="text226"
               style="font-variant:normal;font-weight:normal;font-size:11.95500088px;font-family:CMMI12;-inkscape-font-specification:CMMI12;writing-mode:lr-tb;fill:#231f20;fill-opacity:1;fill-rule:nonzero;stroke:none"
               transform="matrix(1,0,0,-1,71.253731,85.608711)"><tspan
                 id="tspan224"
                 y="0"
                 x="0">i</tspan></text>
<text
               id="text230"
               style="font-variant:normal;font-weight:normal;font-size:7.96999979px;font-family:CMR8;-inkscape-font-specification:CMR8;writing-mode:lr-tb;fill:#231f20;fill-opacity:1;fill-rule:nonzero;stroke:none"
               transform="matrix(1,0,0,-1,75.248001,83.815895)"><tspan
                 id="tspan228"
                 y="0"
                 x="0">1</tspan></text>
<text
               id="text234"
               style="font-variant:normal;font-weight:normal;font-size:11.95500088px;font-family:CMMI12;-inkscape-font-specification:CMMI12;writing-mode:lr-tb;fill:#231f20;fill-opacity:1;fill-rule:nonzero;stroke:none"
               transform="matrix(1,0,0,-1,94.784195,85.108894)"><tspan
                 id="tspan232"
                 y="0"
                 x="0">i</tspan></text>
<text
               id="text238"
               style="font-variant:normal;font-weight:normal;font-size:7.96999979px;font-family:CMR8;-inkscape-font-specification:CMR8;writing-mode:lr-tb;fill:#231f20;fill-opacity:1;fill-rule:nonzero;stroke:none"
               transform="matrix(1,0,0,-1,98.776901,83.315895)"><tspan
                 id="tspan236"
                 y="0"
                 x="0">2</tspan></text>
<text
               id="text242"
               style="font-variant:normal;font-weight:normal;font-size:11.95500088px;font-family:CMMI12;-inkscape-font-specification:CMMI12;writing-mode:lr-tb;fill:#231f20;fill-opacity:1;fill-rule:nonzero;stroke:none"
               transform="matrix(1,0,0,-1,122.814,86.608894)"><tspan
                 id="tspan240"
                 y="0"
                 x="0">i</tspan></text>
<text
               id="text246"
               style="font-variant:normal;font-weight:normal;font-size:7.96999979px;font-family:CMR8;-inkscape-font-specification:CMR8;writing-mode:lr-tb;fill:#231f20;fill-opacity:1;fill-rule:nonzero;stroke:none"
               transform="matrix(1,0,0,-1,126.80701,84.815895)"><tspan
                 id="tspan244"
                 y="0"
                 x="0">3</tspan></text>
<text
               id="text250"
               style="font-variant:normal;font-weight:normal;font-size:11.95500088px;font-family:CMMI12;-inkscape-font-specification:CMMI12;writing-mode:lr-tb;fill:#231f20;fill-opacity:1;fill-rule:nonzero;stroke:none"
               transform="matrix(1,0,0,-1,149.843,86.108894)"><tspan
                 id="tspan248"
                 y="0"
                 x="0">i</tspan></text>
<text
               id="text254"
               style="font-variant:normal;font-weight:normal;font-size:7.96999979px;font-family:CMR8;-inkscape-font-specification:CMR8;writing-mode:lr-tb;fill:#231f20;fill-opacity:1;fill-rule:nonzero;stroke:none"
               transform="matrix(1,0,0,-1,153.83701,84.315895)"><tspan
                 id="tspan252"
                 y="0"
                 x="0">4</tspan></text>
<text
               id="text258"
               style="font-variant:normal;font-weight:normal;font-size:11.95500088px;font-family:CMMI12;-inkscape-font-specification:CMMI12;writing-mode:lr-tb;fill:#231f20;fill-opacity:1;fill-rule:nonzero;stroke:none"
               transform="matrix(1,0,0,-1,177.373,86.108894)"><tspan
                 id="tspan256"
                 y="0"
                 x="0">i</tspan></text>
<text
               id="text262"
               style="font-variant:normal;font-weight:normal;font-size:7.96999979px;font-family:CMR8;-inkscape-font-specification:CMR8;writing-mode:lr-tb;fill:#231f20;fill-opacity:1;fill-rule:nonzero;stroke:none"
               transform="matrix(1,0,0,-1,181.367,84.315895)"><tspan
                 id="tspan260"
                 y="0"
                 x="0">5</tspan></text>
<text
               id="text266"
               style="font-variant:normal;font-weight:normal;font-size:11.95500088px;font-family:CMMI12;-inkscape-font-specification:CMMI12;writing-mode:lr-tb;fill:#231f20;fill-opacity:1;fill-rule:nonzero;stroke:none"
               transform="matrix(1,0,0,-1,205.507,86.110901)"><tspan
                 id="tspan264"
                 y="0"
                 x="0">i</tspan></text>
<text
               id="text270"
               style="font-variant:normal;font-weight:normal;font-size:7.96999979px;font-family:CMR8;-inkscape-font-specification:CMR8;writing-mode:lr-tb;fill:#231f20;fill-opacity:1;fill-rule:nonzero;stroke:none"
               transform="matrix(1,0,0,-1,209.5,84.317902)"><tspan
                 id="tspan268"
                 y="0"
                 x="0">6</tspan></text>
<text
               id="text274"
               style="font-variant:normal;font-weight:normal;font-size:11.95500088px;font-family:CMMI12;-inkscape-font-specification:CMMI12;writing-mode:lr-tb;fill:#231f20;fill-opacity:1;fill-rule:nonzero;stroke:none"
               transform="matrix(1,0,0,-1,231.43301,86.108894)"><tspan
                 id="tspan272"
                 y="0"
                 x="0">i</tspan></text>
<text
               id="text278"
               style="font-variant:normal;font-weight:normal;font-size:7.96999979px;font-family:CMR8;-inkscape-font-specification:CMR8;writing-mode:lr-tb;fill:#231f20;fill-opacity:1;fill-rule:nonzero;stroke:none"
               transform="matrix(1,0,0,-1,235.42601,84.315895)"><tspan
                 id="tspan276"
                 y="0"
                 x="0">7</tspan></text>
<text
               id="text282"
               style="font-variant:normal;font-weight:normal;font-size:11.95500088px;font-family:CMMI12;-inkscape-font-specification:CMMI12;writing-mode:lr-tb;fill:#231f20;fill-opacity:1;fill-rule:nonzero;stroke:none"
               transform="matrix(1,0,0,-1,259.96201,86.608894)"><tspan
                 id="tspan280"
                 y="0"
                 x="0">i</tspan></text>
<text
               id="text286"
               style="font-variant:normal;font-weight:normal;font-size:7.96999979px;font-family:CMR8;-inkscape-font-specification:CMR8;writing-mode:lr-tb;fill:#231f20;fill-opacity:1;fill-rule:nonzero;stroke:none"
               transform="matrix(1,0,0,-1,263.95602,84.815895)"><tspan
                 id="tspan284"
                 y="0"
                 x="0">8</tspan></text>
<text
               id="text290"
               style="font-variant:normal;font-weight:normal;font-size:11.95500088px;font-family:CMMI12;-inkscape-font-specification:CMMI12;writing-mode:lr-tb;fill:#231f20;fill-opacity:1;fill-rule:nonzero;stroke:none"
               transform="matrix(1,0,0,-1,284.492,87.108894)"><tspan
                 id="tspan288"
                 y="0"
                 x="0">i</tspan></text>
<text
               id="text294"
               style="font-variant:normal;font-weight:normal;font-size:7.96999979px;font-family:CMR8;-inkscape-font-specification:CMR8;writing-mode:lr-tb;fill:#231f20;fill-opacity:1;fill-rule:nonzero;stroke:none"
               transform="matrix(1,0,0,-1,288.48602,85.315895)"><tspan
                 id="tspan292"
                 y="0"
                 x="0">9</tspan></text>
<text
               id="text298"
               style="font-variant:normal;font-weight:normal;font-size:11.95500088px;font-family:CMMI12;-inkscape-font-specification:CMMI12;writing-mode:lr-tb;fill:#231f20;fill-opacity:1;fill-rule:nonzero;stroke:none"
               transform="matrix(1,0,0,-1,310.02103,86.608894)"><tspan
                 id="tspan296"
                 y="0"
                 x="0">i</tspan></text>
<text
               id="text302"
               style="font-variant:normal;font-weight:normal;font-size:7.96999979px;font-family:CMR8;-inkscape-font-specification:CMR8;writing-mode:lr-tb;fill:#231f20;fill-opacity:1;fill-rule:nonzero;stroke:none"
               transform="matrix(1,0,0,-1,314.01602,84.815895)"><tspan
                 id="tspan300"
                 y="0"
                 x="0 4.23207">10</tspan></text>
<text
               id="text306"
               style="font-variant:normal;font-weight:normal;font-size:11.95500088px;font-family:CMMI12;-inkscape-font-specification:CMMI12;writing-mode:lr-tb;fill:#231f20;fill-opacity:1;fill-rule:nonzero;stroke:none"
               transform="matrix(1,0,0,-1,348.28601,84.108894)"><tspan
                 id="tspan304"
                 y="0"
                 x="0">i</tspan></text>
<text
               id="text310"
               style="font-variant:normal;font-weight:normal;font-size:7.96999979px;font-family:CMR8;-inkscape-font-specification:CMR8;writing-mode:lr-tb;fill:#231f20;fill-opacity:1;fill-rule:nonzero;stroke:none"
               transform="matrix(1,0,0,-1,352.27902,82.315895)"><tspan
                 id="tspan308"
                 y="0"
                 x="0 4.23207">11</tspan></text>
<path
               id="path312"
               style="fill:none;stroke:#231f20;stroke-width:1;stroke-linecap:butt;stroke-linejoin:miter;stroke-miterlimit:4;stroke-dasharray:none;stroke-opacity:1"
               d="m 332.772,50.929001 v 2.16 l -5.25,2.016002 10.5,1.368 -10.5,2.16" /></g><g
             id="g314"><g
               clip-path="url(#clipPath320)"
               id="g316"><path
                 id="path322"
                 style="fill:none;stroke:#231f20;stroke-width:0.5;stroke-linecap:butt;stroke-linejoin:miter;stroke-miterlimit:4;stroke-dasharray:none;stroke-opacity:1"
                 d="m 333.117,81.818001 v 11.5 H 371 v -81 h -8 v 25 h -29.5 l -0.728,13.611" /><path
                 id="path324"
                 style="fill:none;stroke:#231f20;stroke-width:1;stroke-linecap:butt;stroke-linejoin:miter;stroke-miterlimit:4;stroke-dasharray:none;stroke-opacity:1"
                 d="m 360,12.818001 h 14.5 m -11.5,-0.5 h 8.5 V 3.3170004 H 363 Z m -3,-9.0010008 h 14.5" /><path
                 id="path326"
                 style="fill:#ffffff;fill-opacity:1;fill-rule:nonzero;stroke:none"
                 d="m 58.717003,42.818001 v -8.5 H 0" /><path
                 id="path328"
                 style="fill:none;stroke:#231f20;stroke-width:1;stroke-linecap:butt;stroke-linejoin:miter;stroke-miterlimit:4;stroke-dasharray:none;stroke-opacity:1"
                 d="m 58.717003,42.818001 v -8.5 H 0" /></g></g><g
             id="g330"><path
               id="path332"
               style="fill:#ffffff;fill-opacity:1;fill-rule:nonzero;stroke:none"
               d="m 7,82.818001 v -42" /><path
               id="path334"
               style="fill:none;stroke:#231f20;stroke-width:1;stroke-linecap:butt;stroke-linejoin:miter;stroke-miterlimit:4;stroke-dasharray:none;stroke-opacity:1"
               d="m 7,82.818001 v -42" /><path
               id="path336"
               style="fill:#231f20;fill-opacity:1;fill-rule:nonzero;stroke:none"
               d="m 7.5130005,39.637001 c 0.2490001,0.826 0.4790001,1.364002 0.7449999,2.027 H 5.7360001 c 0.1130004,-0.236999 0.4960003,-1.201 0.7460003,-2.027 0.2670001,-0.884998 0.4499998,-1.687 0.5149998,-2.207001 0.065,0.520001 0.2480002,1.322003 0.5160003,2.207001" /><path
               id="path338"
               style="fill:#231f20;fill-opacity:1;fill-rule:nonzero;stroke:none"
               d="M 6.4870005,83.999001 C 6.2380004,83.172005 6.0080004,82.635002 5.7420001,81.972 H 8.2639999 C 8.151,82.209007 7.7680006,83.172005 7.5180001,83.999001 c -0.2669997,0.884002 -0.4499998,1.687004 -0.5149998,2.207 -0.066,-0.519996 -0.2480002,-1.322998 -0.5159998,-2.207" /><text
               id="text342"
               style="font-variant:normal;font-weight:normal;font-size:4.78200006px;font-family:CMSS12;-inkscape-font-specification:CMSS12;writing-mode:lr-tb;fill:#231f20;fill-opacity:1;fill-rule:nonzero;stroke:none"
               transform="matrix(1,0,0,-1,74.448196,77.000496)"><tspan
                 id="tspan340"
                 y="0"
                 x="0 2.338398 4.7389622">ohm</tspan></text>
<text
               id="text346"
               style="font-variant:normal;font-weight:normal;font-size:4.78200006px;font-family:CMR12;-inkscape-font-specification:CMR12;writing-mode:lr-tb;fill:#231f20;fill-opacity:1;fill-rule:nonzero;stroke:none"
               transform="matrix(1,0,0,-1,91.211975,77.000496)"><tspan
                 id="tspan344"
                 y="0"
                 x="0">0</tspan></text>
<text
               id="text350"
               style="font-variant:normal;font-weight:normal;font-size:4.78200006px;font-family:CMMI12;-inkscape-font-specification:CMMI12;writing-mode:lr-tb;fill:#231f20;fill-opacity:1;fill-rule:nonzero;stroke:none"
               transform="matrix(1,0,0,-1,93.552765,77.000496)"><tspan
                 id="tspan348"
                 y="0"
                 x="0">.</tspan></text>
<text
               id="text354"
               style="font-variant:normal;font-weight:normal;font-size:4.78200006px;font-family:CMR12;-inkscape-font-specification:CMR12;writing-mode:lr-tb;fill:#231f20;fill-opacity:1;fill-rule:nonzero;stroke:none"
               transform="matrix(1,0,0,-1,94.85347,77.000496)"><tspan
                 id="tspan352"
                 y="0"
                 x="0 2.338398 4.676796">017</tspan></text>
<text
               id="text358"
               style="font-variant:normal;font-weight:normal;font-size:4.78200006px;font-family:CMSS12;-inkscape-font-specification:CMSS12;writing-mode:lr-tb;fill:#231f20;fill-opacity:1;fill-rule:nonzero;stroke:none"
               transform="matrix(1,0,0,-1,102.94796,77.000496)"><tspan
                 id="tspan356"
                 y="0"
                 x="0 2.338398 4.7389622">ohm</tspan></text>
<text
               id="text362"
               style="font-variant:normal;font-weight:normal;font-size:4.78200006px;font-family:CMR12;-inkscape-font-specification:CMR12;writing-mode:lr-tb;fill:#231f20;fill-opacity:1;fill-rule:nonzero;stroke:none"
               transform="matrix(1,0,0,-1,309.21188,77.000496)"><tspan
                 id="tspan360"
                 y="0"
                 x="0">0</tspan></text>
<text
               id="text366"
               style="font-variant:normal;font-weight:normal;font-size:4.78200006px;font-family:CMMI12;-inkscape-font-specification:CMMI12;writing-mode:lr-tb;fill:#231f20;fill-opacity:1;fill-rule:nonzero;stroke:none"
               transform="matrix(1,0,0,-1,311.55267,77.000496)"><tspan
                 id="tspan364"
                 y="0"
                 x="0">.</tspan></text>
<text
               id="text370"
               style="font-variant:normal;font-weight:normal;font-size:4.78200006px;font-family:CMR12;-inkscape-font-specification:CMR12;writing-mode:lr-tb;fill:#231f20;fill-opacity:1;fill-rule:nonzero;stroke:none"
               transform="matrix(1,0,0,-1,312.85385,77.000496)"><tspan
                 id="tspan368"
                 y="0"
                 x="0 2.338398 4.676796">017</tspan></text>
<text
               id="text374"
               style="font-variant:normal;font-weight:normal;font-size:4.78200006px;font-family:CMSS12;-inkscape-font-specification:CMSS12;writing-mode:lr-tb;fill:#231f20;fill-opacity:1;fill-rule:nonzero;stroke:none"
               transform="matrix(1,0,0,-1,320.94788,77.000496)"><tspan
                 id="tspan372"
                 y="0"
                 x="0 2.338398 4.7389622">ohm</tspan></text>
<text
               id="text378"
               style="font-variant:normal;font-weight:normal;font-size:4.78200006px;font-family:CMR12;-inkscape-font-specification:CMR12;writing-mode:lr-tb;fill:#231f20;fill-opacity:1;fill-rule:nonzero;stroke:none"
               transform="matrix(0,1,1,0,105.94701,54.379398)"><tspan
                 id="tspan376"
                 y="0"
                 x="0 2.338398">30</tspan></text>
<text
               id="text382"
               style="font-variant:normal;font-weight:normal;font-size:4.78200006px;font-family:CMSS12;-inkscape-font-specification:CMSS12;writing-mode:lr-tb;fill:#231f20;fill-opacity:1;fill-rule:nonzero;stroke:none"
               transform="matrix(0,1,1,0,105.94701,60.622776)"><tspan
                 id="tspan380"
                 y="0"
                 x="0 2.338398 4.7389622">ohm</tspan></text>
<text
               id="text386"
               style="font-variant:normal;font-weight:normal;font-size:4.78200006px;font-family:CMR12;-inkscape-font-specification:CMR12;writing-mode:lr-tb;fill:#231f20;fill-opacity:1;fill-rule:nonzero;stroke:none"
               transform="matrix(0,1,1,0,298.4469,53.879677)"><tspan
                 id="tspan384"
                 y="0"
                 x="0 2.338398">30</tspan></text>
<text
               id="text390"
               style="font-variant:normal;font-weight:normal;font-size:4.78200006px;font-family:CMSS12;-inkscape-font-specification:CMSS12;writing-mode:lr-tb;fill:#231f20;fill-opacity:1;fill-rule:nonzero;stroke:none"
               transform="matrix(0,1,1,0,298.4469,60.123055)"><tspan
                 id="tspan388"
                 y="0"
                 x="0 2.338398 4.7389622">ohm</tspan></text>
<text
               id="text394"
               style="font-variant:normal;font-weight:normal;font-size:4.78200006px;font-family:CMR12;-inkscape-font-specification:CMR12;writing-mode:lr-tb;fill:#231f20;fill-opacity:1;fill-rule:nonzero;stroke:none"
               transform="matrix(0,1,1,0,325.94675,53.879677)"><tspan
                 id="tspan392"
                 y="0"
                 x="0 2.338398">30</tspan></text>
<text
               id="text398"
               style="font-variant:normal;font-weight:normal;font-size:4.78200006px;font-family:CMSS12;-inkscape-font-specification:CMSS12;writing-mode:lr-tb;fill:#231f20;fill-opacity:1;fill-rule:nonzero;stroke:none"
               transform="matrix(0,1,1,0,325.94675,60.123055)"><tspan
                 id="tspan396"
                 y="0"
                 x="0 2.338398 4.7389622">ohm</tspan></text>
<text
               id="text402"
               style="font-variant:normal;font-weight:normal;font-size:4.78200006px;font-family:CMR12;-inkscape-font-specification:CMR12;writing-mode:lr-tb;fill:#231f20;fill-opacity:1;fill-rule:nonzero;stroke:none"
               transform="matrix(1,0,0,-1,62.961899,37.7505)"><tspan
                 id="tspan400"
                 y="0"
                 x="0">0</tspan></text>
<text
               id="text406"
               style="font-variant:normal;font-weight:normal;font-size:4.78200006px;font-family:CMMI12;-inkscape-font-specification:CMMI12;writing-mode:lr-tb;fill:#231f20;fill-opacity:1;fill-rule:nonzero;stroke:none"
               transform="matrix(1,0,0,-1,65.302689,37.7505)"><tspan
                 id="tspan404"
                 y="0"
                 x="0">.</tspan></text>
<text
               id="text410"
               style="font-variant:normal;font-weight:normal;font-size:4.78200006px;font-family:CMR12;-inkscape-font-specification:CMR12;writing-mode:lr-tb;fill:#231f20;fill-opacity:1;fill-rule:nonzero;stroke:none"
               transform="matrix(1,0,0,-1,66.603394,37.7505)"><tspan
                 id="tspan408"
                 y="0"
                 x="0 2.338398 4.676796">017</tspan></text>
<text
               id="text414"
               style="font-variant:normal;font-weight:normal;font-size:4.78200006px;font-family:CMSS12;-inkscape-font-specification:CMSS12;writing-mode:lr-tb;fill:#231f20;fill-opacity:1;fill-rule:nonzero;stroke:none"
               transform="matrix(1,0,0,-1,74.697884,37.7505)"><tspan
                 id="tspan412"
                 y="0"
                 x="0 2.338398 4.7389622">ohm</tspan></text>
<text
               id="text418"
               style="font-variant:normal;font-weight:normal;font-size:4.78200006px;font-family:CMR12;-inkscape-font-specification:CMR12;writing-mode:lr-tb;fill:#231f20;fill-opacity:1;fill-rule:nonzero;stroke:none"
               transform="matrix(1,0,0,-1,89.461349,37.7505)"><tspan
                 id="tspan416"
                 y="0"
                 x="0">0</tspan></text>
<text
               id="text422"
               style="font-variant:normal;font-weight:normal;font-size:4.78200006px;font-family:CMMI12;-inkscape-font-specification:CMMI12;writing-mode:lr-tb;fill:#231f20;fill-opacity:1;fill-rule:nonzero;stroke:none"
               transform="matrix(1,0,0,-1,91.802139,37.7505)"><tspan
                 id="tspan420"
                 y="0"
                 x="0">.</tspan></text>
<text
               id="text426"
               style="font-variant:normal;font-weight:normal;font-size:4.78200006px;font-family:CMR12;-inkscape-font-specification:CMR12;writing-mode:lr-tb;fill:#231f20;fill-opacity:1;fill-rule:nonzero;stroke:none"
               transform="matrix(1,0,0,-1,93.102844,37.7505)"><tspan
                 id="tspan424"
                 y="0"
                 x="0 2.338398 4.676796">017</tspan></text>
<text
               id="text430"
               style="font-variant:normal;font-weight:normal;font-size:4.78200006px;font-family:CMSS12;-inkscape-font-specification:CMSS12;writing-mode:lr-tb;fill:#231f20;fill-opacity:1;fill-rule:nonzero;stroke:none"
               transform="matrix(1,0,0,-1,101.19733,37.7505)"><tspan
                 id="tspan428"
                 y="0"
                 x="0 2.338398 4.7389622">ohm</tspan></text>
</g></g></g></g></g></svg>