<?xml version="1.0" encoding="UTF-8" standalone="no"?>
<svg
   xmlns:dc="http://purl.org/dc/elements/1.1/"
   xmlns:cc="http://creativecommons.org/ns#"
   xmlns:rdf="http://www.w3.org/1999/02/22-rdf-syntax-ns#"
   xmlns:svg="http://www.w3.org/2000/svg"
   xmlns="http://www.w3.org/2000/svg"
   viewBox="0 0 241.33333 197.33333"
   height="197.33333"
   width="241.33333"
   xml:space="preserve"
   id="svg2"
   version="1.1"><metadata
     id="metadata8"><rdf:RDF><cc:Work
         rdf:about=""><dc:format>image/svg+xml</dc:format><dc:type
           rdf:resource="http://purl.org/dc/dcmitype/StillImage" /></cc:Work></rdf:RDF></metadata><defs
     id="defs6"><clipPath
       id="clipPath24"
       clipPathUnits="userSpaceOnUse"><path
         id="path22"
         d="M 0,0 H 181 V 148 H 0 Z" /></clipPath></defs><g
     transform="matrix(1.3333333,0,0,-1.3333333,0,197.33333)"
     id="g10"><g
       id="g12" /><g
       id="g14" /><g
       id="g16"><g
         id="g18"><g
           clip-path="url(#clipPath24)"
           id="g20"><g
             id="g26" /><g
             id="g28"><path
               id="path30"
               style="fill:none;stroke:#231f20;stroke-width:1;stroke-linecap:butt;stroke-linejoin:miter;stroke-miterlimit:4;stroke-dasharray:none;stroke-opacity:1"
               d="M 0.625,65.875 H 164.20801" /><path
               id="path32"
               style="fill:#231f20;fill-opacity:1;fill-rule:nonzero;stroke:none"
               d="m 160.81401,66 -2.19101,3.603004 0.123,0.082 5.875,-2.333999 c 2.04701,-0.450005 4.09401,-0.900002 6.14101,-1.351006 -2.047,-0.450005 -4.094,-0.900002 -6.14101,-1.350998 l -5.875,-2.334 -0.123,0.062 L 160.81401,66" /><path
               id="path34"
               style="fill:none;stroke:#231f20;stroke-width:1;stroke-linecap:butt;stroke-linejoin:miter;stroke-miterlimit:4;stroke-dasharray:none;stroke-opacity:1"
               d="M 79.979004,0.22600001 V 136.942" /><path
               id="path36"
               style="fill:#231f20;fill-opacity:1;fill-rule:nonzero;stroke:none"
               d="m 79.542007,133.147 -3.603004,-2.19099 -0.082,0.123 2.332993,5.875 c 0.451011,2.047 0.901008,4.09399 1.352012,6.14099 0.449997,-2.047 0.899994,-4.09399 1.350998,-6.14099 l 2.333001,-5.875 -0.061,-0.123 -3.622994,2.19099" /><text
               id="text40"
               style="font-variant:normal;font-weight:normal;font-size:11.95500088px;font-family:CMMI12;-inkscape-font-specification:CMMI12;writing-mode:lr-tb;fill:#231f20;fill-opacity:1;fill-rule:nonzero;stroke:none"
               transform="matrix(1,0,0,-1,173.4185,61.3652)"><tspan
                 id="tspan38"
                 y="0"
                 x="0">x</tspan></text>
<text
               id="text44"
               style="font-variant:normal;font-weight:normal;font-size:11.95500088px;font-family:CMMI12;-inkscape-font-specification:CMMI12;writing-mode:lr-tb;fill:#231f20;fill-opacity:1;fill-rule:nonzero;stroke:none"
               transform="matrix(1,0,0,-1,68.650848,138.36496)"><tspan
                 id="tspan42"
                 y="0"
                 x="0">y</tspan></text>
<path
               id="path46"
               style="fill:none;stroke:#231f20;stroke-width:1;stroke-linecap:butt;stroke-linejoin:miter;stroke-miterlimit:4;stroke-dasharray:none;stroke-opacity:1"
               d="m 79.641006,66.395004 c 10.355996,0 18.751999,8.395996 18.751999,18.752999 0,10.356002 -8.396003,18.751997 -18.751999,18.751997 -10.357002,0 -18.753002,-8.395995 -18.753002,-18.751997 0,-10.357003 8.396,-18.752999 18.753002,-18.752999 z" /><text
               id="text50"
               style="font-variant:normal;font-weight:normal;font-size:11.95500088px;font-family:CMMI12;-inkscape-font-specification:CMMI12;writing-mode:lr-tb;fill:#231f20;fill-opacity:1;fill-rule:nonzero;stroke:none"
               transform="matrix(1,0,0,-1,132.11229,98.054695)"><tspan
                 id="tspan48"
                 y="0"
                 x="0">C</tspan></text>
<path
               id="path52"
               style="fill:none;stroke:#231f20;stroke-width:1;stroke-linecap:butt;stroke-linejoin:miter;stroke-miterlimit:4;stroke-dasharray:none;stroke-opacity:1"
               d="m 126.075,96.815002 -1.94999,6.370008 -3.9,2.73 -6.5,6.36999 -3.25,3.64 -5.20001,1.82 H 91.625008 l -6.5,0.91001 -9.100006,0.90999 -8.449997,0.91001 h -7.150002 l -5.200001,-0.91001 -7.150001,-3.64 -3.25,-4.54999 -3.25,-5.46 -3.899998,-4.55 L 35.075001,95.905006 29.875002,87.715004 28.575001,81.345001 27.275002,77.705002 25.975,70.425003 26.625002,63.145004 25.975,55.865002 l 0.650002,-4.55 0.65,-7.279998 1.299999,-4.550003 4.549999,-5.459999 3.900002,-3.64 5.2,-5.460001 5.849999,-6.370001 6.5,-4.549999 L 61.725002,12.185 68.225006,10.365001 75.375,9.4550009 h 4.550003 l 7.150002,-0.9100008 5.849998,1.8200009 4.550003,0.91 3.900004,1.819999 7.14999,1.820001 5.20001,4.549999 6.5,5.460001 3.9,5.460001 3.9,6.369999 2.59999,6.370003 1.3,11.829998 1.30001,6.370003 0.64999,10.919998 -0.64999,8.190002 -1.30001,5.459999 -3.25,7.279999 -0.64999,4.550003 z" /><text
               id="text56"
               style="font-variant:normal;font-weight:normal;font-size:7.96999979px;font-family:CMR8;-inkscape-font-specification:CMR8;writing-mode:lr-tb;fill:#231f20;fill-opacity:1;fill-rule:nonzero;stroke:none"
               transform="matrix(1,0,0,-1,139.01901,94.5)"><tspan
                 id="tspan54"
                 y="0"
                 x="0">3</tspan></text>
<path
               id="path58"
               style="fill:none;stroke:#231f20;stroke-width:1;stroke-linecap:butt;stroke-linejoin:miter;stroke-miterlimit:4;stroke-dasharray:none;stroke-opacity:1"
               d="m 79.315002,28.175001 c 10.357003,0 18.751999,8.396002 18.751999,18.753 0,10.356003 -8.394996,18.751999 -18.751999,18.751999 -10.356002,0 -18.751998,-8.395996 -18.751998,-18.751999 0,-10.356998 8.395996,-18.753 18.751998,-18.753 z" /><text
               id="text62"
               style="font-variant:normal;font-weight:normal;font-size:11.95500088px;font-family:CMMI12;-inkscape-font-specification:CMMI12;writing-mode:lr-tb;fill:#231f20;fill-opacity:1;fill-rule:nonzero;stroke:none"
               transform="matrix(1,0,0,-1,105.3125,84.261299)"><tspan
                 id="tspan60"
                 y="0"
                 x="0">C</tspan></text>
<text
               id="text66"
               style="font-variant:normal;font-weight:normal;font-size:7.96999979px;font-family:CMR8;-inkscape-font-specification:CMR8;writing-mode:lr-tb;fill:#231f20;fill-opacity:1;fill-rule:nonzero;stroke:none"
               transform="matrix(1,0,0,-1,112.2192,80.706497)"><tspan
                 id="tspan64"
                 y="0"
                 x="0">1</tspan></text>
<text
               id="text70"
               style="font-variant:normal;font-weight:normal;font-size:11.95500088px;font-family:CMMI12;-inkscape-font-specification:CMMI12;writing-mode:lr-tb;fill:#231f20;fill-opacity:1;fill-rule:nonzero;stroke:none"
               transform="matrix(1,0,0,-1,105.8125,36.7612)"><tspan
                 id="tspan68"
                 y="0"
                 x="0">C</tspan></text>
<text
               id="text74"
               style="font-variant:normal;font-weight:normal;font-size:7.96999979px;font-family:CMR8;-inkscape-font-specification:CMR8;writing-mode:lr-tb;fill:#231f20;fill-opacity:1;fill-rule:nonzero;stroke:none"
               transform="matrix(1,0,0,-1,112.7192,33.206501)"><tspan
                 id="tspan72"
                 y="0"
                 x="0">2</tspan></text>
<text
               id="text78"
               style="font-variant:normal;font-weight:normal;font-size:10.36100006px;font-family:CMR8;-inkscape-font-specification:CMR8;writing-mode:lr-tb;fill:#231f20;fill-opacity:1;fill-rule:nonzero;stroke:none"
               transform="matrix(1,0,0,-1,82.822296,82.359398)"><tspan
                 id="tspan76"
                 y="0"
                 x="0">i</tspan></text>
<text
               id="text82"
               style="font-variant:normal;font-weight:normal;font-size:10.36100006px;font-family:CMR8;-inkscape-font-specification:CMR8;writing-mode:lr-tb;fill:#231f20;fill-opacity:1;fill-rule:nonzero;stroke:none"
               transform="matrix(1,0,0,-1,88.145775,42.959625)"><tspan
                 id="tspan80"
                 y="0"
                 x="0">i</tspan></text>
<path
               id="path84"
               style="fill:#231f20;fill-opacity:1;fill-rule:nonzero;stroke:#000000;stroke-width:0.80000001;stroke-linecap:butt;stroke-linejoin:miter;stroke-miterlimit:4;stroke-dasharray:none;stroke-opacity:1"
               d="m 82.958,45.009003 h 4.550003" /><path
               id="path86"
               style="fill:#231f20;fill-opacity:1;fill-rule:nonzero;stroke:#231f20;stroke-width:0.80000001;stroke-linecap:butt;stroke-linejoin:miter;stroke-miterlimit:4;stroke-dasharray:none;stroke-opacity:1"
               d="m 81.5,45 c 0,-0.827999 -0.670998,-1.5 -1.5,-1.5 -0.828995,0 -1.5,0.672001 -1.5,1.5 0,0.828003 0.671005,1.5 1.5,1.5 0.829002,0 1.5,-0.671997 1.5,-1.5 z" /><path
               id="path88"
               style="fill:#231f20;fill-opacity:1;fill-rule:nonzero;stroke:#231f20;stroke-width:0.80000001;stroke-linecap:butt;stroke-linejoin:miter;stroke-miterlimit:4;stroke-dasharray:none;stroke-opacity:1"
               d="M 81.5,84.5 C 81.5,83.672005 80.829002,83 80,83 c -0.828995,0 -1.5,0.672005 -1.5,1.5 0,0.828003 0.671005,1.5 1.5,1.5 0.829002,0 1.5,-0.671997 1.5,-1.5 z" /></g></g></g></g></g></svg>