<?xml version="1.0" encoding="UTF-8" standalone="no"?>
<svg
   xmlns:dc="http://purl.org/dc/elements/1.1/"
   xmlns:cc="http://creativecommons.org/ns#"
   xmlns:rdf="http://www.w3.org/1999/02/22-rdf-syntax-ns#"
   xmlns:svg="http://www.w3.org/2000/svg"
   xmlns="http://www.w3.org/2000/svg"
   viewBox="0 0 318.66666 224"
   height="224"
   width="318.66666"
   xml:space="preserve"
   id="svg2"
   version="1.1"><metadata
     id="metadata8"><rdf:RDF><cc:Work
         rdf:about=""><dc:format>image/svg+xml</dc:format><dc:type
           rdf:resource="http://purl.org/dc/dcmitype/StillImage" /></cc:Work></rdf:RDF></metadata><defs
     id="defs6"><clipPath
       id="clipPath24"
       clipPathUnits="userSpaceOnUse"><path
         id="path22"
         d="M 0,0 H 239 V 168 H 0 Z" /></clipPath></defs><g
     transform="matrix(1.3333333,0,0,-1.3333333,0,224)"
     id="g10"><g
       id="g12" /><g
       id="g14" /><g
       id="g16"><g
         id="g18"><g
           clip-path="url(#clipPath24)"
           id="g20"><g
             id="g26" /><g
             id="g28"><path
               id="path30"
               style="fill:#bfbfbf;fill-opacity:1;fill-rule:nonzero;stroke:#000000;stroke-width:1;stroke-linecap:butt;stroke-linejoin:miter;stroke-miterlimit:4;stroke-dasharray:none;stroke-opacity:1"
               d="m 103.313,14.563001 c 37.24401,0 67.437,30.193 67.437,67.436999 0,37.244 -30.19299,67.43701 -67.437,67.43701 -37.244999,0 -67.436997,-30.19301 -67.436997,-67.43701 0,-37.243999 30.191998,-67.436999 67.436997,-67.436999 z" /><path
               id="path32"
               style="fill:#ffffff;fill-opacity:1;fill-rule:nonzero;stroke:#231f20;stroke-width:1;stroke-linecap:butt;stroke-linejoin:miter;stroke-miterlimit:4;stroke-dasharray:none;stroke-opacity:1"
               d="M 0.83300006,53.5 H 224.83401" /><path
               id="path34"
               style="fill:#231f20;fill-opacity:1;fill-rule:nonzero;stroke:none"
               d="m 223.81401,53.5 -2.19099,3.603004 0.123,0.082 5.875,-2.333999 c 2.04699,-0.450001 4.09399,-0.899998 6.14099,-1.351002 -2.047,-0.450001 -4.094,-0.899998 -6.14099,-1.350998 l -5.875,-2.334 -0.123,0.062 2.19099,3.622997" /><path
               id="path36"
               style="fill:#ffffff;fill-opacity:1;fill-rule:nonzero;stroke:#231f20;stroke-width:1;stroke-linecap:butt;stroke-linejoin:miter;stroke-miterlimit:4;stroke-dasharray:none;stroke-opacity:1"
               d="M 74.042,0.66700006 V 156.66701" /><path
               id="path38"
               style="fill:#231f20;fill-opacity:1;fill-rule:nonzero;stroke:none"
               d="m 74.042,155.647 -3.602997,-2.19099 -0.082,0.123 2.332993,5.875 c 0.451011,2.047 0.901008,4.09399 1.352005,6.14099 0.450004,-2.047 0.900001,-4.09399 1.351005,-6.14099 l 2.333001,-5.875 -0.061,-0.123 L 74.042,155.647" /><text
               id="text42"
               style="font-variant:normal;font-weight:normal;font-size:11.95500088px;font-family:CMMI12;-inkscape-font-specification:CMMI12;writing-mode:lr-tb;fill:#231f20;fill-opacity:1;fill-rule:nonzero;stroke:none"
               transform="matrix(1,0,0,-1,231.91849,42.3652)"><tspan
                 id="tspan40"
                 y="0"
                 x="0">x</tspan></text>
<text
               id="text46"
               style="font-variant:normal;font-weight:normal;font-size:11.95500088px;font-family:CMMI12;-inkscape-font-specification:CMMI12;writing-mode:lr-tb;fill:#231f20;fill-opacity:1;fill-rule:nonzero;stroke:none"
               transform="matrix(1,0,0,-1,62.651218,158.36577)"><tspan
                 id="tspan44"
                 y="0"
                 x="0">y</tspan></text>
<path
               id="path48"
               style="fill:#000000;fill-opacity:1;fill-rule:nonzero;stroke:none"
               d="m 150,88 -1.48199,-2.551994 -0.091,0.048 -0.53099,4.393006 c -0.40901,1.408996 -0.817,2.817993 -1.225,4.226997 0.962,-1.108002 1.92399,-2.215004 2.886,-3.322998 l 3.39999,-2.831001 0.003,-0.096 L 150,88" /><path
               id="path50"
               style="fill:#ffffff;fill-opacity:1;fill-rule:nonzero;stroke:#000000;stroke-width:0.80000001;stroke-linecap:butt;stroke-linejoin:miter;stroke-miterlimit:4;stroke-dasharray:none;stroke-opacity:1"
               d="m 103.313,63.969002 c 9.958,0 18.03101,8.072998 18.03101,18.030998 0,9.958008 -8.07301,18.03101 -18.03101,18.03101 -9.957997,0 -18.031994,-8.073002 -18.031994,-18.03101 0,-9.958 8.073997,-18.030998 18.031994,-18.030998 z" /><text
               id="text54"
               style="font-variant:normal;font-weight:normal;font-size:11.95500088px;font-family:CMMI12;-inkscape-font-specification:CMMI12;writing-mode:lr-tb;fill:#231f20;fill-opacity:1;fill-rule:nonzero;stroke:none"
               transform="matrix(1,0,0,-1,152.11229,91.054695)"><tspan
                 id="tspan52"
                 y="0"
                 x="0">C</tspan></text>
<path
               id="path56"
               style="fill:none;stroke:#000000;stroke-width:0.80000001;stroke-linecap:butt;stroke-linejoin:miter;stroke-miterlimit:4;stroke-dasharray:none;stroke-opacity:1"
               d="M 115.40601,94.094002 103.313,82 168.332,65.781006 M 146,92.5 l -1.5,3.5 -3,1.5 -5,3.5 -2.5,2 -4,1 h -10.5 l -5,0.5 -7,0.5 -6.5,0.5 H 95.5 L 91.5,105 86,103 83.5,100.5 81,97.5 78,95 76,92 72,87.5 71,84 70,82 69,78 69.5,74 69,70 l 0.5,-2.5 0.5,-4 1,-2.5 3.5,-3 3,-2 4,-3 4.5,-3.5 5,-2.5 5.5,-1 5,-1 5.5,-0.5 h 3.5 l 5.5,-0.5 4.5,1 3.5,0.5 3,1 5.5,1 4,2.5 5,3 3,3 3,3.5 2,3.5 1,6.5 1,3.5 0.5,6 -0.5,4.5 -1,3 -2.5,4 -0.5,2.5 z" /><text
               id="text60"
               style="font-variant:normal;font-weight:normal;font-size:11.95500088px;font-family:CMMI12;-inkscape-font-specification:CMMI12;writing-mode:lr-tb;fill:#231f20;fill-opacity:1;fill-rule:nonzero;stroke:none"
               transform="matrix(1,0,0,-1,99.743195,88.793007)"><tspan
                 id="tspan58"
                 y="0"
                 x="0">r</tspan></text>
<text
               id="text64"
               style="font-variant:normal;font-weight:normal;font-size:7.96999979px;font-family:CMR8;-inkscape-font-specification:CMR8;writing-mode:lr-tb;fill:#231f20;fill-opacity:1;fill-rule:nonzero;stroke:none"
               transform="matrix(1,0,0,-1,105.019,87)"><tspan
                 id="tspan62"
                 y="0"
                 x="0">1</tspan></text>
<text
               id="text68"
               style="font-variant:normal;font-weight:normal;font-size:11.95500088px;font-family:CMMI12;-inkscape-font-specification:CMMI12;writing-mode:lr-tb;fill:#231f20;fill-opacity:1;fill-rule:nonzero;stroke:none"
               transform="matrix(1,0,0,-1,132.6528,66.293007)"><tspan
                 id="tspan66"
                 y="0"
                 x="0">r</tspan></text>
<text
               id="text72"
               style="font-variant:normal;font-weight:normal;font-size:7.96999979px;font-family:CMR8;-inkscape-font-specification:CMR8;writing-mode:lr-tb;fill:#231f20;fill-opacity:1;fill-rule:nonzero;stroke:none"
               transform="matrix(1,0,0,-1,137.92819,64.5)"><tspan
                 id="tspan70"
                 y="0"
                 x="0">2</tspan></text>
<text
               id="text76"
               style="font-variant:normal;font-weight:normal;font-size:11.95500088px;font-family:CMMI12;-inkscape-font-specification:CMMI12;writing-mode:lr-tb;fill:#231f20;fill-opacity:1;fill-rule:nonzero;stroke:none"
               transform="matrix(1,0,0,-1,94.063004,76.793007)"><tspan
                 id="tspan74"
                 y="0"
                 x="0">z</tspan></text>
<text
               id="text80"
               style="font-variant:normal;font-weight:normal;font-size:7.96999979px;font-family:CMR8;-inkscape-font-specification:CMR8;writing-mode:lr-tb;fill:#231f20;fill-opacity:1;fill-rule:nonzero;stroke:none"
               transform="matrix(1,0,0,-1,99.5,75)"><tspan
                 id="tspan78"
                 y="0"
                 x="0">0</tspan></text>
</g></g></g></g></g></svg>