<?xml version="1.0" encoding="UTF-8" standalone="no"?>
<svg
   xmlns:dc="http://purl.org/dc/elements/1.1/"
   xmlns:cc="http://creativecommons.org/ns#"
   xmlns:rdf="http://www.w3.org/1999/02/22-rdf-syntax-ns#"
   xmlns:svg="http://www.w3.org/2000/svg"
   xmlns="http://www.w3.org/2000/svg"
   viewBox="0 0 564 186.66667"
   height="186.66667"
   width="564"
   xml:space="preserve"
   id="svg2"
   version="1.1"><metadata
     id="metadata8"><rdf:RDF><cc:Work
         rdf:about=""><dc:format>image/svg+xml</dc:format><dc:type
           rdf:resource="http://purl.org/dc/dcmitype/StillImage" /></cc:Work></rdf:RDF></metadata><defs
     id="defs6"><clipPath
       id="clipPath24"
       clipPathUnits="userSpaceOnUse"><path
         id="path22"
         d="M 0,0 H 423 V 140 H 0 Z" /></clipPath><clipPath
       id="clipPath48"
       clipPathUnits="userSpaceOnUse"><path
         id="path46"
         d="M 0.06,0 H 422.52701 V 139.56401 H 0.06 Z" /></clipPath><clipPath
       id="clipPath98"
       clipPathUnits="userSpaceOnUse"><path
         id="path96"
         d="M 0.06,0 H 422.52701 V 139.56401 H 0.06 Z" /></clipPath></defs><g
     transform="matrix(1.3333333,0,0,-1.3333333,0,186.66667)"
     id="g10"><g
       id="g12" /><g
       id="g14" /><g
       id="g16"><g
         id="g18"><g
           clip-path="url(#clipPath24)"
           id="g20"><g
             id="g26" /><g
             id="g28"><path
               id="path30"
               style="fill:none;stroke:#231f20;stroke-width:1;stroke-linecap:butt;stroke-linejoin:miter;stroke-miterlimit:4;stroke-dasharray:none;stroke-opacity:1"
               d="M 10,14.751 H 163.60101" /><path
               id="path32"
               style="fill:#231f20;fill-opacity:1;fill-rule:nonzero;stroke:none"
               d="m 162.785,14.751 -1.752,2.882001 0.098,0.066 4.7,-1.867 c 1.638,-0.36 3.27499,-0.721 4.91299,-1.081001 -1.638,-0.359999 -3.27499,-0.719999 -4.91299,-1.081 l -4.7,-1.867 -0.098,0.05 1.752,2.897999" /><path
               id="path34"
               style="fill:none;stroke:#231f20;stroke-width:1;stroke-linecap:butt;stroke-linejoin:miter;stroke-miterlimit:4;stroke-dasharray:none;stroke-opacity:1"
               d="M 10.400001,15.419001 V 126.35201" /><path
               id="path36"
               style="fill:#231f20;fill-opacity:1;fill-rule:nonzero;stroke:none"
               d="m 10.400001,125.536 -2.8820009,-1.752 -0.065,0.098 1.8659997,4.7 C 9.679999,130.22 10.04,131.85701 10.400001,133.49501 10.76,131.85701 11.121,130.22 11.481001,128.582 l 1.867,-4.7 -0.05,-0.098 -2.897999,1.752" /><text
               id="text40"
               style="font-style:italic;font-variant:normal;font-size:12px;font-family:Times;-inkscape-font-specification:Times-Italic;writing-mode:lr-tb;fill:#231f20;fill-opacity:1;fill-rule:nonzero;stroke:none"
               transform="matrix(1,0,0,-1,174.201,11.752001)"><tspan
                 id="tspan38"
                 y="0"
                 x="0">x</tspan></text>
</g><g
             id="g42"><g
               clip-path="url(#clipPath48)"
               id="g44"><text
                 id="text52"
                 style="font-style:italic;font-variant:normal;font-size:12px;font-family:Times;-inkscape-font-specification:Times-Italic;writing-mode:lr-tb;fill:#231f20;fill-opacity:1;fill-rule:nonzero;stroke:none"
                 transform="matrix(1,0,0,-1,0,128.08569)"><tspan
                   id="tspan50"
                   y="0"
                   x="0">y</tspan></text>
</g></g><g
             id="g54"><path
               id="path56"
               style="fill:none;stroke:#231f20;stroke-width:1;stroke-linecap:butt;stroke-linejoin:miter;stroke-miterlimit:4;stroke-dasharray:none;stroke-opacity:1"
               d="M 154.00101,38.751003 H 48.400002" /><path
               id="path58"
               style="fill:#231f20;fill-opacity:1;fill-rule:nonzero;stroke:none"
               d="m 95.559006,38.703003 -1.735001,2.892998 0.099,0.065 4.688004,-1.895 c 1.635991,-0.369999 3.271991,-0.741001 4.907001,-1.111 -1.64,-0.350003 -3.28,-0.700001 -4.920002,-1.051003 l -4.711006,-1.837997 -0.097,0.049 1.769005,2.888001" /><path
               id="path60"
               style="fill:none;stroke:#231f20;stroke-width:1;stroke-linecap:butt;stroke-linejoin:miter;stroke-miterlimit:4;stroke-dasharray:none;stroke-opacity:1"
               d="M 48.400002,38.751003 V 119.552" /><path
               id="path62"
               style="fill:#231f20;fill-opacity:1;fill-rule:nonzero;stroke:none"
               d="m 48.912003,77.152 -2.882004,-1.752998 -0.066,0.098 1.867,4.701004 c 0.361,1.637001 0.721001,3.275001 1.081002,4.911995 0.36,-1.636994 0.720001,-3.274994 1.081001,-4.911995 l 1.865997,-4.701004 -0.048,-0.098 -2.898998,1.752998" /><text
               id="text66"
               style="font-variant:normal;font-weight:normal;font-size:11.95500088px;font-family:CMR12;-inkscape-font-specification:CMR12;writing-mode:lr-tb;fill:#231f20;fill-opacity:1;fill-rule:nonzero;stroke:none"
               transform="matrix(1,0,0,-1,32.897499,77.990799)"><tspan
                 id="tspan64"
                 y="0"
                 x="0">4</tspan></text>
<text
               id="text70"
               style="font-variant:normal;font-weight:normal;font-size:11.95500088px;font-family:CMMI12;-inkscape-font-specification:CMMI12;writing-mode:lr-tb;fill:#231f20;fill-opacity:1;fill-rule:nonzero;stroke:none"
               transform="matrix(1,0,0,-1,38.750668,77.990799)"><tspan
                 id="tspan68"
                 y="0"
                 x="0">j</tspan></text>
<path
               id="path72"
               style="fill:#231f20;fill-opacity:1;fill-rule:nonzero;stroke:none"
               d="m 38.751003,74.471001 h 5.515999 v -0.398003 h -5.515999 z" /><text
               id="text76"
               style="font-variant:normal;font-weight:normal;font-size:11.95500088px;font-family:CMR12;-inkscape-font-specification:CMR12;writing-mode:lr-tb;fill:#231f20;fill-opacity:1;fill-rule:nonzero;stroke:none"
               transform="matrix(1,0,0,-1,97.284698,26.741001)"><tspan
                 id="tspan74"
                 y="0"
                 x="0">5</tspan></text>
<text
               id="text80"
               style="font-variant:normal;font-weight:normal;font-size:11.95500088px;font-family:CMMI12;-inkscape-font-specification:CMMI12;writing-mode:lr-tb;fill:#231f20;fill-opacity:1;fill-rule:nonzero;stroke:none"
               transform="matrix(1,0,0,-1,103.13786,26.741001)"><tspan
                 id="tspan78"
                 y="0"
                 x="0">i</tspan></text>
<path
               id="path82"
               style="fill:#231f20;fill-opacity:1;fill-rule:nonzero;stroke:none"
               d="m 103.13801,25.545002 h 3.993 v -0.399 h -3.993 z" /><path
               id="path84"
               style="fill:none;stroke:#231f20;stroke-width:1;stroke-linecap:butt;stroke-linejoin:miter;stroke-miterlimit:4;stroke-dasharray:none;stroke-opacity:1"
               d="M 253,12.751 H 406.60101" /><path
               id="path86"
               style="fill:#231f20;fill-opacity:1;fill-rule:nonzero;stroke:none"
               d="m 405.78503,12.751 -1.75201,2.882 0.098,0.066 4.70001,-1.866999 c 1.638,-0.36 3.275,-0.721 4.913,-1.081001 -1.638,-0.359999 -3.275,-0.72 -4.913,-1.081 l -4.70001,-1.8669995 -0.098,0.05 1.75201,2.8979995" /><path
               id="path88"
               style="fill:none;stroke:#231f20;stroke-width:1;stroke-linecap:butt;stroke-linejoin:miter;stroke-miterlimit:4;stroke-dasharray:none;stroke-opacity:1"
               d="M 253.40001,13.419001 V 124.35201" /><path
               id="path90"
               style="fill:#231f20;fill-opacity:1;fill-rule:nonzero;stroke:none"
               d="m 253.40001,123.536 -2.882,-1.752 -0.065,0.098 1.86697,4.70001 c 0.36,1.63799 0.72,3.275 1.08002,4.913 0.36101,-1.638 0.72101,-3.27501 1.08101,-4.913 l 1.867,-4.70001 -0.049,-0.098 -2.899,1.752" /></g><g
             id="g92"><g
               clip-path="url(#clipPath98)"
               id="g94"><text
                 id="text102"
                 style="font-style:italic;font-variant:normal;font-size:12px;font-family:Times;-inkscape-font-specification:Times-Italic;writing-mode:lr-tb;fill:#231f20;fill-opacity:1;fill-rule:nonzero;stroke:none"
                 transform="matrix(1,0,0,-1,417.20102,9.7520008)"><tspan
                   id="tspan100"
                   y="0"
                   x="0">x</tspan></text>
</g></g><g
             id="g104"><text
               id="text108"
               style="font-style:italic;font-variant:normal;font-size:12px;font-family:Times;-inkscape-font-specification:Times-Italic;writing-mode:lr-tb;fill:#231f20;fill-opacity:1;fill-rule:nonzero;stroke:none"
               transform="matrix(1,0,0,-1,243,126.08569)"><tspan
                 id="tspan106"
                 y="0"
                 x="0">y</tspan></text>
<path
               id="path110"
               style="fill:none;stroke:#231f20;stroke-width:1;stroke-linecap:butt;stroke-linejoin:miter;stroke-miterlimit:4;stroke-dasharray:none;stroke-opacity:1"
               d="M 397.00101,36.751003 H 291.39999" /><path
               id="path112"
               style="fill:#231f20;fill-opacity:1;fill-rule:nonzero;stroke:none"
               d="m 338.56,36.703003 -1.73499,2.892998 0.098,0.065 4.68903,-1.895 c 1.63498,-0.370003 3.271,-0.741001 4.90598,-1.111 -1.63999,-0.350003 -3.28,-0.700001 -4.91898,-1.051003 l -4.711,-1.837997 -0.0981,0.049 1.77002,2.888001" /><path
               id="path114"
               style="fill:none;stroke:#231f20;stroke-width:1;stroke-linecap:butt;stroke-linejoin:miter;stroke-miterlimit:4;stroke-dasharray:none;stroke-opacity:1"
               d="M 397.39999,37.751003 V 118.552" /><path
               id="path116"
               style="fill:#231f20;fill-opacity:1;fill-rule:nonzero;stroke:none"
               d="m 397.91202,76.152 -2.88202,-1.752998 -0.065,0.098 1.867,4.701004 c 0.35999,1.637001 0.72,3.275001 1.07999,4.911995 0.36001,-1.636994 0.72101,-3.274994 1.08099,-4.911995 l 1.86698,-4.701004 -0.049,-0.098 -2.89898,1.752998" /><path
               id="path118"
               style="fill:none;stroke:#231f20;stroke-width:1;stroke-linecap:butt;stroke-linejoin:miter;stroke-miterlimit:4;stroke-dasharray:5, 5;stroke-dashoffset:0;stroke-opacity:1"
               d="M 291.39999,36.751003 397.80103,117.552" /><path
               id="path120"
               style="fill:#231f20;fill-opacity:1;fill-rule:nonzero;stroke:none"
               d="m 347.229,79.649002 -3.139,1.235001 0.039,0.111999 4.87198,1.356003 c 1.522,0.702995 3.044,1.406998 4.56601,2.110001 -1.08704,-1.277001 -2.172,-2.554001 -3.25901,-3.832009 l -2.61398,-4.328994 -0.108,-0.02 -0.35703,3.367996" /><text
               id="text124"
               style="font-variant:normal;font-weight:normal;font-size:11.95500088px;font-family:CMR12;-inkscape-font-specification:CMR12;writing-mode:lr-tb;fill:#231f20;fill-opacity:1;fill-rule:nonzero;stroke:none"
               transform="matrix(1,0,0,-1,404.89703,74.990799)"><tspan
                 id="tspan122"
                 y="0"
                 x="0">4</tspan></text>
<text
               id="text128"
               style="font-variant:normal;font-weight:normal;font-size:11.95500088px;font-family:CMMI12;-inkscape-font-specification:CMMI12;writing-mode:lr-tb;fill:#231f20;fill-opacity:1;fill-rule:nonzero;stroke:none"
               transform="matrix(1,0,0,-1,410.75021,74.990799)"><tspan
                 id="tspan126"
                 y="0"
                 x="0">j</tspan></text>
<path
               id="path130"
               style="fill:#231f20;fill-opacity:1;fill-rule:nonzero;stroke:none"
               d="m 410.75101,71.471001 h 5.51599 v -0.398003 h -5.51599 z" /><text
               id="text134"
               style="font-variant:normal;font-weight:normal;font-size:11.95500088px;font-family:CMR12;-inkscape-font-specification:CMR12;writing-mode:lr-tb;fill:#231f20;fill-opacity:1;fill-rule:nonzero;stroke:none"
               transform="matrix(1,0,0,-1,340.285,24.741001)"><tspan
                 id="tspan132"
                 y="0"
                 x="0">5</tspan></text>
<text
               id="text138"
               style="font-variant:normal;font-weight:normal;font-size:11.95500088px;font-family:CMMI12;-inkscape-font-specification:CMMI12;writing-mode:lr-tb;fill:#231f20;fill-opacity:1;fill-rule:nonzero;stroke:none"
               transform="matrix(1,0,0,-1,346.13818,24.741001)"><tspan
                 id="tspan136"
                 y="0"
                 x="0">i</tspan></text>
<path
               id="path140"
               style="fill:#231f20;fill-opacity:1;fill-rule:nonzero;stroke:none"
               d="m 346.13803,23.545002 h 3.99301 v -0.399 h -3.99301 z" /><text
               id="text144"
               style="font-variant:normal;font-weight:normal;font-size:11.95500088px;font-family:CMR12;-inkscape-font-specification:CMR12;writing-mode:lr-tb;fill:#231f20;fill-opacity:1;fill-rule:nonzero;stroke:none"
               transform="matrix(1,0,0,-1,314.92902,89.606003)"><tspan
                 id="tspan142"
                 y="0"
                 x="0">5</tspan></text>
<text
               id="text148"
               style="font-variant:normal;font-weight:normal;font-size:11.95500088px;font-family:CMMI12;-inkscape-font-specification:CMMI12;writing-mode:lr-tb;fill:#231f20;fill-opacity:1;fill-rule:nonzero;stroke:none"
               transform="matrix(1,0,0,-1,320.7822,89.606003)"><tspan
                 id="tspan146"
                 y="0"
                 x="0">i</tspan></text>
<path
               id="path150"
               style="fill:#231f20;fill-opacity:1;fill-rule:nonzero;stroke:none"
               d="m 320.78302,88.411003 h 3.99301 v -0.399002 h -3.99301 z" /><text
               id="text154"
               style="font-variant:normal;font-weight:normal;font-size:11.95500088px;font-family:CMR12;-inkscape-font-specification:CMR12;writing-mode:lr-tb;fill:#231f20;fill-opacity:1;fill-rule:nonzero;stroke:none"
               transform="matrix(1,0,0,-1,327.43201,89.606003)"><tspan
                 id="tspan152"
                 y="0"
                 x="0">+</tspan></text>
<text
               id="text158"
               style="font-variant:normal;font-weight:normal;font-size:11.95500088px;font-family:CMR12;-inkscape-font-specification:CMR12;writing-mode:lr-tb;fill:#231f20;fill-opacity:1;fill-rule:nonzero;stroke:none"
               transform="matrix(1,0,0,-1,339.19333,89.606003)"><tspan
                 id="tspan156"
                 y="0"
                 x="0">4</tspan></text>
<text
               id="text162"
               style="font-variant:normal;font-weight:normal;font-size:11.95500088px;font-family:CMMI12;-inkscape-font-specification:CMMI12;writing-mode:lr-tb;fill:#231f20;fill-opacity:1;fill-rule:nonzero;stroke:none"
               transform="matrix(1,0,0,-1,345.04651,89.606003)"><tspan
                 id="tspan160"
                 y="0"
                 x="0">j</tspan></text>
<path
               id="path164"
               style="fill:#231f20;fill-opacity:1;fill-rule:nonzero;stroke:none"
               d="m 345.04703,86.086006 h 5.51599 v -0.398003 h -5.51599 z" /></g></g></g></g></g></svg>