<?xml version="1.0" encoding="UTF-8" standalone="no"?>
<svg
   xmlns:dc="http://purl.org/dc/elements/1.1/"
   xmlns:cc="http://creativecommons.org/ns#"
   xmlns:rdf="http://www.w3.org/1999/02/22-rdf-syntax-ns#"
   xmlns:svg="http://www.w3.org/2000/svg"
   xmlns="http://www.w3.org/2000/svg"
   viewBox="0 0 476 165.33333"
   height="165.33333"
   width="476"
   xml:space="preserve"
   id="svg2"
   version="1.1"><metadata
     id="metadata8"><rdf:RDF><cc:Work
         rdf:about=""><dc:format>image/svg+xml</dc:format><dc:type
           rdf:resource="http://purl.org/dc/dcmitype/StillImage" /></cc:Work></rdf:RDF></metadata><defs
     id="defs6"><clipPath
       id="clipPath24"
       clipPathUnits="userSpaceOnUse"><path
         id="path22"
         d="M 0,0 H 357 V 124 H 0 Z" /></clipPath></defs><g
     transform="matrix(1.3333333,0,0,-1.3333333,0,165.33333)"
     id="g10"><g
       id="g12" /><g
       id="g14" /><g
       id="g16"><g
         id="g18"><g
           clip-path="url(#clipPath24)"
           id="g20"><g
             id="g26" /><g
             id="g28"><path
               id="path30"
               style="fill:none;stroke:#000000;stroke-width:1;stroke-linecap:butt;stroke-linejoin:miter;stroke-miterlimit:4;stroke-dasharray:none;stroke-opacity:1"
               d="M 5.1780005,14.331 H 149.92801" /><path
               id="path32"
               style="fill:#000000;fill-opacity:1;fill-rule:nonzero;stroke:none"
               d="m 149.41801,14.331 -1.095,1.801 0.062,0.041 2.937,-1.165999 c 1.024,-0.226 2.04699,-0.451 3.071,-0.676001 -1.02401,-0.224999 -2.047,-0.449999 -3.071,-0.675999 l -2.937,-1.166001 -0.062,0.03 1.095,1.811999" /><path
               id="path34"
               style="fill:none;stroke:#000000;stroke-width:1;stroke-linecap:butt;stroke-linejoin:miter;stroke-miterlimit:4;stroke-dasharray:none;stroke-opacity:1"
               d="M 10.428,9.0810003 V 114.08101" /><path
               id="path36"
               style="fill:#000000;fill-opacity:1;fill-rule:nonzero;stroke:none"
               d="m 10.428,113.57101 -1.8009992,-1.095 -0.041,0.061 1.1669999,2.93801 c 0.2250003,1.023 0.4499993,2.04699 0.6749993,3.07 0.226,-1.02301 0.451001,-2.047 0.676,-3.07 l 1.167001,-2.93801 -0.031,-0.061 -1.812,1.095" /><text
               id="text40"
               style="font-style:italic;font-variant:normal;font-size:12px;font-family:Times;-inkscape-font-specification:Times-Italic;writing-mode:lr-tb;fill:#000000;fill-opacity:1;fill-rule:nonzero;stroke:none"
               transform="matrix(1,0,0,-1,157.6785,10.6436)"><tspan
                 id="tspan38"
                 y="0"
                 x="0">x</tspan></text>
<text
               id="text44"
               style="font-style:italic;font-variant:normal;font-size:12px;font-family:Times;-inkscape-font-specification:Times-Italic;writing-mode:lr-tb;fill:#000000;fill-opacity:1;fill-rule:nonzero;stroke:none"
               transform="matrix(1,0,0,-1,0.92849731,112.8308)"><tspan
                 id="tspan42"
                 y="0"
                 x="0">y</tspan></text>
<path
               id="path46"
               style="fill:#000000;fill-opacity:1;fill-rule:nonzero;stroke:none"
               d="m 27.928001,14.429999 v -2" /><path
               id="path48"
               style="fill:#000000;fill-opacity:1;fill-rule:nonzero;stroke:none"
               d="m 82.428001,14.471001 v -2" /><path
               id="path50"
               style="fill:#000000;fill-opacity:1;fill-rule:nonzero;stroke:none"
               d="m 63.929005,14.471001 v -2" /><path
               id="path52"
               style="fill:#000000;fill-opacity:1;fill-rule:nonzero;stroke:none"
               d="m 45.928001,14.429999 v -2" /><path
               id="path54"
               style="fill:#000000;fill-opacity:1;fill-rule:nonzero;stroke:none"
               d="m 117.92901,14.331 v -2" /><path
               id="path56"
               style="fill:#000000;fill-opacity:1;fill-rule:nonzero;stroke:none"
               d="m 99.928001,14.191001 v -2" /><path
               id="path58"
               style="fill:#000000;fill-opacity:1;fill-rule:nonzero;stroke:none"
               d="M 8.9280005,34.831001 H 10.262" /><path
               id="path60"
               style="fill:#000000;fill-opacity:1;fill-rule:nonzero;stroke:none"
               d="M 8.9560003,88.498001 H 10.289001" /><path
               id="path62"
               style="fill:#000000;fill-opacity:1;fill-rule:nonzero;stroke:none"
               d="M 8.9280005,70.831001 H 10.262" /><path
               id="path64"
               style="fill:#000000;fill-opacity:1;fill-rule:nonzero;stroke:none"
               d="M 8.9280005,53.164001 H 10.262" /><path
               id="path66"
               style="fill:#000000;fill-opacity:1;fill-rule:nonzero;stroke:none"
               d="M 8.9560003,106.49801 H 10.289001" /><path
               id="path68"
               style="fill:#000000;fill-opacity:1;fill-rule:nonzero;stroke:none"
               d="m 135.595,14.164001 v -2" /><path
               id="path70"
               style="fill:#000000;fill-opacity:1;fill-rule:nonzero;stroke:#000000;stroke-width:1;stroke-linecap:butt;stroke-linejoin:miter;stroke-miterlimit:4;stroke-dasharray:none;stroke-opacity:1"
               d="m 10.595,14.498001 35.000001,56.333" /><path
               id="path72"
               style="fill:#000000;fill-opacity:1;fill-rule:nonzero;stroke:none"
               d="m 28.858002,43.781002 -2.530001,0.024 -0.003,0.089 3.050001,2.255001 c 0.878,0.900997 1.754997,1.800999 2.633001,2.702 -0.419002,-1.186002 -0.838003,-2.371999 -1.256002,-3.558 l -0.671,-3.733005 -0.07,-0.043 -1.153,2.264" /><path
               id="path74"
               style="fill:#000000;fill-opacity:1;fill-rule:nonzero;stroke:#000000;stroke-width:1;stroke-linecap:butt;stroke-linejoin:miter;stroke-miterlimit:4;stroke-dasharray:none;stroke-opacity:1"
               d="m 53.595001,43.123001 89.999999,18.666" /><path
               id="path76"
               style="fill:#000000;fill-opacity:1;fill-rule:nonzero;stroke:none"
               d="m 96.889999,52.179001 -1.725998,1.849003 0.062,0.063 3.736,-0.655002 c 1.257989,-0.015 2.515009,-0.03 3.773009,-0.045 -1.148,-0.514 -2.29601,-1.028 -3.444007,-1.542 l -3.167,-2.087002 -0.079,0.021 0.844993,2.396" /><path
               id="path78"
               style="fill:none;stroke:#000000;stroke-width:1;stroke-linecap:butt;stroke-linejoin:miter;stroke-miterlimit:4;stroke-dasharray:none;stroke-opacity:1"
               d="m 196.86301,13.44 h 144.75" /><path
               id="path80"
               style="fill:#000000;fill-opacity:1;fill-rule:nonzero;stroke:none"
               d="m 341.10303,13.44 -1.095,1.801001 0.061,0.041 2.93799,-1.167 c 1.02298,-0.225002 2.047,-0.45 3.07001,-0.675001 -1.02301,-0.225 -2.04703,-0.451 -3.07001,-0.675999 l -2.93799,-1.166 -0.061,0.03 1.095,1.812" /><path
               id="path82"
               style="fill:none;stroke:#000000;stroke-width:1;stroke-linecap:butt;stroke-linejoin:miter;stroke-miterlimit:4;stroke-dasharray:none;stroke-opacity:1"
               d="M 202.11301,8.1899996 V 113.18999" /><path
               id="path84"
               style="fill:#000000;fill-opacity:1;fill-rule:nonzero;stroke:none"
               d="m 202.11301,112.68 -1.801,-1.09499 -0.041,0.061 1.16699,2.93701 c 0.22501,1.02399 0.45002,2.04799 0.67501,3.071 0.225,-1.02301 0.451,-2.04701 0.67601,-3.071 l 1.16699,-2.93701 -0.031,-0.061 -1.81199,1.09499" /><text
               id="text88"
               style="font-style:italic;font-variant:normal;font-size:12px;font-family:Times;-inkscape-font-specification:Times-Italic;writing-mode:lr-tb;fill:#000000;fill-opacity:1;fill-rule:nonzero;stroke:none"
               transform="matrix(1,0,0,-1,351.36319,5.9397998)"><tspan
                 id="tspan86"
                 y="0"
                 x="0">x</tspan></text>
<text
               id="text92"
               style="font-style:italic;font-variant:normal;font-size:12px;font-family:Times;-inkscape-font-specification:Times-Italic;writing-mode:lr-tb;fill:#000000;fill-opacity:1;fill-rule:nonzero;stroke:none"
               transform="matrix(1,0,0,-1,193.0004,112.3126)"><tspan
                 id="tspan90"
                 y="0"
                 x="0">y</tspan></text>
<path
               id="path94"
               style="fill:#000000;fill-opacity:1;fill-rule:nonzero;stroke:none"
               d="m 219.61301,13.539001 v -2" /><path
               id="path96"
               style="fill:#000000;fill-opacity:1;fill-rule:nonzero;stroke:none"
               d="m 274.11301,13.579 v -2" /><path
               id="path98"
               style="fill:#000000;fill-opacity:1;fill-rule:nonzero;stroke:none"
               d="m 255.61301,13.579 v -2" /><path
               id="path100"
               style="fill:#000000;fill-opacity:1;fill-rule:nonzero;stroke:none"
               d="m 237.61301,13.539001 v -2" /><path
               id="path102"
               style="fill:#000000;fill-opacity:1;fill-rule:nonzero;stroke:none"
               d="m 309.61301,13.44 v -2" /><path
               id="path104"
               style="fill:#000000;fill-opacity:1;fill-rule:nonzero;stroke:none"
               d="m 291.61301,13.3 v -2" /><path
               id="path106"
               style="fill:#000000;fill-opacity:1;fill-rule:nonzero;stroke:none"
               d="m 200.61301,33.939999 h 1.334" /><path
               id="path108"
               style="fill:#000000;fill-opacity:1;fill-rule:nonzero;stroke:none"
               d="m 200.64,87.606003 h 1.33401" /><path
               id="path110"
               style="fill:#000000;fill-opacity:1;fill-rule:nonzero;stroke:none"
               d="m 200.61301,69.939995 h 1.334" /><path
               id="path112"
               style="fill:#000000;fill-opacity:1;fill-rule:nonzero;stroke:none"
               d="m 200.61301,52.273003 h 1.334" /><path
               id="path114"
               style="fill:#000000;fill-opacity:1;fill-rule:nonzero;stroke:none"
               d="m 200.64,105.606 h 1.33401" /><path
               id="path116"
               style="fill:#000000;fill-opacity:1;fill-rule:nonzero;stroke:none"
               d="m 327.28,13.273001 v -2" /><path
               id="path118"
               style="fill:#000000;fill-opacity:1;fill-rule:nonzero;stroke:#000000;stroke-width:1;stroke-linecap:butt;stroke-linejoin:miter;stroke-miterlimit:4;stroke-dasharray:none;stroke-opacity:1"
               d="m 202.28,13.606001 35,56.333994" /><path
               id="path120"
               style="fill:#000000;fill-opacity:1;fill-rule:nonzero;stroke:none"
               d="m 220.54201,42.889999 -2.52899,0.024 -0.003,0.089 3.05001,2.255001 c 0.87701,0.899998 1.75502,1.800999 2.63301,2.701996 -0.41899,-1.185997 -0.838,-2.371998 -1.256,-3.557999 l -0.671,-3.732997 -0.071,-0.043 -1.153,2.263996" /><path
               id="path122"
               style="fill:#000000;fill-opacity:1;fill-rule:nonzero;stroke:#000000;stroke-width:1;stroke-linecap:butt;stroke-linejoin:miter;stroke-miterlimit:4;stroke-dasharray:none;stroke-opacity:1"
               d="m 237.28,69.856003 90,18.667" /><path
               id="path124"
               style="fill:#000000;fill-opacity:1;fill-rule:nonzero;stroke:none"
               d="m 277.42999,78.306007 -1.72598,1.849999 0.062,0.063 3.73599,-0.654999 c 1.25797,-0.015 2.51499,-0.03 3.77301,-0.045 -1.14801,-0.514 -2.29602,-1.028 -3.444,-1.542 l -3.16702,-2.087006 -0.079,0.021 0.84497,2.395004" /><path
               id="path126"
               style="fill:#000000;fill-opacity:1;fill-rule:nonzero;stroke:#000000;stroke-width:1;stroke-linecap:butt;stroke-linejoin:miter;stroke-miterlimit:4;stroke-dasharray:none;stroke-opacity:1"
               d="m 201.5,13.313001 126,75.499003" /><path
               id="path128"
               style="fill:#000000;fill-opacity:1;fill-rule:nonzero;stroke:none"
               d="M 264.88,51.036003 261.14902,53 l 0.063,0.134003 6.23901,1.018001 c 1.98801,0.664997 3.97501,1.330998 5.962,1.996998 -1.52401,-1.438 -3.04901,-2.876999 -4.57302,-4.314999 l -3.84,-5.020999 -0.13699,-0.011 0.017,4.234001" /><text
               id="text132"
               style="font-variant:normal;font-weight:normal;font-size:11.95500088px;font-family:CMR12;-inkscape-font-specification:CMR12;writing-mode:lr-tb;fill:#231f20;fill-opacity:1;fill-rule:nonzero;stroke:none"
               transform="matrix(1,0,0,-1,28.051199,75.531601)"><tspan
                 id="tspan130"
                 y="0"
                 x="0">2</tspan></text>
<text
               id="text136"
               style="font-variant:normal;font-weight:normal;font-size:11.95500088px;font-family:CMMI12;-inkscape-font-specification:CMMI12;writing-mode:lr-tb;fill:#231f20;fill-opacity:1;fill-rule:nonzero;stroke:none"
               transform="matrix(1,0,0,-1,33.904366,75.531601)"><tspan
                 id="tspan134"
                 y="0"
                 x="0">i</tspan></text>
<path
               id="path138"
               style="fill:#231f20;fill-opacity:1;fill-rule:nonzero;stroke:none"
               d="m 33.904003,74.337006 h 3.993 v -0.399002 h -3.993 z" /><text
               id="text142"
               style="font-variant:normal;font-weight:normal;font-size:11.95500088px;font-family:CMR12;-inkscape-font-specification:CMR12;writing-mode:lr-tb;fill:#231f20;fill-opacity:1;fill-rule:nonzero;stroke:none"
               transform="matrix(1,0,0,-1,40.554199,75.531601)"><tspan
                 id="tspan140"
                 y="0"
                 x="0">+</tspan></text>
<text
               id="text146"
               style="font-variant:normal;font-weight:normal;font-size:11.95500088px;font-family:CMR12;-inkscape-font-specification:CMR12;writing-mode:lr-tb;fill:#231f20;fill-opacity:1;fill-rule:nonzero;stroke:none"
               transform="matrix(1,0,0,-1,52.320312,75.531601)"><tspan
                 id="tspan144"
                 y="0"
                 x="0">3</tspan></text>
<text
               id="text150"
               style="font-variant:normal;font-weight:normal;font-size:11.95500088px;font-family:CMMI12;-inkscape-font-specification:CMMI12;writing-mode:lr-tb;fill:#231f20;fill-opacity:1;fill-rule:nonzero;stroke:none"
               transform="matrix(1,0,0,-1,58.168697,75.531601)"><tspan
                 id="tspan148"
                 y="0"
                 x="0">j</tspan></text>
<path
               id="path152"
               style="fill:#231f20;fill-opacity:1;fill-rule:nonzero;stroke:none"
               d="m 58.168003,72.012001 h 5.515999 v -0.398003 h -5.515999 z" /><text
               id="text156"
               style="font-variant:normal;font-weight:normal;font-size:11.95500088px;font-family:CMR12;-inkscape-font-specification:CMR12;writing-mode:lr-tb;fill:#231f20;fill-opacity:1;fill-rule:nonzero;stroke:none"
               transform="matrix(1,0,0,-1,87.889198,33.531601)"><tspan
                 id="tspan154"
                 y="0"
                 x="0">5</tspan></text>
<text
               id="text160"
               style="font-variant:normal;font-weight:normal;font-size:11.95500088px;font-family:CMMI12;-inkscape-font-specification:CMMI12;writing-mode:lr-tb;fill:#231f20;fill-opacity:1;fill-rule:nonzero;stroke:none"
               transform="matrix(1,0,0,-1,93.742363,33.531601)"><tspan
                 id="tspan158"
                 y="0"
                 x="0">i</tspan></text>
<path
               id="path162"
               style="fill:#231f20;fill-opacity:1;fill-rule:nonzero;stroke:none"
               d="m 93.742004,32.337002 h 3.994003 v -0.399 h -3.994003 z" /><text
               id="text166"
               style="font-variant:normal;font-weight:normal;font-size:11.95500088px;font-family:CMR12;-inkscape-font-specification:CMR12;writing-mode:lr-tb;fill:#231f20;fill-opacity:1;fill-rule:nonzero;stroke:none"
               transform="matrix(1,0,0,-1,100.3932,33.531601)"><tspan
                 id="tspan164"
                 y="0"
                 x="0">+</tspan></text>
<text
               id="text170"
               style="font-variant:normal;font-weight:normal;font-size:11.95500088px;font-family:CMMI12;-inkscape-font-specification:CMMI12;writing-mode:lr-tb;fill:#231f20;fill-opacity:1;fill-rule:nonzero;stroke:none"
               transform="matrix(1,0,0,-1,112.15453,33.531601)"><tspan
                 id="tspan168"
                 y="0"
                 x="0">j</tspan></text>
<path
               id="path172"
               style="fill:#231f20;fill-opacity:1;fill-rule:nonzero;stroke:none"
               d="m 112.15401,30.012001 h 5.515 V 29.614 h -5.515 z" /><text
               id="text176"
               style="font-variant:normal;font-weight:normal;font-size:11.95500088px;font-family:CMR12;-inkscape-font-specification:CMR12;writing-mode:lr-tb;fill:#231f20;fill-opacity:1;fill-rule:nonzero;stroke:none"
               transform="matrix(1,0,0,-1,267.29419,39.423199)"><tspan
                 id="tspan174"
                 y="0"
                 x="0">7</tspan></text>
<text
               id="text180"
               style="font-variant:normal;font-weight:normal;font-size:11.95500088px;font-family:CMMI12;-inkscape-font-specification:CMMI12;writing-mode:lr-tb;fill:#231f20;fill-opacity:1;fill-rule:nonzero;stroke:none"
               transform="matrix(1,0,0,-1,273.14737,39.423199)"><tspan
                 id="tspan178"
                 y="0"
                 x="0">i</tspan></text>
<path
               id="path182"
               style="fill:#231f20;fill-opacity:1;fill-rule:nonzero;stroke:none"
               d="m 273.147,38.227001 h 3.99301 V 37.829002 H 273.147 Z" /><text
               id="text186"
               style="font-variant:normal;font-weight:normal;font-size:11.95500088px;font-family:CMR12;-inkscape-font-specification:CMR12;writing-mode:lr-tb;fill:#231f20;fill-opacity:1;fill-rule:nonzero;stroke:none"
               transform="matrix(1,0,0,-1,279.79718,39.423199)"><tspan
                 id="tspan184"
                 y="0"
                 x="0">+</tspan></text>
<text
               id="text190"
               style="font-variant:normal;font-weight:normal;font-size:11.95500088px;font-family:CMR12;-inkscape-font-specification:CMR12;writing-mode:lr-tb;fill:#231f20;fill-opacity:1;fill-rule:nonzero;stroke:none"
               transform="matrix(1,0,0,-1,291.56329,39.423199)"><tspan
                 id="tspan188"
                 y="0"
                 x="0">4</tspan></text>
<text
               id="text194"
               style="font-variant:normal;font-weight:normal;font-size:11.95500088px;font-family:CMMI12;-inkscape-font-specification:CMMI12;writing-mode:lr-tb;fill:#231f20;fill-opacity:1;fill-rule:nonzero;stroke:none"
               transform="matrix(1,0,0,-1,297.41168,39.423199)"><tspan
                 id="tspan192"
                 y="0"
                 x="0">j</tspan></text>
<path
               id="path196"
               style="fill:#231f20;fill-opacity:1;fill-rule:nonzero;stroke:none"
               d="m 297.41101,35.902 h 5.51501 v -0.397999 h -5.51501 z" /></g></g></g></g></g></svg>