<?xml version="1.0" encoding="UTF-8" standalone="no"?>
<svg
   xmlns:dc="http://purl.org/dc/elements/1.1/"
   xmlns:cc="http://creativecommons.org/ns#"
   xmlns:rdf="http://www.w3.org/1999/02/22-rdf-syntax-ns#"
   xmlns:svg="http://www.w3.org/2000/svg"
   xmlns="http://www.w3.org/2000/svg"
   viewBox="0 0 630.02399 283.04932"
   height="283.04932"
   width="630.02399"
   xml:space="preserve"
   id="svg2"
   version="1.1"><metadata
     id="metadata8"><rdf:RDF><cc:Work
         rdf:about=""><dc:format>image/svg+xml</dc:format><dc:type
           rdf:resource="http://purl.org/dc/dcmitype/StillImage" /></cc:Work></rdf:RDF></metadata><defs
     id="defs6" /><g
     transform="matrix(1.3333333,0,0,-1.3333333,0,283.04933)"
     id="g10"><path
       id="path12"
       style="fill:none;stroke:#231f20;stroke-width:0.5;stroke-linecap:butt;stroke-linejoin:miter;stroke-miterlimit:4;stroke-dasharray:none;stroke-opacity:1"
       d="m 168.527,33.408 42,52.8" /><path
       id="path14"
       style="fill:none;stroke:#231f20;stroke-width:1;stroke-linecap:butt;stroke-linejoin:miter;stroke-miterlimit:4;stroke-dasharray:none;stroke-opacity:1"
       d="M 274.727,145.609 211.38,86.998" /><path
       id="path16"
       style="fill:none;stroke:#231f20;stroke-width:1;stroke-linecap:butt;stroke-linejoin:miter;stroke-miterlimit:4;stroke-dasharray:5, 5;stroke-dashoffset:0;stroke-opacity:1"
       d="m 238.228,73.206 36.274,-18.633 m 0,0 3.825,-1.965 14.4,33" /><path
       id="path18"
       style="fill:#231f20;fill-opacity:1;fill-rule:nonzero;stroke:none"
       d="m 274.278,145.193 -2.433,0.694 0.021,0.086 3.538,1.366 c 1.085,0.636 2.17,1.272 3.255,1.907 -0.718,-1.032 -1.436,-2.064 -2.155,-3.097 l -1.635,-3.421 -0.079,-0.024 -0.512,2.489" /><path
       id="path20"
       style="fill:#231f20;fill-opacity:1;fill-rule:nonzero;stroke:none"
       d="m 168.908,33.887 2.51,-0.317 -0.008,-0.089 -3.29,-1.886 c -0.976,-0.793 -1.952,-1.586 -2.928,-2.379 0.553,1.129 1.106,2.258 1.659,3.388 l 1.099,3.63 0.075,0.035 0.883,-2.382" /><text
       id="text32"
       style="font-style:italic;font-variant:normal;font-size:12px;font-family:Times;-inkscape-font-specification:Times-Italic;writing-mode:lr-tb;fill:#231f20;fill-opacity:1;fill-rule:nonzero;stroke:none"
       transform="matrix(1,0,0,-1,284.518,147.6312)"><tspan
         id="tspan22"
         y="0"
         x="0 7.3319998 11.328 17.327999 20.327999 26.327999 29.327999 34.655998">P(a,b,c)</tspan><tspan
         id="tspan24"
         y="58.000801"
         x="30">y</tspan><tspan
         id="tspan26"
         y="119.0004"
         x="-110.0004">x</tspan><tspan
         id="tspan28"
         y="-53.000401"
         x="-68.000397">z</tspan><tspan
         id="tspan30"
         y="27.999599"
         x="-49.000801">r</tspan></text>
<path
       id="path34"
       style="fill:none;stroke:#231f20;stroke-width:1.29999995;stroke-linecap:butt;stroke-linejoin:miter;stroke-miterlimit:4;stroke-dasharray:none;stroke-opacity:1"
       d="m 233.518,116.631 h 5" /><path
       id="path36"
       style="fill:none;stroke:#231f20;stroke-width:1;stroke-linecap:butt;stroke-linejoin:miter;stroke-miterlimit:4;stroke-dasharray:5, 5;stroke-dashoffset:0;stroke-opacity:1"
       d="m 278.659,149.246 -0.332,-96.638 m 0,0 h -94.8" /><text
       id="text42"
       style="font-style:italic;font-variant:normal;font-size:12px;font-family:Times;-inkscape-font-specification:Times-Italic;writing-mode:lr-tb;fill:#231f20;fill-opacity:1;fill-rule:nonzero;stroke:none"
       transform="matrix(1,0,0,-1,174.518,51.631)"><tspan
         id="tspan38"
         y="0"
         x="0">a</tspan><tspan
         id="tspan40"
         y="-38.000401"
         x="117.9996">b</tspan></text>
<path
       id="path44"
       style="fill:none;stroke:#231f20;stroke-width:1;stroke-linecap:butt;stroke-linejoin:miter;stroke-miterlimit:4;stroke-dasharray:5, 5;stroke-dashoffset:0;stroke-opacity:1"
       d="m 278.152,149.312 -26.849,13.791 m -0.263,0.459 -26.849,13.791 M 240.915,71.811 214.066,85.603 m 20.486,86.546 -26.848,13.792" /><path
       id="path46"
       style="fill:none;stroke:#231f20;stroke-width:0.5;stroke-linecap:butt;stroke-linejoin:miter;stroke-miterlimit:4;stroke-dasharray:none;stroke-opacity:1"
       d="m 191.327,86.808 h 118.2" /><path
       id="path48"
       style="fill:#231f20;fill-opacity:1;fill-rule:nonzero;stroke:none"
       d="m 308.915,86.808 -1.315,2.162 0.074,0.048 3.526,-1.399 c 1.227,-0.27 2.456,-0.541 3.683,-0.811 -1.227,-0.27 -2.456,-0.541 -3.683,-0.811 l -3.526,-1.399 -0.074,0.036 1.315,2.174" /><path
       id="path50"
       style="fill:none;stroke:#231f20;stroke-width:0.5;stroke-linecap:butt;stroke-linejoin:miter;stroke-miterlimit:4;stroke-dasharray:none;stroke-opacity:1"
       d="m 211.126,73.008 v 127.2" /><path
       id="path52"
       style="fill:#231f20;fill-opacity:1;fill-rule:nonzero;stroke:none"
       d="m 211.126,199.596 -2.161,-1.314 -0.049,0.074 1.4,3.525 c 0.27,1.228 0.541,2.456 0.81,3.685 0.271,-1.229 0.542,-2.457 0.812,-3.685 l 1.399,-3.525 -0.037,-0.074 -2.174,1.314" /><text
       id="text60"
       style="font-style:italic;font-variant:normal;font-weight:normal;font-size:11.95499992px;font-family:CMMI12;-inkscape-font-specification:CMMI12;writing-mode:lr-tb;fill:#231f20;fill-opacity:1;fill-rule:nonzero;stroke:none"
       transform="matrix(1,0,0,-1,199.525,89.642)"><tspan
         id="tspan54"
         y="0"
         x="0">O</tspan><tspan
         id="tspan56"
         y="51.010792"
         x="75.993156">Q</tspan><tspan
         id="tspan58"
         y="-91.988945"
         x="2.9935319">c</tspan></text>
<path
       id="path62"
       style="fill:none;stroke:#231f20;stroke-width:0.5;stroke-linecap:butt;stroke-linejoin:miter;stroke-miterlimit:4;stroke-dasharray:none;stroke-opacity:1"
       d="m 317.056,33.338 42,52.8" /><path
       id="path64"
       style="fill:#231f20;fill-opacity:1;fill-rule:nonzero;stroke:none"
       d="m 316.912,33.254 2.51,-0.317 -0.007,-0.088 -3.29,-1.887 c -0.977,-0.793 -1.953,-1.586 -2.929,-2.379 0.554,1.129 1.106,2.259 1.66,3.388 l 1.099,3.63 0.074,0.035 0.883,-2.382" /><text
       id="text72"
       style="font-style:italic;font-variant:normal;font-size:12px;font-family:Times;-inkscape-font-specification:Times-Italic;writing-mode:lr-tb;fill:#231f20;fill-opacity:1;fill-rule:nonzero;stroke:none"
       transform="matrix(1,0,0,-1,467.191,83.577)"><tspan
         id="tspan66"
         y="0"
         x="0">y</tspan><tspan
         id="tspan68"
         y="61.9464"
         x="-150.6732">x</tspan><tspan
         id="tspan70"
         y="-114.054"
         x="-101.6736">z</tspan></text>
<path
       id="path74"
       style="fill:none;stroke:#231f20;stroke-width:0.5;stroke-linecap:butt;stroke-linejoin:miter;stroke-miterlimit:4;stroke-dasharray:none;stroke-opacity:1"
       d="m 339.331,86.175 h 118.2" /><path
       id="path76"
       style="fill:#231f20;fill-opacity:1;fill-rule:nonzero;stroke:none"
       d="m 456.919,86.175 -1.314,2.162 0.073,0.049 3.526,-1.4 c 1.228,-0.27 2.456,-0.541 3.684,-0.811 -1.228,-0.27 -2.456,-0.54 -3.684,-0.81 l -3.526,-1.4 -0.073,0.036 1.314,2.174" /><path
       id="path78"
       style="fill:none;stroke:#231f20;stroke-width:0.5;stroke-linecap:butt;stroke-linejoin:miter;stroke-miterlimit:4;stroke-dasharray:none;stroke-opacity:1"
       d="M 359.131,72.375 V 199.576" /><path
       id="path80"
       style="fill:#231f20;fill-opacity:1;fill-rule:nonzero;stroke:none"
       d="m 359.131,198.964 -2.162,-1.315 -0.049,0.074 1.401,3.525 c 0.27,1.228 0.54,2.456 0.81,3.685 0.27,-1.229 0.54,-2.457 0.811,-3.685 l 1.399,-3.525 -0.036,-0.074 -2.174,1.315" /><text
       id="text86"
       style="font-style:italic;font-variant:normal;font-weight:normal;font-size:11.95499992px;font-family:CMMI12;-inkscape-font-specification:CMMI12;writing-mode:lr-tb;fill:#231f20;fill-opacity:1;fill-rule:nonzero;stroke:none"
       transform="matrix(1,0,0,-1,347.198,88.588)"><tspan
         id="tspan82"
         y="0"
         x="0">O</tspan><tspan
         id="tspan84"
         y="31.762045"
         x="-1.6737">i</tspan></text>
<path
       id="path88"
       style="fill:#231f20;fill-opacity:1;fill-rule:nonzero;stroke:none"
       d="m 345.525,55.232 h 3.993 v 0.39898 h -3.993 z" /><text
       id="text92"
       style="font-style:italic;font-variant:normal;font-weight:normal;font-size:11.95499992px;font-family:CMMI12;-inkscape-font-specification:CMMI12;writing-mode:lr-tb;fill:#231f20;fill-opacity:1;fill-rule:nonzero;stroke:none"
       transform="matrix(1,0,0,-1,392.002,76.151)"><tspan
         id="tspan90"
         y="0"
         x="0">j</tspan></text>
<path
       id="path94"
       style="fill:#231f20;fill-opacity:1;fill-rule:nonzero;stroke:none"
       d="m 392.002,72.233 h 5.516 v 0.39798 h -5.516 z" /><text
       id="text98"
       style="font-style:italic;font-variant:normal;font-weight:normal;font-size:11.95499992px;font-family:CMMI12;-inkscape-font-specification:CMMI12;writing-mode:lr-tb;fill:#231f20;fill-opacity:1;fill-rule:nonzero;stroke:none"
       transform="matrix(1,0,0,-1,347.028,112.8261)"><tspan
         id="tspan96"
         y="0"
         x="0">k</tspan></text>
<path
       id="path100"
       style="fill:#231f20;fill-opacity:1;fill-rule:nonzero;stroke:none"
       d="m 347.029,111.232 h 6.489 v 0.39901 h -6.489 z" /><path
       id="path102"
       style="fill:#231f20;fill-opacity:1;fill-rule:nonzero;stroke:none"
       d="m 387.59,86.283 -1.314,2.161 0.073,0.05 3.526,-1.4 c 1.228,-0.271 2.456,-0.541 3.684,-0.811 -1.228,-0.27 -2.456,-0.54 -3.684,-0.81 l -3.526,-1.401 -0.073,0.037 1.314,2.174" /><path
       id="path104"
       style="fill:#231f20;fill-opacity:1;fill-rule:nonzero;stroke:none"
       d="m 358.764,85.908 -13.5,-16.8" /><path
       id="path106"
       style="fill:none;stroke:#231f20;stroke-width:1;stroke-linecap:butt;stroke-linejoin:miter;stroke-miterlimit:4;stroke-dasharray:none;stroke-opacity:1"
       d="m 358.764,85.908 -13.5,-16.8" /><path
       id="path108"
       style="fill:#231f20;fill-opacity:1;fill-rule:nonzero;stroke:none"
       d="m 345.647,69.585 2.509,-0.33 -0.008,-0.088 -3.299,-1.87 c -0.98,-0.788 -1.96,-1.576 -2.94,-2.365 0.558,1.126 1.117,2.253 1.675,3.38 l 1.118,3.625 0.074,0.034 0.871,-2.386" /><path
       id="path110"
       style="fill:#231f20;fill-opacity:1;fill-rule:nonzero;stroke:none"
       d="m 359.027,86.208 v 27.901" /><path
       id="path112"
       style="fill:none;stroke:#231f20;stroke-width:1;stroke-linecap:butt;stroke-linejoin:miter;stroke-miterlimit:4;stroke-dasharray:none;stroke-opacity:1"
       d="m 359.027,86.208 v 27.901" /><path
       id="path114"
       style="fill:#231f20;fill-opacity:1;fill-rule:nonzero;stroke:none"
       d="m 359.027,113.496 -2.161,-1.314 -0.05,0.074 1.4,3.525 c 0.271,1.228 0.54,2.456 0.811,3.684 0.27,-1.228 0.54,-2.456 0.81,-3.684 l 1.401,-3.525 -0.037,-0.074 -2.174,1.314" /><path
       id="path116"
       style="fill:none;stroke:#231f20;stroke-width:0.5;stroke-linecap:butt;stroke-linejoin:miter;stroke-miterlimit:4;stroke-dasharray:none;stroke-opacity:1"
       d="m 3.335,33.585 42,52.8" /><path
       id="path118"
       style="fill:#231f20;fill-opacity:1;fill-rule:nonzero;stroke:none"
       d="M 3.7158,34.064 6.2256,33.747 6.2183,33.659 2.9282,31.772 C 1.9522,30.979 0.97607,30.186 0,29.393 c 0.55273,1.129 1.1065,2.259 1.6592,3.388 l 1.0986,3.63 0.0752,0.035 0.8828,-2.382" /><text
       id="text126"
       style="font-style:italic;font-variant:normal;font-size:12px;font-family:Times;-inkscape-font-specification:Times-Italic;writing-mode:lr-tb;fill:#231f20;fill-opacity:1;fill-rule:nonzero;stroke:none"
       transform="matrix(1,0,0,-1,149.326,89.808)"><tspan
         id="tspan120"
         y="0"
         x="0">y</tspan><tspan
         id="tspan122"
         y="60.999599"
         x="-140.0004">x</tspan><tspan
         id="tspan124"
         y="-111.0012"
         x="-98.000397">z</tspan></text>
<path
       id="path128"
       style="fill:none;stroke:#231f20;stroke-width:0.5;stroke-linecap:butt;stroke-linejoin:miter;stroke-miterlimit:4;stroke-dasharray:none;stroke-opacity:1"
       d="m 26.135,86.985 h 118.2" /><path
       id="path130"
       style="fill:#231f20;fill-opacity:1;fill-rule:nonzero;stroke:none"
       d="m 143.723,86.985 -1.314,2.162 0.074,0.049 3.525,-1.4 c 1.228,-0.27 2.456,-0.541 3.684,-0.811 -1.228,-0.27 -2.456,-0.54 -3.684,-0.81 l -3.525,-1.4 -0.074,0.036 1.314,2.174" /><path
       id="path132"
       style="fill:none;stroke:#231f20;stroke-width:0.5;stroke-linecap:butt;stroke-linejoin:miter;stroke-miterlimit:4;stroke-dasharray:none;stroke-opacity:1"
       d="M 45.935,73.185 V 200.386" /><path
       id="path134"
       style="fill:#231f20;fill-opacity:1;fill-rule:nonzero;stroke:none"
       d="m 45.935,199.774 -2.161,-1.315 -0.05,0.074 1.4,3.525 c 0.271,1.228 0.541,2.457 0.811,3.685 0.27,-1.228 0.541,-2.457 0.811,-3.685 l 1.4,-3.525 -0.038,-0.074 -2.173,1.315" /><text
       id="text138"
       style="font-style:italic;font-variant:normal;font-weight:normal;font-size:11.95499992px;font-family:CMMI12;-inkscape-font-specification:CMMI12;writing-mode:lr-tb;fill:#231f20;fill-opacity:1;fill-rule:nonzero;stroke:none"
       transform="matrix(1,0,0,-1,32.5249,90.642)"><tspan
         id="tspan136"
         y="0"
         x="0">O</tspan></text>
<text
       id="text144"
       style="font-variant:normal;font-weight:normal;font-size:11.95499992px;font-family:CMSS12;-inkscape-font-specification:CMSS12;writing-mode:lr-tb;fill:#231f20;fill-opacity:1;fill-rule:nonzero;stroke:none"
       transform="matrix(1,0,0,-1,63.517042,3.0010905)"><tspan
         id="tspan140"
         y="0"
         x="0 4.5429001 10.13784 146.61134 151.15424 157.15565">(a)(b)</tspan><tspan
         id="tspan142"
         y="-2.0000715"
         x="328.62262 333.16553 338.36594">(c)</tspan></text>
<path
       id="path146"
       style="fill:none;stroke:#231f20;stroke-width:1;stroke-linecap:butt;stroke-linejoin:miter;stroke-miterlimit:4;stroke-dasharray:none;stroke-opacity:1"
       d="m 359.027,86.208 29.991,-0.077" /></g></svg>