<?xml version="1.0" encoding="UTF-8" standalone="no"?>
<svg
   xmlns:dc="http://purl.org/dc/elements/1.1/"
   xmlns:cc="http://creativecommons.org/ns#"
   xmlns:rdf="http://www.w3.org/1999/02/22-rdf-syntax-ns#"
   xmlns:svg="http://www.w3.org/2000/svg"
   xmlns="http://www.w3.org/2000/svg"
   viewBox="0 0 368 198.66667"
   height="198.66667"
   width="368"
   xml:space="preserve"
   id="svg2"
   version="1.1"><metadata
     id="metadata8"><rdf:RDF><cc:Work
         rdf:about=""><dc:format>image/svg+xml</dc:format><dc:type
           rdf:resource="http://purl.org/dc/dcmitype/StillImage" /></cc:Work></rdf:RDF></metadata><defs
     id="defs6"><clipPath
       id="clipPath24"
       clipPathUnits="userSpaceOnUse"><path
         id="path22"
         d="M 0,0 H 276 V 149 H 0 Z" /></clipPath><clipPath
       id="clipPath34"
       clipPathUnits="userSpaceOnUse"><path
         id="path32"
         d="M 0,0.05999756 H 275.022 V 148.73 H 0 Z" /></clipPath></defs><g
     transform="matrix(1.3333333,0,0,-1.3333333,0,198.66667)"
     id="g10"><g
       id="g12" /><g
       id="g14" /><g
       id="g16"><g
         id="g18"><g
           clip-path="url(#clipPath24)"
           id="g20"><g
             id="g26" /><g
             id="g28"><g
               clip-path="url(#clipPath34)"
               id="g30"><path
                 id="path36"
                 style="fill:none;stroke:#231f20;stroke-width:1;stroke-linecap:butt;stroke-linejoin:miter;stroke-miterlimit:4;stroke-dasharray:none;stroke-opacity:1"
                 d="M 0,22.449999 H 168.74701" /></g></g><g
             id="g38"><path
               id="path40"
               style="fill:#231f20;fill-opacity:1;fill-rule:nonzero;stroke:none"
               d="m 167.93102,22.449999 -1.75202,2.883003 0.098,0.064 4.7,-1.865999 c 1.638,-0.361002 3.275,-0.720001 4.91299,-1.081003 -1.63798,-0.36 -3.27498,-0.72 -4.91298,-1.080999 l -4.7,-1.867 -0.098,0.049 1.75202,2.898998" /><path
               id="path42"
               style="fill:none;stroke:#231f20;stroke-width:1;stroke-linecap:butt;stroke-linejoin:miter;stroke-miterlimit:4;stroke-dasharray:none;stroke-opacity:1"
               d="M 16.025002,13.118001 V 133.67601" /><path
               id="path44"
               style="fill:#231f20;fill-opacity:1;fill-rule:nonzero;stroke:none"
               d="m 16.025002,132.86 -2.882001,-1.752 -0.065,0.098 1.865999,4.7 c 0.361,1.638 0.721001,3.27499 1.081002,4.91299 0.359998,-1.638 0.720998,-3.27499 1.080999,-4.91299 l 1.867,-4.7 -0.049,-0.098 -2.899,1.752" /><text
               id="text48"
               style="font-style:italic;font-variant:normal;font-size:12px;font-family:Times;-inkscape-font-specification:Times-Italic;writing-mode:lr-tb;fill:#231f20;fill-opacity:1;fill-rule:nonzero;stroke:none"
               transform="matrix(1,0,0,-1,183.33301,19.919001)"><tspan
                 id="tspan46"
                 y="0"
                 x="0">x</tspan></text>
<text
               id="text52"
               style="font-style:italic;font-variant:normal;font-size:12px;font-family:Times;-inkscape-font-specification:Times-Italic;writing-mode:lr-tb;fill:#231f20;fill-opacity:1;fill-rule:nonzero;stroke:none"
               transform="matrix(1,0,0,-1,4.6662102,137.25139)"><tspan
                 id="tspan50"
                 y="0"
                 x="0">y</tspan></text>
<text
               id="text56"
               style="font-style:italic;font-variant:normal;font-size:12px;font-family:Times;-inkscape-font-specification:Times-Italic;writing-mode:lr-tb;fill:#231f20;fill-opacity:1;fill-rule:nonzero;stroke:none"
               transform="matrix(1,0,0,-1,3.1662102,10.951382)"><tspan
                 id="tspan54"
                 y="0"
                 x="0">O</tspan></text>
<text
               id="text60"
               style="font-variant:normal;font-weight:normal;font-size:11.95500088px;font-family:CMMI12;-inkscape-font-specification:CMMI12;writing-mode:lr-tb;fill:#231f20;fill-opacity:1;fill-rule:nonzero;stroke:none"
               transform="matrix(1,0,0,-1,123.646,92.243698)"><tspan
                 id="tspan58"
                 y="0"
                 x="0">P</tspan></text>
<text
               id="text64"
               style="font-variant:normal;font-weight:normal;font-size:11.95500088px;font-family:CMMI12;-inkscape-font-specification:CMMI12;writing-mode:lr-tb;fill:#231f20;fill-opacity:1;fill-rule:nonzero;stroke:none"
               transform="matrix(1,0,0,-1,271.02725,64.243889)"><tspan
                 id="tspan62"
                 y="0"
                 x="0">i</tspan></text>
<path
               id="path66"
               style="fill:#231f20;fill-opacity:1;fill-rule:nonzero;stroke:none"
               d="m 271.02802,62.809002 h 3.99399 v -0.478001 h -3.99399 z" /><text
               id="text70"
               style="font-variant:normal;font-weight:normal;font-size:11.95500088px;font-family:CMMI12;-inkscape-font-specification:CMMI12;writing-mode:lr-tb;fill:#231f20;fill-opacity:1;fill-rule:nonzero;stroke:none"
               transform="matrix(1,0,0,-1,221.98302,112.04401)"><tspan
                 id="tspan68"
                 y="0"
                 x="0">j</tspan></text>
<path
               id="path72"
               style="fill:#231f20;fill-opacity:1;fill-rule:nonzero;stroke:none"
               d="m 221.98401,108.285 h 5.51601 v -0.478 h -5.51601 z" /><text
               id="text76"
               style="font-variant:normal;font-weight:normal;font-size:11.95500088px;font-family:CMR12;-inkscape-font-specification:CMR12;writing-mode:lr-tb;fill:#231f20;fill-opacity:1;fill-rule:nonzero;stroke:none"
               transform="matrix(1,0,0,-1,134.81201,92.910194)"><tspan
                 id="tspan74"
                 y="0"
                 x="0">(</tspan></text>
<text
               id="text80"
               style="font-variant:normal;font-weight:normal;font-size:11.95500088px;font-family:CMMI12;-inkscape-font-specification:CMMI12;writing-mode:lr-tb;fill:#231f20;fill-opacity:1;fill-rule:nonzero;stroke:none"
               transform="matrix(1,0,0,-1,139.36447,92.910194)"><tspan
                 id="tspan78"
                 y="0"
                 x="0 6.1448703">a,</tspan></text>
<text
               id="text84"
               style="font-variant:normal;font-weight:normal;font-size:11.95500088px;font-family:CMMI12;-inkscape-font-specification:CMMI12;writing-mode:lr-tb;fill:#231f20;fill-opacity:1;fill-rule:nonzero;stroke:none"
               transform="matrix(1,0,0,-1,150.754,92.910194)"><tspan
                 id="tspan82"
                 y="0"
                 x="0">b</tspan></text>
<text
               id="text88"
               style="font-variant:normal;font-weight:normal;font-size:11.95500088px;font-family:CMR12;-inkscape-font-specification:CMR12;writing-mode:lr-tb;fill:#231f20;fill-opacity:1;fill-rule:nonzero;stroke:none"
               transform="matrix(1,0,0,-1,155.73206,92.910194)"><tspan
                 id="tspan86"
                 y="0"
                 x="0">)</tspan></text>
<text
               id="text92"
               style="font-variant:normal;font-weight:normal;font-size:11.95500088px;font-family:CMMI12;-inkscape-font-specification:CMMI12;writing-mode:lr-tb;fill:#231f20;fill-opacity:1;fill-rule:nonzero;stroke:none"
               transform="matrix(1,0,0,-1,59.90197,63.053776)"><tspan
                 id="tspan90"
                 y="0"
                 x="0">r</tspan></text>
<path
               id="path94"
               style="fill:#231f20;fill-opacity:1;fill-rule:nonzero;stroke:none"
               d="M 59.900002,61.619003 H 65.5 v -0.478001 h -5.599998 z" /><path
               id="path96"
               style="fill:#231f20;fill-opacity:1;fill-rule:nonzero;stroke:none"
               d="m 15.5,22.951 98.66701,67.334004" /><path
               id="path98"
               style="fill:none;stroke:#231f20;stroke-width:1;stroke-linecap:butt;stroke-linejoin:miter;stroke-miterlimit:4;stroke-dasharray:none;stroke-opacity:1"
               d="m 15.5,22.951 98.66701,67.334004" /><path
               id="path100"
               style="fill:#231f20;fill-opacity:1;fill-rule:nonzero;stroke:none"
               d="m 115.54,92.463005 c -1.64699,-0.518997 -2.794,-0.745003 -4.18899,-1.053009 l 2.843,-4.166992 c 0.265,0.454002 1.42399,2.174003 2.50799,3.517998 1.16001,1.439003 2.279,2.645004 3.06501,3.340004 -0.933,-0.479004 -2.464,-1.082001 -4.22701,-1.638001" /><path
               id="path102"
               style="fill:none;stroke:#231f20;stroke-width:1;stroke-linecap:butt;stroke-linejoin:miter;stroke-miterlimit:4;stroke-dasharray:none;stroke-opacity:1"
               d="m 115.54,92.463005 c -1.64699,-0.518997 -2.794,-0.745003 -4.18899,-1.053009 l 2.843,-4.166992 c 0.265,0.454002 1.42399,2.174003 2.50799,3.517998 1.16001,1.439003 2.279,2.645004 3.06501,3.340004 -0.933,-0.479004 -2.464,-1.082001 -4.22701,-1.638001 z" /><path
               id="path104"
               style="fill:none;stroke:#231f20;stroke-width:1;stroke-linecap:butt;stroke-linejoin:miter;stroke-miterlimit:4;stroke-dasharray:3, 3, 3, 3, 3, 3;stroke-dashoffset:0;stroke-opacity:1"
               d="M 119.5,90.952003 V 23.618002 m -4.66599,71.334001 H 15.5" /><text
               id="text108"
               style="font-variant:normal;font-weight:normal;font-size:11.95500088px;font-family:CMMI12;-inkscape-font-specification:CMMI12;writing-mode:lr-tb;fill:#231f20;fill-opacity:1;fill-rule:nonzero;stroke:none"
               transform="matrix(1,0,0,-1,65.031197,11.91)"><tspan
                 id="tspan106"
                 y="0"
                 x="0">a</tspan></text>
<text
               id="text112"
               style="font-variant:normal;font-weight:normal;font-size:11.95500088px;font-family:CMMI12;-inkscape-font-specification:CMMI12;writing-mode:lr-tb;fill:#231f20;fill-opacity:1;fill-rule:nonzero;stroke:none"
               transform="matrix(1,0,0,-1,123.41943,53.243217)"><tspan
                 id="tspan110"
                 y="0"
                 x="0">b</tspan></text>
<path
               id="path114"
               style="fill:none;stroke:#231f20;stroke-width:1;stroke-linecap:butt;stroke-linejoin:miter;stroke-miterlimit:4;stroke-dasharray:none;stroke-opacity:1"
               d="m 259.5,67.619003 h -44 V 112.952" /><path
               id="path116"
               style="fill:#231f20;fill-opacity:1;fill-rule:nonzero;stroke:none"
               d="m 214.47501,115.313 c -0.5,-1.653 -0.96,-2.72799 -1.49199,-4.054 h 5.045 c -0.22701,0.47501 -0.99302,2.401 -1.49201,4.054 -0.53601,1.77001 -0.901,3.374 -1.032,4.415 -0.12899,-1.041 -0.496,-2.64499 -1.029,-4.415" /><path
               id="path118"
               style="fill:#231f20;fill-opacity:1;fill-rule:nonzero;stroke:none"
               d="m 261.862,68.643005 c -1.65399,0.5 -2.72897,0.959999 -4.05499,1.491997 v -5.043999 c 0.475,0.224999 2.401,0.991997 4.05499,1.491997 1.76901,0.534004 3.37302,0.900002 4.414,1.030007 -1.04098,0.130996 -2.64499,0.495994 -4.414,1.029998" /></g></g></g></g></g></svg>