<?xml version="1.0" encoding="UTF-8" standalone="no"?>
<svg
   xmlns:dc="http://purl.org/dc/elements/1.1/"
   xmlns:cc="http://creativecommons.org/ns#"
   xmlns:rdf="http://www.w3.org/1999/02/22-rdf-syntax-ns#"
   xmlns:svg="http://www.w3.org/2000/svg"
   xmlns="http://www.w3.org/2000/svg"
   viewBox="0 0 236.07333 235.80667"
   height="235.80667"
   width="236.07333"
   xml:space="preserve"
   id="svg2"
   version="1.1"><metadata
     id="metadata8"><rdf:RDF><cc:Work
         rdf:about=""><dc:format>image/svg+xml</dc:format><dc:type
           rdf:resource="http://purl.org/dc/dcmitype/StillImage" /></cc:Work></rdf:RDF></metadata><defs
     id="defs6"><clipPath
       id="clipPath22"
       clipPathUnits="userSpaceOnUse"><path
         id="path20"
         d="M 0.059998,176.856 H 177.055 V 0.06 H 0.059998 Z" /></clipPath><clipPath
       id="clipPath40"
       clipPathUnits="userSpaceOnUse"><path
         id="path38"
         d="M 0.059998,176.856 H 177.055 V 0.06 H 0.059998 Z" /></clipPath></defs><g
     transform="matrix(1.3333333,0,0,-1.3333333,0,235.80667)"
     id="g10"><path
       id="path12"
       style="fill:none;stroke:#231f20;stroke-width:0.89999998;stroke-linecap:butt;stroke-linejoin:miter;stroke-miterlimit:4;stroke-dasharray:none;stroke-opacity:1"
       d="M 14.557,4.696 V 145.638" /><path
       id="path14"
       style="fill:#231f20;fill-opacity:1;fill-rule:nonzero;stroke:none"
       d="m 14.557,144.812 -2.918,-1.774 -0.067,0.099 1.89,4.759 c 0.365,1.658 0.73,3.316 1.095,4.974 0.364,-1.658 0.729,-3.316 1.094,-4.974 l 1.891,-4.759 -0.05,-0.099 -2.935,1.774" /><g
       id="g16"><g
         clip-path="url(#clipPath22)"
         id="g18"><path
           id="path24"
           style="fill:none;stroke:#231f20;stroke-width:0.89999998;stroke-linecap:butt;stroke-linejoin:miter;stroke-miterlimit:4;stroke-dasharray:none;stroke-opacity:1"
           d="m 10.969,18.736 h 3.463 M 14.393,38.717 H 10.93 m 3.494,19.44 h -3.463 m 3.541,19.44 h -3.463 m 3.354,18.901 H 10.93 m 3.087,19.98 h -3.463 m 3.917,19.44 H 11.008 M 0,19.253 h 141.752" /></g></g><path
       id="path26"
       style="fill:#231f20;fill-opacity:1;fill-rule:nonzero;stroke:none"
       d="m 140.926,19.253 -1.774,2.918 0.099,0.066 4.759,-1.89 c 1.658,-0.365 3.316,-0.73 4.974,-1.094 -1.658,-0.365 -3.316,-0.73 -4.974,-1.095 l -4.759,-1.89 -0.099,0.05 1.774,2.935" /><path
       id="path28"
       style="fill:none;stroke:#231f20;stroke-width:0.89999998;stroke-linecap:butt;stroke-linejoin:miter;stroke-miterlimit:4;stroke-dasharray:none;stroke-opacity:1"
       d="m 33.616,19.096 v -3.463 m 19.44,3.463 v -3.463 m 19.44,3.463 v -3.463 m 19.44,3.353 v -3.463 m 18.901,3.604 v -3.463 m 19.98,3.424 v -3.463" /><path
       id="path30"
       style="fill:none;stroke:#231f20;stroke-width:1;stroke-linecap:butt;stroke-linejoin:miter;stroke-miterlimit:4;stroke-dasharray:none;stroke-opacity:1"
       d="M 14.367,19.396 149.219,174.75 M 70.472,114.779 14.312,18.659" /><path
       id="path32"
       style="fill:#231f20;fill-opacity:1;fill-rule:nonzero;stroke:none"
       d="m 76.411,90.992 -3.705,0.82 0.022,0.131 5.175,2.366 c 1.567,1.049 3.134,2.099 4.7,3.151 -0.98,-1.611 -1.963,-3.223 -2.944,-4.833 l -2.142,-5.271 -0.115,-0.043 -0.991,3.679" /><g
       id="g34"><g
         clip-path="url(#clipPath40)"
         id="g36"><path
           id="path42"
           style="fill:#231f20;fill-opacity:1;fill-rule:nonzero;stroke:none"
           d="m 38.615,60.625 -3.794,-0.066 -0.008,0.132 4.481,3.506 c 1.28,1.386 2.559,2.773 3.838,4.159 -0.579,-1.795 -1.158,-3.591 -1.738,-5.386 l -0.854,-5.624 -0.103,-0.068 -1.822,3.347" /><path
           id="path44"
           style="fill:#231f20;fill-opacity:1;fill-rule:nonzero;stroke:none"
           d="m 149.374,171.782 c 1.4,0.114 2.446,1.342 2.332,2.743 -0.114,1.401 -1.344,2.445 -2.744,2.331 -1.401,-0.114 -2.445,-1.342 -2.331,-2.743 0.113,-1.401 1.341,-2.445 2.743,-2.331" /></g></g><path
       id="path46"
       style="fill:#231f20;fill-opacity:1;fill-rule:nonzero;stroke:none"
       d="m 71.526,113.711 c 1.406,0 2.546,1.14 2.546,2.546 0,1.406 -1.14,2.546 -2.546,2.546 -1.406,0 -2.546,-1.14 -2.546,-2.546 0,-1.406 1.14,-2.546 2.546,-2.546" /><text
       id="text52"
       style="font-style:italic;font-variant:normal;font-size:10.80000019px;font-family:Times;-inkscape-font-specification:Times-Italic;writing-mode:lr-tb;fill:#231f20;fill-opacity:1;fill-rule:nonzero;stroke:none"
       transform="matrix(1,0,0,-1,69.8716,103.3566)"><tspan
         id="tspan48"
         y="0"
         x="0">A</tspan><tspan
         id="tspan50"
         y="-55.812241"
         x="76.978081">B</tspan></text>
<text
       id="text58"
       style="font-style:italic;font-variant:normal;font-weight:normal;font-size:10.75949955px;font-family:CMMI12;-inkscape-font-specification:CMMI12;writing-mode:lr-tb;fill:#231f20;fill-opacity:1;fill-rule:nonzero;stroke:none"
       transform="matrix(1,0,0,-1,153.571,16.957)"><tspan
         id="tspan54"
         y="0"
         x="0">x</tspan><tspan
         id="tspan56"
         y="-129.59924"
         x="-150.29945">y</tspan></text>
<text
       id="text62"
       style="font-variant:normal;font-weight:normal;font-size:10.75949955px;font-family:CMR12;-inkscape-font-specification:CMR12;writing-mode:lr-tb;fill:#231f20;fill-opacity:1;fill-rule:nonzero;stroke:none"
       transform="matrix(1,0,0,-1,47.687836,120.45586)"><tspan
         id="tspan60"
         y="0"
         x="0 4.0886102">(3</tspan></text>
<text
       id="text66"
       style="font-style:italic;font-variant:normal;font-weight:normal;font-size:10.75949955px;font-family:CMMI12;-inkscape-font-specification:CMMI12;writing-mode:lr-tb;fill:#231f20;fill-opacity:1;fill-rule:nonzero;stroke:none"
       transform="matrix(1,0,0,-1,57.051829,120.45586)"><tspan
         id="tspan64"
         y="0"
         x="0">,</tspan></text>
<text
       id="text72"
       style="font-variant:normal;font-weight:normal;font-size:10.75949955px;font-family:CMR12;-inkscape-font-specification:CMR12;writing-mode:lr-tb;fill:#231f20;fill-opacity:1;fill-rule:nonzero;stroke:none"
       transform="matrix(1,0,0,-1,61.772022,120.45586)"><tspan
         id="tspan68"
         y="0"
         x="0 5.2613955">5)</tspan><tspan
         id="tspan70"
         y="-38.499641"
         x="91.849548 95.938156">(7</tspan></text>
<text
       id="text76"
       style="font-style:italic;font-variant:normal;font-weight:normal;font-size:10.75949955px;font-family:CMMI12;-inkscape-font-specification:CMMI12;writing-mode:lr-tb;fill:#231f20;fill-opacity:1;fill-rule:nonzero;stroke:none"
       transform="matrix(1,0,0,-1,162.98556,158.9555)"><tspan
         id="tspan74"
         y="0"
         x="0">,</tspan></text>
<text
       id="text80"
       style="font-variant:normal;font-weight:normal;font-size:10.75949955px;font-family:CMR12;-inkscape-font-specification:CMR12;writing-mode:lr-tb;fill:#231f20;fill-opacity:1;fill-rule:nonzero;stroke:none"
       transform="matrix(1,0,0,-1,167.70576,158.9555)"><tspan
         id="tspan78"
         y="0"
         x="0 5.2613955">8)</tspan></text>
<text
       id="text84"
       style="font-style:italic;font-variant:normal;font-size:10.80000019px;font-family:Times;-inkscape-font-specification:Times-Italic;writing-mode:lr-tb;fill:#231f20;fill-opacity:1;fill-rule:nonzero;stroke:none"
       transform="matrix(1,0,0,-1,5.3716,9.857)"><tspan
         id="tspan82"
         y="0"
         x="0">O</tspan></text>
</g></svg>