<?xml version="1.0" encoding="UTF-8" standalone="no"?>
<svg
   xmlns:dc="http://purl.org/dc/elements/1.1/"
   xmlns:cc="http://creativecommons.org/ns#"
   xmlns:rdf="http://www.w3.org/1999/02/22-rdf-syntax-ns#"
   xmlns:svg="http://www.w3.org/2000/svg"
   xmlns="http://www.w3.org/2000/svg"
   viewBox="0 0 312 124"
   height="124"
   width="312"
   xml:space="preserve"
   id="svg2"
   version="1.1"><metadata
     id="metadata8"><rdf:RDF><cc:Work
         rdf:about=""><dc:format>image/svg+xml</dc:format><dc:type
           rdf:resource="http://purl.org/dc/dcmitype/StillImage" /></cc:Work></rdf:RDF></metadata><defs
     id="defs6"><clipPath
       id="clipPath24"
       clipPathUnits="userSpaceOnUse"><path
         id="path22"
         d="M 0,0 H 234 V 93 H 0 Z" /></clipPath><clipPath
       id="clipPath38"
       clipPathUnits="userSpaceOnUse"><path
         id="path36"
         d="M 0,0 H 233.60001 V 92.816002 H 0 Z" /></clipPath></defs><g
     transform="matrix(1.3333333,0,0,-1.3333333,0,124)"
     id="g10"><g
       id="g12" /><g
       id="g14" /><g
       id="g16"><g
         id="g18"><g
           clip-path="url(#clipPath24)"
           id="g20"><g
             id="g26" /><g
             id="g28"><path
               id="path30"
               style="fill:#ffffff;fill-opacity:1;fill-rule:nonzero;stroke:none"
               d="M 0,13.813001 H 214.93301" /></g><g
             id="g32"><g
               clip-path="url(#clipPath38)"
               id="g34"><path
                 id="path40"
                 style="fill:none;stroke:#231f20;stroke-width:1;stroke-linecap:butt;stroke-linejoin:miter;stroke-miterlimit:4;stroke-dasharray:none;stroke-opacity:1"
                 d="M 0,13.813001 H 214.93301" /></g></g><g
             id="g42"><path
               id="path44"
               style="fill:#231f20;fill-opacity:1;fill-rule:nonzero;stroke:none"
               d="m 218.00301,15.145 c -2.14901,0.649001 -3.547,1.247 -5.26999,1.939002 v -6.558001 c 0.61799,0.292999 3.12098,1.29 5.26999,1.938999 2.30101,0.695 4.38699,1.171001 5.738,1.34 -1.35101,0.17 -3.43699,0.645 -5.738,1.34" /><path
               id="path46"
               style="fill:#ffffff;fill-opacity:1;fill-rule:nonzero;stroke:none"
               d="M 101.22701,7.5710006 V 87.651001" /><path
               id="path48"
               style="fill:none;stroke:#231f20;stroke-width:1;stroke-linecap:butt;stroke-linejoin:miter;stroke-miterlimit:4;stroke-dasharray:none;stroke-opacity:1"
               d="M 101.22701,7.5710006 V 87.651001" /><path
               id="path50"
               style="fill:#231f20;fill-opacity:1;fill-rule:nonzero;stroke:none"
               d="m 99.894005,85.088005 c -0.650002,-2.149002 -1.248001,-3.545998 -1.939003,-5.271004 h 6.558008 c -0.29401,0.618004 -1.291,3.122002 -1.939,5.271004 -0.696,2.301003 -1.171,4.387001 -1.34001,5.738998 -0.17,-1.351997 -0.64599,-3.437995 -1.339995,-5.738998" /><path
               id="path52"
               style="fill:none;stroke:#231f20;stroke-width:1;stroke-linecap:butt;stroke-linejoin:miter;stroke-miterlimit:4;stroke-dasharray:3, 3, 3, 3, 3, 3;stroke-dashoffset:0;stroke-opacity:1"
               d="m 119.33501,84.428001 c 10.41099,-0.378997 21.541,-2.042999 32.87498,-5.114997 19.19902,-5.205002 35.85701,-13.604004 48.09802,-23.411" /><path
               id="path54"
               style="fill:none;stroke:#231f20;stroke-width:1;stroke-linecap:butt;stroke-linejoin:miter;stroke-miterlimit:4;stroke-dasharray:none;stroke-opacity:1"
               d="M 52.693001,14.506001 137.974,83.146004 145.60101,14.506001" /><path
               id="path56"
               style="fill:#231f20;fill-opacity:1;fill-rule:nonzero;stroke:none"
               d="m 140.054,82.452003 c 0,-1.148002 -0.93199,-2.080001 -2.08099,-2.080001 -1.148,0 -2.08,0.931999 -2.08,2.080001 0,1.149003 0.932,2.080002 2.08,2.080002 1.149,0 2.08099,-0.930999 2.08099,-2.080002" /><path
               id="path58"
               style="fill:none;stroke:#231f20;stroke-width:1;stroke-linecap:butt;stroke-linejoin:miter;stroke-miterlimit:4;stroke-dasharray:none;stroke-opacity:1"
               d="m 140.054,82.452003 c 0,-1.148002 -0.93199,-2.080001 -2.08099,-2.080001 -1.148,0 -2.08,0.931999 -2.08,2.080001 0,1.149003 0.932,2.080002 2.08,2.080002 1.149,0 2.08099,-0.930999 2.08099,-2.080002 z" /><path
               id="path60"
               style="fill:#231f20;fill-opacity:1;fill-rule:nonzero;stroke:none"
               d="m 54.079998,14.506001 c 0,-1.149001 -0.930996,-2.08 -2.079998,-2.08 -1.148998,0 -2.080997,0.930999 -2.080997,2.08 0,1.147999 0.931999,2.079 2.080997,2.079 1.149002,0 2.079998,-0.931001 2.079998,-2.079" /><path
               id="path62"
               style="fill:none;stroke:#231f20;stroke-width:1;stroke-linecap:butt;stroke-linejoin:miter;stroke-miterlimit:4;stroke-dasharray:none;stroke-opacity:1"
               d="m 54.079998,14.506001 c 0,-1.149001 -0.930996,-2.08 -2.079998,-2.08 -1.148998,0 -2.080997,0.930999 -2.080997,2.08 0,1.147999 0.931999,2.079 2.080997,2.079 1.149002,0 2.079998,-0.931001 2.079998,-2.079 z" /><path
               id="path64"
               style="fill:#231f20;fill-opacity:1;fill-rule:nonzero;stroke:none"
               d="m 147.681,14.506001 c 0,-1.149001 -0.93199,-2.08 -2.07999,-2.08 -1.149,0 -2.08,0.930999 -2.08,2.08 0,1.147999 0.931,2.079 2.08,2.079 1.148,0 2.07999,-0.931001 2.07999,-2.079" /><path
               id="path66"
               style="fill:none;stroke:#231f20;stroke-width:1;stroke-linecap:butt;stroke-linejoin:miter;stroke-miterlimit:4;stroke-dasharray:none;stroke-opacity:1"
               d="m 147.681,14.506001 c 0,-1.149001 -0.93199,-2.08 -2.07999,-2.08 -1.149,0 -2.08,0.930999 -2.08,2.08 0,1.147999 0.931,2.079 2.08,2.079 1.148,0 2.07999,-0.931001 2.07999,-2.079 z" /><text
               id="text70"
               style="font-variant:normal;font-weight:normal;font-size:12.43319988px;font-family:CMMI12;-inkscape-font-specification:CMMI12;writing-mode:lr-tb;fill:#231f20;fill-opacity:1;fill-rule:nonzero;stroke:none"
               transform="matrix(1,0,0,-1,148.897,18.101599)"><tspan
                 id="tspan68"
                 y="0"
                 x="0">A</tspan></text>
<text
               id="text74"
               style="font-variant:normal;font-weight:normal;font-size:12.43319988px;font-family:CMMI12;-inkscape-font-specification:CMMI12;writing-mode:lr-tb;fill:#231f20;fill-opacity:1;fill-rule:nonzero;stroke:none"
               transform="matrix(1,0,0,-1,41.788723,17.407825)"><tspan
                 id="tspan72"
                 y="0"
                 x="0">B</tspan></text>
<text
               id="text78"
               style="font-variant:normal;font-weight:normal;font-size:12.43319988px;font-family:CMMI12;-inkscape-font-specification:CMMI12;writing-mode:lr-tb;fill:#231f20;fill-opacity:1;fill-rule:nonzero;stroke:none"
               transform="matrix(1,0,0,-1,120.98323,16.454199)"><tspan
                 id="tspan76"
                 y="0"
                 x="0">c</tspan></text>
<text
               id="text82"
               style="font-variant:normal;font-weight:normal;font-size:12.43319988px;font-family:CMMI12;-inkscape-font-specification:CMMI12;writing-mode:lr-tb;fill:#231f20;fill-opacity:1;fill-rule:nonzero;stroke:none"
               transform="matrix(1,0,0,-1,143.082,81.757095)"><tspan
                 id="tspan80"
                 y="0"
                 x="0">P</tspan></text>
<text
               id="text86"
               style="font-variant:normal;font-weight:normal;font-size:12.43319988px;font-family:CMR12;-inkscape-font-specification:CMR12;writing-mode:lr-tb;fill:#231f20;fill-opacity:1;fill-rule:nonzero;stroke:none"
               transform="matrix(1,0,0,-1,152.62076,81.757095)"><tspan
                 id="tspan84"
                 y="0"
                 x="0">(</tspan></text>
<text
               id="text90"
               style="font-variant:normal;font-weight:normal;font-size:12.43319988px;font-family:CMMI12;-inkscape-font-specification:CMMI12;writing-mode:lr-tb;fill:#231f20;fill-opacity:1;fill-rule:nonzero;stroke:none"
               transform="matrix(1,0,0,-1,157.35283,81.757095)"><tspan
                 id="tspan88"
                 y="0"
                 x="0 6.912859">x,</tspan></text>
<text
               id="text94"
               style="font-variant:normal;font-weight:normal;font-size:12.43319988px;font-family:CMMI12;-inkscape-font-specification:CMMI12;writing-mode:lr-tb;fill:#231f20;fill-opacity:1;fill-rule:nonzero;stroke:none"
               transform="matrix(1,0,0,-1,169.72635,81.757095)"><tspan
                 id="tspan92"
                 y="0"
                 x="0">y</tspan></text>
<text
               id="text98"
               style="font-variant:normal;font-weight:normal;font-size:12.43319988px;font-family:CMR12;-inkscape-font-specification:CMR12;writing-mode:lr-tb;fill:#231f20;fill-opacity:1;fill-rule:nonzero;stroke:none"
               transform="matrix(1,0,0,-1,176.10707,81.757095)"><tspan
                 id="tspan96"
                 y="0"
                 x="0">)</tspan></text>
<text
               id="text102"
               style="font-variant:normal;font-weight:normal;font-size:12.43319988px;font-family:CMMI12;-inkscape-font-specification:CMMI12;writing-mode:lr-tb;fill:#231f20;fill-opacity:1;fill-rule:nonzero;stroke:none"
               transform="matrix(1,0,0,-1,76.263512,16.107313)"><tspan
                 id="tspan100"
                 y="0"
                 x="0">c</tspan></text>
<text
               id="text106"
               style="font-variant:normal;font-weight:normal;font-size:12.43319988px;font-family:CMMI12;-inkscape-font-specification:CMMI12;writing-mode:lr-tb;fill:#231f20;fill-opacity:1;fill-rule:nonzero;stroke:none"
               transform="matrix(1,0,0,-1,103.32313,3.1071601)"><tspan
                 id="tspan104"
                 y="0"
                 x="0">O</tspan></text>
<text
               id="text110"
               style="font-variant:normal;font-weight:normal;font-size:12.43319988px;font-family:CMMI12;-inkscape-font-specification:CMMI12;writing-mode:lr-tb;fill:#231f20;fill-opacity:1;fill-rule:nonzero;stroke:none"
               transform="matrix(1,0,0,-1,226.68658,11.989438)"><tspan
                 id="tspan108"
                 y="0"
                 x="0">x</tspan></text>
<text
               id="text114"
               style="font-variant:normal;font-weight:normal;font-size:12.43319988px;font-family:CMMI12;-inkscape-font-specification:CMMI12;writing-mode:lr-tb;fill:#231f20;fill-opacity:1;fill-rule:nonzero;stroke:none"
               transform="matrix(1,0,0,-1,90.424942,83.489044)"><tspan
                 id="tspan112"
                 y="0"
                 x="0">y</tspan></text>
</g></g></g></g></g></svg>