<?xml version="1.0" encoding="UTF-8" standalone="no"?>
<svg
   xmlns:dc="http://purl.org/dc/elements/1.1/"
   xmlns:cc="http://creativecommons.org/ns#"
   xmlns:rdf="http://www.w3.org/1999/02/22-rdf-syntax-ns#"
   xmlns:svg="http://www.w3.org/2000/svg"
   xmlns="http://www.w3.org/2000/svg"
   viewBox="0 0 598.66669 248"
   height="248"
   width="598.66669"
   xml:space="preserve"
   id="svg2"
   version="1.1"><metadata
     id="metadata8"><rdf:RDF><cc:Work
         rdf:about=""><dc:format>image/svg+xml</dc:format><dc:type
           rdf:resource="http://purl.org/dc/dcmitype/StillImage" /></cc:Work></rdf:RDF></metadata><defs
     id="defs6"><clipPath
       id="clipPath24"
       clipPathUnits="userSpaceOnUse"><path
         id="path22"
         d="M 0,0 H 449 V 186 H 0 Z" /></clipPath><clipPath
       id="clipPath34"
       clipPathUnits="userSpaceOnUse"><path
         id="path32"
         d="M 0,0.05999756 H 448.25 V 185.96201 H 0 Z" /></clipPath><clipPath
       id="clipPath52"
       clipPathUnits="userSpaceOnUse"><path
         id="path50"
         d="M 0,0.05999756 H 448.25 V 185.96201 H 0 Z" /></clipPath><clipPath
       id="clipPath70"
       clipPathUnits="userSpaceOnUse"><path
         id="path68"
         d="M 0,0.05999756 H 448.25 V 185.96201 H 0 Z" /></clipPath></defs><g
     transform="matrix(1.3333333,0,0,-1.3333333,0,248)"
     id="g10"><g
       id="g12" /><g
       id="g14" /><g
       id="g16"><g
         id="g18"><g
           clip-path="url(#clipPath24)"
           id="g20"><g
             id="g26" /><g
             id="g28"><g
               clip-path="url(#clipPath34)"
               id="g30"><path
                 id="path36"
                 style="fill:none;stroke:#231f20;stroke-width:0.60000002;stroke-linecap:butt;stroke-linejoin:miter;stroke-miterlimit:4;stroke-dasharray:1.8000001, 5.4000001, 1.8000001, 5.4000001, 1.8000001, 5.4000001;stroke-dashoffset:0;stroke-opacity:1"
                 d="M 59.538002,175.98 V 0" /></g></g><g
             id="g38"><path
               id="path40"
               style="fill:none;stroke:#231f20;stroke-width:0.60000002;stroke-linecap:butt;stroke-linejoin:miter;stroke-miterlimit:4;stroke-dasharray:none;stroke-opacity:1"
               d="m 59.291004,145.091 c 26.993,0 48.876006,4.103 48.876006,9.164 0,5.062 -21.883006,9.165 -48.876006,9.165 -26.993004,0 -48.876003,-4.103 -48.876003,-9.165 0,-5.061 21.882999,-9.164 48.876003,-9.164 z M 59.733002,32.013 c 26.993004,0 48.876008,4.103001 48.876008,9.164002 0,5.061001 -21.883004,9.164001 -48.876008,9.164001 -26.992001,0 -48.875001,-4.103 -48.875001,-9.164001 0,-5.061001 21.883,-9.164002 48.875001,-9.164002 z M 11.148001,152.302 108.34901,41.802002 m -0.36,111.531008 L 10.788,41.972" /><path
               id="path42"
               style="fill:none;stroke:#231f20;stroke-width:1.20000005;stroke-linecap:butt;stroke-linejoin:miter;stroke-miterlimit:4;stroke-dasharray:1.2, 3.6000001, 1.2, 3.6000001, 1.2, 3.6000001;stroke-dashoffset:0;stroke-opacity:1"
               d="m 38.009998,162.43501 c -2.782997,-22.311 -1.144996,-39.71 4.864003,-46.293" /><path
               id="path44"
               style="fill:none;stroke:#231f20;stroke-width:1.20000005;stroke-linecap:butt;stroke-linejoin:miter;stroke-miterlimit:4;stroke-dasharray:none;stroke-opacity:1"
               d="m 42.874001,116.14201 c 1.152999,-1.263 2.467002,-2.128 3.941001,-2.55301 8.602002,-2.47999 20.550003,10.62401 31.374993,32.338 M 54.792004,32.414001 c 1.396999,21.194001 -1.89,36.161004 -9.808003,38.444001 -4.736,1.366005 -10.487999,-1.993996 -16.507,-8.913998" /></g><g
             id="g46"><g
               clip-path="url(#clipPath52)"
               id="g48"><path
                 id="path54"
                 style="fill:none;stroke:#231f20;stroke-width:1.20000005;stroke-linecap:butt;stroke-linejoin:miter;stroke-miterlimit:4;stroke-dasharray:1.2, 3.6000001, 1.2, 3.6000001, 1.2, 1.2, 3.6000001, 1.2, 3.6000001, 1.2;stroke-dashoffset:0;stroke-opacity:1"
                 d="m 28.477001,61.944004 c -3.618999,-4.16 -7.333,-9.606003 -10.984001,-16.086002" /><path
                 id="path56"
                 style="fill:none;stroke:#231f20;stroke-width:0.60000002;stroke-linecap:butt;stroke-linejoin:miter;stroke-miterlimit:4;stroke-dasharray:none;stroke-opacity:1"
                 d="M 33.563,162.44101 35.963001,170.841 100.36301,170.44101 61.163002,14.841001 0.36300001,31.641001 26.363001,133.64101" /></g></g><g
             id="g58"><path
               id="path60"
               style="fill:none;stroke:#231f20;stroke-width:0.60000002;stroke-linecap:butt;stroke-linejoin:miter;stroke-miterlimit:4;stroke-dasharray:1.2, 3.6000001, 1.2, 3.6000001, 1.2, 3.6000001;stroke-dashoffset:0;stroke-opacity:1"
               d="m 27.063002,135.341 5.999998,25.2" /><path
               id="path62"
               style="fill:#231f20;fill-opacity:1;fill-rule:nonzero;stroke:none"
               d="m 153.024,160.31401 -53.332998,-18" /></g><g
             id="g64"><g
               clip-path="url(#clipPath70)"
               id="g66"><path
                 id="path72"
                 style="fill:none;stroke:#231f20;stroke-width:0.5;stroke-linecap:butt;stroke-linejoin:round;stroke-miterlimit:4;stroke-dasharray:none;stroke-opacity:1"
                 d="m 415.87402,84.644005 2.098,0.064 m -26.14499,38.363005 -0.062,0.086 -0.089,0.056 -0.06,0.085 -0.062,0.086 -0.059,0.057 -0.062,0.085 -0.06,0.086 -0.09,0.055 -0.061,0.086 -0.06,0.086 -0.061,0.057 -0.06,0.085 -0.062,0.086 -0.089,0.055 -0.061,0.086 -0.061,0.086 -0.06,0.056 -0.061,0.086 -0.09,0.085 -0.059,0.056 -0.062,0.086 -0.061,0.086 -0.06,0.056 -0.062,0.086 -0.089,0.085 -0.061,0.086 -0.06,0.056 -0.061,0.085 -0.062,0.086 -0.059,0.057 -0.09,0.084 -0.062,0.086 -0.06,0.056 -0.06,0.086 -0.061,0.086 -0.06,0.056 -0.091,0.085 -0.061,0.086 -0.06,0.056 -0.061,0.086 -0.061,0.086 -0.06,0.057 -0.09,0.084 -0.061,0.086 -0.06,0.057 -0.061,0.085 -0.061,0.086 -0.06,0.056 -0.09,0.085 -0.06,0.086 -0.061,0.057 -0.06,0.085 -0.062,0.086 -0.06,0.056 -0.09,0.085 -0.061,0.086 -0.061,0.086 -0.06,0.056 -0.12201,0.17199 -0.09,0.055 -0.06,0.086 -0.062,0.085 -0.059,0.057 -0.061,0.085 -0.061,0.086 -0.089,0.056 -0.062,0.085 -0.06,0.086 -0.061,0.057 -0.061,0.085 -0.06,0.086 -0.089,0.055 -0.061,0.086 -0.062,0.086 -0.06,0.057 -0.061,0.085 -0.061,0.086 -0.089,0.055 -0.12201,0.17201 -0.06,0.056 -0.061,0.086 -0.061,0.086 -0.061,0.086 -0.09,0.055 -0.06,0.086 -0.061,0.085 -0.06,0.057 -0.061,0.086 -0.061,0.085 -0.089,0.056 -0.062,0.086 -0.06,0.085 -0.061,0.057 -0.06,0.086 -0.061,0.085 -0.09,0.056 -0.06,0.086 m 13.09301,-15.06699 -0.06,0.057 -0.062,0.085 -0.088,0.085 -0.061,0.056 -0.061,0.086 -0.061,0.086 -0.061,0.086 -0.089,0.055 -0.061,0.086 -0.061,0.086 -0.06,0.056 -0.091,0.085 -0.06,0.086 -0.061,0.056 -0.061,0.086 -0.089,0.085 -0.06,0.056 -0.062,0.086 -0.06,0.085 -0.061,0.057 -0.089,0.085 -0.062,0.086 -0.06,0.056 -0.061,0.086 -0.09,0.085 -0.059,0.056 -0.062,0.086 -0.061,0.086 -0.06,0.056 -0.09,0.085 -0.06,0.086 -0.061,0.056 -0.061,0.086 -0.061,0.086 -0.089,0.055 -0.061,0.086 -0.061,0.086 -0.062,0.085 -0.088,0.056 -0.061,0.085 -0.061,0.086 -0.06,0.057 -0.062,0.085 -0.089,0.085 -0.061,0.057 -0.061,0.085 -0.06,0.086 -0.061,0.056 -0.089,0.085 -0.062,0.086 -0.06,0.056 -0.061,0.086 -0.061,0.086 -0.089,0.056 -0.061,0.085 -0.061,0.086 -0.06,0.057 -0.061,0.085 -0.09,0.085 -0.06,0.057 -0.062,0.085 -0.06,0.086 -0.061,0.056 -0.089,0.085 -0.061,0.086 -0.062,0.085 -0.059,0.057 -0.062,0.086 -0.09,0.085 -0.059,0.056 -0.062,0.086 -0.06,0.086 -0.061,0.056 -0.09,0.085 -0.061,0.085 -0.06,0.057 -0.12201,0.17199 -0.06,0.056 -0.089,0.085 -0.062,0.085 -0.06,0.057 -0.061,0.086 -0.061,0.085 -0.089,0.056 -0.061,0.085 -0.061,0.086 -0.06,0.057 -0.061,0.085 -0.09,0.085 -0.061,0.056 -0.06,0.086 -0.062,0.086 -0.059,0.056 -0.061,0.086 -0.091,0.085 -0.06,0.086 -0.061,0.056 -0.06,0.086" /><path
                 id="path74"
                 style="fill:none;stroke:#231f20;stroke-width:0.5;stroke-linecap:butt;stroke-linejoin:round;stroke-miterlimit:4;stroke-dasharray:none;stroke-opacity:1"
                 d="m 405.32803,108.01701 -0.088,0.055 -0.062,0.086 -0.061,0.086 -0.089,0.056 -0.062,0.085 -0.089,0.085 -0.06,0.057 -0.062,0.085 -0.089,0.085 -0.061,0.057 -0.09,0.084 -0.06,0.086 -0.06,0.057 -0.091,0.085 -0.06,0.085 -0.061,0.057 -0.09,0.084 -0.061,0.086 -0.09,0.085 -0.06,0.057 -0.061,0.085 -0.09,0.085 -0.061,0.056 -0.06,0.086 -0.09,0.085 -0.061,0.056 -0.06,0.086 -0.091,0.085 -0.059,0.056 -0.062,0.086 -0.09,0.085 -0.06,0.056 -0.061,0.086 -0.09,0.085 -0.06,0.056 -0.061,0.086 -0.09,0.085 -0.059,0.056 -0.062,0.086 -0.09,0.085 -0.06,0.057 -0.061,0.085 -0.091,0.085 -0.059,0.056 -0.061,0.086 -0.09,0.085 -0.062,0.086 -0.06,0.056 -0.089,0.085 -0.061,0.085 -0.061,0.057 -0.06,0.086 -0.091,0.085 -0.059,0.056 -0.062,0.086 -0.09,0.085 -0.06,0.056 -0.061,0.086 -0.06,0.086 -0.09,0.055 -0.061,0.086 -0.061,0.086 -0.089,0.055 -0.062,0.086 -0.06,0.085 -0.061,0.057 -0.089,0.085 -0.061,0.086 -0.06,0.056 -0.091,0.085 -0.061,0.086 -0.06,0.056 -0.061,0.086 -0.09,0.084 -0.06,0.057 -0.061,0.085 -0.061,0.086 -0.091,0.085 -0.059,0.057 -0.061,0.085 -0.06,0.086 -0.09,0.056 -0.061,0.086 -0.061,0.085 -0.061,0.057 -0.09,0.085 -0.06,0.085 -0.06,0.057 -0.061,0.085 -0.091,0.085 -0.06,0.057 -0.061,0.085 -0.061,0.086 -0.089,0.056 -0.06,0.085 -0.062,0.086 -0.06,0.056 -0.09,0.085 -0.061,0.086 m 6.91199,-7.522 0.061,-0.086 0.0891,-0.085 0.0609,-0.056 0.09,-0.085 0.061,-0.086 0.089,-0.055 0.06,-0.086 0.062,-0.086 0.089,-0.055 0.061,-0.086 0.09,-0.085 0.061,-0.086 0.089,-0.055 0.061,-0.086 0.09,-0.084 0.06,-0.058 0.091,-0.084 0.061,-0.086 0.089,-0.056 0.06,-0.085 0.091,-0.085 0.06,-0.056 0.09,-0.085 0.061,-0.086 0.089,-0.056 0.091,-0.084 0.061,-0.086 0.089,-0.056 0.061,-0.085 0.089,-0.085 0.061,-0.057 0.09,-0.084 0.091,-0.085 0.059,-0.057 0.09,-0.084 0.091,-0.085 0.059,-0.057 0.091,-0.084 0.061,-0.086 0.089,-0.056 0.09,-0.085 0.09,-0.084 0.061,-0.086 0.09,-0.056 0.089,-0.085 0.061,-0.085 0.09,-0.056 0.09,-0.085 0.09,-0.085 0.059,-0.056 0.091,-0.085 0.09,-0.085 0.09,-0.055 0.09,-0.085 0.089,-0.085 0.061,-0.056 0.09,-0.085 0.09,-0.085 0.089,-0.056 0.18002,-0.16899 0.09,-0.056 0.09,-0.085 0.09,-0.085 0.09,-0.055 0.088,-0.085 0.091,-0.085 0.089,-0.055 0.12,-0.084 0.09,-0.085 0.09,-0.085 0.09,-0.055 0.11801,-0.084 0.091,-0.085 0.089,-0.056 0.12,-0.084 0.089,-0.084 0.11899,-0.056 0.09,-0.084 0.11902,-0.084 0.089,-0.055 0.12002,-0.084 0.11902,-0.085 0.11798,-0.054 0.12,-0.084 0.11801,-0.084 0.11899,-0.055 0.12002,-0.084 0.11899,-0.084 0.14697,-0.053 0.11902,-0.084 0.14902,-0.083 0.147,-0.054 0.14899,-0.083 0.177,-0.082 0.177,-0.053 0.17801,-0.083 0.177,-0.082 0.236,-0.051 1.41,-0.33601 0.81699,0.025 0.81201,0.141 0.45797,0.277 0.23203,0.065 0.17197,0.093 0.17202,0.093 0.17402,0.063 0.17199,0.093 0.14298,0.092 0.14401,0.062 0.143,0.093 0.115,0.091 0.143,0.063 0.11398,0.09 0.11402,0.091 0.11401,0.062 0.11398,0.091 0.11502,0.091 0.115,0.062 0.113,0.091 0.11398,0.091 0.086,0.061 0.11499,0.091 0.085,0.09 0.11398,0.062 0.084,0.09 0.11399,0.091 0.086,0.061 0.085,0.09 0.113,0.091 0.087,0.062 0.084,0.089 0.085,0.09 0.11401,0.092 0.085,0.061 0.086,0.089 0.084,0.091 0.086,0.061 0.084,0.09 0.086,0.09 0.085,0.061 0.17001,0.18 0.085,0.061 0.086,0.09 0.084,0.09 0.057,0.06 0.085,0.09 0.084,0.091 0.086,0.061 0.084,0.089 0.085,0.091 0.057,0.06 0.085,0.09 0.084,0.09 0.086,0.061 0.057,0.089 0.084,0.09 0.085,0.061 0.056,0.09 0.085,0.09 0.084,0.09 0.086,0.061 0.057,0.089 0.084,0.09 0.056,0.06 0.085,0.09 0.085,0.09 0.057,0.06 0.084,0.091 0.086,0.09 0.055,0.06 0.085,0.09 0.056,0.089 0.086,0.061 0.056,0.089 0.084,0.091 0.086,0.061 0.055,0.088 0.085,0.091 0.057,0.06 0.085,0.09 0.055,0.09 0.085,0.06 0.056,0.089 0.086,0.091 0.057,0.059 0.084,0.091 0.055,0.089 0.085,0.061 0.057,0.089 0.084,0.09 0.057,0.09 0.085,0.061 0.055,0.089 0.056,0.089 0.086,0.061 0.055,0.089 0.085,0.09 0.057,0.06 0.084,0.09 0.056,0.09" /><path
                 id="path76"
                 style="fill:none;stroke:#231f20;stroke-width:0.5;stroke-linecap:butt;stroke-linejoin:round;stroke-miterlimit:4;stroke-dasharray:none;stroke-opacity:1"
                 d="m 406.96902,77.107002 0.085,0.09 0.056,0.089 0.086,0.061 0.055,0.09 0.085,0.09 0.056,0.06001 0.086,0.09 0.055,0.089 0.086,0.061 0.055,0.09 0.085,0.089 0.057,0.06 0.084,0.091 0.057,0.089 0.085,0.061 0.084,0.09 0.056,0.089 0.086,0.061 0.056,0.09 0.084,0.09 0.057,0.06 0.084,0.09 0.085,0.09 0.057,0.06 0.17001,0.180001 0.056,0.06 0.085,0.091 0.055,0.088 0.086,0.062 0.17001,0.180001 0.056,0.089 0.085,0.061 0.085,0.09 0.055,0.08901 0.086,0.061 0.085,0.091 0.085,0.09 0.057,0.059 0.084,0.091 0.085,0.09 0.086,0.061 0.085,0.09 0.085,0.09 0.055,0.06001 0.085,0.09 0.085,0.091 0.086,0.06 0.085,0.09 0.084,0.091 0.087,0.06101 0.084,0.09 0.085,0.09 0.086,0.061 0.084,0.09 0.086,0.09 0.086,0.061 0.11301,0.091 0.085,0.09 0.085,0.09 0.085,0.061 0.11401,0.091 0.084,0.09 0.086,0.061 0.11402,0.091 0.085,0.091 0.11499,0.061 0.085,0.09 0.11398,0.091 0.086,0.061 0.11301,0.091 0.11401,0.091 0.11499,0.062 0.228,0.181999 0.11499,0.062 0.11398,0.091 0.11402,0.091 0.14401,0.063 0.11499,0.091 0.142,0.09199 0.14499,0.062 0.14202,0.093 0.172,0.092 0.17301,0.064 0.17297,0.093 0.17303,0.092 0.22998,0.06599 0.23102,0.094 0.289,0.097 0.34598,0.098 0.87402,0.085 -0.006,0.175003 -0.001,0.058 -0.003,0.087 -0.003,0.088 -9.7e-4,0.058 M 400.5,69.178001 l 0.055,0.08901 0.057,0.06 0.055,0.089 0.085,0.09 0.056,0.06 0.057,0.089 0.054,0.09 0.086,0.061 0.056,0.089 0.056,0.089 0.056,0.06 0.085,0.09 0.056,0.09 0.056,0.089 0.056,0.06 0.085,0.09 0.056,0.089 0.057,0.06001 0.054,0.09 0.085,0.09 0.0569,0.06001 0.055,0.089 0.085,0.09 0.057,0.06 0.056,0.09 0.055,0.089 0.086,0.061 0.056,0.089 0.055,0.08901 0.087,0.061 0.054,0.089 0.057,0.09 0.056,0.06 0.085,0.09 0.055,0.08901 0.057,0.06 0.085,0.09 0.055,0.09 0.056,0.06 0.056,0.08901 0.085,0.09 0.056,0.089 0.056,0.06001 0.085,0.09 0.056,0.08901 0.056,0.061 0.085,0.09 0.056,0.089 0.057,0.06 0.084,0.09 0.055,0.089 0.057,0.06101 0.085,0.089 0.056,0.09 0.056,0.06001 0.085,0.09 0.056,0.08901 0.056,0.061 0.084,0.089 0.056,0.09 0.057,0.06 0.085,0.09 0.055,0.089 0.057,0.06 0.085,0.09 0.056,0.09 0.056,0.05901 0.085,0.091 0.056,0.089 0.057,0.06 0.084,0.09 0.055,0.089 0.085,0.091 0.057,0.06001 0.055,0.08899 0.085,0.09 0.056,0.06 0.057,0.08901 0.084,0.091 0.056,0.06 0.085,0.09 0.056,0.08901 0.057,0.06 0.085,0.09 0.055,0.089 0.086,0.061 0.056,0.09 0.055,0.08901 0.086,0.06 0.055,0.09 0.085,0.09 0.057,0.06 0.085,0.09 0.055,0.089 0.085,0.061 0.057,0.09 0.055,0.089 0.086,0.061 0.055,0.089" /><path
                 id="path78"
                 style="fill:none;stroke:#231f20;stroke-width:0.5;stroke-linecap:butt;stroke-linejoin:round;stroke-miterlimit:4;stroke-dasharray:none;stroke-opacity:1"
                 d="m 394.35001,61.258003 0.057,0.089 0.055,0.06 0.056,0.089 0.056,0.09 0.086,0.061 0.055,0.088 0.056,0.09 0.057,0.06 0.054,0.089 0.086,0.091 0.056,0.06 0.056,0.088 0.055,0.09 0.057,0.06 0.056,0.089 0.085,0.091 0.056,0.06 0.056,0.088 0.055,0.09 0.057,0.06 0.084,0.09 0.056,0.09 0.056,0.05899 0.057,0.09 0.056,0.08901 0.13998,0.150001 0.112,0.177998 0.056,0.061 0.084,0.09 0.057,0.089 0.056,0.06 0.056,0.09 0.055,0.089 0.086,0.06101 0.056,0.089 0.055,0.089 0.057,0.06 0.056,0.089 0.084,0.091 0.057,0.06 0.056,0.089 0.055,0.08901 0.056,0.06 0.086,0.09 0.055,0.09 0.057,0.06 0.055,0.08901 0.057,0.089 0.085,0.061 0.055,0.089 0.056,0.09 0.056,0.089 0.086,0.06001 0.055,0.09 0.055,0.089 0.058,0.06 0.054,0.09 0.086,0.089 0.056,0.061 0.056,0.089 0.055,0.08901 0.057,0.06 0.085,0.09 0.055,0.089 0.057,0.061 0.056,0.08901 0.13998,0.149994 0.11203,0.178001 0.056,0.06101 0.085,0.09 0.056,0.089 0.057,0.06001 0.055,0.089 0.085,0.091 0.057,0.06 0.056,0.088 0.055,0.09 0.085,0.061 0.056,0.08901 0.056,0.09 0.055,0.088 0.058,0.061 0.084,0.09 0.055,0.089 0.057,0.06 0.056,0.09 0.085,0.08901 0.055,0.06 0.056,0.09 0.057,0.089 0.086,0.061 0.055,0.089 0.055,0.089 0.057,0.06001 0.085,0.09099 m -12.18198,-15.836998 0.056,0.06 0.055,0.09 0.057,0.089 0.085,0.061 0.056,0.089 0.055,0.089 0.056,0.09 0.056,0.06 0.112,0.178001 0.086,0.061 0.055,0.089 0.056,0.09 0.057,0.06 0.055,0.089 0.056,0.089 0.086,0.061 0.055,0.089 0.056,0.09 0.056,0.06 0.056,0.089 0.055,0.089 0.086,0.061 0.056,0.09 0.056,0.089 0.055,0.059 0.057,0.09 0.055,0.089 0.086,0.061 0.055,0.09 0.056,0.088 0.056,0.061 0.057,0.08899 0.056,0.08901 0.0839,0.09 0.056,0.061 0.056,0.088 0.056,0.09 0.056,0.06 0.056,0.089 0.085,0.09 0.056,0.061 0.056,0.088 0.055,0.09 0.057,0.06 0.055,0.089 0.085,0.09 0.057,0.06 0.056,0.089 0.055,0.09 0.057,0.06 0.055,0.089 0.085,0.09 0.056,0.061 0.057,0.089 0.054,0.089 0.058,0.06 0.055,0.089 0.086,0.09 0.055,0.06 0.056,0.09 0.056,0.089 0.056,0.06 0.056,0.089 0.085,0.09 0.056,0.09 0.056,0.06 0.112,0.178001 0.055,0.06 0.085,0.09 0.057,0.09 0.055,0.06 0.11203,0.177997 0.086,0.061 0.055,0.089 0.056,0.09 0.057,0.06 0.10998,0.177998 0.086,0.061 0.057,0.089 0.054,0.09 0.057,0.06 0.057,0.089 0.054,0.089 0.086,0.061 0.056,0.089 0.056,0.09 0.056,0.06 0.056,0.089 0.085,0.09 0.055,0.089 0.056,0.06 0.056,0.09 0.056,0.089 0.056,0.06 0.085,0.09" /><path
                 id="path80"
                 style="fill:none;stroke:#231f20;stroke-width:0.5;stroke-linecap:butt;stroke-linejoin:round;stroke-miterlimit:4;stroke-dasharray:none;stroke-opacity:1"
                 d="m 387.70001,52.535004 0.055,0.089 0.086,0.061 0.056,0.089 0.056,0.089 0.056,0.06 0.056,0.09 0.056,0.089 0.086,0.061 0.055,0.089 0.056,0.089 m 51.319,71.186006 0.056,0.089 0.085,0.061 0.055,0.089 0.057,0.089 0.057,0.06 0.10999,0.179 0.087,0.06 0.055,0.09 0.055,0.089 0.057,0.06 0.056,0.09 0.055,0.088 0.086,0.062 0.056,0.089 0.056,0.089 0.055,0.06 0.057,0.09 0.084,0.09 0.057,0.059 0.055,0.09 0.056,0.089 0.057,0.06 0.056,0.089 0.084,0.09 0.056,0.09 0.056,0.06 0.112,0.17899 0.056,0.059 0.084,0.09 0.056,0.09 0.057,0.06 0.056,0.089 0.056,0.089 0.056,0.06 0.085,0.091 0.055,0.089 0.057,0.06 0.056,0.089 0.055,0.089 0.057,0.06 0.084,0.091 0.057,0.089 0.056,0.06 0.055,0.089 0.057,0.089 0.056,0.06 0.0839,0.091 0.056,0.088 0.056,0.061 0.056,0.089 0.056,0.089 0.056,0.06 0.0851,0.09 0.056,0.09 0.056,0.089 0.056,0.06 0.055,0.089 0.057,0.089 0.085,0.061 0.055,0.089 0.056,0.09 0.057,0.06 0.055,0.089 0.056,0.089 0.086,0.061 0.056,0.09 0.055,0.089 0.056,0.06 0.056,0.089 0.055,0.089 0.086,0.061 0.057,0.09 0.055,0.089 0.056,0.06 0.056,0.089 0.055,0.089 0.086,0.061 0.112,0.179 0.056,0.059 0.056,0.09 0.056,0.089 0.054,0.09 0.086,0.061 0.056,0.088 0.056,0.09 0.057,0.06 0.055,0.089 0.056,0.09 0.086,0.061 0.055,0.088 0.056,0.09 0.056,0.06 0.056,0.089 0.056,0.089 0.086,0.062 0.054,0.089 m -12.15198,-15.835 0.057,0.06 0.055,0.089 0.085,0.09 0.056,0.06 0.056,0.089 0.056,0.09 0.055,0.089 0.086,0.061 0.056,0.089 0.055,0.089 0.057,0.06 0.085,0.09 0.056,0.089 0.056,0.061 0.055,0.089 0.085,0.09 0.057,0.06 0.055,0.089 0.056,0.089 0.056,0.061 0.085,0.09 0.056,0.089 0.0569,0.06 0.0551,0.09 0.085,0.089 0.056,0.061 0.057,0.089 0.054,0.089 0.057,0.06 0.085,0.09 0.056,0.09 0.056,0.06 0.112,0.178 0.085,0.061 0.056,0.089 0.056,0.09 0.055,0.088 0.086,0.062 0.055,0.089 0.056,0.089 0.056,0.06 0.057,0.09 0.085,0.089 0.056,0.06 0.055,0.09 0.056,0.089 0.057,0.06 0.085,0.09 0.055,0.089 0.057,0.06 0.055,0.09 0.056,0.089 0.086,0.061 0.055,0.089 0.057,0.089 0.056,0.061 0.055,0.089 0.085,0.09 0.056,0.06 0.056,0.089 0.056,0.089 0.056,0.061 0.0851,0.09 0.055,0.089 0.056,0.089 0.057,0.06 0.055,0.09 0.086,0.09 0.056,0.059 0.055,0.09 0.056,0.089 0.057,0.06 0.085,0.091 0.055,0.088 0.056,0.061 0.057,0.089 0.054,0.089 0.057,0.06 0.085,0.09 0.056,0.089 0.056,0.06 0.056,0.09 0.055,0.089 0.086,0.061 0.056,0.089 0.056,0.089 0.056,0.061 0.056,0.089 0.085,0.09 0.057,0.06 0.054,0.089 0.057,0.089 0.056,0.061 0.055,0.088 0.085,0.091 0.056,0.089 0.057,0.06 0.055,0.089" /><path
                 id="path82"
                 style="fill:none;stroke:#231f20;stroke-width:0.5;stroke-linecap:butt;stroke-linejoin:round;stroke-miterlimit:4;stroke-dasharray:none;stroke-opacity:1"
                 d="m 427.07602,108.67901 0.086,0.061 0.056,0.089 0.056,0.089 0.085,0.062 0.056,0.088 0.085,0.091 0.056,0.06 0.056,0.089 0.084,0.09 0.056,0.06 0.085,0.09 0.056,0.09 0.057,0.059 0.0851,0.091 0.055,0.089 0.057,0.06 0.085,0.09 0.055,0.089 0.086,0.091 0.055,0.06 0.056,0.089 0.085,0.09 0.056,0.06 0.056,0.089 0.085,0.091 0.056,0.059 0.055,0.09 0.085,0.09 0.058,0.06 0.055,0.089 0.085,0.09 0.056,0.06 0.056,0.09 0.085,0.089 0.057,0.061 0.055,0.089 0.084,0.09 0.058,0.06 0.055,0.089 0.085,0.09 0.056,0.061 0.056,0.089 0.085,0.09 0.056,0.06 0.056,0.089 0.085,0.09 0.055,0.089 0.057,0.061 0.084,0.09 0.057,0.089 0.056,0.06 0.055,0.089 0.085,0.09 0.057,0.06 0.056,0.09 0.085,0.09 0.055,0.06 0.11199,0.17801 0.085,0.061 0.056,0.09 0.057,0.089 0.085,0.061 0.055,0.089 0.056,0.089 0.057,0.06 0.085,0.09 0.054,0.09 0.058,0.06 0.084,0.09 0.057,0.089 0.055,0.06 0.056,0.089 0.085,0.091 0.056,0.06 0.056,0.089 0.056,0.089 0.085,0.09 0.055,0.06 0.056,0.09 0.057,0.089 0.085,0.061 0.0551,0.089 0.056,0.089 0.058,0.06 0.084,0.091 0.055,0.089 0.057,0.06 0.056,0.089 0.084,0.09 0.056,0.06 0.057,0.089 0.056,0.09 0.085,0.061 0.056,0.089 0.055,0.089 0.056,0.06 0.085,0.09 0.056,0.09 m -6.19901,-38.881005 -0.09,0.085 -0.061,0.085 -0.089,0.056 -0.061,0.085 -0.09,0.085 -0.06,0.057 -0.09,0.08501 -0.062,0.08499 -0.089,0.05601 -0.061,0.086 -0.09,0.084 -0.059,0.057 -0.091,0.085 -0.061,0.085 -0.09,0.056 -0.089,0.084 -0.061,0.08601 -0.089,0.056 -0.061,0.086 -0.151,0.140999 -0.09,0.085 -0.09,0.085 -0.06,0.056 -0.18002,0.169998 -0.06,0.05601 -0.09,0.085 -0.062,0.086 -0.089,0.05499 -0.17999,0.169998 -0.061,0.08601 -0.09,0.055 -0.088,0.085 -0.062,0.086 -0.089,0.055 -0.091,0.08501 -0.09,0.085 -0.06,0.057 -0.09,0.084 -0.09,0.085 -0.09,0.056 -0.089,0.085 -0.09,0.085 -0.06,0.056 -0.091,0.085 -0.09,0.08501 -0.089,0.05499 -0.17999,0.169998 -0.09,0.05501 -0.089,0.08499 -0.091,0.08501 -0.088,0.05499 -0.091,0.08501 -0.09,0.08499 -0.089,0.05601 -0.12002,0.08399 -0.089,0.08401 -0.091,0.085 -0.089,0.056 -0.12,0.084 -0.09,0.08501 -0.088,0.055 -0.121,0.084 -0.088,0.085 -0.12,0.054 -0.089,0.085 -0.11999,0.084 -0.088,0.056 -0.12104,0.084 -0.11895,0.084 -0.11802,0.05499 -0.11898,0.08301 -0.11902,0.085 -0.11899,0.054 -0.11801,0.084 -0.121,0.084 -0.14701,0.054 -0.11899,0.084 -0.14898,0.083 -0.14701,0.054 -0.14901,0.083 -0.177,0.08199 -0.17698,0.052 -0.17801,0.083 -0.177,0.082 -0.23501,0.051 -0.236,0.08 -0.294,0.07899 -0.353,0.077 -0.87598,0.032 -0.006,0.175003 -10e-4,0.058 -0.003,0.087 -0.002,0.088 -0.002,0.058" /><path
                 id="path84"
                 style="fill:none;stroke:#231f20;stroke-width:0.5;stroke-linecap:butt;stroke-linejoin:round;stroke-miterlimit:4;stroke-dasharray:none;stroke-opacity:1"
                 d="m 434.25803,70.205002 -0.061,0.086 -0.06,0.056 -0.061,0.08601 -0.09,0.085 -0.06,0.056 -0.06,0.08599 -0.062,0.08601 -0.089,0.055 -0.12201,0.171997 -0.06,0.05601 -0.09,0.085 -0.061,0.086 -0.061,0.085 -0.06,0.057 -0.091,0.085 -0.06,0.085 -0.061,0.057 -0.06,0.08601 -0.09,0.084 -0.061,0.057 -0.06,0.086 -0.091,0.084 -0.06,0.057 -0.061,0.086 -0.061,0.085 -0.088,0.056 -0.062,0.08601 -0.061,0.085 -0.089,0.056 -0.061,0.086 -0.061,0.086 -0.06,0.056 -0.09,0.085 -0.06,0.08601 -0.061,0.056 -0.09,0.085 -0.061,0.086 -0.061,0.056 -0.06,0.086 -0.09,0.085 -0.0619,0.085 -0.059,0.057 -0.091,0.08501 -0.06,0.085 -0.06,0.057 -0.09,0.084 -0.062,0.086 -0.059,0.057 -0.091,0.084 -0.061,0.086 -0.06,0.056 -0.09,0.08501 -0.061,0.086 -0.06,0.056 -0.09,0.085 -0.061,0.08599 -0.06,0.05701 -0.091,0.084 -0.06,0.086 -0.061,0.05701 -0.089,0.085 -0.061,0.085 -0.061,0.057 -0.09,0.085 -0.0609,0.085 -0.06,0.057 -0.09,0.085 -0.061,0.085 -0.06,0.05701 -0.091,0.08499 -0.06,0.08501 -0.09,0.08499 -0.06,0.05601 -0.061,0.086 -0.091,0.085 -0.059,0.056 -0.061,0.086 -0.09,0.08501 -0.06,0.05599 -0.09,0.08501 -0.062,0.086 -0.059,0.056 -0.091,0.085 -0.061,0.086 -0.09,0.055 -0.06,0.086 -0.062,0.08601 -0.088,0.056 -0.061,0.085 -0.091,0.085 -0.059,0.057 -0.09,0.085 -0.062,0.085 -0.089,0.056 -0.061,0.086 -0.061,0.08501 -0.089,0.056 -0.061,0.086 m 13.55899,-15.053001 -0.06,0.08599 -0.06,0.056 -0.06,0.086 -0.062,0.086 -0.09,0.055 -0.06,0.086 -0.062,0.085 -0.059,0.057 -0.061,0.086 -0.091,0.084 -0.059,0.057 -0.062,0.086 -0.06,0.08599 -0.061,0.056 -0.06,0.086 -0.09,0.085 -0.0609,0.056 -0.06,0.086 -0.062,0.086 -0.059,0.056 -0.091,0.08501 -0.061,0.086 -0.06,0.056 -0.06,0.086 -0.061,0.085 -0.091,0.085 -0.06,0.057 -0.061,0.085 -0.061,0.08601 -0.06,0.056 -0.09,0.085 -0.061,0.086 -0.06,0.057 -0.061,0.085 -0.061,0.086 -0.089,0.055 -0.062,0.08601 -0.059,0.086 -0.062,0.05599 -0.06,0.08601 -0.09,0.085 -0.06,0.057 -0.061,0.085 -0.062,0.086 -0.059,0.05701 -0.09,0.08399 -0.062,0.08601 -0.059,0.057 -0.062,0.085 -0.06,0.086 -0.09,0.056 -0.061,0.085 -0.061,0.08601 -0.06,0.085 -0.09,0.056 -0.06,0.086 -0.062,0.086 -0.059,0.056 -0.062,0.086 -0.09,0.085 -0.059,0.05601 -0.062,0.086 -0.061,0.086 -0.06,0.056 -0.091,0.08499 -0.06,0.08601 -0.061,0.056 -0.06,0.086 -0.09,0.08501 -0.061,0.056 -0.06,0.086 -0.062,0.08499 -0.059,0.05701 -0.09,0.085 -0.061,0.085 -0.06,0.057 -0.061,0.086 -0.091,0.08401 -0.059,0.057 -0.062,0.086 -0.061,0.085 -0.089,0.056 -0.061,0.085 -0.061,0.086 -0.061,0.08601 -0.06,0.057 -0.09,0.084 -0.061,0.086 -0.06,0.057 -0.061,0.085 -0.09,0.085 -0.06,0.057 -0.061,0.08501 -0.061,0.086 -0.089,0.056 -0.062,0.085 -0.06,0.086 -0.06,0.057 -0.091,0.084" /><path
                 id="path86"
                 style="fill:none;stroke:#231f20;stroke-width:0.5;stroke-linecap:butt;stroke-linejoin:round;stroke-miterlimit:4;stroke-dasharray:none;stroke-opacity:1"
                 d="m 447.38101,55.139004 -0.06,0.057 -0.061,0.085 -0.0609,0.086 -0.0891,0.056 -0.062,0.085 -0.06,0.086 -0.061,0.086 -0.06,0.056 -0.061,0.086 -0.061,0.086 -0.089,0.055 -0.062,0.086 -0.06,0.086 -0.06,0.056 -0.061,0.086 -0.062,0.086 -0.089,0.056 -0.06,0.085 -0.062,0.086 -0.059,0.056 -0.061,0.086 -0.062,0.085 -0.089,0.056 -0.061,0.086 -0.06,0.086 -0.061,0.056 -0.061,0.086 -0.061,0.086 -0.089,0.055 -0.06,0.086 -0.062,0.086 -0.06,0.056 -0.12198,0.172 -0.089,0.084 -0.061,0.057 -0.061,0.086 -0.061,0.08499 -0.061,0.05701 -0.06,0.086 -0.09,0.084 -0.061,0.057 -0.06,0.085 -0.061,0.086 -0.06,0.057 -0.061,0.085 -0.091,0.085 -0.059,0.056 -0.062,0.086 -0.06,0.086 -0.061,0.05601 -0.06,0.086 -0.091,0.085 -0.06,0.056 -0.06,0.086 -0.062,0.086 -0.059,0.057 -0.062,0.085 -0.09,0.085 -0.06,0.057 -0.061,0.085 -0.06,0.08599 -0.061,0.05701 -0.06,0.085 -0.091,0.085 -0.061,0.085 -0.06,0.057 -0.061,0.086 -0.061,0.085 -0.06,0.057 -0.09,0.085 -0.061,0.086 -0.06,0.056 -0.061,0.086 -0.061,0.086 -0.09,0.055 -0.06,0.086 -0.061,0.086 -0.061,0.056 -0.06,0.086 -0.062,0.085 -0.088,0.056 -0.062,0.086 -0.061,0.085 -0.06,0.057 -0.061,0.086 -0.06,0.085 -0.089,0.056 -0.062,0.085 -0.061,0.086 -0.06,0.057 -0.061,0.085 -0.09,0.085 -0.061,0.086 -0.06,0.056 -0.12197,0.172001 -0.06,0.056 -0.091,0.085 m 7.16901,-8.302002 -0.06,0.086 -0.09,0.055 -0.061,0.086 -0.061,0.086 -0.06,0.056 -0.061,0.086 -0.061,0.085 -0.09,0.056 -0.06,0.086 -0.061,0.085" /></g></g><g
             id="g88"><text
               id="text92"
               style="font-variant:normal;font-weight:normal;font-size:11.95500088px;font-family:CMSS12;-inkscape-font-specification:CMSS12;writing-mode:lr-tb;fill:#231f20;fill-opacity:1;fill-rule:nonzero;stroke:none"
               transform="matrix(1,0,0,-1,36.438499,176.8996)"><tspan
                 id="tspan90"
                 y="0"
                 x="0 5.2004256 11.058376 17.059786 22.260212 26.157541 31.764437 37.120277 39.869926">cone-axis</tspan></text>
<text
               id="text96"
               style="font-variant:normal;font-weight:normal;font-size:11.95500088px;font-family:CMSS12;-inkscape-font-specification:CMSS12;writing-mode:lr-tb;fill:#231f20;fill-opacity:1;fill-rule:nonzero;stroke:none"
               transform="matrix(1,0,0,-1,157.27367,159.56604)"><tspan
                 id="tspan94"
                 y="0"
                 x="0 5.8579507 11.058376 17.059786 22.260212 26.241228 31.848124 36.080193">generato</tspan></text>
<text
               id="text100"
               style="font-variant:normal;font-weight:normal;font-size:11.95500088px;font-family:CMSS12;-inkscape-font-specification:CMSS12;writing-mode:lr-tb;fill:#231f20;fill-opacity:1;fill-rule:nonzero;stroke:none"
               transform="matrix(1,0,0,-1,198.87109,159.56604)"><tspan
                 id="tspan98"
                 y="0"
                 x="0">r</tspan></text>
<text
               id="text104"
               style="font-variant:normal;font-weight:normal;font-size:11.95500088px;font-family:CMSS12;-inkscape-font-specification:CMSS12;writing-mode:lr-tb;fill:#231f20;fill-opacity:1;fill-rule:nonzero;stroke:none"
               transform="matrix(1,0,0,-1,206.75421,159.56604)"><tspan
                 id="tspan102"
                 y="0"
                 x="0 2.7496502 5.4993005 11.50071">line</tspan></text>
<text
               id="text108"
               style="font-variant:normal;font-weight:normal;font-size:11.95500088px;font-family:CMSSBX10;-inkscape-font-specification:CMSSBX10;writing-mode:lr-tb;fill:#231f20;fill-opacity:1;fill-rule:nonzero;stroke:none"
               transform="matrix(1,0,0,-1,163.10413,103.3871)"><tspan
                 id="tspan106"
                 y="0"
                 x="0 9.4922705 15.469771">Hyp</tspan></text>
<text
               id="text112"
               style="font-variant:normal;font-weight:normal;font-size:11.95500088px;font-family:CMSSBX10;-inkscape-font-specification:CMSSBX10;writing-mode:lr-tb;fill:#231f20;fill-opacity:1;fill-rule:nonzero;stroke:none"
               transform="matrix(1,0,0,-1,185.64648,103.3871)"><tspan
                 id="tspan110"
                 y="0"
                 x="0">e</tspan></text>
<text
               id="text116"
               style="font-variant:normal;font-weight:normal;font-size:11.95500088px;font-family:CMSSBX10;-inkscape-font-specification:CMSSBX10;writing-mode:lr-tb;fill:#231f20;fill-opacity:1;fill-rule:nonzero;stroke:none"
               transform="matrix(1,0,0,-1,191.75429,103.3871)"><tspan
                 id="tspan114"
                 y="0"
                 x="0 4.4472604">rb</tspan></text>
<text
               id="text120"
               style="font-variant:normal;font-weight:normal;font-size:11.95500088px;font-family:CMSSBX10;-inkscape-font-specification:CMSSBX10;writing-mode:lr-tb;fill:#231f20;fill-opacity:1;fill-rule:nonzero;stroke:none"
               transform="matrix(1,0,0,-1,203.27531,103.3871)"><tspan
                 id="tspan118"
                 y="0"
                 x="0 6.5752506 9.6357307">ola</tspan></text>
<text
               id="text124"
               style="font-variant:normal;font-weight:normal;font-size:11.95500088px;font-family:CMSS12;-inkscape-font-specification:CMSS12;writing-mode:lr-tb;fill:#231f20;fill-opacity:1;fill-rule:nonzero;stroke:none"
               transform="matrix(1,0,0,-1,219.1946,103.3871)"><tspan
                 id="tspan122"
                 y="0"
                 x="0">:</tspan></text>
<text
               id="text128"
               style="font-variant:normal;font-weight:normal;font-size:11.95500088px;font-family:CMSS12;-inkscape-font-specification:CMSS12;writing-mode:lr-tb;fill:#231f20;fill-opacity:1;fill-rule:nonzero;stroke:none"
               transform="matrix(1,0,0,-1,226.34848,103.3871)"><tspan
                 id="tspan126"
                 y="0"
                 x="0">o</tspan></text>
<text
               id="text132"
               style="font-variant:normal;font-weight:normal;font-size:11.95500088px;font-family:CMSS12;-inkscape-font-specification:CMSS12;writing-mode:lr-tb;fill:#231f20;fill-opacity:1;fill-rule:nonzero;stroke:none"
               transform="matrix(1,0,0,-1,232.21121,103.3871)"><tspan
                 id="tspan130"
                 y="0"
                 x="0 6.0014105 10.23348 15.840376 18.590027 24.591436 29.791862">btained</tspan></text>
<text
               id="text136"
               style="font-variant:normal;font-weight:normal;font-size:11.95500088px;font-family:CMSS12;-inkscape-font-specification:CMSS12;writing-mode:lr-tb;fill:#231f20;fill-opacity:1;fill-rule:nonzero;stroke:none"
               transform="matrix(1,0,0,-1,271.89224,103.3871)"><tspan
                 id="tspan134"
                 y="0"
                 x="0">w</tspan></text>
<text
               id="text140"
               style="font-variant:normal;font-weight:normal;font-size:11.95500088px;font-family:CMSS12;-inkscape-font-specification:CMSS12;writing-mode:lr-tb;fill:#231f20;fill-opacity:1;fill-rule:nonzero;stroke:none"
               transform="matrix(1,0,0,-1,279.84827,103.3871)"><tspan
                 id="tspan138"
                 y="0"
                 x="0 6.0014105 11.201836">hen</tspan></text>
<text
               id="text144"
               style="font-variant:normal;font-weight:normal;font-size:11.95500088px;font-family:CMSS12;-inkscape-font-specification:CMSS12;writing-mode:lr-tb;fill:#231f20;fill-opacity:1;fill-rule:nonzero;stroke:none"
               transform="matrix(1,0,0,-1,300.96201,103.3871)"><tspan
                 id="tspan142"
                 y="0"
                 x="0">t</tspan></text>
<text
               id="text148"
               style="font-variant:normal;font-weight:normal;font-size:11.95500088px;font-family:CMSS12;-inkscape-font-specification:CMSS12;writing-mode:lr-tb;fill:#231f20;fill-opacity:1;fill-rule:nonzero;stroke:none"
               transform="matrix(1,0,0,-1,305.19885,103.3871)"><tspan
                 id="tspan146"
                 y="0"
                 x="0 6.0014105">he</tspan></text>
<text
               id="text152"
               style="font-variant:normal;font-weight:normal;font-size:11.95500088px;font-family:CMSS12;-inkscape-font-specification:CMSS12;writing-mode:lr-tb;fill:#231f20;fill-opacity:1;fill-rule:nonzero;stroke:none"
               transform="matrix(1,0,0,-1,320.29922,103.3871)"><tspan
                 id="tspan150"
                 y="0"
                 x="0 6.0014105 8.7510605 14.357956 20.359367">plane</tspan></text>
<text
               id="text156"
               style="font-variant:normal;font-weight:normal;font-size:11.95500088px;font-family:CMSS12;-inkscape-font-specification:CMSS12;writing-mode:lr-tb;fill:#231f20;fill-opacity:1;fill-rule:nonzero;stroke:none"
               transform="matrix(1,0,0,-1,163.10413,88.940674)"><tspan
                 id="tspan154"
                 y="0"
                 x="0 2.7496502 8.7510605 12.983131 18.183556 22.164572 26.647697 31.848124 37.04855 41.280617">intersects</tspan></text>
<text
               id="text160"
               style="font-variant:normal;font-weight:normal;font-size:11.95500088px;font-family:CMSS12;-inkscape-font-specification:CMSS12;writing-mode:lr-tb;fill:#231f20;fill-opacity:1;fill-rule:nonzero;stroke:none"
               transform="matrix(1,0,0,-1,212.77596,88.940674)"><tspan
                 id="tspan158"
                 y="0"
                 x="0">b</tspan></text>
<text
               id="text164"
               style="font-variant:normal;font-weight:normal;font-size:11.95500088px;font-family:CMSS12;-inkscape-font-specification:CMSS12;writing-mode:lr-tb;fill:#231f20;fill-opacity:1;fill-rule:nonzero;stroke:none"
               transform="matrix(1,0,0,-1,219.10254,88.940674)"><tspan
                 id="tspan162"
                 y="0"
                 x="0 5.8579507 10.090021">oth</tspan></text>
<text
               id="text168"
               style="font-variant:normal;font-weight:normal;font-size:11.95500088px;font-family:CMSS12;-inkscape-font-specification:CMSS12;writing-mode:lr-tb;fill:#231f20;fill-opacity:1;fill-rule:nonzero;stroke:none"
               transform="matrix(1,0,0,-1,239.08533,88.940674)"><tspan
                 id="tspan166"
                 y="0"
                 x="0 6.0014105">pa</tspan></text>
<text
               id="text172"
               style="font-variant:normal;font-weight:normal;font-size:11.95500088px;font-family:CMSS12;-inkscape-font-specification:CMSS12;writing-mode:lr-tb;fill:#231f20;fill-opacity:1;fill-rule:nonzero;stroke:none"
               transform="matrix(1,0,0,-1,250.37204,88.940674)"><tspan
                 id="tspan170"
                 y="0"
                 x="0 3.9810154 8.2130861">rts</tspan></text>
<text
               id="text176"
               style="font-variant:normal;font-weight:normal;font-size:11.95500088px;font-family:CMSS12;-inkscape-font-specification:CMSS12;writing-mode:lr-tb;fill:#231f20;fill-opacity:1;fill-rule:nonzero;stroke:none"
               transform="matrix(1,0,0,-1,266.96317,88.940674)"><tspan
                 id="tspan174"
                 y="0"
                 x="0">o</tspan></text>
<text
               id="text180"
               style="font-variant:normal;font-weight:normal;font-size:11.95500088px;font-family:CMSS12;-inkscape-font-specification:CMSS12;writing-mode:lr-tb;fill:#231f20;fill-opacity:1;fill-rule:nonzero;stroke:none"
               transform="matrix(1,0,0,-1,272.8259,88.940674)"><tspan
                 id="tspan178"
                 y="0"
                 x="0">f</tspan></text>
<text
               id="text184"
               style="font-variant:normal;font-weight:normal;font-size:11.95500088px;font-family:CMSS12;-inkscape-font-specification:CMSS12;writing-mode:lr-tb;fill:#231f20;fill-opacity:1;fill-rule:nonzero;stroke:none"
               transform="matrix(1,0,0,-1,280.29779,88.940674)"><tspan
                 id="tspan182"
                 y="0"
                 x="0">t</tspan></text>
<text
               id="text188"
               style="font-variant:normal;font-weight:normal;font-size:11.95500088px;font-family:CMSS12;-inkscape-font-specification:CMSS12;writing-mode:lr-tb;fill:#231f20;fill-opacity:1;fill-rule:nonzero;stroke:none"
               transform="matrix(1,0,0,-1,284.53464,88.940674)"><tspan
                 id="tspan186"
                 y="0"
                 x="0 6.0014105">he</tspan></text>
<text
               id="text192"
               style="font-variant:normal;font-weight:normal;font-size:11.95500088px;font-family:CMSS12;-inkscape-font-specification:CMSS12;writing-mode:lr-tb;fill:#231f20;fill-opacity:1;fill-rule:nonzero;stroke:none"
               transform="matrix(1,0,0,-1,299.63739,88.940674)"><tspan
                 id="tspan190"
                 y="0"
                 x="0 5.2004256 11.058376 17.059786 22.260212">cone.</tspan></text>
<text
               id="text196"
               style="font-variant:normal;font-weight:normal;font-size:11.95500088px;font-family:CMSS12;-inkscape-font-specification:CMSS12;writing-mode:lr-tb;fill:#231f20;fill-opacity:1;fill-rule:nonzero;stroke:none"
               transform="matrix(1,0,0,-1,330.35458,88.940674)"><tspan
                 id="tspan194"
                 y="0"
                 x="0">T</tspan></text>
<text
               id="text200"
               style="font-variant:normal;font-weight:normal;font-size:11.95500088px;font-family:CMSS12;-inkscape-font-specification:CMSS12;writing-mode:lr-tb;fill:#231f20;fill-opacity:1;fill-rule:nonzero;stroke:none"
               transform="matrix(1,0,0,-1,338.3429,88.940674)"><tspan
                 id="tspan198"
                 y="0"
                 x="0 6.0014105">he</tspan></text>
<text
               id="text204"
               style="font-variant:normal;font-weight:normal;font-size:11.95500088px;font-family:CMSSBX10;-inkscape-font-specification:CMSSBX10;writing-mode:lr-tb;fill:#231f20;fill-opacity:1;fill-rule:nonzero;stroke:none"
               transform="matrix(1,0,0,-1,163.10413,74.494247)"><tspan
                 id="tspan202"
                 y="0"
                 x="0 4.4472604 10.556266 16.402262 21.232082 27.508457 34.215214 40.790462 47.497219 50.557701">rectangula</tspan></text>
<text
               id="text208"
               style="font-variant:normal;font-weight:normal;font-size:11.95500088px;font-family:CMSSBX10;-inkscape-font-specification:CMSSBX10;writing-mode:lr-tb;fill:#231f20;fill-opacity:1;fill-rule:nonzero;stroke:none"
               transform="matrix(1,0,0,-1,219.56763,74.494247)"><tspan
                 id="tspan206"
                 y="0"
                 x="0">r</tspan></text>
<text
               id="text212"
               style="font-variant:normal;font-weight:normal;font-size:11.95500088px;font-family:CMSSBX10;-inkscape-font-specification:CMSSBX10;writing-mode:lr-tb;fill:#231f20;fill-opacity:1;fill-rule:nonzero;stroke:none"
               transform="matrix(1,0,0,-1,228.3976,74.494247)"><tspan
                 id="tspan210"
                 y="0"
                 x="0">h</tspan></text>
<text
               id="text216"
               style="font-variant:normal;font-weight:normal;font-size:11.95500088px;font-family:CMSSBX10;-inkscape-font-specification:CMSSBX10;writing-mode:lr-tb;fill:#231f20;fill-opacity:1;fill-rule:nonzero;stroke:none"
               transform="matrix(1,0,0,-1,235.10316,74.494247)"><tspan
                 id="tspan214"
                 y="0"
                 x="0 5.9775004">yp</tspan></text>
<text
               id="text220"
               style="font-variant:normal;font-weight:normal;font-size:11.95500088px;font-family:CMSSBX10;-inkscape-font-specification:CMSSBX10;writing-mode:lr-tb;fill:#231f20;fill-opacity:1;fill-rule:nonzero;stroke:none"
               transform="matrix(1,0,0,-1,248.15085,74.494247)"><tspan
                 id="tspan218"
                 y="0"
                 x="0 6.1090055 10.556266">erb</tspan></text>
<text
               id="text224"
               style="font-variant:normal;font-weight:normal;font-size:11.95500088px;font-family:CMSSBX10;-inkscape-font-specification:CMSSBX10;writing-mode:lr-tb;fill:#231f20;fill-opacity:1;fill-rule:nonzero;stroke:none"
               transform="matrix(1,0,0,-1,265.77731,74.494247)"><tspan
                 id="tspan222"
                 y="0"
                 x="0">o</tspan></text>
<text
               id="text228"
               style="font-variant:normal;font-weight:normal;font-size:11.95500088px;font-family:CMSSBX10;-inkscape-font-specification:CMSSBX10;writing-mode:lr-tb;fill:#231f20;fill-opacity:1;fill-rule:nonzero;stroke:none"
               transform="matrix(1,0,0,-1,272.35257,74.494247)"><tspan
                 id="tspan226"
                 y="0"
                 x="0 3.0604804">la</tspan></text>
<text
               id="text232"
               style="font-variant:normal;font-weight:normal;font-size:11.95500088px;font-family:CMSS12;-inkscape-font-specification:CMSS12;writing-mode:lr-tb;fill:#231f20;fill-opacity:1;fill-rule:nonzero;stroke:none"
               transform="matrix(1,0,0,-1,285.61179,74.494247)"><tspan
                 id="tspan230"
                 y="0"
                 x="0 2.7496502">is</tspan></text>
<text
               id="text236"
               style="font-variant:normal;font-weight:normal;font-size:11.95500088px;font-family:CMSS12;-inkscape-font-specification:CMSS12;writing-mode:lr-tb;fill:#231f20;fill-opacity:1;fill-rule:nonzero;stroke:none"
               transform="matrix(1,0,0,-1,296.74905,74.494247)"><tspan
                 id="tspan234"
                 y="0"
                 x="0 5.8579507 11.859361 16.091431 21.698326 24.447977 30.449387 35.649815">obtained</tspan></text>
<text
               id="text240"
               style="font-variant:normal;font-weight:normal;font-size:11.95500088px;font-family:CMSS12;-inkscape-font-specification:CMSS12;writing-mode:lr-tb;fill:#231f20;fill-opacity:1;fill-rule:nonzero;stroke:none"
               transform="matrix(1,0,0,-1,342.29401,74.494247)"><tspan
                 id="tspan238"
                 y="0"
                 x="0">w</tspan></text>
<text
               id="text244"
               style="font-variant:normal;font-weight:normal;font-size:11.95500088px;font-family:CMSS12;-inkscape-font-specification:CMSS12;writing-mode:lr-tb;fill:#231f20;fill-opacity:1;fill-rule:nonzero;stroke:none"
               transform="matrix(1,0,0,-1,350.25006,74.494247)"><tspan
                 id="tspan242"
                 y="0"
                 x="0 6.0014105 11.201836">hen</tspan></text>
<text
               id="text248"
               style="font-variant:normal;font-weight:normal;font-size:11.95500088px;font-family:CMSS12;-inkscape-font-specification:CMSS12;writing-mode:lr-tb;fill:#231f20;fill-opacity:1;fill-rule:nonzero;stroke:none"
               transform="matrix(1,0,0,-1,371.36496,74.494247)"><tspan
                 id="tspan246"
                 y="0"
                 x="0">t</tspan></text>
<text
               id="text252"
               style="font-variant:normal;font-weight:normal;font-size:11.95500088px;font-family:CMSS12;-inkscape-font-specification:CMSS12;writing-mode:lr-tb;fill:#231f20;fill-opacity:1;fill-rule:nonzero;stroke:none"
               transform="matrix(1,0,0,-1,375.60181,74.494247)"><tspan
                 id="tspan250"
                 y="0"
                 x="0 6.0014105">he</tspan></text>
<text
               id="text256"
               style="font-variant:normal;font-weight:normal;font-size:11.95500088px;font-family:CMSS12;-inkscape-font-specification:CMSS12;writing-mode:lr-tb;fill:#231f20;fill-opacity:1;fill-rule:nonzero;stroke:none"
               transform="matrix(1,0,0,-1,163.10411,60.049019)"><tspan
                 id="tspan254"
                 y="0"
                 x="0 6.0014105 8.7510605 14.357956 20.359367">plane</tspan></text>
<text
               id="text260"
               style="font-variant:normal;font-weight:normal;font-size:11.95500088px;font-family:CMSS12;-inkscape-font-specification:CMSS12;writing-mode:lr-tb;fill:#231f20;fill-opacity:1;fill-rule:nonzero;stroke:none"
               transform="matrix(1,0,0,-1,192.56482,60.049019)"><tspan
                 id="tspan258"
                 y="0"
                 x="0 2.7496502">is</tspan></text>
<text
               id="text264"
               style="font-variant:normal;font-weight:normal;font-size:11.95500088px;font-family:CMSS12;-inkscape-font-specification:CMSS12;writing-mode:lr-tb;fill:#231f20;fill-opacity:1;fill-rule:nonzero;stroke:none"
               transform="matrix(1,0,0,-1,203.7009,60.049019)"><tspan
                 id="tspan262"
                 y="0"
                 x="0 6.0014105">pa</tspan></text>
<text
               id="text268"
               style="font-variant:normal;font-weight:normal;font-size:11.95500088px;font-family:CMSS12;-inkscape-font-specification:CMSS12;writing-mode:lr-tb;fill:#231f20;fill-opacity:1;fill-rule:nonzero;stroke:none"
               transform="matrix(1,0,0,-1,214.98523,60.049019)"><tspan
                 id="tspan266"
                 y="0"
                 x="0 3.9810154 9.5879107 12.337561 15.087212 20.287636">rallel</tspan></text>
<text
               id="text272"
               style="font-variant:normal;font-weight:normal;font-size:11.95500088px;font-family:CMSS12;-inkscape-font-specification:CMSS12;writing-mode:lr-tb;fill:#231f20;fill-opacity:1;fill-rule:nonzero;stroke:none"
               transform="matrix(1,0,0,-1,241.91743,60.049019)"><tspan
                 id="tspan270"
                 y="0"
                 x="0">t</tspan></text>
<text
               id="text276"
               style="font-variant:normal;font-weight:normal;font-size:11.95500088px;font-family:CMSS12;-inkscape-font-specification:CMSS12;writing-mode:lr-tb;fill:#231f20;fill-opacity:1;fill-rule:nonzero;stroke:none"
               transform="matrix(1,0,0,-1,246.15428,60.049019)"><tspan
                 id="tspan274"
                 y="0"
                 x="0">o</tspan></text>
<text
               id="text280"
               style="font-variant:normal;font-weight:normal;font-size:11.95500088px;font-family:CMSS12;-inkscape-font-specification:CMSS12;writing-mode:lr-tb;fill:#231f20;fill-opacity:1;fill-rule:nonzero;stroke:none"
               transform="matrix(1,0,0,-1,255.90956,60.049019)"><tspan
                 id="tspan278"
                 y="0"
                 x="0">t</tspan></text>
<text
               id="text284"
               style="font-variant:normal;font-weight:normal;font-size:11.95500088px;font-family:CMSS12;-inkscape-font-specification:CMSS12;writing-mode:lr-tb;fill:#231f20;fill-opacity:1;fill-rule:nonzero;stroke:none"
               transform="matrix(1,0,0,-1,260.14642,60.049019)"><tspan
                 id="tspan282"
                 y="0"
                 x="0 6.0014105">he</tspan></text>
<text
               id="text288"
               style="font-variant:normal;font-weight:normal;font-size:11.95500088px;font-family:CMSS12;-inkscape-font-specification:CMSS12;writing-mode:lr-tb;fill:#231f20;fill-opacity:1;fill-rule:nonzero;stroke:none"
               transform="matrix(1,0,0,-1,275.2468,60.049019)"><tspan
                 id="tspan286"
                 y="0"
                 x="0 5.2004256 11.058376 17.059786 22.260212 26.157541 31.764437 37.120277 39.869926 44.353054">cone-axis.</tspan></text>
<text
               id="text292"
               style="font-variant:normal;font-weight:normal;font-size:11px;font-family:Myriad;-inkscape-font-specification:Myriad-Roman;writing-mode:lr-tb;fill:#231f20;fill-opacity:1;fill-rule:nonzero;stroke:none"
               transform="matrix(1,0,0,-1,161.60501,45.146004)"><tspan
                 id="tspan290"
                 y="0"
                 x="0 3.1240001 9.8559999 12.188 18.392 23.903 30.052 35.563 41.667999 47.179001">(A degener</tspan></text>
<text
               id="text296"
               style="font-variant:normal;font-weight:normal;font-size:11px;font-family:Myriad;-inkscape-font-specification:Myriad-Roman;writing-mode:lr-tb;fill:#231f20;fill-opacity:1;fill-rule:nonzero;stroke:none"
               transform="matrix(1,0,0,-1,212.30731,45.146004)"><tspan
                 id="tspan294"
                 y="0"
                 x="0 5.302">at</tspan></text>
<text
               id="text300"
               style="font-variant:normal;font-weight:normal;font-size:11px;font-family:Myriad;-inkscape-font-specification:Myriad-Roman;writing-mode:lr-tb;fill:#231f20;fill-opacity:1;fill-rule:nonzero;stroke:none"
               transform="matrix(1,0,0,-1,221.18431,45.146004)"><tspan
                 id="tspan298"
                 y="0"
                 x="0 5.5110002 7.8429999 12.771 18.073 22.429001 27.940001 30.271999 32.846001 37.202 39.534 43.174999">e case is tw</tspan></text>
<text
               id="text304"
               style="font-variant:normal;font-weight:normal;font-size:11px;font-family:Myriad;-inkscape-font-specification:Myriad-Roman;writing-mode:lr-tb;fill:#231f20;fill-opacity:1;fill-rule:nonzero;stroke:none"
               transform="matrix(1,0,0,-1,272.34863,45.146004)"><tspan
                 id="tspan302"
                 y="0"
                 x="0 6.039 8.3710003 12.727 16.368">o str</tspan></text>
<text
               id="text308"
               style="font-variant:normal;font-weight:normal;font-size:11px;font-family:Myriad;-inkscape-font-specification:Myriad-Roman;writing-mode:lr-tb;fill:#231f20;fill-opacity:1;fill-rule:nonzero;stroke:none"
               transform="matrix(1,0,0,-1,292.24539,45.146004)"><tspan
                 id="tspan306"
                 y="0"
                 x="0 5.302 7.8759999 14.025 20.129999 23.771 26.103001 28.677 31.250999 37.355999 42.867001">aight lines</tspan></text>
<text
               id="text312"
               style="font-variant:normal;font-weight:normal;font-size:11px;font-family:Myriad;-inkscape-font-specification:Myriad-Roman;writing-mode:lr-tb;fill:#231f20;fill-opacity:1;fill-rule:nonzero;stroke:none"
               transform="matrix(1,0,0,-1,339.37161,45.146004)"><tspan
                 id="tspan310"
                 y="0"
                 x="0 2.277">.)</tspan></text>
</g></g></g></g></g></svg>