<?xml version="1.0" encoding="UTF-8" standalone="no"?>
<svg
   xmlns:dc="http://purl.org/dc/elements/1.1/"
   xmlns:cc="http://creativecommons.org/ns#"
   xmlns:rdf="http://www.w3.org/1999/02/22-rdf-syntax-ns#"
   xmlns:svg="http://www.w3.org/2000/svg"
   xmlns="http://www.w3.org/2000/svg"
   viewBox="0 0 616 418.66666"
   height="418.66666"
   width="616"
   xml:space="preserve"
   id="svg2"
   version="1.1"><metadata
     id="metadata8"><rdf:RDF><cc:Work
         rdf:about=""><dc:format>image/svg+xml</dc:format><dc:type
           rdf:resource="http://purl.org/dc/dcmitype/StillImage" /></cc:Work></rdf:RDF></metadata><defs
     id="defs6"><clipPath
       id="clipPath24"
       clipPathUnits="userSpaceOnUse"><path
         id="path22"
         d="M 0,0 H 462 V 314 H 0 Z" /></clipPath><clipPath
       id="clipPath42"
       clipPathUnits="userSpaceOnUse"><path
         id="path40"
         d="M 0,0 H 461.90402 V 313.45102 H 0 Z" /></clipPath><clipPath
       id="clipPath62"
       clipPathUnits="userSpaceOnUse"><path
         id="path60"
         d="M 0,0 H 461.90402 V 313.45102 H 0 Z" /></clipPath><clipPath
       id="clipPath76"
       clipPathUnits="userSpaceOnUse"><path
         id="path74"
         d="M 0,0 H 461.90402 V 313.45102 H 0 Z" /></clipPath></defs><g
     transform="matrix(1.3333333,0,0,-1.3333333,0,418.66667)"
     id="g10"><g
       id="g12" /><g
       id="g14" /><g
       id="g16"><g
         id="g18"><g
           clip-path="url(#clipPath24)"
           id="g20"><g
             id="g26" /><g
             id="g28"><path
               id="path30"
               style="fill:none;stroke:#231f20;stroke-width:0.60000002;stroke-linecap:butt;stroke-linejoin:miter;stroke-miterlimit:4;stroke-dasharray:none;stroke-opacity:1"
               d="m 73.399002,270.31802 c 26.993008,0 48.874998,4.103 48.874998,9.16401 0,5.06097 -21.88199,9.164 -48.874998,9.164 -26.993,0 -48.876001,-4.10303 -48.876001,-9.164 0,-5.06101 21.883001,-9.16401 48.876001,-9.16401 z m 0.442001,-113.07901 c 26.993007,0 48.875997,4.103 48.875997,9.165 0,5.061 -21.88299,9.164 -48.875997,9.164 -26.992,0 -48.875001,-4.103 -48.875001,-9.164 0,-5.062 21.883001,-9.165 48.875001,-9.165 z M 25.256001,277.52902 122.45701,167.02901 m -0.36,111.53001 -97.201008,-111.36001" /><path
               id="path32"
               style="fill:none;stroke:#231f20;stroke-width:1.20000005;stroke-linecap:butt;stroke-linejoin:miter;stroke-miterlimit:4;stroke-dasharray:1.2, 3.6000001, 1.2, 3.6000001, 1.2, 3.6000001;stroke-dashoffset:0;stroke-opacity:1"
               d="m 99.477005,253.11201 c 0,2.10799 -11.625999,3.81798 -25.966003,3.81798 -14.340001,0 -25.965001,-1.70999 -25.965001,-3.81798" /><path
               id="path34"
               style="fill:none;stroke:#231f20;stroke-width:1.20000005;stroke-linecap:butt;stroke-linejoin:miter;stroke-miterlimit:4;stroke-dasharray:none;stroke-opacity:1"
               d="m 47.546001,253.11201 c 0,-2.109 11.625,-3.819 25.965001,-3.819 14.340004,0 25.966003,1.71 25.966003,3.819" /></g><g
             id="g36"><g
               clip-path="url(#clipPath42)"
               id="g38"><path
                 id="path44"
                 style="fill:none;stroke:#231f20;stroke-width:0.5;stroke-linecap:butt;stroke-linejoin:miter;stroke-miterlimit:4;stroke-dasharray:1, 3, 1, 3, 1, 3;stroke-dashoffset:0;stroke-opacity:1"
                 d="M 37.676003,263.49902 H 107.87601" /><path
                 id="path46"
                 style="fill:none;stroke:#231f20;stroke-width:0.60000002;stroke-linecap:butt;stroke-linejoin:miter;stroke-miterlimit:4;stroke-dasharray:1.8000001, 5.4000001, 1.8000001, 5.4000001, 1.8000001, 5.4000001;stroke-dashoffset:0;stroke-opacity:1"
                 d="M 73.496002,300.66602 V 0" /></g></g><g
             id="g48"><path
               id="path50"
               style="fill:none;stroke:#231f20;stroke-width:0.60000002;stroke-linecap:butt;stroke-linejoin:miter;stroke-miterlimit:4;stroke-dasharray:none;stroke-opacity:1"
               d="m 73.924004,119.243 c 26.993006,0 48.874996,4.10301 48.874996,9.165 0,5.06101 -21.88199,9.16401 -48.874996,9.16401 -26.993,0 -48.876004,-4.103 -48.876004,-9.16401 0,-5.06199 21.883004,-9.165 48.876004,-9.165 z M 74.366005,6.1650004 c 26.992995,0 48.875995,4.1030006 48.875995,9.1639996 0,5.060999 -21.883,9.164002 -48.875995,9.164002 -26.992004,0 -48.875004,-4.103003 -48.875004,-9.164002 0,-5.060999 21.883,-9.1639996 48.875004,-9.1639996 z M 25.781002,126.454 122.982,15.954 M 122.62201,127.48501 25.421001,16.124001" /><path
               id="path52"
               style="fill:none;stroke:#231f20;stroke-width:1;stroke-linecap:butt;stroke-linejoin:miter;stroke-miterlimit:4;stroke-dasharray:1.2, 3.6000001, 1.2, 3.6000001, 1.2, 3.6000001;stroke-dashoffset:0;stroke-opacity:1"
               d="m 106.82401,110.54301 c -0.14701,2.04 -11.999005,-0.24201 -26.472005,-5.097 C 65.878006,100.591 54.264004,95.001007 54.411003,92.961006" /><path
               id="path54"
               style="fill:none;stroke:#231f20;stroke-width:1.20000005;stroke-linecap:butt;stroke-linejoin:miter;stroke-miterlimit:4;stroke-dasharray:none;stroke-opacity:1"
               d="m 55.494003,93.169006 c 0.147,-2.040001 11.999001,0.241997 26.473,5.097 C 96.439995,103.122 108.05401,108.71201 107.908,110.75201" /></g><g
             id="g56"><g
               clip-path="url(#clipPath62)"
               id="g58"><path
                 id="path64"
                 style="fill:none;stroke:#231f20;stroke-width:0.60000002;stroke-linecap:butt;stroke-linejoin:miter;stroke-miterlimit:4;stroke-dasharray:none;stroke-opacity:1"
                 d="m 115.866,120.313 13.23001,4.305 18.39999,-16 L 17.122002,65.217003 28.296001,91.818001 49.947002,98.863007 M 109.92101,263.392 l 24.8,-0.4 10.39999,-21.19999 H 0.72200006 L 22.249001,263.42102 H 36.722" /></g></g><g
             id="g66"><path
               id="path68"
               style="fill:none;stroke:#231f20;stroke-width:0.5;stroke-linecap:butt;stroke-linejoin:miter;stroke-miterlimit:4;stroke-dasharray:1, 3, 1, 3, 1, 3;stroke-dashoffset:0;stroke-opacity:1"
               d="M 50.691002,99.021004 115.024,120.354" /></g><g
             id="g70"><g
               clip-path="url(#clipPath76)"
               id="g72"><path
                 id="path78"
                 style="fill:none;stroke:#231f20;stroke-width:0.5;stroke-linecap:butt;stroke-linejoin:miter;stroke-miterlimit:4;stroke-dasharray:none;stroke-opacity:1"
                 d="m 53.878002,200.25 53.333008,18 -12.957005,-20.448 m 336.853025,7.651 c 16.871,0 30.54699,13.67699 30.54699,30.547 0,16.87 -13.67599,30.54703 -30.54699,30.54703 -16.87,0 -30.54603,-13.67703 -30.54603,-30.54703 0,-16.87001 13.67603,-30.547 30.54603,-30.547 z m 0,-184.379998 c 8.436,0 15.27398,18.995998 15.27398,42.426998 0,23.431007 -6.83798,42.427 -15.27398,42.427 -8.435,0 -15.27302,-18.995993 -15.27302,-42.427 0,-23.431 6.83802,-42.426998 15.27302,-42.426998 z" /></g></g><g
             id="g80"><path
               id="path82"
               style="fill:#231f20;fill-opacity:1;fill-rule:nonzero;stroke:none"
               d="m 175.58801,265.802 -46,-16.66598" /><text
               id="text86"
               style="font-variant:normal;font-weight:normal;font-size:11.95500088px;font-family:CMSSBX10;-inkscape-font-specification:CMSSBX10;writing-mode:lr-tb;fill:#231f20;fill-opacity:1;fill-rule:nonzero;stroke:none"
               transform="matrix(1,0,0,-1,176.58801,220.9852)"><tspan
                 id="tspan84"
                 y="0"
                 x="0 8.3924103 11.440936 15.888196 21.722237 24.770761">Circle</tspan></text>
<text
               id="text90"
               style="font-variant:normal;font-weight:normal;font-size:11.95500088px;font-family:CMSS12;-inkscape-font-specification:CMSS12;writing-mode:lr-tb;fill:#231f20;fill-opacity:1;fill-rule:nonzero;stroke:none"
               transform="matrix(1,0,0,-1,207.50604,220.9852)"><tspan
                 id="tspan88"
                 y="0"
                 x="0">:</tspan></text>
<text
               id="text94"
               style="font-variant:normal;font-weight:normal;font-size:11.95500088px;font-family:CMSS12;-inkscape-font-specification:CMSS12;writing-mode:lr-tb;fill:#231f20;fill-opacity:1;fill-rule:nonzero;stroke:none"
               transform="matrix(1,0,0,-1,219.86153,220.9852)"><tspan
                 id="tspan92"
                 y="0"
                 x="0 5.8579507 11.859361 16.091431 21.698326 24.447977 30.449387 35.649815">obtained</tspan></text>
<text
               id="text98"
               style="font-variant:normal;font-weight:normal;font-size:11.95500088px;font-family:CMSS12;-inkscape-font-specification:CMSS12;writing-mode:lr-tb;fill:#231f20;fill-opacity:1;fill-rule:nonzero;stroke:none"
               transform="matrix(1,0,0,-1,265.41605,220.9852)"><tspan
                 id="tspan96"
                 y="0"
                 x="0">b</tspan></text>
<text
               id="text102"
               style="font-variant:normal;font-weight:normal;font-size:11.95500088px;font-family:CMSS12;-inkscape-font-specification:CMSS12;writing-mode:lr-tb;fill:#231f20;fill-opacity:1;fill-rule:nonzero;stroke:none"
               transform="matrix(1,0,0,-1,271.09229,220.9852)"><tspan
                 id="tspan100"
                 y="0"
                 x="0">y</tspan></text>
<text
               id="text106"
               style="font-variant:normal;font-weight:normal;font-size:11.95500088px;font-family:CMSS12;-inkscape-font-specification:CMSS12;writing-mode:lr-tb;fill:#231f20;fill-opacity:1;fill-rule:nonzero;stroke:none"
               transform="matrix(1,0,0,-1,280.34784,220.9852)"><tspan
                 id="tspan104"
                 y="0"
                 x="0 2.7496502 8.7510605 12.983131 18.183556 22.164572 26.647697 31.848124 37.04855 41.280617 44.03027 49.888218">intersection</tspan></text>
<text
               id="text110"
               style="font-variant:normal;font-weight:normal;font-size:11.95500088px;font-family:CMSS12;-inkscape-font-specification:CMSS12;writing-mode:lr-tb;fill:#231f20;fill-opacity:1;fill-rule:nonzero;stroke:none"
               transform="matrix(1,0,0,-1,340.142,220.9852)"><tspan
                 id="tspan108"
                 y="0"
                 x="0 5.8579507">of</tspan></text>
<text
               id="text114"
               style="font-variant:normal;font-weight:normal;font-size:11.95500088px;font-family:CMSS12;-inkscape-font-specification:CMSS12;writing-mode:lr-tb;fill:#231f20;fill-opacity:1;fill-rule:nonzero;stroke:none"
               transform="matrix(1,0,0,-1,353.47659,220.9852)"><tspan
                 id="tspan112"
                 y="0"
                 x="0">a</tspan></text>
<text
               id="text118"
               style="font-variant:normal;font-weight:normal;font-size:11.95500088px;font-family:CMSS12;-inkscape-font-specification:CMSS12;writing-mode:lr-tb;fill:#231f20;fill-opacity:1;fill-rule:nonzero;stroke:none"
               transform="matrix(1,0,0,-1,362.9856,220.9852)"><tspan
                 id="tspan116"
                 y="0"
                 x="0 6.0014105 8.7510605 14.357956 20.359367">plane</tspan></text>
<text
               id="text122"
               style="font-variant:normal;font-weight:normal;font-size:11.95500088px;font-family:CMSS12;-inkscape-font-specification:CMSS12;writing-mode:lr-tb;fill:#231f20;fill-opacity:1;fill-rule:nonzero;stroke:none"
               transform="matrix(1,0,0,-1,176.58801,206.53877)"><tspan
                 id="tspan120"
                 y="0"
                 x="0">p</tspan></text>
<text
               id="text126"
               style="font-variant:normal;font-weight:normal;font-size:11.95500088px;font-family:CMSS12;-inkscape-font-specification:CMSS12;writing-mode:lr-tb;fill:#231f20;fill-opacity:1;fill-rule:nonzero;stroke:none"
               transform="matrix(1,0,0,-1,182.9146,206.53877)"><tspan
                 id="tspan124"
                 y="0"
                 x="0 5.2004256 9.1814404">erp</tspan></text>
<text
               id="text130"
               style="font-variant:normal;font-weight:normal;font-size:11.95500088px;font-family:CMSS12;-inkscape-font-specification:CMSS12;writing-mode:lr-tb;fill:#231f20;fill-opacity:1;fill-rule:nonzero;stroke:none"
               transform="matrix(1,0,0,-1,198.42262,206.53877)"><tspan
                 id="tspan128"
                 y="0"
                 x="0 5.2004256 11.201836 17.203247 19.952896 25.153322 31.154732 33.904385">endicula</tspan></text>
<text
               id="text134"
               style="font-variant:normal;font-weight:normal;font-size:11.95500088px;font-family:CMSS12;-inkscape-font-specification:CMSS12;writing-mode:lr-tb;fill:#231f20;fill-opacity:1;fill-rule:nonzero;stroke:none"
               transform="matrix(1,0,0,-1,237.60989,206.53877)"><tspan
                 id="tspan132"
                 y="0"
                 x="0">r</tspan></text>
<text
               id="text138"
               style="font-variant:normal;font-weight:normal;font-size:11.95500088px;font-family:CMSS12;-inkscape-font-specification:CMSS12;writing-mode:lr-tb;fill:#231f20;fill-opacity:1;fill-rule:nonzero;stroke:none"
               transform="matrix(1,0,0,-1,245.49303,206.53877)"><tspan
                 id="tspan136"
                 y="0"
                 x="0">t</tspan></text>
<text
               id="text142"
               style="font-variant:normal;font-weight:normal;font-size:11.95500088px;font-family:CMSS12;-inkscape-font-specification:CMSS12;writing-mode:lr-tb;fill:#231f20;fill-opacity:1;fill-rule:nonzero;stroke:none"
               transform="matrix(1,0,0,-1,249.7251,206.53877)"><tspan
                 id="tspan140"
                 y="0"
                 x="0">o</tspan></text>
<text
               id="text146"
               style="font-variant:normal;font-weight:normal;font-size:11.95500088px;font-family:CMSS12;-inkscape-font-specification:CMSS12;writing-mode:lr-tb;fill:#231f20;fill-opacity:1;fill-rule:nonzero;stroke:none"
               transform="matrix(1,0,0,-1,259.48517,206.53877)"><tspan
                 id="tspan144"
                 y="0"
                 x="0 4.2320704 10.23348">the</tspan></text>
<text
               id="text150"
               style="font-variant:normal;font-weight:normal;font-size:11.95500088px;font-family:CMSS12;-inkscape-font-specification:CMSS12;writing-mode:lr-tb;fill:#231f20;fill-opacity:1;fill-rule:nonzero;stroke:none"
               transform="matrix(1,0,0,-1,278.82117,206.53877)"><tspan
                 id="tspan148"
                 y="0"
                 x="0 5.2004256 11.058376 17.059786 22.260212 26.157541 31.764437 37.120277 39.869926">cone-axis</tspan></text>
<text
               id="text154"
               style="font-variant:normal;font-weight:normal;font-size:11.95500088px;font-family:CMSS12;-inkscape-font-specification:CMSS12;writing-mode:lr-tb;fill:#231f20;fill-opacity:1;fill-rule:nonzero;stroke:none"
               transform="matrix(1,0,0,-1,327.07758,206.53877)"><tspan
                 id="tspan152"
                 y="0"
                 x="0 7.9620309 10.711681 14.943751">with</tspan></text>
<text
               id="text158"
               style="font-variant:normal;font-weight:normal;font-size:11.95500088px;font-family:CMSS12;-inkscape-font-specification:CMSS12;writing-mode:lr-tb;fill:#231f20;fill-opacity:1;fill-rule:nonzero;stroke:none"
               transform="matrix(1,0,0,-1,351.92365,206.53877)"><tspan
                 id="tspan156"
                 y="0"
                 x="0 5.2004256 11.058376 17.059786 22.260212">cone.</tspan></text>
<text
               id="text162"
               style="font-variant:normal;font-weight:normal;font-size:11.95500088px;font-family:CMSSI12;-inkscape-font-specification:CMSSI12;writing-mode:lr-tb;fill:#231f20;fill-opacity:1;fill-rule:nonzero;stroke:none"
               transform="matrix(1,0,0,-1,173.25496,150.22594)"><tspan
                 id="tspan160"
                 y="0"
                 x="0 7.7229304">As</tspan></text>
<text
               id="text166"
               style="font-variant:normal;font-weight:normal;font-size:11.95500088px;font-family:CMSSI12;-inkscape-font-specification:CMSSI12;writing-mode:lr-tb;fill:#231f20;fill-opacity:1;fill-rule:nonzero;stroke:none"
               transform="matrix(1,0,0,-1,189.37866,150.22594)"><tspan
                 id="tspan164"
                 y="0"
                 x="0 4.2201152 10.221526">the</tspan></text>
<text
               id="text170"
               style="font-variant:normal;font-weight:normal;font-size:11.95500088px;font-family:CMSSI12;-inkscape-font-specification:CMSSI12;writing-mode:lr-tb;fill:#231f20;fill-opacity:1;fill-rule:nonzero;stroke:none"
               transform="matrix(1,0,0,-1,208.71588,150.22594)"><tspan
                 id="tspan168"
                 y="0"
                 x="0 6.0014105 8.7510605 14.346002 20.347412">plane</tspan></text>
<text
               id="text174"
               style="font-variant:normal;font-weight:normal;font-size:11.95500088px;font-family:CMSSI12;-inkscape-font-specification:CMSSI12;writing-mode:lr-tb;fill:#231f20;fill-opacity:1;fill-rule:nonzero;stroke:none"
               transform="matrix(1,0,0,-1,238.18852,150.22594)"><tspan
                 id="tspan172"
                 y="0"
                 x="0 5.8459954">of</tspan></text>
<text
               id="text178"
               style="font-variant:normal;font-weight:normal;font-size:11.95500088px;font-family:CMSSI12;-inkscape-font-specification:CMSSI12;writing-mode:lr-tb;fill:#231f20;fill-opacity:1;fill-rule:nonzero;stroke:none"
               transform="matrix(1,0,0,-1,251.52074,150.22594)"><tspan
                 id="tspan176"
                 y="0"
                 x="0 2.7496502 8.7510605 12.971176 18.171602 22.140661 26.623787 31.824213 37.024639 41.244755 43.994404 49.840401">intersection</tspan></text>
<text
               id="text182"
               style="font-variant:normal;font-weight:normal;font-size:11.95500088px;font-family:CMSSI12;-inkscape-font-specification:CMSSI12;writing-mode:lr-tb;fill:#231f20;fill-opacity:1;fill-rule:nonzero;stroke:none"
               transform="matrix(1,0,0,-1,311.3197,150.22594)"><tspan
                 id="tspan180"
                 y="0"
                 x="0 4.2201152 6.9697657 9.7194157 13.939531">tilts</tspan></text>
<text
               id="text186"
               style="font-variant:normal;font-weight:normal;font-size:11.95500088px;font-family:CMSSI12;-inkscape-font-specification:CMSSI12;writing-mode:lr-tb;fill:#231f20;fill-opacity:1;fill-rule:nonzero;stroke:none"
               transform="matrix(1,0,0,-1,333.672,150.22594)"><tspan
                 id="tspan184"
                 y="0"
                 x="0 4.2201152 10.221526">the</tspan></text>
<text
               id="text190"
               style="font-variant:normal;font-weight:normal;font-size:11.95500088px;font-family:CMSSI12;-inkscape-font-specification:CMSSI12;writing-mode:lr-tb;fill:#231f20;fill-opacity:1;fill-rule:nonzero;stroke:none"
               transform="matrix(1,0,0,-1,353.00922,150.22594)"><tspan
                 id="tspan188"
                 y="0"
                 x="0 5.8459954 10.066111 16.067522 21.267946">other</tspan></text>
<text
               id="text194"
               style="font-variant:normal;font-weight:normal;font-size:11.95500088px;font-family:CMSSI12;-inkscape-font-specification:CMSSI12;writing-mode:lr-tb;fill:#231f20;fill-opacity:1;fill-rule:nonzero;stroke:none"
               transform="matrix(1,0,0,-1,173.25496,135.77951)"><tspan
                 id="tspan192"
                 y="0"
                 x="0 5.2004256 11.046421 17.047831 19.797482 24.997908">conics</tspan></text>
<text
               id="text198"
               style="font-variant:normal;font-weight:normal;font-size:11.95500088px;font-family:CMSSI12;-inkscape-font-specification:CMSSI12;writing-mode:lr-tb;fill:#231f20;fill-opacity:1;fill-rule:nonzero;stroke:none"
               transform="matrix(1,0,0,-1,206.6608,135.77951)"><tspan
                 id="tspan196"
                 y="0"
                 x="0">a</tspan></text>
<text
               id="text202"
               style="font-variant:normal;font-weight:normal;font-size:11.95500088px;font-family:CMSSI12;-inkscape-font-specification:CMSSI12;writing-mode:lr-tb;fill:#231f20;fill-opacity:1;fill-rule:nonzero;stroke:none"
               transform="matrix(1,0,0,-1,211.94012,135.77951)"><tspan
                 id="tspan200"
                 y="0"
                 x="0">r</tspan></text>
<text
               id="text206"
               style="font-variant:normal;font-weight:normal;font-size:11.95500088px;font-family:CMSSI12;-inkscape-font-specification:CMSSI12;writing-mode:lr-tb;fill:#231f20;fill-opacity:1;fill-rule:nonzero;stroke:none"
               transform="matrix(1,0,0,-1,215.90918,135.77951)"><tspan
                 id="tspan204"
                 y="0"
                 x="0">e</tspan></text>
<text
               id="text210"
               style="font-variant:normal;font-weight:normal;font-size:11.95500088px;font-family:CMSSI12;-inkscape-font-specification:CMSSI12;writing-mode:lr-tb;fill:#231f20;fill-opacity:1;fill-rule:nonzero;stroke:none"
               transform="matrix(1,0,0,-1,225.02248,135.77951)"><tspan
                 id="tspan208"
                 y="0"
                 x="0 5.8459954 11.847406 16.067522 21.662462 24.412111 30.413523 35.613949">obtained</tspan></text>
<text
               id="text214"
               style="font-variant:normal;font-weight:normal;font-size:11.95500088px;font-family:CMSS12;-inkscape-font-specification:CMSS12;writing-mode:lr-tb;fill:#231f20;fill-opacity:1;fill-rule:nonzero;stroke:none"
               transform="matrix(1,0,0,-1,266.6785,135.77951)"><tspan
                 id="tspan212"
                 y="0"
                 x="0">:</tspan></text>
<text
               id="text218"
               style="font-variant:normal;font-weight:normal;font-size:11.95500088px;font-family:CMSSBX10;-inkscape-font-specification:CMSSBX10;writing-mode:lr-tb;fill:#231f20;fill-opacity:1;fill-rule:nonzero;stroke:none"
               transform="matrix(1,0,0,-1,176.588,81.999939)"><tspan
                 id="tspan216"
                 y="0"
                 x="0 7.6631556 10.711681 13.760206 16.808731 23.515488 28.548542">Ellipse</tspan></text>
<text
               id="text222"
               style="font-variant:normal;font-weight:normal;font-size:11.95500088px;font-family:CMSS12;-inkscape-font-specification:CMSS12;writing-mode:lr-tb;fill:#231f20;fill-opacity:1;fill-rule:nonzero;stroke:none"
               transform="matrix(1,0,0,-1,211.28499,81.999939)"><tspan
                 id="tspan220"
                 y="0"
                 x="0">:</tspan></text>
<text
               id="text226"
               style="font-variant:normal;font-weight:normal;font-size:11.95500088px;font-family:CMSS12;-inkscape-font-specification:CMSS12;writing-mode:lr-tb;fill:#231f20;fill-opacity:1;fill-rule:nonzero;stroke:none"
               transform="matrix(1,0,0,-1,218.43765,81.999939)"><tspan
                 id="tspan224"
                 y="0"
                 x="0 5.8579507 11.859361 16.091431 21.698326 24.447977 30.449387 35.649815">obtained</tspan></text>
<text
               id="text230"
               style="font-variant:normal;font-weight:normal;font-size:11.95500088px;font-family:CMSS12;-inkscape-font-specification:CMSS12;writing-mode:lr-tb;fill:#231f20;fill-opacity:1;fill-rule:nonzero;stroke:none"
               transform="matrix(1,0,0,-1,263.99219,81.999939)"><tspan
                 id="tspan228"
                 y="0"
                 x="0">b</tspan></text>
<text
               id="text234"
               style="font-variant:normal;font-weight:normal;font-size:11.95500088px;font-family:CMSS12;-inkscape-font-specification:CMSS12;writing-mode:lr-tb;fill:#231f20;fill-opacity:1;fill-rule:nonzero;stroke:none"
               transform="matrix(1,0,0,-1,269.66843,81.999939)"><tspan
                 id="tspan232"
                 y="0"
                 x="0">y</tspan></text>
<text
               id="text238"
               style="font-variant:normal;font-weight:normal;font-size:11.95500088px;font-family:CMSS12;-inkscape-font-specification:CMSS12;writing-mode:lr-tb;fill:#231f20;fill-opacity:1;fill-rule:nonzero;stroke:none"
               transform="matrix(1,0,0,-1,278.92758,81.999939)"><tspan
                 id="tspan236"
                 y="0"
                 x="0">a</tspan></text>
<text
               id="text242"
               style="font-variant:normal;font-weight:normal;font-size:11.95500088px;font-family:CMSS12;-inkscape-font-specification:CMSS12;writing-mode:lr-tb;fill:#231f20;fill-opacity:1;fill-rule:nonzero;stroke:none"
               transform="matrix(1,0,0,-1,288.43539,81.999939)"><tspan
                 id="tspan240"
                 y="0"
                 x="0 6.0014105 8.7510605 14.357956 20.359367 25.559792">plane,</tspan></text>
<text
               id="text246"
               style="font-variant:normal;font-weight:normal;font-size:11.95500088px;font-family:CMSS12;-inkscape-font-specification:CMSS12;writing-mode:lr-tb;fill:#231f20;fill-opacity:1;fill-rule:nonzero;stroke:none"
               transform="matrix(1,0,0,-1,321.14908,81.999939)"><tspan
                 id="tspan244"
                 y="0"
                 x="0 7.9620309 13.963441 16.713091 21.913517">which</tspan></text>
<text
               id="text250"
               style="font-variant:normal;font-weight:normal;font-size:11.95500088px;font-family:CMSS12;-inkscape-font-specification:CMSS12;writing-mode:lr-tb;fill:#231f20;fill-opacity:1;fill-rule:nonzero;stroke:none"
               transform="matrix(1,0,0,-1,352.96735,81.999939)"><tspan
                 id="tspan248"
                 y="0"
                 x="0 2.7496502">is</tspan></text>
<text
               id="text254"
               style="font-variant:normal;font-weight:normal;font-size:11.95500088px;font-family:CMSS12;-inkscape-font-specification:CMSS12;writing-mode:lr-tb;fill:#231f20;fill-opacity:1;fill-rule:nonzero;stroke:none"
               transform="matrix(1,0,0,-1,364.10223,81.999939)"><tspan
                 id="tspan252"
                 y="0"
                 x="0 6.0014105 11.859361">not</tspan></text>
<text
               id="text258"
               style="font-variant:normal;font-weight:normal;font-size:11.95500088px;font-family:CMSS12;-inkscape-font-specification:CMSS12;writing-mode:lr-tb;fill:#231f20;fill-opacity:1;fill-rule:nonzero;stroke:none"
               transform="matrix(1,0,0,-1,176.588,67.553513)"><tspan
                 id="tspan256"
                 y="0"
                 x="0">p</tspan></text>
<text
               id="text262"
               style="font-variant:normal;font-weight:normal;font-size:11.95500088px;font-family:CMSS12;-inkscape-font-specification:CMSS12;writing-mode:lr-tb;fill:#231f20;fill-opacity:1;fill-rule:nonzero;stroke:none"
               transform="matrix(1,0,0,-1,182.91458,67.553513)"><tspan
                 id="tspan260"
                 y="0"
                 x="0 5.2004256 9.1814404">erp</tspan></text>
<text
               id="text266"
               style="font-variant:normal;font-weight:normal;font-size:11.95500088px;font-family:CMSS12;-inkscape-font-specification:CMSS12;writing-mode:lr-tb;fill:#231f20;fill-opacity:1;fill-rule:nonzero;stroke:none"
               transform="matrix(1,0,0,-1,198.42261,67.553513)"><tspan
                 id="tspan264"
                 y="0"
                 x="0 5.2004256 11.201836 17.203247 19.952896 25.153322 31.154732 33.904385">endicula</tspan></text>
<text
               id="text270"
               style="font-variant:normal;font-weight:normal;font-size:11.95500088px;font-family:CMSS12;-inkscape-font-specification:CMSS12;writing-mode:lr-tb;fill:#231f20;fill-opacity:1;fill-rule:nonzero;stroke:none"
               transform="matrix(1,0,0,-1,237.60989,67.553513)"><tspan
                 id="tspan268"
                 y="0"
                 x="0">r</tspan></text>
<text
               id="text274"
               style="font-variant:normal;font-weight:normal;font-size:11.95500088px;font-family:CMSS12;-inkscape-font-specification:CMSS12;writing-mode:lr-tb;fill:#231f20;fill-opacity:1;fill-rule:nonzero;stroke:none"
               transform="matrix(1,0,0,-1,245.49303,67.553513)"><tspan
                 id="tspan272"
                 y="0"
                 x="0">t</tspan></text>
<text
               id="text278"
               style="font-variant:normal;font-weight:normal;font-size:11.95500088px;font-family:CMSS12;-inkscape-font-specification:CMSS12;writing-mode:lr-tb;fill:#231f20;fill-opacity:1;fill-rule:nonzero;stroke:none"
               transform="matrix(1,0,0,-1,249.7251,67.553513)"><tspan
                 id="tspan276"
                 y="0"
                 x="0">o</tspan></text>
<text
               id="text282"
               style="font-variant:normal;font-weight:normal;font-size:11.95500088px;font-family:CMSS12;-inkscape-font-specification:CMSS12;writing-mode:lr-tb;fill:#231f20;fill-opacity:1;fill-rule:nonzero;stroke:none"
               transform="matrix(1,0,0,-1,259.48517,67.553513)"><tspan
                 id="tspan280"
                 y="0"
                 x="0 4.2320704 10.23348">the</tspan></text>
<text
               id="text286"
               style="font-variant:normal;font-weight:normal;font-size:11.95500088px;font-family:CMSS12;-inkscape-font-specification:CMSS12;writing-mode:lr-tb;fill:#231f20;fill-opacity:1;fill-rule:nonzero;stroke:none"
               transform="matrix(1,0,0,-1,278.82117,67.553513)"><tspan
                 id="tspan284"
                 y="0"
                 x="0 5.2004256 11.058376 17.059786 22.260212 26.157541 31.764437 37.120277 39.869926 44.353054">cone-axis,</tspan></text>
<text
               id="text290"
               style="font-variant:normal;font-weight:normal;font-size:11.95500088px;font-family:CMSS12;-inkscape-font-specification:CMSS12;writing-mode:lr-tb;fill:#231f20;fill-opacity:1;fill-rule:nonzero;stroke:none"
               transform="matrix(1,0,0,-1,330.32935,67.553513)"><tspan
                 id="tspan288"
                 y="0"
                 x="0 6.0014105 12.002821">but</tspan></text>
<text
               id="text294"
               style="font-variant:normal;font-weight:normal;font-size:11.95500088px;font-family:CMSS12;-inkscape-font-specification:CMSS12;writing-mode:lr-tb;fill:#231f20;fill-opacity:1;fill-rule:nonzero;stroke:none"
               transform="matrix(1,0,0,-1,350.46753,67.553513)"><tspan
                 id="tspan292"
                 y="0"
                 x="0 5.2004256 11.201836 15.433907 19.665977 22.415627 28.417038">cutting</tspan></text>
<text
               id="text298"
               style="font-variant:normal;font-weight:normal;font-size:11.95500088px;font-family:CMSS12;-inkscape-font-specification:CMSS12;writing-mode:lr-tb;fill:#231f20;fill-opacity:1;fill-rule:nonzero;stroke:none"
               transform="matrix(1,0,0,-1,176.588,53.10709)"><tspan
                 id="tspan296"
                 y="0"
                 x="0 4.2320704 10.23348">the</tspan></text>
<text
               id="text302"
               style="font-variant:normal;font-weight:normal;font-size:11.95500088px;font-family:CMSS12;-inkscape-font-specification:CMSS12;writing-mode:lr-tb;fill:#231f20;fill-opacity:1;fill-rule:nonzero;stroke:none"
               transform="matrix(1,0,0,-1,195.92401,53.10709)"><tspan
                 id="tspan300"
                 y="0"
                 x="0 5.2004256 11.058376 17.059786">cone</tspan></text>
<text
               id="text306"
               style="font-variant:normal;font-weight:normal;font-size:11.95500088px;font-family:CMSS12;-inkscape-font-specification:CMSS12;writing-mode:lr-tb;fill:#231f20;fill-opacity:1;fill-rule:nonzero;stroke:none"
               transform="matrix(1,0,0,-1,222.08633,53.10709)"><tspan
                 id="tspan304"
                 y="0"
                 x="0 2.7496502">in</tspan></text>
<text
               id="text310"
               style="font-variant:normal;font-weight:normal;font-size:11.95500088px;font-family:CMSS12;-inkscape-font-specification:CMSS12;writing-mode:lr-tb;fill:#231f20;fill-opacity:1;fill-rule:nonzero;stroke:none"
               transform="matrix(1,0,0,-1,234.7395,53.10709)"><tspan
                 id="tspan308"
                 y="0"
                 x="0">a</tspan></text>
<text
               id="text314"
               style="font-variant:normal;font-weight:normal;font-size:11.95500088px;font-family:CMSS12;-inkscape-font-specification:CMSS12;writing-mode:lr-tb;fill:#231f20;fill-opacity:1;fill-rule:nonzero;stroke:none"
               transform="matrix(1,0,0,-1,244.24852,53.10709)"><tspan
                 id="tspan312"
                 y="0"
                 x="0 5.2004256 7.9500756 13.808026 18.291151 23.491577">closed</tspan></text>
<text
               id="text318"
               style="font-variant:normal;font-weight:normal;font-size:11.95500088px;font-family:CMSS12;-inkscape-font-specification:CMSS12;writing-mode:lr-tb;fill:#231f20;fill-opacity:1;fill-rule:nonzero;stroke:none"
               transform="matrix(1,0,0,-1,277.64362,53.10709)"><tspan
                 id="tspan316"
                 y="0"
                 x="0 5.2004256 11.201836 15.182851 20.538692 25.739117">curve.</tspan></text>
<text
               id="text322"
               style="font-variant:normal;font-weight:normal;font-size:11.95500088px;font-family:CMSS12;-inkscape-font-specification:CMSS12;writing-mode:lr-tb;fill:#231f20;fill-opacity:1;fill-rule:nonzero;stroke:none"
               transform="matrix(1,0,0,-1,176.588,38.660667)"><tspan
                 id="tspan320"
                 y="0"
                 x="0">V</tspan></text>
<text
               id="text326"
               style="font-variant:normal;font-weight:normal;font-size:11.95500088px;font-family:CMSS12;-inkscape-font-specification:CMSS12;writing-mode:lr-tb;fill:#231f20;fill-opacity:1;fill-rule:nonzero;stroke:none"
               transform="matrix(1,0,0,-1,183.9977,38.660667)"><tspan
                 id="tspan324"
                 y="0"
                 x="0">a</tspan></text>
<text
               id="text330"
               style="font-variant:normal;font-weight:normal;font-size:11.95500088px;font-family:CMSS12;-inkscape-font-specification:CMSS12;writing-mode:lr-tb;fill:#231f20;fill-opacity:1;fill-rule:nonzero;stroke:none"
               transform="matrix(1,0,0,-1,189.27821,38.660667)"><tspan
                 id="tspan328"
                 y="0"
                 x="0 3.9810154 6.7306657 12.588616 18.590027">rious</tspan></text>
<text
               id="text334"
               style="font-variant:normal;font-weight:normal;font-size:11.95500088px;font-family:CMSS12;-inkscape-font-specification:CMSS12;writing-mode:lr-tb;fill:#231f20;fill-opacity:1;fill-rule:nonzero;stroke:none"
               transform="matrix(1,0,0,-1,216.25348,38.660667)"><tspan
                 id="tspan332"
                 y="0"
                 x="0 5.2004256 7.9500756 10.699726 13.449376 19.450787 23.933912 29.134338">ellipses</tspan></text>
<text
               id="text338"
               style="font-variant:normal;font-weight:normal;font-size:11.95500088px;font-family:CMSS12;-inkscape-font-specification:CMSS12;writing-mode:lr-tb;fill:#231f20;fill-opacity:1;fill-rule:nonzero;stroke:none"
               transform="matrix(1,0,0,-1,253.77423,38.660667)"><tspan
                 id="tspan336"
                 y="0"
                 x="0">a</tspan></text>
<text
               id="text342"
               style="font-variant:normal;font-weight:normal;font-size:11.95500088px;font-family:CMSS12;-inkscape-font-specification:CMSS12;writing-mode:lr-tb;fill:#231f20;fill-opacity:1;fill-rule:nonzero;stroke:none"
               transform="matrix(1,0,0,-1,259.05597,38.660667)"><tspan
                 id="tspan340"
                 y="0"
                 x="0">r</tspan></text>
<text
               id="text346"
               style="font-variant:normal;font-weight:normal;font-size:11.95500088px;font-family:CMSS12;-inkscape-font-specification:CMSS12;writing-mode:lr-tb;fill:#231f20;fill-opacity:1;fill-rule:nonzero;stroke:none"
               transform="matrix(1,0,0,-1,263.03699,38.660667)"><tspan
                 id="tspan344"
                 y="0"
                 x="0">e</tspan></text>
<text
               id="text350"
               style="font-variant:normal;font-weight:normal;font-size:11.95500088px;font-family:CMSS12;-inkscape-font-specification:CMSS12;writing-mode:lr-tb;fill:#231f20;fill-opacity:1;fill-rule:nonzero;stroke:none"
               transform="matrix(1,0,0,-1,272.13953,38.660667)"><tspan
                 id="tspan348"
                 y="0"
                 x="0 5.8579507 11.859361 16.091431 21.698326 24.447977 30.449387 35.649815">obtained</tspan></text>
<text
               id="text354"
               style="font-variant:normal;font-weight:normal;font-size:11.95500088px;font-family:CMSS12;-inkscape-font-specification:CMSS12;writing-mode:lr-tb;fill:#231f20;fill-opacity:1;fill-rule:nonzero;stroke:none"
               transform="matrix(1,0,0,-1,317.69284,38.660667)"><tspan
                 id="tspan352"
                 y="0"
                 x="0 5.6068954">as</tspan></text>
<text
               id="text358"
               style="font-variant:normal;font-weight:normal;font-size:11.95500088px;font-family:CMSS12;-inkscape-font-specification:CMSS12;writing-mode:lr-tb;fill:#231f20;fill-opacity:1;fill-rule:nonzero;stroke:none"
               transform="matrix(1,0,0,-1,331.68619,38.660667)"><tspan
                 id="tspan356"
                 y="0"
                 x="0 4.2320704 10.23348">the</tspan></text>
<text
               id="text362"
               style="font-variant:normal;font-weight:normal;font-size:11.95500088px;font-family:CMSS12;-inkscape-font-specification:CMSS12;writing-mode:lr-tb;fill:#231f20;fill-opacity:1;fill-rule:nonzero;stroke:none"
               transform="matrix(1,0,0,-1,351.02219,38.660667)"><tspan
                 id="tspan360"
                 y="0"
                 x="0 6.0014105 8.7510605 14.357956 20.359367">plane</tspan></text>
<text
               id="text366"
               style="font-variant:normal;font-weight:normal;font-size:11.95500088px;font-family:CMSS12;-inkscape-font-specification:CMSS12;writing-mode:lr-tb;fill:#231f20;fill-opacity:1;fill-rule:nonzero;stroke:none"
               transform="matrix(1,0,0,-1,176.588,24.214245)"><tspan
                 id="tspan364"
                 y="0"
                 x="0 5.2004256 11.058376 17.059786 21.291857 24.041508 30.042917 36.044327 41.244755">continues</tspan></text>
<text
               id="text370"
               style="font-variant:normal;font-weight:normal;font-size:11.95500088px;font-family:CMSS12;-inkscape-font-specification:CMSS12;writing-mode:lr-tb;fill:#231f20;fill-opacity:1;fill-rule:nonzero;stroke:none"
               transform="matrix(1,0,0,-1,226.21916,24.214245)"><tspan
                 id="tspan368"
                 y="0"
                 x="0 4.2320704">to</tspan></text>
<text
               id="text374"
               style="font-variant:normal;font-weight:normal;font-size:11.95500088px;font-family:CMSS12;-inkscape-font-specification:CMSS12;writing-mode:lr-tb;fill:#231f20;fill-opacity:1;fill-rule:nonzero;stroke:none"
               transform="matrix(1,0,0,-1,240.2113,24.214245)"><tspan
                 id="tspan372"
                 y="0"
                 x="0 3.9810154 9.8389654 14.071036 19.677931 23.910002 29.110428">rotate.</tspan></text>
<text
               id="text378"
               style="font-variant:normal;font-weight:normal;font-size:11.95500088px;font-family:CMSS12;-inkscape-font-specification:CMSS12;writing-mode:lr-tb;fill:#231f20;fill-opacity:1;fill-rule:nonzero;stroke:none"
               transform="matrix(1,0,0,-1,51.921242,304.38565)"><tspan
                 id="tspan376"
                 y="0"
                 x="0 5.2004256 11.058376 17.059786 22.260212 26.157541 31.764437 37.120277 39.869926">cone-axis</tspan></text>
<text
               id="text382"
               style="font-variant:normal;font-weight:normal;font-size:11.95500088px;font-family:CMSS12;-inkscape-font-specification:CMSS12;writing-mode:lr-tb;fill:#231f20;fill-opacity:1;fill-rule:nonzero;stroke:none"
               transform="matrix(1,0,0,-1,84.755653,219.71915)"><tspan
                 id="tspan380"
                 y="0"
                 x="0 5.8579507 11.058376 17.059786 22.260212 26.241228 31.848124 36.080193">generato</tspan></text>
<text
               id="text386"
               style="font-variant:normal;font-weight:normal;font-size:11.95500088px;font-family:CMSS12;-inkscape-font-specification:CMSS12;writing-mode:lr-tb;fill:#231f20;fill-opacity:1;fill-rule:nonzero;stroke:none"
               transform="matrix(1,0,0,-1,126.36981,219.71915)"><tspan
                 id="tspan384"
                 y="0"
                 x="0">r</tspan></text>
<text
               id="text390"
               style="font-variant:normal;font-weight:normal;font-size:11.95500088px;font-family:CMSS12;-inkscape-font-specification:CMSS12;writing-mode:lr-tb;fill:#231f20;fill-opacity:1;fill-rule:nonzero;stroke:none"
               transform="matrix(1,0,0,-1,134.25414,219.71915)"><tspan
                 id="tspan388"
                 y="0"
                 x="0 2.7496502 5.4993005 11.50071 16.701136">lines</tspan></text>
<text
               id="text394"
               style="font-variant:normal;font-weight:normal;font-size:11.95500088px;font-family:CMSS12;-inkscape-font-specification:CMSS12;writing-mode:lr-tb;fill:#231f20;fill-opacity:1;fill-rule:nonzero;stroke:none"
               transform="matrix(1,0,0,-1,183.08792,266.9653)"><tspan
                 id="tspan392"
                 y="0"
                 x="0 6.0014105 8.7510605 14.357956 20.359367">plane</tspan></text>
<text
               id="text398"
               style="font-variant:normal;font-weight:normal;font-size:11.95500088px;font-family:CMSS12;-inkscape-font-specification:CMSS12;writing-mode:lr-tb;fill:#231f20;fill-opacity:1;fill-rule:nonzero;stroke:none"
               transform="matrix(1,0,0,-1,213.75369,266.29822)"><tspan
                 id="tspan396"
                 y="0"
                 x="0 5.8579507">of</tspan></text>
<text
               id="text402"
               style="font-variant:normal;font-weight:normal;font-size:11.95500088px;font-family:CMSS12;-inkscape-font-specification:CMSS12;writing-mode:lr-tb;fill:#231f20;fill-opacity:1;fill-rule:nonzero;stroke:none"
               transform="matrix(1,0,0,-1,228.42128,266.9653)"><tspan
                 id="tspan400"
                 y="0"
                 x="0 2.7496502 8.7510605 12.983131 18.183556 22.164572 26.647697 31.848124 37.04855 41.280617 44.03027 49.888218">intersection</tspan></text>
<text
               id="text406"
               style="font-variant:normal;font-weight:normal;font-size:11px;font-family:Myriad;-inkscape-font-specification:Myriad-Roman;writing-mode:lr-tb;fill:#231f20;fill-opacity:1;fill-rule:nonzero;stroke:none"
               transform="matrix(1,0,0,-1,175.755,190.636)"><tspan
                 id="tspan404"
                 y="0"
                 x="0 3.1240001 9.8559999 12.188 18.392 23.903 30.052 35.563 41.667999 47.179001">(A degener</tspan></text>
<text
               id="text410"
               style="font-variant:normal;font-weight:normal;font-size:11px;font-family:Myriad;-inkscape-font-specification:Myriad-Roman;writing-mode:lr-tb;fill:#231f20;fill-opacity:1;fill-rule:nonzero;stroke:none"
               transform="matrix(1,0,0,-1,226.44852,190.636)"><tspan
                 id="tspan408"
                 y="0"
                 x="0 5.302">at</tspan></text>
<text
               id="text414"
               style="font-variant:normal;font-weight:normal;font-size:11px;font-family:Myriad;-inkscape-font-specification:Myriad-Roman;writing-mode:lr-tb;fill:#231f20;fill-opacity:1;fill-rule:nonzero;stroke:none"
               transform="matrix(1,0,0,-1,235.32442,190.636)"><tspan
                 id="tspan412"
                 y="0"
                 x="0 5.5110002 7.8429999 12.771 18.073 22.429001 27.940001 30.271999 32.846001 37.202 39.534 44.835999 47.167999 51.523998 54.098 60.202999 66.351997 68.926003 74.436996 76.768997 83.028 89.067001 91.640999 97.746002 101.387 103.664">e case is a single point.)</tspan></text>
</g></g></g></g></g></svg>