<?xml version="1.0" encoding="UTF-8" standalone="no"?>
<svg
   xmlns:dc="http://purl.org/dc/elements/1.1/"
   xmlns:cc="http://creativecommons.org/ns#"
   xmlns:rdf="http://www.w3.org/1999/02/22-rdf-syntax-ns#"
   xmlns:svg="http://www.w3.org/2000/svg"
   xmlns="http://www.w3.org/2000/svg"
   viewBox="0 0 188 132"
   height="132"
   width="188"
   xml:space="preserve"
   id="svg2"
   version="1.1"><metadata
     id="metadata8"><rdf:RDF><cc:Work
         rdf:about=""><dc:format>image/svg+xml</dc:format><dc:type
           rdf:resource="http://purl.org/dc/dcmitype/StillImage" /></cc:Work></rdf:RDF></metadata><defs
     id="defs6"><clipPath
       id="clipPath24"
       clipPathUnits="userSpaceOnUse"><path
         id="path22"
         d="M 0,0 H 141 V 99 H 0 Z" /></clipPath></defs><g
     transform="matrix(1.3333333,0,0,-1.3333333,0,132)"
     id="g10"><g
       id="g12" /><g
       id="g14" /><g
       id="g16"><g
         id="g18"><g
           clip-path="url(#clipPath24)"
           id="g20"><g
             id="g26" /><g
             id="g28"><path
               id="path30"
               style="fill:none;stroke:#231f20;stroke-width:0.40000001;stroke-linecap:butt;stroke-linejoin:round;stroke-miterlimit:10;stroke-dasharray:none;stroke-opacity:1"
               d="M 8.0960007,10.705001 H 132.582" /><path
               id="path32"
               style="fill:#231f20;fill-opacity:1;fill-rule:nonzero;stroke:none"
               d="m 131.33701,10.765 -1.709,2.809 0.096,0.064 4.582,-1.819999 C 135.903,11.467001 137.5,11.116 139.09601,10.765 137.5,10.413 135.903,10.062 134.306,9.71 l -4.582,-1.8200001 -0.096,0.048 1.709,2.8270001" /><path
               id="path34"
               style="fill:none;stroke:#231f20;stroke-width:0.40000001;stroke-linecap:butt;stroke-linejoin:round;stroke-miterlimit:10;stroke-dasharray:none;stroke-opacity:1"
               d="M 71.032005,2.444 V 86.157005" /><path
               id="path36"
               style="fill:#231f20;fill-opacity:1;fill-rule:nonzero;stroke:none"
               d="M 71.032005,86.157005 68.222,84.448006 l -0.06399,0.096 1.819999,4.582001 c 0.351998,1.597 0.702996,3.193993 1.054001,4.790001 0.350998,-1.596008 0.701996,-3.193001 1.054001,-4.790001 l 1.82,-4.582001 -0.049,-0.096 -2.824997,1.708999" /><path
               id="path38"
               style="fill:none;stroke:#231f20;stroke-width:0.40000001;stroke-linecap:butt;stroke-linejoin:round;stroke-miterlimit:10;stroke-dasharray:none;stroke-opacity:1"
               d="m 99.588005,65.617004 0.087,0.475998 0.130005,0.433998 0.129997,0.432999 0.129993,0.476006 0.087,0.476997 0.13,0.433998 0.12999,0.476006 0.087,0.476997 0.129,0.432999 0.13099,0.476997 0.087,0.477005 0.129,0.475998 0.12999,0.476997 0.087,0.477005 0.26,0.952996 0.087,0.476005 0.26,0.952996 0.086,0.477005 0.13101,0.519996 0.12999,0.477005 0.086,0.47699 0.13001,0.520004 0.12999,0.476006 0.087,0.519996 0.13001,0.476998 0.12999,0.520004 0.086,0.47699 0.13001,0.520004 0.13099,0.519997 0.086,0.476005 0.39,1.561005 0.087,0.519997 0.129,0.475997 0.13099,0.520005 0.087,0.519996 m -15.991005,-54.556999 0.087,0.303999 0.130005,0.259998 0.129997,0.260001 0.087,0.303001 0.130005,0.26 0.129998,0.260001 0.086,0.304 0.130005,0.258999 0.129997,0.303997 0.086,0.303002 0.131004,0.260002 0.129997,0.303001 0.086,0.303997 0.131004,0.259999 0.128998,0.303001 0.130997,0.303001 0.08601,0.303997 0.129997,0.303002 0.129997,0.304001 0.086,0.302997 0.131004,0.303006 0.129998,0.303997 0.086,0.302997 0.130005,0.347004 0.129997,0.302998 0.087,0.303001 0.130005,0.303002 0.129997,0.347 0.087,0.302997 0.130005,0.347 0.129997,0.303002 0.087,0.347 0.130005,0.303001 0.128998,0.347 0.087,0.346997 0.130005,0.303001 0.129997,0.346996 0.086,0.347004 0.131004,0.346001 0.129997,0.346996 0.086,0.303006 0.131004,0.346996 0.128998,0.346001 0.087,0.347 0.130005,0.391002 0.129997,0.345997 0.129997,0.346001 0.086,0.347 0.131004,0.346996 0.129998,0.390003 0.086,0.347001 0.130005,0.346 0.129997,0.39 0.087,0.347 0.130005,0.389999 0.129997,0.346001 0.087,0.391002 0.129006,0.39 0.130996,0.346001 0.087,0.390998 0.129006,0.389 0.129997,0.39 0.087,0.346996 0.130005,0.389999 0.129997,0.390004 0.086,0.389999 0.131004,0.389999 0.129997,0.39 0.086,0.389999 0.130005,0.433003 0.129997,0.391002 0.087,0.389 0.130005,0.39 0.129997,0.433998 0.129997,0.390003 0.086,0.389999 0.131004,0.432995 0.129998,0.39 0.086,0.434005 0.130005,0.389 0.129997,0.433998 0.087,0.432999 0.130005,0.389999 0.129997,0.433003 0.086,0.434002 0.130005,0.432995 0.130996,0.389999 0.087,0.433006 0.129006,0.433998 0.129997,0.432995 0.087,0.433007 0.130005,0.432998 0.129997,0.477001 0.086,0.433998 0.131004,0.432999 0.128998,0.433003 0.087,0.432998 0.131004,0.477005 0.128998,0.433998" /><path
               id="path40"
               style="fill:none;stroke:#231f20;stroke-width:0.40000001;stroke-linecap:butt;stroke-linejoin:round;stroke-miterlimit:10;stroke-dasharray:none;stroke-opacity:1"
               d="m 76.622002,12.36 0.086,0.087 0.130005,0.086 0.130997,0.087 0.086,0.086 0.130005,0.087 0.129997,0.13 0.086,0.087 0.131004,0.087 0.215996,0.216 0.130005,0.13 0.129997,0.087 0.087,0.13 0.130005,0.086 0.129997,0.13 0.087,0.130001 0.129006,0.087 0.130996,0.130001 0.087,0.13 0.130005,0.13 0.128998,0.13 0.217003,0.215999 0.129997,0.131 0.086,0.173 0.131004,0.13 0.129997,0.130001 0.128998,0.13 0.088,0.13 0.128998,0.13 0.130997,0.172999 0.086,0.13 0.130005,0.174 0.129997,0.129999 0.086,0.130001 0.131004,0.173001 0.129998,0.174 0.086,0.128999 0.130005,0.174 0.129997,0.173 0.087,0.130001 0.130005,0.172999 0.129997,0.174 0.087,0.173 0.129006,0.173 0.130996,0.174 0.087,0.173 0.130005,0.173001 0.128998,0.173998 0.087,0.173002 0.130005,0.173 0.129997,0.173998 0.086,0.173002 0.131004,0.216999 0.128998,0.173001 0.129997,0.174 0.088,0.215999 0.128998,0.173001 0.129997,0.217 0.087,0.173001 0.130005,0.216999 0.129997,0.215999 0.086,0.174 0.131004,0.216999 0.129998,0.216002 0.086,0.173998 0.130005,0.216001 0.129997,0.217001 0.087,0.216999 0.130005,0.216002 0.129997,0.216999 0.086,0.216999 0.130005,0.216001 0.130996,0.216999 0.087,0.260001 0.129006,0.216999 0.129997,0.216001 0.087,0.216999 0.130005,0.26 0.129997,0.217 0.086,0.216001 0.131004,0.26 0.128998,0.216999 0.087,0.260001 0.130005,0.26 0.129997,0.216999 0.129997,0.26 0.08701,0.26 0.129997,0.216002 0.128998,0.260999 0.087,0.259001 0.131004,0.259999 0.129998,0.26 0.086,0.26 0.130005,0.26 0.129997,0.260001 0.087,0.26 0.130005,0.260999 0.129997,0.259001 M 65.095001,12.62 l 0.130005,-0.087 0.129997,-0.086 0.087,-0.087 0.130005,-0.087 0.129997,-0.087 0.087,-0.086 0.130005,-0.087 0.128998,-0.087 0.129997,-0.086 0.087,-0.044 0.130005,-0.087 0.129998,-0.086 0.087,-0.086 0.130004,-0.044 0.128998,-0.086 0.087,-0.044 0.130005,-0.087 0.129997,-0.043 0.087,-0.043 0.130005,-0.087 0.129997,-0.043 0.086,-0.043 0.131004,-0.044 0.129998,-0.086 0.086,-0.044 0.130005,-0.043 0.129997,-0.044 0.087,-0.043 0.130005,-0.043 0.129997,-0.044 0.087,-0.043 h 0.129006 l 0.130996,-0.044 0.087,-0.043 0.129006,-0.043 h 0.129997 l 0.129997,-0.043 h 0.08701 l 0.129997,-0.043 h 0.129998 l 0.087,-0.044 h 0.130004 l 0.128998,-0.043 h 0.347 l 0.087,-0.043 h 0.953003 l 0.087,0.043 h 0.346001 l 0.130005,0.043 h 0.130996 l 0.087,0.044 h 0.129006 l 0.129997,0.043 h 0.087 l 0.130005,0.043 h 0.129997 l 0.129998,0.043 0.08701,0.043 0.128998,0.044 h 0.129997 l 0.088,0.043 0.128998,0.044 0.129997,0.043 0.087,0.043 0.130005,0.044 0.128998,0.043 0.087,0.044 0.131004,0.086 0.128998,0.044 0.087,0.043 0.130005,0.043 0.129997,0.087 0.087,0.043 0.130005,0.043 0.129997,0.087 0.086,0.044 0.130005,0.086 0.130996,0.044 0.087,0.086 0.129006,0.086 0.129997,0.087 0.087,0.044 0.130005,0.086 0.129997,0.087 0.129998,0.087 0.086,0.086 0.130005,0.087 0.129997,0.087" /><path
               id="path42"
               style="fill:none;stroke:#231f20;stroke-width:0.40000001;stroke-linecap:butt;stroke-linejoin:round;stroke-miterlimit:10;stroke-dasharray:none;stroke-opacity:1"
               d="m 53.612003,30.82 0.130001,-0.260001 0.128998,-0.259998 0.087,-0.303999 0.129997,-0.259001 0.131001,-0.260999 0.086,-0.26 0.129997,-0.260001 0.130001,-0.26 0.086,-0.26 0.131,-0.26 0.130002,-0.259999 0.086,-0.259001 0.130001,-0.260999 0.130001,-0.216002 0.087,-0.26 0.130001,-0.26 0.130001,-0.216999 0.130001,-0.26 0.086,-0.260001 0.131,-0.216999 0.130002,-0.26 0.086,-0.216001 0.130001,-0.217 0.129997,-0.26 0.087,-0.216999 0.130001,-0.216001 0.129998,-0.216999 0.087,-0.260001 0.128998,-0.216999 0.130001,-0.216001 0.087,-0.216999 L 57.338,22.976002 57.468001,22.76 l 0.087,-0.216999 0.129997,-0.217001 0.129002,-0.216001 0.087,-0.173998 0.131,-0.216002 0.130002,-0.216999 0.086,-0.174 0.130001,-0.215999 0.130001,-0.216999 0.087,-0.173001 0.130001,-0.217 0.130001,-0.173001 0.086,-0.215999 0.130001,-0.174 0.131,-0.173001 0.130002,-0.216999 0.086,-0.173002 0.130001,-0.173998 0.129997,-0.173 0.087,-0.173002 0.130001,-0.173998 0.129998,-0.173001 0.087,-0.173 0.258999,-0.347 0.087,-0.173 0.129997,-0.174 0.130001,-0.172999 0.087,-0.130001 0.129997,-0.173 0.129002,-0.174 0.087,-0.128999 0.130996,-0.174 0.130002,-0.174 0.086,-0.129002 0.130001,-0.129999 0.130001,-0.174 0.087,-0.13 0.130001,-0.172999 0.130001,-0.13 0.087,-0.13 0.129002,-0.13 0.131,-0.130001 0.130002,-0.13 0.086,-0.173 0.130001,-0.131 0.129997,-0.129 0.087,-0.087 0.130001,-0.13 0.129998,-0.13 0.086,-0.13 0.129997,-0.130001 0.130001,-0.087 0.087,-0.130001 0.129997,-0.13 0.130001,-0.086 0.087,-0.13 0.130005,-0.087 0.128998,-0.13 0.087,-0.087 0.131004,-0.129 0.128998,-0.087 0.217003,-0.216999 0.129997,-0.087 0.087,-0.086 m -22.967004,54.34 0.130001,-0.432999 0.129997,-0.433998 0.087,-0.475998 0.130001,-0.433998 0.129998,-0.477005 0.086,-0.432998 0.131,-0.433003 0.129998,-0.432999 0.086,-0.433998 0.129997,-0.477001 0.130001,-0.432998 0.087,-0.433007 0.129997,-0.432995 0.130002,-0.433998 0.087,-0.433006 0.128998,-0.389999 0.130001,-0.432995 0.087,-0.434002 0.129997,-0.433003 0.130001,-0.389999 0.087,-0.432999 0.130001,-0.433998 0.130001,-0.389 0.086,-0.434005 0.131,-0.39 0.130002,-0.432995 0.086,-0.389999 0.130001,-0.390003 0.130001,-0.433998 0.129997,-0.39 0.087,-0.389 0.130001,-0.391002 0.129998,-0.433003 0.086,-0.389999 0.131,-0.39 0.129998,-0.389999 0.086,-0.389999 0.129997,-0.390004 0.130001,-0.389999 0.087,-0.346996 0.129997,-0.39 0.130002,-0.389 0.086,-0.390998 0.129997,-0.346001 0.130001,-0.39 0.087,-0.391002 0.129997,-0.346001 0.130001,-0.389999 0.087,-0.347 0.129997,-0.39 0.129002,-0.346 0.087,-0.347001 0.131,-0.390003 0.129002,-0.346996 0.087,-0.347 0.130001,-0.346001 0.130001,-0.345997 0.129997,-0.391002 0.087,-0.347 0.130001,-0.346001 0.129998,-0.346996 0.086,-0.303006 0.131,-0.346996 0.129998,-0.346001 0.086,-0.347004 0.130001,-0.346996 0.129997,-0.303001 0.087,-0.346997 0.130001,-0.347 0.129998,-0.303001 0.086,-0.347 0.129997,-0.303002 0.130001,-0.347 0.087,-0.302997 0.129997,-0.347 0.130001,-0.303002 0.087,-0.303001 0.129997,-0.302998 0.129002,-0.347004 0.087,-0.302997 0.131,-0.303997 0.129002,-0.303006 0.087,-0.302997 0.130001,-0.304001 0.130001,-0.303002 0.087,-0.303997 0.130001,-0.303001 0.130001,-0.303001 0.128998,-0.259999 0.087,-0.303997 0.131,-0.303001 0.129998,-0.260002 0.086,-0.303002 0.130001,-0.303997 0.129997,-0.258999 0.087,-0.304 0.130001,-0.260001 0.129998,-0.26 0.086,-0.303001" /><path
               id="path44"
               style="fill:none;stroke:#231f20;stroke-width:0.40000001;stroke-linecap:butt;stroke-linejoin:round;stroke-miterlimit:10;stroke-dasharray:none;stroke-opacity:1"
               d="m 38.315002,83.037003 0.086,-0.519997 0.131,-0.521004 0.130002,-0.519996 0.130001,-0.520005 0.086,-0.476005 0.130001,-0.519997 0.129997,-0.520004 0.087,-0.47699 0.130001,-0.520004 0.129998,-0.476998 0.087,-0.518997 0.130001,-0.477005 0.129998,-0.520004 0.086,-0.47699 0.131001,-0.477005 0.128997,-0.519996 0.087,-0.476006 0.259999,-0.953995 0.087,-0.476005 0.129998,-0.476998 0.130001,-0.475998 0.086,-0.477005 0.130001,-0.476997 0.131001,-0.475998 0.086,-0.477005 0.130001,-0.476997 0.130001,-0.432999 0.086,-0.476997 0.131,-0.476006 0.130002,-0.433998 0.130001,-0.476997 0.086,-0.476006" /><text
               id="text48"
               style="font-variant:normal;font-weight:normal;font-size:12.43319988px;font-family:CMR12;-inkscape-font-specification:CMR12;writing-mode:lr-tb;fill:#231f20;fill-opacity:1;fill-rule:nonzero;stroke:none"
               transform="matrix(1,0,0,-1,0,47.308098)"><tspan
                 id="tspan46"
                 y="0"
                 x="0 3.7175269">fo</tspan></text>
<text
               id="text52"
               style="font-variant:normal;font-weight:normal;font-size:12.43319988px;font-family:CMR12;-inkscape-font-specification:CMR12;writing-mode:lr-tb;fill:#231f20;fill-opacity:1;fill-rule:nonzero;stroke:none"
               transform="matrix(1,0,0,-1,10.145491,47.308098)"><tspan
                 id="tspan50"
                 y="0"
                 x="0 5.408442 12.15967">cus</tspan></text>
<text
               id="text56"
               style="font-variant:normal;font-weight:normal;font-size:12.43319988px;font-family:CMMI12;-inkscape-font-specification:CMMI12;writing-mode:lr-tb;fill:#231f20;fill-opacity:1;fill-rule:nonzero;stroke:none"
               transform="matrix(1,0,0,-1,75.665962,34.827652)"><tspan
                 id="tspan54"
                 y="0"
                 x="0">a</tspan></text>
<text
               id="text60"
               style="font-variant:normal;font-weight:normal;font-size:12.43319988px;font-family:CMMI12;-inkscape-font-specification:CMMI12;writing-mode:lr-tb;fill:#231f20;fill-opacity:1;fill-rule:nonzero;stroke:none"
               transform="matrix(1,0,0,-1,133.38585,3.1080735)"><tspan
                 id="tspan58"
                 y="0"
                 x="0">x</tspan></text>
<text
               id="text64"
               style="font-variant:normal;font-weight:normal;font-size:12.43319988px;font-family:CMMI12;-inkscape-font-specification:CMMI12;writing-mode:lr-tb;fill:#231f20;fill-opacity:1;fill-rule:nonzero;stroke:none"
               transform="matrix(1,0,0,-1,76.216759,88.764114)"><tspan
                 id="tspan62"
                 y="0"
                 x="0">y</tspan></text>
<path
               id="path66"
               style="fill:#231f20;fill-opacity:1;fill-rule:nonzero;stroke:none"
               d="m 71.505005,34.34 c 0.914001,0 1.654991,0.739998 1.654991,1.655003 0,0.912998 -0.74099,1.653999 -1.654991,1.653999 -0.913002,0 -1.653999,-0.741001 -1.653999,-1.653999 0,-0.915005 0.740997,-1.655003 1.653999,-1.655003" /><path
               id="path68"
               style="fill:#231f20;fill-opacity:1;fill-rule:nonzero;stroke:none"
               d="M 67.346001,36.388 29.385002,47.308002" /><path
               id="path70"
               style="fill:none;stroke:#231f20;stroke-width:0.40000001;stroke-linecap:butt;stroke-linejoin:miter;stroke-miterlimit:4;stroke-dasharray:none;stroke-opacity:1"
               d="M 67.346001,36.388 29.385002,47.308002" /></g></g></g></g></g></svg>