<?xml version="1.0" encoding="UTF-8" standalone="no"?>
<svg
   xmlns:dc="http://purl.org/dc/elements/1.1/"
   xmlns:cc="http://creativecommons.org/ns#"
   xmlns:rdf="http://www.w3.org/1999/02/22-rdf-syntax-ns#"
   xmlns:svg="http://www.w3.org/2000/svg"
   xmlns="http://www.w3.org/2000/svg"
   viewBox="0 0 306.66666 168"
   height="168"
   width="306.66666"
   xml:space="preserve"
   id="svg2"
   version="1.1"><metadata
     id="metadata8"><rdf:RDF><cc:Work
         rdf:about=""><dc:format>image/svg+xml</dc:format><dc:type
           rdf:resource="http://purl.org/dc/dcmitype/StillImage" /></cc:Work></rdf:RDF></metadata><defs
     id="defs6"><clipPath
       id="clipPath24"
       clipPathUnits="userSpaceOnUse"><path
         id="path22"
         d="M 0,0 H 230 V 126 H 0 Z" /></clipPath><clipPath
       id="clipPath34"
       clipPathUnits="userSpaceOnUse"><path
         id="path32"
         d="M 0.06,0.06000519 H 229.401 V 125.84601 H 0.06 Z" /></clipPath><clipPath
       id="clipPath52"
       clipPathUnits="userSpaceOnUse"><path
         id="path50"
         d="M 0.06,0.06000519 H 229.401 V 125.84601 H 0.06 Z" /></clipPath></defs><g
     transform="matrix(1.3333333,0,0,-1.3333333,0,168)"
     id="g10"><g
       id="g12" /><g
       id="g14" /><g
       id="g16"><g
         id="g18"><g
           clip-path="url(#clipPath24)"
           id="g20"><g
             id="g26" /><g
             id="g28"><g
               clip-path="url(#clipPath34)"
               id="g30"><path
                 id="path36"
                 style="fill:none;stroke:#231f20;stroke-width:0.40000001;stroke-linecap:butt;stroke-linejoin:round;stroke-miterlimit:10;stroke-dasharray:none;stroke-opacity:1"
                 d="M 0,56.909004 H 185.675" /></g></g><g
             id="g38"><path
               id="path40"
               style="fill:#231f20;fill-opacity:1;fill-rule:nonzero;stroke:none"
               d="m 184.44601,56.909004 -1.36801,2.247997 0.076,0.05 3.667,-1.456002 c 1.277,-0.279999 2.55401,-0.560001 3.831,-0.841999 -1.27699,-0.281002 -2.554,-0.562 -3.831,-0.843002 l -3.667,-1.456001 -0.076,0.039 1.36801,2.260002" /><path
               id="path42"
               style="fill:none;stroke:#231f20;stroke-width:0.40000001;stroke-linecap:butt;stroke-linejoin:round;stroke-miterlimit:10;stroke-dasharray:none;stroke-opacity:1"
               d="M 30.957001,5.8970003 V 114.52501" /><path
               id="path44"
               style="fill:#231f20;fill-opacity:1;fill-rule:nonzero;stroke:none"
               d="m 30.957001,114.52501 -2.247002,-1.36601 -0.051,0.077 1.455,3.666 c 0.282,1.276 0.563,2.554 0.842999,3.831 0.281,-1.277 0.562998,-2.555 0.844,-3.831 l 1.455999,-3.666 -0.038,-0.077 -2.262001,1.36601" /></g><g
             id="g46"><g
               clip-path="url(#clipPath52)"
               id="g48"><path
                 id="path54"
                 style="fill:none;stroke:#231f20;stroke-width:0.40000001;stroke-linecap:butt;stroke-linejoin:round;stroke-miterlimit:10;stroke-dasharray:none;stroke-opacity:1"
                 d="m 170.354,110.746 0.172,0.036 0.14002,0.034 h 0.17199 l 0.139,0.035 0.139,0.034 0.17398,0.034 0.13701,0.035 0.17401,0.036 0.13898,0.034 h 0.17302 l 0.13899,0.035 0.17301,0.034 0.14,0.035 0.173,0.034 0.13699,0.036 0.17401,0.034 h 0.139 l 0.138,0.034 0.17399,0.035 0.13901,0.035 0.172,0.034 0.13899,0.036 0.17401,0.034 h 0.13899 l 0.17301,0.034 0.13901,0.035 0.17298,0.035 0.138,0.034 0.17501,0.035 h 0.138 l 0.138,0.036 0.17399,0.034 0.139,0.034 0.173,0.035 0.13901,0.034 0.172,0.035 h 0.139 l 0.174,0.035 0.138,0.035 0.174,0.034 0.139,0.034 0.17199,0.035 h 0.13801 l 0.174,0.036 0.14,0.034 0.13798,0.034 0.17302,0.035 0.138,0.034 0.175,0.035 h 0.138 l 0.17299,0.036 0.13901,0.034 0.17398,0.034 0.13802,0.035 0.173,0.034 h 0.138 l 0.174,0.035 0.13901,0.035 0.13798,0.034 0.17401,0.035 0.13899,0.035 h 0.17402 l 0.13699,0.035 0.175,0.034 0.138,0.035 0.17299,0.035 0.138,0.034 h 0.17401 l 0.139,0.034 0.17399,0.036 0.13701,0.033 0.13899,0.036 0.17401,0.035 h 0.138 l 0.174,0.035 0.13899,0.034 0.17202,0.034 0.13999,0.035 0.17199,0.035 h 0.139 l 0.17402,0.034 0.13899,0.036 0.173,0.034 0.13899,0.034 h 0.17202 l 0.14,0.035 0.138,0.035 0.17299,0.035 0.139,0.034 0.17398,0.035 h 0.13701 l 0.17401,0.034 0.13898,0.035 0.17302,0.035 0.13899,0.035 h 0.17301 l 0.14,0.034 0.173,0.035 0.13699,0.034 m -30.64399,-5.926 0.17399,0.034 0.13701,0.034 0.173,0.035 0.14,0.034 0.17299,0.035 0.13901,0.035 H 156.14 l 0.138,0.035 0.14001,0.034 0.17199,0.035 0.139,0.035 0.174,0.034 0.13901,0.035 0.173,0.035 0.13899,0.034 0.172,0.035 0.14,0.035 h 0.17201 l 0.139,0.034 0.17399,0.035 0.13899,0.035 0.13701,0.034 0.17401,0.035 0.13898,0.034 0.17302,0.034 0.13899,0.036 0.17301,0.035 h 0.14 l 0.173,0.034 0.13699,0.035 0.17401,0.034 0.139,0.035 0.17399,0.035 0.138,0.034 0.13901,0.035 0.172,0.034 H 160.75 l 0.17401,0.035 0.13899,0.035 0.17301,0.036 0.13901,0.034 0.17298,0.034 0.138,0.035 0.17501,0.034 0.138,0.035 h 0.172 l 0.13999,0.034 0.17301,0.035 0.13899,0.035 0.13901,0.035 0.172,0.034 0.139,0.035 0.174,0.035 0.138,0.034 h 0.174 l 0.139,0.035 0.17199,0.034 0.13801,0.035 0.174,0.035 0.14,0.035 0.173,0.035 0.138,0.034 0.138,0.034 h 0.175 l 0.138,0.035 0.17299,0.036 0.13901,0.034 0.17299,0.034 0.13901,0.035 0.173,0.034 0.138,0.035 h 0.174 l 0.13899,0.035 0.173,0.035 0.278,0.068 0.174,0.036 0.13701,0.034 0.175,0.035 h 0.138 l 0.17299,0.035 0.138,0.034 0.17401,0.035 0.139,0.034 0.17399,0.035 0.13701,0.035 h 0.173 l 0.14,0.035 0.138,0.035 0.174,0.034 0.13899,0.034 0.17202,0.035 0.13999,0.035 0.17199,0.035 h 0.139 l 0.17402,0.034 0.13899,0.035 0.173,0.034 0.13899,0.035" /><path
                 id="path56"
                 style="fill:none;stroke:#231f20;stroke-width:0.40000001;stroke-linecap:butt;stroke-linejoin:round;stroke-miterlimit:10;stroke-dasharray:none;stroke-opacity:1"
                 d="m 139.70801,104.47201 0.173,0.034 0.13899,0.035 0.174,0.034 0.138,0.036 0.17201,0.035 0.14,0.034 h 0.174 l 0.13899,0.034 0.17201,0.035 0.138,0.034 0.139,0.036 0.17399,0.034 0.138,0.035 0.17401,0.034 0.139,0.034 0.17399,0.036 0.13701,0.035 0.17299,0.034 0.14001,0.035 0.17299,0.034 0.138,0.034 0.174,0.036 0.138,0.035 0.175,0.034 0.137,0.035 0.139,0.035 0.174,0.034 0.13901,0.035 0.173,0.035 0.13899,0.034 0.172,0.034 0.13901,0.035 h 0.173 l 0.139,0.035 0.17399,0.035 0.13899,0.035 0.17302,0.034 0.138,0.035 0.13898,0.034 0.17302,0.035 0.13899,0.035 0.17301,0.034 0.14,0.035 0.173,0.035 0.13699,0.035 0.17401,0.034 0.139,0.035 0.17399,0.034 0.138,0.035 0.17301,0.035 0.138,0.033 H 147.75 l 0.17401,0.035 0.13899,0.036 0.17301,0.035 0.13899,0.034 0.173,0.035 0.138,0.034 0.17501,0.034 0.138,0.036 0.172,0.035 0.13999,0.034 0.17301,0.034 0.13899,0.035 0.17301,0.035 0.138,0.035 0.139,0.034 h 0.174 l 0.138,0.035 0.174,0.034 0.139,0.035 0.17199,0.035 0.13801,0.035 0.174,0.035 0.14,0.034 0.173,0.034 0.138,0.035 0.174,0.034 0.139,0.036 0.13799,0.034 0.173,0.035 h 0.13901 l 0.17299,0.035 0.13901,0.034 0.173,0.034 0.138,0.036 0.174,0.034 0.13899,0.034 0.173,0.036 0.13901,0.034 0.174,0.034 0.13899,0.036 0.13701,0.035 h 0.173 l 0.14,0.034 0.17299,0.034 0.138,0.035 0.17401,0.034 0.139,0.035 M 124.42,100.97 l 0.13901,0.035 0.139,0.07 0.17299,0.035 0.138,0.034 0.17301,0.034 0.14,0.035 0.17299,0.035 0.138,0.035 0.17301,0.034 0.14,0.035 0.17299,0.034 0.138,0.035 0.173,0.035 0.13901,0.035 0.139,0.034 0.17299,0.034 0.139,0.036 0.17401,0.034 0.138,0.034 0.17299,0.036 0.139,0.034 0.17301,0.035 0.14,0.034 0.172,0.035 0.138,0.034 0.174,0.036 0.13899,0.069 0.138,0.034 0.17401,0.035 0.139,0.034 0.173,0.036 0.138,0.034 0.174,0.035 0.13899,0.034 0.173,0.034 0.138,0.036 0.174,0.035 0.13901,0.034 0.17399,0.035 0.137,0.034 0.173,0.034 0.14,0.035 0.13901,0.036 0.17199,0.034 0.14,0.035 0.172,0.035 0.14,0.034 0.17201,0.034 0.139,0.036 0.17399,0.034 0.13899,0.034 0.17302,0.035 0.139,0.035 0.17199,0.034 0.14,0.036 0.138,0.034 0.17301,0.035 0.139,0.034 0.174,0.035 0.13699,0.034 0.174,0.035 0.13901,0.035 0.17399,0.034 0.138,0.035 0.17301,0.035 0.13899,0.034 0.17401,0.035 0.138,0.035 0.13899,0.035 0.17301,0.034 0.13899,0.034 0.173,0.036 0.13901,0.034 0.174,0.035 0.138,0.035 0.172,0.034 0.13899,0.034 0.17401,0.035 0.13899,0.036 0.17301,0.034 0.138,0.034 0.17399,0.035 0.13901,0.034 0.138,0.035 0.174,0.035 0.139,0.035 0.17299,0.034 0.138,0.035 0.17301,0.035 0.14,0.034 0.173,0.036 0.138,0.034 0.17299,0.034 0.14,0.035 0.173,0.034 0.138,0.035 0.13901,0.035 0.17299,0.035 0.13901,0.035" /><path
                 id="path58"
                 style="fill:none;stroke:#231f20;stroke-width:0.40000001;stroke-linecap:butt;stroke-linejoin:round;stroke-miterlimit:10;stroke-dasharray:none;stroke-opacity:1"
                 d="m 109.09701,97.227005 0.139,0.034 0.17299,0.035 0.139,0.03399 0.17301,0.03501 0.14,0.035 0.138,0.035 0.172,0.069 0.13899,0.034 0.17401,0.035 0.139,0.035 0.173,0.035 0.138,0.034 0.17399,0.034 0.139,0.071 0.173,0.034 0.13901,0.035 0.17299,0.034 0.139,0.034 0.138,0.035 0.17301,0.036 0.139,0.034 0.17399,0.069 0.138,0.035 0.17301,0.034 0.14,0.035 0.17299,0.035 0.138,0.034 0.173,0.035 0.13901,0.035 0.17399,0.069 0.138,0.03499 0.139,0.03401 0.17401,0.035 0.138,0.035 0.17299,0.034 0.139,0.035 0.17301,0.035 0.14,0.069 0.172,0.034 0.138,0.035 0.17399,0.035 0.13899,0.035 0.17302,0.035 0.139,0.034 0.17299,0.034 0.139,0.035 0.138,0.036 0.17401,0.06801 0.139,0.035 0.17299,0.034 0.138,0.035 0.174,0.036 0.13901,0.034 0.17399,0.034 0.137,0.035 0.17301,0.034 0.14,0.03499 0.17299,0.06901 0.138,0.035 0.14,0.034 0.17201,0.036 0.139,0.034 0.173,0.035 0.139,0.035 0.174,0.034 0.13899,0.034 0.17301,0.035 0.138,0.034 0.17299,0.036 0.14001,0.07 0.172,0.034 0.139,0.034 0.139,0.03499 0.17399,0.035 0.137,0.034 0.17401,0.035 0.139,0.035 0.17399,0.034 0.138,0.035 0.17301,0.035 0.139,0.035 0.17399,0.034 0.137,0.035 0.17401,0.069 0.139,0.035 0.139,0.035 0.17299,0.034 0.139,0.035 0.17401,0.034 0.138,0.035 0.172,0.035 0.13899,0.035 0.17401,0.034 0.139,0.034 0.173,0.035 0.138,0.036 0.174,0.034 0.139,0.035 0.17299,0.034 m -30.646997,-7.938 0.139999,0.07 0.173004,0.034 0.139,0.034 0.172997,0.07 0.139,0.035 0.172996,0.034 0.139008,0.035 0.138,0.068 0.172989,0.037 0.139008,0.034 0.174003,0.034 0.138001,0.069 0.173996,0.035 0.138,0.035 0.174004,0.035 0.138,0.068 0.172997,0.036 0.139999,0.034 0.173004,0.07 0.136994,0.034 0.174003,0.034 0.139,0.035 0.138993,0.07 0.173004,0.035 0.139,0.035 0.174003,0.034 0.138001,0.034 0.172996,0.07 0.139,0.034 0.173004,0.035 0.14,0.035 0.171997,0.069 0.138992,0.035 0.174011,0.035 0.138001,0.034 0.137993,0.069 0.174003,0.03399 0.139,0.03701 0.173004,0.034 0.139,0.069 0.173993,0.034 0.138,0.034 0.173,0.036 0.13901,0.035 0.17399,0.068 0.138,0.036 0.17401,0.034 0.139,0.035 0.138,0.069 0.17299,0.034 0.139,0.035 0.173,0.035 0.14001,0.035 0.172,0.06901 0.138,0.035 0.17399,0.034 0.13899,0.034 0.17302,0.036 0.139,0.069 0.17299,0.035 0.139,0.034 0.17301,0.035 0.139,0.035 0.139,0.069 0.17299,0.034 0.138,0.035 0.174,0.034 0.13901,0.036 0.17399,0.035 0.137,0.069 0.17301,0.034 0.139,0.035 0.17399,0.034 0.138,0.035 0.17401,0.07 0.138,0.034 0.139,0.035 0.173,0.035 0.139,0.034 0.174,0.035 0.13899,0.069 0.17201,0.035 0.14,0.035 0.17199,0.035 0.14,0.034 0.17201,0.034 0.139,0.07 0.17399,0.035 0.139,0.034 0.137,0.035 0.17401,0.034 0.139,0.035 0.17399,0.07 0.138,0.034 0.17301,0.034 0.139,0.035 0.17399,0.035 0.137,0.035 0.17401,0.069" /><path
                 id="path60"
                 style="fill:none;stroke:#231f20;stroke-width:0.40000001;stroke-linecap:butt;stroke-linejoin:round;stroke-miterlimit:10;stroke-dasharray:none;stroke-opacity:1"
                 d="m 78.452003,88.317001 0.137993,0.069 0.173004,0.035 0.138001,0.07 0.174004,0.034 0.139,0.07 0.173995,0.034 0.137002,0.07 0.174003,0.034 0.139,0.069 0.173996,0.035 0.138001,0.07 0.138999,0.035 0.173005,0.034 0.139,0.069 0.171997,0.034 0.139999,0.071 0.173004,0.034 0.139,0.069 0.171997,0.035 0.14,0.035 0.172996,0.069 0.139008,0.034 0.171997,0.07 0.138992,0.035 0.139008,0.06899 0.174003,0.035 0.138001,0.034 0.173996,0.07 0.138,0.034 0.174004,0.07 0.137993,0.03401 0.173004,0.07 0.139999,0.034 0.172997,0.035 0.137001,0.069 0.174003,0.034 0.139,0.07099 0.173996,0.03401 0.138001,0.034 0.139,0.069 0.174003,0.036 0.138001,0.034 0.172996,0.069 0.139,0.035 0.173004,0.07 0.139,0.034 0.172997,0.035 0.138992,0.06901 0.174011,0.035 0.138001,0.035 0.172996,0.069 0.139,0.034 0.139,0.069 0.173004,0.035 0.139,0.035 0.171997,0.07 0.14,0.034 0.172996,0.034 0.138001,0.07 0.174003,0.034 0.139,0.035 0.174004,0.069 0.137993,0.036 0.172004,0.035 0.14,0.068 0.139,0.035 0.171997,0.034 0.139999,0.07 0.173004,0.034 0.138001,0.035 0.172989,0.069 0.139007,0.036 0.174004,0.034 0.139,0.069 0.171997,0.034 0.139,0.036 0.174004,0.069 0.138999,0.035 0.171998,0.034 0.138999,0.07001 0.139,0.035 0.173996,0.034 0.138009,0.07 0.173995,0.034 0.137993,0.035 0.173012,0.069 0.137993,0.034 0.174004,0.035 0.139,0.035 0.174003,0.069 0.136994,0.035 0.174003,0.035 0.139,0.068 0.139,0.036 0.172997,0.034 0.138999,0.07 0.173005,0.03401 0.139,0.035 0.171997,0.035 m -30.644001,-10.262008 0.173,0.06901 0.137997,0.07 0.139003,0.036 0.173001,0.06799 0.139999,0.069 0.172001,0.07 0.139,0.069 0.174004,0.035 0.137992,0.069 0.173005,0.07 0.138999,0.068 0.172997,0.036 0.139999,0.069 0.173005,0.069 0.138999,0.069 0.137993,0.036 0.173004,0.069 0.138001,0.068 0.174004,0.035 0.139,0.07 0.173995,0.069 0.137002,0.069 0.174003,0.035 0.139,0.07 0.173996,0.069 0.138001,0.034 0.173004,0.07 0.139,0.069 0.139,0.035 0.171997,0.069 0.139999,0.07 0.173004,0.034 0.139,0.069 0.171997,0.07 0.14,0.035 0.172996,0.068 0.139008,0.07099 0.171997,0.034 0.138992,0.069 0.174004,0.069 0.139,0.035 0.173004,0.069 0.139,0.07 0.138,0.03399 0.173996,0.07 0.138001,0.03401 0.173004,0.07 0.139999,0.069 0.172997,0.03599 0.137001,0.068 0.174003,0.069 0.139,0.035 0.173996,0.07 0.138001,0.034 0.173004,0.069 0.139,0.07 0.139,0.034 0.172996,0.069 0.139,0.035 0.173004,0.07 0.139,0.035 0.173996,0.068 0.137993,0.071 0.174011,0.033 0.138001,0.07 0.171997,0.035 0.139999,0.07 0.172997,0.034 0.139,0.069 0.139007,0.069 0.171997,0.035 0.139,0.07 0.173996,0.034 0.138001,0.069 0.174003,0.035 0.139,0.07 0.173996,0.034 0.138001,0.069 0.172004,0.035 0.14,0.069 0.172996,0.035 0.138001,0.06899 0.139,0.07 0.174003,0.03501 0.138001,0.06799 0.173996,0.035 0.138,0.07 0.174004,0.035 0.139,0.069 0.171997,0.035 0.139,0.069 0.174004,0.034 0.138,0.069 0.172997,0.036 0.138999,0.069 0.172997,0.034 0.139999,0.035 0.138009,0.07 0.173995,0.034" /><path
                 id="path62"
                 style="fill:none;stroke:#231f20;stroke-width:0.40000001;stroke-linecap:butt;stroke-linejoin:round;stroke-miterlimit:10;stroke-dasharray:none;stroke-opacity:1"
                 d="m 47.806004,75.629005 0.173,0.103997 0.137997,0.069 0.174003,0.069 0.138996,0.105004 0.138001,0.069 0.174,0.103996 0.139,0.069 0.173,0.105004 0.138,0.069 0.173001,0.06799 0.139999,0.105003 0.173,0.07 0.139,0.068 0.172997,0.105003 0.139004,0.069 0.173,0.07 0.137997,0.102989 0.173004,0.06901 0.139,0.07099 0.139,0.103012 0.173,0.07 0.139,0.069 0.174,0.069 0.138,0.103996 0.173001,0.069 0.138999,0.07 0.172997,0.069 0.139999,0.104003 0.173005,0.06899 0.136993,0.07001 0.174007,0.06899 0.139,0.07001 0.137997,0.06799 0.174,0.104004 0.139,0.071 0.174003,0.068 0.136998,0.069 0.173999,0.071 0.139,0.068 0.174,0.069 0.137997,0.104995 0.173004,0.068 0.139,0.071 0.174,0.069 0.137001,0.068 0.139,0.071 0.173999,0.069 0.139,0.069 0.172001,0.07 0.14,0.068 0.172996,0.07 0.139004,0.07 0.172001,0.069 0.138996,0.069 0.174003,0.104004 0.139,0.07 0.173001,0.069 0.139,0.069 0.172001,0.06899 0.139999,0.07 0.138,0.06901 0.172997,0.035 0.140003,0.068 0.173,0.071 0.136998,0.069 0.173999,0.069 0.139,0.07 0.174,0.068 0.138001,0.07 0.173,0.07 0.139,0.068 0.174,0.07 0.138,0.07 0.139,0.069 0.173001,0.069 0.138999,0.069 0.173001,0.07 0.138996,0.034 0.174004,0.07 0.138,0.069 0.172001,0.069 0.139,0.071 0.174,0.068 0.139,0.069 0.173,0.07 0.138,0.035 0.139,0.069 0.173996,0.069 0.138005,0.07 0.173999,0.069 0.139,0.069 0.173001,0.035 0.139,0.06901 0.171997,0.06899 0.139999,0.07001 0.173,0.07 0.139,0.06799 0.172997,0.035 0.139004,0.06899 m -30.646,-20.174996 0.173,0.276001 0.139,0.244 0.174,0.277 0.138,0.243 0.172997,0.208 0.139004,0.242005 0.173,0.207992 0.139,0.208 0.138996,0.208001 0.174004,0.208 0.138,0.208 0.171997,0.207001 0.139,0.174003 0.174,0.172997 0.139,0.208999 0.173,0.173005 0.138001,0.173996 0.173999,0.173004 0.139,0.172996 0.174,0.139 0.277001,0.346001 0.173,0.139 0.138,0.173004 0.173001,0.139 0.139999,0.139 0.173,0.172996 0.139,0.138001 0.172997,0.139999 0.139004,0.138001 0.173,0.139 0.137997,0.139 0.173004,0.136993 0.139,0.140007 0.174,0.139 0.277,0.277 0.174,0.103997 0.138,0.138 0.173001,0.14 0.138999,0.103004 L 39,69.839005 l 0.139999,0.139999 0.173005,0.102997 0.136997,0.139 0.174,0.104004 0.138999,0.138 0.174,0.104996 0.138001,0.103004 0.139,0.138993 0.173999,0.104003 0.137002,0.104004 0.173999,0.14 0.139,0.102997 0.173001,0.104003 0.138996,0.104996 0.173004,0.103005 0.139,0.138 0.174,0.104996 0.137001,0.103004 0.173999,0.104996 0.139,0.104004 0.139,0.103996 0.172001,0.104004 0.14,0.103989 0.172996,0.104011 0.139004,0.104996 0.172001,0.103005 0.138996,0.103996 0.174003,0.103004 0.139,0.104996 0.173001,0.069 0.139,0.105004 0.171997,0.102996 0.140003,0.105004 0.172996,0.102997 0.138001,0.105003 0.139999,0.06799 0.173001,0.103005 0.137001,0.105995 0.173999,0.103004 0.139,0.07 0.174,0.102997 0.138001,0.105003 0.173,0.069 0.139,0.104996 0.174,0.103005 0.138,0.069 0.172997,0.104995 0.139004,0.069 0.138999,0.104004 0.173001,0.069 0.138996,0.104996 0.174004,0.103004 0.138,0.07 0.172001,0.102997 0.139,0.07 0.174,0.103005 0.139,0.07" /><path
                 id="path64"
                 style="fill:none;stroke:#231f20;stroke-width:0.40000001;stroke-linecap:butt;stroke-linejoin:round;stroke-miterlimit:10;stroke-dasharray:none;stroke-opacity:1"
                 d="m 17.16,56.909004 h 13.797001 l 0.140001,1.801998 0.172997,0.728997 0.138002,0.59 0.174,0.449005 0.139,0.452 0.137001,0.381 0.173999,0.346001 0.139,0.311992 0.174,0.313008 0.138001,0.311996 M 15.462001,56.909004 H 17.16 m 153.194,-53.8380039 0.172,-0.034 0.14002,-0.035 h 0.17199 l 0.278,-0.07 0.17398,-0.034 0.13701,-0.035 0.17401,-0.034 0.13898,-0.035 h 0.17302 l 0.13899,-0.035 0.17301,-0.035 0.14,-0.035 0.173,-0.034 0.13699,-0.034 0.17401,-0.035 h 0.139 l 0.138,-0.035 0.17399,-0.035 0.13901,-0.034 0.172,-0.036 0.13899,-0.034 0.17401,-0.034 h 0.13899 l 0.17301,-0.034 0.13901,-0.036 0.17298,-0.034 0.138,-0.034 0.17501,-0.035 h 0.138 l 0.138,-0.035 0.17399,-0.034 0.139,-0.036 0.173,-0.035 0.13901,-0.034 0.172,-0.034 h 0.139 l 0.174,-0.035 0.138,-0.034 0.174,-0.036 0.139,-0.035 0.17199,-0.034 h 0.13801 l 0.174,-0.035 0.14,-0.034 0.13798,-0.034 0.17302,-0.036 0.138,-0.034 0.175,-0.035 h 0.138 l 0.17299,-0.034 0.13901,-0.034 0.17398,-0.036 0.13802,-0.035 0.173,-0.034 h 0.138 l 0.174,-0.035 0.13901,-0.034 0.13798,-0.034 0.17401,-0.035 0.13899,-0.036 h 0.17402 l 0.13699,-0.034 0.175,-0.035 0.138,-0.035 0.17299,-0.034 0.138,-0.034 h 0.17401 l 0.139,-0.036 0.17399,-0.034 0.13701,-0.0349999 0.13899,-0.035 0.17401,-0.034 h 0.138 l 0.174,-0.035 0.13899,-0.034 0.17202,-0.035 0.13999,-0.035 0.17199,-0.034 h 0.139 l 0.17402,-0.034 0.13899,-0.036 0.173,-0.034 0.13899,-0.035 h 0.17202 l 0.14,-0.035 0.138,-0.034 0.17299,-0.035 0.139,-0.035 0.17398,-0.034 h 0.13701 l 0.17401,-0.035 0.13898,-0.035 0.17302,-0.034 0.13899,-0.035 h 0.17301 l 0.14,-0.036 0.173,-0.034 0.13699,-0.034 m -30.64399,5.9280002 0.17399,-0.035 0.13701,-0.035 0.173,-0.035 0.14,-0.034 0.17299,-0.035 0.13901,-0.034 H 156.14 l 0.138,-0.034001 0.14001,-0.035999 0.17199,-0.035 0.139,-0.034 0.174,-0.035 0.13901,-0.033999 0.173,-0.035 0.13899,-0.034 0.172,-0.035 0.14,-0.035 h 0.17201 l 0.139,-0.034 0.17399,-0.035 0.13899,-0.035 0.13701,-0.034 0.17401,-0.036 0.13898,-0.034 0.17302,-0.034 0.13899,-0.035 0.17301,-0.035 h 0.14 l 0.173,-0.035 0.13699,-0.034999 0.17401,-0.035 0.139,-0.034 0.17399,-0.034 0.138,-0.034 0.13901,-0.036 0.172,-0.034 H 160.75 l 0.17401,-0.034 0.13899,-0.036 0.17301,-0.034 0.13901,-0.034 0.17298,-0.035999 0.138,-0.035 0.17501,-0.034 0.138,-0.034 h 0.172 l 0.13999,-0.035 0.17301,-0.034 0.13899,-0.036 0.13901,-0.035 0.172,-0.034 0.139,-0.034 0.174,-0.035 0.138,-0.034 h 0.174 l 0.139,-0.036 0.17199,-0.035 0.13801,-0.034 0.174,-0.034 0.14,-0.034 0.173,-0.036 0.138,-0.035 0.138,-0.033999 h 0.175 l 0.138,-0.035 0.17299,-0.034 0.13901,-0.034 0.17299,-0.035 0.13901,-0.036 0.173,-0.034 0.138,-0.035 h 0.174 l 0.13899,-0.035 0.173,-0.034 0.13901,-0.034 0.13899,-0.036 0.174,-0.034 0.13701,-0.034 0.175,-0.036 h 0.138 l 0.17299,-0.034 0.138,-0.034 0.17401,-0.036 0.139,-0.034 0.17399,-0.035 0.13701,-0.034 h 0.173 l 0.14,-0.034 0.138,-0.035 0.174,-0.035 0.13899,-0.035 0.17202,-0.035 0.13999,-0.034 0.17199,-0.035 h 0.139 l 0.17402,-0.034 0.13899,-0.035 0.173,-0.035 0.13899,-0.035" /><path
                 id="path66"
                 style="fill:none;stroke:#231f20;stroke-width:0.40000001;stroke-linecap:butt;stroke-linejoin:round;stroke-miterlimit:10;stroke-dasharray:none;stroke-opacity:1"
                 d="m 139.70801,9.3460007 0.173,-0.035 L 140.02,9.276 l 0.174,-0.033999 0.138,-0.035 0.17201,-0.034 0.14,-0.035 h 0.174 l 0.13899,-0.036 0.17201,-0.033999 0.138,-0.034 0.139,-0.035 0.17399,-0.034 0.138,-0.035001 0.17401,-0.034999 0.139,-0.035001 0.17399,-0.034 0.13701,-0.035 0.17299,-0.035 0.14001,-0.035 0.17299,-0.034 0.138,-0.035 0.174,-0.034 0.138,-0.033999 0.175,-0.036 0.137,-0.035 0.139,-0.034 0.174,-0.034 0.13901,-0.035001 0.173,-0.035 0.13899,-0.033999 0.172,-0.036 0.13901,-0.033999 h 0.173 l 0.139,-0.034 0.17399,-0.035 0.13899,-0.035 0.17302,-0.034 0.138,-0.036 0.13898,-0.033999 0.17302,-0.034 0.13899,-0.035 0.17301,-0.035 0.14,-0.034 0.173,-0.035 0.13699,-0.035999 0.17401,-0.034001 0.139,-0.033999 0.17399,-0.035 0.138,-0.034 0.17301,-0.035 0.138,-0.034 H 147.75 l 0.17401,-0.035 0.13899,-0.035 0.17301,-0.034 0.13899,-0.035 0.173,-0.036 0.138,-0.034 0.17501,-0.034 0.138,-0.035 0.172,-0.034 0.13999,-0.035 0.17301,-0.036 0.13899,-0.034 0.17301,-0.034 0.138,-0.035 0.139,-0.034 h 0.174 l 0.138,-0.035 0.174,-0.036 0.139,-0.034 0.17199,-0.034 0.13801,-0.034 0.174,-0.036 0.14,-0.034 0.173,-0.035 0.138,-0.034999 0.174,-0.034 0.139,-0.034 0.13799,-0.035 0.173,-0.035 h 0.13901 l 0.17299,-0.035 0.13901,-0.035 0.173,-0.035 0.138,-0.034 0.174,-0.034 0.13899,-0.035 0.173,-0.035 0.13901,-0.034 0.174,-0.036 0.13899,-0.034 0.13701,-0.033999 h 0.173 l 0.14,-0.035 0.17299,-0.035 0.138,-0.035 0.17401,-0.034 0.139,-0.034 m -30.61101,6.722994 0.13901,-0.034 0.139,-0.07 0.17299,-0.034 0.138,-0.034 0.17301,-0.035 0.14,-0.035 0.17299,-0.034 0.138,-0.034 0.17301,-0.035 0.14,-0.035 0.17299,-0.035 0.138,-0.035 0.173,-0.035 0.13901,-0.034 0.139,-0.034 0.17299,-0.035 0.139,-0.035 0.17401,-0.035 0.138,-0.035 0.17299,-0.034 0.139,-0.034 0.17301,-0.035 0.14,-0.035 0.172,-0.035 0.138,-0.035 0.174,-0.034 0.13899,-0.068 0.138,-0.036 0.17401,-0.035 0.139,-0.034 0.173,-0.035 0.138,-0.034 0.174,-0.034 0.13899,-0.036 0.173,-0.035 0.138,-0.034 0.174,-0.035 0.13901,-0.035 0.17399,-0.034 0.137,-0.035 0.173,-0.035 0.14,-0.034 0.13901,-0.034 0.17199,-0.036 0.14,-0.034 0.172,-0.035 0.14,-0.035 0.17201,-0.034 0.139,-0.035 0.17399,-0.034 0.13899,-0.034 0.17302,-0.036 0.139,-0.034 0.17199,-0.035 0.14,-0.035 0.138,-0.034 0.17301,-0.035 0.139,-0.035 0.174,-0.034 0.13699,-0.035 0.174,-0.035 0.13901,-0.034 0.17399,-0.034 0.138,-0.037 0.17301,-0.034 0.13899,-0.034 0.17401,-0.035 0.138,-0.034 0.13899,-0.034 0.17301,-0.035 0.13899,-0.035 0.173,-0.035 0.13901,-0.034 0.174,-0.035 0.138,-0.035 0.172,-0.035 0.13899,-0.034 0.17401,-0.035 0.13899,-0.034 0.17301,-0.035 0.138,-0.035001 0.17399,-0.034999 0.13901,-0.035 0.138,-0.034 0.174,-0.034 0.139,-0.035 0.17299,-0.035001 0.138,-0.035 0.17301,-0.033999 0.14,-0.034 0.173,-0.036 0.138,-0.033999 0.17299,-0.035 0.14,-0.035001 0.173,-0.034 0.138,-0.034 0.13901,-0.035 0.17299,-0.035 0.13901,-0.035" /><path
                 id="path68"
                 style="fill:none;stroke:#231f20;stroke-width:0.40000001;stroke-linecap:butt;stroke-linejoin:round;stroke-miterlimit:10;stroke-dasharray:none;stroke-opacity:1"
                 d="m 109.09701,16.591002 0.139,-0.035 0.17299,-0.034 0.139,-0.035 0.17301,-0.035 0.14,-0.034 0.138,-0.035 0.172,-0.07 0.13899,-0.034 0.17401,-0.034 0.139,-0.035 0.173,-0.034 0.138,-0.035 0.17399,-0.036 0.139,-0.068 0.173,-0.035 0.13901,-0.035 0.17299,-0.035 0.139,-0.034 0.138,-0.035 0.17301,-0.034 0.139,-0.035 0.17399,-0.07 0.138,-0.035 0.17301,-0.034 0.14,-0.034 0.17299,-0.035 0.138,-0.035 0.173,-0.035 0.13901,-0.034 0.17399,-0.07 0.138,-0.034 0.139,-0.034 0.17401,-0.036 0.138,-0.034 0.17299,-0.034 0.139,-0.035 0.17301,-0.035 0.14,-0.07 0.172,-0.035 0.138,-0.034 0.17399,-0.034 0.13899,-0.035 0.17302,-0.034 0.139,-0.036 0.17299,-0.035 0.139,-0.034 0.138,-0.035 0.17401,-0.068 0.139,-0.036 0.17299,-0.034 0.138,-0.035 0.174,-0.034 0.13901,-0.034 0.17399,-0.036 0.137,-0.035 0.17301,-0.034 0.14,-0.035 0.17299,-0.068 0.138,-0.035 0.14,-0.036 0.17201,-0.034 0.139,-0.035 0.173,-0.035 0.139,-0.034 0.174,-0.034 0.13899,-0.036 0.17301,-0.034 0.138,-0.034 0.17299,-0.036 0.14001,-0.069 0.172,-0.034 0.278,-0.07 0.17399,-0.034 0.137,-0.034 0.17401,-0.036 0.139,-0.034 0.17399,-0.035 0.138,-0.035 0.17301,-0.034 0.139,-0.035 0.17399,-0.035 0.137,-0.034 0.17401,-0.07 0.278,-0.068 0.17299,-0.037 0.139,-0.034 0.17401,-0.034 0.138,-0.035 0.172,-0.034 0.13899,-0.034 0.17401,-0.035 0.139,-0.035 0.173,-0.035 0.138,-0.034 0.174,-0.035 0.139,-0.035 0.17299,-0.035 m -30.646997,7.939 0.139999,-0.069 0.173004,-0.035 0.139,-0.036 0.172997,-0.068 0.139,-0.035 0.172996,-0.034 0.139008,-0.036 0.138,-0.068 0.172989,-0.035 0.139008,-0.034 0.174003,-0.035 0.138001,-0.07 0.173996,-0.035 0.138,-0.034 0.174004,-0.034 0.138,-0.071 0.172997,-0.034 0.139999,-0.035 0.173004,-0.069 0.136994,-0.034 0.174003,-0.036 0.139,-0.034 0.138993,-0.07 0.173004,-0.034 0.139,-0.034 0.174003,-0.035 0.138001,-0.035 0.172996,-0.069 0.139,-0.035 0.173004,-0.034 0.14,-0.035 0.171997,-0.07 0.138992,-0.034 0.174011,-0.035 0.138001,-0.034 0.137993,-0.07 0.174003,-0.035 0.139,-0.034 0.173004,-0.034 0.139,-0.071 0.173993,-0.034 0.138,-0.035 0.173,-0.034 0.13901,-0.034 0.17399,-0.07 0.138,-0.035 0.17401,-0.034 0.139,-0.035 0.138,-0.069 0.17299,-0.035 0.139,-0.035 0.173,-0.034 0.14001,-0.035 0.172,-0.069 0.138,-0.036 0.17399,-0.034 0.13899,-0.034 0.17302,-0.035 0.139,-0.07 0.17299,-0.034 0.139,-0.036 0.17301,-0.034 0.139,-0.034 0.139,-0.07 0.17299,-0.034 0.138,-0.034 0.174,-0.035 0.13901,-0.035 0.17399,-0.034 0.137,-0.071 0.17301,-0.034 0.139,-0.034 0.17399,-0.035 0.138,-0.034 0.17401,-0.071 0.138,-0.034 0.139,-0.034 0.173,-0.035 0.139,-0.034 0.174,-0.036 0.13899,-0.069 0.17201,-0.034 0.14,-0.034 0.17199,-0.035 0.14,-0.036 0.17201,-0.034 0.139,-0.069 0.17399,-0.034 0.139,-0.035 0.137,-0.036 0.17401,-0.034 0.139,-0.035 0.17399,-0.069 0.138,-0.034 0.17301,-0.036 0.139,-0.034 0.17399,-0.034 0.137,-0.036 0.17401,-0.068" /><path
                 id="path70"
                 style="fill:none;stroke:#231f20;stroke-width:0.40000001;stroke-linecap:butt;stroke-linejoin:round;stroke-miterlimit:10;stroke-dasharray:none;stroke-opacity:1"
                 d="m 78.452003,25.501001 0.137993,-0.07 0.173004,-0.035 0.138001,-0.069 0.174004,-0.034 0.139,-0.07 0.173995,-0.035 0.137002,-0.069 0.174003,-0.034 0.139,-0.07 0.173996,-0.035 0.138001,-0.069 0.138999,-0.034 0.173005,-0.034 0.139,-0.071 0.171997,-0.034 0.139999,-0.069 0.173004,-0.034 0.139,-0.071 0.171997,-0.034 0.14,-0.035 0.172996,-0.069 0.139008,-0.035 0.171997,-0.069 0.138992,-0.034 0.139008,-0.07 0.174003,-0.035 0.138001,-0.035 0.173996,-0.069 0.138,-0.034 0.174004,-0.07 0.137993,-0.034 0.173004,-0.07 0.139999,-0.034 0.172997,-0.035 0.137001,-0.069 0.174003,-0.035 0.139,-0.069 0.173996,-0.035 0.138001,-0.036 0.139,-0.068 0.174003,-0.035 0.138001,-0.034 0.172996,-0.071 0.139,-0.034 0.173004,-0.068 0.139,-0.035 0.172997,-0.035 0.138992,-0.07 0.174011,-0.034 0.138001,-0.034 0.172996,-0.07 0.139,-0.035 0.139,-0.069 0.173004,-0.034 0.139,-0.035 0.171997,-0.07 0.14,-0.035 0.172996,-0.035 0.138001,-0.068 0.174003,-0.035 0.139,-0.035 0.174004,-0.068 0.137993,-0.036 0.172004,-0.034 0.14,-0.07 0.139,-0.035 0.171997,-0.034 0.139999,-0.069 0.173004,-0.035 0.138001,-0.035 0.172989,-0.069 0.139007,-0.035 0.174004,-0.034 0.139,-0.07 0.171997,-0.035 0.139,-0.034 0.174004,-0.07 0.138999,-0.035 0.171998,-0.034 0.138999,-0.069 0.139,-0.034 0.173996,-0.034 0.138009,-0.071 0.173995,-0.034 0.137993,-0.035 0.173012,-0.069 0.137993,-0.035 0.174004,-0.035 0.139,-0.034 0.174003,-0.07 0.136994,-0.034 0.174003,-0.036 0.139,-0.068 0.139,-0.035 0.172997,-0.035 0.138999,-0.069 0.173005,-0.034 0.139,-0.036 0.171997,-0.034 m -30.644001,10.261 0.173,-0.068 0.137997,-0.071 0.139003,-0.034 0.173001,-0.069 0.139999,-0.069 0.172001,-0.07 0.139,-0.069 0.174004,-0.035 0.137992,-0.07 0.173005,-0.068 0.138999,-0.07 L 65,30.32 l 0.139999,-0.071 0.173005,-0.068 0.138999,-0.069 0.137993,-0.035 0.173004,-0.07 0.138001,-0.068 0.174004,-0.035 0.139,-0.07 0.173995,-0.069 0.137002,-0.069 0.174003,-0.036 0.139,-0.069 0.173996,-0.068 0.138001,-0.035 0.173004,-0.07 0.139,-0.07 0.139,-0.034 0.171997,-0.069 0.139999,-0.069 0.173004,-0.034 0.139,-0.07 0.171997,-0.07 0.14,-0.035 0.172996,-0.068 0.139008,-0.07 0.171997,-0.035 0.138992,-0.069 0.174004,-0.069 0.139,-0.035 0.173004,-0.07 0.139,-0.068 0.138,-0.034 0.173996,-0.071 0.138001,-0.034 0.173004,-0.069 0.139999,-0.07 0.172997,-0.035 0.137001,-0.069 0.174003,-0.069 0.139,-0.035 0.173996,-0.069 0.138001,-0.035 0.173004,-0.069 0.139,-0.07 0.139,-0.034 0.172996,-0.07 0.139,-0.034 0.173004,-0.071 0.139,-0.034 0.173996,-0.068 0.137993,-0.07 0.174011,-0.034 0.138001,-0.07 0.171997,-0.034 0.139999,-0.071 0.172997,-0.034 0.139,-0.069 0.139007,-0.069 0.171997,-0.036 0.139,-0.068 0.173996,-0.035 0.138001,-0.07 0.174003,-0.035 0.139,-0.068 0.173996,-0.034 0.138001,-0.071 0.172004,-0.034 0.14,-0.069 0.172996,-0.034 0.138001,-0.071 0.139,-0.069 0.174003,-0.035 0.138001,-0.068 0.173996,-0.036 0.138,-0.069 0.174004,-0.035 0.139,-0.069 0.171997,-0.035 0.139,-0.069 0.174004,-0.034 0.138,-0.07 0.172997,-0.034 0.138999,-0.07 L 78,25.639 l 0.139999,-0.035 0.138009,-0.068 0.173995,-0.035" /><path
                 id="path72"
                 style="fill:none;stroke:#231f20;stroke-width:0.40000001;stroke-linecap:butt;stroke-linejoin:round;stroke-miterlimit:10;stroke-dasharray:none;stroke-opacity:1"
                 d="m 47.806004,38.189999 0.173,-0.104996 0.137997,-0.069 0.174003,-0.069 0.138996,-0.104 0.138001,-0.07 0.174,-0.104 0.139,-0.069 0.173,-0.104999 0.138,-0.069 0.173001,-0.069 0.139999,-0.104 0.173,-0.069 0.139,-0.069 0.172997,-0.105004 0.139004,-0.068 0.173,-0.071 0.137997,-0.103 0.173004,-0.069 0.139,-0.07 0.139,-0.104 0.173,-0.069 0.139,-0.07 0.174,-0.069 0.138,-0.104 0.173001,-0.07 0.138999,-0.068 L 52,36.005 l 0.139999,-0.104 0.173005,-0.069 0.136993,-0.069 0.174007,-0.07 0.139,-0.07 0.137997,-0.069 0.174,-0.104 0.139,-0.069 0.174003,-0.069 0.136998,-0.07 0.173999,-0.069 0.139,-0.07 0.174,-0.069 0.137997,-0.103 0.173004,-0.07 0.139,-0.07 0.174,-0.069 0.137001,-0.069 0.139,-0.07 0.173999,-0.069 0.139,-0.068 0.172001,-0.071 0.14,-0.069 0.172996,-0.068 0.139004,-0.071 0.172001,-0.069 0.138996,-0.068 0.174003,-0.104996 0.139,-0.069 0.173001,-0.07 0.139,-0.069 0.172001,-0.07 0.139999,-0.069 0.138,-0.069 0.172997,-0.035 0.140003,-0.068 0.173,-0.07 0.136998,-0.07 0.173999,-0.069 0.139,-0.069 0.174,-0.07 0.138001,-0.069 0.173,-0.07 0.139,-0.069 0.174,-0.069 0.138,-0.07 0.139,-0.068 0.173001,-0.07 0.138999,-0.07 0.173001,-0.068 0.138996,-0.035 0.174004,-0.07 0.138,-0.069 0.172001,-0.069 0.139,-0.07 0.174,-0.07 0.139,-0.068 0.173,-0.07 0.138,-0.035 0.139,-0.069 0.173996,-0.069 0.138005,-0.07 0.173999,-0.068 0.139,-0.07 0.173001,-0.035 0.139,-0.069 0.171997,-0.069 0.139999,-0.07 0.173,-0.069 0.139,-0.07 0.172997,-0.034 0.139004,-0.07 m -30.646,20.177002 0.173,-0.277001 0.139,-0.243999 0.174,-0.277 0.138,-0.242001 0.172997,-0.208 0.139004,-0.243 0.173,-0.208 0.139,-0.208001 0.138996,-0.207 0.174004,-0.209 0.138,-0.208 0.171997,-0.206997 0.139,-0.174 0.174,-0.173 0.139,-0.208 0.173,-0.175003 0.138001,-0.171998 L 35.291,47.41 l 0.139,-0.171997 0.174,-0.14 0.138001,-0.173 0.139,-0.173 0.173,-0.139 0.138,-0.173004 0.173001,-0.138996 0.139999,-0.139 0.173,-0.172005 0.139,-0.14 0.172997,-0.138996 0.139004,-0.138 0.173,-0.138001 0.137997,-0.139999 0.173004,-0.138001 0.139,-0.138999 0.174,-0.139 0.138,-0.137001 0.139,-0.139 0.174,-0.105 0.138,-0.138 0.173001,-0.139 0.138999,-0.104 L 39,43.979004 l 0.139999,-0.140003 0.173005,-0.102997 0.136997,-0.139 0.174,-0.105003 0.138999,-0.137997 0.174,-0.105003 0.138001,-0.101998 0.139,-0.139999 0.173999,-0.103001 0.137002,-0.104004 0.173999,-0.139999 0.139,-0.102997 0.173001,-0.105 0.138996,-0.103 0.173004,-0.104 0.139,-0.139 0.174,-0.104 0.137001,-0.103001 0.173999,-0.104999 0.139,-0.103001 0.139,-0.105 0.172001,-0.103 0.14,-0.105 0.172996,-0.103 0.139004,-0.105004 0.172001,-0.103996 0.138996,-0.103001 0.174003,-0.104999 0.139,-0.104 0.173001,-0.069 0.139,-0.104 0.171997,-0.104 0.140003,-0.104 0.172996,-0.104 0.138001,-0.105 0.139999,-0.068 0.173001,-0.104 0.137001,-0.104001 0.173999,-0.104999 0.139,-0.069 0.174,-0.104 0.138001,-0.104 0.173,-0.068 0.139,-0.106003 0.174,-0.103001 0.138,-0.07 0.172997,-0.102996 0.139004,-0.07 0.138999,-0.104 0.173001,-0.069 0.138996,-0.104001 0.174004,-0.104 0.138,-0.069 0.172001,-0.104 0.139,-0.069 0.174,-0.105 0.139,-0.068" /><path
                 id="path74"
                 style="fill:none;stroke:#231f20;stroke-width:0.40000001;stroke-linecap:butt;stroke-linejoin:round;stroke-miterlimit:10;stroke-dasharray:none;stroke-opacity:1"
                 d="m 17.16,56.909004 h 13.797001 l 0.140001,-1.802002 0.172997,-0.729 0.138002,-0.589001 0.174,-0.45 0.139,-0.450997 0.137001,-0.382 0.173999,-0.347 0.139,-0.311001 0.174,-0.312 0.138001,-0.312 M 15.462001,56.909004 H 17.16 m 153.194,43.957996 0.172,0.034 h 0.14002 l 0.17199,0.035 0.139,0.034 h 0.139 l 0.17398,0.035 0.13701,0.034 0.17401,0.036 h 0.13898 l 0.17302,0.035 0.13899,0.034 h 0.17301 l 0.14,0.034 0.173,0.035 h 0.13699 l 0.17401,0.035 0.139,0.035 0.138,0.034 H 173.3 l 0.13901,0.035 0.172,0.034 H 173.75 l 0.17401,0.035 0.13899,0.035 h 0.17301 l 0.13901,0.035 0.17298,0.034 h 0.138 l 0.17501,0.034 0.138,0.036 0.138,0.034 h 0.17399 l 0.139,0.034 0.173,0.036 h 0.13901 l 0.172,0.034 0.139,0.035 h 0.174 l 0.138,0.034 0.174,0.035 h 0.139 l 0.17199,0.034 0.13801,0.036 h 0.174 l 0.14,0.035 0.13798,0.034 0.17302,0.034 h 0.138 l 0.175,0.035 0.138,0.034 h 0.17299 l 0.13901,0.036 0.17398,0.034 h 0.13802 l 0.173,0.035 0.138,0.034 h 0.174 l 0.13901,0.034 0.13798,0.036 h 0.17401 l 0.13899,0.035 0.17402,0.034 h 0.13699 l 0.175,0.035 0.138,0.034 0.17299,0.034 h 0.138 l 0.17401,0.035 0.139,0.036 h 0.17399 l 0.13701,0.034 0.13899,0.035 h 0.17401 l 0.138,0.035 0.174,0.034 h 0.13899 l 0.17202,0.034 0.13999,0.036 H 182.59 l 0.139,0.034 0.17402,0.034 h 0.13899 l 0.173,0.035 0.13899,0.035 h 0.17202 l 0.14,0.034 0.138,0.036 h 0.17299 l 0.139,0.034 0.17398,0.035 h 0.13701 l 0.17401,0.034 0.13898,0.035 h 0.17302 l 0.13899,0.034 0.17301,0.035 h 0.14 l 0.173,0.035 0.13699,0.034 m -30.64399,-4.853015 0.17399,0.03601 0.13701,0.03399 h 0.173 l 0.14,0.03401 0.17299,0.035 0.13901,0.035 H 156.14 l 0.138,0.034 0.14001,0.035 0.17199,0.03599 h 0.139 l 0.174,0.034 0.13901,0.034 0.173,0.035 h 0.13899 l 0.172,0.034 0.14,0.035 0.17201,0.035 h 0.139 l 0.17399,0.035 0.13899,0.034 0.13701,0.034 h 0.17401 l 0.13898,0.035 0.17302,0.036 h 0.13899 l 0.17301,0.034 0.14,0.034 0.173,0.035 h 0.13699 l 0.17401,0.034 0.139,0.035 0.17399,0.036 h 0.138 l 0.13901,0.034 0.172,0.035 0.13899,0.034 h 0.17401 l 0.13899,0.034 0.17301,0.03499 h 0.13901 l 0.17298,0.03501 0.138,0.034 0.17501,0.035 h 0.138 l 0.172,0.035 0.13999,0.035 h 0.17301 l 0.278,0.069 0.172,0.035 h 0.139 l 0.174,0.034 0.138,0.034 0.174,0.035 h 0.139 l 0.17199,0.034 0.13801,0.036 h 0.174 l 0.14,0.035 0.173,0.035 0.138,0.034 h 0.138 l 0.175,0.034 0.138,0.03499 h 0.17299 l 0.13901,0.035 0.17299,0.034 0.13901,0.036 h 0.173 l 0.138,0.034 0.174,0.034 h 0.13899 l 0.173,0.035 0.13901,0.035 0.13899,0.035 h 0.174 l 0.13701,0.034 0.175,0.035 h 0.138 l 0.17299,0.034 0.138,0.035 0.17401,0.036 h 0.139 l 0.17399,0.034 0.13701,0.034 h 0.173 l 0.14,0.035 0.138,0.034 0.174,0.035 h 0.13899 l 0.17202,0.035 0.13999,0.035 H 169.59 l 0.139,0.034 0.17402,0.035 h 0.13899 l 0.173,0.035 0.13899,0.035" /><path
                 id="path76"
                 style="fill:none;stroke:#231f20;stroke-width:0.40000001;stroke-linecap:butt;stroke-linejoin:round;stroke-miterlimit:10;stroke-dasharray:none;stroke-opacity:1"
                 d="m 139.70801,95.736008 0.173,0.03399 0.13899,0.03501 h 0.174 l 0.138,0.034 0.17201,0.035 0.14,0.035 0.174,0.036 h 0.13899 l 0.17201,0.034 0.138,0.034 0.139,0.035 H 141.58 l 0.138,0.034 0.17401,0.035 0.139,0.035 0.17399,0.034 h 0.13701 l 0.17299,0.035 0.14001,0.035 0.17299,0.034 0.138,0.035 h 0.174 l 0.138,0.035 0.175,0.035 0.137,0.034 h 0.139 l 0.174,0.034 0.13901,0.035 0.173,0.035 0.13899,0.035 h 0.172 l 0.13901,0.035 0.173,0.034 0.139,0.034 h 0.17399 l 0.13899,0.035 0.17302,0.036 0.138,0.034 0.13898,0.034 h 0.17302 l 0.13899,0.03601 0.17301,0.033 0.14,0.035 h 0.173 l 0.13699,0.036 0.17401,0.034 0.139,0.034 0.17399,0.034 h 0.138 l 0.17301,0.036 0.138,0.034 0.13899,0.035 h 0.17401 l 0.13899,0.035 0.17301,0.034 0.13899,0.035 h 0.173 l 0.138,0.034 0.17501,0.03499 0.138,0.03501 0.172,0.035 h 0.13999 l 0.17301,0.035 0.13899,0.034 0.17301,0.034 h 0.138 l 0.139,0.035 0.174,0.035 0.138,0.035 h 0.174 l 0.139,0.034 0.17199,0.035 0.13801,0.034 h 0.174 l 0.14,0.035 0.173,0.036 0.138,0.034 h 0.174 l 0.139,0.034 0.13799,0.035 0.173,0.034 h 0.13901 l 0.17299,0.034 0.13901,0.036 0.173,0.034 h 0.138 l 0.174,0.035 0.13899,0.035 0.173,0.035 h 0.13901 l 0.174,0.034 0.13899,0.035 0.13701,0.035 h 0.173 l 0.14,0.034 0.17299,0.034 0.138,0.036 h 0.17401 l 0.139,0.033 M 124.42,92.893005 l 0.13901,0.035 0.139,0.035 0.17299,0.034 0.138,0.035 h 0.17301 l 0.14,0.034 0.17299,0.035 0.138,0.035 0.17301,0.034 0.14,0.035 0.17299,0.035 h 0.138 l 0.173,0.035 0.13901,0.034 0.139,0.035 0.17299,0.034 0.139,0.034 h 0.17401 l 0.138,0.036 0.17299,0.035 0.139,0.034 0.17301,0.035 0.14,0.034 0.172,0.035 h 0.138 l 0.174,0.035 0.13899,0.035 0.138,0.034 0.17401,0.034 0.139,0.035 h 0.173 l 0.138,0.035 0.174,0.035 0.13899,0.035 0.173,0.034 0.138,0.034 h 0.174 l 0.13901,0.035 0.17399,0.035 0.137,0.035 0.173,0.034 0.14,0.036 h 0.13901 l 0.17199,0.034 0.14,0.034 0.172,0.035 0.14,0.035 0.17201,0.034 h 0.139 l 0.17399,0.035 0.13899,0.035 0.17302,0.034 0.139,0.034 0.17199,0.036 h 0.14 l 0.138,0.035 0.17301,0.034 0.139,0.034 0.174,0.035 h 0.13699 l 0.174,0.03399 0.13901,0.03601 0.17399,0.035 0.138,0.034 0.17301,0.035 h 0.13899 l 0.17401,0.034 0.138,0.034 0.13899,0.036 0.17301,0.035 h 0.13899 l 0.173,0.034 0.13901,0.034 0.174,0.035 0.138,0.035 h 0.172 l 0.13899,0.035 0.17401,0.035 0.13899,0.034 0.17301,0.034 0.138,0.034 h 0.17399 l 0.13901,0.036 0.138,0.035 0.174,0.034 0.139,0.035 h 0.17299 l 0.138,0.034 0.17301,0.035 0.14,0.034 0.173,0.036 h 0.138 l 0.17299,0.034 0.14,0.034 0.173,0.036 0.138,0.034 h 0.13901 l 0.17299,0.034 0.13901,0.036" /><path
                 id="path78"
                 style="fill:none;stroke:#231f20;stroke-width:0.40000001;stroke-linecap:butt;stroke-linejoin:round;stroke-miterlimit:10;stroke-dasharray:none;stroke-opacity:1"
                 d="m 109.09701,89.808006 0.139,0.035 0.17299,0.03401 0.139,0.034 0.17301,0.036 0.14,0.034 0.138,0.035 0.172,0.03399 0.13899,0.03501 0.17401,0.034 0.139,0.036 0.173,0.03499 h 0.138 l 0.17399,0.03401 0.139,0.034 0.173,0.035 0.13901,0.034 0.17299,0.036 0.139,0.034 0.138,0.035 0.17301,0.034 0.139,0.035 0.17399,0.035 0.138,0.035 0.17301,0.034 h 0.14 l 0.17299,0.035 0.138,0.034 0.173,0.035 0.13901,0.035 0.17399,0.035 0.138,0.034 0.139,0.035 0.17401,0.034 0.138,0.035 0.17299,0.034 h 0.139 l 0.17301,0.035 0.14,0.035 0.172,0.035 0.138,0.035 0.17399,0.034 0.13899,0.034 0.17302,0.036 0.139,0.034 0.17299,0.034 0.139,0.035 h 0.138 l 0.17401,0.034 0.139,0.035 0.17299,0.036 0.138,0.035 0.174,0.034 0.13901,0.034 0.17399,0.035 0.137,0.034 h 0.17301 l 0.14,0.035 0.17299,0.035 0.138,0.034 0.14,0.035 0.17201,0.034 0.139,0.035 0.173,0.036 0.139,0.034 h 0.174 l 0.13899,0.034 0.17301,0.035 0.138,0.034 0.17299,0.036 0.14001,0.034 0.172,0.035 0.139,0.035 0.139,0.034 h 0.17399 l 0.137,0.034 0.17401,0.036 0.139,0.035 0.17399,0.034 0.138,0.034 0.17301,0.035 0.139,0.035 h 0.17399 l 0.137,0.035 0.17401,0.035 0.139,0.034 0.139,0.034 0.17299,0.035 0.139,0.035 h 0.17401 l 0.138,0.035 0.172,0.034 0.13899,0.035 0.17401,0.035 0.139,0.034 0.173,0.034 0.138,0.036 h 0.174 l 0.139,0.034 0.17299,0.035 m -30.646997,-6.483009 0.139999,0.03601 0.173004,0.033 0.139,0.035 0.172997,0.035 0.139,0.035 0.172996,0.034 0.139008,0.036 0.138,0.034 0.172989,0.034 0.139008,0.07 0.174003,0.034 0.138001,0.035 0.173996,0.035 0.138,0.035 0.174004,0.034 0.138,0.034 0.172997,0.035 0.139999,0.035 0.173004,0.035 0.136994,0.035 0.174003,0.034 0.139,0.034 0.138993,0.035 0.173004,0.035 0.139,0.035 0.174003,0.034 0.138001,0.035 0.172996,0.034 0.139,0.035 0.173004,0.03601 0.14,0.03399 0.171997,0.034 0.138992,0.035 0.174011,0.034 0.138001,0.035 0.137993,0.035 0.174003,0.035 0.139,0.035 0.173004,0.034 0.139,0.035 0.173993,0.035 0.138,0.034 0.173,0.035 0.13901,0.034 0.17399,0.034 0.138,0.035 0.17401,0.036 0.139,0.035 0.138,0.034 0.17299,0.034 0.139,0.035 0.173,0.034 0.14001,0.036 0.172,0.034 0.138,0.034 0.17399,0.035 0.13899,0.035 0.17302,0.035 0.139,0.035 0.17299,0.034 0.139,0.034 0.17301,0.035 0.139,0.035 0.139,0.034 0.17299,0.036 0.138,0.034 0.174,0.035 0.13901,0.034 0.17399,0.035 0.137,0.034 0.17301,0.035 0.139,0.035 h 0.17399 l 0.138,0.035 0.17401,0.03399 0.138,0.03401 0.139,0.035 0.173,0.036 0.139,0.034 0.174,0.034 0.13899,0.035 0.17201,0.03401 0.14,0.035 0.17199,0.036 0.14,0.034 0.17201,0.035 0.139,0.034 0.17399,0.034 0.139,0.035 0.137,0.036 0.17401,0.034 0.139,0.035 0.17399,0.03401 0.138,0.035 h 0.17301 l 0.139,0.034 0.17399,0.036 0.137,0.034 0.17401,0.034" /><path
                 id="path80"
                 style="fill:none;stroke:#231f20;stroke-width:0.40000001;stroke-linecap:butt;stroke-linejoin:round;stroke-miterlimit:10;stroke-dasharray:none;stroke-opacity:1"
                 d="m 78.452003,82.563004 0.137993,0.035 0.173004,0.06799 0.138001,0.035 0.174004,0.035 0.139,0.03399 0.173995,0.035 0.137002,0.034 0.174003,0.07 0.139,0.036 0.173996,0.034 0.138001,0.034 0.138999,0.035 0.173005,0.069 0.139,0.035 0.171997,0.034 0.139999,0.035 0.173004,0.035 0.139,0.034 0.171997,0.07 0.14,0.035 0.172996,0.034 0.139008,0.034 0.171997,0.035 0.138992,0.035 0.139008,0.07 0.174003,0.034 0.138001,0.034 0.173996,0.035 0.138,0.036 0.174004,0.034 0.137993,0.069 0.173004,0.034 0.139999,0.035 0.172997,0.036 0.137001,0.034 0.174003,0.034 0.139,0.035 0.173996,0.069 0.138001,0.035 0.139,0.035 0.174003,0.034 0.138001,0.035 0.172996,0.034 0.139,0.035 0.173004,0.035 0.139,0.07 0.172997,0.034 0.138992,0.034 0.174011,0.035 0.138001,0.035 0.172996,0.035 0.139,0.034 0.139,0.035 0.173004,0.069 0.139,0.036 0.171997,0.034 0.14,0.034 0.172996,0.035 0.138001,0.034 0.174003,0.034 0.139,0.036 0.174004,0.034 0.137993,0.07 0.172004,0.035 0.14,0.034 0.139,0.035 0.171997,0.035 0.139999,0.034 0.173004,0.034 0.138001,0.036 0.172989,0.033 0.139007,0.036 0.174004,0.03499 0.139,0.03401 0.171997,0.069 0.139,0.035 0.174004,0.035 0.138999,0.034 0.171998,0.036 0.138999,0.033 0.139,0.035 0.173996,0.035 0.138009,0.035 0.173995,0.035 0.137993,0.034 0.173012,0.035 0.137993,0.034 0.174004,0.07099 0.139,0.03301 0.174003,0.035 0.136994,0.035 0.174003,0.034 0.139,0.035 0.139,0.035 0.172997,0.035 0.138999,0.034 0.173005,0.035 0.139,0.034 0.171997,0.03499 m -30.644001,-8.388992 0.173,0.07 0.137997,0.034 0.139003,0.07001 0.173001,0.034 0.139999,0.034 0.172001,0.069 0.139,0.035 0.174004,0.071 0.137992,0.034 0.173005,0.069 0.138999,0.03401 0.172997,0.071 0.139999,0.033 0.173005,0.035 0.138999,0.069 0.137993,0.03599 0.173004,0.069 0.138001,0.034 0.174004,0.034 0.139,0.071 0.173995,0.034 0.137002,0.06899 0.174003,0.034 0.139,0.036 0.173996,0.069 0.138001,0.035 0.173004,0.069 0.139,0.035 0.139,0.035 0.171997,0.068 0.139999,0.035 0.173004,0.035 0.139,0.07 0.171997,0.034 0.14,0.035 0.172996,0.069 0.139008,0.035 0.171997,0.069 0.138992,0.035 0.174004,0.035 0.139,0.069 0.173004,0.034 0.139,0.035 0.138,0.06899 0.173996,0.034 0.138001,0.036 0.173004,0.06901 0.139999,0.035 0.172997,0.034 0.137001,0.034 0.174003,0.071 0.139,0.034 0.173996,0.034 0.138001,0.07 0.173004,0.035 0.139,0.035 0.139,0.068 0.172996,0.035 0.139,0.035 0.173004,0.035 0.139,0.069 0.173996,0.034 0.137993,0.035 0.174011,0.07 0.138001,0.034 0.171997,0.036 0.139999,0.034 0.172997,0.069 0.139,0.035 0.139007,0.034 0.171997,0.07 0.139,0.034 0.173996,0.034 0.138001,0.036 0.174003,0.069 0.139,0.034 0.173996,0.035 0.138001,0.03399 0.172004,0.07101 0.14,0.034 0.172996,0.035 0.138001,0.034 0.139,0.07 0.174003,0.035 0.138001,0.034 0.173996,0.034 0.138,0.035 0.174004,0.07 0.139,0.035 0.171997,0.034 0.139,0.034 0.174004,0.07 0.138,0.035 0.172997,0.034 0.138999,0.035 0.172997,0.034 0.139999,0.069 0.138009,0.036 0.173995,0.034" /><path
                 id="path82"
                 style="fill:none;stroke:#231f20;stroke-width:0.40000001;stroke-linecap:butt;stroke-linejoin:round;stroke-miterlimit:10;stroke-dasharray:none;stroke-opacity:1"
                 d="m 47.806004,72.198006 0.173,0.068 0.137997,0.07 0.174003,0.07 0.138996,0.068 0.138001,0.07 0.174,0.069 0.139,0.07 0.173,0.069 0.138,0.069 0.173001,0.07 0.139999,0.068 0.173,0.07099 0.139,0.06801 0.172997,0.035 0.139004,0.069 0.173,0.07 0.137997,0.069 0.173004,0.06899 0.139,0.06901 0.139,0.07099 0.173,0.06801 0.139,0.036 0.174,0.06799 0.138,0.07 0.173001,0.069 0.138999,0.07 0.172997,0.068 0.139999,0.035 0.173005,0.07 0.136993,0.069 0.174007,0.069 0.139,0.07 0.137997,0.034 0.174,0.07 0.139,0.07 0.174003,0.069 0.136998,0.034 0.173999,0.069 0.139,0.07 0.174,0.069 0.137997,0.035 0.173004,0.069 0.139,0.069 0.174,0.035 0.137001,0.07 0.139,0.069 0.173999,0.069 0.139,0.035 0.172001,0.069 0.14,0.069 0.172996,0.035 0.139004,0.07 0.172001,0.068 0.138996,0.03599 0.174003,0.068 0.139,0.07 0.173001,0.035 0.139,0.069 0.172001,0.034 0.139999,0.071 0.138,0.06799 0.172997,0.03501 0.140003,0.07 0.173,0.069 0.136998,0.034 0.173999,0.07 0.139,0.035 0.174,0.069 0.138001,0.06799 0.173,0.036 0.139,0.069 0.174,0.035 0.138,0.06901 0.139,0.034 0.173001,0.07 0.138999,0.07 0.173001,0.03401 0.138996,0.07 0.174004,0.034 0.138,0.06899 0.172001,0.03501 0.139,0.07 0.174,0.03499 0.139,0.06801 0.173,0.035 0.138,0.07 0.139,0.034 0.173996,0.069 0.138005,0.035 0.173999,0.07 0.139,0.034 0.173001,0.069 0.139,0.035 0.171997,0.07 0.139999,0.034 0.173,0.069 0.139,0.035 0.172997,0.06899 0.139004,0.035 m -30.646,-16.466 0.173,0.208 0.139,0.206993 0.174,0.208004 0.138,0.208001 0.172997,0.208999 0.139004,0.173001 0.173,0.173999 0.139,0.173001 0.138996,0.173 0.174004,0.171997 0.138,0.175003 0.171997,0.138001 0.139,0.173999 0.174,0.138005 0.139,0.139 0.173,0.139 0.138001,0.137992 0.173999,0.173005 0.139,0.104995 0.174,0.138001 0.138001,0.139 0.139,0.139 0.173,0.137001 0.138,0.106003 0.173001,0.137001 0.139999,0.103996 0.173,0.139999 0.139,0.103005 0.172997,0.139 0.139004,0.102996 0.173,0.105996 0.137997,0.138008 0.173004,0.102997 0.139,0.105003 0.174,0.103996 0.138,0.104004 0.139,0.139 0.174,0.102997 0.138,0.103996 0.173001,0.105004 0.138999,0.103004 L 39,67.483002 l 0.139999,0.103004 0.173005,0.07 0.136997,0.102997 0.174,0.105003 0.138999,0.102997 0.174,0.105003 0.138001,0.07 0.139,0.102997 0.173999,0.104004 0.137002,0.103996 0.173999,0.07 0.139,0.102996 0.173001,0.105004 0.138996,0.069 0.173004,0.104004 0.139,0.06899 0.174,0.104003 0.137001,0.07 0.173999,0.102997 0.139,0.07 0.139,0.104004 0.172001,0.068 0.14,0.104996 0.172996,0.069 0.139004,0.103997 0.172001,0.06901 0.138996,0.07 0.174003,0.103996 0.139,0.069 0.173001,0.07 0.139,0.104004 0.171997,0.069 0.140003,0.069 L 44.27,70.498 l 0.138001,0.07 0.139999,0.069 0.173001,0.069 0.137001,0.103997 0.173999,0.06901 0.139,0.07099 0.174,0.06801 0.138001,0.103997 0.173,0.07 0.139,0.069 0.174,0.069 0.138,0.07 0.172997,0.069 0.139004,0.069 0.138999,0.105003 0.173001,0.068 0.138996,0.071 0.174004,0.069 0.138,0.068 0.172001,0.07099 0.139,0.06801 0.174,0.07 0.139,0.069" /><path
                 id="path84"
                 style="fill:none;stroke:#231f20;stroke-width:0.40000001;stroke-linecap:butt;stroke-linejoin:round;stroke-miterlimit:10;stroke-dasharray:none;stroke-opacity:1"
                 d="m 17.16,56.909004 h 13.797001 l 0.140001,1.455998 0.172997,0.624996 0.138002,0.450001 0.174,0.381004 0.139,0.346001 0.137001,0.312 0.173999,0.313 0.139,0.242 0.174,0.278 0.138001,0.243 m -17.021001,-4.646 H 17.16 M 170.354,12.951 l 0.172,-0.034 h 0.14002 l 0.17199,-0.035 0.139,-0.036 h 0.139 l 0.17398,-0.034 0.13701,-0.034 0.17401,-0.036 h 0.13898 l 0.17302,-0.034 0.13899,-0.034 h 0.17301 l 0.14,-0.035 0.173,-0.035 h 0.13699 l 0.17401,-0.034 0.139,-0.034 0.138,-0.035 H 173.3 l 0.13901,-0.035 0.172,-0.035 H 173.75 l 0.17401,-0.035 0.13899,-0.035 h 0.17301 l 0.13901,-0.034 0.17298,-0.034 h 0.138 l 0.17501,-0.035 0.276,-0.07 h 0.17399 l 0.139,-0.035 0.173,-0.034 h 0.13901 l 0.172,-0.034 0.139,-0.034 h 0.174 l 0.138,-0.036 0.174,-0.035 h 0.139 l 0.17199,-0.034 0.13801,-0.035 h 0.174 l 0.14,-0.034 0.13798,-0.034 0.17302,-0.036 h 0.138 l 0.175,-0.035 0.138,-0.034 h 0.17299 l 0.13901,-0.035 0.17398,-0.034 h 0.13802 l 0.173,-0.034 0.138,-0.036 h 0.174 l 0.13901,-0.035 0.13798,-0.034 h 0.17401 l 0.13899,-0.035 0.17402,-0.035 h 0.13699 l 0.175,-0.034 0.138,-0.035 0.17299,-0.035 h 0.138 l 0.17401,-0.034 0.139,-0.034 h 0.17399 l 0.13701,-0.034 0.13899,-0.036 h 0.17401 l 0.138,-0.035 0.174,-0.034 h 0.13899 l 0.17202,-0.035 0.13999,-0.035 H 182.59 l 0.139,-0.034 0.17402,-0.034 h 0.13899 l 0.173,-0.036 0.13899,-0.034 h 0.17202 l 0.14,-0.035 0.138,-0.035 h 0.17299 l 0.139,-0.034 0.17398,-0.035 h 0.13701 l 0.17401,-0.035 0.13898,-0.034 h 0.17302 l 0.13899,-0.035 0.17301,-0.035 h 0.14 l 0.173,-0.034 0.13699,-0.034 m -30.64399,4.851001 0.17399,-0.034 0.13701,-0.034 h 0.173 l 0.14,-0.035 0.17299,-0.035 0.13901,-0.034 H 156.14 l 0.138,-0.034 0.14001,-0.035 0.17199,-0.035 h 0.139 l 0.174,-0.034 0.13901,-0.036 0.173,-0.035 h 0.13899 l 0.172,-0.034 0.14,-0.034 0.17201,-0.035 h 0.139 l 0.17399,-0.034 0.13899,-0.036 0.13701,-0.035 h 0.17401 l 0.13898,-0.034 0.17302,-0.035 h 0.13899 l 0.17301,-0.034 0.14,-0.034 0.173,-0.036 h 0.13699 l 0.17401,-0.035 0.139,-0.034 0.17399,-0.034 h 0.138 l 0.13901,-0.034 0.172,-0.036 0.13899,-0.035 h 0.17401 l 0.13899,-0.034 0.17301,-0.035 h 0.13901 l 0.17298,-0.034 0.138,-0.034 0.17501,-0.035 h 0.138 l 0.172,-0.036 0.13999,-0.034 h 0.17301 l 0.278,-0.07 0.172,-0.034 h 0.139 l 0.174,-0.034 0.138,-0.036 0.174,-0.034 h 0.139 l 0.17199,-0.035 0.13801,-0.035 h 0.174 l 0.14,-0.034 0.173,-0.035 0.138,-0.034 h 0.138 l 0.175,-0.035 0.138,-0.035 h 0.17299 l 0.13901,-0.034 0.17299,-0.035 0.13901,-0.035 h 0.173 l 0.138,-0.034 0.174,-0.035 h 0.13899 l 0.173,-0.035 0.13901,-0.034 0.13899,-0.035 h 0.174 l 0.13701,-0.035 0.175,-0.034 h 0.138 l 0.17299,-0.035 0.138,-0.035 0.17401,-0.034 h 0.139 l 0.17399,-0.035 0.13701,-0.036 h 0.173 l 0.14,-0.034 0.138,-0.034 0.174,-0.035 h 0.13899 l 0.17202,-0.034 0.13999,-0.034 H 169.59 l 0.139,-0.035 0.17402,-0.036 h 0.13899 l 0.173,-0.034 0.13899,-0.034" /><path
                 id="path86"
                 style="fill:none;stroke:#231f20;stroke-width:0.40000001;stroke-linecap:butt;stroke-linejoin:round;stroke-miterlimit:10;stroke-dasharray:none;stroke-opacity:1"
                 d="m 139.70801,18.082001 0.173,-0.035 0.13899,-0.035 h 0.174 l 0.138,-0.034 0.17201,-0.036 0.14,-0.034 0.174,-0.034 h 0.13899 l 0.17201,-0.034 0.138,-0.036 0.139,-0.035 H 141.58 l 0.138,-0.034 0.17401,-0.034 0.139,-0.035 0.17399,-0.034 h 0.13701 l 0.17299,-0.036 0.14001,-0.035 0.17299,-0.034 0.138,-0.035 h 0.174 l 0.138,-0.034 0.175,-0.034 0.137,-0.036 h 0.139 l 0.174,-0.035 0.13901,-0.034 0.173,-0.034 0.13899,-0.034 h 0.172 l 0.13901,-0.036 0.173,-0.035 0.139,-0.034 h 0.17399 l 0.13899,-0.035 0.17302,-0.034 0.138,-0.034 0.13898,-0.035 h 0.17302 l 0.13899,-0.036 0.17301,-0.034 0.14,-0.035 h 0.173 l 0.13699,-0.035 0.17401,-0.034 0.139,-0.034 0.17399,-0.036 h 0.138 l 0.17301,-0.034 0.138,-0.035 0.13899,-0.035 h 0.17401 l 0.13899,-0.034 0.17301,-0.035 0.13899,-0.035 h 0.173 l 0.138,-0.034 0.17501,-0.035 0.138,-0.034 0.172,-0.035 h 0.13999 l 0.17301,-0.034 0.13899,-0.035 0.17301,-0.036 h 0.138 l 0.139,-0.034 0.174,-0.034 0.138,-0.035 h 0.174 l 0.139,-0.034 0.17199,-0.035 0.13801,-0.035 h 0.174 l 0.14,-0.035 0.173,-0.034 0.138,-0.035 h 0.174 l 0.139,-0.035 0.13799,-0.035 0.173,-0.034 h 0.13901 l 0.17299,-0.035 0.13901,-0.034 0.173,-0.034 h 0.138 l 0.174,-0.034 0.13899,-0.037 0.173,-0.034 h 0.13901 l 0.174,-0.034 0.13899,-0.035 0.13701,-0.035 h 0.173 l 0.14,-0.034 0.17299,-0.035 0.138,-0.035 h 0.17401 l 0.139,-0.034 m -30.61101,5.477 0.13901,-0.036 0.139,-0.035 0.17299,-0.034 0.138,-0.034 h 0.17301 l 0.14,-0.035 0.17299,-0.034 0.138,-0.035 0.17301,-0.036 0.14,-0.034 0.17299,-0.034 h 0.138 l 0.173,-0.035 0.13901,-0.034 0.139,-0.036 0.17299,-0.034 0.139,-0.034 h 0.17401 l 0.138,-0.035 0.17299,-0.034 0.139,-0.035 0.17301,-0.036 0.14,-0.034 0.172,-0.035 h 0.138 l 0.174,-0.034 0.13899,-0.034 0.138,-0.035 0.17401,-0.036 0.139,-0.034 h 0.173 l 0.138,-0.035 0.174,-0.035 0.13899,-0.034 0.173,-0.034 0.138,-0.035 h 0.174 l 0.13901,-0.035 0.17399,-0.034 0.137,-0.034 0.173,-0.036 0.14,-0.034 h 0.13901 l 0.17199,-0.035 0.14,-0.035 0.172,-0.035 0.14,-0.034 0.17201,-0.034 h 0.139 l 0.17399,-0.035 0.13899,-0.035 0.17302,-0.035 0.139,-0.035 0.17199,-0.034 h 0.14 l 0.138,-0.035 0.17301,-0.034 0.139,-0.035 0.174,-0.035 h 0.13699 l 0.174,-0.035 0.13901,-0.034 0.17399,-0.034 0.138,-0.034 0.17301,-0.037 h 0.13899 l 0.17401,-0.034 0.138,-0.034 0.13899,-0.035 0.17301,-0.034 h 0.13899 l 0.173,-0.034 0.13901,-0.036 0.174,-0.035 0.138,-0.034 h 0.172 l 0.13899,-0.035 0.17401,-0.035 0.13899,-0.034 0.17301,-0.035 0.138,-0.035 h 0.17399 l 0.13901,-0.034 0.138,-0.034 0.174,-0.036 0.139,-0.034 h 0.17299 l 0.138,-0.035 0.17301,-0.034 0.14,-0.035 0.173,-0.035 h 0.138 l 0.17299,-0.034 0.14,-0.035 0.173,-0.035 0.138,-0.034 h 0.13901 l 0.17299,-0.035 0.13901,-0.035" /><path
                 id="path88"
                 style="fill:none;stroke:#231f20;stroke-width:0.40000001;stroke-linecap:butt;stroke-linejoin:round;stroke-miterlimit:10;stroke-dasharray:none;stroke-opacity:1"
                 d="m 109.09701,24.01 0.139,-0.035 0.17299,-0.034 0.139,-0.036 0.17301,-0.034 0.14,-0.034 0.138,-0.035 0.172,-0.035 0.13899,-0.034 0.17401,-0.035 0.139,-0.035 0.173,-0.034 h 0.138 l 0.17399,-0.035 0.139,-0.036 0.173,-0.034 0.13901,-0.034 0.17299,-0.035 0.139,-0.034 0.138,-0.035 0.17301,-0.036 0.139,-0.034 0.17399,-0.034 0.138,-0.034 0.17301,-0.035 h 0.14 l 0.17299,-0.035 0.138,-0.035 0.173,-0.035 0.13901,-0.034 0.17399,-0.034 0.138,-0.035 0.139,-0.035 0.17401,-0.035 0.138,-0.035 0.17299,-0.034 h 0.139 l 0.17301,-0.034 0.14,-0.035 0.172,-0.035 0.138,-0.035 0.17399,-0.034 0.13899,-0.036 0.17302,-0.034 0.139,-0.034 0.17299,-0.035 0.139,-0.035 h 0.138 l 0.17401,-0.034 0.139,-0.034 0.17299,-0.036 0.138,-0.034 0.174,-0.035 0.13901,-0.035 0.17399,-0.035 0.137,-0.034 h 0.17301 l 0.14,-0.034 0.17299,-0.035 0.138,-0.035 0.14,-0.035 0.17201,-0.035 0.139,-0.034 0.173,-0.035 0.139,-0.034 h 0.174 l 0.13899,-0.035 0.17301,-0.035 0.138,-0.035 0.17299,-0.034 0.14001,-0.034 0.172,-0.034 0.139,-0.037 0.139,-0.034 h 0.17399 l 0.137,-0.034 0.17401,-0.035 0.139,-0.034 0.17399,-0.034 0.138,-0.036 0.17301,-0.035 0.139,-0.034 h 0.17399 l 0.137,-0.035 0.17401,-0.035 0.139,-0.034 0.139,-0.035 0.17299,-0.035 0.139,-0.034 h 0.17401 l 0.138,-0.035 0.172,-0.035 0.13899,-0.034 0.17401,-0.035 0.139,-0.035 0.173,-0.034 0.138,-0.035 h 0.174 l 0.139,-0.034 0.17299,-0.035 m -30.646997,6.483 0.139999,-0.035 0.173004,-0.034 0.139,-0.036 0.172997,-0.034 0.139,-0.034 0.172996,-0.035 0.139008,-0.036 0.138,-0.034 0.172989,-0.034 0.139008,-0.069 0.174003,-0.035 0.138001,-0.036 0.173996,-0.034 0.138,-0.034 0.174004,-0.035 0.138,-0.034 0.172997,-0.036 0.139999,-0.035 0.173004,-0.034 0.136994,-0.034 0.174003,-0.034 0.139,-0.036 0.138993,-0.035 0.173004,-0.034 0.139,-0.035 0.174003,-0.034 0.138001,-0.034 0.172996,-0.035 0.139,-0.036 0.173004,-0.034 0.14,-0.035 0.171997,-0.035 0.138992,-0.034 0.174011,-0.034 0.138001,-0.036 0.137993,-0.034 0.174003,-0.034 0.139,-0.036 0.173004,-0.034 0.139,-0.034 0.173993,-0.036 0.138,-0.034 0.173,-0.035 0.13901,-0.034 0.17399,-0.035 0.138,-0.035 0.17401,-0.034 0.139,-0.035 0.138,-0.035 0.17299,-0.035 0.139,-0.035 0.173,-0.034 0.14001,-0.034 0.172,-0.035 0.138,-0.035 0.17399,-0.035 0.13899,-0.035 0.17302,-0.035 0.139,-0.034 0.17299,-0.034 0.139,-0.034 0.17301,-0.036 0.139,-0.034 0.139,-0.034 0.17299,-0.036 0.138,-0.034 0.174,-0.034 0.13901,-0.036 0.17399,-0.035 0.137,-0.034 0.17301,-0.034 0.139,-0.035 h 0.17399 l 0.138,-0.034 0.17401,-0.036 0.138,-0.035 0.139,-0.034 0.173,-0.035 0.139,-0.034 0.174,-0.034 0.13899,-0.036 0.17201,-0.035 0.14,-0.034 0.17199,-0.034 0.14,-0.034 0.17201,-0.036 0.139,-0.035 0.17399,-0.034 0.139,-0.035 0.137,-0.034 0.17401,-0.034 0.139,-0.035 0.17399,-0.036 0.138,-0.034 h 0.17301 l 0.139,-0.035 0.17399,-0.035 0.137,-0.034 0.17401,-0.034" /><path
                 id="path90"
                 style="fill:none;stroke:#231f20;stroke-width:0.40000001;stroke-linecap:butt;stroke-linejoin:round;stroke-miterlimit:10;stroke-dasharray:none;stroke-opacity:1"
                 d="m 78.452003,31.255001 0.137993,-0.034 0.173004,-0.07 0.138001,-0.034 0.174004,-0.035 0.139,-0.035 0.173995,-0.034 0.137002,-0.034 0.174003,-0.071 0.139,-0.034 0.173996,-0.034 0.138001,-0.035 0.138999,-0.035 0.173005,-0.069 0.139,-0.035 0.171997,-0.034 0.139999,-0.035 0.173004,-0.035 0.139,-0.034 0.171997,-0.07 0.14,-0.034 0.172996,-0.035 0.139008,-0.035 0.171997,-0.034 0.138992,-0.035 0.139008,-0.07 0.174003,-0.034 0.138001,-0.035 0.173996,-0.034 0.138,-0.035 0.174004,-0.034 0.137993,-0.07 0.173004,-0.034 0.139999,-0.035 0.172997,-0.036 0.137001,-0.034 0.174003,-0.034 0.139,-0.035 0.173996,-0.069 0.138001,-0.036 0.139,-0.034 0.174003,-0.035 0.138001,-0.034 0.172996,-0.034 0.139,-0.035 0.173004,-0.035 0.139,-0.069 0.172997,-0.034 0.138992,-0.036 0.174011,-0.034 0.138001,-0.035 0.172996,-0.035 0.278,-0.068 0.173004,-0.07 0.139,-0.035 0.171997,-0.035 0.14,-0.035 0.172996,-0.034 0.138001,-0.034 0.174003,-0.035 0.139,-0.035 0.174004,-0.034 0.137993,-0.07 0.172004,-0.034 0.14,-0.034 0.139,-0.036 0.171997,-0.035 0.139999,-0.034 0.173004,-0.035 0.138001,-0.034 0.172989,-0.034 0.139007,-0.036 0.174004,-0.035 0.139,-0.034 0.171997,-0.069 0.139,-0.034 0.174004,-0.036 0.138999,-0.035 0.171998,-0.034 0.138999,-0.035 0.139,-0.035 0.173996,-0.034 0.138009,-0.035 0.173995,-0.035 0.137993,-0.034 0.173012,-0.034 0.137993,-0.034 0.174004,-0.071 0.139,-0.034 0.174003,-0.035 0.136994,-0.035 0.174003,-0.034 0.139,-0.034 0.139,-0.036 0.172997,-0.034 0.138999,-0.035 0.173005,-0.035 0.139,-0.034 0.171997,-0.035 m -30.644001,8.389 0.173,-0.069 0.137997,-0.035 0.139003,-0.07 0.173001,-0.034 0.139999,-0.035 0.172001,-0.068 0.139,-0.036 0.174004,-0.069 0.137992,-0.035 0.173005,-0.069 0.138999,-0.035 L 65,35.173 l 0.139999,-0.034 0.173005,-0.035 0.138999,-0.07 0.137993,-0.035 0.173004,-0.068 0.138001,-0.035 0.174004,-0.035 0.139,-0.07 0.173995,-0.035 0.137002,-0.068 0.174003,-0.035 0.139,-0.035 0.173996,-0.07 0.138001,-0.034 0.173004,-0.068 0.139,-0.036 0.139,-0.035 0.171997,-0.068 0.139999,-0.035 0.173004,-0.034 0.139,-0.071 0.171997,-0.034 0.14,-0.035 0.172996,-0.068 0.139008,-0.036 0.171997,-0.069 0.138992,-0.034 0.174004,-0.035 0.139,-0.07 0.173004,-0.035 0.139,-0.034 0.138,-0.068 0.173996,-0.036 0.138001,-0.035 0.173004,-0.069 0.139999,-0.035 0.172997,-0.034 0.137001,-0.034 0.174003,-0.07 0.139,-0.035 0.173996,-0.035 0.138001,-0.069 0.173004,-0.035 0.139,-0.034 0.139,-0.07 0.172996,-0.034 0.139,-0.034 0.173004,-0.03699 0.139,-0.068 0.173996,-0.034 0.137993,-0.035 0.174011,-0.07 0.138001,-0.034 0.171997,-0.035 0.139999,-0.034 0.172997,-0.07 0.139,-0.035 0.139007,-0.034 0.171997,-0.069 0.139,-0.035 0.173996,-0.035 0.138001,-0.035 0.174003,-0.069 0.139,-0.034 0.173996,-0.035 0.138001,-0.034 0.172004,-0.07 0.14,-0.035 0.172996,-0.035 0.138001,-0.034 0.139,-0.07 0.174003,-0.035 0.138001,-0.033 0.173996,-0.035 0.138,-0.034 0.174004,-0.071 0.139,-0.035 0.171997,-0.034 0.139,-0.034 0.174004,-0.07 0.138,-0.035 0.172997,-0.035 0.138999,-0.034 0.172997,-0.034 0.139999,-0.07 0.138009,-0.035 0.173995,-0.034" /><path
                 id="path92"
                 style="fill:none;stroke:#231f20;stroke-width:0.40000001;stroke-linecap:butt;stroke-linejoin:round;stroke-miterlimit:10;stroke-dasharray:none;stroke-opacity:1"
                 d="m 47.806004,41.621002 0.173,-0.07 0.137997,-0.068 0.174003,-0.071 0.138996,-0.068 0.138001,-0.069 0.174,-0.07 0.139,-0.069 0.173,-0.07 0.138,-0.069 0.173001,-0.069 0.139999,-0.07 0.173,-0.069 0.139,-0.069 0.172997,-0.035 0.139004,-0.069 0.173,-0.07 0.137997,-0.069 0.173004,-0.069 0.139,-0.069 0.139,-0.07 0.173,-0.069 0.139,-0.036 0.174,-0.068 0.138,-0.07 0.173001,-0.07 0.138999,-0.068 L 52,39.819 l 0.139999,-0.036 0.173005,-0.069 0.136993,-0.069 0.174007,-0.07 0.139,-0.069 0.137997,-0.034 0.174,-0.069 0.139,-0.071 0.174003,-0.069 0.136998,-0.034 0.173999,-0.07 0.139,-0.068 0.174,-0.07 0.137997,-0.035 0.173004,-0.069 0.139,-0.069 0.174,-0.035 0.137001,-0.07 0.139,-0.069 0.173999,-0.069 0.139,-0.034 0.172001,-0.07 0.14,-0.069 0.172996,-0.035 0.139004,-0.07 0.172001,-0.069 0.138996,-0.035 0.174003,-0.069 0.139,-0.069 0.173001,-0.035 0.139,-0.069 0.172001,-0.034 0.139999,-0.07 0.138,-0.07 0.172997,-0.034 0.140003,-0.07 0.173,-0.068 0.136998,-0.035 0.173999,-0.069 0.139,-0.036 0.174,-0.069 0.138001,-0.069 0.173,-0.034 0.139,-0.07 0.174,-0.035 0.138,-0.069 0.139,-0.034 0.173001,-0.07 0.138999,-0.069 0.173001,-0.034 0.138996,-0.071 0.174004,-0.034 0.138,-0.069 0.172001,-0.035 0.139,-0.07 0.174,-0.034 0.139,-0.07 0.173,-0.034 0.138,-0.069 0.139,-0.035 0.173996,-0.07 0.138005,-0.034 0.173999,-0.069 0.139,-0.035 0.173001,-0.069 0.139,-0.035 0.171997,-0.07 0.139999,-0.034 0.173,-0.069 0.139,-0.035 0.172997,-0.069 0.139004,-0.035 m -30.646,16.466003 0.173,-0.207 0.139,-0.208001 0.174,-0.208004 0.138,-0.207996 0.172997,-0.208 0.139004,-0.174004 0.173,-0.172996 0.139,-0.174 0.138996,-0.172001 0.174004,-0.174 0.138,-0.173 0.171997,-0.139 0.139,-0.174 0.174,-0.138 0.139,-0.139 0.173,-0.138001 0.138001,-0.139 0.173999,-0.173 0.139,-0.105 0.174,-0.138 0.138001,-0.138001 0.139,-0.139999 0.173,-0.136997 0.138,-0.105003 0.173001,-0.139 0.139999,-0.102997 0.173,-0.140003 0.139,-0.102997 0.172997,-0.140003 0.139004,-0.101998 0.173,-0.104999 0.137997,-0.139004 0.173004,-0.103996 0.139,-0.104001 0.174,-0.104 0.138,-0.104 0.139,-0.138 0.174,-0.104 0.138,-0.104 0.173001,-0.104 0.138999,-0.104004 L 39,46.336002 l 0.139999,-0.104 0.173005,-0.07 0.136997,-0.104001 0.174,-0.104999 0.138999,-0.102001 0.174,-0.105 0.138001,-0.069 0.139,-0.104 0.173999,-0.104 0.137002,-0.104 0.173999,-0.07 0.139,-0.103001 0.173001,-0.104 0.138996,-0.07 0.173004,-0.104001 0.139,-0.068 0.174,-0.104 0.137001,-0.071 0.173999,-0.103 0.139,-0.07 0.139,-0.103001 0.172001,-0.07 0.14,-0.104 0.172996,-0.069 0.139004,-0.104 0.172001,-0.069 0.138996,-0.07 0.174003,-0.104 0.139,-0.069 0.173001,-0.07 0.139,-0.102996 0.171997,-0.071 0.140003,-0.068 L 44.27,43.32 44.408001,43.25 44.548,43.181 l 0.173001,-0.069 0.137001,-0.104999 0.173999,-0.068 0.139,-0.071 0.174,-0.068 0.138001,-0.103996 0.173,-0.07 0.139,-0.069 0.174,-0.069 0.138,-0.07 0.172997,-0.069 0.139004,-0.069 0.138999,-0.103996 0.173001,-0.069 0.138996,-0.07 0.174004,-0.07 0.138,-0.068 0.172001,-0.07 0.139,-0.07 0.174,-0.068 0.139,-0.07" /><path
                 id="path94"
                 style="fill:none;stroke:#231f20;stroke-width:0.40000001;stroke-linecap:butt;stroke-linejoin:round;stroke-miterlimit:10;stroke-dasharray:none;stroke-opacity:1"
                 d="m 30.957001,56.909004 0.140001,-1.456001 0.172997,-0.624001 0.138002,-0.451 0.174,-0.381 0.139,-0.346001 0.137001,-0.312 0.173999,-0.313 0.139,-0.243 0.174,-0.276997 0.138001,-0.243 M 170.354,78.888 h 0.172 l 0.14002,0.034 h 0.31099 l 0.139,0.034 h 0.31099 l 0.17401,0.036 h 0.312 l 0.13899,0.035 h 0.17301 l 0.14,0.034 h 0.30999 l 0.17401,0.035 h 0.277 L 173.3,79.13 h 0.31101 l 0.13899,0.034 h 0.313 l 0.17301,0.036 h 0.31199 l 0.138,0.035 h 0.31301 l 0.138,0.034 H 175.45 l 0.173,0.035 h 0.31101 l 0.139,0.035 h 0.174 l 0.138,0.034 h 0.313 l 0.17199,0.035 h 0.31201 l 0.14,0.035 h 0.311 l 0.138,0.034 h 0.313 l 0.17299,0.034 h 0.31299 l 0.13802,0.035 h 0.311 l 0.174,0.035 H 179.47 l 0.17401,0.035 h 0.31301 l 0.13699,0.035 h 0.313 l 0.17299,0.034 h 0.31201 l 0.139,0.035 h 0.311 l 0.13899,0.034 h 0.31201 l 0.174,0.035 h 0.31101 l 0.13999,0.035 h 0.31099 l 0.17402,0.034 h 0.13899 l 0.173,0.035 h 0.31101 l 0.14,0.035 h 0.31099 l 0.139,0.035 h 0.31099 l 0.17401,0.034 h 0.312 l 0.13899,0.035 h 0.31301 l 0.173,0.034 h 0.13699 m -30.64399,-2.426003 h 0.17399 l 0.13701,0.034 h 0.173 l 0.14,0.035 h 0.312 l 0.17299,0.035 h 0.27801 l 0.17199,0.035 h 0.139 l 0.174,0.034 h 0.31201 l 0.13899,0.035 h 0.312 l 0.17201,0.034 h 0.139 l 0.17399,0.035 h 0.276 l 0.17401,0.034 h 0.312 l 0.13899,0.035 h 0.31301 l 0.173,0.035 h 0.13699 l 0.17401,0.035 h 0.31299 l 0.138,0.035 h 0.31101 l 0.13899,0.034 h 0.313 l 0.17301,0.034 h 0.13901 l 0.17298,0.036 h 0.31301 l 0.138,0.034 h 0.31199 l 0.17301,0.034 h 0.278 l 0.172,0.035 h 0.139 l 0.174,0.034 h 0.312 l 0.139,0.035 h 0.31 l 0.174,0.036 h 0.313 l 0.138,0.035 h 0.138 l 0.175,0.034 h 0.31099 l 0.13901,0.034 h 0.312 l 0.173,0.035 h 0.312 l 0.13899,0.03401 h 0.31201 l 0.13899,0.035 h 0.174 l 0.13701,0.035 h 0.313 l 0.17299,0.034 h 0.31201 l 0.139,0.035 h 0.311 l 0.173,0.035 h 0.278 l 0.174,0.034 h 0.31101 l 0.13999,0.03599 H 169.59 l 0.139,0.034 h 0.31301 l 0.173,0.035 h 0.13899" /><path
                 id="path96"
                 style="fill:none;stroke:#231f20;stroke-width:0.40000001;stroke-linecap:butt;stroke-linejoin:round;stroke-miterlimit:10;stroke-dasharray:none;stroke-opacity:1"
                 d="m 139.70801,76.323006 h 0.173 l 0.13899,0.035 h 0.174 l 0.138,0.034 h 0.31201 l 0.174,0.034 h 0.13899 l 0.17201,0.034 h 0.277 l 0.17399,0.036 h 0.138 l 0.17401,0.035 h 0.31299 l 0.13701,0.034 h 0.313 l 0.17299,0.035 h 0.138 l 0.174,0.035 h 0.313 l 0.137,0.034 h 0.139 l 0.174,0.034 h 0.31201 l 0.13899,0.036 h 0.172 l 0.13901,0.034 h 0.312 l 0.17399,0.034 h 0.13899 l 0.17302,0.03599 h 0.27698 l 0.17302,0.03401 h 0.312 l 0.14,0.034 h 0.173 l 0.13699,0.036 h 0.31301 l 0.17399,0.034 h 0.138 l 0.17301,0.035 H 147.75 l 0.17401,0.03399 h 0.312 l 0.13899,0.03501 h 0.173 l 0.138,0.034 h 0.31301 l 0.172,0.035 h 0.13999 l 0.17301,0.03599 h 0.312 l 0.138,0.03401 h 0.313 l 0.138,0.034 h 0.174 l 0.139,0.035 h 0.31 l 0.174,0.034 h 0.313 l 0.138,0.036 h 0.174 l 0.139,0.034 h 0.31099 l 0.13901,0.035 h 0.312 l 0.173,0.034 h 0.138 l 0.174,0.035 h 0.31199 l 0.13901,0.035 h 0.31299 l 0.13701,0.035 h 0.173 l 0.14,0.034 h 0.31099 l 0.17401,0.035 h 0.139 M 124.42,74.901001 h 0.13901 l 0.139,0.035 h 0.17299 l 0.138,0.034 h 0.17301 l 0.14,0.035 h 0.31099 l 0.17301,0.034 h 0.14 l 0.17299,0.036 h 0.138 l 0.173,0.035 h 0.27801 l 0.17299,0.034 h 0.139 l 0.17401,0.034 h 0.138 l 0.17299,0.035 h 0.31201 l 0.14,0.035 h 0.172 l 0.138,0.035 h 0.174 l 0.13899,0.034 h 0.31201 l 0.139,0.035 h 0.173 l 0.138,0.034 h 0.31299 l 0.173,0.035 h 0.138 l 0.174,0.035 h 0.13901 l 0.17399,0.035 h 0.31 l 0.14,0.034 h 0.13901 l 0.17199,0.034 h 0.312 l 0.14,0.035 h 0.17201 l 0.139,0.035 h 0.17399 l 0.13899,0.034 h 0.31202 l 0.17199,0.036 h 0.14 l 0.138,0.034 h 0.31201 l 0.174,0.035 h 0.13699 l 0.174,0.034 h 0.313 l 0.138,0.035 h 0.17301 l 0.13899,0.034 h 0.31201 l 0.13899,0.035 h 0.17301 l 0.13899,0.03599 h 0.173 l 0.13901,0.034 h 0.312 l 0.172,0.03399 H 136.31 l 0.17401,0.03501 h 0.312 l 0.138,0.034 h 0.17399 l 0.13901,0.036 h 0.312 l 0.139,0.034 h 0.17299 l 0.138,0.035 h 0.31301 l 0.173,0.034 h 0.138 l 0.17299,0.03401 h 0.313 l 0.138,0.03599 h 0.13901 l 0.17299,0.035 h 0.13901" /><path
                 id="path98"
                 style="fill:none;stroke:#231f20;stroke-width:0.40000001;stroke-linecap:butt;stroke-linejoin:round;stroke-miterlimit:10;stroke-dasharray:none;stroke-opacity:1"
                 d="m 109.09701,73.375 h 0.139 l 0.17299,0.035 h 0.31201 l 0.14,0.03601 h 0.138 l 0.172,0.033 H 110.31 l 0.17401,0.035 h 0.139 l 0.173,0.035 h 0.138 l 0.17399,0.035 h 0.139 l 0.173,0.034 h 0.13901 l 0.17299,0.036 h 0.277 l 0.17301,0.034 h 0.139 l 0.17399,0.034 h 0.138 l 0.17301,0.034 h 0.14 l 0.17299,0.036 h 0.138 l 0.173,0.03301 h 0.13901 l 0.17399,0.03599 h 0.277 l 0.17401,0.035 h 0.138 l 0.17299,0.035 h 0.139 l 0.17301,0.034 h 0.14 l 0.172,0.034 h 0.138 l 0.17399,0.035 h 0.31201 l 0.139,0.035 h 0.17299 l 0.139,0.035 h 0.138 l 0.17401,0.035 h 0.139 l 0.17299,0.034 h 0.312 l 0.13901,0.034 h 0.17399 l 0.137,0.035 h 0.17301 l 0.14,0.035 h 0.17299 l 0.138,0.035 h 0.31201 l 0.139,0.034 h 0.173 l 0.139,0.035 h 0.174 l 0.13899,0.034 h 0.17301 l 0.138,0.035 h 0.313 l 0.172,0.036 h 0.139 l 0.139,0.034 h 0.17399 l 0.137,0.034 h 0.17401 l 0.139,0.035 H 121.3 l 0.17301,0.034 h 0.139 l 0.17399,0.035 h 0.137 l 0.17401,0.035 h 0.278 l 0.17299,0.035 h 0.139 l 0.17401,0.034 h 0.138 l 0.172,0.035 h 0.313 l 0.139,0.035 h 0.173 l 0.138,0.035 h 0.174 l 0.139,0.034 H 124.42 M 93.773003,71.677011 h 0.139999 l 0.173004,0.034 h 0.139 l 0.172997,0.035 h 0.139 l 0.172996,0.036 h 0.139008 l 0.138,0.034 h 0.172989 l 0.139008,0.035 h 0.174003 l 0.138001,0.034 h 0.173996 l 0.138,0.034 h 0.174004 l 0.138,0.034 h 0.172997 l 0.139999,0.037 h 0.173004 l 0.136994,0.034 h 0.174003 l 0.139,0.034 h 0.138993 l 0.173004,0.035 h 0.139 l 0.174003,0.035 h 0.138001 l 0.172996,0.034 h 0.139 l 0.173004,0.035 0.14,0.035 h 0.171997 l 0.138992,0.034 h 0.174011 l 0.138001,0.035 H 99.32 l 0.174003,0.035 h 0.139 l 0.173004,0.03399 h 0.139 l 0.173993,0.03501 h 0.138 l 0.173,0.03499 h 0.13901 l 0.17399,0.03401 h 0.138 l 0.17401,0.035 h 0.139 l 0.138,0.035 h 0.31199 l 0.173,0.034 h 0.14001 l 0.172,0.035 h 0.138 l 0.17399,0.035 h 0.13899 l 0.17302,0.035 h 0.139 l 0.17299,0.034 h 0.139 l 0.17301,0.034 h 0.139 l 0.139,0.035 h 0.17299 l 0.138,0.035 h 0.174 l 0.13901,0.035 h 0.17399 l 0.137,0.035 h 0.17301 l 0.139,0.034 h 0.17399 l 0.138,0.034 h 0.17401 l 0.138,0.035 h 0.139 l 0.173,0.036 h 0.139 l 0.174,0.034 H 106.29 l 0.17201,0.034 h 0.14 l 0.17199,0.035 h 0.31201 l 0.139,0.034 h 0.17399 l 0.139,0.035 h 0.137 l 0.17401,0.036 h 0.139 l 0.17399,0.034 h 0.138 l 0.17301,0.034 h 0.139 l 0.17399,0.035 h 0.137 l 0.17401,0.034" /><path
                 id="path100"
                 style="fill:none;stroke:#231f20;stroke-width:0.40000001;stroke-linecap:butt;stroke-linejoin:round;stroke-miterlimit:10;stroke-dasharray:none;stroke-opacity:1"
                 d="m 78.452003,69.736 0.137993,0.034 H 78.763 l 0.138001,0.035 h 0.174004 l 0.139,0.034 0.173995,0.035 h 0.137002 l 0.174003,0.035 h 0.139 l 0.173996,0.036 0.138001,0.034 h 0.138999 l 0.173005,0.034 h 0.139 l 0.171997,0.035 0.139999,0.034 h 0.173004 l 0.139,0.035 h 0.171997 l 0.14,0.035 h 0.172996 l 0.139008,0.034 0.171997,0.035 h 0.138992 l 0.139008,0.035 h 0.174003 l 0.138001,0.034 0.173996,0.035 h 0.138 l 0.174004,0.035 h 0.137993 l 0.173004,0.034 h 0.139999 l 0.172997,0.035 0.137001,0.034 h 0.174003 l 0.139,0.035 h 0.173996 l 0.138001,0.035 h 0.139 l 0.174003,0.035 0.138001,0.035 h 0.172996 l 0.139,0.034 h 0.173004 l 0.139,0.034 h 0.172997 l 0.138992,0.035 h 0.174011 l 0.138001,0.036 0.172996,0.034 h 0.139 l 0.139,0.034 h 0.173004 l 0.139,0.035 h 0.171997 l 0.14,0.034 H 87.43 l 0.138001,0.035 0.174003,0.035 h 0.139 l 0.174004,0.035 h 0.137993 l 0.172004,0.034 h 0.14 l 0.139,0.034 h 0.171997 l 0.139999,0.036 0.173004,0.034 h 0.138001 l 0.172989,0.035 h 0.139007 l 0.174004,0.035 h 0.139 l 0.171997,0.034 h 0.139 l 0.174004,0.035 h 0.138999 l 0.171998,0.034 h 0.138999 l 0.139,0.035 0.173996,0.035 h 0.138009 l 0.173995,0.035 h 0.137993 l 0.173012,0.035 h 0.137993 l 0.174004,0.034 h 0.139 l 0.174003,0.034 h 0.136994 l 0.174003,0.035 h 0.139 l 0.139,0.035 h 0.172997 l 0.138999,0.035 0.173005,0.034 h 0.139 l 0.171997,0.035 M 63.129002,67.483 h 0.173 l 0.137997,0.034 0.139003,0.035 0.173001,0.034 h 0.139999 l 0.172001,0.035 0.139,0.035 h 0.174004 l 0.137992,0.035 0.173005,0.034 0.138999,0.034 H 65 l 0.139999,0.035 0.173005,0.035 h 0.138999 l 0.137993,0.035 0.173004,0.035 0.138001,0.034 h 0.174004 l 0.139,0.034 0.173995,0.035 h 0.137002 l 0.174003,0.035 0.139,0.035 h 0.173996 l 0.138001,0.034 0.173004,0.036 h 0.139 l 0.139,0.034 0.171997,0.034 0.139999,0.035 h 0.173004 l 0.139,0.035 0.171997,0.034 h 0.14 l 0.172996,0.035 0.139008,0.035 h 0.171997 l 0.138992,0.034 0.174004,0.034 h 0.139 l 0.173004,0.036 0.139,0.035 h 0.138 l 0.173996,0.034 0.138001,0.034 h 0.173004 l 0.139999,0.035 0.172997,0.034 h 0.137001 l 0.174003,0.03601 0.139,0.035 h 0.173996 l 0.138001,0.034 0.173004,0.035 h 0.139 l 0.139,0.034 h 0.172996 l 0.139,0.034 0.173004,0.036 h 0.139 l 0.173996,0.035 0.137993,0.034 h 0.174011 l 0.138001,0.034 0.171997,0.035 h 0.139999 l 0.172997,0.035 0.139,0.035 h 0.139007 l 0.171997,0.035 h 0.139 l 0.173996,0.034 0.138001,0.034 h 0.174003 l 0.139,0.034 0.173996,0.035 h 0.138001 l 0.172004,0.036 h 0.14 l 0.172996,0.034 0.138001,0.035 h 0.139 l 0.174003,0.034 0.138001,0.035 h 0.173996 l 0.138,0.034 h 0.174004 l 0.139,0.036 0.171997,0.034 h 0.139 l 0.174004,0.034 h 0.138 l 0.172997,0.036 0.138999,0.034 H 78 l 0.139999,0.03401 h 0.138009 l 0.173995,0.03599" /><path
                 id="path102"
                 style="fill:none;stroke:#231f20;stroke-width:0.40000001;stroke-linecap:butt;stroke-linejoin:round;stroke-miterlimit:10;stroke-dasharray:none;stroke-opacity:1"
                 d="m 47.806004,64.536003 0.173,0.069 0.137997,0.035 0.174003,0.034 0.138996,0.035 h 0.138001 l 0.174,0.035 0.139,0.035 0.173,0.03401 0.138,0.035 0.173001,0.034 0.139999,0.035 0.173,0.034 0.139,0.035 0.172997,0.035 0.139004,0.035 0.173,0.035 0.137997,0.034 0.173004,0.034 0.139,0.036 0.139,0.034 0.173,0.034 0.139,0.035 0.174,0.034 0.138,0.035 h 0.173001 l 0.138999,0.036 0.172997,0.035 0.139999,0.034 0.173005,0.034 0.136993,0.035 0.174007,0.03401 0.139,0.035 0.137997,0.035 0.174,0.034 h 0.139 l 0.174003,0.035 0.136998,0.034 0.173999,0.035 0.139,0.03599 0.174,0.034 0.137997,0.035 0.173004,0.034 h 0.139 l 0.174,0.034 0.137001,0.036 0.139,0.034 0.173999,0.035 0.139,0.035 h 0.172001 l 0.14,0.034 0.172996,0.034 0.139004,0.036 0.172001,0.035 0.138996,0.034 h 0.174003 l 0.139,0.034 0.173001,0.036 0.139,0.034 0.172001,0.035 0.139999,0.035 h 0.138 l 0.172997,0.034 0.140003,0.034 0.173,0.035 0.136998,0.035 h 0.173999 l 0.139,0.035 0.174,0.034 0.138001,0.035 0.173,0.035 h 0.139 l 0.174,0.034 0.138,0.034 0.139,0.036 h 0.173001 l 0.138999,0.034 0.173001,0.035 0.138996,0.035 0.174004,0.03401 h 0.138 l 0.172001,0.034 0.139,0.036 0.174,0.034 h 0.139 l 0.173,0.035 0.138,0.034 0.139,0.034 H 61.43 l 0.138005,0.035 0.173999,0.036 0.139,0.035 h 0.173001 l 0.139,0.034 0.171997,0.034 0.139999,0.035 h 0.173 l 0.139,0.034 0.172997,0.035 0.139004,0.035 m -30.646,-8.25 0.173,0.104 0.139,0.103997 0.174,0.104004 0.138,0.104 0.172997,0.104 0.139004,0.069 0.173,0.104 0.139,0.104996 0.138996,0.068 0.174004,0.069 0.138,0.104999 0.171997,0.069 0.139,0.069 0.174,0.069 0.139,0.104999 0.173,0.07 0.138001,0.068 0.173999,0.07 0.139,0.069 0.174,0.07 0.138001,0.068 0.139,0.035 0.173,0.07 0.138,0.069 0.173001,0.069 0.139999,0.07 0.173,0.034 0.139,0.069 0.172997,0.071 0.139004,0.069 0.173,0.034 0.137997,0.069 0.173004,0.035 0.139,0.07 0.174,0.069 0.138,0.035 0.139,0.069 0.174,0.03399 0.138,0.069 0.173001,0.036 0.138999,0.069 0.172997,0.034 0.139999,0.069 0.173005,0.036 0.136997,0.069 0.174,0.034 0.138999,0.035 0.174,0.07 0.138001,0.034 0.139,0.069 0.173999,0.035 0.137002,0.034 0.173999,0.07 0.139,0.035 0.173001,0.034 0.138996,0.069 0.173004,0.035 0.139,0.036 0.174,0.034 0.137001,0.069 0.173999,0.034 0.139,0.036 0.139,0.034 0.172001,0.069 0.14,0.034 0.172996,0.036 0.139004,0.035 0.172001,0.069 0.138996,0.034 0.174003,0.034 0.139,0.035 0.173001,0.036 0.139,0.034 0.171997,0.07 0.140003,0.034 0.172996,0.034 0.138001,0.036 0.139999,0.034 0.173001,0.034 0.137001,0.035 0.173999,0.035 0.139,0.07 0.174,0.034 0.138001,0.035 0.173,0.03399 0.139,0.03501 0.174,0.034 0.138,0.035 0.172997,0.035 0.139004,0.034 0.138999,0.035 0.173001,0.035 0.138996,0.034 0.174004,0.035 0.138,0.035 0.172001,0.035 0.139,0.034 0.174,0.034 0.139,0.036" /><path
                 id="path104"
                 style="fill:none;stroke:#231f20;stroke-width:0.40000001;stroke-linecap:butt;stroke-linejoin:round;stroke-miterlimit:10;stroke-dasharray:none;stroke-opacity:1"
                 d="m 30.957001,56.909004 0.140001,0.727997 0.172997,0.312996 0.138002,0.242004 0.174,0.173001 0.139,0.173 0.137001,0.173 0.173999,0.14 0.139,0.138996 0.174,0.103004 0.138001,0.139 M 170.354,34.931 h 0.172 l 0.14002,-0.035 h 0.31099 l 0.139,-0.035 h 0.31099 l 0.17401,-0.036 h 0.312 l 0.13899,-0.034 h 0.17301 l 0.14,-0.035 h 0.30999 l 0.17401,-0.034 h 0.277 L 173.3,34.688 h 0.31101 L 173.75,34.653 h 0.313 l 0.17301,-0.035 h 0.31199 l 0.138,-0.034 h 0.31301 l 0.138,-0.036 H 175.45 l 0.173,-0.034 h 0.31101 l 0.139,-0.035 h 0.174 l 0.138,-0.033 h 0.313 L 176.87,34.41 h 0.31201 l 0.14,-0.035 h 0.311 l 0.138,-0.034 h 0.313 l 0.17299,-0.034 h 0.31299 l 0.13802,-0.035 h 0.311 l 0.174,-0.034 H 179.47 l 0.17401,-0.036 h 0.31301 l 0.13699,-0.035 h 0.313 L 180.58,34.133 h 0.31201 l 0.139,-0.035 h 0.311 l 0.13899,-0.034 h 0.31201 l 0.174,-0.034 h 0.31101 l 0.13999,-0.036 h 0.31099 l 0.17402,-0.035 h 0.13899 l 0.173,-0.034 h 0.31101 l 0.14,-0.034 h 0.31099 l 0.139,-0.035 h 0.31099 l 0.17401,-0.035 h 0.312 l 0.13899,-0.035 h 0.31301 l 0.173,-0.035 h 0.13699 m -30.64399,2.426998 h 0.17399 l 0.13701,-0.035 h 0.173 l 0.14,-0.034 h 0.312 l 0.17299,-0.034 h 0.27801 l 0.17199,-0.036 h 0.139 l 0.174,-0.034 h 0.31201 l 0.13899,-0.035 h 0.312 l 0.17201,-0.034 h 0.139 l 0.17399,-0.035 h 0.276 l 0.17401,-0.034 h 0.312 l 0.13899,-0.035 h 0.31301 l 0.173,-0.035 h 0.13699 l 0.17401,-0.034 h 0.31299 l 0.138,-0.035 h 0.31101 l 0.13899,-0.035 h 0.313 l 0.17301,-0.035 h 0.13901 l 0.17298,-0.035 h 0.31301 l 0.138,-0.034 h 0.31199 l 0.17301,-0.035 h 0.278 l 0.172,-0.034 h 0.139 l 0.174,-0.034 h 0.312 l 0.139,-0.035 h 0.31 l 0.174,-0.036 h 0.313 l 0.138,-0.034 h 0.138 l 0.175,-0.035 h 0.31099 l 0.13901,-0.034 h 0.312 l 0.173,-0.035 h 0.312 l 0.13899,-0.035 h 0.31201 l 0.13899,-0.034 h 0.174 l 0.13701,-0.035 h 0.313 l 0.17299,-0.034 h 0.31201 l 0.139,-0.035 h 0.311 l 0.173,-0.034 h 0.278 l 0.174,-0.036 h 0.31101 l 0.13999,-0.035 H 169.59 l 0.139,-0.034 h 0.31301 l 0.173,-0.034 h 0.13899" /><path
                 id="path106"
                 style="fill:none;stroke:#231f20;stroke-width:0.40000001;stroke-linecap:butt;stroke-linejoin:round;stroke-miterlimit:10;stroke-dasharray:none;stroke-opacity:1"
                 d="m 139.70801,37.495003 h 0.173 l 0.13899,-0.035 h 0.174 l 0.138,-0.034 h 0.31201 l 0.174,-0.034 h 0.13899 l 0.17201,-0.035 h 0.277 l 0.17399,-0.034 h 0.138 l 0.17401,-0.035 h 0.31299 l 0.13701,-0.035 h 0.313 l 0.17299,-0.035 h 0.138 l 0.174,-0.034 h 0.313 l 0.137,-0.035 h 0.139 l 0.174,-0.034 h 0.31201 l 0.13899,-0.036 h 0.172 l 0.13901,-0.034 h 0.312 l 0.17399,-0.034 h 0.13899 l 0.17302,-0.035 h 0.27698 l 0.17302,-0.034 h 0.312 l 0.14,-0.035 h 0.173 l 0.13699,-0.036 h 0.31301 l 0.17399,-0.034 h 0.138 l 0.17301,-0.035 H 147.75 l 0.17401,-0.034 h 0.312 l 0.13899,-0.035 h 0.173 l 0.138,-0.034 h 0.31301 l 0.172,-0.036 h 0.13999 l 0.17301,-0.034 h 0.312 l 0.138,-0.035 h 0.313 l 0.138,-0.035 h 0.174 l 0.139,-0.034 h 0.31 l 0.174,-0.034 h 0.313 l 0.138,-0.035 h 0.174 l 0.139,-0.035 h 0.31099 l 0.13901,-0.035 h 0.312 l 0.173,-0.035 h 0.138 l 0.174,-0.034 h 0.31199 l 0.13901,-0.034 h 0.31299 l 0.13701,-0.035 h 0.173 l 0.14,-0.035 h 0.31099 l 0.17401,-0.035 h 0.139 M 124.42,38.917006 h 0.13901 l 0.139,-0.035 h 0.17299 l 0.138,-0.034 h 0.17301 l 0.14,-0.035 h 0.31099 l 0.17301,-0.034 h 0.14 l 0.17299,-0.035 h 0.138 l 0.173,-0.035 h 0.27801 l 0.17299,-0.035 h 0.139 l 0.17401,-0.034 h 0.138 l 0.17299,-0.035 h 0.31201 l 0.14,-0.034 h 0.172 l 0.138,-0.035 h 0.174 l 0.13899,-0.035 h 0.31201 l 0.139,-0.035 h 0.173 l 0.138,-0.034 h 0.31299 l 0.173,-0.035 h 0.138 l 0.174,-0.034 h 0.13901 l 0.17399,-0.036 h 0.31 l 0.14,-0.034 h 0.13901 l 0.17199,-0.035 h 0.312 l 0.14,-0.034 h 0.17201 l 0.139,-0.034 h 0.17399 l 0.13899,-0.035 h 0.31202 l 0.17199,-0.036 h 0.14 l 0.138,-0.034 h 0.31201 l 0.174,-0.034 h 0.13699 l 0.174,-0.035 h 0.313 l 0.138,-0.035 h 0.17301 l 0.13899,-0.034 h 0.31201 l 0.13899,-0.036 h 0.17301 l 0.13899,-0.034 h 0.173 l 0.13901,-0.034 h 0.312 l 0.172,-0.035 H 136.31 l 0.17401,-0.035 h 0.312 l 0.138,-0.034 h 0.17399 l 0.13901,-0.036 h 0.312 l 0.139,-0.034 h 0.17299 l 0.138,-0.034 h 0.31301 l 0.173,-0.035 h 0.138 l 0.17299,-0.035 h 0.313 l 0.138,-0.034 h 0.13901 l 0.17299,-0.035 h 0.13901" /><path
                 id="path108"
                 style="fill:none;stroke:#231f20;stroke-width:0.40000001;stroke-linecap:butt;stroke-linejoin:round;stroke-miterlimit:10;stroke-dasharray:none;stroke-opacity:1"
                 d="m 109.09701,40.443001 h 0.139 l 0.17299,-0.035 h 0.31201 l 0.14,-0.035 h 0.138 l 0.172,-0.034 H 110.31 l 0.17401,-0.035 h 0.139 l 0.173,-0.035 h 0.138 l 0.17399,-0.034 h 0.139 l 0.173,-0.035 h 0.13901 l 0.17299,-0.036 h 0.277 l 0.17301,-0.034 h 0.139 l 0.17399,-0.034 h 0.138 l 0.17301,-0.035 h 0.14 l 0.17299,-0.034 h 0.138 l 0.173,-0.035 h 0.13901 l 0.17399,-0.036 h 0.277 l 0.17401,-0.034 h 0.138 l 0.17299,-0.034 h 0.139 l 0.17301,-0.035 h 0.14 l 0.172,-0.034 h 0.138 l 0.17399,-0.036 h 0.31201 l 0.139,-0.034 h 0.17299 l 0.139,-0.035 h 0.138 l 0.17401,-0.035 h 0.139 l 0.17299,-0.033 h 0.312 l 0.13901,-0.036 h 0.17399 l 0.137,-0.035 h 0.17301 l 0.14,-0.034 h 0.17299 l 0.138,-0.035 h 0.31201 l 0.139,-0.034 h 0.173 l 0.139,-0.034 h 0.174 l 0.13899,-0.035 h 0.17301 l 0.138,-0.036 h 0.313 l 0.172,-0.035 h 0.139 l 0.139,-0.033 h 0.17399 l 0.137,-0.036 h 0.17401 l 0.139,-0.034 H 121.3 l 0.17301,-0.034 h 0.139 l 0.17399,-0.035 h 0.137 l 0.17401,-0.035 h 0.278 l 0.17299,-0.034 h 0.139 l 0.17401,-0.035 h 0.138 l 0.172,-0.035 h 0.313 l 0.139,-0.035 h 0.173 l 0.138,-0.034 h 0.174 l 0.139,-0.035 H 124.42 m -30.646997,3.224998 h 0.139999 l 0.173004,-0.036 h 0.139 l 0.172997,-0.034 h 0.139 l 0.172996,-0.035 h 0.139008 l 0.138,-0.035 h 0.172989 l 0.139008,-0.035 h 0.174003 l 0.138001,-0.034 h 0.173996 l 0.138,-0.034 h 0.174004 l 0.138,-0.035 h 0.172997 l 0.139999,-0.035 h 0.173004 l 0.136994,-0.034 h 0.174003 l 0.139,-0.036 h 0.138993 l 0.173004,-0.034 h 0.139 l 0.174003,-0.034 h 0.138001 l 0.172996,-0.035 h 0.139 l 0.173004,-0.035 0.14,-0.035 h 0.171997 l 0.138992,-0.034 h 0.174011 l 0.138001,-0.035 H 99.32 l 0.174003,-0.034 h 0.139 l 0.173004,-0.034 h 0.139 l 0.173993,-0.037 h 0.138 l 0.173,-0.034 h 0.13901 l 0.17399,-0.034 h 0.138 l 0.17401,-0.035 h 0.139 l 0.138,-0.034 h 0.31199 l 0.173,-0.035 h 0.14001 l 0.172,-0.035 h 0.138 l 0.17399,-0.035 h 0.13899 l 0.17302,-0.034 h 0.139 l 0.17299,-0.035 h 0.139 l 0.17301,-0.035 h 0.139 l 0.139,-0.034 h 0.17299 l 0.138,-0.035 h 0.174 l 0.13901,-0.034 h 0.17399 l 0.137,-0.035 h 0.17301 l 0.139,-0.035 h 0.17399 l 0.138,-0.034 h 0.17401 l 0.138,-0.035 h 0.139 l 0.173,-0.035 h 0.139 l 0.174,-0.035 H 106.29 l 0.17201,-0.03401 h 0.14 l 0.17199,-0.035 h 0.31201 l 0.139,-0.034 h 0.17399 l 0.139,-0.034 h 0.137 l 0.17401,-0.036 h 0.139 l 0.17399,-0.035 h 0.138 l 0.17301,-0.034 h 0.139 l 0.17399,-0.035 h 0.137 l 0.17401,-0.034" /><path
                 id="path110"
                 style="fill:none;stroke:#231f20;stroke-width:0.40000001;stroke-linecap:butt;stroke-linejoin:round;stroke-miterlimit:10;stroke-dasharray:none;stroke-opacity:1"
                 d="m 78.452003,44.082001 0.137993,-0.034 H 78.763 l 0.138001,-0.035 h 0.174004 l 0.139,-0.034 0.173995,-0.034 h 0.137002 l 0.174003,-0.036 h 0.139 l 0.173996,-0.035 0.138001,-0.035 h 0.138999 l 0.173005,-0.034 h 0.139 l 0.171997,-0.035 0.139999,-0.034 h 0.173004 l 0.139,-0.035 h 0.171997 l 0.14,-0.035 h 0.172996 l 0.139008,-0.034 0.171997,-0.034 h 0.138992 l 0.139008,-0.035 h 0.174003 l 0.138001,-0.035 0.173996,-0.036 h 0.138 l 0.174004,-0.034 h 0.137993 l 0.173004,-0.034 h 0.139999 l 0.172997,-0.035 0.137001,-0.034 h 0.174003 l 0.139,-0.035 h 0.173996 l 0.138001,-0.035 h 0.139 l 0.174003,-0.035 0.138001,-0.034 h 0.172996 l 0.139,-0.035 h 0.173004 l 0.139,-0.034 h 0.172997 l 0.138992,-0.035 h 0.174011 l 0.138001,-0.035 0.172996,-0.034 h 0.139 l 0.139,-0.035 h 0.173004 l 0.139,-0.035 h 0.171997 l 0.14,-0.034 H 87.43 l 0.138001,-0.035 0.174003,-0.035 h 0.139 l 0.174004,-0.035 h 0.137993 l 0.172004,-0.034 h 0.14 l 0.139,-0.035 h 0.171997 l 0.139999,-0.034 0.173004,-0.034 h 0.138001 l 0.172989,-0.037 h 0.139007 l 0.174004,-0.034 h 0.139 l 0.171997,-0.034 h 0.139 l 0.174004,-0.035 h 0.138999 l 0.171998,-0.034 h 0.138999 l 0.139,-0.035 0.173996,-0.035 h 0.138009 l 0.173995,-0.035 h 0.137993 l 0.173012,-0.034 h 0.137993 l 0.174004,-0.03401 h 0.139 l 0.174003,-0.03599 h 0.136994 l 0.174003,-0.034 h 0.139 l 0.139,-0.035 h 0.172997 l 0.138999,-0.035 0.173005,-0.034 h 0.139 l 0.171997,-0.034 m -30.644001,4.194 h 0.173 l 0.137997,-0.035 0.139003,-0.035 0.173001,-0.034 h 0.139999 l 0.172001,-0.035 0.139,-0.035 h 0.174004 l 0.137992,-0.034 0.173005,-0.035 0.138999,-0.035 H 65 l 0.139999,-0.034 0.173005,-0.034 h 0.138999 l 0.137993,-0.036 0.173004,-0.035 0.138001,-0.034 h 0.174004 l 0.139,-0.034 0.173995,-0.035 h 0.137002 l 0.174003,-0.034 0.139,-0.036 h 0.173996 l 0.138001,-0.035 0.173004,-0.034 h 0.139 l 0.139,-0.034 0.171997,-0.035 0.139999,-0.035 h 0.173004 l 0.139,-0.035 0.171997,-0.034 h 0.14 l 0.172996,-0.03401 0.139008,-0.035 h 0.171997 l 0.138992,-0.035 0.174004,-0.035 h 0.139 l 0.173004,-0.035 0.139,-0.034 h 0.138 l 0.173996,-0.035 0.138001,-0.034 h 0.173004 l 0.139999,-0.035 0.172997,-0.034 h 0.137001 l 0.174003,-0.036 0.139,-0.034 h 0.173996 l 0.138001,-0.035 0.173004,-0.035 h 0.139 l 0.139,-0.034 h 0.172996 l 0.139,-0.034 0.173004,-0.036 h 0.139 l 0.173996,-0.034 0.137993,-0.034 h 0.174011 l 0.138001,-0.035 0.171997,-0.035 h 0.139999 l 0.172997,-0.034 0.139,-0.036 h 0.139007 l 0.171997,-0.035 h 0.139 l 0.173996,-0.034 0.138001,-0.034 h 0.174003 l 0.139,-0.035 0.173996,-0.035 h 0.138001 l 0.172004,-0.034 h 0.14 l 0.172996,-0.035 0.138001,-0.035 h 0.139 l 0.174003,-0.034 0.138001,-0.035 h 0.173996 l 0.138,-0.035 h 0.174004 l 0.139,-0.035 0.171997,-0.034 h 0.139 l 0.174004,-0.035 h 0.138 l 0.172997,-0.035 0.138999,-0.033 H 78 l 0.139999,-0.036 h 0.138009 l 0.173995,-0.035" /><path
                 id="path112"
                 style="fill:none;stroke:#231f20;stroke-width:0.40000001;stroke-linecap:butt;stroke-linejoin:round;stroke-miterlimit:10;stroke-dasharray:none;stroke-opacity:1"
                 d="m 47.806004,49.283001 0.173,-0.07 0.137997,-0.035 0.174003,-0.034 0.138996,-0.034 h 0.138001 l 0.174,-0.035 0.139,-0.036 0.173,-0.034 0.138,-0.035 0.173001,-0.034 0.139999,-0.035 0.173,-0.034 0.139,-0.035 0.172997,-0.035 0.139004,-0.034 0.173,-0.035 0.137997,-0.035 0.173004,-0.035 0.139,-0.035 0.139,-0.034 0.173,-0.034 0.139,-0.035 0.174,-0.034 0.138,-0.036 h 0.173001 l 0.138999,-0.034 0.172997,-0.035 0.139999,-0.035 0.173005,-0.034 0.136993,-0.035 0.174007,-0.035 0.139,-0.034 0.137997,-0.035 0.174,-0.034 h 0.139 l 0.174003,-0.035 0.136998,-0.034 0.173999,-0.036 0.139,-0.035 0.174,-0.034 0.137997,-0.034 0.173004,-0.035 h 0.139 l 0.174,-0.034 0.137001,-0.036 0.139,-0.034 0.173999,-0.035 0.139,-0.034 h 0.172001 l 0.14,-0.035 0.172996,-0.034 0.139004,-0.036 0.172001,-0.034 0.138996,-0.034 h 0.174003 l 0.139,-0.035 0.173001,-0.035 0.139,-0.034 0.172001,-0.036 0.139999,-0.034 h 0.138 l 0.172997,-0.035 0.140003,-0.034 0.173,-0.035 0.136998,-0.034 h 0.173999 l 0.139,-0.035 0.174,-0.036 0.138001,-0.034 0.173,-0.034 h 0.139 l 0.174,-0.035 0.138,-0.034 0.139,-0.036 h 0.173001 l 0.138999,-0.034 0.173001,-0.035 0.138996,-0.034 0.174004,-0.034 h 0.138 l 0.172001,-0.036 0.139,-0.035 0.174,-0.034 h 0.139 l 0.173,-0.035 0.138,-0.034 0.139,-0.034 H 61.43 l 0.138005,-0.035 0.173999,-0.036 0.139,-0.034 h 0.173001 l 0.139,-0.034 0.171997,-0.03599 0.139999,-0.034 h 0.173 l 0.139,-0.034 0.172997,-0.036 0.139004,-0.034 m -30.646,8.25 0.173,-0.103 0.139,-0.105 0.174,-0.103 0.138,-0.105004 0.172997,-0.103996 0.139004,-0.069 0.173,-0.104 0.139,-0.104001 0.138996,-0.069 0.174004,-0.069 0.138,-0.105 0.171997,-0.069 0.139,-0.069 0.174,-0.069 0.139,-0.103997 0.173,-0.071 0.138001,-0.068 0.173999,-0.07 0.139,-0.07 0.174,-0.068 0.138001,-0.069 0.139,-0.036 0.173,-0.069 0.138,-0.068 0.173001,-0.071 0.139999,-0.069 0.173,-0.034 0.139,-0.069 0.172997,-0.071 0.139004,-0.069 0.173,-0.034 0.137997,-0.07 0.173004,-0.034 0.139,-0.069 0.174,-0.07 0.138,-0.035 0.139,-0.069 0.174,-0.034 0.138,-0.069 0.173001,-0.035 0.138999,-0.07 0.172997,-0.034 0.139999,-0.069 0.173005,-0.035 0.136997,-0.07 0.174,-0.034 0.138999,-0.035 0.174,-0.07 0.138001,-0.034 0.139,-0.069 0.173999,-0.034 0.137002,-0.035 0.173999,-0.07 0.139,-0.035 0.173001,-0.034 0.138996,-0.069 0.173004,-0.036 0.139,-0.034 0.174,-0.034 0.137001,-0.07 0.173999,-0.034 0.139,-0.036 0.139,-0.034 0.172001,-0.069 0.14,-0.035 0.172996,-0.034 0.139004,-0.035 0.172001,-0.07 0.138996,-0.034 0.174003,-0.034 0.139,-0.035 0.173001,-0.035 0.139,-0.035 0.171997,-0.069 0.140003,-0.034 0.172996,-0.035 0.138001,-0.036 0.139999,-0.034 0.173001,-0.034 0.137001,-0.035 0.173999,-0.034 0.139,-0.071 0.174,-0.034 0.138001,-0.035 0.173,-0.034 0.139,-0.034 0.174,-0.035 0.138,-0.036 0.172997,-0.034 0.139004,-0.034 0.138999,-0.035 0.173001,-0.035 0.138996,-0.034 0.174004,-0.035 0.138,-0.035 0.172001,-0.035 0.139,-0.033 0.174,-0.036 0.139,-0.034" /><path
                 id="path114"
                 style="fill:none;stroke:#231f20;stroke-width:0.40000001;stroke-linecap:butt;stroke-linejoin:round;stroke-miterlimit:10;stroke-dasharray:none;stroke-opacity:1"
                 d="m 30.957001,56.909004 0.140001,-0.728 0.172997,-0.313 0.138002,-0.242001 0.174,-0.173 0.139,-0.173004 0.137001,-0.172997 0.173999,-0.139999 0.139,-0.138001 0.174,-0.104 0.138001,-0.139" /></g></g><g
             id="g116"><text
               id="text120"
               style="font-variant:normal;font-weight:normal;font-size:12.43319988px;font-family:CMMI12;-inkscape-font-specification:CMMI12;writing-mode:lr-tb;fill:#231f20;fill-opacity:1;fill-rule:nonzero;stroke:none"
               transform="matrix(1,0,0,-1,183.77101,46.115498)"><tspan
                 id="tspan118"
                 y="0"
                 x="0">x</tspan></text>
<text
               id="text124"
               style="font-variant:normal;font-weight:normal;font-size:12.43319988px;font-family:CMMI12;-inkscape-font-specification:CMMI12;writing-mode:lr-tb;fill:#231f20;fill-opacity:1;fill-rule:nonzero;stroke:none"
               transform="matrix(1,0,0,-1,19.824348,113.97591)"><tspan
                 id="tspan122"
                 y="0"
                 x="0">y</tspan></text>
<text
               id="text128"
               style="font-variant:normal;font-weight:normal;font-size:12.43319988px;font-family:CMMI12;-inkscape-font-specification:CMMI12;writing-mode:lr-tb;fill:#231f20;fill-opacity:1;fill-rule:nonzero;stroke:none"
               transform="matrix(1,0,0,-1,187.60416,74.585045)"><tspan
                 id="tspan126"
                 y="0"
                 x="0">y</tspan></text>
<text
               id="text132"
               style="font-variant:normal;font-weight:normal;font-size:8.28880024px;font-family:CMR8;-inkscape-font-specification:CMR8;writing-mode:lr-tb;fill:#231f20;fill-opacity:1;fill-rule:nonzero;stroke:none"
               transform="matrix(1,0,0,-1,193.98601,79.720001)"><tspan
                 id="tspan130"
                 y="0"
                 x="0">2</tspan></text>
<text
               id="text136"
               style="font-variant:normal;font-weight:normal;font-size:12.43319988px;font-family:CMR12;-inkscape-font-specification:CMR12;writing-mode:lr-tb;fill:#231f20;fill-opacity:1;fill-rule:nonzero;stroke:none"
               transform="matrix(1,0,0,-1,202.36101,74.585297)"><tspan
                 id="tspan134"
                 y="0"
                 x="0">=</tspan></text>
<text
               id="text140"
               style="font-variant:normal;font-weight:normal;font-size:12.43319988px;font-family:CMMI12;-inkscape-font-specification:CMMI12;writing-mode:lr-tb;fill:#231f20;fill-opacity:1;fill-rule:nonzero;stroke:none"
               transform="matrix(1,0,0,-1,215.28407,74.585297)"><tspan
                 id="tspan138"
                 y="0"
                 x="0">x</tspan></text>
<text
               id="text144"
               style="font-variant:normal;font-weight:normal;font-size:12.43319988px;font-family:CMMI12;-inkscape-font-specification:CMMI12;writing-mode:lr-tb;fill:#231f20;fill-opacity:1;fill-rule:nonzero;stroke:none"
               transform="matrix(1,0,0,-1,187.21489,96.035049)"><tspan
                 id="tspan142"
                 y="0"
                 x="0">y</tspan></text>
<text
               id="text148"
               style="font-variant:normal;font-weight:normal;font-size:8.28880024px;font-family:CMR8;-inkscape-font-specification:CMR8;writing-mode:lr-tb;fill:#231f20;fill-opacity:1;fill-rule:nonzero;stroke:none"
               transform="matrix(1,0,0,-1,193.59601,101.1692)"><tspan
                 id="tspan146"
                 y="0"
                 x="0">2</tspan></text>
<text
               id="text152"
               style="font-variant:normal;font-weight:normal;font-size:12.43319988px;font-family:CMR12;-inkscape-font-specification:CMR12;writing-mode:lr-tb;fill:#231f20;fill-opacity:1;fill-rule:nonzero;stroke:none"
               transform="matrix(1,0,0,-1,201.97101,96.0355)"><tspan
                 id="tspan150"
                 y="0"
                 x="0">=</tspan></text>
<text
               id="text156"
               style="font-variant:normal;font-weight:normal;font-size:12.43319988px;font-family:CMR12;-inkscape-font-specification:CMR12;writing-mode:lr-tb;fill:#231f20;fill-opacity:1;fill-rule:nonzero;stroke:none"
               transform="matrix(1,0,0,-1,214.89407,96.0355)"><tspan
                 id="tspan154"
                 y="0"
                 x="0">2</tspan></text>
<text
               id="text160"
               style="font-variant:normal;font-weight:normal;font-size:12.43319988px;font-family:CMMI12;-inkscape-font-specification:CMMI12;writing-mode:lr-tb;fill:#231f20;fill-opacity:1;fill-rule:nonzero;stroke:none"
               transform="matrix(1,0,0,-1,220.98262,96.0355)"><tspan
                 id="tspan158"
                 y="0"
                 x="0">x</tspan></text>
<text
               id="text164"
               style="font-variant:normal;font-weight:normal;font-size:12.43319988px;font-family:CMMI12;-inkscape-font-specification:CMMI12;writing-mode:lr-tb;fill:#231f20;fill-opacity:1;fill-rule:nonzero;stroke:none"
               transform="matrix(1,0,0,-1,188.7222,114.49507)"><tspan
                 id="tspan162"
                 y="0"
                 x="0">y</tspan></text>
<text
               id="text168"
               style="font-variant:normal;font-weight:normal;font-size:8.28880024px;font-family:CMR8;-inkscape-font-specification:CMR8;writing-mode:lr-tb;fill:#231f20;fill-opacity:1;fill-rule:nonzero;stroke:none"
               transform="matrix(1,0,0,-1,195.104,119.6292)"><tspan
                 id="tspan166"
                 y="0"
                 x="0">2</tspan></text>
<text
               id="text172"
               style="font-variant:normal;font-weight:normal;font-size:12.43319988px;font-family:CMR12;-inkscape-font-specification:CMR12;writing-mode:lr-tb;fill:#231f20;fill-opacity:1;fill-rule:nonzero;stroke:none"
               transform="matrix(1,0,0,-1,203.479,114.4954)"><tspan
                 id="tspan170"
                 y="0"
                 x="0">=</tspan></text>
<text
               id="text176"
               style="font-variant:normal;font-weight:normal;font-size:12.43319988px;font-family:CMR12;-inkscape-font-specification:CMR12;writing-mode:lr-tb;fill:#231f20;fill-opacity:1;fill-rule:nonzero;stroke:none"
               transform="matrix(1,0,0,-1,216.40083,114.4954)"><tspan
                 id="tspan174"
                 y="0"
                 x="0">3</tspan></text>
<text
               id="text180"
               style="font-variant:normal;font-weight:normal;font-size:12.43319988px;font-family:CMMI12;-inkscape-font-specification:CMMI12;writing-mode:lr-tb;fill:#231f20;fill-opacity:1;fill-rule:nonzero;stroke:none"
               transform="matrix(1,0,0,-1,222.48688,114.4954)"><tspan
                 id="tspan178"
                 y="0"
                 x="0">x</tspan></text>
</g></g></g></g></g></svg>