<?xml version="1.0" encoding="UTF-8" standalone="no"?>
<svg
   xmlns:dc="http://purl.org/dc/elements/1.1/"
   xmlns:cc="http://creativecommons.org/ns#"
   xmlns:rdf="http://www.w3.org/1999/02/22-rdf-syntax-ns#"
   xmlns:svg="http://www.w3.org/2000/svg"
   xmlns="http://www.w3.org/2000/svg"
   viewBox="0 0 529.33331 158.66667"
   height="158.66667"
   width="529.33331"
   xml:space="preserve"
   id="svg2"
   version="1.1"><metadata
     id="metadata8"><rdf:RDF><cc:Work
         rdf:about=""><dc:format>image/svg+xml</dc:format><dc:type
           rdf:resource="http://purl.org/dc/dcmitype/StillImage" /></cc:Work></rdf:RDF></metadata><defs
     id="defs6"><clipPath
       id="clipPath24"
       clipPathUnits="userSpaceOnUse"><path
         id="path22"
         d="M 0,0 H 397 V 119 H 0 Z" /></clipPath></defs><g
     transform="matrix(1.3333333,0,0,-1.3333333,0,158.66667)"
     id="g10"><g
       id="g12" /><g
       id="g14" /><g
       id="g16"><g
         id="g18"><g
           clip-path="url(#clipPath24)"
           id="g20"><g
             id="g26" /><g
             id="g28"><path
               id="path30"
               style="fill:none;stroke:#231f20;stroke-width:1;stroke-linecap:butt;stroke-linejoin:miter;stroke-miterlimit:4;stroke-dasharray:none;stroke-opacity:1"
               d="M 2.4380002,20.428001 V 112.05901 M 110.33301,19.834002 H 2.4380002" /><path
               id="path32"
               style="fill:#231f20;fill-opacity:1;fill-rule:nonzero;stroke:none"
               d="M 1.243,113.03101 C 0.82700002,111.65301 0.44300002,110.759 0,109.65401 h 4.2020001 c -0.1869998,0.39499 -0.8269999,1.999 -1.243,3.377 -0.444,1.47399 -0.75,2.81099 -0.858,3.677 C 1.9920001,115.842 1.687,114.505 1.243,113.03101" /><path
               id="path34"
               style="fill:#231f20;fill-opacity:1;fill-rule:nonzero;stroke:none"
               d="m 111.896,20.931002 c -1.376,0.414999 -2.27099,0.798998 -3.376,1.243 v -4.204003 c 0.39501,0.188002 2,0.828001 3.376,1.244002 1.47701,0.444999 2.81101,0.75 3.67801,0.858 -0.867,0.109001 -2.201,0.413999 -3.67801,0.859001" /><path
               id="path36"
               style="fill:none;stroke:#231f20;stroke-width:1;stroke-linecap:butt;stroke-linejoin:miter;stroke-miterlimit:4;stroke-dasharray:none;stroke-opacity:1"
               d="M 141.839,21.279001 V 112.909 M 249.73302,20.684002 H 141.839" /><path
               id="path38"
               style="fill:#231f20;fill-opacity:1;fill-rule:nonzero;stroke:none"
               d="m 140.64301,113.881 c -0.416,-1.37799 -0.799,-2.27199 -1.243,-3.37699 h 4.202 c -0.187,0.39499 -0.827,1.999 -1.24201,3.37699 -0.444,1.474 -0.75,2.81101 -0.85799,3.67701 -0.109,-0.866 -0.414,-2.20301 -0.859,-3.67701" /><path
               id="path40"
               style="fill:#231f20;fill-opacity:1;fill-rule:nonzero;stroke:none"
               d="m 251.29601,21.779999 c -1.377,0.416002 -2.27199,0.800001 -3.37601,1.243002 v -4.202 c 0.39502,0.188 1.99901,0.827 3.37601,1.243 1.47601,0.445 2.811,0.75 3.678,0.858999 -0.867,0.108 -2.20199,0.413 -3.678,0.856999" /><path
               id="path42"
               style="fill:none;stroke:#231f20;stroke-width:1;stroke-linecap:butt;stroke-linejoin:miter;stroke-miterlimit:4;stroke-dasharray:none;stroke-opacity:1"
               d="M 283.789,22.129002 V 113.759 M 391.68301,21.534 H 283.789" /><path
               id="path44"
               style="fill:#231f20;fill-opacity:1;fill-rule:nonzero;stroke:none"
               d="m 282.59302,114.731 c -0.41602,-1.378 -0.79901,-2.27299 -1.24201,-3.377 h 4.20099 c -0.18799,0.39501 -0.82599,1.999 -1.241,3.377 -0.44497,1.474 -0.751,2.81001 -0.85897,3.677 -0.10901,-0.86699 -0.41401,-2.203 -0.85901,-3.677" /><path
               id="path46"
               style="fill:#231f20;fill-opacity:1;fill-rule:nonzero;stroke:none"
               d="m 393.24701,22.631001 c -1.37701,0.416 -2.272,0.798999 -3.37701,1.242 v -4.202 c 0.39501,0.188 2,0.827 3.37701,1.243 1.47601,0.445 2.811,0.75 3.677,0.858 -0.866,0.109 -2.20099,0.414 -3.677,0.859" /><text
               id="text50"
               style="font-variant:normal;font-weight:normal;font-size:11.95500088px;font-family:CMR12;-inkscape-font-specification:CMR12;writing-mode:lr-tb;fill:#231f20;fill-opacity:1;fill-rule:nonzero;stroke:none"
               transform="matrix(1,0,0,-1,26.851099,22.1761)"><tspan
                 id="tspan48"
                 y="0"
                 x="0">+</tspan></text>
<text
               id="text54"
               style="font-variant:normal;font-weight:normal;font-size:11.95500088px;font-family:CMR12;-inkscape-font-specification:CMR12;writing-mode:lr-tb;fill:#231f20;fill-opacity:1;fill-rule:nonzero;stroke:none"
               transform="matrix(1,0,0,-1,333.85074,36.176601)"><tspan
                 id="tspan52"
                 y="0"
                 x="0">+</tspan></text>
<text
               id="text58"
               style="font-variant:normal;font-weight:normal;font-size:11.95500088px;font-family:CMR12;-inkscape-font-specification:CMR12;writing-mode:lr-tb;fill:#231f20;fill-opacity:1;fill-rule:nonzero;stroke:none"
               transform="matrix(1,0,0,-1,300.85016,36.176601)"><tspan
                 id="tspan56"
                 y="0"
                 x="0">+</tspan></text>
<text
               id="text62"
               style="font-variant:normal;font-weight:normal;font-size:11.95500088px;font-family:CMR12;-inkscape-font-specification:CMR12;writing-mode:lr-tb;fill:#231f20;fill-opacity:1;fill-rule:nonzero;stroke:none"
               transform="matrix(1,0,0,-1,321.85031,57.176754)"><tspan
                 id="tspan60"
                 y="0"
                 x="0">+</tspan></text>
<text
               id="text66"
               style="font-variant:normal;font-weight:normal;font-size:11.95500088px;font-family:CMR12;-inkscape-font-specification:CMR12;writing-mode:lr-tb;fill:#231f20;fill-opacity:1;fill-rule:nonzero;stroke:none"
               transform="matrix(1,0,0,-1,358.84985,92.176216)"><tspan
                 id="tspan64"
                 y="0"
                 x="0">+</tspan></text>
<text
               id="text70"
               style="font-variant:normal;font-weight:normal;font-size:11.95500088px;font-family:CMR12;-inkscape-font-specification:CMR12;writing-mode:lr-tb;fill:#231f20;fill-opacity:1;fill-rule:nonzero;stroke:none"
               transform="matrix(1,0,0,-1,364.85007,45.176327)"><tspan
                 id="tspan68"
                 y="0"
                 x="0">+</tspan></text>
<text
               id="text74"
               style="font-variant:normal;font-weight:normal;font-size:11.95500088px;font-family:CMR12;-inkscape-font-specification:CMR12;writing-mode:lr-tb;fill:#231f20;fill-opacity:1;fill-rule:nonzero;stroke:none"
               transform="matrix(1,0,0,-1,298.8501,60.176266)"><tspan
                 id="tspan72"
                 y="0"
                 x="0">+</tspan></text>
<text
               id="text78"
               style="font-variant:normal;font-weight:normal;font-size:11.95500088px;font-family:CMR12;-inkscape-font-specification:CMR12;writing-mode:lr-tb;fill:#231f20;fill-opacity:1;fill-rule:nonzero;stroke:none"
               transform="matrix(1,0,0,-1,352.84964,74.176765)"><tspan
                 id="tspan76"
                 y="0"
                 x="0">+</tspan></text>
<text
               id="text82"
               style="font-variant:normal;font-weight:normal;font-size:11.95500088px;font-family:CMR12;-inkscape-font-specification:CMR12;writing-mode:lr-tb;fill:#231f20;fill-opacity:1;fill-rule:nonzero;stroke:none"
               transform="matrix(1,0,0,-1,329.84943,105.17728)"><tspan
                 id="tspan80"
                 y="0"
                 x="0">+</tspan></text>
<text
               id="text86"
               style="font-variant:normal;font-weight:normal;font-size:11.95500088px;font-family:CMR12;-inkscape-font-specification:CMR12;writing-mode:lr-tb;fill:#231f20;fill-opacity:1;fill-rule:nonzero;stroke:none"
               transform="matrix(1,0,0,-1,299.84955,86.177193)"><tspan
                 id="tspan84"
                 y="0"
                 x="0">+</tspan></text>
<text
               id="text90"
               style="font-variant:normal;font-weight:normal;font-size:11.95500088px;font-family:CMR12;-inkscape-font-specification:CMR12;writing-mode:lr-tb;fill:#231f20;fill-opacity:1;fill-rule:nonzero;stroke:none"
               transform="matrix(1,0,0,-1,147.85008,45.177517)"><tspan
                 id="tspan88"
                 y="0"
                 x="0">+</tspan></text>
<text
               id="text94"
               style="font-variant:normal;font-weight:normal;font-size:11.95500088px;font-family:CMR12;-inkscape-font-specification:CMR12;writing-mode:lr-tb;fill:#231f20;fill-opacity:1;fill-rule:nonzero;stroke:none"
               transform="matrix(1,0,0,-1,210.85054,88.177261)"><tspan
                 id="tspan92"
                 y="0"
                 x="0">+</tspan></text>
<text
               id="text98"
               style="font-variant:normal;font-weight:normal;font-size:11.95500088px;font-family:CMR12;-inkscape-font-specification:CMR12;writing-mode:lr-tb;fill:#231f20;fill-opacity:1;fill-rule:nonzero;stroke:none"
               transform="matrix(1,0,0,-1,224.85104,108.17678)"><tspan
                 id="tspan96"
                 y="0"
                 x="0">+</tspan></text>
<text
               id="text102"
               style="font-variant:normal;font-weight:normal;font-size:11.95500088px;font-family:CMR12;-inkscape-font-specification:CMR12;writing-mode:lr-tb;fill:#231f20;fill-opacity:1;fill-rule:nonzero;stroke:none"
               transform="matrix(1,0,0,-1,218.85083,93.176842)"><tspan
                 id="tspan100"
                 y="0"
                 x="0">+</tspan></text>
<text
               id="text106"
               style="font-variant:normal;font-weight:normal;font-size:11.95500088px;font-family:CMR12;-inkscape-font-specification:CMR12;writing-mode:lr-tb;fill:#231f20;fill-opacity:1;fill-rule:nonzero;stroke:none"
               transform="matrix(1,0,0,-1,203.85089,92.176208)"><tspan
                 id="tspan104"
                 y="0"
                 x="0">+</tspan></text>
<text
               id="text110"
               style="font-variant:normal;font-weight:normal;font-size:11.95500088px;font-family:CMR12;-inkscape-font-specification:CMR12;writing-mode:lr-tb;fill:#231f20;fill-opacity:1;fill-rule:nonzero;stroke:none"
               transform="matrix(1,0,0,-1,187.85031,62.176331)"><tspan
                 id="tspan108"
                 y="0"
                 x="0">+</tspan></text>
<text
               id="text114"
               style="font-variant:normal;font-weight:normal;font-size:11.95500088px;font-family:CMR12;-inkscape-font-specification:CMR12;writing-mode:lr-tb;fill:#231f20;fill-opacity:1;fill-rule:nonzero;stroke:none"
               transform="matrix(1,0,0,-1,197.85066,73.176125)"><tspan
                 id="tspan112"
                 y="0"
                 x="0">+</tspan></text>
<text
               id="text118"
               style="font-variant:normal;font-weight:normal;font-size:11.95500088px;font-family:CMR12;-inkscape-font-specification:CMR12;writing-mode:lr-tb;fill:#231f20;fill-opacity:1;fill-rule:nonzero;stroke:none"
               transform="matrix(1,0,0,-1,182.85072,78.175705)"><tspan
                 id="tspan116"
                 y="0"
                 x="0">+</tspan></text>
<text
               id="text122"
               style="font-variant:normal;font-weight:normal;font-size:11.95500088px;font-family:CMR12;-inkscape-font-specification:CMR12;writing-mode:lr-tb;fill:#231f20;fill-opacity:1;fill-rule:nonzero;stroke:none"
               transform="matrix(1,0,0,-1,175.85107,62.175133)"><tspan
                 id="tspan120"
                 y="0"
                 x="0">+</tspan></text>
<text
               id="text126"
               style="font-variant:normal;font-weight:normal;font-size:11.95500088px;font-family:CMR12;-inkscape-font-specification:CMR12;writing-mode:lr-tb;fill:#231f20;fill-opacity:1;fill-rule:nonzero;stroke:none"
               transform="matrix(1,0,0,-1,159.85049,59.175625)"><tspan
                 id="tspan124"
                 y="0"
                 x="0">+</tspan></text>
<text
               id="text130"
               style="font-variant:normal;font-weight:normal;font-size:11.95500088px;font-family:CMR12;-inkscape-font-specification:CMR12;writing-mode:lr-tb;fill:#231f20;fill-opacity:1;fill-rule:nonzero;stroke:none"
               transform="matrix(1,0,0,-1,154.85091,47.175198)"><tspan
                 id="tspan128"
                 y="0"
                 x="0">+</tspan></text>
<text
               id="text134"
               style="font-variant:normal;font-weight:normal;font-size:11.95500088px;font-family:CMR12;-inkscape-font-specification:CMR12;writing-mode:lr-tb;fill:#231f20;fill-opacity:1;fill-rule:nonzero;stroke:none"
               transform="matrix(1,0,0,-1,143.8511,33.174694)"><tspan
                 id="tspan132"
                 y="0"
                 x="0">+</tspan></text>
<text
               id="text138"
               style="font-variant:normal;font-weight:normal;font-size:11.95500088px;font-family:CMR12;-inkscape-font-specification:CMR12;writing-mode:lr-tb;fill:#231f20;fill-opacity:1;fill-rule:nonzero;stroke:none"
               transform="matrix(1,0,0,-1,36.851456,32.174061)"><tspan
                 id="tspan136"
                 y="0"
                 x="0">+</tspan></text>
<text
               id="text142"
               style="font-variant:normal;font-weight:normal;font-size:11.95500088px;font-family:CMR12;-inkscape-font-specification:CMR12;writing-mode:lr-tb;fill:#231f20;fill-opacity:1;fill-rule:nonzero;stroke:none"
               transform="matrix(1,0,0,-1,83.851341,102.17418)"><tspan
                 id="tspan140"
                 y="0"
                 x="0">+</tspan></text>
<text
               id="text146"
               style="font-variant:normal;font-weight:normal;font-size:11.95500088px;font-family:CMR12;-inkscape-font-specification:CMR12;writing-mode:lr-tb;fill:#231f20;fill-opacity:1;fill-rule:nonzero;stroke:none"
               transform="matrix(1,0,0,-1,75.851051,82.17466)"><tspan
                 id="tspan144"
                 y="0"
                 x="0">+</tspan></text>
<text
               id="text150"
               style="font-variant:normal;font-weight:normal;font-size:11.95500088px;font-family:CMR12;-inkscape-font-specification:CMR12;writing-mode:lr-tb;fill:#231f20;fill-opacity:1;fill-rule:nonzero;stroke:none"
               transform="matrix(1,0,0,-1,76.851685,61.174507)"><tspan
                 id="tspan148"
                 y="0"
                 x="0">+</tspan></text>
<text
               id="text154"
               style="font-variant:normal;font-weight:normal;font-size:11.95500088px;font-family:CMR12;-inkscape-font-specification:CMR12;writing-mode:lr-tb;fill:#231f20;fill-opacity:1;fill-rule:nonzero;stroke:none"
               transform="matrix(1,0,0,-1,61.851746,58.174999)"><tspan
                 id="tspan152"
                 y="0"
                 x="0">+</tspan></text>
<text
               id="text158"
               style="font-variant:normal;font-weight:normal;font-size:11.95500088px;font-family:CMR12;-inkscape-font-specification:CMR12;writing-mode:lr-tb;fill:#231f20;fill-opacity:1;fill-rule:nonzero;stroke:none"
               transform="matrix(1,0,0,-1,60.851112,35.174774)"><tspan
                 id="tspan156"
                 y="0"
                 x="0">+</tspan></text>
<text
               id="text162"
               style="font-variant:normal;font-weight:normal;font-size:11.95500088px;font-family:CMR12;-inkscape-font-specification:CMR12;writing-mode:lr-tb;fill:#231f20;fill-opacity:1;fill-rule:nonzero;stroke:none"
               transform="matrix(1,0,0,-1,40.851593,39.174919)"><tspan
                 id="tspan160"
                 y="0"
                 x="0">+</tspan></text>
<text
               id="text166"
               style="font-variant:normal;font-weight:normal;font-size:11.95500088px;font-family:CMR12;-inkscape-font-specification:CMR12;writing-mode:lr-tb;fill:#231f20;fill-opacity:1;fill-rule:nonzero;stroke:none"
               transform="matrix(1,0,0,-1,7.8510108,24.17498)"><tspan
                 id="tspan164"
                 y="0"
                 x="0">+</tspan></text>
<path
               id="path168"
               style="fill:none;stroke:#231f20;stroke-width:1;stroke-linecap:butt;stroke-linejoin:miter;stroke-miterlimit:4;stroke-dasharray:none;stroke-opacity:1"
               d="M 87.987007,99.285004 C 78.678001,56.316002 48.092003,24.041 10.972,20.609001 m 131.931,17.697003 87.00002,70.000006" /><text
               id="text172"
               style="font-variant:normal;font-weight:normal;font-size:11.95500088px;font-family:CMR12;-inkscape-font-specification:CMR12;writing-mode:lr-tb;fill:#231f20;fill-opacity:1;fill-rule:nonzero;stroke:none"
               transform="matrix(1,0,0,-1,19.851099,24.1761)"><tspan
                 id="tspan170"
                 y="0"
                 x="0">+</tspan></text>
<text
               id="text176"
               style="font-variant:normal;font-weight:normal;font-size:11.95500088px;font-family:CMR12;-inkscape-font-specification:CMR12;writing-mode:lr-tb;fill:#231f20;fill-opacity:1;fill-rule:nonzero;stroke:none"
               transform="matrix(1,0,0,-1,54.850559,51.176468)"><tspan
                 id="tspan174"
                 y="0"
                 x="0">+</tspan></text>
<text
               id="text180"
               style="font-variant:normal;font-weight:normal;font-size:11.95500088px;font-family:CMR12;-inkscape-font-specification:CMR12;writing-mode:lr-tb;fill:#231f20;fill-opacity:1;fill-rule:nonzero;stroke:none"
               transform="matrix(1,0,0,-1,376.85013,72.17662)"><tspan
                 id="tspan178"
                 y="0"
                 x="0">+</tspan></text>
<text
               id="text184"
               style="font-variant:normal;font-weight:normal;font-size:11.95500088px;font-family:CMR12;-inkscape-font-specification:CMR12;writing-mode:lr-tb;fill:#231f20;fill-opacity:1;fill-rule:nonzero;stroke:none"
               transform="matrix(1,0,0,-1,323.85004,80.17691)"><tspan
                 id="tspan182"
                 y="0"
                 x="0">+</tspan></text>
<text
               id="text188"
               style="font-variant:normal;font-weight:normal;font-size:11.95500088px;font-family:CMSSBX10;-inkscape-font-specification:CMSSBX10;writing-mode:lr-tb;fill:#231f20;fill-opacity:1;fill-rule:nonzero;stroke:none"
               transform="matrix(1,0,0,-1,33.402103,2.9894466)"><tspan
                 id="tspan186"
                 y="0"
                 x="0 7.3045058 10.364985 16.940237 23.646992 28.094252">Figure</tspan></text>
<text
               id="text192"
               style="font-variant:normal;font-weight:normal;font-size:11.95500088px;font-family:CMSSBX10;-inkscape-font-specification:CMSSBX10;writing-mode:lr-tb;fill:#231f20;fill-opacity:1;fill-rule:nonzero;stroke:none"
               transform="matrix(1,0,0,-1,71.989258,2.9894466)"><tspan
                 id="tspan190"
                 y="0"
                 x="0">1</tspan></text>
<text
               id="text196"
               style="font-variant:normal;font-weight:normal;font-size:11.95500088px;font-family:CMSSBX10;-inkscape-font-specification:CMSSBX10;writing-mode:lr-tb;fill:#231f20;fill-opacity:1;fill-rule:nonzero;stroke:none"
               transform="matrix(1,0,0,-1,167.40092,2.9894466)"><tspan
                 id="tspan194"
                 y="0"
                 x="0 7.3045058 10.364985 16.940237 23.646992 28.094252">Figure</tspan></text>
<text
               id="text200"
               style="font-variant:normal;font-weight:normal;font-size:11.95500088px;font-family:CMSSBX10;-inkscape-font-specification:CMSSBX10;writing-mode:lr-tb;fill:#231f20;fill-opacity:1;fill-rule:nonzero;stroke:none"
               transform="matrix(1,0,0,-1,205.9893,2.9894466)"><tspan
                 id="tspan198"
                 y="0"
                 x="0">2</tspan></text>
<text
               id="text204"
               style="font-variant:normal;font-weight:normal;font-size:11.95500088px;font-family:CMSSBX10;-inkscape-font-specification:CMSSBX10;writing-mode:lr-tb;fill:#231f20;fill-opacity:1;fill-rule:nonzero;stroke:none"
               transform="matrix(1,0,0,-1,313.40256,3.9900801)"><tspan
                 id="tspan202"
                 y="0"
                 x="0 7.3045058 10.364985 16.940237 23.646992 28.094252">Figure</tspan></text>
<text
               id="text208"
               style="font-variant:normal;font-weight:normal;font-size:11.95500088px;font-family:CMSSBX10;-inkscape-font-specification:CMSSBX10;writing-mode:lr-tb;fill:#231f20;fill-opacity:1;fill-rule:nonzero;stroke:none"
               transform="matrix(1,0,0,-1,351.99094,3.9900801)"><tspan
                 id="tspan206"
                 y="0"
                 x="0">3</tspan></text>
</g></g></g></g></g></svg>