<?xml version="1.0" encoding="UTF-8" standalone="no"?>
<svg
   xmlns:dc="http://purl.org/dc/elements/1.1/"
   xmlns:cc="http://creativecommons.org/ns#"
   xmlns:rdf="http://www.w3.org/1999/02/22-rdf-syntax-ns#"
   xmlns:svg="http://www.w3.org/2000/svg"
   xmlns="http://www.w3.org/2000/svg"
   viewBox="0 0 625.33331 169.33333"
   height="169.33333"
   width="625.33331"
   xml:space="preserve"
   id="svg2"
   version="1.1"><metadata
     id="metadata8"><rdf:RDF><cc:Work
         rdf:about=""><dc:format>image/svg+xml</dc:format><dc:type
           rdf:resource="http://purl.org/dc/dcmitype/StillImage" /></cc:Work></rdf:RDF></metadata><defs
     id="defs6"><clipPath
       id="clipPath24"
       clipPathUnits="userSpaceOnUse"><path
         id="path22"
         d="M 0,0 H 469 V 127 H 0 Z" /></clipPath></defs><g
     transform="matrix(1.3333333,0,0,-1.3333333,0,169.33333)"
     id="g10"><g
       id="g12" /><g
       id="g14" /><g
       id="g16"><g
         id="g18"><g
           clip-path="url(#clipPath24)"
           id="g20"><g
             id="g26" /><g
             id="g28"><path
               id="path30"
               style="fill:#000000;fill-opacity:1;fill-rule:nonzero;stroke:#000000;stroke-width:0.5;stroke-linecap:butt;stroke-linejoin:miter;stroke-miterlimit:4;stroke-dasharray:none;stroke-opacity:1"
               d="m 138.94501,29.184002 -1.53301,2.521999 0.086,0.057 4.112,-1.634 c 1.43401,-0.315001 2.86601,-0.630001 4.29901,-0.945 -1.433,-0.316 -2.865,-0.631001 -4.29901,-0.946001 l -4.112,-1.633999 -0.086,0.043 z" /><path
               id="path32"
               style="fill:#000000;fill-opacity:1;fill-rule:nonzero;stroke:#000000;stroke-width:0.5;stroke-linecap:butt;stroke-linejoin:miter;stroke-miterlimit:4;stroke-dasharray:none;stroke-opacity:1"
               d="m 74.087006,86.072006 -2.522004,-1.533005 -0.057,0.08601 1.634003,4.111999 c 0.314995,1.432991 0.630997,2.865997 0.945,4.298996 0.315994,-1.432999 0.630996,-2.866005 0.945999,-4.298996 l 1.634002,-4.111999 -0.04301,-0.08601 -2.536995,1.533005 z" /><path
               id="path34"
               style="fill:none;stroke:#000000;stroke-width:0.5;stroke-linecap:butt;stroke-linejoin:round;stroke-miterlimit:4;stroke-dasharray:none;stroke-opacity:1"
               d="M 0,28.992001 H 139.42 M 74.017006,16 v 73.092003" /><path
               id="path36"
               style="fill:none;stroke:#000000;stroke-width:1;stroke-linecap:butt;stroke-linejoin:round;stroke-miterlimit:4;stroke-dasharray:none;stroke-opacity:1"
               d="m 58.689999,34.715 0.159999,0.053 0.187005,0.053 0.159,0.054 0.187,0.08 0.16,0.053 0.186997,0.054 0.187004,0.053 0.159999,0.08 0.186001,0.053 0.16,0.054 0.186993,0.079 0.160003,0.054 0.187005,0.08 0.159999,0.053 0.185997,0.08 0.16,0.053 0.186997,0.08 0.16,0.054 0.187004,0.08 0.159,0.053 0.187,0.08 0.186997,0.08 0.16,0.054 0.187004,0.079 0.16,0.081 0.186,0.079 0.16,0.054 0.186997,0.08 0.16,0.08 0.187004,0.08 0.159999,0.08 0.185997,0.08 0.160004,0.08 0.186997,0.08 0.159996,0.08 0.187004,0.08 0.186004,0.08 0.159996,0.08 0.186997,0.08 0.160004,0.08 0.186004,0.105999 0.160996,0.08 0.186004,0.08 0.159996,0.106998 0.186997,0.08 0.159996,0.08 0.187012,0.107003 0.159996,0.08 0.185997,0.106002 0.160003,0.08 0.186997,0.107003 0.159996,0.08 0.187004,0.106998 0.186004,0.106003 0.159996,0.08 0.186997,0.107002 0.160004,0.106999 0.186004,0.105999 0.160996,0.08 0.186004,0.106998 0.159996,0.107002 0.186997,0.105999 0.160004,0.106999 0.186004,0.107002 0.160996,0.105999 0.186004,0.133999 0.159996,0.106003 0.373001,0.213996 0.161004,0.133004 0.185997,0.106998 0.159996,0.105999 0.186996,0.134003 0.160004,0.105999 0.186004,0.133999 0.160996,0.105999 0.186004,0.134002 0.159996,0.133 0.186997,0.106998 0.160004,0.133 0.186004,0.133003 0.160996,0.133999 0.186004,0.132999 0.159996,0.106999 0.186997,0.133003 0.186005,0.16 0.160003,0.132999 0.186997,0.133999 0.160003,0.132999 0.186989,0.133 0.160004,0.16 0.186004,0.134002 0.161004,0.133 0.185997,0.16 0.160003,0.132999 0.186989,0.16 0.160004,0.16 0.186004,0.133999 L 75.917,44.395 m -34.48,-13.279998 0.187001,0.027 0.159,0.026 h 0.186996 l 0.16,0.027 0.187004,0.027 0.16,0.026 0.187,0.027 0.159001,0.026 h 0.186996 l 0.187004,0.027 0.16,0.027 0.187001,0.026 0.159999,0.027 0.185997,0.027 0.16,0.026 0.187004,0.027 0.16,0.027 0.187,0.026 0.159001,0.027 0.186996,0.027 0.16,0.027 0.187,0.026 0.16,0.027 0.187001,0.026 0.159,0.027 0.186996,0.027 0.187004,0.026 0.159001,0.027 0.187,0.027 0.16,0.026 0.186996,0.027 0.16,0.027 0.187004,0.026 0.159001,0.027 0.188,0.027 0.159,0.026 0.186996,0.054 0.16,0.026 0.187004,0.027 0.16,0.027 0.187,0.026 0.185997,0.054 0.16,0.026 0.187001,0.027 0.159,0.027 0.187,0.053 0.161,0.027 0.185997,0.026 0.159999,0.027 0.187004,0.053 0.159001,0.027 0.187,0.027 0.16,0.053 0.186996,0.027 0.16,0.026 0.187004,0.054 0.159001,0.026 0.187,0.054 0.186997,0.026 0.159999,0.054 0.187004,0.026 0.159001,0.027 0.187,0.053 0.16,0.027 0.186996,0.053 0.16,0.027 0.187004,0.053 0.158997,0.054 0.187,0.026 0.16,0.054 0.186997,0.026 0.159999,0.054 0.186005,0.053 0.187,0.027 0.16,0.053 0.186997,0.053 0.159999,0.027 0.187005,0.053 0.159,0.054 0.187,0.053 0.16,0.027 0.186997,0.053 0.159999,0.053 0.187004,0.054 0.159001,0.053 0.187,0.053 0.16,0.054 0.186996,0.026 0.187005,0.053 0.159999,0.054 0.185997,0.053 0.16,0.053 0.186997,0.054 0.16,0.053 0.187004,0.054 0.159,0.053 0.187,0.08 0.16,0.053 0.186997,0.054" /><path
               id="path38"
               style="fill:none;stroke:#000000;stroke-width:1;stroke-linecap:butt;stroke-linejoin:round;stroke-miterlimit:4;stroke-dasharray:none;stroke-opacity:1"
               d="m 24.209999,29.782001 h 0.347002 l 0.16,0.026 h 0.347 l 0.187,0.027 h 0.346001 l 0.16,0.027 h 0.347 l 0.185997,0.026 h 0.347002 l 0.187,0.027 H 27.17 l 0.16,0.027 h 0.347002 l 0.185999,0.026 h 0.346998 l 0.16,0.027 h 0.187002 l 0.16,0.026 h 0.347 l 0.185999,0.027 h 0.187002 l 0.16,0.027 h 0.345999 l 0.186998,0.027 h 0.16 l 0.187002,0.026 h 0.347 l 0.159001,0.027 H 31.17 l 0.16,0.027 h 0.187002 l 0.16,0.026 h 0.185999 l 0.160002,0.027 h 0.186996 l 0.187004,0.026 h 0.16 l 0.185997,0.027 h 0.347 l 0.16,0.027 h 0.187 l 0.16,0.027 0.186001,0.026 h 0.16 l 0.187,0.027 h 0.16 l 0.187,0.026 h 0.16 l 0.186001,0.027 h 0.186996 l 0.16,0.027 h 0.187004 l 0.16,0.027 h 0.187 l 0.159001,0.026 0.186996,0.027 h 0.16 l 0.186001,0.026 h 0.161003 l 0.185997,0.027 0.16,0.027 h 0.187 l 0.16,0.026 0.187,0.027 h 0.16 l 0.186001,0.027 h 0.186996 l 0.16,0.027 0.187004,0.026 h 0.16 l 0.186001,0.027 0.16,0.026 h 0.186996 l 0.16,0.027 0.187004,0.027 0.16,0.026 h 0.186001 l 0.16,0.027 0.186996,0.027 0.16,0.026 h 0.187004 l 0.187,0.027 0.158997,0.027 0.187,0.026 h 0.16 l 0.186001,0.027 0.160999,0.027 m -34.4799997,-1.84 h 0.5339999 l 0.1589994,0.027 h 1.2270012 l 0.1599999,0.026 h 1.2270003 l 0.185999,0.027 h 1.04 l 0.16,0.027 h 1.04 l 0.187001,0.026 h 0.88 l 0.16,0.027 h 0.88 l 0.16,0.027 h 0.88 l 0.186999,0.026 h 0.693001 l 0.16,0.027 H 17.57 l 0.187,0.027 h 0.692999 l 0.187002,0.026 h 0.507 l 0.185999,0.027 h 0.693001 l 0.160999,0.027 h 0.533001 l 0.16,0.026 H 21.41 l 0.187,0.027 h 0.507002 l 0.185997,0.026 h 0.507002 l 0.186001,0.027 H 23.33 l 0.16,0.027 h 0.533001 l 0.186998,0.026" /><path
               id="path40"
               style="fill:none;stroke:#000000;stroke-width:0.5;stroke-linecap:butt;stroke-linejoin:round;stroke-miterlimit:4;stroke-dasharray:none;stroke-opacity:1"
               d="m 4.6900001,29.248001 h 1.2270002 l 0.1599998,0.027 h 0.8800002" /><path
               id="path42"
               style="fill:none;stroke:#000000;stroke-width:0.5;stroke-linecap:butt;stroke-linejoin:round;stroke-miterlimit:4;stroke-dasharray:3, 3, 3, 3, 3, 3;stroke-dashoffset:0;stroke-opacity:1"
               d="m 126.79601,85.461006 0.16,0.132996 0.187,0.133003 0.159,0.160995 0.187,0.133004 0.16,0.133003 0.187,0.159996 0.16,0.133003 0.18699,0.133995 0.186,0.133004 0.16001,0.159996 0.18699,0.134002 0.16001,0.133003 0.18699,0.159997 0.159,0.133003 0.18701,0.133995 0.15999,0.133003 0.18701,0.160004 0.15999,0.132995 0.18701,0.134003 0.159,0.159996 0.187,0.133003 0.16,0.132996 0.187,0.134003 0.16,0.160003 0.187,0.132996 0.186,0.133003 0.16,0.133995 0.187,0.160004 0.16,0.133003 0.187,0.132996 0.15999,0.160003 0.186,0.132996 0.16001,0.134003 0.18699,0.132995 0.16001,0.160004 0.18699,0.134003 0.159,0.132995 0.18701,0.160004 0.15999,0.132995 0.18701,0.133004 0.18599,0.133995 0.16101,0.160003 0.18599,0.133004 0.16001,0.132995 0.18699,0.161003 0.16001,0.132996 0.186,0.133003 0.161,0.134003 0.186,0.158996 0.16,0.134003 0.187,0.132996 0.16,0.160003 0.187,0.132996 0.16,0.134003 0.18599,0.133003 M 109.54301,71.514 l 0.18699,0.134003 0.15901,0.160003 0.18699,0.132996 0.16001,0.133003 0.18699,0.133995 0.16001,0.160004 0.18699,0.133003 0.15901,0.132996 0.18699,0.160003 0.16001,0.133995 0.186,0.133004 0.161,0.132995 0.186,0.160004 0.18699,0.134003 0.16001,0.132995 0.18699,0.160004 0.15901,0.133995 0.18798,0.133003 0.15902,0.132996 0.18699,0.160003 0.16001,0.133004 0.18699,0.133995 0.16001,0.160003 0.18699,0.132996 0.15901,0.133003 0.18699,0.134003 0.16001,0.159996 0.18699,0.133003 0.18601,0.132996 0.16099,0.134002 0.18601,0.159996 0.15999,0.133004 0.18701,0.133003 0.159,0.159996 0.18699,0.134003 0.16001,0.132995 0.18699,0.133004 0.16001,0.159996 0.18699,0.134002 0.15901,0.133003 0.18798,0.159997 0.15902,0.133003 0.18699,0.133995 0.16001,0.133003 0.18699,0.159996 0.18601,0.133003 0.15999,0.134003 0.18701,0.159996 0.15999,0.133003 0.18701,0.132996 0.15999,0.133003 0.18601,0.161003 0.15999,0.132996 0.18701,0.133003 0.15999,0.159996 0.18701,0.134003 0.159,0.132995 0.18699,0.133004 0.16001,0.160003 0.18699,0.133995 0.18701,0.133004 0.15999,0.159996 0.18601,0.133003 0.15999,0.134003 0.18701,0.132995 0.15999,0.160004 0.18701,0.132995 0.15899,0.134003 0.18701,0.132996 0.15999,0.160003 0.18701,0.133004 0.15999,0.133995 0.18701,0.160003 0.15899,0.132996 0.18701,0.133003 0.15999,0.133995 0.18701,0.160004 0.187,0.133003 0.16,0.132996 0.186,0.160003 0.15999,0.133995 0.18701,0.133004 0.15999,0.132995 0.18701,0.160004 0.15899,0.133003 0.18701,0.133995 0.15999,0.160004 0.18701,0.132995 0.15999,0.134003 0.18701,0.133003 0.15899,0.159996 0.18701,0.133004 0.18699,0.133995 0.16001,0.133003 0.18699,0.159996 0.16001,0.133003 0.186,0.133003 0.16,0.160996 0.187,0.133003" /><path
               id="path44"
               style="fill:none;stroke:#000000;stroke-width:0.5;stroke-linecap:butt;stroke-linejoin:round;stroke-miterlimit:4;stroke-dasharray:3, 3, 3, 3, 3, 3;stroke-dashoffset:0;stroke-opacity:1"
               d="m 92.290001,57.568005 0.186005,0.132999 0.186996,0.16 0.160004,0.133999 0.185997,0.132999 0.160003,0.16 0.186997,0.132999 0.160003,0.134003 0.186997,0.133 0.160004,0.159999 0.185997,0.133 0.160995,0.133999 0.186005,0.16 0.160003,0.132999 0.186997,0.133003 0.160004,0.133999 0.185997,0.159 0.160995,0.133999 0.186005,0.133 0.186996,0.16 0.160004,0.132999 0.186996,0.134003 0.159004,0.132999 0.186997,0.16 0.160004,0.133999 0.186996,0.132999 0.160004,0.16 0.185997,0.133003 0.160003,0.133999 0.186997,0.133 0.160003,0.159999 0.186997,0.133 0.160004,0.134003 0.185997,0.132999 0.187004,0.16 0.159996,0.132999 0.187004,0.133 0.159996,0.16 0.186996,0.133998 0.159005,0.133004 0.186996,0.133999 0.160004,0.159 0.186996,0.133999 0.160004,0.132999 0.185997,0.16 0.160008,0.134003 0.18699,0.132999 0.16001,0.132996 0.18699,0.160003 0.187,0.134003 0.159,0.132996 0.18701,0.160003 0.15999,0.132996 0.18701,0.133003 0.15999,0.134003 0.187,0.159996 0.159,0.133003 0.18701,0.132996 0.15999,0.160003 0.18701,0.133995 0.15999,0.133004 0.18601,0.132995 0.15999,0.160004 0.18701,0.134003 0.15999,0.132995 0.18701,0.133004 0.18699,0.160995 0.159,0.133003 0.18701,0.133003 0.15999,0.159997 0.18701,0.133003 0.15999,0.133995 0.187,0.133003 0.159,0.159996 0.18701,0.133003 0.15999,0.134003 0.18701,0.159996 0.15999,0.133003 0.187,0.132996 0.159,0.134003 0.18701,0.159996 0.18699,0.133003 0.16001,0.133003 0.18699,0.159996 0.15901,0.134003 0.18699,0.132995 0.16001,0.133004 0.187,0.159996 0.16,0.134002 0.18699,0.133004 0.159,0.159996 0.18701,0.133003 0.15999,0.133995 0.18701,0.133003 0.15999,0.160004 0.187,0.132995 0.159,0.134003 0.18701,0.132996 0.18699,0.160003 0.16001,0.132996 m -34.480006,-27.892998 0.160003,0.16 0.186989,0.133999 L 75.57,44.048 l 0.186004,0.133004 0.160996,0.159999 0.186004,0.133999 0.186997,0.133 0.159996,0.16 0.186005,0.132999 0.160003,0.134003 0.186997,0.132999 0.160003,0.16 0.186997,0.132999 0.159996,0.133999 0.186005,0.16 0.160003,0.132999 0.186997,0.133004 0.160003,0.133999 0.186989,0.159999 0.160004,0.133 0.186004,0.132999 0.187005,0.16 0.159996,0.134003 0.186996,0.132999 0.159996,0.133 0.186005,0.16 0.160003,0.133998 0.186997,0.133 0.160003,0.16 0.186997,0.133003 0.159996,0.133999 0.186005,0.132999 0.160003,0.16 0.186997,0.132999 0.160003,0.134003 0.186997,0.133 0.159996,0.159999 0.186005,0.133 0.187004,0.133999 0.159996,0.16 0.186996,0.132999 0.159996,0.133003 0.186012,0.133999 0.159996,0.16 0.187005,0.132999 0.159996,0.133 0.186996,0.16 0.159996,0.134002 0.186005,0.133 0.160003,0.132999 0.186997,0.16 0.160003,0.133999 0.186997,0.132999 0.186005,0.16 0.159996,0.133003 0.187004,0.133999 0.159996,0.133 0.186004,0.159999 0.160996,0.133 0.186004,0.133999 0.159997,0.16 0.187004,0.133003 0.159996,0.132999 0.186996,0.133 0.159996,0.160999 0.186012,0.132999 0.159996,0.133 0.187005,0.134003 0.159996,0.159 0.186996,0.133999 0.187004,0.132999 0.158997,0.16 0.187004,0.133999 0.159996,0.133003 0.186004,0.133 0.160996,0.159999 0.186005,0.133999 0.159996,0.133 0.187004,0.16 0.159996,0.132999 0.186004,0.134003 0.160988,0.132999 0.186012,0.16 0.159997,0.132999 0.187004,0.133999 0.186988,0.16 0.160004,0.133003 0.187004,0.133 0.159004,0.132999 0.186997,0.160999 0.160004,0.133 0.186988,0.132999 0.160004,0.16 0.187004,0.133003 0.158997,0.133999 0.187004,0.133 0.159996,0.16 0.186004,0.133998 0.160996,0.133004" /><path
               id="path46"
               style="fill:none;stroke:#000000;stroke-width:0.5;stroke-linecap:butt;stroke-linejoin:round;stroke-miterlimit:4;stroke-dasharray:3, 3, 3, 3, 3, 3;stroke-dashoffset:0;stroke-opacity:1"
               d="m 57.809998,29.702002 0.187004,0.132999 0.159999,0.133001 0.186001,0.133999 0.16,0.16 0.186997,0.133001 0.159999,0.133 0.187005,0.133999 0.159,0.159 0.187,0.134001 0.16,0.132999 0.186997,0.16 0.187004,0.134001 0.159999,0.132999 0.186001,0.133 0.16,0.16 0.186993,0.134 0.160003,0.133 0.187005,0.16 0.159999,0.132999 0.185997,0.133003 0.16,0.133999 0.186997,0.16 0.16,0.132999 0.187004,0.133999 0.159,0.159001 0.187,0.134002 0.186997,0.133 0.16,0.133999 0.187004,0.159 0.16,0.133999 0.186,0.132999 0.16,0.16 0.186997,0.134003 0.16,0.132999 0.187004,0.133 0.159999,0.16 0.185997,0.132999 0.160004,0.133999 0.186997,0.133003 0.159996,0.16 0.187004,0.132999 0.186004,0.133999 0.159996,0.16 0.186997,0.132999 0.160004,0.133 0.186004,0.134003 0.160996,0.159999 0.186004,0.133 0.159996,0.132999 0.186997,0.161 0.159996,0.132999 0.187012,0.133003 0.159996,0.133999 0.185997,0.159001 0.160003,0.133998 0.186997,0.133 0.159996,0.16 0.187004,0.134002 0.186004,0.133 0.159996,0.132999 0.186997,0.16 0.160004,0.132999 0.186004,0.133999 0.160996,0.16 0.186004,0.133003 0.159996,0.133 0.186997,0.133999 0.160004,0.16 0.186004,0.132999 0.160996,0.132999 0.186004,0.134003 0.159996,0.16 0.373001,0.265999 0.161004,0.16 0.185997,0.133998 0.159996,0.133004 0.186996,0.132999 0.160004,0.16 0.186004,0.133999 0.160996,0.132999 0.186004,0.16 0.159996,0.133 0.186997,0.134002 0.160004,0.133 0.186004,0.159999 0.160996,0.133 0.186004,0.133999 0.159996,0.16 0.186997,0.133003 0.186005,0.133999 0.160003,0.132999 0.186997,0.16 0.160003,0.132999 0.186989,0.133 0.160004,0.16 0.186004,0.134002 0.161004,0.133 0.185997,0.132999" /><path
               id="path48"
               style="fill:none;stroke:#000000;stroke-width:0.5;stroke-linecap:butt;stroke-linejoin:round;stroke-miterlimit:4;stroke-dasharray:none;stroke-opacity:1"
               d="M 40.584003,15.755001 40.743,15.888 l 0.187,0.134001 0.16,0.16 0.187,0.133 0.16,0.132999 0.187001,0.134001 0.159,0.16 0.186996,0.132999 0.16,0.133001" /><path
               id="path50"
               style="fill:none;stroke:#000000;stroke-width:0.5;stroke-linecap:butt;stroke-linejoin:round;stroke-miterlimit:4;stroke-dasharray:3, 3, 3, 3, 3, 3;stroke-dashoffset:0;stroke-opacity:1"
               d="m 42.129997,17.008001 0.187004,0.133999 0.16,0.16 0.187,0.133001 0.159001,0.133 0.186996,0.16 0.187004,0.134 0.16,0.133 0.187001,0.132999 0.159999,0.16 0.185997,0.134001 0.16,0.132999 0.187004,0.16 0.16,0.133001 0.187,0.133999 0.159001,0.133002 0.186996,0.16 0.16,0.132999 0.187,0.134001 0.16,0.16 0.187001,0.132999 0.159,0.132999 0.186996,0.134001 0.187004,0.16 0.159001,0.132999 0.187,0.133002 0.16,0.16 0.186996,0.132999 0.16,0.134001 0.187004,0.132999 0.159001,0.16 0.188,0.134001 0.159,0.132999 0.186996,0.133 0.16,0.16 0.187004,0.134 0.16,0.133 0.187,0.16 0.185997,0.133001 0.16,0.133999 0.187001,0.132999 0.159,0.160002 0.187,0.132999 0.16,0.133999 0.186997,0.160002 0.159999,0.132999 0.187004,0.133 0.159001,0.134001 0.187,0.159999 0.16,0.133 0.186996,0.132999 0.16,0.160002 0.187004,0.133999 0.159001,0.132999 0.187,0.133002 0.186997,0.16 0.159999,0.132999 0.187004,0.134001 0.159001,0.16 0.187,0.132999 0.16,0.132999 0.186996,0.134001 0.16,0.16 0.187004,0.132999 0.158997,0.133002 0.187,0.133999 0.16,0.16 0.186997,0.133001 0.159999,0.132999 0.186005,0.16 0.187,0.134001 0.16,0.132999 0.186997,0.134001 0.159999,0.158999 0.187005,0.134 0.159,0.133 0.187,0.16 0.16,0.134 0.186997,0.133 0.159999,0.133001 0.187004,0.16 0.159001,0.132999 0.187,0.134001 0.16,0.16 0.186996,0.132999 0.187005,0.133 0.158996,0.134001 0.187,0.16 0.16,0.132999 0.186997,0.134001 0.16,0.159" /><path
               id="path52"
               style="fill:none;stroke:#000000;stroke-width:1;stroke-linecap:butt;stroke-linejoin:round;stroke-miterlimit:4;stroke-dasharray:none;stroke-opacity:1"
               d="m 89.676003,60.901005 0.187004,0.266998 0.185997,0.266998 0.160995,0.293003 0.186005,0.266999 0.160003,0.265999 0.186997,0.267002 0.160004,0.265999 0.185997,0.293998 0.160995,0.266003 0.186005,0.266998 0.159996,0.294003 0.187004,0.265995 0.159996,0.294006 0.186004,0.292999 0.160996,0.265999 0.186005,0.293999 0.186996,0.292999 0.160004,0.293999 0.185997,0.292999 0.160003,0.292999 0.186997,0.293007 0.160003,0.293999 0.186997,0.292999 0.160004,0.293 0.185997,0.293998 0.160995,0.293 0.186005,0.319999 0.160003,0.293 0.186997,0.319999 0.160004,0.294007 0.185997,0.319999 0.160995,0.293 0.186005,0.319999 0.186996,0.32 0.160004,0.292999 0.186996,0.32 0.159004,0.32 0.186997,0.319999 0.160004,0.32 0.186996,0.32 0.160004,0.319999 0.185997,0.32 0.160003,0.32 0.186997,0.319999 0.160003,0.347001 0.186997,0.319999 0.160004,0.32 0.185997,0.347 0.187004,0.32 0.159996,0.346 0.187004,0.347001 0.159996,0.319999 0.186996,0.347 0.159005,0.346001 0.186996,0.32 0.160004,0.347 0.186996,0.347 0.160004,0.346001 0.185997,0.347 0.160008,0.347 0.18699,0.346001 0.16001,0.374 0.18699,0.346001 0.187,0.347 0.159,0.347 0.18701,0.373001 0.15999,0.347 0.18701,0.373001 0.15999,0.347001 0.187,0.372993 0.159,0.373001 0.18701,0.347 0.15999,0.373001 0.18701,0.374001 0.15999,0.373001 0.18601,0.373001 0.15999,0.373001 0.18701,0.374001 0.15999,0.372993 0.18701,0.373001 0.18699,0.374001 0.159,0.373001 0.18701,0.373001 0.15999,0.400002 0.18701,0.374 0.15999,0.399994 0.187,0.373001 0.159,0.400002 0.18701,0.373001 0.15999,0.400001 0.18701,0.400002 0.15999,0.373993 0.187,0.400001 0.159,0.400002 0.18701,0.400001 0.18699,0.400002" /><path
               id="path54"
               style="fill:none;stroke:#000000;stroke-width:0.5;stroke-linecap:butt;stroke-linejoin:round;stroke-miterlimit:4;stroke-dasharray:none;stroke-opacity:1"
               d="m 106.423,92.821007 0.16001,0.399994 0.18699,0.400001 0.15901,0.400002" /><path
               id="path56"
               style="fill:none;stroke:#000000;stroke-width:1;stroke-linecap:butt;stroke-linejoin:round;stroke-miterlimit:4;stroke-dasharray:none;stroke-opacity:1"
               d="m 72.449997,41.595001 0.160004,0.133 0.186004,0.133003 0.160996,0.133999 0.186004,0.132999 0.159996,0.133 0.186997,0.133998 0.186005,0.133004 0.160003,0.132999 0.186997,0.133999 0.160003,0.132999 0.186989,0.133 0.160004,0.16 0.186004,0.134002 0.161004,0.133 0.185997,0.16 0.160003,0.132999 0.186989,0.16 0.160004,0.16 0.186004,0.133999 0.160996,0.159999 0.373001,0.320004 0.159996,0.132999 0.186005,0.16 0.160003,0.16 0.186997,0.16 0.160003,0.187 0.186997,0.16 0.159996,0.16 0.186005,0.16 0.693992,0.693001 0.160004,0.159999 0.186004,0.187001 0.187005,0.16 0.159996,0.185997 0.186996,0.187 0.159996,0.187 0.186005,0.16 0.160003,0.186001 0.186997,0.187 0.160003,0.187 0.186997,0.186001 0.159996,0.187 0.186005,0.212998 0.160003,0.187 0.186997,0.187 0.160003,0.186001 0.186997,0.214001 0.159996,0.186001 0.186005,0.213997 0.187004,0.186 0.159996,0.214001 0.186996,0.186001 0.159996,0.214001 0.186012,0.212997 0.159996,0.213001 0.187005,0.187001 0.159996,0.213001 0.186996,0.213997 0.159996,0.213001 0.186005,0.214001 0.160003,0.213001 0.186997,0.239998 0.160003,0.213001 0.186997,0.213001 0.186005,0.213997 0.159996,0.240002 0.187004,0.213001 0.159996,0.239998 0.186004,0.214001 0.160996,0.240001 0.186004,0.212998 0.159997,0.240002 0.187004,0.239997 0.159996,0.240002 0.186996,0.213001 0.159996,0.239998 0.186012,0.240002 0.159996,0.239998 0.187005,0.240001 0.159996,0.266999 0.186996,0.240001 0.187004,0.239998 0.158997,0.240002 0.187004,0.240002 0.159996,0.265998 0.186004,0.239998 0.160996,0.267002 0.186005,0.239998 0.159996,0.266003 0.187004,0.266998 0.159996,0.240002 0.186004,0.266998 0.160988,0.265999 0.186012,0.267002 0.159997,0.240002" /><path
               id="path58"
               style="fill:#000000;fill-opacity:1;fill-rule:nonzero;stroke:#000000;stroke-width:0.5;stroke-linecap:butt;stroke-linejoin:miter;stroke-miterlimit:4;stroke-dasharray:none;stroke-opacity:1"
               d="m 295.99103,29.158001 -1.53302,2.521997 0.085,0.057 4.11301,-1.632999 c 1.43301,-0.315001 2.86599,-0.630001 4.29901,-0.946001 -1.43302,-0.314999 -2.866,-0.629999 -4.29901,-0.945999 L 294.543,26.579 l -0.085,0.043 1.53302,2.535999 z" /><path
               id="path60"
               style="fill:#000000;fill-opacity:1;fill-rule:nonzero;stroke:#000000;stroke-width:0.5;stroke-linecap:butt;stroke-linejoin:miter;stroke-miterlimit:4;stroke-dasharray:none;stroke-opacity:1"
               d="m 231.13301,86.047005 -2.522,-1.534005 -0.057,0.087 1.63299,4.112008 c 0.315,1.432998 0.631,2.865997 0.946,4.298996 0.315,-1.432999 0.63001,-2.865998 0.946,-4.298996 L 233.712,84.6 l -0.043,-0.087 -2.536,1.534005 z" /><path
               id="path62"
               style="fill:none;stroke:#000000;stroke-width:0.5;stroke-linecap:butt;stroke-linejoin:round;stroke-miterlimit:4;stroke-dasharray:none;stroke-opacity:1"
               d="M 157.04501,28.967001 H 296.466 M 231.063,15.975 v 73.091002" /><path
               id="path64"
               style="fill:none;stroke:#000000;stroke-width:1;stroke-linecap:butt;stroke-linejoin:round;stroke-miterlimit:4;stroke-dasharray:none;stroke-opacity:1"
               d="m 250.21501,70.422005 0.18601,0.427002 0.16099,0.426994 0.18601,0.426002 0.15998,0.427002 0.18702,0.426995 0.15998,0.426002 0.18601,0.453003 0.161,0.453995 0.186,0.453003 0.16,0.454002 0.187,0.452996 0.16,0.480003 0.18601,0.453003 0.18699,0.479996 0.16001,0.480003 0.18699,0.479996 0.16001,0.480003 0.18699,0.506996 0.16001,0.507004 0.18599,0.505997 0.16,0.507003 0.187,0.505997 0.16,0.507004 0.18601,0.532997 0.16099,0.534004 0.18601,0.532997 0.15998,0.532998 0.18702,0.560005 0.18599,0.533996 0.16,0.559998 0.187,0.560005 0.16,0.585999 0.187,0.559997 0.16,0.587006 0.186,0.586998 0.16001,0.585998 0.18698,0.613999 0.16,0.585998 0.18701,0.614006 0.16001,0.612999 0.186,0.612999 0.16098,0.64 0.18601,0.639999 m -24.746,-48.346001 0.373,0.32 0.16,0.16 0.187,0.16 0.16,0.16 0.18601,0.159999 0.16099,0.16 0.18601,0.16 0.15998,0.16 0.18702,0.187 0.15998,0.16 0.18601,0.186001 0.347,0.347 0.16,0.187 0.187,0.16 0.186,0.187 0.16001,0.185997 0.18699,0.187001 0.16001,0.187 0.18699,0.186001 0.16001,0.187 0.18599,0.186001 0.16,0.214001 0.187,0.187 0.16,0.212997 0.187,0.187001 0.16,0.213001 0.18601,0.186001 0.16099,0.213997 0.18601,0.213001 0.16,0.214 0.37298,0.425999 0.16001,0.213001 0.18699,0.214001 0.16001,0.239998 0.187,0.213001 0.16,0.240002 0.186,0.213997 0.16001,0.240001 0.18699,0.240002 0.16001,0.212998 0.18699,0.240001 0.16001,0.239998 0.18599,0.240002 0.16,0.266998 0.187,0.239002 0.18701,0.239998 0.15999,0.267002 0.186,0.239998 0.16001,0.267002 0.18699,0.266999 0.16001,0.266002 0.18699,0.266999 0.16001,0.266998 0.18598,0.266002 0.16001,0.266999 0.18699,0.292999 0.16001,0.267002 0.187,0.292999 0.16,0.267002 0.186,0.293 0.16001,0.293998 0.373,0.585999 0.16099,0.293003 0.187,0.320999 0.159,0.293 0.18701,0.319999 0.15999,0.292999 0.18701,0.32 0.15999,0.320004 0.186,0.319999 0.16001,0.32 0.18699,0.347 0.16001,0.32 0.18699,0.347 0.16001,0.319 0.18598,0.347 0.18702,0.347 0.15998,0.345997 0.18702,0.347 0.15999,0.373002 0.186,0.347 0.16,0.373001 0.187,0.347 0.16,0.373001 0.18601,0.374001 0.16099,0.373001 0.18601,0.399994 0.15999,0.373001 0.18701,0.400001 0.15999,0.374001 0.18701,0.400001 0.18699,0.400002 0.159,0.399994 0.187,0.427002 0.16,0.399002" /><path
               id="path66"
               style="fill:none;stroke:#000000;stroke-width:1;stroke-linecap:butt;stroke-linejoin:round;stroke-miterlimit:4;stroke-dasharray:none;stroke-opacity:1"
               d="m 215.73502,34.689003 0.16099,0.054 0.18601,0.053 0.15998,0.053 0.18702,0.08 0.15899,0.054 0.187,0.053 0.187,0.053 0.16,0.08 0.187,0.054 0.16,0.053 0.186,0.08 0.16001,0.053 0.18699,0.08 0.16001,0.054 0.18699,0.08 0.16001,0.053 0.18599,0.08 0.16099,0.053 0.18601,0.08 0.16,0.054 0.187,0.08 0.186,0.08 0.16001,0.053 0.18699,0.08 0.16001,0.08 0.18699,0.08 0.16001,0.053 0.18599,0.08 0.16,0.08 0.187,0.08 0.16,0.08 0.187,0.08 0.16,0.08 0.186,0.08 0.16001,0.08 0.18699,0.08 0.187,0.08 0.16,0.08 0.18599,0.08 0.16001,0.08 0.18699,0.106999 0.16001,0.08 0.18699,0.08 0.16001,0.106002 0.186,0.081 0.16001,0.079 0.18699,0.106999 0.16001,0.08 0.18699,0.106999 0.16001,0.08 0.18599,0.106998 0.16,0.08 0.187,0.106003 0.186,0.106998 0.161,0.08 0.186,0.106999 0.16,0.105999 0.187,0.107002 0.16,0.08 0.187,0.107002 0.16,0.105999 0.18599,0.106999 0.16001,0.107002 0.18699,0.105999 0.16001,0.106998 0.18699,0.133004 0.16001,0.106998 0.186,0.106998 0.187,0.106003 0.16,0.133999 0.18601,0.105999 0.16099,0.107002 0.18601,0.133 0.15999,0.106998 0.18701,0.133 0.15999,0.107002 0.186,0.132999 0.161,0.133999 0.186,0.105999 0.16,0.134003 0.187,0.132999 0.16,0.133 0.187,0.132999 0.16,0.107002 0.18599,0.133 0.18702,0.160999 0.15998,0.133 0.18601,0.132999 0.16099,0.134003 0.18601,0.132999 0.16,0.16 0.187,0.132999 0.16,0.133999 0.18601,0.16 0.16099,0.133 0.18601,0.159999 0.15999,0.16 0.18701,0.133003 0.15999,0.16 m -34.48,-13.280002 0.187,0.027 0.16,0.027 h 0.187 l 0.15899,0.026 0.18701,0.027 0.15999,0.027 0.18701,0.027 0.15999,0.026 h 0.18702 l 0.18598,0.027 0.16001,0.026 0.18699,0.027 0.16001,0.027 0.18699,0.026 0.16001,0.027 0.186,0.027 0.16001,0.026 0.18699,0.027 0.16001,0.027 0.18699,0.026 0.159,0.027 0.187,0.027 0.16,0.026 0.187,0.027 0.16,0.027 0.187,0.026 0.186,0.027 0.16,0.027 0.187,0.026 0.16,0.027 0.187,0.027 0.159,0.026 0.18699,0.027 0.16001,0.027 0.18699,0.026 0.16001,0.027 0.18699,0.053 0.15902,0.027 0.18699,0.026 0.16001,0.027 0.18699,0.027 0.18599,0.053 0.16101,0.027 0.18599,0.027 0.16001,0.026 0.18699,0.054 0.16001,0.026 0.18699,0.027 0.15901,0.027 0.187,0.053 0.16,0.027 0.187,0.026 0.16,0.054 0.187,0.026 0.159,0.027 0.18699,0.053 0.16001,0.027 0.186,0.053 0.187,0.027 0.16099,0.053 0.18601,0.027 0.16,0.027 0.187,0.053 0.159,0.026 0.18699,0.054 0.16001,0.026 0.18699,0.054 0.16001,0.053 0.18699,0.027 0.16001,0.053 0.18699,0.027 0.15901,0.053 0.187,0.054 0.187,0.026 0.16,0.053 0.18601,0.054 0.15998,0.026 0.18702,0.054 0.15998,0.053 0.18702,0.054 0.15899,0.026 0.187,0.053 0.16,0.054 0.187,0.053 0.16,0.053 0.187,0.054 0.159,0.053 0.18701,0.027 0.18699,0.053 0.15999,0.054 0.18701,0.053 0.159,0.053 0.187,0.053 0.16,0.054 0.187,0.053 0.16,0.053 0.187,0.081 0.15899,0.053 0.18702,0.053" /><path
               id="path68"
               style="fill:none;stroke:#000000;stroke-width:1;stroke-linecap:butt;stroke-linejoin:round;stroke-miterlimit:4;stroke-dasharray:none;stroke-opacity:1"
               d="m 181.25601,29.756001 h 0.347 l 0.159,0.027 h 0.347 l 0.187,0.026 h 0.346 l 0.15999,0.027 h 0.347 l 0.18701,0.027 h 0.346 l 0.18699,0.026 h 0.347 l 0.15902,0.027 h 0.347 l 0.18699,0.027 h 0.347 l 0.16001,0.026 h 0.18699 l 0.159,0.027 h 0.347 l 0.186,0.027 h 0.187 l 0.16,0.026 h 0.347 l 0.187,0.027 h 0.159 l 0.18699,0.027 h 0.347 l 0.16001,0.026 h 0.18699 l 0.16001,0.027 h 0.186 l 0.16001,0.027 h 0.18699 l 0.16001,0.026 h 0.18598 l 0.18702,0.027 h 0.15999 l 0.18699,0.027 h 0.347 l 0.15901,0.027 h 0.187 l 0.16,0.026 0.187,0.027 h 0.16 l 0.18599,0.026 h 0.16001 l 0.18699,0.027 h 0.16001 l 0.18699,0.027 h 0.18702 l 0.15899,0.026 h 0.187 l 0.16,0.027 h 0.187 l 0.16,0.027 0.187,0.026 h 0.15899 l 0.18702,0.027 h 0.15999 l 0.18701,0.027 0.15999,0.026 h 0.186 l 0.16,0.027 0.187,0.027 h 0.16 l 0.187,0.026 h 0.187 l 0.15899,0.027 0.18701,0.027 h 0.15999 l 0.18701,0.026 0.15999,0.027 h 0.18601 l 0.16,0.026 0.187,0.027 0.16,0.027 h 0.187 l 0.16,0.027 0.18601,0.026 0.15998,0.027 h 0.18702 l 0.18699,0.027 0.16001,0.026 0.18699,0.027 h 0.159 l 0.187,0.026 0.16,0.027 m -34.48,-1.84 h 0.534 l 0.16,0.027 h 1.226 l 0.161,0.027 h 1.226 l 0.18699,0.026 h 1.04001 l 0.16,0.027 h 1.04 l 0.186,0.027 h 0.881 l 0.159,0.026 h 0.88 l 0.16,0.027 h 0.87999 l 0.18702,0.027 h 0.69299 l 0.16,0.026 h 0.694 l 0.18599,0.027 h 0.694 l 0.18701,0.027 h 0.506 l 0.187,0.026 h 0.69301 l 0.15998,0.027 h 0.53301 l 0.16,0.027 h 0.534 l 0.187,0.026 h 0.50599 l 0.18701,0.027 h 0.506 l 0.187,0.027 h 0.347 l 0.16,0.026 h 0.53301 l 0.18699,0.027 m -19.52,-0.533 h 1.226 l 0.16099,0.026 h 0.87901" /><path
               id="path70"
               style="fill:none;stroke:#000000;stroke-width:0.5;stroke-linecap:butt;stroke-linejoin:round;stroke-miterlimit:4;stroke-dasharray:3, 3, 3, 3, 3;stroke-dashoffset:0;stroke-opacity:1"
               d="m 246.72202,60.876003 0.18598,0.265999 0.18702,0.267002 0.15998,0.292999 0.18601,0.266999 0.161,0.267002 0.186,0.265999 0.16,0.267002 0.187,0.292999 0.16,0.266998 0.18601,0.267002 0.16099,0.293 0.18601,0.267002 0.15999,0.292999 0.18701,0.292999 0.15999,0.266999 0.18701,0.292999 0.18699,0.293999 0.159,0.292999 0.187,0.293007 0.16,0.293999 0.18601,0.292999 0.16099,0.292999 0.18601,0.293999 0.15998,0.292999 0.18702,0.292999 0.15998,0.293999 0.18601,0.32 0.161,0.293007 0.186,0.319999 0.16,0.293 0.187,0.319999 0.16,0.293999 0.373,0.639999 0.16001,0.293 0.18699,0.319999 0.16001,0.32 0.18699,0.32 0.16001,0.319999 0.18599,0.32 0.16,0.32 0.187,0.32 0.16,0.319999 0.18601,0.32 0.16099,0.347 0.18601,0.32 0.15998,0.319 0.18702,0.347 0.18699,0.32 0.159,0.347 0.187,0.346001 0.16,0.319999 0.187,0.347 0.16,0.347001 0.18701,0.319999 0.159,0.347 0.18698,0.346001 0.16,0.347 0.18701,0.347 0.16001,0.346001 0.186,0.347 0.16098,0.373001 0.18601,0.347 0.18701,0.347 0.16,0.346001 0.18698,0.373001 0.159,0.347 0.18701,0.373001 0.16001,0.347001 0.18698,0.373001 0.16,0.373993 0.18601,0.346 0.16,0.374001 0.18701,0.373001 0.16,0.373001 0.18699,0.374001 0.16,0.373001 0.186,0.373001 0.16001,0.374 0.18698,0.372994 0.18701,0.373001 0.16,0.374 0.18702,0.373001 0.15899,0.400002 0.18698,0.373001 0.16001,0.400002 0.18701,0.373993 0.16,0.400001 0.18698,0.373001 0.159,0.400002 0.18701,0.400001 0.16001,0.373001 0.18698,0.399994 0.16,0.400002 0.18601,0.400001 0.18701,0.400002" /><path
               id="path72"
               style="fill:none;stroke:#000000;stroke-width:1;stroke-linecap:butt;stroke-linejoin:round;stroke-miterlimit:4;stroke-dasharray:none;stroke-opacity:1"
               d="m 263.46802,92.795006 0.16,0.400001 0.18698,0.399994 0.16001,0.400002" /><path
               id="path74"
               style="fill:none;stroke:#000000;stroke-width:0.5;stroke-linecap:butt;stroke-linejoin:round;stroke-miterlimit:4;stroke-dasharray:3, 3, 3, 3, 3;stroke-dashoffset:0;stroke-opacity:1"
               d="m 229.49501,41.569 0.16,0.134003 0.187,0.132999 0.16,0.133 0.187,0.132999 0.16,0.134003 0.18599,0.132999 0.18702,0.133999 0.15998,0.133 0.18601,0.132999 0.16099,0.134003 0.18601,0.132999 0.16,0.16 0.187,0.132999 0.16,0.133999 0.18601,0.16 0.16099,0.133 0.18601,0.159999 0.15999,0.16 0.18701,0.133003 0.15999,0.16 0.373,0.32 0.16,0.132999 0.187,0.161 0.16,0.16 0.18601,0.159999 0.16099,0.186001 0.18601,0.16 0.15998,0.16 0.18702,0.16 0.15998,0.16 0.18601,0.187 0.16099,0.16 0.18601,0.187 0.16,0.16 0.187,0.186001 0.186,0.16 0.16001,0.187 0.18699,0.186001 0.16001,0.187 0.18699,0.16 0.16001,0.187 0.18599,0.186996 0.16,0.186001 0.187,0.187001 0.16,0.186 0.187,0.214001 0.16,0.187 0.18601,0.186001 0.16099,0.186997 0.18601,0.213001 0.16,0.187 0.187,0.213001 0.18598,0.187001 0.16001,0.212997 0.18699,0.187 0.16001,0.213002 0.187,0.214 0.16,0.212998 0.186,0.187 0.16001,0.213001 0.18699,0.213002 0.16001,0.214 0.18699,0.212998 0.16001,0.213001 0.18599,0.239998 0.16,0.214001 0.37401,0.426002 0.15999,0.239998 0.186,0.213001 0.16001,0.241001 0.18699,0.212998 0.16001,0.240001 0.18699,0.212998 0.16001,0.240002 0.18598,0.240001 0.16001,0.239998 0.18699,0.213001 0.16001,0.239998 0.187,0.241001 0.16,0.240002 0.186,0.238998 0.16001,0.267003 0.373,0.479999 0.16099,0.239998 0.187,0.240002 0.159,0.266998 0.18701,0.240002 0.15999,0.266998 0.18701,0.239002 0.15999,0.266998 0.186,0.267002 0.16001,0.239998 0.18699,0.265999 0.16001,0.267002 0.18699,0.266999 0.16001,0.240001 M 212.242,36.076 l 0.18702,-0.027 h 0.15998 l 0.18601,-0.026 h 0.507 l 0.187,-0.027 h 1.03999 l 0.18601,0.027 h 0.507 l 0.187,0.026 h 0.16 l 0.18601,0.027 h 0.16099 l 0.18601,0.027 0.15998,0.026 h 0.18702 l 0.15899,0.027 0.187,0.027 0.187,0.026 0.16,0.027 0.187,0.027 0.16,0.026 0.186,0.027 0.16001,0.027 0.18699,0.026 0.16001,0.027 0.18699,0.053 0.16001,0.027 0.18599,0.027 0.16099,0.053 0.18601,0.027 0.16,0.053 0.187,0.053 0.186,0.027 0.16001,0.053 0.18699,0.054 0.16001,0.053 0.18699,0.027 0.16001,0.053 0.18599,0.053 0.16,0.054 0.187,0.053 0.16,0.08 0.187,0.053 0.16,0.054 0.186,0.053 0.16001,0.08 0.18699,0.053 0.187,0.08 0.16,0.054 0.18599,0.08 0.16001,0.053 0.18699,0.08 0.16001,0.08 0.18699,0.053 0.16001,0.08 0.186,0.08 0.16001,0.08 0.18699,0.08 0.16001,0.08 0.18699,0.08 0.16001,0.08 0.18599,0.08 0.16,0.107002 0.187,0.08 0.186,0.08 0.161,0.106999 0.186,0.079 0.16,0.107003 0.187,0.08 0.16,0.107002 0.187,0.106998 0.16,0.079 0.18599,0.106998 0.16001,0.106999 0.18699,0.106002 0.16001,0.106999 0.18699,0.106998 0.16001,0.107002 0.373,0.213002 0.16,0.106998 0.18601,0.105999 0.16099,0.133999 0.18601,0.106003 0.15999,0.133999 0.18701,0.105999 0.15999,0.107002 0.186,0.132999 0.161,0.133999 0.186,0.105999" /><path
               id="path76"
               style="fill:none;stroke:#000000;stroke-width:0.5;stroke-linecap:butt;stroke-linejoin:round;stroke-miterlimit:4;stroke-dasharray:3, 3, 3, 3, 3;stroke-dashoffset:0;stroke-opacity:1"
               d="m 195.01601,44.369003 0.15899,-0.16 0.18701,-0.133003 0.15999,-0.16 0.18701,-0.159999 0.15999,-0.133 0.18702,-0.16 0.15899,-0.133999 0.187,-0.132999 0.16,-0.16 0.187,-0.132999 0.16,-0.134003 0.187,-0.132999 0.15899,-0.133 0.18702,-0.133999 0.18699,-0.132999 0.16001,-0.133003 0.18699,-0.133999 0.16001,-0.133 0.18599,-0.132999 0.16,-0.134003 0.187,-0.105999 0.16,-0.133999 0.187,-0.132999 0.15899,-0.107002 0.18701,-0.105999 0.15999,-0.133999 0.18701,-0.106003 0.15999,-0.133999 0.18601,-0.105999 0.18699,-0.106998 0.16001,-0.107003 0.18699,-0.105999 0.16001,-0.107002 0.18699,-0.106998 0.15902,-0.105999 0.18699,-0.107002 0.16001,-0.106999 0.18699,-0.105999 0.16001,-0.08 0.18699,-0.106998 0.159,-0.107002 0.187,-0.08 0.16,-0.105999 0.187,-0.08 0.16,-0.106999 0.187,-0.08 0.186,-0.08 0.16,-0.107002 0.187,-0.08 0.16,-0.079 0.187,-0.081 0.159,-0.079 0.18699,-0.081 0.16001,-0.08 0.18699,-0.08 0.16001,-0.08 0.18699,-0.053 0.15902,-0.08 0.18699,-0.08 0.16001,-0.053 0.18699,-0.08 0.18599,-0.054 0.16001,-0.08 0.18699,-0.053 0.16001,-0.08 0.18699,-0.053 0.16001,-0.053 0.18699,-0.054 0.15901,-0.08 0.187,-0.053 0.16,-0.054 0.187,-0.053 0.16,-0.053 0.187,-0.027 0.159,-0.053 0.18699,-0.054 0.16001,-0.053 0.186,-0.027 0.187,-0.053 0.16099,-0.053 0.18601,-0.027 0.16,-0.053 0.187,-0.027 0.159,-0.027 0.18699,-0.053 0.16001,-0.027 0.18699,-0.026 0.16001,-0.027 0.18699,-0.026 0.16001,-0.027 0.186,-0.027 0.16,-0.027 0.187,-0.026 0.187,-0.027 0.16,-0.027 h 0.18601 l 0.15998,-0.026 0.18702,-0.027 h 0.15998 m -34.47999,30.400006 0.16,-0.293999 0.187,-0.293007 0.187,-0.292999 0.16,-0.293999 0.187,-0.292999 0.15899,-0.266999 0.18701,-0.292999 0.15999,-0.292999 0.18701,-0.267002 0.15999,-0.293 0.18701,-0.267002 0.159,-0.266998 0.187,-0.292999 0.16,-0.267002 0.187,-0.265999 0.16,-0.267002 0.187,-0.266999 0.15899,-0.292999 0.18702,-0.266002 0.18699,-0.266999 0.16001,-0.240001 0.18699,-0.266999 0.159,-0.267002 0.187,-0.265999 0.16,-0.239998 0.187,-0.267002 0.16,-0.266998 0.186,-0.239002 0.15999,-0.266998 0.18701,-0.240002 0.15999,-0.266998 0.18601,-0.240002 0.16099,-0.239998 0.18601,-0.240002 0.18699,-0.239997 0.16001,-0.267003 0.18699,-0.238998 0.15902,-0.240002 0.18798,-0.241001 0.15902,-0.239998 0.18699,-0.213001 0.16001,-0.239998 0.18699,-0.240001 0.16001,-0.240002 0.18699,-0.212998 0.159,-0.240001 0.187,-0.212998 0.16,-0.241001 0.186,-0.213001 0.187,-0.239998 0.16,-0.213001 0.187,-0.213001 0.16,-0.214001 0.18599,-0.239998 0.16001,-0.213001 0.18699,-0.212998 0.16001,-0.214 0.18699,-0.213002 0.16001,-0.213001 0.186,-0.187 0.161,-0.212998 0.186,-0.214 0.16001,-0.213002 0.18699,-0.187 0.16001,-0.212997 0.18598,-0.187001 0.18702,-0.213001 0.15999,-0.187 0.18699,-0.213001 0.16001,-0.186997 0.18699,-0.186001 0.15901,-0.187 0.187,-0.214001 0.16,-0.186 0.187,-0.187001 0.16,-0.186001 0.18599,-0.186996 0.16001,-0.187 0.18699,-0.16 0.16001,-0.187 0.18699,-0.186001 0.18702,-0.187 0.15899,-0.16 0.187,-0.186001 0.16,-0.16 0.187,-0.187 0.16,-0.16 0.187,-0.187 0.15899,-0.16 0.18702,-0.16 0.15999,-0.16 0.18701,-0.16 0.15999,-0.186001 0.186,-0.159999 0.16,-0.16 0.187,-0.161 0.16,-0.132999 0.187,-0.16 0.187,-0.16" /><path
               id="path78"
               style="fill:none;stroke:#000000;stroke-width:0.5;stroke-linecap:butt;stroke-linejoin:round;stroke-miterlimit:4;stroke-dasharray:3, 3, 3, 3, 3;stroke-dashoffset:0;stroke-opacity:1"
               d="m 163.81601,94.395004 0.186,-0.400001 0.161,-0.400002 0.186,-0.399994 0.187,-0.400001 0.16,-0.400002 0.18599,-0.400001 0.16101,-0.399002 0.18599,-0.400994 0.16001,-0.373001 0.18699,-0.400001 0.16001,-0.400002 0.186,-0.373001 0.161,-0.400001 0.186,-0.373993 0.15999,-0.400002 0.18701,-0.373001 0.15999,-0.400002 0.18601,-0.373001 0.16099,-0.374 0.373,-0.745995 0.16001,-0.374 0.186,-0.373001 0.16,-0.373001 0.187,-0.373002 0.16,-0.374 0.187,-0.373001 0.16,-0.374001 0.18599,-0.346 0.16101,-0.373993 0.18599,-0.373001 0.16001,-0.347001 0.18699,-0.373001 0.16001,-0.347 0.186,-0.373001 0.187,-0.346001 0.16,-0.347 0.187,-0.347 0.16,-0.373001 0.187,-0.347 0.159,-0.346001 0.18699,-0.347 0.16001,-0.347 0.18699,-0.346001 0.16001,-0.347 0.186,-0.319999 0.16,-0.347001 0.187,-0.345993 0.16,-0.320007 0.187,-0.347 0.16,-0.347 0.18599,-0.32 0.18702,-0.347 0.15998,-0.319 0.18702,-0.32 0.15998,-0.347 0.18601,-0.32 0.16,-0.319999 0.187,-0.32 0.16,-0.32 0.187,-0.32 0.16,-0.319999 0.18599,-0.32 0.16001,-0.32 0.18699,-0.319999 0.16001,-0.293 0.18699,-0.319999 0.18701,-0.32 0.159,-0.293999 0.187,-0.319999 0.16,-0.293 0.187,-0.319999 0.16,-0.293007 0.187,-0.32 0.15899,-0.293999 0.18702,-0.292999 0.15998,-0.292999 0.18702,-0.293999 0.15998,-0.292999 0.18601,-0.292999" /><path
               id="path80"
               style="fill:#000000;fill-opacity:1;fill-rule:nonzero;stroke:#000000;stroke-width:0.5;stroke-linecap:butt;stroke-linejoin:miter;stroke-miterlimit:4;stroke-dasharray:none;stroke-opacity:1"
               d="m 460.99103,29.158001 -1.53302,2.521997 0.086,0.057 4.112,-1.632999 c 1.43298,-0.315001 2.86599,-0.630001 4.29898,-0.946001 -1.43299,-0.314999 -2.866,-0.629999 -4.29898,-0.945999 l -4.112,-1.633002 -0.086,0.043 1.53302,2.535999 z" /><path
               id="path82"
               style="fill:#000000;fill-opacity:1;fill-rule:nonzero;stroke:#000000;stroke-width:0.5;stroke-linecap:butt;stroke-linejoin:miter;stroke-miterlimit:4;stroke-dasharray:none;stroke-opacity:1"
               d="m 396.13303,86.047005 -2.52201,-1.534005 -0.057,0.087 1.63299,4.112008 c 0.315,1.432998 0.63101,2.865997 0.94602,4.298996 0.315,-1.432999 0.63,-2.865998 0.94598,-4.298996 l 1.633,-4.112008 -0.043,-0.087 z" /><path
               id="path84"
               style="fill:none;stroke:#000000;stroke-width:0.5;stroke-linecap:butt;stroke-linejoin:round;stroke-miterlimit:4;stroke-dasharray:none;stroke-opacity:1"
               d="M 322.04501,28.967001 H 461.46603 M 396.06201,15.975 v 73.091002" /><path
               id="path86"
               style="fill:none;stroke:#000000;stroke-width:1;stroke-linecap:butt;stroke-linejoin:round;stroke-miterlimit:4;stroke-dasharray:none;stroke-opacity:1"
               d="m 380.73502,34.689003 0.16101,0.054 0.186,0.053 0.15997,0.053 0.18702,0.08 0.15899,0.054 0.18701,0.053 0.18699,0.053 0.16,0.08 0.18701,0.054 0.16,0.053 0.18601,0.08 0.16,0.053 0.18698,0.08 0.16001,0.054 0.18701,0.08 0.16,0.053 0.18598,0.08 0.16101,0.053 0.186,0.08 0.16001,0.054 0.18698,0.08 0.186,0.08 0.16001,0.053 0.18701,0.08 0.16,0.08 0.18698,0.08 0.16001,0.053 0.186,0.08 0.16,0.08 0.18699,0.08 0.16,0.08 0.18701,0.08 0.16,0.08 0.18601,0.08 0.16,0.08 0.374,0.16 0.16,0.08 0.18597,0.08 0.16001,0.08 0.18701,0.106999 0.16,0.08 0.18698,0.08 0.16001,0.106002 0.186,0.081 0.16001,0.079 0.18701,0.106999 0.16,0.08 0.18698,0.106999 0.16001,0.08 0.186,0.106998 0.16,0.08 0.18699,0.106003 0.186,0.106998 0.16101,0.08 0.18601,0.106999 0.16,0.105999 0.18698,0.107002 0.16,0.08 0.18702,0.107002 0.16,0.105999 0.18597,0.106999 0.16001,0.107002 0.18701,0.105999 0.16,0.106998 0.18698,0.133004 0.16001,0.106998 0.186,0.106998 0.18701,0.106003 0.16001,0.133999 0.186,0.105999 0.16098,0.107002 0.18601,0.133 0.16,0.106998 0.18701,0.133 0.15998,0.107002 0.186,0.132999 0.16101,0.133999 0.18601,0.105999 0.16,0.134003 0.18698,0.132999 0.16,0.133 0.18702,0.132999 0.16,0.107002 0.18597,0.133 0.18702,0.160999 0.16,0.133 0.186,0.132999 0.16098,0.134003 0.18601,0.132999 0.16,0.16 0.18701,0.132999 0.16001,0.133999 0.186,0.16 0.16098,0.133 0.18601,0.159999 0.16,0.16 0.18701,0.133003 0.15998,0.16 m -34.47998,-13.280002 0.18698,0.027 0.16,0.027 h 0.18701 l 0.159,0.026 0.18701,0.027 0.15997,0.027 0.18701,0.027 0.16001,0.026 h 0.18701 l 0.18597,0.027 0.16001,0.026 0.18701,0.027 0.16,0.027 0.18601,0.026 0.16098,0.027 0.186,0.027 0.16001,0.026 0.18701,0.027 0.16,0.027 0.18698,0.026 0.159,0.027 0.18701,0.027 0.16001,0.026 0.18698,0.027 0.16,0.027 0.18701,0.026 0.18601,0.027 0.16,0.027 0.18698,0.026 0.159,0.027 0.18802,0.027 0.15899,0.026 0.18698,0.027 0.16001,0.027 0.18701,0.026 0.16,0.027 0.18601,0.053 0.16,0.027 0.18698,0.026 0.16001,0.027 0.18701,0.027 0.18597,0.053 0.16101,0.027 0.18601,0.027 0.16,0.026 0.18698,0.054 0.16001,0.026 0.18701,0.027 0.15899,0.027 0.18702,0.053 0.16,0.027 0.18698,0.026 0.159,0.054 0.18802,0.026 0.15899,0.027 0.18698,0.053 0.16001,0.027 0.186,0.053 0.18701,0.027 0.16098,0.053 0.18601,0.027 0.16,0.027 0.18701,0.053 0.159,0.026 0.18701,0.054 0.15998,0.026 0.18701,0.054 0.16,0.053 0.18698,0.027 0.16001,0.053 0.18701,0.027 0.15899,0.053 0.18702,0.054 0.18698,0.026 0.16,0.053 0.18601,0.054 0.16,0.026 0.18701,0.054 0.15997,0.053 0.18702,0.054 0.15899,0.026 0.18701,0.053 0.16001,0.054 0.18698,0.053 0.16,0.053 0.18701,0.054 0.159,0.053 0.18701,0.027 0.18698,0.053 0.16001,0.054 0.18701,0.053 0.159,0.053 0.18698,0.053 0.16,0.054 0.18701,0.053 0.16001,0.053 0.18698,0.081 0.15899,0.053 0.18702,0.053" /><path
               id="path88"
               style="fill:none;stroke:#000000;stroke-width:1;stroke-linecap:butt;stroke-linejoin:round;stroke-miterlimit:4;stroke-dasharray:none;stroke-opacity:1"
               d="m 346.25601,29.756001 h 0.34702 l 0.15899,0.027 h 0.34699 l 0.18701,0.026 h 0.34601 l 0.15997,0.027 h 0.34702 l 0.18701,0.027 h 0.34598 l 0.18701,0.026 h 0.34698 l 0.15903,0.027 h 0.34699 l 0.18701,0.027 h 0.34698 l 0.16001,0.026 h 0.18701 l 0.15899,0.027 h 0.34699 l 0.186,0.027 h 0.18702 l 0.16,0.026 h 0.34698 l 0.18702,0.027 h 0.15899 l 0.18698,0.027 h 0.34702 l 0.16,0.026 h 0.18698 l 0.15903,0.027 h 0.18698 l 0.16001,0.027 h 0.18701 l 0.16,0.026 h 0.18597 l 0.18702,0.027 h 0.16 l 0.18701,0.027 h 0.34699 l 0.15899,0.027 h 0.18702 l 0.16,0.026 0.18698,0.027 h 0.16 l 0.18601,0.026 h 0.16 l 0.18698,0.027 h 0.16001 l 0.18701,0.027 h 0.18701 l 0.159,0.026 h 0.18698 l 0.16,0.027 h 0.18701 l 0.16001,0.027 0.18698,0.026 h 0.15899 l 0.18702,0.027 h 0.16 l 0.18701,0.027 0.15998,0.026 h 0.186 l 0.16,0.027 0.18702,0.027 h 0.16 l 0.18698,0.026 h 0.18701 l 0.159,0.027 0.18701,0.027 h 0.15997 l 0.18701,0.026 0.16001,0.027 h 0.186 l 0.16001,0.026 0.18698,0.027 0.16,0.027 h 0.18701 l 0.16001,0.027 0.186,0.026 0.15997,0.027 h 0.18702 l 0.18701,0.027 0.16,0.026 0.18698,0.027 h 0.159 l 0.18701,0.026 0.16001,0.027 m -34.48002,-1.84 h 0.534 l 0.16,0.027 h 1.22602 l 0.16098,0.027 h 1.22601 l 0.18698,0.026 h 1.04001 l 0.16,0.027 h 1.04001 l 0.18601,0.027 h 0.88098 l 0.159,0.026 h 0.88 l 0.16,0.027 h 0.88001 l 0.18701,0.027 h 0.69299 l 0.16001,0.026 h 0.694 l 0.18597,0.027 h 0.694 l 0.18701,0.027 h 0.50602 l 0.186,0.026 h 0.694 l 0.15997,0.027 h 0.53302 l 0.16001,0.027 h 0.53399 l 0.18699,0.026 h 0.50601 l 0.18701,0.027 h 0.50598 l 0.18701,0.027 h 0.34699 l 0.16,0.026 h 0.53302 l 0.18698,0.027 m -19.51999,-0.533 h 1.22599 l 0.16101,0.026 h 0.87899" /><path
               id="path90"
               style="fill:none;stroke:#000000;stroke-width:0.5;stroke-linecap:butt;stroke-linejoin:round;stroke-miterlimit:4;stroke-dasharray:3, 3, 3, 3, 3, 3;stroke-dashoffset:0;stroke-opacity:1"
               d="m 411.72202,60.876003 0.186,0.265999 0.18701,0.267002 0.15997,0.292999 0.18601,0.266999 0.16101,0.267002 0.186,0.265999 0.16001,0.267002 0.18698,0.292999 0.16,0.266998 0.18601,0.267002 0.16101,0.293 0.186,0.267002 0.15998,0.292999 0.18701,0.292999 0.16,0.266999 0.18701,0.292999 0.18698,0.293999 0.159,0.292999 0.18701,0.293007 0.16001,0.293999 0.186,0.292999 0.15997,0.292999 0.18702,0.293999 0.16,0.292999 0.18701,0.292999 0.15997,0.293999 0.18601,0.32 0.16101,0.293007 0.186,0.319999 0.16001,0.293 0.18698,0.319999 0.16,0.293999 0.37302,0.639999 0.16,0.293 0.18698,0.319999 0.16001,0.32 0.18701,0.32 0.16,0.319999 0.18598,0.32 0.16,0.32 0.18701,0.32 0.16001,0.319999 0.186,0.32 0.16098,0.347 0.18601,0.32 0.16,0.319 0.18701,0.347 0.18698,0.32 0.159,0.347 0.18701,0.346001 0.16,0.319999 0.18699,0.347 0.16,0.347001 0.18701,0.319999 0.159,0.347 0.18701,0.346001 0.16,0.347 0.18698,0.347 0.16001,0.346001 0.186,0.347 0.16101,0.373001 0.18598,0.347 0.18701,0.347 0.16,0.346001 0.18701,0.373001 0.159,0.347 0.18698,0.373001 0.16001,0.347001 0.18701,0.373001 0.16,0.373993 0.18598,0.346 0.16,0.374001 0.18701,0.373001 0.16,0.373001 0.18699,0.374001 0.16,0.373001 0.186,0.373001 0.16001,0.374 0.18701,0.372994 0.18698,0.373001 0.16,0.374 0.18702,0.373001 0.15899,0.400002 0.18701,0.373001 0.15998,0.400002 0.18701,0.373993 0.16,0.400001 0.18701,0.373001 0.159,0.400002 0.18698,0.400001 0.16001,0.373001 0.18701,0.399994 0.16,0.400002 0.18598,0.400001 0.18701,0.400002" /><path
               id="path92"
               style="fill:none;stroke:#000000;stroke-width:1;stroke-linecap:butt;stroke-linejoin:round;stroke-miterlimit:4;stroke-dasharray:none;stroke-opacity:1"
               d="m 428.46802,92.795006 0.16,0.400001 0.18701,0.399994 0.15998,0.400002" /><path
               id="path94"
               style="fill:none;stroke:#000000;stroke-width:0.5;stroke-linecap:butt;stroke-linejoin:round;stroke-miterlimit:4;stroke-dasharray:3, 3, 3, 3, 3, 3;stroke-dashoffset:0;stroke-opacity:1"
               d="m 394.49503,41.569 0.16,0.134003 0.18698,0.132999 0.16,0.133 0.18702,0.132999 0.16,0.134003 0.37299,0.266998 0.16,0.133 0.186,0.132999 0.16098,0.134003 0.18601,0.132999 0.16,0.16 0.18701,0.132999 0.16001,0.133999 0.186,0.16 0.16098,0.133 0.18601,0.159999 0.16,0.16 0.18701,0.133003 0.15998,0.16 0.186,0.16 0.18701,0.16 0.16001,0.132999 0.18698,0.161 0.16,0.16 0.18601,0.159999 0.16101,0.186001 0.186,0.16 0.16,0.16 0.18699,0.16 0.16,0.16 0.186,0.187 0.16098,0.16 0.18601,0.187 0.16,0.16 0.18701,0.186001 0.18601,0.16 0.16,0.187 0.18698,0.186001 0.16001,0.187 0.18701,0.16 0.16,0.187 0.18598,0.186996 0.16,0.186001 0.18701,0.187001 0.16001,0.186 0.18698,0.214001 0.16,0.187 0.18601,0.186001 0.16101,0.186997 0.186,0.213001 0.16,0.187 0.18699,0.213001 0.186,0.187001 0.16,0.212997 0.18698,0.187 0.16001,0.213002 0.18701,0.214 0.16,0.212998 0.18601,0.187 0.16,0.213001 0.18698,0.213002 0.16001,0.214 0.18701,0.212998 0.16,0.213001 0.18598,0.239998 0.16,0.214001 0.37402,0.426002 0.15998,0.239998 0.186,0.213001 0.16001,0.241001 0.18701,0.212998 0.16,0.240001 0.18698,0.212998 0.16001,0.240002 0.186,0.240001 0.16,0.239998 0.18698,0.213001 0.16001,0.239998 0.18701,0.241001 0.16,0.240002 0.18601,0.238998 0.16,0.267003 0.37299,0.479999 0.16101,0.239998 0.18698,0.240002 0.159,0.266998 0.18701,0.240002 0.16,0.266998 0.18701,0.239002 0.15998,0.266998 0.186,0.267002 0.16001,0.239998 0.18701,0.265999 0.16,0.267002 0.18698,0.266999 0.16001,0.240001" /><text
               id="text98"
               style="font-variant:normal;font-weight:normal;font-size:11.95500088px;font-family:CMMI12;-inkscape-font-specification:CMMI12;writing-mode:lr-tb;fill:#231f20;fill-opacity:1;fill-rule:nonzero;stroke:none"
               transform="matrix(1,0,0,-1,457.00009,19)"><tspan
                 id="tspan96"
                 y="0"
                 x="0">x</tspan></text>
<text
               id="text102"
               style="font-variant:normal;font-weight:normal;font-size:11.95500088px;font-family:CMMI12;-inkscape-font-specification:CMMI12;writing-mode:lr-tb;fill:#231f20;fill-opacity:1;fill-rule:nonzero;stroke:none"
               transform="matrix(1,0,0,-1,80.000351,89.999557)"><tspan
                 id="tspan100"
                 y="0"
                 x="0">y</tspan></text>
<text
               id="text106"
               style="font-variant:normal;font-weight:normal;font-size:11.95500088px;font-family:CMMI12;-inkscape-font-specification:CMMI12;writing-mode:lr-tb;fill:#231f20;fill-opacity:1;fill-rule:nonzero;stroke:none"
               transform="matrix(1,0,0,-1,350.00046,32.99931)"><tspan
                 id="tspan104"
                 y="0"
                 x="0">e</tspan></text>
<text
               id="text110"
               style="font-variant:normal;font-weight:normal;font-size:7.96999979px;font-family:CMMI8;-inkscape-font-specification:CMMI8;writing-mode:lr-tb;fill:#231f20;fill-opacity:1;fill-rule:nonzero;stroke:none"
               transform="matrix(1,0,0,-1,355.4248,37.935898)"><tspan
                 id="tspan108"
                 y="0"
                 x="0">x</tspan></text>
<text
               id="text114"
               style="font-variant:normal;font-weight:normal;font-size:8.36849976px;font-family:CMR12;-inkscape-font-specification:CMR12;writing-mode:lr-tb;fill:#231f20;fill-opacity:1;fill-rule:nonzero;stroke:none"
               transform="matrix(1,0,0,-1,125.9136,77.301796)"><tspan
                 id="tspan112"
                 y="0"
                 x="0">1</tspan></text>
<text
               id="text118"
               style="font-variant:normal;font-weight:normal;font-size:8.36849976px;font-family:CMR12;-inkscape-font-specification:CMR12;writing-mode:lr-tb;fill:#231f20;fill-opacity:1;fill-rule:nonzero;stroke:none"
               transform="matrix(1,0,0,-1,131.87448,77.301796)"><tspan
                 id="tspan116"
                 y="0"
                 x="0">+</tspan></text>
<text
               id="text122"
               style="font-variant:normal;font-weight:normal;font-size:8.36849976px;font-family:CMMI12;-inkscape-font-specification:CMMI12;writing-mode:lr-tb;fill:#231f20;fill-opacity:1;fill-rule:nonzero;stroke:none"
               transform="matrix(1,0,0,-1,140.10323,77.301796)"><tspan
                 id="tspan120"
                 y="0"
                 x="0">x</tspan></text>
<text
               id="text126"
               style="font-variant:normal;font-weight:normal;font-size:8.36849976px;font-family:CMR12;-inkscape-font-specification:CMR12;writing-mode:lr-tb;fill:#231f20;fill-opacity:1;fill-rule:nonzero;stroke:none"
               transform="matrix(1,0,0,-1,207.29391,111.00007)"><tspan
                 id="tspan124"
                 y="0"
                 x="0">1</tspan></text>
<text
               id="text130"
               style="font-variant:normal;font-weight:normal;font-size:8.36849976px;font-family:CMR12;-inkscape-font-specification:CMR12;writing-mode:lr-tb;fill:#231f20;fill-opacity:1;fill-rule:nonzero;stroke:none"
               transform="matrix(1,0,0,-1,213.25397,111.00007)"><tspan
                 id="tspan128"
                 y="0"
                 x="0">+</tspan></text>
<text
               id="text134"
               style="font-variant:normal;font-weight:normal;font-size:8.36849976px;font-family:CMMI12;-inkscape-font-specification:CMMI12;writing-mode:lr-tb;fill:#231f20;fill-opacity:1;fill-rule:nonzero;stroke:none"
               transform="matrix(1,0,0,-1,221.48354,111.00007)"><tspan
                 id="tspan132"
                 y="0"
                 x="0">x</tspan></text>
<text
               id="text138"
               style="font-variant:normal;font-weight:normal;font-size:8.36849976px;font-family:CMR12;-inkscape-font-specification:CMR12;writing-mode:lr-tb;fill:#231f20;fill-opacity:1;fill-rule:nonzero;stroke:none"
               transform="matrix(1,0,0,-1,227.99925,111.00007)"><tspan
                 id="tspan136"
                 y="0"
                 x="0">+</tspan></text>
<text
               id="text142"
               style="font-variant:normal;font-weight:normal;font-size:8.36849976px;font-family:CMMI12;-inkscape-font-specification:CMMI12;writing-mode:lr-tb;fill:#231f20;fill-opacity:1;fill-rule:nonzero;stroke:none"
               transform="matrix(1,0,0,-1,237.06819,116.66136)"><tspan
                 id="tspan140"
                 y="0"
                 x="0">x</tspan></text>
<text
               id="text146"
               style="font-variant:normal;font-weight:normal;font-size:5.57900047px;font-family:CMR8;-inkscape-font-specification:CMR8;writing-mode:lr-tb;fill:#231f20;fill-opacity:1;fill-rule:nonzero;stroke:none"
               transform="matrix(1,0,0,-1,241.7256,119.6989)"><tspan
                 id="tspan144"
                 y="0"
                 x="0">2</tspan></text>
<path
               id="path148"
               style="fill:#231f20;fill-opacity:1;fill-rule:nonzero;stroke:none"
               d="m 237.06902,113.259 h 7.96899 v -0.335 h -7.96899 z" /><text
               id="text152"
               style="font-variant:normal;font-weight:normal;font-size:8.36849976px;font-family:CMR12;-inkscape-font-specification:CMR12;writing-mode:lr-tb;fill:#231f20;fill-opacity:1;fill-rule:nonzero;stroke:none"
               transform="matrix(1,0,0,-1,237.86719,105.25999)"><tspan
                 id="tspan150"
                 y="0"
                 x="0 4.100565">2!</tspan></text>
<text
               id="text156"
               style="font-variant:normal;font-weight:normal;font-size:8.36849976px;font-family:CMR12;-inkscape-font-specification:CMR12;writing-mode:lr-tb;fill:#231f20;fill-opacity:1;fill-rule:nonzero;stroke:none"
               transform="matrix(1,0,0,-1,343.22577,113.66699)"><tspan
                 id="tspan154"
                 y="0"
                 x="0">1</tspan></text>
<text
               id="text160"
               style="font-variant:normal;font-weight:normal;font-size:8.36849976px;font-family:CMR12;-inkscape-font-specification:CMR12;writing-mode:lr-tb;fill:#231f20;fill-opacity:1;fill-rule:nonzero;stroke:none"
               transform="matrix(1,0,0,-1,349.18665,113.66699)"><tspan
                 id="tspan158"
                 y="0"
                 x="0">+</tspan></text>
<text
               id="text164"
               style="font-variant:normal;font-weight:normal;font-size:8.36849976px;font-family:CMMI12;-inkscape-font-specification:CMMI12;writing-mode:lr-tb;fill:#231f20;fill-opacity:1;fill-rule:nonzero;stroke:none"
               transform="matrix(1,0,0,-1,357.41541,113.66699)"><tspan
                 id="tspan162"
                 y="0"
                 x="0">x</tspan></text>
<text
               id="text168"
               style="font-variant:normal;font-weight:normal;font-size:8.36849976px;font-family:CMR12;-inkscape-font-specification:CMR12;writing-mode:lr-tb;fill:#231f20;fill-opacity:1;fill-rule:nonzero;stroke:none"
               transform="matrix(1,0,0,-1,363.93195,113.66699)"><tspan
                 id="tspan166"
                 y="0"
                 x="0">+</tspan></text>
<text
               id="text172"
               style="font-variant:normal;font-weight:normal;font-size:8.36849976px;font-family:CMMI12;-inkscape-font-specification:CMMI12;writing-mode:lr-tb;fill:#231f20;fill-opacity:1;fill-rule:nonzero;stroke:none"
               transform="matrix(1,0,0,-1,373.00174,119.32912)"><tspan
                 id="tspan170"
                 y="0"
                 x="0">x</tspan></text>
<text
               id="text176"
               style="font-variant:normal;font-weight:normal;font-size:5.57900047px;font-family:CMR8;-inkscape-font-specification:CMR8;writing-mode:lr-tb;fill:#231f20;fill-opacity:1;fill-rule:nonzero;stroke:none"
               transform="matrix(1,0,0,-1,377.6582,122.36501)"><tspan
                 id="tspan174"
                 y="0"
                 x="0">2</tspan></text>
<path
               id="path178"
               style="fill:#231f20;fill-opacity:1;fill-rule:nonzero;stroke:none"
               d="m 373.00201,115.926 h 7.96899 v -0.335 h -7.96899 z" /><text
               id="text182"
               style="font-variant:normal;font-weight:normal;font-size:8.36849976px;font-family:CMR12;-inkscape-font-specification:CMR12;writing-mode:lr-tb;fill:#231f20;fill-opacity:1;fill-rule:nonzero;stroke:none"
               transform="matrix(1,0,0,-1,373.7998,107.926)"><tspan
                 id="tspan180"
                 y="0"
                 x="0 4.100565">2!</tspan></text>
<text
               id="text186"
               style="font-variant:normal;font-weight:normal;font-size:8.36849976px;font-family:CMR12;-inkscape-font-specification:CMR12;writing-mode:lr-tb;fill:#231f20;fill-opacity:1;fill-rule:nonzero;stroke:none"
               transform="matrix(1,0,0,-1,383.66711,113.66679)"><tspan
                 id="tspan184"
                 y="0"
                 x="0">+</tspan></text>
<text
               id="text190"
               style="font-variant:normal;font-weight:normal;font-size:8.36849976px;font-family:CMMI12;-inkscape-font-specification:CMMI12;writing-mode:lr-tb;fill:#231f20;fill-opacity:1;fill-rule:nonzero;stroke:none"
               transform="matrix(1,0,0,-1,392.73691,119.32892)"><tspan
                 id="tspan188"
                 y="0"
                 x="0">x</tspan></text>
<text
               id="text194"
               style="font-variant:normal;font-weight:normal;font-size:5.57900047px;font-family:CMR8;-inkscape-font-specification:CMR8;writing-mode:lr-tb;fill:#231f20;fill-opacity:1;fill-rule:nonzero;stroke:none"
               transform="matrix(1,0,0,-1,397.3931,122.36501)"><tspan
                 id="tspan192"
                 y="0"
                 x="0">3</tspan></text>
<path
               id="path196"
               style="fill:#231f20;fill-opacity:1;fill-rule:nonzero;stroke:none"
               d="m 392.73703,115.926 h 7.96899 v -0.335 h -7.96899 z" /><text
               id="text200"
               style="font-variant:normal;font-weight:normal;font-size:8.36849976px;font-family:CMR12;-inkscape-font-specification:CMR12;writing-mode:lr-tb;fill:#231f20;fill-opacity:1;fill-rule:nonzero;stroke:none"
               transform="matrix(1,0,0,-1,393.5347,107.926)"><tspan
                 id="tspan198"
                 y="0"
                 x="0 4.100565">3!</tspan></text>
<text
               id="text204"
               style="font-variant:normal;font-weight:normal;font-size:11.95500088px;font-family:CMR12;-inkscape-font-specification:CMR12;writing-mode:lr-tb;fill:#231f20;fill-opacity:1;fill-rule:nonzero;stroke:none"
               transform="matrix(1,0,0,-1,65.337898,3.9491999)"><tspan
                 id="tspan202"
                 y="0"
                 x="0 4.5548553 10.412806">(a)</tspan></text>
<text
               id="text208"
               style="font-variant:normal;font-weight:normal;font-size:11.95500088px;font-family:CMR12;-inkscape-font-specification:CMR12;writing-mode:lr-tb;fill:#231f20;fill-opacity:1;fill-rule:nonzero;stroke:none"
               transform="matrix(1,0,0,-1,224.01184,3.9491999)"><tspan
                 id="tspan206"
                 y="0"
                 x="0 4.5548553 11.058376">(b)</tspan></text>
<text
               id="text212"
               style="font-variant:normal;font-weight:normal;font-size:11.95500088px;font-family:CMR12;-inkscape-font-specification:CMR12;writing-mode:lr-tb;fill:#231f20;fill-opacity:1;fill-rule:nonzero;stroke:none"
               transform="matrix(1,0,0,-1,389.33157,3.9491999)"><tspan
                 id="tspan210"
                 y="0"
                 x="0 4.5548553 9.7552805">(c)</tspan></text>
<text
               id="text216"
               style="font-variant:normal;font-weight:normal;font-size:11.95500088px;font-family:CMMI12;-inkscape-font-specification:CMMI12;writing-mode:lr-tb;fill:#231f20;fill-opacity:1;fill-rule:nonzero;stroke:none"
               transform="matrix(1,0,0,-1,293.46921,19.011305)"><tspan
                 id="tspan214"
                 y="0"
                 x="0">x</tspan></text>
<text
               id="text220"
               style="font-variant:normal;font-weight:normal;font-size:11.95500088px;font-family:CMMI12;-inkscape-font-specification:CMMI12;writing-mode:lr-tb;fill:#231f20;fill-opacity:1;fill-rule:nonzero;stroke:none"
               transform="matrix(1,0,0,-1,402.00027,90.999535)"><tspan
                 id="tspan218"
                 y="0"
                 x="0">y</tspan></text>
<text
               id="text224"
               style="font-variant:normal;font-weight:normal;font-size:11.95500088px;font-family:CMMI12;-inkscape-font-specification:CMMI12;writing-mode:lr-tb;fill:#231f20;fill-opacity:1;fill-rule:nonzero;stroke:none"
               transform="matrix(1,0,0,-1,136.99974,18.99935)"><tspan
                 id="tspan222"
                 y="0"
                 x="0">x</tspan></text>
<text
               id="text228"
               style="font-variant:normal;font-weight:normal;font-size:11.95500088px;font-family:CMMI12;-inkscape-font-specification:CMMI12;writing-mode:lr-tb;fill:#231f20;fill-opacity:1;fill-rule:nonzero;stroke:none"
               transform="matrix(1,0,0,-1,236.99973,89.998901)"><tspan
                 id="tspan226"
                 y="0"
                 x="0">y</tspan></text>
<text
               id="text232"
               style="font-variant:normal;font-weight:normal;font-size:11.95500088px;font-family:CMMI12;-inkscape-font-specification:CMMI12;writing-mode:lr-tb;fill:#231f20;fill-opacity:1;fill-rule:nonzero;stroke:none"
               transform="matrix(1,0,0,-1,38.999813,34.998726)"><tspan
                 id="tspan230"
                 y="0"
                 x="0">e</tspan></text>
<text
               id="text236"
               style="font-variant:normal;font-weight:normal;font-size:7.96999979px;font-family:CMMI8;-inkscape-font-specification:CMMI8;writing-mode:lr-tb;fill:#231f20;fill-opacity:1;fill-rule:nonzero;stroke:none"
               transform="matrix(1,0,0,-1,44.424797,39.936001)"><tspan
                 id="tspan234"
                 y="0"
                 x="0">x</tspan></text>
<text
               id="text240"
               style="font-variant:normal;font-weight:normal;font-size:11.95500088px;font-family:CMMI12;-inkscape-font-specification:CMMI12;writing-mode:lr-tb;fill:#231f20;fill-opacity:1;fill-rule:nonzero;stroke:none"
               transform="matrix(1,0,0,-1,179.40869,30.914598)"><tspan
                 id="tspan238"
                 y="0"
                 x="0">e</tspan></text>
<text
               id="text244"
               style="font-variant:normal;font-weight:normal;font-size:7.96999979px;font-family:CMMI8;-inkscape-font-specification:CMMI8;writing-mode:lr-tb;fill:#231f20;fill-opacity:1;fill-rule:nonzero;stroke:none"
               transform="matrix(1,0,0,-1,184.83401,35.850597)"><tspan
                 id="tspan242"
                 y="0"
                 x="0">x</tspan></text>
<path
               id="path246"
               style="fill:none;stroke:#000000;stroke-width:1;stroke-linecap:butt;stroke-linejoin:round;stroke-miterlimit:4;stroke-dasharray:none;stroke-opacity:1"
               d="m 418.25,78.175003 0.18301,0.444992 0.15699,0.445007 0.18301,0.444993 0.15698,0.445007 0.18402,0.445 0.18302,0.471 0.15698,0.445 0.18301,0.472 0.15699,0.471001 0.18402,0.470993 0.15698,0.471008 0.18301,0.472 0.15699,0.471001 0.18301,0.497001 0.15701,0.471001 0.18399,0.497994 0.15699,0.497001 0.18301,0.498001 0.15701,0.497002 0.366,0.995003 0.15796,0.523994 0.18304,0.497002 0.15696,0.524002 0.18304,0.524002 0.15698,0.522995 0.18402,0.524002 0.15699,0.523003 0.18301,0.549995 0.15698,0.523995 0.18402,0.549003 m -22.22802,-45.133999 0.15701,0.182999 0.18399,0.209 0.15701,0.182998 0.18299,0.209999 0.15701,0.183003 0.18301,0.210003 0.15698,0.208999 0.184,0.182999 0.15701,0.209999 0.18301,0.209 0.18299,0.210003 0.15701,0.208999 0.18298,0.209999 0.15799,0.235001 0.18302,0.209999 0.15698,0.209 0.18301,0.236 0.15698,0.208999 0.18302,0.236 0.15802,0.236 0.18298,0.209 0.15701,0.236 0.18299,0.235001 0.15701,0.235996 0.18399,0.235004 0.18301,0.262001 0.15699,0.236001 0.18301,0.236 0.15701,0.260994 0.18399,0.236003 0.15699,0.262001 0.18301,0.235001 0.15701,0.262001 0.18299,0.261997 0.15799,0.262001 0.18298,0.262001 0.15704,0.260998 0.18296,0.287998 0.15704,0.262005 0.18295,0.261997 0.15705,0.288002 0.18399,0.262002 0.18301,0.287998 0.15698,0.287994 0.18302,0.288006 0.15698,0.287998 0.18402,0.288002 0.15698,0.287998 0.18302,0.287003 0.15698,0.288998 0.18301,0.314003 0.15699,0.287994 0.18402,0.314003 0.15698,0.313999 0.18301,0.314003 0.15699,0.287998 0.18301,0.313999 0.18396,0.341004 0.15704,0.313999 0.18299,0.313999 0.15701,0.34 0.18298,0.314999 0.15702,0.340004 0.18399,0.313995 0.156,0.340004 0.18402,0.340996 0.15699,0.340004 0.18301,0.339996 0.15698,0.366997 0.18402,0.340004 0.15598,0.367005 0.18402,0.339996 0.18298,0.365997 0.15702,0.367005 0.18298,0.340995 0.15802,0.392006 0.18298,0.366997 0.15701,0.365997 0.18299,0.367005 0.15701,0.391998 0.18298,0.366997 0.15802,0.393005 0.18299,0.391998 0.15701,0.392998 0.18301,0.393006 0.15699,0.391998 0.18301,0.392998 0.15799,0.392997 0.18301,0.418999 0.18299,0.392006 0.15701,0.418999 0.18399,0.418991 0.15601,0.419006 0.18399,0.418999 0.15701,0.419006 0.18298,0.418999 0.15702,0.445 0.18399,0.418991 0.15698,0.445007" /><path
               id="path248"
               style="fill:none;stroke:#000000;stroke-width:1;stroke-linecap:butt;stroke-linejoin:round;stroke-miterlimit:4;stroke-dasharray:none;stroke-opacity:1"
               d="m 384.39801,36.156002 0.18402,0.078 0.15698,0.078 0.18302,0.079 0.15698,0.07899 0.18402,0.078 0.15598,0.079 0.18402,0.078 0.15695,0.079 0.18304,0.104 0.15699,0.079 0.18402,0.079 0.15698,0.078 0.18301,0.079 0.18299,0.078 0.15701,0.105 0.18298,0.078 0.15802,0.079 0.18299,0.105 0.15701,0.078 0.18301,0.079 0.15699,0.105 0.18301,0.078 0.15799,0.079 0.18301,0.104 0.15699,0.079 0.18301,0.104 0.15698,0.105003 0.18399,0.079 0.15702,0.105 0.18298,0.104 0.18301,0.079 0.15699,0.105004 0.18402,0.104 0.15597,0.104995 0.18402,0.079 0.15702,0.104 0.18298,0.104999 0.15701,0.105 0.18399,0.104999 0.15601,0.104001 0.18399,0.104999 0.15701,0.105003 0.18298,0.104001 0.15802,0.130996 0.366,0.210003 0.15698,0.105 0.18302,0.130001 0.15701,0.104999 0.18396,0.131001 0.15701,0.104999 0.18302,0.130997 0.15701,0.104 0.18295,0.131001 0.15705,0.130996 0.18399,0.105004 0.15701,0.131 0.18298,0.131001 0.15702,0.130001 0.18298,0.131 0.15701,0.105 0.18399,0.131 0.18302,0.156998 0.15698,0.131001 0.18301,0.131 0.15699,0.131001 0.18402,0.131 0.15698,0.156998 0.18301,0.131 0.15699,0.131001 0.18301,0.157001 0.15799,0.131001 0.18301,0.156998 0.15699,0.157001 0.18301,0.131001 0.15701,0.156997 0.18299,0.157002 0.18298,0.156997 0.15802,0.157002 0.18301,0.157001 0.15699,0.156998 0.18301,0.157002 0.15698,0.156997 0.18402,0.156998 0.15699,0.157005 0.18301,0.183998 0.15698,0.157002 0.18302,0.182999 0.15698,0.157001 0.18402,0.183998 0.15695,0.156002 0.18305,0.183998 0.18298,0.183003 0.15701,0.182998 0.18399,0.183999 0.15702,0.183002 0.18298,0.182999 0.15701,0.183002 0.18299,0.183998" /><path
               id="path250"
               style="fill:none;stroke:#000000;stroke-width:0.5;stroke-linecap:butt;stroke-linejoin:round;stroke-miterlimit:4;stroke-dasharray:3, 3, 3, 3, 3, 3;stroke-dashoffset:0;stroke-opacity:1"
               d="m 367.45999,28.589001 0.18302,0.079 0.15701,0.105 0.18301,0.104 0.18399,0.079 0.15699,0.105 0.18301,0.105001 0.15701,0.078 0.18399,0.105 0.15601,0.078 0.18399,0.104999 0.15701,0.078 0.18299,0.105003 0.15701,0.079 0.18399,0.078 0.156,0.104999 0.18399,0.078 0.15702,0.079 0.18298,0.105001 0.18302,0.078 0.15795,0.079 0.18305,0.078 0.15695,0.079 0.18304,0.105 0.15696,0.078 0.18304,0.079 0.15799,0.078 0.18301,0.079 0.15699,0.078 0.18301,0.079 0.15698,0.079 0.18302,0.078 0.15799,0.078 0.18301,0.079 0.15698,0.078 0.18302,0.079 0.18399,0.079 0.156,0.052 0.18399,0.079 0.15702,0.078 0.18301,0.079 0.15698,0.078 0.18399,0.079 0.15601,0.052 0.18399,0.079 0.15701,0.078 0.18299,0.079 0.15701,0.052 0.18402,0.078 0.15598,0.079 0.18402,0.079 0.18298,0.052 0.15701,0.079 0.18299,0.078 0.15802,0.052 0.18298,0.079 0.15701,0.079 0.18299,0.052 0.15701,0.078 0.18301,0.079 0.15799,0.052 0.18299,0.079 0.15701,0.078 0.18301,0.053 0.15699,0.078 0.18301,0.079 0.18396,0.052 0.15704,0.079 0.18296,0.052 0.15704,0.078 0.18295,0.079 0.15705,0.053 0.18399,0.078 0.15701,0.079 0.18298,0.052 0.15701,0.078 0.184,0.079 0.156,0.052 0.18399,0.079 0.15701,0.079 0.18299,0.052 0.15701,0.078 0.18399,0.079 0.18302,0.052 0.15698,0.079 0.18301,0.078 0.15698,0.079 0.18302,0.052 0.15799,0.079 0.18301,0.078 0.15698,0.079 0.18302,0.078 0.15701,0.053 0.18298,0.078 0.15799,0.079 0.18302,0.078 0.15701,0.079 0.18298,0.078 0.18302,0.079 0.15698,0.052 M 350.54703,12.043 l 0.15799,0.262 0.18301,0.262 0.15698,0.236 0.18302,0.261001 0.15698,0.235999 0.18301,0.236 0.18399,0.262 0.15702,0.235001 0.18298,0.236 0.15701,0.235 0.18399,0.235999 0.15601,0.236001 0.18399,0.234999 0.15698,0.21 0.18302,0.235001 0.15698,0.236 0.18402,0.21 0.15598,0.209 0.18402,0.235 0.15701,0.21 0.18298,0.208999 0.15802,0.210001 0.366,0.419001 0.15698,0.208999 0.18302,0.209999 0.15701,0.183001 0.18298,0.209 0.15799,0.210001 0.18302,0.182998 0.15701,0.210001 0.18298,0.182999 0.15702,0.183001 0.18298,0.183 0.15802,0.209999 0.18298,0.182999 0.15702,0.183002 0.18295,0.183001 0.18405,0.157999 0.15597,0.183 0.18403,0.182999 0.15698,0.183001 0.18301,0.156999 0.15698,0.184 0.18403,0.157002 0.156,0.182998 0.18399,0.157002 0.15698,0.157 0.18302,0.156999 0.15701,0.183001 0.18399,0.157999 0.15601,0.156999 0.18399,0.157 0.15701,0.157001 0.18298,0.157 0.18302,0.131001 0.15799,0.156999 0.18298,0.157 0.15701,0.130998 0.18299,0.157002 0.15701,0.156999 0.18298,0.131001 0.15802,0.131 0.18302,0.157 0.15698,0.131001 0.18301,0.131 0.15699,0.157 0.18301,0.130998 0.15799,0.130001 0.18301,0.132 0.18299,0.129999 0.15701,0.131001 0.18298,0.131 0.15702,0.131001 0.18399,0.105 0.15701,0.131 0.18298,0.129999 0.15702,0.105 0.18399,0.130998 0.156,0.131003 0.18399,0.104999 0.15702,0.131001 0.18301,0.104999 0.15698,0.104001 0.18399,0.131 0.18302,0.105 0.15701,0.104999 0.18298,0.130001 0.15702,0.105 0.18298,0.104999 0.15802,0.105 0.18298,0.104 0.15702,0.104999 0.18298,0.105002 0.15701,0.103998 0.18299,0.105002 0.15799,0.104997 0.18301,0.105002 0.15698,0.104" /><path
               id="path252"
               style="fill:none;stroke:#000000;stroke-width:0.5;stroke-linecap:butt;stroke-linejoin:round;stroke-miterlimit:4;stroke-dasharray:none;stroke-opacity:1"
               d="m 404.29202,117.5 24.383,-24.382996" /><path
               id="path254"
               style="fill:#231f20;fill-opacity:1;fill-rule:nonzero;stroke:none"
               d="M 203,108.33301 172.466,77.799004" /></g></g></g></g></g></svg>