<?xml version="1.0" encoding="UTF-8" standalone="no"?>
<svg
   xmlns:dc="http://purl.org/dc/elements/1.1/"
   xmlns:cc="http://creativecommons.org/ns#"
   xmlns:rdf="http://www.w3.org/1999/02/22-rdf-syntax-ns#"
   xmlns:svg="http://www.w3.org/2000/svg"
   xmlns="http://www.w3.org/2000/svg"
   viewBox="0 0 670.66669 218.66667"
   height="218.66667"
   width="670.66669"
   xml:space="preserve"
   id="svg2"
   version="1.1"><metadata
     id="metadata8"><rdf:RDF><cc:Work
         rdf:about=""><dc:format>image/svg+xml</dc:format><dc:type
           rdf:resource="http://purl.org/dc/dcmitype/StillImage" /></cc:Work></rdf:RDF></metadata><defs
     id="defs6"><clipPath
       id="clipPath24"
       clipPathUnits="userSpaceOnUse"><path
         id="path22"
         d="M 0,0 H 503 V 164 H 0 Z" /></clipPath></defs><g
     transform="matrix(1.3333333,0,0,-1.3333333,0,218.66667)"
     id="g10"><g
       id="g12" /><g
       id="g14" /><g
       id="g16"><g
         id="g18"><g
           clip-path="url(#clipPath24)"
           id="g20"><g
             id="g26" /><g
             id="g28"><path
               id="path30"
               style="fill:none;stroke:#231f20;stroke-width:1;stroke-linecap:butt;stroke-linejoin:miter;stroke-miterlimit:4;stroke-dasharray:3, 3, 3, 3, 3, 3;stroke-dashoffset:0;stroke-opacity:1"
               d="m 425.56503,53.59 h 62.06198 v 105.06401" /><path
               id="path32"
               style="fill:none;stroke:#231f20;stroke-width:1;stroke-linecap:butt;stroke-linejoin:miter;stroke-miterlimit:4;stroke-dasharray:none;stroke-opacity:1"
               d="M 487.62701,158.65401 317.13,53.59 h 108.43503 m 46.85599,0.461003 V 67.875 h 14.745" /><text
               id="text36"
               style="font-variant:normal;font-weight:normal;font-size:13.77219963px;font-family:CMMI12;-inkscape-font-specification:CMMI12;writing-mode:lr-tb;fill:#231f20;fill-opacity:1;fill-rule:nonzero;stroke:none"
               transform="matrix(1,0,0,-1,89.786598,106.7783)"><tspan
                 id="tspan34"
                 y="0"
                 x="0">a</tspan></text>
<text
               id="text40"
               style="font-variant:normal;font-weight:normal;font-size:13.77219963px;font-family:CMMI12;-inkscape-font-specification:CMMI12;writing-mode:lr-tb;fill:#231f20;fill-opacity:1;fill-rule:nonzero;stroke:none"
               transform="matrix(1,0,0,-1,491.80396,145.6765)"><tspan
                 id="tspan38"
                 y="0"
                 x="0">B</tspan></text>
<text
               id="text44"
               style="font-variant:normal;font-weight:normal;font-size:13.77219963px;font-family:CMMI12;-inkscape-font-specification:CMMI12;writing-mode:lr-tb;fill:#231f20;fill-opacity:1;fill-rule:nonzero;stroke:none"
               transform="matrix(1,0,0,-1,453.21149,90.381111)"><tspan
                 id="tspan42"
                 y="0"
                 x="0">c</tspan></text>
<path
               id="path46"
               style="fill:#231f20;fill-opacity:1;fill-rule:nonzero;stroke:none"
               d="M 487.62701,158.65401 426.13998,54.235004" /><path
               id="path48"
               style="fill:none;stroke:#231f20;stroke-width:1;stroke-linecap:butt;stroke-linejoin:miter;stroke-miterlimit:4;stroke-dasharray:none;stroke-opacity:1"
               d="m 437.60703,74.291 c -3.05201,1.557007 -6.50901,2.435006 -10.17099,2.435006 -12.38102,0 -22.41803,-10.037003 -22.41803,-22.418004 M 185.40401,156.91301 14.907001,51.849003 H 123.341" /><text
               id="text52"
               style="font-variant:normal;font-weight:normal;font-size:13.77219963px;font-family:CMMI12;-inkscape-font-specification:CMMI12;writing-mode:lr-tb;fill:#231f20;fill-opacity:1;fill-rule:nonzero;stroke:none"
               transform="matrix(1,0,0,-1,237.58,47.105003)"><tspan
                 id="tspan50"
                 y="0"
                 x="0">A</tspan></text>
<text
               id="text56"
               style="font-variant:normal;font-weight:normal;font-size:13.77219963px;font-family:CMMI12;-inkscape-font-specification:CMMI12;writing-mode:lr-tb;fill:#231f20;fill-opacity:1;fill-rule:nonzero;stroke:none"
               transform="matrix(1,0,0,-1,219.16245,102.40176)"><tspan
                 id="tspan54"
                 y="0"
                 x="0">c</tspan></text>
<path
               id="path58"
               style="fill:none;stroke:#231f20;stroke-width:1;stroke-linecap:butt;stroke-linejoin:miter;stroke-miterlimit:4;stroke-dasharray:none;stroke-opacity:1"
               d="M 123.91801,52.495003 H 236.81302 L 185.40401,156.91301" /><text
               id="text62"
               style="font-variant:normal;font-weight:normal;font-size:13.77219963px;font-family:CMMI12;-inkscape-font-specification:CMMI12;writing-mode:lr-tb;fill:#231f20;fill-opacity:1;fill-rule:nonzero;stroke:none"
               transform="matrix(1,0,0,-1,191.97101,152.73289)"><tspan
                 id="tspan60"
                 y="0"
                 x="0">B</tspan></text>
<path
               id="path64"
               style="fill:none;stroke:#231f20;stroke-width:1;stroke-linecap:butt;stroke-linejoin:miter;stroke-miterlimit:4;stroke-dasharray:none;stroke-opacity:1"
               d="m 225.49101,74.567001 c -8.207,-4.125 -13.839,-12.620998 -13.839,-22.431999 m -163.055006,0.792 c 0,6.105999 -1.701,11.816002 -4.656002,16.679001" /><text
               id="text68"
               style="font-variant:normal;font-weight:normal;font-size:13.77219963px;font-family:CMMI12;-inkscape-font-specification:CMMI12;writing-mode:lr-tb;fill:#231f20;fill-opacity:1;fill-rule:nonzero;stroke:none"
               transform="matrix(1,0,0,-1,216.34999,56.535004)"><tspan
                 id="tspan66"
                 y="0"
                 x="0">A</tspan></text>
<text
               id="text72"
               style="font-variant:normal;font-weight:normal;font-size:13.77219963px;font-family:CMMI12;-inkscape-font-specification:CMMI12;writing-mode:lr-tb;fill:#231f20;fill-opacity:1;fill-rule:nonzero;stroke:none"
               transform="matrix(1,0,0,-1,-2.4629154e-4,47.894325)"><tspan
                 id="tspan70"
                 y="0"
                 x="0">C</tspan></text>
<path
               id="path74"
               style="fill:none;stroke:#231f20;stroke-width:1;stroke-linecap:butt;stroke-linejoin:miter;stroke-miterlimit:4;stroke-dasharray:none;stroke-opacity:1"
               d="M 184.82701,51.337002 V 156.17 m -15.724,-103.680998 v 13.825001 h 14.746" /><text
               id="text78"
               style="font-variant:normal;font-weight:normal;font-size:13.77219963px;font-family:CMMI12;-inkscape-font-specification:CMMI12;writing-mode:lr-tb;fill:#231f20;fill-opacity:1;fill-rule:nonzero;stroke:none"
               transform="matrix(1,0,0,-1,389.48102,107.0972)"><tspan
                 id="tspan76"
                 y="0"
                 x="0">a</tspan></text>
<text
               id="text82"
               style="font-variant:normal;font-weight:normal;font-size:13.77219963px;font-family:CMMI12;-inkscape-font-specification:CMMI12;writing-mode:lr-tb;fill:#231f20;fill-opacity:1;fill-rule:nonzero;stroke:none"
               transform="matrix(1,0,0,-1,413.30966,59.288383)"><tspan
                 id="tspan80"
                 y="0"
                 x="0">A</tspan></text>
<text
               id="text86"
               style="font-variant:normal;font-weight:normal;font-size:13.77219963px;font-family:CMMI12;-inkscape-font-specification:CMMI12;writing-mode:lr-tb;fill:#231f20;fill-opacity:1;fill-rule:nonzero;stroke:none"
               transform="matrix(1,0,0,-1,422.52603,40.857048)"><tspan
                 id="tspan84"
                 y="0"
                 x="0">A</tspan></text>
<text
               id="text90"
               style="font-variant:normal;font-weight:normal;font-size:13.77219963px;font-family:CMMI12;-inkscape-font-specification:CMMI12;writing-mode:lr-tb;fill:#231f20;fill-opacity:1;fill-rule:nonzero;stroke:none"
               transform="matrix(1,0,0,-1,482.4296,41.432728)"><tspan
                 id="tspan88"
                 y="0"
                 x="0">D</tspan></text>
<text
               id="text94"
               style="font-variant:normal;font-weight:normal;font-size:13.77219963px;font-family:CMMI12;-inkscape-font-specification:CMMI12;writing-mode:lr-tb;fill:#231f20;fill-opacity:1;fill-rule:nonzero;stroke:none"
               transform="matrix(1,0,0,-1,302.36774,50.073406)"><tspan
                 id="tspan92"
                 y="0"
                 x="0">C</tspan></text>
<text
               id="text98"
               style="font-variant:normal;font-weight:normal;font-size:13.77219963px;font-family:CMMI12;-inkscape-font-specification:CMMI12;writing-mode:lr-tb;fill:#231f20;fill-opacity:1;fill-rule:nonzero;stroke:none"
               transform="matrix(1,0,0,-1,178.93991,38.679665)"><tspan
                 id="tspan96"
                 y="0"
                 x="0">D</tspan></text>
<path
               id="path100"
               style="fill:#231f20;fill-opacity:1;fill-rule:nonzero;stroke:none"
               d="M 22.395,31.178001 H 230.33101" /><path
               id="path102"
               style="fill:none;stroke:#231f20;stroke-width:1;stroke-linecap:butt;stroke-linejoin:miter;stroke-miterlimit:4;stroke-dasharray:none;stroke-opacity:1"
               d="M 22.395,31.178001 H 230.33101" /><path
               id="path104"
               style="fill:#231f20;fill-opacity:1;fill-rule:nonzero;stroke:none"
               d="m 233.05202,32.358002 c -1.90401,0.575 -3.14101,1.104999 -4.67002,1.717998 v -5.809999 c 0.54601,0.259001 2.76601,1.143001 4.67002,1.717001 2.039,0.616998 3.88699,1.036997 5.086,1.187999 -1.19901,0.15 -3.047,0.572001 -5.086,1.187001" /><path
               id="path106"
               style="fill:none;stroke:#231f20;stroke-width:1;stroke-linecap:butt;stroke-linejoin:miter;stroke-miterlimit:4;stroke-dasharray:none;stroke-opacity:1"
               d="m 233.05202,32.358002 c -1.90401,0.575 -3.14101,1.104999 -4.67002,1.717998 v -5.809999 c 0.54601,0.259001 2.76601,1.143001 4.67002,1.717001 2.039,0.616998 3.88699,1.036997 5.086,1.187999 -1.19901,0.15 -3.047,0.572001 -5.086,1.187001 z" /><path
               id="path108"
               style="fill:#231f20;fill-opacity:1;fill-rule:nonzero;stroke:none"
               d="m 19.673,29.997002 c 1.905001,-0.575001 3.143002,-1.105 4.671002,-1.719 v 5.810999 C 23.797001,33.829998 21.578001,32.946003 19.673,32.371002 c -2.038,-0.616001 -3.886999,-1.037 -5.085999,-1.187 1.199,-0.15 3.047999,-0.572001 5.085999,-1.187" /><path
               id="path110"
               style="fill:none;stroke:#231f20;stroke-width:1;stroke-linecap:butt;stroke-linejoin:miter;stroke-miterlimit:4;stroke-dasharray:none;stroke-opacity:1"
               d="m 19.673,29.997002 c 1.905001,-0.575001 3.143002,-1.105 4.671002,-1.719 v 5.810999 C 23.797001,33.829998 21.578001,32.946003 19.673,32.371002 c -2.038,-0.616001 -3.886999,-1.037 -5.085999,-1.187 1.199,-0.15 3.047999,-0.572001 5.085999,-1.187 z" /><path
               id="path112"
               style="fill:#ffffff;fill-opacity:1;fill-rule:nonzero;stroke:none"
               d="m 107.067,36.361 h 39.74501 V 25.993 H 107.067 Z" /><path
               id="path114"
               style="fill:none;stroke:#ffffff;stroke-width:1;stroke-linecap:butt;stroke-linejoin:miter;stroke-miterlimit:4;stroke-dasharray:none;stroke-opacity:1"
               d="m 107.067,25.993002 h 39.74501 V 36.361 H 107.067 Z" /><text
               id="text118"
               style="font-variant:normal;font-weight:normal;font-size:13.77219963px;font-family:CMMI12;-inkscape-font-specification:CMMI12;writing-mode:lr-tb;fill:#231f20;fill-opacity:1;fill-rule:nonzero;stroke:none"
               transform="matrix(1,0,0,-1,122.618,27.146002)"><tspan
                 id="tspan116"
                 y="0"
                 x="0">b</tspan></text>
<path
               id="path120"
               style="fill:#231f20;fill-opacity:1;fill-rule:nonzero;stroke:none"
               d="m 323.03601,36.812 h 96.19202" /><path
               id="path122"
               style="fill:none;stroke:#231f20;stroke-width:1;stroke-linecap:butt;stroke-linejoin:miter;stroke-miterlimit:4;stroke-dasharray:none;stroke-opacity:1"
               d="m 323.03601,36.812 h 96.19202" /><path
               id="path124"
               style="fill:#231f20;fill-opacity:1;fill-rule:nonzero;stroke:none"
               d="m 421.94901,37.992001 c -1.904,0.575 -3.142,1.104999 -4.66999,1.719001 v -5.812 c 0.547,0.259998 2.76599,1.144001 4.66999,1.718998 2.03802,0.616001 3.88702,1.037003 5.08602,1.187 -1.199,0.151001 -3.048,0.571003 -5.08602,1.187001" /><path
               id="path126"
               style="fill:none;stroke:#231f20;stroke-width:1;stroke-linecap:butt;stroke-linejoin:miter;stroke-miterlimit:4;stroke-dasharray:none;stroke-opacity:1"
               d="m 421.94901,37.992001 c -1.904,0.575 -3.142,1.104999 -4.66999,1.719001 v -5.812 c 0.547,0.259998 2.76599,1.144001 4.66999,1.718998 2.03802,0.616001 3.88702,1.037003 5.08602,1.187 -1.199,0.151001 -3.048,0.571003 -5.08602,1.187001 z" /><path
               id="path128"
               style="fill:#231f20;fill-opacity:1;fill-rule:nonzero;stroke:none"
               d="m 320.315,35.631001 c 1.90402,-0.574997 3.14301,-1.105 4.67002,-1.717999 v 5.811001 c -0.54599,-0.260002 -2.766,-1.144005 -4.67002,-1.718002 -2.03799,-0.616002 -3.88699,-1.036999 -5.086,-1.188 1.19901,-0.150997 3.04801,-0.570999 5.086,-1.187" /><path
               id="path130"
               style="fill:none;stroke:#231f20;stroke-width:1;stroke-linecap:butt;stroke-linejoin:miter;stroke-miterlimit:4;stroke-dasharray:none;stroke-opacity:1"
               d="m 320.315,35.631001 c 1.90402,-0.574997 3.14301,-1.105 4.67002,-1.717999 v 5.811001 c -0.54599,-0.260002 -2.766,-1.144005 -4.67002,-1.718002 -2.03799,-0.616002 -3.88699,-1.036999 -5.086,-1.188 1.19901,-0.150997 3.04801,-0.570999 5.086,-1.187 z" /><path
               id="path132"
               style="fill:#ffffff;fill-opacity:1;fill-rule:nonzero;stroke:none"
               d="m 353.85202,41.419003 h 39.74399 V 31.052002 h -39.74399 z" /><path
               id="path134"
               style="fill:none;stroke:#ffffff;stroke-width:1;stroke-linecap:butt;stroke-linejoin:miter;stroke-miterlimit:4;stroke-dasharray:none;stroke-opacity:1"
               d="m 353.85202,31.052002 h 39.74399 v 10.367001 h -39.74399 z" /><text
               id="text138"
               style="font-variant:normal;font-weight:normal;font-size:13.77219963px;font-family:CMMI12;-inkscape-font-specification:CMMI12;writing-mode:lr-tb;fill:#231f20;fill-opacity:1;fill-rule:nonzero;stroke:none"
               transform="matrix(1,0,0,-1,371.85803,33.432003)"><tspan
                 id="tspan136"
                 y="0"
                 x="0">b</tspan></text>
<text
               id="text142"
               style="font-variant:normal;font-weight:normal;font-size:11.01779938px;font-family:TimesNewRomanPSMT;-inkscape-font-specification:TimesNewRomanPSMT;writing-mode:lr-tb;fill:#231f20;fill-opacity:1;fill-rule:nonzero;stroke:none"
               transform="matrix(1,0,0,-1,101.451,2.378)"><tspan
                 id="tspan140"
                 y="0"
                 x="0 3.668927 8.5608301 12.229757">(a) </tspan></text>
<text
               id="text146"
               style="font-variant:normal;font-weight:normal;font-size:11.01779938px;font-family:TimesNewRomanPSMT;-inkscape-font-specification:TimesNewRomanPSMT;writing-mode:lr-tb;fill:#231f20;fill-opacity:1;fill-rule:nonzero;stroke:none"
               transform="matrix(1,0,0,-1,402.43197,2.378)"><tspan
                 id="tspan144"
                 y="0"
                 x="0 3.668927 9.1778269">(b)</tspan></text>
</g></g></g></g></g></svg>