<?xml version="1.0" encoding="UTF-8" standalone="no"?>
<svg
   xmlns:dc="http://purl.org/dc/elements/1.1/"
   xmlns:cc="http://creativecommons.org/ns#"
   xmlns:rdf="http://www.w3.org/1999/02/22-rdf-syntax-ns#"
   xmlns:svg="http://www.w3.org/2000/svg"
   xmlns="http://www.w3.org/2000/svg"
   viewBox="0 0 297.33334 220"
   height="220"
   width="297.33334"
   xml:space="preserve"
   id="svg2"
   version="1.1"><metadata
     id="metadata8"><rdf:RDF><cc:Work
         rdf:about=""><dc:format>image/svg+xml</dc:format><dc:type
           rdf:resource="http://purl.org/dc/dcmitype/StillImage" /></cc:Work></rdf:RDF></metadata><defs
     id="defs6"><clipPath
       id="clipPath24"
       clipPathUnits="userSpaceOnUse"><path
         id="path22"
         d="M 0,0 H 223 V 165 H 0 Z" /></clipPath><clipPath
       id="clipPath34"
       clipPathUnits="userSpaceOnUse"><path
         id="path32"
         d="M 0,0 H 222.95999 V 164.2 H 0 Z" /></clipPath></defs><g
     transform="matrix(1.3333333,0,0,-1.3333333,0,220)"
     id="g10"><g
       id="g12" /><g
       id="g14" /><g
       id="g16"><g
         id="g18"><g
           clip-path="url(#clipPath24)"
           id="g20"><g
             id="g26" /><g
             id="g28"><g
               clip-path="url(#clipPath34)"
               id="g30"><path
                 id="path36"
                 style="fill:none;stroke:#231f20;stroke-width:1;stroke-linecap:butt;stroke-linejoin:miter;stroke-miterlimit:4;stroke-dasharray:none;stroke-opacity:1"
                 d="M 0.36700001,133.677 C 0.87700003,134.23201 1.393,134.78 1.9160001,135.32201 18.795,152.81801 42.482002,163.7 68.712006,163.7 94.951004,163.7 118.647,152.81 135.526,135.30301 M 69.512001,66.099998 3.1120002,132.5 m 60.0000028,-60 h 5.600003 V 0.5 H 63.112003 Z M 2.312,70.099998 H 138.313 V 47.698997 H 2.312 Z M 0.71100003,26.899002 H 136.71201 V 4.5000019 H 0.71100003 Z" /></g></g><g
             id="g38"><path
               id="path40"
               style="fill:#ffffff;fill-opacity:1;fill-rule:nonzero;stroke:none"
               d="m 72.378006,45.443001 c 3.85199,-3.641998 4.022995,-9.717999 0.379997,-13.570999 -3.278007,-3.467001 -8.746002,-3.620001 -12.214,-0.342003 -3.119999,2.950001 -3.258,7.872001 -0.307999,10.992004 2.654999,2.808998 7.085003,2.932999 9.893001,0.277996 2.528,-2.389999 2.64,-6.376999 0.25,-8.903999 -2.151001,-2.274998 -5.739006,-2.374998 -8.013004,-0.224999 -2.047996,1.936001 -2.137997,5.165001 -0.202,7.212002 1.742001,1.842999 4.648003,1.924999 6.490006,0.181999 1.658997,-1.568 1.730995,-4.183002 0.163994,-5.840999 -1.410996,-1.493 -3.765,-1.559002 -5.256996,-0.148003 -1.344002,1.270001 -1.403,3.388001 -0.133004,4.732002 1.143006,1.209 3.049004,1.261998 4.258004,0.119 1.087997,-1.028999 1.136001,-2.744 0.108001,-3.832001 -0.926002,-0.979999 -2.470001,-1.022999 -3.450004,-0.097 -0.881001,0.833 -0.919998,2.223 -0.087,3.105 0.75,0.793003 2.000999,0.828003 2.793999,0.078 0.714004,-0.675003 0.745002,-1.801003 0.071,-2.515004 C 66.513999,36.023 65.500998,35.995 64.859,36.602997 c -0.577995,0.546001 -0.604996,1.458999 -0.058,2.036998 0.493003,0.520001 1.313003,0.543003 1.833,0.05 0.469001,-0.441998 0.489998,-1.180996 0.047,-1.648999 -0.397995,-0.421997 -1.062996,-0.439998 -1.484993,-0.041 -0.379006,0.358002 -0.396004,0.956001 -0.037,1.335003 0.321999,0.341999 0.860993,0.356998 1.201996,0.034 0.308006,-0.290001 0.321007,-0.775001 0.03001,-1.082 -0.261009,-0.276001 -0.697006,-0.289002 -0.974006,-0.027 -0.247994,0.235005 -0.258995,0.628002 -0.02399,0.876004 0.211998,0.223999 0.564995,0.233997 0.789002,0.022 0.200996,-0.189999 0.209999,-0.508003 0.02,-0.709999 -0.170997,-0.181 -0.458,-0.188999 -0.638999,-0.017 -0.163002,0.153999 -0.170998,0.411998 -0.016,0.574997 0.139,0.145999 0.371002,0.152999 0.516998,0.015 0.133003,-0.125 0.139,-0.334 0.014,-0.466999 -0.112999,-0.118 -0.301003,-0.124001 -0.419998,-0.011 -0.107002,0.100998 -0.112,0.270001 -0.01,0.376995" /><path
               id="path42"
               style="fill:none;stroke:#231f20;stroke-width:0.5;stroke-linecap:butt;stroke-linejoin:miter;stroke-miterlimit:4;stroke-dasharray:none;stroke-opacity:1"
               d="m 72.378006,45.443001 c 3.85199,-3.641998 4.022995,-9.717999 0.379997,-13.570999 -3.278007,-3.467001 -8.746002,-3.620001 -12.214,-0.342003 -3.119999,2.950001 -3.258,7.872001 -0.307999,10.992004 2.654999,2.808998 7.085003,2.932999 9.893001,0.277996 2.528,-2.389999 2.64,-6.376999 0.25,-8.903999 -2.151001,-2.274998 -5.739006,-2.374998 -8.013004,-0.224999 -2.047996,1.936001 -2.137997,5.165001 -0.202,7.212002 1.742001,1.842999 4.648003,1.924999 6.490006,0.181999 1.658997,-1.568 1.730995,-4.183002 0.163994,-5.840999 -1.410996,-1.493 -3.765,-1.559002 -5.256996,-0.148003 -1.344002,1.270001 -1.403,3.388001 -0.133004,4.732002 1.143006,1.209 3.049004,1.261998 4.258004,0.119 1.087997,-1.028999 1.136001,-2.744 0.108001,-3.832001 -0.926002,-0.979999 -2.470001,-1.022999 -3.450004,-0.097 -0.881001,0.833 -0.919998,2.223 -0.087,3.105 0.75,0.793003 2.000999,0.828003 2.793999,0.078 0.714004,-0.675003 0.745002,-1.801003 0.071,-2.515004 C 66.513999,36.023 65.500998,35.995 64.859,36.602997 c -0.577995,0.546001 -0.604996,1.458999 -0.058,2.036998 0.493003,0.520001 1.313003,0.543003 1.833,0.05 0.469001,-0.441998 0.489998,-1.180996 0.047,-1.648999 -0.397995,-0.421997 -1.062996,-0.439998 -1.484993,-0.041 -0.379006,0.358002 -0.396004,0.956001 -0.037,1.335003 0.321999,0.341999 0.860993,0.356998 1.201996,0.034 0.308006,-0.290001 0.321007,-0.775001 0.03001,-1.082 -0.261009,-0.276001 -0.697006,-0.289002 -0.974006,-0.027 -0.247994,0.235005 -0.258995,0.628002 -0.02399,0.876004 0.211998,0.223999 0.564995,0.233997 0.789002,0.022 0.200996,-0.189999 0.209999,-0.508003 0.02,-0.709999 -0.170997,-0.181 -0.458,-0.188999 -0.638999,-0.017 -0.163002,0.153999 -0.170998,0.411998 -0.016,0.574997 0.139,0.145999 0.371002,0.152999 0.516998,0.015 0.133003,-0.125 0.139,-0.334 0.014,-0.466999 -0.112999,-0.118 -0.301003,-0.124001 -0.419998,-0.011 -0.107002,0.100998 -0.112,0.270001 -0.01,0.376995" /><text
               id="text46"
               style="font-variant:normal;font-weight:normal;font-size:9.56400013px;font-family:CMSS12;-inkscape-font-specification:CMSS12;writing-mode:lr-tb;fill:#231f20;fill-opacity:1;fill-rule:nonzero;stroke:none"
               transform="matrix(1,0,0,-1,135.912,139.8465)"><tspan
                 id="tspan44"
                 y="0"
                 x="0 5.202816 9.3631563 13.848672 16.048391">Scale</tspan></text>
<text
               id="text50"
               style="font-variant:normal;font-weight:normal;font-size:9.56400013px;font-family:CMSS12;-inkscape-font-specification:CMSS12;writing-mode:lr-tb;fill:#231f20;fill-opacity:1;fill-rule:nonzero;stroke:none"
               transform="matrix(1,0,0,-1,79.111404,75.489388)"><tspan
                 id="tspan48"
                 y="0"
                 x="0 8.1294003 12.81576 17.100431 19.300152 24.10128">Moving</tspan></text>
<text
               id="text54"
               style="font-variant:normal;font-weight:normal;font-size:9.56400013px;font-family:CMSS12;-inkscape-font-specification:CMSS12;writing-mode:lr-tb;fill:#231f20;fill-opacity:1;fill-rule:nonzero;stroke:none"
               transform="matrix(1,0,0,-1,111.0217,75.489388)"><tspan
                 id="tspan52"
                 y="0"
                 x="0 4.1603398 8.8466997 11.04642">coil</tspan></text>
<text
               id="text58"
               style="font-variant:normal;font-weight:normal;font-size:9.56400013px;font-family:CMSS12;-inkscape-font-specification:CMSS12;writing-mode:lr-tb;fill:#231f20;fill-opacity:1;fill-rule:nonzero;stroke:none"
               transform="matrix(1,0,0,-1,15.911536,122.33195)"><tspan
                 id="tspan56"
                 y="0"
                 x="0">P</tspan></text>
<text
               id="text62"
               style="font-variant:normal;font-weight:normal;font-size:9.56400013px;font-family:CMSS12;-inkscape-font-specification:CMSS12;writing-mode:lr-tb;fill:#231f20;fill-opacity:1;fill-rule:nonzero;stroke:none"
               transform="matrix(1,0,0,-1,21.609766,122.33195)"><tspan
                 id="tspan60"
                 y="0"
                 x="0 4.6863599 6.8860803 11.687208 15.072865 19.233204">ointer</tspan></text>
<text
               id="text66"
               style="font-variant:normal;font-weight:normal;font-size:9.56400013px;font-family:CMSS12;-inkscape-font-specification:CMSS12;writing-mode:lr-tb;fill:#231f20;fill-opacity:1;fill-rule:nonzero;stroke:none"
               transform="matrix(1,0,0,-1,30.312052,33.975895)"><tspan
                 id="tspan64"
                 y="0"
                 x="0 5.202816">Sp</tspan></text>
<text
               id="text70"
               style="font-variant:normal;font-weight:normal;font-size:9.56400013px;font-family:CMSS12;-inkscape-font-specification:CMSS12;writing-mode:lr-tb;fill:#231f20;fill-opacity:1;fill-rule:nonzero;stroke:none"
               transform="matrix(1,0,0,-1,40.055859,33.975895)"><tspan
                 id="tspan68"
                 y="0"
                 x="0 3.1848121 5.384532 10.18566">ring</tspan></text>
<text
               id="text74"
               style="font-variant:normal;font-weight:normal;font-size:9.56400013px;font-family:CMSS12;-inkscape-font-specification:CMSS12;writing-mode:lr-tb;fill:#231f20;fill-opacity:1;fill-rule:nonzero;stroke:none"
               transform="matrix(1,0,0,-1,156.71083,29.618536)"><tspan
                 id="tspan72"
                 y="0"
                 x="0 5.317584 7.5173039 11.801976 15.962317">Fixed</tspan></text>
<text
               id="text78"
               style="font-variant:normal;font-weight:normal;font-size:9.56400013px;font-family:CMSS12;-inkscape-font-specification:CMSS12;writing-mode:lr-tb;fill:#231f20;fill-opacity:1;fill-rule:nonzero;stroke:none"
               transform="matrix(1,0,0,-1,180.59787,29.618536)"><tspan
                 id="tspan76"
                 y="0"
                 x="0 3.5864999 6.972156 11.457672 14.843328">stato</tspan></text>
<text
               id="text82"
               style="font-variant:normal;font-weight:normal;font-size:9.56400013px;font-family:CMSS12;-inkscape-font-specification:CMSS12;writing-mode:lr-tb;fill:#231f20;fill-opacity:1;fill-rule:nonzero;stroke:none"
               transform="matrix(1,0,0,-1,199.86836,29.618536)"><tspan
                 id="tspan80"
                 y="0"
                 x="0">r</tspan></text>
<text
               id="text86"
               style="font-variant:normal;font-weight:normal;font-size:9.56400013px;font-family:CMSS12;-inkscape-font-specification:CMSS12;writing-mode:lr-tb;fill:#231f20;fill-opacity:1;fill-rule:nonzero;stroke:none"
               transform="matrix(1,0,0,-1,206.17487,29.618536)"><tspan
                 id="tspan84"
                 y="0"
                 x="0 4.1603398 8.8466997 11.04642 13.24614">coils</tspan></text>
<path
               id="path88"
               style="fill:none;stroke:#231f20;stroke-width:0.69999999;stroke-linecap:butt;stroke-linejoin:miter;stroke-miterlimit:4;stroke-dasharray:none;stroke-opacity:1"
               d="M 139.112,56.5 153.51201,33.299999 137.51201,18.1 M 77.512001,78.900002 68.712006,72.5" /></g></g></g></g></g></svg>