<?xml version="1.0" encoding="UTF-8" standalone="no"?>
<svg
   xmlns:dc="http://purl.org/dc/elements/1.1/"
   xmlns:cc="http://creativecommons.org/ns#"
   xmlns:rdf="http://www.w3.org/1999/02/22-rdf-syntax-ns#"
   xmlns:svg="http://www.w3.org/2000/svg"
   xmlns="http://www.w3.org/2000/svg"
   viewBox="0 0 461.33334 142.66667"
   height="142.66667"
   width="461.33334"
   xml:space="preserve"
   id="svg2"
   version="1.1"><metadata
     id="metadata8"><rdf:RDF><cc:Work
         rdf:about=""><dc:format>image/svg+xml</dc:format><dc:type
           rdf:resource="http://purl.org/dc/dcmitype/StillImage" /></cc:Work></rdf:RDF></metadata><defs
     id="defs6"><clipPath
       id="clipPath24"
       clipPathUnits="userSpaceOnUse"><path
         id="path22"
         d="M 0,0 H 346 V 107 H 0 Z" /></clipPath><clipPath
       id="clipPath42"
       clipPathUnits="userSpaceOnUse"><path
         id="path40"
         d="M 0.06,0.05999756 H 345.24802 V 106.05801 H 0.06 Z" /></clipPath><clipPath
       id="clipPath98"
       clipPathUnits="userSpaceOnUse"><path
         id="path96"
         d="M 0.06,0.05999756 H 345.24802 V 106.05801 H 0.06 Z" /></clipPath><clipPath
       id="clipPath116"
       clipPathUnits="userSpaceOnUse"><path
         id="path114"
         d="M 0.06,0.05999756 H 345.24802 V 106.05801 H 0.06 Z" /></clipPath><clipPath
       id="clipPath138"
       clipPathUnits="userSpaceOnUse"><path
         id="path136"
         d="M 0.06,0.05999756 H 345.24802 V 106.05801 H 0.06 Z" /></clipPath></defs><g
     transform="matrix(1.3333333,0,0,-1.3333333,0,142.66667)"
     id="g10"><g
       id="g12" /><g
       id="g14" /><g
       id="g16"><g
         id="g18"><g
           clip-path="url(#clipPath24)"
           id="g20"><g
             id="g26" /><g
             id="g28"><path
               id="path30"
               style="fill:#b6b4b5;fill-opacity:1;fill-rule:nonzero;stroke:none"
               d="m 289.20102,52.869999 c 0,-18.224999 -14.77499,-33 -33,-33 -18.22401,0 -33.00002,14.775001 -33.00002,33 0,18.226002 14.77601,32.999996 33.00002,32.999996 18.22501,0 33,-14.773994 33,-32.999996" /><path
               id="path32"
               style="fill:none;stroke:#231f20;stroke-width:0.69999999;stroke-linecap:butt;stroke-linejoin:round;stroke-miterlimit:4;stroke-dasharray:none;stroke-opacity:1"
               d="m 289.20102,52.869999 c 0,-18.224999 -14.77499,-33 -33,-33 -18.22401,0 -33.00002,14.775001 -33.00002,33 0,18.226002 14.77601,32.999996 33.00002,32.999996 18.22501,0 33,-14.773994 33,-32.999996 z" /><path
               id="path34"
               style="fill:#b6b4b5;fill-opacity:1;fill-rule:nonzero;stroke:none"
               d="M 10.400001,89.470001 H 104.801 V 52.670002 H 10.400001 Z" /></g><g
             id="g36"><g
               clip-path="url(#clipPath42)"
               id="g38"><path
                 id="path44"
                 style="fill:none;stroke:#231f20;stroke-width:0.69999999;stroke-linecap:butt;stroke-linejoin:round;stroke-miterlimit:4;stroke-dasharray:none;stroke-opacity:1"
                 d="M 10.400001,89.470001 H 104.801 V 52.670002 H 10.400001 Z" /><path
                 id="path46"
                 style="fill:none;stroke:#231f20;stroke-width:1;stroke-linecap:butt;stroke-linejoin:round;stroke-miterlimit:4;stroke-dasharray:none;stroke-opacity:1"
                 d="M 0,52.653004 H 140.748" /></g></g><g
             id="g48"><path
               id="path50"
               style="fill:#231f20;fill-opacity:1;fill-rule:nonzero;stroke:none"
               d="m 139.229,52.753002 -1.75299,2.883 0.098,0.065 4.69999,-1.867001 c 1.638,-0.36 3.27501,-0.720001 4.91301,-1.081001 -1.638,-0.36 -3.27501,-0.720001 -4.91301,-1.081001 l -4.69999,-1.865997 -0.098,0.049 1.75299,2.897999" /><path
               id="path52"
               style="fill:none;stroke:#231f20;stroke-width:1;stroke-linecap:butt;stroke-linejoin:round;stroke-miterlimit:4;stroke-dasharray:none;stroke-opacity:1"
               d="M 10.427,96.387001 V 52.669998" /><path
               id="path54"
               style="fill:#231f20;fill-opacity:1;fill-rule:nonzero;stroke:none"
               d="m 10.653001,95.524002 -2.8820006,-1.751999 -0.066,0.09799 L 9.5720005,98.57 c 0.3610001,1.63701 0.7209995,3.275 1.0810005,4.913 0.359999,-1.638 0.721,-3.27599 1.080999,-4.913 l 1.867001,-4.700005 -0.05,-0.09799 -2.898,1.751999" /><text
               id="text58"
               style="font-variant:normal;font-weight:normal;font-size:11.95500088px;font-family:CMMI12;-inkscape-font-specification:CMMI12;writing-mode:lr-tb;fill:#231f20;fill-opacity:1;fill-rule:nonzero;stroke:none"
               transform="matrix(1,0,0,-1,14.132299,97.091698)"><tspan
                 id="tspan56"
                 y="0"
                 x="0">y</tspan></text>
<text
               id="text62"
               style="font-variant:normal;font-weight:normal;font-size:11.95500088px;font-family:CMMI12;-inkscape-font-specification:CMMI12;writing-mode:lr-tb;fill:#231f20;fill-opacity:1;fill-rule:nonzero;stroke:none"
               transform="matrix(1,0,0,-1,148.30208,46.318806)"><tspan
                 id="tspan60"
                 y="0"
                 x="0">x</tspan></text>
<text
               id="text66"
               style="font-variant:normal;font-weight:normal;font-size:11.95500088px;font-family:CMMI12;-inkscape-font-specification:CMMI12;writing-mode:lr-tb;fill:#231f20;fill-opacity:1;fill-rule:nonzero;stroke:none"
               transform="matrix(1,0,0,-1,1.6321574,86.091896)"><tspan
                 id="tspan64"
                 y="0"
                 x="0">a</tspan></text>
<text
               id="text70"
               style="font-variant:normal;font-weight:normal;font-size:11.95500088px;font-family:CMMI12;-inkscape-font-specification:CMMI12;writing-mode:lr-tb;fill:#231f20;fill-opacity:1;fill-rule:nonzero;stroke:none"
               transform="matrix(1,0,0,-1,102.30164,41.319221)"><tspan
                 id="tspan68"
                 y="0"
                 x="0">b</tspan></text>
<path
               id="path72"
               style="fill:none;stroke:#231f20;stroke-width:1;stroke-linecap:butt;stroke-linejoin:round;stroke-miterlimit:4;stroke-dasharray:none;stroke-opacity:1"
               d="m 190.40001,53.053001 h 140.748" /><path
               id="path74"
               style="fill:#231f20;fill-opacity:1;fill-rule:nonzero;stroke:none"
               d="m 329.62903,53.153004 -1.75302,2.882 0.099,0.066 4.699,-1.867001 c 1.638,-0.359997 3.275,-0.719997 4.913,-1.080997 -1.638,-0.360001 -3.275,-0.720002 -4.913,-1.080002 l -4.699,-1.868 -0.099,0.05 1.75302,2.898003" /><path
               id="path76"
               style="fill:none;stroke:#231f20;stroke-width:1;stroke-linecap:butt;stroke-linejoin:round;stroke-miterlimit:4;stroke-dasharray:none;stroke-opacity:1"
               d="M 256.02701,97.186005 V 53.471001" /><path
               id="path78"
               style="fill:#231f20;fill-opacity:1;fill-rule:nonzero;stroke:none"
               d="m 256.254,96.324005 -2.88298,-1.751999 -0.065,0.09799 1.867,4.699997 c 0.35998,1.638007 0.71999,3.275007 1.08098,4.913007 0.35901,-1.638 0.72101,-3.275 1.08001,-4.913007 l 1.86701,-4.699997 -0.049,-0.09799 -2.89801,1.751999" /><text
               id="text82"
               style="font-variant:normal;font-weight:normal;font-size:11.95500088px;font-family:CMMI12;-inkscape-font-specification:CMMI12;writing-mode:lr-tb;fill:#231f20;fill-opacity:1;fill-rule:nonzero;stroke:none"
               transform="matrix(1,0,0,-1,262.13202,97.091698)"><tspan
                 id="tspan80"
                 y="0"
                 x="0">y</tspan></text>
<text
               id="text86"
               style="font-variant:normal;font-weight:normal;font-size:11.95500088px;font-family:CMMI12;-inkscape-font-specification:CMMI12;writing-mode:lr-tb;fill:#231f20;fill-opacity:1;fill-rule:nonzero;stroke:none"
               transform="matrix(1,0,0,-1,338.59979,48.091736)"><tspan
                 id="tspan84"
                 y="0"
                 x="0">x</tspan></text>
<text
               id="text90"
               style="font-variant:normal;font-weight:normal;font-size:11.95500088px;font-family:CMMI12;-inkscape-font-specification:CMMI12;writing-mode:lr-tb;fill:#231f20;fill-opacity:1;fill-rule:nonzero;stroke:none"
               transform="matrix(1,0,0,-1,291.63217,42.091522)"><tspan
                 id="tspan88"
                 y="0"
                 x="0">R</tspan></text>
</g><g
             id="g92"><g
               clip-path="url(#clipPath98)"
               id="g94"><text
                 id="text102"
                 style="font-variant:normal;font-weight:normal;font-size:11.95500088px;font-family:CMSS12;-inkscape-font-specification:CMSS12;writing-mode:lr-tb;fill:#231f20;fill-opacity:1;fill-rule:nonzero;stroke:none"
                 transform="matrix(1,0,0,-1,43.8022,3.0020001)"><tspan
                   id="tspan100"
                   y="0"
                   x="0">(</tspan></text>
</g></g><g
             id="g104"><text
               id="text108"
               style="font-variant:normal;font-weight:normal;font-size:11.95500088px;font-family:CMSS12;-inkscape-font-specification:CMSS12;writing-mode:lr-tb;fill:#231f20;fill-opacity:1;fill-rule:nonzero;stroke:none"
               transform="matrix(1,0,0,-1,48.3451,3.0020001)"><tspan
                 id="tspan106"
                 y="0"
                 x="0">a</tspan></text>
</g><g
             id="g110"><g
               clip-path="url(#clipPath116)"
               id="g112"><text
                 id="text120"
                 style="font-variant:normal;font-weight:normal;font-size:11.95500088px;font-family:CMSS12;-inkscape-font-specification:CMSS12;writing-mode:lr-tb;fill:#231f20;fill-opacity:1;fill-rule:nonzero;stroke:none"
                 transform="matrix(1,0,0,-1,53.939999,3.0020001)"><tspan
                   id="tspan118"
                   y="0"
                   x="0">)</tspan></text>
<text
                 id="text124"
                 style="font-variant:normal;font-weight:normal;font-size:11.95500088px;font-family:CMSS12;-inkscape-font-specification:CMSS12;writing-mode:lr-tb;fill:#231f20;fill-opacity:1;fill-rule:nonzero;stroke:none"
                 transform="matrix(1,0,0,-1,250.31525,3.0020001)"><tspan
                   id="tspan122"
                   y="0"
                   x="0">(</tspan></text>
</g></g><g
             id="g126"><text
               id="text130"
               style="font-variant:normal;font-weight:normal;font-size:11.95500088px;font-family:CMSS12;-inkscape-font-specification:CMSS12;writing-mode:lr-tb;fill:#231f20;fill-opacity:1;fill-rule:nonzero;stroke:none"
               transform="matrix(1,0,0,-1,254.85789,3.0020001)"><tspan
                 id="tspan128"
                 y="0"
                 x="0">b</tspan></text>
</g><g
             id="g132"><g
               clip-path="url(#clipPath138)"
               id="g134"><text
                 id="text142"
                 style="font-variant:normal;font-weight:normal;font-size:11.95500088px;font-family:CMSS12;-inkscape-font-specification:CMSS12;writing-mode:lr-tb;fill:#231f20;fill-opacity:1;fill-rule:nonzero;stroke:none"
                 transform="matrix(1,0,0,-1,260.85928,3.0020001)"><tspan
                   id="tspan140"
                   y="0"
                   x="0">)</tspan></text>
</g></g></g></g></g></g></svg>