<?xml version="1.0" encoding="UTF-8" standalone="no"?>
<svg
   xmlns:dc="http://purl.org/dc/elements/1.1/"
   xmlns:cc="http://creativecommons.org/ns#"
   xmlns:rdf="http://www.w3.org/1999/02/22-rdf-syntax-ns#"
   xmlns:svg="http://www.w3.org/2000/svg"
   xmlns="http://www.w3.org/2000/svg"
   viewBox="0 0 381.33334 97.333336"
   height="97.333336"
   width="381.33334"
   xml:space="preserve"
   id="svg2"
   version="1.1"><metadata
     id="metadata8"><rdf:RDF><cc:Work
         rdf:about=""><dc:format>image/svg+xml</dc:format><dc:type
           rdf:resource="http://purl.org/dc/dcmitype/StillImage" /></cc:Work></rdf:RDF></metadata><defs
     id="defs6"><clipPath
       id="clipPath24"
       clipPathUnits="userSpaceOnUse"><path
         id="path22"
         d="M 0,0 H 286 V 73 H 0 Z" /></clipPath><clipPath
       id="clipPath34"
       clipPathUnits="userSpaceOnUse"><path
         id="path32"
         d="M 0.06,0.06000519 H 285.94501 V 72.185005 H 0.06 Z" /></clipPath><clipPath
       id="clipPath112"
       clipPathUnits="userSpaceOnUse"><path
         id="path110"
         d="M 0.06,0.06000519 H 285.94501 V 72.185005 H 0.06 Z" /></clipPath></defs><g
     transform="matrix(1.3333333,0,0,-1.3333333,0,97.333333)"
     id="g10"><g
       id="g12" /><g
       id="g14" /><g
       id="g16"><g
         id="g18"><g
           clip-path="url(#clipPath24)"
           id="g20"><g
             id="g26" /><g
             id="g28"><g
               clip-path="url(#clipPath34)"
               id="g30"><path
                 id="path36"
                 style="fill:none;stroke:#231f20;stroke-width:1;stroke-linecap:butt;stroke-linejoin:round;stroke-miterlimit:4;stroke-dasharray:none;stroke-opacity:1"
                 d="M 1.6340001,26.425001 H 269.43402" /></g></g><g
             id="g38"><path
               id="path40"
               style="fill:#231f20;fill-opacity:1;fill-rule:nonzero;stroke:none"
               d="m 267.535,26.549999 -2.19098,3.603003 0.12299,0.081 5.875,-2.333 C 273.38901,27.451002 275.436,27 277.483,26.549999 275.436,26.1 273.38901,25.649002 271.34201,25.199001 l -5.875,-2.333999 -0.12299,0.062 2.19098,3.622997" /><path
               id="path42"
               style="fill:none;stroke:#231f20;stroke-width:1;stroke-linecap:butt;stroke-linejoin:round;stroke-miterlimit:4;stroke-dasharray:none;stroke-opacity:1"
               d="M 9.533,58.091003 V 3.4460001" /><path
               id="path44"
               style="fill:#231f20;fill-opacity:1;fill-rule:nonzero;stroke:none"
               d="m 9.8150005,57.013004 -3.6020002,-2.190002 -0.082,0.123001 2.3330002,5.875 c 0.4509993,2.047001 0.901,4.093998 1.3509998,6.140003 0.4510007,-2.046005 0.9010007,-4.093002 1.3520007,-6.140003 L 13.5,54.946003 13.439,54.823002 9.8149993,57.013004" /><path
               id="path46"
               style="fill:none;stroke:#231f20;stroke-width:0.69999999;stroke-linecap:butt;stroke-linejoin:round;stroke-miterlimit:4;stroke-dasharray:none;stroke-opacity:1"
               d="m 56.677002,36.373001 0.162003,-0.1 0.149997,-0.100003 0.150997,-0.1 0.449006,-0.299999 0.162998,-0.100003 0.150001,-0.113002 0.299999,-0.199997 0.149998,-0.099 0.163002,-0.112999 0.149998,-0.100003 0.150001,-0.112999 0.150002,-0.1 0.148998,-0.112 0.151001,-0.113002 0.161999,-0.099 0.150001,-0.112999 0.149998,-0.112 0.150002,-0.113003 0.150001,-0.113002 0.149998,-0.1 0.162003,-0.111996 0.149997,-0.113002 0.150997,-0.112 0.149998,-0.111999 0.149006,-0.112999 0.150002,-0.125 0.162998,-0.112 0.150001,-0.113003 0.149998,-0.112999 0.150001,-0.111999 0.149998,-0.125 0.150002,-0.112999 0.163002,-0.112 0.149997,-0.125 0.149003,-0.113002 0.149997,-0.125 0.151001,-0.112 0.161999,-0.125 0.150001,-0.113001 0.149998,-0.123998 0.150002,-0.125 0.150001,-0.113001 0.149998,-0.125 0.162998,-0.125 0.149002,-0.112999 0.150997,-0.124001 0.150002,-0.125 0.149002,-0.126001 0.150993,-0.111998 0.162011,-0.125 0.299995,-0.25 0.150001,-0.125 0.300004,-0.25 0.162994,-0.125 0.449005,-0.375 0.150993,-0.125 0.150002,-0.125 0.162002,-0.125 0.599999,-0.5 0.162003,-0.137001 0.150001,-0.125 0.150993,-0.125 0.449006,-0.375 0.163002,-0.138 0.299995,-0.25 0.150001,-0.125 0.150002,-0.136999 0.150002,-0.125 0.162994,-0.125 0.149002,-0.125 0.150002,-0.138001 0.150001,-0.125 0.151001,-0.125 0.149994,-0.125 0.162002,-0.138 0.449997,-0.375002 0.150002,-0.136998 0.162003,-0.125 0.150001,-0.125 0.150993,-0.125 0.150002,-0.138002 0.299004,-0.25 0.163002,-0.124998 m -30.138005,17.538 0.162998,-0.013 0.150002,-0.012 0.150001,-0.013 0.149998,-0.012 0.150002,-0.025 0.149997,-0.012 0.162999,-0.025 0.150001,-0.013 0.149002,-0.025 0.150997,-0.025 0.150002,-0.013 0.149998,-0.025 0.162002,-0.024 0.150002,-0.026 0.149997,-0.025 0.150002,-0.037 0.150001,-0.025 0.149998,-0.025 0.163002,-0.038 0.149998,-0.025 0.149002,-0.037 0.149998,-0.025 0.150001,-0.038 0.151001,-0.037 0.161999,-0.037 0.150001,-0.038 0.3,-0.075 0.149997,-0.038 0.162999,-0.05 0.299003,-0.075 0.150997,-0.05 0.149998,-0.049 0.150002,-0.038 0.162002,-0.05 0.299999,-0.1 0.150002,-0.05 0.150001,-0.05 0.149998,-0.05 0.163002,-0.05 0.149998,-0.05 0.150001,-0.062 0.150002,-0.051 0.148998,-0.049 0.151001,-0.063 0.161999,-0.063 0.150001,-0.05 0.599999,-0.25 0.161999,-0.062 0.150001,-0.063 0.150997,-0.062 0.149998,-0.063 0.149006,-0.074 0.162998,-0.063 0.150002,-0.075 0.150001,-0.063 0.149998,-0.074 0.150001,-0.063 0.149998,-0.075 0.163002,-0.075 0.149998,-0.075 0.150001,-0.075 0.148999,-0.075 0.150001,-0.075 0.151001,-0.075 0.161999,-0.075 0.150001,-0.075 0.149998,-0.088 0.150002,-0.075 0.150001,-0.087 0.149998,-0.075 0.161999,-0.088 0.150001,-0.074 0.150997,-0.088 0.149998,-0.088 0.150002,-0.087 0.162002,-0.075 0.150002,-0.088 0.299999,-0.175 0.150001,-0.087 0.149998,-0.100002 0.163002,-0.088 0.149998,-0.087 0.149002,-0.1 0.150002,-0.087 0.149997,-0.088 0.151001,-0.1 0.161999,-0.088 0.150001,-0.099 0.149998,-0.101002 0.150002,-0.087 0.150001,-0.1 0.149998,-0.100002" /><path
               id="path48"
               style="fill:none;stroke:#231f20;stroke-width:0.69999999;stroke-linecap:butt;stroke-linejoin:round;stroke-miterlimit:4;stroke-dasharray:none;stroke-opacity:1"
               d="m 26.552002,38.523003 0.15,0.087 0.162,0.075 0.150999,0.088 0.15,0.075 0.15,0.075 0.150001,0.075 0.149,0.075 0.162998,0.075 0.150002,0.075 0.15,0.075 0.299999,0.150002 0.149999,0.063 0.162999,0.074 0.150001,0.063 0.15,0.075 0.149999,0.063 0.15,0.074 0.162003,0.063 0.299999,0.125 0.150001,0.062 0.15,0.063 0.15,0.062 0.162,0.063 0.150999,0.062 0.15,0.05 0.15,0.063 0.149,0.063 0.150001,0.049 0.163,0.051 0.15,0.062 0.299999,0.1 0.15,0.05 0.149999,0.05 0.162999,0.05 0.150001,0.05 0.149002,0.05 0.150997,0.05 0.150002,0.038 0.149998,0.049 0.162002,0.05 0.299999,0.075 0.150002,0.05 0.150001,0.038 0.162999,0.037 0.299999,0.076 0.149002,0.037 0.150997,0.037 0.150002,0.038 0.161998,0.025 0.150002,0.037 0.150001,0.025 0.149998,0.038 0.150002,0.025 0.149997,0.025 0.162999,0.037 0.149002,0.025 0.150001,0.026 0.150997,0.024 0.150002,0.025 0.149998,0.013 0.162002,0.025 0.150002,0.025 0.149997,0.013 0.150002,0.025 0.150001,0.012 0.161999,0.025 0.151001,0.012 0.149998,0.013 0.150001,0.012 0.149998,0.013 0.149002,0.013 0.162998,0.012 0.150002,0.013 h 0.150001 l 0.149998,0.012 h 0.150002 l 0.149997,0.012 h 0.312001 l 0.150001,0.013 h 0.612999 l 0.150002,-0.013 h 0.299999 l 0.150001,-0.012 h 0.149998 l 0.163002,-0.012 h 0.149998 l 0.150001,-0.013 0.148999,-0.012 0.150001,-0.013 M 11.489,27.66 l 0.150999,0.126001 0.150001,0.125 0.162001,0.124001 0.149999,0.125999 0.150001,0.125 0.149999,0.137001 0.150001,0.125 0.162999,0.125 0.599001,0.5 0.151,0.125 0.162,0.125 0.149999,0.125 0.150001,0.125 0.15,0.125 0.3,0.25 0.162999,0.125 0.449,0.375 0.150999,0.111998 0.150001,0.125002 0.162001,0.125999 0.15,0.124001 0.15,0.112999 0.149999,0.125 0.15,0.125 0.150002,0.113001 0.161998,0.125 0.151001,0.123998 0.15,0.113001 0.15,0.125 0.149999,0.112 0.162001,0.125 0.149999,0.113002 0.15,0.125 0.150002,0.112 0.149999,0.112999 0.15,0.125 0.162998,0.111999 0.149002,0.112999 0.150999,0.113003 0.15,0.112 0.149999,0.125 0.15,0.112999 0.162003,0.111999 0.299999,0.225002 0.149999,0.111996 0.15,0.1 0.150002,0.113002 0.161998,0.113003 0.151001,0.112 0.15,0.112999 0.15,0.099 0.149,0.113002 0.163,0.112 0.149999,0.1 0.15,0.112999 0.150002,0.100003 0.149999,0.112999 0.15,0.099 0.162998,0.1 0.15,0.1 L 21.84,35.673 l 0.149,0.100003 0.150999,0.1 0.15,0.100002 0.162003,0.1 0.299999,0.200001 0.149999,0.1 0.150002,0.100002 0.15,0.1 0.163,0.087 0.149999,0.101002 0.15,0.099 0.15,0.088 0.150001,0.1 0.15,0.088 0.161998,0.087 0.150002,0.1 0.15,0.087 0.149999,0.088 0.15,0.100002 0.162998,0.087 0.15,0.088 0.150001,0.087 0.15,0.088 0.149999,0.075 0.15,0.087 0.162003,0.088 0.149999,0.087 0.15,0.075 0.149999,0.088 0.150002,0.075" /><path
               id="path50"
               style="fill:none;stroke:#231f20;stroke-width:0.69999999;stroke-linecap:butt;stroke-linejoin:round;stroke-miterlimit:4;stroke-dasharray:none;stroke-opacity:1"
               d="m 7.8399997,24.585001 0.2999997,0.25 0.1620006,0.124998 0.1500006,0.138002 0.1499996,0.125 0.1500006,0.125 0.1499996,0.125 0.1499996,0.136998 0.1620007,0.125002 0.1499996,0.124998 0.151,0.125002 0.1500006,0.138 0.2989998,0.25 0.1630003,0.125 0.149999,0.138001 0.45,0.375 0.150001,0.136999 0.162999,0.125 0.15,0.125 0.15,0.125 0.149,0.136999" /><text
               id="text54"
               style="font-variant:normal;font-weight:normal;font-size:11.95500088px;font-family:CMMI12;-inkscape-font-specification:CMMI12;writing-mode:lr-tb;fill:#231f20;fill-opacity:1;fill-rule:nonzero;stroke:none"
               transform="matrix(1,0,0,-1,80.525894,57.445797)"><tspan
                 id="tspan52"
                 y="0"
                 x="0">u</tspan></text>
<text
               id="text58"
               style="font-variant:normal;font-weight:normal;font-size:11.95500088px;font-family:CMR12;-inkscape-font-specification:CMR12;writing-mode:lr-tb;fill:#231f20;fill-opacity:1;fill-rule:nonzero;stroke:none"
               transform="matrix(1,0,0,-1,88.07428,57.445797)"><tspan
                 id="tspan56"
                 y="0"
                 x="0">=</tspan></text>
<text
               id="text62"
               style="font-variant:normal;font-weight:normal;font-size:11.95500088px;font-family:CMMI12;-inkscape-font-specification:CMMI12;writing-mode:lr-tb;fill:#231f20;fill-opacity:1;fill-rule:nonzero;stroke:none"
               transform="matrix(1,0,0,-1,16.329931,63.218868)"><tspan
                 id="tspan60"
                 y="0"
                 x="0">u</tspan></text>
<text
               id="text66"
               style="font-variant:normal;font-weight:normal;font-size:11.95500088px;font-family:CMMI12;-inkscape-font-specification:CMMI12;writing-mode:lr-tb;fill:#231f20;fill-opacity:1;fill-rule:nonzero;stroke:none"
               transform="matrix(1,0,0,-1,279.2981,22.718914)"><tspan
                 id="tspan64"
                 y="0"
                 x="0">x</tspan></text>
<text
               id="text70"
               style="font-variant:normal;font-weight:normal;font-size:11.95500088px;font-family:CMMI12;-inkscape-font-specification:CMMI12;writing-mode:lr-tb;fill:#231f20;fill-opacity:1;fill-rule:nonzero;stroke:none"
               transform="matrix(1,0,0,-1,99.087219,58.077023)"><tspan
                 id="tspan68"
                 y="0"
                 x="0">u</tspan></text>
<text
               id="text74"
               style="font-variant:normal;font-weight:normal;font-size:11.95500088px;font-family:CMR12;-inkscape-font-specification:CMR12;writing-mode:lr-tb;fill:#231f20;fill-opacity:1;fill-rule:nonzero;stroke:none"
               transform="matrix(1,0,0,-1,105.74974,58.077023)"><tspan
                 id="tspan72"
                 y="0"
                 x="0">(</tspan></text>
<text
               id="text78"
               style="font-variant:normal;font-weight:normal;font-size:11.95500088px;font-family:CMMI12;-inkscape-font-specification:CMMI12;writing-mode:lr-tb;fill:#231f20;fill-opacity:1;fill-rule:nonzero;stroke:none"
               transform="matrix(1,0,0,-1,110.30221,58.077023)"><tspan
                 id="tspan76"
                 y="0"
                 x="0 6.6469808">x,</tspan></text>
<text
               id="text82"
               style="font-variant:normal;font-weight:normal;font-size:11.95500088px;font-family:CMMI12;-inkscape-font-specification:CMMI12;writing-mode:lr-tb;fill:#231f20;fill-opacity:1;fill-rule:nonzero;stroke:none"
               transform="matrix(1,0,0,-1,122.19863,58.077023)"><tspan
                 id="tspan80"
                 y="0"
                 x="0">t</tspan></text>
<text
               id="text86"
               style="font-variant:normal;font-weight:normal;font-size:11.95500088px;font-family:CMR12;-inkscape-font-specification:CMR12;writing-mode:lr-tb;fill:#231f20;fill-opacity:1;fill-rule:nonzero;stroke:none"
               transform="matrix(1,0,0,-1,126.42592,58.077023)"><tspan
                 id="tspan84"
                 y="0"
                 x="0">)</tspan></text>
<path
               id="path88"
               style="fill:none;stroke:#231f20;stroke-width:0.69999999;stroke-linecap:butt;stroke-linejoin:round;stroke-miterlimit:4;stroke-dasharray:none;stroke-opacity:1"
               d="m 81.163002,17.646 -0.161995,0.1 -0.150001,0.100001 -0.151001,0.1 -0.448998,0.299999 -0.163002,0.100001 -0.150001,0.111999 -0.150002,0.101 -0.150002,0.1 -0.149993,0.099 -0.163002,0.113 -0.150002,0.100001 L 79.025002,19.083 78.875,19.184 78.726006,19.296001 78.575005,19.409 78.413002,19.508001 78.263,19.621 l -0.149993,0.112002 -0.150002,0.112999 -0.150001,0.111999 -0.150002,0.101 -0.161995,0.112001 -0.150001,0.112999 -0.151001,0.112002 -0.15001,0.111999 -0.149993,0.112999 -0.148995,0.125 -0.163002,0.112002 -0.150001,0.112999 -0.150002,0.111999 -0.150002,0.113001 -0.149993,0.125 -0.150002,0.113001 -0.163002,0.111999 -0.150001,0.125 -0.148995,0.112999 -0.150001,0.125 -0.151001,0.112002 -0.162003,0.125 -0.150002,0.112999 -0.149993,0.124 -0.150002,0.125 L 74.313004,22.621 74.163002,22.746 74,22.871 l -0.148994,0.113001 -0.151001,0.124001 -0.15001,0.125 -0.149993,0.125999 -0.150002,0.112 -0.161995,0.125 -0.300003,0.25 -0.150002,0.125 -0.299995,0.25 -0.163002,0.125 -0.448997,0.375 -0.151001,0.125 -0.150002,0.125 -0.162003,0.125 -0.599998,0.5 -0.161995,0.137001 -0.150001,0.125 -0.151001,0.125 -0.448998,0.375 -0.163002,0.138 -0.300003,0.25 -0.150002,0.125 -0.149993,0.136999 -0.150002,0.125 -0.163002,0.125 -0.150001,0.125 -0.149003,0.138001 -0.149993,0.125 -0.151001,0.125 -0.150002,0.125 L 67.763,28.034 l -0.449996,0.375 -0.150002,0.137001 -0.162003,0.125 -0.149993,0.125 -0.151001,0.125 -0.15001,0.138001 -0.298996,0.25 -0.162994,0.125 m 30.138001,-17.538001 -0.163002,0.013 -0.150002,0.012 -0.149994,0.013 -0.150001,0.012 -0.150002,0.025 -0.150001,0.012 -0.163002,0.025 -0.150002,0.013 -0.148994,0.025 -0.151001,0.025 -0.15001,0.012 -0.149993,0.026 -0.161995,0.024 -0.150002,0.026 -0.150001,0.025 -0.150002,0.037 -0.149994,0.025 -0.150001,0.025 -0.163002,0.038 -0.150002,0.024 -0.150001,0.038 -0.148995,0.025 -0.150001,0.038 -0.151001,0.037 -0.162003,0.037 -0.149994,0.038 -0.150001,0.037 -0.150002,0.038 -0.150001,0.038 -0.163002,0.049 -0.298996,0.076 -0.151001,0.049 -0.15001,0.05 -0.149993,0.038 -0.161995,0.05 -0.300003,0.1 -0.150002,0.05 -0.150002,0.05 -0.149993,0.05 -0.163002,0.05 -0.150002,0.05 -0.150001,0.062 -0.149994,0.051 -0.149002,0.049 -0.151001,0.063 -0.162003,0.063 -0.150002,0.05 -0.599998,0.25 -0.161995,0.062 -0.150001,0.063 -0.151001,0.062 -0.15001,0.063 -0.149993,0.074 -0.161995,0.063 -0.150002,0.075 -0.150001,0.063 -0.150002,0.074 -0.150002,0.063 -0.149993,0.075 -0.163002,0.075 -0.150002,0.075 -0.150001,0.075 -0.148995,0.075 -0.150001,0.075 -0.151001,0.075 -0.162003,0.075 -0.150002,0.075 -0.149993,0.087 -0.150002,0.076 -0.150001,0.087 -0.150002,0.075 -0.161995,0.088 -0.150001,0.074 -0.151001,0.088 -0.15001,0.088 -0.149993,0.087 -0.161995,0.075 -0.150002,0.088 -0.300003,0.174 -0.150002,0.088 -0.149993,0.1 -0.163002,0.088 -0.150002,0.087 -0.150001,0.1 -0.148995,0.087 -0.150001,0.088 -0.151001,0.1 -0.162003,0.088 -0.150002,0.099 -0.149993,0.101 -0.150002,0.087 -0.150001,0.1 -0.150002,0.1" /><path
               id="path90"
               style="fill:none;stroke:#231f20;stroke-width:0.69999999;stroke-linecap:butt;stroke-linejoin:round;stroke-miterlimit:4;stroke-dasharray:none;stroke-opacity:1"
               d="m 111.288,15.496 -0.14999,-0.087 -0.162,-0.076 -0.15001,-0.087 -0.15,-0.075 -0.14999,-0.075 -0.3,-0.15 -0.16301,-0.075 -0.149,-0.075 -0.15099,-0.075 -0.3,-0.15 L 109.313,14.508 109.15101,14.434 109,14.371 l -0.14899,-0.075 -0.15001,-0.063 -0.15,-0.074 -0.16299,-0.063 -0.45001,-0.187001 -0.149,-0.063 -0.15099,-0.062 -0.162,-0.063 -0.15001,-0.062 -0.15,-0.05 -0.14999,-0.063 -0.15,-0.063 -0.15,-0.049 -0.16301,-0.051 -0.15,-0.062 -0.14999,-0.05 -0.15,-0.05 -0.15,-0.05 -0.15001,-0.05 -0.16199,-0.05 -0.15101,-0.05 -0.14899,-0.05 -0.15001,-0.05 -0.15,-0.038 -0.14999,-0.05 -0.163,-0.049 -0.30001,-0.076 -0.149,-0.049 -0.15099,-0.038 -0.162,-0.038 -0.15001,-0.037 -0.15,-0.038 -0.14999,-0.037 -0.3,-0.075 -0.16301,-0.025 -0.149,-0.038 -0.15099,-0.024 -0.15,-0.038 -0.15,-0.025 -0.15001,-0.025 -0.16199,-0.037 -0.15,-0.025 -0.15,-0.026 -0.15001,-0.024 -0.15,-0.026 -0.14999,-0.012 -0.163,-0.025 -0.15,-0.025 -0.15001,-0.013 -0.15,-0.025 -0.14999,-0.012 -0.162,-0.025 -0.15001,-0.012 -0.15,-0.013 -0.15,-0.012 -0.150992,-0.013 -0.149002,-0.013 -0.163002,-0.012 -0.150002,-0.013 h -0.149994 l -0.150001,-0.012 h -0.150002 l -0.150001,-0.013 h -0.311997 l -0.150001,-0.012 h -0.612999 l -0.150002,0.012 h -0.300003 l -0.149994,0.013 h -0.150001 l -0.163002,0.012 h -0.150002 l -0.150001,0.013 -0.148995,0.012 -0.150001,0.013 m 30.125004,14.463 -0.15001,-0.125999 -0.15,-0.125 -0.16299,-0.124001 -0.15,-0.125999 -0.15,-0.125 -0.15001,-0.137001 -0.14899,-0.125 -0.163,-0.125 -0.75,-0.625 -0.163,-0.125 -0.15001,-0.125 -0.14899,-0.125 -0.151,-0.125 -0.3,-0.25 -0.16201,-0.125 -0.44999,-0.375 -0.15001,-0.112 -0.15,-0.125 -0.16299,-0.125999 -0.15,-0.124001 -0.15,-0.113001 -0.30001,-0.25 -0.14999,-0.112999 -0.162,-0.125 -0.15001,-0.124 -0.15,-0.112999 -0.14999,-0.125 -0.15,-0.112002 -0.163,-0.125 -0.15001,-0.112999 -0.14899,-0.125 -0.151,-0.111999 -0.15,-0.113001 -0.15,-0.125 L 119.801,21.083 119.65101,20.971001 119.5,20.858002 119.35101,20.746 119.201,20.621 l -0.15,-0.112999 -0.16299,-0.111999 -0.3,-0.225001 -0.15001,-0.112001 -0.14899,-0.101 -0.151,-0.111999 -0.162,-0.112999 -0.15001,-0.112002 -0.15,-0.112999 -0.14999,-0.099 -0.15,-0.112999 -0.163,-0.112001 -0.15001,-0.101 -0.15,-0.111999 -0.14999,-0.100001 -0.15,-0.112999 -0.15,-0.099 -0.16201,-0.1 -0.14999,-0.101 L 116,18.346001 115.85101,18.246 115.551,18.046001 l -0.16299,-0.1 -0.45001,-0.300001 -0.15,-0.1 -0.14999,-0.1 -0.162,-0.087 -0.15001,-0.101 -0.15,-0.099 -0.14999,-0.088 -0.15,-0.1 -0.15,-0.088 -0.16301,-0.087 -0.14899,-0.1 -0.151,-0.087 -0.15,-0.088 -0.15,-0.1 -0.16201,-0.088 -0.14999,-0.087 -0.15101,-0.087 -0.14899,-0.088 -0.15001,-0.075 -0.15,-0.087 -0.16299,-0.088 -0.15,-0.087 -0.15,-0.075 -0.15001,-0.088 -0.15,-0.075" /><path
               id="path92"
               style="fill:none;stroke:#231f20;stroke-width:0.69999999;stroke-linecap:butt;stroke-linejoin:round;stroke-miterlimit:4;stroke-dasharray:none;stroke-opacity:1"
               d="m 130,29.434002 -0.14899,-0.125 -0.15001,-0.125 -0.162,-0.125 -0.151,-0.138001 -0.14999,-0.125 -0.15,-0.125 -0.15001,-0.125 -0.149,-0.137001 -0.16299,-0.125 -0.30001,-0.25 -0.14999,-0.137998 -0.3,-0.25 -0.163,-0.125 -0.15001,-0.138001 -0.44999,-0.375 -0.15,-0.136999 -0.16201,-0.125 -0.14999,-0.125 -0.15101,-0.125 -0.14899,-0.137001 m 49.637,12.562 0.16198,-0.1 0.15001,-0.100002 0.151,-0.1 0.15001,-0.1 0.14899,-0.100003 0.15001,-0.1 0.16299,-0.100002 0.15001,-0.112999 0.30001,-0.200001 0.14999,-0.099 0.16299,-0.112999 0.15001,-0.100002 0.15,-0.112999 0.14999,-0.1 0.149,-0.113003 0.151,-0.111999 0.16201,-0.099 0.15001,-0.112999 0.14999,-0.113003 0.14999,-0.111999 0.15001,-0.112999 0.15,-0.1 0.16198,-0.113003 0.15001,-0.111999 0.151,-0.112 0.15001,-0.111999 0.14899,-0.112999 0.15001,-0.125 0.16299,-0.113003 0.15001,-0.111999 0.30001,-0.224999 0.14999,-0.125 0.14999,-0.112999 0.16301,-0.113003 0.15,-0.125 0.149,-0.111999 0.14999,-0.125 0.151,-0.112 0.16201,-0.125 0.15001,-0.112999 0.14999,-0.124 0.14999,-0.125 0.15001,-0.112999 0.15,-0.125 0.16301,-0.125 L 183.3,33.583 l 0.151,-0.125 0.15001,-0.125 0.14899,-0.125 0.15102,-0.111999 0.16198,-0.125 0.75,-0.625 0.16301,-0.125 0.15,-0.125 0.149,-0.125 0.14999,-0.125 0.151,-0.125 0.15001,-0.125 0.16201,-0.125 0.59999,-0.5 0.16198,-0.137999 0.15001,-0.125 0.151,-0.125 0.15001,-0.125 0.14899,-0.125 0.15001,-0.125 0.16299,-0.137001 0.45002,-0.375 0.14999,-0.136999 0.14999,-0.125 0.16301,-0.125 0.15,-0.125 0.149,-0.138001 0.14999,-0.125 0.151,-0.125 0.15001,-0.125 0.16201,-0.138 0.44999,-0.375 0.15,-0.136999 0.16198,-0.125 0.15001,-0.125 0.151,-0.125 0.15001,-0.138001 0.14899,-0.125 0.15001,-0.125 0.16299,-0.125 m -30.138,17.538 0.16301,-0.013 0.15,-0.012 0.14999,-0.013 0.15001,-0.012 0.14999,-0.025 0.15001,-0.013 0.16199,-0.024 0.151,-0.013 0.149,-0.025 0.151,-0.025 0.15001,-0.013 0.14899,-0.025 0.16301,-0.024 0.14999,-0.026 0.15001,-0.025 0.15,-0.037 0.14999,-0.025 0.15001,-0.025 0.16299,-0.038 0.15001,-0.025 0.15,-0.037 0.149,-0.025 0.14999,-0.038 0.151,-0.037 0.16201,-0.037 0.14999,-0.038 0.15001,-0.038 0.3,-0.075 0.16199,-0.05 0.3,-0.075 0.151,-0.05 0.15001,-0.049 0.14899,-0.038 0.16301,-0.05 0.3,-0.1 0.15,-0.05 0.14999,-0.05 0.15001,-0.05 0.16299,-0.05 0.15001,-0.05 0.15,-0.062 0.14999,-0.051 0.149,-0.05 0.151,-0.062 0.16201,-0.063 0.14999,-0.05 0.15001,-0.062 0.45,-0.188 0.16198,-0.062 0.15001,-0.063 0.151,-0.062 0.15001,-0.063 0.14899,-0.075 0.16301,-0.062 0.14999,-0.075 0.15001,-0.063 0.15,-0.074 0.14999,-0.063 0.15001,-0.075 0.16299,-0.075 0.15001,-0.075 0.15,-0.075 0.29899,-0.150002 0.151,-0.075 0.16201,-0.075 0.15001,-0.075 0.14999,-0.088 0.14999,-0.075 0.15001,-0.087 0.15,-0.075 0.16198,-0.088 0.15001,-0.075 0.151,-0.087 0.15001,-0.088 0.14899,-0.087 0.16301,-0.075 0.14999,-0.088 0.30001,-0.174999 0.15001,-0.088 0.14999,-0.099 0.16299,-0.088 0.15001,-0.087 0.15,-0.101002 0.149,-0.086 0.14999,-0.088 0.151,-0.1 0.16201,-0.088 0.15001,-0.099 0.14999,-0.101002 0.14999,-0.087 0.15001,-0.101002 0.15,-0.099" /><path
               id="path94"
               style="fill:none;stroke:#231f20;stroke-width:0.69999999;stroke-linecap:butt;stroke-linejoin:round;stroke-miterlimit:4;stroke-dasharray:none;stroke-opacity:1"
               d="m 145.86301,41.071003 0.14999,0.087 0.162,0.075 0.151,0.088 0.15001,0.075 0.15,0.075 0.14999,0.075 0.149,0.075 0.16301,0.075 0.15,0.075 0.14999,0.075 0.3,0.150001 0.15001,0.063 0.16199,0.074 0.151,0.063 0.15001,0.075 0.14999,0.062 0.15001,0.075 0.16199,0.063 0.75,0.312 0.162,0.063 0.151,0.062 0.15001,0.05 0.15,0.063 0.149,0.062 0.14999,0.05 0.16301,0.051 0.15,0.062 0.3,0.1 0.14999,0.05 0.15001,0.05 0.16199,0.05 0.151,0.05 0.149,0.05 0.151,0.05 0.15001,0.038 0.14899,0.049 0.16301,0.05 0.3,0.075 0.15,0.05 0.14999,0.038 0.16301,0.037 0.14999,0.038 0.15001,0.038 0.15,0.037 0.3,0.075 0.162,0.025 0.15,0.037 0.14999,0.025 0.15001,0.038 0.3,0.05 0.16199,0.037 0.14999,0.025 0.15001,0.026 0.151,0.024 0.15001,0.025 0.14899,0.013 0.16301,0.025 0.14999,0.025 0.15001,0.013 0.15,0.024 0.14999,0.013 0.162,0.025 0.151,0.012 0.15001,0.012 0.29999,0.026 0.149,0.013 0.16301,0.012 0.15,0.012 h 0.14999 l 0.15001,0.013 h 0.14999 l 0.15001,0.012 h 0.31198 l 0.15001,0.013 h 0.61301 l 0.14999,-0.013 h 0.30001 l 0.14999,-0.012 h 0.15001 l 0.16299,-0.013 h 0.15001 l 0.15,-0.012 0.149,-0.012 0.14999,-0.013 M 130.8,30.208002 l 0.151,0.125 0.15001,0.125 0.16199,0.125 0.15001,0.125 0.14999,0.125 0.15001,0.137999 0.15,0.125 0.16299,0.125 0.75,0.625 0.162,0.125 0.75,0.625 0.16301,0.125 0.14899,0.125 0.3,0.25 0.151,0.111999 0.15001,0.125 0.16199,0.125 0.15001,0.125 0.14999,0.113003 0.30001,0.25 0.14999,0.112999 0.162,0.125 0.151,0.124 0.15001,0.112999 0.15,0.125 0.14999,0.112 0.162,0.125 0.15001,0.111999 0.15,0.125 0.14999,0.113003 0.15001,0.112999 0.14999,0.125 0.16301,0.112 0.14899,0.112999 0.151,0.111999 0.15001,0.113003 0.14999,0.125 0.15001,0.112999 0.16199,0.111999 0.3,0.223999 0.15001,0.113003 0.15,0.1 0.14999,0.112999 0.162,0.111999 0.151,0.113003 0.15001,0.112999 0.15,0.099 0.149,0.111999 0.16299,0.113003 0.15001,0.1 0.15,0.112999 0.14999,0.100002 0.15001,0.112999 0.14999,0.099 0.16301,0.100002 0.14899,0.1 0.151,0.112999 0.149,0.100002 0.151,0.1 0.15001,0.100003 0.16199,0.1 0.45001,0.299999 0.15,0.099 0.14999,0.101002 0.16301,0.087 0.14999,0.101002 0.15001,0.099 0.15,0.088 0.14999,0.1 0.15001,0.088 0.162,0.086 0.15,0.101002 0.14999,0.087 0.15001,0.088 0.14999,0.099 0.16301,0.088 0.14899,0.088 0.151,0.087 0.15001,0.088 0.14999,0.075 0.15001,0.087 0.16199,0.088 0.15001,0.087 0.14999,0.075 0.15001,0.088 0.15,0.075" /><path
               id="path96"
               style="fill:none;stroke:#231f20;stroke-width:0.69999999;stroke-linecap:butt;stroke-linejoin:round;stroke-miterlimit:4;stroke-dasharray:none;stroke-opacity:1"
               d="m 127.15101,27.133001 0.29999,0.25 0.16201,0.125 0.15,0.138001 0.15,0.123997 0.14999,0.126003 0.15001,0.125 0.15,0.136999 0.162,0.125 0.14999,0.125 0.151,0.125 0.15001,0.138 0.15,0.125 0.149,0.125 0.16299,0.125 0.15001,0.138001 0.45,0.375 0.14999,0.136999 0.16301,0.125 0.14899,0.125 0.151,0.125 0.149,0.137001" /><path
               id="path98"
               style="fill:#231f20;fill-opacity:1;fill-rule:nonzero;stroke:none"
               d="M 113,51.946003 132.62601,31.721001" /><path
               id="path100"
               style="fill:#231f20;fill-opacity:1;fill-rule:nonzero;stroke:none"
               d="M 123,15.246 V 4.1460004" /><path
               id="path102"
               style="fill:none;stroke:#231f20;stroke-width:1;stroke-linecap:butt;stroke-linejoin:miter;stroke-miterlimit:4;stroke-dasharray:none;stroke-opacity:1"
               d="M 123,15.246 V 4.1460004" /><path
               id="path104"
               style="fill:#231f20;fill-opacity:1;fill-rule:nonzero;stroke:none"
               d="m 123.61501,2.7290001 c 0.3,0.9920001 0.576,1.6370001 0.89498,2.4320002 h -3.02598 c 0.13499,-0.2849999 0.59598,-1.4400001 0.894,-2.4320002 0.32199,-1.062 0.541,-2.02400006 0.619,-2.6490001 0.079,0.62500004 0.298,1.5870001 0.618,2.6490001" /></g><g
             id="g106"><g
               clip-path="url(#clipPath112)"
               id="g108"><path
                 id="path114"
                 style="fill:none;stroke:#231f20;stroke-width:1;stroke-linecap:butt;stroke-linejoin:miter;stroke-miterlimit:4;stroke-dasharray:none;stroke-opacity:1"
                 d="m 123.61501,2.7290001 c 0.3,0.9920001 0.576,1.6370001 0.89498,2.4320002 h -3.02598 c 0.13499,-0.2849999 0.59598,-1.4400001 0.894,-2.4320002 0.32199,-1.062 0.541,-2.02400006 0.619,-2.6490001 0.079,0.62500004 0.298,1.5870001 0.618,2.6490001 z" /></g></g><g
             id="g116"><path
               id="path118"
               style="fill:#231f20;fill-opacity:1;fill-rule:nonzero;stroke:none"
               d="m 122.385,16.663 c -0.29999,-0.992 -0.575,-1.636999 -0.894,-2.433 h 3.02601 c -0.13501,0.285 -0.596,1.441 -0.895,2.433 -0.32101,1.062 -0.54,2.024 -0.619,2.648001 C 122.925,18.687 122.70601,17.725 122.385,16.663" /><path
               id="path120"
               style="fill:none;stroke:#231f20;stroke-width:1;stroke-linecap:butt;stroke-linejoin:miter;stroke-miterlimit:4;stroke-dasharray:none;stroke-opacity:1"
               d="m 122.385,16.663 c -0.29999,-0.992 -0.575,-1.636999 -0.894,-2.433 h 3.02601 c -0.13501,0.285 -0.596,1.441 -0.895,2.433 -0.32101,1.062 -0.54,2.024 -0.619,2.648001 C 122.925,18.687 122.70601,17.725 122.385,16.663 Z" /><path
               id="path122"
               style="fill:#231f20;fill-opacity:1;fill-rule:nonzero;stroke:none"
               d="M 41.5,61.746002 V 50.646004" /><path
               id="path124"
               style="fill:none;stroke:#231f20;stroke-width:1;stroke-linecap:butt;stroke-linejoin:miter;stroke-miterlimit:4;stroke-dasharray:none;stroke-opacity:1"
               d="M 41.5,61.746002 V 50.646004" /><path
               id="path126"
               style="fill:#231f20;fill-opacity:1;fill-rule:nonzero;stroke:none"
               d="m 42.115002,49.229004 c 0.299999,0.991997 0.576,1.636997 0.894996,2.431999 h -3.026996 c 0.136001,-0.285 0.596,-1.440002 0.895,-2.431999 0.320999,-1.062 0.541001,-2.024002 0.619,-2.649006 0.078,0.625004 0.298,1.587006 0.618,2.649006" /><path
               id="path128"
               style="fill:none;stroke:#231f20;stroke-width:1;stroke-linecap:butt;stroke-linejoin:miter;stroke-miterlimit:4;stroke-dasharray:none;stroke-opacity:1"
               d="m 42.115002,49.229004 c 0.299999,0.991997 0.576,1.636997 0.894996,2.431999 h -3.026996 c 0.136001,-0.285 0.596,-1.440002 0.895,-2.431999 0.320999,-1.062 0.541001,-2.024002 0.619,-2.649006 0.078,0.625004 0.298,1.587006 0.618,2.649006 z" /><path
               id="path130"
               style="fill:#231f20;fill-opacity:1;fill-rule:nonzero;stroke:none"
               d="M 40.885002,63.163002 C 40.585003,62.171001 40.309998,61.526005 39.989998,60.73 h 3.027004 c -0.136001,0.285003 -0.596001,1.441001 -0.895,2.433002 -0.320999,1.062004 -0.541001,2.024002 -0.619,2.649002 -0.078,-0.625 -0.297001,-1.586998 -0.618,-2.649002" /><path
               id="path132"
               style="fill:none;stroke:#231f20;stroke-width:1;stroke-linecap:butt;stroke-linejoin:miter;stroke-miterlimit:4;stroke-dasharray:none;stroke-opacity:1"
               d="M 40.885002,63.163002 C 40.585003,62.171001 40.309998,61.526005 39.989998,60.73 h 3.027004 c -0.136001,0.285003 -0.596001,1.441001 -0.895,2.433002 -0.320999,1.062004 -0.541001,2.024002 -0.619,2.649002 -0.078,-0.625 -0.297001,-1.586998 -0.618,-2.649002 z" /><path
               id="path134"
               style="fill:#231f20;fill-opacity:1;fill-rule:nonzero;stroke:none"
               d="M 180.5,55.246002 V 44.146004" /><path
               id="path136"
               style="fill:none;stroke:#231f20;stroke-width:1;stroke-linecap:butt;stroke-linejoin:miter;stroke-miterlimit:4;stroke-dasharray:none;stroke-opacity:1"
               d="M 180.5,55.246002 V 44.146004" /><path
               id="path138"
               style="fill:#231f20;fill-opacity:1;fill-rule:nonzero;stroke:none"
               d="m 181.11501,42.729004 c 0.3,0.991997 0.576,1.636997 0.89498,2.431999 h -3.02598 c 0.13499,-0.285 0.59599,-1.440002 0.894,-2.431999 0.32199,-1.062 0.541,-2.024002 0.619,-2.649006 0.079,0.625004 0.298,1.587006 0.618,2.649006" /><path
               id="path140"
               style="fill:none;stroke:#231f20;stroke-width:1;stroke-linecap:butt;stroke-linejoin:miter;stroke-miterlimit:4;stroke-dasharray:none;stroke-opacity:1"
               d="m 181.11501,42.729004 c 0.3,0.991997 0.576,1.636997 0.89498,2.431999 h -3.02598 c 0.13499,-0.285 0.59599,-1.440002 0.894,-2.431999 0.32199,-1.062 0.541,-2.024002 0.619,-2.649006 0.079,0.625004 0.298,1.587006 0.618,2.649006 z" /><path
               id="path142"
               style="fill:#231f20;fill-opacity:1;fill-rule:nonzero;stroke:none"
               d="m 179.88501,56.663002 c -0.3,-0.992001 -0.57501,-1.637001 -0.894,-2.433002 h 3.026 c -0.13501,0.285003 -0.596,1.441001 -0.895,2.433002 -0.321,1.062 -0.53999,2.024002 -0.619,2.648003 -0.078,-0.624001 -0.297,-1.586003 -0.618,-2.648003" /><path
               id="path144"
               style="fill:none;stroke:#231f20;stroke-width:1;stroke-linecap:butt;stroke-linejoin:miter;stroke-miterlimit:4;stroke-dasharray:none;stroke-opacity:1"
               d="m 179.88501,56.663002 c -0.3,-0.992001 -0.57501,-1.637001 -0.894,-2.433002 h 3.026 c -0.13501,0.285003 -0.596,1.441001 -0.895,2.433002 -0.321,1.062 -0.53999,2.024002 -0.619,2.648003 -0.078,-0.624001 -0.297,-1.586003 -0.618,-2.648003 z" /><path
               id="path146"
               style="fill:#231f20;fill-opacity:1;fill-rule:nonzero;stroke:none"
               d="m 193,25.946001 c 0,-1.104999 -0.89499,-2 -2,-2 -1.10399,0 -2,0.895001 -2,2 0,1.103998 0.89601,2 2,2 1.10501,0 2,-0.896002 2,-2" /><path
               id="path148"
               style="fill:none;stroke:#231f20;stroke-width:1;stroke-linecap:butt;stroke-linejoin:miter;stroke-miterlimit:4;stroke-dasharray:none;stroke-opacity:1"
               d="m 193,25.946001 c 0,-1.104999 -0.89499,-2 -2,-2 -1.10399,0 -2,0.895001 -2,2 0,1.103998 0.89601,2 2,2 1.10501,0 2,-0.896002 2,-2 z" /><path
               id="path150"
               style="fill:#231f20;fill-opacity:1;fill-rule:nonzero;stroke:none"
               d="m 11.052001,25.609999 c 0,-1.103998 -0.896001,-2 -2.000001,-2 -1.1049995,0 -1.9999995,0.896002 -1.9999995,2 0,1.105003 0.895,2 1.9999995,2 1.104,0 2.000001,-0.894997 2.000001,-2" /><path
               id="path152"
               style="fill:none;stroke:#231f20;stroke-width:1;stroke-linecap:butt;stroke-linejoin:miter;stroke-miterlimit:4;stroke-dasharray:none;stroke-opacity:1"
               d="m 11.052001,25.609999 c 0,-1.103998 -0.896001,-2 -2.000001,-2 -1.1049995,0 -1.9999995,0.896002 -1.9999995,2 0,1.105003 0.895,2 1.9999995,2 1.104,0 2.000001,-0.894997 2.000001,-2 z" /><text
               id="text156"
               style="font-variant:normal;font-weight:normal;font-size:11.95500088px;font-family:CMMI12;-inkscape-font-specification:CMMI12;writing-mode:lr-tb;fill:#231f20;fill-opacity:1;fill-rule:nonzero;stroke:none"
               transform="matrix(1,0,0,-1,187.02602,12.4458)"><tspan
                 id="tspan154"
                 y="0"
                 x="0">L</tspan></text>
<text
               id="text160"
               style="font-variant:normal;font-weight:normal;font-size:11.95500088px;font-family:Times;-inkscape-font-specification:Times-Roman;writing-mode:lr-tb;fill:#231f20;fill-opacity:1;fill-rule:nonzero;stroke:none"
               transform="matrix(1,0,0,-1,-4.0097491e-4,14.94559)"><tspan
                 id="tspan158"
                 y="0"
                 x="0">0</tspan></text>
</g></g></g></g></g></svg>