<?xml version="1.0" encoding="UTF-8" standalone="no"?>
<svg
   xmlns:dc="http://purl.org/dc/elements/1.1/"
   xmlns:cc="http://creativecommons.org/ns#"
   xmlns:rdf="http://www.w3.org/1999/02/22-rdf-syntax-ns#"
   xmlns:svg="http://www.w3.org/2000/svg"
   xmlns="http://www.w3.org/2000/svg"
   viewBox="0 0 201.33333 150.66667"
   height="150.66667"
   width="201.33333"
   xml:space="preserve"
   id="svg2"
   version="1.1"><metadata
     id="metadata8"><rdf:RDF><cc:Work
         rdf:about=""><dc:format>image/svg+xml</dc:format><dc:type
           rdf:resource="http://purl.org/dc/dcmitype/StillImage" /></cc:Work></rdf:RDF></metadata><defs
     id="defs6"><clipPath
       id="clipPath24"
       clipPathUnits="userSpaceOnUse"><path
         id="path22"
         d="M 0,0 H 151 V 113 H 0 Z" /></clipPath><clipPath
       id="clipPath34"
       clipPathUnits="userSpaceOnUse"><path
         id="path32"
         d="M 0,0.06000519 H 150.32501 V 112.40201 H 0 Z" /></clipPath></defs><g
     transform="matrix(1.3333333,0,0,-1.3333333,0,150.66667)"
     id="g10"><g
       id="g12" /><g
       id="g14" /><g
       id="g16"><g
         id="g18"><g
           clip-path="url(#clipPath24)"
           id="g20"><g
             id="g26" /><g
             id="g28"><g
               clip-path="url(#clipPath34)"
               id="g30"><path
                 id="path36"
                 style="fill:#231f20;fill-opacity:1;fill-rule:nonzero;stroke:none"
                 d="m 136.804,40.625004 c -1.65401,0.5 -2.728,0.959999 -4.054,1.491997 v -5.044999 c 0.474,0.225998 2.39999,0.993 4.054,1.492001 1.76901,0.535 3.37401,0.899998 4.414,1.030998 -1.03999,0.130001 -2.64499,0.496002 -4.414,1.030003 z M 2.5170002,39.600002 H 134.442 M 1.4920001,107.98701 C 0.99200004,106.33401 0.53200001,105.259 0,103.93301 h 5.0440001 c -0.2249999,0.47499 -0.9920001,2.401 -1.4909999,4.054 -0.5350001,1.76999 -0.901,3.374 -1.0310001,4.415 -0.1299999,-1.041 -0.4960001,-2.64501 -1.03,-4.415 z M 2.5170002,0 v 105.62601" /></g></g><g
             id="g38"><path
               id="path40"
               style="fill:none;stroke:#231f20;stroke-width:0.5;stroke-linecap:butt;stroke-linejoin:round;stroke-miterlimit:10;stroke-dasharray:none;stroke-opacity:1"
               d="m 25.566002,40.001003 1.101,6.450001 1.1,5.25 1.099999,3.698998 1.1,1.949996 1.075001,0.226006 1.1,-1.375 1.099999,-2.676002 1.100002,-3.648999 1.099998,-4.201 1.100003,-4.325005 1.099998,-4.074996 1.099999,-3.475003 1.100002,-2.624998 1.099998,-1.649 1.075001,-0.626001 1.099999,0.375002 1.100002,1.25 1.099998,1.925998 1.100003,2.375 1.099998,2.550003 1.099999,2.5 1.100002,2.25 1.099998,1.823998 1.100003,1.251003 1.075,0.648994 1.099999,0.05 1.099998,-0.5 1.100003,-0.974999 1.099998,-1.299 1.100002,-1.476005 1.099999,-1.5 1.099998,-1.424996 1.100003,-1.2 1.099998,-0.925 1.075001,-0.550003 1.098999,-0.200001 1.100998,0.151005 1.100006,0.448998 1.099998,0.699997 1.099999,0.825004 1.099998,0.901001 1.099999,0.875 1.100006,0.773999 1.099998,0.625999 1.099999,0.450001 1.074997,0.198997 h 1.100006 l 1.098999,-0.173996 1.100998,-0.351001 1.098999,-0.449002 1.101005,-0.526001 1.099999,-0.524997 1.099998,-0.499001 1.099999,-0.426003 1.099998,-0.299999 1.075005,-0.200001 1.099998,-0.05 1.099999,0.05 1.098999,0.176003 1.101005,0.225002 1.099999,0.298996 1.098999,0.326004 1.100998,0.299 1.098999,0.275997 1.101005,0.224003 1.074997,0.124996 1.099999,0.076 H 100.192 l 1.10001,-0.076 1.1,-0.124996 1.10099,-0.149002 1.099,-0.176003 1.1,-0.198997 1.10001,-0.175999 1.1,-0.149002 1.07499,-0.100998 1.10001,-0.05 1.1,-0.02501 1.1,0.02501 1.09999,0.05 1.1,0.100998 2.20001,0.199002 1.1,0.125999 1.10099,0.075 1.07401,0.074 1.1,0.05 1.1,0.026 h 1.09999 l 1.1,-0.026 2.20001,-0.099 1.1,-0.076 1.09999,-0.049 1.10001,-0.076 1.075,-0.049 1.1,-0.026 1.09999,-0.025 h 1.10001 M 2.5170002,39.600002 3.6170001,58.175003 4.717,73.326004 5.8160005,84.126007 6.9170003,89.975006 8.0170002,90.900002 9.092,87.226006 l 1.099001,-7.451004 1.101,-10.273995 1.099999,-11.900005 1.100001,-12.349999 1.1,-11.651001 L 15.692,23.576 16.792002,15.900001 17.892,11.025001 18.992001,9.125 l 1.075,0.925 1.100001,3.426001 1.099998,5.4 1.100001,6.673998 1.1,7.276001 1.099001,7.175003" /><text
               id="text44"
               style="font-variant:normal;font-weight:normal;font-size:11.95500088px;font-family:CMMI12;-inkscape-font-specification:CMMI12;writing-mode:lr-tb;fill:#231f20;fill-opacity:1;fill-rule:nonzero;stroke:none"
               transform="matrix(1,0,0,-1,7.3456998,101.4259)"><tspan
                 id="tspan42"
                 y="0"
                 x="0">T</tspan></text>
<text
               id="text48"
               style="font-variant:normal;font-weight:normal;font-size:11.95500088px;font-family:CMMI12;-inkscape-font-specification:CMMI12;writing-mode:lr-tb;fill:#231f20;fill-opacity:1;fill-rule:nonzero;stroke:none"
               transform="matrix(1,0,0,-1,146.10381,34.354755)"><tspan
                 id="tspan46"
                 y="0"
                 x="0">t</tspan></text>
</g></g></g></g></g></svg>