<?xml version="1.0" encoding="UTF-8" standalone="no"?>
<svg
   xmlns:dc="http://purl.org/dc/elements/1.1/"
   xmlns:cc="http://creativecommons.org/ns#"
   xmlns:rdf="http://www.w3.org/1999/02/22-rdf-syntax-ns#"
   xmlns:svg="http://www.w3.org/2000/svg"
   xmlns="http://www.w3.org/2000/svg"
   viewBox="0 0 450.66666 313.33334"
   height="313.33334"
   width="450.66666"
   xml:space="preserve"
   id="svg2"
   version="1.1"><metadata
     id="metadata8"><rdf:RDF><cc:Work
         rdf:about=""><dc:format>image/svg+xml</dc:format><dc:type
           rdf:resource="http://purl.org/dc/dcmitype/StillImage" /></cc:Work></rdf:RDF></metadata><defs
     id="defs6"><clipPath
       id="clipPath24"
       clipPathUnits="userSpaceOnUse"><path
         id="path22"
         d="M 0,0 H 338 V 235 H 0 Z" /></clipPath><clipPath
       id="clipPath102"
       clipPathUnits="userSpaceOnUse"><path
         id="path100"
         d="M 0.06,0.05999756 H 337.34601 V 234.01601 H 0.06 Z" /></clipPath><clipPath
       id="clipPath120"
       clipPathUnits="userSpaceOnUse"><path
         id="path118"
         d="M 0.06,0.05999756 H 337.34601 V 234.01601 H 0.06 Z" /></clipPath></defs><g
     transform="matrix(1.3333333,0,0,-1.3333333,0,313.33333)"
     id="g10"><g
       id="g12" /><g
       id="g14" /><g
       id="g16"><g
         id="g18"><g
           clip-path="url(#clipPath24)"
           id="g20"><g
             id="g26" /><g
             id="g28"><path
               id="path30"
               style="fill:#231f20;fill-opacity:1;fill-rule:nonzero;stroke:none"
               d="M 2.7980001,174.35201 H 121.24701" /><path
               id="path32"
               style="fill:none;stroke:#231f20;stroke-width:0.47999999;stroke-linecap:butt;stroke-linejoin:miter;stroke-miterlimit:4;stroke-dasharray:none;stroke-opacity:1"
               d="M 2.7980001,174.35201 H 121.24701" /><path
               id="path34"
               style="fill:#231f20;fill-opacity:1;fill-rule:nonzero;stroke:none"
               d="m 121.09401,174.73502 -1.402,2.306 0.079,0.052 3.76001,-1.49399 c 1.30999,-0.28801 2.62,-0.576 3.93,-0.86399 -1.31,-0.28801 -2.62001,-0.57601 -3.93,-0.86502 l -3.76001,-1.49299 -0.079,0.039 1.402,2.319" /><path
               id="path36"
               style="fill:#231f20;fill-opacity:1;fill-rule:nonzero;stroke:none"
               d="M 29.999001,165.16501 V 226.382" /><path
               id="path38"
               style="fill:none;stroke:#231f20;stroke-width:0.47999999;stroke-linecap:butt;stroke-linejoin:miter;stroke-miterlimit:4;stroke-dasharray:none;stroke-opacity:1"
               d="M 29.999001,165.16501 V 226.382" /><path
               id="path40"
               style="fill:#231f20;fill-opacity:1;fill-rule:nonzero;stroke:none"
               d="m 29.999001,225.729 -2.306,-1.40098 -0.052,0.078 1.493,3.76001 c 0.288,1.30999 0.575998,2.61999 0.865,3.92999 0.288,-1.31 0.576,-2.62 0.864,-3.92999 l 1.494001,-3.76001 -0.04,-0.078 -2.318,1.40098" /><text
               id="text44"
               style="font-variant:normal;font-weight:normal;font-size:10.20160007px;font-family:CMMI10;-inkscape-font-specification:CMMI10;writing-mode:lr-tb;fill:#231f20;fill-opacity:1;fill-rule:nonzero;stroke:none"
               transform="matrix(1,0,0,-1,129.88901,170.7406)"><tspan
                 id="tspan42"
                 y="0"
                 x="0">x</tspan></text>
<text
               id="text48"
               style="font-variant:normal;font-weight:normal;font-size:10.20160007px;font-family:CMMI10;-inkscape-font-specification:CMMI10;writing-mode:lr-tb;fill:#231f20;fill-opacity:1;fill-rule:nonzero;stroke:none"
               transform="matrix(1,0,0,-1,68.906906,168.1647)"><tspan
                 id="tspan46"
                 y="0"
                 x="0">x</tspan></text>
<text
               id="text52"
               style="font-variant:normal;font-weight:normal;font-size:7.14119959px;font-family:CMR7;-inkscape-font-specification:CMR7;writing-mode:lr-tb;fill:#231f20;fill-opacity:1;fill-rule:nonzero;stroke:none"
               transform="matrix(1,0,0,-1,74.737297,166.6344)"><tspan
                 id="tspan50"
                 y="0"
                 x="0">0</tspan></text>
<path
               id="path54"
               style="fill:none;stroke:#231f20;stroke-width:0.86700004;stroke-linecap:butt;stroke-linejoin:round;stroke-miterlimit:10;stroke-dasharray:none;stroke-opacity:1"
               d="m 84.495003,209.48502 0.192001,0.26599 0.192001,0.267 0.239998,0.26699 0.192002,0.293 0.239998,0.26702 0.192001,0.293 0.192001,0.29399 0.239998,0.319 0.192001,0.294 0.192002,0.32 0.239998,0.32 0.192001,0.31999 0.239998,0.31901 0.384002,0.694 0.239998,0.347 0.192002,0.373 0.239998,0.347 0.192001,0.373 0.192001,0.373 0.239998,0.37401 0.192001,0.39999 0.239998,0.39999 0.192002,0.40001 0.192001,0.4 0.239998,0.42599 0.384003,0.85401 0.239997,0.42601 0.192002,0.45399 0.239998,0.453 0.384002,0.906 0.239998,0.481 0.192002,0.47999 0.239997,0.47901 0.192002,0.507 0.192001,0.50701 0.239998,0.50698 0.192001,0.50602 0.239998,0.53399 0.384003,1.066 0.239998,0.55999 M 63.615002,201.16501 h 0.624004 l 0.191994,0.026 h 2.784004 l 0.192001,0.027 h 0.432 l 0.192001,0.027 h 0.431999 l 0.192001,0.026 h 0.239998 l 0.192002,0.027 h 0.192001 l 0.239998,0.027 0.192001,0.026 h 0.239998 l 0.192001,0.027 0.192002,0.027 0.239998,0.027 0.192001,0.026 0.239998,0.027 0.192001,0.026 0.192001,0.027 0.239998,0.053 0.192002,0.027 0.239998,0.027 0.192001,0.053 0.192001,0.027 0.239998,0.053 0.192001,0.053 0.192002,0.054 0.239998,0.026 0.192001,0.054 0.239998,0.08 0.192001,0.053 0.192002,0.053 0.239997,0.054 0.192002,0.08 0.239998,0.08 0.192001,0.053 0.192001,0.08 0.239998,0.08 0.192001,0.08 0.239998,0.08 0.192002,0.08 0.192001,0.10699 0.239998,0.08 0.192001,0.10601 0.239998,0.10699 0.192001,0.08 0.192002,0.10701 0.239998,0.133 0.384002,0.213 0.239998,0.134 0.431999,0.24001 0.384003,0.26599 0.239998,0.16 0.192001,0.134 0.239998,0.133 0.192002,0.16 0.192001,0.16001 0.239998,0.15998 0.192001,0.16001 0.239998,0.18699 0.192001,0.16001 0.192002,0.186 0.239997,0.187 0.192002,0.187 0.192001,0.186 0.239998,0.187 0.192001,0.214 0.239998,0.18601 0.192002,0.21299 0.192001,0.21399 0.239998,0.24001 0.192001,0.213 0.239998,0.24 0.384003,0.48 0.239998,0.24 0.192001,0.23999 0.239998,0.26702 M 42.735001,191.218 l 0.241001,0.29401 0.191002,0.26601 0.191997,0.29399 0.241001,0.266 0.192002,0.267 0.238998,0.26599 0.193001,0.26702 0.191997,0.23999 0.239003,0.24 0.193,0.23999 0.238999,0.24001 0.192001,0.24 0.191998,0.21399 0.241001,0.23902 0.191002,0.21398 0.240997,0.213 0.191002,0.18701 0.191997,0.213 0.241002,0.187 0.191001,0.18699 0.191998,0.18601 0.241001,0.187 0.192001,0.18699 0.238999,0.15901 0.193001,0.187 0.192001,0.16 0.238998,0.15999 0.192997,0.16001 0.239003,0.16 0.192001,0.134 0.193001,0.133 0.239998,0.16 0.191002,0.133 0.240997,0.134 0.191002,0.133 0.192001,0.10701 0.240994,0.13299 0.191005,0.107 0.239998,0.106 0.193001,0.134 0.191002,0.106 0.239998,0.08 0.192001,0.10699 0.192997,0.107 0.239002,0.08 0.192002,0.106 0.239997,0.08 0.385003,0.16001 0.238998,0.08 0.192001,0.08 0.241001,0.054 0.190999,0.079 0.192001,0.08 0.240997,0.054 0.192002,0.053 0.238998,0.053 0.192001,0.08 0.192002,0.054 0.239997,0.026 0.192002,0.054 0.193001,0.053 0.238998,0.053 0.192001,0.027 0.239998,0.054 0.192002,0.026 0.192001,0.027 0.239998,0.053 0.192001,0.027 0.240997,0.026 0.191002,0.027 0.192002,0.027 0.240997,0.027 0.191002,0.026 0.240002,0.027 h 0.191997 l 0.192001,0.027 0.239998,0.026 h 0.192002 l 0.240001,0.027 h 0.191998 l 0.192001,0.026 h 0.431999 l 0.192002,0.027 h 0.431999 l 0.241001,0.027 h 2.302998" /><path
               id="path56"
               style="fill:none;stroke:#231f20;stroke-width:0.86700004;stroke-linecap:butt;stroke-linejoin:round;stroke-miterlimit:10;stroke-dasharray:none;stroke-opacity:1"
               d="m 35.392002,177.03201 0.190998,0.53299 0.192002,0.50701 0.241001,0.50599 0.191997,0.50701 0.240002,0.507 0.383999,0.95999 0.240001,0.48001 0.191998,0.45301 0.239002,0.45298 0.193001,0.45401 0.191997,0.45299 0.239003,0.427 0.192997,0.42601 0.192001,0.42701 0.240002,0.42698 0.191997,0.40001 0.240002,0.4 0.382999,0.8 0.241001,0.373 0.191998,0.373 0.239998,0.37399 0.192005,0.34601 0.191998,0.37399 0.239002,0.34601 0.193001,0.347 0.238998,0.347 0.193001,0.32 0.191997,0.32 0.239003,0.31999 0.192001,0.32001 0.240997,0.293 0.192002,0.31999 0.190998,0.293" /><path
               id="path58"
               style="fill:none;stroke:#231f20;stroke-width:0.40000001;stroke-linecap:butt;stroke-linejoin:round;stroke-miterlimit:4;stroke-dasharray:none;stroke-opacity:1"
               d="M 50.798004,201.36501 H 81.999001 M 36.163002,185.091 57.689003,207.67601 M 73.729004,196.25 l 20.139,23.83" /><path
               id="path60"
               style="fill:#231f20;fill-opacity:1;fill-rule:nonzero;stroke:none"
               d="M 3.3730001,100.339 H 121.82201" /><path
               id="path62"
               style="fill:none;stroke:#231f20;stroke-width:0.47999999;stroke-linecap:butt;stroke-linejoin:miter;stroke-miterlimit:4;stroke-dasharray:none;stroke-opacity:1"
               d="M 3.3730001,100.339 H 121.82201" /><path
               id="path64"
               style="fill:#231f20;fill-opacity:1;fill-rule:nonzero;stroke:none"
               d="m 121.66901,100.72301 -1.402,2.305 0.079,0.052 3.75899,-1.49298 c 1.31101,-0.28801 2.62101,-0.57601 3.93101,-0.864 -1.31,-0.289 -2.62,-0.57701 -3.93101,-0.865008 l -3.75899,-1.493996 -0.079,0.04 1.402,2.319004" /><path
               id="path66"
               style="fill:#231f20;fill-opacity:1;fill-rule:nonzero;stroke:none"
               d="M 30.574001,91.152008 V 152.37" /><path
               id="path68"
               style="fill:none;stroke:#231f20;stroke-width:0.47999999;stroke-linecap:butt;stroke-linejoin:miter;stroke-miterlimit:4;stroke-dasharray:none;stroke-opacity:1"
               d="M 30.574001,91.152008 V 152.37" /><path
               id="path70"
               style="fill:#231f20;fill-opacity:1;fill-rule:nonzero;stroke:none"
               d="m 30.574001,151.71701 -2.305999,-1.40201 -0.052,0.079 1.493,3.76 c 0.288999,1.30999 0.576999,2.61999 0.864999,3.93 0.288,-1.31001 0.575999,-2.62001 0.865,-3.93 l 1.493002,-3.76 -0.039,-0.079 -2.319001,1.40201" /><text
               id="text74"
               style="font-variant:normal;font-weight:normal;font-size:10.20160007px;font-family:CMMI10;-inkscape-font-specification:CMMI10;writing-mode:lr-tb;fill:#231f20;fill-opacity:1;fill-rule:nonzero;stroke:none"
               transform="matrix(1,0,0,-1,130.464,96.728004)"><tspan
                 id="tspan72"
                 y="0"
                 x="0">x</tspan></text>
<text
               id="text78"
               style="font-variant:normal;font-weight:normal;font-size:10.20160007px;font-family:CMMI10;-inkscape-font-specification:CMMI10;writing-mode:lr-tb;fill:#231f20;fill-opacity:1;fill-rule:nonzero;stroke:none"
               transform="matrix(1,0,0,-1,61.281857,93.953171)"><tspan
                 id="tspan76"
                 y="0"
                 x="0">x</tspan></text>
<text
               id="text82"
               style="font-variant:normal;font-weight:normal;font-size:7.14119959px;font-family:CMR7;-inkscape-font-specification:CMR7;writing-mode:lr-tb;fill:#231f20;fill-opacity:1;fill-rule:nonzero;stroke:none"
               transform="matrix(1,0,0,-1,67.112801,92.422005)"><tspan
                 id="tspan80"
                 y="0"
                 x="0">0</tspan></text>
<path
               id="path84"
               style="fill:none;stroke:#231f20;stroke-width:0.40000001;stroke-linecap:butt;stroke-linejoin:miter;stroke-miterlimit:4;stroke-dasharray:3, 3, 3, 3, 3, 3;stroke-dashoffset:0;stroke-opacity:1"
               d="M 65.773003,100.35201 V 140.194 l -0.574997,34.17101 v 39.841" /><path
               id="path86"
               style="fill:none;stroke:#231f20;stroke-width:0.347;stroke-linecap:butt;stroke-linejoin:round;stroke-miterlimit:10;stroke-dasharray:none;stroke-opacity:1"
               d="m 72.014,107.23901 0.054,0.095 0.042,0.10699 0.054,0.096 0.043,0.107 0.042,0.106 0.053,0.107 0.043,0.107 0.053,0.10701 0.086,0.21299 0.053,0.106 0.043,0.107 0.043,0.107 0.053,0.11701 0.042,0.10699 0.053,0.11701 0.043,0.10699 0.043,0.11701 0.05299,0.11699 0.04301,0.11801 0.053,0.11699 0.043,0.10701 0.043,0.12799 0.053,0.11701 0.043,0.11799 0.053,0.117 0.043,0.11701 0.042,0.12799 0.05399,0.11801 0.04201,0.128 0.054,0.11699 0.043,0.128 0.042,0.12801 0.053,0.11699 0.043,0.128 0.043,0.12801 0.053,0.128 0.043,0.128 0.053,0.12799 0.043,0.139 0.043,0.128 0.053,0.12801 0.04199,0.139 0.053,0.12699 0.04401,0.13901 0.042,0.128 0.05299,0.139 0.04301,0.138 0.05299,0.139 0.043,0.139 0.04301,0.13799 0.05299,0.13901 0.043,0.139 0.04301,0.138 0.05299,0.139 0.042,0.15 0.054,0.138 0.042,0.14999 0.043,0.138 0.054,0.15 0.042,0.138 0.053,0.14901 0.043,0.15 0.043,0.14899 0.053,0.15 0.043,0.14901 0.053,0.149 0.043,0.14999 0.043,0.15901 0.053,0.15 0.042,0.14899 0.054,0.16001 0.042,0.149 0.043,0.16099 0.053,0.16001 0.043,0.14899 0.04299,0.16001 0.05301,0.16 0.043,0.16 0.053,0.16 0.043,0.16 0.042,0.16 0.054,0.17 0.04199,0.16099 0.05401,0.16001 0.042,0.16999 0.043,0.16001 0.053,0.171 0.043,0.17099 0.053,0.15901 0.043,0.17099 0.043,0.16001 0.053,0.171 0.04299,0.17099 0.04201,0.17 0.054,0.17101 0.043,0.17099 0.053,0.181 v 0.021 m -9.227005,-19.76501 0.043,0.021 0.053,0.032 0.042,0.032 0.043,0.021 0.05399,0.033 0.04201,0.031 0.054,0.033 0.042,0.031 0.043,0.033 0.053,0.031 0.043,0.032 0.042,0.033 0.054,0.042 0.043,0.032 0.053,0.043 0.043,0.032 0.042,0.043 0.054,0.042 0.04199,0.032 0.05401,0.043 0.042,0.042 0.043,0.043 0.053,0.043 0.043,0.043 0.053,0.042 0.043,0.053 0.043,0.043 0.053,0.043 0.04299,0.053 0.04201,0.043 0.054,0.053 0.043,0.053 0.053,0.043 0.042,0.054 0.043,0.053 0.05299,0.053 0.04301,0.053 0.05399,0.054 0.042,0.053 0.04301,0.064 0.05299,0.053 0.043,0.054 0.053,0.064 0.043,0.053 0.042,0.064 0.054,0.064 0.043,0.054 0.053,0.063 0.042,0.064 0.043,0.064 0.053,0.064 0.043,0.064 0.043,0.064 0.053,0.075 0.043,0.064 0.053,0.064 0.043,0.075 0.042,0.064 0.054,0.074 0.04199,0.064 0.05401,0.075 0.042,0.075 0.043,0.074 0.053,0.075 0.043,0.075 0.054,0.075 0.042,0.074 0.042,0.075 0.054,0.075 0.04299,0.085 0.04201,0.075 0.054,0.085 0.042,0.074 0.054,0.086 0.043,0.085 0.042,0.075 0.05299,0.085 0.04301,0.085 0.054,0.086 0.042,0.085 0.043,0.085 0.053,0.097 0.043,0.085 0.053,0.085 0.043,0.096 0.042,0.086 0.05399,0.096 0.04301,0.085 0.05299,0.096 0.04201,0.096 0.043,0.096 0.05299,0.096 0.04301,0.096 0.04299,0.096 0.053,0.096 0.04301,0.096 0.05299,0.096 0.043,0.096 0.042,0.10701" /><path
               id="path88"
               style="fill:none;stroke:#231f20;stroke-width:0.347;stroke-linecap:butt;stroke-linejoin:round;stroke-miterlimit:10;stroke-dasharray:none;stroke-opacity:1"
               d="m 62.745003,102.033 0.053,-0.053 0.043,-0.043 0.043,-0.043 0.053,-0.053 0.042,-0.042 0.054,-0.043 0.043,-0.043 0.042,-0.043 0.054,-0.042 0.042,-0.043 0.043,-0.032 0.05299,-0.042 0.04301,-0.043 0.053,-0.032 0.043,-0.043 0.043,-0.032 0.053,-0.042 0.042,-0.033 0.054,-0.032 0.043,-0.031 0.042,-0.033 0.054,-0.031 0.042,-0.033 0.054,-0.031 0.042,-0.033 0.043,-0.021 0.053,-0.032 0.04301,-0.032 0.04299,-0.021 0.053,-0.032 0.04301,-0.021 0.05299,-0.022 0.043,-0.021 0.042,-0.032 0.054,-0.021 0.042,-0.022 0.053,-0.021 0.043,-0.021 0.043,-0.011 0.053,-0.022 0.043,-0.021 0.053,-0.01 0.043,-0.022 0.043,-0.011 0.053,-0.021 0.042,-0.01 0.043,-0.011 0.054,-0.011 0.042,-0.011 0.054,-0.01 0.085,-0.022 0.05299,-0.01 0.04301,-0.011 h 0.053 l 0.043,-0.011 0.043,-0.01 h 0.096 l 0.053,-0.011 h 0.373001 l 0.043,0.011 h 0.096 l 0.043,0.01 0.053,0.011 h 0.043 l 0.042,0.011 0.054,0.01 0.04199,0.011 0.05401,0.011 0.042,0.01 0.043,0.011 0.05299,0.011 0.04301,0.011 0.05299,0.01 0.043,0.021 0.04301,0.011 0.05299,0.022 0.043,0.01 0.042,0.021 0.054,0.022 0.042,0.011 0.054,0.021 0.042,0.021 0.043,0.022 0.053,0.021 0.043,0.032 0.053,0.021 0.043,0.022 0.043,0.021 0.053,0.032 m -9.269001,9.51501 0.042,-0.11801 0.043,-0.12799 0.053,-0.11701 0.043,-0.117 0.043,-0.11799 0.053,-0.11701 0.043,-0.12799 0.053,-0.10701 0.043,-0.11699 0.042,-0.11801 0.054,-0.11699 0.043,-0.11701 0.053,-0.10699 0.042,-0.11701 0.043,-0.10699 0.053,-0.11701 0.043,-0.107 0.053,-0.107 0.043,-0.106 0.043,-0.107 0.053,-0.10599 0.043,-0.10701 0.05301,-0.107 0.043,-0.107 0.042,-0.106 0.054,-0.107 0.042,-0.096 0.043,-0.10699 0.05299,-0.095 0.04301,-0.10701 0.053,-0.096 0.043,-0.096 0.043,-0.096 0.053,-0.096 0.043,-0.096 0.053,-0.096 0.043,-0.096 0.042,-0.096 0.053,-0.096 0.043,-0.096 0.054,-0.085 0.042,-0.096 0.043,-0.086 0.053,-0.096 0.043,-0.085 0.043,-0.085 0.05301,-0.097 0.042,-0.085 0.054,-0.085 0.043,-0.086 0.042,-0.084 0.053,-0.086 0.043,-0.075 0.054,-0.085 0.042,-0.086 0.043,-0.074 0.053,-0.085 0.043,-0.075 0.053,-0.085 0.043,-0.075 0.043,-0.075 0.053,-0.074 0.043,-0.075 0.053,-0.075 0.043,-0.075 0.042,-0.074 0.053,-0.075 0.043,-0.075 0.043,-0.064 0.053,-0.074 0.043,-0.064 0.053,-0.075 0.043,-0.064 0.043,-0.064 0.053,-0.075 0.042,-0.064 0.054,-0.064 0.043,-0.064 0.042,-0.064 0.053,-0.064 0.043,-0.063 0.054,-0.054 0.042,-0.064 0.043,-0.064 0.053,-0.053 0.043,-0.064 0.04299,-0.054 0.053,-0.053 0.042,-0.064 0.054,-0.053 0.043,-0.053 0.042,-0.054 0.054,-0.053 0.042,-0.053 0.05301,-0.054 0.043,-0.043 0.043,-0.053 0.053,-0.053 0.043,-0.043" /><path
               id="path90"
               style="fill:none;stroke:#231f20;stroke-width:0.347;stroke-linecap:butt;stroke-linejoin:round;stroke-miterlimit:10;stroke-dasharray:none;stroke-opacity:1"
               d="m 54.873001,120.72101 0.01,-0.021 0.043,-0.181 0.043,-0.17099 0.053,-0.17101 0.043,-0.17 0.053,-0.17099 0.043,-0.171 0.043,-0.16001 0.053,-0.16999 0.042,-0.16001 0.054,-0.17099 0.043,-0.171 0.042,-0.16001 0.054,-0.16999 0.042,-0.16001 0.043,-0.16099 0.05299,-0.17 0.04301,-0.16 0.053,-0.16 0.043,-0.16 0.043,-0.16 0.053,-0.16 0.043,-0.16001 0.053,-0.14899 0.042,-0.16001 0.043,-0.15999 0.054,-0.15 0.042,-0.16001 0.053,-0.14899 0.043,-0.149 0.043,-0.16001 0.053,-0.14999 0.043,-0.149 0.042,-0.14901 0.054,-0.15 0.043,-0.14899 0.053,-0.149 0.042,-0.15001 0.043,-0.138 0.054,-0.15 0.042,-0.138 0.054,-0.14999 0.042,-0.138 0.043,-0.15 0.053,-0.138 0.043,-0.139 0.053,-0.139 0.043,-0.138 0.043,-0.139 0.053,-0.139 0.04299,-0.139 0.05301,-0.138 0.042,-0.139 0.043,-0.128 0.054,-0.13901 0.042,-0.12699 0.043,-0.139 0.053,-0.12801 0.043,-0.128 0.053,-0.139 0.043,-0.12799 0.042,-0.128 0.054,-0.128 0.043,-0.12801 0.053,-0.128 0.043,-0.11699 0.042,-0.12801 0.054,-0.128 0.042,-0.11699 0.054,-0.128" /><text
               id="text94"
               style="font-variant:normal;font-weight:normal;font-size:10.20160007px;font-family:CMMI10;-inkscape-font-specification:CMMI10;writing-mode:lr-tb;fill:#231f20;fill-opacity:1;fill-rule:nonzero;stroke:none"
               transform="matrix(1,0,0,-1,6.7051001,226.3649)"><tspan
                 id="tspan92"
                 y="0"
                 x="0">f</tspan></text>
</g><g
             id="g96"><g
               clip-path="url(#clipPath102)"
               id="g98"><text
                 id="text106"
                 style="font-variant:normal;font-weight:normal;font-size:10.20160007px;font-family:CMR10;-inkscape-font-specification:CMR10;writing-mode:lr-tb;fill:#231f20;fill-opacity:1;fill-rule:nonzero;stroke:none"
                 transform="matrix(1,0,0,-1,12.7983,226.3649)"><tspan
                   id="tspan104"
                   y="0"
                   x="0">(</tspan></text>
</g></g><g
             id="g108"><text
               id="text112"
               style="font-variant:normal;font-weight:normal;font-size:10.20160007px;font-family:CMMI10;-inkscape-font-specification:CMMI10;writing-mode:lr-tb;fill:#231f20;fill-opacity:1;fill-rule:nonzero;stroke:none"
               transform="matrix(1,0,0,-1,16.7656,226.3649)"><tspan
                 id="tspan110"
                 y="0"
                 x="0">x</tspan></text>
</g><g
             id="g114"><g
               clip-path="url(#clipPath120)"
               id="g116"><text
                 id="text124"
                 style="font-variant:normal;font-weight:normal;font-size:10.20160007px;font-family:CMR10;-inkscape-font-specification:CMR10;writing-mode:lr-tb;fill:#231f20;fill-opacity:1;fill-rule:nonzero;stroke:none"
                 transform="matrix(1,0,0,-1,22.595699,226.3649)"><tspan
                   id="tspan122"
                   y="0"
                   x="0">)</tspan></text>
</g></g><g
             id="g126"><path
               id="path128"
               style="fill:#231f20;fill-opacity:1;fill-rule:nonzero;stroke:none"
               d="M 198.09502,173.927 H 316.54303" /><path
               id="path130"
               style="fill:none;stroke:#231f20;stroke-width:0.47999999;stroke-linecap:butt;stroke-linejoin:miter;stroke-miterlimit:4;stroke-dasharray:none;stroke-opacity:1"
               d="M 198.09502,173.927 H 316.54303" /><path
               id="path132"
               style="fill:#231f20;fill-opacity:1;fill-rule:nonzero;stroke:none"
               d="m 316.38998,174.311 -1.40097,2.30501 0.078,0.053 3.76001,-1.49401 c 1.30999,-0.28799 2.61999,-0.57599 3.92999,-0.864 -1.31,-0.289 -2.62,-0.57699 -3.92999,-0.86499 l -3.76001,-1.494 -0.078,0.04 1.40097,2.319" /><path
               id="path134"
               style="fill:#231f20;fill-opacity:1;fill-rule:nonzero;stroke:none"
               d="m 225.29601,164.73999 v 61.21802" /><path
               id="path136"
               style="fill:none;stroke:#231f20;stroke-width:0.47999999;stroke-linecap:butt;stroke-linejoin:miter;stroke-miterlimit:4;stroke-dasharray:none;stroke-opacity:1"
               d="m 225.29601,164.73999 v 61.21802" /><path
               id="path138"
               style="fill:#231f20;fill-opacity:1;fill-rule:nonzero;stroke:none"
               d="m 225.29601,225.30501 -2.30602,-1.40199 -0.052,0.079 1.49302,3.75999 c 0.28799,1.31002 0.57699,2.62001 0.86499,3.93001 0.288,-1.31 0.576,-2.61999 0.865,-3.93001 l 1.493,-3.75999 -0.039,-0.079 -2.319,1.40199" /><text
               id="text142"
               style="font-variant:normal;font-weight:normal;font-size:10.20160007px;font-family:CMMI10;-inkscape-font-specification:CMMI10;writing-mode:lr-tb;fill:#231f20;fill-opacity:1;fill-rule:nonzero;stroke:none"
               transform="matrix(1,0,0,-1,325.186,170.31601)"><tspan
                 id="tspan140"
                 y="0"
                 x="0">x</tspan></text>
<text
               id="text146"
               style="font-variant:normal;font-weight:normal;font-size:10.20160007px;font-family:CMMI10;-inkscape-font-specification:CMMI10;writing-mode:lr-tb;fill:#231f20;fill-opacity:1;fill-rule:nonzero;stroke:none"
               transform="matrix(1,0,0,-1,264.20389,167.74011)"><tspan
                 id="tspan144"
                 y="0"
                 x="0">x</tspan></text>
<text
               id="text150"
               style="font-variant:normal;font-weight:normal;font-size:7.14119959px;font-family:CMR7;-inkscape-font-specification:CMR7;writing-mode:lr-tb;fill:#231f20;fill-opacity:1;fill-rule:nonzero;stroke:none"
               transform="matrix(1,0,0,-1,270.03403,166.2101)"><tspan
                 id="tspan148"
                 y="0"
                 x="0">0</tspan></text>
<path
               id="path152"
               style="fill:none;stroke:#231f20;stroke-width:0.86700004;stroke-linecap:butt;stroke-linejoin:round;stroke-miterlimit:10;stroke-dasharray:none;stroke-opacity:1"
               d="m 279.79202,194.093 0.19199,-0.267 0.19202,-0.26699 0.23999,-0.266 L 280.608,193 l 0.24002,-0.267 0.19199,-0.29399 0.19202,-0.293 0.23999,-0.32001 0.19198,-0.293 0.19202,-0.31999 0.23999,-0.32 0.19201,-0.32 0.24,-0.32 0.384,-0.69301 0.23999,-0.34699 0.19201,-0.37301 0.23999,-0.34699 0.38401,-0.74701 0.23999,-0.37298 0.19198,-0.40001 0.23999,-0.4 0.38404,-0.8 0.23999,-0.427 0.384,-0.853 0.23999,-0.427 0.19199,-0.453 0.24002,-0.45302 0.384,-0.90698 0.23999,-0.48 0.19202,-0.48 0.23999,-0.48001 0.38397,-1.013 0.24002,-0.50699 0.19202,-0.507 0.23999,-0.533 0.384,-1.06701 0.23999,-0.55999 m -30.14398,25.787 h 0.62399 l 0.19299,-0.027 h 2.78302 l 0.19199,-0.026 h 0.43201 l 0.19198,-0.027 h 0.43198 l 0.19205,-0.027 h 0.23999 l 0.19198,-0.027 h 0.19202 l 0.23999,-0.026 0.19202,-0.027 h 0.23999 l 0.19198,-0.026 0.19202,-0.027 0.23999,-0.027 0.19202,-0.026 0.23999,-0.027 0.19198,-0.027 0.19202,-0.027 0.23999,-0.053 0.19199,-0.027 0.23999,-0.026 0.19201,-0.054 0.19202,-0.026 0.23999,-0.054 0.19202,-0.053 0.19198,-0.053 0.23999,-0.027 0.19202,-0.053 0.23999,-0.08 0.19202,-0.054 0.19198,-0.053 0.23999,-0.053 0.19202,-0.08 0.23999,-0.08 0.19201,-0.053 0.19196,-0.081 0.24002,-0.079 0.19202,-0.081 0.23999,-0.079 0.19201,-0.08 0.19199,-0.10697 0.23999,-0.08 0.19202,-0.10701 0.23999,-0.106 0.19198,-0.08 0.19202,-0.107 0.23999,-0.13301 0.19202,-0.10698 0.19198,-0.10701 0.24002,-0.13299 0.19199,-0.107 0.23999,-0.13301 0.384,-0.267 0.24002,-0.15998 0.19199,-0.13301 0.23999,-0.13302 0.19202,-0.16098 0.19198,-0.16 0.24002,-0.15901 0.19196,-0.16 0.24002,-0.18699 0.19202,-0.16 0.19198,-0.187 0.24002,-0.186 0.19199,-0.187 0.19202,-0.18699 0.23999,-0.18602 0.19198,-0.21399 0.23999,-0.18601 0.38404,-0.42698 0.23999,-0.24001 0.19198,-0.21301 0.24002,-0.24001 0.38398,-0.47999 0.23999,-0.23999 0.19201,-0.24001 0.24002,-0.267 m -41.75902,18.26601 0.23902,-0.293 0.19198,-0.267 0.19301,-0.293 0.239,-0.267 0.192,-0.266 0.241,-0.267 0.192,-0.267 0.191,-0.24 0.24101,-0.24 0.19198,-0.24 0.23902,-0.24001 0.19299,-0.23999 0.192,-0.21299 0.239,-0.24001 0.19299,-0.213 0.23899,-0.214 0.19203,-0.18601 0.19299,-0.21399 0.239,-0.186 0.192,-0.187 0.193,-0.186 0.23901,-0.187 0.19197,-0.18699 0.24103,-0.16001 0.192,-0.18602 0.19099,-0.16098 0.241,-0.16 0.192,-0.16 0.239,-0.15999 0.19301,-0.13301 0.19198,-0.133 0.239,-0.16 0.192,-0.13401 0.24001,-0.13299 0.192,-0.133 0.19299,-0.10701 0.23902,-0.13299 0.19198,-0.107 0.24102,-0.10602 0.19098,-0.13398 0.19201,-0.107 0.241,-0.08 0.19101,-0.106 0.19199,-0.107 0.24101,-0.08 0.192,-0.10699 0.239,-0.08 0.19299,-0.079 0.192,-0.081 0.239,-0.079 0.19301,-0.081 0.239,-0.053 0.38398,-0.16 0.24001,-0.053 0.19199,-0.054 0.24101,-0.053 0.19101,-0.08 0.19198,-0.053 0.24102,-0.027 0.19099,-0.053 0.192,-0.053 0.241,-0.054 0.192,-0.026 0.23898,-0.054 0.19303,-0.027 0.192,-0.026 0.239,-0.053 0.19299,-0.027 0.239,-0.027 0.38399,-0.053 0.23999,-0.027 0.19203,-0.027 0.241,-0.026 h 0.19099 l 0.192,-0.027 0.24001,-0.027 h 0.192 l 0.23999,-0.026 H 255.12 l 0.19302,-0.027 h 0.431 l 0.19299,-0.026 h 0.431 l 0.23999,-0.027 h 2.30402" /><path
               id="path154"
               style="fill:none;stroke:#231f20;stroke-width:0.86700004;stroke-linecap:butt;stroke-linejoin:round;stroke-miterlimit:10;stroke-dasharray:none;stroke-opacity:1"
               d="m 230.68901,226.54601 0.192,-0.53299 0.192,-0.50701 0.23999,-0.507 0.19101,-0.506 0.241,-0.507 0.192,-0.48 0.191,-0.47999 0.24101,-0.48001 0.19198,-0.45299 0.24001,-0.45401 0.384,-0.90599 0.24001,-0.427 0.38399,-0.85302 0.24,-0.42698 0.192,-0.40001 0.24001,-0.4 0.38399,-0.8 0.23899,-0.373 0.19201,-0.37399 0.24101,-0.373 0.19198,-0.34701 0.19201,-0.373 0.24,-0.347 0.192,-0.347 0.24001,-0.346 0.19198,-0.32 0.19201,-0.32 0.24,-0.32 0.192,-0.32 0.239,-0.293 0.19301,-0.31999 0.19198,-0.29401" /><path
               id="path156"
               style="fill:none;stroke:#231f20;stroke-width:0.40000001;stroke-linecap:butt;stroke-linejoin:round;stroke-miterlimit:4;stroke-dasharray:none;stroke-opacity:1"
               d="m 246.09502,202.21301 h 31.19999 m -45.83502,16.274 21.52602,-22.585 m 16.03999,11.42599 20.13901,-23.83" /><path
               id="path158"
               style="fill:#231f20;fill-opacity:1;fill-rule:nonzero;stroke:none"
               d="M 198.67,99.914001 H 317.11801" /><path
               id="path160"
               style="fill:none;stroke:#231f20;stroke-width:0.47999999;stroke-linecap:butt;stroke-linejoin:miter;stroke-miterlimit:4;stroke-dasharray:none;stroke-opacity:1"
               d="M 198.67,99.914001 H 317.11801" /><path
               id="path162"
               style="fill:#231f20;fill-opacity:1;fill-rule:nonzero;stroke:none"
               d="m 316.96503,100.298 -1.401,2.306 0.078,0.052 3.75998,-1.49401 c 1.31,-0.28799 2.61999,-0.57599 3.931,-0.864 -1.31101,-0.28801 -2.621,-0.575992 -3.931,-0.864994 l -3.75998,-1.493011 -0.078,0.03901 1.401,2.318995" /><path
               id="path164"
               style="fill:#231f20;fill-opacity:1;fill-rule:nonzero;stroke:none"
               d="M 225.87102,90.728004 V 151.94601" /><path
               id="path166"
               style="fill:none;stroke:#231f20;stroke-width:0.47999999;stroke-linecap:butt;stroke-linejoin:miter;stroke-miterlimit:4;stroke-dasharray:none;stroke-opacity:1"
               d="M 225.87102,90.728004 V 151.94601" /><path
               id="path168"
               style="fill:#231f20;fill-opacity:1;fill-rule:nonzero;stroke:none"
               d="m 225.87102,151.29301 -2.306,-1.402 -0.052,0.079 1.49299,3.759 c 0.288,1.31099 0.577,2.62099 0.86501,3.931 0.28799,-1.31001 0.57599,-2.62001 0.86499,-3.931 l 1.49299,-3.759 -0.039,-0.079 -2.31898,1.402" /><text
               id="text172"
               style="font-variant:normal;font-weight:normal;font-size:10.20160007px;font-family:CMMI10;-inkscape-font-specification:CMMI10;writing-mode:lr-tb;fill:#231f20;fill-opacity:1;fill-rule:nonzero;stroke:none"
               transform="matrix(1,0,0,-1,325.75998,96.304001)"><tspan
                 id="tspan170"
                 y="0"
                 x="0">x</tspan></text>
<text
               id="text176"
               style="font-variant:normal;font-weight:normal;font-size:10.20160007px;font-family:CMMI10;-inkscape-font-specification:CMMI10;writing-mode:lr-tb;fill:#231f20;fill-opacity:1;fill-rule:nonzero;stroke:none"
               transform="matrix(1,0,0,-1,256.17896,89.528099)"><tspan
                 id="tspan174"
                 y="0"
                 x="0">x</tspan></text>
<text
               id="text180"
               style="font-variant:normal;font-weight:normal;font-size:7.14119959px;font-family:CMR7;-inkscape-font-specification:CMR7;writing-mode:lr-tb;fill:#231f20;fill-opacity:1;fill-rule:nonzero;stroke:none"
               transform="matrix(1,0,0,-1,262.009,87.998001)"><tspan
                 id="tspan178"
                 y="0"
                 x="0">0</tspan></text>
<path
               id="path182"
               style="fill:none;stroke:#231f20;stroke-width:0.40000001;stroke-linecap:butt;stroke-linejoin:miter;stroke-miterlimit:4;stroke-dasharray:3, 3, 3, 3, 3, 3;stroke-dashoffset:0;stroke-opacity:1"
               d="M 261.07001,99.928001 V 139.76901 L 260.496,173.94 v 39.84201" /><path
               id="path184"
               style="fill:none;stroke:#231f20;stroke-width:0.347;stroke-linecap:butt;stroke-linejoin:round;stroke-miterlimit:10;stroke-dasharray:none;stroke-opacity:1"
               d="m 267.013,92.996002 0.053,-0.095 0.043,-0.106995 0.053,-0.096 0.043,-0.107003 0.043,-0.106002 0.053,-0.106995 0.042,-0.107002 0.054,-0.106003 0.042,-0.106995 0.043,-0.106003 0.054,-0.107002 0.042,-0.106994 0.043,-0.107003 0.053,-0.116996 0.043,-0.106003 0.053,-0.118004 0.043,-0.106995 0.042,-0.117004 0.054,-0.116997 0.043,-0.118004 0.053,-0.116996 0.042,-0.107003 0.043,-0.127998 0.054,-0.116997 0.042,-0.117004 0.054,-0.117996 0.042,-0.117012 0.043,-0.127991 0.053,-0.116997 0.043,-0.128006 0.053,-0.117996 0.043,-0.127999 0.043,-0.126998 0.053,-0.118004 0.043,-0.127999 0.042,-0.128006 0.053,-0.127998 0.043,-0.127998 0.054,-0.127999 0.042,-0.138 0.043,-0.128006 0.053,-0.12899 0.043,-0.138001 0.053,-0.128006 0.043,-0.139 0.043,-0.127998 0.053,-0.139 0.043,-0.138 0.053,-0.139 0.042,-0.139 0.043,-0.138001 0.054,-0.139 0.042,-0.139 0.043,-0.138 0.053,-0.139 0.043,-0.148995 0.053,-0.139 0.043,-0.149002 0.042,-0.139 0.054,-0.149002 0.043,-0.139 0.053,-0.149002 0.042,-0.149994 0.043,-0.149002 0.0541,-0.149002 0.042,-0.150001 0.054,-0.149002 0.042,-0.148995 0.043,-0.160003 0.053,-0.149994 0.043,-0.149002 0.053,-0.160004 0.043,-0.148994 0.043,-0.160004 0.053,-0.160004 0.043,-0.149994 0.042,-0.160003 0.053,-0.159996 0.043,-0.160004 0.054,-0.159996 0.042,-0.160004 0.043,-0.158996 0.053,-0.171006 0.043,-0.159996 0.053,-0.160003 0.043,-0.170998 0.042,-0.160004 0.054,-0.170997 0.043,-0.169998 0.053,-0.160004 0.043,-0.171005 0.042,-0.159996 0.054,-0.170998 0.042,-0.169998 0.043,-0.170998 0.053,-0.171005 0.043,-0.169998 0.053,-0.181 v -0.02199 m -9.22696,19.765991 0.043,-0.022 0.0539,-0.032 0.042,-0.032 0.043,-0.021 0.053,-0.032 0.043,-0.032 0.053,-0.032 0.043,-0.032 0.042,-0.032 0.054,-0.032 0.043,-0.032 0.042,-0.032 0.054,-0.043 0.042,-0.032 0.053,-0.042 0.043,-0.033 0.043,-0.042 0.053,-0.043 0.043,-0.032 0.053,-0.043 0.043,-0.042 0.043,-0.043 0.053,-0.043 0.042,-0.042 0.054,-0.043 0.043,-0.053 0.042,-0.043 0.053,-0.043 0.043,-0.053 0.043,-0.04201 0.053,-0.05399 0.043,-0.053 0.053,-0.04301 0.086,-0.105988 0.053,-0.05401 0.042,-0.05299 0.054,-0.053 0.043,-0.05401 0.042,-0.06399 0.054,-0.053 0.042,-0.054 0.053,-0.064 0.043,-0.05299 0.043,-0.064 0.053,-0.064 0.043,-0.05299 0.053,-0.064 0.086,-0.127998 0.053,-0.064 0.042,-0.064 0.043,-0.06399 0.054,-0.07501 0.042,-0.06399 0.053,-0.064 0.043,-0.075 0.043,-0.064 0.053,-0.074 0.043,-0.064 0.053,-0.075 0.043,-0.075 0.043,-0.074 0.053,-0.075 0.042,-0.074 0.054,-0.075 0.043,-0.075 0.042,-0.07401 0.054,-0.07499 0.042,-0.086 0.043,-0.074 0.053,-0.086 0.043,-0.074 0.053,-0.08501 0.043,-0.08599 0.043,-0.07401 0.053,-0.08599 0.043,-0.085 0.053,-0.085 0.042,-0.086 0.043,-0.08501 0.054,-0.09599 0.042,-0.08501 0.053,-0.086 0.043,-0.09601 0.043,-0.08599 0.053,-0.095 0.043,-0.086 0.053,-0.096 0.086,-0.192001 0.053,-0.095 0.042,-0.09699 0.043,-0.095 0.054,-0.097 0.042,-0.096 0.054,-0.095 0.042,-0.097 0.043,-0.107002" /><path
               id="path186"
               style="fill:none;stroke:#231f20;stroke-width:0.347;stroke-linecap:butt;stroke-linejoin:round;stroke-miterlimit:10;stroke-dasharray:none;stroke-opacity:1"
               d="m 257.74402,98.202003 0.053,0.053 0.042,0.043 0.043,0.043 0.054,0.053 0.042,0.043 0.053,0.042 0.043,0.043 0.043,0.043 0.053,0.042 0.043,0.043 0.042,0.032 0.054,0.043 0.042,0.042 0.054,0.033 0.042,0.042 0.043,0.032 0.053,0.043 0.043,0.032 0.053,0.032 0.086,0.064 0.053,0.032 0.043,0.032 0.053,0.032 0.043,0.032 0.042,0.021 0.054,0.032 0.042,0.032 0.043,0.022 0.053,0.03101 0.043,0.022 0.054,0.021 0.042,0.021 0.043,0.033 0.053,0.021 0.043,0.02099 0.053,0.02201 0.043,0.021 0.042,0.01 0.054,0.022 0.043,0.021 0.053,0.011 0.042,0.021 0.043,0.011 0.053,0.021 0.043,0.011 0.043,0.011 0.053,0.01 0.043,0.011 0.053,0.01 0.043,0.011 0.042,0.011 0.054,0.011 0.043,0.01 h 0.053 l 0.042,0.011 0.043,0.01 h 0.096 l 0.054,0.011 h 0.37301 l 0.043,-0.011 h 0.095 l 0.043,-0.01 0.054,-0.011 h 0.042 l 0.043,-0.01 0.053,-0.011 0.043,-0.011 0.053,-0.011 0.043,-0.01 0.042,-0.011 0.054,-0.01 0.043,-0.011 0.053,-0.011 0.042,-0.021 0.043,-0.011 0.053,-0.021 0.043,-0.011 0.043,-0.021 0.053,-0.022 0.043,-0.01 0.053,-0.021 0.043,-0.02201 0.042,-0.02099 0.054,-0.021 0.042,-0.033 0.054,-0.021 0.043,-0.021 0.042,-0.022 0.053,-0.03101 m -9.26902,-9.514992 0.043,0.116997 0.042,0.127991 0.054,0.117012 0.042,0.116996 0.043,0.118004 0.053,0.116997 0.043,0.127998 0.053,0.107003 0.043,0.116996 0.043,0.118004 0.053,0.116997 0.042,0.117004 0.054,0.106995 0.043,0.118004 0.042,0.106003 0.054,0.116996 0.042,0.107003 0.054,0.106994 0.043,0.107002 0.042,0.106003 0.053,0.105995 0.043,0.107003 0.053,0.107002 0.043,0.106995 0.043,0.106002 0.053,0.107003 0.043,0.096 0.043,0.106995 0.053,0.095 0.042,0.107002 0.054,0.097 0.042,0.095 0.043,0.096 0.053,0.097 0.043,0.095 0.053,0.09699 0.043,0.095 0.043,0.096 0.053,0.096 0.043,0.096 0.053,0.086 0.043,0.095 0.042,0.08599 0.054,0.09601 0.042,0.086 0.043,0.08501 0.054,0.09599 0.042,0.08501 0.053,0.086 0.043,0.085 0.043,0.085 0.053,0.08599 0.043,0.07401 0.053,0.08599 0.043,0.08501 0.043,0.074 0.053,0.086 0.042,0.074 0.053,0.086 0.043,0.074 0.043,0.075 0.054,0.075 0.042,0.074 0.053,0.075 0.043,0.075 0.043,0.074 0.053,0.075 0.042,0.075 0.043,0.064 0.054,0.074 0.042,0.064 0.054,0.075 0.042,0.064 0.043,0.06399 0.054,0.07501 0.042,0.06399 0.053,0.064 0.043,0.064 0.043,0.064 0.053,0.064 0.043,0.064 0.053,0.05299 0.086,0.128006 0.053,0.05299 0.042,0.064 0.043,0.054 0.053,0.053 0.043,0.06399 0.053,0.05401 0.086,0.105995 0.053,0.05401 0.043,0.053 0.053,0.05299 0.043,0.04301 0.042,0.053 0.054,0.05399 0.043,0.04201" /><path
               id="path188"
               style="fill:none;stroke:#231f20;stroke-width:0.347;stroke-linecap:butt;stroke-linejoin:round;stroke-miterlimit:10;stroke-dasharray:none;stroke-opacity:1"
               d="m 249.87102,79.514008 0.011,0.021 0.043,0.181999 0.042,0.169998 0.054,0.171005 0.042,0.170998 0.054,0.169998 0.042,0.170998 0.043,0.159996 0.053,0.171005 0.043,0.158997 0.053,0.171005 0.043,0.170997 0.043,0.160004 0.053,0.170998 0.043,0.159004 0.042,0.160995 0.054,0.171006 0.042,0.158996 0.054,0.160004 0.042,0.159996 0.043,0.160004 0.053,0.159996 0.043,0.160003 0.053,0.148995 0.043,0.161003 0.043,0.160004 0.053,0.148994 0.043,0.160004 0.053,0.149002 0.043,0.149994 0.042,0.160003 0.054,0.148995 0.043,0.149002 0.042,0.150001 0.053,0.149002 0.043,0.149002 0.053,0.149994 0.043,0.149002 0.043,0.139 0.053,0.149002 0.043,0.138001 0.053,0.150001 0.043,0.139 0.042,0.148995 0.054,0.139 0.042,0.138 0.054,0.139 0.042,0.139 0.043,0.138001 0.053,0.139 0.043,0.139 0.054,0.138 0.042,0.139 0.043,0.127998 0.053,0.139 0.043,0.128006 0.042,0.138001 0.054,0.12899 0.042,0.128006 0.054,0.138 0.043,0.127999 0.042,0.127998 0.053,0.127998 0.043,0.128006 0.053,0.127999 0.043,0.118004 0.042,0.126998 0.054,0.127999 0.043,0.117996 0.053,0.128006" /><text
               id="text192"
               style="font-variant:normal;font-weight:normal;font-size:10.20160007px;font-family:CMMI10;-inkscape-font-specification:CMMI10;writing-mode:lr-tb;fill:#231f20;fill-opacity:1;fill-rule:nonzero;stroke:none"
               transform="matrix(1,0,0,-1,202.00201,225.94029)"><tspan
                 id="tspan190"
                 y="0"
                 x="0">f</tspan></text>
<text
               id="text196"
               style="font-variant:normal;font-weight:normal;font-size:10.20160007px;font-family:CMR10;-inkscape-font-specification:CMR10;writing-mode:lr-tb;fill:#231f20;fill-opacity:1;fill-rule:nonzero;stroke:none"
               transform="matrix(1,0,0,-1,208.09543,225.94029)"><tspan
                 id="tspan194"
                 y="0"
                 x="0">(</tspan></text>
<text
               id="text200"
               style="font-variant:normal;font-weight:normal;font-size:10.20160007px;font-family:CMMI10;-inkscape-font-specification:CMMI10;writing-mode:lr-tb;fill:#231f20;fill-opacity:1;fill-rule:nonzero;stroke:none"
               transform="matrix(1,0,0,-1,212.06284,225.94029)"><tspan
                 id="tspan198"
                 y="0"
                 x="0">x</tspan></text>
<text
               id="text204"
               style="font-variant:normal;font-weight:normal;font-size:10.20160007px;font-family:CMR10;-inkscape-font-specification:CMR10;writing-mode:lr-tb;fill:#231f20;fill-opacity:1;fill-rule:nonzero;stroke:none"
               transform="matrix(1,0,0,-1,217.89407,225.94029)"><tspan
                 id="tspan202"
                 y="0"
                 x="0">)</tspan></text>
<text
               id="text208"
               style="font-variant:normal;font-weight:normal;font-size:11.95500088px;font-family:CMSS12;-inkscape-font-specification:CMSS12;writing-mode:lr-tb;fill:#231f20;fill-opacity:1;fill-rule:nonzero;stroke:none"
               transform="matrix(1,0,0,-1,0.53420001,44.18)"><tspan
                 id="tspan206"
                 y="0"
                 x="0 4.2201152">to</tspan></text>
<text
               id="text212"
               style="font-variant:normal;font-weight:normal;font-size:11.95500088px;font-family:CMSS12;-inkscape-font-specification:CMSS12;writing-mode:lr-tb;fill:#231f20;fill-opacity:1;fill-rule:nonzero;stroke:none"
               transform="matrix(1,0,0,-1,14.515574,44.18)"><tspan
                 id="tspan210"
                 y="0"
                 x="0 4.2201152 10.221526">the</tspan></text>
<text
               id="text216"
               style="font-variant:normal;font-weight:normal;font-size:11.95500088px;font-family:CMSS12;-inkscape-font-specification:CMSS12;writing-mode:lr-tb;fill:#231f20;fill-opacity:1;fill-rule:nonzero;stroke:none"
               transform="matrix(1,0,0,-1,33.852791,44.18)"><tspan
                 id="tspan214"
                 y="0"
                 x="0 2.7496502 7.9500756 11.524621">left</tspan></text>
<text
               id="text220"
               style="font-variant:normal;font-weight:normal;font-size:11.95500088px;font-family:CMSS12;-inkscape-font-specification:CMSS12;writing-mode:lr-tb;fill:#231f20;fill-opacity:1;fill-rule:nonzero;stroke:none"
               transform="matrix(1,0,0,-1,53.513985,44.18)"><tspan
                 id="tspan218"
                 y="0"
                 x="0 5.8459954">of</tspan></text>
<text
               id="text224"
               style="font-variant:normal;font-weight:normal;font-size:11.95500088px;font-family:CMMI12;-inkscape-font-specification:CMMI12;writing-mode:lr-tb;fill:#231f20;fill-opacity:1;fill-rule:nonzero;stroke:none"
               transform="matrix(1,0,0,-1,66.847389,44.18)"><tspan
                 id="tspan222"
                 y="0"
                 x="0">x</tspan></text>
<text
               id="text228"
               style="font-variant:normal;font-weight:normal;font-size:7.96999979px;font-family:CMR8;-inkscape-font-specification:CMR8;writing-mode:lr-tb;fill:#231f20;fill-opacity:1;fill-rule:nonzero;stroke:none"
               transform="matrix(1,0,0,-1,73.499001,42.387001)"><tspan
                 id="tspan226"
                 y="0"
                 x="0">0</tspan></text>
<text
               id="text232"
               style="font-variant:normal;font-weight:normal;font-size:11.95500088px;font-family:CMSS12;-inkscape-font-specification:CMSS12;writing-mode:lr-tb;fill:#231f20;fill-opacity:1;fill-rule:nonzero;stroke:none"
               transform="matrix(1,0,0,-1,0,11.901001)"><tspan
                 id="tspan230"
                 y="0"
                 x="0 4.2201152">to</tspan></text>
<text
               id="text236"
               style="font-variant:normal;font-weight:normal;font-size:11.95500088px;font-family:CMSS12;-inkscape-font-specification:CMSS12;writing-mode:lr-tb;fill:#231f20;fill-opacity:1;fill-rule:nonzero;stroke:none"
               transform="matrix(1,0,0,-1,13.982571,11.901001)"><tspan
                 id="tspan234"
                 y="0"
                 x="0 4.2201152 10.221526">the</tspan></text>
<text
               id="text240"
               style="font-variant:normal;font-weight:normal;font-size:11.95500088px;font-family:CMSS12;-inkscape-font-specification:CMSS12;writing-mode:lr-tb;fill:#231f20;fill-opacity:1;fill-rule:nonzero;stroke:none"
               transform="matrix(1,0,0,-1,33.319786,11.901001)"><tspan
                 id="tspan238"
                 y="0"
                 x="0 3.9690604 6.7187104 12.564706 18.566116">right</tspan></text>
<text
               id="text244"
               style="font-variant:normal;font-weight:normal;font-size:11.95500088px;font-family:CMSS12;-inkscape-font-specification:CMSS12;writing-mode:lr-tb;fill:#231f20;fill-opacity:1;fill-rule:nonzero;stroke:none"
               transform="matrix(1,0,0,-1,60.039215,11.901001)"><tspan
                 id="tspan242"
                 y="0"
                 x="0 5.8459954">of</tspan></text>
<text
               id="text248"
               style="font-variant:normal;font-weight:normal;font-size:11.95500088px;font-family:CMMI12;-inkscape-font-specification:CMMI12;writing-mode:lr-tb;fill:#231f20;fill-opacity:1;fill-rule:nonzero;stroke:none"
               transform="matrix(1,0,0,-1,73.370232,11.901001)"><tspan
                 id="tspan246"
                 y="0"
                 x="0">x</tspan></text>
<text
               id="text252"
               style="font-variant:normal;font-weight:normal;font-size:7.96999979px;font-family:CMR8;-inkscape-font-specification:CMR8;writing-mode:lr-tb;fill:#231f20;fill-opacity:1;fill-rule:nonzero;stroke:none"
               transform="matrix(1,0,0,-1,80.022003,10.108001)"><tspan
                 id="tspan250"
                 y="0"
                 x="0">0</tspan></text>
<text
               id="text256"
               style="font-variant:normal;font-weight:normal;font-size:11.95500088px;font-family:CMMI12;-inkscape-font-specification:CMMI12;writing-mode:lr-tb;fill:#231f20;fill-opacity:1;fill-rule:nonzero;stroke:none"
               transform="matrix(1,0,0,-1,94.109901,51.278004)"><tspan
                 id="tspan254"
                 y="0"
                 x="0">d</tspan></text>
<text
               id="text260"
               style="font-variant:normal;font-weight:normal;font-size:11.95500088px;font-family:CMMI12;-inkscape-font-specification:CMMI12;writing-mode:lr-tb;fill:#231f20;fill-opacity:1;fill-rule:nonzero;stroke:none"
               transform="matrix(1,0,0,-1,98.242744,51.278004)"><tspan
                 id="tspan258"
                 y="0"
                 x="0">f</tspan></text>
<path
               id="path262"
               style="fill:#231f20;fill-opacity:1;fill-rule:nonzero;stroke:none"
               d="M 93.332001,46.417004 H 106.067 V 45.939003 H 93.332001 Z" /><text
               id="text266"
               style="font-variant:normal;font-weight:normal;font-size:11.95500088px;font-family:CMMI12;-inkscape-font-specification:CMMI12;writing-mode:lr-tb;fill:#231f20;fill-opacity:1;fill-rule:nonzero;stroke:none"
               transform="matrix(1,0,0,-1,93.332001,34.989998)"><tspan
                 id="tspan264"
                 y="0"
                 x="0 6.0731406">dx</tspan></text>
<text
               id="text270"
               style="font-variant:normal;font-weight:normal;font-size:11.95500088px;font-family:CMMI12;-inkscape-font-specification:CMMI12;writing-mode:lr-tb;fill:#231f20;fill-opacity:1;fill-rule:nonzero;stroke:none"
               transform="matrix(1,0,0,-1,110.58307,43.191128)"><tspan
                 id="tspan268"
                 y="0"
                 x="0">&gt;</tspan></text>
<text
               id="text274"
               style="font-variant:normal;font-weight:normal;font-size:11.95500088px;font-family:CMR12;-inkscape-font-specification:CMR12;writing-mode:lr-tb;fill:#231f20;fill-opacity:1;fill-rule:nonzero;stroke:none"
               transform="matrix(1,0,0,-1,123.00909,43.191128)"><tspan
                 id="tspan272"
                 y="0"
                 x="0">0</tspan></text>
<text
               id="text278"
               style="font-variant:normal;font-weight:normal;font-size:11.95500088px;font-family:CMMI12;-inkscape-font-specification:CMMI12;writing-mode:lr-tb;fill:#231f20;fill-opacity:1;fill-rule:nonzero;stroke:none"
               transform="matrix(1,0,0,-1,301.60007,52.474186)"><tspan
                 id="tspan276"
                 y="0"
                 x="0">d</tspan></text>
<text
               id="text282"
               style="font-variant:normal;font-weight:normal;font-size:11.95500088px;font-family:CMMI12;-inkscape-font-specification:CMMI12;writing-mode:lr-tb;fill:#231f20;fill-opacity:1;fill-rule:nonzero;stroke:none"
               transform="matrix(1,0,0,-1,305.73172,52.474186)"><tspan
                 id="tspan280"
                 y="0"
                 x="0">f</tspan></text>
<path
               id="path284"
               style="fill:#231f20;fill-opacity:1;fill-rule:nonzero;stroke:none"
               d="m 300.82303,47.614002 h 12.73502 v -0.478001 h -12.73502 z" /><text
               id="text288"
               style="font-variant:normal;font-weight:normal;font-size:11.95500088px;font-family:CMMI12;-inkscape-font-specification:CMMI12;writing-mode:lr-tb;fill:#231f20;fill-opacity:1;fill-rule:nonzero;stroke:none"
               transform="matrix(1,0,0,-1,300.82202,36.185001)"><tspan
                 id="tspan286"
                 y="0"
                 x="0 6.0731406">dx</tspan></text>
<text
               id="text292"
               style="font-variant:normal;font-weight:normal;font-size:11.95500088px;font-family:CMMI12;-inkscape-font-specification:CMMI12;writing-mode:lr-tb;fill:#231f20;fill-opacity:1;fill-rule:nonzero;stroke:none"
               transform="matrix(1,0,0,-1,318.07309,44.387329)"><tspan
                 id="tspan290"
                 y="0"
                 x="0">&lt;</tspan></text>
<text
               id="text296"
               style="font-variant:normal;font-weight:normal;font-size:11.95500088px;font-family:CMR12;-inkscape-font-specification:CMR12;writing-mode:lr-tb;fill:#231f20;fill-opacity:1;fill-rule:nonzero;stroke:none"
               transform="matrix(1,0,0,-1,330.49911,44.387329)"><tspan
                 id="tspan294"
                 y="0"
                 x="0">0</tspan></text>
<text
               id="text300"
               style="font-variant:normal;font-weight:normal;font-size:11.95500088px;font-family:CMMI12;-inkscape-font-specification:CMMI12;writing-mode:lr-tb;fill:#231f20;fill-opacity:1;fill-rule:nonzero;stroke:none"
               transform="matrix(1,0,0,-1,94.110504,19.278242)"><tspan
                 id="tspan298"
                 y="0"
                 x="0">d</tspan></text>
<text
               id="text304"
               style="font-variant:normal;font-weight:normal;font-size:11.95500088px;font-family:CMMI12;-inkscape-font-specification:CMMI12;writing-mode:lr-tb;fill:#231f20;fill-opacity:1;fill-rule:nonzero;stroke:none"
               transform="matrix(1,0,0,-1,98.243347,19.278242)"><tspan
                 id="tspan302"
                 y="0"
                 x="0">f</tspan></text>
<path
               id="path306"
               style="fill:#231f20;fill-opacity:1;fill-rule:nonzero;stroke:none"
               d="M 93.332001,14.417001 H 106.067 v -0.478 H 93.332001 Z" /><text
               id="text310"
               style="font-variant:normal;font-weight:normal;font-size:11.95500088px;font-family:CMMI12;-inkscape-font-specification:CMMI12;writing-mode:lr-tb;fill:#231f20;fill-opacity:1;fill-rule:nonzero;stroke:none"
               transform="matrix(1,0,0,-1,93.332001,2.99)"><tspan
                 id="tspan308"
                 y="0"
                 x="0 6.0731406">dx</tspan></text>
<text
               id="text314"
               style="font-variant:normal;font-weight:normal;font-size:11.95500088px;font-family:CMMI12;-inkscape-font-specification:CMMI12;writing-mode:lr-tb;fill:#231f20;fill-opacity:1;fill-rule:nonzero;stroke:none"
               transform="matrix(1,0,0,-1,110.58307,11.191132)"><tspan
                 id="tspan312"
                 y="0"
                 x="0">&gt;</tspan></text>
<text
               id="text318"
               style="font-variant:normal;font-weight:normal;font-size:11.95500088px;font-family:CMR12;-inkscape-font-specification:CMR12;writing-mode:lr-tb;fill:#231f20;fill-opacity:1;fill-rule:nonzero;stroke:none"
               transform="matrix(1,0,0,-1,123.00909,11.191132)"><tspan
                 id="tspan316"
                 y="0"
                 x="0">0</tspan></text>
<text
               id="text322"
               style="font-variant:normal;font-weight:normal;font-size:11.95500088px;font-family:CMSS12;-inkscape-font-specification:CMSS12;writing-mode:lr-tb;fill:#231f20;fill-opacity:1;fill-rule:nonzero;stroke:none"
               transform="matrix(1,0,0,-1,206.53391,44.17976)"><tspan
                 id="tspan320"
                 y="0"
                 x="0 4.2201152">to</tspan></text>
<text
               id="text326"
               style="font-variant:normal;font-weight:normal;font-size:11.95500088px;font-family:CMSS12;-inkscape-font-specification:CMSS12;writing-mode:lr-tb;fill:#231f20;fill-opacity:1;fill-rule:nonzero;stroke:none"
               transform="matrix(1,0,0,-1,220.51648,44.17976)"><tspan
                 id="tspan324"
                 y="0"
                 x="0 4.2201152 10.221526">the</tspan></text>
<text
               id="text330"
               style="font-variant:normal;font-weight:normal;font-size:11.95500088px;font-family:CMSS12;-inkscape-font-specification:CMSS12;writing-mode:lr-tb;fill:#231f20;fill-opacity:1;fill-rule:nonzero;stroke:none"
               transform="matrix(1,0,0,-1,239.85489,44.17976)"><tspan
                 id="tspan328"
                 y="0"
                 x="0 2.7496502 7.9500756 11.524621">left</tspan></text>
<text
               id="text334"
               style="font-variant:normal;font-weight:normal;font-size:11.95500088px;font-family:CMSS12;-inkscape-font-specification:CMSS12;writing-mode:lr-tb;fill:#231f20;fill-opacity:1;fill-rule:nonzero;stroke:none"
               transform="matrix(1,0,0,-1,259.51608,44.17976)"><tspan
                 id="tspan332"
                 y="0"
                 x="0 5.8459954">of</tspan></text>
<text
               id="text338"
               style="font-variant:normal;font-weight:normal;font-size:11.95500088px;font-family:CMMI12;-inkscape-font-specification:CMMI12;writing-mode:lr-tb;fill:#231f20;fill-opacity:1;fill-rule:nonzero;stroke:none"
               transform="matrix(1,0,0,-1,272.84711,44.17976)"><tspan
                 id="tspan336"
                 y="0"
                 x="0">x</tspan></text>
<text
               id="text342"
               style="font-variant:normal;font-weight:normal;font-size:7.96999979px;font-family:CMR8;-inkscape-font-specification:CMR8;writing-mode:lr-tb;fill:#231f20;fill-opacity:1;fill-rule:nonzero;stroke:none"
               transform="matrix(1,0,0,-1,279.49902,42.387001)"><tspan
                 id="tspan340"
                 y="0"
                 x="0">0</tspan></text>
<text
               id="text346"
               style="font-variant:normal;font-weight:normal;font-size:11.95500088px;font-family:CMSS12;-inkscape-font-specification:CMSS12;writing-mode:lr-tb;fill:#231f20;fill-opacity:1;fill-rule:nonzero;stroke:none"
               transform="matrix(1,0,0,-1,206,11.901001)"><tspan
                 id="tspan344"
                 y="0"
                 x="0 4.2201152">to</tspan></text>
<text
               id="text350"
               style="font-variant:normal;font-weight:normal;font-size:11.95500088px;font-family:CMSS12;-inkscape-font-specification:CMSS12;writing-mode:lr-tb;fill:#231f20;fill-opacity:1;fill-rule:nonzero;stroke:none"
               transform="matrix(1,0,0,-1,219.98257,11.901001)"><tspan
                 id="tspan348"
                 y="0"
                 x="0 4.2201152 10.221526">the</tspan></text>
<text
               id="text354"
               style="font-variant:normal;font-weight:normal;font-size:11.95500088px;font-family:CMSS12;-inkscape-font-specification:CMSS12;writing-mode:lr-tb;fill:#231f20;fill-opacity:1;fill-rule:nonzero;stroke:none"
               transform="matrix(1,0,0,-1,239.31979,11.901001)"><tspan
                 id="tspan352"
                 y="0"
                 x="0 3.9690604 6.7187104 12.564706 18.566116">right</tspan></text>
<text
               id="text358"
               style="font-variant:normal;font-weight:normal;font-size:11.95500088px;font-family:CMSS12;-inkscape-font-specification:CMSS12;writing-mode:lr-tb;fill:#231f20;fill-opacity:1;fill-rule:nonzero;stroke:none"
               transform="matrix(1,0,0,-1,266.03922,11.901001)"><tspan
                 id="tspan356"
                 y="0"
                 x="0 5.8459954">of</tspan></text>
<text
               id="text362"
               style="font-variant:normal;font-weight:normal;font-size:11.95500088px;font-family:CMMI12;-inkscape-font-specification:CMMI12;writing-mode:lr-tb;fill:#231f20;fill-opacity:1;fill-rule:nonzero;stroke:none"
               transform="matrix(1,0,0,-1,279.37024,11.901001)"><tspan
                 id="tspan360"
                 y="0"
                 x="0">x</tspan></text>
<text
               id="text366"
               style="font-variant:normal;font-weight:normal;font-size:7.96999979px;font-family:CMR8;-inkscape-font-specification:CMR8;writing-mode:lr-tb;fill:#231f20;fill-opacity:1;fill-rule:nonzero;stroke:none"
               transform="matrix(1,0,0,-1,286.022,10.108001)"><tspan
                 id="tspan364"
                 y="0"
                 x="0">0</tspan></text>
<text
               id="text370"
               style="font-variant:normal;font-weight:normal;font-size:11.95500088px;font-family:CMMI12;-inkscape-font-specification:CMMI12;writing-mode:lr-tb;fill:#231f20;fill-opacity:1;fill-rule:nonzero;stroke:none"
               transform="matrix(1,0,0,-1,302.60001,20.474001)"><tspan
                 id="tspan368"
                 y="0"
                 x="0">d</tspan></text>
<text
               id="text374"
               style="font-variant:normal;font-weight:normal;font-size:11.95500088px;font-family:CMMI12;-inkscape-font-specification:CMMI12;writing-mode:lr-tb;fill:#231f20;fill-opacity:1;fill-rule:nonzero;stroke:none"
               transform="matrix(1,0,0,-1,306.73166,20.474001)"><tspan
                 id="tspan372"
                 y="0"
                 x="0">f</tspan></text>
<path
               id="path376"
               style="fill:#231f20;fill-opacity:1;fill-rule:nonzero;stroke:none"
               d="m 301.82303,15.614 h 12.73502 v -0.478 h -12.73502 z" /><text
               id="text380"
               style="font-variant:normal;font-weight:normal;font-size:11.95500088px;font-family:CMMI12;-inkscape-font-specification:CMMI12;writing-mode:lr-tb;fill:#231f20;fill-opacity:1;fill-rule:nonzero;stroke:none"
               transform="matrix(1,0,0,-1,301.82202,4.1850004)"><tspan
                 id="tspan378"
                 y="0"
                 x="0 6.0731406">dx</tspan></text>
<text
               id="text384"
               style="font-variant:normal;font-weight:normal;font-size:11.95500088px;font-family:CMMI12;-inkscape-font-specification:CMMI12;writing-mode:lr-tb;fill:#231f20;fill-opacity:1;fill-rule:nonzero;stroke:none"
               transform="matrix(1,0,0,-1,319.07309,12.387326)"><tspan
                 id="tspan382"
                 y="0"
                 x="0">&lt;</tspan></text>
<text
               id="text388"
               style="font-variant:normal;font-weight:normal;font-size:11.95500088px;font-family:CMR12;-inkscape-font-specification:CMR12;writing-mode:lr-tb;fill:#231f20;fill-opacity:1;fill-rule:nonzero;stroke:none"
               transform="matrix(1,0,0,-1,331.49911,12.387326)"><tspan
                 id="tspan386"
                 y="0"
                 x="0">0</tspan></text>
<text
               id="text392"
               style="font-variant:normal;font-weight:normal;font-size:11.95500088px;font-family:CMMI12;-inkscape-font-specification:CMMI12;writing-mode:lr-tb;fill:#231f20;fill-opacity:1;fill-rule:nonzero;stroke:none"
               transform="matrix(1,0,0,-1,12.600661,150.47476)"><tspan
                 id="tspan390"
                 y="0"
                 x="0">d</tspan></text>
<text
               id="text396"
               style="font-variant:normal;font-weight:normal;font-size:11.95500088px;font-family:CMMI12;-inkscape-font-specification:CMMI12;writing-mode:lr-tb;fill:#231f20;fill-opacity:1;fill-rule:nonzero;stroke:none"
               transform="matrix(1,0,0,-1,16.733505,150.47476)"><tspan
                 id="tspan394"
                 y="0"
                 x="0">f</tspan></text>
<path
               id="path398"
               style="fill:#231f20;fill-opacity:1;fill-rule:nonzero;stroke:none"
               d="m 11.822001,145.61401 h 12.735001 v -0.478 H 11.822001 Z" /><text
               id="text402"
               style="font-variant:normal;font-weight:normal;font-size:11.95500088px;font-family:CMMI12;-inkscape-font-specification:CMMI12;writing-mode:lr-tb;fill:#231f20;fill-opacity:1;fill-rule:nonzero;stroke:none"
               transform="matrix(1,0,0,-1,11.8223,134.18539)"><tspan
                 id="tspan400"
                 y="0"
                 x="0 6.0731406">dx</tspan></text>
<text
               id="text406"
               style="font-variant:normal;font-weight:normal;font-size:11.95500088px;font-family:CMMI12;-inkscape-font-specification:CMMI12;writing-mode:lr-tb;fill:#231f20;fill-opacity:1;fill-rule:nonzero;stroke:none"
               transform="matrix(1,0,0,-1,208.27644,151.72458)"><tspan
                 id="tspan404"
                 y="0"
                 x="0">d</tspan></text>
<text
               id="text410"
               style="font-variant:normal;font-weight:normal;font-size:11.95500088px;font-family:CMMI12;-inkscape-font-specification:CMMI12;writing-mode:lr-tb;fill:#231f20;fill-opacity:1;fill-rule:nonzero;stroke:none"
               transform="matrix(1,0,0,-1,212.4081,151.72458)"><tspan
                 id="tspan408"
                 y="0"
                 x="0">f</tspan></text>
<path
               id="path412"
               style="fill:#231f20;fill-opacity:1;fill-rule:nonzero;stroke:none"
               d="m 207.5,146.86401 h 12.73399 v -0.478 H 207.5 Z" /><text
               id="text416"
               style="font-variant:normal;font-weight:normal;font-size:11.95500088px;font-family:CMMI12;-inkscape-font-specification:CMMI12;writing-mode:lr-tb;fill:#231f20;fill-opacity:1;fill-rule:nonzero;stroke:none"
               transform="matrix(1,0,0,-1,207.49901,135.43539)"><tspan
                 id="tspan414"
                 y="0"
                 x="0 6.0731406">dx</tspan></text>
</g></g></g></g></g></svg>