<?xml version="1.0" encoding="UTF-8" standalone="no"?>
<svg
   xmlns:dc="http://purl.org/dc/elements/1.1/"
   xmlns:cc="http://creativecommons.org/ns#"
   xmlns:rdf="http://www.w3.org/1999/02/22-rdf-syntax-ns#"
   xmlns:svg="http://www.w3.org/2000/svg"
   xmlns="http://www.w3.org/2000/svg"
   viewBox="0 0 292 161.33333"
   height="161.33333"
   width="292"
   xml:space="preserve"
   id="svg2"
   version="1.1"><metadata
     id="metadata8"><rdf:RDF><cc:Work
         rdf:about=""><dc:format>image/svg+xml</dc:format><dc:type
           rdf:resource="http://purl.org/dc/dcmitype/StillImage" /></cc:Work></rdf:RDF></metadata><defs
     id="defs6"><clipPath
       id="clipPath24"
       clipPathUnits="userSpaceOnUse"><path
         id="path22"
         d="M 0,0 H 219 V 121 H 0 Z" /></clipPath></defs><g
     transform="matrix(1.3333333,0,0,-1.3333333,0,161.33333)"
     id="g10"><g
       id="g12" /><g
       id="g14" /><g
       id="g16"><g
         id="g18"><g
           clip-path="url(#clipPath24)"
           id="g20"><g
             id="g26" /><g
             id="g28"><path
               id="path30"
               style="fill:#000000;fill-opacity:1;fill-rule:nonzero;stroke:#000000;stroke-width:0.47999999;stroke-linecap:butt;stroke-linejoin:miter;stroke-miterlimit:4;stroke-dasharray:none;stroke-opacity:1"
               d="M 8.3299999,35.982002 H 202.73" /><path
               id="path32"
               style="fill:#000000;fill-opacity:1;fill-rule:nonzero;stroke:none"
               d="m 202.10802,36.583 -1.57701,2.594002 0.088,0.058 4.23001,-1.680001 c 1.474,-0.323997 2.948,-0.647999 4.422,-0.972 -1.474,-0.324997 -2.948,-0.648998 -4.422,-0.972999 L 200.619,33.93 l -0.088,0.044 1.57701,2.608997" /><path
               id="path34"
               style="fill:#000000;fill-opacity:1;fill-rule:nonzero;stroke:#000000;stroke-width:0.47999999;stroke-linecap:butt;stroke-linejoin:miter;stroke-miterlimit:4;stroke-dasharray:none;stroke-opacity:1"
               d="M 23.578001,0.029 V 109.672" /><path
               id="path36"
               style="fill:#000000;fill-opacity:1;fill-rule:nonzero;stroke:none"
               d="m 23.625002,108.30401 -2.594002,-1.577 -0.059,0.089 1.68,4.22901 c 0.324002,1.47399 0.648001,2.94799 0.973002,4.42199 0.323999,-1.474 0.647999,-2.948 0.972,-4.42199 l 1.681,-4.22901 -0.045,-0.089 -2.608,1.577" /><text
               id="text40"
               style="font-variant:normal;font-weight:normal;font-size:11.47669983px;font-family:CMMI10;-inkscape-font-specification:CMMI10;writing-mode:lr-tb;fill:#000000;fill-opacity:1;fill-rule:nonzero;stroke:none"
               transform="matrix(1,0,0,-1,212.00279,32.088799)"><tspan
                 id="tspan38"
                 y="0"
                 x="0">x</tspan></text>
<text
               id="text44"
               style="font-variant:normal;font-weight:normal;font-size:11.47669983px;font-family:CMMI10;-inkscape-font-specification:CMMI10;writing-mode:lr-tb;fill:#000000;fill-opacity:1;fill-rule:nonzero;stroke:none"
               transform="matrix(1,0,0,-1,28.241322,111.67856)"><tspan
                 id="tspan42"
                 y="0"
                 x="0">y</tspan></text>
<path
               id="path46"
               style="fill:#000000;fill-opacity:1;fill-rule:nonzero;stroke:#000000;stroke-width:0.47999999;stroke-linecap:butt;stroke-linejoin:miter;stroke-miterlimit:4;stroke-dasharray:none;stroke-opacity:1"
               d="" /><path
               id="path48"
               style="fill:#000000;fill-opacity:1;fill-rule:nonzero;stroke:#000000;stroke-width:0.47999999;stroke-linecap:butt;stroke-linejoin:miter;stroke-miterlimit:4;stroke-dasharray:none;stroke-opacity:1"
               d="" /><path
               id="path50"
               style="fill:none;stroke:#000000;stroke-width:0.47999999;stroke-linecap:butt;stroke-linejoin:miter;stroke-miterlimit:4;stroke-dasharray:3, 3, 3, 3, 3, 3;stroke-dashoffset:0;stroke-opacity:1"
               d="M 61.827003,42.916 V 35.716003 M 96.027008,63.166004 V 36.616001 M 183.10201,35.716003 V 15.016001 H 23.578001" /><text
               id="text54"
               style="font-variant:normal;font-weight:normal;font-size:11.47669983px;font-family:CMMI10;-inkscape-font-specification:CMMI10;writing-mode:lr-tb;fill:#000000;fill-opacity:1;fill-rule:nonzero;stroke:none"
               transform="matrix(1,0,0,-1,0.9734,95.115501)"><tspan
                 id="tspan52"
                 y="0"
                 x="0">f</tspan></text>
<text
               id="text58"
               style="font-variant:normal;font-weight:normal;font-size:11.47669983px;font-family:CMR10;-inkscape-font-specification:CMR10;writing-mode:lr-tb;fill:#000000;fill-opacity:1;fill-rule:nonzero;stroke:none"
               transform="matrix(1,0,0,-1,7.8272848,95.115501)"><tspan
                 id="tspan56"
                 y="0"
                 x="0">(</tspan></text>
<text
               id="text62"
               style="font-variant:normal;font-weight:normal;font-size:11.47669983px;font-family:CMMI10;-inkscape-font-specification:CMMI10;writing-mode:lr-tb;fill:#000000;fill-opacity:1;fill-rule:nonzero;stroke:none"
               transform="matrix(1,0,0,-1,12.290573,95.115501)"><tspan
                 id="tspan60"
                 y="0"
                 x="0">a</tspan></text>
<text
               id="text66"
               style="font-variant:normal;font-weight:normal;font-size:11.47669983px;font-family:CMR10;-inkscape-font-specification:CMR10;writing-mode:lr-tb;fill:#000000;fill-opacity:1;fill-rule:nonzero;stroke:none"
               transform="matrix(1,0,0,-1,18.357157,95.115501)"><tspan
                 id="tspan64"
                 y="0"
                 x="0">)</tspan></text>
<text
               id="text70"
               style="font-variant:normal;font-weight:normal;font-size:11.47669983px;font-family:CMMI10;-inkscape-font-specification:CMMI10;writing-mode:lr-tb;fill:#000000;fill-opacity:1;fill-rule:nonzero;stroke:none"
               transform="matrix(1,0,0,-1,1.9098984,13.216626)"><tspan
                 id="tspan68"
                 y="0"
                 x="0">f</tspan></text>
<text
               id="text74"
               style="font-variant:normal;font-weight:normal;font-size:11.47669983px;font-family:CMR10;-inkscape-font-specification:CMR10;writing-mode:lr-tb;fill:#000000;fill-opacity:1;fill-rule:nonzero;stroke:none"
               transform="matrix(1,0,0,-1,8.7649307,13.216626)"><tspan
                 id="tspan72"
                 y="0"
                 x="0">(</tspan></text>
<text
               id="text78"
               style="font-variant:normal;font-weight:normal;font-size:11.47669983px;font-family:CMMI10;-inkscape-font-specification:CMMI10;writing-mode:lr-tb;fill:#000000;fill-opacity:1;fill-rule:nonzero;stroke:none"
               transform="matrix(1,0,0,-1,13.228219,13.216626)"><tspan
                 id="tspan76"
                 y="0"
                 x="0">b</tspan></text>
<text
               id="text82"
               style="font-variant:normal;font-weight:normal;font-size:11.47669983px;font-family:CMR10;-inkscape-font-specification:CMR10;writing-mode:lr-tb;fill:#000000;fill-opacity:1;fill-rule:nonzero;stroke:none"
               transform="matrix(1,0,0,-1,18.154018,13.216626)"><tspan
                 id="tspan80"
                 y="0"
                 x="0">)</tspan></text>
<text
               id="text86"
               style="font-variant:normal;font-weight:normal;font-size:11.47669983px;font-family:CMMI10;-inkscape-font-specification:CMMI10;writing-mode:lr-tb;fill:#000000;fill-opacity:1;fill-rule:nonzero;stroke:none"
               transform="matrix(1,0,0,-1,33.632641,29.417135)"><tspan
                 id="tspan84"
                 y="0"
                 x="0">a</tspan></text>
<text
               id="text90"
               style="font-variant:normal;font-weight:normal;font-size:11.47669983px;font-family:CMMI10;-inkscape-font-specification:CMMI10;writing-mode:lr-tb;fill:#000000;fill-opacity:1;fill-rule:nonzero;stroke:none"
               transform="matrix(1,0,0,-1,180.77426,37.967278)"><tspan
                 id="tspan88"
                 y="0"
                 x="0">b</tspan></text>
<text
               id="text94"
               style="font-variant:normal;font-weight:normal;font-size:11.47669983px;font-family:CMMI10;-inkscape-font-specification:CMMI10;writing-mode:lr-tb;fill:#000000;fill-opacity:1;fill-rule:nonzero;stroke:none"
               transform="matrix(1,0,0,-1,58.126213,28.967251)"><tspan
                 id="tspan92"
                 y="0"
                 x="0">x</tspan></text>
<text
               id="text98"
               style="font-variant:normal;font-weight:normal;font-size:8.03369999px;font-family:CMR7;-inkscape-font-specification:CMR7;writing-mode:lr-tb;fill:#000000;fill-opacity:1;fill-rule:nonzero;stroke:none"
               transform="matrix(1,0,0,-1,64.684006,27.244499)"><tspan
                 id="tspan96"
                 y="0"
                 x="0">0</tspan></text>
<text
               id="text102"
               style="font-variant:normal;font-weight:normal;font-size:11.47669983px;font-family:CMMI10;-inkscape-font-specification:CMMI10;writing-mode:lr-tb;fill:#000000;fill-opacity:1;fill-rule:nonzero;stroke:none"
               transform="matrix(1,0,0,-1,86.708595,29.4161)"><tspan
                 id="tspan100"
                 y="0"
                 x="0">x</tspan></text>
<text
               id="text106"
               style="font-variant:normal;font-weight:normal;font-size:8.03369999px;font-family:CMR7;-inkscape-font-specification:CMR7;writing-mode:lr-tb;fill:#000000;fill-opacity:1;fill-rule:nonzero;stroke:none"
               transform="matrix(1,0,0,-1,93.267799,27.6945)"><tspan
                 id="tspan104"
                 y="0"
                 x="0">1</tspan></text>
<path
               id="path108"
               style="fill:none;stroke:#000000;stroke-width:1;stroke-linecap:butt;stroke-linejoin:round;stroke-miterlimit:4;stroke-dasharray:none;stroke-opacity:1"
               d="m 166.40601,20.686001 0.18,-0.045 0.18,-0.09 0.13499,-0.045 0.18001,-0.09 0.17999,-0.045 0.18001,-0.09 0.17999,-0.045 0.13501,-0.045 0.17999,-0.09 0.18001,-0.045 0.18,-0.09 0.13501,-0.045 0.17999,-0.09 0.18001,-0.045 0.17999,-0.045 0.17999,-0.09 0.13501,-0.045 0.17999,-0.09 0.18001,-0.045 0.17999,-0.045 0.13501,-0.09 0.18,-0.045 0.18,-0.09 0.18,-0.045 0.13499,-0.045 0.18001,-0.09 0.17999,-0.045 0.18001,-0.045 0.17999,-0.09 0.13501,-0.045 0.18,-0.045 0.181,-0.09 0.179,-0.045 0.13501,-0.045 0.17999,-0.045 0.17999,-0.09 0.18001,-0.045 0.13499,-0.045 0.18001,-0.045 0.17999,-0.09 0.18001,-0.045 0.17999,-0.045 0.13501,-0.045 0.18,-0.09 0.18001,-0.045 0.17999,-0.045 0.13499,-0.045 0.18001,-0.045 0.17999,-0.09 0.18001,-0.044 0.17999,-0.046 0.13601,-0.045 0.179,-0.044 0.18,-0.091 0.18,-0.044 0.13499,-0.045 0.54001,-0.135 0.13499,-0.045 0.181,-0.046 0.179,-0.089 0.18001,-0.045 0.18,-0.046 0.13501,-0.044 0.17999,-0.045 0.181,-0.045 0.179,-0.045 0.136,-0.045 0.179,-0.045 0.181,-0.045 0.17999,-0.045 0.13501,-0.045 0.18,-0.09 0.18,-0.045 0.18,-0.045 0.18,-0.045 0.135,-0.045 0.17999,-0.045 0.18001,-0.045 0.17999,-0.045 0.13501,-0.045 0.36,-0.09 0.18,-0.045 0.18,-0.045 0.135,-0.045 0.18001,-0.045 0.17999,-0.045 0.18001,-0.045 h 0.13499 l 0.17999,-0.045 0.18001,-0.045 0.17999,-0.045 0.13501,-0.045 0.36,-0.09 0.18,-0.045 0.18,-0.045 m -33.61601,13.724001 0.181,-0.09 0.134,-0.09 0.18001,-0.09 0.18,-0.135 0.181,-0.09 0.134,-0.09 0.17999,-0.09 0.18001,-0.09 0.17999,-0.134998 0.13501,-0.09 0.17999,-0.09 0.181,-0.09 0.179,-0.09 0.181,-0.135001 0.13401,-0.09 0.181,-0.09 0.179,-0.09 0.17999,-0.09 0.13501,-0.09 0.17999,-0.09 0.181,-0.134998 0.179,-0.09 0.13501,-0.09 0.361,-0.180001 0.179,-0.09 0.18,-0.09 0.135,-0.09 0.17999,-0.09 0.181,-0.09 0.179,-0.09 0.136,-0.09 0.179,-0.09 0.181,-0.09 0.179,-0.09 0.18001,-0.09 0.135,-0.09 0.18001,-0.09 0.17999,-0.09 0.17999,-0.09 0.136,-0.09 0.179,-0.09 0.36,-0.180001 0.13601,-0.09 0.179,-0.09 0.18,-0.09 0.361,-0.18 0.13499,-0.045 0.179,-0.09 0.18001,-0.09 0.17999,-0.09 0.136,-0.09 0.179,-0.09 0.18001,-0.09 0.18,-0.045 0.181,-0.09 0.134,-0.09 0.17999,-0.09 0.36,-0.18 0.13501,-0.045 0.53999,-0.270001 0.13501,-0.045 0.54,-0.27 0.18001,-0.045 0.13499,-0.09 0.17999,-0.09 0.181,-0.045 0.179,-0.09 0.13501,-0.09 0.18,-0.045 0.36,-0.180001 0.13499,-0.045 0.18001,-0.09 0.17999,-0.09 0.181,-0.045 0.179,-0.09 0.136,-0.09 0.179,-0.045 0.181,-0.09 0.179,-0.045 0.13601,-0.09 0.179,-0.09 0.18001,-0.045 0.17999,-0.09 0.17999,-0.045 0.136,-0.09 0.179,-0.045 0.36,-0.18 0.13601,-0.045 0.179,-0.09" /><path
               id="path110"
               style="fill:none;stroke:#000000;stroke-width:1;stroke-linecap:butt;stroke-linejoin:round;stroke-miterlimit:4;stroke-dasharray:none;stroke-opacity:1"
               d="m 132.79201,40.846001 0.17999,-0.134999 0.36,-0.27 0.13501,-0.134998 0.17999,-0.135003 0.18001,-0.09 0.17999,-0.134998 0.18001,-0.135002 0.135,-0.134998 0.53999,-0.404999 0.13501,-0.135002 0.17999,-0.134999 0.18001,-0.09 0.17999,-0.135002 0.13501,-0.134998 0.54,-0.405003 0.18,-0.09 0.135,-0.134998 0.17999,-0.134999 0.18001,-0.135002 0.17999,-0.134998 0.13501,-0.09 0.17999,-0.135002 0.18001,-0.134999 0.17999,-0.135002 0.13501,-0.134998 0.18,-0.09 0.53999,-0.404999 0.13501,-0.09 0.53999,-0.405003 0.13501,-0.09 0.18,-0.134998 0.18,-0.134999 0.18,-0.09 0.18,-0.135002 0.135,-0.134998 0.17999,-0.09 0.18001,-0.135003 0.17999,-0.134998 0.13501,-0.09 0.17999,-0.135002 0.18001,-0.134999 0.18,-0.09 0.13499,-0.134998 0.18001,-0.135002 0.17999,-0.09 0.18001,-0.134999 0.17999,-0.09 0.13501,-0.135002 0.17999,-0.134998 0.18001,-0.09 0.17999,-0.134999 0.13501,-0.09 0.18,-0.135002 0.18,-0.134998 0.18,-0.09 0.13499,-0.135003 0.18001,-0.09 0.17999,-0.134998 0.18001,-0.09 0.17999,-0.134999 0.13501,-0.09 0.18,-0.135002 0.18,-0.09 0.18,-0.135 0.13499,-0.09 0.18001,-0.134999 0.17999,-0.09 0.18001,-0.135 0.17999,-0.09 0.13501,-0.09 0.17999,-0.135001 0.18001,-0.09 0.17999,-0.135 0.13501,-0.09 0.18,-0.09 0.17999,-0.134999 0.18001,-0.09 0.13499,-0.135 0.18001,-0.09 0.17999,-0.09 0.18001,-0.135001 0.17999,-0.09 0.13501,-0.09 0.18,-0.135 0.36,-0.18 0.13499,-0.134999 0.36,-0.18 0.18001,-0.135 m -33.61501,24.84 0.18,-0.09 0.13501,-0.134999 0.18,-0.135002 0.18,-0.134998 0.18,-0.135002 0.18,-0.09 0.13499,-0.134999 0.18,-0.134998 0.18,-0.135002 0.18,-0.134998 0.13501,-0.09 0.54,-0.405002 0.135,-0.134998 0.36,-0.270001 0.18,-0.09 0.18,-0.134998 0.13499,-0.135003 0.18,-0.134998 0.36,-0.27 0.13501,-0.135002 0.18,-0.134999 0.18,-0.134998 0.36,-0.270001 0.13499,-0.135002 0.18,-0.09 0.18,-0.134998 0.18,-0.135002 0.13501,-0.134999 0.54,-0.404998 0.135,-0.135003 0.71999,-0.54 0.135,-0.134999 0.54001,-0.404999 0.135,-0.135002 0.54,-0.404998 0.18,-0.135003 0.13499,-0.134998 0.18,-0.134998 0.36,-0.270001 0.13501,-0.135002 0.18,-0.134998 0.18,-0.135002 0.18,-0.134999 0.135,-0.134998 0.53999,-0.405003 0.18,-0.134998 0.13501,-0.135002 0.18,-0.134998 0.36,-0.270001 0.135,-0.134998 0.36,-0.270001 0.17999,-0.135002 0.13501,-0.134998 0.36,-0.27 0.36,-0.270001 0.135,-0.134998 0.17999,-0.135002 0.18001,-0.134999 0.17999,-0.135002 0.13501,-0.134998 0.36,-0.270001 0.17999,-0.135002 0.18001,-0.134998 0.135,-0.134998 0.53999,-0.405003 0.13501,-0.134998 0.36,-0.270001 0.17999,-0.09 0.13501,-0.134998 0.17999,-0.135002 0.18001,-0.134999 0.18,-0.134002 0.18,-0.134999 0.135,-0.135002" /><path
               id="path112"
               style="fill:none;stroke:#000000;stroke-width:1;stroke-linecap:butt;stroke-linejoin:round;stroke-miterlimit:4;stroke-dasharray:none;stroke-opacity:1"
               d="m 99.222008,62.626003 0.134994,-0.045 0.180001,-0.045 0.18,-0.045 h 0.18 l 0.135007,-0.045 0.18,-0.045 0.18,-0.045 0.18,-0.045 0.135,-0.045 0.17999,-0.045 0.18,-0.09 0.18,-0.045 0.18,-0.045 0.135,-0.045 0.18,-0.045 0.18,-0.045 0.18001,-0.09 0.135,-0.045 0.18,-0.045 0.18,-0.09 0.18,-0.045 0.13499,-0.045 0.18,-0.09 0.18,-0.045 0.18,-0.09 0.18,-0.045 0.13501,-0.09 0.18,-0.045 0.18,-0.09 0.18,-0.045 0.13499,-0.09 0.18,-0.09 0.18,-0.045 0.18,-0.09 0.18,-0.09 0.135,-0.09 0.18001,-0.045 0.18,-0.09 0.18,-0.09 0.135,-0.09 0.18,-0.09 0.18,-0.045 0.18,-0.09 0.13499,-0.09 0.18,-0.09 0.18,-0.09 0.18,-0.09 0.18,-0.09 0.13501,-0.09 0.18,-0.09 0.36,-0.18 0.13499,-0.09 0.18,-0.134998 0.36,-0.180001 0.18,-0.09 0.13501,-0.09 0.18,-0.09 0.18,-0.135002 0.18,-0.09 0.135,-0.09 0.18,-0.09 0.18,-0.134998 0.17999,-0.09 0.135,-0.09 0.18,-0.134999 0.18,-0.09 0.18,-0.09 0.18001,-0.135002 0.135,-0.09 0.18,-0.134999 0.18,-0.09 0.18,-0.09 0.13499,-0.135002 0.18,-0.09 0.18,-0.134998 0.18,-0.09 0.13501,-0.134998 0.18,-0.09 0.18,-0.135002 0.18,-0.09 0.18,-0.134999 0.135,-0.135002 0.17999,-0.09 0.18,-0.134998 0.18,-0.09 0.135,-0.134999 0.18,-0.135002 0.18001,-0.09 0.36,-0.270001 0.135,-0.09 0.18,-0.134998 0.18,-0.135002 0.18,-0.09 0.13499,-0.135002 0.36,-0.27 m -33.614994,4.545002 0.18,0.09 0.180001,0.134998 0.134994,0.09 0.360001,0.27 0.18,0.09 0.135002,0.134998 0.18,0.09 0.180001,0.09 0.18,0.135002 0.18,0.09 0.135002,0.09 0.180001,0.134999 0.359993,0.18 0.135002,0.09 0.18,0.09 0.18,0.134998 0.180001,0.09 0.18,0.09 0.135002,0.09 0.180001,0.09 0.18,0.045 0.18,0.09 0.134995,0.09 0.36,0.180001 0.180001,0.09 0.135002,0.045 0.18,0.09 0.18,0.09 0.180001,0.045 0.18,0.09 0.134994,0.045 0.180001,0.09 0.18,0.045 0.18,0.09 0.135002,0.045 0.180001,0.045 0.18,0.09 0.18,0.045 0.180001,0.045 0.135002,0.045 0.18,0.045 0.18,0.045 0.180001,0.09 0.134994,0.045 0.180001,0.045 h 0.18 l 0.18,0.045 0.135002,0.045 0.180001,0.045 0.18,0.045 0.18,0.045 h 0.180001 l 0.134994,0.045 0.18,0.045 h 0.180001 l 0.18,0.045 0.135002,0.045 h 0.18 l 0.180001,0.045 h 0.315002 l 0.18,0.045 h 0.360001 l 0.179993,0.045 h 0.675003 l 0.135002,0.045 h 0.720001 l 0.134995,-0.045 h 0.675003 l 0.18,-0.045 h 0.495003 l 0.18,-0.045 h 0.18 l 0.179993,-0.045 h 0.18 l 0.135002,-0.045 h 0.180001 l 0.18,-0.045 0.18,-0.045 h 0.135003 l 0.18,-0.045 0.18,-0.045 h 0.18 l 0.180001,-0.045" /><path
               id="path114"
               style="fill:none;stroke:#000000;stroke-width:1;stroke-linecap:butt;stroke-linejoin:round;stroke-miterlimit:4;stroke-dasharray:none;stroke-opacity:1"
               d="m 65.607002,44.356003 0.135002,0.09 0.180001,0.134998 0.18,0.09 0.18,0.09 0.180001,0.09 0.134994,0.135002 0.18,0.09 0.180001,0.134998 0.18,0.09 0.135002,0.134998 0.18,0.135002 0.180001,0.09 0.18,0.134998 0.135002,0.135003 0.180001,0.134998 0.18,0.135002 0.179993,0.134998 0.18,0.09 0.135002,0.134998 0.18,0.18 0.180001,0.135002 0.18,0.134999 0.135002,0.135002 0.18,0.134998 0.180001,0.134998 0.18,0.135003 0.314995,0.314998 0.18,0.135002 0.18,0.180001 0.180001,0.134998 0.135002,0.135002 0.18,0.179997 0.18,0.135002 0.180001,0.18 0.135002,0.134998 0.18,0.180001 0.179993,0.135002 0.18,0.18 0.18,0.134998 0.135003,0.180001 0.18,0.134998 0.18,0.18 0.18,0.135002 0.135003,0.180001 0.18,0.134998 0.18,0.18 0.180001,0.134999 0.18,0.18 0.134994,0.18 0.180001,0.135002 0.18,0.180001 0.18,0.134998 0.135002,0.18 0.180001,0.134999 0.18,0.18 0.18,0.135002 0.134995,0.18 0.18,0.134999 0.18,0.18 0.180001,0.135002 0.18,0.179997 0.135002,0.135002 0.18,0.18 0.180001,0.134998 0.315002,0.315003 0.180001,0.18 0.18,0.134999 0.18,0.18 0.134995,0.134998 0.18,0.135002 0.18,0.180001 0.180001,0.134998 0.18,0.135002 0.135002,0.18 0.18,0.134999 0.180001,0.134998 0.18,0.135002 0.134994,0.134998 0.180001,0.180001 0.18,0.135002 0.360001,0.27 0.135002,0.134999 0.18,0.134998 0.18,0.135002 0.180001,0.134998 0.135002,0.135003 0.18,0.134998 0.359993,0.27 0.135002,0.135002 0.360001,0.269997 0.18,0.09 0.18,0.135002 0.135003,0.134999 0.18,0.135002 M 48.777,61.501003 l 0.181004,-0.540001 0.359997,-0.989998 0.134002,-0.495002 0.361001,-0.989998 0.178997,-0.450001 0.135002,-0.450001 0.18,-0.494999 0.360001,-0.900001 0.18,-0.404999 0.134998,-0.450001 0.540001,-1.215 0.134998,-0.404999 0.180001,-0.405002 0.181,-0.359997 0.179,-0.405003 0.134999,-0.36 0.18,-0.359997 0.18,-0.315002 0.180001,-0.360001 0.18,-0.314999 0.135002,-0.36 0.359997,-0.630001 0.18,-0.269997 0.135002,-0.315002 0.180001,-0.270001 0.18,-0.314998 0.359997,-0.540001 0.135002,-0.224999 0.18,-0.27 0.360001,-0.450001 0.134998,-0.224999 0.540001,-0.675003 0.134998,-0.179996 0.180001,-0.18 0.541,-0.540001 0.133999,-0.180001 0.18,-0.134998 0.18,-0.18 0.180001,-0.135002 0.135002,-0.134999 0.18,-0.135002 0.180001,-0.09 0.180999,-0.134998 0.133999,-0.09 0.18,-0.135003 0.180001,-0.09 0.18,-0.09 0.18,-0.09 0.134999,-0.09 0.18,-0.045 0.18,-0.09 0.180001,-0.045 0.134998,-0.045 0.181,-0.045 0.539001,-0.135002 0.136002,-0.045 h 0.178997 l 0.181,-0.045" /><path
               id="path116"
               style="fill:none;stroke:#000000;stroke-width:1;stroke-linecap:butt;stroke-linejoin:round;stroke-miterlimit:4;stroke-dasharray:none;stroke-opacity:1"
               d="m 61.018002,43.186001 h 0.989002 l 0.18,0.045 h 0.18 l 0.181,0.045 h 0.178997 l 0.135002,0.045 0.180001,0.045 0.18,0.045 0.18,0.045 0.135998,0.045 0.179001,0.045 0.18,0.045 0.18,0.09 0.180001,0.045 0.135002,0.09 0.18,0.045 0.181,0.09 0.179001,0.09 0.134994,0.045 0.180001,0.09 0.18,0.09 0.18,0.09 m -27.359001,52.063995 0.360001,-0.62899 0.18,-0.361008 0.18,-0.403999 0.134999,-0.406006 0.18,-0.403992 0.360001,-0.900001 0.135002,-0.449997 0.359996,-0.989998 0.180001,-0.540001 0.135002,-0.495003 0.360001,-1.080001 0.18,-0.584999 L 41.173,88.636 l 0.135002,-0.584999 0.360001,-1.169999 0.18,-0.629997 0.134999,-0.585007 0.18,-0.629997 0.18,-0.584999 0.180001,-0.629997 L 42.658001,83.191 43.378002,80.671003 43.513,80.041 l 0.360001,-1.259994 0.18,-0.675003 0.135003,-0.629997 0.719997,-2.520005 0.135002,-0.629997 0.540001,-1.889999 0.134998,-0.630005 0.180001,-0.584999 0.18,-0.629998 0.18,-0.584999 0.134999,-0.629997 0.720001,-2.340004 0.134998,-0.584999 0.360001,-1.169998 0.18,-0.540001 0.135002,-0.540001 0.179997,-0.585003 0.36,-1.079998 0.180001,-0.494999 0.135002,-0.540001" /><path
               id="path118"
               style="fill:none;stroke:#000000;stroke-width:0.47999999;stroke-linecap:butt;stroke-linejoin:miter;stroke-miterlimit:4;stroke-dasharray:3, 3, 3, 3, 3, 3;stroke-dashoffset:0;stroke-opacity:1"
               d="M 37.527,36.616001 V 96.916008" /><path
               id="path120"
               style="fill:none;stroke:#000000;stroke-width:0.40000001;stroke-linecap:butt;stroke-linejoin:miter;stroke-miterlimit:4;stroke-dasharray:3, 3, 3, 3, 3;stroke-dashoffset:0;stroke-opacity:1"
               d="M 23.128,96.466003 H 37.077003" /></g></g></g></g></g></svg>