<?xml version="1.0" encoding="UTF-8" standalone="no"?>
<svg
   xmlns:dc="http://purl.org/dc/elements/1.1/"
   xmlns:cc="http://creativecommons.org/ns#"
   xmlns:rdf="http://www.w3.org/1999/02/22-rdf-syntax-ns#"
   xmlns:svg="http://www.w3.org/2000/svg"
   xmlns="http://www.w3.org/2000/svg"
   viewBox="0 0 222.66667 118.66667"
   height="118.66667"
   width="222.66667"
   xml:space="preserve"
   id="svg2"
   version="1.1"><metadata
     id="metadata8"><rdf:RDF><cc:Work
         rdf:about=""><dc:format>image/svg+xml</dc:format><dc:type
           rdf:resource="http://purl.org/dc/dcmitype/StillImage" /></cc:Work></rdf:RDF></metadata><defs
     id="defs6"><clipPath
       id="clipPath24"
       clipPathUnits="userSpaceOnUse"><path
         id="path22"
         d="M 0,0 H 167 V 89 H 0 Z" /></clipPath></defs><g
     transform="matrix(1.3333333,0,0,-1.3333333,0,118.66667)"
     id="g10"><g
       id="g12" /><g
       id="g14" /><g
       id="g16"><g
         id="g18"><g
           clip-path="url(#clipPath24)"
           id="g20"><g
             id="g26" /><g
             id="g28"><path
               id="path30"
               style="fill:#000000;fill-opacity:1;fill-rule:nonzero;stroke:#000000;stroke-width:0.47999999;stroke-linecap:butt;stroke-linejoin:miter;stroke-miterlimit:4;stroke-dasharray:none;stroke-opacity:1"
               d="M 0,12.484 H 148.06" /><path
               id="path32"
               style="fill:#000000;fill-opacity:1;fill-rule:nonzero;stroke:none"
               d="m 147.86801,12.963 -1.752,2.882001 0.098,0.066 4.7,-1.867 c 1.638,-0.361 3.276,-0.721 4.91301,-1.081001 C 154.19,12.603001 152.552,12.242001 150.914,11.882001 l -4.7,-1.867001 -0.098,0.049 1.752,2.899" /><path
               id="path34"
               style="fill:#000000;fill-opacity:1;fill-rule:nonzero;stroke:#000000;stroke-width:0.47999999;stroke-linecap:butt;stroke-linejoin:miter;stroke-miterlimit:4;stroke-dasharray:none;stroke-opacity:1"
               d="M 34.001003,1 V 77.522003" /><path
               id="path36"
               style="fill:#000000;fill-opacity:1;fill-rule:nonzero;stroke:none"
               d="m 34.001003,76.705002 -2.883001,-1.751999 -0.065,0.099 1.866997,4.700005 C 33.28,81.389009 33.64,83.027001 34.001004,84.664002 34.361,83.027 34.721001,81.389008 35.082001,79.752007 l 1.866001,-4.700005 -0.049,-0.099 -2.897999,1.751999" /><text
               id="text40"
               style="font-variant:normal;font-weight:normal;font-size:12.75200081px;font-family:CMMI10;-inkscape-font-specification:CMMI10;writing-mode:lr-tb;fill:#000000;fill-opacity:1;fill-rule:nonzero;stroke:none"
               transform="matrix(1,0,0,-1,158.8627,7.9698)"><tspan
                 id="tspan38"
                 y="0"
                 x="0">x</tspan></text>
<text
               id="text44"
               style="font-variant:normal;font-weight:normal;font-size:12.75200081px;font-family:CMMI10;-inkscape-font-specification:CMMI10;writing-mode:lr-tb;fill:#000000;fill-opacity:1;fill-rule:nonzero;stroke:none"
               transform="matrix(1,0,0,-1,22.681532,78.904076)"><tspan
                 id="tspan42"
                 y="0"
                 x="0">y</tspan></text>
<text
               id="text48"
               style="font-variant:normal;font-weight:normal;font-size:12.75200081px;font-family:CMMI10;-inkscape-font-specification:CMMI10;writing-mode:lr-tb;fill:#000000;fill-opacity:1;fill-rule:nonzero;stroke:none"
               transform="matrix(1,0,0,-1,72.386284,4.4999814)"><tspan
                 id="tspan46"
                 y="0"
                 x="0">x</tspan></text>
<text
               id="text52"
               style="font-variant:normal;font-weight:normal;font-size:8.92640018px;font-family:CMR7;-inkscape-font-specification:CMR7;writing-mode:lr-tb;fill:#000000;fill-opacity:1;fill-rule:nonzero;stroke:none"
               transform="matrix(1,0,0,-1,79.674004,2.5871999)"><tspan
                 id="tspan50"
                 y="0"
                 x="0">0</tspan></text>
<path
               id="path54"
               style="fill:none;stroke:#000000;stroke-width:0.40000001;stroke-linecap:butt;stroke-linejoin:miter;stroke-miterlimit:4;stroke-dasharray:3, 3, 3, 3, 3, 3;stroke-dashoffset:0;stroke-opacity:1"
               d="M 78,12.5 V 62.301003" /><path
               id="path56"
               style="fill:none;stroke:#000000;stroke-width:0.86700004;stroke-linecap:butt;stroke-linejoin:round;stroke-miterlimit:10;stroke-dasharray:none;stroke-opacity:1"
               d="m 102.121,56.400002 0.48001,0.666999 0.3,0.333001 0.24,0.367 0.29999,0.333 0.48001,0.733002 0.3,0.399998 0.24,0.367 L 104.701,60 l 0.30001,0.400002 0.23999,0.399997 0.30001,0.400002 0.47999,0.867 0.30001,0.432999 0.23999,0.466003 0.30001,0.433999 0.47999,0.932998 0.30001,0.467003 0.23999,0.5 0.30001,0.5 0.47999,1 0.30001,0.532997 0.47999,1.067002 0.3,0.533004 0.239,0.566994 0.30101,0.566002 0.47999,1.134003 0.3,0.599998 0.24,0.599999 0.30001,0.599998 0.48,1.266006 0.29999,0.633996 0.24,0.633003 0.30001,0.667 0.47899,1.333 0.3,0.699997 M 76.021004,46 h 0.779999 L 77.041,46.033 h 3.480004 l 0.239998,0.034 h 0.540001 L 81.541,46.1 h 0.540001 l 0.240006,0.033 h 0.299995 l 0.240006,0.034 h 0.239998 l 0.299995,0.033 0.240005,0.033 h 0.299996 l 0.240005,0.034 0.239998,0.033 0.299996,0.03301 0.240005,0.034 0.299996,0.033 0.240005,0.033 0.239998,0.034 0.299995,0.066 0.240006,0.034 0.299995,0.033 0.240006,0.067 0.239998,0.033 0.300003,0.067 0.239998,0.066 0.239997,0.067 0.300003,0.033 0.239998,0.067 0.300003,0.100002 0.239998,0.067 0.239998,0.066 0.300003,0.067 0.239998,0.100003 0.300003,0.1 0.239998,0.067 0.239998,0.100003 0.300003,0.1 0.239998,0.1 0.300003,0.100002 0.239998,0.1 0.239998,0.133 0.300003,0.1 0.239997,0.133003 0.300003,0.133999 0.239998,0.100003 0.239998,0.132995 0.779999,0.433003 0.300003,0.167 0.239998,0.132999 0.300003,0.167 0.480003,0.333 0.299996,0.200001 0.239998,0.167 0.300003,0.166999 0.480003,0.400002 0.299995,0.200001 0.239998,0.199997 0.300003,0.233001 0.239998,0.199997 0.240006,0.233002 0.299995,0.234001 0.480003,0.466 0.299996,0.234001 0.240005,0.265999 0.299996,0.234001 L 99.961006,54 l 0.299994,0.299999 0.24001,0.267002 0.29999,0.300003 0.48001,0.598999 0.29999,0.3 0.24001,0.300998 0.29999,0.333001 m -52.199999,-22.833001 0.3,0.367001 0.241001,0.333 0.240001,0.367001 0.299,0.333 0.240998,0.332996 0.300003,0.334004 0.238998,0.333 0.240002,0.299999 0.300998,0.299999 0.238999,0.3 0.300003,0.300003 0.240997,0.299999 0.240002,0.266998 0.299,0.299 0.241001,0.266998 0.299999,0.267002 0.238998,0.232998 0.240002,0.267002 0.299999,0.232998 0.48,0.467003 L 55.742004,40 l 0.239998,0.234001 0.299,0.199001 0.240002,0.234002 0.239998,0.199997 0.299999,0.2 0.240002,0.200001 0.299999,0.200001 0.479999,0.332996 L 58.381004,42 l 0.239998,0.167004 0.299999,0.166999 0.240002,0.165997 0.239998,0.134003 0.540001,0.298999 0.299999,0.133999 0.240002,0.167 0.240001,0.133 0.3,0.100002 0.479999,0.266998 0.3,0.100002 0.240001,0.133 0.299999,0.1 0.239998,0.100003 0.240002,0.1 0.299999,0.1 0.240002,0.100002 0.299999,0.066 0.240002,0.100002 0.240001,0.1 0.299996,0.067 0.239998,0.067 0.300003,0.066 0.239998,0.1 0.240005,0.067 0.299996,0.033 0.239997,0.067 0.240006,0.067 0.299995,0.066 0.240006,0.034 0.299995,0.066 0.240006,0.034 0.239998,0.033 0.299995,0.067 0.240006,0.033 0.299995,0.033 0.240005,0.034 0.239998,0.033 0.299996,0.033 0.240005,0.034 0.299996,0.033 h 0.240005 l 0.239998,0.03301 0.300003,0.034 h 0.239998 l 0.299995,0.033 h 0.240006 l 0.239998,0.033 h 0.540001 l 0.239998,0.034 h 0.54 l 0.300003,0.033 h 2.879998" /><path
               id="path58"
               style="fill:none;stroke:#000000;stroke-width:0.86700004;stroke-linecap:butt;stroke-linejoin:round;stroke-miterlimit:10;stroke-dasharray:none;stroke-opacity:1"
               d="m 40.742001,15.834001 0.240001,0.667 0.239998,0.633 0.300003,0.632999 0.239998,0.634001 0.299999,0.632999 0.480004,1.200001 0.299999,0.600001 0.239998,0.566999 0.300003,0.566 0.479999,1.132999 0.3,0.534001 0.479999,1.066 0.299999,0.534 0.240002,0.5 0.299999,0.5 0.48,1 0.299999,0.466 0.240002,0.467001 0.299999,0.466999 0.240002,0.433 0.239997,0.467001 0.3,0.432999 0.240001,0.432999 0.3,0.434002 0.479999,0.799999 0.299999,0.399999 0.240002,0.400002 0.299999,0.365997 0.240002,0.400002 0.239998,0.367" /><path
               id="path60"
               style="fill:none;stroke:#000000;stroke-width:0.40000001;stroke-linecap:butt;stroke-linejoin:round;stroke-miterlimit:4;stroke-dasharray:none;stroke-opacity:1"
               d="M 60,46.25 H 99 M 41.706001,25.908001 68.613007,54.139004 M 88.663002,39.856003 113.83701,69.644005" /></g></g></g></g></g></svg>