<?xml version="1.0" encoding="UTF-8" standalone="no"?>
<svg
   xmlns:dc="http://purl.org/dc/elements/1.1/"
   xmlns:cc="http://creativecommons.org/ns#"
   xmlns:rdf="http://www.w3.org/1999/02/22-rdf-syntax-ns#"
   xmlns:svg="http://www.w3.org/2000/svg"
   xmlns="http://www.w3.org/2000/svg"
   viewBox="0 0 188 129.33333"
   height="129.33333"
   width="188"
   xml:space="preserve"
   id="svg2"
   version="1.1"><metadata
     id="metadata8"><rdf:RDF><cc:Work
         rdf:about=""><dc:format>image/svg+xml</dc:format><dc:type
           rdf:resource="http://purl.org/dc/dcmitype/StillImage" /></cc:Work></rdf:RDF></metadata><defs
     id="defs6"><clipPath
       id="clipPath24"
       clipPathUnits="userSpaceOnUse"><path
         id="path22"
         d="M 0,0 H 141 V 97 H 0 Z" /></clipPath></defs><g
     transform="matrix(1.3333333,0,0,-1.3333333,0,129.33333)"
     id="g10"><g
       id="g12" /><g
       id="g14" /><g
       id="g16"><g
         id="g18"><g
           clip-path="url(#clipPath24)"
           id="g20"><g
             id="g26" /><g
             id="g28"><path
               id="path30"
               style="fill:#000000;fill-opacity:1;fill-rule:nonzero;stroke:#000000;stroke-width:1.3440001;stroke-linecap:butt;stroke-linejoin:miter;stroke-miterlimit:4;stroke-dasharray:none;stroke-opacity:1"
               d="M 0.82700002,24.117001 H 126.19401" /><path
               id="path32"
               style="fill:#000000;fill-opacity:1;fill-rule:nonzero;stroke:none"
               d="m 126.51601,24.295002 -1.963,3.227999 0.111,0.073 5.26299,-2.091 c 1.83501,-0.403 3.66901,-0.806999 5.50299,-1.209999 -1.83398,-0.404001 -3.66798,-0.807001 -5.50299,-1.211 l -5.26299,-2.091 -0.111,0.055 1.963,3.247002" /><path
               id="path34"
               style="fill:#000000;fill-opacity:1;fill-rule:nonzero;stroke:#000000;stroke-width:0.67200005;stroke-linecap:butt;stroke-linejoin:miter;stroke-miterlimit:4;stroke-dasharray:none;stroke-opacity:1"
               d="M 66.456001,0.87400001 V 86.578003" /><path
               id="path36"
               style="fill:#000000;fill-opacity:1;fill-rule:nonzero;stroke:none"
               d="m 66.456001,85.664001 -3.227997,-1.962997 -0.073,0.110001 2.090999,5.264 c 0.403,1.833999 0.806999,3.667999 1.209999,5.502998 0.404,-1.834999 0.806999,-3.668999 1.210999,-5.502998 l 2.091003,-5.264 -0.055,-0.110001 -3.247002,1.962997" /><text
               id="text40"
               style="font-variant:normal;font-weight:normal;font-size:11.42579937px;font-family:CMMI10;-inkscape-font-specification:CMMI10;writing-mode:lr-tb;fill:#000000;fill-opacity:1;fill-rule:nonzero;stroke:none"
               transform="matrix(1,0,0,-1,134.2428,15.5701)"><tspan
                 id="tspan38"
                 y="0"
                 x="0">x</tspan></text>
<text
               id="text44"
               style="font-variant:normal;font-weight:normal;font-size:10.20160007px;font-family:CMMI10;-inkscape-font-specification:CMMI10;writing-mode:lr-tb;fill:#000000;fill-opacity:1;fill-rule:nonzero;stroke:none"
               transform="matrix(1,0,0,-1,40.6698,86.751099)"><tspan
                 id="tspan42"
                 y="0"
                 x="0">f</tspan></text>
<text
               id="text48"
               style="font-variant:normal;font-weight:normal;font-size:10.20160007px;font-family:CMR10;-inkscape-font-specification:CMR10;writing-mode:lr-tb;fill:#000000;fill-opacity:1;fill-rule:nonzero;stroke:none"
               transform="matrix(1,0,0,-1,46.762196,86.751099)"><tspan
                 id="tspan46"
                 y="0"
                 x="0">(</tspan></text>
<text
               id="text52"
               style="font-variant:normal;font-weight:normal;font-size:10.20160007px;font-family:CMMI10;-inkscape-font-specification:CMMI10;writing-mode:lr-tb;fill:#000000;fill-opacity:1;fill-rule:nonzero;stroke:none"
               transform="matrix(1,0,0,-1,50.729599,86.751099)"><tspan
                 id="tspan50"
                 y="0"
                 x="0">x</tspan></text>
<text
               id="text56"
               style="font-variant:normal;font-weight:normal;font-size:10.20160007px;font-family:CMR10;-inkscape-font-specification:CMR10;writing-mode:lr-tb;fill:#000000;fill-opacity:1;fill-rule:nonzero;stroke:none"
               transform="matrix(1,0,0,-1,56.559814,86.751099)"><tspan
                 id="tspan54"
                 y="0"
                 x="0">)</tspan></text>
<path
               id="path58"
               style="fill:none;stroke:#000000;stroke-width:0.64999998;stroke-linecap:butt;stroke-linejoin:round;stroke-miterlimit:10;stroke-dasharray:none;stroke-opacity:1"
               d="m 72.987007,25.217001 0.179993,0.08 0.18,0.1 0.160004,0.100001 0.18,0.1 0.159996,0.119999 0.18,0.1 0.180001,0.120001 0.160003,0.14 0.180001,0.119999 0.18,0.140001 0.159996,0.139999 0.18,0.16 0.180001,0.16 0.160003,0.16 0.180001,0.16 0.159996,0.18 0.36,0.36 0.160004,0.200001 0.18,0.199999 0.180001,0.219999 0.159996,0.200001 0.18,0.24 0.18,0.220001 0.160004,0.24 0.18,0.26 0.159996,0.24 0.18,0.279999 0.180001,0.26 0.160003,0.280001 0.179993,0.299999 0.18,0.280001 0.160004,0.319999 0.360001,0.640002 0.339996,0.68 0.18,0.34 0.160004,0.359997 0.18,0.380001 0.159996,0.380001 0.180001,0.380001 0.180999,0.399998 0.159005,0.420002 0.361,0.84 0.159996,0.459999 0.18,0.439999 0.18,0.460002 0.160004,0.48 0.179001,0.48 0.159996,0.5 0.181,0.52 0.179,0.5 0.161004,0.539997 0.18,0.540001 0.18,0.560001 0.159996,0.560002 0.180001,0.579998 0.179,0.599998 0.159996,0.600003 0.181,0.599998 0.159004,0.639999 0.360001,1.280003 0.159996,0.681 0.360001,1.359001 0.161003,0.720997 0.18,0.700001 0.18,0.740001 0.159996,0.739998 0.180001,0.760002 0.18,0.779999 0.160004,0.779999 0.18,0.820003 0.159996,0.8 0.360001,1.68 0.160003,0.86 0.360001,1.759999 0.159996,0.920002 0.360001,1.839996 0.160003,0.960003 0.180001,0.959995 0.159996,0.980004 0.18,1 0.18,1.020004 0.160004,1.039993 0.179992,1.040001 0.180001,1.060005 0.160003,1.079994 0.360001,2.200005 0.159996,1.119995 0.18,1.140007 v 0.06 m -34.041,-57.041004 0.18,0.239999 0.16,0.220002 0.18,0.239999 0.180001,0.199999 0.16,0.220001 0.18,0.199999 0.16,0.200001 0.36,0.360001 0.16,0.18 0.360001,0.32 0.16,0.159999 0.18,0.16 0.18,0.14 0.16,0.139999 0.18,0.120001 0.180001,0.139999 0.16,0.120001 0.18,0.100001 0.16,0.119999 0.18,0.1 0.18,0.1 0.16,0.100001 0.180001,0.08 0.179996,0.08 0.160004,0.08 0.179996,0.08 0.18,0.08 0.16,0.06 0.180001,0.06 0.159999,0.06 0.180001,0.06 0.18,0.04 0.16,0.06 0.18,0.04 0.180001,0.04 0.159999,0.04 0.180001,0.04 0.18,0.02 0.16,0.04 0.18,0.02 0.16,0.02 0.18,0.02 0.180001,0.02 0.159999,0.02 0.180001,0.02 0.18,0.02 H 64.347 l 0.18,0.02 h 0.340004 l 0.180001,0.02 h 1.559997 l 0.160004,0.02 h 1.379997 l 0.18,0.02 H 68.667 l 0.18,0.02 h 0.18 l 0.160004,0.02 0.18,0.02 0.159996,0.02 0.180001,0.02 0.18,0.02 0.160004,0.02 0.18,0.02 0.18,0.04 0.159996,0.02 0.180001,0.04 0.18,0.04 0.160004,0.04 0.18,0.04 0.159996,0.06 0.18,0.04 0.180001,0.06 0.160003,0.06 0.180001,0.06 0.18,0.06 0.159996,0.08 0.18,0.08 0.18,0.08 0.160004,0.08" /><path
               id="path60"
               style="fill:none;stroke:#000000;stroke-width:0.64999998;stroke-linecap:butt;stroke-linejoin:round;stroke-miterlimit:10;stroke-dasharray:none;stroke-opacity:1"
               d="m 48.807003,1.057 0.16,0.6800001 0.36,1.2800001 0.16,0.6399999 0.360001,1.2000003 0.16,0.5999999 0.18,0.5799999 0.179997,0.5599999 0.160003,0.5600004 0.179997,0.54 0.16,0.54 0.18,0.5 0.18,0.5199995 0.16,0.5000009 0.360001,0.9600001 0.159999,0.46 0.180001,0.44 0.18,0.46 0.16,0.42 0.360001,0.84 0.159999,0.399999 0.180001,0.380001 0.16,0.38 0.18,0.38 0.18,0.359999 0.16,0.340001 0.18,0.36 0.180001,0.319999 0.159999,0.320002 0.360001,0.639999 0.16,0.280001 0.18,0.299999 0.16,0.280001 0.18,0.26 0.179997,0.279999 0.160004,0.239999 0.179996,0.260001" /></g></g></g></g></g></svg>