<?xml version="1.0" encoding="UTF-8" standalone="no"?>
<svg
   xmlns:dc="http://purl.org/dc/elements/1.1/"
   xmlns:cc="http://creativecommons.org/ns#"
   xmlns:rdf="http://www.w3.org/1999/02/22-rdf-syntax-ns#"
   xmlns:svg="http://www.w3.org/2000/svg"
   xmlns="http://www.w3.org/2000/svg"
   viewBox="0 0 456 118.66667"
   height="118.66667"
   width="456"
   xml:space="preserve"
   id="svg2"
   version="1.1"><metadata
     id="metadata8"><rdf:RDF><cc:Work
         rdf:about=""><dc:format>image/svg+xml</dc:format><dc:type
           rdf:resource="http://purl.org/dc/dcmitype/StillImage" /></cc:Work></rdf:RDF></metadata><defs
     id="defs6"><clipPath
       id="clipPath24"
       clipPathUnits="userSpaceOnUse"><path
         id="path22"
         d="M 0,0 H 342 V 89 H 0 Z" /></clipPath></defs><g
     transform="matrix(1.3333333,0,0,-1.3333333,0,118.66667)"
     id="g10"><g
       id="g12" /><g
       id="g14" /><g
       id="g16"><g
         id="g18"><g
           clip-path="url(#clipPath24)"
           id="g20"><g
             id="g26" /><g
             id="g28"><path
               id="path30"
               style="fill:#000000;fill-opacity:1;fill-rule:nonzero;stroke:#000000;stroke-width:0.47999999;stroke-linecap:butt;stroke-linejoin:miter;stroke-miterlimit:4;stroke-dasharray:none;stroke-opacity:1"
               d="M 0,12.484 H 148.06" /><path
               id="path32"
               style="fill:#000000;fill-opacity:1;fill-rule:nonzero;stroke:none"
               d="m 147.86801,12.963 -1.752,2.882001 0.098,0.066 4.7,-1.867 c 1.638,-0.361 3.276,-0.721 4.91301,-1.081001 C 154.19,12.603001 152.552,12.242001 150.914,11.882001 l -4.7,-1.867001 -0.098,0.049 1.752,2.899" /><path
               id="path34"
               style="fill:#000000;fill-opacity:1;fill-rule:nonzero;stroke:#000000;stroke-width:0.47999999;stroke-linecap:butt;stroke-linejoin:miter;stroke-miterlimit:4;stroke-dasharray:none;stroke-opacity:1"
               d="M 34.001003,1 V 77.522003" /><path
               id="path36"
               style="fill:#000000;fill-opacity:1;fill-rule:nonzero;stroke:none"
               d="m 34.001003,76.705002 -2.883001,-1.751999 -0.065,0.099 1.866997,4.700005 C 33.28,81.389009 33.64,83.027001 34.001004,84.664002 34.361,83.027 34.721001,81.389008 35.082001,79.752007 l 1.866001,-4.700005 -0.049,-0.099 -2.897999,1.751999" /><text
               id="text40"
               style="font-variant:normal;font-weight:normal;font-size:12.75200081px;font-family:CMMI10;-inkscape-font-specification:CMMI10;writing-mode:lr-tb;fill:#000000;fill-opacity:1;fill-rule:nonzero;stroke:none"
               transform="matrix(1,0,0,-1,158.8627,7.9698)"><tspan
                 id="tspan38"
                 y="0"
                 x="0">x</tspan></text>
<text
               id="text44"
               style="font-variant:normal;font-weight:normal;font-size:12.75200081px;font-family:CMMI10;-inkscape-font-specification:CMMI10;writing-mode:lr-tb;fill:#000000;fill-opacity:1;fill-rule:nonzero;stroke:none"
               transform="matrix(1,0,0,-1,22.681532,78.904076)"><tspan
                 id="tspan42"
                 y="0"
                 x="0">y</tspan></text>
<path
               id="path46"
               style="fill:#000000;fill-opacity:1;fill-rule:nonzero;stroke:#000000;stroke-width:0.47999999;stroke-linecap:butt;stroke-linejoin:miter;stroke-miterlimit:4;stroke-dasharray:none;stroke-opacity:1"
               d="" /><text
               id="text50"
               style="font-variant:normal;font-weight:normal;font-size:12.75200081px;font-family:CMMI10;-inkscape-font-specification:CMMI10;writing-mode:lr-tb;fill:#000000;fill-opacity:1;fill-rule:nonzero;stroke:none"
               transform="matrix(1,0,0,-1,72.385895,4.5)"><tspan
                 id="tspan48"
                 y="0"
                 x="0">x</tspan></text>
<text
               id="text54"
               style="font-variant:normal;font-weight:normal;font-size:8.92640018px;font-family:CMR7;-inkscape-font-specification:CMR7;writing-mode:lr-tb;fill:#000000;fill-opacity:1;fill-rule:nonzero;stroke:none"
               transform="matrix(1,0,0,-1,79.674004,2.5871999)"><tspan
                 id="tspan52"
                 y="0"
                 x="0">0</tspan></text>
<path
               id="path56"
               style="fill:none;stroke:#000000;stroke-width:0.80000001;stroke-linecap:butt;stroke-linejoin:miter;stroke-miterlimit:4;stroke-dasharray:none;stroke-opacity:1"
               d="M 115.65501,38.450001 C 108.76701,52.572002 94.269005,62.301003 77.5,62.301003 59.927002,62.301003 44.848003,51.617001 38.408001,36.389" /><path
               id="path58"
               style="fill:none;stroke:#000000;stroke-width:0.33600003;stroke-linecap:butt;stroke-linejoin:miter;stroke-miterlimit:4;stroke-dasharray:none;stroke-opacity:1"
               d="m 63.458004,62.313004 h 32.500004 m -9.467003,2.555 L 113.74,47.156002 m -10.02899,10.486 17.89399,-27.130001 m -77.325001,18.916 27.947006,16.588005 M 33.274002,30.174002 50.984001,57.424004" /><path
               id="path60"
               style="fill:none;stroke:#000000;stroke-width:0.40000001;stroke-linecap:butt;stroke-linejoin:miter;stroke-miterlimit:4;stroke-dasharray:3, 3, 3, 3, 3, 3;stroke-dashoffset:0;stroke-opacity:1"
               d="M 78,12.5 V 62.301003" /><path
               id="path62"
               style="fill:#000000;fill-opacity:1;fill-rule:nonzero;stroke:#000000;stroke-width:0.47999999;stroke-linecap:butt;stroke-linejoin:miter;stroke-miterlimit:4;stroke-dasharray:none;stroke-opacity:1"
               d="M 175.46901,12.469001 H 323.52802" /><path
               id="path64"
               style="fill:#000000;fill-opacity:1;fill-rule:nonzero;stroke:none"
               d="m 323.33701,12.948001 -1.75199,2.881999 0.098,0.066 4.70002,-1.867001 c 1.638,-0.359999 3.27499,-0.720999 4.91299,-1.080999 -1.638,-0.360001 -3.27499,-0.72 -4.91299,-1.081 L 321.68301,10 l -0.098,0.05 1.75199,2.898001" /><path
               id="path66"
               style="fill:#000000;fill-opacity:1;fill-rule:nonzero;stroke:#000000;stroke-width:0.47999999;stroke-linecap:butt;stroke-linejoin:miter;stroke-miterlimit:4;stroke-dasharray:none;stroke-opacity:1"
               d="M 209.47,0.98500007 V 77.507004" /><path
               id="path68"
               style="fill:#000000;fill-opacity:1;fill-rule:nonzero;stroke:none"
               d="m 209.47,76.691002 -2.88299,-1.751999 -0.065,0.098 1.86701,4.700004 c 0.36,1.636994 0.72,3.274994 1.08099,4.912995 0.36,-1.638001 0.72,-3.276001 1.07999,-4.912995 l 1.86702,-4.700004 -0.049,-0.098 -2.89801,1.751999" /><text
               id="text72"
               style="font-variant:normal;font-weight:normal;font-size:12.75200081px;font-family:CMMI10;-inkscape-font-specification:CMMI10;writing-mode:lr-tb;fill:#000000;fill-opacity:1;fill-rule:nonzero;stroke:none"
               transform="matrix(1,0,0,-1,334.33148,7.9550996)"><tspan
                 id="tspan70"
                 y="0"
                 x="0">x</tspan></text>
<text
               id="text76"
               style="font-variant:normal;font-weight:normal;font-size:12.75200081px;font-family:CMMI10;-inkscape-font-specification:CMMI10;writing-mode:lr-tb;fill:#000000;fill-opacity:1;fill-rule:nonzero;stroke:none"
               transform="matrix(1,0,0,-1,198.15031,78.889374)"><tspan
                 id="tspan74"
                 y="0"
                 x="0">y</tspan></text>
<path
               id="path78"
               style="fill:#000000;fill-opacity:1;fill-rule:nonzero;stroke:#000000;stroke-width:0.47999999;stroke-linecap:butt;stroke-linejoin:miter;stroke-miterlimit:4;stroke-dasharray:none;stroke-opacity:1"
               d="" /><text
               id="text82"
               style="font-variant:normal;font-weight:normal;font-size:12.75200081px;font-family:CMMI10;-inkscape-font-specification:CMMI10;writing-mode:lr-tb;fill:#000000;fill-opacity:1;fill-rule:nonzero;stroke:none"
               transform="matrix(1,0,0,-1,247.85469,4.4853001)"><tspan
                 id="tspan80"
                 y="0"
                 x="0">x</tspan></text>
<text
               id="text86"
               style="font-variant:normal;font-weight:normal;font-size:8.92640018px;font-family:CMR7;-inkscape-font-specification:CMR7;writing-mode:lr-tb;fill:#000000;fill-opacity:1;fill-rule:nonzero;stroke:none"
               transform="matrix(1,0,0,-1,255.1427,2.5725)"><tspan
                 id="tspan84"
                 y="0"
                 x="0">0</tspan></text>
<path
               id="path88"
               style="fill:none;stroke:#000000;stroke-width:0.80000001;stroke-linecap:butt;stroke-linejoin:miter;stroke-miterlimit:4;stroke-dasharray:none;stroke-opacity:1"
               d="m 214.69301,60.117004 c 6.888,-14.122001 21.38501,-23.851001 38.15401,-23.851001 17.574,0 32.652,10.685001 39.09298,25.911998" /><path
               id="path90"
               style="fill:none;stroke:#000000;stroke-width:0.33600003;stroke-linecap:butt;stroke-linejoin:miter;stroke-miterlimit:4;stroke-dasharray:none;stroke-opacity:1"
               d="m 266.88901,36.255001 h -32.5 m 9.468,-2.556 -27.25,17.713002 m 10.02901,-10.487 L 208.742,68.056 M 286.06802,49.139004 258.12,32.551003 m 38.95303,35.843002 -17.71002,-27.251003" /><path
               id="path92"
               style="fill:none;stroke:#000000;stroke-width:0.40000001;stroke-linecap:butt;stroke-linejoin:miter;stroke-miterlimit:4;stroke-dasharray:3, 3, 3, 3, 3, 3;stroke-dashoffset:0;stroke-opacity:1"
               d="M 253.46901,12.485001 V 36.5" /></g></g></g></g></g></svg>