<?xml version="1.0" encoding="UTF-8" standalone="no"?>
<svg
   xmlns:dc="http://purl.org/dc/elements/1.1/"
   xmlns:cc="http://creativecommons.org/ns#"
   xmlns:rdf="http://www.w3.org/1999/02/22-rdf-syntax-ns#"
   xmlns:svg="http://www.w3.org/2000/svg"
   xmlns="http://www.w3.org/2000/svg"
   viewBox="0 0 353.33334 158.66667"
   height="158.66667"
   width="353.33334"
   xml:space="preserve"
   id="svg2"
   version="1.1"><metadata
     id="metadata8"><rdf:RDF><cc:Work
         rdf:about=""><dc:format>image/svg+xml</dc:format><dc:type
           rdf:resource="http://purl.org/dc/dcmitype/StillImage" /></cc:Work></rdf:RDF></metadata><defs
     id="defs6"><clipPath
       id="clipPath24"
       clipPathUnits="userSpaceOnUse"><path
         id="path22"
         d="M 0,0 H 265 V 119 H 0 Z" /></clipPath></defs><g
     transform="matrix(1.3333333,0,0,-1.3333333,0,158.66667)"
     id="g10"><g
       id="g12" /><g
       id="g14" /><g
       id="g16"><g
         id="g18"><g
           clip-path="url(#clipPath24)"
           id="g20"><g
             id="g26" /><g
             id="g28"><path
               id="path30"
               style="fill:none;stroke:#000000;stroke-width:1;stroke-linecap:butt;stroke-linejoin:round;stroke-miterlimit:4;stroke-dasharray:none;stroke-opacity:1"
               d="M 0.39500001,51.386002 H 231.77202" /><path
               id="path32"
               style="fill:#000000;fill-opacity:1;fill-rule:nonzero;stroke:none"
               d="m 230.5,51.5 -1.314,2.162003 0.073,0.049 3.52499,-1.400001 c 1.22901,-0.271004 2.457,-0.541001 3.685,-0.811001 -1.228,-0.27 -2.45599,-0.540001 -3.685,-0.810997 l -3.52499,-1.400002 -0.073,0.037 L 230.5,51.5" /><path
               id="path34"
               style="fill:#000000;fill-opacity:1;fill-rule:nonzero;stroke:none"
               d="m 39.289001,112.24 -2.160999,-1.314 -0.05,0.074 1.400997,3.52501 C 38.749,115.75301 39.019,116.981 39.289,118.21 c 0.270001,-1.229 0.540997,-2.45699 0.811001,-3.68499 L 41.5,111 l -0.037,-0.074 -2.174,1.314" /><text
               id="text38"
               style="font-variant:normal;font-weight:normal;font-size:10.80000019px;font-family:Symbol;-inkscape-font-specification:Symbol;writing-mode:lr-tb;fill:#000000;fill-opacity:1;fill-rule:nonzero;stroke:none"
               transform="matrix(1,0,0,-1,84.806007,41.735001)"><tspan
                 id="tspan36"
                 y="0"
                 x="0">!</tspan></text>
<text
               id="text42"
               style="font-variant:normal;font-weight:normal;font-size:10.80000019px;font-family:Symbol;-inkscape-font-specification:Symbol;writing-mode:lr-tb;fill:#000000;fill-opacity:1;fill-rule:nonzero;stroke:none"
               transform="matrix(1,0,0,-1,168.48117,40.734921)"><tspan
                 id="tspan40"
                 y="0"
                 x="0">3</tspan></text>
<text
               id="text46"
               style="font-variant:normal;font-weight:normal;font-size:10.80000019px;font-family:Symbol;-inkscape-font-specification:Symbol;writing-mode:lr-tb;fill:#000000;fill-opacity:1;fill-rule:nonzero;stroke:none"
               transform="matrix(1,0,0,-1,173.88116,40.734921)"><tspan
                 id="tspan44"
                 y="0"
                 x="0">!</tspan></text>
<text
               id="text50"
               style="font-variant:normal;font-weight:normal;font-size:10.80000019px;font-family:Symbol;-inkscape-font-specification:Symbol;writing-mode:lr-tb;fill:#000000;fill-opacity:1;fill-rule:nonzero;stroke:none"
               transform="matrix(1,0,0,-1,27.05624,96.984558)"><tspan
                 id="tspan48"
                 y="0"
                 x="0">!</tspan></text>
<text
               id="text54"
               style="font-variant:normal;font-weight:normal;font-size:10.80000019px;font-family:Symbol;-inkscape-font-specification:Symbol;writing-mode:lr-tb;fill:#000000;fill-opacity:1;fill-rule:nonzero;stroke:none"
               transform="matrix(1,0,0,-1,21.67244,9.2032356)"><tspan
                 id="tspan52"
                 y="0"
                 x="0">&quot;</tspan></text>
<text
               id="text58"
               style="font-variant:normal;font-weight:normal;font-size:10.80000019px;font-family:Symbol;-inkscape-font-specification:Symbol;writing-mode:lr-tb;fill:#000000;fill-opacity:1;fill-rule:nonzero;stroke:none"
               transform="matrix(1,0,0,-1,27.590839,9.2032356)"><tspan
                 id="tspan56"
                 y="0"
                 x="0">!</tspan></text>
<text
               id="text62"
               style="font-variant:normal;font-weight:normal;font-size:14.34600067px;font-family:CMMI12;-inkscape-font-specification:CMMI12;writing-mode:lr-tb;fill:#000000;fill-opacity:1;fill-rule:nonzero;stroke:none"
               transform="matrix(1,0,0,-1,235.5775,38.930798)"><tspan
                 id="tspan60"
                 y="0"
                 x="0">x</tspan></text>
<path
               id="path64"
               style="fill:none;stroke:#000000;stroke-width:1;stroke-linecap:butt;stroke-linejoin:round;stroke-miterlimit:4;stroke-dasharray:none;stroke-opacity:1"
               d="M 39.5,114.5 V 0 m -39,11.5 87,87 m 1.25,-89.75 87,87 m 1.5,-87.5 87,87" /><text
               id="text68"
               style="font-variant:normal;font-weight:normal;font-size:12px;font-family:CMR12;-inkscape-font-specification:CMR12;writing-mode:lr-tb;fill:#000000;fill-opacity:1;fill-rule:nonzero;stroke:none"
               transform="matrix(1,0,0,-1,30,54)"><tspan
                 id="tspan66"
                 y="0"
                 x="0">0</tspan></text>
</g></g></g></g></g></svg>