<?xml version="1.0" encoding="UTF-8" standalone="no"?>
<svg
   xmlns:dc="http://purl.org/dc/elements/1.1/"
   xmlns:cc="http://creativecommons.org/ns#"
   xmlns:rdf="http://www.w3.org/1999/02/22-rdf-syntax-ns#"
   xmlns:svg="http://www.w3.org/2000/svg"
   xmlns="http://www.w3.org/2000/svg"
   viewBox="0 0 266.66666 168"
   height="168"
   width="266.66666"
   xml:space="preserve"
   id="svg2"
   version="1.1"><metadata
     id="metadata8"><rdf:RDF><cc:Work
         rdf:about=""><dc:format>image/svg+xml</dc:format><dc:type
           rdf:resource="http://purl.org/dc/dcmitype/StillImage" /></cc:Work></rdf:RDF></metadata><defs
     id="defs6"><clipPath
       id="clipPath24"
       clipPathUnits="userSpaceOnUse"><path
         id="path22"
         d="M 0,0 H 200 V 126 H 0 Z" /></clipPath></defs><g
     transform="matrix(1.3333333,0,0,-1.3333333,0,168)"
     id="g10"><g
       id="g12" /><g
       id="g14" /><g
       id="g16"><g
         id="g18"><g
           clip-path="url(#clipPath24)"
           id="g20"><g
             id="g26" /><g
             id="g28"><path
               id="path30"
               style="fill:none;stroke:#000000;stroke-width:1;stroke-linecap:butt;stroke-linejoin:round;stroke-miterlimit:4;stroke-dasharray:none;stroke-opacity:1"
               d="M 9.7220001,14.266001 H 143.62401" /><path
               id="path32"
               style="fill:#000000;fill-opacity:1;fill-rule:nonzero;stroke:none"
               d="m 143.37901,14.266001 -1.752,2.882 0.098,0.066 4.69999,-1.867 c 1.638,-0.360001 3.276,-0.721001 4.91301,-1.081 C 149.701,13.906001 148.063,13.546 146.425,13.185 l -4.69999,-1.866999 -0.098,0.05 1.752,2.898" /><path
               id="path34"
               style="fill:none;stroke:#000000;stroke-width:1;stroke-linecap:butt;stroke-linejoin:round;stroke-miterlimit:4;stroke-dasharray:none;stroke-opacity:1"
               d="M 74.373001,10.845 V 116.44601" /><path
               id="path36"
               style="fill:#000000;fill-opacity:1;fill-rule:nonzero;stroke:none"
               d="m 75,114.27601 -2.881996,-1.75301 -0.066,0.099 1.867004,4.70001 c 0.360993,1.637 0.720993,3.275 1.080994,4.913 0.360001,-1.638 0.721001,-3.276 1.081001,-4.913 l 1.867005,-4.70001 -0.049,-0.099 L 75,114.27601" /><path
               id="path38"
               style="fill:none;stroke:#000000;stroke-width:1;stroke-linecap:butt;stroke-linejoin:round;stroke-miterlimit:4;stroke-dasharray:none;stroke-opacity:1"
               d="m 93.823006,52.867004 0.424995,0.175 0.425003,0.2 0.400002,0.175 1.275001,0.599998 0.399994,0.225002 0.425003,0.199997 0.425003,0.225003 0.424996,0.2 0.400001,0.224999 0.425003,0.224998 0.424996,0.25 0.425003,0.225003 0.400004,0.25 0.42499,0.224998 0.85,0.5 0.4,0.275002 0.42501,0.25 0.42499,0.274997 0.4,0.25 0.85001,0.550003 0.42499,0.3 0.40001,0.274997 0.425,0.300003 0.42499,0.3 0.42501,0.299999 0.4,0.299999 0.42499,0.299999 0.42501,0.325001 0.42499,0.299999 0.4,0.325001 0.42501,0.350002 0.85,0.649998 0.4,0.350002 0.42499,0.349999 0.42501,0.349998 0.4,0.350003 0.42499,0.374996 0.42501,0.350006 0.425,0.375 0.39999,0.375 0.42501,0.399994 0.425,0.375 0.42499,0.400001 0.40001,0.400002 0.84999,0.800003 0.42501,0.424995 0.4,0.425003 1.27499,1.275002 0.4,0.449997 0.85,0.900001 0.4,0.449997 0.42601,0.474999 0.42399,0.450004 0.42501,0.474999 0.401,0.5 0.42399,0.474998 0.85101,1 0.39899,0.5 0.42501,0.5 0.84999,1.050003 0.40101,0.525002 0.425,0.549995 0.42499,0.525002 0.42501,0.550003 0.4,0.574997 0.42499,0.550003 0.85001,1.150001 0.39999,0.574997 0.42501,0.599999 0.42499,0.575004 0.40001,0.625 0.42499,0.599999 0.425,0.625 0.42501,0.599998 0.39999,0.650002 0.425,0.625 0.85001,1.299995 0.39999,0.675003 0.42501,0.650002 0.85,1.349998 0.4,0.699997 0.85,1.400002 0.42499,0.724998 0.40001,0.725006" /><path
               id="path40"
               style="fill:none;stroke:#000000;stroke-width:1;stroke-linecap:butt;stroke-linejoin:miter;stroke-miterlimit:4;stroke-dasharray:none;stroke-opacity:1"
               d="m 135,90.562004 c 2.343,0 4.24301,1.689003 4.24301,3.771004 0,2.083 -1.90001,3.770996 -4.24301,3.770996 -2.34299,0 -4.243,-1.687996 -4.243,-3.770996 0,-2.082001 1.90001,-3.771004 4.243,-3.771004 z" /><path
               id="path42"
               style="fill:#000000;fill-opacity:1;fill-rule:nonzero;stroke:#404040;stroke-width:0.5;stroke-linecap:butt;stroke-linejoin:round;stroke-miterlimit:4;stroke-dasharray:none;stroke-opacity:1"
               d="m 81.213005,45.995003 c 3.591995,0.616001 6.290001,2.362999 6.026001,3.903 -0.264,1.539001 -3.389999,2.287998 -6.982002,1.671997 -3.593003,-0.615998 -6.291001,-2.363999 -6.027008,-3.902996 0.264007,-1.540001 3.391006,-2.288002 6.983009,-1.672001 z" /><path
               id="path44"
               style="fill:#ffffff;fill-opacity:1;fill-rule:nonzero;stroke:#000000;stroke-width:0.5;stroke-linecap:butt;stroke-linejoin:round;stroke-miterlimit:4;stroke-dasharray:none;stroke-opacity:1"
               d="m 81.024002,47.095001 c 3.014999,0.517002 5.334,1.664002 5.18,2.562 -0.154007,0.898003 -2.722999,1.207001 -5.737999,0.690003 -3.014,-0.517006 -5.333999,-1.664002 -5.18,-2.563004 0.153992,-0.897998 2.723,-1.205997 5.737999,-0.688999 z" /><path
               id="path46"
               style="fill:#000000;fill-opacity:1;fill-rule:nonzero;stroke:#404040;stroke-width:0.5;stroke-linecap:butt;stroke-linejoin:round;stroke-miterlimit:4;stroke-dasharray:none;stroke-opacity:1"
               d="m 94.509995,50.158001 c 3.300003,1.548 5.438011,3.949001 4.774009,5.363003 -0.663002,1.413997 -3.875999,1.305999 -7.176002,-0.241005 -3.298996,-1.547997 -5.436997,-3.948998 -4.773995,-5.362995 0.663994,-1.414002 3.875992,-1.306 7.175988,0.240997 z" /><path
               id="path48"
               style="fill:#ffffff;fill-opacity:1;fill-rule:nonzero;stroke:#000000;stroke-width:0.5;stroke-linecap:butt;stroke-linejoin:round;stroke-miterlimit:4;stroke-dasharray:none;stroke-opacity:1"
               d="m 94.036003,51.169003 c 2.770004,1.298999 4.702004,3.02 4.315003,3.845001 -0.387001,0.825001 -2.946,0.440998 -5.716004,-0.858002 -2.768997,-1.299 -4.700996,-3.021 -4.313995,-3.846004 0.387001,-0.823994 2.945999,-0.439999 5.714996,0.859005 z" /><path
               id="path50"
               style="fill:#000000;fill-opacity:1;fill-rule:nonzero;stroke:#404040;stroke-width:0.5;stroke-linecap:butt;stroke-linejoin:round;stroke-miterlimit:4;stroke-dasharray:none;stroke-opacity:1"
               d="m 106.366,57.004002 c 3.054,1.990001 4.838,4.664001 3.98501,5.972 -0.852,1.309002 -4.019,0.757 -7.073,-1.232998 -3.054,-1.989002 -4.838015,-4.663006 -3.985003,-5.972 0.852993,-1.309002 4.018993,-0.757 7.072993,1.232998 z" /><path
               id="path52"
               style="fill:#ffffff;fill-opacity:1;fill-rule:nonzero;stroke:#000000;stroke-width:0.5;stroke-linecap:butt;stroke-linejoin:round;stroke-miterlimit:4;stroke-dasharray:none;stroke-opacity:1"
               d="m 105.757,57.939003 c 2.563,1.669998 4.237,3.643002 3.74,4.405998 -0.497,0.763001 -2.978,0.028 -5.541,-1.640999 -2.56299,-1.669998 -4.237998,-3.643001 -3.74,-4.405998 0.49701,-0.764 2.97801,-0.029 5.541,1.640999 z" /><path
               id="path54"
               style="fill:#000000;fill-opacity:1;fill-rule:nonzero;stroke:#404040;stroke-width:0.5;stroke-linecap:butt;stroke-linejoin:round;stroke-miterlimit:4;stroke-dasharray:none;stroke-opacity:1"
               d="m 117.286,66.084 c 2.63301,2.520004 3.89201,5.478004 2.81101,6.607002 -1.08,1.127998 -4.09001,-10e-4 -6.723,-2.521004 -2.63201,-2.520996 -3.89101,-5.478996 -2.81001,-6.606994 1.08,-1.129002 4.09001,0 6.722,2.520996 z" /><path
               id="path56"
               style="fill:#ffffff;fill-opacity:1;fill-rule:nonzero;stroke:#000000;stroke-width:0.5;stroke-linecap:butt;stroke-linejoin:round;stroke-miterlimit:4;stroke-dasharray:none;stroke-opacity:1"
               d="m 116.51501,66.889999 c 2.209,2.115006 3.48999,4.364006 2.86,5.022004 -0.63101,0.657997 -2.933,-0.523003 -5.14201,-2.639 -2.21,-2.114998 -3.49,-4.363999 -2.85999,-5.022004 0.63,-0.657997 2.932,0.523003 5.142,2.639 z" /><path
               id="path58"
               style="fill:#000000;fill-opacity:1;fill-rule:nonzero;stroke:#404040;stroke-width:0.5;stroke-linecap:butt;stroke-linejoin:round;stroke-miterlimit:4;stroke-dasharray:none;stroke-opacity:1"
               d="m 126.1,76.147003 c 2.31,2.819 3.202,5.906998 1.99401,6.897003 -1.208,0.989998 -4.06001,-0.493003 -6.37,-3.313003 -2.309,-2.819 -3.20201,-5.907997 -1.99401,-6.898003 1.209,-0.988998 4.06101,0.494003 6.37,3.314003 z" /><path
               id="path60"
               style="fill:#ffffff;fill-opacity:1;fill-rule:nonzero;stroke:#000000;stroke-width:0.5;stroke-linecap:butt;stroke-linejoin:round;stroke-miterlimit:4;stroke-dasharray:none;stroke-opacity:1"
               d="m 125.23701,76.854004 c 1.93799,2.365997 2.93799,4.752998 2.23298,5.330002 -0.70398,0.577995 -2.84698,-0.873001 -4.78598,-3.238999 -1.93801,-2.367004 -2.93801,-4.753006 -2.23301,-5.331001 0.70501,-0.577003 2.847,0.873001 4.78601,3.239998 z" /><path
               id="path62"
               style="fill:#000000;fill-opacity:1;fill-rule:nonzero;stroke:#404040;stroke-width:0.5;stroke-linecap:butt;stroke-linejoin:round;stroke-miterlimit:4;stroke-dasharray:none;stroke-opacity:1"
               d="m 134.40001,87.294006 c 2.013,3.037995 2.589,6.200997 1.287,7.062996 -1.302,0.862999 -3.99,-0.901001 -6.003,-3.938995 -2.013,-3.03801 -2.589,-6.201004 -1.28701,-7.064003 1.30201,-0.862 3.99001,0.901001 6.00301,3.940002 z" /><path
               id="path64"
               style="fill:#ffffff;fill-opacity:1;fill-rule:nonzero;stroke:#000000;stroke-width:0.5;stroke-linecap:butt;stroke-linejoin:round;stroke-miterlimit:4;stroke-dasharray:none;stroke-opacity:1"
               d="m 133.46901,87.909996 c 1.69,2.550003 2.444,5.025009 1.68399,5.529007 -0.75899,0.502998 -2.745,-1.155998 -4.43399,-3.706001 -1.69,-2.550995 -2.444,-5.026001 -1.68401,-5.529 0.75901,-0.502998 2.745,1.155999 4.43401,3.705994 z" /><path
               id="path66"
               style="fill:none;stroke:#000000;stroke-width:1;stroke-linecap:butt;stroke-linejoin:round;stroke-miterlimit:4;stroke-dasharray:none;stroke-opacity:1"
               d="M 74.297005,10.874001 V 116.47501 m -19.451001,-63.579006 -0.425003,0.174999 -0.424999,0.200001 -0.400001,0.174999 -1.274998,0.599998 -0.400002,0.225003 -0.424999,0.2 -0.424999,0.224999 -0.424999,0.200001 -0.400002,0.224998 -0.424999,0.225002 -0.424999,0.25 -0.425003,0.224999 -0.399998,0.25 -0.424999,0.224998 -0.850003,0.5 -0.399997,0.275002 -0.425003,0.25 -0.425,0.275001 -0.399997,0.25 -0.850003,0.55 -0.424999,0.299999 -0.400001,0.275001 -0.425,0.3 -0.424999,0.299999 -0.424999,0.299999 -0.400002,0.299999 -0.424999,0.300003 -0.424999,0.324997 -0.424999,0.300003 -0.400002,0.324997 -0.424999,0.350003 -0.850002,0.649997 -0.399998,0.350003 -0.424999,0.349998 -0.425003,0.350002 -0.399998,0.349999 -0.425003,0.375004 -0.424999,0.349998 -0.425,0.375 -0.400001,0.375 -0.424999,0.400002 -0.425,0.375 -0.424999,0.399994 -0.400001,0.400001 -0.849999,0.800003 -0.424999,0.424996 -0.400002,0.425003 -1.274999,1.275001 -0.4,0.449997 -0.85,0.900002 -0.4,0.449997 -0.425001,0.475006 -0.424999,0.449997 -0.425001,0.474998 -0.4,0.5 -0.424999,0.474999 -0.850001,1 -0.399999,0.5 -0.425001,0.5 -0.850001,1.050003 -0.399999,0.525001 -0.425,0.549996 -0.425001,0.525001 -0.424999,0.550003 -0.4,0.574997 -0.425001,0.550003 -0.849998,1.150002 -0.400002,0.574997 -0.424999,0.599998 -0.424999,0.575005 -0.400002,0.625 -0.424999,0.599998 -0.424999,0.625 -0.425001,0.599999 -0.4,0.650001 -0.425001,0.625 -0.849999,1.299996 L 16.771,88.896004 16.346001,89.546005 15.496,90.896004 15.096001,91.596001 14.246,92.996002 13.821001,93.721001 13.421,94.446007" /><path
               id="path68"
               style="fill:none;stroke:#000000;stroke-width:1;stroke-linecap:butt;stroke-linejoin:miter;stroke-miterlimit:4;stroke-dasharray:none;stroke-opacity:1"
               d="m 13.669001,90.591003 c -2.343001,0 -4.242001,1.688996 -4.242001,3.771004 0,2.083 1.899,3.771996 4.242001,3.771996 2.343,0 4.243,-1.688996 4.243,-3.771996 0,-2.082008 -1.9,-3.771004 -4.243,-3.771004 z" /><path
               id="path70"
               style="fill:#000000;fill-opacity:1;fill-rule:nonzero;stroke:#404040;stroke-width:0.5;stroke-linecap:butt;stroke-linejoin:round;stroke-miterlimit:4;stroke-dasharray:none;stroke-opacity:1"
               d="m 67.456001,46.024002 c -3.591999,0.615997 -6.289997,2.362999 -6.026001,3.903 0.264004,1.539001 3.39,2.288002 6.983002,1.672001 3.592003,-0.616001 6.290001,-2.364002 6.026001,-3.903 -0.264,-1.540001 -3.389999,-2.288002 -6.983002,-1.672001 z" /><path
               id="path72"
               style="fill:#ffffff;fill-opacity:1;fill-rule:nonzero;stroke:#000000;stroke-width:0.5;stroke-linecap:butt;stroke-linejoin:round;stroke-miterlimit:4;stroke-dasharray:none;stroke-opacity:1"
               d="m 67.645004,47.124001 c -3.015007,0.517002 -5.333999,1.664001 -5.18,2.562 0.153999,0.898002 2.723,1.207001 5.737999,0.690002 3.014999,-0.517002 5.334,-1.665001 5.18,-2.562999 -0.153999,-0.898003 -2.723007,-1.207001 -5.737999,-0.689003 z" /><path
               id="path74"
               style="fill:#000000;fill-opacity:1;fill-rule:nonzero;stroke:#404040;stroke-width:0.5;stroke-linecap:butt;stroke-linejoin:round;stroke-miterlimit:4;stroke-dasharray:none;stroke-opacity:1"
               d="m 54.159004,50.187004 c -3.300003,1.547997 -5.437,3.948998 -4.774002,5.362995 0.663002,1.414006 3.876,1.306004 7.175999,-0.240997 3.300003,-1.548 5.437,-3.949001 4.774002,-5.362999 -0.662998,-1.414002 -3.876,-1.306004 -7.175999,0.241001 z" /><path
               id="path76"
               style="fill:#ffffff;fill-opacity:1;fill-rule:nonzero;stroke:#000000;stroke-width:0.5;stroke-linecap:butt;stroke-linejoin:round;stroke-miterlimit:4;stroke-dasharray:none;stroke-opacity:1"
               d="m 54.633003,51.198002 c -2.77,1.298 -4.701,3.02 -4.313999,3.845001 0.386997,0.825001 2.945,0.440998 5.715,-0.858002 2.768997,-1.298999 4.701,-3.021 4.313999,-3.845001 -0.387001,-0.824997 -2.945999,-0.440998 -5.715,0.858002 z" /><path
               id="path78"
               style="fill:#000000;fill-opacity:1;fill-rule:nonzero;stroke:#404040;stroke-width:0.5;stroke-linecap:butt;stroke-linejoin:round;stroke-miterlimit:4;stroke-dasharray:none;stroke-opacity:1"
               d="m 42.303001,57.033001 c -3.054,1.990002 -4.838001,4.664001 -3.985,5.972004 0.853,1.308998 4.019001,0.757 7.073002,-1.233002 3.054001,-1.989002 4.838001,-4.663002 3.986,-5.972004 -0.853001,-1.308998 -4.020001,-0.756996 -7.074002,1.233002 z" /><path
               id="path80"
               style="fill:#ffffff;fill-opacity:1;fill-rule:nonzero;stroke:#000000;stroke-width:0.5;stroke-linecap:butt;stroke-linejoin:round;stroke-miterlimit:4;stroke-dasharray:none;stroke-opacity:1"
               d="m 42.912003,57.968002 c -2.563,1.670002 -4.237,3.643002 -3.740002,4.406002 0.497997,0.763001 2.979,0.028 5.542,-1.641002 2.562999,-1.669998 4.237003,-3.643002 3.740001,-4.406998 -0.498001,-0.763 -2.979,-0.028 -5.541999,1.641998 z" /><path
               id="path82"
               style="fill:#000000;fill-opacity:1;fill-rule:nonzero;stroke:#404040;stroke-width:0.5;stroke-linecap:butt;stroke-linejoin:round;stroke-miterlimit:4;stroke-dasharray:none;stroke-opacity:1"
               d="m 31.383001,66.113007 c -2.633001,2.519996 -3.891,5.477996 -2.811,6.606994 1.080001,1.128006 4.090002,-9.99e-4 6.723001,-2.520996 2.632,-2.521004 3.890999,-5.479004 2.811001,-6.607002 -1.081001,-1.129002 -4.091,0 -6.723002,2.521004 z" /><path
               id="path84"
               style="fill:#ffffff;fill-opacity:1;fill-rule:nonzero;stroke:#000000;stroke-width:0.5;stroke-linecap:butt;stroke-linejoin:round;stroke-miterlimit:4;stroke-dasharray:none;stroke-opacity:1"
               d="m 32.155003,66.919006 c -2.210001,2.114998 -3.490002,4.363999 -2.860001,5.021996 0.629999,0.658005 2.931999,-0.522995 5.141998,-2.639 2.209,-2.114998 3.490002,-4.363998 2.859001,-5.022003 -0.630001,-0.657997 -2.931999,0.523002 -5.140998,2.639007 z" /><path
               id="path86"
               style="fill:#000000;fill-opacity:1;fill-rule:nonzero;stroke:#404040;stroke-width:0.5;stroke-linecap:butt;stroke-linejoin:round;stroke-miterlimit:4;stroke-dasharray:none;stroke-opacity:1"
               d="m 22.569,76.176003 c -2.309999,2.819 -3.201999,5.906997 -1.993999,6.897003 1.208999,0.989998 4.061001,-0.493004 6.370001,-3.313011 2.309999,-2.82 3.201999,-5.90799 1.993999,-6.897988 -1.208,-0.989006 -4.059999,0.493996 -6.370001,3.313996 z" /><path
               id="path88"
               style="fill:#ffffff;fill-opacity:1;fill-rule:nonzero;stroke:#000000;stroke-width:0.5;stroke-linecap:butt;stroke-linejoin:round;stroke-miterlimit:4;stroke-dasharray:none;stroke-opacity:1"
               d="m 23.432001,76.883003 c -1.938,2.365998 -2.938,4.752999 -2.233,5.330002 0.705,0.577995 2.848,-0.873009 4.786,-3.238998 1.939001,-2.367005 2.938001,-4.753006 2.234001,-5.331002 -0.705,-0.577003 -2.848002,0.873001 -4.787001,3.239998 z" /><path
               id="path90"
               style="fill:#000000;fill-opacity:1;fill-rule:nonzero;stroke:#404040;stroke-width:0.5;stroke-linecap:butt;stroke-linejoin:round;stroke-miterlimit:4;stroke-dasharray:none;stroke-opacity:1"
               d="m 14.27,87.323006 c -2.012999,3.038002 -2.590001,6.200996 -1.288,7.062996 1.303001,0.863006 3.99,-0.900994 6.003001,-3.938996 2.013,-3.038002 2.59,-6.201004 1.287,-7.064003 -1.302002,-0.861999 -3.989,0.901001 -6.002001,3.940003 z" /><path
               id="path92"
               style="fill:#ffffff;fill-opacity:1;fill-rule:nonzero;stroke:#000000;stroke-width:0.5;stroke-linecap:butt;stroke-linejoin:round;stroke-miterlimit:4;stroke-dasharray:none;stroke-opacity:1"
               d="m 15.2,87.939003 c -1.690001,2.550003 -2.442999,5.025002 -1.683999,5.528999 0.76,0.502999 2.745001,-1.155998 4.434999,-3.706001 1.688999,-2.550995 2.443001,-5.025993 1.684,-5.528999 -0.76,-0.503006 -2.746,1.156006 -4.435,3.706001 z" /><text
               id="text96"
               style="font-variant:normal;font-weight:normal;font-size:11.95500088px;font-family:CMMI12;-inkscape-font-specification:CMMI12;writing-mode:lr-tb;fill:#000000;fill-opacity:1;fill-rule:nonzero;stroke:none"
               transform="matrix(1,0,0,-1,146.869,106.8211)"><tspan
                 id="tspan94"
                 y="0"
                 x="0">y</tspan></text>
<text
               id="text100"
               style="font-variant:normal;font-weight:normal;font-size:11.95500088px;font-family:CMR12;-inkscape-font-specification:CMR12;writing-mode:lr-tb;fill:#000000;fill-opacity:1;fill-rule:nonzero;stroke:none"
               transform="matrix(1,0,0,-1,156.32541,106.8211)"><tspan
                 id="tspan98"
                 y="0"
                 x="0">=</tspan></text>
<text
               id="text104"
               style="font-variant:normal;font-weight:normal;font-size:11.95500088px;font-family:CMR12;-inkscape-font-specification:CMR12;writing-mode:lr-tb;fill:#000000;fill-opacity:1;fill-rule:nonzero;stroke:none"
               transform="matrix(1,0,0,-1,168.75623,106.8211)"><tspan
                 id="tspan102"
                 y="0"
                 x="0 5.2004256 11.058376 15.673006">cosh</tspan></text>
<text
               id="text108"
               style="font-variant:normal;font-weight:normal;font-size:11.95500088px;font-family:CMMI12;-inkscape-font-specification:CMMI12;writing-mode:lr-tb;fill:#000000;fill-opacity:1;fill-rule:nonzero;stroke:none"
               transform="matrix(1,0,0,-1,192.92087,106.8211)"><tspan
                 id="tspan106"
                 y="0"
                 x="0">x</tspan></text>
<text
               id="text112"
               style="font-variant:normal;font-weight:normal;font-size:11.95500088px;font-family:CMR12;-inkscape-font-specification:CMR12;writing-mode:lr-tb;fill:#000000;fill-opacity:1;fill-rule:nonzero;stroke:none"
               transform="matrix(1,0,0,-1,75.278877,3.3206863)"><tspan
                 id="tspan110"
                 y="0"
                 x="0">0</tspan></text>
<text
               id="text116"
               style="font-variant:normal;font-weight:normal;font-size:11.95500088px;font-family:CMMI12;-inkscape-font-specification:CMMI12;writing-mode:lr-tb;fill:#000000;fill-opacity:1;fill-rule:nonzero;stroke:none"
               transform="matrix(1,0,0,-1,152.98518,7.8205485)"><tspan
                 id="tspan114"
                 y="0"
                 x="0">x</tspan></text>
<text
               id="text120"
               style="font-variant:normal;font-weight:normal;font-size:11.95500088px;font-family:CMR12;-inkscape-font-specification:CMR12;writing-mode:lr-tb;fill:#000000;fill-opacity:1;fill-rule:nonzero;stroke:none"
               transform="matrix(1,0,0,-1,66.392723,54.213123)"><tspan
                 id="tspan118"
                 y="0"
                 x="0">1</tspan></text>
<path
               id="path122"
               style="fill:none;stroke:#000000;stroke-width:0.5;stroke-linecap:butt;stroke-linejoin:miter;stroke-miterlimit:4;stroke-dasharray:3, 3, 3, 3, 3;stroke-dashoffset:0;stroke-opacity:1"
               d="m 1,117.5 4.5,-9.5 4.5,-8 6.577002,-11.150002 8.128,-10.921997 8.611,-9.805999 L 43.856003,59.349003 55.325001,52.713001 64.5,49.5 67.924004,48.75 74.439003,47.696003 M 148.50601,117.53 l -4.5,-9.5 -4.5,-8 L 132.929,88.881004 124.801,77.959007 116.18999,68.153 105.64999,59.379997 94.18,52.743004 l -9.173996,-3.213005 -3.424003,-0.75 -6.515,-1.053997" /><text
               id="text126"
               style="font-variant:normal;font-weight:normal;font-size:11.95500088px;font-family:CMMI12;-inkscape-font-specification:CMMI12;writing-mode:lr-tb;fill:#000000;fill-opacity:1;fill-rule:nonzero;stroke:none"
               transform="matrix(1,0,0,-1,79.398399,116.5113)"><tspan
                 id="tspan124"
                 y="0"
                 x="0">y</tspan></text>
</g></g></g></g></g></svg>