<?xml version="1.0" encoding="UTF-8" standalone="no"?>
<svg
   xmlns:dc="http://purl.org/dc/elements/1.1/"
   xmlns:cc="http://creativecommons.org/ns#"
   xmlns:rdf="http://www.w3.org/1999/02/22-rdf-syntax-ns#"
   xmlns:svg="http://www.w3.org/2000/svg"
   xmlns="http://www.w3.org/2000/svg"
   viewBox="0 0 282.66666 188"
   height="188"
   width="282.66666"
   xml:space="preserve"
   id="svg2"
   version="1.1"><metadata
     id="metadata8"><rdf:RDF><cc:Work
         rdf:about=""><dc:format>image/svg+xml</dc:format><dc:type
           rdf:resource="http://purl.org/dc/dcmitype/StillImage" /></cc:Work></rdf:RDF></metadata><defs
     id="defs6"><clipPath
       id="clipPath24"
       clipPathUnits="userSpaceOnUse"><path
         id="path22"
         d="M 0,0 H 212 V 141 H 0 Z" /></clipPath><clipPath
       id="clipPath38"
       clipPathUnits="userSpaceOnUse"><path
         id="path36"
         d="M 0.06,0 H 211.12601 V 140.2 H 0.06 Z" /></clipPath><clipPath
       id="clipPath52"
       clipPathUnits="userSpaceOnUse"><path
         id="path50"
         d="M 0.06,0 H 211.12601 V 140.2 H 0.06 Z" /></clipPath><clipPath
       id="clipPath66"
       clipPathUnits="userSpaceOnUse"><path
         id="path64"
         d="M 0.06,0 H 211.12601 V 140.2 H 0.06 Z" /></clipPath><clipPath
       id="clipPath80"
       clipPathUnits="userSpaceOnUse"><path
         id="path78"
         d="M 0.06,0 H 211.12601 V 140.2 H 0.06 Z" /></clipPath></defs><g
     transform="matrix(1.3333333,0,0,-1.3333333,0,188)"
     id="g10"><g
       id="g12" /><g
       id="g14" /><g
       id="g16"><g
         id="g18"><g
           clip-path="url(#clipPath24)"
           id="g20"><g
             id="g26" /><g
             id="g28"><path
               id="path30"
               style="fill:#ffffff;fill-opacity:1;fill-rule:nonzero;stroke:none"
               d="M 9.6999998,0.5 V 139.7" /></g><g
             id="g32"><g
               clip-path="url(#clipPath38)"
               id="g34"><path
                 id="path40"
                 style="fill:none;stroke:#231f20;stroke-width:2;stroke-linecap:butt;stroke-linejoin:miter;stroke-miterlimit:4;stroke-dasharray:none;stroke-opacity:1"
                 d="M 9.6999998,0.5 V 139.7" /></g></g><g
             id="g42"><path
               id="path44"
               style="fill:#ffffff;fill-opacity:1;fill-rule:nonzero;stroke:none"
               d="M 116.90101,0.5 V 139.7" /></g><g
             id="g46"><g
               clip-path="url(#clipPath52)"
               id="g48"><path
                 id="path54"
                 style="fill:none;stroke:#231f20;stroke-width:2;stroke-linecap:butt;stroke-linejoin:miter;stroke-miterlimit:4;stroke-dasharray:none;stroke-opacity:1"
                 d="M 116.90101,0.5 V 139.7" /></g></g><g
             id="g56"><path
               id="path58"
               style="fill:#8e8c8c;fill-opacity:1;fill-rule:nonzero;stroke:none"
               d="M 0.5,139.7 H 9.3000002 V 0.5 H 0.5 Z" /></g><g
             id="g60"><g
               clip-path="url(#clipPath66)"
               id="g62"><path
                 id="path68"
                 style="fill:none;stroke:#231f20;stroke-width:1;stroke-linecap:butt;stroke-linejoin:miter;stroke-miterlimit:4;stroke-dasharray:none;stroke-opacity:1"
                 d="M 0.5,139.7 H 9.3000002 V 0.5 H 0.5 Z" /></g></g><g
             id="g70"><path
               id="path72"
               style="fill:#8e8c8c;fill-opacity:1;fill-rule:nonzero;stroke:none"
               d="M 117.701,139.7 H 126.5 V 0.5 h -8.799 z" /></g><g
             id="g74"><g
               clip-path="url(#clipPath80)"
               id="g76"><path
                 id="path82"
                 style="fill:none;stroke:#231f20;stroke-width:1;stroke-linecap:butt;stroke-linejoin:miter;stroke-miterlimit:4;stroke-dasharray:none;stroke-opacity:1"
                 d="m 117.701,139.7 h 8.79901 V 0.5 H 117.701 Z" /></g></g><g
             id="g84"><path
               id="path86"
               style="fill:#231f20;fill-opacity:1;fill-rule:nonzero;stroke:none"
               d="M 18.637001,30.099001 H 109.938" /><path
               id="path88"
               style="fill:none;stroke:#231f20;stroke-width:1;stroke-linecap:butt;stroke-linejoin:miter;stroke-miterlimit:4;stroke-dasharray:none;stroke-opacity:1"
               d="M 18.637001,30.099001 H 109.938" /><path
               id="path90"
               style="fill:#231f20;fill-opacity:1;fill-rule:nonzero;stroke:none"
               d="m 112.535,31.226002 c -1.818,0.549 -3,1.055 -4.459,1.641998 v -5.549999 c 0.52201,0.248001 2.641,1.093 4.459,1.641001 1.947,0.589 3.71301,0.989999 4.85701,1.135 -1.144,0.142999 -2.91001,0.544 -4.85701,1.132" /><path
               id="path92"
               style="fill:#231f20;fill-opacity:1;fill-rule:nonzero;stroke:none"
               d="m 16.039001,28.972002 c 1.817999,-0.548 3.000998,-1.054001 4.46,-1.640001 v 5.549 c -0.522,-0.247998 -2.642001,-1.092999 -4.46,-1.641001 -1.946001,-0.587998 -3.711,-0.99 -4.856,-1.133999 1.145,-0.143999 2.909999,-0.546002 4.856,-1.133999" /><path
               id="path94"
               style="fill:#231f20;fill-opacity:1;fill-rule:nonzero;stroke:none"
               d="M 11.454,61.766003 H 39.787003" /><path
               id="path96"
               style="fill:none;stroke:#231f20;stroke-width:1;stroke-linecap:butt;stroke-linejoin:miter;stroke-miterlimit:4;stroke-dasharray:none;stroke-opacity:1"
               d="M 11.454,61.766003 H 39.787003" /><path
               id="path98"
               style="fill:#231f20;fill-opacity:1;fill-rule:nonzero;stroke:none"
               d="m 42.149002,62.791004 c -1.653,0.498993 -2.728001,0.958996 -4.054001,1.492001 v -5.045002 c 0.473999,0.226002 2.401001,0.993 4.054001,1.491001 1.769001,0.535 3.374001,0.900993 4.414002,1.030994 -1.040001,0.131005 -2.645001,0.497006 -4.414002,1.031006" /><text
               id="text102"
               style="font-variant:normal;font-weight:normal;font-size:11.95500088px;font-family:CMMI12;-inkscape-font-specification:CMMI12;writing-mode:lr-tb;fill:#231f20;fill-opacity:1;fill-rule:nonzero;stroke:none"
               transform="matrix(1,0,0,-1,207.13301,63.435398)"><tspan
                 id="tspan100"
                 y="0"
                 x="0">i</tspan></text>
<path
               id="path104"
               style="fill:#231f20;fill-opacity:1;fill-rule:nonzero;stroke:none"
               d="m 207.13301,62.001003 h 3.993 v -0.478001 h -3.993 z" /><text
               id="text108"
               style="font-variant:normal;font-weight:normal;font-size:11.95500088px;font-family:CMMI12;-inkscape-font-specification:CMMI12;writing-mode:lr-tb;fill:#231f20;fill-opacity:1;fill-rule:nonzero;stroke:none"
               transform="matrix(1,0,0,-1,172.36101,104.7688)"><tspan
                 id="tspan106"
                 y="0"
                 x="0">j</tspan></text>
<path
               id="path110"
               style="fill:#231f20;fill-opacity:1;fill-rule:nonzero;stroke:none"
               d="m 172.36201,101.00999 h 5.515 v -0.478 h -5.515 z" /><text
               id="text114"
               style="font-variant:normal;font-weight:normal;font-size:11.95500088px;font-family:CMMI12;-inkscape-font-specification:CMMI12;writing-mode:lr-tb;fill:#231f20;fill-opacity:1;fill-rule:nonzero;stroke:none"
               transform="matrix(1,0,0,-1,47.445797,59.434898)"><tspan
                 id="tspan112"
                 y="0"
                 x="0">x</tspan></text>
<path
               id="path116"
               style="fill:none;stroke:#231f20;stroke-width:1;stroke-linecap:butt;stroke-linejoin:miter;stroke-miterlimit:4;stroke-dasharray:none;stroke-opacity:1"
               d="M 199.45502,71.433006 H 167.121 v 32.333004" /><path
               id="path118"
               style="fill:#231f20;fill-opacity:1;fill-rule:nonzero;stroke:none"
               d="m 166.09601,106.12801 c -0.49899,-1.653 -0.959,-2.72801 -1.49201,-4.054 h 5.045 c -0.226,0.47499 -0.99299,2.401 -1.491,4.054 -0.535,1.76999 -0.901,3.374 -1.03199,4.415 -0.13001,-1.041 -0.49602,-2.64501 -1.03,-4.415" /><path
               id="path120"
               style="fill:#231f20;fill-opacity:1;fill-rule:nonzero;stroke:none"
               d="m 201.81702,72.458 c -1.65401,0.499001 -2.72901,0.959 -4.05501,1.491997 v -5.044991 c 0.475,0.225998 2.401,0.992997 4.05501,1.490998 1.76899,0.534996 3.37298,0.901001 4.41398,1.030998 -1.041,0.131004 -2.64499,0.497002 -4.41398,1.030998" /><text
               id="text124"
               style="font-variant:normal;font-weight:normal;font-size:11.95500088px;font-family:Times;-inkscape-font-specification:Times-Roman;writing-mode:lr-tb;fill:#231f20;fill-opacity:1;fill-rule:nonzero;stroke:none"
               transform="matrix(1,0,0,-1,54.445297,14.435)"><tspan
                 id="tspan122"
                 y="0"
                 x="0 5.9775004 11.955001 14.943751">20 m</tspan></text>
</g></g></g></g></g></svg>