<?xml version="1.0" encoding="UTF-8" standalone="no"?>
<svg
   xmlns:dc="http://purl.org/dc/elements/1.1/"
   xmlns:cc="http://creativecommons.org/ns#"
   xmlns:rdf="http://www.w3.org/1999/02/22-rdf-syntax-ns#"
   xmlns:svg="http://www.w3.org/2000/svg"
   xmlns="http://www.w3.org/2000/svg"
   viewBox="0 0 220 128"
   height="128"
   width="220"
   xml:space="preserve"
   id="svg2"
   version="1.1"><metadata
     id="metadata8"><rdf:RDF><cc:Work
         rdf:about=""><dc:format>image/svg+xml</dc:format><dc:type
           rdf:resource="http://purl.org/dc/dcmitype/StillImage" /></cc:Work></rdf:RDF></metadata><defs
     id="defs6"><clipPath
       id="clipPath24"
       clipPathUnits="userSpaceOnUse"><path
         id="path22"
         d="M 0,0 H 165 V 96 H 0 Z" /></clipPath><clipPath
       id="clipPath68"
       clipPathUnits="userSpaceOnUse"><path
         id="path66"
         d="M 0.06,0.06000519 H 164.237 V 95.540001 H 0.06 Z" /></clipPath></defs><g
     transform="matrix(1.3333333,0,0,-1.3333333,0,128)"
     id="g10"><g
       id="g12" /><g
       id="g14" /><g
       id="g16"><g
         id="g18"><g
           clip-path="url(#clipPath24)"
           id="g20"><g
             id="g26" /><g
             id="g28"><text
               id="text32"
               style="font-variant:normal;font-weight:normal;font-size:11.95500088px;font-family:CMR12;-inkscape-font-specification:CMR12;writing-mode:lr-tb;fill:#231f20;fill-opacity:1;fill-rule:nonzero;stroke:none"
               transform="matrix(1,0,0,-1,95.616196,86.574295)"><tspan
                 id="tspan30"
                 y="0"
                 x="0 5.8459954 10.388896 16.234892">grad</tspan></text>
<text
               id="text36"
               style="font-variant:normal;font-weight:normal;font-size:11.95500088px;font-family:CMMI12;-inkscape-font-specification:CMMI12;writing-mode:lr-tb;fill:#231f20;fill-opacity:1;fill-rule:nonzero;stroke:none"
               transform="matrix(1,0,0,-1,119.27992,85.573662)"><tspan
                 id="tspan34"
                 y="0"
                 x="0">f</tspan></text>
<text
               id="text40"
               style="font-variant:normal;font-weight:normal;font-size:11.95500088px;font-family:CMMI12;-inkscape-font-specification:CMMI12;writing-mode:lr-tb;fill:#231f20;fill-opacity:1;fill-rule:nonzero;stroke:none"
               transform="matrix(1,0,0,-1,80.228912,65.574142)"><tspan
                 id="tspan38"
                 y="0"
                 x="0">A</tspan></text>
<text
               id="text44"
               style="font-variant:normal;font-weight:normal;font-size:11.95500088px;font-family:CMR12;-inkscape-font-specification:CMR12;writing-mode:lr-tb;fill:#231f20;fill-opacity:1;fill-rule:nonzero;stroke:none"
               transform="matrix(1,0,0,-1,73.905914,6.5738254)"><tspan
                 id="tspan42"
                 y="0"
                 x="0">1</tspan></text>
<text
               id="text48"
               style="font-variant:normal;font-weight:normal;font-size:11.95500088px;font-family:CMR12;-inkscape-font-specification:CMR12;writing-mode:lr-tb;fill:#231f20;fill-opacity:1;fill-rule:nonzero;stroke:none"
               transform="matrix(1,0,0,-1,38.617146,63.125763)"><tspan
                 id="tspan46"
                 y="0"
                 x="0">2</tspan></text>
<text
               id="text52"
               style="font-variant:normal;font-weight:normal;font-size:11.95500088px;font-family:CMMI12;-inkscape-font-specification:CMMI12;writing-mode:lr-tb;fill:#231f20;fill-opacity:1;fill-rule:nonzero;stroke:none"
               transform="matrix(1,0,0,-1,35.415596,7.5744615)"><tspan
                 id="tspan50"
                 y="0"
                 x="0">O</tspan></text>
<text
               id="text56"
               style="font-variant:normal;font-weight:normal;font-size:11.95500088px;font-family:CMMI12;-inkscape-font-specification:CMMI12;writing-mode:lr-tb;fill:#231f20;fill-opacity:1;fill-rule:nonzero;stroke:none"
               transform="matrix(1,0,0,-1,157.58972,9.5745335)"><tspan
                 id="tspan54"
                 y="0"
                 x="0">x</tspan></text>
<text
               id="text60"
               style="font-variant:normal;font-weight:normal;font-size:11.95500088px;font-family:CMMI12;-inkscape-font-specification:CMMI12;writing-mode:lr-tb;fill:#231f20;fill-opacity:1;fill-rule:nonzero;stroke:none"
               transform="matrix(1,0,0,-1,52.643948,84.574234)"><tspan
                 id="tspan58"
                 y="0"
                 x="0">y</tspan></text>
</g><g
             id="g62"><g
               clip-path="url(#clipPath68)"
               id="g64"><path
                 id="path70"
                 style="fill:none;stroke:#231f20;stroke-width:1;stroke-linecap:butt;stroke-linejoin:miter;stroke-miterlimit:4;stroke-dasharray:none;stroke-opacity:1"
                 d="M 0.44200003,44.688004 C 9.1680002,61.579002 26.793001,73.126007 47.116001,73.126007 c 28.994999,0 52.500004,-23.505005 52.500004,-52.500006 0,-7.249 -1.469002,-14.1540009 -4.125,-20.43500099 M 37.616001,19.126001 H 152.617" /></g></g><g
             id="g72"><path
               id="path74"
               style="fill:#231f20;fill-opacity:1;fill-rule:nonzero;stroke:none"
               d="m 154.97801,20.15 c -1.65201,0.499 -2.72801,0.959001 -4.054,1.493002 v -5.045001 c 0.47499,0.224999 2.40199,0.993001 4.054,1.491 1.76999,0.535 3.375,0.899999 4.415,1.030998 -1.04,0.131002 -2.64501,0.496002 -4.415,1.030001" /><path
               id="path76"
               style="fill:none;stroke:#231f20;stroke-width:1;stroke-linecap:butt;stroke-linejoin:miter;stroke-miterlimit:4;stroke-dasharray:none;stroke-opacity:1"
               d="M 46.116001,11.126 V 84.126007" /><path
               id="path78"
               style="fill:#231f20;fill-opacity:1;fill-rule:nonzero;stroke:none"
               d="m 45.092003,86.487007 c -0.499001,-1.652 -0.959,-2.727012 -1.492001,-4.053001 H 48.645 c -0.225997,0.473999 -0.993999,2.401001 -1.491996,4.053001 -0.535,1.769997 -0.900002,3.375 -1.031002,4.415001 -0.131001,-1.040001 -0.495999,-2.645004 -1.029999,-4.415001" /><path
               id="path80"
               style="fill:#231f20;fill-opacity:1;fill-rule:nonzero;stroke:none"
               d="M 75.244003,64.729004 87.616005,84.126007" /><path
               id="path82"
               style="fill:none;stroke:#231f20;stroke-width:1;stroke-linecap:butt;stroke-linejoin:miter;stroke-miterlimit:4;stroke-dasharray:3, 3, 3, 3, 3, 3;stroke-dashoffset:0;stroke-opacity:1"
               d="M 47.116001,20.626001 75.244003,64.729004 H 46.616001" /><path
               id="path84"
               style="fill:#231f20;fill-opacity:1;fill-rule:nonzero;stroke:none"
               d="m 88.022003,86.668007 c -1.308998,-1.126 -2.275001,-1.784004 -3.437996,-2.616005 l 4.253998,-2.712997 c 0.065,0.520996 0.454002,2.557998 0.922997,4.220993 0.5,1.779007 1.054,3.32901 1.504005,4.276008 -0.670006,-0.806999 -1.840004,-1.963005 -3.243004,-3.167999" /><path
               id="path86"
               style="fill:none;stroke:#231f20;stroke-width:1;stroke-linecap:butt;stroke-linejoin:miter;stroke-miterlimit:4;stroke-dasharray:3, 3, 3, 3, 3, 3;stroke-dashoffset:0;stroke-opacity:1"
               d="M 75.244003,64.729004 V 21.126001" /></g></g></g></g></g></svg>