<?xml version="1.0" encoding="UTF-8" standalone="no"?>
<svg
   xmlns:dc="http://purl.org/dc/elements/1.1/"
   xmlns:cc="http://creativecommons.org/ns#"
   xmlns:rdf="http://www.w3.org/1999/02/22-rdf-syntax-ns#"
   xmlns:svg="http://www.w3.org/2000/svg"
   xmlns="http://www.w3.org/2000/svg"
   viewBox="0 0 196 169.33333"
   height="169.33333"
   width="196"
   xml:space="preserve"
   id="svg2"
   version="1.1"><metadata
     id="metadata8"><rdf:RDF><cc:Work
         rdf:about=""><dc:format>image/svg+xml</dc:format><dc:type
           rdf:resource="http://purl.org/dc/dcmitype/StillImage" /></cc:Work></rdf:RDF></metadata><defs
     id="defs6"><clipPath
       id="clipPath24"
       clipPathUnits="userSpaceOnUse"><path
         id="path22"
         d="M 0,0 H 147 V 127 H 0 Z" /></clipPath><clipPath
       id="clipPath34"
       clipPathUnits="userSpaceOnUse"><path
         id="path32"
         d="M 0.06,0.05999756 H 146.38201 V 126.83401 H 0.06 Z" /></clipPath></defs><g
     transform="matrix(1.3333333,0,0,-1.3333333,0,169.33333)"
     id="g10"><g
       id="g12" /><g
       id="g14" /><g
       id="g16"><g
         id="g18"><g
           clip-path="url(#clipPath24)"
           id="g20"><g
             id="g26" /><g
             id="g28"><g
               clip-path="url(#clipPath34)"
               id="g30"><path
                 id="path36"
                 style="fill:#ffffff;fill-opacity:1;fill-rule:nonzero;stroke:none"
                 d="M 0,55.299999 H 129.5" /><path
                 id="path38"
                 style="fill:none;stroke:#231f20;stroke-width:1;stroke-linecap:butt;stroke-linejoin:miter;stroke-miterlimit:4;stroke-dasharray:none;stroke-opacity:1"
                 d="M 0,55.299999 H 129.5" /><path
                 id="path40"
                 style="fill:#231f20;fill-opacity:1;fill-rule:nonzero;stroke:none"
                 d="m 131.48401,56.161003 c -1.38901,0.418995 -2.291,0.805 -3.405,1.252998 v -4.237998 c 0.399,0.189998 2.01599,0.833995 3.405,1.252998 1.487,0.449001 2.834,0.756 3.709,0.866001 -0.875,0.110001 -2.222,0.417 -3.709,0.866001" /><path
                 id="path42"
                 style="fill:#ffffff;fill-opacity:1;fill-rule:nonzero;stroke:none"
                 d="M 65.101006,0 V 119.7" /><path
                 id="path44"
                 style="fill:none;stroke:#231f20;stroke-width:1;stroke-linecap:butt;stroke-linejoin:miter;stroke-miterlimit:4;stroke-dasharray:none;stroke-opacity:1"
                 d="M 65.101006,0 V 119.7" /></g></g><g
             id="g46"><path
               id="path48"
               style="fill:#231f20;fill-opacity:1;fill-rule:nonzero;stroke:none"
               d="m 64.239006,121.68401 c -0.419006,-1.389 -0.804005,-2.291 -1.253002,-3.406 h 4.238003 c -0.190003,0.39899 -0.834008,2.017 -1.253006,3.406 -0.448998,1.48599 -0.755997,2.834 -0.866997,3.709 -0.109001,-0.875 -0.416,-2.22301 -0.864998,-3.709" /><path
               id="path50"
               style="fill:#ffffff;fill-opacity:1;fill-rule:nonzero;stroke:none"
               d="M 114.10101,55.379997 V 102.2" /><path
               id="path52"
               style="fill:none;stroke:#231f20;stroke-width:0.80000001;stroke-linecap:butt;stroke-linejoin:miter;stroke-miterlimit:4;stroke-dasharray:none;stroke-opacity:1"
               d="M 114.10101,55.379997 V 102.2" /><path
               id="path54"
               style="fill:#231f20;fill-opacity:1;fill-rule:nonzero;stroke:none"
               d="m 113.52701,103.523 c -0.279,-0.92599 -0.53701,-1.528 -0.83601,-2.27099 h 2.82501 c -0.12601,0.266 -0.55601,1.345 -0.835,2.27099 -0.30001,0.99101 -0.50401,1.889 -0.57701,2.472 -0.073,-0.583 -0.278,-1.48099 -0.57699,-2.472" /><path
               id="path56"
               style="fill:#ffffff;fill-opacity:1;fill-rule:nonzero;stroke:none"
               d="M 97.101006,55.629997 V 83.200005" /><path
               id="path58"
               style="fill:none;stroke:#231f20;stroke-width:0.80000001;stroke-linecap:butt;stroke-linejoin:miter;stroke-miterlimit:4;stroke-dasharray:none;stroke-opacity:1"
               d="M 97.101006,55.629997 V 83.200005" /><path
               id="path60"
               style="fill:#231f20;fill-opacity:1;fill-rule:nonzero;stroke:none"
               d="m 96.526001,84.523003 c -0.278999,-0.925995 -0.536995,-1.528 -0.836006,-2.270996 h 2.826011 c -0.126007,0.265998 -0.556007,1.345001 -0.834999,2.270996 -0.300003,0.991005 -0.504005,1.889 -0.577003,2.472 -0.074,-0.583 -0.278999,-1.480995 -0.578003,-2.472" /><path
               id="path62"
               style="fill:#ffffff;fill-opacity:1;fill-rule:nonzero;stroke:none"
               d="M 81.200005,54.881004 V 68.5" /><path
               id="path64"
               style="fill:none;stroke:#231f20;stroke-width:0.80000001;stroke-linecap:butt;stroke-linejoin:miter;stroke-miterlimit:4;stroke-dasharray:none;stroke-opacity:1"
               d="M 81.200005,54.881004 V 68.5" /><path
               id="path66"
               style="fill:#231f20;fill-opacity:1;fill-rule:nonzero;stroke:none"
               d="m 80.626007,69.823006 c -0.279007,-0.926003 -0.537002,-1.528 -0.836006,-2.271004 h 2.826004 c -0.126999,0.265999 -0.556007,1.345001 -0.834999,2.271004 -0.300003,0.989998 -0.505005,1.889 -0.577004,2.472 -0.074,-0.583 -0.278999,-1.482002 -0.577995,-2.472" /><path
               id="path68"
               style="fill:#ffffff;fill-opacity:1;fill-rule:nonzero;stroke:none"
               d="M 16.306002,55.131004 V 11.244" /><path
               id="path70"
               style="fill:none;stroke:#231f20;stroke-width:0.80000001;stroke-linecap:butt;stroke-linejoin:miter;stroke-miterlimit:4;stroke-dasharray:none;stroke-opacity:1"
               d="M 16.306002,55.131004 V 11.244" /><path
               id="path72"
               style="fill:#231f20;fill-opacity:1;fill-rule:nonzero;stroke:none"
               d="M 16.879999,9.9210005 C 17.159,10.847 17.417002,11.449 17.716002,12.192 h -2.825001 c 0.126,-0.265999 0.555,-1.345 0.833999,-2.2709995 0.300002,-0.9899998 0.504,-1.889 0.578001,-2.4710007 0.073,0.5820007 0.278,1.4810009 0.576998,2.4710007" /><path
               id="path74"
               style="fill:#ffffff;fill-opacity:1;fill-rule:nonzero;stroke:none"
               d="M 33.556,55.379997 V 28.745001" /><path
               id="path76"
               style="fill:none;stroke:#231f20;stroke-width:0.80000001;stroke-linecap:butt;stroke-linejoin:miter;stroke-miterlimit:4;stroke-dasharray:none;stroke-opacity:1"
               d="M 33.556,55.379997 V 28.745001" /><path
               id="path78"
               style="fill:#231f20;fill-opacity:1;fill-rule:nonzero;stroke:none"
               d="m 34.130001,27.422001 c 0.278999,0.926 0.536999,1.527998 0.836002,2.27 h -2.825 c 0.125999,-0.264999 0.555,-1.344 0.833999,-2.27 0.3,-0.990999 0.503998,-1.89 0.577999,-2.472002 0.073,0.582002 0.278,1.481003 0.577,2.472002" /><path
               id="path80"
               style="fill:#ffffff;fill-opacity:1;fill-rule:nonzero;stroke:none"
               d="M 49.706001,55.629997 V 44.445004" /><path
               id="path82"
               style="fill:none;stroke:#231f20;stroke-width:0.80000001;stroke-linecap:butt;stroke-linejoin:miter;stroke-miterlimit:4;stroke-dasharray:none;stroke-opacity:1"
               d="M 49.706001,55.629997 V 44.445004" /><path
               id="path84"
               style="fill:#231f20;fill-opacity:1;fill-rule:nonzero;stroke:none"
               d="m 50.279999,43.122002 c 0.279003,0.925998 0.537002,1.527996 0.836002,2.27 h -2.824997 c 0.126,-0.265999 0.554997,-1.344002 0.834,-2.27 0.299999,-0.991001 0.503998,-1.89 0.577999,-2.472004 0.073,0.582004 0.278,1.481003 0.576996,2.472004" /><text
               id="text88"
               style="font-variant:normal;font-weight:normal;font-size:11.95500088px;font-family:CMMI12;-inkscape-font-specification:CMMI12;writing-mode:lr-tb;fill:#231f20;fill-opacity:1;fill-rule:nonzero;stroke:none"
               transform="matrix(1,0,0,-1,139.73401,51.867699)"><tspan
                 id="tspan86"
                 y="0"
                 x="0">x</tspan></text>
<text
               id="text92"
               style="font-variant:normal;font-weight:normal;font-size:11.95500088px;font-family:CMMI12;-inkscape-font-specification:CMMI12;writing-mode:lr-tb;fill:#231f20;fill-opacity:1;fill-rule:nonzero;stroke:none"
               transform="matrix(1,0,0,-1,71.288048,117.86767)"><tspan
                 id="tspan90"
                 y="0"
                 x="0">z</tspan></text>
</g></g></g></g></g></svg>